<?xml version="1.0" encoding="UTF-8"?>
<svg xmlns="http://www.w3.org/2000/svg" xmlns:xlink="http://www.w3.org/1999/xlink" width="119pt" height="85pt" viewBox="0 0 119 85" version="1.1">
<g id="surface26">
<rect x="0" y="0" width="119" height="85" style="fill:rgb(89.4104%,11.764526%,12.548828%);fill-opacity:1;stroke:none;"/>
<path style=" stroke:none;fill-rule:evenodd;fill:rgb(0%,0%,0%);fill-opacity:1;" d="M 51.015625 16.523438 C 50.191406 16.511719 48.816406 16.789062 48.847656 17.421875 C 46.546875 17.027344 46.308594 17.980469 46.441406 18.824219 C 46.660156 18.488281 46.925781 18.304688 47.132812 18.273438 C 47.441406 18.222656 47.761719 18.320312 48.089844 18.523438 C 48.417969 18.722656 48.777344 19.046875 48.9375 19.25 C 48.125 19.445312 47.5 19.320312 46.859375 19.207031 C 46.546875 19.152344 46.109375 18.976562 45.847656 18.792969 C 45.585938 18.609375 45.503906 18.4375 45.09375 18.019531 C 44.609375 17.519531 44.09375 17.660156 44.253906 18.433594 C 44.625 19.148438 45.246094 19.46875 46.027344 19.59375 C 46.402344 19.65625 46.964844 19.792969 47.601562 19.792969 C 48.234375 19.792969 48.949219 19.699219 49.335938 19.78125 C 49.105469 19.925781 48.839844 20.179688 48.316406 20.28125 C 47.785156 20.382812 46.976562 19.964844 46.484375 19.851562 C 46.546875 20.265625 47.070312 20.652344 48.101562 20.855469 C 49.792969 21.222656 51.195312 21.503906 52.125 22.007812 C 53.054688 22.511719 53.640625 23.144531 54.058594 23.636719 C 54.894531 24.621094 54.9375 25.378906 54.988281 25.546875 C 55.160156 27.117188 54.613281 28.003906 53.59375 28.277344 C 53.082031 28.410156 52.175781 28.15625 51.84375 27.765625 C 51.511719 27.375 51.1875 26.707031 51.28125 25.65625 C 51.371094 25.246094 51.839844 24.171875 51.441406 23.953125 C 49.59375 22.929688 47.351562 21.898438 45.730469 21.285156 C 45.285156 21.117188 44.921875 21.71875 44.78125 21.953125 C 42.023438 21.617188 39.539062 19.753906 38.421875 17.769531 C 37.65625 16.414062 36.402344 17.769531 36.613281 19.046875 C 36.953125 20.472656 38.039062 21.503906 39.34375 22.234375 C 40.683594 22.972656 42.355469 23.695312 44.046875 23.660156 C 44.957031 23.832031 44.949219 25.011719 43.855469 25.230469 C 41.714844 25.246094 40.007812 25.191406 38.398438 23.636719 C 37.175781 22.523438 36.488281 23.851562 36.84375 24.605469 C 37.441406 26.925781 40.753906 27.578125 44.105469 26.824219 C 45.402344 26.609375 44.625 28 44.257812 28.015625 C 42.859375 29.019531 40.351562 30.003906 38.144531 28.003906 C 37.132812 27.230469 36.449219 27.882812 36.828125 29 C 37.804688 31.910156 41.554688 31.300781 44.125 29.863281 C 44.789062 29.496094 45.390625 30.355469 44.582031 31.007812 C 41.382812 33.242188 39.78125 33.269531 38.339844 32.410156 C 36.535156 31.695312 36.375 33.699219 37.449219 34.359375 C 38.640625 35.089844 41.675781 34.542969 43.902344 33.140625 C 44.859375 32.433594 44.902344 33.542969 44.296875 33.980469 C 41.652344 36.265625 40.613281 36.867188 37.855469 36.496094 C 36.492188 36.386719 36.511719 38.074219 37.585938 38.730469 C 39.050781 39.628906 41.917969 38.136719 44.140625 36.292969 C 45.078125 35.792969 45.230469 36.613281 44.769531 37.582031 C 43.410156 39.296875 42.132812 40.308594 40.90625 40.777344 C 39.679688 41.242188 38.496094 41.167969 37.660156 40.882812 C 36.640625 40.53125 36.511719 41.59375 37.078125 42.554688 C 37.414062 43.136719 38.824219 43.324219 40.34375 42.785156 C 41.863281 42.246094 43.496094 40.980469 44.613281 39.5 C 45.589844 38.648438 45.46875 39.792969 45.023438 40.601562 C 42.78125 44.148438 40.730469 45.460938 38.027344 45.238281 C 36.828125 45.035156 36.554688 45.96875 37.320312 46.828125 C 38.660156 47.941406 40.335938 47.90625 41.804688 46.804688 C 43.109375 45.550781 45.601562 42.84375 46.910156 41.394531 C 47.832031 40.65625 48.125 41.382812 47.855469 42.875 C 47.609375 43.730469 46.992188 44.628906 45.316406 45.285156 C 44.167969 45.941406 45.03125 46.84375 45.890625 46.859375 C 46.363281 46.867188 47.324219 46.316406 48.054688 45.488281 C 49.023438 44.398438 49.082031 43.667969 49.613281 41.976562 C 50.117188 41.152344 51.015625 41.539062 51.015625 42.402344 C 50.585938 44.097656 50.214844 44.402344 49.34375 45.09375 C 48.507812 45.878906 49.921875 46.140625 50.398438 45.816406 C 51.777344 44.886719 52.28125 43.6875 52.742188 42.59375 C 53.074219 41.804688 54.039062 42.1875 53.59375 43.476562 C 52.523438 46.554688 50.765625 47.765625 47.695312 48.390625 C 47.382812 48.445312 47.195312 48.628906 47.304688 48.988281 C 47.714844 49.417969 48.128906 49.804688 48.539062 50.230469 C 46.640625 50.785156 45.097656 51.097656 43.195312 51.652344 C 42.261719 51.039062 41.507812 50.519531 40.578125 49.910156 C 40.332031 49.332031 40.214844 48.457031 38.839844 49.074219 C 37.90625 48.644531 37.476562 48.800781 36.960938 49.234375 C 37.707031 49.261719 38.03125 49.460938 38.324219 49.800781 C 38.707031 50.808594 39.589844 50.90625 40.492188 50.621094 C 41.078125 51.117188 41.390625 51.496094 41.980469 51.992188 C 40.882812 51.953125 40.121094 51.933594 39.023438 51.902344 C 37.980469 50.78125 37.148438 50.839844 36.402344 51.71875 C 35.832031 51.808594 35.589844 51.820312 35.199219 52.511719 C 35.8125 52.261719 36.199219 52.183594 36.464844 52.457031 C 37.574219 53.101562 38.300781 52.957031 38.851562 52.457031 C 39.921875 52.523438 40.886719 52.578125 41.957031 52.648438 C 41.566406 52.984375 41.023438 53.164062 40.628906 53.5 C 39.023438 53.039062 38.183594 53.660156 37.898438 54.972656 C 37.683594 55.5 37.582031 56.046875 37.675781 56.613281 C 37.832031 56.09375 38.082031 55.648438 38.542969 55.371094 C 39.976562 55.734375 40.515625 55.148438 40.59375 54.292969 C 41.285156 53.726562 42.324219 53.601562 43.015625 53.03125 C 43.820312 53.289062 44.210938 53.449219 45.023438 53.707031 C 45.3125 54.585938 45.964844 54.933594 47.027344 54.707031 C 48.289062 54.746094 48.066406 55.261719 48.167969 55.679688 C 48.503906 55.082031 48.496094 54.503906 47.71875 53.976562 C 47.433594 53.207031 46.808594 52.859375 45.984375 53.304688 C 45.210938 53.082031 45.007812 52.769531 44.238281 52.550781 C 46.1875 51.925781 47.570312 51.789062 49.515625 51.167969 C 50.003906 51.628906 50.390625 51.957031 50.882812 52.367188 C 51.140625 52.523438 51.390625 52.5625 51.542969 52.367188 C 52.761719 50.601562 53.308594 49.042969 54.441406 47.878906 C 54.875 47.398438 55.421875 46.746094 56.03125 46.589844 C 56.335938 46.507812 56.707031 46.558594 56.945312 46.816406 C 57.183594 47.078125 57.371094 47.554688 57.289062 48.265625 C 57.175781 49.289062 56.929688 49.613281 56.640625 50.226562 C 56.355469 50.839844 56.003906 51.21875 55.644531 51.6875 C 54.921875 52.628906 53.96875 53.175781 53.40625 53.542969 C 52.28125 54.277344 51.804688 53.953125 50.929688 53.910156 C 49.804688 54.035156 49.503906 54.585938 50.425781 55.34375 C 51.289062 55.792969 52.0625 55.847656 52.695312 55.730469 C 53.234375 55.632812 53.867188 54.933594 54.320312 54.558594 C 54.828125 53.96875 55.671875 54.667969 55.09375 55.347656 C 54.050781 56.589844 53.007812 57.40625 51.722656 57.386719 C 50.371094 57.570312 50.625 58.332031 51.519531 58.699219 C 53.136719 59.367188 54.59375 58.117188 55.335938 57.296875 C 55.90625 56.671875 56.3125 56.648438 56.210938 57.617188 C 55.644531 59.371094 54.867188 60.046875 53.601562 60.136719 C 52.578125 60.039062 52.566406 60.832031 53.316406 61.367188 C 55.027344 62.550781 56.265625 60.535156 56.84375 59.316406 C 57.257812 58.21875 57.890625 58.742188 57.953125 59.644531 C 57.960938 60.855469 57.414062 61.84375 55.953125 63.082031 C 57.070312 64.867188 58.378906 66.683594 59.5 68.476562 C 60.621094 66.683594 61.929688 64.867188 63.046875 63.082031 C 61.585938 61.84375 61.039062 60.855469 61.046875 59.644531 C 61.109375 58.742188 61.742188 58.21875 62.15625 59.316406 C 62.734375 60.535156 63.972656 62.550781 65.683594 61.367188 C 66.433594 60.832031 66.421875 60.039062 65.398438 60.136719 C 64.132812 60.046875 63.355469 59.371094 62.789062 57.617188 C 62.6875 56.648438 63.09375 56.671875 63.664062 57.296875 C 64.40625 58.117188 65.863281 59.367188 67.480469 58.699219 C 68.375 58.332031 68.628906 57.570312 67.277344 57.386719 C 65.992188 57.40625 64.949219 56.589844 63.90625 55.347656 C 63.328125 54.664062 64.171875 53.96875 64.679688 54.558594 C 65.132812 54.933594 65.765625 55.632812 66.304688 55.730469 C 66.9375 55.847656 67.710938 55.792969 68.574219 55.34375 C 69.496094 54.585938 69.195312 54.035156 68.070312 53.910156 C 67.195312 53.953125 66.71875 54.277344 65.59375 53.542969 C 65.03125 53.175781 64.078125 52.628906 63.355469 51.6875 C 62.996094 51.21875 62.644531 50.839844 62.359375 50.226562 C 62.070312 49.613281 61.824219 49.289062 61.710938 48.265625 C 61.628906 47.554688 61.816406 47.078125 62.054688 46.816406 C 62.292969 46.558594 62.664062 46.507812 62.96875 46.589844 C 63.578125 46.746094 64.125 47.398438 64.558594 47.878906 C 65.691406 49.042969 66.238281 50.601562 67.457031 52.367188 C 67.609375 52.5625 67.859375 52.523438 68.117188 52.367188 C 68.609375 51.957031 68.996094 51.628906 69.484375 51.167969 C 71.429688 51.789062 72.8125 51.925781 74.761719 52.550781 C 73.992188 52.769531 73.789062 53.082031 73.015625 53.304688 C 72.191406 52.859375 71.566406 53.207031 71.28125 53.976562 C 70.503906 54.503906 70.496094 55.082031 70.832031 55.675781 C 70.933594 55.261719 70.710938 54.746094 71.972656 54.707031 C 73.035156 54.929688 73.6875 54.585938 73.976562 53.707031 C 74.789062 53.449219 75.179688 53.289062 75.984375 53.03125 C 76.675781 53.601562 77.714844 53.726562 78.40625 54.292969 C 78.484375 55.148438 79.023438 55.734375 80.457031 55.371094 C 80.917969 55.648438 81.167969 56.09375 81.324219 56.613281 C 81.417969 56.046875 81.316406 55.5 81.101562 54.972656 C 80.816406 53.660156 79.976562 53.039062 78.371094 53.5 C 77.976562 53.164062 77.433594 52.984375 77.042969 52.648438 C 78.113281 52.578125 79.078125 52.523438 80.148438 52.457031 C 80.699219 52.957031 81.425781 53.101562 82.535156 52.457031 C 82.800781 52.183594 83.1875 52.261719 83.800781 52.511719 C 83.410156 51.820312 83.167969 51.808594 82.597656 51.71875 C 81.851562 50.839844 81.019531 50.78125 79.976562 51.902344 C 78.878906 51.933594 78.117188 51.953125 77.019531 51.992188 C 77.609375 51.496094 77.921875 51.117188 78.507812 50.621094 C 79.410156 50.90625 80.292969 50.808594 80.675781 49.800781 C 80.96875 49.460938 81.292969 49.261719 82.039062 49.234375 C 81.523438 48.800781 81.09375 48.644531 80.160156 49.074219 C 78.785156 48.457031 78.667969 49.332031 78.421875 49.910156 C 77.492188 50.519531 76.738281 51.039062 75.804688 51.652344 C 73.902344 51.097656 72.359375 50.785156 70.460938 50.230469 C 70.871094 49.804688 71.285156 49.417969 71.695312 48.988281 C 71.804688 48.628906 71.617188 48.445312 71.304688 48.390625 C 68.234375 47.765625 66.476562 46.554688 65.40625 43.476562 C 64.960938 42.1875 65.925781 41.804688 66.257812 42.59375 C 66.71875 43.6875 67.222656 44.886719 68.601562 45.816406 C 69.078125 46.140625 70.492188 45.878906 69.65625 45.09375 C 68.785156 44.402344 68.414062 44.097656 67.984375 42.402344 C 67.984375 41.539062 68.882812 41.152344 69.386719 41.976562 C 69.917969 43.667969 69.976562 44.398438 70.945312 45.488281 C 71.675781 46.316406 72.636719 46.867188 73.109375 46.859375 C 73.96875 46.84375 74.832031 45.941406 73.683594 45.285156 C 72.007812 44.628906 71.390625 43.730469 71.144531 42.875 C 70.875 41.382812 71.167969 40.65625 72.089844 41.394531 C 73.398438 42.84375 75.890625 45.550781 77.195312 46.804688 C 78.664062 47.90625 80.339844 47.941406 81.679688 46.828125 C 82.445312 45.96875 82.171875 45.035156 80.972656 45.238281 C 78.269531 45.460938 76.21875 44.148438 73.976562 40.601562 C 73.53125 39.792969 73.410156 38.648438 74.386719 39.5 C 75.503906 40.980469 77.136719 42.246094 78.65625 42.785156 C 80.175781 43.324219 81.585938 43.136719 81.921875 42.554688 C 82.488281 41.59375 82.359375 40.53125 81.339844 40.882812 C 80.503906 41.167969 79.320312 41.242188 78.09375 40.777344 C 76.867188 40.308594 75.589844 39.296875 74.230469 37.582031 C 73.769531 36.613281 73.921875 35.792969 74.859375 36.292969 C 77.082031 38.136719 79.949219 39.628906 81.414062 38.730469 C 82.488281 38.074219 82.507812 36.386719 81.144531 36.496094 C 78.386719 36.867188 77.347656 36.265625 74.703125 33.980469 C 74.097656 33.542969 74.140625 32.433594 75.097656 33.140625 C 77.324219 34.542969 80.359375 35.089844 81.550781 34.359375 C 82.625 33.699219 82.464844 31.695312 80.660156 32.410156 C 79.21875 33.269531 77.617188 33.242188 74.417969 31.007812 C 73.609375 30.355469 74.210938 29.496094 74.875 29.863281 C 77.445312 31.300781 81.195312 31.910156 82.171875 29 C 82.550781 27.882812 81.867188 27.230469 80.855469 28.003906 C 78.648438 30.003906 76.140625 29.019531 74.742188 28.015625 C 74.375 28 73.597656 26.609375 74.894531 26.824219 C 78.246094 27.578125 81.558594 26.925781 82.15625 24.605469 C 82.511719 23.851562 81.824219 22.523438 80.601562 23.636719 C 78.992188 25.191406 77.285156 25.246094 75.144531 25.230469 C 74.050781 25.011719 74.042969 23.832031 74.953125 23.660156 C 76.644531 23.695312 78.316406 22.972656 79.65625 22.234375 C 80.960938 21.503906 82.046875 20.472656 82.386719 19.046875 C 82.597656 17.769531 81.34375 16.414062 80.578125 17.769531 C 79.460938 19.753906 76.976562 21.617188 74.21875 21.953125 C 74.078125 21.71875 73.714844 21.117188 73.269531 21.285156 C 71.648438 21.898438 69.40625 22.929688 67.558594 23.953125 C 67.160156 24.171875 67.628906 25.246094 67.71875 25.65625 C 67.8125 26.707031 67.488281 27.375 67.15625 27.765625 C 66.824219 28.15625 65.917969 28.410156 65.40625 28.277344 C 64.386719 28.003906 63.839844 27.117188 64.011719 25.546875 C 64.0625 25.378906 64.105469 24.621094 64.941406 23.636719 C 65.359375 23.144531 65.945312 22.511719 66.875 22.007812 C 67.804688 21.503906 69.207031 21.222656 70.898438 20.855469 C 71.929688 20.652344 72.453125 20.265625 72.515625 19.851562 C 72.023438 19.964844 71.214844 20.382812 70.683594 20.28125 C 70.160156 20.179688 69.894531 19.925781 69.664062 19.78125 C 70.050781 19.699219 70.765625 19.792969 71.398438 19.792969 C 72.035156 19.792969 72.597656 19.65625 72.972656 19.59375 C 73.753906 19.46875 74.375 19.148438 74.746094 18.433594 C 74.90625 17.660156 74.390625 17.519531 73.90625 18.019531 C 73.496094 18.4375 73.414062 18.609375 73.152344 18.792969 C 72.890625 18.976562 72.453125 19.152344 72.140625 19.207031 C 71.5 19.320312 70.875 19.445312 70.0625 19.25 C 70.222656 19.046875 70.582031 18.722656 70.910156 18.523438 C 71.238281 18.320312 71.558594 18.222656 71.867188 18.273438 C 72.074219 18.308594 72.339844 18.488281 72.558594 18.824219 C 72.691406 17.980469 72.453125 17.027344 70.152344 17.421875 C 70.183594 16.789062 68.808594 16.511719 67.984375 16.523438 C 67.515625 16.53125 66.554688 16.808594 65.863281 17.128906 C 64.769531 17.460938 63.683594 17.703125 62.410156 17.792969 C 63.148438 18.410156 63.289062 18.445312 64.03125 18.972656 C 62.910156 19.382812 62.039062 20.226562 61.652344 20.78125 C 62.632812 20.828125 62.953125 20.746094 63.289062 20.886719 C 61.921875 21.28125 61.304688 21.511719 60.585938 22.234375 C 60.839844 22.28125 61.21875 22.351562 61.382812 22.410156 C 61.546875 22.472656 61.480469 22.558594 61.363281 22.683594 C 61.050781 22.878906 59.855469 24.289062 59.5 24.617188 C 59.144531 24.289062 57.949219 22.878906 57.636719 22.683594 C 57.519531 22.558594 57.453125 22.472656 57.617188 22.410156 C 57.78125 22.351562 58.160156 22.28125 58.414062 22.234375 C 57.695312 21.511719 57.078125 21.28125 55.710938 20.886719 C 56.046875 20.746094 56.367188 20.828125 57.347656 20.78125 C 56.960938 20.226562 56.089844 19.382812 54.96875 18.972656 C 55.710938 18.445312 55.851562 18.410156 56.589844 17.792969 C 55.316406 17.703125 54.230469 17.460938 53.136719 17.128906 C 52.445312 16.808594 51.484375 16.53125 51.015625 16.523438 Z M 51.136719 18.007812 C 51.8125 18.007812 52.226562 18.238281 52.226562 18.515625 C 52.226562 18.800781 51.8125 19.03125 51.136719 19.03125 C 50.46875 19.03125 50.042969 18.78125 50.042969 18.496094 C 50.042969 18.214844 50.46875 18.007812 51.136719 18.007812 Z M 67.863281 18.007812 C 68.53125 18.007812 68.957031 18.214844 68.957031 18.496094 C 68.957031 18.78125 68.53125 19.03125 67.863281 19.03125 C 67.1875 19.03125 66.773438 18.800781 66.773438 18.515625 C 66.773438 18.238281 67.1875 18.007812 67.863281 18.007812 Z M 67.863281 18.007812 "/>
</g>
</svg>
