<?xml version="1.0" encoding="UTF-8"?>
<svg xmlns="http://www.w3.org/2000/svg" xmlns:xlink="http://www.w3.org/1999/xlink" width="128pt" height="85pt" viewBox="0 0 128 85" version="1.1">
<defs>
<clipPath id="clip1">
  <path d="M 0 0 L 127.679688 0 L 127.679688 85 L 0 85 Z M 0 0 "/>
</clipPath>
</defs>
<g id="surface31">
<g clip-path="url(#clip1)" clip-rule="nonzero">
<path style=" stroke:none;fill-rule:evenodd;fill:rgb(99.998474%,99.998474%,99.998474%);fill-opacity:1;" d="M 0 85 L 0 0 L 127.5 0 L 127.5 85 Z M 0 85 "/>
</g>
<path style=" stroke:none;fill-rule:evenodd;fill:rgb(0%,38.430786%,19.999695%);fill-opacity:1;" d="M 0 0 L 63.75 0 L 63.75 85 L 0 85 Z M 0 0 "/>
<path style=" stroke:none;fill-rule:evenodd;fill:rgb(82.351685%,6.274414%,20.391846%);fill-opacity:1;" d="M 42.5 42.5 C 42.5 54.226562 52.023438 63.75 63.75 63.75 C 75.476562 63.75 85 54.226562 85 42.5 C 85 30.773438 75.476562 21.25 63.75 21.25 C 52.023438 21.25 42.5 30.773438 42.5 42.5 Z M 51.882812 42.5 C 51.882812 51.878906 59.503906 59.5 68.882812 59.5 C 78.261719 59.5 85.882812 51.878906 85.882812 42.5 C 85.882812 33.121094 78.261719 25.5 68.882812 25.5 C 59.503906 25.5 51.882812 33.121094 51.882812 42.5 Z M 51.882812 42.5 "/>
<path style=" stroke:none;fill-rule:evenodd;fill:rgb(82.351685%,6.274414%,20.391846%);fill-opacity:1;" d="M 82.972656 42.5 L 72.867188 39.214844 L 70.894531 45.28125 Z M 82.972656 42.5 "/>
<path style=" stroke:none;fill-rule:evenodd;fill:rgb(82.351685%,6.274414%,20.391846%);fill-opacity:1;" d="M 82.972656 42.5 L 72.867188 45.785156 L 70.894531 39.71875 Z M 82.972656 42.5 "/>
<path style=" stroke:none;fill-rule:evenodd;fill:rgb(82.351685%,6.274414%,20.391846%);fill-opacity:1;" d="M 75.628906 52.605469 L 75.628906 41.980469 L 69.253906 41.980469 Z M 75.628906 52.605469 "/>
<path style=" stroke:none;fill-rule:evenodd;fill:rgb(82.351685%,6.274414%,20.391846%);fill-opacity:1;" d="M 75.628906 52.605469 L 69.382812 44.007812 L 74.542969 40.261719 Z M 75.628906 52.605469 "/>
<path style=" stroke:none;fill-rule:evenodd;fill:rgb(82.351685%,6.274414%,20.391846%);fill-opacity:1;" d="M 75.628906 32.394531 L 69.382812 40.992188 L 74.542969 44.738281 Z M 75.628906 32.394531 "/>
<path style=" stroke:none;fill-rule:evenodd;fill:rgb(82.351685%,6.274414%,20.391846%);fill-opacity:1;" d="M 75.628906 32.394531 L 75.628906 43.019531 L 69.253906 43.019531 Z M 75.628906 32.394531 "/>
<path style=" stroke:none;fill-rule:evenodd;fill:rgb(82.351685%,6.274414%,20.391846%);fill-opacity:1;" d="M 63.75 48.746094 L 73.855469 45.460938 L 71.886719 39.398438 Z M 63.75 48.746094 "/>
<path style=" stroke:none;fill-rule:evenodd;fill:rgb(82.351685%,6.274414%,20.391846%);fill-opacity:1;" d="M 63.75 48.746094 L 69.996094 40.148438 L 75.152344 43.898438 Z M 63.75 48.746094 "/>
<path style=" stroke:none;fill-rule:evenodd;fill:rgb(82.351685%,6.274414%,20.391846%);fill-opacity:1;" d="M 63.75 36.253906 L 69.996094 44.851562 L 75.152344 41.101562 Z M 63.75 36.253906 "/>
<path style=" stroke:none;fill-rule:evenodd;fill:rgb(82.351685%,6.274414%,20.391846%);fill-opacity:1;" d="M 63.75 36.253906 L 73.855469 39.539062 L 71.886719 45.601562 Z M 63.75 36.253906 "/>
<path style="fill-rule:nonzero;fill:rgb(99.998474%,99.998474%,99.998474%);fill-opacity:1;stroke-width:1;stroke-linecap:square;stroke-linejoin:miter;stroke:rgb(99.998474%,99.998474%,99.998474%);stroke-opacity:1;stroke-miterlimit:3.239307;" d="M 86.203125 53.089844 L 82.132812 53.089844 L 84.113281 42.5 L 82.132812 31.804688 L 86.203125 31.804688 Z M 86.203125 53.089844 "/>
</g>
</svg>
