<?xml version="1.0" encoding="UTF-8"?>
<svg xmlns="http://www.w3.org/2000/svg" xmlns:xlink="http://www.w3.org/1999/xlink" width="128pt" height="64pt" viewBox="0 0 128 64" version="1.1">
<g id="surface36">
<rect x="0" y="0" width="128" height="64" style="fill:rgb(0%,0%,39.99939%);fill-opacity:1;stroke:none;"/>
<path style=" stroke:none;fill-rule:evenodd;fill:rgb(74.116516%,6.274414%,12.940979%);fill-opacity:1;" d="M 0 32 L 128 0 L 128 64 Z M 0 32 "/>
<path style=" stroke:none;fill-rule:evenodd;fill:rgb(99.998474%,99.998474%,99.998474%);fill-opacity:1;" d="M 13.714844 32 L 128 3.429688 L 128 60.570312 Z M 13.714844 32 "/>
<path style="fill-rule:evenodd;fill:rgb(61.175537%,22.3526%,0%);fill-opacity:1;stroke-width:0.22016;stroke-linecap:butt;stroke-linejoin:miter;stroke:rgb(0%,0%,0%);stroke-opacity:1;stroke-miterlimit:4;" d="M 106.5 39.175781 C 106.5 39.175781 105.703125 38.523438 106.644531 37.46875 C 106.136719 37.03125 106.609375 36.199219 106.609375 36.199219 C 106.609375 36.199219 105.738281 35.871094 106.644531 34.527344 C 105.992188 34.089844 106.28125 33.109375 106.28125 33.109375 C 106.28125 33.109375 104.140625 32.3125 106.175781 31.546875 C 104.503906 32.273438 102.941406 30.566406 102.941406 30.566406 L 100.507812 30.640625 C 100.097656 28.617188 96.886719 30.375 99.273438 24.574219 C 98.65625 24.464844 97.964844 24.285156 97.273438 24.792969 C 96.585938 25.300781 94.625 26.390625 93.460938 25.300781 C 92.296875 24.210938 94.222656 22.648438 94.261719 22.613281 C 94.296875 22.578125 96.839844 21.269531 97.203125 20.398438 C 97.167969 19.742188 96.367188 19.234375 97.09375 17.816406 C 97.929688 16.472656 103.050781 15.203125 105.375 14.765625 C 106.5 14.257812 107.011719 13.277344 107.011719 13.277344 L 107.265625 14.222656 C 107.265625 14.222656 112.421875 12.695312 112.675781 11.96875 C 112.929688 11.242188 112.785156 12.625 112.785156 12.625 C 114.820312 12.441406 117.398438 10.699219 117.761719 11.496094 C 119.46875 11.171875 122.738281 9.71875 122.738281 9.71875 C 122.738281 9.71875 123.863281 9.679688 123.0625 10.917969 C 123.574219 11.714844 122.917969 12.40625 122.882812 12.40625 C 122.847656 12.40625 123.101562 13.203125 122.445312 13.640625 C 122.664062 14.332031 122.046875 14.875 122.046875 14.875 C 122.046875 14.875 122.339844 15.710938 121.175781 16.148438 C 121.285156 16.875 120.523438 17.019531 120.523438 17.019531 C 120.523438 17.019531 120.628906 17.78125 120.121094 18.109375 C 120.121094 18.6875 119.542969 18.980469 119.542969 18.980469 C 119.542969 18.980469 119.90625 19.199219 119.394531 19.5625 C 118.886719 19.925781 113.621094 23.15625 113.621094 23.121094 C 113.621094 23.085938 117.46875 23.8125 117.726562 23.957031 C 117.980469 24.101562 120.886719 26.027344 120.886719 26.027344 L 117.941406 29.660156 C 117.941406 29.660156 114.671875 29.296875 114.527344 29.476562 C 114.382812 29.660156 115.21875 29.730469 115.398438 30.023438 C 115.582031 30.3125 115.871094 31.003906 116.453125 30.929688 C 117.035156 30.859375 115.363281 31.984375 114.273438 32.09375 C 114.273438 32.492188 115.65625 32.527344 116.015625 32.203125 C 116.382812 31.875 115.144531 33.144531 115 33.328125 C 114.855469 33.507812 116.636719 33.074219 116.636719 33.074219 C 116.636719 33.074219 116.34375 34.273438 114.78125 34.636719 C 115.398438 35.652344 115.144531 36.304688 115.109375 36.304688 C 115.074219 36.304688 114.09375 35.289062 113.148438 35.46875 C 113.402344 36.453125 114.164062 37.359375 114.382812 37.503906 C 114.601562 37.648438 112.675781 37.613281 112.421875 37.070312 C 112.167969 36.523438 111.949219 38.375 112.640625 38.957031 C 111.839844 38.996094 111.152344 38.523438 111.152344 38.523438 C 111.152344 38.523438 110.679688 39.609375 111.003906 40.15625 C 111.332031 40.703125 109.878906 39.066406 109.878906 39.066406 L 107.117188 40.230469 Z M 106.5 39.175781 "/>
<path style="fill-rule:evenodd;fill:rgb(99.998474%,76.077271%,12.940979%);fill-opacity:1;stroke-width:0.22016;stroke-linecap:butt;stroke-linejoin:miter;stroke:rgb(0%,0%,0%);stroke-opacity:1;stroke-miterlimit:4;" d="M 85.167969 37.015625 C 85.230469 37.015625 89.175781 36.949219 90.988281 35.914062 C 91.894531 37.335938 93.121094 38.308594 93.121094 38.308594 L 93.703125 36.238281 C 93.703125 36.238281 95.125 36.300781 95.257812 36.625 C 95.0625 37.015625 95 37.53125 95 37.53125 C 95 37.53125 95.96875 37.59375 96.03125 37.726562 C 96.097656 37.855469 95.773438 38.953125 95.773438 38.953125 L 99.914062 39.925781 C 99.914062 39.925781 100.238281 38.308594 100.5625 38.5 C 100.882812 38.695312 102.308594 40.699219 104.3125 40.832031 C 106.316406 40.960938 106.445312 39.148438 106.445312 39.148438 L 106.898438 39.40625 C 106.898438 39.40625 107.742188 37.59375 107.871094 37.59375 C 108 37.59375 108.191406 37.855469 109.292969 37.855469 C 109.617188 38.242188 109.746094 39.148438 109.746094 39.148438 C 109.746094 39.148438 108.515625 40.378906 108.90625 41.347656 C 109.292969 42.316406 109.359375 42.058594 109.359375 42.058594 L 118.285156 44.195312 C 118.285156 44.195312 118.738281 44.90625 117.960938 45.292969 C 117.960938 45.359375 108.96875 43.222656 108.96875 43.222656 C 108.96875 43.222656 108.128906 44.195312 107.480469 44 C 106.835938 43.804688 107.289062 44.386719 107.289062 44.386719 L 116.988281 45.164062 C 116.988281 45.164062 117.703125 46.070312 117.183594 46.328125 C 116.539062 46.390625 106.707031 45.679688 106.707031 45.679688 C 106.707031 45.679688 106.125 46.910156 105.476562 45.875 C 105.023438 46.585938 104.507812 45.679688 104.507812 45.679688 C 104.507812 45.679688 103.664062 46.328125 103.535156 45.617188 C 102.824219 46.132812 102.371094 45.292969 102.371094 45.292969 L 98.234375 45.035156 L 97.972656 45.421875 C 97.972656 45.421875 98.683594 45.617188 97.585938 46.070312 C 96.484375 46.523438 104.183594 46.328125 104.375 46.390625 C 104.570312 46.457031 103.859375 47.039062 103.859375 47.039062 C 103.859375 47.039062 107.804688 47.296875 108.515625 46.457031 C 109.226562 45.617188 108.257812 47.558594 108.257812 47.558594 C 108.257812 47.558594 111.363281 47.425781 111.363281 47.296875 C 111.363281 47.167969 111.296875 48.269531 109.164062 48.140625 C 110.457031 48.980469 112.074219 49.496094 112.074219 49.496094 C 112.074219 49.496094 110.457031 49.886719 108.582031 49.433594 C 108.90625 50.273438 110.328125 51.050781 110.328125 51.050781 C 110.328125 51.050781 109.292969 51.957031 106.964844 49.757812 C 107.609375 50.921875 107.09375 51.375 107.027344 51.242188 C 106.964844 51.113281 105.863281 49.496094 103.277344 48.914062 C 104.894531 49.949219 104.183594 50.402344 104.183594 50.402344 C 104.183594 50.402344 103.34375 48.914062 101.984375 50.402344 C 101.464844 49.046875 99.460938 48.269531 97.003906 48.140625 C 96.226562 47.234375 95.773438 47.492188 93.964844 46.976562 C 92.929688 45.8125 91.441406 44.515625 91.441406 44.515625 C 91.441406 44.515625 91.503906 42.769531 93.25 42.964844 C 93.445312 43.546875 93.445312 43.351562 93.445312 43.351562 C 93.445312 43.351562 95.386719 42.640625 95.96875 43.609375 C 96.808594 42.125 97.972656 43.390625 98.167969 43.90625 C 98.722656 43.988281 101.53125 44.0625 101.53125 44.0625 C 101.53125 44.0625 101.207031 43.480469 101.402344 43.546875 C 101.59375 43.609375 103.148438 42.964844 103.082031 42.769531 C 103.019531 42.578125 102.953125 41.929688 103.210938 41.996094 C 103.472656 42.058594 101.011719 41.671875 99.65625 42.707031 C 99.203125 42.253906 99.527344 41.023438 99.527344 41.023438 L 95.515625 40.183594 L 95.320312 41.21875 C 95.320312 41.21875 94.15625 41.414062 94.222656 41.152344 C 94.285156 40.894531 93.964844 42.058594 93.964844 42.058594 C 93.964844 42.058594 92.410156 41.671875 92.410156 41.605469 C 92.410156 41.542969 92.863281 39.277344 92.863281 39.34375 C 92.863281 39.40625 91.570312 39.472656 89.757812 40.832031 C 89.242188 39.214844 85.167969 37.078125 85.167969 37.015625 Z M 85.167969 37.015625 "/>
<path style="fill-rule:evenodd;fill:rgb(99.998474%,76.077271%,12.940979%);fill-opacity:1;stroke-width:0.22016;stroke-linecap:butt;stroke-linejoin:miter;stroke:rgb(0%,0%,0%);stroke-opacity:1;stroke-miterlimit:4;" d="M 90.210938 31.710938 C 90.210938 31.710938 87.496094 34.039062 90.210938 35.394531 C 90.339844 34.492188 90.535156 34.359375 90.535156 34.359375 C 90.535156 34.359375 92.800781 35.203125 94.15625 33.195312 C 93.574219 32.355469 92.539062 32.679688 92.539062 32.679688 C 92.539062 32.679688 90.40625 32.679688 90.210938 31.710938 Z M 90.210938 31.710938 "/>
<path style="fill:none;stroke-width:0.22016;stroke-linecap:butt;stroke-linejoin:miter;stroke:rgb(0%,0%,0%);stroke-opacity:1;stroke-miterlimit:4;" d="M 92.476562 32.746094 L 90.601562 34.363281 "/>
<path style="fill-rule:evenodd;fill:rgb(99.998474%,99.998474%,99.998474%);fill-opacity:1;stroke-width:0.22016;stroke-linecap:butt;stroke-linejoin:miter;stroke:rgb(0%,0%,0%);stroke-opacity:1;stroke-miterlimit:4;" d="M 90.300781 31.730469 C 90.300781 31.730469 90.664062 31.367188 90.773438 30.929688 C 90.882812 30.492188 90.628906 30.019531 91.0625 29.621094 C 91.5 29.222656 97.238281 26.789062 97.710938 26.316406 C 98.183594 25.84375 99.054688 24.828125 99.164062 24.609375 C 99.273438 24.390625 99.601562 25.699219 98.621094 26.28125 C 99.671875 25.988281 100.363281 25.664062 100.796875 25.808594 C 100.363281 26.425781 99.199219 27.441406 98.65625 27.441406 C 99.925781 26.96875 101.089844 26.570312 101.417969 26.824219 C 101.742188 27.078125 99.855469 28.351562 99.089844 28.421875 C 100.363281 28.097656 102.070312 27.589844 102.289062 28.132812 C 101.597656 28.351562 101.816406 28.53125 100.398438 29.332031 C 100.21875 29.476562 99.308594 29.511719 99.308594 29.511719 C 100.398438 29.402344 101.886719 28.96875 102.03125 29.765625 C 101.160156 30.09375 100.835938 30.53125 100.109375 30.710938 C 99.382812 30.894531 97.710938 31.21875 96.695312 31.621094 C 95.675781 32.019531 94.1875 33.183594 94.1875 33.183594 C 94.1875 33.183594 90.953125 33.289062 90.953125 33.253906 C 90.953125 33.21875 90.335938 31.765625 90.300781 31.730469 Z M 90.300781 31.730469 "/>
<path style="fill-rule:evenodd;fill:rgb(99.998474%,99.998474%,99.998474%);fill-opacity:1;stroke-width:0.22016;stroke-linecap:butt;stroke-linejoin:miter;stroke:rgb(0%,0%,0%);stroke-opacity:1;stroke-miterlimit:4;" d="M 118.015625 29.511719 L 124.296875 30.710938 C 124.296875 30.710938 124.988281 29.914062 124.625 29.476562 C 125.570312 29.257812 125.316406 28.023438 125.316406 28.023438 C 125.316406 28.023438 126.40625 27.550781 125.496094 26.460938 C 126.113281 25.84375 125.351562 25.371094 125.351562 25.371094 C 125.351562 25.371094 125.605469 24.28125 124.808594 24.171875 C 125.023438 23.300781 123.425781 23.011719 123.425781 23.011719 C 123.425781 23.011719 120.121094 23.917969 117.796875 23.992188 C 118.558594 24.753906 117.507812 25.226562 117.507812 25.226562 C 117.507812 25.226562 118.125 25.664062 117.941406 26.027344 C 117.761719 26.390625 118.050781 26.789062 117.25 27.042969 C 118.304688 27.515625 117.144531 28.3125 117.144531 28.3125 C 117.144531 28.3125 118.304688 29.113281 118.015625 29.511719 Z M 118.015625 29.511719 "/>
<path style="fill:none;stroke-width:0.22016;stroke-linecap:butt;stroke-linejoin:miter;stroke:rgb(0%,0%,0%);stroke-opacity:1;stroke-miterlimit:4;" d="M 94.996094 37.597656 L 94.15625 41.347656 "/>
<path style="fill:none;stroke-width:0.22016;stroke-linecap:butt;stroke-linejoin:miter;stroke:rgb(0%,0%,0%);stroke-opacity:1;stroke-miterlimit:4;" d="M 95.773438 39.019531 L 95.515625 40.246094 "/>
<path style="fill:none;stroke-width:0.22016;stroke-linecap:butt;stroke-linejoin:miter;stroke:rgb(0%,0%,0%);stroke-opacity:1;stroke-miterlimit:4;" d="M 99.914062 39.988281 L 99.527344 41.152344 "/>
<path style="fill:none;stroke-width:0.22016;stroke-linecap:butt;stroke-linejoin:miter;stroke:rgb(0%,0%,0%);stroke-opacity:1;stroke-miterlimit:4;" d="M 107.09375 47.878906 C 107.03125 47.878906 105.023438 48.136719 104.765625 48.074219 C 104.507812 48.007812 107.933594 49.109375 107.933594 49.5625 "/>
<path style="fill:none;stroke-width:0.22016;stroke-linecap:butt;stroke-linejoin:miter;stroke:rgb(0%,0%,0%);stroke-opacity:1;stroke-miterlimit:4;" d="M 103.472656 48.332031 C 103.472656 48.332031 101.464844 47.039062 101.140625 47.167969 C 100.820312 47.296875 103.148438 47.105469 103.34375 46.910156 "/>
<path style="fill:none;stroke-width:0.22016;stroke-linecap:butt;stroke-linejoin:miter;stroke:rgb(0%,0%,0%);stroke-opacity:1;stroke-miterlimit:4;" d="M 99.332031 46.84375 C 99.332031 46.84375 97.261719 46.910156 97.066406 46.714844 C 96.875 46.523438 99.074219 48.140625 99.460938 48.011719 "/>
<path style="fill:none;stroke-width:0.22016;stroke-linecap:butt;stroke-linejoin:miter;stroke:rgb(0%,0%,0%);stroke-opacity:1;stroke-miterlimit:4;" d="M 95.320312 45.9375 C 95.257812 45.9375 93.898438 45.421875 93.316406 45.292969 C 93.832031 45.808594 94.222656 46.519531 95.515625 46.78125 "/>
<path style="fill:none;stroke-width:0.22016;stroke-linecap:butt;stroke-linejoin:miter;stroke:rgb(0%,0%,0%);stroke-opacity:1;stroke-miterlimit:4;" d="M 95.839844 45.097656 C 95.773438 44.96875 93.25 44.195312 93.25 43.804688 C 93.832031 44 94.675781 44.257812 95.449219 44.0625 "/>
<path style="fill:none;stroke-width:0.22016;stroke-linecap:butt;stroke-linejoin:miter;stroke:rgb(0%,0%,0%);stroke-opacity:1;stroke-miterlimit:4;" d="M 109.230469 42.125 L 108.96875 43.289062 "/>
<path style="fill:none;stroke-width:0.22016;stroke-linecap:butt;stroke-linejoin:miter;stroke:rgb(0%,0%,0%);stroke-opacity:1;stroke-miterlimit:4;" d="M 98.253906 43.976562 C 98.253906 43.976562 98.683594 44.453125 98.296875 45.035156 "/>
<path style="fill:none;stroke-width:0.22016;stroke-linecap:butt;stroke-linejoin:miter;stroke:rgb(0%,0%,0%);stroke-opacity:1;stroke-miterlimit:4;" d="M 107.351562 44.453125 L 106.640625 44.515625 "/>
<path style="fill:none;stroke-width:0.22016;stroke-linecap:butt;stroke-linejoin:miter;stroke:rgb(0%,0%,0%);stroke-opacity:1;stroke-miterlimit:4;" d="M 101.53125 44.0625 L 102.824219 44.257812 "/>
<path style="fill:none;stroke-width:0.22016;stroke-linecap:butt;stroke-linejoin:miter;stroke:rgb(0%,0%,0%);stroke-opacity:1;stroke-miterlimit:4;" d="M 105.011719 40.738281 C 105.011719 40.738281 105.046875 42.046875 103.957031 42.007812 C 102.867188 41.972656 103.230469 42.046875 103.230469 42.046875 "/>
<path style="fill:none;stroke-width:0.22016;stroke-linecap:butt;stroke-linejoin:miter;stroke:rgb(0%,0%,0%);stroke-opacity:1;stroke-miterlimit:4;" d="M 105.847656 40.519531 C 105.847656 40.519531 106.28125 40.664062 106.171875 40.992188 C 106.066406 41.316406 106.28125 42.261719 105.011719 43.167969 C 103.667969 43.460938 103.8125 42.042969 103.8125 42.042969 "/>
<path style="fill:none;stroke-width:0.22016;stroke-linecap:butt;stroke-linejoin:miter;stroke:rgb(0%,0%,0%);stroke-opacity:1;stroke-miterlimit:4;" d="M 106.320312 40.917969 C 106.320312 40.917969 107.117188 40.445312 107.226562 41.210938 C 107.335938 41.972656 106.574219 43.390625 106.027344 43.605469 C 105.484375 43.824219 104.867188 43.570312 104.9375 43.207031 "/>
<path style="fill:none;stroke-width:0.22016;stroke-linecap:butt;stroke-linejoin:miter;stroke:rgb(0%,0%,0%);stroke-opacity:1;stroke-miterlimit:4;" d="M 107.300781 41.246094 C 107.300781 41.246094 108.027344 40.664062 108.246094 41.425781 C 108.460938 42.191406 107.664062 43.898438 107.335938 43.933594 "/>
<path style="fill:none;stroke-width:0.22016;stroke-linecap:butt;stroke-linejoin:miter;stroke:rgb(0%,0%,0%);stroke-opacity:1;stroke-miterlimit:4;" d="M 108.316406 41.425781 C 108.316406 41.425781 108.679688 41.246094 108.933594 41.464844 "/>
<path style="fill:none;stroke-width:0.22016;stroke-linecap:butt;stroke-linejoin:miter;stroke:rgb(0%,0%,0%);stroke-opacity:1;stroke-miterlimit:4;" d="M 107.15625 44.042969 C 107.011719 44.078125 106.390625 44.113281 106.175781 43.640625 "/>
<path style="fill:none;stroke-width:0.22016;stroke-linecap:butt;stroke-linejoin:miter;stroke:rgb(0%,0%,0%);stroke-opacity:1;stroke-miterlimit:4;" d="M 103.886719 42.769531 C 103.851562 42.769531 103.125 42.808594 103.125 42.808594 "/>
<path style="fill:none;stroke-width:0.22016;stroke-linecap:butt;stroke-linejoin:miter;stroke:rgb(0%,0%,0%);stroke-opacity:1;stroke-miterlimit:4;" d="M 106.683594 45.640625 L 106.609375 44.441406 L 106.320312 44.042969 L 105.8125 44.550781 C 105.8125 44.550781 105.738281 45.75 105.519531 45.859375 "/>
<path style="fill:none;stroke-width:0.22016;stroke-linecap:butt;stroke-linejoin:miter;stroke:rgb(0%,0%,0%);stroke-opacity:1;stroke-miterlimit:4;" d="M 105.8125 44.515625 C 105.773438 44.441406 105.410156 43.75 105.410156 43.75 L 104.792969 44.515625 C 104.792969 44.515625 104.722656 45.605469 104.503906 45.714844 "/>
<path style="fill:none;stroke-width:0.22016;stroke-linecap:butt;stroke-linejoin:miter;stroke:rgb(0%,0%,0%);stroke-opacity:1;stroke-miterlimit:4;" d="M 104.792969 44.480469 C 104.792969 44.441406 104.539062 43.753906 104.539062 43.753906 C 104.539062 43.753906 103.8125 44.152344 103.738281 44.441406 C 103.667969 44.734375 103.632812 45.53125 103.449219 45.605469 "/>
<path style="fill:none;stroke-width:0.22016;stroke-linecap:butt;stroke-linejoin:miter;stroke:rgb(0%,0%,0%);stroke-opacity:1;stroke-miterlimit:4;" d="M 103.738281 44.296875 C 103.738281 44.296875 103.8125 43.644531 103.59375 43.644531 C 103.375 43.644531 102.394531 44.550781 102.359375 45.351562 "/>
<path style="fill:none;stroke-width:0.22016;stroke-linecap:butt;stroke-linejoin:miter;stroke:rgb(0%,0%,0%);stroke-opacity:1;stroke-miterlimit:4;" d="M 91.824219 31.476562 C 91.824219 31.476562 91.863281 30.75 92.1875 30.496094 C 92.515625 30.238281 94.152344 29.621094 94.515625 29.078125 C 94.875 28.53125 93.96875 30.023438 94.113281 30.421875 "/>
<path style="fill:none;stroke-width:0.22016;stroke-linecap:butt;stroke-linejoin:miter;stroke:rgb(0%,0%,0%);stroke-opacity:1;stroke-miterlimit:4;" d="M 92.480469 30.382812 C 92.480469 30.382812 93.28125 30.675781 93.097656 31.292969 "/>
<path style="fill:none;stroke-width:0.191151;stroke-linecap:butt;stroke-linejoin:miter;stroke:rgb(0%,0%,0%);stroke-opacity:1;stroke-miterlimit:4;" d="M 93.425781 30.804688 C 93.425781 31.117188 93.140625 31.402344 92.824219 31.402344 C 92.511719 31.402344 92.226562 31.117188 92.226562 30.804688 C 92.226562 30.488281 92.511719 30.203125 92.824219 30.203125 C 93.140625 30.203125 93.425781 30.488281 93.425781 30.804688 Z M 93.425781 30.804688 "/>
<path style="fill:none;stroke-width:0.22016;stroke-linecap:butt;stroke-linejoin:miter;stroke:rgb(0%,0%,0%);stroke-opacity:1;stroke-miterlimit:4;" d="M 117.398438 28.167969 C 117.398438 28.167969 122.953125 28.824219 123.210938 28.824219 C 123.464844 28.824219 124.445312 29.148438 124.625 29.476562 "/>
<path style="fill:none;stroke-width:0.22016;stroke-linecap:butt;stroke-linejoin:miter;stroke:rgb(0%,0%,0%);stroke-opacity:1;stroke-miterlimit:4;" d="M 117.6875 27.84375 L 125.425781 28.023438 "/>
<path style="fill:none;stroke-width:0.22016;stroke-linecap:butt;stroke-linejoin:miter;stroke:rgb(0%,0%,0%);stroke-opacity:1;stroke-miterlimit:4;" d="M 117.722656 27.660156 C 117.722656 27.660156 125.0625 27.226562 125.570312 26.460938 "/>
<path style="fill:none;stroke-width:0.22016;stroke-linecap:butt;stroke-linejoin:miter;stroke:rgb(0%,0%,0%);stroke-opacity:1;stroke-miterlimit:4;" d="M 117.941406 26.0625 C 117.941406 26.0625 125.316406 25.261719 125.390625 25.371094 "/>
<path style="fill:none;stroke-width:0.22016;stroke-linecap:butt;stroke-linejoin:miter;stroke:rgb(0%,0%,0%);stroke-opacity:1;stroke-miterlimit:4;" d="M 117.6875 25.15625 C 117.6875 25.15625 124.84375 24.027344 124.917969 24.210938 "/>
<path style="fill:none;stroke-width:0.22016;stroke-linecap:butt;stroke-linejoin:miter;stroke:rgb(0%,0%,0%);stroke-opacity:1;stroke-miterlimit:4;" d="M 97.273438 20.542969 C 97.273438 20.542969 99.527344 23.011719 99.308594 24.683594 "/>
<path style="fill:none;stroke-width:0.22016;stroke-linecap:butt;stroke-linejoin:miter;stroke:rgb(0%,0%,0%);stroke-opacity:1;stroke-miterlimit:4;" d="M 99.164062 23.375 C 99.164062 23.375 99.890625 24.425781 100.179688 24.535156 C 100.472656 24.644531 103.015625 24.789062 103.160156 25.878906 C 103.304688 26.570312 102.613281 26.351562 102.722656 26.859375 C 102.90625 27.515625 104.613281 28.351562 106.464844 27.371094 "/>
<path style="fill:none;stroke-width:0.22016;stroke-linecap:butt;stroke-linejoin:miter;stroke:rgb(0%,0%,0%);stroke-opacity:1;stroke-miterlimit:4;" d="M 104.757812 27.878906 C 104.757812 27.878906 106.28125 30.128906 108.535156 27.695312 "/>
<path style="fill:none;stroke-width:0.22016;stroke-linecap:butt;stroke-linejoin:miter;stroke:rgb(0%,0%,0%);stroke-opacity:1;stroke-miterlimit:4;" d="M 107.371094 28.679688 C 107.371094 28.679688 109.226562 29.660156 110.75 27.117188 "/>
<path style="fill:none;stroke-width:0.22016;stroke-linecap:butt;stroke-linejoin:miter;stroke:rgb(0%,0%,0%);stroke-opacity:1;stroke-miterlimit:4;" d="M 108.789062 28.894531 C 108.789062 28.894531 109.699219 29.660156 111.585938 28.640625 "/>
<path style="fill:none;stroke-width:0.22016;stroke-linecap:butt;stroke-linejoin:miter;stroke:rgb(0%,0%,0%);stroke-opacity:1;stroke-miterlimit:4;" d="M 114.203125 27.625 C 114.203125 27.625 117 28.207031 117.179688 28.386719 "/>
<path style="fill:none;stroke-width:0.22016;stroke-linecap:butt;stroke-linejoin:miter;stroke:rgb(0%,0%,0%);stroke-opacity:1;stroke-miterlimit:4;" d="M 115.253906 27.007812 C 115.292969 27.007812 117.214844 27.078125 117.214844 27.078125 "/>
<path style="fill:none;stroke-width:0.22016;stroke-linecap:butt;stroke-linejoin:miter;stroke:rgb(0%,0%,0%);stroke-opacity:1;stroke-miterlimit:4;" d="M 114.054688 25.917969 C 114.054688 25.917969 117.398438 25.699219 117.832031 26.390625 "/>
<path style="fill:none;stroke-width:0.22016;stroke-linecap:butt;stroke-linejoin:miter;stroke:rgb(0%,0%,0%);stroke-opacity:1;stroke-miterlimit:4;" d="M 112.601562 24.863281 C 112.601562 24.863281 117.289062 25.046875 117.507812 25.300781 "/>
<path style="fill:none;stroke-width:0.22016;stroke-linecap:butt;stroke-linejoin:miter;stroke:rgb(0%,0%,0%);stroke-opacity:1;stroke-miterlimit:4;" d="M 113.65625 29.660156 C 113.65625 29.660156 114.457031 29.441406 114.5625 29.550781 "/>
<path style="fill:none;stroke-width:0.22016;stroke-linecap:butt;stroke-linejoin:miter;stroke:rgb(0%,0%,0%);stroke-opacity:1;stroke-miterlimit:4;" d="M 111.839844 31.621094 C 111.839844 31.621094 112.894531 32.527344 114.238281 32.128906 "/>
<path style="fill:none;stroke-width:0.22016;stroke-linecap:butt;stroke-linejoin:miter;stroke:rgb(0%,0%,0%);stroke-opacity:1;stroke-miterlimit:4;" d="M 112.421875 33.144531 C 112.421875 33.144531 113.621094 33.691406 115.035156 33.363281 "/>
<path style="fill:none;stroke-width:0.22016;stroke-linecap:butt;stroke-linejoin:miter;stroke:rgb(0%,0%,0%);stroke-opacity:1;stroke-miterlimit:4;" d="M 112.820312 34.054688 C 112.820312 34.054688 114.019531 34.851562 114.816406 34.707031 "/>
<path style="fill:none;stroke-width:0.22016;stroke-linecap:butt;stroke-linejoin:miter;stroke:rgb(0%,0%,0%);stroke-opacity:1;stroke-miterlimit:4;" d="M 112.277344 34.527344 C 112.277344 34.527344 113.113281 35.144531 113.148438 35.46875 "/>
<path style="fill:none;stroke-width:0.22016;stroke-linecap:butt;stroke-linejoin:miter;stroke:rgb(0%,0%,0%);stroke-opacity:1;stroke-miterlimit:4;" d="M 111.113281 35.253906 C 111.113281 35.253906 111.367188 36.558594 112.277344 37.03125 "/>
<path style="fill:none;stroke-width:0.22016;stroke-linecap:butt;stroke-linejoin:miter;stroke:rgb(0%,0%,0%);stroke-opacity:1;stroke-miterlimit:4;" d="M 110.496094 35.832031 C 110.496094 35.832031 110.097656 37.539062 111.113281 38.59375 "/>
<path style="fill:none;stroke-width:0.22016;stroke-linecap:butt;stroke-linejoin:miter;stroke:rgb(0%,0%,0%);stroke-opacity:1;stroke-miterlimit:4;" d="M 109.441406 37.175781 C 109.441406 37.214844 109.371094 37.976562 109.40625 38.050781 "/>
<path style="fill:none;stroke-width:0.22016;stroke-linecap:butt;stroke-linejoin:miter;stroke:rgb(0%,0%,0%);stroke-opacity:1;stroke-miterlimit:4;" d="M 102.90625 30.566406 L 104.867188 30.457031 C 104.867188 30.457031 105.59375 30.167969 105.082031 29.695312 "/>
<path style="fill:none;stroke-width:0.22016;stroke-linecap:butt;stroke-linejoin:miter;stroke:rgb(0%,0%,0%);stroke-opacity:1;stroke-miterlimit:4;" d="M 105.339844 30.132812 C 105.375 30.132812 107.191406 30.277344 107.664062 30.820312 C 108.136719 31.367188 108.71875 32.457031 109.042969 32.636719 C 109.371094 32.820312 109.441406 32.566406 109.441406 32.566406 "/>
<path style="fill:none;stroke-width:0.22016;stroke-linecap:butt;stroke-linejoin:miter;stroke:rgb(0%,0%,0%);stroke-opacity:1;stroke-miterlimit:4;" d="M 108.644531 32.273438 C 108.644531 32.273438 107.664062 33.945312 108.425781 34.453125 "/>
<path style="fill:none;stroke-width:0.22016;stroke-linecap:butt;stroke-linejoin:miter;stroke:rgb(0%,0%,0%);stroke-opacity:1;stroke-miterlimit:4;" d="M 108.097656 34.125 C 108.097656 34.125 107.226562 35.289062 107.917969 35.871094 "/>
<path style="fill:none;stroke-width:0.22016;stroke-linecap:butt;stroke-linejoin:miter;stroke:rgb(0%,0%,0%);stroke-opacity:1;stroke-miterlimit:4;" d="M 107.734375 35.726562 C 107.734375 35.726562 107.046875 36.851562 107.882812 37.613281 "/>
<path style="fill:none;stroke-width:0.22016;stroke-linecap:butt;stroke-linejoin:miter;stroke:rgb(0%,0%,0%);stroke-opacity:1;stroke-miterlimit:4;" d="M 107.429688 32.738281 C 107.382812 32.785156 106.585938 33.347656 106.304688 33.207031 "/>
<path style="fill:none;stroke-width:0.22016;stroke-linecap:butt;stroke-linejoin:miter;stroke:rgb(0%,0%,0%);stroke-opacity:1;stroke-miterlimit:4;" d="M 106.585938 34.519531 C 106.585938 34.519531 106.914062 34.847656 107.195312 34.800781 "/>
<path style="fill:none;stroke-width:0.22016;stroke-linecap:butt;stroke-linejoin:miter;stroke:rgb(0%,0%,0%);stroke-opacity:1;stroke-miterlimit:4;" d="M 106.625 36.222656 L 107.148438 36.582031 "/>
<path style="fill:none;stroke-width:0.22016;stroke-linecap:butt;stroke-linejoin:miter;stroke:rgb(0%,0%,0%);stroke-opacity:1;stroke-miterlimit:4;" d="M 106.695312 37.527344 L 107.148438 37.796875 "/>
<path style="fill:none;stroke-width:0.22016;stroke-linecap:butt;stroke-linejoin:miter;stroke:rgb(0%,0%,0%);stroke-opacity:1;stroke-miterlimit:4;" d="M 98.492188 19.714844 C 98.492188 19.714844 99.445312 20.210938 100.210938 19.714844 C 100.976562 19.21875 104.640625 17.34375 105.597656 17.039062 C 106.550781 16.734375 107.085938 14.976562 107.277344 14.214844 "/>
<path style="fill:none;stroke-width:0.22016;stroke-linecap:butt;stroke-linejoin:miter;stroke:rgb(0%,0%,0%);stroke-opacity:1;stroke-miterlimit:4;" d="M 106.550781 16.273438 L 111.898438 14.710938 C 111.898438 14.710938 112.777344 13.984375 112.816406 12.644531 "/>
<path style="fill:none;stroke-width:0.22016;stroke-linecap:butt;stroke-linejoin:miter;stroke:rgb(0%,0%,0%);stroke-opacity:1;stroke-miterlimit:4;" d="M 112.433594 14.097656 C 112.433594 14.097656 117.78125 13.5625 117.78125 11.578125 "/>
<path style="fill:none;stroke-width:0.22016;stroke-linecap:butt;stroke-linejoin:miter;stroke:rgb(0%,0%,0%);stroke-opacity:1;stroke-miterlimit:4;" d="M 116.941406 12.953125 C 116.941406 12.953125 122.554688 11.425781 123.089844 10.851562 "/>
<path style="fill:none;stroke-width:0.22016;stroke-linecap:butt;stroke-linejoin:miter;stroke:rgb(0%,0%,0%);stroke-opacity:1;stroke-miterlimit:4;" d="M 101.28125 20.933594 C 101.28125 20.933594 104.679688 19.175781 105.214844 18.984375 C 105.75 18.796875 106.972656 17.265625 105.140625 17.265625 "/>
<path style="fill:none;stroke-width:0.22016;stroke-linecap:butt;stroke-linejoin:miter;stroke:rgb(0%,0%,0%);stroke-opacity:1;stroke-miterlimit:4;" d="M 102.921875 21.625 C 102.960938 21.625 105.710938 19.828125 106.628906 19.597656 C 107.125 18.910156 106.859375 18.1875 106.015625 18.339844 "/>
<path style="fill:none;stroke-width:0.22016;stroke-linecap:butt;stroke-linejoin:miter;stroke:rgb(0%,0%,0%);stroke-opacity:1;stroke-miterlimit:4;" d="M 106.855469 19.140625 C 106.933594 19.101562 108.347656 19.0625 107.851562 20.171875 C 107.125 20.707031 103.992188 22.273438 103.992188 22.273438 "/>
<path style="fill:none;stroke-width:0.22016;stroke-linecap:butt;stroke-linejoin:miter;stroke:rgb(0%,0%,0%);stroke-opacity:1;stroke-miterlimit:4;" d="M 106.132812 17.957031 L 112.089844 15.96875 C 112.089844 15.96875 112.585938 14.9375 111.859375 14.785156 "/>
<path style="fill:none;stroke-width:0.22016;stroke-linecap:butt;stroke-linejoin:miter;stroke:rgb(0%,0%,0%);stroke-opacity:1;stroke-miterlimit:4;" d="M 116.828125 12.992188 C 116.828125 13.027344 117.589844 13.449219 117.132812 14.136719 C 116.292969 14.632812 112.320312 15.589844 112.320312 15.589844 "/>
<path style="fill:none;stroke-width:0.22016;stroke-linecap:butt;stroke-linejoin:miter;stroke:rgb(0%,0%,0%);stroke-opacity:1;stroke-miterlimit:4;" d="M 122.859375 12.378906 L 117.246094 13.945312 "/>
<path style="fill:none;stroke-width:0.22016;stroke-linecap:butt;stroke-linejoin:miter;stroke:rgb(0%,0%,0%);stroke-opacity:1;stroke-miterlimit:4;" d="M 122.441406 13.640625 L 117.550781 15.128906 "/>
<path style="fill:none;stroke-width:0.22016;stroke-linecap:butt;stroke-linejoin:miter;stroke:rgb(0%,0%,0%);stroke-opacity:1;stroke-miterlimit:4;" d="M 122.019531 14.863281 L 117.703125 16.160156 "/>
<path style="fill:none;stroke-width:0.22016;stroke-linecap:butt;stroke-linejoin:miter;stroke:rgb(0%,0%,0%);stroke-opacity:1;stroke-miterlimit:4;" d="M 121.21875 16.085938 C 121.105469 16.085938 118.011719 17.039062 118.011719 17.039062 "/>
<path style="fill:none;stroke-width:0.22016;stroke-linecap:butt;stroke-linejoin:miter;stroke:rgb(0%,0%,0%);stroke-opacity:1;stroke-miterlimit:4;" d="M 120.53125 17.039062 L 118.546875 17.839844 "/>
<path style="fill:none;stroke-width:0.22016;stroke-linecap:butt;stroke-linejoin:miter;stroke:rgb(0%,0%,0%);stroke-opacity:1;stroke-miterlimit:4;" d="M 120.035156 18.109375 C 119.957031 18.109375 118.316406 18.832031 118.316406 18.832031 "/>
<path style="fill:none;stroke-width:0.22016;stroke-linecap:butt;stroke-linejoin:miter;stroke:rgb(0%,0%,0%);stroke-opacity:1;stroke-miterlimit:4;" d="M 119.539062 18.988281 L 118.011719 19.714844 "/>
<path style="fill:none;stroke-width:0.22016;stroke-linecap:butt;stroke-linejoin:miter;stroke:rgb(0%,0%,0%);stroke-opacity:1;stroke-miterlimit:4;" d="M 116.902344 20.628906 C 116.902344 20.628906 117.09375 20.707031 117.054688 20.9375 "/>
<path style="fill:none;stroke-width:0.22016;stroke-linecap:butt;stroke-linejoin:miter;stroke:rgb(0%,0%,0%);stroke-opacity:1;stroke-miterlimit:4;" d="M 113.042969 22.730469 C 113.042969 22.730469 113.695312 22.960938 113.082031 23.570312 C 112.777344 23.992188 111.898438 23.875 111.363281 24.640625 "/>
<path style="fill:none;stroke-width:0.22016;stroke-linecap:butt;stroke-linejoin:miter;stroke:rgb(0%,0%,0%);stroke-opacity:1;stroke-miterlimit:4;" d="M 117.207031 14.175781 C 117.207031 14.175781 118.011719 14.367188 117.398438 15.398438 C 115.796875 16.007812 112.546875 17 112.546875 17 C 112.546875 17 112.394531 17.269531 111.976562 17.496094 C 111.554688 17.726562 106.933594 19.027344 106.933594 19.027344 "/>
<path style="fill:none;stroke-width:0.22016;stroke-linecap:butt;stroke-linejoin:miter;stroke:rgb(0%,0%,0%);stroke-opacity:1;stroke-miterlimit:4;" d="M 117.476562 15.359375 C 117.476562 15.359375 118.355469 15.742188 117.476562 16.390625 C 116.484375 16.964844 113.007812 18.03125 113.007812 18.03125 C 113.007812 18.03125 112.96875 18.339844 112.816406 18.453125 C 112.664062 18.566406 108.078125 20.09375 108.078125 20.09375 "/>
<path style="fill:none;stroke-width:0.22016;stroke-linecap:butt;stroke-linejoin:miter;stroke:rgb(0%,0%,0%);stroke-opacity:1;stroke-miterlimit:4;" d="M 117.703125 16.390625 C 117.703125 16.390625 118.621094 16.65625 117.820312 17.421875 C 116.863281 17.992188 113.808594 19.023438 113.808594 19.023438 C 113.808594 19.023438 113.503906 19.40625 113.007812 19.558594 C 112.511719 19.710938 109.339844 21.011719 109.339844 21.011719 "/>
<path style="fill:none;stroke-width:0.22016;stroke-linecap:butt;stroke-linejoin:miter;stroke:rgb(0%,0%,0%);stroke-opacity:1;stroke-miterlimit:4;" d="M 117.933594 17.421875 C 118.203125 17.535156 118.925781 17.648438 118.046875 18.335938 C 117.015625 18.796875 114.496094 19.789062 114.496094 19.789062 L 114.265625 20.207031 L 110.257812 21.929688 "/>
<path style="fill:none;stroke-width:0.22016;stroke-linecap:butt;stroke-linejoin:miter;stroke:rgb(0%,0%,0%);stroke-opacity:1;stroke-miterlimit:4;" d="M 118.164062 18.453125 C 118.164062 18.453125 118.546875 18.910156 117.703125 19.445312 C 116.789062 19.941406 114.800781 20.707031 114.800781 20.707031 "/>
<path style="fill:none;stroke-width:0.22016;stroke-linecap:butt;stroke-linejoin:miter;stroke:rgb(0%,0%,0%);stroke-opacity:1;stroke-miterlimit:4;" d="M 117.703125 19.519531 C 117.703125 19.519531 118.125 19.789062 117.589844 20.171875 C 116.980469 20.476562 114.574219 21.738281 114.574219 21.738281 L 113.007812 22.769531 "/>
<path style="fill:none;stroke-width:0.22016;stroke-linecap:butt;stroke-linejoin:miter;stroke:rgb(0%,0%,0%);stroke-opacity:1;stroke-miterlimit:4;" d="M 112.203125 16.007812 C 112.203125 16.046875 112.855469 16.582031 112.625 17.191406 C 113.199219 17.613281 113.082031 18.070312 113.082031 18.070312 C 113.082031 18.070312 113.886719 18.527344 113.769531 19.179688 C 114.574219 19.367188 114.535156 19.828125 114.535156 19.828125 L 114.265625 20.246094 C 114.265625 20.246094 115.070312 20.210938 114.382812 21.242188 C 114.800781 21.46875 114.609375 21.738281 114.609375 21.738281 "/>
<path style="fill:none;stroke-width:0.22016;stroke-linecap:butt;stroke-linejoin:miter;stroke:rgb(0%,0%,0%);stroke-opacity:1;stroke-miterlimit:4;" d="M 114.382812 21.277344 C 114.265625 21.277344 111.59375 22.273438 110.90625 22.882812 "/>
<path style="fill:none;stroke-width:0.22016;stroke-linecap:butt;stroke-linejoin:miter;stroke:rgb(0%,0%,0%);stroke-opacity:1;stroke-miterlimit:4;" d="M 107.925781 20.09375 C 107.925781 20.09375 108.730469 20.054688 108.613281 20.933594 C 109.53125 20.628906 109.339844 21.507812 109.339844 21.507812 C 109.339844 21.507812 110.410156 21.085938 110.21875 22.425781 C 110.90625 22.273438 110.792969 22.960938 110.792969 22.960938 C 110.792969 22.960938 111.402344 22.921875 111.402344 23.265625 C 111.824219 22.882812 112.28125 23.074219 112.28125 23.074219 C 112.28125 23.074219 112.585938 22.652344 113.007812 22.769531 "/>
<path style="fill:none;stroke-width:0.22016;stroke-linecap:butt;stroke-linejoin:miter;stroke:rgb(0%,0%,0%);stroke-opacity:1;stroke-miterlimit:4;" d="M 108.652344 20.898438 C 108.652344 20.972656 105.0625 22.960938 105.0625 22.960938 "/>
<path style="fill:none;stroke-width:0.22016;stroke-linecap:butt;stroke-linejoin:miter;stroke:rgb(0%,0%,0%);stroke-opacity:1;stroke-miterlimit:4;" d="M 109.339844 21.546875 L 106.628906 23.226562 "/>
<path style="fill:none;stroke-width:0.22016;stroke-linecap:butt;stroke-linejoin:miter;stroke:rgb(0%,0%,0%);stroke-opacity:1;stroke-miterlimit:4;" d="M 110.257812 22.386719 C 110.257812 22.425781 107.886719 23.800781 107.886719 23.800781 "/>
<path style="fill:none;stroke-width:0.22016;stroke-linecap:butt;stroke-linejoin:miter;stroke:rgb(0%,0%,0%);stroke-opacity:1;stroke-miterlimit:4;" d="M 110.792969 22.921875 C 110.792969 22.921875 109.109375 24.296875 108.730469 24.21875 "/>
<path style="fill:none;stroke-width:0.22016;stroke-linecap:butt;stroke-linejoin:miter;stroke:rgb(0%,0%,0%);stroke-opacity:1;stroke-miterlimit:4;" d="M 111.363281 23.339844 C 111.363281 23.339844 110.410156 24.066406 109.609375 24.410156 "/>
<path style="fill:none;stroke-width:0.22016;stroke-linecap:butt;stroke-linejoin:miter;stroke:rgb(0%,0%,0%);stroke-opacity:1;stroke-miterlimit:4;" d="M 112.355469 23.035156 C 112.355469 23.035156 112.664062 23.417969 110.753906 24.410156 "/>
</g>
</svg>
