<svg viewBox="0 0 1000 667" xmlns="http://www.w3.org/2000/svg" xmlns:xlink="http://www.w3.org/1999/xlink"><clipPath id="a"><path d="m0 0h1000v666.71875h-1000zm0 0"/></clipPath><clipPath id="b"><path d="m0 333h1000v333.71875h-1000zm0 0"/></clipPath><g clip-path="url(#a)"><path d="m0 666.667969v-666.667969h1000v666.667969zm0 0" fill="#ce1126" fill-rule="evenodd"/></g><g clip-path="url(#b)"><path d="m0 333.332031h1000v333.335938h-1000zm0 0" fill-rule="evenodd"/></g><g fill-rule="evenodd"><path d="m442.945312 254.796875h43.589844l13.464844-41.460937 13.464844 41.460937h43.589844l-35.253907 25.617187 13.464844 41.449219-35.265625-25.617187-35.265625 25.617187 13.464844-41.449219zm0 0" fill="#f9d616"/><path d="m672.496094 316.339844c1.113281 11.308594 1.113281 22.679687 0 33.984375l-33.175782-3.265625c.902344-9.125.902344-18.324219 0-27.449219zm-6.621094 67.308594c-3.300781 10.859374-7.660156 21.386718-13.011719 31.390624l-29.394531-15.710937c4.320312-8.082031 7.835938-16.582031 10.503906-25.359375zm-31.890625 59.644531c-7.191406 8.777343-15.246094 16.832031-24.023437 24.023437l-21.148438-25.757812c7.085938-5.816406 13.597656-12.316406 19.414062-19.410156zm-52.277344 42.902343c-10.015625 5.351563-20.53125 9.714844-31.394531 13.011719l-9.675781-31.902343c8.777343-2.65625 17.273437-6.183594 25.359375-10.5zm-64.714843 19.644532c-11.304688 1.105468-22.679688 1.105468-33.984376 0l3.265626-33.183594c9.125.898438 18.328124.898438 27.453124 0zm-67.304688-6.632813c-10.863281-3.296875-21.378906-7.660156-31.394531-13.011719l15.710937-29.390624c8.085938 4.316406 16.582032 7.84375 25.359375 10.5zm100.625-331.738281c10.863281 3.289062 21.378906 7.652344 31.394531 13l-15.710937 29.394531c-8.085938-4.320312-16.582032-7.835937-25.359375-10.503906zm59.648438 31.882812c8.777343 7.191407 16.832031 15.242188 24.023437 24.019532l-25.757813 21.148437c-5.816406-7.082031-12.328124-13.582031-19.414062-19.410156zm42.902343 52.277344c5.351563 10.011719 9.710938 20.53125 13.011719 31.390625l-31.902344 9.675781c-2.667968-8.777343-6.183594-17.273437-10.503906-25.355468zm0 0" fill="#f9d616"/><path d="m623.523438 499.707031 16.210937-19.011719c8.53125 8.257813 20.011719 16.394532 28.34375 23.785157 8.320313 7.390625 14.714844 13.542969 19.878906 21.941406 7.574219 12.304687-.933593 26.246094-12.730469 18.066406-6.367187-4.425781-10.371093-16.375-20.136718-26.261719-7.238282-6.148437-12.933594-12.605468-31.121094-15.722656-.878906-.148437-1.128906-1.992187-.445312-2.796875zm0 0" fill="#f9d616"/><path d="m647.570312 493.988281c0 .804688-.421874 1.542969-1.117187 1.941407-.695313.402343-1.554687.402343-2.238281 0-.691406-.398438-1.125-1.136719-1.113282-1.941407-.011718-.792969.421876-1.542969 1.113282-1.929687.683594-.402344 1.542968-.402344 2.238281 0 .695313.386718 1.117187 1.136718 1.117187 1.929687zm0 0"/><path d="m516.667969 175.0625-3.171875 29.667969c65.335937 6.859375 116.507812 61.535156 116.507812 128.667969 0 71.765624-58.25 130-130.003906 130-31.285156 0-59.558594-11.566407-82-30l-18.996094 23.164062c27.613282 22.679688 62.511719 36.839844 100.996094 36.839844 88.324219 0 160.003906-71.679688 160.003906-160.003906 0-82.59375-62.964844-149.871094-143.335937-158.335938zm0 0" fill="#f9d616"/><path d="m514.140625 439.660156 44.984375 26.605469 9.789062 37.945313 51.636719-3.90625 22.699219-26.609376-84.125-58.296874zm0 0"/><path d="m621.472656 497.089844c-57.855468-38.472656-94.652344-59.253906-150.097656-90.777344-21.777344-12.390625-55.597656-43.519531-28.917969-95.605469 1.683594 34.191407 136.816407 128.050781 193.925781 168.863281zm0 0" fill="#f9d616"/></g><path d="m480.1875 372.265625c44.550781 41.980469 100.652344 76.226563 150.691406 114.074219" fill="none" stroke="#000" stroke-width="3.333333"/><path d="m664.054688 508.367188c.007812.792968-.425782 1.527343-1.121094 1.929687-.683594.402344-1.539063.402344-2.234375 0-.695313-.402344-1.117188-1.136719-1.117188-1.929687 0-.804688.421875-1.542969 1.117188-1.945313.695312-.398437 1.550781-.398437 2.234375 0 .695312.402344 1.128906 1.140625 1.121094 1.945313zm0 0" fill-rule="evenodd"/><path d="m678.535156 523.082031c.011719.800781-.421875 1.539063-1.117187 1.941407-.683594.398437-1.539063.398437-2.234375 0-.695313-.402344-1.117188-1.140626-1.117188-1.941407 0-.796875.421875-1.542969 1.117188-1.945312.695312-.390625 1.550781-.390625 2.234375 0 .695312.402343 1.128906 1.148437 1.117187 1.945312zm0 0" fill-rule="evenodd"/></svg>