<?xml version="1.0" encoding="UTF-8"?>
<svg xmlns="http://www.w3.org/2000/svg" xmlns:xlink="http://www.w3.org/1999/xlink" width="128pt" height="85pt" viewBox="0 0 128 85" version="1.1">
<defs>
<clipPath id="clip1">
  <path d="M 0 0 L 127.679688 0 L 127.679688 85 L 0 85 Z M 0 0 "/>
</clipPath>
<clipPath id="clip2">
  <path d="M 0 42 L 127.679688 42 L 127.679688 85 L 0 85 Z M 0 42 "/>
</clipPath>
</defs>
<g id="surface46">
<g clip-path="url(#clip1)" clip-rule="nonzero">
<path style=" stroke:none;fill-rule:evenodd;fill:rgb(80.783081%,6.666565%,14.901733%);fill-opacity:1;" d="M 0 85 L 0 0 L 127.5 0 L 127.5 85 Z M 0 85 "/>
</g>
<g clip-path="url(#clip2)" clip-rule="nonzero">
<path style=" stroke:none;fill-rule:evenodd;fill:rgb(0%,0%,0%);fill-opacity:1;" d="M 0 42.5 L 127.5 42.5 L 127.5 85 L 0 85 Z M 0 42.5 "/>
</g>
<path style=" stroke:none;fill-rule:evenodd;fill:rgb(97.645569%,83.920288%,8.627319%);fill-opacity:1;" d="M 56.476562 32.488281 L 62.03125 32.488281 L 63.75 27.199219 L 65.46875 32.488281 L 71.023438 32.488281 L 66.53125 35.753906 L 68.246094 41.039062 L 63.75 37.769531 L 59.253906 41.039062 L 60.96875 35.753906 Z M 56.476562 32.488281 "/>
<path style=" stroke:none;fill-rule:evenodd;fill:rgb(97.645569%,83.920288%,8.627319%);fill-opacity:1;" d="M 85.742188 40.332031 C 85.886719 41.773438 85.886719 43.226562 85.742188 44.667969 L 81.511719 44.25 C 81.628906 43.085938 81.628906 41.914062 81.511719 40.75 Z M 84.898438 48.914062 C 84.476562 50.300781 83.921875 51.640625 83.238281 52.917969 L 79.492188 50.914062 C 80.042969 49.882812 80.492188 48.800781 80.832031 47.679688 Z M 80.832031 56.519531 C 79.914062 57.640625 78.890625 58.664062 77.769531 59.582031 L 75.074219 56.296875 C 75.976562 55.558594 76.808594 54.726562 77.546875 53.824219 Z M 74.167969 61.988281 C 72.890625 62.671875 71.550781 63.226562 70.164062 63.648438 L 68.929688 59.582031 C 70.050781 59.242188 71.132812 58.792969 72.164062 58.242188 Z M 65.917969 64.496094 C 64.476562 64.636719 63.023438 64.636719 61.582031 64.496094 L 62 60.261719 C 63.164062 60.378906 64.335938 60.378906 65.5 60.261719 Z M 57.335938 63.648438 C 55.949219 63.226562 54.609375 62.671875 53.332031 61.988281 L 55.335938 58.242188 C 56.367188 58.792969 57.449219 59.242188 58.570312 59.582031 Z M 70.164062 21.351562 C 71.550781 21.773438 72.890625 22.328125 74.167969 23.011719 L 72.164062 26.757812 C 71.132812 26.207031 70.050781 25.757812 68.929688 25.417969 Z M 77.769531 25.417969 C 78.890625 26.335938 79.914062 27.359375 80.832031 28.480469 L 77.546875 31.175781 C 76.808594 30.273438 75.976562 29.445312 75.074219 28.703125 Z M 83.238281 32.082031 C 83.921875 33.359375 84.476562 34.699219 84.898438 36.085938 L 80.832031 37.320312 C 80.492188 36.199219 80.042969 35.117188 79.492188 34.085938 Z M 83.238281 32.082031 "/>
<path style=" stroke:none;fill-rule:evenodd;fill:rgb(97.645569%,83.920288%,8.627319%);fill-opacity:1;" d="M 79.5 63.710938 L 81.566406 61.289062 C 82.652344 62.339844 84.117188 63.378906 85.179688 64.320312 C 86.242188 65.261719 87.054688 66.046875 87.714844 67.117188 C 88.679688 68.6875 87.59375 70.464844 86.089844 69.421875 C 85.28125 68.859375 84.769531 67.335938 83.523438 66.074219 C 82.601562 65.289062 81.875 64.464844 79.554688 64.070312 C 79.445312 64.050781 79.414062 63.816406 79.5 63.710938 Z M 79.5 63.710938 "/>
<path style=" stroke:none;fill-rule:evenodd;fill:rgb(0%,0%,0%);fill-opacity:1;" d="M 82.566406 62.984375 C 82.566406 63.085938 82.511719 63.179688 82.421875 63.230469 C 82.335938 63.28125 82.226562 63.28125 82.136719 63.230469 C 82.050781 63.179688 81.992188 63.085938 81.996094 62.984375 C 81.992188 62.882812 82.050781 62.785156 82.136719 62.738281 C 82.226562 62.6875 82.335938 62.6875 82.421875 62.738281 C 82.511719 62.785156 82.566406 62.882812 82.566406 62.984375 Z M 82.566406 62.984375 "/>
<path style=" stroke:none;fill-rule:evenodd;fill:rgb(97.645569%,83.920288%,8.627319%);fill-opacity:1;" d="M 65.875 22.320312 L 65.472656 26.101562 C 73.800781 26.976562 80.324219 33.949219 80.324219 42.507812 C 80.324219 51.660156 72.898438 59.082031 63.75 59.082031 C 59.761719 59.082031 56.15625 57.609375 53.296875 55.257812 L 50.871094 58.210938 C 54.394531 61.101562 58.84375 62.910156 63.75 62.910156 C 75.011719 62.910156 84.152344 53.769531 84.152344 42.507812 C 84.152344 31.976562 76.121094 23.398438 65.875 22.320312 Z M 65.875 22.320312 "/>
<path style=" stroke:none;fill-rule:evenodd;fill:rgb(0%,0%,0%);fill-opacity:1;" d="M 65.550781 56.054688 L 71.289062 59.449219 L 72.535156 64.285156 L 79.121094 63.789062 L 82.015625 60.394531 L 71.289062 52.964844 Z M 65.550781 56.054688 "/>
<path style=" stroke:none;fill-rule:evenodd;fill:rgb(97.645569%,83.920288%,8.627319%);fill-opacity:1;" d="M 79.238281 63.378906 C 71.859375 58.472656 67.167969 55.824219 60.101562 51.804688 C 57.324219 50.226562 53.011719 46.257812 56.414062 39.617188 C 56.628906 43.976562 73.859375 55.941406 81.140625 61.144531 Z M 79.238281 63.378906 "/>
<path style="fill:none;stroke-width:0.425;stroke-linecap:butt;stroke-linejoin:miter;stroke:rgb(0%,0%,0%);stroke-opacity:1;stroke-miterlimit:4;" d="M 61.222656 47.464844 C 66.902344 52.816406 74.058594 57.183594 80.4375 62.007812 "/>
<path style=" stroke:none;fill-rule:evenodd;fill:rgb(0%,0%,0%);fill-opacity:1;" d="M 84.667969 64.816406 C 84.667969 64.917969 84.613281 65.011719 84.523438 65.0625 C 84.4375 65.113281 84.328125 65.113281 84.238281 65.0625 C 84.152344 65.011719 84.097656 64.917969 84.097656 64.816406 C 84.097656 64.714844 84.152344 64.621094 84.238281 64.570312 C 84.328125 64.519531 84.4375 64.519531 84.523438 64.570312 C 84.613281 64.621094 84.667969 64.714844 84.667969 64.816406 Z M 84.667969 64.816406 "/>
<path style=" stroke:none;fill-rule:evenodd;fill:rgb(0%,0%,0%);fill-opacity:1;" d="M 86.511719 66.691406 C 86.515625 66.796875 86.460938 66.890625 86.371094 66.941406 C 86.285156 66.992188 86.175781 66.992188 86.085938 66.941406 C 85.996094 66.890625 85.945312 66.796875 85.945312 66.691406 C 85.945312 66.589844 85.996094 66.496094 86.085938 66.445312 C 86.175781 66.394531 86.285156 66.394531 86.371094 66.445312 C 86.460938 66.496094 86.515625 66.589844 86.511719 66.691406 Z M 86.511719 66.691406 "/>
</g>
</svg>
