<?xml version="1.0" encoding="UTF-8"?>
<svg xmlns="http://www.w3.org/2000/svg" xmlns:xlink="http://www.w3.org/1999/xlink" width="128pt" height="64pt" viewBox="0 0 128 64" version="1.1">
<g id="surface51">
<rect x="0" y="0" width="128" height="64" style="fill:rgb(0%,14.117432%,49.01886%);fill-opacity:1;stroke:none;"/>
<path style=" stroke:none;fill-rule:evenodd;fill:rgb(99.998474%,99.998474%,99.998474%);fill-opacity:1;" d="M 0 0 L 0 3.578125 L 56.84375 32 L 64 32 L 64 28.421875 L 7.15625 0 Z M 64 0 L 64 3.578125 L 7.15625 32 L 0 32 L 0 28.421875 L 56.84375 0 Z M 64 0 "/>
<path style=" stroke:none;fill-rule:evenodd;fill:rgb(81.175232%,7.843018%,16.862488%);fill-opacity:1;" d="M 0 32 L 21.332031 21.332031 L 26.105469 21.332031 L 4.769531 32 Z M 0 0 L 21.332031 10.667969 L 16.5625 10.667969 L 0 2.386719 Z M 37.894531 10.667969 L 59.230469 0 L 64 0 L 42.667969 10.667969 Z M 64 32 L 42.667969 21.332031 L 47.4375 21.332031 L 64 29.613281 Z M 64 32 "/>
<path style=" stroke:none;fill-rule:evenodd;fill:rgb(79.998779%,79.998779%,19.999695%);fill-opacity:1;" d="M 83.261719 16.429688 C 83.261719 32.304688 84.527344 37.941406 88.875 42.296875 C 93.21875 46.648438 94.863281 47.332031 96.078125 48 C 97.472656 47.230469 99.082031 46.386719 103.023438 42.449219 C 106.917969 38.554688 108.800781 32.9375 108.800781 16.160156 C 105.96875 17.371094 104.554688 17.773438 102.078125 17.765625 C 100.242188 17.945312 97.414062 16.769531 95.71875 16 C 94.613281 16.703125 93.007812 17.542969 90.125 17.636719 C 86.796875 17.777344 85.738281 17.238281 83.261719 16.429688 Z M 83.261719 16.429688 "/>
<path style=" stroke:none;fill-rule:evenodd;fill:rgb(99.998474%,99.998474%,99.998474%);fill-opacity:1;" d="M 84.03125 17.433594 C 84.03125 22.34375 83.738281 29.039062 84.777344 32.910156 C 85.820312 36.800781 86.058594 37.371094 86.84375 38.726562 L 105.105469 38.589844 C 106.230469 36.636719 106.289062 35.425781 107.125 32.304688 C 107.957031 29.195312 108.167969 22.257812 108.195312 17.09375 C 106.359375 18.023438 103.953125 18.683594 101.617188 18.394531 C 99.746094 18.257812 98.019531 17.851562 96.003906 16.765625 C 94.257812 17.765625 93.648438 18.21875 90.765625 18.335938 C 88.519531 18.441406 86.703125 18.617188 84.03125 17.433594 Z M 84.03125 17.433594 "/>
<path style=" stroke:none;fill-rule:evenodd;fill:rgb(59.999084%,79.998779%,99.998474%);fill-opacity:1;" d="M 86.882812 38.621094 C 88.179688 41.226562 94.308594 46.226562 96.101562 47.257812 C 98.144531 46.078125 103.550781 41.140625 105.058594 38.621094 Z M 86.882812 38.621094 "/>
<path style=" stroke:none;fill-rule:evenodd;fill:rgb(99.998474%,59.999084%,0%);fill-opacity:1;" d="M 96.449219 24.703125 C 97.027344 26 98.878906 27.429688 99.386719 28.128906 C 98.738281 28.832031 98.609375 28.753906 98.695312 30.054688 C 99.820312 28.933594 99.84375 28.816406 100.566406 28.984375 C 102.152344 30.496094 100.851562 33.738281 99.539062 34.445312 C 98.226562 35.195312 98.464844 34.417969 96.5 35.359375 C 97.402344 36.09375 98.445312 35.253906 99.296875 35.476562 C 99.761719 36.003906 99.078125 36.957031 99.4375 37.859375 C 100.191406 37.789062 100.101562 36.335938 100.277344 35.8125 C 100.828125 33.882812 104.140625 32.539062 104.308594 30.769531 C 105.007812 30.457031 105.707031 30.671875 106.554688 31.125 C 106.132812 29.46875 104.734375 29.488281 104.359375 28.96875 C 103.464844 27.671875 102.675781 26.1875 100.765625 25.800781 C 99.320312 25.507812 99.429688 25.890625 98.5 25.285156 C 97.921875 24.859375 96.167969 24.046875 96.449219 24.703125 Z M 96.449219 24.703125 "/>
<path style=" stroke:none;fill-rule:evenodd;fill:rgb(99.998474%,99.998474%,99.998474%);fill-opacity:1;" d="M 100.613281 26.175781 C 100.613281 26.335938 100.476562 26.464844 100.3125 26.464844 C 100.144531 26.464844 100.007812 26.335938 100.007812 26.175781 C 100.007812 26.019531 100.144531 25.890625 100.3125 25.890625 C 100.476562 25.890625 100.613281 26.019531 100.613281 26.175781 Z M 100.613281 26.175781 "/>
<path style=" stroke:none;fill-rule:evenodd;fill:rgb(99.998474%,59.999084%,0%);fill-opacity:1;" d="M 91.824219 30.199219 C 92.753906 29.105469 93.214844 26.878906 93.628906 26.121094 C 94.578125 26.339844 94.570312 26.484375 95.738281 25.804688 C 94.167969 25.378906 94.050781 25.417969 93.871094 24.726562 C 94.53125 22.683594 98.144531 22.269531 99.410156 23.042969 C 100.722656 23.796875 99.890625 23.960938 101.683594 25.179688 C 101.941406 24.074219 100.671875 23.589844 100.484375 22.765625 C 100.753906 22.128906 101.957031 22.257812 102.625 21.535156 C 102.207031 20.929688 100.90625 21.683594 100.335938 21.78125 C 98.289062 22.21875 95.496094 20.054688 93.777344 20.738281 C 93.160156 20.296875 93.035156 19.609375 93.058594 18.679688 C 91.71875 19.8125 92.390625 20.980469 92.085938 21.539062 C 91.296875 22.898438 90.289062 24.257812 90.824219 26.046875 C 91.226562 27.402344 91.53125 27.132812 91.40625 28.199219 C 91.277344 28.882812 91.34375 30.742188 91.824219 30.199219 Z M 91.824219 30.199219 "/>
<path style=" stroke:none;fill-rule:evenodd;fill:rgb(99.998474%,99.998474%,99.998474%);fill-opacity:1;" d="M 91.242188 26 C 91.390625 25.925781 91.574219 25.980469 91.652344 26.121094 C 91.730469 26.261719 91.671875 26.4375 91.527344 26.507812 C 91.378906 26.582031 91.195312 26.53125 91.117188 26.390625 C 91.039062 26.25 91.097656 26.074219 91.242188 26 Z M 91.242188 26 "/>
<path style=" stroke:none;fill-rule:evenodd;fill:rgb(99.998474%,59.999084%,0%);fill-opacity:1;" d="M 99.386719 30.964844 C 97.925781 30.769531 95.6875 31.546875 94.796875 31.601562 C 94.5 30.710938 94.632812 30.644531 93.421875 30.042969 C 93.851562 31.542969 93.945312 31.621094 93.417969 32.125 C 91.242188 32.644531 89 29.910156 89.039062 28.472656 C 89.039062 27.015625 89.617188 27.609375 89.78125 25.519531 C 88.65625 25.875 88.875 27.164062 88.234375 27.746094 C 87.523438 27.855469 87.015625 26.800781 86.023438 26.632812 C 85.695312 27.285156 87.046875 27.957031 87.429688 28.375 C 88.878906 29.816406 88.382812 33.214844 89.886719 34.265625 C 89.808594 34.996094 89.253906 35.457031 88.410156 35.914062 C 90.117188 36.421875 90.820312 35.269531 91.480469 35.230469 C 93.109375 35.171875 94.851562 35.289062 96.179688 33.929688 C 97.1875 32.898438 96.789062 32.789062 97.808594 32.34375 C 98.492188 32.089844 100.125 31.074219 99.386719 30.964844 Z M 99.386719 30.964844 "/>
<path style=" stroke:none;fill-rule:evenodd;fill:rgb(99.998474%,99.998474%,99.998474%);fill-opacity:1;" d="M 95.921875 33.609375 C 95.777344 33.527344 95.730469 33.351562 95.816406 33.214844 C 95.902344 33.078125 96.089844 33.035156 96.230469 33.117188 C 96.375 33.199219 96.417969 33.375 96.332031 33.511719 C 96.25 33.644531 96.0625 33.691406 95.921875 33.609375 Z M 95.921875 33.609375 "/>
<path style="fill-rule:nonzero;fill:rgb(99.998474%,99.998474%,99.998474%);fill-opacity:1;stroke-width:1;stroke-linecap:square;stroke-linejoin:miter;stroke:rgb(99.998474%,99.998474%,99.998474%);stroke-opacity:1;stroke-miterlimit:3.239307;" d="M 26.667969 0 L 26.667969 32 L 37.332031 32 L 37.332031 0 Z M 26.667969 0 "/>
<path style="fill-rule:nonzero;fill:rgb(99.998474%,99.998474%,99.998474%);fill-opacity:1;stroke-width:1;stroke-linecap:square;stroke-linejoin:miter;stroke:rgb(99.998474%,99.998474%,99.998474%);stroke-opacity:1;stroke-miterlimit:3.239307;" d="M 0 10.667969 L 0 21.332031 L 64 21.332031 L 64 10.667969 Z M 0 10.667969 "/>
<path style="fill-rule:nonzero;fill:rgb(81.175232%,7.843018%,16.862488%);fill-opacity:1;stroke-width:1;stroke-linecap:square;stroke-linejoin:miter;stroke:rgb(81.175232%,7.843018%,16.862488%);stroke-opacity:1;stroke-miterlimit:3.239307;" d="M 0 12.800781 L 0 19.199219 L 64 19.199219 L 64 12.800781 Z M 0 12.800781 "/>
<path style="fill-rule:nonzero;fill:rgb(81.175232%,7.843018%,16.862488%);fill-opacity:1;stroke-width:1;stroke-linecap:square;stroke-linejoin:miter;stroke:rgb(81.175232%,7.843018%,16.862488%);stroke-opacity:1;stroke-miterlimit:3.239307;" d="M 28.800781 0 L 28.800781 32 L 35.199219 32 L 35.199219 0 Z M 28.800781 0 "/>
</g>
</svg>
