<svg viewBox="0 0 1000 625" xmlns="http://www.w3.org/2000/svg"><path d="m0 0h1000v625h-1000z" fill="#74acdf"/><path d="m0 208.335938h1000v208.339843h-1000zm0 0" fill="#fff" fill-rule="evenodd"/><path d="m496.050781 314.136719 35.566407 77.488281s.609374 1.484375 1.597656 1.074219c.988281-.410157.378906-1.886719.378906-1.886719l-29.644531-79.949219zm7.042969 26.878906c-.433594 11.785156 6.820312 18.265625 5.871094 28.789063-.945313 10.523437 4.835937 16.476562 6.171875 20.570312 1.34375 4.089844-1.445313 6.535156-.246094 7.121094 1.203125.582031 3.839844-2.648438 2.980469-8.46875-.859375-5.816406-5.273438-7.546875-4.234375-20.398438 1.035156-12.855468-5.261719-15.851562-3.730469-27.578125zm0 0" fill="#f6b40e" fill-rule="evenodd"/><path d="m496.050781 314.136719 35.566407 77.488281s.609374 1.484375 1.597656 1.074219c.988281-.410157.378906-1.886719.378906-1.886719l-29.644531-79.949219" fill="none" stroke="#85340a" stroke-width="1.3895"/><path d="m503.09375 341.015625c-.433594 11.785156 6.820312 18.265625 5.871094 28.789063-.945313 10.523437 4.835937 16.476562 6.171875 20.570312 1.34375 4.089844-1.445313 6.535156-.246094 7.121094 1.203125.582031 3.839844-2.648438 2.980469-8.46875-.859375-5.816406-5.273438-7.546875-4.234375-20.398438 1.035156-12.855468-5.261719-15.851562-3.730469-27.578125" fill="none" stroke="#85340a" stroke-width="1.3895"/><path d="m495.722656 312.5 3.207032 85.203125s-.003907 1.601563 1.070312 1.609375c1.070312 0 1.070312-1.609375 1.070312-1.609375l3.203126-85.203125zm-3.773437 27.53125c-4.914063 10.71875-.695313 19.484375-5.597657 28.839844-4.898437 9.363281-1.835937 17.074218-2.164062 21.371094-.324219 4.296874-3.839844 5.484374-2.957031 6.484374.894531.996094 4.558593-.980468 5.996093-6.6875 1.433594-5.699218-1.984374-8.992187 3.890626-20.464843 5.878906-11.480469 1.203124-16.65625 7.113281-26.898438zm0 0" fill="#f6b40e" fill-rule="evenodd"/><path d="m495.71875 312.5 3.210938 85.207031s-.003907 1.597657 1.070312 1.605469c1.066406-.003906 1.066406-1.609375 1.066406-1.609375l3.207032-85.203125" fill="none" stroke="#85340a" stroke-width="1.168426"/><path d="m491.949219 340.035156c-4.914063 10.714844-.695313 19.480469-5.597657 28.835938-4.902343 9.363281-1.835937 17.074218-2.164062 21.371094-.324219 4.296874-3.839844 5.484374-2.957031 6.484374.894531.996094 4.558593-.980468 5.992187-6.6875 1.4375-5.699218-1.980468-8.992187 3.898438-20.464843 5.875-11.480469 1.199218-16.65625 7.109375-26.898438" fill="none" stroke="#85340a" stroke-width="1.168426"/><path d="m496.050781 310.863281-29.644531 79.945313s-.617188 1.480468.371094 1.890625c.988281.410156 1.601562-1.074219 1.601562-1.074219l35.570313-77.488281zm-14.027343 23.988281c-8.632813 8.03125-8.09375 17.734376-16.203126 24.511719-8.109374 6.769531-8.234374 15.0625-10.179687 18.910157-1.949219 3.835937-5.652344 3.597656-5.214844 4.855468.441407 1.265625 4.589844.84375 8.101563-3.878906 3.503906-4.71875 1.605468-9.066406 11.425781-17.421875s7.488281-14.921875 16.863281-22.132813zm0 0" fill="#f6b40e" fill-rule="evenodd"/><path d="m496.050781 310.863281-29.644531 79.945313s-.617188 1.480468.371094 1.890625c.988281.410156 1.601562-1.074219 1.601562-1.074219l35.570313-77.488281" fill="none" stroke="#85340a"/><path d="m482.023438 334.851562c-8.632813 8.03125-8.09375 17.734376-16.203126 24.511719-8.109374 6.769531-8.234374 15.0625-10.179687 18.910157-1.949219 3.835937-5.652344 3.597656-5.214844 4.855468.441407 1.265625 4.589844.84375 8.101563-3.878906 3.503906-4.71875 1.605468-9.066406 11.425781-17.421875s7.488281-14.921875 16.863281-22.132813" fill="none" stroke="#85340a"/><path d="m496.972656 309.476562-57.976562 62.515626s-1.136719 1.132812-.378906 1.890624c.757812.75 1.886718-.378906 1.886718-.378906l62.519532-57.980468zm-22.132812 16.796876c-11.050782 4.109374-14.269532 13.289062-24.351563 16.4375-10.089843 3.15625-13.371093 10.773437-16.636719 13.574218-3.273437 2.808594-6.601562 1.167969-6.679687 2.496094-.078125 1.339844 3.917969 2.535156 8.96875-.484375 5.046875-3.015625 4.949219-7.757813 17.222656-11.71875 12.273438-3.964844 12.628907-10.929687 24.046875-13.996094zm0 0" fill="#f6b40e" fill-rule="evenodd"/><path d="m496.972656 309.476562-57.976562 62.511719s-1.136719 1.136719-.378906 1.894531c.757812.75 1.886718-.378906 1.886718-.378906l62.515625-57.980468" fill="none" stroke="#85340a" stroke-width="1.168426"/><path d="m474.839844 326.273438c-11.050782 4.109374-14.269532 13.289062-24.351563 16.4375-10.089843 3.15625-13.371093 10.773437-16.636719 13.574218-3.273437 2.808594-6.597656 1.167969-6.679687 2.496094-.078125 1.339844 3.921875 2.535156 8.96875-.488281 5.046875-3.011719 4.949219-7.757813 17.222656-11.714844 12.273438-3.964844 12.628907-10.929687 24.046875-13.996094" fill="none" stroke="#85340a" stroke-width="1.168426"/><path d="m505.390625 343.011719c.566406 11.316406 6.980469 16.328125 5.71875 26.640625 2.769531-8.152344-3.902344-14.476563-3.523437-26.523438zm-7.367187-29.578125 24.359374 53.222656-20.410156-54.859375zm0 0" fill="#85340a" fill-rule="evenodd"/><path d="m493.296875 342.75c-3.800781 10.671875.210937 17.761719-4.90625 26.804688 5.675781-6.476563 1.9375-14.867188 6.898437-25.851563zm4.523437-30.140625 2.136719 58.492187 2.136719-58.5zm0 0" fill="#85340a" fill-rule="evenodd"/><path d="m482.234375 337.882812c-7.601563 8.40625-6.605469 16.488282-14.789063 22.890626 7.71875-3.816407 7.476563-13 16.257813-21.253907zm15.710937-26.121093-20.414062 54.859375 24.359375-53.222656zm0 0" fill="#85340a" fill-rule="evenodd"/><path d="m473.871094 329.15625c-10.234375 4.851562-12.414063 12.695312-22.425782 15.476562 8.59375-.558593 11.882813-9.140624 23.15625-13.402343zm24.511718-18.121094-39.851562 42.871094 42.871094-39.855469zm0 0" fill="#85340a" fill-rule="evenodd"/><path d="m498.363281 308.550781-77.488281 35.566407s-1.484375.609374-1.074219 1.597656c.410157.988281 1.886719.378906 1.886719.378906l79.949219-29.644531zm-26.878906 7.042969c-11.785156-.433594-18.265625 6.820312-28.789063 5.871094-10.523437-.945313-16.476562 4.835937-20.570312 6.171875-4.089844 1.34375-6.535156-1.445313-7.121094-.246094-.582031 1.203125 2.648438 3.839844 8.46875 2.980469 5.816406-.859375 7.546875-5.273438 20.398438-4.234375 12.855468 1.035156 15.851562-5.261719 27.578125-3.730469zm0 0" fill="#f6b40e" fill-rule="evenodd"/><path d="m498.363281 308.550781-77.488281 35.566407s-1.484375.609374-1.074219 1.597656c.410157.988281 1.886719.378906 1.886719.378906l79.949219-29.644531" fill="none" stroke="#85340a" stroke-width="1.3895"/><path d="m471.484375 315.59375c-11.785156-.433594-18.265625 6.820312-28.789063 5.871094-10.523437-.945313-16.476562 4.835937-20.570312 6.171875-4.089844 1.34375-6.535156-1.445313-7.121094-.246094-.582031 1.203125 2.648438 3.839844 8.46875 2.980469 5.816406-.859375 7.546875-5.273438 20.398438-4.234375 12.855468 1.035156 15.851562-5.261719 27.578125-3.730469" fill="none" stroke="#85340a" stroke-width="1.3895"/><path d="m500 308.222656-85.203125 3.207032s-1.601563-.003907-1.609375 1.070312c0 1.070312 1.609375 1.070312 1.609375 1.070312l85.203125 3.203126zm-27.53125-3.773437c-10.71875-4.914063-19.484375-.695313-28.839844-5.597657-9.363281-4.898437-17.074218-1.835937-21.371094-2.164062-4.296874-.324219-5.484374-3.839844-6.484374-2.957031-.996094.894531.980468 4.558593 6.6875 5.996093 5.699218 1.433594 8.992187-1.984374 20.464843 3.890626 11.480469 5.878906 16.65625 1.203124 26.898438 7.113281zm0 0" fill="#f6b40e" fill-rule="evenodd"/><path d="m500 308.222656-85.203125 3.210938s-1.601563-.007813-1.605469 1.066406c-.003906 1.066406 1.601563 1.070312 1.601563 1.070312l85.207031 3.203126" fill="none" stroke="#85340a" stroke-width="1.168426"/><path d="m472.46875 304.449219c-10.71875-4.914063-19.484375-.695313-28.839844-5.597657-9.363281-4.898437-17.070312-1.835937-21.367187-2.164062-4.300781-.324219-5.488281-3.839844-6.492188-2.957031-.992187.894531.984375 4.5625 6.691407 5.996093 5.699218 1.433594 8.992187-1.984374 20.464843 3.894532 11.480469 5.875 16.65625 1.203125 26.898438 7.109375" fill="none" stroke="#85340a" stroke-width="1.168426"/><path d="m501.636719 308.550781-79.945313-29.644531s-1.480468-.617188-1.890625.371094c-.410156.988281 1.074219 1.601562 1.074219 1.601562l77.488281 35.570313zm-23.988281-14.027343c-8.03125-8.632813-17.734376-8.09375-24.511719-16.203126-6.769531-8.109374-15.0625-8.234374-18.910157-10.179687-3.835937-1.949219-3.597656-5.652344-4.855468-5.214844-1.265625.441407-.84375 4.589844 3.878906 8.101563 4.71875 3.503906 9.066406 1.605468 17.421875 11.425781s14.921875 7.488281 22.132813 16.863281zm0 0" fill="#f6b40e" fill-rule="evenodd"/><path d="m501.636719 308.550781-79.945313-29.644531s-1.480468-.617188-1.890625.371094c-.410156.988281 1.074219 1.601562 1.074219 1.601562l77.488281 35.570313" fill="none" stroke="#85340a"/><path d="m477.648438 294.523438c-8.03125-8.632813-17.734376-8.09375-24.511719-16.203126-6.769531-8.109374-15.0625-8.234374-18.910157-10.179687-3.835937-1.949219-3.597656-5.652344-4.855468-5.214844-1.265625.441407-.84375 4.589844 3.878906 8.101563 4.71875 3.503906 9.066406 1.605468 17.421875 11.425781s14.921875 7.488281 22.132813 16.863281" fill="none" stroke="#85340a"/><path d="m503.023438 309.472656-62.515626-57.976562s-1.132812-1.136719-1.890624-.378906c-.75.757812.378906 1.886718.378906 1.886718l57.980468 62.519532zm-16.796876-22.132812c-4.109374-11.050782-13.289062-14.269532-16.4375-24.351563-3.15625-10.089843-10.773437-13.371093-13.574218-16.636719-2.808594-3.273437-1.167969-6.601562-2.496094-6.679687-1.339844-.078125-2.535156 3.917969.484375 8.96875 3.015625 5.046875 7.757813 4.949219 11.71875 17.222656 3.964844 12.273438 10.929687 12.628907 13.996094 24.046875zm0 0" fill="#f6b40e" fill-rule="evenodd"/><path d="m503.023438 309.472656-62.515626-57.976562s-1.132812-1.136719-1.890624-.378906c-.75.757812.378906 1.886718.378906 1.886718l57.984375 62.519532" fill="none" stroke="#85340a" stroke-width="1.168426"/><path d="m486.226562 287.339844c-4.109374-11.054688-13.289062-14.269532-16.4375-24.351563-3.15625-10.089843-10.773437-13.371093-13.574218-16.636719-2.808594-3.273437-1.167969-6.597656-2.496094-6.679687-1.335938-.078125-2.535156 3.917969.488281 8.96875 3.015625 5.046875 7.757813 4.949219 11.71875 17.222656 3.960938 12.273438 10.921875 12.628907 13.992188 24.046875" fill="none" stroke="#85340a" stroke-width="1.168426"/><path d="m469.488281 317.890625c-11.316406.566406-16.328125 6.980469-26.640625 5.71875 8.152344 2.769531 14.476563-3.902344 26.523438-3.523437zm29.578125-7.367187-53.222656 24.359374 54.859375-20.410156zm0 0" fill="#85340a" fill-rule="evenodd"/><path d="m469.75 305.796875c-10.671875-3.800781-17.761719.210937-26.804688-4.90625 6.476563 5.675781 14.867188 1.9375 25.851563 6.898437zm30.140625 4.523437-58.492187 2.136719 58.5 2.136719zm0 0" fill="#85340a" fill-rule="evenodd"/><path d="m474.617188 294.734375c-8.40625-7.601563-16.488282-6.605469-22.890626-14.789063 3.816407 7.71875 13 7.476563 21.253907 16.257813zm26.121093 15.710937-54.859375-20.414062 53.222656 24.359375zm0 0" fill="#85340a" fill-rule="evenodd"/><path d="m483.34375 286.371094c-4.851562-10.234375-12.695312-12.414063-15.476562-22.425782.558593 8.59375 9.140624 11.882813 13.402343 23.15625zm18.121094 24.511718-42.871094-39.851562 39.855469 42.871094zm0 0" fill="#85340a" fill-rule="evenodd"/><path d="m503.949219 310.863281-35.566407-77.488281s-.609374-1.484375-1.597656-1.074219c-.988281.410157-.378906 1.886719-.378906 1.886719l29.644531 79.949219zm-7.042969-26.878906c.433594-11.785156-6.820312-18.265625-5.871094-28.789063.945313-10.523437-4.835937-16.476562-6.171875-20.570312-1.34375-4.089844 1.445313-6.535156.246094-7.121094-1.203125-.582031-3.839844 2.648438-2.980469 8.46875.859375 5.816406 5.273438 7.546875 4.234375 20.398438-1.035156 12.855468 5.261719 15.851562 3.730469 27.578125zm0 0" fill="#f6b40e" fill-rule="evenodd"/><path d="m503.949219 310.863281-35.566407-77.488281s-.609374-1.484375-1.597656-1.074219c-.988281.410157-.378906 1.886719-.378906 1.886719l29.644531 79.949219" fill="none" stroke="#85340a" stroke-width="1.3895"/><path d="m496.90625 283.984375c.433594-11.785156-6.820312-18.265625-5.871094-28.789063.945313-10.523437-4.835937-16.476562-6.171875-20.570312-1.34375-4.089844 1.445313-6.535156.246094-7.121094-1.203125-.582031-3.839844 2.648438-2.980469 8.46875.859375 5.816406 5.273438 7.546875 4.234375 20.398438-1.035156 12.855468 5.261719 15.851562 3.730469 27.578125" fill="none" stroke="#85340a" stroke-width="1.3895"/><path d="m504.277344 312.5-3.207032-85.203125s.003907-1.601563-1.070312-1.609375c-1.070312 0-1.070312 1.609375-1.070312 1.609375l-3.203126 85.203125zm3.773437-27.53125c4.914063-10.71875.695313-19.484375 5.597657-28.839844 4.898437-9.363281 1.835937-17.074218 2.164062-21.371094.324219-4.296874 3.839844-5.484374 2.957031-6.484374-.894531-.996094-4.558593.980468-5.996093 6.6875-1.433594 5.699218 1.984374 8.992187-3.890626 20.464843-5.878906 11.480469-1.203124 16.65625-7.113281 26.898438zm0 0" fill="#f6b40e" fill-rule="evenodd"/><path d="m504.277344 312.5-3.207032-85.203125s.003907-1.601563-1.070312-1.609375c-1.070312.003906-1.066406 1.609375-1.066406 1.609375l-3.207032 85.203125" fill="none" stroke="#85340a" stroke-width="1.168426"/><path d="m508.050781 284.96875c4.914063-10.71875.695313-19.484375 5.597657-28.839844 4.898437-9.363281 1.835937-17.074218 2.164062-21.367187.324219-4.300781 3.839844-5.488281 2.957031-6.488281-.890625-.996094-4.5625.980468-5.996093 6.6875-1.433594 5.699218 1.984374 8.992187-3.890626 20.464843-5.878906 11.480469-1.203124 16.65625-7.113281 26.898438" fill="none" stroke="#85340a" stroke-width="1.168426"/><path d="m503.949219 314.136719 29.644531-79.945313s.617188-1.480468-.371094-1.890625c-.988281-.410156-1.601562 1.074219-1.601562 1.074219l-35.570313 77.488281zm14.027343-23.988281c8.632813-8.03125 8.09375-17.734376 16.203126-24.511719 8.109374-6.769531 8.234374-15.0625 10.179687-18.910157 1.949219-3.835937 5.652344-3.597656 5.214844-4.855468-.441407-1.265625-4.589844-.84375-8.101563 3.878906-3.503906 4.71875-1.605468 9.066406-11.425781 17.421875s-7.488281 14.921875-16.863281 22.132813zm0 0" fill="#f6b40e" fill-rule="evenodd"/><path d="m503.949219 314.136719 29.644531-79.945313s.617188-1.480468-.371094-1.890625c-.988281-.410156-1.601562 1.074219-1.601562 1.074219l-35.570313 77.488281" fill="none" stroke="#85340a"/><path d="m517.976562 290.148438c8.632813-8.03125 8.09375-17.734376 16.203126-24.511719 8.109374-6.769531 8.234374-15.0625 10.179687-18.910157 1.949219-3.835937 5.652344-3.597656 5.214844-4.855468-.441407-1.265625-4.589844-.84375-8.101563 3.878906-3.503906 4.71875-1.605468 9.066406-11.425781 17.421875s-7.488281 14.921875-16.863281 22.132813" fill="none" stroke="#85340a"/><path d="m503.027344 315.523438 57.976562-62.515626s1.136719-1.132812.378906-1.890624c-.757812-.75-1.886718.378906-1.886718.378906l-62.519532 57.980468zm22.132812-16.796876c11.050782-4.109374 14.269532-13.289062 24.351563-16.4375 10.089843-3.15625 13.371093-10.773437 16.636719-13.574218 3.273437-2.808594 6.601562-1.167969 6.679687-2.496094.078125-1.339844-3.917969-2.535156-8.96875.484375-5.046875 3.015625-4.949219 7.757813-17.222656 11.71875-12.273438 3.964844-12.628907 10.929687-24.046875 13.996094zm0 0" fill="#f6b40e" fill-rule="evenodd"/><path d="m503.027344 315.519531 57.976562-62.511719s1.136719-1.132812.378906-1.890624c-.757812-.75-1.886718.378906-1.886718.378906l-62.515625 57.984375" fill="none" stroke="#85340a" stroke-width="1.168426"/><path d="m525.160156 298.722656c11.050782-4.105468 14.269532-13.285156 24.351563-16.433594 10.089843-3.15625 13.371093-10.773437 16.636719-13.578124 3.273437-2.804688 6.597656-1.164063 6.679687-2.496094.078125-1.335938-3.917969-2.53125-8.96875.488281-5.046875 3.015625-4.949219 7.757813-17.222656 11.722656-12.273438 3.957031-12.628907 10.921875-24.046875 13.992188" fill="none" stroke="#85340a" stroke-width="1.168426"/><path d="m494.609375 281.988281c-.566406-11.316406-6.980469-16.328125-5.71875-26.640625-2.769531 8.152344 3.902344 14.476563 3.523437 26.523438zm7.367187 29.578125-24.359374-53.222656 20.410156 54.859375zm0 0" fill="#85340a" fill-rule="evenodd"/><path d="m506.703125 282.25c3.800781-10.671875-.210937-17.761719 4.90625-26.804688-5.675781 6.476563-1.9375 14.867188-6.898437 25.851563zm-4.523437 30.140625-2.136719-58.492187-2.136719 58.5zm0 0" fill="#85340a" fill-rule="evenodd"/><path d="m517.765625 287.117188c7.601563-8.40625 6.605469-16.488282 14.789063-22.890626-7.71875 3.816407-7.476563 13-16.257813 21.253907zm-15.710937 26.121093 20.414062-54.859375-24.359375 53.222656zm0 0" fill="#85340a" fill-rule="evenodd"/><path d="m526.128906 295.84375c10.234375-4.851562 12.414063-12.695312 22.425782-15.476562-8.59375.558593-11.882813 9.140624-23.15625 13.402343zm-24.511718 18.121094 39.851562-42.871094-42.871094 39.855469zm0 0" fill="#85340a" fill-rule="evenodd"/><path d="m501.636719 316.449219 77.488281-35.566407s1.484375-.609374 1.074219-1.597656c-.410157-.988281-1.886719-.378906-1.886719-.378906l-79.949219 29.644531zm26.878906-7.042969c11.785156.433594 18.265625-6.820312 28.789063-5.871094 10.523437.945313 16.476562-4.835937 20.570312-6.171875 4.089844-1.34375 6.535156 1.445313 7.121094.246094.582031-1.203125-2.648438-3.839844-8.46875-2.980469-5.816406.859375-7.546875 5.273438-20.398438 4.234375-12.855468-1.035156-15.851562 5.261719-27.578125 3.730469zm0 0" fill="#f6b40e" fill-rule="evenodd"/><path d="m501.636719 316.449219 77.488281-35.566407s1.484375-.609374 1.074219-1.597656c-.410157-.988281-1.886719-.378906-1.886719-.378906l-79.949219 29.644531" fill="none" stroke="#85340a" stroke-width="1.3895"/><path d="m528.515625 309.40625c11.785156.433594 18.265625-6.820312 28.789063-5.871094 10.523437.945313 16.476562-4.835937 20.570312-6.171875 4.089844-1.34375 6.535156 1.445313 7.121094.246094.582031-1.203125-2.648438-3.839844-8.46875-2.980469-5.816406.859375-7.546875 5.273438-20.398438 4.234375-12.855468-1.035156-15.851562 5.261719-27.578125 3.730469" fill="none" stroke="#85340a" stroke-width="1.3895"/><path d="m500 316.777344 85.203125-3.207032s1.601563.003907 1.609375-1.070312c0-1.070312-1.609375-1.070312-1.609375-1.070312l-85.203125-3.203126zm27.53125 3.773437c10.71875 4.914063 19.484375.695313 28.839844 5.597657 9.363281 4.898437 17.074218 1.835937 21.371094 2.164062 4.296874.324219 5.484374 3.839844 6.484374 2.957031.996094-.894531-.980468-4.558593-6.6875-5.996093-5.699218-1.433594-8.992187 1.984374-20.464843-3.890626-11.480469-5.878906-16.65625-1.203124-26.898438-7.113281zm0 0" fill="#f6b40e" fill-rule="evenodd"/><path d="m500 316.777344 85.207031-3.210938s1.597657.007813 1.601563-1.066406c0-1.066406-1.605469-1.070312-1.605469-1.070312l-85.203125-3.203126" fill="none" stroke="#85340a" stroke-width="1.168426"/><path d="m527.535156 320.550781c10.714844 4.914063 19.480469.695313 28.835938 5.597657 9.363281 4.898437 17.074218 1.835937 21.371094 2.167968 4.296874.320313 5.484374 3.835938 6.484374 2.949219.996094-.886719-.980468-4.558594-6.6875-5.992187-5.699218-1.433594-8.988281 1.984374-20.464843-3.894532-11.480469-5.875-16.65625-1.199218-26.898438-7.109375" fill="none" stroke="#85340a" stroke-width="1.168426"/><path d="m498.363281 316.449219 79.945313 29.644531s1.480468.617188 1.890625-.371094c.410156-.988281-1.074219-1.601562-1.074219-1.601562l-77.488281-35.570313zm23.988281 14.027343c8.03125 8.632813 17.734376 8.09375 24.511719 16.203126 6.769531 8.109374 15.0625 8.234374 18.910157 10.179687 3.835937 1.949219 3.597656 5.652344 4.855468 5.214844 1.265625-.441407.84375-4.589844-3.878906-8.101563-4.71875-3.503906-9.066406-1.605468-17.421875-11.425781s-14.921875-7.488281-22.132813-16.863281zm0 0" fill="#f6b40e" fill-rule="evenodd"/><path d="m498.363281 316.449219 79.945313 29.644531s1.480468.617188 1.890625-.371094c.410156-.988281-1.074219-1.601562-1.074219-1.601562l-77.488281-35.570313" fill="none" stroke="#85340a"/><path d="m522.351562 330.476562c8.03125 8.632813 17.734376 8.09375 24.511719 16.203126 6.769531 8.109374 15.0625 8.234374 18.910157 10.179687 3.835937 1.949219 3.597656 5.652344 4.855468 5.214844 1.265625-.441407.84375-4.589844-3.878906-8.101563-4.71875-3.503906-9.066406-1.605468-17.421875-11.425781s-14.921875-7.488281-22.132813-16.863281" fill="none" stroke="#85340a"/><path d="m496.976562 315.527344 62.515626 57.976562s1.132812 1.136719 1.890624.378906c.75-.757812-.378906-1.886718-.378906-1.886718l-57.980468-62.519532zm16.796876 22.132812c4.109374 11.050782 13.289062 14.269532 16.4375 24.351563 3.15625 10.089843 10.773437 13.371093 13.574218 16.636719 2.808594 3.273437 1.167969 6.601562 2.496094 6.679687 1.339844.078125 2.535156-3.917969-.484375-8.96875-3.015625-5.046875-7.757813-4.949219-11.71875-17.222656-3.964844-12.273438-10.929687-12.628907-13.996094-24.046875zm0 0" fill="#f6b40e" fill-rule="evenodd"/><path d="m496.980469 315.527344 62.511719 57.976562s1.132812 1.136719 1.890624.378906c.75-.753906-.378906-1.886718-.378906-1.886718l-57.984375-62.515625" fill="none" stroke="#85340a" stroke-width="1.168426"/><path d="m513.777344 337.65625c4.105468 11.054688 13.285156 14.273438 16.433594 24.355469 3.15625 10.089843 10.773437 13.375 13.578124 16.640625 2.804688 3.269531 1.164063 6.597656 2.496094 6.675781 1.335938.078125 2.53125-3.917969-.488281-8.964844-3.015625-5.050781-7.757813-4.953125-11.722656-17.226562-3.960938-12.273438-10.921875-12.628907-13.992188-24.046875" fill="none" stroke="#85340a" stroke-width="1.168426"/><g fill-rule="evenodd"><path d="m530.511719 307.109375c11.316406-.566406 16.328125-6.980469 26.640625-5.71875-8.152344-2.769531-14.476563 3.902344-26.523438 3.523437zm-29.578125 7.367187 53.222656-24.359374-54.859375 20.410156zm0 0" fill="#85340a"/><path d="m530.25 319.203125c10.671875 3.800781 17.761719-.210937 26.804688 4.90625-6.476563-5.675781-14.867188-1.9375-25.851563-6.898437zm-30.140625-4.523437 58.492187-2.136719-58.5-2.136719zm0 0" fill="#85340a"/><path d="m525.382812 330.265625c8.40625 7.601563 16.488282 6.605469 22.890626 14.789063-3.816407-7.71875-13-7.476563-21.253907-16.257813zm-26.121093-15.710937 54.859375 20.414062-53.222656-24.359375zm0 0" fill="#85340a"/><path d="m516.65625 338.628906c4.851562 10.234375 12.695312 12.414063 15.476562 22.425782-.558593-8.59375-9.140624-11.882813-13.402343-23.15625zm-18.121094-24.511718 42.871094 39.851562-39.855469-42.871094zm0 0" fill="#85340a"/><path d="m534.722656 312.5c0 19.175781-15.546875 34.722656-34.722656 34.722656s-34.722656-15.546875-34.722656-34.722656 15.546875-34.722656 34.722656-34.722656 34.722656 15.546875 34.722656 34.722656zm0 0" fill="#f6b40e" stroke="#85340a" stroke-width="1.875"/><path d="m511.835938 305.070312c-2.367188 0-4.640626 1.03125-5.976563 3.167969 2.671875 2.40625 8.570313 2.664063 12.578125-.273437-1.734375-1.867188-4.226562-2.894532-6.601562-2.894532zm-.039063.550782c2.308594-.042969 4.46875 1.019531 4.769531 2.070312-2.675781 2.941406-6.941406 2.683594-9.613281.546875 1.171875-1.867187 3.050781-2.585937 4.84375-2.617187zm0 0" fill="#843511"/><path d="m512.285156 303.421875c-3.464844 0-4.269531.808594-5.875 2.140625-1.601562 1.335938-2.402344 1.066406-2.667968 1.335938-.269532.265624 0 1.066406.53125.796874.535156-.265624 1.605468-.796874 3.203124-2.132812 1.605469-1.339844 3.203126-1.339844 4.808594-1.339844 4.808594 0 7.476563 4.011719 8.015625 3.742188.53125-.269532-2.675781-4.542969-8.015625-4.542969zm0 0" fill="#85340a"/><path d="m521.898438 305.023438c-6.140626-5.339844-13.882813-6.140626-18.164063-2.136719-1.042969 1.402343-1.714844 2.898437-1.988281 4.460937-.539063 3.046875.414062 6.332032 2.792968 9.699219-.265624 0-.804687.261719-1.066406.53125-2.125-4.054687-2.875-8.222656-2.179687-12.183594.183593-1.03125.472656-2.050781.835937-3.039062 5.878906-4.808594 13.894532-5.347657 19.769532 2.667969zm0 0" fill="#85340a"/><path d="m514.15625 307.691406c0 1.324219-1.078125 2.398438-2.402344 2.398438-1.328125 0-2.402344-1.074219-2.402344-2.398438 0-1.332031 1.074219-2.40625 2.402344-2.40625 1.324219 0 2.402344 1.074219 2.402344 2.40625zm0 0" fill="#85340a"/><path d="m518.703125 309.300781c-4.542969 3.472657-9.085937 3.207031-11.757813 1.601563-2.667968-1.601563-2.667968-2.136719-2.136718-2.136719s1.070312.535156 3.207031 1.605469c2.132813 1.066406 5.339844 1.066406 10.679687-1.070313zm0 0" fill="#85340a"/><path d="m494.691406 317.296875c-1.144531.214844-1.953125 1.226563-1.953125 2.386719 0 1.324218 1.089844 2.378906 2.414063 2.378906.789062 0 1.507812-.371094 1.953125-1.011719.929687.695313 2.210937.769531 2.894531.78125h.3125c.683594-.011719 1.964844-.085937 2.890625-.78125.453125.640625 1.167969 1.011719 1.953125 1.011719 1.324219 0 2.425781-1.054688 2.425781-2.378906 0-1.160156-.8125-2.171875-1.953125-2.386719.640625.226563 1.046875.847656 1.046875 1.527344 0 .882812-.714843 1.597656-1.597656 1.597656-.847656 0-1.550781-.671875-1.597656-1.519531-.261719.519531-1.296875 2.070312-3.320313 2.148437-2.035156-.078125-3.066406-1.628906-3.320312-2.148437-.058594.847656-.753906 1.519531-1.605469 1.519531-.886719 0-1.601563-.714844-1.601563-1.597656 0-.679688.414063-1.292969 1.058594-1.527344zm0 0" fill="#85340a"/><path d="m497.300781 324.414062c-2.671875 0-3.726562 2.417969-6.132812 4.023438 1.335937-.53125 2.386719-1.585938 4.253906-2.65625 1.875-1.070312 3.46875.230469 4.535156.230469h.035157c1.070312 0 2.664062-1.300781 4.535156-.230469s2.960937 2.125 4.296875 2.65625c-2.402344-1.605469-3.503907-4.023438-6.175781-4.023438-.53125 0-1.585938.289063-2.65625.816407h-.035157c-1.066406-.527344-2.125-.816407-2.65625-.816407zm0 0" fill="#85340a"/><path d="m496.398438 327.574219c-1.054688.050781-2.445313.257812-4.449219.863281 4.808593-1.070312 5.867187.542969 8.007812.542969h.035157c2.136718 0 3.199218-1.613281 8.007812-.542969-5.339844-1.605469-6.402344-.550781-8.007812-.550781h-.035157c-1.007812 0-1.800781-.390625-3.558593-.3125zm0 0" fill="#85340a"/><path d="m492.1875 328.398438c-.3125.007812-.648438.007812-1.011719.039062 5.605469.535156 2.910157 3.753906 8.789063 3.753906h.035156c5.878906 0 3.21875-3.21875 8.824219-3.753906-5.871094-.53125-4.015625 2.929688-8.824219 2.929688h-.035156c-4.511719 0-3.125-3.023438-7.777344-2.96875zm0 0" fill="#85340a"/><path d="m504.808594 337.074219c0-2.65625-2.148438-4.804688-4.800782-4.804688-2.65625 0-4.8125 2.148438-4.8125 4.804688.53125-2.222657 2.523438-3.796875 4.8125-3.796875 2.289063 0 4.277344 1.574218 4.800782 3.796875zm0 0" fill="#85340a"/><path d="m478.414062 305.023438c6.144532-5.339844 13.882813-6.140626 18.164063-2.136719 1.042969 1.402343 1.710937 2.898437 1.988281 4.460937.535156 3.046875-.410156 6.332032-2.796875 9.699219.269531 0 .808594.261719 1.074219.53125 2.117188-4.054687 2.867188-8.222656 2.171875-12.183594-.179687-1.03125-.46875-2.050781-.835937-3.039062-5.875-4.808594-13.890626-5.347657-19.761719 2.667969zm0 0" fill="#85340a"/><path d="m488.023438 303.421875c3.476562 0 4.273437.808594 5.878906 2.140625 1.605468 1.335938 2.40625 1.066406 2.667968 1.335938.269532.265624 0 1.066406-.53125.796874-.53125-.265624-1.605468-.796874-3.203124-2.132812-1.605469-1.339844-3.207032-1.339844-4.8125-1.339844-4.800782 0-7.476563 4.011719-8.007813 3.742188-.535156-.269532 2.667969-4.542969 8.007813-4.542969zm0 0" fill="#85340a"/><path d="m487.859375 305.070312c-2.367187 0-4.636719 1.03125-5.976563 3.167969 2.675782 2.40625 8.570313 2.664063 12.582032-.273437-1.738282-1.867188-4.230469-2.894532-6.605469-2.894532zm-.035156.550782c2.308593-.042969 4.460937 1.019531 4.765625 2.070312-2.671875 2.941406-6.941406 2.683594-9.613282.546875 1.171876-1.867187 3.054688-2.585937 4.847657-2.617187zm0 0" fill="#843511"/><path d="m490.578125 307.691406c0 1.324219-1.078125 2.398438-2.398437 2.398438-1.332032 0-2.40625-1.074219-2.40625-2.398438 0-1.332031 1.074218-2.40625 2.40625-2.40625 1.320312 0 2.398437 1.074219 2.398437 2.40625zm0 0" fill="#85340a"/><path d="m481.609375 309.300781c4.542969 3.472657 9.082031 3.207031 11.757813 1.601563 2.664062-1.601563 2.664062-2.136719 2.132812-2.136719s-1.066406.535156-3.203125 1.605469c-2.136719 1.066406-5.339844 1.066406-10.679687-1.070313zm0 0" fill="#85340a"/></g></svg>