<?xml version="1.0" encoding="UTF-8"?>
<svg xmlns="http://www.w3.org/2000/svg" xmlns:xlink="http://www.w3.org/1999/xlink" width="128pt" height="80pt" viewBox="0 0 128 80" version="1.1">
<g id="surface61">
<rect x="0" y="0" width="128" height="80" style="fill:rgb(45.489502%,67.449951%,87.449646%);fill-opacity:1;stroke:none;"/>
<path style=" stroke:none;fill-rule:evenodd;fill:rgb(99.998474%,99.998474%,99.998474%);fill-opacity:1;" d="M 0 26.667969 L 128 26.667969 L 128 53.335938 L 0 53.335938 Z M 0 26.667969 "/>
<path style=" stroke:none;fill-rule:evenodd;fill:rgb(96.469116%,70.587158%,5.490112%);fill-opacity:1;" d="M 63.496094 40.210938 L 68.046875 50.128906 C 68.046875 50.128906 68.125 50.316406 68.25 50.265625 C 68.378906 50.214844 68.300781 50.023438 68.300781 50.023438 L 64.503906 39.789062 Z M 64.394531 43.648438 C 64.339844 45.160156 65.269531 45.988281 65.148438 47.335938 C 65.027344 48.683594 65.765625 49.445312 65.9375 49.96875 C 66.109375 50.492188 65.753906 50.804688 65.90625 50.878906 C 66.058594 50.953125 66.398438 50.539062 66.289062 49.796875 C 66.175781 49.050781 65.613281 48.828125 65.746094 47.183594 C 65.878906 45.539062 65.070312 45.15625 65.269531 43.65625 Z M 64.394531 43.648438 "/>
<path style="fill:none;stroke-width:0.177856;stroke-linecap:butt;stroke-linejoin:miter;stroke:rgb(52.156067%,20.391846%,3.921509%);stroke-opacity:1;stroke-miterlimit:4;" d="M 63.496094 40.210938 L 68.046875 50.128906 C 68.046875 50.128906 68.125 50.316406 68.25 50.265625 C 68.378906 50.214844 68.300781 50.023438 68.300781 50.023438 L 64.503906 39.789062 "/>
<path style="fill:none;stroke-width:0.177856;stroke-linecap:butt;stroke-linejoin:miter;stroke:rgb(52.156067%,20.391846%,3.921509%);stroke-opacity:1;stroke-miterlimit:4;" d="M 64.394531 43.648438 C 64.339844 45.160156 65.269531 45.988281 65.148438 47.335938 C 65.027344 48.683594 65.765625 49.445312 65.9375 49.96875 C 66.109375 50.492188 65.753906 50.804688 65.90625 50.878906 C 66.058594 50.953125 66.398438 50.539062 66.289062 49.796875 C 66.175781 49.050781 65.613281 48.828125 65.746094 47.183594 C 65.878906 45.539062 65.070312 45.15625 65.269531 43.65625 "/>
<path style=" stroke:none;fill-rule:evenodd;fill:rgb(96.469116%,70.587158%,5.490112%);fill-opacity:1;" d="M 63.453125 40 L 63.863281 50.90625 C 63.863281 50.90625 63.863281 51.109375 64 51.113281 C 64.136719 51.113281 64.136719 50.90625 64.136719 50.90625 L 64.546875 40 Z M 62.96875 43.523438 C 62.339844 44.894531 62.878906 46.019531 62.253906 47.214844 C 61.625 48.414062 62.019531 49.402344 61.976562 49.949219 C 61.933594 50.5 61.484375 50.652344 61.597656 50.78125 C 61.710938 50.910156 62.179688 50.65625 62.363281 49.925781 C 62.546875 49.195312 62.109375 48.773438 62.863281 47.304688 C 63.617188 45.835938 63.015625 45.171875 63.773438 43.863281 Z M 62.96875 43.523438 "/>
<path style="fill:none;stroke-width:0.149559;stroke-linecap:butt;stroke-linejoin:miter;stroke:rgb(52.156067%,20.391846%,3.921509%);stroke-opacity:1;stroke-miterlimit:4;" d="M 63.453125 40 L 63.863281 50.90625 C 63.863281 50.90625 63.863281 51.109375 64 51.113281 C 64.136719 51.113281 64.136719 50.90625 64.136719 50.90625 L 64.546875 40 "/>
<path style="fill:none;stroke-width:0.149559;stroke-linecap:butt;stroke-linejoin:miter;stroke:rgb(52.156067%,20.391846%,3.921509%);stroke-opacity:1;stroke-miterlimit:4;" d="M 62.96875 43.523438 C 62.339844 44.894531 62.878906 46.019531 62.253906 47.214844 C 61.625 48.414062 62.019531 49.402344 61.976562 49.949219 C 61.933594 50.5 61.484375 50.652344 61.597656 50.78125 C 61.710938 50.910156 62.179688 50.65625 62.363281 49.925781 C 62.546875 49.195312 62.109375 48.773438 62.863281 47.304688 C 63.617188 45.835938 63.015625 45.171875 63.773438 43.863281 "/>
<path style=" stroke:none;fill-rule:evenodd;fill:rgb(96.469116%,70.587158%,5.490112%);fill-opacity:1;" d="M 63.496094 39.789062 L 59.699219 50.023438 C 59.699219 50.023438 59.621094 50.214844 59.746094 50.265625 C 59.875 50.316406 59.953125 50.128906 59.953125 50.128906 L 64.503906 40.210938 Z M 61.699219 42.859375 C 60.59375 43.890625 60.664062 45.132812 59.625 46 C 58.585938 46.863281 58.570312 47.925781 58.320312 48.417969 C 58.074219 48.910156 57.597656 48.878906 57.65625 49.039062 C 57.710938 49.203125 58.242188 49.148438 58.691406 48.542969 C 59.140625 47.941406 58.898438 47.382812 60.152344 46.3125 C 61.410156 45.246094 61.113281 44.402344 62.3125 43.480469 Z M 61.699219 42.859375 "/>
<path style="fill:none;stroke-width:1;stroke-linecap:butt;stroke-linejoin:miter;stroke:rgb(52.156067%,20.391846%,3.921509%);stroke-opacity:1;stroke-miterlimit:4;" d="M 63.496094 39.789062 L 59.699219 50.023438 C 59.699219 50.023438 59.621094 50.214844 59.746094 50.265625 C 59.875 50.316406 59.953125 50.128906 59.953125 50.128906 L 64.503906 40.210938 "/>
<path style="fill:none;stroke-width:1;stroke-linecap:butt;stroke-linejoin:miter;stroke:rgb(52.156067%,20.391846%,3.921509%);stroke-opacity:1;stroke-miterlimit:4;" d="M 61.699219 42.859375 C 60.59375 43.890625 60.664062 45.132812 59.625 46 C 58.585938 46.863281 58.570312 47.925781 58.320312 48.417969 C 58.074219 48.910156 57.597656 48.878906 57.65625 49.039062 C 57.710938 49.203125 58.242188 49.148438 58.691406 48.542969 C 59.140625 47.941406 58.898438 47.382812 60.152344 46.3125 C 61.410156 45.246094 61.113281 44.402344 62.3125 43.480469 "/>
<path style=" stroke:none;fill-rule:evenodd;fill:rgb(96.469116%,70.587158%,5.490112%);fill-opacity:1;" d="M 63.613281 39.613281 L 56.191406 47.613281 C 56.191406 47.613281 56.046875 47.761719 56.144531 47.855469 C 56.238281 47.953125 56.382812 47.808594 56.382812 47.808594 L 64.386719 40.386719 Z M 60.78125 41.761719 C 59.363281 42.289062 58.953125 43.464844 57.664062 43.867188 C 56.371094 44.269531 55.949219 45.246094 55.53125 45.605469 C 55.113281 45.964844 54.6875 45.753906 54.679688 45.925781 C 54.667969 46.09375 55.179688 46.25 55.824219 45.863281 C 56.472656 45.476562 56.460938 44.867188 58.03125 44.363281 C 59.601562 43.855469 59.648438 42.964844 61.109375 42.570312 Z M 60.78125 41.761719 "/>
<path style="fill:none;stroke-width:0.149559;stroke-linecap:butt;stroke-linejoin:miter;stroke:rgb(52.156067%,20.391846%,3.921509%);stroke-opacity:1;stroke-miterlimit:4;" d="M 63.613281 39.613281 L 56.191406 47.613281 C 56.191406 47.613281 56.046875 47.761719 56.144531 47.855469 C 56.238281 47.953125 56.382812 47.808594 56.382812 47.808594 L 64.386719 40.386719 "/>
<path style="fill:none;stroke-width:0.149559;stroke-linecap:butt;stroke-linejoin:miter;stroke:rgb(52.156067%,20.391846%,3.921509%);stroke-opacity:1;stroke-miterlimit:4;" d="M 60.78125 41.761719 C 59.363281 42.289062 58.953125 43.464844 57.664062 43.867188 C 56.371094 44.269531 55.949219 45.246094 55.53125 45.605469 C 55.113281 45.964844 54.6875 45.753906 54.679688 45.925781 C 54.667969 46.09375 55.179688 46.25 55.824219 45.863281 C 56.472656 45.476562 56.460938 44.867188 58.03125 44.363281 C 59.601562 43.855469 59.648438 42.964844 61.109375 42.570312 "/>
<path style=" stroke:none;fill-rule:evenodd;fill:rgb(52.156067%,20.391846%,3.921509%);fill-opacity:1;" d="M 64.691406 43.90625 C 64.761719 45.355469 65.582031 45.996094 65.421875 47.316406 C 65.777344 46.273438 64.921875 45.460938 64.972656 43.921875 Z M 63.746094 40.121094 L 66.863281 46.933594 L 64.253906 39.910156 Z M 63.746094 40.121094 "/>
<path style=" stroke:none;fill-rule:evenodd;fill:rgb(52.156067%,20.391846%,3.921509%);fill-opacity:1;" d="M 63.140625 43.871094 C 62.65625 45.238281 63.167969 46.144531 62.515625 47.304688 C 63.242188 46.472656 62.761719 45.398438 63.398438 43.992188 Z M 63.722656 40.015625 L 63.996094 47.5 L 64.269531 40.011719 Z M 63.722656 40.015625 "/>
<path style=" stroke:none;fill-rule:evenodd;fill:rgb(52.156067%,20.391846%,3.921509%);fill-opacity:1;" d="M 61.726562 43.25 C 60.753906 44.324219 60.878906 45.359375 59.832031 46.179688 C 60.820312 45.691406 60.789062 44.515625 61.914062 43.457031 Z M 63.738281 39.90625 L 61.125 46.925781 L 64.242188 40.113281 Z M 63.738281 39.90625 "/>
<path style=" stroke:none;fill-rule:evenodd;fill:rgb(52.156067%,20.391846%,3.921509%);fill-opacity:1;" d="M 60.65625 42.132812 C 59.34375 42.753906 59.066406 43.757812 57.785156 44.113281 C 58.886719 44.042969 59.304688 42.941406 60.75 42.398438 Z M 63.792969 39.8125 L 58.691406 45.300781 L 64.179688 40.199219 Z M 63.792969 39.8125 "/>
<path style=" stroke:none;fill-rule:evenodd;fill:rgb(96.469116%,70.587158%,5.490112%);fill-opacity:1;" d="M 63.789062 39.496094 L 53.871094 44.046875 C 53.871094 44.046875 53.683594 44.125 53.734375 44.25 C 53.785156 44.378906 53.976562 44.300781 53.976562 44.300781 L 64.210938 40.503906 Z M 60.351562 40.394531 C 58.839844 40.339844 58.011719 41.269531 56.664062 41.148438 C 55.316406 41.027344 54.554688 41.765625 54.03125 41.9375 C 53.507812 42.109375 53.195312 41.753906 53.121094 41.90625 C 53.046875 42.058594 53.460938 42.398438 54.203125 42.289062 C 54.949219 42.175781 55.171875 41.613281 56.816406 41.746094 C 58.460938 41.878906 58.84375 41.070312 60.34375 41.269531 Z M 60.351562 40.394531 "/>
<path style="fill:none;stroke-width:0.177856;stroke-linecap:butt;stroke-linejoin:miter;stroke:rgb(52.156067%,20.391846%,3.921509%);stroke-opacity:1;stroke-miterlimit:4;" d="M 63.789062 39.496094 L 53.871094 44.046875 C 53.871094 44.046875 53.683594 44.125 53.734375 44.25 C 53.785156 44.378906 53.976562 44.300781 53.976562 44.300781 L 64.210938 40.503906 "/>
<path style="fill:none;stroke-width:0.177856;stroke-linecap:butt;stroke-linejoin:miter;stroke:rgb(52.156067%,20.391846%,3.921509%);stroke-opacity:1;stroke-miterlimit:4;" d="M 60.351562 40.394531 C 58.839844 40.339844 58.011719 41.269531 56.664062 41.148438 C 55.316406 41.027344 54.554688 41.765625 54.03125 41.9375 C 53.507812 42.109375 53.195312 41.753906 53.121094 41.90625 C 53.046875 42.058594 53.460938 42.398438 54.203125 42.289062 C 54.949219 42.175781 55.171875 41.613281 56.816406 41.746094 C 58.460938 41.878906 58.84375 41.070312 60.34375 41.269531 "/>
<path style=" stroke:none;fill-rule:evenodd;fill:rgb(96.469116%,70.587158%,5.490112%);fill-opacity:1;" d="M 64 39.453125 L 53.09375 39.863281 C 53.09375 39.863281 52.890625 39.863281 52.886719 40 C 52.886719 40.136719 53.09375 40.136719 53.09375 40.136719 L 64 40.546875 Z M 60.476562 38.96875 C 59.105469 38.339844 57.980469 38.878906 56.785156 38.253906 C 55.585938 37.625 54.597656 38.019531 54.050781 37.976562 C 53.5 37.933594 53.347656 37.484375 53.21875 37.597656 C 53.089844 37.710938 53.34375 38.179688 54.074219 38.363281 C 54.804688 38.546875 55.226562 38.109375 56.695312 38.863281 C 58.164062 39.617188 58.828125 39.015625 60.136719 39.773438 Z M 60.476562 38.96875 "/>
<path style="fill:none;stroke-width:0.149559;stroke-linecap:butt;stroke-linejoin:miter;stroke:rgb(52.156067%,20.391846%,3.921509%);stroke-opacity:1;stroke-miterlimit:4;" d="M 64 39.453125 L 53.09375 39.863281 C 53.09375 39.863281 52.890625 39.863281 52.886719 40 C 52.886719 40.136719 53.09375 40.136719 53.09375 40.136719 L 64 40.546875 "/>
<path style="fill:none;stroke-width:0.149559;stroke-linecap:butt;stroke-linejoin:miter;stroke:rgb(52.156067%,20.391846%,3.921509%);stroke-opacity:1;stroke-miterlimit:4;" d="M 60.476562 38.96875 C 59.105469 38.339844 57.980469 38.878906 56.785156 38.253906 C 55.585938 37.625 54.597656 38.019531 54.050781 37.976562 C 53.5 37.933594 53.347656 37.484375 53.21875 37.597656 C 53.089844 37.710938 53.34375 38.179688 54.074219 38.363281 C 54.804688 38.546875 55.226562 38.109375 56.695312 38.863281 C 58.164062 39.617188 58.828125 39.015625 60.136719 39.773438 "/>
<path style=" stroke:none;fill-rule:evenodd;fill:rgb(96.469116%,70.587158%,5.490112%);fill-opacity:1;" d="M 64.210938 39.496094 L 53.976562 35.699219 C 53.976562 35.699219 53.785156 35.621094 53.734375 35.746094 C 53.683594 35.875 53.871094 35.953125 53.871094 35.953125 L 63.789062 40.503906 Z M 61.140625 37.699219 C 60.109375 36.59375 58.867188 36.664062 58 35.625 C 57.136719 34.585938 56.074219 34.570312 55.582031 34.320312 C 55.089844 34.074219 55.121094 33.597656 54.960938 33.65625 C 54.796875 33.710938 54.851562 34.242188 55.457031 34.691406 C 56.058594 35.140625 56.617188 34.898438 57.6875 36.152344 C 58.753906 37.410156 59.597656 37.113281 60.519531 38.3125 Z M 61.140625 37.699219 "/>
<path style="fill:none;stroke-width:1;stroke-linecap:butt;stroke-linejoin:miter;stroke:rgb(52.156067%,20.391846%,3.921509%);stroke-opacity:1;stroke-miterlimit:4;" d="M 64.210938 39.496094 L 53.976562 35.699219 C 53.976562 35.699219 53.785156 35.621094 53.734375 35.746094 C 53.683594 35.875 53.871094 35.953125 53.871094 35.953125 L 63.789062 40.503906 "/>
<path style="fill:none;stroke-width:1;stroke-linecap:butt;stroke-linejoin:miter;stroke:rgb(52.156067%,20.391846%,3.921509%);stroke-opacity:1;stroke-miterlimit:4;" d="M 61.140625 37.699219 C 60.109375 36.59375 58.867188 36.664062 58 35.625 C 57.136719 34.585938 56.074219 34.570312 55.582031 34.320312 C 55.089844 34.074219 55.121094 33.597656 54.960938 33.65625 C 54.796875 33.710938 54.851562 34.242188 55.457031 34.691406 C 56.058594 35.140625 56.617188 34.898438 57.6875 36.152344 C 58.753906 37.410156 59.597656 37.113281 60.519531 38.3125 "/>
<path style=" stroke:none;fill-rule:evenodd;fill:rgb(96.469116%,70.587158%,5.490112%);fill-opacity:1;" d="M 64.386719 39.613281 L 56.386719 32.191406 C 56.386719 32.191406 56.238281 32.046875 56.144531 32.144531 C 56.046875 32.238281 56.191406 32.382812 56.191406 32.382812 L 63.613281 40.386719 Z M 62.238281 36.78125 C 61.710938 35.363281 60.535156 34.953125 60.132812 33.664062 C 59.730469 32.371094 58.753906 31.949219 58.394531 31.53125 C 58.035156 31.113281 58.246094 30.6875 58.074219 30.679688 C 57.90625 30.667969 57.75 31.179688 58.136719 31.824219 C 58.523438 32.472656 59.132812 32.460938 59.636719 34.03125 C 60.144531 35.601562 61.035156 35.648438 61.429688 37.109375 Z M 62.238281 36.78125 "/>
<path style="fill:none;stroke-width:0.149559;stroke-linecap:butt;stroke-linejoin:miter;stroke:rgb(52.156067%,20.391846%,3.921509%);stroke-opacity:1;stroke-miterlimit:4;" d="M 64.386719 39.613281 L 56.386719 32.191406 C 56.386719 32.191406 56.238281 32.046875 56.144531 32.144531 C 56.046875 32.238281 56.191406 32.382812 56.191406 32.382812 L 63.613281 40.386719 "/>
<path style="fill:none;stroke-width:0.149559;stroke-linecap:butt;stroke-linejoin:miter;stroke:rgb(52.156067%,20.391846%,3.921509%);stroke-opacity:1;stroke-miterlimit:4;" d="M 62.238281 36.78125 C 61.710938 35.363281 60.535156 34.953125 60.132812 33.664062 C 59.730469 32.371094 58.753906 31.949219 58.394531 31.53125 C 58.035156 31.113281 58.246094 30.6875 58.074219 30.679688 C 57.90625 30.667969 57.75 31.179688 58.136719 31.824219 C 58.523438 32.472656 59.132812 32.460938 59.636719 34.03125 C 60.144531 35.601562 61.035156 35.648438 61.429688 37.109375 "/>
<path style=" stroke:none;fill-rule:evenodd;fill:rgb(52.156067%,20.391846%,3.921509%);fill-opacity:1;" d="M 60.09375 40.691406 C 58.644531 40.761719 58.003906 41.582031 56.683594 41.421875 C 57.726562 41.777344 58.539062 40.921875 60.078125 40.972656 Z M 63.878906 39.746094 L 57.066406 42.863281 L 64.089844 40.253906 Z M 63.878906 39.746094 "/>
<path style=" stroke:none;fill-rule:evenodd;fill:rgb(52.156067%,20.391846%,3.921509%);fill-opacity:1;" d="M 60.128906 39.140625 C 58.761719 38.65625 57.855469 39.167969 56.695312 38.515625 C 57.527344 39.242188 58.601562 38.761719 60.007812 39.398438 Z M 63.984375 39.722656 L 56.5 39.996094 L 63.988281 40.269531 Z M 63.984375 39.722656 "/>
<path style=" stroke:none;fill-rule:evenodd;fill:rgb(52.156067%,20.391846%,3.921509%);fill-opacity:1;" d="M 60.75 37.726562 C 59.675781 36.753906 58.640625 36.878906 57.820312 35.832031 C 58.308594 36.820312 59.484375 36.789062 60.542969 37.914062 Z M 64.09375 39.738281 L 57.074219 37.125 L 63.886719 40.242188 Z M 64.09375 39.738281 "/>
<path style=" stroke:none;fill-rule:evenodd;fill:rgb(52.156067%,20.391846%,3.921509%);fill-opacity:1;" d="M 61.867188 36.65625 C 61.246094 35.34375 60.242188 35.066406 59.886719 33.785156 C 59.957031 34.886719 61.058594 35.304688 61.601562 36.75 Z M 64.1875 39.792969 L 58.699219 34.691406 L 63.800781 40.179688 Z M 64.1875 39.792969 "/>
<path style=" stroke:none;fill-rule:evenodd;fill:rgb(96.469116%,70.587158%,5.490112%);fill-opacity:1;" d="M 64.503906 39.789062 L 59.953125 29.871094 C 59.953125 29.871094 59.875 29.683594 59.75 29.734375 C 59.621094 29.785156 59.699219 29.976562 59.699219 29.976562 L 63.496094 40.210938 Z M 63.605469 36.351562 C 63.660156 34.839844 62.730469 34.011719 62.851562 32.664062 C 62.972656 31.316406 62.234375 30.554688 62.0625 30.03125 C 61.890625 29.507812 62.246094 29.195312 62.09375 29.121094 C 61.941406 29.046875 61.601562 29.460938 61.710938 30.203125 C 61.824219 30.949219 62.386719 31.171875 62.253906 32.816406 C 62.121094 34.460938 62.929688 34.84375 62.730469 36.34375 Z M 63.605469 36.351562 "/>
<path style="fill:none;stroke-width:0.177856;stroke-linecap:butt;stroke-linejoin:miter;stroke:rgb(52.156067%,20.391846%,3.921509%);stroke-opacity:1;stroke-miterlimit:4;" d="M 64.503906 39.789062 L 59.953125 29.871094 C 59.953125 29.871094 59.875 29.683594 59.75 29.734375 C 59.621094 29.785156 59.699219 29.976562 59.699219 29.976562 L 63.496094 40.210938 "/>
<path style="fill:none;stroke-width:0.177856;stroke-linecap:butt;stroke-linejoin:miter;stroke:rgb(52.156067%,20.391846%,3.921509%);stroke-opacity:1;stroke-miterlimit:4;" d="M 63.605469 36.351562 C 63.660156 34.839844 62.730469 34.011719 62.851562 32.664062 C 62.972656 31.316406 62.234375 30.554688 62.0625 30.03125 C 61.890625 29.507812 62.246094 29.195312 62.09375 29.121094 C 61.941406 29.046875 61.601562 29.460938 61.710938 30.203125 C 61.824219 30.949219 62.386719 31.171875 62.253906 32.816406 C 62.121094 34.460938 62.929688 34.84375 62.730469 36.34375 "/>
<path style=" stroke:none;fill-rule:evenodd;fill:rgb(96.469116%,70.587158%,5.490112%);fill-opacity:1;" d="M 64.546875 40 L 64.136719 29.09375 C 64.136719 29.09375 64.136719 28.890625 64 28.886719 C 63.863281 28.886719 63.863281 29.09375 63.863281 29.09375 L 63.453125 40 Z M 65.03125 36.476562 C 65.660156 35.105469 65.121094 33.980469 65.746094 32.785156 C 66.375 31.585938 65.980469 30.597656 66.023438 30.050781 C 66.066406 29.5 66.515625 29.347656 66.402344 29.21875 C 66.289062 29.089844 65.820312 29.34375 65.636719 30.074219 C 65.453125 30.804688 65.890625 31.226562 65.136719 32.695312 C 64.382812 34.164062 64.984375 34.828125 64.226562 36.136719 Z M 65.03125 36.476562 "/>
<path style="fill:none;stroke-width:0.149559;stroke-linecap:butt;stroke-linejoin:miter;stroke:rgb(52.156067%,20.391846%,3.921509%);stroke-opacity:1;stroke-miterlimit:4;" d="M 64.546875 40 L 64.136719 29.09375 C 64.136719 29.09375 64.136719 28.890625 64 28.886719 C 63.863281 28.886719 63.863281 29.09375 63.863281 29.09375 L 63.453125 40 "/>
<path style="fill:none;stroke-width:0.149559;stroke-linecap:butt;stroke-linejoin:miter;stroke:rgb(52.156067%,20.391846%,3.921509%);stroke-opacity:1;stroke-miterlimit:4;" d="M 65.03125 36.476562 C 65.660156 35.105469 65.121094 33.980469 65.746094 32.785156 C 66.375 31.585938 65.980469 30.597656 66.023438 30.050781 C 66.066406 29.5 66.515625 29.347656 66.402344 29.21875 C 66.289062 29.089844 65.820312 29.34375 65.636719 30.074219 C 65.453125 30.804688 65.890625 31.226562 65.136719 32.695312 C 64.382812 34.164062 64.984375 34.828125 64.226562 36.136719 "/>
<path style=" stroke:none;fill-rule:evenodd;fill:rgb(96.469116%,70.587158%,5.490112%);fill-opacity:1;" d="M 64.503906 40.210938 L 68.300781 29.976562 C 68.300781 29.976562 68.378906 29.785156 68.253906 29.734375 C 68.125 29.683594 68.046875 29.871094 68.046875 29.871094 L 63.496094 39.789062 Z M 66.300781 37.140625 C 67.40625 36.109375 67.335938 34.867188 68.375 34 C 69.414062 33.136719 69.429688 32.074219 69.679688 31.582031 C 69.925781 31.089844 70.402344 31.121094 70.34375 30.960938 C 70.289062 30.796875 69.757812 30.851562 69.308594 31.457031 C 68.859375 32.058594 69.101562 32.617188 67.847656 33.6875 C 66.589844 34.753906 66.886719 35.597656 65.6875 36.519531 Z M 66.300781 37.140625 "/>
<path style="fill:none;stroke-width:1;stroke-linecap:butt;stroke-linejoin:miter;stroke:rgb(52.156067%,20.391846%,3.921509%);stroke-opacity:1;stroke-miterlimit:4;" d="M 64.503906 40.210938 L 68.300781 29.976562 C 68.300781 29.976562 68.378906 29.785156 68.253906 29.734375 C 68.125 29.683594 68.046875 29.871094 68.046875 29.871094 L 63.496094 39.789062 "/>
<path style="fill:none;stroke-width:1;stroke-linecap:butt;stroke-linejoin:miter;stroke:rgb(52.156067%,20.391846%,3.921509%);stroke-opacity:1;stroke-miterlimit:4;" d="M 66.300781 37.140625 C 67.40625 36.109375 67.335938 34.867188 68.375 34 C 69.414062 33.136719 69.429688 32.074219 69.679688 31.582031 C 69.925781 31.089844 70.402344 31.121094 70.34375 30.960938 C 70.289062 30.796875 69.757812 30.851562 69.308594 31.457031 C 68.859375 32.058594 69.101562 32.617188 67.847656 33.6875 C 66.589844 34.753906 66.886719 35.597656 65.6875 36.519531 "/>
<path style=" stroke:none;fill-rule:evenodd;fill:rgb(96.469116%,70.587158%,5.490112%);fill-opacity:1;" d="M 64.386719 40.386719 L 71.808594 32.386719 C 71.808594 32.386719 71.953125 32.238281 71.855469 32.144531 C 71.761719 32.046875 71.617188 32.191406 71.617188 32.191406 L 63.613281 39.613281 Z M 67.21875 38.238281 C 68.636719 37.710938 69.046875 36.535156 70.335938 36.132812 C 71.628906 35.730469 72.050781 34.753906 72.46875 34.394531 C 72.886719 34.035156 73.3125 34.246094 73.320312 34.074219 C 73.332031 33.90625 72.820312 33.75 72.175781 34.136719 C 71.527344 34.523438 71.539062 35.132812 69.96875 35.636719 C 68.398438 36.144531 68.351562 37.035156 66.890625 37.429688 Z M 67.21875 38.238281 "/>
<path style="fill:none;stroke-width:0.149559;stroke-linecap:butt;stroke-linejoin:miter;stroke:rgb(52.156067%,20.391846%,3.921509%);stroke-opacity:1;stroke-miterlimit:4;" d="M 64.386719 40.386719 L 71.808594 32.386719 C 71.808594 32.386719 71.953125 32.238281 71.855469 32.144531 C 71.761719 32.046875 71.617188 32.191406 71.617188 32.191406 L 63.613281 39.613281 "/>
<path style="fill:none;stroke-width:0.149559;stroke-linecap:butt;stroke-linejoin:miter;stroke:rgb(52.156067%,20.391846%,3.921509%);stroke-opacity:1;stroke-miterlimit:4;" d="M 67.21875 38.238281 C 68.636719 37.710938 69.046875 36.535156 70.335938 36.132812 C 71.628906 35.730469 72.050781 34.753906 72.46875 34.394531 C 72.886719 34.035156 73.3125 34.246094 73.320312 34.074219 C 73.332031 33.90625 72.820312 33.75 72.175781 34.136719 C 71.527344 34.523438 71.539062 35.132812 69.96875 35.636719 C 68.398438 36.144531 68.351562 37.035156 66.890625 37.429688 "/>
<path style=" stroke:none;fill-rule:evenodd;fill:rgb(52.156067%,20.391846%,3.921509%);fill-opacity:1;" d="M 63.308594 36.09375 C 63.238281 34.644531 62.417969 34.003906 62.578125 32.683594 C 62.222656 33.726562 63.078125 34.539062 63.027344 36.078125 Z M 64.253906 39.878906 L 61.136719 33.066406 L 63.746094 40.089844 Z M 64.253906 39.878906 "/>
<path style=" stroke:none;fill-rule:evenodd;fill:rgb(52.156067%,20.391846%,3.921509%);fill-opacity:1;" d="M 64.859375 36.128906 C 65.34375 34.761719 64.832031 33.855469 65.484375 32.695312 C 64.757812 33.527344 65.238281 34.601562 64.601562 36.007812 Z M 64.277344 39.984375 L 64.003906 32.5 L 63.730469 39.988281 Z M 64.277344 39.984375 "/>
<path style=" stroke:none;fill-rule:evenodd;fill:rgb(52.156067%,20.391846%,3.921509%);fill-opacity:1;" d="M 66.273438 36.75 C 67.246094 35.675781 67.121094 34.640625 68.167969 33.820312 C 67.179688 34.308594 67.210938 35.484375 66.085938 36.542969 Z M 64.261719 40.09375 L 66.875 33.074219 L 63.757812 39.886719 Z M 64.261719 40.09375 "/>
<path style=" stroke:none;fill-rule:evenodd;fill:rgb(52.156067%,20.391846%,3.921509%);fill-opacity:1;" d="M 67.34375 37.867188 C 68.65625 37.246094 68.933594 36.242188 70.214844 35.886719 C 69.113281 35.957031 68.695312 37.058594 67.25 37.601562 Z M 64.207031 40.1875 L 69.308594 34.699219 L 63.820312 39.800781 Z M 64.207031 40.1875 "/>
<path style=" stroke:none;fill-rule:evenodd;fill:rgb(96.469116%,70.587158%,5.490112%);fill-opacity:1;" d="M 64.210938 40.503906 L 74.128906 35.953125 C 74.128906 35.953125 74.316406 35.875 74.265625 35.75 C 74.214844 35.621094 74.023438 35.699219 74.023438 35.699219 L 63.789062 39.496094 Z M 67.648438 39.605469 C 69.160156 39.660156 69.988281 38.730469 71.335938 38.851562 C 72.683594 38.972656 73.445312 38.234375 73.96875 38.0625 C 74.492188 37.890625 74.804688 38.246094 74.878906 38.09375 C 74.953125 37.941406 74.539062 37.601562 73.796875 37.710938 C 73.050781 37.824219 72.828125 38.386719 71.183594 38.253906 C 69.539062 38.121094 69.15625 38.929688 67.65625 38.730469 Z M 67.648438 39.605469 "/>
<path style="fill:none;stroke-width:0.177856;stroke-linecap:butt;stroke-linejoin:miter;stroke:rgb(52.156067%,20.391846%,3.921509%);stroke-opacity:1;stroke-miterlimit:4;" d="M 64.210938 40.503906 L 74.128906 35.953125 C 74.128906 35.953125 74.316406 35.875 74.265625 35.75 C 74.214844 35.621094 74.023438 35.699219 74.023438 35.699219 L 63.789062 39.496094 "/>
<path style="fill:none;stroke-width:0.177856;stroke-linecap:butt;stroke-linejoin:miter;stroke:rgb(52.156067%,20.391846%,3.921509%);stroke-opacity:1;stroke-miterlimit:4;" d="M 67.648438 39.605469 C 69.160156 39.660156 69.988281 38.730469 71.335938 38.851562 C 72.683594 38.972656 73.445312 38.234375 73.96875 38.0625 C 74.492188 37.890625 74.804688 38.246094 74.878906 38.09375 C 74.953125 37.941406 74.539062 37.601562 73.796875 37.710938 C 73.050781 37.824219 72.828125 38.386719 71.183594 38.253906 C 69.539062 38.121094 69.15625 38.929688 67.65625 38.730469 "/>
<path style=" stroke:none;fill-rule:evenodd;fill:rgb(96.469116%,70.587158%,5.490112%);fill-opacity:1;" d="M 64 40.546875 L 74.90625 40.136719 C 74.90625 40.136719 75.109375 40.136719 75.113281 40 C 75.113281 39.863281 74.90625 39.863281 74.90625 39.863281 L 64 39.453125 Z M 67.523438 41.03125 C 68.894531 41.660156 70.019531 41.121094 71.214844 41.746094 C 72.414062 42.375 73.402344 41.980469 73.949219 42.023438 C 74.5 42.066406 74.652344 42.515625 74.78125 42.402344 C 74.910156 42.289062 74.65625 41.820312 73.925781 41.636719 C 73.195312 41.453125 72.773438 41.890625 71.304688 41.136719 C 69.835938 40.382812 69.171875 40.984375 67.863281 40.226562 Z M 67.523438 41.03125 "/>
<path style="fill:none;stroke-width:0.149559;stroke-linecap:butt;stroke-linejoin:miter;stroke:rgb(52.156067%,20.391846%,3.921509%);stroke-opacity:1;stroke-miterlimit:4;" d="M 64 40.546875 L 74.90625 40.136719 C 74.90625 40.136719 75.109375 40.136719 75.113281 40 C 75.113281 39.863281 74.90625 39.863281 74.90625 39.863281 L 64 39.453125 "/>
<path style="fill:none;stroke-width:0.149559;stroke-linecap:butt;stroke-linejoin:miter;stroke:rgb(52.156067%,20.391846%,3.921509%);stroke-opacity:1;stroke-miterlimit:4;" d="M 67.523438 41.03125 C 68.894531 41.660156 70.019531 41.121094 71.214844 41.746094 C 72.414062 42.375 73.402344 41.980469 73.949219 42.023438 C 74.5 42.066406 74.652344 42.515625 74.78125 42.402344 C 74.910156 42.289062 74.65625 41.820312 73.925781 41.636719 C 73.195312 41.453125 72.773438 41.890625 71.304688 41.136719 C 69.835938 40.382812 69.171875 40.984375 67.863281 40.226562 "/>
<path style=" stroke:none;fill-rule:evenodd;fill:rgb(96.469116%,70.587158%,5.490112%);fill-opacity:1;" d="M 63.789062 40.503906 L 74.023438 44.300781 C 74.023438 44.300781 74.214844 44.378906 74.265625 44.253906 C 74.316406 44.125 74.128906 44.046875 74.128906 44.046875 L 64.210938 39.496094 Z M 66.859375 42.300781 C 67.890625 43.40625 69.132812 43.335938 70 44.375 C 70.863281 45.414062 71.925781 45.429688 72.417969 45.679688 C 72.910156 45.925781 72.878906 46.402344 73.039062 46.34375 C 73.203125 46.289062 73.148438 45.757812 72.542969 45.308594 C 71.941406 44.859375 71.382812 45.101562 70.3125 43.847656 C 69.246094 42.589844 68.402344 42.886719 67.480469 41.6875 Z M 66.859375 42.300781 "/>
<path style="fill:none;stroke-width:1;stroke-linecap:butt;stroke-linejoin:miter;stroke:rgb(52.156067%,20.391846%,3.921509%);stroke-opacity:1;stroke-miterlimit:4;" d="M 63.789062 40.503906 L 74.023438 44.300781 C 74.023438 44.300781 74.214844 44.378906 74.265625 44.253906 C 74.316406 44.125 74.128906 44.046875 74.128906 44.046875 L 64.210938 39.496094 "/>
<path style="fill:none;stroke-width:1;stroke-linecap:butt;stroke-linejoin:miter;stroke:rgb(52.156067%,20.391846%,3.921509%);stroke-opacity:1;stroke-miterlimit:4;" d="M 66.859375 42.300781 C 67.890625 43.40625 69.132812 43.335938 70 44.375 C 70.863281 45.414062 71.925781 45.429688 72.417969 45.679688 C 72.910156 45.925781 72.878906 46.402344 73.039062 46.34375 C 73.203125 46.289062 73.148438 45.757812 72.542969 45.308594 C 71.941406 44.859375 71.382812 45.101562 70.3125 43.847656 C 69.246094 42.589844 68.402344 42.886719 67.480469 41.6875 "/>
<path style=" stroke:none;fill-rule:evenodd;fill:rgb(96.469116%,70.587158%,5.490112%);fill-opacity:1;" d="M 63.613281 40.386719 L 71.613281 47.808594 C 71.613281 47.808594 71.761719 47.953125 71.855469 47.855469 C 71.953125 47.761719 71.808594 47.617188 71.808594 47.617188 L 64.386719 39.613281 Z M 65.761719 43.21875 C 66.289062 44.636719 67.464844 45.046875 67.867188 46.335938 C 68.269531 47.628906 69.246094 48.050781 69.605469 48.46875 C 69.964844 48.886719 69.753906 49.3125 69.925781 49.320312 C 70.09375 49.332031 70.25 48.820312 69.863281 48.175781 C 69.476562 47.527344 68.867188 47.539062 68.363281 45.96875 C 67.855469 44.398438 66.964844 44.351562 66.570312 42.890625 Z M 65.761719 43.21875 "/>
<path style="fill:none;stroke-width:0.149559;stroke-linecap:butt;stroke-linejoin:miter;stroke:rgb(52.156067%,20.391846%,3.921509%);stroke-opacity:1;stroke-miterlimit:4;" d="M 63.613281 40.386719 L 71.613281 47.808594 C 71.613281 47.808594 71.761719 47.953125 71.855469 47.855469 C 71.953125 47.761719 71.808594 47.617188 71.808594 47.617188 L 64.386719 39.613281 "/>
<path style="fill:none;stroke-width:0.149559;stroke-linecap:butt;stroke-linejoin:miter;stroke:rgb(52.156067%,20.391846%,3.921509%);stroke-opacity:1;stroke-miterlimit:4;" d="M 65.761719 43.21875 C 66.289062 44.636719 67.464844 45.046875 67.867188 46.335938 C 68.269531 47.628906 69.246094 48.050781 69.605469 48.46875 C 69.964844 48.886719 69.753906 49.3125 69.925781 49.320312 C 70.09375 49.332031 70.25 48.820312 69.863281 48.175781 C 69.476562 47.527344 68.867188 47.539062 68.363281 45.96875 C 67.855469 44.398438 66.964844 44.351562 66.570312 42.890625 "/>
<path style=" stroke:none;fill-rule:evenodd;fill:rgb(52.156067%,20.391846%,3.921509%);fill-opacity:1;" d="M 67.90625 39.308594 C 69.355469 39.238281 69.996094 38.417969 71.316406 38.578125 C 70.273438 38.222656 69.460938 39.078125 67.921875 39.027344 Z M 64.121094 40.253906 L 70.933594 37.136719 L 63.910156 39.746094 Z M 64.121094 40.253906 "/>
<path style=" stroke:none;fill-rule:evenodd;fill:rgb(52.156067%,20.391846%,3.921509%);fill-opacity:1;" d="M 67.871094 40.859375 C 69.238281 41.34375 70.144531 40.832031 71.304688 41.484375 C 70.472656 40.757812 69.398438 41.238281 67.992188 40.601562 Z M 64.015625 40.277344 L 71.5 40.003906 L 64.011719 39.730469 Z M 64.015625 40.277344 "/>
<path style=" stroke:none;fill-rule:evenodd;fill:rgb(52.156067%,20.391846%,3.921509%);fill-opacity:1;" d="M 67.25 42.273438 C 68.324219 43.246094 69.359375 43.121094 70.179688 44.167969 C 69.691406 43.179688 68.515625 43.210938 67.457031 42.085938 Z M 63.90625 40.261719 L 70.925781 42.875 L 64.113281 39.757812 Z M 63.90625 40.261719 "/>
<path style=" stroke:none;fill-rule:evenodd;fill:rgb(52.156067%,20.391846%,3.921509%);fill-opacity:1;" d="M 66.132812 43.34375 C 66.753906 44.65625 67.757812 44.933594 68.113281 46.214844 C 68.042969 45.113281 66.941406 44.695312 66.398438 43.25 Z M 63.8125 40.207031 L 69.300781 45.308594 L 64.199219 39.820312 Z M 63.8125 40.207031 "/>
<path style="fill-rule:evenodd;fill:rgb(96.469116%,70.587158%,5.490112%);fill-opacity:1;stroke-width:0.24;stroke-linecap:butt;stroke-linejoin:miter;stroke:rgb(52.156067%,20.391846%,3.921509%);stroke-opacity:1;stroke-miterlimit:4;" d="M 68.445312 40 C 68.445312 42.453125 66.453125 44.445312 64 44.445312 C 61.546875 44.445312 59.554688 42.453125 59.554688 40 C 59.554688 37.546875 61.546875 35.554688 64 35.554688 C 66.453125 35.554688 68.445312 37.546875 68.445312 40 Z M 68.445312 40 "/>
<path style=" stroke:none;fill-rule:evenodd;fill:rgb(51.763916%,20.783997%,6.666565%);fill-opacity:1;" d="M 65.515625 39.050781 C 65.210938 39.050781 64.921875 39.179688 64.75 39.453125 C 65.09375 39.761719 65.847656 39.796875 66.359375 39.417969 C 66.136719 39.179688 65.820312 39.050781 65.515625 39.050781 Z M 65.511719 39.121094 C 65.804688 39.113281 66.082031 39.25 66.121094 39.382812 C 65.777344 39.761719 65.230469 39.726562 64.890625 39.453125 C 65.039062 39.214844 65.28125 39.125 65.511719 39.121094 Z M 65.511719 39.121094 "/>
<path style=" stroke:none;fill-rule:evenodd;fill:rgb(52.156067%,20.391846%,3.921509%);fill-opacity:1;" d="M 65.574219 38.839844 C 65.128906 38.839844 65.027344 38.941406 64.820312 39.113281 C 64.617188 39.28125 64.511719 39.25 64.480469 39.28125 C 64.445312 39.316406 64.480469 39.417969 64.546875 39.386719 C 64.617188 39.351562 64.753906 39.28125 64.957031 39.113281 C 65.164062 38.941406 65.367188 38.941406 65.574219 38.941406 C 66.1875 38.941406 66.53125 39.453125 66.597656 39.417969 C 66.667969 39.386719 66.257812 38.839844 65.574219 38.839844 Z M 65.574219 38.839844 "/>
<path style=" stroke:none;fill-rule:evenodd;fill:rgb(52.156067%,20.391846%,3.921509%);fill-opacity:1;" d="M 66.804688 39.042969 C 66.015625 38.359375 65.027344 38.257812 64.476562 38.769531 C 64.34375 38.949219 64.257812 39.140625 64.222656 39.339844 C 64.15625 39.730469 64.277344 40.152344 64.582031 40.582031 C 64.546875 40.582031 64.476562 40.617188 64.445312 40.648438 C 64.171875 40.132812 64.078125 39.597656 64.164062 39.089844 C 64.1875 38.957031 64.226562 38.828125 64.273438 38.703125 C 65.023438 38.085938 66.050781 38.015625 66.804688 39.042969 Z M 66.804688 39.042969 "/>
<path style=" stroke:none;fill-rule:evenodd;fill:rgb(52.156067%,20.391846%,3.921509%);fill-opacity:1;" d="M 65.8125 39.382812 C 65.8125 39.554688 65.675781 39.691406 65.503906 39.691406 C 65.335938 39.691406 65.195312 39.554688 65.195312 39.382812 C 65.195312 39.214844 65.335938 39.078125 65.503906 39.078125 C 65.675781 39.078125 65.8125 39.214844 65.8125 39.382812 Z M 65.8125 39.382812 "/>
<path style=" stroke:none;fill-rule:evenodd;fill:rgb(52.156067%,20.391846%,3.921509%);fill-opacity:1;" d="M 66.394531 39.589844 C 65.8125 40.035156 65.230469 40 64.890625 39.796875 C 64.546875 39.589844 64.546875 39.523438 64.617188 39.523438 C 64.683594 39.523438 64.753906 39.589844 65.027344 39.726562 C 65.300781 39.863281 65.710938 39.863281 66.394531 39.589844 Z M 66.394531 39.589844 "/>
<path style=" stroke:none;fill-rule:evenodd;fill:rgb(52.156067%,20.391846%,3.921509%);fill-opacity:1;" d="M 63.320312 40.613281 C 63.175781 40.640625 63.070312 40.769531 63.070312 40.917969 C 63.070312 41.089844 63.210938 41.222656 63.378906 41.222656 C 63.480469 41.222656 63.574219 41.175781 63.628906 41.09375 C 63.75 41.183594 63.914062 41.191406 64 41.195312 C 64.011719 41.195312 64.03125 41.195312 64.039062 41.195312 C 64.128906 41.191406 64.292969 41.183594 64.410156 41.09375 C 64.46875 41.175781 64.558594 41.222656 64.660156 41.222656 C 64.828125 41.222656 64.96875 41.089844 64.96875 40.917969 C 64.96875 40.769531 64.867188 40.640625 64.71875 40.613281 C 64.800781 40.644531 64.855469 40.722656 64.855469 40.808594 C 64.855469 40.921875 64.761719 41.015625 64.648438 41.015625 C 64.542969 41.015625 64.453125 40.929688 64.445312 40.820312 C 64.410156 40.886719 64.28125 41.085938 64.019531 41.09375 C 63.761719 41.085938 63.628906 40.886719 63.59375 40.820312 C 63.589844 40.929688 63.5 41.015625 63.390625 41.015625 C 63.277344 41.015625 63.183594 40.921875 63.183594 40.808594 C 63.183594 40.722656 63.238281 40.644531 63.320312 40.613281 Z M 63.320312 40.613281 "/>
<path style=" stroke:none;fill-rule:evenodd;fill:rgb(52.156067%,20.391846%,3.921509%);fill-opacity:1;" d="M 63.65625 41.523438 C 63.3125 41.523438 63.175781 41.835938 62.871094 42.039062 C 63.039062 41.972656 63.175781 41.835938 63.414062 41.699219 C 63.652344 41.5625 63.859375 41.730469 63.996094 41.730469 L 64 41.730469 C 64.136719 41.730469 64.339844 41.5625 64.578125 41.699219 C 64.820312 41.835938 64.957031 41.972656 65.128906 42.039062 C 64.820312 41.835938 64.679688 41.523438 64.339844 41.523438 C 64.269531 41.523438 64.136719 41.5625 64 41.628906 L 63.996094 41.628906 C 63.859375 41.5625 63.722656 41.523438 63.65625 41.523438 Z M 63.65625 41.523438 "/>
<path style=" stroke:none;fill-rule:evenodd;fill:rgb(52.156067%,20.391846%,3.921509%);fill-opacity:1;" d="M 63.539062 41.929688 C 63.402344 41.9375 63.226562 41.960938 62.96875 42.039062 C 63.585938 41.902344 63.71875 42.109375 63.996094 42.109375 L 64 42.109375 C 64.273438 42.109375 64.410156 41.902344 65.023438 42.039062 C 64.339844 41.835938 64.203125 41.96875 64 41.96875 L 63.996094 41.96875 C 63.867188 41.96875 63.765625 41.917969 63.539062 41.929688 Z M 63.539062 41.929688 "/>
<path style=" stroke:none;fill-rule:evenodd;fill:rgb(52.156067%,20.391846%,3.921509%);fill-opacity:1;" d="M 63 42.035156 C 62.960938 42.035156 62.917969 42.035156 62.871094 42.039062 C 63.589844 42.109375 63.242188 42.519531 63.996094 42.519531 L 64 42.519531 C 64.753906 42.519531 64.410156 42.109375 65.128906 42.039062 C 64.378906 41.972656 64.617188 42.414062 64 42.414062 L 63.996094 42.414062 C 63.417969 42.414062 63.59375 42.027344 63 42.035156 Z M 63 42.035156 "/>
<path style=" stroke:none;fill-rule:evenodd;fill:rgb(52.156067%,20.391846%,3.921509%);fill-opacity:1;" d="M 64.617188 43.144531 C 64.617188 42.804688 64.339844 42.53125 64 42.53125 C 63.660156 42.53125 63.386719 42.804688 63.386719 43.144531 C 63.453125 42.859375 63.707031 42.660156 64 42.660156 C 64.292969 42.660156 64.546875 42.859375 64.617188 43.144531 Z M 64.617188 43.144531 "/>
<path style=" stroke:none;fill-rule:evenodd;fill:rgb(52.156067%,20.391846%,3.921509%);fill-opacity:1;" d="M 61.238281 39.042969 C 62.023438 38.359375 63.015625 38.257812 63.5625 38.769531 C 63.695312 38.949219 63.78125 39.140625 63.816406 39.339844 C 63.886719 39.730469 63.765625 40.152344 63.457031 40.582031 C 63.492188 40.582031 63.5625 40.617188 63.597656 40.648438 C 63.867188 40.132812 63.964844 39.597656 63.875 39.089844 C 63.851562 38.957031 63.8125 38.828125 63.765625 38.703125 C 63.015625 38.085938 61.988281 38.015625 61.238281 39.042969 Z M 61.238281 39.042969 "/>
<path style=" stroke:none;fill-rule:evenodd;fill:rgb(52.156067%,20.391846%,3.921509%);fill-opacity:1;" d="M 62.46875 38.839844 C 62.910156 38.839844 63.015625 38.941406 63.21875 39.113281 C 63.425781 39.28125 63.527344 39.25 63.5625 39.28125 C 63.59375 39.316406 63.5625 39.417969 63.492188 39.386719 C 63.425781 39.351562 63.289062 39.28125 63.082031 39.113281 C 62.878906 38.941406 62.671875 38.941406 62.46875 38.941406 C 61.851562 38.941406 61.511719 39.453125 61.441406 39.417969 C 61.375 39.386719 61.785156 38.839844 62.46875 38.839844 Z M 62.46875 38.839844 "/>
<path style=" stroke:none;fill-rule:evenodd;fill:rgb(51.763916%,20.783997%,6.666565%);fill-opacity:1;" d="M 62.445312 39.050781 C 62.144531 39.050781 61.851562 39.179688 61.679688 39.453125 C 62.023438 39.761719 62.777344 39.796875 63.292969 39.417969 C 63.070312 39.179688 62.75 39.050781 62.445312 39.050781 Z M 62.441406 39.121094 C 62.738281 39.113281 63.011719 39.25 63.050781 39.382812 C 62.710938 39.761719 62.164062 39.726562 61.820312 39.453125 C 61.972656 39.214844 62.210938 39.125 62.441406 39.121094 Z M 62.441406 39.121094 "/>
<path style=" stroke:none;fill-rule:evenodd;fill:rgb(52.156067%,20.391846%,3.921509%);fill-opacity:1;" d="M 62.792969 39.382812 C 62.792969 39.554688 62.65625 39.691406 62.488281 39.691406 C 62.316406 39.691406 62.179688 39.554688 62.179688 39.382812 C 62.179688 39.214844 62.316406 39.078125 62.488281 39.078125 C 62.65625 39.078125 62.792969 39.214844 62.792969 39.382812 Z M 62.792969 39.382812 "/>
<path style=" stroke:none;fill-rule:evenodd;fill:rgb(52.156067%,20.391846%,3.921509%);fill-opacity:1;" d="M 61.644531 39.589844 C 62.226562 40.035156 62.808594 40 63.152344 39.796875 C 63.492188 39.589844 63.492188 39.523438 63.425781 39.523438 C 63.355469 39.523438 63.289062 39.589844 63.015625 39.726562 C 62.742188 39.863281 62.332031 39.863281 61.648438 39.589844 Z M 61.644531 39.589844 "/>
</g>
</svg>
