<?xml version="1.0" encoding="UTF-8"?>
<svg xmlns="http://www.w3.org/2000/svg" xmlns:xlink="http://www.w3.org/1999/xlink" width="127pt" height="85pt" viewBox="0 0 127 85" version="1.1">
<g id="surface71">
<path style=" stroke:none;fill-rule:evenodd;fill:rgb(25.489807%,53.72467%,86.665344%);fill-opacity:1;" d="M 0 0.351562 L 126.972656 0.351562 L 126.972656 85 L 0 85 Z M 0 0.351562 "/>
<path style=" stroke:none;fill-rule:evenodd;fill:rgb(97.645569%,83.920288%,8.627319%);fill-opacity:1;" d="M 0 66.191406 L 126.972656 66.191406 L 126.972656 70.890625 L 0 70.890625 Z M 0 66.191406 "/>
<path style=" stroke:none;fill-rule:evenodd;fill:rgb(99.998474%,99.998474%,99.998474%);fill-opacity:1;" d="M 18.828125 33.269531 L 15.222656 22.761719 L 4.703125 19.183594 L 15.214844 15.578125 L 18.789062 5.054688 L 22.394531 15.566406 L 32.917969 19.144531 L 22.40625 22.75 Z M 18.828125 33.269531 "/>
<path style=" stroke:none;fill-rule:evenodd;fill:rgb(82.351685%,6.274414%,20.391846%);fill-opacity:1;" d="M 18.828125 30.921875 L 15.820312 22.160156 L 7.054688 19.179688 L 15.8125 16.175781 L 18.792969 7.40625 L 21.800781 16.167969 L 30.566406 19.148438 L 21.808594 22.152344 Z M 18.828125 30.921875 "/>
<path style=" stroke:none;fill-rule:evenodd;fill:rgb(97.645569%,83.920288%,8.627319%);fill-opacity:1;" d="M 0 56.785156 L 126.972656 56.785156 L 126.972656 61.488281 L 0 61.488281 Z M 0 56.785156 "/>
</g>
</svg>
