<?xml version="1.0" encoding="UTF-8"?>
<svg xmlns="http://www.w3.org/2000/svg" xmlns:xlink="http://www.w3.org/1999/xlink" width="128pt" height="64pt" viewBox="0 0 128 64" version="1.1">
<g id="surface76">
<rect x="0" y="0" width="128" height="64" style="fill:rgb(0%,0%,54.508972%);fill-opacity:1;stroke:none;"/>
<path style=" stroke:none;fill-rule:evenodd;fill:rgb(99.998474%,99.998474%,99.998474%);fill-opacity:1;" d="M 32 38.398438 L 33.851562 44.15625 L 39.503906 42.015625 L 36.160156 47.050781 L 41.359375 50.136719 L 35.335938 50.660156 L 36.164062 56.648438 L 32 52.265625 L 27.835938 56.648438 L 28.664062 50.660156 L 22.640625 50.136719 L 27.839844 47.050781 L 24.496094 42.015625 L 30.148438 44.15625 Z M 32 38.398438 "/>
<path style=" stroke:none;fill-rule:evenodd;fill:rgb(99.998474%,99.998474%,99.998474%);fill-opacity:1;" d="M 96 48.761719 L 96.882812 51.503906 L 99.574219 50.484375 L 97.980469 52.882812 L 100.457031 54.351562 L 97.589844 54.601562 L 97.984375 57.453125 L 96 55.367188 L 94.015625 57.453125 L 94.410156 54.601562 L 91.542969 54.351562 L 94.019531 52.882812 L 92.425781 50.484375 L 95.117188 51.503906 Z M 96 48.761719 "/>
<path style=" stroke:none;fill-rule:evenodd;fill:rgb(99.998474%,99.998474%,99.998474%);fill-opacity:1;" d="M 80 23.429688 L 80.882812 26.167969 L 83.574219 25.148438 L 81.980469 27.546875 L 84.457031 29.015625 L 81.589844 29.265625 L 81.984375 32.117188 L 80 30.03125 L 78.015625 32.117188 L 78.410156 29.265625 L 75.542969 29.015625 L 78.019531 27.546875 L 76.425781 25.148438 L 79.117188 26.167969 Z M 80 23.429688 "/>
<path style=" stroke:none;fill-rule:evenodd;fill:rgb(99.998474%,99.998474%,99.998474%);fill-opacity:1;" d="M 96 6.09375 L 96.882812 8.835938 L 99.574219 7.816406 L 97.980469 10.214844 L 100.457031 11.683594 L 97.589844 11.933594 L 97.984375 14.785156 L 96 12.699219 L 94.015625 14.785156 L 94.410156 11.933594 L 91.542969 11.683594 L 94.019531 10.214844 L 92.425781 7.816406 L 95.117188 8.835938 Z M 96 6.09375 "/>
<path style=" stroke:none;fill-rule:evenodd;fill:rgb(99.998474%,99.998474%,99.998474%);fill-opacity:1;" d="M 110.222656 19.164062 L 111.105469 21.902344 L 113.796875 20.882812 L 112.203125 23.28125 L 114.679688 24.75 L 111.808594 25 L 112.207031 27.851562 L 110.222656 25.765625 L 108.238281 27.851562 L 108.632812 25 L 105.765625 24.75 L 108.242188 23.28125 L 106.648438 20.882812 L 109.339844 21.902344 Z M 110.222656 19.164062 "/>
<path style=" stroke:none;fill-rule:evenodd;fill:rgb(99.998474%,99.998474%,99.998474%);fill-opacity:1;" d="M 102.398438 32 L 103.097656 33.707031 L 104.9375 33.84375 L 103.527344 35.03125 L 103.96875 36.824219 L 102.398438 35.851562 L 100.832031 36.824219 L 101.273438 35.03125 L 99.863281 33.84375 L 101.703125 33.707031 Z M 102.398438 32 "/>
<path style=" stroke:none;fill-rule:evenodd;fill:rgb(99.998474%,99.998474%,99.998474%);fill-opacity:1;" d="M 26.667969 0 L 37.332031 0 L 37.332031 10.667969 L 64 10.667969 L 64 21.332031 L 37.332031 21.332031 L 37.332031 32 L 26.667969 32 L 26.667969 21.332031 L 0 21.332031 L 0 10.667969 L 26.667969 10.667969 Z M 26.667969 0 "/>
<path style=" stroke:none;fill-rule:evenodd;fill:rgb(99.998474%,99.998474%,99.998474%);fill-opacity:1;" d="M 0 0 L 7.15625 0 L 64 28.421875 L 64 32 L 56.84375 32 L 0 3.578125 Z M 0 0 "/>
<path style=" stroke:none;fill-rule:evenodd;fill:rgb(99.998474%,99.998474%,99.998474%);fill-opacity:1;" d="M 64 0 L 56.84375 0 L 0 28.421875 L 0 32 L 7.15625 32 L 64 3.578125 Z M 64 0 "/>
<path style=" stroke:none;fill-rule:evenodd;fill:rgb(99.998474%,0%,0%);fill-opacity:1;" d="M 28.800781 0 L 35.199219 0 L 35.199219 12.800781 L 64 12.800781 L 64 19.199219 L 35.199219 19.199219 L 35.199219 32 L 28.800781 32 L 28.800781 19.199219 L 0 19.199219 L 0 12.800781 L 28.800781 12.800781 Z M 28.800781 0 "/>
<path style=" stroke:none;fill-rule:evenodd;fill:rgb(99.998474%,0%,0%);fill-opacity:1;" d="M 0 0 L 21.332031 10.667969 L 16.5625 10.667969 L 0 2.386719 Z M 64 0 L 59.230469 0 L 37.898438 10.667969 L 42.667969 10.667969 Z M 64 0 "/>
<path style=" stroke:none;fill-rule:evenodd;fill:rgb(99.998474%,0%,0%);fill-opacity:1;" d="M 64 32 L 42.667969 21.332031 L 47.4375 21.332031 L 64 29.613281 Z M 0 32 L 4.769531 32 L 26.101562 21.332031 L 21.332031 21.332031 Z M 0 32 "/>
</g>
</svg>
