<?xml version="1.0" encoding="UTF-8"?>
<svg xmlns="http://www.w3.org/2000/svg" xmlns:xlink="http://www.w3.org/1999/xlink" width="128pt" height="64pt" viewBox="0 0 128 64" version="1.1">
<g id="surface86">
<rect x="0" y="0" width="128" height="64" style="fill:rgb(0%,59.606934%,76.469421%);fill-opacity:1;stroke:none;"/>
<path style=" stroke:none;fill-rule:evenodd;fill:rgb(87.841797%,0%,20.391846%);fill-opacity:1;" d="M 0 21.332031 L 128 21.332031 L 128 42.667969 L 0 42.667969 Z M 0 21.332031 "/>
<path style=" stroke:none;fill-rule:evenodd;fill:rgb(0%,68.234253%,39.607239%);fill-opacity:1;" d="M 0 42.667969 L 128 42.667969 L 128 64 L 0 64 Z M 0 42.667969 "/>
<path style=" stroke:none;fill-rule:evenodd;fill:rgb(99.998474%,99.998474%,99.998474%);fill-opacity:1;" d="M 71.574219 32 C 71.574219 37.300781 67.277344 41.601562 61.972656 41.601562 C 56.671875 41.601562 52.375 37.300781 52.375 32 C 52.375 26.699219 56.671875 22.398438 61.972656 22.398438 C 67.277344 22.398438 71.574219 26.699219 71.574219 32 Z M 71.574219 32 "/>
<path style=" stroke:none;fill-rule:evenodd;fill:rgb(87.841797%,0%,20.391846%);fill-opacity:1;" d="M 72 32 C 72 36.417969 68.417969 40 64 40 C 59.582031 40 56 36.417969 56 32 C 56 27.582031 59.582031 24 64 24 C 68.417969 24 72 27.582031 72 32 Z M 72 32 "/>
<path style=" stroke:none;fill-rule:evenodd;fill:rgb(99.998474%,99.998474%,99.998474%);fill-opacity:1;" d="M 76.414062 35.769531 L 73.660156 34.464844 L 72.644531 37.332031 L 71.621094 34.464844 L 68.871094 35.773438 L 70.175781 33.023438 L 67.308594 32.003906 L 70.175781 30.980469 L 68.867188 28.230469 L 71.617188 29.535156 L 72.636719 26.667969 L 73.660156 29.535156 L 76.410156 28.226562 L 75.101562 30.976562 L 77.972656 31.996094 L 75.105469 33.019531 Z M 76.414062 35.769531 "/>
</g>
</svg>
