<?xml version="1.0" encoding="UTF-8"?>
<svg xmlns="http://www.w3.org/2000/svg" xmlns:xlink="http://www.w3.org/1999/xlink" width="128pt" height="85pt" viewBox="0 0 128 85" version="1.1">
<defs>
<clipPath id="clip1">
  <path d="M 0 0 L 127.679688 0 L 127.679688 85 L 0 85 Z M 0 0 "/>
</clipPath>
</defs>
<g id="surface106">
<g clip-path="url(#clip1)" clip-rule="nonzero">
<path style=" stroke:none;fill-rule:evenodd;fill:rgb(0%,14.901733%,49.803162%);fill-opacity:1;" d="M 0 85 L 0 0 L 127.5 0 L 127.5 85 Z M 0 85 "/>
</g>
<path style=" stroke:none;fill-rule:evenodd;fill:rgb(99.998474%,78.038025%,14.901733%);fill-opacity:1;" d="M 42.5 0 L 85 0 L 85 85 L 42.5 85 Z M 42.5 0 "/>
<path style=" stroke:none;fill-rule:evenodd;fill:rgb(0%,0%,0%);fill-opacity:1;" d="M 63.75 21.910156 C 62.367188 25.675781 60.960938 29.597656 57.949219 32.597656 C 58.882812 32.289062 60.519531 32.011719 61.570312 32.039062 L 61.570312 47.882812 L 57.097656 48.546875 C 56.9375 48.53125 56.886719 48.28125 56.886719 47.941406 C 56.457031 43.019531 55.292969 38.886719 53.953125 34.609375 C 53.859375 34.027344 52.164062 31.796875 53.46875 32.1875 C 53.628906 32.210938 55.378906 32.921875 55.101562 32.582031 C 52.722656 30.117188 49.242188 28.34375 45.863281 27.816406 C 45.566406 27.742188 45.390625 27.890625 45.65625 28.234375 C 50.140625 35.136719 53.890625 43.28125 53.859375 52.945312 C 55.601562 52.945312 59.824219 51.914062 61.570312 51.914062 L 61.570312 63.089844 L 63.777344 63.089844 L 64.28125 31.875 Z M 63.75 21.910156 "/>
<path style=" stroke:none;fill-rule:evenodd;fill:rgb(0%,0%,0%);fill-opacity:1;" d="M 63.75 21.910156 C 65.132812 25.675781 66.539062 29.597656 69.550781 32.597656 C 68.617188 32.289062 66.980469 32.011719 65.929688 32.039062 L 65.929688 47.882812 L 70.402344 48.546875 C 70.5625 48.53125 70.613281 48.28125 70.613281 47.941406 C 71.042969 43.019531 72.207031 38.886719 73.546875 34.609375 C 73.640625 34.027344 75.335938 31.796875 74.03125 32.1875 C 73.871094 32.210938 72.121094 32.921875 72.398438 32.582031 C 74.777344 30.117188 78.257812 28.34375 81.636719 27.816406 C 81.933594 27.742188 82.109375 27.890625 81.84375 28.234375 C 77.359375 35.136719 73.609375 43.28125 73.640625 52.945312 C 71.898438 52.945312 67.675781 51.914062 65.929688 51.914062 L 65.929688 63.089844 L 63.722656 63.089844 L 63.21875 31.875 Z M 63.75 21.910156 "/>
</g>
</svg>
