<svg viewBox="0 0 1000 667" xmlns="http://www.w3.org/2000/svg" xmlns:xlink="http://www.w3.org/1999/xlink"><clipPath id="a"><path d="m0 0h1000v666.71875h-1000zm0 0"/></clipPath><clipPath id="b"><path d="m333 0h334v666.71875h-334zm0 0"/></clipPath><g clip-path="url(#a)"><path d="m0 666.667969v-666.667969h1000v666.667969zm0 0" fill="#00267f" fill-rule="evenodd"/></g><g clip-path="url(#b)"><path d="m333.332031 0h333.335938v666.667969h-333.335938zm0 0" fill="#ffc726" fill-rule="evenodd"/></g><g fill-rule="evenodd"><path d="m500 171.832031c-10.832031 29.542969-21.875 60.292969-45.5 83.835938 7.332031-2.417969 20.167969-4.582031 28.417969-4.375v124.246093l-35.085938 5.210938c-1.25-.125-1.667969-2.085938-1.667969-4.75-3.371093-38.585938-12.5-71-22.996093-104.542969-.753907-4.582031-14.042969-22.082031-3.792969-19 1.25.167969 14.957031 5.753907 12.792969 3.082031-18.667969-19.332031-45.960938-33.246093-72.460938-37.371093-2.332031-.582031-3.707031.582031-1.625 3.289062 35.167969 54.125 64.582031 118.003907 64.332031 193.792969 13.671876 0 46.796876-8.082031 60.503907-8.082031v87.667969h17.289062l3.960938-244.835938zm0 0"/><path d="m500 171.832031c10.832031 29.542969 21.875 60.292969 45.5 83.835938-7.332031-2.417969-20.167969-4.582031-28.417969-4.375v124.246093l35.085938 5.210938c1.25-.125 1.667969-2.085938 1.667969-4.75 3.371093-38.585938 12.5-71 22.996093-104.542969.753907-4.582031 14.042969-22.082031 3.792969-19-1.25.167969-14.957031 5.753907-12.792969 3.082031 18.667969-19.332031 45.960938-33.246093 72.460938-37.371093 2.332031-.582031 3.707031.582031 1.625 3.289062-35.167969 54.125-64.582031 118.003907-64.332031 193.792969-13.671876 0-46.796876-8.082031-60.503907-8.082031v87.667969h-17.289062l-3.960938-244.835938zm0 0"/></g></svg>