<svg viewBox="0 0 1000 500" xmlns="http://www.w3.org/2000/svg"><path d="m0 0h1000v500h-1000z" fill="#c8313e"/><g fill-rule="evenodd"><path d="m0 333.332031h1000v166.667969h-1000zm0 0" fill="#4aa657"/><path d="m0 0h111.109375v500h-111.109375zm0 0" fill="#fff"/><path d="m19.324219 0h14.492187v8.195312h4.828125v8.199219h4.835938v8.191407h4.828125v8.199218h4.832031v8.199219h-4.832031v8.195313h-4.828125v8.199218h-4.835938v8.199219h-4.828125v8.191406h-4.828125v8.195313h-4.835937v-8.195313h-4.828125v-8.191406h-4.832031v-8.199219h-4.828126v-8.199218h-4.835937v-8.195313h-4.828125v-8.199219h4.828125v-8.199218h4.835937v-8.191407h4.828126v-8.199219h4.832031zm4.828125 16.394531h4.835937v8.191407h4.828125v8.199218h4.828125v8.199219h-4.828125v8.195313h-4.828125v8.199218h-4.835937v-8.199218h-4.828125v-8.195313h-4.832031v-8.199219h4.832031v-8.199218h4.828125zm0 16.390625h4.835937v8.199219h-4.835937zm-24.152344-24.589844h4.828125v8.199219h-4.828125zm0 49.183594h4.828125v8.199219h-4.828125zm53.140625-57.378906h2.898437v16.394531h-2.898437zm0 57.378906h2.898437v16.390625h-2.898437zm-43.476563 16.390625h4.828126v8.195313h4.832031v8.199218h4.828125v8.195313h-4.828125v8.199219h-4.832031v8.191406h-4.828126v-8.191406h-4.835937v-8.199219h-4.828125v-8.195313h4.828125v-8.199218h4.835937zm0 16.394531h4.828126v8.195313h-4.828126zm28.980469-16.394531h4.835938v8.195313h4.828125v8.199218h4.832031v8.195313h-4.832031v8.199219h-4.828125v8.191406h-4.835938v-8.191406h-4.828125v-8.199219h-4.828125v-8.195313h4.828125v-8.199218h4.828125zm0 16.394531h4.835938v8.195313h-4.835938zm-38.644531 32.785157h4.828125v8.199219h-4.828125zm53.140625-8.199219h2.898437v16.398438h-2.898437zm0 0" fill="#c8313e"/><path d="m0 147.542969h4.828125v-8.199219h4.835937v-8.195312h4.828126v-8.199219h4.832031v-8.199219h4.828125v-8.191406h4.835937v8.191406h4.828125v8.199219h4.828125v8.199219h4.835938v8.195312h4.828125v8.199219h4.832031v8.199219h2.898437v32.78125h-2.898437v8.199218h-4.832031v8.191406h-4.828125v8.199219h-4.835938v8.199219h-4.828125v8.195312h-4.828125v21.3125h-9.664062v-4.917968h-4.832031v-8.195313h-4.828126v-8.199219h-4.835937v-8.195312h-4.828125v-24.589844h4.828125v8.191406h4.835937v8.199219h4.828126v8.199219h4.832031v-8.199219h4.828125v-8.199219h4.835937v-8.191406h4.828125v-8.199218h4.828125v-8.195313h4.835938v-8.199219h-4.835938v-8.195312h-4.828125v-8.191406h-14.492187v8.191406h9.664062v8.195312h-4.835937v8.199219h-4.828125v8.195313h-4.832031v-8.195313h-4.828126v-8.199219h-4.835937v-8.195312h-4.828125zm0 32.785156h4.828125v8.195313h-4.828125zm53.140625 24.585937h2.898437v8.199219h-2.898437zm-9.660156 16.398438h4.828125v8.195312h4.832031v8.199219h2.898437v13.113281h-2.898437v-4.917968h-4.832031v-8.195313h-4.828125zm-9.664063 24.589844h4.828125v4.917968h-4.828125zm0 0" fill="#c8313e"/><path d="m91.785156 0h-14.492187v8.195312h-4.828125v8.199219h-4.832032v8.191407h-4.828124v8.199218h-4.835938v8.199219h4.835938v8.195313h4.828124v8.199218h4.832032v8.199219h4.828125v8.191406h4.832031v8.195313h4.832031v-8.195313h4.828125v-8.191406h4.835938v-8.199219h4.828125v-8.199218h4.832031v-8.195313h4.828125v-8.199219h-4.828125v-8.199218h-4.832031v-8.191407h-4.828125v-8.199219h-4.835938zm-4.828125 16.394531h-4.832031v8.191407h-4.832031v8.199218h-4.828125v8.199219h4.828125v8.195313h4.832031v8.199218h4.832031v-8.199218h4.828125v-8.195313h4.835938v-8.199219h-4.835938v-8.199218h-4.828125zm0 16.390625h-4.832031v8.199219h4.832031zm24.152344-24.589844h-4.828125v8.199219h4.828125zm0 49.183594h-4.828125v8.199219h4.828125zm-53.140625-57.378906h-2.898438v16.394531h2.898438zm0 57.378906h-2.898438v16.390625h2.898438zm43.480469 16.390625h-4.828125v8.195313h-4.835938v8.199218h-4.828125v8.195313h4.828125v8.199219h4.835938v8.191406h4.828125v-8.191406h4.832031v-8.199219h4.828125v-8.195313h-4.828125v-8.199218h-4.832031zm0 16.394531h-4.828125v8.195313h4.828125zm-28.984375-16.394531h-4.832032v8.195313h-4.828124v8.199218h-4.835938v8.195313h4.835938v8.199219h4.828124v8.191406h4.832032v-8.191406h4.828125v-8.199219h4.832031v-8.195313h-4.832031v-8.199218h-4.828125zm0 16.394531h-4.832032v8.195313h4.832032zm38.644531 32.785157h-4.828125v8.199219h4.828125zm-53.140625-8.199219h-2.898438v16.398438h2.898438zm0 0" fill="#c8313e"/><path d="m111.109375 147.542969h-4.828125v-8.199219h-4.832031v-8.195312h-4.828125v-8.199219h-4.835938v-8.199219h-4.828125v-8.191406h-4.832031v8.191406h-4.832031v8.199219h-4.828125v8.199219h-4.832032v8.195312h-4.828124v8.199219h-4.835938v8.199219h-2.898438v32.78125h2.898438v8.199218h4.835938v8.191406h4.828124v8.199219h4.832032v8.199219h4.828125v8.195312h4.832031v21.3125h9.660156v-4.917968h4.835938v-8.195313h4.828125v-8.199219h4.832031v-8.195312h4.828125v-24.589844h-4.828125v8.191406h-4.832031v8.199219h-4.828125v8.199219h-4.835938v-8.199219h-4.828125v-8.199219h-4.832031v-8.191406h-4.832031v-8.199218h-4.828125v-8.195313h-4.832032v-8.199219h4.832032v-8.195312h4.828125v-8.191406h14.492187v8.191406h-9.660156v8.195312h4.832031v8.199219h4.828125v8.195313h4.835938v-8.195313h4.828125v-8.199219h4.832031v-8.195312h4.828125zm0 32.785156h-4.828125v8.195313h4.828125zm-53.140625 24.585937h-2.898438v8.199219h2.898438zm9.664062 16.398438h-4.828124v8.195312h-4.835938v8.199219h-2.898438v13.113281h2.898438v-4.917968h4.835938v-8.195313h4.828124zm9.660157 24.589844h-4.828125v4.917968h4.828125zm0 0" fill="#c8313e"/><path d="m19.324219 500h14.492187v-8.195312h4.828125v-8.199219h4.835938v-8.191407h4.828125v-8.199218h4.832031v-8.199219h-4.832031v-8.195313h-4.828125v-8.199218h-4.835938v-8.199219h-4.828125v-8.191406h-4.828125v-8.195313h-4.835937v8.195313h-4.828125v8.191406h-4.832031v8.199219h-4.828126v8.199218h-4.835937v8.195313h-4.828125v8.199219h4.828125v8.199218h4.835937v8.191407h4.828126v8.199219h4.832031zm4.828125-16.394531h4.835937v-8.191407h4.828125v-8.199218h4.828125v-8.199219h-4.828125v-8.195313h-4.828125v-8.199218h-4.835937v8.199218h-4.828125v8.195313h-4.832031v8.199219h4.832031v8.199218h4.828125zm0-16.390625h4.835937v-8.199219h-4.835937zm-24.152344 24.589844h4.828125v-8.199219h-4.828125zm0-49.183594h4.828125v-8.199219h-4.828125zm53.140625 57.378906h2.898437v-16.394531h-2.898437zm0-57.378906h2.898437v-16.390625h-2.898437zm-43.476563-16.390625h4.828126v-8.195313h4.832031v-8.199218h4.828125v-8.195313h-4.828125v-8.199219h-4.832031v-8.191406h-4.828126v8.191406h-4.835937v8.199219h-4.828125v8.195313h4.828125v8.199218h4.835937zm0-16.394531h4.828126v-8.195313h-4.828126zm28.980469 16.394531h4.835938v-8.195313h4.828125v-8.199218h4.832031v-8.195313h-4.832031v-8.199219h-4.828125v-8.191406h-4.835938v8.191406h-4.828125v8.199219h-4.828125v8.195313h4.828125v8.199218h4.828125zm0-16.394531h4.835938v-8.195313h-4.835938zm-38.644531-32.785157h4.828125v-8.199219h-4.828125zm53.140625 8.199219h2.898437v-16.398438h-2.898437zm0 0" fill="#c8313e"/><path d="m0 352.457031h4.828125v8.199219h4.835937v8.195312h4.828126v8.199219h4.832031v8.199219h4.828125v8.191406h4.835937v-8.191406h4.828125v-8.199219h4.828125v-8.199219h4.835938v-8.195312h4.828125v-8.199219h4.832031v-8.199219h2.898437v-32.78125h-2.898437v-8.199218h-4.832031v-8.191406h-4.828125v-8.199219h-4.835938v-8.199219h-4.828125v-8.195312h-4.828125v-21.3125h-9.664062v4.917968h-4.832031v8.195313h-4.828126v8.199219h-4.835937v8.195312h-4.828125v24.589844h4.828125v-8.191406h4.835937v-8.199219h4.828126v-8.199219h4.832031v8.199219h4.828125v8.199219h4.835937v8.191406h4.828125v8.199218h4.828125v8.195313h4.835938v8.199219h-4.835938v8.195312h-4.828125v8.191406h-14.492187v-8.191406h9.664062v-8.195312h-4.835937v-8.199219h-4.828125v-8.195313h-4.832031v8.195313h-4.828126v8.199219h-4.835937v8.195312h-4.828125zm0-32.785156h4.828125v-8.195313h-4.828125zm53.140625-24.585937h2.898437v-8.199219h-2.898437zm-9.660156-16.398438h4.828125v-8.195312h4.832031v-8.199219h2.898437v-13.113281h-2.898437v4.917968h-4.832031v8.195313h-4.828125zm-9.664063-24.589844h4.828125v-4.917968h-4.828125zm0 0" fill="#c8313e"/><path d="m91.785156 500h-14.492187v-8.195312h-4.828125v-8.199219h-4.832032v-8.191407h-4.828124v-8.199218h-4.835938v-8.199219h4.835938v-8.195313h4.828124v-8.199218h4.832032v-8.199219h4.828125v-8.191406h4.832031v-8.195313h4.832031v8.195313h4.828125v8.191406h4.835938v8.199219h4.828125v8.199218h4.832031v8.195313h4.828125v8.199219h-4.828125v8.199218h-4.832031v8.191407h-4.828125v8.199219h-4.835938zm-4.828125-16.394531h-4.832031v-8.191407h-4.832031v-8.199218h-4.828125v-8.199219h4.828125v-8.195313h4.832031v-8.199218h4.832031v8.199218h4.828125v8.195313h4.835938v8.199219h-4.835938v8.199218h-4.828125zm0-16.390625h-4.832031v-8.199219h4.832031zm24.152344 24.589844h-4.828125v-8.199219h4.828125zm0-49.183594h-4.828125v-8.199219h4.828125zm-53.140625 57.378906h-2.898438v-16.394531h2.898438zm0-57.378906h-2.898438v-16.390625h2.898438zm43.480469-16.390625h-4.828125v-8.195313h-4.835938v-8.199218h-4.828125v-8.195313h4.828125v-8.199219h4.835938v-8.191406h4.828125v8.191406h4.832031v8.199219h4.828125v8.195313h-4.828125v8.199218h-4.832031zm0-16.394531h-4.828125v-8.195313h4.828125zm-28.984375 16.394531h-4.832032v-8.195313h-4.828124v-8.199218h-4.835938v-8.195313h4.835938v-8.199219h4.828124v-8.191406h4.832032v8.191406h4.828125v8.199219h4.832031v8.195313h-4.832031v8.199218h-4.828125zm0-16.394531h-4.832032v-8.195313h4.832032zm38.644531-32.785157h-4.828125v-8.199219h4.828125zm-53.140625 8.199219h-2.898438v-16.398438h2.898438zm0 0" fill="#c8313e"/><path d="m111.109375 352.457031h-4.828125v8.199219h-4.832031v8.195312h-4.828125v8.199219h-4.835938v8.199219h-4.828125v8.191406h-4.832031v-8.191406h-4.832031v-8.199219h-4.828125v-8.199219h-4.832032v-8.195312h-4.828124v-8.199219h-4.835938v-8.199219h-2.898438v-32.78125h2.898438v-8.199218h4.835938v-8.191406h4.828124v-8.199219h4.832032v-8.199219h4.828125v-8.195312h4.832031v-21.3125h9.660156v4.917968h4.835938v8.195313h4.828125v8.199219h4.832031v8.195312h4.828125v24.589844h-4.828125v-8.191406h-4.832031v-8.199219h-4.828125v-8.199219h-4.835938v8.199219h-4.828125v8.199219h-4.832031v8.191406h-4.832031v8.199218h-4.828125v8.195313h-4.832032v8.199219h4.832032v8.195312h4.828125v8.191406h14.492187v-8.191406h-9.660156v-8.195312h4.832031v-8.199219h4.828125v-8.195313h4.835938v8.195313h4.828125v8.199219h4.832031v8.195312h4.828125zm0-32.785156h-4.828125v-8.195313h4.828125zm-53.140625-24.585937h-2.898438v-8.199219h2.898438zm9.664062-16.398438h-4.828124v-8.195312h-4.835938v-8.199219h-2.898438v-13.113281h2.898438v4.917968h4.835938v8.195313h4.828124zm9.660157-24.589844h-4.828125v-4.917968h4.828125zm0 0" fill="#c8313e"/></g></svg>