<?xml version="1.0" encoding="UTF-8"?>
<svg xmlns="http://www.w3.org/2000/svg" xmlns:xlink="http://www.w3.org/1999/xlink" width="128pt" height="64pt" viewBox="0 0 128 64" version="1.1">
<g id="surface111">
<rect x="0" y="0" width="128" height="64" style="fill:rgb(78.430176%,19.215393%,24.313354%);fill-opacity:1;stroke:none;"/>
<path style=" stroke:none;fill-rule:evenodd;fill:rgb(29.019165%,65.097046%,34.117126%);fill-opacity:1;" d="M 0 42.667969 L 128 42.667969 L 128 64 L 0 64 Z M 0 42.667969 "/>
<path style=" stroke:none;fill-rule:evenodd;fill:rgb(99.998474%,99.998474%,99.998474%);fill-opacity:1;" d="M 0 0 L 14.222656 0 L 14.222656 64 L 0 64 Z M 0 0 "/>
<path style=" stroke:none;fill-rule:evenodd;fill:rgb(78.430176%,19.215393%,24.313354%);fill-opacity:1;" d="M 2.472656 0 L 4.328125 0 L 4.328125 1.050781 L 4.945312 1.050781 L 4.945312 2.097656 L 5.566406 2.097656 L 5.566406 3.148438 L 6.183594 3.148438 L 6.183594 4.195312 L 6.800781 4.195312 L 6.800781 5.246094 L 6.183594 5.246094 L 6.183594 6.296875 L 5.566406 6.296875 L 5.566406 7.34375 L 4.945312 7.34375 L 4.945312 8.394531 L 4.328125 8.394531 L 4.328125 9.441406 L 3.710938 9.441406 L 3.710938 10.492188 L 3.089844 10.492188 L 3.089844 9.441406 L 2.472656 9.441406 L 2.472656 8.394531 L 1.855469 8.394531 L 1.855469 7.34375 L 1.238281 7.34375 L 1.238281 6.296875 L 0.617188 6.296875 L 0.617188 5.246094 L 0 5.246094 L 0 4.195312 L 0.617188 4.195312 L 0.617188 3.148438 L 1.238281 3.148438 L 1.238281 2.097656 L 1.855469 2.097656 L 1.855469 1.050781 L 2.472656 1.050781 Z M 3.089844 2.097656 L 3.710938 2.097656 L 3.710938 3.148438 L 4.328125 3.148438 L 4.328125 4.195312 L 4.945312 4.195312 L 4.945312 5.246094 L 4.328125 5.246094 L 4.328125 6.296875 L 3.710938 6.296875 L 3.710938 7.34375 L 3.089844 7.34375 L 3.089844 6.296875 L 2.472656 6.296875 L 2.472656 5.246094 L 1.855469 5.246094 L 1.855469 4.195312 L 2.472656 4.195312 L 2.472656 3.148438 L 3.089844 3.148438 Z M 3.089844 4.195312 L 3.710938 4.195312 L 3.710938 5.246094 L 3.089844 5.246094 Z M 0 1.050781 L 0.617188 1.050781 L 0.617188 2.097656 L 0 2.097656 Z M 0 7.34375 L 0.617188 7.34375 L 0.617188 8.394531 L 0 8.394531 Z M 6.800781 0 L 7.171875 0 L 7.171875 2.097656 L 6.800781 2.097656 Z M 6.800781 7.34375 L 7.171875 7.34375 L 7.171875 9.441406 L 6.800781 9.441406 Z M 1.238281 9.441406 L 1.855469 9.441406 L 1.855469 10.492188 L 2.472656 10.492188 L 2.472656 11.539062 L 3.089844 11.539062 L 3.089844 12.589844 L 2.472656 12.589844 L 2.472656 13.640625 L 1.855469 13.640625 L 1.855469 14.6875 L 1.238281 14.6875 L 1.238281 13.640625 L 0.617188 13.640625 L 0.617188 12.589844 L 0 12.589844 L 0 11.539062 L 0.617188 11.539062 L 0.617188 10.492188 L 1.238281 10.492188 Z M 1.238281 11.539062 L 1.855469 11.539062 L 1.855469 12.589844 L 1.238281 12.589844 Z M 4.945312 9.441406 L 5.566406 9.441406 L 5.566406 10.492188 L 6.183594 10.492188 L 6.183594 11.539062 L 6.800781 11.539062 L 6.800781 12.589844 L 6.183594 12.589844 L 6.183594 13.640625 L 5.566406 13.640625 L 5.566406 14.6875 L 4.945312 14.6875 L 4.945312 13.640625 L 4.328125 13.640625 L 4.328125 12.589844 L 3.710938 12.589844 L 3.710938 11.539062 L 4.328125 11.539062 L 4.328125 10.492188 L 4.945312 10.492188 Z M 4.945312 11.539062 L 5.566406 11.539062 L 5.566406 12.589844 L 4.945312 12.589844 Z M 0 15.738281 L 0.617188 15.738281 L 0.617188 16.785156 L 0 16.785156 Z M 6.800781 14.6875 L 7.171875 14.6875 L 7.171875 16.785156 L 6.800781 16.785156 Z M 6.800781 14.6875 "/>
<path style=" stroke:none;fill-rule:evenodd;fill:rgb(78.430176%,19.215393%,24.313354%);fill-opacity:1;" d="M 0 18.886719 L 0.617188 18.886719 L 0.617188 17.835938 L 1.238281 17.835938 L 1.238281 16.785156 L 1.855469 16.785156 L 1.855469 15.738281 L 2.472656 15.738281 L 2.472656 14.6875 L 3.089844 14.6875 L 3.089844 13.640625 L 3.710938 13.640625 L 3.710938 14.6875 L 4.328125 14.6875 L 4.328125 15.738281 L 4.945312 15.738281 L 4.945312 16.785156 L 5.566406 16.785156 L 5.566406 17.835938 L 6.183594 17.835938 L 6.183594 18.886719 L 6.800781 18.886719 L 6.800781 19.933594 L 7.171875 19.933594 L 7.171875 24.132812 L 6.800781 24.132812 L 6.800781 25.179688 L 6.183594 25.179688 L 6.183594 26.230469 L 5.566406 26.230469 L 5.566406 27.277344 L 4.945312 27.277344 L 4.945312 28.328125 L 4.328125 28.328125 L 4.328125 29.378906 L 3.710938 29.378906 L 3.710938 32.105469 L 2.472656 32.105469 L 2.472656 31.476562 L 1.855469 31.476562 L 1.855469 30.425781 L 1.238281 30.425781 L 1.238281 29.378906 L 0.617188 29.378906 L 0.617188 28.328125 L 0 28.328125 L 0 25.179688 L 0.617188 25.179688 L 0.617188 26.230469 L 1.238281 26.230469 L 1.238281 27.277344 L 1.855469 27.277344 L 1.855469 28.328125 L 2.472656 28.328125 L 2.472656 27.277344 L 3.089844 27.277344 L 3.089844 26.230469 L 3.710938 26.230469 L 3.710938 25.179688 L 4.328125 25.179688 L 4.328125 24.132812 L 4.945312 24.132812 L 4.945312 23.082031 L 5.566406 23.082031 L 5.566406 22.03125 L 4.945312 22.03125 L 4.945312 20.984375 L 4.328125 20.984375 L 4.328125 19.933594 L 2.472656 19.933594 L 2.472656 20.984375 L 3.710938 20.984375 L 3.710938 22.03125 L 3.089844 22.03125 L 3.089844 23.082031 L 2.472656 23.082031 L 2.472656 24.132812 L 1.855469 24.132812 L 1.855469 23.082031 L 1.238281 23.082031 L 1.238281 22.03125 L 0.617188 22.03125 L 0.617188 20.984375 L 0 20.984375 Z M 0 23.082031 L 0.617188 23.082031 L 0.617188 24.132812 L 0 24.132812 Z M 6.800781 26.230469 L 7.171875 26.230469 L 7.171875 27.277344 L 6.800781 27.277344 Z M 5.566406 28.328125 L 6.183594 28.328125 L 6.183594 29.378906 L 6.800781 29.378906 L 6.800781 30.425781 L 7.171875 30.425781 L 7.171875 32.105469 L 6.800781 32.105469 L 6.800781 31.476562 L 6.183594 31.476562 L 6.183594 30.425781 L 5.566406 30.425781 Z M 4.328125 31.476562 L 4.945312 31.476562 L 4.945312 32.105469 L 4.328125 32.105469 Z M 4.328125 31.476562 "/>
<path style=" stroke:none;fill-rule:evenodd;fill:rgb(78.430176%,19.215393%,24.313354%);fill-opacity:1;" d="M 11.75 0 L 9.894531 0 L 9.894531 1.050781 L 9.277344 1.050781 L 9.277344 2.097656 L 8.65625 2.097656 L 8.65625 3.148438 L 8.039062 3.148438 L 8.039062 4.195312 L 7.421875 4.195312 L 7.421875 5.246094 L 8.039062 5.246094 L 8.039062 6.296875 L 8.65625 6.296875 L 8.65625 7.34375 L 9.277344 7.34375 L 9.277344 8.394531 L 9.894531 8.394531 L 9.894531 9.441406 L 10.511719 9.441406 L 10.511719 10.492188 L 11.128906 10.492188 L 11.128906 9.441406 L 11.75 9.441406 L 11.75 8.394531 L 12.367188 8.394531 L 12.367188 7.34375 L 12.984375 7.34375 L 12.984375 6.296875 L 13.605469 6.296875 L 13.605469 5.246094 L 14.222656 5.246094 L 14.222656 4.195312 L 13.605469 4.195312 L 13.605469 3.148438 L 12.984375 3.148438 L 12.984375 2.097656 L 12.367188 2.097656 L 12.367188 1.050781 L 11.75 1.050781 Z M 11.128906 2.097656 L 10.511719 2.097656 L 10.511719 3.148438 L 9.894531 3.148438 L 9.894531 4.195312 L 9.277344 4.195312 L 9.277344 5.246094 L 9.894531 5.246094 L 9.894531 6.296875 L 10.511719 6.296875 L 10.511719 7.34375 L 11.128906 7.34375 L 11.128906 6.296875 L 11.75 6.296875 L 11.75 5.246094 L 12.367188 5.246094 L 12.367188 4.195312 L 11.75 4.195312 L 11.75 3.148438 L 11.128906 3.148438 Z M 11.128906 4.195312 L 10.511719 4.195312 L 10.511719 5.246094 L 11.128906 5.246094 Z M 14.222656 1.050781 L 13.605469 1.050781 L 13.605469 2.097656 L 14.222656 2.097656 Z M 14.222656 7.34375 L 13.605469 7.34375 L 13.605469 8.394531 L 14.222656 8.394531 Z M 7.421875 0 L 7.050781 0 L 7.050781 2.097656 L 7.421875 2.097656 Z M 7.421875 7.34375 L 7.050781 7.34375 L 7.050781 9.441406 L 7.421875 9.441406 Z M 12.984375 9.441406 L 12.367188 9.441406 L 12.367188 10.492188 L 11.75 10.492188 L 11.75 11.539062 L 11.128906 11.539062 L 11.128906 12.589844 L 11.75 12.589844 L 11.75 13.640625 L 12.367188 13.640625 L 12.367188 14.6875 L 12.984375 14.6875 L 12.984375 13.640625 L 13.605469 13.640625 L 13.605469 12.589844 L 14.222656 12.589844 L 14.222656 11.539062 L 13.605469 11.539062 L 13.605469 10.492188 L 12.984375 10.492188 Z M 12.984375 11.539062 L 12.367188 11.539062 L 12.367188 12.589844 L 12.984375 12.589844 Z M 9.277344 9.441406 L 8.65625 9.441406 L 8.65625 10.492188 L 8.039062 10.492188 L 8.039062 11.539062 L 7.421875 11.539062 L 7.421875 12.589844 L 8.039062 12.589844 L 8.039062 13.640625 L 8.65625 13.640625 L 8.65625 14.6875 L 9.277344 14.6875 L 9.277344 13.640625 L 9.894531 13.640625 L 9.894531 12.589844 L 10.511719 12.589844 L 10.511719 11.539062 L 9.894531 11.539062 L 9.894531 10.492188 L 9.277344 10.492188 Z M 9.277344 11.539062 L 8.65625 11.539062 L 8.65625 12.589844 L 9.277344 12.589844 Z M 14.222656 15.738281 L 13.605469 15.738281 L 13.605469 16.785156 L 14.222656 16.785156 Z M 7.421875 14.6875 L 7.050781 14.6875 L 7.050781 16.785156 L 7.421875 16.785156 Z M 7.421875 14.6875 "/>
<path style=" stroke:none;fill-rule:evenodd;fill:rgb(78.430176%,19.215393%,24.313354%);fill-opacity:1;" d="M 14.222656 18.886719 L 13.605469 18.886719 L 13.605469 17.835938 L 12.984375 17.835938 L 12.984375 16.785156 L 12.367188 16.785156 L 12.367188 15.738281 L 11.75 15.738281 L 11.75 14.6875 L 11.128906 14.6875 L 11.128906 13.640625 L 10.511719 13.640625 L 10.511719 14.6875 L 9.894531 14.6875 L 9.894531 15.738281 L 9.277344 15.738281 L 9.277344 16.785156 L 8.65625 16.785156 L 8.65625 17.835938 L 8.039062 17.835938 L 8.039062 18.886719 L 7.421875 18.886719 L 7.421875 19.933594 L 7.050781 19.933594 L 7.050781 24.132812 L 7.421875 24.132812 L 7.421875 25.179688 L 8.039062 25.179688 L 8.039062 26.230469 L 8.65625 26.230469 L 8.65625 27.277344 L 9.277344 27.277344 L 9.277344 28.328125 L 9.894531 28.328125 L 9.894531 29.378906 L 10.511719 29.378906 L 10.511719 32.105469 L 11.75 32.105469 L 11.75 31.476562 L 12.367188 31.476562 L 12.367188 30.425781 L 12.984375 30.425781 L 12.984375 29.378906 L 13.605469 29.378906 L 13.605469 28.328125 L 14.222656 28.328125 L 14.222656 25.179688 L 13.605469 25.179688 L 13.605469 26.230469 L 12.984375 26.230469 L 12.984375 27.277344 L 12.367188 27.277344 L 12.367188 28.328125 L 11.75 28.328125 L 11.75 27.277344 L 11.128906 27.277344 L 11.128906 26.230469 L 10.511719 26.230469 L 10.511719 25.179688 L 9.894531 25.179688 L 9.894531 24.132812 L 9.277344 24.132812 L 9.277344 23.082031 L 8.65625 23.082031 L 8.65625 22.03125 L 9.277344 22.03125 L 9.277344 20.984375 L 9.894531 20.984375 L 9.894531 19.933594 L 11.75 19.933594 L 11.75 20.984375 L 10.511719 20.984375 L 10.511719 22.03125 L 11.128906 22.03125 L 11.128906 23.082031 L 11.75 23.082031 L 11.75 24.132812 L 12.367188 24.132812 L 12.367188 23.082031 L 12.984375 23.082031 L 12.984375 22.03125 L 13.605469 22.03125 L 13.605469 20.984375 L 14.222656 20.984375 Z M 14.222656 23.082031 L 13.605469 23.082031 L 13.605469 24.132812 L 14.222656 24.132812 Z M 7.421875 26.230469 L 7.050781 26.230469 L 7.050781 27.277344 L 7.421875 27.277344 Z M 8.65625 28.328125 L 8.039062 28.328125 L 8.039062 29.378906 L 7.421875 29.378906 L 7.421875 30.425781 L 7.050781 30.425781 L 7.050781 32.105469 L 7.421875 32.105469 L 7.421875 31.476562 L 8.039062 31.476562 L 8.039062 30.425781 L 8.65625 30.425781 Z M 9.894531 31.476562 L 9.277344 31.476562 L 9.277344 32.105469 L 9.894531 32.105469 Z M 9.894531 31.476562 "/>
<path style=" stroke:none;fill-rule:evenodd;fill:rgb(78.430176%,19.215393%,24.313354%);fill-opacity:1;" d="M 2.472656 64 L 4.328125 64 L 4.328125 62.949219 L 4.945312 62.949219 L 4.945312 61.902344 L 5.566406 61.902344 L 5.566406 60.851562 L 6.183594 60.851562 L 6.183594 59.804688 L 6.800781 59.804688 L 6.800781 58.753906 L 6.183594 58.753906 L 6.183594 57.703125 L 5.566406 57.703125 L 5.566406 56.65625 L 4.945312 56.65625 L 4.945312 55.605469 L 4.328125 55.605469 L 4.328125 54.558594 L 3.710938 54.558594 L 3.710938 53.507812 L 3.089844 53.507812 L 3.089844 54.558594 L 2.472656 54.558594 L 2.472656 55.605469 L 1.855469 55.605469 L 1.855469 56.65625 L 1.238281 56.65625 L 1.238281 57.703125 L 0.617188 57.703125 L 0.617188 58.753906 L 0 58.753906 L 0 59.804688 L 0.617188 59.804688 L 0.617188 60.851562 L 1.238281 60.851562 L 1.238281 61.902344 L 1.855469 61.902344 L 1.855469 62.949219 L 2.472656 62.949219 Z M 3.089844 61.902344 L 3.710938 61.902344 L 3.710938 60.851562 L 4.328125 60.851562 L 4.328125 59.804688 L 4.945312 59.804688 L 4.945312 58.753906 L 4.328125 58.753906 L 4.328125 57.703125 L 3.710938 57.703125 L 3.710938 56.65625 L 3.089844 56.65625 L 3.089844 57.703125 L 2.472656 57.703125 L 2.472656 58.753906 L 1.855469 58.753906 L 1.855469 59.804688 L 2.472656 59.804688 L 2.472656 60.851562 L 3.089844 60.851562 Z M 3.089844 59.804688 L 3.710938 59.804688 L 3.710938 58.753906 L 3.089844 58.753906 Z M 0 62.949219 L 0.617188 62.949219 L 0.617188 61.902344 L 0 61.902344 Z M 0 56.65625 L 0.617188 56.65625 L 0.617188 55.605469 L 0 55.605469 Z M 6.800781 64 L 7.171875 64 L 7.171875 61.902344 L 6.800781 61.902344 Z M 6.800781 56.65625 L 7.171875 56.65625 L 7.171875 54.558594 L 6.800781 54.558594 Z M 1.238281 54.558594 L 1.855469 54.558594 L 1.855469 53.507812 L 2.472656 53.507812 L 2.472656 52.460938 L 3.089844 52.460938 L 3.089844 51.410156 L 2.472656 51.410156 L 2.472656 50.359375 L 1.855469 50.359375 L 1.855469 49.3125 L 1.238281 49.3125 L 1.238281 50.359375 L 0.617188 50.359375 L 0.617188 51.410156 L 0 51.410156 L 0 52.460938 L 0.617188 52.460938 L 0.617188 53.507812 L 1.238281 53.507812 Z M 1.238281 52.460938 L 1.855469 52.460938 L 1.855469 51.410156 L 1.238281 51.410156 Z M 4.945312 54.558594 L 5.566406 54.558594 L 5.566406 53.507812 L 6.183594 53.507812 L 6.183594 52.460938 L 6.800781 52.460938 L 6.800781 51.410156 L 6.183594 51.410156 L 6.183594 50.359375 L 5.566406 50.359375 L 5.566406 49.3125 L 4.945312 49.3125 L 4.945312 50.359375 L 4.328125 50.359375 L 4.328125 51.410156 L 3.710938 51.410156 L 3.710938 52.460938 L 4.328125 52.460938 L 4.328125 53.507812 L 4.945312 53.507812 Z M 4.945312 52.460938 L 5.566406 52.460938 L 5.566406 51.410156 L 4.945312 51.410156 Z M 0 48.261719 L 0.617188 48.261719 L 0.617188 47.214844 L 0 47.214844 Z M 6.800781 49.3125 L 7.171875 49.3125 L 7.171875 47.214844 L 6.800781 47.214844 Z M 6.800781 49.3125 "/>
<path style=" stroke:none;fill-rule:evenodd;fill:rgb(78.430176%,19.215393%,24.313354%);fill-opacity:1;" d="M 0 45.113281 L 0.617188 45.113281 L 0.617188 46.164062 L 1.238281 46.164062 L 1.238281 47.214844 L 1.855469 47.214844 L 1.855469 48.261719 L 2.472656 48.261719 L 2.472656 49.3125 L 3.089844 49.3125 L 3.089844 50.359375 L 3.710938 50.359375 L 3.710938 49.3125 L 4.328125 49.3125 L 4.328125 48.261719 L 4.945312 48.261719 L 4.945312 47.214844 L 5.566406 47.214844 L 5.566406 46.164062 L 6.183594 46.164062 L 6.183594 45.113281 L 6.800781 45.113281 L 6.800781 44.066406 L 7.171875 44.066406 L 7.171875 39.867188 L 6.800781 39.867188 L 6.800781 38.820312 L 6.183594 38.820312 L 6.183594 37.769531 L 5.566406 37.769531 L 5.566406 36.722656 L 4.945312 36.722656 L 4.945312 35.671875 L 4.328125 35.671875 L 4.328125 34.621094 L 3.710938 34.621094 L 3.710938 31.894531 L 2.472656 31.894531 L 2.472656 32.523438 L 1.855469 32.523438 L 1.855469 33.574219 L 1.238281 33.574219 L 1.238281 34.621094 L 0.617188 34.621094 L 0.617188 35.671875 L 0 35.671875 L 0 38.820312 L 0.617188 38.820312 L 0.617188 37.769531 L 1.238281 37.769531 L 1.238281 36.722656 L 1.855469 36.722656 L 1.855469 35.671875 L 2.472656 35.671875 L 2.472656 36.722656 L 3.089844 36.722656 L 3.089844 37.769531 L 3.710938 37.769531 L 3.710938 38.820312 L 4.328125 38.820312 L 4.328125 39.867188 L 4.945312 39.867188 L 4.945312 40.917969 L 5.566406 40.917969 L 5.566406 41.96875 L 4.945312 41.96875 L 4.945312 43.015625 L 4.328125 43.015625 L 4.328125 44.066406 L 2.472656 44.066406 L 2.472656 43.015625 L 3.710938 43.015625 L 3.710938 41.96875 L 3.089844 41.96875 L 3.089844 40.917969 L 2.472656 40.917969 L 2.472656 39.867188 L 1.855469 39.867188 L 1.855469 40.917969 L 1.238281 40.917969 L 1.238281 41.96875 L 0.617188 41.96875 L 0.617188 43.015625 L 0 43.015625 Z M 0 40.917969 L 0.617188 40.917969 L 0.617188 39.867188 L 0 39.867188 Z M 6.800781 37.769531 L 7.171875 37.769531 L 7.171875 36.722656 L 6.800781 36.722656 Z M 5.566406 35.671875 L 6.183594 35.671875 L 6.183594 34.621094 L 6.800781 34.621094 L 6.800781 33.574219 L 7.171875 33.574219 L 7.171875 31.894531 L 6.800781 31.894531 L 6.800781 32.523438 L 6.183594 32.523438 L 6.183594 33.574219 L 5.566406 33.574219 Z M 4.328125 32.523438 L 4.945312 32.523438 L 4.945312 31.894531 L 4.328125 31.894531 Z M 4.328125 32.523438 "/>
<path style=" stroke:none;fill-rule:evenodd;fill:rgb(78.430176%,19.215393%,24.313354%);fill-opacity:1;" d="M 11.75 64 L 9.894531 64 L 9.894531 62.949219 L 9.277344 62.949219 L 9.277344 61.902344 L 8.65625 61.902344 L 8.65625 60.851562 L 8.039062 60.851562 L 8.039062 59.804688 L 7.421875 59.804688 L 7.421875 58.753906 L 8.039062 58.753906 L 8.039062 57.703125 L 8.65625 57.703125 L 8.65625 56.65625 L 9.277344 56.65625 L 9.277344 55.605469 L 9.894531 55.605469 L 9.894531 54.558594 L 10.511719 54.558594 L 10.511719 53.507812 L 11.128906 53.507812 L 11.128906 54.558594 L 11.75 54.558594 L 11.75 55.605469 L 12.367188 55.605469 L 12.367188 56.65625 L 12.984375 56.65625 L 12.984375 57.703125 L 13.605469 57.703125 L 13.605469 58.753906 L 14.222656 58.753906 L 14.222656 59.804688 L 13.605469 59.804688 L 13.605469 60.851562 L 12.984375 60.851562 L 12.984375 61.902344 L 12.367188 61.902344 L 12.367188 62.949219 L 11.75 62.949219 Z M 11.128906 61.902344 L 10.511719 61.902344 L 10.511719 60.851562 L 9.894531 60.851562 L 9.894531 59.804688 L 9.277344 59.804688 L 9.277344 58.753906 L 9.894531 58.753906 L 9.894531 57.703125 L 10.511719 57.703125 L 10.511719 56.65625 L 11.128906 56.65625 L 11.128906 57.703125 L 11.75 57.703125 L 11.75 58.753906 L 12.367188 58.753906 L 12.367188 59.804688 L 11.75 59.804688 L 11.75 60.851562 L 11.128906 60.851562 Z M 11.128906 59.804688 L 10.511719 59.804688 L 10.511719 58.753906 L 11.128906 58.753906 Z M 14.222656 62.949219 L 13.605469 62.949219 L 13.605469 61.902344 L 14.222656 61.902344 Z M 14.222656 56.65625 L 13.605469 56.65625 L 13.605469 55.605469 L 14.222656 55.605469 Z M 7.421875 64 L 7.050781 64 L 7.050781 61.902344 L 7.421875 61.902344 Z M 7.421875 56.65625 L 7.050781 56.65625 L 7.050781 54.558594 L 7.421875 54.558594 Z M 12.984375 54.558594 L 12.367188 54.558594 L 12.367188 53.507812 L 11.75 53.507812 L 11.75 52.460938 L 11.128906 52.460938 L 11.128906 51.410156 L 11.75 51.410156 L 11.75 50.359375 L 12.367188 50.359375 L 12.367188 49.3125 L 12.984375 49.3125 L 12.984375 50.359375 L 13.605469 50.359375 L 13.605469 51.410156 L 14.222656 51.410156 L 14.222656 52.460938 L 13.605469 52.460938 L 13.605469 53.507812 L 12.984375 53.507812 Z M 12.984375 52.460938 L 12.367188 52.460938 L 12.367188 51.410156 L 12.984375 51.410156 Z M 9.277344 54.558594 L 8.65625 54.558594 L 8.65625 53.507812 L 8.039062 53.507812 L 8.039062 52.460938 L 7.421875 52.460938 L 7.421875 51.410156 L 8.039062 51.410156 L 8.039062 50.359375 L 8.65625 50.359375 L 8.65625 49.3125 L 9.277344 49.3125 L 9.277344 50.359375 L 9.894531 50.359375 L 9.894531 51.410156 L 10.511719 51.410156 L 10.511719 52.460938 L 9.894531 52.460938 L 9.894531 53.507812 L 9.277344 53.507812 Z M 9.277344 52.460938 L 8.65625 52.460938 L 8.65625 51.410156 L 9.277344 51.410156 Z M 14.222656 48.261719 L 13.605469 48.261719 L 13.605469 47.214844 L 14.222656 47.214844 Z M 7.421875 49.3125 L 7.050781 49.3125 L 7.050781 47.214844 L 7.421875 47.214844 Z M 7.421875 49.3125 "/>
<path style=" stroke:none;fill-rule:evenodd;fill:rgb(78.430176%,19.215393%,24.313354%);fill-opacity:1;" d="M 14.222656 45.113281 L 13.605469 45.113281 L 13.605469 46.164062 L 12.984375 46.164062 L 12.984375 47.214844 L 12.367188 47.214844 L 12.367188 48.261719 L 11.75 48.261719 L 11.75 49.3125 L 11.128906 49.3125 L 11.128906 50.359375 L 10.511719 50.359375 L 10.511719 49.3125 L 9.894531 49.3125 L 9.894531 48.261719 L 9.277344 48.261719 L 9.277344 47.214844 L 8.65625 47.214844 L 8.65625 46.164062 L 8.039062 46.164062 L 8.039062 45.113281 L 7.421875 45.113281 L 7.421875 44.066406 L 7.050781 44.066406 L 7.050781 39.867188 L 7.421875 39.867188 L 7.421875 38.820312 L 8.039062 38.820312 L 8.039062 37.769531 L 8.65625 37.769531 L 8.65625 36.722656 L 9.277344 36.722656 L 9.277344 35.671875 L 9.894531 35.671875 L 9.894531 34.621094 L 10.511719 34.621094 L 10.511719 31.894531 L 11.75 31.894531 L 11.75 32.523438 L 12.367188 32.523438 L 12.367188 33.574219 L 12.984375 33.574219 L 12.984375 34.621094 L 13.605469 34.621094 L 13.605469 35.671875 L 14.222656 35.671875 L 14.222656 38.820312 L 13.605469 38.820312 L 13.605469 37.769531 L 12.984375 37.769531 L 12.984375 36.722656 L 12.367188 36.722656 L 12.367188 35.671875 L 11.75 35.671875 L 11.75 36.722656 L 11.128906 36.722656 L 11.128906 37.769531 L 10.511719 37.769531 L 10.511719 38.820312 L 9.894531 38.820312 L 9.894531 39.867188 L 9.277344 39.867188 L 9.277344 40.917969 L 8.65625 40.917969 L 8.65625 41.96875 L 9.277344 41.96875 L 9.277344 43.015625 L 9.894531 43.015625 L 9.894531 44.066406 L 11.75 44.066406 L 11.75 43.015625 L 10.511719 43.015625 L 10.511719 41.96875 L 11.128906 41.96875 L 11.128906 40.917969 L 11.75 40.917969 L 11.75 39.867188 L 12.367188 39.867188 L 12.367188 40.917969 L 12.984375 40.917969 L 12.984375 41.96875 L 13.605469 41.96875 L 13.605469 43.015625 L 14.222656 43.015625 Z M 14.222656 40.917969 L 13.605469 40.917969 L 13.605469 39.867188 L 14.222656 39.867188 Z M 7.421875 37.769531 L 7.050781 37.769531 L 7.050781 36.722656 L 7.421875 36.722656 Z M 8.65625 35.671875 L 8.039062 35.671875 L 8.039062 34.621094 L 7.421875 34.621094 L 7.421875 33.574219 L 7.050781 33.574219 L 7.050781 31.894531 L 7.421875 31.894531 L 7.421875 32.523438 L 8.039062 32.523438 L 8.039062 33.574219 L 8.65625 33.574219 Z M 9.894531 32.523438 L 9.277344 32.523438 L 9.277344 31.894531 L 9.894531 31.894531 Z M 9.894531 32.523438 "/>
</g>
</svg>
