<svg viewBox="0 0 1000 667" xmlns="http://www.w3.org/2000/svg" xmlns:xlink="http://www.w3.org/1999/xlink"><clipPath id="a"><path d="m0 0h1000v666.71875h-1000zm0 0"/></clipPath><g clip-path="url(#a)" fill-rule="evenodd"><path d="m0 666.667969v-666.667969h1000v666.667969zm0 0" fill="#efb22d"/><path d="m0 666.667969h1000v-666.667969zm0 0" fill="#e23d28"/></g><path d="m535.269531 208.429688c-5.542969-1.964844-9.121093.898437-8.941406 8.050781.175781 7.160156 3.933594 11.269531 9.480469 8.585937zm0 0" fill="#fff" fill-rule="evenodd" stroke="#000" stroke-width=".555556"/><path d="m540.136719 195.035156c-4.613281-3.644531-8.917969-2.082031-11.050781 4.753906-2.128907 6.832032.109374 11.929688 6.21875 11.171876zm0 0" fill="#fff" fill-rule="evenodd" stroke="#000" stroke-width=".555556"/><path d="m547.820312 182.0625c-3.980468-4.332031-8.476562-3.480469-11.675781 2.921875-3.195312 6.398437-1.808593 11.792969 4.351563 12.027344zm0 0" fill="#fff" fill-rule="evenodd" stroke="#000" stroke-width=".555556"/><path d="m542.785156 245.101562c-6.800781 2.5-7.515625 11.804688-3.21875 17.527344 4.292969 5.726563 12.160156 6.800782 16.449219 0zm0 0" fill="#fff" fill-rule="evenodd" stroke="#000" stroke-width=".555556"/><path d="m534.914062 225.421875c-6.441406-2.140625-12.242187 6.507813-13.242187 14.3125-1.246094 9.835937-15.199219 13.054687-7.507813 27.902344 1.605469-9.476563 7.875-14.664063 12.875-15.019531 5.015626-.359376 12.527344-1.433594 15.746094-7.515626zm0 0" fill="#fff" fill-rule="evenodd" stroke="#000" stroke-width=".555556"/><path d="m555.304688 263.703125c-7.511719 1.785156-8.585938 11.804687-3.222657 18.957031 4.589844 6.125 18.957031 4.648438 18.605469-1.425781zm0 0" fill="#fff" fill-rule="evenodd" stroke="#000" stroke-width=".555556"/><path d="m576.589844 323.980469c.351562-6.441407-10.015625-8.941407-15.023438-7.691407-5.011718 1.25-14.582031-.179687-16.816406-5.546874-1.785156 4.296874.808594 8.945312 8.050781 11.269531 5.484375 1.761719 5.363281 5.722656 3.753907 7.511719 4.117187.71875 16.28125.71875 20.035156-5.542969zm0 0" fill="#fff" fill-rule="evenodd" stroke="#000" stroke-width=".555556"/><path d="m570.6875 282.839844c-7.335938-3.21875-11.683594 1.6875-14.484375 6.4375-4.121094 6.980468-16.820313-1.96875-21.113281 7.335937 5.816406-2.503906 11.738281 2.839844 14.488281 4.652344 7.871094 5.1875 23.074219 3.574219 25.21875-8.589844zm0 0" fill="#fff" fill-rule="evenodd" stroke="#000" stroke-width=".555556"/><path d="m574.976562 291.429688c-7.332031 5.542968-10.191406 12.160156-10.015624 16.632812.179687 4.46875 6.441406 14.304688 13.242187 14.84375 3.929687-8.046875 5.902344-25.039062-3.226563-31.476562zm0 0" fill="#fff" fill-rule="evenodd" stroke="#000" stroke-width=".555556"/><path d="m544.574219 325.949219c0-2.683594 3.933593-3.757813 6.613281-2.863281 2.6875.894531 6.796875 3.574218 5.367188 6.4375zm0 0" fill="#fff" fill-rule="evenodd" stroke="#000" stroke-width=".555556"/><path d="m504.148438 311.277344c-.714844-3.214844 4.472656-8.761719 11.449218-5.722656 6.972656 3.042968 7.867188 8.945312 5.003906 11.269531zm0 0" fill="#fff" fill-rule="evenodd" stroke="#000" stroke-width=".555556"/><path d="m521.136719 317.183594c-.535157-1.792969 4.488281-5.363282 13.058593-3.21875 8.589844 2.144531 10.695313 7.671875 10.378907 11.984375zm0 0" fill="#fff" fill-rule="evenodd" stroke="#000" stroke-width=".555556"/><path d="m503.253906 311.277344c4.472656-3.394532 2.78125-9.835938-1.253906-11.804688-7.332031-3.574218-4.648438-12.871094-9.304688-14.664062-4.648437-1.789063-9.117187-5.007813-9.296874-8.230469-2.328126 4.46875-.894532 8.589844 2.328124 11.449219 3.214844 2.863281-2.507812 14.488281 1.605469 17.527344zm0 0" fill="#fff" fill-rule="evenodd" stroke="#000" stroke-width=".555556"/><path d="m407.382812 308.777344c-3.757812-5.902344-12.699218-4.832032-16.453124-.714844-3.761719 4.113281-3.222657 10.195312.351562 12.875zm0 0" fill="#fff" fill-rule="evenodd" stroke="#000" stroke-width=".555556"/><path d="m428.847656 300.011719c-1.433594-7.867188-10.910156-8.761719-16.097656-6.800781-5.1875 1.972656-8.769531 9.84375-5.367188 15.566406zm0 0" fill="#fff" fill-rule="evenodd" stroke="#000" stroke-width=".555556"/><path d="m443.152344 298.9375c3.402344-6.613281-3.214844-16.457031-10.730469-17.890625-6.273437-1.1875-13.683594-1.15625-16.097656-7.328125-1.519531 5.367188 2.507812 8.761719 7.15625 11.804688 4.648437 3.039062-.894531 10.914062 6.621093 15.382812zm0 0" fill="#fff" fill-rule="evenodd" stroke="#000" stroke-width=".555556"/><path d="m442.4375 299.164062c-1.5625-4.734374 1.609375-11.046874 8.039062-10.605468 6.425782.445312 10.085938 5.113281 7.253907 10.953125zm0 0" fill="#fff" fill-rule="evenodd" stroke="#000" stroke-width=".555556"/><path d="m456.75 299.523438c-.882812-4.910157 3.140625-10.710938 9.445312-9.371094 6.296876 1.339844 9.265626 6.476562 5.648438 11.859375zm0 0" fill="#fff" fill-rule="evenodd" stroke="#000" stroke-width=".555556"/><path d="m470.953125 301.777344c-.640625-4.945313 3.675781-10.539063 9.902344-8.882813 6.226562 1.648438 8.933593 6.933594 5.050781 12.125zm0 0" fill="#fff" fill-rule="evenodd" stroke="#000" stroke-width=".555556"/><path d="m363.019531 383.71875c-11.976562 0-14.90625 2.851562-16.632812 15.207031-2.144531 15.382813 18.78125 17.171875 16.632812-15.207031zm0 0" fill="#fff" fill-rule="evenodd" stroke="#000" stroke-width=".555556"/><path d="m368.390625 367.621094c-18.421875-6.976563-28.4375 22.179687-46.683594 16.992187 6.527344 10.375 22.351563.023438 28.261719 1.074219 10.015625 1.789062 31.65625-1.96875 18.421875-18.066406zm0 0" fill="#fff" fill-rule="evenodd" stroke="#000" stroke-width=".555556"/><path d="m356.40625 407.507812c-9.125-4.113281-18.960938 9.835938-17.171875 15.917969 2.269531 7.726563 23.074219 1.433594 17.171875-15.917969zm0 0" fill="#fff" fill-rule="evenodd" stroke="#000" stroke-width=".555556"/><path d="m313.835938 467.609375c5.003906 1.429687 11.085937 4.292969 10.015624 13.949219-1.070312 9.65625-19.316406 29.335937-35.769531 30.410156-16.457031 1.074219-22.359375 20.925781-36.492187 15.378906 13.238281-2.5 13.238281-17.527344 23.613281-22.175781-7.515625-2.6875-11.449219 14.308594-21.105469 14.308594-9.664062 0-14.3125 15.382812-26.117187 14.308593-11.808594-1.074218-13.050781 18.722657-36.667969 18.960938-18.066406.171875-40.421875 21.285156-48.472656 12.164062 17.527344-2.503906 24.601562-12.21875 35.058594-22.898437 16.8125-17.167969 35.773437-9.480469 42.210937-24.683594-7.691406 5.1875-16.632813 7.691407-25.398437 7.515625-11.003907-.226562-23.074219 17.53125-35.417969 9.65625 7.15625-.894531 11.804687-3.933594 19.320312-11.804687 7.695313-8.0625 18.984375-2.851563 27.902344-11.089844 13.953125-12.878906 25.9375-2.148437 39.351563-18.242187-3.757813-1.785157-11.808594-.539063-19.316407 3.394531-7.511719 3.9375-17.171875-2.679688-25.757812 1.96875 1.074219-10.550781 21.105469-4.515625 33.625-11.804688 14.132812-8.226562 25.847656-5.816406 37.027343-4.828125-15.566406-.089844-21.648437-14.851562-43.109374-10.554687-9.359376 1.871093-16.8125-12.878907-26.109376-5.363281.265626-5.546876 10.011719-10.015626 20.027344-4.652344 10.019532 5.367187 14.058594-4.695313 33.984375 7.867187 8.230469 5.1875 22.359375-3.214843 31.304688 2.328125-1.160157-3.402344-6.261719-5.542968-12.253907-5.097656 3.757813-7.6875 27.992188-6.707031 38.546876.984375zm0 0" fill="#fff" fill-rule="evenodd" stroke="#000" stroke-width=".555556"/><path d="m329.753906 455.984375c-7.867187-6.082031-18.777344 1.253906-26.292968-1.613281 0 5.007812 2.507812 12.523437 10.730468 15.382812 2.507813-1.785156 13.777344-11.625 15.5625-13.769531zm0 0" fill="#fff" fill-rule="evenodd" stroke="#000" stroke-width=".555556"/><path d="m342.097656 438.632812c-12.34375-6.257812-14.488281 9.300782-24.152344 6.082032.359376 4.472656 3.941407 10.015625 11.808594 11.269531zm0 0" fill="#fff" fill-rule="evenodd" stroke="#000" stroke-width=".555556"/><path d="m349.429688 424.5c-18.246094-7.15625-20.574219 10.375-31.304688 6.976562 2.507812 6.082032 17.890625 9.300782 25.761719 7.15625zm0 0" fill="#fff" fill-rule="evenodd" stroke="#000" stroke-width=".555556"/><path d="m374.46875 347.769531c-4.828125-6.796875-15.023438-1.253906-16.632812 6.796875-1.609376 8.046875 2.324218 19.316406 9.125 16.816406zm0 0" fill="#fff" fill-rule="evenodd" stroke="#000" stroke-width=".555556"/><path d="m386.8125 326.304688c-8.40625-1.96875-18.066406-1.070313-16.992188 7.152343-3.21875 1.433594-4.113281 11.984375 4.648438 14.3125zm0 0" fill="#fff" fill-rule="evenodd" stroke="#000" stroke-width=".555556"/><path d="m392.355469 320.761719c-8.226563-9.660157-17.402344-9.433594-22.535157-5.371094-9.480468 7.515625-18.691406 3.222656-18.957031 10.738281 5.722657-4.382812 10.730469.890625 15.378907-.714844 4.652343-1.613281 8.050781 7.328126 20.925781 3.574219zm0 0" fill="#fff" fill-rule="evenodd" stroke="#000" stroke-width=".555556"/><path d="m372.503906 465.105469c1.253906 2.328125 8.941406 3.398437 12.703125-.539063 4.972657-5.214844-.539062-19.671875-8.410156-20.746094-7.875-1.074218-8.585937 16.277344-4.292969 21.285157zm0 0" fill="#fff" fill-rule="evenodd" stroke="#000" stroke-width=".555556"/><path d="m363.558594 465.460938c11.269531 4.113281 16.101562-5.1875 10.019531-11.089844-1.613281 1.96875-7.515625 9.121094-10.019531 11.089844zm0 0" fill="#fff" fill-rule="evenodd" stroke="#000" stroke-width=".555556"/><path d="m321.347656 480.84375c-2.148437 6.441406-13.238281 7.511719-25.757812 27.542969-12.519532 20.035156-24.5 11.628906-27.546875 25.402343 15.027343-12.164062 26.824219-4.085937 35.777343-16.097656 13.59375-18.246094 24.789063-15.625 30.050782-27.902344 7.507812-17.53125 40.421875-17.171874 42.207031-44.714843-11.085937-2.148438-46.144531 27.542969-54.730469 35.769531zm0 0" fill="#fff" fill-rule="evenodd" stroke="#000" stroke-width=".555556"/><path d="m603.597656 210.398438c14.3125 4.652343 14.664063 23.253906 31.117188 29.335937 16.464844 6.082031 18.074218 20.746094 31.484375 17.171875-12.519531-3.402344-11.625-17.886719-24.679688-21.460938-15.316406-4.199218-21.109375-27.550781-33.273437-31.128906zm0 0" fill="#fff" fill-rule="evenodd"/><path d="m603.597656 210.398438c14.3125 4.652343 14.664063 23.253906 31.117188 29.335937 16.464844 6.082031 18.074218 20.746094 31.484375 17.171875-12.519531-3.402344-11.625-17.886719-24.679688-21.460938-15.316406-4.199218-21.109375-27.550781-33.273437-31.128906" fill="none" stroke="#000" stroke-width=".555556"/><path d="m669.238281 307.523438c2.507813 5.726562 2.148438 15.917968-6.792969 18.605468 4.828126 3.039063 11.980469.175782 15.914063-6.441406-5.902344 13.054688-1.964844 24.859375 7.332031 27.1875-4.46875-9.121094 5.546875-13.417969 2.328125-19.320312 5.902344 2.507812 11.089844 10.558593 10.910157 15.566406 7.695312-8.589844-5.722657-20.035156-3.214844-28.082032zm0 0" fill="#fff" fill-rule="evenodd" stroke="#000" stroke-width=".555556"/><path d="m576.589844 399.460938c-8.769532-7.691407-12.503906 2.011718-16.820313-1.34375-4.019531-3.128907-9.386719-3.574219-11.441406-.445313 7.515625.265625 3.839844 6.082031 18.421875 7.515625-14.582031.980469-11.894531 17.257812-21.644531 16.453125 10.375 9.835937 15.742187-8.765625 24.148437-5.722656-2.503906.714843 3.933594 6.621093-.535156 14.484375 7.242188-.175782 10.191406-10.191406 11.09375-15.378906zm0 0" fill="#fff" fill-rule="evenodd" stroke="#000" stroke-width=".555556"/><path d="m383.59375 482.992188c-3.222656-2.679688-12.523438-3.9375-16.097656-1.789063-3.578125 2.148437-2.328125 2.683594 1.964844 3.042969 4.296874.355468 9.835937 7.300781.535156 7.6875-4.289063.175781-2.855469 10.550781-11.804688 11.269531 3.667969 4.472656 14.132813 1.515625 17.886719-3.398437-.714844 4.027343 4.652344 7.691406 2.507813 12.523437 6.621093.714844 2.773437-13.417969 13.230468-12.703125-4.289062.539062-2.5 10.195312 5.011719 7.6875-4.472656 2.148438-2.144531 7.335938 2.863281 6.085938-3.21875 1.070312-4.292968 5.183593.179688 7.511718 4.289062-5.902344-.539063-27.007812-16.277344-37.917968zm0 0" fill="#fff" fill-rule="evenodd" stroke="#000" stroke-width=".555556"/><path d="m773.160156 285.632812c13.695313 0 24.789063-11.097656 24.789063-24.792968 0-13.6875-11.09375-24.789063-24.789063-24.789063-13.695312 0-24.789062 11.101563-24.789062 24.789063 0 13.695312 11.09375 24.792968 24.789062 24.792968zm0 0" fill="#fff" fill-rule="evenodd" stroke="#000" stroke-width=".555556"/><path d="m643.664062 315.570312c7.515626-7.152343 18.960938-10.730468 26.828126-5.363281 7.867187 5.363281 33.984374 11.804688 46.863281 2.863281 12.875-8.945312 18.960937-13.597656 24.679687-12.523437 4.296875 6.441406 9.484375 9.480469 15.921875 10.015625 1.972657 2.148438 8.941407 3.9375 12.882813 3.402344 5.722656 1.425781 12.699218-.359375 18.238281-6.441406 8.589844 1.253906 16.632813-5.183594 19.679687-14.847657 9.117188-1.070312 9.65625-11.269531 3.933594-18.058593-5.367187-1.078126-1.25-19.144532-20.753906-15.566407 8.234375 5.011719 1.96875 15.027344 8.773438 19.675781-4.65625 0-10.644532 1.96875-12.078126 8.941407 1.785157-4.828125-.265624-8.046875-1.523437-9.121094.183594-4.109375-8.9375-14.21875-17.523437-10.550781 6.167968 1.339844 2.683593 11.269531 7.15625 15.023437-3.222657.175781-6.621094 1.789063-8.589844 4.648438-2.320313-4.113281-10.550782-8.402344-15.558594-8.761719 0-1.433594-.273438-4.289062-.894531-5.722656-2.238281-4.292969-4.113281-9.390625-3.222657-15.917969-4.292968 4.648437-7.867187 11.089844-10.015624 15.738281-6.792969-4.648437-23.613282 2.148438-31.480469 3.933594-7.871094 1.789062-34.339844-2.5-40.425781-8.941406-6.078126-6.441406-17.882813-10.375-28.972657-13.597656-15.25-4.425782-15.382812-21.101563-32.199219-32.550782-.355468 20.746094 31.125 86.570313 38.28125 93.722656zm0 0" fill="#fff" fill-rule="evenodd" stroke="#000" stroke-width=".555556"/><path d="m468.375 473.6875c13.234375 0 23.96875-10.730469 23.96875-23.964844 0-13.238281-10.734375-23.96875-23.96875-23.96875-13.238281 0-23.96875 10.730469-23.96875 23.96875 0 13.234375 10.730469 23.964844 23.96875 23.964844zm0 0" fill="#fff" fill-rule="evenodd" stroke="#000" stroke-width=".555556"/><path d="m411.140625 455.269531c4.824219 6.257813 13.054687 5.902344 16.453125 5.363281 2.863281 7.507813 11.984375 7.335938 15.917969 11.449219 3.9375 4.109375 17.347656 3.753907 21.28125 1.425781-3.574219-.359374-8.222657-2.5-12.691407-6.261718-5.398437-4.53125-2.867187-13.589844-7.160156-16.808594 3.21875-3.578125 3.753906-9.480469 3.039063-11.804688 3.402343-1.96875 5.902343-5.1875 6.261719-6.796874 5.902343-.359376 11.089843-3.402344 13.238281-5.722657 3.042969 2.859375 10.730469-.898437 14.847656 3.933594.890625-11.804687-10.375-18.066406-17.890625-14.128906-3.039062-1.609375-11.089844-.539063-12.515625 1.605469-2.507813-1.066407-9.484375 2.507812-12.703125 4.835937 3.574219-1.96875 4.113281-7.875 2.6875-10.023437 3.035156-1.246094 6.433594-5.363282 6.789062-8.402344 4.300782.714844 10.734376-2.148438 13.597657-1.433594-4.648438-6.082031-12.339844-8.222656-20.214844-7.691406-8.136719.449218-11.621094 6.171875-12.695313 12.339844-4.828124 2.867187-6.4375 12.523437-4.648437 15.917968-2.777344-.085937-5.371094 2.601563-6.441406 4.121094-3.757813-1.613281-9.125-2.773438-12.972657-2.773438zm0 0" fill="#fff" fill-rule="evenodd"/><g stroke="#000" stroke-width=".555556"><path d="m411.140625 455.269531c4.824219 6.257813 13.054687 5.902344 16.453125 5.363281 2.863281 7.507813 11.984375 7.335938 15.917969 11.449219 3.9375 4.109375 17.347656 3.753907 21.28125 1.425781-3.574219-.359374-8.222657-2.5-12.691407-6.261718-5.398437-4.53125-2.867187-13.589844-7.160156-16.808594 3.21875-3.578125 3.753906-9.480469 3.039063-11.804688 3.402343-1.96875 5.902343-5.1875 6.261719-6.796874 5.902343-.359376 11.089843-3.402344 13.238281-5.722657 3.042969 2.859375 10.730469-.898437 14.847656 3.933594.890625-11.804687-10.375-18.066406-17.890625-14.128906-3.039062-1.609375-11.089844-.539063-12.515625 1.605469-2.507813-1.066407-9.484375 2.507812-12.703125 4.835937 3.574219-1.96875 4.113281-7.875 2.6875-10.023437 3.035156-1.246094 6.433594-5.363282 6.789062-8.402344 4.300782.714844 10.734376-2.148438 13.597657-1.433594-4.648438-6.082031-12.339844-8.222656-20.214844-7.691406-8.136719.449218-11.621094 6.171875-12.695313 12.339844-4.828124 2.867187-6.4375 12.523437-4.648437 15.917968-2.777344-.085937-5.371094 2.601563-6.441406 4.121094-3.757813-1.613281-9.125-2.773438-12.972657-2.773438" fill="none"/><path d="m407.027344 414.664062c-1.613282-4.648437.519531-8.835937 1.605468-12.519531 2.769532-9.394531 1.074219-11.808593-7.328124-10.554687-.71875 4.472656 3.574218 19.140625 5.722656 23.074218zm0 0" fill="#fff" fill-rule="evenodd"/><path d="m400.851562 392.128906c2.148438 2.148438 9.75 3.128906 10.550782-3.667968.929687-7.800782-2.234375-10.824219-9.03125-7.78125-.53125 1.792968-1.160156 9.121093-1.519532 11.449218zm0 0" fill="#fff" fill-rule="evenodd"/><path d="m402.460938 380.414062c2.859374 1.160157 9.035156 3.484376 12.433593-3.128906 2.851563-5.554687-.898437-9.84375-6.792969-9.484375-1.433593 1.613281-4.296874 7.335938-5.640624 12.613281zm0 0" fill="#fff" fill-rule="evenodd"/><path d="m407.742188 367.265625c.710937 2.148437 8.046874 9.300781 13.410156 4.117187 5.367187-5.195312 5.367187-12.882812-2.679688-15.746093-2.148437.359375-8.589844 7.871093-10.730468 11.628906zm0 0" fill="#fff" fill-rule="evenodd"/><path d="m418.472656 355.636719c1.605469 4.476562 6.613282 12.164062 15.917969 8.589843 9.300781-3.582031 5.367187-15.203124 1.074219-17.53125-2.507813.179688-12.699219 4.828126-16.992188 8.941407zm0 0" fill="#fff" fill-rule="evenodd"/><path d="m435.464844 346.695312c-.714844 3.933594 0 14.664063 12.695312 14.488282 12.699219-.179688 9.125-15.023438 5.902344-17.171875-5.1875 0-13.945312.175781-18.597656 2.683593zm0 0" fill="#fff" fill-rule="evenodd"/><path d="m454.601562 344.546875c-1.429687 3.042969-4.65625 23.058594 20.214844 17.53125 3.21875-.71875 11.621094-19.136719-20.214844-17.53125zm0 0" fill="#fff" fill-rule="evenodd"/><path d="m468.195312 346.335938c-2.5 2.507812 3.933594 22.71875 20.746094 19.320312 16.816406-3.402344 2.6875-22.535156-20.746094-19.320312zm0 0" fill="#fff" fill-rule="evenodd"/><path d="m482.503906 349.375c-2.679687 5.546875 1.34375 22.007812 22.09375 22.007812 18.800782 0-.984375-21.648437-22.09375-22.007812zm0 0" fill="#fff" fill-rule="evenodd"/><path d="m498.777344 354.210938c-1.34375 3.070312-2.992188 20.519531 21.46875 22 17.710937 1.074218 13.417968-23.96875-21.46875-22zm0 0" fill="#fff" fill-rule="evenodd"/><path d="m525.078125 361.539062c-3.039063 5.367188-6.261719 18.78125 20.566406 19.855469 17.1875.691407 6.617188-19.496093-20.566406-19.855469zm0 0" fill="#fff" fill-rule="evenodd"/><path d="m547.433594 365.65625c-3.933594 5.367188-1.035156 15.890625 8.941406 17.882812 12.519531 2.507813 14.3125-9.296874 5.730469-15.023437-8.589844-5.722656-14.671875-2.859375-14.671875-2.859375zm0 0" fill="#fff" fill-rule="evenodd"/><path d="m559.597656 368.160156c-2.859375 5.007813-1.089844 17.171875 17.882813 17.171875 3.9375 0 18.964843-15.382812-17.882813-17.171875zm0 0" fill="#fff" fill-rule="evenodd"/><path d="m412.753906 601.417969c15.367188 0 27.828125-12.457031 27.828125-27.824219s-12.460937-27.832031-27.828125-27.832031c-15.371094 0-27.824218 12.464843-27.824218 27.832031s12.453124 27.824219 27.824218 27.824219zm0 0" fill="#fff" fill-rule="evenodd"/><path d="m616.835938 196.804688c-2.148438 2.148437-6.621094 8.589843-7.515626 11.089843-9.304687 27.902344 15.527344 48.746094 30.050782 78.707031 11.449218 23.605469 10.015625 60.8125-7.871094 84.421876-6.121094 8.074218-4.292969 10.371093-12.164062 18.597656-3.015626 3.15625-6.441407 7.15625-5.363282 18.605468 5.011719-1.792968 12.160156 2.863282 13.59375 6.796876 3.574219-1.792969 8.585938-1.074219 10.371094 1.074218 6.078125-2.867187 11.089844-1.433594 16.457031 4.292969 4.648438-.71875 9.664063 0 14.308594 5.003906 2.503906-5.003906 7.511719-6.796875 11.085937-5.722656-.355468-6.441406 6.082032-11.089844 11.808594-8.582031-1.785156-8.589844 6.082032-15.027344 13.59375-12.523438 6.441406-5.007812 19.320313-5.363281 25.753906 2.144532-11.445312-3.21875-11.082031 8.945312-20.746093 7.871093 2.507812 7.15625-3.933594 11.269531-10.371094 13.597657 4.109375-1.96875 8.582031-4.296876 10.011719-1.789063 3.582031-3.132813 10.730468-1.972656 12.523437-.359375 4.738281-1.519531 9.304688-.359375 11.449219 5.363281 6.4375 3.933594 10.730469 13.957031 6.082031 21.464844-1.433593-7.867187-6.800781-7.507813-8.949219-10.730469-5.007812 1.789063-10.015624 1.789063-11.445312-1.433594-2.859375 2.863282-12.519531 5.367188-16.808594 1.074219-1.613281 6.441407-7.164062 11.804688-13.601562 11.804688 1.796875 5.007812-3.21875 13.597656-7.152344 17.886719 6.082031 3.21875 4.292969 10.375 2.859375 14.664062 9.304687 1.433594 1.433594 9.664062 17.53125 15.03125-7.867187 2.5-23.246094 0-25.394531-9.664062-7.875-.351563-13.242188-8.222657-12.875-16.453126-6.089844-5.726562-6.976563-13.949218 1.425781-19.671874-7.15625 2.140624-11.089844-9.304688-21.46875-4.652344-5.15625 2.3125-18.777344-1.609375-18.59375-6.4375-2.148437 3.574218-15.207031 2.140625-16.996094-3.941406-4.292969 2.328124-14.3125-1.605469-14.128906-7.507813-5.550781 2.5-13.058594-1.96875-12.699219-7.695313-5.1875-.714843-5.722656-5.363281-5.367187-9.296874-4.652344-2.148438-3.394531-6.621094-1.609375-11.984376-3.21875-3.574218-1.785156-8.585937.714844-13.238281-3.574219-3.574219-2.859376-7.867187-1.789063-12.875-17.171875-1.429687-38.683594-5.574219-88-20.75-74.40625-22.894531-94.445313 30.765625-77.984375 64.390625 18.984375 38.800782-2.148438 47.222656 4.292969 76.203125 6.796875 1.425781 10.371093 7.148438 10.015625 13.230469 4.023437.179688 6.882812 3.933594 5.449218 11.089844 3.402344-.625 7.785157.355468 10.644532 3.21875 2.507812-4.652344 10.730468-5.722656 15.03125-.355469 9.296875-.722656 13.945312 6.792969 13.589844 16.097656 5.007812 8.941407 3.21875 19.855469-2.148438 26.828125.535156-3.753906 0-9.121094-.171875-12.335937-.332031-5.925781-8.589844-7.164063-7.695313-11.992188-4.292968.359375-8.410156-1.964843-9.835937-5.179687-2.507813 2.144531-6.082031 2.859375-9.125 1.785156 4.828125 2.148438 8.585937 10.730469 7.15625 16.453125 2.503906 4.296875 1.96875 12.164063-1.074219 15.566406-1.433594 6.972657-6.800781 9.472657-13.769531 6.433594 3.933594-2.5 5.363281-6.96875 5.183594-10.730469-2.503907-2.144531-3.757813-6.261718-3.9375-8.769531-6.972657 1.078125-16.632813-4.824219-18.414063-7.160156-15.371094 0-27.824218 12.464843-27.824218 27.832031-.71875-5.726562-7.953126-11.363281-7.058594-16.195312-4.292969-13.234376 1.789062-25.578126 19.3125-28.082032-2.140625-5.003906 5.367187-10.195312 2.507812-15.917968-3.65625-7.3125-10.375-16.816407-20.386718-27.90625 6.078124-10.371094 4.289062-24.320313.707031-32.910157-5.132813-12.328125-10.015625-9.296875-28.257813 10.730469-29.734375 32.652344-69.398437 23.613281-104.457031 45.074219-9.3125 5.707031-18.601563 7.871093-8.585937-2.140625 10.019531-10.015625 36.492187-20.03125 53.660156-28.621094 32.15625-16.082031 59.382812-42.929688 70.117187-95.152344 25.21875-122.746094 118.046875-82.28125 176.714844-59.386718 55.078125 21.496093 45.074219-27.1875 17.171875-56.523438-33.539062-35.257812-26.828125-62.960938-11.089844-85.140625 28.261719-3.929687 82.460938 5.90625 71.550782 15.382813zm0 0" fill="#fff" fill-rule="evenodd"/><path d="m716.464844 498.3125c16.910156 0 30.617187-13.703125 30.617187-30.609375s-13.707031-30.617187-30.617187-30.617187c-16.902344 0-30.613282 13.710937-30.613282 30.617187s13.710938 30.609375 30.613282 30.609375zm0 0" fill="#fff" fill-rule="evenodd"/><path d="m599.664062 198.234375c-6.796874 30.054687-1.074218 43.644531 8.941407 56.882813 20.703125 27.355468 37.207031 89.789062 13.59375 130.570312" fill="none"/><path d="m635.433594 350.449219c2.863281-1.074219 8.230468-4.46875 9.484375-10.371094" fill="none"/><path d="m637.582031 337.398438c.894531-5.191407 8.941407-7.421876 9.121094-12.972657" fill="none"/><path d="m637.761719 317.183594c-.539063-5.367188 8.050781-10.195313 6.792969-15.5625" fill="none"/><path d="m633.109375 297.867188c-.714844-3.042969 7.152344-8.765626 5.007813-13.59375" fill="none"/><path d="m627.207031 279.085938c-1.609375-3.402344 3.753907-7.335938 1.433594-10.910157" fill="none"/><path d="m618.621094 264.0625c-.539063-2.328125 2.769531-7.429688.984375-10.464844" fill="none"/><path d="m610.039062 246.355469c.707032-.898438 3.578126-3.042969 2.414063-5.726563" fill="none"/><path d="m604.132812 233.386719c1.160157-.628907 4.652344-1.703125 4.207032-4.296875" fill="none"/><path d="m425.085938 570.632812c-7.148438-2.5-16.09375 1.074219-17.878907 7.160157" fill="none"/><path d="m412.570312 583.332031c.894532-6.074219 10.195313-8.761719 13.054688-5.902343-5.902344-3.214844-8.761719 8.226562-3.578125 8.589843" fill="none"/><path d="m470.160156 441.851562c-4.289062 2.148438-5.539062 10.015626 0 15.921876" fill="none"/><path d="m476.601562 443.640625c-3.039062 2.503906-2.859374 10.015625 1.609376 11.804687-3.753907-2.683593 0-7.332031 2.6875-7.511718 2.679687-.179688 4.46875 3.042968 1.246093 6.261718" fill="none"/><path d="m727.910156 461.34375c-10.015625-2.679688-18.070312 8.945312-8.949218 19.320312-.171876-10.015624 6.976562-16.632812 15.746093-14.84375" fill="none"/><path d="m730.679688 472.75c-2.464844 0-3.847657 1.925781-3.847657 3.800781 0 1.96875 1.699219 3.847657 4.472657 3.847657 1.789062 0 3.222656-2.058594 3.222656-3.667969" fill="none"/><path d="m766.003906 253.148438c1.613282 6.082031 10.019532 8.585937 16.636719 7.15625" fill="none"/><path d="m782.640625 256.371094c-5.1875.175781-9.480469-4.652344-9.121094-8.769532 0 3.042969 6.976563 4.476563 9.121094 2.507813" fill="none"/><path d="m427.59375 460.632812c-1.433594-3.578124 4.289062-7.15625 4.46875-10.550781.179688-3.402343 6.441406-6.082031 12.878906.355469" fill="none"/><path d="m441.90625 412.335938c-1.253906.539062-2.328125 1.253906-3.402344 1.613281" fill="none"/><path d="m454.242188 431.835938c-1.519532.09375-4.648438-.085938-6.347657-1.253907" fill="none"/><path d="m447.980469 438.632812c-1.246094.625-4.023438 1.699219-5.628907 2.058594" fill="none"/><path d="m386.632812 546.667969c-.179687 3.222656 3.042969 7.867187 4.828126 9.300781" fill="none"/><path d="m400.585938 538.976562c-1.789063 2.679688-2.863282 7.335938-1.789063 10.550782" fill="none"/><path d="m427.234375 549.707031c-3.214844-2.148437-1.074219-7.691406-1.429687-11.269531-.359376-3.574219 3.757812-9.296875 11.804687-4.46875" fill="none"/><path d="m397.183594 529.316406c3.222656-.535156 6.621094-.355468 8.769531.535156" fill="none"/><path d="m437.964844 519.121094c-1.429688 1.96875-1.78125 4.113281-1.960938 5.546875" fill="none"/><path d="m452.996094 518.765625c-2.507813 0-4.65625 1.785156-5.726563 3.574219" fill="none"/><path d="m418.292969 427.1875c2.859375.980469 10.28125 5.542969 10.554687 10.285156" fill="none"/><path d="m448.695312 403.933594c-8.757812-.179688-12.160156-9.125-5.542968-9.125" fill="none"/><path d="m464.4375 415.917969c-3.398438 1.425781-1.785156 7.328125 3.042969 10.195312" fill="none"/><path d="m443.511719 472.082031c-1.699219-2.148437.535156-8.402343 6.082031-6.535156" fill="none"/><path d="m456.570312 537.363281c.351563-5.449219 7.242188-8.675781 10.015626-2.5" fill="none"/><path d="m431.167969 552.921875c-.445313-5.988281 2.59375-7.957031 5.277343-8.308594 2.683594-.359375 6.527344 1.871094 8.320313 5.808594" fill="none"/><path d="m377.871094 557.398438c.355468-3.578126 3.394531-7.332032 6.617187-6.796876" fill="none"/><path d="m705.191406 398.566406c-2.328125 1.699219-3.84375 9.300782 5.007813 10.015625" fill="none"/><path d="m691.597656 411.089844c0 .890625 1.160156 2.140625 1.882813 2.679687" fill="none"/><path d="m733.8125 425.394531c-2.328125-1.789062-8.324219 5.460938-2.867188 10.734375" fill="none"/><path d="m676.933594 485.492188c-1.347656-5.09375 3.394531-6.4375 7.863281-5.367188" fill="none"/><path d="m665.484375 449.367188c2.679687-1.792969 5.367187-3.761719 8.765625-4.652344" fill="none"/><path d="m664.058594 469.039062c0-4.292968 2.140625-7.867187 4.105468-8.941406" fill="none"/><path d="m679.789062 419.671875c-.355468 5.1875 1.792969 10.195313 3.402344 12.882813" fill="none"/><path d="m722.363281 420.03125c-2.59375.800781-4.921875 1.789062-5.902343 3.933594" fill="none"/><path d="m719.5 434.695312c1.25-1.070312 2.683594-2.320312 3.308594-3.21875" fill="none"/><path d="m787.109375 278.546875c0 5.007813-6.253906 7.695313-10.367187 4.472656" fill="none"/><path d="m800.710938 278.726562c2.765624 2.148438 12.335937.09375 10.101562-5.453124" fill="none"/><path d="m789.078125 307.523438c-1.96875-.355469-5.367187-2.503907-6.796875-4.289063" fill="none"/><path d="m808.757812 292.675781c-3.21875.714844-5.367187 0-6.980468-.710937" fill="none"/><path d="m757.957031 310.5625c1.789063 0 6.078125-.714844 9.035157-2.234375" fill="none"/><path d="m752.59375 278.90625c-2.328125-.265625-4.03125.179688-5.367188 1.074219" fill="none"/><path d="m788.632812 287.667969c-.625 2.242187-2.234374 5.722656-4.203124 7.25" fill="none"/><path d="m746.511719 295.539062c4.46875-1.96875 10.015625 13.238282 20.746093 7.875" fill="none"/><path d="m768.152344 287.667969c-1.429688 1.96875-2.320313 5.007812-2.503906 7.691406" fill="none"/><path d="m554.230469 264.414062c1.433593-.171874 3.933593-.710937 4.472656-2.5" fill="none"/><path d="m370.175781 430.941406c5.367188 3.042969 9.128907 8.230469 6.800781 15.917969" fill="none"/><path d="m616.113281 247.960938c1.613281 1.074218 7.699219 1.074218 11.09375-.179688" fill="none"/><path d="m631.5 251.539062c-.179688 2.503907.535156 11.984376-4.292969 13.949219" fill="none"/><path d="m628.992188 264.242188c4.476562 1.425781 13.417968.890624 16.28125-7.335938" fill="none"/><path d="m639.015625 263.882812c2.320313 3.574219 3.035156 10.554688-3.933594 14.308594" fill="none"/><path d="m640.796875 269.785156c5.1875 1.785156 17.171875 1.964844 15.917969-8.230468" fill="none"/><path d="m652.605469 269.785156c3.578125 5.007813 19.316406 10.910156 16.816406.53125" fill="none"/><path d="m638.117188 284.273438c6.082031 1.429687 14.671874-2.6875 11.089843-13.417969" fill="none"/><path d="m666.378906 276.222656c.894532 4.117188 20.925782 8.40625 18.246094-.890625" fill="none"/><path d="m680.867188 280.695312c3.757812 8.582032 23.609374 7.867188 17.347656-3.578124" fill="none"/><path d="m694.996094 286.0625c3.933594 4.828125 21.464844 1.964844 14.488281-9.664062" fill="none"/><path d="m709.304688 285.882812c10.910156 8.226563 23.609374-3.578124 9.835937-12.164062" fill="none"/><path d="m725.402344 283.195312c9.660156 7.695313 21.46875-6.257812 13.058594-10.191406" fill="none"/><path d="m649.027344 279.980469c3.039062.894531 9.480468.539062 10.910156-5.007813" fill="none"/><path d="m657.523438 278.726562c-.355469 8.140626 13.328124 11.269532 16.8125 1.878907" fill="none"/><path d="m669.773438 285.703125c2.507812 5.367187 14.488281 7.507813 16.457031-.179687" fill="none"/><path d="m684.261719 289.101562c1.96875 5.363282 12.34375 4.828126 15.207031-.71875" fill="none"/><path d="m695.714844 291.964844c3.214844 6.972656 16.453125 6.972656 19.492187-3.222656" fill="none"/><path d="m712.882812 293.210938c5.1875 3.226562 16.277344 1.972656 15.382813-8.042969" fill="none"/><path d="m726.117188 292.324219c7.695312 6.253906 18.605468.179687 13.238281-10.378907" fill="none"/><path d="m738.816406 300.546875c4.121094-.714844 6.261719-8.941406 1.972656-11.089844" fill="none"/><path d="m643.484375 301.980469c8.582031-4.648438 10.195313-12.523438 4.289063-20.214844" fill="none"/><path d="m650.820312 294.109375c5.363282 3.222656 15.558594-.179687 17.34375-8.046875" fill="none"/><path d="m658.152344 295.003906c3.035156 3.933594 3.570312 8.765625-.363282 13.238282" fill="none"/><path d="m660.65625 300.011719c9.476562-5.902344 21.28125 5.007812 12.523438 11.625" fill="none"/><path d="m671.566406 299.472656c2.148438-.535156 5.902344-4.46875 6.253906-8.9375" fill="none"/><path d="m675.855469 303.589844c3.933593-4.117188 30.769531 4.292968 13.769531 12.875" fill="none"/><path d="m688.378906 292.324219c5.1875 1.964843 7.871094 9.296875 0 11.800781" fill="none"/><path d="m695.175781 310.207031c5.722657-5.902343 23.613281-2.144531 17.171875 5.363281" fill="none"/><path d="m708.058594 307.882812c3.214844-10.910156 22.355468-4.113281 16.09375.359376" fill="none"/><path d="m704.117188 296.972656c.539062 2.144532.714843 7.507813-2.859376 10.375" fill="none"/><path d="m720.214844 294.824219c.714844 1.789062.535156 5.1875-1.074219 7.335937" fill="none"/><path d="m732.378906 295.003906c1.074219 1.96875 2.863282 5.722656-1.074218 8.765625" fill="none"/><path d="m579.273438 212.726562c.175781 10.195313 3.753906 16.992188 17.523437 10.554688" fill="none"/><path d="m583.566406 224.886719c-6.796875 9.125.890625 18.960937 14.308594 9.125" fill="none"/><path d="m562.640625 229.363281c9.300781 10.015625 25.933594 2.679688 15.203125-12.523437" fill="none"/><path d="m589.109375 237.945312c-1.789063 9.835938 6.261719 11.804688 12.875 7.335938" fill="none"/><path d="m554.40625 230.96875c1.699219 9.890625 11.804688 17.707031 21.648438 11.625" fill="none"/><path d="m566.574219 244.5625c0 14.128906 19.492187 15.742188 23.96875 1.074219" fill="none"/><path d="m583.566406 254.578125c6.253906 12.878906 19.851563 7.695313 24.324219-.179687" fill="none"/><path d="m569.792969 234.011719c2.503906 6.261719 7.511719 13.238281 19.140625 8.046875" fill="none"/><path d="m534.015625 230.96875c1.613281 5.183594 10.917969 11.445312 21.648437 4.296875" fill="none"/><path d="m540.636719 237.585938c-5.722657 8.410156 5.722656 16.277343 19.496093 3.761718" fill="none"/><path d="m547.433594 247.960938c2.328125 11.804687 6.972656 21.289062 23.789062 6.082031" fill="none"/><path d="m562.816406 260.125c6.078125 7.511719 15.386719 12.164062 24.144532-.539062" fill="none"/><path d="m593.402344 262.273438c-.535156 8.9375 1.246094 13.410156 8.226562 13.058593 5.5-.285156 10.730469-4.65625 13.773438-9.304687" fill="none"/><path d="m600.378906 275.332031c-.175781 10.191407 7.867188 18.238281 22.894532 7.863281" fill="none"/><path d="m606.640625 287.308594c-2.863281 7.695312 5.71875 20.214844 22.539063 13.777344" fill="none"/><path d="m571.039062 266.921875c-1.066406 9.835937 8.050782 16.453125 22.722657 3.753906" fill="none"/><path d="m578.203125 277.832031c.535156 8.050781 9.65625 17.707031 23.070313 3.753907" fill="none"/><path d="m584.640625 288.027344c-1.074219 13.773437 11.621094 17.707031 22.351563 7.15625" fill="none"/><path d="m565.5 277.832031c2.859375.179688 5.1875-2.324219 6.613281-4.113281" fill="none"/><path d="m571.578125 287.847656c2.503906.535156 6.800781-1.785156 8.234375-4.652344" fill="none"/><path d="m577.84375 304.125c2.859375 3.042969 12.515625.894531 13.769531-3.21875" fill="none"/><path d="m588.574219 303.945312c5.367187 12.519532 19.671875 11.984376 25.574219-2.144531" fill="none"/><path d="m611.46875 306.808594c2.679688 7.335937 9.476562 11.984375 20.566406 9.480468" fill="none"/><path d="m616.835938 314.320312c-6.261719 10.195313 1.960937 22.179688 15.910156 10.375" fill="none"/><path d="m620.230469 329.523438c-.710938 6.441406 5.191406 13.777343 13.238281 14.664062" fill="none"/><path d="m593.761719 310.742188c-2.148438 14.492187 8.222656 21.464843 21.28125 13.773437" fill="none"/><path d="m578.554688 317.71875c3.402343 2.683594 9.484374 3.042969 15.207031.894531" fill="none"/><path d="m600.738281 327.019531c-3.222656 12.164063 9.300781 20.929688 20.03125 7.332031" fill="none"/><path d="m583.382812 319.6875c.183594 6.261719 6.265626 13.054688 16.820313 11.089844" fill="none"/><path d="m629.714844 343.300781c-7.160156 4.828125-8.589844 13.410157 1.425781 18.953125" fill="none"/><path d="m612.179688 340.792969c.363281 7.335937 3.761718 11.449219 11.804687 12.164062" fill="none"/><path d="m601.628906 337.039062c-10.734375 9.835938-.179687 21.28125 12.519532 11.625" fill="none"/><path d="m609.140625 351.703125c-3.574219 11.269531 9.84375 18.066406 16.992187 6.617187" fill="none"/><path d="m586.960938 327.734375c-3.933594 11.089844 1.078124 18.425781 10.195312 17.707031" fill="none"/><path d="m572.835938 325.589844c.535156 6.617187 6.253906 8.941406 12.695312 7.511718" fill="none"/><path d="m576.941406 332.5625c-4.828125 9.304688 2.507813 14.3125 12.167969 10.738281" fill="none"/><path d="m618.445312 364.046875c-1.609374 5.902344-.71875 10.195313 8.046876 12.164063" fill="none"/><path d="m618.984375 372.449219c-10.558594 4.835937-11.453125 15.027343-3.222656 21.648437" fill="none"/><path d="m610.480469 361.09375c-5.542969 5.007812-4.46875 13.683594 1.613281 17.078125" fill="none"/><path d="m563.53125 328.449219c-6.082031 5.996093-.265625 22.539062 13.144531 13.503906" fill="none"/><path d="m598.410156 349.375c-8.230468 6.796875-4.46875 19.140625 9.121094 15.746094" fill="none"/><path d="m584.8125 344.1875c-4.289062 12.164062-.171875 16.457031 9.484375 16.636719" fill="none"/><path d="m554.589844 327.914062c-7.335938 5.542969-5.367188 13.417969-2.148438 16.992188 3.222656 3.578125 9.300782 1.96875 11.269532-2.679688" fill="none"/><path d="m539.203125 323.085938c-8.222656 10.550781 0 23.074218 11.632813 19.316406" fill="none"/><path d="m583.207031 354.390625c-8.410156 3.039063-14.820312 10.671875-9.660156 17.347656 3.042969 3.933594 16.273437 4.472657 20.03125-10.734375" fill="none"/><path d="m568.007812 344.546875c-4.828124 6.976563-3.222656 13.597656 5.71875 16.992187" fill="none"/><path d="m567.46875 357.605469c-5.191406 2.867187-8.585938 6.261719-7.335938 12.523437" fill="none"/><path d="m555.84375 346.695312c-1.96875 8.40625.359375 13.597657 5.539062 16.097657" fill="none"/><path d="m555.664062 356.710938c-8.050781-.539063-12.164062 2.867187-9.484374 10.730468" fill="none"/><path d="m546.898438 358.679688c-7.867188-2.863282-9.128907-9.65625-5.726563-16.8125" fill="none"/><path d="m540.097656 352.417969c-8.582031.359375-12.335937 4.652343-12.335937 10.554687" fill="none"/><path d="m528.472656 318.972656c-6.261718 2.679688-8.226562 11.089844-5.902344 15.738282 2.328126 4.648437 9.660157 5.007812 14.132813 1.96875" fill="none"/><path d="m510.941406 312.355469c-5.722656 6.4375.894532 18.960937 11.097656 15.914062" fill="none"/><path d="m496.277344 307.347656c-5.363282 7.511719.539062 20.027344 14.308594 16.453125" fill="none"/><path d="m511.300781 358.679688c-1.433593-8.945313 7.871094-14.847657 19.320313-3.222657" fill="none"/><path d="m525.078125 337.398438c-3.40625 3.035156-5.011719 7.867187-4.476563 11.796874" fill="none"/><path d="m481.609375 303.054688c-5.902344 10.015624 1.257813 19.136718 13.953125 15.558593" fill="none"/><path d="m514.703125 327.914062c-8.410156 8.40625-5.542969 16.8125.714844 21.640626" fill="none"/><path d="m509.332031 337.753906c-12.695312.175782-13.414062 14.84375-3.039062 19.496094" fill="none"/><path d="m499.675781 323.085938c-5.1875 3.574218-6.800781 13.414062 2.144531 17.347656" fill="none"/><path d="m499.316406 345.085938c-5.363281-2.503907-11.804687.535156-11.269531 6.796874" fill="none"/><path d="m491.269531 345.265625c-4.832031-11.449219-18.960937-9.480469-17.707031 2.324219" fill="none"/><path d="m495.203125 331.136719c-3.039063.535156-9.121094 2.320312-11.445313 6.976562" fill="none"/><path d="m484.652344 318.257812c-5.722656 6.4375-1.253906 14.125 3.394531 15.738282" fill="none"/><path d="m467.660156 300.191406c-1.074218 7.691406 1.96875 11.445313 11.625 10.730469" fill="none"/><path d="m471.0625 310.027344c-3.761719 9.304687 1.246094 13.414062 10.902344 12.878906" fill="none"/><path d="m473.203125 321.472656c-5.722656 6.796875-1.789063 14.132813 3.753906 17.171875" fill="none"/><path d="m470.523438 330.0625c-10.191407-1.253906-11.804688 10.550781-8.40625 16.097656" fill="none"/><path d="m462.292969 299.292969c-6.257813 2.6875-9.835938 10.554687-6.4375 15.386719 3.398437 4.828124 10.191406 3.21875 13.949219.710937" fill="none"/><path d="m457.996094 316.824219c-5.179688 7.871093-.535156 13.773437 5.011718 16.097656" fill="none"/><path d="m437.964844 298.398438c-4.109375 4.296874-1.609375 13.058593 8.410156 13.238281 8.0625.148437 12.160156-7.511719 9.660156-12.878907" fill="none"/><path d="m444.941406 311.636719c-3.214844 7.15625-1.25 14.847656 10.914063 13.597656" fill="none"/><path d="m461.039062 336.5c-7.511718-3.398438-17.527343 0-13.230468 8.941406" fill="none"/><path d="m446.734375 323.800781c-3.042969 4.292969-1.96875 10.371094 1.425781 14.128907" fill="none"/><path d="m446.195312 335.25c-5.007812.894531-9.839843 3.574219-6.796874 11.445312" fill="none"/><path d="m438.683594 340.253906c-6.441406-1.96875-14.664063 2.6875-9.660156 9.300782" fill="none"/><path d="m427.953125 343.300781c-5.546875-.898437-12.164063 5.007813-6.800781 10.910157" fill="none"/><path d="m419.011719 349.375c-5.015625 1.253906-10.910157 6.976562-5.726563 11.449219" fill="none"/><path d="m444.226562 321.292969c-7.15625 3.222656-7.871093 11.269531-4.46875 17.171875" fill="none"/><path d="m436.714844 306.453125c-10.734375 4.109375-10.554688 18.421875 1.25 22.894531" fill="none"/><path d="m432.957031 326.128906c-6.4375 3.753906-7.691406 10.910156-3.394531 15.558594" fill="none"/><path d="m421.691406 301.085938c-4.292968 1.429687-3.933594 14.664062 7.511719 14.304687" fill="none"/><path d="m409.882812 305.554688c-8.578124 5.722656 1.792969 20.214843 15.742188 9.835937" fill="none"/><path d="m417.9375 318.972656c-1.253906 5.902344.355469 12.34375 9.835938 13.058594" fill="none"/><path d="m418.472656 326.839844c-6.796875 2.507812-8.050781 16.460937 4.292969 17.527344" fill="none"/><path d="m396.828125 314.144531c-8.765625 8.046875 7.152344 15.023438 13.054687 3.394531" fill="none"/><path d="m384.667969 327.554688c-4.296875 5.1875 10.730469 18.78125 17.351562-3.933594" fill="none"/><path d="m403.625 323.265625c.355469 5.363281 3.582031 8.585937 10.191406 8.941406" fill="none"/><path d="m413.644531 337.398438c-10.558593 1.605468-13.953125 14.84375-2.148437 17.703124" fill="none"/><path d="m394.144531 335.605469c-.355469 5.007812 4.832031 9.121093 10.734375 8.226562" fill="none"/><path d="m410.242188 354.746094c-9.65625 2.144531-10.910157 14.667968-2.320313 13.949218" fill="none"/><path d="m403.445312 380.320312c-8.046874-2.410156-8.222656-11.984374-1.074218-15.558593" fill="none"/><path d="m396.828125 371.914062c-6.792969 4.117188-4.113281 13.953126-.535156 15.382813 3.578125 1.433594 6.4375-.355469 6.792969-3.398437" fill="none"/><path d="m402.550781 397.671875c.714844 4.648437-16.542969 2.859375-7.6875-11.625" fill="none"/><path d="m394.769531 398.476562c-5.808593 9.125 3.667969 16.546876 9.664063 8.765626" fill="none"/><path d="m395.578125 409.476562c-2.328125 7.335938 6.527344 12.609376 12.25 6.886719" fill="none"/><path d="m376.257812 340.792969c-3.214843 6.621093 12.882813 9.121093 13.953126-4.472657" fill="none"/><path d="m371.789062 350.628906c-3.21875 12.878906 21.105469 10.195313 14.84375-6.441406" fill="none"/><path d="m387.167969 352.777344c3.402343 1.96875 13.597656 2.144531 16.097656-8.765625" fill="none"/><path d="m395.9375 353.136719c.714844 3.394531 3.753906 7.507812 6.613281 8.761719" fill="none"/><path d="m384.308594 356.53125c-1.074219 6.976562 5.902344 12.703125 13.949218 12.164062" fill="none"/><path d="m385.558594 363.332031c-3.933594 5.363281-5.1875 15.738281 7.15625 16.453125" fill="none"/><path d="m366.78125 365.121094c-1.96875 5.542968 9.65625 11.269531 16.453125 2.144531" fill="none"/><path d="m363.199219 379.25c-.980469 4.203125 9.484375 9.835938 15.386719-8.046875" fill="none"/><path d="m373.9375 380.320312c2.5 4.472657 10.910156 8.054688 16.097656-.714843" fill="none"/><path d="m381.625 384.972656c-2.144531 6.261719 3.757812 12.164063 10.910156 10.371094" fill="none"/><path d="m368.210938 383.539062c-1.429688 8.945313 8.941406 14.132813 15.382812 9.484376" fill="none"/><path d="m361.414062 387.476562c-3.042968 11.449219 11.628907 15.738282 17.171876 7.152344" fill="none"/><path d="m374.828125 398.03125c.535156 6.441406 10.554687 11.984375 18.421875 6.617188" fill="none"/><path d="m356.945312 403.394531c-.71875 2.859375 11.265626 5.726563 13.050782-4.289062" fill="none"/><path d="m363.917969 405.898438c2.863281 7.332031 12.519531 9.125 18.0625.179687" fill="none"/><path d="m378.765625 409.65625c1.246094 6.800781 10.015625 10.554688 17.707031 5.902344" fill="none"/><path d="m399.691406 418.242188c-1.96875 9.125 7.515625 16.453124 13.417969 11.445312" fill="none"/><path d="m384.488281 416.632812c-2.863281 10.015626 9.65625 15.742188 16.636719 10.195313" fill="none"/><path d="m369.460938 411.625c-.714844 9.300781 6.617187 14.847656 15.027343 10.734375" fill="none"/><path d="m353.542969 412.515625c-2.5 6.082031 10.730469 11.089844 16.992187 5.902344" fill="none"/><path d="m345.316406 429.148438c3.398438 3.941406 15.203125 0 16.277344-8.757813" fill="none"/><path d="m358.371094 426.828125c4.296875 5.007813 14.492187 7.6875 18.605468-3.042969" fill="none"/><path d="m373.398438 429.328125c-.175782 7.695313 13.59375 13.238281 18.0625-.894531" fill="none"/><path d="m407.648438 431.210938c-1.253907 3.753906 1.699218 9.746093 7.875 10.460937" fill="none"/><path d="m396.292969 428.882812c-.894531 4.292969 5.367187 10.289063 11.980469 7.875" fill="none"/><path d="m409.527344 438.542969c-1.785156 4.652343-.265625 11.359375 5.996094 11.265625" fill="none"/><path d="m410.15625 447.214844c-4.65625 3.933594-2.683594 10.914062 4.019531 11.183594" fill="none"/><path d="m407.742188 453.835938c-6.617188 4.46875-4.296876 14.304687 4.46875 13.773437" fill="none"/><path d="m387.707031 434.875c0 9.660156 11.984375 11.089844 14.3125 2.148438" fill="none"/><path d="m397.363281 442.746094c-1.785156 5.722656 2.863281 11.269531 10.199219 9.65625" fill="none"/><path d="m398.796875 511.789062c1.609375 2.328126 8.230469-1.609374 6.4375-5.542968-1.789063-3.933594-8.796875-1.796875-8.050781 2.320312" fill="none"/><path d="m403.625 504.632812c.894531-7.871093-8.402344-9.117187-10.730469-2.320312" fill="none"/><path d="m396.292969 498.371094c2.324219-3.933594-5.542969-9.296875-8.765625-3.574219" fill="none"/><path d="m390.390625 492.46875c2.144531-5.722656-6.796875-8.222656-7.511719-3.035156" fill="none"/><path d="m380.910156 481.917969c1.070313-2.863281 11.085938-1.074219 6.796875 4.828125" fill="none"/><path d="m395.398438 493.902344c3.933593-3.574219-2.683594-10.910156-6.796876-8.222656" fill="none"/><path d="m421.871094 504.8125c-3.132813.359375-6.347656 2.414062-4.027344 9.035156 1.613281 4.59375 8.496094 4.824219 9.476562 2.054688" fill="none"/><path d="m417.308594 508.121094c-3.039063-1.96875-9.660156 1.339844-6.621094 7.78125 2.289062 4.847656 8.050781 2.863281 8.945312.355468" fill="none"/><path d="m400.226562 517.332031c1.519532 2.683594 9.121094 1.527344 10.460938-1.429687" fill="none"/><path d="m405.414062 508.480469c1.613282-1.074219 4.558594.265625 5.1875 1.605469" fill="none"/><path d="m404.878906 464.386719c-5.1875 3.398437-1.96875 13.777343 6.082032 11.089843" fill="none"/><path d="m403.265625 472.796875c-4.113281 3.21875-.355469 13.230469 7.335937 9.476563" fill="none"/><path d="m404.519531 482.273438c-2.859375 2.867187-.085937 10.824218 7.335938 9.308593" fill="none"/><path d="m403.445312 486.214844c-1.605468-.722656-5.8125-.1875-7.601562 2.5" fill="none"/><path d="m398.796875 449.988281c-3.933594 3.761719-2.058594 11.453125 5.277344 12.078125" fill="none"/><path d="m397.363281 457.859375c-5.632812 2.773437-5.632812 13.949219 5.636719 14.398437" fill="none"/><path d="m396.917969 470.46875c-3.128907 2.507812-1.609375 12.164062 6.441406 10.910156" fill="none"/><path d="m399.511719 481.023438c-1.160157 1.160156-1.339844 4.117187-.359375 5.363281" fill="none"/><path d="m395.9375 477.355469c-2.867188.089843-6.621094 2.148437-7.605469 5.097656" fill="none"/><path d="m383.144531 472.082031c1.074219-2.867187 9.925781-2.6875 10.550781 5.722657" fill="none"/><path d="m394.589844 467.785156c-1.253906.269532-3.660156 1.429688-4.289063 3.851563" fill="none"/><path d="m390.75 441.585938c-3.847656 3.488281-5.722656 14.484374 5.988281 16.632812" fill="none"/><path d="m382.964844 464.300781c0-2.957031 7.964844-5.457031 10.730468-1.074219" fill="none"/><path d="m377.871094 448.292969c1.160156 2.234375 6.707031 5.277343 10.101562 2.769531" fill="none"/><path d="m349.070312 430.761719c-.175781 5.1875 4.113282 9.835937 10.015626 9.125 5.90625-.714844 7.15625-5.902344 5.367187-9.304688" fill="none"/><path d="m359.984375 440.0625c-3.9375 4.832031.894531 11.625 5.363281 9.660156" fill="none"/><path d="m364.453125 436.664062c2.328125-.894531 10.015625-1.96875 12.34375 1.613282" fill="none"/><path d="m339.59375 438.097656c-1.789062 2.679688 9.300781 5.363282 13.054688.179688" fill="none"/><path d="m348.894531 440.957031c-.359375 3.578125 1.429688 9.660157 10.550781 7.15625" fill="none"/><path d="m360.878906 453.65625c1.429688-3.039062-5.367187-8.050781-10.554687-2.507812-5.183594 5.546874.71875 11.808593 3.933593 9.664062" fill="none"/><path d="m337.085938 441.671875c-2.679688 4.648437 7.695312 13.144531 13.597656 5.28125" fill="none"/><path d="m330.203125 449.722656c-3.761719 3.847656.890625 10.910156 6.527344 8.761719 5.628906-2.144531 5.097656-8.046875 3.753906-9.5625" fill="none"/><path d="m322.960938 456.878906c-3.042969 2.765625-.09375 9.300782 4.109374 9.300782 4.203126 0 6.800782-3.308594 5.992188-7.515626" fill="none"/><path d="m340.039062 456.339844c-.539062 4.113281 5.542969 6.972656 9.476563 3.132812" fill="none"/><path d="m349.695312 451.957031c.539063-.894531.09375-2.414062-.800781-3.128906" fill="none"/><path d="m316.429688 462.417969c-3.492188 2.777343 4.023437 10.464843 8.761718 3.402343" fill="none"/><path d="m343.347656 460.90625c-2.234375 2.140625 1.339844 7.773438 4.917969 6.074219" fill="none"/><path d="m331.09375 464.839844c.535156 3.839844 8.050781 6.703125 12.792969.800781" fill="none"/><path d="m335.210938 468.679688c-1.160157 2.417968 1.160156 6.265624 4.023437 5.730468" fill="none"/><path d="m406.394531 490.769531c-2.769531 5.460938 6.082031 11.808594 12.523438 5.1875" fill="none"/><path d="m412.835938 498.910156c-1.339844 2.949219.273437 7.070313 2.6875 8.585938" fill="none"/><path d="m404.433594 505.082031c.625-2.683593 4.46875-5.191406 7.957031-3.933593" fill="none"/><path d="m399.777344 498.015625c.539062-2.414063 3.761718-4.828125 6.175781-4.199219" fill="none"/><path d="m610.394531 386.402344c-12.699219.179687-7.335937 20.570312 3.578125 16.457031" fill="none"/><path d="m606.28125 401.425781c-2.503906 4.117188 2.324219 10.644531 7.691406 6.800781" fill="none"/><path d="m612.542969 409.035156c-3.757813 6.253906 9.65625 15.824219 15.023437 5.988282" fill="none"/><path d="m623.273438 418.777344c.175781 5.902344 17.347656 9.65625 14.84375-2.144532" fill="none"/><path d="m636.507812 423.066406c4.113282 6.980469 19.496094 7.695313 17.886719-2.675781" fill="none"/><path d="m650.992188 427.542969c3.222656 4.652343 18.246093 7.511719 17.710937-2.148438" fill="none"/><path d="m590.007812 368.695312c2.140626 5.546876 9.472657 7.515626 17.523438 4.292969" fill="none"/><path d="m585.351562 372.628906c5.007813 3.222656-2.324218 17.886719-10.015624 11.984375" fill="none"/><path d="m585.351562 381.753906c5.542969 2.679688 12.34375.71875 14.3125-7.15625" fill="none"/><path d="m596.261719 380.679688c.535156 4.113281 6.441406 7.335937 14.132812 5.722656" fill="none"/><path d="m582.492188 384.972656c7.15625 6.082032-3.21875 18.601563-7.871094 12.878906" fill="none"/><path d="m585.179688 389.621094c3.394531 2.507812 12.15625 1.074218 13.050781-5.542969" fill="none"/><path d="m594.296875 389.621094c.71875 4.296875 4.113281 5.902344 8.941406 6.082031" fill="none"/><path d="m583.207031 395.523438c3.578125 5.007812 12.519531 6.441406 16.457031-.179688" fill="none"/><path d="m595.726562 399.105469c-.355468 4.828125 5.011719 8.761719 10.554688 7.6875" fill="none"/><path d="m576.230469 409.835938c4.648437 2.324218 9.660156-6.441407 5.726562-12.523438" fill="none"/><path d="m581.597656 419.132812c5.542969.359376 6.261719-8.042968 1.074219-12.699218" fill="none"/><path d="m594.296875 426.828125c4.648437-1.074219 3.21875-11.269531-8.050781-12.164063" fill="none"/><path d="m608.425781 434.335938c4.46875-1.246094.894531-12.515626-11.441406-11.796876" fill="none"/><path d="m625.421875 438.277344c3.035156-4.652344-6.976563-12.523438-15.207031-8.410156" fill="none"/><path d="m633.820312 444.714844c5.550782 1.605468 9.304688-13.058594-8.222656-10.730469" fill="none"/><path d="m644.015625 444.714844c4.835937-1.253906 8.234375-10.019532-5.898437-7.15625" fill="none"/><path d="m654.753906 445.425781c4.289063 2.148438 6.261719-10.371093-6.800781-6.96875" fill="none"/><path d="m582.671875 406.433594c5.367187 3.042968 13.773437-.535156 13.054687-7.328125" fill="none"/><path d="m593.578125 405.007812c1.792969 3.21875 1.070313 9.476563-2.324219 11.089844" fill="none"/><path d="m594.113281 412.515625c3.582031 1.433594 8.410157.179687 11.269531-5.542969" fill="none"/><path d="m600.378906 412.515625c1.070313 2.507813 1.433594 7.515625-.898437 10.023437" fill="none"/><path d="m601.273438 416.8125c3.933593 2.144531 8.585937-.714844 10.546874-4.832031" fill="none"/><path d="m609.320312 415.558594c2.859376 1.785156 5.367188 10.195312.539063 13.589844" fill="none"/><path d="m612.542969 425.214844c3.398437.179687 8.402343.179687 11.621093-4.109375" fill="none"/><path d="m621.84375 423.425781c3.042969.894531 6.613281 5.902344 5.363281 10.378907" fill="none"/><path d="m627.382812 432.195312c3.40625-.359374 9.304688-2.6875 10.914063-6.800781" fill="none"/><path d="m636.6875 428.082031c2.863281 1.605469 4.832031 5.007813 4.46875 8.941407" fill="none"/><path d="m641.15625 434.160156c3.398438-.175781 6.441406-1.964844 7.335938-5.726562" fill="none"/><path d="m647.597656 430.941406c2.503906.894532 5.542969 3.753906 5.730469 7.15625" fill="none"/><path d="m652.960938 435.949219c2.507812-.359375 4.292968-1.964844 5.90625-4.472657" fill="none"/><path d="m665.664062 431.121094c3.222657 3.214844-1.070312 13.953125-7.695312 11.984375" fill="none"/><path d="m596.984375 214.332031c-6.625 3.941407-25.40625 2.6875-16.105469-12.871093" fill="none"/><path d="m598.769531 203.78125c-13.054687 5.1875-29.15625-4.828125-12.34375-15.738281" fill="none"/><path d="m581.957031 184.464844c-10.917969 0-18.246093 17.53125-3.578125 23.605468" fill="none"/><path d="m539.566406 191.796875c-2.863281 5.542969 7.332032 11.625 14.308594 6.082031 5.402344-4.296875 5.007812-15.917968 1.789062-20.386718" fill="none"/><path d="m534.015625 205.035156c-3.574219 11.804688 22.722656 12.523438 18.605469-6.261718" fill="none"/><path d="m532.589844 222.5625c.890625 8.941406 25.222656 6.082031 17.34375-11.984375" fill="none"/><path d="m552.800781 205.570312c1.96875 2.679688 7.332031 7.335938 16.453125 6.441407" fill="none"/><path d="m557.089844 192.871094c.808594 3.222656 6.261718 5.722656 13.238281 3.308594" fill="none"/><path d="m313.03125 465.011719c-6.171875 4.382812 3.308594 11.269531 6.792969 3.667969" fill="none"/><path d="m308.195312 468.417969c-6.167968 4.378906 3.316407 11.265625 6.800782 3.664062" fill="none"/><path d="m303.101562 471.722656c-6.171874 4.382813 3.3125 11.269532 6.800782 3.667969" fill="none"/><path d="m297.738281 474.761719c-5.902343 3.128906.980469 10.824219 6.976563 4.027343" fill="none"/><path d="m291.921875 477.71875c-5.902344 3.125.988281 10.816406 6.976563 4.019531" fill="none"/><path d="m321.886719 468.503906c-.09375 4.558594 8.582031 6.441406 11.710937-.363281" fill="none"/><path d="m327.339844 472.710938c-2.679688 3.394531 2.234375 7.601562 4.917968 6.078124" fill="none"/><path d="m315.804688 472.082031c-.269532 3.847657 7.242187 6.082031 10.910156 1.875" fill="none"/><path d="m319.917969 476.105469c-2.414063 3.132812 2.328125 7.335937 5.363281 6.078125" fill="none"/><path d="m310.796875 475.570312c.265625 3.042969 4.558594 6.527344 9.207031 4.554688" fill="none"/><path d="m313.570312 479.683594c-1.792968 1.609375-.898437 5.371094 1.605469 6.53125" fill="none"/><path d="m304.265625 479.410156c-.71875 2.773438 4.023437 7.695313 8.851563 4.476563" fill="none"/><path d="m305.25 482.632812c-2.863281 2.234376-2.503906 5.636719 1.164062 6.082032" fill="none"/><path d="m298.359375 482.273438c-.355469 1.878906 2.0625 4.921874 5.101563 4.5625" fill="none"/><path d="m283.070312 482.097656c-2.863281 1.519532 4.472657 9.296875 9.03125 2.054688" fill="none"/><path d="m276.003906 485.3125c-3.574218 1.703125 5.277344 10.289062 9.210938 1.523438" fill="none"/><path d="m299.167969 484.957031c-2.769531.628907-4.5625 4.652344-2.238281 6.257813" fill="none"/><path d="m290.136719 486.386719c-.359375 1.613281 3.039062 4.292969 5.808593 3.308593" fill="none"/><path d="m287.808594 487.105469c-2.679688 1.703125-1.253906 6.4375 1.878906 5.722656" fill="none"/><path d="m278.238281 490.234375c-2.5 1.875-.800781 5.636719 2.6875 4.742187" fill="none"/><path d="m282.800781 489.96875c.09375.980469 2.328125 2.5 4.207031 1.878906" fill="none"/><path d="m269.5625 488.355469c-3.125 1.339843-2.949219 9.214843 7.605469 4.921875" fill="none"/><path d="m262.5 491.488281c-4.382812 2.148438-2.953125 8.050781 6.621094 2.414063" fill="none"/><path d="m269.921875 494.351562c-1.160156.894532-2.414063 4.828126 1.96875 3.304688" fill="none"/><path d="m261.875 496.230469c-1.789062 1.605469-.628906 4.917969 3.3125 3.660156" fill="none"/><path d="m252.664062 496.761719c-3.21875 1.882812 3.847657 4.386719 8.582032-.625" fill="none"/><path d="m254.8125 499.089844c-1.433594 1.429687-1.433594 5.628906 2.320312 4.113281" fill="none"/><path d="m245.6875 500.785156c-2.144531 1.613282 1.519531 3.761719 8.230469.808594" fill="none"/><path d="m248.371094 503.113281c-2.503906 2.058594-2.234375 4.652344 1.425781 3.847657" fill="none"/><path d="m240.945312 504.273438c-2.765624 2.507812 1.253907 4.207031 6.082032 2.148437" fill="none"/><path d="m241.039062 507.054688c-4.742187 2.140624-2.6875 6.074218.265626 4.554687" fill="none"/><path d="m399.332031 520.730469c-1.101562 2.367187 2.507813 4.292969 5.902344 3.753906 3.265625-.507813 6.386719-3.199219 3.933594-6.972656" fill="none"/><path d="m409.347656 522.164062c3.222656 2.503907 8.945313-.359374 8.945313-4.121093" fill="none"/><path d="m606.640625 143.148438c-14.3125-7.15625-44-20.394532-52.410156-9.65625 7.6875-3.222657 30.226562.175781 48.828125 17.347656zm0 0" fill="#fff" fill-rule="evenodd"/><path d="m615.316406 142.390625c-16.546875-19.277344-26.292968-14.960937-38.191406-21.601563-11.175781-6.238281-28.976562-7.511718-32.425781 2.410157 16.328125-7.953125 31.320312 4.273437 40.527343 5.757812 12.648438 2.027344 19.785157 11.804688 23.484376 16.300781zm0 0" fill="#fff" fill-rule="evenodd"/><path d="m677.648438 139.925781c-8.589844-19.671875-26.949219-14.535156-35.058594-22.894531-11.800782-12.160156-41.671875-23.425781-54.015625-15.023438 27.1875-1.433593 38.765625 18.738282 53.296875 25.757813 10.378906 5.007813 21.464844 15.738281 35.777344 12.160156zm0 0" fill="#fff" fill-rule="evenodd"/><path d="m645.453125 137.78125c-14.664063-18.246094-37.207031-34.339844-47.578125-28.261719 13.59375.71875 17.886719 10.195313 27.546875 16.277344s5.367187 14.84375 20.03125 11.984375zm0 0" fill="#fff" fill-rule="evenodd"/><path d="m575.695312 169.976562c-15.386718-5.722656-45.433593-8.582031-59.386718 8.945313 23.257812 3.933594 58.3125 1.785156 59.386718-8.945313zm0 0" fill="#fff" fill-rule="evenodd"/><path d="m572.835938 176.773438c-15.386719-7.15625-27.398438 2.835937-41.855469 1.433593-27.546875-2.6875-47.222657-1.074219-49.726563 12.164063 15.742188-14.132813 42.210938-2.507813 52.941406-5.367188 10.738282-2.863281 50.445313-.359375 62.960938 5.007813-6.441406-7.871094-16.453125-10.019531-24.320312-13.238281zm0 0" fill="#fff" fill-rule="evenodd"/><path d="m621.125 135.8125c-3.574219-11.804688-3.398438-24.328125 14.308594-23.433594-4.472656-5.542968-20.925782-8.402344-23.613282 12.34375-19.492187-14.304687-40.78125-16.8125-44.710937-4.46875 10.015625-8.589844 25.578125-2.328125 44.175781 18.78125 1.609375-.894531 5.902344-2.683594 9.839844-3.222656zm0 0" fill="#fff" fill-rule="evenodd"/><path d="m594.296875 152.089844c-11.089844-7.152344-26.117187-18.777344.179687-23.433594-11.269531-6.074219-27.726562-3.394531-25.933593 17.351562-30.050781-12.160156-51.632813-8.058593-56.167969 3.9375-5.007812 13.234376 13.597656 20.570313 16.8125 12.164063-3.394531 1.425781-15.023438-2.507813-8.941406-10.019531 6.082031-7.507813 37.246094-1.875 66.894531 13.59375 8.230469 4.292968 36.488281 3.574218 7.15625-13.59375zm0 0" fill="#fff" fill-rule="evenodd"/><path d="m586.425781 171.765625c-8.554687-17.46875-36.3125-1.609375-41.90625-18.53125-7.636719 24.792969 39.472657 11.074219 41.90625 18.53125zm0 0" fill="#fff" fill-rule="evenodd"/><path d="m762.964844 190.726562c5.824218 2.894532 10.851562-1.652343 1.949218-5.222656 5.828126 2.890625 10.90625-1.546875 2.003907-5.109375 5.824219 2.882813 10.902343-1.546875 2-5.117187-2.375 2.390625-5.773438 11.152344-5.953125 15.449218zm0 0" fill="#fff" fill-rule="evenodd"/><path d="m766.003906 157.097656c12.878906-13.59375-1.066406-18.242187 14.664063-32.195312 12.878906-11.414063 2.460937-19.023438 14.675781-27.902344 3.933594-2.859375 12.515625-8.582031 13.234375-14.308594 5.1875 12.875-16.101563 14.667969-14.671875 35.414063.914062 13.210937-8.015625 12.058593-11.441406 34.339843-.722656 4.652344-3.9375 15.03125-16.460938 4.652344zm0 0" fill="#fff" fill-rule="evenodd"/><path d="m771.734375 163.179688c7.148437-15.382813 15.363281-15.082032 19.3125-21.105469 7.515625-11.449219 23.429687 1.96875 36.84375-8.226563-2.320313 14.488282-20.386719 9.300782-28.253906 18.597656-7.871094 9.304688-14.3125 13.597657-27.902344 10.734376zm0 0" fill="#fff" fill-rule="evenodd"/><path d="m773.519531 168.1875c12.519531-10.015625 21.75-3.332031 30.410157-8.585938 21.8125-13.234374 30.585937 2.683594 50.078124-3.574218-5.191406 12.515625-33.984374 1.785156-46.503906 11.089844-12.523437 9.300781-56.523437 18.238281-33.984375 1.070312zm0 0" fill="#fff" fill-rule="evenodd"/><path d="m737.035156 239.554688c-.1875-5.722657-5.550781-13.058594-13.058594-13.953126-7.515624-.890624-10.738281-8.761718-16.457031-9.121093-5.722656-.355469-9.484375-11.804688-17.355469-11.625-7.867187.179687-11.082031 10.375 7.335938 19.671875 18.421875 9.304687 38.816406 20.035156 39.535156 15.027344zm0 0" fill="#fff" fill-rule="evenodd"/><path d="m713.773438 244.382812c-7.863282.359376-8.941407 11.808594-16.449219 12.164063 10.367187 5.546875 17.882812-2.503906 23.246093-9.65625zm0 0" fill="#fff" fill-rule="evenodd"/><path d="m720.214844 245.816406c-6.792969 5.722656-8.761719 17.707032 1.074218 21.105469-5.902343-8.136719 10.378907-11.804687 5.363282-19.320313zm0 0" fill="#fff" fill-rule="evenodd"/><path d="m727.011719 246.175781c-5.363281 10.371094 8.410156 11.625 4.828125 19.492188 7.875-1.785157 9.125-16.632813 1.972656-20.566407zm0 0" fill="#fff" fill-rule="evenodd"/><path d="m674.425781 223.996094c12.878907-.714844 24.65625 6.25 32.554688 17.527344 5.011719 7.152343 21.824219 10.015624 27.546875 4.292968s2.507812-17.886718-11.804688-13.953125c-3.582031-6.082031-13.957031-3.933593-18.957031-8.941406-5.011719-5.007813-24.332031-19.320313-29.339844 1.074219zm0 0" fill="#fff" fill-rule="evenodd"/></g><path d="m722.722656 231.863281c-3.398437.714844-4.472656 6.617188-2.328125 9.660157zm0 0" fill="#fff" fill-rule="evenodd"/><path d="m722.722656 231.863281c-3.398437.714844-4.472656 6.617188-2.328125 9.660157" fill="none" stroke="#000" stroke-width=".555556"/><path d="m730.058594 235.445312c1.070312 1.785157.355468 4.289063-.179688 5.542969zm0 0" fill="#fff" fill-rule="evenodd"/><path d="m730.058594 235.445312c1.070312 1.785157.355468 4.289063-.179688 5.542969" fill="none" stroke="#000" stroke-width=".555556"/><path d="m694.820312 224.527344c6.613282.359375 7.871094 5.191406 15.019532 6.976562zm0 0" fill="#fff" fill-rule="evenodd"/><path d="m694.820312 224.527344c6.613282.359375 7.871094 5.191406 15.019532 6.976562" fill="none" stroke="#000" stroke-width=".555556"/><path d="m690.453125 208.25c22.851563 5.726562 40.988281 10.738281 52.234375 17.171875 11.242188 6.441406 28.65625 8.230469 43.890625 3.941406 15.234375-4.296875 44.617187-8.230469 43.167969 10.730469 7.988281-9.484375-2.175782-19.679688-22.492188-21.464844.367188-9.300781-9.585937-17.707031-16.742187-12.164062 6.617187-.894532 12.332031 11.449218-.722657 16.457031 2.535157-9.304687-6.71875-17.707031-16.324218-13.59375 6.164062 1.789063 12.402344 12.128906-1.394532 16.09375-8.707031 2.507813-21.402343-.710937-30.832031-6.433594-9.433593-5.730469-62.398437-26.476562-50.785156-10.738281zm0 0" fill="#fff" fill-rule="evenodd" stroke="#000" stroke-width=".555556"/><path d="m748.121094 198.953125c-7.15625 3.214844-2.503906 10.730469-13.59375 15.023437-11.089844 4.296876-18.78125 14.132813-16.277344 22.535157 7.515625-16.453125 20.746094-15.738281 25.398438-22.179688 4.652343-6.4375 11.445312-15.917969 4.472656-15.378906zm0 0" fill="#fff" fill-rule="evenodd" stroke="#000" stroke-width=".555556"/><path d="m750.085938 200.027344c-.355469 13.058594-10.632813 8.300781-6.617188 26.648437 1.253906 5.722657 3.578125 15.023438-.359375 24.328125 11.539063-8.410156 4.117187-26.070312 9.304687-32.730468 2.5-3.222657 5.71875-8.230469 6.976563-12.523438-2.683594 7.507812-2.507813 21.464844 4.828125 25.039062-5.902344-13.949218 15.917969-25.394531.890625-41.492187-2.144531 3.933594-8.941406 10.910156-15.023437 10.730469zm0 0" fill="#fff" fill-rule="evenodd" stroke="#000" stroke-width=".555556"/><path d="m713.597656 186.96875c1.789063 2.683594 3.578125 9.476562 1.96875 13.238281 3.574219-2.148437 8.765625-7.695312 10.371094-11.449219 7.335938 1.074219 10.195312 10.195313 3.222656 14.128907 4.292969 0 11.628906 0 15.738282-4.828125-5.003907-5.546875-20.566407-14.128906-31.300782-11.089844zm0 0" fill="#fff" fill-rule="evenodd" stroke="#000" stroke-width=".555556"/><path d="m602.34375 161.308594c-1.160156-1.054688-3.113281-2.058594-6.617188-2.78125-10.832031-2.21875-5.238281-11.976563 3.980469-11.890625 19.671875-21.46875 30.71875-4.921875 54.6875-11.71875 8.386719-2.375 14.148438-1.671875 18.71875.304687 10.730469-7.15625 23.316407-5.15625 32.441407 3.25 1.015624-1.613281 2.378906-2.84375 4.285156-3.375 8.40625-2.332031 15.203125 4.832032 17.527344 14.132813 6.546874-1.214844 14.027343 2.027343 18.953124 6.5 6.816407-3.5 11.507813-3.660157 13.234376-.054688 6.085937-2.867187 13.964843-4.660156 17.898437 5.003907 3.9375 9.65625-9.300781 6.796874-11.449219 27.183593-1.324218 12.582031-15.378906 17.53125-26.46875 10.015625-17.742187-12.019531-35.058594-13.949218-43.648437 4.289063-8.582031 18.246093-15.308594 28.847656-36.128907 22.898437-7.507812-2.144531-17.167968.714844-23.25 8.945313-6.082031 8.222656-15.382812.535156-26.46875 1.433593 13.945313-2.148437 8.601563-5.660156 20.75-6.441406 11.082032-.714844 8.226563-11.089844 15.375-12.523437-27.902343 7.160156-26.828124-3.222657-49.71875 3.933593 10.011719-12.878906 25.753907-5.722656 33.621094-13.230468-20.746094-.359375-30.023437-13.917969-39.351562-8.230469-14.660156 8.941406-8.226563 34.40625-46.503906 32.195313-18.597657-1.070313-30.402344 1.429687-41.492188 12.519531 19.320312-40.066407 45.59375-18.054688 58.308594-30.761719 7.515625-7.511719 13.234375-13.238281 17.175781-20.394531 1.382813-2.515625 3.253906-3.953125 5.597656-4.511719-31.835937-10.015625-12.582031-25.621094 18.542969-26.691406zm0 0" fill="#fff" fill-rule="evenodd" stroke="#000" stroke-width=".555556"/><path d="m759.546875 155.679688c.484375 1.003906.734375 2.3125.734375 3.921874 0 7.875-11.804688 8.230469-12.515625 19.859376-.375 6.074218-1.074219 9.476562-5.195313 8.761718-4.109374-.71875-7.6875-7.15625-3.753906-14.664062zm0 0" fill="#fff" fill-rule="evenodd"/><path d="m759.546875 155.679688c.484375 1.003906.734375 2.3125.734375 3.921874 0 7.875-11.804688 8.230469-12.515625 19.859376-.375 6.074218-1.074219 9.476562-5.195313 8.761718-4.109374-.71875-7.6875-7.15625-3.753906-14.664062" fill="none" stroke="#000" stroke-width=".555556"/><path d="m608.246094 149.585938c-2.960938-2.082032-5.929688-2.925782-8.582032-2.949219zm0 0" fill="#fff" fill-rule="evenodd"/><path d="m608.246094 149.585938c-2.960938-2.082032-5.929688-2.925782-8.582032-2.949219" fill="none" stroke="#000" stroke-width=".555556"/><path d="m673.046875 135.160156c9.472656 4.105469 14.089844 13.945313 27.851563 14.425782 13.246093.460937 21.464843 19.671874 43.644531 7.152343.601562-.335937 1.1875-.652343 1.757812-.945312zm0 0" fill="#fff" fill-rule="evenodd"/><path d="m673.046875 135.160156c9.472656 4.105469 14.089844 13.945313 27.851563 14.425782 13.246093.460937 21.464843 19.671874 43.644531 7.152343.601562-.335937 1.1875-.652343 1.757812-.945312" fill="none" stroke="#000" stroke-width=".555556"/><path d="m705.554688 138.472656c-1.972657 3.144532-2.425782 7.527344-1.882813 11.382813zm0 0" fill="#fff" fill-rule="evenodd"/><path d="m705.554688 138.472656c-1.972657 3.144532-2.425782 7.527344-1.882813 11.382813" fill="none" stroke="#000" stroke-width=".555556"/><path d="m662.261719 178.921875c-16.808594 0-21.105469 8.582031-21.105469 16.8125 0 8.226563 7.871094 18.957031 21.828125 18.957031 13.949219 0 21.460937-8.582031 21.460937-17.886718 0-9.300782-8.589843-17.882813-22.183593-17.882813zm0 0" fill="#fff" fill-rule="evenodd" stroke="#000" stroke-width=".555556"/><path d="m665.304688 214.332031c-.359376-4.648437-8.761719-3.933593-8.410157-7.507812.359375-3.578125 4.65625-5.007813 4.65625-10.019531 0-5.007813 7.507813-5.367188 10.015625-1.425782 2.5 3.933594 10.015625 11.625 11.625 7.6875zm0 0" fill="#fff" fill-rule="evenodd"/><path d="m665.304688 214.332031c-.359376-4.648437-8.761719-3.933593-8.410157-7.507812.359375-3.578125 4.65625-5.007813 4.65625-10.019531 0-5.007813 7.507813-5.367188 10.015625-1.425782 2.5 3.933594 10.015625 11.625 11.625 7.6875" fill="none" stroke="#000" stroke-width=".555556"/><path d="m671.566406 195.378906c-3.941406 3.933594-5.726562 11.984375-.539062 18.238282zm0 0" fill="#fff" fill-rule="evenodd"/><path d="m671.566406 195.378906c-3.941406 3.933594-5.726562 11.984375-.539062 18.238282" fill="none" stroke="#000" stroke-width=".555556"/><path d="m676.933594 201.460938c-1.253906 2.679687-1.609375 6.789062-.179688 9.296874zm0 0" fill="#fff" fill-rule="evenodd"/><path d="m676.933594 201.460938c-1.253906 2.679687-1.609375 6.789062-.179688 9.296874" fill="none" stroke="#000" stroke-width=".555556"/><path d="m743.734375 188.3125c13.148437 1.070312 15.386719-13.414062 5.550781-14.3125" fill="none" stroke="#000" stroke-width=".555556"/><path d="m727.550781 149.230469c-4.558593-5.816407-15.023437-7.78125-15.203125 4.5625" fill="none" stroke="#000" stroke-width=".555556"/><path d="m711.09375 167.832031c-4.46875-11.09375-15.917969-12.699219-22.003906-7.152343-5.054688 4.609374-5.179688 16.632812 5.730468 19.132812 3.753907-4.472656 11.089844-10.375 16.273438-11.980469zm0 0" fill="#fff" fill-rule="evenodd" stroke="#000" stroke-width=".555556"/><path d="m706.171875 160.855469c-6.4375-5.722657-15.917969 5.09375-7.328125 15.023437zm0 0" fill="#fff" fill-rule="evenodd"/><path d="m706.171875 160.855469c-6.4375-5.722657-15.917969 5.09375-7.328125 15.023437" fill="none" stroke="#000" stroke-width=".555556"/><path d="m727.550781 149.230469c-3.933593-4.207031-12.515625-.894531-10.109375 7.601562 1.882813-3.933593 5.90625-7.246093 10.109375-7.601562zm0 0" fill-rule="evenodd"/><path d="m703.234375 172.140625c2.710937-1.964844 5.507813-3.582031 7.859375-4.308594-1.285156-3.183593-3.140625-5.585937-5.28125-7.265625-2.046875-1.40625-7.929688 6.496094-2.578125 11.574219zm0 0" fill-rule="evenodd"/><path d="m692.671875 157.632812c-6.441406-4.292968-12.34375-3.933593-14.3125-.359374-4.644531-.175782-8.492187 3.226562-8.675781 10.023437" fill="none" stroke="#000" stroke-width=".555556"/><path d="m679.617188 170.15625c-7.695313-5.273438-18.246094-3.308594-17.53125 8.496094" fill="none" stroke="#000" stroke-width=".555556"/><path d="m657.433594 185.355469c3.753906-3.035157 9.121094-5.183594 13.238281.179687" fill="none" stroke="#000" stroke-width=".555556"/><path d="m714.847656 173.734375c-1.425781 1.964844-2.5 5.007813-.179687 9.660156-2.855469-3.761719-10.011719-3.761719-17.707031 6.257813" fill="none" stroke="#000" stroke-width=".555556"/><path d="m731.839844 173.199219c-9.296875 1.070312-9.117188 7.152343-1.609375 9.835937" fill="none" stroke="#000" stroke-width=".555556"/><path d="m665.664062 150.484375c-7.875-1.613281-13.597656 3.035156-2.679687 6.96875" fill="none" stroke="#000" stroke-width=".555556"/><path d="m680.691406 145.117188c-11.09375-2.683594-15.566406.171874-10.558594 2.679687" fill="none" stroke="#000" stroke-width=".555556"/><path d="m648.671875 189.652344c-.359375 3.933594 1.785156 9.121094 8.222656 3.21875" fill="none" stroke="#000" stroke-width=".555556"/><path d="m650.820312 201.460938c0 1.066406-.179687 2.320312-.902343 3.214843" fill="none" stroke="#000" stroke-width=".555556"/><path d="m625.058594 149.050781c-6.796875-1.96875-8.042969-8.230469-.171875-7.695312" fill="none" stroke="#000" stroke-width=".555556"/><path d="m622.738281 163.535156c-7.515625-2.5-7.515625-9.835937-1.257812-9.117187" fill="none" stroke="#000" stroke-width=".555556"/><path d="m636.6875 159.78125c-8.769531-2.148438-9.121094-8.230469-2.503906-7.335938" fill="none" stroke="#000" stroke-width=".555556"/><path d="m637.761719 141.179688c-4.652344-.359376-11.804688 4.828124.175781 7.871093" fill="none" stroke="#000" stroke-width=".555556"/><path d="m650.820312 151.550781c-10.910156-1.605469-10.734374 2.867188-4.296874 5.722657" fill="none" stroke="#000" stroke-width=".555556"/><path d="m659.042969 141.179688c-8.402344-1.609376-11.269531 3.402343-5.542969 5.542968" fill="none" stroke="#000" stroke-width=".555556"/><path d="m632.574219 172.125c-2.0625-1.699219-3.753907-9.839844 6.074219-7.421875" fill="none" stroke="#000" stroke-width=".555556"/><path d="m652.960938 169.617188c-6.613282-1.785157-12.875 4.652343-6.796876 8.410156" fill="none" stroke="#000" stroke-width=".555556"/><path d="m661.722656 161.929688c-6.96875-1.25-12.871094.710937-9.117187 3.21875" fill="none" stroke="#000" stroke-width=".555556"/><path d="m583.679688 187.957031c4.308593-1.019531 10.613281 1.082031 20.277343 5.628907 6.082031 2.859374 24.324219 8.941406 35.769531 2.859374-11.808593 4.296876-20.742187-13.589843-29.6875-11.441406-8.949218 2.144532-25.3125 5.453125-32.195312-1.074218 16.804688 1.074218 25.851562-12.25 45.066406-.714844 5.371094 3.214844 12.171875 5.363281 18.246094 5.007812-15.734375-18.964844-36.484375-6.800781-38.632812-22.179687 9.484374 10.195312 32.644531-2.328125 44.449218 16.8125zm0 0" fill="#fff" fill-rule="evenodd"/><path d="m583.679688 187.957031c4.308593-1.019531 10.613281 1.082031 20.277343 5.628907 6.082031 2.859374 24.324219 8.941406 35.769531 2.859374-11.808593 4.296876-20.742187-13.589843-29.6875-11.441406-8.949218 2.144532-25.3125 5.453125-32.195312-1.074218 16.804688 1.074218 25.851562-12.25 45.066406-.714844 5.371094 3.214844 12.171875 5.363281 18.246094 5.007812-15.734375-18.964844-36.484375-6.800781-38.632812-22.179687 9.484374 10.195312 32.644531-2.328125 44.449218 16.8125" fill="none" stroke="#000" stroke-width=".555556"/><path d="m727.179688 149.230469c-3.933594.730469-7.453126 3.039062-9.738282 7.601562zm0 0" fill="#fff" fill-rule="evenodd"/><path d="m727.179688 149.230469c-3.933594.730469-7.453126 3.039062-9.738282 7.601562" fill="none" stroke="#000" stroke-width=".555556"/><path d="m605.925781 168.894531c-2.214843-2.753906-1.210937-5.5-3.585937-7.667969zm0 0" fill="#fff" fill-rule="evenodd"/><path d="m605.925781 168.894531c-2.214843-2.753906-1.210937-5.5-3.585937-7.667969" fill="none" stroke="#000" stroke-width=".555556"/></svg>