<?xml version="1.0" encoding="UTF-8"?>
<svg xmlns="http://www.w3.org/2000/svg" xmlns:xlink="http://www.w3.org/1999/xlink" width="128pt" height="64pt" viewBox="0 0 128 64" version="1.1">
<g id="surface151">
<rect x="0" y="0" width="128" height="64" style="fill:rgb(0%,13.725281%,58.430481%);fill-opacity:1;stroke:none;"/>
<path style=" stroke:none;fill-rule:evenodd;fill:rgb(99.606323%,79.606628%,0%);fill-opacity:1;" d="M 33.921875 0 L 97.921875 0 L 97.921875 64 Z M 33.921875 0 "/>
<path style="fill-rule:nonzero;fill:rgb(99.998474%,99.998474%,99.998474%);fill-opacity:1;stroke-width:1;stroke-linecap:square;stroke-linejoin:miter;stroke:rgb(99.998474%,99.998474%,99.998474%);stroke-opacity:1;stroke-miterlimit:3.239307;" d="M 20.191406 -0.00390625 L 18.828125 4.199219 L 22.398438 1.601562 L 25.972656 4.199219 L 24.609375 -0.00390625 L 28.183594 -2.597656 L 23.765625 -2.597656 L 22.398438 -6.800781 L 21.035156 -2.597656 L 16.617188 -2.597656 Z M 20.191406 -0.00390625 "/>
<path style="fill-rule:nonzero;fill:rgb(99.998474%,99.998474%,99.998474%);fill-opacity:1;stroke-width:1;stroke-linecap:square;stroke-linejoin:miter;stroke:rgb(99.998474%,99.998474%,99.998474%);stroke-opacity:1;stroke-miterlimit:3.239307;" d="M 28.191406 7.996094 L 26.828125 12.199219 L 30.398438 9.601562 L 33.972656 12.199219 L 32.609375 7.996094 L 36.183594 5.402344 L 31.765625 5.402344 L 30.398438 1.199219 L 29.035156 5.402344 L 24.617188 5.402344 Z M 28.191406 7.996094 "/>
<path style="fill-rule:nonzero;fill:rgb(99.998474%,99.998474%,99.998474%);fill-opacity:1;stroke-width:1;stroke-linecap:square;stroke-linejoin:miter;stroke:rgb(99.998474%,99.998474%,99.998474%);stroke-opacity:1;stroke-miterlimit:3.239307;" d="M 36.191406 15.996094 L 34.828125 20.199219 L 38.398438 17.601562 L 41.972656 20.199219 L 40.609375 15.996094 L 44.183594 13.402344 L 39.765625 13.402344 L 38.398438 9.199219 L 37.035156 13.402344 L 32.617188 13.402344 Z M 36.191406 15.996094 "/>
<path style="fill-rule:nonzero;fill:rgb(99.998474%,99.998474%,99.998474%);fill-opacity:1;stroke-width:1;stroke-linecap:square;stroke-linejoin:miter;stroke:rgb(99.998474%,99.998474%,99.998474%);stroke-opacity:1;stroke-miterlimit:3.239307;" d="M 44.191406 23.996094 L 42.828125 28.199219 L 46.398438 25.601562 L 49.972656 28.199219 L 48.609375 23.996094 L 52.183594 21.402344 L 47.765625 21.402344 L 46.398438 17.199219 L 45.035156 21.402344 L 40.617188 21.402344 Z M 44.191406 23.996094 "/>
<path style="fill-rule:nonzero;fill:rgb(99.998474%,99.998474%,99.998474%);fill-opacity:1;stroke-width:1;stroke-linecap:square;stroke-linejoin:miter;stroke:rgb(99.998474%,99.998474%,99.998474%);stroke-opacity:1;stroke-miterlimit:3.239307;" d="M 52.191406 31.996094 L 50.828125 36.199219 L 54.398438 33.601562 L 57.972656 36.199219 L 56.609375 31.996094 L 60.183594 29.402344 L 55.765625 29.402344 L 54.398438 25.199219 L 53.035156 29.402344 L 48.617188 29.402344 Z M 52.191406 31.996094 "/>
<path style="fill-rule:nonzero;fill:rgb(99.998474%,99.998474%,99.998474%);fill-opacity:1;stroke-width:1;stroke-linecap:square;stroke-linejoin:miter;stroke:rgb(99.998474%,99.998474%,99.998474%);stroke-opacity:1;stroke-miterlimit:3.239307;" d="M 60.191406 39.996094 L 58.828125 44.199219 L 62.398438 41.601562 L 65.972656 44.199219 L 64.609375 39.996094 L 68.183594 37.402344 L 63.765625 37.402344 L 62.398438 33.199219 L 61.035156 37.402344 L 56.617188 37.402344 Z M 60.191406 39.996094 "/>
<path style="fill-rule:nonzero;fill:rgb(99.998474%,99.998474%,99.998474%);fill-opacity:1;stroke-width:1;stroke-linecap:square;stroke-linejoin:miter;stroke:rgb(99.998474%,99.998474%,99.998474%);stroke-opacity:1;stroke-miterlimit:3.239307;" d="M 68.191406 47.996094 L 66.828125 52.199219 L 70.398438 49.601562 L 73.972656 52.199219 L 72.609375 47.996094 L 76.183594 45.402344 L 71.765625 45.402344 L 70.398438 41.199219 L 69.035156 45.402344 L 64.617188 45.402344 Z M 68.191406 47.996094 "/>
<path style="fill-rule:nonzero;fill:rgb(99.998474%,99.998474%,99.998474%);fill-opacity:1;stroke-width:1;stroke-linecap:square;stroke-linejoin:miter;stroke:rgb(99.998474%,99.998474%,99.998474%);stroke-opacity:1;stroke-miterlimit:3.239307;" d="M 76.191406 55.996094 L 74.828125 60.199219 L 78.398438 57.601562 L 81.972656 60.199219 L 80.609375 55.996094 L 84.183594 53.402344 L 79.765625 53.402344 L 78.398438 49.199219 L 77.035156 53.402344 L 72.617188 53.402344 Z M 76.191406 55.996094 "/>
<path style="fill-rule:nonzero;fill:rgb(99.998474%,99.998474%,99.998474%);fill-opacity:1;stroke-width:1;stroke-linecap:square;stroke-linejoin:miter;stroke:rgb(99.998474%,99.998474%,99.998474%);stroke-opacity:1;stroke-miterlimit:3.239307;" d="M 84.191406 63.996094 L 82.828125 68.199219 L 86.398438 65.601562 L 89.972656 68.199219 L 88.609375 63.996094 L 92.183594 61.402344 L 87.765625 61.402344 L 86.398438 57.199219 L 85.035156 61.402344 L 80.617188 61.402344 Z M 84.191406 63.996094 "/>
</g>
</svg>
