<?xml version="1.0" encoding="UTF-8"?>
<svg xmlns="http://www.w3.org/2000/svg" xmlns:xlink="http://www.w3.org/1999/xlink" width="128pt" height="85pt" viewBox="0 0 128 85" version="1.1">
<defs>
<clipPath id="clip1">
  <path d="M 0 0 L 127.679688 0 L 127.679688 85 L 0 85 Z M 0 0 "/>
</clipPath>
<clipPath id="clip2">
  <path d="M 0 31 L 127.679688 31 L 127.679688 54 L 0 54 Z M 0 31 "/>
</clipPath>
<clipPath id="clip3">
  <path d="M 0 35 L 127.679688 35 L 127.679688 50 L 0 50 Z M 0 35 "/>
</clipPath>
</defs>
<g id="surface156">
<g clip-path="url(#clip1)" clip-rule="nonzero">
<path style=" stroke:none;fill-rule:evenodd;fill:rgb(45.881653%,66.665649%,85.881042%);fill-opacity:1;" d="M 0 85 L 0 0 L 127.5 0 L 127.5 85 Z M 0 85 "/>
</g>
<g clip-path="url(#clip2)" clip-rule="nonzero">
<path style=" stroke:none;fill-rule:evenodd;fill:rgb(99.998474%,99.998474%,99.998474%);fill-opacity:1;" d="M 0 31.875 L 127.5 31.875 L 127.5 53.125 L 0 53.125 Z M 0 31.875 "/>
</g>
<g clip-path="url(#clip3)" clip-rule="nonzero">
<path style=" stroke:none;fill-rule:evenodd;fill:rgb(0%,0%,0%);fill-opacity:1;" d="M 0 35.417969 L 127.5 35.417969 L 127.5 49.582031 L 0 49.582031 Z M 0 35.417969 "/>
</g>
</g>
</svg>
