<svg viewBox="0 0 1000 703" xmlns="http://www.w3.org/2000/svg"><g fill-rule="evenodd"><path d="m675 351.390625c0 96.648437-78.347656 174.996094-175 174.996094s-175-78.347657-175-174.996094c0-96.652344 78.347656-175 175-175s175 78.347656 175 175zm0 0" fill="#002776"/><path d="m-24.996094 701.386719c0-27.808594 2.738282-55.628907 8.164063-82.914063 5.425781-27.28125 13.535156-54.027344 24.183593-79.722656 21.289063-51.398438 52.789063-98.546875 92.128907-137.878906 39.332031-39.339844 86.480469-70.839844 137.878906-92.128906 25.703125-10.648438 52.441406-18.757813 79.726563-24.183594 27.28125-5.433594 55.101562-8.171875 82.910156-8.171875 27.820312 0 55.636718 2.738281 82.914062 8.171875 27.28125 5.425781 54.027344 13.535156 79.730469 24.183594 51.402344 21.289062 98.539063 52.789062 137.878906 92.128906 39.339844 39.332031 70.84375 86.480468 92.128907 137.878906 10.640624 25.695312 18.757812 52.441406 24.183593 79.722656 5.425781 27.285156 8.167969 55.105469 8.167969 82.914063h-25c0-26.175781-2.578125-52.355469-7.6875-78.035157-5.109375-25.675781-12.746094-50.851562-22.761719-75.035156-20.039062-48.371094-49.679687-92.746094-86.710937-129.773437-37.019532-37.019531-81.390625-66.667969-129.765625-86.703125-24.191407-10.023438-49.355469-17.660156-75.039063-22.765625-25.675781-5.105469-51.855468-7.683594-78.039062-7.683594-26.175782 0-52.355469 2.578125-78.027344 7.683594-25.683594 5.105469-50.859375 12.742187-75.042969 22.765625-48.371093 20.035156-92.742187 49.683594-129.765625 86.703125-37.027344 37.027343-66.675781 81.402343-86.710937 129.773437-10.023438 24.183594-17.660157 49.359375-22.765625 75.035156-5.105469 25.679688-7.683594 51.859376-7.683594 78.035157zm0 0" fill="#fff"/><path d="m350.742188 300.238281c1.953124-.246093 3.777343-1.371093 4.972656-3.074219 1.183594-1.699218 1.726562-3.945312 1.457031-6.117187-.265625-2.160156-1.328125-4.21875-2.898437-5.578125-1.566407-1.363281-3.613282-2.015625-5.558594-1.78125-1.953125.246094-3.777344 1.375-4.964844 3.074219-1.195312 1.703125-1.730469 3.945312-1.464844 6.117187.265625 2.164063 1.328125 4.21875 2.894532 5.582032 1.570312 1.363281 3.617187 2.011718 5.5625 1.777343zm-.375-3.074219c1.148437-.140624 2.210937-.839843 2.902343-1.902343.695313-1.058594 1-2.46875.828125-3.835938-.160156-1.363281-.800781-2.65625-1.726562-3.519531-.929688-.859375-2.136719-1.28125-3.285156-1.144531-1.136719.144531-2.210938.839843-2.902344 1.90625-.691406 1.058593-.996094 2.46875-.824219 3.832031.167969 1.363281.804687 2.65625 1.726563 3.519531.929687.859375 2.136718 1.28125 3.28125 1.144531zm0 0" fill="#009b3a"/><path d="m364.328125 298.734375 3.082031-.21875-.425781-6.179687 6.644531-.460938c1.371094-.09375 2.695313-.75 3.589844-1.789062.902344-1.039063 1.367188-2.433594 1.273438-3.804688-.09375-1.363281-.753907-2.6875-1.789063-3.589844-1.039063-.894531-2.4375-1.363281-3.804687-1.265625l-9.496094.664063zm2.4375-9.484375 6.410156-.445312c.5625-.042969 1.097657-.3125 1.472657-.734376.367187-.417968.554687-.996093.515624-1.554687-.035156-.5625-.304687-1.101563-.726562-1.46875-.425781-.367187-.996094-.558594-1.5625-.523437l-6.40625.457031zm0 0" fill="#009b3a"/><path d="m378.457031 297.742188c-.167969-2.375-.535156-7.601563-4.09375-7.351563l-4.511719.316406c5.222657-.363281 5.589844 4.855469 5.757813 7.230469zm0 0" fill="#009b3a"/><path d="m385.453125 297.417969 7.851563-.136719c1.871093-.035156 3.714843-.84375 5.011718-2.183594 1.300782-1.34375 2.035156-3.214844 2.007813-5.085937l-.042969-2.382813c-.03125-1.871094-.839844-3.714844-2.183594-5.011718-1.34375-1.300782-3.214844-2.035157-5.085937-2.007813l-7.851563.144531zm3.035156-3.15625 4.523438-.074219c1.179687-.019531 2.351562-.527344 3.175781-1.382812.820312-.847657 1.285156-2.035157 1.265625-3.222657l-.019531-1.421875c-.027344-1.1875-.527344-2.355468-1.382813-3.179687s-2.035156-1.292969-3.222656-1.269531l-4.523437.082031zm0 0" fill="#009b3a"/><path d="m406.609375 297.207031 14.996094.519531.097656-3.089843-12.128906-.421875.148437-4.285156 9.519532.332031.097656-2.855469-9.515625-.332031.113281-3.328125 11.421875.398437.109375-3.09375-14.277344-.5zm0 0" fill="#009b3a"/><path d="m427.753906 298.109375 2.847656.25.992188-11.386719 2.328125 11.671875 2.609375.230469 4.3125-11.09375-.992188 11.386719 2.84375.25 1.457032-16.609375-4.15625-.359375-4.3125 11.09375-2.328125-11.675781-4.148438-.359376zm0 0" fill="#009b3a"/><path d="m462.285156 302 12.316406 2.117188.488282-2.816407-9.507813-1.632812.644531-3.75 7.746094 1.328125.488282-2.8125-7.746094-1.339844.441406-2.574219 9.210938 1.578125.488281-2.8125-12.03125-2.066406zm0 0" fill="#009b3a"/><path d="m493.9375 308.21875 2.988281.773438 1.554688-5.992188 6.457031 1.664062c1.320312.347657 2.785156.144532 3.96875-.554687 1.179688-.691406 2.066406-1.871094 2.414062-3.203125.34375-1.328125.132813-2.785156-.558593-3.964844-.699219-1.1875-1.878907-2.066406-3.207031-2.414062l-9.214844-2.386719zm5.316406-8.21875 6.226563 1.613281c.542969.144531 1.136719.054688 1.621093-.230469.488282-.285156.847657-.765624.988282-1.308593.144531-.542969.054687-1.136719-.230469-1.621094-.285156-.488281-.765625-.847656-1.308594-.988281l-6.222656-1.609375zm0 0" fill="#009b3a"/><path d="m514.382812 313.671875 2.949219.929687 1.867188-5.898437 6.355469 2c1.308593.410156 2.777343.28125 3.992187-.347656 1.214844-.628907 2.164063-1.761719 2.578125-3.074219.414062-1.308594.285156-2.769531-.351562-3.992188-.632813-1.214843-1.765626-2.164062-3.066407-2.578124l-9.085937-2.859376zm5.746094-7.921875 6.128906 1.933594c.539063.164062 1.132813.113281 1.632813-.140625.5-.265625.882813-.726563 1.054687-1.261719.167969-.535156.113282-1.132812-.144531-1.636719-.257812-.492187-.71875-.878906-1.253906-1.050781l-6.128906-1.933594zm0 0" fill="#009b3a"/><path d="m527.890625 317.929688c.71875-2.269532 2.296875-7.261719-1.109375-8.339844l-4.320312-1.355469c4.996093 1.570313 3.425781 6.570313 2.707031 8.84375zm0 0" fill="#009b3a"/><path d="m541.546875 322.820312c1.835937.683594 3.980469.527344 5.816406-.433593 1.84375-.957031 3.355469-2.707031 4.121094-4.746094.769531-2.042969.769531-4.363281.007813-6.289063-.757813-1.929687-2.269532-3.457031-4.117188-4.144531-1.835938-.691406-3.980469-.535156-5.816406.429688-1.84375.957031-3.355469 2.707031-4.125 4.746093-.765625 2.046876-.765625 4.363282-.003906 6.292969.757812 1.925781 2.269531 3.453125 4.117187 4.144531zm1.078125-2.902343c1.082031.40625 2.351562.277343 3.457031-.347657 1.105469-.621093 2.027344-1.734374 2.5-3.015624.484375-1.28125.515625-2.726563.089844-3.921876-.421875-1.191406-1.296875-2.121093-2.378906-2.527343-1.078125-.402344-2.347657-.277344-3.453125.347656-1.105469.621094-2.027344 1.734375-2.503906 3.015625-.480469 1.28125-.511719 2.726562-.085938 3.921875.421875 1.191406 1.296875 2.121094 2.375 2.527344zm0 0" fill="#009b3a"/><path d="m561.164062 330.742188c1.796876.785156 3.945313.738281 5.832032-.121094 1.894531-.863282 3.492187-2.53125 4.367187-4.53125.867188-2 .992188-4.308594.332031-6.28125-.65625-1.964844-2.085937-3.566406-3.882812-4.347656-1.804688-.785157-3.957031-.738282-5.84375.125-1.890625.859374-3.488281 2.523437-4.363281 4.523437-.871094 2.003906-.992188 4.3125-.335938 6.277344.660157 1.972656 2.089844 3.574219 3.894531 4.355469zm1.234376-2.835938c1.050781.460938 2.332031.402344 3.464843-.167969 1.132813-.566406 2.117188-1.621093 2.660157-2.882812.546874-1.253907.65625-2.691407.296874-3.90625-.367187-1.214844-1.195312-2.191407-2.242187-2.652344-1.0625-.460937-2.34375-.398437-3.472656.164063-1.136719.570312-2.109375 1.625-2.660157 2.882812-.550781 1.261719-.65625 2.699219-.292968 3.910156.359375 1.214844 1.1875 2.191406 2.246094 2.652344zm0 0" fill="#009b3a"/><path d="m565.578125 323.574219 5.785156 2.515625-.949219 2.183594-5.785156-2.515626zm0 0" fill="#009b3a"/><path d="m569.179688 325.140625 2.183593.949219-3.324219 7.644531-2.179687-.953125zm0 0" fill="#009b3a"/><path d="m573.628906 336.34375 2.765625 1.375 2.761719-5.539062 5.96875 2.976562c1.226562.609375 2.699219.710938 4 .277344s2.414062-1.402344 3.023438-2.628906c.613281-1.230469.710937-2.699219.277343-3.996094-.433593-1.300782-1.402343-2.414063-2.628906-3.03125l-8.519531-4.246094zm6.910156-6.933594 5.75 2.871094c.503907.25 1.105469.292969 1.640626.113281.53125-.179687.984374-.574219 1.234374-1.078125.253907-.5.292969-1.105468.117188-1.632812-.175781-.535156-.578125-.992188-1.078125-1.242188l-5.75-2.867187zm0 0" fill="#009b3a"/><path d="m586.304688 342.664062c1.0625-2.136718 3.398437-6.820312.203124-8.414062l-4.050781-2.015625c4.6875 2.332031 2.355469 7.015625 1.289063 9.15625zm0 0" fill="#009b3a"/><path d="m592.496094 345.925781 13.054687 7.386719 1.527344-2.695312-10.574219-5.980469 2.109375-3.730469 8.292969 4.695312 1.40625-2.492187-8.289062-4.683594 1.640624-2.902343 9.949219 5.628906 1.519531-2.695313-12.429687-7.035156zm0 0" fill="#009b3a"/><path d="m616.808594 354.082031c-.894532 1.414063.011718 2.972657 2.019531 4.253907s3.378906 1.234374 3.953125.332031c1.824219-2.859375-8.714844-7.03125-5.464844-12.023438 2.800782-4.285156 7.59375-.949219 9.398438.203125 1.8125 1.148438 4.707031 4.128906 2.457031 7.5625l-3.066406-1.953125c.960937-1.503906-.09375-2.957031-1.703125-3.980469-1.550782-.992187-2.820313-1.4375-3.742188.011719-1.554687 2.328125 8.777344 6.722657 5.605469 11.691407-2.335937 3.664062-6.398437 2.0625-9.105469.339843-2.3125-1.472656-5.765625-4.941406-3.511718-8.449219zm0 0" fill="#009b3a"/><path d="m634.691406 365.910156c-.972656 1.355469-.144531 2.964844 1.789063 4.347656 1.941406 1.382813 3.3125 1.410157 3.933593.535157 1.976563-2.761719-8.335937-7.480469-4.828124-12.289063 3.019531-4.136718 7.628906-.554687 9.371093.695313 1.75 1.238281 4.492188 4.363281 2.058594 7.675781l-2.957031-2.109375c1.035156-1.453125.058594-2.953125-1.496094-4.054687-1.496094-1.070313-2.738281-1.59375-3.742188-.191407-1.667968 2.246094 8.417969 7.175781 4.992188 11.96875-2.523438 3.542969-6.496094 1.730469-9.113281-.132812-2.226563-1.59375-5.496094-5.238281-3.058594-8.628907zm0 0" fill="#009b3a"/><path d="m651.597656 385.082031c1.539063 1.222657 3.628906 1.738281 5.667969 1.390625 2.050781-.339844 4.03125-1.53125 5.390625-3.242187 1.359375-1.707031 2.078125-3.90625 1.949219-5.980469-.121094-2.066406-1.089844-3.988281-2.632813-5.207031-1.53125-1.222657-3.621094-1.738281-5.667968-1.390625-2.046876.339844-4.027344 1.53125-5.382813 3.238281-1.363281 1.710937-2.078125 3.90625-1.953125 5.984375.125 2.066406 1.097656 3.988281 2.628906 5.207031zm1.925782-2.421875c.902343.71875 2.15625.992188 3.398437.742188s2.460937-1.027344 3.316406-2.097656c.847657-1.070313 1.328125-2.433594 1.292969-3.703126-.03125-1.265624-.582031-2.417968-1.484375-3.136718s-2.148437-.992188-3.390625-.742188c-1.238281.25-2.460938 1.027344-3.316406 2.097656-.855469 1.078126-1.328125 2.433594-1.292969 3.703126.03125 1.265624.574219 2.417968 1.476563 3.136718zm0 0" fill="#009b3a"/><g fill="#fff"><path d="m357.144531 312.457031-2.320312 7.136719 3.566406 1.15625zm0 0"/><path d="m357.144531 312.457031 2.320313 7.136719-3.570313 1.15625zm0 0"/><path d="m364.277344 317.644531h-7.5v3.746094zm0 0"/><path d="m364.277344 317.644531-6.070313 4.410157-2.203125-3.039063zm0 0"/><path d="m350.007812 317.644531 6.070313 4.410157 2.203125-3.039063zm0 0"/><path d="m350.007812 317.644531h7.503907v3.746094zm0 0"/><path d="m361.550781 326.027344-2.316406-7.132813-3.570313 1.160157zm0 0"/><path d="m361.550781 326.027344-6.066406-4.40625 2.203125-3.03125zm0 0"/><path d="m352.734375 326.027344 6.070313-4.40625-2.203126-3.03125zm0 0"/><path d="m352.734375 326.027344 2.320313-7.132813 3.558593 1.160157zm0 0"/><path d="m372.621094 386.03125-2.320313 7.136719 3.566407 1.160156zm0 0"/><path d="m372.621094 386.03125 2.316406 7.136719-3.566406 1.160156zm0 0"/><path d="m379.753906 391.214844h-7.5v3.75zm0 0"/><path d="m379.753906 391.214844-6.070312 4.40625-2.203125-3.03125zm0 0"/><path d="m365.484375 391.214844 6.070313 4.40625 2.203124-3.03125zm0 0"/><path d="m365.484375 391.214844h7.5v3.75zm0 0"/><path d="m377.027344 399.601562-2.320313-7.132812-3.566406 1.160156zm0 0"/><path d="m377.027344 399.601562-6.070313-4.414062 2.203125-3.03125zm0 0"/><path d="m368.210938 399.601562 6.070312-4.414062-2.203125-3.03125zm0 0"/><path d="m368.210938 399.601562 2.320312-7.132812 3.566406 1.160156zm0 0"/><path d="m351.1875 402.992188-1.929688 5.949218 2.976563.964844zm0 0"/><path d="m351.1875 402.992188 1.933594 5.949218-2.96875.964844zm0 0"/><path d="m357.136719 407.3125h-6.253907v3.125zm0 0"/><path d="m357.136719 407.3125-5.058594 3.675781-1.839844-2.527343zm0 0"/><path d="m345.25 407.3125 5.050781 3.675781 1.839844-2.527343zm0 0"/><path d="m345.25 407.3125h6.246094v3.125zm0 0"/><path d="m354.863281 414.304688-1.929687-5.945313-2.972656.960937zm0 0"/><path d="m354.863281 414.304688-5.058593-3.675782 1.839843-2.527344zm0 0"/><path d="m347.515625 414.304688 5.058594-3.675782-1.839844-2.527344zm0 0"/><path d="m347.515625 414.304688 1.929687-5.945313 2.972657.960937zm0 0"/><path d="m389.765625 379.246094-1.109375 3.394531 1.699219.558594zm0 0"/><path d="m389.765625 379.246094 1.097656 3.394531-1.695312.558594zm0 0"/><path d="m393.160156 381.710938h-3.574218v1.792968zm0 0"/><path d="m393.160156 381.710938-2.886718 2.101562-1.054688-1.441406zm0 0"/><path d="m386.367188 381.710938 2.886718 2.101562 1.050782-1.441406zm0 0"/><path d="m386.367188 381.710938h3.570312v1.792968zm0 0"/><path d="m391.859375 385.707031-1.097656-3.398437-1.703125.550781zm0 0"/><path d="m391.859375 385.707031-2.890625-2.101562 1.050781-1.445313zm0 0"/><path d="m387.660156 385.707031 2.890625-2.101562-1.050781-1.445313zm0 0"/><path d="m387.660156 385.707031 1.105469-3.398437 1.695313.550781zm0 0"/><path d="m409.050781 404.660156-1.933593 5.949219 2.972656.964844zm0 0"/><path d="m409.050781 404.660156 1.925781 5.949219-2.96875.964844zm0 0"/><path d="m414.992188 408.980469h-6.253907v3.128906zm0 0"/><path d="m414.992188 408.980469-5.058594 3.675781-1.832032-2.527344zm0 0"/><path d="m403.105469 408.980469 5.058593 3.675781 1.828126-2.527344zm0 0"/><path d="m403.105469 408.980469h6.25v3.128906zm0 0"/><path d="m412.71875 415.96875-1.933594-5.941406-2.96875.960937zm0 0"/><path d="m412.71875 415.96875-5.050781-3.671875 1.832031-2.527344zm0 0"/><path d="m405.375 415.96875 5.050781-3.671875-1.828125-2.527344zm0 0"/><path d="m405.375 415.96875 1.933594-5.941406 2.96875.960937zm0 0"/><path d="m403.808594 423.292969-1.546875 4.757812 2.378906.765625zm0 0"/><path d="m403.808594 423.292969 1.546875 4.757812-2.382813.765625zm0 0"/><path d="m408.5625 426.75h-5v2.496094zm0 0"/><path d="m408.5625 426.75-4.042969 2.9375-1.472656-2.023438zm0 0"/><path d="m399.054688 426.75 4.042968 2.9375 1.46875-2.023438zm0 0"/><path d="m399.054688 426.75h4.996093v2.496094zm0 0"/><path d="m406.746094 432.339844-1.542969-4.757813-2.378906.777344zm0 0"/><path d="m406.746094 432.339844-4.042969-2.9375 1.472656-2.023438zm0 0"/><path d="m400.871094 432.339844 4.042968-2.9375-1.464843-2.023438zm0 0"/><path d="m400.871094 432.339844 1.546875-4.757813 2.375.777344zm0 0"/><path d="m554.289062 289.605469-2.320312 7.132812 3.566406 1.160157zm0 0"/><path d="m554.289062 289.605469 2.316407 7.132812-3.566407 1.160157zm0 0"/><path d="m561.421875 294.785156h-7.5v3.75zm0 0"/><path d="m561.421875 294.785156-6.070313 4.40625-2.203124-3.03125zm0 0"/><path d="m547.152344 294.785156 6.070312 4.40625 2.203125-3.03125zm0 0"/><path d="m547.152344 294.785156h7.5v3.75zm0 0"/><path d="m558.695312 303.171875-2.320312-7.132813-3.566406 1.160157zm0 0"/><path d="m558.695312 303.171875-6.070312-4.40625 2.203125-3.039063zm0 0"/><path d="m549.878906 303.171875 6.0625-4.40625-2.203125-3.039063zm0 0"/><path d="m549.878906 303.171875 2.3125-7.132813 3.566406 1.160157zm0 0"/><path d="m622.621094 405.320312-2.320313 7.128907 3.566407 1.15625zm0 0"/><path d="m622.621094 405.320312 2.316406 7.128907-3.566406 1.15625zm0 0"/><path d="m629.753906 410.5h-7.5v3.75zm0 0"/><path d="m629.753906 410.5-6.070312 4.40625-2.203125-3.03125zm0 0"/><path d="m615.484375 410.5 6.070313 4.40625 2.203124-3.03125zm0 0"/><path d="m615.484375 410.5h7.5v3.75zm0 0"/><path d="m627.027344 418.882812-2.320313-7.128906-3.566406 1.152344zm0 0"/><path d="m627.027344 418.882812-6.070313-4.410156 2.203125-3.03125zm0 0"/><path d="m618.210938 418.882812 6.070312-4.410156-2.203125-3.03125zm0 0"/><path d="m618.210938 418.882812 2.320312-7.128906 3.566406 1.152344zm0 0"/><path d="m646.90625 409.484375-1.546875 4.753906 2.378906.773438zm0 0"/><path d="m646.90625 409.484375 1.546875 4.753906-2.382813.773438zm0 0"/><path d="m651.65625 412.941406h-4.996094v2.496094zm0 0"/><path d="m651.65625 412.941406-4.039062 2.9375-1.472657-2.019531zm0 0"/><path d="m642.152344 412.941406 4.039062 2.9375 1.472656-2.019531zm0 0"/><path d="m642.152344 412.941406h4.996094v2.496094zm0 0"/><path d="m649.84375 418.53125-1.542969-4.753906-2.378906.769531zm0 0"/><path d="m649.84375 418.53125-4.046875-2.945312 1.472656-2.019532zm0 0"/><path d="m643.96875 418.53125 4.042969-2.945312-1.472657-2.019532zm0 0"/><path d="m643.96875 418.53125 1.539062-4.753906 2.382813.769531zm0 0"/><path d="m629.761719 422.042969-1.933594 5.949219 2.976563.960937zm0 0"/><path d="m629.761719 422.042969 1.929687 5.949219-2.96875.960937zm0 0"/><path d="m635.707031 426.363281h-6.253906v3.125zm0 0"/><path d="m635.707031 426.363281-5.058593 3.675781-1.835938-2.53125zm0 0"/><path d="m623.820312 426.363281 5.050782 3.675781 1.839844-2.53125zm0 0"/><path d="m623.820312 426.363281h6.246094v3.125zm0 0"/><path d="m633.4375 433.347656-1.933594-5.941406-2.972656.964844zm0 0"/><path d="m633.4375 433.347656-5.0625-3.667968 1.839844-2.53125zm0 0"/><path d="m626.085938 433.347656 5.058593-3.667968-1.839843-2.53125zm0 0"/><path d="m626.085938 433.347656 1.929687-5.941406 2.980469.964844zm0 0"/><path d="m587.621094 458.710938-1.933594 5.941406 2.96875.96875zm0 0"/><path d="m587.621094 458.710938 1.929687 5.941406-2.976562.96875zm0 0"/><path d="m593.5625 463.03125h-6.25v3.121094zm0 0"/><path d="m593.5625 463.03125-5.054688 3.671875-1.835937-2.527344zm0 0"/><path d="m581.671875 463.03125 5.058594 3.671875 1.839843-2.527344zm0 0"/><path d="m581.671875 463.03125h6.253906v3.121094zm0 0"/><path d="m591.296875 470.015625-1.933594-5.945313-2.972656.96875zm0 0"/><path d="m591.296875 470.015625-5.0625-3.675781 1.839844-2.527344zm0 0"/><path d="m583.945312 470.015625 5.058594-3.675781-1.839844-2.527344zm0 0"/><path d="m583.945312 470.015625 1.929688-5.945313 2.972656.96875zm0 0"/><path d="m587.382812 477.578125-1.546874 4.753906 2.378906.773438zm0 0"/><path d="m587.382812 477.578125 1.546876 4.753906-2.382813.773438zm0 0"/><path d="m592.136719 481.035156h-5v2.496094zm0 0"/><path d="m592.136719 481.035156-4.042969 2.9375-1.46875-2.019531zm0 0"/><path d="m582.628906 481.035156 4.042969 2.9375 1.46875-2.019531zm0 0"/><path d="m582.628906 481.035156h4.996094v2.496094zm0 0"/><path d="m590.316406 486.625-1.542968-4.753906-2.375.773437zm0 0"/><path d="m590.316406 486.625-4.039062-2.9375 1.464844-2.027344zm0 0"/><path d="m584.4375 486.625 4.050781-2.9375-1.472656-2.027344zm0 0"/><path d="m584.4375 486.625 1.546875-4.753906 2.378906.773437zm0 0"/><path d="m605 446.152344-1.546875 4.753906 2.382813.773438zm0 0"/><path d="m605 446.152344 1.546875 4.753906-2.378906.773438zm0 0"/><path d="m609.753906 449.605469h-4.996094v2.5zm0 0"/><path d="m609.753906 449.605469-4.039062 2.941406-1.472656-2.027344zm0 0"/><path d="m600.246094 449.605469 4.042968 2.941406 1.472657-2.027344zm0 0"/><path d="m600.246094 449.605469h5v2.5zm0 0"/><path d="m607.9375 455.199219-1.546875-4.761719-2.375.773438zm0 0"/><path d="m607.9375 455.199219-4.042969-2.945313 1.464844-2.019531zm0 0"/><path d="m602.0625 455.199219 4.042969-2.945313-1.46875-2.019531zm0 0"/><path d="m602.0625 455.199219 1.542969-4.761719 2.378906.773438zm0 0"/><path d="m619.046875 436.089844-1.933594 5.945312 2.976563.964844zm0 0"/><path d="m619.046875 436.089844 1.933594 5.945312-2.972657.964844zm0 0"/><path d="m624.992188 440.40625h-6.25v3.128906zm0 0"/><path d="m624.992188 440.40625-5.058594 3.675781-1.839844-2.527343zm0 0"/><path d="m613.105469 440.40625 5.050781 3.675781 1.839844-2.527343zm0 0"/><path d="m613.105469 440.40625h6.246093v3.128906zm0 0"/><path d="m622.722656 447.398438-1.933594-5.945313-2.972656.96875zm0 0"/><path d="m622.722656 447.398438-5.0625-3.675782 1.839844-2.527344zm0 0"/><path d="m615.375 447.398438 5.054688-3.675782-1.835938-2.527344zm0 0"/><path d="m615.375 447.398438 1.925781-5.945313 2.980469.96875zm0 0"/><path d="m586.90625 442.816406-1.546875 4.753906 2.375.773438zm0 0"/><path d="m586.90625 442.816406 1.539062 4.753906-2.371093.773438zm0 0"/><path d="m591.660156 446.273438h-4.996094v2.496093zm0 0"/><path d="m591.660156 446.273438-4.046875 2.9375-1.464843-2.023438zm0 0"/><path d="m582.144531 446.273438 4.050781 2.9375 1.472657-2.023438zm0 0"/><path d="m582.144531 446.273438h5.007813v2.496093zm0 0"/><path d="m589.84375 451.863281-1.546875-4.753906-2.375.773437zm0 0"/><path d="m589.84375 451.863281-4.042969-2.9375 1.464844-2.027343zm0 0"/><path d="m583.964844 451.863281 4.046875-2.9375-1.46875-2.027343zm0 0"/><path d="m583.964844 451.863281 1.546875-4.753906 2.378906.773437zm0 0"/><path d="m433.335938 352.28125-1.933594 5.945312 2.972656.964844zm0 0"/><path d="m433.335938 352.28125 1.925781 5.945312-2.96875.964844zm0 0"/><path d="m439.277344 356.601562h-6.253906v3.125zm0 0"/><path d="m439.277344 356.601562-5.054688 3.675782-1.835937-2.53125zm0 0"/><path d="m427.390625 356.601562 5.058594 3.675782 1.835937-2.53125zm0 0"/><path d="m427.390625 356.601562h6.25v3.125zm0 0"/><path d="m437.003906 363.585938-1.925781-5.941407-2.976563.964844zm0 0"/><path d="m437.003906 363.585938-5.050781-3.667969 1.835937-2.53125zm0 0"/><path d="m429.660156 363.585938 5.054688-3.667969-1.832032-2.53125zm0 0"/><path d="m429.660156 363.585938 1.933594-5.941407 2.96875.964844zm0 0"/><path d="m547.621094 337.578125-1.546875 4.753906 2.375.773438zm0 0"/><path d="m547.621094 337.578125 1.546875 4.753906-2.382813.773438zm0 0"/><path d="m552.375 341.035156h-5v2.496094zm0 0"/><path d="m552.375 341.035156-4.046875 2.9375-1.46875-2.019531zm0 0"/><path d="m542.867188 341.035156 4.042968 2.9375 1.46875-2.019531zm0 0"/><path d="m542.867188 341.035156h4.996093v2.496094zm0 0"/><path d="m550.558594 346.625-1.546875-4.753906-2.375.769531zm0 0"/><path d="m550.558594 346.625-4.042969-2.9375 1.464844-2.027344zm0 0"/><path d="m544.675781 346.625 4.050781-2.9375-1.472656-2.027344zm0 0"/><path d="m544.675781 346.625 1.546875-4.753906 2.382813.769531zm0 0"/><path d="m500 422.464844-2.320312 7.128906 3.570312 1.15625zm0 0"/><path d="m500 422.464844 2.320312 7.128906-3.570312 1.15625zm0 0"/><path d="m507.132812 427.644531h-7.5v3.75zm0 0"/><path d="m507.132812 427.644531-6.070312 4.40625-2.203125-3.035156zm0 0"/><path d="m492.867188 427.644531 6.070312 4.40625 2.203125-3.035156zm0 0"/><path d="m492.867188 427.644531h7.5v3.75zm0 0"/><path d="m504.40625 436.027344-2.316406-7.136719-3.570313 1.160156zm0 0"/><path d="m504.40625 436.027344-6.066406-4.410156 2.203125-3.03125zm0 0"/><path d="m495.59375 436.027344 6.066406-4.410156-2.203125-3.03125zm0 0"/><path d="m495.59375 436.027344 2.316406-7.136719 3.570313 1.160156zm0 0"/><path d="m520.234375 388.949219-1.929687 5.941406 2.976562.96875zm0 0"/><path d="m520.234375 388.949219 1.9375 5.941406-2.972656.96875zm0 0"/><path d="m526.183594 393.269531h-6.253906v3.125zm0 0"/><path d="m526.183594 393.269531-5.058594 3.667969-1.839844-2.523438zm0 0"/><path d="m514.296875 393.269531 5.050781 3.667969 1.839844-2.523438zm0 0"/><path d="m514.296875 393.269531h6.246094v3.125zm0 0"/><path d="m523.910156 400.253906-1.929687-5.941406-2.972657.964844zm0 0"/><path d="m523.910156 400.253906-5.058594-3.675781 1.839844-2.523437zm0 0"/><path d="m516.566406 400.253906 5.054688-3.675781-1.839844-2.523437zm0 0"/><path d="m516.566406 400.253906 1.925782-5.941406 2.976562.964844zm0 0"/><path d="m500 373.234375-1.933594 5.941406 2.972656.96875zm0 0"/><path d="m500 373.234375 1.933594 5.941406-2.972656.96875zm0 0"/><path d="m505.941406 377.554688h-6.246094v3.121093zm0 0"/><path d="m505.941406 377.554688-5.050781 3.667968-1.839844-2.519531zm0 0"/><path d="m494.058594 377.554688 5.050781 3.667968 1.839844-2.519531zm0 0"/><path d="m494.058594 377.554688h6.246094v3.121093zm0 0"/><path d="m503.675781 384.539062-1.933593-5.941406-2.96875.964844zm0 0"/><path d="m503.675781 384.539062-5.058593-3.675781 1.835937-2.519531zm0 0"/><path d="m496.324219 384.539062 5.058593-3.675781-1.835937-2.519531zm0 0"/><path d="m496.324219 384.539062 1.933593-5.941406 2.96875.964844zm0 0"/><path d="m482.382812 390.195312-1.546874 4.753907 2.378906.773437zm0 0"/><path d="m482.382812 390.195312 1.542969 4.753907-2.378906.773437zm0 0"/><path d="m487.136719 393.65625h-5v2.496094zm0 0"/><path d="m487.136719 393.65625-4.042969 2.9375-1.472656-2.023438zm0 0"/><path d="m477.625 393.65625 4.042969 2.9375 1.472656-2.023438zm0 0"/><path d="m477.625 393.65625h5v2.496094zm0 0"/><path d="m485.316406 399.242188-1.546875-4.753907-2.371093.773438zm0 0"/><path d="m485.316406 399.242188-4.039062-2.933594 1.46875-2.027344zm0 0"/><path d="m479.445312 399.242188 4.039063-2.933594-1.46875-2.027344zm0 0"/><path d="m479.445312 399.242188 1.539063-4.753907 2.378906.773438zm0 0"/><path d="m491.191406 403.765625-1.105468 3.398437 1.703124.554688zm0 0"/><path d="m491.191406 403.765625 1.105469 3.398437-1.703125.554688zm0 0"/><path d="m494.589844 406.234375h-3.574219v1.792969zm0 0"/><path d="m494.589844 406.234375-2.890625 2.101563-1.050781-1.445313zm0 0"/><path d="m487.792969 406.234375 2.890625 2.101563 1.050781-1.445313zm0 0"/><path d="m487.792969 406.234375h3.574219v1.792969zm0 0"/><path d="m493.292969 410.230469-1.105469-3.398438-1.703125.554688zm0 0"/><path d="m493.292969 410.230469-2.894531-2.097657 1.050781-1.445312zm0 0"/><path d="m489.089844 410.230469 2.886718-2.097657-1.042968-1.445312zm0 0"/><path d="m489.089844 410.230469 1.105468-3.398438 1.699219.554688zm0 0"/><path d="m552.382812 463-1.933593 5.9375 2.972656.96875zm0 0"/><path d="m552.382812 463 1.929688 5.9375-2.976562.96875zm0 0"/><path d="m558.324219 467.316406h-6.246094v3.121094zm0 0"/><path d="m558.324219 467.316406-5.054688 3.667969-1.835937-2.527344zm0 0"/><path d="m546.433594 467.316406 5.058594 3.667969 1.839843-2.527344zm0 0"/><path d="m546.433594 467.316406h6.253906v3.121094zm0 0"/><path d="m556.058594 474.300781-1.933594-5.945312-2.96875.96875zm0 0"/><path d="m556.058594 474.300781-5.058594-3.675781 1.835938-2.527344zm0 0"/><path d="m548.707031 474.300781 5.058594-3.675781-1.839844-2.527344zm0 0"/><path d="m548.707031 474.300781 1.933594-5.945312 2.96875.96875zm0 0"/><path d="m567.382812 448.769531-1.546874 4.753907 2.375.773437zm0 0"/><path d="m567.382812 448.769531 1.546876 4.753907-2.382813.773437zm0 0"/><path d="m572.136719 452.222656h-4.996094v2.5zm0 0"/><path d="m572.136719 452.222656-4.046875 2.941406-1.464844-2.019531zm0 0"/><path d="m562.628906 452.222656 4.042969 2.941406 1.46875-2.019531zm0 0"/><path d="m562.628906 452.222656h4.996094v2.5zm0 0"/><path d="m570.320312 457.816406-1.546874-4.753906-2.375.765625zm0 0"/><path d="m570.320312 457.816406-4.042968-2.941406 1.464844-2.023438zm0 0"/><path d="m564.4375 457.816406 4.050781-2.941406-1.472656-2.023438zm0 0"/><path d="m564.4375 457.816406 1.546875-4.753906 2.382813.765625zm0 0"/><path d="m538.574219 444.484375-1.546875 4.753906 2.375.773438zm0 0"/><path d="m538.574219 444.484375 1.539062 4.753906-2.375.773438zm0 0"/><path d="m543.328125 447.9375h-5v2.5zm0 0"/><path d="m543.328125 447.9375-4.046875 2.941406-1.46875-2.019531zm0 0"/><path d="m533.8125 447.9375 4.050781 2.941406 1.46875-2.019531zm0 0"/><path d="m533.8125 447.9375h5.003906v2.5zm0 0"/><path d="m541.511719 453.53125-1.546875-4.753906-2.375.773437zm0 0"/><path d="m541.511719 453.53125-4.050781-2.945312 1.472656-2.019532zm0 0"/><path d="m535.628906 453.53125 4.050782-2.945312-1.472657-2.019532zm0 0"/><path d="m535.628906 453.53125 1.546875-4.753906 2.382813.773437zm0 0"/><path d="m429.761719 436.746094-2.320313 7.132812 3.570313 1.160156zm0 0"/><path d="m429.761719 436.746094 2.320312 7.132812-3.566406 1.160156zm0 0"/><path d="m436.894531 441.925781h-7.5v3.75zm0 0"/><path d="m436.894531 441.925781-6.066406 4.410157-2.203125-3.03125zm0 0"/><path d="m422.628906 441.925781 6.070313 4.410157 2.203125-3.03125zm0 0"/><path d="m422.628906 441.925781h7.5v3.75zm0 0"/><path d="m434.171875 450.316406-2.320313-7.132812-3.570312 1.160156zm0 0"/><path d="m434.171875 450.316406-6.070313-4.410156 2.203126-3.035156zm0 0"/><path d="m425.355469 450.316406 6.066406-4.410156-2.203125-3.035156zm0 0"/><path d="m425.355469 450.316406 2.316406-7.132812 3.570313 1.160156zm0 0"/><path d="m500 485.792969-.773438 2.378906 1.1875.386719zm0 0"/><path d="m500 485.792969.773438 2.378906-1.1875.386719zm0 0"/><path d="m502.378906 487.519531h-2.5v1.246094zm0 0"/><path d="m502.378906 487.519531-2.027344 1.472657-.730468-1.011719zm0 0"/><path d="m497.621094 487.519531 2.027344 1.472657.730468-1.011719zm0 0"/><path d="m497.621094 487.519531h2.5v1.246094zm0 0"/><path d="m501.472656 490.3125-.773437-2.371094-1.195313.386719zm0 0"/><path d="m501.472656 490.3125-2.027344-1.464844.738282-1.015625zm0 0"/><path d="m498.527344 490.3125 2.027344-1.464844-.738282-1.015625zm0 0"/><path d="m498.527344 490.3125.773437-2.371094 1.195313.386719zm0 0"/></g><path d="m85 351.390625 415 264.996094 415-264.996094-415-265zm590 0c0 96.648437-78.347656 174.996094-175 174.996094s-175-78.347657-175-174.996094c0-96.652344 78.347656-175 175-175s175 78.347656 175 175zm0 0" fill="#fedf00"/><path d="m0 1.390625h1000v699.996094h-1000zm85 350 415 264.996094 415-264.996094-415-265zm0 0" fill="#009b3a"/></g></svg>