<?xml version="1.0" encoding="UTF-8"?>
<svg xmlns="http://www.w3.org/2000/svg" xmlns:xlink="http://www.w3.org/1999/xlink" width="121pt" height="85pt" viewBox="0 0 121 85" version="1.1">
<defs>
<clipPath id="clip1">
  <path d="M 0 0 L 120.960938 0 L 120.960938 85 L 0 85 Z M 0 0 "/>
</clipPath>
</defs>
<g id="surface161">
<path style=" stroke:none;fill-rule:evenodd;fill:rgb(0%,15.293884%,46.273804%);fill-opacity:1;" d="M 81.601562 42.480469 C 81.601562 54.164062 72.128906 63.632812 60.445312 63.632812 C 48.761719 63.632812 39.289062 54.164062 39.289062 42.480469 C 39.289062 30.796875 48.761719 21.324219 60.445312 21.324219 C 72.128906 21.324219 81.601562 30.796875 81.601562 42.480469 Z M 81.601562 42.480469 "/>
<path style=" stroke:none;fill-rule:evenodd;fill:rgb(99.998474%,99.998474%,99.998474%);fill-opacity:1;" d="M -3.023438 84.789062 C -3.023438 81.429688 -2.691406 78.066406 -2.035156 74.765625 C -1.378906 71.46875 -0.398438 68.234375 0.886719 65.128906 C 3.460938 58.914062 7.269531 53.214844 12.027344 48.460938 C 16.78125 43.703125 22.480469 39.898438 28.695312 37.324219 C 31.800781 36.035156 35.035156 35.054688 38.332031 34.398438 C 41.628906 33.742188 44.992188 33.410156 48.355469 33.410156 C 51.71875 33.410156 55.082031 33.742188 58.378906 34.398438 C 61.675781 35.054688 64.910156 36.035156 68.015625 37.324219 C 74.230469 39.898438 79.929688 43.703125 84.683594 48.460938 C 89.441406 53.214844 93.25 58.914062 95.824219 65.128906 C 97.109375 68.234375 98.089844 71.46875 98.746094 74.765625 C 99.402344 78.066406 99.734375 81.429688 99.734375 84.789062 L 96.710938 84.789062 C 96.710938 81.625 96.398438 78.460938 95.78125 75.355469 C 95.164062 72.253906 94.242188 69.210938 93.03125 66.285156 C 90.609375 60.4375 87.023438 55.074219 82.546875 50.597656 C 78.074219 46.121094 72.707031 42.539062 66.859375 40.117188 C 63.9375 38.902344 60.894531 37.980469 57.789062 37.363281 C 54.683594 36.746094 51.519531 36.433594 48.355469 36.433594 C 45.191406 36.433594 42.027344 36.746094 38.921875 37.363281 C 35.816406 37.980469 32.773438 38.902344 29.851562 40.117188 C 24.003906 42.539062 18.640625 46.121094 14.164062 50.597656 C 9.6875 55.074219 6.101562 60.4375 3.679688 66.285156 C 2.46875 69.210938 1.546875 72.253906 0.929688 75.355469 C 0.3125 78.460938 0 81.625 0 84.789062 Z M -3.023438 84.789062 "/>
<path style=" stroke:none;fill-rule:evenodd;fill:rgb(0%,60.783386%,22.744751%);fill-opacity:1;" d="M 42.402344 36.296875 C 42.636719 36.265625 42.855469 36.128906 43 35.925781 C 43.144531 35.71875 43.210938 35.445312 43.179688 35.183594 C 43.144531 34.921875 43.015625 34.675781 42.828125 34.511719 C 42.636719 34.34375 42.390625 34.265625 42.15625 34.292969 C 41.917969 34.324219 41.699219 34.460938 41.554688 34.667969 C 41.410156 34.871094 41.347656 35.144531 41.378906 35.40625 C 41.410156 35.667969 41.539062 35.914062 41.726562 36.082031 C 41.917969 36.246094 42.164062 36.324219 42.402344 36.296875 Z M 42.355469 35.925781 C 42.496094 35.90625 42.621094 35.824219 42.707031 35.695312 C 42.789062 35.566406 42.828125 35.394531 42.804688 35.230469 C 42.785156 35.066406 42.710938 34.910156 42.597656 34.804688 C 42.484375 34.699219 42.339844 34.648438 42.199219 34.667969 C 42.0625 34.683594 41.933594 34.769531 41.851562 34.898438 C 41.765625 35.023438 41.730469 35.195312 41.75 35.359375 C 41.769531 35.523438 41.847656 35.679688 41.957031 35.785156 C 42.070312 35.890625 42.21875 35.941406 42.355469 35.925781 Z M 42.355469 35.925781 "/>
<path style=" stroke:none;fill-rule:evenodd;fill:rgb(0%,60.783386%,22.744751%);fill-opacity:1;" d="M 44.042969 36.113281 L 44.414062 36.085938 L 44.363281 35.339844 L 45.167969 35.285156 C 45.332031 35.273438 45.492188 35.195312 45.601562 35.066406 C 45.710938 34.941406 45.765625 34.773438 45.753906 34.609375 C 45.742188 34.441406 45.664062 34.285156 45.539062 34.175781 C 45.414062 34.066406 45.246094 34.007812 45.078125 34.019531 L 43.929688 34.101562 Z M 44.339844 34.96875 L 45.113281 34.914062 C 45.179688 34.90625 45.246094 34.875 45.289062 34.824219 C 45.335938 34.773438 45.359375 34.703125 45.351562 34.636719 C 45.347656 34.570312 45.316406 34.503906 45.265625 34.460938 C 45.214844 34.414062 45.144531 34.390625 45.078125 34.394531 L 44.300781 34.449219 Z M 44.339844 34.96875 "/>
<path style=" stroke:none;fill-rule:evenodd;fill:rgb(0%,60.783386%,22.744751%);fill-opacity:1;" d="M 45.75 35.992188 C 45.730469 35.707031 45.6875 35.074219 45.257812 35.105469 L 44.710938 35.144531 C 45.34375 35.097656 45.386719 35.730469 45.40625 36.015625 Z M 45.75 35.992188 "/>
<path style=" stroke:none;fill-rule:evenodd;fill:rgb(0%,60.783386%,22.744751%);fill-opacity:1;" d="M 46.597656 35.953125 L 47.546875 35.9375 C 47.773438 35.933594 47.996094 35.835938 48.152344 35.675781 C 48.308594 35.511719 48.398438 35.285156 48.394531 35.058594 L 48.390625 34.769531 C 48.386719 34.546875 48.289062 34.320312 48.125 34.164062 C 47.964844 34.007812 47.738281 33.917969 47.511719 33.921875 L 46.5625 33.941406 Z M 46.964844 35.574219 L 47.511719 35.5625 C 47.652344 35.5625 47.796875 35.5 47.894531 35.398438 C 47.992188 35.292969 48.050781 35.152344 48.046875 35.007812 L 48.046875 34.835938 C 48.042969 34.691406 47.980469 34.550781 47.878906 34.449219 C 47.773438 34.351562 47.632812 34.292969 47.488281 34.296875 L 46.941406 34.308594 Z M 46.964844 35.574219 "/>
<path style=" stroke:none;fill-rule:evenodd;fill:rgb(0%,60.783386%,22.744751%);fill-opacity:1;" d="M 49.15625 35.929688 L 50.96875 35.992188 L 50.980469 35.617188 L 49.511719 35.566406 L 49.53125 35.050781 L 50.683594 35.089844 L 50.695312 34.746094 L 49.542969 34.703125 L 49.558594 34.300781 L 50.9375 34.351562 L 50.949219 33.976562 L 49.226562 33.914062 Z M 49.15625 35.929688 "/>
<path style=" stroke:none;fill-rule:evenodd;fill:rgb(0%,60.783386%,22.744751%);fill-opacity:1;" d="M 51.710938 36.039062 L 52.054688 36.066406 L 52.175781 34.691406 L 52.457031 36.101562 L 52.773438 36.128906 L 53.292969 34.789062 L 53.171875 36.164062 L 53.515625 36.195312 L 53.691406 34.1875 L 53.191406 34.144531 L 52.667969 35.484375 L 52.386719 34.074219 L 51.886719 34.03125 Z M 51.710938 36.039062 "/>
<path style=" stroke:none;fill-rule:evenodd;fill:rgb(0%,60.783386%,22.744751%);fill-opacity:1;" d="M 55.886719 36.507812 L 57.375 36.765625 L 57.433594 36.425781 L 56.285156 36.226562 L 56.363281 35.773438 L 57.296875 35.933594 L 57.355469 35.59375 L 56.421875 35.433594 L 56.472656 35.121094 L 57.585938 35.3125 L 57.644531 34.972656 L 56.191406 34.722656 Z M 55.886719 36.507812 "/>
<path style=" stroke:none;fill-rule:evenodd;fill:rgb(0%,60.783386%,22.744751%);fill-opacity:1;" d="M 59.710938 37.261719 L 60.074219 37.355469 L 60.261719 36.628906 L 61.042969 36.832031 C 61.199219 36.871094 61.378906 36.847656 61.519531 36.761719 C 61.664062 36.679688 61.769531 36.539062 61.8125 36.375 C 61.855469 36.214844 61.828125 36.039062 61.746094 35.898438 C 61.660156 35.753906 61.519531 35.648438 61.359375 35.605469 L 60.242188 35.316406 Z M 60.355469 36.265625 L 61.105469 36.460938 C 61.171875 36.480469 61.246094 36.46875 61.304688 36.433594 C 61.363281 36.398438 61.40625 36.339844 61.421875 36.277344 C 61.441406 36.210938 61.429688 36.136719 61.394531 36.078125 C 61.359375 36.019531 61.300781 35.976562 61.234375 35.960938 L 60.484375 35.765625 Z M 60.355469 36.265625 "/>
<path style=" stroke:none;fill-rule:evenodd;fill:rgb(0%,60.783386%,22.744751%);fill-opacity:1;" d="M 62.183594 37.917969 L 62.539062 38.03125 L 62.765625 37.320312 L 63.535156 37.558594 C 63.691406 37.609375 63.871094 37.59375 64.015625 37.519531 C 64.164062 37.441406 64.277344 37.304688 64.328125 37.148438 C 64.378906 36.988281 64.363281 36.8125 64.285156 36.664062 C 64.210938 36.515625 64.070312 36.402344 63.914062 36.351562 L 62.816406 36.007812 Z M 62.878906 36.960938 L 63.617188 37.195312 C 63.683594 37.214844 63.753906 37.210938 63.816406 37.179688 C 63.875 37.144531 63.921875 37.089844 63.945312 37.027344 C 63.964844 36.960938 63.957031 36.890625 63.925781 36.828125 C 63.894531 36.769531 63.839844 36.722656 63.773438 36.699219 L 63.035156 36.46875 Z M 62.878906 36.960938 "/>
<path style=" stroke:none;fill-rule:evenodd;fill:rgb(0%,60.783386%,22.744751%);fill-opacity:1;" d="M 63.816406 38.433594 C 63.902344 38.160156 64.09375 37.554688 63.683594 37.425781 L 63.160156 37.261719 C 63.765625 37.453125 63.574219 38.054688 63.488281 38.332031 Z M 63.816406 38.433594 "/>
<path style=" stroke:none;fill-rule:evenodd;fill:rgb(0%,60.783386%,22.744751%);fill-opacity:1;" d="M 65.464844 39.027344 C 65.6875 39.109375 65.949219 39.089844 66.171875 38.972656 C 66.394531 38.855469 66.574219 38.644531 66.667969 38.398438 C 66.761719 38.152344 66.761719 37.871094 66.667969 37.640625 C 66.578125 37.40625 66.394531 37.222656 66.171875 37.136719 C 65.949219 37.054688 65.691406 37.074219 65.46875 37.191406 C 65.246094 37.304688 65.0625 37.515625 64.96875 37.765625 C 64.878906 38.011719 64.878906 38.289062 64.96875 38.523438 C 65.0625 38.757812 65.242188 38.941406 65.464844 39.027344 Z M 65.597656 38.675781 C 65.726562 38.722656 65.882812 38.707031 66.015625 38.632812 C 66.148438 38.558594 66.261719 38.421875 66.316406 38.269531 C 66.375 38.113281 66.378906 37.9375 66.328125 37.792969 C 66.277344 37.648438 66.171875 37.539062 66.039062 37.488281 C 65.910156 37.441406 65.757812 37.453125 65.625 37.53125 C 65.488281 37.605469 65.378906 37.738281 65.320312 37.894531 C 65.261719 38.050781 65.257812 38.222656 65.308594 38.367188 C 65.359375 38.511719 65.464844 38.625 65.597656 38.675781 Z M 65.597656 38.675781 "/>
<path style=" stroke:none;fill-rule:evenodd;fill:rgb(0%,60.783386%,22.744751%);fill-opacity:1;" d="M 67.839844 39.984375 C 68.054688 40.078125 68.316406 40.074219 68.542969 39.96875 C 68.773438 39.863281 68.964844 39.664062 69.070312 39.421875 C 69.175781 39.179688 69.191406 38.898438 69.113281 38.660156 C 69.03125 38.421875 68.859375 38.230469 68.640625 38.136719 C 68.425781 38.039062 68.164062 38.046875 67.9375 38.152344 C 67.707031 38.253906 67.515625 38.457031 67.40625 38.699219 C 67.304688 38.941406 67.289062 39.21875 67.367188 39.457031 C 67.449219 39.695312 67.621094 39.890625 67.839844 39.984375 Z M 67.988281 39.640625 C 68.113281 39.695312 68.269531 39.6875 68.40625 39.621094 C 68.542969 39.550781 68.664062 39.425781 68.726562 39.269531 C 68.792969 39.121094 68.808594 38.945312 68.765625 38.800781 C 68.71875 38.652344 68.621094 38.535156 68.492188 38.480469 C 68.363281 38.421875 68.210938 38.429688 68.074219 38.5 C 67.9375 38.566406 67.816406 38.695312 67.75 38.847656 C 67.683594 39 67.671875 39.171875 67.714844 39.320312 C 67.757812 39.464844 67.859375 39.585938 67.988281 39.640625 Z M 67.988281 39.640625 "/>
<path style=" stroke:none;fill-rule:evenodd;fill:rgb(0%,60.783386%,22.744751%);fill-opacity:1;" d="M 68.371094 39.117188 L 69.070312 39.421875 L 68.957031 39.683594 L 68.257812 39.378906 Z M 68.371094 39.117188 "/>
<path style=" stroke:none;fill-rule:evenodd;fill:rgb(0%,60.783386%,22.744751%);fill-opacity:1;" d="M 68.808594 39.304688 L 69.070312 39.421875 L 68.667969 40.34375 L 68.40625 40.230469 Z M 68.808594 39.304688 "/>
<path style=" stroke:none;fill-rule:evenodd;fill:rgb(0%,60.783386%,22.744751%);fill-opacity:1;" d="M 69.34375 40.660156 L 69.679688 40.828125 L 70.011719 40.15625 L 70.734375 40.515625 C 70.882812 40.589844 71.0625 40.601562 71.21875 40.550781 C 71.375 40.496094 71.511719 40.378906 71.585938 40.230469 C 71.65625 40.082031 71.671875 39.90625 71.617188 39.75 C 71.566406 39.59375 71.449219 39.457031 71.300781 39.382812 L 70.269531 38.871094 Z M 70.179688 39.820312 L 70.875 40.167969 C 70.9375 40.199219 71.007812 40.203125 71.074219 40.183594 C 71.136719 40.160156 71.191406 40.113281 71.222656 40.050781 C 71.253906 39.992188 71.257812 39.917969 71.238281 39.855469 C 71.214844 39.789062 71.167969 39.734375 71.105469 39.703125 L 70.410156 39.359375 Z M 70.179688 39.820312 "/>
<path style=" stroke:none;fill-rule:evenodd;fill:rgb(0%,60.783386%,22.744751%);fill-opacity:1;" d="M 70.878906 41.425781 C 71.007812 41.167969 71.289062 40.597656 70.902344 40.40625 L 70.414062 40.164062 C 70.980469 40.445312 70.699219 41.011719 70.570312 41.269531 Z M 70.878906 41.425781 "/>
<path style=" stroke:none;fill-rule:evenodd;fill:rgb(0%,60.783386%,22.744751%);fill-opacity:1;" d="M 71.625 41.820312 L 73.203125 42.710938 L 73.390625 42.386719 L 72.109375 41.664062 L 72.367188 41.210938 L 73.367188 41.777344 L 73.539062 41.476562 L 72.535156 40.910156 L 72.734375 40.5625 L 73.9375 41.242188 L 74.121094 40.914062 L 72.617188 40.066406 Z M 71.625 41.820312 "/>
<path style=" stroke:none;fill-rule:evenodd;fill:rgb(0%,60.783386%,22.744751%);fill-opacity:1;" d="M 74.566406 42.804688 C 74.457031 42.976562 74.566406 43.164062 74.808594 43.320312 C 75.050781 43.472656 75.21875 43.46875 75.289062 43.359375 C 75.507812 43.011719 74.234375 42.507812 74.625 41.90625 C 74.964844 41.386719 75.542969 41.789062 75.761719 41.929688 C 75.980469 42.070312 76.332031 42.429688 76.058594 42.84375 L 75.6875 42.609375 C 75.804688 42.425781 75.675781 42.25 75.484375 42.125 C 75.296875 42.007812 75.140625 41.953125 75.03125 42.128906 C 74.84375 42.410156 76.089844 42.941406 75.707031 43.542969 C 75.425781 43.984375 74.933594 43.792969 74.609375 43.582031 C 74.328125 43.40625 73.910156 42.984375 74.183594 42.5625 Z M 74.566406 42.804688 "/>
<path style=" stroke:none;fill-rule:evenodd;fill:rgb(0%,60.783386%,22.744751%);fill-opacity:1;" d="M 76.726562 44.234375 C 76.609375 44.398438 76.710938 44.59375 76.945312 44.761719 C 77.179688 44.925781 77.34375 44.929688 77.417969 44.824219 C 77.65625 44.492188 76.410156 43.921875 76.835938 43.339844 C 77.199219 42.839844 77.757812 43.273438 77.96875 43.421875 C 78.179688 43.574219 78.511719 43.949219 78.214844 44.351562 L 77.859375 44.097656 C 77.984375 43.921875 77.867188 43.738281 77.679688 43.605469 C 77.496094 43.476562 77.347656 43.414062 77.226562 43.582031 C 77.023438 43.855469 78.242188 44.449219 77.828125 45.03125 C 77.523438 45.457031 77.042969 45.238281 76.726562 45.011719 C 76.460938 44.820312 76.0625 44.378906 76.359375 43.96875 Z M 76.726562 44.234375 "/>
<path style=" stroke:none;fill-rule:evenodd;fill:rgb(0%,60.783386%,22.744751%);fill-opacity:1;" d="M 78.769531 46.550781 C 78.957031 46.699219 79.210938 46.761719 79.457031 46.71875 C 79.703125 46.679688 79.941406 46.535156 80.109375 46.328125 C 80.273438 46.121094 80.359375 45.855469 80.34375 45.605469 C 80.328125 45.355469 80.210938 45.125 80.023438 44.976562 C 79.839844 44.828125 79.585938 44.765625 79.339844 44.808594 C 79.09375 44.847656 78.851562 44.992188 78.6875 45.199219 C 78.523438 45.40625 78.4375 45.671875 78.453125 45.921875 C 78.46875 46.171875 78.585938 46.40625 78.769531 46.550781 Z M 79.003906 46.257812 C 79.113281 46.347656 79.265625 46.378906 79.414062 46.347656 C 79.566406 46.320312 79.710938 46.226562 79.816406 46.09375 C 79.917969 45.964844 79.976562 45.800781 79.972656 45.648438 C 79.96875 45.496094 79.902344 45.355469 79.792969 45.269531 C 79.683594 45.179688 79.53125 45.148438 79.382812 45.179688 C 79.234375 45.210938 79.085938 45.304688 78.980469 45.433594 C 78.878906 45.5625 78.820312 45.726562 78.824219 45.878906 C 78.828125 46.035156 78.894531 46.171875 79.003906 46.257812 Z M 79.003906 46.257812 "/>
<path style=" stroke:none;fill-rule:evenodd;fill:rgb(99.998474%,99.998474%,99.998474%);fill-opacity:1;" d="M 43.175781 37.773438 L 42.894531 38.636719 L 43.324219 38.773438 Z M 43.175781 37.773438 "/>
<path style=" stroke:none;fill-rule:evenodd;fill:rgb(99.998474%,99.998474%,99.998474%);fill-opacity:1;" d="M 43.175781 37.773438 L 43.457031 38.636719 L 43.023438 38.773438 Z M 43.175781 37.773438 "/>
<path style=" stroke:none;fill-rule:evenodd;fill:rgb(99.998474%,99.998474%,99.998474%);fill-opacity:1;" d="M 44.039062 38.398438 L 43.128906 38.398438 L 43.128906 38.851562 Z M 44.039062 38.398438 "/>
<path style=" stroke:none;fill-rule:evenodd;fill:rgb(99.998474%,99.998474%,99.998474%);fill-opacity:1;" d="M 44.039062 38.398438 L 43.304688 38.933594 L 43.035156 38.566406 Z M 44.039062 38.398438 "/>
<path style=" stroke:none;fill-rule:evenodd;fill:rgb(99.998474%,99.998474%,99.998474%);fill-opacity:1;" d="M 42.3125 38.398438 L 43.046875 38.933594 L 43.3125 38.566406 Z M 42.3125 38.398438 "/>
<path style=" stroke:none;fill-rule:evenodd;fill:rgb(99.998474%,99.998474%,99.998474%);fill-opacity:1;" d="M 42.3125 38.398438 L 43.21875 38.398438 L 43.21875 38.851562 Z M 42.3125 38.398438 "/>
<path style=" stroke:none;fill-rule:evenodd;fill:rgb(99.998474%,99.998474%,99.998474%);fill-opacity:1;" d="M 43.707031 39.414062 L 43.425781 38.550781 L 42.996094 38.691406 Z M 43.707031 39.414062 "/>
<path style=" stroke:none;fill-rule:evenodd;fill:rgb(99.998474%,99.998474%,99.998474%);fill-opacity:1;" d="M 43.707031 39.414062 L 42.972656 38.878906 L 43.242188 38.515625 Z M 43.707031 39.414062 "/>
<path style=" stroke:none;fill-rule:evenodd;fill:rgb(99.998474%,99.998474%,99.998474%);fill-opacity:1;" d="M 42.640625 39.414062 L 43.375 38.878906 L 43.109375 38.515625 Z M 42.640625 39.414062 "/>
<path style=" stroke:none;fill-rule:evenodd;fill:rgb(99.998474%,99.998474%,99.998474%);fill-opacity:1;" d="M 42.640625 39.414062 L 42.921875 38.550781 L 43.351562 38.691406 Z M 42.640625 39.414062 "/>
<path style=" stroke:none;fill-rule:evenodd;fill:rgb(99.998474%,99.998474%,99.998474%);fill-opacity:1;" d="M 45.046875 46.667969 L 44.765625 47.53125 L 45.195312 47.667969 Z M 45.046875 46.667969 "/>
<path style=" stroke:none;fill-rule:evenodd;fill:rgb(99.998474%,99.998474%,99.998474%);fill-opacity:1;" d="M 45.046875 46.667969 L 45.324219 47.53125 L 44.894531 47.667969 Z M 45.046875 46.667969 "/>
<path style=" stroke:none;fill-rule:evenodd;fill:rgb(99.998474%,99.998474%,99.998474%);fill-opacity:1;" d="M 45.90625 47.292969 L 45 47.292969 L 45 47.746094 Z M 45.90625 47.292969 "/>
<path style=" stroke:none;fill-rule:evenodd;fill:rgb(99.998474%,99.998474%,99.998474%);fill-opacity:1;" d="M 45.90625 47.292969 L 45.175781 47.828125 L 44.90625 47.460938 Z M 45.90625 47.292969 "/>
<path style=" stroke:none;fill-rule:evenodd;fill:rgb(99.998474%,99.998474%,99.998474%);fill-opacity:1;" d="M 44.183594 47.292969 L 44.917969 47.828125 L 45.183594 47.460938 Z M 44.183594 47.292969 "/>
<path style=" stroke:none;fill-rule:evenodd;fill:rgb(99.998474%,99.998474%,99.998474%);fill-opacity:1;" d="M 44.183594 47.292969 L 45.089844 47.292969 L 45.089844 47.746094 Z M 44.183594 47.292969 "/>
<path style=" stroke:none;fill-rule:evenodd;fill:rgb(99.998474%,99.998474%,99.998474%);fill-opacity:1;" d="M 45.578125 48.308594 L 45.296875 47.445312 L 44.867188 47.585938 Z M 45.578125 48.308594 "/>
<path style=" stroke:none;fill-rule:evenodd;fill:rgb(99.998474%,99.998474%,99.998474%);fill-opacity:1;" d="M 45.578125 48.308594 L 44.84375 47.773438 L 45.109375 47.40625 Z M 45.578125 48.308594 "/>
<path style=" stroke:none;fill-rule:evenodd;fill:rgb(99.998474%,99.998474%,99.998474%);fill-opacity:1;" d="M 44.511719 48.308594 L 45.246094 47.773438 L 44.980469 47.40625 Z M 44.511719 48.308594 "/>
<path style=" stroke:none;fill-rule:evenodd;fill:rgb(99.998474%,99.998474%,99.998474%);fill-opacity:1;" d="M 44.511719 48.308594 L 44.792969 47.445312 L 45.222656 47.585938 Z M 44.511719 48.308594 "/>
<path style=" stroke:none;fill-rule:evenodd;fill:rgb(99.998474%,99.998474%,99.998474%);fill-opacity:1;" d="M 42.453125 48.71875 L 42.222656 49.4375 L 42.582031 49.554688 Z M 42.453125 48.71875 "/>
<path style=" stroke:none;fill-rule:evenodd;fill:rgb(99.998474%,99.998474%,99.998474%);fill-opacity:1;" d="M 42.453125 48.71875 L 42.6875 49.4375 L 42.328125 49.554688 Z M 42.453125 48.71875 "/>
<path style=" stroke:none;fill-rule:evenodd;fill:rgb(99.998474%,99.998474%,99.998474%);fill-opacity:1;" d="M 43.175781 49.238281 L 42.417969 49.238281 L 42.417969 49.617188 Z M 43.175781 49.238281 "/>
<path style=" stroke:none;fill-rule:evenodd;fill:rgb(99.998474%,99.998474%,99.998474%);fill-opacity:1;" d="M 43.175781 49.238281 L 42.5625 49.683594 L 42.339844 49.378906 Z M 43.175781 49.238281 "/>
<path style=" stroke:none;fill-rule:evenodd;fill:rgb(99.998474%,99.998474%,99.998474%);fill-opacity:1;" d="M 41.738281 49.238281 L 42.347656 49.683594 L 42.570312 49.378906 Z M 41.738281 49.238281 "/>
<path style=" stroke:none;fill-rule:evenodd;fill:rgb(99.998474%,99.998474%,99.998474%);fill-opacity:1;" d="M 41.738281 49.238281 L 42.492188 49.238281 L 42.492188 49.617188 Z M 41.738281 49.238281 "/>
<path style=" stroke:none;fill-rule:evenodd;fill:rgb(99.998474%,99.998474%,99.998474%);fill-opacity:1;" d="M 42.898438 50.085938 L 42.664062 49.367188 L 42.304688 49.480469 Z M 42.898438 50.085938 "/>
<path style=" stroke:none;fill-rule:evenodd;fill:rgb(99.998474%,99.998474%,99.998474%);fill-opacity:1;" d="M 42.898438 50.085938 L 42.289062 49.640625 L 42.511719 49.335938 Z M 42.898438 50.085938 "/>
<path style=" stroke:none;fill-rule:evenodd;fill:rgb(99.998474%,99.998474%,99.998474%);fill-opacity:1;" d="M 42.011719 50.085938 L 42.621094 49.640625 L 42.398438 49.335938 Z M 42.011719 50.085938 "/>
<path style=" stroke:none;fill-rule:evenodd;fill:rgb(99.998474%,99.998474%,99.998474%);fill-opacity:1;" d="M 42.011719 50.085938 L 42.246094 49.367188 L 42.601562 49.480469 Z M 42.011719 50.085938 "/>
<path style=" stroke:none;fill-rule:evenodd;fill:rgb(99.998474%,99.998474%,99.998474%);fill-opacity:1;" d="M 47.117188 45.847656 L 46.984375 46.257812 L 47.191406 46.324219 Z M 47.117188 45.847656 "/>
<path style=" stroke:none;fill-rule:evenodd;fill:rgb(99.998474%,99.998474%,99.998474%);fill-opacity:1;" d="M 47.117188 45.847656 L 47.25 46.257812 L 47.046875 46.324219 Z M 47.117188 45.847656 "/>
<path style=" stroke:none;fill-rule:evenodd;fill:rgb(99.998474%,99.998474%,99.998474%);fill-opacity:1;" d="M 47.527344 46.144531 L 47.097656 46.144531 L 47.097656 46.359375 Z M 47.527344 46.144531 "/>
<path style=" stroke:none;fill-rule:evenodd;fill:rgb(99.998474%,99.998474%,99.998474%);fill-opacity:1;" d="M 47.527344 46.144531 L 47.179688 46.398438 L 47.050781 46.222656 Z M 47.527344 46.144531 "/>
<path style=" stroke:none;fill-rule:evenodd;fill:rgb(99.998474%,99.998474%,99.998474%);fill-opacity:1;" d="M 46.707031 46.144531 L 47.054688 46.398438 L 47.183594 46.222656 Z M 46.707031 46.144531 "/>
<path style=" stroke:none;fill-rule:evenodd;fill:rgb(99.998474%,99.998474%,99.998474%);fill-opacity:1;" d="M 46.707031 46.144531 L 47.140625 46.144531 L 47.140625 46.359375 Z M 46.707031 46.144531 "/>
<path style=" stroke:none;fill-rule:evenodd;fill:rgb(99.998474%,99.998474%,99.998474%);fill-opacity:1;" d="M 47.371094 46.628906 L 47.238281 46.21875 L 47.03125 46.285156 Z M 47.371094 46.628906 "/>
<path style=" stroke:none;fill-rule:evenodd;fill:rgb(99.998474%,99.998474%,99.998474%);fill-opacity:1;" d="M 47.371094 46.628906 L 47.023438 46.375 L 47.148438 46.199219 Z M 47.371094 46.628906 "/>
<path style=" stroke:none;fill-rule:evenodd;fill:rgb(99.998474%,99.998474%,99.998474%);fill-opacity:1;" d="M 46.863281 46.628906 L 47.214844 46.375 L 47.085938 46.199219 Z M 46.863281 46.628906 "/>
<path style=" stroke:none;fill-rule:evenodd;fill:rgb(99.998474%,99.998474%,99.998474%);fill-opacity:1;" d="M 46.863281 46.628906 L 46.996094 46.21875 L 47.203125 46.285156 Z M 46.863281 46.628906 "/>
<path style=" stroke:none;fill-rule:evenodd;fill:rgb(99.998474%,99.998474%,99.998474%);fill-opacity:1;" d="M 49.449219 48.917969 L 49.214844 49.636719 L 49.574219 49.753906 Z M 49.449219 48.917969 "/>
<path style=" stroke:none;fill-rule:evenodd;fill:rgb(99.998474%,99.998474%,99.998474%);fill-opacity:1;" d="M 49.449219 48.917969 L 49.683594 49.636719 L 49.324219 49.753906 Z M 49.449219 48.917969 "/>
<path style=" stroke:none;fill-rule:evenodd;fill:rgb(99.998474%,99.998474%,99.998474%);fill-opacity:1;" d="M 50.167969 49.441406 L 49.410156 49.441406 L 49.410156 49.820312 Z M 50.167969 49.441406 "/>
<path style=" stroke:none;fill-rule:evenodd;fill:rgb(99.998474%,99.998474%,99.998474%);fill-opacity:1;" d="M 50.167969 49.441406 L 49.554688 49.886719 L 49.335938 49.578125 Z M 50.167969 49.441406 "/>
<path style=" stroke:none;fill-rule:evenodd;fill:rgb(99.998474%,99.998474%,99.998474%);fill-opacity:1;" d="M 48.730469 49.441406 L 49.34375 49.886719 L 49.5625 49.578125 Z M 48.730469 49.441406 "/>
<path style=" stroke:none;fill-rule:evenodd;fill:rgb(99.998474%,99.998474%,99.998474%);fill-opacity:1;" d="M 48.730469 49.441406 L 49.488281 49.441406 L 49.488281 49.820312 Z M 48.730469 49.441406 "/>
<path style=" stroke:none;fill-rule:evenodd;fill:rgb(99.998474%,99.998474%,99.998474%);fill-opacity:1;" d="M 49.894531 50.285156 L 49.660156 49.566406 L 49.300781 49.683594 Z M 49.894531 50.285156 "/>
<path style=" stroke:none;fill-rule:evenodd;fill:rgb(99.998474%,99.998474%,99.998474%);fill-opacity:1;" d="M 49.894531 50.285156 L 49.28125 49.84375 L 49.503906 49.535156 Z M 49.894531 50.285156 "/>
<path style=" stroke:none;fill-rule:evenodd;fill:rgb(99.998474%,99.998474%,99.998474%);fill-opacity:1;" d="M 49.003906 50.285156 L 49.617188 49.84375 L 49.394531 49.535156 Z M 49.003906 50.285156 "/>
<path style=" stroke:none;fill-rule:evenodd;fill:rgb(99.998474%,99.998474%,99.998474%);fill-opacity:1;" d="M 49.003906 50.285156 L 49.238281 49.566406 L 49.597656 49.683594 Z M 49.003906 50.285156 "/>
<path style=" stroke:none;fill-rule:evenodd;fill:rgb(99.998474%,99.998474%,99.998474%);fill-opacity:1;" d="M 48.816406 51.171875 L 48.628906 51.746094 L 48.917969 51.839844 Z M 48.816406 51.171875 "/>
<path style=" stroke:none;fill-rule:evenodd;fill:rgb(99.998474%,99.998474%,99.998474%);fill-opacity:1;" d="M 48.816406 51.171875 L 49.003906 51.746094 L 48.714844 51.839844 Z M 48.816406 51.171875 "/>
<path style=" stroke:none;fill-rule:evenodd;fill:rgb(99.998474%,99.998474%,99.998474%);fill-opacity:1;" d="M 49.390625 51.589844 L 48.785156 51.589844 L 48.785156 51.890625 Z M 49.390625 51.589844 "/>
<path style=" stroke:none;fill-rule:evenodd;fill:rgb(99.998474%,99.998474%,99.998474%);fill-opacity:1;" d="M 49.390625 51.589844 L 48.902344 51.945312 L 48.722656 51.699219 Z M 49.390625 51.589844 "/>
<path style=" stroke:none;fill-rule:evenodd;fill:rgb(99.998474%,99.998474%,99.998474%);fill-opacity:1;" d="M 48.242188 51.589844 L 48.730469 51.945312 L 48.90625 51.699219 Z M 48.242188 51.589844 "/>
<path style=" stroke:none;fill-rule:evenodd;fill:rgb(99.998474%,99.998474%,99.998474%);fill-opacity:1;" d="M 48.242188 51.589844 L 48.84375 51.589844 L 48.84375 51.890625 Z M 48.242188 51.589844 "/>
<path style=" stroke:none;fill-rule:evenodd;fill:rgb(99.998474%,99.998474%,99.998474%);fill-opacity:1;" d="M 49.171875 52.265625 L 48.984375 51.691406 L 48.695312 51.785156 Z M 49.171875 52.265625 "/>
<path style=" stroke:none;fill-rule:evenodd;fill:rgb(99.998474%,99.998474%,99.998474%);fill-opacity:1;" d="M 49.171875 52.265625 L 48.683594 51.910156 L 48.859375 51.664062 Z M 49.171875 52.265625 "/>
<path style=" stroke:none;fill-rule:evenodd;fill:rgb(99.998474%,99.998474%,99.998474%);fill-opacity:1;" d="M 48.460938 52.265625 L 48.949219 51.910156 L 48.773438 51.664062 Z M 48.460938 52.265625 "/>
<path style=" stroke:none;fill-rule:evenodd;fill:rgb(99.998474%,99.998474%,99.998474%);fill-opacity:1;" d="M 48.460938 52.265625 L 48.648438 51.691406 L 48.933594 51.785156 Z M 48.460938 52.265625 "/>
<path style=" stroke:none;fill-rule:evenodd;fill:rgb(99.998474%,99.998474%,99.998474%);fill-opacity:1;" d="M 67.007812 35.011719 L 66.726562 35.871094 L 67.15625 36.011719 Z M 67.007812 35.011719 "/>
<path style=" stroke:none;fill-rule:evenodd;fill:rgb(99.998474%,99.998474%,99.998474%);fill-opacity:1;" d="M 67.007812 35.011719 L 67.289062 35.871094 L 66.855469 36.011719 Z M 67.007812 35.011719 "/>
<path style=" stroke:none;fill-rule:evenodd;fill:rgb(99.998474%,99.998474%,99.998474%);fill-opacity:1;" d="M 67.871094 35.636719 L 66.964844 35.636719 L 66.964844 36.089844 Z M 67.871094 35.636719 "/>
<path style=" stroke:none;fill-rule:evenodd;fill:rgb(99.998474%,99.998474%,99.998474%);fill-opacity:1;" d="M 67.871094 35.636719 L 67.136719 36.167969 L 66.871094 35.800781 Z M 67.871094 35.636719 "/>
<path style=" stroke:none;fill-rule:evenodd;fill:rgb(99.998474%,99.998474%,99.998474%);fill-opacity:1;" d="M 66.144531 35.636719 L 66.878906 36.167969 L 67.144531 35.800781 Z M 66.144531 35.636719 "/>
<path style=" stroke:none;fill-rule:evenodd;fill:rgb(99.998474%,99.998474%,99.998474%);fill-opacity:1;" d="M 66.144531 35.636719 L 67.050781 35.636719 L 67.050781 36.089844 Z M 66.144531 35.636719 "/>
<path style=" stroke:none;fill-rule:evenodd;fill:rgb(99.998474%,99.998474%,99.998474%);fill-opacity:1;" d="M 67.539062 36.648438 L 67.257812 35.789062 L 66.828125 35.929688 Z M 67.539062 36.648438 "/>
<path style=" stroke:none;fill-rule:evenodd;fill:rgb(99.998474%,99.998474%,99.998474%);fill-opacity:1;" d="M 67.539062 36.648438 L 66.804688 36.117188 L 67.074219 35.75 Z M 67.539062 36.648438 "/>
<path style=" stroke:none;fill-rule:evenodd;fill:rgb(99.998474%,99.998474%,99.998474%);fill-opacity:1;" d="M 66.472656 36.648438 L 67.207031 36.117188 L 66.941406 35.75 Z M 66.472656 36.648438 "/>
<path style=" stroke:none;fill-rule:evenodd;fill:rgb(99.998474%,99.998474%,99.998474%);fill-opacity:1;" d="M 66.472656 36.648438 L 66.753906 35.789062 L 67.183594 35.929688 Z M 66.472656 36.648438 "/>
<path style=" stroke:none;fill-rule:evenodd;fill:rgb(99.998474%,99.998474%,99.998474%);fill-opacity:1;" d="M 75.269531 49 L 74.988281 49.859375 L 75.417969 50 Z M 75.269531 49 "/>
<path style=" stroke:none;fill-rule:evenodd;fill:rgb(99.998474%,99.998474%,99.998474%);fill-opacity:1;" d="M 75.269531 49 L 75.546875 49.859375 L 75.117188 50 Z M 75.269531 49 "/>
<path style=" stroke:none;fill-rule:evenodd;fill:rgb(99.998474%,99.998474%,99.998474%);fill-opacity:1;" d="M 76.128906 49.625 L 75.222656 49.625 L 75.222656 50.078125 Z M 76.128906 49.625 "/>
<path style=" stroke:none;fill-rule:evenodd;fill:rgb(99.998474%,99.998474%,99.998474%);fill-opacity:1;" d="M 76.128906 49.625 L 75.394531 50.15625 L 75.128906 49.792969 Z M 76.128906 49.625 "/>
<path style=" stroke:none;fill-rule:evenodd;fill:rgb(99.998474%,99.998474%,99.998474%);fill-opacity:1;" d="M 74.40625 49.625 L 75.140625 50.15625 L 75.40625 49.792969 Z M 74.40625 49.625 "/>
<path style=" stroke:none;fill-rule:evenodd;fill:rgb(99.998474%,99.998474%,99.998474%);fill-opacity:1;" d="M 74.40625 49.625 L 75.3125 49.625 L 75.3125 50.078125 Z M 74.40625 49.625 "/>
<path style=" stroke:none;fill-rule:evenodd;fill:rgb(99.998474%,99.998474%,99.998474%);fill-opacity:1;" d="M 75.800781 50.636719 L 75.519531 49.777344 L 75.089844 49.914062 Z M 75.800781 50.636719 "/>
<path style=" stroke:none;fill-rule:evenodd;fill:rgb(99.998474%,99.998474%,99.998474%);fill-opacity:1;" d="M 75.800781 50.636719 L 75.066406 50.105469 L 75.332031 49.738281 Z M 75.800781 50.636719 "/>
<path style=" stroke:none;fill-rule:evenodd;fill:rgb(99.998474%,99.998474%,99.998474%);fill-opacity:1;" d="M 74.734375 50.636719 L 75.46875 50.105469 L 75.203125 49.738281 Z M 74.734375 50.636719 "/>
<path style=" stroke:none;fill-rule:evenodd;fill:rgb(99.998474%,99.998474%,99.998474%);fill-opacity:1;" d="M 74.734375 50.636719 L 75.015625 49.777344 L 75.445312 49.914062 Z M 74.734375 50.636719 "/>
<path style=" stroke:none;fill-rule:evenodd;fill:rgb(99.998474%,99.998474%,99.998474%);fill-opacity:1;" d="M 78.203125 49.5 L 78.015625 50.078125 L 78.304688 50.171875 Z M 78.203125 49.5 "/>
<path style=" stroke:none;fill-rule:evenodd;fill:rgb(99.998474%,99.998474%,99.998474%);fill-opacity:1;" d="M 78.203125 49.5 L 78.390625 50.078125 L 78.101562 50.171875 Z M 78.203125 49.5 "/>
<path style=" stroke:none;fill-rule:evenodd;fill:rgb(99.998474%,99.998474%,99.998474%);fill-opacity:1;" d="M 78.777344 49.921875 L 78.175781 49.921875 L 78.175781 50.222656 Z M 78.777344 49.921875 "/>
<path style=" stroke:none;fill-rule:evenodd;fill:rgb(99.998474%,99.998474%,99.998474%);fill-opacity:1;" d="M 78.777344 49.921875 L 78.289062 50.273438 L 78.113281 50.03125 Z M 78.777344 49.921875 "/>
<path style=" stroke:none;fill-rule:evenodd;fill:rgb(99.998474%,99.998474%,99.998474%);fill-opacity:1;" d="M 77.628906 49.921875 L 78.117188 50.273438 L 78.296875 50.03125 Z M 77.628906 49.921875 "/>
<path style=" stroke:none;fill-rule:evenodd;fill:rgb(99.998474%,99.998474%,99.998474%);fill-opacity:1;" d="M 77.628906 49.921875 L 78.234375 49.921875 L 78.234375 50.222656 Z M 77.628906 49.921875 "/>
<path style=" stroke:none;fill-rule:evenodd;fill:rgb(99.998474%,99.998474%,99.998474%);fill-opacity:1;" d="M 78.558594 50.59375 L 78.371094 50.019531 L 78.085938 50.113281 Z M 78.558594 50.59375 "/>
<path style=" stroke:none;fill-rule:evenodd;fill:rgb(99.998474%,99.998474%,99.998474%);fill-opacity:1;" d="M 78.558594 50.59375 L 78.070312 50.238281 L 78.246094 49.996094 Z M 78.558594 50.59375 "/>
<path style=" stroke:none;fill-rule:evenodd;fill:rgb(99.998474%,99.998474%,99.998474%);fill-opacity:1;" d="M 77.847656 50.59375 L 78.335938 50.238281 L 78.160156 49.996094 Z M 77.847656 50.59375 "/>
<path style=" stroke:none;fill-rule:evenodd;fill:rgb(99.998474%,99.998474%,99.998474%);fill-opacity:1;" d="M 77.847656 50.59375 L 78.035156 50.019531 L 78.324219 50.113281 Z M 77.847656 50.59375 "/>
<path style=" stroke:none;fill-rule:evenodd;fill:rgb(99.998474%,99.998474%,99.998474%);fill-opacity:1;" d="M 76.132812 51.019531 L 75.898438 51.738281 L 76.257812 51.855469 Z M 76.132812 51.019531 "/>
<path style=" stroke:none;fill-rule:evenodd;fill:rgb(99.998474%,99.998474%,99.998474%);fill-opacity:1;" d="M 76.132812 51.019531 L 76.363281 51.738281 L 76.003906 51.855469 Z M 76.132812 51.019531 "/>
<path style=" stroke:none;fill-rule:evenodd;fill:rgb(99.998474%,99.998474%,99.998474%);fill-opacity:1;" d="M 76.851562 51.542969 L 76.09375 51.542969 L 76.09375 51.921875 Z M 76.851562 51.542969 "/>
<path style=" stroke:none;fill-rule:evenodd;fill:rgb(99.998474%,99.998474%,99.998474%);fill-opacity:1;" d="M 76.851562 51.542969 L 76.238281 51.988281 L 76.015625 51.679688 Z M 76.851562 51.542969 "/>
<path style=" stroke:none;fill-rule:evenodd;fill:rgb(99.998474%,99.998474%,99.998474%);fill-opacity:1;" d="M 75.414062 51.542969 L 76.023438 51.988281 L 76.246094 51.679688 Z M 75.414062 51.542969 "/>
<path style=" stroke:none;fill-rule:evenodd;fill:rgb(99.998474%,99.998474%,99.998474%);fill-opacity:1;" d="M 75.414062 51.542969 L 76.167969 51.542969 L 76.167969 51.921875 Z M 75.414062 51.542969 "/>
<path style=" stroke:none;fill-rule:evenodd;fill:rgb(99.998474%,99.998474%,99.998474%);fill-opacity:1;" d="M 76.574219 52.386719 L 76.339844 51.667969 L 75.984375 51.785156 Z M 76.574219 52.386719 "/>
<path style=" stroke:none;fill-rule:evenodd;fill:rgb(99.998474%,99.998474%,99.998474%);fill-opacity:1;" d="M 76.574219 52.386719 L 75.964844 51.945312 L 76.1875 51.636719 Z M 76.574219 52.386719 "/>
<path style=" stroke:none;fill-rule:evenodd;fill:rgb(99.998474%,99.998474%,99.998474%);fill-opacity:1;" d="M 75.6875 52.386719 L 76.296875 51.945312 L 76.074219 51.636719 Z M 75.6875 52.386719 "/>
<path style=" stroke:none;fill-rule:evenodd;fill:rgb(99.998474%,99.998474%,99.998474%);fill-opacity:1;" d="M 75.6875 52.386719 L 75.921875 51.667969 L 76.28125 51.785156 Z M 75.6875 52.386719 "/>
<path style=" stroke:none;fill-rule:evenodd;fill:rgb(99.998474%,99.998474%,99.998474%);fill-opacity:1;" d="M 71.035156 55.453125 L 70.804688 56.171875 L 71.160156 56.289062 Z M 71.035156 55.453125 "/>
<path style=" stroke:none;fill-rule:evenodd;fill:rgb(99.998474%,99.998474%,99.998474%);fill-opacity:1;" d="M 71.035156 55.453125 L 71.269531 56.171875 L 70.910156 56.289062 Z M 71.035156 55.453125 "/>
<path style=" stroke:none;fill-rule:evenodd;fill:rgb(99.998474%,99.998474%,99.998474%);fill-opacity:1;" d="M 71.753906 55.976562 L 71 55.976562 L 71 56.351562 Z M 71.753906 55.976562 "/>
<path style=" stroke:none;fill-rule:evenodd;fill:rgb(99.998474%,99.998474%,99.998474%);fill-opacity:1;" d="M 71.753906 55.976562 L 71.144531 56.417969 L 70.921875 56.113281 Z M 71.753906 55.976562 "/>
<path style=" stroke:none;fill-rule:evenodd;fill:rgb(99.998474%,99.998474%,99.998474%);fill-opacity:1;" d="M 70.316406 55.976562 L 70.929688 56.417969 L 71.152344 56.113281 Z M 70.316406 55.976562 "/>
<path style=" stroke:none;fill-rule:evenodd;fill:rgb(99.998474%,99.998474%,99.998474%);fill-opacity:1;" d="M 70.316406 55.976562 L 71.074219 55.976562 L 71.074219 56.351562 Z M 70.316406 55.976562 "/>
<path style=" stroke:none;fill-rule:evenodd;fill:rgb(99.998474%,99.998474%,99.998474%);fill-opacity:1;" d="M 71.480469 56.820312 L 71.246094 56.101562 L 70.886719 56.21875 Z M 71.480469 56.820312 "/>
<path style=" stroke:none;fill-rule:evenodd;fill:rgb(99.998474%,99.998474%,99.998474%);fill-opacity:1;" d="M 71.480469 56.820312 L 70.871094 56.375 L 71.089844 56.070312 Z M 71.480469 56.820312 "/>
<path style=" stroke:none;fill-rule:evenodd;fill:rgb(99.998474%,99.998474%,99.998474%);fill-opacity:1;" d="M 70.59375 56.820312 L 71.203125 56.375 L 70.980469 56.070312 Z M 70.59375 56.820312 "/>
<path style=" stroke:none;fill-rule:evenodd;fill:rgb(99.998474%,99.998474%,99.998474%);fill-opacity:1;" d="M 70.59375 56.820312 L 70.824219 56.101562 L 71.183594 56.21875 Z M 70.59375 56.820312 "/>
<path style=" stroke:none;fill-rule:evenodd;fill:rgb(99.998474%,99.998474%,99.998474%);fill-opacity:1;" d="M 71.007812 57.734375 L 70.820312 58.308594 L 71.109375 58.402344 Z M 71.007812 57.734375 "/>
<path style=" stroke:none;fill-rule:evenodd;fill:rgb(99.998474%,99.998474%,99.998474%);fill-opacity:1;" d="M 71.007812 57.734375 L 71.195312 58.308594 L 70.90625 58.402344 Z M 71.007812 57.734375 "/>
<path style=" stroke:none;fill-rule:evenodd;fill:rgb(99.998474%,99.998474%,99.998474%);fill-opacity:1;" d="M 71.582031 58.152344 L 70.976562 58.152344 L 70.976562 58.453125 Z M 71.582031 58.152344 "/>
<path style=" stroke:none;fill-rule:evenodd;fill:rgb(99.998474%,99.998474%,99.998474%);fill-opacity:1;" d="M 71.582031 58.152344 L 71.09375 58.507812 L 70.917969 58.261719 Z M 71.582031 58.152344 "/>
<path style=" stroke:none;fill-rule:evenodd;fill:rgb(99.998474%,99.998474%,99.998474%);fill-opacity:1;" d="M 70.433594 58.152344 L 70.921875 58.507812 L 71.101562 58.261719 Z M 70.433594 58.152344 "/>
<path style=" stroke:none;fill-rule:evenodd;fill:rgb(99.998474%,99.998474%,99.998474%);fill-opacity:1;" d="M 70.433594 58.152344 L 71.039062 58.152344 L 71.039062 58.453125 Z M 70.433594 58.152344 "/>
<path style=" stroke:none;fill-rule:evenodd;fill:rgb(99.998474%,99.998474%,99.998474%);fill-opacity:1;" d="M 71.363281 58.828125 L 71.175781 58.253906 L 70.890625 58.347656 Z M 71.363281 58.828125 "/>
<path style=" stroke:none;fill-rule:evenodd;fill:rgb(99.998474%,99.998474%,99.998474%);fill-opacity:1;" d="M 71.363281 58.828125 L 70.875 58.472656 L 71.050781 58.226562 Z M 71.363281 58.828125 "/>
<path style=" stroke:none;fill-rule:evenodd;fill:rgb(99.998474%,99.998474%,99.998474%);fill-opacity:1;" d="M 70.652344 58.828125 L 71.140625 58.472656 L 70.964844 58.226562 Z M 70.652344 58.828125 "/>
<path style=" stroke:none;fill-rule:evenodd;fill:rgb(99.998474%,99.998474%,99.998474%);fill-opacity:1;" d="M 70.652344 58.828125 L 70.839844 58.253906 L 71.125 58.347656 Z M 70.652344 58.828125 "/>
<path style=" stroke:none;fill-rule:evenodd;fill:rgb(99.998474%,99.998474%,99.998474%);fill-opacity:1;" d="M 73.136719 53.933594 L 72.949219 54.507812 L 73.238281 54.601562 Z M 73.136719 53.933594 "/>
<path style=" stroke:none;fill-rule:evenodd;fill:rgb(99.998474%,99.998474%,99.998474%);fill-opacity:1;" d="M 73.136719 53.933594 L 73.324219 54.507812 L 73.035156 54.601562 Z M 73.136719 53.933594 "/>
<path style=" stroke:none;fill-rule:evenodd;fill:rgb(99.998474%,99.998474%,99.998474%);fill-opacity:1;" d="M 73.710938 54.351562 L 73.109375 54.351562 L 73.109375 54.65625 Z M 73.710938 54.351562 "/>
<path style=" stroke:none;fill-rule:evenodd;fill:rgb(99.998474%,99.998474%,99.998474%);fill-opacity:1;" d="M 73.710938 54.351562 L 73.222656 54.707031 L 73.046875 54.460938 Z M 73.710938 54.351562 "/>
<path style=" stroke:none;fill-rule:evenodd;fill:rgb(99.998474%,99.998474%,99.998474%);fill-opacity:1;" d="M 72.5625 54.351562 L 73.050781 54.707031 L 73.230469 54.460938 Z M 72.5625 54.351562 "/>
<path style=" stroke:none;fill-rule:evenodd;fill:rgb(99.998474%,99.998474%,99.998474%);fill-opacity:1;" d="M 72.5625 54.351562 L 73.167969 54.351562 L 73.167969 54.65625 Z M 72.5625 54.351562 "/>
<path style=" stroke:none;fill-rule:evenodd;fill:rgb(99.998474%,99.998474%,99.998474%);fill-opacity:1;" d="M 73.492188 55.027344 L 73.304688 54.453125 L 73.019531 54.546875 Z M 73.492188 55.027344 "/>
<path style=" stroke:none;fill-rule:evenodd;fill:rgb(99.998474%,99.998474%,99.998474%);fill-opacity:1;" d="M 73.492188 55.027344 L 73.003906 54.671875 L 73.179688 54.429688 Z M 73.492188 55.027344 "/>
<path style=" stroke:none;fill-rule:evenodd;fill:rgb(99.998474%,99.998474%,99.998474%);fill-opacity:1;" d="M 72.78125 55.027344 L 73.269531 54.671875 L 73.09375 54.429688 Z M 72.78125 55.027344 "/>
<path style=" stroke:none;fill-rule:evenodd;fill:rgb(99.998474%,99.998474%,99.998474%);fill-opacity:1;" d="M 72.78125 55.027344 L 72.96875 54.453125 L 73.257812 54.546875 Z M 72.78125 55.027344 "/>
<path style=" stroke:none;fill-rule:evenodd;fill:rgb(99.998474%,99.998474%,99.998474%);fill-opacity:1;" d="M 74.835938 52.71875 L 74.601562 53.4375 L 74.960938 53.554688 Z M 74.835938 52.71875 "/>
<path style=" stroke:none;fill-rule:evenodd;fill:rgb(99.998474%,99.998474%,99.998474%);fill-opacity:1;" d="M 74.835938 52.71875 L 75.070312 53.4375 L 74.710938 53.554688 Z M 74.835938 52.71875 "/>
<path style=" stroke:none;fill-rule:evenodd;fill:rgb(99.998474%,99.998474%,99.998474%);fill-opacity:1;" d="M 75.554688 53.242188 L 74.800781 53.242188 L 74.800781 53.617188 Z M 75.554688 53.242188 "/>
<path style=" stroke:none;fill-rule:evenodd;fill:rgb(99.998474%,99.998474%,99.998474%);fill-opacity:1;" d="M 75.554688 53.242188 L 74.941406 53.683594 L 74.722656 53.378906 Z M 75.554688 53.242188 "/>
<path style=" stroke:none;fill-rule:evenodd;fill:rgb(99.998474%,99.998474%,99.998474%);fill-opacity:1;" d="M 74.117188 53.242188 L 74.726562 53.683594 L 74.949219 53.378906 Z M 74.117188 53.242188 "/>
<path style=" stroke:none;fill-rule:evenodd;fill:rgb(99.998474%,99.998474%,99.998474%);fill-opacity:1;" d="M 74.117188 53.242188 L 74.871094 53.242188 L 74.871094 53.617188 Z M 74.117188 53.242188 "/>
<path style=" stroke:none;fill-rule:evenodd;fill:rgb(99.998474%,99.998474%,99.998474%);fill-opacity:1;" d="M 75.28125 54.085938 L 75.046875 53.367188 L 74.6875 53.484375 Z M 75.28125 54.085938 "/>
<path style=" stroke:none;fill-rule:evenodd;fill:rgb(99.998474%,99.998474%,99.998474%);fill-opacity:1;" d="M 75.28125 54.085938 L 74.667969 53.640625 L 74.890625 53.335938 Z M 75.28125 54.085938 "/>
<path style=" stroke:none;fill-rule:evenodd;fill:rgb(99.998474%,99.998474%,99.998474%);fill-opacity:1;" d="M 74.390625 54.085938 L 75.003906 53.640625 L 74.78125 53.335938 Z M 74.390625 54.085938 "/>
<path style=" stroke:none;fill-rule:evenodd;fill:rgb(99.998474%,99.998474%,99.998474%);fill-opacity:1;" d="M 74.390625 54.085938 L 74.625 53.367188 L 74.984375 53.484375 Z M 74.390625 54.085938 "/>
<path style=" stroke:none;fill-rule:evenodd;fill:rgb(99.998474%,99.998474%,99.998474%);fill-opacity:1;" d="M 70.949219 53.53125 L 70.761719 54.105469 L 71.050781 54.199219 Z M 70.949219 53.53125 "/>
<path style=" stroke:none;fill-rule:evenodd;fill:rgb(99.998474%,99.998474%,99.998474%);fill-opacity:1;" d="M 70.949219 53.53125 L 71.136719 54.105469 L 70.851562 54.199219 Z M 70.949219 53.53125 "/>
<path style=" stroke:none;fill-rule:evenodd;fill:rgb(99.998474%,99.998474%,99.998474%);fill-opacity:1;" d="M 71.523438 53.949219 L 70.921875 53.949219 L 70.921875 54.25 Z M 71.523438 53.949219 "/>
<path style=" stroke:none;fill-rule:evenodd;fill:rgb(99.998474%,99.998474%,99.998474%);fill-opacity:1;" d="M 71.523438 53.949219 L 71.035156 54.304688 L 70.859375 54.058594 Z M 71.523438 53.949219 "/>
<path style=" stroke:none;fill-rule:evenodd;fill:rgb(99.998474%,99.998474%,99.998474%);fill-opacity:1;" d="M 70.375 53.949219 L 70.863281 54.304688 L 71.042969 54.058594 Z M 70.375 53.949219 "/>
<path style=" stroke:none;fill-rule:evenodd;fill:rgb(99.998474%,99.998474%,99.998474%);fill-opacity:1;" d="M 70.375 53.949219 L 70.980469 53.949219 L 70.980469 54.25 Z M 70.375 53.949219 "/>
<path style=" stroke:none;fill-rule:evenodd;fill:rgb(99.998474%,99.998474%,99.998474%);fill-opacity:1;" d="M 71.304688 54.625 L 71.117188 54.050781 L 70.832031 54.144531 Z M 71.304688 54.625 "/>
<path style=" stroke:none;fill-rule:evenodd;fill:rgb(99.998474%,99.998474%,99.998474%);fill-opacity:1;" d="M 71.304688 54.625 L 70.816406 54.269531 L 70.992188 54.023438 Z M 71.304688 54.625 "/>
<path style=" stroke:none;fill-rule:evenodd;fill:rgb(99.998474%,99.998474%,99.998474%);fill-opacity:1;" d="M 70.59375 54.625 L 71.085938 54.269531 L 70.90625 54.023438 Z M 70.59375 54.625 "/>
<path style=" stroke:none;fill-rule:evenodd;fill:rgb(99.998474%,99.998474%,99.998474%);fill-opacity:1;" d="M 70.59375 54.625 L 70.78125 54.050781 L 71.070312 54.144531 Z M 70.59375 54.625 "/>
<path style=" stroke:none;fill-rule:evenodd;fill:rgb(99.998474%,99.998474%,99.998474%);fill-opacity:1;" d="M 52.386719 42.585938 L 52.152344 43.304688 L 52.511719 43.421875 Z M 52.386719 42.585938 "/>
<path style=" stroke:none;fill-rule:evenodd;fill:rgb(99.998474%,99.998474%,99.998474%);fill-opacity:1;" d="M 52.386719 42.585938 L 52.617188 43.304688 L 52.257812 43.421875 Z M 52.386719 42.585938 "/>
<path style=" stroke:none;fill-rule:evenodd;fill:rgb(99.998474%,99.998474%,99.998474%);fill-opacity:1;" d="M 53.105469 43.109375 L 52.347656 43.109375 L 52.347656 43.488281 Z M 53.105469 43.109375 "/>
<path style=" stroke:none;fill-rule:evenodd;fill:rgb(99.998474%,99.998474%,99.998474%);fill-opacity:1;" d="M 53.105469 43.109375 L 52.492188 43.554688 L 52.269531 43.246094 Z M 53.105469 43.109375 "/>
<path style=" stroke:none;fill-rule:evenodd;fill:rgb(99.998474%,99.998474%,99.998474%);fill-opacity:1;" d="M 51.667969 43.109375 L 52.277344 43.554688 L 52.5 43.246094 Z M 51.667969 43.109375 "/>
<path style=" stroke:none;fill-rule:evenodd;fill:rgb(99.998474%,99.998474%,99.998474%);fill-opacity:1;" d="M 51.667969 43.109375 L 52.421875 43.109375 L 52.421875 43.488281 Z M 51.667969 43.109375 "/>
<path style=" stroke:none;fill-rule:evenodd;fill:rgb(99.998474%,99.998474%,99.998474%);fill-opacity:1;" d="M 52.828125 43.953125 L 52.597656 43.234375 L 52.238281 43.351562 Z M 52.828125 43.953125 "/>
<path style=" stroke:none;fill-rule:evenodd;fill:rgb(99.998474%,99.998474%,99.998474%);fill-opacity:1;" d="M 52.828125 43.953125 L 52.21875 43.511719 L 52.441406 43.203125 Z M 52.828125 43.953125 "/>
<path style=" stroke:none;fill-rule:evenodd;fill:rgb(99.998474%,99.998474%,99.998474%);fill-opacity:1;" d="M 51.941406 43.953125 L 52.550781 43.511719 L 52.332031 43.203125 Z M 51.941406 43.953125 "/>
<path style=" stroke:none;fill-rule:evenodd;fill:rgb(99.998474%,99.998474%,99.998474%);fill-opacity:1;" d="M 51.941406 43.953125 L 52.175781 43.234375 L 52.535156 43.351562 Z M 51.941406 43.953125 "/>
<path style=" stroke:none;fill-rule:evenodd;fill:rgb(99.998474%,99.998474%,99.998474%);fill-opacity:1;" d="M 66.203125 40.808594 L 66.015625 41.382812 L 66.300781 41.476562 Z M 66.203125 40.808594 "/>
<path style=" stroke:none;fill-rule:evenodd;fill:rgb(99.998474%,99.998474%,99.998474%);fill-opacity:1;" d="M 66.203125 40.808594 L 66.386719 41.382812 L 66.101562 41.476562 Z M 66.203125 40.808594 "/>
<path style=" stroke:none;fill-rule:evenodd;fill:rgb(99.998474%,99.998474%,99.998474%);fill-opacity:1;" d="M 66.777344 41.226562 L 66.171875 41.226562 L 66.171875 41.527344 Z M 66.777344 41.226562 "/>
<path style=" stroke:none;fill-rule:evenodd;fill:rgb(99.998474%,99.998474%,99.998474%);fill-opacity:1;" d="M 66.777344 41.226562 L 66.285156 41.582031 L 66.109375 41.339844 Z M 66.777344 41.226562 "/>
<path style=" stroke:none;fill-rule:evenodd;fill:rgb(99.998474%,99.998474%,99.998474%);fill-opacity:1;" d="M 65.625 41.226562 L 66.117188 41.582031 L 66.292969 41.339844 Z M 65.625 41.226562 "/>
<path style=" stroke:none;fill-rule:evenodd;fill:rgb(99.998474%,99.998474%,99.998474%);fill-opacity:1;" d="M 65.625 41.226562 L 66.230469 41.226562 L 66.230469 41.527344 Z M 65.625 41.226562 "/>
<path style=" stroke:none;fill-rule:evenodd;fill:rgb(99.998474%,99.998474%,99.998474%);fill-opacity:1;" d="M 66.554688 41.902344 L 66.371094 41.328125 L 66.082031 41.421875 Z M 66.554688 41.902344 "/>
<path style=" stroke:none;fill-rule:evenodd;fill:rgb(99.998474%,99.998474%,99.998474%);fill-opacity:1;" d="M 66.554688 41.902344 L 66.066406 41.546875 L 66.246094 41.304688 Z M 66.554688 41.902344 "/>
<path style=" stroke:none;fill-rule:evenodd;fill:rgb(99.998474%,99.998474%,99.998474%);fill-opacity:1;" d="M 65.84375 41.902344 L 66.335938 41.546875 L 66.15625 41.304688 Z M 65.84375 41.902344 "/>
<path style=" stroke:none;fill-rule:evenodd;fill:rgb(99.998474%,99.998474%,99.998474%);fill-opacity:1;" d="M 65.84375 41.902344 L 66.03125 41.328125 L 66.320312 41.421875 Z M 65.84375 41.902344 "/>
<path style=" stroke:none;fill-rule:evenodd;fill:rgb(99.998474%,99.998474%,99.998474%);fill-opacity:1;" d="M 60.445312 51.070312 L 60.164062 51.933594 L 60.59375 52.074219 Z M 60.445312 51.070312 "/>
<path style=" stroke:none;fill-rule:evenodd;fill:rgb(99.998474%,99.998474%,99.998474%);fill-opacity:1;" d="M 60.445312 51.070312 L 60.726562 51.933594 L 60.292969 52.074219 Z M 60.445312 51.070312 "/>
<path style=" stroke:none;fill-rule:evenodd;fill:rgb(99.998474%,99.998474%,99.998474%);fill-opacity:1;" d="M 61.308594 51.699219 L 60.398438 51.699219 L 60.398438 52.152344 Z M 61.308594 51.699219 "/>
<path style=" stroke:none;fill-rule:evenodd;fill:rgb(99.998474%,99.998474%,99.998474%);fill-opacity:1;" d="M 61.308594 51.699219 L 60.574219 52.230469 L 60.308594 51.863281 Z M 61.308594 51.699219 "/>
<path style=" stroke:none;fill-rule:evenodd;fill:rgb(99.998474%,99.998474%,99.998474%);fill-opacity:1;" d="M 59.582031 51.699219 L 60.316406 52.230469 L 60.582031 51.863281 Z M 59.582031 51.699219 "/>
<path style=" stroke:none;fill-rule:evenodd;fill:rgb(99.998474%,99.998474%,99.998474%);fill-opacity:1;" d="M 59.582031 51.699219 L 60.488281 51.699219 L 60.488281 52.152344 Z M 59.582031 51.699219 "/>
<path style=" stroke:none;fill-rule:evenodd;fill:rgb(99.998474%,99.998474%,99.998474%);fill-opacity:1;" d="M 60.976562 52.710938 L 60.695312 51.847656 L 60.265625 51.988281 Z M 60.976562 52.710938 "/>
<path style=" stroke:none;fill-rule:evenodd;fill:rgb(99.998474%,99.998474%,99.998474%);fill-opacity:1;" d="M 60.976562 52.710938 L 60.242188 52.179688 L 60.511719 51.8125 Z M 60.976562 52.710938 "/>
<path style=" stroke:none;fill-rule:evenodd;fill:rgb(99.998474%,99.998474%,99.998474%);fill-opacity:1;" d="M 59.910156 52.710938 L 60.644531 52.179688 L 60.378906 51.8125 Z M 59.910156 52.710938 "/>
<path style=" stroke:none;fill-rule:evenodd;fill:rgb(99.998474%,99.998474%,99.998474%);fill-opacity:1;" d="M 59.910156 52.710938 L 60.191406 51.847656 L 60.625 51.988281 Z M 59.910156 52.710938 "/>
<path style=" stroke:none;fill-rule:evenodd;fill:rgb(99.998474%,99.998474%,99.998474%);fill-opacity:1;" d="M 62.890625 47.019531 L 62.65625 47.738281 L 63.015625 47.855469 Z M 62.890625 47.019531 "/>
<path style=" stroke:none;fill-rule:evenodd;fill:rgb(99.998474%,99.998474%,99.998474%);fill-opacity:1;" d="M 62.890625 47.019531 L 63.125 47.738281 L 62.765625 47.855469 Z M 62.890625 47.019531 "/>
<path style=" stroke:none;fill-rule:evenodd;fill:rgb(99.998474%,99.998474%,99.998474%);fill-opacity:1;" d="M 63.609375 47.542969 L 62.855469 47.542969 L 62.855469 47.917969 Z M 63.609375 47.542969 "/>
<path style=" stroke:none;fill-rule:evenodd;fill:rgb(99.998474%,99.998474%,99.998474%);fill-opacity:1;" d="M 63.609375 47.542969 L 63 47.984375 L 62.777344 47.679688 Z M 63.609375 47.542969 "/>
<path style=" stroke:none;fill-rule:evenodd;fill:rgb(99.998474%,99.998474%,99.998474%);fill-opacity:1;" d="M 62.171875 47.542969 L 62.785156 47.984375 L 63.003906 47.679688 Z M 62.171875 47.542969 "/>
<path style=" stroke:none;fill-rule:evenodd;fill:rgb(99.998474%,99.998474%,99.998474%);fill-opacity:1;" d="M 62.171875 47.542969 L 62.925781 47.542969 L 62.925781 47.917969 Z M 62.171875 47.542969 "/>
<path style=" stroke:none;fill-rule:evenodd;fill:rgb(99.998474%,99.998474%,99.998474%);fill-opacity:1;" d="M 63.335938 48.386719 L 63.101562 47.667969 L 62.742188 47.785156 Z M 63.335938 48.386719 "/>
<path style=" stroke:none;fill-rule:evenodd;fill:rgb(99.998474%,99.998474%,99.998474%);fill-opacity:1;" d="M 63.335938 48.386719 L 62.722656 47.941406 L 62.945312 47.636719 Z M 63.335938 48.386719 "/>
<path style=" stroke:none;fill-rule:evenodd;fill:rgb(99.998474%,99.998474%,99.998474%);fill-opacity:1;" d="M 62.449219 48.386719 L 63.058594 47.941406 L 62.835938 47.636719 Z M 62.449219 48.386719 "/>
<path style=" stroke:none;fill-rule:evenodd;fill:rgb(99.998474%,99.998474%,99.998474%);fill-opacity:1;" d="M 62.449219 48.386719 L 62.679688 47.667969 L 63.039062 47.785156 Z M 62.449219 48.386719 "/>
<path style=" stroke:none;fill-rule:evenodd;fill:rgb(99.998474%,99.998474%,99.998474%);fill-opacity:1;" d="M 60.445312 45.121094 L 60.210938 45.839844 L 60.570312 45.957031 Z M 60.445312 45.121094 "/>
<path style=" stroke:none;fill-rule:evenodd;fill:rgb(99.998474%,99.998474%,99.998474%);fill-opacity:1;" d="M 60.445312 45.121094 L 60.679688 45.839844 L 60.320312 45.957031 Z M 60.445312 45.121094 "/>
<path style=" stroke:none;fill-rule:evenodd;fill:rgb(99.998474%,99.998474%,99.998474%);fill-opacity:1;" d="M 61.164062 45.640625 L 60.40625 45.640625 L 60.40625 46.019531 Z M 61.164062 45.640625 "/>
<path style=" stroke:none;fill-rule:evenodd;fill:rgb(99.998474%,99.998474%,99.998474%);fill-opacity:1;" d="M 61.164062 45.640625 L 60.550781 46.085938 L 60.328125 45.78125 Z M 61.164062 45.640625 "/>
<path style=" stroke:none;fill-rule:evenodd;fill:rgb(99.998474%,99.998474%,99.998474%);fill-opacity:1;" d="M 59.726562 45.640625 L 60.335938 46.085938 L 60.558594 45.78125 Z M 59.726562 45.640625 "/>
<path style=" stroke:none;fill-rule:evenodd;fill:rgb(99.998474%,99.998474%,99.998474%);fill-opacity:1;" d="M 59.726562 45.640625 L 60.480469 45.640625 L 60.480469 46.019531 Z M 59.726562 45.640625 "/>
<path style=" stroke:none;fill-rule:evenodd;fill:rgb(99.998474%,99.998474%,99.998474%);fill-opacity:1;" d="M 60.890625 46.488281 L 60.65625 45.769531 L 60.296875 45.886719 Z M 60.890625 46.488281 "/>
<path style=" stroke:none;fill-rule:evenodd;fill:rgb(99.998474%,99.998474%,99.998474%);fill-opacity:1;" d="M 60.890625 46.488281 L 60.277344 46.042969 L 60.5 45.738281 Z M 60.890625 46.488281 "/>
<path style=" stroke:none;fill-rule:evenodd;fill:rgb(99.998474%,99.998474%,99.998474%);fill-opacity:1;" d="M 60 46.488281 L 60.613281 46.042969 L 60.390625 45.738281 Z M 60 46.488281 "/>
<path style=" stroke:none;fill-rule:evenodd;fill:rgb(99.998474%,99.998474%,99.998474%);fill-opacity:1;" d="M 60 46.488281 L 60.234375 45.769531 L 60.59375 45.886719 Z M 60 46.488281 "/>
<path style=" stroke:none;fill-rule:evenodd;fill:rgb(99.998474%,99.998474%,99.998474%);fill-opacity:1;" d="M 58.316406 47.171875 L 58.128906 47.746094 L 58.414062 47.839844 Z M 58.316406 47.171875 "/>
<path style=" stroke:none;fill-rule:evenodd;fill:rgb(99.998474%,99.998474%,99.998474%);fill-opacity:1;" d="M 58.316406 47.171875 L 58.5 47.746094 L 58.214844 47.839844 Z M 58.316406 47.171875 "/>
<path style=" stroke:none;fill-rule:evenodd;fill:rgb(99.998474%,99.998474%,99.998474%);fill-opacity:1;" d="M 58.890625 47.589844 L 58.285156 47.589844 L 58.285156 47.890625 Z M 58.890625 47.589844 "/>
<path style=" stroke:none;fill-rule:evenodd;fill:rgb(99.998474%,99.998474%,99.998474%);fill-opacity:1;" d="M 58.890625 47.589844 L 58.402344 47.945312 L 58.222656 47.699219 Z M 58.890625 47.589844 "/>
<path style=" stroke:none;fill-rule:evenodd;fill:rgb(99.998474%,99.998474%,99.998474%);fill-opacity:1;" d="M 57.738281 47.589844 L 58.226562 47.945312 L 58.40625 47.699219 Z M 57.738281 47.589844 "/>
<path style=" stroke:none;fill-rule:evenodd;fill:rgb(99.998474%,99.998474%,99.998474%);fill-opacity:1;" d="M 57.738281 47.589844 L 58.34375 47.589844 L 58.34375 47.890625 Z M 57.738281 47.589844 "/>
<path style=" stroke:none;fill-rule:evenodd;fill:rgb(99.998474%,99.998474%,99.998474%);fill-opacity:1;" d="M 58.667969 48.265625 L 58.484375 47.6875 L 58.195312 47.78125 Z M 58.667969 48.265625 "/>
<path style=" stroke:none;fill-rule:evenodd;fill:rgb(99.998474%,99.998474%,99.998474%);fill-opacity:1;" d="M 58.667969 48.265625 L 58.179688 47.910156 L 58.359375 47.664062 Z M 58.667969 48.265625 "/>
<path style=" stroke:none;fill-rule:evenodd;fill:rgb(99.998474%,99.998474%,99.998474%);fill-opacity:1;" d="M 57.960938 48.265625 L 58.449219 47.910156 L 58.269531 47.664062 Z M 57.960938 48.265625 "/>
<path style=" stroke:none;fill-rule:evenodd;fill:rgb(99.998474%,99.998474%,99.998474%);fill-opacity:1;" d="M 57.960938 48.265625 L 58.144531 47.6875 L 58.433594 47.78125 Z M 57.960938 48.265625 "/>
<path style=" stroke:none;fill-rule:evenodd;fill:rgb(99.998474%,99.998474%,99.998474%);fill-opacity:1;" d="M 59.378906 48.8125 L 59.246094 49.222656 L 59.453125 49.289062 Z M 59.378906 48.8125 "/>
<path style=" stroke:none;fill-rule:evenodd;fill:rgb(99.998474%,99.998474%,99.998474%);fill-opacity:1;" d="M 59.378906 48.8125 L 59.511719 49.222656 L 59.308594 49.289062 Z M 59.378906 48.8125 "/>
<path style=" stroke:none;fill-rule:evenodd;fill:rgb(99.998474%,99.998474%,99.998474%);fill-opacity:1;" d="M 59.789062 49.109375 L 59.359375 49.109375 L 59.359375 49.324219 Z M 59.789062 49.109375 "/>
<path style=" stroke:none;fill-rule:evenodd;fill:rgb(99.998474%,99.998474%,99.998474%);fill-opacity:1;" d="M 59.789062 49.109375 L 59.441406 49.363281 L 59.3125 49.1875 Z M 59.789062 49.109375 "/>
<path style=" stroke:none;fill-rule:evenodd;fill:rgb(99.998474%,99.998474%,99.998474%);fill-opacity:1;" d="M 58.96875 49.109375 L 59.316406 49.363281 L 59.445312 49.1875 Z M 58.96875 49.109375 "/>
<path style=" stroke:none;fill-rule:evenodd;fill:rgb(99.998474%,99.998474%,99.998474%);fill-opacity:1;" d="M 58.96875 49.109375 L 59.402344 49.109375 L 59.402344 49.324219 Z M 58.96875 49.109375 "/>
<path style=" stroke:none;fill-rule:evenodd;fill:rgb(99.998474%,99.998474%,99.998474%);fill-opacity:1;" d="M 59.632812 49.59375 L 59.5 49.179688 L 59.292969 49.25 Z M 59.632812 49.59375 "/>
<path style=" stroke:none;fill-rule:evenodd;fill:rgb(99.998474%,99.998474%,99.998474%);fill-opacity:1;" d="M 59.632812 49.59375 L 59.285156 49.339844 L 59.410156 49.164062 Z M 59.632812 49.59375 "/>
<path style=" stroke:none;fill-rule:evenodd;fill:rgb(99.998474%,99.998474%,99.998474%);fill-opacity:1;" d="M 59.125 49.59375 L 59.472656 49.339844 L 59.347656 49.164062 Z M 59.125 49.59375 "/>
<path style=" stroke:none;fill-rule:evenodd;fill:rgb(99.998474%,99.998474%,99.998474%);fill-opacity:1;" d="M 59.125 49.59375 L 59.257812 49.179688 L 59.464844 49.25 Z M 59.125 49.59375 "/>
<path style=" stroke:none;fill-rule:evenodd;fill:rgb(99.998474%,99.998474%,99.998474%);fill-opacity:1;" d="M 66.777344 55.972656 L 66.542969 56.691406 L 66.902344 56.808594 Z M 66.777344 55.972656 "/>
<path style=" stroke:none;fill-rule:evenodd;fill:rgb(99.998474%,99.998474%,99.998474%);fill-opacity:1;" d="M 66.777344 55.972656 L 67.011719 56.691406 L 66.652344 56.808594 Z M 66.777344 55.972656 "/>
<path style=" stroke:none;fill-rule:evenodd;fill:rgb(99.998474%,99.998474%,99.998474%);fill-opacity:1;" d="M 67.496094 56.492188 L 66.738281 56.492188 L 66.738281 56.871094 Z M 67.496094 56.492188 "/>
<path style=" stroke:none;fill-rule:evenodd;fill:rgb(99.998474%,99.998474%,99.998474%);fill-opacity:1;" d="M 67.496094 56.492188 L 66.882812 56.9375 L 66.660156 56.632812 Z M 67.496094 56.492188 "/>
<path style=" stroke:none;fill-rule:evenodd;fill:rgb(99.998474%,99.998474%,99.998474%);fill-opacity:1;" d="M 66.058594 56.492188 L 66.667969 56.9375 L 66.890625 56.632812 Z M 66.058594 56.492188 "/>
<path style=" stroke:none;fill-rule:evenodd;fill:rgb(99.998474%,99.998474%,99.998474%);fill-opacity:1;" d="M 66.058594 56.492188 L 66.8125 56.492188 L 66.8125 56.871094 Z M 66.058594 56.492188 "/>
<path style=" stroke:none;fill-rule:evenodd;fill:rgb(99.998474%,99.998474%,99.998474%);fill-opacity:1;" d="M 67.222656 57.335938 L 66.988281 56.617188 L 66.628906 56.734375 Z M 67.222656 57.335938 "/>
<path style=" stroke:none;fill-rule:evenodd;fill:rgb(99.998474%,99.998474%,99.998474%);fill-opacity:1;" d="M 67.222656 57.335938 L 66.609375 56.894531 L 66.832031 56.585938 Z M 67.222656 57.335938 "/>
<path style=" stroke:none;fill-rule:evenodd;fill:rgb(99.998474%,99.998474%,99.998474%);fill-opacity:1;" d="M 66.332031 57.335938 L 66.945312 56.894531 L 66.722656 56.585938 Z M 66.332031 57.335938 "/>
<path style=" stroke:none;fill-rule:evenodd;fill:rgb(99.998474%,99.998474%,99.998474%);fill-opacity:1;" d="M 66.332031 57.335938 L 66.566406 56.617188 L 66.925781 56.734375 Z M 66.332031 57.335938 "/>
<path style=" stroke:none;fill-rule:evenodd;fill:rgb(99.998474%,99.998474%,99.998474%);fill-opacity:1;" d="M 68.589844 54.25 L 68.402344 54.824219 L 68.691406 54.917969 Z M 68.589844 54.25 "/>
<path style=" stroke:none;fill-rule:evenodd;fill:rgb(99.998474%,99.998474%,99.998474%);fill-opacity:1;" d="M 68.589844 54.25 L 68.777344 54.824219 L 68.488281 54.917969 Z M 68.589844 54.25 "/>
<path style=" stroke:none;fill-rule:evenodd;fill:rgb(99.998474%,99.998474%,99.998474%);fill-opacity:1;" d="M 69.164062 54.667969 L 68.5625 54.667969 L 68.5625 54.972656 Z M 69.164062 54.667969 "/>
<path style=" stroke:none;fill-rule:evenodd;fill:rgb(99.998474%,99.998474%,99.998474%);fill-opacity:1;" d="M 69.164062 54.667969 L 68.675781 55.023438 L 68.5 54.78125 Z M 69.164062 54.667969 "/>
<path style=" stroke:none;fill-rule:evenodd;fill:rgb(99.998474%,99.998474%,99.998474%);fill-opacity:1;" d="M 68.015625 54.667969 L 68.503906 55.023438 L 68.683594 54.78125 Z M 68.015625 54.667969 "/>
<path style=" stroke:none;fill-rule:evenodd;fill:rgb(99.998474%,99.998474%,99.998474%);fill-opacity:1;" d="M 68.015625 54.667969 L 68.621094 54.667969 L 68.621094 54.972656 Z M 68.015625 54.667969 "/>
<path style=" stroke:none;fill-rule:evenodd;fill:rgb(99.998474%,99.998474%,99.998474%);fill-opacity:1;" d="M 68.945312 55.34375 L 68.757812 54.769531 L 68.472656 54.863281 Z M 68.945312 55.34375 "/>
<path style=" stroke:none;fill-rule:evenodd;fill:rgb(99.998474%,99.998474%,99.998474%);fill-opacity:1;" d="M 68.945312 55.34375 L 68.457031 54.988281 L 68.632812 54.746094 Z M 68.945312 55.34375 "/>
<path style=" stroke:none;fill-rule:evenodd;fill:rgb(99.998474%,99.998474%,99.998474%);fill-opacity:1;" d="M 68.234375 55.34375 L 68.722656 54.988281 L 68.546875 54.746094 Z M 68.234375 55.34375 "/>
<path style=" stroke:none;fill-rule:evenodd;fill:rgb(99.998474%,99.998474%,99.998474%);fill-opacity:1;" d="M 68.234375 55.34375 L 68.421875 54.769531 L 68.710938 54.863281 Z M 68.234375 55.34375 "/>
<path style=" stroke:none;fill-rule:evenodd;fill:rgb(99.998474%,99.998474%,99.998474%);fill-opacity:1;" d="M 65.109375 53.734375 L 64.921875 54.308594 L 65.207031 54.402344 Z M 65.109375 53.734375 "/>
<path style=" stroke:none;fill-rule:evenodd;fill:rgb(99.998474%,99.998474%,99.998474%);fill-opacity:1;" d="M 65.109375 53.734375 L 65.292969 54.308594 L 65.007812 54.402344 Z M 65.109375 53.734375 "/>
<path style=" stroke:none;fill-rule:evenodd;fill:rgb(99.998474%,99.998474%,99.998474%);fill-opacity:1;" d="M 65.683594 54.152344 L 65.078125 54.152344 L 65.078125 54.453125 Z M 65.683594 54.152344 "/>
<path style=" stroke:none;fill-rule:evenodd;fill:rgb(99.998474%,99.998474%,99.998474%);fill-opacity:1;" d="M 65.683594 54.152344 L 65.191406 54.507812 L 65.015625 54.261719 Z M 65.683594 54.152344 "/>
<path style=" stroke:none;fill-rule:evenodd;fill:rgb(99.998474%,99.998474%,99.998474%);fill-opacity:1;" d="M 64.53125 54.152344 L 65.023438 54.507812 L 65.199219 54.261719 Z M 64.53125 54.152344 "/>
<path style=" stroke:none;fill-rule:evenodd;fill:rgb(99.998474%,99.998474%,99.998474%);fill-opacity:1;" d="M 64.53125 54.152344 L 65.136719 54.152344 L 65.136719 54.453125 Z M 64.53125 54.152344 "/>
<path style=" stroke:none;fill-rule:evenodd;fill:rgb(99.998474%,99.998474%,99.998474%);fill-opacity:1;" d="M 65.460938 54.828125 L 65.277344 54.253906 L 64.988281 54.34375 Z M 65.460938 54.828125 "/>
<path style=" stroke:none;fill-rule:evenodd;fill:rgb(99.998474%,99.998474%,99.998474%);fill-opacity:1;" d="M 65.460938 54.828125 L 64.972656 54.472656 L 65.152344 54.226562 Z M 65.460938 54.828125 "/>
<path style=" stroke:none;fill-rule:evenodd;fill:rgb(99.998474%,99.998474%,99.998474%);fill-opacity:1;" d="M 64.75 54.828125 L 65.242188 54.472656 L 65.0625 54.226562 Z M 64.75 54.828125 "/>
<path style=" stroke:none;fill-rule:evenodd;fill:rgb(99.998474%,99.998474%,99.998474%);fill-opacity:1;" d="M 64.75 54.828125 L 64.9375 54.253906 L 65.226562 54.34375 Z M 64.75 54.828125 "/>
<path style=" stroke:none;fill-rule:evenodd;fill:rgb(99.998474%,99.998474%,99.998474%);fill-opacity:1;" d="M 51.953125 52.796875 L 51.671875 53.660156 L 52.105469 53.800781 Z M 51.953125 52.796875 "/>
<path style=" stroke:none;fill-rule:evenodd;fill:rgb(99.998474%,99.998474%,99.998474%);fill-opacity:1;" d="M 51.953125 52.796875 L 52.234375 53.660156 L 51.800781 53.800781 Z M 51.953125 52.796875 "/>
<path style=" stroke:none;fill-rule:evenodd;fill:rgb(99.998474%,99.998474%,99.998474%);fill-opacity:1;" d="M 52.816406 53.425781 L 51.910156 53.425781 L 51.910156 53.878906 Z M 52.816406 53.425781 "/>
<path style=" stroke:none;fill-rule:evenodd;fill:rgb(99.998474%,99.998474%,99.998474%);fill-opacity:1;" d="M 52.816406 53.425781 L 52.082031 53.957031 L 51.816406 53.589844 Z M 52.816406 53.425781 "/>
<path style=" stroke:none;fill-rule:evenodd;fill:rgb(99.998474%,99.998474%,99.998474%);fill-opacity:1;" d="M 51.089844 53.425781 L 51.824219 53.957031 L 52.089844 53.589844 Z M 51.089844 53.425781 "/>
<path style=" stroke:none;fill-rule:evenodd;fill:rgb(99.998474%,99.998474%,99.998474%);fill-opacity:1;" d="M 51.089844 53.425781 L 51.996094 53.425781 L 51.996094 53.878906 Z M 51.089844 53.425781 "/>
<path style=" stroke:none;fill-rule:evenodd;fill:rgb(99.998474%,99.998474%,99.998474%);fill-opacity:1;" d="M 52.488281 54.4375 L 52.207031 53.574219 L 51.773438 53.714844 Z M 52.488281 54.4375 "/>
<path style=" stroke:none;fill-rule:evenodd;fill:rgb(99.998474%,99.998474%,99.998474%);fill-opacity:1;" d="M 52.488281 54.4375 L 51.753906 53.90625 L 52.019531 53.539062 Z M 52.488281 54.4375 "/>
<path style=" stroke:none;fill-rule:evenodd;fill:rgb(99.998474%,99.998474%,99.998474%);fill-opacity:1;" d="M 51.421875 54.4375 L 52.15625 53.90625 L 51.886719 53.539062 Z M 51.421875 54.4375 "/>
<path style=" stroke:none;fill-rule:evenodd;fill:rgb(99.998474%,99.998474%,99.998474%);fill-opacity:1;" d="M 51.421875 54.4375 L 51.699219 53.574219 L 52.132812 53.714844 Z M 51.421875 54.4375 "/>
<path style=" stroke:none;fill-rule:evenodd;fill:rgb(99.998474%,99.998474%,99.998474%);fill-opacity:1;" d="M 60.445312 58.726562 L 60.351562 59.015625 L 60.496094 59.0625 Z M 60.445312 58.726562 "/>
<path style=" stroke:none;fill-rule:evenodd;fill:rgb(99.998474%,99.998474%,99.998474%);fill-opacity:1;" d="M 60.445312 58.726562 L 60.539062 59.015625 L 60.394531 59.0625 Z M 60.445312 58.726562 "/>
<path style=" stroke:none;fill-rule:evenodd;fill:rgb(99.998474%,99.998474%,99.998474%);fill-opacity:1;" d="M 60.730469 58.9375 L 60.429688 58.9375 L 60.429688 59.085938 Z M 60.730469 58.9375 "/>
<path style=" stroke:none;fill-rule:evenodd;fill:rgb(99.998474%,99.998474%,99.998474%);fill-opacity:1;" d="M 60.730469 58.9375 L 60.488281 59.113281 L 60.398438 58.992188 Z M 60.730469 58.9375 "/>
<path style=" stroke:none;fill-rule:evenodd;fill:rgb(99.998474%,99.998474%,99.998474%);fill-opacity:1;" d="M 60.15625 58.9375 L 60.402344 59.113281 L 60.492188 58.992188 Z M 60.15625 58.9375 "/>
<path style=" stroke:none;fill-rule:evenodd;fill:rgb(99.998474%,99.998474%,99.998474%);fill-opacity:1;" d="M 60.15625 58.9375 L 60.460938 58.9375 L 60.460938 59.085938 Z M 60.15625 58.9375 "/>
<path style=" stroke:none;fill-rule:evenodd;fill:rgb(99.998474%,99.998474%,99.998474%);fill-opacity:1;" d="M 60.621094 59.273438 L 60.527344 58.988281 L 60.382812 59.035156 Z M 60.621094 59.273438 "/>
<path style=" stroke:none;fill-rule:evenodd;fill:rgb(99.998474%,99.998474%,99.998474%);fill-opacity:1;" d="M 60.621094 59.273438 L 60.378906 59.097656 L 60.464844 58.972656 Z M 60.621094 59.273438 "/>
<path style=" stroke:none;fill-rule:evenodd;fill:rgb(99.998474%,99.998474%,99.998474%);fill-opacity:1;" d="M 60.265625 59.273438 L 60.511719 59.097656 L 60.421875 58.972656 Z M 60.265625 59.273438 "/>
<path style=" stroke:none;fill-rule:evenodd;fill:rgb(99.998474%,99.998474%,99.998474%);fill-opacity:1;" d="M 60.265625 59.273438 L 60.359375 58.988281 L 60.503906 59.035156 Z M 60.265625 59.273438 "/>
<path style=" stroke:none;fill-rule:evenodd;fill:rgb(99.606323%,87.449646%,0%);fill-opacity:1;" d="M 10.277344 42.480469 L 60.445312 74.515625 L 110.613281 42.480469 L 60.445312 10.445312 Z M 81.601562 42.480469 C 81.601562 54.164062 72.128906 63.632812 60.445312 63.632812 C 48.761719 63.632812 39.289062 54.164062 39.289062 42.480469 C 39.289062 30.796875 48.761719 21.324219 60.445312 21.324219 C 72.128906 21.324219 81.601562 30.796875 81.601562 42.480469 Z M 81.601562 42.480469 "/>
<g clip-path="url(#clip1)" clip-rule="nonzero">
<path style=" stroke:none;fill-rule:evenodd;fill:rgb(0%,60.783386%,22.744751%);fill-opacity:1;" d="M 0 0.167969 L 120.890625 0.167969 L 120.890625 84.789062 L 0 84.789062 Z M 10.277344 42.480469 L 60.445312 74.515625 L 110.613281 42.480469 L 60.445312 10.445312 Z M 10.277344 42.480469 "/>
</g>
</g>
</svg>
