<?xml version="1.0" encoding="UTF-8"?>
<svg xmlns="http://www.w3.org/2000/svg" xmlns:xlink="http://www.w3.org/1999/xlink" width="128pt" height="64pt" viewBox="0 0 128 64" version="1.1">
<g id="surface171">
<rect x="0" y="0" width="128" height="64" style="fill:rgb(0%,14.117432%,49.01886%);fill-opacity:1;stroke:none;"/>
<path style="fill:none;stroke-width:1;stroke-linecap:square;stroke-linejoin:miter;stroke:rgb(0%,14.117432%,49.01886%);stroke-opacity:1;stroke-miterlimit:3.239307;" d="M 128 64 L 128 0 L 0 0 L 0 64 Z M 128 64 "/>
<path style=" stroke:none;fill-rule:evenodd;fill:rgb(99.998474%,99.998474%,99.998474%);fill-opacity:1;" d="M 82.800781 15.367188 L 109.511719 15.269531 L 109.460938 39.054688 C 109.460938 39.054688 110.402344 42.671875 98.261719 48.171875 C 102.621094 47.726562 107.378906 43.066406 107.378906 43.066406 C 107.378906 43.066406 109.3125 40.589844 110.253906 41.976562 C 111.195312 43.363281 112.085938 44.058594 112.78125 44.605469 C 113.476562 45.148438 114.019531 46.636719 112.980469 47.726562 C 111.9375 48.816406 110.304688 48.964844 109.855469 47.625 C 109.164062 47.972656 104.902344 53.128906 96.179688 53.375 C 87.308594 53.226562 82.453125 47.578125 82.453125 47.578125 C 82.453125 47.578125 81.265625 49.460938 79.578125 47.972656 C 77.945312 46.039062 79.183594 44.800781 79.183594 44.800781 C 79.183594 44.800781 80.570312 44.007812 80.96875 43.464844 C 81.613281 42.722656 81.808594 41.730469 82.898438 41.730469 C 84.1875 41.828125 84.683594 42.871094 84.683594 42.871094 C 84.683594 42.871094 89.144531 47.578125 93.949219 48.171875 C 83.097656 42.96875 82.703125 39.746094 82.75 38.953125 Z M 82.800781 15.367188 "/>
<path style="fill-rule:evenodd;fill:rgb(0%,38.038635%,16.078186%);fill-opacity:1;stroke-width:1;stroke-linecap:square;stroke-linejoin:miter;stroke:rgb(0%,0%,0%);stroke-opacity:1;stroke-miterlimit:3.25;" d="M 83.445312 16.011719 L 108.914062 15.863281 L 108.914062 38.757812 C 108.964844 41.730469 103.960938 44.753906 96.132812 48.617188 C 88.054688 44.457031 83.394531 41.929688 83.347656 38.707031 Z M 83.445312 16.011719 "/>
<path style="fill:none;stroke-width:1;stroke-linecap:square;stroke-linejoin:miter;stroke:rgb(96.861267%,77.645874%,0%);stroke-opacity:1;stroke-miterlimit:3.25;" d="M 86.507812 41.238281 L 88.011719 39.03125 L 89.523438 41.242188 "/>
<path style="fill-rule:evenodd;fill:rgb(96.861267%,77.645874%,0%);fill-opacity:1;stroke-width:1;stroke-linecap:square;stroke-linejoin:miter;stroke:rgb(0%,0%,0%);stroke-opacity:1;stroke-miterlimit:3.25;" d="M 88.542969 40.574219 C 88.542969 40.742188 88.410156 40.875 88.246094 40.875 C 88.078125 40.875 87.945312 40.742188 87.945312 40.574219 C 87.945312 40.410156 88.078125 40.277344 88.246094 40.277344 C 88.410156 40.277344 88.542969 40.410156 88.542969 40.574219 Z M 88.542969 40.574219 "/>
<path style="fill-rule:evenodd;fill:rgb(96.861267%,77.645874%,0%);fill-opacity:1;stroke-width:1;stroke-linecap:square;stroke-linejoin:miter;stroke:rgb(0%,0%,0%);stroke-opacity:1;stroke-miterlimit:3.25;" d="M 86.789062 42.867188 L 89.121094 42.875 C 89.121094 42.875 89.15625 42.574219 88.878906 42.390625 C 90.097656 42.222656 89.78125 41.144531 90.804688 41.082031 C 91.003906 41.113281 90.269531 41.539062 90.269531 41.539062 C 90.269531 41.539062 89.652344 41.976562 89.933594 42.195312 C 90.15625 42.371094 90.253906 42.089844 90.285156 41.875 C 90.316406 41.664062 91.277344 41.527344 91.140625 40.914062 C 90.910156 40.410156 89.566406 41.25 89.566406 41.25 L 88.609375 41.246094 C 88.550781 41.136719 88.285156 40.707031 88.011719 40.703125 C 87.691406 40.714844 87.460938 41.25 87.460938 41.25 L 85.296875 41.25 C 85.296875 41.25 85.222656 41.808594 86.320312 41.914062 C 86.566406 42.238281 86.757812 42.328125 86.972656 42.410156 C 86.832031 42.53125 86.789062 42.675781 86.789062 42.867188 Z M 86.789062 42.867188 "/>
<path style="fill:none;stroke-width:1;stroke-linecap:square;stroke-linejoin:miter;stroke:rgb(0%,0%,0%);stroke-opacity:1;stroke-miterlimit:3.25;" d="M 86.957031 42.394531 L 88.898438 42.390625 "/>
<path style="fill:none;stroke-width:1;stroke-linecap:square;stroke-linejoin:miter;stroke:rgb(0%,0%,0%);stroke-opacity:1;stroke-miterlimit:3.25;" d="M 86.070312 41.25 C 86.070312 41.25 86.222656 42.160156 86.941406 42.375 "/>
<path style="fill:none;stroke-width:1;stroke-linecap:square;stroke-linejoin:miter;stroke:rgb(0%,0%,0%);stroke-opacity:1;stroke-miterlimit:3.25;" d="M 85.949219 41.238281 C 86.019531 40.890625 86.152344 40.832031 86.296875 40.390625 C 86.320312 39.960938 85.949219 40.007812 86.058594 39.734375 C 86.25 39.433594 86.152344 39.148438 85.792969 38.921875 C 85.867188 39.316406 85.328125 39.6875 85.328125 40.007812 C 85.328125 40.332031 85.601562 40.257812 85.566406 40.75 C 85.589844 41.035156 85.496094 40.964844 85.472656 41.238281 L 85.949219 41.238281 "/>
<path style="fill-rule:evenodd;fill:rgb(96.861267%,77.645874%,0%);fill-opacity:1;stroke-width:1;stroke-linecap:square;stroke-linejoin:miter;stroke:rgb(0%,0%,0%);stroke-opacity:1;stroke-miterlimit:3.25;" d="M 88.292969 39.070312 C 88.292969 39.222656 88.167969 39.347656 88.015625 39.347656 C 87.867188 39.347656 87.742188 39.222656 87.742188 39.070312 C 87.742188 38.917969 87.867188 38.796875 88.015625 38.796875 C 88.167969 38.796875 88.292969 38.917969 88.292969 39.070312 Z M 88.292969 39.070312 "/>
<path style="fill:none;stroke-width:1;stroke-linecap:square;stroke-linejoin:miter;stroke:rgb(96.861267%,77.645874%,0%);stroke-opacity:1;stroke-miterlimit:3.25;" d="M 86.421875 36.691406 L 87.925781 34.484375 L 89.4375 36.695312 "/>
<path style="fill-rule:evenodd;fill:rgb(96.861267%,77.645874%,0%);fill-opacity:1;stroke-width:1;stroke-linecap:square;stroke-linejoin:miter;stroke:rgb(0%,0%,0%);stroke-opacity:1;stroke-miterlimit:3.25;" d="M 88.460938 36.03125 C 88.460938 36.195312 88.324219 36.328125 88.160156 36.328125 C 87.996094 36.328125 87.863281 36.195312 87.863281 36.03125 C 87.863281 35.867188 87.996094 35.730469 88.160156 35.730469 C 88.324219 35.730469 88.460938 35.867188 88.460938 36.03125 Z M 88.460938 36.03125 "/>
<path style="fill-rule:evenodd;fill:rgb(96.861267%,77.645874%,0%);fill-opacity:1;stroke-width:1;stroke-linecap:square;stroke-linejoin:miter;stroke:rgb(0%,0%,0%);stroke-opacity:1;stroke-miterlimit:3.25;" d="M 86.707031 38.324219 L 89.035156 38.328125 C 89.035156 38.328125 89.074219 38.027344 88.792969 37.84375 C 90.015625 37.675781 89.695312 36.597656 90.71875 36.539062 C 90.917969 36.570312 90.183594 36.996094 90.183594 36.996094 C 90.183594 36.996094 89.570312 37.429688 89.851562 37.652344 C 90.074219 37.828125 90.171875 37.546875 90.199219 37.332031 C 90.230469 37.117188 91.191406 36.980469 91.054688 36.371094 C 90.828125 35.867188 89.484375 36.707031 89.484375 36.707031 L 88.527344 36.699219 C 88.464844 36.59375 88.203125 36.160156 87.929688 36.160156 C 87.605469 36.171875 87.378906 36.707031 87.378906 36.707031 L 85.210938 36.707031 C 85.210938 36.707031 85.136719 37.261719 86.234375 37.367188 C 86.480469 37.691406 86.675781 37.78125 86.890625 37.867188 C 86.746094 37.984375 86.707031 38.128906 86.707031 38.324219 Z M 86.707031 38.324219 "/>
<path style="fill:none;stroke-width:1;stroke-linecap:square;stroke-linejoin:miter;stroke:rgb(0%,0%,0%);stroke-opacity:1;stroke-miterlimit:3.25;" d="M 86.875 37.851562 L 88.816406 37.84375 "/>
<path style="fill:none;stroke-width:1;stroke-linecap:square;stroke-linejoin:miter;stroke:rgb(0%,0%,0%);stroke-opacity:1;stroke-miterlimit:3.25;" d="M 85.984375 36.707031 C 85.984375 36.707031 86.140625 37.613281 86.855469 37.828125 "/>
<path style="fill:none;stroke-width:1;stroke-linecap:square;stroke-linejoin:miter;stroke:rgb(0%,0%,0%);stroke-opacity:1;stroke-miterlimit:3.25;" d="M 85.867188 36.695312 C 85.9375 36.347656 86.070312 36.289062 86.210938 35.84375 C 86.234375 35.414062 85.867188 35.464844 85.972656 35.1875 C 86.164062 34.890625 86.070312 34.601562 85.710938 34.375 C 85.78125 34.769531 85.242188 35.140625 85.242188 35.464844 C 85.242188 35.785156 85.519531 35.714844 85.484375 36.203125 C 85.507812 36.492188 85.410156 36.417969 85.386719 36.695312 L 85.867188 36.695312 "/>
<path style="fill-rule:evenodd;fill:rgb(96.861267%,77.645874%,0%);fill-opacity:1;stroke-width:1;stroke-linecap:square;stroke-linejoin:miter;stroke:rgb(0%,0%,0%);stroke-opacity:1;stroke-miterlimit:3.25;" d="M 88.207031 34.527344 C 88.207031 34.679688 88.085938 34.800781 87.933594 34.800781 C 87.78125 34.800781 87.65625 34.679688 87.65625 34.527344 C 87.65625 34.375 87.78125 34.25 87.933594 34.25 C 88.085938 34.25 88.207031 34.375 88.207031 34.527344 Z M 88.207031 34.527344 "/>
<path style="fill:none;stroke-width:1;stroke-linecap:square;stroke-linejoin:miter;stroke:rgb(96.861267%,77.645874%,0%);stroke-opacity:1;stroke-miterlimit:3.25;" d="M 102.394531 32.5625 L 103.898438 30.351562 L 105.410156 32.566406 "/>
<path style="fill-rule:evenodd;fill:rgb(96.861267%,77.645874%,0%);fill-opacity:1;stroke-width:1;stroke-linecap:square;stroke-linejoin:miter;stroke:rgb(0%,0%,0%);stroke-opacity:1;stroke-miterlimit:3.25;" d="M 104.429688 31.898438 C 104.429688 32.0625 104.296875 32.199219 104.132812 32.199219 C 103.96875 32.199219 103.832031 32.0625 103.832031 31.898438 C 103.832031 31.734375 103.96875 31.601562 104.132812 31.601562 C 104.296875 31.601562 104.429688 31.734375 104.429688 31.898438 Z M 104.429688 31.898438 "/>
<path style="fill-rule:evenodd;fill:rgb(96.861267%,77.645874%,0%);fill-opacity:1;stroke-width:1;stroke-linecap:square;stroke-linejoin:miter;stroke:rgb(0%,0%,0%);stroke-opacity:1;stroke-miterlimit:3.25;" d="M 102.679688 34.191406 L 105.007812 34.199219 C 105.007812 34.199219 105.046875 33.894531 104.765625 33.710938 C 105.984375 33.542969 105.667969 32.46875 106.691406 32.40625 C 106.890625 32.4375 106.15625 32.863281 106.15625 32.863281 C 106.15625 32.863281 105.539062 33.300781 105.820312 33.519531 C 106.042969 33.695312 106.140625 33.414062 106.171875 33.199219 C 106.203125 32.988281 107.164062 32.847656 107.027344 32.238281 C 106.796875 31.734375 105.457031 32.574219 105.457031 32.574219 L 104.496094 32.570312 C 104.4375 32.460938 104.171875 32.03125 103.902344 32.027344 C 103.578125 32.039062 103.347656 32.574219 103.347656 32.574219 L 101.183594 32.574219 C 101.183594 32.574219 101.109375 33.128906 102.207031 33.238281 C 102.453125 33.558594 102.644531 33.652344 102.859375 33.734375 C 102.71875 33.855469 102.675781 34 102.679688 34.191406 Z M 102.679688 34.191406 "/>
<path style="fill:none;stroke-width:1;stroke-linecap:square;stroke-linejoin:miter;stroke:rgb(0%,0%,0%);stroke-opacity:1;stroke-miterlimit:3.25;" d="M 102.84375 33.71875 L 104.785156 33.710938 "/>
<path style="fill:none;stroke-width:1;stroke-linecap:square;stroke-linejoin:miter;stroke:rgb(0%,0%,0%);stroke-opacity:1;stroke-miterlimit:3.25;" d="M 101.957031 32.574219 C 101.957031 32.574219 102.113281 33.480469 102.828125 33.699219 "/>
<path style="fill:none;stroke-width:1;stroke-linecap:square;stroke-linejoin:miter;stroke:rgb(0%,0%,0%);stroke-opacity:1;stroke-miterlimit:3.25;" d="M 101.835938 32.5625 C 101.910156 32.214844 102.039062 32.15625 102.183594 31.714844 C 102.207031 31.285156 101.835938 31.332031 101.945312 31.058594 C 102.136719 30.757812 102.039062 30.472656 101.679688 30.246094 C 101.753906 30.640625 101.214844 31.007812 101.214844 31.332031 C 101.214844 31.65625 101.492188 31.582031 101.453125 32.074219 C 101.480469 32.359375 101.382812 32.289062 101.359375 32.5625 L 101.835938 32.5625 "/>
<path style="fill-rule:evenodd;fill:rgb(96.861267%,77.645874%,0%);fill-opacity:1;stroke-width:1;stroke-linecap:square;stroke-linejoin:miter;stroke:rgb(0%,0%,0%);stroke-opacity:1;stroke-miterlimit:3.25;" d="M 104.179688 30.394531 C 104.179688 30.546875 104.054688 30.667969 103.90625 30.667969 C 103.753906 30.667969 103.628906 30.546875 103.628906 30.394531 C 103.628906 30.242188 103.753906 30.121094 103.90625 30.121094 C 104.054688 30.121094 104.179688 30.242188 104.179688 30.394531 Z M 104.179688 30.394531 "/>
<path style="fill:none;stroke-width:1;stroke-linecap:square;stroke-linejoin:miter;stroke:rgb(96.861267%,77.645874%,0%);stroke-opacity:1;stroke-miterlimit:3.25;" d="M 86.796875 28.144531 L 88.296875 25.933594 L 89.808594 28.148438 "/>
<path style="fill-rule:evenodd;fill:rgb(96.861267%,77.645874%,0%);fill-opacity:1;stroke-width:1;stroke-linecap:square;stroke-linejoin:miter;stroke:rgb(0%,0%,0%);stroke-opacity:1;stroke-miterlimit:3.25;" d="M 88.832031 27.480469 C 88.832031 27.644531 88.695312 27.78125 88.53125 27.78125 C 88.367188 27.78125 88.234375 27.644531 88.234375 27.480469 C 88.234375 27.316406 88.367188 27.183594 88.53125 27.183594 C 88.695312 27.183594 88.832031 27.316406 88.832031 27.480469 Z M 88.832031 27.480469 "/>
<path style="fill-rule:evenodd;fill:rgb(96.861267%,77.645874%,0%);fill-opacity:1;stroke-width:1;stroke-linecap:square;stroke-linejoin:miter;stroke:rgb(0%,0%,0%);stroke-opacity:1;stroke-miterlimit:3.25;" d="M 87.078125 29.773438 L 89.410156 29.78125 C 89.410156 29.78125 89.445312 29.476562 89.164062 29.292969 C 90.386719 29.125 90.070312 28.050781 91.089844 27.988281 C 91.289062 28.019531 90.558594 28.445312 90.558594 28.445312 C 90.558594 28.445312 89.941406 28.882812 90.222656 29.101562 C 90.445312 29.277344 90.542969 28.996094 90.574219 28.78125 C 90.601562 28.570312 91.5625 28.429688 91.425781 27.820312 C 91.199219 27.316406 89.855469 28.15625 89.855469 28.15625 L 88.898438 28.152344 C 88.835938 28.042969 88.574219 27.613281 88.300781 27.609375 C 87.976562 27.621094 87.75 28.15625 87.75 28.15625 L 85.582031 28.15625 C 85.582031 28.15625 85.507812 28.710938 86.605469 28.820312 C 86.855469 29.140625 87.046875 29.234375 87.261719 29.316406 C 87.117188 29.4375 87.078125 29.582031 87.078125 29.773438 Z M 87.078125 29.773438 "/>
<path style="fill:none;stroke-width:1;stroke-linecap:square;stroke-linejoin:miter;stroke:rgb(0%,0%,0%);stroke-opacity:1;stroke-miterlimit:3.25;" d="M 87.246094 29.300781 L 89.1875 29.292969 "/>
<path style="fill:none;stroke-width:1;stroke-linecap:square;stroke-linejoin:miter;stroke:rgb(0%,0%,0%);stroke-opacity:1;stroke-miterlimit:3.25;" d="M 86.355469 28.15625 C 86.355469 28.15625 86.511719 29.0625 87.230469 29.28125 "/>
<path style="fill:none;stroke-width:1;stroke-linecap:square;stroke-linejoin:miter;stroke:rgb(0%,0%,0%);stroke-opacity:1;stroke-miterlimit:3.25;" d="M 86.238281 28.144531 C 86.308594 27.796875 86.441406 27.738281 86.582031 27.296875 C 86.605469 26.867188 86.238281 26.914062 86.34375 26.640625 C 86.535156 26.339844 86.441406 26.054688 86.082031 25.828125 C 86.152344 26.222656 85.617188 26.589844 85.617188 26.914062 C 85.617188 27.238281 85.890625 27.164062 85.855469 27.65625 C 85.878906 27.941406 85.78125 27.871094 85.757812 28.144531 L 86.238281 28.144531 "/>
<path style="fill-rule:evenodd;fill:rgb(96.861267%,77.645874%,0%);fill-opacity:1;stroke-width:1;stroke-linecap:square;stroke-linejoin:miter;stroke:rgb(0%,0%,0%);stroke-opacity:1;stroke-miterlimit:3.25;" d="M 88.578125 25.976562 C 88.578125 26.128906 88.457031 26.25 88.304688 26.25 C 88.152344 26.25 88.03125 26.128906 88.03125 25.976562 C 88.03125 25.824219 88.152344 25.703125 88.304688 25.703125 C 88.457031 25.703125 88.578125 25.824219 88.578125 25.976562 Z M 88.578125 25.976562 "/>
<path style="fill:none;stroke-width:1;stroke-linecap:square;stroke-linejoin:miter;stroke:rgb(96.861267%,77.645874%,0%);stroke-opacity:1;stroke-miterlimit:3.25;" d="M 86.828125 23.800781 L 88.332031 21.59375 L 89.84375 23.804688 "/>
<path style="fill-rule:evenodd;fill:rgb(96.861267%,77.645874%,0%);fill-opacity:1;stroke-width:1;stroke-linecap:square;stroke-linejoin:miter;stroke:rgb(0%,0%,0%);stroke-opacity:1;stroke-miterlimit:3.25;" d="M 88.863281 23.140625 C 88.863281 23.304688 88.730469 23.4375 88.566406 23.4375 C 88.402344 23.4375 88.265625 23.304688 88.265625 23.140625 C 88.265625 22.972656 88.402344 22.839844 88.566406 22.839844 C 88.730469 22.839844 88.863281 22.972656 88.863281 23.140625 Z M 88.863281 23.140625 "/>
<path style="fill-rule:evenodd;fill:rgb(96.861267%,77.645874%,0%);fill-opacity:1;stroke-width:1;stroke-linecap:square;stroke-linejoin:miter;stroke:rgb(0%,0%,0%);stroke-opacity:1;stroke-miterlimit:3.25;" d="M 87.113281 25.433594 L 89.441406 25.4375 C 89.441406 25.4375 89.480469 25.136719 89.199219 24.953125 C 90.417969 24.785156 90.101562 23.707031 91.125 23.644531 C 91.324219 23.675781 90.589844 24.105469 90.589844 24.105469 C 90.589844 24.105469 89.972656 24.539062 90.253906 24.761719 C 90.476562 24.9375 90.574219 24.652344 90.605469 24.441406 C 90.636719 24.226562 91.597656 24.089844 91.460938 23.476562 C 91.230469 22.976562 89.890625 23.8125 89.890625 23.8125 L 88.929688 23.808594 C 88.871094 23.703125 88.605469 23.269531 88.335938 23.269531 C 88.011719 23.28125 87.78125 23.8125 87.78125 23.8125 L 85.617188 23.8125 C 85.617188 23.8125 85.542969 24.371094 86.640625 24.476562 C 86.886719 24.800781 87.078125 24.890625 87.292969 24.972656 C 87.152344 25.09375 87.109375 25.238281 87.113281 25.433594 Z M 87.113281 25.433594 "/>
<path style="fill:none;stroke-width:1;stroke-linecap:square;stroke-linejoin:miter;stroke:rgb(0%,0%,0%);stroke-opacity:1;stroke-miterlimit:3.25;" d="M 87.28125 24.957031 L 89.222656 24.953125 "/>
<path style="fill:none;stroke-width:1;stroke-linecap:square;stroke-linejoin:miter;stroke:rgb(0%,0%,0%);stroke-opacity:1;stroke-miterlimit:3.25;" d="M 86.390625 23.8125 C 86.390625 23.8125 86.546875 24.722656 87.261719 24.9375 "/>
<path style="fill:none;stroke-width:1;stroke-linecap:square;stroke-linejoin:miter;stroke:rgb(0%,0%,0%);stroke-opacity:1;stroke-miterlimit:3.25;" d="M 86.269531 23.800781 C 86.34375 23.457031 86.472656 23.394531 86.617188 22.953125 C 86.640625 22.523438 86.269531 22.570312 86.378906 22.296875 C 86.570312 21.996094 86.472656 21.710938 86.117188 21.484375 C 86.1875 21.878906 85.648438 22.25 85.648438 22.570312 C 85.648438 22.894531 85.925781 22.824219 85.886719 23.3125 C 85.914062 23.597656 85.816406 23.527344 85.792969 23.800781 L 86.269531 23.800781 "/>
<path style="fill-rule:evenodd;fill:rgb(96.861267%,77.645874%,0%);fill-opacity:1;stroke-width:1;stroke-linecap:square;stroke-linejoin:miter;stroke:rgb(0%,0%,0%);stroke-opacity:1;stroke-miterlimit:3.25;" d="M 88.613281 21.632812 C 88.613281 21.785156 88.488281 21.910156 88.339844 21.910156 C 88.1875 21.910156 88.0625 21.785156 88.0625 21.632812 C 88.0625 21.484375 88.1875 21.359375 88.339844 21.359375 C 88.488281 21.359375 88.613281 21.484375 88.613281 21.632812 Z M 88.613281 21.632812 "/>
<path style="fill:none;stroke-width:1;stroke-linecap:square;stroke-linejoin:miter;stroke:rgb(96.861267%,77.645874%,0%);stroke-opacity:1;stroke-miterlimit:3.25;" d="M 86.910156 19.394531 L 88.414062 17.1875 L 89.925781 19.398438 "/>
<path style="fill-rule:evenodd;fill:rgb(96.861267%,77.645874%,0%);fill-opacity:1;stroke-width:1;stroke-linecap:square;stroke-linejoin:miter;stroke:rgb(0%,0%,0%);stroke-opacity:1;stroke-miterlimit:3.25;" d="M 88.945312 18.734375 C 88.945312 18.898438 88.8125 19.03125 88.648438 19.03125 C 88.484375 19.03125 88.351562 18.898438 88.351562 18.734375 C 88.351562 18.570312 88.484375 18.433594 88.648438 18.433594 C 88.8125 18.433594 88.945312 18.570312 88.945312 18.734375 Z M 88.945312 18.734375 "/>
<path style="fill-rule:evenodd;fill:rgb(96.861267%,77.645874%,0%);fill-opacity:1;stroke-width:1;stroke-linecap:square;stroke-linejoin:miter;stroke:rgb(0%,0%,0%);stroke-opacity:1;stroke-miterlimit:3.25;" d="M 87.195312 21.027344 L 89.523438 21.03125 C 89.523438 21.03125 89.5625 20.730469 89.28125 20.546875 C 90.503906 20.378906 90.183594 19.300781 91.207031 19.242188 C 91.40625 19.269531 90.671875 19.699219 90.671875 19.699219 C 90.671875 19.699219 90.058594 20.132812 90.335938 20.355469 C 90.5625 20.53125 90.65625 20.246094 90.6875 20.035156 C 90.71875 19.820312 91.679688 19.683594 91.542969 19.074219 C 91.3125 18.570312 89.972656 19.410156 89.972656 19.410156 L 89.011719 19.402344 C 88.953125 19.296875 88.691406 18.863281 88.417969 18.863281 C 88.09375 18.875 87.867188 19.410156 87.867188 19.410156 L 85.699219 19.410156 C 85.699219 19.410156 85.625 19.964844 86.722656 20.070312 C 86.96875 20.394531 87.160156 20.484375 87.378906 20.566406 C 87.234375 20.6875 87.195312 20.832031 87.195312 21.027344 Z M 87.195312 21.027344 "/>
<path style="fill:none;stroke-width:1;stroke-linecap:square;stroke-linejoin:miter;stroke:rgb(0%,0%,0%);stroke-opacity:1;stroke-miterlimit:3.25;" d="M 87.363281 20.554688 L 89.304688 20.546875 "/>
<path style="fill:none;stroke-width:1;stroke-linecap:square;stroke-linejoin:miter;stroke:rgb(0%,0%,0%);stroke-opacity:1;stroke-miterlimit:3.25;" d="M 86.472656 19.410156 C 86.472656 19.410156 86.628906 20.316406 87.34375 20.53125 "/>
<path style="fill:none;stroke-width:1;stroke-linecap:square;stroke-linejoin:miter;stroke:rgb(0%,0%,0%);stroke-opacity:1;stroke-miterlimit:3.25;" d="M 86.351562 19.394531 C 86.425781 19.050781 86.554688 18.988281 86.699219 18.546875 C 86.722656 18.117188 86.351562 18.164062 86.460938 17.890625 C 86.652344 17.59375 86.554688 17.304688 86.199219 17.078125 C 86.269531 17.472656 85.730469 17.84375 85.730469 18.164062 C 85.730469 18.488281 86.007812 18.417969 85.972656 18.90625 C 85.996094 19.191406 85.898438 19.121094 85.875 19.394531 L 86.351562 19.394531 "/>
<path style="fill-rule:evenodd;fill:rgb(96.861267%,77.645874%,0%);fill-opacity:1;stroke-width:1;stroke-linecap:square;stroke-linejoin:miter;stroke:rgb(0%,0%,0%);stroke-opacity:1;stroke-miterlimit:3.25;" d="M 88.695312 17.230469 C 88.695312 17.378906 88.574219 17.503906 88.421875 17.503906 C 88.269531 17.503906 88.144531 17.378906 88.144531 17.230469 C 88.144531 17.078125 88.269531 16.953125 88.421875 16.953125 C 88.574219 16.953125 88.695312 17.078125 88.695312 17.230469 Z M 88.695312 17.230469 "/>
<path style="fill:none;stroke-width:1;stroke-linecap:square;stroke-linejoin:miter;stroke:rgb(96.861267%,77.645874%,0%);stroke-opacity:1;stroke-miterlimit:3.25;" d="M 102.515625 19.46875 L 104.019531 17.257812 L 105.527344 19.472656 "/>
<path style="fill-rule:evenodd;fill:rgb(96.861267%,77.645874%,0%);fill-opacity:1;stroke-width:1;stroke-linecap:square;stroke-linejoin:miter;stroke:rgb(0%,0%,0%);stroke-opacity:1;stroke-miterlimit:3.25;" d="M 104.550781 18.804688 C 104.550781 18.96875 104.417969 19.105469 104.25 19.105469 C 104.085938 19.105469 103.953125 18.96875 103.953125 18.804688 C 103.953125 18.640625 104.085938 18.507812 104.25 18.507812 C 104.417969 18.507812 104.550781 18.640625 104.550781 18.804688 Z M 104.550781 18.804688 "/>
<path style="fill-rule:evenodd;fill:rgb(96.861267%,77.645874%,0%);fill-opacity:1;stroke-width:1;stroke-linecap:square;stroke-linejoin:miter;stroke:rgb(0%,0%,0%);stroke-opacity:1;stroke-miterlimit:3.25;" d="M 102.796875 21.097656 L 105.128906 21.105469 C 105.128906 21.105469 105.164062 20.800781 104.882812 20.617188 C 106.105469 20.449219 105.789062 19.375 106.8125 19.3125 C 107.007812 19.34375 106.277344 19.769531 106.277344 19.769531 C 106.277344 19.769531 105.660156 20.203125 105.941406 20.425781 C 106.164062 20.601562 106.261719 20.320312 106.292969 20.105469 C 106.324219 19.890625 107.285156 19.753906 107.144531 19.144531 C 106.917969 18.640625 105.574219 19.480469 105.574219 19.480469 L 104.617188 19.476562 C 104.558594 19.367188 104.292969 18.9375 104.019531 18.933594 C 103.695312 18.945312 103.46875 19.480469 103.46875 19.480469 L 101.300781 19.480469 C 101.300781 19.480469 101.226562 20.035156 102.324219 20.144531 C 102.574219 20.464844 102.765625 20.554688 102.980469 20.640625 C 102.835938 20.757812 102.796875 20.902344 102.796875 21.097656 Z M 102.796875 21.097656 "/>
<path style="fill:none;stroke-width:1;stroke-linecap:square;stroke-linejoin:miter;stroke:rgb(0%,0%,0%);stroke-opacity:1;stroke-miterlimit:3.25;" d="M 102.964844 20.625 L 104.90625 20.617188 "/>
<path style="fill:none;stroke-width:1;stroke-linecap:square;stroke-linejoin:miter;stroke:rgb(0%,0%,0%);stroke-opacity:1;stroke-miterlimit:3.25;" d="M 102.074219 19.480469 C 102.074219 19.480469 102.230469 20.386719 102.949219 20.601562 "/>
<path style="fill:none;stroke-width:1;stroke-linecap:square;stroke-linejoin:miter;stroke:rgb(0%,0%,0%);stroke-opacity:1;stroke-miterlimit:3.25;" d="M 101.957031 19.46875 C 102.027344 19.121094 102.160156 19.0625 102.304688 18.621094 C 102.328125 18.191406 101.957031 18.238281 102.0625 17.960938 C 102.253906 17.664062 102.160156 17.378906 101.800781 17.148438 C 101.871094 17.542969 101.335938 17.914062 101.335938 18.238281 C 101.335938 18.558594 101.609375 18.488281 101.574219 18.976562 C 101.597656 19.265625 101.503906 19.191406 101.480469 19.46875 L 101.957031 19.46875 "/>
<path style="fill-rule:evenodd;fill:rgb(96.861267%,77.645874%,0%);fill-opacity:1;stroke-width:1;stroke-linecap:square;stroke-linejoin:miter;stroke:rgb(0%,0%,0%);stroke-opacity:1;stroke-miterlimit:3.25;" d="M 104.296875 17.300781 C 104.296875 17.453125 104.175781 17.574219 104.023438 17.574219 C 103.871094 17.574219 103.75 17.453125 103.75 17.300781 C 103.75 17.148438 103.871094 17.027344 104.023438 17.027344 C 104.175781 17.027344 104.296875 17.148438 104.296875 17.300781 Z M 104.296875 17.300781 "/>
<path style="fill:none;stroke-width:1;stroke-linecap:square;stroke-linejoin:miter;stroke:rgb(96.861267%,77.645874%,0%);stroke-opacity:1;stroke-miterlimit:3.25;" d="M 102.371094 23.792969 L 103.875 21.582031 L 105.386719 23.796875 "/>
<path style="fill-rule:evenodd;fill:rgb(96.861267%,77.645874%,0%);fill-opacity:1;stroke-width:1;stroke-linecap:square;stroke-linejoin:miter;stroke:rgb(0%,0%,0%);stroke-opacity:1;stroke-miterlimit:3.25;" d="M 104.40625 23.128906 C 104.40625 23.292969 104.273438 23.429688 104.109375 23.429688 C 103.941406 23.429688 103.808594 23.292969 103.808594 23.128906 C 103.808594 22.964844 103.941406 22.832031 104.109375 22.832031 C 104.273438 22.832031 104.40625 22.964844 104.40625 23.128906 Z M 104.40625 23.128906 "/>
<path style="fill-rule:evenodd;fill:rgb(96.861267%,77.645874%,0%);fill-opacity:1;stroke-width:1;stroke-linecap:square;stroke-linejoin:miter;stroke:rgb(0%,0%,0%);stroke-opacity:1;stroke-miterlimit:3.25;" d="M 102.652344 25.421875 L 104.984375 25.429688 C 104.984375 25.429688 105.019531 25.125 104.742188 24.941406 C 105.960938 24.773438 105.644531 23.699219 106.667969 23.636719 C 106.867188 23.667969 106.132812 24.09375 106.132812 24.09375 C 106.132812 24.09375 105.515625 24.53125 105.796875 24.75 C 106.019531 24.925781 106.117188 24.644531 106.148438 24.429688 C 106.179688 24.21875 107.140625 24.078125 107.003906 23.46875 C 106.773438 22.964844 105.429688 23.804688 105.429688 23.804688 L 104.472656 23.800781 C 104.414062 23.691406 104.148438 23.261719 103.875 23.257812 C 103.554688 23.269531 103.324219 23.804688 103.324219 23.804688 L 101.160156 23.804688 C 101.160156 23.804688 101.085938 24.359375 102.183594 24.46875 C 102.429688 24.789062 102.621094 24.882812 102.835938 24.964844 C 102.695312 25.085938 102.652344 25.230469 102.652344 25.421875 Z M 102.652344 25.421875 "/>
<path style="fill:none;stroke-width:1;stroke-linecap:square;stroke-linejoin:miter;stroke:rgb(0%,0%,0%);stroke-opacity:1;stroke-miterlimit:3.25;" d="M 102.820312 24.949219 L 104.761719 24.941406 "/>
<path style="fill:none;stroke-width:1;stroke-linecap:square;stroke-linejoin:miter;stroke:rgb(0%,0%,0%);stroke-opacity:1;stroke-miterlimit:3.25;" d="M 101.933594 23.804688 C 101.933594 23.804688 102.085938 24.714844 102.804688 24.929688 "/>
<path style="fill:none;stroke-width:1;stroke-linecap:square;stroke-linejoin:miter;stroke:rgb(0%,0%,0%);stroke-opacity:1;stroke-miterlimit:3.25;" d="M 101.8125 23.792969 C 101.882812 23.445312 102.015625 23.386719 102.160156 22.945312 C 102.183594 22.515625 101.8125 22.5625 101.921875 22.289062 C 102.113281 21.988281 102.015625 21.703125 101.65625 21.476562 C 101.730469 21.871094 101.191406 22.238281 101.191406 22.5625 C 101.191406 22.886719 101.464844 22.8125 101.429688 23.304688 C 101.453125 23.589844 101.359375 23.519531 101.335938 23.792969 L 101.8125 23.792969 "/>
<path style="fill-rule:evenodd;fill:rgb(96.861267%,77.645874%,0%);fill-opacity:1;stroke-width:1;stroke-linecap:square;stroke-linejoin:miter;stroke:rgb(0%,0%,0%);stroke-opacity:1;stroke-miterlimit:3.25;" d="M 104.15625 21.625 C 104.15625 21.777344 104.03125 21.898438 103.878906 21.898438 C 103.730469 21.898438 103.605469 21.777344 103.605469 21.625 C 103.605469 21.472656 103.730469 21.351562 103.878906 21.351562 C 104.03125 21.351562 104.15625 21.472656 104.15625 21.625 Z M 104.15625 21.625 "/>
<path style="fill:none;stroke-width:1;stroke-linecap:square;stroke-linejoin:miter;stroke:rgb(96.861267%,77.645874%,0%);stroke-opacity:1;stroke-miterlimit:3.25;" d="M 102.179688 28.210938 L 103.683594 26.003906 L 105.195312 28.21875 "/>
<path style="fill-rule:evenodd;fill:rgb(96.861267%,77.645874%,0%);fill-opacity:1;stroke-width:1;stroke-linecap:square;stroke-linejoin:miter;stroke:rgb(0%,0%,0%);stroke-opacity:1;stroke-miterlimit:3.25;" d="M 104.214844 27.550781 C 104.214844 27.714844 104.082031 27.847656 103.917969 27.847656 C 103.753906 27.847656 103.617188 27.714844 103.617188 27.550781 C 103.617188 27.386719 103.753906 27.25 103.917969 27.25 C 104.082031 27.25 104.214844 27.386719 104.214844 27.550781 Z M 104.214844 27.550781 "/>
<path style="fill-rule:evenodd;fill:rgb(96.861267%,77.645874%,0%);fill-opacity:1;stroke-width:1;stroke-linecap:square;stroke-linejoin:miter;stroke:rgb(0%,0%,0%);stroke-opacity:1;stroke-miterlimit:3.25;" d="M 102.460938 29.84375 L 104.792969 29.851562 C 104.792969 29.851562 104.828125 29.546875 104.550781 29.363281 C 105.769531 29.195312 105.453125 28.117188 106.476562 28.058594 C 106.675781 28.089844 105.941406 28.515625 105.941406 28.515625 C 105.941406 28.515625 105.324219 28.949219 105.605469 29.171875 C 105.828125 29.347656 105.925781 29.066406 105.957031 28.851562 C 105.988281 28.636719 106.949219 28.5 106.8125 27.890625 C 106.582031 27.386719 105.238281 28.226562 105.238281 28.226562 L 104.28125 28.21875 C 104.222656 28.113281 103.957031 27.679688 103.683594 27.679688 C 103.363281 27.691406 103.132812 28.226562 103.132812 28.226562 L 100.96875 28.226562 C 100.96875 28.226562 100.894531 28.78125 101.992188 28.886719 C 102.238281 29.210938 102.429688 29.300781 102.644531 29.386719 C 102.503906 29.503906 102.460938 29.648438 102.460938 29.84375 Z M 102.460938 29.84375 "/>
<path style="fill:none;stroke-width:1;stroke-linecap:square;stroke-linejoin:miter;stroke:rgb(0%,0%,0%);stroke-opacity:1;stroke-miterlimit:3.25;" d="M 102.628906 29.371094 L 104.570312 29.363281 "/>
<path style="fill:none;stroke-width:1;stroke-linecap:square;stroke-linejoin:miter;stroke:rgb(0%,0%,0%);stroke-opacity:1;stroke-miterlimit:3.25;" d="M 101.742188 28.226562 C 101.742188 28.226562 101.898438 29.132812 102.613281 29.347656 "/>
<path style="fill:none;stroke-width:1;stroke-linecap:square;stroke-linejoin:miter;stroke:rgb(0%,0%,0%);stroke-opacity:1;stroke-miterlimit:3.25;" d="M 101.621094 28.214844 C 101.695312 27.867188 101.824219 27.808594 101.96875 27.363281 C 101.992188 26.933594 101.621094 26.984375 101.730469 26.707031 C 101.921875 26.410156 101.824219 26.121094 101.464844 25.894531 C 101.539062 26.289062 101 26.660156 101 26.984375 C 101 27.304688 101.277344 27.234375 101.238281 27.722656 C 101.261719 28.011719 101.167969 27.9375 101.144531 28.214844 L 101.621094 28.214844 "/>
<path style="fill-rule:evenodd;fill:rgb(96.861267%,77.645874%,0%);fill-opacity:1;stroke-width:1;stroke-linecap:square;stroke-linejoin:miter;stroke:rgb(0%,0%,0%);stroke-opacity:1;stroke-miterlimit:3.25;" d="M 103.964844 26.046875 C 103.964844 26.199219 103.839844 26.320312 103.6875 26.320312 C 103.539062 26.320312 103.414062 26.199219 103.414062 26.046875 C 103.414062 25.894531 103.539062 25.769531 103.6875 25.769531 C 103.839844 25.769531 103.964844 25.894531 103.964844 26.046875 Z M 103.964844 26.046875 "/>
<path style="fill:none;stroke-width:1;stroke-linecap:square;stroke-linejoin:miter;stroke:rgb(96.861267%,77.645874%,0%);stroke-opacity:1;stroke-miterlimit:3.25;" d="M 102.371094 41.28125 L 103.875 39.074219 L 105.386719 41.289062 "/>
<path style="fill-rule:evenodd;fill:rgb(96.861267%,77.645874%,0%);fill-opacity:1;stroke-width:1;stroke-linecap:square;stroke-linejoin:miter;stroke:rgb(0%,0%,0%);stroke-opacity:1;stroke-miterlimit:3.25;" d="M 104.175781 40.457031 C 104.175781 40.621094 104.042969 40.753906 103.878906 40.753906 C 103.714844 40.753906 103.578125 40.621094 103.578125 40.457031 C 103.578125 40.292969 103.714844 40.160156 103.878906 40.160156 C 104.042969 40.160156 104.175781 40.292969 104.175781 40.457031 Z M 104.175781 40.457031 "/>
<path style="fill-rule:evenodd;fill:rgb(96.861267%,77.645874%,0%);fill-opacity:1;stroke-width:1;stroke-linecap:square;stroke-linejoin:miter;stroke:rgb(0%,0%,0%);stroke-opacity:1;stroke-miterlimit:3.25;" d="M 102.652344 42.914062 L 104.984375 42.921875 C 104.984375 42.921875 105.019531 42.617188 104.742188 42.433594 C 105.960938 42.265625 105.644531 41.1875 106.667969 41.128906 C 106.867188 41.160156 106.132812 41.585938 106.132812 41.585938 C 106.132812 41.585938 105.515625 42.019531 105.796875 42.242188 C 106.019531 42.417969 106.117188 42.136719 106.148438 41.921875 C 106.179688 41.707031 107.140625 41.570312 107.003906 40.960938 C 106.773438 40.457031 105.429688 41.296875 105.429688 41.296875 L 104.472656 41.289062 C 104.414062 41.183594 104.148438 40.75 103.875 40.75 C 103.554688 40.761719 103.324219 41.296875 103.324219 41.296875 L 101.160156 41.296875 C 101.160156 41.296875 101.085938 41.851562 102.183594 41.957031 C 102.429688 42.28125 102.621094 42.371094 102.835938 42.457031 C 102.695312 42.574219 102.652344 42.71875 102.652344 42.914062 Z M 102.652344 42.914062 "/>
<path style="fill:none;stroke-width:1;stroke-linecap:square;stroke-linejoin:miter;stroke:rgb(0%,0%,0%);stroke-opacity:1;stroke-miterlimit:3.25;" d="M 102.820312 42.441406 L 104.761719 42.433594 "/>
<path style="fill:none;stroke-width:1;stroke-linecap:square;stroke-linejoin:miter;stroke:rgb(0%,0%,0%);stroke-opacity:1;stroke-miterlimit:3.25;" d="M 101.933594 41.296875 C 101.933594 41.296875 102.085938 42.203125 102.804688 42.417969 "/>
<path style="fill:none;stroke-width:1;stroke-linecap:square;stroke-linejoin:miter;stroke:rgb(0%,0%,0%);stroke-opacity:1;stroke-miterlimit:3.25;" d="M 101.8125 41.285156 C 101.882812 40.9375 102.015625 40.878906 102.160156 40.4375 C 102.183594 40.003906 101.8125 40.054688 101.921875 39.777344 C 102.113281 39.480469 102.015625 39.191406 101.65625 38.964844 C 101.730469 39.359375 101.191406 39.730469 101.191406 40.054688 C 101.191406 40.375 101.464844 40.304688 101.429688 40.792969 C 101.453125 41.082031 101.359375 41.007812 101.335938 41.285156 L 101.8125 41.285156 "/>
<path style="fill-rule:evenodd;fill:rgb(96.861267%,77.645874%,0%);fill-opacity:1;stroke-width:1;stroke-linecap:square;stroke-linejoin:miter;stroke:rgb(0%,0%,0%);stroke-opacity:1;stroke-miterlimit:3.25;" d="M 104.152344 39.132812 C 104.152344 39.28125 104.03125 39.40625 103.878906 39.40625 C 103.726562 39.40625 103.601562 39.28125 103.601562 39.132812 C 103.601562 38.980469 103.726562 38.855469 103.878906 38.855469 C 104.03125 38.855469 104.152344 38.980469 104.152344 39.132812 Z M 104.152344 39.132812 "/>
<path style="fill:none;stroke-width:1;stroke-linecap:square;stroke-linejoin:miter;stroke:rgb(96.861267%,77.645874%,0%);stroke-opacity:1;stroke-miterlimit:3.25;" d="M 102.347656 36.910156 L 103.851562 34.703125 L 105.363281 36.914062 "/>
<path style="fill-rule:evenodd;fill:rgb(96.861267%,77.645874%,0%);fill-opacity:1;stroke-width:1;stroke-linecap:square;stroke-linejoin:miter;stroke:rgb(0%,0%,0%);stroke-opacity:1;stroke-miterlimit:3.25;" d="M 104.382812 36.25 C 104.382812 36.414062 104.25 36.546875 104.085938 36.546875 C 103.917969 36.546875 103.785156 36.414062 103.785156 36.25 C 103.785156 36.082031 103.917969 35.949219 104.085938 35.949219 C 104.25 35.949219 104.382812 36.082031 104.382812 36.25 Z M 104.382812 36.25 "/>
<path style="fill-rule:evenodd;fill:rgb(96.861267%,77.645874%,0%);fill-opacity:1;stroke-width:1;stroke-linecap:square;stroke-linejoin:miter;stroke:rgb(0%,0%,0%);stroke-opacity:1;stroke-miterlimit:3.25;" d="M 102.628906 38.539062 L 104.960938 38.546875 C 104.960938 38.546875 104.996094 38.246094 104.71875 38.0625 C 105.9375 37.894531 105.621094 36.816406 106.644531 36.753906 C 106.84375 36.785156 106.109375 37.214844 106.109375 37.214844 C 106.109375 37.214844 105.492188 37.648438 105.773438 37.871094 C 105.996094 38.042969 106.09375 37.761719 106.125 37.550781 C 106.15625 37.335938 107.117188 37.199219 106.980469 36.585938 C 106.75 36.082031 105.40625 36.921875 105.40625 36.921875 L 104.449219 36.917969 C 104.390625 36.808594 104.125 36.378906 103.851562 36.378906 C 103.527344 36.390625 103.300781 36.921875 103.300781 36.921875 L 101.132812 36.921875 C 101.132812 36.921875 101.058594 37.480469 102.160156 37.585938 C 102.40625 37.910156 102.597656 38 102.8125 38.082031 C 102.667969 38.203125 102.628906 38.347656 102.628906 38.539062 Z M 102.628906 38.539062 "/>
<path style="fill:none;stroke-width:1;stroke-linecap:square;stroke-linejoin:miter;stroke:rgb(0%,0%,0%);stroke-opacity:1;stroke-miterlimit:3.25;" d="M 102.796875 38.066406 L 104.738281 38.0625 "/>
<path style="fill:none;stroke-width:1;stroke-linecap:square;stroke-linejoin:miter;stroke:rgb(0%,0%,0%);stroke-opacity:1;stroke-miterlimit:3.25;" d="M 101.910156 36.921875 C 101.910156 36.921875 102.0625 37.832031 102.78125 38.046875 "/>
<path style="fill:none;stroke-width:1;stroke-linecap:square;stroke-linejoin:miter;stroke:rgb(0%,0%,0%);stroke-opacity:1;stroke-miterlimit:3.25;" d="M 101.789062 36.910156 C 101.859375 36.566406 101.992188 36.503906 102.136719 36.0625 C 102.160156 35.632812 101.789062 35.679688 101.898438 35.40625 C 102.085938 35.105469 101.992188 34.820312 101.632812 34.59375 C 101.707031 34.988281 101.167969 35.359375 101.167969 35.679688 C 101.167969 36.003906 101.441406 35.929688 101.40625 36.421875 C 101.429688 36.707031 101.335938 36.636719 101.3125 36.910156 L 101.789062 36.910156 "/>
<path style="fill-rule:evenodd;fill:rgb(96.861267%,77.645874%,0%);fill-opacity:1;stroke-width:1;stroke-linecap:square;stroke-linejoin:miter;stroke:rgb(0%,0%,0%);stroke-opacity:1;stroke-miterlimit:3.25;" d="M 104.132812 34.742188 C 104.132812 34.894531 104.007812 35.019531 103.855469 35.019531 C 103.703125 35.019531 103.582031 34.894531 103.582031 34.742188 C 103.582031 34.589844 103.703125 34.46875 103.855469 34.46875 C 104.007812 34.46875 104.132812 34.589844 104.132812 34.742188 Z M 104.132812 34.742188 "/>
<path style="fill:none;stroke-width:1;stroke-linecap:square;stroke-linejoin:miter;stroke:rgb(96.861267%,77.645874%,0%);stroke-opacity:1;stroke-miterlimit:3.25;" d="M 89.644531 32.84375 L 91.148438 30.636719 L 92.660156 32.851562 "/>
<path style="fill-rule:evenodd;fill:rgb(96.861267%,77.645874%,0%);fill-opacity:1;stroke-width:1;stroke-linecap:square;stroke-linejoin:miter;stroke:rgb(0%,0%,0%);stroke-opacity:1;stroke-miterlimit:3.25;" d="M 91.679688 32.183594 C 91.679688 32.347656 91.546875 32.484375 91.382812 32.484375 C 91.21875 32.484375 91.082031 32.347656 91.082031 32.183594 C 91.082031 32.019531 91.21875 31.886719 91.382812 31.886719 C 91.546875 31.886719 91.679688 32.019531 91.679688 32.183594 Z M 91.679688 32.183594 "/>
<path style="fill-rule:evenodd;fill:rgb(96.861267%,77.645874%,0%);fill-opacity:1;stroke-width:1;stroke-linecap:square;stroke-linejoin:miter;stroke:rgb(0%,0%,0%);stroke-opacity:1;stroke-miterlimit:3.25;" d="M 89.925781 34.476562 L 92.257812 34.484375 C 92.257812 34.484375 92.292969 34.179688 92.015625 33.996094 C 93.234375 33.828125 92.917969 32.753906 93.941406 32.691406 C 94.140625 32.722656 93.40625 33.148438 93.40625 33.148438 C 93.40625 33.148438 92.789062 33.582031 93.070312 33.804688 C 93.292969 33.980469 93.390625 33.699219 93.421875 33.484375 C 93.453125 33.269531 94.414062 33.132812 94.277344 32.523438 C 94.046875 32.019531 92.703125 32.859375 92.703125 32.859375 L 91.746094 32.855469 C 91.6875 32.746094 91.421875 32.316406 91.148438 32.3125 C 90.828125 32.324219 90.597656 32.859375 90.597656 32.859375 L 88.433594 32.859375 C 88.433594 32.859375 88.359375 33.414062 89.457031 33.523438 C 89.703125 33.84375 89.894531 33.933594 90.109375 34.019531 C 89.96875 34.136719 89.925781 34.28125 89.925781 34.476562 Z M 89.925781 34.476562 "/>
<path style="fill:none;stroke-width:1;stroke-linecap:square;stroke-linejoin:miter;stroke:rgb(0%,0%,0%);stroke-opacity:1;stroke-miterlimit:3.25;" d="M 90.09375 34.003906 L 92.035156 33.996094 "/>
<path style="fill:none;stroke-width:1;stroke-linecap:square;stroke-linejoin:miter;stroke:rgb(0%,0%,0%);stroke-opacity:1;stroke-miterlimit:3.25;" d="M 89.207031 32.859375 C 89.207031 32.859375 89.363281 33.765625 90.078125 33.980469 "/>
<path style="fill:none;stroke-width:1;stroke-linecap:square;stroke-linejoin:miter;stroke:rgb(0%,0%,0%);stroke-opacity:1;stroke-miterlimit:3.25;" d="M 89.085938 32.847656 C 89.160156 32.5 89.289062 32.441406 89.433594 32 C 89.457031 31.570312 89.085938 31.617188 89.195312 31.339844 C 89.386719 31.042969 89.289062 30.757812 88.929688 30.527344 C 89.003906 30.921875 88.464844 31.292969 88.464844 31.617188 C 88.464844 31.9375 88.742188 31.867188 88.703125 32.355469 C 88.726562 32.644531 88.632812 32.570312 88.609375 32.847656 L 89.085938 32.847656 "/>
<path style="fill-rule:evenodd;fill:rgb(96.861267%,77.645874%,0%);fill-opacity:1;stroke-width:1;stroke-linecap:square;stroke-linejoin:miter;stroke:rgb(0%,0%,0%);stroke-opacity:1;stroke-miterlimit:3.25;" d="M 91.429688 30.679688 C 91.429688 30.832031 91.304688 30.953125 91.152344 30.953125 C 91.003906 30.953125 90.878906 30.832031 90.878906 30.679688 C 90.878906 30.527344 91.003906 30.40625 91.152344 30.40625 C 91.304688 30.40625 91.429688 30.527344 91.429688 30.679688 Z M 91.429688 30.679688 "/>
<path style="fill-rule:evenodd;fill:rgb(96.861267%,77.645874%,0%);fill-opacity:1;stroke-width:1;stroke-linecap:square;stroke-linejoin:miter;stroke:rgb(0%,0%,0%);stroke-opacity:1;stroke-miterlimit:3.25;" d="M 97.691406 43.339844 C 97.691406 43.339844 98.296875 44.742188 98.992188 43.882812 C 99.683594 43.019531 99.429688 42.648438 99.429688 42.648438 L 97.875 41.800781 L 97.417969 42.765625 Z M 97.691406 43.339844 "/>
<path style="fill-rule:evenodd;fill:rgb(99.998474%,77.645874%,70.979309%);fill-opacity:1;stroke-width:1;stroke-linecap:square;stroke-linejoin:miter;stroke:rgb(0%,0%,0%);stroke-opacity:1;stroke-miterlimit:3.25;" d="M 99.023438 43.15625 C 99.023438 43.15625 99.125 43.171875 99.210938 43.019531 C 99.296875 42.867188 99.023438 42.800781 98.90625 42.628906 L 98.769531 42.902344 Z M 99.023438 43.15625 "/>
<path style="fill-rule:evenodd;fill:rgb(99.998474%,77.645874%,70.979309%);fill-opacity:1;stroke-width:1;stroke-linecap:square;stroke-linejoin:miter;stroke:rgb(0%,0%,0%);stroke-opacity:1;stroke-miterlimit:3.25;" d="M 95.511719 42.78125 L 94.140625 43.527344 C 94.140625 43.527344 93.464844 43.660156 93.414062 43.527344 C 93.363281 43.390625 93.433594 43.273438 93.785156 43.253906 C 94.140625 43.238281 95.105469 42.359375 95.105469 42.359375 Z M 95.511719 42.78125 "/>
<path style="fill-rule:evenodd;fill:rgb(99.998474%,77.645874%,70.979309%);fill-opacity:1;stroke-width:1;stroke-linecap:square;stroke-linejoin:miter;stroke:rgb(0%,0%,0%);stroke-opacity:1;stroke-miterlimit:3.25;" d="M 95.527344 18.46875 C 95.527344 18.46875 95.5625 18.789062 95.578125 18.960938 C 95.59375 19.128906 95.308594 19.484375 95.289062 19.464844 C 95.273438 19.449219 95.136719 19.484375 95.15625 19.585938 C 95.171875 19.6875 95.375 19.71875 95.375 19.71875 C 95.375 19.71875 95.289062 20.074219 95.375 20.089844 C 95.460938 20.109375 95.15625 20.546875 95.375 20.664062 C 95.59375 20.785156 95.964844 20.9375 96.136719 20.902344 C 96.304688 20.867188 96.136719 21.5625 96.136719 21.5625 L 95.664062 22.574219 L 98.265625 22.304688 L 97.722656 21.441406 C 97.722656 21.441406 97.46875 21.273438 97.539062 20.785156 C 97.605469 20.292969 97.503906 18.082031 97.503906 18.082031 L 95.644531 17.828125 Z M 95.527344 18.46875 "/>
<path style="fill-rule:evenodd;fill:rgb(99.998474%,77.645874%,70.979309%);fill-opacity:1;stroke-width:1;stroke-linecap:square;stroke-linejoin:miter;stroke:rgb(0%,0%,0%);stroke-opacity:1;stroke-miterlimit:3.25;" d="M 95.054688 22.320312 C 95.054688 22.320312 94.210938 22.710938 94.242188 23.757812 C 94.023438 24.769531 93.90625 25.785156 93.90625 25.785156 C 93.90625 25.785156 92.910156 26.917969 92.605469 27.324219 C 92.300781 27.726562 91.84375 28.554688 91.675781 28.777344 C 91.507812 28.996094 90.847656 29.722656 90.863281 29.992188 C 90.878906 30.261719 90.710938 31.460938 91.371094 31.597656 C 91.539062 31.664062 92.082031 30.210938 92.082031 30.210938 C 92.082031 30.210938 92.113281 29.585938 91.929688 29.46875 C 91.742188 29.351562 92.332031 28.945312 92.332031 28.945312 C 92.332031 28.945312 93.464844 28.117188 93.71875 27.914062 C 93.972656 27.710938 94.664062 26.933594 94.664062 26.933594 Z M 95.054688 22.320312 "/>
<path style="fill-rule:evenodd;fill:rgb(99.998474%,99.998474%,99.998474%);fill-opacity:1;stroke-width:1;stroke-linecap:square;stroke-linejoin:miter;stroke:rgb(0%,0%,0%);stroke-opacity:1;stroke-miterlimit:3.25;" d="M 96.015625 21.527344 C 96.015625 21.527344 96.238281 22.117188 96.726562 22.015625 C 97.21875 21.914062 97.792969 21.460938 97.792969 21.460938 C 97.792969 21.460938 98.246094 21.441406 98.316406 21.511719 C 98.382812 21.578125 99.546875 22.710938 99.515625 23.066406 C 99.480469 23.417969 98.972656 23.320312 98.789062 23.554688 C 98.601562 23.792969 98.296875 24.382812 98.382812 24.820312 C 98.46875 25.261719 98.71875 25.835938 98.6875 26.054688 C 98.652344 26.273438 98.46875 26.34375 98.46875 26.460938 C 98.46875 26.578125 98.621094 26.78125 98.621094 27 C 98.621094 27.222656 98.417969 27.542969 98.449219 27.761719 C 98.484375 27.980469 98.5 28.625 98.5 28.625 L 98.449219 31.597656 C 98.449219 31.597656 98.621094 31.699219 98.636719 31.867188 C 98.652344 32.035156 99.785156 36.953125 99.785156 36.953125 C 99.785156 36.953125 99.734375 37.105469 99.617188 37.089844 C 99.496094 37.070312 100.074219 37.847656 100.089844 38.070312 C 100.105469 38.289062 100.679688 40.011719 100.664062 40.25 C 100.648438 40.484375 100.5625 41.007812 100.511719 41.027344 C 100.460938 41.042969 100.882812 42.105469 100.816406 42.277344 C 100.75 42.445312 100.054688 42.429688 100.054688 42.429688 L 99.871094 42.394531 C 99.871094 42.394531 99.886719 42.613281 99.75 42.628906 C 99.617188 42.648438 98.621094 42.578125 98.621094 42.578125 C 98.621094 42.578125 98.332031 43.019531 98.164062 43.003906 C 97.992188 42.984375 97.773438 42.679688 97.722656 42.730469 C 97.671875 42.78125 97.875 43.070312 97.824219 43.15625 C 97.773438 43.238281 96.914062 43.425781 96.742188 43.019531 C 96.574219 42.613281 96.84375 42.714844 96.792969 42.628906 C 96.742188 42.546875 96.355469 42.328125 96.238281 42.394531 C 96.117188 42.460938 96.542969 42.5625 96.523438 42.730469 C 96.507812 42.902344 96.152344 43.15625 96.015625 43.15625 C 95.882812 43.15625 95.5625 42.527344 95.089844 42.597656 C 94.613281 42.664062 94.3125 42.78125 94.3125 42.78125 C 94.3125 42.78125 93.753906 43.019531 93.515625 42.96875 C 93.28125 42.917969 93.179688 42.730469 93.179688 42.628906 C 93.179688 42.527344 93.347656 42.089844 93.332031 41.953125 C 93.3125 41.820312 93.179688 41.683594 93.179688 41.480469 C 93.179688 41.277344 93.566406 40.585938 93.566406 40.585938 L 93.550781 37.476562 C 93.550781 37.476562 93.195312 37.476562 93.179688 37.257812 C 93.160156 37.039062 93.71875 32.339844 93.804688 32.035156 C 93.886719 31.734375 94.109375 30.652344 94.109375 30.652344 C 94.109375 30.652344 93.855469 30.769531 93.835938 30.652344 C 93.820312 30.53125 94.597656 27.847656 94.597656 27.847656 C 94.597656 27.847656 94.734375 26.511719 94.734375 26.15625 C 94.734375 25.800781 94.664062 25.3125 94.664062 25.3125 C 94.664062 25.3125 93.972656 25.019531 93.957031 24.570312 C 93.890625 23.851562 94.613281 23.453125 94.699219 23.21875 C 94.785156 22.980469 95.039062 22.269531 95.039062 22.269531 C 95.039062 22.269531 95.410156 21.628906 96.015625 21.527344 Z M 96.015625 21.527344 "/>
<path style="fill-rule:evenodd;fill:rgb(96.861267%,77.645874%,0%);fill-opacity:1;stroke-width:1;stroke-linecap:square;stroke-linejoin:miter;stroke:rgb(0%,0%,0%);stroke-opacity:1;stroke-miterlimit:3.25;" d="M 95.765625 42.984375 C 95.765625 42.984375 94.125 43.847656 93.886719 43.914062 C 93.652344 43.980469 93.5 43.628906 93.734375 43.558594 C 93.972656 43.492188 94.34375 43.457031 94.34375 43.457031 C 94.34375 43.457031 93.785156 43.019531 93.804688 43.003906 C 93.820312 42.984375 94.5625 42.714844 94.582031 42.714844 C 94.597656 42.714844 94.816406 43.15625 94.96875 43.121094 C 95.121094 43.085938 95.5625 42.75 95.5625 42.75 C 95.5625 42.75 95.796875 43.019531 95.765625 42.984375 Z M 95.765625 42.984375 "/>
<path style="fill-rule:evenodd;fill:rgb(99.998474%,77.645874%,70.979309%);fill-opacity:1;stroke-width:1;stroke-linecap:square;stroke-linejoin:miter;stroke:rgb(0%,0%,0%);stroke-opacity:1;stroke-miterlimit:3.25;" d="M 98.074219 43.457031 C 98.226562 43.660156 98.289062 44.003906 98.644531 43.800781 C 98.996094 43.597656 98.460938 43.222656 98.460938 43.222656 Z M 98.074219 43.457031 "/>
<path style="fill-rule:evenodd;fill:rgb(99.998474%,77.645874%,70.979309%);fill-opacity:1;stroke-width:1;stroke-linecap:square;stroke-linejoin:miter;stroke:rgb(0%,0%,0%);stroke-opacity:1;stroke-miterlimit:3.25;" d="M 98.71875 43.425781 C 98.71875 43.425781 98.890625 43.558594 99.042969 43.40625 C 99.195312 43.253906 98.738281 42.933594 98.738281 42.933594 L 98.519531 43.1875 Z M 98.71875 43.425781 "/>
<path style="fill:none;stroke-width:1;stroke-linecap:square;stroke-linejoin:miter;stroke:rgb(0%,0%,0%);stroke-opacity:1;stroke-miterlimit:3.25;" d="M 98.214844 22.1875 C 98.214844 22.1875 96.710938 23.148438 96.742188 23.488281 "/>
<path style="fill:none;stroke-width:1;stroke-linecap:square;stroke-linejoin:miter;stroke:rgb(0%,0%,0%);stroke-opacity:1;stroke-miterlimit:3.25;" d="M 98.550781 22.355469 C 98.550781 22.355469 98.214844 22.726562 98.195312 22.726562 "/>
<path style="fill:none;stroke-width:1;stroke-linecap:square;stroke-linejoin:miter;stroke:rgb(0%,0%,0%);stroke-opacity:1;stroke-miterlimit:3.25;" d="M 99.007812 22.761719 C 99.007812 22.761719 98.265625 23.367188 98.382812 23.757812 "/>
<path style="fill:none;stroke-width:1;stroke-linecap:square;stroke-linejoin:miter;stroke:rgb(0%,0%,0%);stroke-opacity:1;stroke-miterlimit:3.25;" d="M 95.492188 22.101562 C 95.492188 22.101562 95.273438 22.558594 95.324219 22.710938 C 95.375 22.863281 95.746094 23.4375 95.796875 23.792969 C 95.847656 24.144531 95.796875 24.398438 95.796875 24.398438 "/>
<path style="fill:none;stroke-width:1;stroke-linecap:square;stroke-linejoin:miter;stroke:rgb(0%,0%,0%);stroke-opacity:1;stroke-miterlimit:3.25;" d="M 95.105469 22.945312 C 95.105469 22.945312 95.171875 23.488281 95.273438 23.589844 C 95.375 23.691406 95.644531 24.144531 95.679688 24.332031 "/>
<path style="fill:none;stroke-width:1;stroke-linecap:square;stroke-linejoin:miter;stroke:rgb(0%,0%,0%);stroke-opacity:1;stroke-miterlimit:3.25;" d="M 94.96875 25.195312 C 94.96875 25.195312 95.410156 25.414062 95.816406 24.570312 "/>
<path style="fill:none;stroke-width:1;stroke-linecap:square;stroke-linejoin:miter;stroke:rgb(0%,0%,0%);stroke-opacity:1;stroke-miterlimit:3.25;" d="M 96.472656 23.976562 C 96.457031 23.976562 96.152344 24.804688 96.691406 25.109375 C 97.234375 25.414062 97.640625 25.378906 97.875 25.296875 C 98.113281 25.210938 98.367188 25.058594 98.367188 25.058594 "/>
<path style="fill:none;stroke-width:1;stroke-linecap:square;stroke-linejoin:miter;stroke:rgb(0%,0%,0%);stroke-opacity:1;stroke-miterlimit:3.25;" d="M 96.238281 24.992188 C 96.238281 24.992188 96.269531 26.105469 97.910156 27.203125 "/>
<path style="fill:none;stroke-width:1;stroke-linecap:square;stroke-linejoin:miter;stroke:rgb(0%,0%,0%);stroke-opacity:1;stroke-miterlimit:3.25;" d="M 96.304688 26.039062 C 96.304688 26.039062 96.289062 27.019531 96.929688 27.457031 "/>
<path style="fill:none;stroke-width:1;stroke-linecap:square;stroke-linejoin:miter;stroke:rgb(0%,0%,0%);stroke-opacity:1;stroke-miterlimit:3.25;" d="M 95.964844 24.890625 C 95.964844 24.890625 95.476562 26.34375 95.089844 26.496094 "/>
<path style="fill:none;stroke-width:1;stroke-linecap:square;stroke-linejoin:miter;stroke:rgb(0%,0%,0%);stroke-opacity:1;stroke-miterlimit:3.25;" d="M 95.816406 25.953125 C 95.816406 25.953125 95.796875 27 95.664062 27.375 "/>
<path style="fill:none;stroke-width:1;stroke-linecap:square;stroke-linejoin:miter;stroke:rgb(0%,0%,0%);stroke-opacity:1;stroke-miterlimit:3.25;" d="M 95.527344 27.625 C 95.527344 27.625 95.863281 28.050781 96.238281 28.015625 C 96.609375 27.980469 96.761719 27.542969 97.015625 27.609375 C 97.265625 27.675781 97.503906 27.878906 98.09375 27.828125 "/>
<path style="fill:none;stroke-width:1;stroke-linecap:square;stroke-linejoin:miter;stroke:rgb(0%,0%,0%);stroke-opacity:1;stroke-miterlimit:3.25;" d="M 97.25 28.269531 C 97.25 28.269531 97.25 29.128906 97.402344 29.214844 C 97.554688 29.300781 97.488281 30.09375 97.488281 30.09375 "/>
<path style="fill:none;stroke-width:1;stroke-linecap:square;stroke-linejoin:miter;stroke:rgb(0%,0%,0%);stroke-opacity:1;stroke-miterlimit:3.25;" d="M 95.1875 27.863281 C 95.1875 27.863281 95.171875 28.675781 95.070312 28.960938 C 94.96875 29.25 94.765625 29.738281 94.800781 30.160156 "/>
<path style="fill:none;stroke-width:1;stroke-linecap:square;stroke-linejoin:miter;stroke:rgb(0%,0%,0%);stroke-opacity:1;stroke-miterlimit:3.25;" d="M 94.160156 30.632812 C 94.242188 30.601562 94.53125 30.347656 94.53125 30.347656 "/>
<path style="fill:none;stroke-width:1;stroke-linecap:square;stroke-linejoin:miter;stroke:rgb(0%,0%,0%);stroke-opacity:1;stroke-miterlimit:3.25;" d="M 94.683594 30.53125 C 94.683594 30.53125 93.957031 33.640625 94.160156 35.5 "/>
<path style="fill:none;stroke-width:1;stroke-linecap:square;stroke-linejoin:miter;stroke:rgb(0%,0%,0%);stroke-opacity:1;stroke-miterlimit:3.25;" d="M 94.851562 30.683594 C 94.851562 30.683594 94.480469 33.015625 94.648438 33.457031 "/>
<path style="fill:none;stroke-width:1;stroke-linecap:square;stroke-linejoin:miter;stroke:rgb(0%,0%,0%);stroke-opacity:1;stroke-miterlimit:3.25;" d="M 94.664062 30.617188 C 94.683594 30.617188 96.085938 30.71875 96.085938 30.71875 "/>
<path style="fill:none;stroke-width:1;stroke-linecap:square;stroke-linejoin:miter;stroke:rgb(0%,0%,0%);stroke-opacity:1;stroke-miterlimit:3.25;" d="M 96.289062 30.53125 C 96.289062 30.53125 96.675781 30.734375 97.21875 30.703125 "/>
<path style="fill:none;stroke-width:1;stroke-linecap:square;stroke-linejoin:miter;stroke:rgb(0%,0%,0%);stroke-opacity:1;stroke-miterlimit:3.25;" d="M 96.117188 31.664062 C 96.117188 31.664062 96.050781 35.652344 95.949219 36.53125 "/>
<path style="fill:none;stroke-width:1;stroke-linecap:square;stroke-linejoin:miter;stroke:rgb(0%,0%,0%);stroke-opacity:1;stroke-miterlimit:3.25;" d="M 98.195312 32.578125 C 98.195312 32.578125 98.636719 36.074219 98.890625 36.394531 "/>
<path style="fill:none;stroke-width:1;stroke-linecap:square;stroke-linejoin:miter;stroke:rgb(0%,0%,0%);stroke-opacity:1;stroke-miterlimit:3.25;" d="M 97.351562 33.015625 C 97.351562 33.015625 97.621094 36.109375 97.773438 36.378906 "/>
<path style="fill:none;stroke-width:1;stroke-linecap:square;stroke-linejoin:miter;stroke:rgb(0%,0%,0%);stroke-opacity:1;stroke-miterlimit:3.25;" d="M 93.515625 37.460938 C 93.515625 37.460938 94.039062 37.292969 94.511719 36.785156 C 95.054688 37.511719 95.882812 36.816406 95.882812 36.816406 C 95.882812 36.816406 97.167969 37.695312 97.742188 36.71875 C 98.621094 37.292969 99.058594 36.632812 99.058594 36.632812 C 99.058594 36.632812 99.378906 37.121094 99.617188 37.070312 "/>
<path style="fill:none;stroke-width:1;stroke-linecap:square;stroke-linejoin:miter;stroke:rgb(0%,0%,0%);stroke-opacity:1;stroke-miterlimit:3.25;" d="M 98.214844 37.410156 C 98.214844 37.410156 98.871094 40.5 99.851562 41.378906 "/>
<path style="fill:none;stroke-width:1;stroke-linecap:square;stroke-linejoin:miter;stroke:rgb(0%,0%,0%);stroke-opacity:1;stroke-miterlimit:3.25;" d="M 94.816406 37.089844 C 94.816406 37.089844 94.902344 39.671875 95.054688 41.5 "/>
<path style="fill:none;stroke-width:1;stroke-linecap:square;stroke-linejoin:miter;stroke:rgb(0%,0%,0%);stroke-opacity:1;stroke-miterlimit:3.25;" d="M 94.699219 40.011719 C 94.699219 40.011719 94.613281 41.703125 94.511719 41.820312 "/>
<path style="fill:none;stroke-width:1;stroke-linecap:square;stroke-linejoin:miter;stroke:rgb(0%,0%,0%);stroke-opacity:1;stroke-miterlimit:3.25;" d="M 93.703125 41.988281 C 93.703125 41.988281 93.886719 42.714844 94.816406 42.039062 C 95.746094 41.363281 95.765625 42.292969 95.796875 42.394531 C 95.832031 42.496094 95.984375 43.222656 96.339844 42.613281 "/>
<path style="fill:none;stroke-width:1;stroke-linecap:square;stroke-linejoin:miter;stroke:rgb(0%,0%,0%);stroke-opacity:1;stroke-miterlimit:3.25;" d="M 97.082031 41.617188 C 97.082031 41.617188 96.929688 43.121094 98.265625 42.023438 C 99.597656 40.925781 99.820312 42.003906 99.851562 42.34375 "/>
<path style="fill-rule:evenodd;fill:rgb(61.175537%,31.764221%,0%);fill-opacity:1;stroke-width:1;stroke-linecap:square;stroke-linejoin:miter;stroke:rgb(0%,0%,0%);stroke-opacity:1;stroke-miterlimit:3.25;" d="M 95.476562 18.367188 C 95.476562 18.367188 95.847656 18.417969 96.050781 18.300781 C 96.253906 18.183594 96.492188 18.132812 96.660156 18.367188 C 96.828125 18.605469 96.945312 18.585938 96.945312 18.585938 C 96.945312 18.585938 96.691406 19.210938 96.945312 19.28125 C 97.199219 19.347656 97.316406 19.347656 97.335938 19.433594 C 97.351562 19.515625 97.117188 19.703125 97.183594 19.785156 C 97.25 19.871094 97.367188 19.972656 97.386719 20.039062 C 97.402344 20.109375 97.234375 20.394531 97.285156 20.464844 C 97.335938 20.53125 97.488281 20.800781 97.589844 20.800781 C 97.691406 20.800781 97.621094 21.222656 97.925781 21.121094 C 98.230469 21.019531 98.214844 20.75 98.214844 20.75 C 98.214844 20.75 98.535156 20.699219 98.621094 20.414062 C 98.703125 20.125 98.90625 20.058594 98.90625 20.058594 C 98.90625 20.058594 99.3125 19.835938 98.769531 19.5 C 98.769531 17.132812 97.21875 17.386719 97.21875 17.386719 C 97.21875 17.386719 97.03125 16.964844 96.726562 17.015625 C 96.421875 17.066406 96.40625 17.421875 96.1875 17.386719 C 95.964844 17.355469 95.914062 17.203125 95.898438 17.21875 C 95.882812 17.234375 95.695312 17.574219 95.695312 17.65625 C 95.695312 17.742188 95.105469 17.539062 95.15625 17.980469 C 95.207031 18.417969 95.492188 18.402344 95.476562 18.367188 Z M 95.476562 18.367188 "/>
<path style="fill:none;stroke-width:1;stroke-linecap:square;stroke-linejoin:miter;stroke:rgb(0%,0%,0%);stroke-opacity:1;stroke-miterlimit:3.25;" d="M 97.097656 17.792969 C 97.097656 17.792969 96.980469 18.535156 97.773438 18.46875 C 97.671875 18.875 97.976562 19.011719 97.976562 19.011719 "/>
<path style="fill:none;stroke-width:1;stroke-linecap:square;stroke-linejoin:miter;stroke:rgb(0%,0%,0%);stroke-opacity:1;stroke-miterlimit:3.25;" d="M 98.570312 19.464844 C 98.585938 19.464844 98.921875 19.6875 98.550781 19.957031 "/>
<path style="fill:none;stroke-width:1;stroke-linecap:square;stroke-linejoin:miter;stroke:rgb(0%,0%,0%);stroke-opacity:1;stroke-miterlimit:3.25;" d="M 97.417969 20.058594 C 97.417969 20.058594 97.589844 20.261719 97.773438 20.210938 C 97.960938 20.160156 98.265625 20.394531 98.265625 20.394531 C 98.265625 20.394531 98.519531 20.480469 98.550781 20.429688 "/>
<path style="fill:none;stroke-width:1;stroke-linecap:square;stroke-linejoin:miter;stroke:rgb(0%,0%,0%);stroke-opacity:1;stroke-miterlimit:3.25;" d="M 96.390625 20.699219 C 96.390625 20.699219 96.964844 20.917969 97.335938 20.007812 "/>
<path style="fill:none;stroke-width:1;stroke-linecap:square;stroke-linejoin:miter;stroke:rgb(0%,0%,0%);stroke-opacity:1;stroke-miterlimit:3.25;" d="M 95.324219 19.738281 L 95.664062 19.753906 "/>
<path style="fill:none;stroke-width:1;stroke-linecap:square;stroke-linejoin:miter;stroke:rgb(0%,0%,0%);stroke-opacity:1;stroke-miterlimit:3.25;" d="M 95.375 20.074219 L 95.679688 20.074219 L 95.410156 20.191406 "/>
<path style="fill:none;stroke-width:1;stroke-linecap:square;stroke-linejoin:miter;stroke:rgb(0%,0%,0%);stroke-opacity:1;stroke-miterlimit:3.25;" d="M 95.796875 19.128906 C 95.847656 19.128906 96.035156 19.0625 96.066406 19.109375 C 96.101562 19.160156 95.863281 19.195312 95.796875 19.128906 "/>
<path style="fill-rule:evenodd;fill:rgb(99.998474%,77.645874%,70.979309%);fill-opacity:1;stroke-width:1;stroke-linecap:square;stroke-linejoin:miter;stroke:rgb(0%,0%,0%);stroke-opacity:1;stroke-miterlimit:3.25;" d="M 99.445312 23.140625 C 99.464844 23.140625 100.003906 24.816406 100.074219 25.238281 C 100.140625 25.660156 100.359375 27.347656 100.273438 27.585938 C 100.191406 27.824219 99.328125 28.953125 99.226562 29.242188 C 99.125 29.527344 98.519531 30.628906 98.519531 30.628906 C 98.519531 30.628906 98.367188 31.707031 98.296875 31.757812 C 98.230469 31.808594 98.472656 32.074219 98.449219 32.164062 C 98.417969 32.265625 97.960938 32.738281 97.757812 32.6875 C 97.554688 32.636719 97.234375 32.402344 97.21875 32.183594 C 97.199219 31.960938 97.234375 31.234375 97.386719 31.050781 C 97.539062 30.863281 98.332031 28.988281 98.382812 28.871094 C 98.433594 28.75 99.109375 27.28125 99.125 27.027344 C 99.144531 26.773438 98.914062 26.1875 98.675781 25.972656 C 98.144531 24.410156 98.355469 23.464844 99.445312 23.140625 Z M 99.445312 23.140625 "/>
<path style="fill:none;stroke-width:1;stroke-linecap:square;stroke-linejoin:miter;stroke:rgb(0%,0%,0%);stroke-opacity:1;stroke-miterlimit:3.25;" d="M 91.574219 30.390625 L 91.601562 31.132812 "/>
<path style="fill:none;stroke-width:1;stroke-linecap:square;stroke-linejoin:miter;stroke:rgb(0%,0%,0%);stroke-opacity:1;stroke-miterlimit:3.25;" d="M 90.882812 30.335938 C 90.882812 30.335938 91.355469 31.132812 91.316406 31.554688 "/>
<path style="fill:none;stroke-width:1;stroke-linecap:square;stroke-linejoin:miter;stroke:rgb(0%,0%,0%);stroke-opacity:1;stroke-miterlimit:3.25;" d="M 97.246094 31.996094 C 97.246094 31.996094 97.597656 31.957031 97.589844 32.550781 C 97.816406 31.816406 98.277344 31.796875 98.277344 31.796875 "/>
<path style="fill-rule:evenodd;fill:rgb(96.861267%,77.645874%,0%);fill-opacity:1;stroke-width:1;stroke-linecap:square;stroke-linejoin:miter;stroke:rgb(0%,0%,0%);stroke-opacity:1;stroke-miterlimit:3.25;" d="M 96.03125 48.914062 C 103.167969 48.71875 107.777344 43.5625 107.726562 43.515625 C 107.675781 43.464844 108.667969 42.078125 109.460938 42.273438 C 110.253906 42.472656 111.394531 44.800781 112.78125 45.296875 C 113.476562 46.386719 112.582031 47.378906 112.285156 47.578125 C 111.988281 47.773438 110.648438 48.320312 110.453125 47.527344 C 110.253906 46.734375 109.855469 46.882812 109.855469 46.882812 C 109.855469 46.882812 103.515625 53.078125 96.179688 52.828125 C 88.597656 52.878906 82.355469 46.882812 82.355469 46.882812 L 81.808594 47.476562 C 81.808594 47.476562 81.214844 48.121094 80.917969 48.074219 C 80.621094 48.023438 79.332031 47.179688 79.234375 46.339844 C 79.132812 45.496094 80.027344 44.949219 80.027344 44.949219 C 80.027344 44.949219 82.207031 43.265625 82.453125 42.375 C 82.949219 41.878906 83.890625 42.722656 83.890625 42.722656 C 83.890625 42.722656 89.640625 49.3125 96.03125 48.914062 Z M 96.03125 48.914062 "/>
<path style="fill:none;stroke-width:1;stroke-linecap:square;stroke-linejoin:miter;stroke:rgb(0%,0%,0%);stroke-opacity:1;stroke-miterlimit:3.25;" d="M 79.878906 45.082031 C 79.878906 45.082031 80.46875 44.925781 80.683594 45.171875 C 80.898438 45.417969 82.382812 46.871094 82.382812 46.871094 "/>
<path style="fill:none;stroke-width:1;stroke-linecap:square;stroke-linejoin:miter;stroke:rgb(0%,0%,0%);stroke-opacity:1;stroke-miterlimit:3.25;" d="M 81.222656 45.769531 L 80.632812 46.210938 C 80.632812 46.210938 82.117188 46.507812 81.785156 47.480469 "/>
<path style="fill:none;stroke-width:1;stroke-linecap:square;stroke-linejoin:miter;stroke:rgb(0%,0%,0%);stroke-opacity:1;stroke-miterlimit:3.25;" d="M 112.25 45.03125 C 112.25 45.03125 111.953125 44.875 111.492188 45.21875 C 111.03125 45.5625 109.859375 46.871094 109.859375 46.871094 "/>
<path style="fill:none;stroke-width:1;stroke-linecap:square;stroke-linejoin:miter;stroke:rgb(0%,0%,0%);stroke-opacity:1;stroke-miterlimit:3.25;" d="M 110.921875 45.730469 L 111.5625 46.222656 C 111.5625 46.222656 110.226562 46.3125 110.519531 47.578125 "/>
<path style=" stroke:none;fill-rule:evenodd;fill:rgb(99.998474%,99.998474%,99.998474%);fill-opacity:1;" d="M 0 0 L 0 3.578125 L 56.84375 32 L 64 32 L 64 28.421875 L 7.15625 0 Z M 64 0 L 64 3.578125 L 7.15625 32 L 0 32 L 0 28.421875 L 56.84375 0 Z M 64 0 "/>
<path style=" stroke:none;fill-rule:evenodd;fill:rgb(81.175232%,7.843018%,16.862488%);fill-opacity:1;" d="M 0 32 L 21.332031 21.332031 L 26.105469 21.332031 L 4.769531 32 Z M 0 0 L 21.332031 10.667969 L 16.5625 10.667969 L 0 2.386719 Z M 37.894531 10.667969 L 59.230469 0 L 64 0 L 42.667969 10.667969 Z M 64 32 L 42.667969 21.332031 L 47.4375 21.332031 L 64 29.613281 Z M 64 32 "/>
<path style=" stroke:none;fill-rule:evenodd;fill:rgb(0%,0%,0%);fill-opacity:1;" d="M 87.429688 46.65625 L 87.386719 46.714844 C 87.296875 46.671875 87.195312 46.664062 87.082031 46.691406 C 86.996094 46.710938 86.839844 46.792969 86.605469 46.929688 L 84.640625 48.074219 L 84.585938 48.035156 L 85.082031 45.738281 C 85.140625 45.464844 85.167969 45.292969 85.164062 45.234375 C 85.160156 45.175781 85.117188 45.113281 85.039062 45.042969 L 85.082031 44.980469 L 86.140625 45.734375 L 86.097656 45.796875 L 86.0625 45.769531 C 85.96875 45.703125 85.894531 45.667969 85.839844 45.667969 C 85.804688 45.664062 85.777344 45.679688 85.753906 45.710938 C 85.738281 45.730469 85.726562 45.757812 85.714844 45.792969 C 85.707031 45.824219 85.683594 45.914062 85.652344 46.066406 L 85.339844 47.503906 L 86.472656 46.835938 C 86.609375 46.753906 86.699219 46.695312 86.738281 46.664062 C 86.777344 46.632812 86.808594 46.605469 86.828125 46.574219 C 86.851562 46.542969 86.863281 46.507812 86.863281 46.46875 C 86.867188 46.433594 86.855469 46.394531 86.828125 46.359375 C 86.796875 46.308594 86.742188 46.253906 86.664062 46.199219 L 86.707031 46.140625 Z M 88.136719 50.066406 L 88.101562 50.132812 L 86.855469 49.453125 L 86.890625 49.386719 L 86.972656 49.429688 C 87.039062 49.46875 87.101562 49.484375 87.15625 49.484375 C 87.195312 49.484375 87.234375 49.46875 87.273438 49.4375 C 87.300781 49.417969 87.347656 49.347656 87.414062 49.226562 L 88.269531 47.664062 C 88.335938 47.542969 88.371094 47.460938 88.375 47.425781 C 88.378906 47.386719 88.367188 47.347656 88.339844 47.300781 C 88.3125 47.257812 88.269531 47.21875 88.199219 47.179688 L 88.121094 47.136719 L 88.15625 47.074219 L 89.402344 47.753906 L 89.367188 47.816406 L 89.289062 47.773438 C 89.21875 47.738281 89.15625 47.71875 89.101562 47.71875 C 89.0625 47.71875 89.023438 47.734375 88.984375 47.765625 C 88.953125 47.785156 88.90625 47.855469 88.84375 47.976562 L 87.984375 49.539062 C 87.917969 49.664062 87.882812 49.742188 87.878906 49.78125 C 87.878906 49.816406 87.890625 49.859375 87.914062 49.902344 C 87.941406 49.949219 87.992188 49.988281 88.058594 50.023438 Z M 92.679688 49 L 92.359375 49.902344 L 92.289062 49.878906 C 92.292969 49.601562 92.234375 49.367188 92.113281 49.179688 C 91.988281 48.992188 91.828125 48.863281 91.628906 48.792969 C 91.4375 48.722656 91.257812 48.722656 91.09375 48.785156 C 90.929688 48.847656 90.785156 48.964844 90.664062 49.136719 C 90.542969 49.308594 90.445312 49.496094 90.375 49.699219 C 90.289062 49.945312 90.238281 50.171875 90.230469 50.375 C 90.222656 50.582031 90.269531 50.75 90.367188 50.882812 C 90.464844 51.015625 90.601562 51.113281 90.78125 51.175781 C 90.839844 51.195312 90.90625 51.214844 90.972656 51.222656 C 91.042969 51.234375 91.117188 51.238281 91.195312 51.234375 L 91.382812 50.703125 C 91.421875 50.605469 91.4375 50.539062 91.433594 50.503906 C 91.429688 50.46875 91.410156 50.429688 91.375 50.390625 C 91.339844 50.351562 91.292969 50.320312 91.230469 50.300781 L 91.164062 50.277344 L 91.191406 50.207031 L 92.433594 50.648438 L 92.40625 50.71875 C 92.308594 50.691406 92.238281 50.679688 92.195312 50.6875 C 92.152344 50.695312 92.113281 50.714844 92.074219 50.753906 C 92.054688 50.773438 92.03125 50.832031 91.996094 50.921875 L 91.808594 51.453125 C 91.617188 51.46875 91.429688 51.464844 91.238281 51.4375 C 91.050781 51.410156 90.859375 51.367188 90.671875 51.296875 C 90.425781 51.210938 90.238281 51.105469 90.101562 50.984375 C 89.964844 50.859375 89.855469 50.722656 89.769531 50.574219 C 89.683594 50.421875 89.632812 50.265625 89.613281 50.109375 C 89.585938 49.902344 89.609375 49.691406 89.6875 49.480469 C 89.824219 49.09375 90.074219 48.816406 90.4375 48.648438 C 90.804688 48.480469 91.191406 48.46875 91.601562 48.613281 C 91.726562 48.660156 91.835938 48.710938 91.933594 48.765625 C 91.984375 48.796875 92.0625 48.855469 92.167969 48.949219 C 92.277344 49.039062 92.34375 49.089844 92.363281 49.097656 C 92.398438 49.109375 92.4375 49.109375 92.476562 49.09375 C 92.515625 49.078125 92.5625 49.039062 92.609375 48.976562 Z M 94.597656 52.074219 L 94.585938 52.148438 L 93.183594 51.9375 L 93.195312 51.863281 L 93.28125 51.875 C 93.359375 51.886719 93.425781 51.882812 93.476562 51.863281 C 93.515625 51.847656 93.546875 51.820312 93.570312 51.78125 C 93.589844 51.75 93.609375 51.667969 93.628906 51.535156 L 93.898438 49.769531 C 93.917969 49.632812 93.921875 49.546875 93.914062 49.511719 C 93.90625 49.472656 93.878906 49.4375 93.839844 49.40625 C 93.800781 49.375 93.742188 49.351562 93.667969 49.339844 L 93.578125 49.328125 L 93.589844 49.253906 L 94.992188 49.464844 L 94.980469 49.539062 L 94.890625 49.527344 C 94.8125 49.515625 94.75 49.519531 94.695312 49.539062 C 94.660156 49.550781 94.628906 49.582031 94.601562 49.621094 C 94.582031 49.652344 94.5625 49.734375 94.542969 49.867188 L 94.273438 51.632812 C 94.253906 51.769531 94.25 51.855469 94.257812 51.890625 C 94.269531 51.929688 94.292969 51.964844 94.332031 51.996094 C 94.375 52.027344 94.433594 52.050781 94.507812 52.0625 Z M 98.234375 51.191406 L 98.183594 52.148438 L 95.777344 52.269531 L 95.773438 52.195312 L 95.863281 52.191406 C 95.941406 52.1875 96.003906 52.167969 96.050781 52.140625 C 96.085938 52.117188 96.109375 52.085938 96.125 52.039062 C 96.136719 52.007812 96.140625 51.921875 96.132812 51.785156 L 96.042969 50.003906 C 96.035156 49.867188 96.023438 49.78125 96.007812 49.746094 C 95.992188 49.710938 95.960938 49.683594 95.914062 49.660156 C 95.867188 49.636719 95.808594 49.625 95.730469 49.628906 L 95.640625 49.636719 L 95.640625 49.5625 L 97.082031 49.488281 L 97.085938 49.5625 L 96.96875 49.566406 C 96.890625 49.570312 96.828125 49.589844 96.78125 49.617188 C 96.746094 49.640625 96.722656 49.671875 96.703125 49.71875 C 96.691406 49.75 96.6875 49.835938 96.695312 49.972656 L 96.78125 51.699219 C 96.789062 51.835938 96.800781 51.925781 96.820312 51.960938 C 96.839844 52 96.871094 52.023438 96.917969 52.039062 C 96.953125 52.050781 97.035156 52.054688 97.160156 52.046875 L 97.386719 52.035156 C 97.53125 52.027344 97.648438 51.996094 97.742188 51.941406 C 97.835938 51.886719 97.914062 51.800781 97.976562 51.6875 C 98.042969 51.574219 98.101562 51.410156 98.152344 51.195312 Z M 100.867188 50.734375 L 99.949219 51.007812 L 99.914062 51.292969 C 99.902344 51.390625 99.90625 51.464844 99.921875 51.519531 C 99.945312 51.59375 99.988281 51.636719 100.058594 51.652344 C 100.101562 51.664062 100.1875 51.652344 100.328125 51.625 L 100.347656 51.695312 L 99.484375 51.953125 L 99.464844 51.882812 C 99.550781 51.839844 99.617188 51.777344 99.660156 51.699219 C 99.699219 51.617188 99.734375 51.464844 99.765625 51.238281 L 100.074219 48.886719 L 100.109375 48.875 L 101.683594 50.726562 C 101.832031 50.902344 101.945312 51.007812 102.019531 51.042969 C 102.074219 51.070312 102.140625 51.074219 102.222656 51.058594 L 102.246094 51.128906 L 100.988281 51.503906 L 100.964844 51.433594 L 101.019531 51.417969 C 101.117188 51.386719 101.183594 51.351562 101.21875 51.3125 C 101.238281 51.28125 101.246094 51.25 101.234375 51.210938 C 101.226562 51.1875 101.214844 51.164062 101.199219 51.144531 C 101.195312 51.132812 101.160156 51.089844 101.101562 51.015625 Z M 100.757812 50.613281 L 100.105469 49.832031 L 99.972656 50.847656 Z M 104.222656 47.082031 L 104.570312 47.726562 L 104.507812 47.761719 C 104.390625 47.632812 104.292969 47.546875 104.210938 47.507812 C 104.128906 47.464844 104.039062 47.449219 103.9375 47.453125 C 103.882812 47.457031 103.796875 47.488281 103.6875 47.546875 L 103.507812 47.640625 L 104.5 49.484375 C 104.566406 49.605469 104.613281 49.679688 104.640625 49.703125 C 104.671875 49.726562 104.714844 49.738281 104.765625 49.742188 C 104.816406 49.742188 104.875 49.726562 104.945312 49.6875 L 105.023438 49.644531 L 105.058594 49.710938 L 103.808594 50.382812 L 103.773438 50.316406 L 103.851562 50.273438 C 103.921875 50.238281 103.972656 50.195312 104 50.148438 C 104.023438 50.117188 104.03125 50.074219 104.027344 50.023438 C 104.023438 49.988281 103.992188 49.914062 103.925781 49.792969 L 102.9375 47.949219 L 102.761719 48.042969 C 102.601562 48.128906 102.503906 48.226562 102.46875 48.332031 C 102.417969 48.484375 102.425781 48.652344 102.492188 48.84375 L 102.425781 48.878906 L 102.078125 48.234375 Z M 105.851562 46.117188 L 106.515625 46.996094 L 106.558594 46.964844 C 106.695312 46.859375 106.761719 46.742188 106.761719 46.609375 C 106.757812 46.476562 106.699219 46.320312 106.589844 46.140625 L 106.652344 46.09375 L 107.507812 47.226562 L 107.445312 47.273438 C 107.339844 47.160156 107.234375 47.078125 107.136719 47.03125 C 107.035156 46.984375 106.949219 46.964844 106.875 46.980469 C 106.796875 46.992188 106.710938 47.039062 106.605469 47.117188 L 107.066406 47.726562 C 107.15625 47.847656 107.214844 47.914062 107.246094 47.933594 C 107.277344 47.953125 107.3125 47.960938 107.351562 47.957031 C 107.394531 47.953125 107.445312 47.929688 107.503906 47.882812 L 107.636719 47.785156 C 107.835938 47.632812 107.964844 47.460938 108.015625 47.277344 C 108.066406 47.089844 108.046875 46.882812 107.957031 46.652344 L 108.015625 46.605469 L 108.4375 47.367188 L 106.566406 48.777344 L 106.519531 48.71875 L 106.59375 48.664062 C 106.65625 48.617188 106.695312 48.570312 106.71875 48.519531 C 106.734375 48.480469 106.738281 48.441406 106.722656 48.394531 C 106.714844 48.359375 106.671875 48.289062 106.589844 48.179688 L 105.515625 46.753906 C 105.441406 46.65625 105.394531 46.597656 105.371094 46.582031 C 105.332031 46.550781 105.292969 46.535156 105.246094 46.539062 C 105.183594 46.539062 105.117188 46.566406 105.046875 46.617188 L 104.976562 46.671875 L 104.929688 46.613281 L 106.742188 45.246094 L 107.226562 45.886719 L 107.164062 45.933594 C 107.015625 45.800781 106.886719 45.71875 106.78125 45.695312 C 106.675781 45.667969 106.558594 45.679688 106.429688 45.722656 C 106.355469 45.75 106.238281 45.824219 106.074219 45.949219 Z M 105.851562 46.117188 "/>
<path style="fill:none;stroke-width:1;stroke-linecap:square;stroke-linejoin:miter;stroke:rgb(0%,0%,0%);stroke-opacity:1;stroke-miterlimit:3.25;" d="M 83.050781 46.859375 C 91.914062 54.046875 100.601562 54.179688 109.105469 46.859375 "/>
<path style="fill-rule:nonzero;fill:rgb(99.998474%,99.998474%,99.998474%);fill-opacity:1;stroke-width:1;stroke-linecap:square;stroke-linejoin:miter;stroke:rgb(99.998474%,99.998474%,99.998474%);stroke-opacity:1;stroke-miterlimit:3.25;" d="M 26.667969 0 L 26.667969 32 L 37.332031 32 L 37.332031 0 Z M 26.667969 0 "/>
<path style="fill-rule:nonzero;fill:rgb(99.998474%,99.998474%,99.998474%);fill-opacity:1;stroke-width:1;stroke-linecap:square;stroke-linejoin:miter;stroke:rgb(99.998474%,99.998474%,99.998474%);stroke-opacity:1;stroke-miterlimit:3.25;" d="M 0 10.667969 L 0 21.332031 L 64 21.332031 L 64 10.667969 Z M 0 10.667969 "/>
<path style="fill-rule:nonzero;fill:rgb(81.175232%,7.843018%,16.862488%);fill-opacity:1;stroke-width:1;stroke-linecap:square;stroke-linejoin:miter;stroke:rgb(81.175232%,7.843018%,16.862488%);stroke-opacity:1;stroke-miterlimit:3.25;" d="M 28.800781 0 L 28.800781 32 L 35.199219 32 L 35.199219 0 Z M 28.800781 0 "/>
<path style="fill-rule:nonzero;fill:rgb(81.175232%,7.843018%,16.862488%);fill-opacity:1;stroke-width:1;stroke-linecap:square;stroke-linejoin:miter;stroke:rgb(81.175232%,7.843018%,16.862488%);stroke-opacity:1;stroke-miterlimit:3.25;" d="M 0 12.800781 L 0 19.199219 L 64 19.199219 L 64 12.800781 Z M 0 12.800781 "/>
</g>
</svg>
