<svg viewBox="0 0 1000 500" xmlns="http://www.w3.org/2000/svg"><path d="m0 0h1000v500h-1000z" fill="#00247d"/><path d="m1000 500v-500h-1000v500zm0 0" fill="none" stroke="#00247d" stroke-linecap="square" stroke-miterlimit="3.239307"/><path d="m646.882812 120.054688 208.667969-.773438-.386719 185.828125s7.355469 28.261719-87.492187 71.234375c34.066406-3.484375 71.230469-39.875 71.230469-39.875s15.101562-19.359375 22.457031-8.519531c7.355469 10.839843 14.324219 16.261719 19.742187 20.519531 5.421876 4.257812 9.679688 15.871094 1.550782 24.390625-8.132813 8.515625-20.90625 9.675781-24.390625-.777344-5.421875 2.710938-38.714844 42.972657-106.851563 44.910157-69.296875-1.160157-107.238281-45.296876-107.238281-45.296876s-9.289063 14.710938-22.453125 3.097657c-12.773438-15.097657-3.097656-24.777344-3.097656-24.777344s10.839844-6.191406 13.9375-10.453125c5.035156-5.804688 6.582031-13.546875 15.097656-13.546875 10.066406.773437 13.9375 8.902344 13.9375 8.902344s34.84375 36.777343 72.394531 41.425781c-84.78125-40.652344-87.878906-65.816406-87.492187-72.007812zm0 0" fill="#fff" fill-rule="evenodd"/><g stroke-linecap="square" stroke-miterlimit="3.25"><path d="m651.917969 125.089844 198.988281-1.160156v178.855468c.386719 23.230469-38.714844 46.84375-99.882812 77.042969-63.101563-32.523437-99.496094-52.265625-99.882813-77.429687zm0 0" fill="#006129" fill-rule="evenodd" stroke="#000"/><path d="m675.84375 322.167969 11.746094-17.25 11.800781 17.285156" fill="none" stroke="#f7c600"/><path d="m691.746094 317c0 1.289062-1.042969 2.332031-2.332032 2.332031-1.289062 0-2.332031-1.042969-2.332031-2.332031s1.042969-2.335938 2.332031-2.335938c1.289063 0 2.332032 1.046876 2.332032 2.335938zm0 0" fill="#f7c600" fill-rule="evenodd" stroke="#000"/><path d="m678.050781 334.910156 18.210938.050782s.285156-2.363282-1.902344-3.800782c9.539063-1.308594 7.058594-9.722656 15.046875-10.199218 1.550781.238281-4.171875 3.578124-4.171875 3.578124s-4.816406 3.398438-2.625 5.125c1.742187 1.371094 2.503906-.835937 2.742187-2.503906.238282-1.667968 7.75-2.742187 6.679688-7.511718-1.789062-3.933594-12.28125 2.625-12.28125 2.625l-7.484375-.042969c-.46875-.839844-2.53125-4.207031-4.660156-4.222657-2.527344.089844-4.308594 4.265626-4.308594 4.265626h-16.929687s-.582032 4.34375 8.003906 5.175781c1.933594 2.527343 3.429687 3.230469 5.109375 3.882812-1.117188.933594-1.433594 2.0625-1.429688 3.578125zm0 0" fill="#f7c600" fill-rule="evenodd" stroke="#000"/><path d="m679.363281 331.214844 15.167969-.050782" fill="none" stroke="#000"/><path d="m672.417969 322.269531s1.210937 7.097657 6.8125 8.777344" fill="none" stroke="#000"/><path d="m671.484375 322.179688c.558594-2.707032 1.585937-3.175782 2.707031-6.628907.183594-3.359375-2.707031-2.988281-1.867187-5.132812 1.492187-2.332031.746093-4.574219-2.054688-6.347657.558594 3.082032-3.640625 5.972657-3.640625 8.492188 0 2.523438 2.148438 1.960938 1.867188 5.789062.1875 2.238282-.558594 1.679688-.746094 3.828126z" fill="none" stroke="#000"/><path d="m689.78125 305.242188c0 1.1875-.960938 2.148437-2.148438 2.148437-1.183593 0-2.144531-.960937-2.144531-2.148437 0-1.183594.960938-2.144532 2.144531-2.144532 1.1875 0 2.148438.960938 2.148438 2.144532zm0 0" fill="#f7c600" fill-rule="evenodd" stroke="#000"/><path d="m675.183594 286.660156 11.746094-17.25 11.800781 17.285156" fill="none" stroke="#f7c600"/><path d="m691.085938 281.492188c0 1.285156-1.042969 2.332031-2.332032 2.332031-1.289062 0-2.332031-1.046875-2.332031-2.332031 0-1.289063 1.042969-2.335938 2.332031-2.335938 1.289063 0 2.332032 1.046875 2.332032 2.335938zm0 0" fill="#f7c600" fill-rule="evenodd" stroke="#000"/><path d="m677.390625 299.402344 18.210937.050781s.285157-2.363281-1.902343-3.800781c9.539062-1.308594 7.058593-9.722656 15.046875-10.199219 1.550781.238281-4.171875 3.578125-4.171875 3.578125s-4.816407 3.398438-2.621094 5.125c1.738281 1.371094 2.5-.835938 2.738281-2.503906.242188-1.667969 7.75-2.742188 6.679688-7.511719-1.789063-3.933594-12.28125 2.625-12.28125 2.625l-7.484375-.042969c-.46875-.839844-2.53125-4.210937-4.660157-4.226562-2.527343.09375-4.308593 4.269531-4.308593 4.269531h-16.929688s-.578125 4.34375 8.003907 5.175781c1.933593 2.523438 3.429687 3.230469 5.109374 3.882813-1.117187.933593-1.433593 2.0625-1.429687 3.578125zm0 0" fill="#f7c600" fill-rule="evenodd" stroke="#000"/><path d="m678.703125 295.707031 15.167969-.054687" fill="none" stroke="#000"/><path d="m671.757812 286.761719s1.210938 7.09375 6.8125 8.777343" fill="none" stroke="#000"/><path d="m670.824219 286.671875c.558593-2.707031 1.585937-3.175781 2.707031-6.628906.183594-3.359375-2.707031-2.988281-1.867188-5.132813 1.492188-2.335937.746094-4.574218-2.054687-6.347656.558594 3.082031-3.640625 5.972656-3.640625 8.492188 0 2.523437 2.148438 1.960937 1.867188 5.789062.1875 2.238281-.558594 1.679688-.746094 3.828125z" fill="none" stroke="#000"/><path d="m689.121094 269.734375c0 1.1875-.960938 2.148437-2.148438 2.148437-1.183594 0-2.144531-.960937-2.144531-2.148437 0-1.183594.960937-2.144531 2.144531-2.144531 1.1875 0 2.148438.960937 2.148438 2.144531zm0 0" fill="#f7c600" fill-rule="evenodd" stroke="#000"/><path d="m799.960938 254.382812 11.746093-17.25 11.804688 17.285157" fill="none" stroke="#f7c600"/><path d="m815.863281 249.214844c0 1.285156-1.042969 2.332031-2.332031 2.332031s-2.332031-1.046875-2.332031-2.332031c0-1.289063 1.042969-2.335938 2.332031-2.335938s2.332031 1.046875 2.332031 2.335938zm0 0" fill="#f7c600" fill-rule="evenodd" stroke="#000"/><path d="m802.167969 267.125 18.210937.050781s.285156-2.363281-1.902344-3.800781c9.539063-1.308594 7.0625-9.722656 15.050782-10.199219 1.546875.238281-4.175782 3.578125-4.175782 3.578125s-4.816406 3.398438-2.621093 5.125c1.742187 1.371094 2.503906-.835937 2.742187-2.503906.238282-1.667969 7.75-2.742188 6.675782-7.511719-1.789063-3.933593-12.28125 2.625-12.28125 2.625l-7.484376-.042969c-.464843-.839843-2.527343-4.207031-4.660156-4.222656-2.527344.089844-4.308594 4.265625-4.308594 4.265625h-16.929687s-.578125 4.34375 8.003906 5.175781c1.933594 2.523438 3.433594 3.230469 5.113281 3.882813-1.121093.933594-1.4375 2.0625-1.433593 3.578125zm0 0" fill="#f7c600" fill-rule="evenodd" stroke="#000"/><path d="m803.480469 263.429688 15.167969-.054688" fill="none" stroke="#000"/><path d="m796.535156 254.484375s1.210938 7.09375 6.8125 8.777344" fill="none" stroke="#000"/><path d="m795.601562 254.394531c.558594-2.707031 1.585938-3.175781 2.707032-6.628906.1875-3.359375-2.707032-2.988281-1.867188-5.132813 1.492188-2.332031.746094-4.574218-2.054687-6.347656.5625 3.082032-3.640625 5.972656-3.640625 8.492188 0 2.523437 2.148437 1.960937 1.867187 5.789062.1875 2.238282-.558593 1.679688-.746093 3.828125z" fill="none" stroke="#000"/><path d="m813.898438 237.457031c0 1.1875-.960938 2.148438-2.144532 2.148438-1.1875 0-2.148437-.960938-2.148437-2.148438 0-1.183593.960937-2.144531 2.148437-2.144531 1.183594 0 2.144532.960938 2.144532 2.144531zm0 0" fill="#f7c600" fill-rule="evenodd" stroke="#000"/><path d="m678.085938 219.867188 11.746093-17.25 11.804688 17.289062" fill="none" stroke="#f7c600"/><path d="m693.988281 214.699219c.003907 1.289062-1.042969 2.332031-2.332031 2.332031s-2.332031-1.042969-2.332031-2.332031c0-1.289063 1.042969-2.335938 2.332031-2.335938s2.335938 1.046875 2.332031 2.335938zm0 0" fill="#f7c600" fill-rule="evenodd" stroke="#000"/><path d="m680.296875 232.609375 18.207031.050781s.285156-2.363281-1.902344-3.796875c9.539063-1.3125 7.0625-9.726562 15.050782-10.203125 1.546875.238282-4.175782 3.578125-4.175782 3.578125s-4.816406 3.398438-2.621093 5.125c1.742187 1.371094 2.503906-.835937 2.742187-2.503906.238282-1.667969 7.75-2.742187 6.675782-7.511719-1.789063-3.933594-12.28125 2.625-12.28125 2.625l-7.484376-.042968c-.464843-.839844-2.527343-4.207032-4.660156-4.222657-2.527344.089844-4.304687 4.265625-4.304687 4.265625h-16.929688s-.582031 4.34375 8 5.175782c1.933594 2.527343 3.433594 3.230468 5.113281 3.882812-1.121093.933594-1.4375 2.0625-1.429687 3.578125zm0 0" fill="#f7c600" fill-rule="evenodd" stroke="#000"/><path d="m681.605469 228.914062 15.167969-.050781" fill="none" stroke="#000"/><path d="m674.660156 219.972656s1.214844 7.09375 6.8125 8.773438" fill="none" stroke="#000"/><path d="m673.726562 219.878906c.558594-2.707031 1.585938-3.175781 2.707032-6.628906.1875-3.359375-2.707032-2.984375-1.867188-5.132812 1.492188-2.332032.746094-4.574219-2.054687-6.347657.5625 3.082031-3.636719 5.972657-3.636719 8.496094 0 2.519531 2.144531 1.957031 1.863281 5.785156.1875 2.242188-.558593 1.679688-.746093 3.828125z" fill="none" stroke="#000"/><path d="m692.023438 202.941406c0 1.1875-.960938 2.148438-2.144532 2.148438-1.1875 0-2.148437-.960938-2.148437-2.148438 0-1.183594.960937-2.144531 2.148437-2.144531 1.183594 0 2.144532.960937 2.144532 2.144531zm0 0" fill="#f7c600" fill-rule="evenodd" stroke="#000"/><path d="m678.351562 185.945312 11.746094-17.253906 11.800782 17.289063" fill="none" stroke="#f7c600"/><path d="m694.253906 180.773438c0 1.289062-1.042968 2.332031-2.332031 2.332031s-2.332031-1.042969-2.332031-2.332031c0-1.289063 1.042968-2.332032 2.332031-2.332032s2.332031 1.042969 2.332031 2.332032zm0 0" fill="#f7c600" fill-rule="evenodd" stroke="#000"/><path d="m680.558594 198.683594 18.210937.054687s.285157-2.363281-1.902343-3.800781c9.539062-1.3125 7.058593-9.722656 15.046874-10.203125 1.550782.242187-4.171874 3.578125-4.171874 3.578125s-4.816407 3.398438-2.621094 5.125c1.738281 1.375 2.5-.832031 2.742187-2.5.238281-1.671875 7.746094-2.742188 6.675781-7.511719-1.789062-3.933593-12.28125 2.621094-12.28125 2.621094l-7.484374-.039063c-.46875-.84375-2.53125-4.210937-4.660157-4.226562-2.527343.09375-4.308593 4.265625-4.308593 4.265625h-16.929688s-.578125 4.34375 8.003906 5.179687c1.933594 2.523438 3.429688 3.230469 5.109375 3.882813-1.117187.933594-1.433593 2.0625-1.429687 3.574219zm0 0" fill="#f7c600" fill-rule="evenodd" stroke="#000"/><path d="m681.871094 194.988281 15.167968-.050781" fill="none" stroke="#000"/><path d="m674.925781 186.046875s1.210938 7.09375 6.8125 8.773437" fill="none" stroke="#000"/><path d="m673.992188 185.953125c.558593-2.707031 1.585937-3.171875 2.707031-6.625.183593-3.363281-2.707031-2.988281-1.867188-5.136719 1.492188-2.332031.746094-4.570312-2.054687-6.34375.558594 3.078125-3.640625 5.972656-3.640625 8.492188 0 2.519531 2.148437 1.960937 1.867187 5.785156.1875 2.242188-.558594 1.683594-.746094 3.828125z" fill="none" stroke="#000"/><path d="m692.289062 169.019531c0 1.183594-.960937 2.144531-2.148437 2.144531-1.183594 0-2.144531-.960937-2.144531-2.144531 0-1.1875.960937-2.148437 2.144531-2.148437 1.1875 0 2.148437.960937 2.148437 2.148437zm0 0" fill="#f7c600" fill-rule="evenodd" stroke="#000"/><path d="m678.996094 151.523438 11.746094-17.25 11.800781 17.285156" fill="none" stroke="#f7c600"/><path d="m694.898438 146.355469c0 1.289062-1.042969 2.332031-2.332032 2.332031-1.289062 0-2.335937-1.042969-2.332031-2.332031-.003906-1.289063 1.042969-2.335938 2.332031-2.335938 1.289063 0 2.332032 1.046875 2.332032 2.335938zm0 0" fill="#f7c600" fill-rule="evenodd" stroke="#000"/><path d="m681.203125 164.265625 18.210937.050781s.285157-2.363281-1.902343-3.796875c9.535156-1.3125 7.058593-9.726562 15.046875-10.203125 1.550781.238282-4.171875 3.578125-4.171875 3.578125s-4.816407 3.398438-2.625 5.125c1.742187 1.371094 2.503906-.835937 2.742187-2.503906.238282-1.667969 7.75-2.742187 6.679688-7.511719-1.789063-3.933594-12.28125 2.625-12.28125 2.625l-7.484375-.042968c-.46875-.839844-2.53125-4.207032-4.660157-4.222657-2.527343.089844-4.308593 4.265625-4.308593 4.265625h-16.929688s-.582031 4.34375 8.003907 5.175782c1.933593 2.527343 3.429687 3.230468 5.109374 3.882812-1.117187.933594-1.433593 2.0625-1.429687 3.578125zm0 0" fill="#f7c600" fill-rule="evenodd" stroke="#000"/><path d="m682.515625 160.570312 15.167969-.050781" fill="none" stroke="#000"/><path d="m675.566406 151.628906s1.214844 7.09375 6.816406 8.773438" fill="none" stroke="#000"/><path d="m674.632812 151.535156c.5625-2.707031 1.589844-3.175781 2.707032-6.628906.1875-3.359375-2.707032-2.984375-1.863282-5.132812 1.492188-2.332032.746094-4.574219-2.054687-6.347657.558594 3.082031-3.640625 5.972657-3.640625 8.496094 0 2.519531 2.148438 1.957031 1.867188 5.785156.1875 2.238281-.5625 1.679688-.746094 3.828125z" fill="none" stroke="#000"/><path d="m692.933594 134.597656c0 1.1875-.960938 2.148438-2.148438 2.148438-1.183594 0-2.144531-.960938-2.144531-2.148438 0-1.183594.960937-2.144531 2.144531-2.144531 1.1875 0 2.148438.960937 2.148438 2.144531zm0 0" fill="#f7c600" fill-rule="evenodd" stroke="#000"/><path d="m800.894531 152.085938 11.746094-17.253907 11.804687 17.289063" fill="none" stroke="#f7c600"/><path d="m816.796875 146.914062c0 1.289063-1.042969 2.332032-2.332031 2.332032-1.289063 0-2.332032-1.042969-2.332032-2.332032 0-1.289062 1.042969-2.332031 2.332032-2.332031 1.289062 0 2.332031 1.042969 2.332031 2.332031zm0 0" fill="#f7c600" fill-rule="evenodd" stroke="#000"/><path d="m803.101562 164.824219 18.210938.054687s.285156-2.363281-1.902344-3.800781c9.539063-1.3125 7.0625-9.726563 15.046875-10.203125 1.550781.238281-4.171875 3.578125-4.171875 3.578125s-4.816406 3.398437-2.621094 5.125c1.742188 1.375 2.503907-.832031 2.742188-2.503906.238281-1.667969 7.75-2.738281 6.675781-7.507813-1.789062-3.9375-12.28125 2.621094-12.28125 2.621094l-7.484375-.042969c-.464844-.839843-2.53125-4.207031-4.660156-4.222656-2.527344.09375-4.308594 4.265625-4.308594 4.265625h-16.929687s-.578125 4.34375 8.003906 5.179688c1.933594 2.523437 3.433594 3.226562 5.113281 3.882812-1.121094.933594-1.4375 2.0625-1.433594 3.574219zm0 0" fill="#f7c600" fill-rule="evenodd" stroke="#000"/><path d="m804.414062 161.128906 15.167969-.050781" fill="none" stroke="#000"/><path d="m797.46875 152.1875s1.210938 7.09375 6.8125 8.773438" fill="none" stroke="#000"/><path d="m796.535156 152.09375c.558594-2.707031 1.585938-3.171875 2.707032-6.625.1875-3.363281-2.707032-2.988281-1.867188-5.136719 1.492188-2.332031.746094-4.570312-2.054688-6.34375.5625 3.078125-3.640624 5.972657-3.640624 8.492188s2.148437 1.960937 1.867187 5.785156c.1875 2.242187-.558594 1.683594-.746094 3.828125z" fill="none" stroke="#000"/><path d="m814.832031 135.160156c0 1.183594-.960937 2.144532-2.144531 2.144532-1.1875 0-2.148438-.960938-2.148438-2.144532 0-1.1875.960938-2.148437 2.148438-2.148437 1.183594 0 2.144531.960937 2.144531 2.148437zm0 0" fill="#f7c600" fill-rule="evenodd" stroke="#000"/><path d="m799.773438 185.871094 11.746093-17.25 11.804688 17.289062" fill="none" stroke="#f7c600"/><path d="m815.679688 180.703125c0 1.289063-1.046876 2.332031-2.335938 2.332031-1.285156 0-2.332031-1.042968-2.332031-2.332031s1.046875-2.332031 2.332031-2.332031c1.289062 0 2.335938 1.042968 2.335938 2.332031zm0 0" fill="#f7c600" fill-rule="evenodd" stroke="#000"/><path d="m801.984375 198.613281 18.207031.054688s.285156-2.363281-1.902344-3.800781c9.539063-1.3125 7.0625-9.726563 15.050782-10.203126 1.546875.238282-4.175782 3.578126-4.175782 3.578126s-4.8125 3.398437-2.621093 5.125c1.742187 1.371093 2.503906-.832032 2.742187-2.503907.238282-1.667969 7.75-2.742187 6.675782-7.507812-1.789063-3.9375-12.277344 2.621093-12.277344 2.621093l-7.488282-.042968c-.464843-.839844-2.527343-4.207032-4.660156-4.222656-2.527344.089843-4.304687 4.265624-4.304687 4.265624h-16.929688s-.582031 4.34375 8.003907 5.179688c1.929687 2.523438 3.429687 3.226562 5.109374 3.882812-1.121093.933594-1.4375 2.0625-1.429687 3.574219zm0 0" fill="#f7c600" fill-rule="evenodd" stroke="#000"/><path d="m803.292969 194.917969 15.167969-.050781" fill="none" stroke="#000"/><path d="m796.347656 185.976562s1.214844 7.09375 6.8125 8.773438" fill="none" stroke="#000"/><path d="m795.414062 185.882812c.558594-2.707031 1.585938-3.171874 2.707032-6.628906.1875-3.359375-2.707032-2.984375-1.867188-5.132812 1.492188-2.332032.746094-4.574219-2.054687-6.347656.5625 3.082031-3.636719 5.976562-3.636719 8.496093s2.144531 1.960938 1.863281 5.785157c.1875 2.242187-.558593 1.679687-.746093 3.828124z" fill="none" stroke="#000"/><path d="m813.710938 168.949219c0 1.183593-.960938 2.144531-2.144532 2.144531-1.1875 0-2.148437-.960938-2.144531-2.144531-.003906-1.1875.957031-2.148438 2.144531-2.148438 1.183594 0 2.144532.960938 2.144532 2.148438zm0 0" fill="#f7c600" fill-rule="evenodd" stroke="#000"/><path d="m798.28125 220.40625 11.746094-17.25 11.804687 17.289062" fill="none" stroke="#f7c600"/><path d="m814.183594 215.238281c0 1.289063-1.042969 2.332031-2.332032 2.332031-1.289062 0-2.332031-1.042968-2.332031-2.332031 0-1.289062 1.042969-2.332031 2.332031-2.332031 1.289063 0 2.332032 1.042969 2.332032 2.332031zm0 0" fill="#f7c600" fill-rule="evenodd" stroke="#000"/><path d="m800.488281 233.148438 18.210938.054687s.285156-2.363281-1.902344-3.800781c9.539063-1.3125 7.058594-9.726563 15.046875-10.203125 1.550781.238281-4.171875 3.578125-4.171875 3.578125s-4.816406 3.398437-2.621094 5.125c1.738281 1.371094 2.503907-.832032 2.742188-2.503906.238281-1.667969 7.75-2.742188 6.675781-7.507813-1.789062-3.9375-12.28125 2.621094-12.28125 2.621094l-7.484375-.042969c-.464844-.839844-2.53125-4.207031-4.660156-4.222656-2.527344.09375-4.308594 4.265625-4.308594 4.265625h-16.929687s-.578126 4.34375 8.003906 5.179687c1.933594 2.523438 3.433594 3.226563 5.113281 3.882813-1.121094.933593-1.4375 2.0625-1.433594 3.574219zm0 0" fill="#f7c600" fill-rule="evenodd" stroke="#000"/><path d="m801.800781 229.453125 15.167969-.050781" fill="none" stroke="#000"/><path d="m794.855469 220.511719s1.210937 7.09375 6.8125 8.773437" fill="none" stroke="#000"/><path d="m793.921875 220.417969c.558594-2.707031 1.585937-3.171875 2.707031-6.628907.1875-3.359374-2.707031-2.984374-1.867187-5.132812 1.492187-2.332031.746093-4.574219-2.054688-6.347656.5625 3.082031-3.640625 5.976562-3.640625 8.496094 0 2.519531 2.148438 1.960937 1.867188 5.785156.1875 2.242187-.558594 1.679687-.746094 3.828125z" fill="none" stroke="#000"/><path d="m812.21875 203.484375c0 1.183594-.960938 2.144531-2.148438 2.144531-1.183593 0-2.144531-.960937-2.144531-2.144531 0-1.1875.960938-2.148437 2.144531-2.148437 1.1875 0 2.148438.960937 2.148438 2.148437zm0 0" fill="#f7c600" fill-rule="evenodd" stroke="#000"/><path d="m799.773438 322.519531 11.746093-17.25 11.804688 17.285157" fill="none" stroke="#f7c600"/><path d="m813.878906 316.070312c0 1.289063-1.042968 2.332032-2.332031 2.332032s-2.332031-1.042969-2.332031-2.332032c0-1.289062 1.042968-2.332031 2.332031-2.332031s2.332031 1.042969 2.332031 2.332031zm0 0" fill="#f7c600" fill-rule="evenodd" stroke="#000"/><path d="m801.984375 335.261719 18.207031.050781s.285156-2.363281-1.902344-3.796875c9.539063-1.3125 7.0625-9.726563 15.050782-10.203125 1.546875.238281-4.175782 3.578125-4.175782 3.578125s-4.8125 3.398437-2.621093 5.125c1.742187 1.371094 2.503906-.835937 2.742187-2.503906.238282-1.667969 7.75-2.742188 6.675782-7.511719-1.789063-3.933594-12.277344 2.625-12.277344 2.625l-7.488282-.042969c-.464843-.839843-2.527343-4.207031-4.660156-4.222656-2.527344.089844-4.304687 4.265625-4.304687 4.265625h-16.929688s-.582031 4.34375 8.003907 5.175781c1.929687 2.527344 3.429687 3.230469 5.109374 3.882813-1.121093.933594-1.4375 2.0625-1.429687 3.578125zm0 0" fill="#f7c600" fill-rule="evenodd" stroke="#000"/><path d="m803.292969 331.566406 15.167969-.050781" fill="none" stroke="#000"/><path d="m796.347656 322.625s1.214844 7.09375 6.8125 8.773438" fill="none" stroke="#000"/><path d="m795.414062 322.53125c.558594-2.707031 1.585938-3.175781 2.707032-6.628906.1875-3.359375-2.707032-2.984375-1.867188-5.132813 1.492188-2.332031.746094-4.574219-2.054687-6.347656.5625 3.082031-3.636719 5.972656-3.636719 8.496094 0 2.519531 2.144531 1.957031 1.863281 5.785156.1875 2.238281-.558593 1.679687-.746093 3.828125z" fill="none" stroke="#000"/><path d="m813.691406 305.710938c0 1.183593-.960937 2.144531-2.144531 2.144531s-2.144531-.960938-2.144531-2.144531c0-1.1875.960937-2.148438 2.144531-2.148438s2.144531.960938 2.144531 2.148438zm0 0" fill="#f7c600" fill-rule="evenodd" stroke="#000"/><path d="m799.589844 288.359375 11.746094-17.25 11.800781 17.285156" fill="none" stroke="#f7c600"/><path d="m815.492188 283.1875c0 1.289062-1.046876 2.335938-2.332032 2.335938-1.289062 0-2.335937-1.046876-2.335937-2.335938s1.046875-2.332031 2.335937-2.332031c1.285156 0 2.332032 1.042969 2.332032 2.332031zm0 0" fill="#f7c600" fill-rule="evenodd" stroke="#000"/><path d="m801.796875 301.101562 18.210937.050782s.285157-2.363282-1.902343-3.800782c9.535156-1.3125 7.058593-9.722656 15.046875-10.199218 1.550781.238281-4.171875 3.574218-4.171875 3.574218s-4.816407 3.398438-2.625 5.128907c1.742187 1.371093 2.503906-.835938 2.742187-2.503907.238282-1.671874 7.75-2.742187 6.675782-7.511718-1.785157-3.933594-12.277344 2.621094-12.277344 2.621094l-7.484375-.039063c-.46875-.839844-2.53125-4.210937-4.660157-4.226563-2.527343.09375-4.308593 4.265626-4.308593 4.265626h-16.929688s-.582031 4.34375 8.003907 5.179687c1.933593 2.523437 3.429687 3.230469 5.109374 3.882813-1.121093.933593-1.433593 2.0625-1.429687 3.578124zm0 0" fill="#f7c600" fill-rule="evenodd" stroke="#000"/><path d="m803.109375 297.402344 15.164063-.050782" fill="none" stroke="#000"/><path d="m796.160156 288.460938s1.214844 7.09375 6.816406 8.773437" fill="none" stroke="#000"/><path d="m795.226562 288.367188c.5625-2.707032 1.589844-3.171876 2.707032-6.625.1875-3.359376-2.707032-2.988282-1.867188-5.132813 1.496094-2.335937.75-4.574219-2.050781-6.347656.558594 3.078125-3.640625 5.972656-3.640625 8.492187 0 2.519532 2.144531 1.960938 1.867188 5.789063.183593 2.238281-.5625 1.679687-.746094 3.824219z" fill="none" stroke="#000"/><path d="m813.523438 271.433594c.003906 1.183594-.957032 2.144531-2.144532 2.144531-1.183594 0-2.144531-.960937-2.144531-2.144531 0-1.1875.960937-2.148438 2.144531-2.148438 1.1875 0 2.148438.960938 2.144532 2.148438zm0 0" fill="#f7c600" fill-rule="evenodd" stroke="#000"/><path d="m700.351562 256.605469 11.746094-17.25 11.800782 17.289062" fill="none" stroke="#f7c600"/><path d="m716.253906 251.4375c0 1.289062-1.046875 2.332031-2.332031 2.332031-1.289063 0-2.335937-1.042969-2.335937-2.332031s1.046874-2.335938 2.335937-2.335938c1.285156 0 2.332031 1.046876 2.332031 2.335938zm0 0" fill="#f7c600" fill-rule="evenodd" stroke="#000"/><path d="m702.558594 269.347656 18.210937.050782s.285157-2.363282-1.902343-3.796876c9.535156-1.3125 7.058593-9.726562 15.046874-10.203124 1.550782.238281-4.171874 3.578124-4.171874 3.578124s-4.816407 3.398438-2.625 5.125c1.742187 1.371094 2.503906-.832031 2.742187-2.503906.238281-1.667968 7.75-2.742187 6.679687-7.511718-1.789062-3.933594-12.28125 2.625-12.28125 2.625l-7.484374-.042969c-.46875-.839844-2.53125-4.207031-4.660157-4.222657-2.527343.089844-4.308593 4.265626-4.308593 4.265626h-16.929688s-.582031 4.34375 8.003906 5.179687c1.933594 2.523437 3.429688 3.226563 5.109375 3.882813-1.117187.929687-1.433593 2.0625-1.429687 3.574218zm0 0" fill="#f7c600" fill-rule="evenodd" stroke="#000"/><path d="m703.871094 265.652344 15.167968-.050782" fill="none" stroke="#000"/><path d="m696.921875 256.710938s1.214844 7.09375 6.816406 8.773437" fill="none" stroke="#000"/><path d="m695.988281 256.617188c.5625-2.707032 1.589844-3.175782 2.707031-6.628907.1875-3.359375-2.707031-2.984375-1.863281-5.132812 1.492188-2.332031.746094-4.574219-2.054687-6.347657.558594 3.082032-3.640625 5.976563-3.640625 8.496094 0 2.519532 2.148437 1.960938 1.867187 5.785156.1875 2.242188-.5625 1.679688-.746094 3.828126z" fill="none" stroke="#000"/><path d="m714.289062 239.679688c0 1.1875-.960937 2.148437-2.148437 2.148437-1.183594 0-2.144531-.960937-2.144531-2.148437 0-1.183594.960937-2.144532 2.144531-2.144532 1.1875 0 2.148437.960938 2.148437 2.144532zm0 0" fill="#f7c600" fill-rule="evenodd" stroke="#000"/><path d="m763.203125 338.59375s4.75 10.957031 10.164063 4.226562c5.410156-6.734374 3.433593-9.636718 3.433593-9.636718l-12.144531-6.601563-3.566406 7.523438zm0 0" fill="#f7c600" fill-rule="evenodd" stroke="#000"/><path d="m773.632812 337.144531s.789063.132813 1.449219-1.058593c.660157-1.1875-1.449219-1.714844-2.375-3.035157l-1.054687 2.113281zm0 0" fill="#ffc6b5" fill-rule="evenodd" stroke="#000"/><path d="m746.175781 334.238281-10.691406 5.808594s-5.28125 1.054687-5.675781 0c-.398438-1.054687.128906-1.980469 2.902344-2.113281 2.773437-.128906 10.296874-6.996094 10.296874-6.996094zm0 0" fill="#ffc6b5" fill-rule="evenodd" stroke="#000"/><path d="m746.308594 144.289062s.261718 2.507813.394531 3.828126c.132813 1.320312-2.113281 4.09375-2.246094 3.960937-.128906-.132813-1.1875.132813-1.054687.925781.132812.789063 1.714844 1.054688 1.714844 1.054688s-.660157 2.773437 0 2.902344c.660156.132812-1.714844 3.566406 0 4.488281 1.71875.925781 4.621093 2.113281 5.941406 1.847656 1.320312-.261719 0 5.148437 0 5.148437l-3.695313 7.921876 20.328125-2.113282-4.226562-6.730468s-1.976563-1.320313-1.449219-5.148438-.265625-21.121094-.265625-21.121094l-14.519531-1.980468zm0 0" fill="#ffc6b5" fill-rule="evenodd" stroke="#000"/><path d="m742.609375 174.386719s-6.597656 3.035156-6.335937 11.21875c-1.714844 7.921875-2.640626 15.839843-2.640626 15.839843s-7.785156 8.84375-10.160156 12.011719c-2.378906 3.171875-5.941406 9.636719-7.261718 11.355469-1.320313 1.714844-6.46875 7.390625-6.335938 9.503906.132812 2.109375-1.1875 11.484375 3.960938 12.539063 1.320312.527343 5.542968-10.824219 5.542968-10.824219s.265625-4.882812-1.1875-5.808594c-1.453125-.921875 3.167969-4.089844 3.167969-4.089844s8.84375-6.46875 10.824219-8.054687c1.980468-1.582031 7.390625-7.65625 7.390625-7.65625zm0 0" fill="#ffc6b5" fill-rule="evenodd" stroke="#000"/><path d="m750.132812 168.183594s1.71875 4.621094 5.546876 3.828125c3.828124-.792969 8.316406-4.355469 8.316406-4.355469s3.5625-.132812 4.089844.394531c.527343.527344 9.636718 9.371094 9.371093 12.144531-.261719 2.773438-4.222656 1.980469-5.675781 3.828126-1.449219 1.847656-3.828125 6.46875-3.167969 9.898437.660157 3.433594 2.640625 7.921875 2.378907 9.636719-.265626 1.714844-1.71875 2.246094-1.71875 3.167968 0 .925782 1.1875 2.507813 1.1875 4.222657 0 1.71875-1.582032 4.226562-1.316407 5.941406.261719 1.714844.394531 6.730469.394531 6.730469l-.394531 23.234375s1.316407.792969 1.449219 2.113281c.132812 1.316406 8.976562 39.730469 8.976562 39.730469s-.394531 1.1875-1.320312 1.054687c-.921875-.128906 3.566406 5.941406 3.695312 7.65625.132813 1.71875 4.621094 15.179688 4.488282 17.027344-.128906 1.851562-.789063 5.941406-1.1875 6.074219-.394532.132812 2.90625 8.449219 2.375 9.769531-.527344 1.316406-5.9375 1.1875-5.9375 1.1875l-1.453125-.265625s.132812 1.714844-.921875 1.847656c-1.058594.132813-8.847656-.394531-8.847656-.394531s-2.242188 3.429688-3.5625 3.300781c-1.320313-.132812-3.035157-2.507812-3.433594-2.113281-.394532.394531 1.191406 2.640625.792968 3.300781-.394531.660157-7.128906 2.109375-8.445312-1.058593-1.320312-3.167969.789062-2.375.394531-3.035157-.394531-.660156-3.433593-2.375-4.355469-1.847656-.925781.527344 2.375 1.320313 2.242188 2.640625s-2.902344 3.300781-3.960938 3.300781c-1.054687 0-3.5625-4.886719-7.257812-4.355469-3.695312.527344-6.074219 1.449219-6.074219 1.449219s-4.355469 1.847657-6.203125 1.453125c-1.847656-.394531-2.640625-1.847656-2.640625-2.640625s1.320313-4.222656 1.191407-5.28125c-.132813-1.054687-1.191407-2.109375-1.191407-3.695312 0-1.582031 3.039063-6.996094 3.039063-6.996094l-.132813-24.285156s-2.773437 0-2.90625-1.71875c-.128906-1.714844 4.226563-38.410157 4.886719-40.789063.660156-2.375 2.375-10.820312 2.375-10.820312s-1.980469.921875-2.113281 0c-.128907-.925782 5.941406-21.914063 5.941406-21.914063s1.054687-10.429687 1.054687-13.199219c0-2.773437-.527343-6.601562-.527343-6.601562s-5.417969-2.292969-5.542969-5.808594c-.496094-5.589844 5.148438-8.710937 5.808594-10.558594.660156-1.847656 2.640625-7.390624 2.640625-7.390624s2.902343-5.015626 7.652343-5.808594zm0 0" fill="#fff" fill-rule="evenodd" stroke="#000"/><path d="m748.15625 335.824219s-12.804688 6.730469-14.652344 7.257812c-1.847656.53125-3.039062-2.242187-1.1875-2.769531 1.847656-.527344 4.75-.792969 4.75-.792969s-4.355468-3.433593-4.222656-3.5625c.132812-.132812 5.9375-2.246093 6.070312-2.246093.132813 0 1.847657 3.433593 3.035157 3.167968 1.191406-.261718 4.621093-2.902344 4.621093-2.902344s1.847657 2.109376 1.585938 1.847657zm0 0" fill="#f7c600" fill-rule="evenodd" stroke="#000"/><path d="m766.195312 339.519531c1.207032 1.5625 1.683594 4.269531 4.453126 2.683594 2.773437-1.582031-1.417969-4.523437-1.417969-4.523437zm0 0" fill="#ffc6b5" fill-rule="evenodd" stroke="#000"/><path d="m771.253906 339.253906s1.320313 1.058594 2.507813-.128906c1.1875-1.191406-2.375-3.699219-2.375-3.699219l-1.714844 1.980469zm0 0" fill="#ffc6b5" fill-rule="evenodd" stroke="#000"/><path d="m767.292969 173.332031s-11.746094 7.523438-11.480469 10.164063" fill="none" stroke="#000"/><path d="m769.933594 174.652344s-2.640625 2.902344-2.769532 2.902344" fill="none" stroke="#000"/><path d="m773.5 177.820312s-5.808594 4.75-4.886719 7.785157" fill="none" stroke="#000"/><path d="m746.042969 172.671875s-1.714844 3.5625-1.320313 4.75c.394532 1.1875 3.300782 5.675781 3.695313 8.449219.398437 2.773437 0 4.75 0 4.75" fill="none" stroke="#000"/><path d="m743.007812 179.269531s.527344 4.226563 1.320313 5.015625c.789063.792969 2.902344 4.359375 3.167969 5.808594" fill="none" stroke="#000"/><path d="m741.949219 196.828125s3.433593 1.714844 6.601562-4.886719" fill="none" stroke="#000"/><path d="m753.699219 187.324219c-.132813 0-2.507813 6.464843 1.714843 8.84375 4.226563 2.375 7.394532 2.109375 9.242188 1.449219 1.847656-.660157 3.828125-1.847657 3.828125-1.847657" fill="none" stroke="#000"/><path d="m751.851562 195.242188s.261719 8.710937 13.066407 17.292968" fill="none" stroke="#000"/><path d="m752.378906 203.425781s-.132812 7.65625 4.882813 11.089844" fill="none" stroke="#000"/><path d="m749.738281 194.449219s-3.828125 11.355469-6.863281 12.542969" fill="none" stroke="#000"/><path d="m748.550781 202.765625s-.132812 8.183594-1.1875 11.089844" fill="none" stroke="#000"/><path d="m746.308594 215.835938s2.636718 3.300781 5.542968 3.035156c2.902344-.265625 4.089844-3.695313 6.070313-3.167969s3.828125 2.113281 8.449219 1.714844" fill="none" stroke="#000"/><path d="m759.769531 220.851562s0 6.730469 1.1875 7.390626c1.191407.660156.660157 6.863281.660157 6.863281" fill="none" stroke="#000"/><path d="m743.667969 217.683594s-.132813 6.335937-.925781 8.578125c-.792969 2.246093-2.375 6.074219-2.113282 9.375" fill="none" stroke="#000"/><path d="m735.613281 239.332031c.660157-.265625 2.90625-2.246093 2.90625-2.246093" fill="none" stroke="#000"/><path d="m739.707031 238.539062s-5.675781 24.289063-4.09375 38.808594" fill="none" stroke="#000"/><path d="m741.027344 239.726562s-2.90625 18.214844-1.585938 21.648438" fill="none" stroke="#000"/><path d="m739.574219 239.199219c.132812 0 11.089843.792969 11.089843.792969" fill="none" stroke="#000"/><path d="m752.246094 238.539062s3.035156 1.582032 7.261718 1.320313" fill="none" stroke="#000"/><path d="m750.925781 247.382812s-.527343 31.152344-1.320312 38.015626" fill="none" stroke="#000"/><path d="m767.164062 254.511719s3.429688 27.324219 5.410157 29.832031" fill="none" stroke="#000"/><path d="m760.5625 257.941406s2.113281 24.15625 3.300781 26.269532" fill="none" stroke="#000"/><path d="m730.597656 292.660156s4.09375-1.320312 7.789063-5.28125c4.222656 5.675782 10.691406.265625 10.691406.265625s10.03125 6.863281 14.519531-.792969c6.863282 4.488282 10.296875-.660156 10.296875-.660156s2.507813 3.828125 4.355469 3.433594" fill="none" stroke="#000"/><path d="m767.292969 292.261719s5.148437 24.15625 12.804687 31.023437" fill="none" stroke="#000"/><path d="m740.761719 289.753906s.660156 20.199219 1.847656 34.453125" fill="none" stroke="#000"/><path d="m739.839844 312.589844s-.660156 13.203125-1.453125 14.125" fill="none" stroke="#000"/><path d="m732.050781 328.035156s1.453125 5.675782 8.710938.394532c7.261719-5.277344 7.394531 1.980468 7.65625 2.773437.265625.792969 1.453125 6.46875 4.226562 1.714844" fill="none" stroke="#000"/><path d="m758.449219 325.132812s-1.1875 11.746094 9.242187 3.167969c10.425782-8.582031 12.144532-.132812 12.40625 2.507813" fill="none" stroke="#000"/><path d="m745.910156 143.5s2.90625.394531 4.488282-.53125c1.585937-.921875 3.433593-1.316406 4.753906.53125 1.320312 1.847656 2.242187 1.714844 2.242187 1.714844s-1.980469 4.882812 0 5.410156c1.980469.53125 2.902344.53125 3.035157 1.191406.132812.660156-1.714844 2.109375-1.1875 2.769532.527343.660156 1.453124 1.453124 1.585937 1.980468.128906.527344-1.1875 2.773438-.792969 3.300782.394532.527343 1.582032 2.640624 2.375 2.640624.792969 0 .265625 3.300782 2.640625 2.507813s2.242188-2.90625 2.242188-2.90625 2.511719-.394531 3.167969-2.636719c.660156-2.246094 2.246093-2.773437 2.246093-2.773437s3.167969-1.714844-1.054687-4.355469c0-18.480469-12.144532-16.5-12.144532-16.5s-1.453124-3.300781-3.828124-2.90625c-2.375.398438-2.507813 3.167969-4.226563 2.90625-1.714844-.265625-2.109375-1.453125-2.242187-1.320312-.132813.132812-1.585938 2.769531-1.585938 3.429687s-4.617188-.921875-4.222656 2.507813c.394531 3.433593 2.640625 3.300781 2.507812 3.039062zm0 0" fill="#9c5100" fill-rule="evenodd" stroke="#000"/><path d="m758.582031 139.011719s-.921875 5.808593 5.28125 5.277343c-.792969 3.167969 1.582031 4.226563 1.582031 4.226563" fill="none" stroke="#000"/><path d="m770.066406 152.078125c.132813 0 2.773438 1.714844-.132812 3.828125" fill="none" stroke="#000"/><path d="m761.089844 156.699219s1.320312 1.582031 2.773437 1.1875 3.828125 1.453125 3.828125 1.453125 1.980469.660156 2.242188.261718" fill="none" stroke="#000"/><path d="m753.039062 161.714844s4.488282 1.714844 7.390626-5.410156" fill="none" stroke="#000"/><path d="m744.722656 154.191406 2.640625.132813" fill="none" stroke="#000"/><path d="m745.117188 156.832031h2.378906l-2.113282.921875" fill="none" stroke="#000"/><path d="m748.417969 149.4375c.398437 0 1.847656-.527344 2.113281-.128906.261719.394531-1.585938.65625-2.113281.128906" fill="none" stroke="#000"/><path d="m776.929688 180.800781c.132812 0 4.355468 13.066407 4.886718 16.367188.527344 3.300781 2.242188 16.5 1.582032 18.347656-.660157 1.847656-7.390626 10.691406-8.183594 12.9375-.792969 2.242187-5.542969 10.824219-5.542969 10.824219s-1.1875 8.445312-1.71875 8.84375c-.527344.394531 1.363281 2.46875 1.191406 3.167968-.261719.785157-3.828125 4.488282-5.414062 4.089844-1.582031-.394531-4.089844-2.242187-4.222657-3.957031-.132812-1.71875.132813-7.394531 1.320313-8.84375 1.1875-1.453125 7.390625-16.105469 7.785156-17.03125.398438-.921875 5.675781-12.40625 5.808594-14.386719.132813-1.980468-1.640625-6.558594-3.507813-8.238281-4.15625-12.226563-2.523437-19.601563 6.015626-22.121094zm0 0" fill="#ffc6b5" fill-rule="evenodd" stroke="#000"/><path d="m715.4375 237.4375.207031 5.785156" fill="none" stroke="#000"/><path d="m710.011719 237.007812s3.707031 6.203126 3.398437 9.507813" fill="none" stroke="#000"/><path d="m759.722656 249.96875s2.773438-.292969 2.683594 4.335938c1.769531-5.75 5.371094-5.886719 5.371094-5.886719" fill="none" stroke="#000"/><path d="m750.25 382.148438c55.746094-1.546876 91.75-41.808594 91.363281-42.199219-.386719-.386719 7.355469-11.226563 13.550781-9.675781 6.195313 1.546874 15.097657 19.742187 25.9375 23.613281 5.421876 8.519531-1.546874 16.261719-3.871093 17.808593-2.324219 1.550782-12.773438 5.808594-14.324219-.386718-1.546875-6.195313-4.644531-5.03125-4.644531-5.03125s-49.554688 48.390625-106.851563 46.457031c-59.230468.386719-108.011718-46.457031-108.011718-46.457031l-4.257813 4.644531s-4.644531 5.03125-6.96875 4.644531c-2.324219-.386718-12.386719-6.96875-13.164063-13.546875-.773437-6.582031 6.195313-10.839843 6.195313-10.839843s17.035156-13.164063 18.96875-20.132813c3.871094-3.871094 11.226563 2.710937 11.226563 2.710937s44.910156 51.488282 94.851562 48.390626zm0 0" fill="#f7c600" fill-rule="evenodd" stroke="#000"/><path d="m624.046875 352.203125s4.605469-1.226563 6.296875.691406c1.6875 1.921875 13.28125 13.285157 13.28125 13.285157" fill="none" stroke="#000"/><path d="m634.566406 357.578125-4.609375 3.457031s11.59375 2.300782 8.984375 9.902344" fill="none" stroke="#000"/><path d="m876.945312 351.820312s-2.300781-1.226562-5.910156 1.460938-12.746094 12.898438-12.746094 12.898438" fill="none" stroke="#000"/><path d="m866.582031 357.273438 4.992188 3.835937s-10.441407.691406-8.140625 10.597656" fill="none" stroke="#000"/></g><path d="m0 0v27.949219l444.097656 222.050781h55.902344v-27.949219l-444.097656-222.050781zm500 0v27.949219l-444.097656 222.050781h-55.902344v-27.953125l444.097656-222.046875zm0 0" fill="#fff" fill-rule="evenodd"/><path d="m0 250 166.667969-83.332031h37.265625l-166.664063 83.332031zm0-250 166.667969 83.332031h-37.269531l-129.398438-64.699219zm296.066406 83.332031 166.667969-83.332031h37.265625l-166.667969 83.332031zm203.933594 166.667969-166.667969-83.332031h37.269531l129.398438 64.699219zm0 0" fill="#cf142b" fill-rule="evenodd"/><path d="m683.054688 364.496094-.335938.472656c-.699219-.347656-1.5-.410156-2.394531-.195312-.660157.171874-1.902344.789062-3.722657 1.855468l-15.339843 8.945313-.421875-.300781 3.867187-17.933594c.464844-2.160156.679688-3.472656.636719-3.9375-.03125-.457032-.355469-.964844-.96875-1.519532l.335938-.46875 8.269531 5.898438-.335938.46875-.28125-.199219c-.746093-.53125-1.320312-.800781-1.726562-.808593-.285157-.011719-.515625.105468-.691407.351562-.109374.152344-.207031.359375-.289062.617188-.078125.253906-.242188.972656-.5 2.15625l-2.449219 11.210937 8.863281-5.214844c1.066407-.632812 1.757813-1.074219 2.074219-1.320312.316407-.25.554688-.480469.710938-.703125.183593-.253906.273437-.527344.277343-.820313.003907-.289062-.089843-.582031-.28125-.871093-.261718-.402344-.691406-.820313-1.292968-1.25l.335937-.46875zm5.507812 26.65625-.277344.507812-9.71875-5.316406.277344-.507812.617188.335937c.539062.296875 1.023437.4375 1.457031.425781.308593.003906.613281-.117187.910156-.359375.21875-.164062.585937-.710937 1.09375-1.644531l6.6875-12.226562c.519531-.953126.796875-1.574219.824219-1.867188.03125-.289062-.0625-.609375-.277344-.953125-.203125-.347656-.5625-.664063-1.085938-.949219l-.617187-.335937.277344-.507813 9.722656 5.316406-.277344.507813-.617187-.339844c-.539063-.292969-1.027344-.433593-1.460938-.421875-.308594-.003906-.617187.113282-.921875.347656-.222656.164063-.585937.714844-1.097656 1.644532l-6.6875 12.230468c-.519531.949219-.792969 1.570313-.820313 1.863282-.023437.296875.070313.621094.269532.96875.214844.34375.585937.65625 1.105468.941406zm35.507812-8.328125-2.503906 7.035156-.546875-.195313c.027344-2.15625-.4375-3.96875-1.394531-5.4375-.960938-1.472656-2.21875-2.484374-3.777344-3.039062-1.492187-.53125-2.886718-.550781-4.175781-.0625-1.289063.484375-2.40625 1.402344-3.355469 2.753906-.945312 1.355469-1.699218 2.824219-2.261718 4.402344-.683594 1.914062-1.054688 3.671875-1.117188 5.277344-.0625 1.601562.285156 2.921875 1.046875 3.953125.769531 1.039062 1.84375 1.800781 3.230469 2.296875.480468.167968.988281.296875 1.523437.375.546875.074218 1.121094.109375 1.722657.101562l1.476562-4.152344c.28125-.785156.40625-1.308593.378906-1.574218-.023437-.273438-.171875-.566406-.449218-.875-.269532-.304688-.644532-.542969-1.125-.714844l-.515626-.183594.195313-.542968 9.699219 3.453124-.191406.546876c-.753907-.214844-1.308594-.292969-1.65625-.242188-.335938.046875-.648438.21875-.929688.515625-.15625.15625-.363281.59375-.621094 1.320313l-1.476562 4.152343c-1.480469.113281-2.960938.066407-4.445313-.140625-1.480469-.195312-2.960937-.554687-4.441406-1.085937-1.894531-.671875-3.378906-1.488281-4.453125-2.445313-1.0625-.964844-1.921875-2.035156-2.585938-3.210937-.652343-1.183594-1.0625-2.398438-1.226562-3.640625-.207031-1.597656-.007812-3.234375.589844-4.914063 1.070312-3.003906 3.027344-5.164062 5.875-6.480469 2.847656-1.320312 5.871094-1.410156 9.070312-.269531.988282.351563 1.855469.746094 2.59375 1.1875.402344.234375 1.019532.707031 1.847656 1.421875.84375.710938 1.351563 1.09375 1.527344 1.160156.277344.097657.566406.089844.871094-.023437.308594-.121094.660156-.429687 1.058594-.917969zm14.960938 24.011719-.085938.570312-10.953124-1.660156.085937-.570313.695313.105469c.605468.089844 1.113281.058594 1.515624-.101562.289063-.105469.53125-.320313.730469-.648438.148438-.230469.304688-.871094.464844-1.921875l2.085937-13.78125c.164063-1.070313.207032-1.746094.136719-2.03125-.074219-.285156-.269531-.554687-.589843-.800781-.308594-.257813-.757813-.433594-1.34375-.519532l-.695313-.105468.085937-.574219 10.953126 1.660156-.085938.570313-.695312-.105469c-.609376-.089844-1.113282-.054687-1.519532.105469-.289062.101562-.535156.316406-.742187.644531-.152344.230469-.308594.871094-.464844 1.921875l-2.089844 13.777344c-.160156 1.074218-.207031 1.75-.132812 2.035156.082031.285156.277343.558594.585937.816406.320313.25.773438.417969 1.363282.507813zm28.429688-6.90625-.417969 7.464843-18.785157.960938-.03125-.578125.703126-.035156c.613281-.03125 1.101562-.167969 1.464843-.402344.265625-.160156.460938-.421875.585938-.78125.101562-.257813.125-.914063.070312-1.976563l-.707031-13.917969c-.054688-1.082031-.148438-1.757812-.277344-2.019531-.128906-.265625-.375-.488281-.738281-.667969-.351563-.191406-.828125-.269531-1.417969-.238281l-.703125.035157-.03125-.578126 11.285157-.574218.027343.574218-.921875.046876c-.613281.03125-1.101562.167968-1.464844.40625-.261718.15625-.460937.417968-.601562.78125-.101562.253906-.125.914062-.070312 1.972656l.6875 13.484375c.054687 1.082031.152343 1.769531.292968 2.066406.140625.285156.394532.488281.765625.617187.265625.078126.898438.09375 1.898438.042969l1.761719-.089843c1.125-.058594 2.050781-.300782 2.777343-.734376.730469-.433593 1.34375-1.09375 1.839844-1.972656.507813-.882812.964844-2.167968 1.367187-3.855468zm20.554687-3.566407-7.171875 2.140625-.265625 2.230469c-.082031.742187-.058594 1.328125.070313 1.757813.167968.570312.523437.921874 1.0625 1.050781.320312.082031 1.019531.003906 2.101562-.234375l.164062.554687-6.753906 2.015625-.164062-.550781c.695312-.328125 1.207031-.808594 1.527344-1.4375.320312-.636719.59375-1.835937.820312-3.585937l2.421875-18.371094.285156-.082032 12.292969 14.460938c1.171875 1.367188 2.042969 2.1875 2.613281 2.464844.429688.207031.964844.242187 1.597657.109375l.164062.554687-9.820312 2.933594-.164063-.554688.402344-.121093c.789062-.234375 1.3125-.511719 1.566406-.824219.171875-.226562.210937-.488281.121094-.789062-.054688-.179688-.136719-.355469-.253907-.527344-.046874-.082032-.308593-.414063-.785156-.988282zm-.84375-.957031-5.109375-6.089844-1.027344 7.921875zm27.078125-27.589844 2.714844 5.050782-.496094.265624c-.917969-1.007812-1.691406-1.667968-2.324219-1.980468-.632812-.320313-1.34375-.464844-2.128906-.433594-.4375.023438-1.09375.269531-1.964844.738281l-1.390625.746094 7.742188 14.394531c.511718.957032.882812 1.523438 1.113281 1.710938.238281.179687.558594.277344.957031.296875.40625.007812.875-.132813 1.40625-.417969l.621094-.332031.273438.507812-9.769532 5.253907-.273437-.507813.617187-.335937c.542969-.289063.925782-.621094 1.152344-.988282.167969-.257812.238281-.578125.210938-.964844-.019532-.273437-.277344-.878906-.78125-1.816406l-7.742188-14.394531-1.347656.726563c-1.257813.675781-2.027344 1.429687-2.308594 2.269531-.398438 1.171875-.332031 2.503906.195312 3.992187l-.523437.28125-2.714844-5.050781zm12.710938-7.535156 5.191406 6.886719.335937-.253907c1.074219-.8125 1.597657-1.734374 1.574219-2.769531-.027344-1.039062-.46875-2.265625-1.328125-3.679687l.472656-.355469 6.683594 8.855469-.476563.355468c-.824218-.886718-1.632812-1.519531-2.421874-1.890624-.78125-.375-1.460938-.507813-2.042969-.394532-.585938.101563-1.285157.457032-2.089844 1.066406l3.59375 4.765626c.703125.929687 1.171875 1.472656 1.402344 1.625.238281.144531.519531.203124.835937.171874s.714844-.226562 1.195313-.589843l1.011719-.761719c1.578124-1.191406 2.566406-2.511719 2.964843-3.960938.402344-1.453124.25-3.082031-.464843-4.894531l.460937-.347656 3.296875 5.949219-14.621094 11.027344-.347656-.460938.5625-.421875c.488281-.371094.820312-.757813.984375-1.15625.128906-.28125.144531-.605469.050781-.976563-.0625-.265624-.410156-.824218-1.050781-1.675781l-8.390625-11.125c-.578125-.765625-.953125-1.21875-1.128906-1.363281-.300782-.226562-.625-.335938-.96875-.324219-.492188.003907-1.011719.214844-1.558594.628907l-.5625.421874-.347656-.460937 14.15625-10.679687 3.773437 5.003906-.472656.355468c-1.164063-1.039062-2.167969-1.660156-3.007813-1.859374-.835937-.207032-1.746093-.132813-2.730468.21875-.578125.203124-1.507813.785156-2.789063 1.753906zm0 0" fill-rule="evenodd"/><path d="m648.84375 366.085938c69.246094 56.167968 137.117188 57.199218 203.527344 0" fill="none" stroke="#000" stroke-linecap="square" stroke-miterlimit="3.25"/><path d="m208.332031 0v250h83.335938v-250zm0 0" fill="#fff" stroke="#fff" stroke-linecap="square" stroke-miterlimit="3.25"/><path d="m0 83.335938v83.332031h500v-83.332031zm0 0" fill="#fff" stroke="#fff" stroke-linecap="square" stroke-miterlimit="3.25"/><path d="m225 0v250h50v-250zm0 0" fill="#cf142b" stroke="#cf142b" stroke-linecap="square" stroke-miterlimit="3.25"/><path d="m0 100v50h500v-50zm0 0" fill="#cf142b" stroke="#cf142b" stroke-linecap="square" stroke-miterlimit="3.25"/></svg>