<?xml version="1.0" encoding="UTF-8"?>
<svg xmlns="http://www.w3.org/2000/svg" xmlns:xlink="http://www.w3.org/1999/xlink" viewBox="0 0 1000 500" version="1.1">
<g id="surface234">
<rect x="0" y="0" width="1000" height="500" style="fill:rgb(96.861267%,87.841797%,9.01947%);fill-opacity:1;stroke:none;"/>
<path style=" stroke:none;fill-rule:evenodd;fill:rgb(99.998474%,99.998474%,99.998474%);fill-opacity:1;" d="M 1000 243.054688 L 1000 361.109375 L 0 152.777344 L 0 34.722656 Z M 1000 243.054688 "/>
<path style=" stroke:none;fill-rule:evenodd;fill:rgb(0%,0%,0%);fill-opacity:1;" d="M 1000 361.109375 L 1000 465.277344 L 0 256.945312 L 0 152.777344 Z M 1000 361.109375 "/>
<path style=" stroke:none;fill-rule:evenodd;fill:rgb(81.175232%,6.666565%,14.901733%);fill-opacity:1;" d="M 483.15625 395.636719 C 469.707031 393.855469 457.378906 389.574219 448.820312 383.710938 C 447.15625 382.574219 445.601562 381.644531 445.351562 381.644531 C 445.105469 381.644531 444.90625 382.90625 444.90625 384.46875 C 444.902344 388.898438 443.121094 391.125 438.648438 392.28125 C 434.371094 393.390625 427.847656 391.152344 422.554688 386.761719 C 417.078125 382.214844 410.75 378.746094 405.394531 377.351562 C 400.984375 376.203125 395.132812 376.386719 390.902344 377.808594 C 388.941406 378.464844 386.699219 379.398438 385.925781 379.875 C 385.148438 380.355469 384.285156 380.742188 384.007812 380.742188 C 383.253906 380.742188 383.363281 375.984375 384.148438 374.46875 C 385.179688 372.46875 387.734375 370.507812 390.699219 369.425781 C 392.199219 368.878906 393.429688 368.175781 393.429688 367.859375 C 393.429688 367.546875 392.921875 366.40625 392.304688 365.324219 C 390.289062 361.800781 391.117188 358.382812 394.628906 355.695312 C 398.230469 352.945312 404.316406 352.472656 409.703125 354.519531 C 411.058594 355.035156 412.320312 355.453125 412.507812 355.453125 C 413.210938 355.453125 412.78125 354.46875 410.835938 351.625 C 408.578125 348.332031 408.136719 346.707031 408.421875 342.792969 C 408.777344 337.828125 412.820312 333.777344 417.773438 333.417969 C 421.8125 333.125 424.328125 334.484375 430.289062 340.167969 C 448.105469 357.15625 467.476562 366.511719 490.066406 369.050781 C 495.765625 369.691406 507.234375 369.34375 513.964844 368.332031 C 534.292969 365.273438 554.773438 355.050781 570.765625 339.984375 C 575.195312 335.8125 577.324219 334.707031 580.960938 334.691406 C 584.121094 334.683594 586.332031 335.699219 588.59375 338.207031 C 590.660156 340.492188 591.359375 342.667969 591.136719 346.144531 C 590.996094 348.375 590.628906 349.46875 589.304688 351.628906 C 587.347656 354.820312 587.679688 355.117188 591.554688 353.605469 C 596.792969 351.574219 603.242188 352.511719 606.722656 355.816406 C 609.785156 358.726562 610.074219 361.636719 607.695312 365.582031 C 606.828125 367.027344 606.117188 368.382812 606.117188 368.597656 C 606.117188 368.996094 606.777344 369.179688 609.953125 369.695312 C 614.117188 370.359375 616.503906 373.453125 616.503906 378.175781 C 616.503906 379.585938 616.328125 380.742188 616.113281 380.742188 C 615.898438 380.742188 614.324219 380.167969 612.613281 379.460938 C 607.761719 377.460938 605.003906 376.941406 599.34375 376.980469 C 595.027344 377.003906 593.539062 377.210938 590.539062 378.1875 C 585.925781 379.691406 581.007812 382.59375 576.992188 386.175781 C 572.570312 390.121094 569.789062 391.363281 565.476562 391.324219 C 561.480469 391.285156 558.742188 390.125 557.296875 387.835938 C 556.527344 386.617188 556.417969 385.871094 556.601562 383.113281 C 556.726562 381.3125 556.703125 379.84375 556.550781 379.84375 C 556.402344 379.84375 554.84375 380.828125 553.089844 382.039062 C 548.484375 385.210938 545.539062 386.777344 540.261719 388.867188 C 524.164062 395.238281 500.9375 397.992188 483.15625 395.636719 Z M 483.15625 395.636719 "/>
<path style=" stroke:none;fill-rule:evenodd;fill:rgb(99.998474%,79.998779%,0%);fill-opacity:1;" d="M 557.445312 374.824219 C 560.308594 373.363281 564.0625 369.539062 565.601562 366.519531 C 566.828125 364.113281 567 363.28125 567.144531 359.070312 C 567.28125 355.183594 567.164062 354.039062 566.507812 352.746094 C 565.769531 351.296875 565.535156 351.164062 563.6875 351.164062 C 561.898438 351.164062 561.558594 351.339844 560.636719 352.703125 C 559.316406 354.660156 559.183594 358.898438 560.398438 360.394531 C 561.152344 361.332031 561.257812 361.34375 562.867188 360.671875 C 565.101562 359.742188 565.476562 359.785156 565.46875 360.988281 C 565.457031 364.054688 561.066406 369.957031 556.453125 373.105469 C 555.210938 373.953125 554.101562 374.898438 553.984375 375.210938 C 553.648438 376.085938 555.347656 375.890625 557.445312 374.824219 Z M 557.445312 374.824219 "/>
<path style=" stroke:none;fill-rule:evenodd;fill:rgb(99.998474%,83.135986%,16.470337%);fill-opacity:1;" d="M 493.78125 391.539062 C 496.554688 390.625 498.132812 388.945312 499.265625 385.710938 C 499.832031 384.097656 500.210938 382.417969 500.113281 381.984375 C 499.878906 380.949219 498.683594 381.003906 497.363281 382.109375 C 496.457031 382.859375 496.347656 383.246094 496.605469 384.78125 C 497.265625 388.675781 495.882812 389.640625 488.519531 390.429688 C 487.792969 390.507812 485.675781 390.382812 483.820312 390.152344 C 480.320312 389.714844 479.070312 390.0625 480.339844 391.117188 C 480.722656 391.4375 481.695312 391.867188 482.503906 392.074219 C 484.464844 392.574219 491.679688 392.234375 493.78125 391.539062 Z M 493.78125 391.539062 "/>
<path style=" stroke:none;fill-rule:evenodd;fill:rgb(99.998474%,83.135986%,16.470337%);fill-opacity:1;" d="M 509.039062 390.894531 C 509.457031 390.515625 510.886719 389.855469 512.21875 389.429688 C 513.996094 388.855469 514.917969 388.242188 515.664062 387.128906 C 517.824219 383.910156 517.425781 381.140625 514.25 377.402344 C 512.527344 375.375 511.761719 375.425781 510.390625 377.683594 C 509.203125 379.628906 509.230469 379.75 510.9375 380.191406 C 511.835938 380.425781 512.691406 381.082031 513.167969 381.898438 C 515.027344 385.117188 514.480469 387.113281 511.726562 387.132812 C 509.222656 387.152344 508.535156 387.507812 507.859375 389.125 C 507.511719 389.964844 507.222656 390.859375 507.222656 391.117188 C 507.222656 391.796875 508.167969 391.683594 509.039062 390.894531 Z M 509.039062 390.894531 "/>
<path style=" stroke:none;fill-rule:evenodd;fill:rgb(99.998474%,83.135986%,16.470337%);fill-opacity:1;" d="M 504.039062 387.257812 C 504.507812 385.976562 504.671875 383.679688 504.621094 378.996094 C 504.585938 375.421875 504.441406 372.390625 504.304688 372.257812 C 503.890625 371.84375 501.835938 373.164062 501.5625 374.019531 C 501.421875 374.464844 501.648438 375.492188 502.070312 376.300781 C 502.710938 377.539062 502.789062 378.699219 502.59375 383.570312 C 502.347656 389.722656 502.75 390.757812 504.039062 387.257812 Z M 504.039062 387.257812 "/>
<path style=" stroke:none;fill-rule:evenodd;fill:rgb(99.998474%,83.135986%,16.470337%);fill-opacity:1;" d="M 492.285156 384.324219 C 492.53125 383.179688 492.855469 380.835938 493 379.121094 C 493.148438 377.40625 493.496094 375.234375 493.773438 374.296875 C 494.484375 371.898438 493.769531 371.261719 491.878906 372.609375 L 490.460938 373.617188 L 490.757812 377.070312 C 491.023438 380.179688 490.535156 385.984375 489.816406 388.230469 C 489.628906 388.824219 489.90625 388.671875 490.6875 387.757812 C 491.324219 387.015625 492.039062 385.472656 492.285156 384.324219 Z M 492.285156 384.324219 "/>
<path style=" stroke:none;fill-rule:evenodd;fill:rgb(99.998474%,83.135986%,16.470337%);fill-opacity:1;" d="M 481.867188 386 C 483.515625 384.488281 483.855469 383.546875 484.484375 378.710938 C 484.804688 376.226562 485.199219 373.535156 485.359375 372.726562 C 485.71875 370.921875 485.007812 370.796875 483.082031 372.335938 C 481.824219 373.339844 481.777344 373.5 482.25 375.039062 C 482.875 377.078125 482.316406 382.128906 481.289062 383.695312 C 480.507812 384.882812 478.910156 385.15625 477.402344 384.347656 C 476.742188 383.992188 476.605469 383.578125 476.808594 382.546875 C 477.195312 380.625 476.089844 380.398438 473.042969 381.777344 C 470.191406 383.066406 469.09375 382.953125 469.480469 381.414062 C 469.636719 380.792969 469.46875 380.175781 469.058594 379.835938 C 468.429688 379.316406 467.820312 379.328125 463.648438 379.933594 C 462.949219 380.035156 462.746094 379.808594 462.746094 378.9375 C 462.746094 378.316406 462.601562 377.59375 462.433594 377.328125 C 462.253906 377.058594 460.238281 376.820312 457.738281 376.78125 C 452.925781 376.699219 449.511719 375.902344 447.144531 374.308594 C 444.726562 372.679688 444.511719 371.394531 446.128906 368.257812 C 446.878906 366.804688 447.730469 364.890625 448.019531 363.996094 C 448.304688 363.109375 449.144531 361.800781 449.882812 361.089844 C 450.621094 360.382812 451.230469 359.613281 451.230469 359.375 C 451.230469 358.777344 448.1875 359.335938 446.921875 360.167969 C 446.054688 360.734375 445.910156 361.132812 446.109375 362.371094 C 446.382812 364.054688 445.316406 366.554688 443.308594 368.945312 C 441.101562 371.566406 437.851562 370.492188 433.535156 365.703125 C 431.910156 363.898438 431.296875 363.480469 430.882812 363.886719 C 430.109375 364.652344 430.71875 367.3125 431.933594 368.449219 C 433.296875 369.722656 438.539062 372.160156 439.9375 372.171875 C 441.347656 372.179688 441.796875 372.503906 442.652344 374.140625 C 443.730469 376.210938 450.609375 378.304688 457.324219 378.609375 C 459.445312 378.707031 459.589844 378.789062 459.808594 380.066406 C 460.039062 381.410156 460.066406 381.421875 463.3125 381.554688 C 466.574219 381.6875 467.039062 381.910156 466.070312 382.878906 C 465.789062 383.160156 465.683594 383.722656 465.835938 384.121094 C 466.070312 384.722656 466.601562 384.804688 468.941406 384.582031 C 470.492188 384.4375 472.175781 384.222656 472.671875 384.105469 C 473.359375 383.941406 473.75 384.25 474.261719 385.367188 C 474.777344 386.5 475.304688 386.90625 476.519531 387.121094 C 478.746094 387.523438 480.632812 387.125 481.867188 386 Z M 481.867188 386 "/>
<path style=" stroke:none;fill-rule:evenodd;fill:rgb(99.998474%,79.998779%,0%);fill-opacity:1;" d="M 542.15625 383.515625 C 546.21875 381.519531 548.609375 379.269531 550.148438 376.011719 C 550.878906 374.46875 551.476562 373.003906 551.476562 372.757812 C 551.476562 372.195312 549.480469 371.257812 548.28125 371.257812 C 547.082031 371.257812 546.835938 370.4375 547.351562 368.152344 C 547.851562 365.925781 547.25 363.132812 546.273438 363.132812 C 545.917969 363.132812 545.289062 363.652344 544.875 364.28125 C 544.234375 365.261719 544.203125 365.679688 544.671875 367.105469 C 545.367188 369.21875 544.820312 370.796875 542.929688 372.140625 C 542.03125 372.777344 541.539062 373.515625 541.539062 374.226562 C 541.539062 374.832031 541.617188 375.324219 541.710938 375.324219 C 541.804688 375.324219 542.792969 374.816406 543.90625 374.191406 L 545.929688 373.0625 L 547.121094 374 C 547.78125 374.515625 548.316406 375.355469 548.316406 375.867188 C 548.316406 378.335938 541.269531 382.492188 536.429688 382.882812 C 533.859375 383.089844 533.417969 383.003906 532.523438 382.109375 C 531.796875 381.382812 531.582031 380.769531 531.765625 379.90625 C 531.902344 379.25 532.152344 378.050781 532.316406 377.246094 C 532.765625 375.089844 531.835938 375.382812 530.242188 377.894531 C 528.929688 379.972656 528.539062 382.183594 529.28125 383.355469 C 529.882812 384.304688 533.898438 385.214844 536.734375 385.042969 C 538.519531 384.933594 540.28125 384.441406 542.15625 383.515625 Z M 542.15625 383.515625 "/>
<path style=" stroke:none;fill-rule:evenodd;fill:rgb(81.175232%,6.666565%,14.901733%);fill-opacity:1;" d="M 562.046875 357.488281 C 560.972656 355.851562 561.617188 353.875 563.230469 353.875 C 564.183594 353.875 564.367188 354.109375 564.480469 355.480469 C 564.578125 356.621094 564.363281 357.3125 563.726562 357.886719 C 562.867188 358.667969 562.8125 358.652344 562.046875 357.488281 Z M 562.046875 357.488281 "/>
<path style=" stroke:none;fill-rule:evenodd;fill:rgb(99.998474%,79.998779%,0%);fill-opacity:1;" d="M 569.265625 368.398438 C 571.816406 365.847656 572.898438 362.742188 572.917969 357.945312 L 572.925781 354.339844 L 575.035156 353.339844 C 577.78125 352.039062 580.375 349.433594 580.375 347.988281 C 580.375 346.507812 579.71875 346.585938 578.523438 348.203125 C 577.652344 349.375 576.492188 350.085938 572.25 352.035156 C 571.175781 352.523438 571.109375 352.789062 570.867188 357.277344 C 570.582031 362.453125 569.878906 364.390625 566.992188 367.921875 C 565.226562 370.078125 565.15625 370.359375 566.390625 370.359375 C 566.894531 370.359375 568.1875 369.476562 569.265625 368.398438 Z M 569.265625 368.398438 "/>
<path style=" stroke:none;fill-rule:evenodd;fill:rgb(99.998474%,83.135986%,16.470337%);fill-opacity:1;" d="M 440.363281 364.976562 C 441.132812 364.003906 442.285156 362.023438 442.921875 360.570312 C 443.558594 359.125 444.503906 357.480469 445.027344 356.917969 C 446.25 355.601562 445.566406 354.789062 443.597656 355.222656 C 442.550781 355.449219 442.136719 355.835938 441.957031 356.734375 C 441.367188 359.679688 440.296875 362.691406 439.351562 364.09375 C 437.628906 366.640625 437.585938 366.746094 438.292969 366.746094 C 438.660156 366.746094 439.59375 365.949219 440.363281 364.976562 Z M 440.363281 364.976562 "/>
<path style=" stroke:none;fill-rule:evenodd;fill:rgb(99.998474%,79.998779%,0%);fill-opacity:1;" d="M 541.429688 365.503906 C 541.675781 364.761719 540.261719 364.234375 539.65625 364.839844 C 539.394531 365.097656 539.328125 365.542969 539.503906 365.828125 C 539.898438 366.472656 541.179688 366.257812 541.429688 365.503906 Z M 541.429688 365.503906 "/>
<path style=" stroke:none;fill-rule:evenodd;fill:rgb(99.998474%,83.135986%,16.470337%);fill-opacity:1;" d="M 430.921875 360.644531 C 433.222656 359.476562 435.425781 356.75 435.425781 355.066406 C 435.425781 353.964844 433.574219 352.746094 431.894531 352.746094 C 431.152344 352.746094 429.75 353.355469 428.632812 354.167969 C 425.128906 356.703125 421.386719 356.183594 419.335938 352.882812 C 417.648438 350.164062 415.890625 348.683594 414.335938 348.683594 C 412.398438 348.683594 412.320312 349.902344 414.214844 350.5625 C 415.132812 350.882812 415.898438 351.65625 416.527344 352.910156 C 418.371094 356.585938 419.449219 357.238281 424.359375 357.664062 L 427.519531 357.941406 L 427.660156 359.859375 C 427.738281 360.914062 428 361.78125 428.238281 361.78125 C 428.484375 361.78125 429.6875 361.265625 430.921875 360.644531 Z M 430.921875 360.644531 "/>
<path style=" stroke:none;fill-rule:evenodd;fill:rgb(81.175232%,6.666565%,14.901733%);fill-opacity:1;" d="M 430.167969 357.484375 C 429.765625 356.4375 430.335938 355.453125 431.34375 355.453125 C 432.273438 355.453125 432.492188 356.140625 431.988281 357.453125 C 431.640625 358.355469 430.511719 358.378906 430.167969 357.484375 Z M 430.167969 357.484375 "/>
<path style=" stroke:none;fill-rule:evenodd;fill:rgb(99.998474%,79.998779%,0%);fill-opacity:1;" d="M 579.8125 355.570312 C 580.0625 354.828125 578.644531 354.296875 578.039062 354.90625 C 577.78125 355.164062 577.710938 355.609375 577.882812 355.890625 C 578.285156 356.539062 579.5625 356.324219 579.8125 355.570312 Z M 579.8125 355.570312 "/>
<path style=" stroke:none;fill-rule:evenodd;fill:rgb(81.175232%,6.666565%,14.901733%);fill-opacity:1;" d="M 490.515625 364.699219 C 490.144531 364.628906 488.011719 364.324219 485.773438 364.035156 C 474.265625 362.527344 460.570312 357.765625 450.535156 351.789062 C 427.882812 338.296875 411.320312 314.886719 406.109375 289.003906 C 400.152344 259.421875 404.394531 233.96875 418.371094 215.421875 C 420.917969 212.046875 423.605469 209.253906 423.105469 210.503906 C 422.957031 210.875 421.894531 213.460938 420.75 216.25 C 414.289062 231.921875 413.484375 248.496094 418.289062 266.945312 C 420.191406 274.253906 421.980469 278.953125 425.34375 285.472656 C 437.121094 308.316406 459.179688 325.164062 483.515625 329.902344 C 485.503906 330.289062 489.261719 331.015625 491.867188 331.515625 C 498.722656 332.832031 502.453125 332.699219 511.71875 330.8125 C 520.375 329.046875 527.355469 326.949219 533.632812 324.226562 C 552.6875 315.960938 568.523438 300.195312 576.640625 281.398438 C 582.195312 268.53125 584.8125 249.648438 583.042969 235.113281 C 581.972656 226.332031 579.207031 216.71875 575.796875 209.9375 C 575.078125 208.507812 574.691406 207.339844 574.929688 207.339844 C 575.679688 207.339844 580.84375 213.65625 583.867188 218.265625 C 590.523438 228.425781 595.023438 241.035156 596.628906 254.03125 C 597.953125 264.714844 596.808594 281.832031 594.109375 291.757812 C 588.566406 312.152344 576.429688 331.511719 561.75 343.398438 C 546.195312 355.988281 529.679688 362.507812 508.351562 364.476562 C 503.878906 364.890625 492.21875 365.039062 490.515625 364.699219 Z M 490.515625 364.699219 "/>
<path style=" stroke:none;fill-rule:evenodd;fill:rgb(99.998474%,79.998779%,0%);fill-opacity:1;" d="M 529.90625 356.011719 C 530.335938 355.636719 530.820312 354.632812 530.980469 353.777344 C 531.136719 352.921875 531.496094 352.160156 531.777344 352.085938 C 532.058594 352.011719 533.144531 351.714844 534.195312 351.429688 C 535.476562 351.082031 536.488281 350.398438 537.285156 349.355469 C 539.097656 346.980469 538.921875 343.917969 536.578125 336.6875 C 535.53125 333.472656 534.527344 330.335938 534.347656 329.714844 C 533.914062 328.242188 533.53125 328.289062 532.210938 330 L 531.125 331.414062 L 532.257812 332.761719 C 533.757812 334.546875 536.183594 341.875 536.25 344.84375 C 536.289062 346.429688 536.042969 347.613281 535.5 348.4375 C 534.628906 349.773438 535.074219 349.746094 528.5625 348.851562 C 527.113281 348.65625 526.191406 348.828125 524.820312 349.542969 C 522.410156 350.796875 521.320312 350.746094 520.683594 349.347656 C 519.894531 347.613281 519.1875 348.273438 519.1875 350.75 L 519.1875 352.972656 L 524.132812 352.972656 L 524.421875 354.710938 C 524.578125 355.667969 524.972656 356.617188 525.296875 356.820312 C 526.121094 357.324219 528.964844 356.824219 529.90625 356.011719 Z M 529.90625 356.011719 "/>
<path style=" stroke:none;fill-rule:evenodd;fill:rgb(83.135986%,0%,0%);fill-opacity:1;" d="M 526.378906 353.878906 C 525.4375 352.445312 525.835938 351.394531 527.316406 351.394531 C 528.128906 351.394531 528.59375 351.722656 528.898438 352.515625 C 529.804688 354.910156 527.769531 356.007812 526.378906 353.878906 Z M 526.378906 353.878906 "/>
<path style=" stroke:none;fill-rule:evenodd;fill:rgb(99.998474%,79.998779%,0%);fill-opacity:1;" d="M 469.226562 351.832031 C 470.648438 351.21875 472.339844 349.929688 473.761719 348.378906 L 476.027344 345.902344 L 478.644531 346.222656 C 481.882812 346.613281 481.9375 346.644531 481.9375 348.191406 C 481.9375 349.421875 482.015625 349.464844 484.984375 349.742188 C 486.660156 349.902344 488.871094 350.03125 489.894531 350.03125 C 491.210938 350.035156 491.945312 350.289062 492.382812 350.902344 C 492.964844 351.714844 493.300781 351.734375 498.1875 351.292969 C 502.761719 350.882812 503.660156 350.921875 505.71875 351.625 C 507.183594 352.121094 508.796875 352.335938 510.015625 352.199219 C 513.515625 351.804688 518.355469 348.925781 519.054688 346.820312 C 519.140625 346.566406 520.410156 346.121094 521.875 345.828125 C 525.410156 345.121094 525.574219 344.363281 522.273438 343.949219 C 520.84375 343.773438 518.695312 343.242188 517.496094 342.765625 C 516.300781 342.296875 514.660156 341.910156 513.855469 341.910156 C 512.082031 341.910156 510.386719 343.007812 510.386719 344.160156 C 510.386719 344.910156 510.652344 344.976562 512.757812 344.765625 C 514.738281 344.5625 515.328125 344.6875 516.371094 345.507812 C 517.054688 346.050781 517.5 346.6875 517.359375 346.921875 C 516.890625 347.671875 512.769531 349.554688 510.941406 349.847656 C 509.722656 350.042969 508.726562 349.90625 507.765625 349.40625 C 506.164062 348.578125 503.808594 348.449219 503.363281 349.167969 C 503.171875 349.476562 502.671875 349.289062 501.980469 348.636719 L 500.894531 347.617188 L 498.429688 348.636719 C 495.9375 349.671875 495.03125 349.617188 495.03125 348.429688 C 495.03125 347.882812 494.300781 347.820312 490.628906 348.058594 C 486.574219 348.320312 486.160156 348.269531 485.40625 347.425781 C 484.707031 346.648438 484.671875 346.371094 485.167969 345.574219 C 485.628906 344.835938 485.636719 344.527344 485.195312 344.085938 C 484.757812 343.648438 484.207031 343.644531 482.605469 344.070312 C 478.578125 345.148438 477.421875 344.554688 477.421875 341.410156 C 477.421875 338.65625 475.171875 337.480469 472.925781 339.054688 C 469.234375 341.636719 468.277344 344.699219 470.785156 345.894531 C 472.628906 346.773438 472.160156 347.8125 469.261719 349.265625 C 465.117188 351.335938 461.46875 351.070312 454.519531 348.195312 C 452.808594 347.488281 452.367188 347.773438 452.761719 349.332031 C 453.144531 350.863281 454.542969 351.703125 458.03125 352.5 C 461.773438 353.355469 466.308594 353.085938 469.226562 351.832031 Z M 469.226562 351.832031 "/>
<path style=" stroke:none;fill-rule:evenodd;fill:rgb(81.175232%,6.666565%,14.901733%);fill-opacity:1;" d="M 472.59375 342.972656 C 472.414062 342.515625 472.632812 341.992188 473.148438 341.613281 C 473.863281 341.09375 474.089844 341.09375 474.640625 341.644531 C 474.996094 342 475.164062 342.609375 475.011719 343.003906 C 474.652344 343.941406 472.953125 343.917969 472.59375 342.972656 Z M 472.59375 342.972656 "/>
<path style=" stroke:none;fill-rule:evenodd;fill:rgb(99.998474%,79.998779%,0%);fill-opacity:1;" d="M 466.734375 344.167969 C 469.1875 342.609375 469.128906 342.734375 469.484375 338.410156 C 469.730469 335.359375 469.6875 335.132812 468.859375 335.132812 C 467.660156 335.132812 467.035156 336.449219 467.035156 338.964844 C 467.035156 340.574219 466.78125 341.296875 465.925781 342.15625 C 463.882812 344.195312 458.8125 343.261719 458.175781 340.730469 C 457.957031 339.859375 458.234375 339.078125 459.300781 337.566406 C 461.515625 334.421875 461.011719 333.65625 458.296875 336.039062 C 456.429688 337.675781 456.09375 337.726562 456.453125 336.3125 C 456.777344 335.015625 456.097656 334.496094 454.578125 334.878906 C 453.796875 335.078125 453.378906 335.5625 453.1875 336.507812 C 453.007812 337.433594 452.582031 337.941406 451.847656 338.125 C 450.617188 338.4375 448.519531 337.269531 448.519531 336.277344 C 448.519531 335.539062 451.65625 331.710938 455.691406 327.523438 C 457.210938 325.949219 458.457031 324.472656 458.457031 324.253906 C 458.457031 324.027344 457.640625 323.84375 456.648438 323.84375 C 455.195312 323.84375 454.839844 324.007812 454.839844 324.679688 C 454.839844 325.136719 452.808594 327.800781 450.324219 330.597656 C 445.148438 336.429688 444.714844 337.644531 447.28125 339.203125 C 449.34375 340.464844 451.984375 340.367188 454.0625 338.957031 L 455.746094 337.8125 L 455.746094 339.890625 C 455.746094 342.542969 456.273438 343.496094 458.351562 344.59375 C 460.972656 345.976562 464.136719 345.816406 466.734375 344.167969 Z M 466.734375 344.167969 "/>
<path style=" stroke:none;fill-rule:evenodd;fill:rgb(99.998474%,79.998779%,0%);fill-opacity:1;" d="M 541.324219 341.644531 C 541.328125 338.777344 541.402344 338.535156 542.226562 338.683594 C 547.398438 339.605469 549.789062 338.914062 552.023438 335.847656 C 553.242188 334.175781 553.347656 333.746094 553.1875 331.144531 L 553.007812 328.28125 L 555.519531 328.578125 C 560.066406 329.125 560.117188 329.152344 559.800781 331.011719 C 558.9375 336.078125 557.351562 338.871094 553.445312 342.210938 C 550.714844 344.542969 550.71875 345.6875 553.460938 344.382812 C 555.78125 343.285156 558.472656 340.519531 559.917969 337.75 C 560.980469 335.714844 561.171875 334.804688 561.1875 331.585938 C 561.207031 328.199219 561.316406 327.726562 562.257812 326.964844 C 563.042969 326.328125 563.914062 326.144531 565.78125 326.222656 C 568.023438 326.320312 568.375 326.203125 569.390625 325.019531 C 570.277344 323.988281 570.460938 323.398438 570.246094 322.257812 C 569.851562 320.15625 570.296875 319.421875 572.699219 318.203125 C 575.953125 316.554688 577.214844 314.796875 577.214844 311.929688 C 577.214844 309.292969 576.402344 307.734375 575.25 308.179688 C 574.375 308.515625 574.246094 310.792969 575.03125 312.050781 C 575.316406 312.515625 575.425781 313.21875 575.269531 313.621094 C 574.851562 314.722656 572.410156 316.042969 570.203125 316.371094 C 567.417969 316.792969 565.488281 318.28125 564.03125 321.140625 C 561.71875 325.6875 562.050781 325.476562 560.03125 323.652344 C 556.933594 320.851562 554.191406 321.589844 553.027344 325.542969 L 552.527344 327.234375 L 551.695312 325.539062 C 550.84375 323.820312 549.839844 323.40625 548.859375 324.386719 C 547.984375 325.261719 548.242188 326.648438 549.679688 328.769531 C 550.417969 329.859375 551.023438 331.246094 551.023438 331.835938 C 551.023438 334.617188 548.398438 336.867188 545.882812 336.234375 C 544.542969 335.898438 543.347656 334.011719 543.347656 332.222656 C 543.347656 330.601562 542.132812 330.757812 541.769531 332.421875 C 541.15625 335.21875 539.898438 334.078125 539.347656 330.226562 C 538.972656 327.617188 538.027344 327.472656 536.867188 329.855469 C 536.121094 331.375 536.101562 331.65625 536.691406 332.335938 C 537.925781 333.753906 539.855469 339.398438 540.085938 342.265625 C 540.402344 346.179688 541.3125 345.71875 541.324219 341.644531 Z M 541.324219 341.644531 "/>
<path style=" stroke:none;fill-rule:evenodd;fill:rgb(81.175232%,6.666565%,14.901733%);fill-opacity:1;" d="M 556.230469 326.394531 C 555.128906 325.589844 555.632812 324.296875 557.050781 324.296875 C 558.34375 324.296875 559.363281 325.359375 558.992188 326.324219 C 558.667969 327.171875 557.34375 327.207031 556.230469 326.394531 Z M 556.230469 326.394531 "/>
<path style=" stroke:none;fill-rule:evenodd;fill:rgb(81.175232%,6.666565%,14.901733%);fill-opacity:1;" d="M 566.144531 323.375 C 565.792969 322.261719 566.621094 321.136719 567.789062 321.136719 C 568.65625 321.136719 568.902344 322.179688 568.363281 323.585938 C 567.96875 324.605469 566.496094 324.464844 566.144531 323.375 Z M 566.144531 323.375 "/>
<path style=" stroke:none;fill-rule:evenodd;fill:rgb(99.998474%,79.998779%,0%);fill-opacity:1;" d="M 447.988281 341.308594 C 448.074219 340.871094 447.84375 340.550781 447.449219 340.550781 C 446.609375 340.550781 446.105469 341.292969 446.503906 341.933594 C 446.910156 342.59375 447.8125 342.214844 447.988281 341.308594 Z M 447.988281 341.308594 "/>
<path style=" stroke:none;fill-rule:evenodd;fill:rgb(99.998474%,79.998779%,0%);fill-opacity:1;" d="M 483.289062 337.363281 C 483.289062 336.714844 483.046875 336.46875 482.507812 336.574219 C 481.328125 336.800781 481.199219 338.296875 482.355469 338.296875 C 483 338.296875 483.289062 338.007812 483.289062 337.363281 Z M 483.289062 337.363281 "/>
<path style=" stroke:none;fill-rule:evenodd;fill:rgb(99.998474%,79.998779%,0%);fill-opacity:1;" d="M 434.308594 333.496094 L 435.558594 331.859375 L 440.242188 332.171875 C 445.945312 332.554688 446.628906 332.238281 450.855469 327.207031 C 452.414062 325.359375 453.945312 323.84375 454.265625 323.84375 C 454.578125 323.84375 454.839844 323.335938 454.839844 322.71875 C 454.839844 321.078125 452.878906 321.152344 451.828125 322.828125 C 450.316406 325.242188 446.101562 329.800781 444.988281 330.222656 C 444.367188 330.460938 442.949219 330.515625 441.835938 330.347656 C 440.152344 330.097656 439.953125 329.96875 440.640625 329.585938 C 441.832031 328.917969 444.453125 326.214844 444.453125 325.65625 C 444.453125 324.925781 442.285156 324.261719 440.925781 324.574219 C 440.261719 324.726562 438.671875 325.425781 437.398438 326.128906 C 434.992188 327.457031 433.167969 327.488281 433.167969 326.207031 C 433.167969 325.824219 434.234375 324.359375 435.535156 322.945312 C 436.84375 321.539062 438.484375 319.742188 439.1875 318.957031 C 439.890625 318.167969 440.652344 317.523438 440.882812 317.523438 C 441.109375 317.523438 441.292969 317.21875 441.292969 316.847656 C 441.292969 316.367188 440.804688 316.167969 439.597656 316.167969 C 438.054688 316.167969 437.8125 316.34375 436.820312 318.21875 C 436.222656 319.34375 435.023438 320.890625 434.152344 321.652344 C 432.871094 322.777344 432.296875 322.996094 431.101562 322.796875 C 428.757812 322.417969 427.296875 321.234375 427.296875 319.714844 C 427.296875 318.992188 427.003906 318.289062 426.652344 318.152344 C 425.699219 317.785156 424.132812 318.785156 424.132812 319.757812 C 424.132812 321.417969 424.730469 322.101562 427.324219 323.40625 C 429.625 324.570312 429.964844 324.910156 430.085938 326.210938 C 430.210938 327.515625 430.375 327.671875 431.496094 327.597656 C 433.277344 327.46875 433.980469 329.0625 432.984375 330.988281 C 432.210938 332.484375 432.003906 335.132812 432.660156 335.132812 C 432.878906 335.132812 433.621094 334.398438 434.308594 333.496094 Z M 434.308594 333.496094 "/>
<path style=" stroke:none;fill-rule:evenodd;fill:rgb(99.998474%,0%,99.998474%);fill-opacity:1;" d="M 436.328125 329.941406 C 436.328125 329.207031 436.742188 329.105469 437.90625 329.554688 C 438.507812 329.78125 438.539062 329.917969 438.058594 330.222656 C 437.125 330.816406 436.328125 330.6875 436.328125 329.941406 Z M 436.328125 329.941406 "/>
<path style=" stroke:none;fill-rule:evenodd;fill:rgb(81.175232%,6.666565%,14.901733%);fill-opacity:1;" d="M 438.132812 327.984375 C 438.132812 327.589844 440.109375 326.554688 440.863281 326.554688 C 441.742188 326.554688 441.257812 327.8125 440.277344 328.078125 C 438.855469 328.457031 438.132812 328.425781 438.132812 327.984375 Z M 438.132812 327.984375 "/>
<path style=" stroke:none;fill-rule:evenodd;fill:rgb(99.998474%,79.998779%,0%);fill-opacity:1;" d="M 468.164062 331.070312 C 468.164062 330.09375 466.398438 330.226562 466.210938 331.21875 C 466.085938 331.863281 466.289062 332.015625 467.105469 331.898438 C 467.6875 331.8125 468.164062 331.445312 468.164062 331.070312 Z M 468.164062 331.070312 "/>
<path style=" stroke:none;fill-rule:evenodd;fill:rgb(99.998474%,79.998779%,0%);fill-opacity:1;" d="M 545.972656 324.179688 C 546.152344 323.246094 544.851562 322.613281 544.164062 323.304688 C 543.472656 323.992188 544.101562 325.296875 545.039062 325.117188 C 545.46875 325.03125 545.890625 324.613281 545.972656 324.179688 Z M 545.972656 324.179688 "/>
<path style=" stroke:none;fill-rule:evenodd;fill:rgb(99.998474%,79.998779%,0%);fill-opacity:1;" d="M 424.878906 314.648438 C 426.097656 313.597656 426.109375 313.527344 425.582031 311.226562 C 424.835938 307.992188 424.882812 307.644531 426.113281 307.335938 C 427.671875 306.945312 431.617188 309.066406 432.496094 310.761719 C 433.171875 312.070312 433.152344 312.160156 432 313.230469 C 430.757812 314.378906 430.765625 315.71875 432.007812 315.71875 C 433.035156 315.71875 435.875 313.027344 435.875 312.058594 C 435.875 310.722656 432.722656 307.554688 430.230469 306.394531 C 428.691406 305.675781 427.144531 305.339844 425.359375 305.335938 C 422.167969 305.332031 421.734375 306.019531 422.601562 309.734375 C 423.609375 314.089844 422.238281 314.675781 418.726562 311.394531 C 416.125 308.960938 415.101562 306.421875 415.109375 302.429688 C 415.121094 298.144531 416.757812 296.023438 420.445312 295.527344 C 422.902344 295.199219 422.839844 294.625 420.320312 294.246094 C 416.640625 293.699219 413.527344 296.152344 412.347656 300.539062 C 411.035156 305.410156 414.039062 311.34375 419.359375 314.394531 C 422.144531 315.992188 423.253906 316.042969 424.878906 314.648438 Z M 424.878906 314.648438 "/>
<path style=" stroke:none;fill-rule:evenodd;fill:rgb(99.998474%,79.998779%,0%);fill-opacity:1;" d="M 569.902344 309.304688 C 570.199219 309.007812 570.445312 308.335938 570.445312 307.8125 C 570.445312 307.289062 570.949219 306.171875 571.574219 305.332031 C 572.195312 304.492188 572.699219 303.632812 572.699219 303.421875 C 572.699219 302.570312 571.296875 302.597656 570.175781 303.476562 C 569.039062 304.371094 568.1875 304.390625 568.1875 303.523438 C 568.1875 303.304688 568.730469 302.855469 569.394531 302.535156 C 571.050781 301.726562 571.191406 300.929688 569.789062 300.292969 C 567.996094 299.476562 566.199219 300.964844 566.015625 303.417969 C 565.894531 305.058594 566.03125 305.339844 567.292969 306.082031 C 568.449219 306.761719 568.65625 307.125 568.464844 308.101562 C 568.132812 309.785156 568.835938 310.375 569.902344 309.304688 Z M 569.902344 309.304688 "/>
<path style=" stroke:none;fill-rule:evenodd;fill:rgb(99.998474%,79.998779%,0%);fill-opacity:1;" d="M 583.535156 307.761719 C 584.53125 306.863281 585.34375 305.851562 585.34375 305.507812 C 585.34375 305.164062 586.207031 304.265625 587.261719 303.507812 C 590.257812 301.355469 590.914062 299.179688 589.578125 295.835938 C 589.054688 294.527344 587.414062 292.714844 583.855469 289.507812 C 581.117188 287.035156 578.601562 285.011719 578.269531 285.011719 C 577.296875 285.011719 577.46875 288.585938 578.457031 288.902344 C 580.238281 289.472656 581.3125 290.199219 584.105469 292.722656 C 587.363281 295.660156 588.859375 298.40625 588.042969 299.933594 C 587.257812 301.410156 586.210938 300.949219 583.347656 297.875 C 581.835938 296.257812 580.347656 294.9375 580.039062 294.9375 C 579.707031 294.941406 579.476562 295.527344 579.476562 296.347656 C 579.476562 297.371094 580.019531 298.355469 581.507812 300.007812 C 583.925781 302.699219 584.164062 304.320312 582.351562 305.75 C 581.695312 306.265625 581.023438 306.6875 580.859375 306.6875 C 580.691406 306.6875 580.160156 305.882812 579.679688 304.90625 C 578.660156 302.84375 572.460938 296.300781 571.527344 296.300781 C 571.105469 296.300781 570.894531 296.828125 570.894531 297.867188 C 570.894531 299.125 571.144531 299.566406 572.144531 300.082031 C 573.378906 300.71875 576.414062 303.785156 579.476562 307.480469 C 580.34375 308.53125 581.207031 309.394531 581.394531 309.394531 C 581.578125 309.394531 582.542969 308.660156 583.535156 307.761719 Z M 583.535156 307.761719 "/>
<path style=" stroke:none;fill-rule:evenodd;fill:rgb(99.998474%,79.998779%,0%);fill-opacity:1;" d="M 589.617188 290.351562 C 589.210938 289.054688 580.894531 280.492188 580.039062 280.492188 C 579.59375 280.492188 579.460938 281.019531 579.5625 282.386719 C 579.679688 284.035156 579.863281 284.320312 580.996094 284.617188 C 581.710938 284.808594 583.902344 286.527344 585.867188 288.433594 C 587.828125 290.347656 589.546875 291.796875 589.6875 291.65625 C 589.828125 291.515625 589.796875 290.925781 589.617188 290.351562 Z M 589.617188 290.351562 "/>
<path style=" stroke:none;fill-rule:evenodd;fill:rgb(81.175232%,6.666565%,14.901733%);fill-opacity:1;" d="M 644.429688 326.320312 C 646.246094 326.128906 648.078125 327.644531 647.457031 329.582031 C 647.304688 329.933594 646.691406 330.609375 645.671875 331.300781 C 644.632812 332.007812 643.179688 332.761719 641.386719 333.433594 C 637.808594 334.792969 632.875 335.835938 627.132812 335.683594 L 627.945312 335.683594 C 622.117188 335.757812 618.988281 335.21875 614.914062 333.871094 C 611.46875 332.746094 608.492188 331.890625 608.285156 328.84375 C 608.285156 328.320312 608.441406 328.011719 608.707031 327.761719 C 608.972656 327.511719 609.382812 327.316406 609.898438 327.203125 C 610.933594 326.980469 612.132812 327.574219 613.167969 327.917969 C 615.386719 328.648438 620.078125 330.632812 627.945312 330.679688 C 632.09375 330.785156 635.152344 329.800781 638.316406 328.746094 C 642.101562 327.484375 642.632812 326.578125 644.429688 326.320312 Z M 644.429688 326.320312 "/>
<path style=" stroke:none;fill-rule:evenodd;fill:rgb(81.175232%,6.666565%,14.901733%);fill-opacity:1;" d="M 665.605469 210.207031 C 665.664062 210.214844 665.707031 210.230469 665.753906 210.242188 C 665.945312 210.300781 666.144531 210.4375 666.34375 210.816406 L 666.34375 210.832031 C 666.414062 210.953125 666.589844 211.574219 666.640625 212.4375 C 666.691406 213.304688 666.667969 214.429688 666.59375 215.753906 C 666.4375 218.398438 666.054688 221.796875 665.492188 225.425781 C 664.363281 232.683594 662.535156 240.871094 660.605469 245.765625 C 658.710938 250.292969 654.566406 254.355469 650.535156 258.011719 C 646.5 261.675781 642.570312 264.867188 641.152344 268.164062 C 640.890625 268.753906 640.765625 269.578125 640.628906 270.753906 C 640.492188 271.9375 640.390625 273.433594 640.304688 275.183594 C 640.125 278.683594 640.015625 283.167969 639.972656 287.992188 C 639.910156 295.65625 639.988281 304.078125 640.125 310.757812 C 639.933594 310.839844 639.738281 310.921875 639.53125 311.019531 C 638.554688 311.464844 637.410156 312.042969 636.136719 312.625 C 633.589844 313.789062 630.507812 314.921875 627.3125 314.824219 L 627.296875 314.824219 C 620.851562 314.773438 617.980469 312.890625 615.800781 312.050781 L 615.785156 312.050781 C 615.367188 311.890625 614.910156 311.765625 614.441406 311.6875 C 614.523438 305.5625 615.089844 263.089844 615.078125 255.71875 L 615.078125 255.703125 C 615.007812 253.683594 616.921875 251.113281 619.410156 248.8125 C 621.898438 246.515625 624.839844 244.476562 626.558594 243.1875 L 626.578125 243.171875 L 626.609375 243.15625 C 627.628906 242.25 629.710938 240.054688 631.675781 237.875 C 632.65625 236.785156 633.605469 235.695312 634.347656 234.808594 C 635.089844 233.917969 635.601562 233.300781 635.859375 232.792969 C 635.929688 232.644531 636.335938 232.117188 636.890625 231.578125 C 637.449219 231.039062 638.167969 230.453125 638.941406 229.953125 C 639.714844 229.453125 640.550781 229.042969 641.285156 228.871094 C 642.023438 228.699219 642.628906 228.746094 643.125 229.050781 C 643.566406 229.328125 643.734375 229.761719 643.714844 230.558594 C 643.691406 231.363281 643.398438 232.445312 642.941406 233.578125 C 642.023438 235.84375 640.464844 238.367188 639.332031 239.910156 C 638.644531 240.851562 638.003906 242.425781 637.382812 244.257812 C 636.757812 246.082031 636.1875 248.136719 635.777344 249.894531 C 635.367188 251.65625 635.09375 253.003906 635.152344 253.867188 C 635.164062 254.078125 635.089844 254.328125 635.5 254.652344 C 635.703125 254.8125 636.058594 254.84375 636.25 254.765625 C 636.445312 254.691406 636.546875 254.589844 636.628906 254.503906 C 636.964844 254.148438 637.191406 253.691406 637.5625 252.867188 L 637.5625 252.847656 L 637.578125 252.832031 C 638.144531 251.390625 640.34375 249.78125 643.136719 248.160156 C 645.933594 246.53125 649.265625 244.828125 651.945312 242.765625 C 652.589844 242.238281 652.753906 241.464844 652.945312 240.550781 C 653.136719 239.632812 653.324219 238.488281 653.71875 237.085938 C 654.503906 234.285156 656.125 230.429688 660.292969 225.523438 L 660.503906 225.28125 L 660.441406 224.953125 C 659.527344 220.28125 660.757812 215.789062 662.441406 213.011719 C 663.28125 211.625 664.261719 210.679688 664.96875 210.359375 C 665.234375 210.234375 665.441406 210.195312 665.605469 210.207031 Z M 665.605469 210.207031 "/>
<path style=" stroke:none;fill-rule:evenodd;fill:rgb(81.175232%,6.666565%,14.901733%);fill-opacity:1;" d="M 658.71875 211.242188 C 659.035156 211.25 659.3125 211.367188 659.574219 211.570312 C 660.085938 211.964844 660.488281 212.761719 660.457031 213.816406 C 659.089844 216.761719 658.277344 220.71875 659.015625 224.886719 C 654.878906 229.8125 653.203125 233.796875 652.386719 236.710938 C 651.972656 238.191406 651.78125 239.390625 651.601562 240.253906 C 651.425781 241.105469 651.214844 241.5625 651.074219 241.679688 C 648.546875 243.628906 645.289062 245.3125 642.449219 246.960938 C 640.128906 248.3125 638.050781 249.59375 636.910156 251.191406 C 636.972656 250.875 637.039062 250.550781 637.117188 250.207031 C 637.351562 249.226562 637.644531 248.136719 637.957031 247.058594 C 638.417969 245.898438 639.75 244.410156 641.285156 243.203125 C 642.820312 241.996094 644.574219 241.054688 645.746094 240.777344 L 646.253906 240.660156 L 646.289062 240.15625 C 646.375 238.832031 647.457031 235.777344 648.960938 232.921875 C 650.464844 230.066406 652.449219 227.308594 654.011719 226.296875 L 654.339844 226.085938 L 654.324219 225.691406 C 654.074219 216.617188 656.085938 212.632812 657.652344 211.601562 C 658.042969 211.34375 658.402344 211.234375 658.71875 211.242188 Z M 658.71875 211.242188 "/>
<path style=" stroke:none;fill-rule:evenodd;fill:rgb(81.175232%,6.666565%,14.901733%);fill-opacity:1;" d="M 652.964844 212.929688 C 653.203125 212.945312 653.378906 213.023438 653.585938 213.277344 C 653.78125 213.515625 653.992188 213.949219 654.128906 214.585938 C 653.300781 217.027344 652.820312 220.511719 652.929688 225.363281 C 651.019531 226.757812 649.207031 229.464844 647.734375 232.265625 C 646.304688 234.976562 645.226562 237.703125 644.957031 239.5625 C 643.539062 240.007812 641.921875 240.957031 640.429688 242.125 C 640.039062 242.429688 639.652344 242.753906 639.285156 243.089844 C 639.707031 242.03125 640.128906 241.164062 640.449219 240.730469 C 641.640625 239.101562 643.234375 236.527344 644.222656 234.085938 C 644.558594 233.257812 644.828125 232.453125 644.976562 231.675781 C 646.589844 229.992188 648.128906 226.933594 647.75 223.917969 C 647.410156 220.050781 649.015625 216.257812 650.75 214.308594 C 651.613281 213.335938 652.484375 212.90625 652.964844 212.929688 Z M 652.964844 212.929688 "/>
<path style=" stroke:none;fill-rule:evenodd;fill:rgb(81.175232%,6.666565%,14.901733%);fill-opacity:1;" d="M 646.421875 213.867188 C 646.601562 213.878906 646.804688 213.957031 647.058594 214.144531 C 647.390625 214.390625 647.789062 214.847656 648.207031 215.539062 C 646.933594 217.832031 646.085938 220.871094 646.367188 224.050781 L 646.367188 224.085938 C 646.601562 225.875 645.882812 227.914062 644.957031 229.414062 C 644.78125 228.785156 644.425781 228.230469 643.84375 227.871094 C 643.222656 227.488281 642.523438 227.375 641.828125 227.414062 C 642.148438 222.644531 643.136719 218.234375 644.402344 215.816406 C 645.0625 214.550781 645.769531 213.929688 646.242188 213.867188 C 646.296875 213.855469 646.359375 213.859375 646.421875 213.867188 Z M 646.421875 213.867188 "/>
<path style=" stroke:none;fill-rule:evenodd;fill:rgb(81.175232%,6.666565%,14.901733%);fill-opacity:1;" d="M 636.527344 253.734375 C 636.601562 253.832031 636.535156 253.84375 636.527344 253.785156 C 636.527344 253.769531 636.527344 253.75 636.527344 253.734375 Z M 636.527344 253.734375 "/>
<path style=" stroke:none;fill-rule:evenodd;fill:rgb(81.175232%,6.666565%,14.901733%);fill-opacity:1;" d="M 614.421875 313.101562 C 614.734375 313.164062 615.027344 313.246094 615.292969 313.347656 C 616.433594 313.785156 618.125 314.699219 620.753906 315.378906 L 614.390625 315.3125 C 614.390625 315.3125 614.421875 313.269531 614.421875 313.101562 Z M 614.421875 313.101562 "/>
<path style=" stroke:none;fill-rule:evenodd;fill:rgb(81.175232%,6.666565%,14.901733%);fill-opacity:1;" d="M 640.082031 312.203125 C 641.433594 312.007812 642.789062 313.523438 642.328125 315.464844 C 642.214844 315.8125 641.761719 316.492188 641.003906 317.183594 C 640.230469 317.886719 639.152344 318.636719 637.828125 319.316406 C 635.171875 320.667969 631.515625 321.714844 627.257812 321.5625 L 627.863281 321.5625 C 623.539062 321.636719 621.21875 321.097656 618.199219 319.753906 C 615.640625 318.628906 613.4375 317.769531 613.285156 314.722656 C 613.285156 314.199219 613.402344 313.894531 613.597656 313.640625 C 613.792969 313.390625 614.097656 313.199219 614.480469 313.082031 C 615.25 312.859375 616.136719 313.457031 616.90625 313.796875 C 618.550781 314.527344 622.03125 316.511719 627.863281 316.5625 C 630.9375 316.667969 633.203125 315.679688 635.546875 314.625 C 638.355469 313.363281 638.75 312.460938 640.082031 312.203125 Z M 640.082031 312.203125 "/>
<path style=" stroke:none;fill-rule:evenodd;fill:rgb(81.175232%,6.666565%,14.901733%);fill-opacity:1;" d="M 642.480469 319.113281 C 644.058594 318.921875 645.648438 320.4375 645.109375 322.375 C 644.980469 322.726562 644.445312 323.40625 643.5625 324.097656 C 642.660156 324.800781 641.394531 325.550781 639.839844 326.230469 C 636.726562 327.582031 632.445312 328.628906 627.453125 328.472656 L 628.164062 328.472656 C 623.097656 328.550781 620.378906 328.011719 616.835938 326.667969 C 613.839844 325.539062 611.261719 324.683594 611.082031 321.636719 C 611.082031 321.113281 611.214844 320.804688 611.445312 320.554688 C 611.675781 320.304688 612.03125 320.109375 612.480469 319.996094 C 613.378906 319.769531 614.421875 320.371094 615.324219 320.710938 C 617.25 321.4375 621.328125 323.425781 628.160156 323.476562 C 631.765625 323.582031 634.421875 322.59375 637.171875 321.539062 C 640.460938 320.277344 640.921875 319.371094 642.480469 319.113281 Z M 642.480469 319.113281 "/>
<path style=" stroke:none;fill-rule:evenodd;fill:rgb(81.175232%,6.666565%,14.901733%);fill-opacity:1;" d="M 355.570312 326.320312 C 353.753906 326.128906 351.921875 327.644531 352.542969 329.582031 C 352.695312 329.933594 353.308594 330.609375 354.328125 331.300781 C 355.367188 332.007812 356.820312 332.761719 358.613281 333.433594 C 362.191406 334.792969 367.125 335.835938 372.867188 335.683594 L 372.054688 335.683594 C 377.882812 335.757812 381.011719 335.21875 385.085938 333.871094 C 388.53125 332.746094 391.507812 331.890625 391.714844 328.84375 C 391.714844 328.320312 391.558594 328.011719 391.292969 327.761719 C 391.027344 327.511719 390.617188 327.316406 390.101562 327.203125 C 389.066406 326.980469 387.867188 327.574219 386.832031 327.917969 C 384.613281 328.648438 379.921875 330.632812 372.054688 330.679688 C 367.90625 330.785156 364.847656 329.800781 361.683594 328.746094 C 357.898438 327.484375 357.367188 326.578125 355.570312 326.320312 Z M 355.570312 326.320312 "/>
<path style=" stroke:none;fill-rule:evenodd;fill:rgb(81.175232%,6.666565%,14.901733%);fill-opacity:1;" d="M 334.394531 210.207031 C 334.335938 210.214844 334.292969 210.230469 334.246094 210.242188 C 334.054688 210.300781 333.855469 210.4375 333.65625 210.816406 L 333.65625 210.832031 C 333.585938 210.953125 333.410156 211.574219 333.359375 212.4375 C 333.308594 213.304688 333.332031 214.429688 333.40625 215.753906 C 333.5625 218.398438 333.945312 221.796875 334.507812 225.425781 C 335.636719 232.683594 337.464844 240.871094 339.394531 245.765625 C 341.289062 250.292969 345.433594 254.355469 349.464844 258.011719 C 353.5 261.675781 357.429688 264.867188 358.847656 268.164062 C 359.109375 268.753906 359.234375 269.578125 359.371094 270.753906 C 359.507812 271.9375 359.609375 273.433594 359.695312 275.183594 C 359.875 278.683594 359.984375 283.167969 360.027344 287.992188 C 360.089844 295.65625 360.011719 304.078125 359.875 310.757812 C 360.066406 310.839844 360.261719 310.921875 360.46875 311.019531 C 361.445312 311.464844 362.589844 312.042969 363.863281 312.625 C 366.410156 313.789062 369.492188 314.921875 372.6875 314.824219 L 372.703125 314.824219 C 379.148438 314.773438 382.019531 312.890625 384.199219 312.050781 L 384.214844 312.050781 C 384.632812 311.890625 385.089844 311.765625 385.558594 311.6875 C 385.476562 305.5625 384.910156 263.089844 384.921875 255.71875 L 384.921875 255.703125 C 384.992188 253.683594 383.078125 251.113281 380.589844 248.8125 C 378.101562 246.515625 375.160156 244.476562 373.441406 243.1875 L 373.421875 243.171875 L 373.390625 243.15625 C 372.371094 242.25 370.289062 240.054688 368.324219 237.875 C 367.34375 236.785156 366.394531 235.695312 365.652344 234.808594 C 364.910156 233.917969 364.398438 233.300781 364.140625 232.792969 C 364.070312 232.644531 363.664062 232.117188 363.109375 231.578125 C 362.550781 231.039062 361.832031 230.453125 361.058594 229.953125 C 360.285156 229.453125 359.449219 229.042969 358.714844 228.871094 C 357.976562 228.699219 357.371094 228.746094 356.875 229.050781 C 356.433594 229.328125 356.265625 229.761719 356.285156 230.558594 C 356.308594 231.363281 356.601562 232.445312 357.058594 233.578125 C 357.976562 235.84375 359.535156 238.367188 360.667969 239.910156 C 361.355469 240.851562 361.996094 242.425781 362.617188 244.257812 C 363.242188 246.082031 363.8125 248.136719 364.222656 249.894531 C 364.632812 251.65625 364.90625 253.003906 364.847656 253.867188 C 364.835938 254.078125 364.910156 254.328125 364.5 254.652344 C 364.296875 254.8125 363.941406 254.84375 363.75 254.765625 C 363.554688 254.691406 363.453125 254.589844 363.371094 254.503906 C 363.035156 254.148438 362.808594 253.691406 362.4375 252.867188 L 362.4375 252.847656 L 362.421875 252.832031 C 361.855469 251.390625 359.65625 249.78125 356.863281 248.160156 C 354.066406 246.53125 350.734375 244.828125 348.054688 242.765625 C 347.410156 242.238281 347.246094 241.464844 347.054688 240.550781 C 346.863281 239.632812 346.675781 238.488281 346.28125 237.085938 C 345.496094 234.285156 343.875 230.429688 339.707031 225.523438 L 339.496094 225.28125 L 339.558594 224.953125 C 340.472656 220.28125 339.242188 215.789062 337.558594 213.011719 C 336.71875 211.625 335.738281 210.679688 335.03125 210.359375 C 334.765625 210.234375 334.558594 210.195312 334.394531 210.207031 Z M 334.394531 210.207031 "/>
<path style=" stroke:none;fill-rule:evenodd;fill:rgb(81.175232%,6.666565%,14.901733%);fill-opacity:1;" d="M 341.28125 211.242188 C 340.964844 211.25 340.6875 211.367188 340.425781 211.570312 C 339.914062 211.964844 339.511719 212.761719 339.542969 213.816406 C 340.910156 216.761719 341.722656 220.71875 340.984375 224.886719 C 345.121094 229.8125 346.796875 233.796875 347.613281 236.710938 C 348.027344 238.191406 348.21875 239.390625 348.398438 240.253906 C 348.574219 241.105469 348.785156 241.5625 348.925781 241.679688 C 351.453125 243.628906 354.710938 245.3125 357.550781 246.960938 C 359.871094 248.3125 361.949219 249.59375 363.089844 251.191406 C 363.027344 250.875 362.960938 250.550781 362.882812 250.207031 C 362.648438 249.226562 362.355469 248.136719 362.042969 247.058594 C 361.582031 245.898438 360.25 244.410156 358.714844 243.203125 C 357.179688 241.996094 355.425781 241.054688 354.253906 240.777344 L 353.746094 240.660156 L 353.710938 240.15625 C 353.625 238.832031 352.542969 235.777344 351.039062 232.921875 C 349.535156 230.066406 347.550781 227.308594 345.988281 226.296875 L 345.660156 226.085938 L 345.675781 225.691406 C 345.925781 216.617188 343.914062 212.632812 342.347656 211.601562 C 341.957031 211.34375 341.597656 211.234375 341.28125 211.242188 Z M 341.28125 211.242188 "/>
<path style=" stroke:none;fill-rule:evenodd;fill:rgb(81.175232%,6.666565%,14.901733%);fill-opacity:1;" d="M 347.035156 212.929688 C 346.796875 212.945312 346.621094 213.023438 346.414062 213.277344 C 346.21875 213.515625 346.007812 213.949219 345.871094 214.585938 C 346.699219 217.027344 347.179688 220.511719 347.070312 225.363281 C 348.980469 226.757812 350.792969 229.464844 352.265625 232.265625 C 353.695312 234.976562 354.773438 237.703125 355.042969 239.5625 C 356.460938 240.007812 358.078125 240.957031 359.570312 242.125 C 359.960938 242.429688 360.347656 242.753906 360.714844 243.089844 C 360.292969 242.03125 359.871094 241.164062 359.550781 240.730469 C 358.359375 239.101562 356.765625 236.527344 355.777344 234.085938 C 355.441406 233.257812 355.171875 232.453125 355.023438 231.675781 C 353.410156 229.992188 351.871094 226.933594 352.25 223.917969 C 352.589844 220.050781 350.984375 216.257812 349.25 214.308594 C 348.386719 213.335938 347.515625 212.90625 347.035156 212.929688 Z M 347.035156 212.929688 "/>
<path style=" stroke:none;fill-rule:evenodd;fill:rgb(81.175232%,6.666565%,14.901733%);fill-opacity:1;" d="M 353.578125 213.867188 C 353.398438 213.878906 353.195312 213.957031 352.941406 214.144531 C 352.609375 214.390625 352.210938 214.847656 351.792969 215.539062 C 353.066406 217.832031 353.914062 220.871094 353.632812 224.050781 L 353.632812 224.085938 C 353.398438 225.875 354.117188 227.914062 355.042969 229.414062 C 355.21875 228.785156 355.574219 228.230469 356.15625 227.871094 C 356.777344 227.488281 357.476562 227.375 358.171875 227.414062 C 357.851562 222.644531 356.863281 218.234375 355.597656 215.816406 C 354.9375 214.550781 354.230469 213.929688 353.757812 213.867188 C 353.703125 213.855469 353.640625 213.859375 353.578125 213.867188 Z M 353.578125 213.867188 "/>
<path style=" stroke:none;fill-rule:evenodd;fill:rgb(81.175232%,6.666565%,14.901733%);fill-opacity:1;" d="M 363.472656 253.734375 C 363.398438 253.832031 363.464844 253.84375 363.472656 253.785156 C 363.472656 253.769531 363.472656 253.75 363.472656 253.734375 Z M 363.472656 253.734375 "/>
<path style=" stroke:none;fill-rule:evenodd;fill:rgb(81.175232%,6.666565%,14.901733%);fill-opacity:1;" d="M 385.578125 313.101562 C 385.265625 313.164062 384.972656 313.246094 384.707031 313.347656 C 383.566406 313.785156 381.875 314.699219 379.246094 315.378906 L 385.609375 315.3125 C 385.609375 315.3125 385.578125 313.269531 385.578125 313.101562 Z M 385.578125 313.101562 "/>
<path style=" stroke:none;fill-rule:evenodd;fill:rgb(81.175232%,6.666565%,14.901733%);fill-opacity:1;" d="M 359.917969 312.203125 C 358.566406 312.007812 357.210938 313.523438 357.671875 315.464844 C 357.785156 315.8125 358.238281 316.492188 358.996094 317.183594 C 359.769531 317.886719 360.847656 318.636719 362.171875 319.316406 C 364.828125 320.667969 368.484375 321.714844 372.742188 321.5625 L 372.136719 321.5625 C 376.460938 321.636719 378.78125 321.097656 381.800781 319.753906 C 384.359375 318.628906 386.5625 317.769531 386.714844 314.722656 C 386.714844 314.199219 386.597656 313.894531 386.402344 313.640625 C 386.207031 313.390625 385.902344 313.199219 385.519531 313.082031 C 384.75 312.859375 383.863281 313.457031 383.09375 313.796875 C 381.449219 314.527344 377.96875 316.511719 372.136719 316.5625 C 369.0625 316.667969 366.796875 315.679688 364.453125 314.625 C 361.644531 313.363281 361.25 312.460938 359.917969 312.203125 Z M 359.917969 312.203125 "/>
<path style=" stroke:none;fill-rule:evenodd;fill:rgb(81.175232%,6.666565%,14.901733%);fill-opacity:1;" d="M 357.519531 319.113281 C 355.941406 318.921875 354.351562 320.4375 354.890625 322.375 C 355.019531 322.726562 355.554688 323.40625 356.4375 324.097656 C 357.339844 324.800781 358.605469 325.550781 360.160156 326.230469 C 363.273438 327.582031 367.554688 328.628906 372.546875 328.472656 L 371.835938 328.472656 C 376.902344 328.550781 379.621094 328.011719 383.164062 326.667969 C 386.160156 325.539062 388.738281 324.683594 388.917969 321.636719 C 388.917969 321.113281 388.785156 320.804688 388.554688 320.554688 C 388.324219 320.304688 387.96875 320.109375 387.519531 319.996094 C 386.621094 319.769531 385.578125 320.371094 384.675781 320.710938 C 382.75 321.4375 378.671875 323.425781 371.839844 323.476562 C 368.234375 323.582031 365.578125 322.59375 362.828125 321.539062 C 359.539062 320.277344 359.078125 319.371094 357.519531 319.113281 Z M 357.519531 319.113281 "/>
<path style=" stroke:none;fill-rule:evenodd;fill:rgb(81.175232%,6.666565%,14.901733%);fill-opacity:1;" d="M 496.992188 330.542969 C 488.324219 329.625 480.773438 324.132812 477.121094 316.085938 C 475.898438 313.386719 475.929688 312.691406 477.234375 313.628906 C 479.4375 315.21875 482.582031 316.621094 483.933594 316.621094 C 485.050781 316.621094 485.972656 317.191406 488.152344 319.230469 C 492.378906 323.183594 497.109375 324.207031 495.054688 320.722656 C 493.613281 318.28125 494.011719 316.628906 497.105469 312.332031 C 498.65625 310.171875 500.128906 308.390625 500.375 308.375 C 500.628906 308.351562 501.882812 309.808594 503.167969 311.601562 C 505.933594 315.457031 506.789062 318.359375 505.769531 320.414062 C 504.875 322.21875 504.941406 323.394531 505.933594 323.394531 C 507.023438 323.394531 510.78125 321.007812 513.019531 318.894531 C 514.238281 317.75 515.566406 317.011719 517.085938 316.648438 C 518.328125 316.355469 520.429688 315.5 521.757812 314.753906 C 523.089844 314.011719 524.269531 313.492188 524.382812 313.609375 C 524.925781 314.152344 521.320312 320.277344 518.984375 322.78125 C 514.453125 327.636719 510.089844 329.808594 503.511719 330.484375 C 501.539062 330.683594 498.605469 330.710938 496.992188 330.542969 Z M 496.992188 330.542969 "/>
<path style=" stroke:none;fill-rule:evenodd;fill:rgb(81.175232%,6.666565%,14.901733%);fill-opacity:1;" d="M 508.007812 319.597656 C 507.867188 319.226562 507.863281 318.734375 508.007812 318.503906 C 508.550781 317.625 506.828125 313.441406 504.695312 310.46875 C 503.472656 308.761719 502.144531 306.90625 501.742188 306.347656 C 501.339844 305.789062 500.757812 305.332031 500.449219 305.332031 C 499.789062 305.332031 495.515625 311.140625 493.71875 314.476562 C 493.035156 315.746094 492.476562 317.457031 492.476562 318.28125 C 492.476562 319.109375 492.257812 319.785156 491.992188 319.785156 C 490.75 319.785156 488.300781 317.1875 486.945312 314.433594 C 485.574219 311.644531 485.476562 311.136719 485.5 306.917969 C 485.527344 301.582031 486.3125 298.203125 489.230469 290.878906 C 491.101562 286.179688 491.300781 285.324219 491.320312 281.851562 C 491.34375 277.664062 490.554688 275.476562 488.242188 273.320312 C 486.867188 272.035156 487.070312 271.464844 488.910156 271.464844 C 490.617188 271.464844 493.300781 272.832031 494.644531 274.390625 C 495.929688 275.871094 496.75 275.390625 497.148438 272.921875 C 497.296875 271.992188 498.015625 270.523438 498.75 269.65625 C 499.855469 268.347656 500.222656 268.15625 500.910156 268.558594 C 502.144531 269.277344 503.765625 272.777344 503.765625 274.71875 C 503.765625 276.949219 504.464844 276.917969 506.71875 274.585938 C 508.714844 272.527344 510.066406 271.726562 512.230469 271.316406 C 514.1875 270.941406 514.152344 271.75 512.132812 273.707031 C 509.785156 275.980469 508.613281 278.824219 508.585938 282.300781 C 508.5625 285.648438 509.015625 287.277344 511.488281 292.730469 C 513.820312 297.871094 515.054688 302.851562 515.054688 307.128906 C 515.054688 311.730469 514.128906 314.648438 511.847656 317.242188 C 509.578125 319.820312 508.375 320.554688 508.007812 319.597656 Z M 508.007812 319.597656 "/>
<path style=" stroke:none;fill-rule:evenodd;fill:rgb(81.175232%,6.666565%,14.901733%);fill-opacity:1;" d="M 504.671875 270.570312 C 503.535156 268.34375 501.160156 265.59375 500.371094 265.59375 C 499.65625 265.59375 496.085938 269.550781 496.085938 270.34375 C 496.085938 270.648438 495.808594 271.136719 495.464844 271.421875 C 494.980469 271.820312 494.429688 271.664062 492.996094 270.726562 C 490.660156 269.199219 489.609375 266.359375 489.640625 261.675781 C 489.667969 257.589844 490.324219 254.796875 492.582031 249.160156 C 494.222656 245.0625 494.359375 244.402344 494.203125 241.253906 C 494.007812 237.09375 492.878906 234.539062 489.71875 231.082031 C 488.5 229.753906 487.507812 228.539062 487.507812 228.390625 C 487.507812 228.238281 488.449219 228.113281 489.601562 228.113281 C 491.925781 228.113281 493.84375 229.089844 495.773438 231.25 C 496.445312 232.011719 497.171875 232.628906 497.390625 232.628906 C 497.601562 232.628906 497.917969 231.5625 498.085938 230.257812 C 498.429688 227.652344 499.363281 225.855469 500.375 225.855469 C 501.332031 225.855469 502.410156 228.242188 502.410156 230.363281 C 502.410156 232.945312 503.332031 233.105469 505.34375 230.886719 C 506.246094 229.886719 507.683594 228.835938 508.539062 228.554688 C 510.140625 228.023438 512.578125 228.304688 513.054688 229.070312 C 513.203125 229.3125 512.476562 230.429688 511.441406 231.554688 C 506.894531 236.488281 505.976562 242.042969 508.648438 248.496094 C 510.828125 253.761719 511.558594 257.496094 511.328125 262.207031 C 511.082031 267.300781 510.164062 269.640625 507.804688 271.199219 C 506.835938 271.84375 505.941406 272.367188 505.816406 272.367188 C 505.691406 272.367188 505.179688 271.558594 504.671875 270.570312 Z M 504.671875 270.570312 "/>
<path style=" stroke:none;fill-rule:evenodd;fill:rgb(81.175232%,6.666565%,14.901733%);fill-opacity:1;" d="M 494.175781 227.011719 C 491.84375 225.296875 491.070312 223.664062 491.070312 220.4375 C 491.070312 218.78125 491.375 217.890625 492.460938 216.390625 C 494.074219 214.167969 493.773438 213.46875 491.507812 214.117188 C 487.859375 215.164062 486.109375 214.210938 485.988281 211.097656 C 485.929688 209.578125 486.25 208.929688 488.296875 206.46875 C 489.9375 204.5 490.53125 203.464844 490.210938 203.140625 C 489.890625 202.820312 487.949219 204.5 483.972656 208.546875 C 480.796875 211.773438 477.226562 215.074219 476.039062 215.878906 C 469.210938 220.496094 462.683594 221.207031 459.699219 217.660156 C 458.171875 215.851562 458.257812 214.824219 460.023438 213.726562 C 460.832031 213.230469 462.203125 212.078125 463.070312 211.167969 C 465.117188 209.03125 471.21875 204.625 474.25 203.101562 C 476.703125 201.863281 477.292969 201.019531 475.699219 201.019531 C 473.625 201.019531 466.984375 205.34375 461.953125 209.96875 C 460.46875 211.335938 458.339844 212.851562 457.222656 213.347656 C 454.707031 214.460938 449.773438 214.867188 447.578125 214.140625 C 446.023438 213.628906 443.203125 210.96875 443.203125 210.015625 C 443.203125 209.761719 443.847656 209.210938 444.632812 208.789062 C 445.417969 208.363281 446.824219 207.351562 447.757812 206.53125 C 451.78125 203 459.414062 199.363281 465.476562 198.09375 C 467.398438 197.6875 466.683594 196.714844 464.539062 196.8125 C 460.382812 196.996094 452.128906 200.859375 447.191406 204.929688 C 441.414062 209.695312 432.699219 209.246094 429.894531 204.035156 C 429.414062 203.140625 429.128906 202.300781 429.261719 202.164062 C 429.390625 202.03125 431.113281 201.515625 433.078125 201.019531 C 435.203125 200.484375 439.410156 198.742188 443.425781 196.742188 C 449.761719 193.582031 451.628906 192.90625 455.992188 192.210938 C 457.945312 191.898438 458.046875 190.941406 456.144531 190.714844 C 453.691406 190.425781 449.933594 191.652344 443.300781 194.917969 C 434.773438 199.113281 432.378906 199.835938 427.886719 199.566406 C 423.789062 199.324219 421.480469 198.269531 418.15625 195.121094 C 415.980469 193.0625 412.890625 187.828125 413.5 187.222656 C 413.640625 187.078125 414.640625 187.222656 415.722656 187.539062 C 416.921875 187.890625 420.34375 188.121094 424.460938 188.132812 C 430.238281 188.148438 431.769531 187.996094 434.847656 187.101562 C 439.988281 185.613281 446.835938 182.140625 451.511719 178.648438 C 460.460938 171.953125 467.761719 169.261719 477.070312 169.222656 C 485.660156 169.1875 491.121094 171.171875 495.964844 176.082031 C 497.601562 177.742188 499 178.820312 499.226562 178.59375 C 499.445312 178.375 499.679688 175.472656 499.75 172.144531 C 499.75 172.144531 502.28125 171.898438 502.8125 172.609375 C 502.8125 178.011719 502.871094 178.4375 503.660156 178.4375 C 504.175781 178.4375 504.726562 177.910156 505.066406 177.089844 C 505.796875 175.320312 508.523438 172.894531 511.425781 171.421875 C 517.71875 168.234375 528.59375 168.136719 537.328125 171.191406 C 541.003906 172.476562 545.089844 174.789062 548.980469 177.78125 C 552.878906 180.78125 560.859375 184.800781 565.578125 186.140625 C 570.347656 187.488281 578.757812 187.835938 583.070312 186.851562 C 584.847656 186.449219 586.515625 186.117188 586.777344 186.117188 C 588.367188 186.117188 585.65625 191.421875 582.480469 194.523438 C 576.667969 200.199219 569.105469 200.171875 558.460938 194.4375 C 551.832031 190.867188 543.90625 188.917969 543.90625 190.859375 C 543.90625 191.265625 544.320312 191.535156 544.9375 191.535156 C 547.242188 191.535156 551.695312 193.082031 557.902344 196.03125 C 564.617188 199.222656 568.390625 200.570312 570.628906 200.570312 C 572.25 200.570312 572.300781 201.574219 570.789062 203.800781 C 569.179688 206.167969 566.457031 207.34375 562.613281 207.328125 C 558.9375 207.320312 556.894531 206.515625 553.613281 203.785156 C 548.121094 199.21875 534.433594 194.117188 534.957031 196.839844 C 535.0625 197.382812 535.726562 197.71875 537.132812 197.929688 C 541.898438 198.65625 547.488281 201.328125 553.210938 205.613281 C 554.976562 206.9375 556.804688 208.242188 557.273438 208.515625 C 558.054688 208.976562 558.070312 209.117188 557.449219 210.28125 C 556.421875 212.191406 553.835938 213.679688 551.027344 213.972656 C 547.398438 214.34375 544.234375 213.265625 540.96875 210.53125 C 534.0625 204.75 527.558594 200.570312 525.476562 200.570312 C 523.769531 200.570312 524.535156 201.503906 527.539062 203.097656 C 531.480469 205.1875 535.535156 208.019531 538.519531 210.757812 C 539.933594 212.058594 541.519531 213.355469 542.046875 213.636719 C 543.296875 214.308594 543.25 215.28125 541.875 217.085938 C 540.476562 218.917969 538.148438 219.71875 535.144531 219.40625 C 529.144531 218.769531 524.464844 215.875 517.109375 208.246094 C 514.234375 205.265625 511.671875 202.828125 511.410156 202.828125 C 510.429688 202.828125 511.003906 204.15625 512.898438 206.273438 C 515.25 208.902344 515.703125 210.382812 514.8125 212.515625 C 514.023438 214.398438 512.722656 214.835938 510.035156 214.113281 C 507.296875 213.378906 506.871094 214.050781 508.664062 216.285156 C 511.347656 219.625 510.949219 223.710938 507.664062 226.523438 C 506.640625 227.398438 505.574219 228.113281 505.289062 228.113281 C 505 228.113281 504.277344 227.367188 503.675781 226.457031 C 501.5625 223.25 499.703125 223.265625 497.652344 226.515625 C 496.941406 227.644531 496.335938 228.558594 496.3125 228.554688 C 496.285156 228.546875 495.324219 227.855469 494.175781 227.011719 Z M 494.175781 227.011719 "/>
<path style=" stroke:none;fill-rule:evenodd;fill:rgb(81.175232%,6.666565%,14.901733%);fill-opacity:1;" d="M 504.632812 161.824219 L 501.070312 164.640625 L 497.875 162.234375 L 497.875 181.5 L 504.632812 181.585938 Z M 504.632812 161.824219 "/>
<path style=" stroke:none;fill-rule:evenodd;fill:rgb(81.175232%,6.666565%,14.901733%);fill-opacity:1;" d="M 497.882812 137.195312 C 494.789062 137.25 491.519531 137.296875 488.585938 137.871094 C 486.546875 138.273438 484.699219 138.925781 483.15625 140.019531 C 483.414062 145.941406 511.628906 148.414062 519.207031 140.132812 C 517.609375 138.96875 515.667969 138.285156 513.53125 137.871094 C 510.703125 137.320312 507.578125 137.261719 504.609375 137.214844 C 504.613281 138.839844 504.625 140.472656 504.625 142.101562 L 497.882812 142.082031 C 497.882812 140.417969 497.882812 138.644531 497.882812 137.195312 Z M 497.882812 137.195312 "/>
<path style=" stroke:none;fill-rule:evenodd;fill:rgb(81.175232%,6.666565%,14.901733%);fill-opacity:1;" d="M 503.398438 107.804688 L 501.71875 124.21875 L 518.613281 132.46875 L 510.0625 121.039062 L 521.738281 117.257812 Z M 503.398438 107.804688 "/>
<path style=" stroke:none;fill-rule:evenodd;fill:rgb(81.175232%,6.666565%,14.901733%);fill-opacity:1;" d="M 501.515625 103.53125 C 498.949219 103.53125 497.054688 104.484375 497.054688 105.625 C 497.054688 106.761719 498.949219 107.726562 501.515625 107.726562 C 504.078125 107.726562 505.960938 106.761719 505.960938 105.625 C 505.960938 104.484375 504.078125 103.53125 501.515625 103.53125 Z M 501.515625 103.53125 "/>
<path style=" stroke:none;fill-rule:evenodd;fill:rgb(81.175232%,6.666565%,14.901733%);fill-opacity:1;" d="M 503.40625 106.921875 L 499.019531 106.957031 L 499.019531 141.253906 L 503.488281 141.269531 Z M 503.40625 106.921875 "/>
<path style=" stroke:none;fill-rule:evenodd;fill:rgb(81.175232%,6.666565%,14.901733%);fill-opacity:1;" d="M 482.5625 141.839844 C 481.851562 150.945312 479.542969 157.300781 476.328125 164.308594 L 484.03125 157.164062 L 489.394531 163.527344 L 495.203125 157.050781 L 501.121094 162.523438 L 506.820312 156.828125 L 512.734375 163.75 L 517.875 158.054688 L 526.585938 164.308594 C 523.421875 157.296875 519.144531 151.355469 519.683594 141.503906 C 511.242188 147.769531 491.191406 148.898438 482.5625 141.839844 Z M 482.5625 141.839844 "/>
<path style=" stroke:none;fill-rule:evenodd;fill:rgb(99.998474%,79.998779%,0%);fill-opacity:1;" d="M 539.925781 386.730469 C 539.929688 387.324219 539.339844 387.867188 538.691406 387.867188 C 538.042969 387.867188 537.453125 387.324219 537.453125 386.730469 C 537.453125 386.136719 538.042969 385.59375 538.691406 385.59375 C 539.339844 385.59375 539.929688 386.136719 539.925781 386.730469 Z M 539.925781 386.730469 "/>
<path style=" stroke:none;fill-rule:evenodd;fill:rgb(99.998474%,79.998779%,0%);fill-opacity:1;" d="M 544.296875 385.273438 C 544.300781 385.867188 543.710938 386.410156 543.0625 386.410156 C 542.414062 386.410156 541.824219 385.867188 541.828125 385.273438 C 541.824219 384.675781 542.414062 384.132812 543.0625 384.132812 C 543.710938 384.132812 544.300781 384.675781 544.296875 385.273438 Z M 544.296875 385.273438 "/>
</g>
</svg>
