<?xml version="1.0" encoding="UTF-8"?>
<svg xmlns="http://www.w3.org/2000/svg" xmlns:xlink="http://www.w3.org/1999/xlink" width="128pt" height="64pt" viewBox="0 0 128 64" version="1.1">
<g id="surface176">
<rect x="0" y="0" width="128" height="64" style="fill:rgb(96.861267%,87.841797%,9.01947%);fill-opacity:1;stroke:none;"/>
<path style=" stroke:none;fill-rule:evenodd;fill:rgb(99.998474%,99.998474%,99.998474%);fill-opacity:1;" d="M 128 31.109375 L 128 46.222656 L 0 19.554688 L 0 4.445312 Z M 128 31.109375 "/>
<path style=" stroke:none;fill-rule:evenodd;fill:rgb(0%,0%,0%);fill-opacity:1;" d="M 128 46.222656 L 128 59.554688 L 0 32.890625 L 0 19.554688 Z M 128 46.222656 "/>
<path style=" stroke:none;fill-rule:evenodd;fill:rgb(81.175232%,6.666565%,14.901733%);fill-opacity:1;" d="M 61.84375 50.640625 C 60.121094 50.414062 58.542969 49.867188 57.449219 49.113281 C 57.234375 48.96875 57.035156 48.851562 57.003906 48.851562 C 56.972656 48.851562 56.949219 49.011719 56.949219 49.210938 C 56.949219 49.777344 56.71875 50.0625 56.148438 50.210938 C 55.597656 50.355469 54.765625 50.066406 54.085938 49.503906 C 53.386719 48.921875 52.574219 48.480469 51.890625 48.300781 C 51.324219 48.152344 50.578125 48.175781 50.035156 48.359375 C 49.785156 48.445312 49.496094 48.5625 49.398438 48.625 C 49.300781 48.683594 49.1875 48.734375 49.152344 48.734375 C 49.054688 48.734375 49.070312 48.125 49.171875 47.933594 C 49.304688 47.675781 49.628906 47.425781 50.007812 47.285156 C 50.203125 47.214844 50.359375 47.125 50.359375 47.085938 C 50.359375 47.046875 50.292969 46.898438 50.214844 46.761719 C 49.957031 46.308594 50.0625 45.871094 50.511719 45.527344 C 50.972656 45.175781 51.753906 45.117188 52.441406 45.378906 C 52.617188 45.445312 52.777344 45.5 52.800781 45.5 C 52.890625 45.5 52.835938 45.371094 52.585938 45.007812 C 52.296875 44.585938 52.242188 44.378906 52.277344 43.878906 C 52.324219 43.242188 52.839844 42.722656 53.476562 42.675781 C 53.992188 42.640625 54.3125 42.8125 55.078125 43.542969 C 57.359375 45.714844 59.835938 46.914062 62.726562 47.238281 C 63.457031 47.320312 64.925781 47.277344 65.789062 47.148438 C 68.390625 46.753906 71.011719 45.445312 73.058594 43.519531 C 73.625 42.984375 73.898438 42.84375 74.363281 42.839844 C 74.765625 42.839844 75.050781 42.96875 75.339844 43.289062 C 75.605469 43.582031 75.695312 43.863281 75.664062 44.304688 C 75.648438 44.59375 75.601562 44.730469 75.429688 45.007812 C 75.179688 45.417969 75.222656 45.453125 75.71875 45.261719 C 76.390625 45 77.214844 45.121094 77.660156 45.542969 C 78.050781 45.917969 78.089844 46.289062 77.785156 46.792969 C 77.675781 46.980469 77.582031 47.152344 77.582031 47.179688 C 77.582031 47.230469 77.667969 47.253906 78.074219 47.320312 C 78.605469 47.40625 78.914062 47.800781 78.914062 48.40625 C 78.914062 48.585938 78.890625 48.734375 78.863281 48.734375 C 78.835938 48.734375 78.632812 48.660156 78.414062 48.570312 C 77.792969 48.316406 77.441406 48.25 76.714844 48.253906 C 76.164062 48.257812 75.972656 48.28125 75.589844 48.40625 C 75 48.601562 74.367188 48.972656 73.855469 49.429688 C 73.289062 49.933594 72.933594 50.09375 72.382812 50.089844 C 71.871094 50.085938 71.519531 49.9375 71.335938 49.644531 C 71.234375 49.488281 71.222656 49.390625 71.246094 49.039062 C 71.261719 48.808594 71.257812 48.621094 71.238281 48.621094 C 71.21875 48.621094 71.019531 48.746094 70.796875 48.902344 C 70.207031 49.308594 69.828125 49.507812 69.152344 49.773438 C 67.09375 50.589844 64.121094 50.941406 61.84375 50.640625 Z M 61.84375 50.640625 "/>
<path style=" stroke:none;fill-rule:evenodd;fill:rgb(99.998474%,79.998779%,0%);fill-opacity:1;" d="M 71.351562 47.976562 C 71.71875 47.789062 72.199219 47.300781 72.398438 46.914062 C 72.554688 46.605469 72.574219 46.5 72.59375 45.960938 C 72.613281 45.464844 72.597656 45.316406 72.511719 45.152344 C 72.417969 44.964844 72.386719 44.949219 72.152344 44.949219 C 71.921875 44.949219 71.878906 44.972656 71.761719 45.144531 C 71.59375 45.398438 71.574219 45.9375 71.730469 46.128906 C 71.828125 46.25 71.839844 46.253906 72.046875 46.167969 C 72.332031 46.046875 72.382812 46.050781 72.378906 46.207031 C 72.378906 46.597656 71.816406 47.355469 71.226562 47.757812 C 71.066406 47.867188 70.925781 47.988281 70.910156 48.027344 C 70.867188 48.140625 71.085938 48.113281 71.351562 47.976562 Z M 71.351562 47.976562 "/>
<path style=" stroke:none;fill-rule:evenodd;fill:rgb(99.998474%,83.135986%,16.470337%);fill-opacity:1;" d="M 63.203125 50.117188 C 63.558594 50 63.761719 49.785156 63.90625 49.371094 C 63.976562 49.164062 64.027344 48.949219 64.015625 48.894531 C 63.984375 48.761719 63.832031 48.769531 63.664062 48.910156 C 63.546875 49.007812 63.53125 49.054688 63.566406 49.253906 C 63.648438 49.75 63.472656 49.875 62.53125 49.976562 C 62.4375 49.984375 62.167969 49.96875 61.929688 49.941406 C 61.480469 49.882812 61.320312 49.929688 61.484375 50.0625 C 61.53125 50.105469 61.65625 50.160156 61.761719 50.183594 C 62.011719 50.25 62.933594 50.207031 63.203125 50.117188 Z M 63.203125 50.117188 "/>
<path style=" stroke:none;fill-rule:evenodd;fill:rgb(99.998474%,83.135986%,16.470337%);fill-opacity:1;" d="M 65.15625 50.035156 C 65.210938 49.984375 65.394531 49.902344 65.5625 49.847656 C 65.792969 49.773438 65.910156 49.695312 66.003906 49.550781 C 66.28125 49.140625 66.230469 48.785156 65.824219 48.308594 C 65.601562 48.046875 65.503906 48.054688 65.328125 48.34375 C 65.179688 48.59375 65.179688 48.609375 65.398438 48.664062 C 65.515625 48.695312 65.625 48.777344 65.683594 48.882812 C 65.921875 49.296875 65.851562 49.550781 65.5 49.554688 C 65.179688 49.554688 65.09375 49.601562 65.007812 49.808594 C 64.960938 49.914062 64.925781 50.03125 64.925781 50.0625 C 64.925781 50.148438 65.046875 50.136719 65.15625 50.035156 Z M 65.15625 50.035156 "/>
<path style=" stroke:none;fill-rule:evenodd;fill:rgb(99.998474%,83.135986%,16.470337%);fill-opacity:1;" d="M 64.515625 49.570312 C 64.578125 49.40625 64.597656 49.109375 64.589844 48.511719 C 64.585938 48.054688 64.570312 47.667969 64.550781 47.648438 C 64.5 47.597656 64.234375 47.765625 64.199219 47.875 C 64.183594 47.929688 64.210938 48.0625 64.265625 48.167969 C 64.347656 48.324219 64.355469 48.472656 64.332031 49.097656 C 64.300781 49.882812 64.351562 50.015625 64.515625 49.570312 Z M 64.515625 49.570312 "/>
<path style=" stroke:none;fill-rule:evenodd;fill:rgb(99.998474%,83.135986%,16.470337%);fill-opacity:1;" d="M 63.011719 49.195312 C 63.042969 49.046875 63.085938 48.746094 63.105469 48.527344 C 63.121094 48.308594 63.167969 48.03125 63.203125 47.910156 C 63.292969 47.601562 63.203125 47.523438 62.960938 47.695312 L 62.777344 47.824219 L 62.816406 48.265625 C 62.851562 48.664062 62.789062 49.40625 62.695312 49.695312 C 62.671875 49.769531 62.707031 49.75 62.808594 49.632812 C 62.890625 49.539062 62.980469 49.339844 63.011719 49.195312 Z M 63.011719 49.195312 "/>
<path style=" stroke:none;fill-rule:evenodd;fill:rgb(99.998474%,83.135986%,16.470337%);fill-opacity:1;" d="M 61.679688 49.40625 C 61.890625 49.214844 61.933594 49.09375 62.015625 48.476562 C 62.054688 48.15625 62.105469 47.8125 62.125 47.710938 C 62.171875 47.476562 62.082031 47.460938 61.835938 47.660156 C 61.671875 47.789062 61.667969 47.808594 61.726562 48.003906 C 61.808594 48.265625 61.738281 48.914062 61.605469 49.113281 C 61.503906 49.265625 61.300781 49.300781 61.109375 49.195312 C 61.023438 49.152344 61.003906 49.097656 61.03125 48.964844 C 61.082031 48.71875 60.941406 48.691406 60.550781 48.867188 C 60.183594 49.03125 60.042969 49.019531 60.09375 48.820312 C 60.113281 48.742188 60.09375 48.664062 60.039062 48.617188 C 59.960938 48.550781 59.882812 48.554688 59.347656 48.632812 C 59.257812 48.644531 59.230469 48.617188 59.230469 48.503906 C 59.230469 48.425781 59.214844 48.332031 59.191406 48.296875 C 59.167969 48.261719 58.910156 48.234375 58.589844 48.226562 C 57.972656 48.21875 57.539062 48.117188 57.234375 47.910156 C 56.925781 47.703125 56.898438 47.539062 57.105469 47.136719 C 57.199219 46.949219 57.308594 46.707031 57.347656 46.589844 C 57.382812 46.476562 57.492188 46.308594 57.585938 46.21875 C 57.679688 46.128906 57.757812 46.03125 57.757812 46 C 57.757812 45.921875 57.367188 45.996094 57.207031 46.101562 C 57.09375 46.175781 57.078125 46.226562 57.101562 46.382812 C 57.136719 46.597656 57 46.917969 56.742188 47.226562 C 56.460938 47.558594 56.046875 47.421875 55.492188 46.808594 C 55.285156 46.578125 55.207031 46.527344 55.152344 46.578125 C 55.054688 46.675781 55.132812 47.015625 55.289062 47.160156 C 55.460938 47.324219 56.132812 47.636719 56.3125 47.636719 C 56.492188 47.640625 56.550781 47.679688 56.660156 47.890625 C 56.796875 48.15625 57.679688 48.421875 58.539062 48.460938 C 58.808594 48.472656 58.828125 48.484375 58.855469 48.648438 C 58.886719 48.820312 58.886719 48.820312 59.304688 48.839844 C 59.722656 48.855469 59.78125 48.882812 59.65625 49.007812 C 59.621094 49.042969 59.609375 49.117188 59.628906 49.167969 C 59.65625 49.246094 59.726562 49.253906 60.023438 49.226562 C 60.222656 49.207031 60.4375 49.179688 60.503906 49.164062 C 60.589844 49.144531 60.640625 49.183594 60.707031 49.328125 C 60.773438 49.472656 60.839844 49.523438 60.996094 49.550781 C 61.28125 49.601562 61.519531 49.550781 61.679688 49.40625 Z M 61.679688 49.40625 "/>
<path style=" stroke:none;fill-rule:evenodd;fill:rgb(99.998474%,79.998779%,0%);fill-opacity:1;" d="M 69.394531 49.089844 C 69.914062 48.835938 70.222656 48.546875 70.417969 48.128906 C 70.511719 47.933594 70.589844 47.746094 70.589844 47.714844 C 70.589844 47.640625 70.332031 47.519531 70.179688 47.519531 C 70.027344 47.519531 69.996094 47.417969 70.0625 47.125 C 70.125 46.839844 70.046875 46.480469 69.921875 46.480469 C 69.878906 46.480469 69.796875 46.546875 69.742188 46.628906 C 69.660156 46.753906 69.65625 46.808594 69.71875 46.988281 C 69.808594 47.261719 69.738281 47.460938 69.496094 47.632812 C 69.378906 47.714844 69.316406 47.808594 69.316406 47.902344 C 69.316406 47.976562 69.328125 48.042969 69.339844 48.042969 C 69.351562 48.042969 69.476562 47.976562 69.621094 47.898438 L 69.878906 47.75 L 70.03125 47.871094 C 70.117188 47.9375 70.183594 48.046875 70.183594 48.109375 C 70.183594 48.425781 69.28125 48.960938 68.664062 49.007812 C 68.332031 49.035156 68.277344 49.023438 68.164062 48.910156 C 68.070312 48.816406 68.042969 48.738281 68.066406 48.628906 C 68.082031 48.542969 68.117188 48.390625 68.136719 48.289062 C 68.195312 48.011719 68.074219 48.050781 67.871094 48.371094 C 67.703125 48.636719 67.652344 48.917969 67.746094 49.070312 C 67.824219 49.191406 68.339844 49.308594 68.703125 49.285156 C 68.929688 49.273438 69.15625 49.207031 69.394531 49.089844 Z M 69.394531 49.089844 "/>
<path style=" stroke:none;fill-rule:evenodd;fill:rgb(81.175232%,6.666565%,14.901733%);fill-opacity:1;" d="M 71.941406 45.757812 C 71.804688 45.550781 71.886719 45.296875 72.09375 45.296875 C 72.214844 45.296875 72.238281 45.324219 72.253906 45.5 C 72.265625 45.648438 72.238281 45.734375 72.15625 45.808594 C 72.046875 45.910156 72.039062 45.90625 71.941406 45.757812 Z M 71.941406 45.757812 "/>
<path style=" stroke:none;fill-rule:evenodd;fill:rgb(99.998474%,79.998779%,0%);fill-opacity:1;" d="M 72.867188 47.15625 C 73.191406 46.828125 73.332031 46.429688 73.332031 45.816406 L 73.335938 45.355469 L 73.605469 45.226562 C 73.957031 45.0625 74.289062 44.726562 74.289062 44.542969 C 74.289062 44.351562 74.203125 44.363281 74.050781 44.570312 C 73.941406 44.71875 73.789062 44.8125 73.246094 45.058594 C 73.109375 45.125 73.101562 45.15625 73.070312 45.730469 C 73.035156 46.394531 72.945312 46.640625 72.574219 47.09375 C 72.347656 47.371094 72.339844 47.40625 72.5 47.40625 C 72.5625 47.40625 72.726562 47.292969 72.867188 47.15625 Z M 72.867188 47.15625 "/>
<path style=" stroke:none;fill-rule:evenodd;fill:rgb(99.998474%,83.135986%,16.470337%);fill-opacity:1;" d="M 56.367188 46.71875 C 56.464844 46.59375 56.613281 46.339844 56.695312 46.152344 C 56.777344 45.96875 56.898438 45.757812 56.964844 45.683594 C 57.121094 45.515625 57.03125 45.414062 56.78125 45.46875 C 56.648438 45.496094 56.59375 45.546875 56.570312 45.660156 C 56.496094 46.039062 56.359375 46.425781 56.238281 46.605469 C 56.015625 46.929688 56.011719 46.945312 56.101562 46.945312 C 56.148438 46.945312 56.269531 46.839844 56.367188 46.71875 Z M 56.367188 46.71875 "/>
<path style=" stroke:none;fill-rule:evenodd;fill:rgb(99.998474%,79.998779%,0%);fill-opacity:1;" d="M 69.304688 46.785156 C 69.335938 46.691406 69.152344 46.621094 69.074219 46.699219 C 69.042969 46.734375 69.035156 46.789062 69.054688 46.824219 C 69.105469 46.910156 69.269531 46.882812 69.304688 46.785156 Z M 69.304688 46.785156 "/>
<path style=" stroke:none;fill-rule:evenodd;fill:rgb(99.998474%,83.135986%,16.470337%);fill-opacity:1;" d="M 55.15625 46.164062 C 55.453125 46.011719 55.734375 45.664062 55.734375 45.449219 C 55.734375 45.308594 55.496094 45.152344 55.28125 45.152344 C 55.1875 45.152344 55.007812 45.230469 54.863281 45.332031 C 54.417969 45.65625 53.9375 45.589844 53.675781 45.167969 C 53.460938 44.820312 53.234375 44.632812 53.035156 44.632812 C 52.785156 44.632812 52.777344 44.789062 53.019531 44.871094 C 53.136719 44.914062 53.234375 45.011719 53.316406 45.171875 C 53.550781 45.644531 53.691406 45.726562 54.316406 45.78125 L 54.722656 45.816406 L 54.742188 46.0625 C 54.75 46.195312 54.785156 46.308594 54.816406 46.308594 C 54.847656 46.308594 55 46.242188 55.15625 46.164062 Z M 55.15625 46.164062 "/>
<path style=" stroke:none;fill-rule:evenodd;fill:rgb(81.175232%,6.666565%,14.901733%);fill-opacity:1;" d="M 55.0625 45.757812 C 55.011719 45.625 55.082031 45.5 55.210938 45.5 C 55.332031 45.5 55.359375 45.585938 55.292969 45.753906 C 55.25 45.871094 55.105469 45.871094 55.0625 45.757812 Z M 55.0625 45.757812 "/>
<path style=" stroke:none;fill-rule:evenodd;fill:rgb(99.998474%,79.998779%,0%);fill-opacity:1;" d="M 74.214844 45.511719 C 74.246094 45.417969 74.066406 45.351562 73.988281 45.429688 C 73.957031 45.460938 73.945312 45.519531 73.96875 45.554688 C 74.019531 45.636719 74.183594 45.609375 74.214844 45.511719 Z M 74.214844 45.511719 "/>
<path style=" stroke:none;fill-rule:evenodd;fill:rgb(81.175232%,6.666565%,14.901733%);fill-opacity:1;" d="M 62.785156 46.679688 C 62.738281 46.671875 62.464844 46.632812 62.179688 46.597656 C 60.707031 46.402344 58.953125 45.792969 57.667969 45.027344 C 54.769531 43.300781 52.648438 40.304688 51.980469 36.992188 C 51.21875 33.207031 51.761719 29.949219 53.550781 27.574219 C 53.878906 27.140625 54.222656 26.785156 54.15625 26.945312 C 54.136719 26.992188 54.003906 27.324219 53.855469 27.679688 C 53.027344 29.6875 52.925781 31.808594 53.542969 34.167969 C 53.785156 35.105469 54.011719 35.707031 54.445312 36.539062 C 55.953125 39.464844 58.773438 41.621094 61.890625 42.226562 C 62.144531 42.277344 62.625 42.371094 62.960938 42.433594 C 63.835938 42.601562 64.3125 42.585938 65.5 42.34375 C 66.609375 42.117188 67.5 41.847656 68.304688 41.5 C 70.742188 40.441406 72.769531 38.425781 73.808594 36.019531 C 74.519531 34.371094 74.855469 31.953125 74.628906 30.09375 C 74.492188 28.96875 74.136719 27.738281 73.703125 26.871094 C 73.609375 26.6875 73.558594 26.539062 73.589844 26.539062 C 73.6875 26.539062 74.347656 27.347656 74.734375 27.9375 C 75.585938 29.238281 76.164062 30.851562 76.367188 32.515625 C 76.539062 33.882812 76.390625 36.074219 76.046875 37.34375 C 75.335938 39.957031 73.78125 42.433594 71.902344 43.953125 C 69.914062 45.566406 67.800781 46.402344 65.070312 46.652344 C 64.496094 46.707031 63.003906 46.726562 62.785156 46.679688 Z M 62.785156 46.679688 "/>
<path style=" stroke:none;fill-rule:evenodd;fill:rgb(99.998474%,79.998779%,0%);fill-opacity:1;" d="M 67.828125 45.570312 C 67.882812 45.523438 67.945312 45.394531 67.964844 45.285156 C 67.984375 45.175781 68.03125 45.078125 68.066406 45.066406 C 68.101562 45.058594 68.242188 45.019531 68.375 44.984375 C 68.539062 44.9375 68.671875 44.851562 68.773438 44.71875 C 69.003906 44.414062 68.980469 44.023438 68.683594 43.097656 C 68.546875 42.683594 68.417969 42.28125 68.398438 42.203125 C 68.339844 42.015625 68.292969 42.019531 68.125 42.238281 L 67.984375 42.421875 L 68.128906 42.59375 C 68.320312 42.820312 68.632812 43.761719 68.640625 44.140625 C 68.644531 44.34375 68.613281 44.496094 68.542969 44.601562 C 68.433594 44.769531 68.488281 44.765625 67.65625 44.652344 C 67.46875 44.628906 67.351562 44.648438 67.175781 44.742188 C 66.867188 44.902344 66.730469 44.894531 66.648438 44.714844 C 66.546875 44.496094 66.457031 44.578125 66.457031 44.894531 L 66.457031 45.179688 L 67.089844 45.179688 L 67.125 45.402344 C 67.144531 45.527344 67.195312 45.648438 67.238281 45.671875 C 67.34375 45.738281 67.707031 45.671875 67.828125 45.570312 Z M 67.828125 45.570312 "/>
<path style=" stroke:none;fill-rule:evenodd;fill:rgb(83.135986%,0%,0%);fill-opacity:1;" d="M 67.375 45.296875 C 67.257812 45.113281 67.308594 44.976562 67.496094 44.976562 C 67.601562 44.976562 67.660156 45.019531 67.699219 45.121094 C 67.816406 45.429688 67.554688 45.570312 67.375 45.296875 Z M 67.375 45.296875 "/>
<path style=" stroke:none;fill-rule:evenodd;fill:rgb(99.998474%,79.998779%,0%);fill-opacity:1;" d="M 60.0625 45.035156 C 60.242188 44.957031 60.460938 44.789062 60.640625 44.59375 L 60.929688 44.277344 L 61.265625 44.316406 C 61.679688 44.367188 61.6875 44.371094 61.6875 44.570312 C 61.6875 44.726562 61.699219 44.730469 62.078125 44.765625 C 62.292969 44.789062 62.574219 44.804688 62.707031 44.804688 C 62.875 44.804688 62.96875 44.835938 63.023438 44.914062 C 63.097656 45.019531 63.140625 45.023438 63.769531 44.964844 C 64.351562 44.914062 64.46875 44.917969 64.730469 45.007812 C 64.917969 45.070312 65.125 45.097656 65.28125 45.082031 C 65.730469 45.03125 66.347656 44.664062 66.4375 44.394531 C 66.449219 44.359375 66.613281 44.304688 66.800781 44.265625 C 67.253906 44.175781 67.273438 44.078125 66.851562 44.027344 C 66.667969 44.003906 66.394531 43.933594 66.238281 43.875 C 66.085938 43.8125 65.875 43.765625 65.773438 43.765625 C 65.546875 43.765625 65.328125 43.90625 65.328125 44.050781 C 65.328125 44.148438 65.363281 44.15625 65.632812 44.128906 C 65.886719 44.105469 65.960938 44.121094 66.09375 44.226562 C 66.183594 44.292969 66.238281 44.375 66.222656 44.40625 C 66.160156 44.503906 65.632812 44.742188 65.402344 44.78125 C 65.246094 44.804688 65.117188 44.789062 64.992188 44.722656 C 64.789062 44.617188 64.488281 44.601562 64.429688 44.695312 C 64.40625 44.734375 64.34375 44.707031 64.253906 44.625 L 64.113281 44.496094 L 63.800781 44.625 C 63.480469 44.757812 63.363281 44.75 63.363281 44.597656 C 63.363281 44.527344 63.269531 44.519531 62.800781 44.550781 C 62.28125 44.585938 62.226562 44.578125 62.132812 44.46875 C 62.042969 44.371094 62.039062 44.335938 62.101562 44.234375 C 62.160156 44.140625 62.160156 44.097656 62.105469 44.042969 C 62.050781 43.988281 61.976562 43.988281 61.773438 44.042969 C 61.257812 44.179688 61.109375 44.101562 61.109375 43.699219 C 61.109375 43.347656 60.820312 43.199219 60.535156 43.398438 C 60.0625 43.730469 59.941406 44.121094 60.261719 44.273438 C 60.496094 44.386719 60.4375 44.519531 60.066406 44.707031 C 59.535156 44.972656 59.066406 44.9375 58.179688 44.570312 C 57.960938 44.476562 57.902344 44.515625 57.953125 44.714844 C 58.003906 44.910156 58.179688 45.019531 58.628906 45.121094 C 59.105469 45.230469 59.6875 45.195312 60.0625 45.035156 Z M 60.0625 45.035156 "/>
<path style=" stroke:none;fill-rule:evenodd;fill:rgb(81.175232%,6.666565%,14.901733%);fill-opacity:1;" d="M 60.492188 43.902344 C 60.46875 43.84375 60.496094 43.773438 60.5625 43.726562 C 60.65625 43.660156 60.683594 43.660156 60.753906 43.730469 C 60.800781 43.777344 60.820312 43.855469 60.800781 43.90625 C 60.753906 44.023438 60.539062 44.023438 60.492188 43.902344 Z M 60.492188 43.902344 "/>
<path style=" stroke:none;fill-rule:evenodd;fill:rgb(99.998474%,79.998779%,0%);fill-opacity:1;" d="M 59.742188 44.054688 C 60.054688 43.855469 60.046875 43.871094 60.09375 43.316406 C 60.125 42.925781 60.121094 42.898438 60.015625 42.898438 C 59.859375 42.898438 59.78125 43.066406 59.78125 43.386719 C 59.78125 43.59375 59.75 43.6875 59.636719 43.796875 C 59.378906 44.058594 58.726562 43.9375 58.648438 43.613281 C 58.617188 43.5 58.652344 43.402344 58.789062 43.207031 C 59.074219 42.804688 59.007812 42.707031 58.660156 43.011719 C 58.421875 43.222656 58.378906 43.230469 58.425781 43.046875 C 58.46875 42.882812 58.378906 42.816406 58.1875 42.863281 C 58.085938 42.890625 58.03125 42.953125 58.007812 43.074219 C 57.984375 43.191406 57.929688 43.257812 57.835938 43.28125 C 57.679688 43.320312 57.410156 43.171875 57.410156 43.042969 C 57.410156 42.949219 57.8125 42.460938 58.328125 41.921875 C 58.523438 41.722656 58.683594 41.53125 58.683594 41.503906 C 58.683594 41.476562 58.578125 41.453125 58.449219 41.453125 C 58.265625 41.453125 58.21875 41.472656 58.21875 41.558594 C 58.21875 41.617188 57.960938 41.957031 57.640625 42.316406 C 56.980469 43.0625 56.921875 43.21875 57.25 43.417969 C 57.515625 43.578125 57.855469 43.566406 58.121094 43.386719 L 58.335938 43.238281 L 58.335938 43.507812 C 58.335938 43.84375 58.402344 43.96875 58.667969 44.109375 C 59.003906 44.285156 59.410156 44.265625 59.742188 44.054688 Z M 59.742188 44.054688 "/>
<path style=" stroke:none;fill-rule:evenodd;fill:rgb(99.998474%,79.998779%,0%);fill-opacity:1;" d="M 69.289062 43.730469 C 69.289062 43.363281 69.300781 43.332031 69.40625 43.351562 C 70.066406 43.46875 70.371094 43.382812 70.660156 42.988281 C 70.816406 42.773438 70.828125 42.71875 70.808594 42.386719 L 70.785156 42.019531 L 71.105469 42.058594 C 71.6875 42.128906 71.695312 42.132812 71.65625 42.371094 C 71.542969 43.019531 71.339844 43.375 70.839844 43.804688 C 70.492188 44.101562 70.492188 44.246094 70.84375 44.082031 C 71.140625 43.941406 71.484375 43.585938 71.667969 43.230469 C 71.804688 42.972656 71.828125 42.855469 71.832031 42.441406 C 71.835938 42.007812 71.847656 41.949219 71.96875 41.851562 C 72.070312 41.769531 72.179688 41.746094 72.421875 41.757812 C 72.707031 41.769531 72.75 41.753906 72.882812 41.601562 C 72.996094 41.46875 73.019531 41.394531 72.992188 41.25 C 72.941406 40.980469 72.996094 40.886719 73.304688 40.730469 C 73.722656 40.519531 73.882812 40.292969 73.882812 39.925781 C 73.882812 39.589844 73.78125 39.390625 73.632812 39.445312 C 73.519531 39.488281 73.503906 39.78125 73.605469 39.941406 C 73.640625 40 73.65625 40.09375 73.632812 40.144531 C 73.582031 40.285156 73.269531 40.453125 72.984375 40.496094 C 72.628906 40.550781 72.382812 40.738281 72.195312 41.105469 C 71.898438 41.6875 71.941406 41.660156 71.683594 41.425781 C 71.289062 41.070312 70.9375 41.164062 70.789062 41.667969 L 70.722656 41.886719 L 70.617188 41.667969 C 70.507812 41.449219 70.378906 41.394531 70.253906 41.523438 C 70.140625 41.632812 70.175781 41.8125 70.359375 42.082031 C 70.453125 42.222656 70.53125 42.398438 70.53125 42.476562 C 70.53125 42.832031 70.195312 43.117188 69.875 43.039062 C 69.703125 42.996094 69.546875 42.753906 69.546875 42.523438 C 69.546875 42.316406 69.394531 42.335938 69.347656 42.550781 C 69.269531 42.90625 69.105469 42.761719 69.035156 42.269531 C 68.988281 41.933594 68.867188 41.917969 68.71875 42.222656 C 68.625 42.414062 68.621094 42.453125 68.695312 42.539062 C 68.855469 42.71875 69.101562 43.441406 69.132812 43.808594 C 69.171875 44.3125 69.289062 44.253906 69.289062 43.730469 Z M 69.289062 43.730469 "/>
<path style=" stroke:none;fill-rule:evenodd;fill:rgb(81.175232%,6.666565%,14.901733%);fill-opacity:1;" d="M 71.199219 41.777344 C 71.054688 41.675781 71.121094 41.511719 71.300781 41.511719 C 71.46875 41.511719 71.597656 41.644531 71.550781 41.769531 C 71.507812 41.878906 71.339844 41.882812 71.199219 41.777344 Z M 71.199219 41.777344 "/>
<path style=" stroke:none;fill-rule:evenodd;fill:rgb(81.175232%,6.666565%,14.901733%);fill-opacity:1;" d="M 72.464844 41.390625 C 72.421875 41.25 72.527344 41.105469 72.675781 41.105469 C 72.789062 41.105469 72.820312 41.238281 72.75 41.417969 C 72.699219 41.550781 72.511719 41.53125 72.464844 41.390625 Z M 72.464844 41.390625 "/>
<path style=" stroke:none;fill-rule:evenodd;fill:rgb(99.998474%,79.998779%,0%);fill-opacity:1;" d="M 57.34375 43.6875 C 57.351562 43.632812 57.324219 43.589844 57.273438 43.589844 C 57.167969 43.589844 57.101562 43.683594 57.152344 43.765625 C 57.203125 43.851562 57.320312 43.804688 57.34375 43.6875 Z M 57.34375 43.6875 "/>
<path style=" stroke:none;fill-rule:evenodd;fill:rgb(99.998474%,79.998779%,0%);fill-opacity:1;" d="M 61.859375 43.183594 C 61.859375 43.097656 61.828125 43.066406 61.761719 43.082031 C 61.609375 43.109375 61.59375 43.300781 61.742188 43.300781 C 61.824219 43.300781 61.859375 43.265625 61.859375 43.183594 Z M 61.859375 43.183594 "/>
<path style=" stroke:none;fill-rule:evenodd;fill:rgb(99.998474%,79.998779%,0%);fill-opacity:1;" d="M 55.589844 42.6875 L 55.75 42.476562 L 56.351562 42.519531 C 57.082031 42.566406 57.167969 42.527344 57.710938 41.882812 C 57.910156 41.644531 58.105469 41.453125 58.144531 41.453125 C 58.1875 41.453125 58.21875 41.386719 58.21875 41.308594 C 58.21875 41.097656 57.96875 41.109375 57.832031 41.320312 C 57.640625 41.632812 57.101562 42.214844 56.957031 42.269531 C 56.878906 42.300781 56.699219 42.304688 56.554688 42.285156 C 56.339844 42.253906 56.3125 42.234375 56.402344 42.1875 C 56.554688 42.101562 56.890625 41.753906 56.890625 41.683594 C 56.890625 41.589844 56.613281 41.503906 56.4375 41.546875 C 56.351562 41.566406 56.148438 41.65625 55.988281 41.746094 C 55.679688 41.914062 55.445312 41.917969 55.445312 41.753906 C 55.445312 41.707031 55.582031 41.519531 55.75 41.335938 C 55.914062 41.15625 56.125 40.925781 56.214844 40.828125 C 56.304688 40.726562 56.402344 40.644531 56.433594 40.644531 C 56.460938 40.644531 56.484375 40.605469 56.484375 40.554688 C 56.484375 40.496094 56.421875 40.46875 56.269531 40.46875 C 56.070312 40.46875 56.039062 40.492188 55.914062 40.730469 C 55.835938 40.875 55.683594 41.074219 55.570312 41.171875 C 55.40625 41.316406 55.332031 41.34375 55.179688 41.316406 C 54.882812 41.269531 54.695312 41.117188 54.695312 40.921875 C 54.695312 40.832031 54.65625 40.742188 54.613281 40.722656 C 54.488281 40.675781 54.289062 40.804688 54.289062 40.929688 C 54.289062 41.140625 54.367188 41.230469 54.699219 41.394531 C 54.992188 41.546875 55.035156 41.589844 55.050781 41.753906 C 55.066406 41.921875 55.089844 41.941406 55.230469 41.933594 C 55.460938 41.917969 55.550781 42.121094 55.421875 42.367188 C 55.324219 42.558594 55.296875 42.898438 55.378906 42.898438 C 55.410156 42.898438 55.503906 42.804688 55.589844 42.6875 Z M 55.589844 42.6875 "/>
<path style=" stroke:none;fill-rule:evenodd;fill:rgb(99.998474%,0%,99.998474%);fill-opacity:1;" d="M 55.851562 42.234375 C 55.851562 42.136719 55.902344 42.125 56.050781 42.183594 C 56.128906 42.210938 56.132812 42.230469 56.070312 42.269531 C 55.953125 42.34375 55.851562 42.328125 55.851562 42.234375 Z M 55.851562 42.234375 "/>
<path style=" stroke:none;fill-rule:evenodd;fill:rgb(81.175232%,6.666565%,14.901733%);fill-opacity:1;" d="M 56.082031 41.980469 C 56.082031 41.929688 56.335938 41.800781 56.429688 41.800781 C 56.542969 41.800781 56.480469 41.960938 56.355469 41.992188 C 56.171875 42.042969 56.082031 42.039062 56.082031 41.980469 Z M 56.082031 41.980469 "/>
<path style=" stroke:none;fill-rule:evenodd;fill:rgb(99.998474%,79.998779%,0%);fill-opacity:1;" d="M 59.925781 42.378906 C 59.925781 42.25 59.699219 42.269531 59.675781 42.394531 C 59.660156 42.476562 59.683594 42.496094 59.789062 42.484375 C 59.863281 42.472656 59.925781 42.425781 59.925781 42.378906 Z M 59.925781 42.378906 "/>
<path style=" stroke:none;fill-rule:evenodd;fill:rgb(99.998474%,79.998779%,0%);fill-opacity:1;" d="M 69.882812 41.496094 C 69.90625 41.375 69.742188 41.292969 69.652344 41.382812 C 69.566406 41.472656 69.644531 41.636719 69.765625 41.613281 C 69.820312 41.605469 69.875 41.550781 69.882812 41.496094 Z M 69.882812 41.496094 "/>
<path style=" stroke:none;fill-rule:evenodd;fill:rgb(99.998474%,79.998779%,0%);fill-opacity:1;" d="M 54.382812 40.273438 C 54.539062 40.140625 54.542969 40.132812 54.472656 39.835938 C 54.378906 39.421875 54.386719 39.378906 54.542969 39.339844 C 54.742188 39.289062 55.246094 39.558594 55.359375 39.777344 C 55.445312 39.945312 55.445312 39.957031 55.296875 40.09375 C 55.136719 40.242188 55.136719 40.410156 55.296875 40.410156 C 55.429688 40.410156 55.792969 40.066406 55.792969 39.945312 C 55.792969 39.773438 55.386719 39.367188 55.070312 39.21875 C 54.871094 39.125 54.675781 39.082031 54.445312 39.082031 C 54.039062 39.082031 53.980469 39.171875 54.09375 39.644531 C 54.222656 40.203125 54.046875 40.277344 53.597656 39.859375 C 53.265625 39.546875 53.132812 39.222656 53.132812 38.710938 C 53.136719 38.164062 53.34375 37.890625 53.816406 37.828125 C 54.132812 37.785156 54.125 37.710938 53.800781 37.664062 C 53.328125 37.59375 52.929688 37.90625 52.78125 38.46875 C 52.613281 39.09375 52.996094 39.851562 53.679688 40.242188 C 54.035156 40.445312 54.175781 40.453125 54.382812 40.273438 Z M 54.382812 40.273438 "/>
<path style=" stroke:none;fill-rule:evenodd;fill:rgb(99.998474%,79.998779%,0%);fill-opacity:1;" d="M 72.949219 39.589844 C 72.984375 39.554688 73.015625 39.46875 73.015625 39.398438 C 73.015625 39.332031 73.082031 39.191406 73.160156 39.082031 C 73.242188 38.976562 73.304688 38.863281 73.304688 38.839844 C 73.304688 38.730469 73.125 38.734375 72.984375 38.84375 C 72.835938 38.960938 72.726562 38.960938 72.726562 38.851562 C 72.726562 38.824219 72.796875 38.765625 72.882812 38.722656 C 73.09375 38.621094 73.113281 38.519531 72.933594 38.4375 C 72.703125 38.332031 72.472656 38.523438 72.449219 38.835938 C 72.433594 39.046875 72.453125 39.082031 72.613281 39.179688 C 72.761719 39.265625 72.789062 39.3125 72.761719 39.4375 C 72.722656 39.652344 72.8125 39.726562 72.949219 39.589844 Z M 72.949219 39.589844 "/>
<path style=" stroke:none;fill-rule:evenodd;fill:rgb(99.998474%,79.998779%,0%);fill-opacity:1;" d="M 74.691406 39.394531 C 74.820312 39.277344 74.925781 39.148438 74.925781 39.105469 C 74.925781 39.0625 75.035156 38.945312 75.167969 38.847656 C 75.554688 38.574219 75.636719 38.296875 75.464844 37.867188 C 75.398438 37.699219 75.1875 37.46875 74.734375 37.058594 C 74.382812 36.742188 74.0625 36.480469 74.019531 36.480469 C 73.894531 36.480469 73.917969 36.9375 74.042969 36.980469 C 74.269531 37.050781 74.40625 37.144531 74.765625 37.46875 C 75.183594 37.84375 75.375 38.195312 75.269531 38.390625 C 75.167969 38.582031 75.035156 38.523438 74.667969 38.128906 C 74.476562 37.921875 74.285156 37.753906 74.246094 37.753906 C 74.203125 37.753906 74.171875 37.828125 74.171875 37.933594 C 74.171875 38.0625 74.242188 38.191406 74.433594 38.402344 C 74.742188 38.746094 74.773438 38.953125 74.539062 39.136719 C 74.457031 39.203125 74.371094 39.257812 74.351562 39.257812 C 74.328125 39.257812 74.261719 39.152344 74.199219 39.027344 C 74.070312 38.765625 73.273438 37.925781 73.15625 37.925781 C 73.101562 37.925781 73.074219 37.992188 73.074219 38.128906 C 73.074219 38.289062 73.105469 38.34375 73.234375 38.410156 C 73.390625 38.492188 73.78125 38.882812 74.171875 39.359375 C 74.285156 39.492188 74.394531 39.601562 74.417969 39.601562 C 74.441406 39.601562 74.566406 39.507812 74.691406 39.394531 Z M 74.691406 39.394531 "/>
<path style=" stroke:none;fill-rule:evenodd;fill:rgb(99.998474%,79.998779%,0%);fill-opacity:1;" d="M 75.472656 37.164062 C 75.417969 37 74.355469 35.902344 74.246094 35.902344 C 74.1875 35.902344 74.171875 35.96875 74.183594 36.144531 C 74.199219 36.355469 74.222656 36.394531 74.367188 36.429688 C 74.460938 36.457031 74.738281 36.675781 74.992188 36.917969 C 75.242188 37.164062 75.460938 37.351562 75.480469 37.332031 C 75.5 37.3125 75.492188 37.238281 75.472656 37.164062 Z M 75.472656 37.164062 "/>
<path style=" stroke:none;fill-rule:evenodd;fill:rgb(81.175232%,6.666565%,14.901733%);fill-opacity:1;" d="M 82.488281 41.769531 C 82.71875 41.746094 82.953125 41.9375 82.875 42.1875 C 82.855469 42.230469 82.777344 42.316406 82.644531 42.40625 C 82.511719 42.496094 82.328125 42.59375 82.097656 42.679688 C 81.640625 42.851562 81.007812 42.988281 80.273438 42.96875 L 80.378906 42.96875 C 79.632812 42.976562 79.230469 42.90625 78.707031 42.734375 C 78.269531 42.589844 77.886719 42.480469 77.859375 42.09375 C 77.859375 42.023438 77.878906 41.984375 77.914062 41.953125 C 77.949219 41.921875 78 41.898438 78.066406 41.882812 C 78.199219 41.851562 78.351562 41.929688 78.484375 41.972656 C 78.769531 42.066406 79.371094 42.320312 80.378906 42.328125 C 80.90625 42.339844 81.300781 42.214844 81.703125 42.078125 C 82.1875 41.917969 82.257812 41.800781 82.488281 41.769531 Z M 82.488281 41.769531 "/>
<path style=" stroke:none;fill-rule:evenodd;fill:rgb(81.175232%,6.666565%,14.901733%);fill-opacity:1;" d="M 85.199219 26.90625 C 85.203125 26.90625 85.210938 26.910156 85.214844 26.910156 C 85.242188 26.917969 85.265625 26.9375 85.292969 26.984375 L 85.292969 26.988281 C 85.300781 27 85.324219 27.082031 85.328125 27.191406 C 85.335938 27.304688 85.332031 27.445312 85.324219 27.617188 C 85.304688 27.953125 85.253906 28.390625 85.183594 28.855469 C 85.039062 29.785156 84.804688 30.832031 84.558594 31.457031 C 84.316406 32.039062 83.785156 32.558594 83.269531 33.027344 C 82.753906 33.496094 82.25 33.902344 82.066406 34.324219 C 82.035156 34.402344 82.019531 34.507812 82 34.65625 C 81.984375 34.808594 81.96875 35 81.957031 35.222656 C 81.9375 35.671875 81.921875 36.246094 81.917969 36.863281 C 81.910156 37.84375 81.917969 38.921875 81.9375 39.777344 C 81.910156 39.789062 81.886719 39.796875 81.859375 39.808594 C 81.734375 39.867188 81.589844 39.941406 81.425781 40.015625 C 81.097656 40.164062 80.703125 40.308594 80.296875 40.296875 L 80.292969 40.296875 C 79.46875 40.292969 79.101562 40.050781 78.824219 39.941406 L 78.820312 39.941406 C 78.765625 39.921875 78.707031 39.90625 78.648438 39.894531 C 78.660156 39.113281 78.730469 33.675781 78.730469 32.730469 C 78.722656 32.472656 78.964844 32.140625 79.285156 31.847656 C 79.601562 31.554688 79.980469 31.292969 80.199219 31.128906 L 80.203125 31.125 L 80.207031 31.125 C 80.335938 31.007812 80.601562 30.726562 80.855469 30.449219 C 80.980469 30.308594 81.101562 30.167969 81.195312 30.054688 C 81.292969 29.941406 81.355469 29.863281 81.390625 29.796875 C 81.398438 29.777344 81.449219 29.710938 81.523438 29.640625 C 81.59375 29.574219 81.683594 29.5 81.785156 29.433594 C 81.882812 29.371094 81.992188 29.316406 82.085938 29.296875 C 82.179688 29.273438 82.257812 29.28125 82.320312 29.320312 C 82.375 29.355469 82.398438 29.410156 82.394531 29.511719 C 82.390625 29.613281 82.355469 29.753906 82.296875 29.898438 C 82.179688 30.1875 81.980469 30.511719 81.835938 30.707031 C 81.746094 30.828125 81.664062 31.03125 81.585938 31.265625 C 81.503906 31.5 81.433594 31.761719 81.378906 31.988281 C 81.328125 32.210938 81.292969 32.382812 81.300781 32.496094 C 81.300781 32.523438 81.292969 32.554688 81.34375 32.59375 C 81.371094 32.617188 81.414062 32.621094 81.441406 32.609375 C 81.464844 32.601562 81.476562 32.585938 81.488281 32.578125 C 81.53125 32.53125 81.558594 32.472656 81.609375 32.367188 L 81.609375 32.363281 C 81.683594 32.179688 81.964844 31.972656 82.320312 31.765625 C 82.679688 31.554688 83.105469 31.339844 83.449219 31.074219 C 83.53125 31.007812 83.550781 30.90625 83.578125 30.789062 C 83.601562 30.671875 83.625 30.527344 83.675781 30.347656 C 83.777344 29.988281 83.984375 29.496094 84.515625 28.867188 L 84.542969 28.835938 L 84.535156 28.792969 C 84.417969 28.195312 84.578125 27.621094 84.792969 27.265625 C 84.898438 27.089844 85.027344 26.96875 85.117188 26.925781 C 85.148438 26.910156 85.175781 26.90625 85.199219 26.90625 Z M 85.199219 26.90625 "/>
<path style=" stroke:none;fill-rule:evenodd;fill:rgb(81.175232%,6.666565%,14.901733%);fill-opacity:1;" d="M 84.316406 27.039062 C 84.355469 27.039062 84.390625 27.054688 84.425781 27.082031 C 84.492188 27.132812 84.542969 27.234375 84.539062 27.367188 C 84.363281 27.746094 84.257812 28.253906 84.355469 28.785156 C 83.824219 29.414062 83.609375 29.925781 83.503906 30.300781 C 83.453125 30.488281 83.429688 30.640625 83.40625 30.753906 C 83.382812 30.863281 83.355469 30.921875 83.335938 30.933594 C 83.015625 31.183594 82.597656 31.398438 82.234375 31.609375 C 81.9375 31.785156 81.671875 31.949219 81.523438 32.152344 C 81.53125 32.113281 81.542969 32.070312 81.550781 32.027344 C 81.582031 31.902344 81.617188 31.761719 81.660156 31.625 C 81.71875 31.476562 81.886719 31.285156 82.085938 31.128906 C 82.28125 30.976562 82.503906 30.855469 82.65625 30.820312 L 82.71875 30.804688 L 82.726562 30.738281 C 82.734375 30.570312 82.875 30.179688 83.066406 29.8125 C 83.257812 29.449219 83.511719 29.09375 83.714844 28.964844 L 83.753906 28.9375 L 83.753906 28.886719 C 83.722656 27.726562 83.980469 27.21875 84.179688 27.085938 C 84.230469 27.050781 84.277344 27.039062 84.316406 27.039062 Z M 84.316406 27.039062 "/>
<path style=" stroke:none;fill-rule:evenodd;fill:rgb(81.175232%,6.666565%,14.901733%);fill-opacity:1;" d="M 83.578125 27.253906 C 83.609375 27.257812 83.632812 27.265625 83.660156 27.300781 C 83.683594 27.328125 83.710938 27.386719 83.726562 27.46875 C 83.621094 27.78125 83.5625 28.226562 83.574219 28.847656 C 83.332031 29.023438 83.097656 29.371094 82.910156 29.730469 C 82.726562 30.078125 82.589844 30.425781 82.554688 30.664062 C 82.371094 30.722656 82.164062 30.84375 81.976562 30.992188 C 81.925781 31.03125 81.875 31.074219 81.828125 31.117188 C 81.882812 30.980469 81.9375 30.867188 81.976562 30.8125 C 82.128906 30.605469 82.335938 30.277344 82.460938 29.964844 C 82.503906 29.855469 82.539062 29.753906 82.558594 29.65625 C 82.761719 29.4375 82.960938 29.046875 82.910156 28.660156 C 82.867188 28.167969 83.074219 27.679688 83.296875 27.429688 C 83.40625 27.308594 83.519531 27.25 83.578125 27.253906 Z M 83.578125 27.253906 "/>
<path style=" stroke:none;fill-rule:evenodd;fill:rgb(81.175232%,6.666565%,14.901733%);fill-opacity:1;" d="M 82.742188 27.375 C 82.765625 27.375 82.789062 27.386719 82.824219 27.410156 C 82.867188 27.441406 82.917969 27.5 82.96875 27.589844 C 82.808594 27.882812 82.699219 28.273438 82.734375 28.679688 L 82.734375 28.683594 C 82.765625 28.910156 82.671875 29.171875 82.554688 29.363281 C 82.53125 29.285156 82.488281 29.214844 82.410156 29.167969 C 82.332031 29.117188 82.242188 29.105469 82.152344 29.109375 C 82.195312 28.5 82.320312 27.933594 82.484375 27.625 C 82.566406 27.460938 82.660156 27.382812 82.71875 27.375 C 82.726562 27.375 82.734375 27.375 82.742188 27.375 Z M 82.742188 27.375 "/>
<path style=" stroke:none;fill-rule:evenodd;fill:rgb(81.175232%,6.666565%,14.901733%);fill-opacity:1;" d="M 81.476562 32.476562 C 81.484375 32.492188 81.476562 32.492188 81.476562 32.484375 C 81.476562 32.484375 81.476562 32.480469 81.476562 32.476562 Z M 81.476562 32.476562 "/>
<path style=" stroke:none;fill-rule:evenodd;fill:rgb(81.175232%,6.666565%,14.901733%);fill-opacity:1;" d="M 78.644531 40.078125 C 78.6875 40.085938 78.722656 40.09375 78.757812 40.109375 C 78.902344 40.164062 79.121094 40.28125 79.457031 40.367188 L 78.640625 40.359375 C 78.640625 40.359375 78.644531 40.097656 78.644531 40.078125 Z M 78.644531 40.078125 "/>
<path style=" stroke:none;fill-rule:evenodd;fill:rgb(81.175232%,6.666565%,14.901733%);fill-opacity:1;" d="M 81.929688 39.960938 C 82.101562 39.9375 82.277344 40.132812 82.21875 40.378906 C 82.203125 40.425781 82.144531 40.511719 82.046875 40.597656 C 81.949219 40.691406 81.8125 40.785156 81.640625 40.871094 C 81.300781 41.046875 80.835938 41.179688 80.289062 41.160156 L 80.367188 41.160156 C 79.8125 41.167969 79.515625 41.101562 79.128906 40.929688 C 78.800781 40.785156 78.519531 40.675781 78.5 40.285156 C 78.5 40.21875 78.515625 40.179688 78.539062 40.144531 C 78.566406 40.113281 78.605469 40.089844 78.652344 40.074219 C 78.75 40.046875 78.867188 40.121094 78.964844 40.167969 C 79.175781 40.257812 79.621094 40.511719 80.367188 40.519531 C 80.761719 40.535156 81.050781 40.40625 81.351562 40.273438 C 81.710938 40.109375 81.761719 39.996094 81.929688 39.960938 Z M 81.929688 39.960938 "/>
<path style=" stroke:none;fill-rule:evenodd;fill:rgb(81.175232%,6.666565%,14.901733%);fill-opacity:1;" d="M 82.238281 40.847656 C 82.441406 40.820312 82.644531 41.015625 82.574219 41.265625 C 82.558594 41.308594 82.488281 41.394531 82.375 41.484375 C 82.261719 41.574219 82.097656 41.671875 81.898438 41.757812 C 81.5 41.929688 80.953125 42.066406 80.3125 42.042969 L 80.40625 42.042969 C 79.757812 42.054688 79.410156 41.984375 78.953125 41.8125 C 78.570312 41.667969 78.242188 41.558594 78.21875 41.167969 C 78.21875 41.101562 78.234375 41.0625 78.265625 41.03125 C 78.292969 41 78.339844 40.972656 78.398438 40.960938 C 78.511719 40.929688 78.644531 41.007812 78.761719 41.050781 C 79.007812 41.144531 79.53125 41.398438 80.40625 41.40625 C 80.867188 41.417969 81.207031 41.292969 81.558594 41.15625 C 81.980469 40.996094 82.039062 40.878906 82.238281 40.847656 Z M 82.238281 40.847656 "/>
<path style=" stroke:none;fill-rule:evenodd;fill:rgb(81.175232%,6.666565%,14.901733%);fill-opacity:1;" d="M 45.511719 41.769531 C 45.28125 41.746094 45.046875 41.9375 45.125 42.1875 C 45.144531 42.230469 45.222656 42.316406 45.355469 42.40625 C 45.488281 42.496094 45.671875 42.59375 45.902344 42.679688 C 46.359375 42.851562 46.992188 42.988281 47.726562 42.96875 L 47.621094 42.96875 C 48.367188 42.976562 48.769531 42.90625 49.292969 42.734375 C 49.730469 42.589844 50.113281 42.480469 50.140625 42.09375 C 50.140625 42.023438 50.121094 41.984375 50.085938 41.953125 C 50.050781 41.921875 50 41.898438 49.933594 41.882812 C 49.800781 41.851562 49.648438 41.929688 49.515625 41.972656 C 49.230469 42.066406 48.628906 42.320312 47.621094 42.328125 C 47.09375 42.339844 46.699219 42.214844 46.296875 42.078125 C 45.8125 41.917969 45.742188 41.800781 45.511719 41.769531 Z M 45.511719 41.769531 "/>
<path style=" stroke:none;fill-rule:evenodd;fill:rgb(81.175232%,6.666565%,14.901733%);fill-opacity:1;" d="M 42.800781 26.90625 C 42.796875 26.90625 42.789062 26.910156 42.785156 26.910156 C 42.757812 26.917969 42.734375 26.9375 42.707031 26.984375 L 42.707031 26.988281 C 42.699219 27 42.675781 27.082031 42.671875 27.191406 C 42.664062 27.304688 42.667969 27.445312 42.675781 27.617188 C 42.695312 27.953125 42.746094 28.390625 42.816406 28.855469 C 42.960938 29.785156 43.195312 30.832031 43.441406 31.457031 C 43.683594 32.039062 44.214844 32.558594 44.730469 33.027344 C 45.246094 33.496094 45.75 33.902344 45.933594 34.324219 C 45.964844 34.402344 45.980469 34.507812 46 34.65625 C 46.015625 34.808594 46.03125 35 46.042969 35.222656 C 46.0625 35.671875 46.078125 36.246094 46.082031 36.863281 C 46.089844 37.84375 46.082031 38.921875 46.0625 39.777344 C 46.089844 39.789062 46.113281 39.796875 46.140625 39.808594 C 46.265625 39.867188 46.410156 39.941406 46.574219 40.015625 C 46.902344 40.164062 47.296875 40.308594 47.703125 40.296875 L 47.707031 40.296875 C 48.53125 40.292969 48.898438 40.050781 49.175781 39.941406 L 49.179688 39.941406 C 49.234375 39.921875 49.292969 39.90625 49.351562 39.894531 C 49.339844 39.113281 49.269531 33.675781 49.269531 32.730469 C 49.277344 32.472656 49.035156 32.140625 48.714844 31.847656 C 48.398438 31.554688 48.019531 31.292969 47.800781 31.128906 L 47.796875 31.125 L 47.792969 31.125 C 47.664062 31.007812 47.398438 30.726562 47.144531 30.449219 C 47.019531 30.308594 46.898438 30.167969 46.804688 30.054688 C 46.707031 29.941406 46.644531 29.863281 46.609375 29.796875 C 46.601562 29.777344 46.550781 29.710938 46.476562 29.640625 C 46.40625 29.574219 46.316406 29.5 46.214844 29.433594 C 46.117188 29.371094 46.007812 29.316406 45.914062 29.296875 C 45.820312 29.273438 45.742188 29.28125 45.679688 29.320312 C 45.625 29.355469 45.601562 29.410156 45.605469 29.511719 C 45.609375 29.613281 45.644531 29.753906 45.703125 29.898438 C 45.820312 30.1875 46.019531 30.511719 46.164062 30.707031 C 46.253906 30.828125 46.335938 31.03125 46.414062 31.265625 C 46.496094 31.5 46.566406 31.761719 46.621094 31.988281 C 46.671875 32.210938 46.707031 32.382812 46.699219 32.496094 C 46.699219 32.523438 46.707031 32.554688 46.65625 32.59375 C 46.628906 32.617188 46.585938 32.621094 46.558594 32.609375 C 46.535156 32.601562 46.523438 32.585938 46.511719 32.578125 C 46.46875 32.53125 46.441406 32.472656 46.390625 32.367188 L 46.390625 32.363281 C 46.316406 32.179688 46.035156 31.972656 45.679688 31.765625 C 45.320312 31.554688 44.894531 31.339844 44.550781 31.074219 C 44.46875 31.007812 44.449219 30.90625 44.421875 30.789062 C 44.398438 30.671875 44.375 30.527344 44.324219 30.347656 C 44.222656 29.988281 44.015625 29.496094 43.484375 28.867188 L 43.457031 28.835938 L 43.464844 28.792969 C 43.582031 28.195312 43.421875 27.621094 43.207031 27.265625 C 43.101562 27.089844 42.972656 26.96875 42.882812 26.925781 C 42.851562 26.910156 42.824219 26.90625 42.800781 26.90625 Z M 42.800781 26.90625 "/>
<path style=" stroke:none;fill-rule:evenodd;fill:rgb(81.175232%,6.666565%,14.901733%);fill-opacity:1;" d="M 43.683594 27.039062 C 43.644531 27.039062 43.609375 27.054688 43.574219 27.082031 C 43.507812 27.132812 43.457031 27.234375 43.460938 27.367188 C 43.636719 27.746094 43.742188 28.253906 43.644531 28.785156 C 44.175781 29.414062 44.390625 29.925781 44.496094 30.300781 C 44.546875 30.488281 44.570312 30.640625 44.59375 30.753906 C 44.617188 30.863281 44.644531 30.921875 44.664062 30.933594 C 44.984375 31.183594 45.402344 31.398438 45.765625 31.609375 C 46.0625 31.785156 46.328125 31.949219 46.476562 32.152344 C 46.46875 32.113281 46.457031 32.070312 46.449219 32.027344 C 46.417969 31.902344 46.382812 31.761719 46.339844 31.625 C 46.28125 31.476562 46.113281 31.285156 45.914062 31.128906 C 45.71875 30.976562 45.496094 30.855469 45.34375 30.820312 L 45.28125 30.804688 L 45.273438 30.738281 C 45.265625 30.570312 45.125 30.179688 44.933594 29.8125 C 44.742188 29.449219 44.488281 29.09375 44.285156 28.964844 L 44.246094 28.9375 L 44.246094 28.886719 C 44.277344 27.726562 44.019531 27.21875 43.820312 27.085938 C 43.769531 27.050781 43.722656 27.039062 43.683594 27.039062 Z M 43.683594 27.039062 "/>
<path style=" stroke:none;fill-rule:evenodd;fill:rgb(81.175232%,6.666565%,14.901733%);fill-opacity:1;" d="M 44.421875 27.253906 C 44.390625 27.257812 44.367188 27.265625 44.339844 27.300781 C 44.316406 27.328125 44.289062 27.386719 44.273438 27.46875 C 44.378906 27.78125 44.4375 28.226562 44.425781 28.847656 C 44.667969 29.023438 44.902344 29.371094 45.089844 29.730469 C 45.273438 30.078125 45.410156 30.425781 45.445312 30.664062 C 45.628906 30.722656 45.835938 30.84375 46.023438 30.992188 C 46.074219 31.03125 46.125 31.074219 46.171875 31.117188 C 46.117188 30.980469 46.0625 30.867188 46.023438 30.8125 C 45.871094 30.605469 45.664062 30.277344 45.539062 29.964844 C 45.496094 29.855469 45.460938 29.753906 45.441406 29.65625 C 45.238281 29.4375 45.039062 29.046875 45.089844 28.660156 C 45.132812 28.167969 44.925781 27.679688 44.703125 27.429688 C 44.59375 27.308594 44.480469 27.25 44.421875 27.253906 Z M 44.421875 27.253906 "/>
<path style=" stroke:none;fill-rule:evenodd;fill:rgb(81.175232%,6.666565%,14.901733%);fill-opacity:1;" d="M 45.257812 27.375 C 45.234375 27.375 45.210938 27.386719 45.175781 27.410156 C 45.132812 27.441406 45.082031 27.5 45.03125 27.589844 C 45.191406 27.882812 45.300781 28.273438 45.265625 28.679688 L 45.265625 28.683594 C 45.234375 28.910156 45.328125 29.171875 45.445312 29.363281 C 45.46875 29.285156 45.511719 29.214844 45.589844 29.167969 C 45.667969 29.117188 45.757812 29.105469 45.847656 29.109375 C 45.804688 28.5 45.679688 27.933594 45.515625 27.625 C 45.433594 27.460938 45.339844 27.382812 45.28125 27.375 C 45.273438 27.375 45.265625 27.375 45.257812 27.375 Z M 45.257812 27.375 "/>
<path style=" stroke:none;fill-rule:evenodd;fill:rgb(81.175232%,6.666565%,14.901733%);fill-opacity:1;" d="M 46.523438 32.476562 C 46.515625 32.492188 46.523438 32.492188 46.523438 32.484375 C 46.523438 32.484375 46.523438 32.480469 46.523438 32.476562 Z M 46.523438 32.476562 "/>
<path style=" stroke:none;fill-rule:evenodd;fill:rgb(81.175232%,6.666565%,14.901733%);fill-opacity:1;" d="M 49.355469 40.078125 C 49.3125 40.085938 49.277344 40.09375 49.242188 40.109375 C 49.097656 40.164062 48.878906 40.28125 48.542969 40.367188 L 49.359375 40.359375 C 49.359375 40.359375 49.355469 40.097656 49.355469 40.078125 Z M 49.355469 40.078125 "/>
<path style=" stroke:none;fill-rule:evenodd;fill:rgb(81.175232%,6.666565%,14.901733%);fill-opacity:1;" d="M 46.070312 39.960938 C 45.898438 39.9375 45.722656 40.132812 45.78125 40.378906 C 45.796875 40.425781 45.855469 40.511719 45.953125 40.597656 C 46.050781 40.691406 46.1875 40.785156 46.359375 40.871094 C 46.699219 41.046875 47.164062 41.179688 47.710938 41.160156 L 47.632812 41.160156 C 48.1875 41.167969 48.484375 41.101562 48.871094 40.929688 C 49.199219 40.785156 49.480469 40.675781 49.5 40.285156 C 49.5 40.21875 49.484375 40.179688 49.460938 40.144531 C 49.433594 40.113281 49.394531 40.089844 49.347656 40.074219 C 49.25 40.046875 49.132812 40.121094 49.035156 40.167969 C 48.824219 40.257812 48.378906 40.511719 47.632812 40.519531 C 47.238281 40.535156 46.949219 40.40625 46.648438 40.273438 C 46.289062 40.109375 46.238281 39.996094 46.070312 39.960938 Z M 46.070312 39.960938 "/>
<path style=" stroke:none;fill-rule:evenodd;fill:rgb(81.175232%,6.666565%,14.901733%);fill-opacity:1;" d="M 45.761719 40.847656 C 45.558594 40.820312 45.355469 41.015625 45.425781 41.265625 C 45.441406 41.308594 45.511719 41.394531 45.625 41.484375 C 45.738281 41.574219 45.902344 41.671875 46.101562 41.757812 C 46.5 41.929688 47.046875 42.066406 47.6875 42.042969 L 47.59375 42.042969 C 48.242188 42.054688 48.589844 41.984375 49.046875 41.8125 C 49.429688 41.667969 49.757812 41.558594 49.78125 41.167969 C 49.78125 41.101562 49.765625 41.0625 49.734375 41.03125 C 49.707031 41 49.660156 40.972656 49.601562 40.960938 C 49.488281 40.929688 49.355469 41.007812 49.238281 41.050781 C 48.992188 41.144531 48.46875 41.398438 47.59375 41.40625 C 47.132812 41.417969 46.792969 41.292969 46.441406 41.15625 C 46.019531 40.996094 45.960938 40.878906 45.761719 40.847656 Z M 45.761719 40.847656 "/>
<path style=" stroke:none;fill-rule:evenodd;fill:rgb(81.175232%,6.666565%,14.901733%);fill-opacity:1;" d="M 63.613281 42.308594 C 62.503906 42.191406 61.539062 41.488281 61.070312 40.457031 C 60.914062 40.113281 60.917969 40.023438 61.085938 40.144531 C 61.367188 40.347656 61.769531 40.527344 61.945312 40.527344 C 62.085938 40.527344 62.203125 40.601562 62.484375 40.863281 C 63.023438 41.367188 63.628906 41.5 63.367188 41.050781 C 63.183594 40.738281 63.234375 40.527344 63.628906 39.976562 C 63.828125 39.703125 64.015625 39.472656 64.046875 39.472656 C 64.082031 39.46875 64.242188 39.65625 64.40625 39.886719 C 64.757812 40.378906 64.867188 40.75 64.738281 41.011719 C 64.625 41.242188 64.632812 41.394531 64.757812 41.394531 C 64.898438 41.394531 65.378906 41.089844 65.667969 40.820312 C 65.824219 40.671875 65.992188 40.578125 66.1875 40.53125 C 66.347656 40.492188 66.613281 40.382812 66.785156 40.289062 C 66.957031 40.195312 67.105469 40.128906 67.121094 40.140625 C 67.191406 40.210938 66.730469 40.996094 66.429688 41.316406 C 65.851562 41.9375 65.292969 42.214844 64.449219 42.300781 C 64.195312 42.328125 63.820312 42.332031 63.613281 42.308594 Z M 63.613281 42.308594 "/>
<path style=" stroke:none;fill-rule:evenodd;fill:rgb(81.175232%,6.666565%,14.901733%);fill-opacity:1;" d="M 65.023438 40.910156 C 65.007812 40.859375 65.007812 40.796875 65.023438 40.769531 C 65.09375 40.65625 64.875 40.121094 64.601562 39.738281 C 64.445312 39.523438 64.273438 39.285156 64.222656 39.210938 C 64.171875 39.140625 64.097656 39.082031 64.058594 39.082031 C 63.972656 39.082031 63.425781 39.824219 63.195312 40.253906 C 63.109375 40.414062 63.035156 40.632812 63.035156 40.738281 C 63.035156 40.847656 63.007812 40.933594 62.976562 40.933594 C 62.816406 40.933594 62.503906 40.601562 62.328125 40.246094 C 62.152344 39.890625 62.140625 39.824219 62.144531 39.285156 C 62.148438 38.601562 62.25 38.171875 62.621094 37.234375 C 62.859375 36.632812 62.886719 36.523438 62.890625 36.078125 C 62.890625 35.542969 62.789062 35.261719 62.496094 34.984375 C 62.320312 34.820312 62.34375 34.746094 62.582031 34.746094 C 62.800781 34.746094 63.140625 34.921875 63.316406 35.121094 C 63.480469 35.3125 63.585938 35.25 63.636719 34.933594 C 63.652344 34.816406 63.746094 34.628906 63.839844 34.515625 C 63.980469 34.347656 64.027344 34.324219 64.117188 34.375 C 64.273438 34.46875 64.480469 34.914062 64.480469 35.164062 C 64.480469 35.449219 64.570312 35.445312 64.859375 35.148438 C 65.117188 34.882812 65.289062 34.78125 65.566406 34.726562 C 65.816406 34.679688 65.8125 34.785156 65.554688 35.035156 C 65.253906 35.324219 65.101562 35.691406 65.097656 36.132812 C 65.097656 36.5625 65.152344 36.773438 65.46875 37.46875 C 65.769531 38.128906 65.925781 38.765625 65.925781 39.3125 C 65.925781 39.902344 65.808594 40.273438 65.515625 40.605469 C 65.226562 40.9375 65.070312 41.03125 65.023438 40.910156 Z M 65.023438 40.910156 "/>
<path style=" stroke:none;fill-rule:evenodd;fill:rgb(81.175232%,6.666565%,14.901733%);fill-opacity:1;" d="M 64.597656 34.632812 C 64.453125 34.347656 64.148438 33.996094 64.046875 33.996094 C 63.957031 33.996094 63.5 34.503906 63.5 34.605469 C 63.5 34.644531 63.464844 34.707031 63.417969 34.742188 C 63.359375 34.792969 63.285156 34.773438 63.101562 34.652344 C 62.804688 34.457031 62.671875 34.09375 62.675781 33.496094 C 62.675781 32.972656 62.761719 32.613281 63.050781 31.890625 C 63.261719 31.367188 63.277344 31.285156 63.257812 30.878906 C 63.234375 30.347656 63.089844 30.019531 62.683594 29.578125 C 62.527344 29.410156 62.402344 29.253906 62.402344 29.234375 C 62.402344 29.214844 62.523438 29.199219 62.667969 29.199219 C 62.964844 29.199219 63.210938 29.324219 63.457031 29.601562 C 63.546875 29.699219 63.636719 29.777344 63.664062 29.777344 C 63.691406 29.777344 63.734375 29.640625 63.753906 29.472656 C 63.800781 29.140625 63.917969 28.910156 64.046875 28.910156 C 64.171875 28.910156 64.308594 29.214844 64.308594 29.488281 C 64.308594 29.816406 64.425781 29.835938 64.683594 29.554688 C 64.800781 29.425781 64.984375 29.292969 65.09375 29.253906 C 65.296875 29.1875 65.609375 29.222656 65.671875 29.320312 C 65.691406 29.351562 65.597656 29.496094 65.464844 29.640625 C 64.882812 30.269531 64.765625 30.980469 65.105469 31.808594 C 65.386719 32.480469 65.480469 32.960938 65.449219 33.5625 C 65.417969 34.214844 65.300781 34.515625 65 34.714844 C 64.875 34.796875 64.761719 34.863281 64.746094 34.863281 C 64.726562 34.863281 64.664062 34.757812 64.597656 34.632812 Z M 64.597656 34.632812 "/>
<path style=" stroke:none;fill-rule:evenodd;fill:rgb(81.175232%,6.666565%,14.901733%);fill-opacity:1;" d="M 63.253906 29.058594 C 62.957031 28.839844 62.855469 28.628906 62.855469 28.214844 C 62.855469 28.003906 62.894531 27.890625 63.035156 27.699219 C 63.242188 27.414062 63.203125 27.324219 62.914062 27.40625 C 62.445312 27.542969 62.222656 27.417969 62.207031 27.019531 C 62.199219 26.824219 62.238281 26.742188 62.503906 26.429688 C 62.710938 26.175781 62.789062 26.042969 62.746094 26.003906 C 62.707031 25.960938 62.457031 26.175781 61.949219 26.695312 C 61.542969 27.105469 61.085938 27.53125 60.933594 27.632812 C 60.058594 28.222656 59.222656 28.316406 58.839844 27.859375 C 58.644531 27.628906 58.65625 27.496094 58.882812 27.355469 C 58.988281 27.292969 59.160156 27.144531 59.273438 27.03125 C 59.535156 26.757812 60.316406 26.191406 60.703125 25.996094 C 61.019531 25.839844 61.09375 25.730469 60.890625 25.730469 C 60.625 25.730469 59.773438 26.285156 59.128906 26.875 C 58.941406 27.050781 58.667969 27.246094 58.523438 27.308594 C 58.203125 27.449219 57.570312 27.503906 57.289062 27.410156 C 57.089844 27.34375 56.730469 27.003906 56.730469 26.882812 C 56.730469 26.847656 56.8125 26.777344 56.914062 26.726562 C 57.011719 26.671875 57.195312 26.539062 57.3125 26.4375 C 57.828125 25.984375 58.804688 25.519531 59.582031 25.355469 C 59.828125 25.304688 59.734375 25.179688 59.460938 25.191406 C 58.929688 25.214844 57.871094 25.710938 57.242188 26.230469 C 56.5 26.839844 55.386719 26.785156 55.027344 26.117188 C 54.964844 26.003906 54.929688 25.894531 54.945312 25.878906 C 54.960938 25.859375 55.183594 25.792969 55.433594 25.730469 C 55.707031 25.660156 56.246094 25.4375 56.757812 25.183594 C 57.570312 24.777344 57.808594 24.691406 58.367188 24.601562 C 58.617188 24.5625 58.628906 24.441406 58.386719 24.410156 C 58.074219 24.375 57.589844 24.53125 56.742188 24.949219 C 55.652344 25.488281 55.34375 25.578125 54.769531 25.542969 C 54.246094 25.511719 53.949219 25.378906 53.523438 24.976562 C 53.246094 24.710938 52.851562 24.042969 52.929688 23.964844 C 52.945312 23.945312 53.074219 23.964844 53.210938 24.003906 C 53.367188 24.050781 53.804688 24.078125 54.332031 24.082031 C 55.070312 24.082031 55.265625 24.0625 55.660156 23.949219 C 56.320312 23.757812 57.195312 23.3125 57.792969 22.867188 C 58.9375 22.011719 59.875 21.664062 61.066406 21.660156 C 62.164062 21.65625 62.863281 21.910156 63.484375 22.539062 C 63.691406 22.75 63.871094 22.890625 63.902344 22.859375 C 63.929688 22.832031 63.957031 22.460938 63.96875 22.035156 C 63.96875 22.035156 64.292969 22.003906 64.359375 22.09375 C 64.359375 22.785156 64.367188 22.839844 64.46875 22.839844 C 64.535156 22.839844 64.605469 22.773438 64.648438 22.667969 C 64.742188 22.441406 65.089844 22.128906 65.460938 21.941406 C 66.269531 21.535156 67.660156 21.523438 68.777344 21.914062 C 69.25 22.078125 69.773438 22.371094 70.269531 22.757812 C 70.769531 23.140625 71.789062 23.65625 72.394531 23.824219 C 73.003906 24 74.082031 24.042969 74.632812 23.917969 C 74.859375 23.867188 75.074219 23.824219 75.109375 23.824219 C 75.3125 23.824219 74.964844 24.5 74.558594 24.898438 C 73.8125 25.625 72.84375 25.621094 71.484375 24.886719 C 70.632812 24.429688 69.621094 24.179688 69.621094 24.429688 C 69.621094 24.480469 69.671875 24.515625 69.75 24.515625 C 70.046875 24.515625 70.617188 24.714844 71.410156 25.09375 C 72.269531 25.5 72.753906 25.671875 73.039062 25.671875 C 73.246094 25.671875 73.253906 25.800781 73.0625 26.085938 C 72.855469 26.390625 72.507812 26.539062 72.015625 26.539062 C 71.542969 26.535156 71.28125 26.433594 70.863281 26.085938 C 70.160156 25.5 68.40625 24.847656 68.472656 25.195312 C 68.488281 25.265625 68.574219 25.308594 68.753906 25.335938 C 69.363281 25.429688 70.078125 25.769531 70.8125 26.320312 C 71.035156 26.488281 71.269531 26.65625 71.332031 26.691406 C 71.429688 26.75 71.433594 26.765625 71.351562 26.914062 C 71.222656 27.160156 70.890625 27.351562 70.53125 27.386719 C 70.066406 27.4375 69.660156 27.296875 69.242188 26.949219 C 68.359375 26.207031 67.527344 25.671875 67.261719 25.671875 C 67.042969 25.671875 67.140625 25.792969 67.523438 25.996094 C 68.03125 26.265625 68.546875 26.625 68.929688 26.976562 C 69.113281 27.144531 69.316406 27.308594 69.382812 27.34375 C 69.542969 27.429688 69.535156 27.554688 69.359375 27.785156 C 69.179688 28.023438 68.882812 28.125 68.5 28.082031 C 67.730469 28.003906 67.132812 27.632812 66.191406 26.65625 C 65.820312 26.273438 65.492188 25.960938 65.460938 25.960938 C 65.335938 25.960938 65.410156 26.132812 65.652344 26.402344 C 65.953125 26.738281 66.011719 26.929688 65.894531 27.203125 C 65.796875 27.441406 65.628906 27.5 65.285156 27.40625 C 64.933594 27.3125 64.878906 27.398438 65.109375 27.683594 C 65.453125 28.113281 65.402344 28.636719 64.980469 28.996094 C 64.851562 29.105469 64.714844 29.199219 64.675781 29.199219 C 64.640625 29.199219 64.546875 29.101562 64.46875 28.988281 C 64.199219 28.574219 63.960938 28.578125 63.699219 28.992188 C 63.609375 29.136719 63.53125 29.253906 63.527344 29.253906 C 63.523438 29.253906 63.402344 29.164062 63.253906 29.058594 Z M 63.253906 29.058594 "/>
<path style=" stroke:none;fill-rule:evenodd;fill:rgb(81.175232%,6.666565%,14.901733%);fill-opacity:1;" d="M 64.59375 20.714844 L 64.136719 21.074219 L 63.726562 20.765625 L 63.726562 23.230469 L 64.59375 23.242188 Z M 64.59375 20.714844 "/>
<path style=" stroke:none;fill-rule:evenodd;fill:rgb(81.175232%,6.666565%,14.901733%);fill-opacity:1;" d="M 63.730469 17.5625 C 63.332031 17.566406 62.914062 17.574219 62.539062 17.648438 C 62.277344 17.699219 62.042969 17.78125 61.84375 17.921875 C 61.875 18.679688 65.488281 18.996094 66.457031 17.9375 C 66.253906 17.789062 66.003906 17.699219 65.730469 17.648438 C 65.371094 17.578125 64.96875 17.570312 64.589844 17.5625 C 64.589844 17.773438 64.59375 17.980469 64.59375 18.1875 L 63.730469 18.1875 C 63.730469 17.972656 63.730469 17.746094 63.730469 17.5625 Z M 63.730469 17.5625 "/>
<path style=" stroke:none;fill-rule:evenodd;fill:rgb(81.175232%,6.666565%,14.901733%);fill-opacity:1;" d="M 64.433594 13.800781 L 64.21875 15.898438 L 66.382812 16.957031 L 65.289062 15.492188 L 66.78125 15.007812 Z M 64.433594 13.800781 "/>
<path style=" stroke:none;fill-rule:evenodd;fill:rgb(81.175232%,6.666565%,14.901733%);fill-opacity:1;" d="M 64.195312 13.25 C 63.867188 13.25 63.621094 13.375 63.621094 13.519531 C 63.621094 13.664062 63.867188 13.789062 64.195312 13.789062 C 64.523438 13.789062 64.761719 13.664062 64.761719 13.519531 C 64.761719 13.375 64.523438 13.25 64.195312 13.25 Z M 64.195312 13.25 "/>
<path style=" stroke:none;fill-rule:evenodd;fill:rgb(81.175232%,6.666565%,14.901733%);fill-opacity:1;" d="M 64.4375 13.6875 L 63.875 13.691406 L 63.875 18.082031 L 64.445312 18.082031 Z M 64.4375 13.6875 "/>
<path style=" stroke:none;fill-rule:evenodd;fill:rgb(81.175232%,6.666565%,14.901733%);fill-opacity:1;" d="M 61.769531 18.15625 C 61.675781 19.320312 61.382812 20.132812 60.96875 21.03125 L 61.957031 20.117188 L 62.640625 20.929688 L 63.386719 20.101562 L 64.144531 20.804688 L 64.871094 20.074219 L 65.628906 20.960938 L 66.289062 20.230469 L 67.402344 21.03125 C 67 20.132812 66.449219 19.375 66.519531 18.113281 C 65.4375 18.914062 62.871094 19.058594 61.769531 18.15625 Z M 61.769531 18.15625 "/>
<path style=" stroke:none;fill-rule:evenodd;fill:rgb(99.998474%,79.998779%,0%);fill-opacity:1;" d="M 69.109375 49.5 C 69.109375 49.578125 69.035156 49.648438 68.953125 49.648438 C 68.871094 49.648438 68.792969 49.578125 68.792969 49.5 C 68.792969 49.425781 68.871094 49.355469 68.953125 49.355469 C 69.035156 49.355469 69.109375 49.425781 69.109375 49.5 Z M 69.109375 49.5 "/>
<path style=" stroke:none;fill-rule:evenodd;fill:rgb(99.998474%,79.998779%,0%);fill-opacity:1;" d="M 69.671875 49.316406 C 69.671875 49.390625 69.59375 49.460938 69.511719 49.460938 C 69.429688 49.460938 69.351562 49.390625 69.355469 49.316406 C 69.351562 49.238281 69.429688 49.167969 69.511719 49.167969 C 69.59375 49.167969 69.671875 49.238281 69.671875 49.316406 Z M 69.671875 49.316406 "/>
</g>
</svg>
