<svg viewBox="0 0 1000 667" xmlns="http://www.w3.org/2000/svg" xmlns:xlink="http://www.w3.org/1999/xlink"><clipPath id="a"><path d="m0 0h1000v666.71875h-1000zm0 0"/></clipPath><g clip-path="url(#a)"><path d="m0 666.667969v-666.667969h1000v666.667969zm0 0" fill="#009e49" fill-rule="evenodd"/></g><g fill-rule="evenodd"><path d="m0 0h1000v333.332031h-1000zm0 0" fill="#ef2b2d"/><path d="m500 222.222656-34.335938 105.675782 52.835938 17.164062zm0 0" fill="#fcd116"/><path d="m500 222.222656 34.335938 105.675782-52.835938 17.164062zm0 0" fill="#fcd116"/><path d="m605.675781 298.996094h-111.113281v55.554687zm0 0" fill="#fcd116"/><path d="m605.675781 298.996094-89.894531 65.3125-32.652344-44.945313zm0 0" fill="#fcd116"/><path d="m565.308594 423.226562-34.335938-105.675781-52.835937 17.164063zm0 0" fill="#fcd116"/><path d="m565.308594 423.226562-89.890625-65.3125 32.652343-44.949218zm0 0" fill="#fcd116"/><path d="m434.691406 423.226562 89.890625-65.3125-32.652343-44.949218zm0 0" fill="#fcd116"/><path d="m434.691406 423.226562 34.335938-105.675781 52.835937 17.164063zm0 0" fill="#fcd116"/><path d="m394.324219 298.996094 89.894531 65.3125 32.652344-44.945313zm0 0" fill="#fcd116"/><path d="m394.324219 298.996094h111.113281v55.554687zm0 0" fill="#fcd116"/></g></svg>