<?xml version="1.0" encoding="UTF-8"?>
<svg xmlns="http://www.w3.org/2000/svg" xmlns:xlink="http://www.w3.org/1999/xlink" width="128pt" height="82pt" viewBox="0 0 128 82" version="1.1">
<g id="surface191">
<path style=" stroke:none;fill-rule:evenodd;fill:rgb(80.783081%,6.666565%,14.901733%);fill-opacity:1;" d="M 2.53125 4.238281 L 125.351562 4.238281 L 2.53125 77.929688 L 125.351562 77.929688 Z M 2.53125 4.238281 "/>
<path style=" stroke:none;fill-rule:evenodd;fill:rgb(11.764526%,70.979309%,22.744751%);fill-opacity:1;" d="M 2.53125 4.238281 L 2.53125 77.929688 L 125.351562 4.238281 L 125.351562 77.929688 Z M 2.53125 4.238281 "/>
<path style=" stroke:none;fill-rule:evenodd;fill:rgb(0%,0%,0%);fill-opacity:1;" d="M 2.53125 4.238281 L 125.351562 77.929688 Z M 125.351562 4.238281 L 2.53125 77.929688 Z M 125.351562 4.238281 "/>
<path style="fill:none;stroke-width:9.825487;stroke-linecap:butt;stroke-linejoin:miter;stroke:rgb(99.998474%,99.998474%,99.998474%);stroke-opacity:1;stroke-miterlimit:4;" d="M 2.53125 4.238281 L 125.351562 77.929688 "/>
<path style="fill:none;stroke-width:9.825487;stroke-linecap:butt;stroke-linejoin:miter;stroke:rgb(99.998474%,99.998474%,99.998474%);stroke-opacity:1;stroke-miterlimit:4;" d="M 125.351562 4.238281 L 2.53125 77.929688 "/>
<path style=" stroke:none;fill-rule:evenodd;fill:rgb(99.998474%,99.998474%,99.998474%);fill-opacity:1;" d="M 84.820312 41.082031 C 84.820312 52.613281 75.472656 61.960938 63.941406 61.960938 C 52.410156 61.960938 43.0625 52.613281 43.0625 41.082031 C 43.0625 29.550781 52.410156 20.203125 63.941406 20.203125 C 75.472656 20.203125 84.820312 29.550781 84.820312 41.082031 Z M 84.820312 41.082031 "/>
<path style=" stroke:none;fill-rule:evenodd;fill:rgb(11.764526%,70.979309%,22.744751%);fill-opacity:1;" d="M 63.941406 25.363281 L 61.484375 29.617188 L 65.742188 32.074219 Z M 63.941406 25.363281 "/>
<path style=" stroke:none;fill-rule:evenodd;fill:rgb(11.764526%,70.979309%,22.744751%);fill-opacity:1;" d="M 63.941406 25.363281 L 66.398438 29.617188 L 62.144531 32.074219 Z M 63.941406 25.363281 "/>
<path style=" stroke:none;fill-rule:evenodd;fill:rgb(11.764526%,70.979309%,22.744751%);fill-opacity:1;" d="M 68.195312 32.730469 L 65.742188 28.476562 L 61.484375 30.933594 Z M 68.195312 32.730469 "/>
<path style=" stroke:none;fill-rule:evenodd;fill:rgb(11.764526%,70.979309%,22.744751%);fill-opacity:1;" d="M 68.195312 32.730469 L 63.285156 32.730469 L 63.285156 27.820312 Z M 68.195312 32.730469 "/>
<path style=" stroke:none;fill-rule:evenodd;fill:rgb(11.764526%,70.979309%,22.744751%);fill-opacity:1;" d="M 59.6875 32.730469 L 64.601562 32.730469 L 64.601562 27.820312 Z M 59.6875 32.730469 "/>
<path style=" stroke:none;fill-rule:evenodd;fill:rgb(11.764526%,70.979309%,22.744751%);fill-opacity:1;" d="M 59.6875 32.730469 L 62.144531 28.476562 L 66.398438 30.933594 Z M 59.6875 32.730469 "/>
<path style=" stroke:none;fill-rule:evenodd;fill:rgb(11.764526%,70.979309%,22.744751%);fill-opacity:1;" d="M 63.941406 35.1875 L 66.398438 30.933594 L 62.144531 28.476562 Z M 63.941406 35.1875 "/>
<path style=" stroke:none;fill-rule:evenodd;fill:rgb(11.764526%,70.979309%,22.744751%);fill-opacity:1;" d="M 63.941406 35.1875 L 61.484375 30.933594 L 65.742188 28.476562 Z M 63.941406 35.1875 "/>
<path style=" stroke:none;fill-rule:evenodd;fill:rgb(11.764526%,70.979309%,22.744751%);fill-opacity:1;" d="M 59.6875 27.820312 L 62.144531 32.074219 L 66.398438 29.617188 Z M 59.6875 27.820312 "/>
<path style=" stroke:none;fill-rule:evenodd;fill:rgb(11.764526%,70.979309%,22.744751%);fill-opacity:1;" d="M 59.6875 27.820312 L 64.601562 27.820312 L 64.601562 32.730469 Z M 59.6875 27.820312 "/>
<path style=" stroke:none;fill-rule:evenodd;fill:rgb(11.764526%,70.979309%,22.744751%);fill-opacity:1;" d="M 68.195312 27.820312 L 63.285156 27.820312 L 63.285156 32.730469 Z M 68.195312 27.820312 "/>
<path style=" stroke:none;fill-rule:evenodd;fill:rgb(11.764526%,70.979309%,22.744751%);fill-opacity:1;" d="M 68.195312 27.820312 L 65.742188 32.074219 L 61.484375 29.617188 Z M 68.195312 27.820312 "/>
<path style=" stroke:none;fill-rule:evenodd;fill:rgb(11.764526%,70.979309%,22.744751%);fill-opacity:1;" d="M 77.558594 48.941406 L 75.101562 44.6875 L 70.847656 47.144531 Z M 77.558594 48.941406 "/>
<path style=" stroke:none;fill-rule:evenodd;fill:rgb(11.764526%,70.979309%,22.744751%);fill-opacity:1;" d="M 77.558594 48.941406 L 72.644531 48.941406 L 72.644531 44.03125 Z M 77.558594 48.941406 "/>
<path style=" stroke:none;fill-rule:evenodd;fill:rgb(11.764526%,70.979309%,22.744751%);fill-opacity:1;" d="M 69.046875 48.941406 L 73.960938 48.941406 L 73.960938 44.03125 Z M 69.046875 48.941406 "/>
<path style=" stroke:none;fill-rule:evenodd;fill:rgb(11.764526%,70.979309%,22.744751%);fill-opacity:1;" d="M 69.046875 48.941406 L 71.503906 44.6875 L 75.757812 47.144531 Z M 69.046875 48.941406 "/>
<path style=" stroke:none;fill-rule:evenodd;fill:rgb(11.764526%,70.979309%,22.744751%);fill-opacity:1;" d="M 73.300781 41.574219 L 70.847656 45.828125 L 75.101562 48.285156 Z M 73.300781 41.574219 "/>
<path style=" stroke:none;fill-rule:evenodd;fill:rgb(11.764526%,70.979309%,22.744751%);fill-opacity:1;" d="M 73.300781 41.574219 L 75.757812 45.828125 L 71.503906 48.285156 Z M 73.300781 41.574219 "/>
<path style=" stroke:none;fill-rule:evenodd;fill:rgb(11.764526%,70.979309%,22.744751%);fill-opacity:1;" d="M 69.046875 44.03125 L 71.503906 48.285156 L 75.757812 45.828125 Z M 69.046875 44.03125 "/>
<path style=" stroke:none;fill-rule:evenodd;fill:rgb(11.764526%,70.979309%,22.744751%);fill-opacity:1;" d="M 69.046875 44.03125 L 73.960938 44.03125 L 73.960938 48.941406 Z M 69.046875 44.03125 "/>
<path style=" stroke:none;fill-rule:evenodd;fill:rgb(11.764526%,70.979309%,22.744751%);fill-opacity:1;" d="M 77.558594 44.03125 L 72.644531 44.03125 L 72.644531 48.941406 Z M 77.558594 44.03125 "/>
<path style=" stroke:none;fill-rule:evenodd;fill:rgb(11.764526%,70.979309%,22.744751%);fill-opacity:1;" d="M 77.558594 44.03125 L 75.101562 48.285156 L 70.847656 45.828125 Z M 77.558594 44.03125 "/>
<path style=" stroke:none;fill-rule:evenodd;fill:rgb(11.764526%,70.979309%,22.744751%);fill-opacity:1;" d="M 73.300781 51.398438 L 75.757812 47.144531 L 71.503906 44.6875 Z M 73.300781 51.398438 "/>
<path style=" stroke:none;fill-rule:evenodd;fill:rgb(11.764526%,70.979309%,22.744751%);fill-opacity:1;" d="M 73.300781 51.398438 L 70.847656 47.144531 L 75.101562 44.6875 Z M 73.300781 51.398438 "/>
<path style=" stroke:none;fill-rule:evenodd;fill:rgb(11.764526%,70.979309%,22.744751%);fill-opacity:1;" d="M 50.328125 48.941406 L 55.242188 48.941406 L 55.242188 44.03125 Z M 50.328125 48.941406 "/>
<path style=" stroke:none;fill-rule:evenodd;fill:rgb(11.764526%,70.979309%,22.744751%);fill-opacity:1;" d="M 50.328125 48.941406 L 52.785156 44.6875 L 57.039062 47.144531 Z M 50.328125 48.941406 "/>
<path style=" stroke:none;fill-rule:evenodd;fill:rgb(11.764526%,70.979309%,22.744751%);fill-opacity:1;" d="M 54.582031 41.574219 L 52.125 45.828125 L 56.378906 48.285156 Z M 54.582031 41.574219 "/>
<path style=" stroke:none;fill-rule:evenodd;fill:rgb(11.764526%,70.979309%,22.744751%);fill-opacity:1;" d="M 54.582031 41.574219 L 57.039062 45.828125 L 52.785156 48.285156 Z M 54.582031 41.574219 "/>
<path style=" stroke:none;fill-rule:evenodd;fill:rgb(11.764526%,70.979309%,22.744751%);fill-opacity:1;" d="M 58.835938 48.941406 L 56.378906 44.6875 L 52.125 47.144531 Z M 58.835938 48.941406 "/>
<path style=" stroke:none;fill-rule:evenodd;fill:rgb(11.764526%,70.979309%,22.744751%);fill-opacity:1;" d="M 58.835938 48.941406 L 53.925781 48.941406 L 53.925781 44.03125 Z M 58.835938 48.941406 "/>
<path style=" stroke:none;fill-rule:evenodd;fill:rgb(11.764526%,70.979309%,22.744751%);fill-opacity:1;" d="M 58.835938 44.03125 L 53.925781 44.03125 L 53.925781 48.941406 Z M 58.835938 44.03125 "/>
<path style=" stroke:none;fill-rule:evenodd;fill:rgb(11.764526%,70.979309%,22.744751%);fill-opacity:1;" d="M 58.835938 44.03125 L 56.378906 48.285156 L 52.125 45.828125 Z M 58.835938 44.03125 "/>
<path style=" stroke:none;fill-rule:evenodd;fill:rgb(11.764526%,70.979309%,22.744751%);fill-opacity:1;" d="M 54.582031 51.398438 L 57.039062 47.144531 L 52.785156 44.6875 Z M 54.582031 51.398438 "/>
<path style=" stroke:none;fill-rule:evenodd;fill:rgb(11.764526%,70.979309%,22.744751%);fill-opacity:1;" d="M 54.582031 51.398438 L 52.125 47.144531 L 56.378906 44.6875 Z M 54.582031 51.398438 "/>
<path style=" stroke:none;fill-rule:evenodd;fill:rgb(11.764526%,70.979309%,22.744751%);fill-opacity:1;" d="M 50.328125 44.03125 L 52.785156 48.285156 L 57.039062 45.828125 Z M 50.328125 44.03125 "/>
<path style=" stroke:none;fill-rule:evenodd;fill:rgb(11.764526%,70.979309%,22.744751%);fill-opacity:1;" d="M 50.328125 44.03125 L 55.242188 44.03125 L 55.242188 48.941406 Z M 50.328125 44.03125 "/>
<path style=" stroke:none;fill-rule:evenodd;fill:rgb(80.783081%,6.666565%,14.901733%);fill-opacity:1;" d="M 63.941406 26.246094 L 61.929688 29.734375 L 65.417969 31.75 Z M 63.941406 26.246094 "/>
<path style=" stroke:none;fill-rule:evenodd;fill:rgb(80.783081%,6.666565%,14.901733%);fill-opacity:1;" d="M 63.941406 26.246094 L 65.957031 29.734375 L 62.46875 31.75 Z M 63.941406 26.246094 "/>
<path style=" stroke:none;fill-rule:evenodd;fill:rgb(80.783081%,6.666565%,14.901733%);fill-opacity:1;" d="M 67.429688 32.289062 L 65.417969 28.800781 L 61.929688 30.816406 Z M 67.429688 32.289062 "/>
<path style=" stroke:none;fill-rule:evenodd;fill:rgb(80.783081%,6.666565%,14.901733%);fill-opacity:1;" d="M 67.429688 32.289062 L 63.402344 32.289062 L 63.402344 28.261719 Z M 67.429688 32.289062 "/>
<path style=" stroke:none;fill-rule:evenodd;fill:rgb(80.783081%,6.666565%,14.901733%);fill-opacity:1;" d="M 60.453125 32.289062 L 64.480469 32.289062 L 64.480469 28.261719 Z M 60.453125 32.289062 "/>
<path style=" stroke:none;fill-rule:evenodd;fill:rgb(80.783081%,6.666565%,14.901733%);fill-opacity:1;" d="M 60.453125 32.289062 L 62.46875 28.800781 L 65.957031 30.816406 Z M 60.453125 32.289062 "/>
<path style=" stroke:none;fill-rule:evenodd;fill:rgb(80.783081%,6.666565%,14.901733%);fill-opacity:1;" d="M 63.941406 34.304688 L 65.957031 30.816406 L 62.46875 28.800781 Z M 63.941406 34.304688 "/>
<path style=" stroke:none;fill-rule:evenodd;fill:rgb(80.783081%,6.666565%,14.901733%);fill-opacity:1;" d="M 63.941406 34.304688 L 61.929688 30.816406 L 65.417969 28.800781 Z M 63.941406 34.304688 "/>
<path style=" stroke:none;fill-rule:evenodd;fill:rgb(80.783081%,6.666565%,14.901733%);fill-opacity:1;" d="M 60.453125 28.261719 L 62.46875 31.75 L 65.957031 29.734375 Z M 60.453125 28.261719 "/>
<path style=" stroke:none;fill-rule:evenodd;fill:rgb(80.783081%,6.666565%,14.901733%);fill-opacity:1;" d="M 60.453125 28.261719 L 64.480469 28.261719 L 64.480469 32.289062 Z M 60.453125 28.261719 "/>
<path style=" stroke:none;fill-rule:evenodd;fill:rgb(80.783081%,6.666565%,14.901733%);fill-opacity:1;" d="M 67.429688 28.261719 L 63.402344 28.261719 L 63.402344 32.289062 Z M 67.429688 28.261719 "/>
<path style=" stroke:none;fill-rule:evenodd;fill:rgb(80.783081%,6.666565%,14.901733%);fill-opacity:1;" d="M 67.429688 28.261719 L 65.417969 31.75 L 61.929688 29.734375 Z M 67.429688 28.261719 "/>
<path style=" stroke:none;fill-rule:evenodd;fill:rgb(80.783081%,6.666565%,14.901733%);fill-opacity:1;" d="M 76.789062 48.5 L 74.777344 45.011719 L 71.289062 47.027344 Z M 76.789062 48.5 "/>
<path style=" stroke:none;fill-rule:evenodd;fill:rgb(80.783081%,6.666565%,14.901733%);fill-opacity:1;" d="M 76.789062 48.5 L 72.761719 48.5 L 72.761719 44.472656 Z M 76.789062 48.5 "/>
<path style=" stroke:none;fill-rule:evenodd;fill:rgb(80.783081%,6.666565%,14.901733%);fill-opacity:1;" d="M 69.8125 48.5 L 73.84375 48.5 L 73.84375 44.472656 Z M 69.8125 48.5 "/>
<path style=" stroke:none;fill-rule:evenodd;fill:rgb(80.783081%,6.666565%,14.901733%);fill-opacity:1;" d="M 69.8125 48.5 L 71.828125 45.011719 L 75.316406 47.027344 Z M 69.8125 48.5 "/>
<path style=" stroke:none;fill-rule:evenodd;fill:rgb(80.783081%,6.666565%,14.901733%);fill-opacity:1;" d="M 73.300781 42.457031 L 71.289062 45.949219 L 74.777344 47.960938 Z M 73.300781 42.457031 "/>
<path style=" stroke:none;fill-rule:evenodd;fill:rgb(80.783081%,6.666565%,14.901733%);fill-opacity:1;" d="M 73.300781 42.457031 L 75.316406 45.949219 L 71.828125 47.960938 Z M 73.300781 42.457031 "/>
<path style=" stroke:none;fill-rule:evenodd;fill:rgb(80.783081%,6.666565%,14.901733%);fill-opacity:1;" d="M 69.8125 44.472656 L 71.828125 47.960938 L 75.316406 45.949219 Z M 69.8125 44.472656 "/>
<path style=" stroke:none;fill-rule:evenodd;fill:rgb(80.783081%,6.666565%,14.901733%);fill-opacity:1;" d="M 69.8125 44.472656 L 73.84375 44.472656 L 73.84375 48.5 Z M 69.8125 44.472656 "/>
<path style=" stroke:none;fill-rule:evenodd;fill:rgb(80.783081%,6.666565%,14.901733%);fill-opacity:1;" d="M 76.789062 44.472656 L 72.761719 44.472656 L 72.761719 48.5 Z M 76.789062 44.472656 "/>
<path style=" stroke:none;fill-rule:evenodd;fill:rgb(80.783081%,6.666565%,14.901733%);fill-opacity:1;" d="M 76.789062 44.472656 L 74.777344 47.960938 L 71.289062 45.949219 Z M 76.789062 44.472656 "/>
<path style=" stroke:none;fill-rule:evenodd;fill:rgb(80.783081%,6.666565%,14.901733%);fill-opacity:1;" d="M 73.300781 50.515625 L 75.316406 47.027344 L 71.828125 45.011719 Z M 73.300781 50.515625 "/>
<path style=" stroke:none;fill-rule:evenodd;fill:rgb(80.783081%,6.666565%,14.901733%);fill-opacity:1;" d="M 73.300781 50.515625 L 71.289062 47.027344 L 74.777344 45.011719 Z M 73.300781 50.515625 "/>
<path style=" stroke:none;fill-rule:evenodd;fill:rgb(80.783081%,6.666565%,14.901733%);fill-opacity:1;" d="M 51.09375 48.5 L 55.121094 48.5 L 55.121094 44.472656 Z M 51.09375 48.5 "/>
<path style=" stroke:none;fill-rule:evenodd;fill:rgb(80.783081%,6.666565%,14.901733%);fill-opacity:1;" d="M 51.09375 48.5 L 53.109375 45.011719 L 56.597656 47.027344 Z M 51.09375 48.5 "/>
<path style=" stroke:none;fill-rule:evenodd;fill:rgb(80.783081%,6.666565%,14.901733%);fill-opacity:1;" d="M 54.582031 42.457031 L 52.566406 45.949219 L 56.058594 47.960938 Z M 54.582031 42.457031 "/>
<path style=" stroke:none;fill-rule:evenodd;fill:rgb(80.783081%,6.666565%,14.901733%);fill-opacity:1;" d="M 54.582031 42.457031 L 56.597656 45.949219 L 53.109375 47.960938 Z M 54.582031 42.457031 "/>
<path style=" stroke:none;fill-rule:evenodd;fill:rgb(80.783081%,6.666565%,14.901733%);fill-opacity:1;" d="M 58.070312 48.5 L 56.058594 45.011719 L 52.566406 47.027344 Z M 58.070312 48.5 "/>
<path style=" stroke:none;fill-rule:evenodd;fill:rgb(80.783081%,6.666565%,14.901733%);fill-opacity:1;" d="M 58.070312 48.5 L 54.042969 48.5 L 54.042969 44.472656 Z M 58.070312 48.5 "/>
<path style=" stroke:none;fill-rule:evenodd;fill:rgb(80.783081%,6.666565%,14.901733%);fill-opacity:1;" d="M 58.070312 44.472656 L 54.042969 44.472656 L 54.042969 48.5 Z M 58.070312 44.472656 "/>
<path style=" stroke:none;fill-rule:evenodd;fill:rgb(80.783081%,6.666565%,14.901733%);fill-opacity:1;" d="M 58.070312 44.472656 L 56.058594 47.960938 L 52.566406 45.949219 Z M 58.070312 44.472656 "/>
<path style=" stroke:none;fill-rule:evenodd;fill:rgb(80.783081%,6.666565%,14.901733%);fill-opacity:1;" d="M 54.582031 50.515625 L 56.597656 47.027344 L 53.109375 45.011719 Z M 54.582031 50.515625 "/>
<path style=" stroke:none;fill-rule:evenodd;fill:rgb(80.783081%,6.666565%,14.901733%);fill-opacity:1;" d="M 54.582031 50.515625 L 52.566406 47.027344 L 56.058594 45.011719 Z M 54.582031 50.515625 "/>
<path style=" stroke:none;fill-rule:evenodd;fill:rgb(80.783081%,6.666565%,14.901733%);fill-opacity:1;" d="M 51.09375 44.472656 L 53.109375 47.960938 L 56.597656 45.949219 Z M 51.09375 44.472656 "/>
<path style=" stroke:none;fill-rule:evenodd;fill:rgb(80.783081%,6.666565%,14.901733%);fill-opacity:1;" d="M 51.09375 44.472656 L 55.121094 44.472656 L 55.121094 48.5 Z M 51.09375 44.472656 "/>
</g>
</svg>
