<?xml version="1.0" encoding="UTF-8"?>
<svg xmlns="http://www.w3.org/2000/svg" xmlns:xlink="http://www.w3.org/1999/xlink" width="128pt" height="82pt" viewBox="0 0 128 82" version="1.1">
<g id="surface196">
<path style=" stroke:none;fill-rule:evenodd;fill:rgb(87.841797%,0%,14.509583%);fill-opacity:1;" d="M 0 20.558594 L 128 20.558594 L 128 61.519531 L 0 61.519531 Z M 0 20.558594 "/>
<path style=" stroke:none;fill-rule:evenodd;fill:rgb(1.176453%,18.03894%,63.136292%);fill-opacity:1;" d="M 0 0.078125 L 128 0.078125 L 128 20.558594 L 0 20.558594 Z M 0 0.078125 "/>
<path style=" stroke:none;fill-rule:evenodd;fill:rgb(1.176453%,18.03894%,63.136292%);fill-opacity:1;" d="M 0 61.519531 L 128 61.519531 L 128 82 L 0 82 Z M 0 61.519531 "/>
<path style="fill-rule:evenodd;fill:rgb(99.998474%,99.998474%,99.998474%);fill-opacity:1;stroke-width:0.1536;stroke-linecap:butt;stroke-linejoin:miter;stroke:rgb(0%,0%,0%);stroke-opacity:1;stroke-miterlimit:4;" d="M 63.519531 25.039062 C 63.519531 25.039062 63.488281 24.195312 63.980469 24.1875 C 64.46875 24.195312 64.441406 25.039062 64.441406 25.039062 Z M 63.519531 25.039062 "/>
<path style="fill-rule:evenodd;fill:rgb(99.998474%,99.998474%,99.998474%);fill-opacity:1;stroke-width:0.1536;stroke-linecap:butt;stroke-linejoin:miter;stroke:rgb(0%,0%,0%);stroke-opacity:1;stroke-miterlimit:4;" d="M 83.785156 47.054688 L 83.785156 42.851562 C 83.921875 42.320312 84.375 41.847656 84.714844 41.753906 L 84.714844 37.8125 C 84.203125 37.8125 83.949219 38.484375 83.949219 38.484375 L 83.074219 42.335938 L 83.074219 47.023438 Z M 83.785156 47.054688 "/>
<path style="fill-rule:evenodd;fill:rgb(99.998474%,99.998474%,99.998474%);fill-opacity:1;stroke-width:0.165395;stroke-linecap:round;stroke-linejoin:round;stroke:rgb(0%,0%,0%);stroke-opacity:1;stroke-miterlimit:4;" d="M 74.890625 38.691406 L 76.152344 38.691406 L 76.152344 41.363281 L 74.890625 41.363281 Z M 74.890625 38.691406 "/>
<path style="fill-rule:evenodd;fill:rgb(99.998474%,99.998474%,99.998474%);fill-opacity:1;stroke-width:0.1536;stroke-linecap:butt;stroke-linejoin:round;stroke:rgb(0%,0%,0%);stroke-opacity:1;stroke-miterlimit:4;" d="M 52.464844 38.691406 L 75.769531 38.691406 L 75.769531 47.660156 L 52.464844 47.660156 Z M 52.464844 38.691406 "/>
<path style="fill-rule:evenodd;fill:rgb(99.998474%,99.998474%,99.998474%);fill-opacity:1;stroke-width:0.1536;stroke-linecap:butt;stroke-linejoin:miter;stroke:rgb(0%,0%,0%);stroke-opacity:1;stroke-miterlimit:4;" d="M 44.253906 47.039062 L 44.253906 42.851562 C 44.117188 42.320312 43.664062 41.847656 43.324219 41.753906 L 43.324219 38.070312 L 44.089844 38.484375 L 44.964844 42.335938 L 44.964844 47.039062 Z M 44.253906 47.039062 "/>
<path style="fill-rule:evenodd;fill:rgb(99.998474%,99.998474%,99.998474%);fill-opacity:1;stroke-width:0.1536;stroke-linecap:butt;stroke-linejoin:miter;stroke:rgb(0%,0%,0%);stroke-opacity:1;stroke-miterlimit:4;" d="M 44.253906 47.054688 L 44.253906 42.851562 C 44.117188 42.320312 43.664062 41.847656 43.324219 41.753906 L 43.324219 37.8125 C 43.835938 37.8125 44.089844 38.484375 44.089844 38.484375 L 44.964844 42.335938 L 44.964844 47.023438 Z M 44.253906 47.054688 "/>
<path style="fill-rule:evenodd;fill:rgb(99.998474%,99.998474%,99.998474%);fill-opacity:1;stroke-width:0.1536;stroke-linecap:butt;stroke-linejoin:miter;stroke:rgb(0%,0%,0%);stroke-opacity:1;stroke-miterlimit:4;" d="M 43.347656 48.128906 C 43.707031 47.945312 44.117188 47.519531 44.253906 47.039062 L 83.792969 47.039062 C 83.929688 47.519531 84.339844 47.945312 84.699219 48.128906 Z M 43.347656 48.128906 "/>
<path style="fill-rule:evenodd;fill:rgb(99.998474%,99.998474%,99.998474%);fill-opacity:1;stroke-width:0.1536;stroke-linecap:round;stroke-linejoin:round;stroke:rgb(0%,0%,0%);stroke-opacity:1;stroke-miterlimit:4;" d="M 74.566406 43.640625 L 75.300781 43.640625 L 75.300781 47.019531 L 74.566406 47.019531 Z M 74.566406 43.640625 "/>
<path style="fill-rule:evenodd;fill:rgb(99.998474%,99.998474%,99.998474%);fill-opacity:1;stroke-width:0.1536;stroke-linecap:butt;stroke-linejoin:round;stroke:rgb(0%,0%,0%);stroke-opacity:1;stroke-miterlimit:4;" d="M 52.464844 41.972656 L 75.769531 41.972656 L 75.769531 43.015625 L 52.464844 43.015625 Z M 52.464844 41.972656 "/>
<path style="fill-rule:evenodd;fill:rgb(99.998474%,99.998474%,99.998474%);fill-opacity:1;stroke-width:0.1536;stroke-linecap:butt;stroke-linejoin:round;stroke:rgb(0%,0%,0%);stroke-opacity:1;stroke-miterlimit:4;" d="M 52.464844 40.558594 L 75.769531 40.558594 L 75.769531 41.480469 L 52.464844 41.480469 Z M 52.464844 40.558594 "/>
<path style="fill-rule:evenodd;fill:rgb(99.998474%,99.998474%,99.998474%);fill-opacity:1;stroke-width:0.151272;stroke-linecap:butt;stroke-linejoin:round;stroke:rgb(0%,0%,0%);stroke-opacity:1;stroke-miterlimit:4;" d="M 52.464844 39.148438 L 75.769531 39.148438 L 75.769531 40.039062 L 52.464844 40.039062 Z M 52.464844 39.148438 "/>
<path style="fill-rule:evenodd;fill:rgb(99.998474%,99.998474%,99.998474%);fill-opacity:1;stroke-width:0.165395;stroke-linecap:round;stroke-linejoin:round;stroke:rgb(0%,0%,0%);stroke-opacity:1;stroke-miterlimit:4;" d="M 74.890625 38.691406 L 76.152344 38.691406 L 76.152344 41.363281 L 74.890625 41.363281 Z M 74.890625 38.691406 "/>
<path style="fill-rule:evenodd;fill:rgb(99.998474%,99.998474%,99.998474%);fill-opacity:1;stroke-width:0.1536;stroke-linecap:butt;stroke-linejoin:miter;stroke:rgb(0%,0%,0%);stroke-opacity:1;stroke-miterlimit:4;" d="M 84.296875 48.128906 C 83.941406 47.96875 83.425781 47.53125 83.425781 47.089844 L 83.425781 41.859375 L 83.667969 41.425781 L 74.757812 41.425781 L 75.105469 41.859375 L 75.105469 47.089844 C 75.105469 47.53125 74.75 47.96875 74.394531 48.128906 Z M 84.296875 48.128906 "/>
<path style="fill-rule:evenodd;fill:rgb(99.998474%,99.998474%,99.998474%);fill-opacity:1;stroke-width:0.1536;stroke-linecap:round;stroke-linejoin:round;stroke:rgb(0%,0%,0%);stroke-opacity:1;stroke-miterlimit:4;" d="M 58.597656 43.640625 L 59.332031 43.640625 L 59.332031 47.019531 L 58.597656 47.019531 Z M 58.597656 43.640625 "/>
<path style="fill-rule:evenodd;fill:rgb(99.998474%,99.998474%,99.998474%);fill-opacity:1;stroke-width:0.1536;stroke-linecap:round;stroke-linejoin:round;stroke:rgb(0%,0%,0%);stroke-opacity:1;stroke-miterlimit:4;" d="M 68.632812 43.640625 L 69.367188 43.640625 L 69.367188 47.019531 L 68.632812 47.019531 Z M 68.632812 43.640625 "/>
<path style="fill-rule:evenodd;fill:rgb(99.998474%,99.998474%,99.998474%);fill-opacity:1;stroke-width:0.1536;stroke-linecap:butt;stroke-linejoin:miter;stroke:rgb(0%,0%,0%);stroke-opacity:1;stroke-miterlimit:4;" d="M 69.859375 48.128906 C 69.445312 47.96875 68.839844 47.53125 68.839844 47.089844 L 68.839844 42.113281 L 69.382812 41.425781 L 58.574219 41.425781 L 59.089844 42.113281 L 59.089844 47.089844 C 59.089844 47.53125 58.675781 47.96875 58.261719 48.128906 Z M 69.859375 48.128906 "/>
<path style="fill-rule:evenodd;fill:rgb(99.998474%,99.998474%,99.998474%);fill-opacity:1;stroke-width:0.1536;stroke-linecap:round;stroke-linejoin:round;stroke:rgb(0%,0%,0%);stroke-opacity:1;stroke-miterlimit:4;" d="M 60.496094 43.640625 L 61.230469 43.640625 L 61.230469 47.019531 L 60.496094 47.019531 Z M 60.496094 43.640625 "/>
<path style="fill-rule:evenodd;fill:rgb(99.998474%,99.998474%,99.998474%);fill-opacity:1;stroke-width:0.1536;stroke-linecap:round;stroke-linejoin:round;stroke:rgb(0%,0%,0%);stroke-opacity:1;stroke-miterlimit:4;" d="M 66.703125 43.640625 L 67.4375 43.640625 L 67.4375 47.019531 L 66.703125 47.019531 Z M 66.703125 43.640625 "/>
<path style="fill-rule:evenodd;fill:rgb(99.998474%,99.998474%,99.998474%);fill-opacity:1;stroke-width:0.1536;stroke-linecap:butt;stroke-linejoin:miter;stroke:rgb(0%,0%,0%);stroke-opacity:1;stroke-miterlimit:4;" d="M 58.378906 35.765625 L 58.378906 41.425781 L 69.441406 41.425781 L 69.441406 40.207031 L 69.457031 35.765625 C 69.007812 35.941406 68.925781 36.351562 68.925781 36.351562 L 68.925781 38.765625 L 58.941406 38.765625 L 58.941406 36.351562 C 58.941406 36.351562 58.832031 35.941406 58.378906 35.765625 Z M 58.378906 35.765625 "/>
<path style="fill-rule:evenodd;fill:rgb(99.998474%,99.998474%,99.998474%);fill-opacity:1;stroke-width:0.1536;stroke-linecap:butt;stroke-linejoin:miter;stroke:rgb(0%,0%,0%);stroke-opacity:1;stroke-miterlimit:4;" d="M 67.941406 48.128906 C 67.578125 47.96875 66.792969 47.53125 66.792969 47.089844 L 66.792969 41.523438 C 66.871094 41.210938 67.292969 41.027344 67.5625 40.835938 L 60.226562 40.835938 C 60.574219 41.019531 60.964844 41.171875 61.105469 41.523438 L 61.105469 47.089844 C 61.105469 47.53125 60.480469 47.96875 60.121094 48.128906 Z M 67.941406 48.128906 "/>
<path style="fill-rule:evenodd;fill:rgb(99.998474%,99.998474%,99.998474%);fill-opacity:1;stroke-width:0.1536;stroke-linecap:butt;stroke-linejoin:miter;stroke:rgb(0%,0%,0%);stroke-opacity:1;stroke-miterlimit:4;" d="M 68.925781 40.894531 L 68.925781 36.882812 L 67.921875 36.882812 L 67.921875 36.492188 L 59.964844 36.492188 L 59.964844 36.882812 L 58.960938 36.882812 L 58.960938 40.894531 Z M 68.925781 40.894531 "/>
<path style="fill-rule:evenodd;fill:rgb(99.998474%,99.998474%,99.998474%);fill-opacity:1;stroke-width:0.1536;stroke-linecap:round;stroke-linejoin:round;stroke:rgb(0%,0%,0%);stroke-opacity:1;stroke-miterlimit:4;" d="M 52.648438 43.640625 L 53.382812 43.640625 L 53.382812 47.019531 L 52.648438 47.019531 Z M 52.648438 43.640625 "/>
<path style="fill-rule:evenodd;fill:rgb(99.998474%,99.998474%,99.998474%);fill-opacity:1;stroke-width:0.1536;stroke-linecap:butt;stroke-linejoin:miter;stroke:rgb(0%,0%,0%);stroke-opacity:1;stroke-miterlimit:4;" d="M 43.707031 48.128906 C 44.0625 47.96875 44.578125 47.53125 44.578125 47.089844 L 44.578125 41.859375 L 44.335938 41.425781 L 53.25 41.425781 L 52.902344 41.859375 L 52.902344 47.089844 C 52.902344 47.53125 53.253906 47.96875 53.609375 48.128906 Z M 43.707031 48.128906 "/>
<path style="fill-rule:evenodd;fill:rgb(99.998474%,99.998474%,99.998474%);fill-opacity:1;stroke-width:0.1536;stroke-linecap:round;stroke-linejoin:round;stroke:rgb(0%,0%,0%);stroke-opacity:1;stroke-miterlimit:4;" d="M 44.664062 37.945312 L 45.484375 37.945312 L 45.484375 40.996094 L 44.664062 40.996094 Z M 44.664062 37.945312 "/>
<path style="fill-rule:evenodd;fill:rgb(99.998474%,99.998474%,99.998474%);fill-opacity:1;stroke-width:0.1536;stroke-linecap:round;stroke-linejoin:round;stroke:rgb(0%,0%,0%);stroke-opacity:1;stroke-miterlimit:4;" d="M 44.65625 37.292969 L 45.480469 37.292969 L 45.480469 37.933594 L 44.65625 37.933594 Z M 44.65625 37.292969 "/>
<path style="fill-rule:evenodd;fill:rgb(99.998474%,99.998474%,99.998474%);fill-opacity:1;stroke-width:0.1536;stroke-linecap:butt;stroke-linejoin:miter;stroke:rgb(0%,0%,0%);stroke-opacity:1;stroke-miterlimit:4;" d="M 51.808594 48.128906 C 51.457031 47.96875 50.941406 47.53125 50.941406 47.089844 L 50.941406 42.113281 L 51.679688 41.425781 L 45.621094 41.425781 L 46.363281 42.113281 L 46.363281 47.089844 C 46.363281 47.53125 45.847656 47.96875 45.492188 48.128906 Z M 51.808594 48.128906 "/>
<path style="fill-rule:evenodd;fill:rgb(99.998474%,99.998474%,99.998474%);fill-opacity:1;stroke-width:0.1536;stroke-linecap:butt;stroke-linejoin:miter;stroke:rgb(0%,0%,0%);stroke-opacity:1;stroke-miterlimit:4;" d="M 50.960938 48.128906 C 50.605469 47.96875 50.089844 47.53125 50.089844 47.089844 L 50.089844 42.59375 L 50.578125 41.902344 L 46.726562 41.902344 L 47.210938 42.59375 L 47.210938 47.089844 C 47.210938 47.53125 46.695312 47.96875 46.339844 48.128906 Z M 50.960938 48.128906 "/>
<path style="fill-rule:evenodd;fill:rgb(99.998474%,99.998474%,99.998474%);fill-opacity:1;stroke-width:0.1536;stroke-linecap:butt;stroke-linejoin:miter;stroke:rgb(0%,0%,0%);stroke-opacity:1;stroke-miterlimit:4;" d="M 82.484375 48.128906 C 82.128906 47.96875 81.613281 47.53125 81.613281 47.089844 L 81.613281 42.113281 L 82.355469 41.425781 L 76.296875 41.425781 L 77.039062 42.113281 L 77.039062 47.089844 C 77.039062 47.53125 76.519531 47.96875 76.167969 48.128906 Z M 82.484375 48.128906 "/>
<path style="fill-rule:evenodd;fill:rgb(99.998474%,99.998474%,99.998474%);fill-opacity:1;stroke-width:0.1536;stroke-linecap:butt;stroke-linejoin:miter;stroke:rgb(0%,0%,0%);stroke-opacity:1;stroke-miterlimit:4;" d="M 81.636719 48.128906 C 81.28125 47.96875 80.765625 47.53125 80.765625 47.089844 L 80.765625 42.59375 L 81.25 41.902344 L 77.402344 41.902344 L 77.886719 42.59375 L 77.886719 47.089844 C 77.886719 47.53125 77.371094 47.96875 77.015625 48.128906 Z M 81.636719 48.128906 "/>
<path style="fill-rule:evenodd;fill:rgb(99.998474%,99.998474%,99.998474%);fill-opacity:1;stroke-width:0.1536;stroke-linecap:butt;stroke-linejoin:miter;stroke:rgb(0%,0%,0%);stroke-opacity:1;stroke-miterlimit:4;" d="M 47.730469 41.902344 L 49.570312 41.902344 L 49.570312 48.128906 L 47.730469 48.128906 Z M 47.730469 41.902344 "/>
<path style="fill-rule:evenodd;fill:rgb(99.998474%,99.998474%,99.998474%);fill-opacity:1;stroke-width:0.1536;stroke-linecap:butt;stroke-linejoin:miter;stroke:rgb(0%,0%,0%);stroke-opacity:1;stroke-miterlimit:4;" d="M 66.355469 48.128906 C 66.003906 47.96875 65.484375 47.53125 65.484375 47.089844 L 65.484375 42.335938 L 65.777344 41.902344 L 62.152344 41.902344 L 62.445312 42.335938 L 62.445312 47.089844 C 62.445312 47.53125 61.929688 47.96875 61.574219 48.128906 Z M 66.355469 48.128906 "/>
<path style="fill-rule:evenodd;fill:rgb(99.998474%,99.998474%,99.998474%);fill-opacity:1;stroke-width:0.156956;stroke-linecap:butt;stroke-linejoin:miter;stroke:rgb(0%,0%,0%);stroke-opacity:1;stroke-miterlimit:4;" d="M 63.046875 41.90625 L 64.882812 41.90625 L 64.882812 48.128906 L 63.046875 48.128906 Z M 63.046875 41.90625 "/>
<path style="fill-rule:evenodd;fill:rgb(99.998474%,99.998474%,99.998474%);fill-opacity:1;stroke-width:0.1536;stroke-linecap:butt;stroke-linejoin:miter;stroke:rgb(0%,0%,0%);stroke-opacity:1;stroke-miterlimit:4;" d="M 78.40625 41.902344 L 80.246094 41.902344 L 80.246094 48.128906 L 78.40625 48.128906 Z M 78.40625 41.902344 "/>
<path style="fill-rule:evenodd;fill:rgb(99.998474%,99.998474%,99.998474%);fill-opacity:1;stroke-width:0.1536;stroke-linecap:butt;stroke-linejoin:round;stroke:rgb(0%,0%,0%);stroke-opacity:1;stroke-miterlimit:4;" d="M 62.125 39.539062 L 65.808594 39.539062 L 65.808594 40.898438 L 62.125 40.898438 Z M 62.125 39.539062 "/>
<path style="fill-rule:evenodd;fill:rgb(99.998474%,99.998474%,99.998474%);fill-opacity:1;stroke-width:0.1536;stroke-linecap:butt;stroke-linejoin:round;stroke:rgb(0%,0%,0%);stroke-opacity:1;stroke-miterlimit:4;" d="M 65.847656 40.535156 C 65.851562 40.128906 67.042969 40.109375 67.65625 39.757812 L 60.292969 39.757812 C 60.90625 40.109375 62.070312 40.136719 62.070312 40.535156 L 62.320312 41.332031 L 65.367188 41.453125 Z M 65.847656 40.535156 "/>
<path style="fill-rule:evenodd;fill:rgb(99.998474%,99.998474%,99.998474%);fill-opacity:1;stroke-width:0.1536;stroke-linecap:butt;stroke-linejoin:miter;stroke:rgb(0%,0%,0%);stroke-opacity:1;stroke-miterlimit:4;" d="M 67.289062 36.207031 C 67.289062 35.203125 67.328125 34.816406 67.636719 34.816406 L 67.636719 38.007812 C 66.882812 38.28125 66.34375 39.246094 66.34375 39.246094 L 61.589844 39.246094 C 61.589844 39.246094 61.050781 38.28125 60.292969 38.007812 L 60.292969 34.816406 C 60.671875 34.816406 60.675781 35.222656 60.675781 36.207031 Z M 67.289062 36.207031 "/>
<path style="fill-rule:evenodd;fill:rgb(99.998474%,99.998474%,99.998474%);fill-opacity:1;stroke-width:0.1536;stroke-linecap:butt;stroke-linejoin:miter;stroke:rgb(0%,0%,0%);stroke-opacity:1;stroke-miterlimit:4;" d="M 61.660156 36.800781 C 62.273438 37.539062 62.214844 38.785156 62.207031 39.519531 L 65.761719 39.519531 C 65.753906 38.785156 65.695312 37.539062 66.308594 36.800781 Z M 61.660156 36.800781 "/>
<path style="fill-rule:evenodd;fill:rgb(99.998474%,99.998474%,99.998474%);fill-opacity:1;stroke-width:0.1536;stroke-linecap:round;stroke-linejoin:round;stroke:rgb(0%,0%,0%);stroke-opacity:1;stroke-miterlimit:4;" d="M 45.230469 43.640625 L 45.964844 43.640625 L 45.964844 47.019531 L 45.230469 47.019531 Z M 45.230469 43.640625 "/>
<path style="fill-rule:evenodd;fill:rgb(99.998474%,99.998474%,99.998474%);fill-opacity:1;stroke-width:0.1536;stroke-linecap:round;stroke-linejoin:round;stroke:rgb(0%,0%,0%);stroke-opacity:1;stroke-miterlimit:4;" d="M 82.542969 37.945312 L 83.367188 37.945312 L 83.367188 40.996094 L 82.542969 40.996094 Z M 82.542969 37.945312 "/>
<path style="fill:none;stroke-width:0.1536;stroke-linecap:butt;stroke-linejoin:miter;stroke:rgb(0%,0%,0%);stroke-opacity:1;stroke-miterlimit:4;" d="M 43.347656 48.128906 C 43.707031 47.945312 44.117188 47.519531 44.253906 47.039062 L 83.792969 47.039062 C 83.929688 47.519531 84.339844 47.945312 84.699219 48.128906 Z M 43.347656 48.128906 "/>
<path style="fill-rule:evenodd;fill:rgb(99.998474%,99.998474%,99.998474%);fill-opacity:1;stroke-width:0.1536;stroke-linecap:round;stroke-linejoin:round;stroke:rgb(0%,0%,0%);stroke-opacity:1;stroke-miterlimit:4;" d="M 51.527344 43.640625 L 52.261719 43.640625 L 52.261719 47.019531 L 51.527344 47.019531 Z M 51.527344 43.640625 "/>
<path style="fill-rule:evenodd;fill:rgb(99.998474%,99.998474%,99.998474%);fill-opacity:1;stroke-width:0.1536;stroke-linecap:butt;stroke-linejoin:miter;stroke:rgb(0%,0%,0%);stroke-opacity:1;stroke-miterlimit:4;" d="M 44.085938 36.90625 L 44.085938 41.425781 L 44.601562 41.425781 L 44.601562 36.894531 C 44.414062 36.800781 44.242188 36.785156 44.085938 36.90625 Z M 44.085938 36.90625 "/>
<path style="fill-rule:evenodd;fill:rgb(99.998474%,99.998474%,99.998474%);fill-opacity:1;stroke-width:0.1536;stroke-linecap:butt;stroke-linejoin:miter;stroke:rgb(0%,0%,0%);stroke-opacity:1;stroke-miterlimit:4;" d="M 44.101562 39.832031 C 44.742188 40.15625 45.371094 40.535156 45.53125 41.425781 L 44.101562 41.425781 Z M 44.101562 39.832031 "/>
<path style="fill-rule:evenodd;fill:rgb(99.998474%,99.998474%,99.998474%);fill-opacity:1;stroke-width:0.165395;stroke-linecap:round;stroke-linejoin:round;stroke:rgb(0%,0%,0%);stroke-opacity:1;stroke-miterlimit:4;" d="M 51.878906 38.691406 L 53.140625 38.691406 L 53.140625 41.363281 L 51.878906 41.363281 Z M 51.878906 38.691406 "/>
<path style="fill-rule:evenodd;fill:rgb(99.998474%,99.998474%,99.998474%);fill-opacity:1;stroke-width:0.1536;stroke-linecap:butt;stroke-linejoin:miter;stroke:rgb(0%,0%,0%);stroke-opacity:1;stroke-miterlimit:4;" d="M 52.945312 38.476562 L 52.945312 41.425781 L 53.359375 41.425781 L 53.359375 38.46875 C 53.230469 38.40625 53.050781 38.398438 52.945312 38.476562 Z M 52.945312 38.476562 "/>
<path style="fill-rule:evenodd;fill:rgb(99.998474%,99.998474%,99.998474%);fill-opacity:1;stroke-width:0.1536;stroke-linecap:butt;stroke-linejoin:miter;stroke:rgb(0%,0%,0%);stroke-opacity:1;stroke-miterlimit:4;" d="M 60.960938 36.207031 L 60.960938 35.074219 C 60.941406 34.507812 60.394531 34.46875 60.378906 34.054688 C 60.378906 34.054688 60.308594 33.433594 60.46875 33.152344 C 60.691406 33.980469 61.097656 33.828125 61.097656 33.484375 C 61.097656 33.1875 60.867188 32.910156 60.398438 32.1875 C 60.25 31.960938 60.339844 31.234375 60.550781 30.976562 C 60.632812 31.605469 60.726562 31.90625 60.996094 31.90625 C 61.160156 31.90625 61.296875 31.800781 61.296875 31.484375 C 61.296875 31.085938 61.023438 30.882812 60.890625 30.515625 C 60.734375 30.089844 60.84375 29.65625 61.101562 29.414062 C 61.210938 30.035156 61.179688 30.28125 61.453125 30.28125 C 62.011719 30.105469 61.453125 29.300781 61.335938 29.097656 C 61.199219 28.863281 61.519531 28.390625 61.519531 28.390625 C 61.695312 28.941406 61.753906 28.984375 61.941406 28.933594 C 62.183594 28.871094 62.152344 28.515625 61.859375 28.226562 C 61.675781 28.042969 61.695312 27.773438 61.890625 27.554688 C 62.09375 27.945312 62.347656 27.921875 62.371094 27.691406 L 62.210938 26.789062 L 65.746094 26.789062 L 65.570312 27.660156 C 65.519531 27.910156 65.855469 27.964844 66.066406 27.554688 C 66.265625 27.773438 66.285156 28.042969 66.097656 28.226562 C 65.804688 28.515625 65.773438 28.871094 66.015625 28.933594 C 66.203125 28.984375 66.261719 28.941406 66.4375 28.390625 C 66.4375 28.390625 66.726562 28.710938 66.621094 29.097656 C 66.503906 29.300781 65.949219 30.105469 66.503906 30.28125 C 66.777344 30.28125 66.746094 30.035156 66.855469 29.414062 C 67.117188 29.65625 67.222656 30.089844 67.066406 30.515625 C 66.933594 30.882812 66.660156 31.085938 66.660156 31.484375 C 66.660156 31.800781 66.796875 31.90625 66.960938 31.90625 C 67.230469 31.90625 67.324219 31.605469 67.40625 30.976562 C 67.617188 31.234375 67.707031 31.960938 67.558594 32.1875 C 67.089844 32.910156 66.859375 33.1875 66.859375 33.484375 C 66.859375 33.828125 67.265625 33.980469 67.488281 33.152344 C 67.648438 33.433594 67.578125 34.054688 67.578125 34.054688 C 67.5625 34.46875 67.015625 34.507812 67 35.074219 L 67 36.207031 Z M 60.960938 36.207031 "/>
<path style="fill:none;stroke-width:0.128;stroke-linecap:butt;stroke-linejoin:miter;stroke:rgb(0%,0%,0%);stroke-opacity:1;stroke-miterlimit:4;" d="M 62.253906 27.867188 L 65.761719 27.867188 "/>
<path style="fill-rule:evenodd;fill:rgb(99.998474%,99.998474%,99.998474%);fill-opacity:1;stroke-width:0.1536;stroke-linecap:butt;stroke-linejoin:miter;stroke:rgb(0%,0%,0%);stroke-opacity:1;stroke-miterlimit:4;" d="M 63.65625 28.378906 L 63.167969 28.128906 L 63.167969 27.410156 C 63.367188 27.472656 63.59375 27.496094 63.613281 27.8125 C 63.683594 27.359375 63.808594 27.382812 64.003906 27.207031 C 64.199219 27.382812 64.324219 27.359375 64.394531 27.8125 C 64.417969 27.496094 64.640625 27.472656 64.839844 27.410156 L 64.839844 28.128906 L 64.351562 28.378906 Z M 63.65625 28.378906 "/>
<path style="fill:none;stroke-width:0.128;stroke-linecap:butt;stroke-linejoin:miter;stroke:rgb(0%,0%,0%);stroke-opacity:1;stroke-miterlimit:4;" d="M 61.839844 28.964844 L 66.125 28.964844 "/>
<path style="fill-rule:evenodd;fill:rgb(99.998474%,99.998474%,99.998474%);fill-opacity:1;stroke-width:0.1536;stroke-linecap:butt;stroke-linejoin:miter;stroke:rgb(0%,0%,0%);stroke-opacity:1;stroke-miterlimit:4;" d="M 63.625 29.554688 L 62.816406 29 L 62.816406 28.339844 C 63.097656 28.40625 63.417969 28.429688 63.449219 28.777344 C 63.546875 28.28125 63.726562 28.027344 64.003906 27.832031 C 64.285156 28.027344 64.460938 28.28125 64.558594 28.777344 C 64.589844 28.429688 64.910156 28.40625 65.191406 28.339844 L 65.191406 29 L 64.382812 29.554688 Z M 63.625 29.554688 "/>
<path style="fill:none;stroke-width:0.128;stroke-linecap:butt;stroke-linejoin:miter;stroke:rgb(0%,0%,0%);stroke-opacity:1;stroke-miterlimit:4;" d="M 61.425781 30.292969 L 66.523438 30.292969 "/>
<path style="fill-rule:evenodd;fill:rgb(99.998474%,99.998474%,99.998474%);fill-opacity:1;stroke-width:0.1536;stroke-linecap:butt;stroke-linejoin:miter;stroke:rgb(0%,0%,0%);stroke-opacity:1;stroke-miterlimit:4;" d="M 63.566406 31.386719 L 62.636719 30.570312 L 62.636719 29.601562 C 62.964844 29.695312 63.328125 29.734375 63.363281 30.246094 C 63.476562 29.519531 63.683594 29.140625 64.003906 28.855469 C 64.324219 29.140625 64.53125 29.519531 64.644531 30.246094 C 64.679688 29.734375 65.046875 29.695312 65.371094 29.601562 L 65.371094 30.570312 L 64.441406 31.386719 Z M 63.566406 31.386719 "/>
<path style="fill-rule:evenodd;fill:rgb(99.998474%,99.998474%,99.998474%);fill-opacity:1;stroke-width:0.1536;stroke-linecap:butt;stroke-linejoin:miter;stroke:rgb(0%,0%,0%);stroke-opacity:1;stroke-miterlimit:4;" d="M 65.28125 32.46875 L 64.441406 33.632812 L 63.488281 33.632812 L 62.648438 32.46875 Z M 65.28125 32.46875 "/>
<path style="fill-rule:evenodd;fill:rgb(99.998474%,99.998474%,99.998474%);fill-opacity:1;stroke-width:0.1536;stroke-linecap:butt;stroke-linejoin:miter;stroke:rgb(0%,0%,0%);stroke-opacity:1;stroke-miterlimit:4;" d="M 62.164062 34.421875 C 62.585938 34.652344 62.738281 35.109375 62.785156 35.96875 L 65.148438 35.96875 C 65.195312 35.109375 65.351562 34.652344 65.769531 34.421875 Z M 62.164062 34.421875 "/>
<path style="fill:none;stroke-width:0.128;stroke-linecap:butt;stroke-linejoin:miter;stroke:rgb(0%,0%,0%);stroke-opacity:1;stroke-miterlimit:4;" d="M 60.988281 31.917969 L 67.039062 31.917969 "/>
<path style="fill:none;stroke-width:0.128;stroke-linecap:butt;stroke-linejoin:miter;stroke:rgb(0%,0%,0%);stroke-opacity:1;stroke-miterlimit:4;" d="M 60.851562 33.769531 L 67.082031 33.769531 "/>
<path style="fill-rule:evenodd;fill:rgb(99.998474%,99.998474%,99.998474%);fill-opacity:1;stroke-width:0.1536;stroke-linecap:butt;stroke-linejoin:round;stroke:rgb(0%,0%,0%);stroke-opacity:1;stroke-miterlimit:4;" d="M 65.804688 32.46875 L 65.804688 31.300781 C 65.40625 31.414062 65.148438 31.648438 65.03125 31.96875 C 65.03125 31.582031 64.523438 30.6875 63.964844 30.242188 C 63.40625 30.742188 62.890625 31.550781 62.898438 31.96875 C 62.804688 31.664062 62.527344 31.414062 62.125 31.300781 L 62.125 32.46875 Z M 65.804688 32.46875 "/>
<path style="fill-rule:evenodd;fill:rgb(99.998474%,99.998474%,99.998474%);fill-opacity:1;stroke-width:0.1536;stroke-linecap:butt;stroke-linejoin:round;stroke:rgb(0%,0%,0%);stroke-opacity:1;stroke-miterlimit:4;" d="M 65.980469 34.421875 L 65.980469 33.253906 C 65.542969 33.363281 65.261719 33.601562 65.132812 33.921875 C 65.132812 33.53125 64.574219 32.640625 63.964844 32.195312 C 63.355469 32.691406 62.785156 33.5 62.796875 33.921875 C 62.691406 33.613281 62.386719 33.363281 61.949219 33.253906 L 61.949219 34.421875 Z M 65.980469 34.421875 "/>
<path style="fill-rule:evenodd;fill:rgb(99.998474%,99.998474%,99.998474%);fill-opacity:1;stroke-width:0.1536;stroke-linecap:butt;stroke-linejoin:round;stroke:rgb(0%,0%,0%);stroke-opacity:1;stroke-miterlimit:4;" d="M 66.472656 36.816406 L 66.472656 35.472656 C 65.929688 35.609375 65.589844 36.015625 65.421875 36.25 C 65.421875 35.519531 64.597656 34.40625 63.964844 34.042969 C 63.320312 34.417969 62.511719 35.566406 62.511719 36.25 C 62.335938 36.015625 62 35.609375 61.457031 35.472656 L 61.457031 36.816406 Z M 66.472656 36.816406 "/>
<path style="fill-rule:evenodd;fill:rgb(99.998474%,99.998474%,99.998474%);fill-opacity:1;stroke-width:0.1536;stroke-linecap:butt;stroke-linejoin:round;stroke:rgb(0%,0%,0%);stroke-opacity:1;stroke-miterlimit:4;" d="M 66.179688 39.808594 L 66.179688 38.421875 C 65.699219 38.609375 65.554688 39.074219 65.402344 39.390625 C 65.464844 37.984375 64.613281 36.472656 63.964844 36.09375 C 63.316406 36.472656 62.453125 38.015625 62.527344 39.390625 C 62.371094 39.078125 62.230469 38.609375 61.75 38.421875 L 61.75 39.808594 Z M 66.179688 39.808594 "/>
<path style="fill-rule:evenodd;fill:rgb(99.998474%,99.998474%,99.998474%);fill-opacity:1;stroke-width:0.1536;stroke-linecap:round;stroke-linejoin:round;stroke:rgb(0%,0%,0%);stroke-opacity:1;stroke-miterlimit:4;" d="M 82.550781 37.292969 L 83.371094 37.292969 L 83.371094 37.933594 L 82.550781 37.933594 Z M 82.550781 37.292969 "/>
<path style="fill-rule:evenodd;fill:rgb(99.998474%,99.998474%,99.998474%);fill-opacity:1;stroke-width:0.1536;stroke-linecap:round;stroke-linejoin:round;stroke:rgb(0%,0%,0%);stroke-opacity:1;stroke-miterlimit:4;" d="M 75.753906 43.640625 L 76.488281 43.640625 L 76.488281 47.019531 L 75.753906 47.019531 Z M 75.753906 43.640625 "/>
<path style="fill-rule:evenodd;fill:rgb(99.998474%,99.998474%,99.998474%);fill-opacity:1;stroke-width:0.1536;stroke-linecap:round;stroke-linejoin:round;stroke:rgb(0%,0%,0%);stroke-opacity:1;stroke-miterlimit:4;" d="M 82.050781 43.640625 L 82.785156 43.640625 L 82.785156 47.019531 L 82.050781 47.019531 Z M 82.050781 43.640625 "/>
<path style="fill:none;stroke-width:0.1536;stroke-linecap:butt;stroke-linejoin:miter;stroke:rgb(0%,0%,0%);stroke-opacity:1;stroke-miterlimit:4;" d="M 58.960938 39.808594 L 68.925781 39.808594 "/>
<path style="fill:none;stroke-width:0.1536;stroke-linecap:butt;stroke-linejoin:miter;stroke:rgb(0%,0%,0%);stroke-opacity:1;stroke-miterlimit:4;" d="M 62.125 39.808594 L 65.816406 39.808594 L 65.816406 41.167969 L 62.125 41.167969 Z M 62.125 39.808594 "/>
<path style="fill-rule:evenodd;fill:rgb(99.998474%,99.998474%,99.998474%);fill-opacity:1;stroke-width:0.1536;stroke-linecap:butt;stroke-linejoin:miter;stroke:rgb(0%,0%,0%);stroke-opacity:1;stroke-miterlimit:4;" d="M 65.84375 41.902344 L 65.84375 40.519531 C 65.339844 40.640625 65.308594 40.824219 65.148438 41.136719 C 65.207031 40.296875 64.613281 39.339844 63.964844 38.957031 C 63.316406 39.339844 62.722656 40.296875 62.785156 41.136719 C 62.625 40.824219 62.601562 40.640625 62.089844 40.519531 L 62.089844 41.902344 Z M 65.84375 41.902344 "/>
<path style="fill-rule:evenodd;fill:rgb(99.998474%,99.998474%,99.998474%);fill-opacity:1;stroke-width:0.1536;stroke-linecap:butt;stroke-linejoin:miter;stroke:rgb(0%,0%,0%);stroke-opacity:1;stroke-miterlimit:4;" d="M 53.359375 39.832031 C 52.722656 40.15625 52.089844 40.535156 51.933594 41.425781 L 53.359375 41.425781 Z M 53.359375 39.832031 "/>
<path style="fill-rule:evenodd;fill:rgb(99.998474%,99.998474%,99.998474%);fill-opacity:1;stroke-width:0.1536;stroke-linecap:round;stroke-linejoin:round;stroke:rgb(0%,0%,0%);stroke-opacity:1;stroke-miterlimit:4;" d="M 44.601562 37.945312 L 45.484375 37.945312 L 45.484375 41.40625 L 44.601562 41.40625 Z M 44.601562 37.945312 "/>
<path style="fill-rule:evenodd;fill:rgb(99.998474%,99.998474%,99.998474%);fill-opacity:1;stroke-width:0.1536;stroke-linecap:round;stroke-linejoin:round;stroke:rgb(0%,0%,0%);stroke-opacity:1;stroke-miterlimit:4;" d="M 44.601562 37.292969 L 45.480469 37.292969 L 45.480469 37.933594 L 44.601562 37.933594 Z M 44.601562 37.292969 "/>
<path style="fill-rule:evenodd;fill:rgb(99.998474%,99.998474%,99.998474%);fill-opacity:1;stroke-width:0.165395;stroke-linecap:round;stroke-linejoin:round;stroke:rgb(0%,0%,0%);stroke-opacity:1;stroke-miterlimit:4;" d="M 51.878906 38.691406 L 53.140625 38.691406 L 53.140625 41.363281 L 51.878906 41.363281 Z M 51.878906 38.691406 "/>
<path style="fill-rule:evenodd;fill:rgb(99.998474%,99.998474%,99.998474%);fill-opacity:1;stroke-width:0.1536;stroke-linecap:butt;stroke-linejoin:miter;stroke:rgb(0%,0%,0%);stroke-opacity:1;stroke-miterlimit:4;" d="M 45.472656 41.382812 L 45.472656 35.453125 C 45.726562 35.453125 45.765625 36.324219 46.34375 36.324219 C 46.644531 36.324219 46.613281 35.960938 46.445312 35.667969 C 46.292969 35.410156 46.109375 35.050781 46.359375 34.382812 C 46.53125 34.894531 46.996094 35.058594 46.910156 34.738281 C 46.765625 34.1875 46.339844 34.09375 46.65625 33.242188 C 46.769531 33.953125 47.226562 33.921875 47.113281 33.507812 C 46.988281 33.042969 46.730469 32.851562 47.050781 32.191406 C 47.230469 32.9375 47.46875 32.894531 47.46875 32.429688 C 47.46875 31.746094 47.445312 31.007812 48.332031 30.730469 C 48.332031 30.730469 48.382812 30.105469 48.703125 30.105469 C 49.023438 30.105469 49.074219 30.730469 49.074219 30.730469 C 49.960938 31.007812 49.933594 31.746094 49.933594 32.429688 C 49.933594 32.894531 50.175781 32.9375 50.355469 32.191406 C 50.671875 32.851562 50.414062 33.042969 50.289062 33.507812 C 50.179688 33.921875 50.636719 33.953125 50.746094 33.242188 C 51.066406 34.09375 50.640625 34.1875 50.492188 34.738281 C 50.40625 35.058594 50.871094 34.894531 51.042969 34.382812 C 51.296875 35.050781 51.109375 35.410156 50.960938 35.667969 C 50.792969 35.960938 50.761719 36.324219 51.0625 36.324219 C 51.640625 36.324219 51.679688 35.453125 51.929688 35.453125 L 51.929688 41.382812 Z M 45.472656 41.382812 "/>
<path style="fill-rule:evenodd;fill:rgb(99.998474%,99.998474%,99.998474%);fill-opacity:1;stroke-width:0.1536;stroke-linecap:butt;stroke-linejoin:miter;stroke:rgb(0%,0%,0%);stroke-opacity:1;stroke-miterlimit:4;" d="M 49.144531 32.914062 L 49.519531 32.605469 L 49.519531 32.203125 C 49.382812 32.21875 49.308594 32.265625 49.207031 32.394531 C 49.121094 32.128906 48.933594 31.921875 48.683594 31.792969 C 48.429688 31.921875 48.242188 32.121094 48.15625 32.386719 C 48.058594 32.253906 47.984375 32.21875 47.847656 32.203125 L 47.847656 32.605469 L 48.21875 32.914062 Z M 49.144531 32.914062 "/>
<path style="fill-rule:evenodd;fill:rgb(99.998474%,99.998474%,99.998474%);fill-opacity:1;stroke-width:0.1536;stroke-linecap:butt;stroke-linejoin:miter;stroke:rgb(0%,0%,0%);stroke-opacity:1;stroke-miterlimit:4;" d="M 49.34375 33.917969 L 49.519531 33.542969 L 49.519531 33.027344 C 49.382812 33.039062 49.308594 33.085938 49.207031 33.21875 C 49.121094 32.949219 48.933594 32.742188 48.683594 32.609375 C 48.429688 32.742188 48.242188 32.941406 48.15625 33.210938 C 48.058594 33.078125 47.984375 33.039062 47.847656 33.027344 L 47.847656 33.542969 L 48.019531 33.917969 Z M 49.34375 33.917969 "/>
<path style="fill-rule:evenodd;fill:rgb(99.998474%,99.998474%,99.998474%);fill-opacity:1;stroke-width:0.1536;stroke-linecap:butt;stroke-linejoin:miter;stroke:rgb(0%,0%,0%);stroke-opacity:1;stroke-miterlimit:4;" d="M 49.371094 35.277344 L 49.921875 34.601562 L 49.921875 33.9375 C 49.722656 33.960938 49.609375 34.039062 49.460938 34.265625 C 49.335938 33.8125 49.054688 33.710938 48.683594 33.492188 C 48.308594 33.710938 48.03125 33.796875 47.902344 34.25 C 47.753906 34.023438 47.644531 33.960938 47.441406 33.9375 L 47.441406 34.601562 L 47.992188 35.277344 Z M 49.371094 35.277344 "/>
<path style="fill-rule:evenodd;fill:rgb(99.998474%,99.998474%,99.998474%);fill-opacity:1;stroke-width:0.1536;stroke-linecap:butt;stroke-linejoin:miter;stroke:rgb(0%,0%,0%);stroke-opacity:1;stroke-miterlimit:4;" d="M 49.53125 36.609375 C 49.53125 36.609375 50.175781 36.046875 50.214844 35.738281 L 50.214844 35.03125 C 49.964844 35.058594 49.730469 35.125 49.546875 35.414062 C 49.386719 34.828125 49.144531 34.664062 48.683594 34.378906 C 48.222656 34.664062 47.976562 34.828125 47.820312 35.414062 C 47.636719 35.125 47.398438 35.058594 47.152344 35.03125 L 47.152344 35.738281 C 47.230469 36.046875 47.832031 36.609375 47.832031 36.609375 Z M 49.53125 36.609375 "/>
<path style="fill-rule:evenodd;fill:rgb(99.998474%,99.998474%,99.998474%);fill-opacity:1;stroke-width:0.1536;stroke-linecap:butt;stroke-linejoin:miter;stroke:rgb(0%,0%,0%);stroke-opacity:1;stroke-miterlimit:4;" d="M 49.808594 39.070312 C 49.808594 39.070312 50.6875 38.09375 50.707031 37.714844 L 50.707031 36.609375 C 50.378906 36.652344 50.066406 36.882812 49.824219 37.335938 C 49.617188 36.417969 49.292969 35.78125 48.683594 35.335938 C 48.070312 35.78125 47.75 36.417969 47.542969 37.335938 C 47.296875 36.882812 46.988281 36.652344 46.65625 36.609375 L 46.65625 37.714844 C 46.71875 38.09375 47.558594 39.070312 47.558594 39.070312 Z M 49.808594 39.070312 "/>
<path style="fill-rule:evenodd;fill:rgb(99.998474%,99.998474%,99.998474%);fill-opacity:1;stroke-width:0.1536;stroke-linecap:butt;stroke-linejoin:miter;stroke:rgb(0%,0%,0%);stroke-opacity:1;stroke-miterlimit:4;" d="M 49.808594 40.527344 C 49.808594 40.527344 50.558594 39.757812 50.707031 39.425781 L 50.707031 38.320312 C 50.378906 38.367188 50.066406 38.59375 49.824219 39.046875 C 49.617188 38.128906 49.292969 37.605469 48.683594 37.160156 C 48.070312 37.605469 47.75 38.128906 47.542969 39.046875 C 47.296875 38.59375 46.988281 38.367188 46.65625 38.320312 L 46.65625 39.425781 C 46.847656 39.757812 47.558594 40.527344 47.558594 40.527344 Z M 49.808594 40.527344 "/>
<path style="fill-rule:evenodd;fill:rgb(99.998474%,99.998474%,99.998474%);fill-opacity:1;stroke-width:0.1536;stroke-linecap:butt;stroke-linejoin:miter;stroke:rgb(0%,0%,0%);stroke-opacity:1;stroke-miterlimit:4;" d="M 50.109375 41.375 C 49.890625 40.417969 49.703125 39.710938 48.644531 38.988281 C 47.585938 39.710938 47.398438 40.417969 47.175781 41.375 Z M 50.109375 41.375 "/>
<path style="fill-rule:evenodd;fill:rgb(99.998474%,99.998474%,99.998474%);fill-opacity:1;stroke-width:0.1536;stroke-linecap:butt;stroke-linejoin:miter;stroke:rgb(0%,0%,0%);stroke-opacity:1;stroke-miterlimit:4;" d="M 50.65625 41.902344 L 50.65625 40.519531 C 50.175781 40.707031 49.742188 40.988281 49.582031 41.296875 C 49.402344 40.527344 49.058594 40.1875 48.628906 39.722656 C 48.199219 40.1875 47.910156 40.527344 47.730469 41.296875 C 47.570312 40.988281 47.136719 40.707031 46.65625 40.519531 L 46.65625 41.902344 Z M 50.65625 41.902344 "/>
<path style="fill-rule:evenodd;fill:rgb(99.998474%,99.998474%,99.998474%);fill-opacity:1;stroke-width:0.1536;stroke-linecap:butt;stroke-linejoin:miter;stroke:rgb(0%,0%,0%);stroke-opacity:1;stroke-miterlimit:4;" d="M 44.085938 36.90625 L 44.085938 41.425781 L 44.601562 41.425781 L 44.601562 36.894531 C 44.414062 36.800781 44.242188 36.785156 44.085938 36.90625 Z M 44.085938 36.90625 "/>
<path style="fill-rule:evenodd;fill:rgb(99.998474%,99.998474%,99.998474%);fill-opacity:1;stroke-width:0.1536;stroke-linecap:butt;stroke-linejoin:miter;stroke:rgb(0%,0%,0%);stroke-opacity:1;stroke-miterlimit:4;" d="M 44.101562 39.832031 C 44.742188 40.15625 45.371094 40.535156 45.53125 41.425781 L 44.101562 41.425781 Z M 44.101562 39.832031 "/>
<path style="fill-rule:evenodd;fill:rgb(99.998474%,99.998474%,99.998474%);fill-opacity:1;stroke-width:0.1536;stroke-linecap:butt;stroke-linejoin:miter;stroke:rgb(0%,0%,0%);stroke-opacity:1;stroke-miterlimit:4;" d="M 52.945312 38.476562 L 52.945312 41.425781 L 53.359375 41.425781 L 53.359375 38.46875 C 53.230469 38.40625 53.050781 38.398438 52.945312 38.476562 Z M 52.945312 38.476562 "/>
<path style="fill-rule:evenodd;fill:rgb(99.998474%,99.998474%,99.998474%);fill-opacity:1;stroke-width:0.1536;stroke-linecap:butt;stroke-linejoin:miter;stroke:rgb(0%,0%,0%);stroke-opacity:1;stroke-miterlimit:4;" d="M 53.359375 39.808594 C 52.722656 40.132812 52.089844 40.511719 51.933594 41.402344 L 53.359375 41.402344 Z M 53.359375 39.808594 "/>
<path style="fill-rule:evenodd;fill:rgb(99.998474%,99.998474%,99.998474%);fill-opacity:1;stroke-width:0.1536;stroke-linecap:butt;stroke-linejoin:miter;stroke:rgb(0%,0%,0%);stroke-opacity:1;stroke-miterlimit:4;" d="M 83.941406 36.90625 L 83.941406 41.425781 L 83.429688 41.425781 L 83.429688 36.894531 C 83.613281 36.800781 83.789062 36.785156 83.941406 36.90625 Z M 83.941406 36.90625 "/>
<path style="fill-rule:evenodd;fill:rgb(99.998474%,99.998474%,99.998474%);fill-opacity:1;stroke-width:0.1536;stroke-linecap:butt;stroke-linejoin:miter;stroke:rgb(0%,0%,0%);stroke-opacity:1;stroke-miterlimit:4;" d="M 76.128906 41.382812 L 76.128906 35.453125 C 76.378906 35.453125 76.417969 36.324219 77 36.324219 C 77.300781 36.324219 77.269531 35.960938 77.097656 35.667969 C 76.949219 35.410156 76.761719 35.050781 77.015625 34.382812 C 77.1875 34.894531 77.652344 35.058594 77.566406 34.738281 C 77.417969 34.1875 76.996094 34.09375 77.3125 33.242188 C 77.425781 33.953125 77.882812 33.921875 77.769531 33.507812 C 77.644531 33.042969 77.386719 32.851562 77.707031 32.191406 C 77.882812 32.9375 78.125 32.894531 78.125 32.429688 C 78.125 31.746094 78.097656 31.007812 78.988281 30.730469 C 78.988281 30.730469 79.039062 30.105469 79.359375 30.105469 C 79.675781 30.105469 79.730469 30.730469 79.730469 30.730469 C 80.617188 31.007812 80.589844 31.746094 80.589844 32.429688 C 80.589844 32.894531 80.832031 32.9375 81.007812 32.191406 C 81.328125 32.851562 81.070312 33.042969 80.945312 33.507812 C 80.835938 33.921875 81.292969 33.953125 81.402344 33.242188 C 81.71875 34.09375 81.296875 34.1875 81.148438 34.738281 C 81.0625 35.058594 81.527344 34.894531 81.699219 34.382812 C 81.953125 35.050781 81.765625 35.410156 81.617188 35.667969 C 81.445312 35.960938 81.414062 36.324219 81.714844 36.324219 C 82.296875 36.324219 82.335938 35.453125 82.585938 35.453125 L 82.585938 41.382812 Z M 76.128906 41.382812 "/>
<path style="fill-rule:evenodd;fill:rgb(99.998474%,99.998474%,99.998474%);fill-opacity:1;stroke-width:0.1536;stroke-linecap:butt;stroke-linejoin:miter;stroke:rgb(0%,0%,0%);stroke-opacity:1;stroke-miterlimit:4;" d="M 79.800781 32.914062 L 80.171875 32.605469 L 80.171875 32.203125 C 80.039062 32.21875 79.964844 32.265625 79.863281 32.394531 C 79.777344 32.128906 79.589844 31.921875 79.335938 31.792969 C 79.085938 31.921875 78.898438 32.121094 78.8125 32.386719 C 78.710938 32.253906 78.636719 32.21875 78.503906 32.203125 L 78.503906 32.605469 L 78.875 32.914062 Z M 79.800781 32.914062 "/>
<path style="fill-rule:evenodd;fill:rgb(99.998474%,99.998474%,99.998474%);fill-opacity:1;stroke-width:0.1536;stroke-linecap:butt;stroke-linejoin:miter;stroke:rgb(0%,0%,0%);stroke-opacity:1;stroke-miterlimit:4;" d="M 80 33.917969 L 80.171875 33.542969 L 80.171875 33.027344 C 80.039062 33.039062 79.964844 33.085938 79.863281 33.21875 C 79.777344 32.949219 79.589844 32.742188 79.335938 32.609375 C 79.085938 32.742188 78.898438 32.941406 78.8125 33.210938 C 78.710938 33.078125 78.636719 33.039062 78.503906 33.027344 L 78.503906 33.542969 L 78.675781 33.917969 Z M 80 33.917969 "/>
<path style="fill-rule:evenodd;fill:rgb(99.998474%,99.998474%,99.998474%);fill-opacity:1;stroke-width:0.1536;stroke-linecap:butt;stroke-linejoin:miter;stroke:rgb(0%,0%,0%);stroke-opacity:1;stroke-miterlimit:4;" d="M 80.027344 35.277344 L 80.578125 34.601562 L 80.578125 33.9375 C 80.375 33.960938 80.265625 34.039062 80.117188 34.265625 C 79.992188 33.8125 79.710938 33.710938 79.335938 33.492188 C 78.964844 33.710938 78.683594 33.796875 78.558594 34.25 C 78.410156 34.023438 78.300781 33.960938 78.097656 33.9375 L 78.097656 34.601562 L 78.648438 35.277344 Z M 80.027344 35.277344 "/>
<path style="fill-rule:evenodd;fill:rgb(99.998474%,99.998474%,99.998474%);fill-opacity:1;stroke-width:0.1536;stroke-linecap:butt;stroke-linejoin:miter;stroke:rgb(0%,0%,0%);stroke-opacity:1;stroke-miterlimit:4;" d="M 80.1875 36.609375 C 80.1875 36.609375 80.832031 36.046875 80.871094 35.738281 L 80.871094 35.03125 C 80.621094 35.058594 80.382812 35.125 80.199219 35.414062 C 80.042969 34.828125 79.800781 34.664062 79.335938 34.378906 C 78.875 34.664062 78.632812 34.828125 78.476562 35.414062 C 78.292969 35.125 78.054688 35.058594 77.804688 35.03125 L 77.804688 35.738281 C 77.886719 36.046875 78.488281 36.609375 78.488281 36.609375 Z M 80.1875 36.609375 "/>
<path style="fill-rule:evenodd;fill:rgb(99.998474%,99.998474%,99.998474%);fill-opacity:1;stroke-width:0.1536;stroke-linecap:butt;stroke-linejoin:miter;stroke:rgb(0%,0%,0%);stroke-opacity:1;stroke-miterlimit:4;" d="M 80.460938 39.070312 C 80.460938 39.070312 81.34375 38.09375 81.363281 37.714844 L 81.363281 36.609375 C 81.035156 36.652344 80.722656 36.882812 80.480469 37.335938 C 80.273438 36.417969 79.949219 35.78125 79.335938 35.335938 C 78.726562 35.78125 78.402344 36.417969 78.195312 37.335938 C 77.953125 36.882812 77.640625 36.652344 77.3125 36.609375 L 77.3125 37.714844 C 77.375 38.09375 78.214844 39.070312 78.214844 39.070312 Z M 80.460938 39.070312 "/>
<path style="fill-rule:evenodd;fill:rgb(99.998474%,99.998474%,99.998474%);fill-opacity:1;stroke-width:0.1536;stroke-linecap:butt;stroke-linejoin:miter;stroke:rgb(0%,0%,0%);stroke-opacity:1;stroke-miterlimit:4;" d="M 80.460938 40.527344 C 80.460938 40.527344 81.214844 39.757812 81.363281 39.425781 L 81.363281 38.320312 C 81.035156 38.367188 80.722656 38.59375 80.480469 39.046875 C 80.273438 38.128906 79.949219 37.605469 79.335938 37.160156 C 78.726562 37.605469 78.402344 38.128906 78.195312 39.046875 C 77.953125 38.59375 77.640625 38.367188 77.3125 38.320312 L 77.3125 39.425781 C 77.503906 39.757812 78.214844 40.527344 78.214844 40.527344 Z M 80.460938 40.527344 "/>
<path style="fill-rule:evenodd;fill:rgb(99.998474%,99.998474%,99.998474%);fill-opacity:1;stroke-width:0.1536;stroke-linecap:butt;stroke-linejoin:miter;stroke:rgb(0%,0%,0%);stroke-opacity:1;stroke-miterlimit:4;" d="M 80.765625 41.375 C 80.546875 40.417969 80.359375 39.710938 79.300781 38.988281 C 78.242188 39.710938 78.050781 40.417969 77.832031 41.375 Z M 80.765625 41.375 "/>
<path style="fill-rule:evenodd;fill:rgb(99.998474%,99.998474%,99.998474%);fill-opacity:1;stroke-width:0.1536;stroke-linecap:butt;stroke-linejoin:miter;stroke:rgb(0%,0%,0%);stroke-opacity:1;stroke-miterlimit:4;" d="M 83.925781 39.832031 C 83.289062 40.15625 82.726562 40.535156 82.566406 41.425781 L 83.925781 41.425781 Z M 83.925781 39.832031 "/>
<path style="fill-rule:evenodd;fill:rgb(99.998474%,99.998474%,99.998474%);fill-opacity:1;stroke-width:0.1536;stroke-linecap:butt;stroke-linejoin:miter;stroke:rgb(0%,0%,0%);stroke-opacity:1;stroke-miterlimit:4;" d="M 75.085938 38.476562 L 75.085938 41.425781 L 74.667969 41.425781 L 74.667969 38.46875 C 74.800781 38.40625 74.976562 38.398438 75.085938 38.476562 Z M 75.085938 38.476562 "/>
<path style="fill-rule:evenodd;fill:rgb(99.998474%,99.998474%,99.998474%);fill-opacity:1;stroke-width:0.1536;stroke-linecap:butt;stroke-linejoin:miter;stroke:rgb(0%,0%,0%);stroke-opacity:1;stroke-miterlimit:4;" d="M 74.667969 39.832031 C 75.304688 40.15625 75.9375 40.535156 76.097656 41.425781 L 74.667969 41.425781 Z M 74.667969 39.832031 "/>
<path style="fill-rule:evenodd;fill:rgb(99.998474%,99.998474%,99.998474%);fill-opacity:1;stroke-width:0.1536;stroke-linecap:butt;stroke-linejoin:miter;stroke:rgb(0%,0%,0%);stroke-opacity:1;stroke-miterlimit:4;" d="M 75.085938 38.476562 L 75.085938 41.425781 L 74.667969 41.425781 L 74.667969 38.46875 C 74.800781 38.40625 74.976562 38.398438 75.085938 38.476562 Z M 75.085938 38.476562 "/>
<path style="fill-rule:evenodd;fill:rgb(99.998474%,99.998474%,99.998474%);fill-opacity:1;stroke-width:0.1536;stroke-linecap:butt;stroke-linejoin:miter;stroke:rgb(0%,0%,0%);stroke-opacity:1;stroke-miterlimit:4;" d="M 74.667969 39.832031 C 75.304688 40.15625 75.9375 40.535156 76.097656 41.425781 L 74.667969 41.425781 Z M 74.667969 39.832031 "/>
<path style="fill-rule:evenodd;fill:rgb(99.998474%,99.998474%,99.998474%);fill-opacity:1;stroke-width:0.1536;stroke-linecap:butt;stroke-linejoin:miter;stroke:rgb(0%,0%,0%);stroke-opacity:1;stroke-miterlimit:4;" d="M 67.636719 35.796875 C 67.636719 34.644531 68.632812 34.515625 68.632812 34.515625 L 68.632812 35.539062 C 68.253906 35.523438 68.070312 35.863281 68.070312 36.367188 C 68.070312 36.875 68.375 36.882812 68.375 36.882812 L 68.375 39.789062 L 67.636719 39.789062 Z M 67.636719 35.796875 "/>
<path style="fill-rule:evenodd;fill:rgb(99.998474%,99.998474%,99.998474%);fill-opacity:1;stroke-width:0.1536;stroke-linecap:butt;stroke-linejoin:miter;stroke:rgb(0%,0%,0%);stroke-opacity:1;stroke-miterlimit:4;" d="M 60.296875 35.796875 C 60.296875 34.644531 59.304688 34.515625 59.304688 34.515625 L 59.304688 35.539062 C 59.683594 35.523438 59.863281 35.863281 59.863281 36.367188 C 59.863281 36.875 59.558594 36.882812 59.558594 36.882812 L 59.558594 39.789062 L 60.296875 39.789062 Z M 60.296875 35.796875 "/>
<path style="fill-rule:evenodd;fill:rgb(99.998474%,99.998474%,99.998474%);fill-opacity:1;stroke-width:0.1536;stroke-linecap:butt;stroke-linejoin:miter;stroke:rgb(0%,0%,0%);stroke-opacity:1;stroke-miterlimit:4;" d="M 81.328125 41.886719 L 81.328125 40.503906 C 80.847656 40.691406 80.414062 40.96875 80.253906 41.28125 C 80.074219 40.511719 79.730469 40.171875 79.300781 39.707031 C 78.871094 40.171875 78.582031 40.511719 78.402344 41.28125 C 78.242188 40.96875 77.808594 40.691406 77.328125 40.503906 L 77.328125 41.886719 Z M 81.328125 41.886719 "/>
<path style="fill-rule:evenodd;fill:rgb(99.998474%,99.998474%,99.998474%);fill-opacity:1;stroke-width:0.1536;stroke-linecap:butt;stroke-linejoin:miter;stroke:rgb(0%,0%,0%);stroke-opacity:1;stroke-miterlimit:4;" d="M 38.878906 53.1875 L 89.121094 53.1875 L 89.121094 55.753906 L 38.878906 55.753906 Z M 38.878906 53.1875 "/>
<path style="fill-rule:evenodd;fill:rgb(99.998474%,99.998474%,99.998474%);fill-opacity:1;stroke-width:0.1536;stroke-linecap:butt;stroke-linejoin:miter;stroke:rgb(0%,0%,0%);stroke-opacity:1;stroke-miterlimit:4;" d="M 37.554688 55.75 L 90.445312 55.75 L 90.445312 58.3125 L 37.554688 58.3125 Z M 37.554688 55.75 "/>
<path style="fill-rule:evenodd;fill:rgb(99.998474%,99.998474%,99.998474%);fill-opacity:1;stroke-width:0.1536;stroke-linecap:butt;stroke-linejoin:miter;stroke:rgb(0%,0%,0%);stroke-opacity:1;stroke-miterlimit:4;" d="M 41.515625 49.351562 L 86.484375 49.351562 L 86.484375 51.011719 L 41.515625 51.011719 Z M 41.515625 49.351562 "/>
<path style="fill-rule:evenodd;fill:rgb(99.998474%,99.998474%,99.998474%);fill-opacity:1;stroke-width:0.1536;stroke-linecap:butt;stroke-linejoin:miter;stroke:rgb(0%,0%,0%);stroke-opacity:1;stroke-miterlimit:4;" d="M 40.203125 51 L 87.796875 51 L 87.796875 53.175781 L 40.203125 53.175781 Z M 40.203125 51 "/>
<path style="fill-rule:evenodd;fill:rgb(99.998474%,99.998474%,99.998474%);fill-opacity:1;stroke-width:0.1536;stroke-linecap:butt;stroke-linejoin:miter;stroke:rgb(0%,0%,0%);stroke-opacity:1;stroke-miterlimit:4;" d="M 42.300781 48.074219 L 85.699219 48.074219 L 85.699219 49.335938 L 42.300781 49.335938 Z M 42.300781 48.074219 "/>
<path style="fill-rule:evenodd;fill:rgb(99.998474%,99.998474%,99.998474%);fill-opacity:1;stroke-width:0.167129;stroke-linecap:butt;stroke-linejoin:miter;stroke:rgb(0%,0%,0%);stroke-opacity:1;stroke-miterlimit:4;" d="M 47.011719 48.078125 L 50.289062 48.078125 L 50.289062 58.304688 L 47.011719 58.304688 Z M 47.011719 48.078125 "/>
<path style="fill-rule:evenodd;fill:rgb(99.998474%,99.998474%,99.998474%);fill-opacity:1;stroke-width:0.16687;stroke-linecap:butt;stroke-linejoin:miter;stroke:rgb(0%,0%,0%);stroke-opacity:1;stroke-miterlimit:4;" d="M 47.738281 48.078125 L 49.566406 48.078125 L 49.566406 58.304688 L 47.738281 58.304688 Z M 47.738281 48.078125 "/>
<path style="fill:none;stroke-width:0.1536;stroke-linecap:butt;stroke-linejoin:miter;stroke:rgb(0%,0%,0%);stroke-opacity:1;stroke-miterlimit:4;" d="M 47.703125 49.34375 L 49.597656 49.34375 "/>
<path style="fill:none;stroke-width:0.1536;stroke-linecap:butt;stroke-linejoin:miter;stroke:rgb(0%,0%,0%);stroke-opacity:1;stroke-miterlimit:4;" d="M 47.703125 50.621094 L 49.597656 50.621094 "/>
<path style="fill:none;stroke-width:0.1536;stroke-linecap:butt;stroke-linejoin:miter;stroke:rgb(0%,0%,0%);stroke-opacity:1;stroke-miterlimit:4;" d="M 47.703125 51.902344 L 49.597656 51.902344 "/>
<path style="fill:none;stroke-width:0.1536;stroke-linecap:butt;stroke-linejoin:miter;stroke:rgb(0%,0%,0%);stroke-opacity:1;stroke-miterlimit:4;" d="M 47.703125 53.179688 L 49.597656 53.179688 "/>
<path style="fill:none;stroke-width:0.1536;stroke-linecap:butt;stroke-linejoin:miter;stroke:rgb(0%,0%,0%);stroke-opacity:1;stroke-miterlimit:4;" d="M 47.703125 54.460938 L 49.597656 54.460938 "/>
<path style="fill:none;stroke-width:0.1536;stroke-linecap:butt;stroke-linejoin:miter;stroke:rgb(0%,0%,0%);stroke-opacity:1;stroke-miterlimit:4;" d="M 47.703125 55.742188 L 49.597656 55.742188 "/>
<path style="fill:none;stroke-width:0.1536;stroke-linecap:butt;stroke-linejoin:miter;stroke:rgb(0%,0%,0%);stroke-opacity:1;stroke-miterlimit:4;" d="M 47.703125 57.019531 L 49.597656 57.019531 "/>
<path style="fill-rule:evenodd;fill:rgb(99.998474%,99.998474%,99.998474%);fill-opacity:1;stroke-width:0.167129;stroke-linecap:butt;stroke-linejoin:miter;stroke:rgb(0%,0%,0%);stroke-opacity:1;stroke-miterlimit:4;" d="M 62.304688 48.078125 L 65.582031 48.078125 L 65.582031 58.304688 L 62.304688 58.304688 Z M 62.304688 48.078125 "/>
<path style="fill-rule:evenodd;fill:rgb(99.998474%,99.998474%,99.998474%);fill-opacity:1;stroke-width:0.16687;stroke-linecap:butt;stroke-linejoin:miter;stroke:rgb(0%,0%,0%);stroke-opacity:1;stroke-miterlimit:4;" d="M 63.050781 48.078125 L 64.878906 48.078125 L 64.878906 58.304688 L 63.050781 58.304688 Z M 63.050781 48.078125 "/>
<path style="fill:none;stroke-width:0.1536;stroke-linecap:butt;stroke-linejoin:miter;stroke:rgb(0%,0%,0%);stroke-opacity:1;stroke-miterlimit:4;" d="M 63.0625 49.339844 L 64.824219 49.339844 "/>
<path style="fill:none;stroke-width:0.1536;stroke-linecap:butt;stroke-linejoin:miter;stroke:rgb(0%,0%,0%);stroke-opacity:1;stroke-miterlimit:4;" d="M 63.0625 50.621094 L 64.824219 50.621094 "/>
<path style="fill:none;stroke-width:0.1536;stroke-linecap:butt;stroke-linejoin:miter;stroke:rgb(0%,0%,0%);stroke-opacity:1;stroke-miterlimit:4;" d="M 63.0625 51.902344 L 64.824219 51.902344 "/>
<path style="fill:none;stroke-width:0.1536;stroke-linecap:butt;stroke-linejoin:miter;stroke:rgb(0%,0%,0%);stroke-opacity:1;stroke-miterlimit:4;" d="M 63.0625 53.179688 L 64.824219 53.179688 "/>
<path style="fill:none;stroke-width:0.1536;stroke-linecap:butt;stroke-linejoin:miter;stroke:rgb(0%,0%,0%);stroke-opacity:1;stroke-miterlimit:4;" d="M 63.0625 54.460938 L 64.824219 54.460938 "/>
<path style="fill:none;stroke-width:0.1536;stroke-linecap:butt;stroke-linejoin:miter;stroke:rgb(0%,0%,0%);stroke-opacity:1;stroke-miterlimit:4;" d="M 63.0625 55.742188 L 64.824219 55.742188 "/>
<path style="fill:none;stroke-width:0.1536;stroke-linecap:butt;stroke-linejoin:miter;stroke:rgb(0%,0%,0%);stroke-opacity:1;stroke-miterlimit:4;" d="M 63.0625 57.023438 L 64.824219 57.023438 "/>
<path style="fill-rule:evenodd;fill:rgb(99.998474%,99.998474%,99.998474%);fill-opacity:1;stroke-width:0.167129;stroke-linecap:butt;stroke-linejoin:miter;stroke:rgb(0%,0%,0%);stroke-opacity:1;stroke-miterlimit:4;" d="M 77.6875 48.078125 L 80.964844 48.078125 L 80.964844 58.304688 L 77.6875 58.304688 Z M 77.6875 48.078125 "/>
<path style="fill-rule:evenodd;fill:rgb(99.998474%,99.998474%,99.998474%);fill-opacity:1;stroke-width:0.16687;stroke-linecap:butt;stroke-linejoin:miter;stroke:rgb(0%,0%,0%);stroke-opacity:1;stroke-miterlimit:4;" d="M 78.414062 48.078125 L 80.238281 48.078125 L 80.238281 58.304688 L 78.414062 58.304688 Z M 78.414062 48.078125 "/>
<path style="fill:none;stroke-width:0.1536;stroke-linecap:butt;stroke-linejoin:miter;stroke:rgb(0%,0%,0%);stroke-opacity:1;stroke-miterlimit:4;" d="M 78.378906 49.34375 L 80.273438 49.34375 "/>
<path style="fill:none;stroke-width:0.1536;stroke-linecap:butt;stroke-linejoin:miter;stroke:rgb(0%,0%,0%);stroke-opacity:1;stroke-miterlimit:4;" d="M 78.378906 50.621094 L 80.273438 50.621094 "/>
<path style="fill:none;stroke-width:0.1536;stroke-linecap:butt;stroke-linejoin:miter;stroke:rgb(0%,0%,0%);stroke-opacity:1;stroke-miterlimit:4;" d="M 78.378906 51.902344 L 80.273438 51.902344 "/>
<path style="fill:none;stroke-width:0.1536;stroke-linecap:butt;stroke-linejoin:miter;stroke:rgb(0%,0%,0%);stroke-opacity:1;stroke-miterlimit:4;" d="M 78.378906 53.179688 L 80.273438 53.179688 "/>
<path style="fill:none;stroke-width:0.1536;stroke-linecap:butt;stroke-linejoin:miter;stroke:rgb(0%,0%,0%);stroke-opacity:1;stroke-miterlimit:4;" d="M 78.378906 54.460938 L 80.273438 54.460938 "/>
<path style="fill:none;stroke-width:0.1536;stroke-linecap:butt;stroke-linejoin:miter;stroke:rgb(0%,0%,0%);stroke-opacity:1;stroke-miterlimit:4;" d="M 78.378906 55.742188 L 80.273438 55.742188 "/>
<path style="fill:none;stroke-width:0.1536;stroke-linecap:butt;stroke-linejoin:miter;stroke:rgb(0%,0%,0%);stroke-opacity:1;stroke-miterlimit:4;" d="M 78.378906 57.019531 L 80.273438 57.019531 "/>
<path style="fill-rule:evenodd;fill:rgb(99.998474%,99.998474%,99.998474%);fill-opacity:1;stroke-width:0.1536;stroke-linecap:round;stroke-linejoin:round;stroke:rgb(0%,0%,0%);stroke-opacity:1;stroke-miterlimit:4;" d="M 54.085938 43.640625 L 54.820312 43.640625 L 54.820312 47.019531 L 54.085938 47.019531 Z M 54.085938 43.640625 "/>
<path style="fill-rule:evenodd;fill:rgb(99.998474%,99.998474%,99.998474%);fill-opacity:1;stroke-width:0.1536;stroke-linecap:round;stroke-linejoin:round;stroke:rgb(0%,0%,0%);stroke-opacity:1;stroke-miterlimit:4;" d="M 55.621094 43.640625 L 56.355469 43.640625 L 56.355469 47.019531 L 55.621094 47.019531 Z M 55.621094 43.640625 "/>
<path style="fill-rule:evenodd;fill:rgb(99.998474%,99.998474%,99.998474%);fill-opacity:1;stroke-width:0.1536;stroke-linecap:round;stroke-linejoin:round;stroke:rgb(0%,0%,0%);stroke-opacity:1;stroke-miterlimit:4;" d="M 57.160156 43.640625 L 57.894531 43.640625 L 57.894531 47.019531 L 57.160156 47.019531 Z M 57.160156 43.640625 "/>
<path style="fill-rule:evenodd;fill:rgb(99.998474%,99.998474%,99.998474%);fill-opacity:1;stroke-width:0.1536;stroke-linecap:round;stroke-linejoin:round;stroke:rgb(0%,0%,0%);stroke-opacity:1;stroke-miterlimit:4;" d="M 70.023438 43.640625 L 70.757812 43.640625 L 70.757812 47.019531 L 70.023438 47.019531 Z M 70.023438 43.640625 "/>
<path style="fill-rule:evenodd;fill:rgb(99.998474%,99.998474%,99.998474%);fill-opacity:1;stroke-width:0.1536;stroke-linecap:round;stroke-linejoin:round;stroke:rgb(0%,0%,0%);stroke-opacity:1;stroke-miterlimit:4;" d="M 71.558594 43.640625 L 72.292969 43.640625 L 72.292969 47.019531 L 71.558594 47.019531 Z M 71.558594 43.640625 "/>
<path style="fill-rule:evenodd;fill:rgb(99.998474%,99.998474%,99.998474%);fill-opacity:1;stroke-width:0.1536;stroke-linecap:round;stroke-linejoin:round;stroke:rgb(0%,0%,0%);stroke-opacity:1;stroke-miterlimit:4;" d="M 73.09375 43.640625 L 73.828125 43.640625 L 73.828125 47.019531 L 73.09375 47.019531 Z M 73.09375 43.640625 "/>
<path style="fill-rule:evenodd;fill:rgb(99.998474%,99.998474%,99.998474%);fill-opacity:1;stroke-width:0.1536;stroke-linecap:butt;stroke-linejoin:miter;stroke:rgb(0%,0%,0%);stroke-opacity:1;stroke-miterlimit:4;" d="M 62.4375 26.78125 L 62.355469 26.140625 L 65.601562 26.140625 L 65.519531 26.78125 Z M 62.4375 26.78125 "/>
<path style="fill-rule:evenodd;fill:rgb(99.998474%,99.998474%,99.998474%);fill-opacity:1;stroke-width:0.1536;stroke-linecap:butt;stroke-linejoin:miter;stroke:rgb(0%,0%,0%);stroke-opacity:1;stroke-miterlimit:4;" d="M 62.65625 26.128906 L 62.585938 25.605469 L 65.371094 25.605469 L 65.300781 26.128906 Z M 62.65625 26.128906 "/>
<path style="fill-rule:evenodd;fill:rgb(99.998474%,99.998474%,99.998474%);fill-opacity:1;stroke-width:0.1536;stroke-linecap:butt;stroke-linejoin:miter;stroke:rgb(0%,0%,0%);stroke-opacity:1;stroke-miterlimit:4;" d="M 63.097656 25.585938 L 63.050781 25.058594 L 64.90625 25.058594 L 64.859375 25.585938 Z M 63.097656 25.585938 "/>
</g>
</svg>
