<?xml version="1.0" encoding="UTF-8"?>
<svg xmlns="http://www.w3.org/2000/svg" xmlns:xlink="http://www.w3.org/1999/xlink" width="128pt" height="64pt" viewBox="0 0 128 64" version="1.1">
<g id="surface206">
<rect x="0" y="0" width="128" height="64" style="fill:rgb(99.998474%,0%,0%);fill-opacity:1;stroke:none;"/>
<path style=" stroke:none;fill-rule:evenodd;fill:rgb(99.998474%,99.998474%,99.998474%);fill-opacity:1;" d="M 32 0 L 96 0 L 96 64 L 32 64 Z M 32 0 "/>
<path style=" stroke:none;fill-rule:evenodd;fill:rgb(99.998474%,0%,0%);fill-opacity:1;" d="M 64 6 L 59.632812 14.144531 C 59.136719 15.03125 58.25 14.945312 57.363281 14.453125 L 54.199219 12.816406 L 56.554688 25.324219 C 57.050781 27.609375 55.460938 27.609375 54.675781 26.621094 L 49.160156 20.445312 L 48.265625 23.582031 C 48.160156 23.996094 47.707031 24.425781 47.027344 24.324219 L 40.050781 22.855469 L 41.882812 29.519531 C 42.273438 31 42.582031 31.613281 41.484375 32.003906 L 39 33.175781 L 51.007812 42.929688 C 51.484375 43.296875 51.722656 43.960938 51.554688 44.5625 L 50.503906 48.011719 C 54.640625 47.535156 58.34375 46.816406 62.480469 46.375 C 62.847656 46.335938 63.457031 46.941406 63.457031 47.363281 L 62.90625 60 L 64.917969 60 L 64.601562 47.390625 C 64.597656 46.96875 65.152344 46.335938 65.519531 46.375 C 69.65625 46.816406 73.359375 47.535156 77.496094 48.011719 L 76.445312 44.5625 C 76.277344 43.960938 76.515625 43.296875 76.992188 42.929688 L 89 33.175781 L 86.515625 32.003906 C 85.417969 31.613281 85.726562 31 86.117188 29.519531 L 87.949219 22.855469 L 80.972656 24.324219 C 80.292969 24.425781 79.839844 23.996094 79.734375 23.582031 L 78.839844 20.445312 L 73.324219 26.621094 C 72.539062 27.609375 70.949219 27.609375 71.445312 25.324219 L 73.800781 12.816406 L 70.636719 14.453125 C 69.75 14.945312 68.863281 15.03125 68.367188 14.144531 Z M 64 6 "/>
</g>
</svg>
