<?xml version="1.0" encoding="UTF-8"?>
<svg xmlns="http://www.w3.org/2000/svg" xmlns:xlink="http://www.w3.org/1999/xlink" width="128pt" height="75pt" viewBox="0 0 128 75" version="1.1">
<g id="surface211">
<rect x="0" y="0" width="128" height="75" style="fill:rgb(0%,21.960449%,57.646179%);fill-opacity:1;stroke:none;"/>
<path style=" stroke:none;fill-rule:evenodd;fill:rgb(99.998474%,99.998474%,99.998474%);fill-opacity:1;" d="M 0 37.648438 L 128 37.648438 L 128 56.46875 L 0 56.46875 Z M 0 37.648438 "/>
<path style=" stroke:none;fill-rule:evenodd;fill:rgb(80.783081%,6.666565%,14.901733%);fill-opacity:1;" d="M 0 43.921875 L 128 43.921875 L 128 50.195312 L 0 50.195312 Z M 0 43.921875 "/>
<path style=" stroke:none;fill-rule:evenodd;fill:rgb(99.998474%,79.998779%,0%);fill-opacity:1;" d="M 48 24.46875 L 46.835938 28.050781 L 48.628906 28.632812 Z M 48 24.46875 "/>
<path style=" stroke:none;fill-rule:evenodd;fill:rgb(99.998474%,79.998779%,0%);fill-opacity:1;" d="M 48 24.46875 L 49.164062 28.050781 L 47.371094 28.632812 Z M 48 24.46875 "/>
<path style=" stroke:none;fill-rule:evenodd;fill:rgb(99.998474%,79.998779%,0%);fill-opacity:1;" d="M 51.582031 27.074219 L 47.816406 27.074219 L 47.816406 28.953125 Z M 51.582031 27.074219 "/>
<path style=" stroke:none;fill-rule:evenodd;fill:rgb(99.998474%,79.998779%,0%);fill-opacity:1;" d="M 51.582031 27.074219 L 48.535156 29.285156 L 47.429688 27.761719 Z M 51.582031 27.074219 "/>
<path style=" stroke:none;fill-rule:evenodd;fill:rgb(99.998474%,79.998779%,0%);fill-opacity:1;" d="M 50.214844 31.28125 L 49.050781 27.699219 L 47.261719 28.28125 Z M 50.214844 31.28125 "/>
<path style=" stroke:none;fill-rule:evenodd;fill:rgb(99.998474%,79.998779%,0%);fill-opacity:1;" d="M 50.214844 31.28125 L 47.167969 29.070312 L 48.273438 27.546875 Z M 50.214844 31.28125 "/>
<path style=" stroke:none;fill-rule:evenodd;fill:rgb(99.998474%,79.998779%,0%);fill-opacity:1;" d="M 45.785156 31.28125 L 48.832031 29.070312 L 47.726562 27.546875 Z M 45.785156 31.28125 "/>
<path style=" stroke:none;fill-rule:evenodd;fill:rgb(99.998474%,79.998779%,0%);fill-opacity:1;" d="M 45.785156 31.28125 L 46.949219 27.699219 L 48.738281 28.28125 Z M 45.785156 31.28125 "/>
<path style=" stroke:none;fill-rule:evenodd;fill:rgb(99.998474%,79.998779%,0%);fill-opacity:1;" d="M 44.417969 27.074219 L 47.464844 29.285156 L 48.570312 27.761719 Z M 44.417969 27.074219 "/>
<path style=" stroke:none;fill-rule:evenodd;fill:rgb(99.998474%,79.998779%,0%);fill-opacity:1;" d="M 44.417969 27.074219 L 48.183594 27.074219 L 48.183594 28.953125 Z M 44.417969 27.074219 "/>
<path style=" stroke:none;fill-rule:evenodd;fill:rgb(99.998474%,79.998779%,0%);fill-opacity:1;" d="M 36.9375 28.066406 L 35.773438 31.644531 L 37.5625 32.226562 Z M 36.9375 28.066406 "/>
<path style=" stroke:none;fill-rule:evenodd;fill:rgb(99.998474%,79.998779%,0%);fill-opacity:1;" d="M 36.9375 28.066406 L 38.101562 31.644531 L 36.308594 32.226562 Z M 36.9375 28.066406 "/>
<path style=" stroke:none;fill-rule:evenodd;fill:rgb(99.998474%,79.998779%,0%);fill-opacity:1;" d="M 40.515625 30.664062 L 36.753906 30.664062 L 36.753906 32.546875 Z M 40.515625 30.664062 "/>
<path style=" stroke:none;fill-rule:evenodd;fill:rgb(99.998474%,79.998779%,0%);fill-opacity:1;" d="M 40.515625 30.664062 L 37.472656 32.878906 L 36.363281 31.355469 Z M 40.515625 30.664062 "/>
<path style=" stroke:none;fill-rule:evenodd;fill:rgb(99.998474%,79.998779%,0%);fill-opacity:1;" d="M 39.148438 34.875 L 37.988281 31.292969 L 36.195312 31.875 Z M 39.148438 34.875 "/>
<path style=" stroke:none;fill-rule:evenodd;fill:rgb(99.998474%,79.998779%,0%);fill-opacity:1;" d="M 39.148438 34.875 L 36.105469 32.660156 L 37.210938 31.140625 Z M 39.148438 34.875 "/>
<path style=" stroke:none;fill-rule:evenodd;fill:rgb(99.998474%,79.998779%,0%);fill-opacity:1;" d="M 34.722656 34.875 L 37.769531 32.660156 L 36.664062 31.140625 Z M 34.722656 34.875 "/>
<path style=" stroke:none;fill-rule:evenodd;fill:rgb(99.998474%,79.998779%,0%);fill-opacity:1;" d="M 34.722656 34.875 L 35.886719 31.292969 L 37.679688 31.875 Z M 34.722656 34.875 "/>
<path style=" stroke:none;fill-rule:evenodd;fill:rgb(99.998474%,79.998779%,0%);fill-opacity:1;" d="M 33.355469 30.664062 L 36.402344 32.878906 L 37.507812 31.355469 Z M 33.355469 30.664062 "/>
<path style=" stroke:none;fill-rule:evenodd;fill:rgb(99.998474%,79.998779%,0%);fill-opacity:1;" d="M 33.355469 30.664062 L 37.121094 30.664062 L 37.121094 32.546875 Z M 33.355469 30.664062 "/>
<path style=" stroke:none;fill-rule:evenodd;fill:rgb(99.998474%,79.998779%,0%);fill-opacity:1;" d="M 59.0625 28.066406 L 57.898438 31.644531 L 59.691406 32.226562 Z M 59.0625 28.066406 "/>
<path style=" stroke:none;fill-rule:evenodd;fill:rgb(99.998474%,79.998779%,0%);fill-opacity:1;" d="M 59.0625 28.066406 L 60.226562 31.644531 L 58.4375 32.226562 Z M 59.0625 28.066406 "/>
<path style=" stroke:none;fill-rule:evenodd;fill:rgb(99.998474%,79.998779%,0%);fill-opacity:1;" d="M 62.644531 30.664062 L 58.878906 30.664062 L 58.878906 32.546875 Z M 62.644531 30.664062 "/>
<path style=" stroke:none;fill-rule:evenodd;fill:rgb(99.998474%,79.998779%,0%);fill-opacity:1;" d="M 62.644531 30.664062 L 59.597656 32.878906 L 58.492188 31.355469 Z M 62.644531 30.664062 "/>
<path style=" stroke:none;fill-rule:evenodd;fill:rgb(99.998474%,79.998779%,0%);fill-opacity:1;" d="M 61.277344 34.875 L 60.113281 31.292969 L 58.320312 31.875 Z M 61.277344 34.875 "/>
<path style=" stroke:none;fill-rule:evenodd;fill:rgb(99.998474%,79.998779%,0%);fill-opacity:1;" d="M 61.277344 34.875 L 58.230469 32.660156 L 59.335938 31.140625 Z M 61.277344 34.875 "/>
<path style=" stroke:none;fill-rule:evenodd;fill:rgb(99.998474%,79.998779%,0%);fill-opacity:1;" d="M 56.851562 34.875 L 59.894531 32.660156 L 58.789062 31.140625 Z M 56.851562 34.875 "/>
<path style=" stroke:none;fill-rule:evenodd;fill:rgb(99.998474%,79.998779%,0%);fill-opacity:1;" d="M 56.851562 34.875 L 58.011719 31.292969 L 59.804688 31.875 Z M 56.851562 34.875 "/>
<path style=" stroke:none;fill-rule:evenodd;fill:rgb(99.998474%,79.998779%,0%);fill-opacity:1;" d="M 55.484375 30.664062 L 58.527344 32.878906 L 59.636719 31.355469 Z M 55.484375 30.664062 "/>
<path style=" stroke:none;fill-rule:evenodd;fill:rgb(99.998474%,79.998779%,0%);fill-opacity:1;" d="M 55.484375 30.664062 L 59.246094 30.664062 L 59.246094 32.546875 Z M 55.484375 30.664062 "/>
<path style=" stroke:none;fill-rule:evenodd;fill:rgb(99.998474%,79.998779%,0%);fill-opacity:1;" d="M 65.902344 37.476562 L 64.738281 41.054688 L 66.527344 41.636719 Z M 65.902344 37.476562 "/>
<path style=" stroke:none;fill-rule:evenodd;fill:rgb(99.998474%,79.998779%,0%);fill-opacity:1;" d="M 65.902344 37.476562 L 67.066406 41.054688 L 65.277344 41.636719 Z M 65.902344 37.476562 "/>
<path style=" stroke:none;fill-rule:evenodd;fill:rgb(99.998474%,79.998779%,0%);fill-opacity:1;" d="M 69.484375 40.078125 L 65.71875 40.078125 L 65.71875 41.960938 Z M 69.484375 40.078125 "/>
<path style=" stroke:none;fill-rule:evenodd;fill:rgb(99.998474%,79.998779%,0%);fill-opacity:1;" d="M 69.484375 40.078125 L 66.4375 42.289062 L 65.332031 40.765625 Z M 69.484375 40.078125 "/>
<path style=" stroke:none;fill-rule:evenodd;fill:rgb(99.998474%,79.998779%,0%);fill-opacity:1;" d="M 68.113281 44.285156 L 66.953125 40.707031 L 65.160156 41.289062 Z M 68.113281 44.285156 "/>
<path style=" stroke:none;fill-rule:evenodd;fill:rgb(99.998474%,79.998779%,0%);fill-opacity:1;" d="M 68.113281 44.285156 L 65.070312 42.074219 L 66.175781 40.550781 Z M 68.113281 44.285156 "/>
<path style=" stroke:none;fill-rule:evenodd;fill:rgb(99.998474%,79.998779%,0%);fill-opacity:1;" d="M 63.691406 44.285156 L 66.734375 42.074219 L 65.628906 40.550781 Z M 63.691406 44.285156 "/>
<path style=" stroke:none;fill-rule:evenodd;fill:rgb(99.998474%,79.998779%,0%);fill-opacity:1;" d="M 63.691406 44.285156 L 64.851562 40.707031 L 66.644531 41.289062 Z M 63.691406 44.285156 "/>
<path style=" stroke:none;fill-rule:evenodd;fill:rgb(99.998474%,79.998779%,0%);fill-opacity:1;" d="M 62.320312 40.078125 L 65.367188 42.289062 L 66.472656 40.765625 Z M 62.320312 40.078125 "/>
<path style=" stroke:none;fill-rule:evenodd;fill:rgb(99.998474%,79.998779%,0%);fill-opacity:1;" d="M 62.320312 40.078125 L 66.085938 40.078125 L 66.085938 41.960938 Z M 62.320312 40.078125 "/>
<path style=" stroke:none;fill-rule:evenodd;fill:rgb(99.998474%,79.998779%,0%);fill-opacity:1;" d="M 65.902344 49.113281 L 64.738281 52.691406 L 66.527344 53.273438 Z M 65.902344 49.113281 "/>
<path style=" stroke:none;fill-rule:evenodd;fill:rgb(99.998474%,79.998779%,0%);fill-opacity:1;" d="M 65.902344 49.113281 L 67.066406 52.691406 L 65.277344 53.273438 Z M 65.902344 49.113281 "/>
<path style=" stroke:none;fill-rule:evenodd;fill:rgb(99.998474%,79.998779%,0%);fill-opacity:1;" d="M 69.484375 51.714844 L 65.71875 51.714844 L 65.71875 53.59375 Z M 69.484375 51.714844 "/>
<path style=" stroke:none;fill-rule:evenodd;fill:rgb(99.998474%,79.998779%,0%);fill-opacity:1;" d="M 69.484375 51.714844 L 66.4375 53.925781 L 65.332031 52.402344 Z M 69.484375 51.714844 "/>
<path style=" stroke:none;fill-rule:evenodd;fill:rgb(99.998474%,79.998779%,0%);fill-opacity:1;" d="M 68.113281 55.921875 L 66.953125 52.34375 L 65.160156 52.925781 Z M 68.113281 55.921875 "/>
<path style=" stroke:none;fill-rule:evenodd;fill:rgb(99.998474%,79.998779%,0%);fill-opacity:1;" d="M 68.113281 55.921875 L 65.070312 53.710938 L 66.175781 52.1875 Z M 68.113281 55.921875 "/>
<path style=" stroke:none;fill-rule:evenodd;fill:rgb(99.998474%,79.998779%,0%);fill-opacity:1;" d="M 63.691406 55.921875 L 66.734375 53.710938 L 65.628906 52.1875 Z M 63.691406 55.921875 "/>
<path style=" stroke:none;fill-rule:evenodd;fill:rgb(99.998474%,79.998779%,0%);fill-opacity:1;" d="M 63.691406 55.921875 L 64.851562 52.34375 L 66.644531 52.925781 Z M 63.691406 55.921875 "/>
<path style=" stroke:none;fill-rule:evenodd;fill:rgb(99.998474%,79.998779%,0%);fill-opacity:1;" d="M 62.320312 51.714844 L 65.367188 53.925781 L 66.472656 52.402344 Z M 62.320312 51.714844 "/>
<path style=" stroke:none;fill-rule:evenodd;fill:rgb(99.998474%,79.998779%,0%);fill-opacity:1;" d="M 62.320312 51.714844 L 66.085938 51.714844 L 66.085938 53.59375 Z M 62.320312 51.714844 "/>
<path style=" stroke:none;fill-rule:evenodd;fill:rgb(99.998474%,79.998779%,0%);fill-opacity:1;" d="M 59.0625 58.523438 L 57.898438 62.105469 L 59.691406 62.6875 Z M 59.0625 58.523438 "/>
<path style=" stroke:none;fill-rule:evenodd;fill:rgb(99.998474%,79.998779%,0%);fill-opacity:1;" d="M 59.0625 58.523438 L 60.226562 62.105469 L 58.4375 62.6875 Z M 59.0625 58.523438 "/>
<path style=" stroke:none;fill-rule:evenodd;fill:rgb(99.998474%,79.998779%,0%);fill-opacity:1;" d="M 62.644531 61.125 L 58.878906 61.125 L 58.878906 63.007812 Z M 62.644531 61.125 "/>
<path style=" stroke:none;fill-rule:evenodd;fill:rgb(99.998474%,79.998779%,0%);fill-opacity:1;" d="M 62.644531 61.125 L 59.597656 63.339844 L 58.492188 61.816406 Z M 62.644531 61.125 "/>
<path style=" stroke:none;fill-rule:evenodd;fill:rgb(99.998474%,79.998779%,0%);fill-opacity:1;" d="M 61.277344 65.335938 L 60.113281 61.753906 L 58.320312 62.335938 Z M 61.277344 65.335938 "/>
<path style=" stroke:none;fill-rule:evenodd;fill:rgb(99.998474%,79.998779%,0%);fill-opacity:1;" d="M 61.277344 65.335938 L 58.230469 63.121094 L 59.335938 61.597656 Z M 61.277344 65.335938 "/>
<path style=" stroke:none;fill-rule:evenodd;fill:rgb(99.998474%,79.998779%,0%);fill-opacity:1;" d="M 56.851562 65.335938 L 59.894531 63.121094 L 58.789062 61.597656 Z M 56.851562 65.335938 "/>
<path style=" stroke:none;fill-rule:evenodd;fill:rgb(99.998474%,79.998779%,0%);fill-opacity:1;" d="M 56.851562 65.335938 L 58.011719 61.753906 L 59.804688 62.335938 Z M 56.851562 65.335938 "/>
<path style=" stroke:none;fill-rule:evenodd;fill:rgb(99.998474%,79.998779%,0%);fill-opacity:1;" d="M 55.484375 61.125 L 58.527344 63.339844 L 59.636719 61.816406 Z M 55.484375 61.125 "/>
<path style=" stroke:none;fill-rule:evenodd;fill:rgb(99.998474%,79.998779%,0%);fill-opacity:1;" d="M 55.484375 61.125 L 59.246094 61.125 L 59.246094 63.007812 Z M 55.484375 61.125 "/>
<path style=" stroke:none;fill-rule:evenodd;fill:rgb(99.998474%,79.998779%,0%);fill-opacity:1;" d="M 48 62.117188 L 46.835938 65.699219 L 48.628906 66.28125 Z M 48 62.117188 "/>
<path style=" stroke:none;fill-rule:evenodd;fill:rgb(99.998474%,79.998779%,0%);fill-opacity:1;" d="M 48 62.117188 L 49.164062 65.699219 L 47.371094 66.28125 Z M 48 62.117188 "/>
<path style=" stroke:none;fill-rule:evenodd;fill:rgb(99.998474%,79.998779%,0%);fill-opacity:1;" d="M 51.582031 64.71875 L 47.816406 64.71875 L 47.816406 66.601562 Z M 51.582031 64.71875 "/>
<path style=" stroke:none;fill-rule:evenodd;fill:rgb(99.998474%,79.998779%,0%);fill-opacity:1;" d="M 51.582031 64.71875 L 48.535156 66.929688 L 47.429688 65.410156 Z M 51.582031 64.71875 "/>
<path style=" stroke:none;fill-rule:evenodd;fill:rgb(99.998474%,79.998779%,0%);fill-opacity:1;" d="M 50.214844 68.925781 L 49.050781 65.347656 L 47.261719 65.929688 Z M 50.214844 68.925781 "/>
<path style=" stroke:none;fill-rule:evenodd;fill:rgb(99.998474%,79.998779%,0%);fill-opacity:1;" d="M 50.214844 68.925781 L 47.167969 66.714844 L 48.273438 65.191406 Z M 50.214844 68.925781 "/>
<path style=" stroke:none;fill-rule:evenodd;fill:rgb(99.998474%,79.998779%,0%);fill-opacity:1;" d="M 45.785156 68.925781 L 48.832031 66.714844 L 47.726562 65.191406 Z M 45.785156 68.925781 "/>
<path style=" stroke:none;fill-rule:evenodd;fill:rgb(99.998474%,79.998779%,0%);fill-opacity:1;" d="M 45.785156 68.925781 L 46.949219 65.347656 L 48.738281 65.929688 Z M 45.785156 68.925781 "/>
<path style=" stroke:none;fill-rule:evenodd;fill:rgb(99.998474%,79.998779%,0%);fill-opacity:1;" d="M 44.417969 64.71875 L 47.464844 66.929688 L 48.570312 65.410156 Z M 44.417969 64.71875 "/>
<path style=" stroke:none;fill-rule:evenodd;fill:rgb(99.998474%,79.998779%,0%);fill-opacity:1;" d="M 44.417969 64.71875 L 48.183594 64.71875 L 48.183594 66.601562 Z M 44.417969 64.71875 "/>
<path style=" stroke:none;fill-rule:evenodd;fill:rgb(99.998474%,79.998779%,0%);fill-opacity:1;" d="M 36.9375 58.523438 L 35.773438 62.105469 L 37.5625 62.6875 Z M 36.9375 58.523438 "/>
<path style=" stroke:none;fill-rule:evenodd;fill:rgb(99.998474%,79.998779%,0%);fill-opacity:1;" d="M 36.9375 58.523438 L 38.101562 62.105469 L 36.308594 62.6875 Z M 36.9375 58.523438 "/>
<path style=" stroke:none;fill-rule:evenodd;fill:rgb(99.998474%,79.998779%,0%);fill-opacity:1;" d="M 40.515625 61.125 L 36.753906 61.125 L 36.753906 63.007812 Z M 40.515625 61.125 "/>
<path style=" stroke:none;fill-rule:evenodd;fill:rgb(99.998474%,79.998779%,0%);fill-opacity:1;" d="M 40.515625 61.125 L 37.472656 63.339844 L 36.363281 61.816406 Z M 40.515625 61.125 "/>
<path style=" stroke:none;fill-rule:evenodd;fill:rgb(99.998474%,79.998779%,0%);fill-opacity:1;" d="M 39.148438 65.335938 L 37.988281 61.753906 L 36.195312 62.335938 Z M 39.148438 65.335938 "/>
<path style=" stroke:none;fill-rule:evenodd;fill:rgb(99.998474%,79.998779%,0%);fill-opacity:1;" d="M 39.148438 65.335938 L 36.105469 63.121094 L 37.210938 61.597656 Z M 39.148438 65.335938 "/>
<path style=" stroke:none;fill-rule:evenodd;fill:rgb(99.998474%,79.998779%,0%);fill-opacity:1;" d="M 34.722656 65.335938 L 37.769531 63.121094 L 36.664062 61.597656 Z M 34.722656 65.335938 "/>
<path style=" stroke:none;fill-rule:evenodd;fill:rgb(99.998474%,79.998779%,0%);fill-opacity:1;" d="M 34.722656 65.335938 L 35.886719 61.753906 L 37.679688 62.335938 Z M 34.722656 65.335938 "/>
<path style=" stroke:none;fill-rule:evenodd;fill:rgb(99.998474%,79.998779%,0%);fill-opacity:1;" d="M 33.355469 61.125 L 36.402344 63.339844 L 37.507812 61.816406 Z M 33.355469 61.125 "/>
<path style=" stroke:none;fill-rule:evenodd;fill:rgb(99.998474%,79.998779%,0%);fill-opacity:1;" d="M 33.355469 61.125 L 37.121094 61.125 L 37.121094 63.007812 Z M 33.355469 61.125 "/>
<path style=" stroke:none;fill-rule:evenodd;fill:rgb(99.998474%,79.998779%,0%);fill-opacity:1;" d="M 30.097656 49.113281 L 28.933594 52.691406 L 30.722656 53.273438 Z M 30.097656 49.113281 "/>
<path style=" stroke:none;fill-rule:evenodd;fill:rgb(99.998474%,79.998779%,0%);fill-opacity:1;" d="M 30.097656 49.113281 L 31.261719 52.691406 L 29.472656 53.273438 Z M 30.097656 49.113281 "/>
<path style=" stroke:none;fill-rule:evenodd;fill:rgb(99.998474%,79.998779%,0%);fill-opacity:1;" d="M 33.679688 51.714844 L 29.914062 51.714844 L 29.914062 53.59375 Z M 33.679688 51.714844 "/>
<path style=" stroke:none;fill-rule:evenodd;fill:rgb(99.998474%,79.998779%,0%);fill-opacity:1;" d="M 33.679688 51.714844 L 30.632812 53.925781 L 29.527344 52.402344 Z M 33.679688 51.714844 "/>
<path style=" stroke:none;fill-rule:evenodd;fill:rgb(99.998474%,79.998779%,0%);fill-opacity:1;" d="M 32.308594 55.921875 L 31.148438 52.34375 L 29.355469 52.925781 Z M 32.308594 55.921875 "/>
<path style=" stroke:none;fill-rule:evenodd;fill:rgb(99.998474%,79.998779%,0%);fill-opacity:1;" d="M 32.308594 55.921875 L 29.265625 53.710938 L 30.371094 52.1875 Z M 32.308594 55.921875 "/>
<path style=" stroke:none;fill-rule:evenodd;fill:rgb(99.998474%,79.998779%,0%);fill-opacity:1;" d="M 27.886719 55.921875 L 30.929688 53.710938 L 29.824219 52.1875 Z M 27.886719 55.921875 "/>
<path style=" stroke:none;fill-rule:evenodd;fill:rgb(99.998474%,79.998779%,0%);fill-opacity:1;" d="M 27.886719 55.921875 L 29.046875 52.34375 L 30.839844 52.925781 Z M 27.886719 55.921875 "/>
<path style=" stroke:none;fill-rule:evenodd;fill:rgb(99.998474%,79.998779%,0%);fill-opacity:1;" d="M 26.515625 51.714844 L 29.5625 53.925781 L 30.667969 52.402344 Z M 26.515625 51.714844 "/>
<path style=" stroke:none;fill-rule:evenodd;fill:rgb(99.998474%,79.998779%,0%);fill-opacity:1;" d="M 26.515625 51.714844 L 30.28125 51.714844 L 30.28125 53.59375 Z M 26.515625 51.714844 "/>
<path style=" stroke:none;fill-rule:evenodd;fill:rgb(99.998474%,79.998779%,0%);fill-opacity:1;" d="M 30.097656 37.476562 L 28.933594 41.054688 L 30.722656 41.636719 Z M 30.097656 37.476562 "/>
<path style=" stroke:none;fill-rule:evenodd;fill:rgb(99.998474%,79.998779%,0%);fill-opacity:1;" d="M 30.097656 37.476562 L 31.261719 41.054688 L 29.472656 41.636719 Z M 30.097656 37.476562 "/>
<path style=" stroke:none;fill-rule:evenodd;fill:rgb(99.998474%,79.998779%,0%);fill-opacity:1;" d="M 33.679688 40.078125 L 29.914062 40.078125 L 29.914062 41.960938 Z M 33.679688 40.078125 "/>
<path style=" stroke:none;fill-rule:evenodd;fill:rgb(99.998474%,79.998779%,0%);fill-opacity:1;" d="M 33.679688 40.078125 L 30.632812 42.289062 L 29.527344 40.765625 Z M 33.679688 40.078125 "/>
<path style=" stroke:none;fill-rule:evenodd;fill:rgb(99.998474%,79.998779%,0%);fill-opacity:1;" d="M 32.308594 44.285156 L 31.148438 40.707031 L 29.355469 41.289062 Z M 32.308594 44.285156 "/>
<path style=" stroke:none;fill-rule:evenodd;fill:rgb(99.998474%,79.998779%,0%);fill-opacity:1;" d="M 32.308594 44.285156 L 29.265625 42.074219 L 30.371094 40.550781 Z M 32.308594 44.285156 "/>
<path style=" stroke:none;fill-rule:evenodd;fill:rgb(99.998474%,79.998779%,0%);fill-opacity:1;" d="M 27.886719 44.285156 L 30.929688 42.074219 L 29.824219 40.550781 Z M 27.886719 44.285156 "/>
<path style=" stroke:none;fill-rule:evenodd;fill:rgb(99.998474%,79.998779%,0%);fill-opacity:1;" d="M 27.886719 44.285156 L 29.046875 40.707031 L 30.839844 41.289062 Z M 27.886719 44.285156 "/>
<path style=" stroke:none;fill-rule:evenodd;fill:rgb(99.998474%,79.998779%,0%);fill-opacity:1;" d="M 26.515625 40.078125 L 29.5625 42.289062 L 30.667969 40.765625 Z M 26.515625 40.078125 "/>
<path style=" stroke:none;fill-rule:evenodd;fill:rgb(99.998474%,79.998779%,0%);fill-opacity:1;" d="M 26.515625 40.078125 L 30.28125 40.078125 L 30.28125 41.960938 Z M 26.515625 40.078125 "/>
</g>
</svg>
