<?xml version="1.0" encoding="UTF-8"?>
<svg xmlns="http://www.w3.org/2000/svg" xmlns:xlink="http://www.w3.org/1999/xlink" width="128pt" height="85pt" viewBox="0 0 128 85" version="1.1">
<defs>
<clipPath id="clip1">
  <path d="M 0 0 L 127.679688 0 L 127.679688 22 L 0 22 Z M 0 0 "/>
</clipPath>
<clipPath id="clip2">
  <path d="M 0 21 L 127.679688 21 L 127.679688 43 L 0 43 Z M 0 21 "/>
</clipPath>
<clipPath id="clip3">
  <path d="M 0 42 L 127.679688 42 L 127.679688 64 L 0 64 Z M 0 42 "/>
</clipPath>
<clipPath id="clip4">
  <path d="M 0 63 L 127.679688 63 L 127.679688 85 L 0 85 Z M 0 63 "/>
</clipPath>
</defs>
<g id="surface221">
<g clip-path="url(#clip1)" clip-rule="nonzero">
<path style=" stroke:none;fill-rule:evenodd;fill:rgb(0%,18.823242%,50.979614%);fill-opacity:1;" d="M 0 0 L 127.5 0 L 127.5 21.25 L 0 21.25 Z M 0 0 "/>
</g>
<g clip-path="url(#clip2)" clip-rule="nonzero">
<path style=" stroke:none;fill-rule:evenodd;fill:rgb(99.998474%,99.998474%,99.998474%);fill-opacity:1;" d="M 0 21.25 L 127.5 21.25 L 127.5 42.5 L 0 42.5 Z M 0 21.25 "/>
</g>
<g clip-path="url(#clip3)" clip-rule="nonzero">
<path style=" stroke:none;fill-rule:evenodd;fill:rgb(15.686035%,59.214783%,15.686035%);fill-opacity:1;" d="M 0 42.5 L 127.5 42.5 L 127.5 63.75 L 0 63.75 Z M 0 42.5 "/>
</g>
<g clip-path="url(#clip4)" clip-rule="nonzero">
<path style=" stroke:none;fill-rule:evenodd;fill:rgb(99.998474%,80.783081%,0%);fill-opacity:1;" d="M 0 63.75 L 127.5 63.75 L 127.5 85 L 0 85 Z M 0 63.75 "/>
</g>
<path style=" stroke:none;fill-rule:evenodd;fill:rgb(82.351685%,6.274414%,20.391846%);fill-opacity:1;" d="M 53.125 0 L 74.375 0 L 74.375 85 L 53.125 85 Z M 53.125 0 "/>
<path style=" stroke:none;fill-rule:evenodd;fill:rgb(99.998474%,80.783081%,0%);fill-opacity:1;" d="M 21.25 1.976562 L 23.398438 8.582031 L 30.34375 8.582031 L 24.722656 12.667969 L 26.871094 19.273438 L 21.25 15.191406 L 15.628906 19.273438 L 17.777344 12.667969 L 12.15625 8.582031 L 19.101562 8.582031 Z M 21.25 1.976562 "/>
</g>
</svg>
