<svg viewBox="0 0 1000 667" xmlns="http://www.w3.org/2000/svg" xmlns:xlink="http://www.w3.org/1999/xlink"><clipPath id="a"><path d="m0 500h1000v166.71875h-1000zm0 0"/></clipPath><clipPath id="b"><path d="m416 0h168v666.71875h-168zm0 0"/></clipPath><g fill-rule="evenodd"><path d="m0 0h1000v166.667969h-1000zm0 0" fill="#003082"/><path d="m0 166.667969h1000v166.664062h-1000zm0 0" fill="#fff"/><path d="m0 333.332031h1000v166.667969h-1000zm0 0" fill="#289728"/></g><g clip-path="url(#a)"><path d="m0 500h1000v166.667969h-1000zm0 0" fill="#ffce00" fill-rule="evenodd"/></g><g clip-path="url(#b)"><path d="m416.667969 0h166.664062v666.667969h-166.664062zm0 0" fill="#d21034" fill-rule="evenodd"/></g><path d="m166.667969 15.496094 16.835937 51.820312h54.496094l-44.085938 32.035156 16.839844 51.820313-44.085937-32.03125-44.085938 32.03125 16.835938-51.820313-44.085938-32.035156h54.496094zm0 0" fill="#ffce00" fill-rule="evenodd"/></svg>