<?xml version="1.0" encoding="UTF-8"?>
<svg xmlns="http://www.w3.org/2000/svg" xmlns:xlink="http://www.w3.org/1999/xlink" width="128pt" height="85pt" viewBox="0 0 128 85" version="1.1">
<defs>
<clipPath id="clip1">
  <path d="M 0 0 L 127.679688 0 L 127.679688 85 L 0 85 Z M 0 0 "/>
</clipPath>
<clipPath id="clip2">
  <path d="M 42 0 L 127.679688 0 L 127.679688 85 L 42 85 Z M 42 0 "/>
</clipPath>
<clipPath id="clip3">
  <path d="M 85 0 L 127.679688 0 L 127.679688 85 L 85 85 Z M 85 0 "/>
</clipPath>
</defs>
<g id="surface226">
<g clip-path="url(#clip1)" clip-rule="nonzero">
<path style=" stroke:none;fill-rule:evenodd;fill:rgb(0%,14.901733%,39.215088%);fill-opacity:1;" d="M 0 85 L 0 0 L 127.5 0 L 127.5 85 Z M 0 85 "/>
</g>
<g clip-path="url(#clip2)" clip-rule="nonzero">
<path style=" stroke:none;fill-rule:evenodd;fill:rgb(99.606323%,79.606628%,0%);fill-opacity:1;" d="M 42.5 0 L 127.5 0 L 127.5 85 L 42.5 85 Z M 42.5 0 "/>
</g>
<g clip-path="url(#clip3)" clip-rule="nonzero">
<path style=" stroke:none;fill-rule:evenodd;fill:rgb(77.645874%,4.705811%,18.823242%);fill-opacity:1;" d="M 85 0 L 127.5 0 L 127.5 85 L 85 85 Z M 85 0 "/>
</g>
</g>
</svg>
