<?xml version="1.0" encoding="UTF-8"?>
<svg xmlns="http://www.w3.org/2000/svg" xmlns:xlink="http://www.w3.org/1999/xlink" width="128pt" height="85pt" viewBox="0 0 128 85" version="1.1">
<defs>
<clipPath id="clip1">
  <path d="M 0 0 L 127.679688 0 L 127.679688 85 L 0 85 Z M 0 0 "/>
</clipPath>
<clipPath id="clip2">
  <path d="M 0 0 L 127.679688 0 L 127.679688 43 L 0 43 Z M 0 0 "/>
</clipPath>
</defs>
<g id="surface231">
<g clip-path="url(#clip1)" clip-rule="nonzero">
<path style=" stroke:none;fill-rule:evenodd;fill:rgb(83.528137%,16.862488%,11.764526%);fill-opacity:1;" d="M 0 85 L 0 0 L 127.5 0 L 127.5 85 Z M 0 85 "/>
</g>
<g clip-path="url(#clip2)" clip-rule="nonzero">
<path style=" stroke:none;fill-rule:evenodd;fill:rgb(99.998474%,99.998474%,99.998474%);fill-opacity:1;" d="M 42.5 42.5 L 127.5 42.5 L 127.5 0 L 0 0 Z M 42.5 42.5 "/>
</g>
<path style=" stroke:none;fill-rule:evenodd;fill:rgb(0%,22.3526%,65.097046%);fill-opacity:1;" d="M 0 0 L 42.5 0 L 42.5 42.5 L 0 42.5 Z M 0 0 "/>
<path style=" stroke:none;fill-rule:evenodd;fill:rgb(99.998474%,99.998474%,99.998474%);fill-opacity:1;" d="M 21.25 10.625 L 17.964844 20.730469 L 23.019531 22.371094 Z M 21.25 10.625 "/>
<path style=" stroke:none;fill-rule:evenodd;fill:rgb(99.998474%,99.998474%,99.998474%);fill-opacity:1;" d="M 21.25 10.625 L 24.535156 20.730469 L 19.480469 22.371094 Z M 21.25 10.625 "/>
<path style=" stroke:none;fill-rule:evenodd;fill:rgb(99.998474%,99.998474%,99.998474%);fill-opacity:1;" d="M 31.355469 17.964844 L 20.730469 17.964844 L 20.730469 23.277344 Z M 31.355469 17.964844 "/>
<path style=" stroke:none;fill-rule:evenodd;fill:rgb(99.998474%,99.998474%,99.998474%);fill-opacity:1;" d="M 31.355469 17.964844 L 22.757812 24.210938 L 19.636719 19.914062 Z M 31.355469 17.964844 "/>
<path style=" stroke:none;fill-rule:evenodd;fill:rgb(99.998474%,99.998474%,99.998474%);fill-opacity:1;" d="M 11.144531 17.964844 L 19.742188 24.210938 L 22.863281 19.914062 Z M 11.144531 17.964844 "/>
<path style=" stroke:none;fill-rule:evenodd;fill:rgb(99.998474%,99.998474%,99.998474%);fill-opacity:1;" d="M 11.144531 17.964844 L 21.769531 17.964844 L 21.769531 23.277344 Z M 11.144531 17.964844 "/>
<path style=" stroke:none;fill-rule:evenodd;fill:rgb(99.998474%,99.998474%,99.998474%);fill-opacity:1;" d="M 27.496094 29.847656 L 24.210938 19.742188 L 19.160156 21.382812 Z M 27.496094 29.847656 "/>
<path style=" stroke:none;fill-rule:evenodd;fill:rgb(99.998474%,99.998474%,99.998474%);fill-opacity:1;" d="M 27.496094 29.847656 L 18.898438 23.601562 L 22.023438 19.300781 Z M 27.496094 29.847656 "/>
<path style=" stroke:none;fill-rule:evenodd;fill:rgb(99.998474%,99.998474%,99.998474%);fill-opacity:1;" d="M 15.003906 29.847656 L 23.601562 23.601562 L 20.476562 19.300781 Z M 15.003906 29.847656 "/>
<path style=" stroke:none;fill-rule:evenodd;fill:rgb(99.998474%,99.998474%,99.998474%);fill-opacity:1;" d="M 15.003906 29.847656 L 18.289062 19.742188 L 23.339844 21.382812 Z M 15.003906 29.847656 "/>
</g>
</svg>
