<svg viewBox="0 0 1000 667" xmlns="http://www.w3.org/2000/svg" xmlns:xlink="http://www.w3.org/1999/xlink"><clipPath id="a"><path d="m0 0h1000v666.71875h-1000zm0 0"/></clipPath><g clip-path="url(#a)"><path d="m0 666.667969v-666.667969h1000v666.667969zm0 0" fill="#d52b1e" fill-rule="evenodd"/></g><g fill-rule="evenodd"><path d="m333.332031 333.332031h666.667969v-333.332031h-1000zm0 0" fill="#fff"/><path d="m0 0h333.332031v333.332031h-333.332031zm0 0" fill="#0039a6"/><path d="m166.667969 83.332031-25.753907 79.253907 39.628907 12.875zm0 0" fill="#fff"/><path d="m166.667969 83.332031 25.75 79.253907-39.628907 12.875zm0 0" fill="#fff"/><path d="m245.921875 140.914062h-83.335937v41.667969zm0 0" fill="#fff"/><path d="m245.921875 140.914062-67.417969 48.980469-24.492187-33.707031zm0 0" fill="#fff"/><path d="m87.414062 140.914062 67.417969 48.980469 24.488281-33.707031zm0 0" fill="#fff"/><path d="m87.414062 140.914062h83.332032v41.667969zm0 0" fill="#fff"/><path d="m215.648438 234.085938-25.753907-79.253907-39.625 12.871094zm0 0" fill="#fff"/><path d="m215.648438 234.085938-67.417969-48.980469 24.492187-33.710938zm0 0" fill="#fff"/><path d="m117.6875 234.085938 67.417969-48.980469-24.492188-33.710938zm0 0" fill="#fff"/><path d="m117.6875 234.085938 25.75-79.253907 39.625 12.871094zm0 0" fill="#fff"/></g></svg>