<?xml version="1.0" encoding="UTF-8"?>
<svg xmlns="http://www.w3.org/2000/svg" xmlns:xlink="http://www.w3.org/1999/xlink" width="128pt" height="85pt" viewBox="0 0 128 85" version="1.1">
<defs>
<clipPath id="clip1">
  <path d="M 0 0 L 127.679688 0 L 127.679688 85 L 0 85 Z M 0 0 "/>
</clipPath>
</defs>
<g id="surface236">
<g clip-path="url(#clip1)" clip-rule="nonzero">
<path style=" stroke:none;fill-rule:evenodd;fill:rgb(87.057495%,16.078186%,6.274414%);fill-opacity:1;" d="M 0 85 L 0 0 L 127.5 0 L 127.5 85 Z M 0 85 "/>
</g>
<path style="fill-rule:nonzero;fill:rgb(99.998474%,87.057495%,0%);fill-opacity:1;stroke-width:1;stroke-linecap:square;stroke-linejoin:miter;stroke:rgb(99.998474%,87.057495%,0%);stroke-opacity:1;stroke-miterlimit:3.239307;" d="M 16.617188 22.753906 L 13.753906 31.566406 L 21.25 26.121094 L 28.746094 31.566406 L 25.882812 22.753906 L 33.375 17.308594 L 24.113281 17.308594 L 21.25 8.5 L 18.386719 17.308594 L 9.125 17.308594 Z M 16.617188 22.753906 "/>
<path style="fill-rule:nonzero;fill:rgb(99.998474%,87.057495%,0%);fill-opacity:1;stroke-width:1;stroke-linecap:square;stroke-linejoin:miter;stroke:rgb(99.998474%,87.057495%,0%);stroke-opacity:1;stroke-miterlimit:3.239307;" d="M 38.855469 10.6875 L 41.863281 9.992188 L 43.453125 12.640625 L 43.722656 9.566406 L 46.734375 8.875 L 43.890625 7.664062 L 44.164062 4.589844 L 42.136719 6.917969 L 39.292969 5.710938 L 40.882812 8.355469 Z M 38.855469 10.6875 "/>
<path style="fill-rule:nonzero;fill:rgb(99.998474%,87.057495%,0%);fill-opacity:1;stroke-width:1;stroke-linecap:square;stroke-linejoin:miter;stroke:rgb(99.998474%,87.057495%,0%);stroke-opacity:1;stroke-miterlimit:3.239307;" d="M 46.792969 17.601562 L 49.835938 18.128906 L 50.273438 21.1875 L 51.714844 18.457031 L 54.757812 18.988281 L 52.605469 16.769531 L 54.050781 14.039062 L 51.277344 15.402344 L 49.128906 13.183594 L 49.566406 16.242188 Z M 46.792969 17.601562 "/>
<path style="fill-rule:nonzero;fill:rgb(99.998474%,87.057495%,0%);fill-opacity:1;stroke-width:1;stroke-linecap:square;stroke-linejoin:miter;stroke:rgb(99.998474%,87.057495%,0%);stroke-opacity:1;stroke-miterlimit:3.239307;" d="M 49.476562 30.308594 L 48.625 33.277344 L 51.058594 31.371094 L 53.621094 33.097656 L 52.5625 30.195312 L 54.992188 28.292969 L 51.90625 28.402344 L 50.847656 25.503906 L 50 28.472656 L 46.914062 28.582031 Z M 49.476562 30.308594 "/>
<path style="fill-rule:nonzero;fill:rgb(99.998474%,87.057495%,0%);fill-opacity:1;stroke-width:1;stroke-linecap:square;stroke-linejoin:miter;stroke:rgb(99.998474%,87.057495%,0%);stroke-opacity:1;stroke-miterlimit:3.239307;" d="M 38.949219 40.585938 L 41.925781 39.769531 L 43.625 42.347656 L 43.769531 39.265625 L 46.746094 38.445312 L 43.855469 37.359375 L 44 34.273438 L 42.070312 36.683594 L 39.179688 35.59375 L 40.878906 38.175781 Z M 38.949219 40.585938 "/>
</g>
</svg>
