<svg viewBox="0 0 1000 667" xmlns="http://www.w3.org/2000/svg" xmlns:xlink="http://www.w3.org/1999/xlink"><clipPath id="a"><path d="m0 0h1000v666.71875h-1000zm0 0"/></clipPath><g clip-path="url(#a)"><path d="m0 666.667969v-666.667969h1000v666.667969zm0 0" fill="#de2910" fill-rule="evenodd"/></g><g fill="#ffde00" stroke="#ffde00" stroke-linecap="square" stroke-miterlimit="3.239307"><path d="m130.339844 178.46875-22.453125 69.097656 58.78125-42.703125 58.777343 42.703125-22.453124-69.097656 58.777343-42.703125h-72.652343l-22.449219-69.097656-22.453125 69.097656h-72.652344zm0 0"/><path d="m304.75 83.816406 23.601562-5.433594 12.460938 20.765626 2.125-24.125 23.597656-5.429688-22.285156-9.476562 2.125-24.125-15.898438 18.265624-22.285156-9.476562 12.457032 20.765625zm0 0"/><path d="m367 138.046875 23.863281 4.152344 3.425781 23.972656 11.320313-21.40625 23.855469 4.148437-16.859375-17.378906 11.320312-21.410156-21.746093 10.664062-16.859376-17.378906 3.425782 23.972656zm0 0"/><path d="m388.039062 237.699219-6.652343 23.289062 19.070312-14.929687 20.089844 13.519531-8.304687-22.746094 19.070312-14.929687-24.203125.871094-8.304687-22.75-6.652344 23.285156-24.203125.867187zm0 0"/><path d="m305.484375 318.320312 23.355469-6.40625 13.3125 20.230469 1.125-24.191406 23.351562-6.40625-22.660156-8.546875 1.125-24.1875-15.128906 18.910156-22.660156-8.546875 13.308593 20.234375zm0 0"/></g></svg>