<?xml version="1.0" encoding="UTF-8"?>
<svg xmlns="http://www.w3.org/2000/svg" xmlns:xlink="http://www.w3.org/1999/xlink" width="128pt" height="64pt" viewBox="0 0 128 64" version="1.1">
<g id="surface241">
<rect x="0" y="0" width="128" height="64" style="fill:rgb(0%,12.940979%,67.842102%);fill-opacity:1;stroke:none;"/>
<path style=" stroke:none;fill-rule:evenodd;fill:rgb(10.980225%,54.116821%,25.881958%);fill-opacity:1;" d="M 0 0 L 128 64 L 127.925781 0.046875 Z M 0 0 "/>
<path style=" stroke:none;fill-rule:evenodd;fill:rgb(99.998474%,77.645874%,22.3526%);fill-opacity:1;" d="M 75.6875 31.964844 C 75.6875 34.992188 74.441406 38 72.300781 40.140625 C 70.164062 42.28125 67.15625 43.527344 64.128906 43.527344 C 61.101562 43.527344 58.09375 42.28125 55.953125 40.140625 C 53.8125 38 52.566406 34.992188 52.566406 31.964844 C 52.566406 28.9375 53.8125 25.929688 55.953125 23.789062 C 58.09375 21.648438 61.101562 20.402344 64.128906 20.402344 C 67.15625 20.402344 70.164062 21.648438 72.300781 23.789062 C 74.441406 25.929688 75.6875 28.9375 75.6875 31.964844 Z M 75.6875 31.964844 "/>
<path style=" stroke:none;fill-rule:evenodd;fill:rgb(10.980225%,54.116821%,25.881958%);fill-opacity:1;" d="M 56.941406 26.804688 C 57.730469 27.890625 58.929688 29.710938 59.894531 29.234375 C 60.644531 29.238281 61.03125 29.292969 61.136719 29.792969 C 62.910156 30.09375 65.890625 29.34375 67.746094 26.929688 C 67.746094 26.929688 67.902344 26.949219 67.847656 26.03125 C 67.859375 25.632812 68.394531 25.710938 68.40625 25.839844 C 68.484375 26.039062 68.46875 26.1875 68.570312 26.195312 C 68.800781 26.117188 69.113281 25.605469 69.375 25.28125 C 69.445312 25.136719 69.40625 24.984375 69.421875 24.804688 C 69.558594 24.464844 69.90625 24.539062 69.976562 24.71875 C 70.042969 24.832031 70.042969 24.921875 70.109375 25.035156 C 70.457031 25.269531 71.089844 25.050781 71.140625 25.050781 C 71.199219 24.765625 71.382812 24.792969 71.382812 24.792969 C 71.617188 24.742188 71.527344 24.761719 71.679688 24.84375 C 71.542969 26.378906 71.980469 26.445312 71.945312 27.234375 C 71.960938 28.113281 71.679688 28.363281 71.679688 28.703125 C 71.765625 29.109375 73.066406 29.125 72.609375 29.472656 C 72.207031 29.6875 72.609375 30.089844 72.003906 30.242188 C 70.25 31.136719 69.914062 31.902344 69.914062 31.902344 C 69.914062 31.902344 69.472656 32.734375 69.421875 32.734375 C 69.128906 33.289062 68.753906 32.984375 68.546875 33.257812 C 68.445312 33.597656 68.328125 34.351562 68.535156 34.746094 C 68.636719 35.285156 68.523438 35.578125 68.390625 36.117188 C 68.277344 37.242188 67.832031 37.414062 67.777344 37.808594 C 67.570312 38.230469 67.824219 40.210938 67.625 40.210938 C 66.316406 40.238281 65.316406 39.960938 64.796875 39.859375 C 65.300781 37.683594 65.105469 35.773438 65.105469 35.578125 C 64.976562 34.023438 62.777344 34.402344 62.441406 34.195312 C 62.164062 34.136719 61.988281 33.910156 61.890625 33.8125 C 61.578125 33.777344 61.460938 33.707031 61.152344 33.671875 C 60.996094 33.75 61.089844 33.832031 60.742188 33.9375 C 59.867188 34.042969 59.476562 33.171875 59.476562 33.171875 C 59.519531 32.878906 57.507812 33.234375 56.410156 32.980469 C 55.960938 33.230469 55.765625 33.96875 55.398438 34.058594 C 55.386719 34.289062 54.792969 33.871094 54.671875 33.644531 C 54.648438 32.988281 55.246094 32.695312 55.246094 32.695312 C 55.71875 32.363281 56 32.308594 56.230469 32.078125 C 56.34375 31.503906 56.289062 31.082031 56.53125 30.652344 C 56.738281 30.324219 57.042969 30.480469 57.25 30.332031 C 57.46875 30.183594 57.5625 29.222656 57.359375 28.957031 C 57.359375 28.957031 56.472656 28.15625 56.421875 28.109375 C 56.132812 27.28125 56.761719 26.746094 56.941406 26.804688 Z M 56.941406 26.804688 "/>
<path style=" stroke:none;fill-rule:evenodd;fill:rgb(99.998474%,77.645874%,22.3526%);fill-opacity:1;" d="M 112.375 12.488281 C 111.851562 10.414062 107.164062 5.949219 103.640625 3.109375 C 102.796875 2.535156 102.25 2.878906 102.359375 3.695312 C 102.796875 4.425781 103.125 5.230469 103.566406 5.960938 C 103.6875 6.449219 103.921875 6.792969 104.042969 7.277344 C 104.042969 7.277344 104.078125 8.121094 104.152344 8.191406 C 105.25 9.402344 105.394531 10.425781 105.394531 10.425781 C 106.03125 11.644531 106.589844 12.535156 107.699219 13.535156 C 108.941406 14.3125 108.027344 16.738281 108.066406 18.03125 C 108.066406 18.851562 107.480469 18.753906 106.96875 18.65625 C 102.933594 14.949219 98.933594 14.9375 95.410156 13.863281 C 94.03125 13.71875 94.007812 14.375 94.457031 14.742188 C 96.921875 17.375 99.238281 19.167969 102.285156 20.667969 C 102.796875 20.984375 103.308594 21.300781 103.824219 21.617188 C 104.40625 22.105469 104.992188 22.59375 105.578125 23.082031 C 106.929688 23.957031 107.042969 24.761719 107.042969 24.835938 C 107.078125 26.480469 106.199219 27.761719 105.945312 28.273438 C 105.480469 30.019531 104.554688 30.324219 104.554688 30.324219 C 97.019531 35.40625 93.066406 36.722656 80.851562 35.152344 C 80.667969 35.054688 79.5 35.25 80.851562 35.734375 C 83.960938 36.773438 91.597656 38.433594 98.988281 34.933594 C 100.761719 33.691406 101.949219 34.097656 103.234375 33.355469 C 105.34375 32.054688 108.359375 30.433594 108.90625 30.25 C 110.550781 29.371094 115.160156 28.382812 116.222656 27.507812 C 117.441406 27.410156 118.703125 27.25 118.789062 26.199219 C 119.191406 25.941406 119.777344 26.128906 120.210938 25.277344 C 121.175781 25.109375 121.015625 24.761719 121.015625 24.761719 C 120.769531 24.078125 119.867188 23.800781 119.222656 23.300781 C 118.269531 22.984375 117.613281 22.886719 116.917969 23.226562 C 116.699219 23.324219 116.476562 23.421875 116.257812 23.519531 C 116.257812 23.519531 115.234375 23.375 115.234375 23.300781 C 112.957031 23.175781 113.179688 15.632812 112.375 12.488281 Z M 112.375 12.488281 "/>
<path style=" stroke:none;fill-rule:evenodd;fill:rgb(10.980225%,54.116821%,25.881958%);fill-opacity:1;" d="M 117.710938 24.832031 C 117.648438 25.007812 117.335938 25.085938 117.054688 24.996094 C 116.773438 24.90625 116.578125 24.671875 116.640625 24.496094 C 116.699219 24.324219 117.011719 24.246094 117.292969 24.332031 C 117.574219 24.421875 117.773438 24.660156 117.710938 24.832031 Z M 117.710938 24.832031 "/>
<path style=" stroke:none;fill-rule:evenodd;fill:rgb(99.998474%,99.998474%,99.998474%);fill-opacity:1;" d="M 24.082031 24.441406 L 22.453125 22.914062 L 20.800781 24.417969 L 20.976562 22.191406 L 18.769531 21.839844 L 20.621094 20.585938 L 19.519531 18.640625 L 21.652344 19.308594 L 22.488281 17.234375 L 23.296875 19.320312 L 25.4375 18.679688 L 24.3125 20.609375 L 26.148438 21.886719 L 23.9375 22.210938 Z M 24.082031 24.441406 "/>
<path style=" stroke:none;fill-rule:evenodd;fill:rgb(99.998474%,99.998474%,99.998474%);fill-opacity:1;" d="M 29.875 42.949219 L 28.113281 41.773438 L 26.398438 43.011719 L 27.003906 41.019531 L 25.265625 39.8125 L 27.398438 39.757812 L 28.035156 37.773438 L 28.75 39.730469 L 30.886719 39.710938 L 29.195312 40.980469 Z M 29.875 42.949219 "/>
<path style=" stroke:none;fill-rule:evenodd;fill:rgb(99.998474%,99.998474%,99.998474%);fill-opacity:1;" d="M 37.960938 35.324219 L 36.332031 33.796875 L 34.679688 35.300781 L 34.855469 33.074219 L 32.648438 32.722656 L 34.5 31.472656 L 33.398438 29.523438 L 35.53125 30.195312 L 36.367188 28.121094 L 37.175781 30.203125 L 39.316406 29.5625 L 38.191406 31.496094 L 40.027344 32.769531 L 37.8125 33.09375 Z M 37.960938 35.324219 "/>
<path style=" stroke:none;fill-rule:evenodd;fill:rgb(99.998474%,99.998474%,99.998474%);fill-opacity:1;" d="M 9.738281 40.210938 L 8.109375 38.683594 L 6.457031 40.191406 L 6.632812 37.964844 L 4.425781 37.609375 L 6.277344 36.359375 L 5.175781 34.414062 L 7.308594 35.082031 L 8.144531 33.007812 L 8.953125 35.09375 L 11.09375 34.453125 L 9.96875 36.382812 L 11.804688 37.660156 L 9.589844 37.980469 Z M 9.738281 40.210938 "/>
<path style=" stroke:none;fill-rule:evenodd;fill:rgb(99.998474%,99.998474%,99.998474%);fill-opacity:1;" d="M 24.40625 58.878906 L 22.773438 57.351562 L 21.125 58.859375 L 21.300781 56.628906 L 19.09375 56.277344 L 20.945312 55.027344 L 19.84375 53.082031 L 21.976562 53.75 L 22.8125 51.675781 L 23.617188 53.761719 L 25.761719 53.121094 L 24.632812 55.050781 L 26.46875 56.324219 L 24.257812 56.648438 Z M 24.40625 58.878906 "/>
</g>
</svg>
