<svg viewBox="0 0 1000 502" xmlns="http://www.w3.org/2000/svg"><g fill-rule="evenodd"><path d="m0 2.082031h1000v500h-1000zm0 0" fill="#008000"/><path d="m280.09375 147.917969c0 60.082031-48.714844 108.796875-108.796875 108.796875-60.089844 0-108.796875-48.714844-108.796875-108.796875 0-60.085938 48.707031-108.800781 108.796875-108.800781 60.082031 0 108.796875 48.714843 108.796875 108.800781zm0 0" fill="#ffe000"/><path d="m164.097656 230.199219h27.253906s1.226563-2.496094-.277343-3.742188c-1.507813-1.253906-7.367188-1.523437-5.785157-5.941406 3.253907-9.082031 3.707032-6.28125 5.75-27.855469 2.042969-21.574218 3.027344-55.402344 3.027344-55.402344h-3.929687s.757812 10.519532-1.515625 24.21875c-2.269532 13.703126-2.953125 14.90625-5.449219 25.429688-2.5 10.523438-2.875 11.433594-5.144531 17.5625-2.269532 6.128906-2.5 6.433594-6.054688 12.109375-3.5625 5.679687-2.269531 3.554687-4.238281 6.964844-.988281 1.699219-2.199219 1.246093-2.855469 2.492187-.671875 1.234375-.78125 4.164063-.78125 4.164063zm0 0" fill="#802000" stroke="#7b3100" stroke-width="2.314815"/><g fill="#ffe000"><path d="m750 383.03125 6.886719 21.421875 21.035156-7.96875-12.441406 18.734375 19.34375 11.480469-22.414063 1.945312 3.085938 22.28125-15.496094-16.296875-15.496094 16.296875 3.085938-22.28125-22.414063-1.945312 19.34375-11.480469-12.441406-18.734375 21.035156 7.96875zm0 0"/><path d="m750 49.699219 6.886719 21.417969 21.035156-7.96875-12.441406 18.738281 19.34375 11.480469-22.414063 1.945312 3.085938 22.28125-15.496094-16.300781-15.496094 16.300781 3.085938-22.28125-22.414063-1.945312 19.34375-11.480469-12.441406-18.738281 21.035156 7.96875zm0 0"/><path d="m625 185.113281 6.886719 21.421875 21.035156-7.96875-12.441406 18.734375 19.34375 11.484375-22.414063 1.945313 3.085938 22.28125-15.496094-16.300781-15.496094 16.300781 3.085938-22.28125-22.414063-1.945313 19.34375-11.484375-12.441406-18.734375 21.035156 7.96875zm0 0"/><path d="m861.109375 151.78125 6.894531 21.421875 21.023438-7.96875-12.441406 18.734375 19.34375 11.480469-22.402344 1.945312 3.082031 22.28125-15.5-16.296875-15.496094 16.296875 3.085938-22.28125-22.40625-1.945312 19.335937-11.480469-12.441406-18.734375 21.035156 7.96875zm0 0"/><path d="m800 252.082031 5.445312 13.347657 14.371094 1.050781-11.011718 9.300781 3.441406 13.988281-12.246094-7.59375-12.246094 7.59375 3.441406-13.988281-11.011718-9.300781 14.371094-1.050781zm0 0"/><path d="m500 147.917969c-57.503906 0-104.167969 46.660156-104.167969 104.164062 0 57.503907 46.664063 104.167969 104.167969 104.167969 26.960938 0 51.300781-10.523438 69.808594-27.34375-1.367188.667969-2.578125 1.578125-3.980469 2.171875-5.125 2.164063-10.480469 3.851563-16.054687 4.988281-5.582032 1.140625-11.378907 1.734375-17.292969 1.734375-5.917969 0-11.710938-.59375-17.285157-1.734375-5.585937-1.136718-10.9375-2.824218-16.066406-4.988281-5.125-2.171875-9.976562-4.875-14.535156-7.957031-4.566406-3.085938-8.855469-6.542969-12.734375-10.417969-3.875-3.882813-7.40625-8.167969-10.492187-12.738281-3.074219-4.554688-5.710938-9.40625-7.882813-14.53125-2.164063-5.128906-3.851563-10.480469-4.992187-16.066406-1.136719-5.574219-1.730469-11.367188-1.730469-17.285157 0-5.914062.59375-11.710937 1.730469-17.285156 1.140624-5.582031 2.828124-10.9375 4.992187-16.0625 2.171875-5.128906 4.808594-9.976563 7.882813-14.535156 3.085937-4.566407 6.617187-8.851563 10.492187-12.738281 3.878906-3.871094 8.167969-7.328126 12.734375-10.414063 4.558594-3.085937 9.410156-5.785156 14.535156-7.960937 5.128906-2.164063 10.480469-3.847657 16.066406-4.988282 5.574219-1.136718 11.367188-1.734375 17.285157-1.734375 5.914062 0 11.710937.597657 17.292969 1.734375 5.574218 1.140625 10.929687 2.824219 16.054687 4.988282 1.402344.59375 2.613281 1.507812 3.980469 2.175781-18.507813-16.820313-42.847656-27.34375-69.808594-27.34375zm0 0"/></g><path d="m184.894531 68.417969c.226563 4.230469-.195312 9.835937-1.953125 14.394531-1.78125 5.078125-3.710937 10.148438-3.613281 15.40625-2.832031.964844-5.746094-6.121094-8.460937-1.953125 2.042968 5.761719 6.761718 10.316406 10 15.5.546874 1.605469 5.199218 5.804687 2.507812 6.78125-6.796875-2.328125-8.449219-10.945313-12.664062-16.179687-4.898438-8.804688-14.03125-15.019532-24.210938-15.453126-3.816406.097657-16.242188-.941406-13.011719 5.597657 4.757813 3.230469 10.628907 5.347656 15.332031 8.976562 3.5.335938 9.855469 6.179688 9.480469 8.390625-6.160156-2.496094-9.039062-5.484375-15.683593-8.113281-8.988282-3.472656-21.433594-1.382813-26.414063 7.542969-.929687 2.320312-2.292969 9.101562.625 9.742187 3.410156-5.320312 8.285156-11.28125 15.519531-9.675781 5.679688.441406-6.339844 10.578125-1.742187 8.539062 1.460937-.644531 4.820312-2.859374 7.15625-3.085937 2.324219-.226563 3.636719 1.511719 5.402343 1.757813 3.539063.480468 4.515626 1.96875 4.191407 2.832031-.390625 1.015625-1.515625.148437-5.113281 1.285156-1.804688.570313-2.738282 2.15625-4.839844 2.878906-2.101563.726563-6.460938.773438-8.097656.132813-5.703126-2.484375-15.070313-2.050782-16.847657 5.101562 0 3.148438-2.796875-.339844-4.089843 1.015625-.976563 3.4375-1.222657 6.960938-6.316407 6.644531-3.09375 3.246094-6.257812 6.597657-10.179687 8.910157 2.300781 5.28125 11.425781-5.308594 11-.847657-3.984375 5.445313 2.050781 6.59375 4.699218 2.402344 4.472657-4.730468 10.007813-10.484375 16.691407-5.714844 3.171875 2.988282 5.019531-1.585937 7.320312-1.339843 1.449219 3.71875 3.273438.183593 4.917969-.867188 2.691406-.339843 1.933594 3.363281 5.132812 1.085938 6.382813-4.222657 14.226563-.675781 20.460938-4.785157 6.632812-3.019531.933594 2.441407-.894531 4.570313-2.914063 5.648437-.390625 13.070313-6.714844 16.578125-2.539063 6.738281 3.003906 15.617188-2.644531 20.597656-.824219 3.125 7.265625 2.765625 9.527344 4.050782 3.980468.15625-.167969-9.105469 3.777343-10.339844 5.296875 3.269531 5.046875-5.859375 3.957031-8.675782.511719-6.40625.871094-13.402343 4.050782-19.207031 3.386718-7.109375 6.519531 2.898438 2.734375 5.707031-2.15625 6.542969-5.289063 14.722657-.398438 20.796876 1.414063.320312 2.570313 3.738281 4.394531 4.785156 1.832032 1.050781 4.320313-.265625 4.777344-3.375 2.34375-9.359375 1.164063-19.433594 4.5-28.53125 2.359375-2.824219 5.613282-.457032 7.078125 2.132812 4.6875 5.445313 7.984375 12.246094 13.65625 16.722656 5.167969 2.417969 9.734375 6.070313 12.109375 11.390626-.03125 4.105468 11.65625 4.730468 8.164063.175781-3.351563-4.445313-1.140625-8.878907 2.253906-11.835938 1.816406.449219 1.277344-2.808593-.148437-1.523437-2.277344-.535156-2.421876-4.707032.75-2.722656 5.339843 1.722656-.421876-3.867188-2.351563-4.039063-4.515625-2.796875-9.699219-6.019531-11.921875-10.878906 5.875.058593 11.980469 3.230469 17.984375 1.261719 4.816406-2.472657 9.699219.203124 11.386719 4.453124 3.71875-.59375 2.132812-4.332031 0-5.578124 2.714844-1.121094 4.605468-3.449219 1.300781-5.5-1.742187-2.277344 2.335937-6.160157-2.675781-6 .164062-3.828126-1.34375-7.339844-5.527344-8.65625-4.183594-3.546876-16.460938 5.214843-16.105469-2.765626-1.234375-4.355468 4.988281-.585937 6.730469-2.75 1.796875-4.582031-8.570312-4.136718-5.144531-7.691406 2.230469-1.441406 12.714843-3.5 4.496093-5.046875-4.105468 1.128907-7.628906.292969-10.847656-1.734375-2.949218 4.925782-11.347656-2.667968-9.851562 6.078125-1.15625 3.296875-8.65625 11.859375-10.691406 5.300781 1.722656-5.144531 10.628906-6.828124 7.871093-13.761718-.425781-4.328125-4.011719.757812-5.707031.429687-.855469-2.691406 2.589844-5.867187 4.988281-6.507812 4.769531 3.660156 4.90625-4.625 9.441407-3.949219 3.3125-.738281-1.066407-2.15625-1.984376-2.78125.902344-2.417969 5.980469-3.652344 1-5.761719-4.394531-3.265625-7.648437 3.246094-11.28125 3.59375-3.472656-3.929687 3.167969-5.816406 5-7.882812.097657-1.546875-3.875-.464844-2.679687-1.808594 1.035156-1.855469 8.066406-1.992187 4.777344-4.777344-4.964844-1.699219-11.351563-1.277343-16.113281.929688-2.996094.96875-3.875 7.746093-6.460938 7.460937-1.210938-3.019531.398438-8.964844-3.761719-9.835937zm23.4375 66.183593c3.777344-.632812.082031 5.738282-1.730469 5.648438.152344-2.292969-5.46875-2.074219-1.980468-4.070312 1.132812-.730469 2.394531-1.285157 3.710937-1.578126zm0 0" fill="#008000"/></g></svg>