<?xml version="1.0" encoding="UTF-8"?>
<svg xmlns="http://www.w3.org/2000/svg" xmlns:xlink="http://www.w3.org/1999/xlink" width="128pt" height="64pt" viewBox="0 0 128 64" version="1.1">
<g id="surface246">
<path style=" stroke:none;fill-rule:evenodd;fill:rgb(0%,50.195312%,0%);fill-opacity:1;" d="M 0 0.265625 L 128 0.265625 L 128 64.265625 L 0 64.265625 Z M 0 0.265625 "/>
<path style=" stroke:none;fill-rule:evenodd;fill:rgb(99.998474%,87.841797%,0%);fill-opacity:1;" d="M 35.851562 18.933594 C 35.851562 26.625 29.617188 32.859375 21.925781 32.859375 C 14.234375 32.859375 8 26.625 8 18.933594 C 8 11.242188 14.234375 5.007812 21.925781 5.007812 C 29.617188 5.007812 35.851562 11.242188 35.851562 18.933594 Z M 35.851562 18.933594 "/>
<path style="fill-rule:evenodd;fill:rgb(50.195312%,12.548828%,0%);fill-opacity:1;stroke-width:0.296296;stroke-linecap:butt;stroke-linejoin:miter;stroke:rgb(48.234558%,19.215393%,0%);stroke-opacity:1;stroke-miterlimit:4;" d="M 21.003906 29.464844 L 24.492188 29.464844 C 24.492188 29.464844 24.648438 29.144531 24.457031 28.988281 C 24.265625 28.824219 23.515625 28.792969 23.71875 28.226562 C 24.132812 27.0625 24.191406 27.421875 24.453125 24.660156 C 24.714844 21.898438 24.839844 17.570312 24.839844 17.570312 L 24.335938 17.570312 C 24.335938 17.570312 24.433594 18.914062 24.144531 20.667969 C 23.851562 22.421875 23.765625 22.578125 23.445312 23.925781 C 23.125 25.269531 23.078125 25.386719 22.789062 26.171875 C 22.496094 26.957031 22.46875 26.996094 22.011719 27.722656 C 21.554688 28.449219 21.722656 28.175781 21.46875 28.613281 C 21.34375 28.832031 21.1875 28.773438 21.105469 28.933594 C 21.019531 29.089844 21.003906 29.464844 21.003906 29.464844 Z M 21.003906 29.464844 "/>
<path style=" stroke:none;fill-rule:evenodd;fill:rgb(99.998474%,87.841797%,0%);fill-opacity:1;" d="M 96 49.027344 L 96.882812 51.769531 L 99.574219 50.75 L 97.980469 53.148438 L 100.457031 54.617188 L 97.589844 54.867188 L 97.984375 57.71875 L 96 55.632812 L 94.015625 57.71875 L 94.410156 54.867188 L 91.542969 54.617188 L 94.019531 53.148438 L 92.425781 50.75 L 95.117188 51.769531 Z M 96 49.027344 "/>
<path style=" stroke:none;fill-rule:evenodd;fill:rgb(99.998474%,87.841797%,0%);fill-opacity:1;" d="M 96 6.363281 L 96.882812 9.101562 L 99.574219 8.082031 L 97.980469 10.480469 L 100.457031 11.949219 L 97.589844 12.199219 L 97.984375 15.050781 L 96 12.964844 L 94.015625 15.050781 L 94.410156 12.199219 L 91.542969 11.949219 L 94.019531 10.480469 L 92.425781 8.082031 L 95.117188 9.101562 Z M 96 6.363281 "/>
<path style=" stroke:none;fill-rule:evenodd;fill:rgb(99.998474%,87.841797%,0%);fill-opacity:1;" d="M 80 23.695312 L 80.882812 26.4375 L 83.574219 25.417969 L 81.980469 27.816406 L 84.457031 29.285156 L 81.589844 29.535156 L 81.984375 32.386719 L 80 30.300781 L 78.015625 32.386719 L 78.410156 29.535156 L 75.542969 29.285156 L 78.019531 27.816406 L 76.425781 25.417969 L 79.117188 26.4375 Z M 80 23.695312 "/>
<path style=" stroke:none;fill-rule:evenodd;fill:rgb(99.998474%,87.841797%,0%);fill-opacity:1;" d="M 110.222656 19.429688 L 111.105469 22.167969 L 113.796875 21.148438 L 112.203125 23.546875 L 114.679688 25.019531 L 111.8125 25.265625 L 112.207031 28.117188 L 110.222656 26.03125 L 108.238281 28.117188 L 108.632812 25.265625 L 105.765625 25.019531 L 108.242188 23.546875 L 106.648438 21.148438 L 109.339844 22.167969 Z M 110.222656 19.429688 "/>
<path style=" stroke:none;fill-rule:evenodd;fill:rgb(99.998474%,87.841797%,0%);fill-opacity:1;" d="M 102.398438 32.265625 L 103.097656 33.976562 L 104.9375 34.109375 L 103.527344 35.300781 L 103.96875 37.089844 L 102.398438 36.117188 L 100.832031 37.089844 L 101.273438 35.300781 L 99.863281 34.109375 L 101.703125 33.976562 Z M 102.398438 32.265625 "/>
<path style=" stroke:none;fill-rule:evenodd;fill:rgb(99.998474%,87.841797%,0%);fill-opacity:1;" d="M 64 18.933594 C 56.640625 18.933594 50.667969 24.90625 50.667969 32.265625 C 50.667969 39.628906 56.640625 45.601562 64 45.601562 C 67.449219 45.601562 70.566406 44.253906 72.933594 42.101562 C 72.761719 42.183594 72.605469 42.300781 72.425781 42.378906 C 71.769531 42.65625 71.085938 42.871094 70.371094 43.015625 C 69.65625 43.164062 68.914062 43.238281 68.15625 43.238281 C 67.398438 43.238281 66.660156 43.164062 65.945312 43.015625 C 65.230469 42.871094 64.542969 42.65625 63.886719 42.378906 C 63.230469 42.101562 62.613281 41.753906 62.027344 41.359375 C 61.445312 40.964844 60.894531 40.523438 60.398438 40.027344 C 59.902344 39.527344 59.449219 38.980469 59.054688 38.394531 C 58.660156 37.8125 58.324219 37.191406 58.046875 36.535156 C 57.769531 35.878906 57.554688 35.195312 57.40625 34.480469 C 57.261719 33.765625 57.183594 33.023438 57.183594 32.265625 C 57.183594 31.507812 57.261719 30.769531 57.40625 30.054688 C 57.554688 29.339844 57.769531 28.652344 58.046875 27.996094 C 58.324219 27.339844 58.660156 26.722656 59.054688 26.136719 C 59.449219 25.554688 59.902344 25.003906 60.398438 24.507812 C 60.894531 24.011719 61.445312 23.570312 62.027344 23.175781 C 62.613281 22.777344 63.230469 22.433594 63.886719 22.15625 C 64.542969 21.878906 65.230469 21.664062 65.945312 21.515625 C 66.660156 21.371094 67.398438 21.292969 68.15625 21.292969 C 68.914062 21.292969 69.65625 21.371094 70.371094 21.515625 C 71.085938 21.664062 71.769531 21.878906 72.425781 22.15625 C 72.605469 22.230469 72.761719 22.347656 72.933594 22.433594 C 70.566406 20.28125 67.449219 18.933594 64 18.933594 Z M 64 18.933594 "/>
<path style=" stroke:none;fill-rule:evenodd;fill:rgb(0%,50.195312%,0%);fill-opacity:1;" d="M 23.667969 8.757812 C 23.695312 9.300781 23.640625 10.015625 23.417969 10.601562 C 23.1875 11.25 22.941406 11.898438 22.953125 12.570312 C 22.589844 12.695312 22.21875 11.789062 21.871094 12.320312 C 22.132812 13.058594 22.738281 13.644531 23.152344 14.304688 C 23.222656 14.511719 23.816406 15.050781 23.472656 15.175781 C 22.601562 14.875 22.390625 13.773438 21.851562 13.101562 C 21.222656 11.976562 20.054688 11.179688 18.753906 11.125 C 18.261719 11.136719 16.671875 11.003906 17.085938 11.839844 C 17.695312 12.253906 18.445312 12.527344 19.050781 12.992188 C 19.496094 13.035156 20.308594 13.78125 20.261719 14.066406 C 19.472656 13.746094 19.105469 13.363281 18.253906 13.027344 C 17.105469 12.582031 15.511719 12.847656 14.875 13.992188 C 14.753906 14.289062 14.582031 15.15625 14.953125 15.238281 C 15.390625 14.558594 16.015625 13.792969 16.941406 14 C 17.667969 14.054688 16.128906 15.355469 16.71875 15.09375 C 16.902344 15.011719 17.335938 14.726562 17.632812 14.699219 C 17.929688 14.667969 18.097656 14.890625 18.324219 14.921875 C 18.777344 14.984375 18.902344 15.175781 18.863281 15.285156 C 18.8125 15.414062 18.667969 15.304688 18.207031 15.449219 C 17.976562 15.523438 17.855469 15.726562 17.585938 15.820312 C 17.320312 15.910156 16.761719 15.917969 16.550781 15.835938 C 15.820312 15.519531 14.621094 15.574219 14.394531 16.488281 C 14.394531 16.890625 14.035156 16.445312 13.871094 16.617188 C 13.746094 17.058594 13.714844 17.507812 13.0625 17.46875 C 12.667969 17.882812 12.261719 18.3125 11.757812 18.609375 C 12.054688 19.285156 13.222656 17.929688 13.167969 18.5 C 12.65625 19.199219 13.429688 19.34375 13.769531 18.808594 C 14.339844 18.203125 15.050781 17.464844 15.90625 18.078125 C 16.3125 18.460938 16.546875 17.875 16.84375 17.90625 C 17.027344 18.382812 17.261719 17.929688 17.472656 17.792969 C 17.816406 17.75 17.71875 18.226562 18.128906 17.933594 C 18.945312 17.394531 19.949219 17.847656 20.746094 17.320312 C 21.597656 16.933594 20.867188 17.632812 20.632812 17.90625 C 20.261719 18.628906 20.582031 19.578125 19.773438 20.027344 C 19.449219 20.890625 20.160156 22.027344 19.433594 22.664062 C 19.332031 23.066406 20.367188 23.019531 20.65625 23.183594 C 21.164062 23.203125 20.632812 22.019531 21.136719 21.859375 C 21.816406 22.277344 21.785156 21.109375 21.644531 20.75 C 21.710938 19.929688 21.757812 19.035156 22.164062 18.289062 C 22.597656 17.378906 22.996094 18.660156 22.511719 19.019531 C 22.238281 19.859375 21.835938 20.90625 22.460938 21.683594 C 22.644531 21.722656 22.792969 22.160156 23.023438 22.296875 C 23.257812 22.429688 23.578125 22.261719 23.636719 21.863281 C 23.9375 20.664062 23.785156 19.375 24.210938 18.210938 C 24.515625 17.851562 24.929688 18.152344 25.117188 18.484375 C 25.71875 19.179688 26.140625 20.050781 26.867188 20.625 C 27.527344 20.933594 28.113281 21.402344 28.417969 22.082031 C 28.414062 22.609375 29.910156 22.6875 29.460938 22.105469 C 29.03125 21.535156 29.316406 20.96875 29.75 20.589844 C 29.980469 20.648438 29.914062 20.230469 29.730469 20.394531 C 29.441406 20.328125 29.421875 19.792969 29.828125 20.046875 C 30.511719 20.269531 29.773438 19.550781 29.527344 19.53125 C 28.949219 19.171875 28.285156 18.757812 28 18.136719 C 28.753906 18.144531 29.535156 18.550781 30.300781 18.300781 C 30.917969 17.980469 31.542969 18.324219 31.757812 18.867188 C 32.234375 18.792969 32.03125 18.316406 31.757812 18.15625 C 32.105469 18.011719 32.347656 17.714844 31.925781 17.449219 C 31.703125 17.160156 32.226562 16.664062 31.582031 16.683594 C 31.605469 16.191406 31.410156 15.742188 30.875 15.574219 C 30.339844 15.121094 28.769531 16.242188 28.816406 15.222656 C 28.65625 14.664062 29.453125 15.144531 29.675781 14.867188 C 29.90625 14.28125 28.578125 14.339844 29.019531 13.882812 C 29.304688 13.699219 30.644531 13.4375 29.59375 13.238281 C 29.066406 13.382812 28.617188 13.277344 28.203125 13.015625 C 27.828125 13.648438 26.753906 12.675781 26.945312 13.792969 C 26.796875 14.214844 25.835938 15.3125 25.574219 14.472656 C 25.796875 13.816406 26.933594 13.597656 26.582031 12.710938 C 26.527344 12.15625 26.070312 12.808594 25.851562 12.765625 C 25.742188 12.421875 26.183594 12.015625 26.492188 11.933594 C 27.101562 12.402344 27.117188 11.339844 27.699219 11.429688 C 28.121094 11.332031 27.5625 11.152344 27.445312 11.070312 C 27.558594 10.761719 28.210938 10.605469 27.574219 10.335938 C 27.011719 9.917969 26.59375 10.75 26.128906 10.792969 C 25.683594 10.292969 26.535156 10.050781 26.769531 9.785156 C 26.78125 9.585938 26.273438 9.726562 26.425781 9.554688 C 26.558594 9.316406 27.457031 9.300781 27.039062 8.941406 C 26.402344 8.726562 25.585938 8.777344 24.976562 9.0625 C 24.589844 9.183594 24.480469 10.054688 24.148438 10.015625 C 23.992188 9.628906 24.199219 8.867188 23.667969 8.757812 Z M 26.667969 17.230469 C 27.148438 17.148438 26.675781 17.964844 26.445312 17.953125 C 26.464844 17.660156 25.746094 17.6875 26.191406 17.429688 C 26.335938 17.335938 26.496094 17.265625 26.667969 17.230469 Z M 26.667969 17.230469 "/>
</g>
</svg>
