<?xml version="1.0" encoding="UTF-8"?>
<svg xmlns="http://www.w3.org/2000/svg" xmlns:xlink="http://www.w3.org/1999/xlink" width="128pt" height="77pt" viewBox="0 0 128 77" version="1.1">
<defs>
<clipPath id="clip1">
  <path d="M 0 0 L 128 0 L 128 76.800781 L 0 76.800781 Z M 0 0 "/>
</clipPath>
<clipPath id="clip2">
  <path d="M 0 19 L 128 19 L 128 76.800781 L 0 76.800781 Z M 0 19 "/>
</clipPath>
<clipPath id="clip3">
  <path d="M 0 38 L 128 38 L 128 76.800781 L 0 76.800781 Z M 0 38 "/>
</clipPath>
<clipPath id="clip4">
  <path d="M 0 57 L 128 57 L 128 76.800781 L 0 76.800781 Z M 0 57 "/>
</clipPath>
<clipPath id="clip5">
  <path d="M 0 0 L 64 0 L 64 76.800781 L 0 76.800781 Z M 0 0 "/>
</clipPath>
</defs>
<g id="surface256">
<g clip-path="url(#clip1)" clip-rule="nonzero">
<path style=" stroke:none;fill-rule:evenodd;fill:rgb(99.998474%,77.645874%,11.764526%);fill-opacity:1;" d="M 0 76.800781 L 0 0 L 128 0 L 128 76.800781 Z M 0 76.800781 "/>
</g>
<g clip-path="url(#clip2)" clip-rule="nonzero">
<path style=" stroke:none;fill-rule:evenodd;fill:rgb(99.998474%,99.998474%,99.998474%);fill-opacity:1;" d="M 0 19.199219 L 128 19.199219 L 128 76.800781 L 0 76.800781 Z M 0 19.199219 "/>
</g>
<g clip-path="url(#clip3)" clip-rule="nonzero">
<path style=" stroke:none;fill-rule:evenodd;fill:rgb(80.783081%,6.666565%,14.901733%);fill-opacity:1;" d="M 0 38.398438 L 128 38.398438 L 128 76.800781 L 0 76.800781 Z M 0 38.398438 "/>
</g>
<g clip-path="url(#clip4)" clip-rule="nonzero">
<path style=" stroke:none;fill-rule:evenodd;fill:rgb(22.744751%,45.881653%,76.861572%);fill-opacity:1;" d="M 0 57.601562 L 128 57.601562 L 128 76.800781 L 0 76.800781 Z M 0 57.601562 "/>
</g>
<g clip-path="url(#clip5)" clip-rule="nonzero">
<path style=" stroke:none;fill-rule:evenodd;fill:rgb(23.921204%,55.685425%,19.999695%);fill-opacity:1;" d="M 0 76.800781 L 64 38.398438 L 0 0 Z M 0 76.800781 "/>
</g>
<path style=" stroke:none;fill-rule:evenodd;fill:rgb(99.998474%,99.998474%,99.998474%);fill-opacity:1;" d="M 39.039062 38.398438 C 39.039062 47.945312 31.304688 55.679688 21.761719 55.679688 C 12.214844 55.679688 4.480469 47.945312 4.480469 38.398438 C 4.480469 28.855469 12.214844 21.121094 21.761719 21.121094 C 31.304688 21.121094 39.039062 28.855469 39.039062 38.398438 Z M 39.039062 38.398438 "/>
<path style=" stroke:none;fill-rule:evenodd;fill:rgb(23.921204%,55.685425%,19.999695%);fill-opacity:1;" d="M 46.71875 38.398438 C 46.71875 47.945312 38.984375 55.679688 29.441406 55.679688 C 19.894531 55.679688 12.160156 47.945312 12.160156 38.398438 C 12.160156 28.855469 19.894531 21.121094 29.441406 21.121094 C 38.984375 21.121094 46.71875 28.855469 46.71875 38.398438 Z M 46.71875 38.398438 "/>
<path style=" stroke:none;fill-rule:evenodd;fill:rgb(99.998474%,99.998474%,99.998474%);fill-opacity:1;" d="M 22.554688 25.042969 L 24.882812 25.042969 L 25.601562 22.832031 L 26.320312 25.042969 L 28.644531 25.042969 L 26.761719 26.410156 L 27.480469 28.621094 L 25.601562 27.253906 L 23.71875 28.621094 L 24.4375 26.410156 Z M 22.554688 25.042969 "/>
<path style=" stroke:none;fill-rule:evenodd;fill:rgb(99.998474%,99.998474%,99.998474%);fill-opacity:1;" d="M 22.554688 33.289062 L 24.882812 33.289062 L 25.601562 31.078125 L 26.320312 33.289062 L 28.644531 33.289062 L 26.761719 34.65625 L 27.480469 36.867188 L 25.601562 35.5 L 23.71875 36.867188 L 24.4375 34.65625 Z M 22.554688 33.289062 "/>
<path style=" stroke:none;fill-rule:evenodd;fill:rgb(99.998474%,99.998474%,99.998474%);fill-opacity:1;" d="M 22.554688 41.535156 L 24.882812 41.535156 L 25.601562 39.324219 L 26.320312 41.535156 L 28.644531 41.535156 L 26.761719 42.898438 L 27.480469 45.113281 L 25.601562 43.746094 L 23.71875 45.113281 L 24.4375 42.898438 Z M 22.554688 41.535156 "/>
<path style=" stroke:none;fill-rule:evenodd;fill:rgb(99.998474%,99.998474%,99.998474%);fill-opacity:1;" d="M 22.554688 49.777344 L 24.882812 49.777344 L 25.601562 47.566406 L 26.320312 49.777344 L 28.644531 49.777344 L 26.761719 51.144531 L 27.480469 53.355469 L 25.601562 51.988281 L 23.71875 53.355469 L 24.4375 51.144531 Z M 22.554688 49.777344 "/>
</g>
</svg>
