<?xml version="1.0" encoding="UTF-8"?>
<svg xmlns="http://www.w3.org/2000/svg" xmlns:xlink="http://www.w3.org/1999/xlink" width="128pt" height="64pt" viewBox="0 0 128 64" version="1.1">
<g id="surface261">
<rect x="0" y="0" width="128" height="64" style="fill:rgb(0%,14.117432%,49.01886%);fill-opacity:1;stroke:none;"/>
<path style=" stroke:none;fill-rule:evenodd;fill:rgb(99.998474%,99.998474%,99.998474%);fill-opacity:1;" d="M 0 0 L 0 3.578125 L 56.84375 32 L 64 32 L 64 28.421875 L 7.15625 0 Z M 64 0 L 64 3.578125 L 7.15625 32 L 0 32 L 0 28.421875 L 56.84375 0 Z M 64 0 "/>
<path style=" stroke:none;fill-rule:evenodd;fill:rgb(81.175232%,7.843018%,16.862488%);fill-opacity:1;" d="M 0 32 L 21.332031 21.332031 L 26.105469 21.332031 L 4.769531 32 Z M 0 0 L 21.332031 10.667969 L 16.5625 10.667969 L 0 2.386719 Z M 37.894531 10.667969 L 59.230469 0 L 64 0 L 42.667969 10.667969 Z M 64 32 L 42.667969 21.332031 L 47.4375 21.332031 L 64 29.613281 Z M 64 32 "/>
<path style="fill-rule:nonzero;fill:rgb(99.998474%,99.998474%,99.998474%);fill-opacity:1;stroke-width:1;stroke-linecap:square;stroke-linejoin:miter;stroke:rgb(99.998474%,99.998474%,99.998474%);stroke-opacity:1;stroke-miterlimit:3.239307;" d="M 26.667969 0 L 26.667969 32 L 37.332031 32 L 37.332031 0 Z M 26.667969 0 "/>
<path style="fill-rule:nonzero;fill:rgb(99.998474%,99.998474%,99.998474%);fill-opacity:1;stroke-width:1;stroke-linecap:square;stroke-linejoin:miter;stroke:rgb(99.998474%,99.998474%,99.998474%);stroke-opacity:1;stroke-miterlimit:3.239307;" d="M 0 10.667969 L 0 21.332031 L 64 21.332031 L 64 10.667969 Z M 0 10.667969 "/>
<path style="fill-rule:nonzero;fill:rgb(81.175232%,7.843018%,16.862488%);fill-opacity:1;stroke-width:1;stroke-linecap:square;stroke-linejoin:miter;stroke:rgb(81.175232%,7.843018%,16.862488%);stroke-opacity:1;stroke-miterlimit:3.239307;" d="M 0 12.800781 L 0 19.199219 L 64 19.199219 L 64 12.800781 Z M 0 12.800781 "/>
<path style="fill-rule:nonzero;fill:rgb(81.175232%,7.843018%,16.862488%);fill-opacity:1;stroke-width:1;stroke-linecap:square;stroke-linejoin:miter;stroke:rgb(81.175232%,7.843018%,16.862488%);stroke-opacity:1;stroke-miterlimit:3.239307;" d="M 28.800781 0 L 28.800781 32 L 35.199219 32 L 35.199219 0 Z M 28.800781 0 "/>
<path style=" stroke:none;fill-rule:evenodd;fill:rgb(99.998474%,99.998474%,99.998474%);fill-opacity:1;" d="M 97.433594 5.601562 L 95.949219 10.164062 L 98.382812 10.957031 Z M 97.433594 5.601562 "/>
<path style=" stroke:none;fill-rule:evenodd;fill:rgb(99.998474%,99.998474%,99.998474%);fill-opacity:1;" d="M 97.433594 5.601562 L 98.917969 10.164062 L 96.480469 10.957031 Z M 97.433594 5.601562 "/>
<path style=" stroke:none;fill-rule:evenodd;fill:rgb(99.998474%,99.998474%,99.998474%);fill-opacity:1;" d="M 101.996094 8.917969 L 97.199219 8.917969 L 97.199219 11.476562 Z M 101.996094 8.917969 "/>
<path style=" stroke:none;fill-rule:evenodd;fill:rgb(99.998474%,99.998474%,99.998474%);fill-opacity:1;" d="M 101.996094 8.917969 L 98.117188 11.738281 L 96.609375 9.667969 Z M 101.996094 8.917969 "/>
<path style=" stroke:none;fill-rule:evenodd;fill:rgb(99.998474%,99.998474%,99.998474%);fill-opacity:1;" d="M 100.253906 14.28125 L 98.773438 9.71875 L 96.335938 10.507812 Z M 100.253906 14.28125 "/>
<path style=" stroke:none;fill-rule:evenodd;fill:rgb(99.998474%,99.998474%,99.998474%);fill-opacity:1;" d="M 100.253906 14.28125 L 96.371094 11.460938 L 97.875 9.390625 Z M 100.253906 14.28125 "/>
<path style=" stroke:none;fill-rule:evenodd;fill:rgb(99.998474%,99.998474%,99.998474%);fill-opacity:1;" d="M 94.613281 14.28125 L 98.496094 11.460938 L 96.992188 9.390625 Z M 94.613281 14.28125 "/>
<path style=" stroke:none;fill-rule:evenodd;fill:rgb(99.998474%,99.998474%,99.998474%);fill-opacity:1;" d="M 94.613281 14.28125 L 96.09375 9.71875 L 98.53125 10.507812 Z M 94.613281 14.28125 "/>
<path style=" stroke:none;fill-rule:evenodd;fill:rgb(99.998474%,99.998474%,99.998474%);fill-opacity:1;" d="M 92.867188 8.917969 L 96.75 11.738281 L 98.257812 9.667969 Z M 92.867188 8.917969 "/>
<path style=" stroke:none;fill-rule:evenodd;fill:rgb(99.998474%,99.998474%,99.998474%);fill-opacity:1;" d="M 92.867188 8.917969 L 97.667969 8.917969 L 97.667969 11.476562 Z M 92.867188 8.917969 "/>
<path style=" stroke:none;fill-rule:evenodd;fill:rgb(99.998474%,99.998474%,99.998474%);fill-opacity:1;" d="M 108.238281 7.894531 L 105.023438 11.464844 L 106.925781 13.175781 Z M 108.238281 7.894531 "/>
<path style=" stroke:none;fill-rule:evenodd;fill:rgb(99.998474%,99.998474%,99.998474%);fill-opacity:1;" d="M 108.238281 7.894531 L 107.734375 12.667969 L 105.1875 12.402344 Z M 108.238281 7.894531 "/>
<path style=" stroke:none;fill-rule:evenodd;fill:rgb(99.998474%,99.998474%,99.998474%);fill-opacity:1;" d="M 111.058594 12.78125 L 106.671875 10.832031 L 105.632812 13.167969 Z M 111.058594 12.78125 "/>
<path style=" stroke:none;fill-rule:evenodd;fill:rgb(99.998474%,99.998474%,99.998474%);fill-opacity:1;" d="M 111.058594 12.78125 L 106.363281 13.78125 L 105.832031 11.277344 Z M 111.058594 12.78125 "/>
<path style=" stroke:none;fill-rule:evenodd;fill:rgb(99.998474%,99.998474%,99.998474%);fill-opacity:1;" d="M 107.28125 16.976562 L 107.785156 12.203125 L 105.238281 11.933594 Z M 107.28125 16.976562 "/>
<path style=" stroke:none;fill-rule:evenodd;fill:rgb(99.998474%,99.998474%,99.998474%);fill-opacity:1;" d="M 107.28125 16.976562 L 104.882812 12.820312 L 107.097656 11.539062 Z M 107.28125 16.976562 "/>
<path style=" stroke:none;fill-rule:evenodd;fill:rgb(99.998474%,99.998474%,99.998474%);fill-opacity:1;" d="M 102.128906 14.679688 L 106.820312 13.683594 L 106.289062 11.179688 Z M 102.128906 14.679688 "/>
<path style=" stroke:none;fill-rule:evenodd;fill:rgb(99.998474%,99.998474%,99.998474%);fill-opacity:1;" d="M 102.128906 14.679688 L 105.339844 11.113281 L 107.242188 12.828125 Z M 102.128906 14.679688 "/>
<path style=" stroke:none;fill-rule:evenodd;fill:rgb(99.998474%,99.998474%,99.998474%);fill-opacity:1;" d="M 102.71875 9.070312 L 105.117188 13.226562 L 107.332031 11.945312 Z M 102.71875 9.070312 "/>
<path style=" stroke:none;fill-rule:evenodd;fill:rgb(99.998474%,99.998474%,99.998474%);fill-opacity:1;" d="M 102.71875 9.070312 L 107.101562 11.023438 L 106.058594 13.359375 Z M 102.71875 9.070312 "/>
<path style=" stroke:none;fill-rule:evenodd;fill:rgb(99.998474%,99.998474%,99.998474%);fill-opacity:1;" d="M 117.171875 14.386719 L 112.785156 16.339844 L 113.828125 18.679688 Z M 117.171875 14.386719 "/>
<path style=" stroke:none;fill-rule:evenodd;fill:rgb(99.998474%,99.998474%,99.998474%);fill-opacity:1;" d="M 117.171875 14.386719 L 114.769531 18.542969 L 112.554688 17.265625 Z M 117.171875 14.386719 "/>
<path style=" stroke:none;fill-rule:evenodd;fill:rgb(99.998474%,99.998474%,99.998474%);fill-opacity:1;" d="M 117.761719 20 L 114.550781 16.433594 L 112.648438 18.144531 Z M 117.761719 20 "/>
<path style=" stroke:none;fill-rule:evenodd;fill:rgb(99.998474%,99.998474%,99.998474%);fill-opacity:1;" d="M 117.761719 20 L 113.066406 19.003906 L 113.597656 16.496094 Z M 117.761719 20 "/>
<path style=" stroke:none;fill-rule:evenodd;fill:rgb(99.998474%,99.998474%,99.998474%);fill-opacity:1;" d="M 112.605469 22.292969 L 115.007812 18.136719 L 112.789062 16.859375 Z M 112.605469 22.292969 "/>
<path style=" stroke:none;fill-rule:evenodd;fill:rgb(99.998474%,99.998474%,99.998474%);fill-opacity:1;" d="M 112.605469 22.292969 L 112.105469 17.519531 L 114.648438 17.253906 Z M 112.605469 22.292969 "/>
<path style=" stroke:none;fill-rule:evenodd;fill:rgb(99.998474%,99.998474%,99.998474%);fill-opacity:1;" d="M 108.832031 18.101562 L 113.527344 19.097656 L 114.058594 16.597656 Z M 108.832031 18.101562 "/>
<path style=" stroke:none;fill-rule:evenodd;fill:rgb(99.998474%,99.998474%,99.998474%);fill-opacity:1;" d="M 108.832031 18.101562 L 113.214844 16.148438 L 114.257812 18.488281 Z M 108.832031 18.101562 "/>
<path style=" stroke:none;fill-rule:evenodd;fill:rgb(99.998474%,99.998474%,99.998474%);fill-opacity:1;" d="M 111.652344 13.214844 L 112.152344 17.988281 L 114.699219 17.722656 Z M 111.652344 13.214844 "/>
<path style=" stroke:none;fill-rule:evenodd;fill:rgb(99.998474%,99.998474%,99.998474%);fill-opacity:1;" d="M 111.652344 13.214844 L 114.863281 16.78125 L 112.960938 18.496094 Z M 111.652344 13.214844 "/>
<path style=" stroke:none;fill-rule:evenodd;fill:rgb(99.998474%,99.998474%,99.998474%);fill-opacity:1;" d="M 122.695312 23.953125 L 117.894531 23.953125 L 117.894531 26.511719 Z M 122.695312 23.953125 "/>
<path style=" stroke:none;fill-rule:evenodd;fill:rgb(99.998474%,99.998474%,99.998474%);fill-opacity:1;" d="M 122.695312 23.953125 L 118.808594 26.773438 L 117.304688 24.703125 Z M 122.695312 23.953125 "/>
<path style=" stroke:none;fill-rule:evenodd;fill:rgb(99.998474%,99.998474%,99.998474%);fill-opacity:1;" d="M 120.949219 29.320312 L 119.464844 24.753906 L 117.03125 25.542969 Z M 120.949219 29.320312 "/>
<path style=" stroke:none;fill-rule:evenodd;fill:rgb(99.998474%,99.998474%,99.998474%);fill-opacity:1;" d="M 120.949219 29.320312 L 117.066406 26.496094 L 118.570312 24.425781 Z M 120.949219 29.320312 "/>
<path style=" stroke:none;fill-rule:evenodd;fill:rgb(99.998474%,99.998474%,99.998474%);fill-opacity:1;" d="M 115.308594 29.320312 L 119.191406 26.496094 L 117.683594 24.425781 Z M 115.308594 29.320312 "/>
<path style=" stroke:none;fill-rule:evenodd;fill:rgb(99.998474%,99.998474%,99.998474%);fill-opacity:1;" d="M 115.308594 29.320312 L 116.789062 24.753906 L 119.226562 25.542969 Z M 115.308594 29.320312 "/>
<path style=" stroke:none;fill-rule:evenodd;fill:rgb(99.998474%,99.998474%,99.998474%);fill-opacity:1;" d="M 113.5625 23.953125 L 117.445312 26.773438 L 118.949219 24.703125 Z M 113.5625 23.953125 "/>
<path style=" stroke:none;fill-rule:evenodd;fill:rgb(99.998474%,99.998474%,99.998474%);fill-opacity:1;" d="M 113.5625 23.953125 L 118.363281 23.953125 L 118.363281 26.511719 Z M 113.5625 23.953125 "/>
<path style=" stroke:none;fill-rule:evenodd;fill:rgb(99.998474%,99.998474%,99.998474%);fill-opacity:1;" d="M 118.128906 20.636719 L 116.644531 25.199219 L 119.082031 25.992188 Z M 118.128906 20.636719 "/>
<path style=" stroke:none;fill-rule:evenodd;fill:rgb(99.998474%,99.998474%,99.998474%);fill-opacity:1;" d="M 118.128906 20.636719 L 119.613281 25.199219 L 117.175781 25.992188 Z M 118.128906 20.636719 "/>
<path style=" stroke:none;fill-rule:evenodd;fill:rgb(99.998474%,99.998474%,99.998474%);fill-opacity:1;" d="M 123.847656 34.9375 L 119.460938 32.984375 L 118.421875 35.324219 Z M 123.847656 34.9375 "/>
<path style=" stroke:none;fill-rule:evenodd;fill:rgb(99.998474%,99.998474%,99.998474%);fill-opacity:1;" d="M 123.847656 34.9375 L 119.152344 35.933594 L 118.621094 33.429688 Z M 123.847656 34.9375 "/>
<path style=" stroke:none;fill-rule:evenodd;fill:rgb(99.998474%,99.998474%,99.998474%);fill-opacity:1;" d="M 120.070312 39.128906 L 120.574219 34.355469 L 118.027344 34.089844 Z M 120.070312 39.128906 "/>
<path style=" stroke:none;fill-rule:evenodd;fill:rgb(99.998474%,99.998474%,99.998474%);fill-opacity:1;" d="M 120.070312 39.128906 L 117.671875 34.972656 L 119.890625 33.691406 Z M 120.070312 39.128906 "/>
<path style=" stroke:none;fill-rule:evenodd;fill:rgb(99.998474%,99.998474%,99.998474%);fill-opacity:1;" d="M 114.917969 36.835938 L 119.613281 35.835938 L 119.082031 33.332031 Z M 114.917969 36.835938 "/>
<path style=" stroke:none;fill-rule:evenodd;fill:rgb(99.998474%,99.998474%,99.998474%);fill-opacity:1;" d="M 114.917969 36.835938 L 118.128906 33.269531 L 120.03125 34.980469 Z M 114.917969 36.835938 "/>
<path style=" stroke:none;fill-rule:evenodd;fill:rgb(99.998474%,99.998474%,99.998474%);fill-opacity:1;" d="M 115.507812 31.222656 L 117.90625 35.378906 L 120.125 34.101562 Z M 115.507812 31.222656 "/>
<path style=" stroke:none;fill-rule:evenodd;fill:rgb(99.998474%,99.998474%,99.998474%);fill-opacity:1;" d="M 115.507812 31.222656 L 119.890625 33.175781 L 118.851562 35.511719 Z M 115.507812 31.222656 "/>
<path style=" stroke:none;fill-rule:evenodd;fill:rgb(99.998474%,99.998474%,99.998474%);fill-opacity:1;" d="M 121.027344 30.050781 L 117.816406 33.617188 L 119.71875 35.328125 Z M 121.027344 30.050781 "/>
<path style=" stroke:none;fill-rule:evenodd;fill:rgb(99.998474%,99.998474%,99.998474%);fill-opacity:1;" d="M 121.027344 30.050781 L 120.523438 34.824219 L 117.980469 34.554688 Z M 121.027344 30.050781 "/>
<path style=" stroke:none;fill-rule:evenodd;fill:rgb(99.998474%,99.998474%,99.998474%);fill-opacity:1;" d="M 120.433594 45.441406 L 117.222656 41.871094 L 115.320312 43.585938 Z M 120.433594 45.441406 "/>
<path style=" stroke:none;fill-rule:evenodd;fill:rgb(99.998474%,99.998474%,99.998474%);fill-opacity:1;" d="M 120.433594 45.441406 L 115.738281 44.441406 L 116.273438 41.9375 Z M 120.433594 45.441406 "/>
<path style=" stroke:none;fill-rule:evenodd;fill:rgb(99.998474%,99.998474%,99.998474%);fill-opacity:1;" d="M 115.28125 47.734375 L 117.679688 43.578125 L 115.464844 42.296875 Z M 115.28125 47.734375 "/>
<path style=" stroke:none;fill-rule:evenodd;fill:rgb(99.998474%,99.998474%,99.998474%);fill-opacity:1;" d="M 115.28125 47.734375 L 114.777344 42.960938 L 117.324219 42.695312 Z M 115.28125 47.734375 "/>
<path style=" stroke:none;fill-rule:evenodd;fill:rgb(99.998474%,99.998474%,99.998474%);fill-opacity:1;" d="M 111.503906 43.542969 L 116.199219 44.539062 L 116.730469 42.035156 Z M 111.503906 43.542969 "/>
<path style=" stroke:none;fill-rule:evenodd;fill:rgb(99.998474%,99.998474%,99.998474%);fill-opacity:1;" d="M 111.503906 43.542969 L 115.890625 41.589844 L 116.929688 43.929688 Z M 111.503906 43.542969 "/>
<path style=" stroke:none;fill-rule:evenodd;fill:rgb(99.998474%,99.998474%,99.998474%);fill-opacity:1;" d="M 114.324219 38.65625 L 114.828125 43.429688 L 117.371094 43.160156 Z M 114.324219 38.65625 "/>
<path style=" stroke:none;fill-rule:evenodd;fill:rgb(99.998474%,99.998474%,99.998474%);fill-opacity:1;" d="M 114.324219 38.65625 L 117.539062 42.222656 L 115.636719 43.933594 Z M 114.324219 38.65625 "/>
<path style=" stroke:none;fill-rule:evenodd;fill:rgb(99.998474%,99.998474%,99.998474%);fill-opacity:1;" d="M 119.84375 39.828125 L 115.460938 41.78125 L 116.5 44.117188 Z M 119.84375 39.828125 "/>
<path style=" stroke:none;fill-rule:evenodd;fill:rgb(99.998474%,99.998474%,99.998474%);fill-opacity:1;" d="M 119.84375 39.828125 L 117.445312 43.984375 L 115.226562 42.707031 Z M 119.84375 39.828125 "/>
<path style=" stroke:none;fill-rule:evenodd;fill:rgb(99.998474%,99.998474%,99.998474%);fill-opacity:1;" d="M 113.042969 53.648438 L 111.5625 49.082031 L 109.128906 49.875 Z M 113.042969 53.648438 "/>
<path style=" stroke:none;fill-rule:evenodd;fill:rgb(99.998474%,99.998474%,99.998474%);fill-opacity:1;" d="M 113.042969 53.648438 L 109.160156 50.824219 L 110.667969 48.753906 Z M 113.042969 53.648438 "/>
<path style=" stroke:none;fill-rule:evenodd;fill:rgb(99.998474%,99.998474%,99.998474%);fill-opacity:1;" d="M 107.402344 53.648438 L 111.285156 50.824219 L 109.78125 48.753906 Z M 107.402344 53.648438 "/>
<path style=" stroke:none;fill-rule:evenodd;fill:rgb(99.998474%,99.998474%,99.998474%);fill-opacity:1;" d="M 107.402344 53.648438 L 108.886719 49.082031 L 111.320312 49.875 Z M 107.402344 53.648438 "/>
<path style=" stroke:none;fill-rule:evenodd;fill:rgb(99.998474%,99.998474%,99.998474%);fill-opacity:1;" d="M 105.660156 48.28125 L 109.542969 51.101562 L 111.046875 49.03125 Z M 105.660156 48.28125 "/>
<path style=" stroke:none;fill-rule:evenodd;fill:rgb(99.998474%,99.998474%,99.998474%);fill-opacity:1;" d="M 105.660156 48.28125 L 110.457031 48.28125 L 110.457031 50.839844 Z M 105.660156 48.28125 "/>
<path style=" stroke:none;fill-rule:evenodd;fill:rgb(99.998474%,99.998474%,99.998474%);fill-opacity:1;" d="M 110.222656 44.964844 L 108.742188 49.527344 L 111.175781 50.320312 Z M 110.222656 44.964844 "/>
<path style=" stroke:none;fill-rule:evenodd;fill:rgb(99.998474%,99.998474%,99.998474%);fill-opacity:1;" d="M 110.222656 44.964844 L 111.707031 49.527344 L 109.273438 50.320312 Z M 110.222656 44.964844 "/>
<path style=" stroke:none;fill-rule:evenodd;fill:rgb(99.998474%,99.998474%,99.998474%);fill-opacity:1;" d="M 114.789062 48.28125 L 109.988281 48.28125 L 109.988281 50.839844 Z M 114.789062 48.28125 "/>
<path style=" stroke:none;fill-rule:evenodd;fill:rgb(99.998474%,99.998474%,99.998474%);fill-opacity:1;" d="M 114.789062 48.28125 L 110.90625 51.101562 L 109.402344 49.03125 Z M 114.789062 48.28125 "/>
<path style=" stroke:none;fill-rule:evenodd;fill:rgb(99.998474%,99.998474%,99.998474%);fill-opacity:1;" d="M 102.957031 58.140625 L 103.457031 53.367188 L 100.910156 53.097656 Z M 102.957031 58.140625 "/>
<path style=" stroke:none;fill-rule:evenodd;fill:rgb(99.998474%,99.998474%,99.998474%);fill-opacity:1;" d="M 102.957031 58.140625 L 100.554688 53.980469 L 102.773438 52.703125 Z M 102.957031 58.140625 "/>
<path style=" stroke:none;fill-rule:evenodd;fill:rgb(99.998474%,99.998474%,99.998474%);fill-opacity:1;" d="M 97.800781 55.84375 L 102.496094 54.847656 L 101.964844 52.34375 Z M 97.800781 55.84375 "/>
<path style=" stroke:none;fill-rule:evenodd;fill:rgb(99.998474%,99.998474%,99.998474%);fill-opacity:1;" d="M 97.800781 55.84375 L 101.011719 52.277344 L 102.914062 53.992188 Z M 97.800781 55.84375 "/>
<path style=" stroke:none;fill-rule:evenodd;fill:rgb(99.998474%,99.998474%,99.998474%);fill-opacity:1;" d="M 98.390625 50.230469 L 100.789062 54.390625 L 103.007812 53.109375 Z M 98.390625 50.230469 "/>
<path style=" stroke:none;fill-rule:evenodd;fill:rgb(99.998474%,99.998474%,99.998474%);fill-opacity:1;" d="M 98.390625 50.230469 L 102.773438 52.183594 L 101.734375 54.523438 Z M 98.390625 50.230469 "/>
<path style=" stroke:none;fill-rule:evenodd;fill:rgb(99.998474%,99.998474%,99.998474%);fill-opacity:1;" d="M 103.910156 49.058594 L 100.699219 52.628906 L 102.601562 54.339844 Z M 103.910156 49.058594 "/>
<path style=" stroke:none;fill-rule:evenodd;fill:rgb(99.998474%,99.998474%,99.998474%);fill-opacity:1;" d="M 103.910156 49.058594 L 103.410156 53.832031 L 100.863281 53.566406 Z M 103.910156 49.058594 "/>
<path style=" stroke:none;fill-rule:evenodd;fill:rgb(99.998474%,99.998474%,99.998474%);fill-opacity:1;" d="M 106.730469 53.945312 L 102.347656 51.992188 L 101.304688 54.332031 Z M 106.730469 53.945312 "/>
<path style=" stroke:none;fill-rule:evenodd;fill:rgb(99.998474%,99.998474%,99.998474%);fill-opacity:1;" d="M 106.730469 53.945312 L 102.035156 54.945312 L 101.503906 52.441406 Z M 106.730469 53.945312 "/>
<path style=" stroke:none;fill-rule:evenodd;fill:rgb(99.998474%,99.998474%,99.998474%);fill-opacity:1;" d="M 91.910156 58.140625 L 94.3125 53.980469 L 92.09375 52.703125 Z M 91.910156 58.140625 "/>
<path style=" stroke:none;fill-rule:evenodd;fill:rgb(99.998474%,99.998474%,99.998474%);fill-opacity:1;" d="M 91.910156 58.140625 L 91.410156 53.367188 L 93.957031 53.097656 Z M 91.910156 58.140625 "/>
<path style=" stroke:none;fill-rule:evenodd;fill:rgb(99.998474%,99.998474%,99.998474%);fill-opacity:1;" d="M 88.136719 53.945312 L 92.832031 54.945312 L 93.363281 52.441406 Z M 88.136719 53.945312 "/>
<path style=" stroke:none;fill-rule:evenodd;fill:rgb(99.998474%,99.998474%,99.998474%);fill-opacity:1;" d="M 88.136719 53.945312 L 92.519531 51.992188 L 93.5625 54.332031 Z M 88.136719 53.945312 "/>
<path style=" stroke:none;fill-rule:evenodd;fill:rgb(99.998474%,99.998474%,99.998474%);fill-opacity:1;" d="M 90.957031 49.058594 L 91.457031 53.832031 L 94.003906 53.566406 Z M 90.957031 49.058594 "/>
<path style=" stroke:none;fill-rule:evenodd;fill:rgb(99.998474%,99.998474%,99.998474%);fill-opacity:1;" d="M 90.957031 49.058594 L 94.167969 52.628906 L 92.265625 54.339844 Z M 90.957031 49.058594 "/>
<path style=" stroke:none;fill-rule:evenodd;fill:rgb(99.998474%,99.998474%,99.998474%);fill-opacity:1;" d="M 96.476562 50.230469 L 92.089844 52.183594 L 93.132812 54.523438 Z M 96.476562 50.230469 "/>
<path style=" stroke:none;fill-rule:evenodd;fill:rgb(99.998474%,99.998474%,99.998474%);fill-opacity:1;" d="M 96.476562 50.230469 L 94.074219 54.390625 L 91.859375 53.109375 Z M 96.476562 50.230469 "/>
<path style=" stroke:none;fill-rule:evenodd;fill:rgb(99.998474%,99.998474%,99.998474%);fill-opacity:1;" d="M 97.066406 55.84375 L 93.855469 52.277344 L 91.953125 53.992188 Z M 97.066406 55.84375 "/>
<path style=" stroke:none;fill-rule:evenodd;fill:rgb(99.998474%,99.998474%,99.998474%);fill-opacity:1;" d="M 97.066406 55.84375 L 92.371094 54.847656 L 92.902344 52.34375 Z M 97.066406 55.84375 "/>
<path style=" stroke:none;fill-rule:evenodd;fill:rgb(99.998474%,99.998474%,99.998474%);fill-opacity:1;" d="M 81.820312 53.648438 L 85.707031 50.824219 L 84.199219 48.753906 Z M 81.820312 53.648438 "/>
<path style=" stroke:none;fill-rule:evenodd;fill:rgb(99.998474%,99.998474%,99.998474%);fill-opacity:1;" d="M 81.820312 53.648438 L 83.304688 49.082031 L 85.738281 49.875 Z M 81.820312 53.648438 "/>
<path style=" stroke:none;fill-rule:evenodd;fill:rgb(99.998474%,99.998474%,99.998474%);fill-opacity:1;" d="M 80.078125 48.28125 L 83.960938 51.101562 L 85.464844 49.03125 Z M 80.078125 48.28125 "/>
<path style=" stroke:none;fill-rule:evenodd;fill:rgb(99.998474%,99.998474%,99.998474%);fill-opacity:1;" d="M 80.078125 48.28125 L 84.878906 48.28125 L 84.878906 50.839844 Z M 80.078125 48.28125 "/>
<path style=" stroke:none;fill-rule:evenodd;fill:rgb(99.998474%,99.998474%,99.998474%);fill-opacity:1;" d="M 84.644531 44.964844 L 83.160156 49.527344 L 85.59375 50.320312 Z M 84.644531 44.964844 "/>
<path style=" stroke:none;fill-rule:evenodd;fill:rgb(99.998474%,99.998474%,99.998474%);fill-opacity:1;" d="M 84.644531 44.964844 L 86.125 49.527344 L 83.691406 50.320312 Z M 84.644531 44.964844 "/>
<path style=" stroke:none;fill-rule:evenodd;fill:rgb(99.998474%,99.998474%,99.998474%);fill-opacity:1;" d="M 89.207031 48.28125 L 84.410156 48.28125 L 84.410156 50.839844 Z M 89.207031 48.28125 "/>
<path style=" stroke:none;fill-rule:evenodd;fill:rgb(99.998474%,99.998474%,99.998474%);fill-opacity:1;" d="M 89.207031 48.28125 L 85.324219 51.101562 L 83.820312 49.03125 Z M 89.207031 48.28125 "/>
<path style=" stroke:none;fill-rule:evenodd;fill:rgb(99.998474%,99.998474%,99.998474%);fill-opacity:1;" d="M 87.464844 53.648438 L 85.980469 49.082031 L 83.546875 49.875 Z M 87.464844 53.648438 "/>
<path style=" stroke:none;fill-rule:evenodd;fill:rgb(99.998474%,99.998474%,99.998474%);fill-opacity:1;" d="M 87.464844 53.648438 L 83.582031 50.824219 L 85.085938 48.753906 Z M 87.464844 53.648438 "/>
<path style=" stroke:none;fill-rule:evenodd;fill:rgb(99.998474%,99.998474%,99.998474%);fill-opacity:1;" d="M 74.429688 45.441406 L 79.128906 44.441406 L 78.59375 41.9375 Z M 74.429688 45.441406 "/>
<path style=" stroke:none;fill-rule:evenodd;fill:rgb(99.998474%,99.998474%,99.998474%);fill-opacity:1;" d="M 74.429688 45.441406 L 77.644531 41.871094 L 79.546875 43.585938 Z M 74.429688 45.441406 "/>
<path style=" stroke:none;fill-rule:evenodd;fill:rgb(99.998474%,99.998474%,99.998474%);fill-opacity:1;" d="M 75.023438 39.828125 L 77.421875 43.984375 L 79.636719 42.707031 Z M 75.023438 39.828125 "/>
<path style=" stroke:none;fill-rule:evenodd;fill:rgb(99.998474%,99.998474%,99.998474%);fill-opacity:1;" d="M 75.023438 39.828125 L 79.40625 41.78125 L 78.367188 44.117188 Z M 75.023438 39.828125 "/>
<path style=" stroke:none;fill-rule:evenodd;fill:rgb(99.998474%,99.998474%,99.998474%);fill-opacity:1;" d="M 80.539062 38.65625 L 77.328125 42.222656 L 79.230469 43.933594 Z M 80.539062 38.65625 "/>
<path style=" stroke:none;fill-rule:evenodd;fill:rgb(99.998474%,99.998474%,99.998474%);fill-opacity:1;" d="M 80.539062 38.65625 L 80.039062 43.429688 L 77.492188 43.160156 Z M 80.539062 38.65625 "/>
<path style=" stroke:none;fill-rule:evenodd;fill:rgb(99.998474%,99.998474%,99.998474%);fill-opacity:1;" d="M 83.363281 43.542969 L 78.976562 41.589844 L 77.9375 43.929688 Z M 83.363281 43.542969 "/>
<path style=" stroke:none;fill-rule:evenodd;fill:rgb(99.998474%,99.998474%,99.998474%);fill-opacity:1;" d="M 83.363281 43.542969 L 78.667969 44.539062 L 78.136719 42.035156 Z M 83.363281 43.542969 "/>
<path style=" stroke:none;fill-rule:evenodd;fill:rgb(99.998474%,99.998474%,99.998474%);fill-opacity:1;" d="M 79.585938 47.734375 L 80.089844 42.960938 L 77.542969 42.695312 Z M 79.585938 47.734375 "/>
<path style=" stroke:none;fill-rule:evenodd;fill:rgb(99.998474%,99.998474%,99.998474%);fill-opacity:1;" d="M 79.585938 47.734375 L 77.1875 43.578125 L 79.402344 42.296875 Z M 79.585938 47.734375 "/>
<path style=" stroke:none;fill-rule:evenodd;fill:rgb(99.998474%,99.998474%,99.998474%);fill-opacity:1;" d="M 71.019531 34.9375 L 75.714844 35.933594 L 76.246094 33.429688 Z M 71.019531 34.9375 "/>
<path style=" stroke:none;fill-rule:evenodd;fill:rgb(99.998474%,99.998474%,99.998474%);fill-opacity:1;" d="M 71.019531 34.9375 L 75.402344 32.984375 L 76.445312 35.324219 Z M 71.019531 34.9375 "/>
<path style=" stroke:none;fill-rule:evenodd;fill:rgb(99.998474%,99.998474%,99.998474%);fill-opacity:1;" d="M 73.839844 30.050781 L 74.339844 34.824219 L 76.886719 34.554688 Z M 73.839844 30.050781 "/>
<path style=" stroke:none;fill-rule:evenodd;fill:rgb(99.998474%,99.998474%,99.998474%);fill-opacity:1;" d="M 73.839844 30.050781 L 77.050781 33.617188 L 75.148438 35.328125 Z M 73.839844 30.050781 "/>
<path style=" stroke:none;fill-rule:evenodd;fill:rgb(99.998474%,99.998474%,99.998474%);fill-opacity:1;" d="M 79.359375 31.222656 L 74.976562 33.175781 L 76.015625 35.511719 Z M 79.359375 31.222656 "/>
<path style=" stroke:none;fill-rule:evenodd;fill:rgb(99.998474%,99.998474%,99.998474%);fill-opacity:1;" d="M 79.359375 31.222656 L 76.960938 35.378906 L 74.742188 34.101562 Z M 79.359375 31.222656 "/>
<path style=" stroke:none;fill-rule:evenodd;fill:rgb(99.998474%,99.998474%,99.998474%);fill-opacity:1;" d="M 79.949219 36.835938 L 76.738281 33.269531 L 74.835938 34.980469 Z M 79.949219 36.835938 "/>
<path style=" stroke:none;fill-rule:evenodd;fill:rgb(99.998474%,99.998474%,99.998474%);fill-opacity:1;" d="M 79.949219 36.835938 L 75.253906 35.835938 L 75.785156 33.332031 Z M 79.949219 36.835938 "/>
<path style=" stroke:none;fill-rule:evenodd;fill:rgb(99.998474%,99.998474%,99.998474%);fill-opacity:1;" d="M 74.792969 39.128906 L 77.195312 34.972656 L 74.976562 33.691406 Z M 74.792969 39.128906 "/>
<path style=" stroke:none;fill-rule:evenodd;fill:rgb(99.998474%,99.998474%,99.998474%);fill-opacity:1;" d="M 74.792969 39.128906 L 74.292969 34.355469 L 76.839844 34.089844 Z M 74.792969 39.128906 "/>
<path style=" stroke:none;fill-rule:evenodd;fill:rgb(99.998474%,99.998474%,99.998474%);fill-opacity:1;" d="M 72.171875 23.953125 L 76.054688 26.773438 L 77.5625 24.703125 Z M 72.171875 23.953125 "/>
<path style=" stroke:none;fill-rule:evenodd;fill:rgb(99.998474%,99.998474%,99.998474%);fill-opacity:1;" d="M 72.171875 23.953125 L 76.972656 23.953125 L 76.972656 26.511719 Z M 72.171875 23.953125 "/>
<path style=" stroke:none;fill-rule:evenodd;fill:rgb(99.998474%,99.998474%,99.998474%);fill-opacity:1;" d="M 76.738281 20.636719 L 75.253906 25.199219 L 77.691406 25.992188 Z M 76.738281 20.636719 "/>
<path style=" stroke:none;fill-rule:evenodd;fill:rgb(99.998474%,99.998474%,99.998474%);fill-opacity:1;" d="M 76.738281 20.636719 L 78.222656 25.199219 L 75.785156 25.992188 Z M 76.738281 20.636719 "/>
<path style=" stroke:none;fill-rule:evenodd;fill:rgb(99.998474%,99.998474%,99.998474%);fill-opacity:1;" d="M 81.304688 23.953125 L 76.503906 23.953125 L 76.503906 26.511719 Z M 81.304688 23.953125 "/>
<path style=" stroke:none;fill-rule:evenodd;fill:rgb(99.998474%,99.998474%,99.998474%);fill-opacity:1;" d="M 81.304688 23.953125 L 77.417969 26.773438 L 75.914062 24.703125 Z M 81.304688 23.953125 "/>
<path style=" stroke:none;fill-rule:evenodd;fill:rgb(99.998474%,99.998474%,99.998474%);fill-opacity:1;" d="M 79.558594 29.320312 L 78.074219 24.753906 L 75.640625 25.542969 Z M 79.558594 29.320312 "/>
<path style=" stroke:none;fill-rule:evenodd;fill:rgb(99.998474%,99.998474%,99.998474%);fill-opacity:1;" d="M 79.558594 29.320312 L 75.675781 26.496094 L 77.179688 24.425781 Z M 79.558594 29.320312 "/>
<path style=" stroke:none;fill-rule:evenodd;fill:rgb(99.998474%,99.998474%,99.998474%);fill-opacity:1;" d="M 73.917969 29.320312 L 77.800781 26.496094 L 76.296875 24.425781 Z M 73.917969 29.320312 "/>
<path style=" stroke:none;fill-rule:evenodd;fill:rgb(99.998474%,99.998474%,99.998474%);fill-opacity:1;" d="M 73.917969 29.320312 L 75.398438 24.753906 L 77.835938 25.542969 Z M 73.917969 29.320312 "/>
<path style=" stroke:none;fill-rule:evenodd;fill:rgb(99.998474%,99.998474%,99.998474%);fill-opacity:1;" d="M 77.695312 14.386719 L 80.097656 18.542969 L 82.3125 17.265625 Z M 77.695312 14.386719 "/>
<path style=" stroke:none;fill-rule:evenodd;fill:rgb(99.998474%,99.998474%,99.998474%);fill-opacity:1;" d="M 77.695312 14.386719 L 82.082031 16.339844 L 81.039062 18.679688 Z M 77.695312 14.386719 "/>
<path style=" stroke:none;fill-rule:evenodd;fill:rgb(99.998474%,99.998474%,99.998474%);fill-opacity:1;" d="M 83.214844 13.214844 L 80.003906 16.78125 L 81.90625 18.496094 Z M 83.214844 13.214844 "/>
<path style=" stroke:none;fill-rule:evenodd;fill:rgb(99.998474%,99.998474%,99.998474%);fill-opacity:1;" d="M 83.214844 13.214844 L 82.714844 17.988281 L 80.167969 17.722656 Z M 83.214844 13.214844 "/>
<path style=" stroke:none;fill-rule:evenodd;fill:rgb(99.998474%,99.998474%,99.998474%);fill-opacity:1;" d="M 86.035156 18.101562 L 81.652344 16.148438 L 80.609375 18.488281 Z M 86.035156 18.101562 "/>
<path style=" stroke:none;fill-rule:evenodd;fill:rgb(99.998474%,99.998474%,99.998474%);fill-opacity:1;" d="M 86.035156 18.101562 L 81.339844 19.097656 L 80.808594 16.597656 Z M 86.035156 18.101562 "/>
<path style=" stroke:none;fill-rule:evenodd;fill:rgb(99.998474%,99.998474%,99.998474%);fill-opacity:1;" d="M 82.261719 22.292969 L 82.761719 17.519531 L 80.214844 17.253906 Z M 82.261719 22.292969 "/>
<path style=" stroke:none;fill-rule:evenodd;fill:rgb(99.998474%,99.998474%,99.998474%);fill-opacity:1;" d="M 82.261719 22.292969 L 79.859375 18.136719 L 82.078125 16.859375 Z M 82.261719 22.292969 "/>
<path style=" stroke:none;fill-rule:evenodd;fill:rgb(99.998474%,99.998474%,99.998474%);fill-opacity:1;" d="M 77.105469 20 L 81.800781 19.003906 L 81.269531 16.496094 Z M 77.105469 20 "/>
<path style=" stroke:none;fill-rule:evenodd;fill:rgb(99.998474%,99.998474%,99.998474%);fill-opacity:1;" d="M 77.105469 20 L 80.316406 16.433594 L 82.21875 18.144531 Z M 77.105469 20 "/>
<path style=" stroke:none;fill-rule:evenodd;fill:rgb(99.998474%,99.998474%,99.998474%);fill-opacity:1;" d="M 86.628906 7.894531 L 87.132812 12.667969 L 89.679688 12.402344 Z M 86.628906 7.894531 "/>
<path style=" stroke:none;fill-rule:evenodd;fill:rgb(99.998474%,99.998474%,99.998474%);fill-opacity:1;" d="M 86.628906 7.894531 L 89.84375 11.464844 L 87.941406 13.175781 Z M 86.628906 7.894531 "/>
<path style=" stroke:none;fill-rule:evenodd;fill:rgb(99.998474%,99.998474%,99.998474%);fill-opacity:1;" d="M 92.148438 9.070312 L 87.765625 11.023438 L 88.804688 13.359375 Z M 92.148438 9.070312 "/>
<path style=" stroke:none;fill-rule:evenodd;fill:rgb(99.998474%,99.998474%,99.998474%);fill-opacity:1;" d="M 92.148438 9.070312 L 89.75 13.226562 L 87.535156 11.945312 Z M 92.148438 9.070312 "/>
<path style=" stroke:none;fill-rule:evenodd;fill:rgb(99.998474%,99.998474%,99.998474%);fill-opacity:1;" d="M 92.738281 14.679688 L 89.527344 11.113281 L 87.625 12.828125 Z M 92.738281 14.679688 "/>
<path style=" stroke:none;fill-rule:evenodd;fill:rgb(99.998474%,99.998474%,99.998474%);fill-opacity:1;" d="M 92.738281 14.679688 L 88.042969 13.683594 L 88.578125 11.179688 Z M 92.738281 14.679688 "/>
<path style=" stroke:none;fill-rule:evenodd;fill:rgb(99.998474%,99.998474%,99.998474%);fill-opacity:1;" d="M 87.585938 16.976562 L 89.984375 12.820312 L 87.769531 11.539062 Z M 87.585938 16.976562 "/>
<path style=" stroke:none;fill-rule:evenodd;fill:rgb(99.998474%,99.998474%,99.998474%);fill-opacity:1;" d="M 87.585938 16.976562 L 87.082031 12.203125 L 89.628906 11.933594 Z M 87.585938 16.976562 "/>
<path style=" stroke:none;fill-rule:evenodd;fill:rgb(99.998474%,99.998474%,99.998474%);fill-opacity:1;" d="M 83.808594 12.78125 L 88.503906 13.78125 L 89.035156 11.277344 Z M 83.808594 12.78125 "/>
<path style=" stroke:none;fill-rule:evenodd;fill:rgb(99.998474%,99.998474%,99.998474%);fill-opacity:1;" d="M 83.808594 12.78125 L 88.195312 10.832031 L 89.234375 13.167969 Z M 83.808594 12.78125 "/>
</g>
</svg>
