<?xml version="1.0" encoding="UTF-8"?>
<svg xmlns="http://www.w3.org/2000/svg" xmlns:xlink="http://www.w3.org/1999/xlink" width="128pt" height="85pt" viewBox="0 0 128 85" version="1.1">
<defs>
<clipPath id="clip1">
  <path d="M 0 0 L 127.679688 0 L 127.679688 85 L 0 85 Z M 0 0 "/>
</clipPath>
<clipPath id="clip2">
  <path d="M 0 53 L 127.679688 53 L 127.679688 64 L 0 64 Z M 0 53 "/>
</clipPath>
</defs>
<g id="surface281">
<g clip-path="url(#clip1)" clip-rule="nonzero">
<path style=" stroke:none;fill-rule:evenodd;fill:rgb(0%,16.862488%,49.803162%);fill-opacity:1;" d="M 0 85 L 0 0 L 127.5 0 L 127.5 85 Z M 0 85 "/>
</g>
<g clip-path="url(#clip2)" clip-rule="nonzero">
<path style=" stroke:none;fill-rule:evenodd;fill:rgb(97.645569%,90.979004%,7.843018%);fill-opacity:1;" d="M 0 53.125 L 127.5 53.125 L 127.5 63.75 L 0 63.75 Z M 0 53.125 "/>
</g>
<path style=" stroke:none;fill-rule:evenodd;fill:rgb(99.998474%,99.998474%,99.998474%);fill-opacity:1;" d="M 28.332031 18.890625 L 25.414062 27.871094 L 29.90625 29.332031 Z M 28.332031 18.890625 "/>
<path style=" stroke:none;fill-rule:evenodd;fill:rgb(99.998474%,99.998474%,99.998474%);fill-opacity:1;" d="M 28.332031 18.890625 L 31.25 27.871094 L 26.761719 29.332031 Z M 28.332031 18.890625 "/>
<path style=" stroke:none;fill-rule:evenodd;fill:rgb(99.998474%,99.998474%,99.998474%);fill-opacity:1;" d="M 37.316406 25.414062 L 27.871094 25.414062 L 27.871094 30.136719 Z M 37.316406 25.414062 "/>
<path style=" stroke:none;fill-rule:evenodd;fill:rgb(99.998474%,99.998474%,99.998474%);fill-opacity:1;" d="M 37.316406 25.414062 L 29.675781 30.964844 L 26.898438 27.144531 Z M 37.316406 25.414062 "/>
<path style=" stroke:none;fill-rule:evenodd;fill:rgb(99.998474%,99.998474%,99.998474%);fill-opacity:1;" d="M 19.351562 25.414062 L 26.992188 30.964844 L 29.765625 27.144531 Z M 19.351562 25.414062 "/>
<path style=" stroke:none;fill-rule:evenodd;fill:rgb(99.998474%,99.998474%,99.998474%);fill-opacity:1;" d="M 19.351562 25.414062 L 28.796875 25.414062 L 28.796875 30.136719 Z M 19.351562 25.414062 "/>
<path style=" stroke:none;fill-rule:evenodd;fill:rgb(99.998474%,99.998474%,99.998474%);fill-opacity:1;" d="M 33.882812 35.972656 L 30.964844 26.992188 L 26.476562 28.449219 Z M 33.882812 35.972656 "/>
<path style=" stroke:none;fill-rule:evenodd;fill:rgb(99.998474%,99.998474%,99.998474%);fill-opacity:1;" d="M 33.882812 35.972656 L 26.242188 30.421875 L 29.019531 26.601562 Z M 33.882812 35.972656 "/>
<path style=" stroke:none;fill-rule:evenodd;fill:rgb(99.998474%,99.998474%,99.998474%);fill-opacity:1;" d="M 22.78125 35.972656 L 30.421875 30.421875 L 27.648438 26.601562 Z M 22.78125 35.972656 "/>
<path style=" stroke:none;fill-rule:evenodd;fill:rgb(99.998474%,99.998474%,99.998474%);fill-opacity:1;" d="M 22.78125 35.972656 L 25.699219 26.992188 L 30.191406 28.449219 Z M 22.78125 35.972656 "/>
<path style=" stroke:none;fill-rule:evenodd;fill:rgb(99.998474%,99.998474%,99.998474%);fill-opacity:1;" d="M 14.167969 7.082031 L 11.976562 13.820312 L 15.347656 14.914062 Z M 14.167969 7.082031 "/>
<path style=" stroke:none;fill-rule:evenodd;fill:rgb(99.998474%,99.998474%,99.998474%);fill-opacity:1;" d="M 14.167969 7.082031 L 16.355469 13.820312 L 12.988281 14.914062 Z M 14.167969 7.082031 "/>
<path style=" stroke:none;fill-rule:evenodd;fill:rgb(99.998474%,99.998474%,99.998474%);fill-opacity:1;" d="M 20.902344 11.976562 L 13.820312 11.976562 L 13.820312 15.519531 Z M 20.902344 11.976562 "/>
<path style=" stroke:none;fill-rule:evenodd;fill:rgb(99.998474%,99.998474%,99.998474%);fill-opacity:1;" d="M 20.902344 11.976562 L 15.171875 16.140625 L 13.089844 13.277344 Z M 20.902344 11.976562 "/>
<path style=" stroke:none;fill-rule:evenodd;fill:rgb(99.998474%,99.998474%,99.998474%);fill-opacity:1;" d="M 7.429688 11.976562 L 13.160156 16.140625 L 15.242188 13.277344 Z M 7.429688 11.976562 "/>
<path style=" stroke:none;fill-rule:evenodd;fill:rgb(99.998474%,99.998474%,99.998474%);fill-opacity:1;" d="M 7.429688 11.976562 L 14.511719 11.976562 L 14.511719 15.519531 Z M 7.429688 11.976562 "/>
<path style=" stroke:none;fill-rule:evenodd;fill:rgb(99.998474%,99.998474%,99.998474%);fill-opacity:1;" d="M 18.332031 19.898438 L 16.140625 13.160156 L 12.773438 14.253906 Z M 18.332031 19.898438 "/>
<path style=" stroke:none;fill-rule:evenodd;fill:rgb(99.998474%,99.998474%,99.998474%);fill-opacity:1;" d="M 18.332031 19.898438 L 12.601562 15.734375 L 14.679688 12.867188 Z M 18.332031 19.898438 "/>
<path style=" stroke:none;fill-rule:evenodd;fill:rgb(99.998474%,99.998474%,99.998474%);fill-opacity:1;" d="M 10.003906 19.898438 L 15.734375 15.734375 L 13.652344 12.867188 Z M 10.003906 19.898438 "/>
<path style=" stroke:none;fill-rule:evenodd;fill:rgb(99.998474%,99.998474%,99.998474%);fill-opacity:1;" d="M 10.003906 19.898438 L 12.191406 13.160156 L 15.558594 14.253906 Z M 10.003906 19.898438 "/>
</g>
</svg>
