<?xml version="1.0" encoding="UTF-8"?>
<svg xmlns="http://www.w3.org/2000/svg" xmlns:xlink="http://www.w3.org/1999/xlink" width="128pt" height="85pt" viewBox="0 0 128 85" version="1.1">
<defs>
<clipPath id="clip1">
  <path d="M 0 0 L 127.679688 0 L 127.679688 85 L 0 85 Z M 0 0 "/>
</clipPath>
</defs>
<g id="surface286">
<g clip-path="url(#clip1)" clip-rule="nonzero">
<path style=" stroke:none;fill-rule:evenodd;fill:rgb(99.998474%,99.998474%,99.998474%);fill-opacity:1;" d="M 0 85 L 0 0 L 127.5 0 L 127.5 85 Z M 0 85 "/>
</g>
<path style=" stroke:none;fill-rule:evenodd;fill:rgb(18.431091%,27.842712%,7.058716%);fill-opacity:1;" d="M 61.597656 70.585938 C 61.570312 70.574219 61.566406 70.570312 61.546875 70.550781 L 61.53125 70.535156 C 61.484375 70.492188 61.40625 70.417969 61.304688 70.300781 C 61.117188 70.085938 60.863281 69.773438 60.640625 69.496094 C 60.199219 68.945312 59.835938 68.472656 59.765625 68.382812 L 59.652344 68.238281 L 59.542969 68.382812 C 59.472656 68.472656 59.109375 68.945312 58.667969 69.496094 C 58.445312 69.773438 58.191406 70.085938 58.003906 70.300781 C 57.902344 70.417969 57.824219 70.492188 57.777344 70.535156 L 57.761719 70.550781 C 57.742188 70.570312 57.738281 70.574219 57.722656 70.582031 L 57.703125 70.582031 L 57.417969 70.554688 L 57.554688 70.449219 L 57.683594 70.53125 C 57.675781 70.515625 57.664062 70.488281 57.644531 70.460938 C 57.613281 70.414062 57.566406 70.355469 57.515625 70.300781 C 57.398438 70.171875 57.234375 70.023438 57.105469 69.90625 C 56.816406 69.640625 56.523438 69.398438 56.523438 69.394531 L 56.519531 69.394531 L 58.554688 67.898438 L 57.75 67.523438 L 58.179688 67.039062 L 59.652344 67.671875 L 61.128906 67.039062 L 61.558594 67.523438 L 60.753906 67.898438 L 62.789062 69.394531 C 62.785156 69.398438 62.492188 69.640625 62.203125 69.90625 C 62.074219 70.023438 61.910156 70.171875 61.792969 70.300781 C 61.742188 70.355469 61.695312 70.414062 61.664062 70.460938 C 61.644531 70.488281 61.632812 70.515625 61.628906 70.527344 L 61.753906 70.449219 L 61.890625 70.554688 L 61.609375 70.582031 Z M 65.269531 68.316406 C 63.726562 68.316406 62.671875 67.621094 62.640625 67.601562 C 63.980469 66.964844 65.144531 66.640625 66.09375 66.640625 L 66.109375 66.640625 C 66.910156 66.644531 67.40625 66.886719 67.679688 67.085938 C 67.957031 67.289062 68.078125 67.503906 68.089844 67.527344 C 67.179688 68.050781 66.230469 68.316406 65.269531 68.316406 Z M 54.039062 68.316406 C 53.078125 68.316406 52.132812 68.050781 51.222656 67.527344 L 51.21875 67.527344 L 51.222656 67.527344 C 51.222656 67.527344 51.339844 67.296875 51.628906 67.085938 C 51.902344 66.886719 52.398438 66.644531 53.199219 66.640625 L 53.21875 66.640625 C 54.167969 66.640625 55.328125 66.964844 56.671875 67.601562 C 56.625 67.628906 55.574219 68.316406 54.039062 68.316406 L 54.042969 68.316406 Z M 69.429688 67.394531 C 69.273438 67.394531 69.140625 67.316406 69.097656 67.199219 C 69.054688 67.082031 69.066406 66.9375 69.136719 66.765625 C 69.25 66.476562 69.511719 66.175781 69.84375 66.148438 C 69.851562 66.148438 69.855469 66.148438 69.863281 66.148438 L 69.910156 66.148438 C 69.980469 66.152344 70.054688 66.167969 70.128906 66.199219 C 70.128906 66.199219 70.15625 66.5 70.078125 66.796875 C 70.035156 66.972656 69.96875 67.105469 69.878906 67.207031 C 69.765625 67.328125 69.609375 67.394531 69.429688 67.394531 Z M 49.878906 67.394531 C 49.703125 67.394531 49.542969 67.328125 49.429688 67.203125 C 49.339844 67.105469 49.273438 66.972656 49.230469 66.796875 C 49.15625 66.511719 49.175781 66.226562 49.179688 66.199219 C 49.253906 66.167969 49.328125 66.152344 49.402344 66.148438 L 49.417969 66.148438 C 49.773438 66.148438 50.050781 66.457031 50.171875 66.765625 C 50.242188 66.9375 50.253906 67.082031 50.210938 67.199219 C 50.167969 67.3125 50.035156 67.390625 49.878906 67.390625 Z M 62.109375 66.542969 C 63.71875 63.496094 65.390625 63.164062 66.035156 63.164062 C 66.253906 63.167969 66.398438 63.199219 66.425781 63.207031 L 66.425781 63.214844 C 66.425781 63.214844 66.523438 63.890625 66.050781 64.621094 C 65.609375 65.304688 64.566406 66.191406 62.109375 66.542969 L 62.105469 66.542969 Z M 57.199219 66.546875 C 54.742188 66.195312 53.699219 65.304688 53.257812 64.621094 C 52.785156 63.890625 52.882812 63.214844 52.882812 63.210938 L 52.886719 63.207031 C 52.886719 63.207031 53.039062 63.167969 53.261719 63.164062 C 53.917969 63.164062 55.589844 63.496094 57.203125 66.542969 L 57.203125 66.546875 L 57.199219 66.542969 Z M 67.148438 66.058594 C 66.660156 66.058594 66.109375 66.015625 65.515625 65.9375 C 66.820312 64.675781 68.054688 64.410156 68.863281 64.410156 C 68.925781 64.410156 68.980469 64.410156 69.035156 64.414062 C 69.675781 64.445312 70.105469 64.632812 70.132812 64.648438 C 70.132812 64.664062 70.117188 64.785156 70.050781 64.933594 C 69.976562 65.085938 69.832031 65.3125 69.527344 65.519531 C 69 65.875 68.199219 66.058594 67.152344 66.058594 Z M 52.160156 66.058594 C 51.109375 66.058594 50.308594 65.875 49.78125 65.519531 C 49.480469 65.3125 49.332031 65.085938 49.261719 64.933594 C 49.195312 64.792969 49.179688 64.671875 49.175781 64.648438 C 49.203125 64.636719 49.632812 64.445312 50.277344 64.414062 C 50.332031 64.410156 50.386719 64.410156 50.441406 64.410156 C 51.253906 64.410156 52.488281 64.675781 53.792969 65.9375 C 53.199219 66.015625 52.648438 66.058594 52.160156 66.058594 Z M 72.152344 65.863281 C 71.546875 65.851562 71.121094 65.757812 70.882812 65.574219 C 70.769531 65.492188 70.714844 65.378906 70.734375 65.273438 C 70.757812 65.144531 70.859375 65.015625 71.042969 64.878906 C 71.546875 64.5 72.296875 64.296875 73.265625 64.28125 C 73.328125 64.28125 73.390625 64.28125 73.453125 64.28125 C 73.507812 64.28125 73.5625 64.28125 73.613281 64.28125 C 74.773438 64.308594 75.804688 64.570312 75.816406 64.574219 L 75.816406 64.578125 C 74.867188 65.523438 73.34375 65.863281 72.238281 65.863281 Z M 47.074219 65.863281 C 45.964844 65.863281 44.441406 65.523438 43.492188 64.574219 L 43.496094 64.574219 C 43.503906 64.570312 44.535156 64.308594 45.695312 64.28125 C 45.765625 64.277344 45.832031 64.277344 45.902344 64.277344 C 46.941406 64.277344 47.738281 64.480469 48.265625 64.875 C 48.453125 65.015625 48.554688 65.144531 48.574219 65.269531 C 48.59375 65.378906 48.539062 65.492188 48.425781 65.574219 C 48.1875 65.757812 47.761719 65.851562 47.160156 65.859375 Z M 75.828125 64.019531 C 75.695312 64.019531 75.601562 63.933594 75.574219 63.847656 C 75.539062 63.742188 75.546875 63.621094 75.597656 63.476562 C 75.648438 63.332031 75.734375 63.199219 75.835938 63.101562 C 75.914062 63.023438 76.039062 62.9375 76.191406 62.9375 C 76.265625 62.9375 76.324219 62.949219 76.375 62.972656 C 76.378906 62.988281 76.394531 63.242188 76.335938 63.496094 C 76.300781 63.65625 76.25 63.769531 76.179688 63.855469 C 76.09375 63.957031 75.964844 64.019531 75.828125 64.019531 Z M 43.484375 64.019531 C 43.347656 64.019531 43.21875 63.960938 43.132812 63.855469 C 43.058594 63.769531 43.011719 63.65625 42.976562 63.5 C 42.914062 63.234375 42.933594 62.980469 42.933594 62.976562 C 42.984375 62.949219 43.042969 62.9375 43.105469 62.9375 C 43.269531 62.9375 43.394531 63.023438 43.472656 63.101562 C 43.578125 63.199219 43.660156 63.332031 43.710938 63.476562 C 43.765625 63.621094 43.773438 63.742188 43.738281 63.847656 C 43.710938 63.933594 43.613281 64.019531 43.484375 64.019531 Z M 67.535156 63.832031 C 67.378906 63.832031 67.246094 63.753906 67.203125 63.636719 C 67.160156 63.523438 67.175781 63.378906 67.242188 63.203125 C 67.355469 62.917969 67.617188 62.617188 67.949219 62.589844 C 67.957031 62.589844 67.960938 62.589844 67.96875 62.589844 L 68.015625 62.589844 C 68.085938 62.589844 68.160156 62.609375 68.234375 62.640625 C 68.234375 62.640625 68.261719 62.9375 68.183594 63.238281 C 68.140625 63.410156 68.074219 63.542969 67.984375 63.644531 C 67.871094 63.765625 67.710938 63.832031 67.535156 63.832031 Z M 51.773438 63.832031 C 51.597656 63.832031 51.4375 63.765625 51.324219 63.644531 C 51.234375 63.542969 51.167969 63.410156 51.125 63.238281 C 51.054688 62.949219 51.074219 62.667969 51.074219 62.640625 C 51.148438 62.609375 51.226562 62.589844 51.296875 62.589844 L 51.3125 62.589844 C 51.667969 62.589844 51.949219 62.898438 52.066406 63.203125 C 52.136719 63.378906 52.148438 63.523438 52.105469 63.636719 C 52.066406 63.753906 51.929688 63.832031 51.777344 63.832031 Z M 47.734375 63.667969 C 45.507812 63.589844 44.351562 62.953125 43.769531 62.4375 C 43.445312 62.144531 43.265625 61.855469 43.171875 61.664062 C 43.082031 61.484375 43.046875 61.347656 43.042969 61.320312 L 43.046875 61.316406 C 43.046875 61.316406 43.257812 61.242188 43.597656 61.234375 L 43.648438 61.234375 C 44.398438 61.234375 45.929688 61.550781 47.734375 63.664062 Z M 71.574219 63.664062 C 73.324219 61.613281 74.820312 61.261719 75.558594 61.234375 C 75.578125 61.234375 75.601562 61.234375 75.621094 61.234375 C 75.652344 61.234375 75.683594 61.234375 75.710938 61.234375 C 76.039062 61.242188 76.246094 61.3125 76.269531 61.320312 C 76.269531 61.320312 76.238281 61.464844 76.140625 61.664062 C 76.042969 61.855469 75.863281 62.144531 75.539062 62.4375 C 74.960938 62.953125 73.804688 63.585938 71.574219 63.667969 Z M 50.15625 63.441406 C 48.363281 63.167969 47.347656 62.398438 46.8125 61.800781 C 46.246094 61.171875 46.078125 60.589844 46.070312 60.5625 C 46.074219 60.5625 46.292969 60.503906 46.625 60.496094 C 46.648438 60.496094 46.671875 60.496094 46.699219 60.496094 C 46.722656 60.496094 46.75 60.496094 46.777344 60.496094 C 47.679688 60.515625 49.316406 60.921875 50.15625 63.441406 Z M 69.152344 63.441406 C 69.992188 60.925781 71.632812 60.515625 72.53125 60.496094 C 72.558594 60.496094 72.585938 60.496094 72.609375 60.496094 C 72.636719 60.496094 72.660156 60.496094 72.6875 60.496094 C 73.015625 60.503906 73.234375 60.5625 73.238281 60.5625 C 73.238281 60.566406 73.074219 61.160156 72.5 61.800781 C 71.960938 62.398438 70.945312 63.167969 69.152344 63.441406 Z M 78.363281 62.578125 C 77.363281 62.578125 76.652344 62.382812 76.644531 62.378906 L 76.644531 62.375 C 76.652344 62.367188 77.425781 61.238281 78.917969 60.941406 C 79.308594 60.863281 79.71875 60.824219 80.132812 60.824219 C 80.167969 60.824219 80.199219 60.824219 80.234375 60.824219 C 81.09375 60.835938 81.714844 61.011719 81.71875 61.011719 L 81.722656 61.019531 C 81.722656 61.019531 81.730469 61.085938 81.71875 61.164062 C 81.703125 61.246094 81.667969 61.378906 81.570312 61.523438 C 81.398438 61.785156 80.996094 62.144531 80.054688 62.378906 C 79.523438 62.511719 78.953125 62.582031 78.363281 62.582031 Z M 40.949219 62.578125 C 40.359375 62.578125 39.789062 62.511719 39.253906 62.378906 C 38.316406 62.144531 37.914062 61.785156 37.738281 61.523438 C 37.640625 61.378906 37.605469 61.246094 37.59375 61.164062 C 37.582031 61.085938 37.589844 61.023438 37.589844 61.011719 L 37.59375 61.011719 C 37.59375 61.011719 38.214844 60.835938 39.074219 60.824219 C 39.109375 60.824219 39.144531 60.824219 39.179688 60.824219 C 39.59375 60.824219 40 60.863281 40.390625 60.941406 C 41.882812 61.238281 42.660156 62.367188 42.667969 62.375 L 42.667969 62.378906 L 42.664062 62.378906 C 42.65625 62.378906 41.945312 62.582031 40.949219 62.582031 Z M 74.199219 61.066406 C 74.042969 61.066406 73.914062 60.988281 73.871094 60.871094 C 73.828125 60.753906 73.839844 60.609375 73.90625 60.441406 C 74.019531 60.15625 74.28125 59.851562 74.613281 59.828125 C 74.617188 59.828125 74.625 59.824219 74.632812 59.824219 L 74.675781 59.828125 C 74.75 59.828125 74.824219 59.847656 74.898438 59.878906 C 74.898438 59.878906 74.921875 60.171875 74.847656 60.46875 C 74.804688 60.648438 74.738281 60.785156 74.648438 60.882812 C 74.535156 61.003906 74.378906 61.066406 74.199219 61.066406 Z M 45.113281 61.066406 C 44.933594 61.066406 44.773438 61 44.664062 60.882812 C 44.574219 60.785156 44.507812 60.648438 44.460938 60.46875 C 44.390625 60.183594 44.410156 59.902344 44.410156 59.878906 C 44.488281 59.847656 44.5625 59.828125 44.632812 59.828125 L 44.648438 59.828125 C 45.003906 59.828125 45.285156 60.136719 45.40625 60.441406 C 45.472656 60.609375 45.484375 60.753906 45.441406 60.871094 C 45.394531 60.988281 45.265625 61.066406 45.113281 61.066406 Z M 41.980469 60.636719 C 41.96875 60.632812 41.132812 60.421875 40.285156 59.898438 C 39.5 59.414062 38.539062 58.558594 38.421875 57.230469 L 38.425781 57.226562 C 38.425781 57.226562 38.496094 57.210938 38.605469 57.207031 C 38.621094 57.207031 38.636719 57.207031 38.652344 57.207031 C 38.886719 57.207031 39.367188 57.273438 39.949219 57.714844 C 40.6875 58.277344 41.371094 59.261719 41.980469 60.640625 Z M 77.328125 60.636719 C 77.9375 59.257812 78.621094 58.277344 79.363281 57.714844 C 79.882812 57.316406 80.324219 57.21875 80.601562 57.207031 C 80.617188 57.207031 80.632812 57.207031 80.652344 57.207031 C 80.667969 57.207031 80.6875 57.207031 80.703125 57.207031 C 80.8125 57.210938 80.886719 57.226562 80.886719 57.230469 C 80.769531 58.558594 79.808594 59.414062 79.023438 59.898438 C 78.175781 60.417969 77.34375 60.632812 77.328125 60.636719 Z M 44.027344 60.5625 C 44.019531 60.558594 43.425781 60.324219 42.683594 59.699219 C 41.992188 59.121094 41.019531 58.078125 40.316406 56.394531 C 40.316406 56.394531 40.476562 56.308594 40.726562 56.292969 C 40.738281 56.292969 40.753906 56.292969 40.769531 56.292969 C 40.789062 56.292969 40.8125 56.292969 40.835938 56.292969 C 41.175781 56.304688 41.695312 56.445312 42.273438 57.066406 C 42.933594 57.78125 43.527344 58.957031 44.03125 60.558594 L 44.03125 60.566406 Z M 75.28125 60.558594 C 75.785156 58.957031 76.375 57.78125 77.039062 57.066406 C 77.613281 56.445312 78.136719 56.304688 78.46875 56.292969 C 78.5 56.292969 78.519531 56.292969 78.542969 56.292969 C 78.558594 56.292969 78.570312 56.292969 78.585938 56.292969 C 78.820312 56.308594 78.980469 56.386719 78.996094 56.394531 C 78.289062 58.078125 77.316406 59.121094 76.625 59.703125 C 75.882812 60.324219 75.289062 60.5625 75.285156 60.5625 L 75.28125 60.566406 Z M 80.582031 60.410156 C 80.320312 60.410156 80.152344 60.351562 80.082031 60.234375 C 79.988281 60.089844 80.101562 59.902344 80.136719 59.847656 C 80.320312 59.578125 80.742188 59.304688 81.28125 59.304688 L 81.304688 59.304688 C 81.417969 59.308594 81.535156 59.324219 81.644531 59.351562 C 81.644531 59.355469 81.679688 59.613281 81.566406 59.878906 C 81.496094 60.035156 81.265625 60.410156 80.582031 60.410156 Z M 38.730469 60.410156 C 38.046875 60.410156 37.8125 60.039062 37.742188 59.878906 C 37.628906 59.617188 37.664062 59.355469 37.664062 59.351562 C 37.777344 59.324219 37.890625 59.308594 38.003906 59.304688 L 38.027344 59.304688 C 38.566406 59.304688 38.992188 59.578125 39.171875 59.851562 C 39.210938 59.902344 39.320312 60.089844 39.230469 60.234375 C 39.15625 60.351562 38.988281 60.410156 38.730469 60.410156 Z M 82.09375 58.5 C 81.691406 58.5 81.425781 58.472656 81.421875 58.472656 C 81.421875 58.46875 81.4375 57.972656 81.875 57.492188 C 82.292969 57.042969 83.179688 56.492188 85.0625 56.4375 C 85.0625 56.441406 85.007812 56.871094 84.808594 57.324219 C 84.625 57.738281 84.28125 58.253906 83.671875 58.363281 C 83.058594 58.472656 82.476562 58.496094 82.09375 58.496094 Z M 37.214844 58.5 C 36.835938 58.5 36.25 58.476562 35.636719 58.363281 C 35.027344 58.253906 34.683594 57.738281 34.503906 57.324219 C 34.304688 56.871094 34.25 56.441406 34.246094 56.4375 L 34.25 56.4375 C 36.132812 56.492188 37.019531 57.042969 37.433594 57.492188 C 37.859375 57.960938 37.886719 58.441406 37.886719 58.472656 C 37.882812 58.472656 37.621094 58.5 37.214844 58.5 Z M 80.132812 56.542969 C 80.132812 56.53125 80.027344 55.464844 80.027344 54.40625 C 80.027344 53.34375 81.15625 52.921875 81.207031 52.90625 L 81.207031 52.902344 C 81.203125 52.925781 81.152344 53.292969 81.101562 53.71875 C 81.0625 54.050781 80.992188 54.652344 80.992188 54.941406 C 80.992188 55.234375 80.789062 55.597656 80.566406 55.945312 C 80.351562 56.273438 80.136719 56.539062 80.136719 56.542969 L 80.132812 56.542969 L 80.136719 56.542969 Z M 39.175781 56.542969 C 39.171875 56.539062 38.957031 56.273438 38.746094 55.941406 C 38.523438 55.597656 38.316406 55.234375 38.316406 54.9375 C 38.316406 54.652344 38.25 54.050781 38.210938 53.71875 C 38.160156 53.296875 38.109375 52.933594 38.101562 52.902344 L 38.105469 52.902344 C 38.152344 52.921875 39.28125 53.34375 39.28125 54.402344 C 39.28125 55.464844 39.175781 56.53125 39.175781 56.542969 Z M 81.597656 56.441406 C 81.574219 56.441406 81.554688 56.4375 81.539062 56.429688 C 81.515625 56.417969 81.496094 56.394531 81.484375 56.363281 C 81.453125 56.296875 81.460938 56.226562 81.480469 56.113281 C 81.519531 55.914062 81.609375 55.65625 81.769531 55.296875 C 82.023438 54.726562 82.347656 54.140625 82.378906 54.085938 L 82.382812 54.082031 C 82.386719 54.074219 82.835938 53.511719 83.402344 52.953125 C 83.734375 52.625 84.042969 52.363281 84.324219 52.171875 C 84.675781 51.925781 84.953125 51.808594 85.1875 51.804688 C 85.265625 51.804688 85.328125 51.816406 85.382812 51.832031 L 85.386719 51.835938 C 85.386719 51.835938 85.4375 52.292969 85.398438 52.847656 C 85.34375 53.597656 85.160156 54.152344 84.847656 54.511719 C 84.507812 54.902344 83.921875 55.34375 83.203125 55.753906 C 82.554688 56.128906 81.96875 56.382812 81.632812 56.4375 C 81.621094 56.4375 81.609375 56.441406 81.597656 56.441406 Z M 37.710938 56.441406 C 37.699219 56.441406 37.6875 56.441406 37.675781 56.4375 C 37.34375 56.382812 36.753906 56.128906 36.109375 55.753906 C 35.386719 55.34375 34.804688 54.902344 34.460938 54.511719 C 34.148438 54.152344 33.964844 53.597656 33.910156 52.847656 C 33.875 52.320312 33.917969 51.878906 33.925781 51.835938 C 33.984375 51.816406 34.042969 51.804688 34.109375 51.804688 C 34.359375 51.808594 34.625 51.921875 34.988281 52.171875 C 35.269531 52.363281 35.578125 52.628906 35.90625 52.953125 C 36.476562 53.511719 36.921875 54.074219 36.925781 54.082031 L 36.929688 54.085938 C 36.96875 54.152344 37.289062 54.734375 37.539062 55.296875 C 37.699219 55.65625 37.792969 55.917969 37.828125 56.113281 C 37.847656 56.226562 37.855469 56.296875 37.828125 56.363281 C 37.816406 56.394531 37.792969 56.417969 37.773438 56.429688 C 37.753906 56.4375 37.734375 56.441406 37.710938 56.441406 Z M 37.710938 56.441406 "/>
<path style=" stroke:none;fill-rule:evenodd;fill:rgb(99.998474%,67.842102%,17.64679%);fill-opacity:1;" d="M 99 13.527344 L 98.667969 13.660156 L 98.535156 13.710938 L 98.132812 13.6875 L 97.753906 13.871094 L 97.082031 14.328125 L 97.050781 14.351562 L 96.800781 14.414062 L 96.570312 14.316406 L 96.4375 14.375 L 96.390625 14.648438 L 96.265625 14.84375 L 96.113281 14.953125 L 95.574219 15.007812 L 95.125 15.238281 L 94.535156 15.082031 L 94.261719 15.1875 L 93.683594 15.710938 L 93.386719 15.851562 L 93.28125 15.847656 L 92.886719 15.824219 L 92.722656 15.878906 L 92.472656 16.121094 L 92.003906 16.15625 L 91.859375 16.257812 L 91.628906 16.71875 L 91.378906 16.976562 L 91.238281 17.007812 L 91.085938 16.949219 L 90.96875 16.96875 L 90.914062 17.265625 L 90.804688 17.390625 L 90.488281 17.496094 L 90.238281 17.707031 L 90.019531 17.820312 L 89.722656 17.8125 L 89.65625 17.8125 L 89.359375 17.976562 L 88.808594 18.023438 L 88.578125 18.242188 L 88.527344 18.289062 L 88.417969 18.355469 L 88.242188 18.460938 L 88.199219 18.484375 L 87.988281 18.449219 L 87.742188 18.546875 L 87.640625 18.390625 L 87.46875 18.496094 L 87.242188 18.503906 L 86.957031 18.378906 L 86.742188 18.28125 L 86.585938 18.304688 L 86.53125 18.582031 L 86.523438 18.609375 L 86.359375 18.832031 L 86.050781 19.019531 L 86.007812 19.074219 L 85.65625 19.527344 L 84.988281 20.230469 L 84.421875 20.515625 L 83.835938 20.695312 L 83.425781 21.035156 L 82.347656 21.566406 L 80.648438 22.410156 L 80.300781 22.523438 L 79.800781 22.601562 L 78.914062 22.929688 L 78.085938 23.179688 L 77.929688 23.226562 L 76.824219 23.5625 L 76.308594 23.507812 L 76.003906 23.621094 L 75.210938 23.53125 L 74.65625 23.542969 L 74.308594 23.613281 L 73.652344 23.929688 L 72.542969 24.460938 L 72.175781 24.796875 L 71.605469 25.09375 L 70.9375 25.308594 L 70.9375 25.027344 L 70.933594 25.015625 L 70.703125 25.085938 L 70.535156 25.140625 L 69.992188 25.222656 L 69.691406 25.222656 L 69.503906 25.167969 L 69.476562 25.179688 L 68.367188 25.542969 L 67.132812 25.664062 L 66.515625 25.863281 L 66.054688 25.855469 L 65.765625 25.941406 L 65.199219 26.007812 L 64.996094 25.957031 L 64.949219 25.941406 L 63.285156 26.015625 L 62.523438 25.929688 L 62.160156 26.011719 L 61.554688 25.808594 L 60.664062 25.703125 L 60.457031 25.640625 L 59.992188 25.503906 L 59.78125 25.625 L 59.621094 25.640625 L 59.242188 25.503906 L 59.109375 25.5 L 58.796875 25.613281 L 58.617188 25.570312 L 58.449219 25.433594 L 58.058594 25.375 L 57.820312 25.175781 L 56.488281 25.351562 L 56.128906 25.246094 L 54.914062 24.894531 L 54.722656 24.902344 L 54.480469 25.082031 L 54.121094 25.214844 L 53.808594 25.296875 L 53.382812 25.3125 L 52.886719 25.183594 L 52.375 24.933594 L 52.1875 24.890625 L 51.765625 24.929688 L 51.636719 24.941406 L 50.859375 24.527344 L 49.863281 23.902344 L 49.1875 23.578125 L 48.933594 23.539062 L 48.898438 23.660156 L 49.023438 24.054688 L 49.066406 24.449219 L 49.054688 24.8125 L 49.046875 25.035156 L 49.109375 25.238281 L 49.355469 25.507812 L 49.457031 25.78125 L 49.53125 26.53125 L 49.53125 27.289062 L 49.410156 28.5 L 49.371094 28.683594 L 49.230469 29.3125 L 49.101562 29.890625 L 48.597656 31.425781 L 48.460938 31.613281 L 48.121094 31.84375 L 47.355469 32.367188 L 46.789062 32.695312 L 46.609375 32.769531 L 46.148438 32.800781 L 45.863281 32.789062 L 45.507812 32.59375 L 45.160156 32.503906 L 44.699219 32.175781 L 44.191406 32.070312 L 43.632812 31.746094 L 43.488281 31.574219 L 43.183594 31.542969 L 42.761719 31.417969 L 42.609375 31.371094 L 42.5 31.339844 L 41.964844 31.324219 L 41.460938 31.09375 L 41.199219 31.03125 L 40.835938 31.011719 L 40.460938 31.1875 L 40.269531 31.273438 L 40.027344 31.179688 L 39.851562 31.191406 L 39.652344 31.488281 L 39.625 31.535156 L 39.488281 31.609375 L 39.316406 31.605469 L 39.183594 31.601562 L 39.039062 31.664062 L 38.847656 31.75 L 38.675781 31.824219 L 38.589844 31.859375 L 38.539062 31.871094 L 38.445312 31.886719 L 38.332031 31.90625 L 38.132812 31.789062 L 38.027344 31.726562 L 37.847656 31.691406 L 37.753906 31.761719 L 37.734375 32.085938 L 37.648438 32.28125 L 37.371094 32.527344 L 37.085938 32.777344 L 36.890625 33.066406 L 36.371094 34.253906 L 36.042969 34.734375 L 35.941406 34.847656 L 35.601562 35.222656 L 35.296875 35.457031 L 34.601562 35.996094 L 33.941406 36.246094 L 33.371094 36.359375 L 33.097656 36.363281 L 32.574219 36.292969 L 32.101562 36.148438 L 31.585938 35.824219 L 31.019531 35.367188 L 30.195312 34.558594 L 30.082031 34.488281 L 30.054688 34.472656 L 29.796875 34.304688 L 29.605469 34.3125 L 29.53125 34.433594 L 29.488281 34.613281 L 29.457031 34.773438 L 29.359375 35.675781 L 29.367188 35.726562 L 29.417969 36.097656 L 30.042969 36.96875 L 30.234375 37.433594 L 30.265625 37.484375 L 30.394531 37.703125 L 30.492188 37.867188 L 30.5 37.882812 L 30.714844 38.519531 L 30.566406 38.878906 L 30.640625 39.117188 L 30.449219 39.265625 L 30.417969 39.472656 L 30.976562 40.175781 L 31.097656 40.484375 L 30.960938 40.914062 L 30.742188 41.148438 L 30.683594 41.214844 L 30.714844 41.394531 L 30.972656 41.628906 L 31.410156 42.015625 L 31.644531 42.59375 L 31.820312 42.75 L 32.027344 42.707031 L 32.140625 42.792969 L 32.316406 42.792969 L 32.484375 42.960938 L 32.597656 43.015625 L 32.773438 43.105469 L 32.910156 43.285156 L 32.941406 43.835938 L 33.199219 44.527344 L 33.203125 44.898438 L 33.203125 44.953125 L 33.363281 45.230469 L 33.414062 45.445312 L 33.328125 46.023438 L 33.535156 46.207031 L 33.757812 46.164062 L 33.898438 46.183594 L 34.128906 46.378906 L 34.410156 46.800781 L 34.683594 46.761719 L 34.855469 46.84375 L 35.691406 47.601562 L 35.878906 47.695312 L 35.890625 47.703125 L 36.027344 47.773438 L 36.199219 47.941406 L 36.460938 47.769531 L 36.488281 47.765625 L 36.773438 47.738281 L 36.902344 47.824219 L 37.140625 47.988281 L 37.457031 47.984375 L 38.144531 48.195312 L 38.445312 48.269531 L 39.050781 48.644531 L 39.304688 48.804688 L 39.457031 48.925781 L 39.660156 49.09375 L 40.0625 49.265625 L 40.410156 49.347656 L 40.59375 49.394531 L 40.734375 49.445312 L 40.738281 49.4375 L 40.742188 49.4375 L 40.738281 49.449219 L 41.488281 49.734375 L 41.890625 49.828125 L 42.269531 49.96875 L 42.539062 50.066406 L 42.742188 50.070312 L 43.023438 49.832031 L 43.296875 49.816406 L 43.527344 49.871094 L 43.75 49.835938 L 44.101562 49.617188 L 44.167969 49.515625 L 44.417969 49.398438 L 45.261719 49.292969 L 45.507812 49.371094 L 46.140625 49.097656 L 46.5625 49.214844 L 46.9375 49.082031 L 47.753906 49.265625 L 47.972656 49.417969 L 48.214844 49.695312 L 48.246094 49.699219 L 48.515625 49.703125 L 48.402344 49.890625 L 48.761719 50.265625 L 49.085938 50.753906 L 49.105469 50.820312 L 49.339844 51.507812 L 49.515625 51.753906 L 49.636719 52.09375 L 49.644531 52.316406 L 49.453125 52.460938 L 49.421875 52.542969 L 49.410156 52.574219 L 49.449219 52.664062 L 49.523438 52.628906 L 49.660156 52.550781 L 49.824219 52.527344 L 50.117188 52.558594 L 50.308594 52.578125 L 50.816406 52.324219 L 51.140625 52.464844 L 51.5 52.460938 L 51.648438 52.527344 L 52.074219 52.71875 L 52.289062 52.742188 L 52.371094 52.6875 L 52.421875 52.566406 L 52.394531 52.425781 L 52.230469 52.238281 L 51.875 51.820312 L 51.726562 51.609375 L 51.613281 51.296875 L 51.582031 50.902344 L 51.554688 50.636719 L 51.601562 50.285156 L 51.695312 50.160156 L 51.765625 49.878906 L 51.769531 49.878906 L 51.785156 49.808594 L 51.984375 49.542969 L 52.511719 49.203125 L 53.078125 48.695312 L 53.527344 48.402344 L 53.992188 48.203125 L 54.003906 48.144531 L 54.054688 48.164062 L 55.230469 47.765625 L 55.246094 47.765625 L 55.769531 47.671875 L 59.300781 47.921875 L 59.433594 47.882812 L 59.550781 47.550781 L 59.613281 47.488281 L 59.65625 47.449219 L 60.042969 47.277344 L 60.226562 47.253906 L 60.730469 47.378906 L 60.933594 47.429688 L 61.265625 47.242188 L 61.5 47.246094 L 61.984375 46.984375 L 62.285156 46.992188 L 62.398438 46.945312 L 62.980469 46.527344 L 63.539062 46.367188 L 63.6875 46.289062 L 63.738281 46.261719 L 64.3125 45.957031 L 64.679688 45.675781 L 64.992188 45.507812 L 65.339844 45.417969 L 66.242188 45.355469 L 66.425781 45.050781 L 66.8125 45 L 67.046875 44.734375 L 67.316406 44.625 L 67.507812 44.347656 L 67.671875 44.117188 L 67.894531 43.984375 L 68.617188 43.941406 L 69.476562 44.046875 L 69.589844 43.976562 L 69.78125 43.289062 L 69.984375 43.15625 L 70.53125 42.363281 L 70.53125 41.832031 L 70.621094 41.488281 L 70.5625 40.863281 L 70.632812 40.234375 L 70.972656 39.433594 L 71.269531 39.109375 L 71.753906 38.785156 L 72 38.679688 L 72.34375 38.621094 L 72.394531 38.609375 L 72.484375 38.597656 L 73.679688 38.578125 C 73.695312 38.566406 74.113281 38.574219 74.113281 38.574219 L 74.511719 38.566406 L 75.519531 38.746094 L 75.589844 38.761719 L 75.933594 38.871094 L 76.324219 39.175781 L 76.742188 39.582031 L 76.820312 39.65625 L 77.089844 39.769531 L 77.167969 39.808594 L 77.390625 39.769531 L 77.710938 39.605469 L 77.949219 39.40625 L 78.273438 39.226562 L 78.28125 39.214844 L 78.464844 38.9375 L 78.472656 38.933594 L 78.476562 38.933594 L 78.472656 38.933594 L 78.542969 38.820312 L 79.175781 38.578125 L 79.914062 38.535156 L 80 38.488281 L 80.046875 38.464844 L 80.242188 38.234375 L 80.425781 38.230469 L 80.867188 38.390625 L 81.179688 38.332031 L 81.429688 38.429688 L 81.621094 38.40625 L 81.984375 38.363281 L 82.375 38.640625 L 82.601562 38.667969 L 83.402344 39.136719 L 83.445312 39.144531 L 83.46875 39.148438 L 83.511719 39.15625 L 83.609375 39.125 L 83.75 39.085938 L 83.769531 39.082031 L 83.785156 39.105469 L 83.878906 39.234375 L 84.003906 39.25 L 84.152344 39.054688 L 84.089844 38.964844 L 84.070312 38.929688 L 83.785156 38.875 L 83.527344 38.433594 L 83.769531 38.171875 L 83.386719 37.699219 L 83.324219 37.621094 L 83.300781 37.589844 L 83.167969 37.386719 L 82.496094 36.363281 L 81.621094 35.664062 L 81.3125 35.417969 L 81.3125 35.414062 L 81.203125 35.332031 L 80.734375 34.855469 L 80.402344 34.414062 L 80.359375 34.316406 L 80.289062 34.167969 L 80.089844 33.730469 L 79.738281 33.460938 L 79.457031 33.152344 L 79.441406 33.132812 L 78.757812 32.203125 L 78.621094 32.121094 L 78.328125 32.121094 L 78.300781 32.09375 L 78.285156 32.074219 L 78.433594 31.925781 L 78.589844 31.886719 L 78.660156 31.730469 L 78.359375 30.867188 L 78.359375 30.835938 L 78.335938 30.5625 L 78.578125 29.304688 L 78.609375 29.152344 L 79.023438 28.308594 L 79.28125 28.097656 L 79.5625 27.546875 L 79.804688 27.195312 L 80.03125 26.96875 L 80.074219 26.945312 L 80.488281 26.695312 L 80.835938 26.644531 L 81.171875 26.597656 L 81.75 26.777344 L 82.304688 26.769531 L 82.410156 26.757812 L 82.664062 26.726562 L 83.074219 26.597656 L 83.269531 26.476562 L 83.371094 26.324219 L 83.582031 25.617188 L 83.648438 25.390625 L 83.777344 25.148438 L 84.53125 24.28125 L 85.097656 23.757812 L 86.375 22.820312 L 87 22.445312 L 87.320312 22.253906 L 90.171875 20.988281 L 90.914062 20.234375 L 91.300781 19.847656 L 91.980469 19.386719 L 92.78125 19.058594 L 93.46875 18.515625 L 93.617188 18.328125 L 93.808594 17.71875 L 93.964844 17.679688 L 94.109375 17.371094 L 94.148438 17.285156 L 94.710938 16.886719 L 96.953125 15.765625 L 97.269531 15.808594 L 97.441406 15.554688 L 98.074219 15.445312 L 98.191406 15.425781 L 98.347656 15.347656 L 98.480469 15.121094 L 98.480469 15.078125 L 98.5 14.472656 L 98.632812 14.308594 L 98.707031 13.910156 L 98.777344 13.816406 L 98.851562 13.722656 L 99.03125 13.597656 L 99 13.519531 Z M 99 13.527344 "/>
</g>
</svg>
