<svg viewBox="0 0 1000 667" xmlns="http://www.w3.org/2000/svg" xmlns:xlink="http://www.w3.org/1999/xlink"><clipPath id="a"><path d="m0 0h1000v666.71875h-1000zm0 0"/></clipPath><clipPath id="b"><path d="m0 333h1000v333.71875h-1000zm0 0"/></clipPath><clipPath id="c"><path d="m0 0h578v666.71875h-578zm0 0"/></clipPath><g clip-path="url(#a)"><path d="m0 666.667969v-666.667969h1000v666.667969zm0 0" fill="#6ab2e7" fill-rule="evenodd"/></g><g clip-path="url(#b)"><path d="m0 333.332031h1000v333.335938h-1000zm0 0" fill="#12ad2b" fill-rule="evenodd"/></g><g clip-path="url(#c)"><path d="m0 0v666.667969l288.671875-166.667969 288.679687-166.667969-288.679687-166.664062zm0 0" fill="#fff" fill-rule="evenodd"/></g><path d="m220.957031 250 20.683594 63.664062h66.9375l-54.152344 39.339844 20.679688 63.664063-54.148438-39.347657-54.152343 39.347657 20.679687-63.664063-54.152344-39.339844h66.9375zm0 0" fill="#d7141a" fill-rule="evenodd"/></svg>