<?xml version="1.0" encoding="UTF-8"?>
<svg xmlns="http://www.w3.org/2000/svg" xmlns:xlink="http://www.w3.org/1999/xlink" width="128pt" height="64pt" viewBox="0 0 128 64" version="1.1">
<g id="surface311">
<rect x="0" y="0" width="128" height="64" style="fill:rgb(0%,41.960144%,24.705505%);fill-opacity:1;stroke:none;"/>
<path style=" stroke:none;fill-rule:evenodd;fill:rgb(99.998474%,99.998474%,99.998474%);fill-opacity:1;" d="M 0 34.667969 L 128 34.667969 L 128 40 L 0 40 Z M 0 34.667969 "/>
<path style=" stroke:none;fill-rule:evenodd;fill:rgb(0%,0%,0%);fill-opacity:1;" d="M 0 29.332031 L 128 29.332031 L 128 34.667969 L 0 34.667969 Z M 0 29.332031 "/>
<path style=" stroke:none;fill-rule:evenodd;fill:rgb(98.822021%,81.959534%,8.627319%);fill-opacity:1;" d="M 0 24 L 128 24 L 128 29.332031 L 0 29.332031 Z M 0 24 "/>
<path style=" stroke:none;fill-rule:evenodd;fill:rgb(98.822021%,81.959534%,8.627319%);fill-opacity:1;" d="M 56 0 L 61.332031 0 L 61.332031 64 L 56 64 Z M 56 0 "/>
<path style=" stroke:none;fill-rule:evenodd;fill:rgb(0%,0%,0%);fill-opacity:1;" d="M 61.332031 0 L 66.667969 0 L 66.667969 64 L 61.332031 64 Z M 61.332031 0 "/>
<path style=" stroke:none;fill-rule:evenodd;fill:rgb(99.998474%,99.998474%,99.998474%);fill-opacity:1;" d="M 66.667969 0 L 72 0 L 72 64 L 66.667969 64 Z M 66.667969 0 "/>
<path style=" stroke:none;fill-rule:evenodd;fill:rgb(83.135986%,10.980225%,18.823242%);fill-opacity:1;" d="M 80 32 C 80.015625 34.105469 79.613281 36.210938 78.820312 38.164062 C 78.027344 40.113281 76.84375 41.902344 75.359375 43.398438 C 73.878906 44.894531 72.097656 46.089844 70.152344 46.898438 C 68.210938 47.710938 66.105469 48.128906 64 48.128906 C 61.894531 48.128906 59.789062 47.710938 57.847656 46.898438 C 55.902344 46.089844 54.121094 44.894531 52.640625 43.398438 C 51.15625 41.902344 49.972656 40.113281 49.179688 38.164062 C 48.386719 36.210938 47.984375 34.105469 48 32 C 47.984375 29.894531 48.386719 27.785156 49.179688 25.835938 C 49.972656 23.886719 51.15625 22.097656 52.640625 20.601562 C 54.121094 19.105469 55.902344 17.910156 57.847656 17.101562 C 59.789062 16.289062 61.894531 15.867188 64 15.867188 C 66.105469 15.867188 68.210938 16.289062 70.152344 17.101562 C 72.097656 17.910156 73.878906 19.105469 75.359375 20.601562 C 76.84375 22.097656 78.027344 23.886719 78.820312 25.835938 C 79.613281 27.785156 80.015625 29.894531 80 32 Z M 80 32 "/>
<path style="fill-rule:evenodd;fill:rgb(0%,41.960144%,24.705505%);fill-opacity:1;stroke-width:0.106667;stroke-linecap:butt;stroke-linejoin:miter;stroke:rgb(0%,0%,0%);stroke-opacity:1;stroke-miterlimit:4;" d="M 63.488281 19.371094 C 63.488281 19.347656 64 17.90625 64 17.90625 L 64.464844 19.347656 C 64.464844 19.347656 66.027344 19.394531 66.027344 19.371094 C 66.027344 19.347656 64.792969 20.3125 64.792969 20.3125 C 64.792969 20.3125 65.375 21.964844 65.351562 21.917969 C 65.328125 21.871094 64 20.929688 64 20.929688 C 64 20.929688 62.648438 21.871094 62.671875 21.871094 C 62.695312 21.871094 63.183594 20.3125 63.183594 20.3125 L 61.972656 19.394531 Z M 63.488281 19.371094 "/>
<path style="fill-rule:evenodd;fill:rgb(0%,41.960144%,24.705505%);fill-opacity:1;stroke-width:0.106667;stroke-linecap:butt;stroke-linejoin:miter;stroke:rgb(0%,0%,0%);stroke-opacity:1;stroke-miterlimit:4;" d="M 64.511719 44.667969 C 64.511719 44.691406 64 46.128906 64 46.128906 L 63.535156 44.691406 C 63.535156 44.691406 61.972656 44.644531 61.972656 44.667969 C 61.972656 44.691406 63.207031 43.722656 63.207031 43.722656 C 63.207031 43.722656 62.625 42.070312 62.648438 42.117188 C 62.671875 42.164062 64 43.109375 64 43.109375 C 64 43.109375 65.351562 42.164062 65.328125 42.164062 C 65.304688 42.164062 64.816406 43.722656 64.816406 43.722656 L 66.027344 44.644531 Z M 64.511719 44.667969 "/>
<path style="fill-rule:evenodd;fill:rgb(0%,41.960144%,24.705505%);fill-opacity:1;stroke-width:0.106667;stroke-linecap:butt;stroke-linejoin:miter;stroke:rgb(0%,0%,0%);stroke-opacity:1;stroke-miterlimit:4;" d="M 71.4375 22.980469 C 71.4375 23.007812 70.925781 24.445312 70.925781 24.445312 L 70.457031 23.007812 C 70.457031 23.007812 68.894531 22.960938 68.894531 22.980469 C 68.894531 23.007812 70.128906 22.039062 70.128906 22.039062 C 70.128906 22.039062 69.546875 20.386719 69.570312 20.433594 C 69.59375 20.480469 70.925781 21.425781 70.925781 21.425781 C 70.925781 21.425781 72.277344 20.480469 72.253906 20.480469 C 72.230469 20.480469 71.738281 22.039062 71.738281 22.039062 L 72.953125 22.960938 Z M 71.4375 22.980469 "/>
<path style="fill-rule:evenodd;fill:rgb(0%,41.960144%,24.705505%);fill-opacity:1;stroke-width:0.106667;stroke-linecap:butt;stroke-linejoin:miter;stroke:rgb(0%,0%,0%);stroke-opacity:1;stroke-miterlimit:4;" d="M 75.925781 36.105469 C 75.925781 36.132812 75.414062 37.570312 75.414062 37.570312 L 74.945312 36.132812 C 74.945312 36.132812 73.382812 36.085938 73.382812 36.105469 C 73.382812 36.132812 74.621094 35.164062 74.621094 35.164062 C 74.621094 35.164062 74.039062 33.511719 74.058594 33.558594 C 74.085938 33.605469 75.414062 34.550781 75.414062 34.550781 C 75.414062 34.550781 76.765625 33.605469 76.742188 33.605469 C 76.71875 33.605469 76.230469 35.164062 76.230469 35.164062 L 77.441406 36.085938 Z M 75.925781 36.105469 "/>
<path style="fill-rule:evenodd;fill:rgb(0%,41.960144%,24.705505%);fill-opacity:1;stroke-width:0.106667;stroke-linecap:butt;stroke-linejoin:miter;stroke:rgb(0%,0%,0%);stroke-opacity:1;stroke-miterlimit:4;" d="M 53.097656 36.484375 C 53.097656 36.507812 52.585938 37.945312 52.585938 37.945312 L 52.117188 36.507812 C 52.117188 36.507812 50.554688 36.457031 50.554688 36.484375 C 50.554688 36.507812 51.792969 35.539062 51.792969 35.539062 C 51.792969 35.539062 51.207031 33.886719 51.230469 33.933594 C 51.253906 33.980469 52.585938 34.925781 52.585938 34.925781 C 52.585938 34.925781 53.9375 33.980469 53.914062 33.980469 C 53.890625 33.980469 53.402344 35.539062 53.402344 35.539062 L 54.613281 36.457031 Z M 53.097656 36.484375 "/>
<path style="fill-rule:evenodd;fill:rgb(0%,41.960144%,24.705505%);fill-opacity:1;stroke-width:0.106667;stroke-linecap:butt;stroke-linejoin:miter;stroke:rgb(0%,0%,0%);stroke-opacity:1;stroke-miterlimit:4;" d="M 57.242188 23.136719 C 57.242188 23.160156 56.730469 24.597656 56.730469 24.597656 L 56.261719 23.160156 C 56.261719 23.160156 54.699219 23.113281 54.699219 23.136719 C 54.699219 23.160156 55.9375 22.191406 55.9375 22.191406 C 55.9375 22.191406 55.351562 20.539062 55.378906 20.585938 C 55.398438 20.632812 56.730469 21.578125 56.730469 21.578125 C 56.730469 21.578125 58.082031 20.632812 58.058594 20.632812 C 58.035156 20.632812 57.546875 22.191406 57.546875 22.191406 L 58.757812 23.113281 Z M 57.242188 23.136719 "/>
<path style="fill-rule:evenodd;fill:rgb(0%,41.960144%,24.705505%);fill-opacity:1;stroke-width:0.106667;stroke-linecap:butt;stroke-linejoin:miter;stroke:rgb(0%,0%,0%);stroke-opacity:1;stroke-miterlimit:4;" d="M 51.980469 27.929688 C 51.980469 27.910156 52.492188 26.46875 52.492188 26.46875 L 52.960938 27.910156 C 52.960938 27.910156 54.523438 27.957031 54.523438 27.929688 C 54.523438 27.910156 53.285156 28.875 53.285156 28.875 C 53.285156 28.875 53.871094 30.527344 53.847656 30.480469 C 53.824219 30.433594 52.492188 29.492188 52.492188 29.492188 C 52.492188 29.492188 51.140625 30.433594 51.164062 30.433594 C 51.1875 30.433594 51.679688 28.875 51.679688 28.875 L 50.464844 27.957031 Z M 51.980469 27.929688 "/>
<path style="fill-rule:evenodd;fill:rgb(0%,41.960144%,24.705505%);fill-opacity:1;stroke-width:0.106667;stroke-linecap:butt;stroke-linejoin:miter;stroke:rgb(0%,0%,0%);stroke-opacity:1;stroke-miterlimit:4;" d="M 56.441406 41.035156 C 56.441406 41.007812 56.953125 39.570312 56.953125 39.570312 L 57.421875 41.007812 C 57.421875 41.007812 58.984375 41.058594 58.984375 41.035156 C 58.984375 41.007812 57.746094 41.976562 57.746094 41.976562 C 57.746094 41.976562 58.332031 43.628906 58.308594 43.582031 C 58.28125 43.535156 56.953125 42.589844 56.953125 42.589844 C 56.953125 42.589844 55.601562 43.535156 55.625 43.535156 C 55.648438 43.535156 56.136719 41.976562 56.136719 41.976562 L 54.925781 41.058594 Z M 56.441406 41.035156 "/>
<path style="fill-rule:evenodd;fill:rgb(0%,41.960144%,24.705505%);fill-opacity:1;stroke-width:0.106667;stroke-linecap:butt;stroke-linejoin:miter;stroke:rgb(0%,0%,0%);stroke-opacity:1;stroke-miterlimit:4;" d="M 74.820312 27.582031 C 74.820312 27.558594 75.332031 26.121094 75.332031 26.121094 L 75.796875 27.558594 C 75.796875 27.558594 77.363281 27.605469 77.363281 27.582031 C 77.363281 27.558594 76.125 28.527344 76.125 28.527344 C 76.125 28.527344 76.707031 30.179688 76.683594 30.132812 C 76.660156 30.085938 75.332031 29.140625 75.332031 29.140625 C 75.332031 29.140625 73.980469 30.085938 74.003906 30.085938 C 74.027344 30.085938 74.515625 28.527344 74.515625 28.527344 L 73.304688 27.605469 Z M 74.820312 27.582031 "/>
<path style="fill-rule:evenodd;fill:rgb(0%,41.960144%,24.705505%);fill-opacity:1;stroke-width:0.106667;stroke-linecap:butt;stroke-linejoin:miter;stroke:rgb(0%,0%,0%);stroke-opacity:1;stroke-miterlimit:4;" d="M 70.660156 40.910156 C 70.660156 40.886719 71.175781 39.445312 71.175781 39.445312 L 71.640625 40.886719 C 71.640625 40.886719 73.203125 40.933594 73.203125 40.910156 C 73.203125 40.886719 71.964844 41.855469 71.964844 41.855469 C 71.964844 41.855469 72.550781 43.507812 72.527344 43.460938 C 72.503906 43.410156 71.175781 42.46875 71.175781 42.46875 C 71.175781 42.46875 69.820312 43.410156 69.847656 43.410156 C 69.867188 43.410156 70.359375 41.855469 70.359375 41.855469 L 69.144531 40.933594 Z M 70.660156 40.910156 "/>
<path style="fill-rule:evenodd;fill:rgb(0%,41.960144%,24.705505%);fill-opacity:1;stroke-width:0.0663264;stroke-linecap:butt;stroke-linejoin:miter;stroke:rgb(0%,0%,0%);stroke-opacity:1;stroke-miterlimit:4;" d="M 67.144531 36.132812 C 67.332031 38.730469 67.054688 40.878906 66.527344 40.933594 C 66.003906 40.988281 65.425781 38.929688 65.242188 36.332031 C 65.054688 33.734375 65.332031 31.585938 65.855469 31.527344 C 66.382812 31.476562 66.960938 33.535156 67.144531 36.132812 Z M 67.144531 36.132812 "/>
<path style="fill-rule:evenodd;fill:rgb(0%,41.960144%,24.705505%);fill-opacity:1;stroke-width:0.0678394;stroke-linecap:butt;stroke-linejoin:miter;stroke:rgb(0%,0%,0%);stroke-opacity:1;stroke-miterlimit:4;" d="M 68.136719 36.117188 C 68.324219 38.714844 68.027344 40.867188 67.46875 40.925781 C 66.914062 40.980469 66.3125 38.925781 66.125 36.324219 C 65.941406 33.730469 66.238281 31.578125 66.792969 31.519531 C 67.351562 31.460938 67.953125 33.519531 68.136719 36.117188 Z M 68.136719 36.117188 "/>
<path style="fill-rule:evenodd;fill:rgb(0%,41.960144%,24.705505%);fill-opacity:1;stroke-width:0.0656961;stroke-linecap:butt;stroke-linejoin:miter;stroke:rgb(0%,0%,0%);stroke-opacity:1;stroke-miterlimit:4;" d="M 67.492188 36.386719 C 67.691406 39.257812 67.496094 41.625 67.050781 41.671875 C 66.605469 41.71875 66.082031 39.429688 65.882812 36.558594 C 65.683594 33.6875 65.882812 31.320312 66.324219 31.273438 C 66.769531 31.226562 67.292969 33.519531 67.492188 36.386719 Z M 67.492188 36.386719 "/>
<path style=" stroke:none;fill-rule:evenodd;fill:rgb(61.175537%,29.019165%,0%);fill-opacity:1;" d="M 59.285156 38.675781 C 60.101562 38.640625 59.746094 38.203125 60.160156 37.96875 C 60.570312 37.738281 61.15625 37.890625 61.332031 38.183594 C 61.507812 38.472656 61.367188 38.757812 61.59375 38.761719 C 61.820312 38.765625 67.988281 38.507812 68.210938 38.75 C 68.429688 38.992188 68.46875 39.472656 68.238281 39.660156 C 68.007812 39.847656 60.214844 39.933594 59.945312 39.738281 C 59.675781 39.542969 59.28125 38.722656 59.285156 38.675781 Z M 59.285156 38.675781 "/>
<path style="fill:none;stroke-width:0.0699805;stroke-linecap:butt;stroke-linejoin:miter;stroke:rgb(0%,0%,0%);stroke-opacity:1;stroke-miterlimit:4;" d="M 59.285156 38.675781 C 60.101562 38.640625 59.746094 38.203125 60.160156 37.96875 C 60.570312 37.738281 61.15625 37.890625 61.332031 38.183594 C 61.507812 38.472656 61.367188 38.757812 61.59375 38.761719 C 61.820312 38.765625 67.988281 38.507812 68.210938 38.75 C 68.429688 38.992188 68.46875 39.472656 68.238281 39.660156 C 68.007812 39.847656 60.214844 39.933594 59.945312 39.738281 C 59.675781 39.542969 59.285156 38.722656 59.285156 38.675781 Z M 59.285156 38.675781 "/>
<path style="fill-rule:evenodd;fill:rgb(98.822021%,81.959534%,8.627319%);fill-opacity:1;stroke-width:0.067404;stroke-linecap:butt;stroke-linejoin:miter;stroke:rgb(0%,0%,0%);stroke-opacity:1;stroke-miterlimit:4;" d="M 63.640625 39.273438 C 63.625 39.890625 64.535156 39.714844 64.550781 40.230469 C 64.519531 40.777344 63.019531 40.261719 63.007812 39.265625 C 63.070312 38.269531 64.539062 37.777344 64.554688 38.347656 C 64.570312 38.820312 63.652344 38.660156 63.640625 39.273438 Z M 63.640625 39.273438 "/>
<path style="fill-rule:evenodd;fill:rgb(98.822021%,81.959534%,8.627319%);fill-opacity:1;stroke-width:0.067404;stroke-linecap:butt;stroke-linejoin:miter;stroke:rgb(0%,0%,0%);stroke-opacity:1;stroke-miterlimit:4;" d="M 64.175781 39.28125 C 64.164062 39.898438 65.074219 39.722656 65.085938 40.238281 C 65.058594 40.78125 63.558594 40.269531 63.542969 39.273438 C 63.605469 38.277344 65.074219 37.785156 65.09375 38.351562 C 65.105469 38.824219 64.191406 38.664062 64.175781 39.28125 Z M 64.175781 39.28125 "/>
<path style="fill-rule:evenodd;fill:rgb(98.822021%,81.959534%,8.627319%);fill-opacity:1;stroke-width:0.067404;stroke-linecap:butt;stroke-linejoin:miter;stroke:rgb(0%,0%,0%);stroke-opacity:1;stroke-miterlimit:4;" d="M 64.753906 39.257812 C 64.738281 39.875 65.652344 39.699219 65.664062 40.214844 C 65.636719 40.761719 64.136719 40.25 64.121094 39.25 C 64.183594 38.253906 65.652344 37.761719 65.667969 38.332031 C 65.683594 38.804688 64.769531 38.644531 64.753906 39.257812 Z M 64.753906 39.257812 "/>
<path style="fill-rule:evenodd;fill:rgb(98.822021%,81.959534%,8.627319%);fill-opacity:1;stroke-width:0.067404;stroke-linecap:butt;stroke-linejoin:miter;stroke:rgb(0%,0%,0%);stroke-opacity:1;stroke-miterlimit:4;" d="M 65.292969 39.265625 C 65.277344 39.882812 66.1875 39.707031 66.199219 40.222656 C 66.171875 40.769531 64.671875 40.257812 64.660156 39.257812 C 64.722656 38.261719 66.191406 37.769531 66.207031 38.339844 C 66.222656 38.8125 65.304688 38.652344 65.292969 39.265625 Z M 65.292969 39.265625 "/>
<path style="fill-rule:evenodd;fill:rgb(61.175537%,29.019165%,0%);fill-opacity:1;stroke-width:0.060058;stroke-linecap:butt;stroke-linejoin:miter;stroke:rgb(0%,0%,0%);stroke-opacity:1;stroke-miterlimit:4;" d="M 68.378906 39.195312 C 68.371094 39.488281 68.132812 39.722656 67.847656 39.714844 C 67.558594 39.710938 67.332031 39.472656 67.335938 39.179688 C 67.34375 38.886719 67.582031 38.65625 67.867188 38.660156 C 68.15625 38.664062 68.382812 38.902344 68.378906 39.195312 Z M 68.378906 39.195312 "/>
<path style="fill-rule:evenodd;fill:rgb(0%,41.960144%,24.705505%);fill-opacity:1;stroke-width:0.0803752;stroke-linecap:butt;stroke-linejoin:miter;stroke:rgb(0%,0%,0%);stroke-opacity:1;stroke-miterlimit:4;" d="M 65.191406 37.351562 C 65.253906 37.914062 65.09375 38.398438 64.839844 38.4375 C 64.585938 38.476562 64.332031 38.050781 64.269531 37.488281 C 64.210938 36.929688 64.367188 36.441406 64.621094 36.402344 C 64.878906 36.363281 65.132812 36.789062 65.191406 37.351562 Z M 65.191406 37.351562 "/>
<path style="fill-rule:evenodd;fill:rgb(0%,41.960144%,24.705505%);fill-opacity:1;stroke-width:0.0803752;stroke-linecap:butt;stroke-linejoin:miter;stroke:rgb(0%,0%,0%);stroke-opacity:1;stroke-miterlimit:4;" d="M 64.40625 37.289062 C 64.46875 37.851562 64.308594 38.335938 64.054688 38.375 C 63.800781 38.414062 63.546875 37.992188 63.488281 37.429688 C 63.425781 36.867188 63.585938 36.378906 63.839844 36.339844 C 64.09375 36.304688 64.347656 36.726562 64.40625 37.289062 Z M 64.40625 37.289062 "/>
<path style=" stroke:none;fill-rule:evenodd;fill:rgb(0%,41.960144%,24.705505%);fill-opacity:1;" d="M 63.847656 36.285156 C 63.90625 36.847656 63.746094 37.332031 63.492188 37.371094 C 63.238281 37.410156 62.984375 36.984375 62.925781 36.425781 C 62.863281 35.863281 63.023438 35.375 63.277344 35.335938 C 63.53125 35.296875 63.785156 35.722656 63.847656 36.285156 Z M 63.847656 36.285156 "/>
<path style="fill:none;stroke-width:0.0803751;stroke-linecap:butt;stroke-linejoin:miter;stroke:rgb(0%,0%,0%);stroke-opacity:1;stroke-miterlimit:4;" d="M 63.847656 36.285156 C 63.90625 36.847656 63.746094 37.332031 63.492188 37.371094 C 63.238281 37.410156 62.984375 36.984375 62.925781 36.425781 C 62.863281 35.859375 63.023438 35.375 63.277344 35.335938 C 63.53125 35.296875 63.785156 35.722656 63.847656 36.285156 Z M 63.847656 36.285156 "/>
<path style="fill-rule:evenodd;fill:rgb(0%,41.960144%,24.705505%);fill-opacity:1;stroke-width:0.0840658;stroke-linecap:butt;stroke-linejoin:miter;stroke:rgb(0%,0%,0%);stroke-opacity:1;stroke-miterlimit:4;" d="M 64.621094 36.242188 C 64.691406 36.859375 64.542969 37.394531 64.300781 37.433594 C 64.054688 37.472656 63.804688 37 63.738281 36.378906 C 63.671875 35.761719 63.816406 35.226562 64.0625 35.1875 C 64.304688 35.148438 64.558594 35.621094 64.621094 36.242188 Z M 64.621094 36.242188 "/>
<path style=" stroke:none;fill-rule:evenodd;fill:rgb(0%,58.430481%,26.274109%);fill-opacity:1;" d="M 65.722656 36.253906 C 65.785156 36.832031 65.632812 37.335938 65.390625 37.371094 C 65.144531 37.410156 64.898438 36.972656 64.835938 36.386719 C 64.773438 35.808594 64.921875 35.304688 65.164062 35.269531 C 65.410156 35.230469 65.660156 35.671875 65.722656 36.253906 Z M 65.722656 36.253906 "/>
<path style="fill:none;stroke-width:0.0808194;stroke-linecap:butt;stroke-linejoin:miter;stroke:rgb(0%,0%,0%);stroke-opacity:1;stroke-miterlimit:4;" d="M 65.722656 36.253906 C 65.785156 36.832031 65.632812 37.335938 65.390625 37.371094 C 65.144531 37.410156 64.898438 36.972656 64.835938 36.386719 C 64.773438 35.808594 64.921875 35.304688 65.164062 35.265625 C 65.410156 35.230469 65.660156 35.671875 65.722656 36.253906 Z M 65.722656 36.253906 "/>
<path style="fill-rule:evenodd;fill:rgb(0%,58.430481%,26.274109%);fill-opacity:1;stroke-width:0.0808194;stroke-linecap:butt;stroke-linejoin:miter;stroke:rgb(0%,0%,0%);stroke-opacity:1;stroke-miterlimit:4;" d="M 65.117188 35.886719 C 65.179688 36.46875 65.03125 36.972656 64.789062 37.007812 C 64.542969 37.046875 64.292969 36.605469 64.230469 36.027344 C 64.167969 35.445312 64.316406 34.941406 64.5625 34.902344 C 64.808594 34.867188 65.054688 35.308594 65.117188 35.886719 Z M 65.117188 35.886719 "/>
<path style="fill-rule:evenodd;fill:rgb(0%,58.430481%,26.274109%);fill-opacity:1;stroke-width:0.0808194;stroke-linecap:butt;stroke-linejoin:miter;stroke:rgb(0%,0%,0%);stroke-opacity:1;stroke-miterlimit:4;" d="M 64.355469 35.363281 C 64.417969 35.945312 64.269531 36.449219 64.027344 36.484375 C 63.78125 36.523438 63.535156 36.082031 63.472656 35.5 C 63.410156 34.917969 63.558594 34.417969 63.800781 34.378906 C 64.046875 34.34375 64.292969 34.785156 64.355469 35.363281 Z M 64.355469 35.363281 "/>
<path style="fill-rule:evenodd;fill:rgb(0%,41.960144%,24.705505%);fill-opacity:1;stroke-width:0.0808194;stroke-linecap:butt;stroke-linejoin:miter;stroke:rgb(0%,0%,0%);stroke-opacity:1;stroke-miterlimit:4;" d="M 63.652344 35.046875 C 63.714844 35.628906 63.566406 36.128906 63.320312 36.167969 C 63.078125 36.207031 62.828125 35.765625 62.765625 35.183594 C 62.703125 34.601562 62.851562 34.101562 63.097656 34.0625 C 63.339844 34.023438 63.589844 34.464844 63.652344 35.046875 Z M 63.652344 35.046875 "/>
<path style="fill-rule:evenodd;fill:rgb(58.03833%,38.038635%,78.822327%);fill-opacity:1;stroke-width:0.0593926;stroke-linecap:butt;stroke-linejoin:miter;stroke:rgb(0%,0%,0%);stroke-opacity:1;stroke-miterlimit:4;" d="M 62.429688 26.378906 C 62.429688 26.378906 60.867188 27.738281 61.039062 31.410156 C 61.238281 35.101562 64.496094 36.835938 64.496094 36.835938 C 64.496094 36.835938 65.324219 35.789062 65.230469 32.820312 C 64.996094 28.484375 63.457031 26.566406 63.457031 26.566406 Z M 62.429688 26.378906 "/>
<path style="fill-rule:evenodd;fill:rgb(0%,41.960144%,24.705505%);fill-opacity:1;stroke-width:0.0719463;stroke-linecap:butt;stroke-linejoin:miter;stroke:rgb(0%,0%,0%);stroke-opacity:1;stroke-miterlimit:4;" d="M 66.414062 37.550781 C 66.375 38.117188 66.132812 38.566406 65.875 38.558594 C 65.617188 38.550781 65.441406 38.089844 65.484375 37.523438 C 65.523438 36.960938 65.765625 36.511719 66.023438 36.519531 C 66.28125 36.527344 66.457031 36.988281 66.414062 37.550781 Z M 66.414062 37.550781 "/>
<path style="fill-rule:evenodd;fill:rgb(0%,41.960144%,24.705505%);fill-opacity:1;stroke-width:0.0719463;stroke-linecap:butt;stroke-linejoin:miter;stroke:rgb(0%,0%,0%);stroke-opacity:1;stroke-miterlimit:4;" d="M 65.652344 37.351562 C 65.613281 37.914062 65.371094 38.367188 65.113281 38.359375 C 64.855469 38.351562 64.679688 37.886719 64.722656 37.324219 C 64.761719 36.761719 65.003906 36.308594 65.261719 36.316406 C 65.519531 36.324219 65.695312 36.789062 65.652344 37.351562 Z M 65.652344 37.351562 "/>
<path style="fill-rule:evenodd;fill:rgb(0%,41.960144%,24.705505%);fill-opacity:1;stroke-width:0.0719462;stroke-linecap:butt;stroke-linejoin:miter;stroke:rgb(0%,0%,0%);stroke-opacity:1;stroke-miterlimit:4;" d="M 65.277344 36.261719 C 65.238281 36.828125 64.996094 37.277344 64.738281 37.269531 C 64.480469 37.261719 64.308594 36.800781 64.347656 36.234375 C 64.390625 35.671875 64.632812 35.222656 64.886719 35.230469 C 65.144531 35.238281 65.320312 35.699219 65.277344 36.261719 Z M 65.277344 36.261719 "/>
<path style=" stroke:none;fill-rule:evenodd;fill:rgb(0%,41.960144%,24.705505%);fill-opacity:1;" d="M 66.054688 36.359375 C 66.007812 36.980469 65.769531 37.480469 65.523438 37.472656 C 65.273438 37.46875 65.109375 36.960938 65.15625 36.339844 C 65.203125 35.71875 65.441406 35.214844 65.6875 35.222656 C 65.933594 35.226562 66.097656 35.738281 66.054688 36.359375 Z M 66.054688 36.359375 "/>
<path style="fill:none;stroke-width:0.0730194;stroke-linecap:butt;stroke-linejoin:miter;stroke:rgb(0%,0%,0%);stroke-opacity:1;stroke-miterlimit:4;" d="M 66.054688 36.359375 C 66.007812 36.980469 65.769531 37.480469 65.523438 37.472656 C 65.273438 37.46875 65.109375 36.960938 65.15625 36.339844 C 65.203125 35.714844 65.441406 35.214844 65.6875 35.222656 C 65.933594 35.226562 66.097656 35.738281 66.054688 36.359375 Z M 66.054688 36.359375 "/>
<path style="fill-rule:evenodd;fill:rgb(0%,41.960144%,24.705505%);fill-opacity:1;stroke-width:0.0712223;stroke-linecap:butt;stroke-linejoin:miter;stroke:rgb(0%,0%,0%);stroke-opacity:1;stroke-miterlimit:4;" d="M 67.128906 36.566406 C 67.085938 37.148438 66.851562 37.617188 66.605469 37.609375 C 66.359375 37.601562 66.191406 37.125 66.234375 36.542969 C 66.277344 35.960938 66.511719 35.492188 66.757812 35.496094 C 67.007812 35.503906 67.171875 35.980469 67.128906 36.566406 Z M 67.128906 36.566406 "/>
<path style="fill-rule:evenodd;fill:rgb(0%,41.960144%,24.705505%);fill-opacity:1;stroke-width:0.0712223;stroke-linecap:butt;stroke-linejoin:miter;stroke:rgb(0%,0%,0%);stroke-opacity:1;stroke-miterlimit:4;" d="M 66.601562 36.101562 C 66.558594 36.683594 66.324219 37.152344 66.078125 37.144531 C 65.828125 37.136719 65.664062 36.660156 65.707031 36.078125 C 65.75 35.492188 65.984375 35.027344 66.230469 35.035156 C 66.480469 35.039062 66.644531 35.515625 66.601562 36.101562 Z M 66.601562 36.101562 "/>
<path style="fill-rule:evenodd;fill:rgb(0%,41.960144%,24.705505%);fill-opacity:1;stroke-width:0.0712223;stroke-linecap:butt;stroke-linejoin:miter;stroke:rgb(0%,0%,0%);stroke-opacity:1;stroke-miterlimit:4;" d="M 65.945312 35.449219 C 65.902344 36.03125 65.667969 36.5 65.421875 36.492188 C 65.175781 36.488281 65.007812 36.007812 65.050781 35.425781 C 65.09375 34.84375 65.328125 34.375 65.574219 34.382812 C 65.824219 34.386719 65.988281 34.867188 65.945312 35.449219 Z M 65.945312 35.449219 "/>
<path style="fill-rule:evenodd;fill:rgb(0%,41.960144%,24.705505%);fill-opacity:1;stroke-width:0.0712223;stroke-linecap:butt;stroke-linejoin:miter;stroke:rgb(0%,0%,0%);stroke-opacity:1;stroke-miterlimit:4;" d="M 65.308594 35.011719 C 65.269531 35.59375 65.03125 36.0625 64.785156 36.054688 C 64.539062 36.050781 64.371094 35.570312 64.414062 34.988281 C 64.457031 34.402344 64.691406 33.9375 64.941406 33.945312 C 65.1875 33.949219 65.351562 34.425781 65.308594 35.011719 Z M 65.308594 35.011719 "/>
<path style="fill-rule:evenodd;fill:rgb(83.135986%,10.980225%,18.823242%);fill-opacity:1;stroke-width:0.0233905;stroke-linecap:butt;stroke-linejoin:miter;stroke:rgb(0%,0%,0%);stroke-opacity:1;stroke-miterlimit:4;" d="M 66.972656 32.214844 C 67.855469 34.269531 68.019531 36.148438 67.339844 36.410156 C 66.660156 36.671875 65.394531 35.21875 64.511719 33.164062 C 63.632812 31.109375 63.46875 29.230469 64.148438 28.96875 C 64.828125 28.707031 66.089844 30.160156 66.972656 32.214844 Z M 66.972656 32.214844 "/>
<path style="fill-rule:evenodd;fill:rgb(0%,58.430481%,26.274109%);fill-opacity:1;stroke-width:0.0672859;stroke-linecap:butt;stroke-linejoin:miter;stroke:rgb(0%,0%,0%);stroke-opacity:1;stroke-miterlimit:4;" d="M 65.304688 28.894531 C 65.300781 29.175781 65.039062 29.398438 64.71875 29.394531 C 64.402344 29.386719 64.148438 29.15625 64.152344 28.875 C 64.160156 28.59375 64.421875 28.371094 64.738281 28.378906 C 65.054688 28.382812 65.308594 28.613281 65.304688 28.894531 Z M 65.304688 28.894531 "/>
<path style="fill-rule:evenodd;fill:rgb(0%,58.430481%,26.274109%);fill-opacity:1;stroke-width:0.0671493;stroke-linecap:butt;stroke-linejoin:miter;stroke:rgb(0%,0%,0%);stroke-opacity:1;stroke-miterlimit:4;" d="M 65.675781 28.175781 C 65.671875 28.457031 65.4375 28.679688 65.152344 28.675781 C 64.867188 28.667969 64.640625 28.4375 64.644531 28.15625 C 64.652344 27.878906 64.886719 27.652344 65.171875 27.660156 C 65.457031 27.664062 65.679688 27.894531 65.675781 28.175781 Z M 65.675781 28.175781 "/>
<path style="fill-rule:evenodd;fill:rgb(0%,58.430481%,26.274109%);fill-opacity:1;stroke-width:0.0671493;stroke-linecap:butt;stroke-linejoin:miter;stroke:rgb(0%,0%,0%);stroke-opacity:1;stroke-miterlimit:4;" d="M 64.980469 28.164062 C 64.976562 28.445312 64.742188 28.667969 64.457031 28.660156 C 64.171875 28.65625 63.945312 28.425781 63.949219 28.144531 C 63.957031 27.863281 64.191406 27.640625 64.476562 27.644531 C 64.761719 27.652344 64.988281 27.882812 64.980469 28.164062 Z M 64.980469 28.164062 "/>
<path style="fill-rule:evenodd;fill:rgb(0%,41.960144%,24.705505%);fill-opacity:1;stroke-width:0.0672839;stroke-linecap:butt;stroke-linejoin:miter;stroke:rgb(0%,0%,0%);stroke-opacity:1;stroke-miterlimit:4;" d="M 65.160156 27.636719 C 65.152344 27.902344 64.910156 28.109375 64.613281 28.105469 C 64.3125 28.097656 64.074219 27.882812 64.082031 27.617188 C 64.085938 27.355469 64.332031 27.144531 64.628906 27.152344 C 64.925781 27.15625 65.164062 27.375 65.160156 27.636719 Z M 65.160156 27.636719 "/>
<path style="fill-rule:evenodd;fill:rgb(0%,41.960144%,24.705505%);fill-opacity:1;stroke-width:0.0672839;stroke-linecap:butt;stroke-linejoin:miter;stroke:rgb(0%,0%,0%);stroke-opacity:1;stroke-miterlimit:4;" d="M 65.097656 27.035156 C 65.09375 27.300781 64.847656 27.507812 64.550781 27.503906 C 64.253906 27.496094 64.015625 27.277344 64.019531 27.015625 C 64.023438 26.753906 64.269531 26.542969 64.566406 26.550781 C 64.863281 26.554688 65.101562 26.773438 65.097656 27.035156 Z M 65.097656 27.035156 "/>
<path style="fill-rule:evenodd;fill:rgb(0%,41.960144%,24.705505%);fill-opacity:1;stroke-width:0.0671493;stroke-linecap:butt;stroke-linejoin:miter;stroke:rgb(0%,0%,0%);stroke-opacity:1;stroke-miterlimit:4;" d="M 64.316406 27.757812 C 64.3125 28.039062 64.078125 28.261719 63.792969 28.257812 C 63.507812 28.25 63.28125 28.019531 63.285156 27.738281 C 63.292969 27.457031 63.527344 27.234375 63.8125 27.242188 C 64.097656 27.246094 64.324219 27.476562 64.316406 27.757812 Z M 64.316406 27.757812 "/>
<path style="fill-rule:evenodd;fill:rgb(0%,41.960144%,24.705505%);fill-opacity:1;stroke-width:0.0671774;stroke-linecap:butt;stroke-linejoin:miter;stroke:rgb(0%,0%,0%);stroke-opacity:1;stroke-miterlimit:4;" d="M 64.472656 27.105469 C 64.46875 27.382812 64.234375 27.601562 63.949219 27.59375 C 63.664062 27.589844 63.4375 27.363281 63.441406 27.089844 C 63.445312 26.8125 63.683594 26.59375 63.964844 26.601562 C 64.25 26.605469 64.476562 26.832031 64.472656 27.105469 Z M 64.472656 27.105469 "/>
<path style="fill-rule:evenodd;fill:rgb(0%,41.960144%,24.705505%);fill-opacity:1;stroke-width:0.0672859;stroke-linecap:butt;stroke-linejoin:miter;stroke:rgb(0%,0%,0%);stroke-opacity:1;stroke-miterlimit:4;" d="M 63.679688 27.125 C 63.675781 27.402344 63.414062 27.628906 63.097656 27.621094 C 62.777344 27.617188 62.527344 27.382812 62.53125 27.101562 C 62.535156 26.824219 62.796875 26.601562 63.117188 26.605469 C 63.433594 26.613281 63.6875 26.84375 63.679688 27.125 Z M 63.679688 27.125 "/>
<path style="fill-rule:evenodd;fill:rgb(0%,41.960144%,24.705505%);fill-opacity:1;stroke-width:0.0672839;stroke-linecap:butt;stroke-linejoin:miter;stroke:rgb(0%,0%,0%);stroke-opacity:1;stroke-miterlimit:4;" d="M 64.703125 26.28125 C 64.699219 26.542969 64.453125 26.753906 64.15625 26.75 C 63.859375 26.742188 63.621094 26.527344 63.625 26.261719 C 63.628906 26 63.875 25.789062 64.171875 25.792969 C 64.472656 25.800781 64.707031 26.019531 64.703125 26.28125 Z M 64.703125 26.28125 "/>
<path style="fill-rule:evenodd;fill:rgb(0%,41.960144%,24.705505%);fill-opacity:1;stroke-width:0.0671774;stroke-linecap:butt;stroke-linejoin:miter;stroke:rgb(0%,0%,0%);stroke-opacity:1;stroke-miterlimit:4;" d="M 63.957031 26.371094 C 63.953125 26.648438 63.71875 26.867188 63.433594 26.859375 C 63.148438 26.855469 62.921875 26.628906 62.929688 26.355469 C 62.933594 26.078125 63.167969 25.859375 63.453125 25.867188 C 63.738281 25.871094 63.964844 26.097656 63.957031 26.371094 Z M 63.957031 26.371094 "/>
<path style="fill-rule:evenodd;fill:rgb(0%,41.960144%,24.705505%);fill-opacity:1;stroke-width:0.0671493;stroke-linecap:butt;stroke-linejoin:miter;stroke:rgb(0%,0%,0%);stroke-opacity:1;stroke-miterlimit:4;" d="M 62.867188 27.152344 C 62.859375 27.429688 62.625 27.65625 62.339844 27.648438 C 62.058594 27.644531 61.832031 27.414062 61.835938 27.132812 C 61.839844 26.851562 62.074219 26.628906 62.359375 26.632812 C 62.644531 26.636719 62.871094 26.871094 62.867188 27.152344 Z M 62.867188 27.152344 "/>
<path style="fill-rule:evenodd;fill:rgb(0%,41.960144%,24.705505%);fill-opacity:1;stroke-width:0.0671774;stroke-linecap:butt;stroke-linejoin:miter;stroke:rgb(0%,0%,0%);stroke-opacity:1;stroke-miterlimit:4;" d="M 63.042969 26.773438 C 63.039062 27.046875 62.804688 27.265625 62.519531 27.261719 C 62.238281 27.253906 62.007812 27.027344 62.015625 26.753906 C 62.019531 26.480469 62.253906 26.261719 62.539062 26.265625 C 62.824219 26.269531 63.050781 26.496094 63.042969 26.773438 Z M 63.042969 26.773438 "/>
<path style="fill-rule:evenodd;fill:rgb(0%,41.960144%,24.705505%);fill-opacity:1;stroke-width:0.0671774;stroke-linecap:butt;stroke-linejoin:miter;stroke:rgb(0%,0%,0%);stroke-opacity:1;stroke-miterlimit:4;" d="M 63.261719 26.351562 C 63.257812 26.628906 63.023438 26.847656 62.738281 26.839844 C 62.457031 26.835938 62.226562 26.609375 62.234375 26.335938 C 62.238281 26.058594 62.472656 25.839844 62.757812 25.847656 C 63.042969 25.851562 63.269531 26.078125 63.261719 26.351562 Z M 63.261719 26.351562 "/>
<path style="fill-rule:evenodd;fill:rgb(0%,41.960144%,24.705505%);fill-opacity:1;stroke-width:0.0530168;stroke-linecap:butt;stroke-linejoin:miter;stroke:rgb(0%,0%,0%);stroke-opacity:1;stroke-miterlimit:4;" d="M 67.707031 31.5 C 68.757812 33.949219 68.902344 36.183594 68.03125 36.488281 C 67.160156 36.796875 65.601562 35.0625 64.550781 32.617188 C 63.496094 30.167969 63.351562 27.933594 64.222656 27.628906 C 65.09375 27.320312 66.652344 29.054688 67.707031 31.5 Z M 67.707031 31.5 "/>
<path style="fill-rule:evenodd;fill:rgb(0%,41.960144%,24.705505%);fill-opacity:1;stroke-width:0.0493762;stroke-linecap:butt;stroke-linejoin:miter;stroke:rgb(0%,0%,0%);stroke-opacity:1;stroke-miterlimit:4;" d="M 67.796875 32.695312 C 68.023438 33.203125 68.078125 33.679688 67.914062 33.753906 C 67.753906 33.832031 67.4375 33.480469 67.210938 32.972656 C 66.984375 32.460938 66.929688 31.988281 67.089844 31.910156 C 67.253906 31.832031 67.566406 32.183594 67.796875 32.695312 Z M 67.796875 32.695312 "/>
<path style=" stroke:none;fill-rule:evenodd;fill:rgb(0%,41.960144%,24.705505%);fill-opacity:1;" d="M 67.355469 32.832031 C 68.722656 34.496094 68.550781 35.550781 68.40625 36.445312 C 67.976562 35.414062 67.742188 34.765625 66.378906 33.101562 C 65.011719 31.4375 65.691406 30.269531 65.785156 29.65625 C 65.992188 30.1875 65.988281 31.167969 67.355469 32.832031 Z M 67.355469 32.832031 "/>
<path style="fill:none;stroke-width:0.0514542;stroke-linecap:butt;stroke-linejoin:miter;stroke:rgb(0%,0%,0%);stroke-opacity:1;stroke-miterlimit:4;" d="M 67.355469 32.832031 C 68.722656 34.496094 68.550781 35.550781 68.40625 36.445312 C 67.976562 35.414062 67.742188 34.765625 66.375 33.101562 C 65.011719 31.4375 65.691406 30.269531 65.785156 29.65625 C 65.992188 30.1875 65.988281 31.167969 67.355469 32.832031 Z M 67.355469 32.832031 "/>
<path style="fill-rule:evenodd;fill:rgb(0%,41.960144%,24.705505%);fill-opacity:1;stroke-width:0.0514542;stroke-linecap:butt;stroke-linejoin:miter;stroke:rgb(0%,0%,0%);stroke-opacity:1;stroke-miterlimit:4;" d="M 67.480469 34.175781 C 68.847656 35.839844 68.671875 36.894531 68.53125 37.789062 C 68.101562 36.757812 67.867188 36.109375 66.5 34.445312 C 65.132812 32.78125 65.816406 31.613281 65.910156 31 C 66.113281 31.53125 66.113281 32.511719 67.480469 34.175781 Z M 67.480469 34.175781 "/>
<path style="fill-rule:evenodd;fill:rgb(0%,41.960144%,24.705505%);fill-opacity:1;stroke-width:0.0492029;stroke-linecap:butt;stroke-linejoin:miter;stroke:rgb(0%,0%,0%);stroke-opacity:1;stroke-miterlimit:4;" d="M 67.519531 35.257812 C 68.917969 36.894531 68.769531 37.953125 68.644531 38.847656 C 68.195312 37.828125 67.945312 37.183594 66.546875 35.550781 C 65.148438 33.914062 65.804688 32.734375 65.886719 32.117188 C 66.101562 32.644531 66.121094 33.625 67.519531 35.257812 Z M 67.519531 35.257812 "/>
<path style="fill-rule:evenodd;fill:rgb(0%,41.960144%,24.705505%);fill-opacity:1;stroke-width:0.0587711;stroke-linecap:butt;stroke-linejoin:miter;stroke:rgb(0%,0%,0%);stroke-opacity:1;stroke-miterlimit:4;" d="M 67.128906 31.117188 C 67.53125 32.023438 67.597656 32.824219 67.277344 32.90625 C 66.957031 32.988281 66.371094 32.320312 65.96875 31.410156 C 65.570312 30.503906 65.503906 29.703125 65.824219 29.621094 C 66.144531 29.539062 66.726562 30.207031 67.128906 31.117188 Z M 67.128906 31.117188 "/>
<path style=" stroke:none;fill-rule:evenodd;fill:rgb(0%,41.960144%,24.705505%);fill-opacity:1;" d="M 66.527344 32.097656 C 66.839844 32.851562 66.859375 33.5 66.570312 33.546875 C 66.28125 33.597656 65.796875 33.027344 65.484375 32.277344 C 65.175781 31.527344 65.152344 30.878906 65.441406 30.828125 C 65.730469 30.777344 66.214844 31.347656 66.527344 32.097656 Z M 66.527344 32.097656 "/>
<path style="fill:none;stroke-width:0.0615787;stroke-linecap:butt;stroke-linejoin:miter;stroke:rgb(0%,0%,0%);stroke-opacity:1;stroke-miterlimit:4;" d="M 66.527344 32.097656 C 66.839844 32.851562 66.859375 33.5 66.570312 33.546875 C 66.285156 33.597656 65.796875 33.027344 65.484375 32.277344 C 65.175781 31.527344 65.152344 30.878906 65.441406 30.828125 C 65.730469 30.777344 66.214844 31.347656 66.527344 32.097656 Z M 66.527344 32.097656 "/>
<path style="fill-rule:evenodd;fill:rgb(0%,41.960144%,24.705505%);fill-opacity:1;stroke-width:0.0625205;stroke-linecap:butt;stroke-linejoin:miter;stroke:rgb(0%,0%,0%);stroke-opacity:1;stroke-miterlimit:4;" d="M 65.882812 32.738281 C 66.179688 33.496094 66.183594 34.144531 65.894531 34.1875 C 65.605469 34.230469 65.132812 33.652344 64.835938 32.894531 C 64.539062 32.136719 64.535156 31.488281 64.824219 31.445312 C 65.113281 31.398438 65.585938 31.980469 65.882812 32.738281 Z M 65.882812 32.738281 "/>
<path style="fill-rule:evenodd;fill:rgb(0%,41.960144%,24.705505%);fill-opacity:1;stroke-width:0.060404;stroke-linecap:butt;stroke-linejoin:miter;stroke:rgb(0%,0%,0%);stroke-opacity:1;stroke-miterlimit:4;" d="M 66.316406 30.464844 C 66.585938 31.023438 66.613281 31.511719 66.382812 31.554688 C 66.148438 31.597656 65.742188 31.179688 65.472656 30.621094 C 65.207031 30.058594 65.175781 29.570312 65.410156 29.527344 C 65.644531 29.484375 66.050781 29.90625 66.316406 30.464844 Z M 66.316406 30.464844 "/>
<path style="fill-rule:evenodd;fill:rgb(0%,41.960144%,24.705505%);fill-opacity:1;stroke-width:0.0630773;stroke-linecap:butt;stroke-linejoin:miter;stroke:rgb(0%,0%,0%);stroke-opacity:1;stroke-miterlimit:4;" d="M 65.773438 30.910156 C 66.003906 31.484375 66.003906 31.972656 65.769531 32.003906 C 65.53125 32.03125 65.152344 31.589844 64.921875 31.019531 C 64.6875 30.445312 64.691406 29.953125 64.925781 29.925781 C 65.160156 29.894531 65.539062 30.335938 65.773438 30.910156 Z M 65.773438 30.910156 "/>
<path style=" stroke:none;fill-rule:evenodd;fill:rgb(0%,41.960144%,24.705505%);fill-opacity:1;" d="M 64.917969 30.316406 C 65.324219 31.304688 65.488281 32.191406 65.285156 32.300781 C 65.082031 32.40625 64.589844 31.691406 64.183594 30.703125 Z M 64.917969 30.316406 "/>
<path style="fill:none;stroke-width:0.0505378;stroke-linecap:butt;stroke-linejoin:miter;stroke:rgb(0%,0%,0%);stroke-opacity:1;stroke-miterlimit:4;" d="M 64.917969 30.316406 C 65.324219 31.304688 65.488281 32.191406 65.285156 32.300781 C 65.082031 32.40625 64.589844 31.691406 64.183594 30.703125 "/>
<path style=" stroke:none;fill-rule:evenodd;fill:rgb(0%,41.960144%,24.705505%);fill-opacity:1;" d="M 65.707031 29.75 C 65.9375 30.324219 65.9375 30.8125 65.699219 30.84375 C 65.464844 30.871094 65.085938 30.429688 64.855469 29.855469 C 64.621094 29.28125 64.625 28.792969 64.859375 28.765625 C 65.09375 28.734375 65.472656 29.175781 65.707031 29.75 Z M 65.707031 29.75 "/>
<path style="fill:none;stroke-width:0.0630773;stroke-linecap:butt;stroke-linejoin:miter;stroke:rgb(0%,0%,0%);stroke-opacity:1;stroke-miterlimit:4;" d="M 65.707031 29.75 C 65.9375 30.324219 65.9375 30.8125 65.699219 30.84375 C 65.464844 30.871094 65.085938 30.429688 64.855469 29.855469 C 64.621094 29.285156 64.625 28.792969 64.859375 28.765625 C 65.09375 28.734375 65.472656 29.175781 65.707031 29.75 Z M 65.707031 29.75 "/>
<path style="fill-rule:evenodd;fill:rgb(0%,41.960144%,24.705505%);fill-opacity:1;stroke-width:0.0639095;stroke-linecap:butt;stroke-linejoin:miter;stroke:rgb(0%,0%,0%);stroke-opacity:1;stroke-miterlimit:4;" d="M 65.03125 30.082031 C 65.25 30.660156 65.238281 31.152344 65 31.175781 C 64.765625 31.199219 64.398438 30.753906 64.175781 30.175781 C 63.957031 29.597656 63.96875 29.105469 64.207031 29.082031 C 64.441406 29.058594 64.808594 29.503906 65.03125 30.082031 Z M 65.03125 30.082031 "/>
<path style=" stroke:none;fill-rule:evenodd;fill:rgb(0%,41.960144%,24.705505%);fill-opacity:1;" d="M 64.214844 28.976562 C 64.609375 29.644531 64.820312 30.269531 64.6875 30.367188 C 64.554688 30.46875 64.128906 30.007812 63.738281 29.339844 Z M 64.214844 28.976562 "/>
<path style="fill:none;stroke-width:0.041249;stroke-linecap:butt;stroke-linejoin:miter;stroke:rgb(0%,0%,0%);stroke-opacity:1;stroke-miterlimit:4;" d="M 64.214844 28.976562 C 64.609375 29.644531 64.820312 30.269531 64.6875 30.367188 C 64.554688 30.46875 64.128906 30.007812 63.738281 29.339844 "/>
<path style=" stroke:none;fill-rule:evenodd;fill:rgb(0%,41.960144%,24.705505%);fill-opacity:1;" d="M 64.488281 28.535156 C 64.878906 29.203125 65.089844 29.824219 64.960938 29.925781 C 64.828125 30.027344 64.402344 29.566406 64.007812 28.898438 Z M 64.488281 28.535156 "/>
<path style="fill:none;stroke-width:0.041249;stroke-linecap:butt;stroke-linejoin:miter;stroke:rgb(0%,0%,0%);stroke-opacity:1;stroke-miterlimit:4;" d="M 64.488281 28.535156 C 64.878906 29.203125 65.089844 29.824219 64.960938 29.925781 C 64.828125 30.027344 64.402344 29.566406 64.007812 28.898438 "/>
<path style=" stroke:none;fill-rule:evenodd;fill:rgb(0%,41.960144%,24.705505%);fill-opacity:1;" d="M 65.707031 28.628906 C 66.253906 29.539062 66.550781 30.390625 66.363281 30.527344 C 66.179688 30.664062 65.585938 30.039062 65.039062 29.128906 Z M 65.707031 28.628906 "/>
<path style="fill:none;stroke-width:0.0412071;stroke-linecap:butt;stroke-linejoin:miter;stroke:rgb(0%,0%,0%);stroke-opacity:1;stroke-miterlimit:4;" d="M 65.707031 28.628906 C 66.253906 29.539062 66.550781 30.390625 66.363281 30.527344 C 66.179688 30.664062 65.585938 30.039062 65.039062 29.128906 "/>
<path style=" stroke:none;fill-rule:evenodd;fill:rgb(0%,41.960144%,24.705505%);fill-opacity:1;" d="M 64.902344 28.152344 C 65.296875 28.886719 65.507812 29.574219 65.375 29.683594 C 65.246094 29.796875 64.816406 29.289062 64.425781 28.550781 Z M 64.902344 28.152344 "/>
<path style="fill:none;stroke-width:0.04144;stroke-linecap:butt;stroke-linejoin:miter;stroke:rgb(0%,0%,0%);stroke-opacity:1;stroke-miterlimit:4;" d="M 64.902344 28.152344 C 65.296875 28.886719 65.507812 29.574219 65.375 29.6875 C 65.246094 29.796875 64.816406 29.289062 64.425781 28.550781 "/>
<path style="fill-rule:evenodd;fill:rgb(58.03833%,38.038635%,78.822327%);fill-opacity:1;stroke-width:0.0631361;stroke-linecap:butt;stroke-linejoin:miter;stroke:rgb(0%,0%,0%);stroke-opacity:1;stroke-miterlimit:4;" d="M 64.867188 27.085938 C 64.605469 27.347656 64.863281 27.84375 65.101562 28.023438 C 65.371094 28.269531 66.886719 29.867188 67.957031 28.519531 C 67.101562 28.503906 65.5 26.492188 64.867188 27.085938 Z M 64.867188 27.085938 "/>
<path style=" stroke:none;fill-rule:evenodd;fill:rgb(58.03833%,38.038635%,78.822327%);fill-opacity:1;" d="M 64.679688 26.292969 C 64.417969 26.558594 64.675781 27.054688 64.914062 27.234375 C 65.183594 27.476562 66.699219 29.078125 67.769531 27.730469 C 66.914062 27.71875 65.3125 25.707031 64.679688 26.292969 Z M 64.679688 26.292969 "/>
<path style="fill:none;stroke-width:0.0631361;stroke-linecap:butt;stroke-linejoin:miter;stroke:rgb(0%,0%,0%);stroke-opacity:1;stroke-miterlimit:4;" d="M 64.679688 26.292969 C 64.417969 26.558594 64.675781 27.054688 64.914062 27.234375 C 65.183594 27.476562 66.699219 29.078125 67.769531 27.730469 C 66.914062 27.714844 65.3125 25.707031 64.679688 26.292969 Z M 64.679688 26.292969 "/>
<path style="fill-rule:evenodd;fill:rgb(58.03833%,38.038635%,78.822327%);fill-opacity:1;stroke-width:0.0631361;stroke-linecap:butt;stroke-linejoin:miter;stroke:rgb(0%,0%,0%);stroke-opacity:1;stroke-miterlimit:4;" d="M 64.441406 25.539062 C 64.175781 25.804688 64.433594 26.296875 64.675781 26.476562 C 64.945312 26.722656 66.460938 28.320312 67.53125 26.976562 C 66.671875 26.960938 65.074219 24.949219 64.441406 25.539062 Z M 64.441406 25.539062 "/>
<path style="fill-rule:evenodd;fill:rgb(58.03833%,38.038635%,78.822327%);fill-opacity:1;stroke-width:0.0631361;stroke-linecap:butt;stroke-linejoin:miter;stroke:rgb(0%,0%,0%);stroke-opacity:1;stroke-miterlimit:4;" d="M 63.917969 24.671875 C 63.65625 24.9375 63.914062 25.433594 64.152344 25.613281 C 64.425781 25.855469 65.941406 27.457031 67.007812 26.109375 C 66.152344 26.09375 64.554688 24.082031 63.917969 24.671875 Z M 63.917969 24.671875 "/>
<path style="fill-rule:evenodd;fill:rgb(58.03833%,38.038635%,78.822327%);fill-opacity:1;stroke-width:0.0642976;stroke-linecap:butt;stroke-linejoin:miter;stroke:rgb(0%,0%,0%);stroke-opacity:1;stroke-miterlimit:4;" d="M 62.050781 23.847656 C 62.59375 23.441406 63.589844 23.324219 64.363281 23.71875 C 65.007812 24.035156 66.085938 25.328125 66.894531 25.632812 C 66.324219 25.734375 65.980469 25.648438 65.617188 25.472656 C 64.898438 25.992188 64.640625 26.070312 63.90625 26.175781 C 62.886719 26.320312 62.042969 26.054688 61.746094 25.523438 C 61.441406 25.023438 61.574219 24.21875 62.050781 23.847656 Z M 62.050781 23.847656 "/>
<path style="fill-rule:evenodd;fill:rgb(83.135986%,10.980225%,18.823242%);fill-opacity:1;stroke-width:0.0616872;stroke-linecap:butt;stroke-linejoin:miter;stroke:rgb(0%,0%,0%);stroke-opacity:1;stroke-miterlimit:4;" d="M 63.667969 24.660156 C 63.664062 24.808594 63.453125 24.925781 63.195312 24.917969 C 62.9375 24.914062 62.730469 24.789062 62.734375 24.640625 C 62.738281 24.492188 62.945312 24.375 63.207031 24.378906 C 63.460938 24.382812 63.667969 24.507812 63.667969 24.660156 Z M 63.667969 24.660156 "/>
<path style="fill-rule:evenodd;fill:rgb(98.822021%,81.959534%,8.627319%);fill-opacity:1;stroke-width:0.0545255;stroke-linecap:butt;stroke-linejoin:miter;stroke:rgb(0%,0%,0%);stroke-opacity:1;stroke-miterlimit:4;" d="M 62.386719 25.519531 C 62.460938 25.722656 62.253906 25.992188 61.914062 26.117188 C 61.578125 26.242188 61.242188 26.175781 61.167969 25.972656 C 61.089844 25.765625 61.300781 25.5 61.640625 25.371094 C 61.976562 25.246094 62.308594 25.3125 62.386719 25.519531 Z M 62.386719 25.519531 "/>
<path style=" stroke:none;fill-rule:evenodd;fill:rgb(0%,0%,0%);fill-opacity:1;" d="M 63.34375 24.632812 C 63.34375 24.714844 63.265625 24.777344 63.175781 24.777344 C 63.082031 24.773438 63.007812 24.707031 63.007812 24.628906 C 63.011719 24.550781 63.085938 24.484375 63.179688 24.488281 C 63.273438 24.488281 63.347656 24.554688 63.34375 24.632812 Z M 63.34375 24.632812 "/>
<path style="fill-rule:evenodd;fill:rgb(98.822021%,81.959534%,8.627319%);fill-opacity:1;stroke-width:0.0770217;stroke-linecap:butt;stroke-linejoin:miter;stroke:rgb(0%,0%,0%);stroke-opacity:1;stroke-miterlimit:4;" d="M 62.171875 25.011719 C 62.214844 25.21875 62.0625 25.5 61.726562 25.601562 C 61.386719 25.742188 61.128906 26.0625 60.980469 26.585938 C 60.460938 25.390625 60.789062 24.886719 61.339844 24.761719 C 61.8125 24.613281 62.097656 24.632812 62.171875 25.011719 Z M 62.171875 25.011719 "/>
<path style=" stroke:none;fill-rule:evenodd;fill:rgb(0%,0%,0%);fill-opacity:1;" d="M 61.792969 25.097656 C 61.796875 25.164062 61.746094 25.21875 61.679688 25.222656 C 61.613281 25.226562 61.558594 25.175781 61.554688 25.109375 C 61.550781 25.042969 61.601562 24.984375 61.667969 24.980469 C 61.730469 24.976562 61.789062 25.027344 61.792969 25.097656 Z M 61.792969 25.097656 "/>
</g>
</svg>
