<?xml version="1.0" encoding="UTF-8"?>
<svg xmlns="http://www.w3.org/2000/svg" xmlns:xlink="http://www.w3.org/1999/xlink" width="128pt" height="64pt" viewBox="0 0 128 64" version="1.1">
<g id="surface321">
<rect x="0" y="0" width="128" height="64" style="fill:rgb(86.273193%,14.117432%,12.156677%);fill-opacity:1;stroke:none;"/>
<path style=" stroke:none;fill-rule:evenodd;fill:rgb(99.998474%,78.038025%,14.901733%);fill-opacity:1;" d="M 0 0 L 0 64 L 64 32 Z M 0 0 "/>
<path style=" stroke:none;fill-rule:evenodd;fill:rgb(0%,0%,0%);fill-opacity:1;" d="M 0 0 L 0 64 L 42.667969 32 Z M 0 0 "/>
<path style=" stroke:none;fill-rule:evenodd;fill:rgb(99.998474%,99.998474%,99.998474%);fill-opacity:1;" d="M 10.992188 21.984375 L 12.660156 33.058594 L 17.933594 32.261719 Z M 10.992188 21.984375 "/>
<path style=" stroke:none;fill-rule:evenodd;fill:rgb(99.998474%,99.998474%,99.998474%);fill-opacity:1;" d="M 10.992188 21.984375 L 18.851562 29.960938 L 15.050781 33.703125 Z M 10.992188 21.984375 "/>
<path style=" stroke:none;fill-rule:evenodd;fill:rgb(99.998474%,99.998474%,99.998474%);fill-opacity:1;" d="M 23.980469 24.140625 L 13.960938 29.148438 L 16.347656 33.921875 Z M 23.980469 24.140625 "/>
<path style=" stroke:none;fill-rule:evenodd;fill:rgb(99.998474%,99.998474%,99.998474%);fill-opacity:1;" d="M 23.980469 24.140625 L 18.820312 34.082031 L 14.085938 31.625 Z M 23.980469 24.140625 "/>
<path style=" stroke:none;fill-rule:evenodd;fill:rgb(99.998474%,99.998474%,99.998474%);fill-opacity:1;" d="M 4.925781 33.667969 L 15.972656 35.503906 L 16.847656 30.242188 Z M 4.925781 33.667969 "/>
<path style=" stroke:none;fill-rule:evenodd;fill:rgb(99.998474%,99.998474%,99.998474%);fill-opacity:1;" d="M 4.925781 33.667969 L 14.941406 28.660156 L 17.328125 33.429688 Z M 4.925781 33.667969 "/>
<path style=" stroke:none;fill-rule:evenodd;fill:rgb(99.998474%,99.998474%,99.998474%);fill-opacity:1;" d="M 25.941406 37.160156 L 18.082031 29.179688 L 14.28125 32.921875 Z M 25.941406 37.160156 "/>
<path style=" stroke:none;fill-rule:evenodd;fill:rgb(99.998474%,99.998474%,99.998474%);fill-opacity:1;" d="M 25.941406 37.160156 L 14.890625 35.324219 L 15.765625 30.0625 Z M 25.941406 37.160156 "/>
<path style=" stroke:none;fill-rule:evenodd;fill:rgb(99.998474%,99.998474%,99.998474%);fill-opacity:1;" d="M 14.164062 43.046875 L 19.324219 33.109375 L 14.589844 30.652344 Z M 14.164062 43.046875 "/>
<path style=" stroke:none;fill-rule:evenodd;fill:rgb(99.998474%,99.998474%,99.998474%);fill-opacity:1;" d="M 14.164062 43.046875 L 12.496094 31.972656 L 17.769531 31.179688 Z M 14.164062 43.046875 "/>
</g>
</svg>
