<?xml version="1.0" encoding="UTF-8"?>
<svg xmlns="http://www.w3.org/2000/svg" xmlns:xlink="http://www.w3.org/1999/xlink" width="128pt" height="85pt" viewBox="0 0 128 85" version="1.1">
<defs>
<clipPath id="clip1">
  <path d="M 0 56 L 127.679688 56 L 127.679688 85 L 0 85 Z M 0 56 "/>
</clipPath>
<clipPath id="clip2">
  <path d="M 0 0 L 127.679688 0 L 127.679688 29 L 0 29 Z M 0 0 "/>
</clipPath>
</defs>
<g id="surface331">
<g clip-path="url(#clip1)" clip-rule="nonzero">
<path style=" stroke:none;fill-rule:evenodd;fill:rgb(0%,0%,0%);fill-opacity:1;" d="M 0 85 L 127.5 85 L 127.5 56.242188 L 0 56.242188 Z M 0 85 "/>
</g>
<g clip-path="url(#clip2)" clip-rule="nonzero">
<path style=" stroke:none;fill-rule:evenodd;fill:rgb(80.79834%,6.700134%,14.900208%);fill-opacity:1;" d="M 0 28.003906 L 127.5 28.003906 L 127.5 0 L 0 0 Z M 0 28.003906 "/>
</g>
<path style="fill-rule:evenodd;fill:rgb(99.998474%,99.998474%,99.998474%);fill-opacity:1;stroke-width:0.3247;stroke-linecap:round;stroke-linejoin:round;stroke:rgb(75.299072%,57.598877%,0%);stroke-opacity:1;stroke-miterlimit:3.239307;" d="M 63.484375 55.378906 C 66.3125 55.378906 69.015625 55.15625 70.605469 54.707031 C 71.277344 54.585938 71.277344 54.242188 71.277344 53.792969 C 71.945312 53.570312 71.601562 52.777344 72.070312 52.777344 C 71.601562 52.898438 71.5 51.984375 70.929688 52.109375 C 70.929688 51.316406 70.136719 51.214844 69.464844 51.4375 C 68.121094 51.882812 65.742188 51.984375 63.484375 51.984375 C 61.226562 51.882812 58.863281 51.882812 57.5 51.4375 C 56.832031 51.214844 56.039062 51.316406 56.039062 52.109375 C 55.46875 51.984375 55.367188 52.898438 54.898438 52.777344 C 55.367188 52.777344 55.019531 53.570312 55.691406 53.792969 C 55.691406 54.242188 55.691406 54.585938 56.382812 54.707031 C 57.949219 55.15625 60.65625 55.378906 63.484375 55.378906 Z M 63.484375 55.378906 "/>
<path style="fill-rule:evenodd;fill:rgb(99.998474%,99.998474%,99.998474%);fill-opacity:1;stroke-width:0.173542;stroke-linecap:round;stroke-linejoin:round;stroke:rgb(75.299072%,57.598877%,0%);stroke-opacity:1;stroke-miterlimit:3.239307;" d="M 63.597656 42.429688 L 73.308594 51.4375 L 72.617188 35.078125 C 72.515625 32.597656 70.359375 33.167969 68.792969 34.0625 C 67.207031 35.078125 65.394531 35.078125 63.484375 34.40625 C 61.570312 35.078125 59.761719 35.078125 58.171875 34.0625 C 56.605469 33.167969 54.449219 32.597656 54.347656 35.078125 L 53.65625 51.4375 Z M 63.597656 42.429688 "/>
<path style=" stroke:none;fill-rule:evenodd;fill:rgb(75.299072%,57.598877%,0%);fill-opacity:1;" d="M 66.3125 37.230469 L 66.636719 45.117188 L 67.550781 46.011719 L 67.207031 37.332031 C 66.984375 37.332031 66.414062 37.332031 66.3125 37.230469 Z M 66.3125 37.230469 "/>
<path style="fill-rule:evenodd;fill:rgb(75.299072%,57.598877%,0%);fill-opacity:1;stroke-width:0.146625;stroke-linecap:square;stroke-linejoin:miter;stroke:rgb(75.299072%,57.598877%,0%);stroke-opacity:1;stroke-miterlimit:4;" d="M 63.929688 44.222656 L 65.292969 50.421875 L 64.847656 50.867188 L 64.378906 50.523438 L 63.605469 44.996094 L 63.929688 50.523438 L 63.484375 51.089844 L 63.035156 50.523438 L 63.359375 44.996094 L 62.589844 50.523438 L 62.121094 50.867188 L 61.671875 50.421875 L 63.035156 44.222656 Z M 63.929688 44.222656 "/>
<path style=" stroke:none;fill-rule:evenodd;fill:rgb(75.299072%,57.598877%,0%);fill-opacity:1;" d="M 55.46875 34.507812 L 54.796875 50.421875 L 53.65625 51.4375 L 54.347656 35.078125 C 54.671875 34.855469 55.242188 34.507812 55.46875 34.507812 Z M 55.46875 34.507812 "/>
<path style=" stroke:none;fill-rule:evenodd;fill:rgb(75.299072%,57.598877%,0%);fill-opacity:1;" d="M 56.832031 35.648438 L 56.261719 48.957031 L 55.121094 50.121094 L 55.8125 34.753906 C 56.035156 34.976562 56.707031 35.523438 56.832031 35.648438 Z M 56.832031 35.648438 "/>
<path style=" stroke:none;fill-rule:evenodd;fill:rgb(75.299072%,57.598877%,0%);fill-opacity:1;" d="M 58.070312 36.664062 L 57.625 47.765625 L 56.707031 48.660156 L 57.277344 35.992188 C 57.5 36.214844 57.949219 36.542969 58.070312 36.664062 Z M 58.070312 36.664062 "/>
<path style=" stroke:none;fill-rule:evenodd;fill:rgb(75.299072%,57.598877%,0%);fill-opacity:1;" d="M 59.414062 37.230469 L 58.964844 46.695312 L 58.070312 47.417969 L 58.519531 36.886719 C 58.742188 36.988281 59.191406 37.230469 59.414062 37.230469 Z M 59.414062 37.230469 "/>
<path style=" stroke:none;fill-rule:evenodd;fill:rgb(75.299072%,57.598877%,0%);fill-opacity:1;" d="M 60.65625 37.230469 L 60.328125 45.117188 L 59.414062 46.011719 L 59.761719 37.332031 C 59.984375 37.332031 60.554688 37.332031 60.65625 37.230469 Z M 60.65625 37.230469 "/>
<path style=" stroke:none;fill-rule:evenodd;fill:rgb(75.299072%,57.598877%,0%);fill-opacity:1;" d="M 71.5 34.507812 L 72.171875 50.421875 L 73.308594 51.4375 L 72.617188 35.078125 C 72.292969 34.855469 71.722656 34.507812 71.5 34.507812 Z M 71.5 34.507812 "/>
<path style=" stroke:none;fill-rule:evenodd;fill:rgb(75.299072%,57.598877%,0%);fill-opacity:1;" d="M 70.136719 35.648438 L 70.707031 48.957031 L 71.84375 50.121094 L 71.152344 34.753906 C 70.929688 34.976562 70.257812 35.523438 70.136719 35.648438 Z M 70.136719 35.648438 "/>
<path style=" stroke:none;fill-rule:evenodd;fill:rgb(75.299072%,57.598877%,0%);fill-opacity:1;" d="M 68.894531 36.664062 L 69.34375 47.765625 L 70.257812 48.660156 L 69.6875 35.992188 C 69.464844 36.214844 69.019531 36.542969 68.894531 36.664062 Z M 68.894531 36.664062 "/>
<path style=" stroke:none;fill-rule:evenodd;fill:rgb(75.299072%,57.598877%,0%);fill-opacity:1;" d="M 67.550781 37.230469 L 68 46.695312 L 68.894531 47.417969 L 68.449219 36.886719 C 68.222656 36.988281 67.777344 37.230469 67.550781 37.230469 Z M 67.550781 37.230469 "/>
<path style="fill-rule:evenodd;fill:rgb(99.998474%,99.998474%,99.998474%);fill-opacity:1;stroke-width:0.16235;stroke-linecap:round;stroke-linejoin:round;stroke:rgb(75.299072%,57.598877%,0%);stroke-opacity:1;stroke-miterlimit:4;" d="M 60.429688 41.5 L 57.726562 51.089844 L 61.449219 51.660156 L 63.035156 44.445312 Z M 60.429688 41.5 "/>
<path style="fill-rule:evenodd;fill:rgb(99.998474%,99.998474%,99.998474%);fill-opacity:1;stroke-width:0.16235;stroke-linecap:round;stroke-linejoin:round;stroke:rgb(75.299072%,57.598877%,0%);stroke-opacity:1;stroke-miterlimit:4;" d="M 66.535156 41.5 L 69.242188 51.089844 L 65.519531 51.660156 L 63.929688 44.445312 Z M 66.535156 41.5 "/>
<path style="fill:none;stroke-width:0.173542;stroke-linecap:round;stroke-linejoin:round;stroke:rgb(75.299072%,57.598877%,0%);stroke-opacity:1;stroke-miterlimit:4;" d="M 67.429688 44.773438 L 67.105469 45.5625 L 65.34375 43.886719 "/>
<path style="fill:none;stroke-width:0.173542;stroke-linecap:round;stroke-linejoin:round;stroke:rgb(75.299072%,57.598877%,0%);stroke-opacity:1;stroke-miterlimit:4;" d="M 64.292969 46.671875 L 65.527344 48.546875 "/>
<path style="fill:none;stroke-width:0.173542;stroke-linecap:round;stroke-linejoin:round;stroke:rgb(75.299072%,57.598877%,0%);stroke-opacity:1;stroke-miterlimit:4;" d="M 65.140625 50.421875 L 65.539062 48.550781 L 65.882812 46.648438 L 66.710938 47.769531 L 67.074219 46.476562 L 68.234375 47.664062 L 67.644531 49.828125 L 66.832031 48.488281 L 66.382812 49.851562 L 65.546875 48.554688 "/>
<path style="fill:none;stroke-width:0.173542;stroke-linecap:round;stroke-linejoin:round;stroke:rgb(75.299072%,57.598877%,0%);stroke-opacity:1;stroke-miterlimit:4;" d="M 59.535156 44.773438 L 59.863281 45.5625 L 61.621094 43.886719 "/>
<path style="fill:none;stroke-width:0.173542;stroke-linecap:round;stroke-linejoin:round;stroke:rgb(75.299072%,57.598877%,0%);stroke-opacity:1;stroke-miterlimit:4;" d="M 60.753906 42.785156 L 61.125 46.234375 L 62.242188 44.773438 "/>
<path style="fill:none;stroke-width:0.173542;stroke-linecap:round;stroke-linejoin:round;stroke:rgb(75.299072%,57.598877%,0%);stroke-opacity:1;stroke-miterlimit:4;" d="M 61.792969 45.339844 L 62.40625 47.449219 "/>
<path style="fill:none;stroke-width:0.173542;stroke-linecap:round;stroke-linejoin:round;stroke:rgb(75.299072%,57.598877%,0%);stroke-opacity:1;stroke-miterlimit:4;" d="M 62.644531 46.671875 L 61.410156 48.546875 "/>
<path style="fill:none;stroke-width:0.173542;stroke-linecap:round;stroke-linejoin:round;stroke:rgb(75.299072%,57.598877%,0%);stroke-opacity:1;stroke-miterlimit:4;" d="M 61.792969 50.421875 L 61.398438 48.550781 L 61.054688 46.648438 L 60.226562 47.769531 L 59.863281 46.476562 L 58.703125 47.664062 L 59.292969 49.828125 L 60.105469 48.488281 L 60.554688 49.851562 L 61.390625 48.554688 "/>
<path style="fill:none;stroke-width:0.173542;stroke-linecap:round;stroke-linejoin:round;stroke:rgb(75.299072%,57.598877%,0%);stroke-opacity:1;stroke-miterlimit:4;" d="M 58.519531 50.867188 L 59.269531 49.8125 L 59.761719 51.4375 L 60.429688 50.296875 L 60.878906 51.660156 "/>
<path style="fill:none;stroke-width:0.173542;stroke-linecap:round;stroke-linejoin:round;stroke:rgb(75.299072%,57.598877%,0%);stroke-opacity:1;stroke-miterlimit:4;" d="M 68.476562 50.867188 L 67.726562 49.8125 L 67.238281 51.4375 L 66.566406 50.296875 L 66.117188 51.660156 "/>
<path style="fill-rule:evenodd;fill:rgb(99.998474%,99.998474%,99.998474%);fill-opacity:1;stroke-width:0.173542;stroke-linecap:round;stroke-linejoin:round;stroke:rgb(75.299072%,57.598877%,0%);stroke-opacity:1;stroke-miterlimit:4;" d="M 59.636719 51.089844 C 60.554688 51.214844 61.570312 51.316406 62.363281 51.214844 C 62.8125 51.214844 63.136719 51.984375 62.242188 52.109375 C 61.449219 52.207031 60.207031 52.109375 59.535156 51.984375 C 58.964844 51.882812 57.726562 51.660156 56.933594 51.4375 C 56.136719 51.089844 56.707031 50.421875 57.15625 50.523438 C 57.847656 50.746094 58.742188 50.96875 59.636719 51.089844 Z M 59.636719 51.089844 "/>
<path style="fill-rule:evenodd;fill:rgb(99.998474%,99.998474%,99.998474%);fill-opacity:1;stroke-width:0.173542;stroke-linecap:round;stroke-linejoin:round;stroke:rgb(75.299072%,57.598877%,0%);stroke-opacity:1;stroke-miterlimit:4;" d="M 67.328125 51.089844 C 66.414062 51.214844 65.394531 51.316406 64.621094 51.214844 C 64.15625 51.214844 63.828125 51.984375 64.722656 52.109375 C 65.519531 52.207031 66.757812 52.109375 67.429688 51.984375 C 68 51.882812 69.242188 51.660156 70.035156 51.4375 C 70.828125 51.089844 70.257812 50.421875 69.808594 50.523438 C 69.117188 50.746094 68.222656 50.96875 67.328125 51.089844 Z M 67.328125 51.089844 "/>
<path style="fill-rule:evenodd;fill:rgb(99.998474%,99.998474%,99.998474%);fill-opacity:1;stroke-width:0.173542;stroke-linecap:round;stroke-linejoin:round;stroke:rgb(75.299072%,57.598877%,0%);stroke-opacity:1;stroke-miterlimit:4;" d="M 56.832031 50.644531 C 56.136719 50.523438 55.8125 51.316406 56.035156 51.761719 C 56.140625 51.539062 56.605469 51.539062 56.707031 51.316406 C 56.832031 50.96875 56.605469 50.96875 56.832031 50.644531 Z M 56.832031 50.644531 "/>
<path style="fill-rule:evenodd;fill:rgb(99.998474%,99.998474%,99.998474%);fill-opacity:1;stroke-width:0.173542;stroke-linecap:round;stroke-linejoin:round;stroke:rgb(75.299072%,57.598877%,0%);stroke-opacity:1;stroke-miterlimit:4;" d="M 59.535156 52.722656 C 59.535156 52.277344 59.984375 52.332031 59.984375 51.882812 C 59.984375 51.660156 59.863281 51.316406 59.636719 51.316406 C 59.414062 51.316406 59.191406 51.539062 59.191406 51.761719 C 59.089844 52.207031 59.535156 52.277344 59.535156 52.722656 Z M 59.535156 52.722656 "/>
<path style="fill-rule:evenodd;fill:rgb(99.998474%,99.998474%,99.998474%);fill-opacity:1;stroke-width:0.173542;stroke-linecap:round;stroke-linejoin:round;stroke:rgb(75.299072%,57.598877%,0%);stroke-opacity:1;stroke-miterlimit:4;" d="M 62.757812 51.4375 C 63.425781 51.4375 63.359375 52.332031 63.035156 52.777344 C 63.035156 52.453125 62.464844 52.332031 62.464844 52.109375 C 62.464844 51.761719 62.980469 51.761719 62.757812 51.4375 Z M 62.757812 51.4375 "/>
<path style="fill-rule:evenodd;fill:rgb(99.998474%,99.998474%,99.998474%);fill-opacity:1;stroke-width:0.173542;stroke-linecap:round;stroke-linejoin:round;stroke:rgb(75.299072%,57.598877%,0%);stroke-opacity:1;stroke-miterlimit:4;" d="M 70.136719 50.644531 C 70.828125 50.523438 71.152344 51.316406 70.929688 51.761719 C 70.828125 51.539062 70.359375 51.539062 70.257812 51.316406 C 70.136719 50.96875 70.359375 50.96875 70.136719 50.644531 Z M 70.136719 50.644531 "/>
<path style="fill-rule:evenodd;fill:rgb(99.998474%,99.998474%,99.998474%);fill-opacity:1;stroke-width:0.173542;stroke-linecap:round;stroke-linejoin:round;stroke:rgb(75.299072%,57.598877%,0%);stroke-opacity:1;stroke-miterlimit:4;" d="M 67.429688 52.722656 C 67.429688 52.277344 66.984375 52.332031 66.984375 51.882812 C 66.984375 51.660156 67.105469 51.316406 67.328125 51.316406 C 67.550781 51.316406 67.777344 51.539062 67.777344 51.761719 C 67.878906 52.207031 67.429688 52.277344 67.429688 52.722656 Z M 67.429688 52.722656 "/>
<path style="fill-rule:evenodd;fill:rgb(99.998474%,99.998474%,99.998474%);fill-opacity:1;stroke-width:0.173542;stroke-linecap:round;stroke-linejoin:round;stroke:rgb(75.299072%,57.598877%,0%);stroke-opacity:1;stroke-miterlimit:4;" d="M 64.210938 51.4375 C 63.539062 51.4375 63.605469 52.332031 63.929688 52.777344 C 63.929688 52.453125 64.5 52.332031 64.5 52.109375 C 64.5 51.761719 63.984375 51.761719 64.210938 51.4375 Z M 64.210938 51.4375 "/>
<path style="fill:none;stroke-width:0.121833;stroke-linecap:round;stroke-linejoin:round;stroke:rgb(75.299072%,57.598877%,0%);stroke-opacity:1;stroke-miterlimit:4;" d="M 57.054688 50.867188 C 57.277344 50.867188 57.625 50.96875 57.726562 51.089844 Z M 57.054688 50.867188 "/>
<path style="fill:none;stroke-width:0.121833;stroke-linecap:round;stroke-linejoin:round;stroke:rgb(75.299072%,57.598877%,0%);stroke-opacity:1;stroke-miterlimit:4;" d="M 58.171875 51.214844 C 58.296875 51.214844 58.742188 51.316406 58.964844 51.4375 Z M 58.171875 51.214844 "/>
<path style="fill:none;stroke-width:0.121833;stroke-linecap:round;stroke-linejoin:round;stroke:rgb(75.299072%,57.598877%,0%);stroke-opacity:1;stroke-miterlimit:4;" d="M 62.242188 51.660156 C 62.019531 51.660156 61.570312 51.660156 61.449219 51.761719 Z M 62.242188 51.660156 "/>
<path style="fill:none;stroke-width:0.121833;stroke-linecap:round;stroke-linejoin:round;stroke:rgb(75.299072%,57.598877%,0%);stroke-opacity:1;stroke-miterlimit:4;" d="M 61 51.660156 C 60.878906 51.539062 60.429688 51.539062 60.207031 51.660156 Z M 61 51.660156 "/>
<path style="fill-rule:evenodd;fill:rgb(99.998474%,99.998474%,99.998474%);fill-opacity:1;stroke-width:0.121833;stroke-linecap:round;stroke-linejoin:round;stroke:rgb(75.299072%,57.598877%,0%);stroke-opacity:1;stroke-miterlimit:4;" d="M 69.914062 50.867188 C 69.6875 50.867188 69.363281 50.96875 69.242188 51.089844 Z M 69.914062 50.867188 "/>
<path style="fill-rule:evenodd;fill:rgb(99.998474%,99.998474%,99.998474%);fill-opacity:1;stroke-width:0.121833;stroke-linecap:round;stroke-linejoin:round;stroke:rgb(75.299072%,57.598877%,0%);stroke-opacity:1;stroke-miterlimit:4;" d="M 68.792969 51.214844 C 68.671875 51.214844 68.222656 51.316406 68 51.4375 Z M 68.792969 51.214844 "/>
<path style="fill-rule:evenodd;fill:rgb(99.998474%,99.998474%,99.998474%);fill-opacity:1;stroke-width:0.121833;stroke-linecap:round;stroke-linejoin:round;stroke:rgb(75.299072%,57.598877%,0%);stroke-opacity:1;stroke-miterlimit:4;" d="M 64.722656 51.660156 C 64.949219 51.660156 65.394531 51.660156 65.519531 51.761719 Z M 64.722656 51.660156 "/>
<path style="fill-rule:evenodd;fill:rgb(99.998474%,99.998474%,99.998474%);fill-opacity:1;stroke-width:0.121833;stroke-linecap:round;stroke-linejoin:round;stroke:rgb(75.299072%,57.598877%,0%);stroke-opacity:1;stroke-miterlimit:4;" d="M 65.964844 51.660156 C 66.085938 51.539062 66.535156 51.539062 66.757812 51.660156 Z M 65.964844 51.660156 "/>
<path style="fill:none;stroke-width:0.173542;stroke-linecap:round;stroke-linejoin:round;stroke:rgb(75.299072%,57.598877%,0%);stroke-opacity:1;stroke-miterlimit:4;" d="M 66.234375 42.785156 L 65.863281 46.234375 L 64.746094 44.773438 "/>
<path style="fill-rule:evenodd;fill:rgb(99.998474%,99.998474%,99.998474%);fill-opacity:1;stroke-width:0.157108;stroke-linecap:butt;stroke-linejoin:miter;stroke:rgb(75.299072%,57.598877%,0%);stroke-opacity:1;stroke-miterlimit:4;" d="M 63.480469 45.945312 C 68.109375 42.390625 67.710938 37.179688 67.710938 37.179688 C 67.589844 37.203125 67.472656 37.214844 67.351562 37.214844 C 66.382812 37.214844 64.066406 36.660156 63.523438 35.957031 C 62.945312 36.59375 60.578125 37.214844 59.613281 37.214844 C 59.492188 37.214844 59.371094 37.203125 59.253906 37.179688 C 59.253906 37.179688 58.851562 42.390625 63.480469 45.945312 Z M 63.480469 45.945312 "/>
<path style=" stroke:none;fill-rule:evenodd;fill:rgb(99.998474%,99.998474%,99.998474%);fill-opacity:1;" d="M 67.34375 37.5625 C 67.304688 37.5625 67.265625 37.566406 67.222656 37.566406 C 66.34375 37.566406 64.300781 37.113281 63.511719 36.4375 C 62.6875 37.0625 60.609375 37.566406 59.742188 37.566406 C 59.703125 37.566406 59.664062 37.558594 59.621094 37.554688 C 59.621094 37.75 59.628906 37.953125 59.644531 38.140625 C 59.6875 38.835938 59.8125 39.53125 59.996094 40.203125 C 60.578125 42.3125 61.769531 44.105469 63.480469 45.464844 C 65.191406 44.101562 66.386719 42.308594 66.96875 40.195312 C 67.15625 39.527344 67.277344 38.828125 67.324219 38.136719 C 67.335938 37.953125 67.34375 37.753906 67.34375 37.5625 Z M 67.34375 37.5625 "/>
<path style="fill:none;stroke-width:0.173542;stroke-linecap:round;stroke-linejoin:round;stroke:rgb(75.299072%,57.598877%,0%);stroke-opacity:1;stroke-miterlimit:4;" d="M 65.128906 45.339844 L 64.515625 47.449219 "/>
<path style=" stroke:none;fill-rule:evenodd;fill:rgb(75.299072%,57.598877%,0%);fill-opacity:1;" d="M 56.867188 52.652344 C 56.789062 52.640625 56.75 52.578125 56.769531 52.507812 C 56.792969 52.421875 56.863281 52.375 56.925781 52.394531 C 56.96875 52.410156 57.042969 52.488281 57.046875 52.515625 C 57.046875 52.546875 57.003906 52.621094 56.988281 52.621094 C 56.980469 52.621094 56.96875 52.628906 56.960938 52.636719 C 56.949219 52.652344 56.902344 52.660156 56.867188 52.652344 Z M 56.867188 52.652344 "/>
<path style=" stroke:none;fill-rule:evenodd;fill:rgb(75.299072%,57.598877%,0%);fill-opacity:1;" d="M 64.65625 53.210938 C 64.625 53.199219 64.582031 53.136719 64.582031 53.105469 C 64.582031 53.050781 64.664062 52.964844 64.714844 52.960938 C 64.738281 52.960938 64.804688 52.996094 64.832031 53.023438 C 64.878906 53.070312 64.867188 53.152344 64.808594 53.195312 C 64.78125 53.21875 64.695312 53.226562 64.65625 53.210938 Z M 64.65625 53.210938 "/>
<path style=" stroke:none;fill-rule:evenodd;fill:rgb(75.299072%,57.598877%,0%);fill-opacity:1;" d="M 64.707031 53.5625 C 64.648438 53.539062 64.625 53.511719 64.621094 53.445312 C 64.613281 53.378906 64.621094 53.367188 64.695312 53.328125 L 64.746094 53.296875 L 64.796875 53.320312 C 64.863281 53.351562 64.894531 53.382812 64.894531 53.429688 C 64.898438 53.476562 64.863281 53.527344 64.804688 53.554688 C 64.753906 53.578125 64.753906 53.578125 64.707031 53.5625 Z M 64.707031 53.5625 "/>
<path style=" stroke:none;fill-rule:evenodd;fill:rgb(75.299072%,57.598877%,0%);fill-opacity:1;" d="M 58.207031 53.75 C 58.175781 53.738281 58.097656 53.71875 58.03125 53.707031 C 57.882812 53.679688 57.652344 53.628906 57.589844 53.609375 C 57.5625 53.601562 57.515625 53.589844 57.480469 53.582031 C 57.421875 53.566406 57.390625 53.558594 57.296875 53.527344 C 57.265625 53.515625 57.195312 53.496094 57.136719 53.480469 C 57.078125 53.46875 57.007812 53.449219 56.984375 53.4375 C 56.957031 53.425781 56.929688 53.417969 56.917969 53.417969 C 56.90625 53.417969 56.878906 53.410156 56.859375 53.398438 C 56.839844 53.390625 56.796875 53.378906 56.757812 53.375 C 56.679688 53.367188 56.621094 53.339844 56.585938 53.292969 C 56.558594 53.253906 56.558594 53.226562 56.585938 53.171875 C 56.59375 53.148438 56.605469 53.121094 56.605469 53.113281 C 56.605469 53.101562 56.613281 53.085938 56.625 53.078125 C 56.636719 53.066406 56.648438 53.054688 56.648438 53.050781 C 56.648438 53.039062 56.695312 52.964844 56.726562 52.9375 C 56.761719 52.894531 56.84375 52.859375 56.886719 52.859375 C 56.914062 52.855469 56.9375 52.851562 56.949219 52.839844 C 56.960938 52.828125 56.988281 52.820312 57.042969 52.816406 L 57.117188 52.808594 L 57.144531 52.757812 C 57.160156 52.730469 57.171875 52.691406 57.171875 52.675781 C 57.175781 52.660156 57.179688 52.632812 57.191406 52.613281 C 57.199219 52.597656 57.214844 52.554688 57.222656 52.523438 C 57.25 52.394531 57.273438 52.324219 57.285156 52.3125 C 57.304688 52.292969 57.300781 52.285156 57.269531 52.246094 C 57.253906 52.226562 57.230469 52.210938 57.21875 52.210938 C 57.183594 52.210938 57.125 52.234375 57.105469 52.253906 C 57.070312 52.289062 57.019531 52.316406 56.984375 52.316406 C 56.933594 52.316406 56.867188 52.28125 56.84375 52.238281 C 56.824219 52.207031 56.824219 52.203125 56.847656 52.160156 C 56.863281 52.128906 56.882812 52.109375 56.898438 52.101562 C 56.945312 52.085938 57.054688 52.09375 57.082031 52.113281 C 57.101562 52.132812 57.113281 52.132812 57.171875 52.125 C 57.210938 52.121094 57.246094 52.113281 57.246094 52.109375 C 57.25 52.105469 57.273438 52.097656 57.300781 52.09375 C 57.324219 52.089844 57.347656 52.082031 57.351562 52.074219 C 57.355469 52.066406 57.375 52.054688 57.394531 52.050781 C 57.414062 52.046875 57.4375 52.039062 57.445312 52.03125 C 57.453125 52.023438 57.46875 52.015625 57.488281 52.015625 C 57.511719 52.015625 57.523438 52.023438 57.535156 52.046875 C 57.550781 52.078125 57.550781 52.089844 57.539062 52.148438 C 57.535156 52.183594 57.519531 52.230469 57.507812 52.25 C 57.496094 52.273438 57.488281 52.308594 57.488281 52.328125 C 57.488281 52.355469 57.480469 52.378906 57.46875 52.394531 C 57.457031 52.40625 57.449219 52.425781 57.449219 52.441406 C 57.449219 52.453125 57.441406 52.46875 57.433594 52.480469 C 57.421875 52.488281 57.410156 52.523438 57.40625 52.558594 C 57.398438 52.59375 57.386719 52.632812 57.382812 52.644531 C 57.375 52.65625 57.363281 52.683594 57.363281 52.710938 C 57.359375 52.738281 57.347656 52.765625 57.339844 52.773438 C 57.332031 52.777344 57.324219 52.796875 57.324219 52.816406 C 57.324219 52.835938 57.316406 52.867188 57.304688 52.886719 C 57.296875 52.90625 57.285156 52.949219 57.28125 52.976562 C 57.277344 53.007812 57.265625 53.042969 57.257812 53.050781 C 57.25 53.0625 57.242188 53.097656 57.238281 53.125 C 57.234375 53.152344 57.222656 53.1875 57.214844 53.199219 C 57.203125 53.21875 57.203125 53.226562 57.222656 53.25 C 57.253906 53.292969 57.347656 53.320312 57.441406 53.320312 C 57.511719 53.320312 57.515625 53.320312 57.542969 53.285156 C 57.558594 53.265625 57.574219 53.234375 57.578125 53.203125 C 57.582031 53.179688 57.589844 53.144531 57.601562 53.128906 C 57.609375 53.113281 57.613281 53.074219 57.613281 53.042969 C 57.613281 52.988281 57.609375 52.980469 57.574219 52.953125 C 57.539062 52.925781 57.539062 52.921875 57.550781 52.898438 C 57.5625 52.871094 57.609375 52.851562 57.65625 52.851562 C 57.664062 52.851562 57.683594 52.839844 57.699219 52.832031 C 57.710938 52.820312 57.734375 52.808594 57.746094 52.804688 C 57.757812 52.800781 57.789062 52.78125 57.808594 52.761719 C 57.855469 52.71875 57.886719 52.71875 57.910156 52.757812 C 57.921875 52.78125 57.921875 52.789062 57.90625 52.832031 C 57.898438 52.859375 57.890625 52.902344 57.890625 52.929688 C 57.890625 52.953125 57.882812 52.980469 57.875 52.988281 C 57.867188 53 57.855469 53.027344 57.851562 53.050781 C 57.84375 53.078125 57.832031 53.117188 57.824219 53.140625 C 57.816406 53.160156 57.808594 53.199219 57.808594 53.222656 C 57.808594 53.242188 57.800781 53.28125 57.789062 53.300781 C 57.757812 53.359375 57.761719 53.394531 57.800781 53.414062 C 57.808594 53.417969 57.828125 53.425781 57.84375 53.433594 C 57.855469 53.441406 57.886719 53.449219 57.910156 53.449219 C 57.933594 53.449219 57.972656 53.457031 58 53.46875 C 58.023438 53.480469 58.078125 53.492188 58.113281 53.492188 C 58.179688 53.5 58.179688 53.5 58.210938 53.46875 C 58.230469 53.445312 58.246094 53.410156 58.253906 53.375 C 58.261719 53.34375 58.269531 53.308594 58.273438 53.296875 C 58.28125 53.257812 58.265625 53.203125 58.234375 53.175781 C 58.175781 53.121094 58.199219 53.046875 58.273438 53.046875 C 58.308594 53.046875 58.398438 53.011719 58.421875 52.988281 C 58.484375 52.929688 58.527344 52.914062 58.566406 52.933594 C 58.597656 52.949219 58.605469 52.988281 58.585938 53.023438 C 58.578125 53.039062 58.566406 53.078125 58.558594 53.109375 C 58.550781 53.144531 58.535156 53.203125 58.523438 53.246094 C 58.511719 53.285156 58.492188 53.355469 58.484375 53.398438 C 58.476562 53.441406 58.460938 53.507812 58.449219 53.539062 C 58.4375 53.574219 58.429688 53.609375 58.429688 53.621094 C 58.429688 53.628906 58.417969 53.660156 58.40625 53.691406 C 58.371094 53.773438 58.320312 53.789062 58.207031 53.75 Z M 58.207031 53.75 "/>
<path style=" stroke:none;fill-rule:evenodd;fill:rgb(75.299072%,57.598877%,0%);fill-opacity:1;" d="M 56.835938 53.753906 C 56.765625 53.691406 56.777344 53.640625 56.878906 53.5625 C 56.925781 53.53125 56.953125 53.535156 57.003906 53.582031 C 57.082031 53.652344 57.085938 53.699219 57.015625 53.757812 C 56.980469 53.789062 56.964844 53.796875 56.925781 53.796875 C 56.882812 53.796875 56.871094 53.789062 56.835938 53.753906 Z M 56.835938 53.753906 "/>
<path style=" stroke:none;fill-rule:evenodd;fill:rgb(75.299072%,57.598877%,0%);fill-opacity:1;" d="M 57.265625 53.886719 C 57.199219 53.871094 57.160156 53.800781 57.179688 53.734375 C 57.195312 53.671875 57.207031 53.664062 57.296875 53.664062 C 57.398438 53.664062 57.417969 53.679688 57.421875 53.769531 C 57.421875 53.820312 57.417969 53.832031 57.390625 53.855469 C 57.363281 53.882812 57.304688 53.894531 57.265625 53.886719 Z M 57.265625 53.886719 "/>
<path style=" stroke:none;fill-rule:evenodd;fill:rgb(75.299072%,57.598877%,0%);fill-opacity:1;" d="M 69.902344 53.898438 C 69.871094 53.871094 69.863281 53.859375 69.863281 53.824219 C 69.863281 53.765625 69.898438 53.722656 69.96875 53.691406 C 70.066406 53.648438 70.105469 53.652344 70.144531 53.71875 C 70.191406 53.804688 70.1875 53.835938 70.132812 53.894531 C 70.097656 53.925781 70.09375 53.929688 70.019531 53.929688 C 69.949219 53.929688 69.941406 53.925781 69.902344 53.898438 Z M 69.902344 53.898438 "/>
<path style=" stroke:none;fill-rule:evenodd;fill:rgb(75.299072%,57.598877%,0%);fill-opacity:1;" d="M 57.839844 54.0625 C 57.789062 54.046875 57.761719 54.007812 57.761719 53.945312 C 57.761719 53.898438 57.765625 53.890625 57.796875 53.867188 C 57.820312 53.847656 57.855469 53.835938 57.878906 53.832031 C 57.917969 53.824219 57.933594 53.828125 57.960938 53.851562 C 58.039062 53.90625 58.058594 53.960938 58.011719 54.011719 C 57.964844 54.066406 57.917969 54.082031 57.839844 54.0625 Z M 57.839844 54.0625 "/>
<path style=" stroke:none;fill-rule:evenodd;fill:rgb(75.299072%,57.598877%,0%);fill-opacity:1;" d="M 60.949219 54.199219 L 60.910156 54.164062 L 60.914062 54.082031 C 60.917969 54.035156 60.929688 53.976562 60.9375 53.953125 C 60.945312 53.929688 60.953125 53.878906 60.953125 53.839844 C 60.953125 53.800781 60.957031 53.746094 60.964844 53.722656 C 60.972656 53.699219 60.988281 53.609375 60.996094 53.523438 C 61.003906 53.4375 61.015625 53.355469 61.023438 53.339844 C 61.027344 53.324219 61.03125 53.289062 61.03125 53.257812 C 61.03125 53.222656 61.039062 53.167969 61.050781 53.132812 C 61.0625 53.089844 61.070312 53.03125 61.066406 52.96875 C 61.066406 52.914062 61.074219 52.855469 61.078125 52.835938 C 61.085938 52.816406 61.089844 52.789062 61.089844 52.777344 C 61.089844 52.75 61.125 52.691406 61.140625 52.691406 C 61.148438 52.691406 61.167969 52.71875 61.191406 52.746094 C 61.210938 52.777344 61.253906 52.824219 61.285156 52.851562 C 61.421875 52.980469 61.414062 52.96875 61.371094 53.007812 C 61.355469 53.023438 61.335938 53.039062 61.332031 53.039062 C 61.324219 53.039062 61.308594 53.050781 61.292969 53.066406 C 61.269531 53.089844 61.261719 53.105469 61.261719 53.152344 C 61.261719 53.179688 61.257812 53.226562 61.246094 53.246094 C 61.230469 53.285156 61.21875 53.421875 61.210938 53.570312 C 61.210938 53.601562 61.207031 53.632812 61.199219 53.640625 C 61.195312 53.648438 61.1875 53.722656 61.183594 53.804688 C 61.183594 53.886719 61.175781 53.960938 61.171875 53.96875 C 61.164062 53.976562 61.160156 54 61.160156 54.023438 C 61.160156 54.105469 61.140625 54.179688 61.117188 54.207031 C 61.097656 54.226562 61.082031 54.234375 61.039062 54.234375 C 60.996094 54.234375 60.984375 54.230469 60.949219 54.199219 Z M 60.949219 54.199219 "/>
<path style=" stroke:none;fill-rule:evenodd;fill:rgb(75.299072%,57.598877%,0%);fill-opacity:1;" d="M 64.746094 54.324219 C 64.722656 54.296875 64.722656 54.289062 64.734375 54.230469 C 64.738281 54.199219 64.746094 54.140625 64.746094 54.105469 C 64.746094 54.066406 64.753906 54.027344 64.757812 54.015625 C 64.765625 54.003906 64.773438 53.976562 64.773438 53.960938 C 64.769531 53.933594 64.78125 53.914062 64.8125 53.882812 C 64.835938 53.863281 64.855469 53.839844 64.855469 53.832031 C 64.855469 53.820312 64.9375 53.757812 64.957031 53.753906 C 64.960938 53.753906 64.976562 53.746094 64.988281 53.734375 C 64.996094 53.722656 65.019531 53.714844 65.035156 53.714844 C 65.050781 53.714844 65.074219 53.703125 65.089844 53.691406 C 65.117188 53.667969 65.121094 53.660156 65.117188 53.578125 C 65.117188 53.523438 65.109375 53.472656 65.101562 53.441406 C 65.089844 53.417969 65.085938 53.386719 65.085938 53.375 C 65.085938 53.363281 65.082031 53.304688 65.078125 53.246094 C 65.070312 53.148438 65.066406 53.132812 65.042969 53.109375 C 65.027344 53.09375 65.007812 53.082031 65 53.082031 C 64.988281 53.082031 64.9375 53.023438 64.945312 53.015625 C 65.015625 52.9375 65.148438 52.816406 65.160156 52.808594 C 65.191406 52.800781 65.238281 52.820312 65.25 52.847656 C 65.253906 52.863281 65.261719 52.925781 65.265625 52.984375 C 65.269531 53.046875 65.277344 53.121094 65.285156 53.15625 C 65.289062 53.1875 65.300781 53.292969 65.308594 53.390625 C 65.316406 53.484375 65.324219 53.578125 65.332031 53.597656 C 65.335938 53.617188 65.34375 53.707031 65.351562 53.792969 C 65.355469 53.878906 65.363281 53.96875 65.371094 53.988281 C 65.390625 54.0625 65.476562 54.109375 65.535156 54.078125 C 65.546875 54.070312 65.59375 54.0625 65.636719 54.054688 C 65.742188 54.039062 65.746094 54.035156 65.734375 53.882812 C 65.730469 53.777344 65.726562 53.765625 65.699219 53.734375 C 65.683594 53.714844 65.660156 53.695312 65.644531 53.691406 C 65.617188 53.683594 65.597656 53.660156 65.597656 53.628906 C 65.597656 53.605469 65.652344 53.546875 65.6875 53.539062 C 65.699219 53.535156 65.730469 53.511719 65.757812 53.492188 C 65.816406 53.441406 65.855469 53.4375 65.894531 53.480469 C 65.917969 53.503906 65.921875 53.515625 65.929688 53.652344 C 65.933594 53.761719 65.941406 53.8125 65.953125 53.832031 C 65.96875 53.855469 65.972656 53.890625 65.972656 53.964844 C 65.972656 54.035156 65.980469 54.082031 65.992188 54.105469 C 66.007812 54.140625 66.007812 54.148438 65.992188 54.175781 C 65.984375 54.195312 65.976562 54.21875 65.972656 54.230469 C 65.964844 54.261719 65.945312 54.265625 65.847656 54.269531 C 65.804688 54.269531 65.75 54.273438 65.726562 54.28125 C 65.703125 54.289062 65.640625 54.292969 65.589844 54.296875 C 65.363281 54.300781 65.058594 54.328125 65.039062 54.34375 C 65.027344 54.351562 64.992188 54.355469 64.898438 54.359375 L 64.769531 54.359375 L 64.746094 54.328125 Z M 64.746094 54.324219 "/>
<path style=" stroke:none;fill-rule:evenodd;fill:rgb(75.299072%,57.598877%,0%);fill-opacity:1;" d="M 60.285156 54.496094 C 60.269531 54.488281 60.257812 54.480469 60.257812 54.476562 C 60.257812 54.46875 60.15625 54.40625 60.140625 54.40625 C 60.132812 54.40625 60.125 54.394531 60.121094 54.378906 C 60.121094 54.363281 60.105469 54.320312 60.09375 54.28125 C 60.074219 54.21875 60.074219 54.167969 60.09375 54.15625 C 60.109375 54.144531 60.105469 54.113281 60.085938 54.097656 C 60.070312 54.085938 60.039062 54.078125 59.992188 54.074219 C 59.890625 54.070312 59.878906 54.066406 59.84375 54.035156 C 59.820312 54.015625 59.8125 54 59.804688 53.945312 C 59.800781 53.90625 59.789062 53.871094 59.777344 53.859375 C 59.757812 53.835938 59.722656 53.832031 59.714844 53.847656 C 59.710938 53.851562 59.695312 53.859375 59.675781 53.863281 C 59.65625 53.867188 59.640625 53.878906 59.632812 53.894531 C 59.628906 53.910156 59.609375 53.9375 59.597656 53.957031 C 59.570312 53.992188 59.566406 53.992188 59.5 53.992188 C 59.464844 53.996094 59.417969 53.988281 59.398438 53.980469 C 59.355469 53.964844 59.308594 53.957031 59.191406 53.949219 C 59.027344 53.9375 58.949219 53.949219 58.9375 53.992188 C 58.921875 54.046875 58.785156 54.160156 58.726562 54.171875 C 58.703125 54.175781 58.664062 54.183594 58.640625 54.191406 C 58.613281 54.199219 58.589844 54.203125 58.582031 54.203125 C 58.578125 54.199219 58.523438 54.1875 58.457031 54.179688 C 58.339844 54.167969 58.296875 54.148438 58.296875 54.105469 C 58.296875 54.082031 58.367188 54.046875 58.398438 54.058594 C 58.425781 54.066406 58.476562 54.066406 58.476562 54.054688 C 58.476562 54.050781 58.503906 54.042969 58.535156 54.035156 C 58.566406 54.027344 58.597656 54.015625 58.605469 54.007812 C 58.609375 54 58.628906 53.992188 58.648438 53.992188 C 58.671875 53.992188 58.683594 53.984375 58.710938 53.945312 C 58.726562 53.917969 58.742188 53.890625 58.742188 53.882812 C 58.742188 53.875 58.75 53.855469 58.761719 53.839844 C 58.773438 53.824219 58.78125 53.800781 58.78125 53.777344 C 58.78125 53.753906 58.789062 53.71875 58.796875 53.695312 C 58.8125 53.652344 58.8125 53.644531 58.789062 53.578125 C 58.777344 53.539062 58.757812 53.503906 58.75 53.5 C 58.742188 53.496094 58.730469 53.476562 58.726562 53.457031 C 58.707031 53.402344 58.726562 53.355469 58.800781 53.277344 C 58.808594 53.269531 58.820312 53.246094 58.824219 53.226562 C 58.832031 53.195312 58.855469 53.175781 58.890625 53.175781 C 58.917969 53.171875 58.96875 53.230469 58.96875 53.257812 C 58.96875 53.269531 58.976562 53.292969 58.984375 53.304688 C 58.996094 53.316406 59.007812 53.363281 59.011719 53.421875 C 59.023438 53.515625 59.039062 53.617188 59.050781 53.65625 C 59.0625 53.6875 59.121094 53.734375 59.152344 53.734375 C 59.167969 53.734375 59.207031 53.738281 59.246094 53.746094 C 59.28125 53.753906 59.335938 53.761719 59.371094 53.761719 C 59.429688 53.761719 59.429688 53.761719 59.492188 53.695312 C 59.527344 53.664062 59.554688 53.628906 59.554688 53.621094 C 59.554688 53.582031 59.417969 53.507812 59.308594 53.488281 C 59.269531 53.480469 59.242188 53.433594 59.25 53.390625 C 59.257812 53.351562 59.308594 53.285156 59.359375 53.246094 C 59.378906 53.234375 59.441406 53.207031 59.5 53.191406 L 59.605469 53.164062 L 59.636719 53.105469 C 59.691406 52.996094 59.808594 52.910156 59.902344 52.910156 C 59.949219 52.910156 59.960938 52.914062 60 52.960938 C 60.007812 52.972656 60.027344 52.996094 60.042969 53.015625 C 60.085938 53.066406 60.109375 53.125 60.101562 53.167969 C 60.09375 53.203125 60.113281 53.261719 60.128906 53.261719 C 60.140625 53.261719 60.296875 53.414062 60.304688 53.4375 C 60.308594 53.445312 60.316406 53.457031 60.320312 53.457031 C 60.332031 53.457031 60.351562 53.523438 60.355469 53.574219 C 60.355469 53.644531 60.339844 53.65625 60.226562 53.660156 C 60.171875 53.660156 60.105469 53.667969 60.078125 53.675781 L 60.03125 53.6875 L 60.027344 53.746094 C 60.023438 53.820312 60.042969 53.84375 60.128906 53.855469 C 60.160156 53.859375 60.195312 53.867188 60.203125 53.875 C 60.207031 53.878906 60.226562 53.882812 60.242188 53.882812 C 60.253906 53.882812 60.277344 53.890625 60.289062 53.898438 C 60.308594 53.910156 60.308594 53.925781 60.3125 54.042969 L 60.3125 54.175781 L 60.347656 54.183594 C 60.367188 54.191406 60.386719 54.199219 60.394531 54.207031 C 60.417969 54.230469 60.453125 54.222656 60.464844 54.1875 C 60.472656 54.167969 60.484375 54.144531 60.488281 54.132812 C 60.492188 54.121094 60.5 54.050781 60.507812 53.980469 C 60.511719 53.90625 60.523438 53.828125 60.53125 53.804688 C 60.539062 53.78125 60.550781 53.710938 60.554688 53.640625 C 60.5625 53.574219 60.570312 53.515625 60.578125 53.507812 C 60.585938 53.5 60.59375 53.433594 60.59375 53.359375 C 60.597656 53.257812 60.601562 53.226562 60.617188 53.210938 C 60.632812 53.195312 60.636719 53.171875 60.636719 53.0625 L 60.632812 52.9375 L 60.589844 52.902344 C 60.5625 52.878906 60.546875 52.859375 60.546875 52.839844 C 60.546875 52.804688 60.558594 52.792969 60.609375 52.773438 C 60.636719 52.765625 60.675781 52.75 60.699219 52.742188 C 60.722656 52.734375 60.746094 52.71875 60.753906 52.714844 C 60.773438 52.691406 60.832031 52.65625 60.847656 52.65625 C 60.855469 52.65625 60.871094 52.664062 60.878906 52.671875 C 60.902344 52.695312 60.902344 52.792969 60.882812 52.832031 C 60.875 52.851562 60.867188 52.890625 60.867188 52.929688 C 60.867188 52.96875 60.859375 53.019531 60.851562 53.042969 C 60.84375 53.070312 60.832031 53.160156 60.824219 53.261719 C 60.820312 53.355469 60.808594 53.445312 60.800781 53.457031 C 60.792969 53.46875 60.789062 53.511719 60.789062 53.550781 C 60.789062 53.585938 60.78125 53.65625 60.773438 53.707031 C 60.765625 53.753906 60.753906 53.832031 60.75 53.882812 C 60.742188 53.933594 60.734375 53.992188 60.722656 54.011719 C 60.714844 54.03125 60.707031 54.078125 60.703125 54.117188 C 60.699219 54.160156 60.6875 54.207031 60.679688 54.226562 C 60.667969 54.246094 60.660156 54.269531 60.660156 54.28125 C 60.660156 54.304688 60.605469 54.402344 60.589844 54.402344 C 60.582031 54.402344 60.570312 54.410156 60.566406 54.421875 C 60.558594 54.429688 60.539062 54.441406 60.523438 54.445312 C 60.503906 54.449219 60.476562 54.460938 60.460938 54.472656 C 60.425781 54.496094 60.328125 54.507812 60.285156 54.496094 Z M 60.285156 54.496094 "/>
<path style=" stroke:none;fill-rule:evenodd;fill:rgb(75.299072%,57.598877%,0%);fill-opacity:1;" d="M 66.859375 54.503906 C 66.847656 54.492188 66.851562 54.445312 66.863281 54.433594 C 66.871094 54.425781 66.890625 54.417969 66.902344 54.414062 C 66.917969 54.410156 66.9375 54.402344 66.945312 54.394531 C 66.953125 54.386719 66.984375 54.375 67.015625 54.371094 C 67.121094 54.355469 67.210938 54.273438 67.210938 54.195312 C 67.210938 54.171875 67.207031 54.148438 67.203125 54.140625 C 67.191406 54.125 67.007812 54.136719 66.910156 54.160156 C 66.886719 54.164062 66.875 54.160156 66.84375 54.132812 L 66.808594 54.101562 L 66.804688 53.949219 L 66.800781 53.800781 L 66.847656 53.75 C 66.871094 53.722656 66.902344 53.679688 66.917969 53.660156 C 66.929688 53.636719 66.945312 53.617188 66.949219 53.617188 C 66.953125 53.613281 66.972656 53.597656 66.996094 53.574219 C 67.042969 53.535156 67.113281 53.496094 67.164062 53.484375 C 67.179688 53.480469 67.199219 53.46875 67.207031 53.460938 C 67.210938 53.453125 67.230469 53.445312 67.25 53.445312 C 67.273438 53.441406 67.285156 53.449219 67.308594 53.488281 C 67.324219 53.511719 67.339844 53.546875 67.339844 53.5625 C 67.339844 53.582031 67.351562 53.613281 67.359375 53.636719 C 67.367188 53.65625 67.378906 53.703125 67.382812 53.734375 C 67.386719 53.765625 67.394531 53.796875 67.402344 53.804688 C 67.417969 53.824219 67.546875 53.835938 67.570312 53.816406 C 67.582031 53.808594 67.585938 53.78125 67.589844 53.710938 C 67.59375 53.660156 67.601562 53.605469 67.609375 53.585938 C 67.621094 53.570312 67.628906 53.539062 67.632812 53.523438 C 67.644531 53.472656 67.726562 53.355469 67.777344 53.324219 C 67.800781 53.308594 67.828125 53.289062 67.835938 53.28125 C 67.84375 53.273438 67.859375 53.265625 67.871094 53.261719 C 67.902344 53.25 67.910156 53.238281 67.910156 53.195312 C 67.910156 53.15625 67.878906 53.109375 67.8125 53.054688 C 67.796875 53.042969 67.78125 53.023438 67.78125 53.015625 C 67.78125 52.984375 67.8125 52.929688 67.863281 52.875 C 67.886719 52.84375 67.90625 52.816406 67.90625 52.8125 C 67.90625 52.808594 67.925781 52.792969 67.945312 52.78125 C 67.972656 52.761719 67.988281 52.757812 68.007812 52.765625 C 68.035156 52.777344 68.042969 52.789062 68.070312 52.878906 C 68.105469 52.992188 68.113281 53.027344 68.121094 53.09375 C 68.128906 53.128906 68.132812 53.164062 68.136719 53.171875 C 68.140625 53.175781 68.1875 53.191406 68.242188 53.203125 C 68.296875 53.214844 68.351562 53.230469 68.363281 53.238281 C 68.375 53.242188 68.398438 53.253906 68.410156 53.257812 C 68.449219 53.265625 68.496094 53.304688 68.496094 53.320312 C 68.496094 53.328125 68.503906 53.332031 68.507812 53.332031 C 68.519531 53.332031 68.570312 53.410156 68.621094 53.5 C 68.675781 53.597656 68.671875 53.597656 68.761719 53.59375 C 68.832031 53.59375 68.839844 53.59375 68.863281 53.566406 C 68.875 53.550781 68.882812 53.527344 68.882812 53.511719 C 68.882812 53.480469 68.910156 53.441406 68.976562 53.382812 C 69.003906 53.359375 69.035156 53.332031 69.046875 53.320312 C 69.085938 53.285156 69.132812 53.253906 69.152344 53.253906 C 69.160156 53.253906 69.214844 53.273438 69.269531 53.292969 C 69.351562 53.328125 69.375 53.34375 69.398438 53.375 C 69.449219 53.445312 69.5625 53.476562 69.617188 53.433594 C 69.632812 53.421875 69.652344 53.414062 69.65625 53.414062 C 69.664062 53.414062 69.667969 53.40625 69.667969 53.398438 C 69.667969 53.375 69.625 53.257812 69.613281 53.242188 C 69.605469 53.234375 69.597656 53.195312 69.589844 53.152344 C 69.582031 53.109375 69.570312 53.050781 69.558594 53.027344 C 69.542969 52.996094 69.53125 52.949219 69.527344 52.882812 C 69.523438 52.832031 69.511719 52.753906 69.5 52.710938 C 69.488281 52.671875 69.480469 52.625 69.480469 52.605469 C 69.476562 52.53125 69.414062 52.433594 69.347656 52.40625 C 69.335938 52.398438 69.3125 52.390625 69.296875 52.378906 C 69.257812 52.359375 69.207031 52.363281 69.183594 52.386719 C 69.175781 52.398438 69.15625 52.40625 69.144531 52.40625 C 69.121094 52.410156 69.050781 52.464844 69.050781 52.480469 C 69.050781 52.484375 69.035156 52.492188 69.015625 52.492188 C 68.988281 52.492188 68.976562 52.484375 68.949219 52.449219 C 68.929688 52.425781 68.914062 52.402344 68.914062 52.394531 C 68.914062 52.390625 68.894531 52.367188 68.871094 52.347656 C 68.835938 52.320312 68.828125 52.308594 68.828125 52.277344 C 68.828125 52.25 68.832031 52.238281 68.851562 52.230469 C 68.867188 52.222656 68.878906 52.210938 68.878906 52.207031 C 68.878906 52.203125 68.898438 52.195312 68.917969 52.191406 C 68.941406 52.1875 68.996094 52.171875 69.042969 52.160156 C 69.160156 52.132812 69.371094 52.128906 69.425781 52.160156 C 69.441406 52.167969 69.472656 52.179688 69.484375 52.183594 C 69.519531 52.191406 69.613281 52.277344 69.632812 52.316406 C 69.640625 52.335938 69.652344 52.351562 69.65625 52.355469 C 69.660156 52.359375 69.667969 52.382812 69.675781 52.40625 C 69.679688 52.429688 69.6875 52.460938 69.695312 52.480469 C 69.707031 52.503906 69.722656 52.609375 69.742188 52.769531 C 69.742188 52.796875 69.765625 52.894531 69.78125 52.957031 C 69.789062 52.980469 69.800781 53.03125 69.808594 53.074219 C 69.816406 53.113281 69.832031 53.15625 69.839844 53.164062 C 69.851562 53.175781 69.859375 53.191406 69.859375 53.199219 C 69.859375 53.242188 69.96875 53.308594 70.03125 53.308594 C 70.089844 53.304688 70.171875 53.269531 70.222656 53.21875 C 70.253906 53.191406 70.289062 53.167969 70.304688 53.164062 C 70.332031 53.15625 70.378906 53.179688 70.394531 53.207031 C 70.414062 53.242188 70.449219 53.273438 70.492188 53.296875 C 70.542969 53.324219 70.558594 53.359375 70.539062 53.394531 C 70.535156 53.40625 70.519531 53.414062 70.511719 53.414062 C 70.5 53.414062 70.46875 53.425781 70.4375 53.441406 C 70.40625 53.453125 70.371094 53.464844 70.359375 53.46875 C 70.347656 53.46875 70.289062 53.484375 70.226562 53.503906 C 70.164062 53.523438 70.050781 53.554688 69.980469 53.566406 C 69.851562 53.59375 69.675781 53.644531 69.65625 53.65625 C 69.648438 53.660156 69.625 53.667969 69.601562 53.671875 C 69.53125 53.683594 69.523438 53.6875 69.515625 53.726562 C 69.507812 53.773438 69.410156 53.875 69.339844 53.910156 C 69.289062 53.9375 69.277344 53.941406 69.15625 53.941406 C 69.082031 53.941406 69.015625 53.9375 69.003906 53.933594 C 68.992188 53.929688 68.980469 53.914062 68.976562 53.898438 C 68.972656 53.882812 68.957031 53.859375 68.9375 53.847656 C 68.902344 53.824219 68.867188 53.824219 68.777344 53.851562 L 68.738281 53.859375 L 68.734375 53.960938 C 68.730469 54.015625 68.722656 54.074219 68.714844 54.085938 C 68.707031 54.101562 68.695312 54.121094 68.6875 54.132812 C 68.683594 54.144531 68.652344 54.171875 68.625 54.199219 C 68.59375 54.222656 68.550781 54.261719 68.527344 54.285156 C 68.480469 54.328125 68.4375 54.335938 68.410156 54.300781 C 68.398438 54.289062 68.378906 54.28125 68.359375 54.28125 C 68.324219 54.28125 68.242188 54.25 68.191406 54.210938 C 68.160156 54.191406 68.089844 54.082031 68.089844 54.050781 C 68.089844 54.046875 68.082031 54.03125 68.070312 54.019531 C 68.050781 54.003906 68.035156 54 67.980469 54 C 67.945312 54 67.894531 54.007812 67.867188 54.011719 C 67.839844 54.019531 67.777344 54.027344 67.726562 54.035156 C 67.671875 54.039062 67.617188 54.050781 67.597656 54.058594 C 67.578125 54.066406 67.542969 54.078125 67.519531 54.082031 C 67.453125 54.09375 67.433594 54.117188 67.433594 54.183594 C 67.433594 54.21875 67.429688 54.242188 67.417969 54.25 C 67.410156 54.257812 67.402344 54.277344 67.398438 54.292969 C 67.386719 54.332031 67.300781 54.417969 67.238281 54.445312 C 67.210938 54.457031 67.167969 54.476562 67.148438 54.488281 C 67.113281 54.503906 67.085938 54.507812 66.988281 54.511719 C 66.921875 54.511719 66.863281 54.507812 66.859375 54.503906 Z M 66.859375 54.503906 "/>
<path style=" stroke:none;fill-rule:evenodd;fill:rgb(75.299072%,57.598877%,0%);fill-opacity:1;" d="M 66.015625 54.597656 L 65.992188 54.582031 L 66.011719 54.550781 C 66.023438 54.535156 66.050781 54.515625 66.074219 54.507812 C 66.148438 54.484375 66.195312 54.453125 66.257812 54.398438 C 66.289062 54.367188 66.316406 54.332031 66.316406 54.320312 C 66.316406 54.3125 66.332031 54.289062 66.347656 54.269531 C 66.375 54.238281 66.375 54.234375 66.375 54.128906 C 66.371094 54.023438 66.367188 54.003906 66.328125 53.941406 C 66.308594 53.914062 66.242188 53.867188 66.179688 53.835938 C 66.136719 53.8125 66.121094 53.773438 66.144531 53.734375 C 66.152344 53.71875 66.183594 53.664062 66.207031 53.609375 C 66.234375 53.558594 66.261719 53.5 66.269531 53.488281 C 66.289062 53.449219 66.335938 53.445312 66.367188 53.484375 C 66.398438 53.515625 66.449219 53.605469 66.449219 53.625 C 66.449219 53.632812 66.457031 53.644531 66.46875 53.65625 C 66.492188 53.675781 66.546875 53.765625 66.546875 53.789062 C 66.546875 53.796875 66.558594 53.824219 66.574219 53.847656 C 66.59375 53.878906 66.601562 53.90625 66.601562 53.941406 C 66.605469 53.96875 66.613281 54.007812 66.621094 54.027344 C 66.644531 54.085938 66.636719 54.292969 66.605469 54.347656 C 66.59375 54.371094 66.582031 54.390625 66.578125 54.390625 C 66.570312 54.394531 66.554688 54.410156 66.535156 54.433594 C 66.503906 54.476562 66.390625 54.558594 66.363281 54.558594 C 66.351562 54.558594 66.335938 54.566406 66.328125 54.582031 C 66.3125 54.601562 66.304688 54.605469 66.175781 54.609375 C 66.0625 54.613281 66.035156 54.609375 66.015625 54.597656 Z M 66.015625 54.597656 "/>
<path style=" stroke:none;fill-rule:evenodd;fill:rgb(75.299072%,57.598877%,0%);fill-opacity:1;" d="M 65.042969 54.660156 C 65.007812 54.625 65.003906 54.609375 65 54.574219 C 65 54.539062 65.007812 54.527344 65.042969 54.492188 C 65.105469 54.429688 65.132812 54.429688 65.242188 54.480469 C 65.34375 54.535156 65.378906 54.539062 65.386719 54.503906 C 65.398438 54.464844 65.457031 54.433594 65.511719 54.433594 C 65.546875 54.433594 65.566406 54.441406 65.597656 54.460938 C 65.632812 54.492188 65.632812 54.496094 65.632812 54.558594 C 65.632812 54.625 65.632812 54.628906 65.59375 54.664062 C 65.554688 54.699219 65.546875 54.699219 65.5 54.695312 C 65.4375 54.6875 65.398438 54.660156 65.390625 54.613281 C 65.382812 54.578125 65.371094 54.566406 65.359375 54.59375 C 65.355469 54.601562 65.34375 54.609375 65.328125 54.613281 C 65.296875 54.621094 65.25 54.652344 65.214844 54.683594 C 65.199219 54.695312 65.175781 54.703125 65.140625 54.703125 C 65.089844 54.703125 65.082031 54.699219 65.042969 54.660156 Z M 65.042969 54.660156 "/>
<path style=" stroke:none;fill-rule:evenodd;fill:rgb(75.299072%,57.598877%,0%);fill-opacity:1;" d="M 63.238281 54.742188 C 63.238281 54.738281 63.210938 54.722656 63.179688 54.707031 C 63.117188 54.679688 63.0625 54.636719 63.03125 54.585938 C 63.007812 54.554688 62.980469 54.46875 62.980469 54.425781 C 62.980469 54.40625 62.972656 54.398438 62.953125 54.394531 C 62.882812 54.378906 62.699219 54.355469 62.5625 54.351562 C 62.480469 54.347656 62.320312 54.332031 62.210938 54.324219 C 61.972656 54.300781 61.882812 54.300781 61.851562 54.335938 C 61.839844 54.347656 61.824219 54.375 61.816406 54.390625 C 61.8125 54.410156 61.789062 54.449219 61.765625 54.476562 C 61.742188 54.507812 61.726562 54.535156 61.726562 54.542969 C 61.726562 54.546875 61.722656 54.554688 61.714844 54.554688 C 61.710938 54.554688 61.695312 54.5625 61.683594 54.570312 C 61.660156 54.597656 61.605469 54.632812 61.574219 54.648438 C 61.5625 54.652344 61.539062 54.664062 61.523438 54.671875 C 61.488281 54.695312 61.222656 54.695312 61.179688 54.675781 C 61.160156 54.667969 61.132812 54.660156 61.113281 54.660156 C 61.097656 54.660156 61.074219 54.65625 61.0625 54.648438 C 61.042969 54.636719 61.042969 54.628906 61.050781 54.605469 C 61.0625 54.570312 61.097656 54.5625 61.238281 54.558594 C 61.3125 54.558594 61.335938 54.554688 61.378906 54.53125 C 61.433594 54.503906 61.523438 54.4375 61.53125 54.417969 C 61.535156 54.414062 61.542969 54.402344 61.554688 54.394531 C 61.566406 54.382812 61.578125 54.359375 61.582031 54.339844 C 61.585938 54.320312 61.597656 54.285156 61.609375 54.265625 C 61.632812 54.21875 61.628906 54.191406 61.589844 54.074219 C 61.546875 53.957031 61.53125 53.929688 61.484375 53.890625 C 61.425781 53.839844 61.425781 53.816406 61.492188 53.75 C 61.523438 53.71875 61.5625 53.671875 61.585938 53.640625 C 61.617188 53.589844 61.625 53.585938 61.65625 53.585938 C 61.683594 53.589844 61.691406 53.597656 61.71875 53.644531 C 61.757812 53.71875 61.8125 53.847656 61.8125 53.867188 C 61.8125 53.875 61.820312 53.894531 61.828125 53.914062 C 61.839844 53.929688 61.851562 53.960938 61.855469 53.984375 C 61.875 54.03125 61.882812 54.039062 61.972656 54.046875 C 62.0625 54.054688 62.066406 54.050781 62.074219 53.929688 C 62.078125 53.882812 62.085938 53.835938 62.089844 53.832031 C 62.097656 53.824219 62.101562 53.8125 62.101562 53.800781 C 62.101562 53.777344 62.046875 53.628906 62.035156 53.617188 C 62.015625 53.601562 62.023438 53.546875 62.050781 53.503906 C 62.0625 53.476562 62.082031 53.457031 62.085938 53.457031 C 62.089844 53.457031 62.113281 53.445312 62.132812 53.429688 C 62.1875 53.394531 62.273438 53.386719 62.308594 53.414062 C 62.332031 53.429688 62.335938 53.441406 62.339844 53.523438 C 62.34375 53.601562 62.347656 53.613281 62.375 53.636719 C 62.390625 53.648438 62.414062 53.660156 62.425781 53.660156 C 62.441406 53.660156 62.460938 53.664062 62.472656 53.675781 C 62.488281 53.6875 62.527344 53.691406 62.695312 53.691406 C 62.933594 53.695312 63.066406 53.699219 63.082031 53.710938 C 63.089844 53.714844 63.128906 53.71875 63.171875 53.71875 C 63.21875 53.71875 63.3125 53.722656 63.386719 53.726562 C 63.515625 53.730469 63.519531 53.734375 63.550781 53.761719 L 63.582031 53.792969 L 63.585938 53.929688 C 63.589844 54.085938 63.597656 54.105469 63.667969 54.105469 C 63.726562 54.105469 63.742188 54.085938 63.75 54.015625 C 63.75 53.984375 63.757812 53.953125 63.765625 53.945312 C 63.773438 53.941406 63.789062 53.917969 63.796875 53.898438 C 63.8125 53.855469 63.886719 53.78125 63.921875 53.769531 C 63.933594 53.765625 63.953125 53.753906 63.964844 53.746094 C 63.976562 53.734375 64 53.722656 64.019531 53.722656 C 64.097656 53.707031 64.179688 53.679688 64.199219 53.660156 C 64.214844 53.648438 64.238281 53.640625 64.269531 53.640625 C 64.3125 53.636719 64.324219 53.640625 64.34375 53.660156 C 64.367188 53.691406 64.371094 53.710938 64.382812 53.851562 C 64.386719 53.910156 64.394531 53.96875 64.402344 53.984375 C 64.40625 54 64.417969 54.070312 64.417969 54.144531 L 64.425781 54.277344 L 64.394531 54.320312 L 64.359375 54.363281 L 64.015625 54.367188 C 63.828125 54.367188 63.65625 54.371094 63.632812 54.375 C 63.59375 54.382812 63.585938 54.40625 63.585938 54.484375 C 63.585938 54.507812 63.578125 54.527344 63.566406 54.539062 C 63.554688 54.546875 63.542969 54.566406 63.539062 54.582031 C 63.535156 54.605469 63.464844 54.660156 63.417969 54.671875 C 63.402344 54.679688 63.382812 54.6875 63.375 54.695312 C 63.351562 54.714844 63.269531 54.75 63.253906 54.753906 C 63.246094 54.753906 63.238281 54.75 63.238281 54.742188 Z M 63.238281 54.742188 "/>
<path style="fill:none;stroke-width:0.125092;stroke-linecap:butt;stroke-linejoin:miter;stroke:rgb(75.299072%,57.598877%,0%);stroke-opacity:1;stroke-miterlimit:4;" d="M 67.34375 37.5625 C 67.304688 37.5625 67.265625 37.566406 67.222656 37.566406 C 66.34375 37.566406 64.300781 37.113281 63.511719 36.4375 C 62.6875 37.0625 60.609375 37.566406 59.742188 37.566406 C 59.703125 37.566406 59.664062 37.558594 59.621094 37.554688 C 59.621094 37.75 59.628906 37.953125 59.644531 38.140625 C 59.6875 38.835938 59.8125 39.53125 59.996094 40.203125 C 60.578125 42.3125 61.769531 44.105469 63.480469 45.464844 C 65.191406 44.101562 66.386719 42.308594 66.96875 40.195312 C 67.15625 39.527344 67.277344 38.828125 67.324219 38.136719 C 67.335938 37.953125 67.34375 37.753906 67.34375 37.5625 Z M 67.34375 37.5625 "/>
<path style="fill-rule:evenodd;fill:rgb(99.998474%,99.998474%,99.998474%);fill-opacity:1;stroke-width:0.173542;stroke-linecap:round;stroke-linejoin:round;stroke:rgb(75.299072%,57.598877%,0%);stroke-opacity:1;stroke-miterlimit:4;" d="M 65.277344 35.40625 C 65.371094 35.414062 65.148438 34.902344 65.148438 34.902344 C 65.398438 35.160156 66.34375 35.21875 66.34375 35.21875 C 65.777344 34.96875 65.210938 33.082031 65.277344 31.574219 C 65.339844 30.066406 65.058594 29.472656 64.835938 29.25 C 64.554688 28.964844 63.640625 28.714844 63.042969 28.683594 C 62.703125 28.664062 62.757812 28.9375 62.757812 28.9375 C 62.128906 28.777344 61.5 28.714844 61.21875 28.902344 C 60.953125 29.082031 60.894531 29.96875 61.089844 29.816406 C 61.5625 29.4375 61.972656 29.78125 62.257812 30.191406 C 62.507812 30.554688 62.492188 31.574219 62.128906 32.769531 C 61.75 34.023438 60.71875 35.28125 60.71875 35.28125 C 61.277344 35.28125 62.070312 34.78125 62.070312 34.78125 L 61.878906 35.5625 C 62.476562 35.28125 62.945312 34.839844 62.945312 34.839844 L 63.515625 35.4375 C 63.703125 35.1875 64.082031 34.839844 64.082031 34.839844 C 64.082031 34.839844 64.554688 35.339844 65.277344 35.40625 Z M 65.277344 35.40625 "/>
<path style="fill-rule:evenodd;fill:rgb(99.998474%,99.998474%,99.998474%);fill-opacity:1;stroke-width:0.173542;stroke-linecap:round;stroke-linejoin:round;stroke:rgb(75.299072%,57.598877%,0%);stroke-opacity:1;stroke-miterlimit:4;" d="M 62.980469 31.792969 C 62.980469 31.792969 62.664062 34.121094 62.070312 34.78125 Z M 62.980469 31.792969 "/>
<path style="fill-rule:evenodd;fill:rgb(99.998474%,99.998474%,99.998474%);fill-opacity:1;stroke-width:0.173542;stroke-linecap:round;stroke-linejoin:round;stroke:rgb(75.299072%,57.598877%,0%);stroke-opacity:1;stroke-miterlimit:4;" d="M 63.480469 31.730469 C 63.480469 31.730469 63.359375 34.085938 62.945312 34.839844 Z M 63.480469 31.730469 "/>
<path style="fill-rule:evenodd;fill:rgb(99.998474%,99.998474%,99.998474%);fill-opacity:1;stroke-width:0.173542;stroke-linecap:round;stroke-linejoin:round;stroke:rgb(75.299072%,57.598877%,0%);stroke-opacity:1;stroke-miterlimit:4;" d="M 63.925781 31.824219 C 63.925781 31.824219 63.925781 34.402344 64.082031 34.839844 Z M 63.925781 31.824219 "/>
<path style="fill-rule:evenodd;fill:rgb(99.998474%,99.998474%,99.998474%);fill-opacity:1;stroke-width:0.173542;stroke-linecap:round;stroke-linejoin:round;stroke:rgb(75.299072%,57.598877%,0%);stroke-opacity:1;stroke-miterlimit:4;" d="M 64.488281 31.953125 C 64.488281 31.953125 64.617188 34.121094 65.148438 34.902344 Z M 64.488281 31.953125 "/>
<path style=" stroke:none;fill-rule:evenodd;fill:rgb(75.299072%,57.598877%,0%);fill-opacity:1;" d="M 62.40625 30.664062 C 62.378906 30.460938 62.332031 30.296875 62.257812 30.191406 C 61.972656 29.78125 61.5625 29.4375 61.089844 29.816406 C 61.089844 29.816406 61.25 29.316406 61.597656 29.296875 C 61.863281 29.28125 62.46875 29.5 63.003906 30.410156 C 63.003906 30.410156 62.609375 30.320312 62.511719 30.402344 C 62.335938 30.558594 62.40625 30.664062 62.40625 30.664062 Z M 62.40625 30.664062 "/>
<path style="fill-rule:evenodd;fill:rgb(75.299072%,57.598877%,0%);fill-opacity:1;stroke-width:0.173542;stroke-linecap:round;stroke-linejoin:round;stroke:rgb(75.299072%,57.598877%,0%);stroke-opacity:1;stroke-miterlimit:4;" d="M 61.039062 29.199219 C 61.078125 29.070312 61.140625 28.953125 61.21875 28.902344 C 61.5 28.714844 62.128906 28.777344 62.757812 28.9375 C 62.757812 28.9375 62.703125 28.664062 63.042969 28.683594 C 63.640625 28.714844 64.554688 28.964844 64.835938 29.25 C 64.902344 29.320312 64.980469 29.425781 65.050781 29.585938 L 65.039062 29.585938 C 64.898438 29.394531 64.503906 29.402344 64.410156 29.414062 C 64.257812 29.433594 64.164062 29.425781 63.964844 29.476562 C 63.871094 29.5 63.726562 29.527344 63.648438 29.585938 C 63.585938 29.636719 63.535156 29.820312 63.441406 29.820312 C 63.292969 29.820312 63.304688 29.78125 63.265625 29.738281 C 63.214844 29.675781 63.1875 29.585938 63.136719 29.59375 C 62.980469 29.621094 62.730469 29.5 62.414062 29.25 C 62.097656 29 61.972656 28.9375 61.5625 28.964844 C 61.15625 29 61.027344 29.226562 61.027344 29.226562 Z M 61.039062 29.199219 "/>
<path style=" stroke:none;fill-rule:evenodd;fill:rgb(99.998474%,99.998474%,99.998474%);fill-opacity:1;" d="M 63.363281 29.566406 C 63.457031 29.566406 63.53125 29.492188 63.53125 29.398438 C 63.53125 29.304688 63.457031 29.230469 63.363281 29.230469 C 63.273438 29.230469 63.199219 29.304688 63.199219 29.398438 C 63.199219 29.492188 63.273438 29.566406 63.363281 29.566406 Z M 63.363281 29.566406 "/>
<path style=" stroke:none;fill-rule:evenodd;fill:rgb(75.299072%,57.598877%,0%);fill-opacity:1;" d="M 61.902344 37.152344 C 61.105469 37.40625 60.230469 37.566406 59.742188 37.566406 C 59.703125 37.566406 59.664062 37.558594 59.621094 37.554688 C 59.621094 37.75 59.628906 37.953125 59.644531 38.140625 C 59.6875 38.835938 59.8125 39.53125 59.996094 40.203125 C 60.378906 41.597656 61.035156 42.851562 61.902344 43.933594 Z M 61.902344 37.152344 "/>
<path style=" stroke:none;fill-rule:evenodd;fill:rgb(75.299072%,57.598877%,0%);fill-opacity:1;" d="M 65.078125 37.21875 L 65.078125 43.785156 C 65.996094 42.738281 66.601562 41.535156 66.96875 40.207031 C 67.15625 39.539062 67.277344 38.839844 67.324219 38.148438 C 67.335938 37.964844 67.34375 37.765625 67.34375 37.574219 C 67.304688 37.574219 67.265625 37.578125 67.222656 37.578125 C 66.75 37.578125 65.941406 37.445312 65.078125 37.21875 Z M 65.078125 37.21875 "/>
<path style=" stroke:none;fill-rule:evenodd;fill:rgb(99.998474%,99.998474%,99.998474%);fill-opacity:1;" d="M 59.957031 53.484375 C 59.984375 53.464844 59.988281 53.4375 59.960938 53.433594 C 59.929688 53.421875 59.902344 53.378906 59.898438 53.328125 C 59.894531 53.234375 59.851562 53.230469 59.769531 53.3125 C 59.746094 53.335938 59.710938 53.367188 59.691406 53.382812 L 59.65625 53.410156 L 59.683594 53.4375 C 59.726562 53.480469 59.777344 53.5 59.859375 53.5 C 59.910156 53.5 59.941406 53.496094 59.957031 53.484375 Z M 59.957031 53.484375 "/>
<path style=" stroke:none;fill-rule:evenodd;fill:rgb(99.998474%,99.998474%,99.998474%);fill-opacity:1;" d="M 57.011719 53.125 C 57.046875 53.09375 57.050781 53.0625 57.011719 53.046875 C 56.992188 53.039062 56.976562 53.039062 56.933594 53.0625 C 56.890625 53.082031 56.882812 53.089844 56.882812 53.113281 C 56.886719 53.136719 56.90625 53.144531 56.972656 53.152344 C 56.976562 53.152344 56.996094 53.140625 57.011719 53.125 Z M 57.011719 53.125 "/>
<path style=" stroke:none;fill-rule:evenodd;fill:rgb(99.998474%,99.998474%,99.998474%);fill-opacity:1;" d="M 65.070312 54.105469 L 65.125 54.089844 L 65.121094 54.035156 L 65.117188 53.984375 L 65.074219 53.980469 C 65.035156 53.980469 65.023438 53.984375 65 54.007812 C 64.960938 54.050781 64.957031 54.082031 64.988281 54.101562 C 65 54.113281 65.011719 54.121094 65.011719 54.121094 C 65.015625 54.121094 65.039062 54.113281 65.070312 54.105469 Z M 65.070312 54.105469 "/>
<path style=" stroke:none;fill-rule:evenodd;fill:rgb(99.998474%,99.998474%,99.998474%);fill-opacity:1;" d="M 69.234375 53.691406 C 69.300781 53.664062 69.320312 53.628906 69.292969 53.582031 C 69.273438 53.539062 69.238281 53.523438 69.1875 53.527344 C 69.125 53.53125 69.074219 53.574219 69.074219 53.617188 C 69.074219 53.644531 69.082031 53.65625 69.121094 53.683594 C 69.144531 53.699219 69.171875 53.710938 69.175781 53.710938 C 69.179688 53.710938 69.207031 53.703125 69.234375 53.691406 Z M 69.234375 53.691406 "/>
<path style=" stroke:none;fill-rule:evenodd;fill:rgb(99.998474%,99.998474%,99.998474%);fill-opacity:1;" d="M 68.386719 53.699219 C 68.433594 53.675781 68.4375 53.671875 68.4375 53.640625 C 68.4375 53.59375 68.394531 53.539062 68.332031 53.507812 C 68.265625 53.46875 68.242188 53.46875 68.214844 53.507812 C 68.191406 53.539062 68.191406 53.542969 68.207031 53.585938 C 68.21875 53.613281 68.226562 53.640625 68.226562 53.648438 C 68.226562 53.671875 68.289062 53.722656 68.316406 53.722656 C 68.328125 53.722656 68.359375 53.710938 68.386719 53.699219 Z M 68.386719 53.699219 "/>
<path style=" stroke:none;fill-rule:evenodd;fill:rgb(99.998474%,99.998474%,99.998474%);fill-opacity:1;" d="M 68.007812 53.734375 C 68.011719 53.71875 68.011719 53.675781 68.007812 53.644531 C 68 53.601562 67.992188 53.585938 67.96875 53.5625 C 67.929688 53.527344 67.910156 53.53125 67.863281 53.578125 C 67.832031 53.609375 67.828125 53.621094 67.828125 53.671875 C 67.828125 53.757812 67.839844 53.769531 67.929688 53.765625 C 68 53.765625 68 53.765625 68.007812 53.734375 Z M 68.007812 53.734375 "/>
<path style=" stroke:none;fill-rule:evenodd;fill:rgb(99.998474%,99.998474%,99.998474%);fill-opacity:1;" d="M 67.164062 53.890625 C 67.199219 53.875 67.207031 53.851562 67.199219 53.808594 C 67.183594 53.738281 67.101562 53.71875 67.058594 53.773438 C 67.046875 53.792969 67.035156 53.808594 67.035156 53.816406 C 67.035156 53.820312 67.027344 53.828125 67.019531 53.835938 C 67.007812 53.847656 67.007812 53.855469 67.015625 53.871094 C 67.023438 53.882812 67.035156 53.894531 67.039062 53.902344 C 67.0625 53.914062 67.132812 53.90625 67.164062 53.890625 Z M 67.164062 53.890625 "/>
<path style=" stroke:none;fill-rule:evenodd;fill:rgb(99.998474%,99.998474%,99.998474%);fill-opacity:1;" d="M 68.507812 54.011719 C 68.539062 53.992188 68.539062 53.957031 68.515625 53.933594 C 68.484375 53.90625 68.425781 53.910156 68.367188 53.9375 C 68.332031 53.953125 68.324219 53.960938 68.324219 53.984375 C 68.324219 54 68.332031 54.011719 68.347656 54.015625 C 68.382812 54.03125 68.488281 54.027344 68.507812 54.011719 Z M 68.507812 54.011719 "/>
<path style=" stroke:none;fill-rule:evenodd;fill:rgb(99.998474%,99.998474%,99.998474%);fill-opacity:1;" d="M 64.148438 54.109375 C 64.171875 54.097656 64.179688 54.09375 64.171875 54.074219 C 64.167969 54.0625 64.160156 54.03125 64.152344 54.007812 C 64.144531 53.964844 64.140625 53.957031 64.117188 53.957031 C 64.09375 53.957031 64.046875 53.984375 64.003906 54.019531 C 63.984375 54.039062 63.972656 54.082031 63.984375 54.097656 C 64.007812 54.128906 64.078125 54.132812 64.148438 54.109375 Z M 64.148438 54.109375 "/>
<path style=" stroke:none;fill-rule:evenodd;fill:rgb(99.998474%,99.998474%,99.998474%);fill-opacity:1;" d="M 63.328125 54.417969 C 63.351562 54.398438 63.351562 54.394531 63.351562 54.207031 L 63.351562 54.015625 L 63.320312 53.988281 C 63.292969 53.964844 63.285156 53.964844 63.089844 53.957031 C 62.976562 53.953125 62.867188 53.941406 62.84375 53.9375 C 62.8125 53.925781 62.785156 53.925781 62.746094 53.933594 C 62.710938 53.941406 62.671875 53.941406 62.628906 53.933594 C 62.46875 53.90625 62.363281 53.929688 62.324219 53.988281 C 62.308594 54.019531 62.308594 54.023438 62.324219 54.050781 C 62.335938 54.066406 62.355469 54.082031 62.371094 54.082031 C 62.382812 54.085938 62.417969 54.09375 62.445312 54.101562 C 62.476562 54.113281 62.539062 54.117188 62.609375 54.117188 C 62.675781 54.117188 62.78125 54.121094 62.847656 54.125 C 62.914062 54.128906 63.007812 54.132812 63.054688 54.132812 C 63.117188 54.136719 63.152344 54.140625 63.171875 54.15625 L 63.203125 54.171875 L 63.195312 54.273438 C 63.191406 54.367188 63.191406 54.371094 63.214844 54.390625 C 63.242188 54.414062 63.277344 54.433594 63.292969 54.433594 C 63.300781 54.433594 63.316406 54.425781 63.328125 54.417969 Z M 63.328125 54.417969 "/>
</g>
</svg>
