<?xml version="1.0" encoding="UTF-8"?>
<svg xmlns="http://www.w3.org/2000/svg" xmlns:xlink="http://www.w3.org/1999/xlink" width="128pt" height="85pt" viewBox="0 0 128 85" version="1.1">
<defs>
<clipPath id="clip1">
  <path d="M 0 0 L 127.679688 0 L 127.679688 85 L 0 85 Z M 0 0 "/>
</clipPath>
<clipPath id="clip2">
  <path d="M 0 0 L 127.679688 0 L 127.679688 57 L 0 57 Z M 0 0 "/>
</clipPath>
<clipPath id="clip3">
  <path d="M 0 0 L 127.679688 0 L 127.679688 29 L 0 29 Z M 0 0 "/>
</clipPath>
</defs>
<g id="surface341">
<g clip-path="url(#clip1)" clip-rule="nonzero">
<path style=" stroke:none;fill-rule:evenodd;fill:rgb(89.01825%,12.940979%,9.411621%);fill-opacity:1;" d="M 0 85 L 0 0 L 127.5 0 L 127.5 85 Z M 0 85 "/>
</g>
<g clip-path="url(#clip2)" clip-rule="nonzero">
<path style=" stroke:none;fill-rule:evenodd;fill:rgb(99.998474%,99.998474%,99.998474%);fill-opacity:1;" d="M 0 0 L 127.5 0 L 127.5 56.667969 L 0 56.667969 Z M 0 0 "/>
</g>
<g clip-path="url(#clip3)" clip-rule="nonzero">
<path style=" stroke:none;fill-rule:evenodd;fill:rgb(24.313354%,60.391235%,0%);fill-opacity:1;" d="M 0 0 L 127.5 0 L 127.5 28.332031 L 0 28.332031 Z M 0 0 "/>
</g>
<path style=" stroke:none;fill-rule:evenodd;fill:rgb(0%,45.097351%,80.783081%);fill-opacity:1;" d="M 0 0 L 0 85 L 31.875 42.5 Z M 0 0 "/>
<path style="fill-rule:evenodd;fill:rgb(99.998474%,99.998474%,99.998474%);fill-opacity:1;stroke-width:0.123958;stroke-linecap:butt;stroke-linejoin:miter;stroke:rgb(0%,0%,0%);stroke-opacity:1;stroke-miterlimit:4;" d="M 71.789062 47.882812 L 72.675781 49.160156 L 73.488281 47.953125 L 72.921875 46.925781 Z M 71.789062 47.882812 "/>
<path style="fill-rule:evenodd;fill:rgb(99.998474%,99.998474%,99.998474%);fill-opacity:1;stroke-width:0.123958;stroke-linecap:butt;stroke-linejoin:miter;stroke:rgb(0%,0%,0%);stroke-opacity:1;stroke-miterlimit:4;" d="M 66.160156 51.601562 L 66.230469 52.878906 C 66.230469 52.878906 66.582031 52.878906 66.902344 52.769531 C 67.183594 52.664062 67.433594 52.453125 67.433594 52.453125 L 67.398438 51.777344 Z M 66.160156 51.601562 "/>
<path style="fill-rule:evenodd;fill:rgb(99.998474%,99.998474%,99.998474%);fill-opacity:1;stroke-width:0.123958;stroke-linecap:butt;stroke-linejoin:miter;stroke:rgb(0%,0%,0%);stroke-opacity:1;stroke-miterlimit:4;" d="M 61.414062 51.601562 L 61.339844 52.839844 C 61.339844 52.839844 61.023438 52.839844 60.703125 52.769531 C 60.421875 52.699219 60.171875 52.523438 60.171875 52.523438 L 59.820312 51.671875 Z M 61.414062 51.601562 "/>
<path style="fill-rule:evenodd;fill:rgb(99.998474%,99.998474%,99.998474%);fill-opacity:1;stroke-width:0.17;stroke-linecap:butt;stroke-linejoin:miter;stroke:rgb(0%,0%,0%);stroke-opacity:1;stroke-miterlimit:4;" d="M 56.949219 33.957031 L 70.515625 33.957031 L 70.515625 48.167969 C 70.515625 52.949219 64.28125 49.265625 63.75 51.816406 C 62.828125 49.195312 56.984375 52.984375 56.984375 47.882812 C 56.984375 42.925781 56.949219 33.957031 56.949219 33.957031 Z M 56.949219 33.957031 "/>
<path style="fill-rule:evenodd;fill:rgb(99.998474%,99.998474%,99.998474%);fill-opacity:1;stroke-width:0.123958;stroke-linecap:butt;stroke-linejoin:miter;stroke:rgb(0%,0%,0%);stroke-opacity:1;stroke-miterlimit:4;" d="M 55.710938 47.882812 L 54.789062 49.160156 L 53.796875 47.527344 L 54.542969 46.75 Z M 55.710938 47.882812 "/>
<path style="fill-rule:evenodd;fill:rgb(99.998474%,84.312439%,0%);fill-opacity:1;stroke-width:0.123958;stroke-linecap:butt;stroke-linejoin:miter;stroke:rgb(0%,0%,0%);stroke-opacity:1;stroke-miterlimit:4;" d="M 63.289062 31.964844 L 62.511719 32.003906 L 62.121094 32.699219 L 61.695312 32.035156 L 60.917969 32.066406 L 61.269531 31.363281 L 60.847656 30.699219 L 61.660156 30.664062 L 62.015625 29.964844 L 62.441406 30.632812 L 63.21875 30.601562 L 62.863281 31.300781 Z M 63.289062 31.964844 "/>
<path style="fill-rule:evenodd;fill:rgb(99.998474%,84.312439%,0%);fill-opacity:1;stroke-width:0.123958;stroke-linecap:butt;stroke-linejoin:miter;stroke:rgb(0%,0%,0%);stroke-opacity:1;stroke-miterlimit:4;" d="M 59.960938 32.226562 L 59.179688 32.417969 L 58.96875 33.171875 L 58.402344 32.605469 L 57.660156 32.789062 L 57.871094 32.035156 L 57.339844 31.460938 L 58.082031 31.273438 L 58.296875 30.515625 L 58.863281 31.082031 L 59.640625 30.898438 L 59.394531 31.65625 Z M 59.960938 32.226562 "/>
<path style="fill-rule:evenodd;fill:rgb(99.998474%,84.312439%,0%);fill-opacity:1;stroke-width:0.123958;stroke-linecap:butt;stroke-linejoin:miter;stroke:rgb(0%,0%,0%);stroke-opacity:1;stroke-miterlimit:4;" d="M 56.738281 32.886719 L 56.027344 33.238281 L 55.992188 34.023438 L 55.320312 33.59375 L 54.613281 33.941406 L 54.683594 33.152344 L 54.011719 32.71875 L 54.71875 32.363281 L 54.789062 31.578125 L 55.425781 32.007812 L 56.136719 31.664062 L 56.101562 32.449219 Z M 56.738281 32.886719 "/>
<path style="fill-rule:evenodd;fill:rgb(99.998474%,84.312439%,0%);fill-opacity:1;stroke-width:0.123958;stroke-linecap:butt;stroke-linejoin:miter;stroke:rgb(0%,0%,0%);stroke-opacity:1;stroke-miterlimit:4;" d="M 64.316406 31.964844 L 65.097656 32.003906 L 65.449219 32.699219 L 65.875 32.035156 L 66.652344 32.066406 L 66.300781 31.363281 L 66.726562 30.699219 L 65.945312 30.664062 L 65.554688 29.964844 L 65.132812 30.632812 L 64.351562 30.601562 L 64.707031 31.300781 Z M 64.316406 31.964844 "/>
<path style="fill-rule:evenodd;fill:rgb(99.998474%,84.312439%,0%);fill-opacity:1;stroke-width:0.123958;stroke-linecap:butt;stroke-linejoin:miter;stroke:rgb(0%,0%,0%);stroke-opacity:1;stroke-miterlimit:4;" d="M 67.644531 32.226562 L 68.390625 32.417969 L 68.601562 33.171875 L 69.167969 32.605469 L 69.914062 32.789062 L 69.699219 32.035156 L 70.265625 31.460938 L 69.488281 31.273438 L 69.273438 30.515625 L 68.707031 31.082031 L 67.964844 30.898438 L 68.175781 31.65625 Z M 67.644531 32.226562 "/>
<path style="fill-rule:evenodd;fill:rgb(99.998474%,84.312439%,0%);fill-opacity:1;stroke-width:0.123958;stroke-linecap:butt;stroke-linejoin:miter;stroke:rgb(0%,0%,0%);stroke-opacity:1;stroke-miterlimit:4;" d="M 70.832031 32.886719 L 71.542969 33.238281 L 71.578125 34.023438 L 72.25 33.59375 L 72.957031 33.941406 L 72.921875 33.152344 L 73.558594 32.71875 L 72.851562 32.363281 L 72.816406 31.578125 L 72.144531 32.007812 L 71.433594 31.664062 L 71.507812 32.449219 Z M 70.832031 32.886719 "/>
<path style="fill-rule:evenodd;fill:rgb(99.998474%,99.998474%,99.998474%);fill-opacity:1;stroke-width:0.123958;stroke-linecap:butt;stroke-linejoin:miter;stroke:rgb(0%,0%,0%);stroke-opacity:1;stroke-miterlimit:4;" d="M 60.136719 52.453125 L 60.136719 54.152344 C 60.136719 55.355469 67.433594 55.355469 67.433594 54.152344 L 67.433594 52.453125 C 67.433594 53.335938 60.136719 53.160156 60.136719 52.453125 Z M 60.136719 52.453125 "/>
<path style="fill-rule:evenodd;fill:rgb(99.998474%,99.998474%,99.998474%);fill-opacity:1;stroke-width:0.123958;stroke-linecap:butt;stroke-linejoin:miter;stroke:rgb(0%,0%,0%);stroke-opacity:1;stroke-miterlimit:4;" d="M 53.621094 50.222656 C 54.257812 53.480469 60.136719 53.550781 60.136719 53.550781 L 60.136719 52.453125 C 59.996094 52.027344 60.242188 51.886719 61.199219 51.742188 C 61.589844 51.707031 61.414062 51.140625 61.414062 51.140625 C 61.414062 51.140625 58.863281 51.601562 57.054688 50.894531 C 54.613281 49.902344 54.257812 47.988281 54.257812 47.988281 C 54.257812 47.988281 54.082031 49.476562 53.621094 50.222656 Z M 53.621094 50.222656 "/>
<path style="fill-rule:evenodd;fill:rgb(99.998474%,99.998474%,99.998474%);fill-opacity:1;stroke-width:0.123958;stroke-linecap:butt;stroke-linejoin:miter;stroke:rgb(0%,0%,0%);stroke-opacity:1;stroke-miterlimit:4;" d="M 73.914062 50.222656 C 73.3125 53.480469 67.433594 53.550781 67.433594 53.550781 L 67.433594 52.453125 C 67.539062 52.027344 67.292969 51.886719 66.335938 51.742188 C 65.945312 51.707031 66.160156 51.140625 66.160156 51.140625 C 66.160156 51.140625 68.707031 51.601562 70.515625 50.894531 C 72.921875 49.902344 73.207031 47.988281 73.207031 47.988281 C 73.207031 47.988281 73.453125 49.476562 73.914062 50.222656 Z M 73.914062 50.222656 "/>
<path style="fill-rule:evenodd;fill:rgb(99.998474%,99.998474%,99.998474%);fill-opacity:1;stroke-width:0.123958;stroke-linecap:butt;stroke-linejoin:miter;stroke:rgb(0%,0%,0%);stroke-opacity:1;stroke-miterlimit:4;" d="M 54.082031 48.980469 C 52.453125 48.097656 53.726562 47.175781 53.867188 44.554688 C 54.117188 46.148438 55.921875 46.820312 55.710938 47.847656 C 54.964844 47.882812 54.613281 46.75 54.257812 47.988281 Z M 54.082031 48.980469 "/>
<path style="fill-rule:evenodd;fill:rgb(99.998474%,99.998474%,99.998474%);fill-opacity:1;stroke-width:0.123958;stroke-linecap:butt;stroke-linejoin:miter;stroke:rgb(0%,0%,0%);stroke-opacity:1;stroke-miterlimit:4;" d="M 73.453125 48.980469 C 75.082031 48.058594 73.738281 47.175781 73.597656 44.554688 C 73.347656 46.148438 71.578125 46.820312 71.789062 47.847656 C 72.496094 47.882812 72.851562 46.75 73.207031 47.988281 L 73.453125 48.945312 Z M 73.453125 48.980469 "/>
<path style=" stroke:none;fill-rule:evenodd;fill:rgb(0%,0%,0%);fill-opacity:1;" d="M 62.367188 54.578125 L 62.367188 53.445312 L 63.007812 53.445312 C 63.078125 53.480469 63.148438 53.515625 63.183594 53.550781 C 63.21875 53.621094 63.253906 53.691406 63.253906 53.761719 C 63.253906 53.832031 63.21875 53.902344 63.21875 53.941406 C 63.183594 54.011719 63.148438 54.046875 63.113281 54.082031 C 63.078125 54.082031 63.042969 54.117188 63.007812 54.117188 C 62.933594 54.117188 62.863281 54.152344 62.757812 54.152344 L 62.617188 54.152344 L 62.617188 54.578125 Z M 62.617188 53.621094 L 62.617188 53.941406 L 62.898438 53.941406 C 62.933594 53.902344 62.972656 53.902344 62.972656 53.867188 C 63.007812 53.832031 63.007812 53.832031 63.007812 53.796875 C 63.007812 53.726562 63.007812 53.691406 62.972656 53.691406 C 62.933594 53.65625 62.898438 53.621094 62.863281 53.621094 Z M 64.351562 54.578125 L 64.105469 54.578125 L 63.996094 54.292969 L 63.539062 54.292969 L 63.429688 54.578125 L 63.183594 54.578125 L 63.644531 53.445312 L 63.890625 53.445312 Z M 63.925781 54.117188 L 63.75 53.691406 L 63.609375 54.117188 Z M 64.351562 54.578125 L 64.351562 54.363281 L 64.953125 53.621094 L 64.421875 53.621094 L 64.421875 53.445312 L 65.273438 53.445312 L 65.273438 53.621094 L 64.636719 54.363281 L 65.273438 54.363281 L 65.273438 54.578125 Z M 64.351562 54.578125 "/>
<path style="fill-rule:evenodd;fill:rgb(45.097351%,27.058411%,16.862488%);fill-opacity:1;stroke-width:0.0354167;stroke-linecap:butt;stroke-linejoin:miter;stroke:rgb(0%,0%,0%);stroke-opacity:1;stroke-miterlimit:4;" d="M 64.707031 49.546875 C 64.707031 49.546875 64.527344 49.726562 64.210938 49.582031 C 63.890625 49.441406 63.855469 40.480469 63.855469 40.480469 C 64.566406 39.703125 65.132812 39.453125 65.132812 39.453125 L 65.554688 39.808594 C 63.960938 40.621094 64.105469 41.792969 64.246094 43.808594 C 64.28125 44.554688 64.28125 45.511719 64.457031 46.429688 C 64.707031 47.601562 65.203125 48.589844 65.238281 49.335938 C 65.273438 49.796875 64.707031 49.546875 64.707031 49.546875 Z M 64.707031 49.546875 "/>
<path style="fill-rule:evenodd;fill:rgb(45.097351%,27.058411%,16.862488%);fill-opacity:1;stroke-width:0.0354167;stroke-linecap:butt;stroke-linejoin:miter;stroke:rgb(0%,0%,0%);stroke-opacity:1;stroke-miterlimit:4;" d="M 63.609375 39.242188 L 64.246094 39.242188 C 63.714844 44.378906 64.175781 47.421875 64.175781 48.910156 C 64.175781 49.40625 64.457031 49.582031 64.421875 49.582031 C 63.785156 50.292969 63.464844 49.546875 63.464844 49.546875 Z M 63.609375 39.242188 "/>
<path style=" stroke:none;fill-rule:evenodd;fill:rgb(63.920593%,39.99939%,16.078186%);fill-opacity:1;" d="M 62.617188 49.546875 C 62.015625 49.832031 61.945312 49.265625 61.980469 49.195312 C 63.289062 46.539062 63.855469 40.695312 62.652344 40.054688 L 62.722656 39.488281 C 63.183594 39.632812 63.609375 40.234375 63.609375 40.234375 C 63.785156 46.785156 63.609375 49.476562 63.503906 49.582031 C 62.863281 50.257812 62.617188 49.476562 62.582031 49.40625 Z M 62.617188 49.546875 "/>
<path style="fill:none;stroke-width:0.0354167;stroke-linecap:butt;stroke-linejoin:miter;stroke:rgb(0%,0%,0%);stroke-opacity:1;stroke-miterlimit:4;" d="M 62.617188 49.546875 C 62.015625 49.832031 61.945312 49.265625 61.980469 49.195312 C 63.289062 46.539062 63.855469 40.695312 62.652344 40.054688 L 62.722656 39.488281 C 63.183594 39.632812 63.609375 40.234375 63.609375 40.234375 C 63.785156 46.785156 63.609375 49.476562 63.503906 49.582031 C 62.863281 50.257812 62.617188 49.476562 62.582031 49.40625 "/>
<path style="fill:none;stroke-width:0.0354167;stroke-linecap:butt;stroke-linejoin:miter;stroke:rgb(0%,0%,0%);stroke-opacity:1;stroke-miterlimit:4;" d="M 62.582031 49.441406 C 62.476562 48.875 63.503906 47.421875 63.429688 45.898438 "/>
<path style="fill:none;stroke-width:0.0354167;stroke-linecap:butt;stroke-linejoin:miter;stroke:rgb(0%,0%,0%);stroke-opacity:1;stroke-miterlimit:4;" d="M 64.316406 47.140625 C 64.636719 48.023438 64.777344 48.804688 64.707031 49.546875 "/>
<path style="fill-rule:evenodd;fill:rgb(0%,60.391235%,23.136902%);fill-opacity:1;stroke-width:0.0354167;stroke-linecap:butt;stroke-linejoin:miter;stroke:rgb(0%,0%,0%);stroke-opacity:1;stroke-miterlimit:4;" d="M 65.699219 36.832031 C 65.910156 36.585938 65.910156 36.585938 66.300781 36.585938 C 66.371094 36.054688 67.257812 36.054688 67.328125 36.726562 C 68.035156 36.585938 68.175781 37.011719 67.894531 37.433594 C 68.566406 37.257812 69.167969 37.433594 68.992188 38.214844 C 70.195312 38.535156 69.734375 39.382812 69.203125 39.558594 C 69.132812 40.089844 68.636719 40.269531 67.964844 40.054688 C 67.113281 40.660156 66.617188 40.445312 66.230469 39.84375 C 65.273438 39.984375 65.203125 39.773438 64.777344 39.242188 C 64.035156 39.558594 63.890625 39.558594 63.253906 39.171875 C 63.21875 39.667969 63.042969 39.523438 62.722656 39.488281 C 62.757812 40.128906 62.511719 40.410156 61.945312 40.199219 C 62.367188 41.082031 61.269531 41.472656 60.738281 40.730469 C 60.242188 40.765625 60.207031 40.621094 59.960938 40.445312 C 59.746094 41.152344 58.96875 41.046875 58.828125 40.660156 C 57.835938 40.515625 57.941406 39.984375 58.757812 39.949219 C 58.828125 39.382812 59.324219 39.488281 59.640625 39.558594 C 59.675781 39.207031 59.890625 39.277344 60.066406 39.347656 C 59.960938 39.101562 60.03125 38.957031 60.351562 38.886719 C 59.890625 38.285156 60.171875 38.074219 60.632812 37.859375 C 60.386719 37.292969 60.808594 37.328125 61.128906 37.292969 C 61.09375 36.691406 61.269531 36.585938 61.910156 36.515625 C 61.835938 36.300781 61.945312 36.125 62.296875 36.125 C 62.085938 35.523438 62.367188 35.382812 63.007812 35.488281 C 63.113281 34.613281 64.988281 35.027344 64.847656 36.230469 C 65.378906 36.300781 65.554688 36.410156 65.699219 36.832031 Z M 65.699219 36.832031 "/>
<path style="fill:none;stroke-width:0.0354167;stroke-linecap:butt;stroke-linejoin:miter;stroke:rgb(0%,0%,0%);stroke-opacity:1;stroke-miterlimit:4;" d="M 61.910156 36.515625 C 62.050781 36.585938 62.226562 36.515625 62.261719 36.902344 C 62.546875 36.410156 62.898438 36.691406 62.898438 37.257812 "/>
<path style="fill:none;stroke-width:0.0354167;stroke-linecap:butt;stroke-linejoin:miter;stroke:rgb(0%,0%,0%);stroke-opacity:1;stroke-miterlimit:4;" d="M 64.847656 36.230469 C 64.707031 36.445312 64.175781 36.445312 64.246094 37.011719 C 64.070312 36.761719 63.714844 36.691406 63.574219 36.941406 "/>
<path style="fill:none;stroke-width:0.0354167;stroke-linecap:butt;stroke-linejoin:miter;stroke:rgb(0%,0%,0%);stroke-opacity:1;stroke-miterlimit:4;" d="M 65.699219 36.832031 C 65.699219 36.976562 65.664062 37.398438 65.519531 37.613281 "/>
<path style="fill:none;stroke-width:0.0354167;stroke-linecap:butt;stroke-linejoin:miter;stroke:rgb(0%,0%,0%);stroke-opacity:1;stroke-miterlimit:4;" d="M 67.894531 37.433594 C 67.929688 37.472656 67.398438 37.433594 67.148438 37.613281 "/>
<path style="fill:none;stroke-width:0.0354167;stroke-linecap:butt;stroke-linejoin:miter;stroke:rgb(0%,0%,0%);stroke-opacity:1;stroke-miterlimit:4;" d="M 69.203125 39.558594 C 69.0625 39.488281 68.777344 39.3125 68.566406 39.597656 C 68.566406 39.453125 68.566406 39.066406 68.175781 39.066406 "/>
<path style="fill:none;stroke-width:0.0354167;stroke-linecap:butt;stroke-linejoin:miter;stroke:rgb(0%,0%,0%);stroke-opacity:1;stroke-miterlimit:4;" d="M 67.964844 40.054688 C 67.964844 39.703125 67.894531 39.597656 67.824219 39.488281 "/>
<path style="fill:none;stroke-width:0.0354167;stroke-linecap:butt;stroke-linejoin:miter;stroke:rgb(0%,0%,0%);stroke-opacity:1;stroke-miterlimit:4;" d="M 66.796875 39.558594 C 66.511719 39.347656 66.230469 39.667969 66.230469 39.84375 "/>
<path style="fill:none;stroke-width:0.0354167;stroke-linecap:butt;stroke-linejoin:miter;stroke:rgb(0%,0%,0%);stroke-opacity:1;stroke-miterlimit:4;" d="M 64.742188 39.242188 C 64.742188 39.101562 64.636719 38.816406 64.882812 38.710938 "/>
<path style="fill:none;stroke-width:0.0354167;stroke-linecap:butt;stroke-linejoin:miter;stroke:rgb(0%,0%,0%);stroke-opacity:1;stroke-miterlimit:4;" d="M 60.703125 40.730469 C 60.773438 40.375 61.023438 40.375 60.988281 40.199219 C 60.953125 39.914062 60.632812 39.667969 60.242188 40.054688 "/>
<path style="fill:none;stroke-width:0.0354167;stroke-linecap:butt;stroke-linejoin:miter;stroke:rgb(0%,0%,0%);stroke-opacity:1;stroke-miterlimit:4;" d="M 60.988281 40.199219 C 61.199219 40.128906 61.414062 40.164062 61.484375 40.269531 "/>
<path style="fill:none;stroke-width:0.0354167;stroke-linecap:butt;stroke-linejoin:miter;stroke:rgb(0%,0%,0%);stroke-opacity:1;stroke-miterlimit:4;" d="M 60.386719 38.886719 C 60.527344 38.746094 60.882812 38.78125 61.09375 38.886719 "/>
<path style="fill:none;stroke-width:0.0354167;stroke-linecap:butt;stroke-linejoin:miter;stroke:rgb(0%,0%,0%);stroke-opacity:1;stroke-miterlimit:4;" d="M 61.09375 38.039062 C 61.269531 38.039062 61.589844 37.964844 61.695312 38.285156 C 62.085938 37.683594 62.367188 37.753906 62.441406 37.894531 "/>
<path style="fill:none;stroke-width:0.0354167;stroke-linecap:butt;stroke-linejoin:miter;stroke:rgb(0%,0%,0%);stroke-opacity:1;stroke-miterlimit:4;" d="M 63.148438 37.824219 C 63.429688 37.71875 63.925781 38.003906 64.210938 38.496094 C 64.351562 38.109375 64.566406 38.179688 64.777344 38.144531 "/>
<path style="fill:none;stroke-width:0.0354167;stroke-linecap:butt;stroke-linejoin:miter;stroke:rgb(0%,0%,0%);stroke-opacity:1;stroke-miterlimit:4;" d="M 66.121094 38.496094 C 66.582031 38.285156 66.867188 38.710938 67.007812 38.886719 C 67.222656 38.605469 67.398438 38.605469 67.609375 38.605469 "/>
<path style="fill:none;stroke-width:0.0354167;stroke-linecap:butt;stroke-linejoin:miter;stroke:rgb(0%,0%,0%);stroke-opacity:1;stroke-miterlimit:4;" d="M 61.835938 39.347656 C 61.945312 39.171875 62.191406 39.136719 62.367188 39.242188 C 62.332031 38.921875 62.546875 38.78125 62.6875 38.851562 "/>
<path style=" stroke:none;fill-rule:evenodd;fill:rgb(0%,0%,0%);fill-opacity:1;" d="M 55.074219 50.183594 L 55.25 50.328125 L 54.859375 50.753906 C 54.789062 50.824219 54.753906 50.894531 54.753906 50.894531 C 54.71875 50.964844 54.71875 51 54.71875 51.035156 C 54.71875 51.070312 54.753906 51.105469 54.789062 51.140625 C 54.824219 51.210938 54.894531 51.210938 54.929688 51.210938 C 54.964844 51.210938 55.003906 51.210938 55.039062 51.175781 C 55.074219 51.175781 55.109375 51.140625 55.144531 51.070312 L 55.570312 50.609375 L 55.710938 50.753906 L 55.355469 51.175781 L 55.144531 51.390625 C 55.109375 51.425781 55.074219 51.425781 55.003906 51.425781 L 54.859375 51.425781 C 54.789062 51.390625 54.753906 51.355469 54.683594 51.320312 C 54.613281 51.246094 54.542969 51.175781 54.542969 51.105469 C 54.507812 51.070312 54.507812 51 54.507812 50.964844 C 54.507812 50.929688 54.507812 50.859375 54.542969 50.824219 C 54.542969 50.789062 54.613281 50.714844 54.683594 50.609375 Z M 55.179688 51.707031 L 55.78125 50.789062 L 55.957031 50.894531 L 55.921875 51.742188 L 56.3125 51.140625 L 56.488281 51.246094 L 55.921875 52.167969 L 55.710938 52.0625 L 55.746094 51.210938 L 55.355469 51.816406 Z M 56.101562 52.273438 L 56.597656 51.285156 L 56.773438 51.390625 L 56.3125 52.347656 Z M 56.878906 51.425781 L 57.234375 51.566406 C 57.339844 51.601562 57.375 51.636719 57.410156 51.671875 C 57.480469 51.707031 57.515625 51.742188 57.550781 51.816406 C 57.585938 51.886719 57.585938 51.921875 57.585938 51.992188 C 57.585938 52.097656 57.550781 52.167969 57.515625 52.273438 C 57.515625 52.347656 57.480469 52.417969 57.410156 52.453125 C 57.375 52.523438 57.304688 52.59375 57.234375 52.59375 C 57.199219 52.628906 57.128906 52.628906 57.089844 52.628906 C 57.019531 52.628906 56.949219 52.628906 56.878906 52.59375 L 56.488281 52.453125 Z M 57.019531 51.671875 L 56.773438 52.347656 L 56.914062 52.417969 C 56.984375 52.417969 57.019531 52.453125 57.054688 52.453125 L 57.164062 52.453125 C 57.164062 52.417969 57.199219 52.382812 57.234375 52.347656 C 57.269531 52.308594 57.304688 52.238281 57.304688 52.167969 C 57.339844 52.097656 57.375 52.027344 57.375 51.992188 C 57.375 51.957031 57.375 51.886719 57.339844 51.886719 C 57.339844 51.851562 57.304688 51.816406 57.269531 51.777344 C 57.234375 51.777344 57.199219 51.742188 57.089844 51.707031 Z M 58.507812 52.984375 L 58.261719 52.949219 L 58.226562 52.699219 L 57.800781 52.59375 L 57.660156 52.839844 L 57.410156 52.769531 L 58.046875 51.816406 L 58.261719 51.851562 Z M 58.191406 52.488281 L 58.117188 52.0625 L 57.90625 52.453125 Z M 58.648438 51.921875 L 59.074219 51.921875 C 59.144531 51.957031 59.214844 51.957031 59.253906 51.957031 C 59.324219 51.992188 59.394531 52.027344 59.429688 52.0625 C 59.464844 52.132812 59.5 52.167969 59.5 52.238281 C 59.535156 52.308594 59.535156 52.417969 59.535156 52.523438 C 59.535156 52.59375 59.535156 52.664062 59.5 52.734375 C 59.464844 52.804688 59.429688 52.878906 59.359375 52.914062 C 59.324219 52.949219 59.289062 52.984375 59.214844 53.019531 L 59.003906 53.019531 L 58.613281 52.984375 Z M 58.863281 52.097656 L 58.828125 52.839844 L 59.144531 52.839844 C 59.179688 52.804688 59.179688 52.804688 59.214844 52.804688 C 59.253906 52.769531 59.253906 52.734375 59.289062 52.699219 C 59.289062 52.628906 59.324219 52.558594 59.324219 52.488281 C 59.324219 52.417969 59.324219 52.347656 59.289062 52.308594 C 59.289062 52.238281 59.289062 52.203125 59.253906 52.203125 C 59.214844 52.167969 59.179688 52.132812 59.144531 52.132812 L 58.96875 52.132812 Z M 58.863281 52.097656 "/>
<path style=" stroke:none;fill-rule:evenodd;fill:rgb(0%,0%,0%);fill-opacity:1;" d="M 67.929688 52.167969 L 68.140625 52.132812 L 68.246094 52.769531 L 68.246094 52.984375 C 68.210938 53.054688 68.175781 53.089844 68.140625 53.160156 C 68.105469 53.195312 68.035156 53.230469 67.929688 53.230469 C 67.824219 53.230469 67.753906 53.230469 67.679688 53.160156 C 67.609375 53.125 67.574219 53.054688 67.574219 52.914062 L 67.753906 52.878906 C 67.789062 52.949219 67.789062 52.984375 67.824219 53.019531 C 67.824219 53.054688 67.859375 53.054688 67.929688 53.054688 C 67.964844 53.054688 68 53.019531 68 52.984375 C 68.035156 52.949219 68.035156 52.914062 68.035156 52.804688 L 67.929688 52.132812 Z M 68.285156 52.097656 L 68.496094 52.0625 L 68.601562 52.628906 C 68.636719 52.699219 68.636719 52.769531 68.636719 52.804688 C 68.671875 52.839844 68.707031 52.878906 68.742188 52.878906 C 68.777344 52.914062 68.816406 52.914062 68.886719 52.878906 C 68.957031 52.878906 68.992188 52.839844 68.992188 52.839844 C 69.027344 52.804688 69.0625 52.769531 69.027344 52.734375 L 69.027344 52.558594 L 68.886719 51.992188 L 69.097656 51.957031 L 69.203125 52.488281 C 69.238281 52.59375 69.238281 52.699219 69.238281 52.734375 C 69.238281 52.804688 69.238281 52.839844 69.203125 52.878906 C 69.203125 52.914062 69.167969 52.949219 69.132812 52.984375 C 69.0625 53.019531 68.992188 53.054688 68.921875 53.054688 C 68.816406 53.089844 68.742188 53.089844 68.707031 53.089844 C 68.636719 53.054688 68.601562 53.054688 68.566406 53.019531 L 68.460938 52.914062 C 68.460938 52.839844 68.425781 52.769531 68.390625 52.664062 Z M 69.382812 52.59375 L 69.558594 52.523438 C 69.59375 52.59375 69.628906 52.628906 69.699219 52.628906 C 69.734375 52.664062 69.804688 52.664062 69.839844 52.628906 C 69.914062 52.628906 69.949219 52.59375 69.984375 52.558594 C 70.019531 52.523438 70.019531 52.488281 70.019531 52.453125 C 69.984375 52.417969 69.984375 52.417969 69.984375 52.382812 L 69.699219 52.382812 C 69.59375 52.382812 69.488281 52.382812 69.453125 52.347656 C 69.382812 52.308594 69.308594 52.238281 69.273438 52.167969 L 69.273438 52.027344 C 69.308594 51.957031 69.347656 51.921875 69.382812 51.886719 C 69.417969 51.851562 69.488281 51.816406 69.558594 51.777344 C 69.699219 51.742188 69.804688 51.742188 69.878906 51.777344 C 69.949219 51.816406 70.019531 51.886719 70.054688 51.957031 L 69.839844 52.027344 C 69.804688 51.992188 69.804688 51.957031 69.769531 51.957031 C 69.734375 51.921875 69.664062 51.921875 69.628906 51.957031 C 69.558594 51.957031 69.523438 51.992188 69.488281 52.027344 L 69.488281 52.097656 C 69.488281 52.132812 69.488281 52.132812 69.523438 52.167969 L 69.984375 52.167969 C 70.019531 52.167969 70.089844 52.203125 70.125 52.238281 C 70.160156 52.273438 70.195312 52.308594 70.195312 52.382812 C 70.230469 52.453125 70.230469 52.488281 70.195312 52.558594 C 70.195312 52.628906 70.160156 52.664062 70.125 52.699219 L 69.914062 52.804688 C 69.769531 52.839844 69.664062 52.839844 69.59375 52.804688 C 69.488281 52.769531 69.417969 52.699219 69.382812 52.59375 Z M 70.691406 52.523438 L 70.335938 51.707031 L 70.054688 51.851562 L 69.984375 51.671875 L 70.761719 51.355469 L 70.832031 51.496094 L 70.550781 51.636719 L 70.867188 52.417969 Z M 71.292969 52.238281 L 70.796875 51.320312 L 70.976562 51.210938 L 71.472656 52.132812 Z M 72.003906 51.390625 L 72.214844 51.320312 C 72.25 51.425781 72.25 51.53125 72.214844 51.601562 C 72.179688 51.707031 72.144531 51.777344 72.039062 51.851562 C 71.894531 51.921875 71.789062 51.921875 71.648438 51.886719 C 71.542969 51.851562 71.433594 51.777344 71.328125 51.636719 C 71.257812 51.496094 71.222656 51.355469 71.257812 51.210938 C 71.257812 51.105469 71.328125 51 71.472656 50.894531 C 71.578125 50.859375 71.683594 50.824219 71.789062 50.859375 C 71.859375 50.859375 71.929688 50.894531 72.003906 50.964844 L 71.824219 51.105469 C 71.789062 51.070312 71.753906 51.035156 71.683594 51.035156 C 71.648438 51.035156 71.613281 51.035156 71.542969 51.070312 C 71.472656 51.105469 71.433594 51.175781 71.433594 51.246094 C 71.433594 51.320312 71.472656 51.390625 71.507812 51.496094 C 71.578125 51.636719 71.648438 51.671875 71.71875 51.707031 C 71.789062 51.742188 71.859375 51.707031 71.929688 51.671875 L 72.039062 51.566406 C 72.039062 51.496094 72.039062 51.460938 72.003906 51.390625 Z M 72.535156 51.496094 L 71.894531 50.644531 L 72.074219 50.503906 L 72.710938 51.355469 Z M 73.558594 50.609375 L 73.382812 50.753906 L 73.171875 50.644531 L 72.851562 50.929688 L 72.957031 51.140625 L 72.78125 51.320312 L 72.390625 50.257812 L 72.570312 50.113281 Z M 72.992188 50.539062 L 72.640625 50.363281 L 72.78125 50.753906 Z M 72.992188 50.539062 "/>
</g>
</svg>
