<svg viewBox="0 0 1000 667" xmlns="http://www.w3.org/2000/svg" xmlns:xlink="http://www.w3.org/1999/xlink"><clipPath id="a"><path d="m0 0h1000v666.71875h-1000zm0 0"/></clipPath><clipPath id="b"><path d="m0 0h250v666.71875h-250zm0 0"/></clipPath><g clip-path="url(#a)"><path d="m0 666.667969v-666.667969h1000v666.667969zm0 0" fill="#e32118" fill-rule="evenodd"/></g><path d="m0 0h1000v444.445312h-1000zm0 0" fill="#fff" fill-rule="evenodd"/><path d="m0 0h1000v222.222656h-1000zm0 0" fill="#3e9a00" fill-rule="evenodd"/><g clip-path="url(#b)"><path d="m0 0v666.667969l250-333.335938zm0 0" fill="#0073ce" fill-rule="evenodd"/></g><g fill-rule="evenodd"><path d="m563.058594 375.558594 6.941406 9.996094 6.386719-9.445313-4.441407-8.054687zm0 0" fill="#fff" stroke="#000" stroke-width=".972222"/><path d="m518.886719 404.722656.558593 10s2.777344 0 5.277344-.835937c2.222656-.828125 4.167969-2.496094 4.167969-2.496094l-.28125-5.277344zm0 0" fill="#fff" stroke="#000" stroke-width=".972222"/><path d="m481.664062 404.722656-.550781 9.722656s-2.503906 0-5.003906-.558593c-2.21875-.550781-4.164063-1.945313-4.164063-1.945313l-2.78125-6.664062zm0 0" fill="#fff" stroke="#000" stroke-width=".972222"/><path d="m446.667969 266.332031h106.386719v111.445313c0 37.5-48.886719 8.613281-53.054688 28.609375-7.222656-20.554688-53.054688 9.167969-53.054688-30.828125 0-38.894532-.277343-109.226563-.277343-109.226563zm0 0" fill="#fff" stroke="#000" stroke-width="1.333333"/><path d="m436.941406 375.558594-7.21875 9.996094-7.777344-12.777344 5.832032-6.109375zm0 0" fill="#fff" stroke="#000" stroke-width=".972222"/><path d="m496.390625 250.71875-6.113281.28125-3.054688 5.472656-3.332031-5.222656-6.113281.25 2.777344-5.5-3.332032-5.222656 6.386719-.277344 2.78125-5.472656 3.332031 5.222656 6.109375-.253906-2.777343 5.503906zm0 0" fill="#ffd700" stroke="#000" stroke-width=".972222"/><path d="m470.277344 252.75-6.109375 1.496094-1.667969 5.921875-4.445312-4.445313-5.832032 1.441406 1.667969-5.914062-4.167969-4.5 5.832032-1.472656 1.667968-5.941406 4.441406 4.441406 6.113282-1.441406-1.945313 5.941406zm0 0" fill="#ffd700" stroke="#000" stroke-width=".972222"/><path d="m445 257.941406-5.554688 2.753906-.277343 6.167969-5.277344-3.390625-5.558594 2.722656.558594-6.167968-5.277344-3.414063 5.554688-2.78125.554687-6.164062 5 3.386719 5.554688-2.722657-.28125 6.167969zm0 0" fill="#ffd700" stroke="#000" stroke-width=".972222"/><path d="m504.445312 250.71875 6.109376.28125 2.78125 5.472656 3.332031-5.222656 6.109375.25-2.777344-5.5 3.332031-5.222656-6.109375-.277344-3.054687-5.472656-3.335938 5.222656-6.109375-.253906 2.777344 5.503906zm0 0" fill="#ffd700" stroke="#000" stroke-width=".972222"/><path d="m530.554688 252.75 5.835937 1.496094 1.667969 5.921875 4.441406-4.445313 5.832031 1.441406-1.664062-5.914062 4.441406-4.5-6.109375-1.472656-1.664062-5.941406-4.449219 4.441406-5.832031-1.441406 1.667968 5.941406zm0 0" fill="#ffd700" stroke="#000" stroke-width=".972222"/><path d="m555.554688 257.941406 5.558593 2.753906.277344 6.167969 5.277344-3.390625 5.554687 2.722656-.277344-6.167968 5-3.414063-5.554687-2.78125-.28125-6.164062-5.277344 3.386719-5.554687-2.722657.554687 6.167969zm0 0" fill="#ffd700" stroke="#000" stroke-width=".972222"/><path d="m471.667969 411.390625v13.332031c0 9.445313 57.222656 9.445313 57.222656 0v-13.332031c0 6.945313-57.222656 5.554687-57.222656 0zm0 0" fill="#fff" stroke="#000" stroke-width=".972222"/><path d="m420.554688 393.886719c5.003906 25.558593 51.113281 26.113281 51.113281 26.113281v-8.609375c-1.113281-3.335937.835937-4.445313 8.332031-5.554687 3.054688-.28125 1.664062-4.726563 1.664062-4.726563s-20 3.613281-34.160156-1.945313c-19.171875-7.773437-21.945312-22.777343-21.945312-22.777343s-1.394532 11.671875-5.003906 17.5zm0 0" fill="#fff" stroke="#000" stroke-width=".972222"/><path d="m579.722656 393.886719c-4.722656 25.558593-50.832031 26.113281-50.832031 26.113281v-8.609375c.832031-3.335937-1.113281-4.445313-8.613281-5.554687-3.054688-.28125-1.390625-4.726563-1.390625-4.726563s20 3.613281 34.167969-1.945313c18.890624-7.773437 21.109374-22.777343 21.109374-22.777343s1.945313 11.671875 5.558594 17.5zm0 0" fill="#fff" stroke="#000" stroke-width=".972222"/><path d="m424.164062 384.167969c-12.773437-6.945313-2.773437-14.167969-1.660156-34.726563 1.9375 12.5 16.105469 17.78125 14.4375 25.835938-5.828125.28125-8.609375-8.609375-11.382812 1.109375zm0 0" fill="#fff" stroke="#000" stroke-width=".972222"/><path d="m576.109375 384.167969c12.777344-7.222657 2.222656-14.167969 1.113281-34.726563-1.945312 12.5-15.832031 17.78125-14.164062 25.835938 5.554687.28125 8.332031-8.609375 11.105468 1.109375l1.945313 7.503906zm0 0" fill="#fff" stroke="#000" stroke-width=".972222"/><path d="m489.167969 428.054688v-8.890626h4.996093c.558594.28125 1.113282.558594 1.390626.835938.277343.554688.554687 1.109375.554687 1.667969 0 .554687-.277344 1.109375-.277344 1.386719-.277343.558593-.554687.835937-.832031 1.109374-.277344 0-.554688.277344-.835938.277344-.550781 0-1.109374.28125-1.941406.28125h-1.113281v3.332032zm1.941406-7.5v2.5h2.226563c.277343-.277344.550781-.277344.550781-.550782.277343-.28125.277343-.28125.277343-.558594 0-.554687 0-.835937-.277343-.835937-.273438-.277344-.550781-.554687-.832031-.554687zm13.613281 7.5h-1.945312l-.832032-2.21875h-3.613281l-.828125 2.21875h-1.949218l3.609374-8.890626h1.945313zm-3.335937-3.613282-1.386719-3.332031-1.109375 3.332031zm3.335937 3.613282v-1.667969l4.722656-5.832031h-4.167968v-1.390626h6.664062v1.390626l-4.996094 5.832031h4.996094v1.667969zm0 0"/><path d="m507.5 388.609375s-1.386719 1.386719-3.890625.277344c-2.5-1.109375-2.773437-71.386719-2.773437-71.386719 5.550781-6.109375 9.996093-8.054688 9.996093-8.054688l3.335938 2.777344c-12.5 6.390625-11.390625 15.554688-10.277344 31.390625.277344 5.828125.277344 13.332031 1.664063 20.554688 1.945312 9.164062 5.835937 16.945312 6.109374 22.773437.277344 3.613282-4.164062 1.667969-4.164062 1.667969zm0 0" fill="#73452b" stroke="#000" stroke-width=".277778"/><path d="m498.890625 307.777344h5c-4.167969 40.277344-.558594 64.167968-.558594 75.832031 0 3.890625 2.222657 5.277344 1.945313 5.277344-5 5.558593-7.5-.277344-7.5-.277344zm0 0" fill="#73452b" stroke="#000" stroke-width=".277778"/><path d="m491.109375 388.609375c-4.71875 2.222656-5.277344-2.21875-4.996094-2.777344 10.277344-20.835937 14.722657-66.667969 5.277344-71.664062l.554687-4.445313c3.609376 1.109375 6.945313 5.832032 6.945313 5.832032 1.386719 51.390624 0 72.503906-.835937 73.332031-5 5.277343-6.945313-.828125-7.222657-1.386719zm0 0" fill="#a36629"/></g><path d="m491.109375 388.609375c-4.71875 2.222656-5.277344-2.21875-4.996094-2.777344 10.277344-20.835937 14.722657-66.667969 5.277344-71.664062l.554687-4.445313c3.609376 1.109375 6.945313 5.832032 6.945313 5.832032 1.386719 51.390624 0 72.503906-.835937 73.332031-5 5.277343-6.945313-.828125-7.222657-1.386719" fill="none" stroke="#000" stroke-width=".277778"/><path d="m490.832031 387.777344c-.835937-4.445313 7.222657-15.832032 6.671875-27.773438" fill="none" stroke="#000" stroke-width=".277778"/><path d="m504.445312 369.722656c2.5 6.945313 3.609376 13.054688 3.054688 18.886719" fill="none" stroke="#000" stroke-width=".277778"/><path d="m515.277344 288.886719c1.667968-1.945313 1.667968-1.945313 4.722656-1.945313.554688-4.164062 7.496094-4.164062 8.054688 1.117188 5.554687-1.117188 6.667968 2.21875 4.445312 5.554687 5.277344-1.390625 10 0 8.609375 6.109375 9.449219 2.5 5.835937 9.167969 1.667969 10.554688-.554688 4.167968-4.441406 5.554687-9.722656 3.890625-6.667969 4.71875-10.550782 3.054687-13.609376-1.667969-7.503906 1.109375-8.054687-.558594-11.390624-4.722656-5.832032 2.5-6.945313 2.5-11.945313-.554688-.277344 3.890625-1.664063 2.78125-4.164063 2.5.277344 5-1.667968 7.222656-6.113281 5.554688 3.335938 6.945312-5.277343 10-9.445312 4.167968-3.882813.277344-4.164063-.832031-6.109375-2.222656-1.664063 5.554688-7.777344 4.722656-8.886719 1.664063-7.78125-1.109375-6.945313-5.277344-.558594-5.550781.558594-4.445313 4.445313-3.613282 6.945313-3.058594.277344-2.777344 1.945312-2.222656 3.332031-1.667969-.832031-1.945313-.277344-3.054687 2.222656-3.609375-3.609375-4.722656-1.386719-6.386719 2.226563-8.054688-1.945313-4.445312 1.386718-4.167968 3.886718-4.445312-.277343-4.722656 1.109376-5.558594 6.109376-6.109375-.550782-1.667969.277343-3.058594 3.054687-3.058594-1.667969-4.722656.558594-5.804687 5.554687-5 .835938-6.859375 15.558594-3.609375 14.445313 5.835938 4.167969.554687 5.558594 1.386719 6.667969 4.71875zm0 0" fill="#009a3b" fill-rule="evenodd" stroke="#000" stroke-width=".277778"/><path d="m485.554688 286.390625c1.109374.550781 2.503906 0 2.78125 3.054687 2.21875-3.890624 5-1.667968 5 2.777344" fill="none" stroke="#000" stroke-width=".277778"/><path d="m508.609375 284.167969c-1.109375 1.664062-5.277344 1.664062-4.71875 6.109375-1.394531-1.941406-4.167969-2.5-5.277344-.554688" fill="none" stroke="#000" stroke-width=".277778"/><path d="m515.277344 288.886719c0 1.109375-.28125 4.449219-1.390625 6.113281" fill="none" stroke="#000" stroke-width=".277778"/><path d="m532.5 293.613281c.277344.273438-3.890625 0-5.832031 1.386719" fill="none" stroke="#000" stroke-width=".277778"/><path d="m542.777344 310.277344c-1.109375-.554688-3.332032-1.945313-5 .277344 0-1.109376 0-4.167969-3.054688-4.167969" fill="none" stroke="#000" stroke-width=".277778"/><path d="m533.054688 314.167969c0-2.777344-.554688-3.613281-1.109376-4.445313" fill="none" stroke="#000" stroke-width=".277778"/><path d="m523.890625 310.277344c-2.222656-1.667969-4.445313.835937-4.445313 2.222656" fill="none" stroke="#000" stroke-width=".277778"/><path d="m507.777344 307.777344c0-1.113282-.832032-3.332032 1.113281-4.167969" fill="none" stroke="#000" stroke-width=".277778"/><path d="m476.109375 319.445312c.558594-2.777343 2.5-2.777343 2.222656-4.167968-.277343-2.21875-2.773437-4.164063-5.828125-1.109375" fill="none" stroke="#000" stroke-width=".277778"/><path d="m478.332031 315.277344c1.667969-.554688 3.332031-.28125 3.890625.554687" fill="none" stroke="#000" stroke-width=".277778"/><path d="m473.613281 305c1.109375-1.109375 3.882813-.832031 5.554688 0" fill="none" stroke="#000" stroke-width=".277778"/><path d="m479.167969 298.332031c1.386719 0 3.886719-.554687 4.722656 1.945313 3.050781-4.722656 5.277344-4.167969 5.832031-3.054688" fill="none" stroke="#000" stroke-width=".277778"/><path d="m495.277344 296.667969c2.226562-.835938 6.109375 1.386719 8.332031 5.277343 1.113281-3.054687 2.777344-2.503906 4.445313-2.78125" fill="none" stroke="#000" stroke-width=".277778"/><path d="m518.613281 301.945312c3.609375-1.667968 5.828125 1.664063 6.945313 3.054688 1.664062-2.222656 3.050781-2.222656 4.71875-2.222656" fill="none" stroke="#000" stroke-width=".277778"/><path d="m485.003906 308.609375c.828125-1.386719 2.773438-1.664063 4.164063-.832031-.28125-2.5 1.386719-3.609375 2.5-3.054688" fill="none" stroke="#000" stroke-width=".277778"/><path d="m431.945312 393.613281 1.386719 1.109375-3.054687 3.332032c-.554688.558593-.832032 1.109374-.832032 1.109374-.277343.558594-.277343.835938-.277343 1.113282 0 .28125.277343.558594.554687.832031.277344.558594.832032.558594 1.113282.558594.277343 0 .550781 0 .828124-.28125.28125 0 .558594-.277344.835938-.828125l3.332031-3.613282 1.109375 1.109376-2.773437 3.332031-1.667969 1.667969c-.277344.277343-.554688.277343-1.113281.277343h-1.109375c-.554688-.277343-.832032-.554687-1.386719-.835937-.558594-.550782-1.113281-1.109375-1.113281-1.660156-.28125-.277344-.28125-.835938-.28125-1.113282 0-.28125 0-.832031.28125-1.109375 0-.28125.554687-.835937 1.113281-1.667969zm.832032 11.941407 4.722656-7.222657 1.386719.832031-.277344 6.671876 3.058594-4.726563 1.386719.835937-4.445313 7.222657-1.667969-.835938.28125-6.664062-3.054687 4.71875zm7.21875 4.449218 3.890625-7.78125 1.390625.832032-3.609375 7.5zm6.113281-6.671875 2.78125 1.113281c.832031.277344 1.109375.554688 1.386719.832032.558594.277344.832031.558594 1.109375 1.109375.28125.558593.28125.835937.28125 1.390625 0 .832031-.28125 1.390625-.558594 2.226562 0 .550782-.273437 1.109375-.832031 1.386719-.277344.550781-.835938 1.109375-1.386719 1.109375-.277344.277344-.835937.277344-1.113281.277344-.554688 0-1.109375 0-1.667969-.277344l-3.054687-1.109375zm1.113281 1.945313-1.945312 5.277344 1.113281.558593c.554687 0 .832031.277344 1.113281.277344h.828125c0-.277344.28125-.558594.558594-.835937.273437-.277344.550781-.832032.550781-1.386719.28125-.558594.558594-1.113281.558594-1.390625s0-.832032-.277344-.832032c0-.28125-.28125-.558593-.558594-.832031-.273437 0-.550781-.277343-1.386718-.558593zm11.667969 10.277344-1.945313-.277344-.28125-1.941406-3.332031-.835938-1.109375 1.945312-1.945312-.558593 5-7.5 1.667968.277343zm-2.503906-3.890626-.550781-3.332031-1.667969 3.058594zm3.617187-4.441406h3.332032c.550781.277344 1.109374.277344 1.386718.277344.554688.277344 1.109375.554688 1.386719.832031.28125.558594.558594.835938.558594 1.390625.277343.554688.277343 1.390625.277343 2.21875 0 .558594 0 1.117188-.277343 1.667969-.277344.558594-.558594 1.113281-1.113281 1.386719-.277344.28125-.558594.558594-1.109376.835937h-1.667968l-3.054688-.277343zm1.660156 1.386719-.273437 5.835937h2.496094c.28125-.277343.28125-.277343.558593-.277343.277344-.28125.277344-.558594.550782-.832031 0-.558594.28125-1.113282.28125-1.671876 0-.550781 0-1.109374-.28125-1.386718 0-.554688 0-.832032-.273438-.832032-.277344-.277343-.554687-.554687-.835937-.554687h-1.386719zm0 0" fill-rule="evenodd"/><path d="m532.777344 409.167969 1.667968-.277344.832032 4.996094v1.667969c-.273438.554687-.554688.835937-.832032 1.390624-.277343.277344-.835937.554688-1.667968.554688-.832032 0-1.390625 0-1.941406-.554688-.558594-.277343-.835938-.835937-.835938-1.949218l1.386719-.273438c.277343.554688.277343.832032.558593 1.109375 0 .277344.277344.277344.832032.277344.277344 0 .554687-.277344.554687-.554687.277344-.277344.277344-.558594.277344-1.386719l-.832031-5.277344zm2.777344-.558594 1.667968-.277344.835938 4.445313c.277344.558594.277344 1.109375.277344 1.390625.273437.277343.550781.554687.832031.554687.277343.273438.554687.273438 1.109375 0 .554687 0 .832031-.277344.832031-.277344.28125-.277343.558594-.558593.28125-.835937v-1.386719l-1.113281-4.445312 1.667968-.277344.832032 4.164062c.277344.835938.277344 1.671876.277344 1.945313 0 .558594 0 .835937-.277344 1.113281 0 .273438-.277344.554688-.554688.832032-.554687.277343-1.113281.554687-1.667968.554687-.832032.28125-1.386719.28125-1.667969.28125-.550781-.28125-.828125-.28125-1.109375-.558594l-.835938-.835937c0-.550782-.277344-1.109375-.550781-1.9375zm8.609374 3.890625 1.390626-.558594c.277343.558594.554687.835938 1.113281.835938.277343.28125.835937.28125 1.109375 0 .554687 0 .835937-.277344 1.113281-.554688.273437-.28125.273437-.558594.273437-.832031-.273437-.277344-.273437-.277344-.273437-.558594h-2.222656c-.835938 0-1.667969 0-1.945313-.277343-.558594-.277344-1.109375-.832032-1.386718-1.386719v-1.113281c.277343-.554688.550781-.832032.828124-1.109376.28125-.28125.835938-.558593 1.390626-.832031 1.113281-.277343 1.949218-.277343 2.5 0 .558593.273438 1.109374.832031 1.386718 1.386719l-1.664062.554688c-.273438-.277344-.273438-.554688-.554688-.554688-.277344-.277344-.832031-.277344-1.113281 0-.554687 0-.832031.277344-1.109375.554688v.554687c0 .28125 0 .28125.277344.558594h3.613281c.273437 0 .832031.277343 1.109375.554687.277344.28125.558594.554688.558594 1.109375.277344.558594.277344.832031 0 1.390625 0 .554688-.28125.835938-.558594 1.113282l-1.667969.832031c-1.109375.277343-1.941406.277343-2.5 0-.832031-.28125-1.386719-.832031-1.667969-1.667969zm10.28125-.558594-2.777343-6.386718-2.226563 1.109374-.550781-1.386718 6.109375-2.5.554688 1.113281-2.222657 1.109375 2.503907 6.113281zm4.722657-2.21875-3.890625-7.226562 1.386718-.828125 3.890626 7.222656zm5.554687-6.667968 1.667969-.558594c.277344.835937.277344 1.671875 0 2.226562-.28125.832032-.558594 1.390625-1.394531 1.941406-1.109375.558594-1.9375.558594-3.054688.28125-.828125-.28125-1.664062-.832031-2.496094-1.945312-.554687-1.109375-.835937-2.222656-.554687-3.332031 0-.832031.554687-1.667969 1.664063-2.503907.835937-.273437 1.667968-.550781 2.503906-.273437.550781 0 1.109375.273437 1.664062.832031l-1.386718 1.113282c-.277344-.277344-.558594-.558594-1.113282-.558594-.28125 0-.558594 0-1.109375.28125-.558593.277344-.835937.828125-.835937 1.386718 0 .550782.277344 1.109376.554687 1.945313.558594 1.109375 1.109375 1.386719 1.667969 1.664063.558594.28125 1.109375 0 1.667969-.277344l.828125-.832032c0-.554687 0-.835937-.273438-1.390624zm4.164063.835937-5-6.667969 1.390625-1.113281 5 6.667969zm8.058593-6.945313-1.386718 1.109376-1.667969-.832032-2.5 2.21875.832031 1.667969-1.390625 1.386719-3.054687-8.332032 1.386718-1.109374zm-4.441406-.554687-2.78125-1.390625 1.109375 3.054688zm0 0" fill-rule="evenodd"/></svg>