<?xml version="1.0" encoding="UTF-8"?>
<svg xmlns="http://www.w3.org/2000/svg" xmlns:xlink="http://www.w3.org/1999/xlink" width="128pt" height="64pt" viewBox="0 0 128 64" version="1.1">
<g id="surface346">
<rect x="0" y="0" width="128" height="64" style="fill:rgb(91.763306%,1.568604%,21.568298%);fill-opacity:1;stroke:none;"/>
<path style=" stroke:none;fill-rule:evenodd;fill:rgb(25.489807%,53.72467%,86.665344%);fill-opacity:1;" d="M 0 64 L 128 64 L 128 32 Z M 0 64 "/>
<path style=" stroke:none;fill-rule:evenodd;fill:rgb(7.058716%,67.842102%,16.862488%);fill-opacity:1;" d="M 0 0 L 128 0 L 128 32 Z M 0 0 "/>
<path style=" stroke:none;fill-rule:evenodd;fill:rgb(99.998474%,78.038025%,14.901733%);fill-opacity:1;" d="M 29.472656 47.253906 C 28.089844 47.636719 27.296875 48.707031 27.316406 49.722656 L 34.125 49.695312 C 34.1875 48.605469 33.292969 47.597656 31.929688 47.203125 C 38.597656 47.0625 44.390625 44.566406 45.441406 42.964844 C 44.402344 42.511719 43.195312 43.238281 42.339844 43.070312 C 44.375 42.128906 50.484375 38.175781 49.492188 33.9375 C 48.71875 36.292969 46.382812 38.238281 45.386719 38.761719 C 47.667969 35.296875 50.78125 31.691406 48.078125 28.898438 C 48.214844 30.515625 47.050781 32.296875 46.535156 32.433594 C 47.859375 28.773438 49.125 24.175781 46.253906 21.144531 C 46.632812 22.242188 46.480469 25.328125 45.960938 25.46875 C 45.800781 22.980469 45.375 17.742188 42.753906 17.816406 C 43.589844 18.558594 43.953125 20.582031 43.96875 22.625 C 43.375 21.226562 42.695312 20.171875 41.242188 19.140625 C 40.066406 16.886719 37.976562 15.019531 35.886719 13.679688 C 36.121094 15.320312 36.316406 16.613281 38.605469 18.316406 C 37.410156 18.242188 36.21875 15.980469 34.941406 15.914062 C 33.925781 15.867188 33.128906 16.835938 31.472656 16.277344 C 31.65625 16.824219 32.429688 17.066406 32.59375 17.472656 C 32.238281 17.71875 31.394531 17.433594 30.691406 17.070312 C 31.65625 18.382812 33.152344 19.15625 34.421875 18.894531 C 35.929688 18.605469 37.546875 18.757812 39.089844 19.636719 C 38.695312 19.839844 37.160156 19.835938 36.175781 19.714844 C 37.074219 20.621094 37.671875 21.21875 39.226562 21.210938 C 40.617188 21.203125 41.34375 20.46875 41.703125 20.921875 C 42.574219 21.953125 43.160156 22.988281 43.890625 24.203125 C 42.28125 24.378906 42.765625 22.382812 40.972656 21.359375 C 39.964844 23.445312 42.128906 25.917969 43.605469 26.945312 C 43.625 28.511719 43.855469 29.824219 44.519531 31.015625 C 44.96875 31.859375 45.546875 32.71875 45.328125 34.621094 C 44.445312 33.976562 43.582031 31.808594 43.898438 30.085938 C 42.796875 30.386719 42.363281 32.332031 42.882812 33.308594 C 43.273438 34.054688 43.53125 35.480469 43.082031 36.117188 C 42.644531 36.710938 42.601562 36.640625 42.605469 37.917969 C 42.621094 38.679688 42.195312 39.578125 41.503906 40.207031 C 41.648438 39.671875 41.8125 38.746094 41.652344 38.167969 C 41.105469 39.101562 39.730469 40.0625 39.296875 41.0625 C 38.871094 42.0625 38.761719 43.800781 36.703125 44.199219 C 34.054688 44.726562 33.140625 45.183594 31.4375 45.882812 C 31.25 44.589844 31.816406 41.890625 32.898438 42.042969 C 33.953125 42.230469 37.15625 40.9375 36.011719 38.242188 C 35.785156 39.089844 35.03125 39.921875 34.214844 39.957031 C 35.09375 38.8125 36.667969 37.628906 35.902344 35.710938 C 35.476562 36.527344 34.808594 37.503906 33.789062 38.054688 C 34.878906 35.96875 33.917969 35.34375 32.625 37.0625 C 32.136719 37.726562 31.839844 39.054688 31.53125 40.742188 C 31.019531 39.371094 31.054688 37.5625 30.453125 36.09375 C 29.824219 34.507812 31.289062 34.089844 31.976562 34.214844 C 33.664062 34.667969 36.480469 34.667969 36.273438 31.878906 C 35.542969 32.824219 34.265625 33.113281 32.886719 32.773438 C 34.4375 31.644531 35.660156 29.515625 33.933594 28.402344 C 33.875 29.582031 32.964844 30.902344 31.746094 31.511719 C 31.460938 30.515625 31.460938 29.460938 31.707031 28.304688 C 31.027344 29.019531 30.53125 30.511719 30.136719 32.203125 C 30.105469 30.53125 30.421875 29.324219 30.65625 28.425781 C 31.011719 27.109375 31.894531 27.964844 33.25 28.0625 C 34.554688 28.136719 36.347656 27.414062 36.003906 25.648438 C 35.558594 26.347656 34.644531 26.621094 33.714844 26.546875 C 34.835938 25.863281 36.792969 24.65625 35.71875 22.792969 C 35.269531 23.5 35.125 24.101562 33.816406 24.316406 C 34.160156 23.53125 34.21875 22.417969 35.230469 21.980469 C 33.421875 21.617188 32.386719 22.804688 31.859375 24.664062 C 31.648438 23.375 31.394531 22.902344 31.34375 21.957031 C 32.320312 20.875 32.421875 18.75 30.308594 18.277344 C 30.183594 19.371094 30.21875 19.632812 30.460938 20.523438 C 29.46875 19.933594 28.066406 19.609375 27.136719 20.441406 C 27.765625 21.125 28.742188 21.722656 30.25 20.980469 C 29.894531 22.144531 28.96875 21.945312 27.699219 21.5 C 28.476562 22.960938 29.457031 23.21875 30.539062 23.050781 C 31.105469 24.546875 31.128906 25.679688 29.472656 27.855469 C 29.550781 26.503906 29.453125 25.496094 28.378906 24.40625 C 27.457031 23.503906 26.710938 24.441406 28.148438 26.449219 C 27.277344 25.804688 26.289062 24.5 25.992188 23.195312 C 25.703125 24.808594 25.960938 26.707031 26.855469 27.769531 C 26.433594 28.222656 25.953125 27.722656 25.242188 26.621094 C 25.511719 30.148438 27.019531 30.832031 29.042969 30.042969 C 29.097656 31.980469 29.097656 33.773438 29.214844 36.117188 C 28.035156 34.417969 26.539062 33.152344 25.703125 32.835938 C 25.445312 33.785156 26.421875 35.023438 26.96875 35.710938 C 26.136719 35.539062 24.324219 34.160156 24.324219 34.160156 C 24.140625 35.730469 26.171875 37.191406 27.488281 37.84375 C 25.945312 37.773438 25.261719 37.191406 24.265625 36.230469 C 24.285156 40.59375 28.992188 39.835938 29.875 39.164062 C 29.992188 41.3125 30.15625 43.796875 30.269531 45.945312 C 28.9375 45.714844 29.042969 45.3125 27.90625 45.207031 C 24.742188 45.085938 22.234375 41.414062 21.40625 38.710938 C 21.167969 39.15625 21.355469 39.621094 21.136719 40.167969 C 20.625 38.84375 19.96875 37.128906 19.089844 36.332031 C 19.3125 37.105469 19.335938 37.890625 19.257812 39.335938 C 18.957031 38.398438 18.675781 38.113281 18.65625 37.015625 C 18.675781 36.167969 19.46875 35.546875 19.425781 34.359375 C 19.390625 33.496094 18.601562 31.617188 18.484375 30.164062 C 18.105469 31.660156 17.863281 33.238281 17.277344 34.164062 C 17.570312 32.566406 17.476562 31.464844 17.96875 30.386719 C 18.539062 29.257812 19.019531 28.246094 18.640625 27.101562 C 18.277344 27.542969 18.402344 27.945312 17.492188 29.015625 C 17.292969 27.851562 18.671875 25.984375 20.007812 25.234375 C 20.953125 24.738281 22.140625 22.960938 21.367188 21.742188 C 20.480469 22.378906 20.082031 23.238281 18.828125 24.710938 C 19.722656 21.214844 22.046875 20.300781 24.828125 20.289062 C 25.441406 20.285156 26.683594 20.0625 27.03125 19.25 C 26.246094 19.550781 25.320312 19.589844 24.496094 19.425781 C 25.09375 18.546875 26.359375 18.660156 27.539062 18.65625 C 28.460938 18.648438 29.90625 18.523438 30.488281 17.207031 C 29.359375 17.695312 27.601562 17.796875 26.496094 17.453125 C 28.253906 16.539062 31.011719 16.441406 32.425781 15.246094 C 30.816406 14.042969 26.78125 15.527344 24.234375 17.273438 C 24.945312 16.621094 26.070312 15.46875 26.691406 14.535156 C 25.300781 13.867188 21.777344 17.769531 20.5625 20.089844 C 19.410156 20.742188 18.949219 21.761719 18.5 22.472656 C 19.113281 20.398438 19.179688 18.890625 19.691406 17.183594 C 15.738281 18.542969 17.382812 25.84375 16.523438 27.59375 C 16.625 25.664062 16.542969 23.183594 15.746094 21.90625 C 14.53125 22.835938 14.433594 28.300781 15.574219 32.851562 C 15.164062 31.636719 14.382812 30.5 14.132812 29.015625 C 12.332031 32.300781 15.1875 36.179688 17.578125 39.242188 C 15.78125 38.304688 14 36.289062 12.832031 34.597656 C 13.15625 40.480469 19.296875 41.703125 20.25 43.148438 C 18.957031 42.546875 16.484375 41.351562 15.433594 42.601562 C 17.140625 42.996094 18.503906 43.453125 19.605469 44.171875 C 21.199219 46.164062 24.214844 47.03125 29.472656 47.253906 Z M 29.472656 47.253906 "/>
</g>
</svg>
