<?xml version="1.0" encoding="UTF-8"?>
<svg xmlns="http://www.w3.org/2000/svg" xmlns:xlink="http://www.w3.org/1999/xlink" width="128pt" height="85pt" viewBox="0 0 128 85" version="1.1">
<defs>
<clipPath id="clip1">
  <path d="M 0 0 L 127.679688 0 L 127.679688 85 L 0 85 Z M 0 0 "/>
</clipPath>
<clipPath id="clip2">
  <path d="M 0 15 L 127.679688 15 L 127.679688 70 L 0 70 Z M 0 15 "/>
</clipPath>
<clipPath id="clip3">
  <path d="M 0 21 L 127.679688 21 L 127.679688 64 L 0 64 Z M 0 21 "/>
</clipPath>
</defs>
<g id="surface1067">
<g clip-path="url(#clip1)" clip-rule="nonzero">
<path style=" stroke:none;fill-rule:evenodd;fill:rgb(24.313354%,36.862183%,72.547913%);fill-opacity:1;" d="M 0 0 L 127.496094 0 L 127.496094 85 L 0 85 Z M 0 0 "/>
</g>
<g clip-path="url(#clip2)" clip-rule="nonzero">
<path style=" stroke:none;fill-rule:evenodd;fill:rgb(99.998474%,85.096741%,0%);fill-opacity:1;" d="M 0 15.179688 L 127.496094 15.179688 L 127.496094 69.820312 L 0 69.820312 Z M 0 15.179688 "/>
</g>
<g clip-path="url(#clip3)" clip-rule="nonzero">
<path style=" stroke:none;fill-rule:evenodd;fill:rgb(69.410706%,4.705811%,4.705811%);fill-opacity:1;" d="M 0 21.25 L 127.496094 21.25 L 127.496094 63.75 L 0 63.75 Z M 0 21.25 "/>
</g>
<path style="fill-rule:evenodd;fill:rgb(99.998474%,85.096741%,0%);fill-opacity:1;stroke-width:0.229427;stroke-linecap:butt;stroke-linejoin:miter;stroke:rgb(0%,0%,0%);stroke-opacity:1;stroke-miterlimit:4;" d="M 13.609375 41.589844 L 115.023438 41.589844 C 115.523438 41.589844 115.921875 41.996094 115.921875 42.5 C 115.921875 43.003906 115.523438 43.410156 115.023438 43.410156 L 13.609375 43.410156 C 13.109375 43.410156 12.710938 43.003906 12.710938 42.5 C 12.710938 41.996094 13.109375 41.589844 13.609375 41.589844 Z M 13.609375 41.589844 "/>
<path style="fill-rule:evenodd;fill:rgb(99.998474%,99.998474%,99.998474%);fill-opacity:1;stroke-width:0.214183;stroke-linecap:butt;stroke-linejoin:miter;stroke:rgb(0%,0%,0%);stroke-opacity:1;stroke-miterlimit:4;" d="M 104.730469 32.785156 L 99.570312 34.605469 L 104.730469 36.429688 L 109.890625 34.605469 Z M 104.730469 32.785156 "/>
<path style="fill-rule:evenodd;fill:rgb(99.998474%,85.096741%,0%);fill-opacity:1;stroke-width:0.214183;stroke-linecap:butt;stroke-linejoin:miter;stroke:rgb(0%,0%,0%);stroke-opacity:1;stroke-miterlimit:4;" d="M 26.765625 34 L 101.335938 34 C 101.703125 34 101.996094 34.269531 101.996094 34.605469 C 101.996094 34.941406 101.703125 35.214844 101.335938 35.214844 L 26.765625 35.214844 C 26.402344 35.214844 26.105469 34.941406 26.105469 34.605469 C 26.105469 34.269531 26.402344 34 26.765625 34 Z M 26.765625 34 "/>
<path style="fill:none;stroke-width:0.214183;stroke-linecap:butt;stroke-linejoin:miter;stroke:rgb(0%,0%,0%);stroke-opacity:1;stroke-miterlimit:4;" d="M 100.179688 35.214844 C 100.484375 35.214844 100.789062 34.910156 100.789062 34.605469 C 100.789062 34.304688 100.484375 34 100.179688 34 "/>
<path style="fill:none;stroke-width:0.214183;stroke-linecap:butt;stroke-linejoin:miter;stroke:rgb(0%,0%,0%);stroke-opacity:1;stroke-miterlimit:4;" d="M 99.574219 35.214844 C 99.875 35.214844 100.179688 34.910156 100.179688 34.605469 C 100.179688 34.304688 99.875 34 99.574219 34 "/>
<path style="fill:none;stroke-width:0.214183;stroke-linecap:butt;stroke-linejoin:miter;stroke:rgb(0%,0%,0%);stroke-opacity:1;stroke-miterlimit:4;" d="M 98.964844 35.214844 C 99.269531 35.214844 99.574219 34.910156 99.574219 34.605469 C 99.574219 34.304688 99.269531 34 98.964844 34 "/>
<path style="fill-rule:evenodd;fill:rgb(99.998474%,99.998474%,99.998474%);fill-opacity:1;stroke-width:0.214183;stroke-linecap:butt;stroke-linejoin:miter;stroke:rgb(0%,0%,0%);stroke-opacity:1;stroke-miterlimit:4;" d="M 99.871094 36.429688 L 94.710938 38.25 L 99.871094 40.070312 L 105.035156 38.25 Z M 99.871094 36.429688 "/>
<path style="fill-rule:evenodd;fill:rgb(99.998474%,85.096741%,0%);fill-opacity:1;stroke-width:0.214183;stroke-linecap:butt;stroke-linejoin:miter;stroke:rgb(0%,0%,0%);stroke-opacity:1;stroke-miterlimit:4;" d="M 21.910156 37.644531 L 96.480469 37.644531 C 96.847656 37.644531 97.140625 37.914062 97.140625 38.25 C 97.140625 38.585938 96.847656 38.855469 96.480469 38.855469 L 21.910156 38.855469 C 21.542969 38.855469 21.25 38.585938 21.25 38.25 C 21.25 37.914062 21.542969 37.644531 21.910156 37.644531 Z M 21.910156 37.644531 "/>
<path style="fill:none;stroke-width:0.214183;stroke-linecap:butt;stroke-linejoin:miter;stroke:rgb(0%,0%,0%);stroke-opacity:1;stroke-miterlimit:4;" d="M 95.324219 38.855469 C 95.625 38.855469 95.929688 38.554688 95.929688 38.25 C 95.929688 37.945312 95.625 37.640625 95.324219 37.640625 "/>
<path style="fill:none;stroke-width:0.214183;stroke-linecap:butt;stroke-linejoin:miter;stroke:rgb(0%,0%,0%);stroke-opacity:1;stroke-miterlimit:4;" d="M 94.714844 38.855469 C 95.019531 38.855469 95.324219 38.554688 95.324219 38.25 C 95.324219 37.945312 95.019531 37.640625 94.714844 37.640625 "/>
<path style="fill:none;stroke-width:0.214183;stroke-linecap:butt;stroke-linejoin:miter;stroke:rgb(0%,0%,0%);stroke-opacity:1;stroke-miterlimit:4;" d="M 94.109375 38.855469 C 94.414062 38.855469 94.714844 38.554688 94.714844 38.25 C 94.714844 37.945312 94.414062 37.640625 94.109375 37.640625 "/>
<path style=" stroke:none;fill-rule:evenodd;fill:rgb(23.921204%,36.470032%,65.489197%);fill-opacity:1;" d="M 108.664062 41.777344 C 107.742188 43.371094 109.367188 41.246094 113.335938 43.914062 C 114.070312 44.410156 114.710938 45.71875 114.710938 46.625 C 114.523438 46.5 114.386719 46.222656 114.179688 46.042969 C 113.894531 46.328125 114.457031 47.652344 114.539062 48.277344 C 113.917969 47.929688 113.976562 47.765625 113.769531 47.339844 C 113.8125 47.855469 113.664062 49.273438 113.910156 49.820312 C 113.421875 49.679688 113.457031 49.289062 113.199219 49.210938 C 113.375 49.828125 113.050781 50.5 113.136719 51.195312 C 112.851562 50.914062 112.546875 50.691406 112.414062 50.578125 C 112.390625 50.910156 111.863281 51.78125 111.851562 52.09375 C 111.609375 51.945312 111.542969 51.71875 111.503906 51.566406 C 111.203125 51.945312 110.132812 53.339844 110.0625 53.769531 C 109.238281 53.039062 107.125 51.265625 106.851562 50.324219 C 106.605469 50.859375 106.253906 51.039062 105.558594 51.429688 C 105.285156 49.9375 104.257812 48.261719 104.804688 46.980469 C 104.417969 47.210938 104.097656 47.441406 103.707031 47.726562 C 104.074219 45.566406 105.957031 43.03125 108.664062 41.777344 Z M 108.664062 41.777344 "/>
<path style="fill:none;stroke-width:0.181725;stroke-linecap:butt;stroke-linejoin:miter;stroke:rgb(0%,0%,0%);stroke-opacity:1;stroke-miterlimit:4;" d="M 108.664062 41.777344 C 107.742188 43.371094 109.367188 41.246094 113.335938 43.914062 C 114.070312 44.410156 114.710938 45.71875 114.710938 46.625 C 114.523438 46.5 114.386719 46.222656 114.179688 46.042969 C 113.894531 46.328125 114.457031 47.652344 114.539062 48.277344 C 113.917969 47.929688 113.976562 47.765625 113.769531 47.339844 C 113.8125 47.855469 113.664062 49.273438 113.910156 49.820312 C 113.421875 49.679688 113.457031 49.289062 113.199219 49.210938 C 113.375 49.828125 113.050781 50.5 113.136719 51.195312 C 112.851562 50.914062 112.546875 50.691406 112.414062 50.578125 C 112.390625 50.910156 111.863281 51.78125 111.851562 52.09375 C 111.609375 51.949219 111.542969 51.71875 111.503906 51.566406 C 111.203125 51.945312 110.132812 53.34375 110.0625 53.769531 C 109.238281 53.039062 107.125 51.265625 106.851562 50.324219 C 106.605469 50.859375 106.253906 51.039062 105.558594 51.429688 C 105.285156 49.9375 104.257812 48.257812 104.804688 46.980469 C 104.417969 47.210938 104.097656 47.441406 103.707031 47.726562 C 104.074219 45.566406 105.957031 43.03125 108.664062 41.777344 Z M 108.664062 41.777344 "/>
<path style=" stroke:none;fill-rule:evenodd;fill:rgb(65.489197%,0%,0%);fill-opacity:1;" d="M 105.230469 49.664062 C 105.613281 48.902344 105.964844 48.660156 106.210938 48.167969 C 106.648438 47.304688 106.710938 46.617188 107.089844 46.71875 C 107.46875 46.820312 107.46875 47.171875 106.976562 48.023438 C 106.484375 48.871094 106.25 49.054688 105.230469 49.664062 Z M 105.230469 49.664062 "/>
<path style=" stroke:none;fill-rule:evenodd;fill:rgb(65.489197%,0%,0%);fill-opacity:1;" d="M 107.8125 51.484375 C 107.765625 50.902344 107.933594 50.660156 107.902344 50.285156 C 107.851562 49.628906 107.582031 49.175781 107.929688 49.144531 C 108.28125 49.109375 108.445312 49.335938 108.445312 50 C 108.445312 50.664062 108.34375 50.835938 107.8125 51.484375 Z M 107.8125 51.484375 "/>
<path style=" stroke:none;fill-rule:evenodd;fill:rgb(65.489197%,0%,0%);fill-opacity:1;" d="M 109.773438 52.621094 C 109.621094 51.8125 109.734375 51.453125 109.636719 50.929688 C 109.464844 50.007812 109.128906 49.402344 109.453125 49.320312 C 109.777344 49.234375 109.972656 49.535156 110.097656 50.464844 C 110.21875 51.398438 110.15625 51.65625 109.773438 52.621094 Z M 109.773438 52.621094 "/>
<path style=" stroke:none;fill-rule:evenodd;fill:rgb(65.489197%,0%,0%);fill-opacity:1;" d="M 111.8125 46.9375 C 111.332031 46.574219 111.054688 46.550781 110.746094 46.316406 C 110.203125 45.90625 109.925781 45.46875 109.753906 45.6875 C 109.578125 45.902344 109.699219 46.140625 110.269531 46.519531 C 110.839844 46.898438 111.03125 46.929688 111.8125 46.9375 Z M 111.8125 46.9375 "/>
<path style=" stroke:none;fill-rule:evenodd;fill:rgb(65.489197%,0%,0%);fill-opacity:1;" d="M 111.472656 49.632812 C 111.222656 49.109375 110.957031 48.976562 110.792969 48.636719 C 110.503906 48.046875 110.503906 47.535156 110.191406 47.664062 C 109.878906 47.796875 109.851562 48.066406 110.1875 48.636719 C 110.523438 49.210938 110.695312 49.316406 111.472656 49.632812 Z M 111.472656 49.632812 "/>
<path style="fill-rule:evenodd;fill:rgb(23.921204%,36.470032%,65.489197%);fill-opacity:1;stroke-width:0.226708;stroke-linecap:butt;stroke-linejoin:miter;stroke:rgb(0%,0%,0%);stroke-opacity:1;stroke-miterlimit:4;" d="M 17.164062 43.3125 C 17.117188 42.847656 17.214844 42.792969 16.929688 42.441406 C 17.34375 42.617188 17.359375 43.078125 17.867188 42.75 C 18.050781 42.65625 18.132812 42.652344 17.90625 42.136719 C 18.433594 42.160156 20.15625 42.753906 20.433594 42.765625 C 21.160156 42.796875 22.484375 42.003906 23.402344 42.980469 C 24.285156 43.875 23.988281 44.796875 23.988281 46.03125 C 23.636719 45.863281 23.804688 45.78125 23.429688 45.339844 C 23.710938 46.417969 23.414062 48.363281 23.414062 49.507812 C 23.269531 49.234375 23.292969 49.351562 23.148438 49.066406 C 22.773438 50.113281 22.324219 50.328125 22.324219 51.5625 C 22.1875 51.078125 22.320312 51.179688 22.167969 50.925781 C 21.800781 51.71875 19.347656 52.394531 20.292969 53.195312 C 19.441406 52.695312 19.066406 52.75 18.679688 52.296875 C 18.515625 52.40625 18.382812 52.609375 18.226562 52.886719 C 16.726562 52.199219 17.261719 50.710938 16.089844 49.714844 C 15.886719 50.132812 15.976562 50.074219 15.757812 50.75 C 15.519531 49.808594 15.457031 49.210938 15.1875 48.515625 C 14.957031 48.902344 14.976562 48.753906 14.558594 49.335938 C 14.386719 48.1875 14.101562 47.914062 14.214844 47.15625 C 13.769531 47.46875 14.0625 47.34375 13.617188 47.730469 C 14.039062 44.789062 15.859375 42.617188 17.164062 43.3125 Z M 17.164062 43.3125 "/>
<path style=" stroke:none;fill-rule:evenodd;fill:rgb(65.489197%,0%,0%);fill-opacity:1;" d="M 15.320312 48.109375 C 15.707031 47.164062 16.054688 46.867188 16.304688 46.257812 C 16.746094 45.1875 16.816406 44.332031 17.1875 44.460938 C 17.558594 44.589844 17.554688 45.03125 17.058594 46.085938 C 16.5625 47.136719 16.328125 47.359375 15.320312 48.109375 Z M 15.320312 48.109375 "/>
<path style=" stroke:none;fill-rule:evenodd;fill:rgb(65.489197%,0%,0%);fill-opacity:1;" d="M 16.785156 50.480469 C 16.9375 49.632812 17.183594 49.324219 17.285156 48.777344 C 17.460938 47.816406 17.363281 47.097656 17.707031 47.136719 C 18.050781 47.175781 18.128906 47.535156 17.902344 48.492188 C 17.671875 49.449219 17.511719 49.675781 16.785156 50.480469 Z M 16.785156 50.480469 "/>
<path style=" stroke:none;fill-rule:evenodd;fill:rgb(65.489197%,0%,0%);fill-opacity:1;" d="M 18.535156 52.128906 C 18.578125 51.304688 18.769531 50.984375 18.800781 50.453125 C 18.851562 49.523438 18.671875 48.851562 19 48.851562 C 19.328125 48.847656 19.445312 49.179688 19.34375 50.113281 C 19.246094 51.046875 19.121094 51.28125 18.535156 52.128906 Z M 18.535156 52.128906 "/>
<path style=" stroke:none;fill-rule:evenodd;fill:rgb(65.489197%,0%,0%);fill-opacity:1;" d="M 22.292969 46.746094 C 21.574219 46.03125 21.136719 45.894531 20.675781 45.4375 C 19.859375 44.628906 19.464844 43.867188 19.175781 44.136719 C 18.882812 44.40625 19.058594 44.808594 19.917969 45.578125 C 20.777344 46.347656 21.074219 46.460938 22.292969 46.746094 Z M 22.292969 46.746094 "/>
<path style=" stroke:none;fill-rule:evenodd;fill:rgb(65.489197%,0%,0%);fill-opacity:1;" d="M 21.855469 49.511719 C 21.386719 48.792969 21.042969 48.605469 20.742188 48.144531 C 20.207031 47.332031 20.027344 46.632812 19.722656 46.808594 C 19.421875 46.980469 19.488281 47.34375 20.066406 48.132812 C 20.644531 48.921875 20.875 49.066406 21.855469 49.511719 Z M 21.855469 49.511719 "/>
<path style="fill-rule:evenodd;fill:rgb(99.998474%,99.998474%,99.998474%);fill-opacity:1;stroke-width:0.214183;stroke-linecap:butt;stroke-linejoin:miter;stroke:rgb(0%,0%,0%);stroke-opacity:1;stroke-miterlimit:4;" d="M 94.105469 42.5 C 88.035156 48.570312 79.9375 60.714844 63.75 60.714844 C 49.582031 60.714844 39.464844 48.570312 33.390625 42.5 C 39.464844 36.429688 49.582031 24.285156 63.75 24.285156 C 79.9375 24.285156 88.035156 36.429688 94.105469 42.5 Z M 94.105469 42.5 "/>
<path style=" stroke:none;fill-rule:evenodd;fill:rgb(0%,0%,0%);fill-opacity:1;" d="M 61.628906 30.621094 C 63.246094 32.4375 61.898438 33.171875 63.605469 33.289062 C 65.410156 33.421875 64.386719 35.210938 65.902344 35.273438 C 66.964844 35.316406 65.796875 39.554688 66.820312 40.953125 C 67.859375 42.410156 68.730469 41.378906 68.746094 42.429688 C 68.765625 43.519531 65.917969 43.410156 65.867188 46.765625 C 65.785156 48.699219 63.464844 48.820312 63.355469 50.0625 C 63.214844 51.234375 67.925781 51.890625 67.859375 52.9375 C 67.796875 53.980469 62.777344 53.820312 62.558594 55.007812 C 62.449219 56.078125 69.453125 56.957031 70.015625 60.046875 C 68.972656 60.390625 65.996094 60.710938 63.75 60.714844 C 49.585938 60.722656 39.464844 48.570312 33.394531 42.5 C 39.464844 36.429688 49.582031 24.285156 63.75 24.285156 C 63.75 24.285156 59.542969 28.128906 61.632812 30.621094 Z M 61.628906 30.621094 "/>
<path style=" stroke:none;fill-rule:evenodd;fill:rgb(99.998474%,99.998474%,99.998474%);fill-opacity:1;" d="M 44.726562 36.023438 L 46.195312 36.023438 L 46.195312 40.878906 L 44.726562 40.878906 Z M 44.726562 36.023438 "/>
<path style=" stroke:none;fill-rule:evenodd;fill:rgb(99.998474%,99.998474%,99.998474%);fill-opacity:1;" d="M 44.726562 44.117188 L 46.195312 44.117188 L 46.195312 48.976562 L 44.726562 48.976562 Z M 44.726562 44.117188 "/>
<path style=" stroke:none;fill-rule:evenodd;fill:rgb(99.998474%,99.998474%,99.998474%);fill-opacity:1;" d="M 47.667969 36.023438 L 49.140625 36.023438 L 49.140625 40.878906 L 47.667969 40.878906 Z M 47.667969 36.023438 "/>
<path style=" stroke:none;fill-rule:evenodd;fill:rgb(99.998474%,99.998474%,99.998474%);fill-opacity:1;" d="M 47.667969 44.117188 L 49.140625 44.117188 L 49.140625 48.976562 L 47.667969 48.976562 Z M 47.667969 44.117188 "/>
<path style=" stroke:none;fill-rule:evenodd;fill:rgb(99.998474%,99.998474%,99.998474%);fill-opacity:1;" d="M 50.613281 36.023438 L 52.085938 36.023438 L 52.085938 40.878906 L 50.613281 40.878906 Z M 50.613281 36.023438 "/>
<path style=" stroke:none;fill-rule:evenodd;fill:rgb(99.998474%,99.998474%,99.998474%);fill-opacity:1;" d="M 50.613281 44.117188 L 52.085938 44.117188 L 52.085938 48.976562 L 50.613281 48.976562 Z M 50.613281 44.117188 "/>
<path style=" stroke:none;fill-rule:evenodd;fill:rgb(99.998474%,99.998474%,99.998474%);fill-opacity:1;" d="M 53.554688 36.023438 L 55.027344 36.023438 L 55.027344 40.878906 L 53.554688 40.878906 Z M 53.554688 36.023438 "/>
<path style=" stroke:none;fill-rule:evenodd;fill:rgb(99.998474%,99.998474%,99.998474%);fill-opacity:1;" d="M 53.554688 44.117188 L 55.027344 44.117188 L 55.027344 48.976562 L 53.554688 48.976562 Z M 53.554688 44.117188 "/>
<path style=" stroke:none;fill-rule:evenodd;fill:rgb(99.998474%,99.998474%,99.998474%);fill-opacity:1;" d="M 56.5 36.023438 L 57.972656 36.023438 L 57.972656 40.878906 L 56.5 40.878906 Z M 56.5 36.023438 "/>
<path style=" stroke:none;fill-rule:evenodd;fill:rgb(99.998474%,99.998474%,99.998474%);fill-opacity:1;" d="M 56.5 44.117188 L 57.972656 44.117188 L 57.972656 48.976562 L 56.5 48.976562 Z M 56.5 44.117188 "/>
<path style=" stroke:none;fill-rule:evenodd;fill:rgb(99.998474%,99.998474%,99.998474%);fill-opacity:1;" d="M 59.441406 36.023438 L 60.914062 36.023438 L 60.914062 40.878906 L 59.441406 40.878906 Z M 59.441406 36.023438 "/>
<path style=" stroke:none;fill-rule:evenodd;fill:rgb(99.998474%,99.998474%,99.998474%);fill-opacity:1;" d="M 59.441406 44.117188 L 60.914062 44.117188 L 60.914062 48.976562 L 59.441406 48.976562 Z M 59.441406 44.117188 "/>
<path style=" stroke:none;fill-rule:evenodd;fill:rgb(0%,0%,0%);fill-opacity:1;" d="M 66.988281 36.023438 L 68.457031 36.023438 L 68.457031 40.878906 L 66.988281 40.878906 Z M 66.988281 36.023438 "/>
<path style=" stroke:none;fill-rule:evenodd;fill:rgb(0%,0%,0%);fill-opacity:1;" d="M 66.988281 44.117188 L 68.457031 44.117188 L 68.457031 48.976562 L 66.988281 48.976562 Z M 66.988281 44.117188 "/>
<path style=" stroke:none;fill-rule:evenodd;fill:rgb(0%,0%,0%);fill-opacity:1;" d="M 69.929688 36.023438 L 71.402344 36.023438 L 71.402344 40.878906 L 69.929688 40.878906 Z M 69.929688 36.023438 "/>
<path style=" stroke:none;fill-rule:evenodd;fill:rgb(0%,0%,0%);fill-opacity:1;" d="M 69.929688 44.117188 L 71.402344 44.117188 L 71.402344 48.976562 L 69.929688 48.976562 Z M 69.929688 44.117188 "/>
<path style=" stroke:none;fill-rule:evenodd;fill:rgb(0%,0%,0%);fill-opacity:1;" d="M 72.875 36.023438 L 74.347656 36.023438 L 74.347656 40.878906 L 72.875 40.878906 Z M 72.875 36.023438 "/>
<path style=" stroke:none;fill-rule:evenodd;fill:rgb(0%,0%,0%);fill-opacity:1;" d="M 72.875 44.117188 L 74.347656 44.117188 L 74.347656 48.976562 L 72.875 48.976562 Z M 72.875 44.117188 "/>
<path style=" stroke:none;fill-rule:evenodd;fill:rgb(0%,0%,0%);fill-opacity:1;" d="M 75.820312 36.023438 L 77.289062 36.023438 L 77.289062 40.878906 L 75.820312 40.878906 Z M 75.820312 36.023438 "/>
<path style=" stroke:none;fill-rule:evenodd;fill:rgb(0%,0%,0%);fill-opacity:1;" d="M 75.820312 44.117188 L 77.289062 44.117188 L 77.289062 48.976562 L 75.820312 48.976562 Z M 75.820312 44.117188 "/>
<path style=" stroke:none;fill-rule:evenodd;fill:rgb(0%,0%,0%);fill-opacity:1;" d="M 78.761719 36.023438 L 80.234375 36.023438 L 80.234375 40.878906 L 78.761719 40.878906 Z M 78.761719 36.023438 "/>
<path style=" stroke:none;fill-rule:evenodd;fill:rgb(0%,0%,0%);fill-opacity:1;" d="M 78.761719 44.117188 L 80.234375 44.117188 L 80.234375 48.976562 L 78.761719 48.976562 Z M 78.761719 44.117188 "/>
<path style=" stroke:none;fill-rule:evenodd;fill:rgb(0%,0%,0%);fill-opacity:1;" d="M 81.703125 36.023438 L 83.175781 36.023438 L 83.175781 40.878906 L 81.703125 40.878906 Z M 81.703125 36.023438 "/>
<path style=" stroke:none;fill-rule:evenodd;fill:rgb(0%,0%,0%);fill-opacity:1;" d="M 81.703125 44.117188 L 83.175781 44.117188 L 83.175781 48.976562 L 81.703125 48.976562 Z M 81.703125 44.117188 "/>
<path style=" stroke:none;fill-rule:evenodd;fill:rgb(23.921204%,36.470032%,65.489197%);fill-opacity:1;" d="M 53.933594 27.519531 C 53.089844 29.144531 55.40625 26.976562 59.03125 29.699219 C 59.703125 30.207031 60.667969 32.207031 60.667969 33.132812 C 59.894531 32.96875 58.527344 32.207031 58.527344 32.207031 C 58.527344 32.207031 60.132812 33.8125 60.132812 35.667969 C 59.566406 35.3125 59.28125 35.363281 59.09375 34.929688 C 59.09375 35.53125 59.597656 35.910156 59.597656 36.839844 C 59.1875 36.511719 58.84375 36.292969 58.496094 36.101562 C 59.03125 37.027344 57.519531 38.828125 58.277344 39.425781 C 56.953125 39.234375 55.601562 38.390625 55.066406 37.464844 C 54.785156 37.65625 54.753906 37.957031 54.742188 38.277344 C 54.785156 38.308594 52.730469 36.75 52.917969 36.152344 C 52.644531 36.539062 52.605469 36.75 52.542969 37.1875 C 51.789062 36.445312 51.097656 35.699219 50.847656 34.738281 C 50.511719 35.171875 50.488281 35.171875 50.152344 35.609375 C 49.902344 34.085938 49.902344 34.140625 50.40625 32.832031 C 50.050781 33.070312 49.757812 33.304688 49.398438 33.59375 C 49.738281 31.386719 51.457031 28.800781 53.933594 27.519531 Z M 53.933594 27.519531 "/>
<path style="fill:none;stroke-width:0.175613;stroke-linecap:butt;stroke-linejoin:miter;stroke:rgb(0%,0%,0%);stroke-opacity:1;stroke-miterlimit:4;" d="M 53.933594 27.519531 C 53.089844 29.144531 55.40625 26.980469 59.03125 29.703125 C 59.703125 30.207031 60.667969 32.207031 60.667969 33.132812 C 59.894531 32.96875 58.527344 32.207031 58.527344 32.207031 C 58.527344 32.207031 60.132812 33.8125 60.132812 35.667969 C 59.566406 35.3125 59.28125 35.363281 59.09375 34.929688 C 59.09375 35.53125 59.597656 35.910156 59.597656 36.835938 C 59.1875 36.511719 58.84375 36.292969 58.496094 36.101562 C 59.03125 37.027344 57.519531 38.828125 58.277344 39.425781 C 56.953125 39.234375 55.601562 38.390625 55.066406 37.464844 C 54.785156 37.65625 54.753906 37.957031 54.742188 38.277344 C 54.785156 38.308594 52.730469 36.75 52.917969 36.152344 C 52.644531 36.539062 52.605469 36.75 52.542969 37.1875 C 51.789062 36.445312 51.097656 35.699219 50.847656 34.738281 C 50.511719 35.171875 50.488281 35.171875 50.152344 35.609375 C 49.902344 34.085938 49.902344 34.140625 50.40625 32.832031 C 50.050781 33.070312 49.757812 33.304688 49.398438 33.59375 C 49.738281 31.386719 51.457031 28.800781 53.933594 27.519531 Z M 53.933594 27.519531 "/>
<path style=" stroke:none;fill-rule:evenodd;fill:rgb(65.489197%,0%,0%);fill-opacity:1;" d="M 51.859375 35.46875 C 51.992188 34.347656 52.285156 33.925781 52.371094 33.203125 C 52.53125 31.933594 52.34375 31.003906 52.792969 31.027344 C 53.242188 31.050781 53.375 31.519531 53.152344 32.789062 C 52.929688 34.054688 52.742188 34.359375 51.859375 35.46875 Z M 51.859375 35.46875 "/>
<path style=" stroke:none;fill-rule:evenodd;fill:rgb(65.489197%,0%,0%);fill-opacity:1;" d="M 54.207031 37.519531 C 54.117188 36.574219 54.289062 36.171875 54.230469 35.5625 C 54.132812 34.488281 53.800781 33.761719 54.195312 33.695312 C 54.585938 33.628906 54.785156 33.988281 54.828125 35.070312 C 54.867188 36.152344 54.761719 36.441406 54.207031 37.519531 Z M 54.207031 37.519531 "/>
<path style=" stroke:none;fill-rule:evenodd;fill:rgb(65.489197%,0%,0%);fill-opacity:1;" d="M 57.871094 39.191406 C 57.472656 38.375 57.132812 38.132812 56.875 37.605469 C 56.417969 36.679688 56.324219 35.921875 55.972656 36.058594 C 55.625 36.195312 55.640625 36.585938 56.148438 37.496094 C 56.65625 38.398438 56.882812 38.585938 57.871094 39.191406 Z M 57.871094 39.191406 "/>
<path style=" stroke:none;fill-rule:evenodd;fill:rgb(65.489197%,0%,0%);fill-opacity:1;" d="M 59.140625 31.863281 C 58.125 31.332031 57.601562 31.324219 56.949219 30.980469 C 55.796875 30.378906 55.125 29.699219 54.886719 30.070312 C 54.648438 30.445312 54.96875 30.820312 56.15625 31.367188 C 57.34375 31.914062 57.707031 31.9375 59.140625 31.863281 Z M 59.140625 31.863281 "/>
<path style=" stroke:none;fill-rule:evenodd;fill:rgb(65.489197%,0%,0%);fill-opacity:1;" d="M 59.511719 34.925781 C 58.773438 34.308594 58.335938 34.21875 57.859375 33.824219 C 57.019531 33.128906 56.601562 32.449219 56.320312 32.726562 C 56.039062 33 56.226562 33.367188 57.109375 34.019531 C 57.988281 34.675781 58.292969 34.753906 59.511719 34.925781 Z M 59.511719 34.925781 "/>
</g>
</svg>
