<?xml version="1.0" encoding="UTF-8"?>
<svg xmlns="http://www.w3.org/2000/svg" xmlns:xlink="http://www.w3.org/1999/xlink" width="128pt" height="64pt" viewBox="0 0 128 64" version="1.1">
<g id="surface356">
<rect x="0" y="0" width="128" height="64" style="fill:rgb(85.488892%,7.058716%,10.195923%);fill-opacity:1;stroke:none;"/>
<path style=" stroke:none;fill-rule:evenodd;fill:rgb(98.822021%,86.665344%,3.529358%);fill-opacity:1;" d="M 0 0 L 128 0 L 128 42.667969 L 0 42.667969 Z M 0 0 "/>
<path style=" stroke:none;fill-rule:evenodd;fill:rgb(2.745056%,53.72467%,18.823242%);fill-opacity:1;" d="M 0 0 L 128 0 L 128 21.332031 L 0 21.332031 Z M 0 0 "/>
<path style=" stroke:none;fill-rule:evenodd;fill:rgb(5.882263%,27.842712%,68.626404%);fill-opacity:1;" d="M 85.332031 32 C 85.332031 43.78125 75.78125 53.332031 64 53.332031 C 52.21875 53.332031 42.667969 43.78125 42.667969 32 C 42.667969 20.21875 52.21875 10.667969 64 10.667969 C 75.78125 10.667969 85.332031 20.21875 85.332031 32 Z M 85.332031 32 "/>
<path style=" stroke:none;fill-rule:evenodd;fill:rgb(98.822021%,86.665344%,3.529358%);fill-opacity:1;" d="M 47.769531 26.660156 L 60.167969 26.660156 L 62.972656 18.03125 L 63.71875 20.332031 L 59.644531 32.871094 L 58.433594 31.992188 L 59.707031 28.082031 L 49.726562 28.082031 Z M 53.96875 45.742188 L 57.800781 33.949219 L 50.460938 28.613281 L 52.878906 28.613281 L 63.546875 36.363281 L 62.335938 37.242188 L 59.011719 34.828125 L 55.925781 44.320312 Z M 74.03125 45.742188 L 64 38.453125 L 56.660156 43.785156 L 57.40625 41.484375 L 68.074219 33.734375 L 68.535156 35.15625 L 65.210938 37.574219 L 73.285156 43.441406 Z M 80.230469 26.660156 L 70.199219 33.949219 L 73.003906 42.578125 L 71.046875 41.15625 L 66.972656 28.613281 L 68.46875 28.613281 L 69.738281 32.527344 L 77.8125 26.660156 Z M 64 14.867188 L 67.832031 26.660156 L 76.902344 26.660156 L 74.945312 28.082031 L 61.761719 28.082031 L 62.222656 26.660156 L 66.335938 26.660156 L 63.253906 17.167969 Z M 64 14.867188 "/>
<path style=" stroke:none;fill-rule:evenodd;fill:rgb(0%,0%,0%);fill-opacity:1;" d="M 64 39.824219 L 64 49.066406 Z M 56.558594 34.417969 L 47.769531 37.273438 Z M 59.402344 25.671875 L 53.96875 18.191406 Z M 68.597656 25.671875 L 74.03125 18.191406 Z M 71.441406 34.417969 L 80.230469 37.273438 Z M 71.441406 34.417969 "/>
<path style="fill:none;stroke-width:0.711111;stroke-linecap:butt;stroke-linejoin:miter;stroke:rgb(98.822021%,86.665344%,3.529358%);stroke-opacity:1;stroke-miterlimit:4;" d="M 64 39.824219 L 64 49.066406 "/>
<path style="fill:none;stroke-width:0.711111;stroke-linecap:butt;stroke-linejoin:miter;stroke:rgb(98.822021%,86.665344%,3.529358%);stroke-opacity:1;stroke-miterlimit:4;" d="M 56.558594 34.417969 L 47.769531 37.273438 "/>
<path style="fill:none;stroke-width:0.711111;stroke-linecap:butt;stroke-linejoin:miter;stroke:rgb(98.822021%,86.665344%,3.529358%);stroke-opacity:1;stroke-miterlimit:4;" d="M 59.402344 25.671875 L 53.96875 18.191406 "/>
<path style="fill:none;stroke-width:0.711111;stroke-linecap:butt;stroke-linejoin:miter;stroke:rgb(98.822021%,86.665344%,3.529358%);stroke-opacity:1;stroke-miterlimit:4;" d="M 68.597656 25.671875 L 74.03125 18.191406 "/>
<path style="fill:none;stroke-width:0.711111;stroke-linecap:butt;stroke-linejoin:miter;stroke:rgb(98.822021%,86.665344%,3.529358%);stroke-opacity:1;stroke-miterlimit:4;" d="M 71.441406 34.417969 L 80.230469 37.273438 Z M 71.441406 34.417969 "/>
</g>
</svg>
