<?xml version="1.0" encoding="UTF-8"?>
<svg xmlns="http://www.w3.org/2000/svg" xmlns:xlink="http://www.w3.org/1999/xlink" width="117pt" height="85pt" viewBox="0 0 117 85" version="1.1">
<defs>
<clipPath id="clip1">
  <path d="M 0 0 L 116.878906 0 L 116.878906 85 L 0 85 Z M 0 0 "/>
</clipPath>
</defs>
<g id="surface372">
<g clip-path="url(#clip1)" clip-rule="nonzero">
<path style=" stroke:none;fill-rule:evenodd;fill:rgb(99.998474%,99.998474%,99.998474%);fill-opacity:1;" d="M 0 85 L 0 0 L 116.875 0 L 116.875 85 Z M 0 85 "/>
<path style=" stroke:none;fill-rule:evenodd;fill:rgb(0%,39.607239%,74.116516%);fill-opacity:1;" d="M 0 53.125 L 31.875 53.125 L 31.875 85 L 53.125 85 L 53.125 53.125 L 116.875 53.125 L 116.875 31.875 L 53.125 31.875 L 53.125 0 L 31.875 0 L 31.875 31.875 L 0 31.875 Z M 0 53.125 "/>
<path style=" stroke:none;fill-rule:evenodd;fill:rgb(92.939758%,16.078186%,22.3526%);fill-opacity:1;" d="M 0 47.8125 L 37.1875 47.8125 L 37.1875 85 L 47.8125 85 L 47.8125 47.8125 L 116.875 47.8125 L 116.875 37.1875 L 47.8125 37.1875 L 47.8125 0 L 37.1875 0 L 37.1875 37.1875 L 0 37.1875 Z M 0 47.8125 "/>
</g>
</g>
</svg>
