<svg viewBox="0 0 1000 667" xmlns="http://www.w3.org/2000/svg" xmlns:xlink="http://www.w3.org/1999/xlink"><clipPath id="a"><path d="m0 0h1000v666.71875h-1000zm0 0"/></clipPath><g clip-path="url(#a)"><path d="m0 0v666.667969h1000v-666.667969zm0 0" fill="#002395" stroke="#002395" stroke-linecap="square" stroke-miterlimit="3.239307"/></g><g stroke-linecap="square" stroke-miterlimit="3.239307"><path d="m0 0v273.332031h406.667969v-273.332031zm0 0" fill="#fff" stroke="#fff"/><path d="m0 0v266.667969h133.332031v-266.667969zm0 0" fill="#002395" stroke="#002395"/><path d="m266.667969 0v266.667969h133.332031v-266.667969zm0 0" fill="#ed2939" stroke="#ed2939"/></g><path d="m591.667969 305 21.457031 34.167969h61.042969v119.164062l-45.835938-71.664062-61.664062 98.332031h30l31.664062-56.667969 65 116.667969 65-116.667969 31.667969 56.667969h30l-61.667969-98.332031-45.832031 71.664062v-65.832031h27.5l20.417969-32.5h-47.917969v-20.832031h61.042969l21.457031-34.167969zm0 0" fill="#fff" fill-rule="evenodd"/><path d="m663.332031 450.832031h-66.664062v23.335938h66.664062zm126.667969 0h-66.667969v23.335938h66.667969zm0 0" fill="#fff" fill-rule="evenodd"/></svg>