<?xml version="1.0" encoding="UTF-8"?>
<svg xmlns="http://www.w3.org/2000/svg" xmlns:xlink="http://www.w3.org/1999/xlink" width="128pt" height="85pt" viewBox="0 0 128 85" version="1.1">
<defs>
<clipPath id="clip1">
  <path d="M 0 0 L 127.679688 0 L 127.679688 85 L 0 85 Z M 0 0 "/>
</clipPath>
<clipPath id="clip2">
  <path d="M 0 21 L 127.679688 21 L 127.679688 64 L 0 64 Z M 0 21 "/>
</clipPath>
<clipPath id="clip3">
  <path d="M 0 21 L 127.679688 21 L 127.679688 64 L 0 64 Z M 0 21 "/>
</clipPath>
</defs>
<g id="surface397">
<g clip-path="url(#clip1)" clip-rule="nonzero">
<path style=" stroke:none;fill-rule:evenodd;fill:rgb(80.783081%,6.666565%,14.901733%);fill-opacity:1;" d="M 0 85 L 0 0 L 127.5 0 L 127.5 85 Z M 0 85 "/>
</g>
<g clip-path="url(#clip2)" clip-rule="nonzero">
<path style=" stroke:none;fill-rule:evenodd;fill:rgb(99.998474%,99.998474%,99.998474%);fill-opacity:1;" d="M 0 21.25 L 127.5 21.25 L 127.5 63.75 L 0 63.75 Z M 0 21.25 "/>
</g>
<path style="fill-rule:evenodd;fill:rgb(3.137207%,23.921204%,61.175537%);fill-opacity:1;stroke-width:0.437022;stroke-linecap:butt;stroke-linejoin:miter;stroke:rgb(3.137207%,23.921204%,61.175537%);stroke-opacity:1;stroke-miterlimit:4;" d="M 59.472656 58.523438 C 58.160156 58.597656 56.851562 59.484375 56.238281 59.957031 C 57.339844 60.441406 58.515625 60.816406 59.765625 61.074219 C 61.757812 61.410156 63.75 61.40625 65.742188 61.40625 C 66.066406 61.363281 66.390625 61.320312 66.703125 61.265625 L 70.902344 59.851562 C 70.902344 59.851562 68.882812 58.519531 67.28125 58.578125 C 65.683594 58.632812 64.601562 60.199219 63.3125 60.085938 C 62.019531 59.96875 61.503906 58.523438 59.644531 58.523438 C 59.589844 58.523438 59.53125 58.519531 59.472656 58.523438 Z M 59.472656 58.523438 "/>
<path style="fill-rule:evenodd;fill:rgb(3.137207%,23.921204%,61.175537%);fill-opacity:1;stroke-width:0.410531;stroke-linecap:butt;stroke-linejoin:miter;stroke:rgb(3.137207%,23.921204%,61.175537%);stroke-opacity:1;stroke-miterlimit:4;" d="M 51.851562 57.441406 L 75.699219 57.542969 C 75.699219 57.542969 73.636719 55.347656 71.210938 55.296875 C 68.78125 55.246094 69.453125 56.316406 67.59375 56.472656 C 65.738281 56.625 65.273438 55.347656 63.570312 55.398438 C 61.867188 55.449219 60.886719 56.472656 59.59375 56.523438 C 58.304688 56.574219 56.652344 55.246094 55.671875 55.296875 C 54.691406 55.347656 51.179688 56.828125 51.179688 56.828125 Z M 51.851562 57.441406 "/>
<path style="fill-rule:evenodd;fill:rgb(3.137207%,23.921204%,61.175537%);fill-opacity:1;stroke-width:0.410531;stroke-linecap:butt;stroke-linejoin:miter;stroke:rgb(3.137207%,23.921204%,61.175537%);stroke-opacity:1;stroke-miterlimit:4;" d="M 48.804688 54.636719 L 78.230469 54.734375 C 78.695312 54.074219 76.78125 52.492188 75.027344 52.339844 C 73.582031 52.390625 72.550781 53.816406 71.363281 53.867188 C 70.175781 53.917969 68.835938 52.390625 67.492188 52.441406 C 66.148438 52.492188 64.757812 53.867188 63.414062 53.867188 C 62.074219 53.867188 61.089844 52.390625 59.386719 52.390625 C 57.683594 52.390625 56.910156 54.023438 55.621094 53.917969 C 54.328125 53.816406 53.195312 52.289062 51.953125 52.289062 C 50.71875 52.289062 48.652344 54.125 48.238281 54.023438 C 47.824219 53.917969 48.753906 54.789062 48.804688 54.636719 Z M 48.804688 54.636719 "/>
<path style="fill-rule:evenodd;fill:rgb(80.783081%,6.666565%,14.901733%);fill-opacity:1;stroke-width:0.410531;stroke-linecap:butt;stroke-linejoin:miter;stroke:rgb(38.822937%,3.137207%,6.274414%);stroke-opacity:1;stroke-miterlimit:4;" d="M 60.109375 38.460938 L 66.875 40.25 L 66.875 30.707031 C 63.777344 30.863281 61.195312 24.894531 66.667969 24.484375 C 61.296875 23.71875 60.679688 25.097656 60.058594 26.574219 Z M 60.109375 38.460938 "/>
<path style=" stroke:none;fill-rule:evenodd;fill:rgb(38.822937%,3.137207%,6.274414%);fill-opacity:1;" d="M 55.828125 45.402344 L 71.105469 45.453125 Z M 55.828125 45.402344 "/>
<path style="fill:none;stroke-width:0.593216;stroke-linecap:butt;stroke-linejoin:miter;stroke:rgb(38.822937%,3.137207%,6.274414%);stroke-opacity:1;stroke-miterlimit:4;" d="M 55.828125 45.402344 L 71.105469 45.453125 "/>
<path style=" stroke:none;fill-rule:evenodd;fill:rgb(38.822937%,3.137207%,6.274414%);fill-opacity:1;" d="M 56.550781 41.777344 L 58.355469 44.175781 Z M 56.550781 41.777344 "/>
<path style="fill:none;stroke-width:0.593216;stroke-linecap:butt;stroke-linejoin:miter;stroke:rgb(38.822937%,3.137207%,6.274414%);stroke-opacity:1;stroke-miterlimit:4;" d="M 56.550781 41.777344 L 58.355469 44.175781 "/>
<path style=" stroke:none;fill-rule:evenodd;fill:rgb(38.822937%,3.137207%,6.274414%);fill-opacity:1;" d="M 56.550781 44.175781 L 58.511719 41.828125 Z M 56.550781 44.175781 "/>
<path style="fill:none;stroke-width:0.593216;stroke-linecap:butt;stroke-linejoin:miter;stroke:rgb(38.822937%,3.137207%,6.274414%);stroke-opacity:1;stroke-miterlimit:4;" d="M 56.550781 44.175781 L 58.511719 41.828125 "/>
<path style=" stroke:none;fill-rule:evenodd;fill:rgb(38.822937%,3.137207%,6.274414%);fill-opacity:1;" d="M 57.582031 41.625 L 57.53125 43.105469 Z M 57.582031 41.625 "/>
<path style="fill:none;stroke-width:0.593216;stroke-linecap:butt;stroke-linejoin:miter;stroke:rgb(38.822937%,3.137207%,6.274414%);stroke-opacity:1;stroke-miterlimit:4;" d="M 57.582031 41.625 L 57.53125 43.105469 "/>
<path style=" stroke:none;fill-rule:evenodd;fill:rgb(38.822937%,3.137207%,6.274414%);fill-opacity:1;" d="M 59.441406 41.777344 L 61.246094 44.175781 Z M 59.441406 41.777344 "/>
<path style="fill:none;stroke-width:0.593216;stroke-linecap:butt;stroke-linejoin:miter;stroke:rgb(38.822937%,3.137207%,6.274414%);stroke-opacity:1;stroke-miterlimit:4;" d="M 59.441406 41.777344 L 61.246094 44.175781 "/>
<path style=" stroke:none;fill-rule:evenodd;fill:rgb(38.822937%,3.137207%,6.274414%);fill-opacity:1;" d="M 59.441406 44.175781 L 61.402344 41.828125 Z M 59.441406 44.175781 "/>
<path style="fill:none;stroke-width:0.593216;stroke-linecap:butt;stroke-linejoin:miter;stroke:rgb(38.822937%,3.137207%,6.274414%);stroke-opacity:1;stroke-miterlimit:4;" d="M 59.441406 44.175781 L 61.402344 41.828125 "/>
<path style=" stroke:none;fill-rule:evenodd;fill:rgb(38.822937%,3.137207%,6.274414%);fill-opacity:1;" d="M 60.472656 41.625 L 60.421875 43.105469 Z M 60.472656 41.625 "/>
<path style="fill:none;stroke-width:0.593216;stroke-linecap:butt;stroke-linejoin:miter;stroke:rgb(38.822937%,3.137207%,6.274414%);stroke-opacity:1;stroke-miterlimit:4;" d="M 60.472656 41.625 L 60.421875 43.105469 "/>
<path style=" stroke:none;fill-rule:evenodd;fill:rgb(38.822937%,3.137207%,6.274414%);fill-opacity:1;" d="M 62.382812 41.777344 L 64.1875 44.175781 Z M 62.382812 41.777344 "/>
<path style="fill:none;stroke-width:0.593216;stroke-linecap:butt;stroke-linejoin:miter;stroke:rgb(38.822937%,3.137207%,6.274414%);stroke-opacity:1;stroke-miterlimit:4;" d="M 62.382812 41.777344 L 64.1875 44.175781 "/>
<path style=" stroke:none;fill-rule:evenodd;fill:rgb(38.822937%,3.137207%,6.274414%);fill-opacity:1;" d="M 62.382812 44.175781 L 64.34375 41.828125 Z M 62.382812 44.175781 "/>
<path style="fill:none;stroke-width:0.593216;stroke-linecap:butt;stroke-linejoin:miter;stroke:rgb(38.822937%,3.137207%,6.274414%);stroke-opacity:1;stroke-miterlimit:4;" d="M 62.382812 44.175781 L 64.34375 41.828125 "/>
<path style=" stroke:none;fill-rule:evenodd;fill:rgb(38.822937%,3.137207%,6.274414%);fill-opacity:1;" d="M 63.414062 41.625 L 63.363281 43.105469 Z M 63.414062 41.625 "/>
<path style="fill:none;stroke-width:0.593216;stroke-linecap:butt;stroke-linejoin:miter;stroke:rgb(38.822937%,3.137207%,6.274414%);stroke-opacity:1;stroke-miterlimit:4;" d="M 63.414062 41.625 L 63.363281 43.105469 "/>
<path style=" stroke:none;fill-rule:evenodd;fill:rgb(38.822937%,3.137207%,6.274414%);fill-opacity:1;" d="M 65.425781 41.777344 L 67.234375 44.175781 Z M 65.425781 41.777344 "/>
<path style="fill:none;stroke-width:0.593216;stroke-linecap:butt;stroke-linejoin:miter;stroke:rgb(38.822937%,3.137207%,6.274414%);stroke-opacity:1;stroke-miterlimit:4;" d="M 65.425781 41.777344 L 67.234375 44.175781 "/>
<path style=" stroke:none;fill-rule:evenodd;fill:rgb(38.822937%,3.137207%,6.274414%);fill-opacity:1;" d="M 65.425781 44.175781 L 67.390625 41.828125 Z M 65.425781 44.175781 "/>
<path style="fill:none;stroke-width:0.593216;stroke-linecap:butt;stroke-linejoin:miter;stroke:rgb(38.822937%,3.137207%,6.274414%);stroke-opacity:1;stroke-miterlimit:4;" d="M 65.425781 44.175781 L 67.390625 41.828125 "/>
<path style=" stroke:none;fill-rule:evenodd;fill:rgb(38.822937%,3.137207%,6.274414%);fill-opacity:1;" d="M 66.460938 41.625 L 66.410156 43.105469 Z M 66.460938 41.625 "/>
<path style="fill:none;stroke-width:0.593216;stroke-linecap:butt;stroke-linejoin:miter;stroke:rgb(38.822937%,3.137207%,6.274414%);stroke-opacity:1;stroke-miterlimit:4;" d="M 66.460938 41.625 L 66.410156 43.105469 "/>
<path style=" stroke:none;fill-rule:evenodd;fill:rgb(38.822937%,3.137207%,6.274414%);fill-opacity:1;" d="M 68.371094 41.777344 L 70.175781 44.175781 Z M 68.371094 41.777344 "/>
<path style="fill:none;stroke-width:0.593216;stroke-linecap:butt;stroke-linejoin:miter;stroke:rgb(38.822937%,3.137207%,6.274414%);stroke-opacity:1;stroke-miterlimit:4;" d="M 68.371094 41.777344 L 70.175781 44.175781 "/>
<path style=" stroke:none;fill-rule:evenodd;fill:rgb(38.822937%,3.137207%,6.274414%);fill-opacity:1;" d="M 68.371094 44.175781 L 70.332031 41.828125 Z M 68.371094 44.175781 "/>
<path style="fill:none;stroke-width:0.593216;stroke-linecap:butt;stroke-linejoin:miter;stroke:rgb(38.822937%,3.137207%,6.274414%);stroke-opacity:1;stroke-miterlimit:4;" d="M 68.371094 44.175781 L 70.332031 41.828125 "/>
<path style=" stroke:none;fill-rule:evenodd;fill:rgb(38.822937%,3.137207%,6.274414%);fill-opacity:1;" d="M 69.402344 41.625 L 69.351562 43.105469 Z M 69.402344 41.625 "/>
<path style="fill:none;stroke-width:0.593216;stroke-linecap:butt;stroke-linejoin:miter;stroke:rgb(38.822937%,3.137207%,6.274414%);stroke-opacity:1;stroke-miterlimit:4;" d="M 69.402344 41.625 L 69.351562 43.105469 "/>
<path style=" stroke:none;fill-rule:evenodd;fill:rgb(99.998474%,61.175537%,6.274414%);fill-opacity:1;" d="M 45.554688 45.554688 L 52.058594 45.605469 L 52.058594 41.574219 L 44.625 41.21875 Z M 45.554688 45.554688 "/>
<path style=" stroke:none;fill-rule:evenodd;fill:rgb(99.998474%,61.175537%,6.274414%);fill-opacity:1;" d="M 45.246094 39.992188 L 52.160156 40.65625 L 52.109375 37.800781 L 45.347656 35.144531 Z M 45.246094 39.992188 "/>
<path style=" stroke:none;fill-rule:evenodd;fill:rgb(99.998474%,61.175537%,6.274414%);fill-opacity:1;" d="M 46.636719 34.277344 L 51.953125 36.832031 L 52.714844 36.046875 C 52.714844 36.046875 52.226562 35.714844 52.25 35.40625 C 52.257812 35.097656 52.742188 35.050781 52.75 34.714844 C 52.757812 34.40625 52.203125 34.367188 52.199219 34.058594 C 52.160156 33.722656 52.625 33.359375 52.625 33.359375 L 47.824219 29.230469 Z M 46.636719 34.277344 "/>
<path style=" stroke:none;fill-rule:evenodd;fill:rgb(99.998474%,61.175537%,6.274414%);fill-opacity:1;" d="M 81.53125 45.605469 L 74.667969 45.605469 L 74.617188 41.675781 L 82.152344 41.117188 Z M 81.53125 45.605469 "/>
<path style=" stroke:none;fill-rule:evenodd;fill:rgb(99.998474%,61.175537%,6.274414%);fill-opacity:1;" d="M 81.699219 39.929688 C 81.613281 39.292969 81.523438 38.65625 81.375 38.03125 C 81.175781 37.195312 80.921875 36.371094 80.617188 35.566406 C 80.59375 35.507812 80.5625 35.453125 80.539062 35.394531 L 74.667969 37.851562 L 74.71875 40.761719 Z M 81.699219 39.929688 "/>
<path style=" stroke:none;fill-rule:evenodd;fill:rgb(99.998474%,61.175537%,6.274414%);fill-opacity:1;" d="M 77.6875 30.488281 L 74.175781 33.144531 C 74.171875 33.144531 74.171875 33.152344 74.167969 33.15625 C 74.167969 33.15625 74.167969 33.164062 74.167969 33.164062 C 74.167969 33.164062 74.167969 33.167969 74.167969 33.171875 C 74.167969 33.171875 74.167969 33.175781 74.167969 33.175781 C 74.167969 33.179688 74.167969 33.183594 74.167969 33.183594 C 74.167969 33.1875 74.167969 33.195312 74.167969 33.195312 C 74.199219 33.347656 74.511719 33.722656 74.554688 34 C 74.53125 34.421875 74.171875 34.605469 74.109375 34.789062 C 74.109375 34.792969 74.105469 34.804688 74.101562 34.808594 C 74.101562 34.8125 74.101562 34.820312 74.101562 34.824219 C 74.101562 34.828125 74.101562 34.839844 74.101562 34.84375 C 74.101562 34.847656 74.101562 34.855469 74.101562 34.855469 C 74.101562 34.859375 74.101562 34.867188 74.101562 34.871094 C 74.101562 34.871094 74.109375 34.878906 74.109375 34.882812 C 74.113281 34.894531 74.117188 34.90625 74.121094 34.917969 C 74.21875 35.0625 74.5625 35.148438 74.5625 35.453125 C 74.5625 35.789062 74.25 35.988281 74.210938 36.011719 C 74.613281 36.28125 74.6875 36.605469 74.773438 36.933594 L 80.03125 34.199219 C 79.40625 32.878906 78.625 31.625 77.6875 30.488281 Z M 77.6875 30.488281 "/>
<path style=" stroke:none;fill-rule:evenodd;fill:rgb(99.998474%,61.175537%,6.274414%);fill-opacity:1;" d="M 67.90625 40.683594 L 70.847656 40.554688 L 70.898438 39.382812 Z M 67.90625 40.683594 "/>
<path style=" stroke:none;fill-rule:evenodd;fill:rgb(99.998474%,61.175537%,6.274414%);fill-opacity:1;" d="M 58.925781 40.59375 L 55.828125 40.503906 L 55.828125 39.28125 Z M 58.925781 40.59375 "/>
<path style=" stroke:none;fill-rule:evenodd;fill:rgb(99.998474%,61.175537%,6.274414%);fill-opacity:1;" d="M 58.910156 40.234375 L 55.828125 38.667969 L 55.828125 36.625 C 55.828125 36.625 55.464844 36.675781 55.515625 36.269531 C 55.535156 35.417969 57.785156 37.820312 58.9375 38.601562 Z M 58.910156 40.234375 "/>
<path style=" stroke:none;fill-rule:evenodd;fill:rgb(99.998474%,61.175537%,6.274414%);fill-opacity:1;" d="M 67.90625 40.042969 L 67.894531 38.71875 C 67.894531 38.71875 70.679688 36.230469 71.273438 35.773438 C 71.273438 36.28125 70.949219 36.675781 70.949219 36.675781 L 70.949219 38.617188 Z M 67.90625 40.042969 "/>
<path style=" stroke:none;fill-rule:evenodd;fill:rgb(99.998474%,61.175537%,6.274414%);fill-opacity:1;" d="M 49.839844 28.871094 C 49.890625 28.921875 52.964844 32.300781 52.964844 32.300781 C 53.050781 31.980469 53.761719 31.933594 54.484375 31.984375 C 55.207031 32.035156 55.785156 31.9375 55.785156 32.445312 C 55.785156 32.957031 55.414062 32.882812 55.414062 33.242188 C 55.414062 33.597656 55.964844 33.570312 55.964844 34.027344 C 55.964844 34.484375 55.566406 34.390625 55.566406 34.746094 C 55.566406 35.042969 55.980469 35.058594 55.980469 35.058594 L 58.910156 37.863281 L 58.921875 34.867188 L 52.882812 25.503906 Z M 49.839844 28.871094 "/>
<path style=" stroke:none;fill-rule:evenodd;fill:rgb(99.998474%,61.175537%,6.274414%);fill-opacity:1;" d="M 54.671875 25.328125 C 54.714844 25.464844 58.761719 33.59375 58.761719 33.59375 C 58.761719 33.59375 58.808594 25.960938 59.496094 25.554688 L 58.347656 23.464844 Z M 54.671875 25.328125 "/>
<path style=" stroke:none;fill-rule:evenodd;fill:rgb(99.998474%,61.175537%,6.274414%);fill-opacity:1;" d="M 67.875 24.449219 L 66.347656 29.730469 C 66.347656 29.730469 67.082031 29.820312 67.679688 29.777344 C 67.832031 29.765625 67.917969 29.796875 67.96875 29.84375 C 67.976562 29.855469 67.988281 29.871094 67.992188 29.882812 C 67.996094 29.890625 68.003906 29.90625 68.007812 29.914062 C 68.011719 29.9375 68.015625 29.96875 68.011719 29.996094 C 68.003906 30.140625 67.898438 30.300781 67.898438 30.300781 L 67.894531 33.703125 L 72.210938 26.078125 C 71.328125 25.628906 70.390625 25.242188 69.394531 24.929688 C 68.875 24.734375 68.371094 24.578125 67.875 24.449219 Z M 67.875 24.449219 "/>
<path style=" stroke:none;fill-rule:evenodd;fill:rgb(99.998474%,61.175537%,6.274414%);fill-opacity:1;" d="M 73.246094 26.65625 L 67.90625 34.863281 L 67.898438 38.023438 L 71.414062 34.691406 C 71.457031 34.648438 71.488281 34.613281 71.507812 34.585938 C 71.511719 34.574219 71.515625 34.558594 71.519531 34.550781 C 71.523438 34.546875 71.527344 34.535156 71.527344 34.53125 C 71.527344 34.527344 71.527344 34.519531 71.527344 34.519531 C 71.527344 34.515625 71.527344 34.507812 71.527344 34.503906 C 71.527344 34.503906 71.527344 34.492188 71.527344 34.492188 C 71.527344 34.488281 71.519531 34.480469 71.519531 34.476562 C 71.515625 34.472656 71.511719 34.464844 71.507812 34.457031 C 71.421875 34.359375 71.140625 34.300781 71.113281 34 C 71.121094 33.941406 71.132812 33.890625 71.15625 33.855469 C 71.230469 33.71875 71.386719 33.695312 71.484375 33.574219 C 71.539062 33.507812 71.574219 33.414062 71.574219 33.257812 C 71.574219 33.144531 71.558594 33.070312 71.539062 33.023438 C 71.535156 33.019531 71.535156 33.007812 71.53125 33.003906 C 71.527344 32.996094 71.519531 32.984375 71.511719 32.976562 C 71.511719 32.976562 71.507812 32.972656 71.507812 32.96875 C 71.503906 32.96875 71.5 32.964844 71.5 32.964844 C 71.453125 32.925781 71.390625 32.917969 71.332031 32.878906 C 71.332031 32.875 71.324219 32.875 71.320312 32.871094 C 71.316406 32.867188 71.304688 32.855469 71.300781 32.851562 C 71.292969 32.84375 71.28125 32.828125 71.273438 32.816406 C 71.238281 32.765625 71.207031 32.679688 71.1875 32.550781 C 71.175781 32.5 71.175781 32.445312 71.1875 32.394531 C 71.191406 32.382812 71.195312 32.367188 71.199219 32.359375 C 71.203125 32.351562 71.210938 32.339844 71.214844 32.332031 C 71.226562 32.3125 71.242188 32.285156 71.261719 32.265625 C 71.265625 32.261719 71.277344 32.25 71.28125 32.246094 C 71.402344 32.132812 71.660156 32.046875 72.136719 32.046875 C 73.003906 32.046875 73.914062 31.882812 74.0625 32.234375 C 74.078125 32.21875 75.984375 30.3125 76.792969 29.476562 C 75.761719 28.40625 74.578125 27.453125 73.246094 26.65625 Z M 73.246094 26.65625 "/>
<path style="fill-rule:evenodd;fill:rgb(80.783081%,6.666565%,14.901733%);fill-opacity:1;stroke-width:0.410531;stroke-linecap:butt;stroke-linejoin:miter;stroke:rgb(38.822937%,3.137207%,6.274414%);stroke-opacity:1;stroke-miterlimit:4;" d="M 61.613281 47.085938 C 60.140625 49.492188 56.207031 48.78125 55.289062 47.097656 C 55.011719 47.023438 55.175781 36.730469 55.175781 36.730469 C 55.175781 36.730469 54.738281 36.53125 54.714844 36.214844 C 54.695312 35.894531 55.3125 35.867188 55.3125 35.457031 C 55.3125 35.046875 54.683594 35.207031 54.671875 34.796875 C 54.675781 34.402344 55.34375 34.457031 55.3125 34.09375 C 55.277344 33.683594 54.5625 33.746094 54.53125 33.367188 C 54.511719 33.066406 55.042969 32.804688 55.191406 32.671875 C 55.097656 32.675781 54.695312 32.664062 54.695312 32.664062 C 54.316406 32.671875 53.941406 32.679688 53.566406 32.6875 C 52.765625 32.6875 53.582031 32.859375 53.570312 33.316406 C 53.5625 33.613281 53.164062 33.8125 53.128906 34.070312 C 53.117188 34.335938 53.699219 34.523438 53.707031 34.84375 C 53.710938 35.128906 53.132812 35.144531 53.152344 35.410156 C 53.191406 35.859375 53.667969 35.957031 53.660156 36.230469 C 53.652344 36.5 53.019531 36.601562 53.015625 36.820312 C 53.039062 37.238281 53.109375 47.402344 53.109375 47.402344 C 54.117188 52.582031 59.957031 53.898438 61.613281 47.085938 Z M 61.613281 47.085938 "/>
<path style="fill-rule:evenodd;fill:rgb(80.783081%,6.666565%,14.901733%);fill-opacity:1;stroke-width:0.410531;stroke-linecap:butt;stroke-linejoin:miter;stroke:rgb(38.822937%,3.137207%,6.274414%);stroke-opacity:1;stroke-miterlimit:4;" d="M 65.460938 47.085938 C 66.929688 49.492188 70.863281 48.78125 71.78125 47.097656 C 72.058594 47.023438 71.894531 36.730469 71.894531 36.730469 C 71.894531 36.730469 72.332031 36.53125 72.355469 36.214844 C 72.375 35.894531 71.796875 35.867188 71.796875 35.457031 C 71.796875 35.046875 72.386719 35.207031 72.398438 34.796875 C 72.398438 34.402344 71.777344 34.433594 71.808594 34.070312 C 71.84375 33.660156 72.328125 33.707031 72.359375 33.328125 C 72.378906 33.003906 72.054688 32.804688 71.902344 32.671875 C 72 32.675781 72.375 32.664062 72.378906 32.664062 C 72.753906 32.671875 73.128906 32.679688 73.503906 32.6875 C 74.304688 32.6875 73.488281 32.859375 73.503906 33.316406 C 73.507812 33.613281 73.90625 33.8125 73.945312 34.070312 C 73.957031 34.335938 73.371094 34.523438 73.367188 34.84375 C 73.359375 35.128906 73.9375 35.144531 73.917969 35.410156 C 73.882812 35.859375 73.40625 35.957031 73.414062 36.230469 C 73.417969 36.5 74.054688 36.601562 74.054688 36.820312 C 74.035156 37.238281 73.964844 47.402344 73.964844 47.402344 C 72.953125 52.582031 67.113281 53.898438 65.460938 47.085938 Z M 65.460938 47.085938 "/>
<path style="fill-rule:evenodd;fill:rgb(3.137207%,23.921204%,61.175537%);fill-opacity:1;stroke-width:0.410531;stroke-linecap:butt;stroke-linejoin:miter;stroke:rgb(3.137207%,23.921204%,61.175537%);stroke-opacity:1;stroke-miterlimit:4;" d="M 60.183594 51.820312 L 66.75 51.816406 C 66.800781 51.765625 65.28125 49.574219 63.46875 49.730469 C 61.449219 49.78125 60.078125 51.820312 60.183594 51.820312 Z M 60.183594 51.820312 "/>
<path style="fill-rule:evenodd;fill:rgb(3.137207%,23.921204%,61.175537%);fill-opacity:1;stroke-width:0.410531;stroke-linecap:butt;stroke-linejoin:miter;stroke:rgb(3.137207%,23.921204%,61.175537%);stroke-opacity:1;stroke-miterlimit:4;" d="M 81.125 51.664062 L 72.136719 51.664062 C 72.136719 51.664062 73.300781 50.984375 73.617188 50.355469 C 74.199219 50.671875 74.039062 50.984375 75.203125 51.035156 C 76.367188 51.089844 77.476562 49.730469 78.589844 49.78125 C 79.699219 49.832031 81.125 51.714844 81.125 51.664062 Z M 81.125 51.664062 "/>
<path style="fill-rule:evenodd;fill:rgb(3.137207%,23.921204%,61.175537%);fill-opacity:1;stroke-width:0.410531;stroke-linecap:butt;stroke-linejoin:miter;stroke:rgb(3.137207%,23.921204%,61.175537%);stroke-opacity:1;stroke-miterlimit:4;" d="M 45.710938 51.664062 L 54.695312 51.664062 C 54.695312 51.664062 53.535156 50.984375 53.214844 50.355469 C 52.636719 50.671875 52.792969 50.984375 51.628906 51.035156 C 50.46875 51.089844 49.355469 49.730469 48.246094 49.78125 C 47.136719 49.832031 45.710938 51.714844 45.710938 51.664062 Z M 45.710938 51.664062 "/>
<path style="fill-rule:evenodd;fill:rgb(3.137207%,23.921204%,61.175537%);fill-opacity:1;stroke-width:0.410531;stroke-linecap:butt;stroke-linejoin:miter;stroke:rgb(3.137207%,23.921204%,61.175537%);stroke-opacity:1;stroke-miterlimit:4;" d="M 46.378906 48.871094 L 52.78125 48.921875 C 52.78125 48.921875 52.367188 48.054688 52.316406 46.984375 C 50.664062 46.421875 49.324219 48.207031 48.136719 48.257812 C 46.949219 48.308594 45.710938 46.984375 45.710938 46.984375 Z M 46.378906 48.871094 "/>
<path style="fill-rule:evenodd;fill:rgb(3.137207%,23.921204%,61.175537%);fill-opacity:1;stroke-width:0.410531;stroke-linecap:butt;stroke-linejoin:miter;stroke:rgb(3.137207%,23.921204%,61.175537%);stroke-opacity:1;stroke-miterlimit:4;" d="M 80.550781 48.871094 L 74.152344 48.921875 C 74.152344 48.921875 74.566406 48.054688 74.617188 46.984375 C 76.265625 46.421875 77.609375 48.207031 78.796875 48.257812 C 79.984375 48.308594 81.222656 46.984375 81.222656 46.984375 Z M 80.550781 48.871094 "/>
<path style="fill-rule:evenodd;fill:rgb(3.137207%,23.921204%,61.175537%);fill-opacity:1;stroke-width:0.410531;stroke-linecap:butt;stroke-linejoin:miter;stroke:rgb(3.137207%,23.921204%,61.175537%);stroke-opacity:1;stroke-miterlimit:4;" d="M 61.8125 48.921875 L 65.066406 48.820312 C 65.066406 48.820312 65.117188 47.851562 63.414062 47.851562 C 61.710938 47.851562 61.867188 48.972656 61.8125 48.921875 Z M 61.8125 48.921875 "/>
<path style="fill-rule:evenodd;fill:rgb(38.822937%,3.137207%,6.274414%);fill-opacity:1;stroke-width:0.593216;stroke-linecap:butt;stroke-linejoin:miter;stroke:rgb(38.822937%,3.137207%,6.274414%);stroke-opacity:1;stroke-miterlimit:4;" d="M 59.851562 47.542969 C 60.421875 47.238281 60.9375 46.933594 61.296875 46.214844 L 59.078125 46.269531 C 59.078125 46.269531 58.046875 46.878906 57.53125 47.542969 Z M 59.851562 47.542969 "/>
<path style="fill-rule:evenodd;fill:rgb(38.822937%,3.137207%,6.274414%);fill-opacity:1;stroke-width:0.593216;stroke-linecap:butt;stroke-linejoin:miter;stroke:rgb(38.822937%,3.137207%,6.274414%);stroke-opacity:1;stroke-miterlimit:4;" d="M 67.027344 47.542969 C 66.460938 47.238281 65.945312 46.933594 65.582031 46.214844 L 67.800781 46.269531 C 67.800781 46.269531 68.835938 46.878906 69.351562 47.542969 Z M 67.027344 47.542969 "/>
<g clip-path="url(#clip3)" clip-rule="nonzero">
<path style=" stroke:none;fill-rule:evenodd;fill:rgb(99.998474%,99.998474%,99.998474%);fill-opacity:1;" d="M 0 21.25 L 0 63.75 L 127.5 63.75 L 127.5 21.25 Z M 61.757812 23.925781 C 64.414062 23.925781 66.738281 23.925781 69.394531 24.929688 C 84.335938 29.617188 86.328125 50.699219 73.046875 58.730469 C 70.722656 60.402344 68.398438 61.074219 65.742188 61.40625 C 63.75 61.40625 61.757812 61.40625 59.765625 61.074219 C 45.15625 58.0625 40.507812 38.652344 51.464844 28.613281 C 54.453125 25.933594 57.773438 24.597656 61.757812 23.925781 Z M 61.757812 23.925781 "/>
</g>
</g>
</svg>
