<svg viewBox="0 0 1000 667" xmlns="http://www.w3.org/2000/svg" xmlns:xlink="http://www.w3.org/1999/xlink"><clipPath id="a"><path d="m0 0h1000v666.71875h-1000zm0 0"/></clipPath><g fill-rule="evenodd"><g clip-path="url(#a)"><path d="m0 666.667969h1000v-666.667969h-1000zm0 0" fill="#fff"/><path d="m433.332031 0v266.667969h-433.332031v133.332031h433.332031v266.667969h133.335938v-266.667969h433.332031v-133.332031h-433.332031v-266.667969zm0 0" fill="#e8112d"/></g><g fill="#e8112d"><path d="m192.136719 66.773438c8.125 42.769531 8.125 86.683593 0 129.449218 15.070312-1.878906 30.320312-1.878906 45.394531 0-8.128906-42.765625-8.128906-86.679687 0-129.449218-15.074219 1.882812-30.324219 1.882812-45.394531 0zm0 0"/><path d="m279.558594 108.800781c-42.765625 8.128907-86.683594 8.128907-129.449219 0 1.878906 15.074219 1.878906 30.324219 0 45.398438 42.765625-8.128907 86.683594-8.128907 129.449219 0-1.882813-15.074219-1.882813-30.324219 0-45.398438zm0 0"/><path d="m762.46875 470.441406c8.128906 42.765625 8.128906 86.683594 0 129.449219 15.074219-1.878906 30.324219-1.878906 45.394531 0-8.125-42.765625-8.125-86.683594 0-129.449219-15.070312 1.882813-30.320312 1.882813-45.394531 0zm0 0"/><path d="m849.890625 512.46875c-42.765625 8.128906-86.679687 8.128906-129.449219 0 1.882813 15.074219 1.882813 30.324219 0 45.394531 42.769532-8.125 86.683594-8.125 129.449219 0-1.878906-15.070312-1.878906-30.320312 0-45.394531zm0 0"/><path d="m762.46875 66.773438c8.128906 42.769531 8.128906 86.683593 0 129.449218 15.074219-1.878906 30.324219-1.878906 45.394531 0-8.125-42.765625-8.125-86.679687 0-129.449218-15.070312 1.882812-30.320312 1.882812-45.394531 0zm0 0"/><path d="m849.890625 108.800781c-42.765625 8.128907-86.679687 8.128907-129.449219 0 1.882813 15.074219 1.882813 30.324219 0 45.398438 42.769532-8.128907 86.683594-8.128907 129.449219 0-1.878906-15.074219-1.878906-30.324219 0-45.398438zm0 0"/><path d="m192.136719 470.441406c8.125 42.765625 8.125 86.683594 0 129.449219 15.070312-1.878906 30.320312-1.878906 45.394531 0-8.128906-42.765625-8.128906-86.683594 0-129.449219-15.074219 1.882813-30.324219 1.882813-45.394531 0zm0 0"/><path d="m279.558594 512.46875c-42.765625 8.128906-86.683594 8.128906-129.449219 0 1.878906 15.074219 1.878906 30.324219 0 45.394531 42.765625-8.125 86.683594-8.125 129.449219 0-1.882813-15.070312-1.882813-30.320312 0-45.394531zm0 0"/></g></g></svg>