<?xml version="1.0" encoding="UTF-8"?>
<svg xmlns="http://www.w3.org/2000/svg" xmlns:xlink="http://www.w3.org/1999/xlink" width="128pt" height="85pt" viewBox="0 0 128 85" version="1.1">
<defs>
<clipPath id="clip1">
  <path d="M 0 0 L 127.679688 0 L 127.679688 85 L 0 85 Z M 0 0 "/>
</clipPath>
</defs>
<g id="surface417">
<g clip-path="url(#clip1)" clip-rule="nonzero">
<path style=" stroke:none;fill-rule:evenodd;fill:rgb(99.998474%,99.998474%,99.998474%);fill-opacity:1;" d="M 0 85 L 127.5 85 L 127.5 0 L 0 0 Z M 0 85 "/>
<path style=" stroke:none;fill-rule:evenodd;fill:rgb(90.99884%,6.700134%,17.599487%);fill-opacity:1;" d="M 55.25 0 L 55.25 34 L 0 34 L 0 51 L 55.25 51 L 55.25 85 L 72.25 85 L 72.25 51 L 127.5 51 L 127.5 34 L 72.25 34 L 72.25 0 Z M 55.25 0 "/>
</g>
<path style=" stroke:none;fill-rule:evenodd;fill:rgb(90.99884%,6.700134%,17.599487%);fill-opacity:1;" d="M 24.496094 8.515625 C 25.535156 13.964844 25.535156 19.566406 24.496094 25.019531 C 26.417969 24.777344 28.363281 24.777344 30.285156 25.019531 C 29.25 19.566406 29.25 13.964844 30.285156 8.515625 C 28.363281 8.753906 26.417969 8.753906 24.496094 8.515625 Z M 24.496094 8.515625 "/>
<path style=" stroke:none;fill-rule:evenodd;fill:rgb(90.99884%,6.700134%,17.599487%);fill-opacity:1;" d="M 35.644531 13.871094 C 30.191406 14.910156 24.589844 14.910156 19.140625 13.871094 C 19.378906 15.792969 19.378906 17.738281 19.140625 19.660156 C 24.589844 18.625 30.191406 18.625 35.644531 19.660156 C 35.402344 17.738281 35.402344 15.792969 35.644531 13.871094 Z M 35.644531 13.871094 "/>
<path style=" stroke:none;fill-rule:evenodd;fill:rgb(90.99884%,6.700134%,17.599487%);fill-opacity:1;" d="M 97.214844 59.980469 C 98.25 65.433594 98.25 71.035156 97.214844 76.484375 C 99.136719 76.246094 101.082031 76.246094 103.003906 76.484375 C 101.964844 71.035156 101.964844 65.433594 103.003906 59.980469 C 101.082031 60.222656 99.136719 60.222656 97.214844 59.980469 Z M 97.214844 59.980469 "/>
<path style=" stroke:none;fill-rule:evenodd;fill:rgb(90.99884%,6.700134%,17.599487%);fill-opacity:1;" d="M 108.359375 65.339844 C 102.910156 66.375 97.308594 66.375 91.855469 65.339844 C 92.097656 67.261719 92.097656 69.207031 91.855469 71.128906 C 97.308594 70.089844 102.910156 70.089844 108.359375 71.128906 C 108.121094 69.207031 108.121094 67.261719 108.359375 65.339844 Z M 108.359375 65.339844 "/>
<path style=" stroke:none;fill-rule:evenodd;fill:rgb(90.99884%,6.700134%,17.599487%);fill-opacity:1;" d="M 97.214844 8.515625 C 98.25 13.964844 98.25 19.566406 97.214844 25.019531 C 99.136719 24.777344 101.082031 24.777344 103.003906 25.019531 C 101.964844 19.566406 101.964844 13.964844 103.003906 8.515625 C 101.082031 8.753906 99.136719 8.753906 97.214844 8.515625 Z M 97.214844 8.515625 "/>
<path style=" stroke:none;fill-rule:evenodd;fill:rgb(90.99884%,6.700134%,17.599487%);fill-opacity:1;" d="M 108.359375 13.871094 C 102.910156 14.910156 97.308594 14.910156 91.855469 13.871094 C 92.097656 15.792969 92.097656 17.738281 91.855469 19.660156 C 97.308594 18.625 102.910156 18.625 108.359375 19.660156 C 108.121094 17.738281 108.121094 15.792969 108.359375 13.871094 Z M 108.359375 13.871094 "/>
<path style=" stroke:none;fill-rule:evenodd;fill:rgb(90.99884%,6.700134%,17.599487%);fill-opacity:1;" d="M 24.496094 59.980469 C 25.535156 65.433594 25.535156 71.035156 24.496094 76.484375 C 26.417969 76.246094 28.363281 76.246094 30.285156 76.484375 C 29.25 71.035156 29.25 65.433594 30.285156 59.980469 C 28.363281 60.222656 26.417969 60.222656 24.496094 59.980469 Z M 24.496094 59.980469 "/>
<path style=" stroke:none;fill-rule:evenodd;fill:rgb(90.99884%,6.700134%,17.599487%);fill-opacity:1;" d="M 35.644531 65.339844 C 30.191406 66.375 24.589844 66.375 19.140625 65.339844 C 19.378906 67.261719 19.378906 69.207031 19.140625 71.128906 C 24.589844 70.089844 30.191406 70.089844 35.644531 71.128906 C 35.402344 69.207031 35.402344 67.261719 35.644531 65.339844 Z M 35.644531 65.339844 "/>
</g>
</svg>
