<?xml version="1.0" encoding="UTF-8"?>
<svg xmlns="http://www.w3.org/2000/svg" xmlns:xlink="http://www.w3.org/1999/xlink" width="128pt" height="77pt" viewBox="0 0 128 77" version="1.1">
<defs>
<clipPath id="clip1">
  <path d="M 0 0 L 128 0 L 128 76.800781 L 0 76.800781 Z M 0 0 "/>
</clipPath>
<clipPath id="clip2">
  <path d="M 0 25 L 128 25 L 128 76.800781 L 0 76.800781 Z M 0 25 "/>
</clipPath>
<clipPath id="clip3">
  <path d="M 0 51 L 128 51 L 128 76.800781 L 0 76.800781 Z M 0 51 "/>
</clipPath>
</defs>
<g id="surface422">
<g clip-path="url(#clip1)" clip-rule="nonzero">
<path style=" stroke:none;fill-rule:evenodd;fill:rgb(0%,0%,0%);fill-opacity:1;" d="M 0 76.800781 L 0 0 L 128 0 L 128 76.800781 Z M 0 76.800781 "/>
</g>
<g clip-path="url(#clip2)" clip-rule="nonzero">
<path style=" stroke:none;fill-rule:evenodd;fill:rgb(86.665344%,0%,0%);fill-opacity:1;" d="M 0 25.601562 L 128 25.601562 L 128 76.800781 L 0 76.800781 Z M 0 25.601562 "/>
</g>
<g clip-path="url(#clip3)" clip-rule="nonzero">
<path style=" stroke:none;fill-rule:evenodd;fill:rgb(99.998474%,80.783081%,0%);fill-opacity:1;" d="M 0 51.199219 L 128 51.199219 L 128 76.800781 L 0 76.800781 Z M 0 51.199219 "/>
</g>
</g>
</svg>
