<?xml version="1.0" encoding="UTF-8"?>
<svg xmlns="http://www.w3.org/2000/svg" xmlns:xlink="http://www.w3.org/1999/xlink" width="128pt" height="64pt" viewBox="0 0 128 64" version="1.1">
<g id="surface432">
<rect x="0" y="0" width="128" height="64" style="fill:rgb(99.998474%,99.998474%,99.998474%);fill-opacity:1;stroke:none;"/>
<path style=" stroke:none;fill-rule:evenodd;fill:rgb(85.488892%,0%,4.705811%);fill-opacity:1;" d="M 0 42.875 L 128 42.875 L 128 64 L 0 64 Z M 0 42.875 "/>
<path style=" stroke:none;fill-rule:evenodd;fill:rgb(97.253418%,84.70459%,5.490112%);fill-opacity:1;" d="M 58.945312 56.890625 L 58.945312 58.898438 L 60.203125 58.898438 L 60.203125 57.890625 L 61.914062 57.890625 L 61.914062 58.898438 L 63.265625 58.898438 L 63.265625 56.890625 Z M 58.945312 59.65625 L 58.945312 61.671875 L 63.265625 61.671875 L 63.265625 59.65625 L 61.914062 59.65625 L 61.914062 60.664062 L 60.203125 60.664062 L 60.203125 59.65625 Z M 58.945312 59.65625 "/>
<path style="fill:none;stroke-width:0.25;stroke-linecap:butt;stroke-linejoin:miter;stroke:rgb(0%,0%,0%);stroke-opacity:1;stroke-miterlimit:4;" d="M 58.945312 56.890625 L 58.945312 58.898438 L 60.203125 58.898438 L 60.203125 57.890625 L 61.914062 57.890625 L 61.914062 58.898438 L 63.265625 58.898438 L 63.265625 56.890625 Z M 58.945312 56.890625 "/>
<path style="fill:none;stroke-width:0.25;stroke-linecap:butt;stroke-linejoin:miter;stroke:rgb(0%,0%,0%);stroke-opacity:1;stroke-miterlimit:4;" d="M 58.945312 59.65625 L 58.945312 61.671875 L 63.265625 61.671875 L 63.265625 59.65625 L 61.914062 59.65625 L 61.914062 60.664062 L 60.203125 60.664062 L 60.203125 59.65625 Z M 58.945312 59.65625 "/>
<path style=" stroke:none;fill-rule:evenodd;fill:rgb(0%,0%,0%);fill-opacity:1;" d="M 49.140625 29.074219 L 78.859375 29.074219 L 78.859375 40.074219 L 49.140625 40.074219 Z M 49.140625 29.074219 "/>
<path style=" stroke:none;fill-rule:evenodd;fill:rgb(85.488892%,0%,4.705811%);fill-opacity:1;" d="M 57.453125 38.464844 L 47.6875 38.464844 L 45.523438 39.890625 L 45.523438 41.402344 L 57.453125 41.402344 Z M 57.453125 38.464844 "/>
<path style="fill:none;stroke-width:0.25;stroke-linecap:round;stroke-linejoin:miter;stroke:rgb(0%,0%,0%);stroke-opacity:1;stroke-miterlimit:4;" d="M 57.453125 38.464844 L 47.6875 38.464844 L 45.523438 39.890625 L 45.523438 41.402344 L 57.453125 41.402344 "/>
<path style=" stroke:none;fill-rule:evenodd;fill:rgb(85.488892%,0%,4.705811%);fill-opacity:1;" d="M 70.546875 38.464844 L 80.3125 38.464844 L 82.476562 39.890625 L 82.476562 41.402344 L 70.546875 41.402344 Z M 70.546875 38.464844 "/>
<path style="fill:none;stroke-width:0.25;stroke-linecap:round;stroke-linejoin:miter;stroke:rgb(0%,0%,0%);stroke-opacity:1;stroke-miterlimit:4;" d="M 70.546875 38.464844 L 80.3125 38.464844 L 82.476562 39.890625 L 82.476562 41.402344 L 70.546875 41.402344 "/>
<path style="fill:none;stroke-width:0.25;stroke-linecap:round;stroke-linejoin:miter;stroke:rgb(0%,0%,0%);stroke-opacity:1;stroke-miterlimit:4;" d="M 45.523438 39.890625 L 82.476562 39.890625 "/>
<path style="fill-rule:evenodd;fill:rgb(85.488892%,0%,4.705811%);fill-opacity:1;stroke-width:0.25;stroke-linecap:butt;stroke-linejoin:miter;stroke:rgb(0%,0%,0%);stroke-opacity:1;stroke-miterlimit:4;" d="M 57.140625 39.203125 L 54.695312 40.382812 L 54.695312 42.140625 L 73.304688 42.140625 L 73.304688 40.382812 L 70.859375 39.203125 Z M 57.140625 39.203125 "/>
<path style="fill-rule:evenodd;fill:rgb(97.253418%,84.70459%,5.490112%);fill-opacity:1;stroke-width:0.192;stroke-linecap:butt;stroke-linejoin:miter;stroke:rgb(0%,0%,0%);stroke-opacity:1;stroke-miterlimit:4;" d="M 68.324219 37.507812 C 67.988281 37.605469 67.5625 37.820312 67.042969 38.109375 C 66.523438 38.398438 65.925781 38.761719 65.363281 39.132812 C 64.945312 39.410156 64.597656 39.683594 64.253906 39.953125 C 64.132812 40.046875 63.96875 40.144531 63.863281 40.234375 C 63.742188 40.339844 63.65625 40.4375 63.558594 40.539062 C 63.496094 40.605469 63.410156 40.671875 63.355469 40.734375 C 63.21875 40.898438 63.089844 41.039062 63.089844 41.335938 C 63.089844 41.390625 63.089844 41.445312 63.097656 41.5 C 63.292969 41.265625 63.570312 41.105469 63.878906 41.070312 C 63.878906 41.070312 63.886719 41.070312 63.886719 41.070312 C 63.894531 41.070312 63.910156 41.070312 63.917969 41.070312 C 63.917969 41.070312 63.925781 41.070312 63.925781 41.070312 C 63.957031 41.066406 63.980469 41.070312 64.011719 41.070312 C 64.042969 41.070312 64.066406 41.066406 64.097656 41.070312 C 64.144531 41.074219 64.1875 41.085938 64.230469 41.09375 C 64.246094 41.078125 64.261719 41.0625 64.277344 41.046875 C 64.335938 40.996094 64.363281 40.957031 64.433594 40.898438 C 64.570312 40.78125 64.796875 40.632812 64.972656 40.5 C 65.253906 40.285156 65.511719 40.082031 65.847656 39.859375 C 66.390625 39.5 66.96875 39.148438 67.464844 38.875 C 67.960938 38.601562 68.402344 38.402344 68.574219 38.351562 Z M 68.324219 37.507812 "/>
<path style="fill:none;stroke-width:0.25;stroke-linecap:butt;stroke-linejoin:miter;stroke:rgb(0%,0%,0%);stroke-opacity:1;stroke-miterlimit:4;" d="M 65.101562 39.347656 L 65.101562 40.324219 "/>
<path style="fill:none;stroke-width:0.25;stroke-linecap:butt;stroke-linejoin:miter;stroke:rgb(0%,0%,0%);stroke-opacity:1;stroke-miterlimit:4;" d="M 65.703125 38.921875 L 65.703125 39.890625 "/>
<path style="fill:none;stroke-width:0.25;stroke-linecap:butt;stroke-linejoin:miter;stroke:rgb(0%,0%,0%);stroke-opacity:1;stroke-miterlimit:4;" d="M 66.308594 38.546875 L 66.308594 39.507812 "/>
<path style="fill:none;stroke-width:0.25;stroke-linecap:butt;stroke-linejoin:miter;stroke:rgb(0%,0%,0%);stroke-opacity:1;stroke-miterlimit:4;" d="M 66.914062 38.171875 L 66.914062 39.167969 "/>
<path style="fill:none;stroke-width:0.25;stroke-linecap:butt;stroke-linejoin:miter;stroke:rgb(0%,0%,0%);stroke-opacity:1;stroke-miterlimit:4;" d="M 54.691406 40.378906 L 73.308594 40.378906 "/>
<path style="fill-rule:evenodd;fill:rgb(85.488892%,0%,4.705811%);fill-opacity:1;stroke-width:0.25;stroke-linecap:round;stroke-linejoin:miter;stroke:rgb(0%,0%,0%);stroke-opacity:1;stroke-miterlimit:4;" d="M 53.367188 32.148438 C 54.773438 32.148438 55.921875 33.320312 55.921875 34.765625 L 55.921875 38.460938 L 57.757812 38.460938 L 57.757812 24.460938 L 47.6875 24.460938 L 47.6875 38.460938 L 50.8125 38.460938 L 50.8125 34.765625 C 50.8125 33.378906 51.941406 32.148438 53.367188 32.148438 Z M 53.367188 32.148438 "/>
<path style=" stroke:none;fill-rule:evenodd;fill:rgb(0%,0%,0%);fill-opacity:1;" d="M 51.132812 14.992188 L 55.761719 14.992188 L 55.761719 23.480469 L 51.132812 23.480469 Z M 51.132812 14.992188 "/>
<path style=" stroke:none;fill-rule:evenodd;fill:rgb(85.488892%,0%,4.705811%);fill-opacity:1;" d="M 55.75 22.164062 L 51.699219 22.164062 L 51.699219 20.726562 L 48.726562 20.726562 L 48.726562 22.164062 L 46.710938 22.164062 L 46.710938 20.726562 L 45.507812 20.726562 L 45.507812 23.335938 L 55.75 23.335938 Z M 46.710938 23.328125 L 55.453125 23.328125 L 55.453125 24.460938 L 46.710938 24.460938 Z M 46.710938 23.328125 "/>
<path style="fill:none;stroke-width:0.25;stroke-linecap:butt;stroke-linejoin:miter;stroke:rgb(0%,0%,0%);stroke-opacity:1;stroke-miterlimit:4;" d="M 55.75 22.164062 L 51.699219 22.164062 L 51.699219 20.726562 L 48.726562 20.726562 L 48.726562 22.164062 L 46.710938 22.164062 L 46.710938 20.726562 L 45.507812 20.726562 L 45.507812 23.335938 L 55.75 23.335938 "/>
<path style="fill:none;stroke-width:0.25;stroke-linecap:butt;stroke-linejoin:miter;stroke:rgb(0%,0%,0%);stroke-opacity:1;stroke-miterlimit:4;" d="M 46.710938 23.328125 L 55.453125 23.328125 L 55.453125 24.460938 L 46.710938 24.460938 Z M 46.710938 23.328125 "/>
<path style="fill-rule:evenodd;fill:rgb(85.488892%,0%,4.705811%);fill-opacity:1;stroke-width:0.25;stroke-linecap:butt;stroke-linejoin:miter;stroke:rgb(0%,0%,0%);stroke-opacity:1;stroke-miterlimit:4;" d="M 50.179688 11.90625 L 50.179688 20.726562 L 51.699219 20.726562 L 51.699219 18.304688 C 51.699219 17.398438 52.339844 16.65625 53.234375 16.609375 C 53.261719 16.609375 53.292969 16.609375 53.320312 16.609375 C 54.257812 16.609375 55.015625 17.367188 55.015625 18.304688 L 55.015625 20.726562 L 56.460938 20.726562 L 56.460938 11.90625 Z M 50.179688 11.90625 "/>
<path style=" stroke:none;fill-rule:evenodd;fill:rgb(0%,0%,0%);fill-opacity:1;" d="M 60.199219 9.585938 L 67.53125 9.585938 L 67.53125 22.902344 L 60.199219 22.902344 Z M 60.199219 9.585938 "/>
<path style=" stroke:none;fill-rule:evenodd;fill:rgb(85.488892%,0%,4.705811%);fill-opacity:1;" d="M 59.6875 9.59375 L 59.6875 20.734375 L 62.015625 20.734375 L 62.015625 17.429688 C 62.015625 16.667969 62.503906 15.609375 64 15.609375 C 65.496094 15.609375 65.984375 16.667969 65.984375 17.429688 L 65.984375 20.734375 L 68.3125 20.734375 L 68.3125 9.59375 Z M 63.640625 10.84375 L 64.359375 10.84375 L 64.359375 14.65625 L 63.640625 14.65625 Z M 61.578125 11.59375 L 62.304688 11.59375 L 62.304688 14.382812 L 61.578125 14.382812 Z M 65.695312 11.59375 L 66.421875 11.59375 L 66.421875 14.382812 L 65.695312 14.382812 Z M 65.695312 11.59375 "/>
<path style="fill:none;stroke-width:0.25;stroke-linecap:butt;stroke-linejoin:miter;stroke:rgb(0%,0%,0%);stroke-opacity:1;stroke-miterlimit:4;" d="M 59.6875 9.59375 L 59.6875 20.734375 L 62.015625 20.734375 L 62.015625 17.429688 C 62.015625 16.667969 62.503906 15.609375 64 15.609375 C 65.496094 15.609375 65.984375 16.667969 65.984375 17.429688 L 65.984375 20.734375 L 68.3125 20.734375 L 68.3125 9.59375 Z M 59.6875 9.59375 "/>
<path style="fill:none;stroke-width:0.25;stroke-linecap:butt;stroke-linejoin:miter;stroke:rgb(0%,0%,0%);stroke-opacity:1;stroke-miterlimit:4;" d="M 63.640625 10.84375 L 64.359375 10.84375 L 64.359375 14.65625 L 63.640625 14.65625 Z M 63.640625 10.84375 "/>
<path style="fill:none;stroke-width:0.25;stroke-linecap:butt;stroke-linejoin:miter;stroke:rgb(0%,0%,0%);stroke-opacity:1;stroke-miterlimit:4;" d="M 61.578125 11.59375 L 62.304688 11.59375 L 62.304688 14.382812 L 61.578125 14.382812 Z M 61.578125 11.59375 "/>
<path style="fill:none;stroke-width:0.25;stroke-linecap:butt;stroke-linejoin:miter;stroke:rgb(0%,0%,0%);stroke-opacity:1;stroke-miterlimit:4;" d="M 65.695312 11.59375 L 66.421875 11.59375 L 66.421875 14.382812 L 65.695312 14.382812 Z M 65.695312 11.59375 "/>
<path style="fill-rule:evenodd;fill:rgb(85.488892%,0%,4.705811%);fill-opacity:1;stroke-width:0.25;stroke-linecap:round;stroke-linejoin:miter;stroke:rgb(0%,0%,0%);stroke-opacity:1;stroke-miterlimit:4;" d="M 58.898438 7.992188 L 58.898438 9.578125 L 69.101562 9.578125 L 69.101562 7.992188 Z M 58.898438 7.992188 "/>
<path style="fill-rule:evenodd;fill:rgb(85.488892%,0%,4.705811%);fill-opacity:1;stroke-width:0.25;stroke-linecap:round;stroke-linejoin:miter;stroke:rgb(0%,0%,0%);stroke-opacity:1;stroke-miterlimit:4;" d="M 57.9375 6.148438 L 57.9375 7.992188 L 70.0625 7.992188 L 70.0625 6.148438 L 68.539062 6.148438 L 68.539062 7.164062 L 66.820312 7.164062 L 66.820312 6.148438 L 64.859375 6.148438 L 64.859375 7.164062 L 63.140625 7.164062 L 63.140625 6.148438 L 61.179688 6.148438 L 61.179688 7.164062 L 59.460938 7.164062 L 59.460938 6.148438 Z M 57.9375 6.148438 "/>
<path style="fill-rule:evenodd;fill:rgb(85.488892%,0%,4.705811%);fill-opacity:1;stroke-width:0.25;stroke-linecap:round;stroke-linejoin:miter;stroke:rgb(0%,0%,0%);stroke-opacity:1;stroke-miterlimit:4;" d="M 49.632812 10.710938 L 49.632812 11.90625 L 56.945312 11.90625 L 56.945312 10.710938 Z M 49.632812 10.710938 "/>
<path style="fill-rule:evenodd;fill:rgb(85.488892%,0%,4.705811%);fill-opacity:1;stroke-width:0.25;stroke-linecap:round;stroke-linejoin:miter;stroke:rgb(0%,0%,0%);stroke-opacity:1;stroke-miterlimit:4;" d="M 48.695312 8.421875 L 48.695312 10.710938 L 57.46875 10.710938 L 57.46875 8.421875 L 56.117188 8.421875 L 56.117188 9.585938 L 54.484375 9.585938 L 54.484375 8.421875 L 51.992188 8.421875 L 51.992188 9.585938 L 50.359375 9.585938 L 50.359375 8.421875 Z M 48.695312 8.421875 "/>
<path style="fill-rule:evenodd;fill:rgb(97.253418%,84.70459%,5.490112%);fill-opacity:1;stroke-width:0.25;stroke-linecap:butt;stroke-linejoin:miter;stroke:rgb(0%,0%,0%);stroke-opacity:1;stroke-miterlimit:4;" d="M 63.261719 48.414062 L 64.511719 48.414062 L 64.511719 62.941406 L 63.261719 62.941406 Z M 63.261719 48.414062 "/>
<path style=" stroke:none;fill-rule:evenodd;fill:rgb(97.253418%,84.70459%,5.490112%);fill-opacity:1;" d="M 63.886719 44.851562 L 66.542969 46.398438 L 63.886719 47.9375 L 61.230469 46.398438 Z M 60.332031 45.84375 L 59.636719 45.84375 L 59.636719 46.953125 L 60.332031 46.953125 L 63.886719 49.015625 L 67.441406 46.953125 L 68.136719 46.953125 L 68.136719 45.84375 L 67.441406 45.84375 L 63.886719 43.78125 Z M 60.332031 45.84375 "/>
<path style="fill:none;stroke-width:0.256;stroke-linecap:butt;stroke-linejoin:miter;stroke:rgb(0%,0%,0%);stroke-opacity:1;stroke-miterlimit:4;" d="M 63.886719 44.851562 L 66.542969 46.398438 L 63.886719 47.9375 L 61.230469 46.398438 Z M 63.886719 44.851562 "/>
<path style="fill:none;stroke-width:0.256;stroke-linecap:butt;stroke-linejoin:miter;stroke:rgb(0%,0%,0%);stroke-opacity:1;stroke-miterlimit:4;" d="M 60.332031 45.84375 L 59.636719 45.84375 L 59.636719 46.953125 L 60.332031 46.953125 L 63.886719 49.015625 L 67.441406 46.953125 L 68.136719 46.953125 L 68.136719 45.84375 L 67.441406 45.84375 L 63.886719 43.78125 Z M 60.332031 45.84375 "/>
<path style="fill-rule:evenodd;fill:rgb(97.253418%,84.70459%,5.490112%);fill-opacity:1;stroke-width:0.192;stroke-linecap:butt;stroke-linejoin:miter;stroke:rgb(0%,0%,0%);stroke-opacity:1;stroke-miterlimit:4;" d="M 59.722656 37.539062 L 59.425781 38.367188 C 60.386719 38.714844 61.75 39.390625 62.839844 40.046875 C 63.386719 40.375 63.863281 40.699219 64.191406 40.96875 C 64.355469 41.101562 64.480469 41.226562 64.550781 41.3125 C 64.558594 41.324219 64.570312 41.335938 64.574219 41.34375 C 64.574219 41.34375 64.574219 41.351562 64.574219 41.351562 C 64.578125 41.363281 64.585938 41.375 64.589844 41.382812 C 64.582031 41.4375 64.574219 41.5 64.558594 41.539062 C 64.558594 41.542969 64.550781 41.550781 64.550781 41.554688 C 64.550781 41.554688 64.550781 41.5625 64.550781 41.5625 C 64.550781 41.5625 64.542969 41.570312 64.542969 41.570312 C 64.539062 41.578125 64.53125 41.585938 64.527344 41.59375 C 64.527344 41.59375 64.519531 41.601562 64.519531 41.601562 C 64.519531 41.601562 64.511719 41.609375 64.511719 41.609375 C 64.507812 41.613281 64.5 41.613281 64.496094 41.617188 C 64.492188 41.621094 64.480469 41.628906 64.472656 41.632812 C 64.4375 41.648438 64.378906 41.65625 64.285156 41.65625 C 64.230469 41.65625 64.183594 41.648438 64.152344 41.640625 C 64.140625 41.636719 64.125 41.636719 64.113281 41.632812 C 64.109375 41.632812 64.101562 41.625 64.097656 41.625 C 64.089844 41.621094 64.082031 41.613281 64.074219 41.609375 C 64.070312 41.609375 64.066406 41.601562 64.066406 41.601562 C 64.066406 41.601562 64.058594 41.59375 64.058594 41.59375 C 64.058594 41.589844 64.050781 41.582031 64.050781 41.578125 C 64.050781 41.578125 64.042969 41.578125 64.042969 41.578125 C 64.042969 41.578125 64.035156 41.578125 64.035156 41.578125 C 64.03125 41.578125 64.03125 41.578125 64.027344 41.578125 C 64.023438 41.578125 64.015625 41.578125 64.011719 41.578125 C 63.988281 41.578125 63.964844 41.574219 63.941406 41.578125 C 63.65625 41.605469 63.410156 41.8125 63.332031 42.09375 C 63.332031 42.09375 63.332031 42.101562 63.332031 42.101562 C 63.332031 42.101562 63.339844 42.109375 63.339844 42.109375 C 63.34375 42.113281 63.351562 42.121094 63.355469 42.125 C 63.554688 42.367188 63.902344 42.53125 64.285156 42.53125 C 64.691406 42.53125 65.042969 42.363281 65.238281 42.109375 C 65.433594 41.855469 65.480469 41.570312 65.480469 41.335938 C 65.480469 41.0625 65.359375 40.90625 65.230469 40.75 C 65.101562 40.59375 64.9375 40.445312 64.746094 40.289062 C 64.363281 39.976562 63.863281 39.640625 63.292969 39.296875 C 62.15625 38.609375 60.773438 37.917969 59.722656 37.539062 Z M 59.722656 37.539062 "/>
<path style=" stroke:none;fill-rule:evenodd;fill:rgb(0%,0%,0%);fill-opacity:1;" d="M 63.511719 39.507812 L 63.433594 40.34375 Z M 63.511719 39.507812 "/>
<path style="fill:none;stroke-width:0.25;stroke-linecap:butt;stroke-linejoin:miter;stroke:rgb(0%,0%,0%);stroke-opacity:1;stroke-miterlimit:4;" d="M 63.511719 39.507812 L 63.433594 40.34375 "/>
<path style=" stroke:none;fill-rule:evenodd;fill:rgb(0%,0%,0%);fill-opacity:1;" d="M 64.207031 39.933594 L 63.992188 40.753906 Z M 64.207031 39.933594 "/>
<path style="fill:none;stroke-width:0.25;stroke-linecap:butt;stroke-linejoin:miter;stroke:rgb(0%,0%,0%);stroke-opacity:1;stroke-miterlimit:4;" d="M 64.207031 39.933594 L 63.992188 40.753906 "/>
<path style=" stroke:none;fill-rule:evenodd;fill:rgb(0%,0%,0%);fill-opacity:1;" d="M 64.953125 40.503906 L 64.5 41.136719 Z M 64.953125 40.503906 "/>
<path style="fill:none;stroke-width:0.25;stroke-linecap:butt;stroke-linejoin:miter;stroke:rgb(0%,0%,0%);stroke-opacity:1;stroke-miterlimit:4;" d="M 64.953125 40.503906 L 64.5 41.136719 "/>
<path style=" stroke:none;fill-rule:evenodd;fill:rgb(0%,0%,0%);fill-opacity:1;" d="M 65.179688 42.046875 L 64.527344 41.695312 Z M 65.179688 42.046875 "/>
<path style="fill:none;stroke-width:0.25;stroke-linecap:butt;stroke-linejoin:miter;stroke:rgb(0%,0%,0%);stroke-opacity:1;stroke-miterlimit:4;" d="M 65.179688 42.046875 L 64.527344 41.695312 "/>
<path style=" stroke:none;fill-rule:evenodd;fill:rgb(0%,0%,0%);fill-opacity:1;" d="M 65.382812 41.359375 L 64.632812 41.425781 Z M 65.382812 41.359375 "/>
<path style="fill:none;stroke-width:0.25;stroke-linecap:butt;stroke-linejoin:miter;stroke:rgb(0%,0%,0%);stroke-opacity:1;stroke-miterlimit:4;" d="M 65.382812 41.359375 L 64.632812 41.425781 "/>
<path style=" stroke:none;fill-rule:evenodd;fill:rgb(0%,0%,0%);fill-opacity:1;" d="M 64.417969 42.441406 L 64.363281 41.78125 Z M 64.417969 42.441406 "/>
<path style="fill:none;stroke-width:0.25;stroke-linecap:butt;stroke-linejoin:miter;stroke:rgb(0%,0%,0%);stroke-opacity:1;stroke-miterlimit:4;" d="M 64.417969 42.441406 L 64.363281 41.78125 "/>
<path style=" stroke:none;fill-rule:evenodd;fill:rgb(0%,0%,0%);fill-opacity:1;" d="M 64.140625 41.6875 L 63.523438 42.144531 Z M 64.140625 41.6875 "/>
<path style="fill:none;stroke-width:0.25;stroke-linecap:butt;stroke-linejoin:miter;stroke:rgb(0%,0%,0%);stroke-opacity:1;stroke-miterlimit:4;" d="M 64.140625 41.6875 L 63.523438 42.144531 "/>
<path style="fill:none;stroke-width:0.25;stroke-linecap:butt;stroke-linejoin:miter;stroke:rgb(0%,0%,0%);stroke-opacity:1;stroke-miterlimit:4;" d="M 61.167969 38.234375 L 61.167969 39.011719 "/>
<path style="fill:none;stroke-width:0.25;stroke-linecap:butt;stroke-linejoin:miter;stroke:rgb(0%,0%,0%);stroke-opacity:1;stroke-miterlimit:4;" d="M 62.742188 39.0625 L 62.742188 39.945312 "/>
<path style="fill:none;stroke-width:0.25;stroke-linecap:butt;stroke-linejoin:miter;stroke:rgb(0%,0%,0%);stroke-opacity:1;stroke-miterlimit:4;" d="M 61.953125 38.648438 L 61.953125 39.476562 "/>
<path style=" stroke:none;fill-rule:evenodd;fill:rgb(97.253418%,84.70459%,5.490112%);fill-opacity:1;" d="M 63.835938 41.070312 C 63.257812 41.160156 62.8125 41.6875 62.8125 42.304688 L 62.8125 45.0625 C 62.8125 45.742188 63.351562 46.304688 64.015625 46.304688 C 64.03125 46.304688 64.046875 46.304688 64.0625 46.304688 C 64.078125 46.304688 64.09375 46.304688 64.109375 46.304688 C 64.582031 46.304688 64.992188 46.019531 65.1875 45.609375 L 64.757812 45.351562 C 64.652344 45.617188 64.398438 45.796875 64.109375 45.796875 C 64.097656 45.796875 64.085938 45.796875 64.078125 45.796875 C 64.074219 45.796875 64.066406 45.796875 64.0625 45.796875 C 64.058594 45.796875 64.050781 45.796875 64.046875 45.796875 C 64.039062 45.796875 64.027344 45.796875 64.015625 45.796875 C 63.628906 45.796875 63.3125 45.476562 63.3125 45.0625 L 63.3125 42.304688 C 63.3125 41.890625 63.628906 41.578125 64.015625 41.578125 C 64.027344 41.578125 64.039062 41.578125 64.046875 41.578125 C 64.050781 41.578125 64.058594 41.578125 64.0625 41.578125 C 64.066406 41.578125 64.074219 41.578125 64.078125 41.578125 C 64.085938 41.578125 64.097656 41.578125 64.109375 41.578125 C 64.21875 41.578125 64.320312 41.605469 64.414062 41.648438 C 64.414062 41.648438 64.421875 41.648438 64.421875 41.648438 C 64.441406 41.644531 64.464844 41.636719 64.476562 41.632812 C 64.484375 41.628906 64.496094 41.621094 64.5 41.617188 C 64.5 41.617188 64.507812 41.609375 64.507812 41.609375 C 64.507812 41.609375 64.515625 41.609375 64.515625 41.609375 C 64.515625 41.609375 64.523438 41.601562 64.523438 41.601562 C 64.523438 41.601562 64.53125 41.59375 64.53125 41.59375 C 64.535156 41.585938 64.542969 41.578125 64.546875 41.570312 C 64.546875 41.570312 64.546875 41.5625 64.546875 41.5625 L 64.554688 41.554688 C 64.554688 41.550781 64.5625 41.542969 64.5625 41.539062 C 64.578125 41.5 64.585938 41.4375 64.59375 41.382812 C 64.589844 41.375 64.582031 41.363281 64.578125 41.351562 C 64.578125 41.351562 64.578125 41.34375 64.578125 41.34375 C 64.574219 41.335938 64.5625 41.320312 64.554688 41.3125 C 64.503906 41.25 64.417969 41.171875 64.3125 41.078125 C 64.3125 41.078125 64.304688 41.078125 64.304688 41.078125 C 64.296875 41.078125 64.28125 41.070312 64.273438 41.070312 C 64.273438 41.070312 64.265625 41.070312 64.265625 41.070312 C 64.261719 41.070312 64.253906 41.070312 64.25 41.070312 C 64.25 41.070312 64.242188 41.070312 64.242188 41.070312 C 64.238281 41.070312 64.230469 41.070312 64.226562 41.070312 C 64.21875 41.070312 64.203125 41.070312 64.195312 41.070312 C 64.164062 41.066406 64.140625 41.070312 64.109375 41.070312 C 64.089844 41.070312 64.078125 41.070312 64.0625 41.070312 C 64.046875 41.070312 64.035156 41.070312 64.015625 41.070312 C 63.984375 41.070312 63.960938 41.066406 63.929688 41.070312 C 63.921875 41.070312 63.90625 41.070312 63.898438 41.070312 C 63.894531 41.070312 63.886719 41.070312 63.882812 41.070312 C 63.878906 41.070312 63.875 41.070312 63.875 41.070312 C 63.871094 41.070312 63.863281 41.070312 63.859375 41.070312 C 63.859375 41.070312 63.851562 41.070312 63.851562 41.070312 C 63.847656 41.070312 63.839844 41.070312 63.835938 41.070312 Z M 65.28125 42.046875 C 65.269531 42.066406 65.257812 42.089844 65.242188 42.109375 C 65.136719 42.242188 64.988281 42.355469 64.8125 42.429688 L 64.8125 44.320312 L 65.3125 44.609375 L 65.3125 42.304688 C 65.3125 42.21875 65.304688 42.128906 65.289062 42.046875 C 65.289062 42.046875 65.28125 42.046875 65.28125 42.046875 Z M 65.28125 42.046875 "/>
<path style="fill:none;stroke-width:0.256;stroke-linecap:butt;stroke-linejoin:miter;stroke:rgb(0%,0%,0%);stroke-opacity:1;stroke-miterlimit:4;" d="M 63.835938 41.070312 C 63.257812 41.160156 62.8125 41.6875 62.8125 42.304688 L 62.8125 45.0625 C 62.8125 45.742188 63.351562 46.304688 64.015625 46.304688 C 64.03125 46.304688 64.046875 46.304688 64.0625 46.304688 C 64.078125 46.304688 64.09375 46.304688 64.109375 46.304688 C 64.582031 46.304688 64.992188 46.019531 65.1875 45.609375 L 64.757812 45.351562 C 64.652344 45.617188 64.398438 45.796875 64.109375 45.796875 C 64.097656 45.796875 64.085938 45.796875 64.078125 45.796875 C 64.074219 45.796875 64.066406 45.796875 64.0625 45.796875 C 64.058594 45.796875 64.050781 45.796875 64.046875 45.796875 C 64.039062 45.796875 64.027344 45.796875 64.015625 45.796875 C 63.628906 45.796875 63.3125 45.476562 63.3125 45.0625 L 63.3125 42.304688 C 63.3125 41.890625 63.628906 41.578125 64.015625 41.578125 C 64.027344 41.578125 64.039062 41.578125 64.046875 41.578125 C 64.050781 41.578125 64.058594 41.578125 64.0625 41.578125 C 64.066406 41.578125 64.074219 41.578125 64.078125 41.578125 C 64.085938 41.578125 64.097656 41.578125 64.109375 41.578125 C 64.21875 41.578125 64.320312 41.605469 64.414062 41.648438 C 64.414062 41.648438 64.421875 41.648438 64.421875 41.648438 C 64.441406 41.644531 64.464844 41.636719 64.476562 41.632812 C 64.484375 41.628906 64.496094 41.621094 64.5 41.617188 C 64.5 41.617188 64.507812 41.609375 64.507812 41.609375 C 64.507812 41.609375 64.515625 41.609375 64.515625 41.609375 C 64.515625 41.609375 64.523438 41.601562 64.523438 41.601562 C 64.523438 41.601562 64.53125 41.59375 64.53125 41.59375 C 64.535156 41.585938 64.542969 41.578125 64.546875 41.570312 C 64.546875 41.570312 64.546875 41.5625 64.546875 41.5625 L 64.554688 41.554688 C 64.554688 41.550781 64.5625 41.542969 64.5625 41.539062 C 64.578125 41.5 64.585938 41.4375 64.59375 41.382812 C 64.589844 41.375 64.582031 41.363281 64.578125 41.351562 C 64.578125 41.351562 64.578125 41.34375 64.578125 41.34375 C 64.574219 41.335938 64.5625 41.320312 64.554688 41.3125 C 64.503906 41.25 64.417969 41.171875 64.3125 41.078125 C 64.3125 41.078125 64.304688 41.078125 64.304688 41.078125 C 64.296875 41.078125 64.28125 41.070312 64.273438 41.070312 C 64.273438 41.070312 64.265625 41.070312 64.265625 41.070312 C 64.261719 41.070312 64.253906 41.070312 64.25 41.070312 C 64.25 41.070312 64.242188 41.070312 64.242188 41.070312 C 64.238281 41.070312 64.230469 41.070312 64.226562 41.070312 C 64.21875 41.070312 64.203125 41.070312 64.195312 41.070312 C 64.164062 41.066406 64.140625 41.070312 64.109375 41.070312 C 64.089844 41.070312 64.078125 41.070312 64.0625 41.070312 C 64.046875 41.070312 64.035156 41.070312 64.015625 41.070312 C 63.984375 41.070312 63.960938 41.066406 63.929688 41.070312 C 63.921875 41.070312 63.90625 41.070312 63.898438 41.070312 C 63.894531 41.070312 63.886719 41.070312 63.882812 41.070312 C 63.878906 41.070312 63.875 41.070312 63.875 41.070312 C 63.871094 41.070312 63.863281 41.070312 63.859375 41.070312 C 63.859375 41.070312 63.851562 41.070312 63.851562 41.070312 C 63.847656 41.070312 63.839844 41.070312 63.835938 41.070312 Z M 63.835938 41.070312 "/>
<path style="fill:none;stroke-width:0.256;stroke-linecap:butt;stroke-linejoin:miter;stroke:rgb(0%,0%,0%);stroke-opacity:1;stroke-miterlimit:4;" d="M 65.28125 42.046875 C 65.269531 42.066406 65.257812 42.089844 65.242188 42.109375 C 65.136719 42.242188 64.988281 42.355469 64.8125 42.429688 L 64.8125 44.320312 L 65.3125 44.609375 L 65.3125 42.304688 C 65.3125 42.21875 65.304688 42.128906 65.289062 42.046875 C 65.289062 42.046875 65.28125 42.046875 65.28125 42.046875 Z M 65.28125 42.046875 "/>
<path style="fill-rule:evenodd;fill:rgb(85.488892%,0%,4.705811%);fill-opacity:1;stroke-width:0.25;stroke-linecap:round;stroke-linejoin:miter;stroke:rgb(0%,0%,0%);stroke-opacity:1;stroke-miterlimit:4;" d="M 74.632812 32.148438 C 73.226562 32.148438 72.078125 33.320312 72.078125 34.765625 L 72.078125 38.460938 L 70.242188 38.460938 L 70.242188 24.460938 L 80.3125 24.460938 L 80.3125 38.460938 L 77.1875 38.460938 L 77.1875 34.765625 C 77.1875 33.378906 76.058594 32.148438 74.632812 32.148438 Z M 74.632812 32.148438 "/>
<path style="fill-rule:evenodd;fill:rgb(85.488892%,0%,4.705811%);fill-opacity:1;stroke-width:0.25;stroke-linecap:butt;stroke-linejoin:miter;stroke:rgb(0%,0%,0%);stroke-opacity:1;stroke-miterlimit:4;" d="M 55.6875 24.460938 L 55.6875 25.609375 L 72.3125 25.609375 L 72.3125 24.460938 Z M 55.6875 24.460938 "/>
<path style=" stroke:none;fill-rule:evenodd;fill:rgb(0%,0%,0%);fill-opacity:1;" d="M 72.238281 14.992188 L 76.867188 14.992188 L 76.867188 23.480469 L 72.238281 23.480469 Z M 72.238281 14.992188 "/>
<path style=" stroke:none;fill-rule:evenodd;fill:rgb(85.488892%,0%,4.705811%);fill-opacity:1;" d="M 72.25 22.164062 L 76.300781 22.164062 L 76.300781 20.726562 L 79.273438 20.726562 L 79.273438 22.164062 L 81.289062 22.164062 L 81.289062 20.726562 L 82.492188 20.726562 L 82.492188 23.335938 L 72.25 23.335938 Z M 81.289062 23.328125 L 72.546875 23.328125 L 72.546875 24.460938 L 81.289062 24.460938 Z M 81.289062 23.328125 "/>
<path style="fill:none;stroke-width:0.25;stroke-linecap:butt;stroke-linejoin:miter;stroke:rgb(0%,0%,0%);stroke-opacity:1;stroke-miterlimit:4;" d="M 72.25 22.164062 L 76.300781 22.164062 L 76.300781 20.726562 L 79.273438 20.726562 L 79.273438 22.164062 L 81.289062 22.164062 L 81.289062 20.726562 L 82.492188 20.726562 L 82.492188 23.335938 L 72.25 23.335938 "/>
<path style="fill:none;stroke-width:0.25;stroke-linecap:butt;stroke-linejoin:miter;stroke:rgb(0%,0%,0%);stroke-opacity:1;stroke-miterlimit:4;" d="M 81.289062 23.328125 L 72.546875 23.328125 L 72.546875 24.460938 L 81.289062 24.460938 Z M 81.289062 23.328125 "/>
<path style="fill-rule:evenodd;fill:rgb(85.488892%,0%,4.705811%);fill-opacity:1;stroke-width:0.25;stroke-linecap:butt;stroke-linejoin:miter;stroke:rgb(0%,0%,0%);stroke-opacity:1;stroke-miterlimit:4;" d="M 77.820312 11.90625 L 77.820312 20.726562 L 76.300781 20.726562 L 76.300781 18.304688 C 76.300781 17.398438 75.660156 16.65625 74.765625 16.609375 C 74.738281 16.609375 74.707031 16.609375 74.679688 16.609375 C 73.742188 16.609375 72.984375 17.367188 72.984375 18.304688 L 72.984375 20.726562 L 71.539062 20.726562 L 71.539062 11.90625 Z M 77.820312 11.90625 "/>
<path style="fill-rule:evenodd;fill:rgb(85.488892%,0%,4.705811%);fill-opacity:1;stroke-width:0.25;stroke-linecap:butt;stroke-linejoin:miter;stroke:rgb(0%,0%,0%);stroke-opacity:1;stroke-miterlimit:4;" d="M 55.007812 20.726562 L 55.007812 24.460938 L 72.992188 24.460938 L 72.992188 20.726562 L 71.289062 20.726562 L 71.289062 22.164062 L 69.023438 22.164062 L 69.023438 20.726562 L 65.984375 20.726562 L 65.984375 22.164062 L 62.015625 22.164062 L 62.015625 20.726562 L 58.976562 20.726562 L 58.976562 22.164062 L 56.710938 22.164062 L 56.710938 20.726562 Z M 55.007812 20.726562 "/>
<path style="fill-rule:evenodd;fill:rgb(85.488892%,0%,4.705811%);fill-opacity:1;stroke-width:0.25;stroke-linecap:round;stroke-linejoin:miter;stroke:rgb(0%,0%,0%);stroke-opacity:1;stroke-miterlimit:4;" d="M 78.367188 10.710938 L 78.367188 11.90625 L 71.054688 11.90625 L 71.054688 10.710938 Z M 78.367188 10.710938 "/>
<path style="fill-rule:evenodd;fill:rgb(85.488892%,0%,4.705811%);fill-opacity:1;stroke-width:0.25;stroke-linecap:round;stroke-linejoin:miter;stroke:rgb(0%,0%,0%);stroke-opacity:1;stroke-miterlimit:4;" d="M 79.304688 8.421875 L 79.304688 10.710938 L 70.53125 10.710938 L 70.53125 8.421875 L 71.882812 8.421875 L 71.882812 9.585938 L 73.515625 9.585938 L 73.515625 8.421875 L 76.007812 8.421875 L 76.007812 9.585938 L 77.640625 9.585938 L 77.640625 8.421875 Z M 79.304688 8.421875 "/>
<path style="fill-rule:evenodd;fill:rgb(97.253418%,84.70459%,5.490112%);fill-opacity:1;stroke-width:0.25;stroke-linecap:butt;stroke-linejoin:miter;stroke:rgb(0%,0%,0%);stroke-opacity:1;stroke-miterlimit:4;" d="M 63.261719 49.671875 L 64.511719 49.671875 L 64.511719 62.183594 L 63.261719 62.183594 Z M 63.261719 49.671875 "/>
<path style="fill-rule:evenodd;fill:rgb(85.488892%,0%,4.705811%);fill-opacity:1;stroke-width:0.25;stroke-linecap:butt;stroke-linejoin:miter;stroke:rgb(0%,0%,0%);stroke-opacity:1;stroke-miterlimit:4;" d="M 57.171875 25.609375 L 57.171875 39.195312 L 60.382812 39.195312 L 60.382812 34.109375 C 60.382812 31.714844 61.980469 30.585938 64 30.585938 C 65.941406 30.585938 67.617188 31.714844 67.617188 34.109375 L 67.617188 39.195312 L 70.828125 39.195312 L 70.828125 25.609375 Z M 57.171875 25.609375 "/>
</g>
</svg>
