<?xml version="1.0" encoding="UTF-8"?>
<svg xmlns="http://www.w3.org/2000/svg" xmlns:xlink="http://www.w3.org/1999/xlink" width="128pt" height="69pt" viewBox="0 0 128 69" version="1.1">
<defs>
<clipPath id="clip1">
  <path d="M 0 0 L 128 0 L 128 68.878906 L 0 68.878906 Z M 0 0 "/>
</clipPath>
</defs>
<g id="surface457">
<g clip-path="url(#clip1)" clip-rule="nonzero">
<path style=" stroke:none;fill-rule:evenodd;fill:rgb(77.645874%,12.940979%,22.3526%);fill-opacity:1;" d="M 0 68.683594 L 0 0 L 128 0 L 128 68.683594 Z M 0 68.683594 "/>
</g>
<path style=" stroke:none;fill-rule:evenodd;fill:rgb(0%,16.078186%,48.234558%);fill-opacity:1;" d="M 3.121094 3.121094 L 124.878906 3.121094 L 124.878906 65.5625 L 3.121094 65.5625 Z M 3.121094 3.121094 "/>
<path style=" stroke:none;fill-rule:evenodd;fill:rgb(77.645874%,12.940979%,22.3526%);fill-opacity:1;" d="M 64.039062 15.609375 C 64.039062 15.609375 51.511719 24.148438 51.511719 34.21875 C 51.511719 44.292969 64.039062 53.074219 64.039062 53.074219 C 64.039062 53.074219 76.488281 45.015625 76.488281 34.21875 C 76.488281 23.425781 64.039062 15.609375 64.039062 15.609375 Z M 64.039062 15.609375 "/>
<path style=" stroke:none;fill-rule:evenodd;fill:rgb(39.99939%,68.626404%,92.155457%);fill-opacity:1;" d="M 74.601562 37.550781 C 74.878906 36.480469 75.035156 35.367188 75.035156 34.21875 C 75.035156 24.550781 64.039062 17.382812 64.039062 17.382812 C 64.039062 17.382812 52.886719 24.796875 52.886719 34.21875 C 52.886719 35.351562 53.042969 36.453125 53.324219 37.523438 Z M 74.601562 37.550781 "/>
<path style=" stroke:none;fill-rule:evenodd;fill:rgb(0%,48.234558%,87.057495%);fill-opacity:1;" d="M 63.949219 51.21875 C 63.949219 51.21875 72.570312 45.511719 74.597656 37.523438 L 53.316406 37.523438 C 55.375 45.355469 63.949219 51.21875 63.949219 51.21875 Z M 63.949219 51.21875 "/>
<path style=" stroke:none;fill-rule:evenodd;fill:rgb(61.175537%,51.763916%,19.215393%);fill-opacity:1;" d="M 74.980469 35.347656 C 73.09375 36.691406 62.476562 36.046875 62.476562 36.046875 L 61.886719 37.550781 L 74.601562 37.550781 C 74.65625 37.34375 74.703125 37.140625 74.746094 36.929688 Z M 74.980469 35.347656 "/>
<path style=" stroke:none;fill-rule:evenodd;fill:rgb(99.998474%,94.508362%,0%);fill-opacity:1;" d="M 63.386719 44.855469 C 63.226562 43.730469 58.261719 42.523438 55.625 42.625 C 56.449219 43.914062 57.382812 45.09375 58.320312 46.144531 C 59.65625 44.707031 63.441406 45.226562 63.386719 44.855469 Z M 63.386719 44.855469 "/>
<path style=" stroke:none;fill-rule:evenodd;fill:rgb(99.998474%,94.508362%,0%);fill-opacity:1;" d="M 73.4375 40.671875 C 72.804688 40.695312 71.660156 40.792969 70.875 41.203125 C 69.746094 41.792969 67.210938 42.4375 66.082031 42.117188 C 64.949219 41.792969 63.171875 42.8125 63.386719 43.027344 C 63.746094 43.386719 66.351562 42.976562 66.351562 45.285156 C 66.351562 47.21875 63.332031 46.359375 62.148438 47.164062 C 61.433594 47.648438 60.933594 48.175781 60.652344 48.515625 C 62.503906 50.226562 63.953125 51.21875 63.953125 51.21875 C 63.953125 51.21875 67.390625 48.941406 70.433594 45.257812 L 71.863281 43.355469 C 72.441406 42.511719 72.976562 41.613281 73.4375 40.671875 Z M 73.4375 40.671875 "/>
<path style=" stroke:none;fill-rule:evenodd;fill:rgb(0%,0%,0%);fill-opacity:1;" d="M 60.042969 35.230469 L 60.496094 35.230469 L 60.496094 40.144531 L 60.042969 40.144531 Z M 60.042969 35.230469 "/>
<path style=" stroke:none;fill-rule:evenodd;fill:rgb(48.234558%,28.234863%,0%);fill-opacity:1;" d="M 61.523438 41.070312 C 61.523438 41.070312 61.335938 41.101562 61.039062 41.140625 L 61.039062 40.757812 L 60.734375 40.757812 L 60.734375 41.171875 C 60.425781 41.203125 60.050781 41.230469 59.65625 41.230469 C 59.234375 41.230469 58.8125 41.199219 58.464844 41.164062 L 58.464844 40.765625 L 58.128906 40.765625 L 58.128906 41.125 C 57.84375 41.089844 57.65625 41.058594 57.65625 41.058594 C 57.65625 41.058594 57.566406 41.5625 59.625 41.5625 C 61.6875 41.5625 61.523438 41.070312 61.523438 41.070312 Z M 61.523438 41.070312 "/>
<path style=" stroke:none;fill-rule:evenodd;fill:rgb(0%,57.254028%,43.920898%);fill-opacity:1;" d="M 63.355469 25.78125 C 63.355469 25.78125 61.636719 24.773438 59.292969 25.257812 C 56.949219 25.742188 56.441406 27.210938 56.441406 27.210938 L 57.230469 26.847656 L 57.25 27.171875 L 57.957031 26.726562 L 57.976562 27.050781 L 58.585938 26.488281 L 58.683594 26.847656 L 59.230469 26.363281 L 59.269531 26.628906 L 60.160156 26.0625 L 60.160156 26.425781 L 60.867188 26.101562 L 60.804688 26.445312 L 62.140625 26.203125 C 62.140625 26.203125 58.988281 27.25 58.585938 29.769531 L 59.191406 29.046875 L 59.25 29.386719 L 59.632812 28.621094 L 59.734375 28.921875 L 60.078125 28.21875 L 60.179688 28.640625 L 60.703125 27.875 L 60.746094 28.320312 L 61.351562 27.492188 L 61.351562 27.894531 L 61.996094 27.191406 L 61.976562 27.714844 C 61.976562 27.714844 62.605469 27.191406 62.804688 27.191406 L 62.058594 28.15625 L 62.300781 28.238281 C 62.300781 28.238281 61.773438 28.660156 61.734375 28.742188 C 61.695312 28.820312 62.078125 28.742188 62.078125 28.742188 C 62.078125 28.742188 61.613281 29.222656 61.59375 29.367188 C 61.574219 29.507812 61.894531 29.367188 61.894531 29.367188 C 61.894531 29.367188 61.472656 29.910156 61.410156 30.113281 C 61.351562 30.3125 61.632812 30.152344 61.632812 30.152344 C 61.632812 30.152344 61.371094 30.796875 61.351562 30.976562 C 61.332031 31.15625 61.652344 30.9375 61.652344 30.9375 L 61.835938 32.042969 L 62.160156 30.714844 L 62.363281 31.019531 L 62.363281 30.070312 L 62.542969 30.230469 L 62.523438 29.609375 L 62.765625 29.851562 L 62.644531 29.085938 L 62.90625 29.386719 L 62.867188 28.742188 L 63.128906 29.003906 L 63.128906 28.15625 L 63.371094 28.378906 L 63.410156 27.796875 L 63.695312 27.9375 C 63.695312 27.9375 63.734375 27.230469 64.058594 27.25 C 64.382812 27.269531 64.785156 27.613281 64.625 27.773438 L 64.90625 27.695312 L 64.847656 28.378906 L 65.109375 28.21875 L 65.070312 28.722656 L 65.289062 28.621094 L 65.210938 29.265625 L 65.472656 29.105469 L 65.492188 29.886719 L 65.792969 29.667969 L 65.773438 30.59375 L 66.078125 30.351562 L 66.078125 31.117188 L 66.359375 30.917969 L 66.664062 31.664062 L 66.601562 30.554688 L 66.824219 30.734375 L 66.421875 29.949219 L 66.722656 29.910156 L 66.398438 29.386719 L 66.703125 29.40625 L 66.261719 28.882812 L 66.5625 28.824219 L 65.894531 28.339844 L 66.257812 28.199219 L 65.570312 27.753906 L 65.835938 27.652344 L 65.351562 27.152344 L 65.855469 27.351562 L 66.015625 27.03125 L 66.621094 27.515625 L 66.621094 27.03125 L 67.148438 27.753906 L 67.207031 27.3125 L 67.613281 27.875 L 67.691406 27.613281 L 67.976562 28.175781 L 68.117188 27.757812 L 68.398438 28.359375 L 68.480469 27.9375 L 68.742188 28.601562 L 68.984375 28.339844 L 69.109375 29.023438 L 69.347656 28.761719 L 69.570312 29.367188 L 69.851562 29.144531 L 70.097656 29.828125 C 70.097656 29.828125 70.761719 26.164062 65.042969 26.101562 L 63.347656 25.78125 Z M 63.355469 25.78125 "/>
<path style=" stroke:none;fill-rule:evenodd;fill:rgb(0%,57.254028%,43.920898%);fill-opacity:1;" d="M 60.726562 22.519531 L 61.050781 22.921875 L 60.886719 23.042969 L 61.433594 23.34375 L 61.3125 23.566406 L 61.859375 23.765625 L 61.65625 23.929688 L 62.140625 24.207031 L 61.816406 24.3125 L 62.402344 24.59375 L 62.324219 24.851562 L 62.828125 24.976562 L 62.605469 25.15625 L 63.191406 25.621094 L 63.859375 26.082031 L 64.324219 25.921875 L 64.140625 25.035156 C 64.140625 25.035156 62.222656 22.417969 60.726562 22.515625 Z M 60.726562 22.519531 "/>
<path style=" stroke:none;fill-rule:evenodd;fill:rgb(0%,57.254028%,43.920898%);fill-opacity:1;" d="M 62.484375 19.980469 L 62.707031 20.503906 L 62.402344 20.5625 L 63.089844 21.25 L 62.546875 21.269531 L 63.210938 21.792969 L 62.886719 21.894531 L 63.496094 22.5 L 63.171875 22.660156 L 63.796875 23.28125 L 63.375 23.445312 L 64.082031 24.089844 L 63.675781 24.109375 L 64.101562 24.652344 L 63.71875 24.773438 C 63.71875 24.773438 64.179688 25.636719 64.160156 26.003906 L 64.949219 26.042969 C 64.949219 26.042969 65.070312 23.703125 64.96875 23.402344 L 64.765625 23.542969 L 64.828125 22.699219 L 64.523438 22.878906 L 64.464844 21.875 L 64.160156 22.195312 L 64.082031 21.207031 L 63.859375 21.550781 L 63.636719 20.582031 L 63.394531 20.886719 L 63.171875 20.261719 L 62.988281 20.503906 Z M 62.484375 19.980469 "/>
<path style=" stroke:none;fill-rule:evenodd;fill:rgb(0%,57.254028%,43.920898%);fill-opacity:1;" d="M 64.523438 25.863281 C 64.746094 24.453125 66.222656 22.398438 68.992188 22.316406 L 68.363281 22.640625 L 68.730469 22.800781 L 68 23.0625 L 68.363281 23.28125 L 67.496094 23.34375 L 67.941406 23.644531 L 67.292969 23.726562 L 66.789062 23.828125 L 67.152344 24.167969 L 66.421875 24.25 L 66.890625 24.492188 C 66.890625 24.492188 65.738281 24.894531 65.65625 25.015625 C 65.65625 25.015625 69.539062 24.027344 70.488281 25.859375 L 69.738281 25.539062 L 69.800781 25.882812 L 69.273438 25.5 L 69.355469 25.78125 L 68.808594 25.5 L 68.890625 25.839844 L 68.324219 25.515625 L 68.445312 25.820312 L 67.71875 25.480469 L 67.839844 25.800781 L 67.210938 25.597656 L 67.273438 25.941406 L 66.648438 25.902344 L 66.707031 26.304688 L 64.769531 26.261719 L 64.523438 25.859375 Z M 64.523438 25.863281 "/>
<path style=" stroke:none;fill-rule:evenodd;fill:rgb(48.234558%,28.234863%,0%);fill-opacity:1;" d="M 63.933594 27.078125 L 64.335938 27.050781 C 64.148438 30.890625 64.324219 36.398438 64.847656 38.4375 C 65.734375 41.898438 68.328125 43.234375 68.941406 43.566406 C 69.292969 43.753906 69.160156 44.53125 68.457031 44.480469 C 67.757812 44.425781 65.3125 42.625 64.46875 39.402344 C 63.339844 35.078125 63.890625 27.527344 63.933594 27.078125 Z M 63.933594 27.078125 "/>
<path style=" stroke:none;fill-rule:evenodd;fill:rgb(77.645874%,12.940979%,22.3526%);fill-opacity:1;" d="M 58.53125 32.960938 L 58.050781 32.960938 C 58.015625 32.753906 57.925781 32.609375 57.78125 32.53125 C 57.703125 32.484375 57.613281 32.460938 57.515625 32.460938 C 57.328125 32.460938 57.171875 32.550781 57.050781 32.738281 C 56.929688 32.917969 56.871094 33.195312 56.871094 33.5625 C 56.871094 33.933594 56.9375 34.195312 57.066406 34.351562 C 57.199219 34.503906 57.347656 34.582031 57.511719 34.582031 C 57.675781 34.582031 57.808594 34.519531 57.914062 34.398438 C 58.019531 34.277344 58.082031 34.117188 58.109375 33.917969 L 57.566406 33.917969 L 57.566406 33.417969 L 58.539062 33.417969 L 58.539062 35.03125 L 58.21875 35.03125 L 58.167969 34.65625 C 58.074219 34.800781 57.988281 34.898438 57.914062 34.960938 C 57.785156 35.0625 57.628906 35.113281 57.441406 35.113281 C 57.132812 35.113281 56.878906 34.972656 56.679688 34.695312 C 56.476562 34.417969 56.371094 34.039062 56.371094 33.558594 C 56.371094 33.070312 56.476562 32.679688 56.683594 32.382812 C 56.890625 32.089844 57.167969 31.945312 57.507812 31.945312 C 57.804688 31.945312 58.042969 32.042969 58.222656 32.234375 C 58.402344 32.429688 58.507812 32.671875 58.53125 32.960938 Z M 58.53125 32.960938 "/>
<path style=" stroke:none;fill-rule:evenodd;fill:rgb(77.645874%,12.940979%,22.3526%);fill-opacity:1;" d="M 60.8125 33.871094 L 60.8125 32.019531 L 61.308594 32.019531 L 61.308594 33.871094 C 61.308594 34.078125 61.328125 34.230469 61.367188 34.324219 C 61.425781 34.492188 61.554688 34.578125 61.753906 34.578125 C 61.949219 34.578125 62.078125 34.492188 62.136719 34.324219 C 62.175781 34.230469 62.191406 34.078125 62.191406 33.871094 L 62.191406 32.019531 L 62.6875 32.019531 L 62.6875 33.871094 C 62.6875 34.191406 62.648438 34.441406 62.574219 34.621094 C 62.429688 34.945312 62.15625 35.109375 61.75 35.109375 C 61.347656 35.109375 61.074219 34.949219 60.929688 34.621094 C 60.851562 34.441406 60.8125 34.191406 60.8125 33.871094 Z M 60.8125 33.871094 "/>
<path style=" stroke:none;fill-rule:evenodd;fill:rgb(77.645874%,12.940979%,22.3526%);fill-opacity:1;" d="M 66.046875 32.019531 L 65.214844 35.035156 L 65.726562 35.035156 L 65.886719 34.414062 L 66.746094 34.414062 L 66.898438 35.035156 L 67.425781 35.035156 L 66.59375 32.019531 Z M 66.316406 32.707031 L 66.609375 33.890625 L 66.019531 33.890625 Z M 66.316406 32.707031 "/>
<path style=" stroke:none;fill-rule:evenodd;fill:rgb(77.645874%,12.940979%,22.3526%);fill-opacity:1;" d="M 70.503906 34.386719 L 70.921875 32.019531 L 71.625 32.019531 L 71.625 35.03125 L 71.171875 35.03125 L 71.171875 32.996094 C 71.171875 32.9375 71.171875 32.855469 71.171875 32.75 C 71.171875 32.644531 71.175781 32.5625 71.175781 32.503906 L 70.730469 35.03125 L 70.257812 35.03125 L 69.820312 32.503906 C 69.820312 32.5625 69.820312 32.644531 69.824219 32.75 C 69.824219 32.855469 69.824219 32.9375 69.824219 32.996094 L 69.824219 35.03125 L 69.371094 35.03125 L 69.371094 32.019531 L 70.078125 32.019531 Z M 70.503906 34.386719 "/>
<path style=" stroke:none;fill-rule:evenodd;fill:rgb(48.234558%,28.234863%,0%);fill-opacity:1;" d="M 59.566406 40.128906 C 61.238281 40.128906 62.640625 39.859375 62.640625 39.859375 C 62.640625 39.859375 62.855469 40.933594 59.566406 40.933594 C 56.28125 40.933594 56.550781 40.023438 56.550781 40.023438 C 56.550781 40.023438 57.898438 40.128906 59.566406 40.128906 Z M 59.566406 40.128906 "/>
<path style=" stroke:none;fill-rule:evenodd;fill:rgb(99.998474%,99.998474%,99.998474%);fill-opacity:1;" d="M 58.167969 35.507812 C 58.167969 35.507812 60.753906 36.476562 61.777344 39.859375 C 61.777344 39.859375 59.40625 39.378906 58.058594 39.914062 L 57.304688 39.914062 C 57.304688 39.914062 58.597656 38.035156 58.167969 35.507812 Z M 58.167969 35.507812 "/>
<path style=" stroke:none;fill-rule:evenodd;fill:rgb(48.234558%,28.234863%,0%);fill-opacity:1;" d="M 64.585938 25.789062 C 64.839844 25.789062 65.042969 25.992188 65.042969 26.246094 C 65.042969 26.496094 64.839844 26.699219 64.585938 26.699219 C 64.332031 26.699219 64.128906 26.496094 64.128906 26.246094 C 64.128906 25.992188 64.332031 25.789062 64.585938 25.789062 Z M 64.585938 25.789062 "/>
<path style=" stroke:none;fill-rule:evenodd;fill:rgb(48.234558%,28.234863%,0%);fill-opacity:1;" d="M 63.859375 25.65625 C 64.09375 25.65625 64.285156 25.847656 64.285156 26.082031 C 64.285156 26.320312 64.09375 26.511719 63.859375 26.511719 C 63.621094 26.511719 63.429688 26.320312 63.429688 26.082031 C 63.429688 25.847656 63.621094 25.65625 63.859375 25.65625 Z M 63.859375 25.65625 "/>
<path style=" stroke:none;fill-rule:evenodd;fill:rgb(48.234558%,28.234863%,0%);fill-opacity:1;" d="M 63.859375 26.429688 C 64.078125 26.429688 64.257812 26.605469 64.257812 26.828125 C 64.257812 27.046875 64.078125 27.226562 63.859375 27.226562 C 63.636719 27.226562 63.457031 27.046875 63.457031 26.828125 C 63.457031 26.605469 63.636719 26.429688 63.859375 26.429688 Z M 63.859375 26.429688 "/>
<path style=" stroke:none;fill-rule:evenodd;fill:rgb(48.234558%,28.234863%,0%);fill-opacity:1;" d="M 64.402344 26.199219 C 64.640625 26.199219 64.832031 26.390625 64.832031 26.628906 C 64.832031 26.863281 64.640625 27.054688 64.402344 27.054688 C 64.167969 27.054688 63.976562 26.863281 63.976562 26.628906 C 63.976562 26.390625 64.167969 26.199219 64.402344 26.199219 Z M 64.402344 26.199219 "/>
</g>
</svg>
