<svg viewBox="0 0 1000 537" xmlns="http://www.w3.org/2000/svg" xmlns:xlink="http://www.w3.org/1999/xlink"><clipPath id="a"><path d="m0 0h1000v536.640625h-1000zm0 0"/></clipPath><g clip-path="url(#a)"><path d="m0 536.585938v-536.585938h1000v536.585938zm0 0" fill="#c62139" fill-rule="evenodd"/></g><g fill-rule="evenodd"><path d="m24.390625 24.390625h951.21875v487.804687h-951.21875zm0 0" fill="#00297b"/><path d="m500.316406 121.953125s-97.878906 66.71875-97.878906 145.394531c0 78.675782 97.878906 147.285156 97.878906 147.285156s97.246094-62.945312 97.246094-147.285156c0-84.335937-97.246094-145.394531-97.246094-145.394531zm0 0" fill="#c62139"/><path d="m582.835938 293.367188c2.144531-8.371094 3.363281-17.058594 3.363281-26.019532 0-75.53125-85.882813-131.546875-85.882813-131.546875s-87.140625 57.910157-87.140625 131.546875c0 8.839844 1.238281 17.457032 3.429688 25.800782zm0 0" fill="#66afeb"/><path d="m499.601562 400.152344s67.359376-44.605469 83.203126-107.003906h-166.265626c16.085938 61.195312 83.0625 107.003906 83.0625 107.003906zm0 0" fill="#007bde"/><path d="m585.777344 276.160156c-14.734375 10.496094-97.667969 5.457032-97.667969 5.457032l-4.632813 11.75h99.347657c.414062-1.613282.792969-3.222657 1.136719-4.851563zm0 0" fill="#9c8431"/><path d="m495.210938 350.429688c-1.261719-8.789063-40.050782-18.203126-60.628907-17.429688 6.425781 10.082031 13.707031 19.304688 21.03125 27.511719 10.457031-11.222657 40.015625-7.175781 39.597657-10.082031zm0 0" fill="#fff100"/><path d="m573.722656 317.746094c-4.929687.171875-13.871094.957031-20 4.148437-8.835937 4.617188-28.625 9.660157-37.464844 7.136719-8.839843-2.519531-22.738281 5.453125-21.046874 7.128906 2.804687 2.800782 23.148437-.417968 23.148437 17.628906 0 15.101563-23.5625 8.398438-32.828125 14.691407-5.585938 3.78125-9.480469 7.886719-11.695312 10.535156 14.46875 13.382813 25.796874 21.136719 25.796874 21.136719s26.851563-17.785156 50.632813-46.582032l11.179687-14.847656c4.515626-6.597656 8.6875-13.605468 12.277344-20.976562zm0 0" fill="#fff100"/><path d="m469.070312 275.222656h3.570313v38.390625h-3.570313zm0 0"/><path d="m480.660156 320.855469s-1.464844.253906-3.789062.554687v-2.996094h-2.371094v3.25c-2.421875.246094-5.363281.445313-8.441406.445313-3.273438 0-6.578125-.238281-9.300782-.515625v-3.101562h-2.613281v2.808593c-2.253906-.285156-3.710937-.53125-3.710937-.53125s-.707032 3.9375 15.394531 3.9375 14.835937-3.851562 14.835937-3.851562zm0 0" fill="#7b4800"/><path d="m494.953125 201.421875s-13.425781-7.867187-31.734375-4.097656c-18.3125 3.777343-22.265625 15.257812-22.265625 15.257812l6.15625-2.824219.15625 2.511719 5.53125-3.457031.15625 2.519531 4.738281-4.402343.773438 2.828124 4.265625-3.78125.320312 2.050782 6.941407-4.410156v2.835937l5.527343-2.523437-.46875 2.679687 10.421875-1.882813s-24.632812 8.175782-27.78125 27.84375l4.730469-5.652343.472656 2.664062 2.996094-5.972656.792969 2.355469 2.679687-5.507813.785157 3.300781 4.101562-5.980468.324219 3.472656 4.726562-6.453125v3.132813l5.054688-5.503907-.152344 4.101563s4.894531-4.101563 6.460937-4.101563l-5.835937 7.558594 1.898437.628906s-4.109374 3.304688-4.421874 3.929688 2.6875 0 2.6875 0-3.636719 3.769531-3.789063 4.878906c-.164063 1.105469 2.363281 0 2.363281 0s-3.316406 4.246094-3.789062 5.828125c-.476563 1.570312 1.734375.308594 1.734375.308594s-2.042969 5.039062-2.210938 6.449218c-.15625 1.40625 2.371094-.320312 2.371094-.320312l1.421875 8.660156 2.523438-10.375 1.582031 2.359375v-7.402343l1.414062 1.257812-.152343-4.867188 1.886718 1.882813-.941406-5.980469 2.050781 2.347656-.316406-5.027343 2.046875 2.054687v-6.613281l1.898438 1.71875.308593-4.550781 2.21875 1.097656s.316407-5.503906 2.84375-5.347656c2.519531.144531 5.675781 2.828125 4.414063 4.078125l2.214844-.613281-.476563 5.335937 2.050781-1.257813-.3125 3.9375 1.734375-.785156-.632812 5.027344 2.054687-1.242188.148438 6.117188 2.363281-1.714844-.160156 7.222656 2.371093-1.875v5.972657l2.214844-1.5625 2.371094 5.820312-.476562-8.660156 1.738281 1.414063-3.164063-6.128907 2.371094-.320312-2.53125-4.097657 2.371094.171876-3.464844-4.097657 2.359375-.464843-5.210937-3.78125 2.84375-1.09375-5.371094-3.464844 2.054687-.792969-3.78125-3.929687 3.941407 1.570312 1.257812-2.519531 4.734375 3.789062v-3.789062l4.101563 5.671875.476562-3.472656 3.164062 4.410156.625-2.035156 2.214844 4.394531 1.09375-3.285157 2.210938 4.714844.628906-3.316406 2.054688 5.199219 1.894531-2.050781.953125 5.355468 1.882812-2.050781 1.730469 4.71875 2.210937-1.726563 1.898438 5.351563s5.203125-28.640625-39.464844-29.117187l-13.257812-2.507813zm0 0" fill="#009270"/><path d="m474.429688 175.921875 2.519531 3.140625-1.261719.953125 4.265625 2.363281-.949219 1.722656 4.261719 1.578126-1.582031 1.261718 3.792968 2.191406-2.523437.796876 4.570313 2.195312-.625 2.039062 3.941406.953126-1.730469 1.410156 4.570313 3.632812 5.210937 3.609375 3.632813-1.25-1.421876-6.9375s-14.992187-20.457031-26.671874-19.671875zm0 0" fill="#009270"/><path d="m488.160156 156.101562 1.742188 4.078126-2.378906.476562 5.371093 5.351562-4.261719.15625 5.210938 4.085938-2.53125.796875 4.746094 4.722656-2.539063 1.25 4.898438 4.875-3.3125 1.257813 5.53125 5.039062-3.160157.164063 3.308594 4.234375-2.992187.953125s3.625 6.757812 3.464843 9.601562l6.15625.300781s.945313-18.25.160157-20.609374l-1.582031 1.101562.46875-6.609375-2.363282 1.425781-.464844-7.867187-2.375 2.511719-.621093-7.710938-1.746094 2.679688-1.738281-7.554688-1.886719 2.355469-1.746094-4.871094-1.414062 1.882813-3.945313-4.089844zm0 0" fill="#009270"/><path d="m504.101562 202.046875c1.738282-11.015625 13.269532-27.0625 34.894532-27.695313l-4.898438 2.519532 2.84375 1.257812-5.683594 2.050782 2.839844 1.714843-6.785156.484375 3.464844 2.359375-5.042969.628907-3.953125.785156 2.839844 2.667968-5.683594.625 3.636719 1.894532s-8.996094 3.144531-9.628907 4.097656c0 0 30.316407-7.710938 37.734376 6.597656l-5.847657-2.519531.476563 2.679687-4.101563-2.988281.625 2.203125-4.257812-2.203125.628906 2.667969-4.421875-2.519531.945312 2.375-5.679687-2.679688.945313 2.515625-4.894532-1.574218.484375 2.667968-4.902343-.304687.476562 3.144531-15.160156-.320312-1.894532-3.144532zm0 0" fill="#009270"/><path d="m499.46875 211.539062 3.164062-.207031c-1.476562 30.003907-.089843 73.03125 3.996094 88.960938 6.933594 27.050781 27.175782 37.476562 31.988282 40.066406 2.730468 1.460937 1.683593 7.550781-3.792969 7.136719-5.46875-.421875-24.558594-14.480469-31.152344-39.660156-8.828125-33.78125-4.539063-92.785157-4.203125-96.296876zm0 0" fill="#7b4800"/><path d="m457.28125 257.515625h-3.746094c-.292968-1.613281-.992187-2.746094-2.113281-3.371094-.628906-.359375-1.320313-.53125-2.082031-.53125-1.480469 0-2.675782.703125-3.617188 2.144531-.953125 1.421876-1.421875 3.585938-1.421875 6.449219 0 2.898438.511719 4.941407 1.535157 6.164063 1.019531 1.191406 2.179687 1.792968 3.484374 1.792968 1.28125 0 2.320313-.472656 3.144532-1.429687.808594-.941406 1.308594-2.199219 1.507812-3.753906h-4.222656v-3.917969h7.589844v12.625h-2.519532l-.386718-2.941406c-.730469 1.125-1.386719 1.910156-1.96875 2.375-1.007813.796875-2.246094 1.199218-3.710938 1.199218-2.410156 0-4.394531-1.085937-5.929687-3.253906-1.601563-2.160156-2.414063-5.132812-2.414063-8.894531 0-3.8125.816406-6.871094 2.445313-9.171875 1.609375-2.296875 3.753906-3.441406 6.429687-3.441406 2.316406 0 4.171875.761718 5.578125 2.273437 1.402344 1.515625 2.214844 3.410157 2.417969 5.683594zm0 0" fill="#c62139"/><path d="m475.109375 264.632812v-14.472656h3.863281v14.472656c0 1.609376.15625 2.785157.449219 3.535157.464844 1.316406 1.464844 1.984375 3.015625 1.984375 1.539062 0 2.539062-.667969 3.003906-1.984375.300782-.75.433594-1.925781.433594-3.535157v-14.472656h3.875v14.472656c0 2.492188-.300781 4.433594-.894531 5.839844-1.128907 2.542969-3.265625 3.816406-6.421875 3.816406s-5.300782-1.261718-6.425782-3.816406c-.601562-1.394531-.898437-3.347656-.898437-5.839844zm0 0" fill="#c62139"/><path d="m516.007812 250.15625-6.515624 23.550781h4l1.257812-4.84375h6.703125l1.1875 4.84375h4.113281l-6.476562-23.550781zm2.09375 5.371094 2.289063 9.257812h-4.609375zm0 0" fill="#c62139"/><path d="m550.796875 268.65625 3.289063-18.496094h5.472656v23.527344h-3.542969v-15.90625c0-.460938.003906-1.105469.011719-1.925781.007812-.828125.019531-1.464844.019531-1.90625l-3.457031 19.738281h-3.695313l-3.425781-19.738281c0 .441406.011719 1.078125.019531 1.90625.003907.820312.011719 1.464843.011719 1.925781v15.90625h-3.542969v-23.527344h5.53125zm0 0" fill="#c62139"/><path d="m465.375 313.5c13.050781 0 23.996094-2.089844 23.996094-2.089844s1.679687 8.382813-23.996094 8.382813c-25.683594 0-23.578125-7.121094-23.578125-7.121094s10.53125.828125 23.578125.828125zm0 0" fill="#7b4800"/><path d="m454.421875 277.414062s20.203125 7.558594 28.207031 33.996094c0 0-18.519531-3.769531-29.046875.421875h-5.894531c0-.011719 10.105469-14.6875 6.734375-34.417969zm0 0" fill="#fff"/><path d="m504.578125 201.476562c1.972656 0 3.574219 1.59375 3.574219 3.558594 0 1.972656-1.601563 3.5625-3.574219 3.5625-1.976563 0-3.570313-1.589844-3.570313-3.5625 0-1.964844 1.59375-3.558594 3.570313-3.558594zm0 0" fill="#7b4800"/><path d="m498.890625 200.4375c1.851563 0 3.347656 1.492188 3.347656 3.332031 0 1.84375-1.496093 3.34375-3.347656 3.34375-1.84375 0-3.339844-1.5-3.339844-3.34375 0-1.839843 1.496094-3.332031 3.339844-3.332031zm0 0" fill="#7b4800"/><path d="m498.890625 206.488281c1.726563 0 3.128906 1.382813 3.128906 3.109375 0 1.722656-1.402343 3.121094-3.128906 3.121094-1.71875 0-3.117187-1.398438-3.117187-3.121094 0-1.726562 1.398437-3.109375 3.117187-3.109375zm0 0" fill="#7b4800"/><path d="m503.15625 204.691406c1.851562 0 3.351562 1.488282 3.351562 3.335938 0 1.84375-1.5 3.328125-3.351562 3.328125s-3.347656-1.484375-3.347656-3.328125c0-1.847656 1.496094-3.335938 3.347656-3.335938zm0 0" fill="#7b4800"/></g></svg>