<?xml version="1.0" encoding="UTF-8"?>
<svg xmlns="http://www.w3.org/2000/svg" xmlns:xlink="http://www.w3.org/1999/xlink" width="128pt" height="64pt" viewBox="0 0 128 64" version="1.1">
<g id="surface492">
<rect x="0" y="0" width="128" height="64" style="fill:rgb(0%,45.097351%,81.175232%);fill-opacity:1;stroke:none;"/>
<path style=" stroke:none;fill-rule:evenodd;fill:rgb(99.998474%,99.998474%,99.998474%);fill-opacity:1;" d="M 0 21.332031 L 128 21.332031 L 128 42.667969 L 0 42.667969 Z M 0 21.332031 "/>
<path style=" stroke:none;fill-rule:evenodd;fill:rgb(0%,45.097351%,81.175232%);fill-opacity:1;" d="M 64 28.445312 L 62.902344 31.828125 L 64.59375 32.375 Z M 64 28.445312 "/>
<path style=" stroke:none;fill-rule:evenodd;fill:rgb(0%,45.097351%,81.175232%);fill-opacity:1;" d="M 64 28.445312 L 65.097656 31.828125 L 63.40625 32.375 Z M 64 28.445312 "/>
<path style=" stroke:none;fill-rule:evenodd;fill:rgb(0%,45.097351%,81.175232%);fill-opacity:1;" d="M 67.382812 30.902344 L 63.828125 30.902344 L 63.828125 32.679688 Z M 67.382812 30.902344 "/>
<path style=" stroke:none;fill-rule:evenodd;fill:rgb(0%,45.097351%,81.175232%);fill-opacity:1;" d="M 67.382812 30.902344 L 64.503906 32.992188 L 63.460938 31.554688 Z M 67.382812 30.902344 "/>
<path style=" stroke:none;fill-rule:evenodd;fill:rgb(0%,45.097351%,81.175232%);fill-opacity:1;" d="M 60.617188 30.902344 L 63.496094 32.992188 L 64.539062 31.554688 Z M 60.617188 30.902344 "/>
<path style=" stroke:none;fill-rule:evenodd;fill:rgb(0%,45.097351%,81.175232%);fill-opacity:1;" d="M 60.617188 30.902344 L 64.171875 30.902344 L 64.171875 32.679688 Z M 60.617188 30.902344 "/>
<path style=" stroke:none;fill-rule:evenodd;fill:rgb(0%,45.097351%,81.175232%);fill-opacity:1;" d="M 66.089844 34.875 L 64.992188 31.496094 L 63.300781 32.042969 Z M 66.089844 34.875 "/>
<path style=" stroke:none;fill-rule:evenodd;fill:rgb(0%,45.097351%,81.175232%);fill-opacity:1;" d="M 66.089844 34.875 L 63.214844 32.785156 L 64.257812 31.347656 Z M 66.089844 34.875 "/>
<path style=" stroke:none;fill-rule:evenodd;fill:rgb(0%,45.097351%,81.175232%);fill-opacity:1;" d="M 61.910156 34.875 L 64.785156 32.785156 L 63.742188 31.347656 Z M 61.910156 34.875 "/>
<path style=" stroke:none;fill-rule:evenodd;fill:rgb(0%,45.097351%,81.175232%);fill-opacity:1;" d="M 61.910156 34.875 L 63.007812 31.496094 L 64.699219 32.042969 Z M 61.910156 34.875 "/>
<path style=" stroke:none;fill-rule:evenodd;fill:rgb(0%,45.097351%,81.175232%);fill-opacity:1;" d="M 81.777344 22.753906 L 80.679688 26.136719 L 82.371094 26.6875 Z M 81.777344 22.753906 "/>
<path style=" stroke:none;fill-rule:evenodd;fill:rgb(0%,45.097351%,81.175232%);fill-opacity:1;" d="M 81.777344 22.753906 L 82.875 26.136719 L 81.1875 26.6875 Z M 81.777344 22.753906 "/>
<path style=" stroke:none;fill-rule:evenodd;fill:rgb(0%,45.097351%,81.175232%);fill-opacity:1;" d="M 85.160156 25.210938 L 81.605469 25.210938 L 81.605469 26.988281 Z M 85.160156 25.210938 "/>
<path style=" stroke:none;fill-rule:evenodd;fill:rgb(0%,45.097351%,81.175232%);fill-opacity:1;" d="M 85.160156 25.210938 L 82.28125 27.300781 L 81.238281 25.863281 Z M 85.160156 25.210938 "/>
<path style=" stroke:none;fill-rule:evenodd;fill:rgb(0%,45.097351%,81.175232%);fill-opacity:1;" d="M 78.394531 25.210938 L 81.273438 27.300781 L 82.316406 25.863281 Z M 78.394531 25.210938 "/>
<path style=" stroke:none;fill-rule:evenodd;fill:rgb(0%,45.097351%,81.175232%);fill-opacity:1;" d="M 78.394531 25.210938 L 81.953125 25.210938 L 81.953125 26.988281 Z M 78.394531 25.210938 "/>
<path style=" stroke:none;fill-rule:evenodd;fill:rgb(0%,45.097351%,81.175232%);fill-opacity:1;" d="M 83.867188 29.1875 L 82.769531 25.804688 L 81.078125 26.355469 Z M 83.867188 29.1875 "/>
<path style=" stroke:none;fill-rule:evenodd;fill:rgb(0%,45.097351%,81.175232%);fill-opacity:1;" d="M 83.867188 29.1875 L 80.992188 27.097656 L 82.035156 25.660156 Z M 83.867188 29.1875 "/>
<path style=" stroke:none;fill-rule:evenodd;fill:rgb(0%,45.097351%,81.175232%);fill-opacity:1;" d="M 79.6875 29.1875 L 82.5625 27.097656 L 81.519531 25.660156 Z M 79.6875 29.1875 "/>
<path style=" stroke:none;fill-rule:evenodd;fill:rgb(0%,45.097351%,81.175232%);fill-opacity:1;" d="M 79.6875 29.1875 L 80.785156 25.804688 L 82.476562 26.355469 Z M 79.6875 29.1875 "/>
<path style=" stroke:none;fill-rule:evenodd;fill:rgb(0%,45.097351%,81.175232%);fill-opacity:1;" d="M 81.777344 33.421875 L 80.679688 36.804688 L 82.371094 37.351562 Z M 81.777344 33.421875 "/>
<path style=" stroke:none;fill-rule:evenodd;fill:rgb(0%,45.097351%,81.175232%);fill-opacity:1;" d="M 81.777344 33.421875 L 82.875 36.804688 L 81.1875 37.351562 Z M 81.777344 33.421875 "/>
<path style=" stroke:none;fill-rule:evenodd;fill:rgb(0%,45.097351%,81.175232%);fill-opacity:1;" d="M 85.160156 35.878906 L 81.605469 35.878906 L 81.605469 37.65625 Z M 85.160156 35.878906 "/>
<path style=" stroke:none;fill-rule:evenodd;fill:rgb(0%,45.097351%,81.175232%);fill-opacity:1;" d="M 85.160156 35.878906 L 82.28125 37.96875 L 81.238281 36.53125 Z M 85.160156 35.878906 "/>
<path style=" stroke:none;fill-rule:evenodd;fill:rgb(0%,45.097351%,81.175232%);fill-opacity:1;" d="M 78.394531 35.878906 L 81.273438 37.96875 L 82.316406 36.53125 Z M 78.394531 35.878906 "/>
<path style=" stroke:none;fill-rule:evenodd;fill:rgb(0%,45.097351%,81.175232%);fill-opacity:1;" d="M 78.394531 35.878906 L 81.953125 35.878906 L 81.953125 37.65625 Z M 78.394531 35.878906 "/>
<path style=" stroke:none;fill-rule:evenodd;fill:rgb(0%,45.097351%,81.175232%);fill-opacity:1;" d="M 83.867188 39.855469 L 82.769531 36.472656 L 81.078125 37.023438 Z M 83.867188 39.855469 "/>
<path style=" stroke:none;fill-rule:evenodd;fill:rgb(0%,45.097351%,81.175232%);fill-opacity:1;" d="M 83.867188 39.855469 L 80.992188 37.765625 L 82.035156 36.328125 Z M 83.867188 39.855469 "/>
<path style=" stroke:none;fill-rule:evenodd;fill:rgb(0%,45.097351%,81.175232%);fill-opacity:1;" d="M 79.6875 39.855469 L 82.5625 37.765625 L 81.519531 36.328125 Z M 79.6875 39.855469 "/>
<path style=" stroke:none;fill-rule:evenodd;fill:rgb(0%,45.097351%,81.175232%);fill-opacity:1;" d="M 79.6875 39.855469 L 80.785156 36.472656 L 82.476562 37.023438 Z M 79.6875 39.855469 "/>
<path style=" stroke:none;fill-rule:evenodd;fill:rgb(0%,45.097351%,81.175232%);fill-opacity:1;" d="M 46.222656 22.753906 L 45.125 26.136719 L 46.8125 26.6875 Z M 46.222656 22.753906 "/>
<path style=" stroke:none;fill-rule:evenodd;fill:rgb(0%,45.097351%,81.175232%);fill-opacity:1;" d="M 46.222656 22.753906 L 47.320312 26.136719 L 45.628906 26.6875 Z M 46.222656 22.753906 "/>
<path style=" stroke:none;fill-rule:evenodd;fill:rgb(0%,45.097351%,81.175232%);fill-opacity:1;" d="M 49.605469 25.210938 L 46.046875 25.210938 L 46.046875 26.988281 Z M 49.605469 25.210938 "/>
<path style=" stroke:none;fill-rule:evenodd;fill:rgb(0%,45.097351%,81.175232%);fill-opacity:1;" d="M 49.605469 25.210938 L 46.726562 27.300781 L 45.683594 25.863281 Z M 49.605469 25.210938 "/>
<path style=" stroke:none;fill-rule:evenodd;fill:rgb(0%,45.097351%,81.175232%);fill-opacity:1;" d="M 42.839844 25.210938 L 45.71875 27.300781 L 46.761719 25.863281 Z M 42.839844 25.210938 "/>
<path style=" stroke:none;fill-rule:evenodd;fill:rgb(0%,45.097351%,81.175232%);fill-opacity:1;" d="M 42.839844 25.210938 L 46.394531 25.210938 L 46.394531 26.988281 Z M 42.839844 25.210938 "/>
<path style=" stroke:none;fill-rule:evenodd;fill:rgb(0%,45.097351%,81.175232%);fill-opacity:1;" d="M 48.3125 29.1875 L 47.214844 25.804688 L 45.523438 26.355469 Z M 48.3125 29.1875 "/>
<path style=" stroke:none;fill-rule:evenodd;fill:rgb(0%,45.097351%,81.175232%);fill-opacity:1;" d="M 48.3125 29.1875 L 45.4375 27.097656 L 46.480469 25.660156 Z M 48.3125 29.1875 "/>
<path style=" stroke:none;fill-rule:evenodd;fill:rgb(0%,45.097351%,81.175232%);fill-opacity:1;" d="M 44.132812 29.1875 L 47.007812 27.097656 L 45.964844 25.660156 Z M 44.132812 29.1875 "/>
<path style=" stroke:none;fill-rule:evenodd;fill:rgb(0%,45.097351%,81.175232%);fill-opacity:1;" d="M 44.132812 29.1875 L 45.230469 25.804688 L 46.921875 26.355469 Z M 44.132812 29.1875 "/>
<path style=" stroke:none;fill-rule:evenodd;fill:rgb(0%,45.097351%,81.175232%);fill-opacity:1;" d="M 46.222656 33.421875 L 45.125 36.804688 L 46.8125 37.351562 Z M 46.222656 33.421875 "/>
<path style=" stroke:none;fill-rule:evenodd;fill:rgb(0%,45.097351%,81.175232%);fill-opacity:1;" d="M 46.222656 33.421875 L 47.320312 36.804688 L 45.628906 37.351562 Z M 46.222656 33.421875 "/>
<path style=" stroke:none;fill-rule:evenodd;fill:rgb(0%,45.097351%,81.175232%);fill-opacity:1;" d="M 49.605469 35.878906 L 46.046875 35.878906 L 46.046875 37.65625 Z M 49.605469 35.878906 "/>
<path style=" stroke:none;fill-rule:evenodd;fill:rgb(0%,45.097351%,81.175232%);fill-opacity:1;" d="M 49.605469 35.878906 L 46.726562 37.96875 L 45.683594 36.53125 Z M 49.605469 35.878906 "/>
<path style=" stroke:none;fill-rule:evenodd;fill:rgb(0%,45.097351%,81.175232%);fill-opacity:1;" d="M 42.839844 35.878906 L 45.71875 37.96875 L 46.761719 36.53125 Z M 42.839844 35.878906 "/>
<path style=" stroke:none;fill-rule:evenodd;fill:rgb(0%,45.097351%,81.175232%);fill-opacity:1;" d="M 42.839844 35.878906 L 46.394531 35.878906 L 46.394531 37.65625 Z M 42.839844 35.878906 "/>
<path style=" stroke:none;fill-rule:evenodd;fill:rgb(0%,45.097351%,81.175232%);fill-opacity:1;" d="M 48.3125 39.855469 L 47.214844 36.472656 L 45.523438 37.023438 Z M 48.3125 39.855469 "/>
<path style=" stroke:none;fill-rule:evenodd;fill:rgb(0%,45.097351%,81.175232%);fill-opacity:1;" d="M 48.3125 39.855469 L 45.4375 37.765625 L 46.480469 36.328125 Z M 48.3125 39.855469 "/>
<path style=" stroke:none;fill-rule:evenodd;fill:rgb(0%,45.097351%,81.175232%);fill-opacity:1;" d="M 44.132812 39.855469 L 47.007812 37.765625 L 45.964844 36.328125 Z M 44.132812 39.855469 "/>
<path style=" stroke:none;fill-rule:evenodd;fill:rgb(0%,45.097351%,81.175232%);fill-opacity:1;" d="M 44.132812 39.855469 L 45.230469 36.472656 L 46.921875 37.023438 Z M 44.132812 39.855469 "/>
</g>
</svg>
