<?xml version="1.0" encoding="UTF-8"?>
<svg xmlns="http://www.w3.org/2000/svg" xmlns:xlink="http://www.w3.org/1999/xlink" width="128pt" height="85pt" viewBox="0 0 128 85" version="1.1">
<defs>
<clipPath id="clip1">
  <path d="M 0 0 L 127.679688 0 L 127.679688 85 L 0 85 Z M 0 0 "/>
</clipPath>
</defs>
<g id="surface497">
<g clip-path="url(#clip1)" clip-rule="nonzero">
<path style=" stroke:none;fill-rule:evenodd;fill:rgb(87.057495%,16.078186%,6.274414%);fill-opacity:1;" d="M 0 85 L 0 0 L 127.5 0 L 127.5 85 Z M 0 85 "/>
</g>
<path style=" stroke:none;fill-rule:evenodd;fill:rgb(99.998474%,99.998474%,99.998474%);fill-opacity:1;" d="M 63.746094 42.488281 C 48.832031 36.183594 55.441406 16.761719 69.703125 17.738281 C 66.820312 19.222656 66.402344 21.988281 68.050781 24.550781 C 69.894531 27.421875 67.878906 32.039062 65.386719 33.160156 C 61.285156 35.007812 60.464844 39.925781 63.746094 42.488281 Z M 63.746094 42.488281 "/>
<path style=" stroke:none;fill-rule:evenodd;fill:rgb(87.057495%,16.078186%,6.274414%);fill-opacity:1;" d="M 62.9375 28.464844 L 62.101562 29.78125 L 61.796875 28.25 L 60.28125 27.855469 L 61.648438 27.09375 L 61.550781 25.535156 L 62.695312 26.597656 L 64.148438 26.023438 L 63.496094 27.441406 L 64.488281 28.648438 Z M 62.9375 28.464844 "/>
<path style=" stroke:none;fill-rule:evenodd;fill:rgb(87.057495%,16.078186%,6.274414%);fill-opacity:1;" d="M 63.828125 42.324219 C 62.027344 41.398438 60.570312 39.46875 59.9375 37.164062 C 59.214844 34.519531 59.628906 31.675781 61.082031 29.367188 L 60.769531 29.167969 C 59.261719 31.566406 58.832031 34.515625 59.582031 37.261719 C 60.25 39.699219 61.738281 41.664062 63.660156 42.652344 Z M 63.828125 42.324219 "/>
<path style=" stroke:none;fill-rule:evenodd;fill:rgb(99.998474%,99.998474%,99.998474%);fill-opacity:1;" d="M 63.761719 42.492188 C 65.144531 26.359375 85.660156 26.648438 89.136719 40.511719 C 86.835938 38.226562 84.074219 38.683594 82.148438 41.042969 C 79.988281 43.683594 74.976562 43.195312 73.136719 41.167969 C 70.117188 37.839844 65.183594 38.582031 63.761719 42.492188 Z M 63.761719 42.492188 "/>
<path style=" stroke:none;fill-rule:evenodd;fill:rgb(87.057495%,16.078186%,6.274414%);fill-opacity:1;" d="M 76.847656 37.390625 L 75.335938 37 L 76.699219 36.238281 L 76.605469 34.679688 L 77.753906 35.738281 L 79.203125 35.167969 L 78.550781 36.585938 L 79.542969 37.789062 L 77.992188 37.605469 L 77.152344 38.921875 Z M 76.847656 37.390625 "/>
<path style=" stroke:none;fill-rule:evenodd;fill:rgb(87.057495%,16.078186%,6.274414%);fill-opacity:1;" d="M 63.941406 42.519531 C 64.265625 40.519531 65.648438 38.539062 67.648438 37.226562 C 69.9375 35.71875 72.773438 35.238281 75.417969 35.90625 L 75.507812 35.546875 C 72.761719 34.855469 69.824219 35.355469 67.445312 36.917969 C 65.332031 38.308594 63.921875 40.328125 63.578125 42.460938 Z M 63.941406 42.519531 "/>
<path style=" stroke:none;fill-rule:evenodd;fill:rgb(99.998474%,99.998474%,99.998474%);fill-opacity:1;" d="M 63.761719 42.507812 C 79.53125 38.839844 85.597656 58.4375 73.484375 66.03125 C 74.949219 63.136719 73.660156 60.652344 70.820312 59.546875 C 67.640625 58.308594 66.558594 53.390625 67.917969 51.015625 C 70.148438 47.113281 67.921875 42.652344 63.761719 42.507812 Z M 63.761719 42.507812 "/>
<path style=" stroke:none;fill-rule:evenodd;fill:rgb(87.057495%,16.078186%,6.274414%);fill-opacity:1;" d="M 72.65625 53.378906 L 72.5625 51.820312 L 73.707031 52.882812 L 75.160156 52.308594 L 74.507812 53.726562 L 75.5 54.933594 L 73.949219 54.746094 L 73.109375 56.066406 L 72.804688 54.535156 L 71.292969 54.140625 Z M 72.65625 53.378906 "/>
<path style=" stroke:none;fill-rule:evenodd;fill:rgb(87.057495%,16.078186%,6.274414%);fill-opacity:1;" d="M 63.789062 42.6875 C 65.792969 42.378906 68.101562 43.082031 69.972656 44.578125 C 72.113281 46.289062 73.445312 48.835938 73.628906 51.558594 L 73.996094 51.535156 C 73.804688 48.707031 72.421875 46.066406 70.203125 44.289062 C 68.226562 42.707031 65.867188 41.992188 63.734375 42.324219 Z M 63.789062 42.6875 "/>
<path style=" stroke:none;fill-rule:evenodd;fill:rgb(99.998474%,99.998474%,99.998474%);fill-opacity:1;" d="M 63.746094 42.511719 C 72.105469 56.375 55.34375 68.203125 44.378906 59.03125 C 47.585938 59.527344 49.550781 57.535156 49.722656 54.492188 C 49.917969 51.085938 54.261719 48.535156 56.9375 49.09375 C 61.339844 50.011719 64.894531 46.511719 63.746094 42.511719 Z M 63.746094 42.511719 "/>
<path style=" stroke:none;fill-rule:evenodd;fill:rgb(87.057495%,16.078186%,6.274414%);fill-opacity:1;" d="M 56.15625 54.332031 L 57.609375 53.761719 L 56.953125 55.179688 L 57.949219 56.382812 L 56.394531 56.199219 L 55.558594 57.515625 L 55.253906 55.984375 L 53.742188 55.59375 L 55.105469 54.832031 L 55.007812 53.273438 Z M 56.15625 54.332031 "/>
<path style=" stroke:none;fill-rule:evenodd;fill:rgb(87.057495%,16.078186%,6.274414%);fill-opacity:1;" d="M 63.582031 42.59375 C 64.496094 44.40625 64.539062 46.820312 63.695312 49.058594 C 62.726562 51.625 60.71875 53.679688 58.1875 54.691406 L 58.324219 55.035156 C 60.953125 53.984375 63.035156 51.851562 64.042969 49.1875 C 64.933594 46.820312 64.886719 44.355469 63.914062 42.429688 Z M 63.582031 42.59375 "/>
<path style=" stroke:none;fill-rule:evenodd;fill:rgb(99.998474%,99.998474%,99.998474%);fill-opacity:1;" d="M 63.738281 42.5 C 53.132812 54.734375 36.707031 42.449219 42.042969 29.183594 C 42.558594 32.386719 45.0625 33.640625 48.007812 32.867188 C 51.308594 31.996094 55.078125 35.339844 55.375 38.058594 C 55.863281 42.527344 60.289062 44.828125 63.738281 42.5 Z M 63.738281 42.5 "/>
<path style=" stroke:none;fill-rule:evenodd;fill:rgb(87.057495%,16.078186%,6.274414%);fill-opacity:1;" d="M 50.148438 38.933594 L 51.144531 40.136719 L 49.589844 39.953125 L 48.753906 41.273438 L 48.449219 39.738281 L 46.9375 39.347656 L 48.300781 38.585938 L 48.203125 37.027344 L 49.351562 38.085938 L 50.804688 37.515625 Z M 50.148438 38.933594 "/>
<path style=" stroke:none;fill-rule:evenodd;fill:rgb(87.057495%,16.078186%,6.274414%);fill-opacity:1;" d="M 63.609375 42.371094 C 62.167969 43.800781 59.886719 44.585938 57.496094 44.476562 C 54.757812 44.347656 52.179688 43.074219 50.433594 40.976562 L 50.152344 41.214844 C 51.964844 43.390625 54.636719 44.710938 57.480469 44.84375 C 60.007812 44.960938 62.335938 44.15625 63.867188 42.632812 Z M 63.609375 42.371094 "/>
</g>
</svg>
