<?xml version="1.0" encoding="UTF-8"?>
<svg xmlns="http://www.w3.org/2000/svg" xmlns:xlink="http://www.w3.org/1999/xlink" width="118pt" height="85pt" viewBox="0 0 118 85" version="1.1">
<g id="surface507">
<rect x="0" y="0" width="118" height="85" style="fill:rgb(0%,21.960449%,59.214783%);fill-opacity:1;stroke:none;"/>
<path style=" stroke:none;fill-rule:evenodd;fill:rgb(99.998474%,99.998474%,99.998474%);fill-opacity:1;" d="M 33.054688 0 L 51.945312 0 L 51.945312 85 L 33.054688 85 Z M 0 33.054688 L 118.054688 33.054688 L 118.054688 51.945312 L 0 51.945312 Z M 0 33.054688 "/>
<path style="fill-rule:nonzero;fill:rgb(99.998474%,99.998474%,99.998474%);fill-opacity:1;stroke-width:1;stroke-linecap:square;stroke-linejoin:miter;stroke:rgb(99.998474%,99.998474%,99.998474%);stroke-opacity:1;stroke-miterlimit:3.239307;" d="M 33.054688 0 L 51.945312 0 L 51.945312 85 L 33.054688 85 Z M 33.054688 0 "/>
<path style="fill-rule:nonzero;fill:rgb(99.998474%,99.998474%,99.998474%);fill-opacity:1;stroke-width:1;stroke-linecap:square;stroke-linejoin:miter;stroke:rgb(99.998474%,99.998474%,99.998474%);stroke-opacity:1;stroke-miterlimit:3.239307;" d="M 0 33.054688 L 118.054688 33.054688 L 118.054688 51.945312 L 0 51.945312 Z M 0 33.054688 "/>
<path style="fill-rule:nonzero;fill:rgb(84.312439%,15.686035%,15.686035%);fill-opacity:1;stroke-width:1;stroke-linecap:square;stroke-linejoin:miter;stroke:rgb(84.312439%,15.686035%,15.686035%);stroke-opacity:1;stroke-miterlimit:3.239307;" d="M 37.777344 0 L 47.222656 0 L 47.222656 85 L 37.777344 85 Z M 37.777344 0 "/>
<path style="fill-rule:nonzero;fill:rgb(84.312439%,15.686035%,15.686035%);fill-opacity:1;stroke-width:1;stroke-linecap:square;stroke-linejoin:miter;stroke:rgb(84.312439%,15.686035%,15.686035%);stroke-opacity:1;stroke-miterlimit:3.239307;" d="M 0 37.777344 L 118.054688 37.777344 L 118.054688 47.222656 L 0 47.222656 Z M 0 37.777344 "/>
</g>
</svg>
