<?xml version="1.0" encoding="UTF-8"?>
<svg xmlns="http://www.w3.org/2000/svg" xmlns:xlink="http://www.w3.org/1999/xlink" width="128pt" height="85pt" viewBox="0 0 128 85" version="1.1">
<defs>
<clipPath id="clip1">
  <path d="M 0 0 L 127.679688 0 L 127.679688 85 L 0 85 Z M 0 0 "/>
</clipPath>
<clipPath id="clip2">
  <path d="M 0 28 L 127.679688 28 L 127.679688 57 L 0 57 Z M 0 28 "/>
</clipPath>
<clipPath id="clip3">
  <path d="M 0 56 L 127.679688 56 L 127.679688 85 L 0 85 Z M 0 56 "/>
</clipPath>
</defs>
<g id="surface512">
<g clip-path="url(#clip1)" clip-rule="nonzero">
<path style=" stroke:none;fill-rule:evenodd;fill:rgb(99.998474%,59.999084%,19.999695%);fill-opacity:1;" d="M 0 85 L 0 0 L 127.5 0 L 127.5 85 Z M 0 85 "/>
</g>
<g clip-path="url(#clip2)" clip-rule="nonzero">
<path style=" stroke:none;fill-rule:evenodd;fill:rgb(99.998474%,99.998474%,99.998474%);fill-opacity:1;" d="M 0 28.332031 L 127.5 28.332031 L 127.5 56.667969 L 0 56.667969 Z M 0 28.332031 "/>
</g>
<g clip-path="url(#clip3)" clip-rule="nonzero">
<path style=" stroke:none;fill-rule:evenodd;fill:rgb(7.058716%,53.33252%,2.745056%);fill-opacity:1;" d="M 0 56.667969 L 127.5 56.667969 L 127.5 85 L 0 85 Z M 0 56.667969 "/>
</g>
<path style=" stroke:none;fill-rule:evenodd;fill:rgb(0%,0%,53.33252%);fill-opacity:1;" d="M 75.082031 42.5 C 75.082031 48.757812 70.007812 53.832031 63.75 53.832031 C 57.492188 53.832031 52.417969 48.757812 52.417969 42.5 C 52.417969 36.242188 57.492188 31.167969 63.75 31.167969 C 70.007812 31.167969 75.082031 36.242188 75.082031 42.5 Z M 75.082031 42.5 "/>
<path style=" stroke:none;fill-rule:evenodd;fill:rgb(99.998474%,99.998474%,99.998474%);fill-opacity:1;" d="M 73.667969 42.5 C 73.667969 47.976562 69.226562 52.417969 63.75 52.417969 C 58.273438 52.417969 53.832031 47.976562 53.832031 42.5 C 53.832031 37.023438 58.273438 32.582031 63.75 32.582031 C 69.226562 32.582031 73.667969 37.023438 73.667969 42.5 Z M 73.667969 42.5 "/>
<path style=" stroke:none;fill-rule:evenodd;fill:rgb(0%,0%,53.33252%);fill-opacity:1;" d="M 65.734375 42.5 C 65.734375 43.59375 64.84375 44.484375 63.75 44.484375 C 62.65625 44.484375 61.765625 43.59375 61.765625 42.5 C 61.765625 41.40625 62.65625 40.515625 63.75 40.515625 C 64.84375 40.515625 65.734375 41.40625 65.734375 42.5 Z M 65.734375 42.5 "/>
<path style=" stroke:none;fill-rule:evenodd;fill:rgb(0%,0%,53.33252%);fill-opacity:1;" d="M 74.074219 43.859375 C 74.039062 44.128906 73.789062 44.320312 73.515625 44.285156 C 73.246094 44.25 73.054688 44 73.089844 43.730469 C 73.125 43.457031 73.375 43.265625 73.644531 43.304688 C 73.917969 43.339844 74.109375 43.585938 74.074219 43.859375 Z M 74.074219 43.859375 "/>
<path style=" stroke:none;fill-rule:evenodd;fill:rgb(0%,0%,53.33252%);fill-opacity:1;" d="M 63.75 52.417969 L 64.089844 46.46875 L 63.75 43.632812 L 63.410156 46.46875 Z M 63.75 52.417969 "/>
<path style=" stroke:none;fill-rule:evenodd;fill:rgb(0%,0%,53.33252%);fill-opacity:1;" d="M 73.371094 46.484375 C 73.265625 46.738281 72.976562 46.859375 72.722656 46.753906 C 72.46875 46.648438 72.347656 46.359375 72.453125 46.105469 C 72.558594 45.851562 72.847656 45.730469 73.101562 45.835938 C 73.355469 45.941406 73.476562 46.230469 73.371094 46.484375 Z M 73.371094 46.484375 "/>
<path style=" stroke:none;fill-rule:evenodd;fill:rgb(0%,0%,53.33252%);fill-opacity:1;" d="M 61.183594 52.078125 L 63.050781 46.417969 L 63.457031 43.59375 L 62.394531 46.242188 Z M 61.183594 52.078125 "/>
<path style=" stroke:none;fill-rule:evenodd;fill:rgb(0%,0%,53.33252%);fill-opacity:1;" d="M 72.011719 48.839844 C 71.84375 49.054688 71.53125 49.097656 71.316406 48.929688 C 71.097656 48.761719 71.058594 48.453125 71.222656 48.234375 C 71.390625 48.019531 71.703125 47.976562 71.917969 48.144531 C 72.136719 48.308594 72.175781 48.621094 72.011719 48.839844 Z M 72.011719 48.839844 "/>
<path style=" stroke:none;fill-rule:evenodd;fill:rgb(0%,0%,53.33252%);fill-opacity:1;" d="M 58.792969 51.089844 L 62.0625 46.105469 L 63.183594 43.480469 L 61.472656 45.765625 Z M 58.792969 51.089844 "/>
<path style=" stroke:none;fill-rule:evenodd;fill:rgb(0%,0%,53.33252%);fill-opacity:1;" d="M 70.089844 50.761719 C 69.871094 50.925781 69.558594 50.886719 69.394531 50.667969 C 69.226562 50.453125 69.269531 50.140625 69.484375 49.972656 C 69.703125 49.808594 70.011719 49.847656 70.179688 50.066406 C 70.347656 50.28125 70.304688 50.59375 70.089844 50.761719 Z M 70.089844 50.761719 "/>
<path style=" stroke:none;fill-rule:evenodd;fill:rgb(0%,0%,53.33252%);fill-opacity:1;" d="M 56.738281 49.511719 L 61.183594 45.546875 L 62.949219 43.300781 L 60.703125 45.066406 Z M 56.738281 49.511719 "/>
<path style=" stroke:none;fill-rule:evenodd;fill:rgb(0%,0%,53.33252%);fill-opacity:1;" d="M 67.734375 52.121094 C 67.480469 52.226562 67.191406 52.105469 67.085938 51.851562 C 66.980469 51.597656 67.101562 51.308594 67.355469 51.203125 C 67.609375 51.097656 67.898438 51.21875 68.003906 51.472656 C 68.109375 51.726562 67.988281 52.015625 67.734375 52.121094 Z M 67.734375 52.121094 "/>
<path style=" stroke:none;fill-rule:evenodd;fill:rgb(0%,0%,53.33252%);fill-opacity:1;" d="M 55.160156 47.457031 L 60.484375 44.777344 L 62.769531 43.066406 L 60.144531 44.1875 Z M 55.160156 47.457031 "/>
<path style=" stroke:none;fill-rule:evenodd;fill:rgb(0%,0%,53.33252%);fill-opacity:1;" d="M 65.109375 52.824219 C 64.835938 52.859375 64.589844 52.667969 64.554688 52.394531 C 64.515625 52.125 64.707031 51.875 64.980469 51.839844 C 65.25 51.804688 65.5 51.996094 65.535156 52.265625 C 65.570312 52.539062 65.378906 52.789062 65.109375 52.824219 Z M 65.109375 52.824219 "/>
<path style=" stroke:none;fill-rule:evenodd;fill:rgb(0%,0%,53.33252%);fill-opacity:1;" d="M 54.171875 45.066406 L 60.007812 43.855469 L 62.65625 42.792969 L 59.832031 43.199219 Z M 54.171875 45.066406 "/>
<path style=" stroke:none;fill-rule:evenodd;fill:rgb(0%,0%,53.33252%);fill-opacity:1;" d="M 62.390625 52.824219 C 62.121094 52.789062 61.929688 52.539062 61.964844 52.265625 C 62 51.996094 62.25 51.804688 62.519531 51.839844 C 62.792969 51.875 62.984375 52.125 62.945312 52.394531 C 62.910156 52.667969 62.664062 52.859375 62.390625 52.824219 Z M 62.390625 52.824219 "/>
<path style=" stroke:none;fill-rule:evenodd;fill:rgb(0%,0%,53.33252%);fill-opacity:1;" d="M 53.832031 42.5 L 59.78125 42.839844 L 62.617188 42.5 L 59.78125 42.160156 Z M 53.832031 42.5 "/>
<path style=" stroke:none;fill-rule:evenodd;fill:rgb(0%,0%,53.33252%);fill-opacity:1;" d="M 59.765625 52.121094 C 59.511719 52.015625 59.390625 51.726562 59.496094 51.472656 C 59.601562 51.21875 59.890625 51.097656 60.144531 51.203125 C 60.398438 51.308594 60.519531 51.597656 60.414062 51.851562 C 60.308594 52.105469 60.019531 52.226562 59.765625 52.121094 Z M 59.765625 52.121094 "/>
<path style=" stroke:none;fill-rule:evenodd;fill:rgb(0%,0%,53.33252%);fill-opacity:1;" d="M 54.171875 39.933594 L 59.832031 41.800781 L 62.65625 42.207031 L 60.007812 41.144531 Z M 54.171875 39.933594 "/>
<path style=" stroke:none;fill-rule:evenodd;fill:rgb(0%,0%,53.33252%);fill-opacity:1;" d="M 57.410156 50.761719 C 57.195312 50.59375 57.152344 50.28125 57.320312 50.066406 C 57.488281 49.847656 57.796875 49.808594 58.015625 49.972656 C 58.230469 50.140625 58.273438 50.453125 58.105469 50.667969 C 57.941406 50.886719 57.628906 50.925781 57.410156 50.761719 Z M 57.410156 50.761719 "/>
<path style=" stroke:none;fill-rule:evenodd;fill:rgb(0%,0%,53.33252%);fill-opacity:1;" d="M 55.160156 37.542969 L 60.144531 40.8125 L 62.769531 41.933594 L 60.484375 40.222656 Z M 55.160156 37.542969 "/>
<path style=" stroke:none;fill-rule:evenodd;fill:rgb(0%,0%,53.33252%);fill-opacity:1;" d="M 55.488281 48.839844 C 55.324219 48.621094 55.363281 48.308594 55.582031 48.144531 C 55.796875 47.976562 56.109375 48.019531 56.277344 48.234375 C 56.441406 48.453125 56.402344 48.761719 56.183594 48.929688 C 55.96875 49.097656 55.65625 49.054688 55.488281 48.839844 Z M 55.488281 48.839844 "/>
<path style=" stroke:none;fill-rule:evenodd;fill:rgb(0%,0%,53.33252%);fill-opacity:1;" d="M 56.738281 35.488281 L 60.703125 39.933594 L 62.949219 41.699219 L 61.183594 39.453125 Z M 56.738281 35.488281 "/>
<path style=" stroke:none;fill-rule:evenodd;fill:rgb(0%,0%,53.33252%);fill-opacity:1;" d="M 54.128906 46.484375 C 54.023438 46.230469 54.144531 45.941406 54.398438 45.835938 C 54.652344 45.730469 54.941406 45.851562 55.046875 46.105469 C 55.152344 46.359375 55.03125 46.648438 54.777344 46.753906 C 54.523438 46.859375 54.234375 46.738281 54.128906 46.484375 Z M 54.128906 46.484375 "/>
<path style=" stroke:none;fill-rule:evenodd;fill:rgb(0%,0%,53.33252%);fill-opacity:1;" d="M 58.792969 33.910156 L 61.472656 39.234375 L 63.183594 41.519531 L 62.0625 38.894531 Z M 58.792969 33.910156 "/>
<path style=" stroke:none;fill-rule:evenodd;fill:rgb(0%,0%,53.33252%);fill-opacity:1;" d="M 53.425781 43.859375 C 53.390625 43.585938 53.582031 43.339844 53.855469 43.304688 C 54.125 43.265625 54.375 43.457031 54.410156 43.730469 C 54.445312 44 54.253906 44.25 53.984375 44.285156 C 53.710938 44.320312 53.460938 44.128906 53.425781 43.859375 Z M 53.425781 43.859375 "/>
<path style=" stroke:none;fill-rule:evenodd;fill:rgb(0%,0%,53.33252%);fill-opacity:1;" d="M 61.183594 32.921875 L 62.394531 38.757812 L 63.457031 41.40625 L 63.050781 38.582031 Z M 61.183594 32.921875 "/>
<path style=" stroke:none;fill-rule:evenodd;fill:rgb(0%,0%,53.33252%);fill-opacity:1;" d="M 53.425781 41.140625 C 53.460938 40.871094 53.710938 40.679688 53.984375 40.714844 C 54.253906 40.75 54.445312 41 54.410156 41.269531 C 54.375 41.542969 54.125 41.734375 53.855469 41.695312 C 53.582031 41.660156 53.390625 41.414062 53.425781 41.140625 Z M 53.425781 41.140625 "/>
<path style=" stroke:none;fill-rule:evenodd;fill:rgb(0%,0%,53.33252%);fill-opacity:1;" d="M 63.75 32.582031 L 63.410156 38.53125 L 63.75 41.367188 L 64.089844 38.53125 Z M 63.75 32.582031 "/>
<path style=" stroke:none;fill-rule:evenodd;fill:rgb(0%,0%,53.33252%);fill-opacity:1;" d="M 54.128906 38.515625 C 54.234375 38.261719 54.523438 38.140625 54.777344 38.246094 C 55.03125 38.351562 55.152344 38.640625 55.046875 38.894531 C 54.941406 39.148438 54.652344 39.269531 54.398438 39.164062 C 54.144531 39.058594 54.023438 38.769531 54.128906 38.515625 Z M 54.128906 38.515625 "/>
<path style=" stroke:none;fill-rule:evenodd;fill:rgb(0%,0%,53.33252%);fill-opacity:1;" d="M 66.316406 32.921875 L 64.449219 38.582031 L 64.042969 41.40625 L 65.105469 38.757812 Z M 66.316406 32.921875 "/>
<path style=" stroke:none;fill-rule:evenodd;fill:rgb(0%,0%,53.33252%);fill-opacity:1;" d="M 55.488281 36.160156 C 55.65625 35.945312 55.96875 35.902344 56.183594 36.070312 C 56.402344 36.238281 56.441406 36.546875 56.277344 36.765625 C 56.109375 36.980469 55.796875 37.023438 55.582031 36.855469 C 55.363281 36.691406 55.324219 36.378906 55.488281 36.160156 Z M 55.488281 36.160156 "/>
<path style=" stroke:none;fill-rule:evenodd;fill:rgb(0%,0%,53.33252%);fill-opacity:1;" d="M 68.707031 33.910156 L 65.4375 38.894531 L 64.316406 41.519531 L 66.027344 39.234375 Z M 68.707031 33.910156 "/>
<path style=" stroke:none;fill-rule:evenodd;fill:rgb(0%,0%,53.33252%);fill-opacity:1;" d="M 57.410156 34.238281 C 57.628906 34.074219 57.941406 34.113281 58.105469 34.332031 C 58.273438 34.546875 58.230469 34.859375 58.015625 35.027344 C 57.796875 35.191406 57.488281 35.152344 57.320312 34.933594 C 57.152344 34.71875 57.195312 34.40625 57.410156 34.238281 Z M 57.410156 34.238281 "/>
<path style=" stroke:none;fill-rule:evenodd;fill:rgb(0%,0%,53.33252%);fill-opacity:1;" d="M 70.761719 35.488281 L 66.316406 39.453125 L 64.550781 41.699219 L 66.796875 39.933594 Z M 70.761719 35.488281 "/>
<path style=" stroke:none;fill-rule:evenodd;fill:rgb(0%,0%,53.33252%);fill-opacity:1;" d="M 59.765625 32.878906 C 60.019531 32.773438 60.308594 32.894531 60.414062 33.148438 C 60.519531 33.402344 60.398438 33.691406 60.144531 33.796875 C 59.890625 33.902344 59.601562 33.78125 59.496094 33.527344 C 59.390625 33.273438 59.511719 32.984375 59.765625 32.878906 Z M 59.765625 32.878906 "/>
<path style=" stroke:none;fill-rule:evenodd;fill:rgb(0%,0%,53.33252%);fill-opacity:1;" d="M 72.339844 37.542969 L 67.015625 40.222656 L 64.730469 41.933594 L 67.355469 40.8125 Z M 72.339844 37.542969 "/>
<path style=" stroke:none;fill-rule:evenodd;fill:rgb(0%,0%,53.33252%);fill-opacity:1;" d="M 62.390625 32.175781 C 62.664062 32.140625 62.910156 32.332031 62.945312 32.605469 C 62.984375 32.875 62.792969 33.125 62.519531 33.160156 C 62.25 33.195312 62 33.003906 61.964844 32.734375 C 61.929688 32.460938 62.121094 32.210938 62.390625 32.175781 Z M 62.390625 32.175781 "/>
<path style=" stroke:none;fill-rule:evenodd;fill:rgb(0%,0%,53.33252%);fill-opacity:1;" d="M 73.328125 39.933594 L 67.492188 41.144531 L 64.84375 42.207031 L 67.667969 41.800781 Z M 73.328125 39.933594 "/>
<path style=" stroke:none;fill-rule:evenodd;fill:rgb(0%,0%,53.33252%);fill-opacity:1;" d="M 65.109375 32.175781 C 65.378906 32.210938 65.570312 32.460938 65.535156 32.734375 C 65.5 33.003906 65.25 33.195312 64.980469 33.160156 C 64.707031 33.125 64.515625 32.875 64.554688 32.605469 C 64.589844 32.332031 64.835938 32.140625 65.109375 32.175781 Z M 65.109375 32.175781 "/>
<path style=" stroke:none;fill-rule:evenodd;fill:rgb(0%,0%,53.33252%);fill-opacity:1;" d="M 73.667969 42.5 L 67.71875 42.160156 L 64.882812 42.5 L 67.71875 42.839844 Z M 73.667969 42.5 "/>
<path style=" stroke:none;fill-rule:evenodd;fill:rgb(0%,0%,53.33252%);fill-opacity:1;" d="M 67.734375 32.878906 C 67.988281 32.984375 68.109375 33.273438 68.003906 33.527344 C 67.898438 33.78125 67.609375 33.902344 67.355469 33.796875 C 67.101562 33.691406 66.980469 33.402344 67.085938 33.148438 C 67.191406 32.894531 67.480469 32.773438 67.734375 32.878906 Z M 67.734375 32.878906 "/>
<path style=" stroke:none;fill-rule:evenodd;fill:rgb(0%,0%,53.33252%);fill-opacity:1;" d="M 73.328125 45.066406 L 67.667969 43.199219 L 64.84375 42.792969 L 67.492188 43.855469 Z M 73.328125 45.066406 "/>
<path style=" stroke:none;fill-rule:evenodd;fill:rgb(0%,0%,53.33252%);fill-opacity:1;" d="M 70.089844 34.238281 C 70.304688 34.40625 70.347656 34.71875 70.179688 34.933594 C 70.011719 35.152344 69.703125 35.191406 69.484375 35.027344 C 69.269531 34.859375 69.226562 34.546875 69.394531 34.332031 C 69.558594 34.113281 69.871094 34.074219 70.089844 34.238281 Z M 70.089844 34.238281 "/>
<path style=" stroke:none;fill-rule:evenodd;fill:rgb(0%,0%,53.33252%);fill-opacity:1;" d="M 72.339844 47.457031 L 67.355469 44.1875 L 64.730469 43.066406 L 67.015625 44.777344 Z M 72.339844 47.457031 "/>
<path style=" stroke:none;fill-rule:evenodd;fill:rgb(0%,0%,53.33252%);fill-opacity:1;" d="M 72.011719 36.160156 C 72.175781 36.378906 72.136719 36.691406 71.917969 36.855469 C 71.703125 37.023438 71.390625 36.980469 71.222656 36.765625 C 71.058594 36.546875 71.097656 36.238281 71.316406 36.070312 C 71.53125 35.902344 71.84375 35.945312 72.011719 36.160156 Z M 72.011719 36.160156 "/>
<path style=" stroke:none;fill-rule:evenodd;fill:rgb(0%,0%,53.33252%);fill-opacity:1;" d="M 70.761719 49.511719 L 66.796875 45.066406 L 64.550781 43.300781 L 66.316406 45.546875 Z M 70.761719 49.511719 "/>
<path style=" stroke:none;fill-rule:evenodd;fill:rgb(0%,0%,53.33252%);fill-opacity:1;" d="M 73.371094 38.515625 C 73.476562 38.769531 73.355469 39.058594 73.101562 39.164062 C 72.847656 39.269531 72.558594 39.148438 72.453125 38.894531 C 72.347656 38.640625 72.46875 38.351562 72.722656 38.246094 C 72.976562 38.140625 73.265625 38.261719 73.371094 38.515625 Z M 73.371094 38.515625 "/>
<path style=" stroke:none;fill-rule:evenodd;fill:rgb(0%,0%,53.33252%);fill-opacity:1;" d="M 68.707031 51.089844 L 66.027344 45.765625 L 64.316406 43.480469 L 65.4375 46.105469 Z M 68.707031 51.089844 "/>
<path style=" stroke:none;fill-rule:evenodd;fill:rgb(0%,0%,53.33252%);fill-opacity:1;" d="M 74.074219 41.140625 C 74.109375 41.414062 73.917969 41.660156 73.644531 41.695312 C 73.375 41.734375 73.125 41.542969 73.089844 41.269531 C 73.054688 41 73.246094 40.75 73.515625 40.714844 C 73.789062 40.679688 74.039062 40.871094 74.074219 41.140625 Z M 74.074219 41.140625 "/>
<path style=" stroke:none;fill-rule:evenodd;fill:rgb(0%,0%,53.33252%);fill-opacity:1;" d="M 66.316406 52.078125 L 65.105469 46.242188 L 64.042969 43.59375 L 64.449219 46.417969 Z M 66.316406 52.078125 "/>
</g>
</svg>
