<svg viewBox="0 0 1000 667" xmlns="http://www.w3.org/2000/svg" xmlns:xlink="http://www.w3.org/1999/xlink"><clipPath id="a"><path d="m0 0h1000v666.71875h-1000zm0 0"/></clipPath><clipPath id="b"><path d="m0 444h1000v222.71875h-1000zm0 0"/></clipPath><g clip-path="url(#a)"><path d="m0 666.667969v-666.667969h1000v666.667969zm0 0" fill="#f93" fill-rule="evenodd"/></g><path d="m0 222.222656h1000v222.222656h-1000zm0 0" fill="#fff" fill-rule="evenodd"/><g clip-path="url(#b)"><path d="m0 444.445312h1000v222.222657h-1000zm0 0" fill="#128807" fill-rule="evenodd"/></g><g fill-rule="evenodd"><path d="m588.890625 333.332031c0 49.09375-39.796875 88.890625-88.890625 88.890625s-88.890625-39.796875-88.890625-88.890625c0-49.089843 39.796875-88.886719 88.890625-88.886719s88.890625 39.796876 88.890625 88.886719zm0 0" fill="#008"/><path d="m577.777344 333.332031c0 42.957031-34.824219 77.777344-77.777344 77.777344s-77.777344-34.820313-77.777344-77.777344c0-42.953125 34.824219-77.777343 77.777344-77.777343s77.777344 34.824218 77.777344 77.777343zm0 0" fill="#fff"/><path d="m515.554688 333.332031c0 8.589844-6.964844 15.558594-15.554688 15.558594s-15.554688-6.96875-15.554688-15.558594c0-8.589843 6.964844-15.554687 15.554688-15.554687s15.554688 6.964844 15.554688 15.554687zm0 0" fill="#008"/><path d="m580.96875 343.992188c-.277344 2.128906-2.238281 3.628906-4.363281 3.347656-2.128907-.28125-3.628907-2.234375-3.347657-4.363282.28125-2.128906 2.234376-3.628906 4.359376-3.347656 2.132812.28125 3.632812 2.234375 3.351562 4.363282zm0 0" fill="#008"/><path d="m500 411.109375 2.664062-46.664063-2.664062-22.222656-2.664062 22.222656zm0 0" fill="#008"/><path d="m575.449219 364.585938c-.820313 1.984374-3.097657 2.925781-5.078125 2.105468-1.988282-.824218-2.925782-3.097656-2.105469-5.082031s3.09375-2.925781 5.082031-2.105469c1.980469.820313 2.925782 3.097656 2.101563 5.082032zm0 0" fill="#008"/><path d="m479.867188 408.460938 14.65625-44.386719 3.175781-22.15625-8.324219 20.777343zm0 0" fill="#008"/><path d="m564.789062 383.046875c-1.304687 1.703125-3.746093 2.027344-5.449218.722656-1.703125-1.3125-2.027344-3.753906-.71875-5.457031s3.75-2.023438 5.453125-.714844c1.703125 1.304688 2.023437 3.746094.714843 5.449219zm0 0" fill="#008"/><path d="m461.109375 400.691406 25.644531-39.082031 8.800782-20.578125-13.417969 17.914062zm0 0" fill="#008"/><path d="m549.714844 398.125c-1.703125 1.308594-4.144532.984375-5.449219-.71875-1.3125-1.703125-.988281-4.144531.714844-5.453125s4.144531-.984375 5.453125.71875c1.304687 1.703125.984375 4.144531-.71875 5.453125zm0 0" fill="#008"/><path d="m445 388.332031 34.886719-31.113281 13.828125-17.597656-17.601563 13.824218zm0 0" fill="#008"/><path d="m531.253906 408.78125c-1.984375.824219-4.261718-.121094-5.082031-2.101562-.820313-1.984376.121094-4.261719 2.105469-5.082032 1.980468-.820312 4.257812.121094 5.082031 2.105469.820313 1.984375-.125 4.257813-2.105469 5.078125zm0 0" fill="#008"/><path d="m432.644531 372.222656 41.746094-21.027344 17.914063-13.417968-20.582032 8.800781zm0 0" fill="#008"/><path d="m510.660156 414.300781c-2.132812.28125-4.085937-1.21875-4.363281-3.347656-.28125-2.128906 1.21875-4.082031 3.347656-4.363281 2.128907-.277344 4.082031 1.21875 4.363281 3.347656.277344 2.128906-1.21875 4.085938-3.347656 4.363281zm0 0" fill="#008"/><path d="m424.875 353.464844 45.761719-9.503906 20.777343-8.328126-22.152343 3.175782zm0 0" fill="#008"/><path d="m489.339844 414.300781c-2.128906-.277343-3.625-2.234375-3.347656-4.363281.28125-2.128906 2.234374-3.625 4.363281-3.347656 2.128906.28125 3.628906 2.234375 3.347656 4.363281-.277344 2.128906-2.230469 3.628906-4.363281 3.347656zm0 0" fill="#008"/><path d="m422.222656 333.332031 46.664063 2.667969 22.222656-2.667969-22.222656-2.664062zm0 0" fill="#008"/><path d="m468.746094 408.78125c-1.980469-.820312-2.925782-3.09375-2.105469-5.078125.824219-1.984375 3.101563-2.925781 5.082031-2.105469 1.984375.820313 2.925782 3.097656 2.105469 5.082032-.820313 1.980468-3.097656 2.925781-5.082031 2.101562zm0 0" fill="#008"/><path d="m424.875 313.203125 44.386719 14.652344 22.152343 3.179687-20.777343-8.328125zm0 0" fill="#008"/><path d="m450.285156 398.125c-1.703125-1.308594-2.023437-3.75-.71875-5.453125 1.308594-1.703125 3.75-2.027344 5.453125-.71875s2.027344 3.75.714844 5.453125c-1.304687 1.703125-3.746094 2.027344-5.449219.71875zm0 0" fill="#008"/><path d="m432.644531 294.445312 39.078125 25.644532 20.582032 8.796875-17.914063-13.417969zm0 0" fill="#008"/><path d="m435.210938 383.046875c-1.308594-1.703125-.988282-4.144531.714843-5.449219 1.703125-1.308594 4.144531-.988281 5.453125.714844s.984375 4.144531-.71875 5.457031c-1.703125 1.304688-4.144531.980469-5.449218-.722656zm0 0" fill="#008"/><path d="m445 278.335938 31.113281 34.882812 17.601563 13.828125-13.828125-17.601563zm0 0" fill="#008"/><path d="m424.550781 364.585938c-.824219-1.984376.121094-4.261719 2.101563-5.082032 1.988281-.820312 4.261718.121094 5.082031 2.105469s-.117187 4.257813-2.105469 5.082031c-1.980468.820313-4.257812-.121094-5.078125-2.105468zm0 0" fill="#008"/><path d="m461.109375 265.976562 21.027344 41.746094 13.417969 17.914063-8.800782-20.582031zm0 0" fill="#008"/><path d="m419.03125 343.992188c-.28125-2.128907 1.21875-4.082032 3.351562-4.363282 2.125-.28125 4.078126 1.21875 4.359376 3.347656.28125 2.128907-1.21875 4.082032-3.347657 4.363282-2.125.28125-4.085937-1.21875-4.363281-3.347656zm0 0" fill="#008"/><path d="m479.867188 258.207031 9.507812 45.765625 8.324219 20.773438-3.175781-22.152344zm0 0" fill="#008"/><path d="m419.03125 322.675781c.277344-2.132812 2.238281-3.628906 4.363281-3.351562 2.128907.28125 3.628907 2.234375 3.347657 4.367187-.28125 2.125-2.234376 3.628906-4.359376 3.34375-2.132812-.277344-3.632812-2.230468-3.351562-4.359375zm0 0" fill="#008"/><path d="m500 255.554688-2.664062 46.664062 2.664062 22.222656 2.664062-22.222656zm0 0" fill="#008"/><path d="m424.550781 302.078125c.820313-1.980469 3.097657-2.925781 5.078125-2.101563 1.988282.824219 2.925782 3.097657 2.105469 5.078126-.820313 1.988281-3.09375 2.925781-5.082031 2.105468-1.980469-.820312-2.925782-3.09375-2.101563-5.082031zm0 0" fill="#008"/><path d="m520.132812 258.207031-14.65625 44.386719-3.175781 22.152344 8.324219-20.773438zm0 0" fill="#008"/><path d="m435.210938 283.621094c1.304687-1.707032 3.746093-2.027344 5.449218-.722656 1.703125 1.308593 2.027344 3.75.71875 5.457031-1.308594 1.703125-3.75 2.023437-5.453125.714843-1.703125-1.304687-2.023437-3.75-.714843-5.449218zm0 0" fill="#008"/><path d="m538.890625 265.976562-25.644531 39.078126-8.800782 20.582031 13.417969-17.914063zm0 0" fill="#008"/><path d="m450.285156 268.542969c1.703125-1.308594 4.144532-.988281 5.449219.71875 1.3125 1.703125.988281 4.144531-.714844 5.453125-1.703125 1.304687-4.144531.984375-5.453125-.71875-1.304687-1.707032-.984375-4.144532.71875-5.453125zm0 0" fill="#008"/><path d="m555 278.335938-34.886719 31.109374-13.828125 17.601563 17.601563-13.828125zm0 0" fill="#008"/><path d="m468.746094 257.886719c1.984375-.828125 4.261718.117187 5.082031 2.097656.820313 1.988281-.121094 4.261719-2.105469 5.082031-1.980468.824219-4.257812-.117187-5.082031-2.101562-.820313-1.984375.125-4.257813 2.105469-5.078125zm0 0" fill="#008"/><path d="m567.355469 294.445312-41.746094 21.023438-17.914063 13.417969 20.582032-8.796875zm0 0" fill="#008"/><path d="m489.339844 252.367188c2.132812-.285157 4.085937 1.21875 4.363281 3.347656.28125 2.125-1.21875 4.078125-3.347656 4.363281-2.128907.277344-4.082031-1.222656-4.363281-3.351563-.277344-2.125 1.21875-4.082031 3.347656-4.359374zm0 0" fill="#008"/><path d="m575.125 313.203125-45.761719 9.503906-20.777343 8.328125 22.152343-3.179687zm0 0" fill="#008"/><path d="m510.660156 252.367188c2.128906.277343 3.625 2.234374 3.347656 4.359374-.28125 2.128907-2.234374 3.628907-4.363281 3.351563-2.128906-.285156-3.628906-2.238281-3.347656-4.363281.277344-2.128906 2.230469-3.632813 4.363281-3.347656zm0 0" fill="#008"/><path d="m577.777344 333.332031-46.664063-2.664062-22.222656 2.664062 22.222656 2.667969zm0 0" fill="#008"/><path d="m531.253906 257.886719c1.980469.820312 2.925782 3.09375 2.105469 5.078125-.824219 1.984375-3.101563 2.925781-5.082031 2.101562-1.984375-.820312-2.925782-3.09375-2.105469-5.082031.820313-1.980469 3.097656-2.925781 5.082031-2.097656zm0 0" fill="#008"/><path d="m575.125 353.464844-44.386719-14.65625-22.152343-3.175782 20.777343 8.328126zm0 0" fill="#008"/><path d="m549.714844 268.542969c1.703125 1.308593 2.023437 3.746093.71875 5.453125-1.308594 1.703125-3.75 2.023437-5.453125.71875-1.703125-1.308594-2.027344-3.75-.714844-5.453125 1.304687-1.707031 3.746094-2.027344 5.449219-.71875zm0 0" fill="#008"/><path d="m567.355469 372.222656-39.078125-25.644531-20.582032-8.800781 17.914063 13.417968zm0 0" fill="#008"/><path d="m564.789062 283.621094c1.308594 1.699218.988282 4.144531-.714843 5.449218-1.703125 1.308594-4.144531.988282-5.453125-.714843-1.308594-1.707031-.984375-4.148438.71875-5.457031 1.703125-1.304688 4.144531-.984376 5.449218.722656zm0 0" fill="#008"/><path d="m555 388.332031-31.113281-34.886719-17.601563-13.824218 13.828125 17.597656zm0 0" fill="#008"/><path d="m575.449219 302.078125c.824219 1.988281-.121094 4.261719-2.101563 5.082031-1.988281.820313-4.261718-.117187-5.082031-2.105468-.820313-1.980469.117187-4.253907 2.105469-5.078126 1.980468-.824218 4.257812.121094 5.078125 2.101563zm0 0" fill="#008"/><path d="m538.890625 400.691406-21.027344-41.746094-13.417969-17.914062 8.800782 20.578125zm0 0" fill="#008"/><path d="m580.96875 322.675781c.28125 2.128907-1.21875 4.082031-3.351562 4.359375-2.125.285156-4.078126-1.21875-4.359376-3.34375-.28125-2.132812 1.21875-4.085937 3.347657-4.367187 2.125-.277344 4.085937 1.21875 4.363281 3.351562zm0 0" fill="#008"/><path d="m520.132812 408.460938-9.507812-45.765626-8.324219-20.777343 3.175781 22.15625zm0 0" fill="#008"/></g></svg>