<svg viewBox="0 0 1000 571" xmlns="http://www.w3.org/2000/svg"><path d="m0 0h1000v571h-1000z" fill="#239f40"/><path d="m0 190.476562h1000v190.476563h-1000zm0 0" fill="#fff" fill-rule="evenodd"/><path d="m0 380.953125h1000v190.476563h-1000zm0 0" fill="#da0000" fill-rule="evenodd"/><g fill="none" stroke="#fff" stroke-linecap="round"><path d="m460 161.589844h53.335938" stroke-width="4.444444"/><path d="m460 179.363281v-8.886719h17.777344v8.886719h17.777344v-8.886719h-8.890626" stroke-width="4.444444"/><path d="m513.335938 179.363281h-8.890626v-8.886719h17.777344v-8.886718" stroke-width="4.444444"/><path d="m522.222656 170.476562v8.886719h17.777344v-17.773437" stroke-width="4.444444"/><path d="m531.109375 161.589844v17.773437" stroke-width="4.444444"/><path d="m468.890625 179.363281h.003906" stroke-width="4.444444"/><path d="m460 189.203125h35.554688" stroke-width="5.312127"/><path d="m504.445312 189.203125h35.554688" stroke-width="5.312127"/><path d="m460 392.0625h53.335938" stroke-width="4.444444"/><path d="m460 409.839844v-8.886719h17.777344v8.886719h17.777344v-8.886719h-8.890626" stroke-width="4.444444"/><path d="m513.335938 409.839844h-8.890626v-8.886719h17.777344v-8.890625" stroke-width="4.444444"/><path d="m522.222656 400.953125v8.886719h17.777344v-17.777344" stroke-width="4.444444"/><path d="m531.109375 392.0625v17.777344" stroke-width="4.444444"/><path d="m468.890625 409.839844h.003906" stroke-width="4.444444"/><path d="m460 382.222656h35.554688" stroke-width="5.312127"/><path d="m504.445312 382.222656h35.554688" stroke-width="5.312127"/><path d="m548.890625 161.589844h53.332031" stroke-width="4.444444"/><path d="m548.890625 179.363281v-8.886719h17.777344v8.886719h17.773437v-8.886719h-8.886718" stroke-width="4.444444"/><path d="m602.222656 179.363281h-8.886718v-8.886719h17.773437v-8.886718" stroke-width="4.444444"/><path d="m611.109375 170.476562v8.886719h17.777344v-17.773437" stroke-width="4.444444"/><path d="m620 161.589844v17.773437" stroke-width="4.444444"/><path d="m557.777344 179.363281h.003906" stroke-width="4.444444"/><path d="m548.890625 189.203125h35.550781" stroke-width="5.312127"/><path d="m593.335938 189.203125h35.550781" stroke-width="5.312127"/><path d="m548.890625 392.0625h53.332031" stroke-width="4.444444"/><path d="m548.890625 409.839844v-8.886719h17.777344v8.886719h17.773437v-8.886719h-8.886718" stroke-width="4.444444"/><path d="m602.222656 409.839844h-8.886718v-8.886719h17.773437v-8.890625" stroke-width="4.444444"/><path d="m611.109375 400.953125v8.886719h17.777344v-17.777344" stroke-width="4.444444"/><path d="m620 392.0625v17.777344" stroke-width="4.444444"/><path d="m557.777344 409.839844h.003906" stroke-width="4.444444"/><path d="m548.890625 382.222656h35.550781" stroke-width="5.312127"/><path d="m593.335938 382.222656h35.550781" stroke-width="5.312127"/><path d="m282.222656 161.589844h53.332032" stroke-width="4.444444"/><path d="m282.222656 179.363281v-8.886719h17.777344v8.886719h17.777344v-8.886719h-8.890625" stroke-width="4.444444"/><path d="m335.554688 179.363281h-8.886719v-8.886719h17.777343v-8.886718" stroke-width="4.444444"/><path d="m344.445312 170.476562v8.886719h17.773438v-17.773437" stroke-width="4.444444"/><path d="m353.332031 161.589844v17.773437" stroke-width="4.444444"/><path d="m282.222656 189.203125h35.554688" stroke-width="5.312127"/><path d="m326.667969 189.203125h35.554687" stroke-width="5.312127"/><path d="m282.222656 392.0625h53.332032" stroke-width="4.444444"/><path d="m282.222656 409.839844v-8.886719h17.777344v8.886719h17.777344v-8.886719h-8.890625" stroke-width="4.444444"/><path d="m335.554688 409.839844h-8.886719v-8.886719h17.777343v-8.890625" stroke-width="4.444444"/><path d="m344.445312 400.953125v8.886719h17.773438v-17.777344" stroke-width="4.444444"/><path d="m353.332031 392.0625v17.777344" stroke-width="4.444444"/><path d="m282.222656 382.222656h35.554688" stroke-width="5.312127"/><path d="m326.667969 382.222656h35.554687" stroke-width="5.312127"/><path d="m371.113281 161.589844h53.332031" stroke-width="4.444444"/><path d="m371.113281 179.363281v-8.886719h17.777344v8.886719h17.773437v-8.886719h-8.886718" stroke-width="4.444444"/><path d="m424.445312 179.363281h-8.886718v-8.886719h17.773437v-8.886718" stroke-width="4.444444"/><path d="m433.332031 170.476562v8.886719h17.777344v-17.773437" stroke-width="4.444444"/><path d="m442.222656 161.589844v17.773437" stroke-width="4.444444"/><path d="m380 179.363281h.003906" stroke-width="4.444444"/><path d="m371.113281 189.203125h35.550781" stroke-width="5.312127"/><path d="m415.558594 189.203125h35.550781" stroke-width="5.312127"/><path d="m371.113281 392.0625h53.332031" stroke-width="4.444444"/><path d="m371.113281 409.839844v-8.886719h17.777344v8.886719h17.773437v-8.886719h-8.886718" stroke-width="4.444444"/><path d="m424.445312 409.839844h-8.886718v-8.886719h17.773437v-8.890625" stroke-width="4.444444"/><path d="m433.332031 400.953125v8.886719h17.777344v-17.777344" stroke-width="4.444444"/><path d="m442.222656 392.0625v17.777344" stroke-width="4.444444"/><path d="m380 409.839844h.003906" stroke-width="4.444444"/><path d="m371.113281 382.222656h35.550781" stroke-width="5.312127"/><path d="m415.558594 382.222656h35.550781" stroke-width="5.312127"/><path d="m815.558594 161.589844h53.332031" stroke-width="4.444444"/><path d="m815.558594 179.363281v-8.886719h17.773437v8.886719h17.777344v-8.886719h-8.886719" stroke-width="4.444444"/><path d="m868.890625 179.363281h-8.890625v-8.886719h17.777344v-8.886718" stroke-width="4.444444"/><path d="m877.777344 170.476562v8.886719h17.777344v-17.773437" stroke-width="4.444444"/><path d="m886.664062 161.589844v17.773437" stroke-width="4.444444"/><path d="m824.445312 179.363281h.003907" stroke-width="4.444444"/><path d="m815.558594 189.203125h35.550781" stroke-width="5.312127"/><path d="m860 189.203125h35.554688" stroke-width="5.312127"/><path d="m815.558594 392.0625h53.332031" stroke-width="4.444444"/><path d="m815.558594 409.839844v-8.886719h17.773437v8.886719h17.777344v-8.886719h-8.886719" stroke-width="4.444444"/><path d="m868.890625 409.839844h-8.890625v-8.886719h17.777344v-8.890625" stroke-width="4.444444"/><path d="m877.777344 400.953125v8.886719h17.777344v-17.777344" stroke-width="4.444444"/><path d="m886.664062 392.0625v17.777344" stroke-width="4.444444"/><path d="m824.445312 409.839844h.003907" stroke-width="4.444444"/><path d="m815.558594 382.222656h35.550781" stroke-width="5.312127"/><path d="m860 382.222656h35.554688" stroke-width="5.312127"/><path d="m904.445312 161.589844h53.332032" stroke-width="4.444444"/><path d="m904.445312 179.363281v-8.886719h17.777344v8.886719h17.777344v-8.886719h-8.890625" stroke-width="4.444444"/><path d="m957.777344 179.363281h-8.886719v-8.886719h17.777344v-8.886718" stroke-width="4.444444"/><path d="m966.667969 170.476562v8.886719h17.773437v-17.773437" stroke-width="4.444444"/><path d="m975.554688 161.589844v17.773437" stroke-width="4.444444"/><path d="m904.445312 189.203125h35.554688" stroke-width="5.312127"/><path d="m948.890625 189.203125h35.550781" stroke-width="5.312127"/><path d="m904.445312 392.0625h53.332032" stroke-width="4.444444"/><path d="m904.445312 409.839844v-8.886719h17.777344v8.886719h17.777344v-8.886719h-8.890625" stroke-width="4.444444"/><path d="m957.777344 409.839844h-8.886719v-8.886719h17.777344v-8.890625" stroke-width="4.444444"/><path d="m966.667969 400.953125v8.886719h17.773437v-17.777344" stroke-width="4.444444"/><path d="m975.554688 392.0625v17.777344" stroke-width="4.444444"/><path d="m904.445312 382.222656h35.554688" stroke-width="5.312127"/><path d="m948.890625 382.222656h35.550781" stroke-width="5.312127"/><path d="m637.78125 161.589844h53.332031" stroke-width="4.444444"/><path d="m637.78125 179.363281v-8.886719h17.773438v8.886719h17.777343v-8.886719h-8.886719" stroke-width="4.444444"/><path d="m691.113281 179.363281h-8.890625v-8.886719h17.777344v-8.886718" stroke-width="4.444444"/><path d="m700 170.476562v8.886719h17.777344v-17.773437" stroke-width="4.444444"/><path d="m708.886719 161.589844v17.773437" stroke-width="4.444444"/><path d="m646.667969 179.363281h.003906" stroke-width="4.444444"/><path d="m637.777344 189.203125h35.554687" stroke-width="5.312127"/><path d="m682.222656 189.203125h35.554688" stroke-width="5.312127"/><path d="m637.78125 392.0625h53.332031" stroke-width="4.444444"/><path d="m637.78125 409.839844v-8.886719h17.773438v8.886719h17.777343v-8.886719h-8.886719" stroke-width="4.444444"/><path d="m691.113281 409.839844h-8.890625v-8.886719h17.777344v-8.890625" stroke-width="4.444444"/><path d="m700 400.953125v8.886719h17.777344v-17.777344" stroke-width="4.444444"/><path d="m708.886719 392.0625v17.777344" stroke-width="4.444444"/><path d="m646.667969 409.839844h.003906" stroke-width="4.444444"/><path d="m637.777344 382.222656h35.554687" stroke-width="5.312127"/><path d="m682.222656 382.222656h35.554688" stroke-width="5.312127"/><path d="m726.667969 161.589844h53.332031" stroke-width="4.444444"/><path d="m726.667969 179.363281v-8.886719h17.777343v8.886719h17.773438v-8.886719h-8.886719" stroke-width="4.444444"/><path d="m780 179.363281h-8.886719v-8.886719h17.777344v-8.886718" stroke-width="4.444444"/><path d="m788.890625 170.476562v8.886719h17.773437v-17.773437" stroke-width="4.444444"/><path d="m797.777344 161.589844v17.773437" stroke-width="4.444444"/><path d="m735.554688 179.363281h.003906" stroke-width="4.444444"/><path d="m726.667969 189.203125h35.554687" stroke-width="5.312127"/><path d="m771.113281 189.203125h35.550781" stroke-width="5.312127"/><path d="m726.667969 392.0625h53.332031" stroke-width="4.444444"/><path d="m726.667969 409.839844v-8.886719h17.777343v8.886719h17.773438v-8.886719h-8.886719" stroke-width="4.444444"/><path d="m780 409.839844h-8.886719v-8.886719h17.777344v-8.890625" stroke-width="4.444444"/><path d="m788.890625 400.953125v8.886719h17.773437v-17.777344" stroke-width="4.444444"/><path d="m797.777344 392.0625v17.777344" stroke-width="4.444444"/><path d="m735.554688 409.839844h.003906" stroke-width="4.444444"/><path d="m726.667969 382.222656h35.554687" stroke-width="5.312127"/><path d="m771.113281 382.222656h35.550781" stroke-width="5.312127"/><path d="m193.335938 161.589844h53.332031" stroke-width="4.444444"/><path d="m193.335938 179.363281v-8.886719h17.773437v8.886719h17.777344v-8.886719h-8.886719" stroke-width="4.444444"/><path d="m246.667969 179.363281h-8.886719v-8.886719h17.773438v-8.886718" stroke-width="4.444444"/><path d="m255.554688 170.476562v8.886719h17.777343v-17.773437" stroke-width="4.444444"/><path d="m264.445312 161.589844v17.773437" stroke-width="4.444444"/><path d="m202.222656 179.363281h.003906" stroke-width="4.444444"/><path d="m193.335938 189.203125h35.550781" stroke-width="5.312127"/><path d="m237.777344 189.203125h35.554687" stroke-width="5.312127"/><path d="m193.335938 392.0625h53.332031" stroke-width="4.444444"/><path d="m193.335938 409.839844v-8.886719h17.773437v8.886719h17.777344v-8.886719h-8.886719" stroke-width="4.444444"/><path d="m246.667969 409.839844h-8.886719v-8.886719h17.773438v-8.890625" stroke-width="4.444444"/><path d="m255.554688 400.953125v8.886719h17.777343v-17.777344" stroke-width="4.444444"/><path d="m264.445312 392.0625v17.777344" stroke-width="4.444444"/><path d="m202.222656 409.839844h.003906" stroke-width="4.444444"/><path d="m193.335938 382.222656h35.550781" stroke-width="5.312127"/><path d="m237.777344 382.222656h35.554687" stroke-width="5.312127"/><path d="m15.558594 161.589844h53.332031" stroke-width="4.444444"/><path d="m15.558594 179.363281v-8.886719h17.773437v8.886719h17.777344v-8.886719h-8.886719" stroke-width="4.444444"/><path d="m68.890625 179.363281h-8.890625v-8.886719h17.777344v-8.886718" stroke-width="4.444444"/><path d="m77.777344 170.476562v8.886719h17.777344v-17.773437" stroke-width="4.444444"/><path d="m86.664062 161.589844v17.773437" stroke-width="4.444444"/><path d="m24.445312 179.363281h.003907" stroke-width="4.444444"/><path d="m15.558594 189.203125h35.550781" stroke-width="5.312127"/><path d="m60 189.203125h35.554688" stroke-width="5.312127"/><path d="m15.558594 392.0625h53.332031" stroke-width="4.444444"/><path d="m15.558594 409.839844v-8.886719h17.773437v8.886719h17.777344v-8.886719h-8.886719" stroke-width="4.444444"/><path d="m68.890625 409.839844h-8.890625v-8.886719h17.777344v-8.890625" stroke-width="4.444444"/><path d="m77.777344 400.953125v8.886719h17.777344v-17.777344" stroke-width="4.444444"/><path d="m86.664062 392.0625v17.777344" stroke-width="4.444444"/><path d="m24.445312 409.839844h.003907" stroke-width="4.444444"/><path d="m15.558594 382.222656h35.550781" stroke-width="5.312127"/><path d="m60 382.222656h35.554688" stroke-width="5.312127"/><path d="m104.445312 161.589844h53.332032" stroke-width="4.444444"/><path d="m104.445312 179.363281v-8.886719h17.777344v8.886719h17.777344v-8.886719h-8.890625" stroke-width="4.444444"/><path d="m157.777344 179.363281h-8.886719v-8.886719h17.777344v-8.886718" stroke-width="4.444444"/><path d="m166.667969 170.476562v8.886719h17.773437v-17.773437" stroke-width="4.444444"/><path d="m175.554688 161.589844v17.773437" stroke-width="4.444444"/><path d="m104.445312 189.203125h35.554688" stroke-width="5.312127"/><path d="m148.890625 189.203125h35.550781" stroke-width="5.312127"/><path d="m104.445312 392.0625h53.332032" stroke-width="4.444444"/><path d="m104.445312 409.839844v-8.886719h17.777344v8.886719h17.777344v-8.886719h-8.890625" stroke-width="4.444444"/><path d="m157.777344 409.839844h-8.886719v-8.886719h17.777344v-8.890625" stroke-width="4.444444"/><path d="m166.667969 400.953125v8.886719h17.773437v-17.777344" stroke-width="4.444444"/><path d="m175.554688 392.0625v17.777344" stroke-width="4.444444"/><path d="m104.445312 382.222656h35.554688" stroke-width="5.312127"/><path d="m148.890625 382.222656h35.550781" stroke-width="5.312127"/></g><path d="m529.097656 234.652344s51.683594 40.417968 13.695313 98.503906c35.777343-21.863281 38.871093-81.992188-13.695313-98.503906zm0 0" fill="#da0000" fill-rule="evenodd"/><path d="m500 228.914062c-8.222656 9.273438-22.363281.050782-17.503906-10.050781 8.503906 15.238281 17.503906 2.925781 17.503906 2.925781s9 12.3125 17.503906-2.925781c4.859375 10.101563-9.277344 19.324219-17.503906 10.050781zm0 0" fill="#da0000" fill-rule="evenodd"/><path d="m500 354.804688-5.90625-7.726563s-13.914062 4.636719-32.246094-1.769531c15.019532 0 23.410156-2.648438 26.5-4.195313 0 0-34.011718-18.332031-33.351562-55.660156 1.992187-37.765625 22.089844-49.253906 22.089844-49.253906s-35.777344 52.125 16.785156 95.691406l-2.320313-53.894531v-39.589844c2.984375-.71875 8.449219-7.011719 8.449219-7.011719s5.464844 6.292969 8.449219 7.011719v39.589844l-2.320313 53.894531c52.5625-43.566406 16.785156-95.691406 16.785156-95.691406s20.097657 11.480469 22.085938 49.25c.664062 37.328125-33.351562 55.660156-33.351562 55.660156 3.089843 1.546875 11.484374 4.195313 26.503906 4.195313-18.332032 6.40625-32.246094 1.769531-32.246094 1.769531l-5.910156 7.726562zm0 0" fill="#da0000" fill-rule="evenodd"/><path d="m470.90625 234.652344s-51.683594 40.417968-13.695312 98.503906c-35.78125-21.863281-38.875-81.992188 13.695312-98.503906zm0 0" fill="#da0000" fill-rule="evenodd"/></svg>