<?xml version="1.0" encoding="UTF-8"?>
<svg xmlns="http://www.w3.org/2000/svg" xmlns:xlink="http://www.w3.org/1999/xlink" width="128pt" height="73pt" viewBox="0 0 128 73" version="1.1">
<g id="surface522">
<rect x="0" y="0" width="128" height="73" style="fill:rgb(13.725281%,62.35199%,25.097656%);fill-opacity:1;stroke:none;"/>
<path style=" stroke:none;fill-rule:evenodd;fill:rgb(99.998474%,99.998474%,99.998474%);fill-opacity:1;" d="M 0 24.382812 L 128 24.382812 L 128 48.761719 L 0 48.761719 Z M 0 24.382812 "/>
<path style=" stroke:none;fill-rule:evenodd;fill:rgb(85.488892%,0%,0%);fill-opacity:1;" d="M 0 48.761719 L 128 48.761719 L 128 73.144531 L 0 73.144531 Z M 0 48.761719 "/>
<path style="fill:none;stroke-width:0.568889;stroke-linecap:round;stroke-linejoin:miter;stroke:rgb(99.998474%,99.998474%,99.998474%);stroke-opacity:1;stroke-miterlimit:4;" d="M 58.878906 20.683594 L 65.707031 20.683594 "/>
<path style="fill:none;stroke-width:0.568889;stroke-linecap:round;stroke-linejoin:miter;stroke:rgb(99.998474%,99.998474%,99.998474%);stroke-opacity:1;stroke-miterlimit:4;" d="M 58.878906 22.957031 L 58.878906 21.820312 L 61.15625 21.820312 L 61.15625 22.957031 L 63.429688 22.957031 L 63.429688 21.820312 L 62.292969 21.820312 "/>
<path style="fill:none;stroke-width:0.568889;stroke-linecap:round;stroke-linejoin:miter;stroke:rgb(99.998474%,99.998474%,99.998474%);stroke-opacity:1;stroke-miterlimit:4;" d="M 65.707031 22.957031 L 64.570312 22.957031 L 64.570312 21.820312 L 66.84375 21.820312 L 66.84375 20.683594 "/>
<path style="fill:none;stroke-width:0.568889;stroke-linecap:round;stroke-linejoin:miter;stroke:rgb(99.998474%,99.998474%,99.998474%);stroke-opacity:1;stroke-miterlimit:4;" d="M 66.84375 21.820312 L 66.84375 22.957031 L 69.121094 22.957031 L 69.121094 20.683594 "/>
<path style="fill:none;stroke-width:0.568889;stroke-linecap:round;stroke-linejoin:miter;stroke:rgb(99.998474%,99.998474%,99.998474%);stroke-opacity:1;stroke-miterlimit:4;" d="M 67.980469 20.683594 L 67.980469 22.957031 "/>
<path style="fill:none;stroke-width:0.568889;stroke-linecap:round;stroke-linejoin:miter;stroke:rgb(99.998474%,99.998474%,99.998474%);stroke-opacity:1;stroke-miterlimit:4;" d="M 60.019531 22.957031 L 60.019531 22.957031 "/>
<path style="fill:none;stroke-width:0.679952;stroke-linecap:round;stroke-linejoin:miter;stroke:rgb(99.998474%,99.998474%,99.998474%);stroke-opacity:1;stroke-miterlimit:4;" d="M 58.878906 24.21875 L 63.429688 24.21875 "/>
<path style="fill:none;stroke-width:0.679952;stroke-linecap:round;stroke-linejoin:miter;stroke:rgb(99.998474%,99.998474%,99.998474%);stroke-opacity:1;stroke-miterlimit:4;" d="M 64.570312 24.21875 L 69.121094 24.21875 "/>
<path style="fill:none;stroke-width:0.568889;stroke-linecap:round;stroke-linejoin:miter;stroke:rgb(99.998474%,99.998474%,99.998474%);stroke-opacity:1;stroke-miterlimit:4;" d="M 58.878906 50.183594 L 65.707031 50.183594 "/>
<path style="fill:none;stroke-width:0.568889;stroke-linecap:round;stroke-linejoin:miter;stroke:rgb(99.998474%,99.998474%,99.998474%);stroke-opacity:1;stroke-miterlimit:4;" d="M 58.878906 52.460938 L 58.878906 51.320312 L 61.15625 51.320312 L 61.15625 52.460938 L 63.429688 52.460938 L 63.429688 51.320312 L 62.292969 51.320312 "/>
<path style="fill:none;stroke-width:0.568889;stroke-linecap:round;stroke-linejoin:miter;stroke:rgb(99.998474%,99.998474%,99.998474%);stroke-opacity:1;stroke-miterlimit:4;" d="M 65.707031 52.460938 L 64.570312 52.460938 L 64.570312 51.320312 L 66.84375 51.320312 L 66.84375 50.183594 "/>
<path style="fill:none;stroke-width:0.568889;stroke-linecap:round;stroke-linejoin:miter;stroke:rgb(99.998474%,99.998474%,99.998474%);stroke-opacity:1;stroke-miterlimit:4;" d="M 66.84375 51.320312 L 66.84375 52.460938 L 69.121094 52.460938 L 69.121094 50.183594 "/>
<path style="fill:none;stroke-width:0.568889;stroke-linecap:round;stroke-linejoin:miter;stroke:rgb(99.998474%,99.998474%,99.998474%);stroke-opacity:1;stroke-miterlimit:4;" d="M 67.980469 50.183594 L 67.980469 52.460938 "/>
<path style="fill:none;stroke-width:0.568889;stroke-linecap:round;stroke-linejoin:miter;stroke:rgb(99.998474%,99.998474%,99.998474%);stroke-opacity:1;stroke-miterlimit:4;" d="M 60.019531 52.460938 L 60.019531 52.460938 "/>
<path style="fill:none;stroke-width:0.679952;stroke-linecap:round;stroke-linejoin:miter;stroke:rgb(99.998474%,99.998474%,99.998474%);stroke-opacity:1;stroke-miterlimit:4;" d="M 58.878906 48.925781 L 63.429688 48.925781 "/>
<path style="fill:none;stroke-width:0.679952;stroke-linecap:round;stroke-linejoin:miter;stroke:rgb(99.998474%,99.998474%,99.998474%);stroke-opacity:1;stroke-miterlimit:4;" d="M 64.570312 48.925781 L 69.121094 48.925781 "/>
<path style="fill:none;stroke-width:0.568889;stroke-linecap:round;stroke-linejoin:miter;stroke:rgb(99.998474%,99.998474%,99.998474%);stroke-opacity:1;stroke-miterlimit:4;" d="M 70.257812 20.683594 L 77.085938 20.683594 "/>
<path style="fill:none;stroke-width:0.568889;stroke-linecap:round;stroke-linejoin:miter;stroke:rgb(99.998474%,99.998474%,99.998474%);stroke-opacity:1;stroke-miterlimit:4;" d="M 70.257812 22.957031 L 70.257812 21.820312 L 72.535156 21.820312 L 72.535156 22.957031 L 74.808594 22.957031 L 74.808594 21.820312 L 73.671875 21.820312 "/>
<path style="fill:none;stroke-width:0.568889;stroke-linecap:round;stroke-linejoin:miter;stroke:rgb(99.998474%,99.998474%,99.998474%);stroke-opacity:1;stroke-miterlimit:4;" d="M 77.085938 22.957031 L 75.945312 22.957031 L 75.945312 21.820312 L 78.222656 21.820312 L 78.222656 20.683594 "/>
<path style="fill:none;stroke-width:0.568889;stroke-linecap:round;stroke-linejoin:miter;stroke:rgb(99.998474%,99.998474%,99.998474%);stroke-opacity:1;stroke-miterlimit:4;" d="M 78.222656 21.820312 L 78.222656 22.957031 L 80.496094 22.957031 L 80.496094 20.683594 "/>
<path style="fill:none;stroke-width:0.568889;stroke-linecap:round;stroke-linejoin:miter;stroke:rgb(99.998474%,99.998474%,99.998474%);stroke-opacity:1;stroke-miterlimit:4;" d="M 79.359375 20.683594 L 79.359375 22.957031 "/>
<path style="fill:none;stroke-width:0.568889;stroke-linecap:round;stroke-linejoin:miter;stroke:rgb(99.998474%,99.998474%,99.998474%);stroke-opacity:1;stroke-miterlimit:4;" d="M 71.394531 22.957031 L 71.394531 22.957031 "/>
<path style="fill:none;stroke-width:0.679952;stroke-linecap:round;stroke-linejoin:miter;stroke:rgb(99.998474%,99.998474%,99.998474%);stroke-opacity:1;stroke-miterlimit:4;" d="M 70.257812 24.21875 L 74.808594 24.21875 "/>
<path style="fill:none;stroke-width:0.679952;stroke-linecap:round;stroke-linejoin:miter;stroke:rgb(99.998474%,99.998474%,99.998474%);stroke-opacity:1;stroke-miterlimit:4;" d="M 75.945312 24.21875 L 80.496094 24.21875 "/>
<path style="fill:none;stroke-width:0.568889;stroke-linecap:round;stroke-linejoin:miter;stroke:rgb(99.998474%,99.998474%,99.998474%);stroke-opacity:1;stroke-miterlimit:4;" d="M 70.257812 50.183594 L 77.085938 50.183594 "/>
<path style="fill:none;stroke-width:0.568889;stroke-linecap:round;stroke-linejoin:miter;stroke:rgb(99.998474%,99.998474%,99.998474%);stroke-opacity:1;stroke-miterlimit:4;" d="M 70.257812 52.460938 L 70.257812 51.320312 L 72.535156 51.320312 L 72.535156 52.460938 L 74.808594 52.460938 L 74.808594 51.320312 L 73.671875 51.320312 "/>
<path style="fill:none;stroke-width:0.568889;stroke-linecap:round;stroke-linejoin:miter;stroke:rgb(99.998474%,99.998474%,99.998474%);stroke-opacity:1;stroke-miterlimit:4;" d="M 77.085938 52.460938 L 75.945312 52.460938 L 75.945312 51.320312 L 78.222656 51.320312 L 78.222656 50.183594 "/>
<path style="fill:none;stroke-width:0.568889;stroke-linecap:round;stroke-linejoin:miter;stroke:rgb(99.998474%,99.998474%,99.998474%);stroke-opacity:1;stroke-miterlimit:4;" d="M 78.222656 51.320312 L 78.222656 52.460938 L 80.496094 52.460938 L 80.496094 50.183594 "/>
<path style="fill:none;stroke-width:0.568889;stroke-linecap:round;stroke-linejoin:miter;stroke:rgb(99.998474%,99.998474%,99.998474%);stroke-opacity:1;stroke-miterlimit:4;" d="M 79.359375 50.183594 L 79.359375 52.460938 "/>
<path style="fill:none;stroke-width:0.568889;stroke-linecap:round;stroke-linejoin:miter;stroke:rgb(99.998474%,99.998474%,99.998474%);stroke-opacity:1;stroke-miterlimit:4;" d="M 71.394531 52.460938 L 71.394531 52.460938 "/>
<path style="fill:none;stroke-width:0.679952;stroke-linecap:round;stroke-linejoin:miter;stroke:rgb(99.998474%,99.998474%,99.998474%);stroke-opacity:1;stroke-miterlimit:4;" d="M 70.257812 48.925781 L 74.808594 48.925781 "/>
<path style="fill:none;stroke-width:0.679952;stroke-linecap:round;stroke-linejoin:miter;stroke:rgb(99.998474%,99.998474%,99.998474%);stroke-opacity:1;stroke-miterlimit:4;" d="M 75.945312 48.925781 L 80.496094 48.925781 "/>
<path style="fill:none;stroke-width:0.568889;stroke-linecap:round;stroke-linejoin:miter;stroke:rgb(99.998474%,99.998474%,99.998474%);stroke-opacity:1;stroke-miterlimit:4;" d="M 36.125 20.683594 L 42.953125 20.683594 "/>
<path style="fill:none;stroke-width:0.568889;stroke-linecap:round;stroke-linejoin:miter;stroke:rgb(99.998474%,99.998474%,99.998474%);stroke-opacity:1;stroke-miterlimit:4;" d="M 36.125 22.957031 L 36.125 21.820312 L 38.398438 21.820312 L 38.398438 22.957031 L 40.675781 22.957031 L 40.675781 21.820312 L 39.539062 21.820312 "/>
<path style="fill:none;stroke-width:0.568889;stroke-linecap:round;stroke-linejoin:miter;stroke:rgb(99.998474%,99.998474%,99.998474%);stroke-opacity:1;stroke-miterlimit:4;" d="M 42.953125 22.957031 L 41.8125 22.957031 L 41.8125 21.820312 L 44.089844 21.820312 L 44.089844 20.683594 "/>
<path style="fill:none;stroke-width:0.568889;stroke-linecap:round;stroke-linejoin:miter;stroke:rgb(99.998474%,99.998474%,99.998474%);stroke-opacity:1;stroke-miterlimit:4;" d="M 44.089844 21.820312 L 44.089844 22.957031 L 46.363281 22.957031 L 46.363281 20.683594 "/>
<path style="fill:none;stroke-width:0.568889;stroke-linecap:round;stroke-linejoin:miter;stroke:rgb(99.998474%,99.998474%,99.998474%);stroke-opacity:1;stroke-miterlimit:4;" d="M 45.226562 20.683594 L 45.226562 22.957031 "/>
<path style="fill:none;stroke-width:0.568889;stroke-linecap:round;stroke-linejoin:miter;stroke:rgb(99.998474%,99.998474%,99.998474%);stroke-opacity:1;stroke-miterlimit:4;" d="M 37.261719 22.957031 L 37.261719 22.957031 "/>
<path style="fill:none;stroke-width:0.679952;stroke-linecap:round;stroke-linejoin:miter;stroke:rgb(99.998474%,99.998474%,99.998474%);stroke-opacity:1;stroke-miterlimit:4;" d="M 36.125 24.21875 L 40.675781 24.21875 "/>
<path style="fill:none;stroke-width:0.679952;stroke-linecap:round;stroke-linejoin:miter;stroke:rgb(99.998474%,99.998474%,99.998474%);stroke-opacity:1;stroke-miterlimit:4;" d="M 41.8125 24.21875 L 46.363281 24.21875 "/>
<path style="fill:none;stroke-width:0.568889;stroke-linecap:round;stroke-linejoin:miter;stroke:rgb(99.998474%,99.998474%,99.998474%);stroke-opacity:1;stroke-miterlimit:4;" d="M 36.125 50.183594 L 42.953125 50.183594 "/>
<path style="fill:none;stroke-width:0.568889;stroke-linecap:round;stroke-linejoin:miter;stroke:rgb(99.998474%,99.998474%,99.998474%);stroke-opacity:1;stroke-miterlimit:4;" d="M 36.125 52.460938 L 36.125 51.320312 L 38.398438 51.320312 L 38.398438 52.460938 L 40.675781 52.460938 L 40.675781 51.320312 L 39.539062 51.320312 "/>
<path style="fill:none;stroke-width:0.568889;stroke-linecap:round;stroke-linejoin:miter;stroke:rgb(99.998474%,99.998474%,99.998474%);stroke-opacity:1;stroke-miterlimit:4;" d="M 42.953125 52.460938 L 41.8125 52.460938 L 41.8125 51.320312 L 44.089844 51.320312 L 44.089844 50.183594 "/>
<path style="fill:none;stroke-width:0.568889;stroke-linecap:round;stroke-linejoin:miter;stroke:rgb(99.998474%,99.998474%,99.998474%);stroke-opacity:1;stroke-miterlimit:4;" d="M 44.089844 51.320312 L 44.089844 52.460938 L 46.363281 52.460938 L 46.363281 50.183594 "/>
<path style="fill:none;stroke-width:0.568889;stroke-linecap:round;stroke-linejoin:miter;stroke:rgb(99.998474%,99.998474%,99.998474%);stroke-opacity:1;stroke-miterlimit:4;" d="M 45.226562 50.183594 L 45.226562 52.460938 "/>
<path style="fill:none;stroke-width:0.568889;stroke-linecap:round;stroke-linejoin:miter;stroke:rgb(99.998474%,99.998474%,99.998474%);stroke-opacity:1;stroke-miterlimit:4;" d="M 37.261719 52.460938 L 37.261719 52.460938 "/>
<path style="fill:none;stroke-width:0.679952;stroke-linecap:round;stroke-linejoin:miter;stroke:rgb(99.998474%,99.998474%,99.998474%);stroke-opacity:1;stroke-miterlimit:4;" d="M 36.125 48.925781 L 40.675781 48.925781 "/>
<path style="fill:none;stroke-width:0.679952;stroke-linecap:round;stroke-linejoin:miter;stroke:rgb(99.998474%,99.998474%,99.998474%);stroke-opacity:1;stroke-miterlimit:4;" d="M 41.8125 48.925781 L 46.363281 48.925781 "/>
<path style="fill:none;stroke-width:0.568889;stroke-linecap:round;stroke-linejoin:miter;stroke:rgb(99.998474%,99.998474%,99.998474%);stroke-opacity:1;stroke-miterlimit:4;" d="M 47.503906 20.683594 L 54.328125 20.683594 "/>
<path style="fill:none;stroke-width:0.568889;stroke-linecap:round;stroke-linejoin:miter;stroke:rgb(99.998474%,99.998474%,99.998474%);stroke-opacity:1;stroke-miterlimit:4;" d="M 47.503906 22.957031 L 47.503906 21.820312 L 49.777344 21.820312 L 49.777344 22.957031 L 52.054688 22.957031 L 52.054688 21.820312 L 50.914062 21.820312 "/>
<path style="fill:none;stroke-width:0.568889;stroke-linecap:round;stroke-linejoin:miter;stroke:rgb(99.998474%,99.998474%,99.998474%);stroke-opacity:1;stroke-miterlimit:4;" d="M 54.328125 22.957031 L 53.191406 22.957031 L 53.191406 21.820312 L 55.464844 21.820312 L 55.464844 20.683594 "/>
<path style="fill:none;stroke-width:0.568889;stroke-linecap:round;stroke-linejoin:miter;stroke:rgb(99.998474%,99.998474%,99.998474%);stroke-opacity:1;stroke-miterlimit:4;" d="M 55.464844 21.820312 L 55.464844 22.957031 L 57.742188 22.957031 L 57.742188 20.683594 "/>
<path style="fill:none;stroke-width:0.568889;stroke-linecap:round;stroke-linejoin:miter;stroke:rgb(99.998474%,99.998474%,99.998474%);stroke-opacity:1;stroke-miterlimit:4;" d="M 56.605469 20.683594 L 56.605469 22.957031 "/>
<path style="fill:none;stroke-width:0.568889;stroke-linecap:round;stroke-linejoin:miter;stroke:rgb(99.998474%,99.998474%,99.998474%);stroke-opacity:1;stroke-miterlimit:4;" d="M 48.640625 22.957031 L 48.640625 22.957031 "/>
<path style="fill:none;stroke-width:0.679952;stroke-linecap:round;stroke-linejoin:miter;stroke:rgb(99.998474%,99.998474%,99.998474%);stroke-opacity:1;stroke-miterlimit:4;" d="M 47.503906 24.21875 L 52.054688 24.21875 "/>
<path style="fill:none;stroke-width:0.679952;stroke-linecap:round;stroke-linejoin:miter;stroke:rgb(99.998474%,99.998474%,99.998474%);stroke-opacity:1;stroke-miterlimit:4;" d="M 53.191406 24.21875 L 57.742188 24.21875 "/>
<path style="fill:none;stroke-width:0.568889;stroke-linecap:round;stroke-linejoin:miter;stroke:rgb(99.998474%,99.998474%,99.998474%);stroke-opacity:1;stroke-miterlimit:4;" d="M 47.503906 50.183594 L 54.328125 50.183594 "/>
<path style="fill:none;stroke-width:0.568889;stroke-linecap:round;stroke-linejoin:miter;stroke:rgb(99.998474%,99.998474%,99.998474%);stroke-opacity:1;stroke-miterlimit:4;" d="M 47.503906 52.460938 L 47.503906 51.320312 L 49.777344 51.320312 L 49.777344 52.460938 L 52.054688 52.460938 L 52.054688 51.320312 L 50.914062 51.320312 "/>
<path style="fill:none;stroke-width:0.568889;stroke-linecap:round;stroke-linejoin:miter;stroke:rgb(99.998474%,99.998474%,99.998474%);stroke-opacity:1;stroke-miterlimit:4;" d="M 54.328125 52.460938 L 53.191406 52.460938 L 53.191406 51.320312 L 55.464844 51.320312 L 55.464844 50.183594 "/>
<path style="fill:none;stroke-width:0.568889;stroke-linecap:round;stroke-linejoin:miter;stroke:rgb(99.998474%,99.998474%,99.998474%);stroke-opacity:1;stroke-miterlimit:4;" d="M 55.464844 51.320312 L 55.464844 52.460938 L 57.742188 52.460938 L 57.742188 50.183594 "/>
<path style="fill:none;stroke-width:0.568889;stroke-linecap:round;stroke-linejoin:miter;stroke:rgb(99.998474%,99.998474%,99.998474%);stroke-opacity:1;stroke-miterlimit:4;" d="M 56.605469 50.183594 L 56.605469 52.460938 "/>
<path style="fill:none;stroke-width:0.568889;stroke-linecap:round;stroke-linejoin:miter;stroke:rgb(99.998474%,99.998474%,99.998474%);stroke-opacity:1;stroke-miterlimit:4;" d="M 48.640625 52.460938 L 48.640625 52.460938 "/>
<path style="fill:none;stroke-width:0.679952;stroke-linecap:round;stroke-linejoin:miter;stroke:rgb(99.998474%,99.998474%,99.998474%);stroke-opacity:1;stroke-miterlimit:4;" d="M 47.503906 48.925781 L 52.054688 48.925781 "/>
<path style="fill:none;stroke-width:0.679952;stroke-linecap:round;stroke-linejoin:miter;stroke:rgb(99.998474%,99.998474%,99.998474%);stroke-opacity:1;stroke-miterlimit:4;" d="M 53.191406 48.925781 L 57.742188 48.925781 "/>
<path style="fill:none;stroke-width:0.568889;stroke-linecap:round;stroke-linejoin:miter;stroke:rgb(99.998474%,99.998474%,99.998474%);stroke-opacity:1;stroke-miterlimit:4;" d="M 104.390625 20.683594 L 111.21875 20.683594 "/>
<path style="fill:none;stroke-width:0.568889;stroke-linecap:round;stroke-linejoin:miter;stroke:rgb(99.998474%,99.998474%,99.998474%);stroke-opacity:1;stroke-miterlimit:4;" d="M 104.390625 22.957031 L 104.390625 21.820312 L 106.667969 21.820312 L 106.667969 22.957031 L 108.941406 22.957031 L 108.941406 21.820312 L 107.804688 21.820312 "/>
<path style="fill:none;stroke-width:0.568889;stroke-linecap:round;stroke-linejoin:miter;stroke:rgb(99.998474%,99.998474%,99.998474%);stroke-opacity:1;stroke-miterlimit:4;" d="M 111.21875 22.957031 L 110.082031 22.957031 L 110.082031 21.820312 L 112.355469 21.820312 L 112.355469 20.683594 "/>
<path style="fill:none;stroke-width:0.568889;stroke-linecap:round;stroke-linejoin:miter;stroke:rgb(99.998474%,99.998474%,99.998474%);stroke-opacity:1;stroke-miterlimit:4;" d="M 112.355469 21.820312 L 112.355469 22.957031 L 114.632812 22.957031 L 114.632812 20.683594 "/>
<path style="fill:none;stroke-width:0.568889;stroke-linecap:round;stroke-linejoin:miter;stroke:rgb(99.998474%,99.998474%,99.998474%);stroke-opacity:1;stroke-miterlimit:4;" d="M 113.492188 20.683594 L 113.492188 22.957031 "/>
<path style="fill:none;stroke-width:0.568889;stroke-linecap:round;stroke-linejoin:miter;stroke:rgb(99.998474%,99.998474%,99.998474%);stroke-opacity:1;stroke-miterlimit:4;" d="M 105.527344 22.957031 L 105.53125 22.957031 "/>
<path style="fill:none;stroke-width:0.679952;stroke-linecap:round;stroke-linejoin:miter;stroke:rgb(99.998474%,99.998474%,99.998474%);stroke-opacity:1;stroke-miterlimit:4;" d="M 104.390625 24.21875 L 108.941406 24.21875 "/>
<path style="fill:none;stroke-width:0.679952;stroke-linecap:round;stroke-linejoin:miter;stroke:rgb(99.998474%,99.998474%,99.998474%);stroke-opacity:1;stroke-miterlimit:4;" d="M 110.082031 24.21875 L 114.632812 24.21875 "/>
<path style="fill:none;stroke-width:0.568889;stroke-linecap:round;stroke-linejoin:miter;stroke:rgb(99.998474%,99.998474%,99.998474%);stroke-opacity:1;stroke-miterlimit:4;" d="M 104.390625 50.183594 L 111.21875 50.183594 "/>
<path style="fill:none;stroke-width:0.568889;stroke-linecap:round;stroke-linejoin:miter;stroke:rgb(99.998474%,99.998474%,99.998474%);stroke-opacity:1;stroke-miterlimit:4;" d="M 104.390625 52.460938 L 104.390625 51.320312 L 106.667969 51.320312 L 106.667969 52.460938 L 108.941406 52.460938 L 108.941406 51.320312 L 107.804688 51.320312 "/>
<path style="fill:none;stroke-width:0.568889;stroke-linecap:round;stroke-linejoin:miter;stroke:rgb(99.998474%,99.998474%,99.998474%);stroke-opacity:1;stroke-miterlimit:4;" d="M 111.21875 52.460938 L 110.082031 52.460938 L 110.082031 51.320312 L 112.355469 51.320312 L 112.355469 50.183594 "/>
<path style="fill:none;stroke-width:0.568889;stroke-linecap:round;stroke-linejoin:miter;stroke:rgb(99.998474%,99.998474%,99.998474%);stroke-opacity:1;stroke-miterlimit:4;" d="M 112.355469 51.320312 L 112.355469 52.460938 L 114.632812 52.460938 L 114.632812 50.183594 "/>
<path style="fill:none;stroke-width:0.568889;stroke-linecap:round;stroke-linejoin:miter;stroke:rgb(99.998474%,99.998474%,99.998474%);stroke-opacity:1;stroke-miterlimit:4;" d="M 113.492188 50.183594 L 113.492188 52.460938 "/>
<path style="fill:none;stroke-width:0.568889;stroke-linecap:round;stroke-linejoin:miter;stroke:rgb(99.998474%,99.998474%,99.998474%);stroke-opacity:1;stroke-miterlimit:4;" d="M 105.527344 52.460938 L 105.53125 52.460938 "/>
<path style="fill:none;stroke-width:0.679952;stroke-linecap:round;stroke-linejoin:miter;stroke:rgb(99.998474%,99.998474%,99.998474%);stroke-opacity:1;stroke-miterlimit:4;" d="M 104.390625 48.925781 L 108.941406 48.925781 "/>
<path style="fill:none;stroke-width:0.679952;stroke-linecap:round;stroke-linejoin:miter;stroke:rgb(99.998474%,99.998474%,99.998474%);stroke-opacity:1;stroke-miterlimit:4;" d="M 110.082031 48.925781 L 114.632812 48.925781 "/>
<path style="fill:none;stroke-width:0.568889;stroke-linecap:round;stroke-linejoin:miter;stroke:rgb(99.998474%,99.998474%,99.998474%);stroke-opacity:1;stroke-miterlimit:4;" d="M 115.769531 20.683594 L 122.59375 20.683594 "/>
<path style="fill:none;stroke-width:0.568889;stroke-linecap:round;stroke-linejoin:miter;stroke:rgb(99.998474%,99.998474%,99.998474%);stroke-opacity:1;stroke-miterlimit:4;" d="M 115.769531 22.957031 L 115.769531 21.820312 L 118.042969 21.820312 L 118.042969 22.957031 L 120.320312 22.957031 L 120.320312 21.820312 L 119.183594 21.820312 "/>
<path style="fill:none;stroke-width:0.568889;stroke-linecap:round;stroke-linejoin:miter;stroke:rgb(99.998474%,99.998474%,99.998474%);stroke-opacity:1;stroke-miterlimit:4;" d="M 122.59375 22.957031 L 121.457031 22.957031 L 121.457031 21.820312 L 123.734375 21.820312 L 123.734375 20.683594 "/>
<path style="fill:none;stroke-width:0.568889;stroke-linecap:round;stroke-linejoin:miter;stroke:rgb(99.998474%,99.998474%,99.998474%);stroke-opacity:1;stroke-miterlimit:4;" d="M 123.734375 21.820312 L 123.734375 22.957031 L 126.007812 22.957031 L 126.007812 20.683594 "/>
<path style="fill:none;stroke-width:0.568889;stroke-linecap:round;stroke-linejoin:miter;stroke:rgb(99.998474%,99.998474%,99.998474%);stroke-opacity:1;stroke-miterlimit:4;" d="M 124.871094 20.683594 L 124.871094 22.957031 "/>
<path style="fill:none;stroke-width:0.568889;stroke-linecap:round;stroke-linejoin:miter;stroke:rgb(99.998474%,99.998474%,99.998474%);stroke-opacity:1;stroke-miterlimit:4;" d="M 116.90625 22.957031 L 116.90625 22.957031 "/>
<path style="fill:none;stroke-width:0.679952;stroke-linecap:round;stroke-linejoin:miter;stroke:rgb(99.998474%,99.998474%,99.998474%);stroke-opacity:1;stroke-miterlimit:4;" d="M 115.769531 24.21875 L 120.320312 24.21875 "/>
<path style="fill:none;stroke-width:0.679952;stroke-linecap:round;stroke-linejoin:miter;stroke:rgb(99.998474%,99.998474%,99.998474%);stroke-opacity:1;stroke-miterlimit:4;" d="M 121.457031 24.21875 L 126.007812 24.21875 "/>
<path style="fill:none;stroke-width:0.568889;stroke-linecap:round;stroke-linejoin:miter;stroke:rgb(99.998474%,99.998474%,99.998474%);stroke-opacity:1;stroke-miterlimit:4;" d="M 115.769531 50.183594 L 122.59375 50.183594 "/>
<path style="fill:none;stroke-width:0.568889;stroke-linecap:round;stroke-linejoin:miter;stroke:rgb(99.998474%,99.998474%,99.998474%);stroke-opacity:1;stroke-miterlimit:4;" d="M 115.769531 52.460938 L 115.769531 51.320312 L 118.042969 51.320312 L 118.042969 52.460938 L 120.320312 52.460938 L 120.320312 51.320312 L 119.183594 51.320312 "/>
<path style="fill:none;stroke-width:0.568889;stroke-linecap:round;stroke-linejoin:miter;stroke:rgb(99.998474%,99.998474%,99.998474%);stroke-opacity:1;stroke-miterlimit:4;" d="M 122.59375 52.460938 L 121.457031 52.460938 L 121.457031 51.320312 L 123.734375 51.320312 L 123.734375 50.183594 "/>
<path style="fill:none;stroke-width:0.568889;stroke-linecap:round;stroke-linejoin:miter;stroke:rgb(99.998474%,99.998474%,99.998474%);stroke-opacity:1;stroke-miterlimit:4;" d="M 123.734375 51.320312 L 123.734375 52.460938 L 126.007812 52.460938 L 126.007812 50.183594 "/>
<path style="fill:none;stroke-width:0.568889;stroke-linecap:round;stroke-linejoin:miter;stroke:rgb(99.998474%,99.998474%,99.998474%);stroke-opacity:1;stroke-miterlimit:4;" d="M 124.871094 50.183594 L 124.871094 52.460938 "/>
<path style="fill:none;stroke-width:0.568889;stroke-linecap:round;stroke-linejoin:miter;stroke:rgb(99.998474%,99.998474%,99.998474%);stroke-opacity:1;stroke-miterlimit:4;" d="M 116.90625 52.460938 L 116.90625 52.460938 "/>
<path style="fill:none;stroke-width:0.679952;stroke-linecap:round;stroke-linejoin:miter;stroke:rgb(99.998474%,99.998474%,99.998474%);stroke-opacity:1;stroke-miterlimit:4;" d="M 115.769531 48.925781 L 120.320312 48.925781 "/>
<path style="fill:none;stroke-width:0.679952;stroke-linecap:round;stroke-linejoin:miter;stroke:rgb(99.998474%,99.998474%,99.998474%);stroke-opacity:1;stroke-miterlimit:4;" d="M 121.457031 48.925781 L 126.007812 48.925781 "/>
<path style="fill:none;stroke-width:0.568889;stroke-linecap:round;stroke-linejoin:miter;stroke:rgb(99.998474%,99.998474%,99.998474%);stroke-opacity:1;stroke-miterlimit:4;" d="M 81.636719 20.683594 L 88.460938 20.683594 "/>
<path style="fill:none;stroke-width:0.568889;stroke-linecap:round;stroke-linejoin:miter;stroke:rgb(99.998474%,99.998474%,99.998474%);stroke-opacity:1;stroke-miterlimit:4;" d="M 81.636719 22.957031 L 81.636719 21.820312 L 83.910156 21.820312 L 83.910156 22.957031 L 86.1875 22.957031 L 86.1875 21.820312 L 85.046875 21.820312 "/>
<path style="fill:none;stroke-width:0.568889;stroke-linecap:round;stroke-linejoin:miter;stroke:rgb(99.998474%,99.998474%,99.998474%);stroke-opacity:1;stroke-miterlimit:4;" d="M 88.460938 22.957031 L 87.324219 22.957031 L 87.324219 21.820312 L 89.601562 21.820312 L 89.601562 20.683594 "/>
<path style="fill:none;stroke-width:0.568889;stroke-linecap:round;stroke-linejoin:miter;stroke:rgb(99.998474%,99.998474%,99.998474%);stroke-opacity:1;stroke-miterlimit:4;" d="M 89.601562 21.820312 L 89.601562 22.957031 L 91.875 22.957031 L 91.875 20.683594 "/>
<path style="fill:none;stroke-width:0.568889;stroke-linecap:round;stroke-linejoin:miter;stroke:rgb(99.998474%,99.998474%,99.998474%);stroke-opacity:1;stroke-miterlimit:4;" d="M 90.738281 20.683594 L 90.738281 22.957031 "/>
<path style="fill:none;stroke-width:0.568889;stroke-linecap:round;stroke-linejoin:miter;stroke:rgb(99.998474%,99.998474%,99.998474%);stroke-opacity:1;stroke-miterlimit:4;" d="M 82.773438 22.957031 L 82.773438 22.957031 "/>
<path style="fill:none;stroke-width:0.679952;stroke-linecap:round;stroke-linejoin:miter;stroke:rgb(99.998474%,99.998474%,99.998474%);stroke-opacity:1;stroke-miterlimit:4;" d="M 81.636719 24.21875 L 86.1875 24.21875 "/>
<path style="fill:none;stroke-width:0.679952;stroke-linecap:round;stroke-linejoin:miter;stroke:rgb(99.998474%,99.998474%,99.998474%);stroke-opacity:1;stroke-miterlimit:4;" d="M 87.324219 24.21875 L 91.875 24.21875 "/>
<path style="fill:none;stroke-width:0.568889;stroke-linecap:round;stroke-linejoin:miter;stroke:rgb(99.998474%,99.998474%,99.998474%);stroke-opacity:1;stroke-miterlimit:4;" d="M 81.636719 50.183594 L 88.460938 50.183594 "/>
<path style="fill:none;stroke-width:0.568889;stroke-linecap:round;stroke-linejoin:miter;stroke:rgb(99.998474%,99.998474%,99.998474%);stroke-opacity:1;stroke-miterlimit:4;" d="M 81.636719 52.460938 L 81.636719 51.320312 L 83.910156 51.320312 L 83.910156 52.460938 L 86.1875 52.460938 L 86.1875 51.320312 L 85.046875 51.320312 "/>
<path style="fill:none;stroke-width:0.568889;stroke-linecap:round;stroke-linejoin:miter;stroke:rgb(99.998474%,99.998474%,99.998474%);stroke-opacity:1;stroke-miterlimit:4;" d="M 88.460938 52.460938 L 87.324219 52.460938 L 87.324219 51.320312 L 89.601562 51.320312 L 89.601562 50.183594 "/>
<path style="fill:none;stroke-width:0.568889;stroke-linecap:round;stroke-linejoin:miter;stroke:rgb(99.998474%,99.998474%,99.998474%);stroke-opacity:1;stroke-miterlimit:4;" d="M 89.601562 51.320312 L 89.601562 52.460938 L 91.875 52.460938 L 91.875 50.183594 "/>
<path style="fill:none;stroke-width:0.568889;stroke-linecap:round;stroke-linejoin:miter;stroke:rgb(99.998474%,99.998474%,99.998474%);stroke-opacity:1;stroke-miterlimit:4;" d="M 90.738281 50.183594 L 90.738281 52.460938 "/>
<path style="fill:none;stroke-width:0.568889;stroke-linecap:round;stroke-linejoin:miter;stroke:rgb(99.998474%,99.998474%,99.998474%);stroke-opacity:1;stroke-miterlimit:4;" d="M 82.773438 52.460938 L 82.773438 52.460938 "/>
<path style="fill:none;stroke-width:0.679952;stroke-linecap:round;stroke-linejoin:miter;stroke:rgb(99.998474%,99.998474%,99.998474%);stroke-opacity:1;stroke-miterlimit:4;" d="M 81.636719 48.925781 L 86.1875 48.925781 "/>
<path style="fill:none;stroke-width:0.679952;stroke-linecap:round;stroke-linejoin:miter;stroke:rgb(99.998474%,99.998474%,99.998474%);stroke-opacity:1;stroke-miterlimit:4;" d="M 87.324219 48.925781 L 91.875 48.925781 "/>
<path style="fill:none;stroke-width:0.568889;stroke-linecap:round;stroke-linejoin:miter;stroke:rgb(99.998474%,99.998474%,99.998474%);stroke-opacity:1;stroke-miterlimit:4;" d="M 93.011719 20.683594 L 99.839844 20.683594 "/>
<path style="fill:none;stroke-width:0.568889;stroke-linecap:round;stroke-linejoin:miter;stroke:rgb(99.998474%,99.998474%,99.998474%);stroke-opacity:1;stroke-miterlimit:4;" d="M 93.011719 22.957031 L 93.011719 21.820312 L 95.289062 21.820312 L 95.289062 22.957031 L 97.5625 22.957031 L 97.5625 21.820312 L 96.425781 21.820312 "/>
<path style="fill:none;stroke-width:0.568889;stroke-linecap:round;stroke-linejoin:miter;stroke:rgb(99.998474%,99.998474%,99.998474%);stroke-opacity:1;stroke-miterlimit:4;" d="M 99.839844 22.957031 L 98.703125 22.957031 L 98.703125 21.820312 L 100.976562 21.820312 L 100.976562 20.683594 "/>
<path style="fill:none;stroke-width:0.568889;stroke-linecap:round;stroke-linejoin:miter;stroke:rgb(99.998474%,99.998474%,99.998474%);stroke-opacity:1;stroke-miterlimit:4;" d="M 100.976562 21.820312 L 100.976562 22.957031 L 103.253906 22.957031 L 103.253906 20.683594 "/>
<path style="fill:none;stroke-width:0.568889;stroke-linecap:round;stroke-linejoin:miter;stroke:rgb(99.998474%,99.998474%,99.998474%);stroke-opacity:1;stroke-miterlimit:4;" d="M 102.117188 20.683594 L 102.117188 22.957031 "/>
<path style="fill:none;stroke-width:0.568889;stroke-linecap:round;stroke-linejoin:miter;stroke:rgb(99.998474%,99.998474%,99.998474%);stroke-opacity:1;stroke-miterlimit:4;" d="M 94.152344 22.957031 L 94.152344 22.957031 "/>
<path style="fill:none;stroke-width:0.679952;stroke-linecap:round;stroke-linejoin:miter;stroke:rgb(99.998474%,99.998474%,99.998474%);stroke-opacity:1;stroke-miterlimit:4;" d="M 93.011719 24.21875 L 97.5625 24.21875 "/>
<path style="fill:none;stroke-width:0.679952;stroke-linecap:round;stroke-linejoin:miter;stroke:rgb(99.998474%,99.998474%,99.998474%);stroke-opacity:1;stroke-miterlimit:4;" d="M 98.703125 24.21875 L 103.253906 24.21875 "/>
<path style="fill:none;stroke-width:0.568889;stroke-linecap:round;stroke-linejoin:miter;stroke:rgb(99.998474%,99.998474%,99.998474%);stroke-opacity:1;stroke-miterlimit:4;" d="M 93.011719 50.183594 L 99.839844 50.183594 "/>
<path style="fill:none;stroke-width:0.568889;stroke-linecap:round;stroke-linejoin:miter;stroke:rgb(99.998474%,99.998474%,99.998474%);stroke-opacity:1;stroke-miterlimit:4;" d="M 93.011719 52.460938 L 93.011719 51.320312 L 95.289062 51.320312 L 95.289062 52.460938 L 97.5625 52.460938 L 97.5625 51.320312 L 96.425781 51.320312 "/>
<path style="fill:none;stroke-width:0.568889;stroke-linecap:round;stroke-linejoin:miter;stroke:rgb(99.998474%,99.998474%,99.998474%);stroke-opacity:1;stroke-miterlimit:4;" d="M 99.839844 52.460938 L 98.703125 52.460938 L 98.703125 51.320312 L 100.976562 51.320312 L 100.976562 50.183594 "/>
<path style="fill:none;stroke-width:0.568889;stroke-linecap:round;stroke-linejoin:miter;stroke:rgb(99.998474%,99.998474%,99.998474%);stroke-opacity:1;stroke-miterlimit:4;" d="M 100.976562 51.320312 L 100.976562 52.460938 L 103.253906 52.460938 L 103.253906 50.183594 "/>
<path style="fill:none;stroke-width:0.568889;stroke-linecap:round;stroke-linejoin:miter;stroke:rgb(99.998474%,99.998474%,99.998474%);stroke-opacity:1;stroke-miterlimit:4;" d="M 102.117188 50.183594 L 102.117188 52.460938 "/>
<path style="fill:none;stroke-width:0.568889;stroke-linecap:round;stroke-linejoin:miter;stroke:rgb(99.998474%,99.998474%,99.998474%);stroke-opacity:1;stroke-miterlimit:4;" d="M 94.152344 52.460938 L 94.152344 52.460938 "/>
<path style="fill:none;stroke-width:0.679952;stroke-linecap:round;stroke-linejoin:miter;stroke:rgb(99.998474%,99.998474%,99.998474%);stroke-opacity:1;stroke-miterlimit:4;" d="M 93.011719 48.925781 L 97.5625 48.925781 "/>
<path style="fill:none;stroke-width:0.679952;stroke-linecap:round;stroke-linejoin:miter;stroke:rgb(99.998474%,99.998474%,99.998474%);stroke-opacity:1;stroke-miterlimit:4;" d="M 98.703125 48.925781 L 103.253906 48.925781 "/>
<path style="fill:none;stroke-width:0.568889;stroke-linecap:round;stroke-linejoin:miter;stroke:rgb(99.998474%,99.998474%,99.998474%);stroke-opacity:1;stroke-miterlimit:4;" d="M 24.746094 20.683594 L 31.574219 20.683594 "/>
<path style="fill:none;stroke-width:0.568889;stroke-linecap:round;stroke-linejoin:miter;stroke:rgb(99.998474%,99.998474%,99.998474%);stroke-opacity:1;stroke-miterlimit:4;" d="M 24.746094 22.957031 L 24.746094 21.820312 L 27.023438 21.820312 L 27.023438 22.957031 L 29.296875 22.957031 L 29.296875 21.820312 L 28.160156 21.820312 "/>
<path style="fill:none;stroke-width:0.568889;stroke-linecap:round;stroke-linejoin:miter;stroke:rgb(99.998474%,99.998474%,99.998474%);stroke-opacity:1;stroke-miterlimit:4;" d="M 31.574219 22.957031 L 30.4375 22.957031 L 30.4375 21.820312 L 32.710938 21.820312 L 32.710938 20.683594 "/>
<path style="fill:none;stroke-width:0.568889;stroke-linecap:round;stroke-linejoin:miter;stroke:rgb(99.998474%,99.998474%,99.998474%);stroke-opacity:1;stroke-miterlimit:4;" d="M 32.710938 21.820312 L 32.710938 22.957031 L 34.988281 22.957031 L 34.988281 20.683594 "/>
<path style="fill:none;stroke-width:0.568889;stroke-linecap:round;stroke-linejoin:miter;stroke:rgb(99.998474%,99.998474%,99.998474%);stroke-opacity:1;stroke-miterlimit:4;" d="M 33.847656 20.683594 L 33.847656 22.957031 "/>
<path style="fill:none;stroke-width:0.568889;stroke-linecap:round;stroke-linejoin:miter;stroke:rgb(99.998474%,99.998474%,99.998474%);stroke-opacity:1;stroke-miterlimit:4;" d="M 25.882812 22.957031 L 25.886719 22.957031 "/>
<path style="fill:none;stroke-width:0.679952;stroke-linecap:round;stroke-linejoin:miter;stroke:rgb(99.998474%,99.998474%,99.998474%);stroke-opacity:1;stroke-miterlimit:4;" d="M 24.746094 24.21875 L 29.296875 24.21875 "/>
<path style="fill:none;stroke-width:0.679952;stroke-linecap:round;stroke-linejoin:miter;stroke:rgb(99.998474%,99.998474%,99.998474%);stroke-opacity:1;stroke-miterlimit:4;" d="M 30.4375 24.21875 L 34.988281 24.21875 "/>
<path style="fill:none;stroke-width:0.568889;stroke-linecap:round;stroke-linejoin:miter;stroke:rgb(99.998474%,99.998474%,99.998474%);stroke-opacity:1;stroke-miterlimit:4;" d="M 24.746094 50.183594 L 31.574219 50.183594 "/>
<path style="fill:none;stroke-width:0.568889;stroke-linecap:round;stroke-linejoin:miter;stroke:rgb(99.998474%,99.998474%,99.998474%);stroke-opacity:1;stroke-miterlimit:4;" d="M 24.746094 52.460938 L 24.746094 51.320312 L 27.023438 51.320312 L 27.023438 52.460938 L 29.296875 52.460938 L 29.296875 51.320312 L 28.160156 51.320312 "/>
<path style="fill:none;stroke-width:0.568889;stroke-linecap:round;stroke-linejoin:miter;stroke:rgb(99.998474%,99.998474%,99.998474%);stroke-opacity:1;stroke-miterlimit:4;" d="M 31.574219 52.460938 L 30.4375 52.460938 L 30.4375 51.320312 L 32.710938 51.320312 L 32.710938 50.183594 "/>
<path style="fill:none;stroke-width:0.568889;stroke-linecap:round;stroke-linejoin:miter;stroke:rgb(99.998474%,99.998474%,99.998474%);stroke-opacity:1;stroke-miterlimit:4;" d="M 32.710938 51.320312 L 32.710938 52.460938 L 34.988281 52.460938 L 34.988281 50.183594 "/>
<path style="fill:none;stroke-width:0.568889;stroke-linecap:round;stroke-linejoin:miter;stroke:rgb(99.998474%,99.998474%,99.998474%);stroke-opacity:1;stroke-miterlimit:4;" d="M 33.847656 50.183594 L 33.847656 52.460938 "/>
<path style="fill:none;stroke-width:0.568889;stroke-linecap:round;stroke-linejoin:miter;stroke:rgb(99.998474%,99.998474%,99.998474%);stroke-opacity:1;stroke-miterlimit:4;" d="M 25.882812 52.460938 L 25.886719 52.460938 "/>
<path style="fill:none;stroke-width:0.679952;stroke-linecap:round;stroke-linejoin:miter;stroke:rgb(99.998474%,99.998474%,99.998474%);stroke-opacity:1;stroke-miterlimit:4;" d="M 24.746094 48.925781 L 29.296875 48.925781 "/>
<path style="fill:none;stroke-width:0.679952;stroke-linecap:round;stroke-linejoin:miter;stroke:rgb(99.998474%,99.998474%,99.998474%);stroke-opacity:1;stroke-miterlimit:4;" d="M 30.4375 48.925781 L 34.988281 48.925781 "/>
<path style="fill:none;stroke-width:0.568889;stroke-linecap:round;stroke-linejoin:miter;stroke:rgb(99.998474%,99.998474%,99.998474%);stroke-opacity:1;stroke-miterlimit:4;" d="M 1.992188 20.683594 L 8.816406 20.683594 "/>
<path style="fill:none;stroke-width:0.568889;stroke-linecap:round;stroke-linejoin:miter;stroke:rgb(99.998474%,99.998474%,99.998474%);stroke-opacity:1;stroke-miterlimit:4;" d="M 1.992188 22.957031 L 1.992188 21.820312 L 4.265625 21.820312 L 4.265625 22.957031 L 6.542969 22.957031 L 6.542969 21.820312 L 5.40625 21.820312 "/>
<path style="fill:none;stroke-width:0.568889;stroke-linecap:round;stroke-linejoin:miter;stroke:rgb(99.998474%,99.998474%,99.998474%);stroke-opacity:1;stroke-miterlimit:4;" d="M 8.816406 22.957031 L 7.679688 22.957031 L 7.679688 21.820312 L 9.957031 21.820312 L 9.957031 20.683594 "/>
<path style="fill:none;stroke-width:0.568889;stroke-linecap:round;stroke-linejoin:miter;stroke:rgb(99.998474%,99.998474%,99.998474%);stroke-opacity:1;stroke-miterlimit:4;" d="M 9.957031 21.820312 L 9.957031 22.957031 L 12.230469 22.957031 L 12.230469 20.683594 "/>
<path style="fill:none;stroke-width:0.568889;stroke-linecap:round;stroke-linejoin:miter;stroke:rgb(99.998474%,99.998474%,99.998474%);stroke-opacity:1;stroke-miterlimit:4;" d="M 11.09375 20.683594 L 11.09375 22.957031 "/>
<path style="fill:none;stroke-width:0.568889;stroke-linecap:round;stroke-linejoin:miter;stroke:rgb(99.998474%,99.998474%,99.998474%);stroke-opacity:1;stroke-miterlimit:4;" d="M 3.128906 22.957031 L 3.128906 22.957031 "/>
<path style="fill:none;stroke-width:0.679952;stroke-linecap:round;stroke-linejoin:miter;stroke:rgb(99.998474%,99.998474%,99.998474%);stroke-opacity:1;stroke-miterlimit:4;" d="M 1.992188 24.21875 L 6.542969 24.21875 "/>
<path style="fill:none;stroke-width:0.679952;stroke-linecap:round;stroke-linejoin:miter;stroke:rgb(99.998474%,99.998474%,99.998474%);stroke-opacity:1;stroke-miterlimit:4;" d="M 7.679688 24.21875 L 12.230469 24.21875 "/>
<path style="fill:none;stroke-width:0.568889;stroke-linecap:round;stroke-linejoin:miter;stroke:rgb(99.998474%,99.998474%,99.998474%);stroke-opacity:1;stroke-miterlimit:4;" d="M 1.992188 50.183594 L 8.816406 50.183594 "/>
<path style="fill:none;stroke-width:0.568889;stroke-linecap:round;stroke-linejoin:miter;stroke:rgb(99.998474%,99.998474%,99.998474%);stroke-opacity:1;stroke-miterlimit:4;" d="M 1.992188 52.460938 L 1.992188 51.320312 L 4.265625 51.320312 L 4.265625 52.460938 L 6.542969 52.460938 L 6.542969 51.320312 L 5.40625 51.320312 "/>
<path style="fill:none;stroke-width:0.568889;stroke-linecap:round;stroke-linejoin:miter;stroke:rgb(99.998474%,99.998474%,99.998474%);stroke-opacity:1;stroke-miterlimit:4;" d="M 8.816406 52.460938 L 7.679688 52.460938 L 7.679688 51.320312 L 9.957031 51.320312 L 9.957031 50.183594 "/>
<path style="fill:none;stroke-width:0.568889;stroke-linecap:round;stroke-linejoin:miter;stroke:rgb(99.998474%,99.998474%,99.998474%);stroke-opacity:1;stroke-miterlimit:4;" d="M 9.957031 51.320312 L 9.957031 52.460938 L 12.230469 52.460938 L 12.230469 50.183594 "/>
<path style="fill:none;stroke-width:0.568889;stroke-linecap:round;stroke-linejoin:miter;stroke:rgb(99.998474%,99.998474%,99.998474%);stroke-opacity:1;stroke-miterlimit:4;" d="M 11.09375 50.183594 L 11.09375 52.460938 "/>
<path style="fill:none;stroke-width:0.568889;stroke-linecap:round;stroke-linejoin:miter;stroke:rgb(99.998474%,99.998474%,99.998474%);stroke-opacity:1;stroke-miterlimit:4;" d="M 3.128906 52.460938 L 3.128906 52.460938 "/>
<path style="fill:none;stroke-width:0.679952;stroke-linecap:round;stroke-linejoin:miter;stroke:rgb(99.998474%,99.998474%,99.998474%);stroke-opacity:1;stroke-miterlimit:4;" d="M 1.992188 48.925781 L 6.542969 48.925781 "/>
<path style="fill:none;stroke-width:0.679952;stroke-linecap:round;stroke-linejoin:miter;stroke:rgb(99.998474%,99.998474%,99.998474%);stroke-opacity:1;stroke-miterlimit:4;" d="M 7.679688 48.925781 L 12.230469 48.925781 "/>
<path style="fill:none;stroke-width:0.568889;stroke-linecap:round;stroke-linejoin:miter;stroke:rgb(99.998474%,99.998474%,99.998474%);stroke-opacity:1;stroke-miterlimit:4;" d="M 13.367188 20.683594 L 20.195312 20.683594 "/>
<path style="fill:none;stroke-width:0.568889;stroke-linecap:round;stroke-linejoin:miter;stroke:rgb(99.998474%,99.998474%,99.998474%);stroke-opacity:1;stroke-miterlimit:4;" d="M 13.367188 22.957031 L 13.367188 21.820312 L 15.644531 21.820312 L 15.644531 22.957031 L 17.917969 22.957031 L 17.917969 21.820312 L 16.78125 21.820312 "/>
<path style="fill:none;stroke-width:0.568889;stroke-linecap:round;stroke-linejoin:miter;stroke:rgb(99.998474%,99.998474%,99.998474%);stroke-opacity:1;stroke-miterlimit:4;" d="M 20.195312 22.957031 L 19.058594 22.957031 L 19.058594 21.820312 L 21.332031 21.820312 L 21.332031 20.683594 "/>
<path style="fill:none;stroke-width:0.568889;stroke-linecap:round;stroke-linejoin:miter;stroke:rgb(99.998474%,99.998474%,99.998474%);stroke-opacity:1;stroke-miterlimit:4;" d="M 21.332031 21.820312 L 21.332031 22.957031 L 23.609375 22.957031 L 23.609375 20.683594 "/>
<path style="fill:none;stroke-width:0.568889;stroke-linecap:round;stroke-linejoin:miter;stroke:rgb(99.998474%,99.998474%,99.998474%);stroke-opacity:1;stroke-miterlimit:4;" d="M 22.472656 20.683594 L 22.472656 22.957031 "/>
<path style="fill:none;stroke-width:0.568889;stroke-linecap:round;stroke-linejoin:miter;stroke:rgb(99.998474%,99.998474%,99.998474%);stroke-opacity:1;stroke-miterlimit:4;" d="M 14.507812 22.957031 L 14.507812 22.957031 "/>
<path style="fill:none;stroke-width:0.679952;stroke-linecap:round;stroke-linejoin:miter;stroke:rgb(99.998474%,99.998474%,99.998474%);stroke-opacity:1;stroke-miterlimit:4;" d="M 13.367188 24.21875 L 17.917969 24.21875 "/>
<path style="fill:none;stroke-width:0.679952;stroke-linecap:round;stroke-linejoin:miter;stroke:rgb(99.998474%,99.998474%,99.998474%);stroke-opacity:1;stroke-miterlimit:4;" d="M 19.058594 24.21875 L 23.609375 24.21875 "/>
<path style="fill:none;stroke-width:0.568889;stroke-linecap:round;stroke-linejoin:miter;stroke:rgb(99.998474%,99.998474%,99.998474%);stroke-opacity:1;stroke-miterlimit:4;" d="M 13.367188 50.183594 L 20.195312 50.183594 "/>
<path style="fill:none;stroke-width:0.568889;stroke-linecap:round;stroke-linejoin:miter;stroke:rgb(99.998474%,99.998474%,99.998474%);stroke-opacity:1;stroke-miterlimit:4;" d="M 13.367188 52.460938 L 13.367188 51.320312 L 15.644531 51.320312 L 15.644531 52.460938 L 17.917969 52.460938 L 17.917969 51.320312 L 16.78125 51.320312 "/>
<path style="fill:none;stroke-width:0.568889;stroke-linecap:round;stroke-linejoin:miter;stroke:rgb(99.998474%,99.998474%,99.998474%);stroke-opacity:1;stroke-miterlimit:4;" d="M 20.195312 52.460938 L 19.058594 52.460938 L 19.058594 51.320312 L 21.332031 51.320312 L 21.332031 50.183594 "/>
<path style="fill:none;stroke-width:0.568889;stroke-linecap:round;stroke-linejoin:miter;stroke:rgb(99.998474%,99.998474%,99.998474%);stroke-opacity:1;stroke-miterlimit:4;" d="M 21.332031 51.320312 L 21.332031 52.460938 L 23.609375 52.460938 L 23.609375 50.183594 "/>
<path style="fill:none;stroke-width:0.568889;stroke-linecap:round;stroke-linejoin:miter;stroke:rgb(99.998474%,99.998474%,99.998474%);stroke-opacity:1;stroke-miterlimit:4;" d="M 22.472656 50.183594 L 22.472656 52.460938 "/>
<path style="fill:none;stroke-width:0.568889;stroke-linecap:round;stroke-linejoin:miter;stroke:rgb(99.998474%,99.998474%,99.998474%);stroke-opacity:1;stroke-miterlimit:4;" d="M 14.507812 52.460938 L 14.507812 52.460938 "/>
<path style="fill:none;stroke-width:0.679952;stroke-linecap:round;stroke-linejoin:miter;stroke:rgb(99.998474%,99.998474%,99.998474%);stroke-opacity:1;stroke-miterlimit:4;" d="M 13.367188 48.925781 L 17.917969 48.925781 "/>
<path style="fill:none;stroke-width:0.679952;stroke-linecap:round;stroke-linejoin:miter;stroke:rgb(99.998474%,99.998474%,99.998474%);stroke-opacity:1;stroke-miterlimit:4;" d="M 19.058594 48.925781 L 23.609375 48.925781 "/>
<path style=" stroke:none;fill-rule:evenodd;fill:rgb(85.488892%,0%,0%);fill-opacity:1;" d="M 67.722656 30.035156 C 67.722656 30.035156 74.339844 35.210938 69.476562 42.644531 C 74.058594 39.84375 74.453125 32.148438 67.722656 30.035156 Z M 67.722656 30.035156 "/>
<path style=" stroke:none;fill-rule:evenodd;fill:rgb(85.488892%,0%,0%);fill-opacity:1;" d="M 64 29.300781 C 62.945312 30.488281 61.136719 29.308594 61.757812 28.015625 C 62.847656 29.964844 64 28.390625 64 28.390625 C 64 28.390625 65.152344 29.964844 66.242188 28.015625 C 66.863281 29.308594 65.054688 30.488281 64 29.300781 Z M 64 29.300781 "/>
<path style=" stroke:none;fill-rule:evenodd;fill:rgb(85.488892%,0%,0%);fill-opacity:1;" d="M 64 45.414062 L 63.242188 44.425781 C 63.242188 44.425781 61.464844 45.019531 59.117188 44.199219 C 61.039062 44.199219 62.113281 43.859375 62.507812 43.664062 C 62.507812 43.664062 58.15625 41.316406 58.238281 36.539062 C 58.496094 31.703125 61.066406 30.234375 61.066406 30.234375 C 61.066406 30.234375 56.488281 36.90625 63.214844 42.480469 L 62.917969 35.582031 L 62.917969 30.515625 C 63.300781 30.425781 64 29.617188 64 29.617188 C 64 29.617188 64.699219 30.425781 65.082031 30.515625 L 65.082031 35.582031 L 64.785156 42.480469 C 71.511719 36.90625 66.933594 30.234375 66.933594 30.234375 C 66.933594 30.234375 69.503906 31.703125 69.761719 36.539062 C 69.84375 41.316406 65.492188 43.660156 65.492188 43.660156 C 65.886719 43.859375 66.960938 44.199219 68.882812 44.199219 C 66.535156 45.019531 64.757812 44.425781 64.757812 44.425781 Z M 64 45.414062 "/>
<path style=" stroke:none;fill-rule:evenodd;fill:rgb(85.488892%,0%,0%);fill-opacity:1;" d="M 60.277344 30.035156 C 60.277344 30.035156 53.660156 35.210938 58.523438 42.644531 C 53.941406 39.84375 53.546875 32.148438 60.277344 30.035156 Z M 60.277344 30.035156 "/>
</g>
</svg>
