<?xml version="1.0" encoding="UTF-8"?>
<svg xmlns="http://www.w3.org/2000/svg" xmlns:xlink="http://www.w3.org/1999/xlink" width="128pt" height="85pt" viewBox="0 0 128 85" version="1.1">
<defs>
<clipPath id="clip1">
  <path d="M 0 0 L 127.679688 0 L 127.679688 29 L 0 29 Z M 0 0 "/>
</clipPath>
<clipPath id="clip2">
  <path d="M 0 28 L 127.679688 28 L 127.679688 57 L 0 57 Z M 0 28 "/>
</clipPath>
<clipPath id="clip3">
  <path d="M 0 56 L 127.679688 56 L 127.679688 85 L 0 85 Z M 0 56 "/>
</clipPath>
</defs>
<g id="surface527">
<g clip-path="url(#clip1)" clip-rule="nonzero">
<path style=" stroke:none;fill-rule:evenodd;fill:rgb(80.783081%,6.666565%,14.901733%);fill-opacity:1;" d="M 0 0 L 127.5 0 L 127.5 28.332031 L 0 28.332031 Z M 0 0 "/>
</g>
<g clip-path="url(#clip2)" clip-rule="nonzero">
<path style=" stroke:none;fill-rule:evenodd;fill:rgb(99.998474%,99.998474%,99.998474%);fill-opacity:1;" d="M 0 28.332031 L 127.5 28.332031 L 127.5 56.667969 L 0 56.667969 Z M 0 28.332031 "/>
</g>
<g clip-path="url(#clip3)" clip-rule="nonzero">
<path style=" stroke:none;fill-rule:evenodd;fill:rgb(0%,0%,0%);fill-opacity:1;" d="M 0 56.667969 L 127.5 56.667969 L 127.5 85 L 0 85 Z M 0 56.667969 "/>
</g>
<path style=" stroke:none;fill-rule:evenodd;fill:rgb(0%,47.842407%,23.921204%);fill-opacity:1;" d="M 38.765625 53.027344 L 38.035156 52.222656 L 39.511719 50.628906 L 40.246094 51.433594 L 40.976562 52.234375 L 39.5 53.828125 L 38.765625 53.023438 Z M 33.738281 52.621094 C 33.472656 52.515625 33.046875 52.171875 32.765625 51.835938 C 32.238281 51.207031 32.117188 50.914062 32.472656 51.121094 C 33 51.429688 34.046875 51.628906 34.421875 51.496094 C 35.796875 50.996094 36.109375 49 35.011719 47.730469 C 34.796875 47.484375 34.621094 47.195312 34.621094 47.089844 C 34.621094 46.984375 34.847656 46.789062 35.128906 46.652344 C 35.519531 46.464844 35.710938 46.257812 35.964844 45.757812 C 36.21875 45.25 36.324219 45.136719 36.445312 45.25 C 36.621094 45.40625 37.210938 46.9375 37.210938 47.234375 C 37.210938 47.390625 37.425781 47.425781 38.390625 47.425781 L 39.570312 47.425781 L 39.382812 46.945312 C 39.285156 46.679688 39.117188 46.324219 39.015625 46.15625 C 38.847656 45.878906 38.847656 45.832031 39.007812 45.707031 C 39.105469 45.628906 39.429688 45.382812 39.730469 45.152344 C 40.035156 44.921875 40.3125 44.632812 40.355469 44.511719 C 40.460938 44.207031 41.113281 43.328125 41.234375 43.328125 C 41.289062 43.328125 41.332031 44.25 41.332031 45.375 L 41.332031 47.425781 L 56.050781 47.425781 L 56.050781 41.554688 L 55.640625 41.28125 L 55.230469 41.003906 L 54.402344 41.691406 L 54.402344 45.886719 L 48.21875 45.886719 C 44.820312 45.886719 42.039062 45.863281 42.039062 45.835938 C 42.039062 45.792969 45.113281 41.273438 45.492188 40.765625 C 45.570312 40.660156 45.761719 40.371094 45.917969 40.125 C 46.078125 39.878906 46.238281 39.648438 46.277344 39.613281 C 46.316406 39.578125 46.476562 39.347656 46.632812 39.101562 C 46.789062 38.855469 46.972656 38.585938 47.039062 38.503906 C 47.105469 38.421875 48.21875 36.796875 49.515625 34.894531 C 50.808594 32.988281 51.910156 31.429688 51.957031 31.425781 C 52.003906 31.421875 52.070312 31.574219 52.105469 31.769531 C 52.300781 32.839844 52.449219 33.441406 52.605469 33.773438 C 52.800781 34.195312 52.6875 34.351562 52.164062 34.367188 C 51.917969 34.378906 51.351562 35.132812 48.691406 39.007812 C 46.941406 41.550781 45.496094 43.679688 45.472656 43.738281 C 45.449219 43.792969 47.027344 43.839844 48.976562 43.839844 L 52.519531 43.839844 L 52.519531 42.460938 C 52.519531 41.707031 52.5625 41.027344 52.609375 40.953125 C 52.832031 40.613281 55.171875 38.832031 55.335938 38.878906 C 55.4375 38.910156 56.0625 39.382812 56.726562 39.933594 L 57.933594 40.933594 L 57.933594 49.472656 L 37.480469 49.472656 L 37.277344 50.300781 C 37.027344 51.289062 36.625 52.003906 36.085938 52.40625 C 35.570312 52.78125 34.414062 52.890625 33.734375 52.617188 Z M 59.230469 42.824219 C 59.230469 38.175781 59.269531 36.144531 59.355469 36.082031 C 59.425781 36.035156 59.730469 36.277344 60.035156 36.621094 C 60.335938 36.96875 60.875 37.519531 61.230469 37.851562 C 61.792969 38.375 61.851562 38.472656 61.679688 38.585938 C 61.097656 38.96875 61.113281 38.851562 61.113281 43.269531 L 61.113281 47.421875 L 62.242188 47.421875 C 63.242188 47.421875 63.425781 47.382812 63.890625 47.089844 C 64.464844 46.722656 64.5 46.769531 64.21875 47.5 C 64.109375 47.773438 63.992188 48.316406 63.953125 48.703125 L 63.878906 49.40625 L 59.230469 49.476562 L 59.230469 42.820312 Z M 59.230469 42.824219 "/>
<path style=" stroke:none;fill-rule:evenodd;fill:rgb(0%,47.842407%,23.921204%);fill-opacity:1;" d="M 71.40625 47.75 C 71.46875 45.875 71.644531 45.242188 72.277344 44.636719 C 72.761719 44.171875 73.457031 43.953125 74.261719 44.011719 L 74.867188 44.050781 L 74.902344 43.285156 C 74.949219 42.316406 74.867188 41.96875 74.570312 41.867188 C 74.214844 41.742188 74.289062 41.339844 74.71875 41.046875 C 74.929688 40.90625 75.449219 40.410156 75.867188 39.945312 C 76.289062 39.480469 76.675781 39.101562 76.726562 39.101562 C 76.777344 39.101562 76.816406 40.953125 76.816406 43.214844 L 76.816406 47.328125 L 78.472656 47.328125 L 78.472656 43.097656 C 78.472656 39.417969 78.449219 38.835938 78.285156 38.660156 C 78.183594 38.550781 78.050781 38.460938 77.992188 38.460938 C 77.726562 38.460938 77.914062 37.945312 78.265625 37.707031 C 78.476562 37.5625 78.992188 37.070312 79.410156 36.609375 C 79.824219 36.148438 80.210938 35.800781 80.265625 35.839844 C 80.320312 35.875 80.363281 38.472656 80.363281 41.617188 L 80.363281 47.328125 L 82.019531 47.328125 L 82.019531 35.628906 L 81.722656 35.351562 C 81.558594 35.199219 81.425781 35 81.425781 34.914062 C 81.425781 34.832031 81.792969 34.4375 82.246094 34.042969 C 82.691406 33.648438 83.175781 33.148438 83.316406 32.9375 C 83.917969 32.015625 83.910156 31.875 83.910156 40.964844 L 83.910156 49.386719 L 71.351562 49.386719 L 71.425781 47.746094 Z M 74.921875 46.492188 L 74.921875 45.660156 L 74.460938 45.660156 C 73.835938 45.660156 73.269531 46.246094 73.269531 46.890625 L 73.269531 47.328125 L 74.921875 47.328125 Z M 85.210938 42.710938 C 85.210938 38.046875 85.25 36.007812 85.339844 35.945312 C 85.410156 35.898438 85.714844 36.140625 86.019531 36.488281 C 86.320312 36.835938 86.863281 37.390625 87.21875 37.722656 C 87.785156 38.246094 87.84375 38.34375 87.667969 38.460938 C 87.085938 38.84375 87.101562 38.722656 87.101562 43.160156 L 87.101562 47.328125 L 88.257812 47.328125 C 89.304688 47.328125 89.453125 47.296875 89.859375 46.996094 C 90.109375 46.8125 90.339844 46.695312 90.375 46.734375 C 90.410156 46.773438 90.347656 47.050781 90.234375 47.355469 C 90.121094 47.660156 89.992188 48.226562 89.953125 48.613281 L 89.878906 49.320312 L 85.210938 49.390625 Z M 75.902344 35.71875 C 75.695312 35.632812 75.457031 35.488281 75.371094 35.390625 C 75.242188 35.242188 75.308594 35.230469 75.773438 35.300781 C 76.613281 35.429688 77.128906 35.277344 77.597656 34.75 L 78.011719 34.289062 L 78.582031 34.511719 C 78.898438 34.632812 79.226562 34.703125 79.316406 34.664062 C 79.542969 34.570312 79.953125 33.859375 79.914062 33.636719 C 79.863281 33.359375 80.09375 33.402344 80.238281 33.695312 C 80.519531 34.265625 80.285156 34.992188 79.746094 35.214844 C 79.480469 35.324219 79.226562 35.324219 78.800781 35.226562 C 78.273438 35.105469 78.1875 35.117188 77.957031 35.351562 C 77.445312 35.878906 76.660156 36.019531 75.90625 35.71875 Z M 77.335938 33.59375 C 77.050781 33.382812 76.449219 32.300781 76.429688 31.957031 C 76.40625 31.660156 76.457031 31.570312 76.648438 31.539062 C 76.988281 31.488281 77.144531 31.730469 77.402344 32.722656 C 77.617188 33.53125 77.59375 33.789062 77.335938 33.59375 Z M 77.335938 33.59375 "/>
</g>
</svg>
