<?xml version="1.0" encoding="UTF-8"?>
<svg xmlns="http://www.w3.org/2000/svg" xmlns:xlink="http://www.w3.org/1999/xlink" width="128pt" height="64pt" viewBox="0 0 128 64" version="1.1">
<g id="surface537">
<rect x="0" y="0" width="128" height="64" style="fill:rgb(85.525513%,0%,6.422424%);fill-opacity:1;stroke:none;"/>
<path style=" stroke:none;fill-rule:evenodd;fill:rgb(96.098328%,90.99884%,2.2995%);fill-opacity:1;" d="M 68.597656 46.238281 L 67.722656 46.957031 C 67.722656 46.957031 67.914062 48.351562 67.914062 48.375 C 67.914062 48.394531 67.042969 47.542969 67.042969 47.542969 L 66.628906 47.589844 C 66.625 47.578125 66.621094 47.566406 66.613281 47.554688 C 66.460938 47.261719 66.1875 47.085938 65.953125 46.996094 L 65.949219 46.996094 C 65.945312 46.992188 65.9375 46.992188 65.933594 46.988281 C 65.953125 46.777344 65.96875 46.453125 65.957031 46.425781 C 65.933594 46.425781 64.988281 45.308594 64.957031 45.246094 C 64.957031 45.246094 64.953125 45.246094 64.957031 45.246094 C 64.976562 45.246094 66.242188 45.53125 66.242188 45.488281 C 66.242188 45.445312 66.75 44.246094 66.75 44.226562 C 66.746094 44.222656 66.75 44.222656 66.75 44.226562 C 66.789062 44.300781 67.355469 45.6875 67.355469 45.6875 Z M 68.597656 46.238281 "/>
<path style="fill:none;stroke-width:0.177778;stroke-linecap:square;stroke-linejoin:miter;stroke:rgb(2.590942%,3.305054%,3.385925%);stroke-opacity:1;stroke-miterlimit:4;" d="M 65.910156 47.167969 C 65.933594 47.101562 65.976562 46.425781 65.957031 46.425781 C 65.933594 46.425781 64.933594 45.246094 64.957031 45.246094 C 64.976562 45.246094 66.242188 45.53125 66.242188 45.488281 C 66.242188 45.445312 66.75 44.246094 66.75 44.222656 C 66.75 44.203125 67.355469 45.6875 67.355469 45.6875 L 68.597656 46.238281 L 67.722656 46.953125 C 67.722656 46.953125 67.914062 48.351562 67.914062 48.375 C 67.914062 48.394531 67.042969 47.542969 67.042969 47.542969 L 66.082031 47.648438 C 66.082031 47.648438 65.953125 47.210938 65.910156 47.167969 Z M 65.910156 47.167969 "/>
<path style="fill-rule:evenodd;fill:rgb(99.998474%,99.998474%,99.998474%);fill-opacity:1;stroke-width:0.177778;stroke-linecap:square;stroke-linejoin:miter;stroke:rgb(2.590942%,3.305054%,3.385925%);stroke-opacity:1;stroke-miterlimit:4;" d="M 59.199219 28.808594 C 58.367188 29.234375 55.175781 32.863281 54.738281 33.425781 C 54.371094 34.25 53.652344 35.289062 52.914062 35.960938 C 52.125 36.550781 51.683594 37.363281 51.792969 38.132812 C 51.78125 39.09375 52.316406 39.746094 52.742188 40.417969 C 52.992188 40.730469 53.332031 40.929688 53.695312 40.953125 C 54.4375 41.054688 54.503906 41.285156 54.875 41.425781 C 56.332031 43.425781 58.515625 44.902344 60.085938 46.070312 C 61.085938 46.601562 61.78125 47.132812 62.019531 47.421875 C 62.480469 48.304688 62.390625 49.160156 62.328125 49.582031 C 61.933594 51.050781 61.539062 52.519531 61.148438 53.988281 C 60.945312 55.1875 61.992188 54.921875 62.046875 54.679688 C 62.519531 54.070312 63.222656 54.5 64.234375 50.96875 C 64.695312 50.351562 65.160156 49.730469 65.621094 49.113281 C 65.621094 49.113281 66.152344 48.902344 66.152344 48.851562 C 66.964844 47.882812 66.351562 47.324219 65.894531 47.148438 C 65.554688 47.023438 65.21875 46.898438 64.886719 46.773438 C 64.886719 46.773438 63.71875 45.601562 63.667969 45.601562 C 63.117188 43.984375 60.382812 40.496094 59.753906 40.015625 C 59.132812 39.605469 59.386719 39.429688 58.726562 39.140625 C 58.234375 38.867188 58.574219 38.980469 57.472656 38.574219 C 57.148438 38.445312 57.378906 38.085938 57.585938 37.921875 C 59.75 36.753906 61.464844 35.453125 63.539062 34.132812 C 63.644531 34.058594 63.753906 33.988281 63.859375 33.917969 C 63.613281 32.503906 63.371094 31.085938 63.128906 29.667969 C 61.976562 29.257812 60.828125 28.847656 59.679688 28.4375 C 59.496094 28.5625 59.359375 28.683594 59.199219 28.808594 Z M 59.199219 28.808594 "/>
<path style=" stroke:none;fill-rule:evenodd;fill:rgb(95.698547%,92.198181%,2.2995%);fill-opacity:1;" d="M 62.023438 51.183594 C 62.035156 51.140625 64.1875 50.753906 64.1875 50.753906 L 63.921875 51.550781 L 61.78125 52.1875 Z M 62.023438 51.183594 "/>
<path style="fill:none;stroke-width:0.177778;stroke-linecap:square;stroke-linejoin:miter;stroke:rgb(2.590942%,3.305054%,3.385925%);stroke-opacity:1;stroke-miterlimit:4;" d="M 56.445312 43.074219 C 56.863281 41.972656 58.015625 41.105469 58.789062 40.867188 "/>
<path style="fill:none;stroke-width:0.196622;stroke-linecap:square;stroke-linejoin:miter;stroke:rgb(2.590942%,3.305054%,3.385925%);stroke-opacity:1;stroke-miterlimit:4;" d="M 61.554688 52.53125 C 61.574219 52.507812 61.71875 52.378906 61.824219 52.316406 C 61.949219 52.277344 62.375 52.097656 62.535156 52.070312 C 62.703125 52.027344 62.875 51.976562 63.039062 51.917969 C 63.230469 51.875 63.347656 51.835938 63.546875 51.796875 C 63.699219 51.730469 63.851562 51.6875 64.015625 51.644531 "/>
<path style="fill:none;stroke-width:0.196622;stroke-linecap:square;stroke-linejoin:miter;stroke:rgb(2.590942%,3.305054%,3.385925%);stroke-opacity:1;stroke-miterlimit:4;" d="M 61.945312 51.203125 C 62.085938 51.164062 62.703125 50.988281 62.882812 50.960938 C 63.074219 50.914062 63.265625 50.867188 63.449219 50.808594 C 63.660156 50.761719 63.792969 50.722656 64.015625 50.683594 C 64.1875 50.621094 64.359375 50.574219 64.542969 50.53125 "/>
<path style="fill:none;stroke-width:0.177778;stroke-linecap:square;stroke-linejoin:miter;stroke:rgb(2.590942%,3.305054%,3.385925%);stroke-opacity:1;stroke-miterlimit:4;" d="M 62.453125 43.402344 L 62.421875 43.402344 C 62.519531 43.402344 62.460938 43.394531 62.328125 43.558594 C 62.28125 43.683594 61.886719 43.957031 61.585938 43.957031 C 61.445312 43.972656 61.222656 43.984375 61.078125 43.984375 C 61.035156 43.984375 60.980469 43.953125 60.9375 43.953125 "/>
<path style="fill:none;stroke-width:0.177778;stroke-linecap:square;stroke-linejoin:miter;stroke:rgb(2.590942%,3.305054%,3.385925%);stroke-opacity:1;stroke-miterlimit:4;" d="M 62.40625 49.761719 L 62.433594 49.761719 C 62.394531 49.761719 62.519531 49.761719 62.558594 49.761719 C 62.71875 49.761719 62.878906 49.792969 63.023438 49.792969 C 63.175781 49.796875 63.332031 49.839844 63.484375 49.839844 C 63.640625 49.863281 63.828125 49.855469 63.988281 49.878906 C 64.171875 49.886719 64.3125 49.921875 64.503906 49.921875 C 64.65625 49.929688 64.734375 49.953125 64.902344 49.953125 L 64.503906 49.921875 C 64.65625 49.929688 64.734375 49.953125 64.902344 49.953125 "/>
<path style="fill:none;stroke-width:0.177778;stroke-linecap:square;stroke-linejoin:miter;stroke:rgb(2.590942%,3.305054%,3.385925%);stroke-opacity:1;stroke-miterlimit:4;" d="M 61.34375 53.523438 C 61.359375 53.5 61.496094 53.371094 61.589844 53.308594 C 61.707031 53.269531 62.09375 53.09375 62.242188 53.0625 C 62.398438 53.019531 62.554688 52.96875 62.703125 52.910156 C 62.878906 52.867188 62.988281 52.828125 63.167969 52.789062 C 63.308594 52.722656 63.449219 52.679688 63.601562 52.636719 "/>
<path style="fill:none;stroke-width:0.177778;stroke-linecap:square;stroke-linejoin:miter;stroke:rgb(2.590942%,3.305054%,3.385925%);stroke-opacity:1;stroke-miterlimit:4;" d="M 64.25 48.167969 C 64.160156 48.421875 64.273438 48.484375 64.320312 48.59375 C 64.402344 48.699219 64.609375 48.863281 64.9375 48.964844 C 65.0625 49 65.160156 49.035156 65.308594 49.089844 C 65.40625 49.101562 65.453125 49.125 65.523438 49.152344 "/>
<path style="fill:none;stroke-width:0.177778;stroke-linecap:square;stroke-linejoin:miter;stroke:rgb(2.590942%,3.305054%,3.385925%);stroke-opacity:1;stroke-miterlimit:4;" d="M 52.0625 38.835938 L 52.09375 38.835938 C 51.996094 38.835938 52.054688 38.84375 52.21875 38.714844 C 52.320312 38.601562 52.402344 38.550781 52.496094 38.4375 "/>
<path style="fill:none;stroke-width:0.177778;stroke-linecap:square;stroke-linejoin:miter;stroke:rgb(2.590942%,3.305054%,3.385925%);stroke-opacity:1;stroke-miterlimit:4;" d="M 54.054688 41.039062 C 54.078125 41.039062 55.855469 40.152344 56.042969 39.960938 C 56.179688 39.863281 56.28125 39.761719 56.445312 39.652344 C 56.550781 39.597656 56.625 39.527344 56.722656 39.464844 C 56.804688 39.347656 56.910156 39.277344 56.972656 39.171875 C 57.078125 39.074219 57.035156 38.972656 57.121094 38.859375 C 57.164062 38.742188 57.242188 38.546875 57.269531 38.441406 "/>
<path style="fill:none;stroke-width:0.177778;stroke-linecap:square;stroke-linejoin:miter;stroke:rgb(2.590942%,3.305054%,3.385925%);stroke-opacity:1;stroke-miterlimit:4;" d="M 59.527344 39.773438 C 59.535156 39.839844 59.496094 40.035156 59.5 40.183594 C 59.492188 40.359375 59.269531 40.894531 58.996094 41.054688 "/>
<path style="fill:none;stroke-width:0.177778;stroke-linecap:square;stroke-linejoin:miter;stroke:rgb(2.590942%,3.305054%,3.385925%);stroke-opacity:1;stroke-miterlimit:4;" d="M 56.335938 39.746094 C 56.347656 39.746094 56.617188 39.835938 57.070312 39.976562 C 57.613281 40.171875 58.738281 40.886719 58.851562 40.984375 C 58.964844 41.074219 59.171875 41.15625 59.25 41.265625 C 59.371094 41.371094 59.460938 41.492188 59.558594 41.605469 C 59.667969 41.742188 59.765625 41.859375 59.832031 41.976562 C 60.175781 42.253906 61.09375 44.183594 61.125 44.292969 C 61.175781 44.394531 61.238281 44.539062 61.277344 44.632812 C 61.34375 44.714844 61.390625 44.824219 61.460938 44.945312 C 61.527344 45.097656 61.597656 45.167969 61.675781 45.285156 C 61.777344 45.355469 61.914062 45.492188 62.046875 45.5625 C 62.183594 45.683594 62.316406 45.730469 62.414062 45.8125 C 62.5625 45.875 64.183594 46.90625 64.261719 46.957031 C 64.40625 47.078125 64.859375 47.550781 64.542969 47.890625 C 64.40625 48.003906 64.285156 48.15625 64.167969 48.222656 C 64.050781 48.339844 63.886719 48.394531 63.75 48.453125 C 63.015625 48.667969 62.644531 48.589844 62.5 48.589844 C 62.449219 48.589844 62.398438 48.589844 62.347656 48.589844 "/>
<path style="fill:none;stroke-width:0.177778;stroke-linecap:square;stroke-linejoin:miter;stroke:rgb(2.590942%,3.305054%,3.385925%);stroke-opacity:1;stroke-miterlimit:4;" d="M 52.8125 36.121094 L 52.84375 36.121094 C 52.761719 36.121094 52.800781 36.121094 52.964844 36.152344 C 53.09375 36.207031 53.273438 36.261719 53.398438 36.308594 C 53.53125 36.351562 53.695312 36.371094 53.769531 36.433594 C 53.910156 36.457031 53.996094 36.542969 54.105469 36.621094 C 54.234375 36.738281 54.335938 36.8125 54.476562 36.898438 C 54.644531 37.015625 54.777344 37.074219 54.941406 37.175781 C 55.105469 37.210938 55.222656 37.265625 55.402344 37.269531 C 55.570312 37.28125 55.71875 37.304688 55.894531 37.304688 C 56.039062 37.304688 56.183594 37.304688 56.328125 37.304688 L 55.894531 37.304688 C 56.039062 37.304688 56.183594 37.304688 56.328125 37.304688 "/>
<path style="fill-rule:evenodd;fill:rgb(95.698547%,92.198181%,2.2995%);fill-opacity:1;stroke-width:0.177778;stroke-linecap:square;stroke-linejoin:miter;stroke:rgb(2.590942%,3.305054%,3.385925%);stroke-opacity:1;stroke-miterlimit:4;" d="M 52.699219 38.160156 C 53.160156 38.128906 53.933594 38.269531 53.949219 38.269531 L 54.96875 38.257812 C 55.503906 38.207031 55.621094 38.003906 55.707031 37.859375 C 55.910156 37.550781 56.050781 37.445312 56.203125 37.210938 C 56.453125 37.027344 56.789062 37.460938 56.804688 37.460938 C 57.667969 38.28125 56.96875 39.28125 56.925781 39.3125 C 56.492188 39.707031 56.398438 39.734375 56.136719 39.480469 C 55.875 39.171875 55.796875 39.03125 55.582031 38.921875 C 55.167969 38.722656 54.300781 38.875 54.285156 38.871094 L 53.839844 39.042969 C 53.628906 39.117188 53.492188 39.304688 53.128906 39.363281 C 52.757812 39.390625 52.632812 39.351562 52.449219 39.054688 C 52.203125 38.667969 52.328125 38.203125 52.699219 38.160156 Z M 52.699219 38.160156 "/>
<path style="fill-rule:evenodd;fill:rgb(99.998474%,99.998474%,99.998474%);fill-opacity:1;stroke-width:0.177778;stroke-linecap:square;stroke-linejoin:miter;stroke:rgb(2.590942%,3.305054%,3.385925%);stroke-opacity:1;stroke-miterlimit:4;" d="M 56.527344 37.253906 L 57.519531 36.046875 L 58.539062 35.019531 L 59.628906 34.164062 L 60.773438 33.441406 L 61.796875 32.902344 L 62.828125 32.515625 Z M 56.527344 37.253906 "/>
<path style=" stroke:none;fill-rule:evenodd;fill:rgb(96.098328%,90.99884%,2.2995%);fill-opacity:1;" d="M 75.230469 16.996094 L 76.289062 17.394531 C 76.289062 17.394531 77.40625 16.527344 77.425781 16.519531 C 77.441406 16.507812 77.140625 17.6875 77.140625 17.6875 L 77.386719 18.023438 C 77.378906 18.035156 77.371094 18.042969 77.367188 18.054688 C 77.367188 18.054688 77.363281 18.058594 77.363281 18.058594 C 77.1875 18.335938 77.171875 18.660156 77.210938 18.90625 L 77.210938 18.910156 C 77.210938 18.917969 77.214844 18.921875 77.214844 18.925781 C 77.019531 19.019531 76.730469 19.164062 76.714844 19.1875 C 76.726562 19.207031 76.230469 20.585938 76.195312 20.644531 C 76.195312 20.644531 76.195312 20.648438 76.191406 20.644531 C 76.183594 20.625 75.800781 19.386719 75.761719 19.410156 C 75.722656 19.429688 74.433594 19.59375 74.414062 19.605469 C 74.414062 19.605469 74.414062 19.601562 74.414062 19.601562 C 74.460938 19.53125 75.378906 18.347656 75.378906 18.347656 Z M 75.230469 16.996094 "/>
<path style="fill:none;stroke-width:0.177778;stroke-linecap:square;stroke-linejoin:miter;stroke:rgb(2.590942%,3.305054%,3.385925%);stroke-opacity:1;stroke-miterlimit:4;" d="M 77.382812 18.859375 C 77.3125 18.871094 76.707031 19.171875 76.714844 19.1875 C 76.726562 19.207031 76.203125 20.664062 76.195312 20.644531 C 76.183594 20.625 75.800781 19.386719 75.761719 19.410156 C 75.722656 19.429688 74.433594 19.59375 74.414062 19.605469 C 74.394531 19.613281 75.378906 18.347656 75.378906 18.347656 L 75.230469 16.996094 L 76.289062 17.394531 C 76.289062 17.394531 77.40625 16.527344 77.425781 16.519531 C 77.441406 16.507812 77.140625 17.6875 77.140625 17.6875 L 77.710938 18.46875 C 77.710938 18.46875 77.398438 18.796875 77.382812 18.859375 Z M 77.382812 18.859375 "/>
<path style="fill-rule:evenodd;fill:rgb(99.998474%,99.998474%,99.998474%);fill-opacity:1;stroke-width:0.177778;stroke-linecap:square;stroke-linejoin:miter;stroke:rgb(2.590942%,3.305054%,3.385925%);stroke-opacity:1;stroke-miterlimit:4;" d="M 64.835938 33.851562 C 65.621094 34.355469 70.359375 35.308594 71.066406 35.402344 C 71.964844 35.3125 73.222656 35.414062 74.171875 35.71875 C 75.082031 36.105469 76.003906 36.078125 76.617188 35.601562 C 77.453125 35.132812 77.75 34.34375 78.121094 33.636719 C 78.261719 33.265625 78.265625 32.871094 78.105469 32.542969 C 77.824219 31.851562 77.988281 31.679688 77.925781 31.285156 C 78.925781 29.023438 79.117188 26.394531 79.34375 24.453125 C 79.304688 23.316406 79.414062 22.449219 79.546875 22.097656 C 80.078125 21.261719 80.867188 20.910156 81.261719 20.753906 C 82.730469 20.359375 84.199219 19.96875 85.667969 19.574219 C 86.808594 19.148438 86.054688 18.375 85.816406 18.445312 C 85.054688 18.34375 85.074219 17.519531 81.511719 18.40625 C 80.742188 18.316406 79.976562 18.226562 79.210938 18.132812 C 79.210938 18.132812 78.761719 17.78125 78.714844 17.804688 C 77.472656 17.589844 77.296875 18.398438 77.375 18.882812 C 77.433594 19.234375 77.492188 19.589844 77.554688 19.941406 C 77.554688 19.941406 77.121094 21.535156 77.148438 21.582031 C 76.023438 22.867188 74.367188 26.980469 74.265625 27.765625 C 74.222656 28.507812 73.941406 28.375 74.019531 29.09375 C 74.03125 29.65625 73.960938 29.304688 74.15625 30.460938 C 74.207031 30.808594 73.78125 30.785156 73.535156 30.6875 C 71.441406 29.398438 69.457031 28.566406 67.277344 27.429688 C 67.160156 27.371094 67.046875 27.316406 66.933594 27.257812 C 65.828125 28.179688 64.722656 29.097656 63.617188 30.019531 C 63.835938 31.21875 64.054688 32.417969 64.277344 33.621094 C 64.472656 33.714844 64.648438 33.773438 64.835938 33.851562 Z M 64.835938 33.851562 "/>
<path style=" stroke:none;fill-rule:evenodd;fill:rgb(95.698547%,92.198181%,2.2995%);fill-opacity:1;" d="M 82.804688 20.214844 C 82.757812 20.226562 81.347656 18.558594 81.347656 18.558594 L 82.171875 18.386719 L 83.792969 19.921875 Z M 82.804688 20.214844 "/>
<path style="fill:none;stroke-width:0.177778;stroke-linecap:square;stroke-linejoin:miter;stroke:rgb(2.590942%,3.305054%,3.385925%);stroke-opacity:1;stroke-miterlimit:4;" d="M 78.566406 29.101562 C 77.40625 29.289062 76.078125 28.726562 75.484375 28.175781 "/>
<path style="fill:none;stroke-width:0.196622;stroke-linecap:square;stroke-linejoin:miter;stroke:rgb(2.590942%,3.305054%,3.385925%);stroke-opacity:1;stroke-miterlimit:4;" d="M 84.203125 19.949219 C 84.175781 19.945312 83.988281 19.882812 83.882812 19.820312 C 83.789062 19.734375 83.421875 19.457031 83.316406 19.332031 C 83.191406 19.203125 83.0625 19.082031 82.929688 18.96875 C 82.800781 18.824219 82.707031 18.742188 82.570312 18.589844 C 82.4375 18.492188 82.324219 18.378906 82.203125 18.257812 "/>
<path style="fill:none;stroke-width:0.196622;stroke-linecap:square;stroke-linejoin:miter;stroke:rgb(2.590942%,3.305054%,3.385925%);stroke-opacity:1;stroke-miterlimit:4;" d="M 82.859375 20.273438 C 82.753906 20.171875 82.292969 19.726562 82.179688 19.582031 C 82.042969 19.441406 81.90625 19.300781 81.761719 19.171875 C 81.621094 19.007812 81.519531 18.914062 81.375 18.738281 C 81.230469 18.625 81.105469 18.496094 80.976562 18.359375 "/>
<path style="fill:none;stroke-width:0.177778;stroke-linecap:square;stroke-linejoin:miter;stroke:rgb(2.590942%,3.305054%,3.385925%);stroke-opacity:1;stroke-miterlimit:4;" d="M 75.847656 23.734375 L 75.863281 23.761719 C 75.816406 23.675781 75.839844 23.734375 76.042969 23.765625 C 76.175781 23.742188 76.613281 23.949219 76.761719 24.207031 C 76.847656 24.324219 76.96875 24.507812 77.042969 24.632812 C 77.0625 24.667969 77.0625 24.734375 77.085938 24.769531 "/>
<path style="fill:none;stroke-width:0.177778;stroke-linecap:square;stroke-linejoin:miter;stroke:rgb(2.590942%,3.305054%,3.385925%);stroke-opacity:1;stroke-miterlimit:4;" d="M 81.378906 20.597656 L 81.367188 20.570312 C 81.386719 20.605469 81.324219 20.5 81.304688 20.464844 C 81.226562 20.324219 81.167969 20.171875 81.101562 20.046875 C 81.023438 19.910156 80.984375 19.757812 80.90625 19.621094 C 80.847656 19.476562 80.75 19.316406 80.6875 19.167969 C 80.605469 19.007812 80.5625 18.863281 80.46875 18.699219 C 80.398438 18.566406 80.382812 18.480469 80.296875 18.335938 L 80.46875 18.699219 C 80.398438 18.566406 80.382812 18.480469 80.296875 18.335938 "/>
<path style="fill:none;stroke-width:0.177778;stroke-linecap:square;stroke-linejoin:miter;stroke:rgb(2.590942%,3.305054%,3.385925%);stroke-opacity:1;stroke-miterlimit:4;" d="M 85.167969 19.632812 C 85.140625 19.632812 84.960938 19.578125 84.859375 19.527344 C 84.769531 19.449219 84.417969 19.203125 84.320312 19.089844 C 84.207031 18.972656 84.085938 18.863281 83.957031 18.761719 C 83.832031 18.632812 83.746094 18.558594 83.621094 18.421875 C 83.492188 18.332031 83.382812 18.234375 83.273438 18.125 "/>
<path style="fill:none;stroke-width:0.177778;stroke-linecap:square;stroke-linejoin:miter;stroke:rgb(2.590942%,3.305054%,3.385925%);stroke-opacity:1;stroke-miterlimit:4;" d="M 79.078125 19.796875 C 79.339844 19.746094 79.339844 19.617188 79.410156 19.519531 C 79.460938 19.398438 79.5 19.136719 79.425781 18.800781 C 79.390625 18.675781 79.371094 18.574219 79.347656 18.417969 C 79.308594 18.328125 79.304688 18.277344 79.292969 18.199219 "/>
<path style="fill:none;stroke-width:0.177778;stroke-linecap:square;stroke-linejoin:miter;stroke:rgb(2.590942%,3.305054%,3.385925%);stroke-opacity:1;stroke-miterlimit:4;" d="M 77.089844 35.015625 L 77.074219 34.988281 C 77.121094 35.070312 77.097656 35.019531 76.90625 34.941406 C 76.757812 34.910156 76.671875 34.863281 76.527344 34.839844 "/>
<path style="fill:none;stroke-width:0.177778;stroke-linecap:square;stroke-linejoin:miter;stroke:rgb(2.590942%,3.305054%,3.385925%);stroke-opacity:1;stroke-miterlimit:4;" d="M 78 32.1875 C 77.992188 32.167969 76.332031 31.074219 76.074219 31.003906 C 75.921875 30.9375 75.78125 30.902344 75.605469 30.8125 C 75.503906 30.75 75.40625 30.71875 75.304688 30.664062 C 75.164062 30.652344 75.046875 30.597656 74.925781 30.597656 C 74.789062 30.550781 74.722656 30.640625 74.578125 30.621094 C 74.457031 30.644531 74.25 30.675781 74.144531 30.707031 "/>
<path style="fill:none;stroke-width:0.177778;stroke-linecap:square;stroke-linejoin:miter;stroke:rgb(2.590942%,3.305054%,3.385925%);stroke-opacity:1;stroke-miterlimit:4;" d="M 74.171875 28.082031 C 74.222656 28.042969 74.410156 27.976562 74.539062 27.902344 C 74.691406 27.820312 75.269531 27.75 75.542969 27.902344 "/>
<path style="fill:none;stroke-width:0.177778;stroke-linecap:square;stroke-linejoin:miter;stroke:rgb(2.590942%,3.305054%,3.385925%);stroke-opacity:1;stroke-miterlimit:4;" d="M 75.738281 30.859375 C 75.734375 30.851562 75.675781 30.574219 75.574219 30.113281 C 75.472656 29.542969 75.527344 28.207031 75.554688 28.0625 C 75.578125 27.917969 75.546875 27.699219 75.597656 27.578125 C 75.628906 27.417969 75.691406 27.28125 75.742188 27.140625 C 75.804688 26.976562 75.855469 26.832031 75.921875 26.714844 C 75.992188 26.28125 77.207031 24.519531 77.285156 24.441406 C 77.347656 24.34375 77.441406 24.21875 77.503906 24.136719 C 77.539062 24.039062 77.613281 23.941406 77.679688 23.824219 C 77.78125 23.691406 77.804688 23.59375 77.867188 23.464844 C 77.878906 23.34375 77.925781 23.15625 77.921875 23.007812 C 77.957031 22.828125 77.933594 22.691406 77.953125 22.5625 C 77.933594 22.40625 78.015625 20.484375 78.023438 20.390625 C 78.054688 20.203125 78.234375 19.574219 78.691406 19.683594 C 78.859375 19.742188 79.050781 19.773438 79.167969 19.839844 C 79.328125 19.882812 79.453125 20 79.574219 20.085938 C 80.128906 20.613281 80.246094 20.976562 80.316406 21.101562 C 80.34375 21.144531 80.367188 21.191406 80.394531 21.234375 "/>
<path style="fill:none;stroke-width:0.177778;stroke-linecap:square;stroke-linejoin:miter;stroke:rgb(2.590942%,3.305054%,3.385925%);stroke-opacity:1;stroke-miterlimit:4;" d="M 74.363281 35.722656 L 74.347656 35.695312 C 74.390625 35.769531 74.367188 35.734375 74.3125 35.574219 C 74.300781 35.4375 74.253906 35.253906 74.234375 35.121094 C 74.203125 34.988281 74.140625 34.835938 74.15625 34.742188 C 74.105469 34.605469 74.136719 34.488281 74.148438 34.355469 C 74.183594 34.183594 74.199219 34.058594 74.203125 33.894531 C 74.222656 33.691406 74.203125 33.546875 74.214844 33.355469 C 74.160156 33.195312 74.148438 33.0625 74.066406 32.90625 C 73.992188 32.757812 73.933594 32.617188 73.84375 32.464844 C 73.773438 32.339844 73.703125 32.210938 73.628906 32.089844 L 73.84375 32.464844 C 73.773438 32.339844 73.703125 32.210938 73.628906 32.089844 "/>
<path style="fill-rule:evenodd;fill:rgb(95.698547%,92.198181%,2.2995%);fill-opacity:1;stroke-width:0.177778;stroke-linecap:square;stroke-linejoin:miter;stroke:rgb(2.590942%,3.305054%,3.385925%);stroke-opacity:1;stroke-miterlimit:4;" d="M 76.183594 34.804688 C 75.929688 34.417969 75.664062 33.679688 75.65625 33.664062 L 75.136719 32.789062 C 74.824219 32.351562 74.589844 32.351562 74.421875 32.347656 C 74.050781 32.324219 73.890625 32.257812 73.613281 32.242188 C 73.328125 32.117188 73.535156 31.609375 73.527344 31.597656 C 73.804688 30.441406 75.023438 30.542969 75.070312 30.566406 C 75.628906 30.746094 75.699219 30.8125 75.609375 31.164062 C 75.472656 31.546875 75.390625 31.683594 75.40625 31.921875 C 75.4375 32.386719 76.003906 33.058594 76.007812 33.070312 L 76.378906 33.375 C 76.550781 33.519531 76.78125 33.542969 77.015625 33.832031 C 77.222656 34.136719 77.25 34.261719 77.085938 34.574219 C 76.871094 34.980469 76.410156 35.101562 76.183594 34.804688 Z M 76.183594 34.804688 "/>
<path style="fill-rule:evenodd;fill:rgb(99.998474%,99.998474%,99.998474%);fill-opacity:1;stroke-width:0.177778;stroke-linecap:square;stroke-linejoin:miter;stroke:rgb(2.590942%,3.305054%,3.385925%);stroke-opacity:1;stroke-miterlimit:4;" d="M 73.488281 31.941406 L 71.945312 31.6875 L 70.546875 31.316406 L 69.257812 30.800781 L 68.0625 30.167969 L 67.085938 29.550781 L 66.234375 28.851562 Z M 73.488281 31.941406 "/>
<path style=" stroke:none;fill-rule:evenodd;fill:rgb(96.098328%,90.99884%,2.2995%);fill-opacity:1;" d="M 46.664062 25.871094 L 46.480469 24.757812 C 46.480469 24.757812 45.171875 24.222656 45.152344 24.214844 C 45.136719 24.203125 46.308594 23.875 46.308594 23.875 L 46.476562 23.492188 C 46.488281 23.496094 46.5 23.496094 46.511719 23.496094 C 46.515625 23.496094 46.515625 23.496094 46.515625 23.496094 C 46.847656 23.507812 47.132812 23.359375 47.328125 23.203125 L 47.332031 23.203125 C 47.335938 23.199219 47.339844 23.195312 47.34375 23.191406 C 47.519531 23.3125 47.792969 23.488281 47.820312 23.492188 C 47.832031 23.472656 49.273438 23.210938 49.34375 23.214844 C 49.332031 23.234375 48.449219 24.183594 48.488281 24.207031 C 48.527344 24.230469 49.3125 25.265625 49.332031 25.277344 C 49.332031 25.277344 49.332031 25.277344 49.328125 25.277344 C 49.242188 25.273438 47.761719 25.070312 47.761719 25.070312 Z M 46.664062 25.871094 "/>
<path style="fill:none;stroke-width:0.177778;stroke-linecap:square;stroke-linejoin:miter;stroke:rgb(2.590942%,3.305054%,3.385925%);stroke-opacity:1;stroke-miterlimit:4;" d="M 47.199219 23.078125 C 47.246094 23.132812 47.808594 23.507812 47.820312 23.492188 C 47.832031 23.472656 49.355469 23.195312 49.34375 23.214844 C 49.332031 23.234375 48.449219 24.1875 48.488281 24.207031 C 48.527344 24.230469 49.3125 25.265625 49.332031 25.277344 C 49.351562 25.289062 47.761719 25.070312 47.761719 25.070312 L 46.664062 25.871094 L 46.480469 24.757812 C 46.480469 24.757812 45.171875 24.222656 45.152344 24.214844 C 45.136719 24.203125 46.308594 23.875 46.308594 23.875 L 46.699219 22.988281 C 46.699219 22.988281 47.140625 23.097656 47.199219 23.078125 Z M 47.199219 23.078125 "/>
<path style="fill-rule:evenodd;fill:rgb(99.998474%,99.998474%,99.998474%);fill-opacity:1;stroke-width:0.177778;stroke-linecap:square;stroke-linejoin:miter;stroke:rgb(2.590942%,3.305054%,3.385925%);stroke-opacity:1;stroke-miterlimit:4;" d="M 66.457031 26.449219 C 66.503906 25.515625 64.957031 20.9375 64.6875 20.273438 C 64.15625 19.542969 63.617188 18.402344 63.40625 17.429688 C 63.289062 16.449219 62.804688 15.664062 62.085938 15.371094 C 61.261719 14.878906 60.425781 15.019531 59.628906 15.050781 C 59.238281 15.113281 58.894531 15.308594 58.691406 15.609375 C 58.230469 16.203125 58 16.144531 57.691406 16.394531 C 55.230469 16.660156 52.863281 17.808594 51.066406 18.585938 C 50.101562 19.1875 49.296875 19.523438 48.925781 19.585938 C 47.933594 19.539062 47.234375 19.035156 46.902344 18.769531 C 45.828125 17.695312 44.753906 16.621094 43.675781 15.546875 C 42.738281 14.773438 42.449219 15.808594 42.628906 15.980469 C 42.917969 16.691406 42.195312 17.085938 44.746094 19.730469 C 45.050781 20.4375 45.355469 21.148438 45.660156 21.859375 C 45.660156 21.859375 45.578125 22.421875 45.625 22.449219 C 46.054688 23.636719 46.84375 23.382812 47.226562 23.074219 C 47.503906 22.84375 47.777344 22.617188 48.054688 22.390625 C 48.054688 22.390625 49.652344 21.964844 49.679688 21.917969 C 51.355469 22.25 55.742188 21.628906 56.476562 21.324219 C 57.136719 20.992188 57.164062 21.300781 57.746094 20.871094 C 58.226562 20.582031 57.960938 20.820312 58.863281 20.070312 C 59.136719 19.855469 59.332031 20.234375 59.367188 20.496094 C 59.300781 22.953125 59.570312 25.085938 59.675781 27.546875 C 59.683594 27.671875 59.691406 27.800781 59.699219 27.929688 C 61.050781 28.425781 62.398438 28.921875 63.746094 29.417969 C 64.675781 28.628906 65.609375 27.839844 66.539062 27.050781 C 66.523438 26.832031 66.484375 26.648438 66.457031 26.449219 Z M 66.457031 26.449219 "/>
<path style=" stroke:none;fill-rule:evenodd;fill:rgb(95.698547%,92.198181%,2.2995%);fill-opacity:1;" d="M 45.664062 17.707031 C 45.699219 17.738281 44.957031 19.792969 44.957031 19.792969 L 44.398438 19.167969 L 44.917969 16.996094 Z M 45.664062 17.707031 "/>
<path style="fill:none;stroke-width:0.177778;stroke-linecap:square;stroke-linejoin:miter;stroke:rgb(2.590942%,3.305054%,3.385925%);stroke-opacity:1;stroke-miterlimit:4;" d="M 55.480469 16.929688 C 56.222656 17.84375 56.398438 19.277344 56.21875 20.066406 "/>
<path style="fill:none;stroke-width:0.196622;stroke-linecap:square;stroke-linejoin:miter;stroke:rgb(2.590942%,3.305054%,3.385925%);stroke-opacity:1;stroke-miterlimit:4;" d="M 44.734375 16.625 C 44.746094 16.652344 44.785156 16.84375 44.785156 16.96875 C 44.757812 17.09375 44.699219 17.550781 44.640625 17.703125 C 44.597656 17.875 44.554688 18.046875 44.523438 18.21875 C 44.464844 18.40625 44.4375 18.527344 44.375 18.71875 C 44.355469 18.882812 44.316406 19.039062 44.273438 19.203125 "/>
<path style="fill:none;stroke-width:0.196622;stroke-linecap:square;stroke-linejoin:miter;stroke:rgb(2.590942%,3.305054%,3.385925%);stroke-opacity:1;stroke-miterlimit:4;" d="M 45.6875 17.628906 C 45.652344 17.769531 45.496094 18.394531 45.429688 18.5625 C 45.375 18.75 45.320312 18.941406 45.28125 19.128906 C 45.210938 19.335938 45.179688 19.46875 45.101562 19.679688 C 45.074219 19.863281 45.027344 20.035156 44.972656 20.214844 "/>
<path style="fill:none;stroke-width:0.177778;stroke-linecap:square;stroke-linejoin:miter;stroke:rgb(2.590942%,3.305054%,3.385925%);stroke-opacity:1;stroke-miterlimit:4;" d="M 52.191406 21.96875 L 52.207031 21.941406 C 52.15625 22.027344 52.195312 21.976562 52.117188 21.785156 C 52.035156 21.679688 51.992188 21.199219 52.144531 20.941406 C 52.203125 20.808594 52.300781 20.609375 52.375 20.484375 C 52.394531 20.453125 52.449219 20.417969 52.46875 20.382812 "/>
<path style="fill:none;stroke-width:0.177778;stroke-linecap:square;stroke-linejoin:miter;stroke:rgb(2.590942%,3.305054%,3.385925%);stroke-opacity:1;stroke-miterlimit:4;" d="M 46.707031 18.746094 L 46.691406 18.773438 C 46.710938 18.738281 46.652344 18.84375 46.628906 18.878906 C 46.550781 19.019531 46.445312 19.144531 46.371094 19.265625 C 46.292969 19.398438 46.175781 19.511719 46.101562 19.644531 C 46.003906 19.765625 45.914062 19.933594 45.8125 20.0625 C 45.71875 20.214844 45.613281 20.320312 45.519531 20.484375 C 45.4375 20.613281 45.375 20.671875 45.292969 20.816406 L 45.519531 20.484375 C 45.4375 20.613281 45.375 20.671875 45.292969 20.816406 "/>
<path style="fill:none;stroke-width:0.177778;stroke-linecap:square;stroke-linejoin:miter;stroke:rgb(2.590942%,3.305054%,3.385925%);stroke-opacity:1;stroke-miterlimit:4;" d="M 43.980469 15.949219 C 43.992188 15.972656 44.035156 16.15625 44.042969 16.269531 C 44.019531 16.386719 43.980469 16.8125 43.929688 16.953125 C 43.890625 17.113281 43.855469 17.273438 43.832031 17.433594 C 43.78125 17.605469 43.761719 17.71875 43.703125 17.894531 C 43.691406 18.050781 43.660156 18.195312 43.621094 18.34375 "/>
<path style="fill:none;stroke-width:0.177778;stroke-linecap:square;stroke-linejoin:miter;stroke:rgb(2.590942%,3.305054%,3.385925%);stroke-opacity:1;stroke-miterlimit:4;" d="M 47.164062 21.144531 C 46.992188 20.941406 46.878906 21.003906 46.761719 20.992188 C 46.628906 21.007812 46.382812 21.105469 46.128906 21.339844 C 46.035156 21.429688 45.957031 21.5 45.835938 21.597656 C 45.78125 21.675781 45.734375 21.707031 45.675781 21.753906 "/>
<path style="fill:none;stroke-width:0.177778;stroke-linecap:square;stroke-linejoin:miter;stroke:rgb(2.590942%,3.305054%,3.385925%);stroke-opacity:1;stroke-miterlimit:4;" d="M 61.339844 15.253906 L 61.324219 15.28125 C 61.375 15.199219 61.339844 15.246094 61.367188 15.449219 C 61.414062 15.59375 61.417969 15.691406 61.46875 15.828125 "/>
<path style="fill:none;stroke-width:0.177778;stroke-linecap:square;stroke-linejoin:miter;stroke:rgb(2.590942%,3.305054%,3.385925%);stroke-opacity:1;stroke-miterlimit:4;" d="M 58.433594 15.878906 C 58.425781 15.894531 58.304688 17.878906 58.375 18.140625 C 58.390625 18.304688 58.429688 18.445312 58.445312 18.640625 C 58.4375 18.757812 58.460938 18.859375 58.464844 18.976562 C 58.523438 19.105469 58.535156 19.234375 58.597656 19.335938 C 58.625 19.480469 58.734375 19.488281 58.789062 19.625 C 58.871094 19.71875 59 19.886719 59.078125 19.960938 "/>
<path style="fill:none;stroke-width:0.177778;stroke-linecap:square;stroke-linejoin:miter;stroke:rgb(2.590942%,3.305054%,3.385925%);stroke-opacity:1;stroke-miterlimit:4;" d="M 56.796875 21.25 C 56.738281 21.222656 56.585938 21.09375 56.453125 21.019531 C 56.308594 20.925781 55.957031 20.464844 55.953125 20.152344 "/>
<path style="fill:none;stroke-width:0.177778;stroke-linecap:square;stroke-linejoin:miter;stroke:rgb(2.590942%,3.305054%,3.385925%);stroke-opacity:1;stroke-miterlimit:4;" d="M 58.417969 18.5 C 58.410156 18.507812 58.199219 18.699219 57.851562 19.019531 C 57.410156 19.390625 56.226562 20.011719 56.085938 20.058594 C 55.949219 20.113281 55.777344 20.25 55.644531 20.261719 C 55.492188 20.316406 55.339844 20.332031 55.195312 20.359375 C 55.019531 20.386719 54.871094 20.414062 54.734375 20.414062 C 54.324219 20.570312 52.191406 20.402344 52.082031 20.371094 C 51.96875 20.363281 51.8125 20.347656 51.710938 20.335938 C 51.609375 20.355469 51.488281 20.339844 51.351562 20.339844 C 51.1875 20.316406 51.089844 20.34375 50.949219 20.355469 C 50.835938 20.40625 50.652344 20.460938 50.523438 20.535156 C 50.351562 20.597656 50.242188 20.683594 50.125 20.730469 C 49.996094 20.828125 48.289062 21.71875 48.207031 21.757812 C 48.03125 21.824219 47.394531 21.980469 47.261719 21.535156 C 47.226562 21.359375 47.15625 21.175781 47.160156 21.042969 C 47.113281 20.882812 47.152344 20.714844 47.167969 20.566406 C 47.347656 19.824219 47.601562 19.539062 47.675781 19.417969 C 47.699219 19.371094 47.726562 19.328125 47.753906 19.285156 "/>
<path style="fill:none;stroke-width:0.177778;stroke-linecap:square;stroke-linejoin:miter;stroke:rgb(2.590942%,3.305054%,3.385925%);stroke-opacity:1;stroke-miterlimit:4;" d="M 63.316406 17.261719 L 63.300781 17.285156 C 63.34375 17.214844 63.324219 17.253906 63.210938 17.378906 C 63.101562 17.460938 62.964844 17.589844 62.859375 17.675781 C 62.757812 17.765625 62.65625 17.898438 62.570312 17.933594 C 62.476562 18.042969 62.363281 18.074219 62.238281 18.132812 C 62.070312 18.183594 61.957031 18.234375 61.8125 18.3125 C 61.625 18.402344 61.511719 18.488281 61.339844 18.574219 C 61.230469 18.699219 61.121094 18.777344 61.027344 18.929688 C 60.933594 19.066406 60.839844 19.1875 60.75 19.339844 C 60.679688 19.464844 60.605469 19.589844 60.535156 19.714844 L 60.75 19.339844 C 60.679688 19.464844 60.605469 19.589844 60.535156 19.714844 "/>
<path style="fill-rule:evenodd;fill:rgb(95.698547%,92.198181%,2.2995%);fill-opacity:1;stroke-width:0.177778;stroke-linecap:square;stroke-linejoin:miter;stroke:rgb(2.590942%,3.305054%,3.385925%);stroke-opacity:1;stroke-miterlimit:4;" d="M 61.609375 16.144531 C 61.402344 16.558594 60.894531 17.15625 60.886719 17.167969 L 60.386719 18.058594 C 60.164062 18.546875 60.28125 18.75 60.363281 18.898438 C 60.53125 19.230469 60.554688 19.402344 60.675781 19.652344 C 60.710938 19.960938 60.167969 20.035156 60.160156 20.050781 C 59.019531 20.386719 58.5 19.28125 58.496094 19.226562 C 58.371094 18.652344 58.394531 18.558594 58.746094 18.460938 C 59.144531 18.386719 59.304688 18.390625 59.503906 18.257812 C 59.886719 18 60.1875 17.175781 60.195312 17.160156 L 60.273438 16.6875 C 60.3125 16.46875 60.21875 16.257812 60.351562 15.910156 C 60.515625 15.578125 60.609375 15.488281 60.960938 15.480469 C 61.417969 15.460938 61.753906 15.800781 61.609375 16.144531 Z M 61.609375 16.144531 "/>
<path style="fill-rule:evenodd;fill:rgb(99.998474%,99.998474%,99.998474%);fill-opacity:1;stroke-width:0.177778;stroke-linecap:square;stroke-linejoin:miter;stroke:rgb(2.590942%,3.305054%,3.385925%);stroke-opacity:1;stroke-miterlimit:4;" d="M 60.480469 19.910156 L 61.027344 21.375 L 61.410156 22.769531 L 61.605469 24.140625 L 61.65625 25.496094 L 61.609375 26.648438 L 61.429688 27.738281 Z M 60.480469 19.910156 "/>
<path style=" stroke:none;fill-rule:evenodd;fill:rgb(95.698547%,92.198181%,3.100586%);fill-opacity:1;" d="M 63.304688 33.210938 C 62.882812 32 62.726562 29.851562 62.726562 29.851562 C 62.222656 29.628906 61.722656 29.40625 61.21875 29.1875 C 61.792969 29.367188 62.367188 29.550781 62.941406 29.730469 C 62.945312 29.753906 62.949219 29.777344 62.953125 29.800781 C 62.941406 29.8125 62.929688 29.820312 62.921875 29.832031 L 62.742188 29.976562 L 62.78125 30.207031 C 62.957031 31.207031 63.128906 32.210938 63.304688 33.210938 Z M 63.304688 33.210938 "/>
<path style=" stroke:none;fill-rule:evenodd;fill:rgb(94.499207%,90.99884%,2.2995%);fill-opacity:1;" d="M 62.953125 29.800781 C 62.949219 29.777344 62.945312 29.753906 62.941406 29.730469 C 62.964844 29.738281 62.988281 29.746094 63.015625 29.753906 C 62.992188 29.769531 62.972656 29.785156 62.953125 29.800781 Z M 62.953125 29.800781 "/>
<path style=" stroke:none;fill-rule:evenodd;fill:rgb(95.698547%,92.198181%,3.100586%);fill-opacity:1;" d="M 64.277344 33.453125 L 64.132812 33.355469 C 63.957031 32.335938 63.777344 31.316406 63.601562 30.296875 C 63.722656 30.195312 63.847656 30.097656 63.96875 29.996094 C 64.003906 31.09375 63.867188 32.246094 64.277344 33.453125 Z M 64.277344 33.453125 "/>
<path style=" stroke:none;fill-rule:evenodd;fill:rgb(94.499207%,90.99884%,2.2995%);fill-opacity:1;" d="M 64.453125 33.894531 L 63.667969 33.894531 C 63.527344 33.757812 63.40625 33.515625 63.304688 33.210938 C 63.128906 32.210938 62.957031 31.207031 62.78125 30.207031 L 62.742188 29.976562 L 62.921875 29.832031 C 62.929688 29.820312 62.941406 29.8125 62.953125 29.800781 C 62.972656 29.785156 62.992188 29.769531 63.015625 29.753906 C 63.28125 29.835938 63.546875 29.921875 63.816406 30.007812 L 63.90625 30.035156 L 63.96875 29.976562 C 63.96875 29.984375 63.96875 29.988281 63.96875 29.996094 C 63.847656 30.097656 63.722656 30.195312 63.601562 30.296875 C 63.777344 31.316406 63.957031 32.335938 64.132812 33.355469 L 64.277344 33.453125 C 64.328125 33.601562 64.386719 33.746094 64.453125 33.894531 Z M 64.453125 33.894531 "/>
<path style=" stroke:none;fill-rule:evenodd;fill:rgb(94.499207%,90.99884%,2.2995%);fill-opacity:1;" d="M 59.578125 28.460938 C 59.519531 28.4375 59.464844 28.410156 59.40625 28.386719 C 59.460938 28.351562 59.511719 28.292969 59.550781 28.21875 C 59.558594 28.300781 59.566406 28.382812 59.578125 28.460938 Z M 59.578125 28.460938 "/>
<path style=" stroke:none;fill-rule:evenodd;fill:rgb(94.499207%,90.99884%,2.2995%);fill-opacity:1;" d="M 65.933594 28.140625 C 66.171875 27.917969 66.414062 27.691406 66.652344 27.46875 L 66.714844 27.410156 L 66.703125 27.328125 C 66.691406 27.222656 66.675781 27.128906 66.65625 27.039062 C 66.710938 27.183594 66.789062 27.304688 66.890625 27.351562 C 66.566406 27.617188 66.25 27.878906 65.933594 28.140625 Z M 65.933594 28.140625 "/>
<path style=" stroke:none;fill-rule:evenodd;fill:rgb(95.698547%,92.198181%,3.100586%);fill-opacity:1;" d="M 63.824219 29.664062 C 62.515625 29.25 61.210938 28.839844 59.902344 28.425781 C 59.894531 28.335938 59.882812 28.246094 59.875 28.152344 C 59.859375 28.003906 59.847656 27.855469 59.832031 27.707031 C 60.140625 27.8125 60.742188 28.039062 61.363281 28.269531 C 61.363281 28.273438 61.363281 28.277344 61.367188 28.285156 L 61.398438 28.324219 C 61.414062 28.335938 61.441406 28.347656 61.460938 28.347656 L 61.464844 28.347656 C 61.496094 28.347656 61.511719 28.335938 61.523438 28.332031 L 61.523438 28.328125 C 62.304688 28.617188 63.074219 28.890625 63.28125 28.894531 C 63.789062 28.710938 65.585938 27.238281 66.261719 26.675781 C 66.265625 26.703125 66.265625 26.730469 66.265625 26.75 L 66.265625 26.753906 L 66.429688 26.753906 L 66.269531 26.78125 C 66.300781 26.960938 66.339844 27.117188 66.363281 27.285156 C 65.515625 28.078125 64.671875 28.871094 63.824219 29.664062 Z M 63.824219 29.664062 "/>
<path style=" stroke:none;fill-rule:evenodd;fill:rgb(94.499207%,90.99884%,2.2995%);fill-opacity:1;" d="M 63.90625 30.035156 L 63.816406 30.007812 C 63.546875 29.921875 63.28125 29.835938 63.015625 29.753906 C 62.988281 29.746094 62.964844 29.738281 62.941406 29.730469 C 62.367188 29.550781 61.792969 29.367188 61.21875 29.1875 C 60.671875 28.945312 60.125 28.707031 59.578125 28.460938 C 59.566406 28.382812 59.558594 28.300781 59.550781 28.21875 C 59.628906 28.074219 59.671875 27.863281 59.621094 27.660156 C 59.613281 27.652344 59.613281 27.648438 59.625 27.648438 C 59.648438 27.648438 59.722656 27.671875 59.832031 27.707031 C 59.847656 27.855469 59.859375 28.003906 59.875 28.152344 C 59.882812 28.246094 59.894531 28.335938 59.902344 28.425781 C 61.210938 28.839844 62.515625 29.25 63.824219 29.664062 C 64.671875 28.871094 65.515625 28.078125 66.363281 27.285156 C 66.339844 27.117188 66.300781 26.960938 66.269531 26.78125 L 66.429688 26.753906 L 66.265625 26.753906 L 66.265625 26.75 C 66.265625 26.730469 66.265625 26.703125 66.261719 26.675781 C 66.425781 26.539062 66.523438 26.457031 66.523438 26.457031 C 66.535156 26.585938 66.574219 26.832031 66.65625 27.039062 C 66.675781 27.128906 66.691406 27.222656 66.703125 27.328125 L 66.714844 27.410156 L 66.652344 27.46875 C 66.414062 27.691406 66.171875 27.917969 65.933594 28.140625 C 65.28125 28.683594 64.640625 29.222656 63.960938 29.773438 C 63.964844 29.84375 63.964844 29.910156 63.96875 29.976562 Z M 63.90625 30.035156 "/>
<path style=" stroke:none;fill-rule:evenodd;fill:rgb(94.499207%,90.99884%,2.2995%);fill-opacity:1;" d="M 61.460938 28.347656 C 61.441406 28.347656 61.414062 28.335938 61.398438 28.324219 L 61.367188 28.285156 C 61.363281 28.277344 61.363281 28.273438 61.363281 28.269531 C 61.414062 28.289062 61.46875 28.308594 61.523438 28.328125 L 61.523438 28.332031 C 61.511719 28.335938 61.496094 28.347656 61.464844 28.347656 Z M 61.460938 28.347656 "/>
<path style="fill:none;stroke-width:0.427022;stroke-linecap:square;stroke-linejoin:miter;stroke:rgb(2.590942%,3.305054%,3.385925%);stroke-opacity:1;stroke-miterlimit:4;" d="M 59.625 27.660156 C 59.453125 27.507812 62.816406 28.878906 63.28125 28.894531 C 63.914062 28.664062 66.523438 26.457031 66.523438 26.457031 C 66.546875 26.671875 66.640625 27.234375 66.890625 27.351562 C 65.882812 28.171875 64.96875 28.957031 63.960938 29.773438 C 64.03125 31.070312 63.796875 32.445312 64.453125 33.898438 L 63.667969 33.898438 C 62.972656 33.203125 62.726562 29.851562 62.726562 29.851562 C 61.621094 29.359375 60.511719 28.878906 59.40625 28.386719 C 59.566406 28.285156 59.695312 27.964844 59.625 27.660156 Z M 59.625 27.660156 "/>
</g>
</svg>
