<?xml version="1.0" encoding="UTF-8"?>
<svg xmlns="http://www.w3.org/2000/svg" xmlns:xlink="http://www.w3.org/1999/xlink" width="128pt" height="76pt" viewBox="0 0 128 76" version="1.1">
<defs>
<clipPath id="clip1">
  <path d="M 0 0 L 128 0 L 128 75.839844 L 0 75.839844 Z M 0 0 "/>
</clipPath>
<clipPath id="clip2">
  <path d="M 0 61 L 128 61 L 128 75.839844 L 0 75.839844 Z M 0 61 "/>
</clipPath>
</defs>
<g id="surface542">
<g clip-path="url(#clip1)" clip-rule="nonzero">
<rect x="0" y="0" width="128" height="76" style="fill:rgb(99.998474%,99.998474%,99.998474%);fill-opacity:1;stroke:none;"/>
</g>
<path style=" stroke:none;fill-rule:evenodd;fill:rgb(0%,21.960449%,72.155762%);fill-opacity:1;" d="M 0 0 L 128 0 L 128 14.546875 L 0 14.546875 Z M 0 0 "/>
<g clip-path="url(#clip2)" clip-rule="nonzero">
<path style=" stroke:none;fill-rule:evenodd;fill:rgb(0%,21.960449%,72.155762%);fill-opacity:1;" d="M 0 61.089844 L 128 61.089844 L 128 75.636719 L 0 75.636719 Z M 0 61.089844 "/>
</g>
<path style="fill:none;stroke-width:3.2;stroke-linecap:butt;stroke-linejoin:miter;stroke:rgb(0%,21.960449%,72.155762%);stroke-opacity:1;stroke-miterlimit:4;" d="M 64 20.863281 L 49.316406 46.296875 L 78.683594 46.296875 Z M 64 20.863281 "/>
<path style="fill:none;stroke-width:3.2;stroke-linecap:butt;stroke-linejoin:miter;stroke:rgb(0%,21.960449%,72.155762%);stroke-opacity:1;stroke-miterlimit:4;" d="M 64 54.773438 L 78.683594 29.339844 L 49.316406 29.339844 Z M 64 54.773438 "/>
</g>
</svg>
