<?xml version="1.0" encoding="UTF-8"?>
<svg xmlns="http://www.w3.org/2000/svg" xmlns:xlink="http://www.w3.org/1999/xlink" width="128pt" height="77pt" viewBox="0 0 128 77" version="1.1">
<defs>
<clipPath id="clip1">
  <path d="M 0 0 L 128 0 L 128 76.800781 L 0 76.800781 Z M 0 0 "/>
</clipPath>
</defs>
<g id="surface567">
<g clip-path="url(#clip1)" clip-rule="nonzero">
<path style=" stroke:none;fill-rule:evenodd;fill:rgb(99.998474%,99.998474%,99.998474%);fill-opacity:1;" d="M 0 76.800781 L 0 0 L 128 0 L 128 76.800781 Z M 0 76.800781 "/>
<path style=" stroke:none;fill-rule:evenodd;fill:rgb(87.449646%,6.666565%,17.64679%);fill-opacity:1;" d="M 0 0 L 0 4.933594 L 55.734375 38.398438 L 0 71.867188 L 0 76.800781 L 8.398438 76.800781 L 64 43.332031 L 119.601562 76.800781 L 128 76.800781 L 128 71.867188 L 72.265625 38.398438 L 128 4.933594 L 128 0 L 119.601562 0 L 64 33.46875 L 8.398438 0 Z M 0 0 "/>
</g>
<path style="fill-rule:evenodd;fill:rgb(90.979004%,6.666565%,17.64679%);fill-opacity:1;stroke-width:0.0651552;stroke-linecap:butt;stroke-linejoin:miter;stroke:rgb(0%,0%,0%);stroke-opacity:1;stroke-miterlimit:4;" d="M 70.699219 11.488281 C 72.34375 18.152344 71.441406 26.375 64.011719 30.941406 C 56.582031 26.375 55.679688 18.152344 57.324219 11.488281 C 59.074219 9.898438 67.035156 8.917969 70.699219 11.488281 Z M 70.699219 11.488281 "/>
<path style="fill-rule:evenodd;fill:rgb(97.645569%,86.665344%,8.627319%);fill-opacity:1;stroke-width:0.0651552;stroke-linecap:butt;stroke-linejoin:miter;stroke:rgb(0%,0%,0%);stroke-opacity:1;stroke-miterlimit:4;" d="M 64 10.152344 C 66.722656 10.152344 69.261719 10.875 70.757812 11.808594 C 71.050781 9.511719 72.089844 7.214844 73.320312 5.480469 C 72.039062 5.453125 71.464844 6.132812 71.449219 6.839844 C 71.128906 5.933594 69.875 5.988281 69.488281 6.480469 C 70.890625 7.429688 69.808594 9.109375 68.539062 8.765625 C 67.945312 8.601562 67.628906 8.1875 67.515625 7.582031 C 67.65625 7.574219 67.789062 7.523438 67.90625 7.429688 C 68.203125 7.191406 68.246094 6.757812 68.007812 6.460938 C 67.765625 6.164062 67.332031 6.121094 67.035156 6.359375 C 66.742188 6.597656 66.695312 7.035156 66.9375 7.328125 C 67.015625 7.425781 67.113281 7.496094 67.222656 7.535156 C 66.824219 8.191406 66.105469 8.386719 65.589844 8.242188 C 64.921875 8.054688 64.640625 7.457031 64.640625 6.921875 C 64.640625 5.53125 65.976562 5.320312 66.375 5.558594 C 66.351562 4.625 64.882812 3.878906 64.425781 4.652344 C 64.933594 3.742188 64.90625 2.460938 64 1.609375 C 63.09375 2.460938 63.066406 3.742188 63.574219 4.652344 C 63.117188 3.878906 61.648438 4.625 61.625 5.558594 C 62.023438 5.320312 63.359375 5.53125 63.359375 6.921875 C 63.359375 7.457031 63.078125 8.054688 62.410156 8.242188 C 61.894531 8.386719 61.175781 8.191406 60.777344 7.535156 C 60.886719 7.496094 60.984375 7.425781 61.0625 7.328125 C 61.304688 7.035156 61.257812 6.597656 60.960938 6.359375 C 60.667969 6.121094 60.234375 6.164062 59.992188 6.460938 C 59.753906 6.757812 59.796875 7.191406 60.09375 7.429688 C 60.210938 7.523438 60.34375 7.574219 60.484375 7.582031 C 60.371094 8.1875 60.054688 8.601562 59.460938 8.765625 C 58.191406 9.109375 57.109375 7.429688 58.511719 6.480469 C 58.125 5.988281 56.871094 5.933594 56.550781 6.839844 C 56.535156 6.132812 55.960938 5.453125 54.679688 5.480469 C 55.910156 7.214844 56.949219 9.511719 57.242188 11.808594 C 58.738281 10.875 61.277344 10.152344 64 10.152344 Z M 64 10.152344 "/>
<path style=" stroke:none;fill-rule:evenodd;fill:rgb(97.645569%,86.665344%,8.627319%);fill-opacity:1;" d="M 69.652344 16.683594 C 69.484375 16.722656 69.484375 16.9375 69.402344 16.9375 C 69.828125 16.925781 70.035156 16.808594 70.164062 16.589844 C 70.070312 16.675781 70.152344 16.84375 70.121094 16.882812 C 70.433594 16.769531 70.582031 16.503906 70.472656 16.324219 C 70.542969 16.425781 70.746094 16.480469 70.808594 16.488281 C 70.589844 16.316406 70.746094 15.925781 70.394531 15.722656 C 70.511719 15.714844 70.738281 15.847656 70.800781 16.003906 C 70.746094 15.652344 70.691406 15.421875 70.402344 15.226562 C 70.433594 15.261719 70.597656 15.292969 70.667969 15.226562 C 70.480469 15.109375 70.425781 14.914062 70.441406 14.789062 C 70.464844 14.613281 70.347656 14.578125 70.128906 14.632812 C 69.929688 14.683594 69.480469 14.710938 69.210938 14.710938 C 68.664062 14.710938 68.1875 14.710938 67.730469 14.398438 C 68.414062 14.679688 69.28125 14.085938 69.28125 13.589844 C 69.28125 13.042969 68.609375 12.59375 67.246094 12.894531 C 65.882812 13.191406 64.222656 13.066406 64.222656 12.609375 C 64.222656 12.15625 65.414062 12.09375 66.023438 12.1875 C 66.632812 12.28125 67.074219 12.34375 68.21875 11.9375 C 67.933594 12.046875 67.027344 12.078125 66.304688 11.875 C 65.585938 11.671875 63.8125 11.671875 63.796875 12.625 C 63.78125 13.582031 65.683594 13.496094 67.324219 13.253906 C 68.28125 13.113281 68.78125 13.207031 68.78125 13.519531 C 68.78125 13.816406 67.902344 13.941406 67.230469 13.863281 C 66.554688 13.785156 65.867188 13.800781 65.066406 14.035156 C 64.402344 14.234375 63.941406 14.035156 63.203125 14.164062 C 62.847656 14.222656 61.980469 14.164062 61.554688 13.457031 C 61.292969 13.644531 60.5 14.039062 60.367188 14.421875 C 60.179688 14.777344 60.304688 15.125 60.554688 15.46875 C 60.871094 15.90625 60.398438 15.839844 60.0625 15.855469 C 59.601562 15.875 58.980469 15.804688 58.660156 15.4375 C 58.375 15.113281 57.992188 14.855469 57.6875 15.09375 C 57.53125 15.21875 57.683594 15.382812 57.804688 15.335938 C 57.929688 15.292969 58.074219 15.382812 58.203125 15.4375 C 57.996094 15.347656 57.765625 15.417969 57.675781 15.5 C 57.550781 15.609375 57.703125 15.820312 57.851562 15.746094 C 57.96875 15.6875 58.210938 15.648438 58.367188 15.792969 C 58.199219 15.761719 58.019531 15.765625 57.9375 15.859375 C 57.851562 15.949219 57.917969 16.082031 58.101562 16.074219 C 58.390625 16.058594 58.46875 16.265625 58.761719 16.222656 C 58.582031 16.246094 58.480469 16.339844 58.433594 16.410156 C 58.707031 16.285156 59.007812 16.625 59.363281 16.542969 C 59.226562 16.601562 59 16.738281 59.003906 16.84375 C 59.214844 16.597656 60.632812 17.03125 60.664062 16.496094 C 60.703125 16.605469 60.695312 16.769531 60.585938 16.914062 C 60.769531 16.800781 61.355469 16.765625 61.535156 16.339844 C 61.550781 16.464844 61.527344 16.628906 61.417969 16.667969 C 61.605469 16.730469 61.851562 16.589844 62.105469 16.214844 C 62.207031 16.066406 62.230469 15.96875 62.214844 15.855469 C 62.464844 15.863281 62.648438 15.800781 62.84375 15.636719 C 63.046875 15.464844 63.265625 15.777344 63.609375 15.558594 C 63.957031 15.335938 64.253906 15.527344 64.441406 15.417969 C 64.628906 15.304688 64.886719 15.453125 65.089844 15.328125 C 65.296875 15.203125 65.609375 15.390625 65.949219 15.125 C 66.480469 15.320312 67.097656 15.679688 68.617188 15.398438 C 69.488281 15.242188 69.761719 15.535156 69.761719 15.933594 C 69.761719 16.207031 69.601562 16.230469 69.480469 16.238281 C 68.996094 16.269531 68.785156 16.058594 68.59375 16.125 C 68.46875 16.171875 68.390625 16.378906 68.574219 16.449219 C 68.421875 16.527344 68.441406 16.675781 68.519531 16.730469 C 68.597656 16.78125 68.796875 16.734375 68.9375 16.671875 C 68.761719 16.75 68.578125 16.894531 68.679688 17.042969 C 68.746094 17.132812 68.90625 17.210938 69.054688 17.015625 C 69.203125 16.824219 69.476562 16.660156 69.652344 16.683594 Z M 69.652344 16.683594 "/>
<path style="fill:none;stroke-width:0.0651552;stroke-linecap:butt;stroke-linejoin:miter;stroke:rgb(0%,0%,0%);stroke-opacity:1;stroke-miterlimit:4;" d="M 69.652344 16.683594 C 69.484375 16.722656 69.484375 16.9375 69.402344 16.9375 C 69.828125 16.925781 70.035156 16.808594 70.164062 16.589844 C 70.070312 16.675781 70.152344 16.84375 70.121094 16.882812 C 70.433594 16.769531 70.582031 16.503906 70.472656 16.324219 C 70.542969 16.425781 70.746094 16.480469 70.808594 16.488281 C 70.589844 16.316406 70.746094 15.925781 70.394531 15.722656 C 70.511719 15.714844 70.738281 15.847656 70.800781 16.003906 C 70.746094 15.652344 70.691406 15.421875 70.402344 15.226562 C 70.433594 15.261719 70.597656 15.292969 70.667969 15.226562 C 70.480469 15.109375 70.425781 14.914062 70.441406 14.789062 C 70.464844 14.613281 70.347656 14.578125 70.128906 14.632812 C 69.929688 14.683594 69.480469 14.710938 69.210938 14.710938 C 68.664062 14.710938 68.1875 14.710938 67.730469 14.398438 C 68.414062 14.679688 69.28125 14.085938 69.28125 13.589844 C 69.28125 13.042969 68.609375 12.59375 67.246094 12.894531 C 65.882812 13.191406 64.222656 13.066406 64.222656 12.609375 C 64.222656 12.15625 65.414062 12.09375 66.023438 12.1875 C 66.632812 12.28125 67.074219 12.34375 68.21875 11.9375 C 67.933594 12.046875 67.027344 12.078125 66.304688 11.875 C 65.585938 11.671875 63.8125 11.671875 63.796875 12.625 C 63.78125 13.582031 65.683594 13.496094 67.324219 13.253906 C 68.28125 13.113281 68.78125 13.207031 68.78125 13.519531 C 68.78125 13.816406 67.902344 13.941406 67.230469 13.863281 C 66.554688 13.785156 65.867188 13.800781 65.066406 14.035156 C 64.402344 14.234375 63.941406 14.035156 63.203125 14.164062 C 62.847656 14.222656 61.980469 14.164062 61.554688 13.457031 C 61.292969 13.644531 60.5 14.039062 60.367188 14.421875 C 60.179688 14.777344 60.304688 15.125 60.554688 15.46875 C 60.871094 15.90625 60.398438 15.839844 60.0625 15.855469 C 59.601562 15.875 58.980469 15.804688 58.660156 15.4375 C 58.375 15.113281 57.992188 14.855469 57.6875 15.09375 C 57.53125 15.21875 57.683594 15.382812 57.804688 15.335938 C 57.929688 15.292969 58.074219 15.382812 58.203125 15.4375 C 57.996094 15.347656 57.765625 15.417969 57.675781 15.5 C 57.550781 15.609375 57.703125 15.820312 57.851562 15.746094 C 57.96875 15.6875 58.210938 15.648438 58.367188 15.792969 C 58.199219 15.761719 58.019531 15.765625 57.9375 15.859375 C 57.851562 15.949219 57.917969 16.082031 58.101562 16.074219 C 58.390625 16.058594 58.46875 16.265625 58.761719 16.222656 C 58.582031 16.246094 58.480469 16.339844 58.433594 16.410156 C 58.707031 16.285156 59.007812 16.625 59.363281 16.542969 C 59.226562 16.601562 59 16.738281 59.003906 16.84375 C 59.214844 16.597656 60.632812 17.03125 60.664062 16.496094 C 60.703125 16.605469 60.695312 16.769531 60.585938 16.914062 C 60.769531 16.800781 61.355469 16.765625 61.535156 16.339844 C 61.550781 16.464844 61.527344 16.628906 61.417969 16.667969 C 61.605469 16.730469 61.851562 16.589844 62.105469 16.214844 C 62.207031 16.066406 62.230469 15.96875 62.214844 15.855469 C 62.464844 15.863281 62.648438 15.800781 62.84375 15.636719 C 63.046875 15.464844 63.265625 15.777344 63.609375 15.558594 C 63.957031 15.335938 64.253906 15.527344 64.441406 15.417969 C 64.628906 15.304688 64.886719 15.453125 65.089844 15.332031 C 65.296875 15.203125 65.609375 15.390625 65.949219 15.125 C 66.480469 15.320312 67.097656 15.679688 68.617188 15.398438 C 69.488281 15.242188 69.761719 15.535156 69.761719 15.933594 C 69.761719 16.207031 69.601562 16.230469 69.480469 16.238281 C 68.996094 16.269531 68.785156 16.058594 68.59375 16.125 C 68.46875 16.171875 68.390625 16.378906 68.574219 16.449219 C 68.421875 16.527344 68.441406 16.675781 68.519531 16.730469 C 68.597656 16.78125 68.796875 16.734375 68.9375 16.671875 C 68.761719 16.75 68.578125 16.894531 68.679688 17.042969 C 68.746094 17.132812 68.90625 17.210938 69.054688 17.015625 C 69.203125 16.824219 69.476562 16.660156 69.652344 16.683594 Z M 69.652344 16.683594 "/>
<path style="fill-rule:evenodd;fill:rgb(97.645569%,86.665344%,8.627319%);fill-opacity:1;stroke-width:0.0651552;stroke-linecap:butt;stroke-linejoin:miter;stroke:rgb(0%,0%,0%);stroke-opacity:1;stroke-miterlimit:4;" d="M 60.003906 12.546875 C 59.5625 12.367188 59.417969 12.363281 59.515625 12.722656 C 59.5625 12.875 59.664062 13.089844 59.769531 13.1875 C 59.777344 13.039062 59.832031 12.625 60.003906 12.546875 Z M 60.003906 12.546875 "/>
<path style="fill-rule:evenodd;fill:rgb(97.645569%,86.665344%,8.627319%);fill-opacity:1;stroke-width:0.0651552;stroke-linecap:butt;stroke-linejoin:miter;stroke:rgb(0%,0%,0%);stroke-opacity:1;stroke-miterlimit:4;" d="M 61.375 12.546875 C 61.8125 12.367188 61.960938 12.363281 61.859375 12.722656 C 61.816406 12.875 61.710938 13.089844 61.605469 13.1875 C 61.601562 13.039062 61.546875 12.625 61.375 12.546875 Z M 61.375 12.546875 "/>
<path style="fill-rule:evenodd;fill:rgb(97.645569%,86.665344%,8.627319%);fill-opacity:1;stroke-width:0.0651552;stroke-linecap:butt;stroke-linejoin:miter;stroke:rgb(0%,0%,0%);stroke-opacity:1;stroke-miterlimit:4;" d="M 60.691406 12.308594 C 61.519531 12.308594 61.625 12.699219 61.621094 13.183594 C 61.617188 13.707031 61.335938 13.527344 61.175781 14.203125 C 61.109375 14.464844 60.902344 14.480469 60.691406 14.480469 C 60.480469 14.480469 60.269531 14.464844 60.207031 14.203125 C 60.046875 13.527344 59.765625 13.707031 59.761719 13.183594 C 59.753906 12.699219 59.859375 12.308594 60.691406 12.308594 Z M 60.691406 12.308594 "/>
<path style="fill-rule:evenodd;fill:rgb(97.645569%,86.665344%,8.627319%);fill-opacity:1;stroke-width:0.0651552;stroke-linecap:butt;stroke-linejoin:miter;stroke:rgb(0%,0%,0%);stroke-opacity:1;stroke-miterlimit:4;" d="M 58.550781 14.234375 C 58.339844 14.109375 58.203125 14.195312 58.117188 14.21875 C 58.390625 14.289062 58.402344 14.640625 59.027344 14.804688 C 58.886719 14.765625 58.808594 14.84375 58.675781 14.773438 C 58.933594 14.976562 59.222656 15.214844 59.835938 15.21875 C 60.175781 15.222656 59.941406 15.398438 59.71875 15.296875 C 59.949219 15.539062 60.40625 15.339844 60.695312 15.777344 C 60.75 15.4375 60.15625 14.90625 60.429688 14.523438 C 59.585938 14.488281 59.515625 14.019531 59.027344 13.644531 C 58.632812 13.34375 58.59375 13.035156 58.421875 12.457031 C 58.339844 12.195312 58.035156 12.03125 57.863281 12.09375 C 57.71875 12.148438 57.664062 12.277344 57.789062 12.375 C 57.917969 12.46875 58.078125 12.484375 58.113281 12.726562 C 57.949219 12.527344 57.703125 12.457031 57.582031 12.582031 C 57.511719 12.65625 57.539062 12.832031 57.695312 12.847656 C 57.949219 12.875 57.765625 13.121094 58.054688 13.363281 C 57.800781 13.074219 57.578125 13.050781 57.441406 13.207031 C 57.359375 13.300781 57.441406 13.464844 57.617188 13.449219 C 57.871094 13.421875 58.167969 14.070312 58.550781 14.234375 Z M 58.550781 14.234375 "/>
<path style="fill-rule:evenodd;fill:rgb(97.645569%,86.665344%,8.627319%);fill-opacity:1;stroke-width:0.0651552;stroke-linecap:butt;stroke-linejoin:miter;stroke:rgb(0%,0%,0%);stroke-opacity:1;stroke-miterlimit:4;" d="M 65.367188 16.652344 C 65.230469 16.675781 65.273438 16.898438 65.089844 16.914062 C 65.523438 16.914062 65.742188 16.8125 65.945312 16.644531 C 65.851562 16.699219 65.8125 16.84375 65.804688 16.921875 C 66.03125 16.722656 66.570312 16.707031 66.855469 16.765625 C 67.136719 16.816406 67.183594 16.683594 67.285156 16.503906 C 67.386719 16.324219 67.246094 16.222656 67.105469 16.082031 C 66.964844 15.941406 66.933594 15.746094 66.964844 15.417969 C 66.210938 14.414062 64.863281 14.898438 64.847656 15.335938 C 65.335938 15.902344 65.398438 15.839844 65.804688 15.917969 C 66.210938 15.996094 66.460938 15.996094 66.1875 16.222656 C 66.09375 16.300781 65.703125 16.265625 65.398438 16.277344 C 64.714844 16.308594 64.402344 15.804688 64.199219 16.066406 C 64.03125 16.28125 64.203125 16.375 64.542969 16.363281 C 64.308594 16.367188 63.996094 16.351562 64.050781 16.570312 C 64.140625 16.9375 64.492188 16.503906 64.628906 16.65625 C 64.511719 16.625 64.328125 16.699219 64.324219 16.808594 C 64.316406 16.921875 64.582031 17.0625 64.875 16.832031 C 65.035156 16.703125 65.242188 16.65625 65.367188 16.652344 Z M 65.367188 16.652344 "/>
<path style="fill:none;stroke-width:0.0651552;stroke-linecap:butt;stroke-linejoin:miter;stroke:rgb(0%,0%,0%);stroke-opacity:1;stroke-miterlimit:4;" d="M 65.949219 15.125 C 65.703125 15.035156 65.480469 14.980469 65.191406 15.039062 "/>
<path style="fill:none;stroke-width:0.0651552;stroke-linecap:butt;stroke-linejoin:miter;stroke:rgb(0%,0%,0%);stroke-opacity:1;stroke-miterlimit:4;" d="M 62.261719 15.007812 C 62.0625 15.441406 62.183594 15.65625 62.214844 15.855469 "/>
<path style="fill:none;stroke-width:0.0651552;stroke-linecap:butt;stroke-linejoin:miter;stroke:rgb(0%,0%,0%);stroke-opacity:1;stroke-miterlimit:4;" d="M 60.121094 12.960938 C 60.257812 13.027344 60.335938 12.832031 60.539062 13.039062 C 60.484375 12.980469 60.414062 13.203125 60.257812 13.054688 "/>
<path style="fill:none;stroke-width:0.0651552;stroke-linecap:butt;stroke-linejoin:miter;stroke:rgb(0%,0%,0%);stroke-opacity:1;stroke-miterlimit:4;" d="M 61.25 12.960938 C 61.109375 13.027344 61.03125 12.832031 60.828125 13.039062 C 60.886719 12.980469 60.953125 13.203125 61.109375 13.054688 "/>
<path style="fill:none;stroke-width:0.0651552;stroke-linecap:butt;stroke-linejoin:miter;stroke:rgb(0%,0%,0%);stroke-opacity:1;stroke-miterlimit:4;" d="M 60.828125 13.039062 C 60.78125 13.078125 60.777344 13.007812 60.8125 13.195312 C 60.878906 13.535156 60.957031 13.691406 60.683594 13.691406 C 60.402344 13.691406 60.488281 13.535156 60.554688 13.195312 C 60.589844 13.007812 60.585938 13.078125 60.539062 13.039062 "/>
<path style="fill-rule:evenodd;fill:rgb(99.998474%,0%,8.627319%);fill-opacity:1;stroke-width:0.0325776;stroke-linecap:butt;stroke-linejoin:miter;stroke:rgb(0%,0%,0%);stroke-opacity:1;stroke-miterlimit:4;" d="M 60.6875 14.34375 C 60.910156 14.34375 61.039062 14.339844 61.003906 14.027344 C 60.992188 13.898438 61.160156 13.847656 61.097656 13.644531 C 61.160156 13.894531 60.6875 13.871094 60.6875 13.757812 C 60.6875 13.871094 60.214844 13.894531 60.277344 13.644531 C 60.21875 13.847656 60.386719 13.898438 60.371094 14.027344 C 60.335938 14.339844 60.464844 14.34375 60.6875 14.34375 Z M 60.6875 14.34375 "/>
<path style=" stroke:none;fill-rule:evenodd;fill:rgb(0%,0%,0%);fill-opacity:1;" d="M 60.488281 13.707031 L 59.953125 13.558594 Z M 60.488281 13.707031 "/>
<path style="fill:none;stroke-width:0.0325776;stroke-linecap:butt;stroke-linejoin:miter;stroke:rgb(0%,0%,0%);stroke-opacity:1;stroke-miterlimit:4;" d="M 60.488281 13.707031 L 59.953125 13.558594 "/>
<path style=" stroke:none;fill-rule:evenodd;fill:rgb(0%,0%,0%);fill-opacity:1;" d="M 60.488281 13.738281 L 59.890625 13.730469 Z M 60.488281 13.738281 "/>
<path style="fill:none;stroke-width:0.0325776;stroke-linecap:butt;stroke-linejoin:miter;stroke:rgb(0%,0%,0%);stroke-opacity:1;stroke-miterlimit:4;" d="M 60.488281 13.738281 L 59.890625 13.730469 "/>
<path style=" stroke:none;fill-rule:evenodd;fill:rgb(0%,0%,0%);fill-opacity:1;" d="M 60.492188 13.765625 L 59.984375 13.902344 Z M 60.492188 13.765625 "/>
<path style="fill:none;stroke-width:0.0325776;stroke-linecap:butt;stroke-linejoin:miter;stroke:rgb(0%,0%,0%);stroke-opacity:1;stroke-miterlimit:4;" d="M 60.492188 13.765625 L 59.984375 13.902344 "/>
<path style=" stroke:none;fill-rule:evenodd;fill:rgb(0%,0%,0%);fill-opacity:1;" d="M 60.890625 13.707031 L 61.425781 13.558594 Z M 60.890625 13.707031 "/>
<path style="fill:none;stroke-width:0.0325776;stroke-linecap:butt;stroke-linejoin:miter;stroke:rgb(0%,0%,0%);stroke-opacity:1;stroke-miterlimit:4;" d="M 60.890625 13.707031 L 61.425781 13.558594 "/>
<path style=" stroke:none;fill-rule:evenodd;fill:rgb(0%,0%,0%);fill-opacity:1;" d="M 60.890625 13.738281 L 61.488281 13.730469 Z M 60.890625 13.738281 "/>
<path style="fill:none;stroke-width:0.0325776;stroke-linecap:butt;stroke-linejoin:miter;stroke:rgb(0%,0%,0%);stroke-opacity:1;stroke-miterlimit:4;" d="M 60.890625 13.738281 L 61.488281 13.730469 "/>
<path style=" stroke:none;fill-rule:evenodd;fill:rgb(0%,0%,0%);fill-opacity:1;" d="M 60.882812 13.765625 L 61.394531 13.902344 Z M 60.882812 13.765625 "/>
<path style="fill:none;stroke-width:0.0325776;stroke-linecap:butt;stroke-linejoin:miter;stroke:rgb(0%,0%,0%);stroke-opacity:1;stroke-miterlimit:4;" d="M 60.882812 13.765625 L 61.394531 13.902344 "/>
<path style="fill-rule:evenodd;fill:rgb(0%,31.764221%,72.940063%);fill-opacity:1;stroke-width:0.00677613;stroke-linecap:butt;stroke-linejoin:miter;stroke:rgb(0%,0%,0%);stroke-opacity:1;stroke-miterlimit:4;" d="M 57.914062 12.105469 C 57.757812 11.910156 57.367188 12.074219 57.359375 12.316406 C 57.492188 12.160156 57.707031 12.386719 57.824219 12.335938 C 57.90625 12.304688 57.976562 12.183594 57.914062 12.105469 Z M 57.914062 12.105469 "/>
<path style="fill-rule:evenodd;fill:rgb(0%,31.764221%,72.940063%);fill-opacity:1;stroke-width:0.00677613;stroke-linecap:butt;stroke-linejoin:miter;stroke:rgb(0%,0%,0%);stroke-opacity:1;stroke-miterlimit:4;" d="M 57.710938 12.566406 C 57.554688 12.371094 57.164062 12.535156 57.15625 12.777344 C 57.289062 12.621094 57.503906 12.84375 57.621094 12.796875 C 57.703125 12.765625 57.773438 12.644531 57.710938 12.566406 Z M 57.710938 12.566406 "/>
<path style="fill-rule:evenodd;fill:rgb(0%,31.764221%,72.940063%);fill-opacity:1;stroke-width:0.00677613;stroke-linecap:butt;stroke-linejoin:miter;stroke:rgb(0%,0%,0%);stroke-opacity:1;stroke-miterlimit:4;" d="M 57.609375 13.183594 C 57.433594 13.007812 57.0625 13.214844 57.082031 13.453125 C 57.195312 13.285156 57.433594 13.484375 57.546875 13.421875 C 57.625 13.382812 57.679688 13.253906 57.609375 13.183594 Z M 57.609375 13.183594 "/>
<path style="fill-rule:evenodd;fill:rgb(0%,31.764221%,72.940063%);fill-opacity:1;stroke-width:0.00677613;stroke-linecap:butt;stroke-linejoin:miter;stroke:rgb(0%,0%,0%);stroke-opacity:1;stroke-miterlimit:4;" d="M 57.796875 15.09375 C 57.597656 14.941406 57.257812 15.1875 57.304688 15.425781 C 57.394531 15.242188 57.65625 15.414062 57.761719 15.339844 C 57.832031 15.289062 57.875 15.15625 57.796875 15.09375 Z M 57.796875 15.09375 "/>
<path style="fill-rule:evenodd;fill:rgb(0%,31.764221%,72.940063%);fill-opacity:1;stroke-width:0.00677613;stroke-linecap:butt;stroke-linejoin:miter;stroke:rgb(0%,0%,0%);stroke-opacity:1;stroke-miterlimit:4;" d="M 57.785156 15.511719 C 57.550781 15.425781 57.300781 15.769531 57.417969 15.980469 C 57.449219 15.777344 57.75 15.859375 57.828125 15.757812 C 57.878906 15.6875 57.878906 15.546875 57.785156 15.511719 Z M 57.785156 15.511719 "/>
<path style="fill-rule:evenodd;fill:rgb(0%,31.764221%,72.940063%);fill-opacity:1;stroke-width:0.00677613;stroke-linecap:butt;stroke-linejoin:miter;stroke:rgb(0%,0%,0%);stroke-opacity:1;stroke-miterlimit:4;" d="M 58.085938 15.824219 C 57.851562 15.738281 57.601562 16.082031 57.71875 16.292969 C 57.75 16.089844 58.050781 16.171875 58.128906 16.070312 C 58.179688 16 58.179688 15.859375 58.085938 15.824219 Z M 58.085938 15.824219 "/>
<path style="fill-rule:evenodd;fill:rgb(0%,31.764221%,72.940063%);fill-opacity:1;stroke-width:0.00677613;stroke-linecap:butt;stroke-linejoin:miter;stroke:rgb(0%,0%,0%);stroke-opacity:1;stroke-miterlimit:4;" d="M 64.203125 16.433594 C 63.96875 16.34375 63.71875 16.6875 63.835938 16.898438 C 63.871094 16.695312 64.167969 16.777344 64.246094 16.675781 C 64.296875 16.605469 64.296875 16.46875 64.203125 16.433594 Z M 64.203125 16.433594 "/>
<path style="fill-rule:evenodd;fill:rgb(0%,31.764221%,72.940063%);fill-opacity:1;stroke-width:0.00677613;stroke-linecap:butt;stroke-linejoin:miter;stroke:rgb(0%,0%,0%);stroke-opacity:1;stroke-miterlimit:4;" d="M 64.519531 16.714844 C 64.277344 16.65625 64.066406 17.023438 64.207031 17.21875 C 64.21875 17.015625 64.523438 17.0625 64.589844 16.953125 C 64.632812 16.878906 64.617188 16.738281 64.519531 16.714844 Z M 64.519531 16.714844 "/>
<path style="fill-rule:evenodd;fill:rgb(0%,31.764221%,72.940063%);fill-opacity:1;stroke-width:0.00677613;stroke-linecap:butt;stroke-linejoin:miter;stroke:rgb(0%,0%,0%);stroke-opacity:1;stroke-miterlimit:4;" d="M 64.296875 16.03125 C 64.082031 15.90625 63.777344 16.199219 63.855469 16.425781 C 63.921875 16.234375 64.203125 16.363281 64.296875 16.277344 C 64.359375 16.21875 64.382812 16.082031 64.296875 16.03125 Z M 64.296875 16.03125 "/>
<path style="fill-rule:evenodd;fill:rgb(0%,31.764221%,72.940063%);fill-opacity:1;stroke-width:0.00677613;stroke-linecap:butt;stroke-linejoin:miter;stroke:rgb(0%,0%,0%);stroke-opacity:1;stroke-miterlimit:4;" d="M 68.648438 16.519531 C 68.40625 16.460938 68.199219 16.828125 68.339844 17.023438 C 68.347656 16.820312 68.65625 16.867188 68.71875 16.757812 C 68.765625 16.683594 68.746094 16.542969 68.648438 16.519531 Z M 68.648438 16.519531 "/>
<path style="fill-rule:evenodd;fill:rgb(0%,31.764221%,72.940063%);fill-opacity:1;stroke-width:0.00677613;stroke-linecap:butt;stroke-linejoin:miter;stroke:rgb(0%,0%,0%);stroke-opacity:1;stroke-miterlimit:4;" d="M 68.65625 16.136719 C 68.4375 16.019531 68.144531 16.324219 68.230469 16.546875 C 68.289062 16.351562 68.578125 16.472656 68.664062 16.382812 C 68.726562 16.324219 68.746094 16.183594 68.65625 16.136719 Z M 68.65625 16.136719 "/>
<path style="fill-rule:evenodd;fill:rgb(0%,31.764221%,72.940063%);fill-opacity:1;stroke-width:0.00677613;stroke-linecap:butt;stroke-linejoin:miter;stroke:rgb(0%,0%,0%);stroke-opacity:1;stroke-miterlimit:4;" d="M 68.828125 16.863281 C 68.582031 16.816406 68.390625 17.191406 68.539062 17.382812 C 68.539062 17.175781 68.847656 17.210938 68.90625 17.097656 C 68.949219 17.019531 68.925781 16.882812 68.828125 16.863281 Z M 68.828125 16.863281 "/>
<path style="fill-rule:evenodd;fill:rgb(0%,31.764221%,72.940063%);fill-opacity:1;stroke-width:0.00677613;stroke-linecap:butt;stroke-linejoin:miter;stroke:rgb(0%,0%,0%);stroke-opacity:1;stroke-miterlimit:4;" d="M 60.707031 14.15625 C 60.859375 14.15625 60.921875 14.199219 60.921875 14.476562 C 60.921875 15.0625 60.914062 15.316406 60.726562 15.316406 C 60.535156 15.316406 60.550781 15.074219 60.550781 14.644531 C 60.550781 14.421875 60.550781 14.308594 60.503906 14.328125 C 60.503906 14.179688 60.570312 14.15625 60.707031 14.15625 Z M 60.707031 14.15625 "/>
<path style=" stroke:none;fill-rule:evenodd;fill:rgb(97.645569%,86.665344%,8.627319%);fill-opacity:1;" d="M 68.886719 22.148438 C 68.738281 22.183594 68.738281 22.375 68.660156 22.375 C 69.046875 22.363281 69.234375 22.257812 69.347656 22.0625 C 69.265625 22.140625 69.339844 22.289062 69.308594 22.324219 C 69.59375 22.226562 69.726562 21.984375 69.628906 21.824219 C 69.691406 21.914062 69.875 21.964844 69.929688 21.972656 C 69.734375 21.816406 69.875 21.464844 69.558594 21.28125 C 69.664062 21.273438 69.867188 21.394531 69.921875 21.535156 C 69.875 21.21875 69.824219 21.011719 69.5625 20.835938 C 69.59375 20.867188 69.738281 20.894531 69.804688 20.835938 C 69.632812 20.730469 69.585938 20.554688 69.597656 20.441406 C 69.617188 20.285156 69.515625 20.25 69.316406 20.300781 C 69.140625 20.34375 68.730469 20.371094 68.492188 20.371094 C 68 20.371094 67.570312 20.371094 67.160156 20.089844 C 67.773438 20.34375 68.554688 19.808594 68.554688 19.363281 C 68.554688 18.871094 67.949219 18.46875 66.722656 18.734375 C 65.496094 19.003906 64 18.890625 64 18.480469 C 64 18.074219 65.074219 18.015625 65.621094 18.101562 C 66.171875 18.183594 66.566406 18.242188 67.597656 17.875 C 67.34375 17.972656 66.523438 18 65.875 17.820312 C 65.226562 17.636719 63.632812 17.636719 63.621094 18.496094 C 63.605469 19.355469 65.316406 19.277344 66.792969 19.058594 C 67.652344 18.933594 68.105469 19.015625 68.105469 19.300781 C 68.105469 19.566406 67.316406 19.679688 66.707031 19.609375 C 66.101562 19.539062 65.480469 19.554688 64.761719 19.765625 C 64.160156 19.941406 63.746094 19.765625 63.085938 19.878906 C 62.761719 19.933594 61.984375 19.878906 61.601562 19.242188 C 61.363281 19.410156 60.652344 19.765625 60.53125 20.113281 C 60.363281 20.429688 60.476562 20.746094 60.699219 21.054688 C 60.984375 21.445312 60.558594 21.386719 60.257812 21.402344 C 59.839844 21.421875 59.285156 21.355469 58.996094 21.027344 C 58.738281 20.734375 58.394531 20.5 58.121094 20.71875 C 57.980469 20.828125 58.117188 20.976562 58.226562 20.933594 C 58.335938 20.894531 58.46875 20.976562 58.585938 21.027344 C 58.398438 20.945312 58.191406 21.007812 58.109375 21.082031 C 58 21.179688 58.132812 21.371094 58.269531 21.304688 C 58.375 21.25 58.589844 21.214844 58.730469 21.34375 C 58.578125 21.316406 58.421875 21.320312 58.34375 21.402344 C 58.269531 21.484375 58.328125 21.605469 58.492188 21.597656 C 58.753906 21.585938 58.824219 21.769531 59.085938 21.730469 C 58.925781 21.753906 58.832031 21.835938 58.789062 21.902344 C 59.035156 21.789062 59.308594 22.09375 59.628906 22.019531 C 59.503906 22.074219 59.304688 22.195312 59.304688 22.289062 C 59.496094 22.070312 60.769531 22.457031 60.800781 21.980469 C 60.835938 22.078125 60.828125 22.226562 60.730469 22.351562 C 60.890625 22.253906 61.421875 22.21875 61.582031 21.835938 C 61.597656 21.949219 61.574219 22.097656 61.476562 22.132812 C 61.644531 22.1875 61.867188 22.0625 62.097656 21.726562 C 62.1875 21.589844 62.207031 21.5 62.191406 21.402344 C 62.417969 21.410156 62.582031 21.351562 62.757812 21.203125 C 62.941406 21.046875 63.140625 21.328125 63.449219 21.132812 C 63.761719 20.933594 64.027344 21.105469 64.199219 21.003906 C 64.367188 20.90625 64.601562 21.039062 64.78125 20.929688 C 64.96875 20.816406 65.25 20.984375 65.554688 20.742188 C 66.03125 20.917969 66.589844 21.242188 67.957031 20.992188 C 68.738281 20.847656 68.984375 21.109375 68.984375 21.46875 C 68.984375 21.71875 68.839844 21.738281 68.730469 21.746094 C 68.296875 21.773438 68.109375 21.582031 67.9375 21.644531 C 67.820312 21.683594 67.75 21.871094 67.917969 21.9375 C 67.78125 22.007812 67.796875 22.140625 67.867188 22.1875 C 67.9375 22.234375 68.121094 22.191406 68.242188 22.136719 C 68.085938 22.207031 67.921875 22.335938 68.015625 22.46875 C 68.070312 22.550781 68.214844 22.621094 68.347656 22.445312 C 68.484375 22.269531 68.730469 22.125 68.886719 22.148438 Z M 68.886719 22.148438 "/>
<path style="fill:none;stroke-width:0.0586397;stroke-linecap:butt;stroke-linejoin:miter;stroke:rgb(0%,0%,0%);stroke-opacity:1;stroke-miterlimit:4;" d="M 68.886719 22.148438 C 68.738281 22.183594 68.738281 22.375 68.660156 22.375 C 69.046875 22.363281 69.234375 22.257812 69.347656 22.0625 C 69.265625 22.140625 69.339844 22.289062 69.308594 22.324219 C 69.59375 22.226562 69.726562 21.984375 69.628906 21.824219 C 69.691406 21.914062 69.875 21.964844 69.929688 21.972656 C 69.734375 21.816406 69.875 21.464844 69.558594 21.28125 C 69.664062 21.273438 69.867188 21.394531 69.921875 21.535156 C 69.875 21.21875 69.824219 21.011719 69.5625 20.835938 C 69.59375 20.867188 69.738281 20.894531 69.804688 20.835938 C 69.632812 20.730469 69.585938 20.554688 69.597656 20.441406 C 69.617188 20.285156 69.515625 20.25 69.316406 20.300781 C 69.140625 20.34375 68.730469 20.371094 68.492188 20.371094 C 68 20.371094 67.570312 20.371094 67.160156 20.089844 C 67.773438 20.34375 68.554688 19.808594 68.554688 19.363281 C 68.554688 18.871094 67.949219 18.46875 66.722656 18.734375 C 65.496094 19.003906 64 18.890625 64 18.480469 C 64 18.074219 65.074219 18.015625 65.621094 18.101562 C 66.171875 18.183594 66.566406 18.242188 67.597656 17.875 C 67.34375 17.972656 66.523438 18 65.875 17.820312 C 65.226562 17.636719 63.632812 17.636719 63.621094 18.496094 C 63.605469 19.355469 65.316406 19.277344 66.792969 19.058594 C 67.652344 18.933594 68.105469 19.015625 68.105469 19.300781 C 68.105469 19.566406 67.316406 19.679688 66.707031 19.609375 C 66.101562 19.539062 65.480469 19.554688 64.761719 19.765625 C 64.160156 19.941406 63.746094 19.765625 63.085938 19.878906 C 62.761719 19.933594 61.984375 19.878906 61.601562 19.242188 C 61.363281 19.410156 60.652344 19.765625 60.53125 20.113281 C 60.363281 20.429688 60.476562 20.746094 60.699219 21.054688 C 60.984375 21.445312 60.558594 21.386719 60.257812 21.402344 C 59.839844 21.421875 59.285156 21.355469 58.996094 21.027344 C 58.738281 20.734375 58.394531 20.5 58.121094 20.71875 C 57.980469 20.828125 58.117188 20.976562 58.226562 20.933594 C 58.335938 20.894531 58.46875 20.976562 58.585938 21.027344 C 58.398438 20.945312 58.191406 21.007812 58.109375 21.082031 C 58 21.179688 58.132812 21.371094 58.269531 21.304688 C 58.375 21.25 58.589844 21.214844 58.730469 21.34375 C 58.578125 21.316406 58.421875 21.320312 58.34375 21.402344 C 58.269531 21.484375 58.328125 21.605469 58.492188 21.597656 C 58.753906 21.585938 58.824219 21.769531 59.085938 21.730469 C 58.925781 21.753906 58.832031 21.835938 58.789062 21.902344 C 59.035156 21.789062 59.308594 22.09375 59.628906 22.019531 C 59.503906 22.074219 59.304688 22.195312 59.304688 22.289062 C 59.496094 22.070312 60.769531 22.457031 60.800781 21.980469 C 60.835938 22.078125 60.828125 22.226562 60.730469 22.351562 C 60.890625 22.253906 61.421875 22.21875 61.582031 21.835938 C 61.597656 21.949219 61.574219 22.097656 61.476562 22.132812 C 61.644531 22.1875 61.867188 22.0625 62.097656 21.726562 C 62.1875 21.589844 62.207031 21.5 62.191406 21.402344 C 62.417969 21.410156 62.582031 21.351562 62.757812 21.203125 C 62.941406 21.046875 63.140625 21.332031 63.449219 21.132812 C 63.761719 20.933594 64.027344 21.105469 64.199219 21.003906 C 64.367188 20.90625 64.601562 21.039062 64.78125 20.929688 C 64.96875 20.816406 65.25 20.984375 65.554688 20.742188 C 66.03125 20.917969 66.589844 21.242188 67.957031 20.992188 C 68.738281 20.847656 68.984375 21.109375 68.984375 21.46875 C 68.984375 21.71875 68.839844 21.738281 68.730469 21.746094 C 68.296875 21.773438 68.109375 21.582031 67.9375 21.644531 C 67.820312 21.683594 67.75 21.871094 67.917969 21.9375 C 67.78125 22.007812 67.796875 22.140625 67.867188 22.1875 C 67.9375 22.234375 68.121094 22.191406 68.242188 22.136719 C 68.085938 22.207031 67.921875 22.335938 68.015625 22.46875 C 68.070312 22.550781 68.214844 22.621094 68.347656 22.445312 C 68.484375 22.269531 68.730469 22.125 68.886719 22.148438 Z M 68.886719 22.148438 "/>
<path style="fill-rule:evenodd;fill:rgb(97.645569%,86.665344%,8.627319%);fill-opacity:1;stroke-width:0.0586397;stroke-linecap:butt;stroke-linejoin:miter;stroke:rgb(0%,0%,0%);stroke-opacity:1;stroke-miterlimit:4;" d="M 60.203125 18.425781 C 59.808594 18.261719 59.675781 18.257812 59.765625 18.578125 C 59.804688 18.71875 59.902344 18.910156 59.996094 19 C 60 18.867188 60.046875 18.496094 60.203125 18.425781 Z M 60.203125 18.425781 "/>
<path style="fill-rule:evenodd;fill:rgb(97.645569%,86.665344%,8.627319%);fill-opacity:1;stroke-width:0.0586397;stroke-linecap:butt;stroke-linejoin:miter;stroke:rgb(0%,0%,0%);stroke-opacity:1;stroke-miterlimit:4;" d="M 61.4375 18.425781 C 61.832031 18.261719 61.964844 18.257812 61.875 18.578125 C 61.835938 18.71875 61.742188 18.910156 61.644531 19 C 61.640625 18.867188 61.59375 18.496094 61.4375 18.425781 Z M 61.4375 18.425781 "/>
<path style="fill-rule:evenodd;fill:rgb(97.645569%,86.665344%,8.627319%);fill-opacity:1;stroke-width:0.0586397;stroke-linecap:butt;stroke-linejoin:miter;stroke:rgb(0%,0%,0%);stroke-opacity:1;stroke-miterlimit:4;" d="M 60.824219 18.207031 C 61.570312 18.207031 61.664062 18.558594 61.660156 18.996094 C 61.65625 19.46875 61.402344 19.304688 61.257812 19.914062 C 61.203125 20.148438 61.011719 20.164062 60.824219 20.164062 C 60.632812 20.164062 60.445312 20.148438 60.386719 19.914062 C 60.242188 19.304688 59.988281 19.46875 59.984375 18.996094 C 59.980469 18.558594 60.074219 18.207031 60.824219 18.207031 Z M 60.824219 18.207031 "/>
<path style=" stroke:none;fill-rule:evenodd;fill:rgb(97.645569%,86.665344%,8.627319%);fill-opacity:1;" d="M 58.894531 19.941406 C 58.707031 19.828125 58.582031 19.90625 58.503906 19.925781 C 58.75 19.992188 58.761719 20.308594 59.328125 20.457031 C 59.199219 20.421875 59.128906 20.492188 59.007812 20.425781 C 59.242188 20.609375 59.5 20.824219 60.050781 20.828125 C 60.359375 20.832031 60.148438 20.992188 59.945312 20.898438 C 60.15625 21.113281 60.566406 20.9375 60.828125 21.328125 C 60.875 21.027344 60.339844 20.546875 60.589844 20.203125 C 59.828125 20.167969 59.765625 19.746094 59.328125 19.410156 C 58.96875 19.140625 58.9375 18.863281 58.78125 18.34375 C 58.707031 18.109375 58.433594 17.960938 58.28125 18.015625 C 58.148438 18.066406 58.097656 18.179688 58.210938 18.265625 C 58.328125 18.355469 58.472656 18.367188 58.503906 18.585938 C 58.355469 18.40625 58.132812 18.34375 58.027344 18.453125 C 57.960938 18.519531 57.988281 18.679688 58.128906 18.695312 C 58.355469 18.71875 58.191406 18.941406 58.453125 19.15625 C 58.222656 18.898438 58.023438 18.875 57.898438 19.015625 C 57.824219 19.101562 57.898438 19.25 58.058594 19.234375 C 58.285156 19.210938 58.550781 19.792969 58.894531 19.941406 Z M 58.894531 19.941406 "/>
<path style="fill:none;stroke-width:0.0586397;stroke-linecap:butt;stroke-linejoin:miter;stroke:rgb(0%,0%,0%);stroke-opacity:1;stroke-miterlimit:4;" d="M 58.894531 19.941406 C 58.707031 19.828125 58.582031 19.90625 58.503906 19.925781 C 58.75 19.992188 58.761719 20.308594 59.328125 20.457031 C 59.199219 20.421875 59.128906 20.492188 59.007812 20.425781 C 59.242188 20.609375 59.5 20.824219 60.050781 20.828125 C 60.359375 20.832031 60.148438 20.992188 59.945312 20.898438 C 60.15625 21.113281 60.566406 20.9375 60.828125 21.332031 C 60.875 21.027344 60.339844 20.546875 60.589844 20.203125 C 59.828125 20.167969 59.765625 19.746094 59.328125 19.410156 C 58.96875 19.140625 58.9375 18.863281 58.78125 18.34375 C 58.707031 18.109375 58.433594 17.960938 58.28125 18.015625 C 58.148438 18.066406 58.097656 18.179688 58.210938 18.265625 C 58.328125 18.355469 58.472656 18.367188 58.503906 18.585938 C 58.355469 18.40625 58.132812 18.34375 58.027344 18.453125 C 57.960938 18.519531 57.988281 18.679688 58.128906 18.695312 C 58.355469 18.71875 58.191406 18.941406 58.453125 19.15625 C 58.222656 18.898438 58.023438 18.875 57.898438 19.015625 C 57.824219 19.101562 57.898438 19.25 58.058594 19.234375 C 58.285156 19.210938 58.550781 19.792969 58.894531 19.941406 Z M 58.894531 19.941406 "/>
<path style="fill-rule:evenodd;fill:rgb(97.645569%,86.665344%,8.627319%);fill-opacity:1;stroke-width:0.0586397;stroke-linecap:butt;stroke-linejoin:miter;stroke:rgb(0%,0%,0%);stroke-opacity:1;stroke-miterlimit:4;" d="M 65.03125 22.121094 C 64.910156 22.140625 64.945312 22.339844 64.78125 22.351562 C 65.171875 22.351562 65.367188 22.261719 65.550781 22.113281 C 65.46875 22.160156 65.433594 22.289062 65.425781 22.359375 C 65.628906 22.183594 66.117188 22.167969 66.371094 22.21875 C 66.625 22.265625 66.667969 22.148438 66.757812 21.984375 C 66.847656 21.824219 66.722656 21.730469 66.59375 21.605469 C 66.46875 21.476562 66.441406 21.300781 66.46875 21.003906 C 65.792969 20.101562 64.578125 20.539062 64.566406 20.933594 C 65 21.441406 65.058594 21.386719 65.425781 21.457031 C 65.792969 21.527344 66.015625 21.527344 65.769531 21.730469 C 65.6875 21.800781 65.332031 21.769531 65.058594 21.78125 C 64.441406 21.808594 64.160156 21.355469 63.980469 21.589844 C 63.832031 21.785156 63.984375 21.867188 64.289062 21.859375 C 64.078125 21.859375 63.796875 21.847656 63.847656 22.046875 C 63.925781 22.375 64.242188 21.984375 64.367188 22.121094 C 64.261719 22.09375 64.097656 22.160156 64.089844 22.257812 C 64.085938 22.359375 64.328125 22.488281 64.589844 22.277344 C 64.734375 22.164062 64.917969 22.121094 65.03125 22.121094 Z M 65.03125 22.121094 "/>
<path style="fill:none;stroke-width:0.0586397;stroke-linecap:butt;stroke-linejoin:miter;stroke:rgb(0%,0%,0%);stroke-opacity:1;stroke-miterlimit:4;" d="M 65.554688 20.742188 C 65.335938 20.664062 65.132812 20.613281 64.875 20.667969 "/>
<path style="fill:none;stroke-width:0.0586397;stroke-linecap:butt;stroke-linejoin:miter;stroke:rgb(0%,0%,0%);stroke-opacity:1;stroke-miterlimit:4;" d="M 62.238281 20.640625 C 62.058594 21.027344 62.167969 21.21875 62.191406 21.402344 "/>
<path style="fill:none;stroke-width:0.0586397;stroke-linecap:butt;stroke-linejoin:miter;stroke:rgb(0%,0%,0%);stroke-opacity:1;stroke-miterlimit:4;" d="M 60.308594 18.792969 C 60.433594 18.855469 60.503906 18.679688 60.6875 18.867188 C 60.636719 18.8125 60.574219 19.011719 60.433594 18.878906 "/>
<path style="fill:none;stroke-width:0.0586397;stroke-linecap:butt;stroke-linejoin:miter;stroke:rgb(0%,0%,0%);stroke-opacity:1;stroke-miterlimit:4;" d="M 61.324219 18.792969 C 61.199219 18.855469 61.128906 18.679688 60.949219 18.867188 C 61 18.8125 61.0625 19.011719 61.199219 18.878906 "/>
<path style="fill:none;stroke-width:0.0586397;stroke-linecap:butt;stroke-linejoin:miter;stroke:rgb(0%,0%,0%);stroke-opacity:1;stroke-miterlimit:4;" d="M 60.949219 18.867188 C 60.90625 18.902344 60.902344 18.839844 60.933594 19.003906 C 60.992188 19.3125 61.0625 19.453125 60.816406 19.453125 C 60.5625 19.453125 60.640625 19.3125 60.699219 19.003906 C 60.734375 18.839844 60.730469 18.902344 60.6875 18.867188 "/>
<path style="fill-rule:evenodd;fill:rgb(99.998474%,0%,8.627319%);fill-opacity:1;stroke-width:0.0293198;stroke-linecap:butt;stroke-linejoin:miter;stroke:rgb(0%,0%,0%);stroke-opacity:1;stroke-miterlimit:4;" d="M 60.820312 20.039062 C 61.019531 20.039062 61.136719 20.035156 61.105469 19.753906 C 61.09375 19.640625 61.242188 19.59375 61.191406 19.410156 C 61.246094 19.636719 60.820312 19.617188 60.820312 19.515625 C 60.820312 19.617188 60.394531 19.636719 60.449219 19.410156 C 60.398438 19.59375 60.546875 19.640625 60.535156 19.753906 C 60.503906 20.035156 60.621094 20.039062 60.820312 20.039062 Z M 60.820312 20.039062 "/>
<path style=" stroke:none;fill-rule:evenodd;fill:rgb(0%,0%,0%);fill-opacity:1;" d="M 60.640625 19.46875 L 60.15625 19.335938 Z M 60.640625 19.46875 "/>
<path style="fill:none;stroke-width:0.0293198;stroke-linecap:butt;stroke-linejoin:miter;stroke:rgb(0%,0%,0%);stroke-opacity:1;stroke-miterlimit:4;" d="M 60.640625 19.46875 L 60.15625 19.335938 "/>
<path style=" stroke:none;fill-rule:evenodd;fill:rgb(0%,0%,0%);fill-opacity:1;" d="M 60.640625 19.496094 L 60.101562 19.488281 Z M 60.640625 19.496094 "/>
<path style="fill:none;stroke-width:0.0293198;stroke-linecap:butt;stroke-linejoin:miter;stroke:rgb(0%,0%,0%);stroke-opacity:1;stroke-miterlimit:4;" d="M 60.640625 19.496094 L 60.101562 19.488281 "/>
<path style=" stroke:none;fill-rule:evenodd;fill:rgb(0%,0%,0%);fill-opacity:1;" d="M 60.644531 19.523438 L 60.1875 19.644531 Z M 60.644531 19.523438 "/>
<path style="fill:none;stroke-width:0.0293198;stroke-linecap:butt;stroke-linejoin:miter;stroke:rgb(0%,0%,0%);stroke-opacity:1;stroke-miterlimit:4;" d="M 60.644531 19.523438 L 60.1875 19.644531 "/>
<path style=" stroke:none;fill-rule:evenodd;fill:rgb(0%,0%,0%);fill-opacity:1;" d="M 61 19.46875 L 61.484375 19.335938 Z M 61 19.46875 "/>
<path style="fill:none;stroke-width:0.0293198;stroke-linecap:butt;stroke-linejoin:miter;stroke:rgb(0%,0%,0%);stroke-opacity:1;stroke-miterlimit:4;" d="M 61 19.46875 L 61.484375 19.335938 "/>
<path style=" stroke:none;fill-rule:evenodd;fill:rgb(0%,0%,0%);fill-opacity:1;" d="M 61 19.496094 L 61.539062 19.488281 Z M 61 19.496094 "/>
<path style="fill:none;stroke-width:0.0293198;stroke-linecap:butt;stroke-linejoin:miter;stroke:rgb(0%,0%,0%);stroke-opacity:1;stroke-miterlimit:4;" d="M 61 19.496094 L 61.539062 19.488281 "/>
<path style=" stroke:none;fill-rule:evenodd;fill:rgb(0%,0%,0%);fill-opacity:1;" d="M 60.996094 19.523438 L 61.457031 19.644531 Z M 60.996094 19.523438 "/>
<path style="fill:none;stroke-width:0.0293198;stroke-linecap:butt;stroke-linejoin:miter;stroke:rgb(0%,0%,0%);stroke-opacity:1;stroke-miterlimit:4;" d="M 60.996094 19.523438 L 61.457031 19.644531 "/>
<path style="fill-rule:evenodd;fill:rgb(0%,31.764221%,72.940063%);fill-opacity:1;stroke-width:0.00609853;stroke-linecap:butt;stroke-linejoin:miter;stroke:rgb(0%,0%,0%);stroke-opacity:1;stroke-miterlimit:4;" d="M 58.324219 18.027344 C 58.183594 17.851562 57.832031 18 57.824219 18.214844 C 57.941406 18.074219 58.136719 18.277344 58.242188 18.234375 C 58.316406 18.207031 58.378906 18.097656 58.324219 18.027344 Z M 58.324219 18.027344 "/>
<path style="fill-rule:evenodd;fill:rgb(0%,31.764221%,72.940063%);fill-opacity:1;stroke-width:0.00609853;stroke-linecap:butt;stroke-linejoin:miter;stroke:rgb(0%,0%,0%);stroke-opacity:1;stroke-miterlimit:4;" d="M 58.140625 18.4375 C 58 18.265625 57.648438 18.414062 57.640625 18.628906 C 57.761719 18.488281 57.953125 18.691406 58.0625 18.648438 C 58.132812 18.617188 58.199219 18.511719 58.140625 18.4375 Z M 58.140625 18.4375 "/>
<path style="fill-rule:evenodd;fill:rgb(0%,31.764221%,72.940063%);fill-opacity:1;stroke-width:0.00609853;stroke-linecap:butt;stroke-linejoin:miter;stroke:rgb(0%,0%,0%);stroke-opacity:1;stroke-miterlimit:4;" d="M 58.050781 18.996094 C 57.890625 18.835938 57.558594 19.023438 57.574219 19.238281 C 57.675781 19.085938 57.890625 19.265625 57.992188 19.210938 C 58.0625 19.171875 58.113281 19.058594 58.050781 18.996094 Z M 58.050781 18.996094 "/>
<path style="fill-rule:evenodd;fill:rgb(0%,31.764221%,72.940063%);fill-opacity:1;stroke-width:0.00609853;stroke-linecap:butt;stroke-linejoin:miter;stroke:rgb(0%,0%,0%);stroke-opacity:1;stroke-miterlimit:4;" d="M 58.21875 20.714844 C 58.039062 20.578125 57.730469 20.800781 57.773438 21.015625 C 57.859375 20.851562 58.09375 21.003906 58.183594 20.9375 C 58.25 20.890625 58.289062 20.773438 58.21875 20.714844 Z M 58.21875 20.714844 "/>
<path style="fill-rule:evenodd;fill:rgb(0%,31.764221%,72.940063%);fill-opacity:1;stroke-width:0.00609853;stroke-linecap:butt;stroke-linejoin:miter;stroke:rgb(0%,0%,0%);stroke-opacity:1;stroke-miterlimit:4;" d="M 58.207031 21.09375 C 57.996094 21.015625 57.773438 21.324219 57.878906 21.511719 C 57.90625 21.332031 58.175781 21.40625 58.246094 21.3125 C 58.292969 21.25 58.292969 21.125 58.207031 21.09375 Z M 58.207031 21.09375 "/>
<path style="fill-rule:evenodd;fill:rgb(0%,31.764221%,72.940063%);fill-opacity:1;stroke-width:0.00609853;stroke-linecap:butt;stroke-linejoin:miter;stroke:rgb(0%,0%,0%);stroke-opacity:1;stroke-miterlimit:4;" d="M 58.476562 21.375 C 58.265625 21.296875 58.042969 21.605469 58.148438 21.792969 C 58.175781 21.613281 58.445312 21.6875 58.515625 21.59375 C 58.5625 21.53125 58.5625 21.40625 58.476562 21.375 Z M 58.476562 21.375 "/>
<path style="fill-rule:evenodd;fill:rgb(0%,31.764221%,72.940063%);fill-opacity:1;stroke-width:0.00609853;stroke-linecap:butt;stroke-linejoin:miter;stroke:rgb(0%,0%,0%);stroke-opacity:1;stroke-miterlimit:4;" d="M 63.984375 21.921875 C 63.773438 21.84375 63.546875 22.148438 63.65625 22.339844 C 63.683594 22.15625 63.953125 22.230469 64.023438 22.140625 C 64.070312 22.078125 64.070312 21.953125 63.984375 21.921875 Z M 63.984375 21.921875 "/>
<path style="fill-rule:evenodd;fill:rgb(0%,31.764221%,72.940063%);fill-opacity:1;stroke-width:0.00609853;stroke-linecap:butt;stroke-linejoin:miter;stroke:rgb(0%,0%,0%);stroke-opacity:1;stroke-miterlimit:4;" d="M 64.269531 22.175781 C 64.050781 22.121094 63.863281 22.453125 63.988281 22.628906 C 63.996094 22.445312 64.273438 22.488281 64.332031 22.390625 C 64.371094 22.320312 64.355469 22.195312 64.269531 22.175781 Z M 64.269531 22.175781 "/>
<path style="fill-rule:evenodd;fill:rgb(0%,31.764221%,72.940063%);fill-opacity:1;stroke-width:0.00609853;stroke-linecap:butt;stroke-linejoin:miter;stroke:rgb(0%,0%,0%);stroke-opacity:1;stroke-miterlimit:4;" d="M 64.066406 21.558594 C 63.875 21.445312 63.601562 21.710938 63.671875 21.914062 C 63.730469 21.742188 63.984375 21.859375 64.070312 21.78125 C 64.125 21.726562 64.148438 21.605469 64.066406 21.558594 Z M 64.066406 21.558594 "/>
<path style="fill-rule:evenodd;fill:rgb(0%,31.764221%,72.940063%);fill-opacity:1;stroke-width:0.00609853;stroke-linecap:butt;stroke-linejoin:miter;stroke:rgb(0%,0%,0%);stroke-opacity:1;stroke-miterlimit:4;" d="M 67.984375 22 C 67.769531 21.945312 67.578125 22.277344 67.707031 22.453125 C 67.714844 22.269531 67.992188 22.3125 68.046875 22.214844 C 68.089844 22.144531 68.074219 22.019531 67.984375 22 Z M 67.984375 22 "/>
<path style="fill-rule:evenodd;fill:rgb(0%,31.764221%,72.940063%);fill-opacity:1;stroke-width:0.00609853;stroke-linecap:butt;stroke-linejoin:miter;stroke:rgb(0%,0%,0%);stroke-opacity:1;stroke-miterlimit:4;" d="M 67.992188 21.652344 C 67.792969 21.546875 67.53125 21.820312 67.609375 22.023438 C 67.664062 21.847656 67.921875 21.957031 68 21.875 C 68.054688 21.820312 68.074219 21.695312 67.992188 21.652344 Z M 67.992188 21.652344 "/>
<path style="fill-rule:evenodd;fill:rgb(0%,31.764221%,72.940063%);fill-opacity:1;stroke-width:0.00609853;stroke-linecap:butt;stroke-linejoin:miter;stroke:rgb(0%,0%,0%);stroke-opacity:1;stroke-miterlimit:4;" d="M 68.144531 22.308594 C 67.925781 22.265625 67.75 22.605469 67.886719 22.773438 C 67.886719 22.589844 68.164062 22.621094 68.21875 22.519531 C 68.253906 22.449219 68.234375 22.328125 68.144531 22.308594 Z M 68.144531 22.308594 "/>
<path style="fill-rule:evenodd;fill:rgb(0%,31.764221%,72.940063%);fill-opacity:1;stroke-width:0.00609853;stroke-linecap:butt;stroke-linejoin:miter;stroke:rgb(0%,0%,0%);stroke-opacity:1;stroke-miterlimit:4;" d="M 60.835938 19.871094 C 60.972656 19.871094 61.03125 19.910156 61.03125 20.160156 C 61.03125 20.6875 61.023438 20.914062 60.855469 20.914062 C 60.683594 20.914062 60.695312 20.699219 60.695312 20.3125 C 60.695312 20.109375 60.695312 20.007812 60.65625 20.023438 C 60.65625 19.894531 60.714844 19.871094 60.835938 19.871094 Z M 60.835938 19.871094 "/>
<path style=" stroke:none;fill-rule:evenodd;fill:rgb(97.645569%,86.665344%,8.627319%);fill-opacity:1;" d="M 67.609375 26.824219 C 67.5 26.851562 67.5 27.011719 67.441406 27.011719 C 67.726562 27.003906 67.867188 26.914062 67.953125 26.753906 C 67.890625 26.816406 67.945312 26.941406 67.925781 26.96875 C 68.132812 26.886719 68.234375 26.6875 68.160156 26.554688 C 68.207031 26.628906 68.34375 26.671875 68.386719 26.675781 C 68.238281 26.546875 68.34375 26.253906 68.109375 26.101562 C 68.1875 26.09375 68.339844 26.195312 68.382812 26.3125 C 68.34375 26.046875 68.308594 25.878906 68.113281 25.730469 C 68.132812 25.757812 68.246094 25.78125 68.292969 25.730469 C 68.167969 25.640625 68.128906 25.496094 68.140625 25.402344 C 68.15625 25.269531 68.078125 25.242188 67.929688 25.285156 C 67.796875 25.320312 67.496094 25.34375 67.316406 25.34375 C 66.949219 25.34375 66.628906 25.34375 66.324219 25.109375 C 66.78125 25.320312 67.363281 24.871094 67.363281 24.503906 C 67.363281 24.089844 66.910156 23.757812 66 23.980469 C 65.085938 24.203125 63.972656 24.109375 63.972656 23.769531 C 63.972656 23.425781 64.769531 23.378906 65.179688 23.449219 C 65.589844 23.519531 65.882812 23.566406 66.648438 23.261719 C 66.460938 23.34375 65.851562 23.367188 65.367188 23.214844 C 64.886719 23.0625 63.699219 23.0625 63.6875 23.78125 C 63.679688 24.496094 64.953125 24.429688 66.050781 24.25 C 66.691406 24.144531 67.027344 24.214844 67.027344 24.449219 C 67.027344 24.671875 66.4375 24.765625 65.988281 24.707031 C 65.535156 24.648438 65.074219 24.660156 64.539062 24.835938 C 64.09375 24.984375 63.78125 24.835938 63.289062 24.929688 C 63.050781 24.976562 62.472656 24.929688 62.183594 24.402344 C 62.007812 24.542969 61.480469 24.839844 61.390625 25.125 C 61.265625 25.390625 61.347656 25.65625 61.515625 25.914062 C 61.726562 26.238281 61.410156 26.1875 61.183594 26.199219 C 60.875 26.21875 60.460938 26.164062 60.246094 25.890625 C 60.054688 25.644531 59.796875 25.449219 59.59375 25.632812 C 59.492188 25.722656 59.589844 25.847656 59.671875 25.8125 C 59.757812 25.777344 59.851562 25.847656 59.941406 25.890625 C 59.800781 25.820312 59.648438 25.875 59.585938 25.933594 C 59.503906 26.015625 59.605469 26.175781 59.703125 26.121094 C 59.78125 26.074219 59.945312 26.046875 60.050781 26.152344 C 59.9375 26.128906 59.816406 26.136719 59.761719 26.203125 C 59.703125 26.269531 59.75 26.371094 59.871094 26.363281 C 60.066406 26.355469 60.117188 26.507812 60.3125 26.476562 C 60.191406 26.496094 60.125 26.566406 60.09375 26.617188 C 60.277344 26.523438 60.480469 26.777344 60.71875 26.71875 C 60.625 26.761719 60.476562 26.863281 60.476562 26.941406 C 60.617188 26.757812 61.566406 27.082031 61.589844 26.683594 C 61.617188 26.765625 61.609375 26.886719 61.535156 26.992188 C 61.65625 26.910156 62.050781 26.882812 62.171875 26.566406 C 62.183594 26.660156 62.167969 26.78125 62.09375 26.8125 C 62.21875 26.859375 62.386719 26.753906 62.554688 26.46875 C 62.621094 26.359375 62.636719 26.285156 62.625 26.199219 C 62.796875 26.207031 62.917969 26.160156 63.046875 26.035156 C 63.183594 25.90625 63.332031 26.140625 63.5625 25.976562 C 63.792969 25.8125 63.992188 25.953125 64.117188 25.871094 C 64.246094 25.789062 64.417969 25.902344 64.554688 25.808594 C 64.691406 25.714844 64.902344 25.851562 65.128906 25.652344 C 65.484375 25.796875 65.898438 26.070312 66.917969 25.859375 C 67.5 25.738281 67.683594 25.960938 67.683594 26.257812 C 67.683594 26.464844 67.574219 26.484375 67.496094 26.488281 C 67.167969 26.511719 67.03125 26.351562 66.902344 26.402344 C 66.816406 26.4375 66.765625 26.59375 66.890625 26.648438 C 66.785156 26.707031 66.796875 26.816406 66.851562 26.855469 C 66.902344 26.898438 67.039062 26.859375 67.128906 26.8125 C 67.011719 26.871094 66.890625 26.980469 66.960938 27.09375 C 67.003906 27.160156 67.109375 27.21875 67.210938 27.074219 C 67.308594 26.925781 67.492188 26.804688 67.609375 26.824219 Z M 67.609375 26.824219 "/>
<path style="fill:none;stroke-width:0.0461867;stroke-linecap:butt;stroke-linejoin:miter;stroke:rgb(0%,0%,0%);stroke-opacity:1;stroke-miterlimit:4;" d="M 67.609375 26.824219 C 67.5 26.851562 67.5 27.011719 67.441406 27.011719 C 67.726562 27.003906 67.867188 26.914062 67.953125 26.753906 C 67.890625 26.816406 67.945312 26.941406 67.925781 26.96875 C 68.132812 26.886719 68.234375 26.6875 68.160156 26.554688 C 68.207031 26.628906 68.34375 26.671875 68.386719 26.675781 C 68.238281 26.546875 68.34375 26.253906 68.109375 26.101562 C 68.1875 26.09375 68.339844 26.195312 68.382812 26.3125 C 68.34375 26.046875 68.308594 25.878906 68.113281 25.730469 C 68.132812 25.757812 68.246094 25.78125 68.292969 25.730469 C 68.167969 25.640625 68.128906 25.496094 68.140625 25.402344 C 68.15625 25.269531 68.078125 25.242188 67.929688 25.285156 C 67.796875 25.320312 67.496094 25.34375 67.316406 25.34375 C 66.949219 25.34375 66.628906 25.34375 66.324219 25.109375 C 66.78125 25.320312 67.363281 24.871094 67.363281 24.503906 C 67.363281 24.089844 66.910156 23.757812 66 23.980469 C 65.085938 24.203125 63.972656 24.109375 63.972656 23.769531 C 63.972656 23.425781 64.769531 23.378906 65.179688 23.449219 C 65.589844 23.519531 65.882812 23.566406 66.648438 23.261719 C 66.460938 23.34375 65.851562 23.367188 65.367188 23.214844 C 64.886719 23.0625 63.699219 23.0625 63.6875 23.78125 C 63.679688 24.496094 64.953125 24.429688 66.050781 24.25 C 66.691406 24.144531 67.027344 24.214844 67.027344 24.449219 C 67.027344 24.671875 66.4375 24.765625 65.988281 24.707031 C 65.535156 24.648438 65.074219 24.660156 64.539062 24.835938 C 64.09375 24.984375 63.78125 24.835938 63.289062 24.929688 C 63.050781 24.976562 62.472656 24.929688 62.183594 24.402344 C 62.007812 24.542969 61.480469 24.839844 61.390625 25.125 C 61.265625 25.390625 61.347656 25.65625 61.515625 25.914062 C 61.726562 26.238281 61.410156 26.1875 61.183594 26.199219 C 60.875 26.21875 60.460938 26.164062 60.246094 25.890625 C 60.054688 25.644531 59.796875 25.449219 59.59375 25.632812 C 59.492188 25.722656 59.589844 25.847656 59.671875 25.8125 C 59.757812 25.777344 59.851562 25.847656 59.941406 25.890625 C 59.800781 25.820312 59.648438 25.875 59.585938 25.933594 C 59.503906 26.015625 59.605469 26.175781 59.703125 26.121094 C 59.78125 26.074219 59.945312 26.046875 60.050781 26.152344 C 59.9375 26.128906 59.816406 26.136719 59.761719 26.203125 C 59.703125 26.269531 59.75 26.371094 59.871094 26.363281 C 60.066406 26.355469 60.117188 26.507812 60.3125 26.476562 C 60.191406 26.496094 60.125 26.566406 60.09375 26.617188 C 60.277344 26.523438 60.480469 26.777344 60.71875 26.71875 C 60.625 26.761719 60.476562 26.863281 60.476562 26.941406 C 60.617188 26.757812 61.566406 27.082031 61.589844 26.683594 C 61.617188 26.765625 61.609375 26.886719 61.535156 26.992188 C 61.65625 26.910156 62.050781 26.882812 62.171875 26.566406 C 62.183594 26.660156 62.167969 26.78125 62.09375 26.8125 C 62.21875 26.859375 62.386719 26.753906 62.554688 26.46875 C 62.621094 26.359375 62.636719 26.285156 62.625 26.199219 C 62.796875 26.207031 62.917969 26.160156 63.046875 26.035156 C 63.183594 25.90625 63.332031 26.140625 63.5625 25.976562 C 63.792969 25.8125 63.992188 25.953125 64.117188 25.871094 C 64.246094 25.789062 64.417969 25.902344 64.554688 25.808594 C 64.691406 25.714844 64.902344 25.851562 65.128906 25.652344 C 65.484375 25.796875 65.898438 26.070312 66.917969 25.859375 C 67.5 25.738281 67.683594 25.960938 67.683594 26.257812 C 67.683594 26.464844 67.574219 26.484375 67.496094 26.488281 C 67.171875 26.511719 67.03125 26.351562 66.902344 26.402344 C 66.816406 26.4375 66.765625 26.59375 66.890625 26.648438 C 66.785156 26.707031 66.796875 26.816406 66.851562 26.855469 C 66.902344 26.898438 67.039062 26.859375 67.128906 26.8125 C 67.011719 26.871094 66.890625 26.980469 66.960938 27.09375 C 67.003906 27.160156 67.109375 27.21875 67.210938 27.074219 C 67.308594 26.925781 67.492188 26.804688 67.609375 26.824219 Z M 67.609375 26.824219 "/>
<path style="fill-rule:evenodd;fill:rgb(97.645569%,86.665344%,8.627319%);fill-opacity:1;stroke-width:0.0461867;stroke-linecap:butt;stroke-linejoin:miter;stroke:rgb(0%,0%,0%);stroke-opacity:1;stroke-miterlimit:4;" d="M 61.144531 23.71875 C 60.851562 23.585938 60.753906 23.582031 60.820312 23.851562 C 60.847656 23.964844 60.921875 24.125 60.992188 24.199219 C 60.992188 24.089844 61.03125 23.78125 61.144531 23.71875 Z M 61.144531 23.71875 "/>
<path style="fill-rule:evenodd;fill:rgb(97.645569%,86.665344%,8.627319%);fill-opacity:1;stroke-width:0.0461867;stroke-linecap:butt;stroke-linejoin:miter;stroke:rgb(0%,0%,0%);stroke-opacity:1;stroke-miterlimit:4;" d="M 62.0625 23.71875 C 62.359375 23.585938 62.457031 23.582031 62.390625 23.851562 C 62.359375 23.964844 62.289062 24.125 62.21875 24.199219 C 62.214844 24.089844 62.179688 23.78125 62.0625 23.71875 Z M 62.0625 23.71875 "/>
<path style="fill-rule:evenodd;fill:rgb(97.645569%,86.665344%,8.627319%);fill-opacity:1;stroke-width:0.0461867;stroke-linecap:butt;stroke-linejoin:miter;stroke:rgb(0%,0%,0%);stroke-opacity:1;stroke-miterlimit:4;" d="M 61.605469 23.539062 C 62.164062 23.539062 62.230469 23.832031 62.230469 24.195312 C 62.226562 24.589844 62.039062 24.457031 61.929688 24.960938 C 61.890625 25.15625 61.746094 25.167969 61.605469 25.167969 C 61.464844 25.167969 61.324219 25.15625 61.28125 24.960938 C 61.175781 24.457031 60.984375 24.589844 60.984375 24.195312 C 60.980469 23.832031 61.050781 23.539062 61.605469 23.539062 Z M 61.605469 23.539062 "/>
<path style="fill-rule:evenodd;fill:rgb(97.645569%,86.665344%,8.627319%);fill-opacity:1;stroke-width:0.0461867;stroke-linecap:butt;stroke-linejoin:miter;stroke:rgb(0%,0%,0%);stroke-opacity:1;stroke-miterlimit:4;" d="M 60.171875 24.984375 C 60.03125 24.890625 59.9375 24.953125 59.882812 24.972656 C 60.066406 25.027344 60.070312 25.289062 60.492188 25.414062 C 60.398438 25.382812 60.34375 25.441406 60.253906 25.390625 C 60.429688 25.542969 60.625 25.71875 61.03125 25.722656 C 61.261719 25.726562 61.101562 25.859375 60.953125 25.78125 C 61.109375 25.960938 61.417969 25.816406 61.609375 26.140625 C 61.648438 25.890625 61.25 25.488281 61.433594 25.203125 C 60.863281 25.175781 60.820312 24.824219 60.492188 24.542969 C 60.226562 24.316406 60.203125 24.085938 60.085938 23.652344 C 60.03125 23.457031 59.828125 23.335938 59.714844 23.378906 C 59.613281 23.421875 59.578125 23.515625 59.664062 23.589844 C 59.75 23.660156 59.859375 23.671875 59.878906 23.855469 C 59.769531 23.707031 59.605469 23.652344 59.523438 23.746094 C 59.476562 23.800781 59.496094 23.933594 59.601562 23.945312 C 59.769531 23.964844 59.648438 24.152344 59.839844 24.332031 C 59.671875 24.117188 59.519531 24.097656 59.429688 24.214844 C 59.375 24.285156 59.429688 24.410156 59.546875 24.394531 C 59.71875 24.375 59.917969 24.859375 60.171875 24.984375 Z M 60.171875 24.984375 "/>
<path style="fill-rule:evenodd;fill:rgb(97.645569%,86.665344%,8.627319%);fill-opacity:1;stroke-width:0.0461867;stroke-linecap:butt;stroke-linejoin:miter;stroke:rgb(0%,0%,0%);stroke-opacity:1;stroke-miterlimit:4;" d="M 64.738281 26.800781 C 64.648438 26.816406 64.675781 26.980469 64.554688 26.992188 C 64.84375 26.992188 64.992188 26.917969 65.125 26.792969 C 65.0625 26.835938 65.039062 26.941406 65.03125 27 C 65.183594 26.851562 65.546875 26.839844 65.734375 26.882812 C 65.925781 26.921875 65.957031 26.824219 66.023438 26.6875 C 66.09375 26.554688 66 26.476562 65.902344 26.371094 C 65.808594 26.265625 65.789062 26.117188 65.808594 25.871094 C 65.304688 25.121094 64.402344 25.484375 64.390625 25.8125 C 64.71875 26.234375 64.757812 26.1875 65.03125 26.246094 C 65.304688 26.304688 65.472656 26.304688 65.289062 26.476562 C 65.226562 26.535156 64.964844 26.507812 64.757812 26.515625 C 64.300781 26.539062 64.09375 26.164062 63.957031 26.359375 C 63.84375 26.519531 63.960938 26.589844 64.1875 26.582031 C 64.03125 26.582031 63.820312 26.574219 63.859375 26.738281 C 63.917969 27.015625 64.152344 26.6875 64.246094 26.800781 C 64.167969 26.78125 64.042969 26.832031 64.039062 26.917969 C 64.035156 27 64.214844 27.105469 64.410156 26.933594 C 64.519531 26.835938 64.65625 26.800781 64.738281 26.800781 Z M 64.738281 26.800781 "/>
<path style="fill:none;stroke-width:0.0461867;stroke-linecap:butt;stroke-linejoin:miter;stroke:rgb(0%,0%,0%);stroke-opacity:1;stroke-miterlimit:4;" d="M 65.128906 25.652344 C 64.964844 25.585938 64.816406 25.546875 64.625 25.589844 "/>
<path style="fill:none;stroke-width:0.0461867;stroke-linecap:butt;stroke-linejoin:miter;stroke:rgb(0%,0%,0%);stroke-opacity:1;stroke-miterlimit:4;" d="M 62.660156 25.566406 C 62.523438 25.890625 62.605469 26.050781 62.625 26.199219 "/>
<path style="fill:none;stroke-width:0.0461867;stroke-linecap:butt;stroke-linejoin:miter;stroke:rgb(0%,0%,0%);stroke-opacity:1;stroke-miterlimit:4;" d="M 61.222656 24.027344 C 61.316406 24.082031 61.371094 23.933594 61.503906 24.089844 C 61.46875 24.042969 61.421875 24.210938 61.316406 24.101562 "/>
<path style="fill:none;stroke-width:0.0461867;stroke-linecap:butt;stroke-linejoin:miter;stroke:rgb(0%,0%,0%);stroke-opacity:1;stroke-miterlimit:4;" d="M 61.980469 24.027344 C 61.886719 24.082031 61.835938 23.933594 61.699219 24.089844 C 61.738281 24.042969 61.78125 24.210938 61.886719 24.101562 "/>
<path style="fill:none;stroke-width:0.0461867;stroke-linecap:butt;stroke-linejoin:miter;stroke:rgb(0%,0%,0%);stroke-opacity:1;stroke-miterlimit:4;" d="M 61.699219 24.089844 C 61.667969 24.121094 61.664062 24.066406 61.6875 24.203125 C 61.734375 24.460938 61.785156 24.578125 61.601562 24.578125 C 61.414062 24.578125 61.472656 24.460938 61.515625 24.203125 C 61.539062 24.066406 61.535156 24.121094 61.503906 24.089844 "/>
<path style="fill-rule:evenodd;fill:rgb(99.998474%,0%,8.627319%);fill-opacity:1;stroke-width:0.0230933;stroke-linecap:butt;stroke-linejoin:miter;stroke:rgb(0%,0%,0%);stroke-opacity:1;stroke-miterlimit:4;" d="M 61.605469 25.066406 C 61.753906 25.066406 61.839844 25.0625 61.816406 24.828125 C 61.808594 24.734375 61.921875 24.695312 61.878906 24.542969 C 61.921875 24.730469 61.605469 24.714844 61.605469 24.628906 C 61.605469 24.714844 61.289062 24.730469 61.328125 24.542969 C 61.289062 24.695312 61.402344 24.734375 61.390625 24.828125 C 61.367188 25.0625 61.457031 25.066406 61.605469 25.066406 Z M 61.605469 25.066406 "/>
<path style=" stroke:none;fill-rule:evenodd;fill:rgb(0%,0%,0%);fill-opacity:1;" d="M 61.46875 24.589844 L 61.109375 24.480469 Z M 61.46875 24.589844 "/>
<path style="fill:none;stroke-width:0.0230933;stroke-linecap:butt;stroke-linejoin:miter;stroke:rgb(0%,0%,0%);stroke-opacity:1;stroke-miterlimit:4;" d="M 61.46875 24.589844 L 61.109375 24.480469 "/>
<path style=" stroke:none;fill-rule:evenodd;fill:rgb(0%,0%,0%);fill-opacity:1;" d="M 61.46875 24.613281 L 61.070312 24.609375 Z M 61.46875 24.613281 "/>
<path style="fill:none;stroke-width:0.0230933;stroke-linecap:butt;stroke-linejoin:miter;stroke:rgb(0%,0%,0%);stroke-opacity:1;stroke-miterlimit:4;" d="M 61.46875 24.613281 L 61.070312 24.609375 "/>
<path style=" stroke:none;fill-rule:evenodd;fill:rgb(0%,0%,0%);fill-opacity:1;" d="M 61.472656 24.636719 L 61.132812 24.738281 Z M 61.472656 24.636719 "/>
<path style="fill:none;stroke-width:0.0230933;stroke-linecap:butt;stroke-linejoin:miter;stroke:rgb(0%,0%,0%);stroke-opacity:1;stroke-miterlimit:4;" d="M 61.472656 24.636719 L 61.132812 24.738281 "/>
<path style=" stroke:none;fill-rule:evenodd;fill:rgb(0%,0%,0%);fill-opacity:1;" d="M 61.738281 24.589844 L 62.097656 24.480469 Z M 61.738281 24.589844 "/>
<path style="fill:none;stroke-width:0.0230933;stroke-linecap:butt;stroke-linejoin:miter;stroke:rgb(0%,0%,0%);stroke-opacity:1;stroke-miterlimit:4;" d="M 61.738281 24.589844 L 62.097656 24.480469 "/>
<path style=" stroke:none;fill-rule:evenodd;fill:rgb(0%,0%,0%);fill-opacity:1;" d="M 61.738281 24.613281 L 62.140625 24.609375 Z M 61.738281 24.613281 "/>
<path style="fill:none;stroke-width:0.0230933;stroke-linecap:butt;stroke-linejoin:miter;stroke:rgb(0%,0%,0%);stroke-opacity:1;stroke-miterlimit:4;" d="M 61.738281 24.613281 L 62.140625 24.609375 "/>
<path style=" stroke:none;fill-rule:evenodd;fill:rgb(0%,0%,0%);fill-opacity:1;" d="M 61.734375 24.636719 L 62.078125 24.738281 Z M 61.734375 24.636719 "/>
<path style="fill:none;stroke-width:0.0230933;stroke-linecap:butt;stroke-linejoin:miter;stroke:rgb(0%,0%,0%);stroke-opacity:1;stroke-miterlimit:4;" d="M 61.734375 24.636719 L 62.078125 24.738281 "/>
<path style="fill-rule:evenodd;fill:rgb(0%,31.764221%,72.940063%);fill-opacity:1;stroke-width:0.00480341;stroke-linecap:butt;stroke-linejoin:miter;stroke:rgb(0%,0%,0%);stroke-opacity:1;stroke-miterlimit:4;" d="M 59.746094 23.390625 C 59.640625 23.242188 59.378906 23.367188 59.375 23.546875 C 59.460938 23.429688 59.605469 23.597656 59.683594 23.5625 C 59.738281 23.539062 59.789062 23.449219 59.746094 23.390625 Z M 59.746094 23.390625 "/>
<path style="fill-rule:evenodd;fill:rgb(0%,31.764221%,72.940063%);fill-opacity:1;stroke-width:0.00480341;stroke-linecap:butt;stroke-linejoin:miter;stroke:rgb(0%,0%,0%);stroke-opacity:1;stroke-miterlimit:4;" d="M 59.609375 23.734375 C 59.503906 23.585938 59.246094 23.710938 59.238281 23.890625 C 59.328125 23.773438 59.472656 23.941406 59.550781 23.90625 C 59.605469 23.882812 59.652344 23.792969 59.609375 23.734375 Z M 59.609375 23.734375 "/>
<path style="fill-rule:evenodd;fill:rgb(0%,31.764221%,72.940063%);fill-opacity:1;stroke-width:0.00480341;stroke-linecap:butt;stroke-linejoin:miter;stroke:rgb(0%,0%,0%);stroke-opacity:1;stroke-miterlimit:4;" d="M 59.542969 24.195312 C 59.421875 24.0625 59.175781 24.21875 59.1875 24.398438 C 59.265625 24.273438 59.425781 24.421875 59.5 24.375 C 59.550781 24.34375 59.589844 24.25 59.542969 24.195312 Z M 59.542969 24.195312 "/>
<path style="fill-rule:evenodd;fill:rgb(0%,31.764221%,72.940063%);fill-opacity:1;stroke-width:0.00480341;stroke-linecap:butt;stroke-linejoin:miter;stroke:rgb(0%,0%,0%);stroke-opacity:1;stroke-miterlimit:4;" d="M 59.667969 25.628906 C 59.535156 25.515625 59.304688 25.699219 59.335938 25.878906 C 59.398438 25.742188 59.574219 25.871094 59.644531 25.816406 C 59.691406 25.777344 59.71875 25.675781 59.667969 25.628906 Z M 59.667969 25.628906 "/>
<path style="fill-rule:evenodd;fill:rgb(0%,31.764221%,72.940063%);fill-opacity:1;stroke-width:0.00480341;stroke-linecap:butt;stroke-linejoin:miter;stroke:rgb(0%,0%,0%);stroke-opacity:1;stroke-miterlimit:4;" d="M 59.660156 25.945312 C 59.503906 25.878906 59.335938 26.136719 59.414062 26.292969 C 59.4375 26.140625 59.636719 26.203125 59.6875 26.128906 C 59.722656 26.074219 59.722656 25.96875 59.660156 25.945312 Z M 59.660156 25.945312 "/>
<path style="fill-rule:evenodd;fill:rgb(0%,31.764221%,72.940063%);fill-opacity:1;stroke-width:0.00480341;stroke-linecap:butt;stroke-linejoin:miter;stroke:rgb(0%,0%,0%);stroke-opacity:1;stroke-miterlimit:4;" d="M 59.859375 26.179688 C 59.703125 26.113281 59.535156 26.371094 59.613281 26.527344 C 59.636719 26.375 59.839844 26.4375 59.890625 26.363281 C 59.925781 26.308594 59.925781 26.203125 59.859375 26.179688 Z M 59.859375 26.179688 "/>
<path style="fill-rule:evenodd;fill:rgb(0%,31.764221%,72.940063%);fill-opacity:1;stroke-width:0.00480341;stroke-linecap:butt;stroke-linejoin:miter;stroke:rgb(0%,0%,0%);stroke-opacity:1;stroke-miterlimit:4;" d="M 63.960938 26.632812 C 63.804688 26.570312 63.636719 26.824219 63.714844 26.984375 C 63.734375 26.832031 63.9375 26.894531 63.988281 26.816406 C 64.023438 26.765625 64.023438 26.660156 63.960938 26.632812 Z M 63.960938 26.632812 "/>
<path style="fill-rule:evenodd;fill:rgb(0%,31.764221%,72.940063%);fill-opacity:1;stroke-width:0.00480341;stroke-linecap:butt;stroke-linejoin:miter;stroke:rgb(0%,0%,0%);stroke-opacity:1;stroke-miterlimit:4;" d="M 64.171875 26.847656 C 64.007812 26.800781 63.867188 27.078125 63.960938 27.222656 C 63.96875 27.070312 64.175781 27.105469 64.21875 27.023438 C 64.25 26.96875 64.238281 26.863281 64.171875 26.847656 Z M 64.171875 26.847656 "/>
<path style="fill-rule:evenodd;fill:rgb(0%,31.764221%,72.940063%);fill-opacity:1;stroke-width:0.00480341;stroke-linecap:butt;stroke-linejoin:miter;stroke:rgb(0%,0%,0%);stroke-opacity:1;stroke-miterlimit:4;" d="M 64.023438 26.332031 C 63.878906 26.238281 63.671875 26.457031 63.726562 26.628906 C 63.773438 26.484375 63.960938 26.582031 64.023438 26.519531 C 64.066406 26.472656 64.082031 26.371094 64.023438 26.332031 Z M 64.023438 26.332031 "/>
<path style="fill-rule:evenodd;fill:rgb(0%,31.764221%,72.940063%);fill-opacity:1;stroke-width:0.00480341;stroke-linecap:butt;stroke-linejoin:miter;stroke:rgb(0%,0%,0%);stroke-opacity:1;stroke-miterlimit:4;" d="M 66.9375 26.699219 C 66.777344 26.65625 66.636719 26.929688 66.730469 27.078125 C 66.738281 26.925781 66.941406 26.960938 66.984375 26.878906 C 67.015625 26.820312 67.003906 26.71875 66.9375 26.699219 Z M 66.9375 26.699219 "/>
<path style="fill-rule:evenodd;fill:rgb(0%,31.764221%,72.940063%);fill-opacity:1;stroke-width:0.00480341;stroke-linecap:butt;stroke-linejoin:miter;stroke:rgb(0%,0%,0%);stroke-opacity:1;stroke-miterlimit:4;" d="M 66.945312 26.410156 C 66.796875 26.324219 66.597656 26.550781 66.65625 26.71875 C 66.699219 26.574219 66.890625 26.664062 66.949219 26.597656 C 66.992188 26.550781 67.003906 26.445312 66.945312 26.410156 Z M 66.945312 26.410156 "/>
<path style="fill-rule:evenodd;fill:rgb(0%,31.764221%,72.940063%);fill-opacity:1;stroke-width:0.00480341;stroke-linecap:butt;stroke-linejoin:miter;stroke:rgb(0%,0%,0%);stroke-opacity:1;stroke-miterlimit:4;" d="M 67.058594 26.957031 C 66.894531 26.921875 66.765625 27.203125 66.863281 27.34375 C 66.863281 27.191406 67.070312 27.21875 67.113281 27.132812 C 67.140625 27.074219 67.125 26.972656 67.058594 26.957031 Z M 67.058594 26.957031 "/>
<path style="fill-rule:evenodd;fill:rgb(0%,31.764221%,72.940063%);fill-opacity:1;stroke-width:0.00480341;stroke-linecap:butt;stroke-linejoin:miter;stroke:rgb(0%,0%,0%);stroke-opacity:1;stroke-miterlimit:4;" d="M 61.617188 24.925781 C 61.71875 24.925781 61.761719 24.960938 61.761719 25.167969 C 61.761719 25.605469 61.757812 25.796875 61.628906 25.796875 C 61.503906 25.796875 61.511719 25.617188 61.511719 25.292969 C 61.511719 25.125 61.511719 25.039062 61.480469 25.054688 C 61.480469 24.945312 61.523438 24.925781 61.617188 24.925781 Z M 61.617188 24.925781 "/>
</g>
</svg>
