<?xml version="1.0" encoding="UTF-8"?>
<svg xmlns="http://www.w3.org/2000/svg" xmlns:xlink="http://www.w3.org/1999/xlink" width="128pt" height="64pt" viewBox="0 0 128 64" version="1.1">
<g id="surface572">
<rect x="0" y="0" width="128" height="64" style="fill:rgb(0%,0%,0%);fill-opacity:1;stroke:none;"/>
<path style=" stroke:none;fill-rule:evenodd;fill:rgb(99.998474%,99.998474%,99.998474%);fill-opacity:1;" d="M 0 21.332031 L 128 21.332031 L 128 42.667969 L 0 42.667969 Z M 0 21.332031 "/>
<path style=" stroke:none;fill-rule:evenodd;fill:rgb(0%,47.842407%,23.921204%);fill-opacity:1;" d="M 0 42.667969 L 128 42.667969 L 128 64 L 0 64 Z M 0 42.667969 "/>
<path style=" stroke:none;fill-rule:evenodd;fill:rgb(80.783081%,6.666565%,14.901733%);fill-opacity:1;" d="M 64 32 L 0 64 L 0 0 Z M 64 32 "/>
<path style=" stroke:none;fill-rule:evenodd;fill:rgb(99.998474%,99.998474%,99.998474%);fill-opacity:1;" d="M 24.042969 33.105469 L 21.316406 33.359375 L 21.675781 36.085938 L 19.777344 34.105469 L 17.878906 36.085938 L 18.238281 33.359375 L 15.511719 33.105469 L 17.855469 31.6875 L 16.355469 29.390625 L 18.921875 30.347656 L 19.777344 27.738281 L 20.632812 30.347656 L 23.199219 29.390625 L 21.695312 31.6875 Z M 24.042969 33.105469 "/>
</g>
</svg>
