<?xml version="1.0" encoding="UTF-8"?>
<svg xmlns="http://www.w3.org/2000/svg" xmlns:xlink="http://www.w3.org/1999/xlink" width="128pt" height="64pt" viewBox="0 0 128 64" version="1.1">
<g id="surface577">
<rect x="0" y="0" width="128" height="64" style="fill:rgb(0%,68.626404%,79.214478%);fill-opacity:1;stroke:none;"/>
<path style=" stroke:none;fill-rule:evenodd;fill:rgb(99.606323%,77.253723%,4.705811%);fill-opacity:1;" d="M 7.550781 18.695312 C 7.550781 19.992188 8.714844 20.660156 9.628906 20.660156 C 10.863281 20.660156 11.519531 19.925781 11.519531 18.957031 C 11.519531 18.410156 11.417969 18.066406 11.167969 17.542969 C 11.167969 17.542969 9.132812 13.316406 8.339844 11.679688 C 8.242188 11.476562 8.210938 11.242188 8.210938 10.902344 C 8.210938 10.375 8.722656 9.945312 9.257812 9.933594 C 9.742188 9.921875 10.273438 10.386719 10.273438 10.917969 C 10.273438 11.566406 9.941406 11.851562 9.597656 11.851562 C 9.171875 11.851562 9.003906 11.679688 9.003906 11.382812 C 9.003906 11.175781 9.101562 11.085938 9.246094 11.085938 C 9.609375 11.085938 9.507812 11.574219 9.507812 11.574219 C 9.6875 11.535156 9.835938 11.351562 9.753906 11.121094 C 9.882812 11.089844 10.007812 11.023438 10.105469 10.910156 C 10.007812 10.816406 9.894531 10.742188 9.753906 10.71875 C 9.835938 10.4375 9.722656 10.300781 9.476562 10.242188 C 9.527344 10.351562 9.527344 10.449219 9.511719 10.542969 C 9.125 10.433594 8.535156 10.609375 8.535156 11.277344 C 8.535156 11.941406 8.992188 12.5 9.855469 12.359375 C 9.652344 12.457031 9.546875 12.660156 9.527344 12.882812 C 9.683594 12.820312 9.855469 12.8125 9.855469 12.8125 C 9.757812 12.992188 9.617188 13.144531 9.621094 13.496094 C 9.78125 13.421875 9.929688 13.285156 10.136719 13.371094 C 9.8125 14.003906 10.210938 14.878906 11.214844 15.082031 C 10.847656 14.652344 10.667969 14.183594 10.667969 13.722656 C 10.667969 12.21875 11.085938 11.964844 11.085938 10.917969 C 11.085938 10.480469 10.859375 10.007812 10.414062 9.6875 L 10.414062 9.707031 C 10.707031 9.628906 10.898438 9.480469 11.007812 9.285156 C 10.332031 9.09375 9.355469 9.097656 8.828125 9.304688 C 8.226562 9.375 7.804688 9.835938 7.679688 10.074219 C 7.554688 10.308594 7.316406 11.15625 7.679688 11.921875 C 8.082031 12.761719 9.964844 16.757812 10.554688 18.015625 C 10.679688 18.28125 10.753906 18.566406 10.753906 18.871094 C 10.753906 19.640625 10.046875 19.910156 9.648438 19.910156 C 9.167969 19.910156 8.679688 19.542969 8.679688 19.089844 C 8.679688 18.800781 8.839844 18.628906 9.066406 18.628906 C 9.605469 18.628906 9.574219 19.085938 9.464844 19.378906 C 9.800781 19.226562 9.996094 18.957031 9.945312 18.671875 C 10.132812 18.644531 10.316406 18.554688 10.484375 18.363281 C 10.351562 18.199219 10.191406 18.074219 9.945312 18.066406 C 10.050781 17.625 9.753906 17.4375 9.464844 17.335938 C 9.558594 17.660156 9.617188 18.035156 9.066406 18.035156 C 8.660156 18.035156 8.34375 18.101562 8.160156 18.363281 C 8.148438 18.015625 8.117188 16.636719 8.117188 16.636719 C 8.089844 16.117188 8.808594 16.132812 9.265625 16.289062 C 9.09375 15.691406 8.738281 15.367188 7.925781 15.449219 C 8.121094 15.367188 8.332031 15.179688 8.332031 14.820312 C 8.332031 14.335938 7.9375 13.796875 7.679688 13.636719 Z M 7.550781 18.695312 "/>
<path style=" stroke:none;fill-rule:evenodd;fill:rgb(99.606323%,77.253723%,4.705811%);fill-opacity:1;" d="M 71.058594 17.289062 C 71.5625 17.378906 71.8125 17.105469 71.886719 16.726562 C 71.988281 16.226562 71.773438 13.699219 71.773438 13.699219 C 71.773438 13.699219 70.605469 15.949219 70.507812 16.453125 C 70.433594 16.832031 70.554688 17.1875 71.058594 17.289062 Z M 71.058594 17.289062 "/>
<path style=" stroke:none;fill-rule:evenodd;fill:rgb(99.606323%,77.253723%,4.705811%);fill-opacity:1;" d="M 72.894531 17.84375 C 73.367188 18.035156 73.667969 17.8125 73.816406 17.457031 C 74.011719 16.984375 74.292969 14.464844 74.292969 14.464844 C 74.292969 14.464844 72.710938 16.445312 72.515625 16.917969 C 72.367188 17.273438 72.421875 17.648438 72.894531 17.84375 Z M 72.894531 17.84375 "/>
<path style=" stroke:none;fill-rule:evenodd;fill:rgb(99.606323%,77.253723%,4.705811%);fill-opacity:1;" d="M 74.585938 18.746094 C 75.011719 19.027344 75.351562 18.867188 75.5625 18.546875 C 75.847656 18.121094 76.617188 15.707031 76.617188 15.707031 C 76.617188 15.707031 74.679688 17.339844 74.394531 17.765625 C 74.179688 18.085938 74.160156 18.464844 74.585938 18.746094 Z M 74.585938 18.746094 "/>
<path style=" stroke:none;fill-rule:evenodd;fill:rgb(99.606323%,77.253723%,4.705811%);fill-opacity:1;" d="M 76.066406 19.964844 C 76.433594 20.320312 76.792969 20.230469 77.066406 19.960938 C 77.429688 19.597656 78.652344 17.375 78.652344 17.375 C 78.652344 17.375 76.433594 18.601562 76.070312 18.964844 C 75.800781 19.234375 75.703125 19.601562 76.066406 19.964844 Z M 76.066406 19.964844 "/>
<path style=" stroke:none;fill-rule:evenodd;fill:rgb(99.606323%,77.253723%,4.705811%);fill-opacity:1;" d="M 77.28125 21.445312 C 77.570312 21.867188 77.945312 21.851562 78.265625 21.636719 C 78.691406 21.351562 80.324219 19.414062 80.324219 19.414062 C 80.324219 19.414062 77.90625 20.183594 77.480469 20.464844 C 77.164062 20.679688 76.996094 21.019531 77.28125 21.445312 Z M 77.28125 21.445312 "/>
<path style=" stroke:none;fill-rule:evenodd;fill:rgb(99.606323%,77.253723%,4.705811%);fill-opacity:1;" d="M 78.1875 23.136719 C 78.386719 23.605469 78.757812 23.664062 79.113281 23.515625 C 79.585938 23.320312 81.566406 21.738281 81.566406 21.738281 C 81.566406 21.738281 79.046875 22.019531 78.574219 22.214844 C 78.21875 22.363281 77.992188 22.664062 78.1875 23.136719 Z M 78.1875 23.136719 "/>
<path style=" stroke:none;fill-rule:evenodd;fill:rgb(99.606323%,77.253723%,4.705811%);fill-opacity:1;" d="M 78.742188 24.972656 C 78.847656 25.472656 79.199219 25.597656 79.578125 25.523438 C 80.078125 25.425781 82.332031 24.257812 82.332031 24.257812 C 82.332031 24.257812 79.804688 24.042969 79.300781 24.144531 C 78.925781 24.21875 78.644531 24.46875 78.742188 24.972656 Z M 78.742188 24.972656 "/>
<path style=" stroke:none;fill-rule:evenodd;fill:rgb(99.606323%,77.253723%,4.705811%);fill-opacity:1;" d="M 78.929688 26.878906 C 78.9375 27.390625 79.257812 27.582031 79.640625 27.582031 C 80.152344 27.582031 82.589844 26.878906 82.589844 26.878906 C 82.589844 26.878906 80.152344 26.175781 79.640625 26.175781 C 79.257812 26.175781 78.929688 26.367188 78.929688 26.878906 Z M 78.929688 26.878906 "/>
<path style=" stroke:none;fill-rule:evenodd;fill:rgb(99.606323%,77.253723%,4.705811%);fill-opacity:1;" d="M 78.742188 28.789062 C 78.648438 29.292969 78.925781 29.542969 79.300781 29.617188 C 79.804688 29.71875 82.332031 29.503906 82.332031 29.503906 C 82.332031 29.503906 80.078125 28.335938 79.578125 28.238281 C 79.199219 28.160156 78.84375 28.285156 78.742188 28.789062 Z M 78.742188 28.789062 "/>
<path style=" stroke:none;fill-rule:evenodd;fill:rgb(99.606323%,77.253723%,4.705811%);fill-opacity:1;" d="M 78.1875 30.621094 C 77.996094 31.097656 78.21875 31.398438 78.574219 31.542969 C 79.046875 31.742188 81.566406 32.023438 81.566406 32.023438 C 81.566406 32.023438 79.585938 30.441406 79.113281 30.246094 C 78.757812 30.097656 78.382812 30.148438 78.1875 30.621094 Z M 78.1875 30.621094 "/>
<path style=" stroke:none;fill-rule:evenodd;fill:rgb(99.606323%,77.253723%,4.705811%);fill-opacity:1;" d="M 77.28125 32.3125 C 77.003906 32.742188 77.164062 33.082031 77.480469 33.292969 C 77.90625 33.578125 80.324219 34.347656 80.324219 34.347656 C 80.324219 34.347656 78.691406 32.40625 78.265625 32.121094 C 77.945312 31.910156 77.566406 31.886719 77.28125 32.3125 Z M 77.28125 32.3125 "/>
<path style=" stroke:none;fill-rule:evenodd;fill:rgb(99.606323%,77.253723%,4.705811%);fill-opacity:1;" d="M 76.066406 33.796875 C 75.710938 34.164062 75.800781 34.523438 76.070312 34.796875 C 76.433594 35.15625 78.652344 36.382812 78.652344 36.382812 C 78.652344 36.382812 77.429688 34.164062 77.066406 33.800781 C 76.792969 33.527344 76.429688 33.433594 76.066406 33.796875 Z M 76.066406 33.796875 "/>
<path style=" stroke:none;fill-rule:evenodd;fill:rgb(99.606323%,77.253723%,4.705811%);fill-opacity:1;" d="M 74.585938 35.011719 C 74.164062 35.300781 74.179688 35.675781 74.394531 35.992188 C 74.679688 36.417969 76.617188 38.054688 76.617188 38.054688 C 76.617188 38.054688 75.847656 35.636719 75.5625 35.210938 C 75.351562 34.894531 75.007812 34.726562 74.585938 35.011719 Z M 74.585938 35.011719 "/>
<path style=" stroke:none;fill-rule:evenodd;fill:rgb(99.606323%,77.253723%,4.705811%);fill-opacity:1;" d="M 72.894531 35.917969 C 72.421875 36.117188 72.367188 36.488281 72.515625 36.839844 C 72.710938 37.316406 74.292969 39.296875 74.292969 39.296875 C 74.292969 39.296875 74.011719 36.777344 73.816406 36.304688 C 73.667969 35.949219 73.367188 35.722656 72.894531 35.917969 Z M 72.894531 35.917969 "/>
<path style=" stroke:none;fill-rule:evenodd;fill:rgb(99.606323%,77.253723%,4.705811%);fill-opacity:1;" d="M 63.71875 35.011719 C 63.289062 34.734375 62.949219 34.894531 62.738281 35.210938 C 62.453125 35.636719 61.683594 38.054688 61.683594 38.054688 C 61.683594 38.054688 63.621094 36.417969 63.90625 35.992188 C 64.121094 35.675781 64.140625 35.296875 63.71875 35.011719 Z M 63.71875 35.011719 "/>
<path style=" stroke:none;fill-rule:evenodd;fill:rgb(99.606323%,77.253723%,4.705811%);fill-opacity:1;" d="M 62.234375 33.796875 C 61.867188 33.4375 61.507812 33.527344 61.234375 33.800781 C 60.871094 34.164062 59.648438 36.382812 59.648438 36.382812 C 59.648438 36.382812 61.867188 35.15625 62.230469 34.796875 C 62.5 34.523438 62.597656 34.160156 62.234375 33.796875 Z M 62.234375 33.796875 "/>
<path style=" stroke:none;fill-rule:evenodd;fill:rgb(99.606323%,77.253723%,4.705811%);fill-opacity:1;" d="M 61.019531 32.3125 C 60.726562 31.890625 60.355469 31.910156 60.035156 32.121094 C 59.609375 32.40625 57.976562 34.347656 57.976562 34.347656 C 57.976562 34.347656 60.394531 33.578125 60.816406 33.292969 C 61.136719 33.082031 61.300781 32.738281 61.019531 32.3125 Z M 61.019531 32.3125 "/>
<path style=" stroke:none;fill-rule:evenodd;fill:rgb(99.606323%,77.253723%,4.705811%);fill-opacity:1;" d="M 60.113281 30.621094 C 59.914062 30.152344 59.542969 30.097656 59.1875 30.246094 C 58.714844 30.441406 56.734375 32.023438 56.734375 32.023438 C 56.734375 32.023438 59.253906 31.742188 59.726562 31.542969 C 60.082031 31.398438 60.308594 31.097656 60.113281 30.621094 Z M 60.113281 30.621094 "/>
<path style=" stroke:none;fill-rule:evenodd;fill:rgb(99.606323%,77.253723%,4.705811%);fill-opacity:1;" d="M 59.558594 28.789062 C 59.449219 28.289062 59.101562 28.160156 58.722656 28.238281 C 58.222656 28.335938 55.96875 29.503906 55.96875 29.503906 C 55.96875 29.503906 58.496094 29.71875 58.996094 29.617188 C 59.375 29.542969 59.65625 29.289062 59.558594 28.789062 Z M 59.558594 28.789062 "/>
<path style=" stroke:none;fill-rule:evenodd;fill:rgb(99.606323%,77.253723%,4.705811%);fill-opacity:1;" d="M 59.367188 26.878906 C 59.363281 26.367188 59.042969 26.175781 58.660156 26.175781 C 58.148438 26.175781 55.710938 26.878906 55.710938 26.878906 C 55.710938 26.878906 58.148438 27.582031 58.660156 27.582031 C 59.042969 27.582031 59.367188 27.390625 59.367188 26.878906 Z M 59.367188 26.878906 "/>
<path style=" stroke:none;fill-rule:evenodd;fill:rgb(99.606323%,77.253723%,4.705811%);fill-opacity:1;" d="M 59.558594 24.972656 C 59.652344 24.46875 59.375 24.21875 58.996094 24.144531 C 58.496094 24.042969 55.96875 24.257812 55.96875 24.257812 C 55.96875 24.257812 58.222656 25.425781 58.722656 25.523438 C 59.101562 25.597656 59.457031 25.472656 59.558594 24.972656 Z M 59.558594 24.972656 "/>
<path style=" stroke:none;fill-rule:evenodd;fill:rgb(99.606323%,77.253723%,4.705811%);fill-opacity:1;" d="M 60.113281 23.136719 C 60.304688 22.660156 60.082031 22.363281 59.726562 22.214844 C 59.253906 22.019531 56.734375 21.738281 56.734375 21.738281 C 56.734375 21.738281 58.714844 23.320312 59.1875 23.515625 C 59.542969 23.664062 59.917969 23.609375 60.113281 23.136719 Z M 60.113281 23.136719 "/>
<path style=" stroke:none;fill-rule:evenodd;fill:rgb(99.606323%,77.253723%,4.705811%);fill-opacity:1;" d="M 61.019531 21.445312 C 61.296875 21.015625 61.136719 20.679688 60.816406 20.464844 C 60.394531 20.183594 57.976562 19.414062 57.976562 19.414062 C 57.976562 19.414062 59.609375 21.351562 60.035156 21.636719 C 60.355469 21.851562 60.734375 21.871094 61.019531 21.445312 Z M 61.019531 21.445312 "/>
<path style=" stroke:none;fill-rule:evenodd;fill:rgb(99.606323%,77.253723%,4.705811%);fill-opacity:1;" d="M 62.234375 19.964844 C 62.589844 19.597656 62.5 19.234375 62.230469 18.964844 C 61.867188 18.601562 59.648438 17.375 59.648438 17.375 C 59.648438 17.375 60.871094 19.597656 61.234375 19.960938 C 61.507812 20.230469 61.871094 20.324219 62.234375 19.964844 Z M 62.234375 19.964844 "/>
<path style=" stroke:none;fill-rule:evenodd;fill:rgb(99.606323%,77.253723%,4.705811%);fill-opacity:1;" d="M 77.75 26.890625 C 77.75 31.648438 73.894531 35.503906 69.140625 35.503906 C 64.382812 35.503906 60.527344 31.648438 60.527344 26.890625 C 60.527344 22.136719 64.382812 18.28125 69.140625 18.28125 C 73.894531 18.28125 77.75 22.136719 77.75 26.890625 Z M 77.75 26.890625 "/>
<path style=" stroke:none;fill-rule:evenodd;fill:rgb(99.606323%,77.253723%,4.705811%);fill-opacity:1;" d="M 69.148438 17.097656 C 69.660156 17.09375 69.855469 16.773438 69.855469 16.386719 C 69.855469 15.878906 69.148438 13.441406 69.148438 13.441406 C 69.148438 13.441406 68.445312 15.878906 68.445312 16.386719 C 68.445312 16.773438 68.636719 17.097656 69.148438 17.097656 Z M 69.148438 17.097656 "/>
<path style=" stroke:none;fill-rule:evenodd;fill:rgb(99.606323%,77.253723%,4.705811%);fill-opacity:1;" d="M 71.058594 36.472656 C 70.558594 36.578125 70.433594 36.929688 70.507812 37.304688 C 70.605469 37.808594 71.773438 40.0625 71.773438 40.0625 C 71.773438 40.0625 71.988281 37.535156 71.886719 37.03125 C 71.8125 36.65625 71.558594 36.371094 71.058594 36.472656 Z M 71.058594 36.472656 "/>
<path style=" stroke:none;fill-rule:evenodd;fill:rgb(99.606323%,77.253723%,4.705811%);fill-opacity:1;" d="M 69.148438 36.660156 C 68.636719 36.667969 68.445312 36.988281 68.445312 37.371094 C 68.445312 37.882812 69.148438 40.320312 69.148438 40.320312 C 69.148438 40.320312 69.855469 37.882812 69.855469 37.371094 C 69.855469 36.988281 69.660156 36.660156 69.148438 36.660156 Z M 69.148438 36.660156 "/>
<path style=" stroke:none;fill-rule:evenodd;fill:rgb(99.606323%,77.253723%,4.705811%);fill-opacity:1;" d="M 67.242188 36.472656 C 66.738281 36.378906 66.488281 36.65625 66.414062 37.03125 C 66.3125 37.535156 66.527344 40.0625 66.527344 40.0625 C 66.527344 40.0625 67.695312 37.808594 67.792969 37.304688 C 67.867188 36.929688 67.742188 36.574219 67.242188 36.472656 Z M 67.242188 36.472656 "/>
<path style=" stroke:none;fill-rule:evenodd;fill:rgb(99.606323%,77.253723%,4.705811%);fill-opacity:1;" d="M 65.40625 35.917969 C 64.933594 35.726562 64.632812 35.949219 64.484375 36.304688 C 64.289062 36.777344 64.007812 39.296875 64.007812 39.296875 C 64.007812 39.296875 65.589844 37.316406 65.785156 36.839844 C 65.933594 36.488281 65.878906 36.113281 65.40625 35.917969 Z M 65.40625 35.917969 "/>
<path style=" stroke:none;fill-rule:evenodd;fill:rgb(99.606323%,77.253723%,4.705811%);fill-opacity:1;" d="M 63.71875 18.746094 C 64.136719 18.457031 64.121094 18.085938 63.90625 17.765625 C 63.621094 17.339844 61.683594 15.707031 61.683594 15.707031 C 61.683594 15.707031 62.453125 18.121094 62.738281 18.546875 C 62.949219 18.867188 63.289062 19.03125 63.71875 18.746094 Z M 63.71875 18.746094 "/>
<path style=" stroke:none;fill-rule:evenodd;fill:rgb(99.606323%,77.253723%,4.705811%);fill-opacity:1;" d="M 65.40625 17.84375 C 65.878906 17.640625 65.933594 17.273438 65.785156 16.917969 C 65.589844 16.445312 64.007812 14.464844 64.007812 14.464844 C 64.007812 14.464844 64.289062 16.984375 64.484375 17.457031 C 64.632812 17.8125 64.933594 18.039062 65.40625 17.84375 Z M 65.40625 17.84375 "/>
<path style=" stroke:none;fill-rule:evenodd;fill:rgb(99.606323%,77.253723%,4.705811%);fill-opacity:1;" d="M 67.242188 17.289062 C 67.742188 17.179688 67.867188 16.832031 67.792969 16.453125 C 67.695312 15.949219 66.527344 13.699219 66.527344 13.699219 C 66.527344 13.699219 66.3125 16.226562 66.414062 16.726562 C 66.488281 17.105469 66.738281 17.386719 67.242188 17.289062 Z M 67.242188 17.289062 "/>
<path style=" stroke:none;fill-rule:evenodd;fill:rgb(99.606323%,77.253723%,4.705811%);fill-opacity:1;" d="M 68.851562 41.917969 L 68.703125 42.214844 L 68.539062 42.59375 L 68.4375 42.773438 L 68.355469 42.941406 L 68.289062 43.074219 L 68.207031 43.15625 L 68.007812 42.988281 L 67.792969 42.839844 L 67.5625 42.726562 L 67.316406 42.628906 L 67.050781 42.558594 L 66.789062 42.496094 L 66.523438 42.445312 L 66.242188 42.414062 L 65.664062 42.363281 L 65.085938 42.347656 L 64.527344 42.3125 L 63.996094 42.246094 L 63.699219 42.199219 L 63.417969 42.132812 L 63.121094 42.03125 L 62.992188 41.964844 L 62.875 41.898438 L 62.695312 41.785156 L 62.511719 41.652344 L 62.3125 41.503906 L 62.132812 41.339844 L 61.753906 40.976562 L 61.371094 40.613281 L 60.992188 40.265625 L 60.644531 39.953125 L 60.480469 39.835938 L 60.316406 39.722656 L 60.167969 39.65625 L 60.019531 39.605469 L 59.738281 39.539062 L 59.492188 39.457031 L 59.242188 39.375 L 58.996094 39.257812 L 58.78125 39.160156 L 58.566406 39.027344 L 58.367188 38.894531 L 58.1875 38.761719 L 57.988281 38.613281 L 57.824219 38.464844 L 57.660156 38.300781 L 57.492188 38.136719 L 57.179688 37.789062 L 56.882812 37.425781 L 56.289062 36.648438 L 55.660156 35.859375 L 55.296875 35.476562 L 54.917969 35.097656 L 54.703125 34.898438 L 54.488281 34.71875 L 54.257812 34.554688 L 54.007812 34.371094 L 53.960938 34.386719 L 53.910156 34.4375 L 53.859375 34.503906 L 53.828125 34.585938 L 53.777344 34.734375 L 53.761719 34.800781 L 53.644531 34.753906 L 53.546875 34.703125 L 53.429688 34.652344 L 53.332031 34.621094 L 53.117188 34.621094 L 53.003906 34.652344 L 52.886719 34.703125 L 53.003906 34.851562 L 53.152344 35.050781 L 53.300781 35.28125 L 53.429688 35.527344 L 53.5625 35.792969 L 53.664062 36.039062 L 53.695312 36.171875 L 53.730469 36.269531 L 53.746094 36.386719 L 53.746094 36.484375 L 52.855469 36.484375 L 52.984375 36.683594 L 53.132812 36.882812 L 53.300781 37.078125 L 53.84375 37.625 L 54.027344 37.773438 L 54.191406 37.886719 L 54.007812 37.90625 L 53.761719 37.921875 L 53.515625 37.953125 L 53.332031 37.972656 L 53.480469 38.101562 L 53.664062 38.234375 L 53.859375 38.382812 L 54.074219 38.53125 L 54.289062 38.664062 L 54.503906 38.78125 L 54.703125 38.847656 L 54.882812 38.894531 L 54.964844 38.914062 L 55.035156 38.929688 L 55.082031 38.945312 L 55.132812 38.996094 L 55.132812 39.058594 L 55.117188 39.09375 L 55.082031 39.191406 L 55.066406 39.292969 L 55.050781 39.359375 L 55.050781 39.40625 L 55.066406 39.488281 L 55.082031 39.554688 L 55.117188 39.589844 L 55.164062 39.621094 L 55.230469 39.65625 L 55.3125 39.671875 L 55.394531 39.703125 L 55.480469 39.738281 L 55.5625 39.769531 L 55.628906 39.820312 L 55.644531 39.835938 L 55.644531 39.871094 L 55.628906 39.886719 L 55.5625 39.933594 L 55.496094 39.984375 L 55.429688 40.050781 L 55.363281 40.132812 L 55.363281 40.199219 L 55.347656 40.265625 L 55.363281 40.347656 L 55.378906 40.449219 L 55.660156 40.546875 L 55.957031 40.644531 L 56.089844 40.679688 L 56.222656 40.726562 L 56.320312 40.777344 L 56.402344 40.828125 L 55.859375 41.257812 L 56.007812 41.386719 L 56.1875 41.488281 L 56.417969 41.601562 L 56.652344 41.683594 L 56.914062 41.769531 L 57.164062 41.816406 L 57.378906 41.867188 L 57.574219 41.867188 L 57.394531 42 L 57.164062 42.148438 L 56.914062 42.28125 L 56.734375 42.414062 L 56.898438 42.527344 L 57.128906 42.644531 L 57.394531 42.773438 L 57.707031 42.925781 L 58.433594 43.238281 L 59.226562 43.550781 L 60.050781 43.847656 L 60.859375 44.113281 L 61.222656 44.226562 L 61.554688 44.308594 L 61.851562 44.394531 L 62.117188 44.441406 L 61.585938 44.394531 L 61.089844 44.328125 L 60.597656 44.246094 L 60.132812 44.144531 L 59.671875 44.011719 L 59.226562 43.882812 L 58.796875 43.734375 L 58.382812 43.566406 L 57.574219 43.238281 L 56.816406 42.90625 L 56.089844 42.609375 L 55.394531 42.347656 L 55.480469 42.296875 L 55.578125 42.261719 L 55.710938 42.214844 L 55.859375 42.179688 L 56.171875 42.082031 L 56.453125 41.984375 L 55.957031 41.898438 L 55.28125 41.769531 L 54.949219 41.667969 L 54.667969 41.585938 L 54.554688 41.539062 L 54.457031 41.488281 L 54.371094 41.4375 L 54.324219 41.386719 L 54.324219 41.371094 L 54.339844 41.355469 L 54.390625 41.339844 L 54.4375 41.304688 L 54.570312 41.257812 L 54.753906 41.207031 L 55.148438 41.089844 L 55.480469 40.976562 L 54.667969 40.828125 L 54.042969 40.726562 L 53.8125 40.679688 L 53.628906 40.613281 L 53.5625 40.578125 L 53.496094 40.53125 L 53.449219 40.496094 L 53.414062 40.449219 L 53.464844 40.414062 L 53.613281 40.382812 L 53.828125 40.347656 L 54.074219 40.300781 L 54.339844 40.265625 L 54.570312 40.199219 L 54.6875 40.167969 L 54.785156 40.132812 L 54.851562 40.085938 L 54.917969 40.035156 L 54.652344 39.933594 L 54.324219 39.871094 L 53.945312 39.820312 L 53.5625 39.769531 L 53.367188 39.722656 L 53.183594 39.6875 L 53.003906 39.621094 L 52.820312 39.554688 L 52.65625 39.472656 L 52.507812 39.359375 L 52.375 39.242188 L 52.277344 39.09375 L 52.308594 39.078125 L 52.375 39.058594 L 52.457031 39.058594 L 52.589844 39.078125 L 52.886719 39.09375 L 53.214844 39.109375 L 53.582031 39.144531 L 54.042969 39.144531 L 54.175781 39.128906 L 54.273438 39.09375 L 54.339844 39.058594 L 53.945312 38.894531 L 53.414062 38.664062 L 53.117188 38.515625 L 52.804688 38.367188 L 52.492188 38.203125 L 52.175781 38.039062 L 51.878906 37.855469 L 51.597656 37.65625 L 51.335938 37.460938 L 51.105469 37.261719 L 51.003906 37.144531 L 50.90625 37.046875 L 50.839844 36.949219 L 50.773438 36.832031 L 50.707031 36.734375 L 50.675781 36.617188 L 50.660156 36.519531 L 50.640625 36.402344 L 50.757812 36.402344 L 50.890625 36.417969 L 51.019531 36.46875 L 51.152344 36.519531 L 51.417969 36.683594 L 51.714844 36.847656 L 51.847656 36.929688 L 51.996094 37.011719 L 52.144531 37.078125 L 52.277344 37.128906 L 52.425781 37.164062 L 52.554688 37.179688 L 52.707031 37.179688 L 52.835938 37.128906 L 52.441406 36.832031 L 51.996094 36.453125 L 51.484375 36.007812 L 50.972656 35.511719 L 50.460938 34.984375 L 49.980469 34.453125 L 49.765625 34.175781 L 49.550781 33.910156 L 49.371094 33.644531 L 49.207031 33.398438 L 49.171875 33.332031 L 49.171875 33.214844 L 49.1875 33.167969 L 49.207031 33.117188 L 49.253906 33.085938 L 49.304688 33.035156 L 49.355469 33.003906 L 49.484375 32.96875 L 49.617188 32.96875 L 49.699219 32.984375 L 49.765625 33.003906 L 49.832031 33.050781 L 50.527344 33.746094 L 50.890625 34.125 L 51.285156 34.503906 L 51.679688 34.851562 L 52.078125 35.179688 L 52.277344 35.3125 L 52.457031 35.429688 L 52.65625 35.527344 L 52.835938 35.59375 L 52.707031 35.511719 L 52.359375 35.164062 L 52.144531 34.917969 L 51.664062 34.339844 L 51.136719 33.664062 L 50.871094 33.300781 L 50.625 32.933594 L 50.394531 32.574219 L 50.164062 32.226562 L 49.964844 31.894531 L 49.800781 31.597656 L 49.683594 31.316406 L 49.585938 31.085938 L 49.570312 31.003906 L 49.570312 30.871094 L 49.585938 30.824219 L 49.617188 30.773438 L 49.652344 30.722656 L 49.683594 30.691406 L 49.734375 30.65625 L 49.847656 30.625 L 49.949219 30.589844 L 50.179688 30.589844 L 50.246094 30.609375 L 50.292969 30.625 L 50.359375 30.65625 L 50.410156 30.707031 L 50.542969 30.824219 L 50.675781 30.988281 L 50.972656 31.367188 L 51.285156 31.847656 L 51.648438 32.359375 L 52.027344 32.886719 L 52.226562 33.132812 L 52.425781 33.382812 L 52.640625 33.597656 L 52.871094 33.792969 L 52.589844 33.25 L 52.277344 32.621094 L 52.109375 32.273438 L 51.960938 31.929688 L 51.8125 31.566406 L 51.679688 31.203125 L 51.566406 30.824219 L 51.449219 30.460938 L 51.367188 30.097656 L 51.300781 29.734375 L 51.269531 29.386719 L 51.253906 29.054688 L 51.269531 28.890625 L 51.300781 28.59375 L 51.335938 28.445312 L 51.367188 28.394531 L 51.382812 28.347656 L 51.433594 28.296875 L 51.464844 28.261719 L 51.582031 28.214844 L 51.699219 28.179688 L 51.8125 28.179688 L 51.914062 28.199219 L 51.960938 28.214844 L 51.996094 28.230469 L 52.011719 28.261719 L 52.027344 28.3125 L 52.195312 28.839844 L 52.339844 29.402344 L 52.492188 29.980469 L 52.640625 30.542969 L 52.789062 31.101562 L 52.984375 31.632812 L 53.085938 31.878906 L 53.199219 32.128906 L 53.332031 32.359375 L 53.480469 32.589844 L 53.382812 32.109375 L 53.316406 31.679688 L 53.25 31.285156 L 53.214844 30.921875 L 53.183594 30.609375 L 53.167969 30.328125 L 53.183594 30.097656 L 53.199219 29.898438 L 53.234375 29.734375 L 53.28125 29.601562 L 53.316406 29.550781 L 53.347656 29.503906 L 53.382812 29.46875 L 53.429688 29.433594 L 53.480469 29.417969 L 53.628906 29.417969 L 53.761719 29.46875 L 53.894531 29.535156 L 54.007812 30.0625 L 54.125 30.574219 L 54.257812 31.054688 L 54.40625 31.515625 L 54.570312 31.976562 L 54.753906 32.441406 L 54.949219 32.917969 L 55.179688 33.398438 L 55.347656 33.710938 L 55.511719 34.023438 L 55.695312 34.339844 L 55.875 34.652344 L 56.269531 35.246094 L 56.699219 35.839844 L 57.097656 36.335938 L 57.507812 36.800781 L 57.9375 37.261719 L 58.382812 37.691406 L 58.847656 38.121094 L 59.324219 38.515625 L 59.820312 38.894531 L 60.332031 39.257812 L 60.679688 39.488281 L 61.042969 39.703125 L 61.421875 39.917969 L 61.785156 40.117188 L 62.363281 40.398438 L 62.925781 40.664062 L 63.519531 40.894531 L 64.113281 41.109375 L 64.675781 41.289062 L 65.253906 41.4375 L 65.847656 41.570312 L 66.425781 41.683594 L 67.035156 41.769531 L 67.628906 41.835938 L 68.242188 41.882812 Z M 68.851562 41.917969 "/>
<path style=" stroke:none;fill-rule:evenodd;fill:rgb(99.606323%,77.253723%,4.705811%);fill-opacity:1;" d="M 70.355469 46.933594 L 70.636719 46.96875 L 70.769531 47.019531 L 70.800781 47.035156 L 70.800781 47.050781 L 70.769531 47.050781 L 70.734375 47.066406 L 70.472656 47.117188 L 70.257812 47.117188 L 69.5625 47.066406 L 68.722656 47.050781 L 67.8125 47.035156 L 66.871094 47.050781 L 66.425781 47.066406 L 65.980469 47.101562 L 65.585938 47.132812 L 65.203125 47.167969 L 64.890625 47.214844 L 64.609375 47.28125 L 64.511719 47.316406 L 64.410156 47.347656 L 64.328125 47.382812 L 64.261719 47.429688 L 64.296875 47.265625 L 64.363281 47.101562 L 64.246094 47.132812 L 64.132812 47.167969 L 64.03125 47.214844 L 63.933594 47.265625 L 63.851562 47.316406 L 63.785156 47.382812 L 63.734375 47.464844 L 63.71875 47.546875 L 63.667969 47.429688 L 63.636719 47.332031 L 63.621094 47.214844 L 63.601562 47.117188 L 63.621094 47.035156 L 63.636719 46.933594 L 63.652344 46.851562 L 63.703125 46.769531 L 63.734375 46.703125 L 63.800781 46.621094 L 63.933594 46.488281 L 64.113281 46.375 L 64.3125 46.257812 C 64.417969 46.324219 64.539062 46.371094 64.660156 46.40625 C 64.761719 46.421875 64.886719 46.402344 65.007812 46.375 C 65.207031 46.550781 65.476562 46.53125 65.648438 46.339844 C 65.679688 46.308594 65.71875 46.253906 65.730469 46.210938 C 65.757812 46.113281 65.753906 45.988281 65.730469 45.878906 L 65.929688 45.863281 L 66.160156 45.828125 L 66.410156 45.761719 L 66.675781 45.699219 L 66.9375 45.648438 L 67.183594 45.582031 L 67.417969 45.550781 L 67.613281 45.53125 L 67.53125 45.597656 L 67.335938 45.746094 L 67.101562 45.929688 L 66.9375 46.042969 L 67.152344 46.09375 L 67.335938 46.128906 L 67.203125 46.273438 L 66.9375 46.574219 L 66.839844 46.703125 L 66.972656 46.753906 L 67.101562 46.789062 L 67.25 46.820312 L 67.550781 46.820312 L 67.695312 46.789062 L 67.847656 46.753906 L 67.960938 46.6875 L 68.09375 46.753906 L 68.226562 46.804688 L 68.488281 46.871094 L 68.785156 46.902344 L 69.101562 46.933594 Z M 70.355469 46.933594 "/>
<path style=" stroke:none;fill-rule:evenodd;fill:rgb(99.606323%,77.253723%,4.705811%);fill-opacity:1;" d="M 65.285156 45.996094 L 65.386719 46.027344 L 65.417969 46.128906 L 65.402344 46.175781 L 65.386719 46.226562 L 65.335938 46.257812 L 65.222656 46.257812 L 65.1875 46.226562 L 65.152344 46.175781 L 65.136719 46.128906 L 65.152344 46.078125 L 65.1875 46.027344 L 65.222656 46.011719 Z M 65.285156 45.996094 "/>
<path style=" stroke:none;fill-rule:evenodd;fill:rgb(99.606323%,77.253723%,4.705811%);fill-opacity:1;" d="M 65.269531 46.058594 L 65.300781 46.078125 L 65.316406 46.109375 L 65.300781 46.144531 L 65.269531 46.160156 L 65.234375 46.144531 L 65.21875 46.109375 L 65.234375 46.078125 Z M 65.269531 46.058594 "/>
<path style=" stroke:none;fill-rule:evenodd;fill:rgb(99.606323%,77.253723%,4.705811%);fill-opacity:1;" d="M 65.28125 46.289062 C 65.195312 46.289062 65.128906 46.21875 65.128906 46.136719 C 65.128906 46.054688 65.195312 45.984375 65.28125 45.984375 C 65.363281 45.984375 65.429688 46.054688 65.429688 46.136719 C 65.429688 46.21875 65.363281 46.289062 65.28125 46.289062 Z M 65.28125 46.289062 "/>
<path style=" stroke:none;fill-rule:evenodd;fill:rgb(99.606323%,77.253723%,4.705811%);fill-opacity:1;" d="M 77.582031 47.746094 L 77.464844 47.792969 L 77.351562 47.808594 L 77.25 47.828125 L 77.167969 47.808594 L 77.085938 47.792969 L 77.003906 47.761719 L 76.9375 47.726562 L 76.855469 47.679688 L 76.722656 47.578125 L 76.589844 47.480469 L 76.523438 47.429688 L 76.441406 47.398438 L 76.375 47.382812 L 76.292969 47.382812 L 76.144531 47.695312 L 75.945312 48.089844 L 75.878906 48.191406 L 75.816406 48.273438 L 75.746094 48.324219 L 75.683594 48.371094 L 75.601562 48.40625 L 75.515625 48.40625 L 75.433594 48.371094 L 75.335938 48.324219 L 75.300781 48.273438 L 75.269531 48.222656 L 75.238281 48.15625 L 75.203125 48.074219 L 75.171875 47.925781 L 75.152344 47.828125 L 75.054688 47.910156 L 74.957031 48.023438 L 74.871094 48.15625 L 74.773438 48.304688 L 74.660156 48.453125 L 74.476562 48.636719 L 74.394531 48.683594 L 74.3125 48.71875 L 74.210938 48.753906 L 74.164062 48.753906 L 74.082031 48.769531 L 73.996094 48.753906 L 73.933594 48.71875 L 73.734375 48.488281 L 73.519531 48.257812 L 73.371094 48.488281 L 73.207031 48.683594 L 73.039062 48.851562 L 72.957031 48.917969 L 72.875 48.964844 L 72.808594 49 L 72.726562 49.015625 L 72.644531 49.015625 L 72.578125 49 L 72.511719 48.964844 L 72.460938 48.917969 L 72.398438 48.835938 L 72.363281 48.734375 L 72.332031 48.636719 L 72.265625 48.472656 L 72.246094 48.386719 L 72.214844 48.324219 L 72.183594 48.289062 L 72.148438 48.289062 L 71.703125 49.015625 L 71.636719 49.082031 L 71.523438 49.132812 L 71.257812 49.199219 L 71.109375 49.199219 L 70.992188 49.164062 L 70.960938 49.148438 L 70.910156 49.097656 L 70.894531 49.066406 L 70.894531 49 L 70.960938 48.273438 L 70.910156 48.289062 L 70.84375 48.324219 L 70.777344 48.355469 L 70.710938 48.421875 L 70.582031 48.570312 L 70.433594 48.734375 L 70.28125 48.917969 L 70.101562 49.066406 L 69.9375 49.199219 L 69.835938 49.246094 L 69.753906 49.261719 L 69.640625 49.28125 L 69.558594 49.261719 L 69.523438 49.246094 L 69.492188 49.214844 L 69.476562 49.164062 L 69.476562 49.113281 L 69.492188 48.898438 L 69.523438 48.683594 L 69.539062 48.570312 L 69.507812 48.371094 L 69.441406 48.257812 L 69.34375 48.40625 L 69.175781 48.621094 L 68.980469 48.835938 L 68.765625 49.050781 L 68.535156 49.214844 L 68.433594 49.246094 L 68.351562 49.28125 L 68.320312 49.261719 L 68.269531 49.261719 L 68.21875 49.214844 L 68.1875 49.164062 L 68.171875 49.113281 L 68.171875 49.050781 L 68.152344 48.964844 L 68.171875 48.339844 L 67.757812 48.621094 L 67.261719 48.933594 L 67.148438 48.984375 L 67.015625 49.050781 L 66.898438 49.082031 L 66.769531 49.113281 L 66.652344 49.148438 L 66.535156 49.148438 L 66.421875 49.132812 L 66.320312 49.097656 L 66.371094 48.964844 L 66.421875 48.851562 L 66.46875 48.734375 L 66.601562 48.539062 L 66.667969 48.4375 L 66.832031 48.273438 L 67.015625 48.140625 L 67.230469 48.007812 L 67.445312 47.910156 L 67.691406 47.828125 L 67.941406 47.761719 L 68.21875 47.710938 L 68.5 47.664062 L 68.78125 47.628906 L 69.394531 47.597656 L 70.019531 47.578125 L 71.273438 47.578125 L 71.585938 47.5625 L 71.886719 47.546875 L 72.183594 47.53125 L 72.460938 47.496094 L 72.742188 47.449219 L 72.992188 47.398438 L 73.238281 47.332031 L 73.46875 47.234375 L 73.683594 47.132812 L 73.867188 47.003906 L 74.046875 46.871094 L 74.195312 46.6875 L 74.03125 46.359375 L 74.164062 46.339844 L 74.296875 46.308594 L 74.425781 46.242188 L 74.542969 46.160156 L 74.59375 46.128906 L 74.640625 46.078125 L 74.675781 46.011719 L 74.707031 45.960938 L 74.726562 45.894531 L 74.726562 45.78125 L 74.691406 45.714844 L 74.972656 45.664062 L 75.269531 45.632812 L 75.582031 45.613281 L 75.914062 45.613281 L 76.589844 45.648438 L 77.28125 45.699219 L 77.992188 45.78125 L 78.6875 45.847656 L 79.363281 45.914062 L 79.992188 45.945312 L 79.992188 46.175781 L 79.976562 46.273438 L 79.910156 46.472656 L 79.875 46.554688 L 79.824219 46.621094 L 79.761719 46.703125 L 79.644531 46.820312 L 79.496094 46.917969 L 79.347656 46.984375 L 79.183594 47.019531 L 79 47.050781 L 78.820312 47.035156 L 78.652344 47.019531 L 78.472656 46.96875 L 78.308594 46.886719 L 78.140625 46.804688 L 78.011719 46.6875 L 77.878906 46.554688 L 77.878906 46.835938 L 77.828125 47.199219 L 77.796875 47.382812 L 77.746094 47.546875 L 77.710938 47.613281 L 77.664062 47.664062 L 77.628906 47.710938 Z M 64.308594 46.191406 L 64.6875 46.359375 L 64.785156 46.273438 L 64.917969 46.175781 L 65.066406 46.09375 L 65.199219 46.011719 L 65.695312 45.8125 L 66.121094 45.613281 L 66.335938 45.53125 L 66.519531 45.433594 L 66.699219 45.335938 L 66.851562 45.234375 L 67.230469 44.988281 L 67.609375 44.738281 L 67.972656 44.507812 L 68.300781 44.277344 L 68.550781 44.078125 L 68.746094 43.898438 L 68.960938 43.699219 L 69.195312 43.484375 L 69.277344 43.402344 L 69.375 43.335938 L 69.492188 43.269531 L 69.621094 43.203125 L 69.902344 43.074219 L 70.183594 42.972656 L 70.566406 42.875 L 70.976562 42.773438 L 71.40625 42.691406 L 71.886719 42.609375 L 72.460938 42.542969 L 73.039062 42.460938 L 73.632812 42.394531 L 74.210938 42.296875 L 74.410156 42.261719 L 74.59375 42.214844 L 74.789062 42.164062 L 74.988281 42.113281 L 75.1875 41.867188 L 75.5 41.519531 L 75.714844 41.304688 L 75.960938 41.109375 L 76.242188 40.894531 L 76.574219 40.679688 L 77.070312 40.382812 L 77.597656 40.117188 L 78.140625 39.835938 L 78.667969 39.589844 L 79.164062 39.339844 L 79.628906 39.109375 L 80.007812 38.914062 L 80.304688 38.714844 L 80.386719 38.464844 L 80.503906 38.21875 L 80.652344 37.972656 L 80.832031 37.722656 L 81.03125 37.460938 L 81.277344 37.195312 L 81.542969 36.898438 L 81.871094 36.585938 L 82.167969 36.320312 L 82.484375 36.054688 L 82.648438 35.941406 L 82.816406 35.824219 L 83.175781 35.628906 L 83.359375 35.542969 L 83.539062 35.476562 L 83.738281 35.429688 L 83.917969 35.378906 L 84.117188 35.363281 L 84.300781 35.347656 L 84.496094 35.363281 L 84.679688 35.394531 L 84.664062 35.59375 L 84.613281 35.792969 L 84.546875 35.988281 L 84.464844 36.203125 L 84.347656 36.417969 L 84.199219 36.632812 L 84.019531 36.863281 L 83.804688 37.097656 L 83.96875 37.078125 L 84.117188 37.046875 L 84.234375 37.011719 L 84.347656 36.964844 L 84.449219 36.929688 L 84.5625 36.898438 L 84.710938 36.882812 L 84.878906 36.863281 L 84.894531 36.980469 L 84.894531 37.097656 L 84.878906 37.210938 L 84.84375 37.308594 L 84.792969 37.410156 L 84.730469 37.507812 L 84.664062 37.589844 L 84.582031 37.675781 L 84.234375 38.003906 L 83.886719 38.316406 L 84.085938 38.335938 L 84.300781 38.398438 L 84.515625 38.464844 L 84.679688 38.5 L 84.480469 38.648438 L 84.019531 38.945312 L 83.753906 39.09375 L 83.492188 39.242188 L 83.226562 39.40625 L 82.960938 39.589844 L 82.714844 39.789062 L 82.832031 39.804688 L 82.980469 39.871094 L 83.042969 39.886719 L 83.113281 39.917969 L 83.160156 39.933594 L 83.210938 39.917969 L 82.878906 40.101562 L 82.46875 40.300781 L 82.269531 40.398438 L 82.105469 40.496094 L 82.023438 40.546875 L 81.972656 40.597656 L 81.941406 40.644531 L 81.90625 40.695312 L 81.921875 40.761719 L 81.957031 40.808594 L 82.023438 40.859375 L 82.070312 40.910156 L 82.054688 40.976562 L 82.023438 41.023438 L 81.890625 41.125 L 81.742188 41.207031 L 81.542969 41.289062 L 81.34375 41.355469 L 81.164062 41.421875 L 81.03125 41.488281 L 80.933594 41.539062 L 81.261719 41.867188 L 81.148438 41.984375 L 81.03125 42.066406 L 80.933594 42.113281 L 80.816406 42.164062 L 80.585938 42.199219 L 80.273438 42.199219 L 80.304688 42.347656 L 80.355469 42.496094 L 80.417969 42.824219 L 80.140625 43.039062 L 79.792969 43.289062 L 79.414062 43.535156 L 78.984375 43.78125 L 78.738281 43.914062 L 78.488281 44.03125 L 78.226562 44.128906 L 77.945312 44.226562 L 77.648438 44.328125 L 77.332031 44.394531 L 77.003906 44.460938 L 76.65625 44.507812 L 77.265625 44.523438 L 77.792969 44.523438 L 78.289062 44.476562 L 78.738281 44.425781 L 79.148438 44.34375 L 79.511719 44.246094 L 79.875 44.113281 L 80.222656 43.980469 L 80.683594 43.765625 L 81.128906 43.519531 L 81.558594 43.253906 L 82.003906 42.988281 L 81.742188 42.859375 L 81.476562 42.773438 L 81.34375 42.726562 L 81.210938 42.660156 L 81.066406 42.59375 L 80.914062 42.511719 L 81.046875 42.414062 L 81.195312 42.347656 L 81.378906 42.28125 L 81.574219 42.230469 L 81.972656 42.148438 L 82.382812 42.097656 L 82.746094 42.050781 L 83.078125 42.015625 L 83.210938 41.984375 L 83.324219 41.949219 L 83.390625 41.917969 L 83.441406 41.867188 L 83.390625 41.816406 L 83.34375 41.800781 L 83.277344 41.769531 L 83.09375 41.734375 L 82.863281 41.703125 L 82.632812 41.683594 L 82.402344 41.652344 L 82.203125 41.601562 L 82.070312 41.554688 L 82.960938 41.355469 L 83.359375 41.273438 L 83.6875 41.191406 L 83.96875 41.109375 L 84.21875 41.007812 L 84.332031 40.960938 L 84.496094 40.859375 L 84.5625 40.792969 L 84.515625 40.746094 L 84.449219 40.726562 L 84.367188 40.710938 L 84.152344 40.695312 L 83.902344 40.695312 L 83.640625 40.679688 L 83.390625 40.664062 L 83.175781 40.628906 L 83.042969 40.597656 L 83.277344 40.496094 L 83.671875 40.382812 L 84.019531 40.28125 L 84.332031 40.199219 L 84.628906 40.101562 L 84.945312 40.003906 L 85.257812 39.871094 L 85.40625 39.789062 L 85.539062 39.703125 L 85.585938 39.65625 L 85.636719 39.589844 L 85.6875 39.539062 L 85.703125 39.488281 L 85.6875 39.441406 L 85.636719 39.40625 L 85.585938 39.390625 L 85.125 39.390625 L 84.910156 39.40625 L 84.613281 39.40625 L 84.53125 39.390625 L 84.464844 39.359375 L 84.398438 39.324219 L 85.058594 38.894531 L 85.667969 38.5 L 86.214844 38.152344 L 86.695312 37.824219 L 86.890625 37.65625 L 87.074219 37.492188 L 87.222656 37.328125 L 87.355469 37.164062 L 87.453125 36.980469 L 87.535156 36.800781 L 87.585938 36.601562 L 87.585938 36.386719 L 87.46875 36.386719 L 87.355469 36.402344 L 87.089844 36.503906 L 86.824219 36.667969 L 86.542969 36.832031 L 86.398438 36.914062 L 86.265625 36.996094 L 86.117188 37.0625 L 85.96875 37.113281 L 85.835938 37.144531 L 85.703125 37.164062 L 85.554688 37.164062 L 85.421875 37.113281 L 85.820312 36.816406 L 86.265625 36.433594 L 86.777344 35.988281 L 87.289062 35.496094 L 87.800781 34.964844 L 88.277344 34.4375 L 88.492188 34.15625 L 88.707031 33.894531 L 88.890625 33.628906 L 89.054688 33.382812 L 89.085938 33.316406 L 89.105469 33.265625 L 89.085938 33.199219 L 89.070312 33.148438 L 89.054688 33.101562 L 89.003906 33.066406 L 88.957031 33.019531 L 88.90625 33.003906 L 88.839844 32.96875 L 88.773438 32.953125 L 88.640625 32.953125 L 88.574219 32.96875 L 88.492188 32.984375 L 88.445312 33.035156 L 88.378906 33.085938 L 88.082031 33.382812 L 87.734375 33.726562 L 87.371094 34.109375 L 86.972656 34.488281 L 86.578125 34.835938 L 86.183594 35.164062 L 85.984375 35.296875 L 85.800781 35.414062 L 85.605469 35.511719 L 85.4375 35.59375 L 85.554688 35.496094 L 85.902344 35.148438 L 86.117188 34.898438 L 86.59375 34.324219 L 87.121094 33.644531 L 87.386719 33.28125 L 87.632812 32.917969 L 87.882812 32.574219 L 88.097656 32.210938 L 88.292969 31.878906 L 88.460938 31.582031 L 88.59375 31.300781 L 88.675781 31.070312 L 88.691406 30.988281 L 88.691406 30.855469 L 88.675781 30.804688 L 88.640625 30.757812 L 88.609375 30.707031 L 88.574219 30.675781 L 88.527344 30.65625 L 88.425781 30.609375 L 88.3125 30.574219 L 88.082031 30.574219 L 88.015625 30.589844 L 87.964844 30.609375 L 87.898438 30.640625 L 87.847656 30.691406 L 87.71875 30.804688 L 87.585938 30.972656 L 87.289062 31.351562 L 86.972656 31.828125 L 86.628906 32.339844 L 86.246094 32.871094 L 86.035156 33.117188 L 85.835938 33.363281 L 85.621094 33.578125 L 85.390625 33.777344 L 85.6875 33.234375 L 85.984375 32.605469 L 86.148438 32.257812 L 86.296875 31.914062 L 86.445312 31.550781 L 86.578125 31.183594 L 86.695312 30.804688 L 86.808594 30.441406 L 86.890625 30.078125 L 86.957031 29.71875 L 86.992188 29.371094 L 87.007812 29.039062 L 86.992188 28.875 L 86.972656 28.726562 L 86.957031 28.578125 L 86.925781 28.429688 L 86.910156 28.378906 L 86.875 28.328125 L 86.792969 28.246094 L 86.675781 28.199219 L 86.5625 28.164062 L 86.445312 28.164062 L 86.347656 28.179688 L 86.3125 28.199219 L 86.265625 28.214844 L 86.246094 28.246094 L 86.230469 28.296875 L 86.066406 28.839844 L 85.917969 29.386719 L 85.769531 29.964844 L 85.621094 30.523438 L 85.472656 31.085938 L 85.273438 31.613281 L 85.175781 31.878906 L 85.058594 32.109375 L 84.925781 32.359375 L 84.777344 32.574219 L 84.878906 32.09375 L 84.945312 31.664062 L 85.007812 31.269531 L 85.042969 30.90625 L 85.074219 30.589844 L 85.09375 30.308594 L 85.074219 30.078125 L 85.058594 29.882812 L 85.027344 29.71875 L 84.976562 29.585938 L 84.945312 29.535156 L 84.910156 29.484375 L 84.878906 29.453125 L 84.828125 29.433594 L 84.777344 29.417969 L 84.730469 29.402344 L 84.679688 29.402344 L 84.628906 29.417969 L 84.496094 29.453125 L 84.367188 29.519531 L 84.25 30.046875 L 84.132812 30.558594 L 84.003906 31.039062 L 83.855469 31.5 L 83.6875 31.960938 L 83.507812 32.425781 L 83.308594 32.902344 L 83.078125 33.382812 L 82.914062 33.695312 L 82.746094 34.007812 L 82.566406 34.324219 L 82.382812 34.636719 L 81.988281 35.230469 L 81.558594 35.824219 L 81.164062 36.320312 L 80.75 36.78125 L 80.320312 37.246094 L 79.875 37.675781 L 79.414062 38.101562 L 78.933594 38.5 L 78.441406 38.878906 L 77.925781 39.242188 L 77.582031 39.472656 L 77.21875 39.703125 L 76.492188 40.132812 L 75.335938 40.664062 L 74.742188 40.878906 L 74.148438 41.089844 L 73.15625 41.386719 L 72.132812 41.621094 L 71.621094 41.703125 L 71.09375 41.769531 L 70.582031 41.835938 L 70.050781 41.867188 L 70.003906 41.882812 L 69.953125 41.898438 L 69.855469 41.949219 L 69.738281 42.03125 L 69.574219 42.179688 L 69.359375 42.378906 L 69.09375 42.644531 L 68.78125 42.988281 L 68.484375 43.335938 L 68.136719 43.71875 L 67.957031 43.898438 L 67.773438 44.078125 L 67.558594 44.246094 L 67.34375 44.410156 L 67.179688 44.523438 L 67.015625 44.625 L 66.832031 44.707031 L 66.652344 44.789062 L 66.253906 44.953125 L 65.859375 45.101562 L 65.460938 45.253906 L 65.117188 45.382812 L 64.96875 45.449219 L 64.820312 45.53125 L 64.6875 45.597656 L 64.585938 45.664062 L 64.40625 45.847656 L 64.355469 45.929688 L 64.324219 46.011719 L 64.308594 46.128906 Z M 64.308594 46.191406 "/>
<path style="fill-rule:evenodd;fill:rgb(99.606323%,77.253723%,4.705811%);fill-opacity:1;stroke-width:0.0244015;stroke-linecap:butt;stroke-linejoin:miter;stroke:rgb(0%,68.626404%,79.214478%);stroke-opacity:1;stroke-miterlimit:4;" d="M 65.269531 46.175781 C 65.234375 46.175781 65.207031 46.148438 65.207031 46.113281 C 65.207031 46.078125 65.234375 46.050781 65.269531 46.050781 C 65.300781 46.050781 65.328125 46.078125 65.328125 46.113281 C 65.328125 46.148438 65.300781 46.175781 65.269531 46.175781 Z M 65.269531 46.175781 "/>
<path style=" stroke:none;fill-rule:evenodd;fill:rgb(99.606323%,77.253723%,4.705811%);fill-opacity:1;" d="M 7.679688 59.332031 C 7.679688 59.332031 7.066406 59.851562 6.855469 59.589844 C 6.519531 59.175781 7.886719 57.097656 7.886719 56.367188 C 7.886719 55.164062 7.085938 54.839844 6.097656 54.667969 C 5.433594 54.550781 4.355469 54.714844 4.355469 54.714844 C 4.558594 54.988281 4.691406 55.070312 5.035156 55.089844 C 4.652344 55.289062 4.261719 55.71875 4.261719 56.386719 C 4.261719 57.421875 4.6875 57.847656 4.6875 59.011719 C 4.6875 59.65625 4.160156 60.480469 4.160156 60.480469 C 5.09375 60.386719 5.558594 59.519531 5.292969 58.828125 C 5.441406 58.804688 5.578125 58.839844 5.695312 58.949219 C 5.761719 58.757812 5.65625 58.535156 5.511719 58.339844 C 5.628906 58.277344 5.710938 58.316406 5.898438 58.355469 C 5.882812 58.15625 5.761719 57.945312 5.472656 57.75 C 6.3125 57.96875 6.832031 57.382812 6.832031 56.769531 C 6.832031 56.304688 6.507812 55.972656 6.1875 55.972656 C 6.085938 55.972656 5.933594 56.011719 5.851562 56.078125 C 5.789062 55.949219 5.820312 55.777344 5.882812 55.648438 C 5.648438 55.710938 5.503906 55.851562 5.605469 56.136719 C 5.429688 56.15625 5.285156 56.214844 5.191406 56.332031 C 5.289062 56.457031 5.4375 56.527344 5.605469 56.523438 C 5.476562 56.789062 5.621094 56.941406 5.835938 57.0625 C 5.835938 57.0625 5.699219 56.523438 6.042969 56.523438 C 6.199219 56.523438 6.339844 56.574219 6.339844 56.800781 C 6.339844 57 6.164062 57.273438 5.765625 57.253906 C 5.363281 57.238281 5.039062 56.980469 5.039062 56.339844 C 5.039062 55.75 5.515625 55.457031 6.140625 55.4375 C 6.707031 55.421875 7.132812 55.726562 7.132812 56.308594 C 7.132812 57.085938 6.011719 58.855469 6.011719 59.546875 C 6.011719 60.066406 6.480469 60.355469 6.9375 60.355469 C 7.527344 60.355469 8.027344 59.769531 8.027344 59.769531 Z M 7.679688 59.332031 "/>
<path style=" stroke:none;fill-rule:evenodd;fill:rgb(99.606323%,77.253723%,4.705811%);fill-opacity:1;" d="M 7.550781 45.304688 C 7.550781 44.007812 8.714844 43.339844 9.628906 43.339844 C 10.863281 43.339844 11.519531 44.074219 11.519531 45.042969 C 11.519531 45.589844 11.417969 45.933594 11.167969 46.457031 C 11.167969 46.457031 9.132812 50.683594 8.339844 52.320312 C 8.242188 52.523438 8.210938 52.757812 8.210938 53.097656 C 8.210938 53.625 8.722656 54.054688 9.257812 54.066406 C 9.742188 54.078125 10.273438 53.613281 10.273438 53.082031 C 10.273438 52.433594 9.941406 52.148438 9.597656 52.148438 C 9.171875 52.148438 9.003906 52.320312 9.003906 52.617188 C 9.003906 52.824219 9.101562 52.914062 9.246094 52.914062 C 9.609375 52.914062 9.507812 52.425781 9.507812 52.425781 C 9.6875 52.464844 9.835938 52.648438 9.753906 52.878906 C 9.882812 52.910156 10.007812 52.976562 10.105469 53.089844 C 10.007812 53.183594 9.894531 53.257812 9.753906 53.28125 C 9.835938 53.5625 9.722656 53.699219 9.476562 53.757812 C 9.527344 53.648438 9.527344 53.550781 9.511719 53.457031 C 9.125 53.566406 8.535156 53.390625 8.535156 52.722656 C 8.535156 52.058594 8.992188 51.5 9.855469 51.640625 C 9.652344 51.542969 9.546875 51.339844 9.527344 51.117188 C 9.683594 51.179688 9.855469 51.1875 9.855469 51.1875 C 9.757812 51.007812 9.617188 50.855469 9.621094 50.503906 C 9.78125 50.578125 9.929688 50.714844 10.136719 50.628906 C 9.8125 49.996094 10.210938 49.121094 11.214844 48.917969 C 10.847656 49.347656 10.667969 49.816406 10.667969 50.277344 C 10.667969 51.78125 11.085938 52.035156 11.085938 53.082031 C 11.085938 53.519531 10.859375 53.992188 10.414062 54.3125 L 10.414062 54.292969 C 10.707031 54.371094 10.898438 54.519531 11.007812 54.714844 C 10.332031 54.90625 9.355469 54.902344 8.828125 54.695312 C 8.226562 54.625 7.804688 54.164062 7.679688 53.925781 C 7.554688 53.691406 7.316406 52.84375 7.679688 52.078125 C 8.082031 51.238281 9.964844 47.242188 10.554688 45.984375 C 10.679688 45.71875 10.753906 45.433594 10.753906 45.128906 C 10.753906 44.359375 10.046875 44.089844 9.648438 44.089844 C 9.167969 44.089844 8.679688 44.457031 8.679688 44.910156 C 8.679688 45.199219 8.839844 45.371094 9.066406 45.371094 C 9.605469 45.371094 9.574219 44.914062 9.464844 44.621094 C 9.800781 44.773438 9.996094 45.042969 9.945312 45.328125 C 10.132812 45.355469 10.316406 45.445312 10.484375 45.636719 C 10.351562 45.800781 10.191406 45.925781 9.945312 45.933594 C 10.050781 46.375 9.753906 46.5625 9.464844 46.664062 C 9.558594 46.339844 9.617188 45.964844 9.066406 45.964844 C 8.660156 45.964844 8.34375 45.898438 8.160156 45.636719 C 8.148438 45.984375 8.117188 47.363281 8.117188 47.363281 C 8.089844 47.882812 8.808594 47.867188 9.265625 47.710938 C 9.09375 48.308594 8.738281 48.632812 7.925781 48.550781 C 8.121094 48.632812 8.332031 48.820312 8.332031 49.179688 C 8.332031 49.664062 7.9375 50.203125 7.679688 50.363281 Z M 7.550781 45.304688 "/>
<path style=" stroke:none;fill-rule:evenodd;fill:rgb(99.606323%,77.253723%,4.705811%);fill-opacity:1;" d="M 7.808594 45.304688 C 7.808594 44.007812 6.644531 43.339844 5.730469 43.339844 C 4.496094 43.339844 3.839844 44.074219 3.839844 45.042969 C 3.839844 45.589844 3.941406 45.933594 4.191406 46.457031 C 4.191406 46.457031 6.226562 50.683594 7.019531 52.320312 C 7.117188 52.523438 7.148438 52.757812 7.148438 53.097656 C 7.148438 53.625 6.636719 54.054688 6.105469 54.066406 C 5.617188 54.078125 5.085938 53.613281 5.085938 53.082031 C 5.085938 52.433594 5.421875 52.148438 5.765625 52.148438 C 6.1875 52.148438 6.355469 52.320312 6.355469 52.617188 C 6.355469 52.824219 6.257812 52.914062 6.113281 52.914062 C 5.75 52.914062 5.851562 52.425781 5.851562 52.425781 C 5.671875 52.464844 5.523438 52.648438 5.605469 52.878906 C 5.476562 52.910156 5.351562 52.976562 5.253906 53.089844 C 5.351562 53.183594 5.464844 53.257812 5.605469 53.28125 C 5.523438 53.5625 5.636719 53.699219 5.882812 53.757812 C 5.832031 53.648438 5.832031 53.550781 5.847656 53.457031 C 6.234375 53.566406 6.828125 53.390625 6.828125 52.722656 C 6.828125 52.058594 6.367188 51.5 5.503906 51.640625 C 5.707031 51.542969 5.8125 51.339844 5.835938 51.117188 C 5.675781 51.179688 5.503906 51.1875 5.503906 51.1875 C 5.605469 51.007812 5.742188 50.855469 5.738281 50.503906 C 5.578125 50.578125 5.429688 50.714844 5.222656 50.628906 C 5.546875 49.996094 5.152344 49.121094 4.144531 48.917969 C 4.511719 49.347656 4.695312 49.816406 4.695312 50.277344 C 4.695312 51.78125 4.273438 52.035156 4.273438 53.082031 C 4.273438 53.519531 4.5 53.992188 4.945312 54.3125 L 4.945312 54.292969 C 4.652344 54.371094 4.460938 54.519531 4.355469 54.714844 C 5.027344 54.90625 6.003906 54.902344 6.53125 54.695312 C 7.132812 54.625 7.554688 54.164062 7.679688 53.925781 C 7.804688 53.691406 8.046875 52.84375 7.679688 52.078125 C 7.28125 51.238281 5.394531 47.242188 4.804688 45.984375 C 4.683594 45.71875 4.605469 45.433594 4.605469 45.128906 C 4.605469 44.359375 5.3125 44.089844 5.710938 44.089844 C 6.191406 44.089844 6.679688 44.457031 6.679688 44.910156 C 6.679688 45.199219 6.523438 45.371094 6.296875 45.371094 C 5.753906 45.371094 5.789062 44.914062 5.894531 44.621094 C 5.558594 44.773438 5.363281 45.042969 5.414062 45.328125 C 5.226562 45.355469 5.042969 45.445312 4.875 45.636719 C 5.007812 45.800781 5.167969 45.925781 5.414062 45.933594 C 5.308594 46.375 5.605469 46.5625 5.894531 46.664062 C 5.804688 46.339844 5.742188 45.964844 6.296875 45.964844 C 6.699219 45.964844 7.015625 45.898438 7.199219 45.636719 C 7.210938 45.984375 7.246094 47.363281 7.246094 47.363281 C 7.269531 47.882812 6.550781 47.867188 6.09375 47.710938 C 6.269531 48.308594 6.621094 48.632812 7.4375 48.550781 C 7.238281 48.632812 7.027344 48.820312 7.027344 49.179688 C 7.027344 49.664062 7.421875 50.203125 7.679688 50.363281 Z M 7.808594 45.304688 "/>
<path style=" stroke:none;fill-rule:evenodd;fill:rgb(99.606323%,77.253723%,4.705811%);fill-opacity:1;" d="M 7.679688 59.332031 C 7.679688 59.332031 8.292969 59.851562 8.503906 59.589844 C 8.839844 59.175781 7.472656 57.097656 7.472656 56.367188 C 7.472656 55.164062 8.273438 54.839844 9.261719 54.667969 C 9.925781 54.550781 11.007812 54.714844 11.007812 54.714844 C 10.800781 54.988281 10.667969 55.070312 10.328125 55.089844 C 10.707031 55.289062 11.097656 55.71875 11.097656 56.386719 C 11.097656 57.421875 10.671875 57.847656 10.671875 59.011719 C 10.671875 59.65625 11.203125 60.480469 11.203125 60.480469 C 10.265625 60.386719 9.800781 59.519531 10.066406 58.828125 C 9.917969 58.804688 9.78125 58.839844 9.664062 58.949219 C 9.597656 58.757812 9.707031 58.535156 9.851562 58.339844 C 9.734375 58.277344 9.648438 58.316406 9.460938 58.355469 C 9.480469 58.15625 9.597656 57.945312 9.886719 57.75 C 9.046875 57.96875 8.527344 57.382812 8.527344 56.769531 C 8.527344 56.304688 8.851562 55.972656 9.171875 55.972656 C 9.273438 55.972656 9.425781 56.011719 9.507812 56.078125 C 9.570312 55.949219 9.539062 55.777344 9.476562 55.648438 C 9.710938 55.710938 9.855469 55.851562 9.753906 56.136719 C 9.929688 56.15625 10.074219 56.214844 10.171875 56.332031 C 10.070312 56.457031 9.925781 56.527344 9.753906 56.523438 C 9.882812 56.789062 9.738281 56.941406 9.527344 57.0625 C 9.527344 57.0625 9.660156 56.523438 9.316406 56.523438 C 9.164062 56.523438 9.023438 56.574219 9.023438 56.800781 C 9.023438 57 9.195312 57.273438 9.597656 57.253906 C 9.996094 57.238281 10.320312 56.980469 10.320312 56.339844 C 10.320312 55.75 9.84375 55.457031 9.21875 55.4375 C 8.652344 55.421875 8.226562 55.726562 8.226562 56.308594 C 8.226562 57.085938 9.347656 58.855469 9.347656 59.546875 C 9.347656 60.066406 8.878906 60.355469 8.421875 60.355469 C 7.832031 60.355469 7.332031 59.769531 7.332031 59.769531 Z M 7.679688 59.332031 "/>
<path style=" stroke:none;fill-rule:evenodd;fill:rgb(99.606323%,77.253723%,4.705811%);fill-opacity:1;" d="M 7.550781 22.589844 C 7.550781 21.292969 8.714844 20.625 9.628906 20.625 C 10.863281 20.625 11.519531 21.363281 11.519531 22.328125 C 11.519531 22.875 11.417969 23.214844 11.167969 23.742188 C 11.167969 23.742188 9.132812 27.972656 8.339844 29.605469 C 8.242188 29.808594 8.210938 30.042969 8.210938 30.382812 C 8.210938 30.910156 8.722656 31.339844 9.257812 31.351562 C 9.742188 31.363281 10.273438 30.898438 10.273438 30.367188 C 10.273438 29.71875 9.941406 29.429688 9.597656 29.429688 C 9.171875 29.429688 9.003906 29.605469 9.003906 29.902344 C 9.003906 30.109375 9.101562 30.199219 9.246094 30.199219 C 9.609375 30.199219 9.507812 29.710938 9.507812 29.710938 C 9.6875 29.75 9.835938 29.933594 9.753906 30.164062 C 9.882812 30.195312 10.007812 30.261719 10.105469 30.375 C 10.007812 30.46875 9.894531 30.542969 9.753906 30.566406 C 9.835938 30.847656 9.722656 30.984375 9.476562 31.042969 C 9.527344 30.933594 9.527344 30.835938 9.511719 30.742188 C 9.125 30.851562 8.535156 30.675781 8.535156 30.007812 C 8.535156 29.34375 8.992188 28.785156 9.855469 28.925781 C 9.652344 28.828125 9.546875 28.625 9.527344 28.402344 C 9.683594 28.460938 9.855469 28.472656 9.855469 28.472656 C 9.757812 28.292969 9.617188 28.140625 9.621094 27.789062 C 9.78125 27.863281 9.929688 27.996094 10.136719 27.914062 C 9.8125 27.277344 10.210938 26.410156 11.214844 26.203125 C 10.847656 26.632812 10.667969 27.101562 10.667969 27.5625 C 10.667969 29.066406 11.085938 29.320312 11.085938 30.367188 C 11.085938 30.804688 10.859375 31.277344 10.414062 31.597656 L 10.414062 31.578125 C 10.707031 31.660156 10.898438 31.804688 11.007812 32 C 10.332031 32.191406 9.355469 32.1875 8.828125 31.980469 C 8.226562 31.910156 7.804688 31.449219 7.679688 31.210938 C 7.554688 30.976562 7.316406 30.128906 7.679688 29.363281 C 8.082031 28.523438 9.964844 24.527344 10.554688 23.269531 C 10.679688 23.003906 10.753906 22.71875 10.753906 22.414062 C 10.753906 21.644531 10.046875 21.375 9.648438 21.375 C 9.167969 21.375 8.679688 21.742188 8.679688 22.195312 C 8.679688 22.484375 8.839844 22.660156 9.066406 22.660156 C 9.605469 22.660156 9.574219 22.199219 9.464844 21.90625 C 9.800781 22.058594 9.996094 22.328125 9.945312 22.613281 C 10.132812 22.640625 10.316406 22.730469 10.484375 22.917969 C 10.351562 23.085938 10.191406 23.210938 9.945312 23.214844 C 10.050781 23.660156 9.753906 23.847656 9.464844 23.949219 C 9.558594 23.625 9.617188 23.253906 9.066406 23.253906 C 8.660156 23.253906 8.34375 23.183594 8.160156 22.917969 C 8.148438 23.269531 8.117188 24.648438 8.117188 24.648438 C 8.089844 25.167969 8.808594 25.152344 9.265625 24.996094 C 9.09375 25.59375 8.738281 25.917969 7.925781 25.835938 C 8.121094 25.917969 8.332031 26.105469 8.332031 26.464844 C 8.332031 26.949219 7.9375 27.488281 7.679688 27.648438 Z M 7.550781 22.589844 "/>
<path style=" stroke:none;fill-rule:evenodd;fill:rgb(99.606323%,77.253723%,4.705811%);fill-opacity:1;" d="M 7.808594 22.589844 C 7.808594 21.292969 6.644531 20.625 5.730469 20.625 C 4.496094 20.625 3.839844 21.363281 3.839844 22.328125 C 3.839844 22.875 3.941406 23.214844 4.191406 23.742188 C 4.191406 23.742188 6.226562 27.972656 7.019531 29.605469 C 7.117188 29.808594 7.148438 30.042969 7.148438 30.382812 C 7.148438 30.910156 6.636719 31.339844 6.105469 31.351562 C 5.617188 31.363281 5.085938 30.898438 5.085938 30.367188 C 5.085938 29.71875 5.421875 29.429688 5.765625 29.429688 C 6.1875 29.429688 6.355469 29.605469 6.355469 29.902344 C 6.355469 30.109375 6.257812 30.199219 6.113281 30.199219 C 5.75 30.199219 5.851562 29.710938 5.851562 29.710938 C 5.671875 29.75 5.523438 29.933594 5.605469 30.164062 C 5.476562 30.195312 5.351562 30.261719 5.253906 30.375 C 5.351562 30.46875 5.464844 30.542969 5.605469 30.566406 C 5.523438 30.847656 5.636719 30.984375 5.882812 31.042969 C 5.832031 30.933594 5.832031 30.835938 5.847656 30.742188 C 6.234375 30.851562 6.828125 30.675781 6.828125 30.007812 C 6.828125 29.34375 6.367188 28.785156 5.503906 28.925781 C 5.707031 28.828125 5.8125 28.625 5.835938 28.402344 C 5.675781 28.460938 5.503906 28.472656 5.503906 28.472656 C 5.605469 28.292969 5.742188 28.140625 5.738281 27.789062 C 5.578125 27.863281 5.429688 27.996094 5.222656 27.914062 C 5.546875 27.277344 5.152344 26.410156 4.144531 26.203125 C 4.511719 26.632812 4.695312 27.101562 4.695312 27.5625 C 4.695312 29.066406 4.273438 29.320312 4.273438 30.367188 C 4.273438 30.804688 4.5 31.277344 4.945312 31.597656 L 4.945312 31.578125 C 4.652344 31.660156 4.460938 31.804688 4.355469 32 C 5.027344 32.191406 6.003906 32.1875 6.53125 31.980469 C 7.132812 31.910156 7.554688 31.449219 7.679688 31.210938 C 7.804688 30.976562 8.046875 30.128906 7.679688 29.363281 C 7.28125 28.523438 5.394531 24.527344 4.804688 23.269531 C 4.683594 23.003906 4.605469 22.71875 4.605469 22.414062 C 4.605469 21.644531 5.3125 21.375 5.710938 21.375 C 6.191406 21.375 6.679688 21.742188 6.679688 22.195312 C 6.679688 22.484375 6.523438 22.660156 6.296875 22.660156 C 5.753906 22.660156 5.789062 22.199219 5.894531 21.90625 C 5.558594 22.058594 5.363281 22.328125 5.414062 22.613281 C 5.226562 22.640625 5.042969 22.730469 4.875 22.917969 C 5.007812 23.085938 5.167969 23.210938 5.414062 23.214844 C 5.308594 23.660156 5.605469 23.847656 5.894531 23.949219 C 5.804688 23.625 5.742188 23.253906 6.296875 23.253906 C 6.699219 23.253906 7.015625 23.183594 7.199219 22.917969 C 7.210938 23.269531 7.246094 24.648438 7.246094 24.648438 C 7.269531 25.167969 6.550781 25.152344 6.09375 24.996094 C 6.269531 25.59375 6.621094 25.917969 7.4375 25.835938 C 7.238281 25.917969 7.027344 26.105469 7.027344 26.464844 C 7.027344 26.949219 7.421875 27.488281 7.679688 27.648438 Z M 7.808594 22.589844 "/>
<path style=" stroke:none;fill-rule:evenodd;fill:rgb(99.606323%,77.253723%,4.705811%);fill-opacity:1;" d="M 7.808594 18.695312 C 7.808594 19.992188 6.644531 20.660156 5.730469 20.660156 C 4.496094 20.660156 3.839844 19.925781 3.839844 18.957031 C 3.839844 18.410156 3.941406 18.066406 4.191406 17.542969 C 4.191406 17.542969 6.226562 13.316406 7.019531 11.679688 C 7.117188 11.476562 7.148438 11.242188 7.148438 10.902344 C 7.148438 10.375 6.636719 9.945312 6.105469 9.933594 C 5.617188 9.921875 5.085938 10.386719 5.085938 10.917969 C 5.085938 11.566406 5.421875 11.851562 5.765625 11.851562 C 6.1875 11.851562 6.355469 11.679688 6.355469 11.382812 C 6.355469 11.175781 6.257812 11.085938 6.113281 11.085938 C 5.75 11.085938 5.851562 11.574219 5.851562 11.574219 C 5.671875 11.535156 5.523438 11.351562 5.605469 11.121094 C 5.476562 11.089844 5.351562 11.023438 5.253906 10.910156 C 5.351562 10.816406 5.464844 10.742188 5.605469 10.71875 C 5.523438 10.4375 5.636719 10.300781 5.882812 10.242188 C 5.832031 10.351562 5.832031 10.449219 5.847656 10.542969 C 6.234375 10.433594 6.828125 10.609375 6.828125 11.277344 C 6.828125 11.941406 6.367188 12.5 5.503906 12.359375 C 5.707031 12.457031 5.8125 12.660156 5.835938 12.882812 C 5.675781 12.820312 5.503906 12.8125 5.503906 12.8125 C 5.605469 12.992188 5.742188 13.144531 5.738281 13.496094 C 5.578125 13.421875 5.429688 13.285156 5.222656 13.371094 C 5.546875 14.003906 5.152344 14.878906 4.144531 15.082031 C 4.511719 14.652344 4.695312 14.183594 4.695312 13.722656 C 4.695312 12.21875 4.273438 11.964844 4.273438 10.917969 C 4.273438 10.480469 4.5 10.007812 4.945312 9.6875 L 4.945312 9.707031 C 4.652344 9.628906 4.460938 9.480469 4.355469 9.285156 C 5.027344 9.09375 6.003906 9.097656 6.53125 9.304688 C 7.132812 9.375 7.554688 9.835938 7.679688 10.074219 C 7.804688 10.308594 8.046875 11.15625 7.679688 11.921875 C 7.28125 12.761719 5.394531 16.757812 4.804688 18.015625 C 4.683594 18.28125 4.605469 18.566406 4.605469 18.871094 C 4.605469 19.640625 5.3125 19.910156 5.710938 19.910156 C 6.191406 19.910156 6.679688 19.542969 6.679688 19.089844 C 6.679688 18.800781 6.523438 18.628906 6.296875 18.628906 C 5.753906 18.628906 5.789062 19.085938 5.894531 19.378906 C 5.558594 19.226562 5.363281 18.957031 5.414062 18.671875 C 5.226562 18.644531 5.042969 18.554688 4.875 18.363281 C 5.007812 18.199219 5.167969 18.074219 5.414062 18.066406 C 5.308594 17.625 5.605469 17.4375 5.894531 17.335938 C 5.804688 17.660156 5.742188 18.035156 6.296875 18.035156 C 6.699219 18.035156 7.015625 18.101562 7.199219 18.363281 C 7.210938 18.015625 7.246094 16.636719 7.246094 16.636719 C 7.269531 16.117188 6.550781 16.132812 6.09375 16.289062 C 6.269531 15.691406 6.621094 15.367188 7.4375 15.449219 C 7.238281 15.367188 7.027344 15.179688 7.027344 14.820312 C 7.027344 14.335938 7.421875 13.796875 7.679688 13.636719 Z M 7.808594 18.695312 "/>
<path style=" stroke:none;fill-rule:evenodd;fill:rgb(99.606323%,77.253723%,4.705811%);fill-opacity:1;" d="M 7.808594 41.410156 C 7.808594 42.707031 6.644531 43.375 5.730469 43.375 C 4.496094 43.375 3.839844 42.636719 3.839844 41.671875 C 3.839844 41.125 3.941406 40.785156 4.191406 40.257812 C 4.191406 40.257812 6.226562 36.027344 7.019531 34.394531 C 7.117188 34.191406 7.148438 33.957031 7.148438 33.617188 C 7.148438 33.089844 6.636719 32.660156 6.105469 32.648438 C 5.617188 32.636719 5.085938 33.101562 5.085938 33.632812 C 5.085938 34.28125 5.421875 34.570312 5.765625 34.570312 C 6.1875 34.570312 6.355469 34.394531 6.355469 34.097656 C 6.355469 33.890625 6.257812 33.800781 6.113281 33.800781 C 5.75 33.800781 5.851562 34.289062 5.851562 34.289062 C 5.671875 34.25 5.523438 34.066406 5.605469 33.835938 C 5.476562 33.804688 5.351562 33.738281 5.253906 33.625 C 5.351562 33.53125 5.464844 33.457031 5.605469 33.433594 C 5.523438 33.152344 5.636719 33.015625 5.882812 32.957031 C 5.832031 33.066406 5.832031 33.164062 5.847656 33.257812 C 6.234375 33.148438 6.828125 33.324219 6.828125 33.992188 C 6.828125 34.65625 6.367188 35.214844 5.503906 35.074219 C 5.707031 35.171875 5.8125 35.375 5.835938 35.597656 C 5.675781 35.539062 5.503906 35.527344 5.503906 35.527344 C 5.605469 35.707031 5.742188 35.859375 5.738281 36.210938 C 5.578125 36.136719 5.429688 36.003906 5.222656 36.085938 C 5.546875 36.722656 5.152344 37.589844 4.144531 37.796875 C 4.511719 37.367188 4.695312 36.898438 4.695312 36.4375 C 4.695312 34.933594 4.273438 34.679688 4.273438 33.632812 C 4.273438 33.195312 4.5 32.722656 4.945312 32.402344 L 4.945312 32.421875 C 4.652344 32.339844 4.460938 32.195312 4.355469 32 C 5.027344 31.808594 6.003906 31.8125 6.53125 32.019531 C 7.132812 32.089844 7.554688 32.550781 7.679688 32.789062 C 7.804688 33.023438 8.046875 33.871094 7.679688 34.636719 C 7.28125 35.476562 5.394531 39.472656 4.804688 40.730469 C 4.683594 40.996094 4.605469 41.28125 4.605469 41.585938 C 4.605469 42.355469 5.3125 42.625 5.710938 42.625 C 6.191406 42.625 6.679688 42.257812 6.679688 41.804688 C 6.679688 41.515625 6.523438 41.339844 6.296875 41.339844 C 5.753906 41.339844 5.789062 41.800781 5.894531 42.09375 C 5.558594 41.941406 5.363281 41.671875 5.414062 41.386719 C 5.226562 41.359375 5.042969 41.269531 4.875 41.082031 C 5.007812 40.914062 5.167969 40.789062 5.414062 40.785156 C 5.308594 40.339844 5.605469 40.152344 5.894531 40.050781 C 5.804688 40.375 5.742188 40.746094 6.296875 40.746094 C 6.699219 40.746094 7.015625 40.816406 7.199219 41.082031 C 7.210938 40.730469 7.246094 39.351562 7.246094 39.351562 C 7.269531 38.832031 6.550781 38.847656 6.09375 39.003906 C 6.269531 38.40625 6.621094 38.082031 7.4375 38.164062 C 7.238281 38.082031 7.027344 37.894531 7.027344 37.535156 C 7.027344 37.050781 7.421875 36.511719 7.679688 36.351562 Z M 7.808594 41.410156 "/>
<path style=" stroke:none;fill-rule:evenodd;fill:rgb(99.606323%,77.253723%,4.705811%);fill-opacity:1;" d="M 7.550781 41.410156 C 7.550781 42.707031 8.714844 43.375 9.628906 43.375 C 10.863281 43.375 11.519531 42.636719 11.519531 41.671875 C 11.519531 41.125 11.417969 40.785156 11.167969 40.257812 C 11.167969 40.257812 9.132812 36.027344 8.339844 34.394531 C 8.242188 34.191406 8.210938 33.957031 8.210938 33.617188 C 8.210938 33.089844 8.722656 32.660156 9.257812 32.648438 C 9.742188 32.636719 10.273438 33.101562 10.273438 33.632812 C 10.273438 34.28125 9.941406 34.570312 9.597656 34.570312 C 9.171875 34.570312 9.003906 34.394531 9.003906 34.097656 C 9.003906 33.890625 9.101562 33.800781 9.246094 33.800781 C 9.609375 33.800781 9.507812 34.289062 9.507812 34.289062 C 9.6875 34.25 9.835938 34.066406 9.753906 33.835938 C 9.882812 33.804688 10.007812 33.738281 10.105469 33.625 C 10.007812 33.53125 9.894531 33.457031 9.753906 33.433594 C 9.835938 33.152344 9.722656 33.015625 9.476562 32.957031 C 9.527344 33.066406 9.527344 33.164062 9.511719 33.257812 C 9.125 33.148438 8.535156 33.324219 8.535156 33.992188 C 8.535156 34.65625 8.992188 35.214844 9.855469 35.074219 C 9.652344 35.171875 9.546875 35.375 9.527344 35.597656 C 9.683594 35.539062 9.855469 35.527344 9.855469 35.527344 C 9.757812 35.707031 9.617188 35.859375 9.621094 36.210938 C 9.78125 36.136719 9.929688 36.003906 10.136719 36.085938 C 9.8125 36.722656 10.210938 37.589844 11.214844 37.796875 C 10.847656 37.367188 10.667969 36.898438 10.667969 36.4375 C 10.667969 34.933594 11.085938 34.679688 11.085938 33.632812 C 11.085938 33.195312 10.859375 32.722656 10.414062 32.402344 L 10.414062 32.421875 C 10.707031 32.339844 10.898438 32.195312 11.007812 32 C 10.332031 31.808594 9.355469 31.8125 8.828125 32.019531 C 8.226562 32.089844 7.804688 32.550781 7.679688 32.789062 C 7.554688 33.023438 7.316406 33.871094 7.679688 34.636719 C 8.082031 35.476562 9.964844 39.472656 10.554688 40.730469 C 10.679688 40.996094 10.753906 41.28125 10.753906 41.585938 C 10.753906 42.355469 10.046875 42.625 9.648438 42.625 C 9.167969 42.625 8.679688 42.257812 8.679688 41.804688 C 8.679688 41.515625 8.839844 41.339844 9.066406 41.339844 C 9.605469 41.339844 9.574219 41.800781 9.464844 42.09375 C 9.800781 41.941406 9.996094 41.671875 9.945312 41.386719 C 10.132812 41.359375 10.316406 41.269531 10.484375 41.082031 C 10.351562 40.914062 10.191406 40.789062 9.945312 40.785156 C 10.050781 40.339844 9.753906 40.152344 9.464844 40.050781 C 9.558594 40.375 9.617188 40.746094 9.066406 40.746094 C 8.660156 40.746094 8.34375 40.816406 8.160156 41.082031 C 8.148438 40.730469 8.117188 39.351562 8.117188 39.351562 C 8.089844 38.832031 8.808594 38.847656 9.265625 39.003906 C 9.09375 38.40625 8.738281 38.082031 7.925781 38.164062 C 8.121094 38.082031 8.332031 37.894531 8.332031 37.535156 C 8.332031 37.050781 7.9375 36.511719 7.679688 36.351562 Z M 7.550781 41.410156 "/>
<path style=" stroke:none;fill-rule:evenodd;fill:rgb(99.606323%,77.253723%,4.705811%);fill-opacity:1;" d="M 7.679688 4.667969 C 7.679688 4.667969 8.292969 4.148438 8.503906 4.410156 C 8.839844 4.824219 7.472656 6.902344 7.472656 7.632812 C 7.472656 8.835938 8.273438 9.160156 9.261719 9.332031 C 9.925781 9.449219 11.007812 9.285156 11.007812 9.285156 C 10.800781 9.011719 10.667969 8.929688 10.328125 8.910156 C 10.707031 8.710938 11.097656 8.28125 11.097656 7.613281 C 11.097656 6.578125 10.671875 6.152344 10.671875 4.988281 C 10.671875 4.34375 11.203125 3.519531 11.203125 3.519531 C 10.265625 3.613281 9.800781 4.480469 10.066406 5.171875 C 9.917969 5.195312 9.78125 5.160156 9.664062 5.050781 C 9.597656 5.242188 9.707031 5.464844 9.851562 5.660156 C 9.734375 5.722656 9.648438 5.683594 9.460938 5.644531 C 9.480469 5.84375 9.597656 6.054688 9.886719 6.25 C 9.046875 6.03125 8.527344 6.617188 8.527344 7.230469 C 8.527344 7.695312 8.851562 8.027344 9.171875 8.027344 C 9.273438 8.027344 9.425781 7.988281 9.507812 7.921875 C 9.570312 8.050781 9.539062 8.222656 9.476562 8.351562 C 9.710938 8.289062 9.855469 8.148438 9.753906 7.863281 C 9.929688 7.84375 10.074219 7.785156 10.171875 7.667969 C 10.070312 7.542969 9.925781 7.472656 9.753906 7.476562 C 9.882812 7.210938 9.738281 7.058594 9.527344 6.9375 C 9.527344 6.9375 9.660156 7.476562 9.316406 7.476562 C 9.164062 7.476562 9.023438 7.425781 9.023438 7.199219 C 9.023438 7 9.195312 6.726562 9.597656 6.746094 C 9.996094 6.761719 10.320312 7.019531 10.320312 7.660156 C 10.320312 8.25 9.84375 8.542969 9.21875 8.5625 C 8.652344 8.578125 8.226562 8.273438 8.226562 7.691406 C 8.226562 6.914062 9.347656 5.144531 9.347656 4.453125 C 9.347656 3.933594 8.878906 3.644531 8.421875 3.644531 C 7.832031 3.644531 7.332031 4.230469 7.332031 4.230469 Z M 7.679688 4.667969 "/>
<path style=" stroke:none;fill-rule:evenodd;fill:rgb(99.606323%,77.253723%,4.705811%);fill-opacity:1;" d="M 7.679688 4.667969 C 7.679688 4.667969 7.066406 4.148438 6.855469 4.410156 C 6.519531 4.824219 7.886719 6.902344 7.886719 7.632812 C 7.886719 8.835938 7.085938 9.160156 6.097656 9.332031 C 5.433594 9.449219 4.355469 9.285156 4.355469 9.285156 C 4.558594 9.011719 4.691406 8.929688 5.035156 8.910156 C 4.652344 8.710938 4.261719 8.28125 4.261719 7.613281 C 4.261719 6.578125 4.6875 6.152344 4.6875 4.988281 C 4.6875 4.34375 4.160156 3.519531 4.160156 3.519531 C 5.09375 3.613281 5.558594 4.480469 5.292969 5.171875 C 5.441406 5.195312 5.578125 5.160156 5.695312 5.050781 C 5.761719 5.242188 5.65625 5.464844 5.511719 5.660156 C 5.628906 5.722656 5.710938 5.683594 5.898438 5.644531 C 5.882812 5.84375 5.761719 6.054688 5.472656 6.25 C 6.3125 6.03125 6.832031 6.617188 6.832031 7.230469 C 6.832031 7.695312 6.507812 8.027344 6.1875 8.027344 C 6.085938 8.027344 5.933594 7.988281 5.851562 7.921875 C 5.789062 8.050781 5.820312 8.222656 5.882812 8.351562 C 5.648438 8.289062 5.503906 8.148438 5.605469 7.863281 C 5.429688 7.84375 5.285156 7.785156 5.191406 7.667969 C 5.289062 7.542969 5.4375 7.472656 5.605469 7.476562 C 5.476562 7.210938 5.621094 7.058594 5.835938 6.9375 C 5.835938 6.9375 5.699219 7.476562 6.042969 7.476562 C 6.199219 7.476562 6.339844 7.425781 6.339844 7.199219 C 6.339844 7 6.164062 6.726562 5.765625 6.746094 C 5.363281 6.761719 5.039062 7.019531 5.039062 7.660156 C 5.039062 8.25 5.515625 8.542969 6.140625 8.5625 C 6.707031 8.578125 7.132812 8.273438 7.132812 7.691406 C 7.132812 6.914062 6.011719 5.144531 6.011719 4.453125 C 6.011719 3.933594 6.480469 3.644531 6.9375 3.644531 C 7.527344 3.644531 8.027344 4.230469 8.027344 4.230469 Z M 7.679688 4.667969 "/>
</g>
</svg>
