<svg viewBox="0 0 1000 500" xmlns="http://www.w3.org/2000/svg"><path d="m0 0h1000v500h-1000z" fill="#00afca"/><g fill="#fec50c" fill-rule="evenodd"><path d="m58.992188 146.070312c0 10.132813 9.097656 15.339844 16.242187 15.339844 9.636719 0 14.761719-5.753906 14.761719-13.296875 0-4.273437-.78125-6.960937-2.75-11.042969 0 0-15.890625-33.050781-22.078125-45.828124-.773438-1.59375-1.015625-3.410157-1.015625-6.070313 0-4.109375 3.980468-7.46875 8.164062-7.566406 3.804688-.097657 7.957032 3.546875 7.957032 7.703125 0 5.046875-2.621094 7.292968-5.308594 7.292968-3.308594 0-4.628906-1.359374-4.628906-3.675781 0-1.621093.78125-2.320312 1.90625-2.320312 2.839843 0 2.042968 3.816406 2.042968 3.816406 1.40625-.308594 2.570313-1.75 1.902344-3.550781 1.035156-.226563 2.003906-.761719 2.761719-1.632813-.769531-.734375-1.640625-1.304687-2.761719-1.5.667969-2.195312-.21875-3.261719-2.140625-3.71875.390625.847657.398437 1.621094.269531 2.351563-3.019531-.851563-7.648437.515625-7.648437 5.730468 0 5.183594 3.597656 9.546876 10.34375 8.457032-1.613281.765625-2.425781 2.335937-2.589844 4.089844 1.222656-.476563 2.589844-.542969 2.589844-.542969-.789063 1.390625-1.890625 2.589843-1.839844 5.320312 1.253906-.566406 2.40625-1.625 4.011719-.957031-2.515625 4.949219.578125 11.757812 8.4375 13.367188-2.878906-3.375-4.289063-7.011719-4.289063-10.640626 0-11.746093 3.265625-13.722656 3.265625-21.886718 0-3.414063-1.757812-7.109375-5.234375-9.617188v.136719c2.296875-.617187 3.769531-1.746094 4.621094-3.285156-5.253906-1.496094-12.898437-1.464844-17.007813.148437-4.710937.542969-8.003906 4.164063-8.972656 6.003906-.96875 1.828126-2.859375 8.472657 0 14.453126 3.125 6.542968 17.851563 37.777343 22.441406 47.597656.976563 2.085937 1.570313 4.289062 1.570313 6.683594 0 6.011718-5.515625 8.113281-8.640625 8.113281-3.742188 0-7.550781-2.847657-7.550781-6.40625 0-2.253907 1.226562-3.613281 2.992187-3.613281 4.230469 0 3.972656 3.597656 3.125 5.859374 2.636719-1.179687 4.167969-3.296874 3.742188-5.515624 1.492187-.214844 2.917968-.914063 4.214844-2.394532-1.023438-1.300781-2.285157-2.277344-4.214844-2.320312.847656-3.449219-1.472656-4.914063-3.742188-5.726563.726563 2.539063 1.195313 5.460938-3.125 5.460938-3.148437 0-5.632812.542969-7.070312 2.585937-.089844-2.726562-.34375-13.5-.34375-13.5-.1875-4.046875 5.421875-3.929687 8.976562-2.726562-1.339844-4.664063-4.101562-7.1875-10.472656-6.550782 1.546875-.644531 3.199219-2.097656 3.199219-4.90625 0-3.792968-3.085938-8-5.101563-9.246093l-1.019531 39.527343zm0 0"/><path d="m555.144531 135.058594c3.929688.726562 5.890625-1.429688 6.476563-4.371094.773437-3.921875-.902344-23.671875-.902344-23.671875s-9.109375 17.601563-9.890625 21.523437c-.574219 2.945313.394531 5.738282 4.316406 6.519532zm0 0"/><path d="m569.476562 139.402344c3.71875 1.484375 6.050782-.25 7.199219-3.015625 1.53125-3.695313 3.746094-23.390625 3.746094-23.390625s-12.371094 15.488281-13.902344 19.179687c-1.148437 2.769531-.730469 5.699219 2.957031 7.226563zm0 0"/><path d="m582.691406 146.46875c3.351563 2.171875 5.980469.925781 7.648438-1.5625 2.222656-3.320312 8.226562-22.207031 8.226562-22.207031s-15.144531 12.773437-17.363281 16.09375c-1.667969 2.5-1.839844 5.453125 1.488281 7.675781zm0 0"/><path d="m594.269531 155.964844c2.859375 2.792968 5.6875 2.082031 7.804688-.03125 2.832031-2.824219 12.410156-20.183594 12.410156-20.183594s-17.355469 9.578125-20.179687 12.410156c-2.125 2.117188-2.863282 4.980469-.035157 7.804688zm0 0"/><path d="m603.769531 167.546875c2.261719 3.292969 5.175781 3.15625 7.671875 1.488281 3.320313-2.222656 16.097656-17.367187 16.097656-17.367187s-18.890624 6.007812-22.207031 8.226562c-2.492187 1.660157-3.785156 4.332031-1.5625 7.652344zm0 0"/><path d="m610.832031 180.761719c1.578125 3.667969 4.460938 4.101562 7.226563 2.953125 3.695312-1.53125 19.179687-13.898438 19.179687-13.898438s-19.691406 2.210938-23.386719 3.742188c-2.769531 1.148437-4.550781 3.507812-3.019531 7.203125zm0 0"/><path d="m615.175781 195.09375c.832031 3.914062 3.574219 4.890625 6.519531 4.3125 3.921876-.78125 21.527344-9.886719 21.527344-9.886719s-19.75-1.679687-23.675781-.90625c-2.9375.585938-5.144531 2.558594-4.371094 6.480469zm0 0"/><path d="m616.648438 210.003906c.050781 3.992188 2.550781 5.492188 5.550781 5.492188 3.996093 0 23.039062-5.492188 23.039062-5.492188s-19.042969-5.503906-23.039062-5.503906c-3 0-5.550781 1.507812-5.550781 5.503906zm0 0"/><path d="m615.175781 224.910156c-.722656 3.929688 1.433594 5.882813 4.371094 6.46875 3.925781.785156 23.675781-.894531 23.675781-.894531s-17.605468-9.105469-21.527344-9.886719c-2.945312-.585937-5.738281.390625-6.519531 4.3125zm0 0"/><path d="m610.832031 239.242188c-1.480469 3.710937.25 6.054687 3.019531 7.203124 3.695313 1.527344 23.386719 3.734376 23.386719 3.734376s-15.484375-12.363282-19.179687-13.890626c-2.765625-1.148437-5.695313-.742187-7.226563 2.953126zm0 0"/><path d="m603.769531 252.449219c-2.171875 3.351562-.929687 5.992187 1.5625 7.660156 3.316407 2.21875 22.207031 8.226563 22.207031 8.226563s-12.777343-15.15625-16.097656-17.375c-2.496094-1.660157-5.453125-1.832032-7.671875 1.488281zm0 0"/><path d="m594.269531 264.027344c-2.789062 2.867187-2.089843 5.691406.035157 7.8125 2.824218 2.828125 20.179687 12.40625 20.179687 12.40625s-9.578125-17.351563-12.410156-20.175782c-2.117188-2.125-4.980469-2.863281-7.804688-.042968zm0 0"/><path d="m582.691406 273.535156c-3.296875 2.261719-3.15625 5.175782-1.488281 7.667969 2.21875 3.324219 17.363281 16.101563 17.363281 16.101563s-6.003906-18.886719-8.226562-22.207032c-1.667969-2.496094-4.328125-3.785156-7.648438-1.5625zm0 0"/><path d="m569.476562 280.601562c-3.671874 1.566407-4.105468 4.457032-2.957031 7.222657 1.53125 3.695312 13.902344 19.183593 13.902344 19.183593s-2.214844-19.695312-3.746094-23.390624c-1.148437-2.765626-3.507812-4.546876-7.199219-3.015626zm0 0"/><path d="m497.789062 273.535156c-3.355468-2.179687-5.992187-.933594-7.660156 1.5625-2.222656 3.320313-8.230468 22.207032-8.230468 22.207032s15.15625-12.777344 17.367187-16.101563c1.667969-2.492187 1.839844-5.445313-1.476563-7.667969zm0 0"/><path d="m486.207031 264.027344c-2.867187-2.789063-5.691406-2.082032-7.8125.042968-2.824219 2.824219-12.402343 20.175782-12.402343 20.175782s17.347656-9.578125 20.171874-12.40625c2.125-2.121094 2.863282-4.976563.042969-7.8125zm0 0"/><path d="m476.699219 252.449219c-2.261719-3.296875-5.175781-3.148438-7.664063-1.488281-3.328125 2.21875-16.105468 17.375-16.105468 17.375s18.890624-6.007813 22.207031-8.226563c2.5-1.667969 3.785156-4.332031 1.5625-7.660156zm0 0"/><path d="m469.636719 239.242188c-1.570313-3.671876-4.460938-4.101563-7.226563-2.953126-3.695312 1.527344-19.179687 13.890626-19.179687 13.890626s19.691406-2.207032 23.386719-3.734376c2.769531-1.148437 4.550781-3.511718 3.019531-7.203124zm0 0"/><path d="m465.292969 224.910156c-.832031-3.914062-3.574219-4.898437-6.511719-4.3125-3.921875.78125-21.523438 9.886719-21.523438 9.886719s19.738282 1.679687 23.664063.894531c2.945313-.585937 5.152344-2.554687 4.371094-6.46875zm0 0"/><path d="m463.820312 210.003906c-.050781-3.996094-2.550781-5.503906-5.542968-5.503906-3.996094 0-23.039063 5.503906-23.039063 5.503906s19.042969 5.492188 23.039063 5.492188c2.992187 0 5.542968-1.5 5.542968-5.492188zm0 0"/><path d="m465.292969 195.09375c.730469-3.929688-1.425781-5.894531-4.371094-6.480469-3.925781-.773437-23.664063.90625-23.664063.90625s17.601563 9.105469 21.523438 9.886719c2.9375.578125 5.730469-.390625 6.511719-4.3125zm0 0"/><path d="m469.636719 180.761719c1.492187-3.71875-.25-6.054688-3.019531-7.203125-3.695313-1.53125-23.386719-3.742188-23.386719-3.742188s15.484375 12.367188 19.179687 13.898438c2.765625 1.148437 5.695313.734375 7.226563-2.953125zm0 0"/><path d="m476.699219 167.546875c2.183593-3.355469.9375-5.992187-1.5625-7.652344-3.316407-2.21875-22.207031-8.226562-22.207031-8.226562s12.777343 15.144531 16.105468 17.367187c2.488282 1.667969 5.445313 1.839844 7.664063-1.488281zm0 0"/><path d="m486.207031 155.964844c2.789063-2.855469 2.082031-5.6875-.042969-7.804688-2.824218-2.832031-20.171874-12.410156-20.171874-12.410156s9.578124 17.359375 12.402343 20.183594c2.121094 2.113281 4.980469 2.863281 7.8125.03125zm0 0"/><path d="m607.421875 210.082031c0 37.160157-30.121094 67.277344-67.269531 67.277344-37.15625 0-67.277344-30.117187-67.277344-67.277344 0-37.148437 30.121094-67.265625 67.277344-67.265625 37.148437 0 67.269531 30.117188 67.269531 67.265625zm0 0"/><path d="m540.234375 133.585938c3.996094-.046876 5.5-2.546876 5.5-5.550782 0-3.996094-5.5-23.039062-5.5-23.039062s-5.492187 19.042968-5.492187 23.039062c0 3.003906 1.496093 5.550782 5.492187 5.550782zm0 0"/><path d="m555.144531 284.945312c-3.914062.828126-4.890625 3.570313-4.316406 6.507813.78125 3.925781 9.890625 21.527344 9.890625 21.527344s1.675781-19.742188.902344-23.664063c-.585938-2.949218-2.554688-5.152344-6.476563-4.371094zm0 0"/><path d="m540.234375 286.417969c-3.996094.046875-5.492187 2.546875-5.492187 5.542969 0 3.996093 5.492187 23.035156 5.492187 23.035156s5.5-19.039063 5.5-23.035156c0-2.996094-1.503906-5.542969-5.5-5.542969zm0 0"/><path d="m525.324219 284.945312c-3.929688-.734374-5.882813 1.421876-6.46875 4.371094-.78125 3.921875.894531 23.664063.894531 23.664063s9.109375-17.601563 9.890625-21.527344c.585937-2.9375-.394531-5.726563-4.316406-6.507813zm0 0"/><path d="m510.992188 280.601562c-3.707032-1.492187-6.050782.25-7.199219 3.015626-1.53125 3.695312-3.738281 23.390624-3.738281 23.390624s12.363281-15.488281 13.894531-19.183593c1.148437-2.765625.742187-5.695313-2.957031-7.222657zm0 0"/><path d="m497.789062 146.46875c3.292969-2.269531 3.144532-5.175781 1.476563-7.675781-2.210937-3.320313-17.367187-16.09375-17.367187-16.09375s6.007812 18.886719 8.230468 22.207031c1.667969 2.488281 4.328125 3.773438 7.660156 1.5625zm0 0"/><path d="m510.992188 139.402344c3.671874-1.578125 4.105468-4.457032 2.957031-7.226563-1.53125-3.691406-13.894531-19.179687-13.894531-19.179687s2.207031 19.695312 3.738281 23.390625c1.148437 2.765625 3.507812 4.546875 7.199219 3.015625zm0 0"/><path d="m525.324219 135.058594c3.914062-.828125 4.902343-3.574219 4.316406-6.519532-.78125-3.921874-9.890625-21.523437-9.890625-21.523437s-1.675781 19.75-.894531 23.671875c.585937 2.941406 2.546875 5.144531 6.46875 4.371094zm0 0"/><path d="m537.898438 327.476562-1.15625 2.316407-1.292969 2.972656-.773438 1.414063-.640625 1.292968-.523437 1.035156-.644531.640626-1.542969-1.292969-1.679688-1.15625-1.804687-.902344-1.9375-.773437-2.058594-.519532-2.066406-.515625-2.066406-.386719-2.191407-.253906-4.515625-.390625-4.507812-.128906-4.386719-.253906-4.125-.519531-2.328125-.382813-2.191406-.523437-1.160156-.378907-1.15625-.390625-1.035157-.515625-.902343-.519531-1.414063-.902344-1.425781-1.027344-1.546875-1.160156-1.414063-1.296875-2.972656-2.832031-2.960938-2.839844-2.96875-2.710937-2.710937-2.449219-1.285156-.902344-1.296875-.902344-1.15625-.515624-1.164063-.386719-2.1875-.515625-1.9375-.640625-1.9375-.652344-1.9375-.902344-1.671875-.773437-1.679687-1.027344-1.546875-1.035156-1.414063-1.03125-1.546875-1.164063-1.292968-1.15625-1.285157-1.292969-1.292969-1.285156-2.453124-2.710937-2.316407-2.839844-4.648437-6.0625-4.898438-6.183594-2.839844-2.972656-2.964843-2.960937-1.675781-1.554688-1.675782-1.417969-1.804687-1.285156-1.9375-1.421875-.390625.128906-.382813.390625-.390625.515625-.253906.640625-.390625 1.164063-.128906.511718-.902344-.382812-.773437-.390625-.90625-.382813-.769532-.261718h-1.679687l-.902344.261718-.902344.382813.902344 1.164063 1.164063 1.546874 1.15625 1.808594 1.03125 1.933594 1.035156 2.058594.773437 1.9375.257813 1.035156.261718.773438.125.902343v.773438h-6.960937l1.027344 1.542969 1.164062 1.550781 1.285157 1.542969 4.253906 4.257812 1.425781 1.164062 1.285156.902344-1.414062.132813-1.9375.128906-1.929688.25-1.421875.132813 1.164063 1.03125 1.414062 1.035156 1.546875 1.15625 1.675782 1.164062 1.675781 1.03125 1.679687.90625 1.550782.511719 1.417968.386719.640625.132812.523438.121094.382812.132812.390625.386719v.515625l-.132812.261719-.257813.773437-.132812.769532-.128907.523437v.378907l.128907.644531.132812.523437.257813.25.382812.261719.519532.257813.644531.132812.640625.253906.652344.257813.644531.261719.511719.378906.128906.132812v.261719l-.128906.128906-.511719.382813-.523438.390625-.511719.511719-.511718.644531v.519531l-.128906.511719.128906.644531.121094.78125 2.199218.773438 2.320313.773437 1.03125.25 1.035156.390625.773437.390625.640626.382813-4.253907 3.355468 1.160157 1.03125 1.417968.773438 1.804688.902344 1.808594.644531 2.058593.640625 1.9375.390625 1.675781.390625h1.546876l-1.414063 1.027344-1.808594 1.164062-1.9375 1.035156-1.414062 1.03125 1.292969.902344 1.796874.894531 2.070313 1.035157 2.445313 1.164062 5.675781 2.449219 6.191406 2.449219 6.453125 2.320312 6.316406 2.066406 2.839844.902344 2.578125.644531 2.320313.644531 2.066406.386719-4.125-.386719-3.875-.515624-3.863282-.640626-3.613281-.773437-3.613281-1.035156-3.484375-1.03125-3.351563-1.15625-3.222656-1.296875-6.324218-2.578125-5.933594-2.582031-2.832032-1.160157-2.839843-1.15625-5.421875-2.066406.652344-.382813.773437-.261718 1.027344-.390625 1.164062-.25 2.449219-.773438 2.195312-.773437-3.871093-.652344-5.289063-1.035156-2.582031-.769532-2.1875-.644531-.90625-.382812-.773437-.390625-.640626-.390625-.390624-.382813v-.128906l.128906-.132812.390625-.128907.382812-.253906 1.035157-.386719 1.414062-.386718 3.101562-.902344 2.578126-.902344-6.320313-1.164062-4.902344-.773438-1.804687-.390625-1.425782-.511719-.511718-.261718-.511719-.382813-.390625-.257813-.261719-.382812.390625-.261719 1.164063-.257812 1.675781-.261719 1.929688-.382812 2.066406-.261719 1.808594-.511719.902343-.261719.773438-.257812.511719-.382813.519531-.390625-1.03125-.382812-1.035157-.390625-1.285156-.253906-1.292968-.257813-2.964844-.394531-2.96875-.378906-1.546875-.390626-1.414063-.253906-1.425781-.519531-1.414063-.511719-1.296874-.652344-1.15625-.894531-1.03125-.90625-.773438-1.160156.261719-.132813.511719-.128906h.644531l1.03125.128906 2.320312.132813 2.578125.128906 2.84375.257813h3.609375l1.035157-.128906.773437-.257813.511719-.261719-3.09375-1.289062-4.132813-1.804688-2.320312-1.164062-2.445313-1.15625-2.453125-1.292969-2.449219-1.285156-2.316406-1.425781-2.199218-1.542969-2.058594-1.546875-1.804688-1.546875-.773437-.902344-.78125-.773437-.515625-.773438-.511719-.902344-.523437-.773437-.25-.90625-.128907-.773438-.132812-.902343h.90625l1.03125.121093 1.027343.394531 1.03125.386719 2.066407 1.285157 2.320312 1.296874 1.035157.640626 1.152343.644531 1.164063.511719 1.035156.390624 1.164062.261719 1.027344.121094h1.164063l1.03125-.382813-3.101563-2.316406-3.484375-2.972656-3.996093-3.484375-3.992188-3.863281-3.996094-4.125-3.742187-4.136719-1.679688-2.1875-1.675781-2.066406-1.421875-2.058594-1.285156-1.9375-.261719-.511719v-.90625l.128906-.390625.132813-.382812.386719-.257813.386718-.390625.386719-.253906 1.027344-.257813h1.03125l.644531.128907.519531.128906.515625.382813 5.417969 5.421874 2.839844 2.960938 3.09375 2.972656 3.09375 2.707032 3.097656 2.582031 1.546875 1.03125 1.417969.902343 1.542969.773438 1.425781.515625-1.03125-.644531-2.710938-2.710938-1.679687-1.933594-3.742188-4.519531-4.125-5.28125-2.058594-2.839843-1.9375-2.839844-1.804687-2.832032-1.808594-2.710937-1.546875-2.582031-1.285156-2.316406-.902344-2.199219-.773437-1.804688-.128907-.640625v-1.035156l.128907-.382812.25-.390626.261719-.382812.261718-.261719.382813-.257812.902343-.261719.773438-.253906h1.804688l.515624.132812.386719.121094.515625.261719.390625.386719 1.03125.90625 1.035157 1.285156 2.320312 2.96875 2.449219 3.738281 2.839843 4.003906 2.960938 4.125 1.546875 1.9375 1.554687 1.929688 1.675782 1.671875 1.800781 1.550781-2.191406-4.257813-2.449219-4.898437-1.292969-2.710937-1.15625-2.703126-1.164062-2.839843-1.03125-2.839844-.90625-2.960937-.902344-2.839844-.644531-2.84375-.511719-2.828125-.257813-2.710938-.132812-2.578125.132812-1.296875.128907-1.15625.128906-1.160156.253906-1.164063.257813-.386718.132812-.386719.390625-.382813.25-.261718.90625-.382813.902344-.257812h.902344l.773437.128906.390625.128906.25.121094.132813.261719.128906.390625 1.296875 4.125 1.152344 4.386719 1.164062 4.511718 1.164063 4.382813 1.15625 4.386719 1.546875 4.125.773437 1.9375.902344 1.9375 1.035156 1.808593 1.164063 1.796875-.773438-3.734375-.523437-3.351562-.511719-3.101563-.261719-2.832031-.25-2.449219-.132812-2.199218.132812-1.808594.121094-1.542969.261719-1.285156.386719-1.035157.253906-.390624.261718-.382813.261719-.257813.378907-.261718.394531-.132813h1.152343l1.035157.394531 1.035156.511719.902344 4.132813.902343 3.996094 1.035157 3.742187 1.15625 3.605469 1.292969 3.613281 1.414062 3.613281 1.546875 3.734375 1.808594 3.746094 1.292969 2.449219 1.285156 2.449218 1.425781 2.449219 1.414063 2.457031 3.09375 4.640626 1.675781 2.316406 1.675781 2.328125 3.101562 3.867187 3.222657 3.613282 3.351562 3.613281 3.484375 3.351562 3.613282 3.351563 3.734374 3.09375 3.875 2.96875 3.996094 2.835937 2.707032 1.804688 2.839843 1.679687 2.964844 1.671875 2.839844 1.554688 4.515625 2.191406 4.378906 2.066406 4.644531 1.800781 4.648438 1.683594 4.378906 1.414063 4.515625 1.15625 4.648438 1.035156 4.507812.902344 4.777344.640625 4.636718.523437 4.777344.378907zm0 0"/><path d="m549.648438 366.683594 2.191406.261718 1.03125.378907.261718.132812v.128907h-.261718l-.25.128906-2.066406.390625h-1.675782l-5.421875-.390625-6.574219-.128906-7.097656-.128907-7.347656.128907-3.484375.128906-3.480469.261718-3.09375.253907-2.96875.257812-2.453125.390625-2.1875.515625-.78125.257813-.773437.253906-.644532.261719-.511718.386719.25-1.292969.523437-1.285157-.902343.253907-.90625.257812-.769532.390625-.773437.382813-.652344.390625-.511719.515625-.382812.640625-.132813.652344-.386719-.90625-.261718-.769532-.125-.90625-.128906-.773437.128906-.648438.125-.773437.128906-.644532.390625-.640624.261719-.519532.511718-.644531 1.035157-1.035156 1.414062-.902344 1.546875-.902344c.835938.511719 1.773438.878907 2.710938 1.160157.8125.109374 1.773437-.019532 2.707031-.257813 1.570313 1.390625 3.679687 1.21875 5.03125-.253906.246094-.269531.542969-.683594.644531-1.03125.210938-.75.167969-1.71875 0-2.582031l1.542969-.128907 1.808594-.261719 1.9375-.511718 2.066406-.511719 2.058594-.390625 1.9375-.511719 1.804687-.261719 1.546875-.128906-.640625.511719-1.546875 1.164063-1.808593 1.414062-1.292969.902344 1.675781.394531 1.425781.257813-1.035156 1.15625-2.066406 2.328124-.773438 1.027344 1.035157.386719 1.03125.261719 1.15625.25h2.328124l1.15625-.25 1.164063-.261719.902344-.511719 1.035156.511719 1.023437.382813 2.066407.523437 2.320312.257813 2.449219.253906zm0 0"/><path d="m510.050781 359.332031.382813.132813.390625.128906.128906.382812.128906.390626-.128906.382812-.128906.390625-.390625.261719h-.894532l-.261718-.261719-.261719-.390625-.128906-.382812.128906-.390626.261719-.382812.261718-.128906zm0 0"/><path d="m509.902344 359.847656.253906.128906.132812.261719-.132812.257813-.253906.125-.257813-.125-.132812-.257813.132812-.261719zm0 0"/><path d="m510.003906 361.621094c-.652344.007812-1.191406-.53125-1.191406-1.179688 0-.652344.539062-1.179687 1.191406-1.179687.648438 0 1.175782.527343 1.175782 1.179687 0 .648438-.527344 1.1875-1.175782 1.179688zm0 0"/><path d="m606.105469 373.007812-.90625.382813-.902344.128906-.773437.128907-.652344-.128907-.640625-.128906-.644531-.253906-.519532-.261719-.644531-.390625-1.03125-.773437-1.027344-.769532-.519531-.386718-.644531-.257813-.511719-.128906h-.648438l-1.15625 2.445312-1.546874 3.101563-.519532.773437-.515625.644531-.519531.390626-.511719.382812-.644531.261719h-.648438l-.644531-.261719-.773437-.382812-.261719-.390626-.25-.390624-.261719-.511719-.261718-.644531-.25-1.164063-.132813-.773437-.773437.644531-.769532.902343-.652344 1.035157-.773437 1.160156-.902344 1.15625-.90625.90625-.511719.519531-.644531.382813-.648437.257812-.773438.261719h-.382812l-.640625.121094-.652344-.121094-.511719-.261719-1.546875-1.804687-1.679687-1.804688-1.160156 1.804688-1.289063 1.546875-.648437.640625-.644532.652344-.640625.515624-.644531.386719-.519531.253907-.644531.128906h-.640626l-.523437-.128906-.511719-.253907-.390625-.386719-.511719-.644531-.261718-.773437-.253906-.773438-.519532-1.292968-.128906-.644532-.253906-.511718-.257813-.261719h-.261719l-3.484374 5.671875-.511719.523437-.902344.378907-2.066406.523437h-1.15625l-.902344-.261719-.261719-.128906-.382812-.390625-.132813-.253906v-.519531l.515625-5.671876-.382812.128907-.519532.261719-.515624.25-.519532.523437-1.023437 1.15625-1.164063 1.292969-1.167968 1.417968-1.414063 1.160157-.644531.511719-.640625.523437-.78125.382813-.644531.128906-.902344.132812-.640625-.132812-.261719-.128906-.253906-.261719-.128906-.382813v-.390625l.128906-1.675781.253906-1.675781.128906-.902344-.261718-1.546875-.511719-.902344-.773438 1.164063-1.292969 1.671875-1.546874 1.679687-1.675782 1.675781-1.804687 1.285157-.773438.261719-.644531.261718-.261719-.132812h-.378906l-.394531-.390625-.25-.382813-.128906-.390625v-.511719l-.132813-.644531.132813-4.90625-3.230469 2.195313-3.867188 2.453125-.902343.390625-1.035157.511718-.902343.261719-1.027344.25-.902344.261719h-.902344l-.902344-.132812-.773437-.257813.382813-1.027344.390624-.902343.382813-.902344.519531-.773438.511719-.773437.511719-.78125.652344-.644531.644531-.640626 1.414062-1.035156 1.675781-1.03125 1.675782-.773437 1.9375-.644531 1.9375-.511719 2.1875-.390625 2.199218-.382813 2.191407-.261719 4.777343-.261718 4.894532-.128906h9.800781l2.449219-.128907 2.328125-.121093 2.320312-.132813 2.1875-.257813 2.195313-.382812 1.9375-.390625 1.929687-.511719 1.808594-.773437 1.675781-.78125 1.421875-1.027344 1.417969-1.03125 1.164062-1.425781-1.296874-2.570313 1.035156-.132812 1.03125-.257813 1.027344-.515625.902343-.648437.394531-.253906.378907-.390626.261719-.511718.261718-.390625.128906-.515625v-.898438l-.261718-.523437 2.191406-.382813 2.328125-.261718 2.449219-.128907h2.578125l5.289062.261719 5.410157.390625 5.554687.644531 5.410156.511719 5.289063.519531 4.898437.253906v1.804688l-.121093.773438-.519532 1.546874-.253906.652344-.390625.511719-.511719.644531-.902344.898438-1.167968.773437-1.160156.523438-1.285157.25-1.417969.261719-1.425781-.128907-1.285156-.132812-1.421875-.378907-1.289062-.644531-1.292969-.652343-1.023438-.902344-1.035156-1.023438v2.1875l-.390625 2.839844-.253906 1.417969-.386719 1.292969-.261719.511718-.382812.390625-.261719.382813zm-103.707031-12.125 2.964843 1.292969.773438-.652343 1.03125-.773438 1.164062-.640625 1.035157-.644531 3.867187-1.546875 3.351563-1.554688 1.675781-.640625 1.421875-.773437 1.417968-.773438 1.164063-.773437 2.960937-1.9375 2.972657-1.9375 2.832031-1.804688 2.578125-1.800781 1.9375-1.554687 1.546875-1.414063 1.675781-1.546875 1.808594-1.675781.640625-.644531.773438-.519532.902343-.511718 1.035157-.519532 2.199218-1.027344 2.1875-.78125 2.96875-.773437 3.222656-.773437 3.351563-.640626 3.746094-.644531 4.507812-.523437 4.515625-.640625 4.640625-.515625 4.515625-.769532 1.546875-.261718 1.425781-.390625 1.542969-.382813 1.546875-.390625 1.546875-1.929687 2.449219-2.707032 1.675781-1.679687 1.9375-1.542969 2.195313-1.675781 2.582031-1.6875 3.867187-2.316406 4.125-2.0625 4.253907-2.195313 4.128906-1.9375 3.871094-1.929687 3.613281-1.804688 2.960938-1.546875 2.324218-1.554687.648438-1.929688.902344-1.9375 1.15625-1.933593 1.425781-1.929688 1.542969-2.066406 1.9375-2.070313 2.058593-2.316406 2.582031-2.449219 2.320313-2.070312 2.457031-2.054688 1.285156-.90625 1.292969-.902344 2.832031-1.546874 1.425782-.652344 1.414062-.511719 1.546875-.382813 1.414063-.390624 1.554687-.128907 1.417969-.128906 1.546875.128906 1.414063.257813-.121094 1.550781-.390625 1.542969-.511719 1.546875-.652344 1.679687-.902344 1.671875-1.15625 1.6875-1.425781 1.796875-1.671875 1.804688 1.292969-.128906 1.160156-.25.90625-.261719.894531-.390625.78125-.253906.894532-.257813 1.164062-.128906 1.292969-.132813.125.90625v.898438l-.125.90625-.257813.773437-.394531.773438-.511719.773437-.511718.648438-.648438.644531-2.703125 2.582031-2.710937 2.445313 1.546875.132812 1.675781.511719 1.675781.519531 1.285157.253907-1.542969 1.164062-1.808594 1.164062-1.808594 1.15625-2.058593 1.164063-2.066407 1.160156-2.058593 1.285157-2.066407 1.417968-1.9375 1.554688.902344.121094 1.164063.523437.515624.128906.519532.25.382812.132813.390625-.132813-2.578125 1.425781-3.226562 1.546876-1.550782.773437-1.285156.773437-.644531.390626-.390625.378906-.253906.394531-.261719.378906.132813.523438.25.382812.523437.390625.382813.382813-.132813.519531-.25.382812-.523437.390626-.511719.382812-1.164063.648438-1.546875.644531-1.542969.511719-1.417968.523437-1.035156.511719-.769532.390625 2.578125 2.578125-.902343.90625-.90625.640625-.769532.382812-.90625.390625-1.804687.261719h-2.449219l.253906 1.15625.386719 1.160156.261719 1.289063.25 1.292968-2.1875 1.675782-2.707032 1.9375-2.964843 1.929687-3.351563 1.9375-1.9375 1.03125-1.9375.902344-2.058594.773437-2.199218.773438-2.316406.773438-2.449219.515624-2.582031.519532-2.707032.382812 4.765625.128906h4.125l3.875-.382812 3.484375-.390625 3.222656-.644531 2.839844-.769532 2.832032-1.035156 2.710937-1.03125 3.613281-1.679687 3.480469-1.9375 3.355469-2.058594 3.484375-2.066406-2.070313-1.023438-2.058594-.652343-1.03125-.382813-1.035156-.519531-1.15625-.511719-1.164062-.644531 1.035156-.773438 1.152344-.519531 1.425781-.511719 1.546875-.394531 3.09375-.640625 3.222656-.390625 2.839844-.382813 2.578125-.261718 1.035156-.25.902344-.261719.511719-.257813.390625-.386718-.390625-.390625-.382813-.128907-.519531-.25-1.417969-.261718-1.804687-.261719-1.804688-.128906-1.808594-.253907-1.546874-.390624-1.03125-.390626 6.964843-1.546874 3.101563-.640626 2.570312-.644531 2.199219-.640625 1.933594-.78125.90625-.382812.640625-.390625.644531-.382813.511719-.519531-.382813-.382813-.511719-.132812-.652343-.128906-1.675781-.132813h-1.925782l-2.070312-.128906-1.9375-.121094-1.675782-.261719-1.03125-.261718.902344-.378906.902344-.390626 3.101562-.902343 2.699219-.773438 2.460938-.644531 2.316406-.773438 2.449219-.773437 2.453125-1.03125 1.160156-.644531 1.035156-.648438.382813-.386718.390625-.519532.382812-.382812.128907-.390625-.128907-.382813-.382812-.261718-.390625-.128907h-3.613282l-1.675781.128907h-2.320312l-.644531-.128907-.519532-.25-.511718-.261719 5.160156-3.355468 4.769531-3.097656 4.253906-2.703126 3.746094-2.578124 1.542969-1.292969 1.425781-1.285157 1.15625-1.296874 1.03125-1.285157.773437-1.421875.644532-1.417968.390625-1.546876v-1.675781h-.902344l-.90625.128907-1.03125.382812-1.035156.390625-2.058594 1.285156-2.195313 1.296875-1.15625.640625-1.035156.644531-1.164062.519532-1.15625.382812-1.03125.261719-1.035156.128906h-1.164063l-1.023437-.390625 3.089843-2.320312 3.484375-2.96875 3.996094-3.484375 4.003906-3.867188 3.996094-4.125 3.734375-4.125 1.6875-2.195312 1.675781-2.058594 1.414063-2.070313 1.285156-1.933593.261719-.515625.132812-.390625-.132812-.511719-.128906-.390625-.132813-.382813-.378906-.261718-.394531-.382813-.382813-.128906-.519531-.257813-.511719-.132812h-1.035156l-.511719.132812-.640625.128907-.394531.382812-.511719.390625-2.324219 2.320313-2.710937 2.707031-2.832031 2.972656-3.101563 2.960938-3.09375 2.710937-3.089844 2.578125-1.554687 1.035156-1.417969.902344-1.542969.773438-1.296875.644531.902344-.777344 2.710937-2.707031 1.675782-1.9375 3.742187-4.507812 4.128907-5.289063 2.066406-2.839844 1.929687-2.84375 1.9375-2.699219 1.675781-2.839843 1.542969-2.582031 1.296875-2.316407 1.035156-2.199219.640626-1.804687.128906-.644531v-1.035156l-.128906-.382813-.261719-.386719-.257813-.386718-.253906-.257813-.390625-.128906-.773437-.382813-.902344-.261718h-1.804688l-.515625.128906-.390625.132812-.511718.25-.390626.390625-1.027343.902344-1.03125 1.289063-2.320313 2.96875-2.457031 3.734374-2.703125 4.003907-2.96875 4.128906-1.675781 1.933594-1.546875 1.929687-1.675782 1.675782-1.808593 1.554687 2.320312-4.253906 2.320313-4.90625 1.292968-2.703125 1.164063-2.710938 1.15625-2.839844 1.03125-2.839843.90625-2.964844.902344-2.839844.640625-2.839843.523437-2.828126.25-2.710937.128907-2.582031-.128907-1.292969-.128906-1.15625-.121094-1.164063-.261719-1.15625-.128906-.390624-.261718-.390626-.640626-.640624-.90625-.382813-.902343-.261719h-.902344l-.773437.132813-.261719.128906-.382813.128906-.128906.253907-.132812.390624-1.285157 4.253907-1.164062 4.257812-1.160157 4.515625-1.15625 4.378906-1.164062 4.386719-1.546875 4.125-.773437 2.066407-.902344 1.808593-1.035156 1.9375-1.15625 1.675781.773437-3.742187.511719-3.355469.515625-3.089844.257812-2.839843.261719-2.453125.132812-2.195313-.132812-1.808593-.128906-1.542969-.261719-1.285157-.382813-1.035156-.261718-.390625-.257813-.382812-.253906-.261719-.390625-.128906-.382812-.125-.390626-.128906h-.390624l-.382813.128906-1.03125.253906-1.035156.519531-.902344 4.128907-.902344 3.996093-1.027343 3.742188-1.164063 3.605469-1.292969 3.613281-1.417968 3.613281-1.542969 3.742188-1.808594 3.738281-1.285156 2.445312-1.292969 2.460938-1.417969 2.449219-1.421875 2.449218-3.09375 4.636719-1.675781 2.328125-1.675781 2.320312-3.09375 3.863282-3.230469 3.617187-3.351563 3.613281-3.484374 3.351563-3.605469 3.351563-3.742188 3.09375-3.867187 2.96875-4.003906 2.839843-2.707032 1.800781-2.835937 1.808594-5.679688 3.351563-4.507812 2.066406-4.515625 2.066406-4.648438 1.675781-4.636718 1.675782-3.875 1.15625-3.863282 1.164062-3.996094.90625-4.003906.898438-3.996094.644531-4.125.511719-4.003906.523437-4.128906.257813-.382812.121094-.390626.132812-.773437.390625-.902344.644531-1.285156 1.164063-1.675781 1.542969-2.070313 2.058593-2.445312 2.710938-2.320313 2.710937-2.710937 2.972656-1.425781 1.414063-1.414063 1.414063-1.675781 1.296874-1.675782 1.285157-1.285156.902343-1.296875.773438-1.414062.648438-1.425781.644531-3.09375 1.285156-3.089844 1.164063-3.101563 1.164062-2.710937 1.027344-1.15625.519531-1.164063.644531-1.03125.511719-.773437.519531-1.417969 1.417969-.386719.640625-.253906.652344-.132812.902344zm0 0"/><path d="m509.902344 360.734375c-.265625 0-.484375-.210937-.484375-.480469 0-.269531.21875-.480468.484375-.480468.261718 0 .480468.210937.480468.480468 0 .269532-.21875.480469-.480468.480469zm0 0" stroke="#00afca" stroke-width=".190637"/><path d="m60.003906 463.542969s-4.8125 4.035156-6.4375 2.007812c-2.632812-3.253906 8.0625-19.480469 8.0625-25.195312 0-9.382813-6.257812-11.929688-13.980468-13.273438-5.183594-.894531-13.632813.375-13.632813.375 1.589844 2.140625 2.621094 2.769531 5.308594 2.9375-2.988281 1.546875-6.023438 4.90625-6.023438 10.140625 0 8.074219 3.320313 11.402344 3.320313 20.492188 0 5.046875-4.132813 11.476562-4.132813 11.476562 7.308594-.734375 10.9375-7.507812 8.871094-12.917968 1.160156-.167969 2.21875.089843 3.128906.953124.539063-1.496093-.308593-3.238281-1.4375-4.746093.910157-.488281 1.578125-.191407 3.027344.105469-.128906-1.542969-1.058594-3.1875-3.328125-4.734376 6.574219 1.707032 10.617188-2.871093 10.617188-7.667968 0-3.628906-2.539063-6.222656-5.019532-6.222656-.796875 0-1.976562.332031-2.644531.828124-.464844-1-.226563-2.335937.257813-3.335937-1.820313.488281-2.976563 1.5625-2.15625 3.816406-1.390626.128907-2.503907.601563-3.261719 1.496094.765625.988281 1.929687 1.546875 3.261719 1.5-1.015626 2.097656.125 3.277344 1.777343 4.230469 0 0-1.050781-4.230469 1.625-4.230469 1.214844 0 2.3125.398437 2.3125 2.171875 0 1.554688-1.359375 3.695312-4.484375 3.554688-3.132812-.128907-5.671875-2.15625-5.671875-7.152344 0-4.605469 3.71875-6.890625 8.617188-7.046875 4.417969-.128907 7.75 2.261719 7.75 6.8125 0 6.070312-8.75 19.886719-8.75 25.292969 0 4.050781 3.648437 6.3125 7.210937 6.3125 4.628906 0 8.527344-4.570313 8.527344-4.570313zm0 0"/><path d="m58.992188 353.929688c0-10.132813 9.097656-15.339844 16.242187-15.339844 9.636719 0 14.761719 5.753906 14.761719 13.296875 0 4.273437-.78125 6.960937-2.75 11.042969 0 0-15.890625 33.050781-22.078125 45.828124-.773438 1.59375-1.015625 3.410157-1.015625 6.070313 0 4.109375 3.980468 7.46875 8.164062 7.566406 3.804688.097657 7.957032-3.546875 7.957032-7.703125 0-5.046875-2.621094-7.292968-5.308594-7.292968-3.308594 0-4.628906 1.359374-4.628906 3.675781 0 1.621093.78125 2.320312 1.90625 2.320312 2.839843 0 2.042968-3.816406 2.042968-3.816406 1.40625.308594 2.570313 1.75 1.902344 3.550781 1.035156.226563 2.003906.761719 2.761719 1.632813-.769531.734375-1.640625 1.304687-2.761719 1.5.667969 2.195312-.21875 3.261719-2.140625 3.71875.390625-.847657.398437-1.621094.269531-2.351563-3.019531.851563-7.648437-.515625-7.648437-5.730468 0-5.183594 3.597656-9.546876 10.34375-8.457032-1.613281-.765625-2.425781-2.335937-2.589844-4.089844 1.222656.476563 2.589844.542969 2.589844.542969-.789063-1.390625-1.890625-2.589843-1.839844-5.320312 1.253906.566406 2.40625 1.625 4.011719.957031-2.515625-4.949219.578125-11.757812 8.4375-13.367188-2.878906 3.375-4.289063 7.011719-4.289063 10.640626 0 11.746093 3.265625 13.722656 3.265625 21.886718 0 3.414063-1.757812 7.109375-5.234375 9.617188v-.136719c2.296875.617187 3.769531 1.746094 4.621094 3.285156-5.253906 1.496094-12.898437 1.464844-17.007813-.148437-4.710937-.542969-8.003906-4.164063-8.972656-6.003906-.96875-1.828126-2.859375-8.472657 0-14.453126 3.125-6.542968 17.851563-37.777343 22.441406-47.597656.976563-2.085937 1.570313-4.289062 1.570313-6.683594 0-6.011718-5.515625-8.113281-8.640625-8.113281-3.742188 0-7.550781 2.847657-7.550781 6.40625 0 2.253907 1.226562 3.613281 2.992187 3.613281 4.230469 0 3.972656-3.597656 3.125-5.859374 2.636719 1.179687 4.167969 3.296874 3.742188 5.515624 1.492187.214844 2.917968.914063 4.214844 2.394532-1.023438 1.300781-2.285157 2.277344-4.214844 2.320312.847656 3.449219-1.472656 4.914063-3.742188 5.726563.726563-2.539063 1.195313-5.460938-3.125-5.460938-3.148437 0-5.632812-.542969-7.070312-2.585937-.089844 2.726562-.34375 13.5-.34375 13.5-.1875 4.046875 5.421875 3.929687 8.976562 2.726562-1.339844 4.664063-4.101562 7.1875-10.472656 6.550782 1.546875.644531 3.199219 2.097656 3.199219 4.90625 0 3.792968-3.085938 8-5.101563 9.246093l-1.019531-39.527343zm0 0"/><path d="m61.011719 353.929688c0-10.132813-9.097657-15.339844-16.253907-15.339844-9.625 0-14.761718 5.753906-14.761718 13.296875 0 4.273437.789062 6.960937 2.761718 11.042969 0 0 15.882813 33.050781 22.074219 45.828124.769531 1.59375 1.019531 3.410157 1.019531 6.070313 0 4.109375-3.988281 7.46875-8.160156 7.566406-3.8125.097657-7.960937-3.546875-7.960937-7.703125 0-5.046875 2.621093-7.292968 5.304687-7.292968 3.304688 0 4.625 1.359374 4.625 3.675781 0 1.621093-.78125 2.320312-1.90625 2.320312-2.832031 0-2.042968-3.816406-2.042968-3.816406-1.40625.308594-2.5625 1.75-1.90625 3.550781-1.023438.226563-1.992188.761719-2.75 1.632813.757812.734375 1.628906 1.304687 2.75 1.5-.65625 2.195312.230468 3.261719 2.152343 3.71875-.390625-.847657-.410156-1.621094-.277343-2.351563 3.027343.851563 7.65625-.515625 7.65625-5.730468 0-5.183594-3.597657-9.546876-10.34375-8.457032 1.605468-.765625 2.417968-2.335937 2.589843-4.089844-1.230469.476563-2.589843.542969-2.589843.542969.792968-1.390625 1.878906-2.589843 1.839843-5.320312-1.253906.566406-2.417969 1.625-4.019531.957031 2.523438-4.949219-.570312-11.757812-8.429688-13.367188 2.871094 3.375 4.289063 7.011719 4.289063 10.640626 0 11.746093-3.273437 13.722656-3.273437 21.886718 0 3.414063 1.757812 7.109375 5.242187 9.617188v-.136719c-2.304687.617187-3.777344 1.746094-4.625 3.285156 5.257813 1.496094 12.902344 1.464844 17-.148437 4.722656-.542969 8.019531-4.164063 8.988281-6.003906.96875-1.828126 2.855469-8.472657 0-14.453126-3.125-6.542968-17.859375-37.777343-22.457031-47.597656-.964844-2.085937-1.5625-4.289062-1.5625-6.683594 0-6.011718 5.511719-8.113281 8.644531-8.113281 3.734375 0 7.550782 2.847657 7.550782 6.40625 0 2.253907-1.226563 3.613281-2.996094 3.613281-4.230469 0-3.96875-3.597656-3.132813-5.859374-2.625 1.179687-4.15625 3.296874-3.742187 5.515624-1.488282.214844-2.90625.914063-4.214844 2.394532 1.035156 1.300781 2.289062 2.277344 4.214844 2.320312-.835938 3.449219 1.476562 4.914063 3.742187 5.726563-.714843-2.539063-1.1875-5.460938 3.132813-5.460938 3.152344 0 5.625-.542969 7.074218-2.585937.089844 2.726562.34375 13.5.34375 13.5.175782 4.046875-5.421874 3.929687-8.988281 2.726562 1.351563 4.664063 4.101563 7.1875 10.484375 6.550782-1.546875.644531-3.199218 2.097656-3.199218 4.90625 0 3.792968 3.078124 8 5.105468 9.246093zm0 0"/><path d="m60.003906 463.542969s4.796875 4.035156 6.4375 2.007812c2.617188-3.253906-8.074218-19.480469-8.074218-25.195312 0-9.382813 6.257812-11.929688 13.988281-13.273438 5.183593-.894531 13.628906.375 13.628906.375-1.59375 2.140625-2.625 2.769531-5.304687 2.9375 2.980468 1.546875 6.023437 4.90625 6.023437 10.140625 0 8.074219-3.328125 11.402344-3.328125 20.492188 0 5.046875 4.140625 11.476562 4.140625 11.476562-7.316406-.734375-10.9375-7.507812-8.878906-12.917968-1.160157-.167969-2.21875.089843-3.125.953124-.535157-1.496093.3125-3.238281 1.441406-4.746093-.910156-.488281-1.578125-.191407-3.035156.105469.136719-1.542969 1.066406-3.1875 3.328125-4.734376-6.574219 1.707032-10.621094-2.871093-10.621094-7.667968 0-3.628906 2.539062-6.222656 5.023438-6.222656.804687 0 1.984374.332031 2.644531.828124.472656-1 .226562-2.335937-.253907-3.335937 1.816407.488281 2.972657 1.5625 2.148438 3.816406 1.398438.128907 2.515625.601563 3.273438 1.496094-.773438.988281-1.929688 1.546875-3.273438 1.5 1.019531 2.097656-.113281 3.277344-1.765625 4.230469 0 0 1.050781-4.230469-1.632813-4.230469-1.207031 0-2.304687.398437-2.304687 2.171875 0 1.554688 1.347656 3.695312 4.480469 3.554688 3.125-.128907 5.667968-2.15625 5.667968-7.152344 0-4.605469-3.71875-6.890625-8.613281-7.046875-4.417969-.128907-7.753906 2.261719-7.753906 6.8125 0 6.070312 8.757813 19.886719 8.757813 25.292969 0 4.050781-3.644532 6.3125-7.21875 6.3125-4.625 0-8.53125-4.570313-8.53125-4.570313l2.71875-3.410156zm0 0"/><path d="m58.992188 176.472656c0-10.132812 9.097656-15.347656 16.242187-15.347656 9.636719 0 14.761719 5.761719 14.761719 13.304688 0 4.273437-.78125 6.949218-2.75 11.042968 0 0-15.890625 33.050782-22.078125 45.824219-.773438 1.597656-1.015625 3.410156-1.015625 6.074219 0 4.109375 3.980468 7.460937 8.164062 7.566406 3.804688.097656 7.957032-3.546875 7.957032-7.707031 0-5.046875-2.621094-7.300781-5.308594-7.300781-3.308594 0-4.628906 1.367187-4.628906 3.6875 0 1.621093.78125 2.320312 1.90625 2.320312 2.839843 0 2.042968-3.816406 2.042968-3.816406 1.40625.308594 2.570313 1.742187 1.902344 3.539062 1.035156.234375 2.003906.773438 2.761719 1.636719-.769531.742187-1.640625 1.308594-2.761719 1.503906.667969 2.191407-.21875 3.265625-2.140625 3.71875.390625-.84375.398437-1.625.269531-2.359375-3.019531.863282-7.648437-.503906-7.648437-5.71875 0-5.183594 3.597656-9.554687 10.34375-8.464844-1.613281-.765624-2.425781-2.335937-2.589844-4.085937 1.222656.472656 2.589844.546875 2.589844.546875-.789063-1.390625-1.890625-2.589844-1.839844-5.324219 1.253906.570313 2.40625 1.621094 4.011719.953125-2.515625-4.949218.578125-11.75 8.4375-13.363281-2.878906 3.371094-4.289063 7.015625-4.289063 10.636719 0 11.75 3.265625 13.730468 3.265625 21.890625 0 3.417969-1.757812 7.113281-5.234375 9.621093v-.140624c2.296875.621093 3.769531 1.75 4.621094 3.289062-5.253906 1.488281-12.898437 1.464844-17.007813-.144531-4.710937-.554688-8.003906-4.167969-8.972656-6.007813s-2.859375-8.480468 0-14.453125c3.125-6.550781 17.851563-37.785156 22.441406-47.597656.976563-2.085937 1.570313-4.300781 1.570313-6.691406 0-6.015625-5.515625-8.113281-8.640625-8.113281-3.742188 0-7.550781 2.855468-7.550781 6.410156 0 2.257812 1.226562 3.617187 2.992187 3.617187 4.230469 0 3.972656-3.597656 3.125-5.871093 2.636719 1.191406 4.167969 3.296874 3.742188 5.527343 1.492187.203125 2.917968.910157 4.214844 2.382813-1.023438 1.304687-2.285157 2.289062-4.214844 2.320312.847656 3.460938-1.472656 4.925782-3.742188 5.730469.726563-2.53125 1.195313-5.453125-3.125-5.453125-3.148437 0-5.632812-.542969-7.070312-2.597656-.089844 2.738281-.34375 13.511718-.34375 13.511718-.1875 4.042969 5.421875 3.929688 8.976562 2.726563-1.339844 4.660156-4.101562 7.183594-10.472656 6.542969 1.546875.648437 3.199219 2.109375 3.199219 4.914062 0 3.792969-3.085938 8-5.101563 9.246094l-1.019531-39.527344zm0 0"/><path d="m61.011719 176.472656c0-10.132812-9.097657-15.347656-16.253907-15.347656-9.625 0-14.761718 5.761719-14.761718 13.304688 0 4.273437.789062 6.949218 2.761718 11.042968 0 0 15.882813 33.050782 22.074219 45.824219.769531 1.597656 1.019531 3.410156 1.019531 6.074219 0 4.109375-3.988281 7.460937-8.160156 7.566406-3.8125.097656-7.960937-3.546875-7.960937-7.707031 0-5.046875 2.621093-7.300781 5.304687-7.300781 3.304688 0 4.625 1.367187 4.625 3.6875 0 1.621093-.78125 2.320312-1.90625 2.320312-2.832031 0-2.042968-3.816406-2.042968-3.816406-1.40625.308594-2.5625 1.742187-1.90625 3.539062-1.023438.234375-1.992188.773438-2.75 1.636719.757812.742187 1.628906 1.308594 2.75 1.503906-.65625 2.191407.230468 3.265625 2.152343 3.71875-.390625-.84375-.410156-1.625-.277343-2.359375 3.027343.863282 7.65625-.503906 7.65625-5.71875 0-5.183594-3.597657-9.554687-10.34375-8.464844 1.605468-.765624 2.417968-2.335937 2.589843-4.085937-1.230469.472656-2.589843.546875-2.589843.546875.792968-1.390625 1.878906-2.589844 1.839843-5.324219-1.253906.570313-2.417969 1.621094-4.019531.953125 2.523438-4.949218-.570312-11.75-8.429688-13.363281 2.871094 3.371094 4.289063 7.015625 4.289063 10.636719 0 11.75-3.273437 13.730468-3.273437 21.890625 0 3.417969 1.757812 7.113281 5.242187 9.621093v-.140624c-2.304687.621093-3.777344 1.75-4.625 3.289062 5.257813 1.488281 12.902344 1.464844 17-.144531 4.722656-.554688 8.019531-4.167969 8.988281-6.007813s2.855469-8.480468 0-14.453125c-3.125-6.550781-17.859375-37.785156-22.457031-47.597656-.964844-2.085937-1.5625-4.300781-1.5625-6.691406 0-6.015625 5.511719-8.113281 8.644531-8.113281 3.734375 0 7.550782 2.855468 7.550782 6.410156 0 2.257812-1.226563 3.617187-2.996094 3.617187-4.230469 0-3.96875-3.597656-3.132813-5.871093-2.625 1.191406-4.15625 3.296874-3.742187 5.527343-1.488282.203125-2.90625.910157-4.214844 2.382813 1.035156 1.304687 2.289062 2.289062 4.214844 2.320312-.835938 3.460938 1.476562 4.925782 3.742187 5.730469-.714843-2.53125-1.1875-5.453125 3.132813-5.453125 3.152344 0 5.625-.542969 7.074218-2.597656.089844 2.738281.34375 13.511718.34375 13.511718.175782 4.042969-5.421874 3.929688-8.988281 2.726563 1.351563 4.660156 4.101563 7.183594 10.484375 6.542969-1.546875.648437-3.199218 2.109375-3.199218 4.914062 0 3.792969 3.078124 8 5.105468 9.246094zm0 0"/><path d="m61.011719 146.070312c0 10.132813-9.097657 15.339844-16.253907 15.339844-9.625 0-14.761718-5.753906-14.761718-13.296875 0-4.273437.789062-6.960937 2.761718-11.042969 0 0 15.882813-33.050781 22.074219-45.828124.769531-1.59375 1.019531-3.410157 1.019531-6.070313 0-4.109375-3.988281-7.46875-8.160156-7.566406-3.8125-.097657-7.960937 3.546875-7.960937 7.703125 0 5.046875 2.621093 7.292968 5.304687 7.292968 3.304688 0 4.625-1.359374 4.625-3.675781 0-1.621093-.78125-2.320312-1.90625-2.320312-2.832031 0-2.042968 3.816406-2.042968 3.816406-1.40625-.308594-2.5625-1.75-1.90625-3.550781-1.023438-.226563-1.992188-.761719-2.75-1.632813.757812-.734375 1.628906-1.304687 2.75-1.5-.65625-2.195312.230468-3.261719 2.152343-3.71875-.390625.847657-.410156 1.621094-.277343 2.351563 3.027343-.851563 7.65625.515625 7.65625 5.730468 0 5.183594-3.597657 9.546876-10.34375 8.457032 1.605468.765625 2.417968 2.335937 2.589843 4.089844-1.230469-.476563-2.589843-.542969-2.589843-.542969.792968 1.390625 1.878906 2.589843 1.839843 5.320312-1.253906-.566406-2.417969-1.625-4.019531-.957031 2.523438 4.949219-.570312 11.757812-8.429688 13.367188 2.871094-3.375 4.289063-7.011719 4.289063-10.640626 0-11.746093-3.273437-13.722656-3.273437-21.886718 0-3.414063 1.757812-7.109375 5.242187-9.617188v.136719c-2.304687-.617187-3.777344-1.746094-4.625-3.285156 5.257813-1.496094 12.902344-1.464844 17 .148437 4.722656.542969 8.019531 4.164063 8.988281 6.003906.96875 1.828126 2.855469 8.472657 0 14.453126-3.125 6.542968-17.859375 37.777343-22.457031 47.597656-.964844 2.085937-1.5625 4.289062-1.5625 6.683594 0 6.011718 5.511719 8.113281 8.644531 8.113281 3.734375 0 7.550782-2.847657 7.550782-6.40625 0-2.253907-1.226563-3.613281-2.996094-3.613281-4.230469 0-3.96875 3.597656-3.132813 5.859374-2.625-1.179687-4.15625-3.296874-3.742187-5.515624-1.488282-.214844-2.90625-.914063-4.214844-2.394532 1.035156-1.300781 2.289062-2.277344 4.214844-2.320312-.835938-3.449219 1.476562-4.914063 3.742187-5.726563-.714843 2.539063-1.1875 5.460938 3.132813 5.460938 3.152344 0 5.625.542969 7.074218 2.585937.089844-2.726562.34375-13.5.34375-13.5.175782-4.046875-5.421874-3.929687-8.988281-2.726562 1.351563-4.664063 4.101563-7.1875 10.484375-6.550782-1.546875-.644531-3.199218-2.097656-3.199218-4.90625 0-3.792968 3.078124-8 5.105468-9.246093zm0 0"/><path d="m61.011719 323.527344c0 10.132812-9.097657 15.347656-16.253907 15.347656-9.625 0-14.761718-5.761719-14.761718-13.304688 0-4.273437.789062-6.949218 2.761718-11.042968 0 0 15.882813-33.050782 22.074219-45.824219.769531-1.597656 1.019531-3.410156 1.019531-6.074219 0-4.109375-3.988281-7.460937-8.160156-7.566406-3.8125-.097656-7.960937 3.546875-7.960937 7.707031 0 5.046875 2.621093 7.300781 5.304687 7.300781 3.304688 0 4.625-1.367187 4.625-3.6875 0-1.621093-.78125-2.320312-1.90625-2.320312-2.832031 0-2.042968 3.816406-2.042968 3.816406-1.40625-.308594-2.5625-1.742187-1.90625-3.539062-1.023438-.234375-1.992188-.773438-2.75-1.636719.757812-.742187 1.628906-1.308594 2.75-1.503906-.65625-2.191407.230468-3.265625 2.152343-3.71875-.390625.84375-.410156 1.625-.277343 2.359375 3.027343-.863282 7.65625.503906 7.65625 5.71875 0 5.183594-3.597657 9.554687-10.34375 8.464844 1.605468.765624 2.417968 2.335937 2.589843 4.085937-1.230469-.472656-2.589843-.546875-2.589843-.546875.792968 1.390625 1.878906 2.589844 1.839843 5.324219-1.253906-.570313-2.417969-1.621094-4.019531-.953125 2.523438 4.949218-.570312 11.75-8.429688 13.363281 2.871094-3.371094 4.289063-7.015625 4.289063-10.636719 0-11.75-3.273437-13.730468-3.273437-21.890625 0-3.417969 1.757812-7.113281 5.242187-9.621093v.140624c-2.304687-.621093-3.777344-1.75-4.625-3.289062 5.257813-1.488281 12.902344-1.464844 17 .144531 4.722656.554688 8.019531 4.167969 8.988281 6.007813s2.855469 8.480468 0 14.453125c-3.125 6.550781-17.859375 37.785156-22.457031 47.597656-.964844 2.085937-1.5625 4.300781-1.5625 6.691406 0 6.015625 5.511719 8.113281 8.644531 8.113281 3.734375 0 7.550782-2.855468 7.550782-6.410156 0-2.257812-1.226563-3.617187-2.996094-3.617187-4.230469 0-3.96875 3.597656-3.132813 5.871093-2.625-1.191406-4.15625-3.296874-3.742187-5.527343-1.488282-.203125-2.90625-.910157-4.214844-2.382813 1.035156-1.304687 2.289062-2.289062 4.214844-2.320312-.835938-3.460938 1.476562-4.925782 3.742187-5.730469-.714843 2.53125-1.1875 5.453125 3.132813 5.453125 3.152344 0 5.625.542969 7.074218 2.597656.089844-2.738281.34375-13.511718.34375-13.511718.175782-4.042969-5.421874-3.929688-8.988281-2.726563 1.351563-4.660156 4.101563-7.183594 10.484375-6.542969-1.546875-.648437-3.199218-2.109375-3.199218-4.914062 0-3.792969 3.078124-8 5.105468-9.246094zm0 0"/><path d="m58.992188 323.527344c0 10.132812 9.097656 15.347656 16.242187 15.347656 9.636719 0 14.761719-5.761719 14.761719-13.304688 0-4.273437-.78125-6.949218-2.75-11.042968 0 0-15.890625-33.050782-22.078125-45.824219-.773438-1.597656-1.015625-3.410156-1.015625-6.074219 0-4.109375 3.980468-7.460937 8.164062-7.566406 3.804688-.097656 7.957032 3.546875 7.957032 7.707031 0 5.046875-2.621094 7.300781-5.308594 7.300781-3.308594 0-4.628906-1.367187-4.628906-3.6875 0-1.621093.78125-2.320312 1.90625-2.320312 2.839843 0 2.042968 3.816406 2.042968 3.816406 1.40625-.308594 2.570313-1.742187 1.902344-3.539062 1.035156-.234375 2.003906-.773438 2.761719-1.636719-.769531-.742187-1.640625-1.308594-2.761719-1.503906.667969-2.191407-.21875-3.265625-2.140625-3.71875.390625.84375.398437 1.625.269531 2.359375-3.019531-.863282-7.648437.503906-7.648437 5.71875 0 5.183594 3.597656 9.554687 10.34375 8.464844-1.613281.765624-2.425781 2.335937-2.589844 4.085937 1.222656-.472656 2.589844-.546875 2.589844-.546875-.789063 1.390625-1.890625 2.589844-1.839844 5.324219 1.253906-.570313 2.40625-1.621094 4.011719-.953125-2.515625 4.949218.578125 11.75 8.4375 13.363281-2.878906-3.371094-4.289063-7.015625-4.289063-10.636719 0-11.75 3.265625-13.730468 3.265625-21.890625 0-3.417969-1.757812-7.113281-5.234375-9.621093v.140624c2.296875-.621093 3.769531-1.75 4.621094-3.289062-5.253906-1.488281-12.898437-1.464844-17.007813.144531-4.710937.554688-8.003906 4.167969-8.972656 6.007813s-2.859375 8.480468 0 14.453125c3.125 6.550781 17.851563 37.785156 22.441406 47.597656.976563 2.085937 1.570313 4.300781 1.570313 6.691406 0 6.015625-5.515625 8.113281-8.640625 8.113281-3.742188 0-7.550781-2.855468-7.550781-6.410156 0-2.257812 1.226562-3.617187 2.992187-3.617187 4.230469 0 3.972656 3.597656 3.125 5.871093 2.636719-1.191406 4.167969-3.296874 3.742188-5.527343 1.492187-.203125 2.917968-.910157 4.214844-2.382813-1.023438-1.304687-2.285157-2.289062-4.214844-2.320312.847656-3.460938-1.472656-4.925782-3.742188-5.730469.726563 2.53125 1.195313 5.453125-3.125 5.453125-3.148437 0-5.632812.542969-7.070312 2.597656-.089844-2.738281-.34375-13.511718-.34375-13.511718-.1875-4.042969 5.421875-3.929688 8.976562-2.726563-1.339844-4.660156-4.101562-7.183594-10.472656-6.542969 1.546875-.648437 3.199219-2.109375 3.199219-4.914062 0-3.792969-3.085938-8-5.101563-9.246094l-1.019531 39.527344zm0 0"/><path d="m60.003906 36.457031s4.796875-4.035156 6.4375-2.007812c2.617188 3.253906-8.074218 19.480469-8.074218 25.195312 0 9.382813 6.257812 11.929688 13.988281 13.273438 5.183593.894531 13.628906-.375 13.628906-.375-1.59375-2.140625-2.625-2.769531-5.304687-2.9375 2.980468-1.546875 6.023437-4.90625 6.023437-10.140625 0-8.074219-3.328125-11.402344-3.328125-20.492188 0-5.046875 4.140625-11.476562 4.140625-11.476562-7.316406.734375-10.9375 7.507812-8.878906 12.917968-1.160157.167969-2.21875-.089843-3.125-.953124-.535157 1.496093.3125 3.238281 1.441406 4.746093-.910156.488281-1.578125.191407-3.035156-.105469.136719 1.542969 1.066406 3.1875 3.328125 4.734376-6.574219-1.707032-10.621094 2.871093-10.621094 7.667968 0 3.628906 2.539062 6.222656 5.023438 6.222656.804687 0 1.984374-.332031 2.644531-.828124.472656 1 .226562 2.335937-.253907 3.335937 1.816407-.488281 2.972657-1.5625 2.148438-3.816406 1.398438-.128907 2.515625-.601563 3.273438-1.496094-.773438-.988281-1.929688-1.546875-3.273438-1.5 1.019531-2.097656-.113281-3.277344-1.765625-4.230469 0 0 1.050781 4.230469-1.632813 4.230469-1.207031 0-2.304687-.398437-2.304687-2.171875 0-1.554688 1.347656-3.695312 4.480469-3.554688 3.125.128907 5.667968 2.15625 5.667968 7.152344 0 4.605469-3.71875 6.890625-8.613281 7.046875-4.417969.128907-7.753906-2.261719-7.753906-6.8125 0-6.070312 8.757813-19.886719 8.757813-25.292969 0-4.050781-3.644532-6.3125-7.21875-6.3125-4.625 0-8.53125 4.570313-8.53125 4.570313l2.71875 3.410156zm0 0"/><path d="m60.003906 36.457031s-4.8125-4.035156-6.4375-2.007812c-2.632812 3.253906 8.0625 19.480469 8.0625 25.195312 0 9.382813-6.257812 11.929688-13.980468 13.273438-5.183594.894531-13.632813-.375-13.632813-.375 1.589844-2.140625 2.621094-2.769531 5.308594-2.9375-2.988281-1.546875-6.023438-4.90625-6.023438-10.140625 0-8.074219 3.320313-11.402344 3.320313-20.492188 0-5.046875-4.132813-11.476562-4.132813-11.476562 7.308594.734375 10.9375 7.507812 8.871094 12.917968 1.160156.167969 2.21875-.089843 3.128906-.953124.539063 1.496093-.308593 3.238281-1.4375 4.746093.910157.488281 1.578125.191407 3.027344-.105469-.128906 1.542969-1.058594 3.1875-3.328125 4.734376 6.574219-1.707032 10.617188 2.871093 10.617188 7.667968 0 3.628906-2.539063 6.222656-5.019532 6.222656-.796875 0-1.976562-.332031-2.644531-.828124-.464844 1-.226563 2.335937.257813 3.335937-1.820313-.488281-2.976563-1.5625-2.15625-3.816406-1.390626-.128907-2.503907-.601563-3.261719-1.496094.765625-.988281 1.929687-1.546875 3.261719-1.5-1.015626-2.097656.125-3.277344 1.777343-4.230469 0 0-1.050781 4.230469 1.625 4.230469 1.214844 0 2.3125-.398437 2.3125-2.171875 0-1.554688-1.359375-3.695312-4.484375-3.554688-3.132812.128907-5.671875 2.15625-5.671875 7.152344 0 4.605469 3.71875 6.890625 8.617188 7.046875 4.417969.128907 7.75-2.261719 7.75-6.8125 0-6.070312-8.75-19.886719-8.75-25.292969 0-4.050781 3.648437-6.3125 7.210937-6.3125 4.628906 0 8.527344 4.570313 8.527344 4.570313zm0 0"/></g></svg>