<?xml version="1.0" encoding="UTF-8"?>
<svg xmlns="http://www.w3.org/2000/svg" xmlns:xlink="http://www.w3.org/1999/xlink" width="128pt" height="85pt" viewBox="0 0 128 85" version="1.1">
<defs>
<clipPath id="clip1">
  <path d="M 0 0 L 127.679688 0 L 127.679688 85 L 0 85 Z M 0 0 "/>
</clipPath>
<clipPath id="clip2">
  <path d="M 0 0 L 127.679688 0 L 127.679688 26 L 0 26 Z M 0 0 "/>
</clipPath>
<clipPath id="clip3">
  <path d="M 0 59 L 127.679688 59 L 127.679688 85 L 0 85 Z M 0 59 "/>
</clipPath>
<clipPath id="clip4">
  <path d="M 0 17 L 127.679688 17 L 127.679688 68 L 0 68 Z M 0 17 "/>
</clipPath>
</defs>
<g id="surface582">
<g clip-path="url(#clip1)" clip-rule="nonzero">
<path style=" stroke:none;fill-rule:evenodd;fill:rgb(99.998474%,99.998474%,99.998474%);fill-opacity:1;" d="M 0 85 L 0 0 L 127.5 0 L 127.5 85 Z M 0 85 "/>
</g>
<g clip-path="url(#clip2)" clip-rule="nonzero">
<path style=" stroke:none;fill-rule:evenodd;fill:rgb(0%,0%,0%);fill-opacity:1;" d="M 0 0 L 127.5 0 L 127.5 25.5 L 0 25.5 Z M 0 0 "/>
</g>
<g clip-path="url(#clip3)" clip-rule="nonzero">
<path style=" stroke:none;fill-rule:evenodd;fill:rgb(0%,39.99939%,0%);fill-opacity:1;" d="M 0 59.5 L 127.5 59.5 L 127.5 85 L 0 85 Z M 0 59.5 "/>
</g>
<path style="fill-rule:evenodd;fill:rgb(0%,0%,0%);fill-opacity:1;stroke-width:0.375651;stroke-linecap:butt;stroke-linejoin:miter;stroke:rgb(0%,0%,0%);stroke-opacity:1;stroke-miterlimit:10;" d="M 48.566406 67.734375 L 49.488281 68.265625 L 74.304688 25.28125 C 75.753906 24.894531 76.550781 23.511719 77.347656 22.132812 C 77.878906 21.214844 80.003906 17.53125 80.925781 12.75 C 77.246094 15.9375 75.121094 19.621094 74.589844 20.539062 C 73.792969 21.917969 72.996094 23.300781 73.382812 24.75 Z M 48.566406 67.734375 "/>
<path style=" stroke:none;fill-rule:evenodd;fill:rgb(99.998474%,99.998474%,99.998474%);fill-opacity:1;" d="M 48.566406 67.734375 L 49.488281 68.265625 L 74.304688 25.28125 C 75.753906 24.894531 76.550781 23.511719 77.347656 22.132812 C 77.878906 21.214844 80.003906 17.53125 80.925781 12.75 C 77.246094 15.9375 75.121094 19.621094 74.589844 20.539062 C 73.792969 21.917969 72.996094 23.300781 73.382812 24.75 Z M 48.566406 67.734375 "/>
<path style="fill-rule:evenodd;fill:rgb(0%,0%,0%);fill-opacity:1;stroke-width:0.375651;stroke-linecap:butt;stroke-linejoin:miter;stroke:rgb(0%,0%,0%);stroke-opacity:1;stroke-miterlimit:10;" d="M 78.933594 67.734375 L 78.011719 68.265625 L 53.195312 25.28125 C 51.746094 24.894531 50.949219 23.511719 50.152344 22.132812 C 49.621094 21.214844 47.496094 17.53125 46.574219 12.75 C 50.253906 15.9375 52.378906 19.621094 52.910156 20.539062 C 53.707031 21.917969 54.503906 23.300781 54.117188 24.75 Z M 78.933594 67.734375 "/>
<path style=" stroke:none;fill-rule:evenodd;fill:rgb(99.998474%,99.998474%,99.998474%);fill-opacity:1;" d="M 78.933594 67.734375 L 78.011719 68.265625 L 53.195312 25.28125 C 51.746094 24.894531 50.949219 23.511719 50.152344 22.132812 C 49.621094 21.214844 47.496094 17.53125 46.574219 12.75 C 50.253906 15.9375 52.378906 19.621094 52.910156 20.539062 C 53.707031 21.917969 54.503906 23.300781 54.117188 24.75 Z M 78.933594 67.734375 "/>
<g clip-path="url(#clip4)" clip-rule="nonzero">
<path style=" stroke:none;fill-rule:evenodd;fill:rgb(73.332214%,0%,0%);fill-opacity:1;" d="M 0 29.75 L 0 55.25 L 53.65625 55.25 C 55.25 59.5 60.5625 68 63.75 68 C 66.9375 68 72.25 59.5 73.84375 55.25 L 127.5 55.25 L 127.5 29.75 L 73.84375 29.75 C 72.25 25.5 66.9375 17 63.75 17 C 60.5625 17 55.25 25.5 53.65625 29.75 Z M 0 29.75 "/>
</g>
<path style=" stroke:none;fill-rule:evenodd;fill:rgb(0%,0%,0%);fill-opacity:1;" d="M 73.84375 55.25 C 75.4375 51 76.5 46.75 76.5 42.5 C 76.5 38.25 75.4375 34 73.84375 29.75 C 72.25 34 71.1875 38.25 71.1875 42.5 C 71.1875 46.75 72.25 51 73.84375 55.25 Z M 73.84375 55.25 "/>
<path style=" stroke:none;fill-rule:evenodd;fill:rgb(0%,0%,0%);fill-opacity:1;" d="M 53.65625 55.25 C 52.0625 51 51 46.75 51 42.5 C 51 38.25 52.0625 34 53.65625 29.75 C 55.25 34 56.3125 38.25 56.3125 42.5 C 56.3125 46.75 55.25 51 53.65625 55.25 Z M 53.65625 55.25 "/>
<path style=" stroke:none;fill-rule:evenodd;fill:rgb(99.998474%,99.998474%,99.998474%);fill-opacity:1;" d="M 65.875 42.5 C 65.875 44.261719 64.925781 45.6875 63.75 45.6875 C 62.574219 45.6875 61.625 44.261719 61.625 42.5 C 61.625 40.738281 62.574219 39.3125 63.75 39.3125 C 64.925781 39.3125 65.875 40.738281 65.875 42.5 Z M 65.875 42.5 "/>
<path style=" stroke:none;fill-rule:evenodd;fill:rgb(99.998474%,99.998474%,99.998474%);fill-opacity:1;" d="M 64.28125 45.609375 C 64.28125 45.609375 66.40625 49.859375 66.40625 56.765625 C 66.40625 63.671875 64.28125 67.921875 64.28125 67.921875 Z M 64.28125 45.609375 "/>
<path style=" stroke:none;fill-rule:evenodd;fill:rgb(99.998474%,99.998474%,99.998474%);fill-opacity:1;" d="M 63.21875 39.390625 C 63.21875 39.390625 61.09375 35.140625 61.09375 28.234375 C 61.09375 21.328125 63.21875 17.078125 63.21875 17.078125 Z M 63.21875 39.390625 "/>
<path style=" stroke:none;fill-rule:evenodd;fill:rgb(99.998474%,99.998474%,99.998474%);fill-opacity:1;" d="M 63.21875 45.609375 C 63.21875 45.609375 61.09375 49.859375 61.09375 56.765625 C 61.09375 63.671875 63.21875 67.921875 63.21875 67.921875 Z M 63.21875 45.609375 "/>
<path style=" stroke:none;fill-rule:evenodd;fill:rgb(99.998474%,99.998474%,99.998474%);fill-opacity:1;" d="M 64.28125 39.390625 C 64.28125 39.390625 66.40625 35.140625 66.40625 28.234375 C 66.40625 21.328125 64.28125 17.078125 64.28125 17.078125 Z M 64.28125 39.390625 "/>
</g>
</svg>
