<?xml version="1.0" encoding="UTF-8"?>
<svg xmlns="http://www.w3.org/2000/svg" xmlns:xlink="http://www.w3.org/1999/xlink" width="128pt" height="64pt" viewBox="0 0 128 64" version="1.1">
<g id="surface587">
<rect x="0" y="0" width="128" height="64" style="fill:rgb(80.783081%,6.666565%,14.901733%);fill-opacity:1;stroke:none;"/>
<path style="fill-rule:evenodd;fill:rgb(98.822021%,81.959534%,8.627319%);fill-opacity:1;stroke-width:0.32;stroke-linecap:butt;stroke-linejoin:miter;stroke:rgb(74.116516%,61.175537%,3.137207%);stroke-opacity:1;stroke-miterlimit:4;" d="M 74.535156 30.140625 C 76.40625 30.644531 79.230469 30.519531 80.503906 32 C 78.632812 31.5 76.332031 34.519531 74.535156 33.859375 C 76.121094 34.96875 51.488281 33.859375 53.464844 33.859375 C 51.59375 33.355469 48.769531 33.480469 47.496094 32 C 49.367188 32.5 51.667969 29.480469 53.464844 30.140625 C 51.878906 29.03125 49.128906 28.175781 48.492188 26.355469 C 50.078125 27.464844 53.300781 25.40625 54.734375 26.648438 C 53.625 25.066406 51.304688 23.328125 51.359375 21.394531 C 52.46875 22.976562 56.203125 22.128906 57.121094 23.804688 C 56.621094 21.933594 55.113281 19.527344 55.75 17.707031 C 56.25 19.578125 60.011719 20.039062 60.339844 21.945312 C 60.507812 20.019531 59.828125 17.230469 61.132812 15.75 C 60.964844 17.675781 64.363281 19.394531 64 21.300781 C 64.816406 19.546875 65.269531 16.714844 66.867188 15.75 C 66.046875 17.503906 68.714844 20.269531 67.660156 21.945312 C 69.027344 20.578125 70.347656 18.042969 72.25 17.707031 C 70.882812 19.074219 72.339844 22.558594 70.878906 23.804688 C 72.628906 22.988281 74.699219 21.054688 76.640625 21.394531 C 74.886719 22.210938 75.0625 25.988281 73.265625 26.648438 C 75.191406 26.480469 77.78125 25.386719 79.507812 26.355469 C 77.582031 26.523438 76.511719 30.140625 74.535156 30.140625 Z M 74.535156 30.140625 "/>
<path style="fill-rule:evenodd;fill:rgb(98.822021%,81.959534%,8.627319%);fill-opacity:1;stroke-width:0.32;stroke-linecap:butt;stroke-linejoin:miter;stroke:rgb(74.116516%,61.175537%,3.137207%);stroke-opacity:1;stroke-miterlimit:4;" d="M 55.117188 32 L 48.378906 29.246094 L 55.652344 28.960938 L 50.261719 24.070312 L 57.195312 26.289062 L 53.804688 19.847656 L 59.558594 24.308594 L 58.574219 17.09375 L 62.457031 23.253906 L 64 16.136719 L 65.542969 23.253906 L 69.425781 17.09375 L 68.441406 24.308594 L 74.195312 19.847656 L 70.804688 26.289062 L 77.738281 24.070312 L 72.347656 28.960938 L 79.621094 29.246094 L 72.882812 32 L 79.621094 34.753906 L 48.378906 34.753906 Z M 55.117188 32 "/>
<path style="fill-rule:evenodd;fill:rgb(98.822021%,81.959534%,8.627319%);fill-opacity:1;stroke-width:0.384;stroke-linecap:butt;stroke-linejoin:miter;stroke:rgb(74.116516%,61.175537%,3.137207%);stroke-opacity:1;stroke-miterlimit:4;" d="M 72.824219 32 C 72.824219 36.871094 68.871094 40.824219 64 40.824219 C 59.128906 40.824219 55.175781 36.871094 55.175781 32 C 55.175781 27.128906 59.128906 23.175781 64 23.175781 C 68.871094 23.175781 72.824219 27.128906 72.824219 32 Z M 72.824219 32 "/>
<path style=" stroke:none;fill-rule:evenodd;fill:rgb(0%,24.705505%,52.940369%);fill-opacity:1;" d="M 0 35.199219 L 128 35.199219 L 128 64 L 0 64 Z M 0 35.199219 "/>
<path style=" stroke:none;fill-rule:evenodd;fill:rgb(99.998474%,99.998474%,99.998474%);fill-opacity:1;" d="M 0 54.855469 C 4.265625 54.855469 8.535156 57.601562 12.800781 57.601562 C 17.066406 57.601562 21.332031 54.855469 25.601562 54.855469 C 29.867188 54.855469 34.132812 57.601562 38.398438 57.601562 C 42.667969 57.601562 46.933594 54.855469 51.199219 54.855469 C 55.464844 54.855469 59.734375 57.601562 64 57.601562 C 68.265625 57.601562 72.535156 54.855469 76.800781 54.855469 C 81.066406 54.855469 85.332031 57.601562 89.601562 57.601562 C 93.867188 57.601562 98.132812 54.855469 102.398438 54.855469 C 106.667969 54.855469 110.933594 57.601562 115.199219 57.601562 C 119.464844 57.601562 123.734375 54.855469 128 54.855469 L 128 50.285156 C 123.734375 50.285156 119.464844 53.027344 115.199219 53.027344 C 110.933594 53.027344 106.667969 50.285156 102.398438 50.285156 C 98.132812 50.285156 93.867188 53.027344 89.601562 53.027344 C 85.332031 53.027344 81.066406 50.285156 76.800781 50.285156 C 72.535156 50.285156 68.265625 53.027344 64 53.027344 C 59.734375 53.027344 55.464844 50.285156 51.199219 50.285156 C 46.933594 50.285156 42.667969 53.027344 38.398438 53.027344 C 34.132812 53.027344 29.867188 50.285156 25.601562 50.285156 C 21.332031 50.285156 17.066406 53.027344 12.800781 53.027344 C 8.535156 53.027344 4.265625 50.285156 0 50.285156 Z M 0 54.855469 "/>
<path style="fill-rule:evenodd;fill:rgb(98.822021%,81.959534%,8.627319%);fill-opacity:1;stroke-width:0.256;stroke-linecap:butt;stroke-linejoin:miter;stroke:rgb(74.116516%,61.175537%,3.137207%);stroke-opacity:1;stroke-miterlimit:4;" d="M 66.902344 10.636719 L 71.632812 10.667969 C 71.664062 10.46875 71.226562 10.070312 70.855469 10.011719 C 69.65625 9.824219 68.757812 10.210938 67.304688 10.226562 Z M 66.902344 10.636719 "/>
<path style="fill-rule:evenodd;fill:rgb(98.822021%,81.959534%,8.627319%);fill-opacity:1;stroke-width:0.256;stroke-linecap:butt;stroke-linejoin:miter;stroke:rgb(74.116516%,61.175537%,3.137207%);stroke-opacity:1;stroke-miterlimit:4;" d="M 57.476562 9.523438 C 58.589844 10.929688 60.742188 11.902344 62.800781 11.914062 C 65.574219 11.933594 68.648438 9.6875 72.371094 9 L 60.226562 8.75 C 58.65625 7.675781 57.464844 7.8125 56.652344 8.480469 L 54.332031 8.550781 C 54 8.726562 54.601562 9.476562 55.085938 9.503906 Z M 57.476562 9.523438 "/>
<path style="fill-rule:evenodd;fill:rgb(98.822021%,81.959534%,8.627319%);fill-opacity:1;stroke-width:0.256;stroke-linecap:butt;stroke-linejoin:miter;stroke:rgb(74.116516%,61.175537%,3.137207%);stroke-opacity:1;stroke-miterlimit:4;" d="M 62.96875 8.71875 C 62.527344 6.6875 60.898438 5.8125 58.9375 5.554688 C 56.675781 5.253906 51.464844 4.945312 48.007812 3.953125 C 49.503906 5.425781 52.636719 6.160156 54.816406 6.492188 C 57.121094 6.84375 59.367188 7.355469 61.144531 8.699219 Z M 62.96875 8.71875 "/>
<path style=" stroke:none;fill-rule:evenodd;fill:rgb(98.822021%,81.959534%,8.627319%);fill-opacity:1;" d="M 61.496094 10.074219 C 62.222656 11.003906 63.34375 10.949219 64.550781 10.140625 C 65.753906 9.332031 67.058594 7.058594 67.691406 7.019531 C 72.105469 6.761719 77.445312 4.902344 79.992188 3.460938 C 76.765625 3.917969 73.5625 4.4375 70.304688 4.449219 C 64.75 4.472656 64.089844 7.003906 61.824219 8.777344 Z M 61.496094 10.074219 "/>
<path style="fill:none;stroke-width:0.256;stroke-linecap:butt;stroke-linejoin:miter;stroke:rgb(74.116516%,61.175537%,3.137207%);stroke-opacity:1;stroke-miterlimit:4;" d="M 61.496094 10.074219 C 62.222656 11.003906 63.34375 10.949219 64.550781 10.140625 C 65.753906 9.332031 67.058594 7.058594 67.691406 7.019531 C 72.105469 6.761719 77.445312 4.902344 79.992188 3.460938 C 76.765625 3.917969 73.5625 4.4375 70.304688 4.449219 C 64.75 4.472656 64.089844 7.003906 61.824219 8.777344 "/>
<path style="fill:none;stroke-width:0.256;stroke-linecap:butt;stroke-linejoin:miter;stroke:rgb(74.116516%,61.175537%,3.137207%);stroke-opacity:1;stroke-miterlimit:4;" d="M 62.359375 8.980469 C 63.542969 8.226562 64.507812 7.242188 65.617188 6.421875 C 67.449219 5.058594 69.574219 5.019531 71.851562 4.992188 C 73.867188 4.964844 77.40625 4.121094 79.324219 3.671875 "/>
<path style="fill:none;stroke-width:0.256;stroke-linecap:butt;stroke-linejoin:miter;stroke:rgb(74.116516%,61.175537%,3.137207%);stroke-opacity:1;stroke-miterlimit:4;" d="M 61.128906 8.625 C 60.777344 6.808594 59.078125 6.265625 56.929688 5.941406 C 54.597656 5.585938 52.214844 5.386719 49.882812 4.742188 C 49.304688 4.582031 48.765625 4.300781 48.207031 4.082031 "/>
<path style="fill:none;stroke-width:0.256;stroke-linecap:butt;stroke-linejoin:miter;stroke:rgb(74.116516%,61.175537%,3.137207%);stroke-opacity:1;stroke-miterlimit:4;" d="M 61.871094 11.304688 C 64.0625 11.464844 65.691406 10.804688 67.5625 9.871094 "/>
<path style="fill:none;stroke-width:0.256;stroke-linecap:butt;stroke-linejoin:miter;stroke:rgb(74.116516%,61.175537%,3.137207%);stroke-opacity:1;stroke-miterlimit:4;" d="M 54.320312 8.925781 L 57.085938 8.925781 "/>
<path style=" stroke:none;fill-rule:evenodd;fill:rgb(74.116516%,61.175537%,3.137207%);fill-opacity:1;" d="M 58.320312 8.628906 C 58.320312 8.816406 58.164062 8.972656 57.972656 8.972656 C 57.78125 8.972656 57.628906 8.816406 57.628906 8.628906 C 57.628906 8.433594 57.78125 8.28125 57.972656 8.28125 C 58.164062 8.28125 58.320312 8.433594 58.320312 8.628906 Z M 58.320312 8.628906 "/>
<path style=" stroke:none;fill-rule:evenodd;fill:rgb(99.998474%,99.998474%,99.998474%);fill-opacity:1;" d="M 0 36.570312 C 4.265625 36.570312 8.535156 39.316406 12.800781 39.316406 C 17.066406 39.316406 21.332031 36.570312 25.601562 36.570312 C 29.867188 36.570312 34.132812 39.316406 38.398438 39.316406 C 42.667969 39.316406 46.933594 36.570312 51.199219 36.570312 C 55.464844 36.570312 59.734375 39.316406 64 39.316406 C 68.265625 39.316406 72.535156 36.570312 76.800781 36.570312 C 81.066406 36.570312 85.332031 39.316406 89.601562 39.316406 C 93.867188 39.316406 98.132812 36.570312 102.398438 36.570312 C 106.667969 36.570312 110.933594 39.316406 115.199219 39.316406 C 119.464844 39.316406 123.734375 36.570312 128 36.570312 L 128 32 C 123.734375 32 119.464844 34.742188 115.199219 34.742188 C 110.933594 34.742188 106.667969 32 102.398438 32 C 98.132812 32 93.867188 34.742188 89.601562 34.742188 C 85.332031 34.742188 81.066406 32 76.800781 32 C 72.535156 32 68.265625 34.742188 64 34.742188 C 59.734375 34.742188 55.464844 32 51.199219 32 C 46.933594 32 42.667969 34.742188 38.398438 34.742188 C 34.132812 34.742188 29.867188 32 25.601562 32 C 21.332031 32 17.066406 34.742188 12.800781 34.742188 C 8.535156 34.742188 4.265625 32 0 32 Z M 0 36.570312 "/>
<path style=" stroke:none;fill-rule:evenodd;fill:rgb(99.998474%,99.998474%,99.998474%);fill-opacity:1;" d="M 0 45.714844 C 4.265625 45.714844 8.535156 48.457031 12.800781 48.457031 C 17.066406 48.457031 21.332031 45.714844 25.601562 45.714844 C 29.867188 45.714844 34.132812 48.457031 38.398438 48.457031 C 42.667969 48.457031 46.933594 45.714844 51.199219 45.714844 C 55.464844 45.714844 59.734375 48.457031 64 48.457031 C 68.265625 48.457031 72.535156 45.714844 76.800781 45.714844 C 81.066406 45.714844 85.332031 48.457031 89.601562 48.457031 C 93.867188 48.457031 98.132812 45.714844 102.398438 45.714844 C 106.667969 45.714844 110.933594 48.457031 115.199219 48.457031 C 119.464844 48.457031 123.734375 45.714844 128 45.714844 L 128 41.144531 C 123.734375 41.144531 119.464844 43.886719 115.199219 43.886719 C 110.933594 43.886719 106.667969 41.144531 102.398438 41.144531 C 98.132812 41.144531 93.867188 43.886719 89.601562 43.886719 C 85.332031 43.886719 81.066406 41.144531 76.800781 41.144531 C 72.535156 41.144531 68.265625 43.886719 64 43.886719 C 59.734375 43.886719 55.464844 41.144531 51.199219 41.144531 C 46.933594 41.144531 42.667969 43.886719 38.398438 43.886719 C 34.132812 43.886719 29.867188 41.144531 25.601562 41.144531 C 21.332031 41.144531 17.066406 43.886719 12.800781 43.886719 C 8.535156 43.886719 4.265625 41.144531 0 41.144531 Z M 0 45.714844 "/>
</g>
</svg>
