<svg viewBox="0 0 1000 714" xmlns="http://www.w3.org/2000/svg"><path d="m0 0h1000v714h-1000z" fill="#244aa5"/><path d="m395.347656 338.804688s1.859375-1.25 2.535156-1.417969c.679688-.167969 3.078126-.917969 3.078126-.917969s1.539062-.792969 2.351562-.792969c.859375 0 2.535156.921875 3.078125 1.710938.496094.789062 3.207031 2.167969 3.207031 2.167969s1.855469.621093 2.21875 0c.363282-.625 1.175782-1.082032 2.035156-1.082032.863282 0 .996094-.796875.996094-1.417968 0-.625.363282-1.417969.992188-2.167969.683594-.789063 2.039062-1.25 2.039062-1.25s1.851563-.792969 2.035156-1.875c.183594-1.082031 2.035157-1.875 3.078126-2.039063.996093-.167968 0-.628906 2.710937-.335937 2.71875.335937 3.078125-.625 3.214844-1.417969.179687-.789062 0-1.582031 1.71875-1.417969 1.714843.171875 2.53125.171875 2.53125-.789062 0-.914063 1.539062-1.414063-1.175781-2.167969-2.714844-.789062-2.53125-.164062-2.714844-1.414062-.179688-1.25 0-1.085938-1.851563-1.25-1.855469-.167969-.859375-1.085938-.996093-2.042969-.183594-.914063-.679688-1.414063-.996094-2.042969-.359375-.625-1.355469-.625-1.355469-1.542969 0-.914062-.183594-1.414062-1.179687-1.414062-.992188 0-1.355469 0-1.355469-.917969 0-.914062.179687-1.703125 1.175781-1.703125s1.539062-.796875 1.359375-1.710937c-.183594-.917969-.183594-2.960938-.183594-2.960938l1.359375-1.582031s4.070313-3.292969 4.433594-3.917969c.359375-.621094 1.714844-1.082031 2.351562.167969.679688 1.253906.992188 1.585937 1.535157 2.164062.5.625 2.039062.167969 2.351562-.453125.363281-.625.5-2.921875 1.402344-4.167968.90625-1.207032 1.539063-1.832032 1.769531-2.832032.222656-1.003906.675782-1.835937 1.761719-1.835937s1.761719-1.417969 1.761719-2.25.457031-1.621094 1.765625-1.832031c1.3125-.210938 1.992187-1 2.445312.210937.453125 1.203125.902344 1.203125 1.761719 1.621094.910156.414062 2.21875 1 2.855469.414062.675781-.621093.992187-1.621093 1.984375-1 .953125.628907 1.628906 0 1.859375-1.207031.222656-1.207031.453125-2.832031.453125-2.832031s.222656-.835938 1.761718-.835938c1.539063 0 .453126-1 1.308594-1.621093.90625-.625.90625-1.210938 1.992188-.835938 1.085937.417969 2.847656-.5 1.992187-1.5-.90625-.996094-2.851562-2.621094-1.765625-3.875 1.085938-1.207031 1.539063-3.25.453125-3.453125-1.085937-.210937-2.671875.203125-2.847656-1.003906-.230469-1.207031-.679687-2.039063.675781-2.25 1.3125-.207031 3.527344-.207031 4.207032-.832031.675781-.625 2.851562-1 2.851562-2.832032 0-1.832031.675781-2.042968.902344-3.042968.230468-1 .230468-3.128907-.679688-4.128907-.902344-1-2.214844-2.457031-2.441406-3.039062-.226562-.625-1.082031-1.625-2.445312-2.039063-1.308594-.417968-2.441407-.628906-2.441407-1.628906s.90625.210938.90625-2.457031c0-2.621094-1.765625-3.042969-1.765625-3.042969l-2.664062-1.621094s-4.710938-1.253906-5.972656-1.253906c-1.265626 0-2.71875-1.332031-1.265626-2.164062 1.445313-.835938 1.808594-2.335938 1.265626-3.5-.542969-1.167969-.90625-2-2.894532-2.5-1.992187-.5-2.535156-1-1.632812-2.167969.90625-1.164063 1.085937-1.996094 2.175781-1.164063 1.085937.832032 2.894531 1.164063 4.339844.5 1.449219-.667968 1.992187-1.167968 2.714843-.5.722657.667969 1.628907 1.332032 2.714844.332032 1.082032-1 3.074219-1.164063 3.976563-.664063.910156.5 3.078125.332031 3.804687 0 .722656-.335937 2.167969-1.503906 2.167969-2.171875s.90625-1.832031 1.8125-2.332031 1.992187-2.167969 2.894531-2.167969c.90625 0 1.265625-1 1.265625-1.667969 0-.664062.726563-1.996093.90625-2.496093.179688-.5 1.988281-1.210938 3.257813-.167969 1.265625 1 2.894531 1.332031 2.894531 1.332031s1.808594.335938 2.714844 0c.902343-.332031 2.171875-.664062 3.4375.167969s3.078125.832031 3.078125.832031.359375-1.332031.359375-2c0-.664062.359375-1.832031-.359375-2.332031-.726563-.5-1.632813-1.167969-.183594-2.164063 1.449219-1 1.449219-.835937 2.894531-.835937 1.449219 0 2.351563.167969 3.4375.167969 1.085938 0 2.894531 1 2.894531 2s.726563 1.664062 1.632813 2.164062c.902344.5 1.988281 1 1.628906 1.835938-.363281.832031-.363281 1.496093.722657 1.332031 1.085937-.167969 1.445312.5 1.445312 1.332031s.363281 1.332031 1.449219 1.667969c1.085937.332031 1.628906 1 1.628906 1.832031s-.183594 1.332031.179687 2.167969c.363282.835937 1.445313 2.167969 1.445313 2.167969s1.992187 2.332031-.539063 1.167968c-2.535156-1.167968-3.078124-1.667968-3.980468-1.5-.90625.167969-1.449219.667969-1.449219.667969s-1.265625.332031-2.171875.332031c-.902344 0-1.808594 1.832032-.359375 2.164063 1.445313.335937 1.988281.667969 1.988281 1.835937 0 1.164063-.542968.832032-1.269531 1.664063-.71875.832031-1.261719.332031-2.527344.332031-1.269531 0-1.632812 1-1.632812 2s.546875.835938 1.089843 1.667969c.542969.832031 1.445313 1 2.351563.167969.902344-.835938 1.628906-1.335938 2.167969.164062.542968 1.5 1.269531 1.5 2.355468 1.5 1.082032 0 1.449219 0 2.351563-.5.90625-.5 1.992187 0 2.167969 1.332031.183594 1.335938 1.089844 1.5 1.992187 2 .902344.5 1.449219.835938 1.628907 1.667969.179687.832031.722656 1.167969 1.628906.667969s2.355468-.835938 2.898437-.167969c.539063.667969 1.445313 2.003906 1.445313 2.003906l.179687 1.667969 3.4375 1.164063s.363281.832031.363281 1.5c0 .667968.542969 1 1.449219.832031.902344-.164063 2.53125 0 2.53125 0s1.269531-.5 1.269531-1.5.542969-1.332031 1.445313-1.332031c.90625 0 2.894531.667968 3.4375-.332032s2.171875-1.332031 3.441406-.832031c1.261719.5 4.519531 1.832031 4.519531 1.832031s-.359374.164063.726563 1.832032c1.085937 1.667968 3.074219 1.667968 3.074219 1.667968s.179687 1.496094.546875 2.164063c.359375.667969 1.984375 1 2.894531.332031.902344-.664062 2.167969-1.5 3.253906-1.5 1.085938 0 1.808594 0 1.808594-.664062 0-.667969-1.082031-1.167969-1.082031-2.167969s1.082031-1 1.265625-2c.183594-.996094 1.265625 0 1.988281.5s1.632813 1.335937 1.632813 2c0 .667969 1.445312 3 2.351562 3.332031.902344.335938 3.253906.5 3.976562-.332031.726563-.832031 2.535157-1.164063 2.355469.832031-.183593 2-.542969 2.167969.722657 2.835938 1.269531.664062 1.445312 2.996093.359374 3.664062-1.082031.667969-1.445312.832031-1.445312 2s-.363281 2.5.542969 3.171875c.902343.664063 1.445312 1.164063 1.445312 1.832031 0 .664063 1.085938 3.664063 1.085938 3.664063s.546875 3 .363281 3.667969c-.179688.664062-.542969 1.832031 1.085938 1.664062 1.628906-.164062 1.992187-.164062 1.992187 1.167969s.542969 1.832031-.363281 2.332031c-.902344.5-1.445313 2.167969-.542969 2.5.90625.332031 1.628906.832031 1.808594 1.5.183593.667969 1.628906 1.832031 2.535156 1.167969.902344-.667969 1.085937-1 1.808594-1.167969.726562-.167969 1.269531-.667969.542969-1.5-.722657-.832031-.90625-1.667969-.179688-2.167969.722656-.5 1.082031-2.164062 1.082031-2.164062s1.089844-1.5 2.355469 0 1.449219 1 2.351562 1c.90625 0 1.265626.832031 1.265626 1.664062 0 .835938 1.808593.667969 1.808593 2 0 1.335938.367188 4.503907.367188 4.503907s0 1.832031 1.082031 2.5c1.085938.667968.90625.832031.363281 1.667968-.542969.832032-.363281 2.164063-.363281 2.832032 0 .664062.363281 1-.542969 1.664062-.90625.667969-1.265625 1.5-.722656 2.5s.359375 1.667969 1.808594 2.832031c1.445312 1.167969 1.269531 1.667969 1.269531 2.5 0 .835938 1.445312 2 1.445312 2.835938 0 .835937 1.082032 1.835937 1.992188 2.003906.902344.164063 1.992188 1.664063 1.992188 2.496094 0 .835937.175781 3 .175781 3s-.175781.5.90625.5c1.085937 0 1.8125 1.167969 2.171875-.164063.359375-1.335937 1.449218-1.5 2.171875-1.835937.722656-.332031 2.171875-1 2.894531-.5s1.628906.5 2.351562.5c.722657 0 4.160157.167969 4.160157.167969s.90625-.167969 1.449219 1.167968c.542968 1.332032 2.171874 2.832032 1.269531 3.496094-.90625.667969-.90625 2 .179687 2 1.085938 0 2.171875 0 2.171875.835938 0 .832031.179688 1.496093 1.085938.996093s1.449219-.664062 1.808593 0c.359376.667969 1.085938.667969 1.992188 1.167969.902344.5 1.265625.167969 1.808594-.5.542968-.667969 2.714844-1.332031 2.714844-1.332031s2.894531-.667969 3.980468-.332031c1.082032.332031 2.53125.996093 2.53125.996093s.726563 1.667969.363282 2.667969c-.363282 1-.722657.832031-.363282 2.332031.363282 1.5-.359375 1.667969-1.082031 1.5-.726563-.164062-1.449219-.164062-1.449219 1.171875 0 1.332032-.722656 1.664063-.722656 2.832032 0 1.167968 0 1-.726562 1.5-.722657.5-.90625 1.332031.179687 1.5 1.089844.167968.726563 1.332031.726563 2 0 .664062-.179688 2.164062-.179688 2.164062s.179688.835938-1.089844.835938c-1.265625 0-2.351562-.167969-2.53125.664062-.179687.832031-1.628906 2.167969-.363281 3 1.269531.832031.90625 1.332031.183594 1.667969-.726563.332031-1.269531 2 .179687 2.5 1.445313.5 1.265625 1 .363282 1.667969-.90625.667968-2.714844 1.167968-2.714844 2.167968s-.363282 1-1.449219 1.164063c-1.085937.167969-1.628906 1.5-.359375 3.167969 1.265625 1.664062 1.628906 1.332031 2.53125 1.332031.90625 0 .90625-1.332031.90625-1.332031s3.078125.167968 3.980469.167968c.90625 0 2.167969 0 2.894531-.5.722656-.5 2.714844-1.335937 2.714844.164063s.363281 1.332031 1.269531 2c.902344.667969 1.082031.167969 1.804687 1.167969.722657 1 .90625.164062 1.449219-1 .542969-1.167969 1.628907-2.332032 2.535157-1 .902343 1.332031.902343 1 1.988281 1 1.085937 0 1.449219.5 1.449219 1.332031s1.082031.832031 2.351562.667969c1.265625-.167969 1.449219.664062 1.992188 1.5.542968.832031.71875.664062 1.445312.664062.722656 0 1.449219 0 1.992188-.664062.542968-.667969 1.265624-1.5 1.988281-.5.722656 1 2.171875.832031 2.535156-.335938.363281-1.164062 1.992187-2.164062 2.894531-.832031.90625 1.332031 1.628906 1.332031 2.53125 1.5.90625.167969 2.171875.167969 2.714844 1s2.351562 2.164062 1.085938 3.164062c-1.265626 1-2.714844 2.335938-1.628907 2.667969 1.085938.332031 1.808594.667969 2.535157 1.5.722656.835938 3.074218 1.171875 4.160156 1.335938 1.085937.167968 1.992187.335937 3.261718-.664063 1.261719-1.003906 2.527344-1.003906 2.351563.332031-.183594 1.332032.542969 2.832032.542969 2.832032s.902344 2.167968.902344 3c0 .832031-.183594 1 1.449218 2 1.628906 1 1.445313 1.664062 2.710938.664062 1.269531-1 1.628906-1.5 1.628906-2.332031v-2.664063s1.808594-.335937 2.535156-.835937c.722656-.5 3.617188-1.996094 4.34375-1.332031.71875.667968 1.625.5 2.351563.167968.722656-.332031 2.167969-.332031 2.894531-.332031s1.988281.164063 3.4375-1c1.449219-1.171875 1.449219-.835937 2.351562 0 .90625.832031.90625 1.832031.359376 2.496094-.539063.667969 0 2.167969 1.269531 2.167969 1.265625 0 1.632812.667968 1.632812 1.5 0 .832031.175781 2 .359375 2.664062.179688.667969.179688 1 2.167969 1.5 1.992187.5 1.632813 1.667969 1.992187 2.5.363282.832031.363282 1.5-.722656 1.5-1.085937 0-1.445312.5-1.628906 1.332031-.179688.835938-1.808594 1.167969-1.808594 1.167969l-1.628906-.332031s-1.085938 0-1.632812.664062c-.539063.667969-1.625 2-.902344 3.171875.726562 1.167969.726562 1.832032 0 2.332032-.722656.5-1.082032 3-1.808594 2.5s-1.628906.167968-2.351562.5c-.726563.332031-.542969 2.664062.902343 3.5 1.449219.832031 1.808594 2 1.808594 2l1.632813 2.496093s-.542969.5-.90625 1.335938c-.359376.832031-1.445313 2.5-.359376 2.832031 1.082032.332031.539063 2.167969-.542968 2.167969-1.085938 0-2.355469-.5-2.535156.835937-.183594 1.332032-.726563 1-1.8125.832032-1.082032-.164063-3.800782-.832032-4.519532.5-.726562 1.332031-.90625 1.832031-2.175781 1.667968-1.261719-.167968-.71875 2-.359375 2.832032.359375.832031 1.628906 2 1.628906 2s1.082032.832031 1.082032 2.5c0 1.664062-.71875 1.5-1.445313.332031-.722656-1.167969-2.167969-1-2.351563.332031-.179687 1.335938-.363281 3.332031-1.625 3.332031-1.269531 0-1.8125.335938-2.355468 1-.542969.667969-1.449219 1.835938-1.449219 2.5 0 .667969-.179687 1.335938-1.082031 1.5-.910156.167969-1.085938 2.003907-1.085938 2.003907s-2.175781.335937-2.351562 1.167968c-.183594.832032.175781 2.164063-1.632813 2.332032-1.808593.167968-2.894531 1.332031-3.4375 2.167968-.542969.832032-.726562 1.496094 0 2.332032.722657.832031 1.265625 3.5 2.175781 4 .902344.5 1.625.664062 1.445313 1.996093-.183594 1.335938-1.269531 2.335938.179687 2.335938 1.445313 0 2.351563.332031 1.8125 1.5-.542968 1.164062-.542968 1.332031-1.632812 1.832031-1.085938.5-1.628906.5-1.628906 1.835938 0 1.332031.363281 1.332031-.542969 1.832031-.902344.5-.902344 1.167969-.902344 2.167969s-.363281.667968-1.449219 1.832031c-1.085937 1.167969-2.535156 1.167969-3.4375.832031-.90625-.332031-1.085937-.332031-1.265624-1.332031-.183594-1-1.8125-1-2.714844-.832031-.90625.167968-2.171875 1.167968-2.171875 1.167968s-1.628907.996094-.902344 1.832032c.722656.832031.359375 2.164062-.90625 2-1.269531-.167969-4.164063 1.332031-5.066406-.167969-.90625-1.5-3.4375-2.5-3.800781-.5-.363282 2 1.082031 1.832031.90625 3.832031-.183594 2-.542969 2-1.269532 2.667969-.722656.664062-.722656 1.164062-.90625 2-.175781.832031-.359375 2.667969.90625 3.335937 1.269532.667969 1.8125 2.5 1.8125 3.5s0 2 1.265625 2c1.269531 0 2.351563-.167968 2.53125-1.335937.183594-1.164063 2.714844-1.832031 2.898438.5.179687 2.332031.179687 3.5 1.085937 4.5.902344 1 1.625 2.332031 2.351563 2.832031.722656.5 1.945312 4.753906 1.945312 4.753906-1.765625.375-2.214843 2.664063-3.347656 3.121094-.636719.253906-1.3125.042969-1.898437.460938-.453126.335937-.453126.957031-1.089844 1.25-1.308594.585937-1.085938-1.457032-2.667969-.710938-1.449219.667969-1.582031 2.332031-3.664063 1.628906-1.085937-.375-1.765624-4.628906-2.082031-5.628906-.183593-.578125-1.308593-2.332031-1.671875-2.875-1.222656-1.832031-3.664062 0-4.433594-.542969-1.222656-.832031-.679687-2.246093-2.535156-2.414062-3.753906-.25-1.085937 2.289062-2.667968 2.875-3.027344 1.082031-3.027344-2.832031-5.292969-1.042969-.859375.667969 1.355469 1.082031.816406 2.253906-.457031.957032-2.671875 2.414063-2.535156 3.539063.179687 1.539062 1.855469 2.003906 2.351562 3.292969 1.359375 3.417968-.902343 5.789062-4.296875 3.121093-1.898437-1.5-2.261718-4.289062-5.203125-4.078125-.675781.039063-.90625.746094-1.585937.832032-.675782.039062-1.21875-.628907-1.945313-.417969-1.082031.375-.132812 1.125-.359375 1.75 0 0-1.449218 1.207031-1.671875 1.539062-.816406 1.085938-.542969 2.042969-1.722656 2.917969-.992187.753906-1.761719.292969-2.847656 1.457031-1.132813 1.210938-1.21875 3.003907-2.667969 4.171875-.726562.578125-1.222656-1.753906-2.125-.210937-.136719.210937-.273438.414062-.363281.625-.226563.457031-.273438.664062-.042969 1.164062 1.898438 3.667969-2.082031 5.042969-3.304688 7.628907-.542968 1.082031.953126 2.082031.363282 2.914062-.40625.628906-2.175782 2.335938-2.3125 2.707031-.132813.378907-.3125 1.210938-.628906 1.5-.320313.335938-1.402344.167969-1.492188.667969-.09375.585938 1.132812 1.042969 1.445312 1.417969.40625.457031-.179687 1.085937-.042968 1.210937 2.035156 2.039063.8125 1.414063 1.851562 3.207032.136719.246093.773438-.210938.996094.457031.226562.625-.496094.585937-.222656 1.289062.042968.210938 1.492187 2.085938 1.492187 2.128907.085938.625-2.761719 1.914062-3.398437 1.914062-1.714844.042969 1.496094-3.542969-1.308594-3.542969-1.21875 0-1.3125 2.796875-1.628906 3.085938-.132813.125-1.265625 0-1.535156 0-1.8125 0-2.988282 2.253906-3.714844 2.457031-.449219.167969-1.445313-.246094-2.214844-.125-.722656.125-1.582031.832031-2.261719.832031-.453125 0-.675781-.289062-1.042969-.496093-.8125-.457032-2.304687-.667969-3.210937-.957032-.496094-.167968-1.445313.621094-1.761719.414063-.589844-.371094.40625-1.414063-.949218-2.167969-.183594-.082031-1.175782-2.5-1.132813-2.625.453125-1.582031.949219-3.292969.726563-4.957031-.273438-1.707031-2.941407-3.167969-3.667969-4.542969-.542969-1.039062-1.039063-3.789062-2.082031-4.5-1.125-.746094-2.167969-2.207031-2.757813-3.332031-.179687-.332031.363281-.917969-.042969-1.5-.453125-.625-1.3125-.875-1.539062-1.710938-.179688-.664062 0-2.832031-.769532-3.289062-.859374-.5-6.378906-1.164063-7.738281-1.292969-.722656-.039062-1.265625-.039062-1.808593-.582031-.222657-.207031-.589844-1.085938-.765626-1.085938-.542968-.035156-1.179687.253907-1.722656.296875-.40625.039063-1.082031-.253906-1.445312 0-1.765625 1.203125-2.214844 2.746094-3.890625 4.042969-1.71875 1.289063-3.617188 1.246094-5.339844 2.746094-1.085937.957031-1.808594 3.25-2.894531 4.332031-.453125.460938-1.171875 0-1.355469.207031-.90625 1.125-2.171875 1.792969-3.078125 2.835938-.179688.207031-.136719.628906-.359375.792969l-1.945313.5c-.5.082031-1.449218-.042969-1.855468.082031-.90625.289062-.863282 1.25-3.9375 1.875-.226563.042969-.632813.25-.8125.375-.363282.25-.632813.625-.992188.875-.230468.167969-.910156-.125-1.316406-.082031-.765625.121093-1.21875.789062-1.945312.875-1.625.210937-4.25-.753907-5.515626-.253907-.773437.296875-2.898437 2.667969-3.667968 2.917969-.496094.167969-.855469-.042969-1.402344-.25-.273438.332031-.902344 2.917969-1.128906 3.503906 0 .039063-3.484375 2.957032-3.753906 3.289063-.453126.5-.636719 1.042969-1.179688 1.585937-.359375.371094-.949219.703125-1.539062.703125-.722657 0-1.808594-.535156-2.484376-.664062-1.3125-.207031-5.25-.371094-6.421874-.125-1.226563.253906-.859376 3.75-3.890626 4.085937-1.769531.207032-3.394531.542969-5.207031.707032-.179687 0-1.265625-.75-2.351562-.460938-.40625.128906-1.714844 1.460938-1.714844 1.875v.753906c0 .121094.359375.578125.3125.621094-.679687.792969-2.21875 2.042969-2.714844 2.957031-.132812.253907-.316406.542969-.539062.710938-.410157.289062-2.488281 1.085937-2.671875 1.457031-.496094 1.25 1.449218 2.417969 1.265625 2.917969-.539063 1.625-2.714844 3.164062-3.390625 4.664062-.273438.628907.722656 2.710938.675781 3.417969-.222656 1.957031-.902344 4.457031-.8125 6.375 0 .378906.269531 2.335938.40625 2.542969.226563.375.722656.582031 1.042969.914062.316406.335938 2.710937 5.003907 2.804687 5.503907.449219 3.457031-4.570312 2.246093-1.675781 5.707031.453125.539062.816406 1.125 1.3125 1.582031.632812.628906 4.34375 3.332031 4.390625 3.628906.089844.5-2.988281 1-3.53125 1.542969-1.445313 1.414063-2.667969 4.035156-4.074219 5.496094-.855468.914062-1.625-.085938-2.757812 2.042969-.40625.789062 0 2.582031-.496094 3.082031-.722656.75-1.3125-.25-2.035156.085937-.316406.121094-.5 1.042969-.8125 1.289063-.816406.707031-8.054688 4.542969-8.730469 4.207031-.367187-.164062-.773437-1.375-.820313-1.75-.085937-.414062-.542968-1.332031-.902343-1.625-1.855469-1.578125-4.703125-1.875-6.511719.042969-.453125.5-.5 1.25-1.085938 1.75-.996093.835937-2.128906 1.582031-3.078124 2.417969-.179688.164062-.722657.789062-.949219.75-.722657-.085938-2.488281-2.085938-2.941407-2.628907-.8125-.957031-3.164062-3.246093-3.394531-4.332031 0-3.707031-2.894531-7.582031-4.117187-11.207031l1.8125.042969c2.035156-1.375 1.449218-4.75 5.109375-3.417969.453125-.621094.410156-1.289063 1.269531-1.75.316406-.167969.90625-.335938 1.085938-.625 1.21875-1.875 2.667968-9.039063 1.402343-10.875-1.132812-1.664063-2.308593-1.582031-3.214843-4.335938-.269532-.746093.230468-1.625 0-2.457031-.175782-.664062-1.402344-4.621094-1.578126-4.917969-.230468-.332031-.996093-.746093-1.042968-.957031-.042969-.332031-.316406-4.621094-.179688-4.953125-1.226562-3.339844-5.339844-5.460937-5.566406-5.839844-.5-.789062-.996094-1.832031-1.539062-2.707031-.632813-1.039062-.632813-1.582031-.996094-2.582031-.132813-.457031-.8125-.832031-.859375-1.332031-.089844-.875 2.398437-2.710938 2.3125-4.25-.046875-.5-1.585938-2-1.269531-2.835938.3125-.875 1.898437-2.832031 1.851562-3.792969-.085938-1.289062-2.488281-4.078125-2.800781-5.457031-.136719-.664062.949219-1.207031.679687-1.664062-.320312-.585938-2.855468-2.875-3.261718-3.542969-.316407-.5.949218-1.167969.046874-2.085938-.8125-.832031-.136718-.535156-.363281-1.246093-.273437-.789063-1.175781-1.5-1.535156-2.332032-.316406-.710937-2.492187-8.542968-2.445313-9.003906-.359374-.542969-.996093-1-1.308593-1.542969-.316407-.539062-.453125-1.582031-.726563-2-.042968-.035156-2.445312-.746093-2.894531-1.457031-.363281-.578125-.453125-2.5-1.082031-3.453125-.320313-.464844-.820313-.378906-1.179688-.710937-.316406-.253907-.269531-.710938-.496094-1-.722656-1-2.175781-.085938-3.171874-3.75-1.308594-.914063-2.527344-1.710938-3.660157-2.835938-.226562-.207031-.359375-.457031-.632812-.582031-.90625-.375-2.261719-.5-3.035157-1.167969-.449218 0-2.847656-.082031-3.117187-.25-.273437-.164062-.542969-1.207031-.726563-1.25-1.265624-.246094-3.347656-.125-4.433593-1.039062-.859375-.75-1.035157-4.375-2.574219-3.875-.183594-.085938-.40625-.164063-.636719-.128907-.996093-1.289062-4.433593-1.457031-5.835937-2.289062-.40625-.25-1.71875-.042969-1.71875-.417969.316406-.707031.226562-1.289062.273437-2-.773437-.746094-1.265625-1.625-1.808593-2.167969-1.316407-.289062-.816407-.414062-1.628907-.914062-2.261719-.164063-2.488281.207031-3.9375 1.542969-.359375.335937-1.085937.414062-1.539062.667968-.765625.414063-.996094 1.789063-2.082031 1.167969-.359376-.210937-.589844-.542969-.859376-.796875-.632812-.539062-.992187-.246094-1.308593-1.246094-1.855469-1-6.96875 2.457032-8.1875.042969-.863281-.464844-1.492188.121094-2.21875-.628906-.363281-.375.996093-4.542969-2.714844-6.25.859375-.667969 1.765625-1.125 2.582031-1.75.222656-.457031-.046875-1.164063-.046875-1.621094 0-.710937.453125-2.085937.316407-2.585937-.136719-.5-.679688-.917969-.859376-1.5-.226562-.585938.046876-1.332032-.273437-1.960938-.222656-.167969-.902344-.582031-1.171875-.582031-.953125-.789063-1.992188-1.289063-2.765625-2.25-.175781-.207031-.3125-.582031-.542969-.75-.675781-.5-2.894531-1.164063-2.800781-2.207031.042969-.335938.496094-.378907.632813-.710938.136718-.414062.046874-.957031.359374-1.332031 1.042969-1.414063 3.347657-.789063 2.988282-3.417969-.183594-1.167969-.996094-2.167969-1.222656-3.414062-.40625-.289063-.453126-.792969-.8125-1.085938-2.261719-.207031-1.945313-2.542969-2.761719-3.078125-2.394531-1.628906-4.253907-.628906-1.582031-3.839844.359374-1.035156-2.304688-2.703125-2.851563-3.289062-.949219-.917969-.496094-2.832031-.855469-3.832031-.183594-.5-1.769531-1.375-2.265625-2.085938-.136719-.207031-.542969-1.289062-.765625-1.414062l.042969-.332032c.5-.375.226563-1.128906.089844-1.628906-.316407-.289062-.992188-.203125-1.222657-.414062-2.167968-1.960938-4.792968-2.832032-7.640624-3.960938-.773438-.289062-.546876-.914062-1.179688-1.203125-.542969-.253906-4.386719-1.964844-4.65625-1.878906-.453125-.125-.773438-1.832031-1.089844-2.375-.273437-.5-1.355468-1.417969-1.355468-1.460938.089843-1.582031-.90625-1.789062-2.125-2.621093.089843-.210938-.136719-.710938-.136719-.957032 0-.210937.816406-2.960937.949219-3.335937.226562-.585938.996093-1.125.863281-1.792969-.183594-1.039062-.320313-2.667969-.683594-3.582031-1.222656-3.25-2.667969-2.832031-1.898437-7.082031.179687-.875-.136719-1.375.542968-2.167969-.089844-.042969.316406-.460938.363282-.542969.40625-.375 1.539062-1 1.761718-1.289062.679688-.917969 1.085938-3.003907 1.945313-3.667969.632812-.5 2.441406-1.457031 2.761719-1.871094.269531-.335937.675781-1.378906.453124-1.796875-.636718-.371094-1.269531-.203125-1.902343-.289062-.226563-.042969-1.039063-.625-1.675781-.753907-.175782-.203125-.496094-.457031-.496094-.746093l-.269532-.253907c-.726562-.082031-1.539062-.539062-2.171874-.746093-.8125-.335938-1.945313-.375-2.714844-.832032-1.445313-.835937-3.078125-3.128906-4.476563-3.460937-1.902343-.417969-3.125.164062-4.933593.25-1.171876.082031-1.171876-.625-2.128907-.917969-1.261719-.371094-.3125.667969-3.207031-.25-.363281-.289062.179688-1.289062.226562-1.664062-.457031-.125-.996093.125-1.539062 0-2.398438-.585938-1.492188-2.753907-2.128906-4.164063-.269532-.335937-1.261719-.253906-1.71875-.296875-.132813-.039062-.179688-.246094-.132813-.332031l.222657-.167969c.40625-.625-1.039063-2.207031-.996094-2.414062.09375-.5 3.035156-.960938 3.441406-1 .136719-.375-.269531-.710938-.316406-1.085938-.089844-.832031.453125-1.914062.726562-2.664062l-.09375-.253907c-.816406-.457031-1.085937-1.125-1.8125-1.664062.046875-.371094.542969-.625.636719-1 1.402344-3.875 3.574219-.792969 5.472656-4.375.183594-.335938.722657-1.207031.90625-1.792969l.359375-.078125c.367188.078125.863282.371094 1.222656.246094.269532-.375.859376-.5 1.3125-.625l.679688.167969c3.527344-.753907 2.710938-2.042969 4.75-3.5.542969-.375 2.125-.542969 2.847656-.792969.769532.332031 1.855469 1.539062 3.300782 2.082031 1.042968.417969 4.617187 1.167969 5.207031 1.5.765625.421875.902343 1.421875 1.578125 1.792969 2.039062 1.082031.863281-.75 2.808594-.371094 1.992187.414063 3.617187 2.035156 5.476562 2.832031.3125.121094 1.082031-.042968 1.445312-.128906.585938-.125 3.753907-.707031 4.070313-.582031.359375.125.902344.457031 1.269531.542969.449219.082031.8125-.875 1.128906-.832032 1.355469.203125 1.398438.746094 3.210938.578125.089844 0 .949219-5.082031 1.808594-5.332031.5-.121094 1.855468 1.210938 2.261718 1.292969.679688.164062-.046874-1.042969-.085937-1.125-.183594-.417969-1.132813-3.542969-1.089844-3.832031.046875-.167969.90625.246093 1.3125.125.996094-.335938 2.351563-.585938 3.078125-1.378907.089844-.078125 1.628906-2.289062 1.671875-2.375.089844-.371093-.40625-1.246093-.179687-1.539062.222656-.25 1.085937-.582031 1.492187-1 .589844-.582031.675781-1.582031 1.492188-2 3.210937-.292969 4.34375-2.792969 7.238281-3.125.179688 0 .8125-.125.949219-.085938l.589843.960938c.179688.25 2.125 1.414062 2.445313 1.335937.269531-.042968.40625-.5.675781-.585937.585938.085937 2.21875-.914063 2.394532-1.414063.046874-.085937-.359376-.585937-.175782-.921875.132813-.246093 2.167969-1.746093 2.488282-1.910156.71875 0 1.492187-.167969 2.167968.078125.40625.167969.453125.792969.902344.875.5.042969 1.402344-.164062 1.769531-.082031.40625.082031.589844-.75 1.085938-.792969zm0 0" fill="#d0a650" fill-rule="evenodd"/><g fill="#fff" stroke="#fff" stroke-linecap="square" stroke-miterlimit="3.239307"><path d="m534.234375 150.089844-9.621094 29.613281 25.191407-18.300781 25.1875 18.300781-9.621094-29.613281 25.195312-18.304688h-31.140625l-9.621093-29.609375-9.621094 29.609375h-31.140625zm0 0"/><path d="m632.328125 167.386719-9.621094 29.617187 25.1875-18.304687 25.195313 18.304687-9.625-29.617187 25.191406-18.300781h-31.136719l-9.625-29.617188-9.621093 29.617188h-31.136719zm0 0"/><path d="m725.925781 201.453125-9.621093 29.613281 25.191406-18.300781 25.191406 18.300781-9.621094-29.613281 25.191406-18.300781h-31.136718l-9.625-29.613282-9.621094 29.613282h-31.136719zm0 0"/><path d="m434.628906 150.089844-9.621094 29.613281 25.1875-18.300781 25.191407 18.300781-9.621094-29.613281 25.191406-18.304688h-31.140625l-9.621094-29.609375-9.621093 29.609375h-31.140625zm0 0"/><path d="m336.535156 167.386719-9.625 29.617187 25.195313-18.304687 25.1875 18.304687-9.621094-29.617187 25.191406-18.300781h-31.136719l-9.621093-29.617188-9.625 29.617188h-31.136719zm0 0"/><path d="m242.933594 201.453125-9.621094 29.613281 25.191406-18.300781 25.191406 18.300781-9.621093-29.613281 25.1875-18.300781h-31.136719l-9.621094-29.613282-9.625 29.613282h-31.136718zm0 0"/></g></svg>