<?xml version="1.0" encoding="UTF-8"?>
<svg xmlns="http://www.w3.org/2000/svg" xmlns:xlink="http://www.w3.org/1999/xlink" width="119pt" height="85pt" viewBox="0 0 119 85" version="1.1">
<g id="surface592">
<rect x="0" y="0" width="119" height="85" style="fill:rgb(14.117432%,29.019165%,64.704895%);fill-opacity:1;stroke:none;"/>
<path style=" stroke:none;fill-rule:evenodd;fill:rgb(81.567383%,65.097046%,31.37207%);fill-opacity:1;" d="M 47.046875 40.316406 C 47.046875 40.316406 47.265625 40.167969 47.347656 40.148438 C 47.429688 40.128906 47.714844 40.039062 47.714844 40.039062 C 47.714844 40.039062 47.898438 39.945312 47.996094 39.945312 C 48.097656 39.945312 48.296875 40.054688 48.359375 40.148438 C 48.417969 40.242188 48.742188 40.40625 48.742188 40.40625 C 48.742188 40.40625 48.964844 40.480469 49.007812 40.40625 C 49.050781 40.332031 49.144531 40.277344 49.25 40.277344 C 49.351562 40.277344 49.367188 40.183594 49.367188 40.109375 C 49.367188 40.035156 49.410156 39.941406 49.484375 39.851562 C 49.566406 39.757812 49.726562 39.703125 49.726562 39.703125 C 49.726562 39.703125 49.949219 39.609375 49.96875 39.480469 C 49.992188 39.351562 50.210938 39.257812 50.335938 39.238281 C 50.453125 39.21875 50.335938 39.164062 50.660156 39.195312 C 50.980469 39.238281 51.023438 39.121094 51.042969 39.027344 C 51.0625 38.933594 51.042969 38.839844 51.246094 38.859375 C 51.449219 38.878906 51.546875 38.878906 51.546875 38.765625 C 51.546875 38.65625 51.730469 38.597656 51.40625 38.507812 C 51.082031 38.414062 51.105469 38.488281 51.082031 38.339844 C 51.0625 38.191406 51.082031 38.210938 50.863281 38.191406 C 50.644531 38.171875 50.761719 38.0625 50.746094 37.949219 C 50.722656 37.839844 50.664062 37.777344 50.625 37.703125 C 50.582031 37.628906 50.464844 37.628906 50.464844 37.519531 C 50.464844 37.410156 50.445312 37.351562 50.324219 37.351562 C 50.207031 37.351562 50.164062 37.351562 50.164062 37.242188 C 50.164062 37.132812 50.183594 37.039062 50.304688 37.039062 C 50.421875 37.039062 50.488281 36.945312 50.464844 36.835938 C 50.445312 36.726562 50.445312 36.484375 50.445312 36.484375 L 50.605469 36.296875 C 50.605469 36.296875 51.089844 35.90625 51.132812 35.832031 C 51.175781 35.757812 51.335938 35.703125 51.414062 35.851562 C 51.492188 36 51.53125 36.039062 51.59375 36.109375 C 51.65625 36.183594 51.839844 36.128906 51.875 36.054688 C 51.917969 35.980469 51.933594 35.707031 52.042969 35.558594 C 52.148438 35.414062 52.226562 35.339844 52.253906 35.21875 C 52.277344 35.101562 52.332031 35.003906 52.460938 35.003906 C 52.589844 35.003906 52.671875 34.832031 52.671875 34.734375 C 52.671875 34.636719 52.726562 34.542969 52.882812 34.515625 C 53.039062 34.492188 53.117188 34.398438 53.171875 34.542969 C 53.226562 34.683594 53.28125 34.683594 53.382812 34.734375 C 53.492188 34.785156 53.648438 34.855469 53.722656 34.785156 C 53.804688 34.710938 53.839844 34.589844 53.957031 34.664062 C 54.070312 34.738281 54.152344 34.664062 54.179688 34.519531 C 54.207031 34.378906 54.234375 34.183594 54.234375 34.183594 C 54.234375 34.183594 54.261719 34.085938 54.445312 34.085938 C 54.625 34.085938 54.496094 33.964844 54.597656 33.890625 C 54.707031 33.816406 54.707031 33.746094 54.835938 33.792969 C 54.964844 33.84375 55.175781 33.734375 55.074219 33.613281 C 54.964844 33.496094 54.734375 33.300781 54.863281 33.152344 C 54.992188 33.007812 55.046875 32.765625 54.917969 32.742188 C 54.789062 32.714844 54.597656 32.765625 54.578125 32.621094 C 54.550781 32.480469 54.496094 32.378906 54.660156 32.355469 C 54.816406 32.328125 55.078125 32.328125 55.160156 32.253906 C 55.238281 32.179688 55.5 32.136719 55.5 31.917969 C 55.5 31.699219 55.578125 31.675781 55.605469 31.554688 C 55.632812 31.4375 55.632812 31.183594 55.523438 31.066406 C 55.417969 30.945312 55.261719 30.773438 55.234375 30.703125 C 55.207031 30.628906 55.105469 30.511719 54.945312 30.460938 C 54.789062 30.410156 54.652344 30.386719 54.652344 30.265625 C 54.652344 30.148438 54.761719 30.292969 54.761719 29.972656 C 54.761719 29.664062 54.550781 29.613281 54.550781 29.613281 L 54.234375 29.417969 C 54.234375 29.417969 53.671875 29.269531 53.523438 29.269531 C 53.371094 29.269531 53.199219 29.113281 53.371094 29.011719 C 53.542969 28.914062 53.585938 28.734375 53.523438 28.597656 C 53.457031 28.457031 53.414062 28.359375 53.179688 28.296875 C 52.941406 28.238281 52.875 28.179688 52.984375 28.039062 C 53.09375 27.902344 53.113281 27.804688 53.242188 27.902344 C 53.371094 28 53.585938 28.039062 53.757812 27.960938 C 53.933594 27.882812 53.996094 27.824219 54.082031 27.902344 C 54.167969 27.980469 54.277344 28.0625 54.40625 27.941406 C 54.535156 27.824219 54.773438 27.804688 54.878906 27.863281 C 54.988281 27.921875 55.246094 27.902344 55.332031 27.863281 C 55.417969 27.824219 55.589844 27.683594 55.589844 27.605469 C 55.589844 27.523438 55.699219 27.386719 55.804688 27.328125 C 55.914062 27.265625 56.042969 27.070312 56.148438 27.070312 C 56.257812 27.070312 56.300781 26.949219 56.300781 26.871094 C 56.300781 26.792969 56.386719 26.632812 56.410156 26.574219 C 56.429688 26.511719 56.644531 26.429688 56.796875 26.554688 C 56.945312 26.671875 57.140625 26.710938 57.140625 26.710938 C 57.140625 26.710938 57.355469 26.75 57.464844 26.710938 C 57.570312 26.671875 57.722656 26.632812 57.871094 26.730469 C 58.023438 26.832031 58.238281 26.832031 58.238281 26.832031 C 58.238281 26.832031 58.28125 26.671875 58.28125 26.59375 C 58.28125 26.511719 58.324219 26.375 58.238281 26.316406 C 58.152344 26.253906 58.042969 26.175781 58.21875 26.058594 C 58.390625 25.9375 58.390625 25.957031 58.5625 25.957031 C 58.734375 25.957031 58.839844 25.976562 58.96875 25.976562 C 59.101562 25.976562 59.316406 26.097656 59.316406 26.214844 C 59.316406 26.335938 59.402344 26.414062 59.507812 26.472656 C 59.617188 26.535156 59.746094 26.59375 59.703125 26.691406 C 59.660156 26.792969 59.660156 26.871094 59.789062 26.851562 C 59.917969 26.832031 59.960938 26.910156 59.960938 27.007812 C 59.960938 27.109375 60.003906 27.167969 60.132812 27.207031 C 60.261719 27.246094 60.328125 27.328125 60.328125 27.425781 C 60.328125 27.523438 60.304688 27.585938 60.347656 27.683594 C 60.390625 27.78125 60.519531 27.941406 60.519531 27.941406 C 60.519531 27.941406 60.757812 28.21875 60.457031 28.082031 C 60.15625 27.941406 60.089844 27.882812 59.984375 27.902344 C 59.875 27.921875 59.808594 27.980469 59.808594 27.980469 C 59.808594 27.980469 59.660156 28.019531 59.550781 28.019531 C 59.445312 28.019531 59.335938 28.238281 59.507812 28.277344 C 59.679688 28.320312 59.746094 28.359375 59.746094 28.496094 C 59.746094 28.636719 59.679688 28.597656 59.59375 28.695312 C 59.507812 28.792969 59.445312 28.734375 59.292969 28.734375 C 59.144531 28.734375 59.101562 28.855469 59.101562 28.972656 C 59.101562 29.09375 59.164062 29.070312 59.230469 29.171875 C 59.292969 29.269531 59.402344 29.289062 59.507812 29.191406 C 59.617188 29.09375 59.703125 29.03125 59.765625 29.210938 C 59.832031 29.390625 59.917969 29.390625 60.046875 29.390625 C 60.175781 29.390625 60.21875 29.390625 60.328125 29.328125 C 60.433594 29.269531 60.5625 29.328125 60.585938 29.488281 C 60.605469 29.648438 60.714844 29.667969 60.824219 29.726562 C 60.929688 29.785156 60.996094 29.824219 61.015625 29.925781 C 61.039062 30.023438 61.101562 30.0625 61.210938 30.003906 C 61.316406 29.945312 61.492188 29.90625 61.554688 29.984375 C 61.621094 30.0625 61.726562 30.222656 61.726562 30.222656 L 61.75 30.421875 L 62.15625 30.558594 C 62.15625 30.558594 62.199219 30.660156 62.199219 30.738281 C 62.199219 30.816406 62.265625 30.855469 62.371094 30.835938 C 62.480469 30.816406 62.675781 30.835938 62.675781 30.835938 C 62.675781 30.835938 62.824219 30.777344 62.824219 30.660156 C 62.824219 30.539062 62.890625 30.5 62.996094 30.5 C 63.105469 30.5 63.34375 30.578125 63.40625 30.460938 C 63.472656 30.339844 63.664062 30.300781 63.816406 30.363281 C 63.964844 30.421875 64.355469 30.578125 64.355469 30.578125 C 64.355469 30.578125 64.3125 30.597656 64.441406 30.796875 C 64.570312 30.996094 64.804688 30.996094 64.804688 30.996094 C 64.804688 30.996094 64.828125 31.175781 64.871094 31.253906 C 64.914062 31.332031 65.109375 31.371094 65.214844 31.292969 C 65.324219 31.214844 65.472656 31.113281 65.601562 31.113281 C 65.730469 31.113281 65.816406 31.113281 65.816406 31.035156 C 65.816406 30.957031 65.6875 30.898438 65.6875 30.777344 C 65.6875 30.660156 65.816406 30.660156 65.839844 30.539062 C 65.863281 30.421875 65.992188 30.539062 66.078125 30.597656 C 66.164062 30.660156 66.269531 30.757812 66.269531 30.835938 C 66.269531 30.917969 66.441406 31.195312 66.550781 31.234375 C 66.65625 31.273438 66.9375 31.292969 67.023438 31.195312 C 67.109375 31.09375 67.324219 31.054688 67.304688 31.292969 C 67.28125 31.53125 67.238281 31.550781 67.390625 31.628906 C 67.542969 31.710938 67.5625 31.988281 67.433594 32.066406 C 67.304688 32.144531 67.261719 32.164062 67.261719 32.304688 C 67.261719 32.445312 67.21875 32.601562 67.324219 32.683594 C 67.433594 32.761719 67.496094 32.820312 67.496094 32.898438 C 67.496094 32.980469 67.625 33.335938 67.625 33.335938 C 67.625 33.335938 67.691406 33.691406 67.671875 33.773438 C 67.648438 33.851562 67.605469 33.992188 67.800781 33.972656 C 67.992188 33.949219 68.035156 33.949219 68.035156 34.109375 C 68.035156 34.269531 68.101562 34.328125 67.992188 34.386719 C 67.886719 34.445312 67.820312 34.644531 67.929688 34.683594 C 68.035156 34.722656 68.121094 34.785156 68.144531 34.863281 C 68.164062 34.941406 68.335938 35.082031 68.445312 35.003906 C 68.554688 34.921875 68.574219 34.882812 68.660156 34.863281 C 68.746094 34.84375 68.8125 34.785156 68.726562 34.683594 C 68.640625 34.585938 68.617188 34.488281 68.703125 34.425781 C 68.789062 34.367188 68.832031 34.167969 68.832031 34.167969 C 68.832031 34.167969 68.960938 33.992188 69.113281 34.167969 C 69.261719 34.347656 69.285156 34.289062 69.394531 34.289062 C 69.5 34.289062 69.542969 34.386719 69.542969 34.488281 C 69.542969 34.585938 69.757812 34.566406 69.757812 34.722656 C 69.757812 34.882812 69.800781 35.261719 69.800781 35.261719 C 69.800781 35.261719 69.800781 35.476562 69.929688 35.558594 C 70.058594 35.636719 70.039062 35.65625 69.972656 35.757812 C 69.910156 35.855469 69.929688 36.015625 69.929688 36.09375 C 69.929688 36.171875 69.972656 36.210938 69.867188 36.292969 C 69.757812 36.371094 69.714844 36.46875 69.78125 36.589844 C 69.84375 36.707031 69.824219 36.789062 69.996094 36.925781 C 70.167969 37.066406 70.148438 37.125 70.148438 37.222656 C 70.148438 37.324219 70.320312 37.460938 70.320312 37.5625 C 70.320312 37.660156 70.449219 37.777344 70.554688 37.800781 C 70.664062 37.820312 70.792969 37.996094 70.792969 38.097656 C 70.792969 38.195312 70.8125 38.453125 70.8125 38.453125 C 70.8125 38.453125 70.792969 38.511719 70.921875 38.511719 C 71.050781 38.511719 71.136719 38.652344 71.179688 38.492188 C 71.222656 38.335938 71.351562 38.316406 71.4375 38.273438 C 71.523438 38.234375 71.695312 38.15625 71.78125 38.214844 C 71.867188 38.273438 71.976562 38.273438 72.0625 38.273438 C 72.148438 38.273438 72.558594 38.292969 72.558594 38.292969 C 72.558594 38.292969 72.664062 38.273438 72.730469 38.433594 C 72.796875 38.59375 72.988281 38.769531 72.882812 38.851562 C 72.773438 38.929688 72.773438 39.089844 72.902344 39.089844 C 73.03125 39.089844 73.160156 39.089844 73.160156 39.1875 C 73.160156 39.285156 73.183594 39.367188 73.289062 39.304688 C 73.398438 39.246094 73.460938 39.226562 73.503906 39.304688 C 73.546875 39.386719 73.636719 39.386719 73.742188 39.445312 C 73.851562 39.503906 73.894531 39.464844 73.957031 39.386719 C 74.023438 39.304688 74.28125 39.226562 74.28125 39.226562 C 74.28125 39.226562 74.625 39.148438 74.753906 39.1875 C 74.882812 39.226562 75.054688 39.304688 75.054688 39.304688 C 75.054688 39.304688 75.140625 39.503906 75.097656 39.625 C 75.054688 39.742188 75.011719 39.722656 75.054688 39.902344 C 75.097656 40.078125 75.011719 40.097656 74.925781 40.078125 C 74.839844 40.058594 74.753906 40.058594 74.753906 40.21875 C 74.753906 40.378906 74.667969 40.417969 74.667969 40.554688 C 74.667969 40.695312 74.667969 40.675781 74.582031 40.734375 C 74.496094 40.792969 74.476562 40.894531 74.605469 40.914062 C 74.734375 40.933594 74.691406 41.070312 74.691406 41.152344 C 74.691406 41.230469 74.667969 41.410156 74.667969 41.410156 C 74.667969 41.410156 74.691406 41.507812 74.539062 41.507812 C 74.386719 41.507812 74.257812 41.488281 74.238281 41.585938 C 74.214844 41.6875 74.042969 41.84375 74.195312 41.945312 C 74.34375 42.042969 74.300781 42.101562 74.214844 42.140625 C 74.128906 42.183594 74.066406 42.378906 74.238281 42.441406 C 74.410156 42.5 74.386719 42.558594 74.28125 42.636719 C 74.171875 42.71875 73.957031 42.777344 73.957031 42.894531 C 73.957031 43.015625 73.914062 43.015625 73.785156 43.035156 C 73.65625 43.054688 73.59375 43.214844 73.742188 43.410156 C 73.894531 43.609375 73.9375 43.570312 74.042969 43.570312 C 74.152344 43.570312 74.152344 43.410156 74.152344 43.410156 C 74.152344 43.410156 74.519531 43.429688 74.625 43.429688 C 74.734375 43.429688 74.882812 43.429688 74.96875 43.371094 C 75.054688 43.3125 75.292969 43.214844 75.292969 43.390625 C 75.292969 43.570312 75.335938 43.550781 75.445312 43.628906 C 75.550781 43.710938 75.574219 43.648438 75.660156 43.769531 C 75.746094 43.886719 75.765625 43.789062 75.832031 43.648438 C 75.894531 43.511719 76.023438 43.371094 76.132812 43.53125 C 76.242188 43.6875 76.242188 43.648438 76.371094 43.648438 C 76.5 43.648438 76.542969 43.710938 76.542969 43.808594 C 76.542969 43.90625 76.671875 43.90625 76.820312 43.886719 C 76.972656 43.867188 76.996094 43.96875 77.058594 44.066406 C 77.125 44.164062 77.144531 44.144531 77.230469 44.144531 C 77.316406 44.144531 77.402344 44.144531 77.46875 44.066406 C 77.53125 43.988281 77.617188 43.886719 77.703125 44.007812 C 77.789062 44.125 77.964844 44.105469 78.007812 43.96875 C 78.050781 43.828125 78.242188 43.710938 78.351562 43.867188 C 78.457031 44.027344 78.542969 44.027344 78.652344 44.046875 C 78.757812 44.066406 78.910156 44.066406 78.976562 44.164062 C 79.039062 44.265625 79.253906 44.421875 79.105469 44.542969 C 78.953125 44.660156 78.78125 44.820312 78.910156 44.859375 C 79.039062 44.898438 79.125 44.9375 79.210938 45.039062 C 79.296875 45.136719 79.578125 45.175781 79.707031 45.195312 C 79.835938 45.214844 79.945312 45.238281 80.09375 45.117188 C 80.246094 45 80.394531 45 80.375 45.15625 C 80.351562 45.316406 80.441406 45.496094 80.441406 45.496094 C 80.441406 45.496094 80.546875 45.753906 80.546875 45.851562 C 80.546875 45.949219 80.527344 45.96875 80.71875 46.089844 C 80.914062 46.207031 80.890625 46.289062 81.042969 46.167969 C 81.191406 46.050781 81.234375 45.988281 81.234375 45.890625 L 81.234375 45.574219 C 81.234375 45.574219 81.453125 45.535156 81.539062 45.472656 C 81.625 45.414062 81.96875 45.238281 82.054688 45.316406 C 82.140625 45.394531 82.25 45.375 82.335938 45.335938 C 82.421875 45.296875 82.59375 45.296875 82.679688 45.296875 C 82.765625 45.296875 82.914062 45.316406 83.089844 45.175781 C 83.261719 45.039062 83.261719 45.078125 83.367188 45.175781 C 83.476562 45.277344 83.476562 45.394531 83.410156 45.472656 C 83.347656 45.554688 83.410156 45.730469 83.5625 45.730469 C 83.710938 45.730469 83.753906 45.8125 83.753906 45.910156 C 83.753906 46.011719 83.777344 46.148438 83.796875 46.226562 C 83.820312 46.308594 83.820312 46.347656 84.058594 46.40625 C 84.292969 46.464844 84.25 46.605469 84.292969 46.703125 C 84.335938 46.804688 84.335938 46.882812 84.207031 46.882812 C 84.078125 46.882812 84.035156 46.941406 84.015625 47.039062 C 83.992188 47.140625 83.796875 47.179688 83.796875 47.179688 L 83.605469 47.140625 C 83.605469 47.140625 83.476562 47.140625 83.410156 47.21875 C 83.347656 47.296875 83.21875 47.457031 83.304688 47.597656 C 83.390625 47.734375 83.390625 47.816406 83.304688 47.875 C 83.21875 47.933594 83.175781 48.230469 83.089844 48.171875 C 83 48.113281 82.894531 48.191406 82.808594 48.230469 C 82.722656 48.269531 82.742188 48.546875 82.914062 48.648438 C 83.089844 48.746094 83.132812 48.886719 83.132812 48.886719 L 83.324219 49.183594 C 83.324219 49.183594 83.261719 49.242188 83.21875 49.339844 C 83.175781 49.441406 83.046875 49.640625 83.175781 49.679688 C 83.304688 49.71875 83.238281 49.9375 83.109375 49.9375 C 82.980469 49.9375 82.828125 49.878906 82.808594 50.035156 C 82.785156 50.195312 82.722656 50.15625 82.59375 50.136719 C 82.464844 50.117188 82.140625 50.035156 82.054688 50.195312 C 81.96875 50.351562 81.945312 50.414062 81.796875 50.394531 C 81.644531 50.375 81.710938 50.632812 81.753906 50.730469 C 81.796875 50.828125 81.945312 50.96875 81.945312 50.96875 C 81.945312 50.96875 82.074219 51.066406 82.074219 51.265625 C 82.074219 51.464844 81.988281 51.445312 81.902344 51.304688 C 81.816406 51.167969 81.644531 51.1875 81.625 51.34375 C 81.601562 51.503906 81.582031 51.742188 81.429688 51.742188 C 81.28125 51.742188 81.214844 51.78125 81.148438 51.859375 C 81.085938 51.941406 80.976562 52.078125 80.976562 52.15625 C 80.976562 52.238281 80.957031 52.316406 80.847656 52.335938 C 80.742188 52.355469 80.71875 52.574219 80.71875 52.574219 C 80.71875 52.574219 80.460938 52.613281 80.441406 52.714844 C 80.417969 52.8125 80.460938 52.972656 80.246094 52.992188 C 80.03125 53.011719 79.902344 53.148438 79.835938 53.25 C 79.773438 53.347656 79.75 53.425781 79.835938 53.527344 C 79.921875 53.625 79.988281 53.941406 80.09375 54.003906 C 80.203125 54.0625 80.289062 54.082031 80.265625 54.242188 C 80.246094 54.398438 80.117188 54.519531 80.289062 54.519531 C 80.460938 54.519531 80.570312 54.558594 80.503906 54.695312 C 80.441406 54.835938 80.441406 54.855469 80.308594 54.914062 C 80.179688 54.972656 80.117188 54.972656 80.117188 55.132812 C 80.117188 55.292969 80.160156 55.292969 80.050781 55.351562 C 79.945312 55.410156 79.945312 55.492188 79.945312 55.609375 C 79.945312 55.726562 79.902344 55.6875 79.773438 55.828125 C 79.644531 55.964844 79.46875 55.964844 79.363281 55.925781 C 79.253906 55.886719 79.234375 55.886719 79.210938 55.769531 C 79.191406 55.648438 78.996094 55.648438 78.890625 55.667969 C 78.78125 55.6875 78.628906 55.808594 78.628906 55.808594 C 78.628906 55.808594 78.4375 55.925781 78.523438 56.027344 C 78.609375 56.125 78.566406 56.285156 78.414062 56.261719 C 78.265625 56.242188 77.917969 56.421875 77.8125 56.242188 C 77.703125 56.066406 77.402344 55.945312 77.359375 56.183594 C 77.316406 56.421875 77.488281 56.402344 77.46875 56.640625 C 77.445312 56.878906 77.402344 56.878906 77.316406 56.957031 C 77.230469 57.035156 77.230469 57.097656 77.210938 57.195312 C 77.1875 57.292969 77.167969 57.511719 77.316406 57.59375 C 77.46875 57.671875 77.53125 57.890625 77.53125 58.007812 C 77.53125 58.128906 77.53125 58.246094 77.683594 58.246094 C 77.835938 58.246094 77.964844 58.226562 77.984375 58.089844 C 78.007812 57.949219 78.308594 57.871094 78.328125 58.148438 C 78.351562 58.425781 78.351562 58.5625 78.457031 58.683594 C 78.566406 58.800781 78.652344 58.960938 78.738281 59.019531 C 78.824219 59.078125 78.96875 59.585938 78.96875 59.585938 C 78.757812 59.628906 78.707031 59.902344 78.570312 59.957031 C 78.496094 59.988281 78.414062 59.960938 78.34375 60.011719 C 78.292969 60.050781 78.292969 60.125 78.214844 60.160156 C 78.058594 60.230469 78.085938 59.988281 77.898438 60.078125 C 77.726562 60.15625 77.710938 60.355469 77.460938 60.269531 C 77.332031 60.226562 77.253906 59.71875 77.214844 59.601562 C 77.191406 59.53125 77.058594 59.324219 77.015625 59.257812 C 76.871094 59.039062 76.578125 59.257812 76.488281 59.195312 C 76.34375 59.09375 76.40625 58.925781 76.1875 58.90625 C 75.738281 58.875 76.058594 59.179688 75.867188 59.25 C 75.507812 59.378906 75.507812 58.910156 75.238281 59.125 C 75.136719 59.203125 75.402344 59.253906 75.335938 59.390625 C 75.28125 59.507812 75.019531 59.679688 75.035156 59.8125 C 75.054688 59.996094 75.253906 60.050781 75.3125 60.207031 C 75.476562 60.613281 75.207031 60.894531 74.804688 60.578125 C 74.578125 60.398438 74.535156 60.066406 74.183594 60.089844 C 74.101562 60.097656 74.078125 60.179688 73.996094 60.191406 C 73.914062 60.195312 73.851562 60.117188 73.765625 60.140625 C 73.636719 60.1875 73.746094 60.273438 73.722656 60.347656 C 73.722656 60.347656 73.546875 60.492188 73.523438 60.53125 C 73.425781 60.660156 73.457031 60.777344 73.316406 60.878906 C 73.199219 60.96875 73.105469 60.914062 72.976562 61.054688 C 72.84375 61.195312 72.832031 61.410156 72.660156 61.550781 C 72.574219 61.617188 72.515625 61.339844 72.40625 61.523438 C 72.390625 61.550781 72.375 61.574219 72.363281 61.597656 C 72.335938 61.652344 72.332031 61.679688 72.359375 61.738281 C 72.585938 62.171875 72.113281 62.335938 71.964844 62.644531 C 71.902344 62.773438 72.078125 62.894531 72.007812 62.992188 C 71.960938 63.066406 71.75 63.269531 71.734375 63.3125 C 71.71875 63.359375 71.695312 63.457031 71.660156 63.492188 C 71.621094 63.53125 71.492188 63.511719 71.480469 63.570312 C 71.46875 63.640625 71.617188 63.695312 71.652344 63.742188 C 71.703125 63.796875 71.632812 63.871094 71.648438 63.882812 C 71.890625 64.128906 71.746094 64.054688 71.867188 64.265625 C 71.886719 64.296875 71.960938 64.242188 71.988281 64.320312 C 72.015625 64.394531 71.929688 64.390625 71.960938 64.472656 C 71.964844 64.5 72.136719 64.722656 72.136719 64.726562 C 72.148438 64.800781 71.808594 64.957031 71.734375 64.957031 C 71.53125 64.960938 71.914062 64.535156 71.578125 64.535156 C 71.433594 64.535156 71.421875 64.867188 71.386719 64.902344 C 71.367188 64.914062 71.234375 64.902344 71.203125 64.902344 C 70.988281 64.902344 70.847656 65.167969 70.761719 65.195312 C 70.707031 65.214844 70.589844 65.164062 70.496094 65.179688 C 70.410156 65.195312 70.308594 65.277344 70.226562 65.277344 C 70.171875 65.277344 70.148438 65.242188 70.101562 65.21875 C 70.007812 65.164062 69.828125 65.140625 69.722656 65.105469 C 69.660156 65.085938 69.550781 65.179688 69.511719 65.152344 C 69.441406 65.109375 69.558594 64.984375 69.398438 64.894531 C 69.375 64.886719 69.257812 64.597656 69.261719 64.582031 C 69.316406 64.394531 69.375 64.191406 69.351562 63.992188 C 69.316406 63.789062 69 63.617188 68.914062 63.453125 C 68.847656 63.328125 68.789062 63.003906 68.664062 62.917969 C 68.53125 62.828125 68.40625 62.65625 68.335938 62.519531 C 68.316406 62.480469 68.382812 62.410156 68.332031 62.34375 C 68.277344 62.269531 68.175781 62.238281 68.148438 62.140625 C 68.128906 62.058594 68.148438 61.800781 68.058594 61.746094 C 67.957031 61.6875 67.296875 61.609375 67.136719 61.59375 C 67.050781 61.589844 66.988281 61.589844 66.921875 61.523438 C 66.894531 61.5 66.851562 61.394531 66.832031 61.394531 C 66.765625 61.390625 66.691406 61.425781 66.625 61.429688 C 66.578125 61.433594 66.496094 61.402344 66.453125 61.429688 C 66.242188 61.574219 66.191406 61.757812 65.992188 61.910156 C 65.785156 62.066406 65.558594 62.058594 65.355469 62.238281 C 65.226562 62.351562 65.140625 62.625 65.011719 62.753906 C 64.957031 62.808594 64.871094 62.753906 64.847656 62.777344 C 64.742188 62.914062 64.589844 62.992188 64.484375 63.117188 C 64.460938 63.140625 64.46875 63.191406 64.441406 63.210938 L 64.207031 63.269531 C 64.148438 63.28125 64.035156 63.265625 63.988281 63.28125 C 63.878906 63.3125 63.886719 63.429688 63.519531 63.503906 C 63.492188 63.507812 63.445312 63.53125 63.421875 63.546875 C 63.378906 63.578125 63.347656 63.621094 63.304688 63.652344 C 63.277344 63.671875 63.195312 63.636719 63.148438 63.640625 C 63.058594 63.65625 63.003906 63.734375 62.917969 63.746094 C 62.722656 63.769531 62.410156 63.65625 62.261719 63.714844 C 62.167969 63.75 61.914062 64.03125 61.824219 64.0625 C 61.765625 64.082031 61.722656 64.058594 61.65625 64.03125 C 61.625 64.074219 61.550781 64.378906 61.523438 64.449219 C 61.523438 64.453125 61.109375 64.800781 61.074219 64.839844 C 61.023438 64.902344 61 64.964844 60.9375 65.03125 C 60.894531 65.074219 60.824219 65.113281 60.753906 65.113281 C 60.667969 65.113281 60.539062 65.050781 60.457031 65.035156 C 60.300781 65.011719 59.832031 64.992188 59.691406 65.019531 C 59.546875 65.050781 59.589844 65.464844 59.230469 65.507812 C 59.019531 65.53125 58.824219 65.570312 58.609375 65.589844 C 58.589844 65.589844 58.460938 65.5 58.328125 65.535156 C 58.28125 65.550781 58.125 65.710938 58.125 65.757812 L 58.125 65.847656 C 58.125 65.863281 58.167969 65.917969 58.164062 65.921875 C 58.082031 66.015625 57.898438 66.164062 57.839844 66.273438 C 57.824219 66.304688 57.800781 66.339844 57.777344 66.359375 C 57.726562 66.394531 57.480469 66.488281 57.457031 66.53125 C 57.398438 66.679688 57.628906 66.820312 57.609375 66.878906 C 57.542969 67.074219 57.285156 67.257812 57.203125 67.433594 C 57.171875 67.507812 57.292969 67.757812 57.285156 67.839844 C 57.257812 68.074219 57.179688 68.371094 57.1875 68.601562 C 57.1875 68.644531 57.222656 68.878906 57.238281 68.902344 C 57.265625 68.945312 57.324219 68.972656 57.359375 69.011719 C 57.398438 69.050781 57.683594 69.605469 57.695312 69.667969 C 57.75 70.078125 57.152344 69.933594 57.496094 70.34375 C 57.550781 70.410156 57.59375 70.480469 57.652344 70.535156 C 57.726562 70.609375 58.167969 70.929688 58.175781 70.964844 C 58.183594 71.023438 57.820312 71.085938 57.753906 71.148438 C 57.582031 71.316406 57.4375 71.628906 57.269531 71.804688 C 57.167969 71.910156 57.074219 71.792969 56.941406 72.046875 C 56.894531 72.140625 56.941406 72.351562 56.882812 72.414062 C 56.796875 72.503906 56.726562 72.382812 56.640625 72.421875 C 56.601562 72.4375 56.582031 72.546875 56.542969 72.578125 C 56.445312 72.660156 55.585938 73.117188 55.503906 73.078125 C 55.460938 73.058594 55.414062 72.914062 55.40625 72.867188 C 55.394531 72.820312 55.34375 72.710938 55.300781 72.675781 C 55.078125 72.488281 54.738281 72.453125 54.523438 72.679688 C 54.46875 72.738281 54.464844 72.828125 54.394531 72.890625 C 54.277344 72.988281 54.140625 73.078125 54.027344 73.175781 C 54.007812 73.195312 53.941406 73.269531 53.914062 73.265625 C 53.828125 73.253906 53.621094 73.019531 53.566406 72.953125 C 53.46875 72.839844 53.1875 72.566406 53.160156 72.4375 C 53.160156 71.996094 52.816406 71.535156 52.671875 71.105469 L 52.886719 71.109375 C 53.128906 70.945312 53.058594 70.542969 53.496094 70.703125 C 53.550781 70.628906 53.542969 70.546875 53.648438 70.492188 C 53.683594 70.472656 53.753906 70.453125 53.777344 70.417969 C 53.921875 70.195312 54.09375 69.34375 53.941406 69.125 C 53.808594 68.925781 53.667969 68.9375 53.558594 68.609375 C 53.527344 68.519531 53.585938 68.417969 53.558594 68.316406 C 53.539062 68.238281 53.394531 67.765625 53.371094 67.730469 C 53.34375 67.691406 53.253906 67.644531 53.25 67.617188 C 53.242188 67.578125 53.210938 67.066406 53.226562 67.027344 C 53.082031 66.632812 52.589844 66.378906 52.566406 66.332031 C 52.503906 66.238281 52.445312 66.117188 52.382812 66.011719 C 52.304688 65.886719 52.304688 65.824219 52.261719 65.703125 C 52.246094 65.648438 52.167969 65.605469 52.160156 65.546875 C 52.148438 65.441406 52.445312 65.222656 52.4375 65.039062 C 52.429688 64.980469 52.246094 64.800781 52.285156 64.703125 C 52.320312 64.597656 52.511719 64.367188 52.503906 64.25 C 52.496094 64.097656 52.210938 63.765625 52.171875 63.601562 C 52.15625 63.523438 52.285156 63.457031 52.253906 63.402344 C 52.214844 63.335938 51.914062 63.0625 51.863281 62.980469 C 51.828125 62.921875 51.976562 62.84375 51.871094 62.734375 C 51.773438 62.636719 51.855469 62.671875 51.828125 62.585938 C 51.792969 62.492188 51.6875 62.40625 51.644531 62.308594 C 51.605469 62.222656 51.347656 61.292969 51.351562 61.238281 C 51.308594 61.171875 51.234375 61.117188 51.199219 61.054688 C 51.160156 60.988281 51.144531 60.863281 51.109375 60.816406 C 51.105469 60.8125 50.820312 60.726562 50.765625 60.640625 C 50.722656 60.574219 50.710938 60.34375 50.636719 60.230469 C 50.601562 60.175781 50.539062 60.1875 50.496094 60.144531 C 50.460938 60.117188 50.464844 60.0625 50.4375 60.027344 C 50.351562 59.90625 50.179688 60.015625 50.0625 59.582031 C 49.90625 59.472656 49.761719 59.378906 49.625 59.242188 C 49.597656 59.21875 49.582031 59.1875 49.550781 59.175781 C 49.441406 59.128906 49.28125 59.113281 49.1875 59.035156 C 49.136719 59.035156 48.851562 59.027344 48.816406 59.003906 C 48.785156 58.984375 48.753906 58.863281 48.730469 58.855469 C 48.582031 58.828125 48.332031 58.84375 48.203125 58.734375 C 48.101562 58.644531 48.082031 58.210938 47.898438 58.273438 C 47.875 58.261719 47.847656 58.253906 47.820312 58.257812 C 47.703125 58.101562 47.292969 58.082031 47.128906 57.984375 C 47.078125 57.953125 46.921875 57.980469 46.921875 57.933594 C 46.960938 57.851562 46.949219 57.78125 46.957031 57.695312 C 46.863281 57.609375 46.804688 57.503906 46.738281 57.4375 C 46.582031 57.402344 46.644531 57.390625 46.546875 57.328125 C 46.277344 57.308594 46.25 57.355469 46.078125 57.511719 C 46.035156 57.554688 45.949219 57.5625 45.894531 57.59375 C 45.804688 57.640625 45.777344 57.804688 45.648438 57.730469 C 45.605469 57.707031 45.578125 57.667969 45.542969 57.636719 C 45.46875 57.574219 45.425781 57.609375 45.390625 57.488281 C 45.167969 57.371094 44.558594 57.78125 44.414062 57.492188 C 44.3125 57.4375 44.238281 57.507812 44.152344 57.417969 C 44.105469 57.375 44.269531 56.878906 43.828125 56.675781 C 43.929688 56.59375 44.039062 56.542969 44.132812 56.46875 C 44.160156 56.414062 44.128906 56.328125 44.128906 56.273438 C 44.128906 56.1875 44.183594 56.027344 44.167969 55.964844 C 44.152344 55.90625 44.085938 55.855469 44.0625 55.789062 C 44.039062 55.71875 44.070312 55.628906 44.03125 55.554688 C 44.003906 55.535156 43.925781 55.484375 43.890625 55.484375 C 43.777344 55.390625 43.65625 55.332031 43.5625 55.21875 C 43.542969 55.191406 43.527344 55.148438 43.5 55.128906 C 43.417969 55.070312 43.15625 54.988281 43.164062 54.867188 C 43.171875 54.824219 43.222656 54.820312 43.242188 54.78125 C 43.257812 54.730469 43.246094 54.667969 43.285156 54.621094 C 43.40625 54.453125 43.683594 54.527344 43.640625 54.214844 C 43.617188 54.078125 43.519531 53.957031 43.492188 53.808594 C 43.445312 53.773438 43.441406 53.714844 43.398438 53.679688 C 43.128906 53.65625 43.164062 53.378906 43.066406 53.3125 C 42.78125 53.121094 42.5625 53.238281 42.878906 52.855469 C 42.921875 52.734375 42.605469 52.535156 42.539062 52.464844 C 42.425781 52.355469 42.480469 52.128906 42.4375 52.007812 C 42.417969 51.949219 42.226562 51.847656 42.167969 51.761719 C 42.152344 51.738281 42.105469 51.609375 42.078125 51.59375 L 42.082031 51.554688 C 42.144531 51.507812 42.109375 51.417969 42.09375 51.359375 C 42.054688 51.324219 41.976562 51.335938 41.949219 51.308594 C 41.691406 51.078125 41.378906 50.972656 41.039062 50.839844 C 40.949219 50.804688 40.972656 50.730469 40.898438 50.695312 C 40.835938 50.664062 40.375 50.460938 40.34375 50.472656 C 40.289062 50.457031 40.253906 50.253906 40.214844 50.191406 C 40.183594 50.128906 40.054688 50.019531 40.054688 50.015625 C 40.066406 49.828125 39.945312 49.804688 39.800781 49.703125 C 39.8125 49.679688 39.785156 49.621094 39.785156 49.589844 C 39.785156 49.566406 39.882812 49.238281 39.898438 49.191406 C 39.925781 49.125 40.015625 49.058594 40 48.980469 C 39.976562 48.855469 39.960938 48.664062 39.917969 48.554688 C 39.773438 48.167969 39.601562 48.214844 39.691406 47.710938 C 39.714844 47.605469 39.675781 47.546875 39.757812 47.453125 C 39.746094 47.449219 39.796875 47.398438 39.800781 47.386719 C 39.847656 47.34375 39.984375 47.269531 40.011719 47.234375 C 40.089844 47.125 40.140625 46.878906 40.242188 46.796875 C 40.316406 46.738281 40.53125 46.625 40.570312 46.574219 C 40.601562 46.535156 40.652344 46.410156 40.625 46.363281 C 40.550781 46.316406 40.472656 46.335938 40.398438 46.328125 C 40.371094 46.320312 40.273438 46.253906 40.199219 46.238281 C 40.175781 46.214844 40.140625 46.183594 40.140625 46.148438 L 40.109375 46.117188 C 40.019531 46.109375 39.925781 46.054688 39.847656 46.03125 C 39.753906 45.988281 39.617188 45.984375 39.527344 45.929688 C 39.355469 45.832031 39.160156 45.558594 38.992188 45.519531 C 38.765625 45.46875 38.621094 45.539062 38.40625 45.546875 C 38.265625 45.558594 38.265625 45.472656 38.152344 45.4375 C 38.003906 45.394531 38.117188 45.519531 37.769531 45.410156 C 37.726562 45.375 37.792969 45.257812 37.796875 45.210938 C 37.742188 45.195312 37.679688 45.226562 37.613281 45.210938 C 37.328125 45.140625 37.4375 44.882812 37.363281 44.714844 C 37.328125 44.675781 37.210938 44.6875 37.15625 44.679688 C 37.140625 44.675781 37.136719 44.652344 37.140625 44.640625 L 37.167969 44.621094 C 37.214844 44.546875 37.042969 44.359375 37.050781 44.335938 C 37.0625 44.273438 37.410156 44.21875 37.460938 44.214844 C 37.476562 44.171875 37.425781 44.128906 37.421875 44.085938 C 37.410156 43.988281 37.476562 43.859375 37.507812 43.769531 L 37.496094 43.738281 C 37.398438 43.683594 37.367188 43.605469 37.28125 43.539062 C 37.285156 43.496094 37.34375 43.464844 37.355469 43.421875 C 37.523438 42.960938 37.78125 43.328125 38.007812 42.902344 C 38.03125 42.859375 38.09375 42.757812 38.117188 42.6875 L 38.160156 42.679688 C 38.203125 42.6875 38.261719 42.722656 38.304688 42.707031 C 38.335938 42.664062 38.40625 42.648438 38.460938 42.632812 L 38.539062 42.652344 C 38.960938 42.5625 38.863281 42.410156 39.105469 42.238281 C 39.171875 42.191406 39.359375 42.171875 39.445312 42.140625 C 39.535156 42.183594 39.667969 42.324219 39.839844 42.390625 C 39.960938 42.441406 40.386719 42.527344 40.457031 42.570312 C 40.550781 42.617188 40.566406 42.738281 40.644531 42.78125 C 40.886719 42.910156 40.75 42.691406 40.980469 42.738281 C 41.214844 42.785156 41.410156 42.980469 41.632812 43.074219 C 41.667969 43.089844 41.761719 43.070312 41.804688 43.058594 C 41.875 43.042969 42.25 42.976562 42.289062 42.988281 C 42.332031 43.003906 42.394531 43.042969 42.4375 43.054688 C 42.492188 43.0625 42.535156 42.949219 42.574219 42.957031 C 42.734375 42.980469 42.738281 43.042969 42.957031 43.023438 C 42.964844 43.023438 43.066406 42.417969 43.171875 42.390625 C 43.230469 42.375 43.390625 42.535156 43.441406 42.542969 C 43.519531 42.5625 43.433594 42.417969 43.429688 42.410156 C 43.40625 42.359375 43.292969 41.988281 43.300781 41.953125 C 43.304688 41.933594 43.40625 41.984375 43.457031 41.96875 C 43.574219 41.929688 43.734375 41.898438 43.820312 41.804688 C 43.832031 41.796875 44.015625 41.53125 44.019531 41.523438 C 44.03125 41.476562 43.972656 41.375 44 41.339844 C 44.027344 41.308594 44.128906 41.269531 44.175781 41.21875 C 44.246094 41.152344 44.257812 41.03125 44.355469 40.980469 C 44.738281 40.949219 44.871094 40.648438 45.214844 40.609375 C 45.238281 40.609375 45.3125 40.59375 45.328125 40.601562 L 45.398438 40.714844 C 45.421875 40.742188 45.652344 40.882812 45.691406 40.875 C 45.722656 40.867188 45.738281 40.8125 45.769531 40.804688 C 45.839844 40.8125 46.035156 40.695312 46.054688 40.636719 C 46.0625 40.625 46.011719 40.566406 46.035156 40.527344 C 46.050781 40.496094 46.292969 40.316406 46.332031 40.296875 C 46.417969 40.296875 46.507812 40.277344 46.589844 40.308594 C 46.636719 40.328125 46.644531 40.402344 46.695312 40.410156 C 46.757812 40.417969 46.863281 40.390625 46.90625 40.402344 C 46.957031 40.410156 46.976562 40.3125 47.035156 40.308594 Z M 47.046875 40.316406 "/>
<path style="fill-rule:nonzero;fill:rgb(99.998474%,99.998474%,99.998474%);fill-opacity:1;stroke-width:1;stroke-linecap:square;stroke-linejoin:miter;stroke:rgb(99.998474%,99.998474%,99.998474%);stroke-opacity:1;stroke-miterlimit:3.239307;" d="M 63.574219 17.859375 L 62.429688 21.382812 L 65.425781 19.207031 L 68.425781 21.382812 L 67.277344 17.859375 L 70.277344 15.683594 L 66.570312 15.683594 L 65.425781 12.160156 L 64.28125 15.683594 L 60.578125 15.683594 Z M 63.574219 17.859375 "/>
<path style="fill-rule:nonzero;fill:rgb(99.998474%,99.998474%,99.998474%);fill-opacity:1;stroke-width:1;stroke-linecap:square;stroke-linejoin:miter;stroke:rgb(99.998474%,99.998474%,99.998474%);stroke-opacity:1;stroke-miterlimit:3.239307;" d="M 75.246094 19.917969 L 74.101562 23.441406 L 77.101562 21.265625 L 80.097656 23.441406 L 78.953125 19.917969 L 81.949219 17.742188 L 78.246094 17.742188 L 77.097656 14.21875 L 75.953125 17.742188 L 72.25 17.742188 Z M 75.246094 19.917969 "/>
<path style="fill-rule:nonzero;fill:rgb(99.998474%,99.998474%,99.998474%);fill-opacity:1;stroke-width:1;stroke-linecap:square;stroke-linejoin:miter;stroke:rgb(99.998474%,99.998474%,99.998474%);stroke-opacity:1;stroke-miterlimit:3.239307;" d="M 86.386719 23.972656 L 85.242188 27.496094 L 88.238281 25.320312 L 91.234375 27.496094 L 90.089844 23.972656 L 93.089844 21.796875 L 89.382812 21.796875 L 88.238281 18.269531 L 87.09375 21.796875 L 83.386719 21.796875 Z M 86.386719 23.972656 "/>
<path style="fill-rule:nonzero;fill:rgb(99.998474%,99.998474%,99.998474%);fill-opacity:1;stroke-width:1;stroke-linecap:square;stroke-linejoin:miter;stroke:rgb(99.998474%,99.998474%,99.998474%);stroke-opacity:1;stroke-miterlimit:3.239307;" d="M 51.722656 17.859375 L 50.574219 21.382812 L 53.574219 19.207031 L 56.570312 21.382812 L 55.425781 17.859375 L 58.421875 15.683594 L 54.71875 15.683594 L 53.574219 12.160156 L 52.429688 15.683594 L 48.722656 15.683594 Z M 51.722656 17.859375 "/>
<path style="fill-rule:nonzero;fill:rgb(99.998474%,99.998474%,99.998474%);fill-opacity:1;stroke-width:1;stroke-linecap:square;stroke-linejoin:miter;stroke:rgb(99.998474%,99.998474%,99.998474%);stroke-opacity:1;stroke-miterlimit:3.239307;" d="M 40.046875 19.917969 L 38.902344 23.441406 L 41.898438 21.265625 L 44.898438 23.441406 L 43.753906 19.917969 L 46.75 17.742188 L 43.046875 17.742188 L 41.902344 14.21875 L 40.753906 17.742188 L 37.050781 17.742188 Z M 40.046875 19.917969 "/>
<path style="fill-rule:nonzero;fill:rgb(99.998474%,99.998474%,99.998474%);fill-opacity:1;stroke-width:1;stroke-linecap:square;stroke-linejoin:miter;stroke:rgb(99.998474%,99.998474%,99.998474%);stroke-opacity:1;stroke-miterlimit:3.239307;" d="M 28.910156 23.972656 L 27.765625 27.496094 L 30.761719 25.320312 L 33.757812 27.496094 L 32.613281 23.972656 L 35.613281 21.796875 L 31.90625 21.796875 L 30.761719 18.269531 L 29.617188 21.796875 L 25.910156 21.796875 Z M 28.910156 23.972656 "/>
</g>
</svg>
