<?xml version="1.0" encoding="UTF-8"?>
<svg xmlns="http://www.w3.org/2000/svg" xmlns:xlink="http://www.w3.org/1999/xlink" width="128pt" height="77pt" viewBox="0 0 128 77" version="1.1">
<defs>
<clipPath id="clip1">
  <path d="M 0 0 L 128 0 L 128 76.800781 L 0 76.800781 Z M 0 0 "/>
</clipPath>
</defs>
<g id="surface602">
<g clip-path="url(#clip1)" clip-rule="nonzero">
<path style=" stroke:none;fill-rule:evenodd;fill:rgb(90.979004%,6.666565%,17.64679%);fill-opacity:1;" d="M 0 76.800781 L 0 0 L 128 0 L 128 76.800781 Z M 0 76.800781 "/>
</g>
<path style=" stroke:none;fill-rule:evenodd;fill:rgb(99.998474%,93.72406%,0%);fill-opacity:1;" d="M 65.164062 24.652344 C 64.085938 21.835938 66.390625 17.484375 64.085938 15.4375 C 64.855469 18.507812 62.296875 21.835938 63.011719 24.652344 C 63.730469 27.46875 66.238281 27.46875 65.164062 24.652344 Z M 65.164062 24.652344 "/>
<path style=" stroke:none;fill-rule:evenodd;fill:rgb(99.998474%,93.72406%,0%);fill-opacity:1;" d="M 67.3125 24.992188 C 66.691406 22.042969 69.644531 18.105469 67.691406 15.722656 C 67.96875 18.875 64.921875 21.761719 65.1875 24.65625 C 65.453125 27.546875 67.933594 27.941406 67.3125 24.992188 Z M 67.3125 24.992188 "/>
<path style=" stroke:none;fill-rule:evenodd;fill:rgb(99.998474%,93.72406%,0%);fill-opacity:1;" d="M 69.382812 25.664062 C 69.230469 22.652344 72.765625 19.226562 71.207031 16.566406 C 70.988281 19.722656 67.523438 22.097656 67.335938 24.996094 C 67.148438 27.898438 69.535156 28.671875 69.382812 25.664062 Z M 69.382812 25.664062 "/>
<path style=" stroke:none;fill-rule:evenodd;fill:rgb(99.998474%,93.72406%,0%);fill-opacity:1;" d="M 71.320312 26.648438 C 71.640625 23.652344 75.671875 20.820312 74.546875 17.949219 C 73.835938 21.035156 70.046875 22.835938 69.40625 25.671875 C 68.765625 28.507812 71 29.644531 71.320312 26.648438 Z M 71.320312 26.648438 "/>
<path style=" stroke:none;fill-rule:evenodd;fill:rgb(99.998474%,93.72406%,0%);fill-opacity:1;" d="M 73.082031 27.925781 C 73.867188 25.015625 78.289062 22.847656 77.628906 19.835938 C 76.445312 22.773438 72.417969 23.960938 71.34375 26.660156 C 70.265625 29.359375 72.296875 30.835938 73.082031 27.925781 Z M 73.082031 27.925781 "/>
<path style=" stroke:none;fill-rule:evenodd;fill:rgb(99.998474%,93.72406%,0%);fill-opacity:1;" d="M 74.621094 29.460938 C 75.851562 26.710938 80.558594 25.261719 80.378906 22.1875 C 78.75 24.902344 74.585938 25.445312 73.101562 27.941406 C 71.617188 30.441406 73.390625 32.214844 74.621094 29.460938 Z M 74.621094 29.460938 "/>
<path style=" stroke:none;fill-rule:evenodd;fill:rgb(99.998474%,93.72406%,0%);fill-opacity:1;" d="M 75.902344 31.222656 C 77.550781 28.695312 82.425781 28.003906 82.726562 24.933594 C 80.691406 27.363281 76.496094 27.246094 74.640625 29.480469 C 72.78125 31.71875 74.257812 33.746094 75.902344 31.222656 Z M 75.902344 31.222656 "/>
<path style=" stroke:none;fill-rule:evenodd;fill:rgb(99.998474%,93.72406%,0%);fill-opacity:1;" d="M 76.890625 33.160156 C 78.914062 30.921875 83.835938 31 84.617188 28.015625 C 82.226562 30.097656 78.101562 29.328125 75.917969 31.242188 C 73.734375 33.160156 74.871094 35.394531 76.890625 33.160156 Z M 76.890625 33.160156 "/>
<path style=" stroke:none;fill-rule:evenodd;fill:rgb(99.998474%,93.72406%,0%);fill-opacity:1;" d="M 77.566406 35.226562 C 79.914062 33.335938 84.765625 34.183594 86 31.359375 C 83.316406 33.039062 79.359375 31.632812 76.902344 33.183594 C 74.445312 34.734375 75.21875 37.121094 77.566406 35.226562 Z M 77.566406 35.226562 "/>
<path style=" stroke:none;fill-rule:evenodd;fill:rgb(99.998474%,93.72406%,0%);fill-opacity:1;" d="M 77.910156 37.375 C 80.523438 35.875 85.179688 37.46875 86.84375 34.875 C 83.929688 36.113281 80.242188 34.105469 77.574219 35.253906 C 74.902344 36.402344 75.296875 38.878906 77.910156 37.375 Z M 77.910156 37.375 "/>
<path style=" stroke:none;fill-rule:evenodd;fill:rgb(99.998474%,93.72406%,0%);fill-opacity:1;" d="M 77.910156 39.550781 C 80.726562 38.476562 85.078125 40.78125 87.125 38.476562 C 84.054688 39.246094 80.726562 36.6875 77.910156 37.402344 C 75.09375 38.121094 75.09375 40.628906 77.910156 39.550781 Z M 77.910156 39.550781 "/>
<path style=" stroke:none;fill-rule:evenodd;fill:rgb(99.998474%,93.72406%,0%);fill-opacity:1;" d="M 77.574219 41.703125 C 80.523438 41.082031 84.460938 44.035156 86.84375 42.082031 C 83.6875 42.359375 80.800781 39.3125 77.910156 39.578125 C 75.015625 39.84375 74.625 42.324219 77.574219 41.703125 Z M 77.574219 41.703125 "/>
<path style=" stroke:none;fill-rule:evenodd;fill:rgb(99.998474%,93.72406%,0%);fill-opacity:1;" d="M 76.902344 43.773438 C 79.914062 43.621094 83.339844 47.15625 86 45.597656 C 82.839844 45.378906 80.464844 41.914062 77.566406 41.726562 C 74.667969 41.539062 73.890625 43.925781 76.902344 43.773438 Z M 76.902344 43.773438 "/>
<path style=" stroke:none;fill-rule:evenodd;fill:rgb(99.998474%,93.72406%,0%);fill-opacity:1;" d="M 75.917969 45.710938 C 78.914062 46.03125 81.746094 50.0625 84.617188 48.9375 C 81.53125 48.226562 79.726562 44.433594 76.890625 43.796875 C 74.058594 43.15625 72.917969 45.390625 75.917969 45.710938 Z M 75.917969 45.710938 "/>
<path style=" stroke:none;fill-rule:evenodd;fill:rgb(99.998474%,93.72406%,0%);fill-opacity:1;" d="M 74.640625 47.472656 C 77.550781 48.257812 79.714844 52.679688 82.726562 52.019531 C 79.789062 50.835938 78.601562 46.808594 75.902344 45.734375 C 73.203125 44.65625 71.730469 46.6875 74.640625 47.472656 Z M 74.640625 47.472656 "/>
<path style=" stroke:none;fill-rule:evenodd;fill:rgb(99.998474%,93.72406%,0%);fill-opacity:1;" d="M 73.101562 49.011719 C 75.851562 50.242188 77.300781 54.949219 80.378906 54.769531 C 77.664062 53.140625 77.121094 48.976562 74.621094 47.492188 C 72.125 46.007812 70.351562 47.78125 73.101562 49.011719 Z M 73.101562 49.011719 "/>
<path style=" stroke:none;fill-rule:evenodd;fill:rgb(99.998474%,93.72406%,0%);fill-opacity:1;" d="M 71.34375 50.292969 C 73.867188 51.9375 74.5625 56.8125 77.628906 57.117188 C 75.203125 55.082031 75.316406 50.886719 73.082031 49.03125 C 70.847656 47.171875 68.816406 48.648438 71.34375 50.292969 Z M 71.34375 50.292969 "/>
<path style=" stroke:none;fill-rule:evenodd;fill:rgb(99.998474%,93.72406%,0%);fill-opacity:1;" d="M 69.40625 51.28125 C 71.640625 53.304688 71.5625 58.226562 74.546875 59.007812 C 72.46875 56.617188 73.238281 52.488281 71.320312 50.308594 C 69.402344 48.125 67.167969 49.261719 69.40625 51.28125 Z M 69.40625 51.28125 "/>
<path style=" stroke:none;fill-rule:evenodd;fill:rgb(99.998474%,93.72406%,0%);fill-opacity:1;" d="M 67.335938 51.957031 C 69.230469 54.304688 68.382812 59.152344 71.207031 60.390625 C 69.527344 57.707031 70.933594 53.75 69.382812 51.292969 C 67.828125 48.835938 65.445312 49.609375 67.335938 51.957031 Z M 67.335938 51.957031 "/>
<path style=" stroke:none;fill-rule:evenodd;fill:rgb(99.998474%,93.72406%,0%);fill-opacity:1;" d="M 65.1875 52.300781 C 66.691406 54.914062 65.09375 59.570312 67.691406 61.234375 C 66.453125 58.320312 68.460938 54.632812 67.3125 51.964844 C 66.164062 49.292969 63.683594 49.6875 65.1875 52.300781 Z M 65.1875 52.300781 "/>
<path style=" stroke:none;fill-rule:evenodd;fill:rgb(99.998474%,93.72406%,0%);fill-opacity:1;" d="M 63.011719 52.300781 C 64.085938 55.117188 61.78125 59.46875 64.085938 61.515625 C 63.320312 58.445312 65.878906 55.117188 65.164062 52.300781 C 64.445312 49.484375 61.9375 49.484375 63.011719 52.300781 Z M 63.011719 52.300781 "/>
<path style=" stroke:none;fill-rule:evenodd;fill:rgb(99.998474%,93.72406%,0%);fill-opacity:1;" d="M 60.863281 51.964844 C 61.484375 54.914062 58.527344 58.851562 60.484375 61.234375 C 60.203125 58.078125 63.253906 55.191406 62.984375 52.300781 C 62.71875 49.40625 60.242188 49.015625 60.863281 51.964844 Z M 60.863281 51.964844 "/>
<path style=" stroke:none;fill-rule:evenodd;fill:rgb(99.998474%,93.72406%,0%);fill-opacity:1;" d="M 58.792969 51.292969 C 58.945312 54.304688 55.410156 57.730469 56.96875 60.390625 C 57.1875 57.230469 60.648438 54.855469 60.835938 51.957031 C 61.027344 49.058594 58.640625 48.28125 58.792969 51.292969 Z M 58.792969 51.292969 "/>
<path style=" stroke:none;fill-rule:evenodd;fill:rgb(99.998474%,93.72406%,0%);fill-opacity:1;" d="M 56.851562 50.308594 C 56.53125 53.304688 52.503906 56.136719 53.625 59.007812 C 54.335938 55.921875 58.128906 54.117188 58.769531 51.28125 C 59.410156 48.449219 57.171875 47.308594 56.851562 50.308594 Z M 56.851562 50.308594 "/>
<path style=" stroke:none;fill-rule:evenodd;fill:rgb(99.998474%,93.72406%,0%);fill-opacity:1;" d="M 55.09375 49.03125 C 54.304688 51.9375 49.882812 54.105469 50.542969 57.117188 C 51.730469 54.179688 55.757812 52.992188 56.832031 50.292969 C 57.90625 47.59375 55.875 46.121094 55.09375 49.03125 Z M 55.09375 49.03125 "/>
<path style=" stroke:none;fill-rule:evenodd;fill:rgb(99.998474%,93.72406%,0%);fill-opacity:1;" d="M 53.550781 47.492188 C 52.320312 50.242188 47.613281 51.691406 47.796875 54.769531 C 49.425781 52.054688 53.589844 51.511719 55.074219 49.011719 C 56.558594 46.515625 54.78125 44.742188 53.550781 47.492188 Z M 53.550781 47.492188 "/>
<path style=" stroke:none;fill-rule:evenodd;fill:rgb(99.998474%,93.72406%,0%);fill-opacity:1;" d="M 52.269531 45.734375 C 50.625 48.257812 45.75 48.953125 45.449219 52.019531 C 47.480469 49.59375 51.679688 49.707031 53.535156 47.472656 C 55.390625 45.238281 53.917969 43.207031 52.269531 45.734375 Z M 52.269531 45.734375 "/>
<path style=" stroke:none;fill-rule:evenodd;fill:rgb(99.998474%,93.72406%,0%);fill-opacity:1;" d="M 51.28125 43.796875 C 49.261719 46.03125 44.335938 45.953125 43.558594 48.9375 C 45.945312 46.859375 50.074219 47.628906 52.257812 45.710938 C 54.441406 43.792969 53.300781 41.558594 51.28125 43.796875 Z M 51.28125 43.796875 "/>
<path style=" stroke:none;fill-rule:evenodd;fill:rgb(99.998474%,93.72406%,0%);fill-opacity:1;" d="M 50.609375 41.726562 C 48.261719 43.621094 43.410156 42.773438 42.175781 45.597656 C 44.859375 43.917969 48.816406 45.324219 51.273438 43.773438 C 53.730469 42.21875 52.953125 39.832031 50.609375 41.726562 Z M 50.609375 41.726562 "/>
<path style=" stroke:none;fill-rule:evenodd;fill:rgb(99.998474%,93.72406%,0%);fill-opacity:1;" d="M 50.265625 39.578125 C 47.652344 41.082031 42.992188 39.484375 41.332031 42.082031 C 44.246094 40.84375 47.933594 42.851562 50.601562 41.703125 C 53.269531 40.554688 52.878906 38.074219 50.265625 39.578125 Z M 50.265625 39.578125 "/>
<path style=" stroke:none;fill-rule:evenodd;fill:rgb(99.998474%,93.72406%,0%);fill-opacity:1;" d="M 50.261719 37.402344 C 47.445312 38.476562 43.09375 36.171875 41.046875 38.476562 C 44.117188 37.710938 47.445312 40.269531 50.261719 39.550781 C 53.078125 38.835938 53.078125 36.328125 50.261719 37.402344 Z M 50.261719 37.402344 "/>
<path style=" stroke:none;fill-rule:evenodd;fill:rgb(99.998474%,93.72406%,0%);fill-opacity:1;" d="M 50.601562 35.253906 C 47.652344 35.875 43.714844 32.917969 41.332031 34.875 C 44.484375 34.59375 47.371094 37.644531 50.265625 37.375 C 53.160156 37.109375 53.550781 34.632812 50.601562 35.253906 Z M 50.601562 35.253906 "/>
<path style=" stroke:none;fill-rule:evenodd;fill:rgb(99.998474%,93.72406%,0%);fill-opacity:1;" d="M 51.273438 33.183594 C 48.261719 33.335938 44.835938 29.800781 42.175781 31.359375 C 45.332031 31.578125 47.707031 35.039062 50.609375 35.226562 C 53.507812 35.417969 54.28125 33.03125 51.273438 33.183594 Z M 51.273438 33.183594 "/>
<path style=" stroke:none;fill-rule:evenodd;fill:rgb(99.998474%,93.72406%,0%);fill-opacity:1;" d="M 52.257812 31.242188 C 49.261719 30.921875 46.429688 26.894531 43.558594 28.015625 C 46.644531 28.726562 48.445312 32.519531 51.28125 33.160156 C 54.117188 33.800781 55.253906 31.5625 52.257812 31.242188 Z M 52.257812 31.242188 "/>
<path style=" stroke:none;fill-rule:evenodd;fill:rgb(99.998474%,93.72406%,0%);fill-opacity:1;" d="M 53.535156 29.480469 C 50.625 28.695312 48.457031 24.273438 45.449219 24.933594 C 48.382812 26.121094 49.570312 30.144531 52.269531 31.222656 C 54.96875 32.296875 56.445312 30.265625 53.535156 29.480469 Z M 53.535156 29.480469 "/>
<path style=" stroke:none;fill-rule:evenodd;fill:rgb(99.998474%,93.72406%,0%);fill-opacity:1;" d="M 55.074219 27.941406 C 52.320312 26.710938 50.871094 22.003906 47.796875 22.1875 C 50.511719 23.816406 51.054688 27.976562 53.550781 29.460938 C 56.050781 30.945312 57.824219 29.171875 55.074219 27.941406 Z M 55.074219 27.941406 "/>
<path style=" stroke:none;fill-rule:evenodd;fill:rgb(99.998474%,93.72406%,0%);fill-opacity:1;" d="M 56.832031 26.660156 C 54.304688 25.015625 53.613281 20.140625 50.542969 19.835938 C 52.972656 21.871094 52.855469 26.070312 55.09375 27.925781 C 57.328125 29.78125 59.355469 28.308594 56.832031 26.660156 Z M 56.832031 26.660156 "/>
<path style=" stroke:none;fill-rule:evenodd;fill:rgb(99.998474%,93.72406%,0%);fill-opacity:1;" d="M 58.769531 25.671875 C 56.53125 23.652344 56.609375 18.726562 53.625 17.949219 C 55.707031 20.335938 54.9375 24.464844 56.851562 26.648438 C 58.769531 28.832031 61.003906 27.691406 58.769531 25.671875 Z M 58.769531 25.671875 "/>
<path style=" stroke:none;fill-rule:evenodd;fill:rgb(99.998474%,93.72406%,0%);fill-opacity:1;" d="M 60.835938 24.996094 C 58.945312 22.652344 59.792969 17.800781 56.96875 16.566406 C 58.648438 19.25 57.242188 23.207031 58.792969 25.664062 C 60.34375 28.117188 62.730469 27.34375 60.835938 24.996094 Z M 60.835938 24.996094 "/>
<path style=" stroke:none;fill-rule:evenodd;fill:rgb(99.998474%,93.72406%,0%);fill-opacity:1;" d="M 62.984375 24.65625 C 61.484375 22.042969 63.078125 17.382812 60.484375 15.722656 C 61.722656 18.636719 59.714844 22.324219 60.863281 24.992188 C 62.011719 27.660156 64.488281 27.269531 62.984375 24.65625 Z M 62.984375 24.65625 "/>
<path style=" stroke:none;fill-rule:evenodd;fill:rgb(90.979004%,6.666565%,17.64679%);fill-opacity:1;" d="M 77.910156 38.476562 C 77.910156 46.113281 71.722656 52.300781 64.085938 52.300781 C 56.453125 52.300781 50.261719 46.113281 50.261719 38.476562 C 50.261719 30.84375 56.453125 24.652344 64.085938 24.652344 C 71.722656 24.652344 77.910156 30.84375 77.910156 38.476562 Z M 77.910156 38.476562 "/>
<path style="fill:none;stroke-width:2.801021;stroke-linecap:butt;stroke-linejoin:miter;stroke:rgb(99.998474%,93.72406%,0%);stroke-opacity:1;stroke-miterlimit:4;" d="M 77.695312 38.269531 C 77.695312 45.777344 71.609375 51.863281 64.101562 51.863281 C 56.59375 51.863281 50.507812 45.777344 50.507812 38.269531 C 50.507812 30.761719 56.59375 24.675781 64.101562 24.675781 C 71.609375 24.675781 77.695312 30.761719 77.695312 38.269531 Z M 77.695312 38.269531 "/>
<path style=" stroke:none;fill-rule:evenodd;fill:rgb(99.998474%,93.72406%,0%);fill-opacity:1;" d="M 74.339844 37.722656 C 74.339844 43.445312 69.75 48.085938 64.085938 48.085938 C 58.425781 48.085938 53.835938 43.445312 53.835938 37.722656 C 53.835938 32 58.425781 27.359375 64.085938 27.359375 C 69.75 27.359375 74.339844 32 74.339844 37.722656 Z M 74.339844 37.722656 "/>
<path style=" stroke:none;fill-rule:evenodd;fill:rgb(90.979004%,6.666565%,17.64679%);fill-opacity:1;" d="M 74.339844 32.046875 C 66.332031 32.046875 59.839844 38.609375 59.839844 46.703125 C 59.839844 54.800781 66.332031 61.363281 74.339844 61.363281 L 73.519531 61.929688 C 65.203125 61.929688 58.457031 55.113281 58.457031 46.703125 C 58.457031 38.296875 65.203125 31.480469 73.519531 31.480469 Z M 74.339844 32.046875 "/>
<path style=" stroke:none;fill-rule:evenodd;fill:rgb(90.979004%,6.666565%,17.64679%);fill-opacity:1;" d="M 72.972656 31.078125 C 64.433594 31.078125 57.515625 38.074219 57.515625 46.703125 C 57.515625 55.335938 64.433594 62.332031 72.972656 62.332031 L 72.152344 62.96875 C 63.269531 62.96875 56.066406 55.6875 56.066406 46.703125 C 56.066406 37.722656 63.269531 30.441406 72.152344 30.441406 Z M 72.972656 31.078125 "/>
<path style=" stroke:none;fill-rule:evenodd;fill:rgb(90.979004%,6.666565%,17.64679%);fill-opacity:1;" d="M 71.605469 30 C 62.480469 30 55.082031 37.480469 55.082031 46.703125 C 55.082031 55.929688 62.480469 63.410156 71.605469 63.410156 L 70.785156 64.097656 C 61.285156 64.097656 53.582031 56.3125 53.582031 46.703125 C 53.582031 37.097656 61.285156 29.3125 70.785156 29.3125 Z M 71.605469 30 "/>
<path style=" stroke:none;fill-rule:evenodd;fill:rgb(90.979004%,6.666565%,17.64679%);fill-opacity:1;" d="M 53.835938 32.046875 C 61.84375 32.046875 68.332031 38.609375 68.332031 46.703125 C 68.332031 54.800781 61.84375 61.363281 53.835938 61.363281 L 54.65625 61.929688 C 62.972656 61.929688 69.714844 55.113281 69.714844 46.703125 C 69.714844 38.296875 62.972656 31.480469 54.65625 31.480469 Z M 53.835938 32.046875 "/>
<path style=" stroke:none;fill-rule:evenodd;fill:rgb(90.979004%,6.666565%,17.64679%);fill-opacity:1;" d="M 55.203125 31.078125 C 63.738281 31.078125 70.660156 38.074219 70.660156 46.703125 C 70.660156 55.335938 63.738281 62.332031 55.203125 62.332031 L 56.023438 62.96875 C 64.90625 62.96875 72.105469 55.6875 72.105469 46.703125 C 72.105469 37.722656 64.90625 30.441406 56.023438 30.441406 Z M 55.203125 31.078125 "/>
<path style=" stroke:none;fill-rule:evenodd;fill:rgb(90.979004%,6.666565%,17.64679%);fill-opacity:1;" d="M 56.570312 30 C 65.695312 30 73.089844 37.480469 73.089844 46.703125 C 73.089844 55.929688 65.695312 63.410156 56.570312 63.410156 L 57.390625 64.097656 C 66.890625 64.097656 74.59375 56.3125 74.59375 46.703125 C 74.59375 37.097656 66.890625 29.3125 57.390625 29.3125 Z M 56.570312 30 "/>
</g>
</svg>
