<svg viewBox="0 0 1000 600" xmlns="http://www.w3.org/2000/svg"><path d="m0 0h1000v600h-1000z" fill="#e8112d"/><g fill-rule="evenodd"><path d="m509.082031 192.609375c-8.402343-22.003906 9.597657-56.003906-8.402343-72.003906 6 24-14 50-8.398438 72.003906 5.601562 21.996094 25.199219 21.996094 16.800781 0zm0 0" fill="#ffef00"/><path d="m525.867188 195.25c-4.851563-23.042969 18.242187-53.808594 2.96875-72.425781 2.175781 24.640625-21.648438 47.191406-19.558594 69.796875 2.089844 22.605468 21.449218 25.671875 16.589844 2.628906zm0 0" fill="#ffef00"/><path d="m542.042969 200.488281c-1.1875-23.519531 26.433593-50.292969 14.261719-71.074219-1.710938 24.683594-28.765626 43.226563-30.238282 65.878907-1.472656 22.65625 17.167969 28.710937 15.976563 5.195312zm0 0" fill="#ffef00"/><path d="m557.199219 208.1875c2.5-23.414062 33.972656-45.535156 25.199219-67.960938-5.546876 24.105469-35.171876 38.191407-40.171876 60.335938-5 22.140625 12.464844 31.042969 14.972657 7.625zm0 0" fill="#ffef00"/><path d="m570.957031 218.167969c6.132813-22.734375 40.683594-39.660157 35.523438-63.1875-9.253907 22.945312-40.714844 32.222656-49.117188 53.316406-8.398437 21.089844 7.457031 32.605469 13.59375 9.871094zm0 0" fill="#ffef00"/><path d="m582.988281 230.175781c9.613281-21.496093 46.386719-32.808593 44.96875-56.851562-12.726562 21.21875-45.253906 25.460937-56.847656 44.972656-11.597656 19.515625 2.257813 33.378906 11.878906 11.878906zm0 0" fill="#ffef00"/><path d="m592.992188 243.921875c12.863281-19.726563 50.949218-25.152344 53.3125-49.117187-15.890626 18.960937-48.683594 18.0625-63.191407 35.523437-14.503906 17.460937-2.980469 33.320313 9.878907 13.59375zm0 0" fill="#ffef00"/><path d="m600.722656 259.058594c15.785156-17.472656 54.253906-16.871094 60.335938-40.171875-18.65625 16.242187-50.902344 10.222656-67.960938 25.203125-17.0625 14.976562-8.167968 32.445312 7.625 14.96875zm0 0" fill="#ffef00"/><path d="m605.992188 275.21875c18.324218-14.785156 56.222656-8.171875 65.878906-30.238281-20.972656 13.125-51.882813 2.136719-71.074219 14.261719s-13.136719 30.769531 5.195313 15.976562zm0 0" fill="#ffef00"/><path d="m608.664062 292.007812c20.414063-11.738281 56.816407.722657 69.796876-19.5625-22.761719 9.683594-51.570313-6.003906-72.425782 2.96875-20.855468 8.972657-17.789062 28.332032 2.628906 16.59375zm0 0" fill="#ffef00"/><path d="m608.679688 309.003906c22-8.398437 55.996093 9.601563 72-8.398437-24 6-50-14-72-8.398438-22 5.601563-22 25.199219 0 16.796875zm0 0" fill="#ffef00"/><path d="m606.035156 325.796875c23.042969-4.855469 53.808594 18.242187 72.425782 2.96875-24.640626 2.171875-47.191407-21.652344-69.796876-19.5625-22.605468 2.089844-25.671874 21.445313-2.628906 16.59375zm0 0" fill="#ffef00"/><path d="m600.796875 341.96875c23.519531-1.191406 50.292969 26.433594 71.074219 14.261719-24.679688-1.714844-43.230469-28.769531-65.878906-30.238281-22.65625-1.476563-28.710938 17.167968-5.195313 15.976562zm0 0" fill="#ffef00"/><path d="m593.097656 357.117188c23.410156 2.507812 45.535156 33.980468 67.960938 25.207031-24.105469-5.550781-38.191406-35.175781-60.335938-40.171875-22.144531-5-31.046875 12.464844-7.625 14.964844zm0 0" fill="#ffef00"/><path d="m583.113281 370.882812c22.742188 6.132813 39.664063 40.679688 63.191407 35.523438-22.945313-9.253906-32.222657-40.710938-53.3125-49.117188-21.09375-8.398437-32.609376 7.457032-9.878907 13.59375zm0 0" fill="#ffef00"/><path d="m571.109375 382.910156c21.492187 9.617188 32.808594 46.386719 56.847656 44.976563-21.210937-12.730469-25.453125-45.253907-44.96875-56.851563s-33.378906 2.261719-11.878906 11.875zm0 0" fill="#ffef00"/><path d="m557.363281 392.914062c19.726563 12.863282 25.152344 50.949219 49.117188 53.316407-18.960938-15.894531-18.0625-48.683594-35.523438-63.1875-17.460937-14.507813-33.320312-2.988281-13.59375 9.871093zm0 0" fill="#ffef00"/><path d="m542.226562 400.648438c17.472657 15.785156 16.871094 54.253906 40.171876 60.335937-16.242188-18.660156-10.226563-50.90625-25.199219-67.960937-14.984375-17.0625-32.441407-8.164063-14.972657 7.625zm0 0" fill="#ffef00"/><path d="m526.066406 405.914062c14.789063 18.328126 8.171875 56.226563 30.238282 65.882813-13.125-20.972656-2.140626-51.878906-14.261719-71.074219-12.125-19.1875-30.765625-13.136718-15.976563 5.191406zm0 0" fill="#ffef00"/><path d="m509.277344 408.589844c11.738281 20.414062-.722656 56.808594 19.558594 69.800781-9.679688-22.765625 6.007812-51.574219-2.96875-72.429687-8.96875-20.851563-28.328126-17.789063-16.589844 2.628906zm0 0" fill="#ffef00"/><path d="m492.28125 408.605469c8.398438 22-9.601562 56 8.398438 72-6.003907-24 13.996093-50 8.402343-72-5.601562-22-25.199219-22-16.800781 0zm0 0" fill="#ffef00"/><path d="m475.488281 405.960938c4.851563 23.042968-18.242187 53.808593-2.96875 72.429687-2.167969-24.644531 21.652344-47.195313 19.558594-69.800781-2.089844-22.605469-21.441406-25.667969-16.589844-2.628906zm0 0" fill="#ffef00"/><path d="m459.316406 400.722656c1.191406 23.519532-26.433594 50.292969-14.257812 71.074219 1.707031-24.683594 28.765625-43.226563 30.234375-65.882813 1.472656-22.652343-17.167969-28.707031-15.976563-5.191406zm0 0" fill="#ffef00"/><path d="m444.164062 393.023438c-2.503906 23.410156-33.980468 45.535156-25.203124 67.960937 5.550781-24.105469 35.175781-38.191406 40.175781-60.335937 4.996093-22.148438-12.464844-31.042969-14.972657-7.625zm0 0" fill="#ffef00"/><path d="m430.40625 383.042969c-6.140625 22.734375-40.683594 39.660156-35.527344 63.1875 9.253906-22.945313 40.71875-32.222657 49.113282-53.316407 8.40625-21.085937-7.453126-32.605468-13.585938-9.871093zm0 0" fill="#ffef00"/><path d="m418.375 371.035156c-9.621094 21.492188-46.386719 32.808594-44.976562 56.851563 12.730468-21.214844 45.257812-25.460938 56.855468-44.976563 11.597656-19.511718-2.265625-33.375-11.878906-11.875zm0 0" fill="#ffef00"/><path d="m408.367188 357.289062c-12.859376 19.726563-50.945313 25.152344-53.308594 49.117188 15.890625-18.960938 48.675781-18.0625 63.183594-35.523438 14.507812-17.464843 2.988281-33.320312-9.875-13.59375zm0 0" fill="#ffef00"/><path d="m400.640625 342.152344c-15.792969 17.472656-54.257813 16.871094-60.34375 40.171875 18.664063-16.242188 50.910156-10.222657 67.96875-25.207031 17.058594-14.972657 8.160156-32.441407-7.625-14.964844zm0 0" fill="#ffef00"/><path d="m395.371094 325.992188c-18.328125 14.785156-56.226563 8.171874-65.878906 30.238281 20.964843-13.125 51.875-2.140625 71.070312-14.261719 19.195312-12.125 13.132812-30.765625-5.191406-15.976562zm0 0" fill="#ffef00"/><path d="m392.695312 309.203125c-20.414062 11.738281-56.8125-.722656-69.800781 19.5625 22.769531-9.683594 51.578125 6.003906 72.429688-2.96875 20.851562-8.96875 17.785156-28.332031-2.628907-16.59375zm0 0" fill="#ffef00"/><path d="m392.679688 292.207031c-22 8.398438-56-9.597656-72 8.398438 23.996093-6 50 14 72 8.398437 21.996093-5.601562 21.996093-25.199218 0-16.796875zm0 0" fill="#ffef00"/><path d="m395.324219 275.414062c-23.042969 4.855469-53.808594-18.242187-72.429688-2.96875 24.644531-2.171874 47.199219 21.652344 69.800781 19.5625 22.605469-2.089843 25.671876-21.453124 2.628907-16.59375zm0 0" fill="#ffef00"/><path d="m400.5625 259.242188c-23.519531 1.191406-50.292969-26.433594-71.070312-14.261719 24.679687 1.714843 43.222656 28.769531 65.878906 30.238281 22.652344 1.476562 28.710937-17.167969 5.191406-15.976562zm0 0" fill="#ffef00"/><path d="m408.265625 244.089844c-23.417969-2.503906-45.539063-33.976563-67.96875-25.203125 24.113281 5.550781 38.195313 35.175781 60.34375 40.171875 22.144531 5 31.039063-12.46875 7.625-14.96875zm0 0" fill="#ffef00"/><path d="m418.242188 230.328125c-22.734376-6.132813-39.664063-40.679687-63.183594-35.523437 22.9375 9.253906 32.222656 40.710937 53.308594 49.117187 21.089843 8.398437 32.613281-7.457031 9.875-13.59375zm0 0" fill="#ffef00"/><path d="m430.253906 218.296875c-21.5-9.617187-32.8125-46.382813-56.855468-44.972656 21.214843 12.730469 25.460937 45.253906 44.976562 56.851562 19.515625 11.597657 33.371094-2.261719 11.878906-11.878906zm0 0" fill="#ffef00"/><path d="m443.992188 208.296875c-19.726563-12.863281-25.144532-50.949219-49.113282-53.316406 18.957032 15.894531 18.0625 48.683593 35.527344 63.1875 17.460938 14.507812 33.316406 2.988281 13.585938-9.871094zm0 0" fill="#ffef00"/><path d="m459.136719 200.5625c-17.476563-15.789062-16.871094-54.253906-40.175781-60.335938 16.242187 18.65625 10.230468 50.902344 25.203124 67.960938 14.976563 17.0625 32.441407 8.164062 14.972657-7.625zm0 0" fill="#ffef00"/><path d="m475.292969 195.292969c-14.785157-18.324219-8.175781-56.226563-30.234375-65.878907 13.121094 20.972657 2.132812 51.878907 14.257812 71.074219 12.125 19.1875 30.765625 13.132813 15.976563-5.195312zm0 0" fill="#ffef00"/><path d="m492.078125 192.621094c-11.738281-20.414063.722656-56.8125-19.558594-69.796875 9.683594 22.761719-6.003906 51.570312 2.96875 72.425781 8.972657 20.855469 28.332031 17.789062 16.589844-2.628906zm0 0" fill="#ffef00"/><path d="m608.679688 300.605469c0 59.648437-48.351563 108-108 108-59.644532 0-108-48.351563-108-108 0-59.648438 48.355468-107.996094 108-107.996094 59.648437 0 108 48.347656 108 107.996094zm0 0" fill="#e8112d"/></g><path d="m606.996094 298.984375c0 58.652344-47.546875 106.199219-106.199219 106.199219s-106.203125-47.546875-106.203125-106.199219 47.550781-106.199219 106.203125-106.199219 106.199219 47.546875 106.199219 106.199219zm0 0" fill="none" stroke="#ffef00" stroke-width="21.882977"/><path d="m580.777344 294.707031c0 44.722657-35.859375 80.976563-80.097656 80.976563-44.234376 0-80.09375-36.253906-80.09375-80.976563 0-44.722656 35.859374-80.976562 80.09375-80.976562 44.238281 0 80.097656 36.253906 80.097656 80.976562zm0 0" fill="#ffef00" fill-rule="evenodd"/><path d="m580.777344 250.367188c-62.558594 0-113.273438 51.273437-113.273438 114.515624 0 63.246094 50.714844 114.519532 113.273438 114.519532l-6.40625 4.433594c-64.984375 0-117.664063-53.253907-117.664063-118.953126 0-65.691406 52.679688-118.949218 117.664063-118.949218zm0 0" fill="#e8112d" fill-rule="evenodd"/><path d="m570.097656 242.792969c-66.699218 0-120.765625 54.664062-120.765625 122.089843 0 67.433594 54.066407 122.09375 120.765625 122.09375l-6.410156 4.957032c-69.398438 0-125.664062-56.886719-125.664062-127.050782 0-70.167968 56.265624-127.046874 125.664062-127.046874zm0 0" fill="#e8112d" fill-rule="evenodd"/><path d="m559.417969 234.386719c-71.289063 0-129.082031 58.425781-129.082031 130.496093 0 72.074219 57.792968 130.503907 129.082031 130.503907l-6.410157 5.375c-74.230468 0-134.398437-60.835938-134.398437-135.878907 0-75.042968 60.167969-135.878906 134.398437-135.878906zm0 0" fill="#e8112d" fill-rule="evenodd"/><path d="m420.585938 250.367188c62.558593 0 113.273437 51.273437 113.273437 114.515624 0 63.246094-50.714844 114.519532-113.273437 114.519532l6.40625 4.433594c64.980468 0 117.660156-53.253907 117.660156-118.953126 0-65.691406-52.679688-118.949218-117.660156-118.949218zm0 0" fill="#e8112d" fill-rule="evenodd"/><path d="m431.265625 242.792969c66.691406 0 120.761719 54.664062 120.761719 122.089843 0 67.433594-54.070313 122.09375-120.761719 122.09375l6.40625 4.957032c69.402344 0 125.664063-56.886719 125.664063-127.050782 0-70.167968-56.261719-127.046874-125.664063-127.046874zm0 0" fill="#e8112d" fill-rule="evenodd"/><path d="m441.945312 234.386719c71.289063 0 129.078126 58.425781 129.078126 130.496093 0 72.074219-57.789063 130.503907-129.078126 130.503907l6.40625 5.375c74.226563 0 134.402344-60.835938 134.402344-135.878907 0-75.042968-60.175781-135.878906-134.402344-135.878906zm0 0" fill="#e8112d" fill-rule="evenodd"/></svg>