<?xml version="1.0" encoding="UTF-8"?>
<svg xmlns="http://www.w3.org/2000/svg" xmlns:xlink="http://www.w3.org/1999/xlink" width="128pt" height="85pt" viewBox="0 0 128 85" version="1.1">
<defs>
<clipPath id="clip1">
  <path d="M 0 0 L 127.679688 0 L 127.679688 85 L 0 85 Z M 0 0 "/>
</clipPath>
<clipPath id="clip2">
  <path d="M 0 21 L 127.679688 21 L 127.679688 64 L 0 64 Z M 0 21 "/>
</clipPath>
</defs>
<g id="surface617">
<g clip-path="url(#clip1)" clip-rule="nonzero">
<path style=" stroke:none;fill-rule:evenodd;fill:rgb(92.939758%,10.980225%,14.117432%);fill-opacity:1;" d="M 0 85 L 0 0 L 127.5 0 L 127.5 85 Z M 0 85 "/>
</g>
<g clip-path="url(#clip2)" clip-rule="nonzero">
<path style=" stroke:none;fill-rule:evenodd;fill:rgb(99.998474%,99.998474%,99.998474%);fill-opacity:1;" d="M 0 21.25 L 127.5 21.25 L 127.5 63.75 L 0 63.75 Z M 0 21.25 "/>
</g>
<path style=" stroke:none;fill-rule:evenodd;fill:rgb(0%,65.097046%,31.764221%);fill-opacity:1;" d="M 63.171875 21.25 L 62.472656 22.410156 C 62.089844 23.050781 61.160156 24.007812 60.414062 24.539062 C 59.664062 25.070312 58.761719 25.863281 58.402344 26.296875 L 57.746094 27.089844 L 58.441406 26.90625 C 58.824219 26.804688 59.320312 26.644531 59.550781 26.546875 C 59.777344 26.449219 59.964844 26.503906 59.964844 26.667969 C 59.964844 26.671875 59.964844 26.679688 59.964844 26.683594 C 59.964844 26.695312 59.964844 26.707031 59.960938 26.71875 C 59.859375 27.128906 58.664062 28.066406 57.714844 28.460938 C 56.804688 28.835938 55.457031 29.820312 55.28125 30.210938 C 55.277344 30.222656 55.273438 30.238281 55.273438 30.246094 C 55.269531 30.25 55.269531 30.257812 55.265625 30.261719 C 55.265625 30.265625 55.265625 30.273438 55.265625 30.277344 C 55.265625 30.28125 55.265625 30.28125 55.265625 30.285156 C 55.265625 30.285156 55.265625 30.289062 55.265625 30.289062 C 55.265625 30.289062 55.265625 30.292969 55.265625 30.296875 C 55.265625 30.296875 55.265625 30.300781 55.265625 30.300781 C 55.269531 30.304688 55.269531 30.3125 55.273438 30.316406 C 55.273438 30.320312 55.277344 30.324219 55.277344 30.328125 C 55.277344 30.328125 55.28125 30.332031 55.28125 30.332031 C 55.28125 30.335938 55.285156 30.335938 55.289062 30.339844 C 55.289062 30.339844 55.292969 30.34375 55.292969 30.34375 C 55.296875 30.347656 55.304688 30.351562 55.308594 30.355469 C 55.414062 30.429688 55.707031 30.441406 56.042969 30.367188 C 56.636719 30.238281 56.882812 30.316406 57.078125 30.722656 C 57.375 31.339844 57.207031 31.617188 56.515625 31.617188 C 55.679688 31.617188 54.496094 32.453125 54.335938 33.160156 C 54.226562 33.632812 53.773438 34.015625 52.792969 34.464844 C 51.199219 35.191406 49.140625 36.585938 49 37.011719 C 48.996094 37.023438 48.996094 37.042969 48.992188 37.050781 C 48.992188 37.65625 50.335938 37.617188 52.285156 36.945312 C 52.71875 36.796875 52.914062 36.949219 53.242188 37.699219 C 53.648438 38.625 53.640625 38.648438 52.695312 39.871094 C 52.03125 40.726562 51.453125 41.164062 50.820312 41.296875 C 49.558594 41.5625 49.167969 41.816406 47.535156 43.449219 C 46.753906 44.230469 45.96875 44.875 45.789062 44.878906 C 45.71875 44.882812 45.671875 44.894531 45.648438 44.914062 C 45.648438 44.914062 45.644531 44.917969 45.644531 44.917969 C 45.644531 44.917969 45.640625 44.921875 45.640625 44.925781 C 45.636719 44.925781 45.632812 44.929688 45.632812 44.929688 C 45.632812 44.929688 45.632812 44.933594 45.632812 44.933594 C 45.632812 44.9375 45.628906 44.941406 45.628906 44.941406 C 45.628906 44.941406 45.628906 44.945312 45.628906 44.945312 C 45.628906 44.945312 45.628906 44.953125 45.628906 44.953125 C 45.628906 44.953125 45.628906 44.957031 45.628906 44.957031 C 45.628906 44.960938 45.628906 44.964844 45.628906 44.96875 C 45.628906 44.96875 45.628906 44.972656 45.628906 44.972656 C 45.628906 44.980469 45.632812 44.984375 45.632812 44.992188 C 45.636719 44.992188 45.636719 45 45.640625 45 C 45.640625 45.003906 45.644531 45.011719 45.644531 45.011719 C 45.777344 45.253906 46.636719 45.730469 47.125 45.730469 C 47.480469 45.730469 48.34375 45.324219 49.042969 44.828125 C 50.273438 43.960938 50.332031 43.949219 50.828125 44.441406 C 51.113281 44.726562 51.347656 45.273438 51.347656 45.65625 C 51.347656 46.234375 51.03125 46.503906 49.421875 47.324219 C 48.226562 47.933594 46.824219 48.976562 45.730469 50.070312 C 44.257812 51.542969 43.839844 51.816406 43.210938 51.714844 C 42.816406 51.648438 42.59375 51.625 42.523438 51.664062 C 42.523438 51.664062 42.515625 51.667969 42.515625 51.667969 C 42.515625 51.671875 42.511719 51.675781 42.511719 51.675781 C 42.507812 51.675781 42.503906 51.679688 42.503906 51.679688 C 42.503906 51.6875 42.5 51.695312 42.5 51.703125 C 42.5 51.777344 42.632812 51.933594 42.871094 52.195312 C 43.097656 52.445312 43.621094 52.648438 44.035156 52.648438 C 45.160156 52.648438 48.726562 51.320312 49.828125 50.492188 C 50.847656 49.722656 51.835938 49.574219 52.660156 50.058594 C 53.929688 50.8125 51.804688 52.320312 47.800781 53.515625 C 46.328125 53.957031 45.050781 54.382812 44.886719 54.488281 C 44.886719 54.492188 44.878906 54.492188 44.875 54.496094 C 44.875 54.496094 44.871094 54.5 44.871094 54.5 C 44.871094 54.5 44.867188 54.503906 44.867188 54.503906 C 44.867188 54.507812 44.867188 54.511719 44.867188 54.511719 C 44.808594 54.605469 44.894531 54.855469 45.066406 55.085938 C 45.484375 55.640625 47.589844 55.667969 49.382812 55.136719 C 50.101562 54.921875 51.894531 54.199219 53.363281 53.53125 C 56.023438 52.324219 56.035156 52.328125 56.96875 52.8125 C 59.132812 53.945312 58.933594 55.929688 56.328125 59.1875 C 55.195312 60.609375 54.191406 61.242188 52.363281 61.6875 C 51.6875 61.851562 50.296875 63.164062 50.296875 63.632812 C 50.296875 63.679688 50.308594 63.71875 50.316406 63.75 L 50.785156 63.75 C 50.886719 63.675781 50.992188 63.566406 51.09375 63.429688 C 51.671875 62.664062 52.832031 62.152344 54.007812 62.144531 C 55.285156 62.140625 56.851562 61.4375 58.023438 60.34375 C 59.058594 59.382812 60.09375 59.097656 60.878906 59.558594 C 61.3125 59.816406 61.707031 59.839844 62.234375 59.640625 C 63.164062 59.289062 63.625 59.460938 63.625 60.15625 C 63.625 60.46875 63.953125 60.890625 64.402344 61.144531 C 64.832031 61.390625 65.597656 61.988281 66.105469 62.476562 C 66.488281 62.851562 66.769531 63.019531 66.914062 63.019531 C 66.921875 63.019531 66.929688 63.019531 66.9375 63.019531 C 66.941406 63.019531 66.949219 63.019531 66.953125 63.019531 C 66.953125 63.019531 66.960938 63.015625 66.960938 63.015625 C 66.964844 63.015625 66.96875 63.011719 66.972656 63.007812 C 66.976562 63.007812 66.984375 63.003906 66.992188 62.996094 C 66.992188 62.996094 66.996094 62.992188 66.996094 62.992188 C 66.996094 62.992188 67 62.988281 67 62.988281 C 67.003906 62.984375 67.003906 62.980469 67.007812 62.980469 C 67.007812 62.980469 67.011719 62.976562 67.011719 62.976562 C 67.011719 62.972656 67.015625 62.96875 67.015625 62.964844 C 67.015625 62.960938 67.019531 62.957031 67.019531 62.953125 C 67.023438 62.953125 67.027344 62.945312 67.027344 62.941406 C 67.027344 62.9375 67.03125 62.929688 67.03125 62.925781 C 67.03125 62.921875 67.03125 62.910156 67.03125 62.902344 C 67.046875 62.742188 66.917969 62.410156 66.625 61.949219 C 66.453125 61.675781 66.363281 61.402344 66.390625 61.265625 C 66.390625 61.261719 66.394531 61.25 66.394531 61.246094 C 66.394531 61.242188 66.398438 61.238281 66.398438 61.234375 C 66.402344 61.234375 66.398438 61.230469 66.398438 61.230469 C 66.402344 61.226562 66.402344 61.222656 66.40625 61.222656 C 66.40625 61.21875 66.410156 61.210938 66.414062 61.207031 C 66.414062 61.207031 66.417969 61.203125 66.417969 61.199219 C 66.421875 61.199219 66.425781 61.199219 66.429688 61.195312 C 66.429688 61.195312 66.433594 61.191406 66.433594 61.191406 C 66.4375 61.1875 66.441406 61.1875 66.445312 61.183594 C 66.609375 61.121094 67.472656 61.152344 68.414062 61.261719 C 70.078125 61.453125 70.277344 61.554688 71.257812 62.6875 C 71.742188 63.25 72.140625 63.601562 72.460938 63.75 L 73.128906 63.75 C 73.269531 63.6875 73.371094 63.59375 73.394531 63.5 C 73.394531 63.5 73.398438 63.492188 73.398438 63.488281 C 73.402344 63.484375 73.398438 63.476562 73.398438 63.472656 C 73.402344 63.472656 73.398438 63.464844 73.398438 63.460938 C 73.398438 63.460938 73.402344 63.453125 73.398438 63.453125 C 73.398438 63.453125 73.398438 63.445312 73.398438 63.445312 C 73.398438 63.445312 73.402344 63.441406 73.398438 63.441406 C 73.34375 63.25 72.359375 62.3125 71.179688 61.328125 C 68.496094 59.089844 68.082031 58.269531 68.074219 55.167969 C 68.070312 53.3125 68.15625 52.839844 68.589844 52.359375 C 69.265625 51.613281 69.636719 51.632812 71.296875 52.5 C 72.550781 53.152344 72.941406 53.207031 75.792969 53.144531 C 78.851562 53.078125 78.941406 53.097656 80.480469 54.003906 C 81.34375 54.507812 82.394531 55.1875 82.828125 55.511719 C 83.777344 56.226562 84.746094 56.277344 84.972656 55.621094 C 85.242188 54.847656 83.433594 53.347656 80.035156 51.535156 C 76.652344 49.734375 76.300781 49.230469 77.859375 48.414062 C 78.746094 47.945312 78.804688 47.957031 80.210938 48.738281 C 81.335938 49.367188 81.851562 49.503906 82.570312 49.351562 L 83.496094 49.160156 L 81.464844 47.496094 C 80.347656 46.578125 79.265625 45.609375 79.0625 45.332031 C 78.46875 44.535156 77.320312 44.007812 76.191406 44.007812 C 75.664062 44.007812 75.171875 43.90625 75.035156 43.78125 C 75.03125 43.777344 75.023438 43.765625 75.019531 43.761719 C 75.019531 43.761719 75.015625 43.757812 75.015625 43.757812 C 75.011719 43.757812 75.011719 43.75 75.011719 43.746094 C 74.691406 43.179688 75.648438 42.910156 78.316406 42.808594 C 81.90625 42.664062 82.398438 42.246094 79.925781 41.445312 C 78.933594 41.128906 77.453125 40.722656 76.628906 40.546875 C 75.625 40.328125 75.066406 40.09375 74.929688 39.820312 C 74.914062 39.789062 74.902344 39.753906 74.898438 39.722656 C 74.894531 39.699219 74.894531 39.667969 74.898438 39.644531 C 74.910156 39.550781 74.96875 39.453125 75.058594 39.351562 C 75.226562 39.164062 76.035156 39.1875 77.40625 39.417969 C 78.945312 39.675781 79.789062 39.734375 79.9375 39.554688 C 80.097656 39.351562 79.390625 38.835938 77.824219 37.96875 C 76.394531 37.179688 74.597656 35.902344 73.777344 35.09375 C 72.964844 34.292969 71.757812 33.382812 71.097656 33.070312 C 70.230469 32.660156 69.949219 32.382812 70.058594 32.058594 C 70.257812 31.496094 71.625 31.492188 72.507812 32.046875 C 72.867188 32.273438 73.808594 32.457031 74.597656 32.449219 L 76.039062 32.441406 L 75.085938 32.054688 C 74.132812 31.667969 71.542969 29.828125 71.34375 29.410156 C 71.339844 29.402344 71.335938 29.390625 71.332031 29.382812 C 71.332031 29.378906 71.335938 29.375 71.332031 29.371094 C 71.332031 29.371094 71.332031 29.367188 71.332031 29.367188 C 71.335938 29.367188 71.332031 29.363281 71.332031 29.359375 C 71.335938 29.359375 71.339844 29.355469 71.339844 29.355469 C 71.339844 29.355469 71.34375 29.351562 71.34375 29.351562 C 71.34375 29.347656 71.347656 29.34375 71.347656 29.34375 C 71.453125 29.265625 72.050781 29.234375 72.769531 29.273438 L 74.207031 29.355469 L 72.136719 27.757812 C 70.617188 26.585938 69.679688 26.082031 68.609375 25.855469 C 67.808594 25.683594 66.890625 25.484375 66.570312 25.40625 C 65.710938 25.207031 64.269531 23.703125 63.683594 22.394531 Z M 58.453125 29.3125 C 58.484375 29.308594 58.515625 29.3125 58.550781 29.3125 C 58.820312 29.3125 59.011719 29.375 59.09375 29.476562 C 59.09375 29.480469 59.101562 29.484375 59.101562 29.488281 C 59.105469 29.488281 59.105469 29.496094 59.109375 29.5 C 59.117188 29.515625 59.125 29.53125 59.128906 29.550781 C 59.128906 29.550781 59.132812 29.5625 59.132812 29.566406 C 59.132812 29.570312 59.132812 29.582031 59.132812 29.585938 C 59.132812 29.589844 59.132812 29.601562 59.132812 29.605469 C 59.132812 29.613281 59.128906 29.625 59.128906 29.632812 C 59.128906 29.636719 59.125 29.644531 59.125 29.648438 C 59.066406 29.832031 58.765625 30.167969 58.453125 30.398438 C 58.210938 30.578125 58.066406 30.671875 57.984375 30.660156 C 57.980469 30.660156 57.96875 30.65625 57.964844 30.65625 C 57.960938 30.652344 57.957031 30.652344 57.957031 30.648438 C 57.949219 30.644531 57.945312 30.636719 57.941406 30.632812 C 57.886719 30.566406 57.875 30.386719 57.875 30.070312 C 57.875 29.488281 57.980469 29.328125 58.453125 29.3125 Z M 65.4375 30.03125 C 65.445312 30.03125 65.445312 30.03125 65.453125 30.03125 C 65.859375 30.03125 66.132812 30.21875 66.1875 30.539062 C 66.257812 30.933594 66.09375 31.042969 65.453125 31.042969 C 65.089844 31.042969 64.882812 31.003906 64.78125 30.902344 C 64.703125 30.824219 64.691406 30.707031 64.71875 30.539062 C 64.773438 30.226562 65.039062 30.035156 65.4375 30.03125 Z M 63.390625 30.203125 C 63.746094 30.171875 63.886719 30.382812 63.886719 30.832031 C 63.886719 31.371094 63.679688 31.539062 62.710938 31.789062 C 62.09375 31.945312 61.535156 32.015625 61.414062 31.960938 C 61.414062 31.957031 61.40625 31.957031 61.40625 31.953125 C 61.402344 31.953125 61.402344 31.949219 61.398438 31.949219 C 61.0625 31.578125 61.359375 31.101562 62.199219 30.660156 C 62.738281 30.375 63.125 30.222656 63.390625 30.203125 Z M 68.101562 30.207031 C 68.617188 30.191406 68.683594 30.433594 68.429688 31.164062 C 68.34375 31.414062 67.980469 31.617188 67.628906 31.617188 C 67.109375 31.617188 67 31.492188 67.066406 30.96875 C 67.125 30.503906 67.355469 30.292969 67.867188 30.230469 C 67.953125 30.21875 68.03125 30.210938 68.101562 30.207031 Z M 60.15625 31.617188 C 60.175781 31.613281 60.195312 31.617188 60.210938 31.617188 C 60.839844 31.617188 60.449219 32.804688 59.640625 33.347656 C 58.917969 33.832031 58.15625 34.039062 57.941406 33.851562 C 57.9375 33.847656 57.9375 33.84375 57.933594 33.84375 C 57.921875 33.832031 57.90625 33.8125 57.898438 33.796875 C 57.898438 33.792969 57.894531 33.785156 57.894531 33.785156 C 57.894531 33.78125 57.890625 33.769531 57.890625 33.765625 C 57.890625 33.765625 57.886719 33.757812 57.882812 33.757812 C 57.882812 33.75 57.886719 33.742188 57.882812 33.738281 C 57.882812 33.734375 57.878906 33.71875 57.878906 33.710938 C 57.878906 33.710938 57.878906 33.707031 57.878906 33.707031 C 57.898438 33.058594 59.414062 31.679688 60.15625 31.617188 Z M 66.070312 34.363281 C 66.367188 34.328125 66.558594 34.65625 66.453125 35.261719 C 66.398438 35.59375 66.097656 35.828125 65.648438 35.886719 C 65.304688 35.929688 65.089844 35.914062 65.011719 35.820312 C 65.011719 35.816406 65.007812 35.8125 65.007812 35.8125 C 65 35.808594 65 35.800781 64.996094 35.796875 C 64.996094 35.792969 64.992188 35.789062 64.988281 35.785156 C 64.988281 35.785156 64.984375 35.78125 64.984375 35.78125 C 64.984375 35.773438 64.980469 35.765625 64.980469 35.757812 C 64.941406 35.597656 65.105469 35.296875 65.472656 34.8125 C 65.683594 34.53125 65.894531 34.386719 66.070312 34.363281 Z M 63.71875 34.496094 C 63.730469 34.496094 63.746094 34.496094 63.757812 34.496094 C 64.359375 34.496094 64.457031 35.027344 63.914062 35.347656 C 63.660156 35.496094 63.417969 35.605469 63.335938 35.621094 C 63.332031 35.621094 63.328125 35.625 63.324219 35.625 C 63.324219 35.625 63.316406 35.621094 63.316406 35.621094 C 63.269531 35.605469 62.9375 35.496094 62.578125 35.375 L 61.925781 35.15625 L 62.664062 34.824219 C 63.042969 34.652344 63.5 34.515625 63.71875 34.496094 Z M 68.785156 35.160156 C 69.070312 35.144531 69.378906 35.199219 69.679688 35.328125 C 70.222656 35.554688 70.328125 35.753906 70.226562 36.347656 C 70.085938 37.160156 69.644531 37.25 68.128906 36.769531 C 67.386719 36.53125 67.308594 36.417969 67.546875 35.929688 C 67.773438 35.460938 68.242188 35.191406 68.785156 35.160156 Z M 57.5625 35.359375 C 57.582031 35.359375 57.597656 35.359375 57.613281 35.359375 C 58.714844 35.359375 58.867188 35.550781 58.332031 36.253906 C 58.152344 36.492188 57.808594 36.851562 57.570312 37.050781 C 57.199219 37.359375 57.085938 37.324219 56.851562 36.839844 C 56.574219 36.265625 56.484375 35.886719 56.621094 35.660156 C 56.746094 35.453125 57.054688 35.363281 57.5625 35.359375 Z M 54.664062 35.847656 C 55.132812 35.832031 55.425781 36.054688 55.796875 36.699219 L 56.324219 37.605469 L 55.539062 37.90625 C 54.820312 38.183594 54.699219 38.132812 54.105469 37.292969 C 53.730469 36.765625 53.585938 36.417969 53.6875 36.195312 C 53.695312 36.175781 53.710938 36.152344 53.722656 36.132812 C 53.726562 36.128906 53.734375 36.121094 53.738281 36.117188 C 53.742188 36.113281 53.75 36.105469 53.753906 36.101562 C 53.886719 35.964844 54.15625 35.890625 54.570312 35.855469 C 54.601562 35.855469 54.632812 35.847656 54.664062 35.847656 Z M 72.007812 38.558594 C 72.527344 38.519531 73.058594 38.886719 72.984375 39.476562 C 72.886719 40.230469 72.066406 40.449219 71.390625 39.90625 C 70.984375 39.578125 70.972656 39.457031 71.285156 38.984375 C 71.464844 38.714844 71.734375 38.582031 72.007812 38.558594 Z M 62.160156 39.972656 C 62.179688 39.96875 62.203125 39.972656 62.222656 39.972656 C 62.265625 39.972656 62.308594 39.980469 62.34375 39.992188 C 62.363281 40 62.390625 40.011719 62.40625 40.027344 C 62.414062 40.03125 62.421875 40.039062 62.425781 40.042969 C 62.429688 40.042969 62.4375 40.050781 62.4375 40.054688 C 62.441406 40.054688 62.445312 40.0625 62.449219 40.066406 C 62.449219 40.066406 62.457031 40.074219 62.457031 40.074219 C 62.539062 40.179688 62.566406 40.355469 62.53125 40.59375 C 62.429688 41.371094 61.917969 41.597656 61.695312 40.964844 C 61.5 40.402344 61.691406 40 62.160156 39.972656 Z M 58.871094 40.566406 C 59.09375 40.539062 59.457031 40.683594 59.820312 40.988281 C 60.066406 41.195312 60.167969 41.394531 60.167969 41.539062 C 60.164062 41.554688 60.164062 41.570312 60.160156 41.585938 C 60.160156 41.59375 60.160156 41.605469 60.15625 41.613281 C 60.152344 41.617188 60.148438 41.628906 60.148438 41.636719 C 60.140625 41.644531 60.136719 41.652344 60.132812 41.664062 C 60.128906 41.664062 60.128906 41.671875 60.125 41.671875 C 60.125 41.675781 60.117188 41.683594 60.117188 41.683594 C 60.109375 41.695312 60.097656 41.707031 60.085938 41.71875 C 60.082031 41.71875 60.078125 41.726562 60.074219 41.730469 C 59.925781 41.847656 59.605469 41.816406 59.238281 41.535156 C 58.9375 41.300781 58.683594 40.996094 58.664062 40.839844 C 58.660156 40.835938 58.664062 40.828125 58.664062 40.828125 C 58.660156 40.824219 58.664062 40.820312 58.664062 40.816406 C 58.664062 40.667969 58.738281 40.585938 58.871094 40.566406 Z M 64.101562 40.679688 C 64.203125 40.667969 64.3125 40.769531 64.488281 40.964844 C 64.710938 41.210938 64.976562 41.683594 65.070312 42.015625 C 65.300781 42.8125 64.9375 43.148438 64.226562 42.785156 C 63.46875 42.394531 63.28125 41.78125 63.722656 41.085938 C 63.890625 40.824219 63.992188 40.6875 64.101562 40.679688 Z M 65.929688 41.761719 C 66.121094 41.734375 66.382812 42.023438 66.449219 42.515625 C 66.488281 42.796875 66.449219 43.042969 66.359375 43.117188 C 66.359375 43.117188 66.355469 43.121094 66.355469 43.121094 C 66.351562 43.125 66.347656 43.125 66.34375 43.128906 C 66.339844 43.128906 66.332031 43.132812 66.328125 43.132812 C 66.328125 43.132812 66.324219 43.136719 66.324219 43.136719 C 66.324219 43.140625 66.320312 43.136719 66.320312 43.136719 C 66.316406 43.140625 66.3125 43.136719 66.308594 43.136719 C 66.308594 43.136719 66.304688 43.136719 66.304688 43.136719 C 66.304688 43.136719 66.300781 43.136719 66.300781 43.136719 C 65.925781 43.136719 65.710938 42.800781 65.710938 42.203125 C 65.710938 41.917969 65.808594 41.777344 65.929688 41.761719 Z M 54.464844 42.910156 C 54.847656 42.910156 55.1875 42.933594 55.40625 42.976562 C 55.773438 43.054688 56.015625 43.160156 56.136719 43.28125 C 56.160156 43.308594 56.183594 43.339844 56.195312 43.371094 C 56.203125 43.386719 56.207031 43.40625 56.210938 43.421875 C 56.214844 43.453125 56.214844 43.488281 56.210938 43.519531 C 56.167969 43.746094 55.84375 44.019531 55.246094 44.332031 C 54.75 44.59375 53.914062 44.894531 53.382812 44.996094 C 52.496094 45.164062 52.375 45.101562 52.007812 44.316406 C 51.789062 43.851562 51.613281 43.40625 51.605469 43.320312 C 51.605469 43.320312 51.605469 43.316406 51.605469 43.316406 C 51.605469 43.3125 51.605469 43.308594 51.605469 43.304688 C 51.605469 43.304688 51.609375 43.300781 51.613281 43.296875 C 51.613281 43.296875 51.613281 43.289062 51.617188 43.289062 C 51.617188 43.285156 51.621094 43.285156 51.621094 43.28125 C 51.804688 43.089844 53.335938 42.914062 54.464844 42.910156 Z M 72.246094 45.5 C 73.277344 45.453125 73.832031 46.148438 72.714844 47.015625 C 71.992188 47.570312 70.9375 47.59375 70.28125 47.0625 C 69.808594 46.683594 69.832031 46.628906 70.691406 46.050781 C 71.234375 45.6875 71.785156 45.519531 72.246094 45.5 Z M 75.996094 46.3125 C 76.015625 46.308594 76.035156 46.3125 76.050781 46.3125 C 76.203125 46.3125 76.554688 46.492188 76.835938 46.714844 C 77.332031 47.117188 77.328125 47.144531 76.710938 47.871094 C 76.390625 48.25 76.0625 48.542969 75.945312 48.566406 C 75.945312 48.566406 75.941406 48.566406 75.941406 48.566406 C 75.941406 48.566406 75.9375 48.566406 75.9375 48.566406 C 75.9375 48.566406 75.933594 48.566406 75.933594 48.566406 C 75.929688 48.566406 75.929688 48.566406 75.925781 48.566406 C 75.84375 48.542969 75.390625 48.472656 74.925781 48.40625 C 74.40625 48.335938 74.078125 48.128906 74.078125 47.871094 C 74.078125 47.859375 74.078125 47.84375 74.082031 47.832031 C 74.164062 47.402344 75.449219 46.378906 75.996094 46.3125 Z M 57.136719 47.460938 C 57.1875 47.460938 57.242188 47.460938 57.304688 47.460938 C 58.011719 47.460938 58.402344 48.046875 58.402344 49.105469 C 58.402344 50.527344 57.535156 50.414062 57.132812 48.9375 C 56.785156 47.652344 56.75 47.484375 57.136719 47.460938 Z M 62.527344 47.867188 C 62.953125 47.851562 63.988281 48.089844 64.121094 48.253906 C 64.125 48.253906 64.128906 48.257812 64.128906 48.257812 C 64.128906 48.257812 64.132812 48.261719 64.132812 48.265625 C 64.132812 48.265625 64.132812 48.269531 64.132812 48.269531 C 64.132812 48.269531 64.136719 48.273438 64.136719 48.273438 C 64.136719 48.277344 64.136719 48.28125 64.136719 48.28125 C 64.136719 48.28125 64.136719 48.285156 64.136719 48.285156 C 64.136719 48.285156 64.136719 48.289062 64.136719 48.292969 C 64.125 48.402344 63.847656 48.851562 63.515625 49.296875 L 62.902344 50.121094 L 62.582031 49.058594 C 62.425781 48.53125 62.328125 48.054688 62.347656 47.933594 C 62.347656 47.929688 62.347656 47.929688 62.347656 47.925781 C 62.347656 47.925781 62.351562 47.921875 62.351562 47.921875 C 62.351562 47.921875 62.351562 47.917969 62.351562 47.914062 C 62.355469 47.914062 62.355469 47.910156 62.359375 47.910156 C 62.359375 47.910156 62.359375 47.90625 62.363281 47.90625 C 62.363281 47.902344 62.367188 47.898438 62.367188 47.898438 C 62.367188 47.898438 62.371094 47.898438 62.371094 47.898438 C 62.375 47.898438 62.378906 47.894531 62.378906 47.894531 C 62.378906 47.890625 62.386719 47.890625 62.386719 47.886719 C 62.417969 47.875 62.46875 47.867188 62.527344 47.867188 Z M 59.90625 48.335938 C 59.984375 48.328125 60.105469 48.347656 60.273438 48.375 C 60.609375 48.425781 60.917969 48.707031 60.96875 49.003906 C 61.03125 49.367188 60.996094 49.621094 60.910156 49.75 C 60.902344 49.761719 60.890625 49.777344 60.882812 49.785156 C 60.875 49.792969 60.863281 49.804688 60.855469 49.8125 C 60.851562 49.816406 60.84375 49.820312 60.839844 49.824219 C 60.820312 49.835938 60.796875 49.84375 60.777344 49.851562 C 60.769531 49.851562 60.757812 49.855469 60.75 49.855469 C 60.734375 49.859375 60.714844 49.859375 60.699219 49.855469 C 60.523438 49.832031 60.296875 49.617188 60.101562 49.199219 C 59.875 48.714844 59.769531 48.484375 59.808594 48.390625 C 59.8125 48.382812 59.820312 48.375 59.824219 48.367188 C 59.84375 48.351562 59.871094 48.339844 59.90625 48.335938 Z M 59.90625 48.335938 "/>
</g>
</svg>
