<?xml version="1.0" encoding="UTF-8"?>
<svg xmlns="http://www.w3.org/2000/svg" xmlns:xlink="http://www.w3.org/1999/xlink" width="128pt" height="67pt" viewBox="0 0 128 67" version="1.1">
<g id="surface627">
<rect x="0" y="0" width="128" height="67" style="fill:rgb(74.900818%,3.921509%,18.823242%);fill-opacity:1;stroke:none;"/>
<path style=" stroke:none;fill-rule:evenodd;fill:rgb(0%,0%,0%);fill-opacity:1;" d="M 0 9.1875 L 128 9.1875 Z M 0 21.433594 L 128 21.433594 Z M 0 33.683594 L 128 33.683594 Z M 0 45.933594 L 128 45.933594 Z M 0 58.183594 L 128 58.183594 Z M 0 58.183594 "/>
<path style="fill:none;stroke-width:6.124402;stroke-linecap:butt;stroke-linejoin:miter;stroke:rgb(99.998474%,99.998474%,99.998474%);stroke-opacity:1;stroke-miterlimit:4;" d="M 0 9.1875 L 128 9.1875 "/>
<path style="fill:none;stroke-width:6.124402;stroke-linecap:butt;stroke-linejoin:miter;stroke:rgb(99.998474%,99.998474%,99.998474%);stroke-opacity:1;stroke-miterlimit:4;" d="M 0 21.433594 L 128 21.433594 "/>
<path style="fill:none;stroke-width:6.124402;stroke-linecap:butt;stroke-linejoin:miter;stroke:rgb(99.998474%,99.998474%,99.998474%);stroke-opacity:1;stroke-miterlimit:4;" d="M 0 33.683594 L 128 33.683594 "/>
<path style="fill:none;stroke-width:6.124402;stroke-linecap:butt;stroke-linejoin:miter;stroke:rgb(99.998474%,99.998474%,99.998474%);stroke-opacity:1;stroke-miterlimit:4;" d="M 0 45.933594 L 128 45.933594 "/>
<path style="fill:none;stroke-width:6.124402;stroke-linecap:butt;stroke-linejoin:miter;stroke:rgb(99.998474%,99.998474%,99.998474%);stroke-opacity:1;stroke-miterlimit:4;" d="M 0 58.183594 L 128 58.183594 "/>
<path style=" stroke:none;fill-rule:evenodd;fill:rgb(0%,15.686035%,40.783691%);fill-opacity:1;" d="M 0 0 L 30.621094 0 L 30.621094 30.621094 L 0 30.621094 Z M 0 0 "/>
<path style=" stroke:none;fill-rule:evenodd;fill:rgb(99.998474%,99.998474%,99.998474%);fill-opacity:1;" d="M 15.3125 6.125 L 12.472656 14.863281 L 16.839844 16.28125 Z M 15.3125 6.125 "/>
<path style=" stroke:none;fill-rule:evenodd;fill:rgb(99.998474%,99.998474%,99.998474%);fill-opacity:1;" d="M 15.3125 6.125 L 18.148438 14.863281 L 13.78125 16.28125 Z M 15.3125 6.125 "/>
<path style=" stroke:none;fill-rule:evenodd;fill:rgb(99.998474%,99.998474%,99.998474%);fill-opacity:1;" d="M 24.046875 12.472656 L 14.863281 12.472656 L 14.863281 17.066406 Z M 24.046875 12.472656 "/>
<path style=" stroke:none;fill-rule:evenodd;fill:rgb(99.998474%,99.998474%,99.998474%);fill-opacity:1;" d="M 24.046875 12.472656 L 16.617188 17.871094 L 13.917969 14.15625 Z M 24.046875 12.472656 "/>
<path style=" stroke:none;fill-rule:evenodd;fill:rgb(99.998474%,99.998474%,99.998474%);fill-opacity:1;" d="M 6.574219 12.472656 L 14.007812 17.871094 L 16.707031 14.15625 Z M 6.574219 12.472656 "/>
<path style=" stroke:none;fill-rule:evenodd;fill:rgb(99.998474%,99.998474%,99.998474%);fill-opacity:1;" d="M 6.574219 12.472656 L 15.761719 12.472656 L 15.761719 17.066406 Z M 6.574219 12.472656 "/>
<path style=" stroke:none;fill-rule:evenodd;fill:rgb(99.998474%,99.998474%,99.998474%);fill-opacity:1;" d="M 20.710938 22.742188 L 17.871094 14.007812 L 13.503906 15.425781 Z M 20.710938 22.742188 "/>
<path style=" stroke:none;fill-rule:evenodd;fill:rgb(99.998474%,99.998474%,99.998474%);fill-opacity:1;" d="M 20.710938 22.742188 L 13.277344 17.34375 L 15.980469 13.628906 Z M 20.710938 22.742188 "/>
<path style=" stroke:none;fill-rule:evenodd;fill:rgb(99.998474%,99.998474%,99.998474%);fill-opacity:1;" d="M 9.910156 22.742188 L 17.34375 17.34375 L 14.644531 13.628906 Z M 9.910156 22.742188 "/>
<path style=" stroke:none;fill-rule:evenodd;fill:rgb(99.998474%,99.998474%,99.998474%);fill-opacity:1;" d="M 9.910156 22.742188 L 12.75 14.007812 L 17.117188 15.425781 Z M 9.910156 22.742188 "/>
</g>
</svg>
