<svg viewBox="0 0 1000 526" xmlns="http://www.w3.org/2000/svg"><path d="m0 0h1000v526h-1000z" fill="#bf0a30"/><path d="m0 71.769531h1000zm0 95.695313h1000zm0 95.691406h1000zm0 95.695312h1000zm0 95.695313h1000zm0 0" fill-rule="evenodd"/><path d="m0 71.769531h1000" fill="none" stroke="#fff" stroke-width="47.84689"/><path d="m0 167.464844h1000" fill="none" stroke="#fff" stroke-width="47.84689"/><path d="m0 263.15625h1000" fill="none" stroke="#fff" stroke-width="47.84689"/><path d="m0 358.851562h1000" fill="none" stroke="#fff" stroke-width="47.84689"/><path d="m0 454.546875h1000" fill="none" stroke="#fff" stroke-width="47.84689"/><g fill-rule="evenodd"><path d="m0 0h239.238281v239.238281h-239.238281zm0 0" fill="#002868"/><path d="m119.617188 47.847656-22.179688 68.257813 34.128906 11.085937zm0 0" fill="#fff"/><path d="m119.617188 47.847656 22.175781 68.257813-34.128907 11.085937zm0 0" fill="#fff"/><path d="m187.878906 97.4375h-71.773437v35.886719zm0 0" fill="#fff"/><path d="m187.878906 97.4375-58.070312 42.183594-21.089844-29.03125zm0 0" fill="#fff"/><path d="m51.359375 97.4375 58.0625 42.183594 21.09375-29.03125zm0 0" fill="#fff"/><path d="m51.359375 97.4375h71.769531v35.886719zm0 0" fill="#fff"/><path d="m161.800781 177.679688-22.179687-68.257813-34.125 11.089844zm0 0" fill="#fff"/><path d="m161.800781 177.679688-58.0625-42.1875 21.09375-29.03125zm0 0" fill="#fff"/><path d="m77.429688 177.679688 58.0625-42.1875-21.089844-29.03125zm0 0" fill="#fff"/><path d="m77.429688 177.679688 22.179687-68.257813 34.128906 11.089844zm0 0" fill="#fff"/></g></svg>