<?xml version="1.0" encoding="UTF-8"?>
<svg xmlns="http://www.w3.org/2000/svg" xmlns:xlink="http://www.w3.org/1999/xlink" width="128pt" height="64pt" viewBox="0 0 128 64" version="1.1">
<g id="surface632">
<rect x="0" y="0" width="128" height="64" style="fill:rgb(13.725281%,61.959839%,27.450562%);fill-opacity:1;stroke:none;"/>
<path style=" stroke:none;fill-rule:evenodd;fill:rgb(0%,0%,0%);fill-opacity:1;" d="M 0 0 L 128 0 L 128 48 L 0 48 Z M 0 0 "/>
<path style=" stroke:none;fill-rule:evenodd;fill:rgb(90.586853%,0%,7.450867%);fill-opacity:1;" d="M 0 0 L 128 0 L 128 16 L 0 16 Z M 0 0 "/>
<path style=" stroke:none;fill-rule:evenodd;fill:rgb(99.998474%,99.998474%,99.998474%);fill-opacity:1;" d="M 69.65625 26.34375 C 68.625 25.605469 67.386719 25.160156 66.121094 25.066406 C 64.855469 24.976562 63.566406 25.238281 62.4375 25.820312 C 61.3125 26.402344 60.347656 27.296875 59.6875 28.382812 C 59.027344 29.464844 58.671875 30.730469 58.671875 32 C 58.671875 33.269531 59.027344 34.535156 59.6875 35.617188 C 60.347656 36.703125 61.3125 37.597656 62.4375 38.179688 C 63.566406 38.761719 64.855469 39.023438 66.121094 38.933594 C 67.386719 38.839844 68.625 38.394531 69.65625 37.65625 C 68.546875 38.769531 67.101562 39.539062 65.5625 39.847656 C 64.019531 40.152344 62.390625 39.992188 60.9375 39.390625 C 59.488281 38.789062 58.222656 37.75 57.351562 36.445312 C 56.476562 35.136719 56 33.570312 56 32 C 56 30.429688 56.476562 28.863281 57.351562 27.554688 C 58.222656 26.25 59.488281 25.210938 60.9375 24.609375 C 62.390625 24.007812 64.019531 23.847656 65.5625 24.152344 C 67.101562 24.460938 68.546875 25.230469 69.65625 26.34375 Z M 69.65625 26.34375 "/>
<path style="fill-rule:nonzero;fill:rgb(99.998474%,99.998474%,99.998474%);fill-opacity:1;stroke-width:1;stroke-linecap:square;stroke-linejoin:miter;stroke:rgb(99.998474%,99.998474%,99.998474%);stroke-opacity:1;stroke-miterlimit:3.239307;" d="M 72 33.332031 L 72 37.65625 L 74.542969 34.160156 L 78.65625 35.496094 L 76.113281 32 L 78.65625 28.503906 L 74.542969 29.839844 L 72 26.34375 L 72 30.667969 L 67.890625 32 Z M 72 33.332031 "/>
</g>
</svg>
