<svg viewBox="0 0 1000 500" xmlns="http://www.w3.org/2000/svg"><path d="m0 0h1000v500h-1000z" fill="#239e46"/><g fill-rule="evenodd"><path d="m0 0h1000v375h-1000zm0 0"/><path d="m0 0h1000v125h-1000zm0 0" fill="#e70013"/><path d="m544.199219 205.800781c-8.066407-5.757812-17.738281-9.242187-27.625-9.960937-9.890625-.710938-19.957031 1.347656-28.773438 5.882812-8.8125 4.539063-16.339843 11.542969-21.503906 20.007813-5.160156 8.460937-7.9375 18.355469-7.9375 28.269531s2.777344 19.808594 7.9375 28.269531c5.164063 8.464844 12.691406 15.46875 21.503906 20.007813 8.816407 4.535156 18.882813 6.59375 28.773438 5.882812 9.886719-.71875 19.558593-4.203125 27.625-9.960937-8.675781 8.675781-19.964844 14.707031-32 17.097656-12.039063 2.394531-24.773438 1.140625-36.109375-3.558594-11.332032-4.695312-21.226563-12.8125-28.042969-23.015625-6.816406-10.207031-10.53125-22.453125-10.53125-34.722656s3.714844-24.515625 10.53125-34.722656c6.816406-10.203125 16.710937-18.320313 28.042969-23.015625 11.335937-4.699219 24.070312-5.953125 36.109375-3.558594 12.035156 2.390625 23.324219 8.421875 32 17.097656zm0 0" fill="#fff"/></g><path d="m562.5 260.417969v33.78125l19.875-27.328125 32.128906 10.429687-19.855468-27.300781 19.855468-27.300781-32.128906 10.429687-19.875-27.328125v33.78125l-32.101562 10.417969zm0 0" fill="#fff" stroke="#fff" stroke-linecap="square" stroke-miterlimit="3.239307"/></svg>