<?xml version="1.0" encoding="UTF-8"?>
<svg xmlns="http://www.w3.org/2000/svg" xmlns:xlink="http://www.w3.org/1999/xlink" width="128pt" height="77pt" viewBox="0 0 128 77" version="1.1">
<defs>
<clipPath id="clip1">
  <path d="M 0 0 L 128 0 L 128 76.800781 L 0 76.800781 Z M 0 0 "/>
</clipPath>
<clipPath id="clip2">
  <path d="M 0 38 L 128 38 L 128 76.800781 L 0 76.800781 Z M 0 38 "/>
</clipPath>
</defs>
<g id="surface637">
<g clip-path="url(#clip1)" clip-rule="nonzero">
<path style=" stroke:none;fill-rule:evenodd;fill:rgb(0%,16.862488%,49.803162%);fill-opacity:1;" d="M 0 76.800781 L 0 0 L 128 0 L 128 76.800781 Z M 0 76.800781 "/>
</g>
<g clip-path="url(#clip2)" clip-rule="nonzero">
<path style=" stroke:none;fill-rule:evenodd;fill:rgb(80.783081%,6.666565%,14.901733%);fill-opacity:1;" d="M 0 38.398438 L 128 38.398438 L 128 76.800781 L 0 76.800781 Z M 0 38.398438 "/>
</g>
<path style=" stroke:none;fill-rule:evenodd;fill:rgb(99.998474%,84.70459%,23.921204%);fill-opacity:1;" d="M 27.695312 15.652344 L 27.460938 23.652344 L 19.34375 23.652344 C 18.34375 21.710938 17.519531 20.0625 17.519531 17.828125 C 17.519531 15.960938 18.988281 14.476562 21.109375 14.476562 C 23.351562 14.476562 25.8125 15.230469 27.695312 15.652344 Z M 27.695312 15.652344 "/>
<path style="fill:none;stroke-width:0.192;stroke-linecap:butt;stroke-linejoin:miter;stroke:rgb(0%,0%,0%);stroke-opacity:1;stroke-miterlimit:4;" d="M 18.492188 16.019531 L 18.492188 20.636719 "/>
<path style="fill:none;stroke-width:0.192;stroke-linecap:butt;stroke-linejoin:miter;stroke:rgb(0%,0%,0%);stroke-opacity:1;stroke-miterlimit:4;" d="M 19.140625 15.550781 L 19.140625 21.699219 "/>
<path style="fill:none;stroke-width:0.192;stroke-linecap:butt;stroke-linejoin:miter;stroke:rgb(0%,0%,0%);stroke-opacity:1;stroke-miterlimit:4;" d="M 19.792969 15.226562 L 19.792969 22.550781 "/>
<path style="fill:none;stroke-width:0.192;stroke-linecap:butt;stroke-linejoin:miter;stroke:rgb(0%,0%,0%);stroke-opacity:1;stroke-miterlimit:4;" d="M 20.445312 15.074219 L 20.445312 20.820312 "/>
<path style="fill:none;stroke-width:0.192;stroke-linecap:butt;stroke-linejoin:miter;stroke:rgb(0%,0%,0%);stroke-opacity:1;stroke-miterlimit:4;" d="M 21.097656 15.046875 L 21.097656 20.847656 "/>
<path style="fill:none;stroke-width:0.192;stroke-linecap:butt;stroke-linejoin:miter;stroke:rgb(0%,0%,0%);stroke-opacity:1;stroke-miterlimit:4;" d="M 21.75 14.84375 L 21.75 20.84375 "/>
<path style="fill:none;stroke-width:0.192;stroke-linecap:butt;stroke-linejoin:miter;stroke:rgb(0%,0%,0%);stroke-opacity:1;stroke-miterlimit:4;" d="M 22.402344 14.84375 L 22.402344 20.84375 "/>
<path style="fill:none;stroke-width:0.192;stroke-linecap:butt;stroke-linejoin:miter;stroke:rgb(0%,0%,0%);stroke-opacity:1;stroke-miterlimit:4;" d="M 23.054688 14.902344 L 23.054688 20.902344 "/>
<path style="fill:none;stroke-width:0.192;stroke-linecap:butt;stroke-linejoin:miter;stroke:rgb(0%,0%,0%);stroke-opacity:1;stroke-miterlimit:4;" d="M 23.707031 14.960938 L 23.707031 20.960938 "/>
<path style="fill:none;stroke-width:0.192;stroke-linecap:butt;stroke-linejoin:miter;stroke:rgb(0%,0%,0%);stroke-opacity:1;stroke-miterlimit:4;" d="M 24.359375 15.34375 L 24.359375 21.34375 "/>
<path style="fill:none;stroke-width:0.192;stroke-linecap:butt;stroke-linejoin:miter;stroke:rgb(0%,0%,0%);stroke-opacity:1;stroke-miterlimit:4;" d="M 25.011719 15.402344 L 25.011719 22.167969 "/>
<path style="fill:none;stroke-width:0.192;stroke-linecap:butt;stroke-linejoin:miter;stroke:rgb(0%,0%,0%);stroke-opacity:1;stroke-miterlimit:4;" d="M 25.660156 15.402344 L 25.660156 21.402344 "/>
<path style="fill:none;stroke-width:0.192;stroke-linecap:butt;stroke-linejoin:miter;stroke:rgb(0%,0%,0%);stroke-opacity:1;stroke-miterlimit:4;" d="M 26.3125 15.402344 L 26.3125 21.402344 "/>
<path style="fill-rule:evenodd;fill:rgb(0%,0%,0%);fill-opacity:1;stroke-width:0.192;stroke-linecap:butt;stroke-linejoin:miter;stroke:rgb(0%,0%,0%);stroke-opacity:1;stroke-miterlimit:4;" d="M 22.578125 15.09375 C 23.957031 15.320312 26.984375 16.738281 26.636719 18.652344 C 26.148438 21.367188 24.5625 20.277344 22.460938 19.886719 L 20.871094 20.417969 C 20.304688 20.996094 19.46875 21.53125 18.902344 20.828125 L 17.960938 20.828125 L 17.960938 24.503906 L 28.371094 24.503906 L 28.371094 15.625 Z M 22.578125 15.09375 "/>
<path style="fill-rule:evenodd;fill:rgb(99.998474%,84.70459%,23.921204%);fill-opacity:1;stroke-width:0.256;stroke-linecap:butt;stroke-linejoin:miter;stroke:rgb(0%,0%,0%);stroke-opacity:1;stroke-miterlimit:4;" d="M 27.871094 14.460938 C 27.871094 14.8125 27.589844 15.09375 27.242188 15.09375 C 26.890625 15.09375 26.609375 14.8125 26.609375 14.460938 C 26.609375 14.113281 26.890625 13.828125 27.242188 13.828125 C 27.589844 13.828125 27.871094 14.113281 27.871094 14.460938 Z M 27.871094 14.460938 "/>
<path style="fill-rule:evenodd;fill:rgb(99.998474%,84.70459%,23.921204%);fill-opacity:1;stroke-width:0.256;stroke-linecap:butt;stroke-linejoin:miter;stroke:rgb(0%,0%,0%);stroke-opacity:1;stroke-miterlimit:4;" d="M 26.453125 14.121094 C 26.453125 14.46875 26.167969 14.75 25.820312 14.75 C 25.46875 14.75 25.1875 14.46875 25.1875 14.121094 C 25.1875 13.769531 25.46875 13.488281 25.820312 13.488281 C 26.167969 13.488281 26.453125 13.769531 26.453125 14.121094 Z M 26.453125 14.121094 "/>
<path style="fill-rule:evenodd;fill:rgb(99.998474%,84.70459%,23.921204%);fill-opacity:1;stroke-width:0.256;stroke-linecap:butt;stroke-linejoin:miter;stroke:rgb(0%,0%,0%);stroke-opacity:1;stroke-miterlimit:4;" d="M 25.011719 13.757812 C 25.011719 14.105469 24.726562 14.390625 24.378906 14.390625 C 24.027344 14.390625 23.746094 14.105469 23.746094 13.757812 C 23.746094 13.40625 24.027344 13.125 24.378906 13.125 C 24.726562 13.125 25.011719 13.40625 25.011719 13.757812 Z M 25.011719 13.757812 "/>
<path style="fill-rule:evenodd;fill:rgb(99.998474%,84.70459%,23.921204%);fill-opacity:1;stroke-width:0.256;stroke-linecap:butt;stroke-linejoin:miter;stroke:rgb(0%,0%,0%);stroke-opacity:1;stroke-miterlimit:4;" d="M 23.5625 13.515625 C 23.5625 13.867188 23.28125 14.148438 22.929688 14.148438 C 22.582031 14.148438 22.296875 13.867188 22.296875 13.515625 C 22.296875 13.167969 22.582031 12.882812 22.929688 12.882812 C 23.28125 12.882812 23.5625 13.167969 23.5625 13.515625 Z M 23.5625 13.515625 "/>
<path style="fill-rule:evenodd;fill:rgb(99.998474%,84.70459%,23.921204%);fill-opacity:1;stroke-width:0.256;stroke-linecap:butt;stroke-linejoin:miter;stroke:rgb(0%,0%,0%);stroke-opacity:1;stroke-miterlimit:4;" d="M 22.117188 13.375 C 22.117188 13.722656 21.832031 14.003906 21.484375 14.003906 C 21.132812 14.003906 20.851562 13.722656 20.851562 13.375 C 20.851562 13.023438 21.132812 12.742188 21.484375 12.742188 C 21.832031 12.742188 22.117188 13.023438 22.117188 13.375 Z M 22.117188 13.375 "/>
<path style="fill-rule:evenodd;fill:rgb(99.998474%,84.70459%,23.921204%);fill-opacity:1;stroke-width:0.256;stroke-linecap:butt;stroke-linejoin:miter;stroke:rgb(0%,0%,0%);stroke-opacity:1;stroke-miterlimit:4;" d="M 20.695312 13.453125 C 20.695312 13.804688 20.414062 14.085938 20.0625 14.085938 C 19.714844 14.085938 19.429688 13.804688 19.429688 13.453125 C 19.429688 13.105469 19.714844 12.820312 20.0625 12.820312 C 20.414062 12.820312 20.695312 13.105469 20.695312 13.453125 Z M 20.695312 13.453125 "/>
<path style="fill-rule:evenodd;fill:rgb(99.998474%,84.70459%,23.921204%);fill-opacity:1;stroke-width:0.256;stroke-linecap:butt;stroke-linejoin:miter;stroke:rgb(0%,0%,0%);stroke-opacity:1;stroke-miterlimit:4;" d="M 19.34375 13.917969 C 19.34375 14.265625 19.058594 14.550781 18.710938 14.550781 C 18.363281 14.550781 18.078125 14.265625 18.078125 13.917969 C 18.078125 13.566406 18.363281 13.285156 18.710938 13.285156 C 19.058594 13.285156 19.34375 13.566406 19.34375 13.917969 Z M 19.34375 13.917969 "/>
<path style="fill-rule:evenodd;fill:rgb(99.998474%,84.70459%,23.921204%);fill-opacity:1;stroke-width:0.256;stroke-linecap:butt;stroke-linejoin:miter;stroke:rgb(0%,0%,0%);stroke-opacity:1;stroke-miterlimit:4;" d="M 18.203125 14.753906 C 18.203125 15.105469 17.921875 15.386719 17.570312 15.386719 C 17.222656 15.386719 16.9375 15.105469 16.9375 14.753906 C 16.9375 14.40625 17.222656 14.125 17.570312 14.125 C 17.921875 14.125 18.203125 14.40625 18.203125 14.753906 Z M 18.203125 14.753906 "/>
<path style="fill-rule:evenodd;fill:rgb(99.998474%,84.70459%,23.921204%);fill-opacity:1;stroke-width:0.256;stroke-linecap:butt;stroke-linejoin:miter;stroke:rgb(0%,0%,0%);stroke-opacity:1;stroke-miterlimit:4;" d="M 17.394531 15.925781 C 17.394531 16.273438 17.113281 16.558594 16.761719 16.558594 C 16.414062 16.558594 16.128906 16.273438 16.128906 15.925781 C 16.128906 15.574219 16.414062 15.292969 16.761719 15.292969 C 17.113281 15.292969 17.394531 15.574219 17.394531 15.925781 Z M 17.394531 15.925781 "/>
<path style="fill-rule:evenodd;fill:rgb(99.998474%,84.70459%,23.921204%);fill-opacity:1;stroke-width:0.256;stroke-linecap:butt;stroke-linejoin:miter;stroke:rgb(0%,0%,0%);stroke-opacity:1;stroke-miterlimit:4;" d="M 17.003906 17.300781 C 17.003906 17.648438 16.722656 17.933594 16.371094 17.933594 C 16.023438 17.933594 15.742188 17.648438 15.742188 17.300781 C 15.742188 16.949219 16.023438 16.667969 16.371094 16.667969 C 16.722656 16.667969 17.003906 16.949219 17.003906 17.300781 Z M 17.003906 17.300781 "/>
<path style="fill-rule:evenodd;fill:rgb(99.998474%,84.70459%,23.921204%);fill-opacity:1;stroke-width:0.256;stroke-linecap:butt;stroke-linejoin:miter;stroke:rgb(0%,0%,0%);stroke-opacity:1;stroke-miterlimit:4;" d="M 17.019531 18.726562 C 17.019531 19.074219 16.738281 19.359375 16.386719 19.359375 C 16.039062 19.359375 15.753906 19.074219 15.753906 18.726562 C 15.753906 18.378906 16.039062 18.09375 16.386719 18.09375 C 16.738281 18.09375 17.019531 18.378906 17.019531 18.726562 Z M 17.019531 18.726562 "/>
<path style="fill-rule:evenodd;fill:rgb(99.998474%,84.70459%,23.921204%);fill-opacity:1;stroke-width:0.256;stroke-linecap:butt;stroke-linejoin:miter;stroke:rgb(0%,0%,0%);stroke-opacity:1;stroke-miterlimit:4;" d="M 17.292969 20.125 C 17.292969 20.472656 17.007812 20.753906 16.660156 20.753906 C 16.308594 20.753906 16.027344 20.472656 16.027344 20.125 C 16.027344 19.773438 16.308594 19.492188 16.660156 19.492188 C 17.007812 19.492188 17.292969 19.773438 17.292969 20.125 Z M 17.292969 20.125 "/>
<path style="fill-rule:evenodd;fill:rgb(99.998474%,84.70459%,23.921204%);fill-opacity:1;stroke-width:0.256;stroke-linecap:butt;stroke-linejoin:miter;stroke:rgb(0%,0%,0%);stroke-opacity:1;stroke-miterlimit:4;" d="M 27.519531 15.300781 L 27.460938 16.125 C 25.886719 15.882812 23.65625 15.003906 21.578125 15.003906 C 19.65625 15.003906 18.167969 15.773438 18.167969 17.710938 C 18.167969 19.621094 18.976562 21.359375 20.050781 23.125 L 18.929688 23.652344 C 17.933594 21.710938 17.109375 20.0625 17.109375 17.828125 C 17.109375 15.960938 18.578125 14.125 21.109375 14.125 C 23.351562 14.125 25.636719 14.878906 27.519531 15.300781 Z M 27.519531 15.300781 "/>
<path style=" stroke:none;fill-rule:evenodd;fill:rgb(99.998474%,84.70459%,23.921204%);fill-opacity:1;" d="M 29.128906 15.652344 L 29.363281 23.652344 L 37.480469 23.652344 C 38.480469 21.710938 39.304688 20.0625 39.304688 17.828125 C 39.304688 15.960938 37.835938 14.476562 35.714844 14.476562 C 33.472656 14.476562 31.007812 15.230469 29.128906 15.652344 Z M 29.128906 15.652344 "/>
<path style="fill:none;stroke-width:0.192;stroke-linecap:butt;stroke-linejoin:miter;stroke:rgb(0%,0%,0%);stroke-opacity:1;stroke-miterlimit:4;" d="M 38.332031 16.019531 L 38.332031 20.636719 "/>
<path style="fill:none;stroke-width:0.192;stroke-linecap:butt;stroke-linejoin:miter;stroke:rgb(0%,0%,0%);stroke-opacity:1;stroke-miterlimit:4;" d="M 37.683594 15.550781 L 37.683594 21.699219 "/>
<path style="fill:none;stroke-width:0.192;stroke-linecap:butt;stroke-linejoin:miter;stroke:rgb(0%,0%,0%);stroke-opacity:1;stroke-miterlimit:4;" d="M 37.03125 15.226562 L 37.03125 22.550781 "/>
<path style="fill:none;stroke-width:0.192;stroke-linecap:butt;stroke-linejoin:miter;stroke:rgb(0%,0%,0%);stroke-opacity:1;stroke-miterlimit:4;" d="M 36.378906 15.074219 L 36.378906 20.820312 "/>
<path style="fill:none;stroke-width:0.192;stroke-linecap:butt;stroke-linejoin:miter;stroke:rgb(0%,0%,0%);stroke-opacity:1;stroke-miterlimit:4;" d="M 35.726562 15.046875 L 35.726562 20.847656 "/>
<path style="fill:none;stroke-width:0.192;stroke-linecap:butt;stroke-linejoin:miter;stroke:rgb(0%,0%,0%);stroke-opacity:1;stroke-miterlimit:4;" d="M 35.074219 14.84375 L 35.074219 20.84375 "/>
<path style="fill:none;stroke-width:0.192;stroke-linecap:butt;stroke-linejoin:miter;stroke:rgb(0%,0%,0%);stroke-opacity:1;stroke-miterlimit:4;" d="M 34.421875 14.84375 L 34.421875 20.84375 "/>
<path style="fill:none;stroke-width:0.192;stroke-linecap:butt;stroke-linejoin:miter;stroke:rgb(0%,0%,0%);stroke-opacity:1;stroke-miterlimit:4;" d="M 33.769531 14.902344 L 33.769531 20.902344 "/>
<path style="fill:none;stroke-width:0.192;stroke-linecap:butt;stroke-linejoin:miter;stroke:rgb(0%,0%,0%);stroke-opacity:1;stroke-miterlimit:4;" d="M 33.117188 14.960938 L 33.117188 20.960938 "/>
<path style="fill:none;stroke-width:0.192;stroke-linecap:butt;stroke-linejoin:miter;stroke:rgb(0%,0%,0%);stroke-opacity:1;stroke-miterlimit:4;" d="M 32.464844 15.34375 L 32.464844 21.34375 "/>
<path style="fill:none;stroke-width:0.192;stroke-linecap:butt;stroke-linejoin:miter;stroke:rgb(0%,0%,0%);stroke-opacity:1;stroke-miterlimit:4;" d="M 31.8125 15.402344 L 31.8125 22.167969 "/>
<path style="fill:none;stroke-width:0.192;stroke-linecap:butt;stroke-linejoin:miter;stroke:rgb(0%,0%,0%);stroke-opacity:1;stroke-miterlimit:4;" d="M 31.160156 15.402344 L 31.160156 21.402344 "/>
<path style="fill:none;stroke-width:0.192;stroke-linecap:butt;stroke-linejoin:miter;stroke:rgb(0%,0%,0%);stroke-opacity:1;stroke-miterlimit:4;" d="M 30.511719 15.402344 L 30.511719 21.402344 "/>
<path style="fill-rule:evenodd;fill:rgb(0%,0%,0%);fill-opacity:1;stroke-width:0.192;stroke-linecap:butt;stroke-linejoin:miter;stroke:rgb(0%,0%,0%);stroke-opacity:1;stroke-miterlimit:4;" d="M 34.246094 15.09375 C 32.867188 15.320312 29.839844 16.738281 30.1875 18.652344 C 30.675781 21.367188 32.261719 20.277344 34.363281 19.886719 L 35.953125 20.417969 C 36.519531 20.996094 37.355469 21.53125 37.921875 20.828125 L 38.863281 20.828125 L 38.863281 24.503906 L 28.453125 24.503906 L 28.453125 15.625 Z M 34.246094 15.09375 "/>
<path style="fill-rule:evenodd;fill:rgb(99.998474%,84.70459%,23.921204%);fill-opacity:1;stroke-width:0.256;stroke-linecap:butt;stroke-linejoin:miter;stroke:rgb(0%,0%,0%);stroke-opacity:1;stroke-miterlimit:4;" d="M 28.953125 14.460938 C 28.953125 14.8125 29.234375 15.09375 29.582031 15.09375 C 29.933594 15.09375 30.214844 14.8125 30.214844 14.460938 C 30.214844 14.113281 29.933594 13.828125 29.582031 13.828125 C 29.234375 13.828125 28.953125 14.113281 28.953125 14.460938 Z M 28.953125 14.460938 "/>
<path style="fill-rule:evenodd;fill:rgb(99.998474%,84.70459%,23.921204%);fill-opacity:1;stroke-width:0.256;stroke-linecap:butt;stroke-linejoin:miter;stroke:rgb(0%,0%,0%);stroke-opacity:1;stroke-miterlimit:4;" d="M 30.371094 14.121094 C 30.371094 14.46875 30.65625 14.75 31.003906 14.75 C 31.355469 14.75 31.636719 14.46875 31.636719 14.121094 C 31.636719 13.769531 31.355469 13.488281 31.003906 13.488281 C 30.65625 13.488281 30.371094 13.769531 30.371094 14.121094 Z M 30.371094 14.121094 "/>
<path style="fill-rule:evenodd;fill:rgb(99.998474%,84.70459%,23.921204%);fill-opacity:1;stroke-width:0.256;stroke-linecap:butt;stroke-linejoin:miter;stroke:rgb(0%,0%,0%);stroke-opacity:1;stroke-miterlimit:4;" d="M 31.8125 13.757812 C 31.8125 14.105469 32.097656 14.390625 32.445312 14.390625 C 32.796875 14.390625 33.078125 14.105469 33.078125 13.757812 C 33.078125 13.40625 32.796875 13.125 32.445312 13.125 C 32.097656 13.125 31.8125 13.40625 31.8125 13.757812 Z M 31.8125 13.757812 "/>
<path style="fill-rule:evenodd;fill:rgb(99.998474%,84.70459%,23.921204%);fill-opacity:1;stroke-width:0.256;stroke-linecap:butt;stroke-linejoin:miter;stroke:rgb(0%,0%,0%);stroke-opacity:1;stroke-miterlimit:4;" d="M 33.261719 13.515625 C 33.261719 13.867188 33.542969 14.148438 33.894531 14.148438 C 34.242188 14.148438 34.527344 13.867188 34.527344 13.515625 C 34.527344 13.167969 34.242188 12.882812 33.894531 12.882812 C 33.542969 12.882812 33.261719 13.167969 33.261719 13.515625 Z M 33.261719 13.515625 "/>
<path style="fill-rule:evenodd;fill:rgb(99.998474%,84.70459%,23.921204%);fill-opacity:1;stroke-width:0.256;stroke-linecap:butt;stroke-linejoin:miter;stroke:rgb(0%,0%,0%);stroke-opacity:1;stroke-miterlimit:4;" d="M 34.707031 13.375 C 34.707031 13.722656 34.992188 14.003906 35.339844 14.003906 C 35.691406 14.003906 35.972656 13.722656 35.972656 13.375 C 35.972656 13.023438 35.691406 12.742188 35.339844 12.742188 C 34.992188 12.742188 34.707031 13.023438 34.707031 13.375 Z M 34.707031 13.375 "/>
<path style="fill-rule:evenodd;fill:rgb(99.998474%,84.70459%,23.921204%);fill-opacity:1;stroke-width:0.256;stroke-linecap:butt;stroke-linejoin:miter;stroke:rgb(0%,0%,0%);stroke-opacity:1;stroke-miterlimit:4;" d="M 36.128906 13.453125 C 36.128906 13.804688 36.410156 14.085938 36.761719 14.085938 C 37.109375 14.085938 37.390625 13.804688 37.390625 13.453125 C 37.390625 13.105469 37.109375 12.820312 36.761719 12.820312 C 36.410156 12.820312 36.128906 13.105469 36.128906 13.453125 Z M 36.128906 13.453125 "/>
<path style="fill-rule:evenodd;fill:rgb(99.998474%,84.70459%,23.921204%);fill-opacity:1;stroke-width:0.256;stroke-linecap:butt;stroke-linejoin:miter;stroke:rgb(0%,0%,0%);stroke-opacity:1;stroke-miterlimit:4;" d="M 37.480469 13.917969 C 37.480469 14.265625 37.765625 14.550781 38.113281 14.550781 C 38.460938 14.550781 38.746094 14.265625 38.746094 13.917969 C 38.746094 13.566406 38.460938 13.285156 38.113281 13.285156 C 37.765625 13.285156 37.480469 13.566406 37.480469 13.917969 Z M 37.480469 13.917969 "/>
<path style="fill-rule:evenodd;fill:rgb(99.998474%,84.70459%,23.921204%);fill-opacity:1;stroke-width:0.256;stroke-linecap:butt;stroke-linejoin:miter;stroke:rgb(0%,0%,0%);stroke-opacity:1;stroke-miterlimit:4;" d="M 38.621094 14.753906 C 38.621094 15.105469 38.902344 15.386719 39.253906 15.386719 C 39.601562 15.386719 39.886719 15.105469 39.886719 14.753906 C 39.886719 14.40625 39.601562 14.125 39.253906 14.125 C 38.902344 14.125 38.621094 14.40625 38.621094 14.753906 Z M 38.621094 14.753906 "/>
<path style="fill-rule:evenodd;fill:rgb(99.998474%,84.70459%,23.921204%);fill-opacity:1;stroke-width:0.256;stroke-linecap:butt;stroke-linejoin:miter;stroke:rgb(0%,0%,0%);stroke-opacity:1;stroke-miterlimit:4;" d="M 39.429688 15.925781 C 39.429688 16.273438 39.710938 16.558594 40.0625 16.558594 C 40.410156 16.558594 40.695312 16.273438 40.695312 15.925781 C 40.695312 15.574219 40.410156 15.292969 40.0625 15.292969 C 39.710938 15.292969 39.429688 15.574219 39.429688 15.925781 Z M 39.429688 15.925781 "/>
<path style="fill-rule:evenodd;fill:rgb(99.998474%,84.70459%,23.921204%);fill-opacity:1;stroke-width:0.256;stroke-linecap:butt;stroke-linejoin:miter;stroke:rgb(0%,0%,0%);stroke-opacity:1;stroke-miterlimit:4;" d="M 39.820312 17.300781 C 39.820312 17.648438 40.101562 17.933594 40.453125 17.933594 C 40.800781 17.933594 41.082031 17.648438 41.082031 17.300781 C 41.082031 16.949219 40.800781 16.667969 40.453125 16.667969 C 40.101562 16.667969 39.820312 16.949219 39.820312 17.300781 Z M 39.820312 17.300781 "/>
<path style="fill-rule:evenodd;fill:rgb(99.998474%,84.70459%,23.921204%);fill-opacity:1;stroke-width:0.256;stroke-linecap:butt;stroke-linejoin:miter;stroke:rgb(0%,0%,0%);stroke-opacity:1;stroke-miterlimit:4;" d="M 39.804688 18.726562 C 39.804688 19.074219 40.085938 19.359375 40.4375 19.359375 C 40.785156 19.359375 41.070312 19.074219 41.070312 18.726562 C 41.070312 18.378906 40.785156 18.09375 40.4375 18.09375 C 40.085938 18.09375 39.804688 18.378906 39.804688 18.726562 Z M 39.804688 18.726562 "/>
<path style="fill-rule:evenodd;fill:rgb(99.998474%,84.70459%,23.921204%);fill-opacity:1;stroke-width:0.256;stroke-linecap:butt;stroke-linejoin:miter;stroke:rgb(0%,0%,0%);stroke-opacity:1;stroke-miterlimit:4;" d="M 39.53125 20.125 C 39.53125 20.472656 39.816406 20.753906 40.164062 20.753906 C 40.515625 20.753906 40.796875 20.472656 40.796875 20.125 C 40.796875 19.773438 40.515625 19.492188 40.164062 19.492188 C 39.816406 19.492188 39.53125 19.773438 39.53125 20.125 Z M 39.53125 20.125 "/>
<path style="fill-rule:evenodd;fill:rgb(99.998474%,84.70459%,23.921204%);fill-opacity:1;stroke-width:0.256;stroke-linecap:butt;stroke-linejoin:miter;stroke:rgb(0%,0%,0%);stroke-opacity:1;stroke-miterlimit:4;" d="M 29.304688 15.300781 L 29.363281 16.125 C 30.9375 15.882812 33.167969 15.003906 35.246094 15.003906 C 37.167969 15.003906 38.65625 15.773438 38.65625 17.710938 C 38.65625 19.621094 37.847656 21.359375 36.773438 23.125 L 37.890625 23.652344 C 38.890625 21.710938 39.714844 20.0625 39.714844 17.828125 C 39.714844 15.960938 38.246094 14.125 35.714844 14.125 C 33.472656 14.125 31.1875 14.878906 29.304688 15.300781 Z M 29.304688 15.300781 "/>
<path style=" stroke:none;fill-rule:evenodd;fill:rgb(99.998474%,84.70459%,23.921204%);fill-opacity:1;" d="M 28.410156 6.800781 L 27.75 8.035156 L 28.410156 9.269531 L 29.070312 8.035156 Z M 28.410156 9.921875 L 27.75 11.152344 L 28.410156 12.386719 L 29.070312 11.152344 Z M 28.410156 9.921875 "/>
<path style="fill:none;stroke-width:0.256;stroke-linecap:butt;stroke-linejoin:miter;stroke:rgb(0%,0%,0%);stroke-opacity:1;stroke-miterlimit:4;" d="M 28.410156 6.800781 L 27.75 8.035156 L 28.410156 9.269531 L 29.070312 8.035156 Z M 28.410156 6.800781 "/>
<path style="fill:none;stroke-width:0.256;stroke-linecap:butt;stroke-linejoin:miter;stroke:rgb(0%,0%,0%);stroke-opacity:1;stroke-miterlimit:4;" d="M 28.410156 9.921875 L 27.75 11.152344 L 28.410156 12.386719 L 29.070312 11.152344 Z M 28.410156 9.921875 "/>
<path style=" stroke:none;fill-rule:evenodd;fill:rgb(99.998474%,84.70459%,23.921204%);fill-opacity:1;" d="M 26.058594 9.59375 L 27.101562 10.253906 L 28.136719 9.59375 L 27.101562 8.933594 Z M 28.6875 9.59375 L 29.722656 10.253906 L 30.765625 9.59375 L 29.722656 8.933594 Z M 28.6875 9.59375 "/>
<path style="fill:none;stroke-width:0.256;stroke-linecap:butt;stroke-linejoin:miter;stroke:rgb(0%,0%,0%);stroke-opacity:1;stroke-miterlimit:4;" d="M 26.058594 9.59375 L 27.101562 10.253906 L 28.136719 9.59375 L 27.101562 8.933594 Z M 26.058594 9.59375 "/>
<path style="fill:none;stroke-width:0.256;stroke-linecap:butt;stroke-linejoin:miter;stroke:rgb(0%,0%,0%);stroke-opacity:1;stroke-miterlimit:4;" d="M 28.6875 9.59375 L 29.722656 10.253906 L 30.765625 9.59375 L 29.722656 8.933594 Z M 28.6875 9.59375 "/>
<path style="fill-rule:evenodd;fill:rgb(99.998474%,84.70459%,23.921204%);fill-opacity:1;stroke-width:0.256;stroke-linecap:butt;stroke-linejoin:miter;stroke:rgb(0%,0%,0%);stroke-opacity:1;stroke-miterlimit:4;" d="M 28.910156 9.609375 C 28.910156 9.886719 28.6875 10.109375 28.410156 10.109375 C 28.136719 10.109375 27.910156 9.886719 27.910156 9.609375 C 27.910156 9.332031 28.136719 9.109375 28.410156 9.109375 C 28.6875 9.109375 28.910156 9.332031 28.910156 9.609375 Z M 28.910156 9.609375 "/>
<path style="fill-rule:evenodd;fill:rgb(99.998474%,84.70459%,23.921204%);fill-opacity:1;stroke-width:0.256;stroke-linecap:butt;stroke-linejoin:miter;stroke:rgb(0%,0%,0%);stroke-opacity:1;stroke-miterlimit:4;" d="M 29.75 12.800781 C 29.75 13.539062 29.152344 14.136719 28.410156 14.136719 C 27.671875 14.136719 27.074219 13.539062 27.074219 12.800781 C 27.074219 12.0625 27.671875 11.460938 28.410156 11.460938 C 29.152344 11.460938 29.75 12.0625 29.75 12.800781 Z M 29.75 12.800781 "/>
<path style="fill:none;stroke-width:0.192;stroke-linecap:butt;stroke-linejoin:miter;stroke:rgb(0%,0%,0%);stroke-opacity:1;stroke-miterlimit:4;" d="M 28.078125 11.503906 C 28.078125 11.902344 28.074219 12.132812 28.070312 12.351562 C 27.75 12.367188 27.429688 12.398438 27.121094 12.453125 "/>
<path style="fill:none;stroke-width:0.192;stroke-linecap:butt;stroke-linejoin:miter;stroke:rgb(0%,0%,0%);stroke-opacity:1;stroke-miterlimit:4;" d="M 29.703125 12.453125 C 29.390625 12.398438 29.074219 12.367188 28.75 12.351562 L 28.75 11.503906 "/>
<path style="fill:none;stroke-width:0.192;stroke-linecap:butt;stroke-linejoin:miter;stroke:rgb(0%,0%,0%);stroke-opacity:1;stroke-miterlimit:4;" d="M 27.117188 13.128906 C 27.539062 13.058594 27.96875 13.019531 28.410156 13.019531 C 28.855469 13.019531 29.285156 13.058594 29.707031 13.128906 "/>
<path style=" stroke:none;fill-rule:evenodd;fill:rgb(99.998474%,84.70459%,23.921204%);fill-opacity:1;" d="M 27.105469 15.0625 C 26.976562 17.25 26.71875 19.476562 25.867188 21.097656 L 27.25 20.535156 C 27.734375 18.703125 27.835938 16.332031 27.984375 15.210938 Z M 29.71875 15.0625 L 28.839844 15.210938 C 28.988281 16.332031 29.089844 18.703125 29.570312 20.535156 L 30.957031 21.097656 C 30.105469 19.476562 29.847656 17.25 29.71875 15.0625 Z M 29.71875 15.0625 "/>
<path style="fill:none;stroke-width:0.256;stroke-linecap:butt;stroke-linejoin:miter;stroke:rgb(0%,0%,0%);stroke-opacity:1;stroke-miterlimit:4;" d="M 27.105469 15.0625 C 26.976562 17.25 26.71875 19.476562 25.867188 21.097656 L 27.25 20.535156 C 27.734375 18.703125 27.835938 16.332031 27.984375 15.210938 Z M 27.105469 15.0625 "/>
<path style="fill:none;stroke-width:0.256;stroke-linecap:butt;stroke-linejoin:miter;stroke:rgb(0%,0%,0%);stroke-opacity:1;stroke-miterlimit:4;" d="M 29.71875 15.0625 L 28.839844 15.210938 C 28.988281 16.332031 29.089844 18.703125 29.570312 20.535156 L 30.957031 21.097656 C 30.105469 19.476562 29.847656 17.25 29.71875 15.0625 Z M 29.71875 15.0625 "/>
<path style="fill-rule:evenodd;fill:rgb(99.998474%,84.70459%,23.921204%);fill-opacity:1;stroke-width:0.256;stroke-linecap:butt;stroke-linejoin:miter;stroke:rgb(0%,0%,0%);stroke-opacity:1;stroke-miterlimit:4;" d="M 28.410156 19.800781 C 26.757812 19.800781 25.542969 20.578125 25.46875 22.5625 C 25.066406 21.851562 23.355469 19.617188 21.761719 19.917969 C 20.8125 20.09375 19.976562 21.410156 20.117188 22.917969 C 19.332031 20.660156 17.03125 20.289062 15.355469 21.625 C 16.84375 22.847656 17.507812 26.46875 18.761719 28.035156 L 38.058594 28.035156 C 39.3125 26.46875 39.980469 22.847656 41.46875 21.625 C 39.792969 20.289062 37.492188 20.660156 36.707031 22.917969 C 36.847656 21.410156 36.007812 20.09375 35.058594 19.917969 C 33.464844 19.617188 31.757812 21.851562 31.355469 22.5625 C 31.28125 20.578125 30.0625 19.800781 28.410156 19.800781 Z M 28.410156 19.800781 "/>
<path style="fill-rule:evenodd;fill:rgb(0%,0%,0%);fill-opacity:1;stroke-width:0.192;stroke-linecap:butt;stroke-linejoin:miter;stroke:rgb(0%,0%,0%);stroke-opacity:1;stroke-miterlimit:4;" d="M 38.03125 28.035156 C 38.03125 28.75 33.722656 29.535156 28.410156 29.535156 C 23.101562 29.535156 18.792969 28.75 18.792969 28.035156 C 18.792969 27.320312 23.101562 26.945312 28.410156 26.945312 C 33.722656 26.945312 38.03125 27.320312 38.03125 28.035156 Z M 38.03125 28.035156 "/>
<path style="fill-rule:evenodd;fill:rgb(99.998474%,84.70459%,23.921204%);fill-opacity:1;stroke-width:0.192;stroke-linecap:butt;stroke-linejoin:miter;stroke:rgb(0%,0%,0%);stroke-opacity:1;stroke-miterlimit:4;" d="M 28.859375 14.648438 C 28.859375 14.898438 28.660156 15.097656 28.410156 15.097656 C 28.164062 15.097656 27.964844 14.898438 27.964844 14.648438 C 27.964844 14.402344 28.164062 14.199219 28.410156 14.199219 C 28.660156 14.199219 28.859375 14.402344 28.859375 14.648438 Z M 28.859375 14.648438 "/>
<path style="fill-rule:evenodd;fill:rgb(99.998474%,84.70459%,23.921204%);fill-opacity:1;stroke-width:0.192;stroke-linecap:butt;stroke-linejoin:miter;stroke:rgb(0%,0%,0%);stroke-opacity:1;stroke-miterlimit:4;" d="M 28.890625 15.621094 C 28.890625 15.882812 28.675781 16.097656 28.410156 16.097656 C 28.148438 16.097656 27.933594 15.882812 27.933594 15.621094 C 27.933594 15.355469 28.148438 15.140625 28.410156 15.140625 C 28.675781 15.140625 28.890625 15.355469 28.890625 15.621094 Z M 28.890625 15.621094 "/>
<path style="fill-rule:evenodd;fill:rgb(99.998474%,84.70459%,23.921204%);fill-opacity:1;stroke-width:0.192;stroke-linecap:butt;stroke-linejoin:miter;stroke:rgb(0%,0%,0%);stroke-opacity:1;stroke-miterlimit:4;" d="M 28.933594 16.664062 C 28.933594 16.953125 28.699219 17.1875 28.410156 17.1875 C 28.125 17.1875 27.890625 16.953125 27.890625 16.664062 C 27.890625 16.375 28.125 16.140625 28.410156 16.140625 C 28.699219 16.140625 28.933594 16.375 28.933594 16.664062 Z M 28.933594 16.664062 "/>
<path style="fill-rule:evenodd;fill:rgb(99.998474%,84.70459%,23.921204%);fill-opacity:1;stroke-width:0.192;stroke-linecap:butt;stroke-linejoin:miter;stroke:rgb(0%,0%,0%);stroke-opacity:1;stroke-miterlimit:4;" d="M 29.007812 17.824219 C 29.007812 18.15625 28.742188 18.421875 28.410156 18.421875 C 28.082031 18.421875 27.816406 18.15625 27.816406 17.824219 C 27.816406 17.496094 28.082031 17.230469 28.410156 17.230469 C 28.742188 17.230469 29.007812 17.496094 29.007812 17.824219 Z M 29.007812 17.824219 "/>
<path style="fill-rule:evenodd;fill:rgb(99.998474%,84.70459%,23.921204%);fill-opacity:1;stroke-width:0.192;stroke-linecap:butt;stroke-linejoin:miter;stroke:rgb(0%,0%,0%);stroke-opacity:1;stroke-miterlimit:4;" d="M 29.066406 19.121094 C 29.066406 19.480469 28.773438 19.773438 28.410156 19.773438 C 28.050781 19.773438 27.757812 19.480469 27.757812 19.121094 C 27.757812 18.757812 28.050781 18.464844 28.410156 18.464844 C 28.773438 18.464844 29.066406 18.757812 29.066406 19.121094 Z M 29.066406 19.121094 "/>
<path style=" stroke:none;fill-rule:evenodd;fill:rgb(0%,0%,0%);fill-opacity:1;" d="M 28.152344 20.378906 C 28.082031 20.378906 28.015625 20.4375 28.03125 20.550781 C 28.054688 20.683594 28.078125 20.933594 28.105469 21.101562 C 28.132812 21.292969 28.242188 21.246094 28.273438 21.097656 C 28.300781 20.949219 28.289062 20.855469 28.296875 20.578125 C 28.300781 20.441406 28.222656 20.378906 28.152344 20.378906 Z M 28.671875 20.378906 C 28.601562 20.378906 28.523438 20.441406 28.527344 20.578125 C 28.535156 20.855469 28.523438 20.949219 28.550781 21.097656 C 28.582031 21.246094 28.691406 21.292969 28.71875 21.101562 C 28.746094 20.933594 28.769531 20.683594 28.792969 20.550781 C 28.808594 20.4375 28.742188 20.378906 28.671875 20.378906 Z M 27.6875 20.449219 C 27.625 20.460938 27.554688 20.523438 27.558594 20.59375 C 27.566406 20.722656 27.601562 20.875 27.617188 21.066406 C 27.628906 21.265625 27.769531 21.1875 27.785156 21.074219 C 27.796875 20.960938 27.8125 20.792969 27.800781 20.574219 C 27.796875 20.492188 27.757812 20.457031 27.714844 20.449219 C 27.707031 20.449219 27.699219 20.449219 27.6875 20.449219 Z M 29.109375 20.449219 C 29.066406 20.457031 29.03125 20.492188 29.023438 20.574219 C 29.011719 20.792969 29.027344 20.960938 29.039062 21.074219 C 29.054688 21.1875 29.195312 21.265625 29.207031 21.066406 C 29.222656 20.875 29.257812 20.722656 29.265625 20.59375 C 29.269531 20.523438 29.199219 20.460938 29.136719 20.449219 C 29.125 20.449219 29.117188 20.449219 29.109375 20.449219 Z M 27.132812 20.675781 C 27.074219 20.6875 27.019531 20.761719 27.035156 20.84375 C 27.070312 21.003906 27.105469 21.183594 27.105469 21.351562 C 27.105469 21.492188 27.226562 21.441406 27.230469 21.34375 C 27.238281 21.242188 27.25 21.03125 27.25 20.84375 C 27.25 20.699219 27.191406 20.660156 27.132812 20.675781 Z M 29.652344 20.675781 C 29.609375 20.6875 29.570312 20.734375 29.570312 20.84375 C 29.570312 21.03125 29.585938 21.242188 29.59375 21.34375 C 29.597656 21.441406 29.71875 21.492188 29.71875 21.351562 C 29.71875 21.183594 29.753906 21.003906 29.789062 20.84375 C 29.804688 20.761719 29.75 20.6875 29.691406 20.675781 C 29.675781 20.671875 29.667969 20.671875 29.652344 20.675781 Z M 22.089844 20.695312 C 22.015625 20.695312 21.96875 20.789062 22.015625 20.894531 C 22.09375 21.066406 22.175781 21.171875 22.257812 21.355469 C 22.328125 21.519531 22.4375 21.417969 22.398438 21.304688 C 22.363281 21.191406 22.328125 21.066406 22.21875 20.824219 C 22.179688 20.734375 22.128906 20.699219 22.089844 20.695312 Z M 34.734375 20.695312 C 34.695312 20.699219 34.644531 20.734375 34.605469 20.824219 C 34.5 21.066406 34.460938 21.191406 34.421875 21.304688 C 34.390625 21.417969 34.496094 21.519531 34.566406 21.355469 C 34.648438 21.171875 34.730469 21.066406 34.808594 20.894531 C 34.855469 20.789062 34.808594 20.695312 34.734375 20.695312 Z M 22.601562 20.703125 C 22.546875 20.71875 22.515625 20.785156 22.546875 20.863281 C 22.613281 21.019531 22.703125 21.179688 22.769531 21.347656 C 22.824219 21.496094 22.949219 21.453125 22.90625 21.320312 C 22.867188 21.1875 22.851562 21.105469 22.769531 20.851562 C 22.726562 20.726562 22.652344 20.6875 22.601562 20.703125 Z M 34.183594 20.703125 C 34.140625 20.714844 34.089844 20.757812 34.054688 20.851562 C 33.972656 21.105469 33.957031 21.1875 33.917969 21.320312 C 33.875 21.453125 34 21.496094 34.054688 21.347656 C 34.121094 21.179688 34.210938 21.019531 34.277344 20.863281 C 34.308594 20.785156 34.277344 20.71875 34.222656 20.703125 C 34.210938 20.699219 34.199219 20.703125 34.183594 20.703125 Z M 23.238281 20.828125 C 23.175781 20.839844 23.125 20.941406 23.167969 21.0625 C 23.222656 21.21875 23.304688 21.367188 23.375 21.542969 C 23.445312 21.722656 23.5625 21.6875 23.535156 21.574219 C 23.507812 21.457031 23.472656 21.269531 23.386719 20.988281 C 23.351562 20.863281 23.292969 20.820312 23.238281 20.828125 Z M 33.582031 20.828125 C 33.53125 20.820312 33.472656 20.863281 33.4375 20.988281 C 33.351562 21.269531 33.316406 21.457031 33.289062 21.574219 C 33.257812 21.6875 33.378906 21.722656 33.449219 21.542969 C 33.519531 21.367188 33.597656 21.21875 33.65625 21.0625 C 33.699219 20.941406 33.648438 20.839844 33.582031 20.828125 Z M 21.65625 20.917969 C 21.585938 20.921875 21.519531 21.039062 21.5625 21.128906 C 21.636719 21.269531 21.679688 21.316406 21.75 21.46875 C 21.820312 21.625 21.894531 21.503906 21.867188 21.40625 C 21.839844 21.304688 21.804688 21.191406 21.769531 21.046875 C 21.742188 20.945312 21.699219 20.910156 21.65625 20.917969 Z M 35.167969 20.917969 C 35.125 20.910156 35.082031 20.945312 35.054688 21.046875 C 35.019531 21.191406 34.984375 21.304688 34.957031 21.40625 C 34.925781 21.503906 35.003906 21.625 35.078125 21.46875 C 35.144531 21.316406 35.1875 21.269531 35.261719 21.128906 C 35.304688 21.039062 35.238281 20.921875 35.167969 20.917969 Z M 26.589844 21.273438 C 26.511719 21.273438 26.433594 21.375 26.460938 21.464844 C 26.503906 21.613281 26.566406 21.746094 26.617188 21.9375 C 26.660156 22.109375 26.78125 22.023438 26.773438 21.910156 C 26.765625 21.796875 26.746094 21.644531 26.695312 21.402344 C 26.675781 21.3125 26.632812 21.273438 26.589844 21.273438 Z M 30.234375 21.273438 C 30.191406 21.273438 30.148438 21.3125 30.128906 21.402344 C 30.078125 21.644531 30.058594 21.796875 30.050781 21.910156 C 30.046875 22.023438 30.164062 22.109375 30.207031 21.9375 C 30.253906 21.746094 30.320312 21.613281 30.363281 21.464844 C 30.390625 21.375 30.3125 21.273438 30.234375 21.273438 Z M 28.410156 21.425781 C 28.320312 21.425781 28.308594 21.550781 28.304688 21.652344 C 28.292969 21.980469 28.15625 22.300781 28.039062 22.457031 C 27.921875 22.617188 27.75 22.574219 27.59375 22.492188 C 27.433594 22.40625 27.339844 22.34375 27.167969 22.214844 C 27 22.085938 26.871094 22.160156 27.070312 22.449219 C 27.664062 23.292969 28.304688 24.011719 28.304688 25.386719 C 28.304688 25.5625 28.335938 25.617188 28.410156 25.617188 C 28.488281 25.617188 28.523438 25.5625 28.523438 25.386719 C 28.523438 24.011719 29.160156 23.292969 29.75 22.449219 C 29.953125 22.160156 29.824219 22.085938 29.65625 22.214844 C 29.484375 22.34375 29.390625 22.40625 29.230469 22.492188 C 29.074219 22.574219 28.902344 22.617188 28.785156 22.457031 C 28.667969 22.300781 28.53125 21.980469 28.519531 21.652344 C 28.515625 21.550781 28.503906 21.425781 28.410156 21.425781 Z M 23.894531 21.21875 C 23.886719 21.21875 23.878906 21.222656 23.871094 21.222656 C 23.835938 21.234375 23.816406 21.277344 23.828125 21.347656 C 23.851562 21.476562 23.941406 21.726562 23.976562 21.847656 C 24.011719 21.96875 24.160156 21.941406 24.125 21.78125 C 24.089844 21.617188 24.089844 21.566406 24.046875 21.382812 C 24.023438 21.285156 23.953125 21.222656 23.894531 21.21875 Z M 32.929688 21.21875 C 32.871094 21.222656 32.800781 21.285156 32.777344 21.382812 C 32.734375 21.566406 32.734375 21.617188 32.699219 21.78125 C 32.664062 21.941406 32.8125 21.96875 32.847656 21.847656 C 32.882812 21.726562 32.972656 21.476562 32.996094 21.347656 C 33.007812 21.277344 32.984375 21.234375 32.953125 21.222656 C 32.945312 21.222656 32.9375 21.21875 32.929688 21.21875 Z M 21.210938 21.273438 C 21.136719 21.277344 21.085938 21.371094 21.160156 21.507812 C 21.242188 21.65625 21.378906 21.84375 21.445312 21.949219 C 21.507812 22.054688 21.617188 21.984375 21.539062 21.847656 C 21.460938 21.714844 21.4375 21.558594 21.34375 21.367188 C 21.308594 21.296875 21.257812 21.269531 21.210938 21.273438 Z M 35.613281 21.273438 C 35.566406 21.269531 35.515625 21.296875 35.480469 21.367188 C 35.386719 21.558594 35.363281 21.714844 35.285156 21.847656 C 35.207031 21.984375 35.316406 22.054688 35.378906 21.949219 C 35.445312 21.84375 35.582031 21.65625 35.664062 21.507812 C 35.738281 21.371094 35.6875 21.277344 35.613281 21.273438 Z M 17.15625 21.699219 C 17.070312 21.695312 17.042969 21.847656 17.125 21.949219 C 17.242188 22.097656 17.320312 22.175781 17.457031 22.296875 C 17.5625 22.394531 17.59375 22.269531 17.539062 22.175781 C 17.488281 22.078125 17.410156 21.980469 17.304688 21.824219 C 17.246094 21.734375 17.195312 21.699219 17.15625 21.699219 Z M 39.667969 21.699219 C 39.628906 21.699219 39.578125 21.734375 39.519531 21.824219 C 39.414062 21.980469 39.335938 22.078125 39.285156 22.175781 C 39.230469 22.269531 39.261719 22.394531 39.367188 22.296875 C 39.5 22.175781 39.582031 22.097656 39.699219 21.949219 C 39.78125 21.847656 39.753906 21.695312 39.667969 21.699219 Z M 17.800781 21.828125 C 17.730469 21.828125 17.6875 21.878906 17.738281 21.996094 C 17.816406 22.160156 17.917969 22.351562 17.980469 22.476562 C 18.042969 22.605469 18.238281 22.648438 18.160156 22.449219 C 18.082031 22.25 18.066406 22.152344 17.996094 21.964844 C 17.960938 21.875 17.867188 21.824219 17.800781 21.828125 Z M 39.023438 21.828125 C 38.957031 21.824219 38.863281 21.875 38.828125 21.964844 C 38.757812 22.152344 38.742188 22.25 38.664062 22.449219 C 38.585938 22.648438 38.78125 22.605469 38.84375 22.476562 C 38.90625 22.351562 39.007812 22.160156 39.082031 21.996094 C 39.136719 21.878906 39.09375 21.828125 39.023438 21.828125 Z M 16.550781 21.871094 C 16.453125 21.871094 16.445312 21.96875 16.53125 22.035156 C 16.648438 22.121094 16.789062 22.214844 16.921875 22.324219 C 17.082031 22.449219 17.144531 22.332031 17.058594 22.226562 C 16.976562 22.121094 16.890625 22.011719 16.679688 21.90625 C 16.625 21.878906 16.585938 21.871094 16.550781 21.871094 Z M 40.273438 21.871094 C 40.238281 21.871094 40.195312 21.878906 40.144531 21.90625 C 39.933594 22.011719 39.847656 22.121094 39.765625 22.226562 C 39.679688 22.332031 39.742188 22.449219 39.898438 22.324219 C 40.035156 22.214844 40.175781 22.121094 40.292969 22.035156 C 40.378906 21.96875 40.371094 21.871094 40.273438 21.871094 Z M 26.234375 21.960938 C 26.179688 21.96875 26.132812 22.03125 26.15625 22.113281 C 26.199219 22.261719 26.246094 22.421875 26.277344 22.574219 C 26.304688 22.722656 26.476562 22.726562 26.449219 22.589844 C 26.421875 22.457031 26.40625 22.289062 26.355469 22.082031 C 26.335938 22.003906 26.296875 21.96875 26.261719 21.960938 C 26.25 21.960938 26.242188 21.960938 26.234375 21.960938 Z M 30.5625 21.960938 C 30.527344 21.96875 30.488281 22.003906 30.46875 22.082031 C 30.417969 22.289062 30.40625 22.457031 30.375 22.589844 C 30.347656 22.726562 30.519531 22.722656 30.546875 22.574219 C 30.578125 22.421875 30.625 22.261719 30.667969 22.113281 C 30.691406 22.03125 30.644531 21.96875 30.589844 21.960938 C 30.578125 21.960938 30.570312 21.960938 30.5625 21.960938 Z M 22.382812 21.707031 C 22.339844 21.71875 22.316406 21.804688 22.347656 21.921875 C 22.527344 22.566406 22.582031 22.910156 22.550781 23.066406 C 22.519531 23.226562 22.433594 23.25 22.316406 23.195312 C 22.199219 23.144531 22.0625 23.066406 21.957031 22.992188 C 21.851562 22.917969 21.738281 23.007812 21.890625 23.132812 C 22.667969 23.769531 23.203125 24.496094 23.410156 25.378906 C 23.453125 25.5625 23.566406 25.582031 23.535156 25.378906 C 23.359375 24.269531 23.328125 23.355469 23.59375 22.78125 C 23.691406 22.566406 23.589844 22.359375 23.433594 22.707031 C 23.324219 22.941406 23.152344 23.035156 23.015625 22.832031 C 22.878906 22.628906 22.59375 22.09375 22.507812 21.847656 C 22.476562 21.757812 22.4375 21.714844 22.402344 21.707031 C 22.398438 21.707031 22.390625 21.707031 22.382812 21.707031 Z M 34.421875 21.707031 C 34.386719 21.714844 34.347656 21.757812 34.316406 21.847656 C 34.230469 22.09375 33.945312 22.628906 33.808594 22.832031 C 33.671875 23.035156 33.5 22.941406 33.390625 22.707031 C 33.234375 22.359375 33.132812 22.566406 33.230469 22.78125 C 33.496094 23.355469 33.464844 24.269531 33.289062 25.378906 C 33.257812 25.582031 33.371094 25.5625 33.410156 25.378906 C 33.621094 24.496094 34.15625 23.769531 34.933594 23.132812 C 35.085938 23.007812 34.972656 22.917969 34.867188 22.992188 C 34.761719 23.066406 34.625 23.144531 34.507812 23.195312 C 34.390625 23.25 34.304688 23.226562 34.273438 23.066406 C 34.238281 22.910156 34.296875 22.566406 34.476562 21.921875 C 34.507812 21.804688 34.484375 21.71875 34.441406 21.707031 C 34.433594 21.707031 34.425781 21.707031 34.421875 21.707031 Z M 18.488281 22.019531 C 18.417969 22.019531 18.359375 22.066406 18.390625 22.175781 C 18.441406 22.34375 18.546875 22.527344 18.582031 22.632812 C 18.621094 22.742188 18.734375 22.691406 18.710938 22.542969 C 18.691406 22.394531 18.679688 22.304688 18.652344 22.140625 C 18.636719 22.0625 18.558594 22.015625 18.488281 22.019531 Z M 38.335938 22.019531 C 38.265625 22.015625 38.1875 22.0625 38.171875 22.140625 C 38.144531 22.304688 38.132812 22.394531 38.113281 22.542969 C 38.089844 22.691406 38.203125 22.742188 38.238281 22.632812 C 38.277344 22.527344 38.382812 22.34375 38.433594 22.175781 C 38.464844 22.066406 38.40625 22.019531 38.335938 22.019531 Z M 20.890625 21.796875 C 20.8125 21.78125 20.796875 21.992188 20.867188 22.078125 C 20.960938 22.1875 21.089844 22.328125 21.214844 22.480469 C 21.320312 22.609375 21.386719 22.496094 21.324219 22.386719 C 21.261719 22.28125 21.164062 22.167969 20.996094 21.898438 C 20.953125 21.832031 20.917969 21.800781 20.890625 21.796875 Z M 35.933594 21.796875 C 35.90625 21.800781 35.871094 21.832031 35.828125 21.898438 C 35.65625 22.167969 35.5625 22.28125 35.5 22.386719 C 35.4375 22.496094 35.5 22.609375 35.609375 22.480469 C 35.734375 22.328125 35.863281 22.1875 35.957031 22.078125 C 36.023438 21.992188 36.011719 21.78125 35.933594 21.796875 Z M 19.035156 22.300781 C 18.984375 22.296875 18.941406 22.339844 18.964844 22.441406 C 18.992188 22.585938 19.035156 22.703125 19.070312 22.839844 C 19.109375 22.972656 19.199219 22.949219 19.199219 22.824219 C 19.199219 22.695312 19.175781 22.554688 19.15625 22.417969 C 19.144531 22.351562 19.085938 22.304688 19.035156 22.300781 Z M 37.789062 22.300781 C 37.738281 22.304688 37.679688 22.351562 37.667969 22.417969 C 37.648438 22.554688 37.625 22.695312 37.625 22.824219 C 37.625 22.949219 37.71875 22.972656 37.75 22.839844 C 37.789062 22.703125 37.832031 22.585938 37.859375 22.441406 C 37.882812 22.339844 37.839844 22.296875 37.789062 22.300781 Z M 20.710938 22.484375 C 20.632812 22.496094 20.5625 22.574219 20.65625 22.691406 C 20.804688 22.882812 20.96875 23.015625 21.023438 23.089844 C 21.082031 23.160156 21.222656 23.132812 21.132812 22.984375 C 21.039062 22.832031 20.894531 22.648438 20.832031 22.535156 C 20.808594 22.492188 20.757812 22.476562 20.710938 22.484375 Z M 36.078125 22.484375 C 36.046875 22.488281 36.011719 22.503906 35.992188 22.535156 C 35.929688 22.648438 35.785156 22.832031 35.691406 22.984375 C 35.601562 23.132812 35.742188 23.160156 35.800781 23.089844 C 35.855469 23.015625 36.019531 22.882812 36.167969 22.691406 C 36.261719 22.574219 36.191406 22.496094 36.113281 22.484375 C 36.101562 22.484375 36.09375 22.484375 36.078125 22.484375 Z M 18.066406 23.019531 C 18.003906 23.011719 17.984375 23.0625 18.066406 23.179688 C 18.257812 23.441406 18.46875 23.835938 18.484375 24.007812 C 18.5 24.175781 18.414062 24.175781 18.335938 24.175781 C 18.101562 24.175781 17.988281 24.003906 17.777344 23.953125 C 17.5625 23.90625 17.53125 24.015625 17.683594 24.125 C 18.460938 24.691406 19.242188 25.324219 19.554688 25.898438 C 19.683594 26.132812 19.855469 26.21875 19.761719 25.996094 C 19.46875 25.3125 19.394531 24.734375 19.460938 24.382812 C 19.523438 24.03125 19.609375 23.796875 19.601562 23.59375 C 19.589844 23.390625 19.476562 23.40625 19.429688 23.59375 C 19.394531 23.722656 19.335938 23.890625 19.292969 23.953125 C 19.25 24.019531 19.078125 24.054688 18.917969 23.835938 C 18.753906 23.613281 18.34375 23.191406 18.207031 23.085938 C 18.15625 23.046875 18.105469 23.023438 18.066406 23.019531 Z M 38.757812 23.019531 C 38.71875 23.023438 38.667969 23.046875 38.617188 23.085938 C 38.480469 23.191406 38.070312 23.613281 37.90625 23.835938 C 37.746094 24.054688 37.574219 24.019531 37.53125 23.953125 C 37.488281 23.890625 37.429688 23.722656 37.394531 23.59375 C 37.347656 23.40625 37.234375 23.390625 37.222656 23.59375 C 37.214844 23.796875 37.300781 24.03125 37.363281 24.382812 C 37.425781 24.734375 37.355469 25.3125 37.0625 25.996094 C 36.96875 26.21875 37.140625 26.132812 37.269531 25.898438 C 37.582031 25.324219 38.359375 24.691406 39.140625 24.125 C 39.292969 24.015625 39.261719 23.90625 39.046875 23.953125 C 38.835938 24.003906 38.722656 24.175781 38.488281 24.175781 C 38.410156 24.175781 38.324219 24.175781 38.339844 24.007812 C 38.355469 23.835938 38.566406 23.441406 38.757812 23.179688 C 38.839844 23.0625 38.820312 23.011719 38.757812 23.019531 Z M 38.757812 23.019531 "/>
<path style=" stroke:none;fill-rule:evenodd;fill:rgb(99.998474%,84.70459%,23.921204%);fill-opacity:1;" d="M 19.214844 27.21875 L 19.464844 28.007812 Z M 19.730469 27.070312 L 19.949219 27.867188 Z M 20.285156 26.976562 L 20.4375 27.792969 Z M 20.796875 26.875 L 20.960938 27.6875 Z M 21.457031 26.808594 L 21.589844 27.628906 Z M 22.160156 26.8125 L 22.304688 27.628906 Z M 22.84375 26.578125 L 22.949219 27.402344 Z M 23.492188 26.621094 L 23.59375 27.441406 Z M 24.113281 26.539062 L 24.21875 27.359375 Z M 24.742188 26.472656 L 24.796875 27.300781 Z M 25.410156 26.472656 L 25.460938 27.300781 Z M 26.015625 26.429688 L 26.058594 27.257812 Z M 26.6875 26.390625 L 26.71875 27.21875 Z M 27.457031 26.367188 L 27.488281 27.195312 Z M 37.609375 27.21875 L 37.359375 28.007812 Z M 37.09375 27.070312 L 36.875 27.867188 Z M 36.539062 26.976562 L 36.386719 27.792969 Z M 36.023438 26.875 L 35.863281 27.6875 Z M 35.367188 26.808594 L 35.234375 27.628906 Z M 34.664062 26.8125 L 34.519531 27.628906 Z M 33.976562 26.578125 L 33.875 27.402344 Z M 33.332031 26.621094 L 33.230469 27.441406 Z M 32.710938 26.539062 L 32.605469 27.359375 Z M 32.082031 26.472656 L 32.027344 27.300781 Z M 31.414062 26.472656 L 31.363281 27.300781 Z M 30.808594 26.429688 L 30.765625 27.257812 Z M 30.136719 26.390625 L 30.101562 27.21875 Z M 29.367188 26.367188 L 29.332031 27.195312 Z M 28.410156 26.316406 L 28.410156 27.226562 Z M 28.410156 26.316406 "/>
<path style="fill:none;stroke-width:0.192;stroke-linecap:butt;stroke-linejoin:miter;stroke:rgb(0%,0%,0%);stroke-opacity:1;stroke-miterlimit:4;" d="M 19.214844 27.21875 L 19.464844 28.007812 "/>
<path style="fill:none;stroke-width:0.192;stroke-linecap:butt;stroke-linejoin:miter;stroke:rgb(0%,0%,0%);stroke-opacity:1;stroke-miterlimit:4;" d="M 19.730469 27.070312 L 19.949219 27.867188 "/>
<path style="fill:none;stroke-width:0.192;stroke-linecap:butt;stroke-linejoin:miter;stroke:rgb(0%,0%,0%);stroke-opacity:1;stroke-miterlimit:4;" d="M 20.285156 26.976562 L 20.4375 27.792969 "/>
<path style="fill:none;stroke-width:0.192;stroke-linecap:butt;stroke-linejoin:miter;stroke:rgb(0%,0%,0%);stroke-opacity:1;stroke-miterlimit:4;" d="M 20.796875 26.875 L 20.960938 27.6875 "/>
<path style="fill:none;stroke-width:0.192;stroke-linecap:butt;stroke-linejoin:miter;stroke:rgb(0%,0%,0%);stroke-opacity:1;stroke-miterlimit:4;" d="M 21.457031 26.808594 L 21.589844 27.628906 "/>
<path style="fill:none;stroke-width:0.192;stroke-linecap:butt;stroke-linejoin:miter;stroke:rgb(0%,0%,0%);stroke-opacity:1;stroke-miterlimit:4;" d="M 22.160156 26.8125 L 22.304688 27.628906 "/>
<path style="fill:none;stroke-width:0.192;stroke-linecap:butt;stroke-linejoin:miter;stroke:rgb(0%,0%,0%);stroke-opacity:1;stroke-miterlimit:4;" d="M 22.84375 26.578125 L 22.949219 27.402344 "/>
<path style="fill:none;stroke-width:0.192;stroke-linecap:butt;stroke-linejoin:miter;stroke:rgb(0%,0%,0%);stroke-opacity:1;stroke-miterlimit:4;" d="M 23.492188 26.621094 L 23.59375 27.441406 "/>
<path style="fill:none;stroke-width:0.192;stroke-linecap:butt;stroke-linejoin:miter;stroke:rgb(0%,0%,0%);stroke-opacity:1;stroke-miterlimit:4;" d="M 24.113281 26.539062 L 24.21875 27.359375 "/>
<path style="fill:none;stroke-width:0.192;stroke-linecap:butt;stroke-linejoin:miter;stroke:rgb(0%,0%,0%);stroke-opacity:1;stroke-miterlimit:4;" d="M 24.742188 26.472656 L 24.796875 27.300781 "/>
<path style="fill:none;stroke-width:0.192;stroke-linecap:butt;stroke-linejoin:miter;stroke:rgb(0%,0%,0%);stroke-opacity:1;stroke-miterlimit:4;" d="M 25.410156 26.472656 L 25.460938 27.300781 "/>
<path style="fill:none;stroke-width:0.192;stroke-linecap:butt;stroke-linejoin:miter;stroke:rgb(0%,0%,0%);stroke-opacity:1;stroke-miterlimit:4;" d="M 26.015625 26.429688 L 26.058594 27.257812 "/>
<path style="fill:none;stroke-width:0.192;stroke-linecap:butt;stroke-linejoin:miter;stroke:rgb(0%,0%,0%);stroke-opacity:1;stroke-miterlimit:4;" d="M 26.6875 26.390625 L 26.71875 27.21875 "/>
<path style="fill:none;stroke-width:0.192;stroke-linecap:butt;stroke-linejoin:miter;stroke:rgb(0%,0%,0%);stroke-opacity:1;stroke-miterlimit:4;" d="M 27.457031 26.367188 L 27.488281 27.195312 "/>
<path style="fill:none;stroke-width:0.192;stroke-linecap:butt;stroke-linejoin:miter;stroke:rgb(0%,0%,0%);stroke-opacity:1;stroke-miterlimit:4;" d="M 37.609375 27.21875 L 37.359375 28.007812 "/>
<path style="fill:none;stroke-width:0.192;stroke-linecap:butt;stroke-linejoin:miter;stroke:rgb(0%,0%,0%);stroke-opacity:1;stroke-miterlimit:4;" d="M 37.09375 27.070312 L 36.875 27.867188 "/>
<path style="fill:none;stroke-width:0.192;stroke-linecap:butt;stroke-linejoin:miter;stroke:rgb(0%,0%,0%);stroke-opacity:1;stroke-miterlimit:4;" d="M 36.539062 26.976562 L 36.386719 27.792969 "/>
<path style="fill:none;stroke-width:0.192;stroke-linecap:butt;stroke-linejoin:miter;stroke:rgb(0%,0%,0%);stroke-opacity:1;stroke-miterlimit:4;" d="M 36.023438 26.875 L 35.863281 27.6875 "/>
<path style="fill:none;stroke-width:0.192;stroke-linecap:butt;stroke-linejoin:miter;stroke:rgb(0%,0%,0%);stroke-opacity:1;stroke-miterlimit:4;" d="M 35.367188 26.808594 L 35.234375 27.628906 "/>
<path style="fill:none;stroke-width:0.192;stroke-linecap:butt;stroke-linejoin:miter;stroke:rgb(0%,0%,0%);stroke-opacity:1;stroke-miterlimit:4;" d="M 34.664062 26.8125 L 34.519531 27.628906 "/>
<path style="fill:none;stroke-width:0.192;stroke-linecap:butt;stroke-linejoin:miter;stroke:rgb(0%,0%,0%);stroke-opacity:1;stroke-miterlimit:4;" d="M 33.976562 26.578125 L 33.875 27.402344 "/>
<path style="fill:none;stroke-width:0.192;stroke-linecap:butt;stroke-linejoin:miter;stroke:rgb(0%,0%,0%);stroke-opacity:1;stroke-miterlimit:4;" d="M 33.332031 26.621094 L 33.230469 27.441406 "/>
<path style="fill:none;stroke-width:0.192;stroke-linecap:butt;stroke-linejoin:miter;stroke:rgb(0%,0%,0%);stroke-opacity:1;stroke-miterlimit:4;" d="M 32.710938 26.539062 L 32.605469 27.359375 "/>
<path style="fill:none;stroke-width:0.192;stroke-linecap:butt;stroke-linejoin:miter;stroke:rgb(0%,0%,0%);stroke-opacity:1;stroke-miterlimit:4;" d="M 32.082031 26.472656 L 32.027344 27.300781 "/>
<path style="fill:none;stroke-width:0.192;stroke-linecap:butt;stroke-linejoin:miter;stroke:rgb(0%,0%,0%);stroke-opacity:1;stroke-miterlimit:4;" d="M 31.414062 26.472656 L 31.363281 27.300781 "/>
<path style="fill:none;stroke-width:0.192;stroke-linecap:butt;stroke-linejoin:miter;stroke:rgb(0%,0%,0%);stroke-opacity:1;stroke-miterlimit:4;" d="M 30.808594 26.429688 L 30.765625 27.257812 "/>
<path style="fill:none;stroke-width:0.192;stroke-linecap:butt;stroke-linejoin:miter;stroke:rgb(0%,0%,0%);stroke-opacity:1;stroke-miterlimit:4;" d="M 30.136719 26.390625 L 30.101562 27.21875 "/>
<path style="fill:none;stroke-width:0.192;stroke-linecap:butt;stroke-linejoin:miter;stroke:rgb(0%,0%,0%);stroke-opacity:1;stroke-miterlimit:4;" d="M 29.367188 26.367188 L 29.332031 27.195312 "/>
<path style="fill:none;stroke-width:0.192;stroke-linecap:butt;stroke-linejoin:miter;stroke:rgb(0%,0%,0%);stroke-opacity:1;stroke-miterlimit:4;" d="M 28.410156 26.316406 L 28.410156 27.226562 "/>
</g>
</svg>
