<?xml version="1.0" encoding="UTF-8"?>
<svg xmlns="http://www.w3.org/2000/svg" xmlns:xlink="http://www.w3.org/1999/xlink" width="128pt" height="85pt" viewBox="0 0 128 85" version="1.1">
<defs>
<clipPath id="clip1">
  <path d="M 0 0 L 127.679688 0 L 127.679688 85 L 0 85 Z M 0 0 "/>
</clipPath>
</defs>
<g id="surface652">
<g clip-path="url(#clip1)" clip-rule="nonzero">
<path style=" stroke:none;fill-rule:evenodd;fill:rgb(0%,47.058105%,36.862183%);fill-opacity:1;" d="M 0 85 L 0 0 L 127.5 0 L 127.5 85 Z M 0 85 "/>
</g>
<path style=" stroke:none;fill-rule:evenodd;fill:rgb(98.429871%,81.959534%,8.627319%);fill-opacity:1;" d="M 63.75 16.027344 L 62.703125 19.253906 L 59.308594 19.253906 L 62.054688 21.25 L 61.003906 24.476562 L 63.75 22.484375 L 66.496094 24.476562 L 65.445312 21.25 L 68.191406 19.253906 L 64.796875 19.253906 Z M 50.355469 21.6875 L 51.042969 23.933594 L 49.117188 25.28125 L 51.464844 25.320312 L 52.152344 27.566406 L 52.917969 25.347656 L 55.265625 25.386719 L 53.390625 23.972656 L 54.152344 21.753906 L 52.230469 23.101562 Z M 77.144531 21.6875 L 75.269531 23.101562 L 73.347656 21.753906 L 74.109375 23.972656 L 72.234375 25.386719 L 74.582031 25.347656 L 75.347656 27.566406 L 76.035156 25.320312 L 78.382812 25.28125 L 76.457031 23.933594 Z M 45.90625 29.105469 L 44.914062 31.234375 L 42.585938 30.949219 L 44.300781 32.546875 L 43.308594 34.675781 L 45.363281 33.539062 L 47.082031 35.140625 L 46.632812 32.835938 L 48.683594 31.695312 L 46.355469 31.410156 Z M 81.59375 29.105469 L 81.144531 31.410156 L 78.816406 31.695312 L 80.867188 32.835938 L 80.417969 35.140625 L 82.136719 33.539062 L 84.191406 34.675781 L 83.199219 32.546875 L 84.914062 30.949219 L 82.585938 31.234375 Z M 81.59375 29.105469 "/>
<path style=" stroke:none;fill-rule:evenodd;fill:rgb(99.998474%,99.998474%,99.998474%);fill-opacity:1;" d="M 63.75 27.199219 C 60.703125 29.835938 58.769531 33.730469 58.769531 38.074219 C 58.769531 41.027344 59.664062 43.773438 61.195312 46.058594 C 59.3125 43.628906 58.195312 40.582031 58.195312 37.277344 C 58.195312 35.082031 58.6875 33 59.570312 31.136719 C 58.960938 30.492188 58.496094 29.707031 58.238281 28.835938 C 57.054688 30.925781 56.378906 33.335938 56.378906 35.902344 C 56.378906 39.097656 57.421875 42.050781 59.191406 44.4375 C 56.113281 41.210938 51.777344 39.203125 46.972656 39.203125 C 46.714844 39.203125 46.457031 39.207031 46.199219 39.21875 C 46.683594 39.671875 47.089844 40.203125 47.394531 40.796875 C 52.175781 40.804688 56.492188 42.800781 59.558594 46 C 56.628906 43.554688 52.855469 42.078125 48.742188 42.078125 C 46.441406 42.078125 44.25 42.539062 42.253906 43.371094 C 44.304688 48.796875 49.550781 52.660156 55.691406 52.660156 C 56.089844 52.660156 56.484375 52.640625 56.875 52.609375 C 56.046875 52.757812 55.191406 52.835938 54.320312 52.835938 C 50.445312 52.835938 46.925781 51.300781 44.34375 48.804688 C 43.804688 49.011719 43.226562 49.140625 42.625 49.175781 C 45.257812 52.152344 49.105469 54.03125 53.390625 54.03125 C 57.460938 54.03125 61.136719 52.335938 63.75 49.613281 C 66.363281 52.335938 70.039062 54.03125 74.109375 54.03125 C 78.394531 54.03125 82.242188 52.152344 84.875 49.175781 C 84.273438 49.140625 83.695312 49.011719 83.15625 48.804688 C 80.574219 51.300781 77.054688 52.835938 73.179688 52.835938 C 72.308594 52.835938 71.453125 52.757812 70.625 52.609375 C 71.015625 52.640625 71.410156 52.660156 71.808594 52.660156 C 77.949219 52.660156 83.195312 48.796875 85.246094 43.371094 C 83.25 42.539062 81.058594 42.078125 78.757812 42.078125 C 74.644531 42.078125 70.871094 43.554688 67.941406 46 C 71.007812 42.800781 75.324219 40.804688 80.105469 40.796875 C 80.410156 40.203125 80.816406 39.671875 81.300781 39.21875 C 81.042969 39.207031 80.785156 39.203125 80.527344 39.203125 C 75.722656 39.203125 71.386719 41.210938 68.308594 44.4375 C 70.078125 42.050781 71.121094 39.097656 71.121094 35.902344 C 71.121094 33.335938 70.445312 30.925781 69.261719 28.835938 C 69.003906 29.707031 68.539062 30.492188 67.929688 31.136719 C 68.8125 33 69.304688 35.082031 69.304688 37.277344 C 69.304688 40.582031 68.1875 43.628906 66.304688 46.058594 C 67.835938 43.773438 68.730469 41.027344 68.730469 38.074219 C 68.730469 33.730469 66.796875 29.835938 63.75 27.199219 Z M 63.75 51.164062 C 61.171875 53.625 57.679688 55.140625 53.832031 55.140625 L 42.652344 55.140625 C 42.984375 55.625 43.328125 56.097656 43.691406 56.554688 L 54.496094 56.554688 C 58.019531 56.554688 61.25 55.285156 63.75 53.175781 C 66.25 55.285156 69.480469 56.554688 73.003906 56.554688 L 83.808594 56.554688 C 84.171875 56.097656 84.515625 55.625 84.847656 55.140625 L 73.667969 55.140625 C 69.820312 55.140625 66.328125 53.625 63.75 51.164062 Z M 44.929688 58.015625 C 45.148438 58.257812 45.375 58.492188 45.601562 58.726562 L 81.898438 58.726562 C 82.125 58.492188 82.351562 58.257812 82.570312 58.015625 Z M 47.167969 60.1875 C 47.617188 60.570312 48.078125 60.941406 48.554688 61.292969 L 78.945312 61.292969 C 79.421875 60.941406 79.882812 60.570312 80.332031 60.1875 Z M 50.167969 62.398438 C 50.992188 62.917969 51.84375 63.394531 52.726562 63.816406 L 74.773438 63.816406 C 75.65625 63.394531 76.507812 62.917969 77.332031 62.398438 Z M 54.34375 64.523438 C 57.253906 65.683594 60.429688 66.316406 63.75 66.316406 C 67.070312 66.316406 70.246094 65.683594 73.15625 64.523438 Z M 54.34375 64.523438 "/>
</g>
</svg>
