<?xml version="1.0" encoding="UTF-8"?>
<svg xmlns="http://www.w3.org/2000/svg" xmlns:xlink="http://www.w3.org/1999/xlink" width="128pt" height="85pt" viewBox="0 0 128 85" version="1.1">
<defs>
<clipPath id="clip1">
  <path d="M 0 0 L 127.679688 0 L 127.679688 85 L 0 85 Z M 0 0 "/>
</clipPath>
<clipPath id="clip2">
  <path d="M 42 0 L 127.679688 0 L 127.679688 85 L 42 85 Z M 42 0 "/>
</clipPath>
<clipPath id="clip3">
  <path d="M 42 42 L 127.679688 42 L 127.679688 85 L 42 85 Z M 42 42 "/>
</clipPath>
</defs>
<g id="surface662">
<g clip-path="url(#clip1)" clip-rule="nonzero">
<path style=" stroke:none;fill-rule:evenodd;fill:rgb(99.998474%,99.998474%,99.998474%);fill-opacity:1;" d="M 0 0 L 127.5 0 L 127.5 85 L 0 85 Z M 0 0 "/>
</g>
<g clip-path="url(#clip2)" clip-rule="nonzero">
<path style=" stroke:none;fill-rule:evenodd;fill:rgb(98.822021%,23.921204%,19.607544%);fill-opacity:1;" d="M 42.5 0 L 127.5 0 L 127.5 85 L 42.5 85 Z M 42.5 0 "/>
</g>
<g clip-path="url(#clip3)" clip-rule="nonzero">
<path style=" stroke:none;fill-rule:evenodd;fill:rgb(0%,49.411011%,22.744751%);fill-opacity:1;" d="M 42.5 42.5 L 127.5 42.5 L 127.5 85 L 42.5 85 Z M 42.5 42.5 "/>
</g>
</g>
</svg>
