<?xml version="1.0" encoding="UTF-8"?>
<svg xmlns="http://www.w3.org/2000/svg" xmlns:xlink="http://www.w3.org/1999/xlink" width="128pt" height="64pt" viewBox="0 0 128 64" version="1.1">
<g id="surface672">
<rect x="0" y="0" width="128" height="64" style="fill:rgb(79.998779%,0%,0.392151%);fill-opacity:1;stroke:none;"/>
<path style=" stroke:none;fill-rule:evenodd;fill:rgb(99.998474%,99.998474%,99.998474%);fill-opacity:1;" d="M 0 59.429688 L 128 59.429688 L 128 64 L 0 64 Z M 0 59.429688 "/>
<path style=" stroke:none;fill-rule:evenodd;fill:rgb(99.998474%,99.998474%,99.998474%);fill-opacity:1;" d="M 0 50.285156 L 128 50.285156 L 128 54.855469 L 0 54.855469 Z M 0 50.285156 "/>
<path style=" stroke:none;fill-rule:evenodd;fill:rgb(99.998474%,99.998474%,99.998474%);fill-opacity:1;" d="M 0 41.144531 L 128 41.144531 L 128 45.714844 L 0 45.714844 Z M 0 41.144531 "/>
<path style=" stroke:none;fill-rule:evenodd;fill:rgb(99.998474%,99.998474%,99.998474%);fill-opacity:1;" d="M 0 32 L 128 32 L 128 36.570312 L 0 36.570312 Z M 0 32 "/>
<path style=" stroke:none;fill-rule:evenodd;fill:rgb(99.998474%,99.998474%,99.998474%);fill-opacity:1;" d="M 0 22.855469 L 128 22.855469 L 128 27.429688 L 0 27.429688 Z M 0 22.855469 "/>
<path style=" stroke:none;fill-rule:evenodd;fill:rgb(99.998474%,99.998474%,99.998474%);fill-opacity:1;" d="M 0 13.714844 L 128 13.714844 L 128 18.285156 L 0 18.285156 Z M 0 13.714844 "/>
<path style=" stroke:none;fill-rule:evenodd;fill:rgb(99.998474%,99.998474%,99.998474%);fill-opacity:1;" d="M 0 4.570312 L 128 4.570312 L 128 9.144531 L 0 9.144531 Z M 0 4.570312 "/>
<path style=" stroke:none;fill-rule:evenodd;fill:rgb(0.392151%,0%,39.99939%);fill-opacity:1;" d="M 0 0 L 64 0 L 64 36.570312 L 0 36.570312 Z M 0 0 "/>
<path style=" stroke:none;fill-rule:evenodd;fill:rgb(99.998474%,79.998779%,0%);fill-opacity:1;" d="M 26.332031 4.570312 C 18.734375 4.570312 12.570312 10.714844 12.570312 18.285156 C 12.570312 25.855469 18.734375 32 26.332031 32 C 29.074219 32 31.632812 31.195312 33.78125 29.816406 C 32.527344 30.246094 31.1875 30.484375 29.789062 30.484375 C 23.054688 30.484375 17.589844 25.035156 17.589844 18.324219 C 17.589844 11.609375 23.054688 6.164062 29.789062 6.164062 C 31.277344 6.164062 32.703125 6.429688 34.023438 6.914062 C 31.828125 5.4375 29.179688 4.570312 26.332031 4.570312 Z M 26.332031 4.570312 "/>
<path style=" stroke:none;fill-rule:evenodd;fill:rgb(99.998474%,79.998779%,0%);fill-opacity:1;" d="M 49.152344 25.425781 L 43.355469 22.402344 L 45.066406 28.589844 L 41.191406 23.414062 L 39.980469 29.714844 L 38.792969 23.410156 L 34.898438 28.574219 L 36.632812 22.390625 L 30.828125 25.398438 L 35.140625 20.558594 L 28.570312 20.8125 L 34.609375 18.277344 L 28.578125 15.726562 L 35.148438 15.996094 L 30.847656 11.144531 L 36.644531 14.171875 L 34.933594 7.980469 L 38.808594 13.160156 L 40.019531 6.855469 L 41.207031 13.164062 L 45.101562 7.996094 L 43.367188 14.179688 L 49.171875 11.175781 L 44.859375 16.011719 L 51.429688 15.761719 L 45.390625 18.292969 L 51.421875 20.847656 L 44.851562 20.574219 Z M 49.152344 25.425781 "/>
</g>
</svg>
