<svg viewBox="0 0 1000 667" xmlns="http://www.w3.org/2000/svg" xmlns:xlink="http://www.w3.org/1999/xlink"><clipPath id="a"><path d="m0 0h1000v666.71875h-1000zm0 0"/></clipPath><clipPath id="b"><path d="m0 444h1000v222.71875h-1000zm0 0"/></clipPath><g clip-path="url(#a)"><path d="m0 666.667969v-666.667969h1000v666.667969zm0 0" fill-rule="evenodd"/></g><g fill-rule="evenodd"><path d="m643.332031 253.332031c0 79.160157-64.171875 143.335938-143.332031 143.335938s-143.332031-64.175781-143.332031-143.335938c0-79.164062 64.171875-143.332031 143.332031-143.332031s143.332031 64.167969 143.332031 143.332031zm0 0" fill="#ce1126"/><path d="m0 222.222656h1000v222.222656h-1000zm0 0" fill="#ce1126"/><path d="m500 26.664062c-4.890625 0-6.667969 7.335938-6.667969 14.449219 0 17.773438 2.226563 26.664063 6.667969 52.21875 4.535156-25.554687 6.667969-34.667969 6.667969-52.21875 0-7.335937-2.226563-14.449219-6.667969-14.449219zm0 0" fill="#ce1126"/><path d="m519.753906 27.527344c-4.867187-.421875-7.28125 6.726562-7.898437 13.808594-1.546875 17.714843-.109375 26.761718 2.085937 52.605468 6.746094-25.0625 9.664063-33.953125 11.195313-51.4375.640625-7.308594-.957031-14.585937-5.382813-14.976562zm0 0" fill="#ce1126"/><path d="m539.359375 30.109375c-4.816406-.851563-7.839844 6.066406-9.074219 13.066406-3.089844 17.511719-2.441406 26.648438-2.5 52.585938 8.902344-24.378907 12.585938-32.980469 15.632813-50.269531 1.269531-7.222657.320312-14.613282-4.058594-15.382813zm0 0" fill="#ce1126"/><path d="m558.664062 34.390625c-4.71875-1.261719-8.339843 5.355469-10.179687 12.222656-4.597656 17.179688-4.75 26.335938-7.074219 52.171875 10.992188-23.515625 15.414063-31.761718 19.957032-48.714844 1.898437-7.085937 1.59375-14.527343-2.703126-15.679687zm0 0" fill="#ce1126"/><path d="m577.523438 40.335938c-4.589844-1.667969-8.773438 4.613281-11.203126 11.292968-6.082031 16.707032-7.03125 25.816406-11.59375 51.355469 13-22.464844 18.121094-30.296875 24.121094-46.792969 2.511719-6.890625 2.851563-14.335937-1.324218-15.855468zm0 0" fill="#ce1126"/><path d="m595.796875 47.90625c-4.433594-2.066406-9.144531 3.824219-12.148437 10.269531-7.515626 16.113281-9.257813 25.109375-16.027344 50.144531 14.910156-21.242187 20.691406-28.59375 28.109375-44.507812 3.097656-6.644531 4.089843-14.027344.066406-15.90625zm0 0" fill="#ce1126"/><path d="m613.335938 57.035156c-4.238282-2.445312-9.441407 3.019532-13 9.175782-8.886719 15.398437-11.410157 24.203124-20.332032 48.558593 16.699219-19.863281 23.105469-26.6875 31.882813-41.890625 3.660156-6.355468 5.296875-13.625 1.449219-15.84375zm0 0" fill="#ce1126"/><path d="m630.011719 67.660156c-4.007813-2.804687-9.667969 2.179688-13.746094 8.007813-10.199219 14.5625-13.476563 23.117187-24.496094 46.601562 18.375-18.335937 25.347657-24.574219 35.417969-38.953125 4.203125-6.011718 6.464844-13.105468 2.824219-15.65625zm0 0" fill="#ce1126"/><path d="m645.695312 79.699219c-3.742187-3.148438-9.816406 1.328125-14.390624 6.777343-11.425782 13.621094-15.433594 21.855469-28.457032 44.289063 19.894532-16.660156 27.386719-22.269531 38.671875-35.71875 4.714844-5.613281 7.585938-12.492187 4.175781-15.347656zm0 0" fill="#ce1126"/><path d="m660.273438 93.054688c-3.453126-3.453126-9.894532.472656-14.921876 5.503906-12.570312 12.570312-17.285156 20.425781-32.21875 41.636718 21.28125-14.863281 29.234376-19.796874 41.644532-32.210937 5.183594-5.183594 8.644531-11.789063 5.496094-14.929687zm0 0" fill="#ce1126"/><path d="m673.640625 107.632812c-3.148437-3.742187-9.910156-.390624-15.355469 4.179688-13.617187 11.429688-19 18.839844-35.714844 38.675781 22.488282-12.957031 30.835938-17.175781 44.285157-28.460937 5.621093-4.714844 9.636719-10.988282 6.785156-14.394532zm0 0" fill="#ce1126"/><path d="m685.679688 123.324219c-2.808594-4.003907-9.839844-1.253907-15.660157 2.820312-14.5625 10.199219-20.574219 17.117188-38.953125 35.417969 23.535156-10.945312 32.21875-14.421875 46.597656-24.496094 6.011719-4.207031 10.558594-10.101562 8.015626-13.742187zm0 0" fill="#ce1126"/><path d="m696.300781 140c-2.449219-4.234375-9.683593-2.109375-15.84375 1.449219-15.394531 8.886719-21.980469 15.257812-41.894531 31.886719 24.398438-8.855469 33.355469-11.5625 48.5625-20.339844 6.347656-3.667969 11.394531-9.148438 9.175781-12.996094zm0 0" fill="#ce1126"/><path d="m705.429688 157.542969c-2.066407-4.433594-9.464844-2.945313-15.90625.058593-16.113282 7.515626-23.230469 13.285157-44.515626 28.113282 25.078126-6.695313 34.242188-8.609375 50.148438-16.027344 6.644531-3.101562 12.152344-8.121094 10.273438-12.144531zm0 0" fill="#ce1126"/><path d="m713 175.808594c-1.679688-4.597656-9.175781-3.753906-15.859375-1.324219-16.703125 6.082031-24.292969 11.207031-46.789063 24.125 25.566407-4.480469 34.855469-5.589844 51.351563-11.597656 6.890625-2.507813 12.816406-7.027344 11.296875-11.203125zm0 0" fill="#ce1126"/><path d="m718.945312 194.667969c-1.269531-4.722657-8.8125-4.542969-15.679687-2.703125-17.171875 4.601562-25.183594 9.050781-48.71875 19.960937 25.855469-2.242187 35.210937-2.535156 52.167969-7.082031 7.089844-1.898438 13.382812-5.886719 12.230468-10.175781zm0 0" fill="#ce1126"/><path d="m276.777344 213.976562c-.847656 4.8125 6.0625 7.832032 13.066406 9.070313 17.507812 3.085937 26.648438 2.441406 52.589844 2.5-24.382813-8.902344-32.980469-12.582031-50.273438-15.628906-7.222656-1.273438-14.609375-.320313-15.382812 4.058593zm0 0" fill="#ce1126"/><path d="m281.054688 194.667969c-1.265626 4.722656 5.359374 8.335937 12.230468 10.175781 17.167969 4.601562 26.332032 4.757812 52.167969 7.082031-23.511719-10.996093-31.761719-15.414062-48.71875-19.960937-7.085937-1.898438-14.527344-1.589844-15.679687 2.703125zm0 0" fill="#ce1126"/><path d="m287 175.808594c-1.667969 4.59375 4.613281 8.773437 11.296875 11.203125 16.703125 6.082031 25.820313 7.035156 51.351563 11.597656-22.460938-12.996094-30.296876-18.117187-46.789063-24.125-6.894531-2.507813-14.335937-2.855469-15.859375 1.324219zm0 0" fill="#ce1126"/><path d="m294.570312 157.542969c-2.066406 4.425781 3.828126 9.140625 10.273438 12.144531 16.113281 7.507812 25.109375 9.257812 50.148438 16.027344-21.246094-14.910156-28.601563-20.691406-44.515626-28.113282-6.644531-3.097656-14.03125-4.09375-15.90625-.058593zm0 0" fill="#ce1126"/><path d="m303.699219 140c-2.441407 4.234375 3.015625 9.441406 9.175781 12.996094 15.394531 8.890625 24.207031 11.40625 48.5625 20.339844-19.867188-16.707032-26.6875-23.109376-41.894531-31.886719-6.347657-3.667969-13.617188-5.300781-15.84375-1.449219zm0 0" fill="#ce1126"/><path d="m314.320312 123.324219c-2.796874 4.003906 2.1875 9.667969 8.015626 13.742187 14.5625 10.199219 23.117187 13.476563 46.597656 24.496094-18.332032-18.371094-24.570313-25.347656-38.953125-35.417969-6.003907-4.203125-13.109375-6.460937-15.660157-2.820312zm0 0" fill="#ce1126"/><path d="m326.359375 107.632812c-3.136719 3.75 1.335937 9.820313 6.785156 14.394532 13.617188 11.425781 21.851563 15.441406 44.285157 28.460937-16.660157-19.902343-22.269532-27.390625-35.714844-38.675781-5.621094-4.714844-12.492188-7.582031-15.355469-4.179688zm0 0" fill="#ce1126"/><path d="m339.726562 93.054688c-3.464843 3.457031.46875 9.902343 5.496094 14.929687 12.566406 12.574219 20.429688 17.28125 41.644532 32.210937-14.867188-21.277343-19.804688-29.226562-32.21875-41.636718-5.1875-5.1875-11.78125-8.644532-14.921876-5.503906zm0 0" fill="#ce1126"/><path d="m354.304688 79.699219c-3.746094 3.140625-.398438 9.902343 4.175781 15.347656 11.425781 13.617187 18.839843 19 38.671875 35.71875-12.949219-22.492187-17.175782-30.84375-28.457032-44.289063-4.714843-5.617187-10.992187-9.636718-14.390624-6.777343zm0 0" fill="#ce1126"/><path d="m369.988281 67.660156c-4.003906 2.804688-1.253906 9.832032 2.824219 15.65625 10.195312 14.5625 17.117188 20.566406 35.417969 38.953125-10.949219-23.535156-14.425781-32.21875-24.496094-46.601562-4.203125-6.007813-10.105469-10.558594-13.746094-8.007813zm0 0" fill="#ce1126"/><path d="m386.664062 57.035156c-4.230468 2.441406-2.105468 9.6875 1.449219 15.84375 8.890625 15.390625 15.261719 21.984375 31.882813 41.890625-8.847656-24.398437-11.554688-33.355469-20.332032-48.558593-3.667968-6.351563-9.148437-11.398438-13-9.175782zm0 0" fill="#ce1126"/><path d="m404.203125 47.90625c-4.425781 2.0625-2.9375 9.460938.066406 15.90625 7.515625 16.113281 13.28125 23.226562 28.109375 44.507812-6.691406-25.074218-8.605468-34.230468-16.027344-50.144531-3.097656-6.644531-8.117187-12.152343-12.148437-10.269531zm0 0" fill="#ce1126"/><path d="m422.476562 40.335938c-4.59375 1.671874-3.757812 9.171874-1.324218 15.855468 6.078125 16.703125 11.210937 24.300782 24.121094 46.792969-4.476563-25.566406-5.585938-34.859375-11.59375-51.355469-2.507813-6.890625-7.03125-12.8125-11.203126-11.292968zm0 0" fill="#ce1126"/><path d="m441.335938 34.390625c-4.726563 1.265625-4.542969 8.804687-2.703126 15.679687 4.601563 17.171876 9.050782 25.179688 19.957032 48.714844-2.238282-25.855468-2.535156-35.210937-7.074219-52.171875-1.898437-7.078125-5.886719-13.371093-10.179687-12.222656zm0 0" fill="#ce1126"/><path d="m460.640625 30.109375c-4.8125.847656-5.289063 8.378906-4.058594 15.382813 3.085938 17.507812 6.816407 25.878906 15.632813 50.269531.03125-25.953125.542968-35.296875-2.5-52.585938-1.273438-7.222656-4.699219-13.835937-9.074219-13.066406zm0 0" fill="#ce1126"/><path d="m480.246094 27.527344c-4.871094.429687-6.003906 7.890625-5.382813 14.976562 1.546875 17.707032 4.535157 26.367188 11.195313 51.4375 2.289062-25.855468 3.617187-35.113281 2.085937-52.605468-.640625-7.300782-3.472656-14.191407-7.898437-13.808594zm0 0" fill="#ce1126"/><path d="m0 205.554688h1000v16.667968h-1000zm0 0"/></g><g clip-path="url(#b)"><path d="m0 444.445312h1000v222.222657h-1000zm0 0" fill="#339e35" fill-rule="evenodd"/></g></svg>