<?xml version="1.0" encoding="UTF-8"?>
<svg xmlns="http://www.w3.org/2000/svg" xmlns:xlink="http://www.w3.org/1999/xlink" width="128pt" height="85pt" viewBox="0 0 128 85" version="1.1">
<defs>
<clipPath id="clip1">
  <path d="M 0 0 L 127.679688 0 L 127.679688 85 L 0 85 Z M 0 0 "/>
</clipPath>
<clipPath id="clip2">
  <path d="M 0 28 L 127.679688 28 L 127.679688 57 L 0 57 Z M 0 28 "/>
</clipPath>
<clipPath id="clip3">
  <path d="M 0 26 L 127.679688 26 L 127.679688 29 L 0 29 Z M 0 26 "/>
</clipPath>
<clipPath id="clip4">
  <path d="M 0 56 L 127.679688 56 L 127.679688 85 L 0 85 Z M 0 56 "/>
</clipPath>
</defs>
<g id="surface667">
<g clip-path="url(#clip1)" clip-rule="nonzero">
<path style=" stroke:none;fill-rule:evenodd;fill:rgb(0%,0%,0%);fill-opacity:1;" d="M 0 85 L 0 0 L 127.5 0 L 127.5 85 Z M 0 85 "/>
</g>
<path style=" stroke:none;fill-rule:evenodd;fill:rgb(80.783081%,6.666565%,14.901733%);fill-opacity:1;" d="M 82.023438 32.300781 C 82.023438 42.394531 73.84375 50.574219 63.75 50.574219 C 53.65625 50.574219 45.476562 42.394531 45.476562 32.300781 C 45.476562 22.207031 53.65625 14.023438 63.75 14.023438 C 73.84375 14.023438 82.023438 22.207031 82.023438 32.300781 Z M 82.023438 32.300781 "/>
<g clip-path="url(#clip2)" clip-rule="nonzero">
<path style=" stroke:none;fill-rule:evenodd;fill:rgb(80.783081%,6.666565%,14.901733%);fill-opacity:1;" d="M 0 28.332031 L 127.5 28.332031 L 127.5 56.667969 L 0 56.667969 Z M 0 28.332031 "/>
</g>
<path style=" stroke:none;fill-rule:evenodd;fill:rgb(80.783081%,6.666565%,14.901733%);fill-opacity:1;" d="M 63.75 3.398438 C 63.125 3.398438 62.898438 4.335938 62.898438 5.242188 C 62.898438 7.507812 63.183594 8.640625 63.75 11.898438 C 64.328125 8.640625 64.601562 7.480469 64.601562 5.242188 C 64.601562 4.308594 64.316406 3.398438 63.75 3.398438 Z M 63.75 3.398438 "/>
<path style=" stroke:none;fill-rule:evenodd;fill:rgb(80.783081%,6.666565%,14.901733%);fill-opacity:1;" d="M 66.269531 3.511719 C 65.648438 3.457031 65.339844 4.367188 65.261719 5.269531 C 65.0625 7.527344 65.246094 8.683594 65.527344 11.976562 C 66.386719 8.78125 66.757812 7.648438 66.953125 5.417969 C 67.035156 4.488281 66.832031 3.558594 66.269531 3.511719 Z M 66.269531 3.511719 "/>
<path style=" stroke:none;fill-rule:evenodd;fill:rgb(80.783081%,6.666565%,14.901733%);fill-opacity:1;" d="M 68.769531 3.839844 C 68.152344 3.730469 67.769531 4.613281 67.609375 5.503906 C 67.21875 7.738281 67.300781 8.902344 67.292969 12.210938 C 68.425781 9.101562 68.898438 8.003906 69.285156 5.800781 C 69.449219 4.878906 69.328125 3.9375 68.769531 3.839844 Z M 68.769531 3.839844 "/>
<path style=" stroke:none;fill-rule:evenodd;fill:rgb(80.783081%,6.666565%,14.901733%);fill-opacity:1;" d="M 71.230469 4.386719 C 70.628906 4.222656 70.167969 5.066406 69.933594 5.941406 C 69.34375 8.132812 69.324219 9.300781 69.03125 12.59375 C 70.429688 9.597656 70.996094 8.546875 71.574219 6.382812 C 71.816406 5.480469 71.777344 4.53125 71.230469 4.386719 Z M 71.230469 4.386719 "/>
<path style=" stroke:none;fill-rule:evenodd;fill:rgb(80.783081%,6.666565%,14.901733%);fill-opacity:1;" d="M 73.632812 5.144531 C 73.050781 4.929688 72.515625 5.730469 72.207031 6.582031 C 71.429688 8.714844 71.308594 9.875 70.726562 13.128906 C 72.386719 10.265625 73.039062 9.269531 73.804688 7.164062 C 74.125 6.285156 74.167969 5.335938 73.632812 5.144531 Z M 73.632812 5.144531 "/>
<path style=" stroke:none;fill-rule:evenodd;fill:rgb(80.783081%,6.666565%,14.901733%);fill-opacity:1;" d="M 75.964844 6.109375 C 75.398438 5.84375 74.796875 6.59375 74.414062 7.417969 C 73.457031 9.472656 73.234375 10.617188 72.371094 13.8125 C 74.273438 11.101562 75.011719 10.164062 75.957031 8.136719 C 76.351562 7.289062 76.476562 6.347656 75.964844 6.109375 Z M 75.964844 6.109375 "/>
<path style=" stroke:none;fill-rule:evenodd;fill:rgb(80.783081%,6.666565%,14.901733%);fill-opacity:1;" d="M 78.199219 7.273438 C 77.660156 6.960938 76.996094 7.65625 76.542969 8.441406 C 75.410156 10.40625 75.089844 11.527344 73.949219 14.632812 C 76.078125 12.101562 76.894531 11.230469 78.015625 9.292969 C 78.484375 8.480469 78.691406 7.554688 78.199219 7.273438 Z M 78.199219 7.273438 "/>
<path style=" stroke:none;fill-rule:evenodd;fill:rgb(80.783081%,6.666565%,14.901733%);fill-opacity:1;" d="M 80.328125 8.625 C 79.816406 8.269531 79.09375 8.90625 78.574219 9.648438 C 77.273438 11.503906 76.855469 12.59375 75.449219 15.589844 C 77.792969 13.25 78.683594 12.457031 79.964844 10.621094 C 80.503906 9.855469 80.789062 8.953125 80.328125 8.625 Z M 80.328125 8.625 "/>
<path style=" stroke:none;fill-rule:evenodd;fill:rgb(80.783081%,6.666565%,14.901733%);fill-opacity:1;" d="M 82.328125 10.160156 C 81.847656 9.761719 81.074219 10.332031 80.492188 11.027344 C 79.035156 12.761719 78.523438 13.8125 76.863281 16.671875 C 79.398438 14.546875 80.355469 13.832031 81.792969 12.117188 C 82.394531 11.402344 82.761719 10.527344 82.328125 10.160156 Z M 82.328125 10.160156 "/>
<path style=" stroke:none;fill-rule:evenodd;fill:rgb(80.783081%,6.666565%,14.901733%);fill-opacity:1;" d="M 84.183594 11.863281 C 83.746094 11.425781 82.921875 11.925781 82.28125 12.566406 C 80.679688 14.167969 80.078125 15.171875 78.175781 17.875 C 80.886719 15.980469 81.902344 15.351562 83.484375 13.769531 C 84.144531 13.105469 84.585938 12.265625 84.183594 11.863281 Z M 84.183594 11.863281 "/>
<path style=" stroke:none;fill-rule:evenodd;fill:rgb(80.783081%,6.666565%,14.901733%);fill-opacity:1;" d="M 85.890625 13.722656 C 85.488281 13.246094 84.625 13.671875 83.929688 14.257812 C 82.195312 15.714844 81.507812 16.660156 79.378906 19.1875 C 82.246094 17.535156 83.308594 16.996094 85.023438 15.558594 C 85.742188 14.957031 86.253906 14.15625 85.890625 13.722656 Z M 85.890625 13.722656 "/>
<path style=" stroke:none;fill-rule:evenodd;fill:rgb(80.783081%,6.666565%,14.901733%);fill-opacity:1;" d="M 87.425781 15.722656 C 87.066406 15.214844 86.167969 15.5625 85.425781 16.082031 C 83.570312 17.382812 82.804688 18.265625 80.460938 20.597656 C 83.460938 19.203125 84.570312 18.761719 86.402344 17.476562 C 87.167969 16.941406 87.75 16.1875 87.425781 15.722656 Z M 87.425781 15.722656 "/>
<path style=" stroke:none;fill-rule:evenodd;fill:rgb(80.783081%,6.666565%,14.901733%);fill-opacity:1;" d="M 88.777344 17.851562 C 88.464844 17.308594 87.542969 17.582031 86.757812 18.035156 C 84.796875 19.167969 83.957031 19.980469 81.417969 22.101562 C 84.527344 20.972656 85.667969 20.625 87.609375 19.507812 C 88.417969 19.039062 89.0625 18.339844 88.777344 17.851562 Z M 88.777344 17.851562 "/>
<path style=" stroke:none;fill-rule:evenodd;fill:rgb(80.783081%,6.666565%,14.901733%);fill-opacity:1;" d="M 89.941406 20.085938 C 89.679688 19.519531 88.734375 19.710938 87.914062 20.09375 C 85.859375 21.050781 84.953125 21.789062 82.238281 23.679688 C 85.4375 22.824219 86.605469 22.582031 88.632812 21.636719 C 89.480469 21.238281 90.183594 20.601562 89.941406 20.085938 Z M 89.941406 20.085938 "/>
<path style=" stroke:none;fill-rule:evenodd;fill:rgb(80.783081%,6.666565%,14.901733%);fill-opacity:1;" d="M 90.90625 22.414062 C 90.695312 21.828125 89.738281 21.9375 88.886719 22.246094 C 86.753906 23.023438 85.789062 23.675781 82.921875 25.324219 C 86.179688 24.75 87.363281 24.609375 89.46875 23.84375 C 90.347656 23.523438 91.101562 22.949219 90.90625 22.414062 Z M 90.90625 22.414062 "/>
<path style=" stroke:none;fill-rule:evenodd;fill:rgb(80.783081%,6.666565%,14.901733%);fill-opacity:1;" d="M 91.664062 24.820312 C 91.503906 24.21875 90.542969 24.242188 89.667969 24.476562 C 87.476562 25.0625 86.457031 25.628906 83.453125 27.019531 C 86.75 26.734375 87.945312 26.699219 90.105469 26.117188 C 91.011719 25.875 91.8125 25.367188 91.664062 24.820312 Z M 91.664062 24.820312 "/>
<path style=" stroke:none;fill-rule:evenodd;fill:rgb(80.783081%,6.666565%,14.901733%);fill-opacity:1;" d="M 35.289062 27.28125 C 35.179688 27.894531 36.0625 28.28125 36.957031 28.4375 C 39.1875 28.832031 40.351562 28.75 43.660156 28.757812 C 40.550781 27.621094 39.453125 27.152344 37.25 26.765625 C 36.328125 26.601562 35.386719 26.722656 35.289062 27.28125 Z M 35.289062 27.28125 "/>
<path style=" stroke:none;fill-rule:evenodd;fill:rgb(80.783081%,6.666565%,14.901733%);fill-opacity:1;" d="M 35.835938 24.820312 C 35.671875 25.421875 36.519531 25.882812 37.394531 26.117188 C 39.582031 26.703125 40.75 26.722656 44.046875 27.019531 C 41.046875 25.617188 39.996094 25.054688 37.832031 24.476562 C 36.929688 24.234375 35.980469 24.273438 35.835938 24.820312 Z M 35.835938 24.820312 "/>
<path style=" stroke:none;fill-rule:evenodd;fill:rgb(80.783081%,6.666565%,14.901733%);fill-opacity:1;" d="M 36.59375 22.414062 C 36.378906 23 37.179688 23.535156 38.03125 23.84375 C 40.164062 24.621094 41.324219 24.742188 44.578125 25.324219 C 41.714844 23.664062 40.71875 23.011719 38.613281 22.246094 C 37.734375 21.925781 36.785156 21.882812 36.59375 22.414062 Z M 36.59375 22.414062 "/>
<path style=" stroke:none;fill-rule:evenodd;fill:rgb(80.783081%,6.666565%,14.901733%);fill-opacity:1;" d="M 37.558594 20.085938 C 37.292969 20.652344 38.046875 21.253906 38.867188 21.636719 C 40.921875 22.59375 42.070312 22.816406 45.261719 23.679688 C 42.550781 21.777344 41.613281 21.039062 39.585938 20.09375 C 38.738281 19.699219 37.796875 19.574219 37.558594 20.085938 Z M 37.558594 20.085938 "/>
<path style=" stroke:none;fill-rule:evenodd;fill:rgb(80.783081%,6.666565%,14.901733%);fill-opacity:1;" d="M 38.722656 17.851562 C 38.410156 18.390625 39.105469 19.054688 39.890625 19.507812 C 41.855469 20.640625 42.976562 20.960938 46.082031 22.101562 C 43.550781 19.96875 42.679688 19.152344 40.742188 18.035156 C 39.933594 17.566406 39.003906 17.359375 38.722656 17.851562 Z M 38.722656 17.851562 "/>
<path style=" stroke:none;fill-rule:evenodd;fill:rgb(80.783081%,6.666565%,14.901733%);fill-opacity:1;" d="M 40.074219 15.722656 C 39.71875 16.234375 40.355469 16.957031 41.097656 17.476562 C 42.953125 18.777344 44.046875 19.195312 47.039062 20.597656 C 44.703125 18.257812 43.90625 17.367188 42.074219 16.082031 C 41.308594 15.546875 40.402344 15.257812 40.074219 15.722656 Z M 40.074219 15.722656 "/>
<path style=" stroke:none;fill-rule:evenodd;fill:rgb(80.783081%,6.666565%,14.901733%);fill-opacity:1;" d="M 41.609375 13.722656 C 41.210938 14.203125 41.78125 14.976562 42.476562 15.558594 C 44.210938 17.015625 45.261719 17.527344 48.121094 19.1875 C 46 16.648438 45.28125 15.695312 43.570312 14.257812 C 42.851562 13.65625 41.976562 13.289062 41.609375 13.722656 Z M 41.609375 13.722656 "/>
<path style=" stroke:none;fill-rule:evenodd;fill:rgb(80.783081%,6.666565%,14.901733%);fill-opacity:1;" d="M 43.316406 11.863281 C 42.875 12.304688 43.375 13.128906 44.015625 13.769531 C 45.617188 15.371094 46.621094 15.972656 49.324219 17.875 C 47.429688 15.160156 46.800781 14.148438 45.21875 12.566406 C 44.554688 11.90625 43.714844 11.464844 43.316406 11.863281 Z M 43.316406 11.863281 "/>
<path style=" stroke:none;fill-rule:evenodd;fill:rgb(80.783081%,6.666565%,14.901733%);fill-opacity:1;" d="M 45.171875 10.160156 C 44.695312 10.5625 45.121094 11.425781 45.707031 12.117188 C 47.164062 13.855469 48.109375 14.539062 50.636719 16.671875 C 48.984375 13.804688 48.445312 12.742188 47.007812 11.027344 C 46.40625 10.308594 45.605469 9.796875 45.171875 10.160156 Z M 45.171875 10.160156 "/>
<path style=" stroke:none;fill-rule:evenodd;fill:rgb(80.783081%,6.666565%,14.901733%);fill-opacity:1;" d="M 47.171875 8.625 C 46.664062 8.984375 47.011719 9.878906 47.535156 10.621094 C 48.832031 12.480469 49.714844 13.246094 52.050781 15.589844 C 50.652344 12.589844 50.210938 11.480469 48.925781 9.648438 C 48.390625 8.882812 47.636719 8.300781 47.171875 8.625 Z M 47.171875 8.625 "/>
<path style=" stroke:none;fill-rule:evenodd;fill:rgb(80.783081%,6.666565%,14.901733%);fill-opacity:1;" d="M 49.300781 7.273438 C 48.761719 7.582031 49.03125 8.507812 49.484375 9.292969 C 50.617188 11.253906 51.429688 12.09375 53.550781 14.632812 C 52.421875 11.523438 52.078125 10.378906 50.957031 8.441406 C 50.488281 7.632812 49.789062 6.988281 49.300781 7.273438 Z M 49.300781 7.273438 "/>
<path style=" stroke:none;fill-rule:evenodd;fill:rgb(80.783081%,6.666565%,14.901733%);fill-opacity:1;" d="M 51.535156 6.109375 C 50.972656 6.371094 51.160156 7.3125 51.542969 8.136719 C 52.503906 10.191406 53.238281 11.097656 55.128906 13.8125 C 54.273438 10.613281 54.03125 9.445312 53.085938 7.417969 C 52.691406 6.570312 52.050781 5.867188 51.535156 6.109375 Z M 51.535156 6.109375 "/>
<path style=" stroke:none;fill-rule:evenodd;fill:rgb(80.783081%,6.666565%,14.901733%);fill-opacity:1;" d="M 53.867188 5.144531 C 53.28125 5.355469 53.386719 6.3125 53.695312 7.164062 C 54.472656 9.292969 55.125 10.261719 56.773438 13.128906 C 56.203125 9.871094 56.058594 8.6875 55.292969 6.582031 C 54.976562 5.703125 54.398438 4.949219 53.867188 5.144531 Z M 53.867188 5.144531 "/>
<path style=" stroke:none;fill-rule:evenodd;fill:rgb(80.783081%,6.666565%,14.901733%);fill-opacity:1;" d="M 56.269531 4.386719 C 55.667969 4.546875 55.691406 5.507812 55.925781 6.382812 C 56.511719 8.574219 57.078125 9.59375 58.46875 12.59375 C 58.183594 9.296875 58.148438 8.105469 57.566406 5.941406 C 57.324219 5.039062 56.816406 4.238281 56.269531 4.386719 Z M 56.269531 4.386719 "/>
<path style=" stroke:none;fill-rule:evenodd;fill:rgb(80.783081%,6.666565%,14.901733%);fill-opacity:1;" d="M 58.730469 3.839844 C 58.117188 3.945312 58.058594 4.90625 58.214844 5.800781 C 58.609375 8.03125 59.082031 9.101562 60.207031 12.210938 C 60.210938 8.902344 60.277344 7.710938 59.890625 5.503906 C 59.726562 4.585938 59.289062 3.742188 58.730469 3.839844 Z M 58.730469 3.839844 "/>
<path style=" stroke:none;fill-rule:evenodd;fill:rgb(80.783081%,6.666565%,14.901733%);fill-opacity:1;" d="M 61.230469 3.511719 C 60.609375 3.566406 60.464844 4.515625 60.546875 5.417969 C 60.742188 7.675781 61.125 8.78125 61.972656 11.976562 C 62.265625 8.679688 62.433594 7.5 62.238281 5.269531 C 62.15625 4.339844 61.796875 3.460938 61.230469 3.511719 Z M 61.230469 3.511719 "/>
<g clip-path="url(#clip3)" clip-rule="nonzero">
<path style=" stroke:none;fill-rule:evenodd;fill:rgb(0%,0%,0%);fill-opacity:1;" d="M 0 26.207031 L 127.5 26.207031 L 127.5 28.332031 L 0 28.332031 Z M 0 26.207031 "/>
</g>
<g clip-path="url(#clip4)" clip-rule="nonzero">
<path style=" stroke:none;fill-rule:evenodd;fill:rgb(19.999695%,61.959839%,20.783997%);fill-opacity:1;" d="M 0 56.667969 L 127.5 56.667969 L 127.5 85 L 0 85 Z M 0 56.667969 "/>
</g>
</g>
</svg>
