<?xml version="1.0" encoding="UTF-8"?>
<svg xmlns="http://www.w3.org/2000/svg" xmlns:xlink="http://www.w3.org/1999/xlink" width="128pt" height="85pt" viewBox="0 0 128 85" version="1.1">
<defs>
<clipPath id="clip1">
  <path d="M 63 0 L 127.679688 0 L 127.679688 85 L 63 85 Z M 63 0 "/>
</clipPath>
</defs>
<g id="surface687">
<g clip-path="url(#clip1)" clip-rule="nonzero">
<path style=" stroke:none;fill-rule:evenodd;fill:rgb(81.175232%,7.843018%,16.862488%);fill-opacity:1;" d="M 63.75 0 L 127.5 0 L 127.5 85 L 63.75 85 Z M 63.75 0 "/>
</g>
<path style=" stroke:none;fill-rule:evenodd;fill:rgb(99.998474%,99.998474%,99.998474%);fill-opacity:1;" d="M 0 0 L 63.75 0 L 63.75 85 L 0 85 Z M 0 0 "/>
<path style=" stroke:none;fill-rule:evenodd;fill:rgb(94.508362%,93.331909%,93.331909%);fill-opacity:1;" d="M 14.238281 12.960938 C 14.238281 13.101562 14.082031 13.214844 13.886719 13.214844 C 13.6875 13.214844 13.53125 13.101562 13.53125 12.960938 C 13.53125 12.820312 13.6875 12.707031 13.886719 12.707031 C 14.082031 12.707031 14.238281 12.820312 14.238281 12.960938 Z M 14.238281 12.960938 "/>
<path style=" stroke:none;fill-rule:evenodd;fill:rgb(90.194702%,5.097961%,18.03894%);fill-opacity:1;" d="M 3.148438 11.734375 L 3.148438 18.175781 L 9.585938 18.175781 C 9.585938 19.246094 10.660156 20.320312 11.734375 20.320312 L 11.734375 26.757812 L 18.171875 26.757812 L 18.171875 20.320312 C 19.246094 20.320312 20.320312 19.246094 20.320312 18.175781 L 26.757812 18.175781 L 26.757812 11.734375 L 20.320312 11.734375 C 20.320312 10.660156 19.246094 9.585938 18.171875 9.585938 L 18.171875 3.148438 L 11.734375 3.148438 L 11.734375 9.585938 C 10.660156 9.585938 9.585938 10.660156 9.585938 11.734375 Z M 3.148438 11.734375 "/>
<path style=" stroke:none;fill-rule:evenodd;fill:rgb(58.822632%,52.940369%,49.01886%);fill-opacity:1;" d="M 3.578125 12.164062 L 3.578125 17.746094 L 10.015625 17.746094 C 10.015625 18.816406 11.089844 19.890625 12.164062 19.890625 L 12.164062 26.332031 L 17.742188 26.332031 L 17.742188 19.890625 C 18.816406 19.890625 19.890625 18.816406 19.890625 17.746094 L 26.328125 17.746094 L 26.328125 12.164062 L 19.890625 12.164062 C 19.890625 11.089844 18.816406 10.015625 17.742188 10.015625 L 17.742188 3.578125 L 12.164062 3.578125 L 12.164062 10.015625 C 11.089844 10.015625 10.015625 11.089844 10.015625 12.164062 Z M 3.578125 12.164062 "/>
<path style=" stroke:none;fill-rule:evenodd;fill:rgb(79.998779%,79.998779%,79.998779%);fill-opacity:1;" d="M 3.792969 12.378906 L 3.792969 17.527344 L 10.230469 17.527344 C 10.230469 18.601562 11.304688 19.675781 12.378906 19.675781 L 12.378906 26.117188 L 17.527344 26.117188 L 17.527344 19.675781 C 18.601562 19.675781 19.675781 18.601562 19.675781 17.527344 L 26.113281 17.527344 L 26.113281 12.378906 L 19.675781 12.378906 C 19.675781 11.304688 18.601562 10.230469 17.527344 10.230469 L 17.527344 3.792969 L 12.378906 3.792969 L 12.378906 10.230469 C 11.304688 10.230469 10.230469 11.304688 10.230469 12.378906 Z M 3.792969 12.378906 "/>
<path style=" stroke:none;fill-rule:evenodd;fill:rgb(58.822632%,52.940369%,49.01886%);fill-opacity:1;" d="M 11.976562 10.15625 C 12.351562 10.53125 12.25 11.246094 11.75 11.75 C 11.246094 12.25 10.53125 12.355469 10.15625 11.976562 C 9.777344 11.597656 9.878906 10.886719 10.382812 10.382812 C 10.886719 9.878906 11.597656 9.777344 11.976562 10.15625 Z M 11.976562 10.15625 "/>
<path style=" stroke:none;fill-rule:evenodd;fill:rgb(81.567383%,81.567383%,81.567383%);fill-opacity:1;" d="M 10.078125 11.292969 L 10.230469 11.140625 L 10.835938 11.445312 L 10.535156 10.835938 L 10.6875 10.6875 L 11.292969 11.898438 Z M 10.078125 11.292969 "/>
<path style=" stroke:none;fill-rule:evenodd;fill:rgb(81.567383%,81.567383%,81.567383%);fill-opacity:1;" d="M 10.988281 10.382812 L 11.140625 10.230469 L 12.050781 11.140625 L 11.898438 11.292969 Z M 10.988281 10.382812 "/>
<path style=" stroke:none;fill-rule:evenodd;fill:rgb(58.822632%,52.940369%,49.01886%);fill-opacity:1;" d="M 19.753906 11.976562 C 19.375 12.351562 18.664062 12.25 18.160156 11.75 C 17.65625 11.246094 17.554688 10.53125 17.933594 10.15625 C 18.308594 9.777344 19.023438 9.878906 19.523438 10.382812 C 20.027344 10.886719 20.128906 11.597656 19.753906 11.976562 Z M 19.753906 11.976562 "/>
<path style=" stroke:none;fill-rule:evenodd;fill:rgb(81.567383%,81.567383%,81.567383%);fill-opacity:1;" d="M 18.613281 10.078125 L 18.765625 10.230469 L 18.460938 10.839844 L 19.070312 10.535156 L 19.222656 10.6875 L 18.007812 11.292969 Z M 18.613281 10.078125 "/>
<path style=" stroke:none;fill-rule:evenodd;fill:rgb(81.567383%,81.567383%,81.567383%);fill-opacity:1;" d="M 19.523438 10.988281 L 19.675781 11.140625 L 18.765625 12.050781 L 18.613281 11.902344 Z M 19.523438 10.988281 "/>
<path style=" stroke:none;fill-rule:evenodd;fill:rgb(58.822632%,52.940369%,49.01886%);fill-opacity:1;" d="M 17.929688 19.753906 C 17.554688 19.375 17.65625 18.664062 18.160156 18.160156 C 18.664062 17.65625 19.375 17.554688 19.753906 17.933594 C 20.128906 18.308594 20.027344 19.023438 19.523438 19.527344 C 19.023438 20.027344 18.308594 20.128906 17.929688 19.753906 Z M 17.929688 19.753906 "/>
<path style=" stroke:none;fill-rule:evenodd;fill:rgb(81.567383%,81.567383%,81.567383%);fill-opacity:1;" d="M 19.828125 18.613281 L 19.675781 18.765625 L 19.070312 18.464844 L 19.375 19.070312 L 19.222656 19.222656 L 18.613281 18.007812 Z M 19.828125 18.613281 "/>
<path style=" stroke:none;fill-rule:evenodd;fill:rgb(81.567383%,81.567383%,81.567383%);fill-opacity:1;" d="M 18.917969 19.527344 L 18.765625 19.675781 L 17.855469 18.765625 L 18.007812 18.613281 Z M 18.917969 19.527344 "/>
<path style=" stroke:none;fill-rule:evenodd;fill:rgb(58.822632%,52.940369%,49.01886%);fill-opacity:1;" d="M 10.15625 17.933594 C 10.53125 17.554688 11.246094 17.65625 11.75 18.160156 C 12.25 18.664062 12.351562 19.375 11.976562 19.753906 C 11.597656 20.128906 10.886719 20.027344 10.382812 19.527344 C 9.878906 19.023438 9.777344 18.308594 10.15625 17.933594 Z M 10.15625 17.933594 "/>
<path style=" stroke:none;fill-rule:evenodd;fill:rgb(81.567383%,81.567383%,81.567383%);fill-opacity:1;" d="M 11.292969 19.828125 L 11.140625 19.675781 L 11.445312 19.070312 L 10.835938 19.375 L 10.6875 19.222656 L 11.898438 18.613281 Z M 11.292969 19.828125 "/>
<path style=" stroke:none;fill-rule:evenodd;fill:rgb(81.567383%,81.567383%,81.567383%);fill-opacity:1;" d="M 10.382812 18.917969 L 10.230469 18.765625 L 11.140625 17.855469 L 11.292969 18.007812 Z M 10.382812 18.917969 "/>
<path style="fill:none;stroke-width:0.0728737;stroke-linecap:butt;stroke-linejoin:miter;stroke:rgb(58.822632%,52.940369%,49.01886%);stroke-opacity:1;stroke-miterlimit:4;" d="M 19.460938 14.953125 C 19.460938 17.445312 17.445312 19.460938 14.953125 19.460938 C 12.464844 19.460938 10.445312 17.445312 10.445312 14.953125 C 10.445312 12.464844 12.464844 10.445312 14.953125 10.445312 C 17.445312 10.445312 19.460938 12.464844 19.460938 14.953125 Z M 19.460938 14.953125 "/>
<path style="fill:none;stroke-width:0.0728737;stroke-linecap:butt;stroke-linejoin:miter;stroke:rgb(58.822632%,52.940369%,49.01886%);stroke-opacity:1;stroke-miterlimit:4;" d="M 18.386719 14.953125 C 18.386719 16.851562 16.851562 18.390625 14.953125 18.390625 C 13.054688 18.390625 11.519531 16.851562 11.519531 14.953125 C 11.519531 13.058594 13.054688 11.519531 14.953125 11.519531 C 16.851562 11.519531 18.386719 13.058594 18.386719 14.953125 Z M 18.386719 14.953125 "/>
<path style=" stroke:none;fill-rule:evenodd;fill:rgb(0%,0%,0%);fill-opacity:1;" d="M 13.453125 18.601562 C 13.453125 18.679688 13.410156 18.75 13.34375 18.789062 C 13.277344 18.828125 13.195312 18.828125 13.128906 18.789062 C 13.0625 18.75 13.023438 18.679688 13.023438 18.601562 C 13.023438 18.527344 13.0625 18.457031 13.128906 18.417969 C 13.195312 18.378906 13.277344 18.378906 13.34375 18.417969 C 13.410156 18.457031 13.453125 18.527344 13.453125 18.601562 Z M 13.453125 18.601562 "/>
<path style=" stroke:none;fill-rule:evenodd;fill:rgb(0%,0%,0%);fill-opacity:1;" d="M 16.886719 18.601562 C 16.886719 18.679688 16.84375 18.75 16.777344 18.789062 C 16.710938 18.828125 16.628906 18.828125 16.5625 18.789062 C 16.496094 18.75 16.457031 18.679688 16.457031 18.601562 C 16.457031 18.527344 16.496094 18.457031 16.5625 18.417969 C 16.628906 18.378906 16.710938 18.378906 16.777344 18.417969 C 16.84375 18.457031 16.886719 18.527344 16.886719 18.601562 Z M 16.886719 18.601562 "/>
<path style=" stroke:none;fill-rule:evenodd;fill:rgb(0%,0%,0%);fill-opacity:1;" d="M 14.8125 18.601562 L 14.8125 18.828125 L 14.523438 18.828125 C 14.238281 18.828125 14.238281 19.050781 14.523438 19.050781 L 14.8125 19.050781 L 14.8125 19.273438 C 14.8125 19.507812 15.058594 19.535156 15.078125 19.292969 L 15.097656 19.050781 L 15.382812 19.050781 C 15.667969 19.050781 15.667969 18.828125 15.382812 18.828125 L 15.097656 18.828125 L 15.097656 18.605469 C 15.097656 18.378906 14.8125 18.378906 14.8125 18.605469 Z M 14.8125 18.601562 "/>
<path style=" stroke:none;fill-rule:evenodd;fill:rgb(58.822632%,52.940369%,49.01886%);fill-opacity:1;" d="M 17.402344 15.609375 C 17.480469 15.589844 17.601562 15.605469 17.601562 15.605469 C 17.601562 15.605469 17.613281 15.65625 17.582031 15.675781 C 17.617188 15.695312 17.75 15.691406 17.75 15.691406 C 17.75 15.691406 17.699219 15.730469 17.671875 15.742188 C 17.71875 15.75 17.777344 15.808594 17.777344 15.808594 C 17.777344 15.808594 17.667969 15.828125 17.621094 15.800781 C 17.652344 15.859375 17.648438 15.910156 17.648438 15.910156 C 17.648438 15.910156 17.472656 15.867188 17.40625 15.75 Z M 17.402344 15.609375 "/>
<path style="fill:none;stroke-width:0.0287452;stroke-linecap:butt;stroke-linejoin:miter;stroke:rgb(0%,0%,0%);stroke-opacity:1;stroke-miterlimit:4;" d="M 17.402344 15.609375 C 17.480469 15.589844 17.601562 15.605469 17.601562 15.605469 C 17.601562 15.605469 17.613281 15.65625 17.582031 15.675781 C 17.617188 15.695312 17.75 15.691406 17.75 15.691406 C 17.75 15.691406 17.699219 15.730469 17.671875 15.742188 C 17.71875 15.75 17.777344 15.808594 17.777344 15.808594 C 17.777344 15.808594 17.667969 15.828125 17.621094 15.800781 C 17.652344 15.859375 17.648438 15.910156 17.648438 15.910156 C 17.648438 15.910156 17.472656 15.867188 17.40625 15.75 "/>
<path style=" stroke:none;fill-rule:evenodd;fill:rgb(58.822632%,52.940369%,49.01886%);fill-opacity:1;" d="M 17.109375 15.511719 C 17.066406 15.617188 16.753906 15.421875 16.753906 15.421875 C 16.753906 15.421875 16.890625 15.640625 17.097656 15.664062 Z M 17.109375 15.511719 "/>
<path style="fill:none;stroke-width:0.0287452;stroke-linecap:butt;stroke-linejoin:miter;stroke:rgb(0%,0%,0%);stroke-opacity:1;stroke-miterlimit:4;" d="M 17.109375 15.511719 C 17.066406 15.617188 16.753906 15.421875 16.753906 15.421875 C 16.753906 15.421875 16.890625 15.640625 17.097656 15.664062 "/>
<path style="fill-rule:evenodd;fill:rgb(58.822632%,52.940369%,49.01886%);fill-opacity:1;stroke-width:0.0287452;stroke-linecap:butt;stroke-linejoin:miter;stroke:rgb(0%,0%,0%);stroke-opacity:1;stroke-miterlimit:4;" d="M 13.199219 17.519531 L 16.867188 17.519531 L 17.148438 17.292969 L 16.675781 17.039062 L 15.953125 16.792969 L 15.660156 16.632812 L 15.125 16.664062 L 14.675781 16.902344 L 14.058594 16.972656 L 13.910156 17.140625 L 13.453125 17.179688 L 12.734375 17.164062 L 13.933594 17.351562 L 12.945312 17.300781 Z M 13.199219 17.519531 "/>
<path style="fill-rule:evenodd;fill:rgb(58.822632%,52.940369%,49.01886%);fill-opacity:1;stroke-width:0.0287452;stroke-linecap:butt;stroke-linejoin:miter;stroke:rgb(0%,0%,0%);stroke-opacity:1;stroke-miterlimit:4;" d="M 15.175781 16.464844 C 14.714844 16.21875 14.582031 16.828125 14.382812 16.972656 C 14.652344 17.019531 14.851562 16.769531 15.082031 16.648438 C 15.253906 17.121094 15.527344 16.808594 15.527344 16.808594 C 15.527344 16.808594 15.8125 17.257812 16.191406 17.054688 C 16.296875 17.132812 16.410156 17.0625 16.410156 17.0625 C 16.410156 17.0625 16.546875 17.085938 16.574219 17.027344 C 16.648438 17.050781 16.730469 16.960938 16.730469 16.960938 C 16.730469 16.960938 16.886719 16.960938 16.917969 16.878906 C 17.152344 16.921875 17.460938 16.402344 17.460938 16.402344 L 17.554688 16.21875 L 17.695312 16.191406 C 17.695312 16.191406 17.703125 16.101562 17.628906 16.105469 C 17.625 16.050781 17.578125 16.019531 17.511719 16.03125 C 17.527344 16 17.476562 15.972656 17.476562 15.972656 C 17.347656 16.003906 17.339844 16.335938 17.339844 16.335938 C 17.339844 16.335938 17.109375 16.507812 17.027344 16.554688 C 17.023438 16.363281 16.707031 16.109375 16.773438 15.988281 C 16.835938 15.867188 17.042969 16.175781 17.222656 16.117188 C 17.402344 16.0625 17.492188 15.828125 17.496094 15.644531 C 17.449219 15.523438 17.324219 15.320312 17.324219 15.320312 L 17.207031 15.3125 L 17.105469 15.066406 C 17.105469 15.066406 16.890625 15.203125 16.894531 15.328125 C 16.898438 15.449219 17.121094 15.550781 17.121094 15.550781 C 17.121094 15.550781 16.992188 15.632812 16.875 15.59375 C 16.863281 15.71875 17.019531 15.695312 17.078125 15.695312 C 17.105469 15.785156 17.191406 15.835938 17.191406 15.835938 C 17.191406 15.835938 17.246094 15.972656 17.105469 15.957031 C 16.964844 15.945312 16.796875 15.621094 16.597656 15.769531 C 16.386719 15.929688 16.691406 16.21875 16.691406 16.21875 C 16.691406 16.21875 16.503906 16.316406 16.394531 16.566406 C 15.941406 16.1875 15.679688 16.363281 15.175781 16.464844 Z M 15.175781 16.464844 "/>
<path style="fill-rule:evenodd;fill:rgb(58.822632%,52.940369%,49.01886%);fill-opacity:1;stroke-width:0.0287452;stroke-linecap:butt;stroke-linejoin:miter;stroke:rgb(0%,0%,0%);stroke-opacity:1;stroke-miterlimit:4;" d="M 14.515625 15.820312 C 14.703125 16 14.570312 16.292969 14.644531 16.351562 C 14.722656 16.410156 14.835938 16.320312 14.835938 16.320312 C 15.03125 16.375 15.386719 16.261719 15.386719 16.261719 C 15.542969 16.351562 15.480469 16.222656 15.574219 16.226562 C 15.65625 16.441406 15.9375 16.402344 15.9375 16.402344 C 15.9375 16.402344 15.679688 16.140625 15.523438 16.066406 C 15.402344 16.140625 15.046875 16.152344 14.988281 16.140625 C 14.917969 16.128906 14.960938 16.042969 14.929688 15.996094 C 15.058594 15.867188 14.957031 15.554688 14.882812 15.433594 C 14.597656 15.242188 14.25 15.574219 14.515625 15.820312 Z M 14.515625 15.820312 "/>
<path style="fill-rule:evenodd;fill:rgb(58.822632%,52.940369%,49.01886%);fill-opacity:1;stroke-width:0.0287452;stroke-linecap:butt;stroke-linejoin:miter;stroke:rgb(0%,0%,0%);stroke-opacity:1;stroke-miterlimit:4;" d="M 13.261719 15.289062 C 13.023438 15.351562 12.609375 14.980469 12.417969 15.125 C 12.226562 15.265625 12.316406 15.617188 12.445312 15.789062 C 12.570312 15.960938 12.261719 16.023438 12.175781 16.125 C 12.097656 16.21875 12.203125 16.332031 12.203125 16.332031 L 12.289062 16.386719 L 12.273438 16.515625 L 12.320312 16.667969 C 12.320312 16.667969 12.363281 16.707031 12.378906 16.660156 C 12.417969 16.699219 12.382812 16.8125 12.480469 16.828125 C 12.445312 16.753906 12.503906 16.550781 12.503906 16.550781 C 12.503906 16.550781 12.675781 16.5625 12.722656 16.488281 C 12.765625 16.414062 12.679688 16.253906 12.679688 16.253906 L 12.730469 16.253906 C 12.671875 16.214844 12.652344 16.09375 12.652344 16.09375 C 12.652344 16.09375 12.890625 16.019531 12.890625 15.835938 C 12.886719 15.65625 12.503906 15.464844 12.644531 15.371094 C 12.800781 15.265625 13.074219 15.640625 13.304688 15.46875 C 13.539062 15.296875 13.386719 15.460938 13.386719 15.460938 C 13.386719 15.460938 13.492188 15.226562 13.261719 15.289062 Z M 13.261719 15.289062 "/>
<path style="fill-rule:evenodd;fill:rgb(58.822632%,52.940369%,49.01886%);fill-opacity:1;stroke-width:0.0287452;stroke-linecap:butt;stroke-linejoin:miter;stroke:rgb(0%,0%,0%);stroke-opacity:1;stroke-miterlimit:4;" d="M 14.484375 12.746094 C 14.167969 12.613281 13.519531 12.605469 13.15625 12.425781 C 13 12.4375 12.929688 12.5625 12.921875 12.613281 C 12.753906 12.601562 12.644531 12.863281 12.667969 12.917969 C 12.363281 12.792969 12.222656 13.273438 12.324219 13.371094 C 12.066406 13.378906 12.097656 13.710938 12.070312 13.800781 C 11.988281 14.003906 12.089844 14.070312 12.253906 13.996094 C 12.277344 14.085938 12.242188 14.132812 12.167969 14.152344 C 12.617188 14.664062 12.871094 13.835938 13.261719 13.839844 C 13.753906 13.695312 13.945312 13.453125 13.945312 13.453125 L 14.136719 13.480469 Z M 14.484375 12.746094 "/>
<path style="fill-rule:evenodd;fill:rgb(58.822632%,52.940369%,49.01886%);fill-opacity:1;stroke-width:0.0287452;stroke-linecap:butt;stroke-linejoin:miter;stroke:rgb(0%,0%,0%);stroke-opacity:1;stroke-miterlimit:4;" d="M 15.363281 12.378906 C 15.363281 12.636719 15.15625 12.847656 14.894531 12.847656 C 14.636719 12.847656 14.425781 12.636719 14.425781 12.378906 C 14.425781 12.121094 14.636719 11.910156 14.894531 11.910156 C 15.15625 11.910156 15.363281 12.121094 15.363281 12.378906 Z M 15.363281 12.378906 "/>
<path style="fill-rule:evenodd;fill:rgb(58.822632%,52.940369%,49.01886%);fill-opacity:1;stroke-width:0.0287452;stroke-linecap:butt;stroke-linejoin:miter;stroke:rgb(0%,0%,0%);stroke-opacity:1;stroke-miterlimit:4;" d="M 14.070312 16.066406 C 13.78125 16.015625 13.300781 15.714844 13.25 15.320312 C 13.523438 14.257812 14.917969 14.8125 15.035156 14.015625 C 15.007812 13.488281 15.101562 12.964844 15.394531 12.523438 C 15.53125 12.351562 15.707031 12.304688 15.707031 12.304688 C 15.707031 12.304688 15.738281 12.417969 15.691406 12.496094 C 15.921875 12.46875 16.238281 12.597656 16.453125 12.613281 C 16.515625 12.742188 16.511719 12.789062 16.496094 12.867188 C 16.480469 12.945312 16.394531 12.921875 16.394531 12.921875 C 16.339844 12.976562 16.269531 13.03125 16.117188 13.003906 C 16.003906 13.089844 15.761719 13.113281 15.761719 13.113281 C 15.761719 13.113281 16.265625 13.644531 16.183594 13.808594 C 16.289062 13.859375 16.445312 14.09375 16.445312 14.09375 C 16.445312 14.09375 16.789062 13.910156 16.902344 13.742188 C 17.101562 13.742188 17.429688 13.953125 17.59375 13.976562 C 17.792969 14.136719 17.992188 14.304688 17.992188 14.304688 C 17.992188 14.304688 17.753906 14.460938 17.652344 14.253906 C 17.527344 14.261719 17.253906 13.964844 16.882812 14.054688 C 16.871094 14.386719 16.503906 14.621094 16.503906 14.621094 C 16.503906 14.621094 16.847656 14.574219 17.035156 14.6875 C 17.226562 14.851562 17.511719 15.074219 17.511719 15.074219 L 17.765625 15.507812 C 17.765625 15.507812 17.535156 15.546875 17.449219 15.246094 C 17.359375 15.488281 17.355469 15.097656 17.011719 14.914062 C 16.90625 14.925781 16.855469 14.933594 16.765625 14.863281 C 16.515625 14.929688 16.222656 15.074219 15.871094 15.035156 C 15.625 15.113281 15.441406 15.320312 15.191406 15.433594 C 14.9375 15.550781 14.863281 15.492188 14.863281 15.492188 L 14.660156 15.5 C 14.628906 15.625 14.648438 15.808594 14.535156 15.84375 C 14.605469 15.917969 14.484375 16.242188 14.363281 16.300781 C 14.421875 16.507812 14.589844 16.570312 14.769531 16.675781 C 14.769531 16.675781 14.925781 16.605469 15.03125 16.699219 C 15.132812 16.792969 15.238281 17.0625 15.238281 17.0625 C 15.238281 17.0625 15.023438 17.074219 14.957031 17.046875 C 14.890625 17.019531 14.882812 16.949219 14.804688 16.96875 C 14.3125 16.53125 14.054688 16.703125 14.007812 16.605469 C 13.957031 16.503906 14.121094 16.234375 14.070312 16.066406 Z M 14.070312 16.066406 "/>
<path style="fill-rule:evenodd;fill:rgb(58.822632%,52.940369%,49.01886%);fill-opacity:1;stroke-width:0.0287452;stroke-linecap:butt;stroke-linejoin:miter;stroke:rgb(0%,0%,0%);stroke-opacity:1;stroke-miterlimit:4;" d="M 12.890625 14.117188 C 12.917969 14.085938 13.097656 14.152344 13.097656 14.152344 L 13.421875 14.359375 L 14.089844 14.789062 L 14.328125 15.132812 L 13.902344 14.996094 L 13.3125 14.488281 L 12.992188 14.28125 C 12.992188 14.28125 12.863281 14.148438 12.890625 14.117188 Z M 12.890625 14.117188 "/>
<path style="fill-rule:evenodd;fill:rgb(58.822632%,52.940369%,49.01886%);fill-opacity:1;stroke-width:0.0287452;stroke-linecap:butt;stroke-linejoin:miter;stroke:rgb(0%,0%,0%);stroke-opacity:1;stroke-miterlimit:4;" d="M 16.835938 15.210938 C 16.605469 15.152344 16.039062 15.84375 16.039062 15.84375 L 16.46875 16.308594 C 16.46875 16.308594 16.480469 15.515625 16.835938 15.210938 Z M 16.835938 15.210938 "/>
<path style="fill-rule:evenodd;fill:rgb(58.822632%,52.940369%,49.01886%);fill-opacity:1;stroke-width:0.0287452;stroke-linecap:butt;stroke-linejoin:miter;stroke:rgb(0%,0%,0%);stroke-opacity:1;stroke-miterlimit:4;" d="M 14.027344 13.285156 C 13.902344 13.449219 13.890625 13.773438 14.054688 13.902344 C 14.070312 14.101562 14.238281 14.496094 14.371094 14.535156 C 14.511719 14.574219 15.089844 14.710938 15.3125 14.671875 C 15.269531 15.039062 15.554688 15.332031 15.820312 15.523438 C 15.820312 15.554688 15.820312 15.59375 15.851562 15.636719 C 15.878906 15.675781 16.019531 15.683594 16.023438 15.660156 C 16.085938 15.746094 16.386719 15.785156 16.40625 15.746094 C 16.429688 15.710938 15.96875 15.386719 15.863281 15.289062 C 15.777344 15.128906 15.613281 14.765625 15.574219 14.476562 C 15.347656 14.207031 14.960938 14.214844 14.960938 14.214844 L 14.972656 13.6875 L 14.992188 13.089844 L 14.78125 12.980469 C 14.78125 12.980469 14.824219 12.960938 14.847656 12.9375 C 14.898438 12.960938 14.996094 12.859375 15.007812 12.828125 C 15.058594 12.84375 15.101562 12.84375 15.109375 12.820312 C 15.117188 12.796875 15.125 12.695312 15.144531 12.644531 C 15.300781 12.503906 15.121094 12.207031 14.878906 12.203125 C 14.636719 12.195312 14.582031 12.488281 14.585938 12.511719 C 14.609375 12.601562 14.605469 12.648438 14.585938 12.667969 C 14.570312 12.691406 14.484375 12.742188 14.484375 12.742188 C 14.484375 12.742188 14.351562 12.679688 14.1875 12.742188 C 14.023438 12.804688 13.839844 12.890625 13.832031 12.996094 C 13.757812 13.007812 13.636719 13.101562 13.613281 13.183594 C 13.550781 13.171875 13.464844 13.226562 13.324219 13.453125 C 13.074219 13.5625 13.058594 14.097656 13.058594 14.097656 C 13.058594 14.097656 12.992188 14.199219 12.988281 14.25 C 12.984375 14.304688 13.011719 14.351562 13.042969 14.339844 C 13.046875 14.375 13.09375 14.40625 13.113281 14.394531 C 13.121094 14.429688 13.171875 14.449219 13.199219 14.445312 C 13.203125 14.46875 13.300781 14.460938 13.308594 14.441406 C 13.316406 14.417969 13.296875 14.300781 13.308594 14.289062 C 13.320312 14.28125 13.398438 14.34375 13.421875 14.328125 C 13.445312 14.308594 13.417969 14.257812 13.40625 14.238281 C 13.394531 14.21875 13.328125 14.199219 13.308594 14.113281 C 13.292969 14.027344 13.351562 13.910156 13.351562 13.910156 C 13.351562 13.910156 13.625 13.695312 13.65625 13.511719 C 13.859375 13.535156 13.96875 13.355469 14.027344 13.285156 Z M 14.027344 13.285156 "/>
<path style="fill-rule:evenodd;fill:rgb(58.822632%,52.940369%,49.01886%);fill-opacity:1;stroke-width:0.0287452;stroke-linecap:butt;stroke-linejoin:miter;stroke:rgb(0%,0%,0%);stroke-opacity:1;stroke-miterlimit:4;" d="M 13.554688 12.519531 C 13.617188 12.367188 13.839844 12.382812 13.839844 12.382812 C 13.839844 12.382812 13.921875 12.167969 14.222656 12.296875 C 14.339844 12.207031 14.636719 12.335938 14.636719 12.335938 C 14.636719 12.335938 14.75 12.183594 14.898438 12.203125 C 15.171875 12.234375 15.214844 12.484375 15.199219 12.527344 C 15.050781 12.5625 14.789062 12.40625 14.59375 12.449219 C 14.480469 12.515625 14.292969 12.582031 14.222656 12.675781 C 14.042969 12.695312 13.847656 12.507812 13.554688 12.519531 Z M 13.554688 12.519531 "/>
<path style="fill-rule:evenodd;fill:rgb(58.822632%,52.940369%,49.01886%);fill-opacity:1;stroke-width:0.0287452;stroke-linecap:butt;stroke-linejoin:miter;stroke:rgb(0%,0%,0%);stroke-opacity:1;stroke-miterlimit:4;" d="M 14.121094 12.769531 C 14.191406 12.730469 14.359375 12.65625 14.472656 12.746094 C 14.589844 12.875 14.773438 12.992188 14.773438 12.992188 L 14.980469 13.078125 L 15.074219 13.136719 L 15.011719 14.085938 C 14.820312 13.890625 14.640625 13.855469 14.503906 13.625 C 14.429688 13.527344 14.484375 13.289062 14.359375 13.128906 C 14.230469 12.972656 14.09375 12.867188 14.121094 12.769531 Z M 14.121094 12.769531 "/>
<path style="fill-rule:evenodd;fill:rgb(58.822632%,52.940369%,49.01886%);fill-opacity:1;stroke-width:0.0287452;stroke-linecap:butt;stroke-linejoin:miter;stroke:rgb(0%,0%,0%);stroke-opacity:1;stroke-miterlimit:4;" d="M 14.621094 13.042969 C 14.621094 13.042969 14.726562 13.023438 14.757812 13.050781 C 14.796875 13.0625 14.832031 13.074219 14.84375 13.105469 C 14.882812 13.117188 14.914062 13.140625 14.914062 13.171875 C 14.949219 13.179688 14.964844 13.25 14.964844 13.25 L 14.929688 13.304688 C 14.929688 13.304688 14.890625 13.265625 14.882812 13.222656 C 14.859375 13.210938 14.800781 13.199219 14.789062 13.160156 C 14.742188 13.15625 14.714844 13.132812 14.703125 13.09375 C 14.664062 13.101562 14.621094 13.042969 14.621094 13.042969 Z M 14.621094 13.042969 "/>
<path style="fill-rule:evenodd;fill:rgb(58.822632%,52.940369%,49.01886%);fill-opacity:1;stroke-width:0.0287452;stroke-linecap:butt;stroke-linejoin:miter;stroke:rgb(0%,0%,0%);stroke-opacity:1;stroke-miterlimit:4;" d="M 15.539062 12.425781 C 15.476562 12.359375 15.367188 12.410156 15.367188 12.410156 L 15.078125 12.910156 L 14.949219 13.015625 L 14.9375 13.40625 L 15.042969 13.773438 L 15.007812 14.054688 C 15.007812 14.054688 15.15625 13.917969 15.171875 13.84375 C 15.1875 13.769531 15.117188 13.53125 15.117188 13.53125 C 15.117188 13.53125 15.03125 13.378906 15.136719 13.105469 C 15.238281 12.828125 15.480469 12.601562 15.539062 12.425781 Z M 15.539062 12.425781 "/>
<path style="fill-rule:evenodd;fill:rgb(58.822632%,52.940369%,49.01886%);fill-opacity:1;stroke-width:0.0287452;stroke-linecap:butt;stroke-linejoin:miter;stroke:rgb(0%,0%,0%);stroke-opacity:1;stroke-miterlimit:4;" d="M 16.253906 12.875 C 16.253906 12.875 15.800781 13.519531 15.058594 13.75 C 14.855469 13.800781 14.929688 13.273438 14.929688 13.273438 L 14.878906 13.285156 C 14.878906 13.285156 14.761719 13.804688 15.039062 13.808594 C 15.785156 13.664062 16.34375 12.878906 16.34375 12.878906 Z M 16.253906 12.875 "/>
<path style=" stroke:none;fill-rule:evenodd;fill:rgb(58.822632%,52.940369%,49.01886%);fill-opacity:1;" d="M 16.5625 16.597656 C 16.5625 16.597656 16.492188 16.648438 16.402344 16.597656 C 16.355469 16.488281 16.226562 16.480469 16.226562 16.480469 C 16.226562 16.480469 16.144531 16.246094 16.015625 16.3125 C 15.996094 16.191406 15.855469 16.253906 15.855469 16.253906 C 15.855469 16.253906 15.855469 16.078125 15.691406 16.105469 C 15.746094 15.902344 15.464844 15.914062 15.464844 15.914062 C 15.464844 15.914062 15.457031 15.6875 15.042969 15.734375 C 15.933594 15.335938 16.632812 16.355469 16.632812 16.355469 Z M 16.5625 16.597656 "/>
<path style="fill:none;stroke-width:0.0287452;stroke-linecap:butt;stroke-linejoin:miter;stroke:rgb(0%,0%,0%);stroke-opacity:1;stroke-miterlimit:4;" d="M 16.5625 16.597656 C 16.5625 16.597656 16.492188 16.648438 16.402344 16.597656 C 16.355469 16.488281 16.226562 16.480469 16.226562 16.480469 C 16.226562 16.480469 16.144531 16.246094 16.015625 16.3125 C 15.996094 16.191406 15.855469 16.253906 15.855469 16.253906 C 15.855469 16.253906 15.855469 16.078125 15.691406 16.105469 C 15.746094 15.902344 15.464844 15.914062 15.464844 15.914062 C 15.464844 15.914062 15.457031 15.6875 15.042969 15.734375 C 15.933594 15.335938 16.632812 16.355469 16.632812 16.355469 "/>
<path style=" stroke:none;fill-rule:evenodd;fill:rgb(58.822632%,52.940369%,49.01886%);fill-opacity:1;" d="M 16.984375 16.683594 C 16.984375 16.683594 17.1875 16.914062 17.292969 16.917969 C 17.402344 16.917969 17.410156 16.691406 17.410156 16.691406 C 17.410156 16.691406 17.445312 16.789062 17.496094 16.765625 C 17.492188 16.832031 17.5625 16.851562 17.5625 16.851562 C 17.5625 16.851562 17.378906 17.28125 16.851562 16.871094 Z M 16.984375 16.683594 "/>
<path style="fill:none;stroke-width:0.0287452;stroke-linecap:butt;stroke-linejoin:miter;stroke:rgb(0%,0%,0%);stroke-opacity:1;stroke-miterlimit:4;" d="M 16.984375 16.683594 C 16.984375 16.683594 17.1875 16.914062 17.292969 16.917969 C 17.402344 16.917969 17.410156 16.691406 17.410156 16.691406 C 17.410156 16.691406 17.445312 16.789062 17.496094 16.765625 C 17.492188 16.832031 17.5625 16.851562 17.5625 16.851562 C 17.5625 16.851562 17.378906 17.28125 16.851562 16.871094 "/>
<path style=" stroke:none;fill-rule:evenodd;fill:rgb(58.822632%,52.940369%,49.01886%);fill-opacity:1;" d="M 15.378906 16.769531 L 15.304688 17.070312 C 15.304688 17.070312 15.214844 17.152344 15.238281 17.171875 C 15.269531 17.1875 15.414062 17.140625 15.414062 17.140625 C 15.414062 17.140625 15.644531 17.113281 15.710938 17.046875 C 15.757812 17.152344 15.863281 17.164062 15.863281 17.164062 C 15.863281 17.164062 15.871094 17.117188 15.855469 17.089844 C 15.910156 17.097656 15.953125 17.082031 15.953125 17.082031 C 15.953125 17.082031 15.980469 17 15.914062 16.96875 C 15.921875 16.90625 15.953125 16.851562 15.84375 16.859375 C 15.761719 16.945312 15.558594 17.046875 15.507812 17.011719 C 15.457031 16.976562 15.707031 16.867188 15.640625 16.71875 Z M 15.378906 16.769531 "/>
<path style="fill:none;stroke-width:0.0287452;stroke-linecap:butt;stroke-linejoin:miter;stroke:rgb(0%,0%,0%);stroke-opacity:1;stroke-miterlimit:4;" d="M 15.378906 16.769531 L 15.304688 17.070312 C 15.304688 17.070312 15.214844 17.152344 15.238281 17.171875 C 15.269531 17.1875 15.414062 17.140625 15.414062 17.140625 C 15.414062 17.140625 15.644531 17.113281 15.710938 17.046875 C 15.757812 17.152344 15.863281 17.164062 15.863281 17.164062 C 15.863281 17.164062 15.871094 17.117188 15.855469 17.089844 C 15.910156 17.097656 15.953125 17.082031 15.953125 17.082031 C 15.953125 17.082031 15.980469 17 15.914062 16.96875 C 15.921875 16.90625 15.953125 16.851562 15.84375 16.859375 C 15.761719 16.945312 15.558594 17.046875 15.507812 17.011719 C 15.457031 16.976562 15.707031 16.867188 15.640625 16.71875 "/>
<path style=" stroke:none;fill-rule:evenodd;fill:rgb(0%,0%,0%);fill-opacity:1;" d="M 10.761719 16.066406 L 11.054688 15.996094 L 11.023438 15.859375 C 11.015625 15.828125 11.003906 15.804688 10.984375 15.792969 C 10.96875 15.78125 10.9375 15.78125 10.894531 15.785156 L 10.890625 15.765625 L 11.144531 15.703125 L 11.152344 15.722656 C 11.121094 15.730469 11.101562 15.742188 11.089844 15.75 C 11.078125 15.761719 11.070312 15.773438 11.066406 15.789062 C 11.0625 15.800781 11.0625 15.820312 11.070312 15.847656 L 11.101562 15.984375 L 11.335938 15.929688 C 11.375 15.917969 11.398438 15.910156 11.410156 15.902344 C 11.417969 15.898438 11.425781 15.886719 11.429688 15.875 C 11.433594 15.855469 11.433594 15.835938 11.429688 15.820312 L 11.425781 15.792969 L 11.445312 15.789062 L 11.519531 16.109375 L 11.5 16.113281 L 11.496094 16.089844 C 11.488281 16.058594 11.472656 16.035156 11.449219 16.027344 C 11.4375 16.019531 11.40625 16.023438 11.363281 16.035156 L 10.878906 16.148438 C 10.839844 16.160156 10.816406 16.167969 10.804688 16.175781 C 10.796875 16.179688 10.789062 16.191406 10.785156 16.203125 C 10.78125 16.222656 10.78125 16.238281 10.785156 16.257812 L 10.789062 16.285156 L 10.769531 16.289062 L 10.636719 15.730469 L 10.800781 15.683594 L 10.804688 15.703125 C 10.773438 15.722656 10.75 15.738281 10.734375 15.753906 C 10.722656 15.769531 10.714844 15.789062 10.710938 15.808594 C 10.707031 15.832031 10.710938 15.859375 10.71875 15.898438 Z M 10.570312 14.734375 C 10.574219 14.632812 10.617188 14.546875 10.699219 14.480469 C 10.777344 14.410156 10.875 14.378906 10.988281 14.386719 C 11.105469 14.390625 11.203125 14.433594 11.273438 14.511719 C 11.347656 14.589844 11.382812 14.683594 11.375 14.789062 C 11.371094 14.894531 11.328125 14.980469 11.246094 15.046875 C 11.167969 15.117188 11.070312 15.148438 10.949219 15.140625 C 10.828125 15.132812 10.730469 15.085938 10.65625 15 C 10.59375 14.921875 10.5625 14.835938 10.570312 14.734375 Z M 10.609375 14.746094 C 10.605469 14.816406 10.628906 14.871094 10.679688 14.917969 C 10.738281 14.972656 10.832031 15.003906 10.953125 15.011719 C 11.078125 15.015625 11.175781 14.996094 11.25 14.945312 C 11.300781 14.90625 11.332031 14.855469 11.335938 14.785156 C 11.339844 14.714844 11.3125 14.652344 11.261719 14.601562 C 11.207031 14.550781 11.117188 14.523438 10.996094 14.515625 C 10.867188 14.507812 10.765625 14.53125 10.699219 14.578125 C 10.644531 14.617188 10.617188 14.671875 10.609375 14.746094 Z M 11.730469 13.335938 L 11.65625 13.53125 L 11.226562 13.644531 C 11.21875 13.664062 11.214844 13.679688 11.210938 13.6875 C 11.207031 13.695312 11.207031 13.699219 11.203125 13.703125 C 11.203125 13.710938 11.199219 13.714844 11.195312 13.71875 L 11.40625 13.800781 C 11.453125 13.816406 11.480469 13.824219 11.496094 13.816406 C 11.515625 13.808594 11.535156 13.792969 11.542969 13.765625 L 11.554688 13.738281 L 11.574219 13.746094 L 11.457031 14.054688 L 11.4375 14.046875 L 11.445312 14.019531 C 11.457031 13.988281 11.457031 13.964844 11.441406 13.941406 C 11.433594 13.929688 11.410156 13.917969 11.367188 13.902344 L 10.902344 13.726562 C 10.855469 13.707031 10.828125 13.703125 10.8125 13.707031 C 10.789062 13.714844 10.773438 13.734375 10.765625 13.761719 L 10.753906 13.785156 L 10.734375 13.78125 L 10.835938 13.515625 C 10.863281 13.441406 10.890625 13.386719 10.914062 13.355469 C 10.941406 13.320312 10.972656 13.296875 11.011719 13.285156 C 11.050781 13.269531 11.09375 13.273438 11.132812 13.289062 C 11.179688 13.304688 11.210938 13.332031 11.234375 13.375 C 11.253906 13.417969 11.261719 13.46875 11.25 13.535156 L 11.515625 13.464844 C 11.574219 13.449219 11.617188 13.433594 11.644531 13.414062 C 11.667969 13.394531 11.691406 13.367188 11.710938 13.328125 Z M 11.164062 13.707031 C 11.164062 13.699219 11.167969 13.695312 11.171875 13.691406 C 11.171875 13.683594 11.175781 13.683594 11.175781 13.679688 C 11.203125 13.609375 11.207031 13.550781 11.191406 13.503906 C 11.171875 13.460938 11.140625 13.425781 11.097656 13.410156 C 11.050781 13.394531 11.007812 13.394531 10.96875 13.410156 C 10.929688 13.429688 10.902344 13.460938 10.886719 13.507812 C 10.875 13.527344 10.871094 13.554688 10.863281 13.59375 Z M 12.804688 11.152344 L 12.957031 11.34375 L 12.9375 11.355469 C 12.886719 11.316406 12.84375 11.289062 12.796875 11.28125 C 12.734375 11.269531 12.675781 11.285156 12.613281 11.324219 C 12.53125 11.375 12.488281 11.449219 12.488281 11.542969 C 12.488281 11.621094 12.511719 11.699219 12.5625 11.773438 C 12.601562 11.835938 12.652344 11.882812 12.707031 11.917969 C 12.765625 11.957031 12.820312 11.972656 12.875 11.972656 C 12.929688 11.96875 12.976562 11.957031 13.015625 11.929688 C 13.039062 11.914062 13.0625 11.894531 13.078125 11.875 C 13.097656 11.855469 13.113281 11.832031 13.128906 11.808594 L 13.007812 11.621094 C 12.984375 11.585938 12.96875 11.566406 12.957031 11.5625 C 12.945312 11.554688 12.933594 11.550781 12.917969 11.550781 C 12.90625 11.554688 12.886719 11.5625 12.859375 11.582031 L 12.847656 11.5625 L 13.097656 11.398438 L 13.109375 11.417969 L 13.097656 11.425781 C 13.074219 11.441406 13.0625 11.460938 13.0625 11.484375 C 13.066406 11.5 13.078125 11.523438 13.097656 11.558594 L 13.226562 11.757812 C 13.203125 11.800781 13.175781 11.839844 13.148438 11.871094 C 13.117188 11.902344 13.082031 11.933594 13.035156 11.960938 C 12.910156 12.042969 12.789062 12.066406 12.675781 12.027344 C 12.585938 12 12.515625 11.945312 12.464844 11.867188 C 12.429688 11.808594 12.40625 11.746094 12.402344 11.675781 C 12.394531 11.59375 12.40625 11.515625 12.441406 11.445312 C 12.472656 11.386719 12.519531 11.335938 12.582031 11.292969 C 12.605469 11.28125 12.628906 11.269531 12.652344 11.257812 C 12.671875 11.25 12.707031 11.242188 12.75 11.230469 C 12.769531 11.226562 12.785156 11.222656 12.792969 11.21875 C 12.796875 11.214844 12.800781 11.207031 12.800781 11.199219 C 12.800781 11.191406 12.796875 11.179688 12.789062 11.160156 Z M 14.0625 11.238281 L 13.773438 11.3125 L 13.753906 11.445312 C 13.75 11.476562 13.75 11.5 13.753906 11.515625 C 13.757812 11.527344 13.765625 11.535156 13.777344 11.539062 C 13.792969 11.546875 13.816406 11.546875 13.851562 11.539062 L 13.859375 11.558594 L 13.621094 11.621094 L 13.617188 11.601562 C 13.648438 11.589844 13.664062 11.574219 13.671875 11.5625 C 13.6875 11.542969 13.699219 11.5 13.707031 11.441406 L 13.804688 10.757812 L 13.824219 10.75 L 14.25 11.304688 C 14.28125 11.347656 14.308594 11.375 14.332031 11.382812 C 14.351562 11.394531 14.378906 11.398438 14.410156 11.390625 L 14.414062 11.410156 L 14.121094 11.488281 L 14.117188 11.46875 C 14.144531 11.460938 14.164062 11.449219 14.171875 11.4375 C 14.179688 11.425781 14.183594 11.414062 14.179688 11.402344 C 14.175781 11.386719 14.160156 11.363281 14.136719 11.332031 Z M 14.035156 11.199219 L 13.832031 10.933594 L 13.78125 11.269531 Z M 15.398438 11.195312 L 15.417969 11.203125 L 15.34375 11.40625 L 14.746094 11.386719 L 14.746094 11.363281 L 14.777344 11.363281 C 14.808594 11.367188 14.832031 11.355469 14.847656 11.335938 C 14.855469 11.324219 14.863281 11.296875 14.863281 11.253906 L 14.882812 10.753906 C 14.882812 10.707031 14.878906 10.675781 14.871094 10.664062 C 14.855469 10.644531 14.835938 10.636719 14.804688 10.636719 L 14.777344 10.632812 L 14.777344 10.613281 L 15.125 10.628906 L 15.125 10.648438 C 15.085938 10.644531 15.054688 10.648438 15.039062 10.65625 C 15.023438 10.664062 15.011719 10.671875 15.003906 10.683594 C 14.996094 10.695312 14.992188 10.726562 14.992188 10.773438 L 14.972656 11.257812 C 14.972656 11.289062 14.972656 11.308594 14.980469 11.320312 C 14.984375 11.328125 14.988281 11.335938 15 11.339844 C 15.007812 11.34375 15.039062 11.347656 15.089844 11.347656 L 15.144531 11.351562 C 15.203125 11.355469 15.246094 11.351562 15.269531 11.34375 C 15.292969 11.335938 15.316406 11.320312 15.335938 11.300781 C 15.355469 11.277344 15.378906 11.242188 15.398438 11.195312 Z M 16.429688 11.472656 L 16.445312 11.480469 L 16.316406 11.660156 L 15.75 11.472656 L 15.753906 11.453125 L 15.78125 11.460938 C 15.8125 11.472656 15.839844 11.46875 15.859375 11.453125 C 15.871094 11.445312 15.882812 11.417969 15.898438 11.375 L 16.054688 10.902344 C 16.066406 10.859375 16.074219 10.828125 16.066406 10.8125 C 16.058594 10.792969 16.039062 10.777344 16.011719 10.769531 L 15.984375 10.757812 L 15.992188 10.738281 L 16.324219 10.847656 L 16.316406 10.871094 C 16.277344 10.855469 16.25 10.851562 16.230469 10.851562 C 16.210938 10.855469 16.199219 10.859375 16.1875 10.871094 C 16.179688 10.878906 16.167969 10.90625 16.152344 10.949219 L 16 11.410156 C 15.992188 11.441406 15.988281 11.460938 15.988281 11.476562 C 15.992188 11.484375 15.996094 11.492188 16.003906 11.5 C 16.011719 11.503906 16.039062 11.515625 16.085938 11.53125 L 16.140625 11.550781 C 16.195312 11.570312 16.238281 11.578125 16.261719 11.578125 C 16.289062 11.574219 16.3125 11.566406 16.339844 11.554688 C 16.363281 11.539062 16.394531 11.511719 16.429688 11.472656 Z M 17.257812 11.910156 L 17.011719 11.738281 L 16.898438 11.808594 C 16.871094 11.824219 16.851562 11.839844 16.84375 11.851562 C 16.839844 11.859375 16.835938 11.871094 16.839844 11.886719 C 16.84375 11.898438 16.859375 11.917969 16.890625 11.941406 L 16.878906 11.960938 L 16.679688 11.820312 L 16.691406 11.800781 C 16.722656 11.816406 16.742188 11.820312 16.753906 11.820312 C 16.78125 11.816406 16.820312 11.796875 16.871094 11.765625 L 17.460938 11.40625 L 17.476562 11.414062 L 17.324219 12.09375 C 17.3125 12.148438 17.308594 12.1875 17.316406 12.210938 C 17.320312 12.234375 17.335938 12.253906 17.359375 12.277344 L 17.347656 12.292969 L 17.097656 12.117188 L 17.113281 12.097656 C 17.136719 12.117188 17.15625 12.125 17.171875 12.121094 C 17.183594 12.121094 17.195312 12.117188 17.203125 12.105469 C 17.214844 12.09375 17.222656 12.066406 17.230469 12.027344 Z M 17.269531 11.867188 L 17.339844 11.535156 L 17.050781 11.714844 Z M 18.183594 12.035156 L 18.308594 12.203125 L 18.125 12.929688 L 18.480469 12.664062 C 18.519531 12.632812 18.539062 12.613281 18.542969 12.597656 C 18.546875 12.578125 18.542969 12.554688 18.523438 12.53125 L 18.507812 12.507812 L 18.523438 12.496094 L 18.683594 12.710938 L 18.667969 12.722656 L 18.652344 12.703125 C 18.632812 12.675781 18.609375 12.664062 18.585938 12.664062 C 18.570312 12.664062 18.546875 12.675781 18.511719 12.703125 L 17.988281 13.089844 L 17.976562 13.074219 L 18.171875 12.292969 L 17.792969 12.578125 C 17.753906 12.605469 17.730469 12.628906 17.730469 12.644531 C 17.726562 12.664062 17.730469 12.6875 17.75 12.710938 L 17.765625 12.734375 L 17.75 12.746094 L 17.589844 12.53125 L 17.605469 12.519531 L 17.621094 12.539062 C 17.640625 12.566406 17.664062 12.578125 17.6875 12.578125 C 17.703125 12.578125 17.726562 12.5625 17.761719 12.539062 L 18.191406 12.21875 C 18.199219 12.183594 18.203125 12.160156 18.203125 12.148438 C 18.203125 12.132812 18.199219 12.113281 18.191406 12.089844 C 18.1875 12.082031 18.179688 12.066406 18.167969 12.046875 Z M 19.15625 13.828125 L 18.988281 13.898438 L 18.980469 13.878906 C 19.011719 13.863281 19.03125 13.851562 19.039062 13.839844 C 19.058594 13.820312 19.066406 13.800781 19.070312 13.777344 C 19.074219 13.757812 19.070312 13.730469 19.058594 13.699219 L 19.023438 13.597656 L 18.46875 13.792969 C 18.421875 13.808594 18.398438 13.824219 18.390625 13.839844 C 18.378906 13.859375 18.378906 13.882812 18.386719 13.910156 L 18.398438 13.933594 L 18.378906 13.941406 L 18.269531 13.632812 L 18.289062 13.625 L 18.296875 13.652344 C 18.308594 13.683594 18.324219 13.699219 18.347656 13.707031 C 18.363281 13.710938 18.390625 13.707031 18.429688 13.691406 L 18.988281 13.496094 L 18.957031 13.40625 C 18.945312 13.375 18.933594 13.351562 18.921875 13.335938 C 18.910156 13.320312 18.890625 13.308594 18.867188 13.304688 C 18.84375 13.296875 18.8125 13.296875 18.78125 13.308594 L 18.773438 13.289062 L 18.945312 13.234375 Z M 18.546875 15.199219 L 18.535156 14.992188 L 18.882812 14.714844 C 18.878906 14.695312 18.878906 14.679688 18.878906 14.667969 C 18.878906 14.660156 18.878906 14.65625 18.878906 14.648438 C 18.878906 14.644531 18.878906 14.640625 18.878906 14.632812 L 18.652344 14.644531 C 18.605469 14.648438 18.574219 14.652344 18.5625 14.664062 C 18.546875 14.679688 18.542969 14.703125 18.542969 14.730469 L 18.542969 14.761719 L 18.523438 14.761719 L 18.507812 14.433594 L 18.527344 14.429688 L 18.527344 14.460938 C 18.53125 14.492188 18.542969 14.515625 18.5625 14.527344 C 18.574219 14.535156 18.605469 14.539062 18.648438 14.535156 L 19.144531 14.511719 C 19.195312 14.507812 19.222656 14.5 19.234375 14.488281 C 19.25 14.472656 19.257812 14.449219 19.257812 14.421875 L 19.253906 14.394531 L 19.277344 14.390625 L 19.292969 14.671875 C 19.296875 14.753906 19.292969 14.816406 19.28125 14.855469 C 19.273438 14.894531 19.253906 14.929688 19.222656 14.957031 C 19.191406 14.984375 19.152344 15 19.109375 15.003906 C 19.0625 15.007812 19.019531 14.992188 18.984375 14.964844 C 18.945312 14.933594 18.921875 14.886719 18.902344 14.824219 L 18.691406 14.996094 C 18.640625 15.035156 18.609375 15.066406 18.59375 15.09375 C 18.578125 15.121094 18.570312 15.15625 18.566406 15.199219 Z M 18.914062 14.628906 C 18.914062 14.636719 18.914062 14.644531 18.914062 14.648438 C 18.914062 14.65625 18.914062 14.660156 18.914062 14.664062 C 18.917969 14.734375 18.9375 14.789062 18.972656 14.828125 C 19.003906 14.863281 19.046875 14.878906 19.097656 14.875 C 19.144531 14.875 19.183594 14.855469 19.210938 14.824219 C 19.238281 14.792969 19.253906 14.753906 19.25 14.703125 C 19.25 14.679688 19.242188 14.652344 19.234375 14.613281 Z M 19.125 16.21875 L 19.058594 16.480469 L 19.035156 16.472656 L 19.039062 16.460938 C 19.042969 16.449219 19.042969 16.433594 19.039062 16.414062 C 19.035156 16.394531 19.027344 16.375 19.015625 16.355469 C 19.003906 16.335938 18.984375 16.308594 18.953125 16.277344 L 18.714844 16.023438 L 18.53125 15.976562 C 18.484375 15.964844 18.453125 15.960938 18.441406 15.96875 C 18.421875 15.976562 18.40625 16 18.398438 16.027344 L 18.390625 16.050781 L 18.371094 16.046875 L 18.457031 15.730469 L 18.476562 15.734375 L 18.46875 15.761719 C 18.460938 15.792969 18.464844 15.820312 18.480469 15.835938 C 18.488281 15.847656 18.515625 15.859375 18.558594 15.871094 L 18.734375 15.917969 L 19.101562 15.792969 C 19.144531 15.777344 19.171875 15.769531 19.183594 15.761719 C 19.195312 15.753906 19.210938 15.742188 19.230469 15.71875 C 19.234375 15.710938 19.238281 15.699219 19.242188 15.6875 L 19.261719 15.691406 L 19.179688 16.011719 L 19.160156 16.007812 L 19.164062 15.988281 C 19.167969 15.972656 19.167969 15.957031 19.164062 15.9375 C 19.160156 15.921875 19.148438 15.910156 19.132812 15.90625 C 19.121094 15.902344 19.09375 15.910156 19.054688 15.921875 L 18.773438 16.015625 L 18.964844 16.222656 C 18.992188 16.253906 19.015625 16.269531 19.03125 16.273438 C 19.042969 16.277344 19.050781 16.277344 19.0625 16.273438 C 19.070312 16.269531 19.078125 16.265625 19.085938 16.257812 C 19.09375 16.25 19.097656 16.234375 19.105469 16.214844 Z M 19.125 16.21875 "/>
</g>
</svg>
