<svg viewBox="0 0 1000 667" xmlns="http://www.w3.org/2000/svg" xmlns:xlink="http://www.w3.org/1999/xlink"><clipPath id="a"><path d="m500 0h500v666.71875h-500zm0 0"/></clipPath><clipPath id="b"><path d="m0 0h500v666.71875h-500zm0 0"/></clipPath><g clip-path="url(#a)"><path d="m500 0h500v666.667969h-500zm0 0" fill="#cf142b" fill-rule="evenodd"/></g><g clip-path="url(#b)"><path d="m0 0h500v666.667969h-500zm0 0" fill="#fff" fill-rule="evenodd"/></g><g fill-rule="evenodd"><path d="m111.6875 101.652344c0 1.097656-1.242188 1.992187-2.777344 1.992187-1.542968 0-2.785156-.894531-2.785156-1.992187s1.242188-1.992188 2.785156-1.992188c1.535156 0 2.777344.894532 2.777344 1.992188zm0 0" fill="#f1eeee"/><path d="m24.691406 92.03125v50.507812h50.503906c0 8.417969 8.421876 16.835938 16.835938 16.835938v50.503906h50.503906v-50.503906c8.421875 0 16.835938-8.417969 16.835938-16.835938h50.503906v-50.507812h-50.503906c0-8.414062-8.414063-16.835938-16.835938-16.835938v-50.503906h-50.503906v50.503906c-8.414062 0-16.835938 8.421876-16.835938 16.835938zm0 0" fill="#e60d2e"/><path d="m28.058594 95.394531v43.777344h50.503906c0 8.414063 8.417969 16.832031 16.835938 16.832031v50.507813h43.765624v-50.507813c8.421876 0 16.839844-8.417968 16.839844-16.832031h50.5v-43.777344h-50.5c0-8.414062-8.417968-16.832031-16.839844-16.832031v-50.503906h-43.765624v50.503906c-8.417969 0-16.835938 8.417969-16.835938 16.832031zm0 0" fill="#96877d"/><path d="m29.742188 97.082031v40.402344h50.503906c0 8.414063 8.421875 16.839844 16.835937 16.839844v50.503906h40.402344v-50.503906c8.417969 0 16.839844-8.425781 16.839844-16.839844h50.5v-40.402344h-50.5c0-8.414062-8.421875-16.835937-16.839844-16.835937v-50.503906h-40.402344v50.503906c-8.414062 0-16.835937 8.421875-16.835937 16.835937zm0 0" fill="#ccc"/><path d="m93.929688 79.644531c2.957031 2.960938 2.160156 8.554688-1.785157 12.5-3.945312 3.945313-9.542969 4.746094-12.5 1.785157-2.957031-2.957032-2.160156-8.554688 1.785157-12.5 3.945312-3.945313 9.542968-4.742188 12.5-1.785157zm0 0" fill="#96877d"/><path d="m79.046875 88.574219 1.195313-1.195313 4.757812 2.382813-2.382812-4.761719 1.195312-1.1875 4.757812 9.519531-9.523437-4.761719zm0 0" fill="#d0d0d0"/><path d="m86.191406 81.429688 1.1875-1.1875 7.148438 7.136718-1.195313 1.195313zm0 0" fill="#d0d0d0"/><path d="m154.925781 93.929688c-2.960937 2.957031-8.554687 2.160156-12.5-1.785157-3.945312-3.945312-4.746093-9.542969-1.785156-12.5 2.957031-2.957031 8.550781-2.160156 12.496094 1.785157 3.949219 3.945312 4.746093 9.542968 1.789062 12.5zm0 0" fill="#96877d"/><path d="m145.996094 79.046875 1.1875 1.195313-2.378906 4.761718 4.761718-2.382812 1.191406 1.195312-9.523437 4.757813 4.761719-9.519531zm0 0" fill="#d0d0d0"/><path d="m153.136719 86.191406 1.191406 1.1875-7.144531 7.148438-1.1875-1.191406zm0 0" fill="#d0d0d0"/><path d="m140.636719 154.925781c-2.957031-2.957031-2.15625-8.554687 1.789062-12.5 3.945313-3.945312 9.539063-4.742187 12.496094-1.785156 2.960937 2.957031 2.160156 8.554687-1.785156 12.5-3.945313 3.945313-9.539063 4.742187-12.5 1.785156zm0 0" fill="#96877d"/><path d="m155.519531 146-1.191406 1.191406-4.761719-2.382812 2.378906 4.761718-1.1875 1.195313-4.761718-9.527344zm0 0" fill="#d0d0d0"/><path d="m148.378906 153.140625-1.195312 1.1875-7.140625-7.136719 1.191406-1.191406zm0 0" fill="#d0d0d0"/><path d="m79.644531 140.640625c2.957031-2.957031 8.554688-2.160156 12.5 1.785156 3.945313 3.945313 4.742188 9.542969 1.785157 12.5-2.957032 2.964844-8.554688 2.160157-12.5-1.785156-3.945313-3.945313-4.742188-9.542969-1.785157-12.5zm0 0" fill="#96877d"/><path d="m88.570312 155.523438-1.191406-1.195313 2.382813-4.757813-4.761719 2.375-1.1875-1.1875 9.519531-4.761718-4.761719 9.523437zm0 0" fill="#d0d0d0"/><path d="m81.429688 148.378906-1.1875-1.1875 7.136718-7.148437 1.195313 1.195312zm0 0" fill="#d0d0d0"/></g><path d="m152.636719 117.285156c.003906 19.53125-15.824219 35.363282-35.351563 35.363282-19.53125 0-35.355468-15.832032-35.355468-35.363282 0-19.527344 15.824218-35.363281 35.355468-35.363281 19.527344 0 35.355469 15.835937 35.351563 35.363281zm0 0" fill="none" stroke="#96877d" stroke-width=".571558"/><path d="m144.214844 117.285156c.007812 14.882813-12.054688 26.941406-26.929688 26.941406-14.882812 0-26.941406-12.058593-26.9375-26.941406-.003906-14.875 12.054688-26.941406 26.9375-26.941406 14.875 0 26.9375 12.066406 26.929688 26.941406zm0 0" fill="none" stroke="#96877d" stroke-width=".571558"/><path d="m105.5 145.902344c0 .601562-.320312 1.164062-.839844 1.460937-.527344.304688-1.164062.304688-1.6875 0-.519531-.296875-.839844-.859375-.839844-1.460937 0-.601563.320313-1.152344.839844-1.457032.523438-.304687 1.160156-.304687 1.6875 0 .519532.304688.839844.855469.839844 1.457032zm0 0" fill-rule="evenodd"/><path d="m132.433594 145.902344c.003906.601562-.320313 1.164062-.84375 1.460937-.519532.304688-1.160156.304688-1.679688 0-.519531-.296875-.839844-.859375-.839844-1.460937 0-.601563.320313-1.152344.839844-1.457032.519532-.304687 1.160156-.304687 1.679688 0 .523437.304688.847656.855469.84375 1.457032zm0 0" fill-rule="evenodd"/><path d="m116.164062 145.902344v1.757812h-2.246093c-2.25 0-2.25 1.753906 0 1.753906h2.246093v1.757813c.003907 1.816406 1.957032 2.039063 2.097657.152344l.148437-1.898438h2.238282c2.246093 0 2.246093-1.753906 0-1.753906h-2.238282v-1.757813c0-1.75-2.246094-1.75-2.246094 0zm0 0" fill-rule="evenodd"/><path d="m136.5 122.429688c.59375-.148438 1.5625-.027344 1.5625-.027344s.089844.40625-.167969.542968c.285157.160157 1.308594.113282 1.308594.113282s-.394531.300781-.597656.421875c.371093.039062.828125.515625.828125.515625s-.855469.140625-1.222656-.058594c.226562.453125.195312.855469.195312.855469s-1.378906-.339844-1.878906-1.253907zm0 0" fill="#96877d" fill-rule="evenodd"/><path d="m136.5 122.429688c.59375-.148438 1.5625-.027344 1.5625-.027344s.089844.40625-.167969.542968c.285157.160157 1.308594.113282 1.308594.113282s-.394531.300781-.597656.421875c.371093.039062.828125.515625.828125.515625s-.855469.140625-1.222656-.058594c.226562.453125.195312.855469.195312.855469s-1.378906-.339844-1.878906-1.253907" fill="none" stroke="#000" stroke-width=".225453"/><path d="m134.195312 121.660156c-.335937.828125-2.792968-.714844-2.792968-.714844s1.085937 1.714844 2.707031 1.910157zm0 0" fill="#96877d" fill-rule="evenodd"/><path d="m134.195312 121.660156c-.335937.828125-2.792968-.714844-2.792968-.714844s1.085937 1.714844 2.707031 1.910157" fill="none" stroke="#000" stroke-width=".225453"/><path d="m103.539062 137.402344h28.746094l2.21875-1.761719-3.699218-1.992187-5.691407-1.9375-2.277343-1.253907-4.210938.230469-3.53125 1.875-4.839844.570312-1.140625 1.308594-3.585937.285156-5.636719-.113281 9.394531 1.480469-7.746094-.402344zm0 0" fill="#96877d" fill-rule="evenodd" stroke="#000" stroke-width=".225453"/><path d="m119.019531 129.148438c-3.601562-1.933594-4.652343 2.832031-6.203125 3.984374 2.09375.359376 3.671875-1.605468 5.46875-2.5625 1.355469 3.703126 3.5 1.253907 3.5 1.253907s2.234375 3.542969 5.207032 1.9375c.8125.609375 1.707031.054687 1.707031.054687s1.078125.199219 1.308593-.28125c.570313.195313 1.199219-.515625 1.199219-.515625s1.234375.015625 1.480469-.625c1.832031.328125 4.269531-3.761719 4.269531-3.761719l.738281-1.417968 1.085938-.230469s.070312-.710937-.515625-.679687c-.015625-.429688-.386719-.660157-.910156-.574219.101562-.253907-.285157-.453125-.285157-.453125-1.023437.253906-1.085937 2.847656-1.085937 2.847656s-1.789063 1.359375-2.445313 1.703125c-.027343-1.476563-2.503906-3.480469-1.992187-4.4375.511719-.953125 2.121094 1.464844 3.527344 1.027344 1.410156-.445313 2.105469-2.273438 2.164062-3.703125-.394531-.96875-1.367187-2.566406-1.367187-2.566406l-.910156-.050782-.796876-1.9375s-1.675781 1.09375-1.648437 2.050782c.027344.953124 1.761719 1.761718 1.761719 1.761718s-1 .628906-1.929688.339844c-.089844.972656 1.136719.785156 1.589844.800781.226562.699219.910156 1.078125.910156 1.078125s.425782 1.070313-.683594.972656c-1.105468-.097656-2.421874-2.660156-3.984374-1.480468-1.664063 1.25.738281 3.53125.738281 3.53125s-1.464844.765625-2.332031 2.726562c-3.542969-2.988281-5.621094-1.589844-9.566407-.792968zm0 0" fill="#96877d" fill-rule="evenodd" stroke="#000" stroke-width=".225453"/><path d="m113.839844 124.082031c1.480468 1.394531.449218 3.710938 1.027344 4.15625.613281.46875 1.480468-.226562 1.480468-.226562 1.550782.410156 4.324219-.457031 4.324219-.457031 1.21875.683593.742187-.324219 1.480469-.285157.65625 1.679688 2.847656 1.363281 2.847656 1.363281s-2.007812-2.046874-3.246094-2.617187c-.953125.570313-3.730468.65625-4.214844.570313-.535156-.09375-.199218-.753907-.453124-1.140626 1.019531-.992187.214843-3.457031-.34375-4.382812-2.261719-1.503906-4.964844 1.078125-2.902344 3.019531zm0 0" fill="#96877d" fill-rule="evenodd" stroke="#000" stroke-width=".225453"/><path d="m104 119.90625c-1.863281.503906-5.097656-2.402344-6.605469-1.285156-1.507812 1.117187-.800781 3.863281.203125 5.230468.980469 1.339844-1.4375 1.820313-2.09375 2.621094-.613281.742188.199219 1.609375.199219 1.609375l.683594.4375-.121094 1.011719.363281 1.203125s.332032.292969.449219-.082031c.304687.316406.03125 1.214844.800781 1.328125-.277344-.574219.199219-2.167969.199219-2.167969s1.351563.097656 1.695313-.484375c.339843-.585937-.328126-1.855469-.328126-1.855469h.410157c-.457031-.308594-.609375-1.246094-.609375-1.246094s1.871094-.59375 1.855468-2.011718c-.023437-1.417969-3.042968-2.929688-1.933593-3.664063 1.226562-.8125 3.359375 2.109375 5.195312.765625 1.808594-1.335937.640625-.042968.640625-.042968s.828125-1.859376-1.003906-1.367188zm0 0" fill="#96877d" fill-rule="evenodd" stroke="#000" stroke-width=".225453"/><path d="m113.613281 99.96875c-2.492187-1.039062-7.578125-1.101562-10.417969-2.507812-1.25.082031-1.800781 1.0625-1.855468 1.453124-1.300782-.0625-2.179688 1.984376-1.992188 2.394532-2.371094-.960938-3.472656 2.789062-2.699218 3.558594-2.023438.078124-1.773438 2.667968-1.964844 3.382812-.652344 1.574219.140625 2.105469 1.421875 1.539062.1875.683594-.078125 1.066407-.65625 1.195313 3.507812 4.015625 5.488281-2.472656 8.570312-2.445313 3.839844-1.128906 5.351563-3.019531 5.351563-3.019531l1.507812.199219zm0 0" fill="#96877d" fill-rule="evenodd" stroke="#000" stroke-width=".225453"/><path d="m120.503906 97.089844c0 2.03125-1.644531 3.675781-3.675781 3.675781-2.027344 0-3.671875-1.644531-3.671875-3.675781 0-2.027344 1.644531-3.671875 3.671875-3.671875 2.03125 0 3.675781 1.644531 3.675781 3.671875zm0 0" fill="#96877d" fill-rule="evenodd" stroke="#000" stroke-width=".225453"/><path d="m110.367188 126.015625c-2.277344-.414063-6.050782-2.773437-6.433594-5.867187 2.121094-8.320313 13.058594-3.976563 14.003906-10.234376-.242188-4.136718.496094-8.226562 2.792969-11.683593 1.066406-1.351563 2.449219-1.707031 2.449219-1.707031s.246093.882812-.117188 1.480468c1.808594-.199218 4.285156.8125 5.980469.910156.5 1.007813.453125 1.378907.339843 1.992188-.113281.613281-.796874.453125-.796874.453125-.4375.425781-.96875.847656-2.164063.632813-.894531.683593-2.789063.851562-2.789063.851562s3.953126 4.171875 3.304688 5.46875c.824219.378906 2.042969 2.21875 2.042969 2.21875s2.707031-1.425781 3.59375-2.734375c1.5625 0 4.121093 1.636719 5.410156 1.824219 1.5625 1.261718 3.128906 2.558594 3.128906 2.558594s-1.867187 1.226562-2.675781-.394532c-.980469.082032-3.101562-2.265625-6.039062-1.542968-.085938 2.605468-2.960938 4.445312-2.960938 4.445312s2.6875-.375 4.160156.507812c1.519532 1.285157 3.757813 3.023438 3.757813 3.023438l1.988281 3.410156s-1.816406.316406-2.5-2.046875c-.683594 1.910157-.710938-1.179687-3.417969-2.617187-.824219.097656-1.238281.15625-1.9375-.402344-1.945312.527344-4.253906 1.667969-7.003906 1.367188-1.945313.613281-3.367187 2.238281-5.351563 3.132812-1.976562.898438-2.558593.453125-2.558593.453125l-1.59375.0625c-.234375.960937-.097657 2.417969-.972657 2.671875.558594.597656-.394531 3.148438-1.363281 3.585938.457031 1.640624 1.792969 2.140624 3.1875 2.964843 0 0 1.242188-.570312 2.050781.167969.8125.742188 1.648438 2.847656 1.648438 2.847656s-1.6875.113282-2.21875-.113281-.582031-.78125-1.195312-.625c-3.855469-3.433594-5.890626-2.066406-6.265626-2.847656-.378906-.800781.914063-2.890625.515626-4.214844zm0 0" fill="#96877d" fill-rule="evenodd" stroke="#000" stroke-width=".225453"/><path d="m101.101562 110.726562c.203126-.25 1.609376.28125 1.609376.28125l2.574218 1.613282 5.234375 3.378906 1.851563 2.703125-3.335938-1.09375-4.636718-3.980469-2.496094-1.613281s-1.003906-1.035156-.800782-1.289063zm0 0" fill="#96877d" fill-rule="evenodd" stroke="#000" stroke-width=".225453"/><path d="m132.058594 119.296875c-1.808594-.457031-6.261719 4.953125-6.261719 4.953125l3.359375 3.648438s.097656-6.207032 2.902344-8.601563zm0 0" fill="#96877d" fill-rule="evenodd" stroke="#000" stroke-width=".225453"/><path d="m110.027344 104.210938c-.988282 1.261718-1.074219 3.808593.203125 4.832031.125 1.546875 1.4375 4.667969 2.472656 4.960937 1.125.316406 5.632813 1.367188 7.398437 1.078125-.335937 2.863281 1.910157 5.160157 3.988282 6.664063-.019532.257812-.019532.566406.222656.886718.230469.304688 1.320312.367188 1.371094.199219.484375.675781 2.824218.976563 3 .671875.164062-.292968-3.449219-2.8125-4.253906-3.582031-.683594-1.269531-1.972657-4.101563-2.277344-6.375-1.773438-2.109375-4.824219-2.066406-4.824219-2.066406l.097656-4.140625.175781-4.664063-1.65625-.859375s.335938-.152344.515626-.339844c.402343.171876 1.15625-.628906 1.253906-.859374.378906.132812.71875.132812.785156-.070313.058594-.175781.128906-.976563.265625-1.386719 1.25-1.101562-.179687-3.425781-2.082031-3.464844-1.890625-.035156-2.3125 2.25-2.273438 2.421876.179688.714843.140625 1.078124 0 1.253906-.140625.179687-.796875.570312-.796875.570312s-1.054687-.5-2.335937 0c-1.277344.496094-2.714844 1.164063-2.785156 1.992188-.589844.085937-1.542969.839844-1.710938 1.480468-.515625-.097656-1.183594.324219-2.277344 2.105469-1.964844.867188-2.078125 5.066407-2.078125 5.066407s-.53125.773437-.554687 1.183593c-.027344.410157.183594.777344.441406.707031.027344.273438.382812.515626.542969.429688.054687.273438.441406.425781.683593.386719.015626.183593.773438.136719.832032-.027344.070312-.183594-.074219-1.113281.019531-1.183594.082031-.070312.710937.414063.882813.28125.167968-.125-.03125-.535156-.128907-.695312-.085937-.140625-.625-.296875-.753906-.96875-.132813-.667969.339844-1.589844.339844-1.589844s2.132812-1.679687 2.375-3.121094c1.605469.160157 2.460937-1.246093 2.921875-1.777343zm0 0" fill="#96877d" fill-rule="evenodd" stroke="#000" stroke-width=".225453"/><path d="m106.308594 98.1875c.488281-1.191406 2.253906-1.078125 2.253906-1.078125s.628906-1.660156 3-.667969c.894531-.695312 3.242188.296875 3.242188.296875s.886718-1.175781 2.042968-1.042969c2.136719.25 2.488282 2.210938 2.359375 2.550782-1.171875.292968-3.203125-.953125-4.742187-.59375-.902344.503906-2.355469 1.039062-2.902344 1.773437-1.429688.152344-2.953125-1.3125-5.253906-1.238281zm0 0" fill="#96877d" fill-rule="evenodd" stroke="#000" stroke-width=".225453"/><path d="m110.765625 100.167969c.535156-.324219 1.84375-.90625 2.734375-.199219.933594 1.003906 2.363281 1.933594 2.363281 1.933594l1.621094.683594.738281.457031-.480468 7.429687c-1.503907-1.535156-2.910157-1.804687-3.988282-3.613281-.574218-.777344-.136718-2.644531-1.140625-3.875-1.003906-1.230469-2.066406-2.0625-1.847656-2.816406zm0 0" fill="#96877d" fill-rule="evenodd" stroke="#000" stroke-width=".225453"/><path d="m114.664062 102.3125s.851563-.160156 1.089844.042969c.300782.097656.582032.183593.664063.4375.324219.097656.542969.265625.542969.503906.304687.082031.421874.625.421874.625l-.28125.425781s-.320312-.304687-.359374-.625c-.207032-.097656-.65625-.207031-.765626-.507812-.351562-.03125-.578124-.214844-.644531-.519532-.324219.078126-.667969-.382812-.667969-.382812zm0 0" fill="#96877d" fill-rule="evenodd" stroke="#000" stroke-width=".225453"/><path d="m121.871094 97.460938c-.488282-.539063-1.34375-.140626-1.34375-.140626l-2.277344 3.925782-.992188.824218-.085937 3.078126.824219 2.875-.28125 2.21875s1.144531-1.074219 1.28125-1.675782c.125-.574218-.429688-2.445312-.429688-2.445312s-.683594-1.175782.140625-3.332032c.824219-2.164062 2.707031-3.960937 3.164063-5.328124zm0 0" fill="#96877d" fill-rule="evenodd" stroke="#000" stroke-width=".225453"/><path d="m127.492188 100.964844s-3.5625 5.078125-9.382813 6.890625c-1.605469.378906-1.023437-3.757813-1.023437-3.757813l-.398438.113282s-.898438 4.058593 1.253906 4.101562c5.847656-1.15625 10.238282-7.3125 10.238282-7.3125zm0 0" fill="#96877d" fill-rule="evenodd" stroke="#000" stroke-width=".225453"/><path d="m129.894531 130.171875s-.539062.398437-1.25 0c-.375-.855469-1.367187-.914063-1.367187-.914063s-.644532-1.839843-1.652344-1.304687c-.160156-.957031-1.253906-.457031-1.253906-.457031s-.027344-1.378906-1.308594-1.191406c.429688-1.582032-1.761719-1.484376-1.761719-1.484376s-.070312-1.777343-3.304687-1.421874c6.960937-3.117188 12.46875 4.894531 12.46875 4.894531zm0 0" fill="#96877d" fill-rule="evenodd"/><path d="m129.894531 130.171875s-.539062.398437-1.25 0c-.375-.855469-1.367187-.914063-1.367187-.914063s-.644532-1.839843-1.652344-1.304687c-.160156-.957031-1.253906-.457031-1.253906-.457031s-.027344-1.378906-1.308594-1.191406c.429688-1.582032-1.761719-1.484376-1.761719-1.484376s-.070312-1.777343-3.304687-1.421874c6.960937-3.117188 12.46875 4.894531 12.46875 4.894531" fill="none" stroke="#000" stroke-width=".225453"/><path d="m133.195312 130.855469s1.613282 1.8125 2.449219 1.820312c.839844.015625.910157-1.761719.910157-1.761719s.273437.765626.683593.570313c-.042969.535156.515625.683594.515625.683594s-1.453125 3.367187-5.582031.167969zm0 0" fill="#96877d" fill-rule="evenodd"/><path d="m133.195312 130.855469s1.613282 1.8125 2.449219 1.820312c.839844.015625.910157-1.761719.910157-1.761719s.273437.765626.683593.570313c-.042969.535156.515625.683594.515625.683594s-1.453125 3.367187-5.582031.167969" fill="none" stroke="#000" stroke-width=".225453"/><path d="m120.617188 131.539062-.570313 2.335938s-.726563.652344-.515625.792969c.21875.144531 1.367188-.226563 1.367188-.226563s1.796874-.210937 2.335937-.738281c.371094.839844 1.195313.910156 1.195313.910156s.054687-.359375-.058594-.570312c.402344.070312.742187-.050781.742187-.050781s.226563-.660157-.285156-.914063c.058594-.488281.296875-.910156-.570313-.855469-.640624.679688-2.21875 1.464844-2.617187 1.195313s1.5625-1.136719 1.027344-2.277344zm0 0" fill="#96877d" fill-rule="evenodd"/><path d="m120.617188 131.539062-.570313 2.335938s-.726563.652344-.515625.792969c.21875.144531 1.367188-.226563 1.367188-.226563s1.796874-.210937 2.335937-.738281c.371094.839844 1.195313.910156 1.195313.910156s.054687-.359375-.058594-.570312c.402344.070312.742187-.050781.742187-.050781s.226563-.660157-.285156-.914063c.058594-.488281.296875-.910156-.570313-.855469-.640624.679688-2.21875 1.464844-2.617187 1.195313s1.5625-1.136719 1.027344-2.277344" fill="none" stroke="#000" stroke-width=".225453"/><path d="m84.390625 126.003906 2.316406-.554687-.253906-1.074219c-.058594-.242188-.15625-.410156-.292969-.5-.136718-.089844-.367187-.113281-.699218-.074219l-.039063-.160156 1.996094-.472656.039062.15625c-.226562.058593-.390625.128906-.484375.210937-.097656.082032-.15625.179688-.183594.292969-.03125.109375-.019531.265625.023438.460937l.257812 1.074219 1.851563-.441406c.296875-.066406.488281-.132813.574219-.199219.066406-.042968.113281-.117187.140625-.222656.042969-.144531.042969-.285156.011719-.429688l-.046876-.210937.15625-.039063.601563 2.53125-.15625.039063-.050781-.207031c-.058594-.246094-.171875-.40625-.339844-.484375-.109375-.042969-.34375-.027344-.695312.054687l-3.804688.910156c-.296875.070313-.492188.136719-.578125.195313-.066406.050781-.109375.121094-.144531.222656-.035156.144531-.042969.285157-.007813.425781l.046875.210938-.15625.035156-1.046875-4.382812 1.28125-.363282.039063.152344c-.257813.140625-.441406.277344-.542969.40625-.109375.128906-.167969.277344-.199219.433594-.019531.164062.007813.398438.078125.703125zm-1.492187-10.449218c.050781-.785157.386718-1.449219 1.011718-1.992188.628906-.535156 1.386719-.785156 2.28125-.730469.917969.046875 1.660156.378907 2.238282.996094.574218.613281.835937 1.332031.789062 2.15625-.046875.828125-.378906 1.511719-1.003906 2.042969-.625.539062-1.402344.777344-2.34375.722656-.957032-.054688-1.722656-.421875-2.292969-1.113281-.496094-.59375-.722656-1.289063-.679687-2.082031zm.328124.101562c-.035156.542969.140626.988281.523438 1.335938.480469.441406 1.195312.683593 2.160156.738281.988282.054687 1.757813-.113281 2.3125-.503907.421875-.304687.648438-.722656.683594-1.253906.027344-.5625-.167969-1.046875-.585938-1.445312-.425781-.394532-1.113281-.617188-2.066406-.671875-1.03125-.058594-1.820312.105469-2.351562.484375-.421875.304687-.644532.742187-.675782 1.316406zm8.765626-11.054688-.574219 1.511719-3.375.90625c-.050781.140625-.085938.261719-.125.347657-.011719.039062-.027344.074218-.042969.121093-.015625.035157-.039062.078125-.054688.121094l1.644532.632813c.351562.132812.589844.175781.703125.132812.164062-.058594.289062-.191406.367187-.40625l.085938-.222656.148437.0625-.921875 2.421875-.152344-.058594.082032-.210937c.089844-.238282.078125-.441407-.035156-.601563-.066407-.09375-.261719-.199219-.582032-.324219l-3.65625-1.390625c-.359375-.136719-.589844-.179687-.710937-.136719-.164063.058594-.28125.203126-.363281.414063l-.082032.210937-.15625-.054687.785156-2.0625c.230469-.601563.441407-1.03125.636719-1.28125.199219-.25.449219-.429687.761719-.539063.3125-.109374.625-.105468.953125.019532.351563.132812.605469.363281.78125.683594.167969.328124.210937.742187.140625 1.265624l2.066406-.554687c.472656-.125.808594-.257813 1.003906-.40625.195313-.140625.367188-.363281.519532-.660156zm-4.4375 2.914063c.023437-.054687.035156-.097656.054687-.140625.015625-.039062.03125-.066406.035156-.09375.207031-.542969.246094-.992188.117188-1.355469-.132813-.363281-.375-.613281-.734375-.75s-.683594-.136719-.992188.003907c-.304687.136718-.527344.386718-.660156.75-.066406.164062-.121094.390624-.175781.691406zm12.882812-20.058594 1.171875 1.519531-.128906.082032c-.394531-.316406-.757813-.503906-1.101563-.570313-.492187-.097656-.976562.011719-1.449218.316407-.644532.421874-.976563.996093-.980469 1.722656 0 .617187.191406 1.222656.578125 1.816406.316406.488281.695312.867188 1.140625 1.144531.445312.285157.878906.414063 1.308593.402344.421876-.003906.792969-.117187 1.113282-.324219.1875-.121094.351562-.261718.496094-.425781.144531-.15625.269531-.335937.371093-.535156l-.949219-1.472657c-.167968-.253906-.292968-.40625-.386718-.460937-.085938-.050781-.183594-.074219-.292969-.0625-.105469.015625-.265625.085937-.472656.21875l-.089844-.144531 1.96875-1.273438.09375.140625-.09375.066407c-.195313.125-.289063.277343-.277344.449218.011719.125.105469.324219.277344.597656l1.007813 1.554688c-.183594.34375-.394532.640625-.628907.890625-.234375.257813-.519531.496094-.863281.71875-.980469.632813-1.929688.800781-2.847656.503906-.6875-.230469-1.230469-.648437-1.632813-1.265625-.285156-.445312-.460937-.945312-.511719-1.492187-.058593-.65625.050782-1.253907.324219-1.804688.230469-.457031.601563-.851562 1.105469-1.183593.1875-.121094.363281-.210938.535156-.277344.167969-.070313.429688-.140625.773438-.222656.171875-.039063.28125-.070313.328125-.101563.050781-.027344.078125-.078125.082031-.144531.007812-.0625-.03125-.167969-.109375-.296875zm9.859375.675781-2.261719.605469-.152344 1.03125c-.039062.253907-.042968.433594-.011718.546875.023437.09375.085937.15625.191406.199219.101562.050781.296875.042969.585938-.011719l.039062.160156-1.839844.488282-.042968-.15625c.230468-.109375.375-.207032.425781-.292969.109375-.179687.203125-.507813.265625-.972656l.777344-5.367188.152343-.035156 3.332031 4.320313c.265626.347656.480469.566406.652344.640624.160156.082032.367188.097657.605469.050782l.042969.160156-2.304688.617188-.042968-.164063c.226562-.070313.371093-.152344.4375-.238281.066406-.089844.085937-.179688.058593-.277344-.03125-.125-.144531-.308594-.328125-.554688zm-.207031-.285156-1.613282-2.101562-.394531 2.636718zm10.695312-.027344.144532.03125-.585938 1.625-4.679688-.179687.003907-.167969.226562.011719c.257813.007813.445313-.066406.5625-.230469.0625-.09375.105469-.3125.117188-.65625l.152343-3.90625c.015626-.375-.015624-.613281-.097656-.710937-.109375-.136719-.28125-.210938-.511718-.21875l-.226563-.007813.003906-.164062 2.742188.105468-.007813.167969c-.316406-.019531-.546875.003907-.675781.058594-.132813.058594-.222656.132813-.277344.226563-.050781.09375-.082031.320312-.097656.679687l-.144531 3.800781c-.011719.246094.003906.417969.046875.511719.039062.0625.085937.113281.164062.144531.070313.035156.300781.054688.691407.074219l.441406.015625c.464844.019531.792968 0 .980468-.066406.191407-.058594.371094-.171875.527344-.339844.164063-.167969.332032-.4375.5-.804688zm8.0625 2.152344.128906.078125-1.007812 1.398438-4.449219-1.46875.046875-.160157.21875.074219c.242188.078125.445313.058594.601563-.066406.085937-.070313.183593-.273437.292969-.597656l1.230468-3.710938c.113282-.359375.152344-.597656.105469-.714843-.070313-.160157-.210937-.277344-.433594-.347657l-.210937-.070312.046875-.15625 2.605469.859375-.054688.160156c-.304688-.109375-.527344-.148438-.667969-.132812-.140625.023437-.25.066406-.324219.140624-.078124.078126-.175781.285157-.285156.632813l-1.199218 3.605469c-.074219.238281-.101563.40625-.085938.511718.011719.070313.050781.128907.109375.179688.066406.054688.28125.140625.652344.257812l.417969.140626c.4375.148437.757812.21875.957031.210937.203125-.003906.402343-.070313.605469-.183594.199218-.117187.433593-.328125.699218-.640625zm6.5 3.445313-1.917968-1.355469-.882813.542969c-.222656.136719-.363281.25-.429687.339843-.054688.078126-.0625.171876-.03125.277344.027343.109375.15625.257813.386718.441406l-.097656.132813-1.558594-1.101563.097656-.132812c.234376.109375.394532.15625.5.140625.207032-.027344.515626-.167969.914063-.417969l4.617187-2.839844.132813.089844-1.195313 5.332032c-.089843.429687-.117187.734374-.074218.90625.042968.179687.160156.347656.351562.503906l-.09375.132812-1.953125-1.378906.097657-.136719c.203124.128907.359374.191407.46875.183594.109374-.003906.195312-.046875.25-.128906.074218-.109375.144531-.308594.210937-.609375zm.085938-.339844.574218-2.59375-2.273437 1.386719zm7.183594 1.324219.976562 1.316406-1.445312 5.675781 2.804687-2.078125c.300781-.222656.460937-.390625.488281-.515625.035156-.160156-.019531-.335937-.160156-.53125l-.125-.167969.128906-.097656 1.257813 1.691406-.132813.097657-.125-.167969c-.152344-.207031-.328125-.308594-.511718-.304688-.121094.007813-.316407.109376-.585938.308594l-4.101562 3.046875-.089844-.132812 1.539062-6.113281-2.996094 2.222656c-.304687.222656-.464843.390625-.488281.511718-.03125.164063.015625.34375.15625.53125l.132813.175782-.136719.097656-1.253906-1.695312.132812-.09375.125.167968c.15625.203125.324219.304688.515625.300782.113282-.003907.308594-.109376.578125-.308594l3.386719-2.511719c.058594-.261719.089844-.449219.085938-.558594 0-.113281-.03125-.253906-.085938-.433593-.035156-.082032-.097656-.195313-.207031-.335938zm7.632812 14.066406-1.320312.535156-.054688-.160156c.226562-.113281.382812-.21875.460938-.304688.132812-.144531.214843-.304687.242187-.472656.019531-.171875-.007813-.378906-.085937-.613281l-.289063-.800781-4.363281 1.539062c-.347656.125-.550782.238282-.613282.347656-.082031.148438-.082031.332032-.003906.554688l.070313.199219-.152344.054687-.855469-2.417968.148438-.054688.078125.199219c.082031.238281.214843.386719.394531.433593.113281.035157.332031-.011718.652344-.125l4.363281-1.539062-.246094-.691406c-.097656-.261719-.183593-.449219-.261719-.546875-.101562-.125-.246093-.210938-.4375-.265625-.191406-.046875-.417968-.035156-.683593.03125l-.054688-.15625 1.363281-.40625zm-4.792969 10.738281-.085937-1.613281 2.726562-2.191406c-.019531-.152344-.03125-.277344-.035156-.375 0-.035156 0-.074219 0-.125-.003906-.042969-.003906-.085938-.003906-.132813l-1.753906.089844c-.378907.015625-.617188.070313-.703126.15625-.125.125-.179687.292969-.167968.523437l.007812.238282-.160156.003906-.136719-2.585938.164063-.011718.007812.226562c.019532.257813.109375.4375.285156.539063.089844.054687.3125.074219.65625.058593l3.910157-.203124c.378906-.019532.613281-.074219.699219-.164063.125-.121094.179687-.300781.167968-.527344l-.011718-.230469.164062-.003906.121094 2.203125c.03125.640625.007812 1.117188-.070313 1.425781-.078125.308594-.234375.578126-.480469.804688-.238281.222656-.53125.347656-.878906.363281-.371094.019531-.699218-.085937-.984375-.316406-.289062-.226563-.5-.589844-.640625-1.09375l-1.667968 1.339844c-.382813.308593-.640626.5625-.757813.773437-.121094.21875-.191406.492188-.207031.820313zm2.882813-4.457031c.007812.0625.007812.109375.007812.148438 0 .042968.003906.074218.003906.101562.027344.578125.175782 1.003906.4375 1.289062.265626.28125.59375.410157.984376.390626.371093-.023438.675781-.160157.898437-.402344.222656-.25.328125-.570313.304687-.960938-.003906-.175781-.046874-.402344-.121093-.695312zm1.660156 12.457031-.53125 2.042969-.164062-.039062.027343-.113282c.023438-.078125.015625-.191406-.011719-.355468-.027343-.160157-.085937-.320313-.175781-.464844-.101562-.152344-.261719-.355469-.496093-.597656l-1.855469-1.996094-1.464844-.386719c-.363281-.089844-.597656-.113281-.703125-.050781-.152344.074218-.257812.230468-.320312.464844l-.050782.1875-.15625-.035157.652344-2.492187.15625.042968-.054688.207032c-.066406.25-.03125.445312.085938.585937.078125.085938.277344.175781.609375.261719l1.382813.363281 2.875-.960937c.339843-.113282.554687-.195313.644531-.242188.089843-.054687.214843-.167968.371093-.359375.042969-.046875.074219-.125.109376-.238281l.15625.042969-.65625 2.507812-.160157-.042969.035157-.132812c.03125-.136719.035156-.265625 0-.394531-.035157-.132813-.109376-.214844-.238282-.246094-.105468-.027344-.316406.011719-.628906.113281l-2.210938.730469 1.503907 1.621094c.226562.242187.40625.386719.539062.417969.078125.019531.15625.019531.230469-.007813.078125-.023437.140625-.070313.195312-.140625.054688-.0625.101563-.179688.148438-.335938zm0 0" fill-rule="evenodd"/></svg>