<?xml version="1.0" encoding="UTF-8"?>
<svg xmlns="http://www.w3.org/2000/svg" xmlns:xlink="http://www.w3.org/1999/xlink" width="128pt" height="67pt" viewBox="0 0 128 67" version="1.1">
<g id="surface692">
<path style=" stroke:none;fill-rule:evenodd;fill:rgb(0%,21.960449%,57.646179%);fill-opacity:1;" d="M 0 0 L 127.8125 0 L 127.8125 67.269531 L 0 67.269531 Z M 0 0 "/>
<path style=" stroke:none;fill-rule:evenodd;fill:rgb(99.998474%,99.998474%,99.998474%);fill-opacity:1;" d="M 24.5625 45.414062 L 23.699219 31.09375 L 20.699219 38.984375 L 22.039062 30.652344 L 17.09375 37.492188 L 20.546875 29.792969 L 14.003906 35.121094 L 19.332031 28.578125 L 11.628906 32.027344 L 18.46875 27.085938 L 10.132812 28.425781 L 18.023438 25.421875 L 3.707031 24.5625 L 18.023438 23.699219 L 10.132812 20.699219 L 18.46875 22.039062 L 11.628906 17.09375 L 19.332031 20.546875 L 14.003906 14.003906 L 20.546875 19.332031 L 17.09375 11.628906 L 22.039062 18.46875 L 20.699219 10.136719 L 23.699219 18.023438 L 24.5625 3.707031 L 25.421875 18.023438 L 28.425781 10.136719 L 27.085938 18.46875 L 32.027344 11.628906 L 28.570312 19.332031 L 35.121094 14.003906 L 29.792969 20.546875 L 37.492188 17.09375 L 30.652344 22.039062 L 38.984375 20.699219 L 31.09375 23.699219 L 45.414062 24.5625 L 31.09375 25.421875 L 38.984375 28.425781 L 30.652344 27.085938 L 37.492188 32.027344 L 29.792969 28.578125 L 35.121094 35.121094 L 28.570312 29.792969 L 32.027344 37.492188 L 27.085938 30.652344 L 28.425781 38.984375 L 25.421875 31.09375 Z M 24.5625 45.414062 "/>
<path style=" stroke:none;fill-rule:evenodd;fill:rgb(99.998474%,99.998474%,99.998474%);fill-opacity:1;" d="M 0 66.195312 L 127.8125 27.445312 L 127.8125 1.078125 L 0 64.042969 Z M 0 66.195312 "/>
<path style=" stroke:none;fill-rule:evenodd;fill:rgb(86.665344%,45.881653%,0%);fill-opacity:1;" d="M 0 65.117188 L 127.8125 14.261719 L 127.8125 1.078125 L 0 64.042969 Z M 0 65.117188 "/>
</g>
</svg>
