<svg viewBox="0 0 1000 526" xmlns="http://www.w3.org/2000/svg" xmlns:xlink="http://www.w3.org/1999/xlink"><clipPath id="a"><path d="m0 0h999v525.601562h-999zm0 0"/></clipPath><g clip-path="url(#a)"><path d="m0 0h998.539062v525.546875h-998.539062zm0 0" fill="#003893" fill-rule="evenodd"/></g><g fill-rule="evenodd"><path d="m191.890625 354.804688-6.726563-111.875-23.460937 61.636718 10.464844-65.089844-38.636719 53.441407 26.988281-60.160157-51.125 41.621094 41.625-51.125-60.164062 26.945313 53.441406-38.589844-65.128906 10.46875 61.636719-23.464844-111.835938-6.722656 111.835938-6.726563-61.636719-23.460937 65.128906 10.464844-53.441406-38.636719 60.164062 26.988281-41.625-51.125 51.125 41.625-26.988281-60.164062 38.636719 53.441406-10.464844-65.089844 23.460937 61.597657 6.726563-111.835938 6.722656 111.835938 23.464844-61.597657-10.46875 65.089844 38.589844-53.441406-26.988281 60.164062 51.167968-41.625-41.621094 51.125 60.160157-26.988281-53.441407 38.636719 65.089844-10.464844-61.636718 23.460937 111.875 6.726563-111.875 6.722656 61.636718 23.464844-65.089844-10.46875 53.441407 38.589844-60.160157-26.945313 41.621094 51.125-51.167968-41.621094 26.988281 60.160157-38.589844-53.441407 10.46875 65.089844-23.464844-61.636718zm0 0" fill="#fff"/><path d="m0 517.136719 998.539062-302.714844v-206.011719l-998.539062 491.910156zm0 0" fill="#fff"/><path d="m0 508.730469 998.539062-397.316407v-103.003906l-998.539062 491.910156zm0 0" fill="#dd7500"/></g></svg>