<?xml version="1.0" encoding="UTF-8"?>
<svg xmlns="http://www.w3.org/2000/svg" xmlns:xlink="http://www.w3.org/1999/xlink" width="128pt" height="85pt" viewBox="0 0 128 85" version="1.1">
<defs>
<clipPath id="clip1">
  <path d="M 0 0 L 127.679688 0 L 127.679688 22 L 0 22 Z M 0 0 "/>
</clipPath>
<clipPath id="clip2">
  <path d="M 0 21 L 127.679688 21 L 127.679688 43 L 0 43 Z M 0 21 "/>
</clipPath>
<clipPath id="clip3">
  <path d="M 0 42 L 127.679688 42 L 127.679688 64 L 0 64 Z M 0 42 "/>
</clipPath>
<clipPath id="clip4">
  <path d="M 0 63 L 127.679688 63 L 127.679688 85 L 0 85 Z M 0 63 "/>
</clipPath>
</defs>
<g id="surface707">
<g clip-path="url(#clip1)" clip-rule="nonzero">
<path style=" stroke:none;fill-rule:evenodd;fill:rgb(91.763306%,15.686035%,22.3526%);fill-opacity:1;" d="M 0 0 L 127.5 0 L 127.5 21.25 L 0 21.25 Z M 0 0 "/>
</g>
<g clip-path="url(#clip2)" clip-rule="nonzero">
<path style=" stroke:none;fill-rule:evenodd;fill:rgb(10.195923%,12.548828%,42.744446%);fill-opacity:1;" d="M 0 21.25 L 127.5 21.25 L 127.5 42.5 L 0 42.5 Z M 0 21.25 "/>
</g>
<g clip-path="url(#clip3)" clip-rule="nonzero">
<path style=" stroke:none;fill-rule:evenodd;fill:rgb(99.998474%,83.528137%,0%);fill-opacity:1;" d="M 0 42.5 L 127.5 42.5 L 127.5 63.75 L 0 63.75 Z M 0 42.5 "/>
</g>
<g clip-path="url(#clip4)" clip-rule="nonzero">
<path style=" stroke:none;fill-rule:evenodd;fill:rgb(0%,64.704895%,31.764221%);fill-opacity:1;" d="M 0 63.75 L 127.5 63.75 L 127.5 85 L 0 85 Z M 0 63.75 "/>
</g>
</g>
</svg>
