<?xml version="1.0" encoding="UTF-8"?>
<svg xmlns="http://www.w3.org/2000/svg" xmlns:xlink="http://www.w3.org/1999/xlink" width="128pt" height="67pt" viewBox="0 0 128 67" version="1.1">
<g id="surface722">
<rect x="0" y="0" width="128" height="67" style="fill:rgb(45.881653%,69.802856%,86.665344%);fill-opacity:1;stroke:none;"/>
<path style=" stroke:none;fill-rule:evenodd;fill:rgb(99.998474%,99.998474%,99.998474%);fill-opacity:1;" d="M 64 6.738281 L 61.917969 13.144531 L 65.121094 14.183594 Z M 64 6.738281 "/>
<path style=" stroke:none;fill-rule:evenodd;fill:rgb(99.998474%,99.998474%,99.998474%);fill-opacity:1;" d="M 64 6.738281 L 66.082031 13.144531 L 62.878906 14.183594 Z M 64 6.738281 "/>
<path style=" stroke:none;fill-rule:evenodd;fill:rgb(99.998474%,99.998474%,99.998474%);fill-opacity:1;" d="M 70.40625 11.390625 L 63.671875 11.390625 L 63.671875 14.761719 Z M 70.40625 11.390625 "/>
<path style=" stroke:none;fill-rule:evenodd;fill:rgb(99.998474%,99.998474%,99.998474%);fill-opacity:1;" d="M 70.40625 11.390625 L 64.957031 15.351562 L 62.976562 12.625 Z M 70.40625 11.390625 "/>
<path style=" stroke:none;fill-rule:evenodd;fill:rgb(99.998474%,99.998474%,99.998474%);fill-opacity:1;" d="M 67.960938 18.921875 L 65.878906 12.515625 L 62.675781 13.558594 Z M 67.960938 18.921875 "/>
<path style=" stroke:none;fill-rule:evenodd;fill:rgb(99.998474%,99.998474%,99.998474%);fill-opacity:1;" d="M 67.960938 18.921875 L 62.511719 14.964844 L 64.488281 12.238281 Z M 67.960938 18.921875 "/>
<path style=" stroke:none;fill-rule:evenodd;fill:rgb(99.998474%,99.998474%,99.998474%);fill-opacity:1;" d="M 60.039062 18.921875 L 65.488281 14.964844 L 63.511719 12.238281 Z M 60.039062 18.921875 "/>
<path style=" stroke:none;fill-rule:evenodd;fill:rgb(99.998474%,99.998474%,99.998474%);fill-opacity:1;" d="M 60.039062 18.921875 L 62.121094 12.515625 L 65.324219 13.558594 Z M 60.039062 18.921875 "/>
<path style=" stroke:none;fill-rule:evenodd;fill:rgb(99.998474%,99.998474%,99.998474%);fill-opacity:1;" d="M 57.59375 11.390625 L 63.042969 15.351562 L 65.023438 12.625 Z M 57.59375 11.390625 "/>
<path style=" stroke:none;fill-rule:evenodd;fill:rgb(99.998474%,99.998474%,99.998474%);fill-opacity:1;" d="M 57.59375 11.390625 L 64.328125 11.390625 L 64.328125 14.761719 Z M 57.59375 11.390625 "/>
<path style=" stroke:none;fill-rule:evenodd;fill:rgb(99.998474%,99.998474%,99.998474%);fill-opacity:1;" d="M 90.949219 33.683594 L 84.539062 31.601562 L 83.5 34.804688 Z M 90.949219 33.683594 "/>
<path style=" stroke:none;fill-rule:evenodd;fill:rgb(99.998474%,99.998474%,99.998474%);fill-opacity:1;" d="M 90.949219 33.683594 L 84.539062 35.765625 L 83.5 32.5625 Z M 90.949219 33.683594 "/>
<path style=" stroke:none;fill-rule:evenodd;fill:rgb(99.998474%,99.998474%,99.998474%);fill-opacity:1;" d="M 86.292969 40.089844 L 86.292969 33.355469 L 82.921875 33.355469 Z M 86.292969 40.089844 "/>
<path style=" stroke:none;fill-rule:evenodd;fill:rgb(99.998474%,99.998474%,99.998474%);fill-opacity:1;" d="M 86.292969 40.089844 L 82.332031 34.640625 L 85.058594 32.660156 Z M 86.292969 40.089844 "/>
<path style=" stroke:none;fill-rule:evenodd;fill:rgb(99.998474%,99.998474%,99.998474%);fill-opacity:1;" d="M 78.761719 37.644531 L 85.167969 35.5625 L 84.125 32.359375 Z M 78.761719 37.644531 "/>
<path style=" stroke:none;fill-rule:evenodd;fill:rgb(99.998474%,99.998474%,99.998474%);fill-opacity:1;" d="M 78.761719 37.644531 L 82.71875 32.195312 L 85.445312 34.171875 Z M 78.761719 37.644531 "/>
<path style=" stroke:none;fill-rule:evenodd;fill:rgb(99.998474%,99.998474%,99.998474%);fill-opacity:1;" d="M 78.761719 29.722656 L 82.71875 35.175781 L 85.445312 33.195312 Z M 78.761719 29.722656 "/>
<path style=" stroke:none;fill-rule:evenodd;fill:rgb(99.998474%,99.998474%,99.998474%);fill-opacity:1;" d="M 78.761719 29.722656 L 85.167969 31.804688 L 84.125 35.011719 Z M 78.761719 29.722656 "/>
<path style=" stroke:none;fill-rule:evenodd;fill:rgb(99.998474%,99.998474%,99.998474%);fill-opacity:1;" d="M 86.292969 27.277344 L 82.332031 32.726562 L 85.058594 34.707031 Z M 86.292969 27.277344 "/>
<path style=" stroke:none;fill-rule:evenodd;fill:rgb(99.998474%,99.998474%,99.998474%);fill-opacity:1;" d="M 86.292969 27.277344 L 86.292969 34.015625 L 82.921875 34.015625 Z M 86.292969 27.277344 "/>
<path style=" stroke:none;fill-rule:evenodd;fill:rgb(99.998474%,99.998474%,99.998474%);fill-opacity:1;" d="M 64 60.632812 L 66.082031 54.222656 L 62.878906 53.183594 Z M 64 60.632812 "/>
<path style=" stroke:none;fill-rule:evenodd;fill:rgb(99.998474%,99.998474%,99.998474%);fill-opacity:1;" d="M 64 60.632812 L 61.917969 54.222656 L 65.121094 53.183594 Z M 64 60.632812 "/>
<path style=" stroke:none;fill-rule:evenodd;fill:rgb(99.998474%,99.998474%,99.998474%);fill-opacity:1;" d="M 57.59375 55.976562 L 64.328125 55.976562 L 64.328125 52.609375 Z M 57.59375 55.976562 "/>
<path style=" stroke:none;fill-rule:evenodd;fill:rgb(99.998474%,99.998474%,99.998474%);fill-opacity:1;" d="M 57.59375 55.976562 L 63.042969 52.015625 L 65.023438 54.742188 Z M 57.59375 55.976562 "/>
<path style=" stroke:none;fill-rule:evenodd;fill:rgb(99.998474%,99.998474%,99.998474%);fill-opacity:1;" d="M 60.039062 48.445312 L 62.121094 54.851562 L 65.324219 53.8125 Z M 60.039062 48.445312 "/>
<path style=" stroke:none;fill-rule:evenodd;fill:rgb(99.998474%,99.998474%,99.998474%);fill-opacity:1;" d="M 60.039062 48.445312 L 65.488281 52.40625 L 63.511719 55.128906 Z M 60.039062 48.445312 "/>
<path style=" stroke:none;fill-rule:evenodd;fill:rgb(99.998474%,99.998474%,99.998474%);fill-opacity:1;" d="M 67.960938 48.445312 L 62.511719 52.40625 L 64.488281 55.128906 Z M 67.960938 48.445312 "/>
<path style=" stroke:none;fill-rule:evenodd;fill:rgb(99.998474%,99.998474%,99.998474%);fill-opacity:1;" d="M 67.960938 48.445312 L 65.878906 54.851562 L 62.675781 53.8125 Z M 67.960938 48.445312 "/>
<path style=" stroke:none;fill-rule:evenodd;fill:rgb(99.998474%,99.998474%,99.998474%);fill-opacity:1;" d="M 70.40625 55.976562 L 64.957031 52.015625 L 62.976562 54.742188 Z M 70.40625 55.976562 "/>
<path style=" stroke:none;fill-rule:evenodd;fill:rgb(99.998474%,99.998474%,99.998474%);fill-opacity:1;" d="M 70.40625 55.976562 L 63.671875 55.976562 L 63.671875 52.609375 Z M 70.40625 55.976562 "/>
<path style=" stroke:none;fill-rule:evenodd;fill:rgb(99.998474%,99.998474%,99.998474%);fill-opacity:1;" d="M 37.050781 33.683594 L 43.460938 35.765625 L 44.5 32.5625 Z M 37.050781 33.683594 "/>
<path style=" stroke:none;fill-rule:evenodd;fill:rgb(99.998474%,99.998474%,99.998474%);fill-opacity:1;" d="M 37.050781 33.683594 L 43.460938 31.601562 L 44.5 34.804688 Z M 37.050781 33.683594 "/>
<path style=" stroke:none;fill-rule:evenodd;fill:rgb(99.998474%,99.998474%,99.998474%);fill-opacity:1;" d="M 41.707031 27.277344 L 41.707031 34.015625 L 45.078125 34.015625 Z M 41.707031 27.277344 "/>
<path style=" stroke:none;fill-rule:evenodd;fill:rgb(99.998474%,99.998474%,99.998474%);fill-opacity:1;" d="M 41.707031 27.277344 L 45.667969 32.726562 L 42.941406 34.707031 Z M 41.707031 27.277344 "/>
<path style=" stroke:none;fill-rule:evenodd;fill:rgb(99.998474%,99.998474%,99.998474%);fill-opacity:1;" d="M 49.238281 29.722656 L 42.832031 31.804688 L 43.875 35.011719 Z M 49.238281 29.722656 "/>
<path style=" stroke:none;fill-rule:evenodd;fill:rgb(99.998474%,99.998474%,99.998474%);fill-opacity:1;" d="M 49.238281 29.722656 L 45.28125 35.175781 L 42.554688 33.195312 Z M 49.238281 29.722656 "/>
<path style=" stroke:none;fill-rule:evenodd;fill:rgb(99.998474%,99.998474%,99.998474%);fill-opacity:1;" d="M 49.238281 37.644531 L 45.28125 32.195312 L 42.554688 34.171875 Z M 49.238281 37.644531 "/>
<path style=" stroke:none;fill-rule:evenodd;fill:rgb(99.998474%,99.998474%,99.998474%);fill-opacity:1;" d="M 49.238281 37.644531 L 42.832031 35.5625 L 43.875 32.359375 Z M 49.238281 37.644531 "/>
<path style=" stroke:none;fill-rule:evenodd;fill:rgb(99.998474%,99.998474%,99.998474%);fill-opacity:1;" d="M 41.707031 40.089844 L 45.667969 34.640625 L 42.941406 32.660156 Z M 41.707031 40.089844 "/>
<path style=" stroke:none;fill-rule:evenodd;fill:rgb(99.998474%,99.998474%,99.998474%);fill-opacity:1;" d="M 41.707031 40.089844 L 41.707031 33.355469 L 45.078125 33.355469 Z M 41.707031 40.089844 "/>
</g>
</svg>
