<?xml version="1.0" encoding="UTF-8"?>
<svg xmlns="http://www.w3.org/2000/svg" xmlns:xlink="http://www.w3.org/1999/xlink" width="128pt" height="64pt" viewBox="0 0 128 64" version="1.1">
<g id="surface727">
<rect x="0" y="0" width="128" height="64" style="fill:rgb(79.998779%,3.529358%,18.431091%);fill-opacity:1;stroke:none;"/>
<path style=" stroke:none;fill-rule:evenodd;fill:rgb(99.998474%,82.351685%,0%);fill-opacity:1;" d="M 0 0 L 85.332031 0 L 85.332031 64 L 0 64 Z M 0 0 "/>
<path style=" stroke:none;fill-rule:evenodd;fill:rgb(0%,27.450562%,68.234253%);fill-opacity:1;" d="M 0 0 L 42.667969 0 L 42.667969 64 L 0 64 Z M 0 0 "/>
<path style=" stroke:none;fill-rule:evenodd;fill:rgb(69.018555%,49.803162%,33.332825%);fill-opacity:1;" d="M 58.0625 37.828125 L 58.65625 37.785156 L 58.707031 38.292969 L 59.253906 38.058594 L 59.402344 38.757812 L 60.609375 37.535156 L 62.285156 38.363281 L 59.105469 44.03125 L 57.96875 44.867188 L 60.011719 45.636719 L 62.109375 43.191406 L 61.804688 44.796875 L 61.183594 46.355469 L 63.734375 47.824219 L 66.503906 46.1875 L 65.144531 43.328125 L 65.585938 43.125 L 67.382812 45.726562 L 69.339844 44.757812 L 66.796875 41.785156 L 65.121094 38.207031 L 66.886719 37.625 L 68.089844 38.777344 L 68.269531 38.027344 L 68.902344 38.335938 L 68.824219 37.707031 L 69.460938 37.847656 L 68.683594 36.617188 L 70.660156 34.957031 L 71.90625 38.863281 L 73.75 40.964844 L 74.140625 40.917969 L 75.476562 42.570312 L 75.464844 19.671875 L 72.996094 17.074219 L 70.59375 19.027344 L 70.695312 21.136719 L 69.617188 21.175781 L 68.011719 22 L 67.113281 22.292969 L 66.691406 22.378906 L 66.140625 21.777344 L 65.402344 20.300781 L 65.355469 18.84375 L 65.808594 17.894531 L 65.726562 16.996094 L 66.132812 17.003906 L 65.871094 16.398438 L 66.234375 16.253906 L 65.695312 15.78125 L 65.882812 15.558594 L 63.847656 14.6875 L 62.292969 14.582031 L 61.875 14.765625 L 61.671875 15.144531 L 62.082031 16.304688 L 61.640625 16.746094 L 62.078125 17.597656 L 62.09375 19.460938 L 61.746094 21.03125 L 61.046875 22.222656 L 60.679688 22.363281 L 59.804688 22.160156 L 57.972656 21.195312 L 56.816406 21.132812 L 56.738281 18.886719 L 54.515625 17.105469 L 52.253906 19.546875 L 51.929688 20.265625 L 52.035156 42.492188 L 53.5 40.71875 L 53.808594 40.792969 L 55.320312 39.15625 L 56.605469 35.917969 L 56.984375 34.570312 L 58.714844 36.617188 Z M 58.0625 37.828125 "/>
<path style=" stroke:none;fill-rule:evenodd;fill:rgb(0%,0%,0%);fill-opacity:1;" d="M 60.28125 13.03125 C 60.050781 13.03125 59.851562 13.089844 59.734375 13.179688 C 59.917969 13.234375 60.054688 13.40625 60.054688 13.613281 L 60.054688 14.140625 L 59.527344 14.140625 C 59.320312 14.140625 59.148438 14.007812 59.09375 13.824219 C 59.003906 13.941406 58.945312 14.140625 58.945312 14.371094 C 58.945312 14.597656 59.003906 14.800781 59.09375 14.917969 C 59.148438 14.730469 59.320312 14.597656 59.527344 14.597656 L 60.054688 14.597656 L 60.054688 17.132812 C 60.054688 17.332031 59.929688 17.496094 59.757812 17.558594 C 60.007812 17.59375 60.222656 17.929688 60.285156 18.117188 C 60.34375 17.929688 60.558594 17.59375 60.8125 17.558594 C 60.636719 17.5 60.507812 17.332031 60.507812 17.132812 L 60.507812 14.59375 L 61.039062 14.59375 C 61.242188 14.59375 61.414062 14.726562 61.46875 14.914062 C 61.5625 14.796875 61.621094 14.59375 61.621094 14.367188 C 61.621094 14.136719 61.5625 13.9375 61.46875 13.820312 C 61.417969 14.007812 61.246094 14.140625 61.039062 14.140625 L 60.507812 14.140625 L 60.507812 13.613281 C 60.507812 13.40625 60.640625 13.234375 60.828125 13.179688 C 60.710938 13.089844 60.507812 13.03125 60.28125 13.03125 Z M 60.28125 13.03125 "/>
<path style=" stroke:none;fill-rule:evenodd;fill:rgb(96.076965%,83.135986%,0.784302%);fill-opacity:1;" d="M 60.28125 13.140625 C 60.160156 13.140625 60.054688 13.164062 59.96875 13.191406 C 60.085938 13.292969 60.164062 13.441406 60.164062 13.613281 L 60.164062 14.140625 C 60.164062 14.148438 60.160156 14.15625 60.160156 14.164062 L 60.160156 14.246094 L 60.078125 14.246094 C 60.070312 14.25 60.0625 14.25 60.054688 14.25 L 59.527344 14.25 C 59.359375 14.25 59.210938 14.171875 59.109375 14.058594 C 59.078125 14.148438 59.054688 14.25 59.054688 14.371094 C 59.054688 14.488281 59.074219 14.59375 59.105469 14.683594 C 59.207031 14.566406 59.355469 14.488281 59.527344 14.488281 L 60.164062 14.488281 C 60.164062 14.496094 60.160156 14.507812 60.160156 14.519531 L 60.160156 14.574219 C 60.160156 14.582031 60.164062 14.589844 60.164062 14.597656 L 60.164062 17.132812 C 60.164062 17.296875 60.078125 17.425781 59.96875 17.53125 C 60.046875 17.578125 60.117188 17.640625 60.175781 17.710938 C 60.226562 17.773438 60.246094 17.835938 60.285156 17.902344 C 60.320312 17.835938 60.339844 17.773438 60.394531 17.710938 C 60.449219 17.644531 60.519531 17.582031 60.597656 17.535156 C 60.484375 17.429688 60.398438 17.300781 60.398438 17.132812 L 60.398438 14.492188 L 60.488281 14.492188 C 60.496094 14.488281 60.5 14.488281 60.507812 14.488281 L 61.039062 14.488281 C 61.207031 14.488281 61.351562 14.5625 61.457031 14.679688 C 61.484375 14.589844 61.511719 14.488281 61.511719 14.367188 C 61.511719 14.246094 61.488281 14.140625 61.460938 14.054688 C 61.355469 14.171875 61.207031 14.25 61.039062 14.25 L 60.507812 14.25 C 60.503906 14.25 60.496094 14.246094 60.488281 14.246094 L 60.402344 14.246094 L 60.402344 14.164062 C 60.402344 14.15625 60.398438 14.148438 60.398438 14.140625 L 60.398438 13.613281 C 60.398438 13.445312 60.476562 13.296875 60.59375 13.195312 C 60.503906 13.164062 60.402344 13.140625 60.28125 13.140625 Z M 60.28125 13.140625 "/>
<path style=" stroke:none;fill-rule:evenodd;fill:rgb(81.959534%,1.568604%,16.078186%);fill-opacity:1;" d="M 56.792969 40.214844 L 56.046875 40.191406 L 55.28125 40.550781 L 55.03125 41.386719 L 55.144531 41.773438 L 55.980469 42.675781 L 56.65625 42.292969 L 57.199219 41.703125 L 57.335938 41.183594 L 59.277344 38.65625 L 59.1875 38.023438 L 58.757812 38.292969 L 58.597656 37.777344 L 58.328125 37.867188 Z M 56.792969 40.214844 "/>
<path style=" stroke:none;fill-rule:evenodd;fill:rgb(81.959534%,1.568604%,16.078186%);fill-opacity:1;" d="M 70.40625 41.882812 L 71.308594 42.699219 L 71.582031 42.628906 L 72.574219 41.476562 L 72.347656 40.6875 L 71.425781 40.125 L 70.722656 40.191406 L 69.164062 37.867188 L 68.894531 37.753906 L 68.78125 38.203125 L 68.328125 38.070312 L 68.148438 38.566406 L 70.203125 41.34375 Z M 70.40625 41.882812 "/>
<path style=" stroke:none;fill-rule:evenodd;fill:rgb(0%,0%,0%);fill-opacity:1;" d="M 56.988281 42.09375 L 58.140625 42.722656 L 57.859375 44.003906 L 56.707031 43.375 Z M 56.988281 42.09375 "/>
<path style=" stroke:none;fill-rule:evenodd;fill:rgb(0%,0%,0%);fill-opacity:1;" d="M 51.621094 29.777344 L 51.203125 29.964844 L 55.894531 40.234375 L 56.390625 40.234375 Z M 57.148438 41.886719 L 56.8125 42.238281 L 57.023438 42.703125 L 57.433594 42.515625 Z M 57.148438 41.886719 "/>
<path style=" stroke:none;fill-rule:evenodd;fill:rgb(96.076965%,83.135986%,0.784302%);fill-opacity:1;" d="M 57.152344 42.457031 L 57.867188 42.847656 L 57.695312 43.644531 L 56.980469 43.253906 Z M 57.152344 42.457031 "/>
<path style=" stroke:none;fill-rule:evenodd;fill:rgb(4.31366%,27.058411%,73.332214%);fill-opacity:1;" d="M 63.679688 39.199219 L 66.523438 37.640625 L 69.867188 36.058594 L 70.5 35.089844 L 70.5 29.648438 L 56.949219 29.625 L 56.972656 35.15625 L 57.378906 35.8125 L 59.953125 37.234375 L 63.25 38.746094 Z M 63.679688 39.199219 "/>
<path style=" stroke:none;fill-rule:evenodd;fill:rgb(81.959534%,1.568604%,16.078186%);fill-opacity:1;" d="M 56.792969 22.964844 L 56.964844 23.464844 L 56.925781 29.816406 L 57.160156 30.078125 L 59.117188 30.3125 L 61.230469 30.003906 C 61.230469 30.003906 62.457031 30.191406 63.304688 30.324219 L 63.332031 30.449219 C 63.332031 30.449219 63.636719 30.402344 63.734375 30.386719 C 63.832031 30.402344 64.136719 30.449219 64.136719 30.449219 L 64.160156 30.324219 C 65.007812 30.191406 66.234375 30.003906 66.234375 30.003906 L 68.351562 30.3125 L 70.304688 30.078125 L 70.542969 29.816406 L 70.503906 23.464844 L 70.675781 22.964844 L 68.332031 22.984375 C 68.332031 22.984375 65.65625 23.011719 63.734375 23.03125 C 61.8125 23.011719 59.132812 22.984375 59.132812 22.984375 Z M 56.792969 22.964844 "/>
<path style=" stroke:none;fill-rule:evenodd;fill:rgb(0%,0%,0%);fill-opacity:1;" d="M 61.230469 30.003906 C 61.230469 30.003906 59.78125 29.648438 59.238281 28.933594 C 58.292969 29.785156 57.160156 30.078125 57.160156 30.078125 C 57.160156 30.078125 58.339844 30.613281 59.238281 31.292969 C 59.652344 30.699219 61.230469 30.003906 61.230469 30.003906 Z M 61.230469 30.003906 "/>
<path style=" stroke:none;fill-rule:evenodd;fill:rgb(0%,0%,0%);fill-opacity:1;" d="M 66.234375 30.003906 C 66.234375 30.003906 67.8125 30.699219 68.226562 31.292969 C 69.125 30.613281 70.304688 30.078125 70.304688 30.078125 C 70.304688 30.078125 69.171875 29.785156 68.226562 28.933594 C 67.6875 29.648438 66.234375 30.003906 66.234375 30.003906 Z M 66.234375 30.003906 "/>
<path style=" stroke:none;fill-rule:evenodd;fill:rgb(0%,0%,0%);fill-opacity:1;" d="M 63.730469 23.496094 L 63.324219 24.652344 L 62.214844 24.125 L 62.742188 25.238281 L 61.582031 25.648438 L 62.742188 26.058594 L 62.214844 27.167969 L 63.324219 26.636719 L 63.730469 27.796875 L 64.144531 26.636719 L 65.253906 27.167969 L 64.726562 26.058594 L 65.882812 25.648438 L 64.726562 25.238281 L 65.253906 24.125 L 64.144531 24.652344 Z M 63.730469 23.496094 "/>
<path style=" stroke:none;fill-rule:evenodd;fill:rgb(96.076965%,83.135986%,0.784302%);fill-opacity:1;" d="M 61.414062 32.121094 L 61.8125 31.6875 L 62.261719 32.136719 L 61.847656 32.550781 Z M 61.414062 32.121094 "/>
<path style=" stroke:none;fill-rule:evenodd;fill:rgb(96.076965%,83.135986%,0.784302%);fill-opacity:1;" d="M 66.09375 32.121094 L 65.660156 31.640625 L 65.214844 32.105469 L 65.613281 32.535156 Z M 66.09375 32.121094 "/>
<path style=" stroke:none;fill-rule:evenodd;fill:rgb(96.076965%,83.135986%,0.784302%);fill-opacity:1;" d="M 65.183594 33.015625 L 64.976562 33.476562 L 64.960938 34.753906 L 65.292969 35.472656 L 65.742188 35.664062 L 65.679688 33.988281 L 65.980469 32.824219 Z M 65.183594 33.015625 "/>
<path style=" stroke:none;fill-rule:evenodd;fill:rgb(96.076965%,83.135986%,0.784302%);fill-opacity:1;" d="M 61.78125 34.261719 L 61.78125 35.632812 L 62.179688 35.347656 L 62.453125 34.722656 L 62.5 33.636719 L 62.292969 32.984375 L 61.496094 32.839844 Z M 61.78125 34.261719 "/>
<path style=" stroke:none;fill-rule:evenodd;fill:rgb(96.076965%,83.135986%,0.784302%);fill-opacity:1;" d="M 67.304688 35.953125 L 67.289062 35.121094 L 67.992188 34.164062 L 68.824219 33.972656 L 67.898438 33.523438 L 67.003906 33.71875 L 66.539062 34.261719 L 66.492188 35.136719 L 67.148438 35.90625 Z M 67.304688 35.953125 "/>
<path style=" stroke:none;fill-rule:evenodd;fill:rgb(96.076965%,83.135986%,0.784302%);fill-opacity:1;" d="M 59.660156 36 L 59.898438 35.554688 L 60.28125 35.808594 L 60.742188 35.710938 L 61.046875 35.25 L 60.839844 34.820312 L 60.617188 34.644531 L 60.9375 34.46875 L 61.0625 33.941406 L 60.632812 33.445312 L 60.21875 33.507812 L 60.011719 33.667969 L 59.914062 33.285156 L 59.417969 33 L 59.003906 33.160156 L 58.796875 33.589844 L 58.910156 33.972656 L 58.476562 33.925781 L 58.125 34.261719 L 58.078125 34.707031 L 58.316406 34.996094 L 58.652344 35.105469 L 58.84375 35.089844 L 58.683594 35.488281 L 58.8125 35.886719 L 59.210938 36.113281 Z M 59.660156 36 "/>
<path style=" stroke:none;fill-rule:evenodd;fill:rgb(99.998474%,82.351685%,0%);fill-opacity:1;" d="M 63.734375 24.277344 L 63.996094 25.015625 L 64.703125 24.675781 L 64.367188 25.386719 L 65.105469 25.648438 L 64.367188 25.910156 L 64.703125 26.617188 L 63.996094 26.28125 L 63.730469 27.015625 L 63.46875 26.28125 L 62.761719 26.617188 L 63.097656 25.910156 L 62.363281 25.648438 L 63.097656 25.386719 L 62.761719 24.675781 L 63.46875 25.015625 Z M 63.734375 24.277344 "/>
<path style=" stroke:none;fill-rule:evenodd;fill:rgb(0%,0%,0%);fill-opacity:1;" d="M 61.402344 23.320312 C 61.335938 23.789062 58.980469 24.761719 58.980469 26.722656 C 58.980469 29.230469 61.328125 29.824219 61.328125 29.824219 L 61.230469 30.003906 L 60.660156 31.042969 C 60.660156 31.042969 61.628906 31.09375 62.144531 31.53125 C 62.765625 32.0625 62.703125 33.183594 62.703125 34 C 62.703125 34.644531 62.625 35.320312 62.292969 35.601562 C 61.851562 35.976562 61.550781 36.003906 61.550781 36.445312 C 61.550781 36.8125 61.832031 36.886719 62.292969 37.128906 C 62.882812 37.441406 62.855469 37.859375 63.730469 37.859375 C 64.609375 37.859375 64.582031 37.441406 65.171875 37.128906 C 65.632812 36.886719 65.914062 36.8125 65.914062 36.445312 C 65.914062 36.003906 65.617188 35.976562 65.171875 35.601562 C 64.84375 35.320312 64.761719 34.644531 64.761719 34 C 64.761719 33.183594 64.703125 32.0625 65.320312 31.53125 C 65.835938 31.09375 66.808594 31.042969 66.808594 31.042969 L 66.234375 30.003906 L 66.136719 29.824219 C 66.136719 29.824219 68.484375 29.230469 68.484375 26.722656 C 68.484375 24.761719 66.132812 23.789062 66.066406 23.320312 C 65.835938 24.132812 66.851562 25.25 66.851562 26.574219 C 66.851562 28.285156 65.589844 28.367188 65.589844 28.367188 C 65.292969 28.367188 65.171875 28.578125 65.054688 28.578125 C 64.808594 28.554688 64.691406 28.238281 64.445312 28.238281 C 64.214844 28.238281 64.035156 28.59375 63.730469 28.59375 C 63.425781 28.59375 63.253906 28.238281 63.023438 28.238281 C 62.777344 28.238281 62.660156 28.554688 62.410156 28.578125 C 62.292969 28.578125 62.175781 28.367188 61.878906 28.367188 C 61.878906 28.367188 60.617188 28.285156 60.617188 26.574219 C 60.617188 25.25 61.632812 24.132812 61.402344 23.320312 Z M 61.402344 23.320312 "/>
<path style=" stroke:none;fill-rule:evenodd;fill:rgb(99.998474%,82.351685%,0%);fill-opacity:1;" d="M 59.21875 29.289062 C 59.695312 29.835938 60.453125 30.046875 60.453125 30.046875 C 60.453125 30.046875 59.238281 30.949219 59.238281 30.949219 L 59.222656 30.96875 L 59.199219 30.945312 L 57.851562 30.101562 C 57.851562 30.101562 58.710938 29.804688 59.21875 29.289062 Z M 59.21875 29.289062 "/>
<path style=" stroke:none;fill-rule:evenodd;fill:rgb(99.998474%,82.351685%,0%);fill-opacity:1;" d="M 61.058594 24.03125 C 61.15625 24.238281 60.273438 25.523438 60.273438 26.574219 C 60.273438 27.863281 60.960938 28.621094 61.878906 28.621094 C 62.054688 28.621094 62.246094 28.859375 62.410156 28.859375 C 62.679688 28.859375 62.859375 28.5625 63.023438 28.5625 C 63.230469 28.5625 63.371094 28.886719 63.730469 28.886719 C 64.09375 28.886719 64.238281 28.5625 64.445312 28.5625 C 64.609375 28.5625 64.789062 28.859375 65.054688 28.859375 C 65.222656 28.859375 65.414062 28.621094 65.589844 28.621094 C 66.507812 28.621094 67.195312 27.863281 67.195312 26.574219 C 67.195312 25.523438 66.3125 24.238281 66.40625 24.03125 C 66.40625 24.03125 68.128906 25.265625 68.128906 26.722656 C 68.128906 29.066406 65.753906 29.644531 65.753906 29.644531 L 66.289062 30.851562 C 66.289062 30.851562 65.550781 30.960938 65.101562 31.324219 C 64.5 31.808594 64.492188 33.117188 64.492188 34 C 64.492188 35.039062 64.53125 35.480469 64.90625 35.765625 C 65.304688 36.0625 65.601562 36.128906 65.601562 36.429688 C 65.601562 36.695312 65.292969 36.804688 64.894531 36.980469 C 64.4375 37.183594 64.390625 37.53125 63.730469 37.53125 C 63.070312 37.53125 63.03125 37.183594 62.574219 36.980469 C 62.171875 36.804688 61.863281 36.695312 61.863281 36.429688 C 61.863281 36.128906 62.164062 36.0625 62.558594 35.765625 C 62.9375 35.480469 62.972656 35.039062 62.972656 34 C 62.972656 33.117188 62.964844 31.808594 62.367188 31.324219 C 61.917969 30.960938 61.179688 30.851562 61.179688 30.851562 L 61.714844 29.644531 C 61.714844 29.644531 59.335938 29.066406 59.335938 26.722656 C 59.335938 25.265625 61.058594 24.03125 61.058594 24.03125 Z M 61.058594 24.03125 "/>
<path style=" stroke:none;fill-rule:evenodd;fill:rgb(99.998474%,82.351685%,0%);fill-opacity:1;" d="M 68.25 29.289062 C 68.753906 29.804688 69.613281 30.101562 69.613281 30.101562 C 69.613281 30.101562 68.71875 30.546875 68.265625 30.945312 C 68.285156 31.027344 68.246094 30.964844 68.242188 30.96875 C 68.21875 30.992188 68.234375 30.957031 68.226562 30.949219 C 67.800781 30.460938 67.011719 30.046875 67.011719 30.046875 C 67.011719 30.046875 67.769531 29.835938 68.25 29.289062 Z M 68.25 29.289062 "/>
<path style=" stroke:none;fill-rule:evenodd;fill:rgb(0%,0%,0%);fill-opacity:1;" d="M 61.824219 31.546875 L 61.257812 32.109375 L 61.824219 32.675781 L 62.386719 32.109375 Z M 61.824219 31.546875 "/>
<path style=" stroke:none;fill-rule:evenodd;fill:rgb(0%,0%,0%);fill-opacity:1;" d="M 65.644531 31.546875 L 65.078125 32.109375 L 65.644531 32.675781 L 66.207031 32.109375 Z M 65.644531 31.546875 "/>
<path style=" stroke:none;fill-rule:evenodd;fill:rgb(99.998474%,82.351685%,0%);fill-opacity:1;" d="M 61.824219 31.816406 L 62.117188 32.109375 L 61.824219 32.410156 L 61.523438 32.109375 Z M 61.824219 31.816406 "/>
<path style=" stroke:none;fill-rule:evenodd;fill:rgb(99.998474%,82.351685%,0%);fill-opacity:1;" d="M 65.644531 31.816406 L 65.941406 32.109375 L 65.644531 32.410156 L 65.347656 32.109375 Z M 65.644531 31.816406 "/>
<path style=" stroke:none;fill-rule:evenodd;fill:rgb(0%,0%,0%);fill-opacity:1;" d="M 61.304688 32.675781 C 61.414062 32.953125 61.683594 33.808594 61.683594 34.839844 C 61.683594 35.554688 61.613281 35.929688 61.613281 35.929688 C 61.613281 35.929688 62.410156 35.695312 62.566406 34.886719 C 62.640625 34.507812 62.722656 33.117188 62.339844 32.878906 Z M 61.304688 32.675781 "/>
<path style=" stroke:none;fill-rule:evenodd;fill:rgb(0%,0%,0%);fill-opacity:1;" d="M 66.164062 32.675781 L 65.125 32.878906 C 64.742188 33.117188 64.824219 34.507812 64.898438 34.886719 C 65.058594 35.695312 65.855469 35.929688 65.855469 35.929688 C 65.855469 35.929688 65.785156 35.554688 65.785156 34.839844 C 65.785156 33.808594 66.050781 32.953125 66.164062 32.675781 Z M 66.164062 32.675781 "/>
<path style=" stroke:none;fill-rule:evenodd;fill:rgb(0%,0%,0%);fill-opacity:1;" d="M 59.371094 32.898438 C 59.328125 32.902344 59.28125 32.90625 59.234375 32.917969 C 58.878906 33.007812 58.660156 33.371094 58.75 33.730469 C 58.765625 33.785156 58.789062 33.835938 58.8125 33.882812 C 58.761719 33.867188 58.707031 33.855469 58.648438 33.851562 C 58.625 33.847656 58.601562 33.851562 58.582031 33.851562 C 58.242188 33.863281 57.960938 34.128906 57.9375 34.472656 C 57.910156 34.839844 58.191406 35.15625 58.558594 35.183594 C 58.613281 35.1875 58.667969 35.183594 58.71875 35.175781 C 58.6875 35.21875 58.660156 35.265625 58.640625 35.316406 C 58.5 35.660156 58.667969 36.054688 59.011719 36.191406 C 59.351562 36.328125 59.742188 36.160156 59.878906 35.816406 C 59.902344 35.765625 59.914062 35.710938 59.921875 35.660156 C 59.953125 35.703125 59.988281 35.742188 60.035156 35.78125 C 60.316406 36.015625 60.738281 35.980469 60.976562 35.695312 C 61.210938 35.414062 61.175781 34.992188 60.890625 34.757812 C 60.851562 34.722656 60.800781 34.691406 60.753906 34.667969 C 60.804688 34.652344 60.855469 34.628906 60.902344 34.601562 C 61.214844 34.40625 61.308594 33.988281 61.113281 33.675781 C 60.980469 33.460938 60.742188 33.351562 60.507812 33.367188 C 60.398438 33.375 60.289062 33.40625 60.195312 33.46875 C 60.144531 33.5 60.101562 33.53125 60.066406 33.570312 C 60.066406 33.515625 60.0625 33.460938 60.046875 33.40625 C 59.96875 33.09375 59.679688 32.886719 59.371094 32.898438 Z M 59.371094 32.898438 "/>
<path style=" stroke:none;fill-rule:evenodd;fill:rgb(99.998474%,82.351685%,0%);fill-opacity:1;" d="M 61.667969 32.988281 L 62.226562 33.101562 C 62.429688 33.386719 62.394531 33.847656 62.394531 34.488281 C 62.394531 35.132812 61.910156 35.378906 61.910156 35.378906 C 61.910156 33.828125 61.75 33.457031 61.667969 32.988281 Z M 61.667969 32.988281 "/>
<path style=" stroke:none;fill-rule:evenodd;fill:rgb(99.998474%,82.351685%,0%);fill-opacity:1;" d="M 65.800781 32.988281 C 65.714844 33.457031 65.554688 33.828125 65.554688 35.378906 C 65.554688 35.378906 65.070312 35.132812 65.070312 34.488281 C 65.070312 33.847656 65.035156 33.386719 65.242188 33.101562 Z M 65.800781 32.988281 "/>
<path style=" stroke:none;fill-rule:evenodd;fill:rgb(99.998474%,82.351685%,0%);fill-opacity:1;" d="M 59.410156 33.179688 C 59.652344 33.171875 59.875 33.332031 59.933594 33.574219 C 59.949219 33.632812 59.949219 33.6875 59.945312 33.746094 C 59.941406 33.792969 59.929688 33.832031 59.914062 33.875 C 59.832031 33.847656 59.746094 33.832031 59.65625 33.832031 C 59.429688 33.832031 59.230469 33.929688 59.089844 34.085938 C 59.054688 34.054688 59.023438 34.019531 58.996094 33.976562 C 58.964844 33.929688 58.941406 33.882812 58.925781 33.824219 C 58.855469 33.546875 59.027344 33.265625 59.304688 33.195312 C 59.339844 33.1875 59.375 33.183594 59.410156 33.179688 Z M 59.410156 33.179688 "/>
<path style=" stroke:none;fill-rule:evenodd;fill:rgb(0%,0%,0%);fill-opacity:1;" d="M 67.726562 33.394531 C 66.875 33.394531 66.25 34.054688 66.335938 34.863281 C 66.40625 35.542969 66.960938 36.117188 67.644531 36.277344 C 67.527344 36.085938 67.449219 35.875 67.425781 35.648438 C 67.339844 34.839844 67.964844 34.183594 68.820312 34.183594 C 68.957031 34.183594 69.085938 34.203125 69.214844 34.230469 C 68.914062 33.738281 68.34375 33.394531 67.726562 33.394531 Z M 67.726562 33.394531 "/>
<path style=" stroke:none;fill-rule:evenodd;fill:rgb(99.998474%,82.351685%,0%);fill-opacity:1;" d="M 60.453125 33.582031 C 60.617188 33.585938 60.777344 33.671875 60.875 33.824219 C 61.027344 34.066406 60.953125 34.390625 60.710938 34.542969 C 60.660156 34.574219 60.605469 34.59375 60.550781 34.605469 C 60.503906 34.617188 60.457031 34.617188 60.410156 34.613281 C 60.410156 34.605469 60.410156 34.601562 60.410156 34.59375 C 60.410156 34.285156 60.226562 34.015625 59.960938 33.898438 C 59.980469 33.851562 60 33.808594 60.03125 33.769531 C 60.066406 33.726562 60.109375 33.691406 60.15625 33.660156 C 60.246094 33.605469 60.351562 33.578125 60.453125 33.582031 Z M 60.453125 33.582031 "/>
<path style=" stroke:none;fill-rule:evenodd;fill:rgb(99.998474%,82.351685%,0%);fill-opacity:1;" d="M 67.726562 33.699219 C 67.996094 33.699219 68.253906 33.78125 68.476562 33.914062 C 67.640625 34.078125 67.039062 34.8125 67.128906 35.675781 C 66.863281 35.453125 66.667969 35.15625 66.632812 34.828125 C 66.566406 34.191406 67.027344 33.699219 67.726562 33.699219 Z M 67.726562 33.699219 "/>
<path style=" stroke:none;fill-rule:evenodd;fill:rgb(99.998474%,82.351685%,0%);fill-opacity:1;" d="M 58.773438 34.011719 C 58.832031 34.015625 58.886719 34.03125 58.941406 34.054688 C 58.984375 34.070312 59.023438 34.097656 59.058594 34.125 C 58.957031 34.253906 58.898438 34.414062 58.898438 34.59375 C 58.898438 34.730469 58.933594 34.859375 59 34.972656 C 58.953125 35 58.910156 35.019531 58.855469 35.035156 C 58.808594 35.046875 58.753906 35.050781 58.699219 35.046875 C 58.414062 35.027344 58.195312 34.78125 58.214844 34.496094 C 58.234375 34.207031 58.488281 33.992188 58.773438 34.011719 Z M 58.773438 34.011719 "/>
<path style=" stroke:none;fill-rule:evenodd;fill:rgb(99.998474%,82.351685%,0%);fill-opacity:1;" d="M 59.65625 34.085938 C 59.933594 34.085938 60.15625 34.316406 60.15625 34.59375 C 60.15625 34.871094 59.933594 35.097656 59.65625 35.097656 C 59.375 35.097656 59.152344 34.871094 59.152344 34.59375 C 59.152344 34.316406 59.375 34.085938 59.65625 34.085938 Z M 59.65625 34.085938 "/>
<path style=" stroke:none;fill-rule:evenodd;fill:rgb(99.998474%,82.351685%,0%);fill-opacity:1;" d="M 60.40625 34.664062 C 60.457031 34.671875 60.503906 34.683594 60.554688 34.703125 C 60.601562 34.722656 60.652344 34.746094 60.695312 34.78125 C 60.914062 34.964844 60.941406 35.292969 60.757812 35.511719 C 60.574219 35.734375 60.246094 35.761719 60.023438 35.578125 C 59.980469 35.539062 59.945312 35.492188 59.914062 35.445312 C 59.894531 35.40625 59.878906 35.363281 59.863281 35.320312 C 60.15625 35.234375 60.378906 34.976562 60.40625 34.664062 Z M 60.40625 34.664062 "/>
<path style=" stroke:none;fill-rule:evenodd;fill:rgb(99.998474%,82.351685%,0%);fill-opacity:1;" d="M 59.023438 35.015625 C 59.160156 35.214844 59.390625 35.351562 59.652344 35.351562 C 59.710938 35.351562 59.761719 35.34375 59.8125 35.332031 C 59.824219 35.378906 59.832031 35.425781 59.828125 35.476562 C 59.824219 35.53125 59.816406 35.585938 59.796875 35.636719 C 59.6875 35.902344 59.386719 36.03125 59.117188 35.925781 C 58.851562 35.820312 58.71875 35.515625 58.828125 35.25 C 58.847656 35.195312 58.878906 35.148438 58.914062 35.105469 C 58.945312 35.070312 58.984375 35.039062 59.023438 35.015625 Z M 59.023438 35.015625 "/>
<path style=" stroke:none;fill-rule:evenodd;fill:rgb(0%,0%,0%);fill-opacity:1;" d="M 62.832031 36.253906 C 62.367188 36.253906 62.066406 36.351562 62.066406 36.492188 C 62.066406 36.636719 62.367188 36.730469 62.832031 36.730469 C 62.957031 36.730469 63.097656 36.65625 63.097656 36.492188 C 63.097656 36.328125 62.957031 36.253906 62.832031 36.253906 Z M 62.832031 36.253906 "/>
<path style=" stroke:none;fill-rule:evenodd;fill:rgb(0%,0%,0%);fill-opacity:1;" d="M 64.632812 36.253906 C 64.507812 36.253906 64.367188 36.328125 64.367188 36.492188 C 64.367188 36.65625 64.507812 36.730469 64.632812 36.730469 C 65.101562 36.730469 65.398438 36.636719 65.398438 36.492188 C 65.398438 36.351562 65.101562 36.253906 64.632812 36.253906 Z M 64.632812 36.253906 "/>
<path style=" stroke:none;fill-rule:evenodd;fill:rgb(0%,0%,0%);fill-opacity:1;" d="M 78.230469 27.992188 L 77.421875 28.582031 L 77.511719 28.777344 C 77.511719 28.777344 77.363281 28.828125 77.296875 28.957031 C 77.230469 29.089844 77.339844 29.273438 77.339844 29.273438 C 77.339844 29.273438 76.574219 29.207031 76.453125 29.285156 C 76.34375 29.355469 76.5 29.886719 76.425781 30.335938 C 76.328125 30.964844 76.082031 30.910156 76.070312 31.03125 C 76.0625 31.152344 76.164062 31.335938 76.164062 31.335938 C 76.164062 31.335938 76.019531 31.378906 75.992188 31.441406 C 75.941406 31.539062 76.023438 31.714844 75.964844 31.832031 C 75.628906 32.488281 75.136719 33.457031 74.8125 34.097656 C 74.765625 34.1875 74.644531 34.222656 74.582031 34.339844 C 74.523438 34.453125 74.570312 34.613281 74.570312 34.613281 C 74.570312 34.613281 74.355469 34.628906 74.28125 34.773438 C 74.199219 34.929688 74.246094 35.144531 74.246094 35.144531 C 74.246094 35.144531 74.109375 35.160156 74.042969 35.292969 C 73.972656 35.433594 74.09375 35.507812 74.0625 35.570312 C 73.621094 36.429688 73.105469 37.445312 72.789062 38.0625 C 72.675781 38.289062 72.269531 38.335938 72.035156 38.796875 C 71.804688 39.246094 72.132812 39.578125 72.132812 39.578125 C 72.132812 39.578125 71.792969 39.605469 71.703125 39.785156 C 71.609375 39.964844 71.683594 40.238281 71.929688 40.363281 C 72.171875 40.488281 72.441406 40.386719 72.53125 40.207031 C 72.621094 40.03125 72.441406 39.738281 72.441406 39.738281 C 72.441406 39.738281 72.902344 39.804688 73.128906 39.355469 C 73.363281 38.890625 73.164062 38.539062 73.28125 38.3125 C 73.597656 37.695312 74.113281 36.679688 74.550781 35.820312 C 74.585938 35.757812 74.714844 35.8125 74.785156 35.671875 C 74.851562 35.539062 74.785156 35.417969 74.785156 35.417969 C 74.785156 35.417969 74.984375 35.332031 75.066406 35.175781 C 75.140625 35.027344 75.027344 34.84375 75.027344 34.84375 C 75.027344 34.84375 75.183594 34.789062 75.242188 34.675781 C 75.300781 34.554688 75.257812 34.4375 75.300781 34.347656 C 75.628906 33.707031 76.121094 32.742188 76.457031 32.085938 C 76.515625 31.96875 76.710938 31.925781 76.757812 31.828125 C 76.789062 31.769531 76.742188 31.625 76.742188 31.625 C 76.742188 31.625 76.953125 31.605469 77.042969 31.527344 C 77.132812 31.449219 76.949219 31.277344 77.394531 30.828125 C 77.71875 30.507812 78.234375 30.316406 78.230469 30.1875 C 78.222656 30.046875 77.714844 29.464844 77.714844 29.464844 C 77.714844 29.464844 77.929688 29.445312 77.996094 29.316406 C 78.0625 29.183594 78.019531 29.03125 78.019531 29.03125 L 78.230469 28.992188 Z M 70.632812 42.414062 C 70.527344 42.421875 70.464844 42.484375 70.441406 42.527344 C 70.410156 42.589844 70.40625 42.671875 70.441406 42.746094 C 70.441406 42.746094 70.1875 42.667969 70.101562 42.710938 C 70.019531 42.753906 70.101562 43.953125 70.101562 43.953125 C 70.101562 43.953125 71.117188 43.3125 71.101562 43.222656 C 71.085938 43.125 70.871094 42.960938 70.871094 42.960938 C 70.953125 42.949219 71.019531 42.898438 71.050781 42.835938 C 71.085938 42.769531 71.089844 42.582031 70.859375 42.464844 C 70.769531 42.417969 70.695312 42.40625 70.632812 42.414062 Z M 70.632812 42.414062 "/>
<path style=" stroke:none;fill-rule:evenodd;fill:rgb(0%,0%,0%);fill-opacity:1;" d="M 62.769531 14.460938 C 62.515625 14.460938 62.140625 14.46875 61.921875 14.613281 C 61.722656 14.746094 61.738281 14.921875 61.667969 14.980469 C 61.5 15.125 61.21875 15.121094 61.082031 15.121094 C 60.195312 15.121094 60.164062 16.066406 60.164062 16.066406 C 60.164062 16.066406 60.390625 15.722656 60.789062 15.722656 C 61.453125 15.722656 61.957031 16.085938 61.957031 16.222656 C 61.957031 16.277344 61.890625 16.289062 61.886719 16.289062 C 61.453125 16.289062 60.796875 16.039062 60.449219 16.027344 L 60.449219 16.164062 C 60.453125 16.167969 60.457031 16.171875 60.460938 16.175781 C 60.457031 16.175781 60.453125 16.171875 60.449219 16.171875 L 60.449219 16.199219 C 61.226562 16.46875 62.011719 16.851562 62.011719 18.539062 C 62.011719 19.601562 61.886719 20.683594 61.355469 21.539062 C 61.164062 21.839844 60.898438 22.097656 60.574219 22.328125 C 60.429688 22.285156 59.757812 22.074219 59.28125 21.8125 C 58.449219 21.347656 58.015625 20.882812 57.027344 20.839844 L 57.027344 20.085938 C 57.027344 19.683594 57.171875 19.320312 57.171875 18.933594 C 56.753906 18.824219 55.59375 17.40625 54.523438 16.777344 C 52.949219 17.796875 51.734375 19.46875 51.734375 20.238281 C 51.734375 20.238281 51.78125 36.773438 51.734375 42.53125 C 51.734375 42.863281 51.53125 43.332031 51.53125 43.332031 C 52.105469 43.089844 53.160156 41.648438 53.382812 41.101562 L 53.382812 41.363281 C 54.25 40.96875 54.882812 39.929688 55.167969 39.390625 C 55.175781 39.46875 55.1875 39.664062 55.1875 39.664062 C 55.960938 38.984375 56.949219 34.96875 56.949219 34.96875 L 56.898438 34.125 C 56.898438 34.125 56.214844 37.402344 55.4375 38.078125 L 55.4375 23.957031 L 56.054688 24.527344 L 56.984375 23.65625 L 56.984375 22.996094 L 56.160156 23.765625 L 56.160156 21.765625 C 56.285156 21.578125 56.367188 21.4375 56.429688 21.328125 C 56.5625 21.558594 56.996094 22.273438 57.503906 22.714844 C 57.585938 22.375 58.136719 22.050781 58.136719 22.050781 C 58.136719 22.050781 58.332031 22.585938 58.632812 22.71875 C 58.742188 22.53125 59.375 22.117188 59.375 22.117188 C 59.375 22.117188 58.832031 22.199219 58.613281 22.40625 C 58.425781 22.363281 58.375 21.617188 58.375 21.617188 C 58.375 21.617188 57.578125 22.007812 57.441406 22.285156 C 57.289062 22.242188 57.050781 21.644531 56.960938 21.398438 C 57.097656 21.382812 57.296875 21.367188 57.554688 21.367188 C 57.78125 21.367188 58.070312 21.476562 58.375 21.617188 C 58.710938 21.777344 59.0625 21.976562 59.375 22.117188 C 59.773438 22.296875 60.378906 22.335938 60.558594 22.34375 C 60.355469 22.484375 60.132812 22.613281 59.890625 22.734375 C 59.890625 22.734375 60.84375 22.726562 61.515625 22.394531 C 61.753906 22.238281 62 22.085938 62.214844 21.90625 C 62.121094 22.160156 61.976562 22.464844 61.753906 22.722656 C 62.738281 22.636719 63.226562 22.074219 63.367188 21.886719 C 63.433594 22.054688 63.550781 22.328125 63.730469 22.5625 C 63.914062 22.328125 64.035156 22.054688 64.097656 21.886719 C 64.238281 22.074219 64.726562 22.636719 65.710938 22.722656 C 65.488281 22.464844 65.34375 22.160156 65.253906 21.90625 C 65.464844 22.085938 65.714844 22.238281 65.953125 22.394531 C 66.621094 22.726562 67.574219 22.734375 67.574219 22.734375 C 67.335938 22.613281 67.109375 22.484375 66.90625 22.34375 C 67.074219 22.335938 67.6875 22.300781 68.09375 22.117188 C 68.40625 21.976562 68.753906 21.777344 69.089844 21.617188 C 69.394531 21.476562 69.6875 21.367188 69.914062 21.367188 C 70.171875 21.367188 70.367188 21.382812 70.507812 21.398438 C 70.414062 21.644531 70.179688 22.242188 70.027344 22.285156 C 69.886719 22.007812 69.089844 21.617188 69.089844 21.617188 C 69.089844 21.617188 69.042969 22.363281 68.851562 22.40625 C 68.632812 22.199219 68.09375 22.117188 68.09375 22.117188 C 68.09375 22.117188 68.726562 22.53125 68.832031 22.71875 C 69.132812 22.585938 69.328125 22.050781 69.328125 22.050781 C 69.328125 22.050781 69.878906 22.375 69.964844 22.714844 C 70.472656 22.273438 70.902344 21.558594 71.039062 21.328125 C 71.101562 21.441406 71.1875 21.589844 71.308594 21.765625 L 71.308594 23.765625 L 70.480469 22.996094 L 70.480469 23.65625 L 71.414062 24.527344 L 72.027344 23.957031 L 72.027344 38.078125 C 71.25 37.402344 70.566406 34.125 70.566406 34.125 L 70.515625 34.96875 C 70.515625 34.96875 71.503906 38.984375 72.277344 39.664062 C 72.277344 39.664062 72.292969 39.46875 72.296875 39.390625 C 72.582031 39.929688 73.21875 40.96875 74.085938 41.363281 L 74.085938 41.101562 C 74.304688 41.648438 75.359375 43.089844 75.933594 43.332031 C 75.933594 43.332031 75.734375 42.863281 75.734375 42.53125 C 75.6875 36.773438 75.734375 20.238281 75.734375 20.238281 C 75.734375 19.46875 74.515625 17.796875 72.941406 16.777344 C 71.871094 17.40625 70.710938 18.824219 70.296875 18.933594 C 70.296875 19.320312 70.441406 19.683594 70.441406 20.085938 L 70.441406 20.835938 C 69.453125 20.882812 69.015625 21.347656 68.183594 21.8125 C 67.707031 22.078125 67.023438 22.289062 66.886719 22.328125 C 66.566406 22.097656 66.300781 21.839844 66.113281 21.539062 C 65.660156 20.8125 65.46875 19.917969 65.46875 19.011719 C 65.46875 18.628906 65.898438 18.195312 65.898438 17.886719 C 65.898438 17.417969 65.855469 17.136719 65.855469 17.136719 C 66.007812 17.15625 66.273438 17.429688 66.273438 17.429688 C 66.273438 17.429688 66.261719 16.648438 66.019531 16.515625 C 66.019531 16.515625 66.117188 16.414062 66.476562 16.402344 C 66.375 16.144531 65.875 15.832031 65.875 15.832031 C 65.902344 15.789062 65.945312 15.75 66.007812 15.71875 C 66.132812 15.648438 66.308594 15.601562 66.445312 15.574219 C 66.300781 15.546875 66.132812 15.5 65.953125 15.441406 C 65.535156 15.304688 65.046875 15.105469 64.589844 14.886719 C 63.757812 14.488281 63.121094 14.460938 62.769531 14.460938 Z M 62.789062 14.691406 C 62.867188 14.691406 62.9375 14.695312 63 14.695312 C 63.816406 14.695312 64.386719 15.066406 65.160156 15.40625 C 65.359375 15.496094 65.546875 15.570312 65.710938 15.625 C 65.609375 15.71875 65.527344 15.808594 65.503906 15.886719 C 65.503906 15.886719 65.851562 15.953125 66.007812 16.242188 C 66.007812 16.242188 65.679688 16.277344 65.625 16.472656 C 65.808594 16.484375 65.992188 16.714844 65.992188 16.941406 L 65.527344 16.792969 C 65.527344 16.792969 65.640625 17.316406 65.640625 17.886719 C 65.640625 18.175781 65.21875 18.519531 65.21875 19.011719 C 65.21875 20.558594 65.609375 21.152344 65.886719 21.628906 C 65.996094 21.816406 66.082031 22.03125 66.265625 22.195312 C 65.46875 21.769531 64.875 21.238281 64.875 20.746094 L 64.875 18.878906 L 64.667969 18.878906 L 64.667969 20.746094 C 64.667969 21.101562 64.753906 21.269531 64.753906 21.269531 C 64.878906 21.664062 65.132812 22.273438 65.289062 22.519531 C 64.554688 22.125 64.183594 21.628906 64.183594 21.445312 L 64.183594 18.878906 L 63.976562 18.878906 L 63.976562 21.480469 L 64.015625 21.660156 C 63.925781 21.792969 63.8125 21.949219 63.730469 22.003906 C 63.652344 21.949219 63.539062 21.792969 63.449219 21.660156 L 63.492188 21.480469 L 63.492188 18.878906 L 63.285156 18.878906 L 63.285156 21.445312 C 63.285156 21.628906 62.910156 22.125 62.175781 22.519531 C 62.332031 22.273438 62.585938 21.664062 62.710938 21.269531 C 62.710938 21.269531 62.800781 21.101562 62.800781 20.746094 L 62.800781 18.878906 L 62.59375 18.878906 L 62.59375 20.746094 C 62.59375 21.238281 62 21.769531 61.203125 22.195312 C 61.386719 22.03125 61.472656 21.816406 61.578125 21.628906 C 61.882812 21.105469 62.257812 20.441406 62.257812 18.554688 C 62.257812 17.84375 62.152344 17.363281 61.96875 17.023438 C 61.914062 16.914062 61.839844 16.617188 62.265625 16.617188 C 62.484375 16.617188 62.988281 17.007812 62.988281 17.007812 C 62.988281 17.007812 62.96875 16.695312 62.710938 16.519531 C 62.667969 16.488281 62.597656 16.394531 62.597656 16.308594 C 62.597656 16.246094 62.710938 16.085938 62.796875 16.046875 C 62.855469 16.023438 61.929688 15.859375 61.929688 15.441406 C 61.929688 15.351562 61.984375 15.292969 62.175781 15.292969 C 62.429688 15.292969 62.839844 15.597656 63.203125 15.597656 C 63.472656 15.597656 63.578125 15.53125 63.855469 15.53125 C 64.191406 15.53125 64.894531 16.167969 65.136719 16.148438 C 64.867188 15.976562 64.433594 15.339844 63.773438 15.339844 C 63.546875 15.339844 63.339844 15.390625 63.125 15.390625 C 62.851562 15.390625 62.585938 15.136719 62.289062 15.136719 C 62.089844 15.136719 61.871094 15.148438 61.835938 15.097656 C 61.78125 15.007812 61.832031 14.957031 61.886719 14.882812 C 61.984375 14.742188 62.265625 14.703125 62.542969 14.695312 C 62.628906 14.691406 62.710938 14.691406 62.789062 14.691406 Z M 54.523438 17.492188 L 54.523438 17.496094 C 54.523438 17.496094 55.988281 18.835938 56.480469 19.007812 L 56.496094 19.460938 L 56.496094 20.789062 C 56.140625 20.664062 55.691406 20.078125 55.476562 19.769531 L 55.476562 19.585938 C 55.476562 19.414062 55.574219 19.289062 55.648438 19.222656 L 55.433594 19.148438 C 55.351562 19.238281 55.265625 19.378906 55.265625 19.558594 L 55.265625 19.664062 L 55.195312 19.734375 L 55.160156 19.777344 L 54.625 20.351562 L 53.992188 19.398438 L 53.992188 19.164062 C 53.992188 19.007812 54.113281 18.832031 54.214844 18.714844 L 54.003906 18.636719 C 53.898438 18.773438 53.785156 18.960938 53.785156 19.136719 L 53.785156 19.324219 C 53.636719 19.476562 53.0625 20.070312 53.0625 20.070312 C 53.0625 20.070312 52.773438 19.449219 52.695312 19.28125 C 53.136719 18.667969 53.851562 17.984375 54.523438 17.492188 Z M 72.941406 17.492188 C 73.613281 17.984375 74.332031 18.671875 74.773438 19.28125 C 74.695312 19.449219 74.40625 20.070312 74.40625 20.070312 C 74.40625 20.070312 73.828125 19.476562 73.679688 19.324219 L 73.679688 19.136719 C 73.679688 18.960938 73.570312 18.773438 73.460938 18.636719 L 73.25 18.714844 C 73.351562 18.832031 73.472656 19.007812 73.472656 19.164062 L 73.472656 19.398438 L 72.84375 20.351562 L 72.308594 19.777344 L 72.273438 19.734375 L 72.203125 19.664062 L 72.203125 19.558594 C 72.203125 19.378906 72.113281 19.238281 72.03125 19.144531 L 71.816406 19.222656 C 71.890625 19.289062 71.992188 19.414062 71.992188 19.585938 L 71.992188 19.769531 C 71.773438 20.078125 71.324219 20.664062 70.96875 20.789062 L 70.96875 19.460938 L 70.988281 19.007812 C 71.480469 18.835938 72.941406 17.496094 72.941406 17.496094 Z M 52.4375 19.6875 L 52.773438 20.296875 L 52.773438 21.390625 L 52.265625 21.867188 L 52.265625 20.238281 C 52.265625 20.082031 52.328125 19.894531 52.4375 19.6875 Z M 75.027344 19.6875 C 75.136719 19.894531 75.203125 20.082031 75.203125 20.238281 L 75.203125 21.867188 L 74.691406 21.390625 L 74.691406 20.296875 Z M 53.773438 19.828125 L 54.359375 20.71875 L 54.359375 21.394531 L 53.773438 21.945312 Z M 73.691406 19.828125 L 73.691406 21.945312 L 73.105469 21.394531 L 73.105469 20.71875 Z M 53.566406 19.988281 L 53.566406 21.941406 L 52.980469 21.394531 L 52.980469 20.601562 Z M 73.898438 19.988281 L 74.484375 20.601562 L 74.484375 21.394531 L 73.898438 21.941406 Z M 55.367188 20.128906 C 55.453125 20.277344 55.859375 20.929688 56.242188 21.121094 C 56.105469 21.3125 55.75 21.78125 55.367188 21.988281 Z M 72.101562 20.128906 L 72.101562 21.988281 C 71.714844 21.78125 71.359375 21.3125 71.222656 21.121094 C 71.605469 20.929688 72.011719 20.277344 72.101562 20.128906 Z M 55.15625 20.222656 L 55.15625 21.941406 L 54.570312 21.394531 L 54.570312 20.789062 Z M 72.308594 20.222656 L 72.894531 20.789062 L 72.894531 21.394531 L 72.308594 21.941406 Z M 52.773438 22.054688 L 52.773438 23.769531 L 52.265625 23.292969 L 52.265625 22.53125 Z M 74.691406 22.054688 L 75.203125 22.53125 L 75.203125 23.292969 L 74.691406 23.769531 Z M 52.980469 22.058594 L 53.316406 22.371094 L 53.566406 22.605469 L 53.566406 23.21875 L 53.316406 23.453125 L 52.980469 23.765625 Z M 54.359375 22.058594 L 54.359375 23.765625 L 54.023438 23.453125 L 53.773438 23.214844 L 53.773438 22.609375 L 54.023438 22.371094 Z M 54.570312 22.058594 L 55.15625 22.609375 L 55.15625 23.214844 L 54.902344 23.457031 L 54.570312 23.765625 Z M 55.949219 22.058594 L 55.949219 23.769531 L 55.617188 23.457031 L 55.363281 23.21875 L 55.363281 22.648438 C 55.566406 22.523438 55.769531 22.296875 55.949219 22.058594 Z M 71.511719 22.058594 C 71.695312 22.296875 71.898438 22.523438 72.101562 22.648438 L 72.101562 23.21875 L 71.847656 23.457031 L 71.511719 23.769531 Z M 72.894531 22.058594 L 72.894531 23.765625 L 72.5625 23.457031 L 72.308594 23.214844 L 72.308594 22.609375 Z M 73.105469 22.058594 L 73.4375 22.371094 L 73.691406 22.609375 L 73.691406 23.214844 L 73.4375 23.453125 L 73.105469 23.765625 Z M 74.484375 22.058594 L 74.484375 23.765625 L 74.148438 23.453125 L 73.898438 23.21875 L 73.898438 22.605469 L 74.148438 22.371094 Z M 53.847656 23.949219 L 54.464844 24.527344 L 55.085938 23.953125 L 55.085938 38.078125 C 55.085938 38.078125 55.128906 38.777344 55.15625 39.234375 C 54.882812 39.511719 53.847656 40.558594 53.847656 40.558594 Z M 73.617188 23.949219 L 73.617188 40.558594 C 73.617188 40.558594 72.582031 39.511719 72.308594 39.234375 C 72.335938 38.777344 72.378906 38.074219 72.378906 38.074219 L 72.378906 23.953125 L 73 24.527344 Z M 53.492188 23.953125 L 53.492188 40.03125 C 53.492188 40.484375 52.664062 41.542969 52.261719 41.785156 L 52.261719 23.957031 L 52.875 24.527344 Z M 73.972656 23.953125 L 74.589844 24.527344 L 75.199219 23.957031 L 75.199219 41.785156 C 74.800781 41.542969 73.972656 40.484375 73.972656 40.03125 Z M 58.59375 36.582031 C 58.59375 36.582031 58 37.789062 57.765625 38.007812 C 57.765625 38.007812 57.921875 38.027344 58.097656 38.023438 C 57.992188 38.179688 57.164062 39.371094 56.90625 39.820312 C 56.664062 40.238281 56.492188 40.054688 56.117188 40.054688 C 55.808594 40.054688 55.109375 40.546875 54.992188 40.746094 C 54.871094 40.953125 54.78125 41.207031 54.78125 41.417969 C 54.78125 41.648438 55.027344 41.964844 55.027344 41.964844 C 55.050781 41.855469 55.097656 41.816406 55.097656 41.816406 C 55.097656 41.816406 55.738281 42.613281 55.835938 42.71875 C 55.90625 42.800781 56.234375 42.851562 56.351562 42.746094 C 56.640625 42.484375 56.921875 42.300781 57.179688 41.921875 C 57.308594 41.726562 57.320312 41.5 57.472656 41.289062 C 57.980469 40.589844 58.996094 39.242188 59.226562 38.933594 C 59.242188 39.019531 59.257812 39.09375 59.269531 39.179688 C 59.535156 38.648438 60.796875 37.636719 60.796875 37.636719 L 60.445312 37.40625 C 60.445312 37.40625 59.683594 38.292969 59.4375 38.457031 C 59.4375 38.457031 59.332031 38.015625 59.269531 37.863281 C 59.269531 37.863281 58.980469 38.082031 58.820312 38.085938 C 58.820312 38.085938 58.773438 37.789062 58.734375 37.59375 C 58.535156 37.726562 58.199219 37.699219 58.199219 37.699219 C 58.492188 37.558594 58.839844 36.707031 58.839844 36.707031 L 58.59375 36.582031 L 58.59375 36.585938 Z M 68.871094 36.582031 L 68.621094 36.707031 C 68.621094 36.707031 68.96875 37.558594 69.265625 37.699219 C 69.265625 37.699219 68.929688 37.726562 68.730469 37.59375 C 68.691406 37.789062 68.644531 38.085938 68.644531 38.085938 C 68.484375 38.082031 68.195312 37.863281 68.195312 37.863281 C 68.132812 38.015625 68.027344 38.457031 68.027344 38.457031 C 67.777344 38.292969 67.019531 37.40625 67.019531 37.40625 L 66.667969 37.636719 C 66.667969 37.636719 67.929688 38.648438 68.195312 39.179688 C 68.207031 39.09375 68.222656 39.019531 68.238281 38.933594 C 68.46875 39.242188 69.480469 40.589844 69.992188 41.289062 C 70.144531 41.5 70.152344 41.726562 70.285156 41.921875 C 70.542969 42.300781 70.824219 42.484375 71.113281 42.746094 C 71.226562 42.851562 71.554688 42.800781 71.628906 42.71875 C 71.722656 42.613281 72.367188 41.816406 72.367188 41.816406 C 72.367188 41.816406 72.410156 41.855469 72.4375 41.964844 C 72.4375 41.964844 72.683594 41.648438 72.683594 41.417969 C 72.683594 41.207031 72.589844 40.953125 72.472656 40.746094 C 72.355469 40.546875 71.65625 40.054688 71.347656 40.054688 C 70.972656 40.054688 70.800781 40.238281 70.558594 39.820312 C 70.300781 39.371094 69.472656 38.179688 69.367188 38.023438 C 69.542969 38.027344 69.695312 38.007812 69.695312 38.007812 C 69.464844 37.789062 68.871094 36.582031 68.871094 36.582031 Z M 58.507812 37.945312 C 58.507812 37.945312 58.503906 38.355469 58.632812 38.5 L 59.085938 38.1875 C 59.085938 38.1875 59.113281 38.339844 59.152344 38.542969 C 58.960938 38.804688 57.851562 40.320312 57.300781 41.0625 C 57.164062 41.246094 57.050781 41.714844 57.050781 41.714844 C 57.050781 41.714844 56.851562 41.617188 56.851562 41.449219 C 56.851562 41.28125 56.871094 41.078125 56.871094 41.078125 C 56.871094 41.078125 56.722656 41.25 56.464844 41.25 C 56.464844 41.042969 56.863281 40.820312 56.878906 40.527344 C 56.574219 40.753906 56.308594 40.636719 55.957031 40.746094 C 55.574219 40.863281 55.46875 41.023438 55.351562 41.019531 C 55.28125 41.015625 55.21875 40.894531 55.246094 40.820312 C 55.289062 40.695312 55.765625 40.34375 56.097656 40.277344 C 56.175781 40.265625 56.800781 40.414062 56.925781 40.222656 C 57.445312 39.421875 58.285156 38.121094 58.367188 37.996094 C 58.421875 37.984375 58.46875 37.96875 58.507812 37.945312 Z M 68.953125 37.945312 C 68.992188 37.96875 69.042969 37.984375 69.097656 37.996094 C 69.175781 38.121094 70.019531 39.421875 70.539062 40.21875 C 70.664062 40.414062 71.289062 40.261719 71.367188 40.277344 C 71.699219 40.34375 72.171875 40.695312 72.21875 40.820312 C 72.246094 40.894531 72.183594 41.015625 72.113281 41.019531 C 71.996094 41.023438 71.890625 40.863281 71.503906 40.746094 C 71.152344 40.636719 70.890625 40.753906 70.585938 40.527344 C 70.601562 40.820312 71 41.042969 71 41.25 C 70.742188 41.25 70.59375 41.078125 70.59375 41.078125 C 70.59375 41.078125 70.613281 41.277344 70.613281 41.445312 C 70.613281 41.617188 70.414062 41.710938 70.414062 41.710938 C 70.414062 41.710938 70.300781 41.246094 70.164062 41.0625 C 69.613281 40.320312 68.503906 38.804688 68.308594 38.542969 C 68.347656 38.339844 68.378906 38.1875 68.378906 38.1875 L 68.828125 38.5 C 68.957031 38.355469 68.953125 37.945312 68.953125 37.945312 Z M 62.117188 38.242188 C 62.117188 38.242188 59.652344 43.914062 57.460938 44.785156 C 57.460938 44.785156 58.414062 45.191406 59.582031 45.796875 C 59.753906 45.886719 59.929688 45.980469 60.109375 46.078125 C 60.253906 45.902344 60.410156 45.703125 60.5625 45.5 C 61.261719 44.5625 61.945312 43.480469 61.945312 43.480469 C 61.992188 43.761719 61.625 44.628906 61 45.703125 C 60.875 45.914062 60.75 46.132812 60.605469 46.359375 C 60.765625 46.449219 60.921875 46.539062 61.078125 46.636719 C 62.238281 47.332031 63.328125 48.132812 63.730469 48.871094 C 64.132812 48.132812 65.222656 47.332031 66.378906 46.636719 C 66.539062 46.539062 66.695312 46.449219 66.851562 46.359375 C 66.710938 46.132812 66.582031 45.914062 66.460938 45.703125 C 65.835938 44.628906 65.464844 43.761719 65.515625 43.480469 C 65.515625 43.480469 66.199219 44.5625 66.898438 45.5 C 67.050781 45.703125 67.207031 45.902344 67.351562 46.078125 C 67.53125 45.980469 67.707031 45.886719 67.875 45.796875 C 69.046875 45.191406 70 44.785156 70 44.785156 C 67.808594 43.914062 65.34375 38.242188 65.34375 38.242188 L 64.976562 38.347656 C 64.976562 38.347656 66.945312 43.25 68.871094 44.730469 C 68.433594 44.863281 67.921875 45.050781 67.390625 45.277344 C 66.75 44.523438 66.085938 43.511719 65.546875 42.609375 C 64.964844 41.632812 64.488281 39.925781 64.488281 39.925781 C 64.21875 40.582031 64.792969 43.875 65.953125 45.960938 C 64.992188 46.460938 64.140625 47.003906 63.730469 47.445312 C 63.320312 47.003906 62.464844 46.460938 61.503906 45.960938 C 62.667969 43.875 63.242188 40.582031 62.972656 39.925781 C 62.972656 39.925781 62.496094 41.632812 61.914062 42.609375 C 61.375 43.511719 60.710938 44.523438 60.066406 45.277344 C 59.539062 45.050781 59.027344 44.863281 58.589844 44.730469 C 60.515625 43.25 62.480469 38.347656 62.480469 38.347656 Z M 55.683594 40.964844 C 55.699219 40.96875 55.71875 40.976562 55.730469 40.992188 C 55.757812 41.019531 55.753906 41.0625 55.726562 41.085938 L 55.523438 41.265625 C 55.496094 41.289062 55.453125 41.285156 55.429688 41.253906 C 55.402344 41.226562 55.40625 41.183594 55.433594 41.160156 L 55.636719 40.980469 C 55.648438 40.96875 55.667969 40.964844 55.683594 40.964844 Z M 71.800781 40.964844 C 71.816406 40.964844 71.832031 40.96875 71.847656 40.980469 L 72.050781 41.160156 C 72.078125 41.183594 72.078125 41.226562 72.054688 41.253906 C 72.03125 41.285156 71.988281 41.289062 71.960938 41.265625 L 71.757812 41.085938 C 71.730469 41.0625 71.726562 41.019531 71.753906 40.992188 C 71.765625 40.976562 71.78125 40.96875 71.800781 40.964844 Z M 55.898438 41.144531 C 55.949219 41.140625 56.003906 41.164062 56.039062 41.207031 C 56.101562 41.277344 56.097656 41.375 56.035156 41.433594 L 55.539062 41.867188 C 55.472656 41.921875 55.371094 41.910156 55.308594 41.839844 C 55.246094 41.769531 55.25 41.667969 55.316406 41.609375 L 55.8125 41.179688 C 55.835938 41.160156 55.867188 41.148438 55.898438 41.144531 Z M 71.546875 41.144531 C 71.558594 41.144531 71.574219 41.144531 71.585938 41.144531 C 71.617188 41.148438 71.648438 41.160156 71.671875 41.179688 L 72.167969 41.609375 C 72.230469 41.667969 72.234375 41.769531 72.175781 41.839844 C 72.113281 41.910156 72.011719 41.921875 71.945312 41.867188 L 71.449219 41.433594 C 71.386719 41.375 71.382812 41.277344 71.445312 41.207031 C 71.472656 41.175781 71.507812 41.152344 71.546875 41.144531 Z M 56.179688 41.480469 C 56.230469 41.476562 56.285156 41.496094 56.324219 41.542969 C 56.386719 41.613281 56.382812 41.710938 56.316406 41.769531 L 55.820312 42.199219 C 55.753906 42.257812 55.652344 42.246094 55.59375 42.175781 C 55.53125 42.105469 55.535156 42.003906 55.601562 41.945312 L 56.09375 41.515625 C 56.117188 41.496094 56.148438 41.484375 56.179688 41.480469 Z M 71.265625 41.480469 C 71.277344 41.476562 71.292969 41.480469 71.304688 41.480469 C 71.335938 41.480469 71.363281 41.496094 71.386719 41.515625 L 71.882812 41.945312 C 71.949219 42 71.953125 42.105469 71.890625 42.175781 C 71.828125 42.246094 71.730469 42.257812 71.664062 42.199219 L 71.164062 41.765625 C 71.101562 41.710938 71.097656 41.613281 71.160156 41.542969 C 71.1875 41.507812 71.226562 41.488281 71.265625 41.480469 Z M 56.496094 41.808594 C 56.546875 41.804688 56.597656 41.820312 56.636719 41.867188 C 56.699219 41.9375 56.695312 42.039062 56.628906 42.09375 L 56.132812 42.523438 C 56.070312 42.582031 55.96875 42.570312 55.910156 42.5 C 55.847656 42.429688 55.847656 42.328125 55.914062 42.273438 L 56.410156 41.839844 C 56.433594 41.820312 56.464844 41.808594 56.496094 41.808594 Z M 70.949219 41.808594 C 70.960938 41.804688 70.976562 41.804688 70.988281 41.808594 C 71.019531 41.808594 71.046875 41.820312 71.070312 41.839844 L 71.570312 42.273438 C 71.632812 42.328125 71.636719 42.429688 71.574219 42.5 C 71.511719 42.570312 71.414062 42.582031 71.347656 42.523438 L 70.851562 42.09375 C 70.789062 42.039062 70.785156 41.9375 70.847656 41.867188 C 70.875 41.832031 70.910156 41.8125 70.949219 41.808594 Z M 70.949219 41.808594 "/>
<path style=" stroke:none;fill-rule:evenodd;fill:rgb(96.076965%,83.135986%,0.784302%);fill-opacity:1;" d="M 78.078125 28.289062 L 77.605469 28.621094 L 77.847656 28.746094 L 78.085938 28.867188 Z M 77.621094 28.84375 C 77.535156 28.851562 77.460938 28.898438 77.421875 28.972656 C 77.359375 29.09375 77.417969 29.25 77.554688 29.320312 C 77.691406 29.386719 77.851562 29.34375 77.914062 29.222656 C 77.972656 29.101562 77.914062 28.949219 77.777344 28.878906 C 77.726562 28.851562 77.671875 28.839844 77.621094 28.84375 Z M 76.730469 29.402344 C 76.65625 29.402344 76.605469 29.40625 76.59375 29.414062 C 76.542969 29.445312 76.613281 29.878906 76.597656 30.246094 C 76.585938 30.59375 76.472656 30.691406 76.414062 30.8125 C 76.355469 30.921875 76.152344 31.050781 76.152344 31.050781 L 76.320312 31.21875 C 76.320312 31.21875 76.429688 31.050781 76.601562 30.710938 C 76.804688 30.316406 76.796875 29.597656 76.855469 29.558594 C 76.910156 29.523438 77.332031 29.421875 77.332031 29.421875 C 77.328125 29.421875 76.941406 29.398438 76.730469 29.402344 Z M 77.464844 29.5 C 77.464844 29.5 77.019531 29.585938 76.957031 29.644531 C 76.898438 29.703125 76.925781 30.304688 76.6875 30.765625 C 76.492188 31.148438 76.398438 31.292969 76.398438 31.292969 L 76.519531 31.351562 L 76.636719 31.410156 C 76.636719 31.410156 76.695312 31.257812 76.890625 30.871094 C 77.125 30.410156 77.628906 30.074219 77.640625 29.992188 C 77.652344 29.90625 77.464844 29.5 77.464844 29.5 Z M 77.605469 29.558594 C 77.605469 29.558594 77.765625 29.964844 77.769531 30.023438 C 77.773438 30.09375 77.191406 30.511719 76.988281 30.910156 C 76.816406 31.246094 76.742188 31.433594 76.742188 31.433594 L 76.976562 31.46875 C 76.976562 31.46875 76.960938 31.230469 77.015625 31.121094 C 77.078125 31 77.09375 30.855469 77.367188 30.640625 C 77.65625 30.410156 78.046875 30.210938 78.042969 30.152344 C 78.039062 30.097656 77.605469 29.558594 77.605469 29.558594 Z M 76.289062 31.464844 C 76.214844 31.472656 76.164062 31.519531 76.132812 31.578125 C 76.089844 31.664062 76.113281 31.78125 75.761719 32.472656 C 75.605469 32.773438 75.546875 32.894531 75.378906 33.222656 C 75.210938 33.554688 74.964844 34.03125 74.964844 34.03125 C 74.964844 34.03125 74.878906 34.1875 75.035156 34.265625 C 75.191406 34.34375 75.261719 34.183594 75.261719 34.183594 C 75.261719 34.183594 75.507812 33.707031 75.675781 33.375 C 75.84375 33.046875 75.90625 32.921875 76.058594 32.621094 C 76.410156 31.929688 76.519531 31.882812 76.5625 31.796875 C 76.609375 31.703125 76.597656 31.578125 76.441406 31.5 C 76.382812 31.46875 76.332031 31.460938 76.289062 31.464844 Z M 74.777344 34.339844 C 74.71875 34.34375 74.671875 34.367188 74.652344 34.410156 C 74.605469 34.496094 74.679688 34.621094 74.816406 34.691406 C 74.953125 34.761719 75.101562 34.746094 75.144531 34.664062 C 75.1875 34.578125 75.109375 34.453125 74.976562 34.382812 C 74.90625 34.347656 74.835938 34.332031 74.777344 34.339844 Z M 74.574219 34.757812 C 74.476562 34.753906 74.390625 34.785156 74.355469 34.855469 C 74.300781 34.964844 74.386719 35.125 74.550781 35.207031 C 74.71875 35.292969 74.898438 35.273438 74.953125 35.160156 C 75.007812 35.050781 74.921875 34.890625 74.757812 34.808594 C 74.695312 34.777344 74.632812 34.757812 74.574219 34.757812 Z M 74.296875 35.277344 C 74.238281 35.28125 74.191406 35.308594 74.171875 35.351562 C 74.125 35.4375 74.199219 35.5625 74.335938 35.632812 C 74.472656 35.699219 74.621094 35.6875 74.664062 35.601562 C 74.707031 35.515625 74.632812 35.390625 74.496094 35.320312 C 74.429688 35.285156 74.355469 35.273438 74.296875 35.277344 Z M 74.175781 35.726562 C 74.089844 35.738281 74.050781 35.824219 74.050781 35.824219 C 74.050781 35.824219 73.164062 37.566406 72.851562 38.179688 C 72.753906 38.375 72.332031 38.496094 72.167969 38.820312 C 72.003906 39.144531 72.117188 39.449219 72.335938 39.558594 C 72.550781 39.667969 72.867188 39.589844 73.035156 39.265625 C 73.199219 38.941406 73.050781 38.527344 73.152344 38.332031 C 73.464844 37.71875 74.347656 35.976562 74.347656 35.976562 C 74.347656 35.976562 74.4375 35.824219 74.277344 35.742188 C 74.242188 35.722656 74.207031 35.722656 74.175781 35.726562 Z M 72.039062 39.738281 C 71.941406 39.738281 71.851562 39.785156 71.8125 39.867188 C 71.746094 40 71.820312 40.171875 71.980469 40.253906 C 72.144531 40.335938 72.332031 40.296875 72.398438 40.167969 C 72.464844 40.035156 72.382812 39.863281 72.222656 39.78125 C 72.160156 39.75 72.101562 39.734375 72.039062 39.738281 Z M 70.632812 42.53125 C 70.582031 42.53125 70.539062 42.546875 70.523438 42.582031 C 70.488281 42.648438 70.558594 42.753906 70.679688 42.8125 C 70.800781 42.875 70.925781 42.867188 70.960938 42.800781 C 70.992188 42.734375 70.921875 42.628906 70.804688 42.570312 C 70.742188 42.539062 70.683594 42.527344 70.632812 42.527344 Z M 70.214844 42.855469 L 70.214844 43.714844 L 70.914062 43.214844 C 70.914062 43.214844 70.820312 43.046875 70.613281 42.941406 C 70.40625 42.835938 70.214844 42.855469 70.214844 42.855469 Z M 70.214844 42.855469 "/>
<path style=" stroke:none;fill-rule:evenodd;fill:rgb(0%,0%,0%);fill-opacity:1;" d="M 53.078125 37.875 C 53.078125 37.875 53.472656 38.691406 53.773438 38.800781 C 53.617188 38.757812 53.113281 38.945312 53.113281 38.945312 C 53.113281 38.945312 54 39.738281 54.753906 39.789062 C 55.394531 39.835938 55.703125 39.515625 55.703125 39.515625 L 55.578125 38.835938 C 55.578125 38.835938 55.1875 38.367188 54.558594 38.148438 C 53.925781 37.925781 53.078125 37.875 53.078125 37.875 Z M 53.078125 37.875 "/>
<path style=" stroke:none;fill-rule:evenodd;fill:rgb(0%,0%,0%);fill-opacity:1;" d="M 56.054688 36.414062 C 56.054688 36.414062 55.507812 36.878906 55.359375 37.421875 C 55.210938 37.960938 55.457031 38.574219 55.457031 38.574219 L 55.914062 39.429688 C 55.914062 39.429688 56.550781 39.09375 56.820312 38.585938 C 57.089844 38.082031 56.992188 37.398438 56.992188 37.398438 C 56.992188 37.398438 56.488281 37.585938 56.425781 37.667969 C 56.53125 37.109375 56.054688 36.414062 56.054688 36.414062 Z M 56.054688 36.414062 "/>
<path style=" stroke:none;fill-rule:evenodd;fill:rgb(0%,0%,0%);fill-opacity:1;" d="M 54.300781 36.195312 C 54.300781 36.195312 53.679688 36.402344 53.078125 36.367188 C 52.503906 36.332031 52.027344 35.851562 52.027344 35.851562 C 52.027344 35.851562 52.503906 35.527344 52.738281 35.574219 C 52.480469 35.476562 52.105469 34.832031 52.105469 34.832031 C 52.105469 34.832031 52.636719 34.671875 53.109375 34.847656 C 53.582031 35.027344 53.992188 35.542969 53.992188 35.542969 Z M 54.300781 36.195312 "/>
<path style=" stroke:none;fill-rule:evenodd;fill:rgb(0%,0%,0%);fill-opacity:1;" d="M 54.515625 33.164062 C 54.515625 33.164062 54.824219 33.808594 54.75 34.03125 C 54.847656 33.882812 55.210938 33.648438 55.210938 33.648438 C 55.210938 33.648438 55.429688 34.691406 55.222656 35.332031 C 55.011719 35.976562 54.371094 36.21875 54.371094 36.21875 L 53.664062 34.84375 C 53.664062 34.84375 53.558594 34.335938 53.777344 33.929688 C 54 33.527344 54.515625 33.164062 54.515625 33.164062 Z M 54.515625 33.164062 "/>
<path style=" stroke:none;fill-rule:evenodd;fill:rgb(0%,0%,0%);fill-opacity:1;" d="M 50.480469 31.464844 C 50.480469 31.464844 51.148438 31.394531 51.761719 31.648438 C 52.273438 31.859375 52.433594 32.246094 52.433594 32.246094 L 52.683594 32.925781 C 52.683594 32.925781 51.957031 33.199219 51.378906 32.988281 C 50.800781 32.78125 50.378906 32.085938 50.378906 32.085938 C 50.378906 32.085938 50.78125 31.933594 50.933594 31.992188 C 50.710938 31.894531 50.480469 31.464844 50.480469 31.464844 Z M 50.480469 31.464844 "/>
<path style=" stroke:none;fill-rule:evenodd;fill:rgb(0%,0%,0%);fill-opacity:1;" d="M 52.585938 30.207031 C 52.585938 30.207031 52.882812 30.585938 52.890625 31.019531 C 52.96875 30.789062 53.335938 30.535156 53.335938 30.535156 C 53.335938 30.535156 53.714844 31.449219 53.632812 32.097656 C 53.546875 32.746094 53.003906 33.128906 53.003906 33.128906 L 52.328125 31.84375 C 52.328125 31.84375 52.105469 31.316406 52.171875 30.90625 C 52.234375 30.5 52.585938 30.207031 52.585938 30.207031 Z M 52.585938 30.207031 "/>
<path style=" stroke:none;fill-rule:evenodd;fill:rgb(0%,0%,0%);fill-opacity:1;" d="M 50.265625 27.746094 C 50.265625 27.746094 50.144531 28.449219 50.351562 28.851562 C 50.535156 29.210938 50.652344 29.289062 50.652344 29.289062 C 50.300781 29.058594 49.769531 29.039062 49.769531 29.039062 C 49.769531 29.039062 49.957031 29.800781 50.410156 30.148438 C 50.863281 30.496094 51.5625 30.414062 51.5625 30.414062 C 51.5625 30.414062 52.023438 29.804688 51.988281 29.144531 C 51.957031 28.484375 51.433594 27.78125 51.433594 27.78125 C 51.433594 27.78125 51.226562 28.207031 51.210938 28.527344 C 51.078125 28.199219 50.265625 27.746094 50.265625 27.746094 Z M 50.265625 27.746094 "/>
<path style=" stroke:none;fill-rule:evenodd;fill:rgb(3.529358%,46.665955%,32.940674%);fill-opacity:1;" d="M 50.472656 28.171875 C 50.472656 28.171875 50.453125 28.683594 50.621094 28.976562 C 50.792969 29.265625 51.171875 29.382812 51.171875 29.382812 C 51.171875 29.382812 51.1875 28.871094 51.019531 28.582031 C 50.851562 28.289062 50.472656 28.171875 50.472656 28.171875 Z M 50.472656 28.171875 "/>
<path style=" stroke:none;fill-rule:evenodd;fill:rgb(3.529358%,46.665955%,32.940674%);fill-opacity:1;" d="M 50.117188 29.332031 C 50.117188 29.332031 50.5625 29.359375 50.820312 29.554688 C 51.074219 29.75 51.175781 30.160156 51.175781 30.160156 C 51.175781 30.160156 50.882812 30.191406 50.625 29.996094 C 50.367188 29.796875 50.117188 29.332031 50.117188 29.332031 Z M 50.117188 29.332031 "/>
<path style=" stroke:none;fill-rule:evenodd;fill:rgb(3.529358%,46.665955%,32.940674%);fill-opacity:1;" d="M 51.511719 28.296875 C 51.511719 28.296875 51.367188 28.636719 51.382812 29.003906 C 51.398438 29.367188 51.613281 29.78125 51.613281 29.78125 C 51.613281 29.78125 51.804688 29.339844 51.789062 28.976562 C 51.773438 28.609375 51.566406 28.402344 51.511719 28.296875 Z M 51.511719 28.296875 "/>
<path style=" stroke:none;fill-rule:evenodd;fill:rgb(3.529358%,46.665955%,32.940674%);fill-opacity:1;" d="M 50.765625 31.59375 C 50.765625 31.59375 50.984375 31.898438 51.320312 32.066406 C 51.65625 32.230469 52.15625 32.238281 52.15625 32.238281 C 52.15625 32.238281 51.90625 31.914062 51.570312 31.746094 C 51.234375 31.582031 50.765625 31.59375 50.765625 31.59375 Z M 50.765625 31.59375 "/>
<path style=" stroke:none;fill-rule:evenodd;fill:rgb(3.529358%,46.665955%,32.940674%);fill-opacity:1;" d="M 50.871094 32.304688 C 50.871094 32.304688 51.035156 32.617188 51.328125 32.753906 C 51.621094 32.886719 52.222656 32.875 52.222656 32.875 C 52.222656 32.875 51.992188 32.582031 51.695312 32.445312 C 51.402344 32.3125 50.871094 32.304688 50.871094 32.304688 Z M 50.871094 32.304688 "/>
<path style=" stroke:none;fill-rule:evenodd;fill:rgb(3.529358%,46.665955%,32.940674%);fill-opacity:1;" d="M 52.5625 30.625 C 52.5625 30.625 52.386719 30.917969 52.402344 31.242188 C 52.421875 31.566406 52.632812 31.917969 52.632812 31.917969 C 52.632812 31.917969 52.78125 31.515625 52.765625 31.191406 C 52.746094 30.867188 52.5625 30.625 52.5625 30.625 Z M 52.5625 30.625 "/>
<path style=" stroke:none;fill-rule:evenodd;fill:rgb(3.529358%,46.665955%,32.940674%);fill-opacity:1;" d="M 53.214844 31.039062 C 53.214844 31.039062 52.914062 31.449219 52.871094 31.867188 C 52.824219 32.285156 53.042969 32.714844 53.042969 32.714844 C 53.042969 32.714844 53.410156 32.347656 53.453125 31.929688 C 53.496094 31.511719 53.214844 31.039062 53.214844 31.039062 Z M 53.214844 31.039062 "/>
<path style=" stroke:none;fill-rule:evenodd;fill:rgb(3.529358%,46.665955%,32.940674%);fill-opacity:1;" d="M 52.378906 34.910156 C 52.378906 34.910156 52.417969 35.058594 52.542969 35.21875 C 52.667969 35.378906 52.886719 35.550781 52.886719 35.550781 C 52.886719 35.550781 53.097656 35.480469 53.355469 35.539062 C 53.617188 35.59375 53.964844 35.828125 53.964844 35.828125 C 53.964844 35.828125 53.589844 35.269531 53.203125 35.054688 C 52.816406 34.835938 52.378906 34.910156 52.378906 34.910156 Z M 52.378906 34.910156 "/>
<path style=" stroke:none;fill-rule:evenodd;fill:rgb(3.529358%,46.665955%,32.940674%);fill-opacity:1;" d="M 52.339844 35.867188 C 52.339844 35.867188 52.824219 35.660156 53.222656 35.714844 C 53.621094 35.765625 53.980469 36.082031 53.980469 36.082031 C 53.980469 36.082031 53.441406 36.265625 53.042969 36.214844 C 52.644531 36.160156 52.339844 35.867188 52.339844 35.867188 Z M 52.339844 35.867188 "/>
<path style=" stroke:none;fill-rule:evenodd;fill:rgb(3.529358%,46.665955%,32.940674%);fill-opacity:1;" d="M 54.382812 33.621094 C 54.382812 33.621094 53.957031 34.074219 53.917969 34.464844 C 53.882812 34.859375 54.265625 35.226562 54.265625 35.226562 C 54.265625 35.226562 54.246094 34.972656 54.3125 34.808594 C 54.378906 34.640625 54.519531 34.464844 54.519531 34.464844 C 54.519531 34.464844 54.578125 34.261719 54.554688 34.101562 C 54.523438 33.875 54.382812 33.621094 54.382812 33.621094 Z M 54.382812 33.621094 "/>
<path style=" stroke:none;fill-rule:evenodd;fill:rgb(3.529358%,46.665955%,32.940674%);fill-opacity:1;" d="M 54.996094 34.144531 C 54.996094 34.144531 54.59375 34.550781 54.488281 34.988281 C 54.378906 35.425781 54.570312 35.890625 54.570312 35.890625 C 54.570312 35.890625 54.9375 35.601562 55.042969 35.164062 C 55.148438 34.726562 54.996094 34.144531 54.996094 34.144531 Z M 54.996094 34.144531 "/>
<path style=" stroke:none;fill-rule:evenodd;fill:rgb(3.529358%,46.665955%,32.940674%);fill-opacity:1;" d="M 56.003906 36.773438 C 56.003906 36.773438 56.1875 37.15625 56.234375 37.472656 C 56.277344 37.792969 56.238281 37.902344 56.238281 37.902344 C 56.238281 37.902344 56.046875 38.085938 55.964844 38.195312 C 55.855469 38.335938 55.839844 38.59375 55.839844 38.59375 C 55.839844 38.59375 55.460938 38.03125 55.519531 37.617188 C 55.578125 37.207031 56.003906 36.773438 56.003906 36.773438 Z M 56.003906 36.773438 "/>
<path style=" stroke:none;fill-rule:evenodd;fill:rgb(3.529358%,46.665955%,32.940674%);fill-opacity:1;" d="M 56.800781 37.65625 C 56.800781 37.65625 56.316406 37.976562 56.125 38.304688 C 55.933594 38.632812 56.03125 38.96875 56.03125 38.96875 C 56.03125 38.96875 56.378906 38.9375 56.570312 38.609375 C 56.761719 38.28125 56.800781 37.65625 56.800781 37.65625 Z M 56.800781 37.65625 "/>
<path style=" stroke:none;fill-rule:evenodd;fill:rgb(3.529358%,46.665955%,32.940674%);fill-opacity:1;" d="M 53.617188 39.007812 C 53.617188 39.007812 54.316406 38.988281 54.742188 39.09375 C 55.167969 39.199219 55.324219 39.425781 55.324219 39.425781 C 55.324219 39.425781 54.84375 39.652344 54.417969 39.546875 C 53.992188 39.441406 53.617188 39.007812 53.617188 39.007812 Z M 53.617188 39.007812 "/>
<path style=" stroke:none;fill-rule:evenodd;fill:rgb(3.529358%,46.665955%,32.940674%);fill-opacity:1;" d="M 53.5 38.179688 C 53.5 38.179688 53.8125 38.667969 54.222656 38.84375 C 54.78125 39.089844 55.433594 38.972656 55.433594 38.972656 C 55.433594 38.972656 55.078125 38.539062 54.59375 38.347656 C 54.105469 38.15625 53.5 38.179688 53.5 38.179688 Z M 53.5 38.179688 "/>
<path style=" stroke:none;fill-rule:evenodd;fill:rgb(0%,0%,0%);fill-opacity:1;" d="M 55.742188 39.484375 L 55.761719 39.738281 C 56.179688 39.742188 56.238281 39.699219 56.347656 39.832031 C 56.417969 39.917969 56.589844 39.996094 56.757812 39.917969 C 56.929688 39.839844 57.003906 39.636719 56.929688 39.464844 C 56.851562 39.292969 56.691406 39.257812 56.539062 39.285156 C 56.445312 39.304688 56.382812 39.378906 56.304688 39.421875 C 56.152344 39.5 55.742188 39.484375 55.742188 39.484375 Z M 55.742188 39.484375 "/>
<path style=" stroke:none;fill-rule:evenodd;fill:rgb(0%,0%,0%);fill-opacity:1;" d="M 55.703125 39.292969 L 55.910156 39.441406 C 55.691406 39.800781 55.621094 39.832031 55.675781 39.992188 C 55.714844 40.097656 55.6875 40.28125 55.53125 40.386719 C 55.375 40.488281 55.160156 40.445312 55.058594 40.289062 C 54.953125 40.132812 55.007812 39.976562 55.113281 39.863281 C 55.179688 39.796875 55.273438 39.78125 55.351562 39.738281 C 55.5 39.648438 55.703125 39.292969 55.703125 39.292969 Z M 55.703125 39.292969 "/>
<path style=" stroke:none;fill-rule:evenodd;fill:rgb(0%,0%,0%);fill-opacity:1;" d="M 54.289062 36.308594 L 54.308594 36.558594 C 54.726562 36.5625 54.789062 36.519531 54.894531 36.652344 C 54.96875 36.742188 55.136719 36.816406 55.308594 36.738281 C 55.476562 36.660156 55.554688 36.457031 55.476562 36.285156 C 55.398438 36.113281 55.238281 36.078125 55.085938 36.109375 C 54.992188 36.125 54.929688 36.203125 54.851562 36.242188 C 54.699219 36.320312 54.289062 36.308594 54.289062 36.308594 Z M 54.289062 36.308594 "/>
<path style=" stroke:none;fill-rule:evenodd;fill:rgb(0%,0%,0%);fill-opacity:1;" d="M 54.375 36.394531 L 54.550781 36.574219 C 54.28125 36.894531 54.210938 36.914062 54.238281 37.082031 C 54.257812 37.191406 54.203125 37.371094 54.035156 37.449219 C 53.863281 37.527344 53.660156 37.449219 53.582031 37.277344 C 53.503906 37.109375 53.578125 36.964844 53.703125 36.867188 C 53.777344 36.808594 53.875 36.8125 53.957031 36.777344 C 54.117188 36.714844 54.375 36.394531 54.375 36.394531 Z M 54.375 36.394531 "/>
<path style=" stroke:none;fill-rule:evenodd;fill:rgb(0%,0%,0%);fill-opacity:1;" d="M 52.882812 33.332031 L 52.902344 33.582031 C 53.320312 33.585938 53.382812 33.546875 53.488281 33.675781 C 53.558594 33.765625 53.730469 33.839844 53.902344 33.761719 C 54.070312 33.683594 54.148438 33.480469 54.070312 33.308594 C 53.992188 33.140625 53.832031 33.101562 53.679688 33.132812 C 53.585938 33.152344 53.523438 33.226562 53.445312 33.265625 C 53.292969 33.34375 52.882812 33.332031 52.882812 33.332031 Z M 52.882812 33.332031 "/>
<path style=" stroke:none;fill-rule:evenodd;fill:rgb(0%,0%,0%);fill-opacity:1;" d="M 53 33.277344 L 53.175781 33.457031 C 52.90625 33.777344 52.835938 33.796875 52.863281 33.960938 C 52.882812 34.074219 52.828125 34.253906 52.660156 34.332031 C 52.488281 34.40625 52.285156 34.332031 52.207031 34.160156 C 52.128906 33.992188 52.203125 33.847656 52.328125 33.75 C 52.402344 33.691406 52.5 33.695312 52.582031 33.660156 C 52.742188 33.597656 53 33.277344 53 33.277344 Z M 53 33.277344 "/>
<path style=" stroke:none;fill-rule:evenodd;fill:rgb(0%,0%,0%);fill-opacity:1;" d="M 51.382812 30.191406 L 51.402344 30.441406 C 51.820312 30.445312 51.882812 30.402344 51.992188 30.535156 C 52.0625 30.621094 52.230469 30.699219 52.402344 30.621094 C 52.574219 30.542969 52.648438 30.339844 52.570312 30.167969 C 52.492188 29.996094 52.335938 29.960938 52.183594 29.992188 C 52.089844 30.007812 52.027344 30.085938 51.945312 30.125 C 51.796875 30.203125 51.382812 30.191406 51.382812 30.191406 Z M 51.382812 30.191406 "/>
<path style=" stroke:none;fill-rule:evenodd;fill:rgb(0%,0%,0%);fill-opacity:1;" d="M 51.5 30.136719 L 51.679688 30.316406 C 51.40625 30.632812 51.335938 30.652344 51.363281 30.820312 C 51.382812 30.933594 51.332031 31.109375 51.160156 31.1875 C 50.988281 31.265625 50.785156 31.191406 50.707031 31.019531 C 50.628906 30.847656 50.707031 30.703125 50.828125 30.609375 C 50.902344 30.550781 51 30.554688 51.082031 30.519531 C 51.242188 30.457031 51.5 30.136719 51.5 30.136719 Z M 51.5 30.136719 "/>
<path style=" stroke:none;fill-rule:evenodd;fill:rgb(96.076965%,83.135986%,0.784302%);fill-opacity:1;" d="M 54.023438 35.5625 C 53.875 35.625 53.652344 34.972656 53.488281 34.613281 C 53.320312 34.25 52.980469 33.683594 53.078125 33.640625 C 53.183594 33.589844 53.324219 33.886719 53.496094 34.261719 C 53.667969 34.636719 54.164062 35.503906 54.023438 35.5625 Z M 54.023438 35.5625 "/>
<path style=" stroke:none;fill-rule:evenodd;fill:rgb(96.076965%,83.135986%,0.784302%);fill-opacity:1;" d="M 52.488281 32.128906 C 52.335938 32.191406 52.171875 31.761719 52.007812 31.40625 C 51.84375 31.039062 51.679688 30.78125 51.777344 30.738281 C 51.882812 30.6875 52.039062 31.007812 52.175781 31.308594 C 52.308594 31.601562 52.625 32.070312 52.488281 32.128906 Z M 52.488281 32.128906 "/>
<path style=" stroke:none;fill-rule:evenodd;fill:rgb(96.076965%,83.135986%,0.784302%);fill-opacity:1;" d="M 56.042969 39.914062 C 55.925781 39.945312 55.414062 38.871094 55 37.960938 C 54.585938 37.054688 54.277344 36.320312 54.371094 36.273438 C 54.476562 36.226562 54.8125 37.085938 55.230469 37.992188 C 55.644531 38.902344 56.132812 39.890625 56.042969 39.914062 Z M 56.042969 39.914062 "/>
<path style=" stroke:none;fill-rule:evenodd;fill:rgb(79.998779%,3.529358%,18.431091%);fill-opacity:1;" d="M 60.355469 15.695312 C 60.355469 15.695312 60.527344 15.367188 60.960938 15.367188 C 61.144531 15.367188 61.742188 15.355469 61.742188 15.355469 C 61.824219 15.5625 62.1875 15.910156 62.1875 16.269531 C 62.1875 16.269531 61.816406 15.605469 60.785156 15.605469 C 60.523438 15.605469 60.355469 15.695312 60.355469 15.695312 Z M 60.355469 15.695312 "/>
<path style=" stroke:none;fill-rule:evenodd;fill:rgb(0%,0%,0%);fill-opacity:1;" d="M 61.683594 15.785156 C 61.683594 15.785156 61.429688 15.703125 61.429688 15.617188 C 61.429688 15.507812 61.554688 15.507812 61.628906 15.59375 C 61.679688 15.652344 61.683594 15.785156 61.683594 15.785156 Z M 61.683594 15.785156 "/>
<path style=" stroke:none;fill-rule:evenodd;fill:rgb(81.959534%,1.568604%,16.078186%);fill-opacity:1;" d="M 62.03125 16.398438 C 62.03125 16.398438 61.8125 16.628906 61.765625 16.753906 C 61.546875 16.671875 61.167969 16.28125 61.167969 16.28125 C 61.167969 16.28125 61.488281 16.46875 62.03125 16.398438 Z M 62.03125 16.398438 "/>
<path style=" stroke:none;fill-rule:evenodd;fill:rgb(0%,0%,0%);fill-opacity:1;" d="M 63.140625 15.789062 C 63.140625 15.941406 62.96875 16.078125 62.777344 16.078125 C 62.585938 16.078125 62.414062 15.941406 62.414062 15.789062 C 62.414062 15.640625 62.585938 15.503906 62.777344 15.503906 C 62.96875 15.503906 63.140625 15.640625 63.140625 15.789062 Z M 63.140625 15.789062 "/>
<path style=" stroke:none;fill-rule:evenodd;fill:rgb(96.076965%,83.135986%,0.784302%);fill-opacity:1;" d="M 63.03125 15.789062 C 63.03125 15.921875 62.910156 16.042969 62.777344 16.042969 C 62.644531 16.042969 62.523438 15.921875 62.523438 15.789062 C 62.523438 15.660156 62.644531 15.539062 62.777344 15.539062 C 62.910156 15.539062 63.03125 15.660156 63.03125 15.789062 Z M 63.03125 15.789062 "/>
<path style=" stroke:none;fill-rule:evenodd;fill:rgb(0%,0%,0%);fill-opacity:1;" d="M 62.882812 15.789062 C 62.886719 15.847656 62.835938 15.902344 62.777344 15.902344 C 62.71875 15.902344 62.667969 15.847656 62.667969 15.789062 C 62.667969 15.734375 62.71875 15.679688 62.777344 15.679688 C 62.835938 15.679688 62.886719 15.734375 62.882812 15.789062 Z M 62.882812 15.789062 "/>
<path style=" stroke:none;fill-rule:evenodd;fill:rgb(96.076965%,83.135986%,0.784302%);fill-opacity:1;" d="M 56.183594 22.785156 C 56.183594 22.785156 56.804688 23.25 56.804688 23.722656 L 56.804688 34.957031 C 56.804688 35.253906 56.894531 35.445312 57.039062 35.632812 C 57.183594 35.835938 57.496094 36.117188 57.816406 36.324219 C 58.808594 36.96875 60.464844 37.648438 61.71875 38.21875 C 62.761719 38.695312 63.1875 38.886719 63.730469 39.558594 C 64.273438 38.886719 64.703125 38.695312 65.75 38.21875 C 67.003906 37.648438 68.660156 36.96875 69.652344 36.324219 C 69.972656 36.117188 70.28125 35.835938 70.425781 35.632812 C 70.570312 35.445312 70.660156 35.253906 70.660156 34.957031 L 70.660156 23.722656 C 70.660156 23.25 71.277344 22.785156 71.277344 22.785156 Z M 56.976562 23.144531 L 70.484375 23.144531 C 70.484375 23.144531 70.300781 23.363281 70.300781 23.722656 L 70.300781 34.957031 C 70.300781 35.203125 70.046875 35.777344 68.582031 36.507812 C 66.15625 37.714844 64.289062 38.28125 63.730469 38.96875 C 63.171875 38.28125 61.308594 37.714844 58.882812 36.507812 C 57.414062 35.777344 57.160156 35.203125 57.160156 34.957031 L 57.160156 23.722656 C 57.160156 23.363281 56.976562 23.144531 56.976562 23.144531 Z M 56.976562 23.144531 "/>
</g>
</svg>
