<svg viewBox="0 0 1000 500" xmlns="http://www.w3.org/2000/svg"><path d="m0 0h1000v500h-1000z" fill="#cc092f"/><g fill-rule="evenodd"><path d="m0 0h666.667969v500h-666.667969zm0 0" fill="#ffd200"/><path d="m0 0h333.332031v500h-333.332031zm0 0" fill="#0046ae"/><path d="m453.609375 295.53125 4.644531-.34375.40625 3.964844 4.273438-1.808594 1.15625 5.457031 9.414062-9.542969 13.09375 6.453126-24.847656 44.285156-8.855469 6.542968 15.960938 5.988282 16.371093-19.082032-2.367187 12.53125-4.863281 12.164063 19.925781 11.476563 21.644531-12.78125-10.640625-22.328126 3.464844-1.589843 14.03125 20.328125 15.28125-7.578125-19.863281-23.230469-13.066406-27.941406 13.78125-4.550782 9.390624 9.011719 1.398438-5.863281 4.960938 2.402344-.625-4.898438 4.988281 1.09375-6.078125-9.632812 15.429687-12.945313 9.757813 30.496094 14.390625 16.433594 3.054687-.375 10.445313 12.910156-.113281-178.894531-19.277344-20.300782-18.753906 15.277344.78125 16.46875-8.421876.308594-12.53125 6.421875-7.019531 2.308594-3.304687.652343-4.304688-4.675781-5.765625-11.539062-.378906-11.378907 3.554687-7.421874-.65625-7.015626 3.191407.0625-2.035157-4.742187 2.8125-1.121094-4.210937-3.710937 1.464844-1.71875-15.902344-6.824219-12.136719-.8125-3.273437 1.433594-1.585938 2.964843 3.207031 9.074219-3.429687 3.425781 3.398437 6.648438.128907 14.558594-2.714844 12.289062-5.457031 9.289063-2.867188 1.09375-6.832031-1.558594-14.3125-7.546875-9.042969-.5-.621094-17.527344-17.339843-13.933594-17.679688 19.082032-2.527343 5.613281.8125 173.628906 11.441406-13.847656 2.402344.597656 11.816406-12.789062 10.042968-25.320313 2.960938-10.507812 13.535156 15.996094zm0 0" fill="#b07f55"/><path d="m470.9375 101.800781c-1.789062 0-3.355469.457031-4.265625 1.167969 1.449219.417969 2.503906 1.757812 2.503906 3.382812v4.125h-4.121093c-1.617188 0-2.957032-1.039062-3.386719-2.476562-.710938.914062-1.167969 2.476562-1.167969 4.265625 0 1.792969.457031 3.355469 1.167969 4.269531.421875-1.453125 1.757812-2.503906 3.386719-2.503906h4.121093v19.820312c0 1.558594-.972656 2.851563-2.332031 3.328126 1.964844.269531 3.660156 2.910156 4.121094 4.351562.46875-1.441406 2.160156-4.082031 4.128906-4.351562-1.375-.46875-2.363281-1.761719-2.363281-3.328126v-19.824218h4.125c1.613281 0 2.953125 1.039062 3.382812 2.476562.710938-.910156 1.167969-2.476562 1.167969-4.265625 0-1.792969-.457031-3.355469-1.167969-4.269531-.421875 1.453125-1.757812 2.503906-3.382812 2.503906h-4.125v-4.121094c0-1.617187 1.039062-2.953124 2.476562-3.386718-.914062-.707032-2.476562-1.167969-4.269531-1.167969zm0 0"/><path d="m470.9375 102.65625c-.929688 0-1.75.171875-2.445312.398438.925781.804687 1.539062 1.964843 1.539062 3.296874v4.125c0 .058594-.019531.117188-.03125.171876v.652343h-.652344c-.058594.015625-.113281.03125-.171875.03125h-4.125c-1.3125 0-2.464843-.605469-3.269531-1.507812-.230469.699219-.425781 1.5-.425781 2.445312 0 .933594.171875 1.753907.394531 2.445313.808594-.925782 1.972656-1.535156 3.300781-1.535156h4.976563c-.003906.085937-.027344.167968-.027344.257812v.425781c.011719.050781.027344.109375.027344.167969v19.824219c0 1.285156-.660156 2.296875-1.535156 3.097656.625.386719 1.160156.871094 1.621093 1.425781.410157.492188.574219.972656.851563 1.480469.285156-.507813.445312-.988281.855468-1.480469.453126-.546875.984376-1.011718 1.59375-1.394531-.882812-.800781-1.535156-1.835937-1.535156-3.128906v-20.648438h.679688c.058594-.011719.113281-.027343.171875-.027343h4.121093c1.316407 0 2.46875.601562 3.273438 1.507812.230469-.699219.425781-1.5.425781-2.449219 0-.929687-.175781-1.75-.398437-2.441406-.804688.921875-1.96875 1.53125-3.300782 1.53125h-4.121093c-.058594 0-.113281-.015625-.171875-.027344h-.652344v-.652343c-.011719-.054688-.027344-.113282-.03125-.171876v-4.125c0-1.3125.601562-2.464843 1.507812-3.269531-.699218-.230469-1.496093-.425781-2.445312-.425781zm0 0" fill="#f5d402"/><path d="m443.6875 314.171875-5.820312-.175781-5.996094 2.820312-1.941406 6.527344.878906 3.003906 6.53125 7.054688 5.292968-3 4.234376-4.585938 1.054687-4.0625 15.171875-19.753906-.703125-4.9375-3.355469 2.117188-1.238281-4.058594-2.113281.707031zm0 0" fill="#d10429"/><path d="m550.0625 327.222656 7.046875 6.355469 2.113281-.53125 7.777344-8.996094-1.777344-6.175781-7.222656-4.410156-5.472656.53125-12.171875-18.167969-2.117188-.882813-.875 3.527344-3.535156-1.054687-1.410156 3.875 16.050781 21.703125zm0 0" fill="#d10429"/><path d="m445.210938 328.863281 9 4.910157-2.183594 10.015624-9-4.910156zm0 0"/><path d="m403.277344 232.628906-3.242188 1.476563 36.632813 80.234375h3.894531zm43.203125 94.621094-2.644531 2.730469 1.648437 3.640625 3.214844-1.480469zm0 0"/><path d="m446.507812 331.699219 5.582032 3.046875-1.355469 6.210937-5.585937-3.042969zm0 0" fill="#f5d402"/><path d="m497.488281 306.234375 22.234375-12.171875 26.097656-12.347656 4.945313-7.589844v-42.507812l-105.84375-.171876.179687 43.214844 3.175782 5.117188 20.105468 11.109375 25.753907 11.816406zm0 0" fill="#0b45bb"/><path d="m443.695312 179.414062 1.335938 3.898438-.3125 49.628906 1.847656 2.050782 15.273438 1.820312 16.523437-2.421875s9.59375 1.484375 16.210938 2.503906l.203125.996094s2.398437-.367187 3.152344-.484375c.742187.117188 3.128906.484375 3.128906.484375l.199218-.996094c6.617188-1.019531 16.210938-2.503906 16.210938-2.503906l16.527344 2.421875 15.269531-1.820312 1.847656-2.050782-.308593-49.628906 1.335937-3.898438-18.289063.144532s-20.898437.207031-35.917968.371094c-15.019532-.164063-35.953125-.371094-35.953125-.371094zm0 0" fill="#d10429"/><path d="m478.359375 234.394531s-11.324219-2.769531-15.554687-8.359375c-7.394532 6.648438-16.238282 8.957032-16.238282 8.957032s9.226563 4.164062 16.238282 9.472656c3.234374-4.632813 15.554687-10.070313 15.554687-10.070313zm0 0"/><path d="m517.464844 234.394531s12.328125 5.433594 15.558594 10.070313c7.011718-5.308594 16.238281-9.472656 16.238281-9.472656s-8.84375-2.308594-16.238281-8.957032c-4.226563 5.589844-15.558594 8.359375-15.558594 8.359375zm0 0"/><path d="m497.902344 183.566406-3.1875 9.042969-8.675782-4.121094 4.125 8.675781-9.042968 3.210938 9.042968 3.214844-4.125 8.648437 8.675782-4.128906 3.1875 9.046875 3.210937-9.046875 8.675781 4.128906-4.125-8.648437 9.042969-3.214844-9.042969-3.210938 4.125-8.675781-8.675781 4.121094zm0 0"/><path d="m479.796875 250.945312 3.125-3.375 3.492187 3.496094-3.242187 3.242188zm0 0" fill="#f5d402"/><path d="m516.347656 250.945312-3.363281-3.746093-3.496094 3.617187 3.121094 3.367188zm0 0" fill="#f5d402"/><path d="m509.238281 257.925781-1.617187 3.621094-.125 9.976563 2.621094 5.609374 3.488281 1.5-.496094-13.101562 2.367187-9.101562zm0 0" fill="#f5d402"/><path d="m482.671875 267.65625v10.726562l3.117187-2.242187 2.125-4.867187.371094-8.476563-1.625-5.121094-6.230468-1.121093zm0 0" fill="#f5d402"/><path d="m525.828125 280.878906-.121094-6.488281 5.488281-7.480469 6.484376-1.5-7.234376-3.492187-6.984374 1.5-3.617188 4.238281-.378906 6.859375 5.117187 5.992187zm0 0" fill="#f5d402"/><path d="m466.082031 281.253906 1.871094-3.492187 2.992187 1.992187 3.613282-.746094 2.375-3.621093-1.621094-3.363281-1.746094-1.375 2.492188-1.371094 1.003906-4.117188-3.371094-3.863281-3.242187.496094-1.621094 1.246093-.75-2.988281-3.867187-2.253906-3.242188 1.253906-1.625 3.363281.878906 2.996094-3.375-.371094-2.742187 2.617188-.371094 3.496094 1.871094 2.242187 2.617187.871094 1.5-.121094-1.25 3.117188 1 3.113281 3.117188 1.75zm0 0" fill="#f5d402"/><path d="m497.933594 189.65625 2.046875 5.773438 5.519531-2.644532-2.621094 5.546875 5.746094 2.046875-5.746094 2.050782 2.621094 5.511718-5.519531-2.613281-2.074219 5.746094-2.046875-5.746094-5.519531 2.613281 2.617187-5.511718-5.746093-2.050782 5.746093-2.046875-2.617187-5.546875 5.519531 2.644532zm0 0" fill="#ffd200"/><path d="m479.703125 182.203125c-.523437 3.65625-18.914063 11.25-18.914063 26.566406 0 19.605469 18.34375 24.230469 18.34375 24.230469l-.769531 1.394531-4.464843 8.132813s7.578124.378906 11.605468 3.8125c4.847656 4.136718 4.378906 12.90625 4.378906 19.28125 0 5.023437-.636718 10.328125-3.214843 12.515625-3.460938 2.933593-5.804688 3.152343-5.804688 6.597656 0 2.875 2.210938 3.453125 5.804688 5.347656 4.605469 2.429688 4.390625 5.6875 11.234375 5.6875s6.65625-3.257812 11.261718-5.6875c3.59375-1.894531 5.800782-2.472656 5.800782-5.347656 0-3.445313-2.339844-3.664063-5.800782-6.597656-2.578124-2.1875-3.210937-7.492188-3.210937-12.515625 0-6.375-.472656-15.144532 4.375-19.28125 4.027344-3.429688 11.605469-3.8125 11.605469-3.8125l-4.464844-8.132813-.765625-1.394531s18.34375-4.625 18.34375-24.230469c0-15.3125-18.390625-22.910156-18.914063-26.566406-1.796874 6.324219 6.144532 15.058594 6.144532 25.398437 0 13.382813-9.871094 14.023438-9.871094 14.023438-2.308594 0-3.246094 1.648438-4.152344 1.648438-1.941406-.203126-2.859375-2.671876-4.777344-2.671876-1.804687 0-3.1875 2.785157-5.574218 2.785157-2.386719 0-3.742188-2.785157-5.546875-2.785157-1.921875 0-2.835938 2.46875-4.777344 2.671876-.90625 0-1.84375-1.648438-4.152344-1.648438 0 0-9.867187-.640625-9.867187-14.023438 0-10.339843 7.9375-19.074218 6.140625-25.398437zm0 0"/><path d="m462.632812 228.820312c3.738282 4.28125 9.671876 5.917969 9.671876 5.917969s-9.5 7.054688-9.5 7.054688l-.113282.140625-.199218-.171875-10.523438-6.597657s6.714844-2.316406 10.664062-6.34375zm0 0" fill="#ffd200"/><path d="m477.027344 187.75c.753906 1.625-6.144532 11.640625-6.144532 19.851562 0 10.070313 5.375 16.011719 12.542969 16.011719 1.371094 0 2.863281 1.851563 4.152344 1.851563 2.101563 0 3.5-2.332032 4.78125-2.332032 1.625 0 2.71875 2.554688 5.542969 2.554688 2.824218 0 3.949218-2.554688 5.574218-2.554688 1.277344 0 2.679688 2.332032 4.777344 2.332032 1.292969 0 2.785156-1.851563 4.152344-1.851563 7.171875 0 12.546875-5.941406 12.546875-16.011719 0-8.210937-6.898437-18.226562-6.144531-19.851562 0 0 13.449218 9.648438 13.449218 21.015625 0 18.316406-18.570312 22.839844-18.570312 22.839844l4.179688 9.414062s-5.753907.863281-9.269532 3.699219c-4.6875 3.777344-4.75 13.996094-4.75 20.902344 0 8.136718.304688 11.585937 3.242188 13.792968 3.097656 2.328126 5.433594 2.832032 5.433594 5.207032 0 2.066406-2.414063 2.910156-5.550782 4.292968-3.558594 1.570313-3.914062 4.296876-9.070312 4.296876-5.152344 0-5.480469-2.726563-9.042969-4.296876-3.132813-1.382812-5.546875-2.226562-5.546875-4.292968 0-2.375 2.332031-2.878906 5.433594-5.207032 2.9375-2.207031 3.242187-5.65625 3.242187-13.792968 0-6.90625-.0625-17.125-4.75-20.902344-3.515625-2.835938-9.273437-3.699219-9.273437-3.699219l4.179687-9.414062s-18.570312-4.523438-18.570312-22.839844c0-11.367187 13.453125-21.015625 13.453125-21.015625zm0 0" fill="#ffd200"/><path d="m533.195312 228.820312c3.949219 4.027344 10.664063 6.34375 10.664063 6.34375s-7.003906 3.488282-10.523437 6.597657c.132812.640625-.171876.148437-.199219.171875-.164063.207031-.0625-.078125-.113281-.140625-3.324219-3.816407-9.5-7.054688-9.5-7.054688s5.933593-1.636719 9.671874-5.917969zm0 0" fill="#ffd200"/><path d="m483 246.449219-4.410156 4.40625 4.410156 4.410156 4.40625-4.410156zm0 0"/><path d="m512.832031 246.449219-4.40625 4.40625 4.40625 4.410156 4.410157-4.410156zm0 0"/><path d="m483 248.558594 2.304688 2.296875-2.304688 2.335937-2.332031-2.335937zm0 0" fill="#ffd200"/><path d="m512.832031 248.558594 2.335938 2.296875-2.335938 2.335937-2.300781-2.335937zm0 0" fill="#ffd200"/><path d="m478.933594 255.269531c.875 2.164063 2.957031 8.875 2.957031 16.921875 0 5.566406-.539063 8.503906-.539063 8.503906s6.214844-1.832031 7.449219-8.136718c.582031-2.953125 1.226563-13.84375-1.761719-15.699219zm0 0"/><path d="m516.898438 255.269531-8.105469 1.589844c-2.988281 1.855469-2.34375 12.746094-1.761719 15.699219 1.238281 6.304687 7.453125 8.136718 7.453125 8.136718s-.542969-2.9375-.542969-8.503906c0-8.046875 2.082032-14.757812 2.957032-16.921875zm0 0"/><path d="m463.835938 257.035156c-.347657.011719-.707032.054688-1.058594.140625-2.792969.699219-4.480469 3.546875-3.78125 6.339844.109375.429687.285156.824219.484375 1.195313-.40625-.136719-.828125-.226563-1.28125-.253907-.175781-.015625-.363281-.007812-.539063 0-2.644531.089844-4.851562 2.167969-5.03125 4.863281-.199218 2.875 1.988282 5.347657 4.863282 5.542969.429687.03125.847656.015625 1.25-.054687-.246094.339844-.460938.699218-.625 1.109375-1.074219 2.671875.226562 5.75 2.902343 6.828125 2.671875 1.074218 5.71875-.257813 6.792969-2.929688.167969-.410156.257812-.808594.316406-1.226562.246094.34375.542969.65625.882813.941406 2.210937 1.847656 5.515625 1.554688 7.363281-.65625 1.851562-2.210938 1.558594-5.488281-.652344-7.335938-.335937-.28125-.707031-.503906-1.082031-.683593.402344-.128907.792969-.308594 1.164063-.539063 2.441406-1.53125 3.183593-4.785156 1.648437-7.226562-1.050781-1.675782-2.898437-2.539063-4.75-2.414063-.835937.054688-1.679687.316407-2.441406.796875-.375.230469-.707031.492188-.996094.792969 0-.417969-.035156-.851563-.144531-1.28125-.613282-2.441406-2.863282-4.054687-5.289063-3.949219zm0 0"/><path d="m481.777344 257.710938 4.351562.910156c1.609375 2.222656 1.335938 5.8125 1.335938 10.808594 0 5.039062-3.78125 6.96875-3.78125 6.96875 0-12.109376-1.25-15.019532-1.90625-18.6875zm0 0" fill="#ffd200"/><path d="m514.054688 257.710938c-.65625 3.667968-1.90625 6.578124-1.90625 18.6875 0 0-3.78125-1.933594-3.78125-6.96875 0-4.996094-.273438-8.585938 1.335937-10.808594zm0 0" fill="#ffd200"/><path d="m464.144531 259.222656c1.882813-.082031 3.617188 1.167969 4.097657 3.070313.113281.453125.121093.898437.082031 1.339843-.03125.363282-.128907.691407-.253907 1.019532-.628906-.230469-1.3125-.339844-2.019531-.339844-1.753906 0-3.324219.773438-4.40625 1.992188-.285156-.25-.535156-.53125-.742187-.851563-.234375-.363281-.429688-.757813-.539063-1.199219-.546875-2.171875.785157-4.375 2.957031-4.917968.269532-.070313.554688-.101563.824219-.117188v.003906h.003907zm0 0" fill="#ffd200"/><path d="m529.128906 260.898438c-6.679687 0-11.5625 5.148437-10.890625 11.460937.5625 5.328125 4.890625 9.792969 10.238281 11.066406-.914062-1.496093-1.519531-3.15625-1.707031-4.921875-.671875-6.316406 4.214844-11.433594 10.890625-11.433594 1.050782 0 2.074219.132813 3.070313.371094-2.351563-3.859375-6.785157-6.542968-11.601563-6.542968zm0 0"/><path d="m472.277344 262.351562c1.304687.042969 2.554687.71875 3.296875 1.902344 1.191406 1.898438.621093 4.414063-1.277344 5.605469-.398437.246094-.820313.414063-1.253906.511719-.355469.082031-.722657.074218-1.078125.054687.003906-.054687 0-.109375 0-.171875 0-2.414062-1.453125-4.503906-3.527344-5.429687.148438-.355469.316406-.691407.566406-.996094.269532-.324219.59375-.613281.96875-.851563.714844-.445312 1.519532-.652343 2.304688-.625zm0 0" fill="#ffd200"/><path d="m529.128906 263.261719c2.089844 0 4.097656.640625 5.828125 1.707031-6.515625 1.257812-11.203125 7.015625-10.519531 13.738281-2.078125-1.722656-3.597656-4.039062-3.871094-6.601562-.527344-4.984375 3.097656-8.84375 8.5625-8.84375zm0 0" fill="#ffd200"/><path d="m459.164062 265.707031c.472657.03125.898438.164063 1.308594.339844.332032.140625.636719.328125.914063.542969-.789063 1.007812-1.253907 2.285156-1.253907 3.664062 0 1.085938.292969 2.085938.796876 2.960938-.34375.214844-.703126.382812-1.109376.484375-.390624.09375-.796874.140625-1.222656.113281-2.238281-.15625-3.933594-2.089844-3.78125-4.324219s2.113282-3.9375 4.347656-3.78125zm0 0" fill="#ffd200"/><path d="m466.050781 266.304688c2.171875 0 3.925781 1.785156 3.925781 3.957031 0 2.167969-1.753906 3.925781-3.925781 3.925781s-3.925781-1.757812-3.925781-3.925781c0-2.171875 1.753906-3.957031 3.925781-3.957031zm0 0" fill="#ffd200"/><path d="m471.933594 270.820312c.390625.046876.761718.136719 1.136718.289063.390626.152344.769532.339844 1.109376.621094 1.71875 1.441406 1.921874 4 .484374 5.71875s-4 1.949219-5.71875.511719c-.359374-.300782-.625-.667969-.851562-1.054688-.179688-.304688-.296875-.628906-.398438-.964844 2.289063-.664062 4-2.675781 4.238282-5.121094zm0 0" fill="#ffd200"/><path d="m461.128906 273.558594c1.0625 1.570312 2.875 2.613281 4.917969 2.613281.433594 0 .847656-.054687 1.25-.144531.089844.375.140625.75.117187 1.140625-.027343.421875-.089843.835937-.257812 1.253906-.835938 2.078125-3.210938 3.082031-5.289062 2.246094-2.078126-.835938-3.113282-3.214844-2.277344-5.289063.171875-.421875.40625-.789062.6875-1.113281.242187-.28125.539062-.511719.851562-.707031zm0 0" fill="#ffd200"/><path d="m490.878906 283.226562c-3.652344 0-5.972656.769532-5.972656 1.878907 0 1.105469 2.320312 1.847656 5.972656 1.847656.972656 0 2.074219-.566406 2.074219-1.847656 0-1.285157-1.105469-1.878907-2.074219-1.878907zm0 0"/><path d="m504.957031 283.226562c-.976562 0-2.078125.59375-2.078125 1.878907 0 1.28125 1.101563 1.847656 2.078125 1.847656 3.648438 0 5.96875-.738281 5.96875-1.847656s-2.320312-1.878907-5.96875-1.878907zm0 0"/><path d="m611.164062 218.695312-6.3125 4.605469.710938 1.507813s-1.152344.398437-1.679688 1.421875c-.519531 1.027343.34375 2.476562.34375 2.476562s-6-.523437-6.9375.085938c-.851562.546875.359376 4.707031-.199218 8.21875-.777344 4.894531-2.710938 4.480469-2.789063 5.429687-.074219.921875.738281 2.363282.738281 2.363282s-1.125.351562-1.363281.824218c-.386719.753906.265625 2.152344-.199219 3.070313-2.613281 5.121093-6.46875 12.6875-9.015624 17.691406-.359376.695313-1.3125.964844-1.792969 1.902344-.441407.871093-.082031 2.132812-.082031 2.132812s-1.691407.101563-2.277344 1.253907c-.625 1.222656-.257813 2.871093-.257813 2.871093s-1.070312.136719-1.59375 1.167969c-.558593 1.097656.390625 1.675781.144531 2.160156-3.425781 6.722656-7.460937 14.648438-9.925781 19.480469-.90625 1.78125-4.078125 2.136719-5.914062 5.746094-1.789063 3.503906.765625 6.085937.765625 6.085937s-2.652344.242188-3.355469 1.625c-.71875 1.40625-.152344 3.542969 1.765625 4.519532 1.910156.976562 4.003906.1875 4.722656-1.222657.699219-1.382812-.714844-3.667969-.714844-3.667969s3.589844.515626 5.375-2.988281c1.839844-3.609375.289063-6.355469 1.195313-8.132812 2.460937-4.832031 6.5-12.757813 9.925781-19.480469.246094-.488281 1.257813-.066406 1.820313-1.167969.523437-1.027343 0-1.960937 0-1.960937s1.566406-.683594 2.191406-1.90625c.585937-1.152344-.316406-2.589844-.316406-2.589844s1.238281-.4375 1.679687-1.308594c.480469-.9375.125-1.859375.484375-2.558594 2.550781-5.003906 6.402344-12.566406 9.015625-17.691406.46875-.917968 1.972656-1.230468 2.359375-1.988281.238281-.46875-.140625-1.59375-.140625-1.59375s1.660156-.164063 2.359375-.765625c.722657-.621094-.742187-1.953125 2.761719-5.460938 2.511719-2.519531 6.5625-3.996093 6.507812-5.007812-.054687-1.117188-4.007812-5.660156-4.007812-5.660156s1.667969-.140625 2.1875-1.164063c.523438-1.027343.171875-2.21875.171875-2.21875l1.648437-.285156v-7.824219zm-59.351562 112.65625c-.8125.082032-1.316406.558594-1.480469.878907-.246093.488281-.292969 1.152343 0 1.734375 0 0-1.988281-.621094-2.671875-.285156-.644531.320312 0 9.703124 0 9.703124s7.941406-5.011718 7.820313-5.71875c-.128907-.75-1.792969-2.019531-1.792969-2.019531.644531-.101562 1.148438-.507812 1.394531-.996093.261719-.511719.296875-1.984376-1.507812-2.898438-.675781-.34375-1.277344-.449219-1.765625-.398438zm0 0"/><path d="m490.394531 112.976562c-1.984375 0-4.914062.054688-6.628906 1.195313-1.566406 1.042969-1.4375 2.398437-1.988281 2.871094-1.292969 1.121093-3.511719 1.082031-4.582032 1.082031-6.910156 0-7.164062 7.394531-7.164062 7.394531s1.765625-2.671875 4.890625-2.671875c5.195313 0 9.128906 2.828125 9.128906 3.894532 0 .433593-.535156.511718-.566406.511718-3.394531 0-8.515625-1.953125-11.238281-2.046875v1.082031c.039062.023438.0625.054688.117187.082032-.039062-.003906-.074219-.019532-.117187-.023438v.195313c6.074218 2.113281 12.230468 5.101562 12.230468 18.285156 0 8.304687-.992187 16.773437-5.148437 23.4375-1.46875 2.359375-3.5625 4.375-6.082031 6.171875-1.125-.339844-6.398438-1.976562-10.097656-4.039062-6.515626-3.628907-9.894532-7.238282-17.636719-7.59375v-5.886719c0-3.144531 1.140625-5.980469 1.140625-8.988281-3.261719-.871094-12.320313-11.949219-20.675782-16.863282-12.296874 7.960938-21.816406 21.035156-21.816406 27.046875 0 0 .371094 129.171875 0 174.171875 0 2.59375-1.5625 6.257813-1.5625 6.257813 4.488282-1.898438 12.714844-13.15625 14.449219-17.433594v2.046875c6.777344-3.089844 11.738281-11.210938 13.964844-15.414062.039062.605468.140625 2.132812.140625 2.132812 6.054687-5.308594 13.765625-36.691406 13.765625-36.691406l-.398438-6.59375s-5.332031 25.617187-11.402343 30.882812v-110.320312l4.804687 4.464844 7.28125-6.796876v-5.175781l-6.457031 6.027344v-15.613281c.972656-1.472656 1.617187-2.570313 2.105468-3.441406 1.042969 1.820312 4.421876 7.402343 8.390626 10.835937.648437-2.652344 4.945312-5.175781 4.945312-5.175781s1.542969 4.171875 3.898438 5.203125c.828124-1.460938 5.773437-4.691407 5.773437-4.691407s-4.230469.644532-5.945313 2.246094c-1.472656-.328125-1.847656-6.144531-1.847656-6.144531s-6.226562 3.03125-7.308594 5.207031c-1.1875-.320312-3.035156-4.996094-3.757812-6.914062 1.089844-.117188 2.621094-.253906 4.636719-.253906 1.777343 0 4.046875.839843 6.429687 1.960937 2.613282 1.230469 5.347656 2.792969 7.792969 3.898437 3.128906 1.414063 7.859375 1.703126 9.242187 1.761719-1.582031 1.113281-3.316406 2.125-5.203124 3.070313 0 0 7.449218-.066406 12.683593-2.667969 1.867188-1.203125 3.804688-2.398437 5.460938-3.8125-.71875 1.992187-1.835938 4.351563-3.585938 6.367187 7.6875-.648437 11.515625-5.039062 12.601563-6.511718.507812 1.320312 1.417968 3.4375 2.84375 5.261718 1.425781-1.824218 2.359375-3.941406 2.871094-5.261718 1.085937 1.472656 4.914062 5.863281 12.601562 6.511718-1.75-2.015624-2.867188-4.375-3.585938-6.367187 1.65625 1.410156 3.59375 2.609375 5.460938 3.8125 5.234375 2.601563 12.683594 2.667969 12.683594 2.667969-1.886719-.945313-3.652344-1.960938-5.230469-3.070313 1.328125-.050781 6.117187-.335937 9.269531-1.761719 2.441406-1.105468 5.179688-2.667968 7.792969-3.898437 2.382813-1.121094 4.65625-1.960937 6.429687-1.960937 2.015626 0 3.546876.136718 4.632813.253906-.71875 1.917968-2.5625 6.59375-3.753906 6.914062-1.082031-2.175781-7.308594-5.207031-7.308594-5.207031s-.378906 5.816406-1.847656 6.144531c-1.714844-1.601562-5.945313-2.246094-5.945313-2.246094s4.945313 3.230469 5.773438 4.691407c2.359375-1.03125 3.871094-5.203125 3.871094-5.203125s4.320312 2.523437 4.976562 5.175781c3.964844-3.433594 7.34375-9.011719 8.386719-10.835937.507812.898437 1.179687 2.039062 2.105469 3.441406v15.613281l-6.457032-6.027344v5.175781l7.28125 6.796876 4.804688-4.464844v110.320312c-6.070313-5.265625-11.402344-30.882812-11.402344-30.882812l-.398438 6.59375s7.710938 31.382812 13.765626 36.691406c0 0 .105468-1.527344.140624-2.132812 2.222657 4.203124 7.1875 12.324218 13.964844 15.414062v-2.046875c1.730469 4.277344 9.960938 15.535156 14.449219 17.433594 0 0-1.566406-3.664063-1.566406-6.257813-.367188-45 0-174.171875 0-174.171875 0-6.015625-9.515625-19.082031-21.8125-27.046875-8.355469 4.914063-17.410157 15.992188-20.675781 16.863282 0 3.007812 1.136718 5.84375 1.136718 8.988281v5.859375c-7.726562.363281-11.125 3.996094-17.632812 7.621094-3.722656 2.074218-9.054688 3.71875-10.121094 4.039062-2.523438-1.789062-4.589844-3.8125-6.058594-6.171875-3.539062-5.679687-5.035156-12.652344-5.035156-19.738281 0-2.996094 3.355469-6.367188 3.355469-8.789063 0-3.660156-.339844-5.855469-.339844-5.855469 1.1875.160157 3.269531 2.273438 3.269531 2.273438s-.074218-6.078125-1.992187-7.140625c0 0 .777343-.796875 3.585937-.878906-.789062-1.996094-4.695312-4.4375-4.695312-4.4375.195312-.347657.558594-.652344 1.023437-.910157.984375-.542968 2.359375-.898437 3.414063-1.109374-1.125-.234376-2.417969-.589844-3.839844-1.050782-3.242188-1.058594-7.066406-2.613281-10.636719-4.324218-6.515625-3.125-11.480469-3.328126-14.21875-3.328126zm.140625 1.792969c.605469.007813 1.167969.027344 1.648438.027344 6.367187 0 10.84375 2.902344 16.867187 5.574219 1.582031.699218 3.027344 1.269531 4.324219 1.707031-.8125.71875-1.441406 1.441406-1.625 2.046875 0 0 2.699219.5 3.925781 2.761719 0 0-2.566406.292969-2.984375 1.792969 1.4375.105468 2.867188 1.917968 2.871094 3.667968l-3.640625-1.136718s.882813 4.085937.882813 8.53125c0 2.269531-3.269532 4.9375-3.269532 8.789062 0 12.074219 3.039063 16.714844 5.207032 20.445312.84375 1.460938 1.53125 3.144532 2.953124 4.410157-6.230468-3.320313-10.863281-7.464844-10.863281-11.320313v-14.589844h-1.621093v14.589844c0 2.792969.683593 4.09375.683593 4.09375.976563 3.09375 2.953125 7.863282 4.179688 9.785156-5.734375-3.097656-8.644531-6.980468-8.644531-8.417968v-20.050782h-1.621094v20.335938l.3125 1.394531c-.695313 1.042969-1.597656 2.277344-2.21875 2.699219-.617188-.417969-1.492188-1.660156-2.191406-2.699219l.3125-1.394531v-20.335938h-1.621094v20.050782c0 1.4375-2.910156 5.320312-8.644532 8.417968 1.222657-1.921874 3.203126-6.691406 4.179688-9.785156 0 0 .683594-1.300781.683594-4.09375v-14.589844h-1.621094v14.589844c0 3.847656-4.617188 8-10.835938 11.320313 1.410157-1.269531 2.085938-2.957031 2.929688-4.410157 2.363281-4.082031 5.289062-9.269531 5.289062-24.03125 0-5.542968-.820312-9.308593-2.246093-11.945312-.433594-.871094-1.019531-3.183594 2.304687-3.183594 1.71875 0 5.65625 3.042969 5.65625 3.042969s-.164062-2.429687-2.160156-3.8125c-.332031-.230469-.882812-.953125-.882812-1.621094 0-.503906.863281-1.742187 1.535156-2.046875.464844-.210937-6.769532-1.472656-6.769532-4.75 0-.683594.433594-1.136718 1.933594-1.136718 1.972656 0 5.175782 2.359374 8.023438 2.359374 2.105468 0 2.933594-.511718 5.089844-.511718 2.632812 0 8.128906 4.988281 10.007812 4.804687-2.097656-1.320312-5.496094-6.316406-10.632812-6.316406-1.785157 0-3.398438.398437-5.0625.398437-2.136719 0-4.238282-1.960937-6.542969-1.960937-1.546875 0-3.269531.085937-3.527344-.3125-.445313-.699219-.042969-1.101563.371094-1.675781.78125-1.089844 2.980469-1.40625 5.148437-1.480469.648438-.023437 1.300782-.035156 1.902344-.027344zm-64.558594 21.898438v.027343s11.421876 10.46875 15.273438 11.804688l.140625 3.527344v10.378906c-2.789063-.960938-6.292969-5.539062-7.992187-7.964844v-1.417968c0-1.339844.785156-2.316407 1.363281-2.84375l-1.675781-.597657c-.640626.726563-1.335938 1.8125-1.335938 3.210938v.824219l-.539062.570312-.285157.316406-4.179687 4.492188-4.921875-7.453125v-1.820313c0-1.226562.941406-2.59375 1.734375-3.527344l-1.648438-.59375c-.832031 1.078126-1.707031 2.53125-1.707031 3.894532v1.476562c-1.15625 1.199219-5.660156 5.832032-5.660156 5.832032s-2.257813-4.855469-2.871094-6.171876c3.445313-4.773437 9.035156-10.121093 14.304687-13.964843v.003906zm143.878907 0c5.253906 3.835937 10.847656 9.199219 14.304687 13.964843-.613281 1.316407-2.871094 6.171876-2.871094 6.171876s-4.503906-4.632813-5.660156-5.832032v-1.476562c0-1.363282-.875-2.820313-1.707031-3.894532l-1.652344.59375c.792969.933594 1.738281 2.300782 1.738281 3.527344v1.820313l-4.921874 7.453125-4.179688-4.496094-.285156-.3125-.539063-.570312v-.824219c0-1.398438-.699219-2.484375-1.335937-3.214844l-1.679688.597656c.578125.53125 1.367188 1.507813 1.367188 2.847657v1.417968c-1.703125 2.425782-5.203125 7.003906-7.992188 7.964844v-10.378906l.140625-3.527344c3.847657-1.335938 15.273438-11.804688 15.273438-11.804688zm-160.179688 17.148437 2.617188 4.75v8.5625l-3.980469 3.695313v-12.710938c0-1.21875.507812-2.683593 1.363281-4.296875zm176.472657 0c.855468 1.613282 1.367187 3.078125 1.367187 4.296875v12.710938l-3.984375-3.695313v-8.5625zm-166.035157 1.082032 4.582031 6.96875v5.289062l-4.582031 4.296875zm155.601563 0v16.554687l-4.582032-4.296875v-5.289062zm-157.222656 1.25v15.273437l-4.578126-4.265625v-6.199219l4.578126-4.804687zm158.835937 0 4.582031 4.808593v6.199219l-4.582031 4.265625zm-144.789063 1.109374c.695313 1.148438 3.855469 6.265626 6.855469 7.738282-1.0625 1.503906-3.847656 5.179687-6.855469 6.796875zm130.742188 0v14.53125c-3.003906-1.613281-5.789062-5.289062-6.855469-6.792968 3.003907-1.472656 6.167969-6.589844 6.855469-7.738282zm-132.363281.742188v13.421875l-4.578125-4.265625v-4.75zm133.984375 0 4.582031 4.40625v4.75l-4.582031 4.265625zm-152.613282 14.304688v13.394531l-3.976562-3.726563v-5.945312zm171.242188 0 3.984375 3.722656v5.945312l-3.984375 3.726563zm-169.625.027343 2.621094 2.445313 1.960937 1.820312v4.808594l-1.960937 1.820312-2.621094 2.445313zm10.78125 0v13.339844l-2.617188-2.445313-1.960937-1.847656v-4.75l1.960937-1.851562zm1.648438 0 4.582031 4.296875v4.75l-1.992188 1.875-2.589843 2.417969zm10.78125 0v13.367188l-2.617188-2.445313-1.964844-1.847656v-4.464844c1.582032-.964844 3.167969-2.738281 4.578125-4.609375zm121.582031 0c1.414062 1.871094 3 3.644531 4.578125 4.609375v4.464844l-1.960938 1.847656-2.617187 2.445313zm10.78125 0v13.339844l-2.589844-2.417969-1.988281-1.875v-4.75zm1.648437 0 2.613282 2.445313 1.964843 1.851562v4.75l-1.964843 1.847656-2.613282 2.445313zm10.777344 0v13.339844l-2.617188-2.445313-1.960937-1.820312v-4.804688l1.960937-1.820312zm-161.226562 14.761719 4.832031 4.523438 4.835937-4.496094v110.351562s.339844 5.472656.570313 9.042969c-2.148438 2.171875-10.238281 10.351563-10.238281 10.351563v-129.777344zm154.460937 0v129.773438s-8.089844-8.179688-10.238281-10.355469c.230468-3.566407.566406-9.042969.566406-9.042969v-110.347656l4.835938 4.496094 4.835937-4.527344zm-157.222656.027344v125.625c0 3.546875-6.476563 11.816406-9.613281 13.707031v-139.300781l4.777343 4.464844zm159.980469 0 4.832031 4.496094 4.777343-4.46875v139.304687c-3.132812-1.894531-9.609374-10.164063-9.609374-13.710937zm-120.132813 98.6875s-4.648437 9.433594-6.457031 11.121094c0 0 1.210937.15625 2.585937.144531-.84375 1.214843-7.300781 10.511719-9.328125 14.019531-1.894531 3.28125-3.230468 1.820312-6.140625 1.820312-2.417969 0-7.890625 3.847657-8.789062 5.40625-.945313 1.632813-1.648438 3.621094-1.648438 5.261719 0 1.796875 1.90625 4.265625 1.90625 4.265625.203125-.863281.566407-1.167968.566407-1.167968s5.007812 6.238281 5.746093 7.050781c.574219.636719 3.132813 1.050781 4.039063.230469 2.257812-2.054688 4.445312-3.488282 6.457031-6.457032 1.03125-1.527344 1.113281-3.28125 2.300781-4.921875 3.980469-5.488281 11.898438-16 13.707032-18.398437.121093.667968.226562 1.226562.34375 1.90625 2.050781-4.144532 11.914062-12.0625 11.914062-12.0625l-2.730469-1.789063s-5.945312 6.933594-7.878906 8.21875c0 0-.824219-3.445312-1.304687-4.664062 0 0-2.28125 1.726562-3.527344 1.765625 0 0-.371094-2.339844-.65625-3.871094-1.566406 1.046875-4.179688.828125-4.179688.828125 2.292969-1.089844 5.007813-7.738281 5.007813-7.738281l-1.933594-.96875v.003906zm80.285156 0-1.933593.96875s2.714843 6.648437 5.007812 7.738281c0 0-2.613281.21875-4.179688-.824219-.285156 1.527344-.65625 3.867188-.65625 3.867188-1.246093-.039063-3.527343-1.765625-3.527343-1.765625-.484375 1.21875-1.308594 4.664062-1.308594 4.664062-1.929687-1.285156-7.878906-8.21875-7.878906-8.21875l-2.726563 1.789063s9.863282 7.917968 11.914063 12.0625c.117187-.679688.21875-1.238282.339843-1.90625 1.808594 2.398437 9.730469 12.910156 13.707032 18.402344 1.191406 1.640624 1.269531 3.390624 2.308594 4.917968 2.007812 2.96875 4.195312 4.402344 6.453124 6.457032.902344.820312 3.464844.410156 4.039063-.230469.738281-.8125 5.742187-7.046875 5.742187-7.046875s.367188.300781.570313 1.164062c0 0 1.90625-2.46875 1.90625-4.265625 0-1.640625-.707031-3.628906-1.648437-5.261719-.898438-1.558593-6.375-5.40625-8.789063-5.40625-2.914063 0-4.246094 1.460938-6.144531-1.820312-2.023438-3.507812-8.480469-12.804688-9.328125-14.019531 1.375.011719 2.589843-.140625 2.589843-.140625-1.8125-1.691406-6.457031-11.125-6.457031-11.125h.003907zm-80.945312 10.640625s-.035157 3.195312.96875 4.320312l3.527343-2.417969s.234376 1.167969.539063 2.761719c-1.507813 2.0625-10.183594 13.902344-14.476563 19.679688-1.066406 1.433593-1.960937 5.089843-1.960937 5.089843s-1.566406-.738281-1.566406-2.074218c0-1.3125.171875-2.871094.171875-2.871094s-1.167969 1.332031-3.183594 1.332031c0-1.609375 3.117188-3.359375 3.242188-5.65625-2.378907 1.761719-4.445313.859375-7.195313 1.707031-2.996094.921876-3.832031 2.183594-4.75 2.132813-.542969-.03125-1.03125-.960937-.824219-1.535156.359375-.992188 4.0625-3.742188 6.652344-4.238281.621094-.117188 5.503906 1.0625 6.488281-.453126 4.050781-6.253906 10.625-16.398437 11.257813-17.378906.417968-.101562.804687-.207031 1.109375-.398437zm81.597656 0c.304687.191406.691406.296875 1.109375.394531.632812.980469 7.210938 11.128906 11.261719 17.378906.980469 1.519532 5.863281.335938 6.484375.457032 2.589844.496093 6.292968 3.242187 6.652344 4.234374.210937.574219-.28125 1.507813-.824219 1.535157-.917969.050781-1.753907-1.207031-4.75-2.128907-2.75-.851562-4.816407.054688-7.195313-1.707031.125 2.292969 3.242188 4.042969 3.242188 5.65625-2.015625 0-3.183594-1.335937-3.183594-1.335937s.171875 1.558594.171875 2.871094c0 1.335937-1.566406 2.078124-1.566406 2.078124s-.894531-3.65625-1.960938-5.09375c-4.292969-5.773437-12.964843-17.617187-14.476562-19.679687.304687-1.59375.542969-2.757813.542969-2.757813l3.523437 2.414063c1.003906-1.125.96875-4.320313.96875-4.320313zm-53.410156 2.328125s-19.273438 44.300781-36.378907 51.113281c0 0 7.445313 3.160156 16.582032 7.90625 1.332031.691406 2.707031 1.433594 4.09375 2.1875 1.152344-1.386719 2.363281-2.921875 3.558594-4.519531 5.460937-7.3125 10.804687-15.785156 10.804687-15.785156.375 2.199218-2.511719 8.996093-7.394531 17.375-.960938 1.648437-1.960938 3.371093-3.070313 5.121093 1.238281.707031 2.464844 1.421875 3.699219 2.160157 9.050781 5.449218 17.554688 11.710937 20.703125 17.464843 3.152344-5.753906 11.652344-12.015625 20.703125-17.464843 1.230469-.738282 2.460938-1.453126 3.699219-2.160157-1.113281-1.75-2.113281-3.472656-3.070313-5.121093-4.882812-8.378907-7.765625-15.175782-7.394531-17.375 0 0 5.34375 8.472656 10.804687 15.785156 1.195313 1.597656 2.40625 3.132812 3.554688 4.519531 1.390625-.753906 2.765625-1.496094 4.097656-2.1875 9.136719-4.746094 16.578125-7.90625 16.578125-7.90625-17.101562-6.8125-36.375-51.113281-36.375-51.113281l-2.84375.828125s15.371094 38.277343 30.402344 49.855469c-3.417969 1.03125-7.417969 2.503906-11.546875 4.265624-5.015625-5.875-10.203125-13.796874-14.417969-20.847656-4.550781-7.605468-8.277343-20.960937-8.277343-20.960937-2.109376 5.125 2.386718 30.867187 11.460937 47.15625-7.5 3.90625-14.179687 8.140625-17.375 11.605469-3.195313-3.464844-9.871094-7.699219-17.378906-11.605469 9.078125-16.289063 13.570312-42.03125 11.460937-47.15625 0 0-3.722656 13.355469-8.277344 20.960937-4.210937 7.050782-9.402343 14.972656-14.417968 20.847656-4.125-1.761718-8.125-3.234374-11.546875-4.265624 15.035156-11.578126 30.402343-49.855469 30.402343-49.855469zm-50.265625 21.273437c.132812.015625.273437.085938.375.199219.195312.226562.175781.558594-.03125.742188l-1.59375 1.390624c-.207032.179688-.542969.144532-.738282-.085937-.195312-.226563-.179687-.558594.027344-.738281l1.59375-1.394532c.105469-.089843.238282-.128906.371094-.113281zm125.90625 0c.132812-.015625.265625.023438.371094.113281l1.59375 1.394532c.207031.179687.226562.515625.027343.738281-.195312.230469-.53125.265625-.738281.085937l-1.589844-1.390624c-.210937-.183594-.230468-.515626-.03125-.742188.097656-.109375.238282-.183594.367188-.199219zm-124.226563 1.394531c.398438-.03125.8125.140626 1.109375.484376.476563.546874.445313 1.324218-.054687 1.761718l-3.871094 3.386719c-.503906.4375-1.3125.351563-1.792969-.199219-.472656-.550781-.445312-1.355468.058594-1.792968l3.867188-3.355469c.191406-.164063.449218-.265625.683593-.285157zm122.238281 0c.101563-.015624.214844-.007812.3125 0 .238282.019532.496094.121094.683594.28125l3.867188 3.359376c.503906.4375.535156 1.242187.058594 1.792968-.476563.546875-1.289063.636719-1.789063.195313l-3.871094-3.382813c-.503906-.4375-.53125-1.214844-.054687-1.765625.222656-.253906.496094-.429687.792968-.480469zm-120.046874 2.617188c.390624-.035156.835937.140625 1.136718.480469.476563.550781.445313 1.328125-.058594 1.765625l-3.894531 3.382812c-.503906.4375-1.285156.351563-1.765625-.195312-.476562-.550782-.445312-1.355469.058594-1.792969l3.867188-3.355469c.1875-.164062.417968-.265625.65625-.285156zm117.855468 0c.101563-.015625.210938-.007812.308594 0 .242188.019531.46875.121094.65625.285156l3.871094 3.355469c.5.4375.53125 1.242187.054687 1.792969-.476562.546875-1.261719.632812-1.765625.195312l-3.894531-3.382812c-.5-.4375-.535156-1.214844-.058594-1.765625.226563-.253907.523438-.429688.828125-.480469zm-115.386718 2.558594c.398437-.03125.8125.113281 1.109374.457031.476563.546875.449219 1.351563-.054687 1.789063l-3.867187 3.355468c-.503907.441406-1.289063.351563-1.765626-.195312-.472656-.550782-.472656-1.328125.03125-1.765625l3.894532-3.382813c.1875-.164062.417968-.238281.652344-.257812zm112.914062 0c.097656-.015625.214844-.007813.3125 0 .238281.019531.464844.09375.652344.257812l3.898437 3.382813c.503907.4375.503907 1.214843.027344 1.765625-.476563.546875-1.261719.636718-1.761719.195312l-3.871094-3.355468c-.503906-.4375-.535156-1.242188-.054687-1.789063.222656-.257813.496094-.414063.796875-.457031zm0 0"/><path d="m610 221-3.699219 2.617188 1.878907.96875 1.875.9375zm-3.585938 4.351562c-.667968.046876-1.261718.40625-1.5625.996094-.480468.949219-.015624 2.15625 1.050782 2.703125 1.070312.542969 2.304687.207031 2.789062-.742187.484375-.945313.011719-2.15625-1.050781-2.699219-.398437-.207031-.820313-.285156-1.226563-.257813zm-6.96875 4.351563c-.554687.007813-.960937.023437-1.046874.085937-.398438.257813.140624 3.636719.023437 6.511719-.105469 2.714844-.976563 3.476563-1.449219 4.410157-.4375.859374-2.019531 1.875-2.019531 1.875l1.308594 1.308593s.851562-1.324219 2.191406-3.953125c1.578125-3.101562 1.527344-8.714844 1.992187-9.015625.402344-.261719 3.695313-1.082031 3.695313-1.082031s-3.023437-.160156-4.691406-.140625zm5.746094.769531s-3.464844.664063-3.953125 1.136719c-.472656.457031-.265625 5.148437-2.105469 8.761719-1.523437 2.992187-2.273437 4.09375-2.273437 4.09375l.9375.484375.9375.453125s.4375-1.214844 1.964844-4.207032c1.839843-3.609374 5.765625-6.230468 5.855469-6.886718.097656-.671875-1.363282-3.835938-1.363282-3.835938zm1.109375.453125s1.253907 3.160157 1.28125 3.640625c.03125.550782-4.535156 3.8125-6.113281 6.910156-1.339844 2.628907-1.910156 4.097657-1.910156 4.097657l1.820312.285156s-.121094-1.875.316406-2.734375c.476563-.929688.601563-2.070312 2.730469-3.75 2.257813-1.785156 5.316407-3.34375 5.289063-3.816406-.023438-.433594-3.414063-4.632813-3.414063-4.632813zm-10.292969 14.90625c-.574218.058594-.992187.425781-1.222656.878907-.347656.679687-.160156 1.585937-2.902344 6.96875-1.203124 2.359374-1.6875 3.308593-2.988281 5.859374-1.320312 2.59375-3.242187 6.339844-3.242187 6.339844s-.652344 1.199219.570312 1.820313c1.21875.621093 1.761719-.625 1.761719-.625s1.921875-3.75 3.242187-6.34375c1.300782-2.550781 1.785157-3.527344 2.988282-5.886719 2.742187-5.378906 3.578125-5.746094 3.925781-6.425781.371094-.730469.28125-1.710938-.941406-2.332031-.457031-.234376-.847657-.292969-1.191407-.253907v-.003906zm-11.804687 22.4375c-.460937.039063-.824219.234375-.996094.566407-.335937.667968.242188 1.648437 1.308594 2.191406 1.066406.542968 2.222656.441406 2.5625-.226563.335937-.667969-.273437-1.648437-1.339844-2.191406-.53125-.273437-1.074219-.378906-1.535156-.339844zm-1.589844 3.269531c-.765625-.035156-1.433593.226563-1.707031.765626-.441406.863281.242188 2.105468 1.535156 2.761718 1.289063.65625 2.6875.492188 3.128906-.371094.4375-.863281-.25-2.097656-1.535156-2.757812-.488281-.246094-.964844-.378906-1.421875-.398438zm-2.164062 4.070313c-.460938.039063-.824219.230469-.996094.566406-.335937.664063.242187 1.644531 1.308594 2.191407 1.066406.542968 2.21875.4375 2.558593-.226563.339844-.667969-.242187-1.648437-1.304687-2.191406-.535156-.273438-1.105469-.382813-1.566406-.339844zm-.9375 3.496094c-.671875.085937-.996094.769531-.996094.769531s-6.917969 13.609375-9.355469 18.398438c-.78125 1.53125-4.0625 2.484374-5.347656 5.007812-1.292969 2.539062-.382812 4.910156 1.308594 5.769531 1.6875.863281 4.164062.238281 5.460937-2.300781 1.285157-2.519531.128907-5.75.90625-7.28125 2.441407-4.789062 9.359375-18.402344 9.359375-18.402344s.679688-1.195312-.542968-1.820312c-.300782-.152344-.570313-.167969-.792969-.140625zm-16.695313 31.339843c-.777344.023438-1.46875.390626-1.792968 1.023438-.515626 1.015625.074218 2.375 1.339843 3.015625 1.257813.644531 2.722657.335937 3.238281-.683594.519532-1.015625-.101562-2.371093-1.363281-3.011719-.472656-.242187-.957031-.355468-1.421875-.34375zm-11.007812 21.816407c-.394532.011719-.722656.136719-.851563.394531-.265625.523438.28125 1.34375 1.222657 1.820312.941406.480469 1.925781.433594 2.191406-.082031.261718-.523437-.285156-1.34375-1.222656-1.820312-.472657-.242188-.941407-.328125-1.339844-.316407zm-3.242188 2.558593v6.710938l5.460938-3.925781s-.738282-1.308594-2.359375-2.132813c-1.621094-.824218-3.101563-.652344-3.101563-.652344zm0 0" fill="#f5d402"/><path d="m414.660156 295.886719s3.085938 6.375 5.433594 7.25c-1.214844-.332031-5.152344 1.113281-5.152344 1.113281s6.945313 6.203125 12.832032 6.613281c4.996093.339844 7.421874-2.152343 7.421874-2.152343l-1.003906-5.289063s-3.050781-3.691406-7.945312-5.394531c-4.941406-1.722656-11.585938-2.136719-11.585938-2.136719zm0 0"/><path d="m437.921875 284.472656s-4.261719 3.644532-5.425781 7.871094c-1.167969 4.226562.757812 9.027344.757812 9.027344l3.582032 6.675781s4.960937-2.636719 7.070312-6.585937c2.113281-3.953126 1.339844-9.277344 1.339844-9.277344s-3.933594 1.464844-4.429688 2.109375c.824219-4.378907-2.894531-9.820313-2.894531-9.820313zm0 0"/><path d="m424.226562 282.765625s-4.84375 1.640625-9.550781 1.355469c-4.480469-.269532-8.210937-4.035156-8.210937-4.035156s3.71875-2.515626 5.550781-2.175782c-2.015625-.738281-4.941406-5.792968-4.941406-5.792968s4.15625-1.257813 7.84375.132812c3.683593 1.390625 6.898437 5.425781 6.898437 5.425781l2.414063 5.089844zm0 0"/><path d="m425.894531 259.101562s2.421875 5.015626 1.847657 6.757813c.75-1.160156 3.597656-2.964844 3.597656-2.964844s1.71875 8.125.074218 13.140625c-1.640624 5.015625-6.648437 6.925782-6.648437 6.925782l-5.527344-10.742188s-.820312-3.976562.902344-7.128906c1.71875-3.152344 5.753906-5.992188 5.753906-5.992188zm0 0"/><path d="m394.367188 245.816406s5.238281-.550781 10.027343 1.4375c4.007813 1.660156 5.234375 4.683594 5.234375 4.683594l1.972656 5.289062s-5.703124 2.136719-10.203124.5c-4.507813-1.632812-7.816407-7.042968-7.816407-7.042968s3.148438-1.191406 4.347657-.746094c-1.746094-.769531-3.5625-4.121094-3.5625-4.121094zm0 0"/><path d="m410.839844 236s2.296875 2.953125 2.367187 6.347656c.609375-1.808594 3.480469-3.800781 3.480469-3.800781s2.953125 7.144531 2.304688 12.210937c-.648438 5.070313-4.894532 8.070313-4.894532 8.070313l-5.292968-10.050781s-1.726563-4.117188-1.21875-7.3125c.507812-3.199219 3.253906-5.464844 3.253906-5.464844zm0 0"/><path d="m392.699219 216.777344s-.949219 5.476562.664062 8.628906c1.445313 2.8125 2.363281 3.429688 2.363281 3.429688-2.75-1.816407-6.910156-1.972657-6.910156-1.972657s1.480469 5.957031 5.019532 8.671875c3.539062 2.71875 8.996093 2.085938 8.996093 2.085938s3.589844-4.777344 3.339844-9.925782c-.25-5.148437-4.335937-10.664062-4.335937-10.664062s-1.613282 3.34375-1.757813 5.839844c-1.042969-2.574219-7.378906-6.09375-7.378906-6.09375zm0 0"/><path d="m394.3125 220.105469s-.140625 4 1.179688 6.269531c1.324218 2.269531 4.28125 3.175781 4.28125 3.175781s.140624-4-1.183594-6.269531c-1.324219-2.269531-4.277344-3.175781-4.277344-3.175781zm0 0" fill="#097754"/><path d="m391.542969 229.15625s3.476562.203125 5.484375 1.742188c2.003906 1.535156 2.78125 4.742187 2.78125 4.742187s-2.300782.230469-4.308594-1.304687c-2.003906-1.539063-3.957031-5.179688-3.957031-5.179688zm0 0" fill="#097754"/><path d="m402.449219 221.078125s-1.15625 2.648437-1.023438 5.507813c.132813 2.855468 1.800781 6.074218 1.800781 6.074218s1.507813-3.429687 1.375-6.289062c-.128906-2.855469-1.75-4.484375-2.152343-5.292969zm0 0" fill="#097754"/><path d="m396.601562 246.835938s1.707032 2.378906 4.332032 3.679687c2.625 1.296875 6.539062 1.34375 6.539062 1.34375s-1.953125-2.53125-4.582031-3.832031c-2.625-1.300782-6.289063-1.195313-6.289063-1.195313zm0 0" fill="#097754"/><path d="m397.445312 252.367188s1.253907 2.457031 3.546876 3.507812c2.292968 1.054688 6.984374.964844 6.984374.964844s-1.800781-2.292969-4.09375-3.347656c-2.292968-1.054688-6.4375-1.125-6.4375-1.125zm0 0" fill="#097754"/><path d="m410.648438 239.265625s-1.382813 2.292969-1.25 4.816406c.136718 2.523438 1.792968 5.285157 1.792968 5.285157s1.164063-3.164063 1.03125-5.691407c-.136718-2.523437-1.574218-4.410156-1.574218-4.410156zm0 0" fill="#097754"/><path d="m415.753906 242.503906s-2.371094 3.1875-2.710937 6.457032c-.339844 3.273437 1.351562 6.636718 1.351562 6.636718s2.863281-2.878906 3.203125-6.152344c.339844-3.269531-1.84375-6.9375-1.84375-6.9375zm0 0" fill="#097754"/><path d="m409.21875 272.726562s.285156 1.175782 1.273438 2.429688c.992187 1.25 2.6875 2.570312 2.6875 2.570312s1.636718-.527343 3.675781-.085937c2.035156.441406 4.742187 2.257813 4.742187 2.257813s-2.914062-4.351563-5.941406-6.042969c-3.027344-1.691407-6.4375-1.128907-6.4375-1.128907zm0 0" fill="#097754"/><path d="m408.917969 280.207031s3.773437-1.613281 6.878906-1.199219c3.109375.417969 5.914063 2.875 5.914063 2.875s-4.203126 1.453126-7.308594 1.039063c-3.109375-.417969-5.484375-2.714844-5.484375-2.714844zm0 0" fill="#097754"/><path d="m424.867188 262.660156s-3.335938 3.535156-3.617188 6.605469c-.28125 3.066406 2.707031 5.925781 2.707031 5.925781s-.148437-1.96875.363281-3.261718c.515626-1.296876 1.609376-2.679688 1.609376-2.679688s.464843-1.578125.285156-2.847656c-.25-1.769532-1.347656-3.742188-1.347656-3.742188zm0 0" fill="#097754"/><path d="m429.65625 266.757812s-3.144531 3.179688-3.976562 6.589844c-.832032 3.40625.648437 7.042969.648437 7.042969s2.859375-2.257813 3.691406-5.667969c.835938-3.40625-.363281-7.964844-.363281-7.964844zm0 0" fill="#097754"/><path d="m437.53125 287.300781s1.429688 2.972657 1.789062 5.460938c.359376 2.488281.027344 3.347656.027344 3.347656s-1.476562 1.449219-2.136718 2.300781c-.847657 1.097656-.972657 3.097656-.972657 3.097656s-2.957031-4.398437-2.5-7.609374c.453125-3.214844 3.792969-6.597657 3.792969-6.597657zm0 0" fill="#097754"/><path d="m443.765625 294.183594s-3.785156 2.5-5.289063 5.066406c-1.503906 2.566406-.722656 5.195312-.722656 5.195312s2.699219-.238281 4.199219-2.804687c1.503906-2.5625 1.8125-7.457031 1.8125-7.457031zm0 0" fill="#097754"/><path d="m418.878906 304.75s5.457032-.148438 8.792969.671875c3.339844.820313 4.550781 2.605469 4.550781 2.605469s-3.75 1.761718-7.085937.9375c-3.335938-.820313-6.257813-4.214844-6.257813-4.214844zm0 0" fill="#097754"/><path d="m417.953125 298.273438s2.464844 3.816406 5.648437 5.203124c4.386719 1.90625 9.46875.984376 9.46875.984376s-2.757812-3.382813-6.554687-4.878907c-3.800781-1.492187-8.5625-1.308593-8.5625-1.308593zm0 0" fill="#097754"/><path d="m435.480469 308.484375.144531 1.964844c3.265625.03125 3.75-.296875 4.585938.734375.558593.683594 1.882812 1.285156 3.214843.671875 1.332031-.605469 1.929688-2.207031 1.324219-3.539063-.609375-1.332031-1.847656-1.625-3.042969-1.386718-.730469.144531-1.214843.726562-1.835937 1.050781-1.183594.609375-4.394532.503906-4.394532.503906zm0 0"/><path d="m435.195312 306.984375 1.589844 1.160156c-1.707031 2.789063-2.238281 3.027344-1.808594 4.28125.285157.835938.09375 2.277344-1.128906 3.089844-1.226562.804687-2.898437.464844-3.707031-.757813-.808594-1.222656-.394531-2.425781.4375-3.3125.507813-.546874 1.257813-.644531 1.859375-1 1.148438-.683593 2.757812-3.460937 2.757812-3.460937zm0 0"/><path d="m424.140625 283.652344.144531 1.960937c3.265625.03125 3.75-.292969 4.585938.738281.558594.683594 1.886718 1.28125 3.21875.671876 1.332031-.609376 1.929687-2.207032 1.320312-3.539063-.609375-1.335937-1.847656-1.625-3.042968-1.386719-.734376.144532-1.214844.730469-1.835938 1.046875-1.183594.613281-4.394531.507813-4.394531.507813zm0 0"/><path d="m424.800781 284.34375 1.386719 1.398438c-2.117188 2.484374-2.679688 2.640624-2.449219 3.945312.152344.871094-.261719 2.265625-1.597656 2.875-1.332031.605469-2.933594.011719-3.542969-1.320312-.605468-1.335938-.011718-2.460938.949219-3.207032.585937-.460937 1.347656-.441406 1.996094-.699218 1.234375-.492188 3.257812-2.992188 3.257812-2.992188zm0 0"/><path d="m413.152344 260.402344.144531 1.960937c3.265625.03125 3.75-.292969 4.585937.734375.558594.6875 1.882813 1.285156 3.214844.675782 1.332032-.609376 1.933594-2.207032 1.324219-3.542969-.609375-1.332031-1.847656-1.621094-3.042969-1.382813-.730468.140625-1.214844.726563-1.835937 1.046875-1.183594.613281-4.394531.507813-4.394531.507813zm0 0"/><path d="m414.054688 259.988281 1.386718 1.398438c-2.113281 2.484375-2.675781 2.640625-2.449218 3.949219.152343.867187-.261719 2.261718-1.597657 2.867187-1.332031.609375-2.929687.011719-3.539062-1.320313-.605469-1.332031-.015625-2.457031.945312-3.207031.589844-.457031 1.34375-.4375 1.996094-.699219 1.238281-.492187 3.257813-2.988281 3.257813-2.988281v.003907zm0 0"/><path d="m401.441406 235.855469.152344 1.964843c3.261719.03125 3.746094-.296874 4.582031.734376.558594.683593 1.886719 1.285156 3.21875.675781s1.929688-2.210938 1.320313-3.542969c-.605469-1.335938-1.847656-1.621094-3.039063-1.386719-.734375.144531-1.214843.730469-1.839843 1.050781-1.179688.609376-4.394532.503907-4.394532.503907zm0 0"/><path d="m402.347656 235.445312 1.390625 1.398438c-2.117187 2.484375-2.679687 2.640625-2.449219 3.945312.152344.871094-.261718 2.265626-1.597656 2.871094-1.332031.609375-2.933594.015625-3.539062-1.320312-.613282-1.332032-.019532-2.457032.941406-3.207032.589844-.457031 1.347656-.4375 1.996094-.699218 1.238281-.492188 3.257812-2.988282 3.257812-2.988282zm0 0"/><path d="m422.066406 277.828125c-1.171875.484375-2.902344-4.605469-4.179687-7.398437-1.308594-2.863282-3.960938-7.277344-3.207031-7.625.824218-.375 1.917968 1.941406 3.253906 4.875 1.335937 2.925781 5.230468 9.691406 4.132812 10.148437zm0 0" fill="#f5d402"/><path d="m410.050781 251c-1.167969.488281-2.449219-2.847656-3.726562-5.640625-1.304688-2.863281-2.578125-4.886719-1.824219-5.226563.828125-.382812 2.046875 2.128907 3.121094 4.472657 1.035156 2.269531 3.527344 5.9375 2.429687 6.394531zm0 0" fill="#f5d402"/><path d="m437.851562 311.828125c-.921874.246094-4.929687-8.148437-8.167968-15.246094-3.242188-7.097656-5.65625-12.84375-4.898438-13.1875.824219-.378906 3.449219 6.328125 6.691406 13.429688 3.238282 7.101562 7.0625 14.820312 6.375 15.003906zm0 0" fill="#f5d402"/><path d="m471.515625 122.605469s1.34375-2.546875 4.742187-2.546875c1.417969 0 6.105469-.097656 6.105469-.097656.625 1.625 3.472657 4.335937 3.472657 7.15625 0 0-2.890626-5.210938-10.957032-5.210938-2.027344 0-3.363281.699219-3.363281.699219zm0 0" fill="#cc092f"/><path d="m481.910156 123.316406s-1.980468-.636718-1.980468-1.300781c0-.847656.960937-.847656 1.535156-.1875.398437.457031.445312 1.488281.445312 1.488281zm0 0"/><path d="m484.632812 128.109375s-1.71875 1.8125-2.09375 2.777344c-1.699218-.644531-4.664062-3.699219-4.664062-3.699219s2.515625 1.464844 6.757812.921875zm0 0" fill="#d10429"/><path d="m493.285156 123.367188c0 1.175781-1.355468 2.246093-2.84375 2.246093-1.484375 0-2.839844-1.070312-2.839844-2.246093 0-1.175782 1.355469-2.246094 2.839844-2.246094 1.488282 0 2.84375 1.070312 2.84375 2.246094zm0 0"/><path d="m492.421875 123.367188c0 1.035156-.941406 1.976562-1.980469 1.976562-1.03125 0-1.976562-.941406-1.976562-1.976562 0-1.035157.945312-1.976563 1.976562-1.976563 1.039063 0 1.980469.941406 1.980469 1.976563zm0 0" fill="#f5d402"/><path d="m491.285156 123.367188c.011719.449218-.394531.859374-.84375.859374-.441406 0-.847656-.410156-.835937-.859374-.011719-.449219.394531-.863282.835937-.863282.449219 0 .855469.414063.84375.863282zm0 0"/><path d="m438.941406 178.023438s4.839844 3.625 4.839844 7.308593v87.769531c0 2.3125.710938 3.820313 1.847656 5.289063 1.132813 1.585937 3.550782 3.777344 6.054688 5.402344 7.746094 5.03125 20.695312 10.335937 30.492187 14.792969 8.160157 3.710937 11.480469 5.210937 15.726563 10.464843 4.242187-5.253906 7.589844-6.753906 15.757812-10.464843 9.792969-4.457032 22.742188-9.761719 30.484375-14.792969 2.511719-1.625 4.925781-3.816407 6.058594-5.402344 1.132813-1.46875 1.820313-2.976563 1.820313-5.289063v-87.769531c0-3.679687 4.835937-7.308593 4.835937-7.308593h-117.917969.003906zm6.203125 2.785156h105.515625s-1.421875 1.714844-1.421875 4.519531v87.773437c0 1.914063-1.988281 6.402344-13.453125 12.113282-18.949218 9.445312-33.515625 13.855468-37.882812 19.226562-4.367188-5.371094-18.929688-9.78125-37.882813-19.226562-11.464843-5.710938-13.453125-10.199219-13.453125-12.113282v-87.773437c0-2.808594-1.421875-4.519531-1.421875-4.519531zm0 0" fill="#f5d402"/></g></svg>