<?xml version="1.0" encoding="UTF-8"?>
<svg xmlns="http://www.w3.org/2000/svg" xmlns:xlink="http://www.w3.org/1999/xlink" width="128pt" height="64pt" viewBox="0 0 128 64" version="1.1">
<g id="surface737">
<rect x="0" y="0" width="128" height="64" style="fill:rgb(76.861572%,15.293884%,18.431091%);fill-opacity:1;stroke:none;"/>
<path style=" stroke:none;fill-rule:evenodd;fill:rgb(0.392151%,31.764221%,59.214783%);fill-opacity:1;" d="M 42.667969 0 L 85.332031 0 L 85.332031 64 L 42.667969 64 Z M 42.667969 0 "/>
<path style=" stroke:none;fill-rule:evenodd;fill:rgb(97.645569%,81.175232%,0.784302%);fill-opacity:1;" d="M 27.199219 21.867188 C 27.199219 25.105469 24.574219 27.734375 21.332031 27.734375 C 18.09375 27.734375 15.464844 25.105469 15.464844 21.867188 C 15.464844 18.625 18.09375 16 21.332031 16 C 24.574219 16 27.199219 18.625 27.199219 21.867188 Z M 27.199219 21.867188 "/>
<path style=" stroke:none;fill-rule:evenodd;fill:rgb(76.861572%,15.293884%,18.431091%);fill-opacity:1;" d="M 27.734375 19.199219 C 27.734375 22.734375 24.867188 25.601562 21.332031 25.601562 C 17.796875 25.601562 14.933594 22.734375 14.933594 19.199219 C 14.933594 15.664062 17.796875 12.800781 21.332031 12.800781 C 24.867188 12.800781 27.734375 15.664062 27.734375 19.199219 Z M 27.734375 19.199219 "/>
<path style=" stroke:none;fill-rule:evenodd;fill:rgb(97.645569%,81.175232%,0.784302%);fill-opacity:1;" d="M 25.601562 20.265625 C 25.601562 22.621094 23.691406 24.535156 21.332031 24.535156 C 18.976562 24.535156 17.066406 22.621094 17.066406 20.265625 C 17.066406 17.910156 18.976562 16 21.332031 16 C 23.691406 16 25.601562 17.910156 25.601562 20.265625 Z M 25.601562 20.265625 "/>
<path style=" stroke:none;fill-rule:evenodd;fill:rgb(97.645569%,81.175232%,0.784302%);fill-opacity:1;" d="M 18.667969 12.265625 C 18.667969 12.964844 18.953125 13.660156 19.449219 14.152344 C 19.941406 14.644531 20.636719 14.933594 21.332031 14.933594 C 22.03125 14.933594 22.726562 14.644531 23.21875 14.152344 C 23.710938 13.660156 24 12.964844 24 12.265625 C 24 11.199219 23.332031 11.066406 23.332031 10.667969 C 23.332031 10.265625 23.734375 9.734375 22.933594 9.066406 C 23.332031 9.734375 22.667969 9.867188 22.667969 10.535156 C 22.667969 11.199219 22.933594 11.199219 22.933594 11.734375 Z M 18.667969 12.265625 "/>
<path style=" stroke:none;fill-rule:evenodd;fill:rgb(97.645569%,81.175232%,0.784302%);fill-opacity:1;" d="M 9.601562 28.800781 L 14.933594 28.800781 L 14.933594 54.398438 L 9.601562 54.398438 Z M 9.601562 28.800781 "/>
<path style=" stroke:none;fill-rule:evenodd;fill:rgb(97.645569%,81.175232%,0.784302%);fill-opacity:1;" d="M 27.734375 28.800781 L 33.066406 28.800781 L 33.066406 54.398438 L 27.734375 54.398438 Z M 27.734375 28.800781 "/>
<path style=" stroke:none;fill-rule:evenodd;fill:rgb(97.645569%,81.175232%,0.784302%);fill-opacity:1;" d="M 16 33.066406 L 26.667969 33.066406 L 26.667969 35.199219 L 16 35.199219 Z M 16 33.066406 "/>
<path style=" stroke:none;fill-rule:evenodd;fill:rgb(97.645569%,81.175232%,0.784302%);fill-opacity:1;" d="M 16 48 L 26.667969 48 L 26.667969 50.132812 L 16 50.132812 Z M 16 48 "/>
<path style=" stroke:none;fill-rule:evenodd;fill:rgb(97.645569%,81.175232%,0.784302%);fill-opacity:1;" d="M 16 28.800781 L 26.667969 28.800781 L 21.332031 32 Z M 16 51.199219 L 26.667969 51.199219 L 21.332031 54.398438 Z M 16 51.199219 "/>
<path style="fill-rule:evenodd;fill:rgb(97.645569%,81.175232%,0.784302%);fill-opacity:1;stroke-width:0.64;stroke-linecap:butt;stroke-linejoin:miter;stroke:rgb(76.861572%,15.293884%,18.431091%);stroke-opacity:1;stroke-miterlimit:4;" d="M 26.988281 41.601562 C 26.988281 44.722656 24.457031 47.253906 21.332031 47.253906 C 18.210938 47.253906 15.679688 44.722656 15.679688 41.601562 C 15.679688 38.476562 18.210938 35.945312 21.332031 35.945312 C 24.457031 35.945312 26.988281 38.476562 26.988281 41.601562 Z M 26.988281 41.601562 "/>
<path style="fill:none;stroke-width:0.64;stroke-linecap:butt;stroke-linejoin:miter;stroke:rgb(76.861572%,15.293884%,18.431091%);stroke-opacity:1;stroke-miterlimit:4;" d="M 21.332031 35.945312 C 22.074219 35.945312 22.808594 36.25 23.332031 36.773438 C 23.855469 37.296875 24.160156 38.035156 24.160156 38.773438 C 24.160156 39.511719 23.855469 40.25 23.332031 40.773438 C 22.808594 41.296875 22.074219 41.601562 21.332031 41.601562 C 20.59375 41.601562 19.859375 41.90625 19.335938 42.429688 C 18.8125 42.949219 18.507812 43.6875 18.507812 44.425781 C 18.507812 45.167969 18.8125 45.902344 19.335938 46.425781 C 19.859375 46.949219 20.59375 47.253906 21.332031 47.253906 "/>
<path style=" stroke:none;fill-rule:evenodd;fill:rgb(76.861572%,15.293884%,18.431091%);fill-opacity:1;" d="M 22.398438 38.773438 C 22.398438 39.363281 21.921875 39.839844 21.332031 39.839844 C 20.746094 39.839844 20.265625 39.363281 20.265625 38.773438 C 20.265625 38.183594 20.746094 37.707031 21.332031 37.707031 C 21.921875 37.707031 22.398438 38.183594 22.398438 38.773438 Z M 22.398438 38.773438 "/>
<path style=" stroke:none;fill-rule:evenodd;fill:rgb(76.861572%,15.293884%,18.431091%);fill-opacity:1;" d="M 22.398438 44.425781 C 22.398438 45.015625 21.921875 45.492188 21.332031 45.492188 C 20.746094 45.492188 20.265625 45.015625 20.265625 44.425781 C 20.265625 43.835938 20.746094 43.359375 21.332031 43.359375 C 21.921875 43.359375 22.398438 43.835938 22.398438 44.425781 Z M 22.398438 44.425781 "/>
</g>
</svg>
