<?xml version="1.0" encoding="UTF-8"?>
<svg xmlns="http://www.w3.org/2000/svg" xmlns:xlink="http://www.w3.org/1999/xlink" width="128pt" height="64pt" viewBox="0 0 128 64" version="1.1">
<g id="surface747">
<path style=" stroke:none;fill-rule:evenodd;fill:rgb(0%,14.117432%,49.01886%);fill-opacity:1;" d="M 0 0.160156 L 128 0.160156 L 128 64.160156 L 0 64.160156 Z M 0 0.160156 "/>
<path style=" stroke:none;fill-rule:evenodd;fill:rgb(99.998474%,99.998474%,99.998474%);fill-opacity:1;" d="M 82.078125 15.894531 L 109.476562 15.894531 L 109.445312 35.394531 C 109.671875 43.230469 104.785156 48.09375 95.796875 50.289062 C 89.414062 48.703125 82.054688 45.425781 82.042969 35.617188 Z M 82.078125 15.894531 "/>
<path style="fill-rule:evenodd;fill:rgb(0%,63.528442%,74.116516%);fill-opacity:1;stroke-width:0.193336;stroke-linecap:butt;stroke-linejoin:miter;stroke:rgb(0%,0%,0%);stroke-opacity:1;stroke-miterlimit:4;" d="M 82.683594 16.484375 L 108.867188 16.484375 L 108.835938 35.167969 C 109.054688 42.675781 104.386719 47.339844 95.796875 49.4375 C 89.695312 47.921875 82.660156 44.777344 82.652344 35.378906 Z M 82.683594 16.484375 "/>
<path style=" stroke:none;fill-rule:evenodd;fill:rgb(64.704895%,23.921204%,3.137207%);fill-opacity:1;" d="M 108.667969 37.378906 C 107.714844 44.550781 102.191406 47.679688 95.796875 49.34375 C 90.132812 47.824219 84.042969 45.402344 82.863281 37.417969 Z M 108.667969 37.378906 "/>
<path style=" stroke:none;fill-rule:evenodd;fill:rgb(0%,0%,0%);fill-opacity:1;" d="M 89.648438 19.945312 L 94.757812 19.964844 L 94.722656 17.609375 L 96.585938 17.628906 L 96.601562 19.964844 L 101.695312 19.964844 L 101.714844 21.789062 L 96.601562 21.808594 L 96.5625 43.335938 L 94.746094 43.347656 L 94.722656 21.789062 L 89.648438 21.808594 Z M 89.648438 19.945312 "/>
<path style="fill-rule:evenodd;fill:rgb(99.998474%,60.391235%,3.137207%);fill-opacity:1;stroke-width:0.103213;stroke-linecap:butt;stroke-linejoin:miter;stroke:rgb(0%,0%,0%);stroke-opacity:1;stroke-miterlimit:4;" d="M 90.636719 38.269531 L 95.296875 43.105469 C 96.910156 41.332031 95.792969 34.710938 93.671875 33.492188 C 93.417969 34.273438 92.984375 35.214844 92.527344 35.519531 C 91.515625 36.207031 89.039062 37.011719 89.867188 37.527344 C 90.054688 37.265625 90.546875 37.019531 90.78125 37.601562 C 91.058594 38.515625 89.75 38.574219 89.75 38.574219 C 89.75 38.574219 88.921875 38.472656 88.777344 37.628906 C 88.632812 36.789062 90.011719 36.019531 90.128906 35.960938 C 90.246094 35.914062 92.046875 35.4375 92.351562 33.839844 C 92.726562 32.269531 93.121094 32.503906 93.191406 32.472656 C 95.546875 32.707031 97.085938 36.917969 97.171875 39.878906 C 97.257812 42.84375 95.964844 44.804688 95.734375 44.933594 C 95.5 45.066406 90.128906 38.558594 90.128906 38.558594 Z M 90.636719 38.269531 "/>
<path style="fill:none;stroke-width:0.103213;stroke-linecap:butt;stroke-linejoin:miter;stroke:rgb(0%,0%,0%);stroke-opacity:1;stroke-miterlimit:4;" d="M 94.035156 33.765625 L 94.0625 42.496094 "/>
<path style="fill:none;stroke-width:0.103213;stroke-linecap:butt;stroke-linejoin:miter;stroke:rgb(0%,0%,0%);stroke-opacity:1;stroke-miterlimit:4;" d="M 93.511719 33.925781 C 93.511719 33.941406 93.539062 41.855469 93.539062 41.855469 "/>
<path style="fill:none;stroke-width:0.103213;stroke-linecap:butt;stroke-linejoin:miter;stroke:rgb(0%,0%,0%);stroke-opacity:1;stroke-miterlimit:4;" d="M 92.945312 35.074219 L 92.972656 41.375 "/>
<path style="fill:none;stroke-width:0.103213;stroke-linecap:butt;stroke-linejoin:miter;stroke:rgb(0%,0%,0%);stroke-opacity:1;stroke-miterlimit:4;" d="M 92.480469 35.523438 L 92.507812 40.738281 "/>
<path style="fill:none;stroke-width:0.103213;stroke-linecap:butt;stroke-linejoin:miter;stroke:rgb(0%,0%,0%);stroke-opacity:1;stroke-miterlimit:4;" d="M 91.988281 35.757812 L 91.988281 40.15625 "/>
<path style="fill:none;stroke-width:0.103213;stroke-linecap:butt;stroke-linejoin:miter;stroke:rgb(0%,0%,0%);stroke-opacity:1;stroke-miterlimit:4;" d="M 91.449219 36.105469 L 91.449219 39.589844 "/>
<path style="fill:none;stroke-width:0.103213;stroke-linecap:butt;stroke-linejoin:miter;stroke:rgb(0%,0%,0%);stroke-opacity:1;stroke-miterlimit:4;" d="M 90.984375 36.378906 L 90.984375 39.050781 "/>
<path style="fill:none;stroke-width:0.103213;stroke-linecap:butt;stroke-linejoin:miter;stroke:rgb(99.998474%,87.449646%,0%);stroke-opacity:1;stroke-miterlimit:4;" d="M 90.5625 38.820312 L 95.371094 44.324219 "/>
<path style="fill:none;stroke-width:0.193336;stroke-linecap:butt;stroke-linejoin:miter;stroke:rgb(99.998474%,87.449646%,0%);stroke-opacity:1;stroke-miterlimit:4;" d="M 95.601562 35.347656 C 95.601562 35.347656 97.78125 40.113281 95.761719 44.035156 "/>
<path style="fill:none;stroke-width:0.193336;stroke-linecap:butt;stroke-linejoin:miter;stroke:rgb(99.998474%,87.449646%,0%);stroke-opacity:1;stroke-miterlimit:4;" d="M 89.996094 37.816406 C 89.996094 37.816406 90.15625 37.398438 90.359375 37.570312 "/>
<path style="fill:none;stroke-width:0.193336;stroke-linecap:butt;stroke-linejoin:miter;stroke:rgb(99.998474%,87.449646%,0%);stroke-opacity:1;stroke-miterlimit:4;" d="M 89.621094 36.597656 C 89.621094 36.597656 88.75 37.367188 89.226562 37.863281 "/>
<path style=" stroke:none;fill-rule:evenodd;fill:rgb(99.998474%,99.998474%,99.998474%);fill-opacity:1;" d="M 0 0.160156 L 0 3.738281 L 56.84375 32.160156 L 64 32.160156 L 64 28.582031 L 7.15625 0.160156 Z M 64 0.160156 L 64 3.738281 L 7.15625 32.160156 L 0 32.160156 L 0 28.582031 L 56.84375 0.160156 Z M 64 0.160156 "/>
<path style=" stroke:none;fill-rule:evenodd;fill:rgb(81.175232%,7.843018%,16.862488%);fill-opacity:1;" d="M 0 32.160156 L 21.332031 21.492188 L 26.105469 21.492188 L 4.769531 32.160156 Z M 0 0.160156 L 21.332031 10.828125 L 16.5625 10.828125 L 0 2.546875 Z M 37.894531 10.828125 L 59.230469 0.160156 L 64 0.160156 L 42.667969 10.828125 Z M 64 32.160156 L 42.667969 21.492188 L 47.4375 21.492188 L 64 29.773438 Z M 64 32.160156 "/>
<path style=" stroke:none;fill-rule:evenodd;fill:rgb(0%,50.195312%,12.940979%);fill-opacity:1;" d="M 96.617188 24.484375 C 96.9375 24.207031 97.105469 24.039062 97.304688 24.070312 C 97.507812 24.101562 97.777344 24.085938 97.976562 24.023438 C 98.179688 23.960938 99.171875 23.839844 99.578125 23.976562 C 99.71875 23.992188 99.902344 24.070312 100.183594 24.308594 C 100.46875 24.546875 100.886719 24.960938 100.746094 26.113281 C 100.609375 27.269531 100.652344 27.761719 100.59375 28.40625 C 100.484375 29.542969 100.234375 30.480469 99.777344 30.40625 C 100.394531 31.480469 100.453125 32.40625 100.855469 33.144531 C 101.253906 33.882812 101.5 35.390625 101.347656 37.019531 C 101.191406 38.648438 100.761719 42.308594 102.054688 44.769531 C 101.839844 44.925781 101.316406 44.769531 100.855469 44.277344 C 100.394531 43.785156 100.191406 43.800781 99.808594 44.09375 C 98.640625 44.984375 97.546875 46.0625 95.933594 44.984375 C 95.5625 44.738281 95.445312 44.445312 95.71875 43.695312 C 96.394531 41.816406 96.722656 39.242188 96.617188 38.035156 Z M 96.617188 24.484375 "/>
<path style="fill:none;stroke-width:0.0425325;stroke-linecap:butt;stroke-linejoin:miter;stroke:rgb(0%,0%,0%);stroke-opacity:1;stroke-miterlimit:4;" d="M 96.617188 24.484375 C 96.9375 24.207031 97.105469 24.039062 97.304688 24.070312 C 97.507812 24.101562 97.777344 24.085938 97.976562 24.023438 C 98.179688 23.960938 99.171875 23.839844 99.578125 23.976562 C 99.71875 23.992188 99.902344 24.070312 100.183594 24.308594 C 100.46875 24.546875 100.886719 24.960938 100.746094 26.113281 C 100.609375 27.269531 100.652344 27.761719 100.59375 28.40625 C 100.484375 29.542969 100.234375 30.480469 99.777344 30.40625 C 100.394531 31.484375 100.453125 32.40625 100.855469 33.144531 C 101.253906 33.882812 101.5 35.390625 101.347656 37.019531 C 101.191406 38.648438 100.761719 42.308594 102.054688 44.769531 C 101.839844 44.925781 101.316406 44.769531 100.855469 44.277344 C 100.394531 43.785156 100.191406 43.800781 99.808594 44.09375 C 98.640625 44.984375 97.546875 46.0625 95.933594 44.984375 C 95.5625 44.738281 95.445312 44.445312 95.71875 43.695312 C 96.394531 41.816406 96.722656 39.242188 96.617188 38.035156 Z M 96.617188 24.484375 "/>
<path style="fill-rule:evenodd;fill:rgb(99.998474%,88.233948%,81.175232%);fill-opacity:1;stroke-width:0.0425325;stroke-linecap:butt;stroke-linejoin:miter;stroke:rgb(0%,0%,0%);stroke-opacity:1;stroke-miterlimit:4;" d="M 97.726562 23.332031 C 97.808594 23.59375 97.855469 23.929688 97.71875 24.238281 C 97.578125 24.546875 97.546875 24.914062 97.777344 25.359375 C 98.148438 24.839844 98.671875 24.945312 98.976562 24.640625 C 99.285156 24.332031 99.347656 24.039062 99.578125 23.976562 C 99.347656 23.777344 98.992188 23.5625 99.070312 22.976562 C 99.148438 22.394531 99.960938 21.917969 99.222656 21.023438 C 98.746094 20.449219 98.054688 20.609375 97.753906 20.832031 C 97.613281 20.9375 97.496094 21.085938 97.449219 21.1875 C 97.402344 21.285156 97.460938 21.511719 97.347656 21.648438 C 97.269531 21.738281 97.179688 21.832031 97.070312 21.910156 C 97 21.957031 96.957031 22.03125 97.03125 22.117188 C 97.0625 22.148438 97.117188 22.15625 97.175781 22.179688 C 97.140625 22.246094 97.101562 22.316406 97.0625 22.367188 C 97.027344 22.414062 97.042969 22.457031 97.085938 22.496094 C 97.027344 22.679688 97.140625 22.699219 97.0625 22.839844 C 96.996094 22.957031 96.90625 23.101562 97.15625 23.238281 C 97.226562 23.277344 97.550781 23.351562 97.726562 23.332031 Z M 97.726562 23.332031 "/>
<path style=" stroke:none;fill-rule:evenodd;fill:rgb(99.998474%,88.233948%,81.175232%);fill-opacity:1;" d="M 94.734375 26.390625 C 94.300781 26.5 93.609375 26.316406 93.085938 26.375 C 92.855469 26.402344 92.671875 26.285156 92.703125 26.054688 C 92.734375 25.824219 92.765625 25.46875 92.71875 25.144531 C 92.648438 24.640625 92.886719 23.945312 93.226562 23.175781 C 93.5625 22.40625 93.734375 21.976562 93.734375 21.617188 C 93.734375 21.378906 93.757812 21.109375 93.972656 20.96875 C 94.132812 20.867188 94.160156 20.769531 94.21875 20.6875 C 94.347656 20.492188 94.472656 20.449219 94.488281 20.5625 C 94.496094 20.632812 94.472656 20.695312 94.410156 20.785156 C 94.546875 20.671875 94.785156 20.535156 94.835938 20.496094 C 94.890625 20.460938 95.164062 20.265625 95.179688 20.449219 C 95.285156 20.394531 95.359375 20.398438 95.386719 20.453125 C 95.417969 20.515625 95.398438 20.542969 95.34375 20.589844 C 95.421875 20.574219 95.511719 20.707031 95.355469 20.828125 C 95.4375 20.800781 95.515625 20.933594 95.375 21.058594 C 95.226562 21.1875 95.058594 21.273438 95.007812 21.375 C 94.953125 21.472656 94.585938 21.753906 94.441406 21.816406 C 94.296875 21.878906 94.289062 21.960938 94.289062 22.175781 C 94.289062 24.546875 94.003906 24.355469 94.003906 24.921875 C 94.003906 25.078125 93.972656 25.214844 94.125 25.167969 C 94.28125 25.121094 94.503906 25.054688 94.734375 25.054688 Z M 94.734375 26.390625 "/>
<path style="fill:none;stroke-width:0.0425325;stroke-linecap:butt;stroke-linejoin:miter;stroke:rgb(0%,0%,0%);stroke-opacity:1;stroke-miterlimit:4;" d="M 94.734375 26.390625 C 94.300781 26.5 93.609375 26.316406 93.085938 26.375 C 92.855469 26.402344 92.671875 26.285156 92.703125 26.054688 C 92.734375 25.824219 92.765625 25.46875 92.71875 25.144531 C 92.648438 24.640625 92.886719 23.945312 93.226562 23.175781 C 93.5625 22.40625 93.734375 21.976562 93.734375 21.617188 C 93.734375 21.378906 93.757812 21.109375 93.972656 20.96875 C 94.132812 20.867188 94.160156 20.769531 94.21875 20.6875 C 94.347656 20.492188 94.472656 20.449219 94.488281 20.5625 C 94.496094 20.632812 94.472656 20.695312 94.410156 20.785156 C 94.546875 20.671875 94.785156 20.535156 94.835938 20.496094 C 94.890625 20.460938 95.164062 20.265625 95.179688 20.449219 C 95.285156 20.394531 95.359375 20.398438 95.386719 20.453125 C 95.417969 20.515625 95.398438 20.542969 95.34375 20.589844 C 95.421875 20.574219 95.511719 20.707031 95.355469 20.828125 C 95.4375 20.800781 95.515625 20.9375 95.375 21.058594 C 95.226562 21.1875 95.058594 21.273438 95.007812 21.375 C 94.953125 21.472656 94.585938 21.753906 94.441406 21.816406 C 94.296875 21.878906 94.289062 21.960938 94.289062 22.175781 C 94.289062 24.546875 94.003906 24.355469 94.003906 24.921875 C 94.003906 25.078125 93.972656 25.214844 94.125 25.167969 C 94.28125 25.125 94.503906 25.054688 94.734375 25.054688 Z M 94.734375 26.390625 "/>
<path style="fill-rule:evenodd;fill:rgb(99.998474%,88.233948%,81.175232%);fill-opacity:1;stroke-width:0.0425325;stroke-linecap:butt;stroke-linejoin:miter;stroke:rgb(0%,0%,0%);stroke-opacity:1;stroke-miterlimit:4;" d="M 94.824219 31.496094 C 95.519531 31.148438 96.316406 31.019531 96.734375 30.914062 C 97.148438 30.804688 97.808594 30.484375 98.132812 30.3125 C 98.457031 30.144531 98.71875 29.914062 98.902344 29.851562 C 99.085938 29.789062 99.292969 29.664062 99.410156 29.4375 C 100.007812 28.269531 100.332031 27.328125 100.332031 26.515625 C 100.332031 25.976562 100.191406 25.375 99.671875 25.808594 C 99.179688 26.210938 98.644531 26.992188 98.5 27.5625 C 98.285156 28.421875 98.101562 28.605469 98.054688 28.777344 C 98.007812 28.945312 97.835938 28.945312 97.625 28.992188 C 96.71875 29.191406 96.5 29.328125 95.824219 29.835938 C 95.148438 30.34375 94.410156 30.789062 93.917969 31.066406 C 93.425781 31.34375 93.332031 31.375 93.226562 31.597656 C 93.117188 31.820312 93.019531 31.988281 92.925781 32.089844 C 92.832031 32.191406 92.808594 32.308594 92.828125 32.429688 C 92.84375 32.527344 92.796875 32.988281 92.789062 33.144531 C 92.78125 33.296875 92.816406 33.335938 92.878906 33.34375 C 92.941406 33.351562 93.027344 33.320312 93.058594 33.136719 C 93.027344 33.320312 93.28125 33.257812 93.296875 33.121094 C 93.289062 33.320312 93.558594 33.203125 93.574219 33.019531 C 93.574219 33.152344 93.777344 33.0625 93.796875 32.996094 C 93.839844 32.84375 93.878906 32.675781 93.941406 32.550781 C 94.03125 32.375 94.125 32.140625 94.300781 32.011719 C 94.503906 31.867188 94.410156 31.707031 94.824219 31.496094 Z M 94.824219 31.496094 "/>
<path style=" stroke:none;fill-rule:evenodd;fill:rgb(99.998474%,88.233948%,81.175232%);fill-opacity:1;" d="M 99.808594 44.09375 C 99.855469 44.261719 99.9375 44.453125 99.96875 44.570312 C 100 44.6875 99.945312 44.722656 99.917969 44.785156 C 99.753906 45.125 99.582031 45.664062 99.554688 45.953125 C 99.539062 46.125 99.425781 46.285156 99.371094 46.386719 C 99.3125 46.496094 99.332031 46.582031 99.46875 46.6875 C 99.535156 46.734375 99.746094 46.667969 99.769531 46.5625 C 99.847656 46.640625 99.984375 46.609375 100.046875 46.492188 C 100.117188 46.5625 100.230469 46.515625 100.308594 46.402344 C 100.378906 46.445312 100.476562 46.355469 100.515625 46.292969 C 100.625 46.347656 100.738281 46.28125 100.742188 46.070312 C 100.742188 46.027344 100.769531 45.953125 100.800781 45.90625 C 100.832031 45.855469 100.84375 45.757812 100.839844 45.675781 C 100.835938 45.589844 100.890625 45.421875 100.960938 45.300781 C 101.035156 45.183594 101.160156 44.96875 101.109375 44.769531 C 101.058594 44.585938 100.976562 44.601562 100.90625 44.332031 C 100.738281 44.15625 100.507812 43.910156 100.269531 43.894531 C 100.03125 43.878906 99.894531 44.039062 99.808594 44.09375 Z M 99.808594 44.09375 "/>
<path style="fill:none;stroke-width:0.0425325;stroke-linecap:butt;stroke-linejoin:miter;stroke:rgb(0%,0%,0%);stroke-opacity:1;stroke-miterlimit:4;" d="M 99.808594 44.09375 C 99.855469 44.261719 99.9375 44.453125 99.96875 44.570312 C 100 44.6875 99.945312 44.722656 99.917969 44.785156 C 99.753906 45.125 99.582031 45.664062 99.554688 45.953125 C 99.539062 46.125 99.425781 46.285156 99.371094 46.386719 C 99.3125 46.496094 99.332031 46.582031 99.46875 46.6875 C 99.535156 46.734375 99.746094 46.671875 99.769531 46.5625 C 99.847656 46.640625 99.984375 46.609375 100.046875 46.492188 C 100.117188 46.5625 100.230469 46.515625 100.308594 46.402344 C 100.378906 46.445312 100.476562 46.355469 100.515625 46.292969 C 100.625 46.347656 100.738281 46.28125 100.742188 46.070312 C 100.742188 46.027344 100.769531 45.953125 100.800781 45.90625 C 100.832031 45.855469 100.84375 45.757812 100.839844 45.675781 C 100.835938 45.589844 100.890625 45.421875 100.960938 45.300781 C 101.035156 45.183594 101.160156 44.96875 101.109375 44.769531 C 101.058594 44.585938 100.976562 44.601562 100.90625 44.332031 C 100.738281 44.15625 100.507812 43.910156 100.269531 43.894531 C 100.03125 43.878906 99.894531 44.039062 99.808594 44.09375 Z M 99.808594 44.09375 "/>
<path style="fill-rule:evenodd;fill:rgb(99.998474%,88.233948%,81.175232%);fill-opacity:1;stroke-width:0.0425325;stroke-linecap:butt;stroke-linejoin:miter;stroke:rgb(0%,0%,0%);stroke-opacity:1;stroke-miterlimit:4;" d="M 95.433594 45.417969 C 95.648438 45.632812 96.132812 45.640625 96.472656 45.277344 C 96.347656 45.222656 96.078125 45.101562 95.957031 45 C 95.785156 45.171875 95.59375 45.363281 95.433594 45.417969 Z M 95.433594 45.417969 "/>
<path style="fill-rule:evenodd;fill:rgb(52.940369%,5.882263%,0%);fill-opacity:1;stroke-width:0.0425325;stroke-linecap:butt;stroke-linejoin:miter;stroke:rgb(0%,0%,0%);stroke-opacity:1;stroke-miterlimit:4;" d="M 97.609375 20.960938 C 97.695312 20.417969 98.082031 20.429688 98.324219 20.484375 C 98.425781 20.507812 98.671875 20.53125 98.902344 20.46875 C 99.359375 20.347656 99.703125 20.507812 99.65625 20.949219 C 99.777344 21.039062 99.90625 21.253906 99.886719 21.4375 C 99.863281 21.625 99.902344 21.703125 100.070312 21.722656 C 100.238281 21.746094 100.601562 21.953125 100.363281 22.246094 C 100.59375 22.386719 100.769531 22.738281 100.648438 22.976562 C 100.523438 23.214844 100.15625 23.253906 100 23.039062 C 99.832031 23.117188 99.554688 23.132812 99.386719 22.953125 C 99.269531 23.09375 98.976562 23.078125 98.921875 22.953125 C 98.871094 22.832031 98.78125 22.765625 98.671875 22.730469 C 98.546875 22.691406 98.539062 22.355469 98.722656 22.316406 C 98.703125 22.214844 98.710938 22.101562 98.753906 22.046875 C 98.800781 21.992188 98.761719 21.894531 98.65625 21.808594 C 98.546875 21.722656 98.457031 21.402344 98.5625 21.222656 C 98.378906 21.285156 97.96875 21.109375 97.886719 20.984375 C 97.800781 20.863281 97.6875 20.855469 97.609375 20.960938 Z M 97.609375 20.960938 "/>
<path style="fill:none;stroke-width:0.0425325;stroke-linecap:butt;stroke-linejoin:miter;stroke:rgb(0%,0%,0%);stroke-opacity:1;stroke-miterlimit:4;" d="M 97.726562 23.332031 C 98.023438 23.292969 98.125 23.109375 98.347656 23.125 "/>
<path style="fill:none;stroke-width:0.0425325;stroke-linecap:butt;stroke-linejoin:miter;stroke:rgb(0%,0%,0%);stroke-opacity:1;stroke-miterlimit:4;" d="M 97.085938 22.496094 C 97.105469 22.511719 97.128906 22.527344 97.160156 22.542969 C 97.21875 22.574219 97.285156 22.578125 97.347656 22.585938 "/>
<path style="fill:none;stroke-width:0.0425325;stroke-linecap:butt;stroke-linejoin:miter;stroke:rgb(0%,0%,0%);stroke-opacity:1;stroke-miterlimit:4;" d="M 97.175781 22.179688 C 97.21875 22.191406 97.261719 22.214844 97.300781 22.253906 "/>
<path style="fill:none;stroke-width:0.0425325;stroke-linecap:butt;stroke-linejoin:miter;stroke:rgb(0%,0%,0%);stroke-opacity:1;stroke-miterlimit:4;" d="M 97.871094 20.960938 C 97.695312 20.792969 98.171875 20.449219 98.671875 20.9375 C 98.765625 21.03125 99 21.03125 99.070312 21.007812 "/>
<path style="fill:none;stroke-width:0.0425325;stroke-linecap:butt;stroke-linejoin:miter;stroke:rgb(0%,0%,0%);stroke-opacity:1;stroke-miterlimit:4;" d="M 98.5625 21.222656 C 98.792969 21.167969 99.140625 21.167969 99.238281 21.433594 C 99.339844 21.691406 99.539062 21.523438 99.703125 21.832031 C 99.863281 22.140625 100.117188 22.484375 100.363281 22.246094 "/>
<path style="fill:none;stroke-width:0.0425325;stroke-linecap:butt;stroke-linejoin:miter;stroke:rgb(0%,0%,0%);stroke-opacity:1;stroke-miterlimit:4;" d="M 99.386719 22.953125 C 99.316406 22.863281 99.285156 22.664062 99.332031 22.523438 C 99.238281 22.417969 99.277344 22.191406 99.332031 22.085938 "/>
<path style="fill:none;stroke-width:0.0425325;stroke-linecap:butt;stroke-linejoin:miter;stroke:rgb(0%,0%,0%);stroke-opacity:1;stroke-miterlimit:4;" d="M 98.722656 22.316406 C 98.734375 22.40625 98.855469 22.578125 99.046875 22.609375 "/>
<path style="fill:none;stroke-width:0.0425325;stroke-linecap:butt;stroke-linejoin:miter;stroke:rgb(0%,0%,0%);stroke-opacity:1;stroke-miterlimit:4;" d="M 100 23.039062 C 99.894531 22.902344 99.90625 22.777344 99.933594 22.609375 "/>
<path style="fill:none;stroke-width:0.0425325;stroke-linecap:butt;stroke-linejoin:miter;stroke:rgb(0%,0%,0%);stroke-opacity:1;stroke-miterlimit:4;" d="M 98.878906 21.507812 C 98.871094 21.648438 98.953125 21.832031 99.101562 21.894531 C 99.132812 21.96875 99.285156 22.1875 99.59375 22.15625 "/>
<path style="fill:none;stroke-width:0.0425325;stroke-linecap:butt;stroke-linejoin:miter;stroke:rgb(0%,0%,0%);stroke-opacity:1;stroke-miterlimit:4;" d="M 99.65625 20.949219 C 99.484375 20.816406 99.257812 20.65625 98.953125 20.613281 "/>
<path style="fill:none;stroke-width:0.0425325;stroke-linecap:butt;stroke-linejoin:miter;stroke:rgb(0%,0%,0%);stroke-opacity:1;stroke-miterlimit:4;" d="M 97.777344 25.359375 C 97.515625 25.714844 97.347656 26.207031 97.472656 26.898438 C 97.59375 27.589844 97.792969 28.605469 97.285156 29.066406 "/>
<path style="fill:none;stroke-width:0.0425325;stroke-linecap:butt;stroke-linejoin:miter;stroke:rgb(0%,0%,0%);stroke-opacity:1;stroke-miterlimit:4;" d="M 99.777344 30.40625 C 99.425781 30.328125 98.917969 30.328125 98.640625 30.527344 C 98.363281 30.730469 97.902344 30.746094 97.59375 30.589844 "/>
<path style="fill:none;stroke-width:0.0425325;stroke-linecap:butt;stroke-linejoin:miter;stroke:rgb(0%,0%,0%);stroke-opacity:1;stroke-miterlimit:4;" d="M 99.03125 30.382812 C 98.722656 30.4375 98.578125 30.652344 98.578125 31.222656 C 98.578125 31.789062 98.457031 32.621094 98.5625 33.4375 "/>
<path style="fill:none;stroke-width:0.0425325;stroke-linecap:butt;stroke-linejoin:miter;stroke:rgb(0%,0%,0%);stroke-opacity:1;stroke-miterlimit:4;" d="M 98.46875 30.621094 C 98.269531 30.675781 98.0625 30.683594 98.101562 31.222656 "/>
<path style="fill:none;stroke-width:0.0425325;stroke-linecap:butt;stroke-linejoin:miter;stroke:rgb(0%,0%,0%);stroke-opacity:1;stroke-miterlimit:4;" d="M 97.433594 31.234375 C 97.441406 30.90625 97.554688 30.597656 97.769531 30.652344 "/>
<path style="fill:none;stroke-width:0.0425325;stroke-linecap:butt;stroke-linejoin:miter;stroke:rgb(0%,0%,0%);stroke-opacity:1;stroke-miterlimit:4;" d="M 99.648438 31.296875 C 99.664062 30.566406 99.5 30.359375 99.285156 30.367188 C 99.578125 30.375 99.777344 30.410156 99.902344 31.605469 C 99.992188 32.496094 100.179688 32.8125 100.394531 33.511719 C 100.945312 35.328125 100.671875 38.125 100.945312 39.109375 "/>
<path style="fill:none;stroke-width:0.0425325;stroke-linecap:butt;stroke-linejoin:miter;stroke:rgb(0%,0%,0%);stroke-opacity:1;stroke-miterlimit:4;" d="M 99.222656 31.511719 C 99.808594 33.203125 100.117188 35.082031 99.164062 38.09375 C 99.808594 39.878906 100.453125 41.171875 100.578125 41.910156 "/>
<path style="fill:none;stroke-width:0.0425325;stroke-linecap:butt;stroke-linejoin:miter;stroke:rgb(0%,0%,0%);stroke-opacity:1;stroke-miterlimit:4;" d="M 97.378906 35.511719 C 97.484375 35.128906 97.101562 35.082031 97.441406 33.726562 C 97.585938 33.140625 97.609375 32.789062 97.515625 32.605469 "/>
<path style="fill:none;stroke-width:0.0425325;stroke-linecap:butt;stroke-linejoin:miter;stroke:rgb(0%,0%,0%);stroke-opacity:1;stroke-miterlimit:4;" d="M 97.515625 33.40625 C 97.378906 34.003906 97.964844 35.128906 97.671875 35.941406 "/>
<path style="fill:none;stroke-width:0.0425325;stroke-linecap:butt;stroke-linejoin:miter;stroke:rgb(0%,0%,0%);stroke-opacity:1;stroke-miterlimit:4;" d="M 96.949219 36.097656 C 96.949219 36.621094 97.070312 37.296875 97.039062 37.820312 C 97.007812 38.34375 97.222656 38.585938 97.472656 39.078125 C 98.363281 40.863281 98.96875 42.136719 98.886719 43.816406 C 98.871094 44.125 98.976562 44.769531 98.65625 44.953125 "/>
<path style="fill:none;stroke-width:0.0425325;stroke-linecap:butt;stroke-linejoin:miter;stroke:rgb(0%,0%,0%);stroke-opacity:1;stroke-miterlimit:4;" d="M 96.96875 45.410156 C 97.0625 45.417969 97.164062 45.371094 97.277344 45.09375 C 97.394531 44.816406 97.765625 43.15625 97.609375 42.015625 "/>
<path style="fill:none;stroke-width:0.0425325;stroke-linecap:butt;stroke-linejoin:miter;stroke:rgb(0%,0%,0%);stroke-opacity:1;stroke-miterlimit:4;" d="M 97.792969 43.308594 C 97.839844 43.664062 97.839844 44.386719 97.609375 44.953125 "/>
<path style="fill:none;stroke-width:0.0425325;stroke-linecap:butt;stroke-linejoin:miter;stroke:rgb(0%,0%,0%);stroke-opacity:1;stroke-miterlimit:4;" d="M 98.378906 42.25 C 98.515625 43 98.5 43.679688 98.394531 44.15625 "/>
<path style="fill:none;stroke-width:0.0425325;stroke-linecap:butt;stroke-linejoin:miter;stroke:rgb(0%,0%,0%);stroke-opacity:1;stroke-miterlimit:4;" d="M 98.070312 44.15625 C 98.085938 44.464844 98.222656 45.230469 97.992188 45.292969 "/>
<path style="fill:none;stroke-width:0.0425325;stroke-linecap:butt;stroke-linejoin:miter;stroke:rgb(0%,0%,0%);stroke-opacity:1;stroke-miterlimit:4;" d="M 99.222656 40.585938 C 99.792969 41.480469 100.238281 43.679688 100.714844 44.140625 "/>
<path style="fill:none;stroke-width:0.0425325;stroke-linecap:butt;stroke-linejoin:miter;stroke:rgb(0%,0%,0%);stroke-opacity:1;stroke-miterlimit:4;" d="M 99.71875 43.785156 C 99.703125 43.539062 99.6875 43.203125 99.546875 43.046875 "/>
<path style="fill:none;stroke-width:0.0425325;stroke-linecap:butt;stroke-linejoin:miter;stroke:rgb(0%,0%,0%);stroke-opacity:1;stroke-miterlimit:4;" d="M 93.574219 33.019531 C 93.578125 32.851562 93.550781 32.691406 93.734375 32.429688 "/>
<path style="fill:none;stroke-width:0.0425325;stroke-linecap:butt;stroke-linejoin:miter;stroke:rgb(0%,0%,0%);stroke-opacity:1;stroke-miterlimit:4;" d="M 93.296875 33.121094 C 93.320312 32.527344 93.3125 32.472656 93.480469 32.3125 "/>
<path style="fill:none;stroke-width:0.0425325;stroke-linecap:butt;stroke-linejoin:miter;stroke:rgb(0%,0%,0%);stroke-opacity:1;stroke-miterlimit:4;" d="M 93.058594 33.136719 C 93.0625 32.714844 93.011719 32.566406 93.179688 32.296875 "/>
<path style="fill:none;stroke-width:0.0425325;stroke-linecap:butt;stroke-linejoin:miter;stroke:rgb(0%,0%,0%);stroke-opacity:1;stroke-miterlimit:4;" d="M 95.179688 20.449219 C 95.113281 20.488281 94.730469 20.78125 94.566406 20.90625 "/>
<path style="fill:none;stroke-width:0.0425325;stroke-linecap:butt;stroke-linejoin:miter;stroke:rgb(0%,0%,0%);stroke-opacity:1;stroke-miterlimit:4;" d="M 95.34375 20.589844 C 95.273438 20.601562 95.058594 20.773438 94.683594 21.066406 "/>
<path style="fill:none;stroke-width:0.0425325;stroke-linecap:butt;stroke-linejoin:miter;stroke:rgb(0%,0%,0%);stroke-opacity:1;stroke-miterlimit:4;" d="M 95.355469 20.828125 C 95.238281 20.882812 95.011719 21.101562 94.800781 21.246094 "/>
<path style="fill:none;stroke-width:0.0425325;stroke-linecap:butt;stroke-linejoin:miter;stroke:rgb(0%,0%,0%);stroke-opacity:1;stroke-miterlimit:4;" d="M 94.410156 20.785156 C 94.351562 20.828125 94.242188 20.949219 94.1875 20.992188 "/>
<path style="fill:none;stroke-width:0.0425325;stroke-linecap:butt;stroke-linejoin:miter;stroke:rgb(0%,0%,0%);stroke-opacity:1;stroke-miterlimit:4;" d="M 99.769531 46.5625 C 99.734375 46.523438 99.734375 46.390625 99.796875 46.238281 "/>
<path style="fill:none;stroke-width:0.0425325;stroke-linecap:butt;stroke-linejoin:miter;stroke:rgb(0%,0%,0%);stroke-opacity:1;stroke-miterlimit:4;" d="M 100.046875 46.492188 C 100.003906 46.449219 100.046875 46.265625 100.089844 46.148438 "/>
<path style="fill:none;stroke-width:0.0425325;stroke-linecap:butt;stroke-linejoin:miter;stroke:rgb(0%,0%,0%);stroke-opacity:1;stroke-miterlimit:4;" d="M 100.308594 46.402344 C 100.257812 46.378906 100.242188 46.269531 100.316406 46.125 "/>
<path style="fill:none;stroke-width:0.0425325;stroke-linecap:butt;stroke-linejoin:miter;stroke:rgb(0%,0%,0%);stroke-opacity:1;stroke-miterlimit:4;" d="M 100.515625 46.292969 C 100.480469 46.28125 100.464844 46.222656 100.527344 46.054688 "/>
<path style=" stroke:none;fill-rule:evenodd;fill:rgb(0%,0%,0%);fill-opacity:1;" d="M 97.488281 21.445312 C 97.601562 21.59375 97.71875 21.578125 97.738281 21.671875 C 97.757812 21.765625 97.773438 21.773438 97.792969 21.800781 C 97.816406 21.828125 97.742188 21.824219 97.703125 21.808594 C 97.667969 21.792969 97.578125 21.792969 97.523438 21.796875 C 97.46875 21.796875 97.402344 21.730469 97.445312 21.722656 C 97.484375 21.714844 97.480469 21.703125 97.472656 21.675781 C 97.46875 21.644531 97.496094 21.601562 97.511719 21.59375 C 97.53125 21.585938 97.519531 21.585938 97.503906 21.546875 C 97.488281 21.507812 97.464844 21.414062 97.488281 21.445312 Z M 97.488281 21.445312 "/>
<path style=" stroke:none;fill-rule:evenodd;fill:rgb(0%,0%,0%);fill-opacity:1;" d="M 97.558594 21.3125 C 97.683594 21.328125 97.898438 21.394531 98.015625 21.523438 C 98.105469 21.625 98.03125 21.597656 97.984375 21.601562 C 97.9375 21.605469 97.847656 21.574219 97.800781 21.515625 C 97.757812 21.457031 97.621094 21.386719 97.546875 21.367188 C 97.503906 21.355469 97.464844 21.300781 97.558594 21.3125 Z M 97.558594 21.3125 "/>
<path style="fill-rule:nonzero;fill:rgb(99.998474%,99.998474%,99.998474%);fill-opacity:1;stroke-width:0.0425325;stroke-linecap:butt;stroke-linejoin:miter;stroke:rgb(99.998474%,99.998474%,99.998474%);stroke-opacity:1;stroke-miterlimit:4;" d="M 26.667969 0.160156 L 26.667969 32.160156 L 37.332031 32.160156 L 37.332031 0.160156 Z M 26.667969 0.160156 "/>
<path style="fill-rule:nonzero;fill:rgb(99.998474%,99.998474%,99.998474%);fill-opacity:1;stroke-width:0.0425325;stroke-linecap:butt;stroke-linejoin:miter;stroke:rgb(99.998474%,99.998474%,99.998474%);stroke-opacity:1;stroke-miterlimit:4;" d="M 0 10.828125 L 0 21.492188 L 64 21.492188 L 64 10.828125 Z M 0 10.828125 "/>
<path style="fill-rule:nonzero;fill:rgb(81.175232%,7.843018%,16.862488%);fill-opacity:1;stroke-width:0.0425325;stroke-linecap:butt;stroke-linejoin:miter;stroke:rgb(81.175232%,7.843018%,16.862488%);stroke-opacity:1;stroke-miterlimit:4;" d="M 0 12.960938 L 0 19.359375 L 64 19.359375 L 64 12.960938 Z M 0 12.960938 "/>
<path style="fill-rule:nonzero;fill:rgb(81.175232%,7.843018%,16.862488%);fill-opacity:1;stroke-width:0.0425325;stroke-linecap:butt;stroke-linejoin:miter;stroke:rgb(81.175232%,7.843018%,16.862488%);stroke-opacity:1;stroke-miterlimit:4;" d="M 28.800781 0.160156 L 28.800781 32.160156 L 35.199219 32.160156 L 35.199219 0.160156 Z M 28.800781 0.160156 "/>
</g>
</svg>
