<svg viewBox="0 0 1000 667" xmlns="http://www.w3.org/2000/svg" xmlns:xlink="http://www.w3.org/1999/xlink"><clipPath id="a"><path d="m0 0h1000v666.71875h-1000zm0 0"/></clipPath><g clip-path="url(#a)"><path d="m0 666.667969v-666.667969h1000v666.667969zm0 0" fill="#c1272d" fill-rule="evenodd"/></g><path d="m499.96875 222.222656-24.9375 76.980469-80.863281.070313 65.378906 47.570312-24.925781 77.042969c16.84375-12.359375 47.355468-34.503907 65.378906-47.570313l65.453125 47.539063-25-76.980469 65.378906-47.640625h-80.800781zm0 52.707032 7.945312 24.273437-15.828124.03125zm-30.246094 40.554687-4.863281 15.101563-20.660156-15.03125zm17.082032 0h26.390624l8.160157 25.140625-21.355469 15.554688-21.355469-15.554688zm43.472656 0h25.484375l-20.589844 15.101563zm-56.910156 41.460937 12.847656 9.269532-20.660156 15.035156zm53.335937 0 7.8125 24.304688-20.625-15v-.035156zm0 0" fill="#006233" fill-rule="evenodd"/></svg>