<?xml version="1.0" encoding="UTF-8"?>
<svg xmlns="http://www.w3.org/2000/svg" xmlns:xlink="http://www.w3.org/1999/xlink" width="128pt" height="85pt" viewBox="0 0 128 85" version="1.1">
<defs>
<clipPath id="clip1">
  <path d="M 0 0 L 127.679688 0 L 127.679688 85 L 0 85 Z M 0 0 "/>
</clipPath>
</defs>
<g id="surface752">
<g clip-path="url(#clip1)" clip-rule="nonzero">
<path style=" stroke:none;fill-rule:evenodd;fill:rgb(75.68512%,15.293884%,17.64679%);fill-opacity:1;" d="M 0 85 L 0 0 L 127.5 0 L 127.5 85 Z M 0 85 "/>
</g>
<path style=" stroke:none;fill-rule:evenodd;fill:rgb(0%,38.430786%,19.999695%);fill-opacity:1;" d="M 63.746094 28.332031 L 60.566406 38.148438 L 50.257812 38.15625 L 58.59375 44.222656 L 55.414062 54.046875 C 57.5625 52.46875 61.453125 49.644531 63.75 47.980469 L 72.09375 54.042969 L 68.90625 44.226562 L 77.242188 38.152344 L 66.941406 38.152344 Z M 63.746094 35.054688 L 64.757812 38.148438 L 62.742188 38.152344 Z M 59.890625 40.222656 L 59.269531 42.148438 L 56.636719 40.234375 Z M 62.066406 40.222656 L 65.433594 40.222656 L 66.472656 43.429688 L 63.75 45.414062 L 61.027344 43.429688 Z M 67.609375 40.222656 L 70.859375 40.222656 L 68.234375 42.148438 Z M 60.355469 45.511719 L 61.992188 46.691406 L 59.359375 48.609375 Z M 67.15625 45.511719 L 68.152344 48.609375 L 65.519531 46.695312 L 65.519531 46.691406 Z M 67.15625 45.511719 "/>
</g>
</svg>
