<svg viewBox="0 0 1000 667" xmlns="http://www.w3.org/2000/svg" xmlns:xlink="http://www.w3.org/1999/xlink"><clipPath id="a"><path d="m0 0h1000v666.71875h-1000zm0 0"/></clipPath><clipPath id="b"><path d="m0 437h1000v229.71875h-1000zm0 0"/></clipPath><clipPath id="c"><path d="m0 458h1000v208.71875h-1000zm0 0"/></clipPath><clipPath id="d"><path d="m0 0h438v666.71875h-438zm0 0"/></clipPath><g clip-path="url(#a)"><path d="m0 666.667969v-666.667969h1000v666.667969zm0 0" fill-rule="evenodd"/></g><path d="m0 0h1000v229.167969h-1000zm0 0" fill="#fff" fill-rule="evenodd"/><path d="m0 0h1000v208.332031h-1000zm0 0" fill="#007168" fill-rule="evenodd"/><g clip-path="url(#b)"><path d="m0 437.222656h1000v229.445313h-1000zm0 0" fill="#fff" fill-rule="evenodd"/></g><g clip-path="url(#c)"><path d="m0 458.332031h1000v208.335938h-1000zm0 0" fill="#fce100" fill-rule="evenodd"/></g><g clip-path="url(#d)"><path d="m0 0v666.667969l437.5-333.335938zm0 0" fill="#d21034" fill-rule="evenodd"/></g><path d="m227.078125 458.316406-81.28125-59.507812-81.175781 59.523437 31.484375-95.691406-81.703125-58.804687 100.738281.367187 30.679687-95.871094 30.78125 95.921875 100.660157-.445312-81.714844 58.914062zm0 0" fill="#fce100" fill-rule="evenodd"/><path d="m75.25 391.585938h58.554688c4.710937 5.285156 15.222656 7.441406 25.234374-.0625 18.355469-10.050782 53.855469.0625 53.855469.0625l6.996094-7.425782-17.046875-55.9375-6.113281-6.554687s-13.109375-7.859375-38.019531-5.238281c-24.90625 2.617187-33.644532-.875-33.644532-.875s-21.851562 2.621093-27.96875 5.679687c-.671875.542969-6.992187 6.988281-6.992187 6.988281zm0 0" fill="#fff" fill-rule="evenodd" stroke="#000" stroke-width="1.74961"/><path d="m87.050781 377.164062s55.929688-6.988281 72.097657 14.421876c-9.132813 6.25-17.171876 6.765624-25.78125.4375 1.371093-2.28125 20.097656-21.847657 67.730468-15.292969" fill="none" stroke="#000" stroke-width="1.74961"/><path d="m146.914062 321.234375-.441406 61.609375zm49.816407.875 10.484375 48.941406zm-99.058594-.773437-5.816406 25.242187zm0 0" fill-rule="evenodd"/><g stroke="#000" stroke-width="1.74961"><path d="m146.914062 321.234375-.441406 61.609375" fill="none"/><path d="m196.730469 322.109375 10.484375 48.941406" fill="none"/><path d="m97.671875 321.335938-5.816406 25.242187" fill="none"/><path d="m37.21875 398.296875 13.769531 16.144531c1.617188.960938 3.054688.902344 4.492188 0l20.402343-24.488281 8.574219-10.613281c1.328125-1.574219 1.75-3.324219 1.632813-4.898438l16.390625-14.5625c1.339843.09375 2.136719.246094 3.476562.335938-1.585937-.410156-2.746093-1.179688-1.496093-2.917969l3.671874-2.855469 2.851563 3.675782s-4.078125 5.304687-4.484375 5.304687h-4.492188l-8.574218 7.753906 3.75 3.316407 5.644531 15.460937 6.9375-4.898437-4.492187-15.921876 9.796874-10.609374-3.671874-5.714844 2.449218-3.265625s33.902344 21.34375 46.964844 15.632812c.351562.125.789062-15.222656.789062-15.222656s-35.105468-3.675781-35.917968-10.613281c-.820313-6.941406 7.753906-7.753906 7.753906-7.753906l-3.671875-5.304688.816406-2.859375 6.121094 7.75 13.878906-11.835937 81.628907 93.0625c4.457031-1.808594 5.410156-2.898438 5.71875-7.347657-.113282-.109375-80.003907-91.835937-80.003907-91.835937l6.125-6.53125c1.203125-1.355469 1.628907-1.9375 1.632813-4.078125l9.386718-8.167969c2.820313.972656 4.621094 2.664062 6.121094 4.898438l25.808594-21.875c.683594.6875 2.75 1.363281 4.148438.597656l42.671874-40.953125-46.507812 32.84375-1.632812-1.222657c0-1.359374 1.6875-1.695312 0-4.082031-1.804688-2.167969-4.488282 2.042969-4.894532 2.042969-.410156 0-6.730468-2.234375-8.113281-5.066406l-.457031 7.511718-11.839844 11.019532-8.976562-.40625-13.066407 12.652344-1.625 4.898437 2.039063 4.082031s-6.9375 6.125-6.9375 5.71875c0-.414062-1.40625-1.808594-1.46875-1.988281l5.953125-5.363281.820312-3.675782-1.988281-3.097656c-.601562.4375-8.21875 8.40625-8.625 7.589844-.683594-.765625-22.042969-24.894531-22.042969-24.894531l1.226563-4.492188-13.878906-15.097656c-5.054688-1.75-13.058594-2.046875-14.691407 8.976563-1.273437 2.589843-11.839843.40625-11.839843.40625l-5.710938 1.226562-32.25 45.714844 17.960938 21.632812 36.734374-46.535156 1.089844-13.179688 7.710938 8.617188c2.570312.332031 5.019531.359375 7.34375-.8125l21.765625 24.289062-3.621094 3.535157c1.226563 1.363281 2.066406 2.230469 3.292969 3.59375 1.21875-.820313 2.390625-1.796875 3.617187-2.617188.40625.550781 1.085938 1.578125 1.5 2.128907-1.832031.992187-3.105469 2.308593-4.933593 3.300781-2.914063-1.898438-5.734376-4.269531-5.519532-8.039063l-12.242187 10.207032-.414063 2.039062-36.324218 30.203125-3.265626.414063-.8125 9.382812 23.671876-19.589844v-2.859375l2.445312 2.039063 18.371094-14.691406s1.21875 1.632812.8125 1.632812-16.324219 14.691406-16.324219 14.691406l-.40625 1.632813-2.859375 2.453125-1.632812-1.226563-22.039063 19.589844h-3.265625l-12.242188 12.246094c-3.160156.277343-5.898437.609375-8.574218 2.449219zm0 0" fill-rule="evenodd"/></g></svg>