<?xml version="1.0" encoding="UTF-8"?>
<svg xmlns="http://www.w3.org/2000/svg" xmlns:xlink="http://www.w3.org/1999/xlink" width="128pt" height="85pt" viewBox="0 0 128 85" version="1.1">
<defs>
<clipPath id="clip1">
  <path d="M 0 0 L 127.679688 0 L 127.679688 85 L 0 85 Z M 0 0 "/>
</clipPath>
<clipPath id="clip2">
  <path d="M 0 0 L 127.679688 0 L 127.679688 30 L 0 30 Z M 0 0 "/>
</clipPath>
<clipPath id="clip3">
  <path d="M 0 0 L 127.679688 0 L 127.679688 27 L 0 27 Z M 0 0 "/>
</clipPath>
<clipPath id="clip4">
  <path d="M 0 55 L 127.679688 55 L 127.679688 85 L 0 85 Z M 0 55 "/>
</clipPath>
<clipPath id="clip5">
  <path d="M 0 58 L 127.679688 58 L 127.679688 85 L 0 85 Z M 0 58 "/>
</clipPath>
</defs>
<g id="surface757">
<g clip-path="url(#clip1)" clip-rule="nonzero">
<path style=" stroke:none;fill-rule:evenodd;fill:rgb(0%,0%,0%);fill-opacity:1;" d="M 0 85 L 0 0 L 127.5 0 L 127.5 85 Z M 0 85 "/>
</g>
<g clip-path="url(#clip2)" clip-rule="nonzero">
<path style=" stroke:none;fill-rule:evenodd;fill:rgb(99.998474%,99.998474%,99.998474%);fill-opacity:1;" d="M 0 0 L 127.5 0 L 127.5 29.21875 L 0 29.21875 Z M 0 0 "/>
</g>
<g clip-path="url(#clip3)" clip-rule="nonzero">
<path style=" stroke:none;fill-rule:evenodd;fill:rgb(0%,44.313049%,40.783691%);fill-opacity:1;" d="M 0 0 L 127.5 0 L 127.5 26.5625 L 0 26.5625 Z M 0 0 "/>
</g>
<g clip-path="url(#clip4)" clip-rule="nonzero">
<path style=" stroke:none;fill-rule:evenodd;fill:rgb(99.998474%,99.998474%,99.998474%);fill-opacity:1;" d="M 0 55.746094 L 127.5 55.746094 L 127.5 85 L 0 85 Z M 0 55.746094 "/>
</g>
<g clip-path="url(#clip5)" clip-rule="nonzero">
<path style=" stroke:none;fill-rule:evenodd;fill:rgb(98.822021%,88.233948%,0%);fill-opacity:1;" d="M 0 58.4375 L 127.5 58.4375 L 127.5 85 L 0 85 Z M 0 58.4375 "/>
</g>
<path style=" stroke:none;fill-rule:evenodd;fill:rgb(82.351685%,6.274414%,20.391846%);fill-opacity:1;" d="M 0 0 L 0 85 L 55.78125 42.5 Z M 0 0 "/>
<path style=" stroke:none;fill-rule:evenodd;fill:rgb(98.822021%,88.233948%,0%);fill-opacity:1;" d="M 28.953125 58.433594 L 18.589844 50.847656 L 8.238281 58.4375 L 12.253906 46.238281 L 1.835938 38.738281 L 14.679688 38.785156 L 18.59375 26.5625 L 22.515625 38.792969 L 35.351562 38.734375 L 24.933594 46.246094 Z M 28.953125 58.433594 "/>
<path style="fill-rule:evenodd;fill:rgb(99.998474%,99.998474%,99.998474%);fill-opacity:1;stroke-width:0.223075;stroke-linecap:butt;stroke-linejoin:miter;stroke:rgb(0%,0%,0%);stroke-opacity:1;stroke-miterlimit:4;" d="M 9.59375 49.925781 L 17.058594 49.925781 C 17.660156 50.601562 19 50.875 20.277344 49.917969 C 22.617188 48.636719 27.144531 49.925781 27.144531 49.925781 L 28.035156 48.980469 L 25.863281 41.847656 L 25.082031 41.011719 C 25.082031 41.011719 23.410156 40.011719 20.234375 40.34375 C 17.058594 40.679688 15.945312 40.234375 15.945312 40.234375 C 15.945312 40.234375 13.160156 40.566406 12.378906 40.957031 C 12.292969 41.027344 11.488281 41.847656 11.488281 41.847656 Z M 9.59375 49.925781 "/>
<path style="fill:none;stroke-width:0.223075;stroke-linecap:butt;stroke-linejoin:miter;stroke:rgb(0%,0%,0%);stroke-opacity:1;stroke-miterlimit:4;" d="M 11.097656 48.089844 C 11.097656 48.089844 18.230469 47.199219 20.292969 49.925781 C 19.128906 50.722656 18.101562 50.789062 17.003906 49.984375 C 17.179688 49.691406 19.566406 47.199219 25.640625 48.03125 "/>
<path style=" stroke:none;fill-rule:evenodd;fill:rgb(0%,0%,0%);fill-opacity:1;" d="M 18.730469 40.957031 L 18.675781 48.8125 Z M 25.082031 41.070312 L 26.421875 47.308594 Z M 12.453125 40.96875 L 11.710938 44.1875 Z M 12.453125 40.96875 "/>
<path style="fill:none;stroke-width:0.223075;stroke-linecap:butt;stroke-linejoin:miter;stroke:rgb(0%,0%,0%);stroke-opacity:1;stroke-miterlimit:4;" d="M 18.730469 40.957031 L 18.675781 48.8125 "/>
<path style="fill:none;stroke-width:0.223075;stroke-linecap:butt;stroke-linejoin:miter;stroke:rgb(0%,0%,0%);stroke-opacity:1;stroke-miterlimit:4;" d="M 25.082031 41.070312 L 26.421875 47.308594 "/>
<path style="fill:none;stroke-width:0.223075;stroke-linecap:butt;stroke-linejoin:miter;stroke:rgb(0%,0%,0%);stroke-opacity:1;stroke-miterlimit:4;" d="M 12.453125 40.96875 L 11.710938 44.1875 "/>
<path style="fill-rule:evenodd;fill:rgb(0%,0%,0%);fill-opacity:1;stroke-width:0.223075;stroke-linecap:butt;stroke-linejoin:miter;stroke:rgb(0%,0%,0%);stroke-opacity:1;stroke-miterlimit:4;" d="M 4.746094 50.78125 L 6.5 52.839844 C 6.707031 52.964844 6.890625 52.957031 7.074219 52.839844 L 9.675781 49.71875 L 10.769531 48.367188 C 10.9375 48.164062 10.992188 47.941406 10.976562 47.742188 L 13.066406 45.882812 C 13.238281 45.894531 13.339844 45.914062 13.507812 45.925781 C 13.308594 45.875 13.160156 45.777344 13.320312 45.554688 L 13.785156 45.191406 L 14.152344 45.660156 C 14.152344 45.660156 13.628906 46.335938 13.578125 46.335938 L 13.007812 46.335938 L 11.914062 47.324219 L 12.390625 47.746094 L 13.109375 49.71875 L 13.996094 49.09375 L 13.421875 47.066406 L 14.671875 45.710938 L 14.203125 44.984375 L 14.515625 44.566406 C 14.515625 44.566406 18.839844 47.289062 20.503906 46.558594 C 20.546875 46.574219 20.605469 44.617188 20.605469 44.617188 C 20.605469 44.617188 16.128906 44.152344 16.023438 43.265625 C 15.921875 42.382812 17.011719 42.277344 17.011719 42.277344 L 16.542969 41.601562 L 16.648438 41.234375 L 17.429688 42.226562 L 19.199219 40.714844 L 29.605469 52.582031 C 30.175781 52.351562 30.296875 52.210938 30.335938 51.644531 C 30.320312 51.628906 20.136719 39.933594 20.136719 39.933594 L 20.917969 39.101562 C 21.070312 38.929688 21.125 38.855469 21.125 38.582031 L 22.320312 37.539062 C 22.679688 37.664062 22.910156 37.878906 23.101562 38.164062 L 26.390625 35.375 C 26.480469 35.464844 26.742188 35.550781 26.921875 35.453125 L 32.363281 30.230469 L 26.433594 34.417969 L 26.222656 34.261719 C 26.222656 34.089844 26.4375 34.046875 26.222656 33.742188 C 25.992188 33.464844 25.652344 34.003906 25.601562 34.003906 C 25.546875 34.003906 24.742188 33.71875 24.566406 33.355469 L 24.507812 34.316406 L 22.996094 35.71875 L 21.851562 35.667969 L 20.1875 37.28125 L 19.980469 37.90625 L 20.238281 38.425781 C 20.238281 38.425781 19.355469 39.207031 19.355469 39.15625 C 19.355469 39.101562 19.175781 38.925781 19.167969 38.902344 L 19.925781 38.21875 L 20.03125 37.75 L 19.777344 37.355469 C 19.703125 37.410156 18.730469 38.425781 18.679688 38.320312 C 18.589844 38.222656 15.867188 35.148438 15.867188 35.148438 L 16.023438 34.574219 L 14.253906 32.648438 C 13.609375 32.425781 12.589844 32.390625 12.382812 33.792969 C 12.21875 34.125 10.871094 33.847656 10.871094 33.847656 L 10.144531 34.003906 L 6.03125 39.832031 L 8.320312 42.589844 L 13.007812 36.65625 L 13.144531 34.976562 L 14.128906 36.074219 C 14.457031 36.117188 14.769531 36.121094 15.066406 35.972656 L 17.839844 39.066406 L 17.378906 39.519531 C 17.535156 39.691406 17.640625 39.804688 17.796875 39.976562 C 17.953125 39.871094 18.101562 39.746094 18.257812 39.644531 C 18.3125 39.714844 18.398438 39.84375 18.449219 39.914062 C 18.214844 40.039062 18.054688 40.207031 17.820312 40.335938 C 17.449219 40.09375 17.089844 39.792969 17.117188 39.308594 L 15.554688 40.613281 L 15.503906 40.871094 L 10.871094 44.722656 L 10.457031 44.773438 L 10.351562 45.972656 L 13.371094 43.472656 L 13.371094 43.109375 L 13.683594 43.371094 L 16.023438 41.496094 C 16.023438 41.496094 16.179688 41.703125 16.128906 41.703125 C 16.078125 41.703125 14.046875 43.578125 14.046875 43.578125 L 13.996094 43.785156 L 13.628906 44.097656 L 13.421875 43.941406 L 10.613281 46.441406 L 10.195312 46.441406 L 8.636719 48 C 8.230469 48.035156 7.882812 48.078125 7.542969 48.3125 Z M 4.746094 50.78125 "/>
</g>
</svg>
