<svg viewBox="0 0 1000 667" xmlns="http://www.w3.org/2000/svg" xmlns:xlink="http://www.w3.org/1999/xlink"><clipPath id="a"><path d="m0 333h1000v333.71875h-1000zm0 0"/></clipPath><path d="m0 0h1000v333.332031h-1000zm0 0" fill="#fecb00" fill-rule="evenodd"/><g clip-path="url(#a)"><path d="m0 333.332031h1000v333.335938h-1000zm0 0" fill="#ea2839" fill-rule="evenodd"/></g><g fill-rule="evenodd"><path d="m0 222.222656h1000v222.222656h-1000zm0 0" fill="#34b233"/><path d="m564.578125 403.695312-208.976563 151.832032 79.820313-245.667969zm0 0" fill="#fff"/><path d="m475.332031 432.691406-208.972656-151.828125h258.308594zm0 0" fill="#fff"/><path d="m420.175781 356.777344 79.824219-245.667969 79.824219 245.667969zm0 0" fill="#fff"/><path d="m475.332031 280.863281h258.308594l-208.972656 151.828125zm0 0" fill="#fff"/><path d="m564.578125 309.859375 79.820313 245.667969-208.976563-151.832032zm0 0" fill="#fff"/></g></svg>