<svg viewBox="0 0 1000 500" xmlns="http://www.w3.org/2000/svg"><path d="m0 0h1000v500h-1000z" fill="#002b7f"/><g fill-rule="evenodd"><path d="m0 229.167969h1000v41.664062h-1000zm0 0" fill="#ffc61e"/><path d="m250 437.5-10.785156-43.082031-30.882813 31.917969 12.207031-42.707032-42.707031 12.203125 31.917969-30.882812-43.082031-10.78125 43.082031-10.785157-31.917969-30.882812 42.707031 12.207031-12.207031-42.710937 30.882813 31.921875 10.785156-43.085938 10.785156 43.085938 30.882813-31.921875-12.207031 42.710937 42.707031-12.207031-31.917969 30.882812 43.082031 10.785157-43.082031 10.78125 31.917969 30.882812-42.707031-12.203125 12.207031 42.707032-30.882813-31.917969zm0 0" fill="#fff"/></g></svg>