<?xml version="1.0" encoding="UTF-8"?>
<svg xmlns="http://www.w3.org/2000/svg" xmlns:xlink="http://www.w3.org/1999/xlink" width="128pt" height="64pt" viewBox="0 0 128 64" version="1.1">
<g id="surface772">
<rect x="0" y="0" width="128" height="64" style="fill:rgb(0%,16.862488%,49.803162%);fill-opacity:1;stroke:none;"/>
<path style=" stroke:none;fill-rule:evenodd;fill:rgb(99.998474%,77.645874%,11.764526%);fill-opacity:1;" d="M 0 29.332031 L 128 29.332031 L 128 34.667969 L 0 34.667969 Z M 0 29.332031 "/>
<path style=" stroke:none;fill-rule:evenodd;fill:rgb(99.998474%,99.998474%,99.998474%);fill-opacity:1;" d="M 32 56 L 30.621094 50.484375 L 26.667969 54.570312 L 28.230469 49.105469 L 22.761719 50.667969 L 26.847656 46.714844 L 21.332031 45.332031 L 26.847656 43.953125 L 22.761719 40 L 28.230469 41.5625 L 26.667969 36.097656 L 30.621094 40.179688 L 32 34.667969 L 33.378906 40.179688 L 37.332031 36.097656 L 35.769531 41.5625 L 41.238281 40 L 37.152344 43.953125 L 42.667969 45.332031 L 37.152344 46.714844 L 41.238281 50.667969 L 35.769531 49.105469 L 37.332031 54.570312 L 33.378906 50.484375 Z M 32 56 "/>
</g>
</svg>
