<svg viewBox="0 0 1000 1220" xmlns="http://www.w3.org/2000/svg"><path d="m36.226562 591.5h838.039063l-838.039063-524.800781v1117.382812h838.039063l-838.039063-838.035156zm0 0" fill="none" stroke="#003893" stroke-width="72.136425"/><path d="m275.171875 997.65625-29.433594 69.472656-29.441406-69.472656zm0 0" fill="#fff" fill-rule="evenodd"/><path d="m36.226562 591.503906h838.039063l-838.039063-524.804687zm0 0" fill="#dc143c" stroke="#dc143c" stroke-width="72.136425"/><path d="m36.226562 1184.082031h838.039063l-838.039063-838.035156zm0 0" fill="#dc143c" stroke="#dc143c" stroke-width="72.136425"/><g fill="#fff" fill-rule="evenodd"><path d="m78.824219 394.703125c26.160156 66.554687 95.398437 113.738281 166.914062 113.738281s140.753907-47.183594 166.914063-113.738281c0 43.695313-17.992188 87.121094-48.894532 118.023437-30.890624 30.898438-74.324218 48.882813-118.019531 48.882813-43.703125 0-87.128906-17.984375-118.027343-48.882813-30.894532-30.902343-48.886719-74.328124-48.886719-118.023437zm0 0"/><path d="m323.410156 472.371094c0 42.902344-34.777344 77.675781-77.671875 77.675781-42.902343 0-77.675781-34.773437-77.675781-77.675781 0-42.894532 34.773438-77.667969 77.675781-77.667969 42.894531 0 77.671875 34.773437 77.671875 77.667969zm0 0"/><path d="m275.460938 400.613281-8.679688-34.039062-21.042969 28.128906zm0 0"/><path d="m300.660156 417.449219 5.007813-34.765625-30.207031 17.929687zm0 0"/><path d="m317.496094 442.648438 17.929687-30.199219-34.765625 5zm0 0"/><path d="m323.410156 472.371094 28.125-21.042969-34.039062-8.679687zm0 0"/><path d="m317.496094 502.097656 34.039062-8.679687-28.125-21.046875zm0 0"/><path d="m300.660156 527.292969 34.765625 5.011719-17.929687-30.207032zm0 0"/><path d="m216.015625 400.613281 8.679687-34.039062 21.042969 28.128906zm0 0"/><path d="m190.8125 417.449219-5.007812-34.765625 30.210937 17.929687zm0 0"/><path d="m173.980469 442.648438-17.933594-30.199219 34.765625 5zm0 0"/><path d="m168.0625 472.371094-28.121094-21.042969 34.039063-8.679687zm0 0"/><path d="m173.980469 502.097656-34.039063-8.679687 28.121094-21.046875zm0 0"/><path d="m190.8125 527.292969-34.765625 5.011719 17.933594-30.207032zm0 0"/><path d="m359.476562 887.792969c0 62.816406-50.921874 113.738281-113.738281 113.738281-62.816406 0-113.738281-50.921875-113.738281-113.738281 0-62.816407 50.921875-113.746094 113.738281-113.746094 62.816407 0 113.738281 50.929687 113.738281 113.746094zm0 0"/><path d="m275.171875 997.65625-29.433594 69.472656-29.441406-69.472656zm0 0"/><path d="m216.296875 777.925781 29.441406-69.476562 29.433594 69.476562zm0 0"/><path d="m135.871094 917.226562-69.480469-29.433593 69.480469-29.441407zm0 0"/><path d="m355.601562 858.351562 69.472657 29.441407-69.472657 29.433593zm0 0"/><path d="m216.296875 997.65625-60.226563 45.453125 9.234376-74.890625zm0 0"/><path d="m275.171875 777.925781 60.234375-45.449219-9.246094 74.886719zm0 0"/><path d="m135.871094 858.351562-45.449219-60.226562 74.882813 9.238281zm0 0"/><path d="m355.601562 917.226562 45.453126 60.234376-74.894532-9.242188zm0 0"/><path d="m165.304688 968.21875-74.882813 9.242188 45.449219-60.234376zm0 0"/><path d="m326.160156 807.363281 74.894532-9.238281-45.453126 60.226562zm0 0"/><path d="m165.304688 807.363281-9.234376-74.886719 60.226563 45.449219zm0 0"/><path d="m326.160156 968.21875 9.246094 74.890625-60.234375-45.453125zm0 0"/></g></svg>