<svg viewBox="0 0 1000 500" xmlns="http://www.w3.org/2000/svg"><path d="m0 0h1000v500h-1000z" fill="#00247d"/><path d="m0 0 500 250zm0 250 500-250zm0 0" fill-rule="evenodd"/><path d="m0 0 500 250zm0 250 500-250zm0 0" fill-rule="evenodd"/><path d="m250 0v250zm-250 125h500zm0 0" fill-rule="evenodd"/><path d="m250 0v250zm-250 125h500zm0 0" fill-rule="evenodd"/><path d="m0 500v-250h500v-250h500v500zm0 0" fill="#00247d" stroke="#00247d" stroke-linecap="square" stroke-miterlimit="3.239307"/><g fill-rule="evenodd"><path d="m750 87.707031v18.917969l37.832031-18.917969zm0 0" fill="#fff"/><path d="m757.226562 109.945312-11.121093-15.304687 41.726562-6.933594zm0 0" fill="#fff"/><path d="m750 87.707031v18.917969l-37.832031-18.917969zm0 0" fill="#fff"/><path d="m742.773438 109.945312 11.121093-15.304687-41.726562-6.933594zm0 0" fill="#fff"/><path d="m761.691406 96.199219-17.992187 5.847656 29.679687 30.136719zm0 0" fill="#fff"/><path d="m742.773438 109.945312 11.121093-15.304687 19.484375 37.542969zm0 0" fill="#fff"/><path d="m738.308594 96.199219 17.992187 5.847656-6.300781-41.824219zm0 0" fill="#fff"/><path d="m761.691406 96.199219-17.992187 5.847656 6.300781-41.824219zm0 0" fill="#fff"/><path d="m738.308594 96.199219 17.992187 5.847656-29.679687 30.136719zm0 0" fill="#fff"/><path d="m757.226562 109.945312-11.121093-15.304687-19.484375 37.542969zm0 0" fill="#fff"/><path d="m750 91.878906v12.5l25-12.5zm0 0" fill="#cc142b"/><path d="m754.773438 106.570312-7.34375-10.109374 27.570312-4.582032zm0 0" fill="#cc142b"/><path d="m750 91.878906v12.5l-25-12.5zm0 0" fill="#cc142b"/><path d="m745.226562 106.570312 7.34375-10.109374-27.570312-4.582032zm0 0" fill="#cc142b"/><path d="m757.726562 97.488281-11.890624 3.863281 19.613281 19.914063zm0 0" fill="#cc142b"/><path d="m745.226562 106.570312 7.34375-10.109374 12.878907 24.804687zm0 0" fill="#cc142b"/><path d="m742.273438 97.488281 11.890624 3.863281-4.164062-27.636718zm0 0" fill="#cc142b"/><path d="m757.726562 97.488281-11.890624 3.863281 4.164062-27.636718zm0 0" fill="#cc142b"/><path d="m742.273438 97.488281 11.890624 3.863281-19.613281 19.914063zm0 0" fill="#cc142b"/><path d="m754.773438 106.570312-7.34375-10.109374-12.878907 24.804687zm0 0" fill="#cc142b"/><path d="m849.027344 175.144531v16.832031l33.667968-16.832031zm0 0" fill="#fff"/><path d="m855.457031 194.933594-9.898437-13.617188 37.136718-6.171875zm0 0" fill="#fff"/><path d="m849.027344 175.144531v16.832031l-33.667969-16.832031zm0 0" fill="#fff"/><path d="m842.597656 194.933594 9.894532-13.617188-37.132813-6.171875zm0 0" fill="#fff"/><path d="m859.433594 182.703125-16.011719 5.199219 26.410156 26.820312zm0 0" fill="#fff"/><path d="m842.597656 194.933594 9.894532-13.617188 17.339843 33.40625zm0 0" fill="#fff"/><path d="m838.621094 182.703125 16.007812 5.199219-5.601562-37.21875zm0 0" fill="#fff"/><path d="m859.433594 182.703125-16.011719 5.199219 5.605469-37.21875zm0 0" fill="#fff"/><path d="m838.621094 182.703125 16.007812 5.199219-26.410156 26.820312zm0 0" fill="#fff"/><path d="m855.457031 194.933594-9.898437-13.617188-17.339844 33.40625zm0 0" fill="#fff"/><path d="m849.027344 179.3125v10.417969l20.832031-10.417969zm0 0" fill="#cc142b"/><path d="m853.007812 191.558594-6.125-8.429688 22.976563-3.816406zm0 0" fill="#cc142b"/><path d="m849.027344 179.3125v10.417969l-20.832032-10.417969zm0 0" fill="#cc142b"/><path d="m845.046875 191.558594 6.125-8.429688-22.976563-3.816406zm0 0" fill="#cc142b"/><path d="m855.464844 183.992188-9.910156 3.21875 16.347656 16.59375zm0 0" fill="#cc142b"/><path d="m845.046875 191.558594 6.125-8.429688 10.730469 20.675782zm0 0" fill="#cc142b"/><path d="m842.589844 183.992188 9.90625 3.21875-3.46875-23.035157zm0 0" fill="#cc142b"/><path d="m855.464844 183.992188-9.910156 3.21875 3.472656-23.035157zm0 0" fill="#cc142b"/><path d="m842.589844 183.992188 9.90625 3.21875-16.347656 16.59375zm0 0" fill="#cc142b"/><path d="m853.007812 191.558594-6.125-8.429688-10.734374 20.675782zm0 0" fill="#cc142b"/><path d="m634.46875 203.941406v18.917969l37.832031-18.917969zm0 0" fill="#fff"/><path d="m641.695312 226.179688-11.121093-15.304688 41.726562-6.933594zm0 0" fill="#fff"/><path d="m634.46875 203.941406v18.917969l-37.832031-18.917969zm0 0" fill="#fff"/><path d="m627.242188 226.179688 11.121093-15.304688-41.726562-6.933594zm0 0" fill="#fff"/><path d="m646.160156 212.4375-17.992187 5.84375 29.683593 30.140625zm0 0" fill="#fff"/><path d="m627.242188 226.179688 11.121093-15.304688 19.488281 37.546875zm0 0" fill="#fff"/><path d="m622.777344 212.4375 17.992187 5.84375-6.300781-41.824219zm0 0" fill="#fff"/><path d="m646.160156 212.4375-17.992187 5.84375 6.300781-41.824219zm0 0" fill="#fff"/><path d="m622.777344 212.4375 17.992187 5.84375-29.679687 30.140625zm0 0" fill="#fff"/><path d="m641.695312 226.179688-11.121093-15.304688-19.484375 37.546875zm0 0" fill="#fff"/><path d="m634.46875 208.113281v12.5l25-12.5zm0 0" fill="#cc142b"/><path d="m639.242188 222.808594-7.34375-10.113282 27.570312-4.582031zm0 0" fill="#cc142b"/><path d="m634.46875 208.113281v12.5l-25-12.5zm0 0" fill="#cc142b"/><path d="m629.695312 222.808594 7.34375-10.113282-27.570312-4.582031zm0 0" fill="#cc142b"/><path d="m642.195312 213.726562-11.890624 3.863282 19.613281 19.914062zm0 0" fill="#cc142b"/><path d="m629.695312 222.808594 7.34375-10.113282 12.878907 24.808594zm0 0" fill="#cc142b"/><path d="m626.742188 213.726562 11.890624 3.863282-4.164062-27.640625zm0 0" fill="#cc142b"/><path d="m642.195312 213.726562-11.890624 3.863282 4.164062-27.640625zm0 0" fill="#cc142b"/><path d="m626.742188 213.726562 11.890624 3.863282-19.613281 19.914062zm0 0" fill="#cc142b"/><path d="m639.242188 222.808594-7.34375-10.113282-12.878907 24.808594zm0 0" fill="#cc142b"/><path d="m750 386.351562v21l42-21zm0 0" fill="#fff"/><path d="m758.019531 411.039062-12.339843-16.988281 46.320312-7.699219zm0 0" fill="#fff"/><path d="m750 386.351562v21l-42-21zm0 0" fill="#fff"/><path d="m741.980469 411.039062 12.339843-16.988281-46.320312-7.699219zm0 0" fill="#fff"/><path d="m762.980469 395.785156-19.976563 6.484375 32.953125 33.457031zm0 0" fill="#fff"/><path d="m741.980469 411.039062 12.339843-16.988281 21.636719 41.675781zm0 0" fill="#fff"/><path d="m737.019531 395.785156 19.976563 6.484375-6.996094-46.429687zm0 0" fill="#fff"/><path d="m762.980469 395.785156-19.976563 6.484375 6.996094-46.429687zm0 0" fill="#fff"/><path d="m737.019531 395.785156 19.976563 6.484375-32.953125 33.457031zm0 0" fill="#fff"/><path d="m758.019531 411.039062-12.339843-16.988281-21.636719 41.675781zm0 0" fill="#fff"/><path d="m750 390.523438v14.582031l29.167969-14.582031zm0 0" fill="#cc142b"/><path d="m755.570312 407.664062-8.574218-11.792968 32.171875-5.347656zm0 0" fill="#cc142b"/><path d="m750 390.523438v14.582031l-29.167969-14.582031zm0 0" fill="#cc142b"/><path d="m744.429688 407.664062 8.574218-11.792968-32.171875-5.347656zm0 0" fill="#cc142b"/><path d="m759.011719 397.070312-13.871094 4.507813 22.886719 23.230469zm0 0" fill="#cc142b"/><path d="m744.429688 407.664062 8.574218-11.792968 15.023438 28.9375zm0 0" fill="#cc142b"/><path d="m740.988281 397.070312 13.871094 4.507813-4.859375-32.246094zm0 0" fill="#cc142b"/><path d="m759.011719 397.070312-13.871094 4.507813 4.859375-32.246094zm0 0" fill="#cc142b"/><path d="m740.988281 397.070312 13.871094 4.507813-22.886719 23.230469zm0 0" fill="#cc142b"/><path d="m755.570312 407.664062-8.574218-11.792968-15.023438 28.9375zm0 0" fill="#cc142b"/></g><path d="m0 250h500v-250h-500zm0 0" fill="#00247d" stroke="#00247d" stroke-linecap="square" stroke-miterlimit="3.239307"/><path d="m0 0v27.949219l444.097656 222.050781h55.902344v-27.949219l-444.097656-222.050781zm500 0v27.949219l-444.097656 222.050781h-55.902344v-27.953125l444.097656-222.046875zm0 0" fill="#fff" fill-rule="evenodd"/><path d="m0 250 166.664062-83.335938h37.269532l-166.667969 83.335938zm0-250 166.664062 83.335938h-37.265624l-129.398438-64.703126zm296.066406 83.335938 166.667969-83.335938h37.265625l-166.664062 83.335938zm203.933594 166.664062-166.664062-83.335938h37.265624l129.398438 64.703126zm0 0" fill="#cf142b" fill-rule="evenodd"/><path d="m208.335938 0v250h83.328124v-250zm0 0" fill="#fff" stroke="#fff" stroke-linecap="square" stroke-miterlimit="3.239307"/><path d="m0 83.335938v83.328124h500v-83.328124zm0 0" fill="#fff" stroke="#fff" stroke-linecap="square" stroke-miterlimit="3.239307"/><path d="m0 100v50h500v-50zm0 0" fill="#cf142b" stroke="#cf142b" stroke-linecap="square" stroke-miterlimit="3.239307"/><path d="m225 0v250h50v-250zm0 0" fill="#cf142b" stroke="#cf142b" stroke-linecap="square" stroke-miterlimit="3.239307"/></svg>