<?xml version="1.0" encoding="UTF-8"?>
<svg xmlns="http://www.w3.org/2000/svg" xmlns:xlink="http://www.w3.org/1999/xlink" width="128pt" height="64pt" viewBox="0 0 128 64" version="1.1">
<g id="surface787">
<rect x="0" y="0" width="128" height="64" style="fill:rgb(0%,58.430481%,26.274109%);fill-opacity:1;stroke:none;"/>
<path style=" stroke:none;fill-rule:evenodd;fill:rgb(92.939758%,25.489807%,20.783997%);fill-opacity:1;" d="M 0 0 L 128 0 L 128 42.667969 L 0 42.667969 Z M 0 0 "/>
<path style=" stroke:none;fill-rule:evenodd;fill:rgb(0%,20.783997%,67.842102%);fill-opacity:1;" d="M 0 0 L 128 0 L 128 21.332031 L 0 21.332031 Z M 0 0 "/>
<path style="fill-rule:evenodd;fill:rgb(98.03772%,90.194702%,0%);fill-opacity:1;stroke-width:0.711111;stroke-linecap:butt;stroke-linejoin:miter;stroke:rgb(0%,0%,0%);stroke-opacity:1;stroke-miterlimit:4;" d="M 63.640625 32 C 63.640625 43.585938 54.25 52.976562 42.667969 52.976562 C 31.082031 52.976562 21.691406 43.585938 21.691406 32 C 21.691406 20.414062 31.082031 11.023438 42.667969 11.023438 C 54.25 11.023438 63.640625 20.414062 63.640625 32 Z M 63.640625 32 "/>
<path style=" stroke:none;fill-rule:evenodd;fill:rgb(0%,0%,0%);fill-opacity:1;" d="M 39.109375 35.128906 L 46.222656 35.128906 Z M 39.109375 29.867188 L 46.222656 29.867188 Z M 42.667969 11.09375 L 42.667969 46.933594 Z M 42.667969 11.09375 "/>
<path style="fill:none;stroke-width:0.853333;stroke-linecap:butt;stroke-linejoin:miter;stroke:rgb(0%,0%,0%);stroke-opacity:1;stroke-miterlimit:4;" d="M 39.109375 35.128906 L 46.222656 35.128906 "/>
<path style="fill:none;stroke-width:0.853333;stroke-linecap:butt;stroke-linejoin:miter;stroke:rgb(0%,0%,0%);stroke-opacity:1;stroke-miterlimit:4;" d="M 39.109375 29.867188 L 46.222656 29.867188 "/>
<path style="fill:none;stroke-width:0.853333;stroke-linecap:butt;stroke-linejoin:miter;stroke:rgb(0%,0%,0%);stroke-opacity:1;stroke-miterlimit:4;" d="M 42.667969 11.09375 L 42.667969 46.933594 "/>
<path style=" stroke:none;fill-rule:evenodd;fill:rgb(0%,0%,0%);fill-opacity:1;" d="M 34.222656 51.257812 C 42.78125 54.753906 50.804688 51.472656 50.804688 51.472656 C 50.804688 51.472656 47.777344 48.195312 46.222656 46.917969 C 44.707031 45.667969 40.253906 45.71875 38.730469 46.917969 C 37.460938 47.917969 33.820312 51.605469 34.222656 51.257812 Z M 34.222656 51.257812 "/>
<path style=" stroke:none;fill-rule:evenodd;fill:rgb(0%,0%,0%);fill-opacity:1;" d="M 45.011719 41.671875 C 45.011719 43.554688 43.960938 45.085938 42.667969 45.085938 C 41.371094 45.085938 40.320312 43.554688 40.320312 41.671875 C 40.320312 39.785156 41.371094 38.257812 42.667969 38.257812 C 43.960938 38.257812 45.011719 39.785156 45.011719 41.671875 Z M 45.011719 41.671875 "/>
<path style=" stroke:none;fill-rule:evenodd;fill:rgb(0%,0%,0%);fill-opacity:1;" d="M 45.511719 32.496094 C 45.511719 33.492188 44.238281 34.296875 42.667969 34.296875 C 41.097656 34.296875 39.820312 33.492188 39.820312 32.496094 C 39.820312 31.503906 41.097656 30.695312 42.667969 30.695312 C 44.238281 30.695312 45.511719 31.503906 45.511719 32.496094 Z M 45.511719 32.496094 "/>
<path style=" stroke:none;fill-rule:evenodd;fill:rgb(0%,0%,0%);fill-opacity:1;" d="M 45.511719 24.179688 C 45.511719 25.75 44.238281 27.023438 42.667969 27.023438 C 41.097656 27.023438 39.820312 25.75 39.820312 24.179688 C 39.820312 22.605469 41.097656 21.332031 42.667969 21.332031 C 44.238281 21.332031 45.511719 22.605469 45.511719 24.179688 Z M 45.511719 24.179688 "/>
<path style=" stroke:none;fill-rule:evenodd;fill:rgb(0%,0%,0%);fill-opacity:1;" d="M 46.078125 13.582031 C 46.078125 13.582031 46.328125 13.988281 45.808594 14.925781 C 43.328125 19.386719 40.84375 19.484375 40.371094 19.867188 C 39.851562 20.292969 39.628906 20.261719 39.628906 20.261719 C 39.667969 19.878906 39.703125 18.316406 39.730469 18.167969 C 40.105469 16.082031 43.257812 16.109375 45.722656 13.976562 C 46.105469 13.640625 46.078125 13.582031 46.078125 13.582031 Z M 46.078125 13.582031 "/>
<path style=" stroke:none;fill-rule:evenodd;fill:rgb(0%,0%,0%);fill-opacity:1;" d="M 37.757812 23.183594 C 37.757812 23.183594 38.316406 24.777344 38.398438 26.382812 C 38.535156 28.941406 40.984375 29.011719 42.667969 29.011719 L 42.667969 27.589844 C 41.40625 27.589844 40.3125 27.402344 39.394531 25.527344 C 38.941406 24.605469 37.757812 23.183594 37.757812 23.183594 Z M 37.757812 23.183594 "/>
<path style=" stroke:none;fill-rule:evenodd;fill:rgb(0%,0%,0%);fill-opacity:1;" d="M 37.6875 43.804688 C 37.6875 43.804688 38.585938 42.699219 39.632812 40.109375 C 40.179688 38.757812 41.472656 37.972656 42.667969 37.972656 L 42.667969 35.980469 C 39.960938 35.980469 38.664062 36.984375 38.527344 38.453125 C 38.246094 41.464844 37.6875 43.804688 37.6875 43.804688 Z M 37.6875 43.804688 "/>
<path style=" stroke:none;fill-rule:evenodd;fill:rgb(0%,0%,0%);fill-opacity:1;" d="M 47.574219 23.183594 C 47.574219 23.183594 47.015625 24.777344 46.933594 26.382812 C 46.800781 28.941406 44.347656 29.011719 42.667969 29.011719 L 42.667969 27.589844 C 43.925781 27.589844 45.019531 27.402344 45.9375 25.527344 C 46.390625 24.605469 47.574219 23.183594 47.574219 23.183594 Z M 47.574219 23.183594 "/>
<path style=" stroke:none;fill-rule:evenodd;fill:rgb(0%,0%,0%);fill-opacity:1;" d="M 47.644531 43.804688 C 47.644531 43.804688 46.75 42.699219 45.703125 40.109375 C 45.15625 38.757812 43.859375 37.972656 42.667969 37.972656 L 42.667969 35.980469 C 45.371094 35.980469 46.671875 36.984375 46.808594 38.453125 C 47.089844 41.464844 47.644531 43.804688 47.644531 43.804688 Z M 47.644531 43.804688 "/>
</g>
</svg>
