<?xml version="1.0" encoding="UTF-8"?>
<svg xmlns="http://www.w3.org/2000/svg" xmlns:xlink="http://www.w3.org/1999/xlink" width="128pt" height="64pt" viewBox="0 0 128 64" version="1.1">
<g id="surface792">
<rect x="0" y="0" width="128" height="64" style="fill:rgb(0%,14.117432%,49.01886%);fill-opacity:1;stroke:none;"/>
<path style=" stroke:none;fill-rule:evenodd;fill:rgb(0%,0%,0%);fill-opacity:1;" d="M 0 0 L 64 32 Z M 0 32 L 64 0 Z M 0 32 "/>
<path style=" stroke:none;fill-rule:evenodd;fill:rgb(0%,0%,0%);fill-opacity:1;" d="M 0 0 L 64 32 Z M 0 32 L 64 0 Z M 0 32 "/>
<path style=" stroke:none;fill-rule:evenodd;fill:rgb(0%,0%,0%);fill-opacity:1;" d="M 32 0 L 32 32 Z M 0 16 L 64 16 Z M 0 16 "/>
<path style=" stroke:none;fill-rule:evenodd;fill:rgb(0%,0%,0%);fill-opacity:1;" d="M 32 0 L 32 32 Z M 0 16 L 64 16 Z M 0 16 "/>
<path style="fill-rule:nonzero;fill:rgb(0%,14.117432%,49.01886%);fill-opacity:1;stroke-width:1;stroke-linecap:square;stroke-linejoin:miter;stroke:rgb(0%,14.117432%,49.01886%);stroke-opacity:1;stroke-miterlimit:3.239307;" d="M 0 64 L 0 32 L 64 32 L 64 0 L 128 0 L 128 64 Z M 0 64 "/>
<path style=" stroke:none;fill-rule:evenodd;fill:rgb(99.998474%,99.998474%,99.998474%);fill-opacity:1;" d="M 96 11.226562 L 96 13.648438 L 100.84375 11.226562 Z M 96 11.226562 "/>
<path style=" stroke:none;fill-rule:evenodd;fill:rgb(99.998474%,99.998474%,99.998474%);fill-opacity:1;" d="M 96.925781 14.074219 L 95.5 12.113281 L 100.84375 11.226562 Z M 96.925781 14.074219 "/>
<path style=" stroke:none;fill-rule:evenodd;fill:rgb(99.998474%,99.998474%,99.998474%);fill-opacity:1;" d="M 96 11.226562 L 96 13.648438 L 91.15625 11.226562 Z M 96 11.226562 "/>
<path style=" stroke:none;fill-rule:evenodd;fill:rgb(99.998474%,99.998474%,99.998474%);fill-opacity:1;" d="M 95.074219 14.074219 L 96.5 12.113281 L 91.15625 11.226562 Z M 95.074219 14.074219 "/>
<path style=" stroke:none;fill-rule:evenodd;fill:rgb(99.998474%,99.998474%,99.998474%);fill-opacity:1;" d="M 97.496094 12.3125 L 95.195312 13.0625 L 98.992188 16.917969 Z M 97.496094 12.3125 "/>
<path style=" stroke:none;fill-rule:evenodd;fill:rgb(99.998474%,99.998474%,99.998474%);fill-opacity:1;" d="M 95.074219 14.074219 L 96.5 12.113281 L 98.992188 16.917969 Z M 95.074219 14.074219 "/>
<path style=" stroke:none;fill-rule:evenodd;fill:rgb(99.998474%,99.998474%,99.998474%);fill-opacity:1;" d="M 94.503906 12.3125 L 96.804688 13.0625 L 96 7.707031 Z M 94.503906 12.3125 "/>
<path style=" stroke:none;fill-rule:evenodd;fill:rgb(99.998474%,99.998474%,99.998474%);fill-opacity:1;" d="M 97.496094 12.3125 L 95.195312 13.0625 L 96 7.707031 Z M 97.496094 12.3125 "/>
<path style=" stroke:none;fill-rule:evenodd;fill:rgb(99.998474%,99.998474%,99.998474%);fill-opacity:1;" d="M 94.503906 12.3125 L 96.804688 13.0625 L 93.007812 16.917969 Z M 94.503906 12.3125 "/>
<path style=" stroke:none;fill-rule:evenodd;fill:rgb(99.998474%,99.998474%,99.998474%);fill-opacity:1;" d="M 96.925781 14.074219 L 95.5 12.113281 L 93.007812 16.917969 Z M 96.925781 14.074219 "/>
<path style=" stroke:none;fill-rule:evenodd;fill:rgb(79.998779%,7.843018%,16.862488%);fill-opacity:1;" d="M 96 11.761719 L 96 13.359375 L 99.199219 11.761719 Z M 96 11.761719 "/>
<path style=" stroke:none;fill-rule:evenodd;fill:rgb(79.998779%,7.843018%,16.862488%);fill-opacity:1;" d="M 96.609375 13.640625 L 95.671875 12.347656 L 99.199219 11.761719 Z M 96.609375 13.640625 "/>
<path style=" stroke:none;fill-rule:evenodd;fill:rgb(79.998779%,7.843018%,16.862488%);fill-opacity:1;" d="M 96 11.761719 L 96 13.359375 L 92.800781 11.761719 Z M 96 11.761719 "/>
<path style=" stroke:none;fill-rule:evenodd;fill:rgb(79.998779%,7.843018%,16.862488%);fill-opacity:1;" d="M 95.390625 13.640625 L 96.328125 12.347656 L 92.800781 11.761719 Z M 95.390625 13.640625 "/>
<path style=" stroke:none;fill-rule:evenodd;fill:rgb(79.998779%,7.843018%,16.862488%);fill-opacity:1;" d="M 96.988281 12.480469 L 95.46875 12.972656 L 97.976562 15.523438 Z M 96.988281 12.480469 "/>
<path style=" stroke:none;fill-rule:evenodd;fill:rgb(79.998779%,7.843018%,16.862488%);fill-opacity:1;" d="M 95.390625 13.640625 L 96.328125 12.347656 L 97.976562 15.523438 Z M 95.390625 13.640625 "/>
<path style=" stroke:none;fill-rule:evenodd;fill:rgb(79.998779%,7.843018%,16.862488%);fill-opacity:1;" d="M 95.011719 12.480469 L 96.53125 12.972656 L 96 9.433594 Z M 95.011719 12.480469 "/>
<path style=" stroke:none;fill-rule:evenodd;fill:rgb(79.998779%,7.843018%,16.862488%);fill-opacity:1;" d="M 96.988281 12.480469 L 95.46875 12.972656 L 96 9.433594 Z M 96.988281 12.480469 "/>
<path style=" stroke:none;fill-rule:evenodd;fill:rgb(79.998779%,7.843018%,16.862488%);fill-opacity:1;" d="M 95.011719 12.480469 L 96.53125 12.972656 L 94.023438 15.523438 Z M 95.011719 12.480469 "/>
<path style=" stroke:none;fill-rule:evenodd;fill:rgb(79.998779%,7.843018%,16.862488%);fill-opacity:1;" d="M 96.609375 13.640625 L 95.671875 12.347656 L 94.023438 15.523438 Z M 96.609375 13.640625 "/>
<path style=" stroke:none;fill-rule:evenodd;fill:rgb(99.998474%,99.998474%,99.998474%);fill-opacity:1;" d="M 108.675781 22.417969 L 108.675781 24.574219 L 112.984375 22.417969 Z M 108.675781 22.417969 "/>
<path style=" stroke:none;fill-rule:evenodd;fill:rgb(99.998474%,99.998474%,99.998474%);fill-opacity:1;" d="M 109.5 24.953125 L 108.230469 23.207031 L 112.984375 22.417969 Z M 109.5 24.953125 "/>
<path style=" stroke:none;fill-rule:evenodd;fill:rgb(99.998474%,99.998474%,99.998474%);fill-opacity:1;" d="M 108.675781 22.417969 L 108.675781 24.574219 L 104.367188 22.417969 Z M 108.675781 22.417969 "/>
<path style=" stroke:none;fill-rule:evenodd;fill:rgb(99.998474%,99.998474%,99.998474%);fill-opacity:1;" d="M 107.851562 24.953125 L 109.117188 23.207031 L 104.367188 22.417969 Z M 107.851562 24.953125 "/>
<path style=" stroke:none;fill-rule:evenodd;fill:rgb(99.998474%,99.998474%,99.998474%);fill-opacity:1;" d="M 110.007812 23.386719 L 107.957031 24.050781 L 111.339844 27.484375 Z M 110.007812 23.386719 "/>
<path style=" stroke:none;fill-rule:evenodd;fill:rgb(99.998474%,99.998474%,99.998474%);fill-opacity:1;" d="M 107.851562 24.953125 L 109.117188 23.207031 L 111.339844 27.484375 Z M 107.851562 24.953125 "/>
<path style=" stroke:none;fill-rule:evenodd;fill:rgb(99.998474%,99.998474%,99.998474%);fill-opacity:1;" d="M 107.34375 23.386719 L 109.394531 24.050781 L 108.675781 19.289062 Z M 107.34375 23.386719 "/>
<path style=" stroke:none;fill-rule:evenodd;fill:rgb(99.998474%,99.998474%,99.998474%);fill-opacity:1;" d="M 110.007812 23.386719 L 107.957031 24.050781 L 108.675781 19.289062 Z M 110.007812 23.386719 "/>
<path style=" stroke:none;fill-rule:evenodd;fill:rgb(99.998474%,99.998474%,99.998474%);fill-opacity:1;" d="M 107.34375 23.386719 L 109.394531 24.050781 L 106.011719 27.484375 Z M 107.34375 23.386719 "/>
<path style=" stroke:none;fill-rule:evenodd;fill:rgb(99.998474%,99.998474%,99.998474%);fill-opacity:1;" d="M 109.5 24.953125 L 108.230469 23.207031 L 106.011719 27.484375 Z M 109.5 24.953125 "/>
<path style=" stroke:none;fill-rule:evenodd;fill:rgb(79.998779%,7.843018%,16.862488%);fill-opacity:1;" d="M 108.675781 22.953125 L 108.675781 24.285156 L 111.34375 22.953125 Z M 108.675781 22.953125 "/>
<path style=" stroke:none;fill-rule:evenodd;fill:rgb(79.998779%,7.843018%,16.862488%);fill-opacity:1;" d="M 109.183594 24.519531 L 108.402344 23.441406 L 111.34375 22.953125 Z M 109.183594 24.519531 "/>
<path style=" stroke:none;fill-rule:evenodd;fill:rgb(79.998779%,7.843018%,16.862488%);fill-opacity:1;" d="M 108.675781 22.953125 L 108.675781 24.285156 L 106.007812 22.953125 Z M 108.675781 22.953125 "/>
<path style=" stroke:none;fill-rule:evenodd;fill:rgb(79.998779%,7.843018%,16.862488%);fill-opacity:1;" d="M 108.167969 24.519531 L 108.949219 23.441406 L 106.007812 22.953125 Z M 108.167969 24.519531 "/>
<path style=" stroke:none;fill-rule:evenodd;fill:rgb(79.998779%,7.843018%,16.862488%);fill-opacity:1;" d="M 109.5 23.550781 L 108.230469 23.964844 L 110.324219 26.085938 Z M 109.5 23.550781 "/>
<path style=" stroke:none;fill-rule:evenodd;fill:rgb(79.998779%,7.843018%,16.862488%);fill-opacity:1;" d="M 108.167969 24.519531 L 108.949219 23.441406 L 110.324219 26.085938 Z M 108.167969 24.519531 "/>
<path style=" stroke:none;fill-rule:evenodd;fill:rgb(79.998779%,7.843018%,16.862488%);fill-opacity:1;" d="M 107.851562 23.550781 L 109.121094 23.964844 L 108.675781 21.015625 Z M 107.851562 23.550781 "/>
<path style=" stroke:none;fill-rule:evenodd;fill:rgb(79.998779%,7.843018%,16.862488%);fill-opacity:1;" d="M 109.5 23.550781 L 108.230469 23.964844 L 108.675781 21.015625 Z M 109.5 23.550781 "/>
<path style=" stroke:none;fill-rule:evenodd;fill:rgb(79.998779%,7.843018%,16.862488%);fill-opacity:1;" d="M 107.851562 23.550781 L 109.121094 23.964844 L 107.027344 26.085938 Z M 107.851562 23.550781 "/>
<path style=" stroke:none;fill-rule:evenodd;fill:rgb(79.998779%,7.843018%,16.862488%);fill-opacity:1;" d="M 109.183594 24.519531 L 108.402344 23.441406 L 107.027344 26.085938 Z M 109.183594 24.519531 "/>
<path style=" stroke:none;fill-rule:evenodd;fill:rgb(99.998474%,99.998474%,99.998474%);fill-opacity:1;" d="M 81.210938 26.105469 L 81.210938 28.527344 L 86.054688 26.105469 Z M 81.210938 26.105469 "/>
<path style=" stroke:none;fill-rule:evenodd;fill:rgb(99.998474%,99.998474%,99.998474%);fill-opacity:1;" d="M 82.136719 28.949219 L 80.714844 26.992188 L 86.054688 26.105469 Z M 82.136719 28.949219 "/>
<path style=" stroke:none;fill-rule:evenodd;fill:rgb(99.998474%,99.998474%,99.998474%);fill-opacity:1;" d="M 81.210938 26.105469 L 81.210938 28.527344 L 76.371094 26.105469 Z M 81.210938 26.105469 "/>
<path style=" stroke:none;fill-rule:evenodd;fill:rgb(99.998474%,99.998474%,99.998474%);fill-opacity:1;" d="M 80.285156 28.949219 L 81.710938 26.992188 L 76.371094 26.105469 Z M 80.285156 28.949219 "/>
<path style=" stroke:none;fill-rule:evenodd;fill:rgb(99.998474%,99.998474%,99.998474%);fill-opacity:1;" d="M 82.707031 27.191406 L 80.40625 27.941406 L 84.207031 31.796875 Z M 82.707031 27.191406 "/>
<path style=" stroke:none;fill-rule:evenodd;fill:rgb(99.998474%,99.998474%,99.998474%);fill-opacity:1;" d="M 80.285156 28.949219 L 81.710938 26.992188 L 84.207031 31.796875 Z M 80.285156 28.949219 "/>
<path style=" stroke:none;fill-rule:evenodd;fill:rgb(99.998474%,99.998474%,99.998474%);fill-opacity:1;" d="M 79.714844 27.191406 L 82.019531 27.941406 L 81.210938 22.585938 Z M 79.714844 27.191406 "/>
<path style=" stroke:none;fill-rule:evenodd;fill:rgb(99.998474%,99.998474%,99.998474%);fill-opacity:1;" d="M 82.707031 27.191406 L 80.40625 27.941406 L 81.210938 22.585938 Z M 82.707031 27.191406 "/>
<path style=" stroke:none;fill-rule:evenodd;fill:rgb(99.998474%,99.998474%,99.998474%);fill-opacity:1;" d="M 79.714844 27.191406 L 82.019531 27.941406 L 78.21875 31.796875 Z M 79.714844 27.191406 "/>
<path style=" stroke:none;fill-rule:evenodd;fill:rgb(99.998474%,99.998474%,99.998474%);fill-opacity:1;" d="M 82.136719 28.949219 L 80.714844 26.992188 L 78.21875 31.796875 Z M 82.136719 28.949219 "/>
<path style=" stroke:none;fill-rule:evenodd;fill:rgb(79.998779%,7.843018%,16.862488%);fill-opacity:1;" d="M 81.210938 26.636719 L 81.210938 28.238281 L 84.410156 26.636719 Z M 81.210938 26.636719 "/>
<path style=" stroke:none;fill-rule:evenodd;fill:rgb(79.998779%,7.843018%,16.862488%);fill-opacity:1;" d="M 81.824219 28.519531 L 80.882812 27.226562 L 84.410156 26.636719 Z M 81.824219 28.519531 "/>
<path style=" stroke:none;fill-rule:evenodd;fill:rgb(79.998779%,7.843018%,16.862488%);fill-opacity:1;" d="M 81.210938 26.636719 L 81.210938 28.238281 L 78.011719 26.636719 Z M 81.210938 26.636719 "/>
<path style=" stroke:none;fill-rule:evenodd;fill:rgb(79.998779%,7.843018%,16.862488%);fill-opacity:1;" d="M 80.601562 28.519531 L 81.542969 27.226562 L 78.011719 26.636719 Z M 80.601562 28.519531 "/>
<path style=" stroke:none;fill-rule:evenodd;fill:rgb(79.998779%,7.843018%,16.862488%);fill-opacity:1;" d="M 82.199219 27.355469 L 80.679688 27.851562 L 83.191406 30.402344 Z M 82.199219 27.355469 "/>
<path style=" stroke:none;fill-rule:evenodd;fill:rgb(79.998779%,7.843018%,16.862488%);fill-opacity:1;" d="M 80.601562 28.519531 L 81.542969 27.226562 L 83.191406 30.402344 Z M 80.601562 28.519531 "/>
<path style=" stroke:none;fill-rule:evenodd;fill:rgb(79.998779%,7.843018%,16.862488%);fill-opacity:1;" d="M 80.222656 27.355469 L 81.746094 27.851562 L 81.210938 24.3125 Z M 80.222656 27.355469 "/>
<path style=" stroke:none;fill-rule:evenodd;fill:rgb(79.998779%,7.843018%,16.862488%);fill-opacity:1;" d="M 82.199219 27.355469 L 80.679688 27.851562 L 81.210938 24.3125 Z M 82.199219 27.355469 "/>
<path style=" stroke:none;fill-rule:evenodd;fill:rgb(79.998779%,7.843018%,16.862488%);fill-opacity:1;" d="M 80.222656 27.355469 L 81.746094 27.851562 L 79.234375 30.402344 Z M 80.222656 27.355469 "/>
<path style=" stroke:none;fill-rule:evenodd;fill:rgb(79.998779%,7.843018%,16.862488%);fill-opacity:1;" d="M 81.824219 28.519531 L 80.882812 27.226562 L 79.234375 30.402344 Z M 81.824219 28.519531 "/>
<path style=" stroke:none;fill-rule:evenodd;fill:rgb(99.998474%,99.998474%,99.998474%);fill-opacity:1;" d="M 96 49.453125 L 96 52.140625 L 101.375 49.453125 Z M 96 49.453125 "/>
<path style=" stroke:none;fill-rule:evenodd;fill:rgb(99.998474%,99.998474%,99.998474%);fill-opacity:1;" d="M 97.027344 52.613281 L 95.445312 50.4375 L 101.375 49.453125 Z M 97.027344 52.613281 "/>
<path style=" stroke:none;fill-rule:evenodd;fill:rgb(99.998474%,99.998474%,99.998474%);fill-opacity:1;" d="M 96 49.453125 L 96 52.140625 L 90.625 49.453125 Z M 96 49.453125 "/>
<path style=" stroke:none;fill-rule:evenodd;fill:rgb(99.998474%,99.998474%,99.998474%);fill-opacity:1;" d="M 94.972656 52.613281 L 96.554688 50.4375 L 90.625 49.453125 Z M 94.972656 52.613281 "/>
<path style=" stroke:none;fill-rule:evenodd;fill:rgb(99.998474%,99.998474%,99.998474%);fill-opacity:1;" d="M 97.660156 50.660156 L 95.105469 51.492188 L 99.324219 55.773438 Z M 97.660156 50.660156 "/>
<path style=" stroke:none;fill-rule:evenodd;fill:rgb(99.998474%,99.998474%,99.998474%);fill-opacity:1;" d="M 94.972656 52.613281 L 96.554688 50.4375 L 99.324219 55.773438 Z M 94.972656 52.613281 "/>
<path style=" stroke:none;fill-rule:evenodd;fill:rgb(99.998474%,99.998474%,99.998474%);fill-opacity:1;" d="M 94.339844 50.660156 L 96.894531 51.492188 L 96 45.546875 Z M 94.339844 50.660156 "/>
<path style=" stroke:none;fill-rule:evenodd;fill:rgb(99.998474%,99.998474%,99.998474%);fill-opacity:1;" d="M 97.660156 50.660156 L 95.105469 51.492188 L 96 45.546875 Z M 97.660156 50.660156 "/>
<path style=" stroke:none;fill-rule:evenodd;fill:rgb(99.998474%,99.998474%,99.998474%);fill-opacity:1;" d="M 94.339844 50.660156 L 96.894531 51.492188 L 92.675781 55.773438 Z M 94.339844 50.660156 "/>
<path style=" stroke:none;fill-rule:evenodd;fill:rgb(99.998474%,99.998474%,99.998474%);fill-opacity:1;" d="M 97.027344 52.613281 L 95.445312 50.4375 L 92.675781 55.773438 Z M 97.027344 52.613281 "/>
<path style=" stroke:none;fill-rule:evenodd;fill:rgb(79.998779%,7.843018%,16.862488%);fill-opacity:1;" d="M 96 49.988281 L 96 51.855469 L 99.734375 49.988281 Z M 96 49.988281 "/>
<path style=" stroke:none;fill-rule:evenodd;fill:rgb(79.998779%,7.843018%,16.862488%);fill-opacity:1;" d="M 96.714844 52.179688 L 95.617188 50.671875 L 99.734375 49.988281 Z M 96.714844 52.179688 "/>
<path style=" stroke:none;fill-rule:evenodd;fill:rgb(79.998779%,7.843018%,16.862488%);fill-opacity:1;" d="M 96 49.988281 L 96 51.855469 L 92.265625 49.988281 Z M 96 49.988281 "/>
<path style=" stroke:none;fill-rule:evenodd;fill:rgb(79.998779%,7.843018%,16.862488%);fill-opacity:1;" d="M 95.285156 52.179688 L 96.382812 50.671875 L 92.265625 49.988281 Z M 95.285156 52.179688 "/>
<path style=" stroke:none;fill-rule:evenodd;fill:rgb(79.998779%,7.843018%,16.862488%);fill-opacity:1;" d="M 97.152344 50.824219 L 95.378906 51.402344 L 98.308594 54.375 Z M 97.152344 50.824219 "/>
<path style=" stroke:none;fill-rule:evenodd;fill:rgb(79.998779%,7.843018%,16.862488%);fill-opacity:1;" d="M 95.285156 52.179688 L 96.382812 50.671875 L 98.308594 54.375 Z M 95.285156 52.179688 "/>
<path style=" stroke:none;fill-rule:evenodd;fill:rgb(79.998779%,7.843018%,16.862488%);fill-opacity:1;" d="M 94.847656 50.824219 L 96.621094 51.402344 L 96 47.273438 Z M 94.847656 50.824219 "/>
<path style=" stroke:none;fill-rule:evenodd;fill:rgb(79.998779%,7.843018%,16.862488%);fill-opacity:1;" d="M 97.152344 50.824219 L 95.378906 51.402344 L 96 47.273438 Z M 97.152344 50.824219 "/>
<path style=" stroke:none;fill-rule:evenodd;fill:rgb(79.998779%,7.843018%,16.862488%);fill-opacity:1;" d="M 94.847656 50.824219 L 96.621094 51.402344 L 93.691406 54.375 Z M 94.847656 50.824219 "/>
<path style=" stroke:none;fill-rule:evenodd;fill:rgb(79.998779%,7.843018%,16.862488%);fill-opacity:1;" d="M 96.714844 52.179688 L 95.617188 50.671875 L 93.691406 54.375 Z M 96.714844 52.179688 "/>
<path style="fill-rule:nonzero;fill:rgb(0%,14.117432%,49.01886%);fill-opacity:1;stroke-width:1;stroke-linecap:square;stroke-linejoin:miter;stroke:rgb(0%,14.117432%,49.01886%);stroke-opacity:1;stroke-miterlimit:3.239307;" d="M 0 32 L 64 32 L 64 0 L 0 0 Z M 0 32 "/>
<path style=" stroke:none;fill-rule:evenodd;fill:rgb(99.998474%,99.998474%,99.998474%);fill-opacity:1;" d="M 0 0 L 0 3.578125 L 56.84375 32 L 64 32 L 64 28.421875 L 7.15625 0 Z M 64 0 L 64 3.578125 L 7.15625 32 L 0 32 L 0 28.421875 L 56.84375 0 Z M 64 0 "/>
<path style=" stroke:none;fill-rule:evenodd;fill:rgb(81.175232%,7.843018%,16.862488%);fill-opacity:1;" d="M 0 32 L 21.332031 21.332031 L 26.105469 21.332031 L 4.769531 32 Z M 0 0 L 21.332031 10.667969 L 16.5625 10.667969 L 0 2.386719 Z M 37.894531 10.667969 L 59.230469 0 L 64 0 L 42.667969 10.667969 Z M 64 32 L 42.667969 21.332031 L 47.4375 21.332031 L 64 29.613281 Z M 64 32 "/>
<path style="fill-rule:nonzero;fill:rgb(99.998474%,99.998474%,99.998474%);fill-opacity:1;stroke-width:1;stroke-linecap:square;stroke-linejoin:miter;stroke:rgb(99.998474%,99.998474%,99.998474%);stroke-opacity:1;stroke-miterlimit:3.239307;" d="M 26.667969 0 L 26.667969 32 L 37.332031 32 L 37.332031 0 Z M 26.667969 0 "/>
<path style="fill-rule:nonzero;fill:rgb(99.998474%,99.998474%,99.998474%);fill-opacity:1;stroke-width:1;stroke-linecap:square;stroke-linejoin:miter;stroke:rgb(99.998474%,99.998474%,99.998474%);stroke-opacity:1;stroke-miterlimit:3.239307;" d="M 0 10.667969 L 0 21.332031 L 64 21.332031 L 64 10.667969 Z M 0 10.667969 "/>
<path style="fill-rule:nonzero;fill:rgb(81.175232%,7.843018%,16.862488%);fill-opacity:1;stroke-width:1;stroke-linecap:square;stroke-linejoin:miter;stroke:rgb(81.175232%,7.843018%,16.862488%);stroke-opacity:1;stroke-miterlimit:3.239307;" d="M 0 12.800781 L 0 19.199219 L 64 19.199219 L 64 12.800781 Z M 0 12.800781 "/>
<path style="fill-rule:nonzero;fill:rgb(81.175232%,7.843018%,16.862488%);fill-opacity:1;stroke-width:1;stroke-linecap:square;stroke-linejoin:miter;stroke:rgb(81.175232%,7.843018%,16.862488%);stroke-opacity:1;stroke-miterlimit:3.239307;" d="M 28.800781 0 L 28.800781 32 L 35.199219 32 L 35.199219 0 Z M 28.800781 0 "/>
</g>
</svg>
