<svg viewBox="0 0 1000 600" xmlns="http://www.w3.org/2000/svg"><path d="m0 0h1000v600h-1000z" fill="#0067c6"/><path d="m0 400h1000v-200h-1000zm0 0" fill="#fff" fill-rule="evenodd"/><path d="m431.785156 342.007812 1.558594 2.449219-6 9.046875-1.417969-2.226562 1.285157-1.792969-2.546876-4.003906-2.15625.421875-1.429687-2.242188zm-.878906 2.300782-4.480469.84375 1.820313 2.863281zm0 0" fill="#c8a400" fill-rule="evenodd"/><path d="m429.28125 356.097656 7.355469-6.65625 2.488281 2.75-3.957031 6.863282 7.199219-3.285157 2.511718 2.777344-7.355468 6.65625-1.582032-1.75 5.925782-5.367187-7.59375 3.527343-1.726563-1.910156 4.234375-7.234375-5.925781 5.367188zm0 0" fill="#c8a400" fill-rule="evenodd"/><path d="m453.753906 361.398438-3.589844.324218-.925781-.746094 2.851563-.917968s1.664062 1.339844 1.664062 1.339844zm-13.6875 6.027343 6.222656-7.722656 6.910157 5.5625-1.078125 1.335937-4.972656-4.007812-1.328126 1.652344 4.550782 3.664062-1.0625 1.324219-4.550782-3.667969-1.601562 1.988282 5.203125 4.195312-1.152344 1.429688zm0 0" fill="#c8a400" fill-rule="evenodd"/><path d="m449.835938 375.03125 5.054687-8.539062 5.089844 3.015624c1.152343.683594 1.886719 1.390626 2.203125 2.117188.3125.730469.230468 1.5-.253906 2.3125-.308594.523438-.699219.875-1.171876 1.054688-.472656.179687-1 .191406-1.585937.035156.378906.386718.585937.78125.621094 1.183594.019531.402343-.121094.890624-.417969 1.460937l-.550781 1.035156-.019531.03125c-.296876.5-.34375.886719-.136719 1.15625l-.160157.273438-2.378906-1.410157c-.007812-.167968.019532-.355468.085938-.558593.027344-.09375.070312-.195313.121094-.304688.050781-.113281.109374-.230469.171874-.359375l.519532-.910156c.285156-.550781.367187-.980469.253906-1.292969-.105469-.320312-.445312-.652343-1.019531-.988281l-2.300781-1.367188-1.96875 3.328126zm5-3.527344 2.542968 1.503906c.550782.328126 1.011719.480469 1.378906.453126.367188-.027344.667969-.234376.898438-.625.226562-.382813.269531-.738282.125-1.066407-.140625-.339843-.457031-.660156-.960938-.957031l-2.648437-1.566406zm0 0" fill="#c8a400" fill-rule="evenodd"/><path d="m461.683594 381.585938 4.09375-9.039063 2.296875 1.039063-4.09375 9.039062zm0 0" fill="#c8a400" fill-rule="evenodd"/><path d="m478.773438 384.273438c-.433594 1.035156-1.214844 1.726562-2.34375 2.074218-1.136719.332032-2.453126.257813-3.953126-.226562-1.707031-.550782-2.90625-1.421875-3.585937-2.609375-.679687-1.164063-.761719-2.539063-.25-4.128907.515625-1.597656 1.402344-2.671874 2.65625-3.222656 1.253906-.539062 2.789063-.515625 4.609375.074219 1.488281.476563 2.5625 1.148437 3.226562 2.015625.675782.875.878907 1.863281.609376 2.953125l-2.347657-.757813c.074219-.566406-.066406-1.0625-.417969-1.496093-.363281-.421875-.90625-.753907-1.628906-.984375-1.042968-.335938-1.933594-.316406-2.667968.058594-.734376.375-1.269532 1.089843-1.609376 2.144531-.328124 1.011719-.308593 1.894531.046876 2.644531.375.734375 1.0625 1.265625 2.0625 1.585938.734374.234374 1.375.277343 1.925781.125.550781-.152344.996093-.488282 1.335937-1.003907zm0 0" fill="#c8a400" fill-rule="evenodd"/><path d="m486.433594 379.082031 2.871094.441407 2.847656 10.476562-2.613282-.402344-.5-2.148437-4.6875-.722657-1.105468 1.902344-2.628906-.40625zm1.148437 2.175781-2.320312 3.925782 3.355469.519531zm0 0" fill="#c8a400" fill-rule="evenodd"/><path d="m516.691406 385.316406c.054688 1.121094-.355468 2.082032-1.230468 2.878906-.886719.785157-2.109376 1.277344-3.671876 1.480469-1.78125.230469-3.234374-.046875-4.359374-.828125-1.109376-.761718-1.773438-1.972656-1.984376-3.625-.21875-1.667968.125-3.015625 1.027344-4.050781.902344-1.023437 2.300782-1.65625 4.199219-1.902344 1.546875-.203125 2.808594-.050781 3.777344.445313.984375.507812 1.589843 1.3125 1.8125 2.410156l-2.445313.316406c-.175781-.539062-.515625-.929687-1.015625-1.171875-.511719-.230469-1.144531-.292969-1.898437-.195312-1.085938.140625-1.882813.539062-2.382813 1.191406-.503906.652344-.683593 1.527344-.542969 2.628906.136719 1.050781.527344 1.84375 1.171876 2.371094.652343.503906 1.5.6875 2.539062.550781.765625-.097656 1.363281-.335937 1.796875-.707031.433594-.375.695313-.867187.78125-1.476563zm0 0" fill="#c8a400" fill-rule="evenodd"/><path d="m520.421875 387.9375-2.746094-9.535156 8.523438-2.453125.472656 1.644531-6.136719 1.769531.585938 2.035157 5.617187-1.617188.46875 1.628906-5.613281 1.617188.707031 2.457031 6.417969-1.851563.511719 1.765626zm0 0" fill="#c8a400" fill-rule="evenodd"/><path d="m532.601562 384.183594-4.109374-9.027344 2.402343-1.097656 7.328125 4.140625-2.824218-6.195313 2.261718-1.027344 4.113282 9.027344-2.355469 1.074219-7.382813-4.136719 2.828125 6.210938zm0 0" fill="#c8a400" fill-rule="evenodd"/><path d="m547.636719 376.496094-4.410157-6.859375-3.046874 1.957031-.957032-1.484375 8.195313-5.273437.957031 1.488281-3.03125 1.949219 4.410156 6.859374zm0 0" fill="#c8a400" fill-rule="evenodd"/><path d="m555.371094 371.253906-6.515625-7.480468 4.457031-3.882813c1.011719-.882813 1.910156-1.359375 2.703125-1.425781.789063-.070313 1.492187.25 2.113281.960937.398438.457031.609375.941407.632813 1.445313.023437.507812-.132813 1.011718-.464844 1.519531.488281-.238281.929687-.3125 1.320313-.21875.386718.109375.804687.394531 1.253906.855469l.808594.847656.023437.027344c.382813.4375.734375.605468 1.058594.492187l.207031.238281-2.085938 1.816407c-.164062-.042969-.328124-.128907-.503906-.257813-.078125-.054687-.160156-.125-.25-.210937-.089844-.082031-.183594-.175781-.285156-.273438l-.703125-.777343c-.433594-.445313-.8125-.660157-1.144531-.648438-.339844 0-.761719.21875-1.261719.65625l-2.019531 1.757812 2.539062 2.914063zm-1.78125-5.851562 2.230468-1.941406c.480469-.421876.769532-.8125.859376-1.167969.09375-.359375-.011719-.710938-.3125-1.050781-.289063-.335938-.613282-.488282-.972657-.453126-.363281.023438-.765625.226563-1.207031.613282l-2.320312 2.019531zm0 0" fill="#c8a400" fill-rule="evenodd"/><path d="m560.367188 352.75 1.867187-2.226562 10.433594 2.988281-1.695313 2.027343-2.097656-.683593-3.042969 3.636719 1.050781 1.929687-1.707031 2.039063zm2.460937.144531 2.15625 4.019531 2.179687-2.605468zm0 0" fill="#c8a400" fill-rule="evenodd"/><path d="m574.445312 350.808594-8.449218-5.199219 1.324218-2.148437 6.878907 4.238281 3.128906-5.078125 1.566406.964844zm0 0" fill="#c8a400" fill-rule="evenodd"/><path d="m420.828125 312.355469-9.875.925781-.550781-5.890625c-.125-1.332031.015625-2.34375.421875-3.023437.402343-.683594 1.074219-1.070313 2.015625-1.15625.605468-.058594 1.121094.054687 1.542968.328124.425782.277344.746094.699219.960938 1.265626.089844-.535157.289062-.9375.589844-1.199219.316406-.25.792968-.425781 1.429687-.519531l1.160157-.164063h.035156c.582031-.054687.921875-.246094 1.019531-.570313l.3125-.03125.257813 2.753907c-.128907.105469-.296876.191406-.503907.257812-.089843.03125-.195312.058594-.316406.082031-.121094.023438-.25.046876-.386719.074219l-1.042968.113281c-.613282.09375-1.011719.277344-1.199219.550782-.195313.277344-.261719.746094-.199219 1.40625l.246094 2.667968 3.851562-.359374zm-5.789063-1.96875-.273437-2.945313c-.0625-.640625-.207031-1.101562-.445313-1.382812-.238281-.28125-.582031-.402344-1.035156-.359375-.441406.042969-.753906.214843-.933594.527343-.195312.308594-.265624.757813-.210937 1.335938l.289063 3.066406zm0 0" fill="#c8a400" fill-rule="evenodd"/><path d="m419.894531 298.808594-9.894531-.707032.632812-8.851562 1.710938.125-.457031 6.371094 2.113281.148437.414062-5.828125 1.695313.121094-.417969 5.828125 2.546875.183594.476563-6.667969 1.832031.132812zm0 0" fill="#c8a400" fill-rule="evenodd"/><path d="m418.238281 282.847656 3.441407.804688-.578126 2.453125-9.65625-2.261719 1.242188-5.300781c.292969-1.257813.777344-2.144531 1.449219-2.660157.683593-.523437 1.53125-.664062 2.542969-.429687 1 .234375 1.699218.734375 2.09375 1.496094.382812.761719.441406 1.722656.167968 2.878906zm-1.75-.429687.554688-2.367188c.148437-.648437.152343-1.140625 0-1.472656-.15625-.347656-.480469-.582031-.96875-.695313-.441407-.105468-.820313-.042968-1.136719.183594-.308594.238282-.527344.636719-.65625 1.191406l-.589844 2.507813zm0 0" fill="#c8a400" fill-rule="evenodd"/><path d="m414.59375 262.480469 1.335938 3.347656-.445313 1.085937-1.699219-2.457031zm.289062 8.0625.964844-2.347657 5.761719 2.363282c.710937.292968 1.300781.324218 1.773437.101562.460938-.203125.847657-.6875 1.160157-1.453125.316406-.765625.382812-1.394531.207031-1.882812-.183594-.476563-.632812-.863281-1.34375-1.152344l-5.761719-2.363281.953125-2.332032 5.976563 2.449219c1.132812.464844 1.835937 1.207031 2.113281 2.226563.28125 1.035156.125 2.277344-.46875 3.722656-.597656 1.457031-1.363281 2.460938-2.292969 3.011719-.910156.535156-1.933593.570312-3.066406.105469zm0 0" fill="#c8a400" fill-rule="evenodd"/><path d="m429.371094 262.183594-8.4375-5.214844 3.035156-4.914062c.65625-1.058594 1.339844-1.757813 2.046875-2.085938.703125-.332031 1.40625-.285156 2.109375.152344.425781.261718.714844.585937.863281.964844.167969.394531.203125.839843.101563 1.335937.507812-.425781 1.007812-.667969 1.503906-.734375.496094-.050781.988281.074219 1.472656.375.824219.507812 1.257813 1.230469 1.296875 2.160156.042969.929688-.3125 2.003906-1.058593 3.210938zm-3.910156-5.253906 1.507812-2.441407c.320312-.515625.484375-.949219.496094-1.300781.015625-.316406-.136719-.578125-.464844-.78125-.308594-.1875-.601562-.214844-.878906-.070312-.296875.144531-.617188.496093-.960938 1.050781l-1.5 2.425781zm3.644531 2.25 1.566406-2.527344c.378906-.617188.566406-1.105469.554687-1.46875-.011718-.375-.207031-.683594-.585937-.914063-.394531-.246093-.761719-.289062-1.09375-.125-.34375.160157-.707031.546875-1.085937 1.160157l-1.554688 2.515624zm0 0" fill="#c8a400" fill-rule="evenodd"/><path d="m436.765625 250.902344-7.527344-6.460938 1.636719-1.910156 6.136719 5.261719 3.882812-4.527344 1.394531 1.195313zm0 0" fill="#c8a400" fill-rule="evenodd"/><path d="m444.488281 242.425781-6.773437-7.246093 1.839844-1.722657 6.773437 7.246094zm0 0" fill="#c8a400" fill-rule="evenodd"/><path d="m455.886719 229.007812c.578125.960938.671875 2 .28125 3.117188-.40625 1.113281-1.25 2.128906-2.527344 3.046875-1.457031 1.050781-2.867187 1.496094-4.230469 1.339844-1.335937-.140625-2.492187-.890625-3.46875-2.246094-.980468-1.363281-1.320312-2.714844-1.019531-4.050781.308594-1.328125 1.242187-2.550782 2.792969-3.667969 1.269531-.914063 2.449218-1.382813 3.539062-1.40625 1.105469-.019531 2.019532.402344 2.738282 1.265625l-2 1.4375c-.414063-.390625-.898438-.574219-1.453126-.550781-.558593.042969-1.144531.285156-1.761718.730469-.890625.640624-1.398438 1.367187-1.53125 2.179687-.136719.816406.121094 1.671875.769531 2.574219.621094.859375 1.339844 1.367187 2.15625 1.527344.8125.132812 1.648437-.105469 2.5-.71875.625-.449219 1.039063-.945313 1.242187-1.480469.207032-.53125.199219-1.089844-.015624-1.667969zm0 0" fill="#c8a400" fill-rule="evenodd"/><path d="m460.140625 219.402344 2.625-1.242188 8.230469 7.078125-2.390625 1.132813-1.617188-1.5-4.285156 2.03125.148437 2.195312-2.402343 1.136719zm2.171875 1.160156.28125 4.550781 3.066406-1.453125zm0 0" fill="#c8a400" fill-rule="evenodd"/><path d="m484.621094 221.367188-1.285156-9.835938 4.753906-.621094c1.863281-.242187 3.304687-.019531 4.320312.667969 1.023438.703125 1.640625 1.882813 1.859375 3.535156.113281.890625.042969 1.707031-.210937 2.445313-.246094.726562-.660156 1.339844-1.242188 1.839844-.445312.375-.964844.671874-1.558594.890624-.609374.21875-1.460937.402344-2.558593.546876zm2.214844-2.105469 1.992187-.261719c1.160156-.152344 1.964844-.503906 2.421875-1.054688.457031-.554687.613281-1.386718.46875-2.5-.144531-1.097656-.492188-1.875-1.046875-2.332031-.550781-.445312-1.335937-.601562-2.355469-.46875l-2.304687.300781zm0 0" fill="#c8a400" fill-rule="evenodd"/><path d="m498.378906 219.914062.355469-9.914062 8.863281.316406-.058594 1.714844-6.382812-.230469-.074219 2.117188 5.839844.207031-.0625 1.699219-5.839844-.210938-.089843 2.554688 6.679687.238281-.066406 1.835938zm0 0" fill="#c8a400" fill-rule="evenodd"/><path d="m521.792969 222.882812 3.300781-9.355468 2.488281.878906 2.40625 8.066406 2.261719-6.421875 2.34375.828125-3.300781 9.355469-2.441407-.863281-2.449218-8.097656-2.265625 6.433593zm0 0" fill="#c8a400" fill-rule="evenodd"/><path d="m534.535156 227.863281 4.433594-8.875 2.253906 1.125-4.433594 8.875zm0 0" fill="#c8a400" fill-rule="evenodd"/><path d="m551.082031 233.875c-.699219.875-1.640625 1.328125-2.824219 1.347656-1.183593.007813-2.425781-.425781-3.734374-1.304687-1.492188-1-2.402344-2.164063-2.734376-3.496094-.332031-1.304687-.035156-2.648437.894532-4.035156.9375-1.394531 2.082031-2.183594 3.441406-2.371094 1.351562-.171875 2.824219.273437 4.414062 1.339844 1.296876.871093 2.144532 1.8125 2.546876 2.824219.40625 1.03125.332031 2.035156-.226563 3.011718l-2.046875-1.375c.222656-.523437.226562-1.042968.007812-1.554687-.234374-.507813-.667968-.972657-1.296874-1.394531-.910157-.613282-1.769532-.835938-2.578126-.675782-.808593.15625-1.523437.699219-2.140624 1.617188-.589844.882812-.816407 1.734375-.679688 2.558594.160156.808593.675781 1.503906 1.546875 2.089843.636719.425781 1.246094.644531 1.816406.648438.574219.007812 1.09375-.191407 1.558594-.597657zm0 0" fill="#c8a400" fill-rule="evenodd"/><path d="m561.558594 234.484375 2.082031 2.023437-3.738281 10.191407-1.894532-1.839844.832032-2.039063-3.402344-3.304687-2.003906.910156-1.90625-1.851562zm-.320313 2.445313-4.167969 1.855468 2.4375 2.363282zm0 0" fill="#c8a400" fill-rule="evenodd"/><path d="m561.972656 249.207031 8.042969-5.808593 3.460937 4.796874c.785157 1.085938 1.175782 2.027344 1.175782 2.820313-.003906.792969-.386719 1.464844-1.152344 2.019531-.492188.355469-.992188.519532-1.5.496094-.503906-.019531-.996094-.222656-1.46875-.597656.195312.507812.226562.949218.097656 1.332031-.140625.375-.464844.765625-.964844 1.171875l-.917968.726562-.027344.023438c-.476562.339844-.671875.675781-.589844 1.007812l-.257812.183594-1.617188-2.242187c.058594-.15625.160156-.316407.304688-.476563.0625-.074218.136718-.152344.230468-.230468.09375-.082032.191407-.167969.296876-.261719l.84375-.628907c.480468-.390624.730468-.75.75-1.082031.027343-.335937-.152344-.773437-.539063-1.3125l-1.566406-2.171875-3.136719 2.261719zm5.988282-1.238281 1.734374 2.398438c.375.519531.734376.839843 1.082032.960937.347656.125.707031.054687 1.074218-.214844.359376-.257812.539063-.566406.539063-.925781.011719-.367188-.15625-.785156-.496094-1.257812l-1.804687-2.496094zm0 0" fill="#c8a400" fill-rule="evenodd"/><path d="m580.351562 259.644531 1.257813 2.617188-7.023437 8.277343-1.144532-2.378906 1.488282-1.632812-2.058594-4.269532-2.191406.164063-1.15625-2.398437zm-1.144531 2.183594-4.550781.308594 1.472656 3.054687zm0 0" fill="#c8a400" fill-rule="evenodd"/><path d="m579.222656 282.105469c-.589844-.3125-1.082031-.714844-1.46875-1.214844-.382812-.511719-.671875-1.132813-.871094-1.863281-.449218-1.644532-.347656-3.113282.304688-4.402344.648438-1.261719 1.730469-2.101562 3.25-2.515625s2.871094-.238281 4.058594.523437c1.203125.773438 2.035156 2.011719 2.496094 3.710938.402343 1.472656.445312 2.757812.125 3.847656-.3125 1.074219-.953126 1.847656-1.925782 2.320313l-.675781-2.484375c.457031-.28125.753906-.6875.898437-1.222656.132813-.53125.101563-1.171876-.101562-1.910157-.265625-.96875-.769531-1.667969-1.511719-2.09375-.75-.398437-1.636719-.460937-2.660156-.179687-1.046875.285156-1.785156.796875-2.210937 1.542968-.425782.746094-.496094 1.632813-.214844 2.671876.210937.773437.566406 1.367187 1.066406 1.777343.511719.414063 1.105469.597657 1.777344.546875l-.730469-2.683594 1.640625-.445312 1.332031 4.894531-5.183593 1.410157-.445313-1.636719zm0 0" fill="#c8a400" fill-rule="evenodd"/><path d="m589.089844 286.839844.234375 2.527344-6.203125.578124c-.765625.074219-1.304688.316407-1.617188.730469-.3125.394531-.433594 1.003907-.355468 1.828125.078124.824219.308593 1.410156.691406 1.761719.382812.339844.957031.472656 1.722656.402344l6.203125-.582031.234375 2.511718-6.429688.597656c-1.21875.117188-2.183593-.214843-2.902343-.992187-.730469-.785156-1.167969-1.957031-1.3125-3.515625-.144531-1.566406.066406-2.8125.632812-3.730469.5625-.898437 1.453125-1.402343 2.671875-1.515625zm0 0" fill="#c8a400" fill-rule="evenodd"/><path d="m589.730469 305.859375-.234375 2.894531-10.242188 3.59375.214844-2.632812 2.105469-.65625.382812-4.726563-1.976562-.964843.214843-2.652344zm-2.089844 1.304687-4.082031-2.03125-.273438 3.382813zm0 0" fill="#c8a400" fill-rule="evenodd"/><path d="m418.144531 326.480469 1.710938-.597657 1.503906 4.328126-1.710937.597656zm0 0" fill="#c8a400" fill-rule="evenodd"/><path d="m581.855469 326.480469-1.710938-.597657-1.503906 4.328126 1.710937.597656zm0 0" fill="#c8a400" fill-rule="evenodd"/><path d="m499.964844 226.40625-31.476563 54.535156-15.421875 26.703125h93.796875l-14.714843-25.484375zm0 0" fill="#fff" fill-rule="evenodd"/><path d="m499.960938 283.28125-4.761719-48.585938-3.214844 5.570313zm0 0-9.714844-40.003906-2.347656 4.0625zm0 0-13.386719-33.644531-1.851563 3.210937zm0 0-16.320313-28.5625-1.554687 2.691406zm0 0-18.804688-24.257812-1.375 2.375zm0 0-21.019532-20.425781-1.265625 2.195312zm0 0-23.078126-16.855469-1.21875 2.109375zm0 0-25.074219-13.398438-1.21875 2.109376zm0 0-27.089844-9.914062-1.269532 2.203124zm0 0-29.203126-6.25-1.375 2.382812zm0 0-31.511719-2.246094-1.5625 2.707032zm0 0-34.167969 2.347656-1.859375 3.222656zm0 0-37.363282 7.886719-2.363281 4.09375zm0 0-41.480469 15.019531-3.242188 5.609375zm0 0-47.238282 24.996094-1.5625 2.699218 1.550782 2.691407zm0 0-45.539063 32.917969 2.929687 3.75zm0 0-40.566407 38.9375 3.425781 3.300781zm0 0-34.804688 44.207031 3.855469 2.800781zm0 0-28.363282 48.625 4.210938 2.234375zm0 0-21.363282 52.101562 3.515625 1.285157h1.0625zm0 0-13.652344 53.382812h4.722656zm0 0-5.980469 53.382812h4.535156zm0 0 1.445312 53.382812h4.539062zm0 0 8.941406 53.382812h4.714844zm0 0 16.789062 53.386719h1.0625l3.515625-1.285157zm0 0 24.164062 50.859375 4.203125-2.234375zm0 0 30.953124 47.003906 3.851563-2.796875zm0 0 37.148437 42.238281 3.421875-3.300781zm0 0 42.617187 36.667969 2.925781-3.75zm0 0 47.25 30.386719 1.554687-2.695313-1.554687-2.691406zm0 0 44.730468 20.632812-3.238281-5.605468zm0 0 39.738281 11.980469-2.367188-4.09375zm0 0 36.035156 5.574219-1.859375-3.226563zm0 0 33.085937.460938-1.5625-2.707032zm0 0 30.585937-3.867188-1.375-2.382812zm0 0 28.363281-7.714844-1.265625-2.199218zm0 0 26.300781-11.289062-1.21875-2.113282zm0 0 24.304687-14.75-1.21875-2.109375zm0 0 22.292968-18.234375-1.265625-2.191406zm0 0 20.183593-21.886719-1.371093-2.375zm0 0 17.878906-25.878906-1.550782-2.6875zm0 0 15.246093-30.441406-1.851562-3.207032zm0 0 12.066406-35.945312-2.347656-4.070313zm0 0 7.976562-43.027344-3.210938-5.5625zm-.722657-55.578125-1.542969 2.664063 2.265626 52.914062 2.265624-52.921875-1.535156-2.65625zm0 0" fill="#6dd9f4" fill-rule="evenodd"/><g fill="none" stroke="#6dd9f4" stroke-linecap="square" stroke-width="1.04"><path d="m499.960938 283.28125-4.761719-48.585938-3.214844 5.570313zm0 0"/><path d="m499.960938 283.28125-9.714844-40.003906-2.347656 4.0625zm0 0"/><path d="m499.960938 283.28125-13.386719-33.644531-1.851563 3.210937zm0 0"/><path d="m499.960938 283.28125-16.320313-28.5625-1.554687 2.691406zm0 0"/><path d="m499.960938 283.28125-18.804688-24.257812-1.375 2.375zm0 0"/><path d="m499.960938 283.28125-21.019532-20.425781-1.265625 2.195312zm0 0"/><path d="m499.960938 283.28125-23.078126-16.855469-1.21875 2.109375zm0 0"/><path d="m499.960938 283.28125-25.074219-13.398438-1.21875 2.109376zm0 0"/><path d="m499.960938 283.28125-27.089844-9.914062-1.269532 2.203124zm0 0"/><path d="m499.960938 283.28125-29.203126-6.25-1.375 2.382812zm0 0"/><path d="m499.960938 283.28125-31.511719-2.246094-1.5625 2.707032zm0 0"/><path d="m499.960938 283.28125-34.167969 2.347656-1.859375 3.222656zm0 0"/><path d="m499.960938 283.28125-37.363282 7.886719-2.363281 4.09375zm0 0"/><path d="m499.960938 283.28125-41.480469 15.019531-3.242188 5.609375zm0 0"/><path d="m499.960938 283.28125-47.238282 24.996094-1.5625 2.699218 1.550782 2.691407zm0 0"/><path d="m499.960938 283.28125-45.539063 32.917969 2.929687 3.75zm0 0"/><path d="m499.960938 283.28125-40.566407 38.9375 3.425781 3.300781zm0 0"/><path d="m499.960938 283.28125-34.804688 44.207031 3.855469 2.800781zm0 0"/><path d="m499.960938 283.28125-28.363282 48.625 4.210938 2.234375zm0 0"/><path d="m499.960938 283.28125-21.363282 52.101562 3.515625 1.285157h1.0625zm0 0"/><path d="m499.960938 283.28125-13.652344 53.382812h4.722656zm0 0"/><path d="m499.960938 283.28125-5.980469 53.382812h4.535156zm0 0"/><path d="m499.960938 283.28125 1.445312 53.382812h4.539062zm0 0"/><path d="m499.960938 283.28125 8.941406 53.382812h4.714844zm0 0"/><path d="m499.960938 283.28125 16.789062 53.386719h1.0625l3.515625-1.285157zm0 0"/><path d="m499.960938 283.28125 24.164062 50.859375 4.203125-2.234375zm0 0"/><path d="m499.960938 283.28125 30.953124 47.003906 3.851563-2.796875zm0 0"/><path d="m499.960938 283.28125 37.148437 42.238281 3.421875-3.300781zm0 0"/><path d="m499.960938 283.28125 42.617187 36.667969 2.925781-3.75zm0 0"/><path d="m499.960938 283.28125 47.25 30.386719 1.554687-2.695313-1.554687-2.691406zm0 0"/><path d="m499.960938 283.28125 44.730468 20.632812-3.238281-5.605468zm0 0"/><path d="m499.960938 283.28125 39.738281 11.980469-2.367188-4.09375zm0 0"/><path d="m499.960938 283.28125 36.035156 5.574219-1.859375-3.226563zm0 0"/><path d="m499.960938 283.28125 33.085937.460938-1.5625-2.707032zm0 0"/><path d="m499.960938 283.28125 30.585937-3.867188-1.375-2.382812zm0 0"/><path d="m499.960938 283.28125 28.363281-7.714844-1.265625-2.199218zm0 0"/><path d="m499.960938 283.28125 26.300781-11.289062-1.21875-2.113282zm0 0"/><path d="m499.960938 283.28125 24.304687-14.75-1.21875-2.109375zm0 0"/><path d="m499.960938 283.28125 22.292968-18.234375-1.265625-2.191406zm0 0"/><path d="m499.960938 283.28125 20.183593-21.886719-1.371093-2.375zm0 0"/><path d="m499.960938 283.28125 17.878906-25.878906-1.550782-2.6875zm0 0"/><path d="m499.960938 283.28125 15.246093-30.441406-1.851562-3.207032zm0 0"/><path d="m499.960938 283.28125 12.066406-35.945312-2.347656-4.070313zm0 0"/><path d="m499.960938 283.28125 7.976562-43.027344-3.210938-5.5625zm0 0"/><path d="m499.238281 227.703125-1.542969 2.664063 2.265626 52.914062 2.265624-52.921875-1.535156-2.65625zm0 0"/></g><path d="m501.335938 289.796875.625 3.742187c.105468-.023437.210937-.039062.316406-.066406zm-2.738282 0-.941406 3.675781c.105469.027344.210938.042969.316406.066406zm1.816406-.035156.105469 3.964843c.109375-.003906.226563-.019531.335938-.027343zm-.894531 0-.441406 3.933593c.109375.011719.226563.027344.335937.03125zm2.664063-.347657 1.175781 3.742188c.105469-.035156.214844-.066406.316406-.105469zm-4.433594 0-1.492188 3.636719c.101563.039063.210938.070313.316407.105469zm5.324219-.242187 1.609375 3.390625c.09375-.046875.1875-.097656.277344-.148438zm-6.203125-.035156-1.910156 3.277343c.09375.050782.183593.109376.277343.160157zm7.019531-.414063 2.023437 3.078125c.085938-.0625.164063-.121093.246094-.179687zm-7.792969-.070312-2.332031 2.957031c.085937.066406.167969.136719.253906.199219zm8.375-.660156 2.535156 2.882812c.078126-.074219.15625-.152344.230469-.230469zm-9.023437 0-2.757813 2.652343c.074219.078125.148438.15625.226563.230469zm-.582031-.6875-3.097657 2.238281c.066407.085937.125.175781.191407.261719zm10.15625-.023438 2.9375 2.523438c.070312-.085938.136718-.175782.203124-.261719zm.582031-.699219 3.148437 2.015625c.050782-.089844.101563-.183594.152344-.277344zm-11.195313-.050781-3.390625 1.789062c.050781.097657.105469.191407.15625.289063zm11.683594-.734375 3.277344 1.515625c.035156-.09375.070312-.1875.105468-.285156zm-12.253906 0-3.382813 1.230469c.035157.097656.070313.191406.105469.285156zm12.5-.878906 3.445312 1.039062c.023438-.101562.042969-.203125.0625-.304687zm-12.671875-.019531-3.59375.753906c.023437.105468.039062.210937.0625.316406zm12.820312-.890626 3.527344.550782c.011719-.101563.019531-.207032.023437-.308594zm-13.042969 0-3.550781.242188c.003907.101562.011719.207031.023438.308594zm16.59375-1.167968-3.65625.265625 3.667969.054687c-.007812-.109375-.003906-.214844-.011719-.320312zm-20.144531 0c-.007812.105468-.003906.210937-.011719.320312l3.667969-.054687zm19.933594-1.367188-3.363281.710938 3.414062-.425782c-.019531-.09375-.03125-.191406-.050781-.285156zm-19.722656 0c-.019531.09375-.046875.191406-.0625.285156l3.402343.425782zm19.316406-1.347656-3.0625 1.125 3.160156-.859375c-.03125-.085937-.0625-.175781-.097656-.265625zm-18.914063 0c-.03125.089844-.0625.179688-.09375.265625l3.160157.859375zm18.332032-1.28125-3.0625 1.644531 3.199218-1.378906c-.042968-.089844-.089843-.179687-.136718-.265625zm-17.757813 0c-.046875.085938-.09375.175781-.136719.265625l3.199219 1.378906zm17.027344-1.15625-2.628906 1.917969 2.789062-1.683594c-.054687-.078125-.105469-.15625-.160156-.234375zm-16.285156-.011719c-.054688.078125-.105469.15625-.160157.234375l2.789063 1.6875zm15.394531-1.039062-2.375 2.300781 2.566406-2.097656c-.0625-.066406-.125-.136719-.191406-.203125zm-14.503906-.019531c-.066406.070312-.136719.140624-.203125.210937l2.621093 2.144531zm13.476562-.910157-1.992187 2.574219 2.214843-2.394531c-.074218-.0625-.148437-.125-.222656-.179688zm-12.460937 0c-.074219.054688-.148438.121094-.21875.179688l2.257812 2.449219zm11.324219-.777343-1.589844 2.789062 1.824218-2.636719c-.078124-.050781-.15625-.101562-.234374-.152343zm-10.1875 0c-.078126.046874-.15625.09375-.234376.140624l1.84375 2.671876zm8.96875-.601563-1.132813 2.839844 1.367187-2.734375c-.078124-.035156-.15625-.074219-.234374-.105469zm-7.738282 0c-.082031.035156-.164062.070313-.246094.105469l1.402344 2.808594zm6.433594-.4375-.75 3.109375 1.015625-3.035156c-.085937-.023438-.175781-.046875-.265625-.074219zm-5.128906 0c-.089844.027344-.179688.050781-.265625.074219l1.015625 3.035156zm3.785156-.261719-.308594 3.191406.582032-3.160156c-.089844-.015625-.183594-.019531-.273438-.03125zm-2.441406 0c-.089844.011719-.183594.015625-.273438.03125l.582032 3.160156zm1.070312-.085937.148438 3.308593.140625-3.308593c-.046875 0-.09375 0-.140625 0s-.097656 0-.148438 0zm0 0" fill="#fff" fill-rule="evenodd"/><path d="m499.964844 265.410156c-10.808594 0-20.71875 3.851563-28.421875 10.261719l-15.398438 26.671875c-.414062 2.445312-.632812 4.957031-.632812 7.519531 0 3.027344.304687 5.984375.882812 8.839844h6.234375c-.667968-2.835937-1.023437-5.796875-1.023437-8.839844 0-21.023437 16.90625-38.113281 37.867187-38.378906.164063-.003906.328125 0 .492188 0 21.191406 0 38.359375 17.191406 38.359375 38.378906 0 3.042969-.359375 6.003907-1.027344 8.839844h6.242187c.574219-2.855469.878907-5.8125.878907-8.839844 0-2.558593-.214844-5.066406-.625-7.507812l-15.390625-26.65625c-7.707032-6.425781-17.617188-10.289063-28.4375-10.289063zm0 0" fill="#f00" fill-rule="evenodd"/><path d="m499.964844 266.269531c-11.53125 0-22.015625 4.492188-29.808594 11.808594l-12.644531 21.898437c-.734375 3.175782-1.121094 6.488282-1.121094 9.886719 0 3.03125.308594 5.984375.894531 8.839844h5.34375c-.667968-2.835937-1.023437-5.796875-1.023437-8.839844 0-21.023437 16.90625-38.113281 37.867187-38.378906.164063-.003906.328125 0 .492188 0 21.191406 0 38.359375 17.191406 38.359375 38.378906 0 3.042969-.359375 6.003907-1.027344 8.839844h5.339844c.589843-2.855469.902343-5.808594.902343-8.839844 0-3.402343-.390624-6.71875-1.128906-9.898437l-12.613281-21.851563c-7.792969-7.335937-18.285156-11.84375-29.832031-11.84375zm0 0" fill="#f60" fill-rule="evenodd"/><path d="m499.414062 267.148438c-12.253906.15625-23.269531 5.472656-30.964843 13.878906l-9.238281 16.003906c-1.273438 4.050781-1.960938 8.363281-1.960938 12.832031 0 3.03125.316406 5.988281.917969 8.839844h4.464843c-.671874-2.835937-1.027343-5.796875-1.027343-8.839844 0-21.023437 16.90625-38.113281 37.867187-38.378906h.492188c21.191406 0 38.359375 17.191406 38.359375 38.378906 0 3.042969-.359375 6.003907-1.027344 8.839844h4.460937c.601563-2.851563.921876-5.808594.921876-8.839844 0-4.46875-.6875-8.78125-1.960938-12.828125l-9.234375-15.996094c-7.808594-8.535156-19.039063-13.890624-31.519531-13.890624-.183594 0-.367188 0-.550782 0zm0 0" fill="#ff0" fill-rule="evenodd"/><path d="m499.414062 268.011719c-14.105468.175781-26.519531 7.339843-33.960937 18.183593-.003906.003907-.003906.007813-.007813.011719l-3.253906 5.640625c-2.605468 5.457032-4.0625 11.566406-4.0625 18.015625 0 3.035157.324219 5.992188.9375 8.839844h3.566406c-.671874-2.835937-1.027343-5.796875-1.027343-8.839844 0-21.023437 16.90625-38.113281 37.867187-38.378906.164063-.003906.328125 0 .492188 0 21.191406 0 38.359375 17.191406 38.359375 38.378906 0 3.042969-.359375 6.003907-1.027344 8.839844h3.566406c.613281-2.847656.9375-5.804687.9375-8.839844 0-6.472656-1.46875-12.601562-4.089843-18.070312l-3.191407-5.53125c-7.535156-11.019531-20.199219-18.25-34.554687-18.25-.179688 0-.371094-.003907-.550782 0zm0 0" fill="#0f0" fill-rule="evenodd"/><path d="m499.433594 268.890625c-22.386719.28125-40.445313 18.519531-40.445313 40.972656 0 3.035157.332031 5.992188.957031 8.839844h2.683594c-.667968-2.835937-1.023437-5.796875-1.023437-8.839844 0-21.023437 16.90625-38.113281 37.867187-38.378906h.492188c21.191406 0 38.359375 17.191406 38.359375 38.378906 0 3.042969-.359375 6.003907-1.027344 8.839844h2.6875c.628906-2.847656.957031-5.804687.957031-8.839844 0-22.628906-18.347656-40.972656-40.976562-40.972656-.175782 0-.355469-.003906-.53125 0zm0 0" fill="#0cf" fill-rule="evenodd"/><path d="m499.449219 269.746094c-21.910157.277344-39.582031 18.140625-39.582031 40.117187 0 3.039063.339843 5.996094.980468 8.839844h1.78125c-.667968-2.835937-1.023437-5.796875-1.023437-8.839844 0-21.023437 16.90625-38.113281 37.867187-38.378906h.492188c21.191406 0 38.359375 17.191406 38.359375 38.378906 0 3.042969-.359375 6.003907-1.027344 8.839844h1.785156c.640625-2.84375.980469-5.800781.980469-8.839844 0-22.148437-17.945312-40.117187-40.097656-40.117187-.171875 0-.339844-.003906-.515625 0zm0 0" fill="#00f" fill-rule="evenodd"/><path d="m499.449219 270.625c-21.433594.269531-38.722657 17.738281-38.722657 39.238281 0 3.042969.347657 6 1 8.839844h.902344c-.667968-2.835937-1.023437-5.796875-1.023437-8.839844 0-21.023437 16.90625-38.113281 37.867187-38.378906.164063-.003906.328125 0 .492188 0 21.191406 0 38.359375 17.191406 38.359375 38.378906 0 3.042969-.359375 6.003907-1.027344 8.839844h.90625c.652344-2.839844 1-5.796875 1-8.839844 0-21.667969-17.566406-39.238281-39.238281-39.238281-.167969 0-.34375-.003906-.515625 0zm0 0" fill="#800080" fill-rule="evenodd"/><path d="m453.066406 307.644531-9.953125 17.238281h113.707031l-9.957031-17.238281zm0 0" fill="#fff" fill-rule="evenodd"/><path d="m530.59375 297.464844c-.78125 0-1.257812.179687-1.535156.355468-.265625.164063-.316406.277344-.324219.289063 0 .003906-.011719.007813-.015625.015625-1.402344 5.320312-4.351562 10.667969-8.335938 14.707031-4.011718 4.066407-9.066406 6.828125-14.605468 6.828125h-7.671875v9.921875h60.855469l-5.679688-10.058593c-4.6875-.609376-8.972656-3.160157-12.460938-6.691407-3.984374-4.039062-6.929687-9.386719-8.332031-14.707031 0 0-.015625-.015625-.015625-.015625-.007812-.011719-.070312-.105469-.339844-.273437-.28125-.175782-.753906-.371094-1.539062-.371094zm0 0" fill="#97c924" fill-rule="evenodd"/><path d="m530.59375 297.464844c.148438 0 .28125.023437.40625.035156.023438 3.015625 0 8.109375 0 10.800781-.027344 2.339844-.832031 4.222657-2.011719 6.441407-.546875 1.554687-.984375.960937-2.347656 2.855468-1.832031.65625-3.1875.910156-5.140625 1.214844-2.515625.398438-8.121094.753906-10.886719.136719 3.640625-1.066407 6.960938-3.269531 9.769531-6.117188.75-.757812 1.460938-1.5625 2.132813-2.402343 1.117187-1.398438 2.125-2.914063 3.007813-4.476563.351562-.628906.6875-1.25.996093-1.894531.46875-.96875.882813-1.953125 1.253907-2.941406.121093-.332032.242187-.667969.355468-.996094.21875-.664063.414063-1.332032.589844-1.996094 0-.007812.015625-.011719.015625-.019531.007813-.011719.058594-.121094.320313-.285157.136718-.085937.332031-.171874.578124-.238281.003907 0 .011719.003907.015626 0 .25-.066406.554687-.117187.945312-.117187zm0 0" fill="#dddf37" fill-rule="evenodd"/><path d="m529.902344 298.902344c-.414063 6.035156-2.277344 13.191406-6.644532 17.8125-1.605468 1.335937-3.660156 2.546875-5.644531 2.253906 6.769531-5.511719 10.882813-13.949219 12.289063-20.066406zm0 0" fill="#c6cb24" fill-rule="evenodd"/><path d="m524.457031 309.28125c-1 2.722656-4.785156 6.746094-8.839843 10.042969-1.148438.035156-1.757813.101562-2.804688.039062 2.46875-.222656 8.222656-5.082031 11.644531-10.082031zm0 0" fill="#9ecb34" fill-rule="evenodd"/><path d="m515.269531 297.464844c.785157 0 1.257813.195312 1.539063.371094.269531.167968.332031.261718.339844.273437 0 0 .015624.015625.015624.015625 1.402344 5.320312 4.347657 10.667969 8.335938 14.707031 4.015625 4.066407 9.085938 6.828125 14.621094 6.828125h7.640625v9.921875h-64.980469v-9.921875h7.675781c5.535157 0 10.589844-2.761718 14.605469-6.828125 3.980469-4.039062 6.933594-9.386719 8.332031-14.707031.003907-.007812.015625-.011719.015625-.015625.007813-.011719.058594-.125.324219-.289063.277344-.175781.753906-.355468 1.539063-.355468zm0 0" fill="#97c924" fill-rule="evenodd"/><path d="m515.261719 297.464844c.148437 0 .28125.023437.40625.035156.023437 3.015625 0 8.109375 0 10.800781-.027344 2.339844-.828125 4.222657-2.011719 6.441407-.546875 1.554687-.984375.960937-2.347656 2.855468-1.832032.65625-3.1875.910156-5.140625 1.214844-2.515625.398438-8.121094.753906-10.886719.136719 3.640625-1.066407 6.960938-3.269531 9.773438-6.117188.746093-.757812 1.457031-1.5625 2.128906-2.402343 1.117187-1.398438 2.125-2.914063 3.007812-4.476563.351563-.628906.6875-1.25 1-1.894531.464844-.96875.882813-1.953125 1.25-2.941406.121094-.332032.242188-.667969.351563-.996094.226562-.664063.417969-1.332032.59375-1.996094.003906-.007812.015625-.011719.015625-.019531.007812-.011719.058594-.121094.324218-.285157.132813-.085937.328126-.171874.574219-.238281.003907 0 .011719.003907.015625 0 .25-.066406.554688-.117187.945313-.117187zm0 0" fill="#e4e630" fill-rule="evenodd"/><path d="m514.570312 298.902344c-.414062 6.035156-2.277343 13.191406-6.644531 17.8125-1.605469 1.335937-3.660156 2.546875-5.644531 2.253906 6.769531-5.511719 10.882812-13.949219 12.289062-20.066406zm0 0" fill="#c6cb24" fill-rule="evenodd"/><path d="m509.128906 309.28125c-1.003906 2.722656-4.789062 6.746094-8.84375 10.042969-1.148437.035156-1.757812.101562-2.800781.039062 2.464844-.222656 8.21875-5.082031 11.644531-10.082031zm0 0" fill="#9ecb34" fill-rule="evenodd"/><path d="m499.9375 297.464844c.785156 0 1.257812.195312 1.539062.371094.269532.167968.332032.261718.339844.273437 0 0 .015625.015625.015625.015625 1.402344 5.320312 4.347657 10.667969 8.335938 14.707031 4.015625 4.066407 9.085937 6.828125 14.621093 6.828125h7.640626v9.921875h-64.980469v-9.921875h7.675781c5.535156 0 10.59375-2.761718 14.605469-6.828125 3.980469-4.039062 6.933593-9.386719 8.332031-14.707031.003906-.007812.015625-.011719.019531-.015625.003907-.011719.054688-.125.320313-.289063.277344-.175781.753906-.355468 1.535156-.355468zm0 0" fill="#97c924" fill-rule="evenodd"/><path d="m499.933594 297.464844c.144531 0 .277344.023437.40625.035156.019531 3.015625 0 8.109375 0 10.800781-.03125 2.339844-.832032 4.222657-2.015625 6.441407-.546875 1.554687-.984375.960937-2.347657 2.855468-1.832031.65625-3.1875.910156-5.140624 1.214844-2.515626.398438-8.121094.753906-10.886719.136719 3.640625-1.066407 6.960937-3.269531 9.773437-6.117188.746094-.757812 1.457032-1.5625 2.128906-2.402343 1.117188-1.398438 2.128907-2.914063 3.007813-4.476563.355469-.628906.6875-1.25 1-1.894531.464844-.96875.882813-1.953125 1.25-2.941406.121094-.332032.242187-.667969.355469-.996094.222656-.664063.417968-1.332032.589844-1.996094.003906-.007812.015624-.011719.019531-.019531.003906-.011719.054687-.121094.320312-.285157.136719-.085937.332031-.171874.574219-.238281.003906 0 .011719.003907.015625 0 .253906-.066406.554687-.117187.949219-.117187zm0 0" fill="#eaed29" fill-rule="evenodd"/><path d="m499.238281 298.902344c-.410156 6.035156-2.277343 13.191406-6.644531 17.8125-1.605469 1.335937-3.660156 2.546875-5.644531 2.253906 6.769531-5.511719 10.882812-13.949219 12.289062-20.066406zm0 0" fill="#c6cb24" fill-rule="evenodd"/><path d="m493.796875 309.28125c-1.003906 2.722656-4.789063 6.746094-8.839844 10.046875-1.152343.03125-1.761719.097656-2.804687.035156 2.464844-.222656 8.222656-5.082031 11.644531-10.082031zm0 0" fill="#9ecb34" fill-rule="evenodd"/><path d="m484.609375 297.464844c-.785156 0-1.257813.195312-1.539063.371094-.269531.167968-.332031.261718-.339843.273437 0 0-.015625.015625-.015625.015625-1.402344 5.320312-4.347656 10.667969-8.335938 14.707031-4.015625 4.066407-9.085937 6.828125-14.621094 6.828125h-7.640624v9.921875h64.980468l.203125-9.921875s-4.988281 0-7.675781 0c-5.535156 0-10.796875-2.761718-14.808594-6.828125-3.980468-4.039062-6.933594-9.386719-8.332031-14.707031-.003906-.007812-.015625-.011719-.015625-.015625-.007812-.011719-.058594-.125-.324219-.289063-.277343-.175781-.753906-.355468-1.535156-.355468zm0 0" fill="#97c924" fill-rule="evenodd"/><path d="m483.410156 298.902344c-.617187 9.042968-5.652344 20.453125-11.339844 22.417968-1.855468.644532-5.101562.867188-6.226562 1.011719 9.945312-4.734375 15.828125-15.855469 17.566406-23.429687zm0 0" fill="#93bc30" fill-rule="evenodd"/><path d="m469.285156 297.464844c-.785156 0-1.257812.195312-1.539062.371094-.269532.167968-.332032.261718-.339844.273437 0 0-.015625.015625-.015625.015625-1.402344 5.320312-4.347656 10.667969-8.335937 14.707031-3.464844 3.511719-7.726563 6.050781-12.390626 6.675781l-5.679687 10.074219h60.789063v-9.921875h-7.675782c-5.535156 0-10.589844-2.761718-14.601562-6.828125-3.984375-4.039062-6.9375-9.386719-8.335938-14.707031 0-.007812-.015625-.011719-.015625-.015625-.007812-.011719-.058593-.125-.320312-.289063-.28125-.175781-.757813-.355468-1.539063-.355468zm0 0" fill="#97c924" fill-rule="evenodd"/><path d="m468.085938 298.902344c-.617188 9.042968-5.65625 20.453125-11.339844 22.421875-1.855469.640625-5.101563.863281-6.230469 1.007812 9.949219-4.734375 15.828125-15.855469 17.570313-23.429687zm0 0" fill="#93bc30" fill-rule="evenodd"/><path d="m469.28125 297.464844c-.144531 0-.277344.023437-.40625.035156-.019531 3.015625 0 8.109375 0 10.800781.03125 2.339844.832031 4.222657 2.015625 6.441407.066406.191406.132813.351562.203125.488281.40625 1.085937.710938 1.464843 2.28125 2.65625 4.984375 3.785156 11.167969 4.351562 14.808594 4.039062-1.140625-.898437-2.359375-1.714843-3.433594-2.46875 1.710938-.054687 3.351562-.246093 4.515625-.507812-3.640625-1.066407-6.960937-3.269531-9.773437-6.117188-.488282-.496093-.941407-1.023437-1.402344-1.554687-.207032-.292969-.5-.699219-.589844-.8125-1.117188-1.402344-2.261719-2.949219-3.144531-4.511719-.355469-.628906-.6875-1.25-1-1.894531-.464844-.96875-.882813-1.953125-1.25-2.941406-.121094-.332032-.242188-.667969-.355469-.996094-.222656-.664063-.414062-1.332032-.589844-1.996094-.003906-.007812-.015625-.011719-.015625-.019531-.007812-.011719-.058593-.121094-.324219-.285157-.132812-.085937-.332031-.171874-.574218-.238281-.003906 0-.011719.003907-.015625 0-.253907-.066406-.554688-.117187-.949219-.117187zm0 0" fill="#dddf37" fill-rule="evenodd"/><path d="m469.984375 298.902344c.410156 6.035156 2.277344 13.191406 6.644531 17.808594 1.605469 1.339843 3.660156 2.550781 5.644532 2.257812-6.769532-5.511719-10.886719-13.949219-12.289063-20.066406zm0 0" fill="#c6cb24" fill-rule="evenodd"/><path d="m474.152344 307.246094c2.367187 5.835937 8.367187 11.289062 14.542968 14.953125 1.148438.035156 1.492188.003906 2.535157-.058594-4.417969-2.371094-11.539063-5.753906-17.078125-14.894531zm0 0" fill="#9ecb34" fill-rule="evenodd"/><path d="m501.136719 298.902344c.617187 9.042968 6.519531 20.453125 12.207031 22.421875 1.855469.640625 6.003906.863281 7.132812 1.007812-9.949218-4.734375-17.597656-15.855469-19.339843-23.429687zm0 0" fill="#93bc30" fill-rule="evenodd"/><path d="m516.46875 298.902344c.617188 9.042968 6.519531 20.453125 12.207031 22.417968 1.855469.644532 6.003907.867188 7.132813 1.011719-9.949219-4.734375-17.601563-15.855469-19.339844-23.429687zm0 0" fill="#93bc30" fill-rule="evenodd"/><path d="m531.800781 298.902344c.617188 9.042968 6.519531 20.453125 12.207031 22.417968 1.851563.644532 6.003907.867188 7.132813 1.011719-9.949219-4.734375-17.601563-15.855469-19.339844-23.429687zm0 0" fill="#93bc30" fill-rule="evenodd"/><path d="m451.5 324.984375c-2.878906 0-6.21875.605469-8.9375.847656l-6.269531 10.859375 62.96875-.007812 64.375.007812-6.292969-10.898437c-2.597656-.261719-5.835938-.808594-8.59375-.808594-.265625 0-.519531.007813-.777344.015625-.179687-.003906-.378906-.015625-.558594-.015625-.121093 0-.222656-.003906-.339843 0-.117188-.003906-.230469 0-.351563 0-.179687 0-.347656.011719-.523437.015625-.261719-.007812-.511719-.015625-.777344-.015625-3.601563 0-6.652344.945313-10.078125.949219-3.429688 0-6.46875-.949219-10.074219-.949219-.265625 0-.519531.007813-.777343.015625-.179688-.003906-.34375-.015625-.523438-.015625-.121094 0-.238281-.003906-.355469 0-.117187-.003906-.234375 0-.355469 0-.179687 0-.363281.011719-.542968.015625-.257813-.007812-.507813-.015625-.773438-.015625-3.601562 0-6.648437.949219-10.078125.949219-3.429687 0-6.472656-.949219-10.074219-.949219-.269531 0-.535156.007813-.792968.015625-.179688-.003906-.34375-.015625-.527344-.015625-.117188 0-.234375-.003906-.351562 0-.117188-.003906-.238282 0-.355469 0-.179688 0-.347657.011719-.527344.015625-.257813-.007812-.527344-.015625-.792969-.015625-3.601562 0-6.632812.949219-10.058594.949219-3.429687 0-6.457031-.949219-10.058593-.949219-.265625 0-.515625.007813-.773438.015625-.179687-.003906-.378906-.015625-.558593-.015625-.121094 0-.222657-.003906-.339844 0-.117188-.003906-.234375 0-.355469 0-.179687 0-.34375.011719-.519531.015625-.261719-.007812-.515625-.015625-.78125-.015625-3.605469 0-6.644532.949219-10.074219.949219-3.429687-.003906-6.476563-.949219-10.078125-.949219-.261719 0-.519531.007813-.773438.015625-.183593-.003906-.339843-.015625-.523437-.015625-.125 0-.253906-.003906-.375 0-.117187-.003906-.234375 0-.355469 0-.179687 0-.363281.011719-.539062.015625-.261719-.007812-.507813-.015625-.777344-.015625zm0 0" fill="#fff" fill-rule="evenodd"/><path d="m484.710938 297.464844c-.148438 0-.28125.023437-.40625.035156-.023438 3.015625 0 8.109375 0 10.800781.027343 2.339844.828124 4.222657 2.011718 6.441407.066406.191406.136719.351562.203125.488281.410157 1.085937.710938 1.464843 2.28125 2.65625 4.988281 3.785156 11.167969 4.351562 14.808594 4.039062-1.140625-.898437-2.359375-1.714843-3.433594-2.46875 1.710938-.054687 3.351563-.246093 4.515625-.507812-3.640625-1.066407-6.960937-3.269531-9.769531-6.117188-.492187-.496093-.945313-1.023437-1.402344-1.554687-.210937-.292969-.503906-.699219-.59375-.8125-1.117187-1.402344-2.261719-2.949219-3.144531-4.511719-.351562-.628906-.6875-1.25-.996094-1.894531-.46875-.96875-.882812-1.953125-1.253906-2.941406-.121094-.332032-.242188-.667969-.355469-.996094-.222656-.664063-.414062-1.332032-.589843-1.996094-.003907-.007812-.015626-.011719-.015626-.019531-.007812-.011719-.058593-.121094-.324218-.285157-.132813-.085937-.332032-.171874-.574219-.238281-.003906 0-.011719.003907-.015625 0-.25-.066406-.554688-.117187-.945312-.117187zm0 0" fill="#e4e630" fill-rule="evenodd"/><path d="m485.410156 298.902344c.410156 6.035156 2.277344 13.191406 6.644532 17.8125 1.605468 1.335937 3.660156 2.546875 5.644531 2.253906-6.769531-5.511719-10.886719-13.949219-12.289063-20.066406zm0 0" fill="#ccd11e" fill-rule="evenodd"/><path d="m489.578125 307.246094c2.367187 5.835937 8.367187 11.289062 14.542969 14.953125 1.148437.035156 1.492187.003906 2.535156-.058594-4.417969-2.371094-11.539062-5.753906-17.078125-14.894531zm0 0" fill="#9ecb34" fill-rule="evenodd"/><path d="m497.105469 281.679688c-.59375.015624-1.527344 1.011718-1.941407.472656-.242187-.304688-.28125-.898438-.039062-1.398438.558594-1.152344 1.125-1.714844 2.167969-2.328125 2.378906-1.402343 3.886719-.953125 5.074219 1.0625 1.097656 1.769531 2.152343 3.726563 2.246093 5.371094.027344.5.28125 1.40625-.15625 1.859375-1.347656 1.390625-4.597656-1.4375-6.496093-.988281-.640626.148437-1.378907.617187-1.984376.21875-.46875-.3125-.074218-1 .273438-1.296875.613281-.519532 1.503906-1.257813 1.382812-2.054688-.070312-.449218-.082031-.929687-.527343-.917968zm0 0" fill="#f00" fill-rule="evenodd"/><path d="m496.863281 280.703125c-1.082031.445313-.964843 1.074219-1.507812 1.589844.152343.058593.765625.3125 1.363281-.300781.257812-.214844.546875-.292969.675781-.363282-.304687.222656-.523437.554688-.683593.683594-.808594.660156-1.957032 3.859375-1.480469 5.632812.476562 1.773438 4.203125 1.667969 5.808593 1.605469 1.605469-.058593 4.832032-.996093 3.183594-1.957031-1.371094-.46875-3.992187-.238281-5.273437-.011719-.414063-4.082031-.054688-2.648437-.152344-4.40625-.097656-1.753906-.625-1.859375.070313-3.28125-.578126.875-1.273438.734375-2.003907.808594zm0 0" fill="#a00" fill-rule="evenodd"/><path d="m500.875 277.949219c-.039062.222656-.078125.515625-.054688.601562.085938.339844.175782.691407.277344.992188.113282.335937.160156.578125.238282.929687.082031.359375.402343.5.695312.722656.371094.277344.085938 1.035157.316406 1.066407.183594.023437.488282-1.070313.488282-1.246094 0-.238281 0-.425781-.035157-.648437-.136719-.292969-.273437-.585938-.425781-.871094-.003906-.003906-.007812-.003906-.011719-.007813-.058593-.113281-.121093-.222656-.191406-.328125-.21875-.320312-.488281-.613281-.789063-.863281-.015624-.015625-.035156-.03125-.054687-.046875-.082031-.066406-.167969-.128906-.257813-.1875-.0625-.039062-.128906-.074219-.195312-.113281zm0 0" fill="#ff2a2a" fill-rule="evenodd"/><path d="m498.335938 287.875c-.765626-.414062-1.964844.125-2.691407.53125-.460937.257812-.71875-.558594-.675781-1.09375.039062-.492188-.195312-1.101562.402344-1.296875 1.175781-.390625 2.527344-.816406 3.777344-.734375.816406.050781 1.628906-.117188 2.449218-.039062.730469.070312 1.46875.148437 2.152344.449218.441406.195313 1.132812.289063 1.1875.851563.042969.492187.015625 1.105469-.125 1.566406-.1875.609375-.921875.144531-1.289062.121094-.667969-.042969-1.007813.703125-1.097657 1.246093-.238281 1.4375-.558593 2.21875-.8125 3.378907-.199219.898437-.535156 1.792969-1.324219 1.574219-.632812-.167969-.96875-1.574219-.992187-2.140626-.027344-.617187.382813-2.117187.230469-2.707031-.445313-1.710937-.835938-1.511719-1.191406-1.707031zm0 0" fill="#ff2a2a" fill-rule="evenodd"/><path d="m498.335938 287.875c-.765626-.414062-1.964844.125-2.691407.53125-.460937.257812-.71875-.558594-.675781-1.09375.039062-.492188-.195312-1.101562.402344-1.296875 1.175781-.390625 2.527344-.816406 3.777344-.734375-1.457032-.222656-.792969 2.113281-.8125 2.59375zm0 0" fill="#e91515" fill-rule="evenodd"/><path d="m499.964844 227.875 31.546875 54.652344 30.851562 53.429687-63.101562-.003906-61.699219.003906 31.558594-54.644531zm0-3-32.144532 55.683594-32.855468 56.898437 64.296875-.003906 65.703125.003906-32.152344-55.679687zm0 0" fill="#c8a400" fill-rule="evenodd"/></svg>