<?xml version="1.0" encoding="UTF-8"?>
<svg xmlns="http://www.w3.org/2000/svg" xmlns:xlink="http://www.w3.org/1999/xlink" width="128pt" height="77pt" viewBox="0 0 128 77" version="1.1">
<defs>
<clipPath id="clip1">
  <path d="M 0 0 L 128 0 L 128 76.800781 L 0 76.800781 Z M 0 0 "/>
</clipPath>
</defs>
<g id="surface797">
<g clip-path="url(#clip1)" clip-rule="nonzero">
<path style=" stroke:none;fill-rule:evenodd;fill:rgb(0%,40.39917%,77.598572%);fill-opacity:1;" d="M 0 76.800781 L 128 76.800781 L 128 0 L 0 0 Z M 0 76.800781 "/>
</g>
<path style=" stroke:none;fill-rule:evenodd;fill:rgb(99.998474%,99.998474%,99.998474%);fill-opacity:1;" d="M 0 51.199219 L 128 51.199219 L 128 25.601562 L 0 25.601562 Z M 0 51.199219 "/>
<path style=" stroke:none;fill-rule:evenodd;fill:rgb(78.398132%,64.299011%,0%);fill-opacity:1;" d="M 55.269531 43.777344 L 55.46875 44.089844 L 54.699219 45.25 L 54.519531 44.964844 L 54.683594 44.734375 L 54.355469 44.222656 L 54.082031 44.277344 L 53.898438 43.988281 Z M 55.15625 44.070312 L 54.582031 44.179688 L 54.816406 44.546875 Z M 55.15625 44.070312 "/>
<path style=" stroke:none;fill-rule:evenodd;fill:rgb(78.398132%,64.299011%,0%);fill-opacity:1;" d="M 54.949219 45.582031 L 55.890625 44.726562 L 56.207031 45.082031 L 55.703125 45.960938 L 56.621094 45.539062 L 56.945312 45.894531 L 56.003906 46.746094 L 55.800781 46.523438 L 56.558594 45.835938 L 55.585938 46.285156 L 55.367188 46.042969 L 55.910156 45.117188 L 55.148438 45.804688 Z M 54.949219 45.582031 "/>
<path style=" stroke:none;fill-rule:evenodd;fill:rgb(78.398132%,64.299011%,0%);fill-opacity:1;" d="M 58.082031 46.257812 L 57.621094 46.300781 L 57.503906 46.207031 L 57.867188 46.085938 C 57.867188 46.085938 58.082031 46.257812 58.082031 46.257812 Z M 56.328125 47.03125 L 57.125 46.042969 L 58.007812 46.753906 L 57.871094 46.925781 L 57.234375 46.414062 L 57.066406 46.625 L 57.648438 47.09375 L 57.511719 47.261719 L 56.929688 46.792969 L 56.722656 47.046875 L 57.390625 47.582031 L 57.242188 47.765625 Z M 56.328125 47.03125 "/>
<path style=" stroke:none;fill-rule:evenodd;fill:rgb(78.398132%,64.299011%,0%);fill-opacity:1;" d="M 57.578125 48.003906 L 58.226562 46.910156 L 58.878906 47.296875 C 59.023438 47.382812 59.121094 47.476562 59.160156 47.566406 C 59.199219 47.660156 59.1875 47.761719 59.128906 47.863281 C 59.085938 47.929688 59.039062 47.976562 58.976562 48 C 58.917969 48.023438 58.847656 48.023438 58.773438 48.003906 C 58.824219 48.054688 58.847656 48.105469 58.855469 48.15625 C 58.855469 48.207031 58.839844 48.269531 58.800781 48.34375 L 58.730469 48.472656 L 58.726562 48.476562 C 58.6875 48.542969 58.683594 48.59375 58.710938 48.625 L 58.6875 48.660156 L 58.382812 48.480469 C 58.382812 48.460938 58.386719 48.433594 58.394531 48.410156 C 58.398438 48.398438 58.402344 48.382812 58.410156 48.371094 C 58.417969 48.355469 58.425781 48.339844 58.433594 48.324219 L 58.5 48.207031 C 58.535156 48.136719 58.546875 48.082031 58.53125 48.042969 C 58.519531 48 58.476562 47.960938 58.402344 47.914062 L 58.105469 47.742188 L 57.855469 48.167969 Z M 58.21875 47.550781 L 58.542969 47.746094 C 58.613281 47.785156 58.675781 47.804688 58.722656 47.804688 C 58.769531 47.800781 58.804688 47.773438 58.835938 47.722656 C 58.863281 47.675781 58.871094 47.628906 58.851562 47.585938 C 58.835938 47.542969 58.792969 47.503906 58.730469 47.464844 L 58.390625 47.261719 Z M 58.21875 47.550781 "/>
<path style=" stroke:none;fill-rule:evenodd;fill:rgb(78.398132%,64.299011%,0%);fill-opacity:1;" d="M 59.097656 48.84375 L 59.621094 47.6875 L 59.914062 47.820312 L 59.390625 48.976562 Z M 59.097656 48.84375 "/>
<path style=" stroke:none;fill-rule:evenodd;fill:rgb(78.398132%,64.299011%,0%);fill-opacity:1;" d="M 61.28125 49.1875 C 61.226562 49.320312 61.128906 49.410156 60.984375 49.453125 C 60.835938 49.496094 60.667969 49.484375 60.476562 49.421875 C 60.257812 49.351562 60.105469 49.242188 60.019531 49.089844 C 59.929688 48.941406 59.921875 48.765625 59.984375 48.5625 C 60.050781 48.355469 60.164062 48.21875 60.324219 48.148438 C 60.484375 48.078125 60.683594 48.082031 60.914062 48.15625 C 61.105469 48.21875 61.242188 48.304688 61.328125 48.414062 C 61.414062 48.527344 61.441406 48.65625 61.40625 48.792969 L 61.105469 48.695312 C 61.117188 48.625 61.097656 48.5625 61.054688 48.503906 C 61.007812 48.453125 60.9375 48.410156 60.84375 48.378906 C 60.710938 48.335938 60.597656 48.339844 60.503906 48.386719 C 60.410156 48.433594 60.339844 48.527344 60.296875 48.660156 C 60.253906 48.789062 60.257812 48.902344 60.304688 49 C 60.351562 49.09375 60.4375 49.160156 60.566406 49.203125 C 60.660156 49.234375 60.742188 49.238281 60.8125 49.21875 C 60.882812 49.199219 60.941406 49.15625 60.984375 49.089844 Z M 61.28125 49.1875 "/>
<path style=" stroke:none;fill-rule:evenodd;fill:rgb(78.398132%,64.299011%,0%);fill-opacity:1;" d="M 62.261719 48.523438 L 62.628906 48.578125 L 62.996094 49.921875 L 62.660156 49.867188 L 62.597656 49.59375 L 61.996094 49.5 L 61.855469 49.746094 L 61.519531 49.691406 Z M 62.410156 48.800781 L 62.113281 49.304688 L 62.542969 49.371094 Z M 62.410156 48.800781 "/>
<path style=" stroke:none;fill-rule:evenodd;fill:rgb(78.398132%,64.299011%,0%);fill-opacity:1;" d="M 66.136719 49.320312 C 66.144531 49.464844 66.089844 49.585938 65.980469 49.6875 C 65.867188 49.789062 65.707031 49.851562 65.507812 49.878906 C 65.28125 49.90625 65.09375 49.871094 64.949219 49.773438 C 64.808594 49.675781 64.722656 49.519531 64.695312 49.308594 C 64.667969 49.09375 64.714844 48.921875 64.828125 48.789062 C 64.945312 48.660156 65.121094 48.578125 65.367188 48.546875 C 65.5625 48.519531 65.726562 48.539062 65.851562 48.601562 C 65.976562 48.667969 66.054688 48.769531 66.082031 48.910156 L 65.769531 48.953125 C 65.746094 48.882812 65.703125 48.832031 65.636719 48.800781 C 65.574219 48.773438 65.492188 48.765625 65.394531 48.777344 C 65.257812 48.796875 65.15625 48.847656 65.089844 48.929688 C 65.027344 49.011719 65.003906 49.125 65.019531 49.265625 C 65.039062 49.402344 65.089844 49.503906 65.171875 49.570312 C 65.253906 49.632812 65.363281 49.65625 65.496094 49.640625 C 65.59375 49.628906 65.671875 49.597656 65.726562 49.550781 C 65.78125 49.503906 65.816406 49.4375 65.824219 49.359375 Z M 66.136719 49.320312 "/>
<path style=" stroke:none;fill-rule:evenodd;fill:rgb(78.398132%,64.299011%,0%);fill-opacity:1;" d="M 66.613281 49.65625 L 66.261719 48.4375 L 67.351562 48.121094 L 67.414062 48.332031 L 66.628906 48.558594 L 66.703125 48.820312 L 67.421875 48.613281 L 67.484375 48.820312 L 66.765625 49.027344 L 66.855469 49.34375 L 67.675781 49.105469 L 67.742188 49.332031 Z M 66.613281 49.65625 "/>
<path style=" stroke:none;fill-rule:evenodd;fill:rgb(78.398132%,64.299011%,0%);fill-opacity:1;" d="M 68.171875 49.175781 L 67.648438 48.019531 L 67.953125 47.878906 L 68.890625 48.410156 L 68.53125 47.617188 L 68.820312 47.484375 L 69.347656 48.640625 L 69.046875 48.777344 L 68.101562 48.25 L 68.460938 49.042969 Z M 68.171875 49.175781 "/>
<path style=" stroke:none;fill-rule:evenodd;fill:rgb(78.398132%,64.299011%,0%);fill-opacity:1;" d="M 70.097656 48.191406 L 69.53125 47.3125 L 69.144531 47.5625 L 69.019531 47.375 L 70.070312 46.699219 L 70.191406 46.890625 L 69.804688 47.140625 L 70.367188 48.015625 Z M 70.097656 48.191406 "/>
<path style=" stroke:none;fill-rule:evenodd;fill:rgb(78.398132%,64.299011%,0%);fill-opacity:1;" d="M 71.085938 47.519531 L 70.253906 46.5625 L 70.824219 46.066406 C 70.953125 45.953125 71.070312 45.890625 71.167969 45.882812 C 71.269531 45.875 71.359375 45.914062 71.441406 46.007812 C 71.492188 46.066406 71.519531 46.125 71.523438 46.191406 C 71.523438 46.257812 71.503906 46.320312 71.460938 46.386719 C 71.523438 46.355469 71.582031 46.347656 71.628906 46.359375 C 71.679688 46.371094 71.734375 46.410156 71.792969 46.46875 L 71.894531 46.574219 L 71.898438 46.578125 C 71.945312 46.636719 71.992188 46.65625 72.035156 46.644531 L 72.058594 46.671875 L 71.792969 46.90625 C 71.773438 46.898438 71.75 46.890625 71.730469 46.871094 C 71.71875 46.867188 71.707031 46.855469 71.695312 46.847656 C 71.683594 46.835938 71.671875 46.824219 71.660156 46.8125 L 71.570312 46.710938 C 71.515625 46.652344 71.464844 46.625 71.421875 46.628906 C 71.378906 46.628906 71.324219 46.65625 71.261719 46.710938 L 71.003906 46.9375 L 71.328125 47.308594 Z M 70.859375 46.773438 L 71.144531 46.523438 C 71.207031 46.46875 71.242188 46.417969 71.253906 46.375 C 71.265625 46.328125 71.253906 46.28125 71.214844 46.238281 C 71.179688 46.195312 71.136719 46.175781 71.089844 46.179688 C 71.042969 46.183594 70.992188 46.210938 70.9375 46.257812 L 70.640625 46.519531 Z M 70.859375 46.773438 "/>
<path style=" stroke:none;fill-rule:evenodd;fill:rgb(78.398132%,64.299011%,0%);fill-opacity:1;" d="M 71.726562 45.152344 L 71.964844 44.867188 L 73.300781 45.25 L 73.085938 45.507812 L 72.816406 45.421875 L 72.425781 45.886719 L 72.5625 46.132812 L 72.34375 46.394531 Z M 72.042969 45.171875 L 72.316406 45.683594 L 72.597656 45.351562 Z M 72.042969 45.171875 "/>
<path style=" stroke:none;fill-rule:evenodd;fill:rgb(78.398132%,64.299011%,0%);fill-opacity:1;" d="M 73.527344 44.902344 L 72.449219 44.238281 L 72.617188 43.964844 L 73.496094 44.503906 L 73.898438 43.855469 L 74.097656 43.980469 Z M 73.527344 44.902344 "/>
<path style=" stroke:none;fill-rule:evenodd;fill:rgb(78.398132%,64.299011%,0%);fill-opacity:1;" d="M 53.867188 39.980469 L 52.601562 40.101562 L 52.53125 39.347656 C 52.515625 39.175781 52.535156 39.046875 52.585938 38.957031 C 52.636719 38.871094 52.722656 38.820312 52.84375 38.8125 C 52.921875 38.804688 52.988281 38.816406 53.042969 38.851562 C 53.09375 38.886719 53.136719 38.941406 53.164062 39.015625 C 53.175781 38.945312 53.199219 38.894531 53.238281 38.863281 C 53.28125 38.828125 53.339844 38.808594 53.421875 38.796875 L 53.570312 38.773438 L 53.574219 38.773438 C 53.648438 38.765625 53.691406 38.742188 53.707031 38.699219 L 53.746094 38.695312 L 53.777344 39.050781 C 53.761719 39.0625 53.742188 39.074219 53.714844 39.082031 C 53.703125 39.085938 53.691406 39.089844 53.675781 39.09375 C 53.660156 39.097656 53.640625 39.097656 53.625 39.101562 L 53.492188 39.117188 C 53.414062 39.128906 53.363281 39.152344 53.335938 39.1875 C 53.3125 39.222656 53.304688 39.28125 53.3125 39.367188 L 53.34375 39.707031 L 53.835938 39.664062 Z M 53.125 39.730469 L 53.089844 39.351562 C 53.082031 39.269531 53.0625 39.210938 53.03125 39.175781 C 53.003906 39.140625 52.957031 39.125 52.902344 39.128906 C 52.84375 39.136719 52.804688 39.15625 52.78125 39.195312 C 52.757812 39.238281 52.746094 39.292969 52.753906 39.367188 L 52.789062 39.761719 Z M 53.125 39.730469 "/>
<path style=" stroke:none;fill-rule:evenodd;fill:rgb(78.398132%,64.299011%,0%);fill-opacity:1;" d="M 53.746094 38.246094 L 52.480469 38.15625 L 52.5625 37.023438 L 52.78125 37.039062 L 52.722656 37.855469 L 52.992188 37.875 L 53.046875 37.128906 L 53.261719 37.144531 L 53.207031 37.890625 L 53.535156 37.914062 L 53.59375 37.058594 L 53.832031 37.078125 Z M 53.746094 38.246094 "/>
<path style=" stroke:none;fill-rule:evenodd;fill:rgb(78.398132%,64.299011%,0%);fill-opacity:1;" d="M 53.535156 36.203125 L 53.976562 36.308594 L 53.902344 36.621094 L 52.664062 36.332031 L 52.824219 35.652344 C 52.863281 35.492188 52.921875 35.378906 53.007812 35.3125 C 53.097656 35.246094 53.207031 35.226562 53.335938 35.257812 C 53.464844 35.289062 53.550781 35.351562 53.601562 35.449219 C 53.652344 35.546875 53.660156 35.671875 53.625 35.816406 Z M 53.308594 36.148438 L 53.382812 35.847656 C 53.402344 35.761719 53.402344 35.699219 53.382812 35.65625 C 53.363281 35.613281 53.320312 35.582031 53.257812 35.570312 C 53.199219 35.554688 53.152344 35.5625 53.113281 35.59375 C 53.074219 35.621094 53.042969 35.675781 53.027344 35.746094 L 52.953125 36.066406 Z M 53.308594 36.148438 "/>
<path style=" stroke:none;fill-rule:evenodd;fill:rgb(78.398132%,64.299011%,0%);fill-opacity:1;" d="M 53.066406 33.597656 L 53.238281 34.027344 L 53.183594 34.164062 L 52.964844 33.851562 Z M 53.105469 34.628906 L 53.226562 34.328125 L 53.964844 34.632812 C 54.058594 34.667969 54.132812 34.671875 54.191406 34.644531 C 54.25 34.617188 54.300781 34.558594 54.339844 34.457031 C 54.382812 34.359375 54.390625 34.28125 54.367188 34.21875 C 54.34375 34.15625 54.289062 34.105469 54.195312 34.070312 L 53.457031 33.765625 L 53.582031 33.46875 L 54.34375 33.78125 C 54.492188 33.84375 54.582031 33.9375 54.617188 34.066406 C 54.652344 34.199219 54.632812 34.359375 54.554688 34.542969 C 54.480469 34.730469 54.382812 34.859375 54.261719 34.929688 C 54.144531 34.996094 54.015625 35.003906 53.871094 34.941406 Z M 53.105469 34.628906 "/>
<path style=" stroke:none;fill-rule:evenodd;fill:rgb(78.398132%,64.299011%,0%);fill-opacity:1;" d="M 54.960938 33.558594 L 53.878906 32.890625 L 54.269531 32.261719 C 54.351562 32.128906 54.4375 32.039062 54.53125 31.996094 C 54.621094 31.953125 54.710938 31.960938 54.800781 32.015625 C 54.855469 32.050781 54.890625 32.089844 54.910156 32.140625 C 54.933594 32.1875 54.9375 32.246094 54.921875 32.308594 C 54.988281 32.253906 55.050781 32.222656 55.117188 32.214844 C 55.179688 32.210938 55.242188 32.226562 55.304688 32.265625 C 55.410156 32.328125 55.464844 32.421875 55.46875 32.539062 C 55.476562 32.660156 55.429688 32.796875 55.335938 32.953125 Z M 54.460938 32.886719 L 54.652344 32.574219 C 54.691406 32.507812 54.714844 32.453125 54.714844 32.40625 C 54.71875 32.367188 54.699219 32.335938 54.65625 32.308594 C 54.617188 32.285156 54.578125 32.28125 54.542969 32.300781 C 54.503906 32.316406 54.464844 32.363281 54.421875 32.433594 L 54.230469 32.746094 Z M 54.925781 33.175781 L 55.125 32.851562 C 55.175781 32.773438 55.199219 32.710938 55.195312 32.664062 C 55.195312 32.617188 55.171875 32.574219 55.121094 32.546875 C 55.070312 32.515625 55.023438 32.507812 54.980469 32.53125 C 54.9375 32.550781 54.890625 32.601562 54.84375 32.679688 L 54.644531 33 Z M 54.925781 33.175781 "/>
<path style=" stroke:none;fill-rule:evenodd;fill:rgb(78.398132%,64.299011%,0%);fill-opacity:1;" d="M 55.90625 32.117188 L 54.941406 31.289062 L 55.152344 31.042969 L 55.9375 31.71875 L 56.433594 31.136719 L 56.613281 31.289062 Z M 55.90625 32.117188 "/>
<path style=" stroke:none;fill-rule:evenodd;fill:rgb(78.398132%,64.299011%,0%);fill-opacity:1;" d="M 56.894531 31.03125 L 56.027344 30.101562 L 56.261719 29.882812 L 57.128906 30.808594 Z M 56.894531 31.03125 "/>
<path style=" stroke:none;fill-rule:evenodd;fill:rgb(78.398132%,64.299011%,0%);fill-opacity:1;" d="M 58.355469 29.3125 C 58.425781 29.4375 58.441406 29.570312 58.390625 29.710938 C 58.335938 29.855469 58.230469 29.984375 58.066406 30.101562 C 57.878906 30.238281 57.699219 30.292969 57.523438 30.273438 C 57.351562 30.253906 57.207031 30.160156 57.082031 29.984375 C 56.953125 29.8125 56.910156 29.640625 56.949219 29.46875 C 56.988281 29.296875 57.109375 29.140625 57.308594 28.996094 C 57.46875 28.882812 57.621094 28.820312 57.761719 28.816406 C 57.902344 28.816406 58.019531 28.871094 58.109375 28.980469 L 57.855469 29.164062 C 57.800781 29.113281 57.738281 29.089844 57.667969 29.09375 C 57.597656 29.097656 57.523438 29.128906 57.445312 29.1875 C 57.328125 29.269531 57.265625 29.363281 57.246094 29.464844 C 57.230469 29.570312 57.261719 29.679688 57.347656 29.796875 C 57.425781 29.90625 57.515625 29.972656 57.621094 29.992188 C 57.726562 30.007812 57.832031 29.976562 57.941406 29.898438 C 58.023438 29.839844 58.074219 29.777344 58.101562 29.710938 C 58.128906 29.640625 58.125 29.570312 58.097656 29.496094 Z M 58.355469 29.3125 "/>
<path style=" stroke:none;fill-rule:evenodd;fill:rgb(78.398132%,64.299011%,0%);fill-opacity:1;" d="M 58.898438 28.082031 L 59.234375 27.925781 L 60.289062 28.832031 L 59.980469 28.976562 L 59.773438 28.785156 L 59.226562 29.042969 L 59.246094 29.324219 L 58.9375 29.46875 Z M 59.175781 28.230469 L 59.210938 28.816406 L 59.605469 28.628906 Z M 59.175781 28.230469 "/>
<path style=" stroke:none;fill-rule:evenodd;fill:rgb(78.398132%,64.299011%,0%);fill-opacity:1;" d="M 62.03125 28.335938 L 61.867188 27.074219 L 62.476562 26.996094 C 62.714844 26.964844 62.898438 26.992188 63.027344 27.082031 C 63.160156 27.171875 63.238281 27.324219 63.265625 27.535156 C 63.28125 27.648438 63.273438 27.753906 63.238281 27.847656 C 63.207031 27.941406 63.15625 28.019531 63.082031 28.082031 C 63.023438 28.132812 62.957031 28.167969 62.882812 28.195312 C 62.804688 28.226562 62.695312 28.25 62.554688 28.265625 Z M 62.316406 28.066406 L 62.570312 28.03125 C 62.71875 28.011719 62.820312 27.96875 62.878906 27.898438 C 62.9375 27.824219 62.957031 27.71875 62.941406 27.578125 C 62.921875 27.4375 62.875 27.335938 62.804688 27.277344 C 62.734375 27.222656 62.636719 27.203125 62.503906 27.21875 L 62.210938 27.257812 Z M 62.316406 28.066406 "/>
<path style=" stroke:none;fill-rule:evenodd;fill:rgb(78.398132%,64.299011%,0%);fill-opacity:1;" d="M 63.792969 28.148438 L 63.839844 26.878906 L 64.972656 26.921875 L 64.964844 27.140625 L 64.148438 27.109375 L 64.136719 27.382812 L 64.886719 27.410156 L 64.878906 27.625 L 64.128906 27.597656 L 64.117188 27.925781 L 64.972656 27.957031 L 64.964844 28.191406 Z M 63.792969 28.148438 "/>
<path style=" stroke:none;fill-rule:evenodd;fill:rgb(78.398132%,64.299011%,0%);fill-opacity:1;" d="M 66.789062 28.527344 L 67.210938 27.332031 L 67.53125 27.445312 L 67.839844 28.476562 L 68.128906 27.65625 L 68.429688 27.761719 L 68.003906 28.957031 L 67.691406 28.847656 L 67.378906 27.8125 L 67.089844 28.632812 Z M 66.789062 28.527344 "/>
<path style=" stroke:none;fill-rule:evenodd;fill:rgb(78.398132%,64.299011%,0%);fill-opacity:1;" d="M 68.421875 29.167969 L 68.988281 28.03125 L 69.277344 28.175781 L 68.710938 29.3125 Z M 68.421875 29.167969 "/>
<path style=" stroke:none;fill-rule:evenodd;fill:rgb(78.398132%,64.299011%,0%);fill-opacity:1;" d="M 70.539062 29.9375 C 70.449219 30.046875 70.328125 30.105469 70.175781 30.109375 C 70.027344 30.109375 69.867188 30.054688 69.699219 29.941406 C 69.507812 29.8125 69.390625 29.664062 69.347656 29.492188 C 69.304688 29.328125 69.34375 29.15625 69.464844 28.976562 C 69.582031 28.800781 69.730469 28.699219 69.902344 28.675781 C 70.078125 28.652344 70.265625 28.710938 70.46875 28.84375 C 70.636719 28.957031 70.742188 29.078125 70.796875 29.207031 C 70.847656 29.339844 70.835938 29.46875 70.765625 29.59375 L 70.503906 29.417969 C 70.53125 29.347656 70.53125 29.28125 70.503906 29.21875 C 70.476562 29.152344 70.417969 29.09375 70.339844 29.039062 C 70.222656 28.960938 70.113281 28.933594 70.007812 28.953125 C 69.90625 28.972656 69.8125 29.042969 69.734375 29.160156 C 69.660156 29.273438 69.628906 29.382812 69.648438 29.488281 C 69.667969 29.589844 69.734375 29.679688 69.847656 29.753906 C 69.925781 29.808594 70.003906 29.835938 70.078125 29.835938 C 70.152344 29.839844 70.21875 29.8125 70.277344 29.761719 Z M 70.539062 29.9375 "/>
<path style=" stroke:none;fill-rule:evenodd;fill:rgb(78.398132%,64.299011%,0%);fill-opacity:1;" d="M 71.878906 30.015625 L 72.144531 30.273438 L 71.667969 31.578125 L 71.425781 31.34375 L 71.53125 31.082031 L 71.097656 30.65625 L 70.839844 30.773438 L 70.59375 30.539062 Z M 71.839844 30.328125 L 71.304688 30.566406 L 71.617188 30.867188 Z M 71.839844 30.328125 "/>
<path style=" stroke:none;fill-rule:evenodd;fill:rgb(78.398132%,64.299011%,0%);fill-opacity:1;" d="M 71.933594 31.898438 L 72.960938 31.15625 L 73.40625 31.769531 C 73.503906 31.90625 73.554688 32.027344 73.554688 32.128906 C 73.554688 32.230469 73.503906 32.316406 73.40625 32.386719 C 73.34375 32.433594 73.28125 32.457031 73.214844 32.453125 C 73.152344 32.449219 73.089844 32.421875 73.027344 32.375 C 73.054688 32.441406 73.058594 32.496094 73.039062 32.546875 C 73.023438 32.59375 72.980469 32.644531 72.917969 32.695312 L 72.800781 32.789062 L 72.796875 32.792969 C 72.734375 32.835938 72.710938 32.878906 72.71875 32.921875 L 72.6875 32.945312 L 72.480469 32.65625 C 72.488281 32.636719 72.5 32.617188 72.519531 32.597656 C 72.527344 32.585938 72.539062 32.578125 72.550781 32.566406 C 72.5625 32.554688 72.574219 32.546875 72.585938 32.535156 L 72.695312 32.453125 C 72.757812 32.402344 72.789062 32.355469 72.789062 32.316406 C 72.792969 32.269531 72.773438 32.214844 72.722656 32.144531 L 72.519531 31.867188 L 72.121094 32.160156 Z M 72.699219 31.738281 L 72.921875 32.046875 C 72.96875 32.113281 73.015625 32.15625 73.058594 32.171875 C 73.105469 32.1875 73.148438 32.175781 73.195312 32.144531 C 73.242188 32.109375 73.265625 32.070312 73.265625 32.023438 C 73.265625 31.976562 73.246094 31.921875 73.203125 31.863281 L 72.972656 31.542969 Z M 72.699219 31.738281 "/>
<path style=" stroke:none;fill-rule:evenodd;fill:rgb(78.398132%,64.299011%,0%);fill-opacity:1;" d="M 74.285156 33.234375 L 74.445312 33.570312 L 73.546875 34.628906 L 73.402344 34.324219 L 73.589844 34.117188 L 73.328125 33.570312 L 73.046875 33.589844 L 72.898438 33.28125 Z M 74.136719 33.515625 L 73.554688 33.554688 L 73.746094 33.945312 Z M 74.136719 33.515625 "/>
<path style=" stroke:none;fill-rule:evenodd;fill:rgb(78.398132%,64.299011%,0%);fill-opacity:1;" d="M 74.140625 36.109375 C 74.066406 36.070312 74.003906 36.019531 73.953125 35.953125 C 73.902344 35.886719 73.867188 35.808594 73.839844 35.714844 C 73.785156 35.503906 73.796875 35.316406 73.878906 35.152344 C 73.964844 34.992188 74.101562 34.882812 74.296875 34.828125 C 74.492188 34.777344 74.664062 34.800781 74.816406 34.898438 C 74.96875 34.996094 75.074219 35.15625 75.136719 35.371094 C 75.1875 35.5625 75.191406 35.726562 75.152344 35.863281 C 75.109375 36.003906 75.027344 36.101562 74.90625 36.160156 L 74.816406 35.84375 C 74.875 35.808594 74.914062 35.753906 74.933594 35.6875 C 74.949219 35.617188 74.945312 35.539062 74.917969 35.441406 C 74.886719 35.316406 74.820312 35.230469 74.726562 35.175781 C 74.628906 35.125 74.515625 35.117188 74.386719 35.152344 C 74.25 35.1875 74.15625 35.253906 74.101562 35.347656 C 74.046875 35.445312 74.039062 35.558594 74.074219 35.691406 C 74.101562 35.789062 74.148438 35.867188 74.210938 35.917969 C 74.277344 35.972656 74.351562 35.996094 74.441406 35.988281 L 74.347656 35.644531 L 74.554688 35.585938 L 74.726562 36.214844 L 74.0625 36.394531 L 74.007812 36.1875 Z M 74.140625 36.109375 "/>
<path style=" stroke:none;fill-rule:evenodd;fill:rgb(78.398132%,64.299011%,0%);fill-opacity:1;" d="M 75.402344 36.714844 L 75.433594 37.039062 L 74.640625 37.113281 C 74.542969 37.121094 74.472656 37.152344 74.433594 37.207031 C 74.390625 37.257812 74.378906 37.335938 74.386719 37.441406 C 74.398438 37.546875 74.425781 37.621094 74.476562 37.667969 C 74.523438 37.710938 74.597656 37.726562 74.695312 37.71875 L 75.488281 37.644531 L 75.519531 37.964844 L 74.695312 38.042969 C 74.542969 38.054688 74.417969 38.011719 74.324219 37.914062 C 74.230469 37.8125 74.175781 37.664062 74.15625 37.464844 C 74.140625 37.261719 74.164062 37.105469 74.238281 36.988281 C 74.308594 36.871094 74.425781 36.808594 74.582031 36.792969 Z M 75.402344 36.714844 "/>
<path style=" stroke:none;fill-rule:evenodd;fill:rgb(78.398132%,64.299011%,0%);fill-opacity:1;" d="M 75.484375 39.148438 L 75.457031 39.519531 L 74.144531 39.980469 L 74.171875 39.644531 L 74.441406 39.558594 L 74.492188 38.953125 L 74.238281 38.832031 L 74.265625 38.492188 Z M 75.21875 39.316406 L 74.695312 39.058594 L 74.660156 39.488281 Z M 75.21875 39.316406 "/>
<path style=" stroke:none;fill-rule:evenodd;fill:rgb(78.398132%,64.299011%,0%);fill-opacity:1;" d="M 53.523438 41.789062 L 53.742188 41.714844 L 53.933594 42.265625 L 53.714844 42.34375 Z M 53.523438 41.789062 "/>
<path style=" stroke:none;fill-rule:evenodd;fill:rgb(78.398132%,64.299011%,0%);fill-opacity:1;" d="M 74.476562 41.789062 L 74.257812 41.714844 L 74.066406 42.265625 L 74.285156 42.34375 Z M 74.476562 41.789062 "/>
<path style=" stroke:none;fill-rule:evenodd;fill:rgb(99.998474%,99.998474%,99.998474%);fill-opacity:1;" d="M 63.996094 28.980469 L 59.964844 35.960938 L 57.992188 39.378906 L 70 39.378906 L 68.113281 36.117188 Z M 63.996094 28.980469 "/>
<path style=" stroke:none;fill-rule:evenodd;fill:rgb(42.698669%,85.098267%,95.698547%);fill-opacity:1;" d="M 63.996094 36.261719 L 63.386719 30.039062 L 62.972656 30.753906 Z M 63.996094 36.261719 L 62.75 31.140625 L 62.453125 31.660156 Z M 63.996094 36.261719 L 62.28125 31.953125 L 62.042969 32.363281 Z M 63.996094 36.261719 L 61.90625 32.605469 L 61.707031 32.949219 Z M 63.996094 36.261719 L 61.585938 33.15625 L 61.414062 33.460938 Z M 63.996094 36.261719 L 61.304688 33.644531 L 61.144531 33.925781 Z M 63.996094 36.261719 L 61.039062 34.101562 L 60.886719 34.371094 Z M 63.996094 36.261719 L 60.785156 34.546875 L 60.628906 34.816406 Z M 63.996094 36.261719 L 60.527344 34.992188 L 60.363281 35.273438 Z M 63.996094 36.261719 L 60.257812 35.460938 L 60.082031 35.765625 Z M 63.996094 36.261719 L 59.960938 35.972656 L 59.761719 36.320312 Z M 63.996094 36.261719 L 59.621094 36.558594 L 59.382812 36.972656 Z M 63.996094 36.261719 L 59.210938 37.269531 L 58.910156 37.792969 Z M 63.996094 36.261719 L 58.683594 38.183594 L 58.269531 38.902344 Z M 63.996094 36.261719 L 57.949219 39.460938 L 57.75 39.804688 L 57.945312 40.148438 Z M 63.996094 36.261719 L 58.164062 40.472656 L 58.539062 40.953125 Z M 63.996094 36.261719 L 58.800781 41.242188 L 59.242188 41.667969 Z M 63.996094 36.261719 L 59.539062 41.917969 L 60.035156 42.277344 Z M 63.996094 36.261719 L 60.363281 42.484375 L 60.902344 42.769531 Z M 63.996094 36.261719 L 61.261719 42.929688 L 61.710938 43.09375 L 61.847656 43.09375 Z M 63.996094 36.261719 L 62.246094 43.09375 L 62.851562 43.09375 Z M 63.996094 36.261719 L 63.230469 43.09375 L 63.808594 43.09375 Z M 63.996094 36.261719 L 64.179688 43.09375 L 64.761719 43.09375 Z M 63.996094 36.261719 L 65.140625 43.09375 L 65.742188 43.09375 Z M 63.996094 36.261719 L 66.144531 43.09375 L 66.28125 43.09375 L 66.730469 42.929688 Z M 63.996094 36.261719 L 67.085938 42.769531 L 67.625 42.484375 Z M 63.996094 36.261719 L 67.957031 42.277344 L 68.449219 41.917969 Z M 63.996094 36.261719 L 68.75 41.667969 L 69.1875 41.242188 Z M 63.996094 36.261719 L 69.449219 40.953125 L 69.824219 40.472656 Z M 63.996094 36.261719 L 70.042969 40.148438 L 70.242188 39.804688 L 70.042969 39.460938 Z M 63.996094 36.261719 L 69.71875 38.902344 L 69.304688 38.183594 Z M 63.996094 36.261719 L 69.082031 37.792969 L 68.777344 37.269531 Z M 63.996094 36.261719 L 68.609375 36.972656 L 68.371094 36.558594 Z M 63.996094 36.261719 L 68.230469 36.320312 L 68.03125 35.972656 Z M 63.996094 36.261719 L 67.910156 35.765625 L 67.734375 35.460938 Z M 63.996094 36.261719 L 67.625 35.273438 L 67.464844 34.992188 Z M 63.996094 36.261719 L 67.363281 34.816406 L 67.207031 34.542969 Z M 63.996094 36.261719 L 67.105469 34.371094 L 66.949219 34.101562 Z M 63.996094 36.261719 L 66.847656 33.925781 L 66.6875 33.644531 Z M 63.996094 36.261719 L 66.578125 33.457031 L 66.402344 33.15625 Z M 63.996094 36.261719 L 66.285156 32.949219 L 66.085938 32.601562 Z M 63.996094 36.261719 L 65.945312 32.363281 L 65.710938 31.953125 Z M 63.996094 36.261719 L 65.539062 31.660156 L 65.238281 31.136719 Z M 63.996094 36.261719 L 65.015625 30.753906 L 64.605469 30.039062 Z M 63.902344 29.144531 L 63.707031 29.488281 L 63.996094 36.261719 L 64.285156 29.484375 L 64.089844 29.144531 Z M 63.902344 29.144531 "/>
<path style="fill:none;stroke-width:0.13312;stroke-linecap:square;stroke-linejoin:miter;stroke:rgb(42.698669%,85.098267%,95.698547%);stroke-opacity:1;stroke-miterlimit:4;" d="M 63.996094 36.261719 L 63.386719 30.039062 L 62.972656 30.753906 Z M 63.996094 36.261719 "/>
<path style="fill:none;stroke-width:0.13312;stroke-linecap:square;stroke-linejoin:miter;stroke:rgb(42.698669%,85.098267%,95.698547%);stroke-opacity:1;stroke-miterlimit:4;" d="M 63.996094 36.261719 L 62.75 31.140625 L 62.453125 31.660156 Z M 63.996094 36.261719 "/>
<path style="fill:none;stroke-width:0.13312;stroke-linecap:square;stroke-linejoin:miter;stroke:rgb(42.698669%,85.098267%,95.698547%);stroke-opacity:1;stroke-miterlimit:4;" d="M 63.996094 36.261719 L 62.28125 31.953125 L 62.042969 32.363281 Z M 63.996094 36.261719 "/>
<path style="fill:none;stroke-width:0.13312;stroke-linecap:square;stroke-linejoin:miter;stroke:rgb(42.698669%,85.098267%,95.698547%);stroke-opacity:1;stroke-miterlimit:4;" d="M 63.996094 36.261719 L 61.90625 32.605469 L 61.707031 32.949219 Z M 63.996094 36.261719 "/>
<path style="fill:none;stroke-width:0.13312;stroke-linecap:square;stroke-linejoin:miter;stroke:rgb(42.698669%,85.098267%,95.698547%);stroke-opacity:1;stroke-miterlimit:4;" d="M 63.996094 36.261719 L 61.585938 33.15625 L 61.414062 33.460938 Z M 63.996094 36.261719 "/>
<path style="fill:none;stroke-width:0.13312;stroke-linecap:square;stroke-linejoin:miter;stroke:rgb(42.698669%,85.098267%,95.698547%);stroke-opacity:1;stroke-miterlimit:4;" d="M 63.996094 36.261719 L 61.304688 33.644531 L 61.144531 33.925781 Z M 63.996094 36.261719 "/>
<path style="fill:none;stroke-width:0.13312;stroke-linecap:square;stroke-linejoin:miter;stroke:rgb(42.698669%,85.098267%,95.698547%);stroke-opacity:1;stroke-miterlimit:4;" d="M 63.996094 36.261719 L 61.039062 34.101562 L 60.886719 34.371094 Z M 63.996094 36.261719 "/>
<path style="fill:none;stroke-width:0.13312;stroke-linecap:square;stroke-linejoin:miter;stroke:rgb(42.698669%,85.098267%,95.698547%);stroke-opacity:1;stroke-miterlimit:4;" d="M 63.996094 36.261719 L 60.785156 34.546875 L 60.628906 34.816406 Z M 63.996094 36.261719 "/>
<path style="fill:none;stroke-width:0.13312;stroke-linecap:square;stroke-linejoin:miter;stroke:rgb(42.698669%,85.098267%,95.698547%);stroke-opacity:1;stroke-miterlimit:4;" d="M 63.996094 36.261719 L 60.527344 34.992188 L 60.363281 35.273438 Z M 63.996094 36.261719 "/>
<path style="fill:none;stroke-width:0.13312;stroke-linecap:square;stroke-linejoin:miter;stroke:rgb(42.698669%,85.098267%,95.698547%);stroke-opacity:1;stroke-miterlimit:4;" d="M 63.996094 36.261719 L 60.257812 35.460938 L 60.082031 35.765625 Z M 63.996094 36.261719 "/>
<path style="fill:none;stroke-width:0.13312;stroke-linecap:square;stroke-linejoin:miter;stroke:rgb(42.698669%,85.098267%,95.698547%);stroke-opacity:1;stroke-miterlimit:4;" d="M 63.996094 36.261719 L 59.960938 35.972656 L 59.761719 36.320312 Z M 63.996094 36.261719 "/>
<path style="fill:none;stroke-width:0.13312;stroke-linecap:square;stroke-linejoin:miter;stroke:rgb(42.698669%,85.098267%,95.698547%);stroke-opacity:1;stroke-miterlimit:4;" d="M 63.996094 36.261719 L 59.621094 36.558594 L 59.382812 36.972656 Z M 63.996094 36.261719 "/>
<path style="fill:none;stroke-width:0.13312;stroke-linecap:square;stroke-linejoin:miter;stroke:rgb(42.698669%,85.098267%,95.698547%);stroke-opacity:1;stroke-miterlimit:4;" d="M 63.996094 36.261719 L 59.210938 37.269531 L 58.910156 37.792969 Z M 63.996094 36.261719 "/>
<path style="fill:none;stroke-width:0.13312;stroke-linecap:square;stroke-linejoin:miter;stroke:rgb(42.698669%,85.098267%,95.698547%);stroke-opacity:1;stroke-miterlimit:4;" d="M 63.996094 36.261719 L 58.683594 38.183594 L 58.269531 38.902344 Z M 63.996094 36.261719 "/>
<path style="fill:none;stroke-width:0.13312;stroke-linecap:square;stroke-linejoin:miter;stroke:rgb(42.698669%,85.098267%,95.698547%);stroke-opacity:1;stroke-miterlimit:4;" d="M 63.996094 36.261719 L 57.949219 39.460938 L 57.75 39.804688 L 57.945312 40.148438 Z M 63.996094 36.261719 "/>
<path style="fill:none;stroke-width:0.13312;stroke-linecap:square;stroke-linejoin:miter;stroke:rgb(42.698669%,85.098267%,95.698547%);stroke-opacity:1;stroke-miterlimit:4;" d="M 63.996094 36.261719 L 58.164062 40.472656 L 58.539062 40.953125 Z M 63.996094 36.261719 "/>
<path style="fill:none;stroke-width:0.13312;stroke-linecap:square;stroke-linejoin:miter;stroke:rgb(42.698669%,85.098267%,95.698547%);stroke-opacity:1;stroke-miterlimit:4;" d="M 63.996094 36.261719 L 58.800781 41.242188 L 59.242188 41.667969 Z M 63.996094 36.261719 "/>
<path style="fill:none;stroke-width:0.13312;stroke-linecap:square;stroke-linejoin:miter;stroke:rgb(42.698669%,85.098267%,95.698547%);stroke-opacity:1;stroke-miterlimit:4;" d="M 63.996094 36.261719 L 59.539062 41.917969 L 60.035156 42.277344 Z M 63.996094 36.261719 "/>
<path style="fill:none;stroke-width:0.13312;stroke-linecap:square;stroke-linejoin:miter;stroke:rgb(42.698669%,85.098267%,95.698547%);stroke-opacity:1;stroke-miterlimit:4;" d="M 63.996094 36.261719 L 60.363281 42.484375 L 60.902344 42.769531 Z M 63.996094 36.261719 "/>
<path style="fill:none;stroke-width:0.13312;stroke-linecap:square;stroke-linejoin:miter;stroke:rgb(42.698669%,85.098267%,95.698547%);stroke-opacity:1;stroke-miterlimit:4;" d="M 63.996094 36.261719 L 61.261719 42.929688 L 61.710938 43.09375 L 61.847656 43.09375 Z M 63.996094 36.261719 "/>
<path style="fill:none;stroke-width:0.13312;stroke-linecap:square;stroke-linejoin:miter;stroke:rgb(42.698669%,85.098267%,95.698547%);stroke-opacity:1;stroke-miterlimit:4;" d="M 63.996094 36.261719 L 62.246094 43.09375 L 62.851562 43.09375 Z M 63.996094 36.261719 "/>
<path style="fill:none;stroke-width:0.13312;stroke-linecap:square;stroke-linejoin:miter;stroke:rgb(42.698669%,85.098267%,95.698547%);stroke-opacity:1;stroke-miterlimit:4;" d="M 63.996094 36.261719 L 63.230469 43.09375 L 63.808594 43.09375 Z M 63.996094 36.261719 "/>
<path style="fill:none;stroke-width:0.13312;stroke-linecap:square;stroke-linejoin:miter;stroke:rgb(42.698669%,85.098267%,95.698547%);stroke-opacity:1;stroke-miterlimit:4;" d="M 63.996094 36.261719 L 64.179688 43.09375 L 64.761719 43.09375 Z M 63.996094 36.261719 "/>
<path style="fill:none;stroke-width:0.13312;stroke-linecap:square;stroke-linejoin:miter;stroke:rgb(42.698669%,85.098267%,95.698547%);stroke-opacity:1;stroke-miterlimit:4;" d="M 63.996094 36.261719 L 65.140625 43.09375 L 65.742188 43.09375 Z M 63.996094 36.261719 "/>
<path style="fill:none;stroke-width:0.13312;stroke-linecap:square;stroke-linejoin:miter;stroke:rgb(42.698669%,85.098267%,95.698547%);stroke-opacity:1;stroke-miterlimit:4;" d="M 63.996094 36.261719 L 66.144531 43.09375 L 66.28125 43.09375 L 66.730469 42.929688 Z M 63.996094 36.261719 "/>
<path style="fill:none;stroke-width:0.13312;stroke-linecap:square;stroke-linejoin:miter;stroke:rgb(42.698669%,85.098267%,95.698547%);stroke-opacity:1;stroke-miterlimit:4;" d="M 63.996094 36.261719 L 67.085938 42.769531 L 67.625 42.484375 Z M 63.996094 36.261719 "/>
<path style="fill:none;stroke-width:0.13312;stroke-linecap:square;stroke-linejoin:miter;stroke:rgb(42.698669%,85.098267%,95.698547%);stroke-opacity:1;stroke-miterlimit:4;" d="M 63.996094 36.261719 L 67.957031 42.277344 L 68.449219 41.917969 Z M 63.996094 36.261719 "/>
<path style="fill:none;stroke-width:0.13312;stroke-linecap:square;stroke-linejoin:miter;stroke:rgb(42.698669%,85.098267%,95.698547%);stroke-opacity:1;stroke-miterlimit:4;" d="M 63.996094 36.261719 L 68.75 41.667969 L 69.1875 41.242188 Z M 63.996094 36.261719 "/>
<path style="fill:none;stroke-width:0.13312;stroke-linecap:square;stroke-linejoin:miter;stroke:rgb(42.698669%,85.098267%,95.698547%);stroke-opacity:1;stroke-miterlimit:4;" d="M 63.996094 36.261719 L 69.449219 40.953125 L 69.824219 40.472656 Z M 63.996094 36.261719 "/>
<path style="fill:none;stroke-width:0.13312;stroke-linecap:square;stroke-linejoin:miter;stroke:rgb(42.698669%,85.098267%,95.698547%);stroke-opacity:1;stroke-miterlimit:4;" d="M 63.996094 36.261719 L 70.042969 40.148438 L 70.242188 39.804688 L 70.042969 39.460938 Z M 63.996094 36.261719 "/>
<path style="fill:none;stroke-width:0.13312;stroke-linecap:square;stroke-linejoin:miter;stroke:rgb(42.698669%,85.098267%,95.698547%);stroke-opacity:1;stroke-miterlimit:4;" d="M 63.996094 36.261719 L 69.71875 38.902344 L 69.304688 38.183594 Z M 63.996094 36.261719 "/>
<path style="fill:none;stroke-width:0.13312;stroke-linecap:square;stroke-linejoin:miter;stroke:rgb(42.698669%,85.098267%,95.698547%);stroke-opacity:1;stroke-miterlimit:4;" d="M 63.996094 36.261719 L 69.082031 37.792969 L 68.777344 37.269531 Z M 63.996094 36.261719 "/>
<path style="fill:none;stroke-width:0.13312;stroke-linecap:square;stroke-linejoin:miter;stroke:rgb(42.698669%,85.098267%,95.698547%);stroke-opacity:1;stroke-miterlimit:4;" d="M 63.996094 36.261719 L 68.609375 36.972656 L 68.371094 36.558594 Z M 63.996094 36.261719 "/>
<path style="fill:none;stroke-width:0.13312;stroke-linecap:square;stroke-linejoin:miter;stroke:rgb(42.698669%,85.098267%,95.698547%);stroke-opacity:1;stroke-miterlimit:4;" d="M 63.996094 36.261719 L 68.230469 36.320312 L 68.03125 35.972656 Z M 63.996094 36.261719 "/>
<path style="fill:none;stroke-width:0.13312;stroke-linecap:square;stroke-linejoin:miter;stroke:rgb(42.698669%,85.098267%,95.698547%);stroke-opacity:1;stroke-miterlimit:4;" d="M 63.996094 36.261719 L 67.910156 35.765625 L 67.734375 35.460938 Z M 63.996094 36.261719 "/>
<path style="fill:none;stroke-width:0.13312;stroke-linecap:square;stroke-linejoin:miter;stroke:rgb(42.698669%,85.098267%,95.698547%);stroke-opacity:1;stroke-miterlimit:4;" d="M 63.996094 36.261719 L 67.625 35.273438 L 67.464844 34.992188 Z M 63.996094 36.261719 "/>
<path style="fill:none;stroke-width:0.13312;stroke-linecap:square;stroke-linejoin:miter;stroke:rgb(42.698669%,85.098267%,95.698547%);stroke-opacity:1;stroke-miterlimit:4;" d="M 63.996094 36.261719 L 67.363281 34.816406 L 67.207031 34.542969 Z M 63.996094 36.261719 "/>
<path style="fill:none;stroke-width:0.13312;stroke-linecap:square;stroke-linejoin:miter;stroke:rgb(42.698669%,85.098267%,95.698547%);stroke-opacity:1;stroke-miterlimit:4;" d="M 63.996094 36.261719 L 67.105469 34.371094 L 66.949219 34.101562 Z M 63.996094 36.261719 "/>
<path style="fill:none;stroke-width:0.13312;stroke-linecap:square;stroke-linejoin:miter;stroke:rgb(42.698669%,85.098267%,95.698547%);stroke-opacity:1;stroke-miterlimit:4;" d="M 63.996094 36.261719 L 66.847656 33.925781 L 66.6875 33.644531 Z M 63.996094 36.261719 "/>
<path style="fill:none;stroke-width:0.13312;stroke-linecap:square;stroke-linejoin:miter;stroke:rgb(42.698669%,85.098267%,95.698547%);stroke-opacity:1;stroke-miterlimit:4;" d="M 63.996094 36.261719 L 66.578125 33.457031 L 66.402344 33.15625 Z M 63.996094 36.261719 "/>
<path style="fill:none;stroke-width:0.13312;stroke-linecap:square;stroke-linejoin:miter;stroke:rgb(42.698669%,85.098267%,95.698547%);stroke-opacity:1;stroke-miterlimit:4;" d="M 63.996094 36.261719 L 66.285156 32.949219 L 66.085938 32.601562 Z M 63.996094 36.261719 "/>
<path style="fill:none;stroke-width:0.13312;stroke-linecap:square;stroke-linejoin:miter;stroke:rgb(42.698669%,85.098267%,95.698547%);stroke-opacity:1;stroke-miterlimit:4;" d="M 63.996094 36.261719 L 65.945312 32.363281 L 65.710938 31.953125 Z M 63.996094 36.261719 "/>
<path style="fill:none;stroke-width:0.13312;stroke-linecap:square;stroke-linejoin:miter;stroke:rgb(42.698669%,85.098267%,95.698547%);stroke-opacity:1;stroke-miterlimit:4;" d="M 63.996094 36.261719 L 65.539062 31.660156 L 65.238281 31.136719 Z M 63.996094 36.261719 "/>
<path style="fill:none;stroke-width:0.13312;stroke-linecap:square;stroke-linejoin:miter;stroke:rgb(42.698669%,85.098267%,95.698547%);stroke-opacity:1;stroke-miterlimit:4;" d="M 63.996094 36.261719 L 65.015625 30.753906 L 64.605469 30.039062 Z M 63.996094 36.261719 "/>
<path style="fill:none;stroke-width:0.13312;stroke-linecap:square;stroke-linejoin:miter;stroke:rgb(42.698669%,85.098267%,95.698547%);stroke-opacity:1;stroke-miterlimit:4;" d="M 63.902344 29.144531 L 63.707031 29.488281 L 63.996094 36.261719 L 64.285156 29.484375 L 64.089844 29.144531 Z M 63.902344 29.144531 "/>
<path style=" stroke:none;fill-rule:evenodd;fill:rgb(99.998474%,99.998474%,99.998474%);fill-opacity:1;" d="M 64.171875 37.09375 L 64.25 37.574219 C 64.265625 37.570312 64.277344 37.566406 64.292969 37.566406 Z M 63.820312 37.09375 L 63.699219 37.566406 C 63.714844 37.566406 63.726562 37.570312 63.742188 37.574219 Z M 64.054688 37.089844 L 64.066406 37.597656 C 64.082031 37.597656 64.09375 37.59375 64.109375 37.59375 Z M 63.9375 37.089844 L 63.882812 37.59375 C 63.894531 37.59375 63.910156 37.597656 63.925781 37.597656 Z M 64.28125 37.042969 L 64.429688 37.523438 C 64.445312 37.519531 64.457031 37.515625 64.46875 37.511719 Z M 63.710938 37.042969 L 63.519531 37.511719 C 63.535156 37.515625 63.546875 37.519531 63.5625 37.523438 Z M 64.394531 37.015625 L 64.597656 37.449219 C 64.613281 37.441406 64.625 37.433594 64.636719 37.429688 Z M 63.597656 37.007812 L 63.355469 37.429688 C 63.367188 37.4375 63.378906 37.441406 63.390625 37.449219 Z M 64.496094 36.957031 L 64.757812 37.351562 C 64.769531 37.34375 64.777344 37.335938 64.789062 37.328125 Z M 63.5 36.945312 L 63.203125 37.324219 C 63.210938 37.335938 63.222656 37.34375 63.234375 37.351562 Z M 64.574219 36.863281 L 64.898438 37.230469 C 64.90625 37.222656 64.917969 37.210938 64.925781 37.203125 Z M 63.417969 36.863281 L 63.066406 37.203125 C 63.074219 37.210938 63.082031 37.222656 63.09375 37.230469 Z M 63.34375 36.773438 L 62.945312 37.0625 C 62.953125 37.074219 62.960938 37.085938 62.972656 37.09375 Z M 64.644531 36.773438 L 65.019531 37.09375 C 65.027344 37.082031 65.035156 37.074219 65.042969 37.0625 Z M 64.71875 36.683594 L 65.121094 36.941406 C 65.128906 36.929688 65.132812 36.917969 65.140625 36.90625 Z M 63.285156 36.675781 L 62.851562 36.90625 C 62.855469 36.917969 62.863281 36.929688 62.871094 36.941406 Z M 64.78125 36.582031 L 65.199219 36.777344 C 65.203125 36.765625 65.207031 36.753906 65.214844 36.738281 Z M 63.210938 36.582031 L 62.777344 36.738281 C 62.78125 36.753906 62.789062 36.765625 62.792969 36.777344 Z M 64.8125 36.46875 L 65.253906 36.601562 C 65.253906 36.589844 65.257812 36.578125 65.261719 36.5625 Z M 63.191406 36.46875 L 62.730469 36.5625 C 62.730469 36.578125 62.734375 36.589844 62.738281 36.605469 Z M 64.832031 36.351562 L 65.28125 36.421875 C 65.285156 36.410156 65.285156 36.398438 65.285156 36.382812 Z M 63.160156 36.351562 L 62.707031 36.382812 C 62.707031 36.398438 62.707031 36.410156 62.710938 36.421875 Z M 65.285156 36.203125 L 64.816406 36.238281 L 65.285156 36.246094 C 65.285156 36.230469 65.285156 36.21875 65.285156 36.203125 Z M 62.707031 36.203125 C 62.707031 36.21875 62.707031 36.230469 62.707031 36.246094 L 63.175781 36.238281 Z M 65.257812 36.027344 L 64.828125 36.121094 L 65.265625 36.066406 C 65.261719 36.054688 65.261719 36.039062 65.257812 36.027344 Z M 62.734375 36.027344 C 62.730469 36.039062 62.726562 36.054688 62.726562 36.066406 L 63.160156 36.121094 Z M 65.207031 35.855469 L 64.8125 36 L 65.21875 35.890625 C 65.214844 35.878906 65.210938 35.867188 65.207031 35.855469 Z M 62.785156 35.855469 C 62.78125 35.867188 62.777344 35.878906 62.773438 35.890625 L 63.175781 36 Z M 65.132812 35.691406 L 64.738281 35.902344 L 65.148438 35.726562 C 65.144531 35.714844 65.136719 35.703125 65.132812 35.691406 Z M 62.859375 35.691406 C 62.851562 35.703125 62.847656 35.714844 62.839844 35.726562 L 63.25 35.902344 Z M 65.039062 35.542969 L 64.703125 35.789062 L 65.058594 35.574219 C 65.050781 35.5625 65.046875 35.554688 65.039062 35.542969 Z M 62.953125 35.542969 C 62.945312 35.550781 62.941406 35.5625 62.933594 35.574219 L 63.289062 35.789062 Z M 64.925781 35.410156 L 64.621094 35.703125 L 64.949219 35.4375 C 64.941406 35.425781 64.933594 35.417969 64.925781 35.410156 Z M 63.066406 35.40625 C 63.058594 35.414062 63.050781 35.425781 63.042969 35.433594 L 63.375 35.707031 Z M 64.792969 35.289062 L 64.539062 35.621094 L 64.820312 35.3125 C 64.8125 35.304688 64.800781 35.296875 64.792969 35.289062 Z M 63.199219 35.289062 C 63.1875 35.296875 63.179688 35.304688 63.167969 35.3125 L 63.457031 35.625 Z M 64.648438 35.191406 L 64.445312 35.546875 L 64.675781 35.210938 C 64.667969 35.203125 64.65625 35.199219 64.648438 35.191406 Z M 63.34375 35.191406 C 63.332031 35.195312 63.324219 35.203125 63.3125 35.207031 L 63.550781 35.550781 Z M 64.492188 35.113281 L 64.347656 35.476562 L 64.519531 35.128906 C 64.511719 35.121094 64.5 35.117188 64.492188 35.113281 Z M 63.5 35.113281 C 63.488281 35.117188 63.480469 35.121094 63.46875 35.128906 L 63.648438 35.488281 Z M 64.324219 35.058594 L 64.226562 35.457031 L 64.359375 35.066406 C 64.347656 35.0625 64.335938 35.0625 64.324219 35.058594 Z M 63.667969 35.058594 C 63.65625 35.0625 63.644531 35.0625 63.632812 35.066406 L 63.761719 35.457031 Z M 64.152344 35.023438 L 64.113281 35.433594 L 64.1875 35.027344 C 64.175781 35.027344 64.164062 35.027344 64.152344 35.023438 Z M 63.839844 35.023438 C 63.828125 35.027344 63.816406 35.027344 63.804688 35.027344 L 63.878906 35.433594 Z M 63.976562 35.011719 L 63.996094 35.4375 L 64.011719 35.011719 C 64.007812 35.011719 64 35.011719 63.996094 35.011719 C 63.988281 35.011719 63.984375 35.011719 63.976562 35.011719 Z M 63.976562 35.011719 "/>
<path style=" stroke:none;fill-rule:evenodd;fill:rgb(99.998474%,0%,0%);fill-opacity:1;" d="M 63.996094 33.972656 C 62.613281 33.972656 61.34375 34.464844 60.355469 35.285156 L 58.386719 38.699219 C 58.332031 39.011719 58.304688 39.335938 58.304688 39.664062 C 58.304688 40.050781 58.34375 40.429688 58.417969 40.792969 L 59.214844 40.792969 C 59.132812 40.429688 59.085938 40.050781 59.085938 39.664062 C 59.085938 36.972656 61.25 34.785156 63.933594 34.75 C 63.953125 34.75 63.972656 34.75 63.996094 34.75 C 66.707031 34.75 68.90625 36.949219 68.90625 39.664062 C 68.90625 40.050781 68.859375 40.429688 68.773438 40.792969 L 69.574219 40.792969 C 69.648438 40.429688 69.6875 40.050781 69.6875 39.664062 C 69.6875 39.335938 69.65625 39.015625 69.605469 38.703125 L 67.636719 35.289062 C 66.648438 34.46875 65.378906 33.972656 63.996094 33.972656 Z M 63.996094 33.972656 "/>
<path style=" stroke:none;fill-rule:evenodd;fill:rgb(99.998474%,39.99939%,0%);fill-opacity:1;" d="M 63.996094 34.082031 C 62.519531 34.082031 61.175781 34.65625 60.179688 35.59375 L 58.5625 38.398438 C 58.46875 38.804688 58.417969 39.226562 58.417969 39.664062 C 58.417969 40.050781 58.457031 40.429688 58.53125 40.792969 L 59.214844 40.792969 C 59.132812 40.429688 59.085938 40.050781 59.085938 39.664062 C 59.085938 36.972656 61.25 34.785156 63.933594 34.75 C 63.953125 34.75 63.972656 34.75 63.996094 34.75 C 66.707031 34.75 68.90625 36.949219 68.90625 39.664062 C 68.90625 40.050781 68.859375 40.429688 68.773438 40.792969 L 69.457031 40.792969 C 69.53125 40.429688 69.574219 40.050781 69.574219 39.664062 C 69.574219 39.226562 69.523438 38.800781 69.429688 38.394531 L 67.8125 35.597656 C 66.816406 34.660156 65.472656 34.082031 63.996094 34.082031 Z M 63.996094 34.082031 "/>
<path style=" stroke:none;fill-rule:evenodd;fill:rgb(99.998474%,99.998474%,0%);fill-opacity:1;" d="M 63.925781 34.195312 C 62.355469 34.214844 60.945312 34.894531 59.960938 35.972656 L 58.777344 38.019531 C 58.617188 38.539062 58.527344 39.089844 58.527344 39.664062 C 58.527344 40.050781 58.570312 40.429688 58.644531 40.792969 L 59.214844 40.792969 C 59.132812 40.429688 59.085938 40.050781 59.085938 39.664062 C 59.085938 36.972656 61.25 34.785156 63.933594 34.75 C 63.953125 34.75 63.972656 34.75 63.996094 34.75 C 66.707031 34.75 68.90625 36.949219 68.90625 39.664062 C 68.90625 40.050781 68.859375 40.429688 68.773438 40.792969 L 69.34375 40.792969 C 69.421875 40.429688 69.464844 40.050781 69.464844 39.664062 C 69.464844 39.089844 69.375 38.539062 69.210938 38.019531 L 68.03125 35.972656 C 67.03125 34.878906 65.59375 34.195312 63.996094 34.195312 C 63.972656 34.195312 63.949219 34.195312 63.925781 34.195312 Z M 63.925781 34.195312 "/>
<path style=" stroke:none;fill-rule:evenodd;fill:rgb(0%,99.998474%,0%);fill-opacity:1;" d="M 63.925781 34.304688 C 62.121094 34.328125 60.53125 35.246094 59.578125 36.632812 L 59.160156 37.355469 C 58.828125 38.054688 58.640625 38.835938 58.640625 39.664062 C 58.640625 40.050781 58.683594 40.429688 58.761719 40.792969 L 59.214844 40.792969 C 59.132812 40.429688 59.085938 40.050781 59.085938 39.664062 C 59.085938 36.972656 61.25 34.785156 63.933594 34.75 C 63.953125 34.75 63.972656 34.75 63.996094 34.75 C 66.707031 34.75 68.90625 36.949219 68.90625 39.664062 C 68.90625 40.050781 68.859375 40.429688 68.773438 40.792969 L 69.230469 40.792969 C 69.308594 40.429688 69.351562 40.050781 69.351562 39.664062 C 69.351562 38.835938 69.164062 38.050781 68.828125 37.347656 L 68.417969 36.640625 C 67.453125 35.230469 65.832031 34.304688 63.996094 34.304688 C 63.972656 34.304688 63.949219 34.304688 63.925781 34.304688 Z M 63.925781 34.304688 "/>
<path style=" stroke:none;fill-rule:evenodd;fill:rgb(0%,79.998779%,99.998474%);fill-opacity:1;" d="M 63.925781 34.417969 C 61.0625 34.453125 58.75 36.789062 58.75 39.664062 C 58.75 40.050781 58.792969 40.429688 58.871094 40.792969 L 59.214844 40.792969 C 59.132812 40.429688 59.085938 40.050781 59.085938 39.664062 C 59.085938 36.972656 61.25 34.785156 63.933594 34.75 C 63.953125 34.75 63.972656 34.75 63.996094 34.75 C 66.707031 34.75 68.90625 36.949219 68.90625 39.664062 C 68.90625 40.050781 68.859375 40.429688 68.773438 40.792969 L 69.117188 40.792969 C 69.199219 40.429688 69.242188 40.050781 69.242188 39.664062 C 69.242188 36.765625 66.890625 34.417969 63.996094 34.417969 C 63.972656 34.417969 63.949219 34.417969 63.925781 34.417969 Z M 63.925781 34.417969 "/>
<path style=" stroke:none;fill-rule:evenodd;fill:rgb(0%,0%,99.998474%);fill-opacity:1;" d="M 63.929688 34.527344 C 61.125 34.5625 58.863281 36.847656 58.863281 39.664062 C 58.863281 40.050781 58.90625 40.429688 58.988281 40.792969 L 59.214844 40.792969 C 59.132812 40.429688 59.085938 40.050781 59.085938 39.664062 C 59.085938 36.972656 61.25 34.785156 63.933594 34.75 C 63.953125 34.75 63.972656 34.75 63.996094 34.75 C 66.707031 34.75 68.90625 36.949219 68.90625 39.664062 C 68.90625 40.050781 68.859375 40.429688 68.773438 40.792969 L 69.003906 40.792969 C 69.085938 40.429688 69.128906 40.050781 69.128906 39.664062 C 69.128906 36.828125 66.832031 34.527344 63.996094 34.527344 C 63.972656 34.527344 63.953125 34.527344 63.929688 34.527344 Z M 63.929688 34.527344 "/>
<path style=" stroke:none;fill-rule:evenodd;fill:rgb(50.19989%,0%,50.19989%);fill-opacity:1;" d="M 63.929688 34.640625 C 61.1875 34.675781 58.972656 36.910156 58.972656 39.664062 C 58.972656 40.050781 59.015625 40.429688 59.101562 40.792969 L 59.214844 40.792969 C 59.132812 40.429688 59.085938 40.050781 59.085938 39.664062 C 59.085938 36.972656 61.25 34.785156 63.933594 34.75 C 63.953125 34.75 63.972656 34.75 63.996094 34.75 C 66.707031 34.75 68.90625 36.949219 68.90625 39.664062 C 68.90625 40.050781 68.859375 40.429688 68.773438 40.792969 L 68.890625 40.792969 C 68.972656 40.429688 69.019531 40.050781 69.019531 39.664062 C 69.019531 36.890625 66.769531 34.640625 63.996094 34.640625 C 63.972656 34.640625 63.953125 34.640625 63.929688 34.640625 Z M 63.929688 34.640625 "/>
<path style=" stroke:none;fill-rule:evenodd;fill:rgb(99.998474%,99.998474%,99.998474%);fill-opacity:1;" d="M 57.992188 39.378906 L 56.71875 41.585938 L 71.273438 41.585938 L 70 39.378906 Z M 57.992188 39.378906 "/>
<path style=" stroke:none;fill-rule:evenodd;fill:rgb(59.199524%,78.799438%,14.099121%);fill-opacity:1;" d="M 67.917969 38.074219 C 67.816406 38.074219 67.753906 38.097656 67.71875 38.121094 C 67.683594 38.140625 67.679688 38.15625 67.679688 38.15625 C 67.679688 38.160156 67.675781 38.160156 67.675781 38.160156 C 67.496094 38.839844 67.117188 39.527344 66.609375 40.042969 C 66.09375 40.5625 65.449219 40.917969 64.738281 40.917969 L 63.757812 40.917969 L 63.757812 42.1875 L 71.546875 42.1875 L 70.820312 40.898438 C 70.21875 40.820312 69.671875 40.496094 69.226562 40.042969 C 68.714844 39.527344 68.339844 38.839844 68.160156 38.160156 C 68.160156 38.160156 68.15625 38.15625 68.15625 38.15625 C 68.15625 38.15625 68.148438 38.144531 68.113281 38.125 C 68.078125 38.101562 68.015625 38.074219 67.917969 38.074219 Z M 67.917969 38.074219 "/>
<path style=" stroke:none;fill-rule:evenodd;fill:rgb(86.698914%,87.498474%,21.600342%);fill-opacity:1;" d="M 67.917969 38.074219 C 67.933594 38.074219 67.953125 38.078125 67.96875 38.078125 C 67.972656 38.464844 67.96875 39.117188 67.96875 39.460938 C 67.964844 39.761719 67.863281 40.003906 67.710938 40.285156 C 67.640625 40.484375 67.585938 40.410156 67.410156 40.652344 C 67.175781 40.734375 67 40.769531 66.753906 40.808594 C 66.429688 40.859375 65.710938 40.90625 65.359375 40.824219 C 65.824219 40.6875 66.25 40.40625 66.609375 40.042969 C 66.703125 39.945312 66.796875 39.84375 66.882812 39.734375 C 67.023438 39.554688 67.152344 39.363281 67.265625 39.160156 C 67.3125 39.082031 67.355469 39 67.394531 38.917969 C 67.453125 38.796875 67.507812 38.667969 67.554688 38.542969 C 67.570312 38.5 67.585938 38.457031 67.601562 38.414062 C 67.628906 38.332031 67.652344 38.246094 67.675781 38.160156 C 67.675781 38.160156 67.679688 38.160156 67.679688 38.15625 C 67.679688 38.15625 67.683594 38.140625 67.71875 38.121094 C 67.738281 38.109375 67.761719 38.097656 67.792969 38.089844 C 67.792969 38.089844 67.792969 38.089844 67.796875 38.089844 C 67.828125 38.082031 67.867188 38.074219 67.917969 38.074219 Z M 67.917969 38.074219 "/>
<path style=" stroke:none;fill-rule:evenodd;fill:rgb(77.598572%,79.598999%,14.099121%);fill-opacity:1;" d="M 67.828125 38.257812 C 67.773438 39.03125 67.535156 39.949219 66.976562 40.539062 C 66.769531 40.710938 66.507812 40.867188 66.253906 40.828125 C 67.121094 40.121094 67.648438 39.042969 67.828125 38.257812 Z M 67.828125 38.257812 "/>
<path style=" stroke:none;fill-rule:evenodd;fill:rgb(61.999512%,79.598999%,20.399475%);fill-opacity:1;" d="M 67.128906 39.589844 C 67.003906 39.9375 66.519531 40.453125 66 40.875 C 65.851562 40.878906 65.773438 40.886719 65.640625 40.878906 C 65.957031 40.851562 66.691406 40.226562 67.128906 39.589844 Z M 67.128906 39.589844 "/>
<path style=" stroke:none;fill-rule:evenodd;fill:rgb(59.199524%,78.799438%,14.099121%);fill-opacity:1;" d="M 65.953125 38.074219 C 66.054688 38.074219 66.117188 38.101562 66.152344 38.125 C 66.1875 38.144531 66.195312 38.15625 66.195312 38.15625 C 66.195312 38.15625 66.195312 38.160156 66.195312 38.160156 C 66.375 38.839844 66.753906 39.527344 67.265625 40.042969 C 67.777344 40.5625 68.425781 40.917969 69.136719 40.917969 C 69.480469 40.917969 70.113281 40.917969 70.113281 40.917969 L 70.113281 42.1875 L 61.796875 42.1875 L 61.796875 40.917969 C 61.796875 40.917969 62.433594 40.917969 62.777344 40.917969 C 63.488281 40.917969 64.132812 40.5625 64.648438 40.042969 C 65.15625 39.527344 65.535156 38.839844 65.714844 38.160156 C 65.714844 38.160156 65.714844 38.160156 65.714844 38.15625 C 65.71875 38.15625 65.722656 38.140625 65.757812 38.121094 C 65.792969 38.097656 65.855469 38.074219 65.953125 38.074219 Z M 65.953125 38.074219 "/>
<path style=" stroke:none;fill-rule:evenodd;fill:rgb(89.398193%,90.19928%,18.800354%);fill-opacity:1;" d="M 65.953125 38.074219 C 65.972656 38.074219 65.988281 38.078125 66.003906 38.078125 C 66.007812 38.464844 66.003906 39.117188 66.003906 39.460938 C 66 39.761719 65.898438 40.003906 65.75 40.285156 C 65.679688 40.484375 65.621094 40.410156 65.449219 40.652344 C 65.210938 40.734375 65.039062 40.769531 64.789062 40.808594 C 64.46875 40.859375 63.75 40.90625 63.394531 40.824219 C 63.863281 40.6875 64.285156 40.40625 64.648438 40.042969 C 64.742188 39.945312 64.832031 39.84375 64.917969 39.734375 C 65.0625 39.554688 65.191406 39.363281 65.304688 39.160156 C 65.351562 39.082031 65.390625 39 65.433594 38.917969 C 65.492188 38.796875 65.546875 38.667969 65.59375 38.542969 C 65.609375 38.5 65.625 38.457031 65.636719 38.414062 C 65.667969 38.332031 65.691406 38.246094 65.714844 38.160156 C 65.714844 38.160156 65.714844 38.160156 65.714844 38.15625 C 65.714844 38.15625 65.722656 38.140625 65.757812 38.121094 C 65.773438 38.109375 65.800781 38.097656 65.832031 38.089844 C 65.863281 38.082031 65.902344 38.074219 65.953125 38.074219 Z M 65.953125 38.074219 "/>
<path style=" stroke:none;fill-rule:evenodd;fill:rgb(77.598572%,79.598999%,14.099121%);fill-opacity:1;" d="M 65.863281 38.257812 C 65.8125 39.03125 65.574219 39.949219 65.015625 40.539062 C 64.808594 40.710938 64.546875 40.867188 64.292969 40.828125 C 65.160156 40.121094 65.683594 39.042969 65.863281 38.257812 Z M 65.863281 38.257812 "/>
<path style=" stroke:none;fill-rule:evenodd;fill:rgb(61.999512%,79.598999%,20.399475%);fill-opacity:1;" d="M 65.167969 39.589844 C 65.039062 39.9375 64.554688 40.453125 64.035156 40.875 C 63.890625 40.878906 63.8125 40.886719 63.679688 40.878906 C 63.992188 40.851562 64.730469 40.226562 65.167969 39.589844 Z M 65.167969 39.589844 "/>
<path style=" stroke:none;fill-rule:evenodd;fill:rgb(59.199524%,78.799438%,14.099121%);fill-opacity:1;" d="M 63.992188 38.074219 C 64.09375 38.074219 64.152344 38.101562 64.1875 38.125 C 64.222656 38.144531 64.230469 38.15625 64.234375 38.15625 C 64.234375 38.15625 64.234375 38.160156 64.234375 38.160156 C 64.414062 38.839844 64.792969 39.527344 65.300781 40.042969 C 65.816406 40.5625 66.464844 40.917969 67.171875 40.917969 C 67.515625 40.917969 68.152344 40.917969 68.152344 40.917969 L 68.152344 42.1875 L 59.832031 42.1875 L 59.832031 40.917969 C 59.832031 40.917969 60.472656 40.917969 60.816406 40.917969 C 61.523438 40.917969 62.171875 40.5625 62.683594 40.042969 C 63.195312 39.527344 63.574219 38.839844 63.753906 38.160156 C 63.753906 38.160156 63.753906 38.160156 63.753906 38.15625 C 63.753906 38.15625 63.761719 38.140625 63.796875 38.121094 C 63.832031 38.097656 63.890625 38.074219 63.992188 38.074219 Z M 63.992188 38.074219 "/>
<path style=" stroke:none;fill-rule:evenodd;fill:rgb(91.798401%,92.89856%,16.099548%);fill-opacity:1;" d="M 63.992188 38.074219 C 64.011719 38.074219 64.027344 38.078125 64.042969 38.078125 C 64.046875 38.464844 64.042969 39.117188 64.042969 39.460938 C 64.039062 39.761719 63.9375 40.003906 63.785156 40.285156 C 63.714844 40.484375 63.660156 40.410156 63.484375 40.652344 C 63.25 40.734375 63.078125 40.769531 62.828125 40.808594 C 62.503906 40.859375 61.789062 40.90625 61.433594 40.824219 C 61.898438 40.6875 62.324219 40.40625 62.683594 40.042969 C 62.78125 39.945312 62.871094 39.84375 62.957031 39.734375 C 63.101562 39.554688 63.230469 39.363281 63.34375 39.160156 C 63.386719 39.082031 63.429688 39 63.46875 38.917969 C 63.53125 38.796875 63.582031 38.667969 63.628906 38.542969 C 63.644531 38.5 63.660156 38.457031 63.675781 38.414062 C 63.703125 38.332031 63.730469 38.246094 63.75 38.160156 C 63.75 38.160156 63.753906 38.160156 63.753906 38.15625 C 63.753906 38.15625 63.761719 38.140625 63.792969 38.121094 C 63.8125 38.109375 63.835938 38.097656 63.867188 38.089844 C 63.867188 38.089844 63.871094 38.089844 63.871094 38.089844 C 63.902344 38.082031 63.941406 38.074219 63.992188 38.074219 Z M 63.992188 38.074219 "/>
<path style=" stroke:none;fill-rule:evenodd;fill:rgb(77.598572%,79.598999%,14.099121%);fill-opacity:1;" d="M 63.902344 38.257812 C 63.851562 39.03125 63.609375 39.949219 63.050781 40.539062 C 62.847656 40.710938 62.582031 40.867188 62.328125 40.828125 C 63.195312 40.121094 63.722656 39.042969 63.902344 38.257812 Z M 63.902344 38.257812 "/>
<path style=" stroke:none;fill-rule:evenodd;fill:rgb(61.999512%,79.598999%,20.399475%);fill-opacity:1;" d="M 63.207031 39.589844 C 63.078125 39.9375 62.59375 40.453125 62.074219 40.875 C 61.925781 40.878906 61.847656 40.886719 61.714844 40.878906 C 62.03125 40.851562 62.769531 40.226562 63.207031 39.589844 Z M 63.207031 39.589844 "/>
<path style=" stroke:none;fill-rule:evenodd;fill:rgb(59.199524%,78.799438%,14.099121%);fill-opacity:1;" d="M 62.03125 38.074219 C 61.929688 38.074219 61.871094 38.101562 61.832031 38.125 C 61.796875 38.144531 61.789062 38.15625 61.789062 38.15625 C 61.789062 38.15625 61.789062 38.160156 61.789062 38.160156 C 61.609375 38.839844 61.230469 39.527344 60.722656 40.042969 C 60.207031 40.5625 59.558594 40.917969 58.847656 40.917969 L 57.871094 40.917969 L 57.871094 42.1875 L 66.1875 42.1875 L 66.214844 40.917969 C 66.214844 40.917969 65.574219 40.917969 65.230469 40.917969 C 64.523438 40.917969 63.851562 40.5625 63.335938 40.042969 C 62.828125 39.527344 62.449219 38.839844 62.269531 38.160156 C 62.269531 38.160156 62.269531 38.160156 62.269531 38.15625 C 62.265625 38.15625 62.261719 38.140625 62.226562 38.121094 C 62.191406 38.097656 62.128906 38.074219 62.03125 38.074219 Z M 62.03125 38.074219 "/>
<path style=" stroke:none;fill-rule:evenodd;fill:rgb(57.598877%,73.698425%,18.800354%);fill-opacity:1;" d="M 61.875 38.257812 C 61.796875 39.417969 61.152344 40.878906 60.425781 41.128906 C 60.1875 41.210938 59.773438 41.238281 59.628906 41.257812 C 60.902344 40.652344 61.652344 39.230469 61.875 38.257812 Z M 61.875 38.257812 "/>
<path style=" stroke:none;fill-rule:evenodd;fill:rgb(59.199524%,78.799438%,14.099121%);fill-opacity:1;" d="M 60.066406 38.074219 C 59.96875 38.074219 59.90625 38.101562 59.871094 38.125 C 59.835938 38.144531 59.828125 38.15625 59.828125 38.15625 C 59.828125 38.15625 59.824219 38.160156 59.824219 38.160156 C 59.648438 38.839844 59.269531 39.527344 58.757812 40.042969 C 58.316406 40.492188 57.769531 40.816406 57.171875 40.898438 L 56.445312 42.1875 L 64.226562 42.1875 L 64.226562 40.917969 L 63.246094 40.917969 C 62.535156 40.917969 61.890625 40.5625 61.375 40.042969 C 60.867188 39.527344 60.488281 38.839844 60.308594 38.160156 C 60.308594 38.160156 60.304688 38.160156 60.304688 38.15625 C 60.304688 38.15625 60.300781 38.140625 60.265625 38.121094 C 60.230469 38.097656 60.167969 38.074219 60.066406 38.074219 Z M 60.066406 38.074219 "/>
<path style=" stroke:none;fill-rule:evenodd;fill:rgb(57.598877%,73.698425%,18.800354%);fill-opacity:1;" d="M 59.914062 38.257812 C 59.835938 39.417969 59.191406 40.878906 58.464844 41.128906 C 58.226562 41.210938 57.8125 41.238281 57.667969 41.257812 C 58.941406 40.652344 59.691406 39.230469 59.914062 38.257812 Z M 59.914062 38.257812 "/>
<path style=" stroke:none;fill-rule:evenodd;fill:rgb(86.698914%,87.498474%,21.600342%);fill-opacity:1;" d="M 60.066406 38.074219 C 60.050781 38.074219 60.03125 38.078125 60.015625 38.078125 C 60.011719 38.464844 60.015625 39.117188 60.015625 39.460938 C 60.019531 39.761719 60.121094 40.003906 60.273438 40.285156 C 60.28125 40.3125 60.292969 40.332031 60.300781 40.351562 C 60.351562 40.488281 60.390625 40.535156 60.59375 40.6875 C 61.230469 41.175781 62.023438 41.246094 62.488281 41.207031 C 62.339844 41.089844 62.183594 40.988281 62.046875 40.890625 C 62.265625 40.882812 62.476562 40.859375 62.625 40.824219 C 62.160156 40.6875 61.734375 40.40625 61.375 40.042969 C 61.3125 39.980469 61.253906 39.910156 61.195312 39.84375 C 61.167969 39.804688 61.132812 39.753906 61.121094 39.738281 C 60.976562 39.558594 60.832031 39.363281 60.71875 39.160156 C 60.671875 39.082031 60.628906 39 60.589844 38.917969 C 60.53125 38.796875 60.476562 38.667969 60.429688 38.542969 C 60.414062 38.5 60.398438 38.457031 60.382812 38.414062 C 60.355469 38.332031 60.332031 38.246094 60.308594 38.160156 C 60.308594 38.160156 60.304688 38.160156 60.304688 38.15625 C 60.304688 38.15625 60.300781 38.140625 60.265625 38.121094 C 60.246094 38.109375 60.222656 38.097656 60.191406 38.089844 C 60.191406 38.089844 60.191406 38.089844 60.1875 38.089844 C 60.15625 38.082031 60.117188 38.074219 60.066406 38.074219 Z M 60.066406 38.074219 "/>
<path style=" stroke:none;fill-rule:evenodd;fill:rgb(77.598572%,79.598999%,14.099121%);fill-opacity:1;" d="M 60.15625 38.257812 C 60.210938 39.03125 60.449219 39.949219 61.007812 40.539062 C 61.214844 40.710938 61.476562 40.867188 61.730469 40.828125 C 60.863281 40.121094 60.335938 39.042969 60.15625 38.257812 Z M 60.15625 38.257812 "/>
<path style=" stroke:none;fill-rule:evenodd;fill:rgb(61.999512%,79.598999%,20.399475%);fill-opacity:1;" d="M 60.691406 39.328125 C 60.996094 40.074219 61.761719 40.773438 62.554688 41.242188 C 62.699219 41.246094 62.742188 41.242188 62.878906 41.234375 C 62.3125 40.929688 61.402344 40.496094 60.691406 39.328125 Z M 60.691406 39.328125 "/>
<path style=" stroke:none;fill-rule:evenodd;fill:rgb(57.598877%,73.698425%,18.800354%);fill-opacity:1;" d="M 64.144531 38.257812 C 64.226562 39.417969 64.980469 40.878906 65.707031 41.128906 C 65.945312 41.210938 66.476562 41.238281 66.621094 41.257812 C 65.347656 40.652344 64.367188 39.230469 64.144531 38.257812 Z M 64.144531 38.257812 "/>
<path style=" stroke:none;fill-rule:evenodd;fill:rgb(57.598877%,73.698425%,18.800354%);fill-opacity:1;" d="M 66.109375 38.257812 C 66.1875 39.417969 66.941406 40.878906 67.671875 41.128906 C 67.90625 41.210938 68.4375 41.238281 68.582031 41.257812 C 67.308594 40.652344 66.332031 39.230469 66.109375 38.257812 Z M 66.109375 38.257812 "/>
<path style=" stroke:none;fill-rule:evenodd;fill:rgb(57.598877%,73.698425%,18.800354%);fill-opacity:1;" d="M 68.070312 38.257812 C 68.148438 39.417969 68.90625 40.878906 69.632812 41.128906 C 69.871094 41.210938 70.402344 41.238281 70.546875 41.257812 C 69.273438 40.652344 68.292969 39.230469 68.070312 38.257812 Z M 68.070312 38.257812 "/>
<path style=" stroke:none;fill-rule:evenodd;fill:rgb(99.998474%,99.998474%,99.998474%);fill-opacity:1;" d="M 57.792969 41.597656 C 57.421875 41.597656 56.996094 41.675781 56.648438 41.707031 L 55.84375 43.097656 L 72.144531 43.097656 L 71.339844 41.703125 C 71.007812 41.667969 70.59375 41.597656 70.238281 41.597656 C 70.207031 41.597656 70.171875 41.597656 70.140625 41.601562 C 70.117188 41.601562 70.09375 41.597656 70.070312 41.597656 C 70.054688 41.597656 70.039062 41.597656 70.027344 41.597656 C 70.011719 41.597656 69.996094 41.597656 69.980469 41.597656 C 69.957031 41.597656 69.9375 41.601562 69.914062 41.601562 C 69.878906 41.597656 69.847656 41.597656 69.8125 41.597656 C 69.351562 41.597656 68.960938 41.71875 68.523438 41.71875 C 68.085938 41.71875 67.695312 41.597656 67.234375 41.597656 C 67.199219 41.597656 67.167969 41.597656 67.136719 41.601562 C 67.113281 41.601562 67.089844 41.597656 67.066406 41.597656 C 67.050781 41.597656 67.039062 41.597656 67.023438 41.597656 C 67.007812 41.597656 66.992188 41.597656 66.976562 41.597656 C 66.953125 41.597656 66.929688 41.601562 66.90625 41.601562 C 66.875 41.597656 66.84375 41.597656 66.808594 41.597656 C 66.347656 41.597656 65.957031 41.71875 65.519531 41.71875 C 65.078125 41.71875 64.691406 41.597656 64.230469 41.597656 C 64.195312 41.597656 64.160156 41.597656 64.128906 41.601562 C 64.105469 41.601562 64.082031 41.597656 64.058594 41.597656 C 64.042969 41.597656 64.03125 41.597656 64.015625 41.597656 C 64 41.597656 63.984375 41.597656 63.96875 41.597656 C 63.945312 41.597656 63.925781 41.601562 63.902344 41.601562 C 63.867188 41.597656 63.835938 41.597656 63.800781 41.597656 C 63.339844 41.597656 62.953125 41.71875 62.511719 41.71875 C 62.074219 41.71875 61.6875 41.597656 61.226562 41.597656 C 61.191406 41.597656 61.160156 41.597656 61.125 41.601562 C 61.105469 41.601562 61.078125 41.597656 61.054688 41.597656 C 61.039062 41.597656 61.027344 41.597656 61.011719 41.597656 C 60.996094 41.597656 60.980469 41.597656 60.964844 41.597656 C 60.941406 41.597656 60.921875 41.601562 60.898438 41.601562 C 60.867188 41.597656 60.832031 41.597656 60.800781 41.597656 C 60.339844 41.597656 59.949219 41.71875 59.511719 41.71875 C 59.070312 41.71875 58.679688 41.597656 58.21875 41.597656 C 58.1875 41.597656 58.152344 41.597656 58.121094 41.601562 C 58.097656 41.601562 58.078125 41.597656 58.054688 41.597656 C 58.039062 41.597656 58.023438 41.597656 58.007812 41.597656 C 57.992188 41.597656 57.976562 41.597656 57.960938 41.597656 C 57.9375 41.597656 57.914062 41.601562 57.890625 41.601562 C 57.859375 41.597656 57.828125 41.597656 57.792969 41.597656 Z M 57.792969 41.597656 "/>
<path style=" stroke:none;fill-rule:evenodd;fill:rgb(89.398193%,90.19928%,18.800354%);fill-opacity:1;" d="M 62.042969 38.074219 C 62.023438 38.074219 62.007812 38.078125 61.992188 38.078125 C 61.988281 38.464844 61.992188 39.117188 61.992188 39.460938 C 61.996094 39.761719 62.097656 40.003906 62.25 40.285156 C 62.257812 40.3125 62.265625 40.332031 62.273438 40.351562 C 62.328125 40.488281 62.367188 40.535156 62.566406 40.6875 C 63.203125 41.175781 63.996094 41.246094 64.460938 41.207031 C 64.316406 41.089844 64.160156 40.988281 64.023438 40.890625 C 64.242188 40.882812 64.453125 40.859375 64.601562 40.824219 C 64.132812 40.6875 63.710938 40.40625 63.351562 40.042969 C 63.289062 39.980469 63.230469 39.910156 63.171875 39.84375 C 63.144531 39.804688 63.105469 39.753906 63.09375 39.738281 C 62.953125 39.558594 62.804688 39.363281 62.691406 39.160156 C 62.648438 39.082031 62.605469 39 62.5625 38.917969 C 62.503906 38.796875 62.453125 38.667969 62.402344 38.542969 C 62.386719 38.5 62.371094 38.457031 62.359375 38.414062 C 62.332031 38.332031 62.304688 38.246094 62.28125 38.160156 C 62.28125 38.160156 62.28125 38.160156 62.28125 38.15625 C 62.28125 38.15625 62.273438 38.140625 62.238281 38.121094 C 62.222656 38.109375 62.195312 38.097656 62.167969 38.089844 C 62.164062 38.089844 62.164062 38.089844 62.164062 38.089844 C 62.132812 38.082031 62.09375 38.074219 62.042969 38.074219 Z M 62.042969 38.074219 "/>
<path style=" stroke:none;fill-rule:evenodd;fill:rgb(79.998779%,81.999207%,11.799622%);fill-opacity:1;" d="M 62.132812 38.257812 C 62.183594 39.03125 62.425781 39.949219 62.984375 40.539062 C 63.1875 40.710938 63.453125 40.867188 63.707031 40.828125 C 62.839844 40.121094 62.3125 39.042969 62.132812 38.257812 Z M 62.132812 38.257812 "/>
<path style=" stroke:none;fill-rule:evenodd;fill:rgb(61.999512%,79.598999%,20.399475%);fill-opacity:1;" d="M 62.664062 39.328125 C 62.96875 40.074219 63.738281 40.773438 64.527344 41.242188 C 64.675781 41.246094 64.71875 41.242188 64.851562 41.234375 C 64.285156 40.929688 63.375 40.496094 62.664062 39.328125 Z M 62.664062 39.328125 "/>
<path style=" stroke:none;fill-rule:evenodd;fill:rgb(99.998474%,0%,0%);fill-opacity:1;" d="M 63.628906 36.054688 C 63.554688 36.058594 63.433594 36.183594 63.378906 36.117188 C 63.351562 36.078125 63.34375 36 63.375 35.9375 C 63.449219 35.789062 63.519531 35.71875 63.652344 35.636719 C 63.957031 35.457031 64.152344 35.515625 64.304688 35.773438 C 64.445312 36 64.578125 36.25 64.589844 36.460938 C 64.59375 36.527344 64.625 36.640625 64.570312 36.699219 C 64.398438 36.878906 63.980469 36.515625 63.738281 36.574219 C 63.65625 36.59375 63.5625 36.652344 63.484375 36.601562 C 63.425781 36.5625 63.476562 36.472656 63.519531 36.4375 C 63.597656 36.371094 63.710938 36.273438 63.695312 36.171875 C 63.6875 36.113281 63.6875 36.054688 63.628906 36.054688 Z M 63.628906 36.054688 "/>
<path style=" stroke:none;fill-rule:evenodd;fill:rgb(66.699219%,0%,0%);fill-opacity:1;" d="M 63.597656 35.929688 C 63.460938 35.988281 63.476562 36.066406 63.40625 36.132812 C 63.425781 36.140625 63.503906 36.171875 63.578125 36.09375 C 63.613281 36.066406 63.648438 36.058594 63.667969 36.046875 C 63.628906 36.078125 63.601562 36.121094 63.578125 36.136719 C 63.476562 36.21875 63.328125 36.628906 63.390625 36.855469 C 63.449219 37.085938 63.925781 37.070312 64.132812 37.0625 C 64.339844 37.054688 64.75 36.933594 64.539062 36.8125 C 64.363281 36.753906 64.027344 36.78125 63.867188 36.8125 C 63.8125 36.289062 63.859375 36.472656 63.847656 36.246094 C 63.832031 36.023438 63.765625 36.007812 63.855469 35.828125 C 63.78125 35.9375 63.691406 35.921875 63.597656 35.929688 Z M 63.597656 35.929688 "/>
<path style=" stroke:none;fill-rule:evenodd;fill:rgb(99.998474%,16.499329%,16.499329%);fill-opacity:1;" d="M 64.113281 35.578125 C 64.105469 35.605469 64.101562 35.644531 64.105469 35.65625 C 64.117188 35.699219 64.128906 35.742188 64.140625 35.78125 C 64.15625 35.824219 64.160156 35.855469 64.171875 35.902344 C 64.183594 35.945312 64.222656 35.964844 64.261719 35.992188 C 64.308594 36.027344 64.269531 36.125 64.300781 36.128906 C 64.324219 36.132812 64.363281 35.992188 64.363281 35.96875 C 64.363281 35.941406 64.363281 35.914062 64.359375 35.886719 C 64.339844 35.847656 64.324219 35.8125 64.304688 35.777344 C 64.304688 35.773438 64.304688 35.773438 64.300781 35.773438 C 64.296875 35.761719 64.285156 35.746094 64.277344 35.730469 C 64.25 35.691406 64.214844 35.652344 64.175781 35.621094 C 64.175781 35.621094 64.171875 35.617188 64.171875 35.617188 C 64.160156 35.609375 64.148438 35.597656 64.136719 35.59375 C 64.128906 35.585938 64.121094 35.582031 64.113281 35.578125 Z M 64.113281 35.578125 "/>
<path style=" stroke:none;fill-rule:evenodd;fill:rgb(99.998474%,16.499329%,16.499329%);fill-opacity:1;" d="M 63.785156 36.847656 C 63.6875 36.796875 63.535156 36.863281 63.441406 36.914062 C 63.382812 36.949219 63.351562 36.84375 63.355469 36.777344 C 63.359375 36.714844 63.332031 36.636719 63.40625 36.609375 C 63.558594 36.558594 63.730469 36.503906 63.890625 36.515625 C 63.996094 36.523438 64.097656 36.5 64.203125 36.511719 C 64.296875 36.519531 64.390625 36.53125 64.480469 36.570312 C 64.535156 36.59375 64.625 36.605469 64.632812 36.675781 C 64.636719 36.742188 64.632812 36.820312 64.617188 36.878906 C 64.59375 36.957031 64.496094 36.894531 64.449219 36.894531 C 64.367188 36.886719 64.320312 36.984375 64.308594 37.054688 C 64.28125 37.238281 64.238281 37.335938 64.207031 37.484375 C 64.179688 37.601562 64.136719 37.714844 64.035156 37.6875 C 63.957031 37.664062 63.914062 37.484375 63.910156 37.414062 C 63.90625 37.332031 63.960938 37.140625 63.9375 37.066406 C 63.882812 36.847656 63.832031 36.871094 63.785156 36.847656 Z M 63.785156 36.847656 "/>
<path style=" stroke:none;fill-rule:evenodd;fill:rgb(91.398621%,8.200073%,8.200073%);fill-opacity:1;" d="M 63.785156 36.847656 C 63.6875 36.796875 63.535156 36.863281 63.441406 36.914062 C 63.382812 36.949219 63.351562 36.84375 63.355469 36.777344 C 63.359375 36.714844 63.332031 36.636719 63.40625 36.609375 C 63.558594 36.558594 63.730469 36.503906 63.890625 36.515625 C 63.703125 36.488281 63.789062 36.785156 63.785156 36.847656 Z M 63.785156 36.847656 "/>
<path style=" stroke:none;fill-rule:evenodd;fill:rgb(78.398132%,64.299011%,0%);fill-opacity:1;" d="M 63.996094 29.167969 L 68.035156 36.164062 L 71.984375 43.003906 L 63.90625 43 L 56.007812 43.003906 L 60.046875 36.007812 Z M 63.996094 28.785156 L 59.882812 35.910156 L 55.675781 43.195312 L 72.316406 43.195312 L 68.199219 36.066406 Z M 63.996094 28.785156 "/>
</g>
</svg>
