<?xml version="1.0" encoding="UTF-8"?>
<svg xmlns="http://www.w3.org/2000/svg" xmlns:xlink="http://www.w3.org/1999/xlink" width="128pt" height="64pt" viewBox="0 0 128 64" version="1.1">
<g id="surface812">
<path style="fill-rule:nonzero;fill:rgb(0%,14.117432%,49.01886%);fill-opacity:1;stroke-width:1;stroke-linecap:square;stroke-linejoin:miter;stroke:rgb(0%,14.117432%,49.01886%);stroke-opacity:1;stroke-miterlimit:3.239307;" d="M 0 32.265625 L 64 32.265625 L 64 0.265625 L 0 0.265625 Z M 0 32.265625 "/>
<path style=" stroke:none;fill-rule:evenodd;fill:rgb(99.998474%,99.998474%,99.998474%);fill-opacity:1;" d="M 0 0.265625 L 0 3.84375 L 56.84375 32.265625 L 64 32.265625 L 64 28.6875 L 7.15625 0.265625 Z M 64 0.265625 L 64 3.84375 L 7.15625 32.265625 L 0 32.265625 L 0 28.6875 L 56.84375 0.265625 Z M 64 0.265625 "/>
<path style=" stroke:none;fill-rule:evenodd;fill:rgb(81.175232%,7.843018%,16.862488%);fill-opacity:1;" d="M 0 32.265625 L 21.332031 21.601562 L 26.105469 21.601562 L 4.769531 32.265625 Z M 0 0.265625 L 21.332031 10.933594 L 16.5625 10.933594 L 0 2.652344 Z M 37.894531 10.933594 L 59.230469 0.265625 L 64 0.265625 L 42.667969 10.933594 Z M 64 32.265625 L 42.667969 21.601562 L 47.4375 21.601562 L 64 29.882812 Z M 64 32.265625 "/>
<path style="fill-rule:nonzero;fill:rgb(99.998474%,99.998474%,99.998474%);fill-opacity:1;stroke-width:1;stroke-linecap:square;stroke-linejoin:miter;stroke:rgb(99.998474%,99.998474%,99.998474%);stroke-opacity:1;stroke-miterlimit:3.239307;" d="M 26.667969 0.265625 L 26.667969 32.265625 L 37.332031 32.265625 L 37.332031 0.265625 Z M 26.667969 0.265625 "/>
<path style="fill-rule:nonzero;fill:rgb(99.998474%,99.998474%,99.998474%);fill-opacity:1;stroke-width:1;stroke-linecap:square;stroke-linejoin:miter;stroke:rgb(99.998474%,99.998474%,99.998474%);stroke-opacity:1;stroke-miterlimit:3.239307;" d="M 0 10.933594 L 0 21.601562 L 64 21.601562 L 64 10.933594 Z M 0 10.933594 "/>
<path style="fill-rule:nonzero;fill:rgb(81.175232%,7.843018%,16.862488%);fill-opacity:1;stroke-width:1;stroke-linecap:square;stroke-linejoin:miter;stroke:rgb(81.175232%,7.843018%,16.862488%);stroke-opacity:1;stroke-miterlimit:3.239307;" d="M 0 13.066406 L 0 19.464844 L 64 19.464844 L 64 13.066406 Z M 0 13.066406 "/>
<path style="fill-rule:nonzero;fill:rgb(81.175232%,7.843018%,16.862488%);fill-opacity:1;stroke-width:1;stroke-linecap:square;stroke-linejoin:miter;stroke:rgb(81.175232%,7.843018%,16.862488%);stroke-opacity:1;stroke-miterlimit:3.239307;" d="M 28.800781 0.265625 L 28.800781 32.265625 L 35.199219 32.265625 L 35.199219 0.265625 Z M 28.800781 0.265625 "/>
<path style=" stroke:none;fill-rule:evenodd;fill:rgb(98.822021%,81.959534%,8.627319%);fill-opacity:1;" d="M 64 0 L 128 0 L 128 64 L 0 64 L 0 32 L 64 32 Z M 64 0 "/>
<path style=" stroke:none;fill-rule:evenodd;fill:rgb(0%,15.686035%,40.783691%);fill-opacity:1;" d="M 37.445312 16 C 37.445312 19.007812 35.007812 21.445312 32 21.445312 C 28.992188 21.445312 26.554688 19.007812 26.554688 16 C 26.554688 12.992188 28.992188 10.554688 32 10.554688 C 35.007812 10.554688 37.445312 12.992188 37.445312 16 Z M 37.445312 16 "/>
<path style="fill-rule:nonzero;fill:rgb(98.822021%,81.959534%,8.627319%);fill-opacity:1;stroke-width:1;stroke-linecap:square;stroke-linejoin:miter;stroke:rgb(98.822021%,81.959534%,8.627319%);stroke-opacity:1;stroke-miterlimit:3.239307;" d="M 30.835938 6.019531 L 30.117188 8.230469 L 32 6.863281 L 33.882812 8.230469 L 33.164062 6.019531 L 35.042969 4.652344 L 32.71875 4.652344 L 32 2.441406 L 31.28125 4.652344 L 28.957031 4.652344 Z M 30.835938 6.019531 "/>
<path style="fill-rule:nonzero;fill:rgb(98.822021%,81.959534%,8.627319%);fill-opacity:1;stroke-width:1;stroke-linecap:square;stroke-linejoin:miter;stroke:rgb(98.822021%,81.959534%,8.627319%);stroke-opacity:1;stroke-miterlimit:3.239307;" d="M 12.171875 16.6875 L 11.453125 18.898438 L 13.332031 17.53125 L 15.214844 18.898438 L 14.496094 16.6875 L 16.378906 15.320312 L 14.050781 15.320312 L 13.332031 13.109375 L 12.613281 15.320312 L 10.289062 15.320312 Z M 12.171875 16.6875 "/>
<path style="fill-rule:nonzero;fill:rgb(98.822021%,81.959534%,8.627319%);fill-opacity:1;stroke-width:1;stroke-linecap:square;stroke-linejoin:miter;stroke:rgb(98.822021%,81.959534%,8.627319%);stroke-opacity:1;stroke-miterlimit:3.239307;" d="M 30.835938 27.355469 L 30.117188 29.566406 L 32 28.199219 L 33.882812 29.566406 L 33.164062 27.355469 L 35.042969 25.988281 L 32.71875 25.988281 L 32 23.777344 L 31.28125 25.988281 L 28.957031 25.988281 Z M 30.835938 27.355469 "/>
<path style="fill-rule:nonzero;fill:rgb(98.822021%,81.959534%,8.627319%);fill-opacity:1;stroke-width:1;stroke-linecap:square;stroke-linejoin:miter;stroke:rgb(98.822021%,81.959534%,8.627319%);stroke-opacity:1;stroke-miterlimit:3.239307;" d="M 49.503906 16.6875 L 48.785156 18.898438 L 50.667969 17.53125 L 52.546875 18.898438 L 51.828125 16.6875 L 53.710938 15.320312 L 51.386719 15.320312 L 50.667969 13.109375 L 49.949219 15.320312 L 47.621094 15.320312 Z M 49.503906 16.6875 "/>
<path style="fill-rule:nonzero;fill:rgb(98.822021%,81.959534%,8.627319%);fill-opacity:1;stroke-width:1;stroke-linecap:square;stroke-linejoin:miter;stroke:rgb(98.822021%,81.959534%,8.627319%);stroke-opacity:1;stroke-miterlimit:3.239307;" d="M 30.023438 16.644531 L 28.800781 20.402344 L 32 18.078125 L 35.199219 20.402344 L 33.976562 16.644531 L 37.179688 14.316406 L 33.222656 14.316406 L 32 10.554688 L 30.777344 14.316406 L 26.820312 14.316406 Z M 30.023438 16.644531 "/>
</g>
</svg>
