<?xml version="1.0" encoding="UTF-8"?>
<svg xmlns="http://www.w3.org/2000/svg" xmlns:xlink="http://www.w3.org/1999/xlink" width="128pt" height="64pt" viewBox="0 0 128 64" version="1.1">
<g id="surface817">
<rect x="0" y="0" width="128" height="64" style="fill:rgb(0%,47.450256%,20.391846%);fill-opacity:1;stroke:none;"/>
<path style=" stroke:none;fill-rule:evenodd;fill:rgb(99.998474%,99.998474%,99.998474%);fill-opacity:1;" d="M 38.957031 0 L 89.042969 0 L 89.042969 64 L 38.957031 64 Z M 38.957031 0 "/>
<path style=" stroke:none;fill-rule:evenodd;fill:rgb(0%,47.450256%,20.391846%);fill-opacity:1;" d="M 64.460938 4.253906 C 64.351562 5.464844 64.238281 6.675781 64.125 7.886719 C 63.714844 7.949219 63.304688 8.011719 62.894531 8.074219 C 62.894531 8.074219 63.75 8.550781 63.898438 9.035156 C 63.921875 9.113281 63.914062 9.175781 63.878906 9.222656 C 63.867188 9.238281 63.851562 9.253906 63.835938 9.269531 C 63.585938 9.457031 62.855469 9.367188 62.855469 9.367188 C 62.855469 9.367188 63.824219 10.1875 63.898438 10.484375 C 63.902344 10.488281 63.902344 10.496094 63.902344 10.503906 C 63.902344 10.507812 63.90625 10.519531 63.902344 10.523438 C 63.902344 10.527344 63.898438 10.535156 63.894531 10.539062 C 63.890625 10.554688 63.878906 10.570312 63.863281 10.582031 C 63.636719 10.792969 62.558594 10.851562 62.558594 10.851562 C 62.558594 10.851562 63.753906 11.703125 63.828125 12.183594 C 63.894531 12.621094 63.835938 12.878906 63.828125 12.921875 C 63.742188 12.851562 61.820312 11.234375 60.582031 11.707031 C 60.519531 11.738281 60.484375 11.769531 60.46875 11.796875 C 60.460938 11.8125 60.460938 11.832031 60.464844 11.847656 C 60.550781 12.117188 62.304688 12.390625 63.527344 13.449219 C 63.496094 13.710938 60.042969 12.605469 59.914062 13.300781 C 60.023438 13.496094 63.632812 14.015625 63.898438 14.488281 C 62.570312 14.535156 59.824219 14.195312 59.914062 14.632812 C 59.636719 15.136719 62.507812 14.851562 63.714844 15.261719 C 64.066406 15.664062 64.03125 15.996094 63.417969 16.039062 C 62.257812 15.488281 59.65625 15.078125 59.652344 15.78125 C 59.652344 15.78125 59.652344 15.785156 59.652344 15.785156 C 59.652344 15.785156 59.652344 15.789062 59.65625 15.789062 C 59.65625 15.792969 59.65625 15.796875 59.660156 15.796875 C 59.664062 15.800781 59.671875 15.804688 59.679688 15.808594 C 59.972656 15.957031 62.394531 15.886719 63.304688 16.488281 C 62.011719 16.777344 57.632812 15.894531 57.601562 16.324219 C 57.726562 16.527344 58.421875 17.414062 59.613281 17.375 C 60.808594 17.339844 63.566406 17.859375 63.753906 18.226562 C 63.761719 18.238281 63.757812 18.253906 63.757812 18.261719 C 63.675781 18.519531 60.121094 17.472656 58.757812 18.117188 C 57.339844 18.785156 62.820312 18.378906 63.714844 19.195312 C 64.609375 20.007812 61.925781 19.117188 61.925781 19.117188 C 61.925781 19.117188 58.199219 18.601562 57.640625 18.859375 C 57.082031 19.121094 56.445312 19.714844 56.445312 19.714844 C 56.445312 19.714844 56.816406 20.453125 57.191406 20.304688 C 57.246094 20.28125 57.285156 20.277344 57.308594 20.285156 C 57.308594 20.285156 57.3125 20.285156 57.3125 20.285156 C 57.3125 20.285156 57.316406 20.289062 57.316406 20.289062 C 57.316406 20.289062 57.320312 20.292969 57.320312 20.292969 C 57.320312 20.292969 57.324219 20.296875 57.324219 20.296875 C 57.324219 20.296875 57.328125 20.300781 57.328125 20.300781 C 57.328125 20.304688 57.332031 20.3125 57.332031 20.316406 C 57.339844 20.429688 57.078125 20.75 57.078125 20.75 C 57.078125 20.75 62.300781 22.007812 63.453125 23.121094 C 64.609375 24.234375 56.816406 21.378906 56.816406 21.378906 C 56.816406 21.378906 53.6875 22.527344 57.003906 22.601562 C 56.632812 23.140625 57.15625 23.472656 57.191406 23.492188 C 57.191406 23.492188 62.710938 24.640625 63.269531 25.53125 C 63.828125 26.421875 59.503906 24.675781 58.535156 24.195312 C 57.597656 23.730469 54.996094 24.441406 54.847656 24.660156 C 54.847656 24.660156 54.84375 24.664062 54.84375 24.667969 C 54.84375 24.667969 54.84375 24.667969 54.84375 24.671875 C 54.84375 24.671875 54.84375 24.675781 54.84375 24.679688 C 54.84375 24.679688 54.84375 24.683594 54.84375 24.683594 C 54.84375 24.683594 54.84375 24.6875 54.84375 24.6875 C 54.84375 24.6875 54.847656 24.691406 54.847656 24.691406 C 54.847656 24.691406 54.847656 24.695312 54.847656 24.695312 C 54.847656 24.699219 54.851562 24.703125 54.855469 24.707031 C 54.855469 24.707031 54.859375 24.710938 54.859375 24.710938 C 55.027344 24.894531 56.1875 25.144531 56.222656 25.460938 C 56.222656 25.460938 56.222656 25.460938 56.222656 25.464844 C 56.222656 25.480469 56.21875 25.5 56.210938 25.515625 C 56.066406 25.796875 54.679688 25.917969 54.621094 26.183594 C 54.621094 26.1875 54.617188 26.195312 54.617188 26.199219 C 54.617188 26.496094 61.589844 27.941406 63.453125 29.5 C 65.320312 31.054688 57.976562 27.644531 57.976562 27.644531 C 57.976562 27.644531 58.386719 28.199219 57.976562 28.347656 C 57.566406 28.496094 56.109375 26.273438 53.722656 27.644531 C 53.289062 28.207031 55.804688 28.65625 56.445312 28.71875 C 56.226562 29.277344 56.035156 29.460938 56.929688 30.019531 C 57.027344 30.078125 57.085938 30.117188 57.105469 30.136719 C 57.105469 30.136719 57.109375 30.136719 57.109375 30.136719 C 57.109375 30.140625 57.113281 30.144531 57.113281 30.144531 C 57.113281 30.144531 57.113281 30.148438 57.113281 30.148438 C 57.113281 30.148438 57.113281 30.152344 57.113281 30.152344 C 57.113281 30.152344 57.109375 30.152344 57.109375 30.152344 C 57.109375 30.152344 57.105469 30.152344 57.105469 30.152344 C 56.964844 30.128906 55.359375 29.308594 55.191406 29.273438 C 55.191406 29.273438 55.183594 29.273438 55.183594 29.273438 C 55.183594 29.273438 55.179688 29.273438 55.179688 29.273438 C 55.179688 29.347656 55.367188 30.238281 55.367188 30.238281 C 54.539062 29.570312 53.539062 29.371094 52.605469 30.054688 C 52.605469 30.09375 52.597656 30.734375 53.535156 31.128906 C 53.007812 32.203125 54.132812 31.871094 55.921875 32.871094 C 53.265625 32.179688 53.050781 33.464844 54.953125 33.761719 C 56.855469 34.058594 62.074219 34.242188 63.304688 35.835938 C 63.566406 36.171875 63.632812 36.339844 63.585938 36.394531 C 63.378906 36.582031 61.492188 35.222656 61.214844 35.171875 C 61.214844 35.171875 61.214844 35.171875 61.210938 35.171875 C 61.210938 35.171875 61.210938 35.175781 61.207031 35.175781 C 61.207031 35.179688 61.199219 35.191406 61.195312 35.195312 C 61.128906 35.34375 61.066406 35.984375 61.066406 35.984375 C 60.273438 35.527344 59.542969 35.117188 58.589844 34.921875 C 58.515625 35.070312 58.53125 35.28125 58.457031 35.429688 C 57.59375 34.8125 56.839844 34.375 55.585938 34.316406 L 55.4375 34.910156 C 55.4375 34.910156 54.394531 33.613281 52.34375 34.910156 C 51.195312 35.726562 56.667969 35.207031 57.5625 36.171875 C 58.457031 37.132812 57.75 37.28125 57.75 37.28125 C 57.003906 37.007812 56.261719 36.742188 55.515625 36.46875 C 55.515625 36.46875 52.867188 35.984375 52.121094 36.578125 C 51.375 37.171875 63.003906 38.617188 63.339844 40.210938 C 63.566406 41.074219 60.609375 39.304688 58.046875 38.542969 C 57.949219 38.828125 57.847656 39.109375 57.75 39.394531 C 57.6875 39.335938 56.699219 38.375 55.585938 38.210938 C 55.585938 38.210938 55.585938 38.214844 55.582031 38.214844 C 55.582031 38.214844 55.582031 38.222656 55.582031 38.222656 C 55.585938 38.34375 55.808594 39.210938 55.808594 39.210938 C 55.808594 39.210938 52.941406 37.875 51.488281 38.582031 C 50.035156 39.285156 56.558594 39.65625 57.152344 40.324219 C 57.21875 40.394531 57.246094 40.449219 57.242188 40.484375 C 57.242188 40.488281 57.238281 40.5 57.234375 40.503906 C 57.089844 40.714844 55.144531 39.9375 54.953125 40.324219 C 54.730469 40.769531 51.558594 39.507812 51.597656 40.101562 C 51.636719 40.695312 52.046875 41.027344 52.046875 41.027344 C 52.046875 41.027344 58.644531 41.65625 58.871094 42.433594 C 59.09375 43.214844 55.214844 41.992188 55.214844 41.992188 C 55.214844 41.992188 54.839844 42.546875 55.136719 42.804688 C 55.148438 42.816406 55.160156 42.824219 55.164062 42.832031 C 55.164062 42.832031 55.164062 42.832031 55.164062 42.835938 C 55.164062 42.832031 55.160156 42.835938 55.160156 42.835938 C 55.023438 42.789062 52.921875 41.421875 53.128906 42.472656 C 52.304688 42.144531 50.183594 41.136719 50.480469 41.917969 C 50.773438 42.683594 56.3125 43.777344 56.472656 43.808594 C 56.328125 43.820312 53.988281 44.015625 54.09375 44.625 C 50.957031 42.722656 50.964844 43.863281 51.035156 43.953125 C 51.035156 43.953125 51.035156 43.957031 51.035156 43.957031 C 50.859375 43.929688 46.996094 42.972656 50.066406 44.625 C 51.714844 45.511719 52.117188 45.855469 52.125 45.988281 C 52.125 45.992188 52.125 45.996094 52.125 46 C 52.121094 46.003906 52.121094 46.007812 52.121094 46.011719 C 52.121094 46.011719 52.117188 46.015625 52.117188 46.015625 C 52.113281 46.019531 52.113281 46.023438 52.113281 46.023438 C 52.109375 46.023438 52.109375 46.027344 52.105469 46.027344 C 52.105469 46.027344 52.105469 46.03125 52.101562 46.03125 C 52.101562 46.035156 52.101562 46.035156 52.097656 46.035156 C 52.097656 46.039062 52.097656 46.039062 52.09375 46.039062 C 52.03125 46.082031 51.878906 46.066406 51.832031 46.066406 C 51.832031 46.066406 51.824219 46.066406 51.824219 46.066406 C 51.824219 46.066406 51.820312 46.070312 51.820312 46.070312 C 51.820312 46.070312 51.824219 46.070312 51.824219 46.074219 C 51.867188 46.136719 52.109375 46.792969 52.09375 46.90625 C 52.09375 46.910156 52.089844 46.914062 52.089844 46.914062 C 52.089844 46.914062 52.089844 46.917969 52.089844 46.917969 C 52.089844 46.917969 52.085938 46.917969 52.085938 46.917969 C 52.085938 46.917969 52.085938 46.921875 52.085938 46.921875 C 52.085938 46.921875 52.082031 46.921875 52.082031 46.921875 C 52.082031 46.921875 52.078125 46.921875 52.078125 46.921875 C 51.945312 46.886719 49.910156 45.808594 49.214844 45.734375 C 48.503906 45.660156 45.148438 46.660156 48.726562 48.21875 C 52.308594 49.773438 54.507812 47.847656 56.480469 48.070312 C 58.457031 48.292969 59.390625 48.625 59.207031 49.257812 C 59.019531 49.886719 57.183594 47.191406 55.257812 49.523438 C 53.0625 49.089844 51.574219 48.839844 52.707031 50.441406 C 49.125 49.113281 46.9375 50.847656 51.449219 51.554688 C 55.882812 51.683594 58.605469 50.480469 58.605469 50.480469 C 58.605469 50.480469 59.355469 51.851562 60.433594 50.890625 C 61.464844 49.972656 61.546875 51.140625 61.585938 51.253906 C 61.585938 51.253906 61.589844 51.253906 61.589844 51.257812 C 61.589844 51.257812 61.589844 51.257812 61.589844 51.261719 C 61.589844 51.261719 61.59375 51.261719 61.59375 51.261719 C 61.671875 51.238281 62.632812 50.8125 62.632812 50.8125 C 62.71875 50.8125 62.808594 50.8125 62.894531 50.8125 L 62.894531 59.710938 C 64.101562 59.722656 65.304688 59.734375 66.507812 59.746094 C 66.507812 59.746094 65.355469 52 65.988281 50.960938 C 66.601562 49.957031 67.183594 50.066406 67.21875 50.074219 C 67.21875 50.074219 69.566406 50.777344 69.828125 50.664062 C 69.832031 50.664062 69.835938 50.660156 69.839844 50.660156 C 69.84375 50.660156 69.847656 50.65625 69.847656 50.65625 C 69.851562 50.652344 69.859375 50.648438 69.863281 50.644531 C 69.867188 50.644531 69.867188 50.640625 69.867188 50.640625 C 70.058594 50.464844 69.863281 49.785156 71.058594 49.886719 C 71.425781 49.753906 71.285156 49.171875 71.523438 49.027344 C 71.527344 49.023438 71.535156 49.019531 71.539062 49.019531 C 71.550781 49.015625 71.5625 49.007812 71.570312 49.007812 C 71.585938 49.003906 71.605469 49 71.621094 49 C 71.992188 48.960938 79.1875 51 80.753906 49.070312 C 80.34375 47.996094 78.925781 48.996094 78.554688 49.035156 C 78.21875 49.035156 76.800781 48.367188 75.980469 49.035156 C 75.234375 48.480469 71.84375 48.109375 71.84375 48.109375 C 71.394531 47.664062 79.933594 48.332031 80.417969 47.996094 C 81.425781 46.996094 78.554688 47.105469 78.105469 47.441406 C 77.3125 46.960938 76.3125 46.996094 75.703125 47.328125 C 75.410156 46.632812 72.640625 46.933594 71.097656 46.738281 C 70.605469 46.449219 70.6875 46.285156 71.023438 46.105469 C 74.242188 46.242188 77.441406 46.660156 80.675781 46.515625 C 81.550781 45.382812 79.578125 44.957031 78.367188 45.921875 C 77.65625 44.757812 76.203125 45.882812 75.234375 45.773438 C 74.265625 45.660156 74.710938 44.476562 75.941406 44.660156 C 77.171875 44.847656 79.371094 44.585938 79.78125 44.027344 C 80.191406 43.472656 79.539062 42.910156 77.507812 43.4375 C 76.820312 42.769531 75.3125 43.4375 74.601562 43.660156 C 73.660156 43.136719 71.46875 43.585938 70.722656 43.773438 C 69.992188 43.320312 74.5625 42.585938 74.5625 42.585938 C 76.328125 42.554688 77.320312 42.25 77.882812 42.101562 C 80.546875 40.679688 77.84375 40.527344 76.445312 41.5625 C 75.574219 40.886719 74.75 41.621094 73.96875 41.878906 C 73.234375 42.125 71.875 42.300781 71.710938 42.230469 C 71.707031 42.230469 71.703125 42.226562 71.703125 42.226562 C 71.699219 42.226562 71.699219 42.222656 71.699219 42.222656 C 71.695312 42.222656 71.695312 42.21875 71.695312 42.21875 C 71.695312 42.21875 71.695312 42.214844 71.695312 42.214844 C 71.695312 42.214844 71.695312 42.210938 71.695312 42.210938 C 71.695312 42.207031 71.695312 42.203125 71.699219 42.203125 C 71.808594 42.03125 73.816406 40.804688 73.816406 40.804688 C 73.816406 40.804688 76.429688 40.617188 76.949219 40.542969 C 77.269531 40.5 78.382812 39.976562 78.382812 39.78125 C 78.375 39.660156 77.910156 39.671875 76.5 40.023438 C 75.234375 40.136719 74.488281 40.066406 74.003906 40.101562 C 73.226562 40.023438 72.894531 39.941406 72.832031 39.867188 C 72.828125 39.867188 72.824219 39.859375 72.824219 39.855469 C 72.816406 39.84375 72.820312 39.828125 72.832031 39.816406 C 72.832031 39.8125 72.839844 39.808594 72.84375 39.804688 C 73.035156 39.652344 74.265625 39.542969 74.265625 39.542969 C 74.265625 39.542969 78.03125 39.199219 78.28125 39.003906 L 78.285156 39 C 78.285156 38.996094 78.289062 38.992188 78.289062 38.992188 C 78.289062 38.992188 78.292969 38.988281 78.292969 38.988281 C 78.371094 37.457031 75.097656 38.164062 75.011719 38.175781 C 75.019531 37.097656 72.058594 38.160156 71.917969 38.175781 C 71.917969 38.175781 71.917969 38.175781 71.914062 38.175781 C 71.789062 38.101562 71.734375 38.019531 71.722656 37.949219 C 71.71875 37.921875 71.722656 37.890625 71.730469 37.863281 C 71.804688 37.644531 72.253906 37.46875 72.253906 37.46875 C 73.070312 37.273438 74.296875 37.210938 74.621094 36.949219 C 74.621094 36.949219 76.933594 36.929688 77.210938 36.320312 C 76.640625 34.761719 72.308594 36.59375 71.730469 36.875 C 71.613281 36.875 71.542969 36.847656 71.507812 36.796875 C 71.316406 36.523438 72.257812 35.609375 72.289062 35.578125 C 72.289062 35.578125 72.292969 35.574219 72.292969 35.574219 C 72.433594 35.535156 75.894531 35.359375 77.542969 33.132812 C 77.660156 31.757812 75.570312 33.910156 75.570312 33.910156 C 75.414062 32.125 73.296875 34.023438 72.066406 34.171875 C 70.835938 34.320312 70.800781 33.613281 71.65625 33.503906 C 72.515625 33.390625 73.484375 33.464844 73.96875 32.167969 C 74.453125 30.871094 75.910156 32.242188 76.167969 31.761719 C 76.421875 31.292969 75.691406 30.894531 75.648438 30.871094 C 75.648438 30.871094 76.726562 29.757812 74.976562 29.792969 C 73.242188 29.828125 71 29.578125 70.953125 29.570312 C 71.0625 29.53125 72.828125 28.867188 74.488281 28.902344 C 76.203125 28.941406 75.273438 27.679688 73.632812 27.679688 C 71.992188 27.679688 71.136719 27.125 71.136719 27.125 C 72.066406 26.777344 73 26.433594 73.929688 26.085938 C 73.867188 25.828125 73.808594 25.570312 73.746094 25.308594 C 73.746094 25.308594 75.386719 24.011719 73.074219 24.308594 C 70.761719 24.605469 70.5 24.644531 70.5 24.644531 C 70.5 24.644531 65.949219 25.335938 65.839844 25.347656 C 65.839844 25.347656 65.839844 25.347656 65.835938 25.347656 C 65.792969 25.339844 65.34375 25.199219 65.257812 25.027344 C 65.257812 25.023438 65.253906 25.015625 65.25 25.007812 C 65.25 25.003906 65.246094 24.992188 65.246094 24.984375 C 65.246094 24.976562 65.246094 24.964844 65.246094 24.957031 C 65.265625 24.867188 65.40625 24.769531 65.765625 24.679688 C 66.957031 24.382812 71.171875 23.53125 71.808594 23.753906 C 71.886719 23.78125 71.949219 23.773438 71.984375 23.746094 C 72.222656 23.53125 71.433594 22.167969 69.492188 21.976562 C 67.253906 21.753906 65.878906 22.53125 65.878906 22.53125 C 65.878906 22.53125 64.421875 22.007812 65.765625 21.566406 C 67.105469 21.121094 69.234375 21.714844 69.234375 21.714844 C 69.234375 21.714844 71.617188 21.007812 69.640625 20.710938 C 67.664062 20.414062 67.042969 20.976562 66.136719 21.007812 C 65.777344 20.558594 69.238281 20.453125 69.457031 20.082031 C 69.089844 19.414062 66.949219 20.082031 65.691406 20.082031 C 65.160156 19.859375 65.121094 19.492188 65.730469 19.265625 C 67.007812 19.21875 68.210938 19.292969 69.492188 19.242188 C 69.453125 18.5625 69.492188 17.757812 69.457031 17.078125 C 67.832031 16.78125 65.929688 17.292969 65.015625 17.25 C 65.261719 16.507812 68.765625 16.316406 69.15625 16.117188 C 69.960938 15.113281 65.792969 16.101562 65.691406 16.117188 C 64.953125 16.007812 64.996094 15.542969 65.464844 15.261719 C 66.546875 15.140625 68.972656 15.421875 68.789062 14.691406 C 68.648438 14.007812 67.105469 14.375 66.472656 14.523438 C 65.839844 14.671875 64.90625 14.558594 64.90625 14.558594 C 64.5 14.015625 68.5625 14.238281 68.523438 13.820312 C 68.472656 13.335938 65.949219 13.667969 65.09375 13.707031 C 64.433594 13.253906 68.195312 12.953125 68.371094 12.894531 C 68.371094 12.894531 68.375 12.890625 68.375 12.890625 C 68.515625 11.65625 65.765625 12.890625 65.242188 12.890625 C 65.152344 12.890625 65.085938 12.867188 65.035156 12.828125 C 65.027344 12.820312 65.011719 12.808594 65.003906 12.796875 C 64.824219 12.589844 64.984375 12.113281 64.984375 12.113281 C 64.984375 12.113281 65.964844 11.675781 66.023438 11.570312 C 66.023438 11.570312 66.027344 11.566406 66.027344 11.566406 C 66.027344 11.566406 66.027344 11.5625 66.027344 11.5625 C 66.027344 11.5625 66.027344 11.558594 66.027344 11.558594 C 66.027344 11.554688 66.023438 11.554688 66.023438 11.554688 C 66.023438 11.550781 66.015625 11.542969 66.011719 11.539062 C 65.898438 11.453125 65.222656 11.230469 65.132812 11.222656 C 65.132812 11.222656 65.128906 11.222656 65.128906 11.222656 C 65.128906 11.222656 65.125 11.21875 65.125 11.21875 C 65.125 11.21875 65.121094 11.214844 65.121094 11.214844 C 65.121094 11.214844 65.117188 11.210938 65.117188 11.210938 C 65.066406 11.105469 65.128906 10.371094 65.128906 10.371094 C 65.128906 10.371094 65.90625 9.792969 65.957031 9.5625 C 65.957031 9.558594 65.957031 9.554688 65.957031 9.554688 C 65.957031 9.550781 65.957031 9.546875 65.957031 9.546875 C 65.957031 9.542969 65.957031 9.539062 65.957031 9.539062 C 65.957031 9.535156 65.957031 9.53125 65.957031 9.527344 C 65.957031 9.527344 65.957031 9.527344 65.957031 9.523438 C 65.953125 9.523438 65.953125 9.519531 65.949219 9.515625 C 65.949219 9.515625 65.953125 9.511719 65.949219 9.511719 C 65.949219 9.511719 65.949219 9.507812 65.945312 9.507812 C 65.945312 9.507812 65.945312 9.507812 65.941406 9.503906 C 65.941406 9.503906 65.941406 9.5 65.9375 9.496094 C 65.9375 9.496094 65.933594 9.492188 65.933594 9.492188 C 65.933594 9.492188 65.925781 9.488281 65.921875 9.484375 C 65.921875 9.484375 65.917969 9.480469 65.914062 9.480469 C 65.71875 9.386719 64.90625 9.664062 64.90625 9.664062 C 64.90625 9.417969 64.90625 9.171875 64.90625 8.925781 C 64.90625 8.925781 65.617188 8.847656 65.691406 8.515625 C 65.695312 8.496094 65.695312 8.476562 65.691406 8.457031 C 65.691406 8.453125 65.691406 8.441406 65.6875 8.433594 C 65.683594 8.421875 65.675781 8.402344 65.667969 8.390625 C 65.667969 8.386719 65.660156 8.382812 65.660156 8.382812 C 65.496094 8.175781 64.835938 8.144531 64.835938 8.144531 C 64.710938 6.847656 64.585938 5.550781 64.460938 4.253906 Z M 63.796875 16.960938 L 63.796875 17.472656 C 63.796875 17.472656 62.960938 17.429688 62.808594 17.300781 C 62.804688 17.296875 62.804688 17.296875 62.804688 17.292969 C 62.800781 17.292969 62.800781 17.292969 62.800781 17.289062 C 62.796875 17.289062 62.796875 17.289062 62.792969 17.285156 C 62.792969 17.285156 62.792969 17.285156 62.789062 17.28125 C 62.789062 17.28125 62.789062 17.277344 62.785156 17.273438 C 62.785156 17.273438 62.789062 17.273438 62.785156 17.269531 C 62.785156 17.269531 62.785156 17.269531 62.78125 17.265625 C 62.78125 17.265625 62.78125 17.261719 62.78125 17.261719 C 62.78125 17.261719 62.78125 17.257812 62.78125 17.253906 C 62.78125 17.253906 62.78125 17.25 62.78125 17.25 C 62.78125 17.25 62.78125 17.246094 62.78125 17.246094 C 62.785156 17.242188 62.785156 17.238281 62.785156 17.234375 C 62.789062 17.234375 62.789062 17.230469 62.789062 17.230469 C 62.792969 17.226562 62.796875 17.222656 62.800781 17.21875 C 62.800781 17.21875 62.800781 17.214844 62.804688 17.214844 C 62.804688 17.210938 62.808594 17.207031 62.8125 17.207031 C 62.816406 17.203125 62.824219 17.195312 62.832031 17.191406 C 63.113281 16.996094 63.671875 17 63.78125 16.96875 C 63.785156 16.96875 63.785156 16.96875 63.785156 16.96875 C 63.789062 16.96875 63.789062 16.964844 63.789062 16.964844 C 63.789062 16.964844 63.792969 16.964844 63.792969 16.964844 C 63.792969 16.964844 63.796875 16.960938 63.796875 16.960938 Z M 64.984375 17.640625 C 65.011719 17.640625 66.648438 17.65625 66.792969 17.867188 C 66.792969 17.867188 66.796875 17.871094 66.796875 17.875 C 66.796875 17.878906 66.800781 17.882812 66.800781 17.886719 C 66.800781 17.886719 66.800781 17.894531 66.800781 17.894531 C 66.800781 17.898438 66.800781 17.902344 66.800781 17.90625 C 66.800781 17.910156 66.796875 17.914062 66.796875 17.917969 C 66.671875 18.183594 65.015625 18.339844 65.015625 18.339844 Z M 64.890625 18.652344 C 64.890625 18.652344 64.894531 18.652344 64.894531 18.652344 C 64.894531 18.652344 64.898438 18.652344 64.898438 18.652344 C 64.996094 18.675781 65.675781 18.699219 65.757812 18.8125 C 65.757812 18.8125 65.761719 18.816406 65.761719 18.816406 C 65.761719 18.816406 65.761719 18.820312 65.761719 18.820312 C 65.761719 18.820312 65.765625 18.824219 65.765625 18.824219 C 65.765625 18.824219 65.765625 18.828125 65.765625 18.828125 C 65.765625 18.828125 65.765625 18.832031 65.765625 18.832031 C 65.765625 18.832031 65.765625 18.835938 65.765625 18.835938 C 65.765625 18.835938 65.765625 18.839844 65.765625 18.839844 C 65.765625 18.839844 65.765625 18.84375 65.765625 18.84375 C 65.765625 18.84375 65.761719 18.847656 65.761719 18.847656 C 65.761719 18.847656 65.761719 18.851562 65.761719 18.851562 C 65.761719 18.855469 65.757812 18.859375 65.757812 18.859375 C 65.757812 18.859375 65.753906 18.863281 65.753906 18.863281 C 65.753906 18.863281 65.753906 18.867188 65.753906 18.867188 C 65.613281 19.039062 64.988281 19.085938 64.957031 19.085938 C 64.957031 19.085938 64.953125 19.085938 64.953125 19.085938 C 64.953125 19.085938 64.953125 19.082031 64.953125 19.082031 C 64.949219 19.082031 64.949219 19.078125 64.949219 19.078125 C 64.917969 19.019531 64.890625 18.652344 64.890625 18.652344 Z M 59.902344 19.996094 C 60.4375 19.96875 61.496094 20.09375 63.488281 20.636719 C 63.488281 20.679688 63.527344 21.195312 63.511719 21.277344 C 63.511719 21.277344 63.507812 21.28125 63.507812 21.28125 C 63.507812 21.285156 63.507812 21.285156 63.507812 21.285156 C 63.507812 21.285156 63.503906 21.289062 63.503906 21.289062 C 63.472656 21.273438 59.882812 20.25 59.554688 20.265625 C 59.542969 20.265625 59.535156 20.265625 59.523438 20.265625 C 59.519531 20.261719 59.507812 20.261719 59.5 20.261719 C 59.492188 20.257812 59.480469 20.253906 59.472656 20.25 C 59.46875 20.246094 59.464844 20.246094 59.460938 20.246094 C 59.460938 20.242188 59.457031 20.242188 59.457031 20.242188 C 59.445312 20.234375 59.433594 20.222656 59.429688 20.210938 C 59.425781 20.210938 59.425781 20.210938 59.425781 20.207031 C 59.421875 20.207031 59.421875 20.203125 59.417969 20.199219 C 59.417969 20.199219 59.421875 20.195312 59.417969 20.195312 C 59.417969 20.195312 59.417969 20.191406 59.414062 20.1875 C 59.414062 20.1875 59.414062 20.183594 59.414062 20.183594 C 59.414062 20.183594 59.414062 20.179688 59.414062 20.175781 C 59.414062 20.175781 59.414062 20.167969 59.414062 20.167969 C 59.417969 20.164062 59.417969 20.15625 59.417969 20.152344 C 59.425781 20.140625 59.433594 20.125 59.445312 20.117188 C 59.5 20.0625 59.636719 20.007812 59.902344 19.996094 Z M 61.761719 21.511719 C 62.335938 21.492188 63.707031 21.820312 63.78125 21.800781 C 63.78125 21.910156 63.84375 22.425781 63.773438 22.53125 C 63.773438 22.53125 63.769531 22.535156 63.769531 22.535156 C 63.769531 22.535156 63.765625 22.539062 63.765625 22.539062 C 63.765625 22.539062 63.761719 22.542969 63.761719 22.542969 C 63.761719 22.542969 63.753906 22.546875 63.753906 22.546875 C 63.753906 22.546875 63.75 22.546875 63.75 22.546875 C 63.746094 22.546875 63.742188 22.546875 63.742188 22.546875 C 63.742188 22.546875 63.738281 22.546875 63.738281 22.546875 C 63.621094 22.515625 61.597656 21.878906 61.519531 21.617188 C 61.519531 21.613281 61.519531 21.605469 61.519531 21.601562 C 61.519531 21.589844 61.523438 21.582031 61.53125 21.570312 C 61.535156 21.570312 61.535156 21.570312 61.535156 21.566406 C 61.539062 21.566406 61.539062 21.566406 61.539062 21.5625 C 61.578125 21.535156 61.660156 21.515625 61.761719 21.511719 Z M 67.394531 22.921875 C 67.941406 22.910156 68.328125 22.957031 68.183594 23.121094 C 67.792969 23.570312 65.097656 23.941406 65.097656 23.941406 L 65.050781 23.121094 C 65.105469 23.113281 66.476562 22.9375 67.394531 22.921875 Z M 59.675781 25.480469 C 60.132812 25.457031 61.203125 25.707031 63.582031 26.707031 L 63.597656 27.296875 C 63.597656 27.296875 59.570312 26.082031 59.429688 25.882812 C 59.359375 25.78125 59.230469 25.503906 59.675781 25.480469 Z M 67.566406 26.359375 C 67.6875 26.355469 67.773438 26.367188 67.804688 26.398438 C 67.804688 26.398438 67.808594 26.398438 67.808594 26.402344 C 67.808594 26.402344 67.8125 26.410156 67.8125 26.414062 C 67.8125 26.414062 67.816406 26.421875 67.816406 26.425781 C 67.816406 26.441406 67.800781 26.464844 67.78125 26.488281 C 67.40625 26.910156 65.394531 27.324219 65.394531 27.324219 C 65.394531 27.324219 65.394531 26.800781 65.394531 26.785156 C 65.394531 26.785156 65.398438 26.785156 65.398438 26.785156 C 65.488281 26.78125 66.964844 26.390625 67.566406 26.359375 Z M 58.738281 26.433594 C 59.335938 26.402344 60.695312 26.71875 63.738281 28.152344 C 63.738281 28.164062 63.765625 28.660156 63.753906 28.707031 C 63.753906 28.707031 63.75 28.707031 63.75 28.707031 C 63.570312 28.648438 58.273438 26.800781 58.273438 26.800781 C 58.269531 26.777344 58.191406 26.460938 58.738281 26.433594 Z M 68.816406 28.746094 C 68.96875 28.742188 69.070312 28.753906 69.097656 28.785156 C 69.097656 28.789062 69.097656 28.796875 69.101562 28.804688 C 69.097656 28.820312 69.085938 28.839844 69.058594 28.863281 C 68.578125 29.292969 65.519531 29.816406 65.410156 29.824219 C 65.410156 29.824219 65.40625 29.824219 65.40625 29.824219 C 65.40625 29.824219 65.402344 29.824219 65.402344 29.824219 C 65.402344 29.824219 65.398438 29.820312 65.398438 29.820312 C 65.394531 29.820312 65.394531 29.816406 65.394531 29.8125 C 65.394531 29.8125 65.394531 29.808594 65.394531 29.808594 C 65.394531 29.808594 65.390625 29.804688 65.386719 29.800781 C 65.371094 29.699219 65.433594 29.351562 65.4375 29.300781 C 65.4375 29.300781 65.4375 29.296875 65.4375 29.296875 C 65.4375 29.296875 65.441406 29.296875 65.441406 29.296875 C 65.441406 29.296875 65.445312 29.300781 65.445312 29.300781 C 65.445312 29.300781 65.449219 29.300781 65.449219 29.300781 C 65.644531 29.300781 67.992188 28.78125 68.816406 28.746094 Z M 59.816406 30.09375 C 60.726562 30.046875 63.488281 31.308594 63.625 31.347656 C 63.625 31.347656 63.628906 31.347656 63.628906 31.347656 C 63.613281 31.402344 63.613281 31.855469 63.601562 31.929688 C 63.601562 31.929688 63.601562 31.9375 63.601562 31.9375 C 63.601562 31.9375 63.597656 31.9375 63.597656 31.9375 C 63.523438 31.898438 59.738281 30.335938 59.570312 30.460938 C 59.464844 30.214844 59.574219 30.105469 59.816406 30.09375 Z M 67.957031 30.425781 C 68.148438 30.417969 68.285156 30.425781 68.332031 30.449219 C 68.335938 30.453125 68.339844 30.457031 68.34375 30.460938 C 68.34375 30.460938 68.34375 30.464844 68.34375 30.464844 C 68.34375 30.464844 68.34375 30.46875 68.34375 30.46875 C 68.34375 30.472656 68.34375 30.476562 68.34375 30.476562 C 68.34375 30.476562 68.339844 30.480469 68.339844 30.480469 C 68.335938 30.484375 68.332031 30.488281 68.328125 30.492188 C 68.046875 30.742188 65.4375 31.253906 65.4375 31.253906 C 65.4375 31.253906 65.425781 30.773438 65.425781 30.726562 C 65.5 30.710938 67.183594 30.457031 67.957031 30.425781 Z M 67.746094 32.085938 C 67.929688 32.082031 68.0625 32.089844 68.09375 32.121094 C 68.09375 32.121094 68.097656 32.125 68.097656 32.125 C 68.097656 32.128906 68.097656 32.132812 68.097656 32.132812 C 68.097656 32.136719 68.101562 32.136719 68.101562 32.136719 C 68.101562 32.140625 68.097656 32.140625 68.097656 32.144531 C 68.097656 32.144531 68.097656 32.148438 68.097656 32.152344 C 68.097656 32.152344 68.09375 32.152344 68.09375 32.15625 C 68.089844 32.160156 68.085938 32.164062 68.085938 32.167969 C 68.082031 32.167969 68.074219 32.175781 68.070312 32.179688 C 67.789062 32.421875 65.578125 32.882812 65.578125 32.882812 C 65.578125 32.882812 65.519531 32.355469 65.519531 32.339844 C 65.578125 32.339844 67.058594 32.109375 67.746094 32.085938 Z M 58.417969 32.21875 C 58.949219 32.183594 60.273438 32.402344 63.535156 33.582031 L 63.644531 34.21875 C 63.644531 34.21875 58.210938 32.476562 58.054688 32.421875 C 58.054688 32.421875 58.054688 32.417969 58.054688 32.417969 C 58.054688 32.414062 58.054688 32.40625 58.054688 32.394531 C 58.058594 32.378906 58.066406 32.355469 58.085938 32.332031 C 58.121094 32.285156 58.210938 32.230469 58.417969 32.21875 Z M 65.574219 33.597656 C 65.640625 33.613281 66.550781 33.644531 66.71875 33.785156 C 66.722656 33.785156 66.722656 33.789062 66.722656 33.789062 C 66.726562 33.789062 66.726562 33.792969 66.726562 33.792969 C 66.730469 33.792969 66.730469 33.796875 66.730469 33.796875 C 66.734375 33.800781 66.734375 33.800781 66.738281 33.804688 C 66.738281 33.804688 66.742188 33.808594 66.742188 33.808594 C 66.742188 33.8125 66.742188 33.816406 66.746094 33.820312 C 66.746094 33.820312 66.746094 33.824219 66.746094 33.824219 C 66.746094 33.824219 66.746094 33.828125 66.746094 33.828125 C 66.746094 33.832031 66.746094 33.835938 66.746094 33.835938 C 66.746094 33.835938 66.746094 33.839844 66.746094 33.839844 C 66.746094 33.84375 66.742188 33.847656 66.742188 33.847656 C 66.742188 33.851562 66.742188 33.851562 66.742188 33.851562 C 66.738281 33.855469 66.738281 33.859375 66.738281 33.859375 C 66.597656 34.078125 65.644531 34.160156 65.644531 34.160156 C 65.644531 34.160156 65.597656 33.734375 65.574219 33.597656 Z M 67.78125 34.839844 C 67.992188 34.832031 68.144531 34.859375 68.175781 34.917969 C 68.195312 34.960938 68.160156 35.023438 68.058594 35.105469 C 67.277344 35.742188 65.578125 35.863281 65.578125 35.863281 L 65.578125 35.164062 C 65.578125 35.164062 65.582031 35.164062 65.582031 35.164062 C 65.679688 35.152344 67.078125 34.855469 67.78125 34.839844 Z M 69.945312 35.492188 C 70.214844 35.480469 70.332031 35.523438 70.367188 35.585938 C 70.367188 35.59375 70.371094 35.601562 70.375 35.605469 C 70.378906 35.617188 70.378906 35.632812 70.378906 35.644531 C 70.371094 35.722656 70.285156 35.820312 70.214844 35.882812 C 69.949219 36.128906 65.722656 37.460938 65.722656 37.460938 C 65.722656 37.460938 65.6875 36.578125 65.703125 36.5 C 68.179688 35.753906 69.386719 35.511719 69.945312 35.492188 Z M 67.210938 37.992188 C 67.480469 37.984375 67.6875 38 67.753906 38.0625 C 67.757812 38.066406 67.761719 38.074219 67.765625 38.078125 C 67.765625 38.082031 67.769531 38.085938 67.769531 38.089844 C 67.769531 38.09375 67.769531 38.097656 67.769531 38.101562 C 67.769531 38.105469 67.769531 38.117188 67.769531 38.121094 C 67.765625 38.132812 67.757812 38.148438 67.746094 38.164062 C 67.386719 38.515625 65.628906 38.570312 65.628906 38.570312 L 65.628906 38.128906 C 65.957031 38.117188 66.691406 38.011719 67.210938 37.992188 Z M 68.96875 38.714844 C 69.054688 38.710938 69.105469 38.726562 69.113281 38.75 C 69.113281 38.75 69.113281 38.753906 69.113281 38.757812 C 69.105469 38.777344 69.082031 38.808594 69.03125 38.847656 C 68.328125 39.34375 65.6875 39.851562 65.6875 39.851562 C 65.6875 39.851562 65.722656 39.503906 65.738281 39.421875 C 65.808594 39.421875 68.339844 38.730469 68.96875 38.714844 Z M 70.449219 39.265625 C 70.761719 39.261719 71 39.308594 71.136719 39.40625 C 71.136719 39.40625 71.140625 39.40625 71.140625 39.40625 C 71.140625 39.40625 71.140625 39.410156 71.140625 39.410156 C 71.140625 39.410156 71.140625 39.414062 71.140625 39.414062 C 71.140625 39.414062 71.140625 39.417969 71.140625 39.421875 C 71.125 39.519531 70.929688 39.972656 70.234375 40.167969 C 69.367188 40.089844 65.683594 41.171875 65.613281 41.1875 C 65.613281 41.1875 65.605469 41.1875 65.605469 41.1875 C 65.605469 41.1875 65.605469 41.183594 65.605469 41.179688 C 65.605469 41.109375 65.65625 40.738281 65.65625 40.738281 C 66.925781 39.984375 69.230469 39.277344 70.449219 39.265625 Z M 61.027344 41.390625 C 61.035156 41.390625 61.042969 41.390625 61.050781 41.390625 C 62.644531 41.558594 63.238281 42.152344 63.40625 42.390625 C 63.089844 42.945312 60.570312 41.703125 60.835938 41.4375 C 60.867188 41.410156 60.929688 41.390625 61.027344 41.390625 Z M 70.152344 41.492188 C 70.214844 41.492188 70.273438 41.503906 70.3125 41.53125 C 70.332031 41.542969 70.347656 41.558594 70.359375 41.574219 C 70.375 41.597656 70.382812 41.632812 70.386719 41.671875 C 70.21875 41.925781 69.359375 41.816406 69.304688 41.808594 C 69.347656 41.792969 69.847656 41.503906 70.152344 41.492188 Z M 66.742188 43.214844 C 66.859375 43.210938 66.957031 43.222656 67.011719 43.257812 C 67.019531 43.261719 67.027344 43.269531 67.03125 43.273438 C 67.035156 43.273438 67.039062 43.277344 67.039062 43.28125 C 67.042969 43.285156 67.046875 43.289062 67.046875 43.292969 C 67.050781 43.296875 67.050781 43.300781 67.050781 43.304688 C 67.0625 43.335938 67.058594 43.375 67.03125 43.425781 C 66.78125 43.890625 65.6875 43.71875 65.6875 43.71875 L 65.6875 43.394531 C 65.6875 43.394531 65.691406 43.394531 65.691406 43.394531 C 65.753906 43.398438 66.355469 43.230469 66.742188 43.214844 Z M 60.296875 44.445312 C 60.632812 44.425781 60.929688 44.644531 61.238281 44.820312 C 61.921875 44.683594 63.332031 44.929688 63.332031 44.929688 L 63.332031 45.550781 C 63.332031 45.550781 63.332031 45.554688 63.328125 45.554688 C 63.328125 45.554688 63.324219 45.554688 63.324219 45.554688 C 63.195312 45.574219 61.546875 45.503906 61.175781 45.273438 C 60.875 45.273438 60.023438 44.824219 59.957031 44.597656 C 59.957031 44.59375 59.953125 44.589844 59.953125 44.589844 C 59.953125 44.585938 59.953125 44.578125 59.953125 44.574219 C 59.953125 44.574219 59.953125 44.570312 59.953125 44.566406 C 59.953125 44.566406 59.953125 44.5625 59.953125 44.558594 C 59.953125 44.558594 59.953125 44.558594 59.953125 44.554688 C 59.953125 44.554688 59.957031 44.550781 59.957031 44.546875 C 59.957031 44.546875 59.957031 44.542969 59.957031 44.542969 C 60.078125 44.480469 60.191406 44.449219 60.296875 44.445312 Z M 67.523438 44.75 C 67.78125 44.734375 67.890625 44.816406 67.6875 45.097656 C 67.125 45.890625 65.671875 45.566406 65.671875 45.566406 L 65.613281 45.074219 C 66.125 45.09375 67.0625 44.773438 67.523438 44.75 Z M 62.089844 46.355469 C 62.679688 46.328125 63.316406 46.558594 63.316406 46.558594 C 63.332031 46.589844 63.632812 47.179688 63.367188 47.378906 C 63.355469 47.382812 63.34375 47.390625 63.332031 47.398438 C 63.003906 47.566406 61.4375 47.261719 61.347656 46.636719 C 61.53125 46.441406 61.804688 46.367188 62.089844 46.355469 Z M 56.035156 46.660156 C 56.570312 46.628906 57.171875 46.957031 57.238281 46.992188 C 57.238281 46.992188 57.242188 46.992188 57.242188 46.992188 C 57.242188 47.007812 57.222656 47.585938 57.222656 47.585938 C 57.222656 47.585938 56.160156 47.289062 55.824219 46.695312 C 55.890625 46.679688 55.960938 46.664062 56.03125 46.660156 Z M 66.265625 46.742188 C 66.867188 46.738281 67.589844 46.878906 67.695312 47.078125 C 67.714844 47.121094 67.710938 47.164062 67.671875 47.210938 C 67.375 47.570312 65.6875 47.242188 65.6875 47.242188 L 65.6875 46.808594 C 65.839844 46.765625 66.042969 46.742188 66.265625 46.742188 Z M 66.265625 46.742188 "/>
</g>
</svg>
