<?xml version="1.0" encoding="UTF-8"?>
<svg xmlns="http://www.w3.org/2000/svg" xmlns:xlink="http://www.w3.org/1999/xlink" width="128pt" height="64pt" viewBox="0 0 128 64" version="1.1">
<g id="surface822">
<path style=" stroke:none;fill-rule:evenodd;fill:rgb(0%,44.313049%,73.724365%);fill-opacity:1;" d="M 0 0.160156 L 128 0.160156 L 128 64.160156 L 0 64.160156 Z M 0 0.160156 "/>
<path style=" stroke:none;fill-rule:evenodd;fill:rgb(99.998474%,99.998474%,99.998474%);fill-opacity:1;" d="M 71.402344 50.789062 C 71.402344 50.789062 73.65625 48.402344 75.828125 48.859375 C 76.480469 46.339844 78.929688 46.144531 78.929688 46.144531 C 78.929688 46.144531 78.691406 43.367188 81.839844 42.761719 C 81.925781 40.871094 83.835938 39.308594 83.835938 39.308594 C 83.835938 39.308594 83.445312 36.378906 85.441406 35.707031 C 84.226562 33.386719 85.851562 31.691406 85.832031 31.648438 C 85.808594 31.605469 83.769531 27.980469 85.59375 26.941406 C 83.660156 25.3125 84.289062 23.46875 84.289062 23.46875 C 84.289062 23.46875 82.1875 22.925781 82.945312 20.410156 C 81.210938 20.105469 80.863281 17.304688 80.863281 17.304688 C 80.863281 17.304688 78.191406 17.847656 77.867188 15.527344 C 76.109375 15.808594 75.914062 14.070312 75.890625 14.070312 C 75.871094 14.070312 72.398438 15.003906 71.703125 12.378906 C 70.359375 13.074219 69.773438 11.835938 69.773438 11.835938 C 69.773438 11.835938 67.84375 12.792969 66.691406 10.945312 C 64.390625 12.378906 63.109375 10.882812 63.109375 10.882812 C 63.109375 10.882812 60.09375 12.878906 59.097656 11.335938 C 57.316406 13.140625 55.734375 12.359375 55.734375 12.359375 C 55.734375 12.359375 54.386719 14.746094 52.21875 14.136719 C 51.71875 16.351562 49.222656 16.394531 49.222656 16.394531 C 49.222656 16.394531 49.484375 18.347656 46.488281 18.867188 C 46.097656 21.167969 44.535156 21.558594 44.535156 21.558594 C 44.535156 21.558594 44.6875 23.792969 43.277344 24.511719 C 43.777344 25.769531 42.472656 27.308594 42.472656 27.308594 C 42.472656 27.308594 43.863281 29.046875 41.972656 31 C 43.796875 31.476562 42.472656 34.621094 42.472656 34.621094 C 42.472656 34.621094 44.992188 35.75 43.40625 37.835938 C 45.207031 38.421875 44.644531 39.851562 44.664062 40.699219 C 45.816406 41.21875 46.835938 40.960938 46.335938 43.28125 C 49.875 43.671875 48.203125 45.625 48.203125 45.625 C 48.203125 45.625 49.851562 45.691406 49.199219 46.992188 C 52.21875 46.925781 52.652344 49.25 52.652344 49.25 C 52.652344 49.25 55.449219 48.511719 55.820312 49.597656 C 56.1875 50.679688 54.605469 57.996094 54.605469 57.996094 C 54.605469 57.996094 52.238281 57.996094 50.480469 56.105469 C 46.359375 55.996094 47.269531 53.285156 47.203125 53.285156 C 47.140625 53.285156 45.835938 53.785156 45.164062 51.527344 C 42.40625 52.09375 42.496094 49.769531 42.472656 49.75 C 42.453125 49.726562 41.238281 49.183594 41.691406 48.035156 C 38.847656 48.292969 39.066406 45.515625 39.066406 45.515625 C 38.445312 45.261719 38.214844 44.683594 38.308594 44.105469 C 37.9375 43.976562 35.421875 43.933594 36.722656 40.613281 C 34.3125 39.15625 35.8125 37.488281 35.8125 37.488281 C 35.8125 37.488281 32.492188 35.773438 35.050781 33.796875 C 33.140625 30.976562 35.203125 29.566406 35.203125 29.566406 C 35.203125 29.566406 32.554688 26.875 35.246094 24.964844 C 34.8125 20.886719 37.242188 19.910156 37.242188 19.910156 C 37.242188 19.910156 35.964844 16.589844 39.4375 15.199219 C 39.652344 11.835938 42.082031 11.75 42.082031 11.75 C 42.082031 11.75 42.148438 9.082031 45.96875 9.339844 C 46.703125 6.953125 49.308594 7.429688 49.308594 7.429688 C 49.308594 7.429688 50.113281 4.546875 53.648438 5.933594 C 55.449219 2.417969 58.121094 4.21875 58.121094 4.21875 C 58.121094 4.21875 59.8125 3.113281 60.660156 3.460938 C 61.734375 1.613281 64.019531 3.390625 65.5 3.746094 C 66.035156 3.539062 67.949219 2.09375 69.425781 3.917969 C 71.378906 2.636719 73.050781 4.933594 73.050781 4.933594 C 73.050781 4.933594 75.742188 3.570312 77 6.695312 C 82.707031 6.171875 81.882812 9.90625 81.882812 9.90625 C 81.882812 9.90625 86.375 8.886719 85.398438 13.355469 C 89.476562 13.636719 89.066406 16.328125 89.066406 16.328125 C 89.066406 16.328125 91.648438 18.28125 90.519531 20.039062 C 92.820312 20.148438 91.972656 22.363281 91.972656 22.363281 C 91.972656 22.363281 93.730469 23.035156 92.277344 25.769531 C 95.640625 28.460938 92.925781 31.128906 92.90625 31.105469 C 92.882812 31.085938 94.707031 33.277344 93.058594 35.792969 C 93.558594 39.789062 91.539062 40.808594 91.539062 40.808594 C 91.539062 40.808594 92.058594 43.390625 89.804688 44.128906 C 89.757812 47.164062 86.894531 47.535156 86.894531 47.535156 C 86.894531 47.535156 87.65625 48.855469 84.8125 50.242188 C 84.699219 52.277344 81.730469 52.4375 81.730469 52.4375 C 81.730469 52.4375 81.449219 56.171875 77.671875 55.171875 C 76.753906 58.167969 72.332031 57.277344 72.246094 57.234375 C 72.160156 57.191406 71.402344 50.8125 71.402344 50.789062 Z M 71.402344 50.789062 "/>
<path style="fill:none;stroke-width:0.247665;stroke-linecap:butt;stroke-linejoin:miter;stroke:rgb(0%,0%,0%);stroke-opacity:1;stroke-miterlimit:4;" d="M 71.402344 50.789062 C 71.402344 50.789062 73.65625 48.402344 75.828125 48.859375 C 76.480469 46.339844 78.929688 46.144531 78.929688 46.144531 C 78.929688 46.144531 78.691406 43.367188 81.839844 42.761719 C 81.925781 40.871094 83.835938 39.308594 83.835938 39.308594 C 83.835938 39.308594 83.445312 36.378906 85.441406 35.707031 C 84.226562 33.386719 85.851562 31.691406 85.832031 31.648438 C 85.808594 31.605469 83.769531 27.980469 85.59375 26.941406 C 83.660156 25.3125 84.289062 23.46875 84.289062 23.46875 C 84.289062 23.46875 82.1875 22.925781 82.945312 20.410156 C 81.210938 20.105469 80.863281 17.304688 80.863281 17.304688 C 80.863281 17.304688 78.191406 17.847656 77.867188 15.527344 C 76.109375 15.808594 75.914062 14.070312 75.890625 14.070312 C 75.871094 14.070312 72.398438 15.003906 71.703125 12.378906 C 70.359375 13.074219 69.773438 11.835938 69.773438 11.835938 C 69.773438 11.835938 67.84375 12.792969 66.691406 10.945312 C 64.390625 12.378906 63.109375 10.882812 63.109375 10.882812 C 63.109375 10.882812 60.09375 12.878906 59.097656 11.335938 C 57.316406 13.140625 55.734375 12.355469 55.734375 12.355469 C 55.734375 12.355469 54.386719 14.746094 52.21875 14.136719 C 51.71875 16.351562 49.222656 16.394531 49.222656 16.394531 C 49.222656 16.394531 49.484375 18.347656 46.488281 18.867188 C 46.097656 21.167969 44.535156 21.558594 44.535156 21.558594 C 44.535156 21.558594 44.6875 23.792969 43.277344 24.511719 C 43.777344 25.769531 42.472656 27.308594 42.472656 27.308594 C 42.472656 27.308594 43.863281 29.046875 41.972656 31 C 43.796875 31.476562 42.472656 34.621094 42.472656 34.621094 C 42.472656 34.621094 44.992188 35.75 43.40625 37.835938 C 45.207031 38.421875 44.644531 39.851562 44.664062 40.699219 C 45.816406 41.21875 46.835938 40.960938 46.335938 43.28125 C 49.875 43.671875 48.203125 45.625 48.203125 45.625 C 48.203125 45.625 49.851562 45.691406 49.199219 46.992188 C 52.21875 46.925781 52.652344 49.25 52.652344 49.25 C 52.652344 49.25 55.449219 48.511719 55.820312 49.597656 C 56.1875 50.679688 54.605469 57.996094 54.605469 57.996094 C 54.605469 57.996094 52.238281 57.996094 50.480469 56.105469 C 46.359375 55.996094 47.269531 53.285156 47.203125 53.285156 C 47.140625 53.285156 45.835938 53.785156 45.164062 51.527344 C 42.40625 52.09375 42.496094 49.769531 42.472656 49.75 C 42.453125 49.726562 41.238281 49.183594 41.691406 48.035156 C 38.847656 48.292969 39.066406 45.515625 39.066406 45.515625 C 38.445312 45.261719 38.214844 44.683594 38.308594 44.105469 C 37.9375 43.976562 35.421875 43.933594 36.722656 40.613281 C 34.3125 39.15625 35.8125 37.488281 35.8125 37.488281 C 35.8125 37.488281 32.492188 35.773438 35.050781 33.796875 C 33.140625 30.976562 35.203125 29.566406 35.203125 29.566406 C 35.203125 29.566406 32.554688 26.875 35.246094 24.964844 C 34.8125 20.886719 37.242188 19.910156 37.242188 19.910156 C 37.242188 19.910156 35.964844 16.589844 39.4375 15.199219 C 39.652344 11.835938 42.082031 11.75 42.082031 11.75 C 42.082031 11.75 42.148438 9.082031 45.96875 9.339844 C 46.703125 6.953125 49.308594 7.429688 49.308594 7.429688 C 49.308594 7.429688 50.113281 4.546875 53.648438 5.933594 C 55.449219 2.417969 58.121094 4.21875 58.121094 4.21875 C 58.121094 4.21875 59.8125 3.113281 60.660156 3.460938 C 61.734375 1.613281 64.019531 3.390625 65.5 3.746094 C 66.035156 3.539062 67.949219 2.09375 69.425781 3.917969 C 71.378906 2.636719 73.050781 4.9375 73.050781 4.9375 C 73.050781 4.9375 75.742188 3.570312 77 6.695312 C 82.707031 6.171875 81.882812 9.90625 81.882812 9.90625 C 81.882812 9.90625 86.375 8.886719 85.398438 13.355469 C 89.476562 13.636719 89.066406 16.328125 89.066406 16.328125 C 89.066406 16.328125 91.648438 18.28125 90.519531 20.039062 C 92.820312 20.148438 91.972656 22.363281 91.972656 22.363281 C 91.972656 22.363281 93.730469 23.035156 92.277344 25.769531 C 95.640625 28.460938 92.925781 31.128906 92.90625 31.105469 C 92.882812 31.085938 94.707031 33.277344 93.058594 35.792969 C 93.558594 39.789062 91.539062 40.808594 91.539062 40.808594 C 91.539062 40.808594 92.058594 43.390625 89.804688 44.128906 C 89.757812 47.164062 86.894531 47.535156 86.894531 47.535156 C 86.894531 47.535156 87.65625 48.855469 84.8125 50.242188 C 84.699219 52.277344 81.730469 52.4375 81.730469 52.4375 C 81.730469 52.4375 81.449219 56.171875 77.671875 55.171875 C 76.753906 58.167969 72.332031 57.277344 72.246094 57.234375 C 72.160156 57.191406 71.402344 50.8125 71.402344 50.789062 Z M 71.402344 50.789062 "/>
<path style="fill-rule:evenodd;fill:rgb(12.940979%,47.450256%,0%);fill-opacity:1;stroke-width:0.247665;stroke-linecap:butt;stroke-linejoin:miter;stroke:rgb(0%,0%,0%);stroke-opacity:1;stroke-miterlimit:4;" d="M 43.976562 14.976562 C 43.988281 14.976562 44.933594 15.796875 44.757812 17.03125 C 44.578125 18.269531 43.867188 19.988281 44.007812 21.269531 C 44.097656 21.78125 44.0625 22.703125 44.0625 22.703125 C 44.0625 22.703125 43.207031 21.484375 43.195312 20.179688 C 43.183594 18.878906 44.125 17.640625 44.125 16.679688 C 44.125 15.71875 43.953125 14.953125 43.976562 14.976562 Z M 43.976562 14.976562 "/>
<path style="fill-rule:evenodd;fill:rgb(12.940979%,47.450256%,0%);fill-opacity:1;stroke-width:0.247665;stroke-linecap:butt;stroke-linejoin:miter;stroke:rgb(0%,0%,0%);stroke-opacity:1;stroke-miterlimit:4;" d="M 43.507812 15.34375 C 43.507812 15.34375 42.265625 16.527344 42.105469 17.679688 C 41.988281 18.273438 41.941406 21.039062 41.925781 22.265625 C 41.898438 22.644531 41.742188 24.128906 41.710938 24.671875 C 41.675781 25.210938 42.625 23.75 42.675781 22.554688 C 42.648438 21.320312 42.648438 18.722656 42.773438 18.332031 C 42.886719 17.828125 42.859375 17.273438 43.035156 16.769531 C 43.261719 16.070312 43.515625 15.355469 43.507812 15.34375 Z M 43.507812 15.34375 "/>
<path style="fill-rule:evenodd;fill:rgb(99.998474%,82.351685%,0%);fill-opacity:1;stroke-width:0.247665;stroke-linecap:butt;stroke-linejoin:miter;stroke:rgb(93.72406%,54.116821%,6.274414%);stroke-opacity:1;stroke-miterlimit:4;" d="M 70.8125 11.472656 C 70.8125 11.472656 72.421875 10.730469 72.882812 9.347656 C 73.34375 7.964844 71.492188 7.949219 71.246094 8.390625 C 71 8.828125 71.453125 9.925781 71.339844 10.214844 C 71.222656 10.503906 70.566406 11.203125 70.8125 11.472656 Z M 70.8125 11.472656 "/>
<path style="fill-rule:evenodd;fill:rgb(99.998474%,82.351685%,0%);fill-opacity:1;stroke-width:0.309581;stroke-linecap:butt;stroke-linejoin:miter;stroke:rgb(93.72406%,54.116821%,6.274414%);stroke-opacity:1;stroke-miterlimit:4;" d="M 56.550781 11.976562 C 56.550781 11.976562 57.59375 10.542969 57.324219 9.113281 C 57.054688 7.679688 55.425781 8.570312 55.425781 9.074219 C 55.425781 9.578125 56.355469 10.3125 56.394531 10.621094 C 56.433594 10.933594 56.203125 11.859375 56.550781 11.976562 Z M 56.550781 11.976562 "/>
<path style="fill-rule:evenodd;fill:rgb(99.998474%,82.351685%,0%);fill-opacity:1;stroke-width:0.309581;stroke-linecap:butt;stroke-linejoin:miter;stroke:rgb(93.72406%,54.116821%,6.274414%);stroke-opacity:1;stroke-miterlimit:4;" d="M 53.726562 12.828125 C 53.726562 12.828125 54.769531 11.394531 54.5 9.964844 C 54.226562 8.53125 52.601562 9.421875 52.601562 9.925781 C 52.601562 10.429688 53.53125 11.164062 53.570312 11.472656 C 53.609375 11.78125 53.375 12.710938 53.726562 12.828125 Z M 53.726562 12.828125 "/>
<path style="fill-rule:evenodd;fill:rgb(99.998474%,82.351685%,0%);fill-opacity:1;stroke-width:0.309581;stroke-linecap:butt;stroke-linejoin:miter;stroke:rgb(93.72406%,54.116821%,6.274414%);stroke-opacity:1;stroke-miterlimit:4;" d="M 50.589844 13.796875 C 50.589844 13.796875 51.636719 12.363281 51.363281 10.933594 C 51.09375 9.5 49.46875 10.390625 49.46875 10.894531 C 49.46875 11.394531 50.398438 12.132812 50.4375 12.441406 C 50.472656 12.75 50.242188 13.679688 50.589844 13.796875 Z M 50.589844 13.796875 "/>
<path style="fill-rule:evenodd;fill:rgb(99.998474%,82.351685%,0%);fill-opacity:1;stroke-width:0.309581;stroke-linecap:butt;stroke-linejoin:miter;stroke:rgb(93.72406%,54.116821%,6.274414%);stroke-opacity:1;stroke-miterlimit:4;" d="M 48.386719 16 C 48.386719 16 49.429688 14.570312 49.160156 13.136719 C 48.886719 11.707031 47.261719 12.59375 47.261719 13.097656 C 47.261719 13.601562 48.191406 14.335938 48.230469 14.648438 C 48.269531 14.957031 48.035156 15.886719 48.386719 16 Z M 48.386719 16 "/>
<path style="fill-rule:evenodd;fill:rgb(99.998474%,82.351685%,0%);fill-opacity:1;stroke-width:0.309581;stroke-linecap:butt;stroke-linejoin:miter;stroke:rgb(93.72406%,54.116821%,6.274414%);stroke-opacity:1;stroke-miterlimit:4;" d="M 46.0625 18.128906 C 46.0625 18.128906 47.109375 16.699219 46.835938 15.265625 C 46.566406 13.832031 44.941406 14.722656 44.941406 15.226562 C 44.941406 15.730469 45.871094 16.464844 45.90625 16.773438 C 45.945312 17.085938 45.714844 18.011719 46.0625 18.128906 Z M 46.0625 18.128906 "/>
<path style=" stroke:none;fill-rule:evenodd;fill:rgb(99.998474%,82.351685%,0%);fill-opacity:1;" d="M 51.402344 5.730469 C 51.402344 5.730469 50.011719 6.828125 49.886719 8.28125 C 49.761719 9.734375 51.566406 9.3125 51.703125 8.828125 C 51.835938 8.34375 51.140625 7.386719 51.1875 7.078125 C 51.230469 6.769531 51.707031 5.933594 51.402344 5.730469 Z M 51.402344 5.730469 "/>
<path style="fill:none;stroke-width:0.247665;stroke-linecap:butt;stroke-linejoin:miter;stroke:rgb(93.72406%,54.116821%,6.274414%);stroke-opacity:1;stroke-miterlimit:4;" d="M 51.402344 5.730469 C 51.402344 5.730469 50.011719 6.828125 49.886719 8.28125 C 49.761719 9.734375 51.566406 9.3125 51.703125 8.828125 C 51.835938 8.34375 51.140625 7.386719 51.1875 7.078125 C 51.230469 6.769531 51.707031 5.9375 51.402344 5.730469 Z M 51.402344 5.730469 "/>
<path style="fill-rule:evenodd;fill:rgb(99.998474%,82.351685%,0%);fill-opacity:1;stroke-width:0.247665;stroke-linecap:butt;stroke-linejoin:miter;stroke:rgb(93.72406%,54.116821%,6.274414%);stroke-opacity:1;stroke-miterlimit:4;" d="M 56.046875 4.296875 C 56.046875 4.296875 54.652344 5.398438 54.53125 6.847656 C 54.40625 8.300781 56.210938 7.878906 56.34375 7.394531 C 56.480469 6.910156 55.785156 5.953125 55.832031 5.644531 C 55.875 5.335938 56.347656 4.503906 56.046875 4.296875 Z M 56.046875 4.296875 "/>
<path style=" stroke:none;fill-rule:evenodd;fill:rgb(99.998474%,82.351685%,0%);fill-opacity:1;" d="M 38.738281 16.835938 C 38.738281 16.835938 39.035156 18.582031 40.246094 19.390625 C 41.460938 20.195312 41.960938 18.410156 41.601562 18.058594 C 41.242188 17.707031 40.066406 17.859375 39.816406 17.667969 C 39.570312 17.480469 39.066406 16.667969 38.738281 16.835938 Z M 38.738281 16.835938 "/>
<path style="fill:none;stroke-width:0.247665;stroke-linecap:butt;stroke-linejoin:miter;stroke:rgb(93.72406%,54.116821%,6.274414%);stroke-opacity:1;stroke-miterlimit:4;" d="M 38.738281 16.835938 C 38.738281 16.835938 39.035156 18.582031 40.246094 19.390625 C 41.460938 20.195312 41.960938 18.410156 41.601562 18.058594 C 41.242188 17.707031 40.066406 17.859375 39.816406 17.671875 C 39.570312 17.480469 39.066406 16.667969 38.738281 16.835938 Z M 38.738281 16.835938 "/>
<path style="fill-rule:evenodd;fill:rgb(99.998474%,82.351685%,0%);fill-opacity:1;stroke-width:0.247665;stroke-linecap:butt;stroke-linejoin:miter;stroke:rgb(93.72406%,54.116821%,6.274414%);stroke-opacity:1;stroke-miterlimit:4;" d="M 36.421875 22.769531 C 36.421875 22.769531 36.433594 24.542969 37.507812 25.53125 C 38.578125 26.519531 39.351562 24.835938 39.050781 24.429688 C 38.75 24.027344 37.566406 23.992188 37.351562 23.765625 C 37.136719 23.539062 36.769531 22.65625 36.421875 22.769531 Z M 36.421875 22.769531 "/>
<path style="fill-rule:evenodd;fill:rgb(99.998474%,82.351685%,0%);fill-opacity:1;stroke-width:0.247665;stroke-linecap:butt;stroke-linejoin:miter;stroke:rgb(93.72406%,54.116821%,6.274414%);stroke-opacity:1;stroke-miterlimit:4;" d="M 41.769531 29.398438 C 41.769531 29.398438 41.140625 27.746094 39.789062 27.191406 C 38.441406 26.640625 38.304688 28.488281 38.726562 28.761719 C 39.148438 29.035156 40.269531 28.65625 40.550781 28.792969 C 40.832031 28.929688 41.484375 29.628906 41.769531 29.398438 Z M 41.769531 29.398438 "/>
<path style="fill-rule:evenodd;fill:rgb(99.998474%,82.351685%,0%);fill-opacity:1;stroke-width:0.247665;stroke-linecap:butt;stroke-linejoin:miter;stroke:rgb(93.72406%,54.116821%,6.274414%);stroke-opacity:1;stroke-miterlimit:4;" d="M 40.660156 26.535156 C 40.660156 26.535156 41.734375 25.121094 41.488281 23.6875 C 41.246094 22.25 39.605469 23.109375 39.59375 23.609375 C 39.585938 24.113281 40.5 24.867188 40.53125 25.175781 C 40.5625 25.488281 40.3125 26.410156 40.660156 26.535156 Z M 40.660156 26.535156 "/>
<path style="fill-rule:evenodd;fill:rgb(99.998474%,82.351685%,0%);fill-opacity:1;stroke-width:0.247665;stroke-linecap:butt;stroke-linejoin:miter;stroke:rgb(93.72406%,54.116821%,6.274414%);stroke-opacity:1;stroke-miterlimit:4;" d="M 74.105469 12.902344 C 74.105469 12.902344 75.714844 12.160156 76.171875 10.777344 C 76.632812 9.394531 74.78125 9.382812 74.535156 9.820312 C 74.289062 10.261719 74.746094 11.355469 74.628906 11.644531 C 74.511719 11.933594 73.855469 12.632812 74.105469 12.902344 Z M 74.105469 12.902344 "/>
<path style="fill-rule:evenodd;fill:rgb(99.998474%,82.351685%,0%);fill-opacity:1;stroke-width:0.247665;stroke-linecap:butt;stroke-linejoin:miter;stroke:rgb(93.72406%,54.116821%,6.274414%);stroke-opacity:1;stroke-miterlimit:4;" d="M 78.972656 15.332031 C 78.972656 15.332031 79.917969 13.832031 79.550781 12.421875 C 79.1875 11.011719 77.625 12.007812 77.65625 12.511719 C 77.691406 13.011719 78.667969 13.683594 78.726562 13.988281 C 78.785156 14.296875 78.617188 15.238281 78.972656 15.332031 Z M 78.972656 15.332031 "/>
<path style=" stroke:none;fill-rule:evenodd;fill:rgb(99.998474%,82.351685%,0%);fill-opacity:1;" d="M 92.253906 29.121094 C 92.253906 29.121094 91.621094 27.46875 90.269531 26.917969 C 88.921875 26.367188 88.785156 28.214844 89.207031 28.488281 C 89.628906 28.761719 90.753906 28.382812 91.035156 28.515625 C 91.3125 28.652344 91.96875 29.351562 92.253906 29.121094 Z M 92.253906 29.121094 "/>
<path style="fill:none;stroke-width:0.247665;stroke-linecap:butt;stroke-linejoin:miter;stroke:rgb(93.72406%,54.116821%,6.274414%);stroke-opacity:1;stroke-miterlimit:4;" d="M 92.253906 29.125 C 92.253906 29.125 91.621094 27.46875 90.269531 26.917969 C 88.921875 26.367188 88.785156 28.214844 89.207031 28.488281 C 89.628906 28.761719 90.753906 28.382812 91.035156 28.515625 C 91.3125 28.652344 91.96875 29.351562 92.253906 29.125 Z M 92.253906 29.125 "/>
<path style="fill-rule:evenodd;fill:rgb(99.998474%,82.351685%,0%);fill-opacity:1;stroke-width:0.247665;stroke-linecap:butt;stroke-linejoin:miter;stroke:rgb(93.72406%,54.116821%,6.274414%);stroke-opacity:1;stroke-miterlimit:4;" d="M 85.761719 30.148438 C 85.761719 30.148438 85.796875 28.378906 86.878906 27.402344 C 87.964844 26.429688 88.714844 28.121094 88.410156 28.523438 C 88.105469 28.921875 86.921875 28.945312 86.703125 29.167969 C 86.484375 29.390625 86.109375 30.269531 85.761719 30.148438 Z M 85.761719 30.148438 "/>
<path style="fill-rule:evenodd;fill:rgb(99.998474%,82.351685%,0%);fill-opacity:1;stroke-width:0.247665;stroke-linecap:butt;stroke-linejoin:miter;stroke:rgb(93.72406%,54.116821%,6.274414%);stroke-opacity:1;stroke-miterlimit:4;" d="M 84.714844 11.359375 C 84.714844 11.359375 83.058594 10.730469 81.75 11.367188 C 80.4375 12.007812 81.726562 13.339844 82.210938 13.207031 C 82.699219 13.074219 83.160156 11.984375 83.449219 11.863281 C 83.738281 11.746094 84.695312 11.722656 84.714844 11.359375 Z M 84.714844 11.359375 "/>
<path style="fill-rule:evenodd;fill:rgb(99.998474%,82.351685%,0%);fill-opacity:1;stroke-width:0.247665;stroke-linecap:butt;stroke-linejoin:miter;stroke:rgb(93.72406%,54.116821%,6.274414%);stroke-opacity:1;stroke-miterlimit:4;" d="M 80.921875 8.183594 C 80.921875 8.183594 79.265625 7.554688 77.957031 8.195312 C 76.648438 8.835938 77.933594 10.167969 78.417969 10.035156 C 78.90625 9.902344 79.367188 8.8125 79.65625 8.691406 C 79.945312 8.574219 80.902344 8.550781 80.921875 8.183594 Z M 80.921875 8.183594 "/>
<path style="fill-rule:evenodd;fill:rgb(99.998474%,82.351685%,0%);fill-opacity:1;stroke-width:0.247665;stroke-linecap:butt;stroke-linejoin:miter;stroke:rgb(93.72406%,54.116821%,6.274414%);stroke-opacity:1;stroke-miterlimit:4;" d="M 75.265625 5.160156 C 75.265625 5.160156 73.863281 6.238281 73.71875 7.691406 C 73.578125 9.140625 75.386719 8.742188 75.53125 8.257812 C 75.671875 7.777344 74.984375 6.808594 75.035156 6.503906 C 75.085938 6.195312 75.570312 5.367188 75.265625 5.160156 Z M 75.265625 5.160156 "/>
<path style="fill-rule:evenodd;fill:rgb(99.998474%,82.351685%,0%);fill-opacity:1;stroke-width:0.247665;stroke-linecap:butt;stroke-linejoin:miter;stroke:rgb(93.72406%,54.116821%,6.274414%);stroke-opacity:1;stroke-miterlimit:4;" d="M 71.585938 4.273438 C 71.585938 4.273438 70.945312 5.925781 71.578125 7.238281 C 72.207031 8.554688 73.546875 7.273438 73.417969 6.789062 C 73.289062 6.300781 72.203125 5.832031 72.085938 5.542969 C 71.96875 5.253906 71.953125 4.296875 71.585938 4.273438 Z M 71.585938 4.273438 "/>
<path style="fill-rule:evenodd;fill:rgb(99.998474%,82.351685%,0%);fill-opacity:1;stroke-width:0.247665;stroke-linecap:butt;stroke-linejoin:miter;stroke:rgb(93.72406%,54.116821%,6.274414%);stroke-opacity:1;stroke-miterlimit:4;" d="M 61.140625 10.640625 C 61.140625 10.640625 62.285156 9.289062 62.121094 7.839844 C 61.953125 6.394531 60.269531 7.164062 60.230469 7.664062 C 60.195312 8.167969 61.066406 8.96875 61.085938 9.28125 C 61.101562 9.589844 60.800781 10.5 61.140625 10.640625 Z M 61.140625 10.640625 "/>
<path style=" stroke:none;fill-rule:evenodd;fill:rgb(54.901123%,54.116821%,54.901123%);fill-opacity:1;" d="M 67.375 13.542969 C 67.375 13.542969 70.121094 13.71875 70.257812 15.292969 C 70.390625 16.867188 69.605469 17.828125 69.605469 17.828125 C 69.605469 17.828125 69.949219 21.226562 67.261719 22.226562 C 64.378906 22.570312 59.867188 22.300781 59.867188 22.300781 C 59.867188 22.300781 58.542969 22.628906 58.003906 19.882812 C 57.464844 17.136719 57.3125 15.195312 57.3125 15.195312 C 57.3125 15.195312 57.582031 13.660156 59.519531 13.5625 C 61.460938 13.46875 67.355469 13.582031 67.375 13.542969 Z M 67.375 13.542969 "/>
<path style="fill:none;stroke-width:0.247665;stroke-linecap:butt;stroke-linejoin:miter;stroke:rgb(0%,0%,0%);stroke-opacity:1;stroke-miterlimit:4;" d="M 67.375 13.542969 C 67.375 13.542969 70.121094 13.714844 70.257812 15.292969 C 70.390625 16.867188 69.605469 17.828125 69.605469 17.828125 C 69.605469 17.828125 69.949219 21.226562 67.261719 22.226562 C 64.378906 22.570312 59.867188 22.300781 59.867188 22.300781 C 59.867188 22.300781 58.542969 22.628906 58.003906 19.882812 C 57.464844 17.136719 57.3125 15.195312 57.3125 15.195312 C 57.3125 15.195312 57.582031 13.660156 59.519531 13.5625 C 61.460938 13.46875 67.355469 13.582031 67.375 13.542969 Z M 67.375 13.542969 "/>
<path style="fill:none;stroke-width:0.247665;stroke-linecap:butt;stroke-linejoin:miter;stroke:rgb(0%,0%,0%);stroke-opacity:1;stroke-miterlimit:4;" d="M 69.585938 17.808594 C 69.585938 17.808594 68.105469 19.652344 68.257812 20.402344 "/>
<path style="fill-rule:evenodd;fill:rgb(54.901123%,54.116821%,54.901123%);fill-opacity:1;stroke-width:0.247665;stroke-linecap:butt;stroke-linejoin:miter;stroke:rgb(0%,0%,0%);stroke-opacity:1;stroke-miterlimit:4;" d="M 67.605469 22.128906 C 67.972656 22.4375 68.316406 22.78125 68.394531 23.914062 L 68.546875 26.183594 L 70.46875 43.46875 L 72.15625 55.96875 L 72.273438 57.910156 C 72.273438 57.910156 71.871094 59.332031 70.738281 59.449219 C 69.910156 61.175781 65.4375 61.675781 64.996094 61.65625 C 64.589844 61.636719 63.167969 61.042969 62.304688 61.117188 C 61.441406 61.195312 59.941406 61.769531 59.269531 61.675781 C 58.597656 61.578125 57.082031 61.0625 56.8125 59.964844 C 54.929688 59.371094 54.625 57.929688 54.625 57.929688 L 56.660156 43.46875 L 58.636719 25.183594 C 58.636719 25.183594 58.867188 22.742188 59.847656 22.378906 C 60.863281 22.28125 66.128906 22.476562 67.605469 22.128906 Z M 67.605469 22.128906 "/>
<path style="fill:none;stroke-width:0.247665;stroke-linecap:butt;stroke-linejoin:miter;stroke:rgb(0%,0%,0%);stroke-opacity:1;stroke-miterlimit:4;" d="M 57.234375 47.15625 L 56.832031 59.945312 "/>
<path style="fill:none;stroke-width:0.247665;stroke-linecap:butt;stroke-linejoin:miter;stroke:rgb(0%,0%,0%);stroke-opacity:1;stroke-miterlimit:4;" d="M 69.660156 48.84375 L 70.796875 59.390625 "/>
<path style="fill:none;stroke-width:0.129016;stroke-linecap:butt;stroke-linejoin:miter;stroke:rgb(0%,0%,0%);stroke-opacity:1;stroke-miterlimit:4;" d="M 36.804688 40.507812 L 36.765625 40.65625 "/>
<path style="fill:none;stroke-width:0.129016;stroke-linecap:butt;stroke-linejoin:miter;stroke:rgb(0%,0%,0%);stroke-opacity:1;stroke-miterlimit:4;" d="M 89.9375 40.046875 L 89.980469 40.191406 "/>
<path style="fill:none;stroke-width:0.247665;stroke-linecap:butt;stroke-linejoin:miter;stroke:rgb(41.960144%,9.411621%,70.979309%);stroke-opacity:1;stroke-miterlimit:4;" d="M 35.378906 23.238281 C 35.378906 23.238281 36.222656 24.402344 36.375 25.074219 C 36.523438 25.742188 36.804688 27.058594 37.171875 27.597656 C 37.539062 28.136719 39.632812 31.136719 39.738281 32.386719 C 39.761719 33.207031 38.875 34.609375 37.558594 34.632812 C 36.738281 34.609375 34.625 34.070312 34.539062 32.257812 C 34.453125 30.445312 35.1875 30.402344 35.273438 29.300781 C 35.359375 28.203125 35.378906 23.261719 35.378906 23.238281 Z M 35.378906 23.238281 "/>
<path style="fill:none;stroke-width:0.129016;stroke-linecap:butt;stroke-linejoin:miter;stroke:rgb(41.960144%,9.411621%,70.979309%);stroke-opacity:1;stroke-miterlimit:4;" d="M 49.835938 7.375 C 49.835938 7.375 48.964844 7.4375 48.296875 7.800781 C 47.773438 8.121094 46.894531 8.582031 46.28125 9.433594 C 44.714844 10.652344 42.359375 11.222656 41.617188 12.234375 C 41.175781 12.925781 41.203125 14.582031 42.316406 15.285156 C 43.027344 15.691406 45.113281 16.332031 46.128906 14.828125 C 47.144531 13.324219 46.539062 12.90625 47.039062 11.921875 C 47.859375 9.664062 49.824219 7.390625 49.835938 7.375 Z M 49.835938 7.375 "/>
<path style="fill:none;stroke-width:0.129016;stroke-linecap:butt;stroke-linejoin:miter;stroke:rgb(41.960144%,9.411621%,70.979309%);stroke-opacity:1;stroke-miterlimit:4;" d="M 70.96875 5.171875 C 70.96875 5.171875 70.316406 4.589844 69.589844 4.363281 C 69 4.210938 68.011719 4.277344 66.992188 4.175781 C 65.027344 3.902344 63.003906 2.480469 61.757812 2.652344 C 60.953125 2.8125 59.78125 3.984375 60.054688 5.273438 C 60.253906 6.066406 61.144531 7.675781 62.929688 7.359375 C 64.71875 7.042969 64.703125 6.652344 65.757812 6.324219 C 68.328125 4.882812 70.949219 5.179688 70.96875 5.171875 Z M 70.96875 5.171875 "/>
<path style="fill:none;stroke-width:0.129016;stroke-linecap:butt;stroke-linejoin:miter;stroke:rgb(41.960144%,9.411621%,70.979309%);stroke-opacity:1;stroke-miterlimit:4;" d="M 91.925781 25.542969 C 92.074219 25.207031 91.804688 24.578125 91.609375 23.839844 C 91.425781 23.257812 91.148438 22.355469 90.46875 21.554688 C 89.660156 19.742188 89.796875 17.257812 88.992188 16.292969 C 88.429688 15.695312 86.8125 15.324219 85.863281 16.238281 C 85.296875 16.828125 84.179688 18.703125 85.394531 20.050781 C 86.609375 21.394531 87.140625 20.890625 87.976562 21.609375 C 89.972656 22.949219 90.949219 25.296875 91.925781 25.542969 Z M 91.925781 25.542969 "/>
<path style="fill:none;stroke-width:0.129016;stroke-linecap:butt;stroke-linejoin:miter;stroke:rgb(41.960144%,9.411621%,70.979309%);stroke-opacity:1;stroke-miterlimit:4;" d="M 91.210938 41.367188 C 91.484375 40.992188 91.972656 40.265625 91.914062 39.660156 C 91.867188 39.179688 92.132812 37.726562 92.164062 37.09375 C 92.34375 35.117188 93.578125 33.511719 93.242188 31.796875 C 93.042969 31 91.878906 29.867188 90.605469 30.199219 C 89.820312 30.4375 88.074219 31.398438 88.476562 33.167969 C 88.878906 34.9375 89.453125 34.90625 89.832031 35.945312 C 90.914062 38.089844 90.222656 40.636719 91.210938 41.367188 Z M 91.210938 41.367188 "/>
<path style="fill:none;stroke-width:0.247665;stroke-linecap:butt;stroke-linejoin:miter;stroke:rgb(0%,0%,0%);stroke-opacity:1;stroke-miterlimit:4;" d="M 76.671875 53.929688 C 76.671875 53.929688 76.339844 54.574219 77.675781 55.140625 "/>
<path style="fill:none;stroke-width:0.247665;stroke-linecap:butt;stroke-linejoin:miter;stroke:rgb(0%,0%,0%);stroke-opacity:1;stroke-miterlimit:4;" d="M 79.351562 52.40625 C 79.351562 52.40625 80.847656 52.046875 81.851562 52.40625 "/>
<path style="fill:none;stroke-width:0.247665;stroke-linecap:butt;stroke-linejoin:miter;stroke:rgb(0%,0%,0%);stroke-opacity:1;stroke-miterlimit:4;" d="M 83.808594 48.648438 C 83.808594 48.671875 83.601562 49.316406 84.789062 50.246094 "/>
<path style="fill:none;stroke-width:0.247665;stroke-linecap:butt;stroke-linejoin:miter;stroke:rgb(0%,0%,0%);stroke-opacity:1;stroke-miterlimit:4;" d="M 84.660156 46.972656 C 84.660156 46.972656 85.535156 47.617188 87.003906 47.589844 "/>
<path style="fill:none;stroke-width:0.247665;stroke-linecap:butt;stroke-linejoin:miter;stroke:rgb(0%,0%,0%);stroke-opacity:1;stroke-miterlimit:4;" d="M 75.824219 48.851562 C 75.824219 48.851562 75.875 50.554688 75 51.351562 "/>
<path style="fill:none;stroke-width:0.247665;stroke-linecap:butt;stroke-linejoin:miter;stroke:rgb(0%,0%,0%);stroke-opacity:1;stroke-miterlimit:4;" d="M 78.757812 46.226562 C 78.757812 46.226562 80.203125 46.585938 81.386719 45.992188 "/>
<path style="fill:none;stroke-width:0.247665;stroke-linecap:butt;stroke-linejoin:miter;stroke:rgb(0%,0%,0%);stroke-opacity:1;stroke-miterlimit:4;" d="M 88.007812 43.726562 C 88.007812 43.726562 88.316406 44.164062 89.914062 44.085938 "/>
<path style="fill:none;stroke-width:0.247665;stroke-linecap:butt;stroke-linejoin:miter;stroke:rgb(0%,0%,0%);stroke-opacity:1;stroke-miterlimit:4;" d="M 81.773438 42.722656 C 81.824219 42.75 83.65625 43.339844 84.8125 42.800781 "/>
<path style="fill:none;stroke-width:0.247665;stroke-linecap:butt;stroke-linejoin:miter;stroke:rgb(0%,0%,0%);stroke-opacity:1;stroke-miterlimit:4;" d="M 85.433594 35.714844 C 85.433594 35.714844 85.507812 35.613281 86.074219 37.59375 "/>
<path style="fill:none;stroke-width:0.247665;stroke-linecap:butt;stroke-linejoin:miter;stroke:rgb(0%,0%,0%);stroke-opacity:1;stroke-miterlimit:4;" d="M 86.847656 30.125 C 86.847656 30.125 86.769531 31.179688 85.921875 31.644531 "/>
<path style="fill:none;stroke-width:0.247665;stroke-linecap:butt;stroke-linejoin:miter;stroke:rgb(0%,0%,0%);stroke-opacity:1;stroke-miterlimit:4;" d="M 92.285156 25.796875 C 92.285156 25.796875 91.046875 26.800781 91.28125 27.214844 "/>
<path style="fill:none;stroke-width:0.247665;stroke-linecap:butt;stroke-linejoin:miter;stroke:rgb(0%,0%,0%);stroke-opacity:1;stroke-miterlimit:4;" d="M 86.128906 25.074219 C 86.128906 25.074219 86.769531 26.15625 85.714844 26.90625 "/>
<path style="fill:none;stroke-width:0.247665;stroke-linecap:butt;stroke-linejoin:miter;stroke:rgb(0%,0%,0%);stroke-opacity:1;stroke-miterlimit:4;" d="M 83.011719 20.4375 C 83.011719 20.4375 84.117188 20.386719 84.609375 21.339844 "/>
<path style="fill:none;stroke-width:0.247665;stroke-linecap:butt;stroke-linejoin:miter;stroke:rgb(0%,0%,0%);stroke-opacity:1;stroke-miterlimit:4;" d="M 80.921875 17.296875 L 81.773438 17.296875 "/>
<path style="fill:none;stroke-width:0.247665;stroke-linecap:butt;stroke-linejoin:miter;stroke:rgb(0%,0%,0%);stroke-opacity:1;stroke-miterlimit:4;" d="M 85.328125 13.433594 C 85.328125 13.457031 85.5625 13.664062 85.121094 14.101562 "/>
<path style="fill:none;stroke-width:0.247665;stroke-linecap:butt;stroke-linejoin:miter;stroke:rgb(0%,0%,0%);stroke-opacity:1;stroke-miterlimit:4;" d="M 77.421875 13.535156 C 77.421875 13.535156 78.011719 14.460938 77.910156 15.59375 "/>
<path style="fill:none;stroke-width:0.247665;stroke-linecap:butt;stroke-linejoin:miter;stroke:rgb(0%,0%,0%);stroke-opacity:1;stroke-miterlimit:4;" d="M 80.847656 10.390625 C 81.105469 10.367188 81.980469 9.980469 81.980469 9.980469 "/>
<path style="fill:none;stroke-width:0.247665;stroke-linecap:butt;stroke-linejoin:miter;stroke:rgb(0%,0%,0%);stroke-opacity:1;stroke-miterlimit:4;" d="M 77.035156 6.707031 C 77.007812 6.707031 76.699219 7.867188 77.265625 8.28125 "/>
<path style="fill:none;stroke-width:0.247665;stroke-linecap:butt;stroke-linejoin:miter;stroke:rgb(0%,0%,0%);stroke-opacity:1;stroke-miterlimit:4;" d="M 75.617188 11.988281 C 75.617188 13.226562 76.59375 12.917969 75.925781 14.101562 "/>
<path style="fill:none;stroke-width:0.247665;stroke-linecap:butt;stroke-linejoin:miter;stroke:rgb(0%,0%,0%);stroke-opacity:1;stroke-miterlimit:4;" d="M 73.21875 10.957031 C 73.195312 10.957031 71.675781 12.144531 71.675781 12.351562 "/>
<path style="fill:none;stroke-width:0.247665;stroke-linecap:butt;stroke-linejoin:miter;stroke:rgb(0%,0%,0%);stroke-opacity:1;stroke-miterlimit:4;" d="M 69.253906 10.3125 C 69.253906 10.3125 69.898438 10.957031 69.742188 11.835938 "/>
<path style="fill:none;stroke-width:0.247665;stroke-linecap:butt;stroke-linejoin:miter;stroke:rgb(0%,0%,0%);stroke-opacity:1;stroke-miterlimit:4;" d="M 67.375 9.800781 C 67.375 9.800781 67.039062 10.777344 66.601562 11.035156 "/>
<path style="fill:none;stroke-width:0.247665;stroke-linecap:butt;stroke-linejoin:miter;stroke:rgb(0%,0%,0%);stroke-opacity:1;stroke-miterlimit:4;" d="M 63.945312 9.542969 C 63.921875 9.59375 63.40625 10.703125 63.046875 10.90625 "/>
<path style="fill:none;stroke-width:0.247665;stroke-linecap:butt;stroke-linejoin:miter;stroke:rgb(0%,0%,0%);stroke-opacity:1;stroke-miterlimit:4;" d="M 59.257812 9.566406 C 59.285156 9.566406 59.773438 10.597656 59.128906 11.34375 "/>
<path style="fill:none;stroke-width:0.247665;stroke-linecap:butt;stroke-linejoin:miter;stroke:rgb(0%,0%,0%);stroke-opacity:1;stroke-miterlimit:4;" d="M 58.175781 4.234375 C 58.203125 4.261719 58.28125 5.035156 57.789062 5.703125 "/>
<path style="fill:none;stroke-width:0.247665;stroke-linecap:butt;stroke-linejoin:miter;stroke:rgb(0%,0%,0%);stroke-opacity:1;stroke-miterlimit:4;" d="M 53.539062 5.988281 C 53.539062 6.011719 53.746094 6.863281 52.378906 7.144531 "/>
<path style="fill:none;stroke-width:0.247665;stroke-linecap:butt;stroke-linejoin:miter;stroke:rgb(0%,0%,0%);stroke-opacity:1;stroke-miterlimit:4;" d="M 50.910156 13.84375 C 50.9375 13.894531 52.226562 14.101562 52.226562 14.101562 "/>
<path style="fill:none;stroke-width:0.247665;stroke-linecap:butt;stroke-linejoin:miter;stroke:rgb(0%,0%,0%);stroke-opacity:1;stroke-miterlimit:4;" d="M 47.691406 16.832031 C 47.71875 16.804688 49.261719 16.34375 49.261719 16.34375 "/>
<path style="fill:none;stroke-width:0.247665;stroke-linecap:butt;stroke-linejoin:miter;stroke:rgb(0%,0%,0%);stroke-opacity:1;stroke-miterlimit:4;" d="M 45.191406 18.765625 C 45.246094 18.765625 46.273438 18.945312 46.53125 18.816406 "/>
<path style="fill:none;stroke-width:0.247665;stroke-linecap:butt;stroke-linejoin:miter;stroke:rgb(0%,0%,0%);stroke-opacity:1;stroke-miterlimit:4;" d="M 44.472656 19.71875 C 44.472656 19.71875 44.804688 19.898438 44.523438 21.625 "/>
<path style="fill:none;stroke-width:0.247665;stroke-linecap:butt;stroke-linejoin:miter;stroke:rgb(0%,0%,0%);stroke-opacity:1;stroke-miterlimit:4;" d="M 39.449219 15.183594 L 40.066406 16.109375 "/>
<path style="fill:none;stroke-width:0.247665;stroke-linecap:butt;stroke-linejoin:miter;stroke:rgb(0%,0%,0%);stroke-opacity:1;stroke-miterlimit:4;" d="M 37.335938 19.949219 C 37.335938 19.921875 37.953125 20.875 38.777344 21.058594 "/>
<path style="fill:none;stroke-width:0.247665;stroke-linecap:butt;stroke-linejoin:miter;stroke:rgb(0%,0%,0%);stroke-opacity:1;stroke-miterlimit:4;" d="M 42.203125 24.792969 C 42.230469 24.792969 43.210938 24.585938 43.363281 24.484375 "/>
<path style="fill:none;stroke-width:0.247665;stroke-linecap:butt;stroke-linejoin:miter;stroke:rgb(0%,0%,0%);stroke-opacity:1;stroke-miterlimit:4;" d="M 41.765625 28.296875 C 41.792969 28.296875 41.742188 27.652344 42.539062 27.214844 "/>
<path style="fill:none;stroke-width:0.247665;stroke-linecap:butt;stroke-linejoin:miter;stroke:rgb(0%,0%,0%);stroke-opacity:1;stroke-miterlimit:4;" d="M 40.710938 29.894531 C 40.710938 29.917969 41.457031 30.847656 41.972656 30.976562 "/>
<path style="fill:none;stroke-width:0.247665;stroke-linecap:butt;stroke-linejoin:miter;stroke:rgb(0%,0%,0%);stroke-opacity:1;stroke-miterlimit:4;" d="M 40.273438 31.671875 C 40.347656 31.644531 41.148438 30.949219 42.074219 31 "/>
<path style="fill:none;stroke-width:0.247665;stroke-linecap:butt;stroke-linejoin:miter;stroke:rgb(0%,0%,0%);stroke-opacity:1;stroke-miterlimit:4;" d="M 40.015625 34.066406 C 40.015625 34.066406 40.039062 34.863281 42.410156 34.660156 "/>
<path style="fill:none;stroke-width:0.247665;stroke-linecap:butt;stroke-linejoin:miter;stroke:rgb(0%,0%,0%);stroke-opacity:1;stroke-miterlimit:4;" d="M 40.246094 36.875 C 40.246094 36.847656 40.941406 35.277344 42.359375 34.683594 "/>
<path style="fill:none;stroke-width:0.247665;stroke-linecap:butt;stroke-linejoin:miter;stroke:rgb(0%,0%,0%);stroke-opacity:1;stroke-miterlimit:4;" d="M 42.152344 38.882812 C 42.152344 38.882812 42.359375 38.214844 43.542969 37.75 "/>
<path style="fill:none;stroke-width:0.247665;stroke-linecap:butt;stroke-linejoin:miter;stroke:rgb(0%,0%,0%);stroke-opacity:1;stroke-miterlimit:4;" d="M 43.46875 41.535156 C 43.46875 41.535156 44.316406 40.84375 44.625 40.738281 "/>
<path style="fill:none;stroke-width:0.247665;stroke-linecap:butt;stroke-linejoin:miter;stroke:rgb(0%,0%,0%);stroke-opacity:1;stroke-miterlimit:4;" d="M 44.523438 43.597656 C 44.523438 43.597656 45.039062 44.140625 46.328125 43.210938 "/>
<path style="fill:none;stroke-width:0.247665;stroke-linecap:butt;stroke-linejoin:miter;stroke:rgb(0%,0%,0%);stroke-opacity:1;stroke-miterlimit:4;" d="M 38.3125 44.035156 C 38.46875 44.011719 40.347656 43.574219 40.992188 44.550781 "/>
<path style="fill:none;stroke-width:0.247665;stroke-linecap:butt;stroke-linejoin:miter;stroke:rgb(0%,0%,0%);stroke-opacity:1;stroke-miterlimit:4;" d="M 39.0625 45.582031 C 39.0625 45.582031 41.046875 45.324219 41.300781 45.53125 "/>
<path style="fill:none;stroke-width:0.247665;stroke-linecap:butt;stroke-linejoin:miter;stroke:rgb(0%,0%,0%);stroke-opacity:1;stroke-miterlimit:4;" d="M 46.144531 45.992188 C 46.144531 45.992188 45.886719 46.535156 48.335938 45.632812 "/>
<path style="fill:none;stroke-width:0.247665;stroke-linecap:butt;stroke-linejoin:miter;stroke:rgb(0%,0%,0%);stroke-opacity:1;stroke-miterlimit:4;" d="M 49.1875 46.972656 C 48.746094 47.71875 49.289062 48.3125 48.722656 48.648438 "/>
<path style="fill:none;stroke-width:0.247665;stroke-linecap:butt;stroke-linejoin:miter;stroke:rgb(0%,0%,0%);stroke-opacity:1;stroke-miterlimit:4;" d="M 41.742188 48.003906 C 41.816406 47.953125 42.640625 47.667969 42.515625 46.484375 "/>
<path style="fill:none;stroke-width:0.247665;stroke-linecap:butt;stroke-linejoin:miter;stroke:rgb(0%,0%,0%);stroke-opacity:1;stroke-miterlimit:4;" d="M 42.488281 49.78125 C 42.589844 49.753906 43.957031 49.164062 44.238281 49.472656 "/>
<path style="fill:none;stroke-width:0.247665;stroke-linecap:butt;stroke-linejoin:miter;stroke:rgb(0%,0%,0%);stroke-opacity:1;stroke-miterlimit:4;" d="M 45.167969 51.507812 C 45.167969 51.507812 45.347656 50.296875 45.734375 50.167969 "/>
<path style="fill:none;stroke-width:0.247665;stroke-linecap:butt;stroke-linejoin:miter;stroke:rgb(0%,0%,0%);stroke-opacity:1;stroke-miterlimit:4;" d="M 47.226562 53.335938 C 47.226562 53.335938 48.359375 53.308594 48.851562 52.949219 "/>
<path style="fill:none;stroke-width:0.247665;stroke-linecap:butt;stroke-linejoin:miter;stroke:rgb(0%,0%,0%);stroke-opacity:1;stroke-miterlimit:4;" d="M 49.417969 49.238281 C 49.441406 49.265625 50.472656 49.804688 52.664062 49.265625 "/>
<path style="fill:none;stroke-width:0.247665;stroke-linecap:butt;stroke-linejoin:miter;stroke:rgb(0%,0%,0%);stroke-opacity:1;stroke-miterlimit:4;" d="M 50.242188 54.160156 C 50.242188 54.160156 50.550781 55.730469 50.523438 56.09375 "/>
<path style="fill-rule:evenodd;fill:rgb(87.057495%,12.548828%,6.274414%);fill-opacity:1;stroke-width:0.301402;stroke-linecap:butt;stroke-linejoin:miter;stroke:rgb(0%,0%,0%);stroke-opacity:1;stroke-miterlimit:4;" d="M 89.808594 29.996094 C 89.742188 29.480469 89.492188 29.023438 89.152344 28.804688 C 88.8125 28.582031 88.429688 28.628906 88.15625 28.929688 C 87.878906 29.226562 87.75 29.730469 87.8125 30.246094 C 87.878906 30.765625 88.128906 31.21875 88.46875 31.441406 C 88.808594 31.660156 89.191406 31.613281 89.464844 31.316406 C 89.742188 31.019531 89.871094 30.515625 89.808594 29.996094 Z M 89.808594 29.996094 "/>
<path style=" stroke:none;fill-rule:evenodd;fill:rgb(87.057495%,12.548828%,6.274414%);fill-opacity:1;" d="M 89.59375 27.378906 C 89.53125 26.863281 89.28125 26.40625 88.9375 26.1875 C 88.597656 25.964844 88.21875 26.011719 87.941406 26.3125 C 87.664062 26.609375 87.535156 27.109375 87.601562 27.628906 C 87.664062 28.148438 87.914062 28.601562 88.257812 28.824219 C 88.597656 29.046875 88.976562 28.996094 89.253906 28.699219 C 89.53125 28.402344 89.660156 27.898438 89.59375 27.378906 Z M 89.59375 27.378906 "/>
<path style="fill:none;stroke-width:0.301402;stroke-linecap:butt;stroke-linejoin:miter;stroke:rgb(0%,0%,0%);stroke-opacity:1;stroke-miterlimit:4;" d="M 89.59375 27.378906 C 89.53125 26.863281 89.28125 26.40625 88.9375 26.1875 C 88.597656 25.964844 88.21875 26.011719 87.941406 26.3125 C 87.664062 26.609375 87.535156 27.109375 87.601562 27.628906 C 87.664062 28.148438 87.914062 28.601562 88.257812 28.824219 C 88.597656 29.042969 88.976562 28.996094 89.253906 28.699219 C 89.53125 28.402344 89.660156 27.898438 89.59375 27.378906 Z M 89.59375 27.378906 "/>
<path style="fill-rule:evenodd;fill:rgb(87.057495%,12.548828%,6.274414%);fill-opacity:1;stroke-width:0.293091;stroke-linecap:butt;stroke-linejoin:miter;stroke:rgb(0%,0%,0%);stroke-opacity:1;stroke-miterlimit:4;" d="M 89.0625 24.585938 C 88.953125 24.074219 88.664062 23.640625 88.304688 23.453125 C 87.945312 23.261719 87.570312 23.34375 87.320312 23.664062 C 87.074219 23.984375 86.988281 24.5 87.097656 25.007812 C 87.207031 25.519531 87.496094 25.949219 87.855469 26.140625 C 88.214844 26.332031 88.589844 26.25 88.839844 25.929688 C 89.085938 25.609375 89.171875 25.09375 89.0625 24.585938 Z M 89.0625 24.585938 "/>
<path style="fill-rule:evenodd;fill:rgb(87.057495%,12.548828%,6.274414%);fill-opacity:1;stroke-width:0.238934;stroke-linecap:butt;stroke-linejoin:miter;stroke:rgb(0%,0%,0%);stroke-opacity:1;stroke-miterlimit:4;" d="M 88.09375 21.664062 C 87.855469 21.199219 87.46875 20.855469 87.070312 20.761719 C 86.675781 20.667969 86.335938 20.84375 86.175781 21.21875 C 86.015625 21.589844 86.066406 22.109375 86.300781 22.574219 C 86.539062 23.039062 86.929688 23.382812 87.324219 23.476562 C 87.71875 23.566406 88.0625 23.394531 88.21875 23.019531 C 88.378906 22.644531 88.328125 22.128906 88.09375 21.664062 Z M 88.09375 21.664062 "/>
<path style=" stroke:none;fill-rule:evenodd;fill:rgb(87.057495%,12.548828%,6.274414%);fill-opacity:1;" d="M 87.058594 19.320312 C 86.820312 18.855469 86.433594 18.511719 86.039062 18.417969 C 85.640625 18.328125 85.300781 18.5 85.140625 18.875 C 84.984375 19.25 85.03125 19.765625 85.265625 20.230469 C 85.503906 20.695312 85.894531 21.039062 86.289062 21.132812 C 86.683594 21.222656 87.027344 21.050781 87.183594 20.675781 C 87.34375 20.304688 87.296875 19.785156 87.058594 19.320312 Z M 87.058594 19.320312 "/>
<path style="fill:none;stroke-width:0.238934;stroke-linecap:butt;stroke-linejoin:miter;stroke:rgb(0%,0%,0%);stroke-opacity:1;stroke-miterlimit:4;" d="M 87.058594 19.320312 C 86.820312 18.855469 86.433594 18.511719 86.039062 18.417969 C 85.640625 18.328125 85.300781 18.5 85.140625 18.875 C 84.980469 19.25 85.03125 19.765625 85.265625 20.230469 C 85.503906 20.695312 85.894531 21.039062 86.289062 21.132812 C 86.683594 21.222656 87.027344 21.050781 87.183594 20.675781 C 87.34375 20.304688 87.296875 19.785156 87.058594 19.320312 Z M 87.058594 19.320312 "/>
<path style=" stroke:none;fill-rule:evenodd;fill:rgb(87.057495%,12.548828%,6.274414%);fill-opacity:1;" d="M 85.585938 16.964844 C 85.3125 16.519531 84.894531 16.210938 84.492188 16.152344 C 84.089844 16.09375 83.765625 16.296875 83.640625 16.683594 C 83.511719 17.066406 83.605469 17.578125 83.878906 18.023438 C 84.152344 18.464844 84.570312 18.777344 84.972656 18.835938 C 85.375 18.890625 85.699219 18.691406 85.828125 18.304688 C 85.953125 17.917969 85.863281 17.40625 85.585938 16.964844 Z M 85.585938 16.964844 "/>
<path style="fill:none;stroke-width:0.209447;stroke-linecap:butt;stroke-linejoin:miter;stroke:rgb(0%,0%,0%);stroke-opacity:1;stroke-miterlimit:4;" d="M 85.585938 16.964844 C 85.3125 16.519531 84.894531 16.210938 84.492188 16.152344 C 84.089844 16.09375 83.765625 16.296875 83.640625 16.683594 C 83.511719 17.066406 83.605469 17.578125 83.878906 18.023438 C 84.152344 18.464844 84.570312 18.777344 84.972656 18.835938 C 85.375 18.890625 85.699219 18.691406 85.828125 18.304688 C 85.953125 17.917969 85.863281 17.410156 85.585938 16.964844 Z M 85.585938 16.964844 "/>
<path style="fill-rule:evenodd;fill:rgb(87.057495%,12.548828%,6.274414%);fill-opacity:1;stroke-width:0.165086;stroke-linecap:butt;stroke-linejoin:miter;stroke:rgb(0%,0%,0%);stroke-opacity:1;stroke-miterlimit:4;" d="M 83.949219 14.691406 C 83.632812 14.277344 83.1875 14.011719 82.78125 13.992188 C 82.375 13.972656 82.070312 14.203125 81.984375 14.601562 C 81.894531 14.996094 82.035156 15.496094 82.351562 15.910156 C 82.667969 16.328125 83.113281 16.59375 83.519531 16.613281 C 83.925781 16.632812 84.230469 16.402344 84.316406 16.003906 C 84.40625 15.609375 84.265625 15.109375 83.949219 14.691406 Z M 83.949219 14.691406 "/>
<path style="fill-rule:evenodd;fill:rgb(87.057495%,12.548828%,6.274414%);fill-opacity:1;stroke-width:0.0241323;stroke-linecap:butt;stroke-linejoin:miter;stroke:rgb(0%,0%,0%);stroke-opacity:1;stroke-miterlimit:4;" d="M 81.996094 12.574219 C 81.621094 12.210938 81.144531 12.007812 80.738281 12.050781 C 80.335938 12.089844 80.066406 12.363281 80.035156 12.769531 C 80.007812 13.171875 80.21875 13.648438 80.59375 14.011719 C 80.964844 14.378906 81.445312 14.578125 81.847656 14.539062 C 82.253906 14.5 82.519531 14.222656 82.550781 13.820312 C 82.582031 13.414062 82.371094 12.941406 81.996094 12.574219 Z M 81.996094 12.574219 "/>
<path style="fill-rule:evenodd;fill:rgb(87.057495%,12.548828%,6.274414%);fill-opacity:1;stroke-width:0.128354;stroke-linecap:butt;stroke-linejoin:miter;stroke:rgb(0%,0%,0%);stroke-opacity:1;stroke-miterlimit:4;" d="M 79.796875 10.628906 C 79.390625 10.296875 78.894531 10.140625 78.496094 10.21875 C 78.097656 10.296875 77.855469 10.59375 77.863281 11 C 77.871094 11.40625 78.125 11.859375 78.53125 12.1875 C 78.9375 12.515625 79.433594 12.671875 79.832031 12.59375 C 80.230469 12.519531 80.472656 12.21875 80.464844 11.816406 C 80.457031 11.410156 80.203125 10.957031 79.796875 10.628906 Z M 79.796875 10.628906 "/>
<path style="fill-rule:evenodd;fill:rgb(87.057495%,12.548828%,6.274414%);fill-opacity:1;stroke-width:0.21344;stroke-linecap:butt;stroke-linejoin:miter;stroke:rgb(0%,0%,0%);stroke-opacity:1;stroke-miterlimit:4;" d="M 77.46875 9.074219 C 77.011719 8.816406 76.5 8.742188 76.117188 8.886719 C 75.738281 9.027344 75.546875 9.359375 75.625 9.761719 C 75.699219 10.160156 76.023438 10.5625 76.480469 10.820312 C 76.933594 11.078125 77.449219 11.148438 77.828125 11.007812 C 78.207031 10.867188 78.398438 10.53125 78.324219 10.132812 C 78.25 9.734375 77.921875 9.328125 77.46875 9.074219 Z M 77.46875 9.074219 "/>
<path style=" stroke:none;fill-rule:evenodd;fill:rgb(87.057495%,12.548828%,6.274414%);fill-opacity:1;" d="M 74.859375 7.691406 C 74.382812 7.476562 73.863281 7.453125 73.5 7.628906 C 73.132812 7.804688 72.976562 8.15625 73.085938 8.546875 C 73.195312 8.933594 73.558594 9.308594 74.035156 9.523438 C 74.511719 9.738281 75.03125 9.761719 75.394531 9.585938 C 75.761719 9.410156 75.917969 9.0625 75.808594 8.667969 C 75.699219 8.28125 75.335938 7.90625 74.859375 7.691406 Z M 74.859375 7.691406 "/>
<path style="fill:none;stroke-width:0.24395;stroke-linecap:butt;stroke-linejoin:miter;stroke:rgb(0%,0%,0%);stroke-opacity:1;stroke-miterlimit:4;" d="M 74.859375 7.691406 C 74.382812 7.476562 73.863281 7.453125 73.5 7.628906 C 73.132812 7.804688 72.976562 8.152344 73.085938 8.546875 C 73.195312 8.933594 73.558594 9.308594 74.035156 9.523438 C 74.511719 9.738281 75.03125 9.761719 75.394531 9.585938 C 75.761719 9.410156 75.917969 9.0625 75.808594 8.671875 C 75.699219 8.28125 75.335938 7.90625 74.859375 7.691406 Z M 74.859375 7.691406 "/>
<path style="fill-rule:evenodd;fill:rgb(87.057495%,12.548828%,6.274414%);fill-opacity:1;stroke-width:0.261817;stroke-linecap:butt;stroke-linejoin:miter;stroke:rgb(0%,0%,0%);stroke-opacity:1;stroke-miterlimit:4;" d="M 72.300781 6.664062 C 71.8125 6.480469 71.292969 6.492188 70.941406 6.691406 C 70.585938 6.890625 70.453125 7.25 70.589844 7.632812 C 70.726562 8.015625 71.113281 8.363281 71.601562 8.542969 C 72.089844 8.726562 72.609375 8.714844 72.964844 8.515625 C 73.316406 8.316406 73.449219 7.957031 73.3125 7.574219 C 73.175781 7.191406 72.792969 6.84375 72.300781 6.664062 Z M 72.300781 6.664062 "/>
<path style="fill-rule:evenodd;fill:rgb(87.057495%,12.548828%,6.274414%);fill-opacity:1;stroke-width:0.278082;stroke-linecap:butt;stroke-linejoin:miter;stroke:rgb(0%,0%,0%);stroke-opacity:1;stroke-miterlimit:4;" d="M 69.703125 5.847656 C 69.203125 5.703125 68.683594 5.753906 68.347656 5.980469 C 68.011719 6.207031 67.90625 6.574219 68.070312 6.945312 C 68.234375 7.316406 68.644531 7.632812 69.148438 7.777344 C 69.648438 7.921875 70.167969 7.871094 70.503906 7.644531 C 70.839844 7.417969 70.949219 7.050781 70.78125 6.679688 C 70.617188 6.308594 70.207031 5.992188 69.703125 5.847656 Z M 69.703125 5.847656 "/>
<path style="fill-rule:evenodd;fill:rgb(87.057495%,12.548828%,6.274414%);fill-opacity:1;stroke-width:0.299031;stroke-linecap:butt;stroke-linejoin:miter;stroke:rgb(0%,0%,0%);stroke-opacity:1;stroke-miterlimit:4;" d="M 66.84375 5.359375 C 66.324219 5.292969 65.824219 5.421875 65.523438 5.699219 C 65.226562 5.972656 65.179688 6.355469 65.398438 6.695312 C 65.617188 7.035156 66.074219 7.285156 66.59375 7.351562 C 67.109375 7.417969 67.613281 7.289062 67.910156 7.011719 C 68.210938 6.738281 68.257812 6.355469 68.035156 6.015625 C 67.816406 5.675781 67.363281 5.425781 66.84375 5.359375 Z M 66.84375 5.359375 "/>
<path style="fill-rule:evenodd;fill:rgb(87.057495%,12.548828%,6.274414%);fill-opacity:1;stroke-width:0.304138;stroke-linecap:butt;stroke-linejoin:miter;stroke:rgb(0%,0%,0%);stroke-opacity:1;stroke-miterlimit:4;" d="M 64.019531 5.199219 C 63.496094 5.179688 63.007812 5.351562 62.734375 5.652344 C 62.460938 5.949219 62.445312 6.332031 62.691406 6.65625 C 62.941406 6.976562 63.417969 7.1875 63.9375 7.207031 C 64.460938 7.226562 64.949219 7.054688 65.222656 6.757812 C 65.5 6.457031 65.511719 6.074219 65.265625 5.753906 C 65.015625 5.429688 64.542969 5.21875 64.019531 5.199219 Z M 64.019531 5.199219 "/>
<path style=" stroke:none;fill-rule:evenodd;fill:rgb(87.057495%,12.548828%,6.274414%);fill-opacity:1;" d="M 61.433594 5.292969 C 60.910156 5.269531 60.421875 5.441406 60.148438 5.742188 C 59.875 6.042969 59.859375 6.425781 60.105469 6.746094 C 60.355469 7.066406 60.832031 7.277344 61.351562 7.296875 C 61.875 7.320312 62.363281 7.148438 62.636719 6.847656 C 62.910156 6.546875 62.925781 6.164062 62.679688 5.84375 C 62.429688 5.523438 61.953125 5.3125 61.433594 5.292969 Z M 61.433594 5.292969 "/>
<path style="fill:none;stroke-width:0.304138;stroke-linecap:butt;stroke-linejoin:miter;stroke:rgb(0%,0%,0%);stroke-opacity:1;stroke-miterlimit:4;" d="M 61.433594 5.292969 C 60.910156 5.269531 60.421875 5.441406 60.148438 5.742188 C 59.875 6.042969 59.859375 6.425781 60.105469 6.746094 C 60.355469 7.066406 60.828125 7.277344 61.351562 7.296875 C 61.875 7.320312 62.363281 7.148438 62.636719 6.847656 C 62.910156 6.546875 62.925781 6.164062 62.679688 5.84375 C 62.429688 5.523438 61.953125 5.3125 61.433594 5.292969 Z M 61.433594 5.292969 "/>
<path style="fill-rule:evenodd;fill:rgb(87.057495%,12.548828%,6.274414%);fill-opacity:1;stroke-width:0.291531;stroke-linecap:butt;stroke-linejoin:miter;stroke:rgb(0%,0%,0%);stroke-opacity:1;stroke-miterlimit:4;" d="M 58.398438 5.652344 C 57.890625 5.765625 57.460938 6.0625 57.277344 6.421875 C 57.089844 6.78125 57.175781 7.15625 57.5 7.402344 C 57.824219 7.644531 58.339844 7.726562 58.847656 7.609375 C 59.355469 7.492188 59.785156 7.199219 59.96875 6.835938 C 60.15625 6.476562 60.070312 6.101562 59.746094 5.859375 C 59.421875 5.613281 58.910156 5.535156 58.398438 5.652344 Z M 58.398438 5.652344 "/>
<path style="fill-rule:evenodd;fill:rgb(87.057495%,12.548828%,6.274414%);fill-opacity:1;stroke-width:0.278569;stroke-linecap:butt;stroke-linejoin:miter;stroke:rgb(0%,0%,0%);stroke-opacity:1;stroke-miterlimit:4;" d="M 55.640625 6.34375 C 55.144531 6.5 54.742188 6.828125 54.585938 7.203125 C 54.429688 7.578125 54.546875 7.945312 54.890625 8.160156 C 55.234375 8.378906 55.75 8.414062 56.25 8.257812 C 56.746094 8.097656 57.148438 7.769531 57.304688 7.394531 C 57.460938 7.019531 57.34375 6.65625 57 6.4375 C 56.65625 6.21875 56.140625 6.183594 55.640625 6.34375 Z M 55.640625 6.34375 "/>
<path style="fill-rule:evenodd;fill:rgb(87.057495%,12.548828%,6.274414%);fill-opacity:1;stroke-width:0.251493;stroke-linecap:butt;stroke-linejoin:miter;stroke:rgb(0%,0%,0%);stroke-opacity:1;stroke-miterlimit:4;" d="M 53.125 7.417969 C 52.648438 7.636719 52.289062 8.007812 52.179688 8.402344 C 52.070312 8.792969 52.230469 9.140625 52.597656 9.316406 C 52.964844 9.488281 53.480469 9.464844 53.957031 9.25 C 54.433594 9.03125 54.792969 8.65625 54.902344 8.265625 C 55.011719 7.875 54.851562 7.527344 54.484375 7.351562 C 54.121094 7.175781 53.601562 7.203125 53.125 7.417969 Z M 53.125 7.417969 "/>
<path style="fill-rule:evenodd;fill:rgb(87.057495%,12.548828%,6.274414%);fill-opacity:1;stroke-width:0.225217;stroke-linecap:butt;stroke-linejoin:miter;stroke:rgb(0%,0%,0%);stroke-opacity:1;stroke-miterlimit:4;" d="M 50.613281 8.707031 C 50.160156 8.960938 49.832031 9.363281 49.757812 9.765625 C 49.679688 10.164062 49.867188 10.496094 50.25 10.640625 C 50.628906 10.78125 51.144531 10.714844 51.597656 10.457031 C 52.054688 10.203125 52.382812 9.796875 52.457031 9.398438 C 52.53125 9 52.34375 8.664062 51.964844 8.523438 C 51.585938 8.378906 51.070312 8.449219 50.613281 8.707031 Z M 50.613281 8.707031 "/>
<path style="fill-rule:evenodd;fill:rgb(87.057495%,12.548828%,6.274414%);fill-opacity:1;stroke-width:0.18074;stroke-linecap:butt;stroke-linejoin:miter;stroke:rgb(0%,0%,0%);stroke-opacity:1;stroke-miterlimit:4;" d="M 48.238281 10.316406 C 47.816406 10.621094 47.535156 11.058594 47.5 11.460938 C 47.46875 11.867188 47.691406 12.179688 48.085938 12.277344 C 48.480469 12.378906 48.984375 12.253906 49.410156 11.949219 C 49.832031 11.648438 50.113281 11.210938 50.148438 10.804688 C 50.179688 10.398438 49.957031 10.089844 49.5625 9.988281 C 49.167969 9.886719 48.664062 10.011719 48.238281 10.316406 Z M 48.238281 10.316406 "/>
<path style=" stroke:none;fill-rule:evenodd;fill:rgb(87.057495%,12.548828%,6.274414%);fill-opacity:1;" d="M 46.042969 11.980469 C 45.644531 12.320312 45.402344 12.777344 45.40625 13.183594 C 45.40625 13.589844 45.65625 13.882812 46.054688 13.949219 C 46.457031 14.015625 46.949219 13.847656 47.34375 13.511719 C 47.742188 13.171875 47.988281 12.714844 47.984375 12.308594 C 47.980469 11.902344 47.734375 11.609375 47.332031 11.542969 C 46.933594 11.476562 46.441406 11.640625 46.042969 11.980469 Z M 46.042969 11.980469 "/>
<path style="fill:none;stroke-width:0.13231;stroke-linecap:butt;stroke-linejoin:miter;stroke:rgb(0%,0%,0%);stroke-opacity:1;stroke-miterlimit:4;" d="M 46.042969 11.980469 C 45.644531 12.320312 45.402344 12.777344 45.402344 13.183594 C 45.40625 13.589844 45.65625 13.882812 46.054688 13.949219 C 46.457031 14.015625 46.949219 13.847656 47.34375 13.511719 C 47.742188 13.171875 47.988281 12.714844 47.984375 12.308594 C 47.980469 11.902344 47.734375 11.609375 47.332031 11.542969 C 46.933594 11.476562 46.441406 11.640625 46.042969 11.980469 Z M 46.042969 11.980469 "/>
<path style=" stroke:none;fill-rule:evenodd;fill:rgb(87.057495%,12.548828%,6.274414%);fill-opacity:1;" d="M 44.101562 14.007812 C 43.730469 14.375 43.519531 14.847656 43.550781 15.253906 C 43.585938 15.660156 43.851562 15.933594 44.257812 15.96875 C 44.660156 16.007812 45.140625 15.808594 45.511719 15.441406 C 45.882812 15.074219 46.09375 14.597656 46.0625 14.195312 C 46.03125 13.789062 45.761719 13.515625 45.359375 13.476562 C 44.953125 13.4375 44.476562 13.640625 44.101562 14.007812 Z M 44.101562 14.007812 "/>
<path style="fill:none;stroke-width:0.0652033;stroke-linecap:butt;stroke-linejoin:miter;stroke:rgb(0%,0%,0%);stroke-opacity:1;stroke-miterlimit:4;" d="M 44.101562 14.007812 C 43.730469 14.375 43.519531 14.847656 43.550781 15.253906 C 43.585938 15.660156 43.851562 15.933594 44.257812 15.972656 C 44.660156 16.007812 45.140625 15.808594 45.511719 15.441406 C 45.882812 15.074219 46.09375 14.597656 46.0625 14.195312 C 46.03125 13.789062 45.761719 13.515625 45.359375 13.476562 C 44.953125 13.4375 44.476562 13.640625 44.101562 14.007812 Z M 44.101562 14.007812 "/>
<path style="fill-rule:evenodd;fill:rgb(87.057495%,12.548828%,6.274414%);fill-opacity:1;stroke-width:0.106377;stroke-linecap:butt;stroke-linejoin:miter;stroke:rgb(0%,0%,0%);stroke-opacity:1;stroke-miterlimit:4;" d="M 42.433594 16.261719 C 42.09375 16.65625 41.921875 17.148438 41.988281 17.546875 C 42.054688 17.949219 42.34375 18.199219 42.75 18.203125 C 43.15625 18.207031 43.617188 17.964844 43.957031 17.570312 C 44.296875 17.171875 44.46875 16.683594 44.402344 16.28125 C 44.335938 15.882812 44.046875 15.632812 43.640625 15.625 C 43.234375 15.621094 42.773438 15.863281 42.433594 16.261719 Z M 42.433594 16.261719 "/>
<path style="fill-rule:evenodd;fill:rgb(87.057495%,12.548828%,6.274414%);fill-opacity:1;stroke-width:0.175067;stroke-linecap:butt;stroke-linejoin:miter;stroke:rgb(0%,0%,0%);stroke-opacity:1;stroke-miterlimit:4;" d="M 40.90625 18.566406 C 40.609375 18.996094 40.496094 19.503906 40.601562 19.894531 C 40.710938 20.285156 41.027344 20.503906 41.429688 20.464844 C 41.835938 20.425781 42.265625 20.136719 42.5625 19.707031 C 42.859375 19.277344 42.972656 18.769531 42.867188 18.378906 C 42.757812 17.988281 42.441406 17.769531 42.039062 17.808594 C 41.632812 17.847656 41.203125 18.136719 40.90625 18.566406 Z M 40.90625 18.566406 "/>
<path style="fill-rule:evenodd;fill:rgb(87.057495%,12.548828%,6.274414%);fill-opacity:1;stroke-width:0.242033;stroke-linecap:butt;stroke-linejoin:miter;stroke:rgb(0%,0%,0%);stroke-opacity:1;stroke-miterlimit:4;" d="M 39.632812 21.183594 C 39.417969 21.65625 39.390625 22.175781 39.5625 22.542969 C 39.734375 22.910156 40.085938 23.070312 40.476562 22.960938 C 40.867188 22.855469 41.242188 22.496094 41.460938 22.019531 C 41.679688 21.546875 41.707031 21.027344 41.53125 20.660156 C 41.359375 20.292969 41.011719 20.132812 40.617188 20.242188 C 40.226562 20.347656 39.851562 20.707031 39.632812 21.183594 Z M 39.632812 21.183594 "/>
<path style="fill-rule:evenodd;fill:rgb(87.057495%,12.548828%,6.274414%);fill-opacity:1;stroke-width:0.265847;stroke-linecap:butt;stroke-linejoin:miter;stroke:rgb(0%,0%,0%);stroke-opacity:1;stroke-miterlimit:4;" d="M 38.625 23.914062 C 38.453125 24.40625 38.472656 24.925781 38.679688 25.277344 C 38.882812 25.625 39.246094 25.753906 39.625 25.609375 C 40.007812 25.46875 40.347656 25.074219 40.519531 24.582031 C 40.695312 24.089844 40.675781 23.570312 40.46875 23.222656 C 40.261719 22.871094 39.902344 22.746094 39.519531 22.886719 C 39.140625 23.03125 38.800781 23.421875 38.625 23.914062 Z M 38.625 23.914062 "/>
<path style="fill-rule:evenodd;fill:rgb(87.057495%,12.548828%,6.274414%);fill-opacity:1;stroke-width:0.269979;stroke-linecap:butt;stroke-linejoin:miter;stroke:rgb(0%,0%,0%);stroke-opacity:1;stroke-miterlimit:4;" d="M 37.75 29.089844 C 37.703125 29.507812 37.847656 29.90625 38.132812 30.136719 C 38.421875 30.367188 38.800781 30.398438 39.136719 30.210938 C 39.46875 30.027344 39.703125 29.65625 39.75 29.238281 C 39.800781 28.820312 39.65625 28.421875 39.371094 28.191406 C 39.082031 27.957031 38.703125 27.929688 38.367188 28.117188 C 38.035156 28.300781 37.800781 28.671875 37.75 29.089844 Z M 37.75 29.089844 "/>
<path style="fill-rule:evenodd;fill:rgb(87.057495%,12.548828%,6.274414%);fill-opacity:1;stroke-width:0.287453;stroke-linecap:butt;stroke-linejoin:miter;stroke:rgb(0%,0%,0%);stroke-opacity:1;stroke-miterlimit:4;" d="M 37.984375 26.671875 C 37.871094 27.183594 37.949219 27.695312 38.195312 28.019531 C 38.4375 28.34375 38.8125 28.429688 39.171875 28.242188 C 39.535156 28.058594 39.828125 27.628906 39.945312 27.121094 C 40.0625 26.609375 39.980469 26.097656 39.734375 25.773438 C 39.492188 25.449219 39.117188 25.363281 38.757812 25.550781 C 38.394531 25.734375 38.101562 26.164062 37.984375 26.671875 Z M 37.984375 26.671875 "/>
<path style=" stroke:none;fill-rule:evenodd;fill:rgb(99.998474%,89.01825%,0%);fill-opacity:1;" d="M 87.722656 25.4375 C 88.039062 25.09375 88.335938 25 88.710938 25.125 C 88.578125 24.226562 88.292969 23.921875 87.949219 24.027344 C 87.601562 24.136719 87.445312 24.597656 87.722656 25.4375 Z M 87.722656 25.4375 "/>
<path style=" stroke:none;fill-rule:evenodd;fill:rgb(99.998474%,89.01825%,0%);fill-opacity:1;" d="M 88.207031 28.148438 C 88.550781 27.832031 88.855469 27.757812 89.21875 27.910156 C 89.152344 27.003906 88.894531 26.679688 88.539062 26.761719 C 88.1875 26.84375 87.996094 27.292969 88.207031 28.148438 Z M 88.207031 28.148438 "/>
<path style=" stroke:none;fill-rule:evenodd;fill:rgb(99.998474%,89.01825%,0%);fill-opacity:1;" d="M 87.058594 22.960938 C 87.28125 22.550781 87.539062 22.382812 87.933594 22.40625 C 87.578125 21.574219 87.226562 21.351562 86.917969 21.542969 C 86.609375 21.734375 86.578125 22.222656 87.058594 22.960938 Z M 87.058594 22.960938 "/>
<path style=" stroke:none;fill-rule:evenodd;fill:rgb(99.998474%,89.01825%,0%);fill-opacity:1;" d="M 85.851562 20.492188 C 86.074219 20.082031 86.335938 19.914062 86.726562 19.941406 C 86.371094 19.105469 86.019531 18.882812 85.710938 19.074219 C 85.40625 19.265625 85.371094 19.753906 85.851562 20.492188 Z M 85.851562 20.492188 "/>
<path style=" stroke:none;fill-rule:evenodd;fill:rgb(99.998474%,89.01825%,0%);fill-opacity:1;" d="M 82.957031 15.972656 C 83.109375 15.53125 83.339844 15.324219 83.734375 15.285156 C 83.246094 14.519531 82.863281 14.355469 82.589844 14.59375 C 82.320312 14.835938 82.363281 15.320312 82.957031 15.972656 Z M 82.957031 15.972656 "/>
<path style=" stroke:none;fill-rule:evenodd;fill:rgb(99.998474%,89.01825%,0%);fill-opacity:1;" d="M 81.066406 14.003906 C 81.203125 13.558594 81.425781 13.339844 81.816406 13.285156 C 81.300781 12.539062 80.910156 12.390625 80.648438 12.640625 C 80.386719 12.890625 80.449219 13.375 81.066406 14.003906 Z M 81.066406 14.003906 "/>
<path style=" stroke:none;fill-rule:evenodd;fill:rgb(99.998474%,89.01825%,0%);fill-opacity:1;" d="M 77.089844 10.648438 C 77.082031 10.183594 77.226562 9.90625 77.582031 9.734375 C 76.863281 9.183594 76.445312 9.160156 76.273438 9.480469 C 76.097656 9.796875 76.308594 10.238281 77.089844 10.648438 Z M 77.089844 10.648438 "/>
<path style=" stroke:none;fill-rule:evenodd;fill:rgb(99.998474%,89.01825%,0%);fill-opacity:1;" d="M 79.15625 12.199219 C 79.230469 11.738281 79.421875 11.492188 79.800781 11.386719 C 79.1875 10.714844 78.78125 10.621094 78.554688 10.90625 C 78.328125 11.191406 78.457031 11.660156 79.15625 12.199219 Z M 79.15625 12.199219 "/>
<path style=" stroke:none;fill-rule:evenodd;fill:rgb(99.998474%,89.01825%,0%);fill-opacity:1;" d="M 74.726562 9.34375 C 74.671875 8.882812 74.789062 8.59375 75.125 8.386719 C 74.351562 7.910156 73.933594 7.933594 73.792969 8.265625 C 73.65625 8.601562 73.90625 9.019531 74.726562 9.34375 Z M 74.726562 9.34375 "/>
<path style=" stroke:none;fill-rule:evenodd;fill:rgb(99.998474%,89.01825%,0%);fill-opacity:1;" d="M 72.316406 8.292969 C 72.191406 7.84375 72.265625 7.539062 72.570312 7.285156 C 71.738281 6.925781 71.328125 7.007812 71.238281 7.359375 C 71.148438 7.710938 71.457031 8.085938 72.316406 8.292969 Z M 72.316406 8.292969 "/>
<path style=" stroke:none;fill-rule:evenodd;fill:rgb(99.998474%,89.01825%,0%);fill-opacity:1;" d="M 69.714844 7.484375 C 69.554688 7.046875 69.605469 6.742188 69.882812 6.464844 C 69.023438 6.171875 68.625 6.289062 68.5625 6.648438 C 68.503906 7.003906 68.84375 7.355469 69.714844 7.484375 Z M 69.714844 7.484375 "/>
<path style=" stroke:none;fill-rule:evenodd;fill:rgb(99.998474%,89.01825%,0%);fill-opacity:1;" d="M 67.160156 6.992188 C 66.96875 6.566406 66.996094 6.257812 67.253906 5.960938 C 66.375 5.734375 65.984375 5.875 65.949219 6.238281 C 65.917969 6.597656 66.28125 6.921875 67.160156 6.992188 Z M 67.160156 6.992188 "/>
<path style=" stroke:none;fill-rule:evenodd;fill:rgb(99.998474%,89.01825%,0%);fill-opacity:1;" d="M 64.457031 6.785156 C 64.222656 6.382812 64.21875 6.070312 64.445312 5.746094 C 63.546875 5.613281 63.171875 5.796875 63.175781 6.160156 C 63.179688 6.523438 63.574219 6.808594 64.457031 6.785156 Z M 64.457031 6.785156 "/>
<path style=" stroke:none;fill-rule:evenodd;fill:rgb(99.998474%,89.01825%,0%);fill-opacity:1;" d="M 59.164062 7.183594 C 58.839844 6.847656 58.757812 6.546875 58.898438 6.179688 C 57.996094 6.265625 57.675781 6.535156 57.769531 6.886719 C 57.859375 7.238281 58.3125 7.417969 59.164062 7.183594 Z M 59.164062 7.183594 "/>
<path style=" stroke:none;fill-rule:evenodd;fill:rgb(99.998474%,89.01825%,0%);fill-opacity:1;" d="M 61.769531 6.839844 C 61.492188 6.464844 61.453125 6.15625 61.644531 5.8125 C 60.738281 5.773438 60.386719 5.996094 60.429688 6.359375 C 60.46875 6.71875 60.894531 6.957031 61.769531 6.839844 Z M 61.769531 6.839844 "/>
<path style=" stroke:none;fill-rule:evenodd;fill:rgb(99.998474%,89.01825%,0%);fill-opacity:1;" d="M 56.605469 7.734375 C 56.238281 7.449219 56.113281 7.164062 56.203125 6.78125 C 55.320312 6.996094 55.042969 7.308594 55.183594 7.640625 C 55.324219 7.976562 55.796875 8.089844 56.605469 7.734375 Z M 56.605469 7.734375 "/>
<path style=" stroke:none;fill-rule:evenodd;fill:rgb(99.998474%,89.01825%,0%);fill-opacity:1;" d="M 51.710938 9.988281 C 51.292969 9.777344 51.117188 9.519531 51.132812 9.125 C 50.304688 9.503906 50.09375 9.863281 50.296875 10.164062 C 50.496094 10.46875 50.984375 10.488281 51.710938 9.988281 Z M 51.710938 9.988281 "/>
<path style=" stroke:none;fill-rule:evenodd;fill:rgb(99.998474%,89.01825%,0%);fill-opacity:1;" d="M 54.070312 8.78125 C 53.683594 8.523438 53.539062 8.246094 53.601562 7.855469 C 52.734375 8.132812 52.480469 8.460938 52.644531 8.785156 C 52.808594 9.109375 53.289062 9.191406 54.070312 8.78125 Z M 54.070312 8.78125 "/>
<path style=" stroke:none;fill-rule:evenodd;fill:rgb(99.998474%,89.01825%,0%);fill-opacity:1;" d="M 47.316406 13.042969 C 46.867188 12.925781 46.640625 12.710938 46.574219 12.324219 C 45.84375 12.867188 45.710938 13.261719 45.972656 13.515625 C 46.230469 13.765625 46.710938 13.6875 47.316406 13.042969 Z M 47.316406 13.042969 "/>
<path style=" stroke:none;fill-rule:evenodd;fill:rgb(99.998474%,89.01825%,0%);fill-opacity:1;" d="M 49.414062 11.328125 C 48.972656 11.175781 48.765625 10.945312 48.726562 10.550781 C 47.957031 11.035156 47.796875 11.421875 48.035156 11.691406 C 48.273438 11.964844 48.757812 11.921875 49.414062 11.328125 Z M 49.414062 11.328125 "/>
<path style=" stroke:none;fill-rule:evenodd;fill:rgb(99.998474%,89.01825%,0%);fill-opacity:1;" d="M 45.457031 14.878906 C 44.996094 14.800781 44.753906 14.609375 44.648438 14.226562 C 43.972656 14.835938 43.875 15.238281 44.15625 15.46875 C 44.441406 15.699219 44.910156 15.574219 45.457031 14.878906 Z M 45.457031 14.878906 "/>
<path style=" stroke:none;fill-rule:evenodd;fill:rgb(99.998474%,89.01825%,0%);fill-opacity:1;" d="M 43.789062 17.042969 C 43.324219 17.007812 43.0625 16.839844 42.925781 16.46875 C 42.308594 17.132812 42.246094 17.546875 42.546875 17.75 C 42.851562 17.949219 43.308594 17.785156 43.789062 17.042969 Z M 43.789062 17.042969 "/>
<path style=" stroke:none;fill-rule:evenodd;fill:rgb(99.998474%,89.01825%,0%);fill-opacity:1;" d="M 42.390625 19.257812 C 41.925781 19.292969 41.644531 19.164062 41.453125 18.820312 C 40.941406 19.574219 40.949219 19.992188 41.277344 20.144531 C 41.605469 20.296875 42.03125 20.0625 42.390625 19.257812 Z M 42.390625 19.257812 "/>
<path style=" stroke:none;fill-rule:evenodd;fill:rgb(99.998474%,89.01825%,0%);fill-opacity:1;" d="M 41.167969 21.621094 C 40.710938 21.71875 40.414062 21.628906 40.175781 21.3125 C 39.769531 22.125 39.828125 22.535156 40.175781 22.644531 C 40.519531 22.753906 40.914062 22.46875 41.167969 21.621094 Z M 41.167969 21.621094 "/>
<path style=" stroke:none;fill-rule:evenodd;fill:rgb(99.998474%,89.01825%,0%);fill-opacity:1;" d="M 40.1875 24.046875 C 39.75 24.214844 39.441406 24.171875 39.160156 23.898438 C 38.886719 24.765625 39.011719 25.164062 39.367188 25.214844 C 39.726562 25.269531 40.070312 24.921875 40.1875 24.046875 Z M 40.1875 24.046875 "/>
<path style=" stroke:none;fill-rule:evenodd;fill:rgb(99.998474%,89.01825%,0%);fill-opacity:1;" d="M 39.527344 26.75 C 39.105469 26.949219 38.796875 26.925781 38.496094 26.671875 C 38.28125 27.554688 38.429688 27.941406 38.792969 27.972656 C 39.152344 28 39.472656 27.632812 39.527344 26.75 Z M 39.527344 26.75 "/>
<path style=" stroke:none;fill-rule:evenodd;fill:rgb(99.998474%,89.01825%,0%);fill-opacity:1;" d="M 39.261719 29.003906 C 38.863281 29.214844 38.554688 29.238281 38.230469 29.078125 C 38.109375 29.796875 38.300781 30.082031 38.660156 30.054688 C 39.023438 30.03125 39.300781 29.699219 39.261719 29.003906 Z M 39.261719 29.003906 "/>
<path style=" stroke:none;fill-rule:evenodd;fill:rgb(99.998474%,89.01825%,0%);fill-opacity:1;" d="M 84.773438 18.296875 C 84.933594 17.859375 85.167969 17.652344 85.5625 17.621094 C 85.085938 16.84375 84.707031 16.675781 84.429688 16.910156 C 84.152344 17.148438 84.191406 17.632812 84.773438 18.296875 Z M 84.773438 18.296875 "/>
<path style=" stroke:none;fill-rule:evenodd;fill:rgb(99.998474%,89.01825%,0%);fill-opacity:1;" d="M 88.503906 30.894531 C 88.847656 30.578125 89.152344 30.503906 89.515625 30.65625 C 89.449219 29.75 89.191406 29.425781 88.835938 29.507812 C 88.484375 29.589844 88.292969 30.039062 88.503906 30.894531 Z M 88.503906 30.894531 "/>
<path style="fill-rule:evenodd;fill:rgb(12.940979%,47.450256%,0%);fill-opacity:1;stroke-width:0.247665;stroke-linecap:butt;stroke-linejoin:miter;stroke:rgb(0%,0%,0%);stroke-opacity:1;stroke-miterlimit:4;" d="M 84.949219 16.148438 C 84.9375 16.148438 83.921875 17.164062 84.101562 18.402344 C 84.277344 19.640625 85.0625 21.160156 84.917969 22.441406 C 84.773438 23.722656 84.542969 24.574219 84.542969 24.574219 C 84.542969 24.574219 85.734375 23.214844 85.746094 21.914062 C 85.753906 20.609375 84.929688 18.898438 84.929688 17.9375 C 84.929688 16.976562 84.972656 16.128906 84.949219 16.148438 Z M 84.949219 16.148438 "/>
<path style="fill-rule:evenodd;fill:rgb(12.940979%,47.450256%,0%);fill-opacity:1;stroke-width:0.247665;stroke-linecap:butt;stroke-linejoin:miter;stroke:rgb(0%,0%,0%);stroke-opacity:1;stroke-miterlimit:4;" d="M 86.839844 20.300781 C 86.839844 20.300781 86.042969 20.886719 86.121094 22.234375 C 86.199219 23.578125 87.589844 26.054688 87.589844 26.054688 C 87.589844 26.054688 88.605469 28.140625 88.570312 28.679688 C 88.539062 29.222656 88.757812 28.160156 88.660156 26.96875 C 88.558594 25.777344 87.027344 23.148438 87.027344 23.148438 C 87.027344 23.148438 86.695312 22.609375 86.726562 21.714844 C 86.761719 20.820312 86.847656 20.3125 86.839844 20.300781 Z M 86.839844 20.300781 "/>
<path style=" stroke:none;fill-rule:evenodd;fill:rgb(41.960144%,9.411621%,70.979309%);fill-opacity:1;" d="M 62.949219 3.609375 C 62.949219 3.332031 62.636719 3.105469 62.25 3.105469 C 61.863281 3.105469 61.550781 3.332031 61.550781 3.609375 C 61.550781 3.890625 61.863281 4.117188 62.25 4.117188 C 62.636719 4.117188 62.949219 3.890625 62.949219 3.609375 Z M 62.949219 3.609375 "/>
<path style=" stroke:none;fill-rule:evenodd;fill:rgb(41.960144%,9.411621%,70.979309%);fill-opacity:1;" d="M 63.25 4.785156 C 63.25 4.515625 62.925781 4.300781 62.527344 4.300781 C 62.128906 4.300781 61.808594 4.515625 61.808594 4.785156 C 61.808594 5.050781 62.128906 5.269531 62.527344 5.269531 C 62.925781 5.269531 63.25 5.050781 63.25 4.785156 Z M 63.25 4.785156 "/>
<path style=" stroke:none;fill-rule:evenodd;fill:rgb(41.960144%,9.411621%,70.979309%);fill-opacity:1;" d="M 64.144531 3.394531 C 64.144531 3.394531 63.320312 4.011719 63.660156 4.261719 C 64 4.507812 64.9375 3.722656 64.9375 3.722656 Z M 64.144531 3.394531 "/>
<path style=" stroke:none;fill-rule:evenodd;fill:rgb(41.960144%,9.411621%,70.979309%);fill-opacity:1;" d="M 88.359375 17.542969 C 88.359375 17.367188 88.277344 17.203125 88.144531 17.117188 C 88.011719 17.027344 87.84375 17.027344 87.710938 17.117188 C 87.578125 17.203125 87.496094 17.367188 87.496094 17.542969 C 87.496094 17.71875 87.578125 17.878906 87.710938 17.96875 C 87.84375 18.054688 88.011719 18.054688 88.144531 17.96875 C 88.277344 17.878906 88.359375 17.71875 88.359375 17.542969 Z M 88.359375 17.542969 "/>
<path style=" stroke:none;fill-rule:evenodd;fill:rgb(41.960144%,9.411621%,70.979309%);fill-opacity:1;" d="M 88.046875 16.363281 C 88.046875 16.070312 87.84375 15.832031 87.59375 15.832031 C 87.34375 15.832031 87.140625 16.070312 87.140625 16.363281 C 87.140625 16.65625 87.34375 16.894531 87.59375 16.894531 C 87.84375 16.894531 88.046875 16.65625 88.046875 16.363281 Z M 88.046875 16.363281 "/>
<path style=" stroke:none;fill-rule:evenodd;fill:rgb(41.960144%,9.411621%,70.979309%);fill-opacity:1;" d="M 88.261719 18.761719 C 88.261719 18.609375 88.183594 18.484375 88.085938 18.484375 C 87.988281 18.484375 87.90625 18.609375 87.90625 18.761719 C 87.90625 18.914062 87.988281 19.035156 88.085938 19.035156 C 88.183594 19.035156 88.261719 18.914062 88.261719 18.761719 Z M 88.261719 18.761719 "/>
<path style=" stroke:none;fill-rule:evenodd;fill:rgb(41.960144%,9.411621%,70.979309%);fill-opacity:1;" d="M 88.988281 16.621094 C 88.988281 16.445312 88.910156 16.304688 88.8125 16.304688 C 88.714844 16.304688 88.636719 16.445312 88.636719 16.621094 C 88.636719 16.792969 88.714844 16.933594 88.8125 16.933594 C 88.910156 16.933594 88.988281 16.792969 88.988281 16.621094 Z M 88.988281 16.621094 "/>
<path style=" stroke:none;fill-rule:evenodd;fill:rgb(41.960144%,9.411621%,70.979309%);fill-opacity:1;" d="M 87.003906 16.835938 C 87.003906 16.695312 86.925781 16.578125 86.828125 16.578125 C 86.730469 16.578125 86.652344 16.695312 86.652344 16.835938 C 86.652344 16.976562 86.730469 17.089844 86.828125 17.089844 C 86.925781 17.089844 87.003906 16.976562 87.003906 16.835938 Z M 87.003906 16.835938 "/>
<path style=" stroke:none;fill-rule:evenodd;fill:rgb(41.960144%,9.411621%,70.979309%);fill-opacity:1;" d="M 87.320312 18.523438 C 87.320312 18.296875 87.152344 18.113281 86.945312 18.113281 C 86.738281 18.113281 86.574219 18.296875 86.574219 18.523438 C 86.574219 18.753906 86.738281 18.9375 86.945312 18.9375 C 87.152344 18.9375 87.320312 18.753906 87.320312 18.523438 Z M 87.320312 18.523438 "/>
<path style=" stroke:none;fill-rule:evenodd;fill:rgb(41.960144%,9.411621%,70.979309%);fill-opacity:1;" d="M 86.335938 17.777344 C 86.335938 17.582031 86.195312 17.425781 86.023438 17.425781 C 85.847656 17.425781 85.707031 17.582031 85.707031 17.777344 C 85.707031 17.972656 85.847656 18.132812 86.023438 18.132812 C 86.195312 18.132812 86.335938 17.972656 86.335938 17.777344 Z M 86.335938 17.777344 "/>
<path style=" stroke:none;fill-rule:evenodd;fill:rgb(41.960144%,9.411621%,70.979309%);fill-opacity:1;" d="M 86.179688 16.777344 C 86.179688 16.671875 86.125 16.574219 86.042969 16.519531 C 85.957031 16.46875 85.851562 16.46875 85.765625 16.519531 C 85.683594 16.574219 85.628906 16.671875 85.628906 16.777344 C 85.628906 16.882812 85.683594 16.980469 85.765625 17.03125 C 85.851562 17.085938 85.957031 17.085938 86.042969 17.03125 C 86.125 16.980469 86.179688 16.882812 86.179688 16.777344 Z M 86.179688 16.777344 "/>
<path style=" stroke:none;fill-rule:evenodd;fill:rgb(41.960144%,9.411621%,70.979309%);fill-opacity:1;" d="M 90.65625 21.871094 C 90.253906 21.335938 89.601562 21.109375 89.207031 21.367188 C 88.8125 21.625 88.820312 22.265625 89.226562 22.800781 C 89.632812 23.335938 90.28125 23.5625 90.675781 23.304688 C 91.074219 23.046875 91.0625 22.40625 90.65625 21.871094 Z M 90.65625 21.871094 "/>
<path style=" stroke:none;fill-rule:evenodd;fill:rgb(41.960144%,9.411621%,70.979309%);fill-opacity:1;" d="M 91.8125 31.75 C 91.890625 31.09375 91.570312 30.515625 91.097656 30.460938 C 90.621094 30.402344 90.171875 30.890625 90.09375 31.546875 C 90.015625 32.203125 90.335938 32.78125 90.8125 32.839844 C 91.285156 32.894531 91.734375 32.410156 91.8125 31.75 Z M 91.8125 31.75 "/>
<path style=" stroke:none;fill-rule:evenodd;fill:rgb(41.960144%,9.411621%,70.979309%);fill-opacity:1;" d="M 92.054688 37.503906 C 92.191406 36.855469 91.921875 36.25 91.453125 36.152344 C 90.984375 36.054688 90.5 36.503906 90.363281 37.152344 C 90.226562 37.796875 90.496094 38.402344 90.964844 38.5 C 91.433594 38.597656 91.921875 38.152344 92.054688 37.503906 Z M 92.054688 37.503906 "/>
<path style=" stroke:none;fill-rule:evenodd;fill:rgb(41.960144%,9.411621%,70.979309%);fill-opacity:1;" d="M 93.164062 32.121094 C 93.164062 31.859375 92.988281 31.648438 92.769531 31.648438 C 92.554688 31.648438 92.378906 31.859375 92.378906 32.121094 C 92.378906 32.378906 92.554688 32.59375 92.769531 32.59375 C 92.988281 32.59375 93.164062 32.378906 93.164062 32.121094 Z M 93.164062 32.121094 "/>
<path style=" stroke:none;fill-rule:evenodd;fill:rgb(41.960144%,9.411621%,70.979309%);fill-opacity:1;" d="M 92.203125 33.199219 L 91.394531 34.113281 C 91.394531 34.113281 90.640625 34.132812 90.679688 34.378906 C 90.71875 34.625 91.71875 35.363281 91.710938 35.65625 C 91.699219 35.953125 92.378906 35.585938 92.378906 35.585938 C 92.378906 35.585938 92.917969 33.949219 92.917969 33.9375 C 92.917969 33.925781 92.890625 32.796875 92.59375 32.816406 C 92.300781 32.835938 92.21875 33.179688 92.203125 33.199219 Z M 92.203125 33.199219 "/>
<path style=" stroke:none;fill-rule:evenodd;fill:rgb(41.960144%,9.411621%,70.979309%);fill-opacity:1;" d="M 39.214844 32.839844 C 39.214844 32.628906 39.046875 32.457031 38.832031 32.457031 C 38.621094 32.457031 38.449219 32.628906 38.449219 32.839844 C 38.449219 33.050781 38.621094 33.222656 38.832031 33.222656 C 39.046875 33.222656 39.214844 33.050781 39.214844 32.839844 Z M 39.214844 32.839844 "/>
<path style=" stroke:none;fill-rule:evenodd;fill:rgb(41.960144%,9.411621%,70.979309%);fill-opacity:1;" d="M 39.578125 31.667969 C 39.578125 31.445312 39.40625 31.261719 39.195312 31.261719 C 38.984375 31.261719 38.8125 31.445312 38.8125 31.667969 C 38.8125 31.890625 38.984375 32.074219 39.195312 32.074219 C 39.40625 32.074219 39.578125 31.890625 39.578125 31.667969 Z M 39.578125 31.667969 "/>
<path style=" stroke:none;fill-rule:evenodd;fill:rgb(41.960144%,9.411621%,70.979309%);fill-opacity:1;" d="M 36.429688 26.097656 C 36.285156 25.773438 35.988281 25.59375 35.761719 25.695312 C 35.535156 25.796875 35.46875 26.140625 35.613281 26.460938 C 35.757812 26.785156 36.054688 26.964844 36.28125 26.863281 C 36.507812 26.761719 36.574219 26.417969 36.429688 26.097656 Z M 36.429688 26.097656 "/>
<path style=" stroke:none;fill-rule:evenodd;fill:rgb(41.960144%,9.411621%,70.979309%);fill-opacity:1;" d="M 37.382812 29.566406 C 37.183594 29.152344 36.773438 28.917969 36.460938 29.046875 C 36.152344 29.179688 36.0625 29.621094 36.257812 30.039062 C 36.457031 30.457031 36.867188 30.691406 37.179688 30.5625 C 37.488281 30.429688 37.578125 29.984375 37.382812 29.566406 Z M 37.382812 29.566406 "/>
<path style=" stroke:none;fill-rule:evenodd;fill:rgb(41.960144%,9.411621%,70.979309%);fill-opacity:1;" d="M 38.398438 32.113281 C 38.460938 31.589844 38.246094 31.113281 37.914062 31.042969 C 37.585938 30.972656 37.265625 31.339844 37.203125 31.863281 C 37.136719 32.382812 37.355469 32.863281 37.683594 32.933594 C 38.015625 33 38.335938 32.636719 38.398438 32.113281 Z M 38.398438 32.113281 "/>
<path style=" stroke:none;fill-rule:evenodd;fill:rgb(41.960144%,9.411621%,70.979309%);fill-opacity:1;" d="M 36.765625 32.484375 C 36.96875 32 36.894531 31.480469 36.59375 31.324219 C 36.296875 31.167969 35.886719 31.429688 35.683594 31.914062 C 35.476562 32.398438 35.554688 32.917969 35.855469 33.078125 C 36.152344 33.234375 36.5625 32.96875 36.765625 32.484375 Z M 36.765625 32.484375 "/>
<path style=" stroke:none;fill-rule:evenodd;fill:rgb(41.960144%,9.411621%,70.979309%);fill-opacity:1;" d="M 36.019531 31.390625 C 36.019531 31.144531 35.832031 30.945312 35.59375 30.945312 C 35.359375 30.945312 35.167969 31.144531 35.167969 31.390625 C 35.167969 31.636719 35.359375 31.839844 35.59375 31.839844 C 35.832031 31.839844 36.019531 31.636719 36.019531 31.390625 Z M 36.019531 31.390625 "/>
<path style=" stroke:none;fill-rule:evenodd;fill:rgb(41.960144%,9.411621%,70.979309%);fill-opacity:1;" d="M 35.679688 30.285156 C 35.679688 30.058594 35.507812 29.878906 35.296875 29.878906 C 35.085938 29.878906 34.914062 30.058594 34.914062 30.285156 C 34.914062 30.507812 35.085938 30.6875 35.296875 30.6875 C 35.507812 30.6875 35.679688 30.507812 35.679688 30.285156 Z M 35.679688 30.285156 "/>
<path style=" stroke:none;fill-rule:evenodd;fill:rgb(41.960144%,9.411621%,70.979309%);fill-opacity:1;" d="M 36.042969 28.152344 C 36.042969 27.777344 35.875 27.472656 35.671875 27.472656 C 35.464844 27.472656 35.296875 27.777344 35.296875 28.152344 C 35.296875 28.53125 35.464844 28.835938 35.671875 28.835938 C 35.875 28.835938 36.042969 28.53125 36.042969 28.152344 Z M 36.042969 28.152344 "/>
<path style=" stroke:none;fill-rule:evenodd;fill:rgb(41.960144%,9.411621%,70.979309%);fill-opacity:1;" d="M 37.191406 27.988281 C 37.238281 27.617188 37.113281 27.292969 36.910156 27.265625 C 36.707031 27.238281 36.5 27.519531 36.449219 27.890625 C 36.402344 28.265625 36.527344 28.589844 36.730469 28.617188 C 36.933594 28.644531 37.140625 28.363281 37.191406 27.988281 Z M 37.191406 27.988281 "/>
<path style=" stroke:none;fill-rule:evenodd;fill:rgb(41.960144%,9.411621%,70.979309%);fill-opacity:1;" d="M 45.363281 11.6875 C 45.515625 11.15625 45.359375 10.625 45.011719 10.5 C 44.667969 10.371094 44.265625 10.699219 44.113281 11.226562 C 43.960938 11.753906 44.117188 12.285156 44.460938 12.414062 C 44.808594 12.539062 45.210938 12.214844 45.363281 11.6875 Z M 45.363281 11.6875 "/>
<path style=" stroke:none;fill-rule:evenodd;fill:rgb(41.960144%,9.411621%,70.979309%);fill-opacity:1;" d="M 43.8125 14.039062 C 44.265625 13.648438 44.460938 13.113281 44.246094 12.839844 C 44.03125 12.566406 43.484375 12.660156 43.03125 13.046875 C 42.574219 13.433594 42.378906 13.96875 42.597656 14.242188 C 42.8125 14.515625 43.355469 14.425781 43.8125 14.039062 Z M 43.8125 14.039062 "/>
<path style=" stroke:none;fill-rule:evenodd;fill:rgb(41.960144%,9.411621%,70.979309%);fill-opacity:1;" d="M 42.90625 12.730469 C 43.355469 12.398438 43.546875 11.9375 43.335938 11.703125 C 43.121094 11.46875 42.582031 11.550781 42.132812 11.882812 C 41.683594 12.214844 41.492188 12.675781 41.703125 12.910156 C 41.917969 13.144531 42.453125 13.0625 42.90625 12.730469 Z M 42.90625 12.730469 "/>
<path style=" stroke:none;fill-rule:evenodd;fill:rgb(41.960144%,9.411621%,70.979309%);fill-opacity:1;" d="M 46.394531 10.4375 C 46.699219 10.203125 46.828125 9.882812 46.683594 9.71875 C 46.539062 9.554688 46.179688 9.609375 45.875 9.84375 C 45.570312 10.074219 45.441406 10.394531 45.585938 10.558594 C 45.730469 10.722656 46.089844 10.667969 46.394531 10.4375 Z M 46.394531 10.4375 "/>
<path style=" stroke:none;fill-rule:evenodd;fill:rgb(41.960144%,9.411621%,70.979309%);fill-opacity:1;" d="M 44.574219 12.660156 C 44.78125 12.339844 44.796875 11.992188 44.605469 11.886719 C 44.417969 11.78125 44.09375 11.957031 43.886719 12.277344 C 43.679688 12.597656 43.664062 12.945312 43.855469 13.050781 C 44.046875 13.15625 44.367188 12.980469 44.574219 12.660156 Z M 44.574219 12.660156 "/>
<path style=" stroke:none;fill-rule:evenodd;fill:rgb(41.960144%,9.411621%,70.979309%);fill-opacity:1;" d="M 47.203125 11.285156 C 47.527344 11.011719 47.65625 10.644531 47.484375 10.472656 C 47.316406 10.296875 46.914062 10.378906 46.585938 10.652344 C 46.261719 10.929688 46.132812 11.292969 46.304688 11.46875 C 46.472656 11.640625 46.875 11.5625 47.203125 11.285156 Z M 47.203125 11.285156 "/>
<path style=" stroke:none;fill-rule:evenodd;fill:rgb(41.960144%,9.411621%,70.979309%);fill-opacity:1;" d="M 42.457031 14.492188 C 42.761719 14.476562 42.992188 14.324219 42.96875 14.152344 C 42.949219 13.980469 42.683594 13.851562 42.378906 13.867188 C 42.074219 13.882812 41.84375 14.035156 41.863281 14.207031 C 41.886719 14.378906 42.152344 14.507812 42.457031 14.492188 Z M 42.457031 14.492188 "/>
<path style=" stroke:none;fill-rule:evenodd;fill:rgb(41.960144%,9.411621%,70.979309%);fill-opacity:1;" d="M 48.203125 9.582031 C 48.410156 9.261719 48.421875 8.914062 48.234375 8.808594 C 48.042969 8.703125 47.71875 8.878906 47.511719 9.199219 C 47.304688 9.519531 47.289062 9.863281 47.480469 9.96875 C 47.671875 10.078125 47.992188 9.902344 48.203125 9.582031 Z M 48.203125 9.582031 "/>
<path style=" stroke:none;fill-rule:evenodd;fill:rgb(99.998474%,82.351685%,0%);fill-opacity:1;" d="M 82.800781 19.316406 C 82.800781 19.316406 83.75 17.820312 83.382812 16.40625 C 83.015625 14.996094 81.453125 15.996094 81.488281 16.496094 C 81.523438 17 82.5 17.667969 82.558594 17.976562 C 82.617188 18.28125 82.449219 19.222656 82.800781 19.316406 Z M 82.800781 19.316406 "/>
<path style="fill:none;stroke-width:0.129016;stroke-linecap:butt;stroke-linejoin:miter;stroke:rgb(93.72406%,54.116821%,6.274414%);stroke-opacity:1;stroke-miterlimit:4;" d="M 82.800781 19.316406 C 82.800781 19.316406 83.75 17.820312 83.382812 16.40625 C 83.015625 14.996094 81.453125 15.996094 81.488281 16.496094 C 81.523438 17 82.5 17.671875 82.558594 17.976562 C 82.617188 18.28125 82.449219 19.222656 82.800781 19.316406 Z M 82.800781 19.316406 "/>
<path style="fill-rule:evenodd;fill:rgb(12.940979%,47.450256%,0%);fill-opacity:1;stroke-width:0.309581;stroke-linecap:butt;stroke-linejoin:miter;stroke:rgb(0%,0%,0%);stroke-opacity:1;stroke-miterlimit:4;" d="M 64.722656 6.855469 C 64.722656 6.855469 68.136719 6.984375 68.15625 9.195312 C 68.144531 9.535156 68.15625 9.945312 68.035156 10.925781 C 68.710938 10.5625 69.160156 9.546875 69.074219 8.894531 C 69.085938 6.65625 66.027344 5.121094 64.722656 6.855469 Z M 64.722656 6.855469 "/>
<path style="fill-rule:evenodd;fill:rgb(12.940979%,47.450256%,0%);fill-opacity:1;stroke-width:0.309581;stroke-linecap:butt;stroke-linejoin:miter;stroke:rgb(0%,0%,0%);stroke-opacity:1;stroke-miterlimit:4;" d="M 62.558594 6.753906 C 62.558594 6.753906 65.308594 6.179688 65.332031 8.386719 C 65.351562 10.597656 64.457031 10.949219 64.457031 10.949219 C 64.457031 10.949219 66.566406 10.496094 66.578125 8.253906 C 66.589844 6.015625 63.863281 5.019531 62.558594 6.753906 Z M 62.558594 6.753906 "/>
<path style="fill-rule:evenodd;fill:rgb(96.861267%,87.449646%,45.097351%);fill-opacity:1;stroke-width:0.309581;stroke-linecap:butt;stroke-linejoin:miter;stroke:rgb(0%,0%,0%);stroke-opacity:1;stroke-miterlimit:4;" d="M 71.898438 54.390625 C 71.898438 54.390625 84.769531 50.757812 88.652344 34.964844 C 86.398438 51.171875 72.316406 56.3125 72.316406 56.3125 Z M 71.898438 54.390625 "/>
<path style=" stroke:none;fill-rule:evenodd;fill:rgb(54.901123%,9.411621%,0%);fill-opacity:1;" d="M 73.21875 55.375 C 73.617188 55.375 74.601562 54.285156 75.167969 54.160156 C 75.730469 54.035156 75.792969 53.46875 75.144531 53.449219 C 74.496094 53.429688 73.929688 54.183594 73.929688 54.183594 C 73.929688 54.183594 73.367188 54.664062 72.78125 54.726562 C 72.195312 54.789062 72.570312 55.523438 73.21875 55.375 Z M 73.21875 55.375 "/>
<path style=" stroke:none;fill-rule:evenodd;fill:rgb(54.901123%,9.411621%,0%);fill-opacity:1;" d="M 80.628906 49.847656 C 80.628906 49.847656 79.289062 50.621094 79.480469 50.8125 C 79.667969 51 80.859375 50.078125 80.882812 50.058594 C 80.902344 50.035156 81.382812 49.453125 80.628906 49.847656 Z M 80.628906 49.847656 "/>
<path style="fill:none;stroke-width:0.309581;stroke-linecap:butt;stroke-linejoin:miter;stroke:rgb(54.901123%,9.411621%,0%);stroke-opacity:1;stroke-miterlimit:4;" d="M 80.628906 49.847656 C 80.628906 49.847656 79.289062 50.625 79.480469 50.8125 C 79.667969 51 80.859375 50.078125 80.882812 50.058594 C 80.902344 50.035156 81.382812 49.449219 80.628906 49.847656 Z M 80.628906 49.847656 "/>
<path style=" stroke:none;fill-rule:evenodd;fill:rgb(54.901123%,9.411621%,0%);fill-opacity:1;" d="M 75.960938 53.367188 C 75.960938 53.367188 75.5625 53.21875 76.589844 52.820312 C 77.617188 52.421875 77.554688 51.964844 77.886719 51.773438 C 78.222656 51.585938 78.933594 51.082031 79.082031 51.375 C 79.226562 51.667969 78.328125 52.257812 78.117188 52.320312 C 77.910156 52.382812 76.882812 53.324219 76.589844 53.40625 C 76.296875 53.492188 76.085938 53.449219 75.960938 53.367188 Z M 75.960938 53.367188 "/>
<path style="fill:none;stroke-width:0.402455;stroke-linecap:butt;stroke-linejoin:miter;stroke:rgb(54.901123%,9.411621%,0%);stroke-opacity:1;stroke-miterlimit:4;" d="M 82.617188 47.878906 C 81.738281 48.863281 81.738281 48.84375 81.738281 48.84375 "/>
<path style="fill:none;stroke-width:0.371497;stroke-linecap:butt;stroke-linejoin:miter;stroke:rgb(54.901123%,9.411621%,0%);stroke-opacity:1;stroke-miterlimit:4;" d="M 83.9375 46.269531 L 83.101562 47.296875 "/>
<path style="fill:none;stroke-width:0.340539;stroke-linecap:butt;stroke-linejoin:miter;stroke:rgb(54.901123%,9.411621%,0%);stroke-opacity:1;stroke-miterlimit:4;" d="M 85.257812 44.175781 L 84.316406 45.683594 "/>
<path style="fill:none;stroke-width:0.309581;stroke-linecap:butt;stroke-linejoin:miter;stroke:rgb(54.901123%,9.411621%,0%);stroke-opacity:1;stroke-miterlimit:4;" d="M 86.367188 42.039062 L 85.59375 43.589844 "/>
<path style="fill:none;stroke-width:0.309581;stroke-linecap:butt;stroke-linejoin:miter;stroke:rgb(54.901123%,9.411621%,0%);stroke-opacity:1;stroke-miterlimit:4;" d="M 86.867188 40.910156 L 86.617188 41.453125 "/>
<path style="fill:none;stroke-width:0.185749;stroke-linecap:butt;stroke-linejoin:miter;stroke:rgb(54.901123%,9.411621%,0%);stroke-opacity:1;stroke-miterlimit:4;" d="M 87.433594 39.421875 L 87.222656 40.074219 "/>
<path style="fill-rule:evenodd;fill:rgb(96.861267%,87.449646%,45.097351%);fill-opacity:1;stroke-width:0.310917;stroke-linecap:butt;stroke-linejoin:miter;stroke:rgb(0%,0%,0%);stroke-opacity:1;stroke-miterlimit:4;" d="M 55.035156 54.050781 C 55.035156 54.050781 42.285156 50.347656 38.433594 34.273438 C 40.667969 50.773438 54.621094 56.003906 54.621094 56.003906 Z M 55.035156 54.050781 "/>
<path style=" stroke:none;fill-rule:evenodd;fill:rgb(54.901123%,9.411621%,0%);fill-opacity:1;" d="M 53.726562 55.050781 C 53.332031 55.050781 52.359375 53.941406 51.796875 53.816406 C 51.238281 53.6875 51.175781 53.113281 51.820312 53.089844 C 52.460938 53.070312 53.023438 53.835938 53.023438 53.835938 C 53.023438 53.835938 53.582031 54.328125 54.164062 54.390625 C 54.742188 54.453125 54.371094 55.199219 53.726562 55.050781 Z M 53.726562 55.050781 "/>
<path style="fill-rule:evenodd;fill:rgb(54.901123%,9.411621%,0%);fill-opacity:1;stroke-width:0.310917;stroke-linecap:butt;stroke-linejoin:miter;stroke:rgb(54.901123%,9.411621%,0%);stroke-opacity:1;stroke-miterlimit:4;" d="M 46.382812 49.425781 C 46.382812 49.425781 47.710938 50.214844 47.523438 50.40625 C 47.339844 50.597656 46.15625 49.660156 46.136719 49.640625 C 46.113281 49.617188 45.636719 49.019531 46.382812 49.425781 Z M 46.382812 49.425781 "/>
<path style=" stroke:none;fill-rule:evenodd;fill:rgb(54.901123%,9.411621%,0%);fill-opacity:1;" d="M 51.007812 53.003906 C 51.007812 53.003906 51.402344 52.855469 50.386719 52.453125 C 49.371094 52.046875 49.433594 51.578125 49.101562 51.386719 C 48.769531 51.195312 48.0625 50.683594 47.917969 50.980469 C 47.773438 51.28125 48.664062 51.875 48.875 51.941406 C 49.082031 52.003906 50.097656 52.964844 50.386719 53.046875 C 50.675781 53.132812 50.886719 53.089844 51.007812 53.003906 Z M 51.007812 53.003906 "/>
<path style="fill:none;stroke-width:0.404192;stroke-linecap:butt;stroke-linejoin:miter;stroke:rgb(54.901123%,9.411621%,0%);stroke-opacity:1;stroke-miterlimit:4;" d="M 44.414062 47.421875 C 45.285156 48.421875 45.285156 48.402344 45.285156 48.402344 "/>
<path style="fill:none;stroke-width:0.3731;stroke-linecap:butt;stroke-linejoin:miter;stroke:rgb(54.901123%,9.411621%,0%);stroke-opacity:1;stroke-miterlimit:4;" d="M 43.105469 45.78125 L 43.9375 46.824219 "/>
<path style="fill:none;stroke-width:0.342008;stroke-linecap:butt;stroke-linejoin:miter;stroke:rgb(54.901123%,9.411621%,0%);stroke-opacity:1;stroke-miterlimit:4;" d="M 41.800781 43.652344 L 42.734375 45.183594 "/>
<path style="fill:none;stroke-width:0.310917;stroke-linecap:butt;stroke-linejoin:miter;stroke:rgb(54.901123%,9.411621%,0%);stroke-opacity:1;stroke-miterlimit:4;" d="M 40.699219 41.476562 L 41.46875 43.054688 "/>
<path style="fill:none;stroke-width:0.310917;stroke-linecap:butt;stroke-linejoin:miter;stroke:rgb(54.901123%,9.411621%,0%);stroke-opacity:1;stroke-miterlimit:4;" d="M 40.203125 40.324219 L 40.453125 40.878906 "/>
<path style="fill:none;stroke-width:0.18655;stroke-linecap:butt;stroke-linejoin:miter;stroke:rgb(54.901123%,9.411621%,0%);stroke-opacity:1;stroke-miterlimit:4;" d="M 39.640625 38.8125 L 39.851562 39.472656 "/>
<path style="fill-rule:evenodd;fill:rgb(12.940979%,47.450256%,0%);fill-opacity:1;stroke-width:0.309581;stroke-linecap:butt;stroke-linejoin:miter;stroke:rgb(0%,0%,0%);stroke-opacity:1;stroke-miterlimit:4;" d="M 89.265625 32.054688 C 89.328125 33.046875 90.296875 33.996094 89.917969 35.722656 C 89.433594 37.683594 87.726562 42.34375 88.019531 43.164062 C 87.515625 42.46875 87.601562 41.816406 87.558594 40.84375 C 87.515625 39.875 88.96875 36.273438 89.097656 35.050781 C 89.097656 33.953125 89.203125 32.457031 89.265625 32.054688 Z M 89.265625 32.054688 "/>
<path style=" stroke:none;fill-rule:evenodd;fill:rgb(12.940979%,47.450256%,0%);fill-opacity:1;" d="M 89.265625 32.078125 C 89.265625 32.078125 90.84375 34.078125 90.761719 35.660156 C 90.675781 37.242188 89.792969 39.097656 90.085938 39.917969 C 89.582031 39.222656 89.453125 38.78125 89.414062 37.8125 C 89.371094 36.839844 90.191406 35.765625 90.023438 34.710938 C 89.855469 33.65625 89.242188 32.078125 89.265625 32.078125 Z M 89.265625 32.078125 "/>
<path style="fill:none;stroke-width:0.309581;stroke-linecap:butt;stroke-linejoin:miter;stroke:rgb(0%,0%,0%);stroke-opacity:1;stroke-miterlimit:4;" d="M 89.265625 32.078125 C 89.265625 32.078125 90.84375 34.078125 90.761719 35.660156 C 90.675781 37.242188 89.792969 39.097656 90.085938 39.917969 C 89.582031 39.222656 89.453125 38.78125 89.414062 37.808594 C 89.371094 36.839844 90.191406 35.765625 90.023438 34.710938 C 89.855469 33.65625 89.242188 32.078125 89.265625 32.078125 Z M 89.265625 32.078125 "/>
<path style="fill-rule:evenodd;fill:rgb(12.940979%,47.450256%,0%);fill-opacity:1;stroke-width:0.309581;stroke-linecap:butt;stroke-linejoin:miter;stroke:rgb(0%,0%,0%);stroke-opacity:1;stroke-miterlimit:4;" d="M 37.480469 32.519531 C 37.417969 33.511719 36.679688 34.394531 37.058594 36.125 C 37.542969 38.085938 39.273438 40.570312 39 43.417969 C 39.503906 42.722656 39.652344 41.941406 39.695312 40.972656 C 39.734375 40.003906 37.777344 36.734375 37.648438 35.511719 C 37.648438 34.417969 37.542969 32.921875 37.480469 32.519531 Z M 37.480469 32.519531 "/>
<path style="fill-rule:evenodd;fill:rgb(12.940979%,47.450256%,0%);fill-opacity:1;stroke-width:0.309581;stroke-linecap:butt;stroke-linejoin:miter;stroke:rgb(0%,0%,0%);stroke-opacity:1;stroke-miterlimit:4;" d="M 37.480469 32.542969 C 37.480469 32.542969 35.941406 34.480469 36.027344 36.0625 C 36.046875 37.113281 37.988281 41.519531 37.691406 42.34375 C 38.199219 41.648438 38.34375 41.730469 38.324219 40.675781 C 37.753906 37.980469 36.742188 36.25 36.910156 35.195312 C 37.078125 34.144531 37.5 32.542969 37.480469 32.542969 Z M 37.480469 32.542969 "/>
<path style="fill-rule:evenodd;fill:rgb(99.998474%,99.998474%,99.998474%);fill-opacity:1;stroke-width:0.258032;stroke-linecap:round;stroke-linejoin:miter;stroke:rgb(0%,0%,0%);stroke-opacity:1;stroke-miterlimit:4;" d="M 63.769531 14.808594 L 67.597656 26.597656 L 79.992188 26.597656 L 69.964844 33.882812 L 73.792969 45.671875 L 63.769531 38.386719 L 53.742188 45.671875 L 57.570312 33.882812 L 47.546875 26.597656 L 59.9375 26.597656 Z M 63.769531 14.808594 "/>
</g>
</svg>
