<?xml version="1.0" encoding="UTF-8"?>
<svg xmlns="http://www.w3.org/2000/svg" xmlns:xlink="http://www.w3.org/1999/xlink" width="128pt" height="64pt" viewBox="0 0 128 64" version="1.1">
<g id="surface827">
<rect x="0" y="0" width="128" height="64" style="fill:rgb(0.784302%,30.979919%,63.528442%);fill-opacity:1;stroke:none;"/>
<path style=" stroke:none;fill-rule:evenodd;fill:rgb(99.998474%,99.998474%,99.998474%);fill-opacity:1;" d="M 0 10.667969 L 128 10.667969 L 128 53.332031 L 0 53.332031 Z M 0 10.667969 "/>
<path style=" stroke:none;fill-rule:evenodd;fill:rgb(92.939758%,10.980225%,15.293884%);fill-opacity:1;" d="M 0 12.445312 L 128 12.445312 L 128 51.554688 L 0 51.554688 Z M 0 12.445312 "/>
<path style=" stroke:none;fill-rule:evenodd;fill:rgb(99.998474%,99.998474%,99.998474%);fill-opacity:1;" d="M 56.890625 32 C 56.890625 39.855469 50.523438 46.222656 42.667969 46.222656 C 34.8125 46.222656 28.445312 39.855469 28.445312 32 C 28.445312 24.144531 34.8125 17.777344 42.667969 17.777344 C 50.523438 17.777344 56.890625 24.144531 56.890625 32 Z M 56.890625 32 "/>
<path style=" stroke:none;fill-rule:evenodd;fill:rgb(92.939758%,10.980225%,15.293884%);fill-opacity:1;" d="M 42.667969 18.222656 L 38.410156 31.324219 L 44.960938 33.453125 Z M 42.667969 18.222656 "/>
<path style=" stroke:none;fill-rule:evenodd;fill:rgb(92.939758%,10.980225%,15.293884%);fill-opacity:1;" d="M 42.667969 18.222656 L 46.925781 31.324219 L 40.371094 33.453125 Z M 42.667969 18.222656 "/>
<path style=" stroke:none;fill-rule:evenodd;fill:rgb(92.939758%,10.980225%,15.293884%);fill-opacity:1;" d="M 55.769531 27.742188 L 41.992188 27.742188 L 41.992188 34.632812 Z M 55.769531 27.742188 "/>
<path style=" stroke:none;fill-rule:evenodd;fill:rgb(92.939758%,10.980225%,15.293884%);fill-opacity:1;" d="M 55.769531 27.742188 L 44.625 35.839844 L 40.574219 30.269531 Z M 55.769531 27.742188 "/>
<path style=" stroke:none;fill-rule:evenodd;fill:rgb(92.939758%,10.980225%,15.293884%);fill-opacity:1;" d="M 29.5625 27.742188 L 40.710938 35.839844 L 44.757812 30.269531 Z M 29.5625 27.742188 "/>
<path style=" stroke:none;fill-rule:evenodd;fill:rgb(92.939758%,10.980225%,15.293884%);fill-opacity:1;" d="M 29.5625 27.742188 L 43.339844 27.742188 L 43.339844 34.632812 Z M 29.5625 27.742188 "/>
<path style=" stroke:none;fill-rule:evenodd;fill:rgb(92.939758%,10.980225%,15.293884%);fill-opacity:1;" d="M 50.765625 43.148438 L 46.507812 30.042969 L 39.957031 32.171875 Z M 50.765625 43.148438 "/>
<path style=" stroke:none;fill-rule:evenodd;fill:rgb(92.939758%,10.980225%,15.293884%);fill-opacity:1;" d="M 50.765625 43.148438 L 39.617188 35.046875 L 43.667969 29.476562 Z M 50.765625 43.148438 "/>
<path style=" stroke:none;fill-rule:evenodd;fill:rgb(92.939758%,10.980225%,15.293884%);fill-opacity:1;" d="M 34.570312 43.148438 L 45.714844 35.046875 L 41.664062 29.476562 Z M 34.570312 43.148438 "/>
<path style=" stroke:none;fill-rule:evenodd;fill:rgb(92.939758%,10.980225%,15.293884%);fill-opacity:1;" d="M 34.570312 43.148438 L 38.824219 30.042969 L 45.378906 32.171875 Z M 34.570312 43.148438 "/>
</g>
</svg>
