<svg viewBox="0 0 1000 667" xmlns="http://www.w3.org/2000/svg" xmlns:xlink="http://www.w3.org/1999/xlink"><clipPath id="a"><path d="m0 0h1000v666.71875h-1000zm0 0"/></clipPath><clipPath id="b"><path d="m0 333h500v333.71875h-500zm0 0"/></clipPath><g clip-path="url(#a)"><path d="m0 666.667969v-666.667969h1000v666.667969zm0 0" fill="#fff" fill-rule="evenodd"/></g><path d="m250 83.332031-25.75 79.253907 39.628906 12.878906zm0 0" fill="#005293" fill-rule="evenodd"/><path d="m250 83.332031 25.75 79.253907-39.628906 12.878906zm0 0" fill="#005293" fill-rule="evenodd"/><path d="m329.253906 140.917969h-83.335937v41.664062zm0 0" fill="#005293" fill-rule="evenodd"/><path d="m329.253906 140.917969-67.414062 48.980469-24.492188-33.710938zm0 0" fill="#005293" fill-rule="evenodd"/><path d="m298.980469 234.082031-25.75-79.253906-39.625 12.878906zm0 0" fill="#005293" fill-rule="evenodd"/><path d="m298.980469 234.082031-67.417969-48.980469 24.492188-33.710937zm0 0" fill="#005293" fill-rule="evenodd"/><path d="m201.019531 234.082031 67.417969-48.980469-24.492188-33.710937zm0 0" fill="#005293" fill-rule="evenodd"/><path d="m201.019531 234.082031 25.75-79.253906 39.625 12.878906zm0 0" fill="#005293" fill-rule="evenodd"/><path d="m170.746094 140.917969 67.414062 48.980469 24.492188-33.710938zm0 0" fill="#005293" fill-rule="evenodd"/><path d="m170.746094 140.917969h83.335937v41.664062zm0 0" fill="#005293" fill-rule="evenodd"/><g clip-path="url(#b)"><path d="m0 333.332031h500v333.335938h-500zm0 0" fill="#005293" fill-rule="evenodd"/></g><g fill-rule="evenodd"><path d="m500 0h500v333.332031h-500zm0 0" fill="#d21034"/><path d="m750 416.667969-25.75 79.25 39.628906 12.882812zm0 0" fill="#d21034"/><path d="m750 416.667969 25.75 79.25-39.628906 12.882812zm0 0" fill="#d21034"/><path d="m829.253906 474.25h-83.335937v41.667969zm0 0" fill="#d21034"/><path d="m829.253906 474.25-67.414062 48.980469-24.492188-33.710938zm0 0" fill="#d21034"/><path d="m798.980469 567.417969-25.75-79.257813-39.625 12.882813zm0 0" fill="#d21034"/><path d="m798.980469 567.417969-67.417969-48.980469 24.492188-33.714844zm0 0" fill="#d21034"/><path d="m701.019531 567.417969 67.417969-48.980469-24.492188-33.714844zm0 0" fill="#d21034"/><path d="m701.019531 567.417969 25.75-79.257813 39.625 12.882813zm0 0" fill="#d21034"/><path d="m670.746094 474.25 67.414062 48.980469 24.492188-33.710938zm0 0" fill="#d21034"/><path d="m670.746094 474.25h83.335937v41.667969zm0 0" fill="#d21034"/></g></svg>