<?xml version="1.0" encoding="UTF-8"?>
<svg xmlns="http://www.w3.org/2000/svg" xmlns:xlink="http://www.w3.org/1999/xlink" width="113pt" height="85pt" viewBox="0 0 113 85" version="1.1">
<g id="surface857">
<rect x="0" y="0" width="113" height="85" style="fill:rgb(0%,0%,0%);fill-opacity:1;stroke:none;"/>
<path style=" stroke:none;fill-rule:evenodd;fill:rgb(80.783081%,6.666565%,14.901733%);fill-opacity:1;" d="M 0 0 L 113.332031 0 L 113.332031 85 Z M 0 0 "/>
<path style=" stroke:none;fill-rule:evenodd;fill:rgb(98.822021%,81.959534%,8.627319%);fill-opacity:1;" d="M 70.167969 24.695312 C 69.328125 25.777344 67.347656 23.609375 64.976562 23.558594 C 62.605469 23.507812 60.921875 25.832031 60.230469 26.625 C 59.539062 27.414062 57.3125 31.566406 57.363281 32.011719 C 57.414062 32.457031 58.746094 30.777344 59.242188 30.480469 C 59.292969 31.074219 58.699219 31.765625 58.847656 31.964844 C 58.996094 32.160156 60.578125 30.777344 61.121094 30.726562 C 61.269531 31.125 60.824219 31.519531 60.972656 32.113281 C 61.167969 32.308594 62.058594 31.125 62.652344 30.875 C 62.753906 31.320312 62.109375 32.160156 62.457031 32.707031 C 62.703125 32.753906 64.183594 31.023438 64.679688 30.828125 C 65.175781 30.628906 64.433594 32.457031 64.679688 32.605469 C 65.125 32.308594 66.507812 30.726562 66.953125 30.53125 C 67.398438 30.332031 66.902344 32.558594 67.101562 32.558594 C 67.644531 32.160156 69.03125 30.28125 69.179688 29.984375 C 69.328125 29.6875 69.03125 32.855469 70.5625 34.535156 C 72.09375 36.214844 74.417969 38.144531 74.664062 38.144531 C 74.960938 37.597656 74.566406 36.460938 74.8125 36.511719 C 75.503906 37.253906 76.792969 38.339844 77.089844 38.339844 C 77.382812 38.339844 76.890625 37.152344 77.285156 37.152344 C 78.078125 37.894531 80.351562 40.8125 84.800781 42.148438 C 84.503906 41.304688 83.859375 40.566406 83.8125 40.167969 C 84.109375 40.21875 85.148438 40.714844 85.34375 40.664062 C 85.542969 40.613281 83.167969 37.699219 83.316406 37.300781 C 83.859375 37.253906 84.109375 37.597656 84.304688 37.351562 C 84.058594 36.957031 81.980469 34.632812 81.980469 34.089844 C 81.980469 33.546875 82.625 34.1875 82.824219 34.089844 C 83.019531 33.988281 82.03125 31.914062 82.230469 31.667969 C 82.425781 31.417969 84.601562 33 85.144531 33 C 85.691406 33 85.292969 31.074219 85.542969 30.976562 C 85.789062 30.875 87.617188 32.011719 88.011719 32.011719 C 88.410156 32.011719 88.359375 31.171875 88.507812 31.269531 C 88.65625 31.371094 92.957031 35.671875 91.472656 40.714844 C 89.992188 44.324219 87.023438 46.25 82.675781 44.667969 C 82.921875 45.0625 85.246094 46.992188 87.765625 46.300781 C 90.289062 45.605469 93.351562 43.628906 93.007812 38.6875 C 92.660156 33.742188 91.027344 33.050781 90.78125 32.308594 C 90.535156 31.566406 91.175781 32.507812 91.722656 32.707031 C 92.265625 32.902344 91.621094 31.667969 91.472656 31.125 C 91.324219 30.578125 93.105469 32.257812 93.550781 32.40625 C 93.996094 32.558594 92.511719 28.355469 92.066406 28.058594 C 91.621094 27.761719 92.511719 28.15625 92.808594 28.257812 C 93.105469 28.355469 90.089844 23.65625 89.449219 23.65625 C 88.804688 23.65625 89.992188 23.410156 90.335938 23.410156 C 90.683594 23.410156 86.875 20.347656 86.234375 20.347656 C 85.589844 20.347656 87.617188 19.554688 87.816406 19.503906 C 88.160156 19.554688 83.414062 16.984375 79.164062 19.554688 C 78.917969 19.355469 81.167969 17.800781 81.242188 17.132812 C 81.265625 16.960938 80.5 16.589844 80.449219 16.390625 C 80.402344 16.191406 81.636719 15.601562 81.683594 15.15625 C 81.390625 14.761719 80.84375 14.910156 80.550781 14.808594 C 80.472656 14.4375 81.585938 13.523438 81.488281 13.128906 C 81.414062 12.90625 80.597656 12.832031 80.402344 12.980469 C 80.203125 13.128906 80.917969 11.941406 80.796875 11.597656 C 80.699219 11.449219 80.300781 11.546875 79.90625 11.644531 C 79.660156 11.597656 81.191406 9.46875 80.894531 9.171875 C 80.597656 8.878906 76.445312 11.347656 74.914062 14.117188 C 73.378906 16.886719 74.566406 19.109375 74.371094 20.050781 C 74.171875 20.988281 73.925781 21.929688 73.28125 21.929688 C 72.640625 21.929688 71.15625 20.9375 70.660156 20.445312 C 70.167969 19.949219 70.066406 19.605469 69.375 19.40625 C 68.683594 19.207031 67.101562 19.800781 66.507812 19.851562 C 65.914062 19.902344 63.59375 19.40625 63.445312 19.554688 C 63.296875 19.703125 65.71875 20.59375 66.261719 20.890625 C 66.804688 21.1875 66.855469 21.582031 67.25 21.828125 C 67.644531 22.078125 71.351562 23.164062 70.167969 24.695312 Z M 84.652344 31.667969 C 85.839844 32.855469 93.847656 38.191406 93.847656 44.71875 C 93.847656 51.242188 88.011719 51.046875 86.332031 50.847656 C 88.210938 52.429688 95.328125 52.132812 95.328125 44.71875 C 95.328125 38.191406 86.132812 31.667969 84.949219 31.074219 C 83.761719 30.480469 83.464844 30.480469 84.652344 31.667969 Z M 84.652344 31.667969 "/>
<path style=" stroke:none;fill-rule:evenodd;fill:rgb(99.998474%,99.998474%,99.998474%);fill-opacity:1;" d="M 41.320312 41.761719 L 42.558594 46.019531 L 46.839844 46.019531 L 43.460938 48.621094 L 44.699219 52.757812 L 41.320312 50.15625 L 37.9375 52.636719 L 39.179688 48.621094 L 35.796875 46.019531 L 39.96875 46.019531 Z M 41.320312 41.761719 "/>
<path style=" stroke:none;fill-rule:evenodd;fill:rgb(99.998474%,99.998474%,99.998474%);fill-opacity:1;" d="M 28.394531 65.375 L 29.636719 69.628906 L 33.917969 69.628906 L 30.535156 72.230469 L 31.773438 76.367188 L 28.394531 73.765625 L 25.015625 76.25 L 26.253906 72.230469 L 22.875 69.628906 L 27.042969 69.628906 Z M 28.394531 65.375 "/>
<path style=" stroke:none;fill-rule:evenodd;fill:rgb(99.998474%,99.998474%,99.998474%);fill-opacity:1;" d="M 34.191406 56.335938 L 34.8125 58.460938 L 36.953125 58.460938 L 35.261719 59.761719 L 35.882812 61.832031 L 34.191406 60.53125 L 32.503906 61.773438 L 33.121094 59.761719 L 31.433594 58.460938 L 33.515625 58.460938 Z M 34.191406 56.335938 "/>
<path style=" stroke:none;fill-rule:evenodd;fill:rgb(99.998474%,99.998474%,99.998474%);fill-opacity:1;" d="M 28.394531 26.339844 L 29.636719 30.597656 L 33.917969 30.597656 L 30.535156 33.199219 L 31.773438 37.335938 L 28.394531 34.734375 L 25.015625 37.21875 L 26.253906 33.199219 L 22.875 30.597656 L 27.042969 30.597656 Z M 28.394531 26.339844 "/>
<path style=" stroke:none;fill-rule:evenodd;fill:rgb(99.998474%,99.998474%,99.998474%);fill-opacity:1;" d="M 15.410156 42.941406 L 16.648438 47.199219 L 20.929688 47.199219 L 17.550781 49.800781 L 18.789062 53.9375 L 15.410156 51.335938 L 12.027344 53.820312 L 13.265625 49.800781 L 9.886719 47.199219 L 14.058594 47.199219 Z M 15.410156 42.941406 "/>
</g>
</svg>
