<?xml version="1.0" encoding="UTF-8"?>
<svg xmlns="http://www.w3.org/2000/svg" xmlns:xlink="http://www.w3.org/1999/xlink" width="128pt" height="64pt" viewBox="0 0 128 64" version="1.1">
<g id="surface872">
<rect x="0" y="0" width="128" height="64" style="fill:rgb(0%,21.960449%,65.881348%);fill-opacity:1;stroke:none;"/>
<path style=" stroke:none;fill-rule:evenodd;fill:rgb(80.783081%,6.666565%,14.901733%);fill-opacity:1;" d="M 0 32 L 128 32 L 128 64 L 0 64 Z M 0 32 "/>
<path style=" stroke:none;fill-rule:evenodd;fill:rgb(99.998474%,99.998474%,99.998474%);fill-opacity:1;" d="M 55.425781 32 L 0 64 L 0 0 Z M 55.425781 32 "/>
<path style=" stroke:none;fill-rule:evenodd;fill:rgb(98.822021%,81.959534%,8.627319%);fill-opacity:1;" d="M 26.3125 32 C 26.3125 35.535156 23.445312 38.398438 19.910156 38.398438 C 16.375 38.398438 13.511719 35.535156 13.511719 32 C 13.511719 28.464844 16.375 25.601562 19.910156 25.601562 C 23.445312 25.601562 26.3125 28.464844 26.3125 32 Z M 26.3125 32 "/>
<path style=" stroke:none;fill-rule:evenodd;fill:rgb(98.822021%,81.959534%,8.627319%);fill-opacity:1;" d="M 6.398438 32 L 7.230469 32.832031 L 19.910156 32 L 7.230469 31.167969 Z M 6.398438 32 "/>
<path style=" stroke:none;fill-rule:evenodd;fill:rgb(98.822021%,81.959534%,8.627319%);fill-opacity:1;" d="M 7.820312 33.589844 L 8.5 34.269531 L 19.910156 32 Z M 7.820312 33.589844 "/>
<path style=" stroke:none;fill-rule:evenodd;fill:rgb(98.822021%,81.959534%,8.627319%);fill-opacity:1;" d="M 7.820312 30.410156 L 8.5 29.730469 L 19.910156 32 Z M 7.820312 30.410156 "/>
<path style=" stroke:none;fill-rule:evenodd;fill:rgb(98.822021%,81.959534%,8.627319%);fill-opacity:1;" d="M 10.359375 22.445312 L 10.359375 23.621094 L 19.910156 32 L 11.53125 22.445312 Z M 10.359375 22.445312 "/>
<path style=" stroke:none;fill-rule:evenodd;fill:rgb(98.822021%,81.959534%,8.627319%);fill-opacity:1;" d="M 10.238281 24.578125 L 10.238281 25.535156 L 19.910156 32 Z M 10.238281 24.578125 "/>
<path style=" stroke:none;fill-rule:evenodd;fill:rgb(98.822021%,81.959534%,8.627319%);fill-opacity:1;" d="M 12.488281 22.328125 L 13.449219 22.328125 L 19.910156 32 Z M 12.488281 22.328125 "/>
<path style=" stroke:none;fill-rule:evenodd;fill:rgb(98.822021%,81.959534%,8.627319%);fill-opacity:1;" d="M 19.910156 18.488281 L 19.078125 19.320312 L 19.910156 32 L 20.742188 19.320312 Z M 19.910156 18.488281 "/>
<path style=" stroke:none;fill-rule:evenodd;fill:rgb(98.822021%,81.959534%,8.627319%);fill-opacity:1;" d="M 18.320312 19.910156 L 17.640625 20.589844 L 19.910156 32 Z M 18.320312 19.910156 "/>
<path style=" stroke:none;fill-rule:evenodd;fill:rgb(98.822021%,81.959534%,8.627319%);fill-opacity:1;" d="M 21.503906 19.910156 L 22.179688 20.589844 L 19.910156 32 Z M 21.503906 19.910156 "/>
<path style=" stroke:none;fill-rule:evenodd;fill:rgb(98.822021%,81.959534%,8.627319%);fill-opacity:1;" d="M 29.464844 22.445312 L 28.289062 22.445312 L 19.910156 32 L 29.464844 23.621094 Z M 29.464844 22.445312 "/>
<path style=" stroke:none;fill-rule:evenodd;fill:rgb(98.822021%,81.959534%,8.627319%);fill-opacity:1;" d="M 27.335938 22.328125 L 26.375 22.328125 L 19.910156 32 Z M 27.335938 22.328125 "/>
<path style=" stroke:none;fill-rule:evenodd;fill:rgb(98.822021%,81.959534%,8.627319%);fill-opacity:1;" d="M 29.585938 24.578125 L 29.585938 25.535156 L 19.910156 32 Z M 29.585938 24.578125 "/>
<path style=" stroke:none;fill-rule:evenodd;fill:rgb(98.822021%,81.959534%,8.627319%);fill-opacity:1;" d="M 33.421875 32 L 32.589844 31.167969 L 19.910156 32 L 32.589844 32.832031 Z M 33.421875 32 "/>
<path style=" stroke:none;fill-rule:evenodd;fill:rgb(98.822021%,81.959534%,8.627319%);fill-opacity:1;" d="M 32 30.410156 L 31.320312 29.730469 L 19.910156 32 Z M 32 30.410156 "/>
<path style=" stroke:none;fill-rule:evenodd;fill:rgb(98.822021%,81.959534%,8.627319%);fill-opacity:1;" d="M 32 33.589844 L 31.320312 34.269531 L 19.910156 32 Z M 32 33.589844 "/>
<path style=" stroke:none;fill-rule:evenodd;fill:rgb(98.822021%,81.959534%,8.627319%);fill-opacity:1;" d="M 29.464844 41.554688 L 29.464844 40.378906 L 19.910156 32 L 28.289062 41.554688 Z M 29.464844 41.554688 "/>
<path style=" stroke:none;fill-rule:evenodd;fill:rgb(98.822021%,81.959534%,8.627319%);fill-opacity:1;" d="M 29.585938 39.421875 L 29.585938 38.464844 L 19.910156 32 Z M 29.585938 39.421875 "/>
<path style=" stroke:none;fill-rule:evenodd;fill:rgb(98.822021%,81.959534%,8.627319%);fill-opacity:1;" d="M 27.335938 41.671875 L 26.375 41.671875 L 19.910156 32 Z M 27.335938 41.671875 "/>
<path style=" stroke:none;fill-rule:evenodd;fill:rgb(98.822021%,81.959534%,8.627319%);fill-opacity:1;" d="M 19.910156 45.511719 L 20.742188 44.679688 L 19.910156 32 L 19.078125 44.679688 Z M 19.910156 45.511719 "/>
<path style=" stroke:none;fill-rule:evenodd;fill:rgb(98.822021%,81.959534%,8.627319%);fill-opacity:1;" d="M 21.503906 44.089844 L 22.179688 43.410156 L 19.910156 32 Z M 21.503906 44.089844 "/>
<path style=" stroke:none;fill-rule:evenodd;fill:rgb(98.822021%,81.959534%,8.627319%);fill-opacity:1;" d="M 18.320312 44.089844 L 17.640625 43.410156 L 19.910156 32 Z M 18.320312 44.089844 "/>
<path style=" stroke:none;fill-rule:evenodd;fill:rgb(98.822021%,81.959534%,8.627319%);fill-opacity:1;" d="M 10.359375 41.554688 L 11.53125 41.554688 L 19.910156 32 L 10.359375 40.378906 Z M 10.359375 41.554688 "/>
<path style=" stroke:none;fill-rule:evenodd;fill:rgb(98.822021%,81.959534%,8.627319%);fill-opacity:1;" d="M 12.488281 41.671875 L 13.449219 41.671875 L 19.910156 32 Z M 12.488281 41.671875 "/>
<path style=" stroke:none;fill-rule:evenodd;fill:rgb(98.822021%,81.959534%,8.627319%);fill-opacity:1;" d="M 10.238281 39.421875 L 10.238281 38.464844 L 19.910156 32 Z M 10.238281 39.421875 "/>
<path style=" stroke:none;fill-rule:evenodd;fill:rgb(98.822021%,81.959534%,8.627319%);fill-opacity:1;" d="M 49.027344 32 L 46.621094 32.835938 L 46.570312 35.382812 L 45.03125 33.351562 L 42.59375 34.089844 L 44.046875 32 Z M 49.027344 32 "/>
<path style=" stroke:none;fill-rule:evenodd;fill:rgb(98.822021%,81.959534%,8.627319%);fill-opacity:1;" d="M 49.027344 32 L 46.621094 31.164062 L 46.570312 28.617188 L 45.03125 30.648438 L 42.59375 29.910156 L 44.046875 32 Z M 49.027344 32 "/>
<path style=" stroke:none;fill-rule:evenodd;fill:rgb(98.822021%,81.959534%,8.627319%);fill-opacity:1;" d="M 3.199219 58.457031 L 3.679688 55.957031 L 1.5 54.640625 L 4.027344 54.320312 L 4.605469 51.84375 L 5.6875 54.148438 Z M 3.199219 58.457031 "/>
<path style=" stroke:none;fill-rule:evenodd;fill:rgb(98.822021%,81.959534%,8.627319%);fill-opacity:1;" d="M 3.199219 58.457031 L 5.125 56.792969 L 7.355469 58.019531 L 6.367188 55.671875 L 8.226562 53.933594 L 5.6875 54.148438 Z M 3.199219 58.457031 "/>
<path style=" stroke:none;fill-rule:evenodd;fill:rgb(98.822021%,81.959534%,8.627319%);fill-opacity:1;" d="M 3.199219 5.542969 L 5.125 7.207031 L 7.355469 5.980469 L 6.367188 8.328125 L 8.226562 10.066406 L 5.6875 9.851562 Z M 3.199219 5.542969 "/>
<path style=" stroke:none;fill-rule:evenodd;fill:rgb(98.822021%,81.959534%,8.627319%);fill-opacity:1;" d="M 3.199219 5.542969 L 3.679688 8.042969 L 1.5 9.359375 L 4.027344 9.679688 L 4.605469 12.15625 L 5.6875 9.851562 Z M 3.199219 5.542969 "/>
</g>
</svg>
