<svg viewBox="0 0 1000 500" xmlns="http://www.w3.org/2000/svg"><path d="m0 0h1000v500h-1000z" fill="#0038a8"/><g fill-rule="evenodd"><path d="m0 250h1000v250h-1000zm0 0" fill="#ce1126"/><path d="m433.015625 250-433.015625 250v-500zm0 0" fill="#fff"/><path d="m205.554688 250c0 27.617188-22.382813 50-50 50-27.613282 0-50-22.382812-50-50s22.386718-50 50-50c27.617187 0 50 22.382812 50 50zm0 0" fill="#fcd116"/><path d="m50 250 6.496094 6.496094 99.058594-6.496094-99.058594-6.496094zm0 0" fill="#fcd116"/><path d="m61.109375 262.433594 5.300781 5.296875 89.144532-17.730469zm0 0" fill="#fcd116"/><path d="m61.109375 237.566406 5.300781-5.296875 89.144532 17.730469zm0 0" fill="#fcd116"/><path d="m80.917969 175.363281v9.179688l74.636719 65.457031-65.457032-74.636719zm0 0" fill="#fcd116"/><path d="m79.980469 192.007812v7.492188l75.574219 50.5zm0 0" fill="#fcd116"/><path d="m97.5625 174.425781h7.496094l50.496094 75.574219zm0 0" fill="#fcd116"/><path d="m155.554688 144.445312-6.492188 6.492188 6.492188 99.0625 6.496093-99.0625zm0 0" fill="#fcd116"/><path d="m143.121094 155.554688-5.296875 5.300781 17.730469 89.144531zm0 0" fill="#fcd116"/><path d="m167.992188 155.554688 5.292968 5.300781-17.730468 89.144531zm0 0" fill="#fcd116"/><path d="m230.191406 175.363281h-9.179687l-65.457031 74.636719 74.636718-65.457031zm0 0" fill="#fcd116"/><path d="m213.546875 174.425781h-7.492187l-50.5 75.574219zm0 0" fill="#fcd116"/><path d="m231.128906 192.007812v7.492188l-75.574218 50.5zm0 0" fill="#fcd116"/><path d="m261.109375 250-6.492187-6.496094-99.0625 6.496094 99.0625 6.496094zm0 0" fill="#fcd116"/><path d="m250 237.566406-5.300781-5.296875-89.144531 17.730469zm0 0" fill="#fcd116"/><path d="m250 262.433594-5.300781 5.296875-89.144531-17.730469zm0 0" fill="#fcd116"/><path d="m230.191406 324.636719v-9.179688l-74.636718-65.457031 65.457031 74.636719zm0 0" fill="#fcd116"/><path d="m231.128906 307.992188v-7.492188l-75.574218-50.5zm0 0" fill="#fcd116"/><path d="m213.546875 325.574219h-7.492187l-50.5-75.574219zm0 0" fill="#fcd116"/><path d="m155.554688 355.554688 6.496093-6.492188-6.496093-99.0625-6.492188 99.0625zm0 0" fill="#fcd116"/><path d="m167.992188 344.445312 5.292968-5.300781-17.730468-89.144531zm0 0" fill="#fcd116"/><path d="m143.121094 344.445312-5.296875-5.300781 17.730469-89.144531zm0 0" fill="#fcd116"/><path d="m80.917969 324.636719h9.179687l65.457032-74.636719-74.636719 65.457031zm0 0" fill="#fcd116"/><path d="m97.5625 325.574219h7.496094l50.496094-75.574219zm0 0" fill="#fcd116"/><path d="m79.980469 307.992188v-7.492188l75.574219-50.5zm0 0" fill="#fcd116"/><path d="m383.015625 250-18.789063 6.53125-.410156 19.886719-12.015625-15.851563-19.035156 5.757813 11.359375-16.324219zm0 0" fill="#fcd116"/><path d="m383.015625 250-18.789063-6.53125-.410156-19.886719-12.015625 15.851563-19.035156-5.757813 11.359375 16.324219zm0 0" fill="#fcd116"/><path d="m25 456.699219 3.738281-19.535157-17.019531-10.296874 19.738281-2.480469 4.527344-19.367188 8.460937 18zm0 0" fill="#fcd116"/><path d="m25 456.699219 15.050781-13.007813 17.425781 9.597656-7.722656-18.339843 14.511719-13.605469-19.820313 1.675781zm0 0" fill="#fcd116"/><path d="m25 43.300781 15.050781 13.007813 17.425781-9.597656-7.722656 18.339843 14.511719 13.605469-19.820313-1.675781zm0 0" fill="#fcd116"/><path d="m25 43.300781 3.738281 19.535157-17.019531 10.296874 19.738281 2.480469 4.527344 19.367188 8.460937-18zm0 0" fill="#fcd116"/></g></svg>