<?xml version="1.0" encoding="UTF-8"?>
<svg xmlns="http://www.w3.org/2000/svg" xmlns:xlink="http://www.w3.org/1999/xlink" width="128pt" height="85pt" viewBox="0 0 128 85" version="1.1">
<defs>
<clipPath id="clip1">
  <path d="M 0 0 L 127.679688 0 L 127.679688 85 L 0 85 Z M 0 0 "/>
</clipPath>
<clipPath id="clip2">
  <path d="M 0 25 L 127.679688 25 L 127.679688 60 L 0 60 Z M 0 25 "/>
</clipPath>
<clipPath id="clip3">
  <path d="M 0 18 L 127.679688 18 L 127.679688 33 L 0 33 Z M 0 18 "/>
</clipPath>
<clipPath id="clip4">
  <path d="M 0 52 L 127.679688 52 L 127.679688 67 L 0 67 Z M 0 52 "/>
</clipPath>
<clipPath id="clip5">
  <path d="M 0 0 L 127.679688 0 L 127.679688 85 L 0 85 Z M 0 0 "/>
</clipPath>
</defs>
<g id="surface887">
<g clip-path="url(#clip1)" clip-rule="nonzero">
<path style=" stroke:none;fill-rule:evenodd;fill:rgb(92.939758%,0%,0%);fill-opacity:1;" d="M 0 0 L 127.5 0 L 127.5 85 L 0 85 Z M 0 0 "/>
</g>
<g clip-path="url(#clip2)" clip-rule="nonzero">
<path style=" stroke:none;fill-rule:evenodd;fill:rgb(0%,0%,0%);fill-opacity:1;" d="M 0 25.5 L 127.5 25.5 Z M 0 59.5 L 127.5 59.5 Z M 0 59.5 "/>
</g>
<g clip-path="url(#clip3)" clip-rule="nonzero">
<path style="fill:none;stroke-width:13.909091;stroke-linecap:butt;stroke-linejoin:miter;stroke:rgb(99.998474%,99.998474%,99.998474%);stroke-opacity:1;stroke-miterlimit:4;" d="M 0 25.5 L 127.5 25.5 "/>
</g>
<g clip-path="url(#clip4)" clip-rule="nonzero">
<path style="fill:none;stroke-width:13.909091;stroke-linecap:butt;stroke-linejoin:miter;stroke:rgb(99.998474%,99.998474%,99.998474%);stroke-opacity:1;stroke-miterlimit:4;" d="M 0 59.5 L 127.5 59.5 "/>
</g>
<path style=" stroke:none;fill-rule:evenodd;fill:rgb(99.998474%,99.998474%,99.998474%);fill-opacity:1;" d="M 24.535156 28.332031 L 20.160156 41.808594 L 26.898438 43.996094 Z M 24.535156 28.332031 "/>
<path style=" stroke:none;fill-rule:evenodd;fill:rgb(99.998474%,99.998474%,99.998474%);fill-opacity:1;" d="M 24.535156 28.332031 L 28.914062 41.808594 L 22.179688 43.996094 Z M 24.535156 28.332031 "/>
<path style=" stroke:none;fill-rule:evenodd;fill:rgb(99.998474%,99.998474%,99.998474%);fill-opacity:1;" d="M 38.011719 38.121094 L 23.84375 38.121094 L 23.84375 45.207031 Z M 38.011719 38.121094 "/>
<path style=" stroke:none;fill-rule:evenodd;fill:rgb(99.998474%,99.998474%,99.998474%);fill-opacity:1;" d="M 38.011719 38.121094 L 26.550781 46.449219 L 22.386719 40.71875 Z M 38.011719 38.121094 "/>
<path style=" stroke:none;fill-rule:evenodd;fill:rgb(99.998474%,99.998474%,99.998474%);fill-opacity:1;" d="M 11.0625 38.121094 L 22.523438 46.449219 L 26.6875 40.71875 Z M 11.0625 38.121094 "/>
<path style=" stroke:none;fill-rule:evenodd;fill:rgb(99.998474%,99.998474%,99.998474%);fill-opacity:1;" d="M 11.0625 38.121094 L 25.230469 38.121094 L 25.230469 45.207031 Z M 11.0625 38.121094 "/>
<path style=" stroke:none;fill-rule:evenodd;fill:rgb(99.998474%,99.998474%,99.998474%);fill-opacity:1;" d="M 32.863281 53.960938 L 28.488281 40.488281 L 21.75 42.675781 Z M 32.863281 53.960938 "/>
<path style=" stroke:none;fill-rule:evenodd;fill:rgb(99.998474%,99.998474%,99.998474%);fill-opacity:1;" d="M 32.863281 53.960938 L 21.402344 45.632812 L 25.566406 39.902344 Z M 32.863281 53.960938 "/>
<path style=" stroke:none;fill-rule:evenodd;fill:rgb(99.998474%,99.998474%,99.998474%);fill-opacity:1;" d="M 16.210938 53.960938 L 27.671875 45.632812 L 23.507812 39.902344 Z M 16.210938 53.960938 "/>
<path style=" stroke:none;fill-rule:evenodd;fill:rgb(99.998474%,99.998474%,99.998474%);fill-opacity:1;" d="M 16.210938 53.960938 L 20.589844 40.488281 L 27.324219 42.675781 Z M 16.210938 53.960938 "/>
<path style=" stroke:none;fill-rule:nonzero;fill:rgb(0%,31.37207%,94.116211%);fill-opacity:1;" d="M 0 0 L 73.613281 42.5 L 0 85 Z M 0 0 "/>
<g clip-path="url(#clip5)" clip-rule="nonzero">
<path style="fill:none;stroke-width:13.909091;stroke-linecap:butt;stroke-linejoin:miter;stroke:rgb(0%,31.37207%,94.116211%);stroke-opacity:1;stroke-miterlimit:4;" d="M 0 0 L 73.613281 42.5 L 0 85 Z M 0 0 "/>
</g>
<path style=" stroke:none;fill-rule:evenodd;fill:rgb(99.998474%,99.998474%,99.998474%);fill-opacity:1;" d="M 24.535156 28.332031 L 20.160156 41.808594 L 26.898438 43.996094 Z M 24.535156 28.332031 "/>
<path style=" stroke:none;fill-rule:evenodd;fill:rgb(99.998474%,99.998474%,99.998474%);fill-opacity:1;" d="M 24.535156 28.332031 L 28.914062 41.808594 L 22.179688 43.996094 Z M 24.535156 28.332031 "/>
<path style=" stroke:none;fill-rule:evenodd;fill:rgb(99.998474%,99.998474%,99.998474%);fill-opacity:1;" d="M 38.011719 38.121094 L 23.84375 38.121094 L 23.84375 45.207031 Z M 38.011719 38.121094 "/>
<path style=" stroke:none;fill-rule:evenodd;fill:rgb(99.998474%,99.998474%,99.998474%);fill-opacity:1;" d="M 38.011719 38.121094 L 26.550781 46.449219 L 22.386719 40.71875 Z M 38.011719 38.121094 "/>
<path style=" stroke:none;fill-rule:evenodd;fill:rgb(99.998474%,99.998474%,99.998474%);fill-opacity:1;" d="M 11.0625 38.121094 L 22.523438 46.449219 L 26.6875 40.71875 Z M 11.0625 38.121094 "/>
<path style=" stroke:none;fill-rule:evenodd;fill:rgb(99.998474%,99.998474%,99.998474%);fill-opacity:1;" d="M 11.0625 38.121094 L 25.230469 38.121094 L 25.230469 45.207031 Z M 11.0625 38.121094 "/>
<path style=" stroke:none;fill-rule:evenodd;fill:rgb(99.998474%,99.998474%,99.998474%);fill-opacity:1;" d="M 32.863281 53.960938 L 28.488281 40.488281 L 21.75 42.675781 Z M 32.863281 53.960938 "/>
<path style=" stroke:none;fill-rule:evenodd;fill:rgb(99.998474%,99.998474%,99.998474%);fill-opacity:1;" d="M 32.863281 53.960938 L 21.402344 45.632812 L 25.566406 39.902344 Z M 32.863281 53.960938 "/>
<path style=" stroke:none;fill-rule:evenodd;fill:rgb(99.998474%,99.998474%,99.998474%);fill-opacity:1;" d="M 16.210938 53.960938 L 27.671875 45.632812 L 23.507812 39.902344 Z M 16.210938 53.960938 "/>
<path style=" stroke:none;fill-rule:evenodd;fill:rgb(99.998474%,99.998474%,99.998474%);fill-opacity:1;" d="M 16.210938 53.960938 L 20.589844 40.488281 L 27.324219 42.675781 Z M 16.210938 53.960938 "/>
</g>
</svg>
