<svg viewBox="0 0 1000 667" xmlns="http://www.w3.org/2000/svg" xmlns:xlink="http://www.w3.org/1999/xlink"><clipPath id="a"><path d="m0 500h1000v166.71875h-1000zm0 0"/></clipPath><path d="m0 0h1000v333.332031h-1000zm0 0" fill="#00a1de" fill-rule="evenodd"/><path d="m0 333.332031h1000v166.667969h-1000zm0 0" fill="#fad201" fill-rule="evenodd"/><g clip-path="url(#a)"><path d="m0 500h1000v166.667969h-1000zm0 0" fill="#20603d" fill-rule="evenodd"/></g><g fill="#e5be01" fill-rule="evenodd"><path d="m928.332031 174.167969-74.449219 4.347656 70.785157 23.476563-73.039063-15.070313 62.304688 40.996094-66.65625-33.460938 49.570312 55.722657-55.726562-49.570313 33.464844 66.65625-40.996094-62.304687 15.066406 73.042968-23.46875-70.789062-4.355469 74.449218-.925781-108.421874zm0 0"/><path d="m928.332031 174.167969-74.449219-4.351563 70.785157-23.472656-73.039063 15.066406 62.304688-40.996094-66.65625 33.460938 49.570312-55.722656-55.726562 49.570312 33.464844-66.65625-40.996094 62.304688 15.066406-73.039063-23.46875 70.785157-4.355469-74.449219-.925781 108.425781zm0 0"/><path d="m713.332031 174.167969 74.453125 4.347656-70.789062 23.476563 73.042968-15.070313-62.304687 40.996094 66.65625-33.460938-49.574219 55.722657 55.726563-49.570313-33.457031 66.65625 40.992187-62.304687-15.070313 73.042968 23.476563-70.789062 4.347656 74.449218.925781-108.421874zm0 0"/><path d="m713.332031 174.167969 74.453125-4.351563-70.789062-23.472656 73.042968 15.066406-62.304687-40.996094 66.65625 33.460938-49.574219-55.722656 55.726563 49.570312-33.457031-66.65625 40.992187 62.304688-15.070313-73.039063 23.476563 70.785157 4.347656-74.449219.925781 108.425781zm0 0"/><path d="m852.59375 174.167969c0 17.535156-14.21875 31.761719-31.761719 31.761719-17.535156 0-31.753906-14.226563-31.753906-31.761719 0-17.542969 14.21875-31.761719 31.753906-31.761719 17.542969 0 31.761719 14.21875 31.761719 31.761719zm0 0" stroke="#00a1de" stroke-width="3.148148"/></g></svg>