<?xml version="1.0" encoding="UTF-8"?>
<svg xmlns="http://www.w3.org/2000/svg" xmlns:xlink="http://www.w3.org/1999/xlink" width="128pt" height="85pt" viewBox="0 0 128 85" version="1.1">
<defs>
<clipPath id="clip1">
  <path d="M 0 0 L 127.679688 0 L 127.679688 43 L 0 43 Z M 0 0 "/>
</clipPath>
<clipPath id="clip2">
  <path d="M 0 42 L 127.679688 42 L 127.679688 64 L 0 64 Z M 0 42 "/>
</clipPath>
<clipPath id="clip3">
  <path d="M 0 63 L 127.679688 63 L 127.679688 85 L 0 85 Z M 0 63 "/>
</clipPath>
</defs>
<g id="surface917">
<g clip-path="url(#clip1)" clip-rule="nonzero">
<path style=" stroke:none;fill-rule:evenodd;fill:rgb(0%,63.136292%,87.057495%);fill-opacity:1;" d="M 0 0 L 127.5 0 L 127.5 42.5 L 0 42.5 Z M 0 0 "/>
</g>
<g clip-path="url(#clip2)" clip-rule="nonzero">
<path style=" stroke:none;fill-rule:evenodd;fill:rgb(98.03772%,82.351685%,0.392151%);fill-opacity:1;" d="M 0 42.5 L 127.5 42.5 L 127.5 63.75 L 0 63.75 Z M 0 42.5 "/>
</g>
<g clip-path="url(#clip3)" clip-rule="nonzero">
<path style=" stroke:none;fill-rule:evenodd;fill:rgb(12.548828%,37.646484%,23.921204%);fill-opacity:1;" d="M 0 63.75 L 127.5 63.75 L 127.5 85 L 0 85 Z M 0 63.75 "/>
</g>
<path style=" stroke:none;fill-rule:evenodd;fill:rgb(89.802551%,74.508667%,0.392151%);fill-opacity:1;" d="M 118.363281 22.207031 L 108.871094 22.761719 L 117.894531 25.753906 L 108.582031 23.832031 L 116.527344 29.058594 L 108.027344 24.792969 L 114.347656 31.898438 L 107.242188 25.578125 L 111.507812 34.078125 L 106.28125 26.132812 L 108.203125 35.445312 L 105.210938 26.421875 L 104.65625 35.914062 L 104.539062 22.089844 Z M 118.363281 22.207031 "/>
<path style=" stroke:none;fill-rule:evenodd;fill:rgb(89.802551%,74.508667%,0.392151%);fill-opacity:1;" d="M 118.363281 22.207031 L 108.871094 21.652344 L 117.894531 18.660156 L 108.582031 20.578125 L 116.527344 15.351562 L 108.027344 19.621094 L 114.347656 12.515625 L 107.242188 18.835938 L 111.507812 10.335938 L 106.28125 18.28125 L 108.203125 8.96875 L 105.210938 17.992188 L 104.65625 8.5 L 104.539062 22.324219 Z M 118.363281 22.207031 "/>
<path style=" stroke:none;fill-rule:evenodd;fill:rgb(89.802551%,74.508667%,0.392151%);fill-opacity:1;" d="M 90.949219 22.207031 L 100.441406 22.761719 L 91.417969 25.753906 L 100.730469 23.832031 L 92.785156 29.058594 L 101.285156 24.792969 L 94.964844 31.898438 L 102.070312 25.578125 L 97.804688 34.078125 L 103.03125 26.132812 L 101.109375 35.445312 L 104.101562 26.421875 L 104.65625 35.914062 L 104.773438 22.089844 Z M 90.949219 22.207031 "/>
<path style=" stroke:none;fill-rule:evenodd;fill:rgb(89.802551%,74.508667%,0.392151%);fill-opacity:1;" d="M 90.949219 22.207031 L 100.441406 21.652344 L 91.417969 18.660156 L 100.730469 20.578125 L 92.785156 15.351562 L 101.285156 19.621094 L 94.964844 12.515625 L 102.070312 18.835938 L 97.804688 10.335938 L 103.03125 18.28125 L 101.109375 8.96875 L 104.101562 17.992188 L 104.65625 8.5 L 104.773438 22.324219 Z M 90.949219 22.207031 "/>
<path style="fill-rule:evenodd;fill:rgb(89.802551%,74.508667%,0.392151%);fill-opacity:1;stroke-width:0.401389;stroke-linecap:butt;stroke-linejoin:miter;stroke:rgb(0%,63.136292%,87.057495%);stroke-opacity:1;stroke-miterlimit:4;" d="M 108.707031 22.207031 C 108.707031 24.441406 106.894531 26.253906 104.65625 26.253906 C 102.421875 26.253906 100.605469 24.441406 100.605469 22.207031 C 100.605469 19.96875 102.421875 18.15625 104.65625 18.15625 C 106.894531 18.15625 108.707031 19.96875 108.707031 22.207031 Z M 108.707031 22.207031 "/>
</g>
</svg>
