<?xml version="1.0" encoding="UTF-8"?>
<svg xmlns="http://www.w3.org/2000/svg" xmlns:xlink="http://www.w3.org/1999/xlink" width="128pt" height="85pt" viewBox="0 0 128 85" version="1.1">
<defs>
<clipPath id="clip1">
  <path d="M 0 0 L 127.679688 0 L 127.679688 85 L 0 85 Z M 0 0 "/>
</clipPath>
</defs>
<g id="surface932">
<g clip-path="url(#clip1)" clip-rule="nonzero">
<path style=" stroke:none;fill-rule:evenodd;fill:rgb(0%,61.959839%,28.627014%);fill-opacity:1;" d="M 127.5 0 L 0 0 L 0 85 Z M 127.5 0 "/>
<path style=" stroke:none;fill-rule:evenodd;fill:rgb(80.783081%,6.666565%,14.901733%);fill-opacity:1;" d="M 0 85 L 127.5 85 L 127.5 0 Z M 0 85 "/>
<path style=" stroke:none;fill-rule:evenodd;fill:rgb(0%,0%,0%);fill-opacity:1;" d="M 0 85 L 127.5 0 Z M 0 85 "/>
<path style="fill:none;stroke-width:35.7;stroke-linecap:butt;stroke-linejoin:miter;stroke:rgb(98.822021%,81.959534%,8.627319%);stroke-opacity:1;stroke-miterlimit:4;" d="M 0 85 L 127.5 0 "/>
<path style=" stroke:none;fill-rule:evenodd;fill:rgb(0%,0%,0%);fill-opacity:1;" d="M 0 85 L 127.5 0 Z M 0 85 "/>
<path style="fill:none;stroke-width:25.5;stroke-linecap:butt;stroke-linejoin:miter;stroke:rgb(0%,0%,0%);stroke-opacity:1;stroke-miterlimit:4;" d="M 0 85 L 127.5 0 "/>
</g>
<path style=" stroke:none;fill-rule:evenodd;fill:rgb(99.998474%,99.998474%,99.998474%);fill-opacity:1;" d="M 81.375 16.449219 L 84.59375 27.90625 L 90.320312 26.296875 Z M 81.375 16.449219 "/>
<path style=" stroke:none;fill-rule:evenodd;fill:rgb(99.998474%,99.998474%,99.998474%);fill-opacity:1;" d="M 81.375 16.449219 L 90.710938 23.824219 L 87.023438 28.496094 Z M 81.375 16.449219 "/>
<path style=" stroke:none;fill-rule:evenodd;fill:rgb(99.998474%,99.998474%,99.998474%);fill-opacity:1;" d="M 95.351562 17.011719 L 85.449219 23.613281 L 88.75 28.5625 Z M 95.351562 17.011719 "/>
<path style=" stroke:none;fill-rule:evenodd;fill:rgb(99.998474%,99.998474%,99.998474%);fill-opacity:1;" d="M 95.351562 17.011719 L 91.222656 28.171875 L 85.640625 26.105469 Z M 95.351562 17.011719 "/>
<path style=" stroke:none;fill-rule:evenodd;fill:rgb(99.998474%,99.998474%,99.998474%);fill-opacity:1;" d="M 76.519531 29.566406 L 88.410156 30.046875 L 88.648438 24.101562 Z M 76.519531 29.566406 "/>
<path style=" stroke:none;fill-rule:evenodd;fill:rgb(99.998474%,99.998474%,99.998474%);fill-opacity:1;" d="M 76.519531 29.566406 L 86.421875 22.96875 L 89.71875 27.917969 Z M 76.519531 29.566406 "/>
<path style=" stroke:none;fill-rule:evenodd;fill:rgb(99.998474%,99.998474%,99.998474%);fill-opacity:1;" d="M 99.136719 30.480469 L 89.796875 23.101562 L 86.109375 27.773438 Z M 99.136719 30.480469 "/>
<path style=" stroke:none;fill-rule:evenodd;fill:rgb(99.998474%,99.998474%,99.998474%);fill-opacity:1;" d="M 99.136719 30.480469 L 87.246094 30 L 87.484375 24.054688 Z M 99.136719 30.480469 "/>
<path style=" stroke:none;fill-rule:evenodd;fill:rgb(99.998474%,99.998474%,99.998474%);fill-opacity:1;" d="M 87.496094 38.242188 L 91.625 27.078125 L 86.046875 25.015625 Z M 87.496094 38.242188 "/>
<path style=" stroke:none;fill-rule:evenodd;fill:rgb(99.998474%,99.998474%,99.998474%);fill-opacity:1;" d="M 87.496094 38.242188 L 84.277344 26.785156 L 90.003906 25.175781 Z M 87.496094 38.242188 "/>
<path style=" stroke:none;fill-rule:evenodd;fill:rgb(99.998474%,99.998474%,99.998474%);fill-opacity:1;" d="M 32.925781 48.75 L 36.140625 60.203125 L 41.871094 58.597656 Z M 32.925781 48.75 "/>
<path style=" stroke:none;fill-rule:evenodd;fill:rgb(99.998474%,99.998474%,99.998474%);fill-opacity:1;" d="M 32.925781 48.75 L 42.261719 56.125 L 38.574219 60.792969 Z M 32.925781 48.75 "/>
<path style=" stroke:none;fill-rule:evenodd;fill:rgb(99.998474%,99.998474%,99.998474%);fill-opacity:1;" d="M 46.902344 49.3125 L 37 55.914062 L 40.300781 60.863281 Z M 46.902344 49.3125 "/>
<path style=" stroke:none;fill-rule:evenodd;fill:rgb(99.998474%,99.998474%,99.998474%);fill-opacity:1;" d="M 46.902344 49.3125 L 42.773438 60.472656 L 37.191406 58.40625 Z M 46.902344 49.3125 "/>
<path style=" stroke:none;fill-rule:evenodd;fill:rgb(99.998474%,99.998474%,99.998474%);fill-opacity:1;" d="M 28.070312 61.867188 L 39.957031 62.347656 L 40.199219 56.402344 Z M 28.070312 61.867188 "/>
<path style=" stroke:none;fill-rule:evenodd;fill:rgb(99.998474%,99.998474%,99.998474%);fill-opacity:1;" d="M 28.070312 61.867188 L 37.96875 55.265625 L 41.269531 60.21875 Z M 28.070312 61.867188 "/>
<path style=" stroke:none;fill-rule:evenodd;fill:rgb(99.998474%,99.998474%,99.998474%);fill-opacity:1;" d="M 50.683594 62.78125 L 41.347656 55.402344 L 37.660156 60.070312 Z M 50.683594 62.78125 "/>
<path style=" stroke:none;fill-rule:evenodd;fill:rgb(99.998474%,99.998474%,99.998474%);fill-opacity:1;" d="M 50.683594 62.78125 L 38.796875 62.300781 L 39.035156 56.355469 Z M 50.683594 62.78125 "/>
<path style=" stroke:none;fill-rule:evenodd;fill:rgb(99.998474%,99.998474%,99.998474%);fill-opacity:1;" d="M 39.046875 70.539062 L 43.175781 59.378906 L 37.59375 57.316406 Z M 39.046875 70.539062 "/>
<path style=" stroke:none;fill-rule:evenodd;fill:rgb(99.998474%,99.998474%,99.998474%);fill-opacity:1;" d="M 39.046875 70.539062 L 35.828125 59.082031 L 41.554688 57.472656 Z M 39.046875 70.539062 "/>
</g>
</svg>
