<svg viewBox="0 0 1000 667" xmlns="http://www.w3.org/2000/svg" xmlns:xlink="http://www.w3.org/1999/xlink"><clipPath id="a"><path d="m0 0h1000v666.71875h-1000zm0 0"/></clipPath><g clip-path="url(#a)"><g fill-rule="evenodd"><path d="m1000 0h-1000v666.667969zm0 0" fill="#009e49"/><path d="m0 666.667969h1000v-666.667969zm0 0" fill="#ce1126"/><path d="m0 666.667969 1000-666.667969zm0 0"/></g><path d="m0 666.667969 1000-666.667969" fill="none" stroke="#fcd116" stroke-width="280"/><path d="m0 666.667969 1000-666.667969zm0 0" fill-rule="evenodd"/><path d="m0 666.667969 1000-666.667969" fill="none" stroke="#000" stroke-width="200"/></g><g fill="#fff" fill-rule="evenodd"><path d="m638.226562 129.007812 25.246094 89.855469 44.925782-12.617187zm0 0"/><path d="m638.226562 129.007812 73.238282 57.859376-28.929688 36.617187zm0 0"/><path d="m747.855469 133.429688-77.65625 51.777343 25.890625 38.828125zm0 0"/><path d="m747.855469 133.429688-32.394531 87.535156-43.765626-16.199219zm0 0"/><path d="m600.144531 231.90625 93.257813 3.761719 1.882812-46.628907zm0 0"/><path d="m600.144531 231.90625 77.660157-51.769531 25.882812 38.824219zm0 0"/><path d="m777.527344 239.0625-73.230469-57.859375-28.933594 36.617187zm0 0"/><path d="m777.527344 239.0625-93.253906-3.757812 1.878906-46.632813zm0 0"/><path d="m686.234375 299.921875 32.402344-87.53125-43.765625-16.195313zm0 0"/><path d="m686.234375 299.921875-25.238281-89.851563 44.929687-12.621093zm0 0"/><path d="m258.230469 382.339844 25.238281 89.855468 44.925781-12.617187zm0 0"/><path d="m258.230469 382.339844 73.230469 57.863281-28.925782 36.613281zm0 0"/><path d="m367.859375 386.761719-77.65625 51.773437 25.882813 38.832032zm0 0"/><path d="m367.859375 386.761719-32.394531 87.53125-43.765625-16.199219zm0 0"/><path d="m220.144531 485.242188 93.253907 3.761718 1.886718-46.632812zm0 0"/><path d="m220.144531 485.242188 77.660157-51.773438 25.882812 38.828125zm0 0"/><path d="m397.53125 492.394531-73.238281-57.855469-28.925781 36.613282zm0 0"/><path d="m397.53125 492.394531-93.257812-3.761719 1.878906-46.628906zm0 0"/><path d="m306.238281 553.253906 32.394531-87.527344-43.765624-16.199218zm0 0"/><path d="m306.238281 553.253906-25.238281-89.855468 44.929688-12.617188zm0 0"/></g></svg>