<svg viewBox="0 0 1000 667" xmlns="http://www.w3.org/2000/svg" xmlns:xlink="http://www.w3.org/1999/xlink"><clipPath id="a"><path d="m0 0h267v666.71875h-267zm0 0"/></clipPath><clipPath id="b"><path d="m250 0h750v666.71875h-750zm0 0"/></clipPath><clipPath id="c"><path d="m750 0h250v666.71875h-250zm0 0"/></clipPath><g clip-path="url(#a)"><path d="m0 0h266.667969v666.667969h-266.667969zm0 0" fill="#0072c6" fill-rule="evenodd"/></g><g clip-path="url(#b)"><path d="m250 0h750v666.667969h-750zm0 0" fill="#fcd116" fill-rule="evenodd"/></g><g clip-path="url(#c)"><path d="m750 0h250v666.667969h-250zm0 0" fill="#009e60" fill-rule="evenodd"/></g><g fill="#009e60" fill-rule="evenodd"><path d="m444.445312 472.222656 55.554688 111.109375 55.554688-111.109375-55.554688-111.113281zm0 0"/><path d="m375 333.332031 55.554688 111.113281 55.554687-111.113281-55.554687-111.109375zm0 0"/><path d="m513.890625 333.332031 55.554687 111.113281 55.554688-111.113281-55.554688-111.109375zm0 0"/></g></svg>