<?xml version="1.0" encoding="UTF-8"?>
<svg xmlns="http://www.w3.org/2000/svg" xmlns:xlink="http://www.w3.org/1999/xlink" width="128pt" height="64pt" viewBox="0 0 128 64" version="1.1">
<g id="surface957">
<rect x="0" y="0" width="128" height="64" style="fill:rgb(80.783081%,6.666565%,14.901733%);fill-opacity:1;stroke:none;"/>
<path style=" stroke:none;fill-rule:evenodd;fill:rgb(0%,16.862488%,49.803162%);fill-opacity:1;" d="M 0 0 L 64 0 L 64 32 L 0 32 Z M 0 0 "/>
<path style="fill-rule:nonzero;fill:rgb(99.998474%,99.998474%,99.998474%);fill-opacity:1;stroke-width:1;stroke-linecap:square;stroke-linejoin:miter;stroke:rgb(99.998474%,99.998474%,99.998474%);stroke-opacity:1;stroke-miterlimit:3.239307;" d="M 30.300781 27.4375 L 29.253906 30.667969 L 32 28.671875 L 34.746094 30.667969 L 33.699219 27.4375 L 36.445312 25.441406 L 33.050781 25.441406 L 32 22.210938 L 30.949219 25.441406 L 27.554688 25.441406 Z M 30.300781 27.4375 "/>
<path style="fill-rule:nonzero;fill:rgb(99.998474%,99.998474%,99.998474%);fill-opacity:1;stroke-width:1;stroke-linecap:square;stroke-linejoin:miter;stroke:rgb(99.998474%,99.998474%,99.998474%);stroke-opacity:1;stroke-miterlimit:3.239307;" d="M 20.863281 13.453125 L 20.023438 16 L 22.222656 14.425781 L 24.417969 16 L 23.582031 13.453125 L 25.777344 11.878906 L 23.0625 11.878906 L 22.222656 9.332031 L 21.382812 11.878906 L 18.667969 11.878906 Z M 20.863281 13.453125 "/>
<path style="fill-rule:nonzero;fill:rgb(99.998474%,99.998474%,99.998474%);fill-opacity:1;stroke-width:1;stroke-linecap:square;stroke-linejoin:miter;stroke:rgb(99.998474%,99.998474%,99.998474%);stroke-opacity:1;stroke-miterlimit:3.239307;" d="M 40.726562 11.84375 L 39.941406 14.222656 L 42 12.753906 L 44.058594 14.222656 L 43.273438 11.84375 L 45.332031 10.375 L 42.785156 10.375 L 42 8 L 41.214844 10.375 L 38.667969 10.375 Z M 40.726562 11.84375 "/>
<path style="fill-rule:nonzero;fill:rgb(99.998474%,99.998474%,99.998474%);fill-opacity:1;stroke-width:1;stroke-linecap:square;stroke-linejoin:miter;stroke:rgb(99.998474%,99.998474%,99.998474%);stroke-opacity:1;stroke-miterlimit:3.239307;" d="M 30.640625 5.453125 L 29.800781 8 L 32 6.425781 L 34.199219 8 L 33.359375 5.453125 L 35.554688 3.878906 L 32.839844 3.878906 L 32 1.332031 L 31.160156 3.878906 L 28.445312 3.878906 Z M 30.640625 5.453125 "/>
<path style="fill-rule:nonzero;fill:rgb(99.998474%,99.998474%,99.998474%);fill-opacity:1;stroke-width:1;stroke-linecap:square;stroke-linejoin:miter;stroke:rgb(99.998474%,99.998474%,99.998474%);stroke-opacity:1;stroke-miterlimit:3.239307;" d="M 36.039062 18.828125 L 35.515625 20.445312 L 36.890625 19.445312 L 38.261719 20.445312 L 37.738281 18.828125 L 39.109375 17.832031 L 37.414062 17.832031 L 36.890625 16.21875 L 36.363281 17.832031 L 34.667969 17.832031 Z M 36.039062 18.828125 "/>
</g>
</svg>
