<?xml version="1.0" encoding="UTF-8"?>
<svg xmlns="http://www.w3.org/2000/svg" xmlns:xlink="http://www.w3.org/1999/xlink" width="128pt" height="85pt" viewBox="0 0 128 85" version="1.1">
<defs>
<clipPath id="clip1">
  <path d="M 0 0 L 127.679688 0 L 127.679688 85 L 0 85 Z M 0 0 "/>
</clipPath>
</defs>
<g id="surface972">
<g clip-path="url(#clip1)" clip-rule="nonzero">
<path style=" stroke:none;fill-rule:evenodd;fill:rgb(0%,42.352295%,20.783997%);fill-opacity:1;" d="M 0 85 L 0 0 L 127.5 0 L 127.5 85 Z M 0 85 "/>
</g>
<path style=" stroke:none;fill-rule:evenodd;fill:rgb(99.998474%,99.998474%,99.998474%);fill-opacity:1;" d="M 54.957031 20.074219 C 54.890625 20.074219 54.792969 20.109375 54.65625 20.191406 C 54.34375 20.402344 53.726562 21.042969 53.710938 21.78125 C 53.691406 22.195312 53.613281 22.195312 53.882812 22.460938 C 54.082031 22.746094 54.277344 22.714844 54.675781 22.507812 C 54.90625 22.339844 54.980469 22.234375 55.058594 21.949219 C 55.152344 21.476562 54.558594 22.175781 54.484375 21.648438 C 54.351562 21.160156 54.730469 20.957031 55.089844 20.484375 C 55.097656 20.261719 55.101562 20.078125 54.957031 20.074219 Z M 60.75 20.105469 C 60.636719 20.121094 60.5 20.265625 60.3125 20.605469 C 60.175781 20.964844 59.59375 21.507812 60.015625 22.625 C 60.359375 23.335938 60.5 24.488281 60.34375 25.769531 C 60.105469 26.136719 60.050781 26.261719 59.738281 26.625 C 59.300781 27.097656 58.824219 26.976562 58.457031 26.800781 C 58.117188 26.570312 57.847656 26.453125 57.695312 25.722656 C 57.722656 24.558594 57.789062 22.652344 57.578125 22.246094 C 57.261719 21.621094 56.746094 21.847656 56.523438 22.035156 C 55.460938 23.007812 54.9375 24.644531 54.617188 25.949219 C 54.324219 26.902344 54.007812 26.625 53.789062 26.242188 C 53.253906 25.738281 53.214844 21.808594 52.566406 22.457031 C 51.53125 25.421875 53.164062 28.667969 54.292969 28.351562 C 55.109375 28.691406 55.628906 27.136719 55.960938 25.433594 C 56.191406 24.957031 56.363281 24.902344 56.480469 25.148438 C 56.453125 27.410156 56.644531 27.914062 57.226562 28.601562 C 58.523438 29.601562 59.597656 28.730469 59.679688 28.644531 L 60.691406 27.636719 C 60.914062 27.398438 61.210938 27.382812 61.527344 27.59375 C 61.835938 27.875 61.796875 28.355469 62.457031 28.691406 C 63.015625 28.914062 64.203125 28.746094 64.476562 28.265625 C 64.847656 27.632812 64.9375 27.414062 65.109375 27.171875 C 65.375 26.820312 65.828125 26.976562 65.828125 27.089844 C 65.785156 27.285156 65.519531 27.476562 65.699219 27.832031 C 66.011719 28.066406 66.085938 27.914062 66.273438 27.863281 C 66.933594 27.546875 67.425781 26.121094 67.425781 26.121094 C 67.457031 25.589844 67.152344 25.628906 66.957031 25.738281 C 66.707031 25.894531 66.691406 25.945312 66.4375 26.097656 C 66.117188 26.148438 65.492188 26.359375 65.183594 25.882812 C 64.867188 25.308594 64.867188 24.507812 64.625 23.925781 C 64.625 23.882812 64.203125 23.015625 64.59375 22.960938 C 64.789062 22.996094 65.214844 23.105469 65.28125 22.753906 C 65.484375 22.410156 64.835938 21.433594 64.390625 20.941406 C 64.007812 20.519531 63.476562 20.46875 62.964844 20.898438 C 62.605469 21.230469 62.65625 21.597656 62.585938 21.949219 C 62.496094 22.351562 62.511719 22.851562 62.921875 23.386719 C 63.28125 24.09375 63.933594 25.003906 63.71875 26.285156 C 63.71875 26.285156 63.339844 26.894531 62.671875 26.816406 C 62.394531 26.757812 61.941406 26.636719 61.699219 24.855469 C 61.515625 23.507812 61.746094 21.621094 61.171875 20.738281 C 61.042969 20.40625 60.933594 20.082031 60.75 20.105469 Z M 58.914062 20.25 C 58.742188 20.265625 58.550781 20.464844 58.394531 20.855469 C 58.261719 21.152344 58.097656 22.699219 58.125 22.699219 C 58.015625 23.160156 58.605469 23.355469 58.875 22.761719 C 59.273438 21.675781 59.277344 21.214844 59.304688 20.753906 C 59.242188 20.402344 59.089844 20.234375 58.914062 20.25 Z M 65.683594 20.371094 C 65.503906 20.386719 65.363281 20.492188 65.3125 20.753906 C 65.242188 21.371094 65.277344 21.707031 65.382812 22.222656 C 65.460938 22.5625 65.957031 23.136719 66.203125 23.46875 C 67.375 25.046875 68.503906 26.628906 69.59375 28.265625 C 69.765625 29.484375 69.890625 30.671875 69.96875 31.859375 C 70.148438 34.457031 70.203125 37.691406 70.039062 40.425781 C 70.527344 40.445312 71.308594 39.640625 71.582031 38.460938 C 71.757812 36.828125 71.515625 33.5 71.5 32.539062 C 71.488281 32.136719 71.464844 31.660156 71.4375 31.160156 C 72.703125 33.230469 73.933594 35.425781 75.140625 37.835938 C 75.578125 37.625 75.480469 35.148438 75.226562 34.800781 C 74.257812 32.722656 72.925781 30.671875 72.5 29.882812 C 72.347656 29.597656 71.824219 28.800781 71.203125 27.882812 C 71.089844 26.574219 70.964844 25.46875 70.882812 25.132812 C 70.683594 23.75 71.453125 25.289062 71.347656 24.484375 C 71.097656 23.101562 70.335938 22.164062 69.433594 20.898438 C 69.144531 20.484375 69.148438 20.402344 68.703125 21 C 68.433594 21.605469 68.4375 22.113281 68.515625 22.585938 C 68.398438 22.417969 68.25 22.210938 68.042969 21.960938 C 67.265625 21.292969 67.214844 21.257812 66.570312 20.710938 C 66.367188 20.566406 65.980469 20.34375 65.683594 20.371094 Z M 85.742188 20.578125 C 85.65625 20.566406 85.5625 20.609375 85.457031 20.765625 C 85.253906 20.941406 85.035156 21.265625 85.042969 21.679688 C 85.089844 22.40625 85.222656 23.15625 85.269531 23.882812 C 85.289062 23.980469 85.304688 24.078125 85.324219 24.175781 C 85.246094 24.078125 85.175781 24 85.136719 23.957031 C 83.714844 22.464844 85.792969 23.714844 84.867188 22.5625 C 84.085938 21.703125 83.855469 21.429688 83.1875 20.914062 C 82.851562 20.695312 82.648438 20.28125 82.539062 20.988281 C 82.496094 21.609375 82.449219 22.324219 82.492188 22.847656 C 82.488281 23.136719 82.789062 23.683594 83.050781 24.007812 C 84 25.171875 84.96875 26.410156 85.941406 27.703125 C 86.144531 30.339844 86.199219 32.757812 86.40625 35.402344 C 86.378906 36.53125 86.03125 38.03125 85.703125 38.175781 C 85.703125 38.175781 85.199219 38.464844 84.863281 38.140625 C 84.617188 38.042969 83.640625 36.511719 83.640625 36.511719 C 83.140625 36.054688 82.804688 36.183594 82.449219 36.511719 C 81.46875 37.460938 81.023438 39.234375 80.355469 40.457031 C 80.183594 40.730469 79.699219 40.964844 79.160156 40.4375 C 77.792969 38.566406 78.59375 35.90625 78.421875 36.589844 C 77.203125 37.964844 77.746094 40.242188 78.019531 40.730469 C 78.421875 41.535156 78.746094 42.046875 79.527344 42.445312 C 80.242188 42.96875 80.792969 42.644531 81.101562 42.277344 C 81.816406 41.53125 81.828125 39.632812 82.164062 39.257812 C 82.398438 38.566406 82.992188 38.6875 83.277344 38.992188 C 83.558594 39.394531 83.886719 39.65625 84.296875 39.875 C 84.96875 40.464844 85.765625 40.570312 86.550781 40.035156 C 87.089844 39.734375 87.4375 39.339844 87.75 38.566406 C 88.089844 37.664062 87.921875 32.933594 87.847656 30.300781 C 88.351562 31.011719 88.851562 31.738281 89.34375 32.472656 C 89.5625 34.785156 89.660156 37.058594 89.589844 39.242188 C 89.539062 39.675781 91.105469 37.945312 91.09375 37.128906 C 91.085938 36.410156 91.09375 35.761719 91.09375 35.15625 C 91.851562 36.367188 92.585938 37.601562 93.28125 38.847656 C 93.710938 38.621094 93.566406 36.183594 93.292969 35.847656 C 92.566406 34.625 91.632812 33.308594 90.914062 32.289062 C 90.769531 31 90.574219 29.480469 90.488281 29.015625 C 90.351562 28.289062 90.210938 27.199219 90.003906 26.339844 C 89.945312 26 89.773438 24.925781 89.828125 24.824219 C 89.914062 24.582031 90.234375 24.832031 90.390625 24.554688 C 90.628906 24.296875 89.574219 21.5625 89.039062 20.78125 C 88.84375 20.429688 88.496094 20.554688 88.066406 21.121094 C 87.664062 21.496094 87.8125 22.347656 87.964844 23.160156 C 88.359375 25.230469 88.714844 27.339844 88.996094 29.441406 C 88.476562 28.671875 87.84375 27.738281 87.21875 26.835938 C 87.203125 26.75 87.140625 26.433594 87.140625 26.429688 C 87.140625 26.390625 87.054688 24.734375 86.980469 24.339844 C 86.96875 24.179688 86.929688 24.132812 87.097656 24.15625 C 87.277344 24.304688 87.300781 24.3125 87.410156 24.363281 C 87.589844 24.394531 87.75 24.089844 87.640625 23.808594 C 87.085938 22.785156 86.527344 21.753906 85.972656 20.726562 C 85.90625 20.664062 85.828125 20.59375 85.742188 20.578125 Z M 33.972656 20.632812 C 33.664062 20.625 33.324219 20.816406 33.457031 21.183594 C 33.378906 21.386719 34.0625 22.070312 34.179688 22.445312 C 34.289062 22.710938 34.074219 23.570312 34.296875 23.648438 C 34.503906 23.738281 34.785156 23.054688 34.890625 22.421875 C 34.953125 22.078125 34.90625 20.890625 34.101562 20.648438 C 34.058594 20.640625 34.015625 20.632812 33.972656 20.632812 Z M 92.949219 20.640625 C 92.878906 20.648438 92.792969 20.757812 92.660156 21.039062 C 92.347656 21.554688 92.238281 22.476562 92.363281 23.296875 C 93.125 28.429688 93.6875 33.402344 93.804688 37.953125 C 93.738281 38.382812 93.71875 38.613281 93.515625 39.160156 C 93.070312 39.734375 92.574219 40.453125 92.109375 40.800781 C 91.644531 41.148438 90.652344 41.476562 90.328125 41.734375 C 89.300781 42.328125 89.296875 43.011719 90.128906 43.035156 C 91.558594 42.871094 93.253906 42.753906 94.417969 40.992188 C 94.730469 40.496094 95.097656 39.160156 95.117188 38.339844 C 95.226562 33.539062 95.054688 28.84375 94.335938 25.371094 C 94.289062 25.035156 94.140625 24.257812 94.195312 24.15625 C 94.289062 23.917969 94.757812 24.179688 94.925781 23.90625 C 95.167969 23.65625 93.714844 21.792969 93.203125 20.996094 C 93.101562 20.796875 93.039062 20.628906 92.949219 20.640625 Z M 77.933594 20.71875 C 77.875 20.730469 77.789062 20.820312 77.628906 21.03125 C 77.226562 22.339844 77.085938 23.40625 77.238281 24.21875 C 78.265625 29.582031 79.320312 34.464844 79.152344 39.566406 C 79.636719 39.570312 80.203125 38.453125 80.441406 37.347656 C 80.574219 35.824219 80.355469 34.894531 80.316406 34 C 80.277344 33.105469 79.300781 25.835938 79.105469 25.160156 C 78.867188 23.878906 80.050781 24.992188 79.921875 24.246094 C 79.511719 23.308594 78.488281 21.9375 78.167969 21.121094 C 78.050781 20.902344 78.035156 20.703125 77.933594 20.71875 Z M 41.378906 20.820312 C 41.253906 20.839844 41.132812 20.945312 41.089844 21.117188 C 41.058594 21.230469 41.136719 21.417969 41.035156 21.472656 C 40.976562 21.53125 40.753906 21.492188 40.761719 21.179688 C 40.761719 21.082031 40.691406 20.980469 40.648438 20.914062 C 40.601562 20.886719 40.574219 20.878906 40.492188 20.878906 C 40.394531 20.882812 40.398438 20.90625 40.34375 20.988281 C 40.320312 21.074219 40.289062 21.15625 40.289062 21.25 C 40.277344 21.359375 40.234375 21.398438 40.152344 21.414062 C 40.058594 21.414062 40.082031 21.425781 40.007812 21.378906 C 39.964844 21.328125 39.914062 21.3125 39.914062 21.226562 C 39.914062 21.144531 39.890625 21.007812 39.863281 20.953125 C 39.828125 20.902344 39.765625 20.875 39.695312 20.855469 C 39.3125 20.859375 39.285156 21.296875 39.308594 21.460938 C 39.277344 21.492188 39.265625 22.273438 39.785156 22.488281 C 40.484375 22.820312 41.796875 22.679688 41.738281 21.554688 C 41.738281 21.453125 41.71875 21.117188 41.707031 21.027344 C 41.636719 20.859375 41.503906 20.796875 41.378906 20.820312 Z M 50.761719 20.832031 C 50.519531 20.84375 50.308594 20.914062 50.125 21.007812 C 49.660156 21.449219 49.550781 22.160156 49.917969 22.605469 C 50.273438 22.773438 50.628906 23.128906 50.390625 23.328125 C 49.386719 24.398438 46.773438 26.191406 46.640625 26.519531 C 46.640625 26.523438 46.632812 26.527344 46.632812 26.53125 C 46.632812 26.535156 46.632812 26.539062 46.632812 26.542969 C 46.632812 26.542969 46.632812 26.546875 46.632812 26.546875 C 46.636719 26.550781 46.636719 26.554688 46.640625 26.558594 C 46.640625 26.558594 46.644531 26.5625 46.644531 26.5625 C 46.644531 26.5625 46.648438 26.5625 46.648438 26.5625 C 46.652344 26.5625 46.65625 26.566406 46.65625 26.566406 C 46.65625 26.566406 46.660156 26.566406 46.660156 26.566406 C 46.660156 26.566406 46.664062 26.574219 46.667969 26.574219 C 46.800781 26.664062 48.433594 26.660156 48.617188 26.578125 C 48.617188 26.578125 48.621094 26.574219 48.621094 26.574219 C 48.621094 26.574219 48.625 26.574219 48.625 26.574219 C 48.625 26.574219 48.625 26.566406 48.625 26.566406 C 49.1875 26.359375 51.855469 23.3125 51.855469 23.3125 C 51.71875 23.191406 51.589844 23.105469 51.453125 22.988281 C 51.304688 22.859375 51.320312 22.734375 51.453125 22.605469 C 52.113281 22.21875 51.902344 21.375 51.558594 20.988281 C 51.273438 20.863281 51.003906 20.820312 50.761719 20.832031 Z M 75.285156 20.839844 C 75.214844 20.847656 75.128906 20.957031 74.996094 21.234375 C 74.683594 21.75 74.46875 22.648438 74.492188 23.492188 C 75.175781 28.21875 75.386719 32.359375 75.832031 37.085938 C 75.867188 37.542969 75.800781 38.207031 75.496094 38.472656 C 74.371094 39.648438 72.75 41.09375 70.988281 41.761719 C 70.796875 41.976562 71.457031 42.882812 72.316406 42.882812 C 73.746094 42.714844 75.003906 41.914062 76.171875 39.796875 C 76.484375 39.300781 77.03125 38.246094 77.046875 37.425781 C 77.15625 32.625 76.804688 28.890625 76.085938 25.421875 C 76.039062 25.082031 76.070312 24.683594 76.128906 24.582031 C 76.222656 24.46875 76.535156 24.582031 76.703125 24.308594 C 76.949219 24.0625 76.050781 21.988281 75.539062 21.191406 C 75.4375 20.992188 75.375 20.832031 75.285156 20.839844 Z M 37.292969 20.984375 C 37.097656 21.007812 36.910156 21.167969 36.820312 21.382812 C 36.789062 22.140625 36.785156 22.898438 36.871094 23.597656 C 37.214844 24.824219 37.324219 25.902344 37.492188 27.160156 C 37.539062 28.839844 36.519531 27.886719 36.566406 27.050781 C 36.800781 25.96875 36.738281 24.265625 36.527344 23.832031 C 36.363281 23.402344 36.171875 23.292969 35.769531 23.367188 C 35.449219 23.347656 34.625 24.246094 34.394531 25.734375 C 34.394531 25.734375 34.203125 26.5 34.117188 27.179688 C 34.003906 27.949219 33.496094 28.492188 33.140625 27.074219 C 32.832031 26.042969 32.644531 23.5 32.128906 24.09375 C 31.984375 26.078125 31.808594 29.574219 33.496094 29.933594 C 35.539062 30.128906 34.410156 26.480469 35.148438 25.820312 C 35.289062 25.492188 35.546875 25.488281 35.566406 25.898438 L 35.566406 28.996094 C 35.550781 30.003906 36.210938 30.304688 36.726562 30.511719 C 37.261719 30.46875 37.617188 30.484375 37.824219 31.003906 C 37.910156 32.789062 37.996094 34.582031 38.082031 36.367188 C 38.082031 36.367188 39.316406 36.722656 39.378906 33.351562 C 39.4375 31.375 38.984375 29.714844 39.25 29.332031 C 39.257812 28.953125 39.742188 28.933594 40.078125 29.117188 C 40.613281 29.496094 40.847656 29.957031 41.675781 29.773438 C 42.9375 29.425781 43.699219 28.8125 43.71875 27.84375 C 43.644531 26.921875 43.539062 26.003906 43.136719 25.082031 C 43.195312 24.914062 42.898438 24.480469 42.953125 24.3125 C 43.179688 24.667969 43.523438 24.636719 43.601562 24.3125 C 43.386719 23.605469 43.050781 22.925781 42.511719 22.632812 C 42.066406 22.238281 41.410156 22.324219 41.171875 23.140625 C 41.0625 24.085938 41.515625 25.207031 42.203125 26.121094 C 42.351562 26.480469 42.554688 27.074219 42.464844 27.609375 C 42.097656 27.820312 41.734375 27.730469 41.425781 27.410156 C 41.425781 27.410156 40.425781 26.65625 40.425781 26.488281 C 40.691406 24.785156 40.480469 24.585938 40.332031 24.113281 C 40.230469 23.460938 39.921875 23.253906 39.667969 22.808594 C 39.417969 22.542969 39.078125 22.542969 38.914062 22.808594 C 38.472656 23.578125 38.679688 25.230469 39 25.96875 C 39.230469 26.648438 39.585938 27.074219 39.417969 27.074219 C 39.28125 27.457031 38.996094 27.367188 38.785156 26.925781 C 38.492188 26.007812 38.433594 24.640625 38.433594 24.023438 C 38.34375 23.261719 38.242188 21.628906 37.742188 21.214844 C 37.605469 21.03125 37.449219 20.96875 37.292969 20.984375 Z M 44.460938 20.996094 C 44.359375 21.007812 44.25 21.066406 44.117188 21.097656 C 43.683594 21.234375 43.277344 21.609375 43.402344 22.339844 C 43.917969 25.457031 44.25 27.835938 44.761719 30.953125 C 44.84375 31.316406 44.535156 31.796875 44.144531 31.75 C 43.472656 31.292969 43.304688 30.375 42.160156 30.414062 C 41.332031 30.425781 40.386719 31.328125 40.269531 32.195312 C 40.132812 32.886719 40.082031 33.632812 40.269531 34.234375 C 40.851562 34.933594 41.550781 34.859375 42.160156 34.703125 C 42.664062 34.496094 43.078125 34 43.253906 34.117188 C 43.253906 34.117188 43.261719 34.117188 43.261719 34.117188 C 43.261719 34.117188 43.261719 34.121094 43.261719 34.125 C 43.371094 34.316406 43.25 35.9375 40.890625 37.1875 C 39.441406 37.839844 38.289062 37.996094 37.667969 36.8125 C 37.28125 36.070312 37.695312 33.253906 36.746094 33.90625 C 33.945312 41.125 43.308594 42.132812 44.355469 34.203125 C 44.421875 33.980469 44.628906 33.753906 44.773438 33.808594 C 44.839844 33.835938 44.898438 33.921875 44.917969 34.085938 C 44.699219 41.265625 37.675781 41.757812 36.480469 39.5 C 36.1875 38.96875 36.097656 37.78125 36.066406 37.070312 C 36.011719 36.640625 35.90625 36.394531 35.78125 36.296875 C 35.496094 36.082031 35.113281 36.640625 35.03125 37.609375 C 34.914062 38.386719 34.945312 38.601562 34.945312 39.351562 C 35.320312 45.023438 44.363281 42.585938 45.832031 37.902344 C 46.558594 35.480469 45.816406 33.652344 46.058594 33.425781 C 46.0625 33.425781 46.070312 33.425781 46.070312 33.421875 C 46.074219 33.421875 46.078125 33.417969 46.082031 33.417969 C 46.085938 33.414062 46.089844 33.414062 46.089844 33.410156 C 46.101562 33.410156 46.113281 33.40625 46.125 33.40625 C 47.019531 34.375 48.28125 33.53125 48.558594 33.195312 C 48.675781 33.027344 48.972656 32.917969 49.179688 33.136719 C 49.878906 33.640625 51.105469 33.402344 51.363281 32.515625 C 51.507812 31.644531 51.636719 30.753906 51.664062 29.824219 C 51.207031 29.96875 50.839844 30.074219 50.691406 30.230469 C 50.65625 30.269531 50.632812 30.3125 50.625 30.355469 C 50.585938 30.613281 50.546875 30.871094 50.507812 31.128906 C 50.5 31.148438 50.496094 31.167969 50.484375 31.1875 C 50.464844 31.21875 50.433594 31.246094 50.402344 31.265625 C 50.238281 31.355469 49.957031 31.304688 49.941406 31.070312 C 49.726562 30.082031 48.832031 29.953125 48.292969 31.484375 C 47.925781 31.777344 47.261719 31.835938 47.191406 31.394531 C 47.28125 30.367188 46.867188 30.230469 46.039062 30.710938 C 45.773438 28.683594 45.507812 26.742188 45.242188 24.710938 C 45.585938 24.699219 45.902344 24.949219 46.21875 24.554688 C 45.878906 23.492188 45.15625 21.332031 44.746094 21.128906 C 44.746094 21.128906 44.742188 21.125 44.738281 21.125 C 44.71875 21.101562 44.695312 21.082031 44.679688 21.066406 C 44.671875 21.058594 44.660156 21.050781 44.652344 21.042969 C 44.644531 21.039062 44.632812 21.03125 44.625 21.027344 C 44.609375 21.019531 44.589844 21.011719 44.574219 21.007812 C 44.535156 20.996094 44.5 20.992188 44.460938 20.996094 Z M 72.398438 21.011719 C 72.039062 21 71.644531 21.226562 71.796875 21.675781 C 71.707031 21.921875 72.570312 22.75 72.707031 23.207031 C 72.957031 23.90625 72.515625 24.570312 72.777344 24.667969 C 73.015625 24.773438 73.347656 23.945312 73.472656 23.179688 C 73.617188 22.558594 73.175781 21.289062 72.546875 21.027344 C 72.5 21.015625 72.449219 21.011719 72.398438 21.011719 Z M 50.632812 21.777344 C 50.796875 21.761719 50.996094 21.910156 51.089844 22.121094 C 51.195312 22.347656 51.140625 22.566406 50.972656 22.605469 C 50.804688 22.648438 50.589844 22.496094 50.484375 22.269531 C 50.382812 22.046875 50.433594 21.824219 50.601562 21.78125 C 50.613281 21.78125 50.625 21.777344 50.632812 21.777344 Z M 91.007812 22.824219 C 90.683594 22.8125 90.324219 23.058594 90.46875 23.546875 C 90.382812 23.8125 91.164062 24.710938 91.289062 25.203125 C 91.402344 25.554688 91.117188 26.683594 91.355469 26.785156 C 91.570312 26.902344 91.878906 26.007812 91.992188 25.175781 C 92.054688 24.722656 91.71875 23.128906 91.148438 22.84375 C 91.105469 22.832031 91.054688 22.824219 91.007812 22.824219 Z M 68.6875 23.375 C 68.714844 23.507812 68.746094 23.644531 68.765625 23.78125 C 68.832031 24.074219 68.890625 24.367188 68.953125 24.65625 C 68.695312 24.300781 68.480469 24.015625 68.386719 23.914062 C 67.804688 23.21875 68.402344 23.457031 68.6875 23.375 Z M 73.828125 25.90625 C 73.703125 25.925781 73.582031 26.035156 73.535156 26.207031 C 73.507812 26.320312 73.589844 26.5 73.488281 26.558594 C 73.429688 26.617188 73.203125 26.582031 73.210938 26.273438 C 73.210938 26.171875 73.140625 26.0625 73.097656 26 C 73.050781 25.972656 73.019531 25.964844 72.941406 25.964844 C 72.84375 25.96875 72.847656 25.992188 72.792969 26.074219 C 72.769531 26.160156 72.738281 26.242188 72.738281 26.335938 C 72.726562 26.445312 72.6875 26.484375 72.605469 26.5 C 72.515625 26.5 72.53125 26.511719 72.457031 26.460938 C 72.414062 26.414062 72.363281 26.394531 72.363281 26.3125 C 72.363281 26.230469 72.339844 26.09375 72.316406 26.039062 C 72.277344 25.988281 72.214844 25.964844 72.144531 25.949219 C 71.761719 25.949219 71.742188 26.382812 71.761719 26.546875 C 71.734375 26.578125 71.714844 27.363281 72.234375 27.578125 C 72.933594 27.914062 74.25 27.765625 74.195312 26.636719 C 74.195312 26.539062 74.167969 26.203125 74.160156 26.113281 C 74.085938 25.945312 73.953125 25.882812 73.828125 25.90625 Z M 50.347656 26.140625 C 50.261719 26.128906 50.148438 26.160156 50.019531 26.238281 C 49.402344 26.574219 49.160156 27.566406 49.546875 28.148438 C 49.90625 28.660156 50.472656 28.472656 50.550781 28.472656 C 51.15625 28.546875 51.515625 27.335938 51.515625 27.335938 C 51.515625 27.335938 51.535156 26.992188 50.816406 27.636719 C 50.511719 27.695312 50.472656 27.585938 50.394531 27.414062 C 50.332031 27.097656 50.347656 26.777344 50.492188 26.460938 C 50.558594 26.273438 50.492188 26.152344 50.347656 26.140625 Z M 83.539062 26.292969 C 83.195312 26.277344 82.832031 26.5 82.738281 26.96875 C 82.738281 27.242188 82.863281 27.398438 82.839844 27.648438 C 82.804688 27.789062 82.65625 27.886719 82.304688 27.714844 C 82.359375 27.664062 82.074219 27.265625 82.074219 27.265625 C 81.800781 27.097656 81.429688 27.273438 81.191406 27.429688 C 81.0625 27.667969 80.964844 28.078125 81.113281 28.496094 C 81.507812 29.226562 82.863281 30.472656 83.507812 30.484375 C 83.519531 29.828125 83.585938 28.953125 83.621094 28.40625 C 83.636719 28.203125 83.683594 27.976562 83.882812 27.921875 C 84.078125 27.871094 84.417969 28.121094 84.421875 27.90625 C 84.386719 27.488281 84.304688 26.871094 84.066406 26.578125 C 83.945312 26.402344 83.746094 26.300781 83.539062 26.292969 Z M 56.066406 28.582031 C 56.054688 28.585938 56.046875 28.59375 56.039062 28.597656 C 56.035156 28.601562 56.027344 28.605469 56.023438 28.609375 C 55.953125 28.660156 55.875 28.777344 55.691406 28.90625 C 55.390625 29.253906 55.335938 29.492188 55.355469 30.1875 C 55.371094 30.261719 55.929688 31.816406 56.40625 32.914062 C 56.726562 34.050781 57.019531 35.351562 56.804688 36.582031 C 56.054688 38.210938 54.550781 39.667969 53.097656 40.460938 C 52.355469 40.699219 51.714844 40.617188 51.542969 40.457031 C 51.542969 40.453125 51.539062 40.453125 51.539062 40.449219 C 51.113281 40.164062 51.105469 39.65625 51.128906 39.570312 C 51.128906 39.566406 51.128906 39.5625 51.128906 39.5625 C 51.132812 39.5625 51.132812 39.558594 51.136719 39.558594 C 52.363281 38.703125 53.761719 38.011719 54.859375 35.707031 C 55.183594 34.824219 55.28125 34.296875 54.960938 32.933594 C 54.835938 32.425781 54.679688 32.007812 54.332031 31.648438 C 54.335938 31.648438 54.335938 31.644531 54.339844 31.640625 C 54.546875 31.542969 55.089844 31.941406 55.171875 31.691406 C 55.046875 31.039062 54.605469 30.167969 54.105469 29.71875 C 53.667969 29.324219 53.191406 29.277344 52.792969 29.640625 C 52.34375 29.890625 52.246094 30.789062 52.464844 31.578125 C 52.703125 32.171875 53.355469 32.277344 53.816406 33.46875 C 53.816406 33.472656 53.816406 33.472656 53.816406 33.476562 C 53.828125 33.550781 53.976562 34.367188 53.742188 34.695312 C 53.554688 35.289062 51.121094 37.207031 50.949219 37.320312 C 50.949219 37.324219 50.933594 37.332031 50.933594 37.332031 C 50.933594 37.332031 50.929688 37.335938 50.929688 37.335938 C 50.929688 37.335938 50.921875 37.34375 50.921875 37.34375 C 50.921875 37.34375 50.917969 37.347656 50.917969 37.347656 C 50.917969 37.347656 50.914062 37.347656 50.910156 37.347656 C 50.910156 37.347656 50.90625 37.347656 50.90625 37.347656 C 50.90625 37.347656 50.902344 37.34375 50.902344 37.34375 C 50.902344 37.34375 50.902344 37.335938 50.902344 37.335938 C 50.898438 37.335938 50.898438 37.328125 50.894531 37.328125 C 50.890625 37.277344 50.902344 37.15625 50.894531 36.960938 C 50.878906 36.601562 51.027344 35.789062 51.019531 35.648438 C 51.019531 35.648438 51.019531 35.644531 51.019531 35.644531 C 51.015625 35.640625 51.015625 35.636719 51.011719 35.636719 C 51.011719 35.636719 51.011719 35.632812 51.011719 35.632812 C 51.011719 35.632812 51.007812 35.632812 51.007812 35.632812 C 50.203125 36.152344 49.9375 37.742188 49.792969 38.214844 C 47.753906 39.621094 45.445312 40.667969 44.113281 42.09375 C 43.417969 43.175781 48.890625 40.847656 49.527344 40.566406 C 49.53125 40.570312 49.535156 40.578125 49.542969 40.582031 C 49.664062 40.714844 49.671875 41.179688 50.035156 41.597656 C 50.605469 42.367188 51.8125 42.84375 52.988281 42.550781 C 54.960938 41.835938 56.097656 40.492188 57.253906 39 C 57.421875 38.757812 57.679688 38.570312 57.917969 38.757812 C 58.714844 40.535156 61.007812 41.804688 63.972656 41.933594 C 64.65625 41.097656 64.328125 40.6875 64.050781 40.515625 C 63.964844 40.457031 62.578125 39.917969 62.359375 39.378906 C 62.226562 38.875 62.554688 38.433594 63.214844 38.097656 C 65.117188 37.867188 66.988281 37.613281 68.800781 37.03125 C 68.816406 36.421875 69.175781 35.511719 69.417969 35.117188 C 69.582031 34.84375 69.6875 34.816406 69.730469 34.777344 C 69.730469 34.777344 69.734375 34.773438 69.734375 34.773438 C 69.734375 34.769531 69.738281 34.765625 69.738281 34.765625 C 69.742188 34.765625 69.742188 34.761719 69.746094 34.761719 C 69.746094 34.757812 69.746094 34.753906 69.746094 34.75 C 69.746094 34.738281 69.746094 34.71875 69.738281 34.695312 L 69.433594 34.515625 L 63.359375 34.492188 C 63.285156 34.460938 63.230469 34.433594 63.195312 34.40625 C 63.191406 34.402344 63.1875 34.398438 63.183594 34.394531 C 63.183594 34.394531 63.179688 34.390625 63.179688 34.390625 C 63.179688 34.386719 63.175781 34.386719 63.175781 34.382812 C 63.171875 34.382812 63.167969 34.375 63.167969 34.375 C 63.167969 34.371094 63.164062 34.367188 63.164062 34.367188 C 63.164062 34.367188 63.164062 34.363281 63.164062 34.363281 C 63.164062 34.363281 63.15625 34.359375 63.15625 34.359375 C 63.15625 34.355469 63.15625 34.351562 63.15625 34.351562 C 63.15625 34.351562 63.15625 34.347656 63.15625 34.347656 C 63.15625 34.347656 63.15625 34.34375 63.15625 34.339844 C 63.15625 34.339844 63.15625 34.335938 63.15625 34.335938 C 63.15625 34.335938 63.15625 34.332031 63.15625 34.332031 C 63.15625 34.332031 63.15625 34.328125 63.15625 34.324219 C 63.15625 34.324219 63.15625 34.320312 63.15625 34.320312 C 63.15625 34.320312 63.15625 34.316406 63.15625 34.316406 C 63.160156 34.3125 63.164062 34.308594 63.164062 34.308594 C 63.164062 34.308594 63.167969 34.300781 63.167969 34.296875 C 63.199219 34.257812 63.269531 34.222656 63.359375 34.1875 C 64.808594 33.988281 67.386719 33.566406 67.558594 31.089844 C 67.53125 29.800781 67.003906 28.953125 65.421875 28.71875 C 64.257812 28.8125 63.429688 29.9375 63.5625 31.175781 C 63.507812 31.507812 63.675781 32.164062 63.332031 32.238281 C 61.101562 32.441406 58.664062 33.839844 58.582031 34.839844 C 58.582031 34.839844 58.578125 34.839844 58.578125 34.839844 C 58.578125 34.839844 58.574219 34.84375 58.574219 34.847656 C 58.570312 34.847656 58.566406 34.851562 58.5625 34.851562 C 58.558594 34.851562 58.554688 34.851562 58.550781 34.851562 C 58.546875 34.851562 58.539062 34.855469 58.535156 34.855469 C 58.535156 34.855469 58.53125 34.855469 58.53125 34.855469 C 58.527344 34.855469 58.523438 34.855469 58.519531 34.855469 C 58.519531 34.855469 58.515625 34.855469 58.515625 34.855469 C 58.511719 34.855469 58.503906 34.855469 58.503906 34.855469 C 58.5 34.855469 58.488281 34.851562 58.484375 34.851562 C 58.335938 34.8125 58.148438 34.570312 58.179688 34.234375 C 58.09375 32.503906 57.53125 30.546875 56.648438 29.039062 C 56.335938 28.726562 56.199219 28.597656 56.109375 28.582031 C 56.105469 28.582031 56.101562 28.582031 56.097656 28.582031 C 56.09375 28.582031 56.085938 28.582031 56.082031 28.582031 C 56.082031 28.582031 56.078125 28.582031 56.074219 28.582031 C 56.074219 28.582031 56.070312 28.582031 56.070312 28.582031 C 56.070312 28.582031 56.066406 28.582031 56.066406 28.582031 Z M 61.878906 29.496094 C 61.75 29.519531 61.628906 29.621094 61.585938 29.792969 C 61.558594 29.90625 61.640625 30.09375 61.535156 30.148438 C 61.480469 30.210938 61.25 30.175781 61.261719 29.863281 C 61.261719 29.761719 61.1875 29.65625 61.144531 29.59375 C 61.097656 29.5625 61.074219 29.554688 60.996094 29.554688 C 60.898438 29.558594 60.894531 29.585938 60.839844 29.667969 C 60.820312 29.75 60.789062 29.832031 60.789062 29.925781 C 60.777344 30.039062 60.738281 30.074219 60.65625 30.089844 C 60.5625 30.089844 60.585938 30.101562 60.511719 30.054688 C 60.46875 30.007812 60.410156 29.988281 60.410156 29.90625 C 60.410156 29.820312 60.394531 29.683594 60.367188 29.628906 C 60.328125 29.578125 60.265625 29.554688 60.191406 29.539062 C 59.8125 29.539062 59.789062 29.972656 59.808594 30.140625 C 59.78125 30.171875 59.761719 30.953125 60.285156 31.167969 C 60.984375 31.503906 62.648438 31.308594 62.242188 30.230469 C 62.242188 30.128906 62.21875 29.792969 62.207031 29.703125 C 62.136719 29.539062 62.003906 29.472656 61.878906 29.496094 Z M 85.332031 30.457031 C 85.316406 30.453125 85.292969 30.457031 85.273438 30.464844 C 85.273438 30.464844 82.035156 32.769531 81.953125 32.847656 C 81.632812 33.132812 81.792969 34.136719 81.953125 34.023438 C 82.1875 34.113281 85.449219 31.902344 85.386719 31.640625 C 85.527344 31.652344 85.597656 30.503906 85.332031 30.457031 Z M 64.9375 30.800781 C 65.070312 30.785156 65.246094 30.832031 65.410156 30.925781 C 65.652344 31.066406 65.804688 31.277344 65.785156 31.433594 C 65.78125 31.4375 65.785156 31.445312 65.785156 31.449219 C 65.78125 31.453125 65.773438 31.460938 65.773438 31.464844 C 65.773438 31.46875 65.769531 31.476562 65.769531 31.480469 C 65.765625 31.480469 65.765625 31.488281 65.761719 31.488281 C 65.761719 31.492188 65.757812 31.5 65.757812 31.5 C 65.75 31.515625 65.738281 31.527344 65.726562 31.539062 C 65.609375 31.648438 65.339844 31.632812 65.089844 31.484375 C 64.847656 31.347656 64.699219 31.132812 64.714844 30.980469 C 64.714844 30.976562 64.71875 30.96875 64.722656 30.964844 C 64.726562 30.945312 64.734375 30.929688 64.742188 30.910156 C 64.746094 30.90625 64.75 30.894531 64.753906 30.890625 C 64.753906 30.890625 64.757812 30.886719 64.757812 30.882812 C 64.765625 30.875 64.777344 30.863281 64.785156 30.859375 C 64.824219 30.828125 64.878906 30.804688 64.9375 30.800781 Z M 36.5625 31.382812 C 34.886719 31.414062 32.425781 33.585938 32.363281 34.789062 C 34.132812 33.9375 35.875 33.121094 37.675781 32.238281 C 37.382812 31.804688 37.65625 31.414062 36.5625 31.382812 Z M 42.003906 32.136719 C 42.167969 32.140625 42.34375 32.222656 42.433594 32.453125 C 42.515625 32.664062 42.4375 32.882812 42.339844 32.992188 C 42.339844 32.996094 42.339844 33 42.339844 33 C 42.335938 33 42.335938 33.007812 42.335938 33.007812 C 42.261719 33.101562 42.015625 33.0625 41.839844 33.0625 C 41.625 33.054688 41.519531 33.019531 41.394531 32.84375 C 41.332031 32.652344 41.519531 32.460938 41.601562 32.320312 C 41.601562 32.316406 41.605469 32.316406 41.605469 32.3125 C 41.613281 32.300781 41.628906 32.285156 41.644531 32.269531 C 41.707031 32.210938 41.816406 32.15625 41.9375 32.144531 C 41.957031 32.140625 41.980469 32.136719 42.003906 32.136719 Z M 84.703125 32.804688 C 84.402344 32.84375 84.121094 33.125 84.25 33.578125 C 84.167969 33.839844 84.65625 34.769531 84.78125 35.261719 C 84.894531 35.609375 84.632812 36.601562 84.871094 36.707031 C 85.089844 36.820312 85.664062 36.117188 85.640625 35.234375 C 85.703125 34.78125 85.480469 33.105469 84.910156 32.820312 C 84.84375 32.804688 84.769531 32.796875 84.703125 32.804688 Z M 48.4375 34.441406 C 48.175781 34.460938 47.941406 34.601562 48.046875 34.972656 C 48.03125 35.242188 48.792969 35.570312 48.835938 36.195312 C 48.945312 36.453125 48.675781 37.277344 48.902344 37.351562 C 49.109375 37.441406 49.398438 36.785156 49.507812 36.175781 C 49.566406 35.839844 49.246094 34.671875 48.699219 34.464844 C 48.613281 34.445312 48.527344 34.4375 48.4375 34.441406 Z M 59.292969 35.925781 C 59.3125 35.921875 59.328125 35.925781 59.351562 35.925781 C 59.355469 35.925781 59.359375 35.925781 59.363281 35.925781 C 60.039062 36.109375 61.035156 36.128906 61.902344 36.21875 C 62.605469 36.261719 62.953125 36.8125 62.292969 37.046875 C 61.640625 37.269531 61.015625 37.441406 61.011719 38.382812 C 61.097656 38.851562 61.082031 39.097656 61.007812 39.207031 C 61.003906 39.214844 60.992188 39.226562 60.988281 39.234375 C 60.984375 39.234375 60.984375 39.238281 60.980469 39.238281 C 60.980469 39.242188 60.976562 39.246094 60.976562 39.246094 C 60.976562 39.246094 60.972656 39.25 60.972656 39.25 L 60.964844 39.257812 C 60.964844 39.257812 60.957031 39.261719 60.957031 39.261719 C 60.945312 39.265625 60.933594 39.273438 60.921875 39.277344 C 60.914062 39.28125 60.902344 39.28125 60.890625 39.28125 C 60.738281 39.304688 60.511719 39.15625 60.34375 39.070312 C 59.941406 38.78125 58.816406 38.082031 58.65625 36.582031 C 58.632812 36.246094 58.886719 35.953125 59.292969 35.925781 Z M 32.78125 37.078125 C 32.738281 37.078125 32.65625 37.203125 32.542969 37.347656 C 31.542969 38.941406 31.457031 41.316406 32.007812 42.023438 C 32.300781 42.359375 32.78125 42.503906 33.136719 42.398438 C 33.765625 42.128906 34.042969 40.859375 33.894531 40.390625 C 33.683594 40.066406 33.519531 40.011719 33.308594 40.292969 C 32.867188 41.1875 32.683594 40.574219 32.644531 40.074219 C 32.578125 39.125 32.667969 38.25 32.773438 37.554688 C 32.828125 37.199219 32.824219 37.078125 32.78125 37.078125 Z M 66.808594 39.167969 C 66.734375 39.164062 66.65625 39.175781 66.574219 39.214844 C 66.558594 39.214844 65.859375 39.6875 65.636719 40.015625 C 65.5 40.121094 65.515625 40.210938 65.554688 40.394531 C 65.664062 40.640625 65.851562 40.5625 66.066406 40.445312 C 66.351562 40.40625 66.488281 40.59375 66.464844 40.9375 C 66.332031 41.363281 66.523438 41.519531 66.523438 41.546875 C 66.523438 41.574219 66.796875 41.808594 67.117188 41.621094 C 67.796875 41.363281 68.21875 41.109375 69.167969 40.902344 C 69.417969 40.898438 69.402344 40.230469 69.007812 40.207031 C 68.496094 40.234375 68.019531 40.261719 67.503906 40.664062 C 67.1875 40.738281 67.136719 40.546875 67.066406 40.371094 C 66.984375 39.945312 67.246094 39.640625 67.191406 39.320312 C 67.207031 39.335938 67.03125 39.179688 66.808594 39.167969 Z M 88.597656 39.980469 C 88.46875 39.984375 88.335938 40 88.144531 40.015625 C 87.9375 40.0625 87.863281 40.152344 87.828125 40.40625 C 87.839844 40.789062 88.074219 40.769531 88.316406 40.921875 C 88.453125 41.097656 88.542969 41.257812 88.304688 41.546875 C 88.078125 41.753906 87.914062 41.871094 87.6875 42.078125 C 87.582031 42.261719 87.515625 42.542969 87.84375 42.628906 C 88.449219 42.800781 89.851562 41.890625 89.851562 41.871094 C 90.078125 41.699219 90.003906 41.375 89.984375 41.375 C 89.851562 41.226562 89.550781 41.316406 89.351562 41.292969 C 89.253906 41.292969 88.941406 41.246094 89.089844 40.96875 C 89.214844 40.796875 89.261719 40.691406 89.34375 40.480469 C 89.441406 40.269531 89.355469 40.132812 89.015625 40.015625 C 88.84375 39.984375 88.722656 39.976562 88.597656 39.980469 Z M 79.496094 58.40625 C 79.492188 58.410156 79.492188 58.410156 79.488281 58.414062 C 78.480469 58.671875 78.515625 59.71875 79.160156 60.175781 C 68.519531 60.175781 52.191406 59.996094 48.6875 59.996094 C 46.726562 59.996094 40.53125 59.761719 40.410156 59.761719 C 41.742188 61.707031 43.667969 62.101562 46.1875 62.140625 C 50.910156 62.140625 72.8125 62.085938 79.042969 62.085938 C 78.601562 62.871094 79.082031 64.136719 79.429688 64.367188 C 79.4375 64.375 79.449219 64.382812 79.457031 64.382812 C 79.472656 64.390625 79.488281 64.398438 79.5 64.398438 C 79.503906 64.402344 79.511719 64.398438 79.515625 64.398438 C 79.929688 64.496094 80.109375 64.199219 80.25 63.980469 C 80.917969 64.039062 84.683594 64.09375 85.03125 63.976562 C 85.03125 63.976562 85.035156 63.972656 85.035156 63.96875 C 85.269531 64.3125 85.5 64.636719 85.945312 64.582031 C 86.722656 64.414062 87.332031 64.332031 87.351562 62.753906 C 87.351562 62.753906 87.273438 60.066406 85.507812 60.234375 C 85.089844 60.296875 83.921875 60.417969 83.921875 60.417969 C 82.566406 60.253906 81.570312 60.238281 80.046875 60.183594 C 80.1875 60.003906 80.4375 59.28125 80.132812 59.019531 C 80.054688 58.953125 79.933594 58.917969 79.769531 58.929688 C 79.769531 58.929688 79.765625 58.929688 79.765625 58.929688 C 79.761719 58.929688 79.757812 58.929688 79.753906 58.929688 C 79.753906 58.929688 79.75 58.925781 79.75 58.921875 C 79.746094 58.921875 79.738281 58.921875 79.734375 58.917969 C 79.726562 58.914062 79.714844 58.902344 79.707031 58.890625 C 79.707031 58.890625 79.699219 58.882812 79.695312 58.878906 C 79.621094 58.769531 79.578125 58.492188 79.527344 58.425781 C 79.527344 58.421875 79.523438 58.417969 79.523438 58.417969 C 79.519531 58.417969 79.515625 58.414062 79.515625 58.414062 C 79.515625 58.410156 79.507812 58.410156 79.503906 58.40625 C 79.503906 58.40625 79.5 58.40625 79.5 58.40625 C 79.5 58.410156 79.496094 58.40625 79.496094 58.40625 Z M 80.21875 62.25 C 80.21875 62.246094 80.222656 62.25 80.222656 62.25 C 81.773438 62.324219 83.234375 62.261719 84.785156 62.339844 C 85.03125 62.546875 84.910156 63.027344 84.75 63.113281 C 84.742188 63.117188 84.730469 63.125 84.722656 63.125 C 84.71875 63.125 84.707031 63.125 84.703125 63.125 C 84.695312 63.125 84.6875 63.125 84.679688 63.125 C 84.175781 63.113281 83.882812 63.101562 83.378906 63.089844 C 83.378906 63.0625 83.375 63.035156 83.367188 63.015625 C 83.25 62.660156 82.382812 62.683594 82.179688 62.960938 C 82.175781 62.964844 82.167969 62.972656 82.167969 62.976562 C 82.164062 62.980469 82.160156 62.992188 82.15625 62.996094 C 82.152344 63.003906 82.148438 63.015625 82.144531 63.023438 C 82.144531 63.035156 82.140625 63.050781 82.140625 63.0625 C 82.140625 63.074219 82.132812 63.089844 82.136719 63.105469 C 81.453125 63.1875 80.839844 63.082031 80.160156 63.054688 C 79.957031 62.808594 79.980469 62.355469 80.21875 62.25 Z M 80.21875 62.25 "/>
</g>
</svg>
