<?xml version="1.0" encoding="UTF-8"?>
<svg xmlns="http://www.w3.org/2000/svg" xmlns:xlink="http://www.w3.org/1999/xlink" width="128pt" height="85pt" viewBox="0 0 128 85" version="1.1">
<defs>
<clipPath id="clip1">
  <path d="M 0 0 L 127.679688 0 L 127.679688 43 L 0 43 Z M 0 0 "/>
</clipPath>
<clipPath id="clip2">
  <path d="M 0 42 L 127.679688 42 L 127.679688 85 L 0 85 Z M 0 42 "/>
</clipPath>
</defs>
<g id="surface997">
<g clip-path="url(#clip1)" clip-rule="nonzero">
<path style=" stroke:none;fill-rule:evenodd;fill:rgb(92.939758%,16.078186%,22.3526%);fill-opacity:1;" d="M 0 0 L 127.5 0 L 127.5 42.5 L 0 42.5 Z M 0 0 "/>
</g>
<g clip-path="url(#clip2)" clip-rule="nonzero">
<path style=" stroke:none;fill-rule:evenodd;fill:rgb(99.998474%,99.998474%,99.998474%);fill-opacity:1;" d="M 0 42.5 L 127.5 42.5 L 127.5 85 L 0 85 Z M 0 42.5 "/>
</g>
<path style=" stroke:none;fill-rule:evenodd;fill:rgb(99.998474%,99.998474%,99.998474%);fill-opacity:1;" d="M 43.730469 21.25 C 43.730469 23.34375 43.3125 25.433594 42.511719 27.367188 C 41.714844 29.296875 40.527344 31.070312 39.050781 32.550781 C 37.570312 34.03125 35.796875 35.214844 33.863281 36.015625 C 31.929688 36.816406 29.839844 37.230469 27.75 37.230469 C 25.65625 37.230469 23.566406 36.816406 21.632812 36.015625 C 19.699219 35.214844 17.925781 34.03125 16.449219 32.550781 C 14.96875 31.070312 13.785156 29.296875 12.984375 27.367188 C 12.183594 25.433594 11.765625 23.34375 11.765625 21.25 C 11.765625 19.15625 12.183594 17.066406 12.984375 15.132812 C 13.785156 13.203125 14.96875 11.429688 16.449219 9.949219 C 17.925781 8.46875 19.699219 7.285156 21.632812 6.484375 C 23.566406 5.683594 25.65625 5.269531 27.75 5.269531 C 29.839844 5.269531 31.929688 5.683594 33.863281 6.484375 C 35.796875 7.285156 37.570312 8.46875 39.050781 9.949219 C 40.527344 11.429688 41.714844 13.203125 42.511719 15.132812 C 43.3125 17.066406 43.730469 19.15625 43.730469 21.25 Z M 43.730469 21.25 "/>
<path style=" stroke:none;fill-rule:evenodd;fill:rgb(92.939758%,16.078186%,22.3526%);fill-opacity:1;" d="M 48.753906 21.25 C 48.753906 23.226562 48.359375 25.203125 47.601562 27.03125 C 46.847656 28.855469 45.726562 30.53125 44.328125 31.929688 C 42.929688 33.328125 41.253906 34.445312 39.429688 35.203125 C 37.601562 35.960938 35.625 36.351562 33.648438 36.351562 C 31.671875 36.351562 29.695312 35.960938 27.867188 35.203125 C 26.042969 34.445312 24.367188 33.328125 22.96875 31.929688 C 21.570312 30.53125 20.453125 28.855469 19.695312 27.03125 C 18.9375 25.203125 18.546875 23.226562 18.546875 21.25 C 18.546875 19.273438 18.9375 17.296875 19.695312 15.46875 C 20.453125 13.644531 21.570312 11.96875 22.96875 10.570312 C 24.367188 9.171875 26.042969 8.054688 27.867188 7.296875 C 29.695312 6.539062 31.671875 6.148438 33.648438 6.148438 C 35.625 6.148438 37.601562 6.539062 39.429688 7.296875 C 41.253906 8.054688 42.929688 9.171875 44.328125 10.570312 C 45.726562 11.96875 46.847656 13.644531 47.601562 15.46875 C 48.359375 17.296875 48.753906 19.273438 48.753906 21.25 Z M 48.753906 21.25 "/>
<path style=" stroke:none;fill-rule:evenodd;fill:rgb(99.998474%,99.998474%,99.998474%);fill-opacity:1;" d="M 29.726562 21.636719 L 27.554688 19.96875 L 25.382812 21.636719 L 26.21875 18.949219 L 24.042969 17.296875 L 26.730469 17.300781 L 27.554688 14.613281 L 28.378906 17.300781 L 31.066406 17.292969 L 28.890625 18.949219 Z M 29.726562 21.636719 "/>
<path style=" stroke:none;fill-rule:evenodd;fill:rgb(99.998474%,99.998474%,99.998474%);fill-opacity:1;" d="M 46.761719 21.636719 L 44.589844 19.96875 L 42.417969 21.636719 L 43.253906 18.949219 L 41.078125 17.296875 L 43.765625 17.300781 L 44.589844 14.613281 L 45.414062 17.300781 L 48.101562 17.292969 L 45.925781 18.949219 Z M 46.761719 21.636719 "/>
<path style=" stroke:none;fill-rule:evenodd;fill:rgb(99.998474%,99.998474%,99.998474%);fill-opacity:1;" d="M 38.253906 15.3125 L 36.082031 13.648438 L 33.910156 15.3125 L 34.746094 12.628906 L 32.570312 10.972656 L 35.257812 10.980469 L 36.082031 8.289062 L 36.90625 10.976562 L 39.59375 10.972656 L 37.414062 12.628906 Z M 38.253906 15.3125 "/>
<path style=" stroke:none;fill-rule:evenodd;fill:rgb(99.998474%,99.998474%,99.998474%);fill-opacity:1;" d="M 32.914062 31.75 L 30.742188 30.085938 L 28.570312 31.753906 L 29.40625 29.066406 L 27.230469 27.410156 L 29.917969 27.417969 L 30.742188 24.726562 L 31.566406 27.417969 L 34.253906 27.410156 L 32.078125 29.066406 Z M 32.914062 31.75 "/>
<path style=" stroke:none;fill-rule:evenodd;fill:rgb(99.998474%,99.998474%,99.998474%);fill-opacity:1;" d="M 43.574219 31.75 L 41.402344 30.085938 L 39.230469 31.753906 L 40.066406 29.066406 L 37.890625 27.410156 L 40.578125 27.417969 L 41.402344 24.726562 L 42.226562 27.417969 L 44.914062 27.410156 L 42.738281 29.066406 Z M 43.574219 31.75 "/>
</g>
</svg>
