<?xml version="1.0" encoding="UTF-8"?>
<svg xmlns="http://www.w3.org/2000/svg" xmlns:xlink="http://www.w3.org/1999/xlink" width="128pt" height="85pt" viewBox="0 0 128 85" version="1.1">
<defs>
<clipPath id="clip1">
  <path d="M 0 0 L 127.679688 0 L 127.679688 85 L 0 85 Z M 0 0 "/>
</clipPath>
<clipPath id="clip2">
  <path d="M 0 0 L 127.679688 0 L 127.679688 43 L 0 43 Z M 0 0 "/>
</clipPath>
</defs>
<g id="surface1002">
<g clip-path="url(#clip1)" clip-rule="nonzero">
<path style=" stroke:none;fill-rule:evenodd;fill:rgb(0.392151%,16.470337%,52.940369%);fill-opacity:1;" d="M 0 85 L 0 0 L 127.5 0 L 127.5 85 Z M 0 85 "/>
</g>
<g clip-path="url(#clip2)" clip-rule="nonzero">
<path style=" stroke:none;fill-rule:evenodd;fill:rgb(86.273193%,9.01947%,11.372375%);fill-opacity:1;" d="M 0 0 L 127.5 0 L 127.5 42.5 L 0 42.5 Z M 0 0 "/>
</g>
<path style=" stroke:none;fill-rule:evenodd;fill:rgb(99.998474%,99.998474%,99.998474%);fill-opacity:1;" d="M 0 0 L 0 85 L 56.667969 42.5 Z M 0 0 "/>
<path style=" stroke:none;fill-rule:evenodd;fill:rgb(99.998474%,99.998474%,0%);fill-opacity:1;" d="M 28.605469 32.074219 L 28.621094 31.417969 C 28.621094 31.417969 28.269531 30.855469 28.679688 30.25 C 28.679688 30.25 27.808594 29.789062 28.011719 29.066406 C 28.011719 29.066406 27.222656 28.867188 27.28125 28 C 27.28125 28 26.429688 27.941406 26.34375 27.214844 C 26.34375 27.214844 25.492188 27.355469 25.117188 26.648438 C 25.117188 26.648438 24.289062 26.8125 24.054688 26.230469 C 24.054688 26.230469 23.25 26.511719 22.769531 25.828125 C 22.769531 25.828125 21.917969 26.171875 21.5625 25.527344 C 21.207031 26.167969 20.359375 25.828125 20.359375 25.828125 C 19.886719 26.507812 19.074219 26.226562 19.074219 26.226562 C 18.847656 26.808594 18.019531 26.644531 18.019531 26.644531 C 17.644531 27.347656 16.796875 27.207031 16.796875 27.207031 C 16.714844 27.929688 15.863281 27.992188 15.863281 27.992188 C 15.933594 28.859375 15.144531 29.054688 15.144531 29.054688 C 15.351562 29.777344 14.484375 30.238281 14.484375 30.238281 C 14.902344 30.84375 14.554688 31.402344 14.554688 31.402344 L 14.535156 32.011719 L 28.609375 32.074219 Z M 28.605469 32.074219 "/>
<path style=" stroke:none;fill-rule:evenodd;fill:rgb(97.645569%,85.096741%,5.882263%);fill-opacity:1;" d="M 28.605469 32.074219 L 28.621094 31.417969 C 28.621094 31.417969 28.269531 30.855469 28.679688 30.25 C 28.679688 30.25 27.808594 29.789062 28.011719 29.066406 C 28.011719 29.066406 27.222656 28.867188 27.28125 28 C 27.28125 28 26.429688 27.941406 26.34375 27.214844 C 26.34375 27.214844 25.492188 27.355469 25.117188 26.648438 C 25.117188 26.648438 24.289062 26.8125 24.054688 26.230469 C 24.054688 26.230469 23.25 26.511719 22.769531 25.828125 C 22.769531 25.828125 21.917969 26.171875 21.5625 25.527344 C 21.207031 26.167969 20.359375 25.828125 20.359375 25.828125 C 19.886719 26.507812 19.074219 26.226562 19.074219 26.226562 C 18.847656 26.808594 18.019531 26.644531 18.019531 26.644531 C 17.644531 27.347656 16.796875 27.207031 16.796875 27.207031 C 16.714844 27.929688 15.863281 27.992188 15.863281 27.992188 C 15.933594 28.859375 15.144531 29.054688 15.144531 29.054688 C 15.351562 29.777344 14.484375 30.238281 14.484375 30.238281 C 14.902344 30.84375 14.554688 31.402344 14.554688 31.402344 L 14.535156 32.011719 L 28.609375 32.074219 Z M 28.605469 32.074219 "/>
<path style="fill:none;stroke-width:0.0516163;stroke-linecap:butt;stroke-linejoin:miter;stroke:rgb(0%,0%,0%);stroke-opacity:1;stroke-miterlimit:4;" d="M 28.605469 32.074219 L 28.621094 31.417969 C 28.621094 31.417969 28.269531 30.855469 28.679688 30.25 C 28.679688 30.25 27.808594 29.789062 28.011719 29.066406 C 28.011719 29.066406 27.222656 28.867188 27.28125 28 C 27.28125 28 26.429688 27.941406 26.34375 27.214844 C 26.34375 27.214844 25.492188 27.355469 25.117188 26.648438 C 25.117188 26.648438 24.289062 26.8125 24.054688 26.230469 C 24.054688 26.230469 23.25 26.511719 22.769531 25.828125 C 22.769531 25.828125 21.917969 26.171875 21.5625 25.527344 C 21.207031 26.167969 20.359375 25.828125 20.359375 25.828125 C 19.886719 26.507812 19.074219 26.226562 19.074219 26.226562 C 18.847656 26.808594 18.019531 26.644531 18.019531 26.644531 C 17.644531 27.347656 16.796875 27.207031 16.796875 27.207031 C 16.714844 27.929688 15.863281 27.988281 15.863281 27.988281 C 15.933594 28.859375 15.144531 29.054688 15.144531 29.054688 C 15.351562 29.777344 14.484375 30.238281 14.484375 30.238281 C 14.902344 30.84375 14.554688 31.402344 14.554688 31.402344 L 14.535156 32.011719 L 28.609375 32.074219 Z M 28.605469 32.074219 "/>
<path style=" stroke:none;fill-rule:evenodd;fill:rgb(86.273193%,9.01947%,11.372375%);fill-opacity:1;" d="M 28.277344 31.253906 C 26.066406 31.03125 23.519531 30.507812 21.554688 31.613281 C 20.238281 30.839844 18.40625 30.886719 16.84375 31.035156 C 15.992188 31.1875 14.996094 31.1875 14.113281 31.332031 L 13.972656 31.351562 C 12.363281 31.460938 10.90625 30.984375 9.507812 30.359375 C 9.953125 32.878906 10.445312 35.457031 10.6875 38.097656 C 11.214844 42 8.839844 45.277344 9.8125 49.136719 C 10.394531 50.988281 12.429688 52.0625 14.292969 52.277344 C 16.097656 52.382812 17.964844 52.675781 19.632812 53.039062 C 19.949219 53.105469 20.324219 53.253906 20.542969 53.347656 C 21.003906 53.539062 21.34375 53.820312 21.640625 54.125 C 22.644531 53.074219 24.121094 52.78125 25.582031 52.628906 C 28.207031 52.324219 31.445312 52.492188 33.050781 50.109375 L 33.050781 49.976562 C 33.925781 48.660156 33.8125 46.652344 33.429688 45.164062 C 33.40625 44.640625 33.265625 44.183594 33.191406 43.6875 C 31.585938 39.449219 32.960938 34.6875 33.652344 30.414062 C 32.808594 30.875 31.867188 31.09375 30.929688 31.324219 C 30.179688 31.425781 29.347656 31.378906 28.589844 31.339844 L 28.273438 31.253906 Z M 28.277344 31.253906 "/>
<path style=" stroke:none;fill-rule:evenodd;fill:rgb(38.430786%,68.626404%,88.233948%);fill-opacity:1;" d="M 31.578125 43.414062 C 31.566406 43.691406 31.71875 43.910156 31.773438 44.167969 C 32.078125 46.019531 32.375 48.476562 30.46875 49.625 C 28.359375 50.964844 25.59375 50.390625 23.152344 51.101562 C 22.664062 51.234375 21.992188 51.683594 21.648438 52 C 21.429688 51.855469 21.207031 51.632812 20.925781 51.503906 C 18.914062 50.433594 16.304688 50.792969 14.039062 50.214844 C 12.898438 49.855469 11.710938 48.96875 11.421875 47.804688 C 10.679688 44.746094 12.457031 42.140625 12.246094 39.105469 C 12.113281 36.789062 11.722656 34.566406 11.1875 32.394531 C 12.957031 33.21875 15.011719 33.359375 17.003906 32.960938 C 18.480469 32.757812 20.199219 32.75 21.582031 33.375 C 22.34375 33.046875 23.234375 32.902344 24.058594 32.808594 C 25.617188 32.960938 27.296875 33.246094 28.90625 33.230469 C 29.980469 33.175781 30.953125 32.867188 31.890625 32.453125 C 31.335938 36.042969 30.269531 39.800781 31.578125 43.414062 Z M 31.578125 43.414062 "/>
<path style="fill-rule:evenodd;fill:rgb(99.998474%,99.998474%,99.998474%);fill-opacity:1;stroke-width:0.221546;stroke-linecap:butt;stroke-linejoin:miter;stroke:rgb(0%,0%,0%);stroke-opacity:1;stroke-miterlimit:4;" d="M 28.390625 44.128906 L 28.371094 40.753906 L 28.789062 40.753906 L 23.628906 37.421875 L 23.617188 35.691406 L 24.117188 35.691406 L 21.539062 33.84375 L 18.972656 35.6875 L 19.46875 35.6875 L 19.476562 37.417969 L 14.34375 40.746094 L 14.753906 40.75 L 14.773438 44.121094 L 28.390625 44.132812 Z M 28.390625 44.128906 "/>
<path style="fill-rule:evenodd;fill:rgb(99.998474%,99.998474%,99.998474%);fill-opacity:1;stroke-width:0.221546;stroke-linecap:butt;stroke-linejoin:miter;stroke:rgb(0%,0%,0%);stroke-opacity:1;stroke-miterlimit:4;" d="M 29.976562 48.5625 L 29.976562 49.621094 L 13.351562 49.601562 L 13.347656 48.550781 Z M 29.976562 48.5625 "/>
<path style=" stroke:none;fill-rule:evenodd;fill:rgb(99.998474%,99.998474%,99.998474%);fill-opacity:1;" d="M 14.457031 48.5 L 14.445312 44.925781 L 15.117188 44.921875 L 15.078125 48.539062 L 15.121094 44.953125 L 14.148438 44.925781 L 14.148438 44.160156 L 29.007812 44.175781 L 29.011719 44.933594 L 28.097656 44.933594 L 28.113281 48.554688 L 28.082031 44.933594 L 28.765625 44.933594 L 28.78125 48.511719 Z M 14.457031 48.5 "/>
<path style="fill:none;stroke-width:0.221546;stroke-linecap:butt;stroke-linejoin:miter;stroke:rgb(0%,0%,0%);stroke-opacity:1;stroke-miterlimit:4;" d="M 14.457031 48.5 L 14.445312 44.925781 L 15.117188 44.921875 L 15.078125 48.539062 L 15.121094 44.953125 L 14.148438 44.925781 L 14.148438 44.160156 L 29.007812 44.175781 L 29.011719 44.933594 L 28.097656 44.933594 L 28.113281 48.554688 L 28.082031 44.933594 L 28.765625 44.933594 L 28.78125 48.511719 "/>
<path style="fill:none;stroke-width:0.221546;stroke-linecap:butt;stroke-linejoin:miter;stroke:rgb(0%,0%,0%);stroke-opacity:1;stroke-miterlimit:4;" d="M 17.652344 47.617188 L 17.640625 45.125 L 15.644531 45.125 L 15.65625 47.617188 L 17.652344 47.617188 "/>
<path style="fill:none;stroke-width:0.221546;stroke-linecap:butt;stroke-linejoin:miter;stroke:rgb(0%,0%,0%);stroke-opacity:1;stroke-miterlimit:4;" d="M 16.191406 45.644531 L 16.195312 47.09375 L 17.109375 47.09375 L 17.101562 45.644531 L 16.191406 45.644531 "/>
<path style="fill:none;stroke-width:0.221546;stroke-linecap:butt;stroke-linejoin:miter;stroke:rgb(0%,0%,0%);stroke-opacity:1;stroke-miterlimit:4;" d="M 27.402344 47.628906 L 27.390625 45.136719 L 25.40625 45.132812 L 25.414062 47.628906 L 27.402344 47.628906 "/>
<path style="fill:none;stroke-width:0.221546;stroke-linecap:butt;stroke-linejoin:miter;stroke:rgb(0%,0%,0%);stroke-opacity:1;stroke-miterlimit:4;" d="M 25.941406 45.65625 L 25.949219 47.097656 L 26.863281 47.097656 L 26.855469 45.65625 L 25.941406 45.65625 "/>
<path style="fill:none;stroke-width:0.221546;stroke-linecap:butt;stroke-linejoin:miter;stroke:rgb(0%,0%,0%);stroke-opacity:1;stroke-miterlimit:4;" d="M 27.386719 43.566406 L 27.375 41.074219 L 25.386719 41.074219 L 25.394531 43.566406 L 27.390625 43.566406 Z M 27.386719 43.566406 "/>
<path style="fill:none;stroke-width:0.221546;stroke-linecap:butt;stroke-linejoin:miter;stroke:rgb(0%,0%,0%);stroke-opacity:1;stroke-miterlimit:4;" d="M 25.925781 41.597656 L 25.933594 43.046875 L 26.84375 43.046875 L 26.84375 41.597656 L 25.925781 41.597656 "/>
<path style="fill:none;stroke-width:0.221546;stroke-linecap:butt;stroke-linejoin:miter;stroke:rgb(0%,0%,0%);stroke-opacity:1;stroke-miterlimit:4;" d="M 17.632812 43.558594 L 17.621094 41.070312 L 15.628906 41.066406 L 15.640625 43.558594 Z M 17.632812 43.558594 "/>
<path style="fill:none;stroke-width:0.221546;stroke-linecap:butt;stroke-linejoin:miter;stroke:rgb(0%,0%,0%);stroke-opacity:1;stroke-miterlimit:4;" d="M 16.171875 41.589844 L 16.179688 43.03125 L 17.09375 43.035156 L 17.085938 41.589844 L 16.171875 41.589844 "/>
<path style="fill:none;stroke-width:0.221546;stroke-linecap:butt;stroke-linejoin:miter;stroke:rgb(0%,0%,0%);stroke-opacity:1;stroke-miterlimit:4;" d="M 21.246094 43.5625 L 21.234375 41.074219 L 19.242188 41.070312 L 19.253906 43.5625 L 21.246094 43.5625 "/>
<path style="fill:none;stroke-width:0.221546;stroke-linecap:butt;stroke-linejoin:miter;stroke:rgb(0%,0%,0%);stroke-opacity:1;stroke-miterlimit:4;" d="M 19.785156 41.59375 L 19.789062 43.035156 L 20.703125 43.042969 L 20.695312 41.59375 L 19.785156 41.59375 "/>
<path style="fill:none;stroke-width:0.221546;stroke-linecap:butt;stroke-linejoin:miter;stroke:rgb(0%,0%,0%);stroke-opacity:1;stroke-miterlimit:4;" d="M 24.027344 43.566406 L 24.015625 41.074219 L 22.023438 41.070312 L 22.03125 43.5625 L 24.027344 43.566406 "/>
<path style="fill:none;stroke-width:0.221546;stroke-linecap:butt;stroke-linejoin:miter;stroke:rgb(0%,0%,0%);stroke-opacity:1;stroke-miterlimit:4;" d="M 22.566406 41.59375 L 22.570312 43.042969 L 23.484375 43.042969 L 23.480469 41.59375 L 22.566406 41.59375 "/>
<path style="fill-rule:evenodd;fill:rgb(99.998474%,99.998474%,99.998474%);fill-opacity:1;stroke-width:0.221546;stroke-linecap:butt;stroke-linejoin:miter;stroke:rgb(0%,0%,0%);stroke-opacity:1;stroke-miterlimit:4;" d="M 24.523438 42.804688 L 24.542969 48.550781 L 18.769531 48.539062 L 18.75 42.796875 L 24.519531 42.804688 Z M 24.523438 42.804688 "/>
<path style="fill:none;stroke-width:0.221546;stroke-linecap:butt;stroke-linejoin:miter;stroke:rgb(0%,0%,0%);stroke-opacity:1;stroke-miterlimit:4;" d="M 18.714844 44.445312 L 24.527344 44.445312 "/>
<path style="fill:none;stroke-width:0.221546;stroke-linecap:butt;stroke-linejoin:miter;stroke:rgb(0%,0%,0%);stroke-opacity:1;stroke-miterlimit:4;" d="M 19.441406 48.546875 L 19.421875 44.484375 "/>
<path style="fill:none;stroke-width:0.221546;stroke-linecap:butt;stroke-linejoin:miter;stroke:rgb(0%,0%,0%);stroke-opacity:1;stroke-miterlimit:4;" d="M 23.839844 48.550781 L 23.820312 44.492188 "/>
<path style="fill:none;stroke-width:0.221546;stroke-linecap:butt;stroke-linejoin:miter;stroke:rgb(0%,0%,0%);stroke-opacity:1;stroke-miterlimit:4;" d="M 26.628906 40.355469 L 23.378906 37.980469 L 19.726562 37.976562 L 16.5 40.347656 L 26.628906 40.355469 "/>
<path style="fill:none;stroke-width:0.221546;stroke-linecap:butt;stroke-linejoin:miter;stroke:rgb(0%,0%,0%);stroke-opacity:1;stroke-miterlimit:4;" d="M 20.003906 36.011719 L 20.011719 37.460938 L 23.085938 37.460938 L 23.078125 36.015625 L 20.003906 36.011719 "/>
<path style="fill:none;stroke-width:0.221546;stroke-linecap:butt;stroke-linejoin:miter;stroke:rgb(0%,0%,0%);stroke-opacity:1;stroke-miterlimit:4;" d="M 20.839844 36.371094 L 20.84375 37.09375 L 22.253906 37.09375 L 22.25 36.371094 L 20.839844 36.371094 "/>
<path style="fill:none;stroke-width:0.221546;stroke-linecap:butt;stroke-linejoin:miter;stroke:rgb(0%,0%,0%);stroke-opacity:1;stroke-miterlimit:4;" d="M 21.539062 34.363281 L 23.246094 35.574219 L 19.839844 35.570312 L 21.539062 34.363281 "/>
<path style=" stroke:none;fill-rule:evenodd;fill:rgb(99.998474%,99.998474%,99.998474%);fill-opacity:1;" d="M 28.445312 33.546875 C 28.933594 33.535156 29.058594 35.542969 29.058594 36.542969 C 29.476562 36.65625 30.398438 37.238281 30.808594 37.765625 L 26.117188 37.757812 C 26.523438 37.238281 27.441406 36.65625 27.851562 36.539062 C 27.851562 35.542969 27.957031 33.53125 28.445312 33.542969 Z M 28.445312 33.546875 "/>
<path style="fill:none;stroke-width:0.221546;stroke-linecap:butt;stroke-linejoin:miter;stroke:rgb(0%,0%,0%);stroke-opacity:1;stroke-miterlimit:4;" d="M 28.445312 33.546875 C 28.933594 33.535156 29.058594 35.542969 29.058594 36.539062 C 29.476562 36.65625 30.398438 37.238281 30.808594 37.765625 L 26.117188 37.757812 C 26.523438 37.238281 27.441406 36.65625 27.851562 36.539062 C 27.851562 35.542969 27.957031 33.53125 28.445312 33.542969 "/>
<path style="fill:none;stroke-width:0.221546;stroke-linecap:butt;stroke-linejoin:miter;stroke:rgb(0%,0%,0%);stroke-opacity:1;stroke-miterlimit:4;" d="M 19.019531 42.964844 L 19.441406 42.964844 L 19.316406 43.1875 C 19.316406 43.1875 19.519531 43.449219 19.320312 43.75 L 19.429688 43.957031 L 19.023438 43.957031 L 19.136719 43.761719 C 19.136719 43.761719 18.929688 43.414062 19.144531 43.1875 L 19.019531 42.964844 "/>
<path style="fill:none;stroke-width:0.221546;stroke-linecap:butt;stroke-linejoin:miter;stroke:rgb(0%,0%,0%);stroke-opacity:1;stroke-miterlimit:4;" d="M 19.875 42.964844 L 20.296875 42.964844 L 20.175781 43.1875 C 20.175781 43.1875 20.378906 43.441406 20.175781 43.75 L 20.285156 43.957031 L 19.882812 43.957031 L 19.992188 43.761719 C 19.992188 43.761719 19.789062 43.414062 20 43.1875 L 19.875 42.964844 "/>
<path style="fill:none;stroke-width:0.221546;stroke-linecap:butt;stroke-linejoin:miter;stroke:rgb(0%,0%,0%);stroke-opacity:1;stroke-miterlimit:4;" d="M 20.8125 42.964844 L 21.230469 42.964844 L 21.105469 43.1875 C 21.105469 43.1875 21.3125 43.449219 21.109375 43.75 L 21.21875 43.960938 L 20.820312 43.957031 L 20.925781 43.761719 C 20.925781 43.761719 20.71875 43.414062 20.933594 43.1875 Z M 20.8125 42.964844 "/>
<path style="fill:none;stroke-width:0.221546;stroke-linecap:butt;stroke-linejoin:miter;stroke:rgb(0%,0%,0%);stroke-opacity:1;stroke-miterlimit:4;" d="M 21.867188 42.964844 L 22.289062 42.964844 L 22.164062 43.195312 C 22.164062 43.195312 22.371094 43.449219 22.167969 43.75 L 22.28125 43.960938 L 21.871094 43.960938 L 21.980469 43.765625 C 21.980469 43.765625 21.78125 43.414062 21.996094 43.195312 Z M 21.867188 42.964844 "/>
<path style="fill:none;stroke-width:0.221546;stroke-linecap:butt;stroke-linejoin:miter;stroke:rgb(0%,0%,0%);stroke-opacity:1;stroke-miterlimit:4;" d="M 22.804688 42.964844 L 23.222656 42.964844 L 23.101562 43.195312 C 23.101562 43.195312 23.304688 43.449219 23.105469 43.75 L 23.214844 43.960938 L 22.8125 43.960938 L 22.914062 43.765625 C 22.914062 43.765625 22.710938 43.417969 22.929688 43.195312 L 22.804688 42.964844 "/>
<path style="fill:none;stroke-width:0.221546;stroke-linecap:butt;stroke-linejoin:miter;stroke:rgb(0%,0%,0%);stroke-opacity:1;stroke-miterlimit:4;" d="M 23.738281 42.96875 L 24.160156 42.964844 L 24.03125 43.195312 C 24.03125 43.195312 24.238281 43.449219 24.039062 43.75 L 24.144531 43.960938 L 23.742188 43.960938 L 23.847656 43.765625 C 23.847656 43.765625 23.644531 43.417969 23.863281 43.195312 L 23.738281 42.96875 "/>
<path style=" stroke:none;fill-rule:evenodd;fill:rgb(97.645569%,85.096741%,5.882263%);fill-opacity:1;" d="M 21.664062 55.914062 C 23.824219 55.921875 26.484375 55.480469 27.730469 54.835938 L 30.464844 54.59375 L 30.519531 57.933594 C 28.203125 59.207031 22.851562 59.484375 21.675781 59.472656 C 20.496094 59.484375 15.082031 59.203125 12.753906 57.921875 L 12.785156 54.582031 L 15.523438 54.828125 C 16.769531 55.46875 19.507812 55.914062 21.667969 55.914062 Z M 21.664062 55.914062 "/>
<path style="fill:none;stroke-width:0.0516163;stroke-linecap:butt;stroke-linejoin:miter;stroke:rgb(0%,0%,0%);stroke-opacity:1;stroke-miterlimit:4;" d="M 21.664062 55.914062 C 23.824219 55.921875 26.484375 55.480469 27.730469 54.835938 L 30.464844 54.59375 L 30.519531 57.933594 C 28.203125 59.207031 22.851562 59.484375 21.675781 59.472656 C 20.496094 59.484375 15.082031 59.203125 12.753906 57.921875 L 12.785156 54.582031 L 15.523438 54.828125 C 16.769531 55.46875 19.507812 55.914062 21.667969 55.914062 L 21.664062 55.914062 "/>
<path style=" stroke:none;fill-rule:evenodd;fill:rgb(97.645569%,85.096741%,5.882263%);fill-opacity:1;" d="M 5.710938 41.679688 L 8.121094 42.449219 L 7.394531 46.347656 L 5.113281 46.703125 C 5.113281 46.703125 4.726562 44.652344 5.710938 41.679688 Z M 5.710938 41.679688 "/>
<path style="fill:none;stroke-width:0.0516163;stroke-linecap:butt;stroke-linejoin:miter;stroke:rgb(0%,0%,0%);stroke-opacity:1;stroke-miterlimit:4;" d="M 5.710938 41.679688 L 8.121094 42.449219 L 7.394531 46.347656 L 5.113281 46.703125 C 5.113281 46.703125 4.726562 44.652344 5.710938 41.679688 "/>
<path style=" stroke:none;fill-rule:evenodd;fill:rgb(97.645569%,71.37146%,5.882263%);fill-opacity:1;" d="M 7.390625 46.304688 L 5.113281 46.703125 L 6.554688 44.652344 Z M 7.390625 46.304688 "/>
<path style="fill:none;stroke-width:0.0516163;stroke-linecap:butt;stroke-linejoin:miter;stroke:rgb(0%,0%,0%);stroke-opacity:1;stroke-miterlimit:4;" d="M 7.390625 46.304688 L 5.113281 46.703125 L 6.554688 44.652344 L 7.390625 46.304688 "/>
<path style=" stroke:none;fill-rule:evenodd;fill:rgb(97.645569%,85.096741%,5.882263%);fill-opacity:1;" d="M 4.269531 44.492188 L 6.59375 44.660156 C 6.644531 46.625 6.882812 54.136719 15.855469 54.546875 L 15.574219 57.277344 C 4.65625 57.390625 3.828125 48.0625 4.269531 44.492188 Z M 4.269531 44.492188 "/>
<path style="fill:none;stroke-width:0.0516163;stroke-linecap:butt;stroke-linejoin:miter;stroke:rgb(0%,0%,0%);stroke-opacity:1;stroke-miterlimit:4;" d="M 4.269531 44.492188 L 6.59375 44.65625 C 6.644531 46.625 6.882812 54.136719 15.855469 54.546875 L 15.574219 57.277344 C 4.65625 57.390625 3.828125 48.0625 4.269531 44.492188 "/>
<path style="fill:none;stroke-width:0.0516163;stroke-linecap:butt;stroke-linejoin:miter;stroke:rgb(0%,0%,0%);stroke-opacity:1;stroke-miterlimit:4;" d="M 12.796875 57.835938 L 15.535156 57.238281 "/>
<path style="fill-rule:evenodd;fill:rgb(97.645569%,85.096741%,5.882263%);fill-opacity:1;stroke-width:0.0516163;stroke-linecap:butt;stroke-linejoin:miter;stroke:rgb(0%,0%,0%);stroke-opacity:1;stroke-miterlimit:4;" d="M 37.425781 41.707031 L 35.023438 42.46875 L 35.785156 46.363281 L 38.070312 46.730469 C 38.070312 46.730469 38.4375 44.679688 37.425781 41.703125 Z M 37.425781 41.707031 "/>
<path style=" stroke:none;fill-rule:evenodd;fill:rgb(97.645569%,71.37146%,5.882263%);fill-opacity:1;" d="M 35.785156 46.324219 L 38.070312 46.734375 L 36.609375 44.679688 Z M 35.785156 46.324219 "/>
<path style="fill:none;stroke-width:0.0516163;stroke-linecap:butt;stroke-linejoin:miter;stroke:rgb(0%,0%,0%);stroke-opacity:1;stroke-miterlimit:4;" d="M 35.785156 46.324219 L 38.070312 46.734375 L 36.609375 44.679688 L 35.785156 46.324219 "/>
<path style=" stroke:none;fill-rule:evenodd;fill:rgb(97.645569%,85.096741%,5.882263%);fill-opacity:1;" d="M 38.894531 44.523438 L 36.566406 44.679688 C 36.53125 46.648438 36.359375 54.160156 27.390625 54.558594 L 27.695312 57.289062 C 38.613281 57.414062 39.363281 48.09375 38.894531 44.523438 Z M 38.894531 44.523438 "/>
<path style="fill:none;stroke-width:0.0516163;stroke-linecap:butt;stroke-linejoin:miter;stroke:rgb(0%,0%,0%);stroke-opacity:1;stroke-miterlimit:4;" d="M 38.894531 44.523438 L 36.566406 44.679688 C 36.53125 46.648438 36.359375 54.160156 27.390625 54.558594 L 27.695312 57.289062 C 38.613281 57.414062 39.363281 48.09375 38.894531 44.523438 "/>
<path style="fill:none;stroke-width:0.0516163;stroke-linecap:butt;stroke-linejoin:miter;stroke:rgb(0%,0%,0%);stroke-opacity:1;stroke-miterlimit:4;" d="M 30.480469 57.851562 L 27.738281 57.25 "/>
<path style=" stroke:none;fill-rule:evenodd;fill:rgb(0.392151%,16.470337%,52.940369%);fill-opacity:1;" d="M 20.210938 57.558594 C 20.152344 57.597656 20.066406 57.609375 19.972656 57.605469 L 19.539062 57.582031 L 19.574219 57.042969 L 20.003906 57.0625 C 20.089844 57.070312 20.15625 57.085938 20.199219 57.113281 C 20.285156 57.15625 20.324219 57.242188 20.3125 57.359375 C 20.308594 57.457031 20.273438 57.519531 20.210938 57.558594 Z M 19.484375 58.410156 L 19.527344 57.75 L 20.03125 57.785156 C 20.195312 57.800781 20.316406 57.757812 20.398438 57.671875 C 20.484375 57.589844 20.527344 57.484375 20.535156 57.363281 C 20.542969 57.222656 20.507812 57.109375 20.425781 57.023438 C 20.34375 56.945312 20.234375 56.902344 20.089844 56.886719 L 19.367188 56.84375 L 19.269531 58.394531 L 19.484375 58.40625 Z M 19.484375 58.410156 "/>
<path style=" stroke:none;fill-rule:evenodd;fill:rgb(0.392151%,16.470337%,52.940369%);fill-opacity:1;" d="M 21.054688 57.113281 L 21.582031 57.117188 C 21.65625 57.125 21.71875 57.136719 21.761719 57.15625 C 21.84375 57.195312 21.882812 57.269531 21.882812 57.378906 C 21.882812 57.484375 21.851562 57.554688 21.792969 57.597656 C 21.734375 57.636719 21.652344 57.652344 21.554688 57.652344 L 21.050781 57.648438 L 21.050781 57.113281 Z M 21.046875 58.488281 L 21.050781 57.824219 L 21.546875 57.832031 C 21.632812 57.832031 21.699219 57.839844 21.742188 57.859375 C 21.816406 57.894531 21.851562 57.964844 21.855469 58.0625 L 21.867188 58.324219 C 21.871094 58.386719 21.871094 58.421875 21.878906 58.449219 C 21.882812 58.46875 21.886719 58.488281 21.894531 58.5 L 22.160156 58.5 L 22.160156 58.46875 C 22.128906 58.453125 22.101562 58.417969 22.09375 58.371094 C 22.082031 58.34375 22.078125 58.296875 22.078125 58.238281 L 22.074219 58.03125 C 22.070312 57.941406 22.050781 57.875 22.015625 57.839844 C 21.984375 57.796875 21.945312 57.761719 21.878906 57.738281 C 21.949219 57.699219 22.007812 57.65625 22.046875 57.597656 C 22.085938 57.539062 22.105469 57.460938 22.105469 57.363281 C 22.105469 57.1875 22.03125 57.0625 21.882812 57 C 21.804688 56.964844 21.703125 56.945312 21.582031 56.941406 L 20.835938 56.933594 L 20.832031 58.492188 L 21.046875 58.492188 Z M 21.046875 58.488281 "/>
<path style=" stroke:none;fill-rule:evenodd;fill:rgb(0.392151%,16.470337%,52.940369%);fill-opacity:1;" d="M 22.699219 58.164062 C 22.605469 58.046875 22.550781 57.902344 22.542969 57.730469 C 22.527344 57.511719 22.570312 57.351562 22.671875 57.238281 C 22.769531 57.117188 22.898438 57.058594 23.066406 57.050781 C 23.234375 57.042969 23.375 57.097656 23.476562 57.203125 C 23.582031 57.304688 23.640625 57.453125 23.65625 57.632812 C 23.660156 57.804688 23.628906 57.960938 23.550781 58.09375 C 23.472656 58.234375 23.339844 58.3125 23.144531 58.316406 C 22.945312 58.324219 22.792969 58.277344 22.699219 58.164062 Z M 22.445312 57.183594 C 22.34375 57.335938 22.304688 57.511719 22.3125 57.730469 C 22.328125 57.960938 22.398438 58.15625 22.535156 58.300781 C 22.683594 58.445312 22.886719 58.519531 23.128906 58.503906 C 23.394531 58.492188 23.589844 58.390625 23.726562 58.210938 C 23.835938 58.042969 23.890625 57.851562 23.875 57.613281 C 23.863281 57.402344 23.800781 57.230469 23.683594 57.101562 C 23.539062 56.925781 23.328125 56.851562 23.042969 56.863281 C 22.769531 56.878906 22.570312 56.980469 22.441406 57.183594 Z M 22.445312 57.183594 "/>
<path style=" stroke:none;fill-rule:evenodd;fill:rgb(0.392151%,16.470337%,52.940369%);fill-opacity:1;" d="M 29.757812 54.941406 C 29.90625 54.917969 30.039062 54.921875 30.15625 54.964844 C 30.332031 55.019531 30.445312 55.148438 30.519531 55.34375 L 30.304688 55.375 C 30.261719 55.269531 30.195312 55.195312 30.105469 55.152344 C 30.019531 55.117188 29.90625 55.105469 29.785156 55.125 C 29.636719 55.148438 29.519531 55.21875 29.4375 55.339844 C 29.359375 55.460938 29.332031 55.628906 29.371094 55.84375 C 29.398438 56.019531 29.464844 56.167969 29.570312 56.265625 C 29.667969 56.371094 29.8125 56.40625 30.003906 56.378906 C 30.144531 56.355469 30.257812 56.300781 30.339844 56.203125 C 30.417969 56.109375 30.445312 55.96875 30.417969 55.789062 L 29.917969 55.867188 L 29.894531 55.691406 L 30.585938 55.585938 L 30.722656 56.410156 L 30.585938 56.429688 L 30.5 56.242188 C 30.441406 56.328125 30.382812 56.394531 30.332031 56.429688 C 30.246094 56.5 30.128906 56.542969 29.984375 56.5625 C 29.796875 56.589844 29.625 56.558594 29.472656 56.457031 C 29.300781 56.332031 29.191406 56.144531 29.152344 55.882812 C 29.105469 55.628906 29.144531 55.410156 29.261719 55.234375 C 29.375 55.066406 29.539062 54.972656 29.757812 54.941406 Z M 29.757812 54.941406 "/>
<path style=" stroke:none;fill-rule:evenodd;fill:rgb(0.392151%,16.470337%,52.940369%);fill-opacity:1;" d="M 31.332031 54.824219 L 31.828125 54.640625 C 31.894531 54.617188 31.957031 54.609375 32.007812 54.613281 C 32.097656 54.621094 32.167969 54.675781 32.207031 54.785156 C 32.242188 54.875 32.242188 54.957031 32.199219 55.015625 C 32.15625 55.074219 32.089844 55.117188 31.992188 55.152344 L 31.523438 55.320312 Z M 31.828125 56.109375 L 31.585938 55.484375 L 32.050781 55.316406 C 32.136719 55.292969 32.199219 55.277344 32.242188 55.28125 C 32.324219 55.292969 32.386719 55.339844 32.425781 55.433594 L 32.535156 55.671875 C 32.558594 55.730469 32.574219 55.765625 32.589844 55.785156 C 32.597656 55.804688 32.613281 55.816406 32.625 55.832031 L 32.875 55.738281 L 32.863281 55.707031 C 32.824219 55.707031 32.789062 55.683594 32.761719 55.644531 C 32.742188 55.613281 32.722656 55.574219 32.699219 55.523438 L 32.613281 55.328125 C 32.578125 55.246094 32.539062 55.191406 32.496094 55.160156 C 32.449219 55.136719 32.394531 55.121094 32.332031 55.117188 C 32.378906 55.058594 32.417969 55 32.429688 54.929688 C 32.445312 54.859375 32.441406 54.78125 32.40625 54.691406 C 32.339844 54.527344 32.226562 54.433594 32.058594 54.421875 C 31.976562 54.417969 31.875 54.433594 31.761719 54.476562 L 31.058594 54.726562 L 31.625 56.1875 L 31.828125 56.113281 Z M 31.828125 56.109375 "/>
<path style=" stroke:none;fill-rule:evenodd;fill:rgb(0.392151%,16.470337%,52.940369%);fill-opacity:1;" d="M 33.652344 55.339844 L 32.761719 54.039062 L 33.738281 53.417969 L 33.84375 53.578125 L 33.046875 54.085938 L 33.320312 54.484375 L 34.058594 54.007812 L 34.160156 54.160156 L 33.421875 54.636719 L 33.722656 55.070312 L 34.535156 54.550781 L 34.644531 54.703125 Z M 33.652344 55.339844 "/>
<path style=" stroke:none;fill-rule:evenodd;fill:rgb(0.392151%,16.470337%,52.940369%);fill-opacity:1;" d="M 34.429688 53.046875 L 34.683594 52.765625 C 34.800781 52.640625 34.925781 52.585938 35.0625 52.601562 C 35.199219 52.613281 35.339844 52.683594 35.488281 52.8125 C 35.527344 52.84375 35.5625 52.886719 35.601562 52.929688 C 35.667969 53.015625 35.703125 53.089844 35.730469 53.164062 C 35.75 53.257812 35.746094 53.339844 35.710938 53.421875 C 35.695312 53.460938 35.65625 53.507812 35.605469 53.566406 L 35.351562 53.84375 L 34.429688 53.042969 Z M 35.777344 53.65625 C 35.957031 53.457031 35.996094 53.242188 35.890625 53 C 35.828125 52.867188 35.734375 52.742188 35.605469 52.628906 C 35.441406 52.484375 35.269531 52.410156 35.09375 52.398438 C 34.890625 52.382812 34.722656 52.453125 34.578125 52.613281 L 34.140625 53.078125 L 35.339844 54.125 L 35.773438 53.65625 Z M 35.777344 53.65625 "/>
<path style=" stroke:none;fill-rule:evenodd;fill:rgb(0.392151%,16.470337%,52.940369%);fill-opacity:1;" d="M 36.703125 52.445312 L 35.324219 51.636719 L 35.4375 51.460938 L 36.820312 52.261719 L 36.703125 52.449219 Z M 36.703125 52.445312 "/>
<path style=" stroke:none;fill-rule:evenodd;fill:rgb(0.392151%,16.470337%,52.940369%);fill-opacity:1;" d="M 37.246094 51.507812 L 35.757812 50.910156 L 36.195312 49.863281 L 36.375 49.933594 L 36.015625 50.796875 L 36.464844 50.972656 L 36.800781 50.179688 L 36.972656 50.25 L 36.640625 51.042969 L 37.140625 51.246094 L 37.507812 50.371094 L 37.691406 50.441406 L 37.242188 51.507812 Z M 37.246094 51.507812 "/>
<path style=" stroke:none;fill-rule:evenodd;fill:rgb(0.392151%,16.470337%,52.940369%);fill-opacity:1;" d="M 37.929688 49.675781 L 36.359375 49.332031 L 36.414062 49.089844 L 37.859375 48.601562 L 36.589844 48.320312 L 36.636719 48.128906 L 38.203125 48.46875 L 38.152344 48.703125 L 36.703125 49.203125 L 37.972656 49.476562 Z M 37.929688 49.675781 "/>
<path style=" stroke:none;fill-rule:evenodd;fill:rgb(0.392151%,16.470337%,52.940369%);fill-opacity:1;" d="M 37.804688 47.691406 L 37.824219 47.492188 C 37.914062 47.496094 37.992188 47.480469 38.046875 47.449219 C 38.160156 47.390625 38.230469 47.269531 38.246094 47.097656 C 38.25 47.015625 38.25 46.949219 38.230469 46.882812 C 38.195312 46.75 38.125 46.679688 38.003906 46.667969 C 37.917969 46.65625 37.855469 46.679688 37.8125 46.726562 C 37.769531 46.78125 37.726562 46.859375 37.695312 46.96875 L 37.621094 47.175781 C 37.578125 47.308594 37.535156 47.402344 37.488281 47.453125 C 37.414062 47.550781 37.308594 47.585938 37.175781 47.574219 C 37.035156 47.5625 36.917969 47.503906 36.835938 47.394531 C 36.75 47.296875 36.71875 47.152344 36.738281 46.976562 C 36.75 46.816406 36.804688 46.679688 36.898438 46.574219 C 36.988281 46.472656 37.125 46.425781 37.300781 46.441406 L 37.28125 46.640625 C 37.195312 46.640625 37.128906 46.652344 37.078125 46.691406 C 36.988281 46.738281 36.941406 46.84375 36.925781 47 C 36.910156 47.125 36.929688 47.210938 36.976562 47.277344 C 37.023438 47.332031 37.089844 47.367188 37.160156 47.371094 C 37.238281 47.378906 37.296875 47.355469 37.339844 47.296875 C 37.367188 47.253906 37.402344 47.167969 37.453125 47.027344 L 37.523438 46.808594 C 37.558594 46.710938 37.601562 46.632812 37.648438 46.578125 C 37.734375 46.488281 37.851562 46.449219 37.992188 46.460938 C 38.164062 46.480469 38.289062 46.550781 38.351562 46.683594 C 38.414062 46.816406 38.441406 46.964844 38.425781 47.128906 C 38.40625 47.316406 38.34375 47.464844 38.230469 47.566406 C 38.117188 47.667969 37.976562 47.703125 37.804688 47.691406 Z M 37.804688 47.691406 "/>
<path style=" stroke:none;fill-rule:evenodd;fill:rgb(0.392151%,16.470337%,52.940369%);fill-opacity:1;" d="M 5.335938 47.59375 L 5.371094 47.789062 C 5.28125 47.808594 5.210938 47.84375 5.164062 47.886719 C 5.070312 47.972656 5.039062 48.101562 5.070312 48.277344 C 5.085938 48.347656 5.113281 48.421875 5.148438 48.480469 C 5.214844 48.597656 5.304688 48.644531 5.421875 48.628906 C 5.503906 48.613281 5.5625 48.578125 5.589844 48.519531 C 5.613281 48.460938 5.632812 48.371094 5.636719 48.253906 L 5.648438 48.035156 C 5.65625 47.902344 5.667969 47.792969 5.699219 47.734375 C 5.746094 47.628906 5.835938 47.5625 5.96875 47.542969 C 6.109375 47.515625 6.238281 47.546875 6.34375 47.628906 C 6.453125 47.703125 6.527344 47.832031 6.554688 48.007812 C 6.585938 48.167969 6.570312 48.308594 6.507812 48.4375 C 6.449219 48.5625 6.332031 48.640625 6.15625 48.671875 L 6.121094 48.476562 C 6.203125 48.445312 6.261719 48.417969 6.304688 48.375 C 6.375 48.296875 6.394531 48.1875 6.367188 48.03125 C 6.347656 47.90625 6.304688 47.824219 6.238281 47.785156 C 6.175781 47.738281 6.109375 47.71875 6.042969 47.730469 C 5.964844 47.742188 5.914062 47.785156 5.890625 47.855469 C 5.875 47.902344 5.863281 47.996094 5.851562 48.144531 L 5.839844 48.371094 C 5.835938 48.476562 5.820312 48.566406 5.785156 48.625 C 5.726562 48.734375 5.632812 48.804688 5.492188 48.828125 C 5.3125 48.859375 5.175781 48.816406 5.082031 48.703125 C 4.980469 48.589844 4.917969 48.457031 4.886719 48.292969 C 4.851562 48.097656 4.878906 47.941406 4.957031 47.820312 C 5.035156 47.695312 5.164062 47.621094 5.335938 47.597656 Z M 5.335938 47.59375 "/>
<path style=" stroke:none;fill-rule:evenodd;fill:rgb(0.392151%,16.470337%,52.940369%);fill-opacity:1;" d="M 5.234375 49.648438 L 6.769531 49.1875 L 7.125 50.265625 L 6.9375 50.324219 L 6.644531 49.4375 L 6.179688 49.578125 L 6.449219 50.398438 L 6.269531 50.453125 L 6.003906 49.632812 L 5.484375 49.789062 L 5.78125 50.695312 L 5.597656 50.746094 Z M 5.234375 49.648438 "/>
<path style=" stroke:none;fill-rule:evenodd;fill:rgb(0.392151%,16.470337%,52.940369%);fill-opacity:1;" d="M 5.914062 51.515625 L 7.324219 50.769531 L 7.472656 51.03125 L 6.503906 52.058594 L 7.921875 51.8125 L 8.066406 52.074219 L 6.660156 52.820312 L 6.558594 52.644531 L 7.390625 52.207031 C 7.421875 52.191406 7.464844 52.167969 7.535156 52.128906 C 7.601562 52.101562 7.671875 52.058594 7.75 52.023438 L 6.339844 52.261719 L 6.238281 52.078125 L 7.199219 51.058594 L 7.152344 51.082031 C 7.121094 51.101562 7.070312 51.125 7 51.164062 C 6.929688 51.207031 6.878906 51.234375 6.84375 51.25 L 6.015625 51.691406 Z M 5.914062 51.515625 "/>
<path style=" stroke:none;fill-rule:evenodd;fill:rgb(0.392151%,16.470337%,52.940369%);fill-opacity:1;" d="M 8.539062 53.589844 C 8.46875 53.578125 8.398438 53.535156 8.332031 53.464844 L 8.035156 53.160156 L 8.433594 52.792969 L 8.734375 53.097656 C 8.792969 53.15625 8.828125 53.210938 8.847656 53.257812 C 8.875 53.347656 8.847656 53.433594 8.765625 53.507812 C 8.6875 53.582031 8.613281 53.609375 8.539062 53.589844 Z M 7.40625 53.734375 L 7.902344 53.285156 L 8.25 53.636719 C 8.359375 53.75 8.476562 53.804688 8.59375 53.800781 C 8.71875 53.796875 8.824219 53.75 8.917969 53.664062 C 9.019531 53.570312 9.070312 53.460938 9.070312 53.34375 C 9.070312 53.230469 9.015625 53.125 8.921875 53.023438 L 8.417969 52.511719 L 7.253906 53.582031 Z M 7.40625 53.734375 "/>
<path style=" stroke:none;fill-rule:evenodd;fill:rgb(0.392151%,16.470337%,52.940369%);fill-opacity:1;" d="M 8.8125 54.984375 L 9.660156 53.664062 L 10.65625 54.269531 L 10.554688 54.425781 L 9.734375 53.933594 L 9.476562 54.335938 L 10.234375 54.792969 L 10.132812 54.945312 L 9.378906 54.488281 L 9.09375 54.9375 L 9.921875 55.4375 L 9.824219 55.59375 Z M 8.8125 54.984375 "/>
<path style=" stroke:none;fill-rule:evenodd;fill:rgb(0.392151%,16.470337%,52.940369%);fill-opacity:1;" d="M 11.3125 54.730469 L 11.820312 54.890625 C 11.894531 54.914062 11.945312 54.941406 11.980469 54.972656 C 12.046875 55.03125 12.0625 55.121094 12.023438 55.226562 C 11.992188 55.320312 11.945312 55.378906 11.871094 55.40625 C 11.804688 55.417969 11.722656 55.417969 11.625 55.386719 L 11.144531 55.234375 Z M 10.875 56.03125 L 11.085938 55.398438 L 11.558594 55.554688 C 11.644531 55.574219 11.703125 55.605469 11.734375 55.636719 C 11.792969 55.6875 11.8125 55.765625 11.78125 55.863281 L 11.710938 56.113281 C 11.695312 56.175781 11.6875 56.214844 11.679688 56.234375 C 11.679688 56.253906 11.679688 56.273438 11.683594 56.289062 L 11.933594 56.371094 L 11.945312 56.332031 C 11.917969 56.3125 11.90625 56.273438 11.90625 56.226562 C 11.910156 56.199219 11.917969 56.152344 11.9375 56.097656 L 11.996094 55.898438 C 12.019531 55.808594 12.03125 55.746094 12.007812 55.695312 C 11.988281 55.644531 11.960938 55.601562 11.90625 55.558594 C 11.988281 55.542969 12.054688 55.519531 12.113281 55.476562 C 12.167969 55.429688 12.210938 55.363281 12.238281 55.269531 C 12.296875 55.101562 12.265625 54.960938 12.140625 54.855469 C 12.078125 54.800781 11.988281 54.753906 11.871094 54.707031 L 11.160156 54.488281 L 10.667969 55.964844 Z M 10.875 56.03125 "/>
<path style=" stroke:none;fill-rule:evenodd;fill:rgb(73.724365%,44.313049%,37.254333%);fill-opacity:1;" d="M 13.027344 29.152344 C 13.210938 28.714844 14.90625 27.511719 20.472656 28.039062 C 20.472656 28.039062 21.414062 28.613281 21.964844 28.539062 C 22.28125 28.496094 21.78125 28.558594 21.367188 28.214844 C 20.949219 27.875 20.859375 27.175781 21.816406 27.191406 C 22.769531 27.214844 26.339844 27.417969 26.410156 27.738281 C 26.472656 28.0625 24.519531 28.199219 23.792969 28.179688 C 23.066406 28.160156 23.152344 28.527344 23.875 28.5 C 26.140625 28.421875 28.617188 27.621094 31.230469 29.46875 C 31.539062 29.691406 30.441406 29.730469 29.589844 29.367188 C 29.589844 29.367188 27.285156 29.488281 26.289062 29.324219 C 26.289062 29.324219 25.523438 29.945312 24.527344 29.886719 C 24.65625 30.207031 24.160156 31.414062 21.023438 30.507812 C 20.503906 30.667969 18.617188 30.984375 18.824219 30.421875 C 18.324219 30.421875 17.453125 30.582031 17.324219 30.300781 C 17.199219 30.019531 18.859375 29.597656 19.148438 29.300781 C 19.148438 29.300781 15.640625 29.332031 14.976562 29.089844 C 14.976562 29.089844 12.90625 29.554688 13.027344 29.152344 Z M 13.027344 29.152344 "/>
<path style=" stroke:none;fill-rule:evenodd;fill:rgb(0%,53.33252%,18.823242%);fill-opacity:1;" d="M 14.152344 34.066406 C 14.226562 33.964844 14.257812 33.785156 14.417969 33.789062 C 14.765625 33.882812 15 34.515625 15.429688 34.101562 C 15.578125 34.070312 15.636719 34.277344 15.765625 34.300781 C 15.84375 34.652344 16.128906 34.230469 16.339844 34.253906 C 16.792969 34.050781 17.351562 34.003906 17.890625 34.101562 C 17.90625 34.449219 17.632812 34.832031 17.292969 35.03125 C 17.300781 35.378906 17.617188 35.601562 17.613281 35.953125 C 17.558594 36.085938 17.601562 36.289062 17.402344 36.332031 C 17.152344 36.289062 16.902344 36.261719 16.695312 36.121094 C 16.667969 36.09375 16.648438 36.042969 16.59375 36.0625 C 16.570312 36.175781 16.753906 36.292969 16.824219 36.414062 C 16.699219 36.628906 16.488281 36.433594 16.3125 36.433594 C 16.261719 36.558594 16.3125 36.714844 16.183594 36.792969 C 15.960938 36.789062 15.917969 36.542969 15.777344 36.425781 C 15.640625 36.578125 15.878906 36.667969 15.914062 36.789062 C 15.828125 37.242188 15.835938 37.691406 15.382812 37.988281 L 15.074219 38.140625 C 14.992188 37.910156 15.042969 37.5625 14.988281 37.324219 C 14.808594 37.617188 14.664062 37.875 14.402344 38.125 C 14.089844 38.023438 13.910156 37.65625 13.84375 37.351562 C 13.710938 37 13.785156 36.578125 14.0625 36.320312 C 13.96875 36.136719 13.644531 36.175781 13.597656 35.914062 C 13.109375 35.597656 12.839844 36.472656 12.523438 36.015625 C 12.421875 35.59375 12.546875 35.0625 12.851562 34.75 C 12.785156 34.574219 12.558594 34.621094 12.421875 34.519531 C 12.117188 34.261719 11.671875 33.984375 11.695312 33.515625 C 12.535156 33.199219 13.539062 33.429688 14.148438 34.066406 Z M 14.152344 34.066406 "/>
<path style=" stroke:none;fill-rule:evenodd;fill:rgb(97.645569%,85.096741%,5.882263%);fill-opacity:1;" d="M 14.589844 34.019531 C 14.566406 34.402344 14.847656 34.125 15.054688 34.359375 C 14.890625 34.292969 14.773438 34.636719 14.613281 34.441406 L 14.515625 34.535156 C 14.574219 34.667969 14.6875 34.6875 14.570312 34.832031 C 14.394531 34.898438 14.359375 34.679688 14.277344 34.59375 C 14.265625 34.554688 14.304688 34.480469 14.242188 34.457031 C 14.144531 34.542969 14.039062 34.570312 13.90625 34.554688 C 13.867188 34.480469 13.796875 34.386719 13.867188 34.328125 C 14 34.148438 14.210938 34.394531 14.308594 34.265625 C 14.324219 34.15625 14.230469 34.019531 14.355469 33.945312 C 14.441406 33.960938 14.554688 33.910156 14.589844 34.019531 Z M 14.589844 34.019531 "/>
<path style=" stroke:none;fill-rule:evenodd;fill:rgb(97.645569%,85.096741%,5.882263%);fill-opacity:1;" d="M 15.625 34.335938 C 15.636719 34.410156 15.589844 34.515625 15.6875 34.566406 C 15.8125 34.496094 15.945312 34.550781 16.019531 34.675781 C 16.019531 34.742188 16.039062 34.832031 15.949219 34.863281 L 15.753906 34.828125 C 15.769531 34.785156 15.707031 34.761719 15.679688 34.726562 C 15.59375 34.699219 15.542969 34.769531 15.476562 34.8125 C 15.527344 34.886719 15.640625 34.929688 15.613281 35.023438 C 15.496094 35.140625 15.441406 34.925781 15.3125 34.976562 C 15.226562 34.945312 15.34375 34.761719 15.207031 34.707031 C 15.042969 34.707031 15.152344 34.976562 14.945312 34.871094 C 14.871094 34.785156 14.800781 34.675781 14.878906 34.582031 C 14.964844 34.523438 15.113281 34.539062 15.183594 34.613281 C 15.3125 34.472656 15.324219 33.933594 15.625 34.335938 Z M 15.625 34.335938 "/>
<path style=" stroke:none;fill-rule:evenodd;fill:rgb(97.645569%,85.096741%,5.882263%);fill-opacity:1;" d="M 14.332031 34.894531 C 14.417969 35.015625 14.3125 35.179688 14.421875 35.316406 C 14.59375 35 14.753906 35.382812 14.957031 35.355469 C 15.019531 35.429688 14.976562 35.535156 14.988281 35.621094 C 14.742188 35.6875 14.441406 35.765625 14.21875 35.566406 L 14.15625 35.636719 C 14.289062 35.757812 14.414062 35.894531 14.308594 36.101562 C 14.121094 36.140625 13.832031 36.144531 13.738281 35.953125 C 13.691406 35.792969 13.851562 35.679688 13.679688 35.550781 C 13.558594 35.707031 13.5625 35.910156 13.304688 35.773438 C 13.144531 35.683594 13.097656 35.503906 13.179688 35.351562 C 13.34375 35.085938 13.636719 35.359375 13.816406 35.226562 C 13.84375 35.003906 13.761719 34.804688 13.964844 34.679688 C 14.144531 34.648438 14.226562 34.78125 14.332031 34.894531 Z M 14.332031 34.894531 "/>
<path style=" stroke:none;fill-rule:evenodd;fill:rgb(99.998474%,99.998474%,99.998474%);fill-opacity:1;" d="M 15.039062 35.03125 C 14.957031 35.417969 14.664062 35.011719 14.53125 34.996094 C 14.710938 34.675781 14.824219 35.101562 15.039062 35.03125 Z M 15.039062 35.03125 "/>
<path style=" stroke:none;fill-rule:evenodd;fill:rgb(99.998474%,99.998474%,99.998474%);fill-opacity:1;" d="M 15.941406 35.449219 C 15.738281 35.507812 15.773438 35.253906 15.671875 35.15625 L 15.75 35.085938 C 15.824219 35.175781 15.878906 35.332031 15.941406 35.449219 Z M 15.941406 35.449219 "/>
<path style=" stroke:none;fill-rule:evenodd;fill:rgb(97.645569%,85.096741%,5.882263%);fill-opacity:1;" d="M 15.667969 35.371094 C 15.726562 35.507812 15.539062 35.613281 15.699219 35.710938 C 15.75 35.667969 15.8125 35.609375 15.835938 35.582031 C 15.976562 35.625 16.136719 35.648438 16.230469 35.785156 C 16.335938 36.070312 16.050781 36.0625 15.886719 36.140625 L 15.726562 36.132812 C 15.765625 36.054688 15.65625 36.023438 15.628906 35.964844 C 15.558594 35.945312 15.492188 35.96875 15.453125 36.03125 C 15.488281 36.214844 15.707031 36.351562 15.480469 36.511719 C 15.289062 36.5 14.992188 36.574219 15.011719 36.3125 C 14.941406 36.160156 15.207031 35.929688 14.921875 35.921875 C 14.828125 36.121094 14.722656 36.316406 14.480469 36.125 L 14.507812 35.839844 C 14.742188 35.847656 15.019531 35.886719 15.125 35.625 C 15.191406 35.4375 15.007812 35.261719 15.175781 35.109375 C 15.410156 35.054688 15.546875 35.214844 15.667969 35.371094 Z M 15.667969 35.371094 "/>
<path style=" stroke:none;fill-rule:evenodd;fill:rgb(0%,0%,0%);fill-opacity:1;" d="M 15.496094 35.804688 C 15.558594 35.945312 15.394531 35.957031 15.320312 36.027344 C 15.214844 36.035156 15.144531 35.996094 15.082031 35.925781 C 15.035156 35.753906 15.164062 35.734375 15.261719 35.667969 C 15.375 35.621094 15.421875 35.753906 15.496094 35.804688 Z M 15.496094 35.804688 "/>
<path style=" stroke:none;fill-rule:evenodd;fill:rgb(99.998474%,99.998474%,99.998474%);fill-opacity:1;" d="M 15.355469 35.898438 C 15.332031 35.933594 15.296875 35.921875 15.257812 35.929688 L 15.222656 35.757812 C 15.296875 35.765625 15.398438 35.789062 15.355469 35.898438 Z M 15.355469 35.898438 "/>
</g>
</svg>
