<svg viewBox="0 0 1000 667" xmlns="http://www.w3.org/2000/svg" xmlns:xlink="http://www.w3.org/1999/xlink"><clipPath id="a"><path d="m0 0h1000v666.71875h-1000zm0 0"/></clipPath><clipPath id="b"><path d="m0 0h445v666.71875h-445zm0 0"/></clipPath><g clip-path="url(#a)"><path d="m0 666.667969v-666.667969h1000v666.667969zm0 0" fill="#012a87" fill-rule="evenodd"/></g><path d="m0 0h1000v333.332031h-1000zm0 0" fill="#dc171d" fill-rule="evenodd"/><g clip-path="url(#b)"><path d="m0 0v666.667969l444.445312-333.335938zm0 0" fill="#fff" fill-rule="evenodd"/></g><path d="m224.347656 251.570312.148438-5.164062s-2.773438-4.414062.433594-9.160156c0 0-6.824219-3.617188-5.238282-9.273438 0 0-6.179687-1.578125-5.714844-8.367187 0 0-6.679687-.464844-7.367187-6.148438 0 0-6.667969 1.105469-9.605469-4.4375 0 0-6.507812 1.273438-8.347656-3.273437 0 0-6.3125 2.175781-10.074219-3.183594 0 0-6.671875 2.695312-9.476562-2.359375-2.765625 5.042969-9.433594 2.359375-9.433594 2.359375-3.703125 5.34375-10.078125 3.128906-10.078125 3.128906-1.773438 4.574219-8.269531 3.273438-8.269531 3.273438-2.921875 5.539062-9.582031 4.429687-9.582031 4.429687-.660157 5.675781-7.3125 6.136719-7.3125 6.136719.535156 6.808594-5.644532 8.355469-5.644532 8.355469 1.628906 5.65625-5.191406 9.265625-5.191406 9.265625 3.296875 4.761718.550781 9.152344.550781 9.152344l-.144531 4.757812 110.378906.507812zm0 0" fill="#ff0" fill-rule="evenodd"/><path d="m224.347656 251.570312.148438-5.164062s-2.773438-4.414062.433594-9.160156c0 0-6.824219-3.617188-5.238282-9.273438 0 0-6.179687-1.578125-5.714844-8.367187 0 0-6.679687-.464844-7.367187-6.148438 0 0-6.667969 1.105469-9.605469-4.4375 0 0-6.507812 1.273438-8.347656-3.273437 0 0-6.3125 2.175781-10.074219-3.183594 0 0-6.671875 2.695312-9.476562-2.359375-2.765625 5.042969-9.433594 2.359375-9.433594 2.359375-3.703125 5.34375-10.078125 3.128906-10.078125 3.128906-1.773438 4.574219-8.269531 3.273438-8.269531 3.273438-2.921875 5.539062-9.582031 4.429687-9.582031 4.429687-.660157 5.675781-7.3125 6.136719-7.3125 6.136719.535156 6.808594-5.644532 8.355469-5.644532 8.355469 1.628906 5.65625-5.191406 9.265625-5.191406 9.265625 3.296875 4.761718.550781 9.152344.550781 9.152344l-.144531 4.757812 110.378906.507812zm0 0" fill="#f9d90f" fill-rule="evenodd"/><path d="m224.347656 251.570312.148438-5.164062s-2.773438-4.414062.433594-9.160156c0 0-6.824219-3.617188-5.238282-9.273438 0 0-6.179687-1.578125-5.714844-8.367187 0 0-6.679687-.464844-7.367187-6.148438 0 0-6.667969 1.105469-9.605469-4.4375 0 0-6.507812 1.273438-8.347656-3.277343 0 0-6.3125 2.179687-10.074219-3.179688 0 0-6.671875 2.695312-9.476562-2.359375-2.765625 5.039063-9.433594 2.359375-9.433594 2.359375-3.703125 5.34375-10.078125 3.128906-10.078125 3.128906-1.773438 4.574219-8.269531 3.269532-8.269531 3.269532-2.921875 5.542968-9.582031 4.433593-9.582031 4.433593-.660157 5.671875-7.3125 6.136719-7.3125 6.136719.535156 6.808594-5.644532 8.355469-5.644532 8.355469 1.628906 5.65625-5.191406 9.265625-5.191406 9.265625 3.296875 4.761718.550781 9.152344.550781 9.152344l-.144531 4.757812 110.378906.507812zm0 0" fill="none" stroke="#000" stroke-width=".404834"/><path d="m221.78125 245.125c-17.347656-1.730469-37.304688-5.851562-52.71875 2.820312-10.332031-6.078124-24.707031-5.699218-36.957031-4.519531-6.664063 1.191407-14.484375 1.191407-21.421875 2.328125l-1.089844.144532c-12.617188.851562-24.058594-2.878907-35.019531-7.777344 3.476562 19.75 7.339843 39.984375 9.246093 60.671875 4.128907 30.621093-14.5 56.335937-6.859374 86.585937 4.570312 14.519532 20.53125 22.953125 35.140624 24.625 14.148438.832032 28.792969 3.148438 41.882813 5.996094 2.488281.507812 5.433594 1.671875 7.148437 2.417969 3.609376 1.503906 6.257813 3.71875 8.585938 6.089843 7.890625-8.222656 19.472656-10.523437 30.910156-11.734374 20.59375-2.398438 45.984375-1.085938 58.601563-19.753907v-1.050781c6.851562-10.320312 5.953125-26.070312 2.972656-37.753906-.195313-4.085938-1.285156-7.6875-1.882813-11.566406-12.585937-33.230469-1.804687-70.601563 3.609376-104.109376-6.609376 3.628907-13.980469 5.332032-21.34375 7.136719-5.882813.792969-12.421876.429688-18.359376.121094l-2.460937-.671875zm0 0" fill="#dc171d" fill-rule="evenodd"/><path d="m247.664062 340.5c-.074218 2.179688 1.105469 3.894531 1.53125 5.925781 2.410157 14.519531 4.734376 33.777344-10.21875 42.789063-16.550781 10.515625-38.246093 6.011718-57.394531 11.582031-3.820312 1.054687-9.089843 4.578125-11.777343 7.050781-1.726563-1.128906-3.464844-2.878906-5.683594-3.890625-15.765625-8.386719-36.242188-5.585937-54.023438-10.105469-8.941406-2.820312-18.25-9.773437-20.507812-18.921874-5.824219-23.980469 8.109375-44.410157 6.46875-68.214844-1.0625-18.167969-4.125-35.609375-8.320313-52.636719 13.898438 6.476563 30.007813 7.554687 45.632813 4.449219 11.566406-1.613282 25.050781-1.65625 35.898437 3.234375 5.96875-2.566407 12.972657-3.710938 19.417969-4.433594 12.238281 1.199219 25.402344 3.421875 38.019531 3.3125 8.421875-.425781 16.074219-2.863281 23.402344-6.097656-4.339844 28.144531-12.6875 57.632812-2.445313 85.957031zm0 0" fill="#62afe1" fill-rule="evenodd"/><path d="m222.664062 346.113281-.136718-26.472656h3.269531l-40.480469-26.136719-.074218-13.578125h3.90625l-20.222657-14.488281-20.132812 14.472656h3.890625l.078125 13.566406-40.261719 26.105469 3.210938.027344.152343 26.441406 106.800781.078125zm0 0" fill="#fff" fill-rule="evenodd"/><path d="m222.664062 346.113281-.136718-26.472656h3.269531l-40.480469-26.136719-.074218-13.578125h3.90625l-20.222657-14.488281-20.132812 14.472656h3.890625l.078125 13.5625-40.261719 26.109375 3.210938.027344.152343 26.441406 106.800781.078125zm0 0" fill="none" stroke="#000" stroke-width="1.737616"/><path d="m235.105469 380.890625v8.28125l-130.382813-.152344-.042968-8.238281zm0 0" fill="#fff" fill-rule="evenodd"/><path d="m235.105469 380.886719v8.285156l-130.382813-.152344-.042968-8.238281zm0 0" fill="none" stroke="#000" stroke-width="1.737616"/><path d="m113.394531 380.390625-.113281-28.039063 5.28125-.015624-.296875 28.371093.324219-28.132812-7.609375-.222657v-6.011718l116.527343.128906.046876 5.957031h-7.175782l.128906 28.382813-.253906-28.382813h5.347656l.121094 28.074219zm0 0" fill="#fff" fill-rule="evenodd"/><path d="m113.394531 380.390625-.113281-28.039063 5.28125-.015624-.296875 28.371093.324219-28.132812-7.609375-.222657v-6.011718l116.527343.128906.046876 5.953125h-7.175782l.128906 28.386719-.253906-28.386719h5.347656l.121094 28.074219" fill="none" stroke="#000" stroke-width="1.737616"/><path d="m138.449219 373.480469-.09375-19.542969h-15.640625l.085937 19.53125z" fill="none" stroke="#000" stroke-width="1.737616"/><path d="m126.980469 358.007812.046875 11.355469h7.152344l-.035157-11.355469z" fill="none" stroke="#000" stroke-width="1.737616"/><path d="m214.929688 373.546875-.09375-19.539063-15.582032-.015624.058594 19.554687z" fill="none" stroke="#000" stroke-width="1.737616"/><path d="m203.464844 358.082031.070312 11.328125h7.171875l-.082031-11.328125z" fill="none" stroke="#000" stroke-width="1.737616"/><path d="m214.808594 341.710938-.089844-19.554688h-15.613281l.0625 19.554688h15.652343zm0 0" fill="none" stroke="#000" stroke-width="1.737616"/><path d="m203.34375 326.265625.050781 11.34375h7.144531v-11.34375z" fill="none" stroke="#000" stroke-width="1.737616"/><path d="m138.3125 341.636719-.101562-19.523438-15.621094-.015625.082031 19.523438h15.640625zm0 0" fill="none" stroke="#000" stroke-width="1.737616"/><path d="m126.84375 326.1875.050781 11.328125 7.164063.015625-.058594-11.34375z" fill="none" stroke="#000" stroke-width="1.737616"/><path d="m166.625 341.667969-.074219-19.511719-15.625-.027344.074219 19.539063z" fill="none" stroke="#000" stroke-width="1.737616"/><path d="m155.179688 326.222656.027343 11.308594 7.164063.046875-.046875-11.355469z" fill="none" stroke="#000" stroke-width="1.737616"/><path d="m188.449219 341.710938-.101563-19.554688-15.621094-.027344.082032 19.539063z" fill="none" stroke="#000" stroke-width="1.737616"/><path d="m176.980469 326.238281.054687 11.355469h7.160156l-.046874-11.355469z" fill="none" stroke="#000" stroke-width="1.737616"/><path d="m192.332031 335.714844.160157 45.066406-45.269532-.074219-.167968-45.042969 45.265624.050782zm0 0" fill="#fff" fill-rule="evenodd" stroke="#000" stroke-width="1.737616"/><path d="m146.789062 348.574219 45.585938.027343" fill="none" stroke="#000" stroke-width="1.737616"/><path d="m152.472656 380.765625-.15625-31.863281" fill="none" stroke="#000" stroke-width="1.737616"/><path d="m186.988281 380.78125-.152343-31.828125" fill="none" stroke="#000" stroke-width="1.737616"/><path d="m208.855469 316.523438-25.492188-18.628907-28.648437-.027343-25.300782 18.574218z" fill="none" stroke="#000" stroke-width="1.737616"/><path d="m156.90625 282.449219.046875 11.359375 24.109375.015625-.042969-11.359375z" fill="none" stroke="#000" stroke-width="1.737616"/><path d="m163.449219 285.273438.042969 5.648437h11.058593l-.027343-5.648437z" fill="none" stroke="#000" stroke-width="1.737616"/><path d="m168.925781 269.523438 13.386719 9.476562-26.699219-.027344z" fill="none" stroke="#000" stroke-width="1.737616"/><path d="m223.105469 263.105469c3.8125-.085938 4.792969 15.671875 4.792969 23.492187 3.285156.910156 10.527343 5.472656 13.730468 9.597656l-36.773437-.042968c3.160156-4.082032 10.359375-8.660156 13.597656-9.570313 0-7.820312.800781-23.582031 4.652344-23.488281zm0 0" fill="#fff" fill-rule="evenodd"/><path d="m223.105469 263.109375c3.8125-.089844 4.792969 15.667969 4.792969 23.488281 3.285156.910156 10.527343 5.476563 13.730468 9.597656l-36.773437-.042968c3.160156-4.078125 10.359375-8.660156 13.597656-9.570313 0-7.820312.800781-23.582031 4.652344-23.488281" fill="none" stroke="#000" stroke-width="1.737616"/><path d="m149.175781 336.964844h3.296875l-.96875 1.773437s1.601563 2.046875.03125 4.390625l.867188 1.625h-3.183594l.867188-1.539062s-1.625-2.710938.074218-4.476563z" fill="none" stroke="#000" stroke-width="1.737616"/><path d="m155.894531 336.964844h3.300781l-.957031 1.773437s1.597657 1.988281.015625 4.390625l.847656 1.625h-3.164062l.855469-1.539062s-1.597657-2.710938.070312-4.476563z" fill="none" stroke="#000" stroke-width="1.737616"/><path d="m163.238281 336.964844h3.285157l-.984376 1.773437s1.613282 2.046875.027344 4.390625l.867188 1.667969-3.152344-.042969.839844-1.539062s-1.613282-2.699219.058594-4.476563l-.957032-1.773437zm0 0" fill="none" stroke="#000" stroke-width="1.737616"/><path d="m171.503906 336.996094h3.316406l-.96875 1.792968s1.597657 1.996094.011719 4.355469l.882813 1.652344h-3.195313l.851563-1.546875s-1.582032-2.734375.125-4.460938l-1.007813-1.792968zm0 0" fill="none" stroke="#000" stroke-width="1.737616"/><path d="m178.863281 336.996094h3.28125l-.964843 1.792968s1.597656 1.996094.027343 4.339844l.867188 1.667969h-3.160157l.816407-1.546875s-1.597657-2.71875.125-4.460938z" fill="none" stroke="#000" stroke-width="1.737616"/><path d="m186.183594 337.007812 3.296875-.011718-.988281 1.792968s1.625 1.996094.046874 4.355469l.835938 1.652344h-3.175781l.84375-1.546875s-1.597657-2.71875.109375-4.460938z" fill="none" stroke="#000" stroke-width="1.737616"/><path d="m169.90625 438.546875c16.957031.046875 37.8125-3.410156 47.578125-8.460937l21.445313-1.894532.4375 26.175782c-18.171876 10.015624-60.144532 12.164062-69.367188 12.089843-9.238281.074219-51.71875-2.105469-69.976562-12.160156l.238281-26.191406 21.496093 1.921875c9.773438 5.027344 31.257813 8.519531 48.199219 8.519531zm0 0" fill="#f9d90f" fill-rule="evenodd"/><path d="m169.90625 438.550781c16.957031.042969 37.8125-3.414062 47.578125-8.464843l21.445313-1.894532.4375 26.179688c-18.171876 10.007812-60.144532 12.160156-69.367188 12.085937-9.238281.074219-51.71875-2.105469-69.976562-12.160156l.238281-26.191406 21.496093 1.921875c9.773438 5.027344 31.257813 8.523437 48.199219 8.523437z" fill="none" stroke="#000" stroke-width=".404834"/><path d="m44.796875 326.902344 18.898437 6.019531-5.703124 30.589844-17.894532 2.777343s-3.019531-16.085937 4.699219-39.398437zm0 0" fill="#f9d90f" fill-rule="evenodd"/><path d="m44.796875 326.902344 18.898437 6.019531-5.703124 30.589844-17.894532 2.777343s-3.019531-16.085937 4.699219-39.402343" fill="none" stroke="#000" stroke-width=".404834"/><path d="m57.980469 363.1875-17.882813 3.101562 11.3125-16.085937zm0 0" fill="#f9b60f" fill-rule="evenodd"/><path d="m57.980469 363.1875-17.882813 3.101562 11.3125-16.085937z" fill="none" stroke="#000" stroke-width=".404834"/><path d="m33.5 348.953125 18.222656 1.308594c.402344 15.429687 2.269532 74.332031 72.621094 77.546875l-2.199219 21.425781c-85.613281.878906-92.125-72.261719-88.644531-100.28125zm0 0" fill="#f9d90f" fill-rule="evenodd"/><path d="m33.5 348.953125 18.222656 1.308594c.402344 15.429687 2.269532 74.332031 72.621094 77.546875l-2.199219 21.425781c-85.613281.882813-92.125-72.257813-88.644531-100.28125" fill="none" stroke="#000" stroke-width=".404834"/><path d="m100.367188 453.625 21.464843-4.703125" fill="none" stroke="#000" stroke-width=".404834"/><path d="m293.535156 327.125-18.839844 5.960938 5.96875 30.550781 17.925782 2.878906s2.886718-16.074219-5.054688-39.417969zm0 0" fill="#f9d90f" fill-rule="evenodd"/><path d="m293.535156 327.128906-18.839844 5.957032 5.96875 30.550781 17.925782 2.878906s2.886718-16.074219-5.054688-39.417969zm0 0" fill="none" stroke="#000" stroke-width=".404834"/><path d="m280.664062 363.316406 17.925782 3.214844-11.457032-16.089844zm0 0" fill="#f9b60f" fill-rule="evenodd"/><path d="m280.664062 363.316406 17.925782 3.214844-11.457032-16.089844z" fill="none" stroke="#000" stroke-width=".404834"/><path d="m305.042969 349.1875-18.246094 1.253906c-.265625 15.414063-1.613281 74.335938-71.960937 77.464844l2.386718 21.421875c85.621094.984375 91.5-72.113281 87.820313-100.140625zm0 0" fill="#f9d90f" fill-rule="evenodd"/><path d="m305.042969 349.191406-18.246094 1.25c-.265625 15.417969-1.613281 74.335938-71.960937 77.464844l2.386718 21.421875c85.621094.984375 91.5-72.117187 87.820313-100.136719" fill="none" stroke="#000" stroke-width=".404834"/><path d="m239.078125 453.726562-21.523437-4.703124" fill="none" stroke="#000" stroke-width=".404834"/><g fill-rule="evenodd"><path d="m158.523438 451.445312c-.480469.3125-1.136719.382813-1.882813.355469l-3.398437-.179687.28125-4.230469 3.371093.171875c.671875.042969 1.191407.179688 1.527344.375.679687.355469.980469 1.015625.902344 1.925781-.042969.773438-.3125 1.28125-.800781 1.582031zm-5.714844 6.6875.335937-5.179687 3.960938.265625c1.277343.109375 2.234375-.222656 2.878906-.882812.671875-.636719 1.015625-1.476563 1.0625-2.414063.085937-1.101563-.195313-1.996094-.855469-2.671875-.628906-.628906-1.503906-.96875-2.625-1.074219l-5.671875-.355469-.773437 12.171876 1.6875.109374zm0 0" fill="#012a87"/><path d="m165.132812 447.9375 4.136719.042969c.59375.058593 1.070313.136719 1.417969.296875.636719.304687.941406.898437.941406 1.765625 0 .816406-.238281 1.375-.699218 1.699219-.449219.296874-1.09375.4375-1.867188.4375l-3.972656-.046876.027344-4.195312zm-.070312 10.785156.027344-5.207031 3.890625.066406c.6875 0 1.199219.058594 1.554687.222657.566406.265624.855469.816406.882813 1.578124l.101562 2.046876c.015625.492187.03125.789062.066407 1 .058593.136718.070312.292968.144531.402343h2.089843l-.027343-.265625c-.238281-.125-.4375-.378906-.507813-.746094-.078125-.222656-.121094-.585937-.136718-1.035156l-.03125-1.628906c-.027344-.726562-.164063-1.234375-.433594-1.515625-.253906-.328125-.578125-.617187-1.097656-.789063.578124-.304687 1.011718-.660156 1.324218-1.09375.308594-.476562.460938-1.09375.460938-1.835937 0-1.40625-.5625-2.359375-1.726563-2.867187-.628906-.28125-1.433593-.433594-2.375-.449219l-5.851562-.054688-.042969 12.207031h1.6875zm0 0" fill="#012a87"/><path d="m178.03125 456.179688c-.746094-.914063-1.148438-2.050782-1.238281-3.394532-.09375-1.699218.242187-2.980468 1.015625-3.863281.773437-.941406 1.792968-1.386719 3.101562-1.460937 1.332032-.070313 2.414063.355468 3.226563 1.191406.832031.804687 1.292969 1.953125 1.390625 3.359375.042968 1.375-.199219 2.582031-.828125 3.636719-.605469 1.078124-1.640625 1.695312-3.160157 1.738281-1.582031.070312-2.761718-.296875-3.507812-1.207031zm-2.003906-7.691407c-.789063 1.207031-1.097656 2.597657-1.027344 4.296875.121094 1.820313.6875 3.328125 1.742188 4.464844 1.179687 1.132812 2.75 1.714844 4.675781 1.597656 2.058593-.089844 3.617187-.867187 4.671875-2.300781.851562-1.296875 1.273437-2.820313 1.179687-4.664063-.117187-1.679687-.609375-3.019531-1.507812-4.039062-1.132813-1.351562-2.789063-1.953125-5.046875-1.859375-2.132813.128906-3.679688.925781-4.703125 2.503906zm0 0" fill="#012a87"/><path d="m233.40625 430.925781c1.164062-.195312 2.183594-.152343 3.125.179688 1.351562.414062 2.261719 1.429687 2.851562 2.964843l-1.695312.238282c-.355469-.832032-.875-1.402344-1.578125-1.726563-.671875-.296875-1.539063-.375-2.507813-.226562-1.152343.179687-2.078124.746093-2.710937 1.671875-.632813.96875-.828125 2.285156-.542969 3.957031.222656 1.390625.742188 2.554687 1.582032 3.328125.757812.800781 1.894531 1.085938 3.386718.882812 1.105469-.179687 2.003906-.628906 2.632813-1.390624.636719-.730469.832031-1.835938.621093-3.253907l-3.921874.613281-.195313-1.359374 5.449219-.839844 1.054687 6.46875-1.070312.160156-.671875-1.492188c-.464844.675782-.910156 1.195313-1.316406 1.492188-.671876.542969-1.578126.867188-2.714844 1.035156-1.472656.222656-2.820313-.03125-4.027344-.828125-1.34375-.980469-2.214844-2.457031-2.523438-4.503906-.363281-1.996094-.042968-3.71875.882813-5.074219.875-1.316406 2.160156-2.074218 3.890625-2.3125zm0 0" fill="#012a87"/><path d="m245.738281 429.984375 3.90625-1.417969c.523438-.210937 1.007813-.269531 1.390625-.222656.714844.054688 1.25.476562 1.554688 1.34375.28125.714844.28125 1.351562-.042969 1.800781-.332031.464844-.855469.796875-1.628906 1.078125l-3.671875 1.308594zm3.90625 10.089844-1.910156-4.894531 3.632813-1.320313c.679687-.199219 1.164062-.324219 1.503906-.292969.660156.09375 1.136718.476563 1.460937 1.21875l.839844 1.867188c.183594.464844.328125.734375.449219.871094.042968.164062.160156.265624.253906.367187l1.964844-.730469-.097656-.253906c-.304688 0-.574219-.15625-.78125-.492188-.160157-.222656-.296876-.550781-.507813-.925781l-.660156-1.53125c-.28125-.660156-.578125-1.078125-.925781-1.316406-.351563-.195313-.789063-.3125-1.292969-.355469.390625-.464844.6875-.925781.785156-1.460937.125-.558594.070313-1.179688-.191406-1.867188-.507813-1.300781-1.417969-2.019531-2.714844-2.105469-.671875-.042968-1.460937.085938-2.355469.421876l-5.492187 1.949218 4.429687 11.476563 1.609375-.59375zm0 0" fill="#012a87"/><path d="m263.929688 434.027344-6.96875-10.175782 7.660156-4.886718.832031 1.246094-6.265625 4 2.148438 3.105468 5.792968-3.71875.789063 1.179688-5.792969 3.730468 2.355469 3.429688 6.390625-4.085938.839844 1.207032zm0 0" fill="#012a87"/><path d="m270.035156 416.042969 1.984375-2.191407c.941407-.984374 1.910157-1.417968 2.988281-1.300781 1.078126.09375 2.164063.660157 3.328126 1.671875.316406.25.597656.570313.894531.925782.507812.65625.804687 1.246093 1 1.820312.164062.734375.125 1.390625-.128907 2.035156-.152343.3125-.433593.679688-.839843 1.128906l-1.996094 2.183594-7.230469-6.285156zm10.558594 4.777343c1.414062-1.566406 1.726562-3.234374.894531-5.128906-.476562-1.035156-1.214843-2.035156-2.242187-2.917968-1.265625-1.128907-2.609375-1.710938-4.015625-1.8125-1.570313-.125-2.894531.4375-4.042969 1.699218l-3.40625 3.652344 9.390625 8.195312 3.40625-3.675781zm0 0" fill="#012a87"/><path d="m287.875 411.34375-10.820312-6.34375.875-1.398438 10.84375 6.308594-.898438 1.445313zm0 0" fill="#012a87"/><path d="m292.113281 403.972656-11.671875-4.675781 3.433594-8.203125 1.417969.535156-2.804688 6.78125 3.519531 1.367188 2.628907-6.222656 1.34375.550781-2.59375 6.226562 3.917969 1.59375 2.886718-6.84375 1.417969.535157-3.507813 8.355468zm0 0" fill="#012a87"/><path d="m297.476562 389.625-12.292968-2.710938.40625-1.894531 11.359375-3.835937-9.96875-2.191406.351562-1.496094 12.292969 2.640625-.390625 1.851562-11.359375 3.914063 9.953125 2.148437-.335937 1.574219zm0 0" fill="#012a87"/><path d="m296.5 374.035156.148438-1.539062c.71875.015625 1.316406-.101563 1.769531-.339844.886719-.476562 1.414062-1.402344 1.546875-2.75.042968-.640625.027344-1.191406-.117188-1.710938-.273437-1.035156-.839844-1.585937-1.765625-1.671874-.671875-.082032-1.164062.085937-1.515625.460937-.320312.414063-.660156 1.042969-.914062 1.910156l-.570313 1.613281c-.355469 1.042969-.6875 1.773438-1.058593 2.175782-.585938.777344-1.402344 1.03125-2.453126.957031-1.097656-.105469-2.007812-.558594-2.652343-1.417969-.671875-.773437-.941407-1.894531-.773438-3.269531.101563-1.265625.519531-2.328125 1.265625-3.175781.6875-.796875 1.765625-1.164063 3.140625-1.019532l-.140625 1.554688c-.671875 0-1.191406.101562-1.597656.382812-.703125.390626-1.085938 1.214844-1.207031 2.425782-.101563.996094.027343 1.667968.417969 2.175781.371093.433594.871093.703125 1.417968.746094.609375.058593 1.070313-.136719 1.40625-.59375.238282-.316407.519532-1.003907.894532-2.121094l.566406-1.707031c.265625-.773438.597656-1.367188.96875-1.800782.6875-.699218 1.582031-1 2.6875-.925781 1.371094.144531 2.347656.714844 2.839844 1.746094.488281 1.046875.6875 2.195313.5625 3.503906-.152344 1.476563-.644532 2.640625-1.519532 3.4375-.894531.789063-2.003906 1.058594-3.347656.953125zm0 0" fill="#012a87"/><path d="m41.839844 373.285156.28125 1.527344c-.6875.152344-1.234375.417969-1.625.773438-.71875.671874-.96875 1.671874-.71875 3.046874.109375.578126.320312 1.148438.585937 1.613282.535157.925781 1.253907 1.292968 2.148438 1.148437.660156-.121093 1.109375-.375 1.316406-.839843.191406-.476563.34375-1.179688.386719-2.089844l.078125-1.714844c.058593-1.054688.171875-1.894531.414062-2.355469.375-.832031 1.0625-1.359375 2.101563-1.519531 1.121094-.210938 2.105468.042969 2.960937.6875.84375.578125 1.417969 1.605469 1.625 2.964844.253907 1.25.132813 2.371094-.359375 3.371094-.464844.992187-1.375 1.582031-2.765625 1.835937l-.265625-1.53125c.644532-.238281 1.121094-.464844 1.429688-.796875.558594-.59375.71875-1.476562.515625-2.683594-.164063-.984375-.515625-1.628906-1.019531-1.9375-.492188-.378906-1-.523437-1.535157-.4375-.613281.101563-1.019531.4375-1.207031.984375-.121094.363281-.210938 1.105469-.289062 2.273438l-.085938 1.769531c-.042969.839844-.167969 1.527344-.449219 2.003906-.449219.863282-1.191406 1.40625-2.300781 1.578125-1.386719.238281-2.457031-.085937-3.21875-.96875-.78125-.882812-1.273438-1.925781-1.511719-3.21875-.265625-1.542969-.074219-2.75.542969-3.703125.621094-.984375 1.621094-1.570312 2.964844-1.757812zm0 0" fill="#012a87"/><path d="m41.066406 389.390625 12.015625-3.613281 2.792969 8.464844-1.460938.464843-2.289062-6.953125-3.660156 1.097656 2.121094 6.417969-1.402344.449219-2.089844-6.433594-4.074219 1.210938 2.328125 7.101562-1.429687.421875zm0 0" fill="#012a87"/><path d="m46.390625 404.058594 11.046875-5.859375 1.175781 2.054687-7.59375 8.042969 11.105469-1.910156 1.132812 2.046875-11.015624 5.839844-.789063-1.359376 6.511719-3.4375c.238281-.128906.59375-.328124 1.128906-.609374.511719-.238282 1.089844-.554688 1.675781-.851563l-11.042969 1.878906-.8125-1.429687 7.539063-8.015625-.355469.179687c-.238281.152344-.644531.339844-1.195312.65625-.554688.34375-.953125.550782-1.226563.660156l-6.492187 3.472657-.792969-1.375zm0 0" fill="#012a87"/><path d="m66.976562 420.328125c-.546874-.117187-1.089843-.449219-1.625-1l-2.347656-2.398437 3.148438-2.882813 2.34375 2.402344c.464844.449219.753906.882812.910156 1.253906.210938.714844 0 1.371094-.671875 1.980469-.589844.558594-1.191406.78125-1.757813.644531zm-8.882812 1.121094 3.871094-3.539063 2.726562 2.777344c.882813.890625 1.78125 1.3125 2.71875 1.28125.972656-.042969 1.789063-.402344 2.527344-1.085938.816406-.738281 1.207031-1.582031 1.207031-2.507812-.015625-.882812-.421875-1.714844-1.179687-2.511719l-3.929688-4-9.132812 8.390625 1.175781 1.195313zm0 0" fill="#012a87"/><path d="m69.125 431.25 6.625-10.367188 7.828125 4.761719-.808594 1.238281-6.429687-3.863281-2.003906 3.144531 5.921874 3.582032-.773437 1.191406-5.910156-3.566406-2.253907 3.523437 6.507813 3.90625-.773437 1.230469zm0 0" fill="#012a87"/><path d="m88.722656 429.253906 3.984375 1.265625c.574219.164063.972657.390625 1.257813.628907.507812.476562.640625 1.179687.34375 2.011718-.253906.714844-.628906 1.195313-1.210938 1.402344-.503906.09375-1.164062.09375-1.921875-.144531l-3.761719-1.207031zm-3.429687 10.207032 1.65625-4.957032 3.71875 1.210938c.652343.164062 1.128906.402344 1.367187.65625.464844.40625.601563 1.015625.363282 1.757812l-.550782 1.976563c-.125.492187-.179687.800781-.238281.953125 0 .144531 0 .3125.027344.417968l1.953125.636719.109375-.28125c-.210938-.164062-.316407-.460937-.316407-.832031.042969-.222656.105469-.585938.238282-1.019531l.476562-1.5625c.179688-.703125.253906-1.207031.09375-1.582031-.152344-.40625-.390625-.746094-.808594-1.09375.628907-.101563 1.148438-.296876 1.613282-.621094.433594-.375.789062-.898438.996094-1.628906.449218-1.316407.210937-2.417969-.773438-3.253907-.492188-.433593-1.195312-.804687-2.105469-1.152343l-5.570312-1.714844-3.875 11.582031zm0 0" fill="#012a87"/><path d="m102.179688 228.660156c1.429687-3.457031 14.726562-12.890625 58.390624-8.761718 0 0 7.371094 4.507812 11.695313 3.929687 2.480469-.328125-1.445313.152344-4.664063-2.539063-3.300781-2.667968-4-8.160156 3.519532-8.03125 7.472656.199219 35.460937 1.78125 36.003906 4.296876.492188 2.542968-14.804688 3.605468-20.5 3.46875-5.714844-.167969-5.042969 2.730468.644531 2.507812 17.765625-.628906 37.164063-6.894531 57.660157 7.597656 2.4375 1.757813-6.179688 2.039063-12.847657-.796875 0 0-18.078125.941407-25.882812-.339843 0 0-6.019531 4.882812-13.839844 4.402343 1.015625 2.535157-2.878906 11.996094-27.480469 4.878907-4.058594 1.25-18.863281 3.730468-17.25-.671876-3.902344 0-10.734375 1.253907-11.75-.957031-.984375-2.191406 12.03125-5.492187 14.316406-7.847656 0 0-27.523437.265625-32.730468-1.628906 0 0-16.25 3.648437-15.285156.476562zm0 0" fill="#bc715f"/><path d="m110.996094 267.195312c.585937-.789062.824218-2.222656 2.074218-2.191406 2.726563.730469 4.578126 5.714844 7.945313 2.472656 1.175781-.253906 1.640625 1.359376 2.625 1.554688.621094 2.765625 2.851563-.5625 4.503906-.375 3.554688-1.578125 7.960938-1.953125 12.171875-1.179688.113282 2.71875-2.003906 5.722657-4.675781 7.269532.042969 2.734375 2.539063 4.476562 2.488281 7.242187-.425781 1.027344-.070312 2.640625-1.628906 2.964844-1.964844-.339844-3.917969-.550781-5.546875-1.65625-.207031-.195313-.375-.59375-.796875-.464844-.1875.914063 1.246094 1.824219 1.808594 2.765625-.996094 1.6875-2.640625.152344-4.011719.164063-.421875.972656-.015625 2.195312-1.015625 2.824219-1.75-.050782-2.105469-1.960938-3.183594-2.902344-1.082031 1.195312.78125 1.894531 1.050782 2.851562-.671876 3.566406-.585938 7.074219-4.164063 9.417969l-2.402344 1.191406c-.660156-1.800781-.238281-4.535156-.6875-6.414062-1.417969 2.3125-2.527343 4.324219-4.601562 6.285156-2.429688-.796875-3.847657-3.675781-4.382813-6.046875-1.023437-2.777344-.433594-6.089844 1.742188-8.101562-.746094-1.445313-3.300782-1.121094-3.652344-3.183594-3.828125-2.488282-5.945312 4.363281-8.421875.796875-.796875-3.328125.160156-7.464844 2.570313-9.941407-.542969-1.359374-2.316407-.996093-3.378907-1.792968-2.402343-2.039063-5.882812-4.195313-5.703125-7.890625 6.585938-2.480469 14.46875-.660157 19.257813 4.339843zm0 0" fill="#008830"/><path d="m114.417969 266.824219c-.167969 3.011719 2.023437.820312 3.652343 2.65625-1.265624-.507813-2.191406 2.191406-3.449218.644531l-.773438.746094c.445313 1.039062 1.34375 1.175781.417969 2.308594-1.359375.527343-1.644531-1.195313-2.269531-1.859376-.101563-.304687.207031-.871093-.300782-1.066406-.757812.660156-1.582031.898438-2.636718.773438-.285156-.578125-.855469-1.335938-.285156-1.785156 1.042968-1.402344 2.671874.507812 3.457031-.476563.125-.871094-.632813-1.941406.347656-2.539063.6875.121094 1.566406-.253906 1.839844.597657zm0 0" fill="#f9d90f"/><path d="m122.5625 269.300781c.082031.585938-.296875 1.402344.464844 1.804688.980468-.539063 2.042968-.121094 2.609375.847656 0 .542969.167969 1.226563-.535157 1.484375l-1.539062-.289062c.105469-.3125-.382812-.492188-.582031-.789063-.671875-.210937-1.078125.339844-1.582031.6875.375.578125 1.273437.898437 1.0625 1.640625-.910157.914062-1.359376-.773438-2.359376-.359375-.6875-.253906.238282-1.671875-.839843-2.105469-1.261719 0-.417969 2.089844-2.046875 1.273438-.578125-.660156-1.140625-1.542969-.519532-2.273438.671876-.445312 1.839844-.339844 2.402344.253906 1.003906-1.097656 1.105469-5.335937 3.464844-2.175781zm0 0" fill="#f9d90f"/><path d="m112.414062 273.675781c.65625.957031-.152343 2.25.699219 3.328125 1.332031-2.496094 2.597657.519532 4.183594.296875.488281.578125.167969 1.402344.253906 2.074219-1.941406.523438-4.300781 1.128906-6.035156-.433594l-.476563.566406c1.035157.953126 2.003907 2.03125 1.179688 3.632813-1.460938.308594-3.734375.351563-4.464844-1.152344-.367187-1.257812.898438-2.148437-.449218-3.15625-.96875 1.210938-.925782 2.824219-2.949219 1.738281-1.257813-.6875-1.628907-2.121093-1-3.3125 1.3125-2.078124 3.597656.058594 5.015625-.957031.195312-1.765625-.449219-3.3125 1.164062-4.300781 1.402344-.242188 2.046875.808594 2.878906 1.675781zm0 0" fill="#f9d90f"/><path d="m117.953125 274.761719c-.65625 3.015625-2.929687-.167969-3.984375-.28125 1.417969-2.527344 2.308594.816406 3.984375.28125zm0 0" fill="#fff"/><path d="m125.03125 278.046875c-1.585938.433594-1.332031-1.535156-2.105469-2.300781l.589844-.566406c.589844.703124 1.019531 1.941406 1.515625 2.867187zm0 0" fill="#fff"/><path d="m122.894531 277.429688c.441407 1.050781-1.035156 1.882812.238281 2.664062.382813-.347656.875-.8125 1.085938-1.007812 1.09375.335937 2.34375.515624 3.089844 1.585937.808594 2.226563-1.433594 2.160156-2.699219 2.777344l-1.273437-.042969c.304687-.628906-.535157-.882812-.746094-1.316406-.578125-.152344-1.070313.027344-1.402344.519531.289062 1.417969 2.003906 2.511719.238281 3.761719-1.503906-.085938-3.832031.492187-3.679687-1.578125-.574219-1.179688 1.515625-2.984375-.71875-3.058594-.730469 1.578125-1.539063 3.101563-3.464844 1.605469l.238281-2.25c1.839844.058594 4 .371094 4.839844-1.667969.523437-1.492187-.925781-2.867187.371094-4.046875 1.863281-.433594 2.929687.820312 3.882812 2.054688zm0 0" fill="#f9d90f"/><path d="m121.550781 280.824219c.460938 1.113281-.8125 1.191406-1.40625 1.742187-.808593.074219-1.371093-.253906-1.863281-.789062-.363281-1.359375.644531-1.496094 1.417969-2.03125.894531-.371094 1.265625.671875 1.851562 1.078125zm0 0"/><path d="m120.441406 281.554688c-.191406.265624-.476562.179687-.773437.253906l-.28125-1.347656c.59375.042968 1.375.238281 1.054687 1.09375zm0 0" fill="#fff"/></g></svg>