<svg viewBox="0 0 1000 502" xmlns="http://www.w3.org/2000/svg" xmlns:xlink="http://www.w3.org/1999/xlink"><clipPath id="a"><path d="m0 1h1000v500.601562h-1000zm0 0"/></clipPath><g clip-path="url(#a)"><path d="m.0507812 1.757812h998.9570308v499.480469h-998.9570308zm0 0" fill="#ed1c24" fill-rule="evenodd"/></g><g fill-rule="evenodd"><path d="m.0507812 1.757812h998.9570308v332.984376h-998.9570308zm0 0" fill="#005da4"/><path d="m.0507812 1.757812h998.9570308v166.492188h-998.9570308zm0 0" fill="#fff"/><path d="m309.164062 176.941406 5.242188-77.402344c-20.113281-9.53125-42.355469-14.535156-64.613281-14.535156-22.257813 0-44.503907 5.003906-64.617188 14.535156l5.242188 77.402344c1.144531 16.859375 7.53125 33.324219 18.054687 46.542969 10.53125 13.214844 25.148438 23.125 41.320313 28.007813 16.171875-4.882813 30.789062-14.792969 41.3125-28.007813 10.527343-13.21875 16.914062-29.683594 18.058593-46.542969zm0 0" fill="#005da4"/><path d="m201.328125 187.433594c2.746094 12.363281 8.714844 24 17.152344 33.449218 8.4375 9.449219 19.332031 16.6875 31.3125 20.808594 11.976562-4.121094 22.867187-11.359375 31.308593-20.808594 8.4375-9.449218 14.402344-21.085937 17.152344-33.449218l-24.230468-32.3125-9.695313 12.925781-14.535156-29.078125-14.539063 29.078125-9.695312-12.925781zm0 0" fill="#fff"/><path d="m203.496094 195.511719c4.226562 7.324219 14.742187 10.140625 22.066406 5.90625 4.882812-2.816407 11.269531-2.816407 16.152344 0 4.882812 2.824219 11.273437 2.824219 16.152344 0 4.882812-2.816407 11.273437-2.816407 16.15625 0 7.324218 4.234375 17.835937 1.417969 22.066406-5.90625v4.660156c-4.230469 7.324219-14.742188 10.140625-22.066406 5.914063-4.882813-2.820313-11.273438-2.820313-16.15625 0-4.878907 2.816406-11.269532 2.816406-16.152344 0-4.882813-2.820313-11.269532-2.820313-16.152344 0-7.324219 4.226562-17.839844 1.410156-22.066406-5.914063zm0 0" fill="#005da4"/><path d="m203.496094 204.832031c4.226562 7.328125 14.742187 10.144531 22.066406 5.917969 4.882812-2.824219 11.269531-2.824219 16.152344 0 4.882812 2.820312 11.273437 2.820312 16.152344 0 4.882812-2.824219 11.273437-2.824219 16.15625 0 7.324218 4.226562 17.835937 1.410156 22.066406-5.917969v4.664063c-4.230469 7.328125-14.742188 10.144531-22.066406 5.914062-4.882813-2.816406-11.273438-2.816406-16.15625 0-4.878907 2.820313-11.269532 2.820313-16.152344 0-4.882813-2.816406-11.269532-2.816406-16.152344 0-7.324219 4.230469-17.839844 1.414063-22.066406-5.914062zm0 0" fill="#005da4"/><path d="m249.792969 116.757812 1.210937 3.960938 4.03125-.933594-2.820312 3.03125 2.820312 3.027344-4.03125-.929688-1.210937 3.957032-1.210938-3.957032-4.035156.929688 2.824219-3.027344-2.824219-3.03125 4.035156.933594zm0 0" fill="#fd0"/><path d="m231.621094 92.527344 1.210937 3.960937 4.03125-.929687-2.820312 3.027344 2.820312 3.027343-4.03125-.929687-1.210937 3.957031-1.214844-3.957031-4.035156.929687 2.824218-3.027343-2.824218-3.027344 4.035156.929687zm0 0" fill="#fd0"/><path d="m267.964844 92.527344 1.214844 3.960937 4.03125-.929687-2.820313 3.027344 2.820313 3.027343-4.03125-.929687-1.214844 3.957031-1.210938-3.957031-4.035156.929687 2.820312-3.027343-2.820312-3.027344 4.035156.929687zm0 0" fill="#fd0"/><path d="m189.710938 97.480469 5.363281 79.148437c1.0625 15.683594 6.929687 31.011719 16.613281 43.390625 9.679688 12.382813 23.140625 21.769531 38.105469 26.585938 14.960937-4.816407 28.421875-14.203125 38.101562-26.585938 9.683594-12.378906 15.554688-27.707031 16.613281-43.390625l5.367188-79.148437c1.5.710937 3.011719 1.398437 4.53125 2.054687l-5.242188 77.40625c-1.144531 16.855469-7.53125 33.324219-18.058593 46.539063-10.523438 13.21875-25.140625 23.128906-41.3125 28.011719-16.171875-4.882813-30.789063-14.792969-41.320313-28.011719-10.523437-13.214844-16.910156-29.683594-18.054687-46.539063l-5.242188-77.40625c1.523438-.65625 3.035157-1.34375 4.535157-2.054687zm0 0" fill="#ed1c24"/></g></svg>