<?xml version="1.0" encoding="UTF-8"?>
<svg xmlns="http://www.w3.org/2000/svg" xmlns:xlink="http://www.w3.org/1999/xlink" width="128pt" height="64pt" viewBox="0 0 128 64" version="1.1">
<g id="surface1012">
<path style=" stroke:none;fill-rule:evenodd;fill:rgb(92.939758%,10.980225%,14.117432%);fill-opacity:1;" d="M 0.0078125 0.226562 L 127.875 0.226562 L 127.875 64.160156 L 0.0078125 64.160156 Z M 0.0078125 0.226562 "/>
<path style=" stroke:none;fill-rule:evenodd;fill:rgb(0%,36.470032%,64.312744%);fill-opacity:1;" d="M 0.0078125 0.226562 L 127.875 0.226562 L 127.875 42.847656 L 0.0078125 42.847656 Z M 0.0078125 0.226562 "/>
<path style=" stroke:none;fill-rule:evenodd;fill:rgb(99.998474%,99.998474%,99.998474%);fill-opacity:1;" d="M 0.0078125 0.226562 L 127.875 0.226562 L 127.875 21.535156 L 0.0078125 21.535156 Z M 0.0078125 0.226562 "/>
<path style=" stroke:none;fill-rule:evenodd;fill:rgb(0%,36.470032%,64.312744%);fill-opacity:1;" d="M 39.574219 22.648438 L 40.242188 12.742188 C 37.667969 11.519531 34.824219 10.878906 31.972656 10.878906 C 29.125 10.878906 26.277344 11.519531 23.703125 12.742188 L 24.375 22.648438 C 24.519531 24.808594 25.335938 26.914062 26.683594 28.605469 C 28.03125 30.296875 29.902344 31.566406 31.972656 32.191406 C 34.042969 31.566406 35.914062 30.296875 37.261719 28.605469 C 38.609375 26.914062 39.425781 24.808594 39.574219 22.648438 Z M 39.574219 22.648438 "/>
<path style=" stroke:none;fill-rule:evenodd;fill:rgb(99.998474%,99.998474%,99.998474%);fill-opacity:1;" d="M 25.769531 23.992188 C 26.121094 25.574219 26.886719 27.0625 27.964844 28.273438 C 29.046875 29.484375 30.441406 30.410156 31.972656 30.9375 C 33.507812 30.410156 34.902344 29.484375 35.980469 28.273438 C 37.0625 27.0625 37.824219 25.574219 38.175781 23.992188 L 35.074219 19.855469 L 33.835938 21.511719 L 31.972656 17.789062 L 30.113281 21.511719 L 28.871094 19.855469 Z M 25.769531 23.992188 "/>
<path style=" stroke:none;fill-rule:evenodd;fill:rgb(0%,36.470032%,64.312744%);fill-opacity:1;" d="M 26.046875 25.023438 C 26.589844 25.960938 27.933594 26.324219 28.871094 25.78125 C 29.496094 25.421875 30.3125 25.421875 30.941406 25.78125 C 31.566406 26.144531 32.382812 26.144531 33.007812 25.78125 C 33.632812 25.421875 34.449219 25.421875 35.074219 25.78125 C 36.011719 26.324219 37.359375 25.960938 37.898438 25.023438 L 37.898438 25.621094 C 37.359375 26.558594 36.011719 26.921875 35.074219 26.378906 C 34.449219 26.019531 33.632812 26.019531 33.007812 26.378906 C 32.382812 26.738281 31.566406 26.738281 30.941406 26.378906 C 30.3125 26.019531 29.496094 26.019531 28.871094 26.378906 C 27.933594 26.921875 26.589844 26.558594 26.046875 25.621094 Z M 26.046875 25.023438 "/>
<path style=" stroke:none;fill-rule:evenodd;fill:rgb(0%,36.470032%,64.312744%);fill-opacity:1;" d="M 26.046875 26.21875 C 26.589844 27.15625 27.933594 27.515625 28.871094 26.976562 C 29.496094 26.613281 30.3125 26.613281 30.941406 26.976562 C 31.566406 27.335938 32.382812 27.335938 33.007812 26.976562 C 33.632812 26.613281 34.449219 26.613281 35.074219 26.976562 C 36.011719 27.515625 37.359375 27.15625 37.898438 26.21875 L 37.898438 26.816406 C 37.359375 27.753906 36.011719 28.113281 35.074219 27.574219 C 34.449219 27.210938 33.632812 27.210938 33.007812 27.574219 C 32.382812 27.933594 31.566406 27.933594 30.941406 27.574219 C 30.3125 27.210938 29.496094 27.210938 28.871094 27.574219 C 27.933594 28.113281 26.589844 27.753906 26.046875 26.816406 Z M 26.046875 26.21875 "/>
<path style=" stroke:none;fill-rule:evenodd;fill:rgb(99.998474%,86.665344%,0%);fill-opacity:1;" d="M 31.972656 14.945312 L 32.128906 15.453125 L 32.644531 15.332031 L 32.285156 15.71875 L 32.644531 16.109375 L 32.128906 15.988281 L 31.972656 16.496094 L 31.820312 15.988281 L 31.300781 16.109375 L 31.664062 15.71875 L 31.300781 15.332031 L 31.820312 15.453125 Z M 31.972656 14.945312 "/>
<path style=" stroke:none;fill-rule:evenodd;fill:rgb(99.998474%,86.665344%,0%);fill-opacity:1;" d="M 29.648438 11.84375 L 29.800781 12.351562 L 30.320312 12.230469 L 29.957031 12.617188 L 30.320312 13.007812 L 29.800781 12.886719 L 29.648438 13.394531 L 29.492188 12.886719 L 28.976562 13.007812 L 29.335938 12.617188 L 28.976562 12.230469 L 29.492188 12.351562 Z M 29.648438 11.84375 "/>
<path style=" stroke:none;fill-rule:evenodd;fill:rgb(99.998474%,86.665344%,0%);fill-opacity:1;" d="M 34.300781 11.84375 L 34.453125 12.351562 L 34.972656 12.230469 L 34.609375 12.617188 L 34.972656 13.007812 L 34.453125 12.886719 L 34.300781 13.394531 L 34.144531 12.886719 L 33.628906 13.007812 L 33.988281 12.617188 L 33.628906 12.230469 L 34.144531 12.351562 Z M 34.300781 11.84375 "/>
<path style=" stroke:none;fill-rule:evenodd;fill:rgb(92.939758%,10.980225%,14.117432%);fill-opacity:1;" d="M 24.28125 12.476562 L 24.96875 22.609375 C 25.105469 24.617188 25.855469 26.578125 27.097656 28.164062 C 28.335938 29.746094 30.058594 30.949219 31.972656 31.566406 C 33.890625 30.949219 35.609375 29.746094 36.851562 28.164062 C 38.089844 26.578125 38.839844 24.617188 38.976562 22.609375 L 39.664062 12.476562 C 39.855469 12.570312 40.050781 12.65625 40.242188 12.742188 L 39.574219 22.648438 C 39.425781 24.804688 38.609375 26.914062 37.261719 28.605469 C 35.914062 30.296875 34.042969 31.566406 31.972656 32.191406 C 29.902344 31.566406 28.03125 30.296875 26.683594 28.605469 C 25.335938 26.914062 24.519531 24.804688 24.375 22.648438 L 23.703125 12.742188 C 23.898438 12.65625 24.089844 12.570312 24.28125 12.476562 Z M 24.28125 12.476562 "/>
</g>
</svg>
