<?xml version="1.0" encoding="UTF-8"?>
<svg xmlns="http://www.w3.org/2000/svg" xmlns:xlink="http://www.w3.org/1999/xlink" width="128pt" height="85pt" viewBox="0 0 128 85" version="1.1">
<defs>
<clipPath id="clip1">
  <path d="M 0 0 L 127.679688 0 L 127.679688 85 L 0 85 Z M 0 0 "/>
</clipPath>
<clipPath id="clip2">
  <path d="M 0 0 L 127.679688 0 L 127.679688 57 L 0 57 Z M 0 0 "/>
</clipPath>
<clipPath id="clip3">
  <path d="M 0 0 L 127.679688 0 L 127.679688 29 L 0 29 Z M 0 0 "/>
</clipPath>
</defs>
<g id="surface1007">
<g clip-path="url(#clip1)" clip-rule="nonzero">
<path style=" stroke:none;fill-rule:evenodd;fill:rgb(93.331909%,10.980225%,14.509583%);fill-opacity:1;" d="M 0 85 L 0 0 L 127.5 0 L 127.5 85 Z M 0 85 "/>
</g>
<g clip-path="url(#clip2)" clip-rule="nonzero">
<path style=" stroke:none;fill-rule:evenodd;fill:rgb(4.31366%,30.587769%,63.528442%);fill-opacity:1;" d="M 0 0 L 127.5 0 L 127.5 56.667969 L 0 56.667969 Z M 0 0 "/>
</g>
<g clip-path="url(#clip3)" clip-rule="nonzero">
<path style=" stroke:none;fill-rule:evenodd;fill:rgb(99.998474%,99.998474%,99.998474%);fill-opacity:1;" d="M 0 0 L 127.5 0 L 127.5 28.332031 L 0 28.332031 Z M 0 0 "/>
</g>
<path style=" stroke:none;fill-rule:evenodd;fill:rgb(93.331909%,10.980225%,14.509583%);fill-opacity:1;" d="M 44.804688 63.75 C 37.8125 60.382812 27.816406 53.699219 27.816406 40.480469 C 27.816406 27.261719 28.445312 21.25 28.445312 21.25 L 61.160156 21.25 C 61.160156 21.25 61.792969 27.261719 61.792969 40.480469 C 61.792969 53.699219 51.792969 60.382812 44.804688 63.75 Z M 44.804688 63.75 "/>
<path style=" stroke:none;fill-rule:evenodd;fill:rgb(99.998474%,99.998474%,99.998474%);fill-opacity:1;" d="M 46.296875 37.015625 C 48.191406 37.046875 51.882812 37.121094 55.171875 36.019531 C 55.171875 36.019531 55.082031 37.195312 55.082031 38.566406 C 55.082031 39.9375 55.171875 41.113281 55.171875 41.113281 C 52.15625 40.105469 48.429688 40.085938 46.296875 40.113281 L 46.296875 47.414062 L 43.308594 47.414062 L 43.308594 40.113281 C 41.175781 40.085938 37.449219 40.105469 34.433594 41.113281 C 34.433594 41.113281 34.523438 39.9375 34.523438 38.566406 C 34.523438 37.195312 34.433594 36.019531 34.433594 36.019531 C 37.722656 37.121094 41.414062 37.046875 43.308594 37.015625 L 43.308594 32.429688 C 41.582031 32.414062 39.097656 32.496094 36.285156 33.4375 C 36.285156 33.4375 36.375 32.261719 36.375 30.890625 C 36.375 29.519531 36.285156 28.34375 36.285156 28.34375 C 39.09375 29.28125 41.574219 29.367188 43.300781 29.351562 C 43.210938 26.445312 42.367188 22.785156 42.367188 22.785156 C 42.367188 22.785156 44.105469 22.921875 44.804688 22.921875 C 45.5 22.921875 47.238281 22.785156 47.238281 22.785156 C 47.238281 22.785156 46.394531 26.445312 46.304688 29.351562 C 48.03125 29.367188 50.511719 29.28125 53.320312 28.34375 C 53.320312 28.34375 53.230469 29.519531 53.230469 30.890625 C 53.230469 32.261719 53.320312 33.4375 53.320312 33.4375 C 50.507812 32.496094 48.023438 32.414062 46.296875 32.429688 Z M 46.296875 37.015625 "/>
<path style=" stroke:none;fill-rule:evenodd;fill:rgb(4.31366%,30.587769%,63.528442%);fill-opacity:1;" d="M 44.613281 64.355469 L 30.011719 55.175781 C 30.011719 55.175781 31.863281 49.1875 35.476562 49.1875 C 38.347656 49.1875 39.398438 51.503906 39.398438 51.503906 C 39.398438 51.503906 41.28125 46.621094 44.804688 46.621094 C 48.324219 46.621094 50.207031 51.503906 50.207031 51.503906 C 50.207031 51.503906 51.257812 49.1875 54.128906 49.1875 C 57.742188 49.1875 59.59375 55.175781 59.59375 55.175781 Z M 44.613281 64.355469 "/>
<path style=" stroke:none;fill-rule:evenodd;fill:rgb(99.998474%,99.998474%,99.998474%);fill-opacity:1;" d="M 44.804688 65.664062 C 37.183594 61.992188 26.285156 54.707031 26.285156 40.300781 C 26.285156 25.890625 26.972656 19.335938 26.972656 19.335938 L 62.632812 19.335938 C 62.632812 19.335938 63.320312 25.890625 63.320312 40.300781 C 63.320312 54.707031 52.421875 61.992188 44.804688 65.664062 Z M 44.804688 63.75 C 37.8125 60.382812 27.816406 53.699219 27.816406 40.480469 C 27.816406 27.261719 28.445312 21.25 28.445312 21.25 L 61.160156 21.25 C 61.160156 21.25 61.792969 27.261719 61.792969 40.480469 C 61.792969 53.699219 51.792969 60.382812 44.804688 63.75 Z M 44.804688 63.75 "/>
</g>
</svg>
