<svg viewBox="0 0 1000 500" xmlns="http://www.w3.org/2000/svg"><path d="m0 0h1000v500h-1000z" fill="#215b33"/><path d="m0 500v-500h1000zm0 0" fill="#0051ba" fill-rule="evenodd"/><path d="m1000 0-1000 500zm0 0" fill-rule="evenodd"/><path d="m1000 0-1000 500" fill="none" stroke="#fcd116" stroke-width="45"/><g fill="#fff" fill-rule="evenodd"><path d="m175 100-15.449219 47.554688 23.773438 7.722656zm0 0"/><path d="m175 100 15.449219 47.554688-23.773438 7.722656zm0 0"/><path d="m222.554688 134.550781h-50v25zm0 0"/><path d="m222.554688 134.550781-40.453126 29.390625-14.695312-20.226562zm0 0"/><path d="m127.445312 134.550781 40.453126 29.390625 14.695312-20.226562zm0 0"/><path d="m127.445312 134.550781h50v25zm0 0"/><path d="m204.390625 190.449219-15.449219-47.550781-23.78125 7.722656zm0 0"/><path d="m204.390625 190.449219-40.449219-29.390625 14.691406-20.222656zm0 0"/><path d="m145.609375 190.449219 40.449219-29.390625-14.691406-20.222656zm0 0"/><path d="m145.609375 190.449219 15.449219-47.550781 23.78125 7.722656zm0 0"/><path d="m273.707031 15.402344-15.449219 47.550781 23.773438 7.726563zm0 0"/><path d="m273.707031 15.402344 15.449219 47.550781-23.773438 7.726563zm0 0"/><path d="m321.257812 49.945312h-50v25zm0 0"/><path d="m321.257812 49.945312-40.453124 29.390626-14.691407-20.226563zm0 0"/><path d="m226.152344 49.945312 40.449218 29.390626 14.699219-20.226563zm0 0"/><path d="m226.152344 49.945312h50v25zm0 0"/><path d="m303.097656 105.851562-15.453125-47.554687-23.777343 7.726563zm0 0"/><path d="m303.097656 105.851562-40.453125-29.390624 14.695313-20.226563zm0 0"/><path d="m244.316406 105.851562 40.449219-29.390624-14.691406-20.226563zm0 0"/><path d="m244.316406 105.851562 15.449219-47.554687 23.777344 7.726563zm0 0"/><path d="m273.707031 184.597656-15.449219 47.554688 23.773438 7.726562zm0 0"/><path d="m273.707031 184.597656 15.449219 47.554688-23.773438 7.726562zm0 0"/><path d="m321.257812 219.148438h-50v25zm0 0"/><path d="m321.257812 219.148438-40.453124 29.390624-14.691407-20.226562zm0 0"/><path d="m226.152344 219.148438 40.449218 29.390624 14.699219-20.226562zm0 0"/><path d="m226.152344 219.148438h50v25zm0 0"/><path d="m303.097656 275.054688-15.453125-47.558594-23.777343 7.730468zm0 0"/><path d="m303.097656 275.054688-40.453125-29.390626 14.695313-20.230468zm0 0"/><path d="m244.316406 275.054688 40.449219-29.390626-14.691406-20.230468zm0 0"/><path d="m244.316406 275.054688 15.449219-47.558594 23.777344 7.730468zm0 0"/><path d="m76.292969 184.597656-15.449219 47.554688 23.773438 7.726562zm0 0"/><path d="m76.292969 184.597656 15.449219 47.554688-23.773438 7.726562zm0 0"/><path d="m123.847656 219.148438h-50v25zm0 0"/><path d="m123.847656 219.148438-40.449218 29.390624-14.699219-20.226562zm0 0"/><path d="m28.742188 219.148438 40.453124 29.390624 14.691407-20.226562zm0 0"/><path d="m28.742188 219.148438h50v25zm0 0"/><path d="m105.683594 275.054688-15.449219-47.558594-23.777344 7.730468zm0 0"/><path d="m105.683594 275.054688-40.449219-29.390626 14.691406-20.230468zm0 0"/><path d="m46.902344 275.054688 40.453125-29.390626-14.695313-20.230468zm0 0"/><path d="m46.902344 275.054688 15.453125-47.558594 23.777343 7.730468zm0 0"/><path d="m76.292969 15.402344-15.449219 47.550781 23.773438 7.726563zm0 0"/><path d="m76.292969 15.402344 15.449219 47.550781-23.773438 7.726563zm0 0"/><path d="m123.847656 49.945312h-50v25zm0 0"/><path d="m123.847656 49.945312-40.449218 29.390626-14.699219-20.226563zm0 0"/><path d="m28.742188 49.945312 40.453124 29.390626 14.691407-20.226563zm0 0"/><path d="m28.742188 49.945312h50v25zm0 0"/><path d="m105.683594 105.851562-15.449219-47.554687-23.777344 7.726563zm0 0"/><path d="m105.683594 105.851562-40.449219-29.390624 14.691406-20.226563zm0 0"/><path d="m46.902344 105.851562 40.453125-29.390624-14.695313-20.226563zm0 0"/><path d="m46.902344 105.851562 15.453125-47.554687 23.777343 7.726563zm0 0"/></g></svg>