<?xml version="1.0" encoding="UTF-8"?>
<svg xmlns="http://www.w3.org/2000/svg" xmlns:xlink="http://www.w3.org/1999/xlink" width="128pt" height="64pt" viewBox="0 0 128 64" version="1.1">
<g id="surface1037">
<path style=" stroke:none;fill-rule:evenodd;fill:rgb(2.745056%,53.72467%,18.823242%);fill-opacity:1;" d="M 0 44.800781 L 128 44.800781 L 128 64 L 0 64 Z M 0 44.800781 "/>
<path style=" stroke:none;fill-rule:evenodd;fill:rgb(99.998474%,99.998474%,99.998474%);fill-opacity:1;" d="M 0 19.199219 L 128 19.199219 L 128 44.800781 L 0 44.800781 Z M 0 19.199219 "/>
<path style=" stroke:none;fill-rule:evenodd;fill:rgb(0%,0%,0%);fill-opacity:1;" d="M 0 0 L 128 0 L 128 19.199219 L 0 19.199219 Z M 0 0 "/>
<path style=" stroke:none;fill-rule:evenodd;fill:rgb(85.488892%,7.058716%,10.195923%);fill-opacity:1;" d="M 0 22.398438 L 128 22.398438 L 128 41.601562 L 0 41.601562 Z M 0 22.398438 "/>
<path style=" stroke:none;fill-rule:evenodd;fill:rgb(5.882263%,27.842712%,68.626404%);fill-opacity:1;" d="M 0 0 L 55.425781 32 L 0 64 Z M 0 0 "/>
<path style="fill-rule:nonzero;fill:rgb(98.822021%,86.665344%,3.529358%);fill-opacity:1;stroke-width:1;stroke-linecap:square;stroke-linejoin:miter;stroke:rgb(98.822021%,86.665344%,3.529358%);stroke-opacity:1;stroke-miterlimit:3.239307;" d="M 15.3125 34.300781 L 15.3125 41.738281 L 19.683594 35.71875 L 26.757812 38.019531 L 22.386719 32 L 26.757812 25.980469 L 19.683594 28.28125 L 15.3125 22.261719 L 15.3125 29.699219 L 8.234375 32 Z M 15.3125 34.300781 "/>
</g>
</svg>
