<?xml version="1.0" encoding="UTF-8"?>
<svg xmlns="http://www.w3.org/2000/svg" xmlns:xlink="http://www.w3.org/1999/xlink" width="128pt" height="85pt" viewBox="0 0 128 85" version="1.1">
<defs>
<clipPath id="clip1">
  <path d="M 0 0 L 127.679688 0 L 127.679688 85 L 0 85 Z M 0 0 "/>
</clipPath>
</defs>
<g id="surface1032">
<g clip-path="url(#clip1)" clip-rule="nonzero">
<path style=" stroke:none;fill-rule:evenodd;fill:rgb(99.998474%,99.998474%,99.998474%);fill-opacity:1;" d="M 0 85 L 0 0 L 127.5 0 L 127.5 85 Z M 0 85 "/>
</g>
<path style=" stroke:none;fill-rule:evenodd;fill:rgb(0%,0%,0%);fill-opacity:1;" d="M 19.546875 25.800781 L 31.335938 8.121094 L 43.121094 15.976562 L 31.335938 33.660156 Z M 19.546875 25.800781 "/>
<path style=" stroke:none;fill-rule:evenodd;fill:rgb(99.998474%,99.998474%,99.998474%);fill-opacity:1;" d="M 21.511719 29.238281 L 35.265625 8.613281 L 36.738281 9.59375 L 22.984375 30.222656 Z M 21.511719 29.238281 "/>
<path style=" stroke:none;fill-rule:evenodd;fill:rgb(99.998474%,99.998474%,99.998474%);fill-opacity:1;" d="M 25.933594 32.1875 L 39.683594 11.558594 L 41.15625 12.539062 L 27.40625 33.167969 Z M 25.933594 32.1875 "/>
<path style=" stroke:none;fill-rule:evenodd;fill:rgb(0%,0%,0%);fill-opacity:1;" d="M 84.378906 69.023438 L 96.164062 51.339844 L 107.953125 59.199219 L 96.164062 76.878906 Z M 84.378906 69.023438 "/>
<path style=" stroke:none;fill-rule:evenodd;fill:rgb(99.998474%,99.998474%,99.998474%);fill-opacity:1;" d="M 86.34375 72.460938 L 100.09375 51.832031 L 101.566406 52.8125 L 87.816406 73.441406 Z M 86.34375 72.460938 "/>
<path style=" stroke:none;fill-rule:evenodd;fill:rgb(99.998474%,99.998474%,99.998474%);fill-opacity:1;" d="M 90.761719 75.40625 L 104.515625 54.777344 L 105.988281 55.761719 L 92.234375 76.386719 Z M 90.761719 75.40625 "/>
<path style=" stroke:none;fill-rule:evenodd;fill:rgb(99.998474%,99.998474%,99.998474%);fill-opacity:1;" d="M 88.308594 59.9375 L 89.289062 58.460938 L 104.023438 68.285156 L 103.042969 69.757812 Z M 88.308594 59.9375 "/>
<path style=" stroke:none;fill-rule:evenodd;fill:rgb(77.645874%,4.705811%,18.823242%);fill-opacity:1;" d="M 75.535156 24.820312 C 85.300781 31.328125 87.941406 44.523438 81.429688 54.285156 C 74.921875 64.050781 61.726562 66.691406 51.964844 60.179688 C 42.199219 53.671875 39.558594 40.476562 46.070312 30.714844 C 52.578125 20.949219 65.773438 18.308594 75.535156 24.820312 Z M 75.535156 24.820312 "/>
<path style=" stroke:none;fill-rule:evenodd;fill:rgb(0%,20.391846%,47.058105%);fill-opacity:1;" d="M 46.070312 30.714844 C 42.984375 35.339844 44.386719 42.359375 49.015625 45.445312 C 53.644531 48.53125 60.664062 47.128906 63.75 42.5 C 66.835938 37.871094 73.855469 36.46875 78.484375 39.554688 C 83.113281 42.640625 84.515625 49.660156 81.429688 54.285156 C 78.34375 58.917969 73.371094 62.246094 67.917969 63.335938 C 62.460938 64.429688 56.589844 63.265625 51.964844 60.179688 C 47.332031 57.09375 44.003906 52.121094 42.914062 46.667969 C 41.820312 41.210938 42.984375 35.339844 46.070312 30.714844 Z M 46.070312 30.714844 "/>
<path style=" stroke:none;fill-rule:evenodd;fill:rgb(0%,0%,0%);fill-opacity:1;" d="M 31.335938 76.878906 L 19.546875 59.199219 L 31.335938 51.339844 L 43.121094 69.023438 Z M 31.335938 76.878906 "/>
<path style=" stroke:none;fill-rule:evenodd;fill:rgb(99.998474%,99.998474%,99.998474%);fill-opacity:1;" d="M 35.265625 76.386719 L 21.511719 55.761719 L 22.984375 54.777344 L 36.738281 75.40625 Z M 35.265625 76.386719 "/>
<path style=" stroke:none;fill-rule:evenodd;fill:rgb(99.998474%,99.998474%,99.998474%);fill-opacity:1;" d="M 39.683594 73.441406 L 25.933594 52.8125 L 27.40625 51.832031 L 41.15625 72.460938 Z M 39.683594 73.441406 "/>
<path style=" stroke:none;fill-rule:evenodd;fill:rgb(0%,0%,0%);fill-opacity:1;" d="M 96.164062 33.660156 L 84.378906 15.976562 L 96.164062 8.121094 L 107.953125 25.800781 Z M 96.164062 33.660156 "/>
<path style=" stroke:none;fill-rule:evenodd;fill:rgb(99.998474%,99.998474%,99.998474%);fill-opacity:1;" d="M 100.09375 33.167969 L 86.34375 12.539062 L 87.816406 11.558594 L 101.566406 32.1875 Z M 100.09375 33.167969 "/>
<path style=" stroke:none;fill-rule:evenodd;fill:rgb(99.998474%,99.998474%,99.998474%);fill-opacity:1;" d="M 104.515625 30.222656 L 90.761719 9.59375 L 92.234375 8.613281 L 105.988281 29.238281 Z M 104.515625 30.222656 "/>
<path style=" stroke:none;fill-rule:evenodd;fill:rgb(99.998474%,99.998474%,99.998474%);fill-opacity:1;" d="M 89.289062 26.539062 L 88.308594 25.0625 L 103.042969 15.242188 L 104.023438 16.714844 Z M 89.289062 26.539062 "/>
<path style=" stroke:none;fill-rule:evenodd;fill:rgb(0%,0%,0%);fill-opacity:1;" d="M 95.675781 23.34375 L 93.710938 20.398438 L 96.65625 18.433594 L 98.621094 21.378906 Z M 95.675781 23.34375 "/>
<path style=" stroke:none;fill-rule:evenodd;fill:rgb(99.998474%,99.998474%,99.998474%);fill-opacity:1;" d="M 28.878906 66.8125 L 27.898438 65.339844 L 33.789062 61.410156 L 34.773438 62.882812 Z M 28.878906 66.8125 "/>
</g>
</svg>
