<svg viewBox="0 0 1000 667" xmlns="http://www.w3.org/2000/svg" xmlns:xlink="http://www.w3.org/1999/xlink"><clipPath id="a"><path d="m0 0h1000v666.71875h-1000zm0 0"/></clipPath><g clip-path="url(#a)"><path d="m0 666.667969v-666.667969h1000v666.667969zm0 0" fill="#fff" fill-rule="evenodd"/></g><g fill-rule="evenodd"><path d="m153.316406 202.359375 92.445313-138.671875 92.449219 61.632812-92.449219 138.675782zm0 0"/><path d="m168.722656 229.328125 107.855469-161.789063 11.554687 7.707032-107.855468 161.789062zm0 0" fill="#fff"/><path d="m203.390625 252.441406 107.855469-161.789062 11.558594 7.703125-107.859376 161.789062zm0 0" fill="#fff"/><path d="m661.789062 541.347656 92.449219-138.679687 92.445313 61.640625-92.445313 138.671875zm0 0"/><path d="m677.195312 568.3125 107.859376-161.792969 11.554687 7.707031-107.855469 161.789063zm0 0" fill="#fff"/><path d="m711.867188 591.421875 107.855468-161.789063 11.554688 7.703126-107.855469 161.789062zm0 0" fill="#fff"/><path d="m692.605469 470.085938 7.703125-11.558594 115.5625 77.039062-7.707032 11.558594zm0 0" fill="#fff"/><path d="m592.445312 194.65625c76.59375 51.0625 97.289063 154.539062 46.234376 231.125-51.066407 76.589844-154.542969 97.285156-231.125 46.230469-76.59375-51.066407-97.289063-154.542969-46.234376-231.125 51.066407-76.589844 154.542969-97.289063 231.125-46.230469zm0 0" fill="#c60c30"/><path d="m361.320312 240.886719c-24.199218 36.300781-13.1875 91.355469 23.121094 115.558593 36.300782 24.203126 91.355469 13.195313 115.558594-23.113281 24.203125-36.304687 79.257812-47.3125 115.558594-23.109375 36.308594 24.199219 47.320312 79.257813 23.121094 115.558594-24.210938 36.304688-63.207032 62.425781-105.992188 70.980469-42.789062 8.558593-88.835938-.550781-125.132812-24.75-36.308594-24.207031-62.425782-63.207031-70.984376-105.992188-8.558593-42.789062.550782-88.832031 24.75-125.132812zm0 0" fill="#003478"/><path d="m245.761719 602.980469-92.445313-138.671875 92.445313-61.640625 92.449219 138.679687zm0 0"/><path d="m276.578125 599.125-107.855469-161.789062 11.554688-7.703126 107.855468 161.789063zm0 0" fill="#fff"/><path d="m311.246094 576.015625-107.855469-161.789063 11.554687-7.707031 107.859376 161.792969zm0 0" fill="#fff"/><path d="m754.238281 263.996094-92.449219-138.675782 92.449219-61.632812 92.445313 138.671875zm0 0"/><path d="m785.054688 260.144531-107.859376-161.789062 11.558594-7.703125 107.855469 161.789062zm0 0" fill="#fff"/><path d="m819.722656 237.035156-107.855468-161.789062 11.554687-7.707032 107.855469 161.789063zm0 0" fill="#fff"/><path d="m700.308594 208.136719-7.703125-11.554688 115.558593-77.039062 7.707032 11.554687zm0 0" fill="#fff"/><path d="m750.382812 183.101562-15.40625-23.113281 23.113282-15.40625 15.40625 23.109375zm0 0"/><path d="m226.503906 524.011719-7.707031-11.554688 46.226563-30.816406 7.703124 11.554687zm0 0" fill="#fff"/></g></svg>