<svg viewBox="0 0 1000 667" xmlns="http://www.w3.org/2000/svg" xmlns:xlink="http://www.w3.org/1999/xlink"><clipPath id="a"><path d="m0 0h1000v666.71875h-1000zm0 0"/></clipPath><clipPath id="b"><path d="m0 0h1000v666.71875h-1000zm0 0"/></clipPath><clipPath id="c"><path d="m0 0h500v666.71875h-500zm0 0"/></clipPath><clipPath id="d"><path d="m0 0h1000v666.71875h-1000zm0 0"/></clipPath><g clip-path="url(#a)"><path d="m0 666.667969v-666.667969h1000v666.667969zm0 0" fill="#002395" fill-rule="evenodd"/></g><path d="m0 0v333.332031h1000v-333.332031zm0 0" fill="#de3831" fill-rule="evenodd"/><g clip-path="url(#b)"><path d="m0 0 500 333.332031-500 333.335938zm500 333.332031h500zm0 0" fill-rule="evenodd"/><path d="m0 0 500 333.332031-500 333.335938" fill="none" stroke="#fff" stroke-width="222.222222"/></g><path d="m500 333.332031h500" fill="none" stroke="#fff" stroke-width="222.222222"/><g clip-path="url(#c)"><path d="m0 0 500 333.332031-500 333.335938zm0 0" fill-rule="evenodd"/></g><g fill="none"><g clip-path="url(#d)"><path d="m0 0 500 333.332031-500 333.335938" stroke="#ffb612" stroke-width="222.222222"/><path d="m83.964844 0 500 333.332031-500 333.335938" stroke="#fff" stroke-linecap="square" stroke-width="130"/><path d="m0 0 500 333.332031-500 333.335938" stroke="#007a4d" stroke-width="133.333339"/></g><path d="m500 333.332031h500" stroke="#007a4d" stroke-width="133.333339"/></g></svg>