<svg viewBox="0 0 1000 500" xmlns="http://www.w3.org/2000/svg"><path d="m0 0h1000v500h-1000z" fill="#ffb700"/><path d="m179.167969 41.667969h137.5v416.664062h-137.5zm0 0" fill="#ff5b00" fill-rule="evenodd"/><path d="m41.667969 41.667969h137.5v416.664062h-137.5zm0 0" fill="#005641" fill-rule="evenodd"/><path d="m358.332031 41.667969h604.167969v416.664062h-604.167969zm0 0" fill="#8d2029" fill-rule="evenodd"/><path d="m905.054688 388.386719s5.664062 11.53125 11.921874 16.230469c9.273438 6.964843 28.285157 6.464843 36.355469 14.585937 9.671875 9.578125-.75 22.234375-.664062 23.335937l.535156 6.679688s-6.523437.082031-9.269531.507812c-4.125.644532-5.738282 4.003907-13.425782 3.503907-19.324218-1.253907-18.542968-18.664063-19.636718-33.539063-.96875-5.667968-3.210938-13.054687-4.492188-18.71875-1.09375-4.855468-1.324218-12.585937-1.324218-12.585937zm0 0" fill="#ffb700" fill-rule="evenodd" stroke="#000" stroke-width="1.771465"/><path d="m415.777344 111.613281s-5.660156-11.53125-11.921875-16.230469c-9.269531-6.964843-28.285157-6.464843-36.355469-14.585937-9.671875-9.578125.75-22.234375.664062-23.335937l-.53125-6.679688s6.519532-.082031 9.265626-.507812c4.128906-.644532 5.738281-4.003907 13.425781-3.503907 19.324219 1.253907 18.542969 18.664063 19.636719 33.539063.96875 5.667968 3.214843 13.054687 4.492187 18.71875 1.09375 4.855468 1.324219 12.585937 1.324219 12.585937zm0 0" fill="#ffb700" fill-rule="evenodd" stroke="#000" stroke-width="1.771465"/><path d="m905.054688 111.613281s5.664062-11.53125 11.921874-16.230469c9.273438-6.964843 28.285157-6.464843 36.355469-14.585937 9.671875-9.578125-.75-22.234375-.664062-23.335937l.535156-6.679688s-6.523437-.082031-9.269531-.507812c-4.125-.644532-5.738282-4.003907-13.425782-3.503907-19.324218 1.253907-18.542968 18.664063-19.636718 33.539063-.96875 5.667968-3.210938 13.054687-4.492188 18.71875-1.09375 4.855468-1.324218 12.585937-1.324218 12.585937zm0 0" fill="#ffb700" fill-rule="evenodd" stroke="#000" stroke-width="1.771465"/><path d="m415.777344 388.386719s-5.660156 11.53125-11.921875 16.230469c-9.269531 6.964843-28.285157 6.464843-36.355469 14.585937-9.671875 9.578125.75 22.234375.664062 23.335937l-.53125 6.679688s6.519532.082031 9.265626.507812c4.128906.644532 5.738281 4.003907 13.425781 3.503907 19.324219-1.253907 18.542969-18.664063 19.636719-33.539063.96875-5.667968 3.214843-13.054687 4.492187-18.71875 1.09375-4.855468 1.324219-12.585937 1.324219-12.585937zm0 0" fill="#ffb700" fill-rule="evenodd" stroke="#000" stroke-width="1.771465"/><path d="m567.949219 399.628906 3.632812-2.09375 1.550781 2.097656c2.070313 2.800782 7.800782 2.769532 11.605469-.0625l2.90625-2.167968 2.429688 2.167968c3.203125 2.847657 9.175781 2.851563 12.992187.011719 2.675782-1.992187 3.046875-2.03125 4.816406-.515625 1.046876.902344 4.136719 1.925782 6.859376 2.28125 4.902343.632813 4.976562.601563 7.84375-3.703125 2.40625-3.601562 2.78125-5.0625 2.207031-8.558593-.378907-2.3125-.789063-6.046876-.90625-8.289063-.222657-4.054687-.195313-4.082031 5.714843-6.136719 3.265626-1.136718 7.039063-2.664062 8.394532-3.386718 2.359375-1.269532 8.871094-8.921876 8.871094-10.425782 0-.398437-2.542969-1.011718-5.652344-1.359375-12.363282-1.386719-14.453125-8.023437-6.417969-20.351562 13.101563-20.109375 21.011719-39.691407 21.066406-52.160157.023438-5.578124.34375-7.453124 1.058594-6.238281 2.925781 4.957031-2.320313 25.730469-10.265625 40.648438l-3.199219 6.011719 3.050781-.707032c1.683594-.386718 11.550782-4.550781 21.941407-9.257812 28.425781-12.871094 38.191406-15.394532 56.589843-14.621094 15.414063.648438 21.980469 3.660156 32.863282 15.074219 5.765625 6.046875 11.320312 10.375 21.480468 16.734375 21.640626 13.546875 22.546876 14.722656 23.574219 30.65625 1.042969 16.144531.527344 17.023437-11.683593 19.71875-10.4375 2.304687-16.980469 7.171875-18.734376 13.929687-.941406 3.609375 1.03125 3.714844 6.292969.332031l3.859375-2.476562 1.710938 2.476562c2.253906 3.261719 7.046875 3.273438 11.027344.03125l3.003906-2.449218 3.070312 2.449218c4.777344 3.804688 11.125 2.878907 12.917969-1.875.34375-.917968 1.265625-.625 3.125.996094 3.484375 3.03125 12.425781 4.328125 13.394531 1.945313.367188-.910157-.335937-3.15625-1.558594-4.988281-5.199218-7.800782-6.828124-11.519532-6.894531-15.765626-.097656-5.90625 1.664063-8.753906 8.382813-13.558593 8.160156-5.832031 10.683594-13.363281 4.476562-13.363281-3.828125 0-7.695312-3.382813-10.15625-8.902344-5.003906-11.21875-4.023437-23.792969 3.492188-44.710938 7.628906-21.253906 8.476562-25.171875 8.507812-39.382812.023438-11.488282-.265625-13.480469-2.882812-19.777344-1.597656-3.855469-4.839844-9.589844-7.203125-12.746094l-4.300781-5.742187 5.519531-4.578125c16.863281-13.96875 13.410156-36.832032-6.882813-45.636719-6.210937-2.695313-7.765625-2.933594-18.644531-2.859375-6.527344.042969-16.484375.902344-22.125 1.90625-5.746094 1.027344-15.476563 1.851562-22.152344 1.878906-10.601562.042969-12.40625-.21875-16.492187-2.394531-4.257813-2.265625-4.992188-3.34375-5.824219-8.585937-.171875-1.078126-.925781-2.152344-1.675781-2.386719-1.445313-.460938-8.140625 5.351562-9.128906 7.921875-.488282 1.269531-.886719 1.183594-2.320313-.507813-.945313-1.128906-2.277344-3.707031-2.949219-5.742187-1.6875-5.117188.386719-8.949219 6.398438-11.816406l4.660156-2.230469-2.75-1.703125c-5.671875-3.523438-15.320312-1.117188-18.808594 4.695312-.984375 1.640625-2.0625 2.984375-2.390625 2.988282-.328125.003906-2.203125-1.5625-4.171875-3.480469-7.324218-7.160157-4.804687-17.746094 4.992188-20.980469 5.226562-1.722656 9.847656-.410156 10.8125 3.074219 1.46875 5.320312 6.035156-1.671875 5.214844-7.988281-.542969-4.199219-.460938-4.339844 2.445312-4.339844 4.035156 0 12.632812 5.300781 15.292969 9.433594 3.089843 4.796874 2.867187 12.351562-.535157 17.980468l-2.671874 4.421875 3.492187-.699219c5.125-1.027343 10.097656-4.203124 12.609375-8.0625 2.664062-4.074218 2.945312-12.011718.589844-16.296874-2.285156-4.148438-2.023438-4.808594 1.355468-3.402344 5.746094 2.382812 8.816407 5.015625 11.125 9.523437 2.074219 4.0625 2.191407 5.070313 1.066407 9.296875-.691407 2.609375-2.234375 6.039063-3.425781 7.621094-1.855469 2.472656-1.921876 2.886719-.441407 2.886719 2.753907 0 8.507813-2.609375 10.550781-4.78125 1.027344-1.097657 2.53125-3.804688 3.339844-6.011719l1.46875-4.015625 1.683594 3.058594c2.382812 4.328125 7.019531 8.222656 12.671875 10.640625 6.078125 2.609375 8.609375 2.757812 5.429687.320312-2.144531-1.644531-6.09375-13.234375-4.898437-14.367187.707031-.667969 8.957031 5.683593 18.378906 14.136719 8.914063 8.003906 14.511719 10.625 22.699219 10.625 10.457031 0 16.542969-9.101563 11.84375-17.710938-2.738281-5.019531-8.839844-5.714844-12.414062-1.417969-1.640626 1.980469-2.089844 3.550781-1.605469 5.621094.585937 2.539063.355469 2.878906-1.957031 2.878906-3.042969 0-9.03125-3.886719-19.671876-12.765625-16.226562-13.542968-35.941406-25.015625-50.179687-29.210937-9.132813-2.691407-28.652344-3.742188-37.9375-2.039063-10.050781 1.835938-21.941406 7.59375-28.417969 13.75-11.480468 10.910156-11.660156 25.429688-.484375 38.652344l3.203125 3.789062-2.171875 3.363282c-3.152343 4.898437-2.878906 11.488281.671875 16.34375 1.5625 2.136718 3.140625 3.886718 3.503906 3.886718.367188-.003906.765626-1.375.890626-3.058593.3125-4.246094 2.136718-7.089844 5.265624-8.21875 2.816407-1.011719 4.640626-.535157 17.542969 4.617187 13.574219 5.417969 35.894531 5.789063 59.632813.996094 11.636718-2.351562 25.359375-2.214844 31.394531.3125 11.066406 4.636719 13.632813 16.699219 5.496094 25.855469-3.519531 3.960937-6.917969 5.574219-18.316407 8.707031-8.679687 2.378906-10.734374 2.539062-30.453124 2.339844-16.851563-.167969-22.90625.152344-29.78125 1.589844-7.46875 1.558593-12.0625 1.71875-33.992188 1.164062l-25.359375-.636719 2.8125 2.324219c1.546875 1.28125 3.730469 2.855469 4.855469 3.503906 1.910156 1.097656 1.851562 1.246094-.992188 2.300782-1.675781.617187-5.382812 1.125-8.242187 1.125h-5.203125l-.703125 4.421874c-.378907 2.429688-.351563 5.269532.066406 6.308594.625 1.53125.390625 1.75-1.222656 1.164063-1.097657-.394531-4.144531-1.179688-6.773438-1.738281-2.632812-.558594-6.171875-1.691407-7.867187-2.527344-2.851563-1.394532-3.171875-1.359375-4.222656.5-.9375 1.664062-9.75 8.222656-11.046876 8.222656-.207031 0-.480468-1.261719-.597656-2.808594-.121094-1.546875-1.390625-5.570312-2.824218-8.945312-1.433594-3.371094-2.933594-7.050782-3.328126-8.171875-.597656-1.699219-.863281-1.785157-1.585937-.515625-.480469.84375-1.175781 3.148437-1.550781 5.113281-.375 1.96875-1.699219 5.164063-2.949219 7.097656l-2.269531 3.53125-1.449219-3.015625c-1.554687-3.234375-4.132813-6.59375-5.070313-6.59375-.3125 0-.851562 1.039063-1.191406 2.300782-.714844 2.640624-6.832031 9.964843-8.324218 9.964843-.550782 0-1.003907-2.070312-1.003907-4.597656 0-2.53125-.484375-4.597656-1.078125-4.597656s-1.078125.652343-1.078125 1.449219c0 1.945312-5.222656 7.746093-6.976562 7.746093-.765625 0-1.996094.691407-2.734375 1.53125-1.925782 2.199219-3.503906 1.890625-2.695313-.527343.382813-1.128907.132813-3.777344-.542969-5.875-.683593-2.101563-1.410156-4.332032-1.613281-4.964844-.257812-.792969-2.132812-.582032-6.09375.6875-6.40625 2.050781-8.550781 1.6875-5.257812-.890625 1.203125-.945313 3.035156-4.207031 4.070312-7.257813 1.035157-3.050781 2.5625-5.753906 3.390625-6.011718 1.164063-.363282 1.101563.082031-.265625 1.9375-.984375 1.324218-1.789062 3.113281-1.792969 3.972656 0 .855468-.738281 2.890625-1.636718 4.519531-.898438 1.632813-1.460938 3.125-1.25 3.320313.207031.199218 2.644531-.730469 5.414062-2.054688l5.035156-2.417969.023438 2.160157c.007812 1.1875.617188 4.324218 1.347656 6.96875l1.324219 4.804687 3.429687-1.574219c3.503907-1.613281 6.824219-7.355468 6.824219-11.804687 0-2.203125 1.261719-1.863281 1.773438.476562.15625.6875.945312 3.261719 1.761719 5.722657l1.484374 4.476562 2.347657-2.828125c1.289062-1.554687 2.90625-4.601563 3.59375-6.773437 1.195312-3.773438 3.066406-5.390626 3.066406-2.652344 0 1.972656 5.386719 9.046875 6.425781 8.441406.503906-.292969 1.5-2.949219 2.21875-5.902344 1.5-6.140625 3.914063-10.316406 5.449219-9.417968.578125.339843.800781.992187.5 1.457031-.304687.460937.9375 4.457031 2.757813 8.871093 1.816406 4.414063 3.644531 8.863282 4.054687 9.878907.667969 1.636719 1.265625 1.398437 5.164063-2.042969 2.425781-2.144531 4.625-4.539062 4.890624-5.332031.402344-1.191407.945313-1.144531 3.210938.261719 3.171875 1.964843 13.839844 5.140624 14.664062 4.359374.304688-.292968.621094-3.09375.699219-6.226562l.144531-5.691406 3.066407.636718c1.683593.347657 5.234375.328126 7.882812-.046874l4.8125-.683594-4.289062-2.945313c-2.359375-1.621093-4.75-3.714843-5.304688-4.65625-.589843-1.003906-2.691406-1.855469-5.070312-2.058593-6.429688-.546876-17.820313-6.9375-17.820313-9.996094 0-.574219 1.570313.402344 3.5 2.171875 4.28125 3.921875 10.226563 6.382812 15.417969 6.382812h3.886719l-2.40625-3.199219c-1.378906-1.832031-2.613282-5.316406-2.90625-8.179687-.464844-4.570313-.945313-5.292969-5.714844-8.613281-2.863281-1.992188-6.414062-4.972656-7.886719-6.628906l-2.675781-3.015626-1.367188 3.574219c-.75 1.96875-1.667968 3.578125-2.039062 3.578125s-1.816406-1.148437-3.207031-2.554687c-1.394531-1.40625-2.816407-2.546875-3.15625-2.542969-.34375.007812-1.574219 1.898438-2.742188 4.207031l-2.125 4.195313-1.640625-2.417969c-.902344-1.332031-3.035156-3.683594-4.734375-5.230469-1.703125-1.542968-2.597656-2.808594-1.992187-2.808594.609375 0 2.710937 1.609376 4.671875 3.578126l3.5625 3.578124 1.449219-2.621093c.859374-1.558594 1.1875-3.945313.796874-5.878907-.570312-2.816406-.488281-2.980468.589844-1.214843.6875 1.128906 2.769532 3.28125 4.632813 4.792969l3.386719 2.746093 2.335937-4.277343c2.320313-4.261719 2.339844-4.269532 3.398437-1.726563 1.410157 3.402344 11.648438 11.792969 20.363282 16.695313 1.34375.753906.777344-1.84375-1.703125-7.820313-.660157-1.582031-1.199219-4.433594-1.199219-6.339844 0-2.824219-.8125-4.082031-4.425781-6.832031-5.21875-3.964844-6.902344-6.789062-7.886719-13.195312-.398438-2.589844-1.308594-5.476563-2.023438-6.410157-1.066406-1.382812-1.242187-.609375-.957031 4.207031.191407 3.246094-.234375 7.277344-.941406 8.964844l-1.285156 3.066406-.996094-2.558593c-.546875-1.402344-2.96875-3.84375-5.375-5.425781-2.414063-1.582032-4.105469-3.140626-3.761719-3.46875.34375-.324219 2.820313 1.121093 5.507813 3.203124 4.101562 3.179688 5 3.523438 5.570312 2.125.664063-1.644531 0-8.800781-1.292969-13.800781-.640624-2.5-.585937-2.488281 2.496094.59375 2.273438 2.273438 3.527344 4.980469 4.503906 9.707031 1.234376 6.007813 1.859376 7.007813 7.414063 11.882813 3.332031 2.929687 6.234375 5.160156 6.445313 4.960937.214843-.203124.636718-7.777343.9375-16.835937.578124-17.367187-.074219-21.5-4.257813-26.863281l-2.148437-2.757813 3.378906-3.648437c4.40625-4.75 6.425781-8.558594 7.304687-13.757813l.71875-4.230469-3.8125 3.609376c-3.125 2.960937-4.617187 3.609374-8.234375 3.609374-3.578125 0-4.976562-.597656-7.386718-3.167968-2.898438-3.085938-8.027344-6.050782-12.960938-7.496094-1.824219-.535156-2.425781-.300781-2.425781.933594 0 .902344-1.007813 3.507812-2.238281 5.792968l-2.238282 4.152344-4.6875-4.632812c-2.871094-2.84375-6.285156-5.054688-8.820312-5.722656-6.484375-1.703126-6.835938-1.535157-6.835938 3.296874 0 7.328126-3.128906 8.691407-8.761718 3.820313-4.292969-3.710937-7.851563-4.519531-15.988282-3.625l-6.289062.691406 1.132812 2.835938c.941406 2.375.730469 3.371093-1.289062 6.0625-3.285156 4.367187-7.554688 6.261719-14.125 6.261719-3.027344 0-6.816406.625-8.417969 1.390624-1.605469.765626-5.582031 1.648438-8.851563 1.960938-3.261718.308594-6.742187.867188-7.730468 1.238281-1.546875.578125-1.714844.101563-1.21875-3.414062.761718-5.382813-2.996094-9.351563-8.851563-9.351563-7.601562 0-11.109375 6.796875-8.136719 15.765625.574219 1.726563 1.324219 4.449219 1.671876 6.046875.351562 1.664063 3.777343 6.070313 7.972656 10.265625 4.042968 4.046875 7.863281 8.257813 8.488281 9.355469.628906 1.097656 2.703125 2.859375 4.605469 3.917969l3.472656 1.921875-.460938-3.707032c-.5-4.078124.386719-4.71875 2.554688-1.84375.777344 1.03125 2.746094 2.695313 4.378906 3.695313 2.570313 1.582031 2.96875 1.613281 2.96875.238281 0-.871094.523438-2.875 1.160156-4.457031l1.167969-2.878906 2.019531 3.914062c1.113282 2.152344 4.730469 7.046875 8.03125 10.875 6.417969 7.425781 10.328126 15.726563 8.308594 17.636719-.816406.773438-3.03125.714844-7.609375-.207031-3.558593-.714844-7.953125-1.089844-9.773437-.835938-3.714844.515625-4.007813.035157-1.71875-2.824219 2.40625-3.019531 2.027344-3.515624-2.710938-3.515624-5.480468 0-19.082031-2.628907-24.308594-4.699219-5.078124-2.007813-6.25-1.507813-7.742187 3.308593-.671875 2.171876-1.90625 6.097657-2.738281 8.730469l-1.515625 4.785157 5.5-.53125c3.015625-.285157 6.902343-.949219 8.632812-1.46875 1.730469-.515626 3.300781-.792969 3.492188-.609376.191406.179688-.578125 2.050782-1.714844 4.15625l-2.058594 3.828126 3.425781-.699219c1.886719-.382813 4.71875-1.324219 6.300782-2.089844 2.75-1.328125 2.96875-1.230469 5.136718 2.246094 2.667969 4.285156 4.800782 4.105469 5.273438-.429688.488281-4.695312 2.035156-4 4.941406 2.21875 2.789063 5.980469 5.695313 8.09375 6.253906 4.546875.1875-1.179687 1.691407-3.09375 3.34375-4.257812 3.34375-2.359375 5.863282-1.648438 7.3125 2.046875 1.492188 3.832031-1.84375 7.777343-11.546874 13.664062-19.4375 11.78125-30.738282 27.894531-33.964844 48.4375-2.910156 18.527344 6.179687 37.671875 24.410156 51.421875 8.722656 6.578125 22.582031 13.523438 21.703125 10.875-3.742187-11.253906-3.617187-32.726562.207031-36.351562.574219-.539063.375 1.699218-.4375 4.980468-3.035156 12.226563-1.71875 21.96875 6.066406 44.804688 7.042969 20.648438 6.070313 29.476562-3.898437 35.308594-3.203125 1.875-5.261719 2.183594-13.867187 2.082031-9.34375-.113281-10.359376.074219-13.359376 2.460937-2.902343 2.316407-6.671874 9.925782-6.671874 13.472657 0 1.921875 2.136718 1.667969 6.332031-.757813zm75.679687-179.101562c0-1.5-4.402344-5.5625-8.863281-8.179688-3.507813-2.058594-4.085937-2.121094-4.09375-.441406-.011719 2.542969-2.273437 8.941406-3.164063 8.941406-.5 0-1.242187-1.25-1.648437-2.777344-.402344-1.53125-2.101563-4.542968-3.773437-6.691406l-3.039063-3.914062-2.363281 3.625c-2.207032 3.378906-6.027344 6.691406-7.722656 6.691406-.40625 0-.484376-1.78125-.175782-3.957031.332032-2.363281.074219-4.238281-.644531-4.65625-.660156-.386719-1.203125-.253907-1.203125.296875 0 1.273437-5.304688 7.296875-6.429688 7.296875-.457031 0-1.105468-1.726563-1.4375-3.835938-.328124-2.105469-.886718-5.441406-1.242187-7.40625-.355469-1.972656.402344-.636719 1.679687 2.960938l2.324219 6.542969 2.546875-3.988282c1.402344-2.195312 2.550782-4.585937 2.554688-5.324218 0-.734376.476562-1.058594 1.054687-.722657.574219.335938 1.378907 2.972657 1.78125 5.855469l.734375 5.246094 2.800782-3.078125c1.542968-1.6875 3.355468-3.949219 4.015624-5.027344 1.191407-1.921875 1.257813-1.917969 3.621094.089844 1.328125 1.121093 3.367188 3.8125 4.53125 5.972656 1.167969 2.164063 2.273438 3.769531 2.464844 3.574219.191406-.195313.617188-2.417969.953125-4.949219.328125-2.53125.625-4.691406.652344-4.804687.167969-.628907 8.449219 4.75 11.511719 7.476562 1.972656 1.753906 3.839843 2.941406 4.15625 2.640625.316406-.300781.578124-2.882813.578124-5.742187 0-4.429688-.472656-5.617188-3.183593-8.039063-3.117188-2.789063-3.203125-2.804687-4.351563-.765625-1.496094 2.644531-3.257812 2.683594-3.257812.070312 0-1.90625-5.890625-9.234374-7.421875-9.234374-.398438 0-1.632813 1.613281-2.753907 3.578124-1.117187 1.96875-2.324218 3.578126-2.671874 3.574219-1.515626-.011719-9.816407-9.265625-9.8125-10.933593 0-1.332032.5625-.988282 2.015624 1.226562 1.105469 1.691406 3.316407 4.203125 4.910157 5.597656 3.226562 2.8125 4.398437 2.128906 5.644531-3.296875.359375-1.546875.972656-2.808593 1.371094-2.808593 1.378906 0 8.605468 7.675781 9.625 10.21875l1.019531 2.554687.773437-2.8125c.945313-3.433594 1.984376-3.566406 3.496094-.425781.628906 1.308594 3.742188 4.03125 6.917969 6.054687l5.769531 3.667969 1.160156-3.695312c.636719-2.027344 1.480469-3.191407 1.875-2.589844.589844.902344-.910156 7.019531-2.042968 8.335937-.171875.195313-2.042969-.894531-4.160156-2.421875l-3.84375-2.777344-.015626 4.972657c-.011718 2.738281-.308593 6.007812-.667968 7.273437-.699219 2.476563-2.554688 3.171875-2.554688.960938zm-28.78125-39.671875c-6.855468-5.726563-7.898437-7.035157-7.746094-9.75l.160157-2.890625.449219 2.789062c.261718 1.632813 2.085937 4.074219 4.390624 5.871094l3.941407 3.078125 2.421875-2.804687c1.335937-1.542969 2.441406-3.378907 2.460937-4.078126.058594-1.832031.386719-1.679687 5.03125 2.347657 4.125 3.582031 4.191407 3.601562 4.804688 1.277343.339843-1.289062.21875-3.726562-.269531-5.40625-1.347657-4.625-1.085938-5.324218.957031-2.535156 1.015625 1.390625 2.65625 3.351563 3.636719 4.367188 1.710937 1.761718 1.816406 1.734375 2.453124-.515625.363282-1.289063.667969-3.65625.675782-5.253907l.015625-2.90625 3.726562 4.214844c3.472657 3.941406 3.789063 4.085938 4.851563 2.210938.625-1.109375 1.144531-3.765625 1.152344-5.910156.011718-2.769532.304687-3.46875 1.011718-2.417969 1.175782 1.761719.355469 6.5625-1.816406 10.652343l-1.558594 2.933594-2.046875-3.191406c-2.621093-4.078125-3.492187-4.011719-5.171875.386719-1.585937 4.15625-2.621094 4.476562-4.167968 1.277343-1-2.066406-1.191407-1.816406-1.898438 2.53125l-.789062 4.832032-4.734376-3.671875-4.730468-3.671875-2.128906 2.417968c-1.171876 1.328126-2.144532 2.996094-2.164063 3.695313-.039063 1.519531-1.179687 1.570313-2.914063.121094zm61.023438-21.328125c-2.5-2.253906-4.21875-4.394532-3.824219-4.769532s.835937-.480468.988281-.238281c.144532.242188 2.1875 2.390625 4.53125 4.769531 5.40625 5.480469 4.292969 5.636719-1.695312.238282zm-81.277344-8.398438c-2.277344-3.074218-2.117188-5.109375.644531-8.4375 2-2.402344 2.914063-2.734375 6.402344-2.289062 2.238281.285156 7.050781 2.261718 10.699219 4.394531 4.214844 2.460937 8.570312 4.113281 11.949218 4.523437 2.921876.355469 5.3125.488282 5.3125.296876 0-.191407-1.214843-2.167969-2.699218-4.398438-3.523438-5.285156-3.402344-5.851562.570312-2.683594 4.078125 3.25 8.960938 4.203125 19.867188 3.867188l5.324218-.15625-3.089843-3.058594c-4.324219-4.273438-2.992188-4.652344 1.78125-.511719 4.476562 3.886719 4.195312 4.160157-5.226563 5.097657-4.003906.398437-8.3125.109374-11.886718-.800782-5.355469-1.359375-5.5625-1.339844-4.550782.457032.585938 1.03125 1.535156 1.878906 2.101563 1.878906.574219 0 1.042969.523437 1.042969 1.164062 0 1.972656-11.5625.238282-17.089844-2.558594-12.625-6.394531-14.214844-6.949218-17.21875-6-1.671875.527344-3.347656 2.066407-3.925782 3.613282-1.921874 5.15625 5.390626 9.164062 8.40625 4.605468.875-1.316406.671876-2.222656-.867187-3.832031-2.105469-2.199219-1.910156-2.515625.929687-1.480469 2.019532.730469 2.292969 5.574219.417969 7.347657-2.148437 2.035156-7.046875 1.460937-8.894531-1.039063zm49.734375-12.738281c-1.578125-1.496094-.339844-1.863281 6.738281-1.992187 8.757813-.167969 14.074219-1.625 20.347656-5.589844 5.03125-3.171875 6.394532-2.546875 1.621094.746094-4.355468 3-11.144531 5.3125-17.699218 6.015624-3.175782.339844-6.792969.8125-8.042969 1.050782-1.242188.238281-2.578125.132812-2.964844-.230469zm75.214844 260.828125 3.917969-2.519531 2.65625 2.519531c3.484374 3.296875 7.566406 3.222656 10.914062-.199219 1.460938-1.492187 2.777344-2.527343 2.917969-2.296875.140625.226563.792969 1.332032 1.449219 2.460938.824218 1.417968 2.527343 2.136718 5.597656 2.351562 3.703125.265625 4.695312-.09375 6.167968-2.222656l1.753907-2.535156 3.855469 2.476562c10.558593 6.789063 16.183593-.332031 11.464843-14.503906-2.398437-7.210938-1.082031-11.261719 6.652344-20.433594 3.261719-3.871094 5.933594-8 5.933594-9.175781 0-1.882813-.601563-2.132813-4.9375-2.046875-4.15625.085938-5.375-.363281-7.558594-2.769531-3.554687-3.914063-3.34375-8.398438.632813-13.367188l3.171874-3.976562-5.628906-3.820313c-3.097656-2.105468-8.683594-7.078125-12.417968-11.058594-8.375-8.929687-16.617188-13.167968-27.480469-14.125l-7.285157-.644531.011719 5.507813c.019531 7.101562 3.347657 13.929687 12.441407 25.496094 10.335937 13.144531 11.058593 15.183593 11.472656 32.367187l.355468 14.539063-2.992187 2.835937c-2.699219 2.5625-3.921875 2.894531-12.640625 3.394531-8.304688.480469-10.046875.90625-12.484375 3.066406-3.238281 2.871094-4.203125 4.425782-5.203125 8.386719-.582031 2.308594-.347656 2.808594 1.316406 2.808594 1.117188 0 3.792969-1.132813 5.945313-2.515625zm-222.191407-37.570312c.921876-1.25 1.675782-3.261719 1.675782-4.480469 0-1.835938.820312-2.328125 4.863281-2.898438l4.855469-.691406-3.242188-2.585937c-3.847656-3.066407-4.203125-5.464844-.808594-5.46875 3.378907 0 9.101563-3.511719 9.972657-6.105469.402343-1.210938.152343-2.820313-.574219-3.648438-1.894531-2.164062-5.460938-1.839843-6.117188.558594-.714843 2.574219-1.90625 2.582031-4.605468.027344-4.058594-3.847657-4.152344-11.808594-.183594-16.445313 1.867188-2.183594 1.851562-2.328125-.535156-4.582031-2.558594-2.425781-4.390625-7.230469-3.1875-8.371094.382812-.359375 2.40625-.074219 4.5.644531 2.972656 1.015626 4.144531 1.03125 5.371094.066407 3.707031-2.910157-.3125-6.660157-6.261719-5.832031-2.390625.332031-3.378907 0-3.722657-1.242188-.257812-.941406-2.355468-2.167969-4.710937-2.765625-4.214844-1.066406-4.242187-1.050781-4.242187 1.851563 0 3.179687-1.820313 3.78125-5.269532 1.738281-2.804687-1.65625-5.523437-.367188-5.523437 2.617187 0 2.785156 2.800781 4.160156 7.820312 3.839844 3.855469-.25 3.996094 2.613281.339844 6.730469l-2.628906 2.960937 2.082031 2.992188c3.085938 4.433594 2.828125 11.796875-.542969 15.457031l-2.648437 2.867187-1.730469-2.296874c-2.410156-3.195313-5.707031-2.984376-6.609375.425781-.59375 2.234375-.105469 3.253906 2.695312 5.625 1.878907 1.589843 4.621094 2.886719 6.09375 2.886719 3.652344 0 3.507813 2.875-.285156 5.769531l-2.964844 2.265625 4.585938.714844c2.523438.390624 4.585938 1.125 4.585938 1.636718 0 1.945313 3.175781 8.007813 4.199218 8.007813.589844 0 1.824219-1.019531 2.753906-2.269531zm59.710938-25.878907c4.167969-1.640625 13.1875-9.28125 13.1875-11.164062 0-.59375-2.488281-3.332031-5.53125-6.082031-6.402344-5.796876-13.367188-15.550782-15.171875-21.253907-.9375-2.976562-5.484375-8.0625-18.289063-20.484375l-17.042968-16.527344-4.910156 1.246094c-2.699219.683594-5.996094 1.261719-7.324219 1.28125-2.285157.03125-2.246094.167969.792969 2.519532l3.207031 2.480468 4.5-2.492187c4.359375-2.421875 4.515625-2.4375 5.050781-.488281.3125 1.136718-.367188 3.109374-1.570312 4.5625-1.167969 1.410156-1.832032 3.003906-1.476563 3.546874.351563.542969-.769531 1.679688-2.496094 2.527344-3.195312 1.566406-5.417969 6.722656-2.894531 6.722656 2.273438 0 7.28125-6.179687 6.703125-8.269531-.296875-1.070312-.152344-2.171875.320313-2.445312 1.949218-1.144531 1.824218 3.710937-.15625 6.09375-1.167969 1.40625-1.832032 3.003906-1.476563 3.546875.351563.542968-.769531 1.679687-2.496094 2.523437-3.175781 1.558594-5.421875 6.726563-2.917969 6.726563 2.453126 0 7.378907-5.902344 6.769532-8.113282-.320313-1.160156-.195313-2.328124.277344-2.605468 1.3125-.769532 2.019531 3.0625.910156 4.941406-.59375 1.003906-.585938 2.375.015625 3.464844 1.089843 1.96875-.015625 5.757812-2.027344 6.933594-.863281.503906-.277344 1.5 1.8125 3.078124 3.027344 2.28125 3.082031 2.523438 3.082031 12.605469 0 8.425781.34375 10.601563 1.894532 12.070313 1.738281 1.648437 1.886718 1.652344 1.886718.070312 0-1.71875 3.023438-3.828125 5.5-3.828125.730469 0 5.296875 3.867188 10.140625 8.589844 4.875 4.757813 9.976563 8.800781 11.421875 9.0625 1.4375.257813 2.992188.523437 3.457032.601563.460937.078124 2.648437-.570313 4.851562-1.441407zm-52.097656-40.773437c0-2.714844-5.601563-5.617188-12.304688-6.367188-5.414062-.609375-5.5-.570312-5.5 2.128906 0 2.238282.847656 3.117188 4.582032 4.746094 6.003906 2.613282 13.222656 2.335938 13.222656-.507812zm6.144531-.25c2.734375-2.476563 4.027344-5.425782 2.382813-5.425782-1.890626 0-6.910157 4.503907-6.910157 6.199219 0 2.648438.933594 2.492188 4.527344-.773437zm-5.828125-8.027344c.230469-1.535156-.714844-2.554688-3.558594-3.839844-6.128906-2.769531-13.457031-4.050781-15.222656-2.664062-3.253906 2.558594-1.085938 5.988281 4.164062 6.605468 2.117188.25 4.984376.890626 6.378907 1.433594 4.035156 1.566406 7.875.851563 8.238281-1.535156zm0-8.210938c.332031-2.183593-1.070312-2.964843-12.484375-6.988281-8.519531-2.996093-12.292969-1.582031-9.570313 3.589844.949219 1.804687 2.542969 2.625 6.113282 3.164063 2.65625.394531 6.285156 1.175781 8.0625 1.726562 4.757812 1.476562 7.507812.957031 7.878906-1.492188zm5.722656-7.695312c1.71875-1.746094 3.128906-3.804688 3.128906-4.578125 0-2.5-6.800781 1.929687-7.667968 4.996094-1.039063 3.683593.644531 3.53125 4.539062-.417969zm-5.71875-.515625c.375-2.492187-3.765625-4.738281-11.914062-6.464844-5.972656-1.269531-8.609375-.550781-8.160156 2.222657.242187 1.519531 2.230468 2.625 7.878906 4.386718 9.035156 2.820313 11.75 2.789063 12.195312-.144531zm7.964844-11.59375c10.433594-4.644531 11.339844-16.363281 1.496094-19.4375-4.085938-1.277344-6.695313-.589844-8.257813 2.175781-1.199219 2.121094-.398437 5.976563 1.242188 5.976563.554687 0 1.007812.714843 1.007812 1.585937 0 4.066406-15.9375 5.910156-22.472656 2.597656-2.296875-1.160156-3.292969-4.183593-1.386719-4.183593 1.429688 0 2.417969-3.078125 1.6875-5.253907-.996094-2.96875-3.980468-3.996093-8.320312-2.863281-9.78125 2.5625-9.507813 14.054688.453125 18.933594 8.167969 4 26.074219 4.246094 34.550781.46875zm-6.496094-9c.605469-.574219.34375-1.453125-.671875-2.25-2.214843-1.742187-2.097656-4.335937.335938-7.308594 1.824219-2.230469 2.058593-5.566406 2.683593-39.226562 1.085938-58.011719 5.402344-101.640625 11.085938-112.113281 2.261719-4.164063 1.945312-4.183594-3.902344-.203126-7.539062 5.128907-13.273437 11.804688-18.355468 21.359376-9.597657 18.046874-12.933594 42.316406-12.933594 94.132812 0 29.417969.199218 33.269531 1.875 36.035156 1.59375 2.628906 1.679687 3.597656.558594 6.40625-.722657 1.8125-1.050782 3.554688-.730469 3.859375 2.144531 2.027344 17.75 1.488281 20.054687-.691406zm87.699219-55.320313c.324219-.5-.398437-3.027343-1.605469-5.617187-1.890625-4.039063-2.644531-4.707031-5.335937-4.707031-8.417969 0-21.949219-3.765625-35.898438-9.984375-8.058593-3.589844-10.839843-4.417969-11.804687-3.5-2.46875 2.335937 1.628906 7.875 7.972656 10.789062 5.628906 2.585938 21.363281 5.757813 28.542969 5.757813 4.160156 0 4.257812.1875 1.890625 3.613281l-1.742188 2.519531 4.707032.121094c2.59375.066406 6.167968.472656 7.949218.898438 4.625 1.117187 4.671875 1.117187 5.324219.109374zm0 0" fill-rule="evenodd"/><g stroke="#000"><path d="m567.949219 399.628906 3.632812-2.09375 1.550781 2.097656c2.070313 2.800782 7.800782 2.769532 11.605469-.0625l2.90625-2.167968 2.429688 2.167968c3.203125 2.847657 9.175781 2.851563 12.992187.011719 2.675782-1.992187 3.046875-2.03125 4.816406-.515625 1.046876.902344 4.136719 1.925782 6.859376 2.28125 4.902343.632813 4.976562.601563 7.84375-3.703125 2.40625-3.601562 2.78125-5.0625 2.207031-8.558593-.378907-2.3125-.789063-6.046876-.90625-8.289063-.222657-4.054687-.195313-4.082031 5.714843-6.136719 3.265626-1.136718 7.039063-2.664062 8.394532-3.386718 2.359375-1.269532 8.871094-8.921876 8.871094-10.425782 0-.398437-2.542969-1.011718-5.652344-1.359375-12.363282-1.386719-14.453125-8.023437-6.417969-20.351562 13.101563-20.109375 21.011719-39.691407 21.066406-52.160157.023438-5.578124.34375-7.453124 1.058594-6.238281 2.925781 4.957031-2.320313 25.730469-10.265625 40.648438l-3.199219 6.011719 3.050781-.707032c1.683594-.386718 11.550782-4.550781 21.941407-9.257812 28.425781-12.871094 38.191406-15.394532 56.589843-14.621094 15.414063.648438 21.980469 3.660156 32.863282 15.074219 5.765625 6.046875 11.320312 10.375 21.480468 16.734375 21.640626 13.546875 22.546876 14.722656 23.574219 30.65625 1.042969 16.144531.527344 17.023437-11.683593 19.71875-10.4375 2.304687-16.980469 7.171875-18.734376 13.929687-.941406 3.609375 1.03125 3.714844 6.292969.332031l3.859375-2.476562 1.710938 2.476562c2.253906 3.261719 7.046875 3.273438 11.027344.03125l3.003906-2.449218 3.070312 2.449218c4.777344 3.804688 11.125 2.878907 12.917969-1.875.34375-.917968 1.265625-.625 3.125.996094 3.484375 3.03125 12.425781 4.328125 13.394531 1.945313.367188-.910157-.335937-3.15625-1.558594-4.988281-5.199218-7.800782-6.828124-11.519532-6.894531-15.765626-.097656-5.90625 1.664063-8.753906 8.382813-13.558593 8.160156-5.832031 10.683594-13.363281 4.476562-13.363281-3.828125 0-7.695312-3.382813-10.15625-8.902344-5.003906-11.21875-4.023437-23.792969 3.492188-44.710938 7.628906-21.253906 8.476562-25.171875 8.507812-39.382812.023438-11.488282-.265625-13.480469-2.882812-19.777344-1.597656-3.855469-4.839844-9.589844-7.203125-12.746094l-4.300781-5.742187 5.519531-4.578125c16.863281-13.96875 13.410156-36.832032-6.882813-45.636719-6.210937-2.695313-7.765625-2.933594-18.644531-2.859375-6.527344.042969-16.484375.902344-22.125 1.90625-5.746094 1.027344-15.476563 1.851562-22.152344 1.878906-10.601562.042969-12.40625-.21875-16.492187-2.394531-4.257813-2.265625-4.992188-3.34375-5.824219-8.585937-.171875-1.078126-.925781-2.152344-1.675781-2.386719-1.445313-.460938-8.140625 5.351562-9.128906 7.921875-.488282 1.269531-.886719 1.183594-2.320313-.507813-.945313-1.128906-2.277344-3.707031-2.949219-5.742187-1.6875-5.117188.386719-8.949219 6.398438-11.816406l4.660156-2.230469-2.75-1.703125c-5.671875-3.523438-15.320312-1.117188-18.808594 4.695312-.984375 1.640625-2.0625 2.984375-2.390625 2.988282-.328125.003906-2.203125-1.5625-4.171875-3.480469-7.324218-7.160157-4.804687-17.746094 4.992188-20.980469 5.226562-1.722656 9.847656-.410156 10.8125 3.074219 1.46875 5.320312 6.035156-1.671875 5.214844-7.988281-.542969-4.199219-.460938-4.339844 2.445312-4.339844 4.035156 0 12.632812 5.300781 15.292969 9.433594 3.089843 4.796874 2.867187 12.351562-.535157 17.980468l-2.671874 4.421875 3.492187-.699219c5.125-1.027343 10.097656-4.203124 12.609375-8.0625 2.664062-4.074218 2.945312-12.011718.589844-16.296874-2.285156-4.148438-2.023438-4.808594 1.355468-3.402344 5.746094 2.382812 8.816407 5.015625 11.125 9.523437 2.074219 4.0625 2.191407 5.070313 1.066407 9.296875-.691407 2.609375-2.234375 6.039063-3.425781 7.621094-1.855469 2.472656-1.921876 2.886719-.441407 2.886719 2.753907 0 8.507813-2.609375 10.550781-4.78125 1.027344-1.097657 2.53125-3.804688 3.339844-6.011719l1.46875-4.015625 1.683594 3.058594c2.382812 4.328125 7.019531 8.222656 12.671875 10.640625 6.078125 2.609375 8.609375 2.757812 5.429687.320312-2.144531-1.644531-6.09375-13.234375-4.898437-14.367187.707031-.667969 8.957031 5.683593 18.378906 14.136719 8.914063 8.003906 14.511719 10.625 22.699219 10.625 10.457031 0 16.542969-9.101563 11.84375-17.710938-2.738281-5.019531-8.839844-5.714844-12.414062-1.417969-1.640626 1.980469-2.089844 3.550781-1.605469 5.621094.585937 2.539063.355469 2.878906-1.957031 2.878906-3.042969 0-9.03125-3.886719-19.671876-12.765625-16.226562-13.542968-35.941406-25.015625-50.179687-29.210937-9.132813-2.691407-28.652344-3.742188-37.9375-2.039063-10.050781 1.835938-21.941406 7.59375-28.417969 13.75-11.480468 10.910156-11.660156 25.429688-.484375 38.652344l3.203125 3.789062-2.171875 3.363282c-3.152343 4.898437-2.878906 11.488281.671875 16.34375 1.5625 2.136718 3.140625 3.886718 3.503906 3.886718.367188-.003906.765626-1.375.890626-3.058593.3125-4.246094 2.136718-7.089844 5.265624-8.21875 2.816407-1.011719 4.640626-.535157 17.542969 4.617187 13.574219 5.417969 35.894531 5.789063 59.632813.996094 11.636718-2.351562 25.359375-2.214844 31.394531.3125 11.066406 4.636719 13.632813 16.699219 5.496094 25.855469-3.519531 3.960937-6.917969 5.574219-18.316407 8.707031-8.679687 2.378906-10.734374 2.539062-30.453124 2.339844-16.851563-.167969-22.90625.152344-29.78125 1.589844-7.46875 1.558593-12.0625 1.71875-33.992188 1.164062l-25.359375-.636719 2.8125 2.324219c1.546875 1.28125 3.730469 2.855469 4.855469 3.503906 1.910156 1.097656 1.851562 1.246094-.992188 2.300782-1.675781.617187-5.382812 1.125-8.242187 1.125h-5.203125l-.703125 4.421874c-.378907 2.429688-.351563 5.269532.066406 6.308594.625 1.53125.390625 1.75-1.222656 1.164063-1.097657-.394531-4.144531-1.179688-6.773438-1.738281-2.632812-.558594-6.171875-1.691407-7.867187-2.527344-2.851563-1.394532-3.171875-1.359375-4.222656.5-.9375 1.664062-9.75 8.222656-11.046876 8.222656-.207031 0-.480468-1.261719-.597656-2.808594-.121094-1.546875-1.390625-5.570312-2.824218-8.945312-1.433594-3.371094-2.933594-7.050782-3.328126-8.171875-.597656-1.699219-.863281-1.785157-1.585937-.515625-.480469.84375-1.175781 3.148437-1.550781 5.113281-.375 1.96875-1.699219 5.164063-2.949219 7.097656l-2.269531 3.53125-1.449219-3.015625c-1.554687-3.234375-4.132813-6.59375-5.070313-6.59375-.3125 0-.851562 1.039063-1.191406 2.300782-.714844 2.640624-6.832031 9.964843-8.324218 9.964843-.550782 0-1.003907-2.070312-1.003907-4.597656 0-2.53125-.484375-4.597656-1.078125-4.597656s-1.078125.652343-1.078125 1.449219c0 1.945312-5.222656 7.746093-6.976562 7.746093-.765625 0-1.996094.691407-2.734375 1.53125-1.925782 2.199219-3.503906 1.890625-2.695313-.527343.382813-1.128907.132813-3.777344-.542969-5.875-.683593-2.101563-1.410156-4.332032-1.613281-4.964844-.257812-.792969-2.132812-.582032-6.09375.6875-6.40625 2.050781-8.550781 1.6875-5.257812-.890625 1.203125-.945313 3.035156-4.207031 4.070312-7.257813 1.035157-3.050781 2.5625-5.753906 3.390625-6.011718 1.164063-.363282 1.101563.082031-.265625 1.9375-.984375 1.324218-1.789062 3.113281-1.792969 3.972656 0 .855468-.738281 2.890625-1.636718 4.519531-.898438 1.632813-1.460938 3.125-1.25 3.320313.207031.199218 2.644531-.730469 5.414062-2.054688l5.035156-2.417969.023438 2.160157c.007812 1.1875.617188 4.324218 1.347656 6.96875l1.324219 4.804687 3.429687-1.574219c3.503907-1.613281 6.824219-7.355468 6.824219-11.804687 0-2.203125 1.261719-1.863281 1.773438.476562.15625.6875.945312 3.261719 1.761719 5.722657l1.484374 4.476562 2.347657-2.828125c1.289062-1.554687 2.90625-4.601563 3.59375-6.773437 1.195312-3.773438 3.066406-5.390626 3.066406-2.652344 0 1.972656 5.386719 9.046875 6.425781 8.441406.503906-.292969 1.5-2.949219 2.21875-5.902344 1.5-6.140625 3.914063-10.316406 5.449219-9.417968.578125.339843.800781.992187.5 1.457031-.304687.460937.9375 4.457031 2.757813 8.871093 1.816406 4.414063 3.644531 8.863282 4.054687 9.878907.667969 1.636719 1.265625 1.398437 5.164063-2.042969 2.425781-2.144531 4.625-4.539062 4.890624-5.332031.402344-1.191407.945313-1.144531 3.210938.261719 3.171875 1.964843 13.839844 5.140624 14.664062 4.359374.304688-.292968.621094-3.09375.699219-6.226562l.144531-5.691406 3.066407.636718c1.683593.347657 5.234375.328126 7.882812-.046874l4.8125-.683594-4.289062-2.945313c-2.359375-1.621093-4.75-3.714843-5.304688-4.65625-.589843-1.003906-2.691406-1.855469-5.070312-2.058593-6.429688-.546876-17.820313-6.9375-17.820313-9.996094 0-.574219 1.570313.402344 3.5 2.171875 4.28125 3.921875 10.226563 6.382812 15.417969 6.382812h3.886719l-2.40625-3.199219c-1.378906-1.832031-2.613282-5.316406-2.90625-8.179687-.464844-4.570313-.945313-5.292969-5.714844-8.613281-2.863281-1.992188-6.414062-4.972656-7.886719-6.628906l-2.675781-3.015626-1.367188 3.574219c-.75 1.96875-1.667968 3.578125-2.039062 3.578125s-1.816406-1.148437-3.207031-2.554687c-1.394531-1.40625-2.816407-2.546875-3.15625-2.542969-.34375.007812-1.574219 1.898438-2.742188 4.207031l-2.125 4.195313-1.640625-2.417969c-.902344-1.332031-3.035156-3.683594-4.734375-5.230469-1.703125-1.542968-2.597656-2.808594-1.992187-2.808594.609375 0 2.710937 1.609376 4.671875 3.578126l3.5625 3.578124 1.449219-2.621093c.859374-1.558594 1.1875-3.945313.796874-5.878907-.570312-2.816406-.488281-2.980468.589844-1.214843.6875 1.128906 2.769532 3.28125 4.632813 4.792969l3.386719 2.746093 2.335937-4.277343c2.320313-4.261719 2.339844-4.269532 3.398437-1.726563 1.410157 3.402344 11.648438 11.792969 20.363282 16.695313 1.34375.753906.777344-1.84375-1.703125-7.820313-.660157-1.582031-1.199219-4.433594-1.199219-6.339844 0-2.824219-.8125-4.082031-4.425781-6.832031-5.21875-3.964844-6.902344-6.789062-7.886719-13.195312-.398438-2.589844-1.308594-5.476563-2.023438-6.410157-1.066406-1.382812-1.242187-.609375-.957031 4.207031.191407 3.246094-.234375 7.277344-.941406 8.964844l-1.285156 3.066406-.996094-2.558593c-.546875-1.402344-2.96875-3.84375-5.375-5.425781-2.414063-1.582032-4.105469-3.140626-3.761719-3.46875.34375-.324219 2.820313 1.121093 5.507813 3.203124 4.101562 3.179688 5 3.523438 5.570312 2.125.664063-1.644531 0-8.800781-1.292969-13.800781-.640624-2.5-.585937-2.488281 2.496094.59375 2.273438 2.273438 3.527344 4.980469 4.503906 9.707031 1.234376 6.007813 1.859376 7.007813 7.414063 11.882813 3.332031 2.929687 6.234375 5.160156 6.445313 4.960937.214843-.203124.636718-7.777343.9375-16.835937.578124-17.367187-.074219-21.5-4.257813-26.863281l-2.148437-2.757813 3.378906-3.648437c4.40625-4.75 6.425781-8.558594 7.304687-13.757813l.71875-4.230469-3.8125 3.609376c-3.125 2.960937-4.617187 3.609374-8.234375 3.609374-3.578125 0-4.976562-.597656-7.386718-3.167968-2.898438-3.085938-8.027344-6.050782-12.960938-7.496094-1.824219-.535156-2.425781-.300781-2.425781.933594 0 .902344-1.007813 3.507812-2.238281 5.792968l-2.238282 4.152344-4.6875-4.632812c-2.871094-2.84375-6.285156-5.054688-8.820312-5.722656-6.484375-1.703126-6.835938-1.535157-6.835938 3.296874 0 7.328126-3.128906 8.691407-8.761718 3.820313-4.292969-3.710937-7.851563-4.519531-15.988282-3.625l-6.289062.691406 1.132812 2.835938c.941406 2.375.730469 3.371093-1.289062 6.0625-3.285156 4.367187-7.554688 6.261719-14.125 6.261719-3.027344 0-6.816406.625-8.417969 1.390624-1.605469.765626-5.582031 1.648438-8.851563 1.960938-3.261718.308594-6.742187.867188-7.730468 1.238281-1.546875.578125-1.714844.101563-1.21875-3.414062.761718-5.382813-2.996094-9.351563-8.851563-9.351563-7.601562 0-11.109375 6.796875-8.136719 15.765625.574219 1.726563 1.324219 4.449219 1.671876 6.046875.351562 1.664063 3.777343 6.070313 7.972656 10.265625 4.042968 4.046875 7.863281 8.257813 8.488281 9.355469.628906 1.097656 2.703125 2.859375 4.605469 3.917969l3.472656 1.921875-.460938-3.707032c-.5-4.078124.386719-4.71875 2.554688-1.84375.777344 1.03125 2.746094 2.695313 4.378906 3.695313 2.570313 1.582031 2.96875 1.613281 2.96875.238281 0-.871094.523438-2.875 1.160156-4.457031l1.167969-2.878906 2.019531 3.914062c1.113282 2.152344 4.730469 7.046875 8.03125 10.875 6.417969 7.425781 10.328126 15.726563 8.308594 17.636719-.816406.773438-3.03125.714844-7.609375-.207031-3.558593-.714844-7.953125-1.089844-9.773437-.835938-3.714844.515625-4.007813.035157-1.71875-2.824219 2.40625-3.019531 2.027344-3.515624-2.710938-3.515624-5.480468 0-19.082031-2.628907-24.308594-4.699219-5.078124-2.007813-6.25-1.507813-7.742187 3.308593-.671875 2.171876-1.90625 6.097657-2.738281 8.730469l-1.515625 4.785157 5.5-.53125c3.015625-.285157 6.902343-.949219 8.632812-1.46875 1.730469-.515626 3.300781-.792969 3.492188-.609376.191406.179688-.578125 2.050782-1.714844 4.15625l-2.058594 3.828126 3.425781-.699219c1.886719-.382813 4.71875-1.324219 6.300782-2.089844 2.75-1.328125 2.96875-1.230469 5.136718 2.246094 2.667969 4.285156 4.800782 4.105469 5.273438-.429688.488281-4.695312 2.035156-4 4.941406 2.21875 2.789063 5.980469 5.695313 8.09375 6.253906 4.546875.1875-1.179687 1.691407-3.09375 3.34375-4.257812 3.34375-2.359375 5.863282-1.648438 7.3125 2.046875 1.492188 3.832031-1.84375 7.777343-11.546874 13.664062-19.4375 11.78125-30.738282 27.894531-33.964844 48.4375-2.910156 18.527344 6.179687 37.671875 24.410156 51.421875 8.722656 6.578125 22.582031 13.523438 21.703125 10.875-3.742187-11.253906-3.617187-32.726562.207031-36.351562.574219-.539063.375 1.699218-.4375 4.980468-3.035156 12.226563-1.71875 21.96875 6.066406 44.804688 7.042969 20.648438 6.070313 29.476562-3.898437 35.308594-3.203125 1.875-5.261719 2.183594-13.867187 2.082031-9.34375-.113281-10.359376.074219-13.359376 2.460937-2.902343 2.316407-6.671874 9.925782-6.671874 13.472657 0 1.921875 2.136718 1.667969 6.332031-.757813zm0 0" fill="none" stroke-width="4.633204"/><path d="m643.628906 220.527344c0-1.5-4.402344-5.5625-8.863281-8.179688-3.507813-2.058594-4.085937-2.121094-4.09375-.441406-.011719 2.542969-2.273437 8.941406-3.164063 8.941406-.5 0-1.242187-1.25-1.648437-2.777344-.402344-1.53125-2.101563-4.542968-3.773437-6.691406l-3.039063-3.914062-2.363281 3.625c-2.207032 3.378906-6.027344 6.691406-7.722656 6.691406-.40625 0-.484376-1.78125-.175782-3.957031.332032-2.363281.074219-4.238281-.644531-4.65625-.660156-.386719-1.203125-.253907-1.203125.296875 0 1.273437-5.304688 7.296875-6.429688 7.296875-.457031 0-1.105468-1.726563-1.4375-3.835938-.328124-2.105469-.886718-5.441406-1.242187-7.40625-.355469-1.972656.402344-.636719 1.679687 2.960938l2.324219 6.542969 2.546875-3.988282c1.402344-2.195312 2.550782-4.585937 2.554688-5.324218 0-.734376.476562-1.058594 1.054687-.722657.574219.335938 1.378907 2.972657 1.78125 5.855469l.734375 5.246094 2.800782-3.078125c1.542968-1.6875 3.355468-3.949219 4.015624-5.027344 1.191407-1.921875 1.257813-1.917969 3.621094.089844 1.328125 1.121093 3.367188 3.8125 4.53125 5.972656 1.167969 2.164063 2.273438 3.769531 2.464844 3.574219.191406-.195313.617188-2.417969.953125-4.949219.328125-2.53125.625-4.691406.652344-4.804687.167969-.628907 8.449219 4.75 11.511719 7.476562 1.972656 1.753906 3.839843 2.941406 4.15625 2.640625.316406-.300781.578124-2.882813.578124-5.742187 0-4.429688-.472656-5.617188-3.183593-8.039063-3.117188-2.789063-3.203125-2.804687-4.351563-.765625-1.496094 2.644531-3.257812 2.683594-3.257812.070312 0-1.90625-5.890625-9.234374-7.421875-9.234374-.398438 0-1.632813 1.613281-2.753907 3.578124-1.117187 1.96875-2.324218 3.578126-2.671874 3.574219-1.515626-.011719-9.816407-9.265625-9.8125-10.933593 0-1.332032.5625-.988282 2.015624 1.226562 1.105469 1.691406 3.316407 4.203125 4.910157 5.597656 3.226562 2.8125 4.398437 2.128906 5.644531-3.296875.359375-1.546875.972656-2.808593 1.371094-2.808593 1.378906 0 8.605468 7.675781 9.625 10.21875l1.019531 2.554687.773437-2.8125c.945313-3.433594 1.984376-3.566406 3.496094-.425781.628906 1.308594 3.742188 4.03125 6.917969 6.054687l5.769531 3.667969 1.160156-3.695312c.636719-2.027344 1.480469-3.191407 1.875-2.589844.589844.902344-.910156 7.019531-2.042968 8.335937-.171875.195313-2.042969-.894531-4.160156-2.421875l-3.84375-2.777344-.015626 4.972657c-.011718 2.738281-.308593 6.007812-.667968 7.273437-.699219 2.476563-2.554688 3.171875-2.554688.960938zm0 0" fill="none" stroke-width="4.633204"/><path d="m614.847656 180.855469c-6.855468-5.726563-7.898437-7.035157-7.746094-9.75l.160157-2.890625.449219 2.789062c.261718 1.632813 2.085937 4.074219 4.390624 5.871094l3.941407 3.078125 2.421875-2.804687c1.335937-1.542969 2.441406-3.378907 2.460937-4.078126.058594-1.832031.386719-1.679687 5.03125 2.347657 4.125 3.582031 4.191407 3.601562 4.804688 1.277343.339843-1.289062.21875-3.726562-.269531-5.40625-1.347657-4.625-1.085938-5.324218.957031-2.535156 1.015625 1.390625 2.65625 3.351563 3.636719 4.367188 1.710937 1.761718 1.816406 1.734375 2.453124-.515625.363282-1.289063.667969-3.65625.675782-5.253907l.015625-2.90625 3.726562 4.214844c3.472657 3.941406 3.789063 4.085938 4.851563 2.210938.625-1.109375 1.144531-3.765625 1.152344-5.910156.011718-2.769532.304687-3.46875 1.011718-2.417969 1.175782 1.761719.355469 6.5625-1.816406 10.652343l-1.558594 2.933594-2.046875-3.191406c-2.621093-4.078125-3.492187-4.011719-5.171875.386719-1.585937 4.15625-2.621094 4.476562-4.167968 1.277343-1-2.066406-1.191407-1.816406-1.898438 2.53125l-.789062 4.832032-4.734376-3.671875-4.730468-3.671875-2.128906 2.417968c-1.171876 1.328126-2.144532 2.996094-2.164063 3.695313-.039063 1.519531-1.179687 1.570313-2.914063.121094zm0 0" fill="none" stroke-width="4.633204"/><path d="m675.871094 159.527344c-2.5-2.253906-4.21875-4.394532-3.824219-4.769532s.835937-.480468.988281-.238281c.144532.242188 2.1875 2.390625 4.53125 4.769531 5.40625 5.480469 4.292969 5.636719-1.695312.238282zm0 0" fill="none" stroke-width="4.633204"/><path d="m594.59375 151.128906c-2.277344-3.074218-2.117188-5.109375.644531-8.4375 2-2.402344 2.914063-2.734375 6.402344-2.289062 2.238281.285156 7.050781 2.261718 10.699219 4.394531 4.214844 2.460937 8.570312 4.113281 11.949218 4.523437 2.921876.355469 5.3125.488282 5.3125.296876 0-.191407-1.214843-2.167969-2.699218-4.398438-3.523438-5.285156-3.402344-5.851562.570312-2.683594 4.078125 3.25 8.960938 4.203125 19.867188 3.867188l5.324218-.15625-3.089843-3.058594c-4.324219-4.273438-2.992188-4.652344 1.78125-.511719 4.476562 3.886719 4.195312 4.160157-5.226563 5.097657-4.003906.398437-8.3125.109374-11.886718-.800782-5.355469-1.359375-5.5625-1.339844-4.550782.457032.585938 1.03125 1.535156 1.878906 2.101563 1.878906.574219 0 1.042969.523437 1.042969 1.164062 0 1.972656-11.5625.238282-17.089844-2.558594-12.625-6.394531-14.214844-6.949218-17.21875-6-1.671875.527344-3.347656 2.066407-3.925782 3.613282-1.921874 5.15625 5.390626 9.164062 8.40625 4.605468.875-1.316406.671876-2.222656-.867187-3.832031-2.105469-2.199219-1.910156-2.515625.929687-1.480469 2.019532.730469 2.292969 5.574219.417969 7.347657-2.148437 2.035156-7.046875 1.460937-8.894531-1.039063zm0 0" fill="none" stroke-width="4.633204"/><path d="m644.328125 138.390625c-1.578125-1.496094-.339844-1.863281 6.738281-1.992187 8.757813-.167969 14.074219-1.625 20.347656-5.589844 5.03125-3.171875 6.394532-2.546875 1.621094.746094-4.355468 3-11.144531 5.3125-17.699218 6.015624-3.175782.339844-6.792969.8125-8.042969 1.050782-1.242188.238281-2.578125.132812-2.964844-.230469zm0 0" fill="none" stroke-width="4.633204"/><path d="m719.542969 399.21875 3.917969-2.519531 2.65625 2.519531c3.484374 3.296875 7.566406 3.222656 10.914062-.199219 1.460938-1.492187 2.777344-2.527343 2.917969-2.296875.140625.226563.792969 1.332032 1.449219 2.460938.824218 1.417968 2.527343 2.136718 5.597656 2.351562 3.703125.265625 4.695312-.09375 6.167968-2.222656l1.753907-2.535156 3.855469 2.476562c10.558593 6.789063 16.183593-.332031 11.464843-14.503906-2.398437-7.210938-1.082031-11.261719 6.652344-20.433594 3.261719-3.871094 5.933594-8 5.933594-9.175781 0-1.882813-.601563-2.132813-4.9375-2.046875-4.15625.085938-5.375-.363281-7.558594-2.769531-3.554687-3.914063-3.34375-8.398438.632813-13.367188l3.171874-3.976562-5.628906-3.820313c-3.097656-2.105468-8.683594-7.078125-12.417968-11.058594-8.375-8.929687-16.617188-13.167968-27.480469-14.125l-7.285157-.644531.011719 5.507813c.019531 7.101562 3.347657 13.929687 12.441407 25.496094 10.335937 13.144531 11.058593 15.183593 11.472656 32.367187l.355468 14.539063-2.992187 2.835937c-2.699219 2.5625-3.921875 2.894531-12.640625 3.394531-8.304688.480469-10.046875.90625-12.484375 3.066406-3.238281 2.871094-4.203125 4.425782-5.203125 8.386719-.582031 2.308594-.347656 2.808594 1.316406 2.808594 1.117188 0 3.792969-1.132813 5.945313-2.515625zm0 0" fill="none" stroke-width="4.633204"/><path d="m497.351562 361.648438c.921876-1.25 1.675782-3.261719 1.675782-4.480469 0-1.835938.820312-2.328125 4.863281-2.898438l4.855469-.691406-3.242188-2.585937c-3.847656-3.066407-4.203125-5.464844-.808594-5.46875 3.378907 0 9.101563-3.511719 9.972657-6.105469.402343-1.210938.152343-2.820313-.574219-3.648438-1.894531-2.164062-5.460938-1.839843-6.117188.558594-.714843 2.574219-1.90625 2.582031-4.605468.027344-4.058594-3.847657-4.152344-11.808594-.183594-16.445313 1.867188-2.183594 1.851562-2.328125-.535156-4.582031-2.558594-2.425781-4.390625-7.230469-3.1875-8.371094.382812-.359375 2.40625-.074219 4.5.644531 2.972656 1.015626 4.144531 1.03125 5.371094.066407 3.707031-2.910157-.3125-6.660157-6.261719-5.832031-2.390625.332031-3.378907 0-3.722657-1.242188-.257812-.941406-2.355468-2.167969-4.710937-2.765625-4.214844-1.066406-4.242187-1.050781-4.242187 1.851563 0 3.179687-1.820313 3.78125-5.269532 1.738281-2.804687-1.65625-5.523437-.367188-5.523437 2.617187 0 2.785156 2.800781 4.160156 7.820312 3.839844 3.855469-.25 3.996094 2.613281.339844 6.730469l-2.628906 2.960937 2.082031 2.992188c3.085938 4.433594 2.828125 11.796875-.542969 15.457031l-2.648437 2.867187-1.730469-2.296874c-2.410156-3.195313-5.707031-2.984376-6.609375.425781-.59375 2.234375-.105469 3.253906 2.695312 5.625 1.878907 1.589843 4.621094 2.886719 6.09375 2.886719 3.652344 0 3.507813 2.875-.285156 5.769531l-2.964844 2.265625 4.585938.714844c2.523438.390624 4.585938 1.125 4.585938 1.636718 0 1.945313 3.175781 8.007813 4.199218 8.007813.589844 0 1.824219-1.019531 2.753906-2.269531zm0 0" fill="none" stroke-width="4.633204"/><path d="m557.0625 335.769531c4.167969-1.640625 13.1875-9.28125 13.1875-11.164062 0-.59375-2.488281-3.332031-5.53125-6.082031-6.402344-5.796876-13.367188-15.550782-15.171875-21.253907-.9375-2.976562-5.484375-8.0625-18.289063-20.484375l-17.042968-16.527344-4.910156 1.246094c-2.699219.683594-5.996094 1.261719-7.324219 1.28125-2.285157.03125-2.246094.167969.792969 2.519532l3.207031 2.480468 4.5-2.492187c4.359375-2.421875 4.515625-2.4375 5.050781-.488281.3125 1.136718-.367188 3.109374-1.570312 4.5625-1.167969 1.410156-1.832032 3.003906-1.476563 3.546874.351563.542969-.769531 1.679688-2.496094 2.527344-3.195312 1.566406-5.417969 6.722656-2.894531 6.722656 2.273438 0 7.28125-6.179687 6.703125-8.269531-.296875-1.070312-.152344-2.171875.320313-2.445312 1.949218-1.144531 1.824218 3.710937-.15625 6.09375-1.167969 1.40625-1.832032 3.003906-1.476563 3.546875.351563.542968-.769531 1.679687-2.496094 2.523437-3.175781 1.558594-5.421875 6.726563-2.917969 6.726563 2.453126 0 7.378907-5.902344 6.769532-8.113282-.320313-1.160156-.195313-2.328124.277344-2.605468 1.3125-.769532 2.019531 3.0625.910156 4.941406-.59375 1.003906-.585938 2.375.015625 3.464844 1.089843 1.96875-.015625 5.757812-2.027344 6.933594-.863281.503906-.277344 1.5 1.8125 3.078124 3.027344 2.28125 3.082031 2.523438 3.082031 12.605469 0 8.425781.34375 10.601563 1.894532 12.070313 1.738281 1.648437 1.886718 1.652344 1.886718.070312 0-1.71875 3.023438-3.828125 5.5-3.828125.730469 0 5.296875 3.867188 10.140625 8.589844 4.875 4.757813 9.976563 8.800781 11.421875 9.0625 1.4375.257813 2.992188.523437 3.457032.601563.460937.078124 2.648437-.570313 4.851562-1.441407zm0 0" fill="none" stroke-width="4.633204"/><path d="m504.964844 294.996094c0-2.714844-5.601563-5.617188-12.304688-6.367188-5.414062-.609375-5.5-.570312-5.5 2.128906 0 2.238282.847656 3.117188 4.582032 4.746094 6.003906 2.613282 13.222656 2.335938 13.222656-.507812zm0 0" fill="none" stroke-width="4.633204"/><path d="m511.109375 294.746094c2.734375-2.476563 4.027344-5.425782 2.382813-5.425782-1.890626 0-6.910157 4.503907-6.910157 6.199219 0 2.648438.933594 2.492188 4.527344-.773437zm0 0" fill="none" stroke-width="4.633204"/><path d="m505.28125 286.71875c.230469-1.535156-.714844-2.554688-3.558594-3.839844-6.128906-2.769531-13.457031-4.050781-15.222656-2.664062-3.253906 2.558594-1.085938 5.988281 4.164062 6.605468 2.117188.25 4.984376.890626 6.378907 1.433594 4.035156 1.566406 7.875.851563 8.238281-1.535156zm0 0" fill="none" stroke-width="4.633204"/><path d="m505.28125 278.507812c.332031-2.183593-1.070312-2.964843-12.484375-6.988281-8.519531-2.996093-12.292969-1.582031-9.570313 3.589844.949219 1.804687 2.542969 2.625 6.113282 3.164063 2.65625.394531 6.285156 1.175781 8.0625 1.726562 4.757812 1.476562 7.507812.957031 7.878906-1.492188zm0 0" fill="none" stroke-width="4.633204"/><path d="m511.003906 270.8125c1.71875-1.746094 3.128906-3.804688 3.128906-4.578125 0-2.5-6.800781 1.929687-7.667968 4.996094-1.039063 3.683593.644531 3.53125 4.539062-.417969zm0 0" fill="none" stroke-width="4.633204"/><path d="m505.285156 270.296875c.375-2.492187-3.765625-4.738281-11.914062-6.464844-5.972656-1.269531-8.609375-.550781-8.160156 2.222657.242187 1.519531 2.230468 2.625 7.878906 4.386718 9.035156 2.820313 11.75 2.789063 12.195312-.144531zm0 0" fill="none" stroke-width="4.633204"/><path d="m513.25 258.703125c10.433594-4.644531 11.339844-16.363281 1.496094-19.4375-4.085938-1.277344-6.695313-.589844-8.257813 2.175781-1.199219 2.121094-.398437 5.976563 1.242188 5.976563.554687 0 1.007812.714843 1.007812 1.585937 0 4.066406-15.9375 5.910156-22.472656 2.597656-2.296875-1.160156-3.292969-4.183593-1.386719-4.183593 1.429688 0 2.417969-3.078125 1.6875-5.253907-.996094-2.96875-3.980468-3.996093-8.320312-2.863281-9.78125 2.5625-9.507813 14.054688.453125 18.933594 8.167969 4 26.074219 4.246094 34.550781.46875zm0 0" fill="none" stroke-width="4.633204"/><path d="m506.753906 249.703125c.605469-.574219.34375-1.453125-.671875-2.25-2.214843-1.742187-2.097656-4.335937.335938-7.308594 1.824219-2.230469 2.058593-5.566406 2.683593-39.226562 1.085938-58.011719 5.402344-101.640625 11.085938-112.113281 2.261719-4.164063 1.945312-4.183594-3.902344-.203126-7.539062 5.128907-13.273437 11.804688-18.355468 21.359376-9.597657 18.046874-12.933594 42.316406-12.933594 94.132812 0 29.417969.199218 33.269531 1.875 36.035156 1.59375 2.628906 1.679687 3.597656.558594 6.40625-.722657 1.8125-1.050782 3.554688-.730469 3.859375 2.144531 2.027344 17.75 1.488281 20.054687-.691406zm0 0" fill="none" stroke-width="4.633204"/><path d="m594.453125 194.382812c.324219-.5-.398437-3.027343-1.605469-5.617187-1.890625-4.039063-2.644531-4.707031-5.335937-4.707031-8.417969 0-21.949219-3.765625-35.898438-9.984375-8.058593-3.589844-10.839843-4.417969-11.804687-3.5-2.46875 2.335937 1.628906 7.875 7.972656 10.789062 5.628906 2.585938 21.363281 5.757813 28.542969 5.757813 4.160156 0 4.257812.1875 1.890625 3.613281l-1.742188 2.519531 4.707032.121094c2.59375.066406 6.167968.472656 7.949218.898438 4.625 1.117187 4.671875 1.117187 5.324219.109374zm0 0" fill="none" stroke-width="4.633204"/></g><path d="m567.949219 399.628906 3.632812-2.09375 1.550781 2.097656c2.070313 2.800782 7.800782 2.769532 11.605469-.0625l2.90625-2.167968 2.429688 2.167968c3.203125 2.847657 9.175781 2.851563 12.992187.011719 2.675782-1.992187 3.046875-2.03125 4.816406-.515625 1.046876.902344 4.136719 1.925782 6.859376 2.28125 4.902343.632813 4.976562.601563 7.84375-3.703125 2.40625-3.601562 2.78125-5.0625 2.207031-8.558593-.378907-2.3125-.789063-6.046876-.90625-8.289063-.222657-4.054687-.195313-4.082031 5.714843-6.136719 3.265626-1.136718 7.039063-2.664062 8.394532-3.386718 2.359375-1.269532 8.871094-8.921876 8.871094-10.425782 0-.398437-2.542969-1.011718-5.652344-1.359375-12.363282-1.386719-14.453125-8.023437-6.417969-20.351562 13.101563-20.109375 21.011719-39.691407 21.066406-52.160157.023438-5.578124.34375-7.453124 1.058594-6.238281 2.925781 4.957031-2.320313 25.730469-10.265625 40.648438l-3.199219 6.011719 3.050781-.707032c1.683594-.386718 11.550782-4.550781 21.941407-9.257812 28.425781-12.871094 38.191406-15.394532 56.589843-14.621094 15.414063.648438 21.980469 3.660156 32.863282 15.074219 5.765625 6.046875 11.320312 10.375 21.480468 16.734375 21.640626 13.546875 22.546876 14.722656 23.574219 30.65625 1.042969 16.144531.527344 17.023437-11.683593 19.71875-10.4375 2.304687-16.980469 7.171875-18.734376 13.929687-.941406 3.609375 1.03125 3.714844 6.292969.332031l3.859375-2.476562 1.710938 2.476562c2.253906 3.261719 7.046875 3.273438 11.027344.03125l3.003906-2.449218 3.070312 2.449218c4.777344 3.804688 11.125 2.878907 12.917969-1.875.34375-.917968 1.265625-.625 3.125.996094 3.484375 3.03125 12.425781 4.328125 13.394531 1.945313.367188-.910157-.335937-3.15625-1.558594-4.988281-5.199218-7.800782-6.828124-11.519532-6.894531-15.765626-.097656-5.90625 1.664063-8.753906 8.382813-13.558593 8.160156-5.832031 10.683594-13.363281 4.476562-13.363281-3.828125 0-7.695312-3.382813-10.15625-8.902344-5.003906-11.21875-4.023437-23.792969 3.492188-44.710938 7.628906-21.253906 8.476562-25.171875 8.507812-39.382812.023438-11.488282-.265625-13.480469-2.882812-19.777344-1.597656-3.855469-4.839844-9.589844-7.203125-12.746094l-4.300781-5.742187 5.519531-4.578125c16.863281-13.96875 13.410156-36.832032-6.882813-45.636719-6.210937-2.695313-7.765625-2.933594-18.644531-2.859375-6.527344.042969-16.484375.902344-22.125 1.90625-5.746094 1.027344-15.476563 1.851562-22.152344 1.878906-10.601562.042969-12.40625-.21875-16.492187-2.394531-4.257813-2.265625-4.992188-3.34375-5.824219-8.585937-.171875-1.078126-.925781-2.152344-1.675781-2.386719-1.445313-.460938-8.140625 5.351562-9.128906 7.921875-.488282 1.269531-.886719 1.183594-2.320313-.507813-.945313-1.128906-2.277344-3.707031-2.949219-5.742187-1.6875-5.117188.386719-8.949219 6.398438-11.816406l4.660156-2.230469-2.75-1.703125c-5.671875-3.523438-15.320312-1.117188-18.808594 4.695312-.984375 1.640625-2.0625 2.984375-2.390625 2.988282-.328125.003906-2.203125-1.5625-4.171875-3.480469-7.324218-7.160157-4.804687-17.746094 4.992188-20.980469 5.226562-1.722656 9.847656-.410156 10.8125 3.074219 1.46875 5.320312 6.035156-1.671875 5.214844-7.988281-.542969-4.199219-.460938-4.339844 2.445312-4.339844 4.035156 0 12.632812 5.300781 15.292969 9.433594 3.089843 4.796874 2.867187 12.351562-.535157 17.980468l-2.671874 4.421875 3.492187-.699219c5.125-1.027343 10.097656-4.203124 12.609375-8.0625 2.664062-4.074218 2.945312-12.011718.589844-16.296874-2.285156-4.148438-2.023438-4.808594 1.355468-3.402344 5.746094 2.382812 8.816407 5.015625 11.125 9.523437 2.074219 4.0625 2.191407 5.070313 1.066407 9.296875-.691407 2.609375-2.234375 6.039063-3.425781 7.621094-1.855469 2.472656-1.921876 2.886719-.441407 2.886719 2.753907 0 8.507813-2.609375 10.550781-4.78125 1.027344-1.097657 2.53125-3.804688 3.339844-6.011719l1.46875-4.015625 1.683594 3.058594c2.382812 4.328125 7.019531 8.222656 12.671875 10.640625 6.078125 2.609375 8.609375 2.757812 5.429687.320312-2.144531-1.644531-6.09375-13.234375-4.898437-14.367187.707031-.667969 8.957031 5.683593 18.378906 14.136719 8.914063 8.003906 14.511719 10.625 22.699219 10.625 10.457031 0 16.542969-9.101563 11.84375-17.710938-2.738281-5.019531-8.839844-5.714844-12.414062-1.417969-1.640626 1.980469-2.089844 3.550781-1.605469 5.621094.585937 2.539063.355469 2.878906-1.957031 2.878906-3.042969 0-9.03125-3.886719-19.671876-12.765625-16.226562-13.542968-35.941406-25.015625-50.179687-29.210937-9.132813-2.691407-28.652344-3.742188-37.9375-2.039063-10.050781 1.835938-21.941406 7.59375-28.417969 13.75-11.480468 10.910156-11.660156 25.429688-.484375 38.652344l3.203125 3.789062-2.171875 3.363282c-3.152343 4.898437-2.878906 11.488281.671875 16.34375 1.5625 2.136718 3.140625 3.886718 3.503906 3.886718.367188-.003906.765626-1.375.890626-3.058593.3125-4.246094 2.136718-7.089844 5.265624-8.21875 2.816407-1.011719 4.640626-.535157 17.542969 4.617187 13.574219 5.417969 35.894531 5.789063 59.632813.996094 11.636718-2.351562 25.359375-2.214844 31.394531.3125 11.066406 4.636719 13.632813 16.699219 5.496094 25.855469-3.519531 3.960937-6.917969 5.574219-18.316407 8.707031-8.679687 2.378906-10.734374 2.539062-30.453124 2.339844-16.851563-.167969-22.90625.152344-29.78125 1.589844-7.46875 1.558593-12.0625 1.71875-33.992188 1.164062l-25.359375-.636719 2.8125 2.324219c1.546875 1.28125 3.730469 2.855469 4.855469 3.503906 1.910156 1.097656 1.851562 1.246094-.992188 2.300782-1.675781.617187-5.382812 1.125-8.242187 1.125h-5.203125l-.703125 4.421874c-.378907 2.429688-.351563 5.269532.066406 6.308594.625 1.53125.390625 1.75-1.222656 1.164063-1.097657-.394531-4.144531-1.179688-6.773438-1.738281-2.632812-.558594-6.171875-1.691407-7.867187-2.527344-2.851563-1.394532-3.171875-1.359375-4.222656.5-.9375 1.664062-9.75 8.222656-11.046876 8.222656-.207031 0-.480468-1.261719-.597656-2.808594-.121094-1.546875-1.390625-5.570312-2.824218-8.945312-1.433594-3.371094-2.933594-7.050782-3.328126-8.171875-.597656-1.699219-.863281-1.785157-1.585937-.515625-.480469.84375-1.175781 3.148437-1.550781 5.113281-.375 1.96875-1.699219 5.164063-2.949219 7.097656l-2.269531 3.53125-1.449219-3.015625c-1.554687-3.234375-4.132813-6.59375-5.070313-6.59375-.3125 0-.851562 1.039063-1.191406 2.300782-.714844 2.640624-6.832031 9.964843-8.324218 9.964843-.550782 0-1.003907-2.070312-1.003907-4.597656 0-2.53125-.484375-4.597656-1.078125-4.597656s-1.078125.652343-1.078125 1.449219c0 1.945312-5.222656 7.746093-6.976562 7.746093-.765625 0-1.996094.691407-2.734375 1.53125-1.925782 2.199219-3.503906 1.890625-2.695313-.527343.382813-1.128907.132813-3.777344-.542969-5.875-.683593-2.101563-1.410156-4.332032-1.613281-4.964844-.257812-.792969-2.132812-.582032-6.09375.6875-6.40625 2.050781-8.550781 1.6875-5.257812-.890625 1.203125-.945313 3.035156-4.207031 4.070312-7.257813 1.035157-3.050781 2.5625-5.753906 3.390625-6.011718 1.164063-.363282 1.101563.082031-.265625 1.9375-.984375 1.324218-1.789062 3.113281-1.792969 3.972656 0 .855468-.738281 2.890625-1.636718 4.519531-.898438 1.632813-1.460938 3.125-1.25 3.320313.207031.199218 2.644531-.730469 5.414062-2.054688l5.035156-2.417969.023438 2.160157c.007812 1.1875.617188 4.324218 1.347656 6.96875l1.324219 4.804687 3.429687-1.574219c3.503907-1.613281 6.824219-7.355468 6.824219-11.804687 0-2.203125 1.261719-1.863281 1.773438.476562.15625.6875.945312 3.261719 1.761719 5.722657l1.484374 4.476562 2.347657-2.828125c1.289062-1.554687 2.90625-4.601563 3.59375-6.773437 1.195312-3.773438 3.066406-5.390626 3.066406-2.652344 0 1.972656 5.386719 9.046875 6.425781 8.441406.503906-.292969 1.5-2.949219 2.21875-5.902344 1.5-6.140625 3.914063-10.316406 5.449219-9.417968.578125.339843.800781.992187.5 1.457031-.304687.460937.9375 4.457031 2.757813 8.871093 1.816406 4.414063 3.644531 8.863282 4.054687 9.878907.667969 1.636719 1.265625 1.398437 5.164063-2.042969 2.425781-2.144531 4.625-4.539062 4.890624-5.332031.402344-1.191407.945313-1.144531 3.210938.261719 3.171875 1.964843 13.839844 5.140624 14.664062 4.359374.304688-.292968.621094-3.09375.699219-6.226562l.144531-5.691406 3.066407.636718c1.683593.347657 5.234375.328126 7.882812-.046874l4.8125-.683594-4.289062-2.945313c-2.359375-1.621093-4.75-3.714843-5.304688-4.65625-.589843-1.003906-2.691406-1.855469-5.070312-2.058593-6.429688-.546876-17.820313-6.9375-17.820313-9.996094 0-.574219 1.570313.402344 3.5 2.171875 4.28125 3.921875 10.226563 6.382812 15.417969 6.382812h3.886719l-2.40625-3.199219c-1.378906-1.832031-2.613282-5.316406-2.90625-8.179687-.464844-4.570313-.945313-5.292969-5.714844-8.613281-2.863281-1.992188-6.414062-4.972656-7.886719-6.628906l-2.675781-3.015626-1.367188 3.574219c-.75 1.96875-1.667968 3.578125-2.039062 3.578125s-1.816406-1.148437-3.207031-2.554687c-1.394531-1.40625-2.816407-2.546875-3.15625-2.542969-.34375.007812-1.574219 1.898438-2.742188 4.207031l-2.125 4.195313-1.640625-2.417969c-.902344-1.332031-3.035156-3.683594-4.734375-5.230469-1.703125-1.542968-2.597656-2.808594-1.992187-2.808594.609375 0 2.710937 1.609376 4.671875 3.578126l3.5625 3.578124 1.449219-2.621093c.859374-1.558594 1.1875-3.945313.796874-5.878907-.570312-2.816406-.488281-2.980468.589844-1.214843.6875 1.128906 2.769532 3.28125 4.632813 4.792969l3.386719 2.746093 2.335937-4.277343c2.320313-4.261719 2.339844-4.269532 3.398437-1.726563 1.410157 3.402344 11.648438 11.792969 20.363282 16.695313 1.34375.753906.777344-1.84375-1.703125-7.820313-.660157-1.582031-1.199219-4.433594-1.199219-6.339844 0-2.824219-.8125-4.082031-4.425781-6.832031-5.21875-3.964844-6.902344-6.789062-7.886719-13.195312-.398438-2.589844-1.308594-5.476563-2.023438-6.410157-1.066406-1.382812-1.242187-.609375-.957031 4.207031.191407 3.246094-.234375 7.277344-.941406 8.964844l-1.285156 3.066406-.996094-2.558593c-.546875-1.402344-2.96875-3.84375-5.375-5.425781-2.414063-1.582032-4.105469-3.140626-3.761719-3.46875.34375-.324219 2.820313 1.121093 5.507813 3.203124 4.101562 3.179688 5 3.523438 5.570312 2.125.664063-1.644531 0-8.800781-1.292969-13.800781-.640624-2.5-.585937-2.488281 2.496094.59375 2.273438 2.273438 3.527344 4.980469 4.503906 9.707031 1.234376 6.007813 1.859376 7.007813 7.414063 11.882813 3.332031 2.929687 6.234375 5.160156 6.445313 4.960937.214843-.203124.636718-7.777343.9375-16.835937.578124-17.367187-.074219-21.5-4.257813-26.863281l-2.148437-2.757813 3.378906-3.648437c4.40625-4.75 6.425781-8.558594 7.304687-13.757813l.71875-4.230469-3.8125 3.609376c-3.125 2.960937-4.617187 3.609374-8.234375 3.609374-3.578125 0-4.976562-.597656-7.386718-3.167968-2.898438-3.085938-8.027344-6.050782-12.960938-7.496094-1.824219-.535156-2.425781-.300781-2.425781.933594 0 .902344-1.007813 3.507812-2.238281 5.792968l-2.238282 4.152344-4.6875-4.632812c-2.871094-2.84375-6.285156-5.054688-8.820312-5.722656-6.484375-1.703126-6.835938-1.535157-6.835938 3.296874 0 7.328126-3.128906 8.691407-8.761718 3.820313-4.292969-3.710937-7.851563-4.519531-15.988282-3.625l-6.289062.691406 1.132812 2.835938c.941406 2.375.730469 3.371093-1.289062 6.0625-3.285156 4.367187-7.554688 6.261719-14.125 6.261719-3.027344 0-6.816406.625-8.417969 1.390624-1.605469.765626-5.582031 1.648438-8.851563 1.960938-3.261718.308594-6.742187.867188-7.730468 1.238281-1.546875.578125-1.714844.101563-1.21875-3.414062.761718-5.382813-2.996094-9.351563-8.851563-9.351563-7.601562 0-11.109375 6.796875-8.136719 15.765625.574219 1.726563 1.324219 4.449219 1.671876 6.046875.351562 1.664063 3.777343 6.070313 7.972656 10.265625 4.042968 4.046875 7.863281 8.257813 8.488281 9.355469.628906 1.097656 2.703125 2.859375 4.605469 3.917969l3.472656 1.921875-.460938-3.707032c-.5-4.078124.386719-4.71875 2.554688-1.84375.777344 1.03125 2.746094 2.695313 4.378906 3.695313 2.570313 1.582031 2.96875 1.613281 2.96875.238281 0-.871094.523438-2.875 1.160156-4.457031l1.167969-2.878906 2.019531 3.914062c1.113282 2.152344 4.730469 7.046875 8.03125 10.875 6.417969 7.425781 10.328126 15.726563 8.308594 17.636719-.816406.773438-3.03125.714844-7.609375-.207031-3.558593-.714844-7.953125-1.089844-9.773437-.835938-3.714844.515625-4.007813.035157-1.71875-2.824219 2.40625-3.019531 2.027344-3.515624-2.710938-3.515624-5.480468 0-19.082031-2.628907-24.308594-4.699219-5.078124-2.007813-6.25-1.507813-7.742187 3.308593-.671875 2.171876-1.90625 6.097657-2.738281 8.730469l-1.515625 4.785157 5.5-.53125c3.015625-.285157 6.902343-.949219 8.632812-1.46875 1.730469-.515626 3.300781-.792969 3.492188-.609376.191406.179688-.578125 2.050782-1.714844 4.15625l-2.058594 3.828126 3.425781-.699219c1.886719-.382813 4.71875-1.324219 6.300782-2.089844 2.75-1.328125 2.96875-1.230469 5.136718 2.246094 2.667969 4.285156 4.800782 4.105469 5.273438-.429688.488281-4.695312 2.035156-4 4.941406 2.21875 2.789063 5.980469 5.695313 8.09375 6.253906 4.546875.1875-1.179687 1.691407-3.09375 3.34375-4.257812 3.34375-2.359375 5.863282-1.648438 7.3125 2.046875 1.492188 3.832031-1.84375 7.777343-11.546874 13.664062-19.4375 11.78125-30.738282 27.894531-33.964844 48.4375-2.910156 18.527344 6.179687 37.671875 24.410156 51.421875 8.722656 6.578125 22.582031 13.523438 21.703125 10.875-3.742187-11.253906-3.617187-32.726562.207031-36.351562.574219-.539063.375 1.699218-.4375 4.980468-3.035156 12.226563-1.71875 21.96875 6.066406 44.804688 7.042969 20.648438 6.070313 29.476562-3.898437 35.308594-3.203125 1.875-5.261719 2.183594-13.867187 2.082031-9.34375-.113281-10.359376.074219-13.359376 2.460937-2.902343 2.316407-6.671874 9.925782-6.671874 13.472657 0 1.921875 2.136718 1.667969 6.332031-.757813zm75.679687-179.101562c0-1.5-4.402344-5.5625-8.863281-8.179688-3.507813-2.058594-4.085937-2.121094-4.09375-.441406-.011719 2.542969-2.273437 8.941406-3.164063 8.941406-.5 0-1.242187-1.25-1.648437-2.777344-.402344-1.53125-2.101563-4.542968-3.773437-6.691406l-3.039063-3.914062-2.363281 3.625c-2.207032 3.378906-6.027344 6.691406-7.722656 6.691406-.40625 0-.484376-1.78125-.175782-3.957031.332032-2.363281.074219-4.238281-.644531-4.65625-.660156-.386719-1.203125-.253907-1.203125.296875 0 1.273437-5.304688 7.296875-6.429688 7.296875-.457031 0-1.105468-1.726563-1.4375-3.835938-.328124-2.105469-.886718-5.441406-1.242187-7.40625-.355469-1.972656.402344-.636719 1.679687 2.960938l2.324219 6.542969 2.546875-3.988282c1.402344-2.195312 2.550782-4.585937 2.554688-5.324218 0-.734376.476562-1.058594 1.054687-.722657.574219.335938 1.378907 2.972657 1.78125 5.855469l.734375 5.246094 2.800782-3.078125c1.542968-1.6875 3.355468-3.949219 4.015624-5.027344 1.191407-1.921875 1.257813-1.917969 3.621094.089844 1.328125 1.121093 3.367188 3.8125 4.53125 5.972656 1.167969 2.164063 2.273438 3.769531 2.464844 3.574219.191406-.195313.617188-2.417969.953125-4.949219.328125-2.53125.625-4.691406.652344-4.804687.167969-.628907 8.449219 4.75 11.511719 7.476562 1.972656 1.753906 3.839843 2.941406 4.15625 2.640625.316406-.300781.578124-2.882813.578124-5.742187 0-4.429688-.472656-5.617188-3.183593-8.039063-3.117188-2.789063-3.203125-2.804687-4.351563-.765625-1.496094 2.644531-3.257812 2.683594-3.257812.070312 0-1.90625-5.890625-9.234374-7.421875-9.234374-.398438 0-1.632813 1.613281-2.753907 3.578124-1.117187 1.96875-2.324218 3.578126-2.671874 3.574219-1.515626-.011719-9.816407-9.265625-9.8125-10.933593 0-1.332032.5625-.988282 2.015624 1.226562 1.105469 1.691406 3.316407 4.203125 4.910157 5.597656 3.226562 2.8125 4.398437 2.128906 5.644531-3.296875.359375-1.546875.972656-2.808593 1.371094-2.808593 1.378906 0 8.605468 7.675781 9.625 10.21875l1.019531 2.554687.773437-2.8125c.945313-3.433594 1.984376-3.566406 3.496094-.425781.628906 1.308594 3.742188 4.03125 6.917969 6.054687l5.769531 3.667969 1.160156-3.695312c.636719-2.027344 1.480469-3.191407 1.875-2.589844.589844.902344-.910156 7.019531-2.042968 8.335937-.171875.195313-2.042969-.894531-4.160156-2.421875l-3.84375-2.777344-.015626 4.972657c-.011718 2.738281-.308593 6.007812-.667968 7.273437-.699219 2.476563-2.554688 3.171875-2.554688.960938zm-28.78125-39.671875c-6.855468-5.726563-7.898437-7.035157-7.746094-9.75l.160157-2.890625.449219 2.789062c.261718 1.632813 2.085937 4.074219 4.390624 5.871094l3.941407 3.078125 2.421875-2.804687c1.335937-1.542969 2.441406-3.378907 2.460937-4.078126.058594-1.832031.386719-1.679687 5.03125 2.347657 4.125 3.582031 4.191407 3.601562 4.804688 1.277343.339843-1.289062.21875-3.726562-.269531-5.40625-1.347657-4.625-1.085938-5.324218.957031-2.535156 1.015625 1.390625 2.65625 3.351563 3.636719 4.367188 1.710937 1.761718 1.816406 1.734375 2.453124-.515625.363282-1.289063.667969-3.65625.675782-5.253907l.015625-2.90625 3.726562 4.214844c3.472657 3.941406 3.789063 4.085938 4.851563 2.210938.625-1.109375 1.144531-3.765625 1.152344-5.910156.011718-2.769532.304687-3.46875 1.011718-2.417969 1.175782 1.761719.355469 6.5625-1.816406 10.652343l-1.558594 2.933594-2.046875-3.191406c-2.621093-4.078125-3.492187-4.011719-5.171875.386719-1.585937 4.15625-2.621094 4.476562-4.167968 1.277343-1-2.066406-1.191407-1.816406-1.898438 2.53125l-.789062 4.832032-4.734376-3.671875-4.730468-3.671875-2.128906 2.417968c-1.171876 1.328126-2.144532 2.996094-2.164063 3.695313-.039063 1.519531-1.179687 1.570313-2.914063.121094zm61.023438-21.328125c-2.5-2.253906-4.21875-4.394532-3.824219-4.769532s.835937-.480468.988281-.238281c.144532.242188 2.1875 2.390625 4.53125 4.769531 5.40625 5.480469 4.292969 5.636719-1.695312.238282zm-81.277344-8.398438c-2.277344-3.074218-2.117188-5.109375.644531-8.4375 2-2.402344 2.914063-2.734375 6.402344-2.289062 2.238281.285156 7.050781 2.261718 10.699219 4.394531 4.214844 2.460937 8.570312 4.113281 11.949218 4.523437 2.921876.355469 5.3125.488282 5.3125.296876 0-.191407-1.214843-2.167969-2.699218-4.398438-3.523438-5.285156-3.402344-5.851562.570312-2.683594 4.078125 3.25 8.960938 4.203125 19.867188 3.867188l5.324218-.15625-3.089843-3.058594c-4.324219-4.273438-2.992188-4.652344 1.78125-.511719 4.476562 3.886719 4.195312 4.160157-5.226563 5.097657-4.003906.398437-8.3125.109374-11.886718-.800782-5.355469-1.359375-5.5625-1.339844-4.550782.457032.585938 1.03125 1.535156 1.878906 2.101563 1.878906.574219 0 1.042969.523437 1.042969 1.164062 0 1.972656-11.5625.238282-17.089844-2.558594-12.625-6.394531-14.214844-6.949218-17.21875-6-1.671875.527344-3.347656 2.066407-3.925782 3.613282-1.921874 5.15625 5.390626 9.164062 8.40625 4.605468.875-1.316406.671876-2.222656-.867187-3.832031-2.105469-2.199219-1.910156-2.515625.929687-1.480469 2.019532.730469 2.292969 5.574219.417969 7.347657-2.148437 2.035156-7.046875 1.460937-8.894531-1.039063zm49.734375-12.738281c-1.578125-1.496094-.339844-1.863281 6.738281-1.992187 8.757813-.167969 14.074219-1.625 20.347656-5.589844 5.03125-3.171875 6.394532-2.546875 1.621094.746094-4.355468 3-11.144531 5.3125-17.699218 6.015624-3.175782.339844-6.792969.8125-8.042969 1.050782-1.242188.238281-2.578125.132812-2.964844-.230469zm75.214844 260.828125 3.917969-2.519531 2.65625 2.519531c3.484374 3.296875 7.566406 3.222656 10.914062-.199219 1.460938-1.492187 2.777344-2.527343 2.917969-2.296875.140625.226563.792969 1.332032 1.449219 2.460938.824218 1.417968 2.527343 2.136718 5.597656 2.351562 3.703125.265625 4.695312-.09375 6.167968-2.222656l1.753907-2.535156 3.855469 2.476562c10.558593 6.789063 16.183593-.332031 11.464843-14.503906-2.398437-7.210938-1.082031-11.261719 6.652344-20.433594 3.261719-3.871094 5.933594-8 5.933594-9.175781 0-1.882813-.601563-2.132813-4.9375-2.046875-4.15625.085938-5.375-.363281-7.558594-2.769531-3.554687-3.914063-3.34375-8.398438.632813-13.367188l3.171874-3.976562-5.628906-3.820313c-3.097656-2.105468-8.683594-7.078125-12.417968-11.058594-8.375-8.929687-16.617188-13.167968-27.480469-14.125l-7.285157-.644531.011719 5.507813c.019531 7.101562 3.347657 13.929687 12.441407 25.496094 10.335937 13.144531 11.058593 15.183593 11.472656 32.367187l.355468 14.539063-2.992187 2.835937c-2.699219 2.5625-3.921875 2.894531-12.640625 3.394531-8.304688.480469-10.046875.90625-12.484375 3.066406-3.238281 2.871094-4.203125 4.425782-5.203125 8.386719-.582031 2.308594-.347656 2.808594 1.316406 2.808594 1.117188 0 3.792969-1.132813 5.945313-2.515625zm-222.191407-37.570312c.921876-1.25 1.675782-3.261719 1.675782-4.480469 0-1.835938.820312-2.328125 4.863281-2.898438l4.855469-.691406-3.242188-2.585937c-3.847656-3.066407-4.203125-5.464844-.808594-5.46875 3.378907 0 9.101563-3.511719 9.972657-6.105469.402343-1.210938.152343-2.820313-.574219-3.648438-1.894531-2.164062-5.460938-1.839843-6.117188.558594-.714843 2.574219-1.90625 2.582031-4.605468.027344-4.058594-3.847657-4.152344-11.808594-.183594-16.445313 1.867188-2.183594 1.851562-2.328125-.535156-4.582031-2.558594-2.425781-4.390625-7.230469-3.1875-8.371094.382812-.359375 2.40625-.074219 4.5.644531 2.972656 1.015626 4.144531 1.03125 5.371094.066407 3.707031-2.910157-.3125-6.660157-6.261719-5.832031-2.390625.332031-3.378907 0-3.722657-1.242188-.257812-.941406-2.355468-2.167969-4.710937-2.765625-4.214844-1.066406-4.242187-1.050781-4.242187 1.851563 0 3.179687-1.820313 3.78125-5.269532 1.738281-2.804687-1.65625-5.523437-.367188-5.523437 2.617187 0 2.785156 2.800781 4.160156 7.820312 3.839844 3.855469-.25 3.996094 2.613281.339844 6.730469l-2.628906 2.960937 2.082031 2.992188c3.085938 4.433594 2.828125 11.796875-.542969 15.457031l-2.648437 2.867187-1.730469-2.296874c-2.410156-3.195313-5.707031-2.984376-6.609375.425781-.59375 2.234375-.105469 3.253906 2.695312 5.625 1.878907 1.589843 4.621094 2.886719 6.09375 2.886719 3.652344 0 3.507813 2.875-.285156 5.769531l-2.964844 2.265625 4.585938.714844c2.523438.390624 4.585938 1.125 4.585938 1.636718 0 1.945313 3.175781 8.007813 4.199218 8.007813.589844 0 1.824219-1.019531 2.753906-2.269531zm59.710938-25.878907c4.167969-1.640625 13.1875-9.28125 13.1875-11.164062 0-.59375-2.488281-3.332031-5.53125-6.082031-6.402344-5.796876-13.367188-15.550782-15.171875-21.253907-.9375-2.976562-5.484375-8.0625-18.289063-20.484375l-17.042968-16.527344-4.910156 1.246094c-2.699219.683594-5.996094 1.261719-7.324219 1.28125-2.285157.03125-2.246094.167969.792969 2.519532l3.207031 2.480468 4.5-2.492187c4.359375-2.421875 4.515625-2.4375 5.050781-.488281.3125 1.136718-.367188 3.109374-1.570312 4.5625-1.167969 1.410156-1.832032 3.003906-1.476563 3.546874.351563.542969-.769531 1.679688-2.496094 2.527344-3.195312 1.566406-5.417969 6.722656-2.894531 6.722656 2.273438 0 7.28125-6.179687 6.703125-8.269531-.296875-1.070312-.152344-2.171875.320313-2.445312 1.949218-1.144531 1.824218 3.710937-.15625 6.09375-1.167969 1.40625-1.832032 3.003906-1.476563 3.546875.351563.542968-.769531 1.679687-2.496094 2.523437-3.175781 1.558594-5.421875 6.726563-2.917969 6.726563 2.453126 0 7.378907-5.902344 6.769532-8.113282-.320313-1.160156-.195313-2.328124.277344-2.605468 1.3125-.769532 2.019531 3.0625.910156 4.941406-.59375 1.003906-.585938 2.375.015625 3.464844 1.089843 1.96875-.015625 5.757812-2.027344 6.933594-.863281.503906-.277344 1.5 1.8125 3.078124 3.027344 2.28125 3.082031 2.523438 3.082031 12.605469 0 8.425781.34375 10.601563 1.894532 12.070313 1.738281 1.648437 1.886718 1.652344 1.886718.070312 0-1.71875 3.023438-3.828125 5.5-3.828125.730469 0 5.296875 3.867188 10.140625 8.589844 4.875 4.757813 9.976563 8.800781 11.421875 9.0625 1.4375.257813 2.992188.523437 3.457032.601563.460937.078124 2.648437-.570313 4.851562-1.441407zm-52.097656-40.773437c0-2.714844-5.601563-5.617188-12.304688-6.367188-5.414062-.609375-5.5-.570312-5.5 2.128906 0 2.238282.847656 3.117188 4.582032 4.746094 6.003906 2.613282 13.222656 2.335938 13.222656-.507812zm6.144531-.25c2.734375-2.476563 4.027344-5.425782 2.382813-5.425782-1.890626 0-6.910157 4.503907-6.910157 6.199219 0 2.648438.933594 2.492188 4.527344-.773437zm-5.828125-8.027344c.230469-1.535156-.714844-2.554688-3.558594-3.839844-6.128906-2.769531-13.457031-4.050781-15.222656-2.664062-3.253906 2.558594-1.085938 5.988281 4.164062 6.605468 2.117188.25 4.984376.890626 6.378907 1.433594 4.035156 1.566406 7.875.851563 8.238281-1.535156zm0-8.210938c.332031-2.183593-1.070312-2.964843-12.484375-6.988281-8.519531-2.996093-12.292969-1.582031-9.570313 3.589844.949219 1.804687 2.542969 2.625 6.113282 3.164063 2.65625.394531 6.285156 1.175781 8.0625 1.726562 4.757812 1.476562 7.507812.957031 7.878906-1.492188zm5.722656-7.695312c1.71875-1.746094 3.128906-3.804688 3.128906-4.578125 0-2.5-6.800781 1.929687-7.667968 4.996094-1.039063 3.683593.644531 3.53125 4.539062-.417969zm-5.71875-.515625c.375-2.492187-3.765625-4.738281-11.914062-6.464844-5.972656-1.269531-8.609375-.550781-8.160156 2.222657.242187 1.519531 2.230468 2.625 7.878906 4.386718 9.035156 2.820313 11.75 2.789063 12.195312-.144531zm7.964844-11.59375c10.433594-4.644531 11.339844-16.363281 1.496094-19.4375-4.085938-1.277344-6.695313-.589844-8.257813 2.175781-1.199219 2.121094-.398437 5.976563 1.242188 5.976563.554687 0 1.007812.714843 1.007812 1.585937 0 4.066406-15.9375 5.910156-22.472656 2.597656-2.296875-1.160156-3.292969-4.183593-1.386719-4.183593 1.429688 0 2.417969-3.078125 1.6875-5.253907-.996094-2.96875-3.980468-3.996093-8.320312-2.863281-9.78125 2.5625-9.507813 14.054688.453125 18.933594 8.167969 4 26.074219 4.246094 34.550781.46875zm-6.496094-9c.605469-.574219.34375-1.453125-.671875-2.25-2.214843-1.742187-2.097656-4.335937.335938-7.308594 1.824219-2.230469 2.058593-5.566406 2.683593-39.226562 1.085938-58.011719 5.402344-101.640625 11.085938-112.113281 2.261719-4.164063 1.945312-4.183594-3.902344-.203126-7.539062 5.128907-13.273437 11.804688-18.355468 21.359376-9.597657 18.046874-12.933594 42.316406-12.933594 94.132812 0 29.417969.199218 33.269531 1.875 36.035156 1.59375 2.628906 1.679687 3.597656.558594 6.40625-.722657 1.8125-1.050782 3.554688-.730469 3.859375 2.144531 2.027344 17.75 1.488281 20.054687-.691406zm87.699219-55.320313c.324219-.5-.398437-3.027343-1.605469-5.617187-1.890625-4.039063-2.644531-4.707031-5.335937-4.707031-8.417969 0-21.949219-3.765625-35.898438-9.984375-8.058593-3.589844-10.839843-4.417969-11.804687-3.5-2.46875 2.335937 1.628906 7.875 7.972656 10.789062 5.628906 2.585938 21.363281 5.757813 28.542969 5.757813 4.160156 0 4.257812.1875 1.890625 3.613281l-1.742188 2.519531 4.707032.121094c2.59375.066406 6.167968.472656 7.949218.898438 4.625 1.117187 4.671875 1.117187 5.324219.109374zm0 0" fill="#ffb700" fill-rule="evenodd"/></svg>