<?xml version="1.0" encoding="UTF-8"?>
<svg xmlns="http://www.w3.org/2000/svg" xmlns:xlink="http://www.w3.org/1999/xlink" width="128pt" height="64pt" viewBox="0 0 128 64" version="1.1">
<g id="surface967">
<rect x="0" y="0" width="128" height="64" style="fill:rgb(7.058716%,67.842102%,16.862488%);fill-opacity:1;stroke:none;"/>
<path style=" stroke:none;fill-rule:evenodd;fill:rgb(99.998474%,80.783081%,0%);fill-opacity:1;" d="M 0 18.285156 L 128 18.285156 L 128 45.714844 L 0 45.714844 Z M 0 18.285156 "/>
<path style=" stroke:none;fill-rule:evenodd;fill:rgb(82.351685%,6.274414%,20.391846%);fill-opacity:1;" d="M 0 0 L 0 64 L 32 32 Z M 0 0 "/>
<path style=" stroke:none;fill-rule:evenodd;fill:rgb(0%,0%,0%);fill-opacity:1;" d="M 64 22.855469 L 61.175781 31.550781 L 65.523438 32.964844 Z M 64 22.855469 "/>
<path style=" stroke:none;fill-rule:evenodd;fill:rgb(0%,0%,0%);fill-opacity:1;" d="M 64 22.855469 L 66.824219 31.550781 L 62.476562 32.964844 Z M 64 22.855469 "/>
<path style=" stroke:none;fill-rule:evenodd;fill:rgb(0%,0%,0%);fill-opacity:1;" d="M 72.695312 29.175781 L 63.550781 29.175781 L 63.550781 33.746094 Z M 72.695312 29.175781 "/>
<path style=" stroke:none;fill-rule:evenodd;fill:rgb(0%,0%,0%);fill-opacity:1;" d="M 72.695312 29.175781 L 65.296875 34.546875 L 62.613281 30.851562 Z M 72.695312 29.175781 "/>
<path style=" stroke:none;fill-rule:evenodd;fill:rgb(0%,0%,0%);fill-opacity:1;" d="M 69.375 39.398438 L 66.546875 30.703125 L 62.199219 32.113281 Z M 69.375 39.398438 "/>
<path style=" stroke:none;fill-rule:evenodd;fill:rgb(0%,0%,0%);fill-opacity:1;" d="M 69.375 39.398438 L 61.976562 34.023438 L 64.664062 30.324219 Z M 69.375 39.398438 "/>
<path style=" stroke:none;fill-rule:evenodd;fill:rgb(0%,0%,0%);fill-opacity:1;" d="M 58.625 39.398438 L 66.023438 34.023438 L 63.335938 30.324219 Z M 58.625 39.398438 "/>
<path style=" stroke:none;fill-rule:evenodd;fill:rgb(0%,0%,0%);fill-opacity:1;" d="M 58.625 39.398438 L 61.453125 30.703125 L 65.800781 32.113281 Z M 58.625 39.398438 "/>
<path style=" stroke:none;fill-rule:evenodd;fill:rgb(0%,0%,0%);fill-opacity:1;" d="M 55.304688 29.175781 L 62.703125 34.546875 L 65.386719 30.851562 Z M 55.304688 29.175781 "/>
<path style=" stroke:none;fill-rule:evenodd;fill:rgb(0%,0%,0%);fill-opacity:1;" d="M 55.304688 29.175781 L 64.449219 29.175781 L 64.449219 33.746094 Z M 55.304688 29.175781 "/>
<path style=" stroke:none;fill-rule:evenodd;fill:rgb(0%,0%,0%);fill-opacity:1;" d="M 96 22.855469 L 93.175781 31.550781 L 97.523438 32.964844 Z M 96 22.855469 "/>
<path style=" stroke:none;fill-rule:evenodd;fill:rgb(0%,0%,0%);fill-opacity:1;" d="M 96 22.855469 L 98.824219 31.550781 L 94.476562 32.964844 Z M 96 22.855469 "/>
<path style=" stroke:none;fill-rule:evenodd;fill:rgb(0%,0%,0%);fill-opacity:1;" d="M 104.695312 29.175781 L 95.550781 29.175781 L 95.550781 33.746094 Z M 104.695312 29.175781 "/>
<path style=" stroke:none;fill-rule:evenodd;fill:rgb(0%,0%,0%);fill-opacity:1;" d="M 104.695312 29.175781 L 97.296875 34.546875 L 94.613281 30.851562 Z M 104.695312 29.175781 "/>
<path style=" stroke:none;fill-rule:evenodd;fill:rgb(0%,0%,0%);fill-opacity:1;" d="M 101.375 39.398438 L 98.546875 30.703125 L 94.199219 32.113281 Z M 101.375 39.398438 "/>
<path style=" stroke:none;fill-rule:evenodd;fill:rgb(0%,0%,0%);fill-opacity:1;" d="M 101.375 39.398438 L 93.976562 34.023438 L 96.664062 30.324219 Z M 101.375 39.398438 "/>
<path style=" stroke:none;fill-rule:evenodd;fill:rgb(0%,0%,0%);fill-opacity:1;" d="M 90.625 39.398438 L 98.023438 34.023438 L 95.335938 30.324219 Z M 90.625 39.398438 "/>
<path style=" stroke:none;fill-rule:evenodd;fill:rgb(0%,0%,0%);fill-opacity:1;" d="M 90.625 39.398438 L 93.453125 30.703125 L 97.800781 32.113281 Z M 90.625 39.398438 "/>
<path style=" stroke:none;fill-rule:evenodd;fill:rgb(0%,0%,0%);fill-opacity:1;" d="M 87.304688 29.175781 L 94.703125 34.546875 L 97.386719 30.851562 Z M 87.304688 29.175781 "/>
<path style=" stroke:none;fill-rule:evenodd;fill:rgb(0%,0%,0%);fill-opacity:1;" d="M 87.304688 29.175781 L 96.449219 29.175781 L 96.449219 33.746094 Z M 87.304688 29.175781 "/>
</g>
</svg>
