<?xml version="1.0" encoding="UTF-8"?>
<svg xmlns="http://www.w3.org/2000/svg" xmlns:xlink="http://www.w3.org/1999/xlink" width="128pt" height="64pt" viewBox="0 0 128 64" version="1.1">
<g id="surface1092">
<rect x="0" y="0" width="128" height="64" style="fill:rgb(0%,39.99939%,0%);fill-opacity:1;stroke:none;"/>
<path style=" stroke:none;fill-rule:evenodd;fill:rgb(99.998474%,99.998474%,99.998474%);fill-opacity:1;" d="M 0 0 L 128 0 L 128 45.714844 L 0 45.714844 Z M 0 0 "/>
<path style=" stroke:none;fill-rule:evenodd;fill:rgb(79.998779%,0%,0%);fill-opacity:1;" d="M 0 0 L 128 0 L 128 18.285156 L 0 18.285156 Z M 0 0 "/>
<path style=" stroke:none;fill-rule:evenodd;fill:rgb(97.253418%,76.469421%,0%);fill-opacity:1;" d="M 61.441406 31.148438 C 61.6875 30.722656 62.230469 30.496094 62.707031 30.617188 C 63.183594 30.738281 63.554688 31.199219 63.570312 31.6875 L 63.570312 36.261719 L 64.429688 36.261719 L 64.429688 31.6875 C 64.445312 31.199219 64.816406 30.738281 65.292969 30.617188 C 65.769531 30.496094 66.3125 30.722656 66.558594 31.148438 C 66.828125 30.34375 66.683594 29.410156 66.1875 28.722656 C 65.6875 28.03125 64.851562 27.605469 64 27.605469 C 63.148438 27.605469 62.3125 28.03125 61.8125 28.722656 C 61.316406 29.410156 61.171875 30.34375 61.441406 31.148438 Z M 61.441406 31.148438 "/>
<path style=" stroke:none;fill-rule:evenodd;fill:rgb(99.998474%,99.998474%,99.998474%);fill-opacity:1;" d="M 62.050781 29.957031 C 62.425781 29.878906 62.820312 29.925781 63.167969 30.078125 C 63.511719 30.234375 63.808594 30.5 64 30.828125 C 64.191406 30.5 64.488281 30.234375 64.832031 30.078125 C 65.179688 29.925781 65.574219 29.878906 65.949219 29.957031 C 65.882812 29.492188 65.644531 29.050781 65.292969 28.742188 C 64.9375 28.433594 64.46875 28.257812 64 28.257812 C 63.53125 28.257812 63.0625 28.433594 62.707031 28.742188 C 62.355469 29.050781 62.117188 29.492188 62.050781 29.957031 Z M 62.050781 29.957031 "/>
<path style=" stroke:none;fill-rule:evenodd;fill:rgb(97.253418%,76.469421%,0%);fill-opacity:1;" d="M 63.570312 34.433594 C 63.511719 35.078125 63.269531 35.707031 62.878906 36.222656 C 62.488281 36.738281 61.949219 37.140625 61.347656 37.371094 C 60.742188 37.601562 60.074219 37.65625 59.4375 37.53125 C 58.800781 37.40625 58.203125 37.101562 57.734375 36.65625 C 57.328125 37.671875 56.441406 38.480469 55.390625 38.789062 C 54.34375 39.09375 53.160156 38.890625 52.273438 38.253906 C 52.605469 41.585938 57.597656 40.90625 57.96875 37.667969 C 59.539062 40.421875 62.988281 39.632812 63.996094 36.257812 Z M 63.570312 34.433594 "/>
<path style=" stroke:none;fill-rule:evenodd;fill:rgb(97.253418%,76.469421%,0%);fill-opacity:1;" d="M 64.429688 34.433594 C 64.488281 35.078125 64.730469 35.707031 65.121094 36.222656 C 65.511719 36.738281 66.050781 37.140625 66.652344 37.371094 C 67.257812 37.601562 67.925781 37.65625 68.5625 37.53125 C 69.199219 37.40625 69.796875 37.101562 70.265625 36.65625 C 70.671875 37.671875 71.558594 38.480469 72.609375 38.789062 C 73.65625 39.09375 74.839844 38.890625 75.726562 38.253906 C 75.394531 41.585938 70.402344 40.90625 70.03125 37.667969 C 68.460938 40.421875 65.011719 39.632812 64.003906 36.257812 Z M 64.429688 34.433594 "/>
<path style=" stroke:none;fill-rule:evenodd;fill:rgb(97.253418%,76.469421%,0%);fill-opacity:1;" d="M 60.238281 40.347656 C 59.539062 41.851562 58.148438 42.109375 56.929688 40.894531 C 56.929688 40.894531 57.417969 40.550781 57.945312 40.457031 C 57.847656 40.035156 58.046875 39.457031 58.332031 39.144531 C 58.628906 39.347656 59.042969 39.757812 59.152344 40.230469 C 59.882812 40.136719 60.238281 40.347656 60.238281 40.347656 Z M 60.238281 40.347656 "/>
<path style=" stroke:none;fill-rule:evenodd;fill:rgb(97.253418%,76.469421%,0%);fill-opacity:1;" d="M 65.6875 40.179688 C 64.753906 41.546875 63.339844 41.578125 62.335938 40.179688 C 62.335938 40.179688 62.875 39.917969 63.40625 39.910156 C 63.378906 39.480469 63.671875 38.945312 64 38.679688 C 64.261719 38.929688 64.605469 39.402344 64.632812 39.886719 C 65.371094 39.910156 65.6875 40.179688 65.6875 40.179688 Z M 65.6875 40.179688 "/>
<path style=" stroke:none;fill-rule:evenodd;fill:rgb(97.253418%,76.469421%,0%);fill-opacity:1;" d="M 71.089844 40.898438 C 69.949219 42.097656 68.546875 41.894531 67.78125 40.355469 C 67.78125 40.355469 68.355469 40.183594 68.882812 40.261719 C 68.925781 39.835938 69.300781 39.351562 69.671875 39.144531 C 69.886719 39.433594 70.152344 39.953125 70.097656 40.4375 C 70.824219 40.582031 71.089844 40.898438 71.089844 40.898438 Z M 71.089844 40.898438 "/>
<path style="fill:none;stroke-width:1.462857;stroke-linecap:butt;stroke-linejoin:miter;stroke:rgb(97.253418%,76.469421%,0%);stroke-opacity:1;stroke-miterlimit:4;" d="M 55.132812 43.703125 C 60.878906 41.992188 67.121094 41.992188 72.867188 43.703125 "/>
<path style=" stroke:none;fill-rule:evenodd;fill:rgb(97.253418%,76.469421%,0%);fill-opacity:1;" d="M 64 19.65625 L 65.34375 23.792969 L 61.824219 21.238281 L 66.175781 21.238281 L 62.65625 23.792969 Z M 64 19.65625 "/>
<path style=" stroke:none;fill-rule:evenodd;fill:rgb(97.253418%,76.469421%,0%);fill-opacity:1;" d="M 57.601562 21.371094 L 58.945312 25.507812 L 55.425781 22.953125 L 59.773438 22.953125 L 56.257812 25.507812 Z M 57.601562 21.371094 "/>
<path style=" stroke:none;fill-rule:evenodd;fill:rgb(97.253418%,76.469421%,0%);fill-opacity:1;" d="M 52.914062 26.058594 L 54.257812 30.191406 L 50.742188 27.636719 L 55.089844 27.636719 L 51.570312 30.191406 Z M 52.914062 26.058594 "/>
<path style=" stroke:none;fill-rule:evenodd;fill:rgb(97.253418%,76.469421%,0%);fill-opacity:1;" d="M 51.199219 32.457031 L 52.542969 36.59375 L 49.027344 34.035156 L 53.375 34.035156 L 49.855469 36.59375 Z M 51.199219 32.457031 "/>
<path style=" stroke:none;fill-rule:evenodd;fill:rgb(97.253418%,76.469421%,0%);fill-opacity:1;" d="M 70.398438 21.371094 L 69.054688 25.507812 L 72.574219 22.953125 L 68.226562 22.953125 L 71.742188 25.507812 Z M 70.398438 21.371094 "/>
<path style=" stroke:none;fill-rule:evenodd;fill:rgb(97.253418%,76.469421%,0%);fill-opacity:1;" d="M 75.085938 26.058594 L 73.742188 30.191406 L 77.257812 27.636719 L 72.910156 27.636719 L 76.429688 30.191406 Z M 75.085938 26.058594 "/>
<path style=" stroke:none;fill-rule:evenodd;fill:rgb(97.253418%,76.469421%,0%);fill-opacity:1;" d="M 76.800781 32.457031 L 75.457031 36.59375 L 78.972656 34.035156 L 74.625 34.035156 L 78.144531 36.59375 Z M 76.800781 32.457031 "/>
</g>
</svg>
