<svg viewBox="0 0 1000 500" xmlns="http://www.w3.org/2000/svg"><path d="m0 0h1000v500h-1000z" fill="#060"/><g fill-rule="evenodd"><path d="m0 0h1000v357.140625h-1000zm0 0" fill="#fff"/><path d="m0 0h1000v142.859375h-1000zm0 0" fill="#c00"/><path d="m480 243.355469c1.933594-3.324219 6.179688-5.109375 9.910156-4.167969 3.726563.945312 6.613282 4.542969 6.734375 8.382812v35.714844h6.710938v-35.714844c.121093-3.839843 3.007812-7.4375 6.734375-8.382812 3.730468-.941406 7.976562.84375 9.910156 4.167969 2.089844-6.304688.972656-13.582031-2.914062-18.964844-3.890626-5.382813-10.445313-8.738281-17.085938-8.738281s-13.195312 3.355468-17.085938 8.738281c-3.886718 5.382813-5.003906 12.660156-2.914062 18.964844zm0 0" fill="#f8c300"/><path d="m484.785156 234.039062c2.90625-.597656 6-.257812 8.703125.957032 2.710938 1.214844 5.023438 3.292968 6.511719 5.859375 1.488281-2.566407 3.800781-4.644531 6.511719-5.859375 2.703125-1.214844 5.796875-1.554688 8.703125-.957032-.5-3.640624-2.351563-7.074218-5.121094-9.488281-2.765625-2.410156-6.425781-3.78125-10.09375-3.78125s-7.328125 1.371094-10.09375 3.78125c-2.769531 2.414063-4.621094 5.847657-5.121094 9.488281zm0 0" fill="#fff"/><path d="m496.644531 269.019531c-.453125 5.03125-2.34375 9.929688-5.398437 13.960938-3.050782 4.027343-7.253906 7.175781-11.976563 8.976562-4.726562 1.796875-9.953125 2.242188-14.914062 1.265625-4.960938-.976562-9.632813-3.375-13.316407-6.832031-3.160156 7.925781-10.105468 14.238281-18.292968 16.636719-8.191406 2.390625-17.441406.8125-24.371094-4.164063 2.601562 26.019531 41.605469 20.707031 44.511719-4.59375 12.253906 21.515625 39.195312 15.351563 47.078125-10.996093zm0 0" fill="#f8c300"/><path d="m503.355469 269.019531c.453125 5.03125 2.34375 9.929688 5.398437 13.960938 3.050782 4.027343 7.253906 7.175781 11.976563 8.976562 4.726562 1.796875 9.953125 2.242188 14.914062 1.265625 4.960938-.976562 9.632813-3.375 13.316407-6.832031 3.160156 7.925781 10.105468 14.238281 18.292968 16.636719 8.191406 2.390625 17.441406.8125 24.371094-4.164063-2.601562 26.019531-41.605469 20.707031-44.511719-4.59375-12.253906 21.515625-39.195312 15.351563-47.078125-10.996093zm0 0" fill="#f8c300"/><path d="m470.601562 315.222656c-5.445312 11.746094-16.320312 13.765625-25.832031 4.28125 0 0 3.820313-2.703125 7.914063-3.449218-.761719-3.265626.8125-7.785157 3.027344-10.226563 2.328124 1.585937 5.578124 4.777344 6.402343 8.476563 5.734375-.738282 8.488281.917968 8.488281.917968zm0 0" fill="#f8c300"/><path d="m513.171875 313.890625c-7.285156 10.707031-18.34375 10.925781-26.183594.019531 0 0 4.210938-2.039062 8.375-2.109375-.230469-3.351562 2.0625-7.554687 4.648438-9.605469 2.035156 1.949219 4.71875 5.621094 4.933593 9.414063 5.78125.199219 8.226563 2.28125 8.226563 2.28125zm0 0" fill="#f8c300"/><path d="m555.386719 319.511719c-8.921875 9.375-19.871094 7.792969-25.832031-4.246094 0 0 4.488281-1.328125 8.605468-.71875.320313-3.339844 3.261719-7.117187 6.152344-8.714844 1.691406 2.25 3.742188 6.308594 3.332031 10.085938 5.671875 1.140625 7.742188 3.59375 7.742188 3.59375zm0 0" fill="#f8c300"/></g><path d="m430.710938 341.425781c44.898437-13.363281 93.679687-13.363281 138.578124 0" fill="none" stroke="#f8c300" stroke-width="11.428572"/><path d="m500 153.574219 10.496094 32.300781-27.480469-19.964844h33.96875l-27.480469 19.964844zm0 0" fill="#f8c300" fill-rule="evenodd"/><path d="m450 166.96875 10.496094 32.304688-27.480469-19.964844h33.96875l-27.480469 19.964844zm0 0" fill="#f8c300" fill-rule="evenodd"/><path d="m413.398438 203.574219 10.496093 32.300781-27.480469-19.964844h33.964844l-27.476562 19.964844zm0 0" fill="#f8c300" fill-rule="evenodd"/><path d="m400 253.574219 10.496094 32.300781-27.480469-19.964844h33.96875l-27.480469 19.964844zm0 0" fill="#f8c300" fill-rule="evenodd"/><path d="m550 166.96875-10.496094 32.304688 27.480469-19.964844h-33.96875l27.480469 19.964844zm0 0" fill="#f8c300" fill-rule="evenodd"/><path d="m586.601562 203.574219-10.496093 32.300781 27.480469-19.964844h-33.964844l27.476562 19.964844zm0 0" fill="#f8c300" fill-rule="evenodd"/><path d="m600 253.574219-10.496094 32.300781 27.480469-19.964844h-33.96875l27.480469 19.964844zm0 0" fill="#f8c300" fill-rule="evenodd"/></svg>