<?xml version="1.0" encoding="UTF-8"?>
<svg xmlns="http://www.w3.org/2000/svg" xmlns:xlink="http://www.w3.org/1999/xlink" width="128pt" height="85pt" viewBox="0 0 128 85" version="1.1">
<defs>
<clipPath id="clip1">
  <path d="M 0 0 L 127.679688 0 L 127.679688 85 L 0 85 Z M 0 0 "/>
</clipPath>
<clipPath id="clip2">
  <path d="M 0 14 L 127.679688 14 L 127.679688 71 L 0 71 Z M 0 14 "/>
</clipPath>
<clipPath id="clip3">
  <path d="M 0 28 L 127.679688 28 L 127.679688 57 L 0 57 Z M 0 28 "/>
</clipPath>
</defs>
<g id="surface1102">
<g clip-path="url(#clip1)" clip-rule="nonzero">
<path style=" stroke:none;fill-rule:evenodd;fill:rgb(92.939758%,10.980225%,14.117432%);fill-opacity:1;" d="M 0 85 L 0 0 L 127.5 0 L 127.5 85 Z M 0 85 "/>
</g>
<g clip-path="url(#clip2)" clip-rule="nonzero">
<path style=" stroke:none;fill-rule:evenodd;fill:rgb(99.998474%,99.998474%,99.998474%);fill-opacity:1;" d="M 0 14.167969 L 127.5 14.167969 L 127.5 70.832031 L 0 70.832031 Z M 0 14.167969 "/>
</g>
<g clip-path="url(#clip3)" clip-rule="nonzero">
<path style=" stroke:none;fill-rule:evenodd;fill:rgb(14.117432%,11.372375%,30.979919%);fill-opacity:1;" d="M 0 28.332031 L 127.5 28.332031 L 127.5 56.667969 L 0 56.667969 Z M 0 28.332031 "/>
</g>
</g>
</svg>
