<svg viewBox="0 0 1000 617" xmlns="http://www.w3.org/2000/svg"><g fill-rule="evenodd"><path d="m0 0h998.765625v617.285156h-998.765625zm0 0" fill="#006a4e"/><path d="m0 123.457031h998.765625v123.457031h-998.765625zm0 0" fill="#ffce00"/><path d="m0 370.371094h998.765625v123.457031h-998.765625zm0 0" fill="#ffce00"/><path d="m0 0h370.371094v370.371094h-370.371094zm0 0" fill="#d21034"/><g fill="#fff"><path d="m185.183594 67.902344-36.238282 111.542968 58.707032 19.074219zm0 0"/><path d="m185.183594 67.902344 36.242187 111.542968-58.707031 19.074219zm0 0"/><path d="m296.730469 148.945312h-117.285157v61.726563zm0 0"/><path d="m296.730469 148.945312-94.882813 68.9375-36.285156-49.945312zm0 0"/><path d="m254.125 280.066406-36.242188-111.542968-58.707031 19.078124zm0 0"/><path d="m254.125 280.066406-94.882812-68.9375 36.28125-49.9375zm0 0"/><path d="m116.246094 280.066406 94.882812-68.9375-36.28125-49.9375zm0 0"/><path d="m116.246094 280.066406 36.242187-111.542968 58.707031 19.078124zm0 0"/><path d="m73.640625 148.945312 94.882813 68.9375 36.285156-49.945312zm0 0"/><path d="m73.640625 148.945312h117.285156v61.726563zm0 0"/></g></g></svg>