<?xml version="1.0" encoding="UTF-8"?>
<svg xmlns="http://www.w3.org/2000/svg" xmlns:xlink="http://www.w3.org/1999/xlink" width="128pt" height="79pt" viewBox="0 0 128 79" version="1.1">
<g id="surface1107">
<path style=" stroke:none;fill-rule:evenodd;fill:rgb(0%,41.567993%,30.587769%);fill-opacity:1;" d="M 0 0 L 127.839844 0 L 127.839844 79.011719 L 0 79.011719 Z M 0 0 "/>
<path style=" stroke:none;fill-rule:evenodd;fill:rgb(99.998474%,80.783081%,0%);fill-opacity:1;" d="M 0 15.800781 L 127.839844 15.800781 L 127.839844 31.605469 L 0 31.605469 Z M 0 15.800781 "/>
<path style=" stroke:none;fill-rule:evenodd;fill:rgb(99.998474%,80.783081%,0%);fill-opacity:1;" d="M 0 47.40625 L 127.839844 47.40625 L 127.839844 63.210938 L 0 63.210938 Z M 0 47.40625 "/>
<path style=" stroke:none;fill-rule:evenodd;fill:rgb(82.351685%,6.274414%,20.391846%);fill-opacity:1;" d="M 0 0 L 47.40625 0 L 47.40625 47.40625 L 0 47.40625 Z M 0 0 "/>
<path style=" stroke:none;fill-rule:evenodd;fill:rgb(99.998474%,99.998474%,99.998474%);fill-opacity:1;" d="M 23.703125 8.691406 L 19.066406 22.96875 L 26.578125 25.410156 Z M 23.703125 8.691406 "/>
<path style=" stroke:none;fill-rule:evenodd;fill:rgb(99.998474%,99.998474%,99.998474%);fill-opacity:1;" d="M 23.703125 8.691406 L 28.34375 22.96875 L 20.828125 25.410156 Z M 23.703125 8.691406 "/>
<path style=" stroke:none;fill-rule:evenodd;fill:rgb(99.998474%,99.998474%,99.998474%);fill-opacity:1;" d="M 37.980469 19.066406 L 22.96875 19.066406 L 22.96875 26.964844 Z M 37.980469 19.066406 "/>
<path style=" stroke:none;fill-rule:evenodd;fill:rgb(99.998474%,99.998474%,99.998474%);fill-opacity:1;" d="M 37.980469 19.066406 L 25.835938 27.890625 L 21.191406 21.496094 Z M 37.980469 19.066406 "/>
<path style=" stroke:none;fill-rule:evenodd;fill:rgb(99.998474%,99.998474%,99.998474%);fill-opacity:1;" d="M 32.527344 35.847656 L 27.890625 21.570312 L 20.375 24.011719 Z M 32.527344 35.847656 "/>
<path style=" stroke:none;fill-rule:evenodd;fill:rgb(99.998474%,99.998474%,99.998474%);fill-opacity:1;" d="M 32.527344 35.847656 L 20.382812 27.023438 L 25.027344 20.632812 Z M 32.527344 35.847656 "/>
<path style=" stroke:none;fill-rule:evenodd;fill:rgb(99.998474%,99.998474%,99.998474%);fill-opacity:1;" d="M 14.878906 35.847656 L 27.023438 27.023438 L 22.378906 20.632812 Z M 14.878906 35.847656 "/>
<path style=" stroke:none;fill-rule:evenodd;fill:rgb(99.998474%,99.998474%,99.998474%);fill-opacity:1;" d="M 14.878906 35.847656 L 19.519531 21.570312 L 27.03125 24.011719 Z M 14.878906 35.847656 "/>
<path style=" stroke:none;fill-rule:evenodd;fill:rgb(99.998474%,99.998474%,99.998474%);fill-opacity:1;" d="M 9.425781 19.066406 L 21.570312 27.890625 L 26.214844 21.496094 Z M 9.425781 19.066406 "/>
<path style=" stroke:none;fill-rule:evenodd;fill:rgb(99.998474%,99.998474%,99.998474%);fill-opacity:1;" d="M 9.425781 19.066406 L 24.4375 19.066406 L 24.4375 26.964844 Z M 9.425781 19.066406 "/>
</g>
</svg>
