<?xml version="1.0" encoding="UTF-8"?>
<svg xmlns="http://www.w3.org/2000/svg" xmlns:xlink="http://www.w3.org/1999/xlink" width="128pt" height="64pt" viewBox="0 0 128 64" version="1.1">
<g id="surface1112">
<rect x="0" y="0" width="128" height="64" style="fill:rgb(0%,14.117432%,49.01886%);fill-opacity:1;stroke:none;"/>
<path style=" stroke:none;fill-rule:evenodd;fill:rgb(99.606323%,81.959534%,0%);fill-opacity:1;" d="M 23.421875 55.273438 C 22.148438 55.261719 35.414062 48.203125 46.515625 39.160156 C 61.070312 27.304688 92.410156 8.332031 101.625 5.246094 C 102.589844 4.925781 99.652344 6.886719 99.269531 7.523438 C 89.433594 19.167969 97.285156 41.140625 109.578125 52.183594 C 113.277344 55.011719 113.085938 55.160156 119.941406 55.4375 L 119.941406 56.078125 Z M 23.421875 55.273438 "/>
<path style=" stroke:none;fill-rule:evenodd;fill:rgb(99.606323%,81.959534%,0%);fill-opacity:1;" d="M 22.621094 56.554688 C 22.621094 56.554688 21.6875 57.226562 21.6875 57.722656 C 21.691406 58.277344 22.738281 59.007812 22.738281 59.007812 L 117.9375 60.054688 L 119.6875 58.890625 L 117.238281 57.371094 Z M 22.621094 56.554688 "/>
<path style=" stroke:none;fill-rule:evenodd;fill:rgb(99.998474%,99.998474%,99.998474%);fill-opacity:1;" d="M 24.386719 6.964844 L 24.386719 8.566406 L 27.585938 6.964844 Z M 24.386719 6.964844 "/>
<path style=" stroke:none;fill-rule:evenodd;fill:rgb(99.998474%,99.998474%,99.998474%);fill-opacity:1;" d="M 25 8.847656 L 24.058594 7.550781 L 27.585938 6.964844 Z M 25 8.847656 "/>
<path style=" stroke:none;fill-rule:evenodd;fill:rgb(99.998474%,99.998474%,99.998474%);fill-opacity:1;" d="M 24.386719 6.964844 L 24.386719 8.566406 L 21.1875 6.964844 Z M 24.386719 6.964844 "/>
<path style=" stroke:none;fill-rule:evenodd;fill:rgb(99.998474%,99.998474%,99.998474%);fill-opacity:1;" d="M 23.777344 8.847656 L 24.71875 7.550781 L 21.1875 6.964844 Z M 23.777344 8.847656 "/>
<path style=" stroke:none;fill-rule:evenodd;fill:rgb(99.998474%,99.998474%,99.998474%);fill-opacity:1;" d="M 25.375 7.683594 L 23.855469 8.179688 L 26.367188 10.726562 Z M 25.375 7.683594 "/>
<path style=" stroke:none;fill-rule:evenodd;fill:rgb(99.998474%,99.998474%,99.998474%);fill-opacity:1;" d="M 23.777344 8.847656 L 24.71875 7.550781 L 26.367188 10.726562 Z M 23.777344 8.847656 "/>
<path style=" stroke:none;fill-rule:evenodd;fill:rgb(99.998474%,99.998474%,99.998474%);fill-opacity:1;" d="M 23.398438 7.683594 L 24.921875 8.179688 L 24.386719 4.640625 Z M 23.398438 7.683594 "/>
<path style=" stroke:none;fill-rule:evenodd;fill:rgb(99.998474%,99.998474%,99.998474%);fill-opacity:1;" d="M 25.375 7.683594 L 23.855469 8.179688 L 24.386719 4.640625 Z M 25.375 7.683594 "/>
<path style=" stroke:none;fill-rule:evenodd;fill:rgb(99.998474%,99.998474%,99.998474%);fill-opacity:1;" d="M 23.398438 7.683594 L 24.921875 8.179688 L 22.410156 10.726562 Z M 23.398438 7.683594 "/>
<path style=" stroke:none;fill-rule:evenodd;fill:rgb(99.998474%,99.998474%,99.998474%);fill-opacity:1;" d="M 25 8.847656 L 24.058594 7.550781 L 22.410156 10.726562 Z M 25 8.847656 "/>
<path style=" stroke:none;fill-rule:evenodd;fill:rgb(99.998474%,99.998474%,99.998474%);fill-opacity:1;" d="M 37.0625 18.15625 L 37.0625 19.492188 L 39.730469 18.15625 Z M 37.0625 18.15625 "/>
<path style=" stroke:none;fill-rule:evenodd;fill:rgb(99.998474%,99.998474%,99.998474%);fill-opacity:1;" d="M 37.574219 19.726562 L 36.789062 18.648438 L 39.730469 18.15625 Z M 37.574219 19.726562 "/>
<path style=" stroke:none;fill-rule:evenodd;fill:rgb(99.998474%,99.998474%,99.998474%);fill-opacity:1;" d="M 37.0625 18.15625 L 37.0625 19.492188 L 34.398438 18.15625 Z M 37.0625 18.15625 "/>
<path style=" stroke:none;fill-rule:evenodd;fill:rgb(99.998474%,99.998474%,99.998474%);fill-opacity:1;" d="M 36.554688 19.726562 L 37.335938 18.648438 L 34.398438 18.15625 Z M 36.554688 19.726562 "/>
<path style=" stroke:none;fill-rule:evenodd;fill:rgb(99.998474%,99.998474%,99.998474%);fill-opacity:1;" d="M 37.886719 18.757812 L 36.621094 19.167969 L 38.710938 21.292969 Z M 37.886719 18.757812 "/>
<path style=" stroke:none;fill-rule:evenodd;fill:rgb(99.998474%,99.998474%,99.998474%);fill-opacity:1;" d="M 36.554688 19.726562 L 37.335938 18.648438 L 38.710938 21.292969 Z M 36.554688 19.726562 "/>
<path style=" stroke:none;fill-rule:evenodd;fill:rgb(99.998474%,99.998474%,99.998474%);fill-opacity:1;" d="M 36.238281 18.757812 L 37.507812 19.167969 L 37.0625 16.21875 Z M 36.238281 18.757812 "/>
<path style=" stroke:none;fill-rule:evenodd;fill:rgb(99.998474%,99.998474%,99.998474%);fill-opacity:1;" d="M 37.886719 18.757812 L 36.621094 19.167969 L 37.0625 16.21875 Z M 37.886719 18.757812 "/>
<path style=" stroke:none;fill-rule:evenodd;fill:rgb(99.998474%,99.998474%,99.998474%);fill-opacity:1;" d="M 36.238281 18.757812 L 37.507812 19.167969 L 35.414062 21.292969 Z M 36.238281 18.757812 "/>
<path style=" stroke:none;fill-rule:evenodd;fill:rgb(99.998474%,99.998474%,99.998474%);fill-opacity:1;" d="M 37.574219 19.726562 L 36.789062 18.648438 L 35.414062 21.292969 Z M 37.574219 19.726562 "/>
<path style=" stroke:none;fill-rule:evenodd;fill:rgb(99.998474%,99.998474%,99.998474%);fill-opacity:1;" d="M 9.601562 21.84375 L 9.601562 23.445312 L 12.800781 21.84375 Z M 9.601562 21.84375 "/>
<path style=" stroke:none;fill-rule:evenodd;fill:rgb(99.998474%,99.998474%,99.998474%);fill-opacity:1;" d="M 10.210938 23.726562 L 9.269531 22.429688 L 12.800781 21.84375 Z M 10.210938 23.726562 "/>
<path style=" stroke:none;fill-rule:evenodd;fill:rgb(99.998474%,99.998474%,99.998474%);fill-opacity:1;" d="M 9.601562 21.84375 L 9.601562 23.445312 L 6.398438 21.84375 Z M 9.601562 21.84375 "/>
<path style=" stroke:none;fill-rule:evenodd;fill:rgb(99.998474%,99.998474%,99.998474%);fill-opacity:1;" d="M 8.988281 23.726562 L 9.929688 22.429688 L 6.398438 21.84375 Z M 8.988281 23.726562 "/>
<path style=" stroke:none;fill-rule:evenodd;fill:rgb(99.998474%,99.998474%,99.998474%);fill-opacity:1;" d="M 10.589844 22.5625 L 9.066406 23.058594 L 11.578125 25.605469 Z M 10.589844 22.5625 "/>
<path style=" stroke:none;fill-rule:evenodd;fill:rgb(99.998474%,99.998474%,99.998474%);fill-opacity:1;" d="M 8.988281 23.726562 L 9.929688 22.429688 L 11.578125 25.605469 Z M 8.988281 23.726562 "/>
<path style=" stroke:none;fill-rule:evenodd;fill:rgb(99.998474%,99.998474%,99.998474%);fill-opacity:1;" d="M 8.609375 22.5625 L 10.132812 23.058594 L 9.601562 19.519531 Z M 8.609375 22.5625 "/>
<path style=" stroke:none;fill-rule:evenodd;fill:rgb(99.998474%,99.998474%,99.998474%);fill-opacity:1;" d="M 10.589844 22.5625 L 9.066406 23.058594 L 9.601562 19.519531 Z M 10.589844 22.5625 "/>
<path style=" stroke:none;fill-rule:evenodd;fill:rgb(99.998474%,99.998474%,99.998474%);fill-opacity:1;" d="M 8.609375 22.5625 L 10.132812 23.058594 L 7.621094 25.605469 Z M 8.609375 22.5625 "/>
<path style=" stroke:none;fill-rule:evenodd;fill:rgb(99.998474%,99.998474%,99.998474%);fill-opacity:1;" d="M 10.210938 23.726562 L 9.269531 22.429688 L 7.621094 25.605469 Z M 10.210938 23.726562 "/>
<path style=" stroke:none;fill-rule:evenodd;fill:rgb(99.998474%,99.998474%,99.998474%);fill-opacity:1;" d="M 24.386719 45.191406 L 24.386719 47.058594 L 28.121094 45.191406 Z M 24.386719 45.191406 "/>
<path style=" stroke:none;fill-rule:evenodd;fill:rgb(99.998474%,99.998474%,99.998474%);fill-opacity:1;" d="M 25.101562 47.386719 L 24.003906 45.878906 L 28.121094 45.191406 Z M 25.101562 47.386719 "/>
<path style=" stroke:none;fill-rule:evenodd;fill:rgb(99.998474%,99.998474%,99.998474%);fill-opacity:1;" d="M 24.386719 45.191406 L 24.386719 47.058594 L 20.65625 45.191406 Z M 24.386719 45.191406 "/>
<path style=" stroke:none;fill-rule:evenodd;fill:rgb(99.998474%,99.998474%,99.998474%);fill-opacity:1;" d="M 23.675781 47.386719 L 24.773438 45.878906 L 20.65625 45.191406 Z M 23.675781 47.386719 "/>
<path style=" stroke:none;fill-rule:evenodd;fill:rgb(99.998474%,99.998474%,99.998474%);fill-opacity:1;" d="M 25.542969 46.03125 L 23.765625 46.609375 L 26.695312 49.582031 Z M 25.542969 46.03125 "/>
<path style=" stroke:none;fill-rule:evenodd;fill:rgb(99.998474%,99.998474%,99.998474%);fill-opacity:1;" d="M 23.675781 47.386719 L 24.773438 45.878906 L 26.695312 49.582031 Z M 23.675781 47.386719 "/>
<path style=" stroke:none;fill-rule:evenodd;fill:rgb(99.998474%,99.998474%,99.998474%);fill-opacity:1;" d="M 23.234375 46.03125 L 25.007812 46.609375 L 24.386719 42.480469 Z M 23.234375 46.03125 "/>
<path style=" stroke:none;fill-rule:evenodd;fill:rgb(99.998474%,99.998474%,99.998474%);fill-opacity:1;" d="M 25.542969 46.03125 L 23.765625 46.609375 L 24.386719 42.480469 Z M 25.542969 46.03125 "/>
<path style=" stroke:none;fill-rule:evenodd;fill:rgb(99.998474%,99.998474%,99.998474%);fill-opacity:1;" d="M 23.234375 46.03125 L 25.007812 46.609375 L 22.082031 49.582031 Z M 23.234375 46.03125 "/>
<path style=" stroke:none;fill-rule:evenodd;fill:rgb(99.998474%,99.998474%,99.998474%);fill-opacity:1;" d="M 25.101562 47.386719 L 24.003906 45.878906 L 22.082031 49.582031 Z M 25.101562 47.386719 "/>
</g>
</svg>
