<?xml version="1.0" encoding="UTF-8"?>
<svg xmlns="http://www.w3.org/2000/svg" xmlns:xlink="http://www.w3.org/1999/xlink" width="128pt" height="85pt" viewBox="0 0 128 85" version="1.1">
<defs>
<clipPath id="clip1">
  <path d="M 0 0 L 127.679688 0 L 127.679688 85 L 0 85 Z M 0 0 "/>
</clipPath>
</defs>
<g id="surface1127">
<g clip-path="url(#clip1)" clip-rule="nonzero">
<path style=" stroke:none;fill-rule:evenodd;fill:rgb(90.586853%,0%,7.450867%);fill-opacity:1;" d="M 0 85 L 0 0 L 127.5 0 L 127.5 85 Z M 0 85 "/>
</g>
<path style=" stroke:none;fill-rule:evenodd;fill:rgb(99.998474%,99.998474%,99.998474%);fill-opacity:1;" d="M 85 42.5 C 85 54.234375 75.484375 63.75 63.75 63.75 C 52.015625 63.75 42.5 54.234375 42.5 42.5 C 42.5 30.765625 52.015625 21.25 63.75 21.25 C 75.484375 21.25 85 30.765625 85 42.5 Z M 85 42.5 "/>
<path style=" stroke:none;fill-rule:evenodd;fill:rgb(90.586853%,0%,7.450867%);fill-opacity:1;" d="M 79.6875 42.5 C 79.6875 51.300781 72.550781 58.4375 63.75 58.4375 C 54.949219 58.4375 47.8125 51.300781 47.8125 42.5 C 47.8125 33.699219 54.949219 26.5625 63.75 26.5625 C 72.550781 26.5625 79.6875 33.699219 79.6875 42.5 Z M 79.6875 42.5 "/>
<path style=" stroke:none;fill-rule:evenodd;fill:rgb(99.998474%,99.998474%,99.998474%);fill-opacity:1;" d="M 80.75 42.5 C 80.75 49.542969 75.042969 55.25 68 55.25 C 60.957031 55.25 55.25 49.542969 55.25 42.5 C 55.25 35.457031 60.957031 29.75 68 29.75 C 75.042969 29.75 80.75 35.457031 80.75 42.5 Z M 80.75 42.5 "/>
<path style="fill-rule:nonzero;fill:rgb(90.586853%,0%,7.450867%);fill-opacity:1;stroke-width:1;stroke-linecap:square;stroke-linejoin:miter;stroke:rgb(90.586853%,0%,7.450867%);stroke-opacity:1;stroke-miterlimit:3.239307;" d="M 65.046875 44.648438 L 65.046875 51.59375 L 69.128906 45.972656 L 75.734375 48.121094 L 71.652344 42.5 L 75.734375 36.878906 L 69.128906 39.027344 L 65.046875 33.40625 L 65.046875 40.351562 L 58.4375 42.5 Z M 65.046875 44.648438 "/>
</g>
</svg>
