<svg viewBox="0 0 1000 667" xmlns="http://www.w3.org/2000/svg" xmlns:xlink="http://www.w3.org/1999/xlink"><clipPath id="a"><path d="m0 0h1000v666.71875h-1000zm0 0"/></clipPath><g clip-path="url(#a)"><path d="m0 666.667969v-666.667969h1000v666.667969zm0 0" fill="#e30a17" fill-rule="evenodd"/></g><path d="m520.832031 333.332031c0 92.050781-74.617187 166.667969-166.664062 166.667969-92.050781 0-166.667969-74.617188-166.667969-166.667969 0-92.046875 74.617188-166.664062 166.667969-166.664062 92.046875 0 166.664062 74.617187 166.664062 166.664062zm0 0" fill="#fff" fill-rule="evenodd"/><path d="m529.167969 333.332031c0 73.636719-59.699219 133.335938-133.335938 133.335938s-133.332031-59.699219-133.332031-133.335938 59.695312-133.332031 133.332031-133.332031 133.335938 59.695312 133.335938 133.332031zm0 0" fill="#e30a17" fill-rule="evenodd"/><path d="m543.691406 352.042969v60.546875l35.589844-48.984375 57.582031 18.710937-35.589843-48.984375 35.589843-48.980469-57.582031 18.710938-35.589844-48.984375v60.546875l-57.578125 18.707031zm0 0" fill="#fff" stroke="#fff" stroke-linecap="square" stroke-miterlimit="3.239307"/></svg>