<svg viewBox="0 0 1000 500" xmlns="http://www.w3.org/2000/svg"><path d="m0 500v-250h500v-250h500v500zm0 0" fill="#5b97b1" stroke="#5b97b1" stroke-linecap="square" stroke-miterlimit="3.239307"/><g fill="#ffce00" fill-rule="evenodd"><path d="m909.699219 60.035156 9.328125-28.863281 9.332031 28.863281 30.277344-.019531-24.511719 17.808594 9.382812 28.847656-24.484374-17.851563-24.476563 17.84375 9.378906-28.839843-24.507812-17.820313zm0 0"/><path d="m821.035156 312.167969 9.332032-28.863281 9.332031 28.863281 30.277343-.023438-24.511718 17.8125 9.378906 28.847657-24.484375-17.855469-24.476563 17.847656 9.382813-28.839844-24.507813-17.816406zm0 0"/><path d="m909.699219 255.085938 9.328125-28.855469 9.332031 28.863281 30.277344-.023438-24.511719 17.8125 9.382812 28.847657-24.484374-17.859375-24.476563 17.851562 9.378906-28.847656-24.507812-17.8125zm0 0"/><path d="m528.449219 437.953125 9.335937-28.863281 9.328125 28.867187 30.277344-.023437-24.507813 17.8125 9.375 28.847656-24.480468-17.855469-24.480469 17.851563 9.382813-28.847656-24.511719-17.8125zm0 0"/><path d="m666.023438 331.648438-9.332032 28.863281-9.332031-28.863281-30.28125.023437 24.511719-17.8125-9.378906-28.847656 24.484374 17.855469 24.480469-17.851563-9.382812 28.847656 24.503906 17.8125zm0 0"/><path d="m771.023438 186.429688-9.328126 28.863281-9.332031-28.863281-30.277343.019531 24.511718-17.808594-9.382812-28.84375 24.484375 17.847656 24.476562-17.847656-9.378906 28.84375 24.507813 17.820313zm0 0"/><path d="m859.277344 156.269531-9.335938 28.863281-9.332031-28.863281-30.277344.019531 24.511719-17.808593-9.378906-28.847657 24.480468 17.851563 24.484376-17.851563-9.386719 28.847657 24.507812 17.816406zm0 0"/><path d="m771.023438 407.609375-9.328126 28.859375-9.332031-28.859375-30.277343.023437 24.511718-17.8125-9.382812-28.847656 24.484375 17.855469 24.476562-17.851563-9.378906 28.84375 24.507813 17.816407zm0 0"/><path d="m666.023438 433.300781-9.332032 28.863281-9.332031-28.863281-30.28125.019531 24.511719-17.808593-9.378906-28.847657 24.484374 17.851563 24.480469-17.84375-9.382812 28.839844 24.503906 17.816406zm0 0"/></g><path d="m0 250h500v-250h-500zm0 0" fill="#00247d" stroke="#00247d" stroke-linecap="square" stroke-miterlimit="3.239307"/><path d="m0 0v27.949219l444.097656 222.050781h55.902344v-27.949219l-444.097656-222.050781zm500 0v27.949219l-444.097656 222.050781h-55.902344v-27.953125l444.097656-222.046875zm0 0" fill="#fff" fill-rule="evenodd"/><path d="m0 250 166.664062-83.335938h37.269532l-166.667969 83.335938zm0-250 166.664062 83.335938h-37.265624l-129.398438-64.703126zm296.066406 83.335938 166.667969-83.335938h37.265625l-166.664062 83.335938zm203.933594 166.664062-166.664062-83.335938h37.265624l129.398438 64.703126zm0 0" fill="#cf142b" fill-rule="evenodd"/><path d="m208.335938 0v250h83.328124v-250zm0 0" fill="#fff" stroke="#fff" stroke-linecap="square" stroke-miterlimit="3.239307"/><path d="m0 83.335938v83.328124h500v-83.328124zm0 0" fill="#fff" stroke="#fff" stroke-linecap="square" stroke-miterlimit="3.239307"/><path d="m0 100v50h500v-50zm0 0" fill="#cf142b" stroke="#cf142b" stroke-linecap="square" stroke-miterlimit="3.239307"/><path d="m225 0v250h50v-250zm0 0" fill="#cf142b" stroke="#cf142b" stroke-linecap="square" stroke-miterlimit="3.239307"/></svg>