<?xml version="1.0" encoding="UTF-8"?>
<svg xmlns="http://www.w3.org/2000/svg" xmlns:xlink="http://www.w3.org/1999/xlink" width="128pt" height="64pt" viewBox="0 0 128 64" version="1.1">
<g id="surface1147">
<path style="fill-rule:nonzero;fill:rgb(35.68573%,59.214783%,69.410706%);fill-opacity:1;stroke-width:1;stroke-linecap:square;stroke-linejoin:miter;stroke:rgb(35.68573%,59.214783%,69.410706%);stroke-opacity:1;stroke-miterlimit:3.239307;" d="M 0 64 L 0 32 L 64 32 L 64 0 L 128 0 L 128 64 Z M 0 64 "/>
<path style=" stroke:none;fill-rule:evenodd;fill:rgb(99.998474%,80.783081%,0%);fill-opacity:1;" d="M 116.441406 7.683594 L 117.636719 3.988281 L 118.832031 7.683594 L 122.707031 7.683594 L 119.566406 9.960938 L 120.769531 13.652344 L 117.636719 11.367188 L 114.5 13.652344 L 115.703125 9.960938 L 112.566406 7.679688 Z M 116.441406 7.683594 "/>
<path style=" stroke:none;fill-rule:evenodd;fill:rgb(99.998474%,80.783081%,0%);fill-opacity:1;" d="M 105.09375 39.957031 L 106.285156 36.261719 L 107.480469 39.957031 L 111.355469 39.953125 L 108.21875 42.234375 L 109.421875 45.925781 L 106.285156 43.640625 L 103.152344 45.925781 L 104.355469 42.234375 L 101.21875 39.953125 Z M 105.09375 39.957031 "/>
<path style=" stroke:none;fill-rule:evenodd;fill:rgb(99.998474%,80.783081%,0%);fill-opacity:1;" d="M 116.441406 32.652344 L 117.636719 28.957031 L 118.832031 32.652344 L 122.707031 32.648438 L 119.566406 34.929688 L 120.769531 38.621094 L 117.636719 36.335938 L 114.5 38.621094 L 115.703125 34.929688 L 112.566406 32.648438 Z M 116.441406 32.652344 "/>
<path style=" stroke:none;fill-rule:evenodd;fill:rgb(99.998474%,80.783081%,0%);fill-opacity:1;" d="M 67.640625 56.058594 L 68.835938 52.363281 L 70.03125 56.058594 L 73.90625 56.054688 L 70.769531 58.335938 L 71.96875 62.027344 L 68.835938 59.742188 L 65.703125 62.027344 L 66.902344 58.335938 L 63.765625 56.054688 Z M 67.640625 56.058594 "/>
<path style=" stroke:none;fill-rule:evenodd;fill:rgb(99.998474%,80.783081%,0%);fill-opacity:1;" d="M 85.25 42.453125 L 84.054688 46.144531 L 82.863281 42.453125 L 78.984375 42.453125 L 82.125 40.171875 L 80.921875 36.480469 L 84.058594 38.765625 L 87.191406 36.480469 L 85.988281 40.175781 L 89.125 42.453125 Z M 85.25 42.453125 "/>
<path style=" stroke:none;fill-rule:evenodd;fill:rgb(99.998474%,80.783081%,0%);fill-opacity:1;" d="M 98.691406 23.863281 L 97.496094 27.558594 L 96.300781 23.863281 L 92.425781 23.867188 L 95.5625 21.585938 L 94.363281 17.894531 L 97.496094 20.179688 L 100.628906 17.894531 L 99.429688 21.585938 L 102.566406 23.867188 Z M 98.691406 23.863281 "/>
<path style=" stroke:none;fill-rule:evenodd;fill:rgb(99.998474%,80.783081%,0%);fill-opacity:1;" d="M 109.988281 20.003906 L 108.792969 23.695312 L 107.597656 20.003906 L 103.722656 20.003906 L 106.859375 17.726562 L 105.660156 14.03125 L 108.792969 16.316406 L 111.925781 14.03125 L 110.726562 17.726562 L 113.863281 20.007812 Z M 109.988281 20.003906 "/>
<path style=" stroke:none;fill-rule:evenodd;fill:rgb(99.998474%,80.783081%,0%);fill-opacity:1;" d="M 98.691406 52.171875 L 97.496094 55.867188 L 96.300781 52.171875 L 92.425781 52.175781 L 95.5625 49.898438 L 94.363281 46.203125 L 97.496094 48.488281 L 100.628906 46.203125 L 99.429688 49.898438 L 102.566406 52.175781 Z M 98.691406 52.171875 "/>
<path style=" stroke:none;fill-rule:evenodd;fill:rgb(99.998474%,80.783081%,0%);fill-opacity:1;" d="M 85.25 55.460938 L 84.054688 59.15625 L 82.863281 55.460938 L 78.984375 55.464844 L 82.125 53.1875 L 80.921875 49.492188 L 84.058594 51.777344 L 87.191406 49.492188 L 85.988281 53.1875 L 89.125 55.464844 Z M 85.25 55.460938 "/>
<path style="fill-rule:nonzero;fill:rgb(0%,14.117432%,49.01886%);fill-opacity:1;stroke-width:1;stroke-linecap:square;stroke-linejoin:miter;stroke:rgb(0%,14.117432%,49.01886%);stroke-opacity:1;stroke-miterlimit:3.239307;" d="M 0 32 L 64 32 L 64 0 L 0 0 Z M 0 32 "/>
<path style=" stroke:none;fill-rule:evenodd;fill:rgb(99.998474%,99.998474%,99.998474%);fill-opacity:1;" d="M 0 0 L 0 3.578125 L 56.84375 32 L 64 32 L 64 28.421875 L 7.15625 0 Z M 64 0 L 64 3.578125 L 7.15625 32 L 0 32 L 0 28.421875 L 56.84375 0 Z M 64 0 "/>
<path style=" stroke:none;fill-rule:evenodd;fill:rgb(81.175232%,7.843018%,16.862488%);fill-opacity:1;" d="M 0 32 L 21.332031 21.332031 L 26.105469 21.332031 L 4.769531 32 Z M 0 0 L 21.332031 10.667969 L 16.5625 10.667969 L 0 2.386719 Z M 37.894531 10.667969 L 59.230469 0 L 64 0 L 42.667969 10.667969 Z M 64 32 L 42.667969 21.332031 L 47.4375 21.332031 L 64 29.613281 Z M 64 32 "/>
<path style="fill-rule:nonzero;fill:rgb(99.998474%,99.998474%,99.998474%);fill-opacity:1;stroke-width:1;stroke-linecap:square;stroke-linejoin:miter;stroke:rgb(99.998474%,99.998474%,99.998474%);stroke-opacity:1;stroke-miterlimit:3.239307;" d="M 26.667969 0 L 26.667969 32 L 37.332031 32 L 37.332031 0 Z M 26.667969 0 "/>
<path style="fill-rule:nonzero;fill:rgb(99.998474%,99.998474%,99.998474%);fill-opacity:1;stroke-width:1;stroke-linecap:square;stroke-linejoin:miter;stroke:rgb(99.998474%,99.998474%,99.998474%);stroke-opacity:1;stroke-miterlimit:3.239307;" d="M 0 10.667969 L 0 21.332031 L 64 21.332031 L 64 10.667969 Z M 0 10.667969 "/>
<path style="fill-rule:nonzero;fill:rgb(81.175232%,7.843018%,16.862488%);fill-opacity:1;stroke-width:1;stroke-linecap:square;stroke-linejoin:miter;stroke:rgb(81.175232%,7.843018%,16.862488%);stroke-opacity:1;stroke-miterlimit:3.239307;" d="M 0 12.800781 L 0 19.199219 L 64 19.199219 L 64 12.800781 Z M 0 12.800781 "/>
<path style="fill-rule:nonzero;fill:rgb(81.175232%,7.843018%,16.862488%);fill-opacity:1;stroke-width:1;stroke-linecap:square;stroke-linejoin:miter;stroke:rgb(81.175232%,7.843018%,16.862488%);stroke-opacity:1;stroke-miterlimit:3.239307;" d="M 28.800781 0 L 28.800781 32 L 35.199219 32 L 35.199219 0 Z M 28.800781 0 "/>
</g>
</svg>
