<?xml version="1.0" encoding="UTF-8"?>
<svg xmlns="http://www.w3.org/2000/svg" xmlns:xlink="http://www.w3.org/1999/xlink" width="128pt" height="85pt" viewBox="0 0 128 85" version="1.1">
<defs>
<clipPath id="clip1">
  <path d="M 0 0 L 127.679688 0 L 127.679688 85 L 0 85 Z M 0 0 "/>
</clipPath>
<clipPath id="clip2">
  <path d="M 0 14 L 127.679688 14 L 127.679688 29 L 0 29 Z M 0 14 "/>
</clipPath>
<clipPath id="clip3">
  <path d="M 0 28 L 127.679688 28 L 127.679688 43 L 0 43 Z M 0 28 "/>
</clipPath>
<clipPath id="clip4">
  <path d="M 0 56 L 127.679688 56 L 127.679688 71 L 0 71 Z M 0 56 "/>
</clipPath>
<clipPath id="clip5">
  <path d="M 0 70 L 127.679688 70 L 127.679688 85 L 0 85 Z M 0 70 "/>
</clipPath>
</defs>
<g id="surface1152">
<g clip-path="url(#clip1)" clip-rule="nonzero">
<path style=" stroke:none;fill-rule:evenodd;fill:rgb(0%,0%,0%);fill-opacity:1;" d="M 0 85 L 0 0 L 127.5 0 L 127.5 85 Z M 0 85 "/>
</g>
<g clip-path="url(#clip2)" clip-rule="nonzero">
<path style=" stroke:none;fill-rule:evenodd;fill:rgb(98.822021%,86.273193%,1.568604%);fill-opacity:1;" d="M 0 14.167969 L 127.5 14.167969 L 127.5 28.332031 L 0 28.332031 Z M 0 14.167969 "/>
</g>
<g clip-path="url(#clip3)" clip-rule="nonzero">
<path style=" stroke:none;fill-rule:evenodd;fill:rgb(85.096741%,0%,0%);fill-opacity:1;" d="M 0 28.332031 L 127.5 28.332031 L 127.5 42.5 L 0 42.5 Z M 0 28.332031 "/>
</g>
<g clip-path="url(#clip4)" clip-rule="nonzero">
<path style=" stroke:none;fill-rule:evenodd;fill:rgb(98.822021%,86.273193%,1.568604%);fill-opacity:1;" d="M 0 56.667969 L 127.5 56.667969 L 127.5 70.832031 L 0 70.832031 Z M 0 56.667969 "/>
</g>
<g clip-path="url(#clip5)" clip-rule="nonzero">
<path style=" stroke:none;fill-rule:evenodd;fill:rgb(85.096741%,0%,0%);fill-opacity:1;" d="M 0 70.832031 L 127.5 70.832031 L 127.5 85 L 0 85 Z M 0 70.832031 "/>
</g>
<path style=" stroke:none;fill-rule:evenodd;fill:rgb(99.998474%,99.998474%,99.998474%);fill-opacity:1;" d="M 76.996094 42.5 C 76.996094 49.816406 71.066406 55.746094 63.75 55.746094 C 56.433594 55.746094 50.503906 49.816406 50.503906 42.5 C 50.503906 35.183594 56.433594 29.253906 63.75 29.253906 C 71.066406 29.253906 76.996094 35.183594 76.996094 42.5 Z M 76.996094 42.5 "/>
<path style="fill-rule:evenodd;fill:rgb(85.096741%,0%,0%);fill-opacity:1;stroke-width:0.141667;stroke-linecap:butt;stroke-linejoin:miter;stroke:rgb(0%,0%,0%);stroke-opacity:1;stroke-miterlimit:4;" d="M 61.414062 32.355469 L 60.554688 30.773438 C 60.886719 30.441406 61.445312 30.183594 62.335938 30.183594 C 62.335938 30.246094 62.242188 31.917969 62.242188 31.917969 Z M 61.414062 32.355469 "/>
<path style="fill-rule:evenodd;fill:rgb(98.822021%,86.273193%,1.568604%);fill-opacity:1;stroke-width:0.141667;stroke-linecap:butt;stroke-linejoin:miter;stroke:rgb(0%,0%,0%);stroke-opacity:1;stroke-miterlimit:4;" d="M 62.242188 31.933594 L 62.363281 30.183594 C 62.363281 30.183594 64.144531 30.078125 65.109375 31.238281 C 65.125 31.226562 64.15625 32.597656 64.15625 32.597656 Z M 62.242188 31.933594 "/>
<path style="fill-rule:evenodd;fill:rgb(85.096741%,0%,0%);fill-opacity:1;stroke-width:0.141667;stroke-linecap:butt;stroke-linejoin:miter;stroke:rgb(0%,0%,0%);stroke-opacity:1;stroke-miterlimit:4;" d="M 64.1875 32.582031 L 65.0625 31.226562 C 65.648438 31.84375 65.890625 32.28125 65.980469 32.941406 C 65.996094 32.957031 64.59375 33.289062 64.59375 33.273438 C 64.59375 33.261719 64.203125 32.597656 64.1875 32.582031 Z M 64.1875 32.582031 "/>
<path style="fill-rule:evenodd;fill:rgb(0%,0%,0%);fill-opacity:1;stroke-width:0.141667;stroke-linecap:butt;stroke-linejoin:miter;stroke:rgb(0%,0%,0%);stroke-opacity:1;stroke-miterlimit:4;" d="M 61.851562 54.976562 C 61.851562 54.976562 63.496094 53.09375 66.691406 53.5 C 66.207031 52.714844 64.65625 52.808594 64.65625 52.808594 C 64.65625 52.808594 64.171875 49.144531 64.550781 48.964844 C 64.925781 48.78125 66.523438 48.980469 66.523438 48.980469 C 66.734375 48.980469 67.097656 48.40625 66.8125 48.042969 C 66.523438 47.683594 65.679688 46.296875 66.027344 46.023438 C 66.375 45.753906 68.257812 46.175781 68.257812 46.175781 L 62.9375 39.363281 C 62.9375 39.363281 62.394531 36.800781 63.480469 35.566406 C 64.792969 34.480469 64.65625 33.304688 64.609375 33.320312 C 64.429688 32.128906 62.621094 31.269531 61.398438 32.371094 C 60.675781 33.246094 61.160156 33.90625 61.160156 33.90625 C 61.160156 33.90625 59.261719 34.417969 59.183594 34.75 C 59.109375 35.082031 61.324219 34.691406 61.324219 34.691406 L 61.113281 36.214844 C 61.113281 36.214844 56.804688 40.132812 60.105469 43.523438 C 60.132812 43.507812 60.210938 43.371094 60.210938 43.371094 C 60.210938 43.371094 61.371094 44.804688 62.589844 45.121094 C 63.734375 46.296875 63.632812 46.113281 63.632812 46.113281 C 63.632812 46.113281 63.855469 47.96875 63.644531 48.332031 C 63.359375 48.238281 60.4375 48.136719 60 48.300781 C 59.605469 48.421875 58.101562 48.347656 58.476562 50.800781 C 58.761719 50.140625 59.019531 49.550781 59.019531 49.550781 C 59.019531 49.550781 58.972656 50.441406 59.335938 50.757812 C 59.273438 49.824219 59.683594 49.191406 59.683594 49.191406 C 59.683594 49.191406 59.757812 50.214844 59.984375 50.363281 C 60.210938 50.515625 60.210938 48.707031 61.460938 48.859375 C 62.710938 49.007812 63.617188 48.964844 63.617188 48.964844 C 63.617188 48.964844 64.039062 52.503906 63.902344 52.835938 C 62.996094 52.625 60.84375 52.925781 60.707031 53.46875 C 61.972656 53.394531 62.5625 53.542969 62.5625 53.542969 C 62.5625 53.542969 61.535156 54.449219 61.851562 54.976562 Z M 61.851562 54.976562 "/>
<path style="fill-rule:evenodd;fill:rgb(61.175537%,65.097046%,61.175537%);fill-opacity:1;stroke-width:0.141667;stroke-linecap:butt;stroke-linejoin:miter;stroke:rgb(61.175537%,65.097046%,61.175537%);stroke-opacity:1;stroke-miterlimit:4;" d="M 62.359375 35.652344 C 62.359375 35.652344 59.222656 39.109375 60.578125 41.753906 C 60.648438 41.386719 60.617188 41.152344 60.664062 41.167969 C 60.585938 41.125 61.050781 41.488281 61.015625 41.417969 C 61.027344 41.226562 60.875 40.816406 60.875 40.816406 C 61.015625 40.851562 61.15625 40.886719 61.300781 40.921875 C 61.21875 40.769531 61.132812 40.613281 61.050781 40.460938 C 61.253906 40.484375 61.453125 40.507812 61.652344 40.53125 C 61.652344 40.53125 61.441406 39.964844 61.511719 39.964844 C 61.582031 39.964844 62.007812 40 62.007812 40 C 61.113281 38.402344 61.957031 37.070312 62.359375 35.652344 Z M 62.359375 35.652344 "/>
<path style="fill-rule:evenodd;fill:rgb(61.175537%,65.097046%,61.175537%);fill-opacity:1;stroke-width:0.141667;stroke-linecap:butt;stroke-linejoin:miter;stroke:rgb(61.175537%,65.097046%,61.175537%);stroke-opacity:1;stroke-miterlimit:4;" d="M 63.449219 32.6875 C 63.449219 32.6875 63.617188 33.878906 62.96875 34.222656 C 62.863281 34.300781 62.457031 34.433594 62.515625 34.675781 C 62.589844 35.007812 62.773438 34.949219 63.027344 34.886719 C 63.707031 34.765625 64.488281 33.320312 63.449219 32.6875 Z M 63.449219 32.6875 "/>
<path style=" stroke:none;fill-rule:evenodd;fill:rgb(99.998474%,99.998474%,99.998474%);fill-opacity:1;" d="M 62.304688 33.714844 C 62.304688 33.859375 62.191406 33.972656 62.050781 33.972656 C 61.910156 33.972656 61.796875 33.859375 61.796875 33.714844 C 61.796875 33.574219 61.910156 33.460938 62.050781 33.460938 C 62.191406 33.460938 62.304688 33.574219 62.304688 33.714844 Z M 62.304688 33.714844 "/>
<path style="fill-rule:evenodd;fill:rgb(85.096741%,0%,0%);fill-opacity:1;stroke-width:0.141667;stroke-linecap:butt;stroke-linejoin:miter;stroke:rgb(0%,0%,0%);stroke-opacity:1;stroke-miterlimit:4;" d="M 61.28125 34.707031 C 61.113281 34.84375 60.238281 35.746094 61.097656 36.078125 C 61.988281 35.835938 61.746094 35.671875 61.941406 35.476562 C 61.949219 35.066406 61.5 34.964844 61.28125 34.707031 Z M 61.28125 34.707031 "/>
<path style="fill-rule:evenodd;fill:rgb(61.175537%,65.097046%,61.175537%);fill-opacity:1;stroke-width:0.141667;stroke-linecap:butt;stroke-linejoin:miter;stroke:rgb(61.175537%,65.097046%,61.175537%);stroke-opacity:1;stroke-miterlimit:4;" d="M 63.179688 43.25 C 63.132812 43.449219 62.9375 44.171875 63.210938 44.730469 C 63.960938 44.410156 64.308594 44.503906 64.566406 44.667969 C 63.945312 44.171875 63.707031 43.960938 63.179688 43.25 Z M 63.179688 43.25 "/>
<path style="fill-rule:evenodd;fill:rgb(99.998474%,99.998474%,99.998474%);fill-opacity:1;stroke-width:0.141667;stroke-linecap:butt;stroke-linejoin:miter;stroke:rgb(99.998474%,99.998474%,99.998474%);stroke-opacity:1;stroke-miterlimit:4;" d="M 64.476562 46.671875 L 64.519531 48.359375 C 64.519531 48.359375 65.109375 48.464844 65.378906 48.359375 C 65.648438 48.253906 65.363281 47.183594 64.476562 46.671875 Z M 64.476562 46.671875 "/>
<path style="fill-rule:evenodd;fill:rgb(61.175537%,65.097046%,61.175537%);fill-opacity:1;stroke-width:0.141667;stroke-linecap:butt;stroke-linejoin:miter;stroke:rgb(0%,0%,0%);stroke-opacity:1;stroke-miterlimit:4;" d="M 68.738281 46.882812 C 68.738281 46.882812 67.65625 44.261719 64.882812 43.597656 C 62.109375 42.933594 62.46875 39.980469 62.695312 39.800781 C 62.816406 39.542969 62.90625 39.152344 63.707031 39.527344 C 64.503906 39.90625 68.183594 41.761719 68.710938 41.851562 C 69.238281 41.941406 68.785156 46.945312 68.738281 46.882812 Z M 68.738281 46.882812 "/>
<path style="fill-rule:evenodd;fill:rgb(85.096741%,0%,0%);fill-opacity:1;stroke-width:0.141667;stroke-linecap:butt;stroke-linejoin:miter;stroke:rgb(0%,0%,0%);stroke-opacity:1;stroke-miterlimit:4;" d="M 66.101562 43.582031 C 66.058594 43.613281 69.808594 45.800781 68.679688 47.683594 C 69.75 46.972656 69.402344 45.738281 69.402344 45.738281 C 69.402344 45.738281 70.277344 48.015625 68.152344 49.128906 C 68.378906 49.324219 68.527344 49.28125 68.527344 49.28125 L 68.167969 49.640625 C 68.167969 49.640625 68 49.914062 69.433594 49.21875 C 69.042969 49.535156 69.011719 49.761719 69.011719 49.761719 C 69.011719 49.761719 69.117188 50.0625 70.050781 49.25 C 69.296875 50.0625 69.132812 50.484375 69.132812 50.472656 C 71.167969 50.289062 75.597656 43.675781 67.730469 41.714844 C 68.152344 42.152344 68.09375 42.089844 68.09375 42.089844 Z M 66.101562 43.582031 "/>
<path style="fill-rule:evenodd;fill:rgb(99.998474%,99.998474%,99.998474%);fill-opacity:1;stroke-width:0.141667;stroke-linecap:butt;stroke-linejoin:miter;stroke:rgb(0%,0%,0%);stroke-opacity:1;stroke-miterlimit:4;" d="M 66.269531 42.933594 C 66.78125 43.296875 66.960938 43.417969 67.023438 43.597656 C 66.554688 43.492188 66.132812 43.523438 66.132812 43.523438 C 66.132812 43.523438 65.125 42.558594 64.941406 42.484375 C 64.804688 42.484375 64.023438 41.984375 64.023438 41.984375 C 63.632812 41.789062 63.269531 40.433594 64.714844 40.824219 C 66.207031 41.535156 66.417969 41.59375 66.417969 41.59375 C 67.011719 41.78125 67.605469 41.964844 68.195312 42.152344 C 68.539062 42.535156 68.878906 42.914062 69.222656 43.296875 C 69.222656 43.296875 67.398438 42.394531 67.171875 42.378906 C 67.671875 42.785156 67.957031 43.34375 67.957031 43.34375 C 67.378906 43.175781 66.875 43.027344 66.269531 42.933594 Z M 66.269531 42.933594 "/>
<path style=" stroke:none;fill-rule:evenodd;fill:rgb(0%,0%,0%);fill-opacity:1;" d="M 59.171875 34.84375 C 59.171875 34.84375 60.917969 34.417969 61.128906 34.480469 Z M 59.171875 34.84375 "/>
<path style="fill:none;stroke-width:0.141667;stroke-linecap:butt;stroke-linejoin:miter;stroke:rgb(99.998474%,99.998474%,99.998474%);stroke-opacity:1;stroke-miterlimit:4;" d="M 59.171875 34.84375 C 59.171875 34.84375 60.917969 34.417969 61.128906 34.480469 "/>
</g>
</svg>
