<?xml version="1.0" encoding="UTF-8"?>
<svg xmlns="http://www.w3.org/2000/svg" xmlns:xlink="http://www.w3.org/1999/xlink" width="128pt" height="67pt" viewBox="0 0 128 67" version="1.1">
<g id="surface1172">
<rect x="0" y="0" width="128" height="67" style="fill:rgb(99.998474%,99.998474%,99.998474%);fill-opacity:1;stroke:none;"/>
<path style=" stroke:none;fill-rule:evenodd;fill:rgb(69.802856%,13.33313%,20.391846%);fill-opacity:1;" d="M 0 0 L 128 0 L 128 5.183594 L 0 5.183594 Z M 0 0 "/>
<path style=" stroke:none;fill-rule:evenodd;fill:rgb(69.802856%,13.33313%,20.391846%);fill-opacity:1;" d="M 0 10.363281 L 128 10.363281 L 128 15.546875 L 0 15.546875 Z M 0 10.363281 "/>
<path style=" stroke:none;fill-rule:evenodd;fill:rgb(69.802856%,13.33313%,20.391846%);fill-opacity:1;" d="M 0 20.730469 L 128 20.730469 L 128 25.910156 L 0 25.910156 Z M 0 20.730469 "/>
<path style=" stroke:none;fill-rule:evenodd;fill:rgb(69.802856%,13.33313%,20.391846%);fill-opacity:1;" d="M 0 31.09375 L 128 31.09375 L 128 36.273438 L 0 36.273438 Z M 0 31.09375 "/>
<path style=" stroke:none;fill-rule:evenodd;fill:rgb(69.802856%,13.33313%,20.391846%);fill-opacity:1;" d="M 0 41.457031 L 128 41.457031 L 128 46.640625 L 0 46.640625 Z M 0 41.457031 "/>
<path style=" stroke:none;fill-rule:evenodd;fill:rgb(69.802856%,13.33313%,20.391846%);fill-opacity:1;" d="M 0 51.820312 L 128 51.820312 L 128 57.003906 L 0 57.003906 Z M 0 51.820312 "/>
<path style=" stroke:none;fill-rule:evenodd;fill:rgb(69.802856%,13.33313%,20.391846%);fill-opacity:1;" d="M 0 62.1875 L 128 62.1875 L 128 67.367188 L 0 67.367188 Z M 0 62.1875 "/>
<path style=" stroke:none;fill-rule:evenodd;fill:rgb(23.529053%,23.136902%,43.136597%);fill-opacity:1;" d="M 0 0 L 51.199219 0 L 51.199219 36.273438 L 0 36.273438 Z M 0 0 "/>
<path style=" stroke:none;fill-rule:evenodd;fill:rgb(99.998474%,99.998474%,99.998474%);fill-opacity:1;" d="M 4.925781 3.980469 L 3.160156 5.265625 L 3.832031 3.191406 Z M 4.925781 3.980469 "/>
<path style=" stroke:none;fill-rule:evenodd;fill:rgb(99.998474%,99.998474%,99.998474%);fill-opacity:1;" d="M 4.171875 4.226562 L 2.40625 2.945312 L 4.585938 2.945312 Z M 4.171875 4.226562 "/>
<path style=" stroke:none;fill-rule:evenodd;fill:rgb(99.998474%,99.998474%,99.998474%);fill-opacity:1;" d="M 3.703125 3.585938 L 4.378906 1.511719 L 5.054688 3.585938 Z M 3.703125 3.585938 "/>
<path style=" stroke:none;fill-rule:evenodd;fill:rgb(99.998474%,99.998474%,99.998474%);fill-opacity:1;" d="M 4.171875 2.945312 L 6.351562 2.945312 L 4.585938 4.226562 Z M 4.171875 2.945312 "/>
<path style=" stroke:none;fill-rule:evenodd;fill:rgb(99.998474%,99.998474%,99.998474%);fill-opacity:1;" d="M 4.925781 3.191406 L 5.597656 5.265625 L 3.832031 3.980469 Z M 4.925781 3.191406 "/>
<path style=" stroke:none;fill-rule:evenodd;fill:rgb(99.998474%,99.998474%,99.998474%);fill-opacity:1;" d="M 13.414062 3.980469 L 11.648438 5.265625 L 12.320312 3.191406 Z M 13.414062 3.980469 "/>
<path style=" stroke:none;fill-rule:evenodd;fill:rgb(99.998474%,99.998474%,99.998474%);fill-opacity:1;" d="M 12.660156 4.226562 L 10.894531 2.945312 L 13.074219 2.945312 Z M 12.660156 4.226562 "/>
<path style=" stroke:none;fill-rule:evenodd;fill:rgb(99.998474%,99.998474%,99.998474%);fill-opacity:1;" d="M 12.191406 3.585938 L 12.867188 1.511719 L 13.542969 3.585938 Z M 12.191406 3.585938 "/>
<path style=" stroke:none;fill-rule:evenodd;fill:rgb(99.998474%,99.998474%,99.998474%);fill-opacity:1;" d="M 12.660156 2.945312 L 14.839844 2.945312 L 13.074219 4.226562 Z M 12.660156 2.945312 "/>
<path style=" stroke:none;fill-rule:evenodd;fill:rgb(99.998474%,99.998474%,99.998474%);fill-opacity:1;" d="M 13.414062 3.191406 L 14.085938 5.265625 L 12.320312 3.980469 Z M 13.414062 3.191406 "/>
<path style=" stroke:none;fill-rule:evenodd;fill:rgb(99.998474%,99.998474%,99.998474%);fill-opacity:1;" d="M 21.902344 3.980469 L 20.136719 5.265625 L 20.808594 3.191406 Z M 21.902344 3.980469 "/>
<path style=" stroke:none;fill-rule:evenodd;fill:rgb(99.998474%,99.998474%,99.998474%);fill-opacity:1;" d="M 21.148438 4.226562 L 19.382812 2.945312 L 21.5625 2.945312 Z M 21.148438 4.226562 "/>
<path style=" stroke:none;fill-rule:evenodd;fill:rgb(99.998474%,99.998474%,99.998474%);fill-opacity:1;" d="M 20.683594 3.585938 L 21.355469 1.511719 L 22.03125 3.585938 Z M 20.683594 3.585938 "/>
<path style=" stroke:none;fill-rule:evenodd;fill:rgb(99.998474%,99.998474%,99.998474%);fill-opacity:1;" d="M 21.148438 2.945312 L 23.328125 2.945312 L 21.5625 4.226562 Z M 21.148438 2.945312 "/>
<path style=" stroke:none;fill-rule:evenodd;fill:rgb(99.998474%,99.998474%,99.998474%);fill-opacity:1;" d="M 21.902344 3.191406 L 22.574219 5.265625 L 20.808594 3.980469 Z M 21.902344 3.191406 "/>
<path style=" stroke:none;fill-rule:evenodd;fill:rgb(99.998474%,99.998474%,99.998474%);fill-opacity:1;" d="M 30.390625 3.980469 L 28.625 5.265625 L 29.296875 3.191406 Z M 30.390625 3.980469 "/>
<path style=" stroke:none;fill-rule:evenodd;fill:rgb(99.998474%,99.998474%,99.998474%);fill-opacity:1;" d="M 29.636719 4.226562 L 27.871094 2.945312 L 30.050781 2.945312 Z M 29.636719 4.226562 "/>
<path style=" stroke:none;fill-rule:evenodd;fill:rgb(99.998474%,99.998474%,99.998474%);fill-opacity:1;" d="M 29.171875 3.585938 L 29.84375 1.511719 L 30.519531 3.585938 Z M 29.171875 3.585938 "/>
<path style=" stroke:none;fill-rule:evenodd;fill:rgb(99.998474%,99.998474%,99.998474%);fill-opacity:1;" d="M 29.636719 2.945312 L 31.816406 2.945312 L 30.050781 4.226562 Z M 29.636719 2.945312 "/>
<path style=" stroke:none;fill-rule:evenodd;fill:rgb(99.998474%,99.998474%,99.998474%);fill-opacity:1;" d="M 30.390625 3.191406 L 31.0625 5.265625 L 29.296875 3.980469 Z M 30.390625 3.191406 "/>
<path style=" stroke:none;fill-rule:evenodd;fill:rgb(99.998474%,99.998474%,99.998474%);fill-opacity:1;" d="M 38.878906 3.980469 L 37.113281 5.265625 L 37.789062 3.191406 Z M 38.878906 3.980469 "/>
<path style=" stroke:none;fill-rule:evenodd;fill:rgb(99.998474%,99.998474%,99.998474%);fill-opacity:1;" d="M 38.125 4.226562 L 36.359375 2.945312 L 38.539062 2.945312 Z M 38.125 4.226562 "/>
<path style=" stroke:none;fill-rule:evenodd;fill:rgb(99.998474%,99.998474%,99.998474%);fill-opacity:1;" d="M 37.660156 3.585938 L 38.332031 1.511719 L 39.007812 3.585938 Z M 37.660156 3.585938 "/>
<path style=" stroke:none;fill-rule:evenodd;fill:rgb(99.998474%,99.998474%,99.998474%);fill-opacity:1;" d="M 38.125 2.945312 L 40.304688 2.945312 L 38.539062 4.226562 Z M 38.125 2.945312 "/>
<path style=" stroke:none;fill-rule:evenodd;fill:rgb(99.998474%,99.998474%,99.998474%);fill-opacity:1;" d="M 38.878906 3.191406 L 39.550781 5.265625 L 37.789062 3.980469 Z M 38.878906 3.191406 "/>
<path style=" stroke:none;fill-rule:evenodd;fill:rgb(99.998474%,99.998474%,99.998474%);fill-opacity:1;" d="M 47.367188 3.980469 L 45.601562 5.265625 L 46.277344 3.191406 Z M 47.367188 3.980469 "/>
<path style=" stroke:none;fill-rule:evenodd;fill:rgb(99.998474%,99.998474%,99.998474%);fill-opacity:1;" d="M 46.613281 4.226562 L 44.847656 2.945312 L 47.03125 2.945312 Z M 46.613281 4.226562 "/>
<path style=" stroke:none;fill-rule:evenodd;fill:rgb(99.998474%,99.998474%,99.998474%);fill-opacity:1;" d="M 46.148438 3.585938 L 46.820312 1.511719 L 47.496094 3.585938 Z M 46.148438 3.585938 "/>
<path style=" stroke:none;fill-rule:evenodd;fill:rgb(99.998474%,99.998474%,99.998474%);fill-opacity:1;" d="M 46.613281 2.945312 L 48.792969 2.945312 L 47.03125 4.226562 Z M 46.613281 2.945312 "/>
<path style=" stroke:none;fill-rule:evenodd;fill:rgb(99.998474%,99.998474%,99.998474%);fill-opacity:1;" d="M 47.367188 3.191406 L 48.039062 5.265625 L 46.277344 3.980469 Z M 47.367188 3.191406 "/>
<path style=" stroke:none;fill-rule:evenodd;fill:rgb(99.998474%,99.998474%,99.998474%);fill-opacity:1;" d="M 9.167969 7.621094 L 7.402344 8.902344 L 8.078125 6.828125 Z M 9.167969 7.621094 "/>
<path style=" stroke:none;fill-rule:evenodd;fill:rgb(99.998474%,99.998474%,99.998474%);fill-opacity:1;" d="M 8.414062 7.867188 L 6.648438 6.582031 L 8.832031 6.582031 Z M 8.414062 7.867188 "/>
<path style=" stroke:none;fill-rule:evenodd;fill:rgb(99.998474%,99.998474%,99.998474%);fill-opacity:1;" d="M 7.949219 7.222656 L 8.621094 5.148438 L 9.296875 7.222656 Z M 7.949219 7.222656 "/>
<path style=" stroke:none;fill-rule:evenodd;fill:rgb(99.998474%,99.998474%,99.998474%);fill-opacity:1;" d="M 8.414062 6.582031 L 10.597656 6.582031 L 8.832031 7.867188 Z M 8.414062 6.582031 "/>
<path style=" stroke:none;fill-rule:evenodd;fill:rgb(99.998474%,99.998474%,99.998474%);fill-opacity:1;" d="M 9.167969 6.828125 L 9.84375 8.902344 L 8.078125 7.621094 Z M 9.167969 6.828125 "/>
<path style=" stroke:none;fill-rule:evenodd;fill:rgb(99.998474%,99.998474%,99.998474%);fill-opacity:1;" d="M 17.65625 7.621094 L 15.890625 8.902344 L 16.566406 6.828125 Z M 17.65625 7.621094 "/>
<path style=" stroke:none;fill-rule:evenodd;fill:rgb(99.998474%,99.998474%,99.998474%);fill-opacity:1;" d="M 16.902344 7.867188 L 15.136719 6.582031 L 17.320312 6.582031 Z M 16.902344 7.867188 "/>
<path style=" stroke:none;fill-rule:evenodd;fill:rgb(99.998474%,99.998474%,99.998474%);fill-opacity:1;" d="M 16.4375 7.222656 L 17.109375 5.148438 L 17.785156 7.222656 Z M 16.4375 7.222656 "/>
<path style=" stroke:none;fill-rule:evenodd;fill:rgb(99.998474%,99.998474%,99.998474%);fill-opacity:1;" d="M 16.902344 6.582031 L 19.085938 6.582031 L 17.320312 7.867188 Z M 16.902344 6.582031 "/>
<path style=" stroke:none;fill-rule:evenodd;fill:rgb(99.998474%,99.998474%,99.998474%);fill-opacity:1;" d="M 17.65625 6.828125 L 18.332031 8.902344 L 16.566406 7.621094 Z M 17.65625 6.828125 "/>
<path style=" stroke:none;fill-rule:evenodd;fill:rgb(99.998474%,99.998474%,99.998474%);fill-opacity:1;" d="M 26.144531 7.621094 L 24.378906 8.902344 L 25.054688 6.828125 Z M 26.144531 7.621094 "/>
<path style=" stroke:none;fill-rule:evenodd;fill:rgb(99.998474%,99.998474%,99.998474%);fill-opacity:1;" d="M 25.390625 7.867188 L 23.625 6.582031 L 25.808594 6.582031 Z M 25.390625 7.867188 "/>
<path style=" stroke:none;fill-rule:evenodd;fill:rgb(99.998474%,99.998474%,99.998474%);fill-opacity:1;" d="M 24.925781 7.222656 L 25.601562 5.148438 L 26.273438 7.222656 Z M 24.925781 7.222656 "/>
<path style=" stroke:none;fill-rule:evenodd;fill:rgb(99.998474%,99.998474%,99.998474%);fill-opacity:1;" d="M 25.390625 6.582031 L 27.574219 6.582031 L 25.808594 7.867188 Z M 25.390625 6.582031 "/>
<path style=" stroke:none;fill-rule:evenodd;fill:rgb(99.998474%,99.998474%,99.998474%);fill-opacity:1;" d="M 26.144531 6.828125 L 26.820312 8.902344 L 25.054688 7.621094 Z M 26.144531 6.828125 "/>
<path style=" stroke:none;fill-rule:evenodd;fill:rgb(99.998474%,99.998474%,99.998474%);fill-opacity:1;" d="M 34.632812 7.621094 L 32.867188 8.902344 L 33.542969 6.828125 Z M 34.632812 7.621094 "/>
<path style=" stroke:none;fill-rule:evenodd;fill:rgb(99.998474%,99.998474%,99.998474%);fill-opacity:1;" d="M 33.878906 7.867188 L 32.113281 6.582031 L 34.296875 6.582031 Z M 33.878906 7.867188 "/>
<path style=" stroke:none;fill-rule:evenodd;fill:rgb(99.998474%,99.998474%,99.998474%);fill-opacity:1;" d="M 33.414062 7.222656 L 34.089844 5.148438 L 34.761719 7.222656 Z M 33.414062 7.222656 "/>
<path style=" stroke:none;fill-rule:evenodd;fill:rgb(99.998474%,99.998474%,99.998474%);fill-opacity:1;" d="M 33.878906 6.582031 L 36.0625 6.582031 L 34.296875 7.867188 Z M 33.878906 6.582031 "/>
<path style=" stroke:none;fill-rule:evenodd;fill:rgb(99.998474%,99.998474%,99.998474%);fill-opacity:1;" d="M 34.632812 6.828125 L 35.308594 8.902344 L 33.542969 7.621094 Z M 34.632812 6.828125 "/>
<path style=" stroke:none;fill-rule:evenodd;fill:rgb(99.998474%,99.998474%,99.998474%);fill-opacity:1;" d="M 43.121094 7.621094 L 41.355469 8.902344 L 42.03125 6.828125 Z M 43.121094 7.621094 "/>
<path style=" stroke:none;fill-rule:evenodd;fill:rgb(99.998474%,99.998474%,99.998474%);fill-opacity:1;" d="M 42.367188 7.867188 L 40.601562 6.582031 L 42.785156 6.582031 Z M 42.367188 7.867188 "/>
<path style=" stroke:none;fill-rule:evenodd;fill:rgb(99.998474%,99.998474%,99.998474%);fill-opacity:1;" d="M 41.902344 7.222656 L 42.578125 5.148438 L 43.25 7.222656 Z M 41.902344 7.222656 "/>
<path style=" stroke:none;fill-rule:evenodd;fill:rgb(99.998474%,99.998474%,99.998474%);fill-opacity:1;" d="M 42.367188 6.582031 L 44.550781 6.582031 L 42.785156 7.867188 Z M 42.367188 6.582031 "/>
<path style=" stroke:none;fill-rule:evenodd;fill:rgb(99.998474%,99.998474%,99.998474%);fill-opacity:1;" d="M 43.121094 6.828125 L 43.796875 8.902344 L 42.03125 7.621094 Z M 43.121094 6.828125 "/>
<path style=" stroke:none;fill-rule:evenodd;fill:rgb(99.998474%,99.998474%,99.998474%);fill-opacity:1;" d="M 4.925781 11.257812 L 3.160156 12.539062 L 3.832031 10.464844 Z M 4.925781 11.257812 "/>
<path style=" stroke:none;fill-rule:evenodd;fill:rgb(99.998474%,99.998474%,99.998474%);fill-opacity:1;" d="M 4.171875 11.503906 L 2.40625 10.21875 L 4.585938 10.21875 Z M 4.171875 11.503906 "/>
<path style=" stroke:none;fill-rule:evenodd;fill:rgb(99.998474%,99.998474%,99.998474%);fill-opacity:1;" d="M 3.703125 10.863281 L 4.378906 8.785156 L 5.054688 10.863281 Z M 3.703125 10.863281 "/>
<path style=" stroke:none;fill-rule:evenodd;fill:rgb(99.998474%,99.998474%,99.998474%);fill-opacity:1;" d="M 4.171875 10.21875 L 6.351562 10.21875 L 4.585938 11.503906 Z M 4.171875 10.21875 "/>
<path style=" stroke:none;fill-rule:evenodd;fill:rgb(99.998474%,99.998474%,99.998474%);fill-opacity:1;" d="M 4.925781 10.464844 L 5.597656 12.539062 L 3.832031 11.257812 Z M 4.925781 10.464844 "/>
<path style=" stroke:none;fill-rule:evenodd;fill:rgb(99.998474%,99.998474%,99.998474%);fill-opacity:1;" d="M 13.414062 11.257812 L 11.648438 12.539062 L 12.320312 10.464844 Z M 13.414062 11.257812 "/>
<path style=" stroke:none;fill-rule:evenodd;fill:rgb(99.998474%,99.998474%,99.998474%);fill-opacity:1;" d="M 12.660156 11.503906 L 10.894531 10.21875 L 13.074219 10.21875 Z M 12.660156 11.503906 "/>
<path style=" stroke:none;fill-rule:evenodd;fill:rgb(99.998474%,99.998474%,99.998474%);fill-opacity:1;" d="M 12.191406 10.863281 L 12.867188 8.785156 L 13.542969 10.863281 Z M 12.191406 10.863281 "/>
<path style=" stroke:none;fill-rule:evenodd;fill:rgb(99.998474%,99.998474%,99.998474%);fill-opacity:1;" d="M 12.660156 10.21875 L 14.839844 10.21875 L 13.074219 11.503906 Z M 12.660156 10.21875 "/>
<path style=" stroke:none;fill-rule:evenodd;fill:rgb(99.998474%,99.998474%,99.998474%);fill-opacity:1;" d="M 13.414062 10.464844 L 14.085938 12.539062 L 12.320312 11.257812 Z M 13.414062 10.464844 "/>
<path style=" stroke:none;fill-rule:evenodd;fill:rgb(99.998474%,99.998474%,99.998474%);fill-opacity:1;" d="M 21.902344 11.257812 L 20.136719 12.539062 L 20.808594 10.464844 Z M 21.902344 11.257812 "/>
<path style=" stroke:none;fill-rule:evenodd;fill:rgb(99.998474%,99.998474%,99.998474%);fill-opacity:1;" d="M 21.148438 11.503906 L 19.382812 10.21875 L 21.5625 10.21875 Z M 21.148438 11.503906 "/>
<path style=" stroke:none;fill-rule:evenodd;fill:rgb(99.998474%,99.998474%,99.998474%);fill-opacity:1;" d="M 20.683594 10.863281 L 21.355469 8.785156 L 22.03125 10.863281 Z M 20.683594 10.863281 "/>
<path style=" stroke:none;fill-rule:evenodd;fill:rgb(99.998474%,99.998474%,99.998474%);fill-opacity:1;" d="M 21.148438 10.21875 L 23.328125 10.21875 L 21.5625 11.503906 Z M 21.148438 10.21875 "/>
<path style=" stroke:none;fill-rule:evenodd;fill:rgb(99.998474%,99.998474%,99.998474%);fill-opacity:1;" d="M 21.902344 10.464844 L 22.574219 12.539062 L 20.808594 11.257812 Z M 21.902344 10.464844 "/>
<path style=" stroke:none;fill-rule:evenodd;fill:rgb(99.998474%,99.998474%,99.998474%);fill-opacity:1;" d="M 30.390625 11.257812 L 28.625 12.539062 L 29.296875 10.464844 Z M 30.390625 11.257812 "/>
<path style=" stroke:none;fill-rule:evenodd;fill:rgb(99.998474%,99.998474%,99.998474%);fill-opacity:1;" d="M 29.636719 11.503906 L 27.871094 10.21875 L 30.050781 10.21875 Z M 29.636719 11.503906 "/>
<path style=" stroke:none;fill-rule:evenodd;fill:rgb(99.998474%,99.998474%,99.998474%);fill-opacity:1;" d="M 29.171875 10.863281 L 29.84375 8.785156 L 30.519531 10.863281 Z M 29.171875 10.863281 "/>
<path style=" stroke:none;fill-rule:evenodd;fill:rgb(99.998474%,99.998474%,99.998474%);fill-opacity:1;" d="M 29.636719 10.21875 L 31.816406 10.21875 L 30.050781 11.503906 Z M 29.636719 10.21875 "/>
<path style=" stroke:none;fill-rule:evenodd;fill:rgb(99.998474%,99.998474%,99.998474%);fill-opacity:1;" d="M 30.390625 10.464844 L 31.0625 12.539062 L 29.296875 11.257812 Z M 30.390625 10.464844 "/>
<path style=" stroke:none;fill-rule:evenodd;fill:rgb(99.998474%,99.998474%,99.998474%);fill-opacity:1;" d="M 38.878906 11.257812 L 37.113281 12.539062 L 37.789062 10.464844 Z M 38.878906 11.257812 "/>
<path style=" stroke:none;fill-rule:evenodd;fill:rgb(99.998474%,99.998474%,99.998474%);fill-opacity:1;" d="M 38.125 11.503906 L 36.359375 10.21875 L 38.539062 10.21875 Z M 38.125 11.503906 "/>
<path style=" stroke:none;fill-rule:evenodd;fill:rgb(99.998474%,99.998474%,99.998474%);fill-opacity:1;" d="M 37.660156 10.863281 L 38.332031 8.785156 L 39.007812 10.863281 Z M 37.660156 10.863281 "/>
<path style=" stroke:none;fill-rule:evenodd;fill:rgb(99.998474%,99.998474%,99.998474%);fill-opacity:1;" d="M 38.125 10.21875 L 40.304688 10.21875 L 38.539062 11.503906 Z M 38.125 10.21875 "/>
<path style=" stroke:none;fill-rule:evenodd;fill:rgb(99.998474%,99.998474%,99.998474%);fill-opacity:1;" d="M 38.878906 10.464844 L 39.550781 12.539062 L 37.789062 11.257812 Z M 38.878906 10.464844 "/>
<path style=" stroke:none;fill-rule:evenodd;fill:rgb(99.998474%,99.998474%,99.998474%);fill-opacity:1;" d="M 47.367188 11.257812 L 45.601562 12.539062 L 46.277344 10.464844 Z M 47.367188 11.257812 "/>
<path style=" stroke:none;fill-rule:evenodd;fill:rgb(99.998474%,99.998474%,99.998474%);fill-opacity:1;" d="M 46.613281 11.503906 L 44.847656 10.21875 L 47.03125 10.21875 Z M 46.613281 11.503906 "/>
<path style=" stroke:none;fill-rule:evenodd;fill:rgb(99.998474%,99.998474%,99.998474%);fill-opacity:1;" d="M 46.148438 10.863281 L 46.820312 8.785156 L 47.496094 10.863281 Z M 46.148438 10.863281 "/>
<path style=" stroke:none;fill-rule:evenodd;fill:rgb(99.998474%,99.998474%,99.998474%);fill-opacity:1;" d="M 46.613281 10.21875 L 48.792969 10.21875 L 47.03125 11.503906 Z M 46.613281 10.21875 "/>
<path style=" stroke:none;fill-rule:evenodd;fill:rgb(99.998474%,99.998474%,99.998474%);fill-opacity:1;" d="M 47.367188 10.464844 L 48.039062 12.539062 L 46.277344 11.257812 Z M 47.367188 10.464844 "/>
<path style=" stroke:none;fill-rule:evenodd;fill:rgb(99.998474%,99.998474%,99.998474%);fill-opacity:1;" d="M 9.167969 14.894531 L 7.402344 16.179688 L 8.078125 14.101562 Z M 9.167969 14.894531 "/>
<path style=" stroke:none;fill-rule:evenodd;fill:rgb(99.998474%,99.998474%,99.998474%);fill-opacity:1;" d="M 8.414062 15.140625 L 6.648438 13.859375 L 8.832031 13.859375 Z M 8.414062 15.140625 "/>
<path style=" stroke:none;fill-rule:evenodd;fill:rgb(99.998474%,99.998474%,99.998474%);fill-opacity:1;" d="M 7.949219 14.5 L 8.621094 12.425781 L 9.296875 14.5 Z M 7.949219 14.5 "/>
<path style=" stroke:none;fill-rule:evenodd;fill:rgb(99.998474%,99.998474%,99.998474%);fill-opacity:1;" d="M 8.414062 13.859375 L 10.597656 13.859375 L 8.832031 15.140625 Z M 8.414062 13.859375 "/>
<path style=" stroke:none;fill-rule:evenodd;fill:rgb(99.998474%,99.998474%,99.998474%);fill-opacity:1;" d="M 9.167969 14.101562 L 9.84375 16.179688 L 8.078125 14.894531 Z M 9.167969 14.101562 "/>
<path style=" stroke:none;fill-rule:evenodd;fill:rgb(99.998474%,99.998474%,99.998474%);fill-opacity:1;" d="M 17.65625 14.894531 L 15.890625 16.179688 L 16.566406 14.101562 Z M 17.65625 14.894531 "/>
<path style=" stroke:none;fill-rule:evenodd;fill:rgb(99.998474%,99.998474%,99.998474%);fill-opacity:1;" d="M 16.902344 15.140625 L 15.136719 13.859375 L 17.320312 13.859375 Z M 16.902344 15.140625 "/>
<path style=" stroke:none;fill-rule:evenodd;fill:rgb(99.998474%,99.998474%,99.998474%);fill-opacity:1;" d="M 16.4375 14.5 L 17.109375 12.425781 L 17.785156 14.5 Z M 16.4375 14.5 "/>
<path style=" stroke:none;fill-rule:evenodd;fill:rgb(99.998474%,99.998474%,99.998474%);fill-opacity:1;" d="M 16.902344 13.859375 L 19.085938 13.859375 L 17.320312 15.140625 Z M 16.902344 13.859375 "/>
<path style=" stroke:none;fill-rule:evenodd;fill:rgb(99.998474%,99.998474%,99.998474%);fill-opacity:1;" d="M 17.65625 14.101562 L 18.332031 16.179688 L 16.566406 14.894531 Z M 17.65625 14.101562 "/>
<path style=" stroke:none;fill-rule:evenodd;fill:rgb(99.998474%,99.998474%,99.998474%);fill-opacity:1;" d="M 26.144531 14.894531 L 24.378906 16.179688 L 25.054688 14.101562 Z M 26.144531 14.894531 "/>
<path style=" stroke:none;fill-rule:evenodd;fill:rgb(99.998474%,99.998474%,99.998474%);fill-opacity:1;" d="M 25.390625 15.140625 L 23.625 13.859375 L 25.808594 13.859375 Z M 25.390625 15.140625 "/>
<path style=" stroke:none;fill-rule:evenodd;fill:rgb(99.998474%,99.998474%,99.998474%);fill-opacity:1;" d="M 24.925781 14.5 L 25.601562 12.425781 L 26.273438 14.5 Z M 24.925781 14.5 "/>
<path style=" stroke:none;fill-rule:evenodd;fill:rgb(99.998474%,99.998474%,99.998474%);fill-opacity:1;" d="M 25.390625 13.859375 L 27.574219 13.859375 L 25.808594 15.140625 Z M 25.390625 13.859375 "/>
<path style=" stroke:none;fill-rule:evenodd;fill:rgb(99.998474%,99.998474%,99.998474%);fill-opacity:1;" d="M 26.144531 14.101562 L 26.820312 16.179688 L 25.054688 14.894531 Z M 26.144531 14.101562 "/>
<path style=" stroke:none;fill-rule:evenodd;fill:rgb(99.998474%,99.998474%,99.998474%);fill-opacity:1;" d="M 34.632812 14.894531 L 32.867188 16.179688 L 33.542969 14.101562 Z M 34.632812 14.894531 "/>
<path style=" stroke:none;fill-rule:evenodd;fill:rgb(99.998474%,99.998474%,99.998474%);fill-opacity:1;" d="M 33.878906 15.140625 L 32.113281 13.859375 L 34.296875 13.859375 Z M 33.878906 15.140625 "/>
<path style=" stroke:none;fill-rule:evenodd;fill:rgb(99.998474%,99.998474%,99.998474%);fill-opacity:1;" d="M 33.414062 14.5 L 34.089844 12.425781 L 34.761719 14.5 Z M 33.414062 14.5 "/>
<path style=" stroke:none;fill-rule:evenodd;fill:rgb(99.998474%,99.998474%,99.998474%);fill-opacity:1;" d="M 33.878906 13.859375 L 36.0625 13.859375 L 34.296875 15.140625 Z M 33.878906 13.859375 "/>
<path style=" stroke:none;fill-rule:evenodd;fill:rgb(99.998474%,99.998474%,99.998474%);fill-opacity:1;" d="M 34.632812 14.101562 L 35.308594 16.179688 L 33.542969 14.894531 Z M 34.632812 14.101562 "/>
<path style=" stroke:none;fill-rule:evenodd;fill:rgb(99.998474%,99.998474%,99.998474%);fill-opacity:1;" d="M 43.121094 14.894531 L 41.355469 16.179688 L 42.03125 14.101562 Z M 43.121094 14.894531 "/>
<path style=" stroke:none;fill-rule:evenodd;fill:rgb(99.998474%,99.998474%,99.998474%);fill-opacity:1;" d="M 42.367188 15.140625 L 40.601562 13.859375 L 42.785156 13.859375 Z M 42.367188 15.140625 "/>
<path style=" stroke:none;fill-rule:evenodd;fill:rgb(99.998474%,99.998474%,99.998474%);fill-opacity:1;" d="M 41.902344 14.5 L 42.578125 12.425781 L 43.25 14.5 Z M 41.902344 14.5 "/>
<path style=" stroke:none;fill-rule:evenodd;fill:rgb(99.998474%,99.998474%,99.998474%);fill-opacity:1;" d="M 42.367188 13.859375 L 44.550781 13.859375 L 42.785156 15.140625 Z M 42.367188 13.859375 "/>
<path style=" stroke:none;fill-rule:evenodd;fill:rgb(99.998474%,99.998474%,99.998474%);fill-opacity:1;" d="M 43.121094 14.101562 L 43.796875 16.179688 L 42.03125 14.894531 Z M 43.121094 14.101562 "/>
<path style=" stroke:none;fill-rule:evenodd;fill:rgb(99.998474%,99.998474%,99.998474%);fill-opacity:1;" d="M 4.925781 18.535156 L 3.160156 19.816406 L 3.832031 17.742188 Z M 4.925781 18.535156 "/>
<path style=" stroke:none;fill-rule:evenodd;fill:rgb(99.998474%,99.998474%,99.998474%);fill-opacity:1;" d="M 4.171875 18.777344 L 2.40625 17.496094 L 4.585938 17.496094 Z M 4.171875 18.777344 "/>
<path style=" stroke:none;fill-rule:evenodd;fill:rgb(99.998474%,99.998474%,99.998474%);fill-opacity:1;" d="M 3.703125 18.136719 L 4.378906 16.0625 L 5.054688 18.136719 Z M 3.703125 18.136719 "/>
<path style=" stroke:none;fill-rule:evenodd;fill:rgb(99.998474%,99.998474%,99.998474%);fill-opacity:1;" d="M 4.171875 17.496094 L 6.351562 17.496094 L 4.585938 18.777344 Z M 4.171875 17.496094 "/>
<path style=" stroke:none;fill-rule:evenodd;fill:rgb(99.998474%,99.998474%,99.998474%);fill-opacity:1;" d="M 4.925781 17.742188 L 5.597656 19.816406 L 3.832031 18.535156 Z M 4.925781 17.742188 "/>
<path style=" stroke:none;fill-rule:evenodd;fill:rgb(99.998474%,99.998474%,99.998474%);fill-opacity:1;" d="M 13.414062 18.535156 L 11.648438 19.816406 L 12.320312 17.742188 Z M 13.414062 18.535156 "/>
<path style=" stroke:none;fill-rule:evenodd;fill:rgb(99.998474%,99.998474%,99.998474%);fill-opacity:1;" d="M 12.660156 18.777344 L 10.894531 17.496094 L 13.074219 17.496094 Z M 12.660156 18.777344 "/>
<path style=" stroke:none;fill-rule:evenodd;fill:rgb(99.998474%,99.998474%,99.998474%);fill-opacity:1;" d="M 12.191406 18.136719 L 12.867188 16.0625 L 13.542969 18.136719 Z M 12.191406 18.136719 "/>
<path style=" stroke:none;fill-rule:evenodd;fill:rgb(99.998474%,99.998474%,99.998474%);fill-opacity:1;" d="M 12.660156 17.496094 L 14.839844 17.496094 L 13.074219 18.777344 Z M 12.660156 17.496094 "/>
<path style=" stroke:none;fill-rule:evenodd;fill:rgb(99.998474%,99.998474%,99.998474%);fill-opacity:1;" d="M 13.414062 17.742188 L 14.085938 19.816406 L 12.320312 18.535156 Z M 13.414062 17.742188 "/>
<path style=" stroke:none;fill-rule:evenodd;fill:rgb(99.998474%,99.998474%,99.998474%);fill-opacity:1;" d="M 21.902344 18.535156 L 20.136719 19.816406 L 20.808594 17.742188 Z M 21.902344 18.535156 "/>
<path style=" stroke:none;fill-rule:evenodd;fill:rgb(99.998474%,99.998474%,99.998474%);fill-opacity:1;" d="M 21.148438 18.777344 L 19.382812 17.496094 L 21.5625 17.496094 Z M 21.148438 18.777344 "/>
<path style=" stroke:none;fill-rule:evenodd;fill:rgb(99.998474%,99.998474%,99.998474%);fill-opacity:1;" d="M 20.683594 18.136719 L 21.355469 16.0625 L 22.03125 18.136719 Z M 20.683594 18.136719 "/>
<path style=" stroke:none;fill-rule:evenodd;fill:rgb(99.998474%,99.998474%,99.998474%);fill-opacity:1;" d="M 21.148438 17.496094 L 23.328125 17.496094 L 21.5625 18.777344 Z M 21.148438 17.496094 "/>
<path style=" stroke:none;fill-rule:evenodd;fill:rgb(99.998474%,99.998474%,99.998474%);fill-opacity:1;" d="M 21.902344 17.742188 L 22.574219 19.816406 L 20.808594 18.535156 Z M 21.902344 17.742188 "/>
<path style=" stroke:none;fill-rule:evenodd;fill:rgb(99.998474%,99.998474%,99.998474%);fill-opacity:1;" d="M 30.390625 18.535156 L 28.625 19.816406 L 29.296875 17.742188 Z M 30.390625 18.535156 "/>
<path style=" stroke:none;fill-rule:evenodd;fill:rgb(99.998474%,99.998474%,99.998474%);fill-opacity:1;" d="M 29.636719 18.777344 L 27.871094 17.496094 L 30.050781 17.496094 Z M 29.636719 18.777344 "/>
<path style=" stroke:none;fill-rule:evenodd;fill:rgb(99.998474%,99.998474%,99.998474%);fill-opacity:1;" d="M 29.171875 18.136719 L 29.84375 16.0625 L 30.519531 18.136719 Z M 29.171875 18.136719 "/>
<path style=" stroke:none;fill-rule:evenodd;fill:rgb(99.998474%,99.998474%,99.998474%);fill-opacity:1;" d="M 29.636719 17.496094 L 31.816406 17.496094 L 30.050781 18.777344 Z M 29.636719 17.496094 "/>
<path style=" stroke:none;fill-rule:evenodd;fill:rgb(99.998474%,99.998474%,99.998474%);fill-opacity:1;" d="M 30.390625 17.742188 L 31.0625 19.816406 L 29.296875 18.535156 Z M 30.390625 17.742188 "/>
<path style=" stroke:none;fill-rule:evenodd;fill:rgb(99.998474%,99.998474%,99.998474%);fill-opacity:1;" d="M 38.878906 18.535156 L 37.113281 19.816406 L 37.789062 17.742188 Z M 38.878906 18.535156 "/>
<path style=" stroke:none;fill-rule:evenodd;fill:rgb(99.998474%,99.998474%,99.998474%);fill-opacity:1;" d="M 38.125 18.777344 L 36.359375 17.496094 L 38.539062 17.496094 Z M 38.125 18.777344 "/>
<path style=" stroke:none;fill-rule:evenodd;fill:rgb(99.998474%,99.998474%,99.998474%);fill-opacity:1;" d="M 37.660156 18.136719 L 38.332031 16.0625 L 39.007812 18.136719 Z M 37.660156 18.136719 "/>
<path style=" stroke:none;fill-rule:evenodd;fill:rgb(99.998474%,99.998474%,99.998474%);fill-opacity:1;" d="M 38.125 17.496094 L 40.304688 17.496094 L 38.539062 18.777344 Z M 38.125 17.496094 "/>
<path style=" stroke:none;fill-rule:evenodd;fill:rgb(99.998474%,99.998474%,99.998474%);fill-opacity:1;" d="M 38.878906 17.742188 L 39.550781 19.816406 L 37.789062 18.535156 Z M 38.878906 17.742188 "/>
<path style=" stroke:none;fill-rule:evenodd;fill:rgb(99.998474%,99.998474%,99.998474%);fill-opacity:1;" d="M 47.367188 18.535156 L 45.601562 19.816406 L 46.277344 17.742188 Z M 47.367188 18.535156 "/>
<path style=" stroke:none;fill-rule:evenodd;fill:rgb(99.998474%,99.998474%,99.998474%);fill-opacity:1;" d="M 46.613281 18.777344 L 44.847656 17.496094 L 47.03125 17.496094 Z M 46.613281 18.777344 "/>
<path style=" stroke:none;fill-rule:evenodd;fill:rgb(99.998474%,99.998474%,99.998474%);fill-opacity:1;" d="M 46.148438 18.136719 L 46.820312 16.0625 L 47.496094 18.136719 Z M 46.148438 18.136719 "/>
<path style=" stroke:none;fill-rule:evenodd;fill:rgb(99.998474%,99.998474%,99.998474%);fill-opacity:1;" d="M 46.613281 17.496094 L 48.792969 17.496094 L 47.03125 18.777344 Z M 46.613281 17.496094 "/>
<path style=" stroke:none;fill-rule:evenodd;fill:rgb(99.998474%,99.998474%,99.998474%);fill-opacity:1;" d="M 47.367188 17.742188 L 48.039062 19.816406 L 46.277344 18.535156 Z M 47.367188 17.742188 "/>
<path style=" stroke:none;fill-rule:evenodd;fill:rgb(99.998474%,99.998474%,99.998474%);fill-opacity:1;" d="M 9.167969 22.171875 L 7.402344 23.453125 L 8.078125 21.378906 Z M 9.167969 22.171875 "/>
<path style=" stroke:none;fill-rule:evenodd;fill:rgb(99.998474%,99.998474%,99.998474%);fill-opacity:1;" d="M 8.414062 22.417969 L 6.648438 21.132812 L 8.832031 21.132812 Z M 8.414062 22.417969 "/>
<path style=" stroke:none;fill-rule:evenodd;fill:rgb(99.998474%,99.998474%,99.998474%);fill-opacity:1;" d="M 7.949219 21.773438 L 8.621094 19.699219 L 9.296875 21.773438 Z M 7.949219 21.773438 "/>
<path style=" stroke:none;fill-rule:evenodd;fill:rgb(99.998474%,99.998474%,99.998474%);fill-opacity:1;" d="M 8.414062 21.132812 L 10.597656 21.132812 L 8.832031 22.417969 Z M 8.414062 21.132812 "/>
<path style=" stroke:none;fill-rule:evenodd;fill:rgb(99.998474%,99.998474%,99.998474%);fill-opacity:1;" d="M 9.167969 21.378906 L 9.84375 23.453125 L 8.078125 22.171875 Z M 9.167969 21.378906 "/>
<path style=" stroke:none;fill-rule:evenodd;fill:rgb(99.998474%,99.998474%,99.998474%);fill-opacity:1;" d="M 17.65625 22.171875 L 15.890625 23.453125 L 16.566406 21.378906 Z M 17.65625 22.171875 "/>
<path style=" stroke:none;fill-rule:evenodd;fill:rgb(99.998474%,99.998474%,99.998474%);fill-opacity:1;" d="M 16.902344 22.417969 L 15.136719 21.132812 L 17.320312 21.132812 Z M 16.902344 22.417969 "/>
<path style=" stroke:none;fill-rule:evenodd;fill:rgb(99.998474%,99.998474%,99.998474%);fill-opacity:1;" d="M 16.4375 21.773438 L 17.109375 19.699219 L 17.785156 21.773438 Z M 16.4375 21.773438 "/>
<path style=" stroke:none;fill-rule:evenodd;fill:rgb(99.998474%,99.998474%,99.998474%);fill-opacity:1;" d="M 16.902344 21.132812 L 19.085938 21.132812 L 17.320312 22.417969 Z M 16.902344 21.132812 "/>
<path style=" stroke:none;fill-rule:evenodd;fill:rgb(99.998474%,99.998474%,99.998474%);fill-opacity:1;" d="M 17.65625 21.378906 L 18.332031 23.453125 L 16.566406 22.171875 Z M 17.65625 21.378906 "/>
<path style=" stroke:none;fill-rule:evenodd;fill:rgb(99.998474%,99.998474%,99.998474%);fill-opacity:1;" d="M 26.144531 22.171875 L 24.378906 23.453125 L 25.054688 21.378906 Z M 26.144531 22.171875 "/>
<path style=" stroke:none;fill-rule:evenodd;fill:rgb(99.998474%,99.998474%,99.998474%);fill-opacity:1;" d="M 25.390625 22.417969 L 23.625 21.132812 L 25.808594 21.132812 Z M 25.390625 22.417969 "/>
<path style=" stroke:none;fill-rule:evenodd;fill:rgb(99.998474%,99.998474%,99.998474%);fill-opacity:1;" d="M 24.925781 21.773438 L 25.601562 19.699219 L 26.273438 21.773438 Z M 24.925781 21.773438 "/>
<path style=" stroke:none;fill-rule:evenodd;fill:rgb(99.998474%,99.998474%,99.998474%);fill-opacity:1;" d="M 25.390625 21.132812 L 27.574219 21.132812 L 25.808594 22.417969 Z M 25.390625 21.132812 "/>
<path style=" stroke:none;fill-rule:evenodd;fill:rgb(99.998474%,99.998474%,99.998474%);fill-opacity:1;" d="M 26.144531 21.378906 L 26.820312 23.453125 L 25.054688 22.171875 Z M 26.144531 21.378906 "/>
<path style=" stroke:none;fill-rule:evenodd;fill:rgb(99.998474%,99.998474%,99.998474%);fill-opacity:1;" d="M 34.632812 22.171875 L 32.867188 23.453125 L 33.542969 21.378906 Z M 34.632812 22.171875 "/>
<path style=" stroke:none;fill-rule:evenodd;fill:rgb(99.998474%,99.998474%,99.998474%);fill-opacity:1;" d="M 33.878906 22.417969 L 32.113281 21.132812 L 34.296875 21.132812 Z M 33.878906 22.417969 "/>
<path style=" stroke:none;fill-rule:evenodd;fill:rgb(99.998474%,99.998474%,99.998474%);fill-opacity:1;" d="M 33.414062 21.773438 L 34.089844 19.699219 L 34.761719 21.773438 Z M 33.414062 21.773438 "/>
<path style=" stroke:none;fill-rule:evenodd;fill:rgb(99.998474%,99.998474%,99.998474%);fill-opacity:1;" d="M 33.878906 21.132812 L 36.0625 21.132812 L 34.296875 22.417969 Z M 33.878906 21.132812 "/>
<path style=" stroke:none;fill-rule:evenodd;fill:rgb(99.998474%,99.998474%,99.998474%);fill-opacity:1;" d="M 34.632812 21.378906 L 35.308594 23.453125 L 33.542969 22.171875 Z M 34.632812 21.378906 "/>
<path style=" stroke:none;fill-rule:evenodd;fill:rgb(99.998474%,99.998474%,99.998474%);fill-opacity:1;" d="M 43.121094 22.171875 L 41.355469 23.453125 L 42.03125 21.378906 Z M 43.121094 22.171875 "/>
<path style=" stroke:none;fill-rule:evenodd;fill:rgb(99.998474%,99.998474%,99.998474%);fill-opacity:1;" d="M 42.367188 22.417969 L 40.601562 21.132812 L 42.785156 21.132812 Z M 42.367188 22.417969 "/>
<path style=" stroke:none;fill-rule:evenodd;fill:rgb(99.998474%,99.998474%,99.998474%);fill-opacity:1;" d="M 41.902344 21.773438 L 42.578125 19.699219 L 43.25 21.773438 Z M 41.902344 21.773438 "/>
<path style=" stroke:none;fill-rule:evenodd;fill:rgb(99.998474%,99.998474%,99.998474%);fill-opacity:1;" d="M 42.367188 21.132812 L 44.550781 21.132812 L 42.785156 22.417969 Z M 42.367188 21.132812 "/>
<path style=" stroke:none;fill-rule:evenodd;fill:rgb(99.998474%,99.998474%,99.998474%);fill-opacity:1;" d="M 43.121094 21.378906 L 43.796875 23.453125 L 42.03125 22.171875 Z M 43.121094 21.378906 "/>
<path style=" stroke:none;fill-rule:evenodd;fill:rgb(99.998474%,99.998474%,99.998474%);fill-opacity:1;" d="M 4.925781 25.808594 L 3.160156 27.09375 L 3.832031 25.015625 Z M 4.925781 25.808594 "/>
<path style=" stroke:none;fill-rule:evenodd;fill:rgb(99.998474%,99.998474%,99.998474%);fill-opacity:1;" d="M 4.171875 26.054688 L 2.40625 24.773438 L 4.585938 24.773438 Z M 4.171875 26.054688 "/>
<path style=" stroke:none;fill-rule:evenodd;fill:rgb(99.998474%,99.998474%,99.998474%);fill-opacity:1;" d="M 3.703125 25.414062 L 4.378906 23.339844 L 5.054688 25.414062 Z M 3.703125 25.414062 "/>
<path style=" stroke:none;fill-rule:evenodd;fill:rgb(99.998474%,99.998474%,99.998474%);fill-opacity:1;" d="M 4.171875 24.773438 L 6.351562 24.773438 L 4.585938 26.054688 Z M 4.171875 24.773438 "/>
<path style=" stroke:none;fill-rule:evenodd;fill:rgb(99.998474%,99.998474%,99.998474%);fill-opacity:1;" d="M 4.925781 25.015625 L 5.597656 27.09375 L 3.832031 25.808594 Z M 4.925781 25.015625 "/>
<path style=" stroke:none;fill-rule:evenodd;fill:rgb(99.998474%,99.998474%,99.998474%);fill-opacity:1;" d="M 13.414062 25.808594 L 11.648438 27.09375 L 12.320312 25.015625 Z M 13.414062 25.808594 "/>
<path style=" stroke:none;fill-rule:evenodd;fill:rgb(99.998474%,99.998474%,99.998474%);fill-opacity:1;" d="M 12.660156 26.054688 L 10.894531 24.773438 L 13.074219 24.773438 Z M 12.660156 26.054688 "/>
<path style=" stroke:none;fill-rule:evenodd;fill:rgb(99.998474%,99.998474%,99.998474%);fill-opacity:1;" d="M 12.191406 25.414062 L 12.867188 23.339844 L 13.542969 25.414062 Z M 12.191406 25.414062 "/>
<path style=" stroke:none;fill-rule:evenodd;fill:rgb(99.998474%,99.998474%,99.998474%);fill-opacity:1;" d="M 12.660156 24.773438 L 14.839844 24.773438 L 13.074219 26.054688 Z M 12.660156 24.773438 "/>
<path style=" stroke:none;fill-rule:evenodd;fill:rgb(99.998474%,99.998474%,99.998474%);fill-opacity:1;" d="M 13.414062 25.015625 L 14.085938 27.09375 L 12.320312 25.808594 Z M 13.414062 25.015625 "/>
<path style=" stroke:none;fill-rule:evenodd;fill:rgb(99.998474%,99.998474%,99.998474%);fill-opacity:1;" d="M 21.902344 25.808594 L 20.136719 27.09375 L 20.808594 25.015625 Z M 21.902344 25.808594 "/>
<path style=" stroke:none;fill-rule:evenodd;fill:rgb(99.998474%,99.998474%,99.998474%);fill-opacity:1;" d="M 21.148438 26.054688 L 19.382812 24.773438 L 21.5625 24.773438 Z M 21.148438 26.054688 "/>
<path style=" stroke:none;fill-rule:evenodd;fill:rgb(99.998474%,99.998474%,99.998474%);fill-opacity:1;" d="M 20.683594 25.414062 L 21.355469 23.339844 L 22.03125 25.414062 Z M 20.683594 25.414062 "/>
<path style=" stroke:none;fill-rule:evenodd;fill:rgb(99.998474%,99.998474%,99.998474%);fill-opacity:1;" d="M 21.148438 24.773438 L 23.328125 24.773438 L 21.5625 26.054688 Z M 21.148438 24.773438 "/>
<path style=" stroke:none;fill-rule:evenodd;fill:rgb(99.998474%,99.998474%,99.998474%);fill-opacity:1;" d="M 21.902344 25.015625 L 22.574219 27.09375 L 20.808594 25.808594 Z M 21.902344 25.015625 "/>
<path style=" stroke:none;fill-rule:evenodd;fill:rgb(99.998474%,99.998474%,99.998474%);fill-opacity:1;" d="M 30.390625 25.808594 L 28.625 27.09375 L 29.296875 25.015625 Z M 30.390625 25.808594 "/>
<path style=" stroke:none;fill-rule:evenodd;fill:rgb(99.998474%,99.998474%,99.998474%);fill-opacity:1;" d="M 29.636719 26.054688 L 27.871094 24.773438 L 30.050781 24.773438 Z M 29.636719 26.054688 "/>
<path style=" stroke:none;fill-rule:evenodd;fill:rgb(99.998474%,99.998474%,99.998474%);fill-opacity:1;" d="M 29.171875 25.414062 L 29.84375 23.339844 L 30.519531 25.414062 Z M 29.171875 25.414062 "/>
<path style=" stroke:none;fill-rule:evenodd;fill:rgb(99.998474%,99.998474%,99.998474%);fill-opacity:1;" d="M 29.636719 24.773438 L 31.816406 24.773438 L 30.050781 26.054688 Z M 29.636719 24.773438 "/>
<path style=" stroke:none;fill-rule:evenodd;fill:rgb(99.998474%,99.998474%,99.998474%);fill-opacity:1;" d="M 30.390625 25.015625 L 31.0625 27.09375 L 29.296875 25.808594 Z M 30.390625 25.015625 "/>
<path style=" stroke:none;fill-rule:evenodd;fill:rgb(99.998474%,99.998474%,99.998474%);fill-opacity:1;" d="M 38.878906 25.808594 L 37.113281 27.09375 L 37.789062 25.015625 Z M 38.878906 25.808594 "/>
<path style=" stroke:none;fill-rule:evenodd;fill:rgb(99.998474%,99.998474%,99.998474%);fill-opacity:1;" d="M 38.125 26.054688 L 36.359375 24.773438 L 38.539062 24.773438 Z M 38.125 26.054688 "/>
<path style=" stroke:none;fill-rule:evenodd;fill:rgb(99.998474%,99.998474%,99.998474%);fill-opacity:1;" d="M 37.660156 25.414062 L 38.332031 23.339844 L 39.007812 25.414062 Z M 37.660156 25.414062 "/>
<path style=" stroke:none;fill-rule:evenodd;fill:rgb(99.998474%,99.998474%,99.998474%);fill-opacity:1;" d="M 38.125 24.773438 L 40.304688 24.773438 L 38.539062 26.054688 Z M 38.125 24.773438 "/>
<path style=" stroke:none;fill-rule:evenodd;fill:rgb(99.998474%,99.998474%,99.998474%);fill-opacity:1;" d="M 38.878906 25.015625 L 39.550781 27.09375 L 37.789062 25.808594 Z M 38.878906 25.015625 "/>
<path style=" stroke:none;fill-rule:evenodd;fill:rgb(99.998474%,99.998474%,99.998474%);fill-opacity:1;" d="M 47.367188 25.808594 L 45.601562 27.09375 L 46.277344 25.015625 Z M 47.367188 25.808594 "/>
<path style=" stroke:none;fill-rule:evenodd;fill:rgb(99.998474%,99.998474%,99.998474%);fill-opacity:1;" d="M 46.613281 26.054688 L 44.847656 24.773438 L 47.03125 24.773438 Z M 46.613281 26.054688 "/>
<path style=" stroke:none;fill-rule:evenodd;fill:rgb(99.998474%,99.998474%,99.998474%);fill-opacity:1;" d="M 46.148438 25.414062 L 46.820312 23.339844 L 47.496094 25.414062 Z M 46.148438 25.414062 "/>
<path style=" stroke:none;fill-rule:evenodd;fill:rgb(99.998474%,99.998474%,99.998474%);fill-opacity:1;" d="M 46.613281 24.773438 L 48.792969 24.773438 L 47.03125 26.054688 Z M 46.613281 24.773438 "/>
<path style=" stroke:none;fill-rule:evenodd;fill:rgb(99.998474%,99.998474%,99.998474%);fill-opacity:1;" d="M 47.367188 25.015625 L 48.039062 27.09375 L 46.277344 25.808594 Z M 47.367188 25.015625 "/>
<path style=" stroke:none;fill-rule:evenodd;fill:rgb(99.998474%,99.998474%,99.998474%);fill-opacity:1;" d="M 9.167969 29.449219 L 7.402344 30.730469 L 8.078125 28.65625 Z M 9.167969 29.449219 "/>
<path style=" stroke:none;fill-rule:evenodd;fill:rgb(99.998474%,99.998474%,99.998474%);fill-opacity:1;" d="M 8.414062 29.691406 L 6.648438 28.410156 L 8.832031 28.410156 Z M 8.414062 29.691406 "/>
<path style=" stroke:none;fill-rule:evenodd;fill:rgb(99.998474%,99.998474%,99.998474%);fill-opacity:1;" d="M 7.949219 29.050781 L 8.621094 26.976562 L 9.296875 29.050781 Z M 7.949219 29.050781 "/>
<path style=" stroke:none;fill-rule:evenodd;fill:rgb(99.998474%,99.998474%,99.998474%);fill-opacity:1;" d="M 8.414062 28.410156 L 10.597656 28.410156 L 8.832031 29.691406 Z M 8.414062 28.410156 "/>
<path style=" stroke:none;fill-rule:evenodd;fill:rgb(99.998474%,99.998474%,99.998474%);fill-opacity:1;" d="M 9.167969 28.65625 L 9.84375 30.730469 L 8.078125 29.449219 Z M 9.167969 28.65625 "/>
<path style=" stroke:none;fill-rule:evenodd;fill:rgb(99.998474%,99.998474%,99.998474%);fill-opacity:1;" d="M 17.65625 29.449219 L 15.890625 30.730469 L 16.566406 28.65625 Z M 17.65625 29.449219 "/>
<path style=" stroke:none;fill-rule:evenodd;fill:rgb(99.998474%,99.998474%,99.998474%);fill-opacity:1;" d="M 16.902344 29.691406 L 15.136719 28.410156 L 17.320312 28.410156 Z M 16.902344 29.691406 "/>
<path style=" stroke:none;fill-rule:evenodd;fill:rgb(99.998474%,99.998474%,99.998474%);fill-opacity:1;" d="M 16.4375 29.050781 L 17.109375 26.976562 L 17.785156 29.050781 Z M 16.4375 29.050781 "/>
<path style=" stroke:none;fill-rule:evenodd;fill:rgb(99.998474%,99.998474%,99.998474%);fill-opacity:1;" d="M 16.902344 28.410156 L 19.085938 28.410156 L 17.320312 29.691406 Z M 16.902344 28.410156 "/>
<path style=" stroke:none;fill-rule:evenodd;fill:rgb(99.998474%,99.998474%,99.998474%);fill-opacity:1;" d="M 17.65625 28.65625 L 18.332031 30.730469 L 16.566406 29.449219 Z M 17.65625 28.65625 "/>
<path style=" stroke:none;fill-rule:evenodd;fill:rgb(99.998474%,99.998474%,99.998474%);fill-opacity:1;" d="M 26.144531 29.449219 L 24.378906 30.730469 L 25.054688 28.65625 Z M 26.144531 29.449219 "/>
<path style=" stroke:none;fill-rule:evenodd;fill:rgb(99.998474%,99.998474%,99.998474%);fill-opacity:1;" d="M 25.390625 29.691406 L 23.625 28.410156 L 25.808594 28.410156 Z M 25.390625 29.691406 "/>
<path style=" stroke:none;fill-rule:evenodd;fill:rgb(99.998474%,99.998474%,99.998474%);fill-opacity:1;" d="M 24.925781 29.050781 L 25.601562 26.976562 L 26.273438 29.050781 Z M 24.925781 29.050781 "/>
<path style=" stroke:none;fill-rule:evenodd;fill:rgb(99.998474%,99.998474%,99.998474%);fill-opacity:1;" d="M 25.390625 28.410156 L 27.574219 28.410156 L 25.808594 29.691406 Z M 25.390625 28.410156 "/>
<path style=" stroke:none;fill-rule:evenodd;fill:rgb(99.998474%,99.998474%,99.998474%);fill-opacity:1;" d="M 26.144531 28.65625 L 26.820312 30.730469 L 25.054688 29.449219 Z M 26.144531 28.65625 "/>
<path style=" stroke:none;fill-rule:evenodd;fill:rgb(99.998474%,99.998474%,99.998474%);fill-opacity:1;" d="M 34.632812 29.449219 L 32.867188 30.730469 L 33.542969 28.65625 Z M 34.632812 29.449219 "/>
<path style=" stroke:none;fill-rule:evenodd;fill:rgb(99.998474%,99.998474%,99.998474%);fill-opacity:1;" d="M 33.878906 29.691406 L 32.113281 28.410156 L 34.296875 28.410156 Z M 33.878906 29.691406 "/>
<path style=" stroke:none;fill-rule:evenodd;fill:rgb(99.998474%,99.998474%,99.998474%);fill-opacity:1;" d="M 33.414062 29.050781 L 34.089844 26.976562 L 34.761719 29.050781 Z M 33.414062 29.050781 "/>
<path style=" stroke:none;fill-rule:evenodd;fill:rgb(99.998474%,99.998474%,99.998474%);fill-opacity:1;" d="M 33.878906 28.410156 L 36.0625 28.410156 L 34.296875 29.691406 Z M 33.878906 28.410156 "/>
<path style=" stroke:none;fill-rule:evenodd;fill:rgb(99.998474%,99.998474%,99.998474%);fill-opacity:1;" d="M 34.632812 28.65625 L 35.308594 30.730469 L 33.542969 29.449219 Z M 34.632812 28.65625 "/>
<path style=" stroke:none;fill-rule:evenodd;fill:rgb(99.998474%,99.998474%,99.998474%);fill-opacity:1;" d="M 43.121094 29.449219 L 41.355469 30.730469 L 42.03125 28.65625 Z M 43.121094 29.449219 "/>
<path style=" stroke:none;fill-rule:evenodd;fill:rgb(99.998474%,99.998474%,99.998474%);fill-opacity:1;" d="M 42.367188 29.691406 L 40.601562 28.410156 L 42.785156 28.410156 Z M 42.367188 29.691406 "/>
<path style=" stroke:none;fill-rule:evenodd;fill:rgb(99.998474%,99.998474%,99.998474%);fill-opacity:1;" d="M 41.902344 29.050781 L 42.578125 26.976562 L 43.25 29.050781 Z M 41.902344 29.050781 "/>
<path style=" stroke:none;fill-rule:evenodd;fill:rgb(99.998474%,99.998474%,99.998474%);fill-opacity:1;" d="M 42.367188 28.410156 L 44.550781 28.410156 L 42.785156 29.691406 Z M 42.367188 28.410156 "/>
<path style=" stroke:none;fill-rule:evenodd;fill:rgb(99.998474%,99.998474%,99.998474%);fill-opacity:1;" d="M 43.121094 28.65625 L 43.796875 30.730469 L 42.03125 29.449219 Z M 43.121094 28.65625 "/>
<path style=" stroke:none;fill-rule:evenodd;fill:rgb(99.998474%,99.998474%,99.998474%);fill-opacity:1;" d="M 4.925781 33.085938 L 3.160156 34.367188 L 3.832031 32.292969 Z M 4.925781 33.085938 "/>
<path style=" stroke:none;fill-rule:evenodd;fill:rgb(99.998474%,99.998474%,99.998474%);fill-opacity:1;" d="M 4.171875 33.332031 L 2.40625 32.046875 L 4.585938 32.046875 Z M 4.171875 33.332031 "/>
<path style=" stroke:none;fill-rule:evenodd;fill:rgb(99.998474%,99.998474%,99.998474%);fill-opacity:1;" d="M 3.703125 32.6875 L 4.378906 30.613281 L 5.054688 32.6875 Z M 3.703125 32.6875 "/>
<path style=" stroke:none;fill-rule:evenodd;fill:rgb(99.998474%,99.998474%,99.998474%);fill-opacity:1;" d="M 4.171875 32.046875 L 6.351562 32.046875 L 4.585938 33.332031 Z M 4.171875 32.046875 "/>
<path style=" stroke:none;fill-rule:evenodd;fill:rgb(99.998474%,99.998474%,99.998474%);fill-opacity:1;" d="M 4.925781 32.292969 L 5.597656 34.367188 L 3.832031 33.085938 Z M 4.925781 32.292969 "/>
<path style=" stroke:none;fill-rule:evenodd;fill:rgb(99.998474%,99.998474%,99.998474%);fill-opacity:1;" d="M 13.414062 33.085938 L 11.648438 34.367188 L 12.320312 32.292969 Z M 13.414062 33.085938 "/>
<path style=" stroke:none;fill-rule:evenodd;fill:rgb(99.998474%,99.998474%,99.998474%);fill-opacity:1;" d="M 12.660156 33.332031 L 10.894531 32.046875 L 13.074219 32.046875 Z M 12.660156 33.332031 "/>
<path style=" stroke:none;fill-rule:evenodd;fill:rgb(99.998474%,99.998474%,99.998474%);fill-opacity:1;" d="M 12.191406 32.6875 L 12.867188 30.613281 L 13.542969 32.6875 Z M 12.191406 32.6875 "/>
<path style=" stroke:none;fill-rule:evenodd;fill:rgb(99.998474%,99.998474%,99.998474%);fill-opacity:1;" d="M 12.660156 32.046875 L 14.839844 32.046875 L 13.074219 33.332031 Z M 12.660156 32.046875 "/>
<path style=" stroke:none;fill-rule:evenodd;fill:rgb(99.998474%,99.998474%,99.998474%);fill-opacity:1;" d="M 13.414062 32.292969 L 14.085938 34.367188 L 12.320312 33.085938 Z M 13.414062 32.292969 "/>
<path style=" stroke:none;fill-rule:evenodd;fill:rgb(99.998474%,99.998474%,99.998474%);fill-opacity:1;" d="M 21.902344 33.085938 L 20.136719 34.367188 L 20.808594 32.292969 Z M 21.902344 33.085938 "/>
<path style=" stroke:none;fill-rule:evenodd;fill:rgb(99.998474%,99.998474%,99.998474%);fill-opacity:1;" d="M 21.148438 33.332031 L 19.382812 32.046875 L 21.5625 32.046875 Z M 21.148438 33.332031 "/>
<path style=" stroke:none;fill-rule:evenodd;fill:rgb(99.998474%,99.998474%,99.998474%);fill-opacity:1;" d="M 20.683594 32.6875 L 21.355469 30.613281 L 22.03125 32.6875 Z M 20.683594 32.6875 "/>
<path style=" stroke:none;fill-rule:evenodd;fill:rgb(99.998474%,99.998474%,99.998474%);fill-opacity:1;" d="M 21.148438 32.046875 L 23.328125 32.046875 L 21.5625 33.332031 Z M 21.148438 32.046875 "/>
<path style=" stroke:none;fill-rule:evenodd;fill:rgb(99.998474%,99.998474%,99.998474%);fill-opacity:1;" d="M 21.902344 32.292969 L 22.574219 34.367188 L 20.808594 33.085938 Z M 21.902344 32.292969 "/>
<path style=" stroke:none;fill-rule:evenodd;fill:rgb(99.998474%,99.998474%,99.998474%);fill-opacity:1;" d="M 30.390625 33.085938 L 28.625 34.367188 L 29.296875 32.292969 Z M 30.390625 33.085938 "/>
<path style=" stroke:none;fill-rule:evenodd;fill:rgb(99.998474%,99.998474%,99.998474%);fill-opacity:1;" d="M 29.636719 33.332031 L 27.871094 32.046875 L 30.050781 32.046875 Z M 29.636719 33.332031 "/>
<path style=" stroke:none;fill-rule:evenodd;fill:rgb(99.998474%,99.998474%,99.998474%);fill-opacity:1;" d="M 29.171875 32.6875 L 29.84375 30.613281 L 30.519531 32.6875 Z M 29.171875 32.6875 "/>
<path style=" stroke:none;fill-rule:evenodd;fill:rgb(99.998474%,99.998474%,99.998474%);fill-opacity:1;" d="M 29.636719 32.046875 L 31.816406 32.046875 L 30.050781 33.332031 Z M 29.636719 32.046875 "/>
<path style=" stroke:none;fill-rule:evenodd;fill:rgb(99.998474%,99.998474%,99.998474%);fill-opacity:1;" d="M 30.390625 32.292969 L 31.0625 34.367188 L 29.296875 33.085938 Z M 30.390625 32.292969 "/>
<path style=" stroke:none;fill-rule:evenodd;fill:rgb(99.998474%,99.998474%,99.998474%);fill-opacity:1;" d="M 38.878906 33.085938 L 37.113281 34.367188 L 37.789062 32.292969 Z M 38.878906 33.085938 "/>
<path style=" stroke:none;fill-rule:evenodd;fill:rgb(99.998474%,99.998474%,99.998474%);fill-opacity:1;" d="M 38.125 33.332031 L 36.359375 32.046875 L 38.539062 32.046875 Z M 38.125 33.332031 "/>
<path style=" stroke:none;fill-rule:evenodd;fill:rgb(99.998474%,99.998474%,99.998474%);fill-opacity:1;" d="M 37.660156 32.6875 L 38.332031 30.613281 L 39.007812 32.6875 Z M 37.660156 32.6875 "/>
<path style=" stroke:none;fill-rule:evenodd;fill:rgb(99.998474%,99.998474%,99.998474%);fill-opacity:1;" d="M 38.125 32.046875 L 40.304688 32.046875 L 38.539062 33.332031 Z M 38.125 32.046875 "/>
<path style=" stroke:none;fill-rule:evenodd;fill:rgb(99.998474%,99.998474%,99.998474%);fill-opacity:1;" d="M 38.878906 32.292969 L 39.550781 34.367188 L 37.789062 33.085938 Z M 38.878906 32.292969 "/>
<path style=" stroke:none;fill-rule:evenodd;fill:rgb(99.998474%,99.998474%,99.998474%);fill-opacity:1;" d="M 47.367188 33.085938 L 45.601562 34.367188 L 46.277344 32.292969 Z M 47.367188 33.085938 "/>
<path style=" stroke:none;fill-rule:evenodd;fill:rgb(99.998474%,99.998474%,99.998474%);fill-opacity:1;" d="M 46.613281 33.332031 L 44.847656 32.046875 L 47.03125 32.046875 Z M 46.613281 33.332031 "/>
<path style=" stroke:none;fill-rule:evenodd;fill:rgb(99.998474%,99.998474%,99.998474%);fill-opacity:1;" d="M 46.148438 32.6875 L 46.820312 30.613281 L 47.496094 32.6875 Z M 46.148438 32.6875 "/>
<path style=" stroke:none;fill-rule:evenodd;fill:rgb(99.998474%,99.998474%,99.998474%);fill-opacity:1;" d="M 46.613281 32.046875 L 48.792969 32.046875 L 47.03125 33.332031 Z M 46.613281 32.046875 "/>
<path style=" stroke:none;fill-rule:evenodd;fill:rgb(99.998474%,99.998474%,99.998474%);fill-opacity:1;" d="M 47.367188 32.292969 L 48.039062 34.367188 L 46.277344 33.085938 Z M 47.367188 32.292969 "/>
</g>
</svg>
