<?xml version="1.0" encoding="UTF-8"?>
<svg xmlns="http://www.w3.org/2000/svg" xmlns:xlink="http://www.w3.org/1999/xlink" width="127pt" height="85pt" viewBox="0 0 127 85" version="1.1">
<g id="surface1177">
<path style=" stroke:none;fill-rule:evenodd;fill:rgb(99.998474%,99.998474%,99.998474%);fill-opacity:1;" d="M 0 0.0429688 L 127.117188 0.0429688 L 127.117188 84.785156 L 0 84.785156 Z M 0 0.0429688 "/>
<path style="fill-rule:evenodd;fill:rgb(99.998474%,83.920288%,0%);fill-opacity:1;stroke-width:0.253462;stroke-linecap:butt;stroke-linejoin:miter;stroke:rgb(0%,0%,0%);stroke-opacity:1;stroke-miterlimit:4;" d="M 74.828125 30.554688 C 74.828125 29.972656 74.636719 28.835938 74.019531 28.445312 C 73.226562 28.03125 73.226562 27.777344 73.164062 27.238281 C 73.101562 26.699219 74.496094 25.683594 74.496094 25.683594 C 74.496094 25.683594 73.226562 25.113281 72.75 25.175781 C 72.277344 25.242188 71.355469 25.335938 71.230469 25.464844 C 71.101562 25.589844 70.40625 23.179688 70.847656 22.796875 C 71.292969 22.417969 72.210938 23.6875 72.210938 23.6875 C 72.210938 23.6875 72.816406 22.292969 70.691406 19.625 C 71.417969 14.425781 66.566406 13.21875 65.457031 13.25 C 64.535156 13.125 62.160156 13.980469 61.777344 15.121094 C 60.574219 15.535156 60.507812 16.582031 60.507812 16.582031 C 60.507812 16.582031 58.035156 17.027344 57.71875 19.183594 C 59.175781 17.976562 60.128906 19.308594 60.128906 19.308594 C 60.128906 19.308594 61.394531 20.199219 62.0625 20.230469 C 62.730469 20.261719 61.429688 22.449219 61.046875 22.832031 C 60.667969 23.210938 59.082031 24.671875 59.144531 24.765625 C 59.207031 24.859375 60.382812 25.210938 60.320312 25.75 C 60.253906 26.289062 56.703125 27.9375 56.894531 28.351562 C 57.8125 28.0625 58.53125 28.285156 58.53125 28.285156 C 58.65625 29.183594 58.300781 30.222656 57.6875 30.558594 Z M 74.828125 30.554688 "/>
<path style="fill-rule:evenodd;fill:rgb(99.998474%,83.920288%,0%);fill-opacity:1;stroke-width:0.253462;stroke-linecap:butt;stroke-linejoin:miter;stroke:rgb(0%,0%,0%);stroke-opacity:1;stroke-miterlimit:4;" d="M 73.886719 54.324219 C 73.886719 54.324219 74.050781 56.230469 73.242188 57.039062 C 76.828125 57.265625 78.765625 60.917969 78.800781 61.789062 C 78.832031 62.664062 77.699219 63.339844 77.699219 63.339844 C 77.699219 63.339844 78.089844 64.890625 76.601562 65.152344 C 76.632812 66.636719 75.601562 66.636719 75.601562 66.636719 C 75.601562 66.636719 75.210938 67.867188 74.015625 67.800781 C 73.660156 69.578125 71.820312 69.546875 71.820312 69.546875 C 71.820312 69.546875 70.753906 72.132812 69.167969 71.128906 C 68.167969 73.328125 65.519531 73.230469 64.515625 71.128906 C 63.964844 71.097656 62.738281 71.839844 61.996094 69.640625 C 60.347656 69.933594 59.699219 67.832031 59.699219 67.832031 C 59.699219 67.832031 58.601562 67.734375 58.179688 66.636719 C 56.890625 66.378906 57.117188 65.085938 57.117188 65.085938 C 57.117188 65.085938 55.824219 64.730469 55.855469 63.308594 C 54.820312 62.695312 54.917969 61.597656 54.917969 61.597656 C 54.917969 61.597656 55.726562 57.78125 60.410156 56.972656 C 59.667969 55.910156 59.765625 54.355469 59.765625 54.355469 Z M 73.886719 54.324219 "/>
<path style="fill-rule:evenodd;fill:rgb(99.998474%,83.920288%,0%);fill-opacity:1;stroke-width:0.253472;stroke-linecap:butt;stroke-linejoin:miter;stroke:rgb(0%,0%,0%);stroke-opacity:1;stroke-miterlimit:4;" d="M 51.4375 32.449219 C 51.4375 32.449219 48.882812 35.195312 47.605469 33.144531 C 46.332031 31.09375 49.386719 30.511719 49.425781 30.472656 C 49.464844 30.4375 51.207031 29.894531 51.363281 26.683594 C 51.515625 23.46875 47.53125 21.378906 46.40625 21.109375 C 45.285156 20.835938 41.996094 20.835938 41.996094 20.835938 C 41.996094 20.835938 29.960938 17.933594 28.722656 17.042969 C 27.484375 16.15625 16.105469 14.066406 16.105469 14.066406 C 16.105469 14.066406 14.285156 13.832031 14.441406 15.457031 C 14.597656 17.082031 16.105469 17.277344 16.105469 17.277344 C 16.105469 17.277344 14.828125 18.28125 14.980469 19.171875 C 15.136719 20.0625 16.105469 21.496094 18.117188 21.261719 C 17.886719 24.4375 22.296875 24.941406 22.296875 24.941406 C 22.296875 24.941406 22.761719 29.507812 26.824219 29.273438 C 27.792969 32.410156 31.429688 32.527344 31.429688 32.527344 C 31.429688 32.527344 33.132812 34.65625 35.609375 34.808594 C 37.042969 38.371094 40.136719 37.363281 40.136719 37.363281 C 40.136719 37.363281 39.90625 39.609375 41.339844 39.609375 C 40.601562 42.164062 43.351562 42.511719 44.394531 42.007812 C 44.664062 42.550781 45.59375 44.214844 47.722656 43.167969 C 49 45.066406 51.089844 44.175781 51.089844 44.175781 C 51.089844 44.175781 51.554688 45.683594 53.375 45.105469 C 55.191406 44.523438 51.402344 32.527344 51.4375 32.449219 Z M 51.4375 32.449219 "/>
<path style=" stroke:none;fill-rule:evenodd;fill:rgb(99.998474%,83.920288%,0%);fill-opacity:1;" d="M 43.542969 23.082031 C 43.542969 23.082031 46.371094 23.390625 46.019531 27.765625 Z M 43.542969 23.082031 "/>
<path style="fill:none;stroke-width:0.253472;stroke-linecap:butt;stroke-linejoin:miter;stroke:rgb(0%,0%,0%);stroke-opacity:1;stroke-miterlimit:4;" d="M 43.542969 23.082031 C 43.542969 23.082031 46.371094 23.390625 46.019531 27.765625 "/>
<path style=" stroke:none;fill-rule:evenodd;fill:rgb(99.998474%,83.920288%,0%);fill-opacity:1;" d="M 32.785156 18.554688 C 32.785156 18.554688 27.367188 22.269531 37.507812 23.429688 Z M 32.785156 18.554688 "/>
<path style="fill:none;stroke-width:0.253472;stroke-linecap:butt;stroke-linejoin:miter;stroke:rgb(0%,0%,0%);stroke-opacity:1;stroke-miterlimit:4;" d="M 32.785156 18.554688 C 32.785156 18.554688 27.367188 22.269531 37.507812 23.429688 "/>
<path style=" stroke:none;fill-rule:evenodd;fill:rgb(99.998474%,83.920288%,0%);fill-opacity:1;" d="M 34.332031 22.925781 C 34.292969 23.003906 31.777344 25.984375 36.421875 26.875 C 34.214844 28.964844 38.359375 29.660156 38.359375 29.660156 C 38.359375 29.660156 37.507812 31.867188 39.984375 32.449219 C 39.171875 34.730469 41.839844 34.617188 41.839844 34.617188 C 41.839844 34.617188 41.917969 37.402344 45.09375 37.363281 C 45.054688 39.261719 47.257812 39.375 47.257812 39.375 C 47.257812 39.375 47.917969 41.425781 50.046875 40.808594 C 50.277344 42.238281 51.75 41.929688 51.75 41.929688 Z M 34.332031 22.925781 "/>
<path style="fill:none;stroke-width:0.253472;stroke-linecap:butt;stroke-linejoin:miter;stroke:rgb(0%,0%,0%);stroke-opacity:1;stroke-miterlimit:4;" d="M 34.332031 22.925781 C 34.292969 23.003906 31.777344 25.984375 36.421875 26.875 C 34.214844 28.964844 38.359375 29.660156 38.359375 29.660156 C 38.359375 29.660156 37.507812 31.867188 39.984375 32.449219 C 39.171875 34.730469 41.839844 34.617188 41.839844 34.617188 C 41.839844 34.617188 41.917969 37.402344 45.09375 37.363281 C 45.054688 39.261719 47.257812 39.375 47.257812 39.375 C 47.257812 39.375 47.917969 41.425781 50.046875 40.808594 C 50.277344 42.238281 51.75 41.929688 51.75 41.929688 "/>
<path style=" stroke:none;fill-rule:evenodd;fill:rgb(96.861267%,95.292664%,3.137207%);fill-opacity:1;" d="M 51.128906 44.214844 C 51.128906 44.214844 51.246094 42.238281 50.78125 41.851562 Z M 51.128906 44.214844 "/>
<path style="fill:none;stroke-width:0.253472;stroke-linecap:butt;stroke-linejoin:miter;stroke:rgb(0%,0%,0%);stroke-opacity:1;stroke-miterlimit:4;" d="M 51.128906 44.214844 C 51.128906 44.214844 51.246094 42.238281 50.78125 41.851562 "/>
<path style=" stroke:none;fill-rule:evenodd;fill:rgb(96.861267%,95.292664%,3.137207%);fill-opacity:1;" d="M 47.605469 43.128906 C 47.648438 43.089844 48.535156 41.3125 48.226562 41 Z M 47.605469 43.128906 "/>
<path style="fill:none;stroke-width:0.253472;stroke-linecap:butt;stroke-linejoin:miter;stroke:rgb(0%,0%,0%);stroke-opacity:1;stroke-miterlimit:4;" d="M 47.605469 43.128906 C 47.644531 43.089844 48.535156 41.3125 48.226562 41 "/>
<path style=" stroke:none;fill-rule:evenodd;fill:rgb(96.861267%,95.292664%,3.137207%);fill-opacity:1;" d="M 44.355469 42.007812 L 46.757812 39.648438 Z M 44.355469 42.007812 "/>
<path style="fill:none;stroke-width:0.253472;stroke-linecap:butt;stroke-linejoin:miter;stroke:rgb(0%,0%,0%);stroke-opacity:1;stroke-miterlimit:4;" d="M 44.355469 42.007812 L 46.757812 39.648438 "/>
<path style=" stroke:none;fill-rule:evenodd;fill:rgb(96.861267%,95.292664%,3.137207%);fill-opacity:1;" d="M 41.339844 39.683594 C 41.378906 39.648438 44.976562 37.402344 44.976562 37.402344 Z M 41.339844 39.683594 "/>
<path style="fill:none;stroke-width:0.253472;stroke-linecap:butt;stroke-linejoin:miter;stroke:rgb(0%,0%,0%);stroke-opacity:1;stroke-miterlimit:4;" d="M 41.339844 39.683594 C 41.378906 39.648438 44.976562 37.402344 44.976562 37.402344 "/>
<path style=" stroke:none;fill-rule:evenodd;fill:rgb(96.861267%,95.292664%,3.137207%);fill-opacity:1;" d="M 40.0625 37.402344 C 40.101562 37.363281 42.113281 36.511719 42.191406 35.777344 Z M 40.0625 37.402344 "/>
<path style="fill:none;stroke-width:0.253472;stroke-linecap:butt;stroke-linejoin:miter;stroke:rgb(0%,0%,0%);stroke-opacity:1;stroke-miterlimit:4;" d="M 40.0625 37.402344 C 40.101562 37.363281 42.113281 36.511719 42.191406 35.777344 "/>
<path style=" stroke:none;fill-rule:evenodd;fill:rgb(99.998474%,83.920288%,0%);fill-opacity:1;" d="M 35.609375 34.808594 C 35.609375 34.808594 40.488281 35.855469 41.339844 34.730469 Z M 35.609375 34.808594 "/>
<path style="fill:none;stroke-width:0.253472;stroke-linecap:butt;stroke-linejoin:miter;stroke:rgb(0%,0%,0%);stroke-opacity:1;stroke-miterlimit:4;" d="M 35.609375 34.808594 C 35.609375 34.808594 40.488281 35.855469 41.339844 34.730469 "/>
<path style=" stroke:none;fill-rule:evenodd;fill:rgb(99.998474%,83.920288%,0%);fill-opacity:1;" d="M 31.546875 32.488281 C 31.738281 32.488281 38.859375 33.261719 39.519531 32.371094 Z M 31.546875 32.488281 "/>
<path style="fill:none;stroke-width:0.253472;stroke-linecap:butt;stroke-linejoin:miter;stroke:rgb(0%,0%,0%);stroke-opacity:1;stroke-miterlimit:4;" d="M 31.546875 32.488281 C 31.738281 32.488281 38.859375 33.261719 39.519531 32.371094 "/>
<path style=" stroke:none;fill-rule:evenodd;fill:rgb(99.998474%,83.920288%,0%);fill-opacity:1;" d="M 26.824219 29.273438 C 26.941406 29.234375 35.261719 30.824219 37.621094 29.621094 Z M 26.824219 29.273438 "/>
<path style="fill:none;stroke-width:0.253472;stroke-linecap:butt;stroke-linejoin:miter;stroke:rgb(0%,0%,0%);stroke-opacity:1;stroke-miterlimit:4;" d="M 26.824219 29.273438 C 26.941406 29.234375 35.261719 30.824219 37.621094 29.621094 "/>
<path style=" stroke:none;fill-rule:evenodd;fill:rgb(99.998474%,83.920288%,0%);fill-opacity:1;" d="M 22.839844 24.976562 C 23.03125 24.976562 33.90625 27.609375 35.535156 26.796875 Z M 22.839844 24.976562 "/>
<path style="fill:none;stroke-width:0.253472;stroke-linecap:butt;stroke-linejoin:miter;stroke:rgb(0%,0%,0%);stroke-opacity:1;stroke-miterlimit:4;" d="M 22.839844 24.976562 C 23.03125 24.976562 33.90625 27.609375 35.535156 26.796875 "/>
<path style=" stroke:none;fill-rule:evenodd;fill:rgb(99.998474%,83.920288%,0%);fill-opacity:1;" d="M 18.699219 21.1875 C 18.777344 21.1875 31.664062 24.203125 33.289062 22.964844 Z M 18.699219 21.1875 "/>
<path style="fill:none;stroke-width:0.253472;stroke-linecap:butt;stroke-linejoin:miter;stroke:rgb(0%,0%,0%);stroke-opacity:1;stroke-miterlimit:4;" d="M 18.699219 21.1875 C 18.777344 21.1875 31.664062 24.203125 33.289062 22.964844 "/>
<path style=" stroke:none;fill-rule:evenodd;fill:rgb(99.998474%,83.920288%,0%);fill-opacity:1;" d="M 17.035156 17.507812 C 17.074219 17.507812 29.378906 21.535156 30.425781 20.527344 Z M 17.035156 17.507812 "/>
<path style="fill:none;stroke-width:0.253472;stroke-linecap:butt;stroke-linejoin:miter;stroke:rgb(0%,0%,0%);stroke-opacity:1;stroke-miterlimit:4;" d="M 17.035156 17.507812 C 17.074219 17.507812 29.378906 21.535156 30.425781 20.527344 "/>
<path style="fill-rule:evenodd;fill:rgb(99.998474%,83.920288%,0%);fill-opacity:1;stroke-width:0.253472;stroke-linecap:butt;stroke-linejoin:miter;stroke:rgb(0%,0%,0%);stroke-opacity:1;stroke-miterlimit:4;" d="M 82.332031 32.535156 C 82.332031 32.535156 84.886719 35.285156 86.160156 33.234375 C 87.4375 31.183594 84.382812 30.601562 84.34375 30.5625 C 84.304688 30.523438 82.5625 29.984375 82.40625 26.769531 C 82.253906 23.558594 86.238281 21.46875 87.363281 21.195312 C 88.484375 20.925781 91.773438 20.925781 91.773438 20.925781 C 91.773438 20.925781 103.808594 18.023438 105.046875 17.132812 C 106.285156 16.242188 117.664062 14.152344 117.664062 14.152344 C 117.664062 14.152344 119.484375 13.921875 119.328125 15.546875 C 119.171875 17.171875 117.664062 17.367188 117.664062 17.367188 C 117.664062 17.367188 118.941406 18.371094 118.785156 19.261719 C 118.632812 20.152344 117.664062 21.582031 115.652344 21.351562 C 115.882812 24.527344 111.472656 25.027344 111.472656 25.027344 C 111.472656 25.027344 111.007812 29.597656 106.945312 29.363281 C 105.976562 32.5 102.339844 32.613281 102.339844 32.613281 C 102.339844 32.613281 100.636719 34.742188 98.160156 34.898438 C 96.726562 38.457031 93.632812 37.453125 93.632812 37.453125 C 93.632812 37.453125 93.863281 39.695312 92.429688 39.695312 C 93.167969 42.25 90.417969 42.597656 89.375 42.097656 C 89.101562 42.636719 88.175781 44.300781 86.046875 43.257812 C 84.769531 45.152344 82.679688 44.265625 82.679688 44.265625 C 82.679688 44.265625 82.214844 45.773438 80.394531 45.191406 C 78.578125 44.613281 82.371094 32.613281 82.332031 32.535156 Z M 82.332031 32.535156 "/>
<path style=" stroke:none;fill-rule:evenodd;fill:rgb(99.998474%,83.920288%,0%);fill-opacity:1;" d="M 90.226562 23.171875 C 90.226562 23.171875 87.402344 23.480469 87.75 27.855469 Z M 90.226562 23.171875 "/>
<path style="fill:none;stroke-width:0.253472;stroke-linecap:butt;stroke-linejoin:miter;stroke:rgb(0%,0%,0%);stroke-opacity:1;stroke-miterlimit:4;" d="M 90.226562 23.171875 C 90.226562 23.171875 87.402344 23.480469 87.75 27.855469 "/>
<path style=" stroke:none;fill-rule:evenodd;fill:rgb(99.998474%,83.920288%,0%);fill-opacity:1;" d="M 100.984375 18.644531 C 100.984375 18.644531 106.402344 22.359375 96.261719 23.519531 Z M 100.984375 18.644531 "/>
<path style="fill:none;stroke-width:0.253472;stroke-linecap:butt;stroke-linejoin:miter;stroke:rgb(0%,0%,0%);stroke-opacity:1;stroke-miterlimit:4;" d="M 100.984375 18.644531 C 100.984375 18.644531 106.402344 22.359375 96.261719 23.519531 "/>
<path style=" stroke:none;fill-rule:evenodd;fill:rgb(99.998474%,83.920288%,0%);fill-opacity:1;" d="M 99.4375 23.015625 C 99.476562 23.09375 101.992188 26.074219 97.347656 26.964844 C 99.550781 29.054688 95.410156 29.75 95.410156 29.75 C 95.410156 29.75 96.261719 31.957031 93.785156 32.535156 C 94.597656 34.820312 91.929688 34.703125 91.929688 34.703125 C 91.929688 34.703125 91.851562 37.492188 88.675781 37.453125 C 88.714844 39.347656 86.511719 39.464844 86.511719 39.464844 C 86.511719 39.464844 85.851562 41.515625 83.722656 40.898438 C 83.492188 42.328125 82.019531 42.019531 82.019531 42.019531 Z M 99.4375 23.015625 "/>
<path style="fill:none;stroke-width:0.253472;stroke-linecap:butt;stroke-linejoin:miter;stroke:rgb(0%,0%,0%);stroke-opacity:1;stroke-miterlimit:4;" d="M 99.4375 23.015625 C 99.476562 23.09375 101.992188 26.074219 97.347656 26.964844 C 99.554688 29.054688 95.410156 29.75 95.410156 29.75 C 95.410156 29.75 96.261719 31.957031 93.785156 32.535156 C 94.597656 34.820312 91.929688 34.703125 91.929688 34.703125 C 91.929688 34.703125 91.851562 37.492188 88.675781 37.453125 C 88.714844 39.347656 86.511719 39.464844 86.511719 39.464844 C 86.511719 39.464844 85.851562 41.515625 83.722656 40.898438 C 83.492188 42.328125 82.019531 42.019531 82.019531 42.019531 "/>
<path style=" stroke:none;fill-rule:evenodd;fill:rgb(96.861267%,95.292664%,3.137207%);fill-opacity:1;" d="M 82.640625 44.300781 C 82.640625 44.300781 82.523438 42.328125 82.988281 41.941406 Z M 82.640625 44.300781 "/>
<path style="fill:none;stroke-width:0.253472;stroke-linecap:butt;stroke-linejoin:miter;stroke:rgb(0%,0%,0%);stroke-opacity:1;stroke-miterlimit:4;" d="M 82.640625 44.300781 C 82.640625 44.300781 82.523438 42.328125 82.988281 41.941406 "/>
<path style=" stroke:none;fill-rule:evenodd;fill:rgb(96.861267%,95.292664%,3.137207%);fill-opacity:1;" d="M 86.160156 43.21875 C 86.121094 43.179688 85.234375 41.398438 85.542969 41.089844 Z M 86.160156 43.21875 "/>
<path style="fill:none;stroke-width:0.253472;stroke-linecap:butt;stroke-linejoin:miter;stroke:rgb(0%,0%,0%);stroke-opacity:1;stroke-miterlimit:4;" d="M 86.160156 43.21875 C 86.121094 43.179688 85.234375 41.398438 85.542969 41.089844 "/>
<path style=" stroke:none;fill-rule:evenodd;fill:rgb(96.861267%,95.292664%,3.137207%);fill-opacity:1;" d="M 89.414062 42.097656 L 87.011719 39.734375 Z M 89.414062 42.097656 "/>
<path style="fill:none;stroke-width:0.253472;stroke-linecap:butt;stroke-linejoin:miter;stroke:rgb(0%,0%,0%);stroke-opacity:1;stroke-miterlimit:4;" d="M 89.414062 42.097656 L 87.011719 39.734375 "/>
<path style=" stroke:none;fill-rule:evenodd;fill:rgb(99.998474%,83.920288%,0%);fill-opacity:1;" d="M 92.429688 39.773438 C 92.394531 39.734375 88.792969 37.492188 88.792969 37.492188 Z M 92.429688 39.773438 "/>
<path style="fill:none;stroke-width:0.253472;stroke-linecap:butt;stroke-linejoin:miter;stroke:rgb(0%,0%,0%);stroke-opacity:1;stroke-miterlimit:4;" d="M 92.429688 39.773438 C 92.394531 39.734375 88.792969 37.492188 88.792969 37.492188 "/>
<path style=" stroke:none;fill-rule:evenodd;fill:rgb(96.861267%,95.292664%,3.137207%);fill-opacity:1;" d="M 93.707031 37.492188 C 93.667969 37.453125 91.65625 36.601562 91.578125 35.867188 Z M 93.707031 37.492188 "/>
<path style="fill:none;stroke-width:0.253472;stroke-linecap:butt;stroke-linejoin:miter;stroke:rgb(0%,0%,0%);stroke-opacity:1;stroke-miterlimit:4;" d="M 93.707031 37.492188 C 93.667969 37.453125 91.65625 36.601562 91.578125 35.867188 "/>
<path style=" stroke:none;fill-rule:evenodd;fill:rgb(99.998474%,83.920288%,0%);fill-opacity:1;" d="M 98.160156 34.898438 C 98.160156 34.898438 93.285156 35.941406 92.429688 34.820312 Z M 98.160156 34.898438 "/>
<path style="fill:none;stroke-width:0.253472;stroke-linecap:butt;stroke-linejoin:miter;stroke:rgb(0%,0%,0%);stroke-opacity:1;stroke-miterlimit:4;" d="M 98.160156 34.898438 C 98.160156 34.898438 93.285156 35.941406 92.429688 34.820312 "/>
<path style=" stroke:none;fill-rule:evenodd;fill:rgb(99.998474%,83.920288%,0%);fill-opacity:1;" d="M 102.222656 32.574219 C 102.03125 32.574219 94.910156 33.347656 94.25 32.460938 Z M 102.222656 32.574219 "/>
<path style="fill:none;stroke-width:0.253472;stroke-linecap:butt;stroke-linejoin:miter;stroke:rgb(0%,0%,0%);stroke-opacity:1;stroke-miterlimit:4;" d="M 102.222656 32.574219 C 102.03125 32.574219 94.910156 33.347656 94.25 32.460938 "/>
<path style=" stroke:none;fill-rule:evenodd;fill:rgb(99.998474%,83.920288%,0%);fill-opacity:1;" d="M 106.945312 29.363281 C 106.828125 29.324219 98.507812 30.910156 96.144531 29.710938 Z M 106.945312 29.363281 "/>
<path style="fill:none;stroke-width:0.253472;stroke-linecap:butt;stroke-linejoin:miter;stroke:rgb(0%,0%,0%);stroke-opacity:1;stroke-miterlimit:4;" d="M 106.945312 29.363281 C 106.828125 29.324219 98.507812 30.910156 96.148438 29.710938 "/>
<path style=" stroke:none;fill-rule:evenodd;fill:rgb(99.998474%,83.920288%,0%);fill-opacity:1;" d="M 110.929688 25.066406 C 110.738281 25.066406 99.863281 27.699219 98.238281 26.886719 Z M 110.929688 25.066406 "/>
<path style="fill:none;stroke-width:0.253472;stroke-linecap:butt;stroke-linejoin:miter;stroke:rgb(0%,0%,0%);stroke-opacity:1;stroke-miterlimit:4;" d="M 110.929688 25.066406 C 110.738281 25.066406 99.863281 27.699219 98.238281 26.886719 "/>
<path style=" stroke:none;fill-rule:evenodd;fill:rgb(99.998474%,83.920288%,0%);fill-opacity:1;" d="M 115.070312 21.273438 C 114.996094 21.273438 102.105469 24.292969 100.480469 23.054688 Z M 115.070312 21.273438 "/>
<path style="fill:none;stroke-width:0.253472;stroke-linecap:butt;stroke-linejoin:miter;stroke:rgb(0%,0%,0%);stroke-opacity:1;stroke-miterlimit:4;" d="M 115.070312 21.273438 C 114.996094 21.273438 102.105469 24.292969 100.480469 23.054688 "/>
<path style=" stroke:none;fill-rule:evenodd;fill:rgb(99.998474%,83.920288%,0%);fill-opacity:1;" d="M 116.734375 17.597656 C 116.695312 17.597656 104.390625 21.625 103.34375 20.617188 Z M 116.734375 17.597656 "/>
<path style="fill:none;stroke-width:0.253472;stroke-linecap:butt;stroke-linejoin:miter;stroke:rgb(0%,0%,0%);stroke-opacity:1;stroke-miterlimit:4;" d="M 116.734375 17.597656 C 116.695312 17.597656 104.390625 21.625 103.34375 20.617188 "/>
<path style="fill-rule:evenodd;fill:rgb(0%,80.783081%,87.057495%);fill-opacity:1;stroke-width:0.253462;stroke-linecap:butt;stroke-linejoin:miter;stroke:rgb(0%,0%,0%);stroke-opacity:1;stroke-miterlimit:4;" d="M 97.117188 37.226562 C 97.117188 37.226562 96.363281 48.042969 96.324219 48.015625 C 96.289062 47.992188 94.746094 46.128906 94.746094 46.128906 L 89.988281 61.042969 L 91.101562 64.296875 L 88.332031 73.382812 L 86.046875 70.484375 L 82.355469 71.96875 L 85.320312 62.402344 L 88.054688 60.433594 L 92.984375 45.738281 L 90.25 46.082031 Z M 97.117188 37.226562 "/>
<path style="fill-rule:evenodd;fill:rgb(0%,80.783081%,87.057495%);fill-opacity:1;stroke-width:0.253462;stroke-linecap:butt;stroke-linejoin:miter;stroke:rgb(0%,0%,0%);stroke-opacity:1;stroke-miterlimit:4;" d="M 107.632812 41.6875 C 107.632812 41.6875 101.878906 50.875 101.859375 50.835938 C 101.835938 50.796875 101.355469 48.425781 101.355469 48.425781 L 91.898438 57.199219 L 81.800781 66.941406 L 81.773438 64.933594 L 78.320312 64.507812 L 82.886719 61.011719 L 85.230469 60.625 L 99.980469 47.253906 L 97.40625 46.269531 Z M 107.632812 41.6875 "/>
<path style="fill:none;stroke-width:0.258844;stroke-linecap:butt;stroke-linejoin:miter;stroke:rgb(0%,0%,0%);stroke-opacity:1;stroke-miterlimit:4;" d="M 81.808594 64.917969 C 81.871094 64.789062 87.058594 60.355469 87.058594 60.355469 "/>
<path style="fill-rule:evenodd;fill:rgb(0%,80.783081%,87.057495%);fill-opacity:1;stroke-width:0.253462;stroke-linecap:butt;stroke-linejoin:miter;stroke:rgb(0%,0%,0%);stroke-opacity:1;stroke-miterlimit:4;" d="M 104.558594 33.914062 C 104.558594 33.914062 101.746094 44.386719 101.714844 44.355469 C 101.683594 44.324219 100.527344 42.199219 100.527344 42.199219 L 89.121094 61.792969 L 89.589844 65.199219 L 85.496094 72.699219 L 83.808594 69.417969 L 79.902344 70.167969 L 84.277344 62.230469 L 87.339844 60.824219 L 98.871094 41.480469 L 96.121094 41.292969 Z M 104.558594 33.914062 "/>
<path style="fill:none;stroke-width:0.253462;stroke-linecap:butt;stroke-linejoin:miter;stroke:rgb(0%,0%,0%);stroke-opacity:1;stroke-miterlimit:4;" d="M 83.871094 69.292969 C 83.871094 69.230469 87.808594 62.355469 87.808594 62.355469 "/>
<path style="fill-rule:evenodd;fill:rgb(0%,80.783081%,87.057495%);fill-opacity:1;stroke-width:0.253462;stroke-linecap:butt;stroke-linejoin:miter;stroke:rgb(0%,0%,0%);stroke-opacity:1;stroke-miterlimit:4;" d="M 6.429688 31.945312 L 13.304688 31.980469 L 12.617188 33.632812 L 15.617188 45.511719 L 19.242188 33.667969 L 17.960938 31.945312 L 25.117188 31.945312 L 23.585938 33.605469 L 17.679688 50.574219 L 19.210938 52.792969 L 12.335938 52.792969 L 13.867188 50.574219 L 8.085938 33.667969 Z M 6.429688 31.945312 "/>
<path style="fill-rule:evenodd;fill:rgb(0%,80.783081%,87.057495%);fill-opacity:1;stroke-width:0.253462;stroke-linecap:butt;stroke-linejoin:miter;stroke:rgb(0%,0%,0%);stroke-opacity:1;stroke-miterlimit:4;" d="M 111.902344 32.351562 L 118.433594 32.351562 L 117.371094 33.824219 L 117.339844 51.105469 L 118.808594 52.730469 L 111.902344 52.730469 L 113.277344 50.980469 L 113.246094 33.851562 Z M 111.902344 32.351562 "/>
<path style="fill:none;stroke-width:0.253462;stroke-linecap:butt;stroke-linejoin:miter;stroke:rgb(0%,0%,0%);stroke-opacity:1;stroke-miterlimit:4;" d="M 60.410156 16.726562 C 60.410156 16.726562 61.25 17.777344 61.5625 17.875 C 61.871094 17.972656 63.625 18.828125 63.527344 19.414062 C 63.429688 19.996094 62.28125 20.289062 62.28125 20.289062 "/>
<path style="fill:none;stroke-width:0.253462;stroke-linecap:butt;stroke-linejoin:miter;stroke:rgb(0%,0%,0%);stroke-opacity:1;stroke-miterlimit:4;" d="M 61.792969 15.167969 L 63.546875 16.84375 C 63.546875 16.84375 63.859375 18.285156 65.105469 18.167969 C 66.351562 18.050781 66.175781 17.523438 66.175781 17.523438 C 66.175781 17.523438 64.679688 16.472656 63.488281 16.722656 "/>
<path style=" stroke:none;fill-rule:evenodd;fill:rgb(9.411621%,51.763916%,0%);fill-opacity:1;" d="M 51.105469 67.964844 L 53.445312 66.019531 C 53.445312 66.019531 52.929688 64.945312 51.066406 64.988281 C 49.320312 63.757812 46.304688 60.859375 46.304688 60.859375 L 44.796875 56.773438 C 44.796875 56.773438 46.027344 56.414062 46.304688 55.421875 C 46.582031 54.429688 46.222656 53.199219 46.105469 53.082031 C 45.984375 52.960938 44.753906 53.28125 44.398438 53.796875 C 44.039062 54.3125 43.484375 56.296875 42.652344 55.621094 C 41.820312 54.945312 42.769531 54.191406 42.769531 54.191406 C 42.769531 54.191406 43.605469 53.160156 43.5625 52.605469 C 43.523438 52.050781 42.453125 50.382812 42.335938 50.34375 C 42.214844 50.304688 41.976562 52.523438 41.660156 52.765625 C 41.34375 53 40.90625 53.992188 40.269531 53.4375 C 39.636719 52.882812 40.589844 52.050781 40.589844 52.050781 C 40.589844 52.050781 42.375 51.097656 40.628906 47.960938 C 40.113281 49.3125 39.121094 50.183594 39.121094 50.183594 C 39.121094 50.183594 38.644531 51.015625 38.207031 50.304688 C 37.769531 49.589844 38.722656 48.914062 38.722656 48.914062 C 38.722656 48.914062 40.269531 48 40.308594 46.652344 C 40.351562 45.300781 38.445312 43.753906 38.445312 43.753906 C 38.445312 43.753906 38.328125 46.253906 37.730469 46.570312 C 37.136719 46.890625 36.898438 47.40625 36.222656 46.851562 C 35.546875 46.292969 36.738281 45.0625 36.738281 45.0625 C 36.738281 45.0625 38.800781 43 38.683594 41.808594 C 38.5625 40.617188 38.445312 40.421875 38.445312 40.421875 C 38.445312 40.421875 36.898438 41.371094 36.699219 41.847656 C 36.5 42.324219 35.867188 44.03125 35.070312 43.515625 C 34.515625 42.882812 35.546875 41.652344 35.546875 41.652344 C 35.546875 41.652344 36.300781 40.816406 36.261719 40.460938 C 36.222656 40.101562 35.628906 39.03125 34.476562 38 C 34.316406 37.683594 34.238281 36.410156 34.238281 36.410156 C 34.238281 36.410156 33.367188 37.445312 33.40625 38 C 33.445312 38.554688 33.324219 39.667969 33.445312 40.898438 C 33.5625 42.128906 32.492188 40.5 32.492188 40.5 L 32.691406 36.53125 C 32.691406 36.53125 31.183594 34.703125 29.355469 34.03125 C 30.03125 35.023438 29.992188 35.976562 29.992188 35.976562 C 29.992188 35.976562 29.238281 37.601562 29.238281 38.039062 C 29.238281 38.476562 30.113281 40.378906 31.738281 41.652344 C 29.277344 38.992188 26.222656 39.863281 25.308594 39.347656 C 25.746094 39.863281 27.054688 41.808594 26.898438 42.324219 C 26.738281 42.839844 29.238281 43.914062 29.238281 43.914062 L 31.898438 43.953125 C 31.898438 43.953125 33.207031 44.867188 33.324219 45.460938 C 33.445312 46.054688 31.421875 44.351562 30.625 44.390625 C 29.832031 44.429688 27.730469 44.109375 27.730469 44.109375 C 27.730469 44.109375 29 45.300781 29.039062 45.816406 C 29.078125 46.335938 29.636719 47.523438 30.390625 47.84375 C 31.144531 48.160156 33.167969 48.277344 33.167969 48.277344 C 33.167969 48.277344 34.039062 47.761719 34.199219 48.316406 C 34.359375 48.875 33.046875 49.3125 33.046875 49.3125 C 33.046875 49.3125 31.699219 49.3125 31.261719 48.953125 C 30.824219 48.597656 30.746094 48 28.800781 47.761719 C 28.601562 49.390625 29.871094 51.058594 29.871094 51.058594 C 29.871094 51.058594 35.230469 50.621094 35.191406 51.769531 C 35.152344 52.921875 30.746094 51.890625 30.585938 51.53125 C 30.429688 51.175781 30.785156 53.796875 31.816406 54.351562 C 32.847656 54.90625 35.152344 54.628906 35.429688 54.507812 C 35.707031 54.390625 36.738281 54.269531 36.738281 54.867188 C 36.738281 55.460938 31.5 55.9375 31.421875 55.78125 C 31.34375 55.621094 32.214844 57.804688 34.320312 57.683594 C 36.421875 57.566406 37.335938 56.929688 37.335938 56.929688 C 37.335938 56.929688 38.605469 56.691406 38.722656 57.207031 C 38.84375 57.722656 37.453125 57.960938 37.453125 57.960938 C 37.453125 57.960938 34.121094 58.042969 34 57.882812 C 33.882812 57.722656 34.753906 59.984375 37.097656 59.945312 C 38.84375 59.789062 38.960938 59.035156 39.320312 58.914062 C 39.835938 58.796875 40.945312 58.796875 41.105469 58.835938 C 41.261719 58.875 44.042969 60.820312 44.042969 60.820312 Z M 51.105469 67.964844 "/>
<path style="fill:none;stroke-width:0.253462;stroke-linecap:butt;stroke-linejoin:miter;stroke:rgb(0%,0%,0%);stroke-opacity:1;stroke-miterlimit:4;" d="M 51.105469 67.964844 L 53.445312 66.019531 C 53.445312 66.019531 52.929688 64.945312 51.066406 64.988281 C 49.320312 63.757812 46.304688 60.859375 46.304688 60.859375 L 44.796875 56.773438 C 44.796875 56.773438 46.027344 56.414062 46.304688 55.421875 C 46.582031 54.429688 46.222656 53.199219 46.105469 53.082031 C 45.984375 52.960938 44.753906 53.28125 44.398438 53.796875 C 44.039062 54.3125 43.484375 56.296875 42.652344 55.621094 C 41.820312 54.945312 42.769531 54.191406 42.769531 54.191406 C 42.769531 54.191406 43.605469 53.160156 43.5625 52.605469 C 43.523438 52.050781 42.453125 50.382812 42.335938 50.34375 C 42.214844 50.304688 41.976562 52.523438 41.660156 52.765625 C 41.34375 53 40.90625 53.992188 40.269531 53.4375 C 39.636719 52.882812 40.589844 52.050781 40.589844 52.050781 C 40.589844 52.050781 42.375 51.097656 40.628906 47.960938 C 40.113281 49.3125 39.121094 50.183594 39.121094 50.183594 C 39.121094 50.183594 38.644531 51.015625 38.207031 50.304688 C 37.769531 49.589844 38.722656 48.914062 38.722656 48.914062 C 38.722656 48.914062 40.269531 48 40.308594 46.652344 C 40.351562 45.300781 38.445312 43.753906 38.445312 43.753906 C 38.445312 43.753906 38.328125 46.253906 37.730469 46.570312 C 37.136719 46.890625 36.898438 47.40625 36.222656 46.851562 C 35.546875 46.292969 36.738281 45.0625 36.738281 45.0625 C 36.738281 45.0625 38.800781 43 38.683594 41.808594 C 38.5625 40.617188 38.445312 40.421875 38.445312 40.421875 C 38.445312 40.421875 36.898438 41.371094 36.699219 41.847656 C 36.5 42.324219 35.867188 44.03125 35.070312 43.515625 C 34.515625 42.882812 35.546875 41.652344 35.546875 41.652344 C 35.546875 41.652344 36.300781 40.816406 36.261719 40.460938 C 36.222656 40.101562 35.628906 39.03125 34.476562 38 C 34.316406 37.683594 34.238281 36.410156 34.238281 36.410156 C 34.238281 36.410156 33.367188 37.445312 33.40625 38 C 33.445312 38.554688 33.324219 39.667969 33.445312 40.898438 C 33.5625 42.128906 32.492188 40.5 32.492188 40.5 L 32.691406 36.53125 C 32.691406 36.53125 31.183594 34.703125 29.355469 34.03125 C 30.03125 35.023438 29.992188 35.976562 29.992188 35.976562 C 29.992188 35.976562 29.238281 37.601562 29.238281 38.039062 C 29.238281 38.476562 30.113281 40.378906 31.738281 41.652344 C 29.277344 38.992188 26.222656 39.863281 25.308594 39.347656 C 25.746094 39.863281 27.054688 41.808594 26.898438 42.324219 C 26.738281 42.839844 29.238281 43.914062 29.238281 43.914062 L 31.898438 43.953125 C 31.898438 43.953125 33.207031 44.867188 33.324219 45.460938 C 33.445312 46.054688 31.421875 44.351562 30.625 44.390625 C 29.832031 44.429688 27.730469 44.109375 27.730469 44.109375 C 27.730469 44.109375 29 45.300781 29.039062 45.816406 C 29.078125 46.335938 29.636719 47.523438 30.390625 47.839844 C 31.144531 48.160156 33.167969 48.277344 33.167969 48.277344 C 33.167969 48.277344 34.039062 47.761719 34.199219 48.316406 C 34.359375 48.875 33.046875 49.3125 33.046875 49.3125 C 33.046875 49.3125 31.699219 49.3125 31.261719 48.953125 C 30.824219 48.597656 30.746094 48 28.800781 47.761719 C 28.601562 49.390625 29.871094 51.058594 29.871094 51.058594 C 29.871094 51.058594 35.230469 50.621094 35.191406 51.769531 C 35.152344 52.921875 30.746094 51.890625 30.585938 51.53125 C 30.429688 51.175781 30.785156 53.796875 31.816406 54.351562 C 32.847656 54.90625 35.152344 54.628906 35.429688 54.507812 C 35.707031 54.390625 36.738281 54.269531 36.738281 54.867188 C 36.738281 55.460938 31.5 55.9375 31.421875 55.78125 C 31.34375 55.621094 32.214844 57.804688 34.320312 57.683594 C 36.421875 57.566406 37.335938 56.929688 37.335938 56.929688 C 37.335938 56.929688 38.605469 56.691406 38.722656 57.207031 C 38.84375 57.722656 37.453125 57.960938 37.453125 57.960938 C 37.453125 57.960938 34.121094 58.042969 34 57.882812 C 33.882812 57.722656 34.753906 59.984375 37.097656 59.945312 C 38.84375 59.789062 38.960938 59.035156 39.320312 58.914062 C 39.835938 58.796875 40.945312 58.796875 41.105469 58.835938 C 41.261719 58.875 44.042969 60.820312 44.042969 60.820312 Z M 51.105469 67.964844 "/>
<path style="fill:none;stroke-width:0.253462;stroke-linecap:butt;stroke-linejoin:miter;stroke:rgb(0%,0%,0%);stroke-opacity:1;stroke-miterlimit:4;" d="M 30.625 36.609375 C 30.625 36.609375 30.546875 40.421875 32.453125 41.570312 "/>
<path style="fill:none;stroke-width:0.253462;stroke-linecap:butt;stroke-linejoin:miter;stroke:rgb(0%,0%,0%);stroke-opacity:1;stroke-miterlimit:4;" d="M 34.636719 39.625 C 34.636719 39.625 35.90625 41.570312 33.761719 42.285156 "/>
<path style="fill:none;stroke-width:0.253462;stroke-linecap:butt;stroke-linejoin:miter;stroke:rgb(0%,0%,0%);stroke-opacity:1;stroke-miterlimit:4;" d="M 28.046875 40.9375 C 28.046875 40.9375 27.890625 43.117188 31.738281 42.960938 "/>
<path style="fill:none;stroke-width:0.253462;stroke-linecap:butt;stroke-linejoin:miter;stroke:rgb(0%,0%,0%);stroke-opacity:1;stroke-miterlimit:4;" d="M 37.570312 42.839844 C 37.570312 42.839844 36.9375 44.390625 35.390625 44.308594 "/>
<path style="fill:none;stroke-width:0.253462;stroke-linecap:butt;stroke-linejoin:miter;stroke:rgb(0%,0%,0%);stroke-opacity:1;stroke-miterlimit:4;" d="M 39 46.332031 C 39 46.53125 39.277344 48.636719 37.253906 48.597656 "/>
<path style="fill:none;stroke-width:0.253462;stroke-linecap:butt;stroke-linejoin:miter;stroke:rgb(0%,0%,0%);stroke-opacity:1;stroke-miterlimit:4;" d="M 29.316406 45.460938 C 29.316406 45.460938 31.859375 47.046875 33.007812 46.929688 "/>
<path style="fill:none;stroke-width:0.253462;stroke-linecap:butt;stroke-linejoin:miter;stroke:rgb(0%,0%,0%);stroke-opacity:1;stroke-miterlimit:4;" d="M 29.871094 49.308594 C 29.871094 49.308594 31.0625 50.582031 33.246094 50.261719 "/>
<path style="fill:none;stroke-width:0.253462;stroke-linecap:butt;stroke-linejoin:miter;stroke:rgb(0%,0%,0%);stroke-opacity:1;stroke-miterlimit:4;" d="M 40.351562 50.183594 C 40.351562 50.34375 39.953125 51.574219 39.082031 51.730469 "/>
<path style="fill:none;stroke-width:0.253462;stroke-linecap:butt;stroke-linejoin:miter;stroke:rgb(0%,0%,0%);stroke-opacity:1;stroke-miterlimit:4;" d="M 31.859375 53 C 31.859375 53 32.808594 54.230469 35.308594 53.558594 "/>
<path style="fill:none;stroke-width:0.253462;stroke-linecap:butt;stroke-linejoin:miter;stroke:rgb(0%,0%,0%);stroke-opacity:1;stroke-miterlimit:4;" d="M 42.730469 52.484375 C 42.730469 52.484375 42.335938 54.429688 41.304688 54.46875 "/>
<path style="fill:none;stroke-width:0.253462;stroke-linecap:butt;stroke-linejoin:miter;stroke:rgb(0%,0%,0%);stroke-opacity:1;stroke-miterlimit:4;" d="M 45.152344 54.589844 C 45.152344 54.589844 44.359375 56.929688 42.335938 56.574219 "/>
<path style="fill:none;stroke-width:0.253462;stroke-linecap:butt;stroke-linejoin:miter;stroke:rgb(0%,0%,0%);stroke-opacity:1;stroke-miterlimit:4;" d="M 35.824219 58.757812 C 35.824219 58.757812 36.621094 59.46875 38.5625 58.597656 "/>
<path style="fill:none;stroke-width:0.253462;stroke-linecap:butt;stroke-linejoin:miter;stroke:rgb(0%,0%,0%);stroke-opacity:1;stroke-miterlimit:4;" d="M 33.644531 56.375 C 33.800781 56.375 34.792969 57.207031 37.175781 55.9375 "/>
<path style="fill:none;stroke-width:0.253462;stroke-linecap:butt;stroke-linejoin:miter;stroke:rgb(0%,0%,0%);stroke-opacity:1;stroke-miterlimit:4;" d="M 51.101562 65.046875 C 51.101562 65.046875 49.617188 65.710938 51.058594 67.945312 "/>
<path style="fill-rule:evenodd;fill:rgb(99.998474%,83.920288%,0%);fill-opacity:1;stroke-width:0.253462;stroke-linecap:butt;stroke-linejoin:miter;stroke:rgb(0%,0%,0%);stroke-opacity:1;stroke-miterlimit:4;" d="M 80.230469 45.546875 C 80.230469 45.546875 81.789062 47.042969 81.820312 47.351562 C 81.851562 47.664062 82.226562 49.128906 82.632812 49.347656 C 83.035156 49.566406 84.628906 50.84375 84.84375 51.34375 C 85.0625 51.84375 86.464844 53.960938 86.464844 53.960938 C 86.464844 53.960938 87.773438 56.640625 88.648438 56.859375 C 89.519531 57.078125 91.984375 56.703125 92.480469 57.886719 C 92.980469 59.074219 92.855469 60.789062 92.855469 60.789062 C 92.855469 60.789062 92.261719 61.316406 91.984375 61.007812 C 91.703125 60.695312 91.203125 62.566406 90.332031 62.035156 C 89.140625 59.503906 86.03125 59.917969 86.03125 59.917969 C 86.03125 59.917969 86.714844 58.855469 83.941406 57.921875 C 79.609375 58.667969 78.332031 54.148438 78.332031 54.148438 L 75.863281 52.007812 Z M 80.230469 45.546875 "/>
<path style=" stroke:none;fill-rule:evenodd;fill:rgb(99.998474%,83.920288%,0%);fill-opacity:1;" d="M 77.738281 51.964844 L 79.671875 52.871094 L 79.515625 51.21875 Z M 77.738281 51.964844 "/>
<path style="fill:none;stroke-width:0.253462;stroke-linecap:butt;stroke-linejoin:miter;stroke:rgb(0%,0%,0%);stroke-opacity:1;stroke-miterlimit:4;" d="M 77.738281 51.964844 L 79.671875 52.871094 L 79.515625 51.21875 "/>
<path style=" stroke:none;fill-rule:evenodd;fill:rgb(99.998474%,83.920288%,0%);fill-opacity:1;" d="M 80.480469 51.71875 L 82.257812 52.589844 L 81.542969 51.15625 Z M 80.480469 51.71875 "/>
<path style="fill:none;stroke-width:0.253462;stroke-linecap:butt;stroke-linejoin:miter;stroke:rgb(0%,0%,0%);stroke-opacity:1;stroke-miterlimit:4;" d="M 80.480469 51.71875 L 82.257812 52.589844 L 81.542969 51.15625 "/>
<path style=" stroke:none;fill-rule:evenodd;fill:rgb(99.998474%,83.920288%,0%);fill-opacity:1;" d="M 80.386719 49.378906 L 82.132812 50.316406 L 81.324219 48.507812 Z M 80.386719 49.378906 "/>
<path style="fill:none;stroke-width:0.253462;stroke-linecap:butt;stroke-linejoin:miter;stroke:rgb(0%,0%,0%);stroke-opacity:1;stroke-miterlimit:4;" d="M 80.386719 49.378906 L 82.132812 50.316406 L 81.324219 48.507812 "/>
<path style=" stroke:none;fill-rule:evenodd;fill:rgb(99.998474%,83.920288%,0%);fill-opacity:1;" d="M 83.164062 57.953125 C 83.164062 57.953125 81.167969 55.332031 81.199219 55.332031 C 81.230469 55.332031 84.59375 55.988281 84.59375 55.988281 L 83.347656 53.308594 L 86.433594 54.117188 Z M 83.164062 57.953125 "/>
<path style="fill:none;stroke-width:0.253462;stroke-linecap:butt;stroke-linejoin:miter;stroke:rgb(0%,0%,0%);stroke-opacity:1;stroke-miterlimit:4;" d="M 83.164062 57.953125 C 83.164062 57.953125 81.167969 55.332031 81.199219 55.332031 C 81.230469 55.332031 84.59375 55.988281 84.59375 55.988281 L 83.347656 53.308594 L 86.433594 54.117188 "/>
<path style=" stroke:none;fill-rule:evenodd;fill:rgb(99.998474%,83.920288%,0%);fill-opacity:1;" d="M 88.898438 58.355469 C 88.898438 58.355469 90.859375 58.792969 90.796875 62.066406 Z M 88.898438 58.355469 "/>
<path style="fill:none;stroke-width:0.253462;stroke-linecap:butt;stroke-linejoin:miter;stroke:rgb(0%,0%,0%);stroke-opacity:1;stroke-miterlimit:4;" d="M 88.898438 58.355469 C 88.898438 58.355469 90.859375 58.792969 90.796875 62.066406 "/>
<path style=" stroke:none;fill-rule:evenodd;fill:rgb(99.998474%,83.920288%,0%);fill-opacity:1;" d="M 89.925781 57.859375 C 89.925781 57.859375 92.046875 57.734375 91.921875 61.039062 Z M 89.925781 57.859375 "/>
<path style="fill:none;stroke-width:0.253462;stroke-linecap:butt;stroke-linejoin:miter;stroke:rgb(0%,0%,0%);stroke-opacity:1;stroke-miterlimit:4;" d="M 89.925781 57.859375 C 89.925781 57.859375 92.046875 57.734375 91.921875 61.039062 "/>
<path style="fill-rule:evenodd;fill:rgb(99.998474%,83.920288%,0%);fill-opacity:1;stroke-width:0.253462;stroke-linecap:butt;stroke-linejoin:miter;stroke:rgb(0%,0%,0%);stroke-opacity:1;stroke-miterlimit:4;" d="M 53.371094 45.949219 C 53.371094 45.949219 51.8125 47.449219 51.78125 47.757812 C 51.75 48.070312 51.117188 49.34375 50.714844 49.558594 C 50.308594 49.777344 48.910156 51.1875 48.695312 51.683594 C 48.476562 52.183594 47.136719 54.367188 47.136719 54.367188 C 47.136719 54.367188 45.601562 56.59375 44.730469 56.8125 C 43.664062 56.902344 41.621094 57.109375 41.121094 58.292969 C 40.621094 59.480469 41.394531 61.289062 41.976562 61.289062 C 42.847656 61.679688 43.246094 62.078125 43.527344 61.765625 C 44 61.90625 43.730469 62.3125 44.601562 61.785156 C 43.941406 60.933594 44.011719 60.113281 44.675781 59.898438 C 45.339844 59.667969 46.417969 60.679688 46.417969 60.679688 C 46.417969 60.679688 46.8125 58.84375 49.585938 57.910156 C 53.917969 58.65625 55.082031 55.160156 55.386719 54.328125 C 56.070312 53.398438 57.132812 53.148438 58.003906 52.558594 Z M 53.371094 45.949219 "/>
<path style="fill:none;stroke-width:0.253462;stroke-linecap:butt;stroke-linejoin:miter;stroke:rgb(0%,0%,0%);stroke-opacity:1;stroke-miterlimit:4;" d="M 55.941406 51.992188 L 53.933594 53.046875 L 54.089844 51.625 "/>
<path style="fill:none;stroke-width:0.253462;stroke-linecap:butt;stroke-linejoin:miter;stroke:rgb(0%,0%,0%);stroke-opacity:1;stroke-miterlimit:4;" d="M 53.273438 51.707031 L 51.382812 52.578125 L 52.25 51.105469 "/>
<path style="fill:none;stroke-width:0.253462;stroke-linecap:butt;stroke-linejoin:miter;stroke:rgb(0%,0%,0%);stroke-opacity:1;stroke-miterlimit:4;" d="M 53.328125 49.40625 L 51.699219 50.113281 L 52.28125 48.914062 "/>
<path style="fill:none;stroke-width:0.253462;stroke-linecap:butt;stroke-linejoin:miter;stroke:rgb(0%,0%,0%);stroke-opacity:1;stroke-miterlimit:4;" d="M 50.515625 57.941406 C 50.820312 57.332031 52.359375 55.433594 52.328125 55.433594 C 52.296875 55.433594 49.160156 56.089844 49.160156 56.089844 L 50.179688 53.449219 L 47.433594 53.992188 "/>
<path style="fill:none;stroke-width:0.253462;stroke-linecap:butt;stroke-linejoin:miter;stroke:rgb(0%,0%,0%);stroke-opacity:1;stroke-miterlimit:4;" d="M 44.835938 58.34375 C 44.835938 58.34375 42.453125 58.777344 43.386719 61.726562 "/>
<path style="fill:none;stroke-width:0.253462;stroke-linecap:butt;stroke-linejoin:miter;stroke:rgb(0%,0%,0%);stroke-opacity:1;stroke-miterlimit:4;" d="M 43.808594 57.941406 C 43.808594 57.941406 41.203125 58.007812 42.101562 61.25 "/>
<path style="fill:none;stroke-width:0.316832;stroke-linecap:butt;stroke-linejoin:miter;stroke:rgb(0%,0%,0%);stroke-opacity:1;stroke-miterlimit:4;" d="M 72.496094 55.550781 C 72.496094 55.519531 73.371094 57.75 71.496094 58.136719 C 76.3125 57.78125 77.667969 63.277344 77.667969 63.277344 "/>
<path style="fill:none;stroke-width:0.253462;stroke-linecap:butt;stroke-linejoin:miter;stroke:rgb(0%,0%,0%);stroke-opacity:1;stroke-miterlimit:4;" d="M 71.398438 56.359375 C 71.398438 56.359375 71.820312 57.976562 70.429688 58.785156 C 75.472656 59.882812 76.632812 65.117188 76.632812 65.117188 "/>
<path style="fill:none;stroke-width:0.253462;stroke-linecap:butt;stroke-linejoin:miter;stroke:rgb(0%,0%,0%);stroke-opacity:1;stroke-miterlimit:4;" d="M 70.332031 57.105469 C 70.332031 57.167969 70.816406 59.203125 69.234375 59.527344 C 72.367188 58.6875 75.632812 66.636719 75.632812 66.636719 "/>
<path style="fill:none;stroke-width:0.253462;stroke-linecap:butt;stroke-linejoin:miter;stroke:rgb(0%,0%,0%);stroke-opacity:1;stroke-miterlimit:4;" d="M 68.8125 58.007812 C 68.8125 58.007812 69.621094 59.558594 68.132812 60.042969 C 70.945312 60.335938 71.851562 69.578125 71.851562 69.578125 "/>
<path style="fill:none;stroke-width:0.253462;stroke-linecap:butt;stroke-linejoin:miter;stroke:rgb(0%,0%,0%);stroke-opacity:1;stroke-miterlimit:4;" d="M 67.84375 58.558594 C 67.84375 58.558594 68.296875 60.269531 66.84375 60.789062 C 69.785156 59.234375 69.234375 71.195312 69.234375 71.195312 "/>
<path style="fill:none;stroke-width:0.253462;stroke-linecap:butt;stroke-linejoin:miter;stroke:rgb(0%,0%,0%);stroke-opacity:1;stroke-miterlimit:4;" d="M 65.90625 58.65625 C 65.90625 58.65625 65.292969 60.464844 66.648438 60.820312 C 63.964844 60.078125 64.484375 71.195312 64.484375 71.195312 "/>
<path style="fill:none;stroke-width:0.253462;stroke-linecap:butt;stroke-linejoin:miter;stroke:rgb(0%,0%,0%);stroke-opacity:1;stroke-miterlimit:4;" d="M 64.644531 57.945312 C 64.644531 57.945312 64.226562 59.589844 65.875 60.433594 C 63.125 58.6875 61.996094 69.707031 61.996094 69.707031 "/>
<path style="fill:none;stroke-width:0.253462;stroke-linecap:butt;stroke-linejoin:miter;stroke:rgb(0%,0%,0%);stroke-opacity:1;stroke-miterlimit:4;" d="M 69.007812 59.464844 C 69.007812 59.464844 74.015625 64.277344 73.984375 67.832031 "/>
<path style="fill:none;stroke-width:0.253462;stroke-linecap:butt;stroke-linejoin:miter;stroke:rgb(0%,0%,0%);stroke-opacity:1;stroke-miterlimit:4;" d="M 61.089844 55.585938 C 61.089844 55.617188 60.476562 58.167969 62.253906 58.234375 "/>
<path style="fill:none;stroke-width:0.253462;stroke-linecap:butt;stroke-linejoin:miter;stroke:rgb(0%,0%,0%);stroke-opacity:1;stroke-miterlimit:4;" d="M 62.351562 56.519531 C 62.351562 56.585938 61.867188 58.6875 63.289062 58.785156 "/>
<path style="fill:none;stroke-width:0.253462;stroke-linecap:butt;stroke-linejoin:miter;stroke:rgb(0%,0%,0%);stroke-opacity:1;stroke-miterlimit:4;" d="M 63.480469 57.136719 C 63.480469 57.136719 62.609375 59.234375 64.742188 59.527344 "/>
<path style="fill:none;stroke-width:0.253462;stroke-linecap:butt;stroke-linejoin:miter;stroke:rgb(0%,0%,0%);stroke-opacity:1;stroke-miterlimit:4;" d="M 64.582031 59.558594 C 64.546875 59.558594 60.410156 63.40625 59.765625 67.863281 "/>
<path style="fill:none;stroke-width:0.253462;stroke-linecap:butt;stroke-linejoin:miter;stroke:rgb(0%,0%,0%);stroke-opacity:1;stroke-miterlimit:4;" d="M 63.804688 59.171875 C 63.773438 59.171875 58.539062 62.433594 58.179688 66.605469 "/>
<path style="fill:none;stroke-width:0.253462;stroke-linecap:butt;stroke-linejoin:miter;stroke:rgb(0%,0%,0%);stroke-opacity:1;stroke-miterlimit:4;" d="M 62.640625 58.621094 C 62.640625 58.621094 56.824219 62.015625 57.082031 65.085938 "/>
<path style="fill:none;stroke-width:0.253462;stroke-linecap:butt;stroke-linejoin:miter;stroke:rgb(0%,0%,0%);stroke-opacity:1;stroke-miterlimit:4;" d="M 61.25 57.878906 C 61.25 57.878906 56.921875 58.6875 55.855469 63.339844 "/>
<path style="fill:none;stroke-width:0.253462;stroke-linecap:butt;stroke-linejoin:miter;stroke:rgb(0%,0%,0%);stroke-opacity:1;stroke-miterlimit:4;" d="M 52.117188 28.105469 C 52.117188 28.105469 56.308594 30.417969 59.308594 30.289062 C 62.308594 30.164062 66.808594 28.226562 66.808594 28.226562 C 66.808594 28.226562 70.808594 30.476562 74.058594 30.164062 C 77.308594 29.851562 81.808594 28.105469 81.808594 28.105469 C 84.496094 41.519531 78.371094 53.5625 66.808594 58.980469 C 54.535156 53.375 48.578125 39.894531 52.117188 28.105469 Z M 52.117188 28.105469 "/>
<path style="fill-rule:evenodd;fill:rgb(99.998474%,99.998474%,99.998474%);fill-opacity:1;stroke-width:0.253472;stroke-linecap:butt;stroke-linejoin:miter;stroke:rgb(0%,0%,0%);stroke-opacity:1;stroke-miterlimit:4;" d="M 52.117188 28.105469 C 52.117188 28.105469 56.308594 30.417969 59.308594 30.289062 C 62.308594 30.164062 66.808594 28.226562 66.808594 28.226562 C 66.808594 28.226562 70.808594 30.480469 74.058594 30.164062 C 77.308594 29.855469 81.808594 28.105469 81.808594 28.105469 C 84.496094 41.519531 78.371094 53.5625 66.808594 58.980469 C 54.535156 53.375 48.578125 39.894531 52.117188 28.105469 Z M 52.117188 28.105469 "/>
<path style=" stroke:none;fill-rule:evenodd;fill:rgb(74.508667%,3.921509%,18.431091%);fill-opacity:1;" d="M 53.664062 37.855469 L 53.664062 46.242188 L 56.042969 50.253906 L 56.042969 37.855469 Z M 53.664062 37.855469 "/>
<path style=" stroke:none;fill-rule:evenodd;fill:rgb(74.508667%,3.921509%,18.431091%);fill-opacity:1;" d="M 58.421875 37.855469 L 58.421875 53.042969 L 60.800781 55.257812 L 60.800781 37.855469 Z M 58.421875 37.855469 "/>
<path style=" stroke:none;fill-rule:evenodd;fill:rgb(74.508667%,3.921509%,18.431091%);fill-opacity:1;" d="M 63.179688 37.855469 L 63.179688 57.058594 L 65.558594 58.378906 L 65.558594 37.855469 Z M 63.179688 37.855469 "/>
<path style=" stroke:none;fill-rule:evenodd;fill:rgb(74.508667%,3.921509%,18.431091%);fill-opacity:1;" d="M 79.835938 37.855469 L 79.835938 46.246094 L 77.457031 50.292969 L 77.457031 37.855469 Z M 79.835938 37.855469 "/>
<path style=" stroke:none;fill-rule:evenodd;fill:rgb(74.508667%,3.921509%,18.431091%);fill-opacity:1;" d="M 75.078125 37.855469 L 75.078125 53.121094 L 72.699219 55.289062 L 72.699219 37.855469 Z M 75.078125 37.855469 "/>
<path style=" stroke:none;fill-rule:evenodd;fill:rgb(74.508667%,3.921509%,18.431091%);fill-opacity:1;" d="M 70.316406 37.855469 L 70.316406 57.019531 L 67.9375 58.4375 L 67.9375 37.855469 Z M 70.316406 37.855469 "/>
<path style=" stroke:none;fill-rule:evenodd;fill:rgb(0%,15.293884%,40.783691%);fill-opacity:1;" d="M 52.117188 28.105469 C 52.117188 28.105469 53.164062 28.683594 54.585938 29.242188 C 56.011719 29.804688 57.808594 30.355469 59.308594 30.289062 C 62.308594 30.164062 66.804688 28.226562 66.804688 28.226562 C 66.804688 28.226562 70.808594 30.476562 74.058594 30.164062 C 77.308594 29.851562 81.808594 28.101562 81.808594 28.101562 C 82.464844 32 82.792969 33.988281 82.214844 37.855469 L 51.28125 37.855469 C 50.890625 33.996094 50.910156 32.25 52.117188 28.105469 Z M 52.117188 28.105469 "/>
<path style="fill:none;stroke-width:0.253472;stroke-linecap:butt;stroke-linejoin:miter;stroke:rgb(0%,0%,0%);stroke-opacity:1;stroke-miterlimit:4;" d="M 52.117188 28.105469 C 52.117188 28.105469 53.164062 28.683594 54.585938 29.242188 C 56.011719 29.804688 57.808594 30.355469 59.308594 30.289062 C 62.308594 30.164062 66.808594 28.226562 66.808594 28.226562 C 66.808594 28.226562 70.808594 30.476562 74.058594 30.164062 C 77.308594 29.851562 81.808594 28.101562 81.808594 28.101562 C 82.464844 32 82.792969 33.988281 82.214844 37.855469 L 51.28125 37.855469 C 50.890625 33.996094 50.910156 32.25 52.117188 28.105469 Z M 52.117188 28.105469 "/>
<path style="fill:none;stroke-width:0.253462;stroke-linecap:butt;stroke-linejoin:miter;stroke:rgb(0%,0%,0%);stroke-opacity:1;stroke-miterlimit:4;" d="M 52.117188 28.105469 C 52.117188 28.105469 56.308594 30.417969 59.308594 30.289062 C 62.308594 30.164062 66.808594 28.226562 66.808594 28.226562 C 66.808594 28.226562 70.808594 30.476562 74.058594 30.164062 C 77.308594 29.851562 81.808594 28.105469 81.808594 28.105469 C 84.496094 41.519531 78.371094 53.5625 66.808594 58.980469 C 54.535156 53.375 48.578125 39.894531 52.117188 28.105469 Z M 52.117188 28.105469 "/>
</g>
</svg>
