<?xml version="1.0" encoding="UTF-8"?>
<svg xmlns="http://www.w3.org/2000/svg" xmlns:xlink="http://www.w3.org/1999/xlink" width="128pt" height="64pt" viewBox="0 0 128 64" version="1.1">
<g id="surface1167">
<rect x="0" y="0" width="128" height="64" style="fill:rgb(0%,14.117432%,49.01886%);fill-opacity:1;stroke:none;"/>
<path style="fill:none;stroke-width:1;stroke-linecap:square;stroke-linejoin:miter;stroke:rgb(0%,14.117432%,49.01886%);stroke-opacity:1;stroke-miterlimit:3.239307;" d="M 0 64 L 128 64 L 128 0 L 0 0 Z M 0 64 "/>
<path style=" stroke:none;fill-rule:evenodd;fill:rgb(99.998474%,99.998474%,99.998474%);fill-opacity:1;" d="M 0 0 L 0 7.15625 L 113.6875 64 L 128 64 L 128 56.84375 L 14.3125 0 Z M 128 0 L 128 7.15625 L 14.3125 64 L 0 64 L 0 56.84375 L 113.6875 0 Z M 128 0 "/>
<path style=" stroke:none;fill-rule:evenodd;fill:rgb(81.175232%,7.843018%,16.862488%);fill-opacity:1;" d="M 0 64 L 42.667969 42.667969 L 52.207031 42.667969 L 9.539062 64 Z M 0 0 L 42.667969 21.332031 L 33.125 21.332031 L 0 4.769531 Z M 75.792969 21.332031 L 118.460938 0 L 128 0 L 85.332031 21.332031 Z M 128 64 L 85.332031 42.667969 L 94.875 42.667969 L 128 59.230469 Z M 128 64 "/>
<path style="fill-rule:nonzero;fill:rgb(99.998474%,99.998474%,99.998474%);fill-opacity:1;stroke-width:1;stroke-linecap:square;stroke-linejoin:miter;stroke:rgb(99.998474%,99.998474%,99.998474%);stroke-opacity:1;stroke-miterlimit:3.239307;" d="M 53.332031 0 L 53.332031 64 L 74.667969 64 L 74.667969 0 Z M 53.332031 0 "/>
<path style="fill-rule:nonzero;fill:rgb(99.998474%,99.998474%,99.998474%);fill-opacity:1;stroke-width:1;stroke-linecap:square;stroke-linejoin:miter;stroke:rgb(99.998474%,99.998474%,99.998474%);stroke-opacity:1;stroke-miterlimit:3.239307;" d="M 0 21.332031 L 0 42.667969 L 128 42.667969 L 128 21.332031 Z M 0 21.332031 "/>
<path style="fill-rule:nonzero;fill:rgb(81.175232%,7.843018%,16.862488%);fill-opacity:1;stroke-width:1;stroke-linecap:square;stroke-linejoin:miter;stroke:rgb(81.175232%,7.843018%,16.862488%);stroke-opacity:1;stroke-miterlimit:3.239307;" d="M 0 25.601562 L 0 38.398438 L 128 38.398438 L 128 25.601562 Z M 0 25.601562 "/>
<path style="fill-rule:nonzero;fill:rgb(81.175232%,7.843018%,16.862488%);fill-opacity:1;stroke-width:1;stroke-linecap:square;stroke-linejoin:miter;stroke:rgb(81.175232%,7.843018%,16.862488%);stroke-opacity:1;stroke-miterlimit:3.239307;" d="M 57.601562 0 L 57.601562 64 L 70.398438 64 L 70.398438 0 Z M 57.601562 0 "/>
</g>
</svg>
