<svg viewBox="0 0 1000 526" xmlns="http://www.w3.org/2000/svg"><path d="m0 0h1000v526h-1000z" fill="#fff"/><g fill-rule="evenodd"><path d="m0 0h1000v40.484375h-1000zm0 0" fill="#b22234"/><path d="m0 80.972656h1000v40.484375h-1000zm0 0" fill="#b22234"/><path d="m0 161.941406h1000v40.488282h-1000zm0 0" fill="#b22234"/><path d="m0 242.914062h1000v40.488282h-1000zm0 0" fill="#b22234"/><path d="m0 323.886719h1000v40.484375h-1000zm0 0" fill="#b22234"/><path d="m0 404.859375h1000v40.484375h-1000zm0 0" fill="#b22234"/><path d="m0 485.828125h1000v40.488281h-1000zm0 0" fill="#b22234"/><path d="m0 0h400v283.402344h-400zm0 0" fill="#3c3b6e"/><path d="m38.472656 31.113281-13.789062 10.015625 5.265625-16.207031zm0 0" fill="#fff"/><path d="m32.582031 33.023438-13.789062-10.015626h17.042969zm0 0" fill="#fff"/><path d="m28.945312 28.015625 5.265626-16.210937 5.265624 16.210937zm0 0" fill="#fff"/><path d="m32.582031 23.007812h17.042969l-13.789062 10.015626zm0 0" fill="#fff"/><path d="m38.472656 24.921875 5.265625 16.207031-13.789062-10.015625zm0 0" fill="#fff"/><path d="m104.789062 31.113281-13.792968 10.015625 5.269531-16.207031zm0 0" fill="#fff"/><path d="m98.898438 33.023438-13.792969-10.015626h17.050781zm0 0" fill="#fff"/><path d="m95.261719 28.015625 5.265625-16.210937 5.265625 16.210937zm0 0" fill="#fff"/><path d="m98.898438 23.007812h17.042968l-13.785156 10.015626zm0 0" fill="#fff"/><path d="m104.789062 24.921875 5.265626 16.207031-13.789063-10.015625zm0 0" fill="#fff"/><path d="m171.105469 31.113281-13.792969 10.015625 5.265625-16.207031zm0 0" fill="#fff"/><path d="m165.210938 33.023438-13.785157-10.015626h17.042969zm0 0" fill="#fff"/><path d="m161.574219 28.015625 5.269531-16.210937 5.265625 16.210937zm0 0" fill="#fff"/><path d="m165.210938 23.007812h17.046874l-13.789062 10.015626zm0 0" fill="#fff"/><path d="m171.105469 24.921875 5.265625 16.207031-13.792969-10.015625zm0 0" fill="#fff"/><path d="m237.417969 31.113281-13.789063 10.015625 5.265625-16.207031zm0 0" fill="#fff"/><path d="m231.527344 33.023438-13.785156-10.015626h17.042968zm0 0" fill="#fff"/><path d="m227.890625 28.015625 5.265625-16.210937 5.265625 16.210937zm0 0" fill="#fff"/><path d="m231.527344 23.007812h17.050781l-13.792969 10.015626zm0 0" fill="#fff"/><path d="m237.417969 24.921875 5.265625 16.207031-13.789063-10.015625zm0 0" fill="#fff"/><path d="m303.734375 31.113281-13.789063 10.015625 5.269532-16.207031zm0 0" fill="#fff"/><path d="m297.847656 33.023438-13.789062-10.015626h17.042968zm0 0" fill="#fff"/><path d="m294.207031 28.015625 5.265625-16.210937 5.265625 16.210937zm0 0" fill="#fff"/><path d="m297.847656 23.007812h17.042969l-13.789063 10.015626zm0 0" fill="#fff"/><path d="m303.734375 24.921875 5.265625 16.207031-13.785156-10.015625zm0 0" fill="#fff"/><path d="m370.050781 31.113281-13.792969 10.015625 5.273438-16.207031zm0 0" fill="#fff"/><path d="m364.164062 33.023438-13.792968-10.015626h17.046875zm0 0" fill="#fff"/><path d="m360.519531 28.015625 5.269531-16.210937 5.269532 16.210937zm0 0" fill="#fff"/><path d="m364.164062 23.007812h17.042969l-13.789062 10.015626zm0 0" fill="#fff"/><path d="m370.050781 24.921875 5.265625 16.207031-13.785156-10.015625zm0 0" fill="#fff"/><path d="m71.628906 59.535156-13.789062 10.019532 5.269531-16.210938zm0 0" fill="#fff"/><path d="m65.742188 61.449219-13.789063-10.019531h17.042969zm0 0" fill="#fff"/><path d="m62.101562 56.4375 5.265626-16.210938 5.269531 16.210938zm0 0" fill="#fff"/><path d="m65.742188 51.429688h17.042968l-13.789062 10.019531zm0 0" fill="#fff"/><path d="m71.628906 53.34375 5.265625 16.210938-13.785156-10.019532zm0 0" fill="#fff"/><path d="m137.945312 59.535156-13.789062 10.019532 5.269531-16.210938zm0 0" fill="#fff"/><path d="m132.058594 61.449219-13.792969-10.019531h17.046875zm0 0" fill="#fff"/><path d="m128.414062 56.4375 5.269532-16.210938 5.269531 16.210938zm0 0" fill="#fff"/><path d="m132.058594 51.429688h17.042968l-13.789062 10.019531zm0 0" fill="#fff"/><path d="m137.945312 53.34375 5.265626 16.210938-13.785157-10.019532zm0 0" fill="#fff"/><path d="m204.261719 59.535156-13.789063 10.019532 5.265625-16.210938zm0 0" fill="#fff"/><path d="m198.371094 61.449219-13.789063-10.019531h17.042969zm0 0" fill="#fff"/><path d="m194.730469 56.4375 5.273437-16.210938 5.265625 16.210938zm0 0" fill="#fff"/><path d="m198.371094 51.429688h17.046875l-13.792969 10.019531zm0 0" fill="#fff"/><path d="m204.261719 53.34375 5.269531 16.210938-13.792969-10.019532zm0 0" fill="#fff"/><path d="m270.574219 59.535156-13.785157 10.019532 5.265626-16.210938zm0 0" fill="#fff"/><path d="m264.6875 61.449219-13.789062-10.019531h17.042968zm0 0" fill="#fff"/><path d="m261.050781 56.4375 5.265625-16.210938 5.265625 16.210938zm0 0" fill="#fff"/><path d="m264.6875 51.429688h17.046875l-13.792969 10.019531zm0 0" fill="#fff"/><path d="m270.574219 53.34375 5.269531 16.210938-13.789062-10.019532zm0 0" fill="#fff"/><path d="m336.894531 59.535156-13.789062 10.019532 5.265625-16.210938zm0 0" fill="#fff"/><path d="m331.003906 61.449219-13.792968-10.019531h17.050781zm0 0" fill="#fff"/><path d="m327.367188 56.4375 5.265624-16.210938 5.265626 16.210938zm0 0" fill="#fff"/><path d="m331.003906 51.429688h17.042969l-13.785156 10.019531zm0 0" fill="#fff"/><path d="m336.894531 53.34375 5.265625 16.210938-13.789062-10.019532zm0 0" fill="#fff"/><path d="m38.472656 87.953125-13.789062 10.019531 5.265625-16.210937zm0 0" fill="#fff"/><path d="m32.582031 89.867188-13.789062-10.019532h17.042969zm0 0" fill="#fff"/><path d="m28.945312 84.859375 5.265626-16.210937 5.265624 16.210937zm0 0" fill="#fff"/><path d="m32.582031 79.847656h17.042969l-13.789062 10.019532zm0 0" fill="#fff"/><path d="m38.472656 81.761719 5.265625 16.210937-13.789062-10.019531zm0 0" fill="#fff"/><path d="m104.789062 87.953125-13.792968 10.019531 5.269531-16.210937zm0 0" fill="#fff"/><path d="m98.898438 89.867188-13.792969-10.019532h17.050781zm0 0" fill="#fff"/><path d="m95.261719 84.859375 5.265625-16.210937 5.265625 16.210937zm0 0" fill="#fff"/><path d="m98.898438 79.847656h17.042968l-13.785156 10.019532zm0 0" fill="#fff"/><path d="m104.789062 81.761719 5.265626 16.210937-13.789063-10.019531zm0 0" fill="#fff"/><path d="m171.105469 87.953125-13.792969 10.019531 5.265625-16.210937zm0 0" fill="#fff"/><path d="m165.210938 89.867188-13.785157-10.019532h17.042969zm0 0" fill="#fff"/><path d="m161.574219 84.859375 5.269531-16.210937 5.265625 16.210937zm0 0" fill="#fff"/><path d="m165.210938 79.847656h17.046874l-13.789062 10.019532zm0 0" fill="#fff"/><path d="m171.105469 81.761719 5.265625 16.210937-13.792969-10.019531zm0 0" fill="#fff"/><path d="m237.417969 87.953125-13.789063 10.019531 5.265625-16.210937zm0 0" fill="#fff"/><path d="m231.527344 89.867188-13.785156-10.019532h17.042968zm0 0" fill="#fff"/><path d="m227.890625 84.859375 5.265625-16.210937 5.265625 16.210937zm0 0" fill="#fff"/><path d="m231.527344 79.847656h17.050781l-13.792969 10.019532zm0 0" fill="#fff"/><path d="m237.417969 81.761719 5.265625 16.210937-13.789063-10.019531zm0 0" fill="#fff"/><path d="m303.734375 87.953125-13.789063 10.019531 5.269532-16.210937zm0 0" fill="#fff"/><path d="m297.847656 89.867188-13.789062-10.019532h17.042968zm0 0" fill="#fff"/><path d="m294.207031 84.859375 5.265625-16.210937 5.265625 16.210937zm0 0" fill="#fff"/><path d="m297.847656 79.847656h17.042969l-13.789063 10.019532zm0 0" fill="#fff"/><path d="m303.734375 81.761719 5.265625 16.210937-13.785156-10.019531zm0 0" fill="#fff"/><path d="m370.050781 87.953125-13.792969 10.019531 5.273438-16.210937zm0 0" fill="#fff"/><path d="m364.164062 89.867188-13.792968-10.019532h17.046875zm0 0" fill="#fff"/><path d="m360.519531 84.859375 5.269531-16.210937 5.269532 16.210937zm0 0" fill="#fff"/><path d="m364.164062 79.847656h17.042969l-13.789062 10.019532zm0 0" fill="#fff"/><path d="m370.050781 81.761719 5.265625 16.210937-13.785156-10.019531zm0 0" fill="#fff"/><path d="m71.628906 116.375-13.789062 10.019531 5.269531-16.214843zm0 0" fill="#fff"/><path d="m65.742188 118.289062-13.789063-10.015624h17.042969zm0 0" fill="#fff"/><path d="m62.101562 113.28125 5.265626-16.214844 5.269531 16.214844zm0 0" fill="#fff"/><path d="m65.742188 108.273438h17.042968l-13.789062 10.015624zm0 0" fill="#fff"/><path d="m71.628906 110.179688 5.265625 16.214843-13.785156-10.019531zm0 0" fill="#fff"/><path d="m137.945312 116.375-13.789062 10.019531 5.269531-16.214843zm0 0" fill="#fff"/><path d="m132.058594 118.289062-13.792969-10.015624h17.046875zm0 0" fill="#fff"/><path d="m128.414062 113.28125 5.269532-16.214844 5.269531 16.214844zm0 0" fill="#fff"/><path d="m132.058594 108.273438h17.042968l-13.789062 10.015624zm0 0" fill="#fff"/><path d="m137.945312 110.179688 5.265626 16.214843-13.785157-10.019531zm0 0" fill="#fff"/><path d="m204.261719 116.375-13.789063 10.019531 5.265625-16.214843zm0 0" fill="#fff"/><path d="m198.371094 118.289062-13.789063-10.015624h17.042969zm0 0" fill="#fff"/><path d="m194.730469 113.28125 5.273437-16.214844 5.265625 16.214844zm0 0" fill="#fff"/><path d="m198.371094 108.273438h17.046875l-13.792969 10.015624zm0 0" fill="#fff"/><path d="m204.261719 110.179688 5.269531 16.214843-13.792969-10.019531zm0 0" fill="#fff"/><path d="m270.574219 116.375-13.785157 10.019531 5.265626-16.214843zm0 0" fill="#fff"/><path d="m264.6875 118.289062-13.789062-10.015624h17.042968zm0 0" fill="#fff"/><path d="m261.050781 113.28125 5.265625-16.214844 5.265625 16.214844zm0 0" fill="#fff"/><path d="m264.6875 108.273438h17.046875l-13.792969 10.015624zm0 0" fill="#fff"/><path d="m270.574219 110.179688 5.269531 16.214843-13.789062-10.019531zm0 0" fill="#fff"/><path d="m336.894531 116.375-13.789062 10.019531 5.265625-16.214843zm0 0" fill="#fff"/><path d="m331.003906 118.289062-13.792968-10.015624h17.050781zm0 0" fill="#fff"/><path d="m327.367188 113.28125 5.265624-16.214844 5.265626 16.214844zm0 0" fill="#fff"/><path d="m331.003906 108.273438h17.042969l-13.785156 10.015624zm0 0" fill="#fff"/><path d="m336.894531 110.179688 5.265625 16.214843-13.789062-10.019531zm0 0" fill="#fff"/><path d="m38.472656 144.796875-13.789062 10.019531 5.265625-16.210937zm0 0" fill="#fff"/><path d="m32.582031 146.710938-13.789062-10.019532h17.042969zm0 0" fill="#fff"/><path d="m28.945312 141.699219 5.265626-16.210938 5.265624 16.210938zm0 0" fill="#fff"/><path d="m32.582031 136.691406h17.042969l-13.789062 10.019532zm0 0" fill="#fff"/><path d="m38.472656 138.605469 5.265625 16.210937-13.789062-10.019531zm0 0" fill="#fff"/><path d="m104.789062 144.796875-13.792968 10.019531 5.269531-16.210937zm0 0" fill="#fff"/><path d="m98.898438 146.710938-13.792969-10.019532h17.050781zm0 0" fill="#fff"/><path d="m95.261719 141.699219 5.265625-16.210938 5.265625 16.210938zm0 0" fill="#fff"/><path d="m98.898438 136.691406h17.042968l-13.785156 10.019532zm0 0" fill="#fff"/><path d="m104.789062 138.605469 5.265626 16.210937-13.789063-10.019531zm0 0" fill="#fff"/><path d="m171.105469 144.796875-13.792969 10.019531 5.265625-16.210937zm0 0" fill="#fff"/><path d="m165.210938 146.710938-13.785157-10.019532h17.042969zm0 0" fill="#fff"/><path d="m161.574219 141.699219 5.269531-16.210938 5.265625 16.210938zm0 0" fill="#fff"/><path d="m165.210938 136.691406h17.046874l-13.789062 10.019532zm0 0" fill="#fff"/><path d="m171.105469 138.605469 5.265625 16.210937-13.792969-10.019531zm0 0" fill="#fff"/><path d="m237.417969 144.796875-13.789063 10.019531 5.265625-16.210937zm0 0" fill="#fff"/><path d="m231.527344 146.710938-13.785156-10.019532h17.042968zm0 0" fill="#fff"/><path d="m227.890625 141.699219 5.265625-16.210938 5.265625 16.210938zm0 0" fill="#fff"/><path d="m231.527344 136.691406h17.050781l-13.792969 10.019532zm0 0" fill="#fff"/><path d="m237.417969 138.605469 5.265625 16.210937-13.789063-10.019531zm0 0" fill="#fff"/><path d="m303.734375 144.796875-13.789063 10.019531 5.269532-16.210937zm0 0" fill="#fff"/><path d="m297.847656 146.710938-13.789062-10.019532h17.042968zm0 0" fill="#fff"/><path d="m294.207031 141.699219 5.265625-16.210938 5.265625 16.210938zm0 0" fill="#fff"/><path d="m297.847656 136.691406h17.042969l-13.789063 10.019532zm0 0" fill="#fff"/><path d="m303.734375 138.605469 5.265625 16.210937-13.785156-10.019531zm0 0" fill="#fff"/><path d="m370.050781 144.796875-13.792969 10.019531 5.273438-16.210937zm0 0" fill="#fff"/><path d="m364.164062 146.710938-13.792968-10.019532h17.046875zm0 0" fill="#fff"/><path d="m360.519531 141.699219 5.269531-16.210938 5.269532 16.210938zm0 0" fill="#fff"/><path d="m364.164062 136.691406h17.042969l-13.789062 10.019532zm0 0" fill="#fff"/><path d="m370.050781 138.605469 5.265625 16.210937-13.785156-10.019531zm0 0" fill="#fff"/><path d="m71.628906 173.21875-13.789062 10.019531 5.269531-16.214843zm0 0" fill="#fff"/><path d="m65.742188 175.128906-13.789063-10.019531h17.042969zm0 0" fill="#fff"/><path d="m62.101562 170.121094 5.265626-16.210938 5.269531 16.210938zm0 0" fill="#fff"/><path d="m65.742188 165.109375h17.042968l-13.789062 10.019531zm0 0" fill="#fff"/><path d="m71.628906 167.023438 5.265625 16.214843-13.785156-10.019531zm0 0" fill="#fff"/><path d="m137.945312 173.21875-13.789062 10.019531 5.269531-16.214843zm0 0" fill="#fff"/><path d="m132.058594 175.128906-13.792969-10.019531h17.046875zm0 0" fill="#fff"/><path d="m128.414062 170.121094 5.269532-16.210938 5.269531 16.210938zm0 0" fill="#fff"/><path d="m132.058594 165.109375h17.042968l-13.789062 10.019531zm0 0" fill="#fff"/><path d="m137.945312 167.023438 5.265626 16.214843-13.785157-10.019531zm0 0" fill="#fff"/><path d="m204.261719 173.21875-13.789063 10.019531 5.265625-16.214843zm0 0" fill="#fff"/><path d="m198.371094 175.128906-13.789063-10.019531h17.042969zm0 0" fill="#fff"/><path d="m194.730469 170.121094 5.273437-16.210938 5.265625 16.210938zm0 0" fill="#fff"/><path d="m198.371094 165.109375h17.046875l-13.792969 10.019531zm0 0" fill="#fff"/><path d="m204.261719 167.023438 5.269531 16.214843-13.792969-10.019531zm0 0" fill="#fff"/><path d="m270.574219 173.21875-13.785157 10.019531 5.265626-16.214843zm0 0" fill="#fff"/><path d="m264.6875 175.128906-13.789062-10.019531h17.042968zm0 0" fill="#fff"/><path d="m261.050781 170.121094 5.265625-16.210938 5.265625 16.210938zm0 0" fill="#fff"/><path d="m264.6875 165.109375h17.046875l-13.792969 10.019531zm0 0" fill="#fff"/><path d="m270.574219 167.023438 5.269531 16.214843-13.789062-10.019531zm0 0" fill="#fff"/><path d="m336.894531 173.21875-13.789062 10.019531 5.265625-16.214843zm0 0" fill="#fff"/><path d="m331.003906 175.128906-13.792968-10.019531h17.050781zm0 0" fill="#fff"/><path d="m327.367188 170.121094 5.265624-16.210938 5.265626 16.210938zm0 0" fill="#fff"/><path d="m331.003906 165.109375h17.042969l-13.785156 10.019531zm0 0" fill="#fff"/><path d="m336.894531 167.023438 5.265625 16.214843-13.789062-10.019531zm0 0" fill="#fff"/><path d="m38.472656 201.636719-13.789062 10.019531 5.265625-16.207031zm0 0" fill="#fff"/><path d="m32.582031 203.550781-13.789062-10.015625h17.042969zm0 0" fill="#fff"/><path d="m28.945312 198.542969 5.265626-16.210938 5.265624 16.210938zm0 0" fill="#fff"/><path d="m32.582031 193.535156h17.042969l-13.789062 10.015625zm0 0" fill="#fff"/><path d="m38.472656 195.449219 5.265625 16.207031-13.789062-10.019531zm0 0" fill="#fff"/><path d="m104.789062 201.636719-13.792968 10.019531 5.269531-16.207031zm0 0" fill="#fff"/><path d="m98.898438 203.550781-13.792969-10.015625h17.050781zm0 0" fill="#fff"/><path d="m95.261719 198.542969 5.265625-16.210938 5.265625 16.210938zm0 0" fill="#fff"/><path d="m98.898438 193.535156h17.042968l-13.785156 10.015625zm0 0" fill="#fff"/><path d="m104.789062 195.449219 5.265626 16.207031-13.789063-10.019531zm0 0" fill="#fff"/><path d="m171.105469 201.636719-13.792969 10.019531 5.265625-16.207031zm0 0" fill="#fff"/><path d="m165.210938 203.550781-13.785157-10.015625h17.042969zm0 0" fill="#fff"/><path d="m161.574219 198.542969 5.269531-16.210938 5.265625 16.210938zm0 0" fill="#fff"/><path d="m165.210938 193.535156h17.046874l-13.789062 10.015625zm0 0" fill="#fff"/><path d="m171.105469 195.449219 5.265625 16.207031-13.792969-10.019531zm0 0" fill="#fff"/><path d="m237.417969 201.636719-13.789063 10.019531 5.265625-16.207031zm0 0" fill="#fff"/><path d="m231.527344 203.550781-13.785156-10.015625h17.042968zm0 0" fill="#fff"/><path d="m227.890625 198.542969 5.265625-16.210938 5.265625 16.210938zm0 0" fill="#fff"/><path d="m231.527344 193.535156h17.050781l-13.792969 10.015625zm0 0" fill="#fff"/><path d="m237.417969 195.449219 5.265625 16.207031-13.789063-10.019531zm0 0" fill="#fff"/><path d="m303.734375 201.636719-13.789063 10.019531 5.269532-16.207031zm0 0" fill="#fff"/><path d="m297.847656 203.550781-13.789062-10.015625h17.042968zm0 0" fill="#fff"/><path d="m294.207031 198.542969 5.265625-16.210938 5.265625 16.210938zm0 0" fill="#fff"/><path d="m297.847656 193.535156h17.042969l-13.789063 10.015625zm0 0" fill="#fff"/><path d="m303.734375 195.449219 5.265625 16.207031-13.785156-10.019531zm0 0" fill="#fff"/><path d="m370.050781 201.636719-13.792969 10.019531 5.273438-16.207031zm0 0" fill="#fff"/><path d="m364.164062 203.550781-13.792968-10.015625h17.046875zm0 0" fill="#fff"/><path d="m360.519531 198.542969 5.269531-16.210938 5.269532 16.210938zm0 0" fill="#fff"/><path d="m364.164062 193.535156h17.042969l-13.789062 10.015625zm0 0" fill="#fff"/><path d="m370.050781 195.449219 5.265625 16.207031-13.785156-10.019531zm0 0" fill="#fff"/><path d="m71.628906 230.058594-13.789062 10.015625 5.269531-16.207031zm0 0" fill="#fff"/><path d="m65.742188 231.972656-13.789063-10.019531h17.042969zm0 0" fill="#fff"/><path d="m62.101562 226.960938 5.265626-16.207032 5.269531 16.207032zm0 0" fill="#fff"/><path d="m65.742188 221.953125h17.042968l-13.789062 10.019531zm0 0" fill="#fff"/><path d="m71.628906 223.867188 5.265625 16.207031-13.785156-10.015625zm0 0" fill="#fff"/><path d="m137.945312 230.058594-13.789062 10.015625 5.269531-16.207031zm0 0" fill="#fff"/><path d="m132.058594 231.972656-13.792969-10.019531h17.046875zm0 0" fill="#fff"/><path d="m128.414062 226.960938 5.269532-16.207032 5.269531 16.207032zm0 0" fill="#fff"/><path d="m132.058594 221.953125h17.042968l-13.789062 10.019531zm0 0" fill="#fff"/><path d="m137.945312 223.867188 5.265626 16.207031-13.785157-10.015625zm0 0" fill="#fff"/><path d="m204.261719 230.058594-13.789063 10.015625 5.265625-16.207031zm0 0" fill="#fff"/><path d="m198.371094 231.972656-13.789063-10.019531h17.042969zm0 0" fill="#fff"/><path d="m194.730469 226.960938 5.273437-16.207032 5.265625 16.207032zm0 0" fill="#fff"/><path d="m198.371094 221.953125h17.046875l-13.792969 10.019531zm0 0" fill="#fff"/><path d="m204.261719 223.867188 5.269531 16.207031-13.792969-10.015625zm0 0" fill="#fff"/><path d="m270.574219 230.058594-13.785157 10.015625 5.265626-16.207031zm0 0" fill="#fff"/><path d="m264.6875 231.972656-13.789062-10.019531h17.042968zm0 0" fill="#fff"/><path d="m261.050781 226.960938 5.265625-16.207032 5.265625 16.207032zm0 0" fill="#fff"/><path d="m264.6875 221.953125h17.046875l-13.792969 10.019531zm0 0" fill="#fff"/><path d="m270.574219 223.867188 5.269531 16.207031-13.789062-10.015625zm0 0" fill="#fff"/><path d="m336.894531 230.058594-13.789062 10.015625 5.265625-16.207031zm0 0" fill="#fff"/><path d="m331.003906 231.972656-13.792968-10.019531h17.050781zm0 0" fill="#fff"/><path d="m327.367188 226.960938 5.265624-16.207032 5.265626 16.207032zm0 0" fill="#fff"/><path d="m331.003906 221.953125h17.042969l-13.785156 10.019531zm0 0" fill="#fff"/><path d="m336.894531 223.867188 5.265625 16.207031-13.789062-10.015625zm0 0" fill="#fff"/><path d="m38.472656 258.480469-13.789062 10.019531 5.265625-16.210938zm0 0" fill="#fff"/><path d="m32.582031 260.394531-13.789062-10.019531h17.042969zm0 0" fill="#fff"/><path d="m28.945312 255.382812 5.265626-16.207031 5.265624 16.207031zm0 0" fill="#fff"/><path d="m32.582031 250.375h17.042969l-13.789062 10.019531zm0 0" fill="#fff"/><path d="m38.472656 252.289062 5.265625 16.210938-13.789062-10.019531zm0 0" fill="#fff"/><path d="m104.789062 258.480469-13.792968 10.019531 5.269531-16.210938zm0 0" fill="#fff"/><path d="m98.898438 260.394531-13.792969-10.019531h17.050781zm0 0" fill="#fff"/><path d="m95.261719 255.382812 5.265625-16.207031 5.265625 16.207031zm0 0" fill="#fff"/><path d="m98.898438 250.375h17.042968l-13.785156 10.019531zm0 0" fill="#fff"/><path d="m104.789062 252.289062 5.265626 16.210938-13.789063-10.019531zm0 0" fill="#fff"/><path d="m171.105469 258.480469-13.792969 10.019531 5.265625-16.210938zm0 0" fill="#fff"/><path d="m165.210938 260.394531-13.785157-10.019531h17.042969zm0 0" fill="#fff"/><path d="m161.574219 255.382812 5.269531-16.207031 5.265625 16.207031zm0 0" fill="#fff"/><path d="m165.210938 250.375h17.046874l-13.789062 10.019531zm0 0" fill="#fff"/><path d="m171.105469 252.289062 5.265625 16.210938-13.792969-10.019531zm0 0" fill="#fff"/><path d="m237.417969 258.480469-13.789063 10.019531 5.265625-16.210938zm0 0" fill="#fff"/><path d="m231.527344 260.394531-13.785156-10.019531h17.042968zm0 0" fill="#fff"/><path d="m227.890625 255.382812 5.265625-16.207031 5.265625 16.207031zm0 0" fill="#fff"/><path d="m231.527344 250.375h17.050781l-13.792969 10.019531zm0 0" fill="#fff"/><path d="m237.417969 252.289062 5.265625 16.210938-13.789063-10.019531zm0 0" fill="#fff"/><path d="m303.734375 258.480469-13.789063 10.019531 5.269532-16.210938zm0 0" fill="#fff"/><path d="m297.847656 260.394531-13.789062-10.019531h17.042968zm0 0" fill="#fff"/><path d="m294.207031 255.382812 5.265625-16.207031 5.265625 16.207031zm0 0" fill="#fff"/><path d="m297.847656 250.375h17.042969l-13.789063 10.019531zm0 0" fill="#fff"/><path d="m303.734375 252.289062 5.265625 16.210938-13.785156-10.019531zm0 0" fill="#fff"/><path d="m370.050781 258.480469-13.792969 10.019531 5.273438-16.210938zm0 0" fill="#fff"/><path d="m364.164062 260.394531-13.792968-10.019531h17.046875zm0 0" fill="#fff"/><path d="m360.519531 255.382812 5.269531-16.207031 5.269532 16.207031zm0 0" fill="#fff"/><path d="m364.164062 250.375h17.042969l-13.789062 10.019531zm0 0" fill="#fff"/><path d="m370.050781 252.289062 5.265625 16.210938-13.785156-10.019531zm0 0" fill="#fff"/></g></svg>