<svg viewBox="0 0 1000 668" xmlns="http://www.w3.org/2000/svg"><path d="m0 .335938h998.65625v665.773437h-998.65625zm0 0" fill="#fff" fill-rule="evenodd"/><path d="m587.871094 240.058594c0-4.585938-1.496094-13.5-6.34375-16.589844-6.234375-3.242188-6.234375-5.234375-6.730469-9.46875-.5-4.234375 10.464844-12.210938 10.464844-12.210938s-9.96875-4.480468-13.703125-3.984374c-3.738282.496093-10.964844 1.246093-11.960938 2.242187s-6.476562-17.945313-2.992187-20.933594c3.488281-2.988281 10.710937 6.980469 10.710937 6.980469s4.738282-10.964844-11.953125-31.902344c5.726563-40.863281-32.398437-50.335937-41.113281-50.085937-7.230469-.996094-25.917969 5.738281-28.90625 14.703125-9.46875 3.242187-9.96875 11.460937-9.96875 11.460937s-19.4375 3.492188-21.929688 20.4375c11.464844-9.46875 18.9375.996094 18.9375.996094s9.964844 6.980469 15.203126 7.226563c5.230468.25-4.988282 17.441406-7.976563 20.4375-2.988281 2.988281-15.445313 14.453124-14.949219 15.199218s9.71875 3.488282 9.222656 7.71875c-.503906 4.242188-28.414062 17.199219-26.910156 20.4375 7.21875-2.242187 12.859375-.519531 12.859375-.519531 1 7.082031-1.816406 15.226563-6.621093 17.863281zm0 0" fill="#ffd600" fill-rule="evenodd" stroke="#000" stroke-width="1.991275"/><path d="m580.484375 426.785156s1.265625 14.984375-5.078125 21.328125c28.179688 1.777344 43.414062 30.46875 43.667969 37.324219.25 6.855469-8.636719 12.183594-8.636719 12.183594s3.046875 12.191406-8.632812 14.222656c.253906 11.679688-7.863282 11.679688-7.863282 11.679688s-3.046875 9.648437-12.449218 9.136718c-2.789063 13.96875-17.261719 13.710938-17.261719 13.710938s-8.375 20.3125-20.816407 12.441406c-7.871093 17.261719-28.6875 16.503906-36.558593 0-4.320313-.25-13.964844 5.582031-19.808594-11.679688-12.941406 2.285157-18.023437-14.214843-18.023437-14.214843s-8.628907-.761719-11.933594-9.394531c-10.152344-2.03125-8.375-12.191407-8.375-12.191407s-10.152344-2.789062-9.90625-13.960937c-8.117188-4.824219-7.355469-13.453125-7.355469-13.453125s6.34375-29.960938 43.15625-36.3125c-5.839844-8.375-5.078125-20.566407-5.078125-20.566407zm0 0" fill="#ffd600" fill-rule="evenodd" stroke="#000" stroke-width="1.991275"/><path d="m404.117188 254.921875s-20.066407 21.589844-30.101563 5.472656c-10.03125-16.109375 13.988281-20.675781 14.289063-20.976562.308593-.300781 13.988281-4.5625 15.207031-29.796875 1.210937-25.238282-30.105469-41.65625-38.917969-43.789063-8.816406-2.128906-34.660156-2.128906-34.660156-2.128906s-94.5625-22.800781-104.289063-29.796875c-9.730469-6.992188-99.117187-23.410156-99.117187-23.410156s-14.292969-1.828125-13.074219 10.945312c1.21875 12.769532 13.074219 14.289063 13.074219 14.289063s-10.035156 7.902343-8.824219 14.902343c1.222656 6.996094 8.824219 18.242188 24.632813 16.417969-1.824219 24.933594 32.835937 28.886719 32.835937 28.886719s3.648437 35.875 35.574219 34.054688c7.605468 24.625 36.179687 25.542968 36.179687 25.542968s13.378907 16.722656 32.835938 17.9375c11.253906 27.972656 35.574219 20.066406 35.574219 20.066406s-1.824219 17.632813 9.425781 17.632813c-5.78125 20.066406 15.808593 22.808594 24.023437 18.855469 2.121094 4.253906 9.421875 17.328125 26.144532 9.125 10.035156 14.894531 26.453124 7.902344 26.453124 7.902344s3.648438 11.855468 17.9375 7.292968c14.292969-4.5625-15.5-98.8125-15.203124-99.425781zm0 0" fill="#ffd600" fill-rule="evenodd"/><path d="m404.121094 254.921875s-20.070313 21.589844-30.101563 5.472656c-10.035156-16.109375 13.984375-20.675781 14.285157-20.976562.308593-.304688 13.988281-4.5625 15.207031-29.796875 1.210937-25.238282-30.105469-41.65625-38.917969-43.789063-8.816406-2.128906-34.660156-2.128906-34.660156-2.128906s-94.5625-22.800781-104.289063-29.796875c-9.730469-6.992188-99.117187-23.410156-99.117187-23.410156s-14.292969-1.828125-13.078125 10.945312c1.222656 12.769532 13.078125 14.289063 13.078125 14.289063s-10.035156 7.902343-8.820313 14.902343c1.21875 6.996094 8.820313 18.242188 24.628907 16.417969-1.824219 24.933594 32.835937 28.886719 32.835937 28.886719s3.648437 35.875 35.574219 34.054688c7.605468 24.625 36.179687 25.542968 36.179687 25.542968s13.378907 16.722656 32.835938 17.9375c11.253906 27.972656 35.574219 20.066406 35.574219 20.066406s-1.828126 17.632813 9.425781 17.632813c-5.78125 20.066406 15.808593 22.808594 24.023437 18.855469 2.121094 4.253906 9.421875 17.328125 26.144532 9.125 10.03125 14.894531 26.449218 7.902344 26.449218 7.902344s3.652344 11.855468 17.941406 7.292968c14.292969-4.5625-15.503906-98.8125-15.199218-99.425781zm0 0" fill="none" stroke="#000" stroke-width="1.991349"/><path d="m342.09375 181.339844s22.195312 2.433594 19.457031 36.796875zm0 0" fill="#ffd600" fill-rule="evenodd"/><path d="m342.089844 181.339844s22.199218 2.433594 19.460937 36.796875" fill="none" stroke="#000" stroke-width="1.991349"/><path d="m257.570312 145.765625s-42.5625 29.191406 37.097657 38.316406zm0 0" fill="#ffd600" fill-rule="evenodd"/><path d="m257.570312 145.765625s-42.5625 29.191406 37.09375 38.316406" fill="none" stroke="#000" stroke-width="1.991349"/><path d="m269.734375 180.121094c-.308594.609375-20.066406 24.023437 16.417969 31.015625-17.335938 16.421875 15.199218 21.898437 15.199218 21.898437s-6.691406 17.328125 12.765626 21.886719c-6.382813 17.941406 14.597656 17.03125 14.597656 17.03125s.609375 21.890625 25.542968 21.585937c-.304687 14.898438 17.027344 15.808594 17.027344 15.808594s5.164063 16.117188 21.890625 11.253906c1.820313 11.246094 13.375 8.816407 13.375 8.816407zm0 0" fill="#ffd600" fill-rule="evenodd"/><path d="m269.734375 180.121094c-.308594.609375-20.066406 24.023437 16.417969 31.015625-17.335938 16.421875 15.199218 21.898437 15.199218 21.898437s-6.691406 17.328125 12.769532 21.886719c-6.386719 17.941406 14.59375 17.03125 14.59375 17.03125s.609375 21.890625 25.542968 21.585937c-.304687 14.898438 17.027344 15.808594 17.027344 15.808594s5.164063 16.117188 21.890625 11.253906c1.820313 11.246094 13.375 8.816407 13.375 8.816407" fill="none" stroke="#000" stroke-width="1.991349"/><path d="m401.6875 347.355469s.910156-15.507813-2.738281-18.546875zm0 0" fill="#f7f308" fill-rule="evenodd"/><path d="m401.6875 347.355469s.914062-15.507813-2.738281-18.546875" fill="none" stroke="#000" stroke-width="1.991349"/><path d="m374.015625 338.84375c.308594-.304688 7.304687-14.289062 4.863281-16.726562zm0 0" fill="#f7f308" fill-rule="evenodd"/><path d="m374.019531 338.84375c.304688-.304688 7.296875-14.289062 4.859375-16.726562" fill="none" stroke="#000" stroke-width="1.991349"/><path d="m348.480469 330.027344 18.851562-18.550782zm0 0" fill="#f7f308" fill-rule="evenodd"/><path d="m348.480469 330.027344 18.851562-18.550782" fill="none" stroke="#000" stroke-width="1.991349"/><path d="m324.761719 311.78125c.308593-.304688 28.582031-17.9375 28.582031-17.9375zm0 0" fill="#f7f308" fill-rule="evenodd"/><path d="m324.761719 311.78125c.308593-.304688 28.585937-17.9375 28.585937-17.9375" fill="none" stroke="#000" stroke-width="1.991349"/><path d="m314.726562 293.84375c.308594-.308594 16.117188-6.996094 16.726563-12.777344zm0 0" fill="#f7f308" fill-rule="evenodd"/><path d="m314.726562 293.84375c.3125-.308594 16.117188-6.996094 16.726563-12.777344" fill="none" stroke="#000" stroke-width="1.991349"/><path d="m279.769531 273.472656s38.308594 8.207032 44.992188-.609375zm0 0" fill="#ffd600" fill-rule="evenodd"/><path d="m279.769531 273.472656s38.308594 8.207032 44.992188-.609375" fill="none" stroke="#000" stroke-width="1.991349"/><path d="m247.84375 255.226562c1.511719 0 57.460938 6.082032 62.632812-.914062zm0 0" fill="#ffd600" fill-rule="evenodd"/><path d="m247.84375 255.226562c1.511719 0 57.460938 6.082032 62.632812-.914062" fill="none" stroke="#000" stroke-width="1.991349"/><path d="m210.746094 229.992188c.910156-.308594 66.28125 12.15625 84.832031 2.734374zm0 0" fill="#ffd600" fill-rule="evenodd"/><path d="m210.746094 229.992188c.910156-.308594 66.28125 12.15625 84.832031 2.734374" fill="none" stroke="#000" stroke-width="1.991349"/><path d="m179.429688 196.238281c1.523437 0 86.957031 20.679688 99.730468 14.285157zm0 0" fill="#ffd600" fill-rule="evenodd"/><path d="m179.429688 196.238281c1.523437 0 86.957031 20.679688 99.730468 14.285157" fill="none" stroke="#000" stroke-width="1.991349"/><path d="m146.898438 166.441406c.609374 0 101.855468 23.714844 114.625 13.988282zm0 0" fill="#ffd600" fill-rule="evenodd"/><path d="m146.898438 166.441406c.609374 0 101.855468 23.714844 114.625 13.988282" fill="none" stroke="#000" stroke-width="1.991349"/><path d="m133.828125 137.558594c.300781 0 96.988281 31.617187 105.195313 23.714844zm0 0" fill="#ffd600" fill-rule="evenodd"/><path d="m133.828125 137.558594c.300781 0 96.988281 31.617187 105.195313 23.714844" fill="none" stroke="#000" stroke-width="1.991349"/><path d="m646.8125 255.617188s20.070312 21.589843 30.101562 5.480468c10.035157-16.117187-13.984374-20.679687-14.285156-20.988281-.308594-.300781-13.988281-4.554687-15.207031-29.792969-1.210937-25.242187 30.101563-41.660156 38.917969-43.789062 8.816406-2.121094 34.660156-2.121094 34.660156-2.121094s94.554688-22.8125 104.285156-29.804688c9.726563-6.992187 99.121094-23.410156 99.121094-23.410156s14.285156-1.824218 13.074219 10.945313c-1.21875 12.773437-13.074219 14.292969-13.074219 14.292969s10.035156 7.90625 8.8125 14.898437c-1.21875 6.992187-8.8125 18.242187-24.628906 16.417969 1.828125 24.933594-32.835938 28.886718-32.835938 28.886718s-3.652344 35.882813-35.570312 34.054688c-7.601563 24.628906-36.183594 25.539062-36.183594 25.539062s-13.378906 16.726563-32.835938 17.941407c-11.246093 27.972656-35.570312 20.066406-35.570312 20.066406s1.824219 17.636719-9.425781 17.636719c5.773437 20.070312-15.808594 22.804687-24.019531 18.851562-2.128907 4.253906-9.425782 17.328125-26.148438 9.121094-10.03125 14.898438-26.449219 7.90625-26.449219 7.90625s-3.648437 11.863281-17.9375 7.292969c-14.289062-4.558594 15.507813-98.816407 15.199219-99.425781zm0 0" fill="#ffd600" fill-rule="evenodd"/><path d="m646.8125 255.617188s20.070312 21.589843 30.101562 5.480468c10.035157-16.117187-13.984374-20.679687-14.289062-20.988281-.304688-.300781-13.984375-4.554687-15.203125-29.792969-1.210937-25.242187 30.101563-41.660156 38.917969-43.789062 8.816406-2.121094 34.65625-2.121094 34.65625-2.121094s94.558594-22.8125 104.289062-29.804688c9.726563-6.992187 99.121094-23.410156 99.121094-23.410156s14.285156-1.820312 13.074219 10.945313c-1.21875 12.773437-13.074219 14.292969-13.074219 14.292969s10.03125 7.90625 8.8125 14.898437-8.8125 18.242187-24.628906 16.417969c1.828125 24.933594-32.835938 28.886718-32.835938 28.886718s-3.652344 35.882813-35.570312 34.054688c-7.601563 24.628906-36.183594 25.539062-36.183594 25.539062s-13.378906 16.726563-32.835938 17.941407c-11.246093 27.972656-35.570312 20.066406-35.570312 20.066406s1.824219 17.636719-9.425781 17.636719c5.777343 20.070312-15.808594 22.804687-24.019531 18.851562-2.128907 4.253906-9.425782 17.328125-26.148438 9.121094-10.03125 14.898438-26.449219 7.90625-26.449219 7.90625s-3.648437 11.863281-17.9375 7.292969c-14.289062-4.558594 15.507813-98.816407 15.199219-99.425781zm0 0" fill="none" stroke="#000" stroke-width="1.991349"/><path d="m708.839844 182.035156s-22.191406 2.4375-19.457032 36.796875zm0 0" fill="#ffd600" fill-rule="evenodd"/><path d="m708.839844 182.035156s-22.191406 2.4375-19.460938 36.796875" fill="none" stroke="#000" stroke-width="1.991349"/><path d="m793.363281 146.464844s42.566407 29.1875-37.089843 38.308594zm0 0" fill="#ffd600" fill-rule="evenodd"/><path d="m793.363281 146.464844s42.566407 29.1875-37.089843 38.308594" fill="none" stroke="#000" stroke-width="1.991349"/><path d="m781.203125 180.820312c.300781.605469 20.0625 24.023438-16.421875 31.015626 17.335938 16.417968-15.199219 21.890624-15.199219 21.890624s6.691407 17.332032-12.769531 21.890626c6.382812 17.941406-14.597656 17.027343-14.597656 17.027343s-.609375 21.890625-25.539063 21.589844c.308594 14.898437-17.027343 15.816406-17.027343 15.816406s-5.164063 16.109375-21.890626 11.246094c-1.820312 11.246094-13.375 8.816406-13.375 8.816406zm0 0" fill="#ffd600" fill-rule="evenodd"/><path d="m781.203125 180.820312c.300781.605469 20.0625 24.023438-16.421875 31.015626 17.335938 16.417968-15.199219 21.890624-15.199219 21.890624s6.691407 17.332032-12.769531 21.890626c6.382812 17.941406-14.59375 17.027343-14.59375 17.027343s-.613281 21.890625-25.542969 21.589844c.308594 14.898437-17.027343 15.816406-17.027343 15.816406s-5.164063 16.109375-21.890626 11.246094c-1.820312 11.246094-13.378906 8.816406-13.378906 8.816406" fill="none" stroke="#000" stroke-width="1.991349"/><path d="m649.25 348.050781s-.917969-15.507812 2.734375-18.546875zm0 0" fill="#f7f308" fill-rule="evenodd"/><path d="m649.25 348.050781s-.917969-15.507812 2.734375-18.546875" fill="none" stroke="#000" stroke-width="1.991349"/><path d="m676.914062 339.535156c-.308593-.300781-7.292968-14.285156-4.863281-16.71875zm0 0" fill="#f7f308" fill-rule="evenodd"/><path d="m676.914062 339.535156c-.304687-.300781-7.292968-14.285156-4.863281-16.71875" fill="none" stroke="#000" stroke-width="1.991349"/><path d="m702.457031 330.722656-18.855469-18.550781zm0 0" fill="#f7f308" fill-rule="evenodd"/><path d="m702.457031 330.722656-18.855469-18.550781" fill="none" stroke="#000" stroke-width="1.991349"/><path d="m726.167969 312.480469c-.300781-.308594-28.574219-17.9375-28.574219-17.9375zm0 0" fill="#ffd600" fill-rule="evenodd"/><path d="m726.167969 312.480469c-.300781-.308594-28.574219-17.9375-28.574219-17.9375" fill="none" stroke="#000" stroke-width="1.991349"/><path d="m736.203125 294.535156c-.308594-.300781-16.117187-6.992187-16.726563-12.765625zm0 0" fill="#f7f308" fill-rule="evenodd"/><path d="m736.203125 294.535156c-.308594-.300781-16.117187-6.992187-16.726563-12.765625" fill="none" stroke="#000" stroke-width="1.991349"/><path d="m771.167969 274.167969s-38.308594 8.210937-45-.609375zm0 0" fill="#ffd600" fill-rule="evenodd"/><path d="m771.171875 274.167969s-38.308594 8.210937-45.003906-.609375" fill="none" stroke="#000" stroke-width="1.991349"/><path d="m803.09375 255.925781c-1.519531 0-57.464844 6.074219-62.628906-.917969zm0 0" fill="#ffd600" fill-rule="evenodd"/><path d="m803.09375 255.925781c-1.519531 0-57.464844 6.074219-62.628906-.917969" fill="none" stroke="#000" stroke-width="1.991349"/><path d="m840.183594 230.6875c-.910156-.308594-66.28125 12.164062-84.828125 2.730469zm0 0" fill="#ffd600" fill-rule="evenodd"/><path d="m840.183594 230.6875c-.910156-.308594-66.28125 12.164062-84.828125 2.730469" fill="none" stroke="#000" stroke-width="1.991349"/><path d="m871.5 196.933594c-1.511719 0-86.953125 20.675781-99.722656 14.292968zm0 0" fill="#ffd600" fill-rule="evenodd"/><path d="m871.5 196.933594c-1.515625 0-86.953125 20.675781-99.722656 14.292968" fill="none" stroke="#000" stroke-width="1.991349"/><path d="m904.035156 167.136719c-.605468 0-101.851562 23.71875-114.625 13.988281zm0 0" fill="#ffd600" fill-rule="evenodd"/><path d="m904.035156 167.136719c-.601562 0-101.851562 23.71875-114.625 13.988281" fill="none" stroke="#000" stroke-width="1.991349"/><path d="m917.109375 138.253906c-.308594 0-96.992187 31.625-105.199219 23.710938zm0 0" fill="#ffd600" fill-rule="evenodd"/><path d="m917.109375 138.253906c-.308594 0-96.992187 31.625-105.199219 23.710938" fill="none" stroke="#000" stroke-width="1.991349"/><path d="m762.996094 292.472656s-5.945313 84.960938-6.234375 84.765625c-.285157-.191406-12.398438-14.839843-12.398438-14.839843l-37.378906 117.1875 8.738281 25.558593-21.757812 71.363281-17.953125-22.769531-28.988281 11.660157 23.273437-75.15625 21.496094-15.457032 38.722656-115.441406-21.492187 2.691406zm0 0" fill="#00cede" fill-rule="evenodd" stroke="#000" stroke-width="1.991275"/><path d="m845.597656 327.515625s-45.203125 72.175781-45.367187 71.875c-.164063-.308594-3.964844-18.9375-3.964844-18.9375l-74.285156 68.917969-79.324219 76.539062-.222656-15.761718-27.140625-3.355469 35.898437-27.46875 18.390625-3.027344 115.894531-105.050781-20.226562-7.734375zm0 0" fill="#00cede" fill-rule="evenodd" stroke="#000" stroke-width="1.991275"/><path d="m642.710938 510.023438c.492187-1.023438 41.242187-35.851563 41.242187-35.851563" fill="none" stroke="#000" stroke-width="2.033557"/><path d="m821.445312 266.453125s-22.09375 82.253906-22.339843 82.011719c-.246094-.25-9.328125-16.941406-9.328125-16.941406l-89.613282 153.949218 3.675782 26.757813-32.160156 58.929687-13.261719-25.785156-30.683594 5.898438 34.367187-62.367188 24.0625-11.050781 90.597657-151.984375-21.605469-1.472656zm0 0" fill="#00cede" fill-rule="evenodd" stroke="#000" stroke-width="1.991275"/><path d="m658.910156 544.398438c0-.492188 30.933594-54.511719 30.933594-54.511719" fill="none" stroke="#000" stroke-width="1.991275"/><path d="m50.511719 250.984375 54.011719.25-5.398438 13.007813 23.574219 93.304687 28.480469-93.054687-10.070313-13.507813h56.222656l-12.027343 13.015625-46.402344 133.324219 12.027344 17.433593h-54.011719l12.03125-17.433593-45.425781-132.832031zm0 0" fill="#00cede" fill-rule="evenodd" stroke="#000" stroke-width="1.991275"/><path d="m879.144531 254.175781h51.316407l-8.351563 11.542969-.246094 135.78125 11.542969 12.765625h-54.261719l10.804688-13.75-.246094-134.554687zm0 0" fill="#00cede" fill-rule="evenodd" stroke="#000" stroke-width="1.991275"/><path d="m474.609375 131.398438s6.582031 8.265624 9.03125 9.023437c2.453125.769531 16.222656 7.507813 15.460937 12.09375-.765624 4.589844-9.796874 6.890625-9.796874 6.890625" fill="none" stroke="#000" stroke-width="1.991275"/><path d="m485.476562 119.15625 13.777344 13.160156s2.445313 11.324219 12.242188 10.40625c9.792968-.925781 8.414062-5.050781 8.414062-5.050781s-11.78125-8.265625-21.117187-6.28125" fill="none" stroke="#000" stroke-width="1.991275"/><path d="m401.5 533.945312 18.394531-15.277343s-4.054687-8.421875-18.710937-8.109375c-13.71875-9.664063-37.410156-32.425782-37.410156-32.425782l-11.851563-32.117187s9.667969-2.804687 11.851563-10.597656c2.179687-7.800781-.621094-17.46875-1.558594-18.398438-.941406-.9375-10.601563 1.558594-13.410156 5.613281-2.804688 4.054688-7.171876 19.640626-13.71875 14.34375-6.546876-5.300781.9375-11.226562.9375-11.226562s6.546874-8.105469 6.230468-12.472656c-.304687-4.363282-8.730468-17.460938-9.660156-17.769532-.9375-.3125-2.804688 17.148438-5.300781 19.019532-2.496094 1.871094-5.925781 9.664062-10.914063 5.296875-4.984375-4.363281 2.492188-10.910157 2.492188-10.910157s14.03125-7.480468.3125-32.117187c-4.054688 10.605469-11.847656 17.460937-11.847656 17.460937s-3.742188 6.546876-7.171876.9375c-3.425781-5.613281 4.050782-10.914062 4.050782-10.914062s12.164062-7.167969 12.472656-17.773438c.316406-10.597656-14.648438-22.761718-14.648438-22.761718s-.9375 19.640625-5.617187 22.136718c-4.671875 2.5-6.546875 6.550782-11.84375 2.183594-5.300781-4.363281 4.050781-14.03125 4.050781-14.03125s16.214844-16.214844 15.277344-25.570312c-.9375-9.351563-1.867188-10.910156-1.867188-10.910156s-12.164062 7.484374-13.71875 11.226562c-1.558593 3.742188-6.546874 17.148438-12.785156 13.097656-4.367187-4.988281 3.742188-14.65625 3.742188-14.65625s5.925781-6.546875 5.609375-9.355468c-.308594-2.808594-4.988281-11.222657-14.023438-19.332032-1.253906-2.492187-1.875-12.472656-1.875-12.472656s-6.855469 8.105469-6.546875 12.472656c.3125 4.363282-.625 13.09375.3125 22.761719s-7.484375-3.117187-7.484375-3.117187l1.558594-31.179688s-11.847656-14.347656-26.1875-19.644531c5.300781 7.792969 4.988281 15.277343 4.988281 15.277343s-5.925781 12.78125-5.925781 16.214844c0 3.429688 6.859375 18.390625 19.640625 28.375-19.328125-20.894531-43.335938-14.03125-50.503906-18.089844 3.425781 4.058594 13.71875 19.332032 12.46875 23.382813-1.25 4.058594 18.394531 12.472656 18.394531 12.472656l20.890625.316407s10.292969 7.171874 11.222656 11.851562c.9375 4.671875-14.960937-8.730469-21.203125-8.421875-6.230469.3125-22.753906-2.183594-22.753906-2.183594s9.972656 9.359375 10.285156 13.410157c.3125 4.054687 4.675781 13.40625 10.601563 15.898437 5.925781 2.496094 21.824218 3.433594 21.824218 3.433594s6.859376-4.054688 8.109376.308593c1.246093 4.367188-9.046876 7.800782-9.046876 7.800782s-10.597656 0-14.03125-2.8125c-3.425781-2.804688-4.050781-7.476563-19.328124-9.351563-1.558594 12.785157 8.417968 25.878907 8.417968 25.878907s42.09375-3.433594 41.78125 5.613281c-.316406 9.042969-34.921875.9375-36.164062-1.875-1.253906-2.804688 1.558594 17.777343 9.65625 22.140625 8.109375 4.363281 26.199218 2.183594 28.382812 1.242187 2.179688-.929687 10.28125-1.867187 10.28125 2.8125 0 4.675781-41.152344 8.417969-41.773437 7.171875-.625-1.253906 6.230469 15.898438 22.761719 14.960938 16.523437-.929688 23.691406-5.921875 23.691406-5.921875s9.976562-1.867188 10.914062 2.179687c.9375 4.058594-9.976562 5.925782-9.976562 5.925782s-26.1875.621093-27.128906-.621094c-.933594-1.246094 5.925781 16.523437 24.324218 16.214844 13.71875-1.253907 14.648438-7.171876 17.460938-8.109376 4.050781-.933593 12.78125-.933593 14.027344-.621093 1.25.308593 23.074218 15.585937 23.074218 15.585937zm0 0" fill="#188400" fill-rule="evenodd"/><path d="m401.5 533.945312 18.394531-15.277343s-4.054687-8.421875-18.710937-8.109375c-13.71875-9.664063-37.410156-32.425782-37.410156-32.425782l-11.851563-32.117187s9.667969-2.804687 11.851563-10.597656c2.179687-7.800781-.621094-17.46875-1.558594-18.398438-.941406-.9375-10.601563 1.558594-13.410156 5.613281-2.804688 4.054688-7.171876 19.640626-13.71875 14.34375-6.546876-5.300781.9375-11.226562.9375-11.226562s6.546874-8.105469 6.230468-12.472656c-.304687-4.363282-8.730468-17.460938-9.660156-17.769532-.9375-.3125-2.804688 17.148438-5.300781 19.019532-2.496094 1.871094-5.925781 9.664062-10.914063 5.296875-4.984375-4.363281 2.492188-10.910157 2.492188-10.910157s14.03125-7.480468.3125-32.117187c-4.054688 10.605469-11.847656 17.460937-11.847656 17.460937s-3.742188 6.546876-7.171876.9375c-3.425781-5.613281 4.050782-10.914062 4.050782-10.914062s12.164062-7.167969 12.472656-17.773438c.316406-10.597656-14.648438-22.761718-14.648438-22.761718s-.9375 19.640625-5.617187 22.136718c-4.671875 2.5-6.546875 6.550782-11.84375 2.183594-5.300781-4.363281 4.050781-14.03125 4.050781-14.03125s16.214844-16.214844 15.277344-25.570312c-.9375-9.351563-1.867188-10.910156-1.867188-10.910156s-12.164062 7.484374-13.71875 11.226562c-1.558593 3.742188-6.546874 17.148438-12.785156 13.097656-4.367187-4.988281 3.742188-14.65625 3.742188-14.65625s5.925781-6.546875 5.609375-9.351562c-.308594-2.8125-4.988281-11.226563-14.023438-19.335938-1.253906-2.492187-1.875-12.472656-1.875-12.472656s-6.855469 8.105469-6.546875 12.472656c.3125 4.363282-.625 13.09375.3125 22.761719s-7.484375-3.117187-7.484375-3.117187l1.558594-31.179688s-11.847656-14.347656-26.1875-19.644531c5.300781 7.792969 4.988281 15.277343 4.988281 15.277343s-5.925781 12.78125-5.925781 16.214844c0 3.429688 6.859375 18.390625 19.640625 28.375-19.328125-20.894531-43.335938-14.03125-50.503906-18.089844 3.425781 4.058594 13.71875 19.332032 12.46875 23.382813-1.25 4.058594 18.394531 12.472656 18.394531 12.472656l20.890625.316407s10.292969 7.171874 11.222656 11.851562c.9375 4.671875-14.960937-8.730469-21.203125-8.421875-6.230469.3125-22.753906-2.183594-22.753906-2.183594s9.972656 9.359375 10.285156 13.410157c.3125 4.054687 4.675781 13.410156 10.601563 15.898437 5.925781 2.496094 21.824218 3.433594 21.824218 3.433594s6.859376-4.054688 8.109376.308593c1.246093 4.367188-9.046876 7.800782-9.046876 7.800782s-10.597656 0-14.03125-2.8125c-3.425781-2.804688-4.050781-7.476563-19.328124-9.351563-1.558594 12.785157 8.417968 25.882813 8.417968 25.882813s42.09375-3.4375 41.78125 5.609375c-.316406 9.042969-34.921875.9375-36.164062-1.875-1.253906-2.804688 1.558594 17.777343 9.65625 22.140625 8.109375 4.363281 26.199218 2.183594 28.382812 1.242187 2.179688-.929687 10.28125-1.867187 10.28125 2.8125 0 4.675781-41.152344 8.417969-41.773437 7.171875-.625-1.253906 6.230469 15.898438 22.761719 14.960938 16.523437-.929688 23.691406-5.921875 23.691406-5.921875s9.976562-1.867188 10.914062 2.179687c.9375 4.058594-9.976562 5.925782-9.976562 5.925782s-26.1875.621093-27.128906-.621094c-.933594-1.246094 5.925781 16.523437 24.324218 16.214844 13.71875-1.253907 14.648438-7.171876 17.460938-8.109376 4.050781-.933593 12.78125-.933593 14.027344-.621093 1.25.308593 23.074218 15.585937 23.074218 15.585937zm0 0" fill="none" stroke="#000" stroke-width="1.991275"/><path d="m240.613281 287.621094s-.621093 29.933594 14.347657 38.976562" fill="none" stroke="#000" stroke-width="1.991275"/><path d="m272.105469 311.316406s9.976562 15.28125-6.855469 20.894532" fill="none" stroke="#000" stroke-width="1.991275"/><path d="m220.347656 321.605469s-1.242187 17.152343 28.996094 15.90625" fill="none" stroke="#000" stroke-width="1.991275"/><path d="m295.179688 336.574219s-4.988282 12.160156-17.148438 11.535156" fill="none" stroke="#000" stroke-width="1.991275"/><path d="m306.40625 364.011719c0 1.558593 2.179688 18.085937-13.71875 17.773437" fill="none" stroke="#000" stroke-width="1.991275"/><path d="m230.324219 357.15625s19.957031 12.472656 29.003906 11.535156" fill="none" stroke="#000" stroke-width="1.991275"/><path d="m234.691406 387.394531s9.355469 9.984375 26.503906 7.484375" fill="none" stroke="#000" stroke-width="1.991275"/><path d="m317.003906 394.257812c0 1.246094-3.113281 10.910157-9.976562 12.164063" fill="none" stroke="#000" stroke-width="1.991275"/><path d="m250.28125 416.398438s7.484375 9.660156 27.128906 4.363281" fill="none" stroke="#000" stroke-width="1.991275"/><path d="m335.714844 412.339844s-3.121094 15.277344-11.226563 15.59375" fill="none" stroke="#000" stroke-width="1.991275"/><path d="m354.726562 428.871094s-6.230468 18.390625-22.132812 15.582031" fill="none" stroke="#000" stroke-width="1.991275"/><path d="m281.460938 461.605469s6.238281 5.613281 21.507812-1.25" fill="none" stroke="#000" stroke-width="1.991275"/><path d="m264.3125 442.894531c1.246094 0 9.039062 6.546875 27.75-3.425781" fill="none" stroke="#000" stroke-width="1.991275"/><path d="m401.464844 511.03125s-11.644532 5.210938-.347656 22.777344" fill="none" stroke="#000" stroke-width="1.991275"/><path d="m630.328125 357.816406s12.242187 11.757813 12.484375 14.203125c.25 2.449219 3.1875 13.960938 6.367188 15.675781 3.183593 1.710938 15.675781 11.753907 17.386718 15.671876 1.71875 3.917968 12.734375 20.566406 12.734375 20.566406s10.28125 21.066406 17.140625 22.777344c6.855469 1.71875 26.203125-1.226563 30.121094 8.078124 3.914062 9.308594 2.9375 22.777344 2.9375 22.777344s-4.65625 4.160156-6.855469 1.71875c-2.203125-2.453125-6.121093 12.242188-12.976562 8.082032-9.339844-19.894532-33.789063-16.640626-33.789063-16.640626s5.382813-8.339843-16.410156-15.6875c-34.042969 5.875-44.082031-29.628906-44.082031-29.628906l-19.375-16.804687zm0 0" fill="#ffd600" fill-rule="evenodd"/><path d="m630.328125 357.816406s12.242187 11.757813 12.484375 14.203125c.25 2.449219 3.1875 13.960938 6.367188 15.675781 3.183593 1.710938 15.675781 11.753907 17.386718 15.671876 1.71875 3.917968 12.734375 20.566406 12.734375 20.566406s10.28125 21.066406 17.140625 22.777344c6.855469 1.714843 26.203125-1.226563 30.121094 8.078124 3.914062 9.308594 2.9375 22.777344 2.9375 22.777344s-4.65625 4.160156-6.855469 1.71875c-2.203125-2.453125-6.121093 12.242188-12.976562 8.082032-9.339844-19.894532-33.789063-16.640626-33.789063-16.640626s5.382813-8.339843-16.410156-15.6875c-34.042969 5.875-44.082031-29.628906-44.082031-29.628906l-19.375-16.804687zm0 0" fill="none" stroke="#000" stroke-width="1.991275"/><path d="m610.738281 408.261719 15.179688 7.105469-1.226563-12.984376zm0 0" fill="#ffd600" fill-rule="evenodd"/><path d="m610.738281 408.261719 15.179688 7.105469-1.226563-12.984376" fill="none" stroke="#000" stroke-width="1.991275"/><path d="m632.28125 406.304688 13.960938 6.855468-5.628907-11.261718zm0 0" fill="#ffd600" fill-rule="evenodd"/><path d="m632.28125 406.304688 13.960938 6.855468-5.628907-11.261718" fill="none" stroke="#000" stroke-width="1.991275"/><path d="m631.546875 387.941406 13.71875 7.34375-6.371094-14.203125zm0 0" fill="#ffd600" fill-rule="evenodd"/><path d="m631.546875 387.941406 13.71875 7.34375-6.371094-14.203125" fill="none" stroke="#000" stroke-width="1.991275"/><path d="m653.347656 455.28125s-15.679687-20.570312-15.429687-20.570312c.242187 0 26.6875 5.144531 26.6875 5.144531l-9.789063-21.058594 24.242188 6.363281zm0 0" fill="#ffd600" fill-rule="evenodd"/><path d="m653.347656 455.28125s-15.679687-20.570312-15.429687-20.570312c.242187 0 26.6875 5.144531 26.6875 5.144531l-9.789063-21.058594 24.242188 6.363281" fill="none" stroke="#000" stroke-width="1.991275"/><path d="m698.398438 458.46875s15.429687 3.425781 14.9375 29.136719zm0 0" fill="#ffd600" fill-rule="evenodd"/><path d="m698.398438 458.46875s15.429687 3.425781 14.9375 29.136719" fill="none" stroke="#000" stroke-width="1.991275"/><path d="m706.480469 454.546875s16.652343-.976563 15.671875 24.980469zm0 0" fill="#ffd600" fill-rule="evenodd"/><g stroke="#000"><path d="m706.480469 454.546875s16.652343-.976563 15.671875 24.980469" fill="none" stroke-width="1.991275"/><path d="m419.296875 361s-12.242187 11.761719-12.484375 14.203125c-.25 2.453125-5.214844 12.441406-8.394531 14.152344-3.183594 1.714843-14.152344 12.773437-15.867188 16.691406-1.710937 3.914063-12.222656 21.078125-12.222656 21.078125s-12.0625 17.5-18.917969 19.21875c-8.382812.699219-24.425781 2.324219-28.34375 11.632812-3.921875 9.308594 2.140625 23.535157 6.710938 23.535157 6.855468 3.046875 9.980468 6.195312 12.1875 3.75 3.726562 1.101562 1.59375 4.292969 8.453125.132812-5.214844-6.679687-4.65625-13.136719.570312-14.828125 5.207031-1.78125 13.695313 6.148438 13.695313 6.148438s3.09375-14.417969 24.886718-21.765625c34.035157 5.878906 43.183594-21.589844 45.5625-28.144531 5.367188-7.300782 13.710938-9.246094 20.574219-13.875zm0 0" fill="#ffd600" fill-rule="evenodd" stroke-width="1.991275"/><path d="m439.488281 408.472656-15.777343 8.289063 1.226562-11.1875" fill="none" stroke-width="1.991275"/><path d="m418.53125 406.21875-14.851562 6.855469 6.824218-11.5625" fill="none" stroke-width="1.991275"/><path d="m418.972656 388.148438-12.820312 5.558593 4.582031-9.4375" fill="none" stroke-width="1.991275"/><path d="m396.878906 455.191406c2.382813-4.765625 14.484375-19.675781 14.234375-19.675781-.242187 0-24.90625 5.144531-24.90625 5.144531l8.007813-20.761718-21.558594 4.277343" fill="none" stroke-width="1.991275"/><path d="m352.246094 458.351562s-18.734375 3.425782-11.386719 26.601563" fill="none" stroke-width="1.991275"/><path d="m344.164062 455.199219s-20.460937.542969-13.390624 25.992187" fill="none" stroke-width="1.991275"/><path d="m569.566406 436.433594c0-.253906 6.855469 17.261718-7.871094 20.3125 37.828126-2.792969 48.492188 40.363281 48.492188 40.363281" fill="none" stroke-width="2.489128"/><path d="m560.933594 442.785156s3.296875 12.695313-7.617188 19.039063c39.609375 8.628906 48.742188 49.765625 48.742188 49.765625" fill="none" stroke-width="1.991275"/><path d="m552.550781 448.625c0 .503906 3.816407 16.503906-8.632812 19.039062 24.628906-6.601562 50.273437 55.859376 50.273437 55.859376" fill="none" stroke-width="1.991275"/><path d="m540.621094 455.726562s6.34375 12.1875-5.335938 16c22.089844 2.28125 29.203125 74.902344 29.203125 74.902344" fill="none" stroke-width="1.991275"/><path d="m533.007812 460.046875s3.550782 13.457031-7.875 17.519531c23.105469-12.191406 18.785157 81.753906 18.785157 81.753906" fill="none" stroke-width="1.991275"/><path d="m517.773438 460.808594s-4.820313 14.214844 5.839843 17.007812c-21.078125-5.832031-17.011719 81.503906-17.011719 81.503906" fill="none" stroke-width="1.991275"/><path d="m507.871094 455.222656s-3.300782 12.945313 9.648437 19.550782c-21.582031-13.710938-30.472656 72.871093-30.472656 72.871093" fill="none" stroke-width="1.991275"/><path d="m542.144531 467.160156s39.347657 37.828125 39.101563 65.757813" fill="none" stroke-width="1.991275"/><path d="m479.945312 436.6875c0 .257812-4.824218 20.3125 9.140626 20.816406" fill="none" stroke-width="1.991275"/><path d="m489.847656 444.046875c0 .511719-3.8125 17.015625 7.359375 17.777344" fill="none" stroke-width="1.991275"/><path d="m498.726562 448.871094s-6.847656 16.503906 9.90625 18.792968" fill="none" stroke-width="1.991275"/><path d="m507.359375 467.917969c-.25 0-32.75 30.214843-37.828125 65.246093" fill="none" stroke-width="1.991275"/><path d="m501.273438 464.871094c-.257813 0-41.382813 25.640625-44.183594 58.398437" fill="none" stroke-width="1.991275"/><path d="m492.128906 460.550781s-45.695312 26.664063-43.671875 50.78125" fill="none" stroke-width="1.991275"/><path d="m481.210938 454.714844s-34.019532 6.347656-42.402344 42.90625" fill="none" stroke-width="1.991275"/><path d="m409.460938 220.789062s32.902343 18.167969 56.46875 17.1875c23.570312-.984374 58.929687-16.210937 58.929687-16.210937s31.421875 17.675781 56.960937 15.226563c25.527344-2.457032 60.890626-16.203126 60.890626-16.203126 21.109374 105.410157-27.011719 200.023438-117.851563 242.582032-96.410156-44.03125-143.21875-149.941406-115.398437-242.582032zm0 0" fill="none" stroke-width="1.991275"/></g><path d="m409.460938 220.789062s32.902343 18.167969 56.46875 17.1875c23.570312-.984374 58.929687-16.210937 58.929687-16.210937s31.421875 17.683594 56.957031 15.226563c25.53125-2.453126 60.886719-16.203126 60.886719-16.203126 21.117187 105.410157-27.003906 200.023438-117.84375 242.582032-96.410156-44.03125-143.21875-149.941406-115.398437-242.582032zm0 0" fill="#fff" fill-rule="evenodd"/><path d="m409.460938 220.789062s32.902343 18.167969 56.46875 17.1875c23.570312-.984374 58.929687-16.210937 58.929687-16.210937s31.421875 17.683594 56.957031 15.226563c25.535156-2.453126 60.886719-16.203126 60.886719-16.203126 21.117187 105.410157-27.003906 200.023438-117.84375 242.582032-96.410156-44.03125-143.21875-149.941406-115.398437-242.582032zm0 0" fill="none" stroke="#000" stroke-width="1.991349"/><path d="m421.585938 297.394531v65.90625l18.691406 31.519531v-97.425781zm0 0" fill="#be0a2f" fill-rule="evenodd"/><path d="m458.972656 297.394531v119.335938l18.691406 17.402343v-136.738281zm0 0" fill="#be0a2f" fill-rule="evenodd"/><path d="m496.355469 297.394531v150.863281l18.691406 10.378907v-161.242188zm0 0" fill="#be0a2f" fill-rule="evenodd"/><path d="m627.207031 297.394531v65.925781l-18.691406 31.789063v-97.714844zm0 0" fill="#be0a2f" fill-rule="evenodd"/><path d="m589.824219 297.394531v119.925781l-18.691407 17.046876v-136.972657zm0 0" fill="#be0a2f" fill-rule="evenodd"/><path d="m552.433594 297.394531v150.574219l-18.695313 11.136719v-161.710938zm0 0" fill="#be0a2f" fill-rule="evenodd"/><path d="m409.460938 220.789062s8.226562 4.542969 19.394531 8.960938c11.175781 4.417969 25.292969 8.714844 37.074219 8.226562 23.570312-.984374 58.921874-16.210937 58.921874-16.210937s31.429688 17.675781 56.964844 15.226563c25.53125-2.457032 60.886719-16.207032 60.886719-16.207032 5.15625 30.613282 7.734375 46.242188 3.191406 76.609375h-243c-3.085937-30.308593-2.921875-44.039062 6.566407-76.605469zm0 0" fill="#002768" fill-rule="evenodd"/><path d="m409.460938 220.789062s8.226562 4.542969 19.394531 8.960938c11.175781 4.417969 25.292969 8.714844 37.074219 8.226562 23.570312-.984374 58.921874-16.210937 58.921874-16.210937s31.429688 17.675781 56.964844 15.226563c25.535156-2.457032 60.886719-16.207032 60.886719-16.207032 5.15625 30.613282 7.734375 46.242188 3.191406 76.609375h-243c-3.085937-30.308593-2.921875-44.039062 6.566407-76.605469zm0 0" fill="none" stroke="#000" stroke-width="1.991349"/><path d="m409.460938 220.789062s32.902343 18.167969 56.46875 17.1875c23.570312-.984374 58.929687-16.210937 58.929687-16.210937s31.421875 17.675781 56.960937 15.226563c25.527344-2.457032 60.890626-16.203126 60.890626-16.203126 21.109374 105.410157-27.011719 200.023438-117.851563 242.582032-96.410156-44.03125-143.21875-149.941406-115.398437-242.582032zm0 0" fill="none" stroke="#000" stroke-width="1.991275"/></svg>