<?xml version="1.0" encoding="UTF-8"?>
<svg xmlns="http://www.w3.org/2000/svg" xmlns:xlink="http://www.w3.org/1999/xlink" width="128pt" height="85pt" viewBox="0 0 128 85" version="1.1">
<defs>
<clipPath id="clip1">
  <path d="M 0 0 L 127.679688 0 L 127.679688 85 L 0 85 Z M 0 0 "/>
</clipPath>
<clipPath id="clip2">
  <path d="M 47 9 L 127.679688 9 L 127.679688 19 L 47 19 Z M 47 9 "/>
</clipPath>
<clipPath id="clip3">
  <path d="M 47 28 L 127.679688 28 L 127.679688 38 L 47 38 Z M 47 28 "/>
</clipPath>
<clipPath id="clip4">
  <path d="M 0 47 L 127.679688 47 L 127.679688 57 L 0 57 Z M 0 47 "/>
</clipPath>
<clipPath id="clip5">
  <path d="M 0 66 L 127.679688 66 L 127.679688 76 L 0 76 Z M 0 66 "/>
</clipPath>
</defs>
<g id="surface1182">
<g clip-path="url(#clip1)" clip-rule="nonzero">
<path style=" stroke:none;fill-rule:evenodd;fill:rgb(99.998474%,99.998474%,99.998474%);fill-opacity:1;" d="M 0 85 L 0 0 L 127.5 0 L 127.5 85 Z M 0 85 "/>
</g>
<g clip-path="url(#clip2)" clip-rule="nonzero">
<path style=" stroke:none;fill-rule:evenodd;fill:rgb(0%,21.960449%,65.881348%);fill-opacity:1;" d="M 47.222656 9.445312 L 127.5 9.445312 L 127.5 18.890625 L 47.222656 18.890625 Z M 47.222656 9.445312 "/>
</g>
<g clip-path="url(#clip3)" clip-rule="nonzero">
<path style=" stroke:none;fill-rule:evenodd;fill:rgb(0%,21.960449%,65.881348%);fill-opacity:1;" d="M 47.222656 28.332031 L 127.5 28.332031 L 127.5 37.777344 L 47.222656 37.777344 Z M 47.222656 28.332031 "/>
</g>
<g clip-path="url(#clip4)" clip-rule="nonzero">
<path style=" stroke:none;fill-rule:evenodd;fill:rgb(0%,21.960449%,65.881348%);fill-opacity:1;" d="M 0 47.222656 L 127.5 47.222656 L 127.5 56.667969 L 0 56.667969 Z M 0 47.222656 "/>
</g>
<g clip-path="url(#clip5)" clip-rule="nonzero">
<path style=" stroke:none;fill-rule:evenodd;fill:rgb(0%,21.960449%,65.881348%);fill-opacity:1;" d="M 0 66.109375 L 127.5 66.109375 L 127.5 75.554688 L 0 75.554688 Z M 0 66.109375 "/>
</g>
<path style=" stroke:none;fill-rule:evenodd;fill:rgb(98.822021%,81.959534%,8.627319%);fill-opacity:1;" d="M 22.542969 28.226562 L 24.105469 30.5625 C 17.683594 35.210938 21.601562 37.960938 17.050781 39.449219 C 19.882812 36.683594 16.605469 36.453125 18.992188 30.695312 Z M 22.542969 28.226562 "/>
<path style="fill:none;stroke-width:0.262079;stroke-linecap:round;stroke-linejoin:miter;stroke:rgb(0%,0%,0%);stroke-opacity:1;stroke-miterlimit:20;" d="M 22.542969 28.226562 L 24.105469 30.5625 C 17.683594 35.210938 21.601562 37.960938 17.050781 39.449219 C 19.882812 36.683594 16.605469 36.453125 18.992188 30.695312 "/>
<path style="fill:none;stroke-width:0.262079;stroke-linecap:butt;stroke-linejoin:miter;stroke:rgb(0%,0%,0%);stroke-opacity:1;stroke-miterlimit:20;" d="M 21.425781 28.890625 C 17.878906 34.730469 20.203125 37.941406 17.050781 39.449219 "/>
<path style=" stroke:none;fill-rule:evenodd;fill:rgb(98.822021%,81.959534%,8.627319%);fill-opacity:1;" d="M 23.609375 23.609375 L 26.726562 23.609375 L 23.609375 40.753906 L 20.496094 23.609375 L 23.609375 23.609375 L 23.609375 40.753906 Z M 23.609375 23.609375 "/>
<path style="fill:none;stroke-width:0.311667;stroke-linecap:butt;stroke-linejoin:miter;stroke:rgb(0%,0%,0%);stroke-opacity:1;stroke-miterlimit:20;" d="M 23.609375 23.609375 L 26.726562 23.609375 L 23.609375 40.753906 L 20.496094 23.609375 L 23.609375 23.609375 L 23.609375 40.753906 "/>
<path style=" stroke:none;fill-rule:evenodd;fill:rgb(98.822021%,81.959534%,8.627319%);fill-opacity:1;" d="M 19.589844 26.121094 L 19.042969 28.875 C 11.214844 27.621094 12.046875 32.335938 7.773438 30.171875 C 11.730469 30.21875 9.578125 27.738281 15.335938 25.351562 Z M 19.589844 26.121094 "/>
<path style="fill:none;stroke-width:0.262079;stroke-linecap:round;stroke-linejoin:miter;stroke:rgb(0%,0%,0%);stroke-opacity:1;stroke-miterlimit:20;" d="M 19.589844 26.121094 L 19.042969 28.875 C 11.214844 27.621094 12.046875 32.335938 7.773438 30.171875 C 11.730469 30.21875 9.578125 27.738281 15.335938 25.351562 "/>
<path style="fill:none;stroke-width:0.262079;stroke-linecap:butt;stroke-linejoin:miter;stroke:rgb(0%,0%,0%);stroke-opacity:1;stroke-miterlimit:20;" d="M 18.332031 25.796875 C 11.695312 27.421875 11.066406 31.335938 7.773438 30.171875 "/>
<path style=" stroke:none;fill-rule:evenodd;fill:rgb(98.822021%,81.959534%,8.627319%);fill-opacity:1;" d="M 23.609375 23.609375 L 25.816406 25.816406 L 11.492188 35.730469 L 21.40625 21.40625 L 23.609375 23.609375 L 11.492188 35.730469 Z M 23.609375 23.609375 "/>
<path style="fill:none;stroke-width:1;stroke-linecap:butt;stroke-linejoin:miter;stroke:rgb(0%,0%,0%);stroke-opacity:1;stroke-miterlimit:20;" d="M 23.609375 23.609375 L 25.816406 25.816406 L 11.492188 35.730469 L 21.40625 21.40625 L 23.609375 23.609375 L 11.492188 35.730469 "/>
<path style=" stroke:none;fill-rule:evenodd;fill:rgb(98.822021%,81.959534%,8.627319%);fill-opacity:1;" d="M 18.992188 22.542969 L 16.660156 24.105469 C 12.011719 17.683594 9.261719 21.601562 7.773438 17.050781 C 10.539062 19.882812 10.769531 16.605469 16.527344 18.992188 Z M 18.992188 22.542969 "/>
<path style="fill:none;stroke-width:0.262079;stroke-linecap:round;stroke-linejoin:miter;stroke:rgb(0%,0%,0%);stroke-opacity:1;stroke-miterlimit:20;" d="M 18.992188 22.542969 L 16.660156 24.105469 C 12.011719 17.683594 9.261719 21.605469 7.773438 17.050781 C 10.539062 19.882812 10.769531 16.605469 16.527344 18.992188 "/>
<path style="fill:none;stroke-width:0.262079;stroke-linecap:butt;stroke-linejoin:miter;stroke:rgb(0%,0%,0%);stroke-opacity:1;stroke-miterlimit:20;" d="M 18.332031 21.425781 C 12.492188 17.878906 9.28125 20.203125 7.773438 17.050781 "/>
<path style=" stroke:none;fill-rule:evenodd;fill:rgb(98.822021%,81.959534%,8.627319%);fill-opacity:1;" d="M 23.609375 23.609375 L 23.609375 26.726562 L 6.46875 23.609375 L 23.609375 20.496094 L 23.609375 23.609375 L 6.46875 23.609375 Z M 23.609375 23.609375 "/>
<path style="fill:none;stroke-width:0.311667;stroke-linecap:butt;stroke-linejoin:miter;stroke:rgb(0%,0%,0%);stroke-opacity:1;stroke-miterlimit:20;" d="M 23.609375 23.609375 L 23.609375 26.726562 L 6.46875 23.609375 L 23.609375 20.496094 L 23.609375 23.609375 L 6.46875 23.609375 "/>
<path style=" stroke:none;fill-rule:evenodd;fill:rgb(98.822021%,81.959534%,8.627319%);fill-opacity:1;" d="M 21.101562 19.589844 L 18.347656 19.042969 C 19.601562 11.214844 14.882812 12.046875 17.050781 7.773438 C 17.003906 11.730469 19.484375 9.578125 21.871094 15.335938 Z M 21.101562 19.589844 "/>
<path style="fill:none;stroke-width:0.262079;stroke-linecap:round;stroke-linejoin:miter;stroke:rgb(0%,0%,0%);stroke-opacity:1;stroke-miterlimit:20;" d="M 21.101562 19.589844 L 18.347656 19.042969 C 19.601562 11.214844 14.882812 12.046875 17.050781 7.773438 C 17.003906 11.730469 19.484375 9.578125 21.871094 15.335938 "/>
<path style="fill:none;stroke-width:0.262079;stroke-linecap:butt;stroke-linejoin:miter;stroke:rgb(0%,0%,0%);stroke-opacity:1;stroke-miterlimit:20;" d="M 21.425781 18.332031 C 19.800781 11.695312 15.886719 11.070312 17.050781 7.773438 "/>
<path style=" stroke:none;fill-rule:evenodd;fill:rgb(98.822021%,81.959534%,8.627319%);fill-opacity:1;" d="M 23.609375 23.609375 L 21.40625 25.816406 L 11.492188 11.492188 L 25.816406 21.40625 L 23.609375 23.609375 L 11.492188 11.492188 Z M 23.609375 23.609375 "/>
<path style="fill:none;stroke-width:1;stroke-linecap:butt;stroke-linejoin:miter;stroke:rgb(0%,0%,0%);stroke-opacity:1;stroke-miterlimit:20;" d="M 23.609375 23.609375 L 21.40625 25.816406 L 11.492188 11.492188 L 25.816406 21.40625 L 23.609375 23.609375 L 11.492188 11.492188 "/>
<path style=" stroke:none;fill-rule:evenodd;fill:rgb(98.822021%,81.959534%,8.627319%);fill-opacity:1;" d="M 24.679688 18.992188 L 23.117188 16.660156 C 29.539062 12.011719 25.617188 9.261719 30.171875 7.773438 C 27.339844 10.539062 30.617188 10.769531 28.230469 16.527344 Z M 24.679688 18.992188 "/>
<path style="fill:none;stroke-width:0.262079;stroke-linecap:round;stroke-linejoin:miter;stroke:rgb(0%,0%,0%);stroke-opacity:1;stroke-miterlimit:20;" d="M 24.679688 18.992188 L 23.117188 16.660156 C 29.539062 12.011719 25.617188 9.261719 30.171875 7.773438 C 27.339844 10.535156 30.617188 10.769531 28.230469 16.527344 "/>
<path style="fill:none;stroke-width:0.262079;stroke-linecap:butt;stroke-linejoin:miter;stroke:rgb(0%,0%,0%);stroke-opacity:1;stroke-miterlimit:20;" d="M 25.796875 18.332031 C 29.34375 12.492188 27.019531 9.28125 30.171875 7.773438 "/>
<path style=" stroke:none;fill-rule:evenodd;fill:rgb(98.822021%,81.959534%,8.627319%);fill-opacity:1;" d="M 23.609375 23.609375 L 20.496094 23.609375 L 23.609375 6.46875 L 26.726562 23.609375 L 23.609375 23.609375 L 23.609375 6.46875 Z M 23.609375 23.609375 "/>
<path style="fill:none;stroke-width:0.311667;stroke-linecap:butt;stroke-linejoin:miter;stroke:rgb(0%,0%,0%);stroke-opacity:1;stroke-miterlimit:20;" d="M 23.609375 23.609375 L 20.496094 23.609375 L 23.609375 6.46875 L 26.726562 23.609375 L 23.609375 23.609375 L 23.609375 6.46875 "/>
<path style=" stroke:none;fill-rule:evenodd;fill:rgb(98.822021%,81.959534%,8.627319%);fill-opacity:1;" d="M 27.632812 21.101562 L 28.175781 18.347656 C 36.007812 19.601562 35.175781 14.882812 39.449219 17.050781 C 35.492188 17.003906 37.644531 19.484375 31.886719 21.871094 Z M 27.632812 21.101562 "/>
<path style="fill:none;stroke-width:0.262079;stroke-linecap:round;stroke-linejoin:miter;stroke:rgb(0%,0%,0%);stroke-opacity:1;stroke-miterlimit:20;" d="M 27.632812 21.101562 L 28.175781 18.347656 C 36.007812 19.601562 35.175781 14.882812 39.449219 17.050781 C 35.492188 17.003906 37.644531 19.484375 31.886719 21.871094 "/>
<path style="fill:none;stroke-width:0.262079;stroke-linecap:butt;stroke-linejoin:miter;stroke:rgb(0%,0%,0%);stroke-opacity:1;stroke-miterlimit:20;" d="M 28.890625 21.425781 C 35.527344 19.800781 36.152344 15.886719 39.449219 17.050781 "/>
<path style=" stroke:none;fill-rule:evenodd;fill:rgb(98.822021%,81.959534%,8.627319%);fill-opacity:1;" d="M 23.609375 23.609375 L 21.40625 21.40625 L 35.730469 11.492188 L 25.816406 25.816406 L 23.609375 23.609375 L 35.730469 11.492188 Z M 23.609375 23.609375 "/>
<path style="fill:none;stroke-width:1;stroke-linecap:butt;stroke-linejoin:miter;stroke:rgb(0%,0%,0%);stroke-opacity:1;stroke-miterlimit:20;" d="M 23.609375 23.609375 L 21.40625 21.40625 L 35.730469 11.492188 L 25.816406 25.816406 L 23.609375 23.609375 L 35.730469 11.492188 "/>
<path style=" stroke:none;fill-rule:evenodd;fill:rgb(98.822021%,81.959534%,8.627319%);fill-opacity:1;" d="M 28.226562 24.679688 L 30.5625 23.117188 C 35.210938 29.539062 37.960938 25.617188 39.449219 30.171875 C 36.683594 27.339844 36.453125 30.617188 30.695312 28.230469 Z M 28.226562 24.679688 "/>
<path style="fill:none;stroke-width:0.262079;stroke-linecap:round;stroke-linejoin:miter;stroke:rgb(0%,0%,0%);stroke-opacity:1;stroke-miterlimit:20;" d="M 28.226562 24.679688 L 30.5625 23.117188 C 35.210938 29.539062 37.960938 25.617188 39.449219 30.171875 C 36.683594 27.339844 36.453125 30.617188 30.695312 28.230469 "/>
<path style="fill:none;stroke-width:0.262079;stroke-linecap:butt;stroke-linejoin:miter;stroke:rgb(0%,0%,0%);stroke-opacity:1;stroke-miterlimit:20;" d="M 28.890625 25.796875 C 34.730469 29.34375 37.941406 27.019531 39.449219 30.171875 "/>
<path style=" stroke:none;fill-rule:evenodd;fill:rgb(98.822021%,81.959534%,8.627319%);fill-opacity:1;" d="M 23.609375 23.609375 L 23.609375 20.496094 L 40.753906 23.609375 L 23.609375 26.726562 L 23.609375 23.609375 L 40.753906 23.609375 Z M 23.609375 23.609375 "/>
<path style="fill:none;stroke-width:0.311667;stroke-linecap:butt;stroke-linejoin:miter;stroke:rgb(0%,0%,0%);stroke-opacity:1;stroke-miterlimit:20;" d="M 23.609375 23.609375 L 23.609375 20.496094 L 40.753906 23.609375 L 23.609375 26.726562 L 23.609375 23.609375 L 40.753906 23.609375 "/>
<path style=" stroke:none;fill-rule:evenodd;fill:rgb(98.822021%,81.959534%,8.627319%);fill-opacity:1;" d="M 26.121094 27.632812 L 28.875 28.175781 C 27.621094 36.007812 32.335938 35.175781 30.171875 39.449219 C 30.21875 35.492188 27.738281 37.644531 25.351562 31.886719 Z M 26.121094 27.632812 "/>
<path style="fill:none;stroke-width:0.262079;stroke-linecap:round;stroke-linejoin:miter;stroke:rgb(0%,0%,0%);stroke-opacity:1;stroke-miterlimit:20;" d="M 26.121094 27.632812 L 28.875 28.175781 C 27.621094 36.007812 32.335938 35.175781 30.171875 39.449219 C 30.21875 35.492188 27.738281 37.644531 25.351562 31.886719 "/>
<path style="fill:none;stroke-width:0.262079;stroke-linecap:butt;stroke-linejoin:miter;stroke:rgb(0%,0%,0%);stroke-opacity:1;stroke-miterlimit:20;" d="M 25.796875 28.890625 C 27.421875 35.527344 31.335938 36.152344 30.171875 39.449219 "/>
<path style=" stroke:none;fill-rule:evenodd;fill:rgb(98.822021%,81.959534%,8.627319%);fill-opacity:1;" d="M 23.609375 23.609375 L 25.816406 21.40625 L 35.730469 35.730469 L 21.40625 25.816406 L 23.609375 23.609375 L 35.730469 35.730469 Z M 23.609375 23.609375 "/>
<path style="fill:none;stroke-width:1;stroke-linecap:butt;stroke-linejoin:miter;stroke:rgb(0%,0%,0%);stroke-opacity:1;stroke-miterlimit:20;" d="M 23.609375 23.609375 L 25.816406 21.40625 L 35.730469 35.730469 L 21.40625 25.816406 L 23.609375 23.609375 L 35.730469 35.730469 "/>
<path style="fill-rule:evenodd;fill:rgb(98.822021%,81.959534%,8.627319%);fill-opacity:1;stroke-width:0.311667;stroke-linecap:butt;stroke-linejoin:miter;stroke:rgb(0%,0%,0%);stroke-opacity:1;stroke-miterlimit:20;" d="M 29.324219 23.609375 C 29.324219 26.765625 26.765625 29.324219 23.609375 29.324219 C 20.457031 29.324219 17.898438 26.765625 17.898438 23.609375 C 17.898438 20.457031 20.457031 17.898438 23.609375 17.898438 C 26.765625 17.898438 29.324219 20.457031 29.324219 23.609375 Z M 29.324219 23.609375 "/>
<path style=" stroke:none;fill-rule:evenodd;fill:rgb(0%,0%,0%);fill-opacity:1;" d="M 27.820312 21.324219 C 27.453125 21.742188 27.246094 21.015625 25.949219 21.015625 C 24.648438 21.015625 24.441406 21.792969 24.234375 21.636719 C 24.027344 21.480469 25.324219 20.546875 25.742188 20.496094 C 26.15625 20.441406 27.351562 20.859375 27.820312 21.324219 Z M 26.3125 21.792969 C 26.675781 22.105469 26.363281 22.78125 26 22.78125 C 25.636719 22.78125 24.960938 22.15625 25.273438 21.742188 Z M 26.3125 21.792969 "/>
<path style=" stroke:none;fill-rule:evenodd;fill:rgb(0%,0%,0%);fill-opacity:1;" d="M 24.597656 22.261719 C 24.648438 21.636719 25.167969 21.535156 26 21.535156 C 26.832031 21.535156 27.195312 22.15625 27.507812 22.3125 C 27.144531 22.3125 26.832031 21.792969 26 21.792969 C 25.167969 21.792969 25.167969 21.792969 24.597656 22.3125 Z M 24.753906 22.417969 C 24.960938 22.105469 25.222656 22.726562 25.792969 22.726562 C 26.363281 22.726562 26.675781 22.570312 27.039062 22.3125 C 27.402344 22.054688 26.519531 22.9375 25.949219 22.9375 C 25.378906 22.9375 24.597656 22.625 24.753906 22.417969 Z M 24.753906 22.417969 "/>
<path style=" stroke:none;fill-rule:evenodd;fill:rgb(0%,0%,0%);fill-opacity:1;" d="M 26.519531 22.726562 C 27.195312 22.363281 26.78125 21.84375 26.519531 21.742188 C 26.625 21.84375 27.039062 22.363281 26.519531 22.726562 Z M 23.609375 25.84375 C 23.921875 25.84375 24.027344 25.742188 24.441406 25.742188 C 24.859375 25.742188 25.84375 26.3125 26.414062 26.105469 C 25.222656 26.570312 25.6875 26.261719 23.609375 26.261719 L 23.351562 26.261719 Z M 26.625 26.570312 C 26.414062 26.207031 26.46875 26.3125 26.050781 25.742188 C 26.46875 26.050781 26.570312 26.207031 26.625 26.570312 Z M 23.609375 27.089844 C 24.910156 27.089844 24.703125 26.832031 26.414062 26.105469 C 25.167969 26.261719 24.910156 26.675781 23.609375 26.675781 L 23.351562 26.675781 Z M 23.609375 25.167969 C 23.976562 25.167969 24.078125 24.910156 24.496094 24.910156 C 24.910156 24.910156 25.480469 25.066406 25.742188 25.273438 C 25.792969 25.324219 25.585938 24.859375 25.167969 24.804688 C 24.753906 24.753906 24.910156 24.078125 24.441406 23.976562 C 24.441406 24.183594 24.597656 24.128906 24.648438 24.441406 C 24.648438 24.703125 24.183594 24.703125 24.078125 24.441406 C 24.183594 24.859375 23.871094 24.859375 23.609375 24.859375 Z M 23.609375 25.167969 "/>
<path style=" stroke:none;fill-rule:evenodd;fill:rgb(0%,0%,0%);fill-opacity:1;" d="M 19.402344 21.324219 C 19.765625 21.742188 19.976562 21.015625 21.273438 21.015625 C 22.570312 21.015625 22.78125 21.792969 22.988281 21.636719 C 23.195312 21.480469 21.898438 20.546875 21.480469 20.496094 C 21.066406 20.441406 19.871094 20.859375 19.402344 21.324219 Z M 20.910156 21.792969 C 20.546875 22.105469 20.859375 22.78125 21.222656 22.78125 C 21.585938 22.78125 22.261719 22.15625 21.949219 21.742188 Z M 20.910156 21.792969 "/>
<path style=" stroke:none;fill-rule:evenodd;fill:rgb(0%,0%,0%);fill-opacity:1;" d="M 22.625 22.261719 C 22.570312 21.636719 22.054688 21.535156 21.222656 21.535156 C 20.390625 21.535156 20.027344 22.15625 19.714844 22.3125 C 20.078125 22.3125 20.390625 21.792969 21.222656 21.792969 C 22.054688 21.792969 22.054688 21.792969 22.625 22.3125 Z M 22.46875 22.417969 C 22.261719 22.105469 22 22.726562 21.429688 22.726562 C 20.859375 22.726562 20.546875 22.570312 20.183594 22.3125 C 19.820312 22.054688 20.703125 22.9375 21.273438 22.9375 C 21.84375 22.9375 22.625 22.625 22.46875 22.417969 Z M 22.46875 22.417969 "/>
<path style=" stroke:none;fill-rule:evenodd;fill:rgb(0%,0%,0%);fill-opacity:1;" d="M 20.703125 22.726562 C 20.027344 22.363281 20.441406 21.84375 20.703125 21.742188 C 20.597656 21.84375 20.183594 22.363281 20.703125 22.726562 Z M 23.609375 25.84375 C 23.300781 25.84375 23.195312 25.742188 22.78125 25.742188 C 22.363281 25.742188 21.378906 26.3125 20.804688 26.105469 C 22 26.570312 21.535156 26.261719 23.609375 26.261719 L 23.871094 26.261719 Z M 20.597656 26.570312 C 20.804688 26.207031 20.753906 26.3125 21.167969 25.742188 C 20.753906 26.050781 20.648438 26.207031 20.597656 26.570312 Z M 23.609375 27.089844 C 22.3125 27.089844 22.519531 26.832031 20.804688 26.105469 C 22.054688 26.261719 22.3125 26.675781 23.609375 26.675781 L 23.871094 26.675781 Z M 23.609375 25.167969 C 23.246094 25.167969 23.144531 24.910156 22.726562 24.910156 C 22.3125 24.910156 21.742188 25.066406 21.480469 25.273438 C 21.429688 25.324219 21.636719 24.859375 22.054688 24.804688 C 22.46875 24.753906 22.3125 24.078125 22.78125 23.976562 C 22.78125 24.183594 22.625 24.128906 22.570312 24.441406 C 22.570312 24.703125 23.039062 24.703125 23.144531 24.441406 C 23.039062 24.859375 23.351562 24.859375 23.609375 24.859375 Z M 23.609375 25.167969 "/>
<path style=" stroke:none;fill-rule:evenodd;fill:rgb(0%,0%,0%);fill-opacity:1;" d="M 23.609375 27.558594 C 23.351562 27.558594 22.675781 27.714844 23.609375 27.714844 C 24.546875 27.714844 23.871094 27.558594 23.609375 27.558594 Z M 23.609375 27.558594 "/>
</g>
</svg>
