<svg viewBox="0 0 1000 667" xmlns="http://www.w3.org/2000/svg" xmlns:xlink="http://www.w3.org/1999/xlink"><clipPath id="a"><path d="m0 0h1000v666.71875h-1000zm0 0"/></clipPath><g clip-path="url(#a)"><path d="m0 666.667969v-666.667969h1000v666.667969zm0 0" fill="#fff" fill-rule="evenodd"/></g><path d="m370.371094 74.070312h629.628906v74.078126h-629.628906zm0 0" fill="#0038a8" fill-rule="evenodd"/><path d="m370.371094 222.222656h629.628906v74.070313h-629.628906zm0 0" fill="#0038a8" fill-rule="evenodd"/><path d="m0 370.371094h1000v74.074218h-1000zm0 0" fill="#0038a8" fill-rule="evenodd"/><path d="m0 518.515625h1000v74.078125h-1000zm0 0" fill="#0038a8" fill-rule="evenodd"/><path d="m176.800781 221.398438 12.261719 18.308593c-50.378906 36.460938-19.625 58.019531-55.328125 69.691407 22.207031-21.671876-3.492187-23.5 15.210937-68.664063zm0 0" fill="#fcd116" fill-rule="evenodd"/><path d="m176.800781 221.398438 12.261719 18.308593c-50.378906 36.460938-19.625 58.019531-55.328125 69.691407 22.207031-21.671876-3.492187-23.5 15.214844-68.664063" fill="none" stroke="#000" stroke-linecap="round" stroke-miterlimit="20" stroke-width="2.055524"/><path d="m168.035156 226.589844c-27.792968 45.8125-9.566406 71.003906-34.300781 82.808594" fill="none" stroke="#000" stroke-miterlimit="20" stroke-width="2.055524"/><path d="m185.183594 185.183594h24.445312l-24.445312 134.445312-24.441406-134.445312h24.441406v134.445312zm0 0" fill="#fcd116" fill-rule="evenodd"/><path d="m185.183594 185.183594h24.445312l-24.445312 134.445312-24.441406-134.445312h24.441406v134.445312" fill="none" stroke="#000" stroke-miterlimit="20" stroke-width="2.444444"/><path d="m153.644531 204.859375-4.273437 21.617187c-61.40625-9.84375-54.898438 27.152344-88.394532 10.160157 31.019532.375 14.144532-19.089844 59.308594-37.796875zm0 0" fill="#fcd116" fill-rule="evenodd"/><path d="m153.644531 204.859375-4.273437 21.617187c-61.402344-9.84375-54.898438 27.152344-88.394532 10.160157 31.023438.375 14.144532-19.089844 59.308594-37.796875" fill="none" stroke="#000" stroke-linecap="round" stroke-miterlimit="20" stroke-width="2.055524"/><path d="m143.78125 202.332031c-52.050781 12.746094-56.96875 43.445313-82.804688 34.304688" fill="none" stroke="#000" stroke-miterlimit="20" stroke-width="2.055524"/><path d="m185.183594 185.183594 17.285156 17.285156-112.347656 77.78125 77.777344-112.351562 17.285156 17.285156-95.0625 95.066406zm0 0" fill="#fcd116" fill-rule="evenodd"/><path d="m185.183594 185.183594 17.285156 17.285156-112.347656 77.78125 77.777344-112.351562 17.285156 17.285156-95.0625 95.066406" fill="none" stroke="#000" stroke-miterlimit="20"/><path d="m148.96875 176.800781-18.304688 12.261719c-36.457031-50.378906-58.019531-19.625-69.6875-55.328125 21.667969 22.207031 23.496094-3.492187 68.664063 15.210937zm0 0" fill="#fcd116" fill-rule="evenodd"/><path d="m148.96875 176.800781-18.304688 12.261719c-36.457031-50.378906-58.019531-19.621094-69.6875-55.328125 21.667969 22.207031 23.496094-3.496094 68.660157 15.210937" fill="none" stroke="#000" stroke-linecap="round" stroke-miterlimit="20" stroke-width="2.055524"/><path d="m143.78125 168.035156c-45.808594-27.796875-71-9.566406-82.804688-34.300781" fill="none" stroke="#000" stroke-miterlimit="20" stroke-width="2.055524"/><path d="m185.183594 185.183594v24.445312l-134.441406-24.445312 134.441406-24.441406v24.441406h-134.441406zm0 0" fill="#fcd116" fill-rule="evenodd"/><path d="m185.183594 185.183594v24.445312l-134.441406-24.445312 134.441406-24.441406v24.441406h-134.441406" fill="none" stroke="#000" stroke-miterlimit="20" stroke-width="2.444444"/><path d="m165.503906 153.644531-21.613281-4.273437c9.847656-61.40625-27.148437-54.898438-10.15625-88.394532-.378906 31.019532 19.085937 14.144532 37.800781 59.308594zm0 0" fill="#fcd116" fill-rule="evenodd"/><path d="m165.503906 153.644531-21.613281-4.273437c9.847656-61.402344-27.148437-54.898438-10.15625-88.394532-.378906 31.019532 19.085937 14.144532 37.800781 59.308594" fill="none" stroke="#000" stroke-linecap="round" stroke-miterlimit="20" stroke-width="2.055524"/><path d="m168.035156 143.78125c-12.738281-52.050781-43.441406-56.96875-34.300781-82.804688" fill="none" stroke="#000" stroke-miterlimit="20" stroke-width="2.055524"/><path d="m185.183594 185.183594-17.285156 17.285156-77.777344-112.347656 112.347656 77.777344-17.285156 17.285156-95.0625-95.0625zm0 0" fill="#fcd116" fill-rule="evenodd"/><path d="m185.183594 185.183594-17.285156 17.285156-77.777344-112.347656 112.347656 77.777344-17.285156 17.285156-95.0625-95.0625" fill="none" stroke="#000" stroke-miterlimit="20"/><path d="m193.570312 148.96875-12.261718-18.304688c50.378906-36.457031 19.625-58.019531 55.328125-69.6875-22.203125 21.667969 3.496093 23.496094-15.210938 68.664063zm0 0" fill="#fcd116" fill-rule="evenodd"/><path d="m193.570312 148.96875-12.261718-18.304688c50.382812-36.457031 19.625-58.019531 55.328125-69.6875-22.207031 21.667969 3.496093 23.496094-15.210938 68.664063" fill="none" stroke="#000" stroke-linecap="round" stroke-miterlimit="20" stroke-width="2.055524"/><path d="m202.332031 143.78125c27.800781-45.808594 9.570313-71 34.304688-82.804688" fill="none" stroke="#000" stroke-miterlimit="20" stroke-width="2.055524"/><path d="m185.183594 185.183594h-24.441406l24.441406-134.441406 24.445312 134.441406h-24.445312v-134.441406zm0 0" fill="#fcd116" fill-rule="evenodd"/><path d="m185.183594 185.183594h-24.441406l24.441406-134.441406 24.445312 134.441406h-24.445312v-134.441406" fill="none" stroke="#000" stroke-miterlimit="20" stroke-width="2.444444"/><path d="m216.722656 165.503906 4.273438-21.613281c61.402344 9.847656 54.902344-27.148437 88.402344-10.15625-31.027344-.378906-14.144532 19.085937-59.3125 37.800781zm0 0" fill="#fcd116" fill-rule="evenodd"/><path d="m216.722656 165.503906 4.273438-21.613281c61.402344 9.847656 54.902344-27.148437 88.402344-10.15625-31.03125-.378906-14.144532 19.085937-59.3125 37.796875" fill="none" stroke="#000" stroke-linecap="round" stroke-miterlimit="20" stroke-width="2.055524"/><path d="m226.589844 168.035156c52.050781-12.742187 56.972656-43.441406 82.808594-34.300781" fill="none" stroke="#000" stroke-miterlimit="20" stroke-width="2.055524"/><path d="m185.183594 185.183594-17.285156-17.285156 112.351562-77.777344-77.78125 112.347656-17.285156-17.285156 95.066406-95.0625zm0 0" fill="#fcd116" fill-rule="evenodd"/><path d="m185.183594 185.183594-17.285156-17.285156 112.351562-77.777344-77.78125 112.347656-17.285156-17.285156 95.066406-95.0625" fill="none" stroke="#000" stroke-miterlimit="20"/><path d="m221.398438 193.570312 18.308593-12.261718c36.460938 50.378906 58.019531 19.625 69.691407 55.328125-21.671876-22.203125-23.5 3.496093-68.664063-15.210938zm0 0" fill="#fcd116" fill-rule="evenodd"/><path d="m221.398438 193.570312 18.308593-12.261718c36.460938 50.378906 58.019531 19.625 69.6875 55.328125-21.667969-22.207031-23.496093 3.496093-68.660156-15.210938" fill="none" stroke="#000" stroke-linecap="round" stroke-miterlimit="20" stroke-width="2.055524"/><path d="m226.589844 202.332031c45.8125 27.800781 71 9.570313 82.804687 34.304688" fill="none" stroke="#000" stroke-miterlimit="20" stroke-width="2.055524"/><path d="m185.183594 185.183594v-24.441406l134.445312 24.441406-134.445312 24.445312v-24.445312h134.445312zm0 0" fill="#fcd116" fill-rule="evenodd"/><path d="m185.183594 185.183594v-24.441406l134.445312 24.441406-134.445312 24.445312v-24.445312h134.445312" fill="none" stroke="#000" stroke-miterlimit="20" stroke-width="2.444444"/><path d="m204.859375 216.722656 21.617187 4.273438c-9.84375 61.402344 27.152344 54.902344 10.160157 88.402344.375-31.027344-19.089844-14.144532-37.796875-59.3125zm0 0" fill="#fcd116" fill-rule="evenodd"/><path d="m204.863281 216.722656 21.613281 4.273438c-9.84375 61.402344 27.152344 54.90625 10.160157 88.398437.375-31.027343-19.089844-14.140625-37.796875-59.308593" fill="none" stroke="#000" stroke-linecap="round" stroke-miterlimit="20" stroke-width="2.055524"/><path d="m202.332031 226.589844c12.746094 52.050781 43.449219 56.972656 34.304688 82.804687" fill="none" stroke="#000" stroke-miterlimit="20" stroke-width="2.055524"/><path d="m185.183594 185.183594 17.285156-17.285156 77.78125 112.351562-112.351562-77.78125 17.285156-17.285156 95.066406 95.066406zm0 0" fill="#fcd116" fill-rule="evenodd"/><path d="m185.183594 185.183594 17.285156-17.285156 77.78125 112.351562-112.351562-77.78125 17.285156-17.285156 95.066406 95.066406" fill="none" stroke="#000" stroke-miterlimit="20"/><g fill-rule="evenodd"><path d="m230.003906 185.183594c0 24.75-20.070312 44.820312-44.820312 44.820312s-44.8125-20.070312-44.8125-44.820312 20.0625-44.8125 44.8125-44.8125 44.820312 20.0625 44.820312 44.8125zm0 0" fill="#fcd116" stroke="#000" stroke-miterlimit="20" stroke-width="2.444444"/><path d="m218.1875 167.257812c-2.855469 3.261719-4.484375-2.441406-14.667969-2.441406-10.1875 0-11.816406 6.109375-13.449219 4.890625-1.625-1.222656 8.558594-8.558593 11.816407-8.964843 3.261719-.40625 12.632812 2.847656 16.300781 6.515624zm-11.816406 3.667969c2.851562 2.445313.40625 7.742188-2.441406 7.742188-2.855469 0-8.152344-4.890625-5.707032-8.148438zm0 0"/><path d="m192.925781 174.59375c.40625-4.886719 4.480469-5.703125 11.003907-5.703125 6.515624 0 9.367187 4.886719 11.808593 6.109375-2.847656 0-5.292969-4.074219-11.808593-4.074219-6.523438 0-6.523438 0-11.003907 4.074219zm1.21875 1.21875c1.632813-2.441406 3.667969 2.449219 8.148438 2.449219 4.484375 0 6.929687-1.226563 9.777343-3.261719 2.855469-2.035156-4.066406 4.890625-8.550781 4.890625-4.480469 0-10.59375-2.445313-9.375-4.078125zm0 0"/><path d="m208.003906 178.261719c5.292969-2.855469 2.035156-6.929688 0-7.742188.8125.8125 4.066406 4.886719 0 7.742188zm-22.820312 24.441406c2.445312 0 3.261718-.816406 6.519531-.816406 3.261719 0 11 4.484375 15.480469 2.855469-9.371094 3.667968-5.703125 1.21875-22 1.21875h-2.035156zm23.632812 5.707031c-1.632812-2.855468-1.226562-2.039062-4.480468-6.523437 3.253906 2.449219 4.074218 3.667969 4.480468 6.523437zm-23.632812 4.074219c10.1875 0 8.554687-2.039063 22-7.742187-9.777344 1.21875-11.8125 4.480468-22 4.480468h-2.035156zm0-15.078125c2.855468 0 3.667968-2.035156 6.925781-2.035156 3.261719 0 7.746094 1.222656 9.777344 2.851562.40625.40625-1.21875-3.257812-4.480469-3.667968-3.261719-.410157-2.035156-5.703126-5.703125-6.515626 0 1.625 1.222656 1.21875 1.628906 3.664063 0 2.035156-3.667969 2.035156-4.480469 0 .8125 3.261719-1.628906 3.261719-3.667968 3.261719zm0 0"/><path d="m152.1875 167.257812c2.847656 3.261719 4.480469-2.441406 14.664062-2.441406 10.183594 0 11.816407 6.109375 13.441407 4.890625 1.636719-1.222656-8.554688-8.558593-11.808594-8.964843-3.261719-.40625-12.628906 2.847656-16.296875 6.515624zm11.808594 3.667969c-2.847656 2.445313-.40625 7.742188 2.449218 7.742188 2.851563 0 8.148438-4.890625 5.699219-8.148438zm0 0"/><path d="m177.445312 174.59375c-.410156-4.886719-4.480468-5.703125-11-5.703125-6.515624 0-9.371093 4.886719-11.816406 6.109375 2.851563 0 5.300782-4.074219 11.816406-4.074219 6.519532 0 6.519532 0 11 4.074219zm-1.222656 1.21875c-1.628906-2.441406-3.667968 2.449219-8.152344 2.449219-4.480468 0-6.921874-1.226563-9.773437-3.261719s4.074219 4.890625 8.554687 4.890625c4.480469 0 10.59375-2.445313 9.371094-4.078125zm0 0"/><path d="m162.371094 178.261719c-5.296875-2.855469-2.035156-6.929688 0-7.742188-.816406.8125-4.074219 4.886719 0 7.742188zm22.8125 24.441406c-2.441406 0-3.253906-.816406-6.515625-.816406s-11.003907 4.484375-15.484375 2.855469c9.371094 3.667968 5.707031 1.21875 22 1.21875h2.039062zm-23.628906 5.707031c1.628906-2.855468 1.222656-2.039062 4.484374-6.523437-3.261718 2.449219-4.078124 3.667969-4.484374 6.523437zm23.628906 4.074219c-10.183594 0-8.554688-2.039063-22-7.742187 9.78125 1.21875 11.816406 4.480468 22 4.480468h2.039062zm0-15.078125c-2.847656 0-3.667969-2.035156-6.921875-2.035156-3.261719 0-7.742188 1.222656-9.777344 2.851562-.414063.40625 1.222656-3.257812 4.480469-3.667968 3.257812-.410157 2.035156-5.703126 5.703125-6.515626 0 1.625-1.222657 1.21875-1.632813 3.664063 0 2.035156 3.667969 2.035156 4.480469 0-.8125 3.261719 1.632813 3.261719 3.667969 3.261719zm0 0"/><path d="m185.183594 216.144531c-2.035156 0-7.328125 1.226563 0 1.226563 7.335937 0 2.039062-1.226563 0-1.226563zm0 0"/></g></svg>