<?xml version="1.0" encoding="UTF-8"?>
<svg xmlns="http://www.w3.org/2000/svg" xmlns:xlink="http://www.w3.org/1999/xlink" width="128pt" height="64pt" viewBox="0 0 128 64" version="1.1">
<g id="surface1187">
<path style=" stroke:none;fill-rule:evenodd;fill:rgb(0%,59.999084%,70.979309%);fill-opacity:1;" d="M 0 0 L 128 0 L 128 20.480469 L 0 20.480469 Z M 0 0 "/>
<path style=" stroke:none;fill-rule:evenodd;fill:rgb(80.783081%,6.666565%,14.901733%);fill-opacity:1;" d="M 0 20.480469 L 128 20.480469 L 128 43.519531 L 0 43.519531 Z M 0 20.480469 "/>
<path style=" stroke:none;fill-rule:evenodd;fill:rgb(99.998474%,99.998474%,99.998474%);fill-opacity:1;" d="M 0 21.761719 L 128 21.761719 L 128 42.238281 L 0 42.238281 Z M 0 21.761719 "/>
<path style=" stroke:none;fill-rule:evenodd;fill:rgb(11.764526%,70.979309%,22.744751%);fill-opacity:1;" d="M 0 43.519531 L 128 43.519531 L 128 64 L 0 64 Z M 0 43.519531 "/>
<path style=" stroke:none;fill-rule:evenodd;fill:rgb(99.998474%,99.998474%,99.998474%);fill-opacity:1;" d="M 25.601562 10.238281 C 25.601562 14.480469 22.160156 17.921875 17.921875 17.921875 C 13.679688 17.921875 10.238281 14.480469 10.238281 10.238281 C 10.238281 6 13.679688 2.558594 17.921875 2.558594 C 22.160156 2.558594 25.601562 6 25.601562 10.238281 Z M 25.601562 10.238281 "/>
<path style=" stroke:none;fill-rule:evenodd;fill:rgb(0%,59.999084%,70.979309%);fill-opacity:1;" d="M 28.160156 10.238281 C 28.160156 14.480469 24.722656 17.921875 20.480469 17.921875 C 16.238281 17.921875 12.800781 14.480469 12.800781 10.238281 C 12.800781 6 16.238281 2.558594 20.480469 2.558594 C 24.722656 2.558594 28.160156 6 28.160156 10.238281 Z M 28.160156 10.238281 "/>
<path style=" stroke:none;fill-rule:evenodd;fill:rgb(99.998474%,99.998474%,99.998474%);fill-opacity:1;" d="M 22.527344 14.847656 L 22.054688 16.308594 L 22.785156 16.546875 Z M 22.527344 14.847656 "/>
<path style=" stroke:none;fill-rule:evenodd;fill:rgb(99.998474%,99.998474%,99.998474%);fill-opacity:1;" d="M 22.527344 14.847656 L 23.003906 16.308594 L 22.273438 16.546875 Z M 22.527344 14.847656 "/>
<path style=" stroke:none;fill-rule:evenodd;fill:rgb(99.998474%,99.998474%,99.998474%);fill-opacity:1;" d="M 23.988281 15.910156 L 22.453125 15.910156 L 22.453125 16.675781 Z M 23.988281 15.910156 "/>
<path style=" stroke:none;fill-rule:evenodd;fill:rgb(99.998474%,99.998474%,99.998474%);fill-opacity:1;" d="M 23.988281 15.910156 L 22.746094 16.8125 L 22.296875 16.191406 Z M 23.988281 15.910156 "/>
<path style=" stroke:none;fill-rule:evenodd;fill:rgb(99.998474%,99.998474%,99.998474%);fill-opacity:1;" d="M 23.429688 17.625 L 22.957031 16.167969 L 22.226562 16.402344 Z M 23.429688 17.625 "/>
<path style=" stroke:none;fill-rule:evenodd;fill:rgb(99.998474%,99.998474%,99.998474%);fill-opacity:1;" d="M 23.429688 17.625 L 22.1875 16.722656 L 22.640625 16.101562 Z M 23.429688 17.625 "/>
<path style=" stroke:none;fill-rule:evenodd;fill:rgb(99.998474%,99.998474%,99.998474%);fill-opacity:1;" d="M 21.625 17.625 L 22.867188 16.722656 L 22.417969 16.101562 Z M 21.625 17.625 "/>
<path style=" stroke:none;fill-rule:evenodd;fill:rgb(99.998474%,99.998474%,99.998474%);fill-opacity:1;" d="M 21.625 17.625 L 22.101562 16.167969 L 22.832031 16.402344 Z M 21.625 17.625 "/>
<path style=" stroke:none;fill-rule:evenodd;fill:rgb(99.998474%,99.998474%,99.998474%);fill-opacity:1;" d="M 21.066406 15.910156 L 22.308594 16.8125 L 22.761719 16.191406 Z M 21.066406 15.910156 "/>
<path style=" stroke:none;fill-rule:evenodd;fill:rgb(99.998474%,99.998474%,99.998474%);fill-opacity:1;" d="M 21.066406 15.910156 L 22.605469 15.910156 L 22.605469 16.675781 Z M 21.066406 15.910156 "/>
<path style=" stroke:none;fill-rule:evenodd;fill:rgb(99.998474%,99.998474%,99.998474%);fill-opacity:1;" d="M 28.671875 14.847656 L 28.199219 16.308594 L 28.925781 16.546875 Z M 28.671875 14.847656 "/>
<path style=" stroke:none;fill-rule:evenodd;fill:rgb(99.998474%,99.998474%,99.998474%);fill-opacity:1;" d="M 28.671875 14.847656 L 29.144531 16.308594 L 28.417969 16.546875 Z M 28.671875 14.847656 "/>
<path style=" stroke:none;fill-rule:evenodd;fill:rgb(99.998474%,99.998474%,99.998474%);fill-opacity:1;" d="M 30.132812 15.910156 L 28.597656 15.910156 L 28.597656 16.675781 Z M 30.132812 15.910156 "/>
<path style=" stroke:none;fill-rule:evenodd;fill:rgb(99.998474%,99.998474%,99.998474%);fill-opacity:1;" d="M 30.132812 15.910156 L 28.890625 16.8125 L 28.4375 16.191406 Z M 30.132812 15.910156 "/>
<path style=" stroke:none;fill-rule:evenodd;fill:rgb(99.998474%,99.998474%,99.998474%);fill-opacity:1;" d="M 29.574219 17.625 L 29.101562 16.167969 L 28.371094 16.402344 Z M 29.574219 17.625 "/>
<path style=" stroke:none;fill-rule:evenodd;fill:rgb(99.998474%,99.998474%,99.998474%);fill-opacity:1;" d="M 29.574219 17.625 L 28.332031 16.722656 L 28.785156 16.101562 Z M 29.574219 17.625 "/>
<path style=" stroke:none;fill-rule:evenodd;fill:rgb(99.998474%,99.998474%,99.998474%);fill-opacity:1;" d="M 27.769531 17.625 L 29.011719 16.722656 L 28.558594 16.101562 Z M 27.769531 17.625 "/>
<path style=" stroke:none;fill-rule:evenodd;fill:rgb(99.998474%,99.998474%,99.998474%);fill-opacity:1;" d="M 27.769531 17.625 L 28.242188 16.167969 L 28.972656 16.402344 Z M 27.769531 17.625 "/>
<path style=" stroke:none;fill-rule:evenodd;fill:rgb(99.998474%,99.998474%,99.998474%);fill-opacity:1;" d="M 27.210938 15.910156 L 28.453125 16.8125 L 28.90625 16.191406 Z M 27.210938 15.910156 "/>
<path style=" stroke:none;fill-rule:evenodd;fill:rgb(99.998474%,99.998474%,99.998474%);fill-opacity:1;" d="M 27.210938 15.910156 L 28.746094 15.910156 L 28.746094 16.675781 Z M 27.210938 15.910156 "/>
<path style=" stroke:none;fill-rule:evenodd;fill:rgb(99.998474%,99.998474%,99.998474%);fill-opacity:1;" d="M 34.816406 14.847656 L 34.339844 16.308594 L 35.070312 16.546875 Z M 34.816406 14.847656 "/>
<path style=" stroke:none;fill-rule:evenodd;fill:rgb(99.998474%,99.998474%,99.998474%);fill-opacity:1;" d="M 34.816406 14.847656 L 35.292969 16.308594 L 34.558594 16.546875 Z M 34.816406 14.847656 "/>
<path style=" stroke:none;fill-rule:evenodd;fill:rgb(99.998474%,99.998474%,99.998474%);fill-opacity:1;" d="M 36.277344 15.910156 L 34.742188 15.910156 L 34.742188 16.675781 Z M 36.277344 15.910156 "/>
<path style=" stroke:none;fill-rule:evenodd;fill:rgb(99.998474%,99.998474%,99.998474%);fill-opacity:1;" d="M 36.277344 15.910156 L 35.035156 16.8125 L 34.582031 16.191406 Z M 36.277344 15.910156 "/>
<path style=" stroke:none;fill-rule:evenodd;fill:rgb(99.998474%,99.998474%,99.998474%);fill-opacity:1;" d="M 35.71875 17.625 L 35.242188 16.167969 L 34.511719 16.402344 Z M 35.71875 17.625 "/>
<path style=" stroke:none;fill-rule:evenodd;fill:rgb(99.998474%,99.998474%,99.998474%);fill-opacity:1;" d="M 35.71875 17.625 L 34.476562 16.722656 L 34.925781 16.101562 Z M 35.71875 17.625 "/>
<path style=" stroke:none;fill-rule:evenodd;fill:rgb(99.998474%,99.998474%,99.998474%);fill-opacity:1;" d="M 33.914062 17.625 L 35.15625 16.722656 L 34.703125 16.101562 Z M 33.914062 17.625 "/>
<path style=" stroke:none;fill-rule:evenodd;fill:rgb(99.998474%,99.998474%,99.998474%);fill-opacity:1;" d="M 33.914062 17.625 L 34.386719 16.167969 L 35.117188 16.402344 Z M 33.914062 17.625 "/>
<path style=" stroke:none;fill-rule:evenodd;fill:rgb(99.998474%,99.998474%,99.998474%);fill-opacity:1;" d="M 33.355469 15.910156 L 34.597656 16.8125 L 35.046875 16.191406 Z M 33.355469 15.910156 "/>
<path style=" stroke:none;fill-rule:evenodd;fill:rgb(99.998474%,99.998474%,99.998474%);fill-opacity:1;" d="M 33.355469 15.910156 L 34.890625 15.910156 L 34.890625 16.675781 Z M 33.355469 15.910156 "/>
<path style=" stroke:none;fill-rule:evenodd;fill:rgb(99.998474%,99.998474%,99.998474%);fill-opacity:1;" d="M 40.960938 14.847656 L 40.484375 16.308594 L 41.214844 16.546875 Z M 40.960938 14.847656 "/>
<path style=" stroke:none;fill-rule:evenodd;fill:rgb(99.998474%,99.998474%,99.998474%);fill-opacity:1;" d="M 40.960938 14.847656 L 41.433594 16.308594 L 40.703125 16.546875 Z M 40.960938 14.847656 "/>
<path style=" stroke:none;fill-rule:evenodd;fill:rgb(99.998474%,99.998474%,99.998474%);fill-opacity:1;" d="M 42.421875 15.910156 L 40.886719 15.910156 L 40.886719 16.675781 Z M 42.421875 15.910156 "/>
<path style=" stroke:none;fill-rule:evenodd;fill:rgb(99.998474%,99.998474%,99.998474%);fill-opacity:1;" d="M 42.421875 15.910156 L 41.179688 16.8125 L 40.726562 16.191406 Z M 42.421875 15.910156 "/>
<path style=" stroke:none;fill-rule:evenodd;fill:rgb(99.998474%,99.998474%,99.998474%);fill-opacity:1;" d="M 41.863281 17.625 L 41.390625 16.167969 L 40.65625 16.402344 Z M 41.863281 17.625 "/>
<path style=" stroke:none;fill-rule:evenodd;fill:rgb(99.998474%,99.998474%,99.998474%);fill-opacity:1;" d="M 41.863281 17.625 L 40.621094 16.722656 L 41.070312 16.101562 Z M 41.863281 17.625 "/>
<path style=" stroke:none;fill-rule:evenodd;fill:rgb(99.998474%,99.998474%,99.998474%);fill-opacity:1;" d="M 40.058594 17.625 L 41.300781 16.722656 L 40.847656 16.101562 Z M 40.058594 17.625 "/>
<path style=" stroke:none;fill-rule:evenodd;fill:rgb(99.998474%,99.998474%,99.998474%);fill-opacity:1;" d="M 40.058594 17.625 L 40.53125 16.167969 L 41.261719 16.402344 Z M 40.058594 17.625 "/>
<path style=" stroke:none;fill-rule:evenodd;fill:rgb(99.998474%,99.998474%,99.998474%);fill-opacity:1;" d="M 39.5 15.910156 L 40.742188 16.8125 L 41.195312 16.191406 Z M 39.5 15.910156 "/>
<path style=" stroke:none;fill-rule:evenodd;fill:rgb(99.998474%,99.998474%,99.998474%);fill-opacity:1;" d="M 39.5 15.910156 L 41.035156 15.910156 L 41.035156 16.675781 Z M 39.5 15.910156 "/>
<path style=" stroke:none;fill-rule:evenodd;fill:rgb(99.998474%,99.998474%,99.998474%);fill-opacity:1;" d="M 47.105469 14.847656 L 46.628906 16.308594 L 47.359375 16.546875 Z M 47.105469 14.847656 "/>
<path style=" stroke:none;fill-rule:evenodd;fill:rgb(99.998474%,99.998474%,99.998474%);fill-opacity:1;" d="M 47.105469 14.847656 L 47.578125 16.308594 L 46.847656 16.546875 Z M 47.105469 14.847656 "/>
<path style=" stroke:none;fill-rule:evenodd;fill:rgb(99.998474%,99.998474%,99.998474%);fill-opacity:1;" d="M 48.566406 15.910156 L 47.027344 15.910156 L 47.027344 16.675781 Z M 48.566406 15.910156 "/>
<path style=" stroke:none;fill-rule:evenodd;fill:rgb(99.998474%,99.998474%,99.998474%);fill-opacity:1;" d="M 48.566406 15.910156 L 47.324219 16.8125 L 46.871094 16.191406 Z M 48.566406 15.910156 "/>
<path style=" stroke:none;fill-rule:evenodd;fill:rgb(99.998474%,99.998474%,99.998474%);fill-opacity:1;" d="M 48.007812 17.625 L 47.53125 16.167969 L 46.800781 16.402344 Z M 48.007812 17.625 "/>
<path style=" stroke:none;fill-rule:evenodd;fill:rgb(99.998474%,99.998474%,99.998474%);fill-opacity:1;" d="M 48.007812 17.625 L 46.765625 16.722656 L 47.214844 16.101562 Z M 48.007812 17.625 "/>
<path style=" stroke:none;fill-rule:evenodd;fill:rgb(99.998474%,99.998474%,99.998474%);fill-opacity:1;" d="M 46.203125 17.625 L 47.445312 16.722656 L 46.992188 16.101562 Z M 46.203125 17.625 "/>
<path style=" stroke:none;fill-rule:evenodd;fill:rgb(99.998474%,99.998474%,99.998474%);fill-opacity:1;" d="M 46.203125 17.625 L 46.675781 16.167969 L 47.40625 16.402344 Z M 46.203125 17.625 "/>
<path style=" stroke:none;fill-rule:evenodd;fill:rgb(99.998474%,99.998474%,99.998474%);fill-opacity:1;" d="M 45.644531 15.910156 L 46.886719 16.8125 L 47.335938 16.191406 Z M 45.644531 15.910156 "/>
<path style=" stroke:none;fill-rule:evenodd;fill:rgb(99.998474%,99.998474%,99.998474%);fill-opacity:1;" d="M 45.644531 15.910156 L 47.179688 15.910156 L 47.179688 16.675781 Z M 45.644531 15.910156 "/>
<path style=" stroke:none;fill-rule:evenodd;fill:rgb(99.998474%,99.998474%,99.998474%);fill-opacity:1;" d="M 28.671875 8.703125 L 28.199219 10.164062 L 28.925781 10.402344 Z M 28.671875 8.703125 "/>
<path style=" stroke:none;fill-rule:evenodd;fill:rgb(99.998474%,99.998474%,99.998474%);fill-opacity:1;" d="M 28.671875 8.703125 L 29.144531 10.164062 L 28.417969 10.402344 Z M 28.671875 8.703125 "/>
<path style=" stroke:none;fill-rule:evenodd;fill:rgb(99.998474%,99.998474%,99.998474%);fill-opacity:1;" d="M 30.132812 9.765625 L 28.597656 9.765625 L 28.597656 10.535156 Z M 30.132812 9.765625 "/>
<path style=" stroke:none;fill-rule:evenodd;fill:rgb(99.998474%,99.998474%,99.998474%);fill-opacity:1;" d="M 30.132812 9.765625 L 28.890625 10.667969 L 28.4375 10.046875 Z M 30.132812 9.765625 "/>
<path style=" stroke:none;fill-rule:evenodd;fill:rgb(99.998474%,99.998474%,99.998474%);fill-opacity:1;" d="M 29.574219 11.484375 L 29.101562 10.019531 L 28.371094 10.257812 Z M 29.574219 11.484375 "/>
<path style=" stroke:none;fill-rule:evenodd;fill:rgb(99.998474%,99.998474%,99.998474%);fill-opacity:1;" d="M 29.574219 11.484375 L 28.332031 10.578125 L 28.785156 9.957031 Z M 29.574219 11.484375 "/>
<path style=" stroke:none;fill-rule:evenodd;fill:rgb(99.998474%,99.998474%,99.998474%);fill-opacity:1;" d="M 27.769531 11.484375 L 29.011719 10.578125 L 28.558594 9.957031 Z M 27.769531 11.484375 "/>
<path style=" stroke:none;fill-rule:evenodd;fill:rgb(99.998474%,99.998474%,99.998474%);fill-opacity:1;" d="M 27.769531 11.484375 L 28.242188 10.019531 L 28.972656 10.257812 Z M 27.769531 11.484375 "/>
<path style=" stroke:none;fill-rule:evenodd;fill:rgb(99.998474%,99.998474%,99.998474%);fill-opacity:1;" d="M 27.210938 9.765625 L 28.453125 10.667969 L 28.90625 10.046875 Z M 27.210938 9.765625 "/>
<path style=" stroke:none;fill-rule:evenodd;fill:rgb(99.998474%,99.998474%,99.998474%);fill-opacity:1;" d="M 27.210938 9.765625 L 28.746094 9.765625 L 28.746094 10.535156 Z M 27.210938 9.765625 "/>
<path style=" stroke:none;fill-rule:evenodd;fill:rgb(99.998474%,99.998474%,99.998474%);fill-opacity:1;" d="M 34.816406 8.703125 L 34.339844 10.164062 L 35.070312 10.402344 Z M 34.816406 8.703125 "/>
<path style=" stroke:none;fill-rule:evenodd;fill:rgb(99.998474%,99.998474%,99.998474%);fill-opacity:1;" d="M 34.816406 8.703125 L 35.292969 10.164062 L 34.558594 10.402344 Z M 34.816406 8.703125 "/>
<path style=" stroke:none;fill-rule:evenodd;fill:rgb(99.998474%,99.998474%,99.998474%);fill-opacity:1;" d="M 36.277344 9.765625 L 34.742188 9.765625 L 34.742188 10.535156 Z M 36.277344 9.765625 "/>
<path style=" stroke:none;fill-rule:evenodd;fill:rgb(99.998474%,99.998474%,99.998474%);fill-opacity:1;" d="M 36.277344 9.765625 L 35.035156 10.667969 L 34.582031 10.046875 Z M 36.277344 9.765625 "/>
<path style=" stroke:none;fill-rule:evenodd;fill:rgb(99.998474%,99.998474%,99.998474%);fill-opacity:1;" d="M 35.71875 11.484375 L 35.242188 10.019531 L 34.511719 10.257812 Z M 35.71875 11.484375 "/>
<path style=" stroke:none;fill-rule:evenodd;fill:rgb(99.998474%,99.998474%,99.998474%);fill-opacity:1;" d="M 35.71875 11.484375 L 34.476562 10.578125 L 34.925781 9.957031 Z M 35.71875 11.484375 "/>
<path style=" stroke:none;fill-rule:evenodd;fill:rgb(99.998474%,99.998474%,99.998474%);fill-opacity:1;" d="M 33.914062 11.484375 L 35.15625 10.578125 L 34.703125 9.957031 Z M 33.914062 11.484375 "/>
<path style=" stroke:none;fill-rule:evenodd;fill:rgb(99.998474%,99.998474%,99.998474%);fill-opacity:1;" d="M 33.914062 11.484375 L 34.386719 10.019531 L 35.117188 10.257812 Z M 33.914062 11.484375 "/>
<path style=" stroke:none;fill-rule:evenodd;fill:rgb(99.998474%,99.998474%,99.998474%);fill-opacity:1;" d="M 33.355469 9.765625 L 34.597656 10.667969 L 35.046875 10.046875 Z M 33.355469 9.765625 "/>
<path style=" stroke:none;fill-rule:evenodd;fill:rgb(99.998474%,99.998474%,99.998474%);fill-opacity:1;" d="M 33.355469 9.765625 L 34.890625 9.765625 L 34.890625 10.535156 Z M 33.355469 9.765625 "/>
<path style=" stroke:none;fill-rule:evenodd;fill:rgb(99.998474%,99.998474%,99.998474%);fill-opacity:1;" d="M 40.960938 8.703125 L 40.484375 10.164062 L 41.214844 10.402344 Z M 40.960938 8.703125 "/>
<path style=" stroke:none;fill-rule:evenodd;fill:rgb(99.998474%,99.998474%,99.998474%);fill-opacity:1;" d="M 40.960938 8.703125 L 41.433594 10.164062 L 40.703125 10.402344 Z M 40.960938 8.703125 "/>
<path style=" stroke:none;fill-rule:evenodd;fill:rgb(99.998474%,99.998474%,99.998474%);fill-opacity:1;" d="M 42.421875 9.765625 L 40.886719 9.765625 L 40.886719 10.535156 Z M 42.421875 9.765625 "/>
<path style=" stroke:none;fill-rule:evenodd;fill:rgb(99.998474%,99.998474%,99.998474%);fill-opacity:1;" d="M 42.421875 9.765625 L 41.179688 10.667969 L 40.726562 10.046875 Z M 42.421875 9.765625 "/>
<path style=" stroke:none;fill-rule:evenodd;fill:rgb(99.998474%,99.998474%,99.998474%);fill-opacity:1;" d="M 41.863281 11.484375 L 41.390625 10.019531 L 40.65625 10.257812 Z M 41.863281 11.484375 "/>
<path style=" stroke:none;fill-rule:evenodd;fill:rgb(99.998474%,99.998474%,99.998474%);fill-opacity:1;" d="M 41.863281 11.484375 L 40.621094 10.578125 L 41.070312 9.957031 Z M 41.863281 11.484375 "/>
<path style=" stroke:none;fill-rule:evenodd;fill:rgb(99.998474%,99.998474%,99.998474%);fill-opacity:1;" d="M 40.058594 11.484375 L 41.300781 10.578125 L 40.847656 9.957031 Z M 40.058594 11.484375 "/>
<path style=" stroke:none;fill-rule:evenodd;fill:rgb(99.998474%,99.998474%,99.998474%);fill-opacity:1;" d="M 40.058594 11.484375 L 40.53125 10.019531 L 41.261719 10.257812 Z M 40.058594 11.484375 "/>
<path style=" stroke:none;fill-rule:evenodd;fill:rgb(99.998474%,99.998474%,99.998474%);fill-opacity:1;" d="M 39.5 9.765625 L 40.742188 10.667969 L 41.195312 10.046875 Z M 39.5 9.765625 "/>
<path style=" stroke:none;fill-rule:evenodd;fill:rgb(99.998474%,99.998474%,99.998474%);fill-opacity:1;" d="M 39.5 9.765625 L 41.035156 9.765625 L 41.035156 10.535156 Z M 39.5 9.765625 "/>
<path style=" stroke:none;fill-rule:evenodd;fill:rgb(99.998474%,99.998474%,99.998474%);fill-opacity:1;" d="M 47.105469 8.703125 L 46.628906 10.164062 L 47.359375 10.402344 Z M 47.105469 8.703125 "/>
<path style=" stroke:none;fill-rule:evenodd;fill:rgb(99.998474%,99.998474%,99.998474%);fill-opacity:1;" d="M 47.105469 8.703125 L 47.578125 10.164062 L 46.847656 10.402344 Z M 47.105469 8.703125 "/>
<path style=" stroke:none;fill-rule:evenodd;fill:rgb(99.998474%,99.998474%,99.998474%);fill-opacity:1;" d="M 48.566406 9.765625 L 47.027344 9.765625 L 47.027344 10.535156 Z M 48.566406 9.765625 "/>
<path style=" stroke:none;fill-rule:evenodd;fill:rgb(99.998474%,99.998474%,99.998474%);fill-opacity:1;" d="M 48.566406 9.765625 L 47.324219 10.667969 L 46.871094 10.046875 Z M 48.566406 9.765625 "/>
<path style=" stroke:none;fill-rule:evenodd;fill:rgb(99.998474%,99.998474%,99.998474%);fill-opacity:1;" d="M 48.007812 11.484375 L 47.53125 10.019531 L 46.800781 10.257812 Z M 48.007812 11.484375 "/>
<path style=" stroke:none;fill-rule:evenodd;fill:rgb(99.998474%,99.998474%,99.998474%);fill-opacity:1;" d="M 48.007812 11.484375 L 46.765625 10.578125 L 47.214844 9.957031 Z M 48.007812 11.484375 "/>
<path style=" stroke:none;fill-rule:evenodd;fill:rgb(99.998474%,99.998474%,99.998474%);fill-opacity:1;" d="M 46.203125 11.484375 L 47.445312 10.578125 L 46.992188 9.957031 Z M 46.203125 11.484375 "/>
<path style=" stroke:none;fill-rule:evenodd;fill:rgb(99.998474%,99.998474%,99.998474%);fill-opacity:1;" d="M 46.203125 11.484375 L 46.675781 10.019531 L 47.40625 10.257812 Z M 46.203125 11.484375 "/>
<path style=" stroke:none;fill-rule:evenodd;fill:rgb(99.998474%,99.998474%,99.998474%);fill-opacity:1;" d="M 45.644531 9.765625 L 46.886719 10.667969 L 47.335938 10.046875 Z M 45.644531 9.765625 "/>
<path style=" stroke:none;fill-rule:evenodd;fill:rgb(99.998474%,99.998474%,99.998474%);fill-opacity:1;" d="M 45.644531 9.765625 L 47.179688 9.765625 L 47.179688 10.535156 Z M 45.644531 9.765625 "/>
<path style=" stroke:none;fill-rule:evenodd;fill:rgb(99.998474%,99.998474%,99.998474%);fill-opacity:1;" d="M 34.816406 2.558594 L 34.339844 4.019531 L 35.070312 4.257812 Z M 34.816406 2.558594 "/>
<path style=" stroke:none;fill-rule:evenodd;fill:rgb(99.998474%,99.998474%,99.998474%);fill-opacity:1;" d="M 34.816406 2.558594 L 35.292969 4.019531 L 34.558594 4.257812 Z M 34.816406 2.558594 "/>
<path style=" stroke:none;fill-rule:evenodd;fill:rgb(99.998474%,99.998474%,99.998474%);fill-opacity:1;" d="M 36.277344 3.621094 L 34.742188 3.621094 L 34.742188 4.390625 Z M 36.277344 3.621094 "/>
<path style=" stroke:none;fill-rule:evenodd;fill:rgb(99.998474%,99.998474%,99.998474%);fill-opacity:1;" d="M 36.277344 3.621094 L 35.035156 4.523438 L 34.582031 3.902344 Z M 36.277344 3.621094 "/>
<path style=" stroke:none;fill-rule:evenodd;fill:rgb(99.998474%,99.998474%,99.998474%);fill-opacity:1;" d="M 35.71875 5.339844 L 35.242188 3.878906 L 34.511719 4.113281 Z M 35.71875 5.339844 "/>
<path style=" stroke:none;fill-rule:evenodd;fill:rgb(99.998474%,99.998474%,99.998474%);fill-opacity:1;" d="M 35.71875 5.339844 L 34.476562 4.4375 L 34.925781 3.816406 Z M 35.71875 5.339844 "/>
<path style=" stroke:none;fill-rule:evenodd;fill:rgb(99.998474%,99.998474%,99.998474%);fill-opacity:1;" d="M 33.914062 5.339844 L 35.15625 4.4375 L 34.703125 3.816406 Z M 33.914062 5.339844 "/>
<path style=" stroke:none;fill-rule:evenodd;fill:rgb(99.998474%,99.998474%,99.998474%);fill-opacity:1;" d="M 33.914062 5.339844 L 34.386719 3.878906 L 35.117188 4.113281 Z M 33.914062 5.339844 "/>
<path style=" stroke:none;fill-rule:evenodd;fill:rgb(99.998474%,99.998474%,99.998474%);fill-opacity:1;" d="M 33.355469 3.621094 L 34.597656 4.523438 L 35.046875 3.902344 Z M 33.355469 3.621094 "/>
<path style=" stroke:none;fill-rule:evenodd;fill:rgb(99.998474%,99.998474%,99.998474%);fill-opacity:1;" d="M 33.355469 3.621094 L 34.890625 3.621094 L 34.890625 4.390625 Z M 33.355469 3.621094 "/>
<path style=" stroke:none;fill-rule:evenodd;fill:rgb(99.998474%,99.998474%,99.998474%);fill-opacity:1;" d="M 40.960938 2.558594 L 40.484375 4.019531 L 41.214844 4.257812 Z M 40.960938 2.558594 "/>
<path style=" stroke:none;fill-rule:evenodd;fill:rgb(99.998474%,99.998474%,99.998474%);fill-opacity:1;" d="M 40.960938 2.558594 L 41.433594 4.019531 L 40.703125 4.257812 Z M 40.960938 2.558594 "/>
<path style=" stroke:none;fill-rule:evenodd;fill:rgb(99.998474%,99.998474%,99.998474%);fill-opacity:1;" d="M 42.421875 3.621094 L 40.886719 3.621094 L 40.886719 4.390625 Z M 42.421875 3.621094 "/>
<path style=" stroke:none;fill-rule:evenodd;fill:rgb(99.998474%,99.998474%,99.998474%);fill-opacity:1;" d="M 42.421875 3.621094 L 41.179688 4.523438 L 40.726562 3.902344 Z M 42.421875 3.621094 "/>
<path style=" stroke:none;fill-rule:evenodd;fill:rgb(99.998474%,99.998474%,99.998474%);fill-opacity:1;" d="M 41.863281 5.339844 L 41.390625 3.878906 L 40.65625 4.113281 Z M 41.863281 5.339844 "/>
<path style=" stroke:none;fill-rule:evenodd;fill:rgb(99.998474%,99.998474%,99.998474%);fill-opacity:1;" d="M 41.863281 5.339844 L 40.621094 4.4375 L 41.070312 3.816406 Z M 41.863281 5.339844 "/>
<path style=" stroke:none;fill-rule:evenodd;fill:rgb(99.998474%,99.998474%,99.998474%);fill-opacity:1;" d="M 40.058594 5.339844 L 41.300781 4.4375 L 40.847656 3.816406 Z M 40.058594 5.339844 "/>
<path style=" stroke:none;fill-rule:evenodd;fill:rgb(99.998474%,99.998474%,99.998474%);fill-opacity:1;" d="M 40.058594 5.339844 L 40.53125 3.878906 L 41.261719 4.113281 Z M 40.058594 5.339844 "/>
<path style=" stroke:none;fill-rule:evenodd;fill:rgb(99.998474%,99.998474%,99.998474%);fill-opacity:1;" d="M 39.5 3.621094 L 40.742188 4.523438 L 41.195312 3.902344 Z M 39.5 3.621094 "/>
<path style=" stroke:none;fill-rule:evenodd;fill:rgb(99.998474%,99.998474%,99.998474%);fill-opacity:1;" d="M 39.5 3.621094 L 41.035156 3.621094 L 41.035156 4.390625 Z M 39.5 3.621094 "/>
<path style=" stroke:none;fill-rule:evenodd;fill:rgb(99.998474%,99.998474%,99.998474%);fill-opacity:1;" d="M 47.105469 2.558594 L 46.628906 4.019531 L 47.359375 4.257812 Z M 47.105469 2.558594 "/>
<path style=" stroke:none;fill-rule:evenodd;fill:rgb(99.998474%,99.998474%,99.998474%);fill-opacity:1;" d="M 47.105469 2.558594 L 47.578125 4.019531 L 46.847656 4.257812 Z M 47.105469 2.558594 "/>
<path style=" stroke:none;fill-rule:evenodd;fill:rgb(99.998474%,99.998474%,99.998474%);fill-opacity:1;" d="M 48.566406 3.621094 L 47.027344 3.621094 L 47.027344 4.390625 Z M 48.566406 3.621094 "/>
<path style=" stroke:none;fill-rule:evenodd;fill:rgb(99.998474%,99.998474%,99.998474%);fill-opacity:1;" d="M 48.566406 3.621094 L 47.324219 4.523438 L 46.871094 3.902344 Z M 48.566406 3.621094 "/>
<path style=" stroke:none;fill-rule:evenodd;fill:rgb(99.998474%,99.998474%,99.998474%);fill-opacity:1;" d="M 48.007812 5.339844 L 47.53125 3.878906 L 46.800781 4.113281 Z M 48.007812 5.339844 "/>
<path style=" stroke:none;fill-rule:evenodd;fill:rgb(99.998474%,99.998474%,99.998474%);fill-opacity:1;" d="M 48.007812 5.339844 L 46.765625 4.4375 L 47.214844 3.816406 Z M 48.007812 5.339844 "/>
<path style=" stroke:none;fill-rule:evenodd;fill:rgb(99.998474%,99.998474%,99.998474%);fill-opacity:1;" d="M 46.203125 5.339844 L 47.445312 4.4375 L 46.992188 3.816406 Z M 46.203125 5.339844 "/>
<path style=" stroke:none;fill-rule:evenodd;fill:rgb(99.998474%,99.998474%,99.998474%);fill-opacity:1;" d="M 46.203125 5.339844 L 46.675781 3.878906 L 47.40625 4.113281 Z M 46.203125 5.339844 "/>
<path style=" stroke:none;fill-rule:evenodd;fill:rgb(99.998474%,99.998474%,99.998474%);fill-opacity:1;" d="M 45.644531 3.621094 L 46.886719 4.523438 L 47.335938 3.902344 Z M 45.644531 3.621094 "/>
<path style=" stroke:none;fill-rule:evenodd;fill:rgb(99.998474%,99.998474%,99.998474%);fill-opacity:1;" d="M 45.644531 3.621094 L 47.179688 3.621094 L 47.179688 4.390625 Z M 45.644531 3.621094 "/>
</g>
</svg>
