<?xml version="1.0" encoding="UTF-8"?>
<svg xmlns="http://www.w3.org/2000/svg" xmlns:xlink="http://www.w3.org/1999/xlink" width="128pt" height="77pt" viewBox="0 0 128 77" version="1.1">
<defs>
<clipPath id="clip1">
  <path d="M 0 38 L 128 38 L 128 76.800781 L 0 76.800781 Z M 0 38 "/>
</clipPath>
<clipPath id="clip2">
  <path d="M 0 0 L 75 0 L 75 76.800781 L 0 76.800781 Z M 0 0 "/>
</clipPath>
</defs>
<g id="surface1192">
<path style=" stroke:none;fill-rule:evenodd;fill:rgb(82.351685%,6.274414%,20.391846%);fill-opacity:1;" d="M 0 0 L 128 0 L 128 38.398438 L 0 38.398438 Z M 0 0 "/>
<g clip-path="url(#clip1)" clip-rule="nonzero">
<path style=" stroke:none;fill-rule:evenodd;fill:rgb(0%,58.430481%,26.274109%);fill-opacity:1;" d="M 0 38.398438 L 128 38.398438 L 128 76.800781 L 0 76.800781 Z M 0 38.398438 "/>
</g>
<g clip-path="url(#clip2)" clip-rule="nonzero">
<path style=" stroke:none;fill-rule:evenodd;fill:rgb(0%,0%,0%);fill-opacity:1;" d="M 0 0 L 74.484375 38.398438 L 0 76.800781 Z M 0 0 "/>
</g>
<path style=" stroke:none;fill-rule:evenodd;fill:rgb(0%,0%,0%);fill-opacity:1;" d="M 0 31.527344 L 128 31.527344 L 128 45.273438 L 0 45.273438 Z M 0 31.527344 "/>
<path style=" stroke:none;fill-rule:evenodd;fill:rgb(99.214172%,80.783081%,7.058716%);fill-opacity:1;" d="M 0 5.457031 L 63.898438 38.398438 L 0 71.34375 Z M 0 5.457031 "/>
<path style=" stroke:none;fill-rule:evenodd;fill:rgb(99.214172%,80.783081%,7.058716%);fill-opacity:1;" d="M 0 36.378906 L 128 36.378906 L 128 40.421875 L 0 40.421875 Z M 0 36.378906 "/>
<path style=" stroke:none;fill-rule:evenodd;fill:rgb(0%,0%,0%);fill-opacity:1;" d="M 0 10.003906 L 55.078125 38.398438 L 0 66.792969 Z M 0 10.003906 "/>
<path style=" stroke:none;fill-rule:evenodd;fill:rgb(99.214172%,80.783081%,7.058716%);fill-opacity:1;" d="M 15.558594 45.746094 L 15.558594 50.121094 C 19.367188 50.121094 26.835938 47.207031 26.835938 37.8125 C 26.835938 28.421875 18.867188 26.679688 16.484375 26.679688 C 14.101562 26.679688 6.738281 28.386719 6.738281 36.070312 C 6.738281 43.753906 13.957031 44.464844 15.382812 44.464844 C 16.804688 44.464844 22.140625 43.183594 21.535156 37.421875 C 21.535156 39.058594 19.6875 42.507812 15.808594 42.507812 C 11.929688 42.507812 9.511719 39.628906 9.511719 36.78125 C 9.511719 33.933594 11.859375 30.128906 15.949219 30.128906 C 20.042969 30.128906 23.03125 33.757812 23.03125 37.421875 C 23.03125 41.085938 20.148438 45.746094 15.558594 45.746094 Z M 15.558594 45.746094 "/>
<path style="fill-rule:evenodd;fill:rgb(99.214172%,80.783081%,7.058716%);fill-opacity:1;stroke-width:0.134737;stroke-linecap:butt;stroke-linejoin:miter;stroke:rgb(99.214172%,80.783081%,7.058716%);stroke-opacity:1;stroke-miterlimit:4;" d="M 12.222656 40.050781 L 12.449219 40.195312 C 12.449219 40.195312 14.253906 36.085938 19.09375 33.164062 C 18.480469 33.5 15.238281 35.113281 12.222656 40.050781 Z M 12.222656 40.050781 "/>
<path style=" stroke:none;fill-rule:evenodd;fill:rgb(99.214172%,80.783081%,7.058716%);fill-opacity:1;" d="M 12.691406 39.34375 C 12.691406 39.34375 12.132812 38.195312 12.625 37.6875 C 13.117188 37.179688 12.890625 39.035156 12.890625 39.035156 L 13.105469 38.730469 C 13.105469 38.730469 12.769531 37.328125 13.144531 37.035156 C 13.519531 36.742188 13.332031 38.382812 13.332031 38.382812 L 13.558594 38.089844 C 13.558594 38.089844 13.320312 36.726562 13.679688 36.472656 C 14.039062 36.222656 13.8125 37.753906 13.8125 37.753906 L 14.078125 37.449219 C 14.078125 37.449219 13.878906 36.152344 14.320312 35.847656 C 14.757812 35.539062 14.371094 37.074219 14.371094 37.074219 L 14.664062 36.753906 C 14.664062 36.753906 14.53125 35.566406 14.90625 35.300781 C 15.277344 35.035156 14.960938 36.421875 14.960938 36.421875 L 15.226562 36.140625 C 15.226562 36.140625 15.144531 35.035156 15.507812 34.78125 C 15.867188 34.527344 15.535156 35.835938 15.535156 35.835938 L 15.8125 35.566406 C 15.8125 35.566406 15.746094 34.460938 16.199219 34.246094 C 16.652344 34.035156 16.121094 35.289062 16.121094 35.289062 L 16.425781 35.019531 C 16.425781 35.019531 16.519531 33.726562 16.90625 33.605469 C 17.292969 33.488281 16.734375 34.753906 16.734375 34.753906 L 17.011719 34.527344 C 17.011719 34.527344 17.160156 33.417969 17.585938 33.285156 C 18.015625 33.152344 17.320312 34.300781 17.320312 34.300781 L 17.601562 34.085938 C 17.601562 34.085938 17.90625 32.980469 18.308594 32.859375 C 18.707031 32.738281 17.894531 33.898438 17.894531 33.898438 L 18.160156 33.714844 C 18.160156 33.714844 18.601562 32.710938 18.960938 32.644531 C 19.320312 32.578125 18.5625 33.472656 18.5625 33.472656 L 18.894531 33.273438 C 18.894531 33.273438 19.46875 32.230469 19.667969 32.550781 C 19.867188 32.871094 18.867188 33.339844 18.867188 33.339844 L 18.535156 33.527344 C 18.535156 33.527344 19.75 32.953125 19.894531 33.246094 C 20.042969 33.539062 18.226562 33.726562 18.226562 33.726562 L 17.933594 33.925781 C 17.933594 33.925781 19.148438 33.59375 19 33.898438 C 18.855469 34.207031 17.652344 34.140625 17.652344 34.140625 L 17.375 34.339844 C 17.375 34.339844 18.585938 34.046875 18.429688 34.328125 C 18.269531 34.605469 17.082031 34.582031 17.082031 34.582031 L 16.789062 34.820312 C 16.789062 34.820312 17.972656 34.511719 17.800781 34.875 C 17.628906 35.234375 16.28125 35.222656 16.28125 35.222656 L 15.945312 35.527344 C 15.945312 35.527344 17.199219 35.101562 17.09375 35.433594 C 16.988281 35.769531 15.558594 35.941406 15.558594 35.941406 L 15.238281 36.261719 C 15.238281 36.261719 16.585938 35.808594 16.1875 36.222656 C 15.785156 36.632812 14.8125 36.742188 14.8125 36.742188 L 14.425781 37.207031 C 14.425781 37.207031 15.757812 36.40625 15.574219 36.863281 C 15.386719 37.316406 14.078125 37.621094 14.078125 37.621094 L 13.8125 37.941406 C 13.8125 37.941406 15.011719 37.246094 14.894531 37.636719 C 14.773438 38.023438 13.492188 38.433594 13.492188 38.433594 L 13.277344 38.730469 C 13.277344 38.730469 14.691406 37.886719 14.570312 38.316406 C 14.453125 38.742188 13.105469 39.050781 13.105469 39.050781 L 12.929688 39.316406 C 12.929688 39.316406 14.238281 38.570312 14.253906 38.929688 C 14.265625 39.289062 12.71875 39.648438 12.71875 39.648438 Z M 12.691406 39.34375 "/>
<path style="fill-rule:evenodd;fill:rgb(99.214172%,80.783081%,7.058716%);fill-opacity:1;stroke-width:0.134737;stroke-linecap:butt;stroke-linejoin:miter;stroke:rgb(99.214172%,80.783081%,7.058716%);stroke-opacity:1;stroke-miterlimit:4;" d="M 19.910156 40.050781 L 19.683594 40.195312 C 19.683594 40.195312 17.882812 36.085938 13.039062 33.164062 C 13.652344 33.5 16.894531 35.113281 19.910156 40.050781 Z M 19.910156 40.050781 "/>
<path style=" stroke:none;fill-rule:evenodd;fill:rgb(99.214172%,80.783081%,7.058716%);fill-opacity:1;" d="M 19.445312 39.34375 C 19.445312 39.34375 20.003906 38.195312 19.511719 37.6875 C 19.015625 37.179688 19.242188 39.035156 19.242188 39.035156 L 19.03125 38.730469 C 19.03125 38.730469 19.363281 37.328125 18.988281 37.035156 C 18.617188 36.742188 18.804688 38.382812 18.804688 38.382812 L 18.574219 38.089844 C 18.574219 38.089844 18.816406 36.726562 18.457031 36.472656 C 18.097656 36.222656 18.324219 37.753906 18.324219 37.753906 L 18.054688 37.449219 C 18.054688 37.449219 18.257812 36.152344 17.816406 35.847656 C 17.375 35.539062 17.761719 37.074219 17.761719 37.074219 L 17.46875 36.753906 C 17.46875 36.753906 17.601562 35.566406 17.230469 35.300781 C 16.855469 35.035156 17.175781 36.421875 17.175781 36.421875 L 16.910156 36.140625 C 16.910156 36.140625 16.988281 35.035156 16.628906 34.78125 C 16.269531 34.527344 16.601562 35.835938 16.601562 35.835938 L 16.320312 35.566406 C 16.320312 35.566406 16.386719 34.460938 15.933594 34.246094 C 15.480469 34.035156 16.015625 35.289062 16.015625 35.289062 L 15.707031 35.019531 C 15.707031 35.019531 15.613281 33.726562 15.226562 33.605469 C 14.839844 33.488281 15.402344 34.753906 15.402344 34.753906 L 15.121094 34.527344 C 15.121094 34.527344 14.972656 33.417969 14.546875 33.285156 C 14.121094 33.152344 14.816406 34.300781 14.816406 34.300781 L 14.535156 34.085938 C 14.535156 34.085938 14.226562 32.980469 13.828125 32.859375 C 13.425781 32.738281 14.242188 33.898438 14.242188 33.898438 L 13.972656 33.714844 C 13.972656 33.714844 13.535156 32.710938 13.171875 32.644531 C 12.8125 32.578125 13.574219 33.472656 13.574219 33.472656 L 13.238281 33.273438 C 13.238281 33.273438 12.667969 32.230469 12.464844 32.550781 C 12.265625 32.871094 13.265625 33.339844 13.265625 33.339844 L 13.601562 33.527344 C 13.601562 33.527344 12.386719 32.953125 12.238281 33.246094 C 12.09375 33.539062 13.90625 33.726562 13.90625 33.726562 L 14.199219 33.925781 C 14.199219 33.925781 12.988281 33.59375 13.132812 33.898438 C 13.28125 34.207031 14.480469 34.140625 14.480469 34.140625 L 14.761719 34.339844 C 14.761719 34.339844 13.546875 34.046875 13.707031 34.328125 C 13.867188 34.605469 15.054688 34.582031 15.054688 34.582031 L 15.347656 34.820312 C 15.347656 34.820312 14.160156 34.511719 14.332031 34.875 C 14.507812 35.234375 15.855469 35.222656 15.855469 35.222656 L 16.1875 35.527344 C 16.1875 35.527344 14.933594 35.101562 15.039062 35.433594 C 15.148438 35.769531 16.574219 35.941406 16.574219 35.941406 L 16.894531 36.261719 C 16.894531 36.261719 15.546875 35.808594 15.949219 36.222656 C 16.347656 36.632812 17.320312 36.742188 17.320312 36.742188 L 17.710938 37.207031 C 17.710938 37.207031 16.375 36.40625 16.5625 36.863281 C 16.75 37.316406 18.054688 37.621094 18.054688 37.621094 L 18.324219 37.941406 C 18.324219 37.941406 17.121094 37.246094 17.242188 37.636719 C 17.363281 38.023438 18.644531 38.433594 18.644531 38.433594 L 18.855469 38.730469 C 18.855469 38.730469 17.441406 37.886719 17.5625 38.316406 C 17.683594 38.742188 19.03125 39.050781 19.03125 39.050781 L 19.203125 39.316406 C 19.203125 39.316406 17.894531 38.570312 17.882812 38.929688 C 17.867188 39.289062 19.417969 39.648438 19.417969 39.648438 Z M 19.445312 39.34375 "/>
</g>
</svg>
