<?xml version="1.0" encoding="UTF-8"?>
<svg xmlns="http://www.w3.org/2000/svg" xmlns:xlink="http://www.w3.org/1999/xlink" width="113pt" height="85pt" viewBox="0 0 113 85" version="1.1">
<g id="surface1216">
<rect x="0" y="0" width="113" height="85" style="fill:rgb(85.488892%,14.509583%,11.372375%);fill-opacity:1;stroke:none;"/>
<path style=" stroke:none;fill-rule:evenodd;fill:rgb(99.998474%,99.998474%,0%);fill-opacity:1;" d="M 56.667969 25.5 L 51.414062 41.667969 L 62.191406 45.171875 Z M 56.667969 25.5 "/>
<path style=" stroke:none;fill-rule:evenodd;fill:rgb(99.998474%,99.998474%,0%);fill-opacity:1;" d="M 56.667969 25.5 L 61.921875 41.667969 L 51.140625 45.171875 Z M 56.667969 25.5 "/>
<path style=" stroke:none;fill-rule:evenodd;fill:rgb(99.998474%,99.998474%,0%);fill-opacity:1;" d="M 72.835938 37.246094 L 55.835938 37.246094 L 55.835938 48.578125 Z M 72.835938 37.246094 "/>
<path style=" stroke:none;fill-rule:evenodd;fill:rgb(99.998474%,99.998474%,0%);fill-opacity:1;" d="M 72.835938 37.246094 L 59.082031 47.238281 L 52.417969 38.070312 Z M 72.835938 37.246094 "/>
<path style=" stroke:none;fill-rule:evenodd;fill:rgb(99.998474%,99.998474%,0%);fill-opacity:1;" d="M 66.660156 56.253906 L 61.40625 40.085938 L 50.625 43.585938 Z M 66.660156 56.253906 "/>
<path style=" stroke:none;fill-rule:evenodd;fill:rgb(99.998474%,99.998474%,0%);fill-opacity:1;" d="M 66.660156 56.253906 L 52.90625 46.261719 L 59.566406 37.09375 Z M 66.660156 56.253906 "/>
<path style=" stroke:none;fill-rule:evenodd;fill:rgb(99.998474%,99.998474%,0%);fill-opacity:1;" d="M 40.5 37.246094 L 57.5 37.246094 L 57.5 48.578125 Z M 40.5 37.246094 "/>
<path style=" stroke:none;fill-rule:evenodd;fill:rgb(99.998474%,99.998474%,0%);fill-opacity:1;" d="M 40.5 37.246094 L 54.253906 47.238281 L 60.914062 38.070312 Z M 40.5 37.246094 "/>
<path style=" stroke:none;fill-rule:evenodd;fill:rgb(99.998474%,99.998474%,0%);fill-opacity:1;" d="M 46.675781 56.253906 L 51.925781 40.085938 L 62.707031 43.585938 Z M 46.675781 56.253906 "/>
<path style=" stroke:none;fill-rule:evenodd;fill:rgb(99.998474%,99.998474%,0%);fill-opacity:1;" d="M 46.675781 56.253906 L 60.425781 46.261719 L 53.765625 37.09375 Z M 46.675781 56.253906 "/>
</g>
</svg>
