<svg viewBox="0 0 1000 500" xmlns="http://www.w3.org/2000/svg"><g fill-rule="evenodd"><path d="m0 0h1000v250h-1000zm0 0"/><path d="m0 250h1000v250h-1000zm0 0" fill="#007a3d"/><path d="m0 166.667969h1000v166.664062h-1000zm0 0" fill="#fff"/><path d="m0 0 333.332031 250-333.332031 250zm0 0" fill="#c4111b"/><path d="m566.667969 250c0 36.816406-29.851563 66.667969-66.667969 66.667969s-66.667969-29.851563-66.667969-66.667969 29.851563-66.667969 66.667969-66.667969 66.667969 29.851563 66.667969 66.667969zm0 0" fill="#c4111b"/><path d="m591.667969 250c0 36.816406-29.851563 66.667969-66.667969 66.667969s-66.667969-29.851563-66.667969-66.667969 29.851563-66.667969 66.667969-66.667969 66.667969 29.851563 66.667969 66.667969zm0 0" fill="#fff"/><path d="m482.105469 290.363281 28.425781-20.320312 28.207031 20.628906-10.539062-33.316406 28.328125-20.449219-34.9375-.269531-10.695313-33.269531-11.058593 33.15625-34.9375-.113282 28.113281 20.757813zm0 0" fill="#c4111b"/></g></svg>