<?xml version="1.0" encoding="UTF-8"?>
<svg xmlns="http://www.w3.org/2000/svg" xmlns:xlink="http://www.w3.org/1999/xlink" width="127pt" height="85pt" viewBox="0 0 127 85" version="1.1">
<g id="surface1241">
<rect x="0" y="0" width="127" height="85" style="fill:rgb(9.803772%,54.116821%,0%);fill-opacity:1;stroke:none;"/>
<path style=" stroke:none;fill-rule:evenodd;fill:rgb(93.72406%,49.01886%,0%);fill-opacity:1;" d="M 112.320312 30.355469 L 127.5 30.355469 L 127.5 85 L 112.320312 85 Z M 112.320312 30.355469 "/>
<path style=" stroke:none;fill-rule:evenodd;fill:rgb(0%,0%,0%);fill-opacity:1;" d="M 97.144531 30.355469 L 112.320312 30.355469 L 112.320312 85 L 97.144531 85 Z M 97.144531 30.355469 "/>
<path style=" stroke:none;fill-rule:evenodd;fill:rgb(87.057495%,12.548828%,6.274414%);fill-opacity:1;" d="M 81.964844 30.355469 L 97.144531 30.355469 L 97.144531 85 L 81.964844 85 Z M 81.964844 30.355469 "/>
<path style="fill-rule:evenodd;fill:rgb(93.72406%,49.01886%,0%);fill-opacity:1;stroke-width:0.136607;stroke-linecap:butt;stroke-linejoin:miter;stroke:rgb(0%,0%,0%);stroke-opacity:1;stroke-miterlimit:4;" d="M 116.355469 10.21875 C 116.355469 10.21875 121.574219 8.175781 122.082031 7.753906 C 122.3125 8.003906 119.988281 10.578125 115.480469 11.527344 C 119.574219 10.640625 123.070312 7.855469 123.785156 7.941406 C 123.992188 7.984375 123.945312 10.664062 114.558594 12.984375 C 121.046875 11.421875 124.820312 8.554688 124.773438 8.871094 C 124.820312 8.933594 124.128906 11.128906 118.449219 12.835938 C 120.035156 12.5 124.335938 10.09375 124.289062 10.558594 C 124.429688 10.746094 120.125 15.8125 112.351562 14.164062 C 118.5625 15.640625 122.585938 12.078125 123.164062 12.140625 C 123.277344 12.160156 122.011719 15.261719 114.191406 15.453125 C 117.941406 15.09375 116.859375 15.429688 116.859375 15.429688 C 116.859375 15.429688 114.652344 17.011719 111.984375 15.9375 C 114.078125 16.464844 114.308594 16.484375 114.351562 16.65625 C 114.214844 16.867188 112.488281 17.183594 110.832031 16.359375 C 112.167969 16.867188 113.363281 16.949219 113.386719 17.140625 C 113.363281 17.203125 112.511719 17.648438 111.753906 17.332031 C 110.996094 17.011719 104.003906 13.070312 104.003906 13.070312 L 115.917969 10.074219 Z M 116.355469 10.21875 "/>
<path style="fill-rule:evenodd;fill:rgb(93.72406%,49.01886%,0%);fill-opacity:1;stroke-width:0.136607;stroke-linecap:butt;stroke-linejoin:miter;stroke:rgb(0%,0%,0%);stroke-opacity:1;stroke-miterlimit:4;" d="M 102.347656 20.890625 C 101.300781 20.890625 101.269531 21.746094 101.269531 21.746094 C 101.269531 21.746094 101.183594 21.808594 101.242188 22.222656 C 101.414062 21.941406 101.5 21.851562 101.5 21.851562 C 101.617188 21.871094 102.097656 22.003906 102.855469 21.457031 C 102.164062 22.117188 102.578125 22.363281 102.578125 22.363281 C 102.578125 22.363281 102.414062 22.882812 102.941406 22.992188 C 102.78125 22.777344 102.875 22.59375 102.875 22.59375 C 102.875 22.59375 103.617188 22.523438 103.566406 21.695312 C 103.597656 22.445312 104.039062 22.628906 104.039062 22.628906 C 104.039062 22.628906 104.039062 23.042969 104.519531 23.078125 C 104.261719 22.867188 104.316406 22.539062 104.316406 22.539062 C 104.316406 22.539062 104.941406 22.125 104.414062 21.421875 C 104.730469 21.253906 104.992188 20.785156 104.992188 20.785156 C 104.992188 20.785156 104.558594 20.617188 104.355469 20.476562 C 104.257812 20.292969 104.347656 19.277344 104.347656 19.277344 L 104.085938 17.964844 L 103.347656 20.011719 C 103.375 19.71875 103.394531 20.890625 102.347656 20.890625 Z M 102.347656 20.890625 "/>
<path style="fill-rule:evenodd;fill:rgb(93.72406%,49.01886%,0%);fill-opacity:1;stroke-width:0.136607;stroke-linecap:butt;stroke-linejoin:miter;stroke:rgb(0%,0%,0%);stroke-opacity:1;stroke-miterlimit:4;" d="M 107.523438 17.941406 C 107.542969 17.964844 108.304688 18.742188 109.039062 18.703125 C 109.316406 18.492188 108.464844 18.027344 108.464844 17.921875 C 108.761719 18.175781 110.027344 19.164062 110.832031 18.808594 C 111.15625 18.386719 110.257812 18.449219 109.269531 17.308594 C 109.960938 17.730469 111.683594 18.660156 112.488281 18.300781 C 112.835938 17.964844 110.695312 16.90625 109.984375 16.085938 L 108.144531 15.21875 L 105.636719 17.097656 Z M 107.523438 17.941406 "/>
<path style="fill-rule:evenodd;fill:rgb(93.72406%,49.01886%,0%);fill-opacity:1;stroke-width:0.136607;stroke-linecap:butt;stroke-linejoin:miter;stroke:rgb(0%,0%,0%);stroke-opacity:1;stroke-miterlimit:4;" d="M 104.691406 11.527344 C 104.691406 11.527344 105.542969 11.0625 108.949219 11.296875 C 109.316406 11.339844 111.269531 10.683594 111.890625 10.496094 C 112.882812 10.324219 116.03125 9.691406 116.882812 9.101562 C 117.480469 9.039062 116.722656 10.113281 115.964844 10.367188 C 115.160156 10.707031 112.238281 11.632812 111.203125 11.507812 C 112.445312 11.527344 111.753906 12.457031 109.683594 12.011719 C 110.671875 12.519531 110.304688 12.605469 110.304688 12.605469 C 110.304688 12.605469 108.558594 12.6875 108.097656 12.328125 C 109.269531 12.730469 108.785156 12.878906 108.785156 12.878906 C 108.785156 12.878906 107.589844 12.984375 107.039062 12.753906 C 107.890625 12.984375 107.453125 13.132812 107.453125 13.132812 C 107.453125 13.132812 106.761719 13.238281 106.1875 13.046875 C 105.613281 12.859375 104.738281 11.527344 104.691406 11.527344 Z M 104.691406 11.527344 "/>
<path style="fill-rule:evenodd;fill:rgb(93.72406%,49.01886%,0%);fill-opacity:1;stroke-width:0.136607;stroke-linecap:butt;stroke-linejoin:miter;stroke:rgb(0%,0%,0%);stroke-opacity:1;stroke-miterlimit:4;" d="M 106.058594 18.378906 L 106.183594 20.441406 C 106.183594 20.441406 106.113281 20.546875 106.058594 20.609375 C 106 20.671875 104.460938 20.390625 104.671875 21.464844 C 104.671875 21.90625 104.683594 22.019531 105.007812 22.265625 C 104.921875 21.976562 104.953125 21.773438 104.953125 21.773438 C 104.953125 21.773438 105.382812 22.011719 105.808594 21.359375 C 105.519531 22.003906 105.722656 22.230469 105.789062 22.25 C 105.855469 22.363281 105.671875 22.882812 106.25 22.875 C 106.027344 22.683594 106.132812 22.398438 106.132812 22.398438 C 106.132812 22.398438 106.738281 22.3125 106.527344 21.304688 C 106.75 21.105469 106.835938 21.296875 106.835938 21.296875 C 106.835938 21.296875 106.902344 21.898438 107.433594 21.773438 C 107.671875 21.898438 107.394531 22.222656 107.394531 22.222656 C 107.394531 22.222656 107.777344 22.230469 107.894531 21.933594 C 108.007812 21.632812 108.144531 21.09375 107.507812 20.875 C 107.433594 20.664062 107.757812 20.644531 107.757812 20.644531 C 107.757812 20.644531 108.164062 20.769531 108.277344 20.953125 C 108.394531 21.140625 108.355469 20.46875 107.855469 20.398438 C 107.238281 20.378906 107.203125 20.265625 107.203125 20.238281 C 107.203125 20.214844 107.09375 18.742188 107.046875 18.316406 Z M 106.058594 18.378906 "/>
<path style="fill-rule:evenodd;fill:rgb(93.72406%,49.01886%,0%);fill-opacity:1;stroke-width:0.136607;stroke-linecap:butt;stroke-linejoin:miter;stroke:rgb(0%,0%,0%);stroke-opacity:1;stroke-miterlimit:4;" d="M 108.195312 20.136719 C 108.203125 20.042969 107.148438 18.738281 107.414062 18.570312 C 107.683594 18.621094 108.125 19.214844 108.480469 19.019531 C 108.371094 18.789062 108.054688 18.917969 107.691406 18.328125 C 107.332031 17.65625 107.277344 16.652344 106.011719 15.554688 C 106.832031 16.714844 108.691406 17.394531 108.769531 17.058594 C 108.847656 16.71875 107.132812 15.4375 107.21875 15.128906 C 107.5625 15.765625 109.285156 17.175781 110.550781 17.058594 C 110.640625 16.785156 109.511719 16.238281 109.222656 15.726562 C 108.414062 15.226562 106.246094 13.511719 106.199219 13.113281 C 105.410156 12.058594 104.917969 11.738281 104.691406 11.617188 C 104.601562 11.523438 104.578125 11.429688 104.5625 11.371094 C 104.070312 10.3125 104.71875 9.96875 105.101562 9.917969 C 105.414062 9.886719 105.503906 9.929688 105.730469 9.828125 C 105.460938 9.734375 105.195312 9.644531 104.929688 9.550781 C 105.277344 9.78125 106.164062 9.578125 105.972656 10.25 C 106.359375 10.113281 107.1875 9.210938 105.035156 9.007812 C 104.332031 8.269531 101.453125 7.847656 100.730469 11.066406 C 100.789062 11.109375 100.816406 11.148438 101 11.273438 C 100.089844 10.867188 97.636719 10.554688 96.75 10.425781 C 94.363281 9.792969 91.878906 8.269531 91.640625 8.457031 C 91.320312 8.585938 93.085938 10.089844 92.992188 10.125 C 91.464844 9.304688 90.066406 8.726562 88.769531 8.199219 C 87.855469 7.886719 86.9375 7.15625 86.835938 7.296875 C 86.5 7.933594 88.304688 9.542969 88.636719 9.730469 C 88.972656 9.910156 91.609375 11.035156 91.570312 11.046875 C 87.601562 9.394531 86.933594 9.09375 86.734375 8.902344 C 86.386719 8.832031 85.53125 7.777344 85.296875 7.84375 C 85.164062 7.960938 85.425781 9.628906 87.320312 10.378906 C 87.628906 10.585938 91.382812 11.820312 91.347656 11.917969 C 91.335938 11.941406 87.046875 10.292969 86.878906 10.234375 C 86.054688 9.9375 85.039062 8.894531 84.847656 9.011719 C 84.667969 9.117188 85.316406 10.246094 86.152344 10.601562 C 86.589844 10.777344 88.269531 11.539062 89.785156 12.027344 C 89.882812 12.058594 87.0625 11.046875 85.710938 10.527344 C 85.09375 10.214844 84.804688 9.824219 84.710938 9.910156 C 84.574219 9.992188 84.9375 11.660156 89.289062 12.601562 C 89.402344 12.644531 90.820312 12.292969 90.75 12.339844 C 90.734375 12.351562 89.34375 12.628906 89.207031 12.617188 C 89.085938 12.601562 88.324219 12.699219 88.3125 12.738281 C 88.265625 12.851562 88.589844 13.445312 90.835938 13.324219 C 91.121094 13.304688 92.683594 12.800781 92.550781 12.910156 C 92.484375 12.964844 90.429688 13.578125 90.269531 13.589844 C 90.136719 13.609375 89.414062 13.675781 89.386719 13.746094 C 89.351562 13.84375 89.921875 14.269531 91.128906 14.335938 C 92.195312 14.386719 94.226562 13.738281 94.1875 13.78125 C 94.144531 13.820312 92.230469 14.425781 92.179688 14.460938 C 92.109375 14.496094 91.40625 14.53125 91.382812 14.582031 C 91.324219 14.703125 92.394531 15.621094 95.558594 14.644531 C 95.242188 15.035156 93.707031 15.304688 93.710938 15.375 C 93.703125 15.429688 94.046875 15.734375 94.582031 15.84375 C 94.851562 15.898438 95.21875 15.886719 95.554688 15.839844 C 96.15625 15.726562 96.789062 15.507812 97.597656 14.824219 C 97.695312 15.039062 95.582031 16.019531 95.683594 16.113281 C 96.140625 16.503906 97.660156 16.0625 97.757812 16.011719 C 97.859375 15.960938 100.6875 14.5 100.675781 14.328125 C 100.722656 14.546875 97.03125 16.386719 97.070312 16.460938 C 97.308594 16.808594 98.570312 16.441406 98.628906 16.410156 C 98.6875 16.378906 100.238281 15.613281 100.28125 15.589844 C 100.320312 15.566406 98.460938 16.589844 98.625 16.742188 C 98.546875 17.40625 101.535156 16.285156 101.769531 16.144531 C 101.886719 16.078125 100.332031 16.773438 100.328125 17.101562 C 100.828125 17.878906 102.429688 17.632812 102.675781 17.460938 C 102.800781 17.375 102.53125 18.039062 102.617188 17.976562 C 102.648438 17.964844 102.964844 17.621094 103.089844 17.371094 C 103.050781 17.585938 102.875 17.929688 102.769531 18.320312 C 102.667969 18.710938 102.640625 19.152344 102.5 19.621094 C 102.464844 19.828125 103.484375 19.21875 103.335938 17.761719 C 103.425781 18.519531 103.015625 19.9375 103.121094 20.011719 C 103.335938 20.160156 103.929688 19.304688 103.988281 18.730469 C 104.164062 19.019531 104.53125 19.628906 104.847656 19.769531 C 104.816406 19.328125 104.855469 19.347656 104.710938 18.914062 C 104.796875 18.339844 104.804688 17.542969 104.828125 16.644531 C 105.6875 18.160156 106.03125 18.800781 105.792969 19.960938 C 106.046875 20.058594 106.457031 19.148438 106.425781 18.683594 C 106.753906 19.980469 108.175781 20.175781 108.195312 20.136719 Z M 108.195312 20.136719 "/>
<path style=" stroke:none;fill-rule:evenodd;fill:rgb(93.72406%,49.01886%,0%);fill-opacity:1;" d="M 93.839844 10.519531 C 93.839844 10.519531 93.25 10.925781 92.519531 10.902344 C 92.703125 11.574219 94.214844 11.058594 94.214844 11.058594 C 94.214844 11.058594 93.488281 11.800781 92.964844 11.921875 C 93.277344 12.160156 94.59375 12.074219 94.816406 11.957031 C 95.039062 11.835938 95.429688 11.371094 95.429688 11.371094 C 95.429688 11.371094 94.074219 12.804688 93.878906 12.792969 C 93.851562 12.960938 95.300781 12.902344 95.597656 12.648438 C 95.898438 12.398438 96.65625 12.027344 96.65625 12.027344 C 96.65625 12.027344 94.671875 13.296875 94.582031 13.296875 C 95.324219 13.476562 96.8125 13.082031 97.761719 12.542969 C 96.355469 13.402344 96.226562 13.558594 95.507812 13.847656 C 96.144531 13.976562 96.472656 14.371094 98.636719 13.511719 C 99.875 12.972656 100.578125 11.992188 100.578125 11.992188 C 99.808594 12.9375 98.597656 13.738281 97.253906 14.527344 C 97.175781 14.671875 98.6875 15.257812 100.617188 13.414062 Z M 93.839844 10.519531 "/>
<path style="fill:none;stroke-width:0.136607;stroke-linecap:butt;stroke-linejoin:miter;stroke:rgb(0%,0%,0%);stroke-opacity:1;stroke-miterlimit:4;" d="M 93.839844 10.519531 C 93.839844 10.519531 93.25 10.925781 92.519531 10.902344 C 92.703125 11.574219 94.214844 11.058594 94.214844 11.058594 C 94.214844 11.058594 93.488281 11.800781 92.964844 11.921875 C 93.277344 12.160156 94.59375 12.074219 94.816406 11.957031 C 95.039062 11.835938 95.429688 11.371094 95.429688 11.371094 C 95.429688 11.371094 94.074219 12.804688 93.878906 12.792969 C 93.851562 12.960938 95.300781 12.902344 95.597656 12.648438 C 95.898438 12.398438 96.65625 12.027344 96.65625 12.027344 C 96.65625 12.027344 94.671875 13.296875 94.582031 13.296875 C 95.324219 13.476562 96.8125 13.082031 97.761719 12.542969 C 96.355469 13.402344 96.226562 13.558594 95.507812 13.847656 C 96.144531 13.976562 96.472656 14.371094 98.636719 13.511719 C 99.875 12.972656 100.578125 11.992188 100.578125 11.992188 C 99.808594 12.9375 98.597656 13.738281 97.253906 14.527344 C 97.175781 14.671875 98.6875 15.257812 100.617188 13.414062 "/>
<path style=" stroke:none;fill-rule:evenodd;fill:rgb(93.72406%,49.01886%,0%);fill-opacity:1;" d="M 104.320312 14.515625 C 104.320312 14.515625 104.453125 15.078125 104.972656 15.507812 C 105.496094 15.9375 105.535156 16.355469 105.535156 16.355469 Z M 104.320312 14.515625 "/>
<path style="fill:none;stroke-width:0.136607;stroke-linecap:butt;stroke-linejoin:miter;stroke:rgb(0%,0%,0%);stroke-opacity:1;stroke-miterlimit:4;" d="M 104.320312 14.515625 C 104.320312 14.515625 104.453125 15.078125 104.972656 15.507812 C 105.496094 15.9375 105.535156 16.355469 105.535156 16.355469 "/>
<path style=" stroke:none;fill-rule:evenodd;fill:rgb(93.72406%,49.01886%,0%);fill-opacity:1;" d="M 104.0625 10.855469 C 104.0625 10.855469 104.242188 11.359375 104.777344 11.679688 C 105.324219 12.003906 106.148438 13.019531 106.210938 13.199219 C 106.277344 13.417969 106.589844 14.980469 106.566406 15.148438 Z M 104.0625 10.855469 "/>
<path style="fill:none;stroke-width:0.136607;stroke-linecap:butt;stroke-linejoin:miter;stroke:rgb(0%,0%,0%);stroke-opacity:1;stroke-miterlimit:4;" d="M 104.0625 10.855469 C 104.0625 10.855469 104.242188 11.359375 104.777344 11.679688 C 105.324219 12.003906 106.148438 13.019531 106.210938 13.199219 C 106.277344 13.417969 106.589844 14.980469 106.566406 15.148438 "/>
<path style=" stroke:none;fill-rule:evenodd;fill:rgb(93.72406%,49.01886%,0%);fill-opacity:1;" d="M 100.734375 11.632812 C 100.773438 11.824219 99.96875 12.792969 101.074219 13.929688 C 100.070312 15.054688 100.070312 15.195312 100.070312 15.195312 C 100.070312 15.195312 100.632812 15.484375 101.636719 14.695312 C 103.292969 16.5625 102.738281 17.414062 102.738281 17.414062 Z M 100.734375 11.632812 "/>
<path style="fill:none;stroke-width:0.136607;stroke-linecap:butt;stroke-linejoin:miter;stroke:rgb(0%,0%,0%);stroke-opacity:1;stroke-miterlimit:4;" d="M 100.734375 11.632812 C 100.773438 11.824219 99.96875 12.792969 101.074219 13.929688 C 100.070312 15.054688 100.070312 15.195312 100.070312 15.195312 C 100.070312 15.195312 100.632812 15.484375 101.636719 14.695312 C 103.292969 16.5625 102.738281 17.414062 102.738281 17.414062 "/>
<path style=" stroke:none;fill-rule:evenodd;fill:rgb(93.72406%,49.01886%,0%);fill-opacity:1;" d="M 102.609375 16.097656 C 102.609375 16.097656 102.457031 15.898438 102.726562 15.148438 C 102.972656 15.417969 103.246094 15.476562 103.363281 15.585938 C 103.484375 15.695312 104.734375 15.863281 104.8125 16.628906 Z M 102.609375 16.097656 "/>
<path style="fill:none;stroke-width:0.136607;stroke-linecap:butt;stroke-linejoin:miter;stroke:rgb(0%,0%,0%);stroke-opacity:1;stroke-miterlimit:4;" d="M 102.609375 16.097656 C 102.609375 16.097656 102.457031 15.898438 102.726562 15.148438 C 102.972656 15.417969 103.246094 15.476562 103.363281 15.585938 C 103.484375 15.695312 104.734375 15.863281 104.8125 16.628906 "/>
<path style="fill-rule:evenodd;fill:rgb(93.72406%,49.01886%,0%);fill-opacity:1;stroke-width:0.136607;stroke-linecap:butt;stroke-linejoin:miter;stroke:rgb(0%,0%,0%);stroke-opacity:1;stroke-miterlimit:4;" d="M 104.078125 9.074219 C 104.078125 9.015625 103.824219 8.519531 102.886719 9.140625 C 103.390625 9.167969 103.886719 9.433594 104.078125 9.074219 Z M 104.078125 9.074219 "/>
<path style=" stroke:none;fill-rule:evenodd;fill:rgb(93.72406%,49.01886%,0%);fill-opacity:1;" d="M 113.042969 11.339844 C 113.089844 11.359375 115.847656 11.90625 116.769531 11.632812 C 115.59375 13.070312 113.25 12.097656 113.25 12.097656 C 114.398438 12.414062 114.445312 12.394531 114.8125 12.6875 C 114.929688 12.960938 112.695312 12.835938 111.960938 12.457031 C 114.007812 13.046875 114.054688 13.003906 114.125 13.238281 C 114.214844 13.554688 110.765625 13.152344 110.464844 12.730469 C 111.386719 13.386719 111.890625 13.511719 112.398438 13.808594 C 111.777344 14.058594 110.625 14.3125 108.511719 12.941406 C 111.292969 15.261719 113.800781 15.113281 114.191406 15.535156 C 113.226562 16.84375 109.476562 14.757812 107.75 13.703125 C 106.027344 12.648438 111.523438 16.253906 112.03125 16.191406 C 111.777344 16.550781 109.960938 16.234375 109.84375 16.0625 Z M 113.042969 11.339844 "/>
<path style="fill:none;stroke-width:0.136607;stroke-linecap:butt;stroke-linejoin:miter;stroke:rgb(0%,0%,0%);stroke-opacity:1;stroke-miterlimit:4;" d="M 113.042969 11.339844 C 113.089844 11.359375 115.847656 11.90625 116.769531 11.632812 C 115.59375 13.070312 113.25 12.097656 113.25 12.097656 C 114.398438 12.414062 114.445312 12.394531 114.8125 12.6875 C 114.929688 12.960938 112.695312 12.835938 111.960938 12.457031 C 114.007812 13.046875 114.054688 13.003906 114.125 13.238281 C 114.214844 13.554688 110.765625 13.152344 110.464844 12.730469 C 111.386719 13.386719 111.890625 13.511719 112.398438 13.808594 C 111.777344 14.058594 110.625 14.3125 108.511719 12.941406 C 111.292969 15.261719 113.800781 15.113281 114.191406 15.535156 C 113.226562 16.84375 109.476562 14.757812 107.75 13.703125 C 106.027344 12.648438 111.523438 16.253906 112.03125 16.191406 C 111.777344 16.550781 109.960938 16.234375 109.84375 16.0625 "/>
<path style=" stroke:none;fill-rule:evenodd;fill:rgb(93.72406%,49.01886%,0%);fill-opacity:1;" d="M 113.753906 13.765625 C 113.433594 13.808594 112.46875 13.808594 112.328125 13.785156 Z M 113.753906 13.765625 "/>
<path style="fill:none;stroke-width:0.136607;stroke-linecap:butt;stroke-linejoin:miter;stroke:rgb(0%,0%,0%);stroke-opacity:1;stroke-miterlimit:4;" d="M 113.753906 13.765625 C 113.433594 13.808594 112.46875 13.808594 112.328125 13.785156 "/>
<path style=" stroke:none;fill-rule:evenodd;fill:rgb(93.72406%,49.01886%,0%);fill-opacity:1;" d="M 93.03125 10.136719 C 93.03125 10.136719 95.128906 11.15625 96.015625 11.082031 C 95.78125 11.285156 95.429688 11.371094 95.429688 11.371094 C 95.652344 11.453125 96.261719 11.753906 97.1875 11.5625 C 96.96875 11.765625 96.679688 11.992188 96.679688 11.992188 C 96.679688 11.992188 97.476562 12.265625 98.375 11.835938 C 98.101562 12.148438 97.945312 12.375 97.945312 12.375 L 98.570312 12.410156 Z M 93.03125 10.136719 "/>
<path style="fill:none;stroke-width:0.136607;stroke-linecap:butt;stroke-linejoin:miter;stroke:rgb(0%,0%,0%);stroke-opacity:1;stroke-miterlimit:4;" d="M 93.03125 10.136719 C 93.03125 10.136719 95.128906 11.15625 96.015625 11.082031 C 95.78125 11.285156 95.429688 11.371094 95.429688 11.371094 C 95.652344 11.453125 96.261719 11.753906 97.1875 11.5625 C 96.96875 11.765625 96.679688 11.992188 96.679688 11.992188 C 96.679688 11.992188 97.476562 12.265625 98.375 11.835938 C 98.101562 12.148438 97.945312 12.375 97.945312 12.375 L 98.570312 12.410156 "/>
</g>
</svg>
