<?xml version="1.0" encoding="UTF-8"?>
<svg xmlns="http://www.w3.org/2000/svg" xmlns:xlink="http://www.w3.org/1999/xlink" width="128pt" height="64pt" viewBox="0 0 128 64" version="1.1">
<g id="surface1246">
<path style=" stroke:none;fill-rule:evenodd;fill:rgb(19.215393%,57.254028%,3.137207%);fill-opacity:1;" d="M 0 0.125 L 127.90625 0.125 L 127.90625 64.078125 L 0 64.078125 Z M 0 0.125 "/>
<path style=" stroke:none;fill-rule:evenodd;fill:rgb(99.998474%,82.351685%,0%);fill-opacity:1;" d="M 0 9.261719 L 127.90625 9.261719 L 127.90625 54.945312 L 0 54.945312 Z M 0 9.261719 "/>
<path style=" stroke:none;fill-rule:evenodd;fill:rgb(87.057495%,12.548828%,6.274414%);fill-opacity:1;" d="M 0 18.398438 L 127.90625 18.398438 L 127.90625 45.808594 L 0 45.808594 Z M 0 18.398438 "/>
<path style=" stroke:none;fill-rule:evenodd;fill:rgb(0%,0%,0%);fill-opacity:1;" d="M 0 27.535156 L 127.90625 27.535156 L 127.90625 36.671875 L 0 36.671875 Z M 0 27.535156 "/>
<path style=" stroke:none;fill-rule:evenodd;fill:rgb(0%,0%,0%);fill-opacity:1;" d="M 2.324219 0.125 L 44.960938 32.101562 L 2.324219 64.078125 L 0 64.078125 L 0 0.125 Z M 2.324219 0.125 "/>
<path style=" stroke:none;fill-rule:evenodd;fill:rgb(99.998474%,99.998474%,99.998474%);fill-opacity:1;" d="M 0 0.125 L 42.636719 32.101562 L 0 64.078125 Z M 0 0.125 "/>
<path style=" stroke:none;fill-rule:evenodd;fill:rgb(87.057495%,12.548828%,6.274414%);fill-opacity:1;" d="M 17.257812 15.859375 L 10.070312 30.425781 L 20.992188 35.816406 Z M 17.257812 15.859375 "/>
<path style=" stroke:none;fill-rule:evenodd;fill:rgb(87.057495%,12.548828%,6.274414%);fill-opacity:1;" d="M 17.257812 15.859375 L 24.445312 30.425781 L 13.523438 35.816406 Z M 17.257812 15.859375 "/>
<path style=" stroke:none;fill-rule:evenodd;fill:rgb(87.057495%,12.548828%,6.274414%);fill-opacity:1;" d="M 17.257812 15.859375 L 11.8125 31.164062 L 23.292969 35.246094 Z M 17.257812 15.859375 "/>
<path style=" stroke:none;fill-rule:evenodd;fill:rgb(87.057495%,12.548828%,6.274414%);fill-opacity:1;" d="M 17.257812 15.859375 L 22.699219 31.164062 L 11.222656 35.246094 Z M 17.257812 15.859375 "/>
<path style=" stroke:none;fill-rule:evenodd;fill:rgb(87.057495%,12.548828%,6.274414%);fill-opacity:1;" d="M 32.703125 27.085938 L 16.628906 24.75 L 14.878906 36.804688 Z M 32.703125 27.085938 "/>
<path style=" stroke:none;fill-rule:evenodd;fill:rgb(87.057495%,12.548828%,6.274414%);fill-opacity:1;" d="M 1.808594 27.085938 L 17.882812 24.75 L 19.636719 36.804688 Z M 1.808594 27.085938 "/>
<path style=" stroke:none;fill-rule:evenodd;fill:rgb(87.057495%,12.548828%,6.274414%);fill-opacity:1;" d="M 32.703125 27.085938 L 16.46875 26.636719 L 16.132812 38.8125 Z M 32.703125 27.085938 "/>
<path style=" stroke:none;fill-rule:evenodd;fill:rgb(87.057495%,12.548828%,6.274414%);fill-opacity:1;" d="M 1.808594 27.085938 L 18.046875 26.636719 L 18.382812 38.8125 Z M 1.808594 27.085938 "/>
<path style=" stroke:none;fill-rule:evenodd;fill:rgb(87.057495%,12.548828%,6.274414%);fill-opacity:1;" d="M 17.257812 18.144531 L 11.53125 30.875 L 17.894531 33.738281 Z M 17.257812 18.144531 "/>
<path style=" stroke:none;fill-rule:evenodd;fill:rgb(87.057495%,12.548828%,6.274414%);fill-opacity:1;" d="M 17.257812 18.144531 L 22.984375 30.875 L 16.621094 33.738281 Z M 17.257812 18.144531 "/>
<path style=" stroke:none;fill-rule:evenodd;fill:rgb(87.057495%,12.548828%,6.274414%);fill-opacity:1;" d="M 25.460938 43.394531 L 22.613281 29.730469 L 15.78125 31.15625 Z M 25.460938 43.394531 "/>
<path style=" stroke:none;fill-rule:evenodd;fill:rgb(87.057495%,12.548828%,6.274414%);fill-opacity:1;" d="M 25.460938 43.394531 L 13.347656 36.464844 L 16.8125 30.40625 Z M 25.460938 43.394531 "/>
<path style=" stroke:none;fill-rule:evenodd;fill:rgb(87.057495%,12.548828%,6.274414%);fill-opacity:1;" d="M 9.050781 43.394531 L 21.167969 36.464844 L 17.703125 30.40625 Z M 9.050781 43.394531 "/>
<path style=" stroke:none;fill-rule:evenodd;fill:rgb(87.057495%,12.548828%,6.274414%);fill-opacity:1;" d="M 9.050781 43.394531 L 11.902344 29.730469 L 18.734375 31.15625 Z M 9.050781 43.394531 "/>
<path style=" stroke:none;fill-rule:evenodd;fill:rgb(99.998474%,77.645874%,9.411621%);fill-opacity:1;" d="M 14.535156 28.097656 C 15.539062 30.28125 15.789062 30.425781 18.296875 31.285156 C 20.804688 32.144531 27.886719 32.960938 28.585938 33.042969 C 28.128906 32.585938 20.148438 26.675781 18.511719 25.492188 C 16.871094 24.308594 16.414062 23.773438 16.414062 23.773438 C 16.414062 23.773438 14.9375 21.113281 14.425781 20.332031 C 13.917969 19.554688 12.976562 18.453125 11.738281 18.453125 C 10.503906 18.453125 9.75 19.179688 9.394531 20.46875 C 9.195312 20.523438 8.140625 21.167969 8.175781 21.828125 C 8.480469 21.792969 10.398438 21.253906 11.058594 23.421875 C 11.722656 25.589844 11.757812 29.136719 11.078125 30.890625 C 10.398438 32.648438 9.339844 33.972656 9.339844 35.511719 C 9.339844 35.726562 9.484375 36.160156 9.839844 36.160156 C 9.964844 36.839844 10.96875 41.691406 10.96875 41.691406 L 25.261719 41.691406 L 27.535156 32.917969 Z M 14.535156 28.097656 "/>
<path style="fill:none;stroke-width:0.107469;stroke-linecap:butt;stroke-linejoin:miter;stroke:rgb(0%,0%,0%);stroke-opacity:1;stroke-miterlimit:4;" d="M 14.535156 28.097656 C 15.539062 30.28125 15.789062 30.425781 18.296875 31.285156 C 20.804688 32.144531 27.886719 32.960938 28.585938 33.042969 C 28.128906 32.585938 20.148438 26.675781 18.511719 25.492188 C 16.871094 24.308594 16.414062 23.773438 16.414062 23.773438 C 16.414062 23.773438 14.9375 21.113281 14.425781 20.332031 C 13.917969 19.554688 12.976562 18.453125 11.738281 18.453125 C 10.503906 18.453125 9.75 19.179688 9.394531 20.46875 C 9.195312 20.523438 8.140625 21.167969 8.175781 21.828125 C 8.480469 21.792969 10.398438 21.253906 11.058594 23.421875 C 11.722656 25.589844 11.757812 29.136719 11.078125 30.890625 C 10.398438 32.648438 9.339844 33.972656 9.339844 35.511719 C 9.339844 35.726562 9.484375 36.160156 9.839844 36.160156 C 9.964844 36.839844 10.96875 41.691406 10.96875 41.691406 L 25.261719 41.691406 L 27.535156 32.917969 "/>
<path style="fill:none;stroke-width:0.107469;stroke-linecap:butt;stroke-linejoin:miter;stroke:rgb(0%,0%,0%);stroke-opacity:1;stroke-miterlimit:4;" d="M 9.839844 36.160156 C 9.839844 36.160156 12.886719 35.980469 13.710938 35.980469 C 14.535156 35.980469 22.203125 35.988281 26.484375 36.976562 "/>
<path style="fill:none;stroke-width:0.107469;stroke-linecap:butt;stroke-linejoin:miter;stroke:rgb(0%,0%,0%);stroke-opacity:1;stroke-miterlimit:4;" d="M 10.917969 36.097656 C 10.917969 36.097656 10.613281 35.726562 10.808594 34.996094 C 11.003906 34.257812 13.15625 32.359375 13.15625 29.675781 "/>
<path style="fill:none;stroke-width:0.107469;stroke-linecap:butt;stroke-linejoin:miter;stroke:rgb(0%,0%,0%);stroke-opacity:1;stroke-miterlimit:4;" d="M 12.761719 35.980469 C 12.761719 35.980469 12.511719 34.78125 15.25 33.757812 C 16.019531 33.523438 18.222656 32.289062 18.296875 31.285156 "/>
<path style="fill:none;stroke-width:0.107469;stroke-linecap:butt;stroke-linejoin:miter;stroke:rgb(0%,0%,0%);stroke-opacity:1;stroke-miterlimit:4;" d="M 14.960938 33.871094 C 14.960938 33.871094 21.679688 33.902344 27 34.976562 "/>
<path style="fill:none;stroke-width:0.107469;stroke-linecap:butt;stroke-linejoin:miter;stroke:rgb(0%,0%,0%);stroke-opacity:1;stroke-miterlimit:4;" d="M 16.644531 33.070312 C 16.644531 33.070312 18.953125 33.148438 19.332031 33.042969 C 19.707031 32.933594 20.371094 32.65625 20.636719 31.867188 "/>
<path style="fill:none;stroke-width:0.107469;stroke-linecap:butt;stroke-linejoin:miter;stroke:rgb(0%,0%,0%);stroke-opacity:1;stroke-miterlimit:4;" d="M 18.011719 33.097656 C 18.011719 33.097656 19.25 32.457031 19.492188 31.621094 "/>
<path style="fill:none;stroke-width:0.107469;stroke-linecap:butt;stroke-linejoin:miter;stroke:rgb(0%,0%,0%);stroke-opacity:1;stroke-miterlimit:4;" d="M 14.28125 41.691406 C 14.28125 41.691406 13.753906 38.03125 13.648438 35.980469 L 15.027344 37.296875 L 16.484375 36.019531 L 17.742188 37.359375 L 19.191406 36.128906 L 20.445312 37.539062 L 21.882812 36.316406 L 23.023438 37.644531 L 24.457031 36.609375 L 26.160156 38.226562 "/>
<path style="fill:none;stroke-width:0.107469;stroke-linecap:butt;stroke-linejoin:miter;stroke:rgb(0%,0%,0%);stroke-opacity:1;stroke-miterlimit:4;" d="M 25.859375 39.382812 C 20.742188 38.652344 13.898438 38.699219 13.898438 38.699219 "/>
<path style="fill:none;stroke-width:0.107469;stroke-linecap:butt;stroke-linejoin:miter;stroke:rgb(0%,0%,0%);stroke-opacity:1;stroke-miterlimit:4;" d="M 11.519531 26.039062 C 11.519531 26.039062 15.679688 24.050781 16.414062 23.773438 "/>
<path style="fill:none;stroke-width:0.10747;stroke-linecap:butt;stroke-linejoin:miter;stroke:rgb(0%,0%,0%);stroke-opacity:1;stroke-miterlimit:4;" d="M 13.761719 37.429688 L 15.160156 38.703125 L 16.425781 37.441406 L 17.703125 38.757812 L 19.082031 37.539062 L 20.355469 38.875 L 21.789062 37.691406 L 22.960938 39.058594 L 24.386719 37.96875 L 25.882812 39.292969 "/>
<path style="fill:none;stroke-width:0.10747;stroke-linecap:butt;stroke-linejoin:miter;stroke:rgb(0%,0%,0%);stroke-opacity:1;stroke-miterlimit:4;" d="M 18.285156 35.011719 C 18.285156 35.320312 18.039062 35.566406 17.730469 35.566406 C 17.425781 35.566406 17.175781 35.320312 17.175781 35.011719 C 17.175781 34.707031 17.425781 34.457031 17.730469 34.457031 C 18.039062 34.457031 18.285156 34.707031 18.285156 35.011719 Z M 18.285156 35.011719 "/>
<path style="fill:none;stroke-width:0.10747;stroke-linecap:butt;stroke-linejoin:miter;stroke:rgb(0%,0%,0%);stroke-opacity:1;stroke-miterlimit:4;" d="M 20.628906 35.167969 C 20.628906 35.476562 20.382812 35.726562 20.074219 35.726562 C 19.769531 35.726562 19.519531 35.476562 19.519531 35.167969 C 19.519531 34.863281 19.769531 34.613281 20.074219 34.613281 C 20.382812 34.613281 20.628906 34.863281 20.628906 35.167969 Z M 20.628906 35.167969 "/>
<path style="fill:none;stroke-width:0.10747;stroke-linecap:butt;stroke-linejoin:miter;stroke:rgb(0%,0%,0%);stroke-opacity:1;stroke-miterlimit:4;" d="M 11.78125 20.171875 C 11.78125 20.410156 11.589844 20.601562 11.351562 20.601562 C 11.113281 20.601562 10.921875 20.410156 10.921875 20.171875 C 10.921875 19.933594 11.113281 19.742188 11.351562 19.742188 C 11.589844 19.742188 11.78125 19.933594 11.78125 20.171875 Z M 11.78125 20.171875 "/>
</g>
</svg>
