<svg viewBox="0 0 1000 667" xmlns="http://www.w3.org/2000/svg" xmlns:xlink="http://www.w3.org/1999/xlink"><clipPath id="a"><path d="m0 0h1000v666.71875h-1000zm0 0"/></clipPath><clipPath id="b"><path d="m0 0h667v666.71875h-667zm0 0"/></clipPath><clipPath id="c"><path d="m0 0h334v666.71875h-334zm0 0"/></clipPath><g clip-path="url(#a)"><path d="m0 666.667969v-666.667969h1000v666.667969zm0 0" fill="#090" fill-rule="evenodd"/></g><g clip-path="url(#b)"><path d="m0 0h666.667969v666.667969h-666.667969zm0 0" fill="#bf0000" fill-rule="evenodd"/></g><g clip-path="url(#c)"><path d="m0 0h333.332031v666.667969h-333.332031zm0 0" fill-rule="evenodd"/></g><path d="m532.503906 376.398438h13.914063c.058593 5.265624 3.140625 10.914062 7.472656 14.160156h-26.679687c4.175781-3.792969 5.316406-8.273438 5.292968-14.160156zm0 0" fill="#fff" fill-rule="evenodd" stroke="#bd6b00" stroke-width=".833333"/><path d="m444.515625 297.550781 7.625 8.398438 94.886719.15625 7.78125-8.402344-24.265625-.308594-11.828125-8.242187-38.109375-.15625-11.039063 8.554687zm0 0" fill="#fff" fill-rule="evenodd"/><path d="m483.367188 287.898438 32.761718-.03125c4.445313-2.34375 5.828125-9.839844 5.800782-14.03125-.0625-12.378907-8.722657-18.320313-17.414063-18.628907-1.300781-.0625-2.808594-1.082031-3.15625-2.269531-.855469-2.683594-.632813-4.402344-1.570313-4.304688-.832031-.007812-.585937 1.570313-1.335937 4.085938-.40625 1.261719-1.8125 2.488281-3.222656 2.5625-10.8125.546875-17.789063 8.441406-17.519531 18.5625.1875 6.691406.960937 10.683594 5.65625 14.054688zm0 0" fill="#fff" fill-rule="evenodd" stroke="#bd6b00" stroke-width=".833333"/><path d="m429.433594 404.722656h140.78125l-12.597656-10.273437h-115.582032zm0 0" fill="#fff" fill-rule="evenodd"/><path d="m493.984375 366.152344 2.566406 7.699218h5.835938l-4.675781-7.707031h-3.726563zm-3.269531 7.699218 1.480468 7.617188 6.84375.082031-2.488281-7.707031zm11.585937.074219 4.746094 7.542969h9.726563l-7.625-7.625zm-57.394531 17.269531c5.160156-4.792968 8.445312-8.894531 8.480469-14.777343h12.597656c.023437 3.292969 1.21875 5.261719 3.035156 5.132812l12.75-.082031-.070312-7.542969h-9.261719v-41.148437c-.335938-14.539063 17.683594-23.019532 25.046875-22.9375l-43.789063-.082032v-1.316406h92.089844l.074219 1.316406-44.410156.082032c13.175781.023437 25.871093 12.492187 25.976562 23.019531v11.664063h-1.710937l-.078125-11.507813c0-11.515625-14.496094-22.273437-26.132813-21.933594-10.058594.285157-25.667968 9.878907-25.511718 21.859375v3.574219l23.875.15625-.226563 4.125 3.742187 2.390625 7.480469 2.386719-.105469 6.175781 5.351563 1.578125.050781 6.175781 6.421875 2.761719v6.394531l4.078125 2.507813-.1875 6.492187 5.523438 3.890625h-13.070313l8.164063 9.097657h-12.050782l-5.992187-9.097657h-7.933594l3.582031 9.019531-8.480468-.074218-2.027344-8.945313h-10.34375l.082031 9.644531zm36.945312-24.96875v7.617188h8.871094l-1.796875-7.617188zm0 0" fill="#fff" fill-rule="evenodd"/><path d="m493.984375 366.152344 2.566406 7.699218h5.835938l-4.675781-7.707031h-3.726563zm0 0" fill="none" stroke="#bd6b00" stroke-width=".833333"/><path d="m490.714844 373.851562 1.480468 7.617188 6.84375.082031-2.488281-7.707031zm0 0" fill="none" stroke="#bd6b00" stroke-width=".833333"/><path d="m502.300781 373.925781 4.746094 7.542969h9.726563l-7.625-7.625zm0 0" fill="none" stroke="#bd6b00" stroke-width=".833333"/><path d="m444.90625 391.195312c5.160156-4.792968 8.445312-8.894531 8.480469-14.777343h12.597656c.023437 3.292969 1.21875 5.261719 3.035156 5.132812l12.75-.082031-.070312-7.542969h-9.261719v-41.148437c-.335938-14.539063 17.683594-23.019532 25.046875-22.9375l-43.789063-.082032v-1.316406h92.089844l.074219 1.316406-44.410156.082032c13.175781.023437 25.871093 12.492187 25.976562 23.019531v11.664063h-1.710937l-.078125-11.507813c0-11.515625-14.496094-22.273437-26.132813-21.933594-10.058594.285157-25.667968 9.878907-25.511718 21.859375v3.574219l23.875.15625-.226563 4.125 3.742187 2.390625 7.480469 2.386719-.105469 6.175781 5.351563 1.578125.050781 6.175781 6.421875 2.761719v6.394531l4.078125 2.507813-.1875 6.492187 5.523438 3.890625h-13.070313l8.164063 9.097657h-12.050782l-5.992187-9.097657h-7.933594l3.582031 9.019531-8.480468-.074218-2.027344-8.945313h-10.34375l.082031 9.644531zm0 0" fill="none" stroke="#bd6b00" stroke-width=".833333"/><path d="m481.851562 366.226562v7.617188h8.871094l-1.796875-7.617188zm0 0" fill="none" stroke="#bd6b00" stroke-width=".833333"/><path d="m482.316406 352.765625h5.523438v12.679687h-5.523438zm0 0" fill="none" stroke="#bd6b00" stroke-width=".833333"/><path d="m474.519531 366.332031h5.386719l-.03125-9.324219c-.074219-4.054687 3.566406-8.148437 5.316406-8.277343 1.925782-.074219 4.773438 3.824219 4.863282 7.960937l.082031 9.671875 5.722656-.011719v-24.019531l-21.339844.117188zm0 0" fill="none" stroke="#bd6b00" stroke-width=".833333"/><path d="m517.164062 371.898438h6.6875v5.210937h-6.6875zm0 0" fill="none" stroke="#bd6b00" stroke-width=".833333"/><path d="m513.199219 362.949219h6.691406v5.214843h-6.691406zm0 0" fill="none" stroke="#bd6b00" stroke-width=".833333"/><path d="m506.746094 354.003906h6.6875v5.207032h-6.6875zm0 0" fill="none" stroke="#bd6b00" stroke-width=".833333"/><path d="m501.238281 346.46875h6.6875v5.207031h-6.6875zm0 0" fill="none" stroke="#bd6b00" stroke-width=".833333"/><path d="m496.800781 366.363281 6.84375.238281 12.207031 10.808594v-6.371094l-4.117187-2.957031v-5.0625l-5.988281-3.417969v-5.441406l-5.835938-1.949218v-7.386719l-2.953125-2.417969zm0 0" fill="none" stroke="#bd6b00" stroke-width=".833333"/><path d="m525.714844 350.585938h1.636718v11.742187h-1.636718zm0 0" fill="#fff" fill-rule="evenodd" stroke="#bd6b00" stroke-width=".833333"/><path d="m428.863281 310.882812c-2.058593-3.304687-4.511719 4.578126-12.976562 10.453126-3.941407 2.679687-6.683594 9.816406-6.707031 14.519531-.128907 3.222656.359374 6.445312 0 9.570312-.226563 1.96875-2.285157 6.355469-.878907 7.480469 3.71875 2.765625 8.546875 9.046875 10.773438 11.222656 1.9375 1.691406 3.617187-8.75 5.0625-13.421875 1.554687-5.011719.863281-10.996093 5.167969-15.625 3.058593-3.125 10.765624-6.191406 9.902343-7.585937zm0 0" fill="#fff" fill-rule="evenodd" stroke="#bd6b00" stroke-width=".833333"/><path d="m428.433594 336.464844c-.640625-1.472656-1.59375-3.003906-2.757813-4.320313-1.164062-1.316406-2.546875-2.433593-4.070312-2.96875-1.464844-.546875-2.960938-1.253906-4.003907-2.558593-.519531-.640626-.976562-1.464844-1.195312-2.441407-.210938-.910156-.210938-2.015625-.054688-3.285156-.179687.136719-.277343.285156-.464843.421875-3.941407 2.679688-6.699219 9.832031-6.722657 14.527344-.050781 1.300781-.058593 2.5625 0 3.859375.292969.804687.570313 1.59375.992188 2.082031.539062.632812 1.1875 1.054688 1.871094 1.351562 1.375.582032 2.953125.707032 4.425781 1.253907 1.523437.535156 3.085937 1.761719 4.429687 3.226562 1.277344 1.394531 2.261719 2.996094 2.914063 4.429688.113281-.40625.257813-1.007813.367187-1.359375 1.40625-4.535156 1.160157-9.816406 4.269532-14.21875zm0 0" fill="#bf0000" fill-rule="evenodd" stroke="#bd6b00" stroke-width=".833333"/><path d="m416.363281 320.644531c-.804687 5.601563 2.3125 7.457031 5.25 8.546875 3.046875 1.074219 5.535157 4.335938 6.820313 7.292969" fill="none" stroke="#bd6b00" stroke-width=".833333"/><path d="m408.828125 339.070312c1.285156 4.816407 4.664063 4.214844 7.613281 5.296876 3.035156 1.082031 6.238282 4.933593 7.515625 7.878906" fill="none" stroke="#bd6b00" stroke-width=".833333"/><path d="m426.015625 307.472656 1.539063-.996094 29.589843 49.828126-1.539062.996093zm0 0" fill="#fff" fill-rule="evenodd" stroke="#bd6b00" stroke-width=".833333"/><path d="m429.199219 305.484375c0 1.78125-1.628907 3.410156-3.410157 3.410156s-3.410156-1.628906-3.410156-3.410156c0-1.789063 1.628906-3.410156 3.410156-3.410156s3.410157 1.621093 3.410157 3.410156zm0 0" fill="#fff" fill-rule="evenodd" stroke="#bd6b00" stroke-width=".833333"/><path d="m454.5 265.445312h11.988281v2.75h-11.988281zm0 0" fill="#fff" fill-rule="evenodd" stroke="#bd6b00" stroke-width=".833333"/><path d="m454.5 270.671875h11.988281v22.964844h-11.988281zm0 0" fill="#fff" fill-rule="evenodd" stroke="#bd6b00" stroke-width=".833333"/><path d="m453.769531 262.3125 13.296875.082031c.519532-4.507812-3.980468-9.382812-6.609375-9.335937-2.597656.132812-6.792969 4.933594-6.6875 9.253906zm0 0" fill="#fff" fill-rule="evenodd" stroke="#bd6b00" stroke-width=".833333"/><path d="m487.703125 259.601562c-2.539063 1.066407-4.484375 3.964844-5.679687 7.292969-1.195313 3.328125-1.652344 7.113281-1.089844 10.15625v.050781c.210937 1.046876.496094 1.804688.828125 2.34375.335937.535157.699219.851563 1.148437.933594.441406.082032.855469-.152344 1.089844-.519531.238281-.367187.359375-.847656.320312-1.410156-.246093-3.125-.230468-6.214844.519532-9.007813.738281-2.792968 2.230468-5.273437 4.949218-7.292968.484376-.355469.769532-.769532.828126-1.195313.054687-.421875-.164063-.789063-.472657-1.039063-.601562-.503906-1.5625-.675781-2.441406-.3125zm.261719.726563c.609375-.253906 1.398437-.105469 1.714844.152344.15625.140625.171874.230469.15625.367187-.027344.144532-.128907.390625-.519532.675782-2.859375 2.125-4.429687 4.785156-5.210937 7.714843-.78125 2.921875-.765625 6.09375-.519531 9.269531.03125.433594-.089844.757813-.210938.9375-.113281.175782-.179688.234376-.308594.207032-.140625-.019532-.417968-.191406-.675781-.625-.269531-.429688-.53125-1.097656-.734375-2.082032-.519531-2.859374-.054688-6.585937 1.101562-9.792968 1.152344-3.210938 3-5.898438 5.207032-6.824219zm0 0" fill="#bd6b00" fill-rule="evenodd"/><path d="m491.984375 262.882812c-2.53125 1.066407-4.167969 3.824219-5.054687 6.980469-.878907 3.160157-1.015626 6.773438-.464844 9.789063.433594 2.144531 1.554687 3.273437 2.652344 3.4375.546874.089844 1.085937-.132813 1.410156-.570313.324218-.441406.429687-1.035156.261718-1.773437-.628906-2.5-.863281-5.609375-.417968-8.429688.441406-2.832031 1.5625-5.355468 3.695312-6.878906.488282-.359375.773438-.773438.832032-1.195312.0625-.433594-.164063-.847657-.464844-1.097657-.609375-.507812-1.5625-.628906-2.449219-.261719zm.308594.730469c.621093-.257812 1.351562-.105469 1.667969.15625.164062.128907.230468.21875.210937.367188-.023437.136719-.179687.390625-.574219.671875-2.355468 1.679687-3.550781 4.445312-4.007812 7.398437-.460938 2.957031-.175782 6.105469.464844 8.703125.140624.582032 0 .984375-.15625 1.195313-.152344.210937-.355469.308593-.671876.257812-.644531-.097656-1.644531-.925781-2.035156-2.863281-.527344-2.890625-.375-6.445312.472656-9.480469.84375-3.035156 2.421876-5.476562 4.628907-6.40625zm0 0" fill="#bd6b00" fill-rule="evenodd"/><path d="m453.851562 312.3125h13.378907v18.515625h-13.378907zm0 0" fill="#fff" fill-rule="evenodd" stroke="#bd6b00" stroke-width=".833333"/><path d="m454.632812 341.414062h12.914063v3.890626h-12.914063zm0 0" fill="#fff" fill-rule="evenodd" stroke="#bd6b00" stroke-width=".833333"/><path d="m454.3125 348.25h13.226562v14.46875h-13.226562zm0 0" fill="#fff" fill-rule="evenodd" stroke="#bd6b00" stroke-width=".833333"/><path d="m453.386719 365.679688h14.460937v8.089843h-14.460937zm0 0" fill="#fff" fill-rule="evenodd" stroke="#bd6b00" stroke-width=".833333"/><path d="m455.167969 337.929688h11.652343l2.3125-3.847657h-16.054687zm0 0" fill="#fff" fill-rule="evenodd" stroke="#bd6b00" stroke-width=".833333"/><path d="m470.882812 323.746094.113282-10.113282h8.023437c-3.148437 2.601563-6.085937 5.753907-8.136719 10.113282zm0 0" fill="#fff" fill-rule="evenodd" stroke="#bd6b00" stroke-width=".833333"/><path d="m455.933594 327.898438c.082031 2.164062 2.527344 1.203124 2.527344.113281 0-3.335938.042968-6.953125-.085938-9.308594-.015625-1.75 4.148438-1.3125 4.125-.238281.015625 2.816406.046875 6.679687.066406 9.984375-.03125 1.605469 2.691406 1.464843 2.652344 0-.015625-3.683594-.015625-9.039063 0-11.75.023438-3.492188-9.164062-3.417969-9.238281-.082031 0 2.742187-.046875 7.648437-.046875 11.28125zm0 0" fill="none" stroke="#bd6b00" stroke-width=".833333"/><path d="m455.949219 349.964844h9.488281v11.828125h-9.488281zm0 0" fill="none" stroke="#bd6b00" stroke-width=".833333"/><path d="m462.019531 354.867188h3.34375v1.945312h-3.34375zm0 0" fill="#fff" fill-rule="evenodd" stroke="#bd6b00" stroke-width=".833333"/><path d="m456.183594 354.867188h3.265625v1.945312h-3.265625zm0 0" fill="#fff" fill-rule="evenodd" stroke="#bd6b00" stroke-width=".833333"/><path d="m459.449219 350.113281h2.570312v4.828125h-2.570312zm0 0" fill="#fff" fill-rule="evenodd" stroke="#bd6b00" stroke-width=".833333"/><path d="m459.449219 356.730469h2.570312v5.132812h-2.570312zm0 0" fill="#fff" fill-rule="evenodd" stroke="#bd6b00" stroke-width=".833333"/><path d="m406.648438 231.617188c.59375 9.277343-2.285157 14.371093-7.203126 13.597656-1.347656-5.152344 1.734376-8.601563 7.203126-13.597656zm0 0" fill="#fff" fill-rule="evenodd" stroke="#bd6b00" stroke-width=".833333"/><path d="m395.867188 252.179688c-4.371094-2.222657-1.214844-19.1875.460937-26.292969 1.238281 9.15625 3.3125 22.175781-.460937 26.292969zm0 0" fill="#fff" fill-rule="evenodd" stroke="#bd6b00" stroke-width=".833333"/><path d="m397.421875 252.988281c7.339844 2.546875 13.148437-5.355469 15.121094-14.519531-6.066407 8.363281-15.929688 8.371094-15.121094 14.519531zm0 0" fill="#fff" fill-rule="evenodd" stroke="#bd6b00" stroke-width=".833333"/><path d="m391.855469 261.546875c-5.746094-1.511719-2.289063-19.511719-1.246094-26.714844 1.261719 7.4375 5.222656 24.257813 1.246094 26.714844zm0 0" fill="#fff" fill-rule="evenodd" stroke="#bd6b00" stroke-width=".833333"/><path d="m393.816406 260.984375c.324219-6.207031 6.507813-4.417969 10.78125-7.730469-.699218 3.101563-3.328125 8.601563-10.78125 7.730469zm0 0" fill="#fff" fill-rule="evenodd" stroke="#bd6b00" stroke-width=".833333"/><path d="m386.785156 269.304688c-5.6875-1.539063-2.273437-20.910157-2.597656-28.882813 1.667969 6.882813 6.957031 27.007813 2.597656 28.882813zm0 0" fill="#fff" fill-rule="evenodd" stroke="#bd6b00" stroke-width=".833333"/><path d="m389.4375 268.464844c4.652344 1.515625 10.832031-1.511719 11.320312-7.0625-4.019531 2.726562-10.425781.640625-11.320312 7.0625zm0 0" fill="#fff" fill-rule="evenodd" stroke="#bd6b00" stroke-width=".833333"/><path d="m382.535156 277.847656c-5.445312.441406-3.011718-16.0625-3-31.429687 1.992188 14.367187 7.445313 27.515625 3 31.429687zm0 0" fill="#fff" fill-rule="evenodd" stroke="#bd6b00" stroke-width=".833333"/><path d="m384.417969 277.101562c3.675781 1.847657 10.257812-1.101562 12.140625-7.308593-6.640625 2.878906-11.085938.0625-12.140625 7.308593zm0 0" fill="#fff" fill-rule="evenodd" stroke="#bd6b00" stroke-width=".833333"/><path d="m427.132812 240.21875c-.96875 8.046875-4.257812 12.726562-9.171874 11.953125-1.351563-5.144531 2.628906-8.4375 9.171874-11.953125zm0 0" fill="#fff" fill-rule="evenodd" stroke="#bd6b00" stroke-width=".833333"/><path d="m414.136719 260.863281c8.160156 1.164063 11.097656-5.101562 16.59375-13.117187-7.699219 5.574218-16.902344 6.738281-16.59375 13.117187zm0 0" fill="#fff" fill-rule="evenodd" stroke="#bd6b00" stroke-width=".833333"/><path d="m411.816406 259.953125c-4.453125-5.347656-.144531-12.054687 3.253906-17.765625-.730468 8.503906 2.164063 13.234375-3.253906 17.765625zm0 0" fill="#fff" fill-rule="evenodd" stroke="#bd6b00" stroke-width=".833333"/><path d="m409.847656 268.765625c-.496094-5.222656 8.398438-6.378906 12.425782-9.285156-1.359376 3.019531-3.410157 11.140625-12.425782 9.285156zm0 0" fill="#fff" fill-rule="evenodd" stroke="#bd6b00" stroke-width=".833333"/><path d="m407.984375 268.878906c-6.152344-.691406-3.597656-11.140625.8125-16.941406-1.855469 8.007812 3.246094 13.582031-.8125 16.941406zm0 0" fill="#fff" fill-rule="evenodd" stroke="#bd6b00" stroke-width=".833333"/><path d="m403.351562 277.578125c-7.003906-3.089844-2.515624-11.871094.113282-17.054687-1.121094 6.800781 4.492187 11.996093-.113282 17.054687zm0 0" fill="#fff" fill-rule="evenodd" stroke="#bd6b00" stroke-width=".833333"/><path d="m404.734375 276.765625c3.671875 4.800781 10.835937-1.433594 12.308594-8.707031-6.234375 5.191406-10.839844 4.335937-12.308594 8.707031zm0 0" fill="#fff" fill-rule="evenodd" stroke="#bd6b00" stroke-width=".833333"/><path d="m388.738281 310.53125c-.726562-7.144531 4.652344-20.132812.835938-27.070312-.519531-.949219 1.140625-3.472657 2.214843-1.941407 1.675782 2.449219 3.402344 9.421875 4.125 6.84375.765626-2.800781.878907-7.75 3.359376-8.710937 1.582031-.558594 3.816406-.933594 3.207031 1.554687-.609375 2.394531-1.960938 5.699219-.460938 5.917969.878907.121094 3.382813-3.261719 5.5-4.824219 1.710938-1.402343 4.246094.789063 1.757813 2.878907-8.105469 6.722656-15.949219 9.75-20.546875 25.351562zm0 0" fill="#fff" fill-rule="evenodd" stroke="#bd6b00" stroke-width=".833333"/><path d="m374.183594 418.082031c-.949219-.179687-2.253906-.503906-1.070313.976563 9.464844 11.652344 12.207031 14.867187 26.007813 13.234375 13.941406-1.839844 17.261718-5.609375 27.027344-11.085938 5.207031-3.058593 12.832031-3.742187 18.609374-1.847656 2.695313.878906 4.324219.9375 2.394532-.992187-1.929688-1.925782-4.207032-4.558594-6.582032-6.363282-5.195312-3.988281-14.015624-5.71875-21.210937-4.433594-10.171875 1.59375-18.578125 8.070313-28.621094 10.519532-5.28125 1.207031-11.066406 1.027344-16.554687-.007813zm0 0" fill="#fff" fill-rule="evenodd" stroke="#bd6b00" stroke-width=".833333"/><path d="m453.832031 438.917969c1.757813.21875 2.875 3.628906 3.746094 1.316406 1.464844-3.734375.4375-6.707031-1.214844-6.378906-1.953125.519531-5.25 4.890625-2.53125 5.0625zm0 0" fill="#fff" fill-rule="evenodd" stroke="#bd6b00" stroke-width=".833333"/><path d="m367.667969 304.867188c-2.027344-2.117188-1.441407-2.921876 1.554687-2.953126 2.375-.15625 7.078125 1.453126 8.867188.152344 1.640625-1.1875.988281-6.234375 1.710937-8.558594.316407-1.296874 1.230469-3.332031 3.265625-.15625 6.039063 9.675782 13.582032 21.289063 16.804688 32.664063 1.757812 6.382813.09375 16.335937-5.761719 23.03125.210937-5.703125-1.914063-9.542969-4.507813-14.3125-3.199218-6.269531-15.097656-23.25-21.933593-29.867187zm0 0" fill="#fff" fill-rule="evenodd"/><path d="m392.554688 355.738281c6.628906.023438 7.769531-8.871093 7.769531-11.359375-3.261719.625-9.015625 6.070313-7.769531 11.359375zm0 0" fill="#fff" fill-rule="evenodd" stroke="#bd6b00" stroke-width=".833333"/><path d="m449.917969 442.097656c4.722656 1.074219 4.65625-10.292968-.171875-15.113281 2.125 7.300781-3.546875 13.980469.171875 15.113281zm0 0" fill="#fff" fill-rule="evenodd" stroke="#bd6b00" stroke-width=".833333"/><path d="m448.078125 442c.316406 5.402344-13.253906-.707031-16.746094-4.90625 8.015625 3.402344 16.359375.585938 16.746094 4.90625zm0 0" fill="#fff" fill-rule="evenodd" stroke="#bd6b00" stroke-width=".833333"/><path d="m442.132812 434.285156c.484376 5.234375-11.769531.628906-15.398437-3.457031 8.054687 2.601563 14.867187-.855469 15.398437 3.457031zm0 0" fill="#fff" fill-rule="evenodd" stroke="#bd6b00" stroke-width=".833333"/><path d="m444.386719 435.019531c4.71875 1.070313 3.953125-10.6875-.636719-14.730469 2.207031 7.84375-3.078125 13.589844.636719 14.730469zm0 0" fill="#fff" fill-rule="evenodd" stroke="#bd6b00" stroke-width=".833333"/><path d="m439.421875 427.863281c4.71875 1.078125 2.007813-9.046875-1.492187-13.09375.570312 7.382813-1.757813 12.5 1.492187 13.09375zm0 0" fill="#fff" fill-rule="evenodd" stroke="#bd6b00" stroke-width=".833333"/><path d="m436.914062 427.832031c.488282 5.394531-9.050781 1.253907-12.75-3.847656 7.972657 2.601563 12.222657-.457031 12.75 3.847656zm0 0" fill="#fff" fill-rule="evenodd" stroke="#bd6b00" stroke-width=".833333"/><path d="m434.320312 423.730469c3.089844-2.222657-.1875-8.105469-6.082031-7.738281.578125 3.554687 2.613281 9.796874 6.082031 7.738281zm0 0" fill="#fff" fill-rule="evenodd" stroke="#bd6b00" stroke-width=".833333"/><path d="m457.570312 448.121094c.308594 5.402344-13.265624 2.707031-17.53125-3.042969 8.5625 1.617187 17.128907-1.285156 17.53125 3.042969zm0 0" fill="#fff" fill-rule="evenodd" stroke="#bd6b00" stroke-width=".833333"/><path d="m403.628906 438.453125c.488282 5.386719-14.332031-.539063-18.03125-5.640625 7.964844 2.605469 17.503906 1.328125 18.03125 5.640625zm0 0" fill="#fff" fill-rule="evenodd" stroke="#bd6b00" stroke-width=".833333"/><path d="m412.71875 440.746094c3.09375-2.222656-3.222656-7.949219-8.25-9.292969.570312 3.550781 4.785156 11.351563 8.25 9.292969zm0 0" fill="#fff" fill-rule="evenodd" stroke="#bd6b00" stroke-width=".833333"/><path d="m413.664062 444.484375c.332032 4.847656-15.894531 2.1875-20.132812-2.289063 13.957031 2.523438 19.675781-1.863281 20.132812 2.289063zm0 0" fill="#fff" fill-rule="evenodd" stroke="#bd6b00" stroke-width=".833333"/><path d="m421.265625 447.710938c1.804687 4.511718-13.769531 3.410156-19.238281.792968 8.835937-.074218 18-3.925781 19.238281-.792968zm0 0" fill="#fff" fill-rule="evenodd" stroke="#bd6b00" stroke-width=".833333"/><path d="m428.546875 451c1.726563 4.039062-12.679687 3.949219-19.699219 1.71875 9.300782-.074219 18-5.714844 19.699219-1.71875zm0 0" fill="#fff" fill-rule="evenodd" stroke="#bd6b00" stroke-width=".833333"/><path d="m439.027344 453.167969c2.558594 4.773437-12.644532 5.238281-17.574219 2.886719 8.789063-1.203126 15.402344-6.648438 17.574219-2.886719zm0 0" fill="#fff" fill-rule="evenodd" stroke="#bd6b00" stroke-width=".833333"/><path d="m421.230469 445.003906c-4.832031 3.042969-4.570313-5.941406-8.421875-12.167968 6.046875 5.5 11.703125 9.253906 8.421875 12.167968zm0 0" fill="#fff" fill-rule="evenodd" stroke="#bd6b00" stroke-width=".833333"/><path d="m429.800781 448.234375c-4.0625 3.589844-7.296875-8.742187-10.996093-15.664063 5.976562 6.589844 14.742187 12.675782 10.996093 15.664063zm0 0" fill="#fff" fill-rule="evenodd" stroke="#bd6b00" stroke-width=".833333"/><path d="m441.128906 451.667969c-3.433594 3.980469-13.363281-11.703125-16.976562-19.863281 5.5 6.355468 19.710937 16.488281 16.976562 19.863281zm0 0" fill="#fff" fill-rule="evenodd" stroke="#bd6b00" stroke-width=".833333"/><path d="m431.46875 463.632812c-1.714844 6.050782-26.984375-5.707031-29.808594-11.792968 14.460938 7.65625 30.152344 6.054687 29.808594 11.792968zm0 0" fill="#fff" fill-rule="evenodd" stroke="#bd6b00" stroke-width=".833333"/><path d="m350.253906 340.632812c-.59375-.765624-2.296875.015626-1.871094 1.871094.394532 2.5 4.082032 15.332032 10.421876 19.753906 4.519531 3.253907 28.273437 8.503907 39.046874 10.730469 5.921876 1.1875 10.886719 4.152344 14.777344 8.863281-1.609375-6.167968-2.902344-10.734374-4.980468-16.332031-2.015626-4.90625-7.363282-10.285156-12.90625-10.570312-10.292969-.375-23.613282-1.253907-33.292969-5.453125-4.996094-2.082032-7.984375-4.898438-11.195313-8.863282zm0 0" fill="#fff" fill-rule="evenodd" stroke="#bd6b00" stroke-width=".833333"/><path d="m409.238281 391.449219c3.238281 2.390625 6.816407-6.171875 2.699219-14.308594-.128906 7.828125-6.355469 10.464844-2.699219 14.308594zm0 0" fill="#fff" fill-rule="evenodd" stroke="#bd6b00" stroke-width=".833333"/><path d="m412.355469 399.300781c4.480469 1.375 5.890625-6.558593 2.9375-12.914062.484375 6.824219-7.058594 10.9375-2.9375 12.914062zm0 0" fill="#fff" fill-rule="evenodd" stroke="#bd6b00" stroke-width=".833333"/><path d="m415.761719 405.601562c4.339843 2.15625 5.984375-5.863281 2.867187-11.816406.339844 7.589844-6.203125 9.835938-2.867187 11.816406zm0 0" fill="#fff" fill-rule="evenodd" stroke="#bd6b00" stroke-width=".833333"/><path d="m413.980469 406.085938c-1.714844 5.128906-11.679688-4.425782-13.351563-9.625 6.183594 6.144531 14.589844 5.460937 13.351563 9.625zm0 0" fill="#fff" fill-rule="evenodd" stroke="#bd6b00" stroke-width=".833333"/><path d="m409.464844 398.234375c-1.953125 5.132813-14.476563-8.082031-17.242188-14.445313 6.179688 6.136719 18.632813 10.824219 17.242188 14.445313zm0 0" fill="#fff" fill-rule="evenodd" stroke="#bd6b00" stroke-width=".833333"/><path d="m406.984375 390.535156c-1.957031 5.835938-15.570313-9.714844-19.429687-15.226562 6.496093 6.0625 20.902343 10.988281 19.429687 15.226562zm0 0" fill="#fff" fill-rule="evenodd" stroke="#bd6b00" stroke-width=".833333"/><path d="m406.550781 384.765625c4.792969-.929687-.277343-4.925781-6.152343-11.417969-.269532 6.835938.847656 11.613282 6.152343 11.417969zm0 0" fill="#fff" fill-rule="evenodd" stroke="#bd6b00" stroke-width=".833333"/><path d="m398.472656 380.882812c2.066406-2.253906-1.988281-3.214843-7.011718-8.84375-.738282 3.789063 4.65625 10.75 7.011718 8.84375zm0 0" fill="#fff" fill-rule="evenodd" stroke="#bd6b00" stroke-width=".833333"/><path d="m421.664062 406.214844c2.628907 1.542968 4.417969-3.835938 1.15625-8.703125-.75 5.261719-3.558593 6.726562-1.15625 8.703125zm0 0" fill="#fff" fill-rule="evenodd" stroke="#bd6b00" stroke-width=".833333"/><path d="m364.679688 372.296875c-5.566407 3.347656-14.417969-9.984375-16.78125-15.46875 4.894531 6.300781 17.839843 12.042969 16.78125 15.46875zm0 0" fill="#fff" fill-rule="evenodd" stroke="#bd6b00" stroke-width=".833333"/><path d="m369.417969 380.070312c-3.085938 3.417969-12.785157-5.867187-16.15625-10.574218 5.199219 4.503906 17.515625 5.039062 16.15625 10.574218zm0 0" fill="#fff" fill-rule="evenodd" stroke="#bd6b00" stroke-width=".833333"/><path d="m374.699219 387.035156c-1.019531 4.664063-15.179688-5.828125-18.492188-10.796875 6.113281 5.75 19.421875 5.230469 18.492188 10.796875zm0 0" fill="#fff" fill-rule="evenodd" stroke="#bd6b00" stroke-width=".833333"/><path d="m372.535156 392.082031c-2.1875 4.207031-13.707031-6.210937-16.464844-11.648437 7.03125 6.148437 18.246094 7.488281 16.464844 11.648437zm0 0" fill="#fff" fill-rule="evenodd" stroke="#bd6b00" stroke-width=".833333"/><path d="m366.617188 371.613281c3.628906-3.832031 2.085937-5.621093-.5625-11.660156-1.445313 6.199219-3.636719 8.675781.5625 11.660156zm0 0" fill="#fff" fill-rule="evenodd" stroke="#bd6b00" stroke-width=".833333"/><path d="m371.433594 378.851562c6.59375.289063.066406-7.734374-1.496094-14.464843.570312 7.675781-1.691406 13.730469 1.496094 14.464843zm0 0" fill="#fff" fill-rule="evenodd" stroke="#bd6b00" stroke-width=".833333"/><path d="m375.636719 385.210938c4.5625-1.023438 3.246093-7.492188-.253907-15.3125.722657 8.453124-3.867187 13.335937.253907 15.3125zm0 0" fill="#fff" fill-rule="evenodd" stroke="#bd6b00" stroke-width=".833333"/><path d="m374.082031 397.996094c-1.71875 5.136718-14.707031-6.753906-16.773437-11.253906 6.566406 5.519531 17.933594 7.40625 16.773437 11.253906zm0 0" fill="#fff" fill-rule="evenodd" stroke="#bd6b00" stroke-width=".833333"/><path d="m381.867188 406.015625c-1.953126 5.132813-15.566407-5.277344-19.734376-10.945313 8.203126 6.449219 20.734376 5.855469 19.734376 10.945313zm0 0" fill="#fff" fill-rule="evenodd" stroke="#bd6b00" stroke-width=".833333"/><path d="m389.800781 414.105469c-2.1875 7.152343-16.417969-4.273438-20.667969-9.867188 9.066407 6.917969 21.824219 4.769531 20.667969 9.867188zm0 0" fill="#fff" fill-rule="evenodd" stroke="#bd6b00" stroke-width=".833333"/><path d="m376.417969 395.71875c3.863281 2.003906 5.425781-8.976562 3.246093-16.722656.03125 8.457031-7.753906 14.738281-3.246093 16.722656zm0 0" fill="#fff" fill-rule="evenodd" stroke="#bd6b00" stroke-width=".833333"/><path d="m383.015625 404.433594c4.648437 1.375 3.175781-10.449219-.796875-18.121094-.511719 7.601562-3.941406 14.820312.796875 18.121094zm0 0" fill="#fff" fill-rule="evenodd" stroke="#bd6b00" stroke-width=".833333"/><path d="m391.269531 412.597656c5.191407.292969 1.617188-10.140625-2.664062-16.015625.726562 7.675781-1.691407 15.128907 2.664062 16.015625zm0 0" fill="#fff" fill-rule="evenodd" stroke="#bd6b00" stroke-width=".833333"/><path d="m382.167969 417.050781c-1.5625 2.644531-5.378907-2.25-11.644531-5.8125 5.632812 1.472657 12.335937 3.363281 11.644531 5.8125zm0 0" fill="#fff" fill-rule="evenodd" stroke="#bd6b00" stroke-width=".833333"/><path d="m379.199219 329.148438c4.84375-3.578126 1.148437-10.285157 0-16.664063-1.554688 6.046875-5.664063 13.980469 0 16.664063zm0 0" fill="#fff" fill-rule="evenodd" stroke="#bd6b00" stroke-width=".833333"/><path d="m379.039062 338.085938c-7.285156-.878907-6.1875-10.285157-6.40625-16.253907 2.1875 8.097657 8.152344 9.464844 6.40625 16.253907zm0 0" fill="#fff" fill-rule="evenodd" stroke="#bd6b00" stroke-width=".833333"/><path d="m380.183594 336.863281c6.152344-.355469 5.828125-7.355469 6.160156-14.441406-3.125 6.507813-6.820312 7.519531-6.160156 14.441406zm0 0" fill="#fff" fill-rule="evenodd" stroke="#bd6b00" stroke-width=".833333"/><path d="m379.929688 345.566406c-4.785157.382813-7.273438-4.324218-8.371094-11.65625 4.539062 6.757813 8.675781 4.65625 8.371094 11.65625zm0 0" fill="#fff" fill-rule="evenodd" stroke="#bd6b00" stroke-width=".833333"/><path d="m381.648438 344.988281c6.160156.789063 5.175781-6.382812 4.925781-11.664062-1.882813 5.039062-6.894531 6.625-4.925781 11.664062zm0 0" fill="#fff" fill-rule="evenodd" stroke="#bd6b00" stroke-width=".833333"/><path d="m372.054688 341.953125c.488281 4.679687 3.441406 12.71875 8.203124 10.910156 1.96875-5.746093-4.183593-6.890625-8.203124-10.910156zm0 0" fill="#fff" fill-rule="evenodd" stroke="#bd6b00" stroke-width=".833333"/><path d="m381.730469 353.367188c-2.132813-4.105469 4.84375-6.160157 6.324219-11.488282.84375 7.632813.136718 12.636719-6.324219 11.488282zm0 0" fill="#fff" fill-rule="evenodd" stroke="#bd6b00" stroke-width=".833333"/><path d="m361.882812 304.734375c3.832032-4.132813.445313-10.675781-.703124-17.054687-1.550782 6.046874-4.253907 14.0625.703124 17.054687zm0 0" fill="#fff" fill-rule="evenodd" stroke="#bd6b00" stroke-width=".833333"/><path d="m361.765625 312.417969c-6.726563.683593-8.355469-13.011719-9.046875-18.894531 2.1875 8.09375 9.945312 11.800781 9.046875 18.894531zm0 0" fill="#fff" fill-rule="evenodd" stroke="#bd6b00" stroke-width=".833333"/><path d="m363.148438 312.28125c4.753906-2.457031 3.65625-7.746094 5.144531-11.71875-3.195313 4.871094-6.109375 5.574219-5.144531 11.71875zm0 0" fill="#fff" fill-rule="evenodd" stroke="#bd6b00" stroke-width=".833333"/><path d="m361.816406 321.246094c-7.039062.605468-11.238281-14.554688-11.457031-20.53125 2.1875 8.105468 12.277344 12.5 11.457031 20.53125zm0 0" fill="#fff" fill-rule="evenodd" stroke="#bd6b00" stroke-width=".833333"/><path d="m363.167969 321.019531c6.625-1.53125 5.824219-5.808593 4.835937-12.742187-2.109375 6.980468-5.804687 5.5-4.835937 12.742187zm0 0" fill="#fff" fill-rule="evenodd" stroke="#bd6b00" stroke-width=".833333"/><path d="m361.734375 329.996094c-7.746094 1.320312-7.199219-10.929688-13.34375-19.816406 5.3125 6.601562 14.890625 14.917968 13.34375 19.816406zm0 0" fill="#fff" fill-rule="evenodd" stroke="#bd6b00" stroke-width=".833333"/><path d="m363.484375 329.582031c5.84375.171875 6.414063-8.625 6.089844-12.199219-1.34375 3.558594-8.214844 6.933594-6.089844 12.199219zm0 0" fill="#fff" fill-rule="evenodd" stroke="#bd6b00" stroke-width=".833333"/><path d="m349.632812 320.566406c2.90625 9.421875 7.023438 18.871094 12.101563 18.15625 2.433594-5.363281-4.816406-6.046875-12.101563-18.15625zm0 0" fill="#fff" fill-rule="evenodd" stroke="#bd6b00" stroke-width=".833333"/><path d="m363.566406 337.335938c-2.132812-4.109376 4.84375-6.160157 6.324219-11.5.84375 7.636718.136719 12.648437-6.324219 11.5zm0 0" fill="#fff" fill-rule="evenodd" stroke="#bd6b00" stroke-width=".833333"/><path d="m351.636719 331.332031c4.140625 8.488281 6.011719 18.246094 11.699219 16.828125 2.125-6.601562-6.28125-7.984375-11.699219-16.828125zm0 0" fill="#fff" fill-rule="evenodd" stroke="#bd6b00" stroke-width=".833333"/><path d="m364.519531 346.550781c-2.449219-4.492187 4.53125-6.078125 6.242188-12.273437.925781 8.105468.054687 13.882812-6.242188 12.273437zm0 0" fill="#fff" fill-rule="evenodd" stroke="#bd6b00" stroke-width=".833333"/><path d="m376.449219 289.085938c4.085937 1.097656 8.375-3.480469 6.882812-10.351563-4.667969 1.164063-6.8125 5.40625-6.882812 10.351563zm0 0" fill="#fff" fill-rule="evenodd" stroke="#bd6b00" stroke-width=".833333"/><path d="m363.386719 285.652344c.351562 1.929687 2.703125 2.109375 2.019531-.628906-.570312-2.210938-.667969-3.871094 0-5.667969.910156-2.265625.609375-6.105469-.074219-7.707031-.699219-1.6875-2.996093-.699219-2.027343.625 1.066406 1.539062 1.117187 4.730468.390624 6.21875-.960937 2.203124-.699218 5.125-.308593 7.160156zm0 0" fill="#fff" fill-rule="evenodd" stroke="#bd6b00" stroke-width=".833333"/><path d="m401.496094 312.183594c-1.578125 2.320312-4.800782.902344-2.34375-2.289063 2.011718-2.578125 4.886718-4.6875 5.09375-7.355469.164062-3.375 2.148437-8.511718 3.957031-10.238281 1.863281-1.847656 4.011719.75 2.019531 1.976563-2.238281 1.449218-3.6875 7.429687-3.640625 9.726562-.078125 3.335938-3.402343 5.746094-5.085937 8.179688zm0 0" fill="#fff" fill-rule="evenodd" stroke="#bd6b00" stroke-width=".833333"/><path d="m396.535156 308.449219c-1.582031 2.324219-4.09375.972656-2.671875-2.753907 1.207031-2.578124 1.335938-5.777343 2.679688-7.664062 1.871093-2.863281 5.042969-5.25 6.851562-6.976562 1.863281-1.847657 3.410157-.0625 1.699219 1.515624-2.074219 2.074219-4.328125 4.65625-5.574219 6.613282-2.335937 3.804687-1.308593 6.832031-2.984375 9.265625zm0 0" fill="#fff" fill-rule="evenodd" stroke="#bd6b00" stroke-width=".833333"/><path d="m370.296875 296.433594c-.1875 3.28125 2.457031 4.070312 2.335937-.679688-.113281-4.964844-3.628906-9.507812-1.472656-17.058594 1.128906-3.695312 1.144532-10.472656.460938-14.070312-.601563-3.574219-3.140625-1.238281-2.179688 1.546875 1.066406 3.222656-.195312 9.40625-1.007812 12.515625-2.441406 9.054688 2.007812 13.464844 1.863281 17.746094zm0 0" fill="#fff" fill-rule="evenodd" stroke="#bd6b00" stroke-width=".833333"/><path d="m377.496094 278.304688c-.378906 3.011718-2.9375 3.285156-2.195313-.976563.617188-3.460937.722657-6.054687 0-8.871094-.992187-3.515625-.660156-9.523437.082031-12.019531.757813-2.644531 3.253907-1.101562 2.203126.96875-1.152344 2.398438-1.21875 7.390625-.421876 9.714844 1.042969 3.445312.757813 8.007812.332032 11.175781zm0 0" fill="#fff" fill-rule="evenodd" stroke="#bd6b00" stroke-width=".833333"/><path d="m351.570312 339.996094c1.261719 1.507812 3.386719.5 1.449219-1.535156-1.585937-1.644532-1.066406-2.164063-2.035156-4.167969-.949219-2.238281-.902344-3.472657-2.058594-5.070313-1.027343-1.519531-2.5625.035156-1.53125 1.300782 1.296875 1.515624.9375 2.628906 1.726563 4.085937 1.457031 2.507813 1.105468 3.816406 2.449218 5.386719zm0 0" fill="#fff" fill-rule="evenodd" stroke="#bd6b00" stroke-width=".833333"/><path d="m385.5625 381.015625c4.070312 2 7.152344 6.996094 7.359375 11.058594.347656 4.6875 1.015625 8.632812 3.125 11.964843-3.347656-.929687-4.949219-6.269531-5.429687-11.378906-.480469-5.28125-3.328126-7.578125-5.054688-11.644531zm0 0" fill="#fff" fill-rule="evenodd" stroke="#bd6b00" stroke-width=".833333"/><path d="m394.035156 390.820312c2.816406 5.191407 6.746094 7.167969 6.949219 11.027344.34375 4.4375.675781 4.65625 1.878906 9.015625-3.3125-.878906-4.148437-1.171875-5.042969-7.804687-.546874-4.664063-4.28125-7.949219-3.785156-12.238282zm0 0" fill="#fff" fill-rule="evenodd" stroke="#bd6b00" stroke-width=".833333"/><path d="m481.617188 438.867188c1.578124 2.980468 3.394531 7.519531 6.6875 6.6875.050781-2.285157-3.554688-3.863282-6.6875-6.6875zm0 0" fill="#fff" fill-rule="evenodd"/><path d="m486.515625 439.886719c6.398437 2.617187 11.914063 1.96875 12.597656 5.988281-5.992187.648438-8.1875-1.816406-12.597656-5.988281zm0 0" fill="#fff" fill-rule="evenodd"/><path d="m459.75 418.734375c4.304688 3.523437 7.097656 7.550781 8.398438 12.75 1.359374 4.851563 3.269531 8.71875 6.070312 13.070313-4.566406-3.105469-7.429688-7.347657-8.871094-12.441407-1.261718-5.011719-2.742187-8.765625-5.597656-13.378906zm0 0" fill="#fff" fill-rule="evenodd"/><path d="m465.046875 418.714844c4.617187 3.6875 8.96875 7.863281 10.269531 13.074218 1.359375 4.839844 2.179688 8.550782 5.289063 13.371094-4.871094-3.109375-6.808594-7.8125-8.242188-12.910156-1.261719-5.011719-4.152343-8.765625-7.316406-13.535156zm0 0" fill="#fff" fill-rule="evenodd"/><path d="m480.28125 430.785156c-.121094-.910156.496094-1.707031 1.246094-1.945312 1.457031-.542969 2.914062-.992188 4.355468-1.398438 1.640626-.390625 2.5625.78125 2.570313 1.554688.007813 1.285156.0625 2.367187 0 3.34375-.089844 1.207031-.324219 1.296875-1.089844 1.480468-1.230469.203126-2.808593.417969-4.046875 1.238282-.976562.601562-1.921875.132812-2.40625-.925782-.320312-.808593-.488281-2.394531-.628906-3.347656zm0 0" fill="#fff" fill-rule="evenodd"/><path d="m497.996094 430.785156c.117187-.910156-.363282-1.78125-1.03125-2.023437-1.300782-.546875-2.597656-.679688-3.960938-.621094-1.523437-.023437-1.90625.316406-1.914062 1.089844-.007813 1.28125-.058594 2.523437 0 3.492187.082031 1.210938.054687 1.300782.738281 1.480469 1.097656.214844 2.980469.269531 4.078125 1.089844.878906.601562 1.882812.125 1.921875-1.007813-.019531-.855468.054687-2.546875.167969-3.5zm0 0" fill="#fff" fill-rule="evenodd"/><path d="m571.136719 310.882812c2.058593-3.304687 4.511719 4.578126 12.976562 10.453126 3.941407 2.679687 6.683594 9.816406 6.707031 14.519531.128907 3.222656-.359374 6.445312 0 9.570312.226563 1.96875 2.285157 6.355469.878907 7.480469-3.71875 2.765625-8.546875 9.046875-10.773438 11.222656-1.9375 1.691406-3.617187-8.75-5.0625-13.421875-1.554687-5.011719-.863281-10.996093-5.167969-15.625-3.058593-3.125-10.765624-6.191406-9.902343-7.585937zm0 0" fill="#fff" fill-rule="evenodd" stroke="#bd6b00" stroke-width=".833333"/><path d="m571.566406 336.464844c.640625-1.472656 1.59375-3.003906 2.757813-4.320313 1.164062-1.316406 2.546875-2.433593 4.070312-2.96875 1.464844-.546875 2.960938-1.253906 4.003907-2.558593.519531-.640626.976562-1.464844 1.195312-2.441407.210938-.910156.210938-2.015625.054688-3.285156.179687.136719.277343.285156.464843.421875 3.941407 2.679688 6.699219 9.832031 6.722657 14.527344.050781 1.300781.058593 2.5625 0 3.859375-.292969.804687-.570313 1.59375-.992188 2.082031-.539062.632812-1.1875 1.054688-1.871094 1.351562-1.375.582032-2.953125.707032-4.425781 1.253907-1.523437.535156-3.085937 1.761719-4.429687 3.226562-1.277344 1.394531-2.261719 2.996094-2.914063 4.429688-.113281-.40625-.257813-1.007813-.367187-1.359375-1.40625-4.535156-1.160157-9.816406-4.269532-14.21875zm0 0" fill="#bf0000" fill-rule="evenodd" stroke="#bd6b00" stroke-width=".833333"/><path d="m583.636719 320.644531c.804687 5.601563-2.3125 7.457031-5.25 8.546875-3.046875 1.074219-5.535157 4.335938-6.820313 7.292969" fill="none" stroke="#bd6b00" stroke-width=".833333"/><path d="m591.171875 339.070312c-1.285156 4.816407-4.664063 4.214844-7.613281 5.296876-3.035156 1.082031-6.238282 4.933593-7.515625 7.878906" fill="none" stroke="#bd6b00" stroke-width=".833333"/><path d="m573.984375 307.472656-1.539063-.996094-29.589843 49.828126 1.539062.996093zm0 0" fill="#fff" fill-rule="evenodd" stroke="#bd6b00" stroke-width=".833333"/><path d="m570.800781 305.484375c0 1.78125 1.628907 3.410156 3.410157 3.410156s3.410156-1.628906 3.410156-3.410156c0-1.789063-1.628906-3.410156-3.410156-3.410156s-3.410157 1.621093-3.410157 3.410156zm0 0" fill="#fff" fill-rule="evenodd" stroke="#bd6b00" stroke-width=".833333"/><path d="m533.511719 265.445312h11.988281v2.75h-11.988281zm0 0" fill="#fff" fill-rule="evenodd" stroke="#bd6b00" stroke-width=".833333"/><path d="m533.511719 270.671875h11.988281v22.964844h-11.988281zm0 0" fill="#fff" fill-rule="evenodd" stroke="#bd6b00" stroke-width=".833333"/><path d="m546.230469 262.3125-13.296875.082031c-.519532-4.507812 3.980468-9.382812 6.609375-9.335937 2.597656.132812 6.792969 4.933594 6.6875 9.253906zm0 0" fill="#fff" fill-rule="evenodd" stroke="#bd6b00" stroke-width=".833333"/><path d="m512.296875 259.601562c2.539063 1.066407 4.484375 3.964844 5.679687 7.292969 1.195313 3.328125 1.652344 7.113281 1.089844 10.15625v.050781c-.210937 1.046876-.496094 1.804688-.828125 2.34375-.335937.535157-.699219.851563-1.148437.933594-.441406.082032-.855469-.152344-1.089844-.519531-.238281-.367187-.359375-.847656-.320312-1.410156.246093-3.125.230468-6.214844-.519532-9.007813-.738281-2.792968-2.230468-5.273437-4.949218-7.292968-.484376-.355469-.769532-.769532-.828126-1.195313-.054687-.421875.164063-.789063.472657-1.039063.601562-.503906 1.5625-.675781 2.441406-.3125zm-.261719.726563c-.609375-.253906-1.398437-.105469-1.714844.152344-.15625.140625-.171874.230469-.15625.367187.027344.144532.128907.390625.519532.675782 2.859375 2.125 4.429687 4.785156 5.210937 7.714843.78125 2.921875.765625 6.09375.519531 9.269531-.03125.433594.089844.757813.210938.9375.113281.175782.179688.234376.308594.207032.140625-.019532.417968-.191406.675781-.625.269531-.429688.53125-1.097656.734375-2.082032.519531-2.859374.054688-6.585937-1.101562-9.792968-1.152344-3.210938-3-5.898438-5.207032-6.824219zm0 0" fill="#bd6b00" fill-rule="evenodd"/><path d="m508.015625 262.882812c2.53125 1.066407 4.167969 3.824219 5.054687 6.980469.878907 3.160157 1.015626 6.773438.464844 9.789063-.433594 2.144531-1.554687 3.273437-2.652344 3.4375-.546874.089844-1.085937-.132813-1.410156-.570313-.324218-.441406-.429687-1.035156-.261718-1.773437.628906-2.5.863281-5.609375.417968-8.429688-.441406-2.832031-1.5625-5.355468-3.695312-6.878906-.488282-.359375-.773438-.773438-.832032-1.195312-.0625-.433594.164063-.847657.464844-1.097657.609375-.507812 1.5625-.628906 2.449219-.261719zm-.308594.730469c-.621093-.257812-1.351562-.105469-1.667969.15625-.164062.128907-.230468.21875-.210937.367188.023437.136719.179687.390625.574219.671875 2.355468 1.679687 3.550781 4.445312 4.007812 7.398437.460938 2.957031.175782 6.105469-.464844 8.703125-.140624.582032 0 .984375.15625 1.195313.152344.210937.355469.308593.671876.257812.644531-.097656 1.644531-.925781 2.035156-2.863281.527344-2.890625.375-6.445312-.472656-9.480469-.84375-3.035156-2.421876-5.476562-4.628907-6.40625zm0 0" fill="#bd6b00" fill-rule="evenodd"/><path d="m532.769531 312.3125h13.378907v18.515625h-13.378907zm0 0" fill="#fff" fill-rule="evenodd" stroke="#bd6b00" stroke-width=".833333"/><path d="m532.453125 341.414062h12.914063v3.890626h-12.914063zm0 0" fill="#fff" fill-rule="evenodd" stroke="#bd6b00" stroke-width=".833333"/><path d="m532.460938 348.25h13.226562v14.46875h-13.226562zm0 0" fill="#fff" fill-rule="evenodd" stroke="#bd6b00" stroke-width=".833333"/><path d="m532.152344 365.679688h14.460937v8.089843h-14.460937zm0 0" fill="#fff" fill-rule="evenodd" stroke="#bd6b00" stroke-width=".833333"/><path d="m544.832031 337.929688h-11.652343l-2.3125-3.847657h16.054687zm0 0" fill="#fff" fill-rule="evenodd" stroke="#bd6b00" stroke-width=".833333"/><path d="m529.117188 323.746094-.113282-10.113282h-8.023437c3.148437 2.601563 6.085937 5.753907 8.136719 10.113282zm0 0" fill="#fff" fill-rule="evenodd" stroke="#bd6b00" stroke-width=".833333"/><path d="m544.066406 327.898438c-.082031 2.164062-2.527344 1.203124-2.527344.113281 0-3.335938-.042968-6.953125.085938-9.308594.015625-1.75-4.148438-1.3125-4.125-.238281-.015625 2.816406-.046875 6.679687-.066406 9.984375.03125 1.605469-2.691406 1.464843-2.652344 0 .015625-3.683594.015625-9.039063 0-11.75-.023438-3.492188 9.164062-3.417969 9.238281-.082031 0 2.742187.046875 7.648437.046875 11.28125zm0 0" fill="none" stroke="#bd6b00" stroke-width=".833333"/><path d="m534.5625 349.964844h9.488281v11.828125h-9.488281zm0 0" fill="none" stroke="#bd6b00" stroke-width=".833333"/><g fill-rule="evenodd"><path d="m534.636719 354.867188h3.34375v1.945312h-3.34375zm0 0" fill="#fff" stroke="#bd6b00" stroke-width=".833333"/><path d="m540.550781 354.867188h3.265625v1.945312h-3.265625zm0 0" fill="#fff" stroke="#bd6b00" stroke-width=".833333"/><path d="m537.980469 350.113281h2.570312v4.828125h-2.570312zm0 0" fill="#fff" stroke="#bd6b00" stroke-width=".833333"/><path d="m537.980469 356.730469h2.570312v5.132812h-2.570312zm0 0" fill="#fff" stroke="#bd6b00" stroke-width=".833333"/><path d="m593.351562 231.617188c-.59375 9.277343 2.285157 14.371093 7.203126 13.597656 1.347656-5.152344-1.734376-8.601563-7.203126-13.597656zm0 0" fill="#fff" stroke="#bd6b00" stroke-width=".833333"/><path d="m604.132812 252.179688c4.371094-2.222657 1.214844-19.1875-.460937-26.292969-1.238281 9.15625-3.3125 22.175781.460937 26.292969zm0 0" fill="#fff" stroke="#bd6b00" stroke-width=".833333"/><path d="m602.578125 252.988281c-7.339844 2.546875-13.148437-5.355469-15.121094-14.519531 6.066407 8.363281 15.929688 8.371094 15.121094 14.519531zm0 0" fill="#fff" stroke="#bd6b00" stroke-width=".833333"/><path d="m608.144531 261.546875c5.746094-1.511719 2.289063-19.511719 1.246094-26.714844-1.261719 7.4375-5.222656 24.257813-1.246094 26.714844zm0 0" fill="#fff" stroke="#bd6b00" stroke-width=".833333"/><path d="m606.183594 260.984375c-.324219-6.207031-6.507813-4.417969-10.78125-7.730469.699218 3.101563 3.328125 8.601563 10.78125 7.730469zm0 0" fill="#fff" stroke="#bd6b00" stroke-width=".833333"/><path d="m613.214844 269.304688c5.6875-1.539063 2.273437-20.910157 2.597656-28.882813-1.667969 6.882813-6.957031 27.007813-2.597656 28.882813zm0 0" fill="#fff" stroke="#bd6b00" stroke-width=".833333"/><path d="m610.5625 268.464844c-4.652344 1.515625-10.832031-1.511719-11.320312-7.0625 4.019531 2.726562 10.425781.640625 11.320312 7.0625zm0 0" fill="#fff" stroke="#bd6b00" stroke-width=".833333"/><path d="m617.464844 277.847656c5.445312.441406 3.011718-16.0625 3-31.429687-1.992188 14.367187-7.445313 27.515625-3 31.429687zm0 0" fill="#fff" stroke="#bd6b00" stroke-width=".833333"/><path d="m615.582031 277.101562c-3.675781 1.847657-10.257812-1.101562-12.140625-7.308593 6.640625 2.878906 11.085938.0625 12.140625 7.308593zm0 0" fill="#fff" stroke="#bd6b00" stroke-width=".833333"/><path d="m572.867188 240.21875c.96875 8.046875 4.257812 12.726562 9.171874 11.953125 1.351563-5.144531-2.628906-8.4375-9.171874-11.953125zm0 0" fill="#fff" stroke="#bd6b00" stroke-width=".833333"/><path d="m585.863281 260.863281c-8.160156 1.164063-11.097656-5.101562-16.59375-13.117187 7.699219 5.574218 16.902344 6.738281 16.59375 13.117187zm0 0" fill="#fff" stroke="#bd6b00" stroke-width=".833333"/><path d="m588.183594 259.953125c4.453125-5.347656.144531-12.054687-3.253906-17.765625.730468 8.503906-2.164063 13.234375 3.253906 17.765625zm0 0" fill="#fff" stroke="#bd6b00" stroke-width=".833333"/><path d="m590.152344 268.765625c.496094-5.222656-8.398438-6.378906-12.425782-9.285156 1.359376 3.019531 3.410157 11.140625 12.425782 9.285156zm0 0" fill="#fff" stroke="#bd6b00" stroke-width=".833333"/><path d="m592.015625 268.878906c6.152344-.691406 3.597656-11.140625-.8125-16.941406 1.855469 8.007812-3.246094 13.582031.8125 16.941406zm0 0" fill="#fff" stroke="#bd6b00" stroke-width=".833333"/><path d="m596.648438 277.578125c7.003906-3.089844 2.515624-11.871094-.113282-17.054687 1.121094 6.800781-4.492187 11.996093.113282 17.054687zm0 0" fill="#fff" stroke="#bd6b00" stroke-width=".833333"/><path d="m595.265625 276.765625c-3.671875 4.800781-10.835937-1.433594-12.308594-8.707031 6.234375 5.191406 10.839844 4.335937 12.308594 8.707031zm0 0" fill="#fff" stroke="#bd6b00" stroke-width=".833333"/><path d="m611.261719 310.53125c.726562-7.144531-4.652344-20.132812-.835938-27.070312.519531-.949219-1.140625-3.472657-2.214843-1.941407-1.675782 2.449219-3.402344 9.421875-4.125 6.84375-.765626-2.800781-.878907-7.75-3.359376-8.710937-1.582031-.558594-3.816406-.933594-3.207031 1.554687.609375 2.394531 1.960938 5.699219.460938 5.917969-.878907.121094-3.382813-3.261719-5.5-4.824219-1.710938-1.402343-4.246094.789063-1.757813 2.878907 8.105469 6.722656 15.949219 9.75 20.546875 25.351562zm0 0" fill="#fff" stroke="#bd6b00" stroke-width=".833333"/><path d="m625.816406 418.082031c.949219-.179687 2.253906-.503906 1.070313.976563-9.464844 11.652344-12.207031 14.867187-26.007813 13.234375-13.941406-1.839844-17.261718-5.609375-27.027344-11.085938-5.207031-3.058593-12.832031-3.742187-18.609374-1.847656-2.695313.878906-4.324219.9375-2.394532-.992187 1.929688-1.925782 4.207032-4.558594 6.582032-6.363282 5.195312-3.988281 14.015624-5.71875 21.210937-4.433594 10.171875 1.59375 18.578125 8.070313 28.621094 10.519532 5.28125 1.207031 11.066406 1.027344 16.554687-.007813zm0 0" fill="#fff" stroke="#bd6b00" stroke-width=".833333"/><path d="m546.167969 438.917969c-1.757813.21875-2.875 3.628906-3.746094 1.316406-1.464844-3.734375-.4375-6.707031 1.214844-6.378906 1.953125.519531 5.25 4.890625 2.53125 5.0625zm0 0" fill="#fff" stroke="#bd6b00" stroke-width=".833333"/><path d="m632.332031 304.867188c2.027344-2.117188 1.441407-2.921876-1.554687-2.953126-2.375-.15625-7.078125 1.453126-8.867188.152344-1.640625-1.1875-.988281-6.234375-1.710937-8.558594-.316407-1.296874-1.230469-3.332031-3.265625-.15625-6.039063 9.675782-13.582032 21.289063-16.804688 32.664063-1.757812 6.382813-.09375 16.335937 5.761719 23.03125-.210937-5.703125 1.914063-9.542969 4.507813-14.3125 3.199218-6.269531 15.097656-23.25 21.933593-29.867187zm0 0" fill="#fff"/><path d="m607.445312 355.738281c-6.628906.023438-7.769531-8.871093-7.769531-11.359375 3.261719.625 9.015625 6.070313 7.769531 11.359375zm0 0" fill="#fff" stroke="#bd6b00" stroke-width=".833333"/><path d="m550.082031 442.097656c-4.722656 1.074219-4.65625-10.292968.171875-15.113281-2.125 7.300781 3.546875 13.980469-.171875 15.113281zm0 0" fill="#fff" stroke="#bd6b00" stroke-width=".833333"/><path d="m551.921875 442c-.316406 5.402344 13.253906-.707031 16.746094-4.90625-8.015625 3.402344-16.359375.585938-16.746094 4.90625zm0 0" fill="#fff" stroke="#bd6b00" stroke-width=".833333"/><path d="m557.867188 434.285156c-.484376 5.234375 11.769531.628906 15.398437-3.457031-8.054687 2.601563-14.867187-.855469-15.398437 3.457031zm0 0" fill="#fff" stroke="#bd6b00" stroke-width=".833333"/><path d="m555.613281 435.019531c-4.71875 1.070313-3.953125-10.6875.636719-14.730469-2.207031 7.84375 3.078125 13.589844-.636719 14.730469zm0 0" fill="#fff" stroke="#bd6b00" stroke-width=".833333"/><path d="m560.578125 427.863281c-4.71875 1.078125-2.007813-9.046875 1.492187-13.09375-.570312 7.382813 1.757813 12.5-1.492187 13.09375zm0 0" fill="#fff" stroke="#bd6b00" stroke-width=".833333"/><path d="m563.085938 427.832031c-.488282 5.394531 9.050781 1.253907 12.75-3.847656-7.972657 2.601563-12.222657-.457031-12.75 3.847656zm0 0" fill="#fff" stroke="#bd6b00" stroke-width=".833333"/><path d="m565.679688 423.730469c-3.089844-2.222657.1875-8.105469 6.082031-7.738281-.578125 3.554687-2.613281 9.796874-6.082031 7.738281zm0 0" fill="#fff" stroke="#bd6b00" stroke-width=".833333"/><path d="m542.429688 448.121094c-.308594 5.402344 13.265624 2.707031 17.53125-3.042969-8.5625 1.617187-17.128907-1.285156-17.53125 3.042969zm0 0" fill="#fff" stroke="#bd6b00" stroke-width=".833333"/><path d="m596.371094 438.453125c-.488282 5.386719 14.332031-.539063 18.03125-5.640625-7.964844 2.605469-17.503906 1.328125-18.03125 5.640625zm0 0" fill="#fff" stroke="#bd6b00" stroke-width=".833333"/><path d="m587.28125 440.746094c-3.09375-2.222656 3.222656-7.949219 8.25-9.292969-.570312 3.550781-4.785156 11.351563-8.25 9.292969zm0 0" fill="#fff" stroke="#bd6b00" stroke-width=".833333"/><path d="m586.335938 444.484375c-.332032 4.847656 15.894531 2.1875 20.132812-2.289063-13.957031 2.523438-19.675781-1.863281-20.132812 2.289063zm0 0" fill="#fff" stroke="#bd6b00" stroke-width=".833333"/><path d="m578.734375 447.710938c-1.804687 4.511718 13.769531 3.410156 19.238281.792968-8.835937-.074218-18-3.925781-19.238281-.792968zm0 0" fill="#fff" stroke="#bd6b00" stroke-width=".833333"/><path d="m571.453125 451c-1.726563 4.039062 12.679687 3.949219 19.699219 1.71875-9.300782-.074219-18-5.714844-19.699219-1.71875zm0 0" fill="#fff" stroke="#bd6b00" stroke-width=".833333"/><path d="m560.972656 453.167969c-2.558594 4.773437 12.644532 5.238281 17.574219 2.886719-8.789063-1.203126-15.402344-6.648438-17.574219-2.886719zm0 0" fill="#fff" stroke="#bd6b00" stroke-width=".833333"/><path d="m578.769531 445.003906c4.832031 3.042969 4.570313-5.941406 8.421875-12.167968-6.046875 5.5-11.703125 9.253906-8.421875 12.167968zm0 0" fill="#fff" stroke="#bd6b00" stroke-width=".833333"/><path d="m570.199219 448.234375c4.0625 3.589844 7.296875-8.742187 10.996093-15.664063-5.976562 6.589844-14.742187 12.675782-10.996093 15.664063zm0 0" fill="#fff" stroke="#bd6b00" stroke-width=".833333"/><path d="m558.871094 451.667969c3.433594 3.980469 13.363281-11.703125 16.976562-19.863281-5.5 6.355468-19.710937 16.488281-16.976562 19.863281zm0 0" fill="#fff" stroke="#bd6b00" stroke-width=".833333"/><path d="m568.53125 463.632812c1.714844 6.050782 26.984375-5.707031 29.808594-11.792968-14.460938 7.65625-30.152344 6.054687-29.808594 11.792968zm0 0" fill="#fff" stroke="#bd6b00" stroke-width=".833333"/><path d="m649.746094 340.632812c.59375-.765624 2.296875.015626 1.871094 1.871094-.394532 2.5-4.082032 15.332032-10.421876 19.753906-4.519531 3.253907-28.273437 8.503907-39.046874 10.730469-5.921876 1.1875-10.886719 4.152344-14.777344 8.863281 1.609375-6.167968 2.902344-10.734374 4.980468-16.332031 2.015626-4.90625 7.363282-10.285156 12.90625-10.570312 10.292969-.375 23.613282-1.253907 33.292969-5.453125 4.996094-2.082032 7.984375-4.898438 11.195313-8.863282zm0 0" fill="#fff" stroke="#bd6b00" stroke-width=".833333"/><path d="m590.761719 391.449219c-3.238281 2.390625-6.816407-6.171875-2.699219-14.308594.128906 7.828125 6.355469 10.464844 2.699219 14.308594zm0 0" fill="#fff" stroke="#bd6b00" stroke-width=".833333"/><path d="m587.644531 399.300781c-4.480469 1.375-5.890625-6.558593-2.9375-12.914062-.484375 6.824219 7.058594 10.9375 2.9375 12.914062zm0 0" fill="#fff" stroke="#bd6b00" stroke-width=".833333"/><path d="m584.238281 405.601562c-4.339843 2.15625-5.984375-5.863281-2.867187-11.816406-.339844 7.589844 6.203125 9.835938 2.867187 11.816406zm0 0" fill="#fff" stroke="#bd6b00" stroke-width=".833333"/><path d="m586.019531 406.085938c1.714844 5.128906 11.679688-4.425782 13.351563-9.625-6.183594 6.144531-14.589844 5.460937-13.351563 9.625zm0 0" fill="#fff" stroke="#bd6b00" stroke-width=".833333"/><path d="m590.535156 398.234375c1.953125 5.132813 14.476563-8.082031 17.242188-14.445313-6.179688 6.136719-18.632813 10.824219-17.242188 14.445313zm0 0" fill="#fff" stroke="#bd6b00" stroke-width=".833333"/><path d="m593.015625 390.535156c1.957031 5.835938 15.570313-9.714844 19.429687-15.226562-6.496093 6.0625-20.902343 10.988281-19.429687 15.226562zm0 0" fill="#fff" stroke="#bd6b00" stroke-width=".833333"/><path d="m593.449219 384.765625c-4.792969-.929687.277343-4.925781 6.152343-11.417969.269532 6.835938-.847656 11.613282-6.152343 11.417969zm0 0" fill="#fff" stroke="#bd6b00" stroke-width=".833333"/><path d="m601.527344 380.882812c-2.066406-2.253906 1.988281-3.214843 7.011718-8.84375.738282 3.789063-4.65625 10.75-7.011718 8.84375zm0 0" fill="#fff" stroke="#bd6b00" stroke-width=".833333"/><path d="m578.335938 406.214844c-2.628907 1.542968-4.417969-3.835938-1.15625-8.703125.75 5.261719 3.558593 6.726562 1.15625 8.703125zm0 0" fill="#fff" stroke="#bd6b00" stroke-width=".833333"/><path d="m635.320312 372.296875c5.566407 3.347656 14.417969-9.984375 16.78125-15.46875-4.894531 6.300781-17.839843 12.042969-16.78125 15.46875zm0 0" fill="#fff" stroke="#bd6b00" stroke-width=".833333"/><path d="m630.582031 380.070312c3.085938 3.417969 12.785157-5.867187 16.15625-10.574218-5.199219 4.503906-17.515625 5.039062-16.15625 10.574218zm0 0" fill="#fff" stroke="#bd6b00" stroke-width=".833333"/><path d="m625.300781 387.035156c1.019531 4.664063 15.179688-5.828125 18.492188-10.796875-6.113281 5.75-19.421875 5.230469-18.492188 10.796875zm0 0" fill="#fff" stroke="#bd6b00" stroke-width=".833333"/><path d="m627.464844 392.082031c2.1875 4.207031 13.707031-6.210937 16.464844-11.648437-7.03125 6.148437-18.246094 7.488281-16.464844 11.648437zm0 0" fill="#fff" stroke="#bd6b00" stroke-width=".833333"/><path d="m633.382812 371.613281c-3.628906-3.832031-2.085937-5.621093.5625-11.660156 1.445313 6.199219 3.636719 8.675781-.5625 11.660156zm0 0" fill="#fff" stroke="#bd6b00" stroke-width=".833333"/><path d="m628.566406 378.851562c-6.59375.289063-.066406-7.734374 1.496094-14.464843-.570312 7.675781 1.691406 13.730469-1.496094 14.464843zm0 0" fill="#fff" stroke="#bd6b00" stroke-width=".833333"/><path d="m624.363281 385.210938c-4.5625-1.023438-3.246093-7.492188.253907-15.3125-.722657 8.453124 3.867187 13.335937-.253907 15.3125zm0 0" fill="#fff" stroke="#bd6b00" stroke-width=".833333"/><path d="m625.917969 397.996094c1.71875 5.136718 14.707031-6.753906 16.773437-11.253906-6.566406 5.519531-17.933594 7.40625-16.773437 11.253906zm0 0" fill="#fff" stroke="#bd6b00" stroke-width=".833333"/><path d="m618.132812 406.015625c1.953126 5.132813 15.566407-5.277344 19.734376-10.945313-8.203126 6.449219-20.734376 5.855469-19.734376 10.945313zm0 0" fill="#fff" stroke="#bd6b00" stroke-width=".833333"/><path d="m610.199219 414.105469c2.1875 7.152343 16.417969-4.273438 20.667969-9.867188-9.066407 6.917969-21.824219 4.769531-20.667969 9.867188zm0 0" fill="#fff" stroke="#bd6b00" stroke-width=".833333"/><path d="m623.582031 395.71875c-3.863281 2.003906-5.425781-8.976562-3.246093-16.722656-.03125 8.457031 7.753906 14.738281 3.246093 16.722656zm0 0" fill="#fff" stroke="#bd6b00" stroke-width=".833333"/><path d="m616.984375 404.433594c-4.648437 1.375-3.175781-10.449219.796875-18.121094.511719 7.601562 3.941406 14.820312-.796875 18.121094zm0 0" fill="#fff" stroke="#bd6b00" stroke-width=".833333"/><path d="m608.730469 412.597656c-5.191407.292969-1.617188-10.140625 2.664062-16.015625-.726562 7.675781 1.691407 15.128907-2.664062 16.015625zm0 0" fill="#fff" stroke="#bd6b00" stroke-width=".833333"/><path d="m617.832031 417.050781c1.5625 2.644531 5.378907-2.25 11.644531-5.8125-5.632812 1.472657-12.335937 3.363281-11.644531 5.8125zm0 0" fill="#fff" stroke="#bd6b00" stroke-width=".833333"/><path d="m620.800781 329.148438c-4.84375-3.578126-1.148437-10.285157 0-16.664063 1.554688 6.046875 5.664063 13.980469 0 16.664063zm0 0" fill="#fff" stroke="#bd6b00" stroke-width=".833333"/><path d="m620.960938 338.085938c7.285156-.878907 6.1875-10.285157 6.40625-16.253907-2.1875 8.097657-8.152344 9.464844-6.40625 16.253907zm0 0" fill="#fff" stroke="#bd6b00" stroke-width=".833333"/><path d="m619.816406 336.863281c-6.152344-.355469-5.828125-7.355469-6.160156-14.441406 3.125 6.507813 6.820312 7.519531 6.160156 14.441406zm0 0" fill="#fff" stroke="#bd6b00" stroke-width=".833333"/><path d="m620.070312 345.566406c4.785157.382813 7.273438-4.324218 8.371094-11.65625-4.539062 6.757813-8.675781 4.65625-8.371094 11.65625zm0 0" fill="#fff" stroke="#bd6b00" stroke-width=".833333"/><path d="m618.351562 344.988281c-6.160156.789063-5.175781-6.382812-4.925781-11.664062 1.882813 5.039062 6.894531 6.625 4.925781 11.664062zm0 0" fill="#fff" stroke="#bd6b00" stroke-width=".833333"/><path d="m627.945312 341.953125c-.488281 4.679687-3.441406 12.71875-8.203124 10.910156-1.96875-5.746093 4.183593-6.890625 8.203124-10.910156zm0 0" fill="#fff" stroke="#bd6b00" stroke-width=".833333"/><path d="m618.269531 353.367188c2.132813-4.105469-4.84375-6.160157-6.324219-11.488282-.84375 7.632813-.136718 12.636719 6.324219 11.488282zm0 0" fill="#fff" stroke="#bd6b00" stroke-width=".833333"/><path d="m638.117188 304.734375c-3.832032-4.132813-.445313-10.675781.703124-17.054687 1.550782 6.046874 4.253907 14.0625-.703124 17.054687zm0 0" fill="#fff" stroke="#bd6b00" stroke-width=".833333"/><path d="m638.234375 312.417969c6.726563.683593 8.355469-13.011719 9.046875-18.894531-2.1875 8.09375-9.945312 11.800781-9.046875 18.894531zm0 0" fill="#fff" stroke="#bd6b00" stroke-width=".833333"/><path d="m636.851562 312.28125c-4.753906-2.457031-3.65625-7.746094-5.144531-11.71875 3.195313 4.871094 6.109375 5.574219 5.144531 11.71875zm0 0" fill="#fff" stroke="#bd6b00" stroke-width=".833333"/><path d="m638.183594 321.246094c7.039062.605468 11.238281-14.554688 11.457031-20.53125-2.1875 8.105468-12.277344 12.5-11.457031 20.53125zm0 0" fill="#fff" stroke="#bd6b00" stroke-width=".833333"/><path d="m636.832031 321.019531c-6.625-1.53125-5.824219-5.808593-4.835937-12.742187 2.109375 6.980468 5.804687 5.5 4.835937 12.742187zm0 0" fill="#fff" stroke="#bd6b00" stroke-width=".833333"/><path d="m638.265625 329.996094c7.746094 1.320312 7.199219-10.929688 13.34375-19.816406-5.3125 6.601562-14.890625 14.917968-13.34375 19.816406zm0 0" fill="#fff" stroke="#bd6b00" stroke-width=".833333"/><path d="m636.515625 329.582031c-5.84375.171875-6.414063-8.625-6.089844-12.199219 1.34375 3.558594 8.214844 6.933594 6.089844 12.199219zm0 0" fill="#fff" stroke="#bd6b00" stroke-width=".833333"/><path d="m650.367188 320.566406c-2.90625 9.421875-7.023438 18.871094-12.101563 18.15625-2.433594-5.363281 4.816406-6.046875 12.101563-18.15625zm0 0" fill="#fff" stroke="#bd6b00" stroke-width=".833333"/><path d="m636.433594 337.335938c2.132812-4.109376-4.84375-6.160157-6.324219-11.5-.84375 7.636718-.136719 12.648437 6.324219 11.5zm0 0" fill="#fff" stroke="#bd6b00" stroke-width=".833333"/><path d="m648.363281 331.332031c-4.140625 8.488281-6.011719 18.246094-11.699219 16.828125-2.125-6.601562 6.28125-7.984375 11.699219-16.828125zm0 0" fill="#fff" stroke="#bd6b00" stroke-width=".833333"/><path d="m635.480469 346.550781c2.449219-4.492187-4.53125-6.078125-6.242188-12.273437-.925781 8.105468-.054687 13.882812 6.242188 12.273437zm0 0" fill="#fff" stroke="#bd6b00" stroke-width=".833333"/><path d="m623.550781 289.085938c-4.085937 1.097656-8.375-3.480469-6.882812-10.351563 4.667969 1.164063 6.8125 5.40625 6.882812 10.351563zm0 0" fill="#fff" stroke="#bd6b00" stroke-width=".833333"/><path d="m636.613281 285.652344c-.351562 1.929687-2.703125 2.109375-2.019531-.628906.570312-2.210938.667969-3.871094 0-5.667969-.910156-2.265625-.609375-6.105469.074219-7.707031.699219-1.6875 2.996093-.699219 2.027343.625-1.066406 1.539062-1.117187 4.730468-.390624 6.21875.960937 2.203124.699218 5.125.308593 7.160156zm0 0" fill="#fff" stroke="#bd6b00" stroke-width=".833333"/><path d="m598.503906 312.183594c1.578125 2.320312 4.800782.902344 2.34375-2.289063-2.011718-2.578125-4.886718-4.6875-5.09375-7.355469-.164062-3.375-2.148437-8.511718-3.957031-10.238281-1.863281-1.847656-4.011719.75-2.019531 1.976563 2.238281 1.449218 3.6875 7.429687 3.640625 9.726562.078125 3.335938 3.402343 5.746094 5.085937 8.179688zm0 0" fill="#fff" stroke="#bd6b00" stroke-width=".833333"/><path d="m603.464844 308.449219c1.582031 2.324219 4.09375.972656 2.671875-2.753907-1.207031-2.578124-1.335938-5.777343-2.679688-7.664062-1.871093-2.863281-5.042969-5.25-6.851562-6.976562-1.863281-1.847657-3.410157-.0625-1.699219 1.515624 2.074219 2.074219 4.328125 4.65625 5.574219 6.613282 2.335937 3.804687 1.308593 6.832031 2.984375 9.265625zm0 0" fill="#fff" stroke="#bd6b00" stroke-width=".833333"/><path d="m629.703125 296.433594c.1875 3.28125-2.457031 4.070312-2.335937-.679688.113281-4.964844 3.628906-9.507812 1.472656-17.058594-1.128906-3.695312-1.144532-10.472656-.460938-14.070312.601563-3.574219 3.140625-1.238281 2.179688 1.546875-1.066406 3.222656.195312 9.40625 1.007812 12.515625 2.441406 9.054688-2.007812 13.464844-1.863281 17.746094zm0 0" fill="#fff" stroke="#bd6b00" stroke-width=".833333"/><path d="m622.503906 278.304688c.378906 3.011718 2.9375 3.285156 2.195313-.976563-.617188-3.460937-.722657-6.054687 0-8.871094.992187-3.515625.660156-9.523437-.082031-12.019531-.757813-2.644531-3.253907-1.101562-2.203126.96875 1.152344 2.398438 1.21875 7.390625.421876 9.714844-1.042969 3.445312-.757813 8.007812-.332032 11.175781zm0 0" fill="#fff" stroke="#bd6b00" stroke-width=".833333"/><path d="m648.429688 339.996094c-1.261719 1.507812-3.386719.5-1.449219-1.535156 1.585937-1.644532 1.066406-2.164063 2.035156-4.167969.949219-2.238281.902344-3.472657 2.058594-5.070313 1.027343-1.519531 2.5625.035156 1.53125 1.300782-1.296875 1.515624-.9375 2.628906-1.726563 4.085937-1.457031 2.507813-1.105468 3.816406-2.449218 5.386719zm0 0" fill="#fff" stroke="#bd6b00" stroke-width=".833333"/><path d="m614.4375 381.015625c-4.070312 2-7.152344 6.996094-7.359375 11.058594-.347656 4.6875-1.015625 8.632812-3.125 11.964843 3.347656-.929687 4.949219-6.269531 5.429687-11.378906.480469-5.28125 3.328126-7.578125 5.054688-11.644531zm0 0" fill="#fff" stroke="#bd6b00" stroke-width=".833333"/><path d="m605.964844 390.820312c-2.816406 5.191407-6.746094 7.167969-6.949219 11.027344-.34375 4.4375-.675781 4.65625-1.878906 9.015625 3.3125-.878906 4.148437-1.171875 5.042969-7.804687.546874-4.664063 4.28125-7.949219 3.785156-12.238282zm0 0" fill="#fff" stroke="#bd6b00" stroke-width=".833333"/><path d="m518.382812 438.867188c-1.578124 2.980468-3.394531 7.519531-6.6875 6.6875-.050781-2.285157 3.554688-3.863282 6.6875-6.6875zm0 0" fill="#fff"/><path d="m513.484375 439.886719c-6.398437 2.617187-11.914063 1.96875-12.597656 5.988281 5.992187.648438 8.1875-1.816406 12.597656-5.988281zm0 0" fill="#fff"/><path d="m540.25 418.734375c-4.304688 3.523437-7.097656 7.550781-8.398438 12.75-1.359374 4.851563-3.269531 8.71875-6.070312 13.070313 4.566406-3.105469 7.429688-7.347657 8.871094-12.441407 1.261718-5.011719 2.742187-8.765625 5.597656-13.378906zm0 0" fill="#fff"/><path d="m534.953125 418.714844c-4.617187 3.6875-8.96875 7.863281-10.269531 13.074218-1.359375 4.839844-2.179688 8.550782-5.289063 13.371094 4.871094-3.109375 6.808594-7.8125 8.242188-12.910156 1.261719-5.011719 4.152343-8.765625 7.316406-13.535156zm0 0" fill="#fff"/><path d="m519.71875 430.785156c.121094-.910156-.496094-1.707031-1.246094-1.945312-1.457031-.542969-2.914062-.992188-4.355468-1.398438-1.640626-.390625-2.5625.78125-2.570313 1.554688-.007813 1.285156-.0625 2.367187 0 3.34375.089844 1.207031.324219 1.296875 1.089844 1.480468 1.230469.203126 2.808593.417969 4.046875 1.238282.976562.601562 1.921875.132812 2.40625-.925782.320312-.808593.488281-2.394531.628906-3.347656zm0 0" fill="#fff"/><path d="m502.003906 430.785156c-.117187-.910156.363282-1.78125 1.03125-2.023437 1.300782-.546875 2.597656-.679688 3.960938-.621094 1.523437-.023437 1.90625.316406 1.914062 1.089844.007813 1.28125.058594 2.523437 0 3.492187-.082031 1.210938-.054687 1.300782-.738281 1.480469-1.097656.214844-2.980469.269531-4.078125 1.089844-.878906.601562-1.882812.125-1.921875-1.007813.019531-.855468-.054687-2.546875-.167969-3.5zm0 0" fill="#fff"/><path d="m547.566406 477.75c.082032 1.972656.308594 3.546875 1.480469 5.136719-6.792969-2.726563-16.386719-1.269531-22.949219 1.789062-2.921875 1.390625-6.460937-1.601562-3.035156-4.433593 4.882812-3.957032 16.179688-1.71875 24.503906-2.492188zm-95.839844-.105469c.097657 1.855469-.121093 3.558594-.808593 5.175781 7.390625-3.050781 15.316406-.511718 22.78125 2.488282 5.125 2.125 5.539062-1.542969 4.636719-2.8125-1.5625-2.253906-4.574219-4.730469-8.382813-4.785156-2.539063-.035157-12.304687-.125-18.226563-.066407zm6.230469-36.066406c-2.058593-.886719-4.449219-.035156-6.597656 2.21875-7.210937 7.074219-15.675781 13.960937-22.5 19.3125-2.550781 2.214844-5.152344 6.1875 5.710937 10.15625.398438.148437 8.324219 3.085937 13.347657 3.273437 2.046875-.058593 2.039062 3.003907 1.660156 3.824219-.863281 1.625-.238281 2.253907-1.988281 3.816407-1.820313 1.539062.199218 3.53125 1.628906 2.179687 6.117188-5.3125 16.046875-1.910156 25.609375 1.195313 2.261719.628906 6.398437.449218 6.355469-2.667969.042968-3.394531 2.507812-5.792969 4.015625-5.882813 3.898437.675782 23.191406.894532 29.132812.171875 3.464844-.457031 3.679688 4.742188 5.53125 6.796875 1.277344 1.355469 6.195313 1.714844 9.570313.226563 6.667968-3.101563 16.832031-3.101563 20.972656-.140625 1.703125 1.296875 3.042969.246094 2.074219-1.074219-1.242188-1.796875-1.21875-2.628906-1.835938-4.050781-1.558593-3.167969-.320312-3.941406 1.316407-4.167969 18.425781-2.375 24.300781-8.660156 18.667968-13.785156-7.273437-6.378907-15.371094-12.792969-22.34375-20.328125-1.890625-2.003906-3.144531-2.800782-7.082031-1.164063-12.035156 5.476563-27.3125 9.472657-42.261719 9.765625-13.90625.121094-33.039062-6.316406-40.984375-9.675781zm0 0" fill="#fff"/><path d="m544.367188 442.570312c-.96875.089844-1.992188.390626-2.757813.675782-14.867187 5.226562-28.53125 8.878906-42.765625 8.855468-13.890625-.027343-28.441406-3.851562-41.511719-9.222656-.742187-.316406-1.59375-.269531-2.441406-.046875-.851563.210938-1.691406.609375-2.246094 1.136719-6.0625 6.046875-12.628906 11.914062-19.6875 17.246094-1.0625.8125-.882812 2.882812.839844 3.585937h.050781c13.84375 4.972657 27.351563 14.226563 66.039063 13.863281 39.054687-.367187 52.914062-9.402343 65.316406-13.542968.878906-.332032 1.773437-.832032 2.1875-1.621094.203125-.390625.261719-.871094.105469-1.351562-.164063-.476563-.472656-.917969-1.042969-1.40625h-.054687c-7.039063-5.753907-14.574219-10.34375-19.53125-17.34375-.554688-.796876-1.53125-.925782-2.5-.828126zm.050781.722657c.847656-.082031 1.488281.050781 1.820312.523437 5.070313 7.167969 12.707031 11.789063 19.6875 17.503906.503907.421876.742188.796876.839844 1.089844.097656.292969.070313.496094-.058594.734375-.246093.46875-.976562.941407-1.765625 1.242188-12.554687 4.191406-26.113281 13.175781-65.054687 13.542969-38.527344.367187-51.824219-8.839844-65.78125-13.851563-1.257813-.519531-1.148438-1.9375-.675781-2.292969 7.066406-5.339844 13.714843-11.230468 19.792968-17.296875.414063-.398437 1.082032-.746093 1.824219-.933593.730469-.1875 1.519531-.21875 2.027344 0 13.132812 5.394531 27.691406 9.300781 41.722656 9.328124 14.363281.023438 28.164063-3.671874 43.074219-8.914062.738281-.265625 1.699218-.585938 2.546875-.675781zm0 0" fill="#bd6b00"/><path d="m449.519531 190.933594c-.113281-2.292969 3.441407-2.472656 3.035157.683594-.519532 3.9375 7.429687 13.90625 8.089843 20.054687.445313 4.117187-2.417969 7.722656-5.257812 9.96875-3.472657 2.691406-8.820313 2.324219-11.320313.78125-1.511718-1.222656-2.886718-5.386719-1.757812-7.039063.398437-.554687 2.214844 6.117188 6.203125 6.09375 5.429687-.03125 9.820312-4.117187 9.984375-7.753906.285156-6.332031-8.878906-16.351562-8.976563-22.789062zm0 0" fill="#fff"/><path d="m465.398438 206.582031c.902343-.640625 2.335937 2.15625 1.324218 2.859375-.84375.5625-2.488281-2.078125-1.324218-2.859375zm0 0" fill="#fff"/><path d="m467.816406 200.902344c-.449218.21875-1.355468-.097656-1.085937-.480469 1.273437-1.8125 3.980469-4.546875 5.941406-5.5.601563-.292969 1.660156.773437 1.292969 1.292969-1.175782 1.675781-4.035156 3.65625-6.148438 4.6875zm0 0" fill="#fff"/><path d="m488.800781 184.253906c.503907-1.058594 3.523438-2.246094 4.300781-2.957031.714844-.730469 1.046876.621094.746094 1.253906-.503906 1.050781-3.117187 2.824219-4.257812 2.875-.617188.023438-1.097656-.539062-.789063-1.171875zm0 0" fill="#fff"/><path d="m495.980469 184.585938c.660156-1.847657 2.773437-4.644532 4.222656-5.566407.75-.472656 2.09375-.105469 1.839844.601563-.5625 1.574218-3.140625 4.304687-4.882813 5.589844-.527344.472656-1.328125-.199219-1.179687-.625zm0 0" fill="#fff"/><path d="m489.835938 189.199219c-.441407.222656-.203126 1.148437.21875 1.296875.894531.300781 2.53125.355468 3.273437-.050782 1.070313-.667968.585937-4.742187-.855469-2.5625-.96875 1.34375-1.667968.910157-2.636718 1.316407zm0 0" fill="#fff"/><path d="m477.683594 198.566406c-2.195313-1.707031.585937-4.109375 2.882812-2.429687 4.476563 3.367187-6.664062 16.289062-12.730468 22.335937-1.113282 1.179688-2.082032-1.796875-.664063-3.082031 4.351563-3.6875 8.421875-8.089844 11.246094-12.640625.542969-.878906 1.066406-2.765625-.734375-4.183594zm0 0" fill="#fff"/><path d="m503.132812 187.453125c.277344-1.636719-2.644531.03125-2.703124-2.144531-.023438-1.144532 3.191406-1.949219 4.542968-.625 2.269532 2.304687.570313 6.195312-3.214844 6.4375-3.148437.140625-8.40625 4.476562-7.609374 5.386718.910156 1.125 9.089843 1.875 13.84375 1.125 2.9375-.40625 2.316406 2.222657-.691407 2.578126-2.914062.335937-5.289062.023437-8.007812.878906-3.207031.914062-4.609375 5.214844-6.378907 6.820312-.402343.277344-1.464843-1.40625-1.058593-2.042968 1.277343-2.007813 3.320312-5.078126 5.574219-5.957032 1.414062-.570312-3.914063-.757812-5.617188-1.238281-1.351562-.40625-.960938-2.121094-.441406-3.082031.6875-1.488282 5.714844-6.527344 7.742187-6.445313 1.902344.082031 3.832031-.472656 4.019531-1.691406zm0 0" fill="#fff"/><path d="m511.597656 187.882812c.949219-.832031 1.429688-2.230468 2.421875-3.078124.546875-.542969 1.410157.109374 1.273438 1.417968-.125 1.042969-1.515625 1.925782-2.453125 2.710938-.753906.570312-1.640625-.660156-1.242188-1.050782zm0 0" fill="#fff"/><path d="m522.378906 184.050781c1.410156-.15625 1.757813 2.5625.222656 3-.929687.3125-1.75-2.839843-.222656-3zm0 0" fill="#fff"/><path d="m518.832031 192.449219c-.015625 2.34375 1.128907 2.125 3.335938 2.039062 2.140625-.070312 4.019531.058594 4.011719-2.046875-.007813-2.199218-1.214844-4.113281-1.5625-2.621094-.308594 1.398438-.5625 3.695313-1.375 2.691407-.765626-.851563-.464844-1.039063-1.78125.367187-.734376.773438-.816407-.382812-1.253907-1.097656-.308593-.429688-1.375.339844-1.375.667969zm0 0" fill="#fff"/><path d="m503.464844 204.386719c-.527344 3.09375-.039063 7.429687 1.539062 7.476562 1.960938.066407 6.015625-6.769531 7.9375-10.316406 1.144532-1.976563 3.125-2.320313 2.300782-.253906-1.246094 3.183593-1.136719 9.996093-.039063 11.996093.59375 1.074219 4.9375-.992187 5.648437-2.523437 1.277344-2.789063.234376-7.941406.683594-11.082031.21875-2.0625 2.105469-2.492188 2-.578125-.1875 3.417969-.503906 9.691406-.269531 12.539062.148437 1.636719 4.824219 4.054688 5.574219-.902343.398437-3.125 2.011718-6.199219-.070313-9.660157-1.292969-2.15625 1.894531-1.886719 3.601563 1.066407 1.207031 2.011718-1.007813 5.332031-.925782 7.902343.195313 3.957031-2.878906 6.203125-5.109374 6.25-1.996094.039063-3.296876-2.410156-4.933594-2.441406-1.816406-.121094-3.675782 2.816406-5.175782 2.71875-5.808593-.398437-2.734374-8.894531-4.5-8.992187-1.96875-.125-4.296874 8.316406-6.722656 8.015624-2.382812-.285156-4.867187-6.875-3.863281-9.660156.894531-2.597656 2.59375-3.207031 2.324219-1.554687zm0 0" fill="#fff"/><path d="m531.601562 191c-2.832031-1.726562.175782-6.226562 1.5625-4.648438 2.675782 3.207032 5.378907 10.816407 7.257813 11.441407 1.195313.402343 1.136719-5.621094 1.984375-8.355469.546875-2.027344 2.988281-1.367188 2.523438 1.230469-.164063.859375-3.199219 10.699219-2.960938 11.082031 2.097656 4.207031 4.179688 8.472656 5.492188 12.980469.546874 1.945312-1.789063.632812-2.066407.234375-1.492187-2.230469-4.101562-10.757813-4.101562-10.367188-1.207031 6-1.484375 7.773438-2.757813 12.867188-.390625 1.625-2.792968 1.332031-2.246094-1.539063.519532-2.367187 3.953126-13.988281 3.757813-14.328125-2.699219-4.769531-5.167969-8.539062-8.445313-10.597656zm0 0" fill="#fff"/><path d="m536.71875 218.667969c-.789062-.089844-2.019531 1.757812 1.921875 2.480469 5.253906.953124 11.019531-.820313 12.777344-5.980469 2.023437-6.132813 3.359375-11.953125 4.410156-14.152344 1.316406-2.554687 3.007813-2.351563 1.765625-6.085937-.878906-2.6875-2.523438-1.871094-2.863281-.441407-.921875 3.925781-4.414063 16.59375-5.503907 18.925781-2.050781 4.253907-6.191406 5.9375-12.507812 5.253907zm0 0" fill="#fff"/><path d="m547.25 198.453125c-.5625-1.210937-1.882812-.277344-1.644531 1.042969.136719 1.195312 1.117187 1.847656 2.085937 1.8125 1.152344-.039063 3.59375.042968 3.59375-1.878906.007813-1.34375-1.050781-2.464844-1.839844-.976563-.746093 1.34375-1.707031 1.195313-2.195312 0zm0 0" fill="#fff"/><path d="m548.566406 193.382812c-.40625.277344-.039062 1.777344.441406 1.757813 1.71875-.054687 4.152344-.601563 5.460938-1.511719.382812-.261718.21875-1.164062-.328125-1.148437-1.652344.058593-4.285156.007812-5.574219.902343zm0 0" fill="#fff"/><path d="m563.167969 197.152344c1.246093-1.945313 4.679687-2.140625 3.441406.636718-.871094 1.910157-9.425781 18.421876-10.585937 20.519532-1.269532 2.363281-2.3125 1.1875-1.410157-.648438 1.214844-2.359375 8.164063-19.9375 8.554688-20.507812zm0 0" fill="#fff"/><path d="m550.300781 221.738281c-.367187-1.320312-2.402343-3.265625-2.171875.25.40625 6.378907 9.171875 4.371094 11.824219 2.097657 2.410156-2.136719.316406 7.207031 3.523437 8.207031 1.757813.5625 5.078126-1.839844 6.714844-3.964844 4.523438-5.875 7.40625-14.300781 11.757813-20.09375 1.652343-2.269531-.894531-3.886719-1.929688-2.082031-3.78125 6.347656-8.484375 19.304687-13.621093 22.671875-4.191407 2.679687-2.945313-3.449219-3.09375-5.289063-.1875-1.351562-1.828126-3.34375-4.027344-1.515625-1.53125 1.199219-3.914063 2.175781-6.078125 1.980469-1.253907-.074219-2.3125-.050781-2.898438-2.261719zm0 0" fill="#fff"/><path d="m565.949219 209.878906c.050781-.359375-1.851563-.519531-1.757813 1.328125.066406 1.359375 1.695313 1.734375 1.980469 1.535157 2.5625-1.871094-.546875-.933594-.222656-2.863282zm0 0" fill="#fff"/><path d="m562.214844 217.367188c-.503906.121093-.96875 1.734374.21875 1.824218 1.089844.078125 5.355468-.386718 6.535156-.3125.765625-.03125 1.058594-1.488281-.578125-1.40625-1.984375.097656-4.589844-.398437-6.175781-.105468zm0 0" fill="#fff"/><path d="m458.953125 189.601562c.675781.03125 2.53125 2.433594 2.40625 3.1875-.082031.351563-1.984375-.054687-2.5625-.546874-.429687-.363282-.257813-2.660157.15625-2.640626zm-8.953125 17.421876c-1.691406.917968.269531 2.75 1.539062 1.976562 4.765626-3.082031 11.929688-6.332031 13.417969-12.449219.480469-2.066406 2.410157-5.242187 4.242188-5.949219 1.761719-.683593 4.328125 3.191407 5.996093.136719.984376-1.742187 4.425782 1.148438 5.257813-.722656 1.007813-2.253906.527344-3.492187.570313-5.65625-.074219-1.417969-1.15625-1.839844-1.9375.457031-.40625 1.03125.074218 2.082032-.261719 2.628906-.25.40625-1.039063.800782-1.503907.460938-.417968-.316406-.121093-1.203125-1.140624-1.59375-.390626-.195312-1.015626-.359375-1.292969.144531-1.195313 2.140625-1.863281 4.132813-3.539063 1.867188-1.5-1.964844-2.265625-5.347657-3.355468-.71875-.398438 1.636719-2.886719 4.011719-4.351563 4.011719-1.832031 0-1.367187-4.816407-5.398437-4.082032-2.066407.4375-1.917969 4.390625-1.617188 5.855469.511719 2.035156 6.558594.578125 6.257812 1.90625-1.03125 4.613281-7.449218 9.007813-12.882812 11.726563zm0 0" fill="#fff"/><path d="m412.167969 229.039062c-.261719.769532.773437 2.859376 1.839843 3.015626 1.039063.082031 1.574219-2.261719 1.234376-3.015626-.246094-.5625-2.886719-.554687-3.074219 0zm0 0" fill="#fff"/><path d="m417.714844 237.167969c-.664063-.726563-2.644532 1.21875-1.046875 2.585937.894531.726563 4.191406 1.785156 5.085937.242188 1.21875-1.96875-1.199218-9.144532-.132812-10.089844.839844-.738281 4.714844 4.792969 6.632812 5.195312 4.492188.617188 3.410156-7.703124 8.261719-7.140624 3.292969.441406 3.660156-3.6875 3.195313-6.257813-.363282-2.472656-4.367188-6.035156-6.207032-7.632813-2.417968-2.019531-3.5 1.480469-1.976562 2.636719 1.953125 1.5625 5.394531 4.726563 5.9375 6.820313.261718.984375-2.390625 2.953125-3.367188 2.417968-2.246094-1.230468-4.34375-6.496093-6.3125-7.699218-.667968-.410156-2.320312.519531-1.523437 2.164062.886719 1.757813 4.84375 4.484375 5.070312 6.363282.210938 1.71875-1.757812 5.421874-3.054687 5.421874-1.421875 0-5.042969-4.476562-6.175782-6.585937-.558593-1.007813-2.523437-.910156-2.722656.480469-.328125 2.089844.296875 6.519531.796875 9.261718.398438 2.605469-1.46875 2.734376-2.460937 1.816407zm0 0" fill="#fff"/><path d="m410.929688 222.882812c-.5625.636719 1.328124 1.890626 1.699218 1.5625.726563-.625 3.550782-3.839843 3.003906-4.960937-.488281-1.011719-4.363281-3.199219-4.996093-2.117187-1.171875 1.878906 3.652343 2.726562 2.90625 3.277343-.375.214844-1.703125 1.132813-2.613281 2.238281zm0 0" fill="#fff"/><path d="m417.886719 208.78125s1.214843 4.148438 2.199219 2.425781c.796874-1.203125-2.199219-2.425781-2.199219-2.425781zm0 0" fill="#fff"/><path d="m419.863281 215.382812c-.4375.242188-1.691406 1.234376-.878906 1.761719 1.285156.757813 4.792969 1.363281 4.039063-1.128906-.464844-1.464844 5.28125.039063 3.878906-3.929687-.363282-1.101563-2.097656-2.6875-2.945313-2.914063-.542969-.136719-2.382812.871094-1.226562 1.425781.835937.429688 3.367187 1.917969 2.433593 2.894532-1.078124 1.027343-1.816406-.453126-3.152343-.21875-.664063.128906-.226563 2.035156-.609375 2.546874-.210938.292969-1.171875-.636718-1.539063-.4375zm0 0" fill="#fff"/><path d="m429.003906 199.617188c-.734375.359374-2.027344 2.328124-2.074218 3.230468-.027344.488282.503906 1.15625.917968.953125.765625-.382812 1.9375-2.246093 1.976563-3.101562.035156-.535157-.371094-1.308594-.820313-1.082031zm0 0" fill="#fff"/><path d="m433.730469 199.097656c-1.398438-1.710937 1.492187-4.25 2.785156-.824218.789063 2.148437 9.148437 13.152343 10.855469 16.886718 1.210937 2.523438-.039063 3.574219-1.539063 1.757813-4.230469-5.402344-7.703125-12.132813-12.101562-17.820313zm0 0" fill="#fff"/><path d="m442.316406 199.332031c1.488282-1.609375 4.535156-4.914062 3.710938-6.753906-.625-1.585937-2.472656-1.425781-2.789063-1.058594-1.808593 2.15625 1.285157 1.621094.835938 2.351563-.917969 1.734375-1.839844 2.6875-2.308594 4.347656-.117187.390625.285156 1.40625.550781 1.113281zm0 0" fill="#fff"/><path d="m571.949219 204.734375c-1.066407-.871094 1.058593-5.074219 2.488281-3.425781 3.949219 4.566406 5.789062 19.394531 6.925781 30.496094 0 0-1.773437 1.472656-1.789062 1.242187 0-5.914063-2.375-23.996094-7.625-28.3125zm0 0" fill="#fff"/><path d="m483.449219 190.300781c-1.273438-2.929687 1.917969-4.023437 2.390625-1.929687 2.222656 9.636718 7.527344 16.933594 11.574218 23.484375 1.21875 2.054687.242188 3.273437-2.71875 1.382812-2.050781-1.398437-4.125-6.523437-5.136718-6.71875-1.824219-.34375-6.183594 8.316407-15.113282 5.84375-2.308593-.644531-2.15625-7.511719-2.203124-10.546875-.097657-1.417968 1.472656-1.800781 1.527343.144532.082031 2.792968-.007812 8.601562 3.574219 8.796874 2.914062.164063 9.375-3.953124 10.742188-7.175781 1.210937-3.320312-3.253907-9.90625-4.636719-13.28125zm0 0" fill="#fff"/><path d="m574.351562 230.632812c.714844-1.988281 10.1875-17.890624 11.433594-21.386718.632813-1.695313 3.359375 2.886718.699219 5.363281-2.328125 2.097656-9.214844 13.386719-10.5 17.347656-.59375 1.78125-2.382813.9375-1.632813-1.324219zm0 0" fill="#fff"/><path d="m590.472656 215.472656c1.75-6.5625 5.980469 1.007813 2.253906 4.742188-5.773437 5.640625-7.503906 16.421875-16.652343 18.042968-2.464844.527344-6.804688-1.109374-8.089844-2.027343-.496094-.347657.324219-2.691407 1.871094-1.554688 2.222656 1.742188 6.828125 2.132813 9.253906.15625 5.199219-5.097656 9.433594-11.851562 11.363281-19.371093zm0 0" fill="#fff"/><path d="m495.449219 236.703125c-.414063.472656-1.675781.390625-1.789063 1.058594-.488281 2.464843 0 3.71875-.539062 6.09375-.519532 2.273437-2.097656 2.359375-1.992188.503906.144532-2.398437 2.125-5.792969.726563-6.03125-.929688-.21875-1.652344-1.464844-.683594-2.082031 1.8125-1.261719 2.789063-1.066406 4.042969-.683594.4375.132812.546875.773438.234375 1.140625zm0 0" fill="#fff"/><path d="m494.164062 233.480469c-2.40625 2.117187-4.644531 2.976562-6.867187 5.648437-.910156 1.089844-.886719 2.609375-1.425781 4.003906-.542969 1.480469-2.292969 1.773438-2.832032 1.464844-.910156-.59375-.773437-3.335937-1.789062-1.863281-.855469 1.355469-1.410156 3.226563-2.675781 3.214844-1.148438-.027344-3.3125-2.378907-2.214844-2.492188 3.75-.382812 3.703125-3.386719 5.109375-3.578125 1.578125-.214844 1.683594 2.480469 2.652344 1.933594.765625-.390625 1.132812-3.523438 1.960937-4.367188 2.539063-2.605468 4.558594-3.984374 7.15625-5.886718 1.308594-1.046875 2.246094.839844.925781 1.921875zm0 0" fill="#fff"/><path d="m502.972656 241.570312c-1.9375.390626-1.605468 2.871094-1.042968 3.179688.933593.433594 2.382812.617188 2.929687-2.238281.25-1.171875.476563 5.828125 3.050781 3.132812 1.480469-1.632812 5.144532.296875 6.679688-1.757812 1.101562-1.375 1.433594-2.328125.578125-4.351563-.25-.609375-1.75-.308594-1.667969 1.179688.074219 1.261718-.894531 2.816406-2.148438 2.546875-.609374-.113281.34375-3.078125-.269531-3.882813-.339843-.4375-.851562-.390625-1.1875.066406-.472656.640626.472657 3.480469-1.082031 3.855469-1.953125.457031-.925781-1.902343-1.757812-2.324219-2.660157-1.351562-2.921876.339844-4.082032.59375zm0 0" fill="#fff"/><path d="m518.050781 236.800781c1.414063-.398437.976563-.398437 3.195313-2.222656.871094-.660156 1.042968 1.261719.953125 2.027344-.160157 1.292969-1.699219.375-2.171875 1.511719-.699219 1.484374-.414063 4.917968-.648438 6.316406-.15625.714844-1.3125.660156-1.417968.089844-.332032-1.707032.226562-3.378907.179687-5.507813-.019531-.726563-1.058594-1.867187-.089844-2.214844zm0 0" fill="#fff"/><path d="m509.714844 232.429688c-.339844 1.546874-.316406 2.816406-.316406 3.882812.082031.855469 1.644531.300781 1.636718.195312-.074218-1.359374.234375-3.230468-.171875-3.761718-.210937-.273438-1.066406-.601563-1.148437-.316406zm0 0" fill="#fff"/><path d="m499.234375 216.984375-2.433594 9.324219-3.375-6.25v6.40625l-7.292969-8.648438 2.53125 9.273438-6.550781-5.574219 3.492188 6.300781-11.628907-7.496094 7.394532 8.640626-9.300782-4.578126 6.664063 5.621094-15.21875-5.730468 14.691406 7.246093c5.371094-2.65625 12.726563-4.273437 20.921875-4.273437 8.15625 0 15.550782 1.636718 20.921875 4.273437.019531.007813.082031-.015625.109375 0l14.582032-7.246093-15.007813 5.78125 6.550781-5.671876-9.195312 4.53125 7.292968-8.59375-11.621093 7.496094 3.480469-6.300781-6.550782 5.574219 2.539063-9.273438-7.289063 8.699219.105469-6.457031-3.386719 6.25zm0 0" fill="#fff"/><path d="m486.367188 419.386719c0 .980469-.152344 2.414062-.445313 4.277343h-.691406c0-1.269531-.058594-2.246093-.179688-2.929687-.113281-.683594-.335937-1.496094-.667969-2.441406-.277343-.796875-.578124-1.472657-.902343-2.03125-.328125-.5625-.855469-1.3125-1.570313-2.246094l1.382813-3.410156c.632812.8125 1.089843 1.4375 1.359375 1.878906.300781.503906.585937 1.136719.855468 1.902344.277344.765625.484376 1.570312.632813 2.410156.15625.839844.226563 1.699219.226563 2.589844zm0 0" fill="#fff"/><path d="m497.199219 412.785156c0 1.042969-.195313 1.824219-.59375 2.335938-.390625.519531-1.066407.894531-2.019531 1.113281.277343.96875.464843 1.726563.554687 2.261719.089844.546875.136719 1.148437.136719 1.824218 0 .433594-.019532.886719-.070313 1.375-.046875.496094-.128906 1.15625-.261719 1.984376h-.617187c0-.738282-.039063-1.382813-.121094-1.910157-.082031-.542969-.195312-1.058593-.351562-1.53125-.039063-.121093-.234375-.640625-.59375-1.570312-.339844-.933594-.691407-1.714844-1.039063-2.328125-.34375-.625-.90625-1.480469-1.6875-2.578125l1.066406-3.207031c.570313.804687 1.066407 1.367187 1.488282 1.683593.425781.304688.921875.457031 1.496094.457031 1.273437 0 1.898437-.683593 1.898437-2.050781h.652344c0 .445313.007812.8125.03125 1.117188.023437.28125.03125.625.03125 1.023437zm0 0" fill="#fff"/><path d="m507.152344 420.320312-.804688 3.335938c-.503906-.136719-.921875-.535156-1.238281-1.1875-.269531-.546875-.464844-1.230469-.574219-2.066406-.117187-.828125-.171875-1.695313-.171875-2.578125-.675781.179687-1.214843.265625-1.605469.265625-.78125 0-1.421874-.210938-1.933593-.617188-.507813-.414062-.757813-.933594-.757813-1.570312 0-1.359375.339844-2.578125 1.039063-3.664063.710937-1.097656 1.507812-1.640625 2.386719-1.640625.683593 0 1.160156.195313 1.429687.574219.292969.433594.480469.914063.546875 1.457031.066406.539063.097656 1.585938.097656 3.140625 0 1.382813.113282 2.371094.332032 2.9375.179687.449219.59375.988281 1.253906 1.613281zm-3.011719-5.558593c-.136719-.84375-.574219-1.269531-1.339844-1.269531-.324219 0-.628906.089843-.898437.269531-.273438.179687-.414063.335937-.414063.472656 0 .445313.539063.664063 1.601563.664063.34375 0 .695312-.046876 1.050781-.136719zm0 0" fill="#fff"/><path d="m517.683594 419.484375-.398438 4.058594c-.796875-.5625-1.53125-1.570313-2.214844-3.027344-.699218-1.523437-1.414062-3.679687-2.140624-6.46875-.609376 2.683594-1.121094 4.660156-1.519532 5.914063-.398437 1.246093-.78125 2.132812-1.171875 2.652343-.261719.351563-.675781.703125-1.246093 1.058594l.089843-3.878906c.734375-1 1.246094-1.769531 1.546875-2.296875.4375-.78125.796875-1.683594 1.082032-2.726563.285156-1.046875.546874-2.449219.78125-4.207031h.734374c.453126 1.765625.890626 3.167969 1.316407 4.207031.390625.976563.855469 1.847657 1.382812 2.597657.367188.527343.953125 1.230468 1.757813 2.117187zm0 0" fill="#fff"/><path d="m548.300781 457.746094c.542969.636718.917969 1.261718 1.136719 1.871094.222656.605468.375 1.464843.464844 2.589843l-1.203125.097657c-.523438-1.007813-1.019531-1.796876-1.507813-2.367188-.371094-.433594-.964844-1.050781-1.796875-1.855469-.828125-.808593-1.679687-1.589843-2.539062-2.34375-.871094-.773437-1.976563-1.660156-3.328125-2.660156-.472656-.359375-.773438-.613281-.90625-.757813-.1875-.21875-.332032-.660156-.445313-1.3125-.113281-.648437-.1875-1.472656-.210937-2.449218l4.214844 3.433594c1.59375 1.3125 2.914062 2.46875 3.957031 3.476562.804687.773438 1.527343 1.527344 2.164062 2.277344zm-14.96875-9.015625-.25 3.101562-4.972656-.132812.375-3.164063zm13.070313 13.890625-11.839844 3.605468-2.179688-3.011718 10.234376-3.113282c-.464844-.644531-.820313-1.09375-1.074219-1.34375-.398438-.398437-.84375-.710937-1.359375-.929687-.03125.570313-.265625 1.066406-.707032 1.5-.4375.429687-1 .753906-1.691406.964844-.914062.277343-1.824218.3125-2.734375.117187-.902343-.207031-1.570312-.605468-2.003906-1.1875-.625-.871094-.96875-2.027344-1.015625-3.476562-.046875-1.585938.382812-2.523438 1.308594-2.800782 1.1875-.367187 2.808594-.03125 4.84375.996094 2.035156 1.023438 3.597656 2.292969 4.6875 3.796875zm-9.089844-6.324219c-.558594-.25-1.007812-.40625-1.339844-.46875-.328125-.066406-.628906-.066406-.90625.023437-.339844.097657-.578125.292969-.707031.578126-.121094.285156-.097656.554687.097656.820312.121094.171875.332031.285156.617188.335938.300781.046874.609375.023437.945312-.082032.257813-.082031.488281-.203125.675781-.382812.203126-.1875.40625-.457032.617188-.824219zm-12.6875-2.425781-.722656 3.078125-4.933594-.457031.75-3.097657zm11.671875 11.996094-2.628906.605468c-.9375.21875-1.824219.285156-2.671875.203125-.84375-.089843-1.632813-.351562-2.375-.796875-.429688.796875-1.195313 1.453125-2.285156 1.992188-.734376.359375-1.570313.644531-2.53125.863281l-1.863282.429687-1.710937-3.132812 1.863281-.429688c.984375-.230468 1.652344-.417968 2.011719-.5625.367187-.160156.820312-.4375 1.375-.824218-.601563-.371094-1.089844-.632813-1.457031-.769532-.457032-.164062-.855469-.207031-1.195313-.128906-.128906.03125-.238281.085938-.316406.175782-.082031.082031-.148438.21875-.207031.40625l-.8125.117187c-.765626-1.394531-.9375-2.46875-.519532-3.230469.414063-.765625 1.421875-1.335937 3.027344-1.703125 1.644531-.382812 3.050781-.464843 4.222656-.261719 1.171875.203126 1.953125.667969 2.351563 1.390626.21875.402343.292969.800781.246093 1.222656-.058593.40625-.261718 1-.613281 1.773437.246094.109375.53125.171875.863281.1875.332032.023438.628907 0 .886719-.058593l2.628907-.601563zm-12.574219 2.929687-2.5625.402344c-1.433594.226562-2.605468.007812-3.523437-.660157-1.019531-.722656-1.90625-2.085937-2.648438-4.078124l-1.257812-3.386719c-.285157-.765625-.675781-1.339844-1.164063-1.714844-.238281-.179687-.710937-.425781-1.433594-.71875l.871094-3.285156c.953125.519531 1.675782 1.074219 2.1875 1.640625.597656.679687 1.109375 1.574218 1.523438 2.6875l.871094 2.34375c.617187 1.652344 1.21875 2.773437 1.796874 3.363281.464844.476563.984376.664063 1.570313.574219l2.566406-.40625zm-10.960937-11.773437-1.652344 2.914062-4.6875-1.082031 1.667969-2.9375zm2.726562 13.199218-11.6875 1.058594-.710937-3.296875 9.824218-.886719c-.261718-.539062-.609374-.976562-1.050781-1.328125-.226562-.191406-.746093-.519531-1.535156-.96875l.871094-3.015625c1.082031.601563 1.871093 1.261719 2.367187 1.976563.511719.722656.925782 1.820312 1.242188 3.296875zm-9.382812 1.5c-1.410157-.050781-2.566407-.15625-3.484375-.320312-.921875-.15625-1.824219-.398438-2.703125-.707032-.753907.308594-1.425781.503907-2.007813.59375-.570312.082032-1.433594.105469-2.574218.074219l-3.066407-.105469c-.839843-.027343-1.5-.1875-1.960937-.488281-.472656-.304687-.871094-.789062-1.203125-1.464843-.75.65625-1.558594 1.121093-2.433594 1.390624-.75.226563-1.628906.324219-2.648437.292969l-2.691407-.089843.257813-3.328126 2.695312.089844c1.320313.046875 2.433594-.15625 3.351563-.609375 1.191406-.589843 1.839843-1.523437 1.9375-2.800781l1.238281.164062c-.050781.257813-.097656.550782-.144531.886719-.058594.332031-.097657.707031-.132813 1.113281-.03125.414063.164063.765626.578125 1.058594.414063.292969.910157.449219 1.472657.460938l2.320312.082031c1.527344.050781 2.628906-.054687 3.304688-.308594.820312-.308593 1.261718-.917969 1.332031-1.828125.015625-.199218.125-.367187.328125-.515625.121094-.089843.363281-.210937.722656-.382812l.75-.339844c.015625.15625.015625.367187.007812.632813-.007812.261718-.015624.433593-.023437.515624-.035156.445313-.179687 1.039063-.441406 1.773438.449219.164062.960937.308594 1.53125.429688.570312.128906 1.171875.230468 1.804687.308593.023438-.277343-.105468-.640625-.382812-1.089843-.285156-.453126-.414063-.757813-.398438-.910157.015625-.210937.074219-.375.164063-.480469.03125-.042968.179687-.160156.445312-.367187l1.710938-1.347656c.300781.519531.503906 1 .609375 1.421875.113281.421875.148437.945312.097656 1.570312zm-17.742188-13.65625-2.953125 2.089844-2.222656-1.375-2.191406 1.636719-2.925782-1.769531 2.789063-1.992188 2.367187 1.328125 2.28125-1.667969zm-4.636719 12.726563-11.445312-1.871094 1.253906-3.230469 9.617188 1.578125c.074218-.5625.011718-1.058593-.203125-1.492187-.101563-.226563-.390625-.65625-.863281-1.265625l2.558593-2.589844c.65625.820313 1 1.628906 1.050781 2.417969.046876.789062-.207031 1.914062-.765624 3.359375zm-9.640624-1.496094-2.472657-.59375c-1.375-.328125-2.164062-.9375-2.351562-1.816406-.226563-.976563.214843-2.425781 1.3125-4.34375l1.871093-3.265625c.421876-.738282.59375-1.359375.511719-1.847656-.039062-.234376-.234375-.609376-.570312-1.113282l3.546875-2.410156c.335937.773438.464844 1.496094.394531 2.15625-.082031.773438-.425781 1.695312-1.042969 2.773438l-1.292968 2.265624c-.914063 1.59375-1.378907 2.742188-1.402344 3.441407-.023438.5625.246094.902343.804687 1.039062l2.476563.597657zm-5.855469-12.378906-4.015625 1.691406-2.757813-2.683594 4.054688-1.710937zm-1.710938 10.375c-.828125.984375-1.652343 1.726562-2.457031 2.214843-.796875.488282-1.691406.796876-2.683594.917969-.988281.121094-2.222656.066407-3.730468-.167969-1.496094-.230468-2.945313-.59375-4.328126-1.085937-2.675781-.960937-4.476562-2.007813-5.386718-3.164063-.914063-1.148437-.878906-2.296874.113281-3.464843.839844-.996094 1.839844-1.816407 2.996094-2.476563 1.277343-.726562 3.261719-1.554687 5.972656-2.472656l.609375.804688c-2.113281.8125-3.574219 1.433593-4.378906 1.855468-.789063.429688-1.421875.925782-1.917969 1.507813-.636719.753906-.539063 1.585937.289063 2.503906.847656.910156 2.28125 1.734375 4.292968 2.449219 1.984375.707031 3.863282 1.058594 5.628906 1.050781 1.777344-.015625 2.964844-.375 3.574219-1.089844.375-.449219.625-.929687.746094-1.449219.140625-.519531.222656-1.398437.253906-2.628906l3.90625-2.375c0 1.179688-.058593 1.96875-.171875 2.375-.195312.738282-.699218 1.585938-1.511718 2.546875zm0 0" fill="#bf0000"/></g></svg>