<svg viewBox="0 0 1000 667" xmlns="http://www.w3.org/2000/svg" xmlns:xlink="http://www.w3.org/1999/xlink"><clipPath id="a"><path d="m0 0h1000v666.71875h-1000zm0 0"/></clipPath><clipPath id="b"><path d="m0 0h500v666.71875h-500zm0 0"/></clipPath><g clip-path="url(#a)"><path d="m0 666.667969v-666.667969h1000v666.667969zm0 0" fill="#fff" fill-rule="evenodd"/></g><g clip-path="url(#b)"><path d="m0 0h500v666.667969h-500zm0 0" fill="#006233" fill-rule="evenodd"/></g><g fill="#d21034" fill-rule="evenodd"><path d="m333.332031 333.332031c0 91.964844 74.703125 166.667969 166.667969 166.667969s166.667969-74.703125 166.667969-166.667969c0-91.960937-74.703125-166.664062-166.667969-166.664062s-166.667969 74.703125-166.667969 166.664062zm73.589844 0c0 73.574219 59.761719 133.335938 133.332031 133.335938 73.570313 0 133.332032-59.761719 133.332032-133.335938 0-73.570312-59.761719-133.332031-133.332032-133.332031-73.570312 0-133.332031 59.761719-133.332031 133.332031zm0 0"/><path d="m650.753906 333.332031-79.257812-25.753906-15.453125 47.554687zm0 0"/><path d="m650.753906 333.332031-79.257812 25.753907-15.453125-47.550782zm0 0"/><path d="m593.167969 412.585938v-83.332032h-50zm0 0"/><path d="m593.167969 412.585938-48.980469-67.414063 40.453125-29.390625zm0 0"/><path d="m593.167969 254.082031-48.980469 67.414063 40.453125 29.386718zm0 0"/><path d="m593.167969 254.082031v83.332031h-50zm0 0"/><path d="m500 382.3125 79.253906-25.746094-15.449218-47.554687zm0 0"/><path d="m500 382.3125 48.980469-67.414062 40.453125 29.390624zm0 0"/><path d="m500 284.351562 48.980469 67.417969 40.453125-29.390625zm0 0"/><path d="m500 284.351562 79.253906 25.75-15.449218 47.554688zm0 0"/></g><path d="m676.109375 416.390625h-31.941406l15.554687-83.058594-15.554687-83.886719h31.941406zm0 0" fill="#fff" stroke="#fff" stroke-linecap="square" stroke-miterlimit="3.239307"/></svg>