<svg viewBox="0 0 1000 500" xmlns="http://www.w3.org/2000/svg"><path d="m0 0h1000v500h-1000z" fill="#006"/><path d="m0 250 1000-250v500zm0 0" fill="#bd1021" fill-rule="evenodd"/><path d="m107.140625 250 892.859375-223.207031v446.414062zm0 0" fill="#fff" fill-rule="evenodd"/><g stroke="#000"><path d="m832.042969 306.058594s-6.246094-5.105469 1.128906-13.332032c-3.96875-3.410156-.28125-9.933593-.28125-9.933593s-6.8125-2.554688.28125-13.058594c-5.105469-3.402344-2.835937-11.0625-2.835937-11.0625s-16.742188-6.246094-.847657-12.203125c-13.058593 5.675781-25.257812-7.660156-25.257812-7.660156l-19.011719.566406c-3.214844-15.796875-28.285156-2.078125-9.648438-47.390625-4.824218-.851563-10.21875-2.269531-15.609374 1.703125-5.390626 3.972656-20.714844 12.484375-29.792969 3.972656-9.085938-8.515625 5.960937-20.714844 6.242187-21 .285156-.28125 20.148438-10.496094 22.984375-17.308594-.285156-5.109374-6.523437-9.082031-.847656-20.148437 6.527344-10.5 46.535156-20.433594 64.699219-23.835937 8.796875-3.976563 12.769531-11.636719 12.769531-11.636719l1.988281 7.378906s40.292969-11.917969 42.28125-17.59375c1.984375-5.675781.847656 5.105469.847656 5.105469 15.894532-1.417969 36.039063-15.039063 38.878907-8.796875 13.339843-2.554688 38.875-13.902344 38.875-13.902344s8.796875-.285156 2.554687 9.363281c3.972656 6.242188-1.132812 11.632813-1.417968 11.632813-.289063 0 1.699218 6.246093-3.40625 9.648437 1.703124 5.390625-3.121094 9.648438-3.121094 9.648438s2.269531 6.527344-6.8125 9.933594c.851562 5.679687-5.105469 6.808593-5.105469 6.808593s.847656 5.964844-3.121094 8.519531c0 4.535157-4.539062 6.804688-4.539062 6.804688s2.835937 1.703125-1.140625 4.542969c-3.96875 2.835937-45.117188 28.09375-45.117188 27.8125 0-.285157 30.078125 5.386719 32.066406 6.523437 1.988282 1.136719 24.6875 16.175782 24.6875 16.175782l-22.988281 28.378906s-25.535156-2.835938-26.667969-1.421875c-1.140624 1.421875 5.386719 1.988281 6.804688 4.257812 1.421875 2.269531 3.691406 7.660157 8.234375 7.09375 4.539063-.570312-8.519531 8.226563-17.027344 9.082031 0 3.121094 10.78125 3.40625 13.617188.851563 2.84375-2.554687-6.8125 7.375-7.945313 8.792969-1.132812 1.421875 12.769532-1.980469 12.769532-1.980469s-2.269532 9.359375-14.46875 12.199219c4.820312 7.945312 2.835937 13.050781 2.554687 13.050781-.289063 0-7.949219-7.941406-15.328125-6.527344 1.988281 7.667969 7.949219 14.757813 9.648438 15.894531 1.707031 1.132813-13.332032.851563-15.320313-3.40625-1.988281-4.253906-3.691406 10.21875 1.699219 14.757813-6.242188.285156-11.632813-3.40625-11.632813-3.40625s-3.691406 8.507813-1.136719 12.769531c2.558594 4.257813-8.792968-8.511718-8.792968-8.511718l-21.570313 9.082031zm0 0" fill="#9c3900" fill-rule="evenodd" stroke-width="1.72"/><path d="m665.359375 289.171875c.503906 0 31.332031-.507813 45.480469-8.589844 7.074218 11.113281 16.675781 18.695313 16.675781 18.695313l4.550781-16.171875s11.113282.503906 12.128906 3.03125c-1.519531 3.035156-2.023437 7.074219-2.023437 7.074219s7.578125.503906 8.082031 1.515624c.507813 1.011719-2.019531 9.601563-2.019531 9.601563l32.34375 7.582031s2.527344-12.632812 5.050781-11.117187c2.53125 1.515625 13.644532 17.179687 29.3125 18.191406 15.664063 1.011719 16.675782-13.140625 16.675782-13.140625l3.535156 2.023438s6.570312-14.152344 7.582031-14.152344 2.523437 2.023437 11.113281 2.023437c2.53125 3.03125 3.539063 10.105469 3.539063 10.105469s-9.597657 9.605469-6.566407 17.183594c3.027344 7.582031 3.535157 5.554687 3.535157 5.554687l69.734375 16.683594s3.542968 5.554687-2.523438 8.585937c0 .503907-70.242187-16.171874-70.242187-16.171874s-6.566407 7.585937-11.621094 6.066406c-5.054687-1.515625-1.519531 3.03125-1.519531 3.03125l75.800781 6.0625s5.5625 7.078125 1.519531 9.097656c-5.054687.503906-81.867187-5.050781-81.867187-5.050781s-4.550781 9.597656-9.597657 1.515625c-3.542968 5.558594-7.585937-1.515625-7.585937-1.515625s-6.566406 5.050781-7.574219-.507813c-5.5625 4.042969-9.097656-2.527344-9.097656-2.527344l-32.339844-2.019531-2.019531 3.03125s5.554687 1.515625-3.035156 5.054688c-8.59375 3.535156 51.542969 2.019531 53.058593 2.523437 1.515626.507813-4.039062 5.054688-4.039062 5.054688s30.820312 2.019531 36.382812-4.546875c5.554688-6.570313-2.023437 8.589843-2.023437 8.589843s24.257813-1.011718 24.257813-2.023437c0-1.007813-.507813 7.585937-17.183594 6.574219 10.109375 6.566406 22.742187 10.609375 22.742187 10.609375s-12.632812 3.03125-27.289062-.503907c2.527343 6.570313 13.644531 12.632813 13.644531 12.632813s-8.085938 7.074219-26.277344-10.105469c5.050782 9.09375 1.011719 12.628906.503906 11.617188-.503906-1.007813-9.09375-13.640625-29.308593-18.1875 12.632812 8.082031 7.074219 11.621094 7.074219 11.621094s-6.570313-11.621094-17.183594 0c-4.042969-10.609376-19.703125-16.671876-38.910156-17.683594-6.0625-7.074219-9.597657-5.054688-23.75-9.097656-8.085938-9.097657-19.707032-19.203126-19.707032-19.203126s.503906-13.644531 14.144532-12.128906c1.519531 4.550782 1.519531 3.03125 1.519531 3.03125s15.160156-5.554687 19.707031 2.019532c6.570312-11.621094 15.664062-1.734376 17.183594 2.304687 4.351562.640625 26.273437 1.238281 26.273437 1.238281s-2.523437-4.550781-1.007812-4.042968c1.515625.5 13.644531-4.550782 13.136719-6.066407-.503907-1.515625-1.007813-6.566406 1.011718-6.0625 2.019532.5-17.183594-2.53125-27.792968 5.558594-3.535157-3.539063-1.011719-13.136719-1.011719-13.136719l-31.332031-6.574218-1.511719 8.085937s-9.097657 1.519531-8.589844-.5c.5-2.023437-2.023437 7.066406-2.023437 7.066406s-12.128907-3.027343-12.128907-3.535156c0-.5 3.535157-18.191406 3.535157-17.683594 0 .507813-10.105469 1.011719-24.253907 11.621094-4.039062-12.632813-35.878906-29.308594-35.878906-29.8125zm0 0" fill="#ffc221" fill-rule="evenodd" stroke-width="1.72"/><path d="m704.78125 247.730469s-21.226562 18.191406 0 28.804687c1.011719-7.078125 2.523438-8.085937 2.523438-8.085937s17.691406 6.566406 28.300781-9.097657c-4.546875-6.566406-12.632813-4.039062-12.632813-4.039062s-16.675781-.003906-18.191406-7.582031zm0 0" fill="#ffc221" fill-rule="evenodd" stroke-width="1.72"/><path d="m722.472656 255.820312-14.65625 12.632813" fill="none" stroke-width="1.72"/><path d="m705.480469 247.882812s2.835937-2.839843 3.691406-6.246093c.847656-3.402344-1.140625-7.09375 2.269531-10.214844 3.402344-3.121094 48.242188-22.132813 51.925782-25.824219 3.691406-3.6875 10.5-11.632812 11.355468-13.335937.847656-1.707031 3.402344 8.515625-4.257812 13.054687 8.226562-2.273437 13.621094-4.824218 17.023437-3.691406-3.40625 4.824219-12.484375 12.769531-16.742187 12.769531 9.933594-3.6875 19.015625-6.8125 21.570312-4.824219 2.550782 1.988282-12.203125 11.917969-18.167968 12.484376 9.933593-2.550782 23.273437-6.523438 24.972656-2.269532-5.390625 1.703125-3.6875 3.121094-14.757813 9.363282-1.414062 1.140624-8.507812 1.421874-8.507812 1.421874 8.507812-.855468 20.144531-4.257812 21.277343 1.988282-6.804687 2.554687-9.359374 5.957031-15.039062 7.378906-5.671875 1.414062-18.726562 3.96875-26.671875 7.09375-7.945313 3.121094-19.582031 12.203125-19.582031 12.203125s-25.253906.847656-25.253906.566406c0-.285156-4.824219-11.636719-5.105469-11.917969zm0 0" fill="#fff" fill-rule="evenodd" stroke-width="1.72"/><path d="m921.992188 230.570312 49.089843 9.367188s5.394531-6.246094 2.554688-9.648438c7.378906-1.707031 5.390625-11.355468 5.390625-11.355468s8.511718-3.683594 1.417968-12.199219c4.828126-4.824219-1.132812-8.511719-1.132812-8.511719s1.984375-8.515625-4.257812-9.363281c1.703124-6.8125-10.78125-9.085937-10.78125-9.085937s-25.824219 7.097656-43.984376 7.664062c5.957032 5.960938-2.273437 9.648438-2.273437 9.648438s4.824219 3.40625 3.40625 6.242187c-1.417969 2.839844.851563 5.960937-5.390625 7.945313 8.226562 3.691406-.851562 9.933593-.851562 9.933593s9.078124 6.246094 6.8125 9.363281zm0 0" fill="#fff" fill-rule="evenodd" stroke-width="1.72"/><path d="m742.167969 293.722656-6.566407 29.304688" fill="none" stroke-width="1.72"/><path d="m748.242188 304.828125-2.019532 9.601563" fill="none" stroke-width="1.72"/><path d="m780.582031 312.414062-3.035156 9.089844" fill="none" stroke-width="1.72"/><path d="m836.671875 374.058594c-.503906 0-16.175781 2.019531-18.195313 1.519531-2.023437-.503906 24.761719 8.085937 24.761719 11.621094" fill="none" stroke-width="1.72"/><path d="m808.367188 377.597656s-15.664063-10.101562-18.191407-9.089844c-2.523437 1.007813 15.667969-.511718 17.183594-2.023437" fill="none" stroke-width="1.72"/><path d="m776.03125 365.980469s-16.171875.503906-17.6875-1.007813c-1.515625-1.519531 15.664062 11.109375 18.699219 10.105469" fill="none" stroke-width="1.72"/><path d="m744.703125 358.902344c-.507813 0-11.121094-4.042969-15.667969-5.054688 4.042969 4.042969 7.074219 9.601563 17.179688 11.621094" fill="none" stroke-width="1.72"/><path d="m748.738281 352.339844c-.503906-1.011719-20.214843-7.074219-20.214843-10.109375 4.554687 1.519531 11.121093 3.539062 17.183593 2.023437" fill="none" stroke-width="1.72"/><path d="m853.351562 329.089844-2.023437 9.09375" fill="none" stroke-width="1.72"/><path d="m767.597656 343.558594s3.378906 3.726562.347656 8.273437" fill="none" stroke-width="1.72"/><path d="m838.691406 347.28125-5.5625.507812" fill="none" stroke-width="1.72"/><path d="m793.207031 344.246094 10.109375 1.519531" fill="none" stroke-width="1.72"/><path d="m820.398438 318.261719s.285156 10.214843-8.226563 9.933593c-8.515625-.285156-5.679687.28125-5.679687.28125" fill="none" stroke-width="1.72"/><path d="m826.929688 316.546875s3.40625 1.136719 2.554687 3.691406c-.851563 2.554688.851563 9.933594-9.078125 17.027344-10.503906 2.269531-9.367188-8.792969-9.367188-8.792969" fill="none" stroke-width="1.72"/><path d="m830.621094 319.675781s6.242187-3.683593 7.09375 2.277344c.851562 5.957031-5.105469 17.027344-9.363282 18.726563-4.261718 1.703124-9.085937-.285157-8.519531-3.121094" fill="none" stroke-width="1.72"/><path d="m838.28125 322.230469s5.671875-4.539063 7.378906 1.417969c1.703125 5.960937-4.542968 19.296874-7.09375 19.578124" fill="none" stroke-width="1.72"/><path d="m846.230469 323.652344s2.835937-1.421875 4.824219.28125" fill="none" stroke-width="1.72"/><path d="m837.148438 344.082031c-1.132813.28125-5.957032.566407-7.660157-3.125" fill="none" stroke-width="1.72"/><path d="m811.609375 334.148438c-.28125 0-5.960937.285156-5.960937.285156" fill="none" stroke-width="1.72"/><path d="m833.460938 356.574219-.566407-9.367188-2.269531-3.125-3.976562 3.972657s-.566407 9.367187-2.269532 10.214843" fill="none" stroke-width="1.72"/><path d="m826.648438 347.769531c-.28125-.566406-3.117188-5.957031-3.117188-5.957031l-4.824219 5.957031s-.570312 8.515625-2.273437 9.363281" fill="none" stroke-width="1.72"/><path d="m818.703125 347.488281c0-.28125-1.988281-5.671875-1.988281-5.671875s-5.675782 3.121094-6.246094 5.390625c-.566406 2.269531-.851562 8.511719-2.265625 9.082031" fill="none" stroke-width="1.72"/><path d="m810.46875 346.070312s.570312-5.109374-1.132812-5.109374c-1.703126 0-9.363282 7.09375-9.648438 13.335937" fill="none" stroke-width="1.72"/><path d="m717.386719 245.898438s.289062-5.671876 2.84375-7.660157c2.554687-1.988281 15.320312-6.8125 18.160156-11.066406 2.835937-4.257813-4.257813 7.378906-3.121094 10.5" fill="none" stroke-width="1.72"/><path d="m722.5 237.378906s6.246094 2.273438 4.824219 7.09375" fill="none" stroke-width="1.72"/><path d="m729.878906 240.648438c0 2.453124-2.226562 4.683593-4.679687 4.683593-2.457031 0-4.683594-2.230469-4.683594-4.683593 0-2.449219 2.226563-4.683594 4.683594-4.683594 2.453125 0 4.679687 2.234375 4.679687 4.683594zm0 0" fill="none" stroke-width="1.493366"/><path d="m917.167969 220.070312s43.417969 5.105469 45.40625 5.105469c1.984375 0 9.648437 2.558594 11.066406 5.113281" fill="none" stroke-width="1.72"/><path d="m919.4375 217.519531 60.445312 1.421875" fill="none" stroke-width="1.72"/><path d="m919.722656 216.097656s57.320313-3.402344 61.292969-9.363281" fill="none" stroke-width="1.72"/><path d="m921.429688 203.609375s57.609374-6.242187 58.175781-5.390625" fill="none" stroke-width="1.72"/><path d="m919.4375 196.519531s55.902344-8.792969 56.472656-7.378906" fill="none" stroke-width="1.72"/><path d="m759.960938 160.480469s17.59375 19.292969 15.890624 32.351562" fill="none" stroke-width="1.72"/><path d="m774.722656 182.613281s5.671875 8.226563 7.945313 9.078125c2.269531.851563 22.132812 1.984375 23.265625 10.5 1.136718 5.390625-4.253906 3.6875-3.40625 7.664063 1.421875 5.105469 14.757812 11.628906 29.230468 3.96875" fill="none" stroke-width="1.72"/><path d="m818.417969 217.796875s11.917969 17.597656 29.511719-1.414063" fill="none" stroke-width="1.72"/><path d="m838.847656 224.046875s14.472656 7.660156 26.390625-12.199219" fill="none" stroke-width="1.72"/><path d="m849.921875 225.753906s7.09375 5.953125 21.851563-1.988281" fill="none" stroke-width="1.72"/><path d="m892.203125 215.820312s21.84375 4.539063 23.265625 5.957032" fill="none" stroke-width="1.72"/><path d="m900.429688 210.992188c.28125 0 15.324218.566406 15.324218.566406" fill="none" stroke-width="1.72"/><path d="m891.058594 202.480469s26.109375-1.703125 29.511718 3.691406" fill="none" stroke-width="1.72"/><path d="m879.710938 194.246094s36.609374 1.421875 38.304687 3.410156" fill="none" stroke-width="1.72"/><path d="m887.941406 231.707031s6.242188-1.695312 7.09375-.847656" fill="none" stroke-width="1.72"/><path d="m873.75 247.03125s8.226562 7.09375 18.730469 3.96875" fill="none" stroke-width="1.72"/><path d="m878.292969 258.949219s9.363281 4.257812 20.429687 1.699219" fill="none" stroke-width="1.72"/><path d="m881.410156 266.039062s9.367188 6.246094 15.605469 5.109376" fill="none" stroke-width="1.72"/><path d="m877.160156 269.730469s6.527344 4.824219 6.808594 7.378906" fill="none" stroke-width="1.72"/><path d="m868.082031 275.410156s1.988281 10.214844 9.082031 13.90625" fill="none" stroke-width="1.72"/><path d="m863.253906 279.953125s-3.125 13.332031 4.824219 21.566406" fill="none" stroke-width="1.72"/><path d="m855.019531 290.449219c0 .285156-.566406 6.246093-.285156 6.8125" fill="none" stroke-width="1.72"/><path d="m803.941406 238.796875 15.320313-.847656s5.675781-2.269531 1.703125-5.957031" fill="none" stroke-width="1.72"/><path d="m822.957031 235.398438c.289063 0 14.472657 1.136718 18.164063 5.394531 3.6875 4.253906 8.230468 12.765625 10.78125 14.1875 2.554687 1.414062 3.121094-.566407 3.121094-.566407" fill="none" stroke-width="1.72"/><path d="m848.777344 252.140625s-7.660156 13.054687-1.699219 17.023437" fill="none" stroke-width="1.72"/><path d="m844.519531 266.609375s-6.808593 9.085937-1.417969 13.621094" fill="none" stroke-width="1.72"/><path d="m841.691406 279.101562s-5.394531 8.792969 1.136719 14.757813" fill="none" stroke-width="1.72"/><path d="m839.300781 255.761719c-.367187.367187-6.589843 4.753906-8.789062 3.660156" fill="none" stroke-width="1.72"/><path d="m832.710938 269.675781s2.5625 2.566407 4.761718 2.199219" fill="none" stroke-width="1.72"/><path d="m833.007812 282.980469 4.09375 2.804687" fill="none" stroke-width="1.72"/><path d="m833.558594 293.167969 3.542968 2.132812" fill="none" stroke-width="1.72"/><path d="m769.46875 154.007812s7.460938 3.882813 13.429688 0c5.96875-3.875 34.617187-18.5 42.074218-20.886718 7.457032-2.386719 11.636719-16.113282 13.128906-22.082032" fill="none" stroke-width="1.72"/><path d="m832.441406 127.148438 41.777344-12.230469s6.859375-5.675781 7.160156-16.121094" fill="none" stroke-width="1.72"/><path d="m878.390625 110.140625s41.777344-4.179687 41.777344-19.695313" fill="none" stroke-width="1.72"/><path d="m913.597656 101.191406s43.867188-11.9375 48.046875-16.410156" fill="none" stroke-width="1.72"/><path d="m791.261719 163.550781s26.554687-13.726562 30.734375-15.222656c4.175781-1.488281 13.726562-13.425781-.59375-13.425781" fill="none" stroke-width="1.72"/><path d="m804.089844 168.929688c.300781 0 21.785156-14.023438 28.949218-15.816407 3.875-5.371093 1.785157-11.039062-4.777343-9.847656" fill="none" stroke-width="1.72"/><path d="m834.820312 149.53125c.59375-.296875 11.640626-.597656 7.757813 8.054688-5.667969 4.175781-30.136719 16.414062-30.136719 16.414062" fill="none" stroke-width="1.72"/><path d="m829.148438 140.277344 46.554687-15.515625s3.875-8.058594-1.792969-9.25" fill="none" stroke-width="1.72"/><path d="m912.710938 101.488281c0 .300781 5.96875 3.582031 2.386718 8.957031-6.5625 3.875-37.597656 11.335938-37.597656 11.335938" fill="none" stroke-width="1.72"/><path d="m959.847656 96.714844-43.855468 12.234375" fill="none" stroke-width="1.72"/><path d="m956.574219 106.558594-38.199219 11.640625" fill="none" stroke-width="1.72"/><path d="m953.292969 116.109375-33.722657 10.140625" fill="none" stroke-width="1.72"/><path d="m947.019531 125.660156c-.898437 0-25.066406 7.460938-25.066406 7.460938" fill="none" stroke-width="1.72"/><path d="m941.648438 133.121094-15.515626 6.265625" fill="none" stroke-width="1.72"/><path d="m937.769531 141.46875c-.597656 0-13.429687 5.671875-13.429687 5.671875" fill="none" stroke-width="1.72"/><path d="m933.890625 148.339844-11.9375 5.667968" fill="none" stroke-width="1.72"/><path d="m913.300781 161.171875s1.496094.59375 1.191407 2.386719" fill="none" stroke-width="1.72"/><path d="m883.160156 177.578125s5.074219 1.792969.296875 6.566406c-2.386719 3.28125-9.25 2.390625-13.429687 8.355469" fill="none" stroke-width="1.72"/><path d="m915.6875 110.742188s6.269531 1.488281 1.496094 9.546874c-12.535156 4.773438-37.902344 12.535157-37.902344 12.535157s-1.191406 2.089843-4.472656 3.875c-3.28125 1.792969-39.386719 11.9375-39.386719 11.9375" fill="none" stroke-width="1.72"/><path d="m917.777344 119.988281s6.867187 2.984375 0 8.058594c-7.757813 4.476563-34.910156 12.832031-34.910156 12.832031s-.296876 2.386719-1.488282 3.28125c-1.199218.894532-37.003906 12.832032-37.003906 12.832032" fill="none" stroke-width="1.72"/><path d="m919.570312 128.042969s7.164063 2.085937.894532 8.054687c-7.460938 4.472656-31.332032 12.53125-31.332032 12.53125s-2.386718 2.980469-6.265624 4.179688c-3.882813 1.191406-28.648438 11.335937-28.648438 11.335937" fill="none" stroke-width="1.72"/><path d="m921.363281 136.097656c2.085938.898438 7.757813 1.792969.894531 7.164063-8.058593 3.578125-27.75 11.339843-27.75 11.339843l-1.792968 3.28125-31.332032 13.429688" fill="none" stroke-width="1.72"/><path d="m923.148438 144.160156s2.984374 3.578125-3.578126 7.757813c-7.164062 3.878906-22.679687 9.847656-22.679687 9.847656" fill="none" stroke-width="1.72"/><path d="m919.570312 152.511719s3.28125 2.089843-.894531 5.070312c-4.773437 2.390625-23.574219 12.238281-23.574219 12.238281l-12.234374 8.054688" fill="none" stroke-width="1.72"/><path d="m876.601562 125.058594c0 .296875 5.074219 4.476562 3.28125 9.253906 4.476563 3.28125 3.578126 6.859375 3.578126 6.859375s6.269531 3.585937 5.375 8.65625c6.265624 1.492187 5.96875 5.074219 5.96875 5.074219l-2.089844 3.28125s6.265625-.296875.894531 7.757812c3.28125 1.792969 1.789063 3.878906 1.789063 3.878906" fill="none" stroke-width="1.72"/><path d="m893.609375 166.238281c-.894531 0-21.78125 7.761719-27.15625 12.535157" fill="none" stroke-width="1.72"/><path d="m843.179688 156.992188s6.269531-.300782 5.371093 6.5625c7.160157-2.386719 5.671875 4.476562 5.671875 4.476562s8.355469-3.285156 6.859375 7.160156c5.371094-1.191406 4.480469 4.179688 4.480469 4.179688s4.773438-.296875 4.773438 2.386718c3.28125-2.984374 6.863281-1.492187 6.863281-1.492187s2.386719-3.28125 5.667969-2.390625" fill="none" stroke-width="1.72"/><path d="m848.847656 163.261719c0 .597656-28.046875 16.113281-28.046875 16.113281" fill="none" stroke-width="1.72"/><path d="m854.21875 168.328125-21.1875 13.132813" fill="none" stroke-width="1.72"/><path d="m861.382812 174.886719c0 .304687-18.507812 11.046875-18.507812 11.046875" fill="none" stroke-width="1.72"/><path d="m865.5625 179.074219s-13.132812 10.742187-16.113281 10.140625" fill="none" stroke-width="1.72"/><path d="m870.039062 182.347656s-7.460937 5.667969-13.726562 8.355469" fill="none" stroke-width="1.72"/><path d="m877.789062 179.972656s2.386719 2.980469-12.53125 10.738282" fill="none" stroke-width="1.72"/></g></svg>