<svg viewBox="0 0 1000 667" xmlns="http://www.w3.org/2000/svg" xmlns:xlink="http://www.w3.org/1999/xlink"><clipPath id="a"><path d="m0 0h1000v666.71875h-1000zm0 0"/></clipPath><clipPath id="b"><path d="m0 0h1000v666.71875h-1000zm0 0"/></clipPath><g clip-path="url(#a)"><path d="m0 666.667969v-666.667969h1000v666.667969zm0 0" fill="#fff" fill-rule="evenodd"/></g><g fill-rule="evenodd"><path d="m0 0h1000v260.871094h-1000zm0 0"/><path d="m282.609375 260.871094 213.214844 42.40625 10.601562-53.300782zm0 0" fill="#fcd116"/><path d="m282.609375 260.871094 213.214844-42.410156 10.601562 53.300781zm0 0" fill="#fcd116"/><path d="m299.152344 177.675781 180.757812 120.777344 30.195313-45.191406zm0 0" fill="#fcd116"/><path d="m299.152344 177.675781 213.21875 42.410157-10.601563 53.308593zm0 0" fill="#fcd116"/><path d="m346.28125 107.152344 120.777344 180.75 45.183594-30.1875zm0 0" fill="#fcd116"/><path d="m346.28125 107.152344 180.75 120.773437-30.1875 45.1875zm0 0" fill="#fcd116"/><path d="m416.808594 60.023438 42.410156 213.214843 53.304688-10.597656zm0 0" fill="#fcd116"/><path d="m416.808594 60.023438 120.773437 180.753906-45.1875 30.199218zm0 0" fill="#fcd116"/><path d="m500 43.476562-42.410156 213.21875 53.300781 10.601563zm0 0" fill="#fcd116"/><path d="m500 43.476562 42.410156 213.21875-53.300781 10.601563zm0 0" fill="#fcd116"/><path d="m583.191406 60.023438-120.773437 180.753906 45.1875 30.199218zm0 0" fill="#fcd116"/><path d="m583.191406 60.023438-42.410156 213.214843-53.304688-10.597656zm0 0" fill="#fcd116"/><path d="m653.71875 107.152344-180.75 120.773437 30.1875 45.1875zm0 0" fill="#fcd116"/><path d="m653.71875 107.152344-120.777344 180.75-45.183594-30.1875zm0 0" fill="#fcd116"/><path d="m700.847656 177.675781-213.21875 42.410157 10.601563 53.308593zm0 0" fill="#fcd116"/><path d="m700.847656 177.675781-180.757812 120.777344-30.195313-45.191406zm0 0" fill="#fcd116"/><path d="m717.390625 260.871094-213.214844-42.410156-10.601562 53.300781zm0 0" fill="#fcd116"/><path d="m717.390625 260.871094-213.214844 42.40625-10.601562-53.300782zm0 0" fill="#fcd116"/><path d="m0 260.871094h1000v144.925781h-1000zm0 0" fill="#0072c6"/></g><g clip-path="url(#b)"><path d="m0 0v666.667969h1000v-666.667969l-500 666.667969zm0 0" fill="#ce1126" fill-rule="evenodd"/></g></svg>