<svg viewBox="0 0 1000 500" xmlns="http://www.w3.org/2000/svg"><path d="m0 0h1000v500h-1000z" fill="#0098c3"/><g fill-rule="evenodd"><path d="m0 166.667969h1000v166.664062h-1000zm0 0" fill="#e00034"/><path d="m0 333.332031h1000v166.667969h-1000zm0 0" fill="#00ae65"/><path d="m559.167969 250c0 41.421875-33.578125 75-75 75s-75-33.578125-75-75 33.578125-75 75-75 75 33.578125 75 75zm0 0" fill="#fff"/><path d="m562.5 250c0 34.519531-27.980469 62.5-62.5 62.5s-62.5-27.980469-62.5-62.5 27.980469-62.5 62.5-62.5 62.5 27.980469 62.5 62.5zm0 0" fill="#e00034"/><path d="m596.984375 279.445312-21.5-10.203124-7.957031 22.425781-7.984375-22.414063-21.484375 10.230469 10.199218-21.496094-22.421874-7.960937 22.410156-7.988282-10.230469-21.484374 21.496094 10.203124 7.960937-22.425781 7.988282 22.414063 21.480468-10.230469-10.199218 21.496094 22.425781 7.960937-22.417969 7.988282zm0 0" fill="#fff"/></g></svg>