<svg viewBox="0 0 1000 500" xmlns="http://www.w3.org/2000/svg"><path d="m0 0h1000v500h-1000z" fill="#cf142b"/><path d="m0 0h500v250h-500zm0 0" fill="#00247d" fill-rule="evenodd"/><path d="m0 0v27.949219l444.101562 222.050781h55.898438v-27.949219l-444.101562-222.050781zm500 0v27.949219l-444.101562 222.050781h-55.898438v-27.949219l444.101562-222.050781zm0 0" fill="#fff" fill-rule="evenodd"/><path d="m208.335938 0v250h83.328124v-250zm-208.335938 83.335938v83.328124h500v-83.328124zm0 0" fill="#fff" fill-rule="evenodd"/><path d="m0 250 166.664062-83.335938h37.269532l-166.667969 83.335938zm0-250 166.664062 83.335938h-37.265624l-129.398438-64.703126zm296.066406 83.335938 166.667969-83.335938h37.265625l-166.664062 83.335938zm203.933594 166.664062-166.664062-83.335938h37.265624l129.398438 64.703126zm0 0" fill="#cf142b" fill-rule="evenodd"/><path d="m639.433594 120.960938v211.367187c2.5 30.265625 65.570312 49.3125 109.546875 81.457031 57.675781-38.6875 113.613281-46.511718 115.863281-89.882812l.703125-202.941406zm0 0" fill="#fff" fill-rule="evenodd"/><path d="m639.410156 329.296875 2.363282 12.070313 7.871093 9.449218 56.945313 36.738282 41.730468 25.984374 81.355469-44.355468 28.082031-21.515625 5.507813-28.082031-3.40625-6.558594.785156 6.820312-2.097656 5.511719-2.367187-1.574219-1.570313-10.234375-.261719 7.605469-3.9375 4.464844-.785156-5.511719 1.046875-3.9375-1.574219-4.457031-.523437 8.921875-2.097657 3.933593-1.84375-2.621093.792969-3.941407-.265625-3.671874-1.3125-1.839844-.265625 3.9375-.785156 1.308594.265625 2.367187-1.578125 1.574219-1.050781-3.148438.527344-2.890625-.527344-2.621093-1.046875-2.886719.261719 4.722656-2.621094 5.777344-2.101563 1.308593-1.3125-1.574218.265625-5.511719-1.835937-3.152344.519531 6.828125-2.621094 6.035156-1.578125-1.835937-.785156-1.835937v-2.890626l2.886719-7.347656-2.886719 2.625-2.363281 6.292969-1.050782 1.839844-1.3125-3.148438 1.839844-7.089843-1.050781-1.308594-2.363281 8.664062-2.097656 1.308594-1.570313-.523438-1.050781.523438-127.023438 7.085938-3.414062-4.984376-.785156 4.984376-2.097657 1.835937-2.101562-9.1875-1.570313 9.714844-2.105468-4.722657 1.050781-10.761718-1.050781-.785156-1.570313 5.769531v8.136719l-.789063 5.511718-1.578124-1.050781-2.097657-4.984375-.257812-8.140625.785156-5.769531-2.097656 6.820312v8.398438l-.265625 4.199218-2.628906-5.773437-1.308594-4.722656-2.625-5.507813 1.578125 7.082032v3.671874l-4.464844-3.933593-2.363281-11.023438-.519532 8.136719 1.046876 3.933594-1.3125 1.578125-2.621094-4.726563-1.578125-6.296875-1.835938-6.035156v9.707031l1.3125 5.253906-1.046875 1.3125-2.101562-1.054687-.785156-5.773437-.527344-8.394532-2.101563 5.769532-.527343 6.035156-.785157 4.726562-1.308593 3.148438zm0 0" fill="#2f8f22" fill-rule="evenodd" stroke="#000" stroke-width=".3804"/><path d="m754.46875 125.539062-5.261719 4.1875-5.515625-.066406-.933594 1.863282-.0625 2.59375-.667968.800781-.132813 1.390625h-3.0625l-2.058593-1.261719-.601563.796875-2.0625 5.789062-1.195313.796876h-1.394531l-1.859375 1.660156h-1.867187v1.667968l1.796875 2.257813 1.394531 1.066406.535156 2.394531 1.332031 2.0625-1.867187 1.796876-1.457031 1.527343-.734375 1.132813h-.597657l-.402343-1.332032-.664063-1.53125-1.660156.933594-1.527344 1.0625.0625 1.664063 2.460938 3.125 2.328125.132812-2.0625 3.925781h-.328125l-.136719-2.328124-1.066406-.863282-.664063.136719-1.527344.996094-1.0625 1.59375-.269531.996093-.535156.933594-.660156 1.527344.199219 1.398438 1.125 1.53125 1.203124.996093 2.460938.796875.863281.199219h4.320313l-1.261719 2.792969-1.128906 3.0625-1.398438 2.59375-.863281.332031-.398438-.53125v-1.398437l1.664063-3.789063-.136719-1.265625-.996094.402344h-1.265624l-.601563-.402344-2.589844 2.128906-1.730469 2.523438-.398437 1.867187.53125 2.59375 1.53125 2.726563 1.265625.929687.929688.402344.332031.460937-.464844.933594.996094 1.066406 1.796875.792969-.53125.800781-1.398438 1.398438-.863281 1.265625-.664063 1.792969.730469 2.394531-.730469 1.265625-1.664062.601562-2.523438.527344-1.667968.796875-.398438 1.730469-.933594 1.597656-3.324218 1.199219-2.664063.332031-2.855469.332032h-1.59375l-.867187-1.332032v-2.128906l-1.464844-2.460938-1.527343-1.792968-2.59375-1-1.796876-.195313-1.726562.53125-1.398438 1.660157h-1.199218l-1.796875-2.191407-1.460938-1.066406-.863281-.128906-1.597656.464843-3.0625 3.191407-1.597656-.136719-1.925782-1.261719-1.929687 1.128907-.933594.332031-1.664063 1.597656-.0625 2.195313.996094 2.59375.929688.996093 1.066406.269531.394531 2.191407.601563 1.003906 2.460937 2.390625-1.792969 2.460938-.335937 1.597656-.0625 2.796875.398437 1.398437 3.457032 4.585938-.199219.996094-3.257813 2.398437-2.992187 2.855469-.933594 2.332031.0625 1.660156.132813.398438-2.992188 2.191406-.265625 2.53125.601563 4.257813 1.328125 1.867187 2.0625 1.324219 1.796875.601562 2.328125-.199218 1.859375-1.132813 1.199218-1.058594.328126-3.0625 2.199218 1.527344 2.59375 3.261719 1.925782 2.992187.070312.796875-2.929688-.0625-1.128906-.332031-2.992187.132813-1.726563.664062-1.53125-.070312-.800781-.332032-1.996094 1.003906-3.789062 1.859376-2.992188 1.726562-1.195312.132812-1.730469 1.402344-1.332031.261719-2.128907 2.597656-.527343 1.730469.195312 3.1875.996094 2.128906.199219 3.664063.46875.726562-.269532 2.398438-1.195312 1.660156-.199219 1.195313-.664062 1.601562-.996094 1.390625-.136719 3.59375-.597656 3.457031.203125 4.660156.191406 4.589844-1.394531 2.859375-1.128906 1.464844-.265625 1.726563-.402344 1.199218h1.726563l.871093-.734375-.269531 1.464844 3.394531-3.460937.269531 1.53125 1.527344-1.195313.132813-2.660156-.070313-1.332031.871094 2.128906.527344.53125 1.132812-1.066406.265625-1.195313.597657 2.191406.664062.734375 1.601562-1.792968.199219-4.257813-1-2.796875.269531-.265625 1.589844 3.789063.667969 1.335937 1.460937 2.191406.667969 2.527344 2.261719-.398437 1.066406-6.582032 1.726563 5.585938 2.199219 8.449218 1.394531 4.851563 1.730469 2.925781 1.0625 3.261719 1.527343 2.460937 2.394531 3.191407 2.53125 1.929687 3.257813 1 4.390625.066406.070312 1.664063-1.667968 1.527344-.667969 1.398437-1.789063 2.992188-1.203124 1.132812-4.453126-.070312-2.597656-1.195313-1.394531-.332031-2.925781.53125-2.261719 1.730469-1.0625-.070313-2.261719 1.066406-1.132812 1.464844-.535156 1.925782-1.457032 2.332031-.671875 1.394531.601563 1.929688-.800782 1.464843-.199218 5.453125 1.269531 3.191406 2.0625 2.132813 1.394531.925781.796875-.394531-.199219-3.527344.730469-1.863281 1.464844.863281 2.195313-1.058593 1.792968 1.398437-.664062 2.460937.269531 2.992188 1.328125 3.257812 2.328125 2.992188 1.796875 1.394531.132812-.792969-.132812-6.851562 1.527344-1.332031 1.863281-.066407 2.195313-1.664062 1.128906-.269531 1.0625-.796875.140625-1.195313.925781.332031.601562 2.195313-.132812 2.460937-.398438.335938.46875.726562.195313.667969h1.726563l4.195312-3.859375.996094-2.328125.332031-3.660156.863281-.664063.0625-.933593-.796875-1.460938 1.066407-.265625.132812.460938h1.394531l2.199219-1.394532 1.195312-1.464843.933594-.265625 4.851563-4.917969 3.457031 1.261719 5.324219 2.0625 3.722656.929687.867187.464844 1.664063.0625 1.597656.871094 1.859375 2.390625.53125.933594-.59375.332031-1.996094-.996094-.804687.332031-2.257813 1.929688-.0625 3.726562 2.128907 2.660156 4.71875.332032 2.0625-.996094 1.796875.996094 2.390625-.996094 2.199219-.734375 3.058593 1.128906 1.597657.402344 1.527343-.269531 1.398438-1.058594 2.191406.332031 2.066406-.070312 1.328125-.996094 1.132813-1.796875.597656-1.394531-.265625-1.867188-1.132812-1.328125-1.390626-.53125h-1.464843l.195312-.796875 1.996094-1.195312 7.050781-3.660157 1.332032-.199218 1.929687-1.394532 1.859375-.136718 2.992188-2.328125 1.136718.597656 1.195313 1 2.328125 2.195313 1.597656 2.261718 1.128906.863282 1.324219 2.398437 1.734375 1.859375 1.265625.796875 1.460937.199219-.929687 1.464844-.398437 1.527343.460937 2.265625-.792969 2.726563v3.191406l1.0625 2.792969 1.328125-.929688 4.722657-4.460937 1.664062-.195313 1.667969-1.199218.863281-2.527344.53125-1.59375.726562 1.0625 1.066407 2.65625 2.128906 2.136718 1.464844.59375.128906 3.195313.070313 3.390625.726562.265625 2.460938-1.730469 2.066406-2.523437 1.328125-3.128907.402343-3.058593-.601562-2.660157-.203125-1.796874.664063-1.859376 2.136718 2.257813 1.726563.867187.734375 5.183594 1.660156-.863281 1.996094-2.261719 1.796875-2.722656.464843-3.0625-.332031-4.519531-.664062-4.398438-2.597657-3.585937-1.066406-.265625-1.195312-1.46875-.195313-.929688-3.398437-2.660156-2.65625-.53125-2.328125.863281-1.195313 1.992188h-.800781l-2.730469-2.261719-.132812-1.65625-1.328125-1.335937-.066407-.527344 1.527344-1.199219 1.730469-.199219 2.859375-1.460937 2.394531-1.796875 2.0625-2.664063 1.796875-2.726562.601563-3.1875 1.261719-3.59375 1.929687-6.1875 1.328125-5.457031 1.667969-.796876 2.058593-.867187 1.726563-1.660156 1-.199219.800781-1.464844.992188-.0625.269531-1.996094.597656-.933593 1.199219-.464844s.332031 3.0625 0 3.394531c-.332031.332032-2.394531 4.386719-2.394531 4.386719l-.664063 2.664063-.132812.796874 1.859375.328126 2.128906-.863282h1.0625l2.332031-2.660156 2.058594-3.921875.734375-3.992187.863281 1.265624.195313 2.128907-.726563 3.253906-.601562 2.800781-.664063.929688.601563 1.199218 1.726562-1.136718 1.730469-.394532 4.851563-5.390624 1.996093-6.980469v-6.789063l-.660156-.726562 1.0625-1.199219-.136719-2.394531-.726562-2.128906-1.199219-1.265626-2.125 1.597657-1.335937-.199219-1.464844-2.730469-.199219-4.058593-.53125-.664063.199219-1.527344 1.203125-2.328125.0625-3.457031-1.328125-3.324219-2-2.46875-1.527344-.527344-1.925781-.199218-1.601563-1.132813-.929687-.332031-1.464844.136719-1.398437-1.734375-2.128907.070312-1.195312-.800781-1.132813.53125s-2.191406-.59375-2.589844-.664063c-.398437-.0625-1.597656-.0625-1.597656-.0625l-1.929687-1.667968-.601563.402344-2.328125-.136719-3.527343-1.128907.339843-1 2.722657-2.394531 1.796874-.730469 2.59375 2.261719 2.066407 1.53125 2.722656.726563 3.261719-.992188 2.0625-2.199218-.535156-2.0625-.597657-4.917969-2.394531-3.125-1.132812-5.65625-2.523438-3.589844-.796875-1.53125-.269531-1.796875.464844-2.0625 3.796874-1.996094 1.394532-2.261718-.601563-3.257813-.863281-2.859375-2.527344-3.859375 1.925782-2.257813 1.132812-2.863281.269531-1.527343-.269531-1.863282-.863281-1.199218.53125-.53125-.53125-1.132813-2.992188-.929687-2.261719-.863282-1.0625.535156-2.929687-.335937-1.460937.734375-2.796876 1.195312-2.992187 1.460938-2.328125.269531-4.257812 2.726563-2.859376 1.261718-5.1875-.199218-2.195312-.394532-4.128906-4.058593-.863282-.269531-.332031-1.597657-1.132812-.464843-1.859375.929687.398437-2.0625-.53125-2.523437-1.996093-3.261719-1.660157-.933594-2.859375-.863281-.796875 2.128906.261719 3.0625-1.195312.726562-.53125-.0625.066406-2.128906.132812-3.65625-.863281-2.398437-1.796875-3.59375.398438-.332031 1.660156 3.394531 1.667968.53125 2.128907.863281 2.390625.535156 2.792968-.734375 1.195313-1.265625 1.664063-2.390625.132812-2.460937-1.859375-2.398438v-1.128906l.800781-1.265625-1.132812-1.261719-2.59375.132813-1.601563 1.664062-.664062 1.996094v.863281l-1.0625-.332031-.726563-1.796875-.867187-3.855469-.863281-1.132812-.800782-1.996094-1.664062-2.664063 2.527344 3.394532 1.265624 1.464844 2.730469 1.328124 1.59375.539063 2.261719-.539063 2.128906-.59375.863282-1.933593.933593-2.125v-1.464844l.398438-.402344-.929688-1.128906-.863281-4.917969s-1.535156.328125-1.933594.664063c-.394531.328125-1.398437 1.992187-1.398437 1.992187l-.59375 1.261719-1.402344-.59375-1.328125-1.929687-1.132812-1.132813-.527344-.132813-.269532-.53125h.796876s.46875.261719 1.664062-.664062c1.199219-.933594 2.199219-1.332031 2.199219-1.332031s.59375-.402344.933593-.664063c.324219-.269531 1.457032-3.859375 1.457032-3.859375l-.132813-1.664062-1.664062.933593-2.121094 1.527344-2.136719-.199218-2.855468-2.664063.265624-.792969 1.996094-1.332031 1.195313-2.792969 1.332031-4.65625s-.335938-.269531-1.0625-.398437c-.734375-.132813-1.398438-1.464844-1.398438-1.464844l-1.394531-.867187-1.796875-1.59375v-6.714844l-2.199218-.46875-4.851563.53125-1.195313-2.722656-.667968-1.132813-.398438-1.863281-2.191406.667968-2.992188 1.0625-1.070312-.066406-1.390625-1.128906-1.203125-.402344-1.660156-1.195312zm0 0" fill-rule="evenodd" stroke="#000" stroke-width=".3804"/><path d="m639.433594 120.960938v211.367187c2.5 30.265625 65.570312 49.3125 109.546875 81.457031 57.675781-38.6875 113.613281-46.511718 115.863281-89.882812l.703125-202.941406zm0 0" fill="none" stroke="#000" stroke-width="6.8466"/><path d="m753.421875 162.113281c-.257813 5.734375-5.183594 4.53125-6.589844 2.964844-1.351562-5.246094 6.503907-6.679687 6.589844-2.964844zm0 0" fill="#d40000" fill-rule="evenodd" stroke="#000" stroke-width=".3804"/><path d="m756.089844 161.789062c.511718 4.523438 5.707031 5.15625 6.6875 3.253907 1.71875-4.320313-4.730469-7.070313-6.6875-3.253907zm0 0" fill="#d40000" fill-rule="evenodd" stroke="#000" stroke-width=".3804"/><path d="m752.898438 157.417969v.992187l-.542969.101563-.195313-.25-.152344-1.539063-.300781-.148437v-.695313l.699219-.050781v-.644531h-.84375l-.296875.644531-.152344.894531.351563.742188-.351563.601562-.644531.347656-.894531.84375-.59375.292969-1.394531.152344-1.140626-.546875-1.144531-1.09375s-.496093-.792969-.542969-.992188c-.050781-.199218-.347656-.894531-.347656-.894531l-.300781-.746093-.542969-.597657-.847656-.097656-.246094 1.046875-.300781.394531-.691406.097657-.742188-.644532-.5-.84375-.546875-1.09375-.449218-.742187-.644532-.941407-.296875-.546874-.296875-1.292969-.746094-.945313-.496093-.789062-.796875-.644532-.84375-.648437h-.988282l-.648437-.496094-.941406-.890625-.695313-.949218-.445312-.542969.101562-.496094.347656-.449219.742188-.445312.746094-.046875.84375-.203125.84375-.449219.148437-.59375.152344-.992187.886719-1.585938.402344-1.144531.046874-.894531 1.289063-.199219 1.246094.152343.894531.25.941406.292969 1.089844-.542969.890625-1.148437.300781-1.980469.398438-1.835937.445312-1.046875h2.285156l.796876.546875.644531-.296875.59375-.296875 1.441406.152343h.742187s.597657-.949218.84375-1.09375c.25-.152343 1.441407-1.742187 1.441407-1.742187l1.539062-.394531.796875.097656 1.09375 1.246094.886719.542968.796875.050782 1.890625 1.242187s.59375.492188.792969.394531c.195312-.097656 1.886718-.84375 1.886718-.84375l1.488282-.097656 1.585937-.546875.546875 1.242188s.796875 1.882812 1.046875 2.082031c.246094.203125 1.238281 2.085938 1.238281 2.085938s.5-.25.75-.296876c.242188-.050781 1.382813.25 1.382813.25l3.277344.144532.449219-.492188.347656.59375-.445313 2.28125.195313 1.738282.597656 2.335937.746094 1.09375.992187.046875 1.292969 1.09375.046875 1.09375-.996094.347656-.890625-.300781-1.144531.648437-1.785156 1.039063-1.492188 1.488281-1.285156 1.835938-.847656 1.839844-.84375.597656-.746094-.296875-.742187.046875-.347657.894531-.746093.894531-.644532 2.277344-1.394531 1.542969-1.4375.695312-1.039063.796875h-.695312l-1.191406-1.144531-.546875-.5-.148438-1.785156-1.144531-.894531h-.847656l1.246094.992187.050781 1.34375-.695313.59375-.351562-.101563-.347656-.691406h-.394532l-.050781 1.339844-1.492187 1.734375-1.484376-1.242187-.054687-1.585938zm0 0" fill="#d40000" fill-rule="evenodd" stroke="#000" stroke-width=".3804"/><path d="m744.0625 144.410156v1.738282l-.644531 1.039062h-1.144531l-.691407.746094-.199219.597656 1.292969 1.191406 1.191407.84375.492187.597656.300781.144532 4.964844-.046875.59375.59375 1.09375-.796875 1.34375-2.03125 4.21875.050781 2.230469 1.632813.152343 1.34375.5.203124 1.183594-1.046874.996094-.046876.492188.640626h.898437l2.925781-2.628907.5-.695312 1.09375-.046875-.148437-.847656-1.191407-.296876-1.042968-1.042968-.296875-1.738282-.945313-.148437-1.640625.84375-2.824219 1.394531-.949218.691406-.839844.050782s-.347656-.296875-.546875-.296875h-1.09375l-.894531.746093h-.691406l-.25-.25-3.824219-.296874-3.179688-.796876-1.636719-1.09375-1.042968-.839843-.296875-.296875zm0 0" fill-rule="evenodd" stroke="#000" stroke-width=".3804"/><path d="m746.449219 148.976562h2.183593l.546876.445313v.597656l-1.042969.445313-1.839844.101562-1.285156-.199218-.902344-.796876-.191406-1.585937 1.191406-1.34375h1.140625l.097656.449219zm0 0" fill="#fffcfc" fill-rule="evenodd" stroke="#000" stroke-width=".3804"/><path d="m761.046875 148.878906-.347656.296875v.59375l.441406.300781 2.1875.101563 2.382813-1.890625.050781-.742188-1.433594-1.246093h-1.246094l-.199219.347656.300782.648437.394531.597657-.394531.789062zm0 0" fill="#fffcfc" fill-rule="evenodd" stroke="#000" stroke-width=".3804"/><path d="m728.589844 144.882812 2.214844.074219 1.148437 1.71875 1 1.066407 1 .792968.863281.140625 1.644532 2.433594v.285156l1.289062 1.148438.359375 1.5.144531.503906-.074218.644531-.71875.429688-.859376-.148438-.496093-.355468-1.574219 1.359374-1.007812 1.359376-.640626.148437-1.71875 1.855469-.855468.289062-1.363282 1-2.148437-.070312-1.355469-1.644532-.285156-.648437-.074219-1.285156 1.214844-.859375.574219.644531-.285156.644531.070312.785156.714844.289063.71875-.074219 2.574218-2.21875.644532-.359375 1.503906-1.503906.933594-.496094-.074219-.933593-1.074219-1.644532-.355468-1.144531-.285157-1.074219-.285156-.789062-1.003906-1.144532-.574219-.644531-.214844-.644531-1-.785156-.285156-.144532v-.5zm0 0" fill="#d40000" fill-rule="evenodd" stroke="#000" stroke-width=".3804"/><path d="m771.675781 153.257812h1.148438l1.214843-.574218.925782-.785156h.859375l.578125.574218.925781-.074218.570313-.71875.214843-.855469.792969-1.074219.214844-1.074219.710937-1.503906.214844-1.074219-1.785156-.066406-2.074219 1.785156-1.578125.074219-1.289063 1.355469-1 .144531-1.074218 1.574219-.355469.933594.144531.929687zm0 0" fill="#a00" fill-rule="evenodd" stroke="#000" stroke-width=".3804"/><path d="m749.558594 167.640625-1.359375 1.363281-.359375 1.214844.574218 1.214844 1.289063.214844.933594-.496094.855469 1 .144531 1.71875 1.71875 1.863281.785156.214844.644531-.71875.710938-.71875.074218-.714844 1.148438-.5.285156-2.144531.648438.78125 1.070312-.640625 1.359375-.140625v-1.792969l-.503906-1.214844-1.070313-.785156-1.648437-.71875-1.785156-.644531-.859375.074218-1.578125.933594-1.71875.570313zm0 0" fill="#d40000" fill-rule="evenodd" stroke="#000" stroke-width=".3804"/><path d="m760.332031 167.203125 2.582031-.117187c1.777344-1.152344 2.542969-5.835938 3.761719-8.933594 1.894531-2.449219 4.21875-3.1875 7.050781-1.878906l1.644532.46875 2.113281 1.648437h1.53125l1.058594.230469 1.640625.117187 2.9375-2.347656-.117188 2.46875-1.996094 1.761719-4.113281 1.527344-3.171875-1.878907-.117187.472657 6.816406 7.515624h.585937l1.175782 1.175782.585937-.46875.117188-1.996094 2.347656-2.113281.238281 3.050781.824219 1.527344v2.933594l-2.230469 2.824218-3.527344.46875-4.113281-2.582031-.117187-1.179687-3.757813-4.34375v1.878906l2.230469 4.582031.351562 1.761719.824219.824218.589844 1.410157v1.761719l1.054687 2.46875 1.878907.234374.472656-1.179687v-1.636719l1.996094-2.003906 1.292969-.117188.46875.707032-.582032.585937-.242187 1.296875v.820313l1.648437 2.230469.472656 1.410156-2.472656 3.761718-1.644531.46875-2.933594-.46875-1.761719-1.179687h-.945312l-2.699219-4.109375-.351562-1.996094-3.644531-5.757812-.121094 1.175781 1.417968 1.761719.703126 2.703125.703124 4.816406 2.113282 4.113281.117187 7.636719.707031.820313h.9375l1.175782-.9375.9375-1.292969-.230469-4.464844h1.292969l2.230468 1.292969 1.644532 2.703125.585937 1.175781v2.464844l-.820312.117187-1.644531 1.761719-2.703126 1.171875h-4.699218l-1.058594-.9375h-.9375l-.703125-.703125h-1.292969l-3.644531-5.171875-.117187-8.570313.46875-1.882812v-2.585938h-.585938v2.585938l-.589844 1.644531-.117187 2.351563.117187 6.457031 3.875 6.230469 2.824219 1.40625.820313.945312h-1.289063l.117187.9375-1.058593-.234375-.238281.472657-.582032-.238282-1.0625-.703125-1.410156.234375-.9375.46875h-2.464844l-1.058594-2.113281-.824218-1.648437-2.820313-2.582032h-2.113281l-.46875-1.527344.351562-2.703124.589844-2.464844v-6.582032l-.472656 7.519532-1.289062 4.230468-.476563.351563-.117187 4.816406.828124 2.234375 3.285157 3.640625-2.230469.234375-1.644531-.703125-1.765625.351563-2.699219-.585938-3.058594-1.058594-1.996093-1.996093-.9375-2.234375-.355469-2.230469-.46875-2.347656.46875-1.878907.234375-1.878906-.9375 2.113282v5.046874l-1.292969-.351562v-1.40625l-1.054687-1.410156-.234376-1.878906-.351562-2.824219-.121094-4.578125.121094-2.824219.585938-3.167969-.476563-.117187-.347656 3.996093-.238281 7.871094-.820313.230469-1.878906 2.589844h-4.234375l-1.636719-1.410157 3.167969-3.410156-.351563-2.699218-.351562-3.171876-.351563-5.40625-3.644531 3.875-4.109375 2.941407h-3.527344l-1.996094-2.464844-.355468-2.824219.238281-1.996094 2.113281-2.816406 1.523438-.238281.589844-.589844.355468.46875-.824218 2.355469-.824219 1.761719.703125 1.640625 2.003906.238281 2.582031-3.992187 1.996094-4.703126 1.53125-2.347656v-1.296875l-1.414063 1.0625-1.644531.351563-4.816406.117187-2.820313-1.761719-.46875-1.414062.117188-1.289062.117188-1.761719 3.054687-1.996094.121094 4.226563 1.996093-1.644532v-.820312l2.582032-3.410156 6.230468-5.519532h3.757813l2.234375 1.644532.9375.234374 2.699219 2.582032.117187 3.292968 3.171875 2.582032-1.878906 2.230468.117187 1.175782 1.761719 1.296875 1.648438-.46875.703125 4.34375 1.996094 1.171875 1.058593.117187 3.996094-4.695312 1.761719-.234375 1.058594-2.351563-.472657-1.878906zm0 0" fill="#d40000" fill-rule="evenodd" stroke="#000" stroke-width=".3804"/><path d="m715.175781 208.039062v.6875l1.375 1.871094-.097656 1.972656-6.996094 3.546876-3.054687.203124-1.578125 1.472657-4.042969 1.285156-1.773438-.398437.292969-.984376.203125-1.675781-.203125-.984375-1.277343-.6875v-1.582031l1.578124-.492187-.496093-.6875-.886719-.101563.199219-2.070313.390625-.785156.101562-.492187-.101562-.988281-.390625-.886719-1.089844-.300781-3.152344 1.285156-.496093-.492188-1.472657 1.574219-.789062.097656-.097657-1.277343-1.578124-2.070313v-.394531l-2.960938-.492188-2.070312 2.660156h-1.476563l-1.082031-.785156h-.890625l-.984375.589844-.59375-.203125-.886719 1.585937h-.492187l-.589844-1.285156-.792969-1.285156-.289063-.785156.394532-1.578125 1.277344-.789063 1.578124-.789062 1.1875-.199219 1.375.789063.59375 1.28125 1.777344-1.675782 1.769532-1.972656 1.480468-.589844 1.871094.296875 2.070312 2.757813 1.972657.199218 2.367187-1.675781.882813-.496093 2.171875.300781 2.171875 1.179687 2.261719 3.351563.398437 3.25.492187.890625 3.941407-.296875 4.140625-.789063zm0 0" fill="#d40000" fill-rule="evenodd" stroke="#000" stroke-width=".3804"/><path d="m682.839844 207.941406 1.28125 2.261719-.097656 4.042969-.492188.496094-1.871094-1.578126-.992187-1.382812-.984375-1.671875v-1.480469l.984375-.789062 1.285156-.296875zm0 0" fill="#5656a6" fill-rule="evenodd" stroke="#000" stroke-width=".3804"/><path d="m686.78125 214.445312 2.863281-5.914062v-1.578125l-1.089843-1.582031h-1.476563l-1.574219 1.480468v5.222657zm0 0" fill="#5656a6" fill-rule="evenodd" stroke="#000" stroke-width=".3804"/><path d="m691.714844 214.445312 1.578125-.691406 3.839843-3.644531.59375-1.085937-.300781-.886719-1.078125-.792969-.6875-.195312-1.582031.6875-.882813.890624-1.777343 3.152344zm0 0" fill="#5656a6" fill-rule="evenodd" stroke="#000" stroke-width=".3804"/><path d="m698.515625 217.007812-1.382813.984376-1.578124-.101563-2.855469-1.96875.097656-.394531 1.773437-.296875 1.578126-.6875 1.578124.097656.886719.785156.296875.886719zm0 0" fill="#5656a6" fill-rule="evenodd" stroke="#000" stroke-width=".3804"/><path d="m687.964844 217.695312 2.660156 2.464844 1.972656 1.28125 1.578125.589844 1.972657 1.089844h4.140624l3.746094-.394532 1.875-.695312 3.644532-.097656 2.960937-1.382813 2.167969-1.472656 2.167968-.097656 1.1875-1.1875h1.570313l3.15625-2.363281 4.4375-1.972657 4.632813-1.675781 5.027343-.984375 2.066407.097656.792968.589844.984375 1.675781.390625.789063-.488281 1.675781-1.875 1.082031-.394531-1.179687 1.1875-.984375-.296875-.59375-1.875-.296875h-1.28125l-1.183594 1.1875-.199219 2.660156 1.578125 1.378906 1.679688 1.082032 1.472656.101562 1.78125-1.082031 2.367187-2.070313 1.375-2.367187-.394531-3.449219-.785156-2.171875-2.371094-1.773437-2.953125-1.1875-5.125.105468-3.058594.785156-1.183593.394532-3.253907 2.167968-1.480468.097657-3.25 2.167969-1.285156.492187-1.476563.59375-2.269531.984375-4.335938 1.972656-2.957031 1.773438-1.480469.199218-3.449218 2.167969-4.929688.394531-.882812-.492187-2.269532-.296875-1.480468-.589844-1.476563-.792968-2.070313-2.460938-.59375-.394531h-1.871093l-.589844.789062zm0 0" fill="#dfda4d" fill-rule="evenodd" stroke="#000" stroke-width=".3804"/><path d="m717.539062 203.597656-1.085937 4.828125 1.285156 1.382813-.101562 1.578125.6875.6875 1.285156-.6875 1.28125-.890625 1.28125-.492188 1.480469-.785156.195312-.890625 1.578125-.785156 1.675781-.496094 2.164063-.59375 2.175781-.289063-1.578125-1.085937-4.535156-2.960937-1.875-.195313-.6875.59375-2.664063.097656-1.480468.394531zm0 0" fill="#d40000" fill-rule="evenodd"/><path d="m739.328125 198.769531-3.15625-.097656h-2.070313l-1.675781-.6875-1.378906-1.382813-.195313-1.285156-.988281-1.578125-.984375-.984375h-1.480468l-2.066407 1.382813-.886719 1.773437-.199218 2.859375 1.183594 2.464844 3.941406 2.957031 2.269531.492188 1.578125-.691406 3.542969-1.574219 2.273437-1.480469.789063-1.277344zm0 0" fill="#d40000" fill-rule="evenodd" stroke="#000" stroke-width=".3804"/><path d="m731.738281 194.234375 1.773438-1.871094.097656-4.242187-.496094-.394532.496094-1.675781.195313-1.378906h-.691407l-3.847656 3.648437-2.660156.390626-1.375.792968-.097657.984375 1.082032.6875 1.972656-.195312 1.078125.097656zm0 0" fill="#d40000" fill-rule="evenodd" stroke="#000" stroke-width=".3804"/><path d="m733.316406 205.371094 3.445313-.292969 2.757812.195313 1.382813.394531 2.761718 1.480469 1.578126.792968 3.054687-.203125-1.183594-1.476562-1.179687-1.476563-.792969-1.480468-.195313-1.476563-.6875.191406-.792968-.191406-.984375-1.28125-.589844-1.875-.398437-2.464844-.785157-.097656-.589843 1.179687.589843.59375.589844 1.179688-.984375 1.285156-.097656.984375-1.285156.988281-1.769532.785157-1.675781.6875-1.875.695312zm0 0" fill="#d40000" fill-rule="evenodd" stroke="#000" stroke-width=".3804"/><path d="m745.339844 209.414062.59375 4.933594-1.085938 3.054688 2.265625.097656h2.660157l2.371093-.492188 2.265625-.203124 2.070313.105468 1.679687.195313 2.066406-.785157.101563-1.578124-.496094-1.382813.984375-3.058594-.394531-.6875zm0 0" fill="#d9d24d" fill-rule="evenodd" stroke="#000" stroke-width=".3804"/><path d="m758.550781 200.839844.097657 4.238281 1.480468 1.28125h1.378906l1.085938-.59375.292969-.882813-.984375-.589843-.394532-1.1875-2.070312-2.265625zm0 0" fill="#d40000" fill-rule="evenodd" stroke="#000" stroke-width=".3804"/><path d="m774.617188 204.191406 4.242187 2.859375 1.277344.394531 1.1875-.394531 1.96875-1.578125.984375-2.171875.101562-1.570312-.984375-.105469-1.578125 1.089844-2.269531.195312-1.773437.292969h-1.382813l-1.378906.296875zm0 0" fill="#d40000" fill-rule="evenodd" stroke="#000" stroke-width=".3804"/><path d="m786.839844 200.9375-.785156 1.285156-.789063 1.96875-1.773437 1.875.097656 1.378906h-.792969l.101563 1.085938 1.378906 1.082031 3.847656.589844 3.054688-3.941406v-1.085938l-1.671876-1.972656-1.1875-.292969zm0 0" fill="#d40000" fill-rule="evenodd" stroke="#000" stroke-width=".3804"/><path d="m804.785156 211.976562 1.972656.988282v.691406l-.792968 1.085938-.492188 2.0625-.195312 1.285156-2.367188.097656-2.460937-.882812-1.382813-.886719h-1.28125l-.691406-.59375-1.179688-.789063-1.480468-.988281-1.578125-2.0625-1.082031-1.382813v-.988281l1.480468-1.875 1.476563-.488281h6.605469l3.054687-1.085938 2.464844-2.074218 2.960937-.589844.6875-.785156 1.972656-.394532 4.925782-2.5625 2.765625.492188 2.757812-.097656 2.363281.6875.886719.785156-.492187.296875-1.28125-.09375-1.476563.785156-.199219 2.664063 1.183594 2.167968-.296875.59375-1.480469-.105468-.980468-.492188-.492188-.882812v-.890625l-.988281-1.378907-.789063-.296874h-1.773437l-.589844 3.746093h-.890625l-1.675781-1.476562-2.464844-.300781-1.671875 1.480468.589844 1.972656 2.464844 2.367188h1.277344l1.1875 1.378906-.101563 1.082032-1.773437-.394532-1.777344-.390625-1.472656-.691406-1.1875.199219-1.378907-.792969-1.378906-.589844-.890625-.394531zm0 0" fill="#d40000" fill-rule="evenodd" stroke="#000" stroke-width=".3804"/><path d="m768.703125 214.839844-.59375.394531-.882813-.394531-.492187-1.382813.980469-.886719 2.167968.101563 1.972657 1.773437v2.5625l-2.660157 1.285157-2.761718.6875-3.054688-.890625-1.875-2.5625-.492187-1.773438.394531-3.054687.492188-1.972657 2.667968-1.972656 2.855469-.890625 3.347656-.492187 3.847657.988281 7.789062 2.957031 5.226562 2.363282 5.816407 3.0625 3.449219 1.578124 4.53125 2.164063 2.765624.984375 3.152344-.390625 1.378906.097656 2.761719-.890625 1.871094-.195312 4.140625-4.832032 1.675781-.988281-.195312 2.167969-2.757813 3.058594-2.371094 2.664062-.980468.097656-1.285156 1.085938-2.464844-.105469-5.71875.300781-2.757813-.886718-4.335937-.886719-5.128906-2.269531-4.039063-2.070313-1.972656-.292969-3.058594-1.578124-1.871094-.195313-1.082031-.789063-3.355469-.988281-2.761719-.984375-2.65625-.300781-2.078124-.292969-.980469.59375-.988281 1.378906-.492188 1.871094.691406 2.269532 1.183594.195312 1.085938-.488281.390624-.789063zm0 0" fill="#d9d34a" fill-rule="evenodd" stroke="#000" stroke-width=".3804"/><path d="m808.335938 214.144531h2.265624l1.277344.6875h2.566406v.992188l-1.480468 1.078125-2.855469.792968-1.285156.589844-.984375-.097656-.691406-.886719v-1.382812l.589843-1.183594zm0 0" fill="#48489c" fill-rule="evenodd" stroke="#000" stroke-width=".3804"/><path d="m824.007812 211.09375s1.578126-.890625 1.871094-1.578125c.296875-.691406.984375-2.171875.984375-2.171875l.59375-2.5625-.785156-2.167969-1.480469-.390625-1.28125.097656-.691406.6875-.195312 1.875.6875 1.578126.59375.882812-.101563 1.679688zm0 0" fill="#48489c" fill-rule="evenodd" stroke="#000" stroke-width=".3804"/><path d="m818.089844 211.878906 1.578125-.789062.984375-1.871094.105468-2.070312-.792968-1.578126-1.082032-1.179687h-1.480468l-.394532 2.757813 1.082032 1.085937zm0 0" fill="#48489c" fill-rule="evenodd" stroke="#000" stroke-width=".3804"/><path d="m816.222656 213.652344.589844-.6875.296875-1.480469-.59375-2.167969-.890625-.988281-1.078125-.984375-1.1875-.785156h-1.675781l-1.082032.886718.292969 1.773438 1.972657 1.480469 1.578124.292969zm0 0" fill="#48489c" fill-rule="evenodd" stroke="#000" stroke-width=".3804"/><path d="m724.074219 229.042969-2.871094.347656-2.027344.25-1.339843.789063-1.089844-.644532-.640625.394532-2.429688-1.285157-2.820312 1.535157-1.339844 1.1875h-.839844l-.644531-.839844-1.289062.894531-.742188-.746094-.789062-.441406-5.347657 3.855469-1.933593-.636719-.839844.742187-.347656.296876-.195313.839843-.792969-2.082031-.695312.492188-1.1875-.394532-.839844 1.1875-.199219 3.121094.492188 3.910156 1.289062 4.304688 1.1875 1.785156.992188.199219.296875-1.242188.546875 2.332031.789062.789063.25 4.210937 3.21875 7.226563.296875 3.714844.148438 6.4375-1.1875 1.433593-1.535156 2.328126.050781.695312-1.585938 3.015625.097657 4.605469.351562.394531.097656 4.410156 1.234375.097657.992188 1.089843 2.175781-.195312v-1.339844l.296875 1.535156 1.734375 2.277344 1.484375 1.1875 1.039063.050781.542968-.792968-.046875-4.949219.34375 5.441406 1.089844-.046875 1.394531-1.234375 1.828125-.25.589844.050781s.5.296875.75.738282c.242187.445312 1.136719.847656 1.136719.847656l.644531 1.335937.789063.292969.398437-.839844-.542969-10.546875-.546875-8.613281-.597656-10.941406-.59375-13.964844-.097656-4.453125-.691407-.59375.050782-1.4375 1.679687-.492187.992188-.296876-.445313-1.339843-.496094-4.453125v-1.683594l.59375-.492188 1.191407-.050781.839843.988281 1.636719 6.78125.839844.296876 2.96875-.046876 6.738281 10.640626 2.375 3.566406 3.265625 6.089844 4.261719 6.09375 1.332031 1.78125.894531.097656.296876-6.484375 1.878906-1.636719-1.578125-11.183594-1.289063-.25-1.785156-1.636718-.984375.152343-.992187 1.628907-1.238282-1.386719-.148437-1.582031-1.144531-.742188h-.839844l-1.085938-1.484375-.589844-.152344-.695312.648438-.152344-5.050781-1.085937-2.375-.203125-1.4375-2.023438-2.871094-2.132812-.492188s-.941406-2.132812-.941406-2.429687-.394532-1.335938-.394532-1.335938zm0 0" fill="#e4cb5e" fill-rule="evenodd" stroke="#000" stroke-width=".1902"/><path d="m725.855469 296.773438-1.4375-1.832032-.492188-1.929687-.199219-4.160157-.445312-3.964843-.792969-6.136719-1.285156-7.574219-1.035156-6.136719-.402344-3.617187-.839844-4.257813-.347656-2.921874-.34375-2.425782-.300781-3.464844.992187 3.117188 1.636719 7.28125 1.824219 5.046875.75 3.417969v1.929687l1.28125 2.773438.847656 3.515625 1.730469 7.425781 1.832031 6.089844.9375 4.40625.152344 1.683593-1.933594.644532-.9375.445312zm0 0" fill="#dcc56a" fill-rule="evenodd" stroke="#000" stroke-width=".3804"/><path d="m735.511719 295.289062 1.039062-5 1.238281-3.8125.546876-2.574218.394531-2.082032-.101563-3.113281-.839844-1.835937-3.863281-7.773438-2.324219-4.703125-.941406-2.425781-1.734375-3.019531-2.324219-4.851563-2.082031-3.613281-1.730469-2.972656-1.636718-2.179688-.492188.449219 1.484375 5.542969 1.234375 4.75 1.191406 5.25 1.976563 6.882812 1.144531 4.75 1.136719 2.921875 1.089844 4.109375 3.015625 9.808594.597656 2.570313 1.488281 2.972656zm0 0" fill="#e2cc75" fill-rule="evenodd" stroke="#000" stroke-width=".3804"/><path d="m710.46875 323.492188-1.261719 1.257812-1.976562-1.257812.898437-2.335938 3.238282-.542969 1.796874 2.695313-.71875 2.699218-2.519531 2.511719-3.054687.902344-3.050782.359375-3.59375-.179688-4.855468-1.082031-3.773438-4.492187-2.875-5.75-2.15625-4.851563-2.519531-9.886719-1.257813-4.128906-.539062-3.773437-2.695312-5.214844 1.074218-.902344 9.347656-8.265625h.539063l1.980469-1.796875 3.414062-6.46875.359375-.359375 1.078125-3.953125-.179687-6.828125-.898438-3.234375-2.160156-3.597656s-.714844-1.253906 0-1.074219c.71875.179688-1.976563-3.058594-1.976563-3.058594l-3.230468-3.417968v-.71875l-2.335938-2.332032-1.621094-.898437h-1.253906l-.542968-.722656-2.339844-.71875-1.074219 1.078125-.71875 2.339844v.898437l1.613281.71875.542969-.363281-.542969-.894532.179688-1.082031 1.261718-.898437 1.441407 1.082031-.183594 2.691406-1.078125 1.261719-2.695312.179688-2.15625-1.078126-.898438-1.796874-.71875-2.695313.71875-1.617187 1.078125-.898438 1.796875.359375 2.875-.71875.898438-.363281 2.339843.363281 1.617188 1.617187 1.796875 1.078126 4.492187 5.03125 1.257813 1.257812 2.335937 3.417969 2.875 6.46875.71875 4.492187-.355469 4.492188-2.339843 6.46875-2.695313 4.132812-3.769531 4.675782-6.46875 5.390624-.902344.183594-1.4375 1.792969 2.519531 5.394531 3.949219 16.53125 3.238281 6.832032 4.671876 4.851562 3.59375 1.980469 4.671874.535156 4.132813-1.078125 1.800781-1.617188zm0 0" fill="#ddd457" fill-rule="evenodd" stroke="#000" stroke-width=".3804"/><path d="m718.015625 327.265625-.535156.898437.71875 1.441407 1.796875.355469 1.257812-1.617188v-1.800781l-1.078125-1.972657-1.441406-.363281-1.617187.183594-2.332032 1.617187-1.261718 1.4375-.722657 3.414063 1.804688 5.570313 2.875 3.773437 7.1875 4.675781 7.730469 2.875 4.847656.71875 3.597656 3.59375 1.796875 4.3125-1.617187 2.699219-2.15625.179687v-1.078124l.898437-.183594 1.078125-1.078125-.542969-1.078125-2.152343-1.261719-1.796876 1.441406-.179687 3.238281 1.617187 1.617188 2.332032.535156 1.796875-.714844 1.796875-1.980468.1875-2.335938-.722656-3.414062-3.058594-4.3125-3.230469-1.617188-8.085937-2.878906-5.214844-1.972656-3.773438-2.699219-3.414062-3.59375-1.980469-5.210937.902344-3.414063 1.976562-1.441406 1.078125.363281zm0 0" fill="#dbd45d" fill-rule="evenodd" stroke="#000" stroke-width=".3804"/><path d="m783.257812 327.445312 1.433594.898438.179688 1.4375-1.613282.714844-2.160156-.355469v-2.152344l1.261719-2.699219 3.59375-.179687 1.617187 1.976563 1.078126 3.773437-1.078126 3.957031-4.132812 3.410156-5.753906 3.957032-6.289063 2.695312-9.34375 4.492188-2.695312 1.976562-2.339844 4.3125 1.441406 2.519532 1.796875.355468v-.898437l-.542968-.71875.363281-1.976563 1.078125-1.078125 2.152344 1.257813.542968 2.695312-1.976562 1.980469-2.160156.359375-3.414063-1.621094-1.078125-1.792968-.179688-2.519532 1.441407-2.335937 2.871093-2.871094 4.496094-2.523437 6.46875-2.695313 9.523438-4.671875 6.648437-7.1875v-2.875l-1.433593-1.796875zm0 0" fill="#e5dc5e" fill-rule="evenodd" stroke="#000" stroke-width=".3804"/><path d="m791.523438 322.234375v1.613281h1.253906l1.261718-.175781.539063-2.15625-1.078125-1.4375-1.441406-.179687-1.792969.355468-1.980469 1.441406-.175781 2.875.894531 1.972657 1.796875 2.695312 3.238281 1.621094 3.230469.898437 4.855469-.363281 5.570312-2.691406 5.214844-3.777344 2.152344-5.210937 2.695312-9.523438 3.414063-12.042968 2.15625-4.492188 1.800781-1.613281-.539062-.71875h-1.617188l-4.136718-3.058594-4.308594-2.695313-5.574219-6.648437-2.875-5.570313-.898437-7.90625 1.617187-7.730468 3.414063-5.753906 5.570312-4.671876 5.035156-3.59375 5.035156-.179687.714844 1.976563-.714844 1.621093-1.082031-.902343-1.617187-.175782-.722656 2.695313 1.800781.898437 3.234375-.363281.898437-2.152344-.359375-3.054687-2.335937-2.160156-4.132813.363281-3.058594.355469-3.773437 2.15625-3.949219 4.132812-2.699218 3.953125-3.414063 5.574219-1.082031 5.03125.179687 8.804687 4.5 9.527344 3.949219 5.035156 7.730469 5.210938 1.257812.898437-2.339843 5.207032-3.410157 10.96875-2.160156 8.804687-1.796875 3.773437-5.75 5.027344-6.472656 2.519532-5.570313-.179688-2.695312-1.976562-.714844-1.796876-.183594-2.695312zm0 0" fill="#d7d643" fill-rule="evenodd" stroke="#000" stroke-width=".3804"/><path d="m764.109375 258.242188-.382813-.761719 1.273438-1.398438 2.414062-.503906 1.902344-1.527344 2.414063-1.523437 2.535156-.632813 3.308594 2.792969-1.144531.890625-1.144532-.128906-2.160156 1.398437-1.648438 1.011719-1.398437-.25-1.269531-.382813-.761719.632813h-1.144531l-.890625.507813zm0 0" fill="#ccc" fill-rule="evenodd" stroke="#000" stroke-width=".3804"/><path d="m823.421875 208.964844v1.777344l-1.777344.253906-.125-2.414063zm0 0" fill="#48489c" fill-rule="evenodd" stroke="#000" stroke-width=".3804"/><path d="m779.605469 254.6875 1.269531-.507812h1.902344l1.019531 2.792968v.886719l1.652344-.503906h3.046875l2.15625 1.011719 1.90625 1.910156 2.03125 1.144531h1.648437v-.890625h1.652344l.386719.507812 1.769531.253907 1.277344-.378907.378906 1.140626-.253906 1.523437-.378907 1.144531.507813 4.824219 2.285156 8.253906 4.316407 6.988281-1.652344-.761718-3.679688-.511719-1.144531.511719-1.523437-.125-1.777344 1.648437-.890625.121094-.765625.640625-1.394532-1.902344-5.332031-7.113281-1.398437-1.527344-3.042969-6.597656-4.195313-9.019531-.253906-3.6875-1.015625-1.015625-.507812-.125zm0 0" fill="#ccc" fill-rule="evenodd" stroke="#000" stroke-width=".3804"/><path d="m778.082031 303.835938 2.15625 1.019531-.125-1.019531 1.523438 1.019531s1.394531.257812 2.15625.125c.761719-.125 2.417969-1.777344 2.417969-1.777344l.507812-3.429687 3.300781-5.714844 2.410157-1.398438.769531-.125 2.28125-2.539062 4.320312-2.285156 2.03125-.761719 3.300781.632812 2.410157 1.144531.507812 2.03125.386719 5.464844 1.523438 1.140625 1.269531-.632812 1.140625-1.398438 2.796875-1.019531 2.03125.253906-.128907 2.542969-.890624 4.695313-1.394532 4.953124-2.285156 7.875-2.160156 5.59375-5.335938 4.0625-4.1875 2.664063h-6.734375l-2.03125-1.90625 2.542969-.632813.890625-1.523437.253906-2.664063-2.285156-1.652343-2.285156.128906-3.054688 1.777344-1.140625 1.515625-.636718 1.78125h-1.140626l-2.542968-.125-1.90625 1.269531-1.394532 1.777344-.382812 2.664062.640625 1.910157 1.390625.890624 2.546875-.132812.632813-.503906h.507812l-2.285156 2.535156-2.917969 3.050781-3.816406 2.539063-2.539063.761718-4.1875 1.523438-3.050781 1.398438-3.429687.125-3.554688 3.175781-2.417969 1.910156-1.648437 2.28125-.761719 3.9375v2.917969l1.902344 2.542968-.253907.765626-1.140624-.132813-.636719-.503906h-2.792969l-.765625-1.148438-1.398437.261719-2.03125.628906-.886719.894532-1.523438-.765626.890625-2.28125.125-2.160156-.636718-2.925781-1.902344-3.8125-1.648438-1.773437-2.921875-1.78125-5.589843-1.648438-6.09375-2.28125-4.445313-2.164062-1.65625-2.539063-.632813-3.171875 1.015626 1.015625-.886719-3.5625 1.265625 1.652344.894531.128906 2.539063 3.175781 2.03125.382813.507812.253906h.636719l.125-.253906 1.90625 1.015625 2.160156.632812h3.050781l-2.667968-.632812-3.304688-1.523438-3.429688-1.90625-1.902343-2.539062-.257813-1.140625-1.019531-.128907.132813-.765624.761718-.886719 1.015625.125.253907.761719 1.015624-.382813 1.652344 1.273437 2.792969.253907 2.03125.253906-1.773437-1.019531-2.796876-1.519532-2.792968-2.542968-.890625-.125-2.796875-4.316406-1.523438-4.195313-1.269531-4.441406v-5.210938l1.652344-4.191406 2.410156-3.808594 1.398437-1.265625 1.144532.378906 2.921875-2.15625 2.03125-.636718 2.664062.121094 2.035157.636718 2.921874.890625 1.394532 1.777344 1.398437.128906.378907 1.015625-.757813.253906 1.011719 1.394532-.378906.890625.890624 1.140625-.128906 1.652344-1.648437 1.910156 1.140625 1.898437-.128906.640625 1.398437 1.523438 1.269531 1.902344 2.160156.382812 5.082032.125 3.679687-.378906 2.160157-.128906-.890626-1.015626 1.523438-.386718 1.90625-.378906 3.425781-2.660157s2.671875-4.574219 3.179688-5.210937c.507812-.636719 1.523437-2.792969 1.523437-2.792969l4.316406-4.449219 1.652344-.632812 3.8125-1.90625h3.933594l1.015625 1.148437 1.652344.253907 1.527343 1.902343.757813 5.207031-2.414063 1.652344h-2.03125l-1.394531-.890625-.382812.761719zm0 0" fill="#ccc" fill-rule="evenodd" stroke="#000" stroke-width=".3804"/><path d="m716.449219 322.558594s.296875-.601563.601562-.601563c.296875 0 .972657-.070312.972657-.070312l.074218-3.882813s-.523437-.300781-.601562-.597656c-.074219-.296875-.074219-1.71875-.074219-1.71875l-.523437-.519531-.070313-15.683594-1.496094-4.035156-1.269531-2.164063-1.046875-.820312-1.644531-.148438-1.863282 1.195313-1.117187.59375-2.394531-.515625-.894532-.601563-1.421874-.074219-1.265626-2.3125-2.613281-.820312-1.195312-.378906-3.585938-.296875-1.042969-.070313-1.34375.890625-1.574218 1.871094-1.117188 2.164063-.144531 3.511718.816406 1.117188v1.644531l.378907.667969v1.421875l-1.195313-1.421875-1.199219-2.910156-.59375-1.789063-.523437.746094.148437 2.386719.070313 1.941406.675781 1.792968.671875 2.539063 1.121094 3.210937.898437 3.4375.820313 3.285157 1.566406 2.980469 1.34375 1.871093 3.0625 3.0625 1.941406 1.34375 2.988281 1.042969 3.359376-.074219 1.042968-.746093-1.347656-1.269532s-.21875-.820312-.21875-1.117187c0-.304688.445312-1.796875.445312-1.796875l1.417969-1.492188 4.109375-.742187 1.417969 1.042969 1.867187 2.089843zm0 0" fill="#ccc" fill-rule="evenodd" stroke="#000" stroke-width=".3804"/><path d="m811.363281 288.054688v2.242187l.523438.304687.148437.742188 2.3125.375-.226562-.746094-1.492188-1.421875-.371094-1.042969zm0 0" fill="#fffcfc" fill-rule="evenodd" stroke="#000" stroke-width=".3804"/><path d="m811.433594 256.023438-1.566406 1.421874-1.042969 2.011719-.371094 2.089844-.675781 2.617187-.296875 2.015626.296875 4.40625.152344 2.386718 1.417968 2.242188.746094.226562.890625 1.789063 1.273437-3.507813.597657.449219.371093 2.609375 2.097657 1.792969s-1.945313-.964844-2.394531-.964844c-.449219 0-.523438.515625-.523438.515625l.523438 1.121094 1.195312 1.195312 2.089844.820313 3.882812.074219-.894531.894531h-2.6875l-.675781.523437.972656 1.421875 1.195312 1.863281 2.167969 1.046876 2.238281-.597657h.746094l-.371094.894531 1.117188.820313.972656.898437.890625.972657.75.144531v1.117188l-1.34375 3.367187-.304687 1.566406-.738282 1.269531-.453124 1.9375-1.339844 2.316407-.152344.824219h.671875l.972656-1.273438 1.417969-.597656 1.71875-2.238282s.972656.300782 1.195312-.148437c.226563-.449219 1.269532-3.585937 1.269532-3.585937l1.046875-.222657.519531-3.285156.898438 3.0625.746093 3.878906-.300781 3.285157-1.9375 3.585937-.523438.601563.296876 1.191406h1.417968l1.644532-1.71875 2.835937-3.808594 1.125-3.808594.59375-7.394531 1.269531 3.4375 1.199219 3.359375.59375 2.613281-.894531 3.4375-1.121094 4.03125 1.492188-1.046875 3.140624-3.511718 2.460938-3.65625.671875-2.6875.597656-5.152344-.371093-4.03125.148437-1.492188.519531-.824218-.074218-2.6875-.519532-1.121094-1.792968 2.390625-.746094.152343-2.089844-1.421874-.523438-.148438-1.195312-1.71875-.820312-2.761719.074218-3.136719h-.445312s.222656-2.617187.445312-3.285156c.222656-.675781.519532-1.945312.519532-1.945312l-.371094-2.761719-1.417969-2.613281-1.714844-1.492188-2.765625-.820312-3.210937-.898438-1.867188-1.488281-3.507812-.375-1.792969.222656-3.359375-1.566406-2.167969-.820313-2.761718-.074218-2.613282-.296875zm0 0" fill="#d40000" fill-rule="evenodd" stroke="#000" stroke-width=".3804"/><path d="m691.289062 256.1875-6.886718-.136719-1.101563-.554687-1.652343 1.378906h-3.167969l-3.441407 1.929688-2.34375 1.792968-1.242187-.140625-4.816406 4.40625.6875 3.585938.550781.960937.273438 3.441406.136718 4.960938-1.097656.824219-1.65625 4.136719-.960938 3.578124-.832031 7.027344.691407 5.230469-.964844 2.757813-1.925782 3.027343-.417968 1.519531 1.65625-1.105468-.273438-.550782.824219 1.238282 2.0625-3.71875.832031 1.375.824219.140625v-4.683594l-.964844-7.300781 2.339844 7.578125.554687 2.753906.414063-.140625.273437-6.199219 1.511719 3.445313.144531 3.03125.6875.550781.414063-.828125v-4.542969l-2.480469-7.296875-1.238281-6.753906 3.304687 8.8125 1.925782 1.792969 1.789062 4.824219 1.519532 2.753906.273437 1.785156 1.101563-.6875.417968-.6875-.96875-.691406.6875-.542969-.136718-2.480469-.824219-5.78125h-.824219l-2.894531-6.066406 2.617187 3.722656h1.101563l.136719-.96875-1.238282-2.476562-.273437-2.894532 2.476562 3.582032.828125-.414063-1.378906-3.992187-.273438-4.546875.824219 1.929687-.140625 2.199219 1.792969 2.210937 1.792969.960938 1.375-1.652344-.964844-.6875-.410156-1.929687-1.382813-1.652344v-2.203125l1.933594 3.441406 1.785156 1.238282 1.792969.417968 1.792969-1.242187 3.027343-3.441407-.410156-.414062-3.167968.136719-2.480469-1.652344-2.203125-2.0625v-1.792969l.414062.273438.960938 1.925781 1.792968 1.792969 2.066407.273437 2.617187.144531 2.890625-2.617187 1.519531-4.964844.410157-2.753906-.554688-3.441406-1.789062-3.992188-1.097657-1.792969zm0 0" fill="#d40000" fill-rule="evenodd" stroke="#000" stroke-width=".3804"/><path d="m792.671875 332.496094-7.304687 7.574218-.964844-.273437-2.613282 2.207031-.140624 2.335938 2.484374 1.933594.960938 1.789062.6875-.136719 2.480469 3.027344 2.34375 3.304687.960937.550782.691406 1.519531-1.242187 1.785156.414063 1.105469 1.929687-.273438 2.207031.136719 1.371094.824219.550781 2.480469v.964843l1.519531-.828124 1.242188-1.789063.136719-4.40625-.273438-1.242187.410157-3.304688.410156 4.40625.964844 1.382812.6875-.558593.828124 2.894531 1.789063 1.792969.96875 1.652343.136719-1.101562-.136719-2.207031.960937-2.472657 1.105469-2.898437 1.101563-.6875.960937.414063 1.378907 1.378906-.136719.550781 1.242187-.140625-.28125-3.304688-1.785156-2.476562-2.761719-1.792969-1.375-1.378906-1.234375-2.199219 1.925782 1.097656 2.066406 1.933594 1.925781.960938 1.378906.273437 2.34375 4.546875 1.515625 2.207032.273438-3.03125 1.105468-3.445313 1.101563-1.511719 1.375-.140625 1.792969.550781-.414063-2.066406-1.378906-2.617187-2.75-2.480469-2.898437-2.203125-2.476563-1.101563-2.207031 1.929688-.6875.273438-1.238282 1.101562-.960937-.410156-3.171875-3.03125-.828125-.550782-1.378906-3.304687-2.0625-.96875-3.171875.277344zm0 0" fill="#d40000" fill-rule="evenodd" stroke="#000" stroke-width=".3804"/><path d="m809.75 357.011719-1.515625 2.070312v3.441407l.6875 1.652343-.6875 6.472657 3.445313-4.820313 1.234374-2.476563-.136718-3.308593-.960938-1.511719-1.105468-.96875zm0 0" fill="#4f4d9f" fill-rule="evenodd" stroke="#000" stroke-width=".3804"/><path d="m821.179688 349.855469-1.101563.273437-1.242187 2.613282-.269532 3.445312.6875 1.785156v2.484375l.277344 1.515625 1.234375-1.792968 1.792969-3.027344.273437-2.207032v-3.027343l-.824219-1.375zm0 0" fill="#4f4d9f" fill-rule="evenodd" stroke="#000" stroke-width=".3804"/><path d="m791.152344 367.757812 1.792968-1.238281 1.375-.96875 1.792969-2.339843-.277343-1.789063-1.101563-.824219-1.375-.554687-1.242187.140625-1.375 1.925781.136718 3.855469zm0 0" fill="#4f4d9f" fill-rule="evenodd" stroke="#000" stroke-width=".3804"/><path d="m707.269531 355.640625 1.378907.546875v3.71875l-2.34375 2.617188-2.613282 1.929687.136719-2.480469-.6875-.820312v-2.621094l.550781-.691406v-1.238282l2.339844-1.242187zm0 0" fill="#4748a5" fill-rule="evenodd" stroke="#000" stroke-width=".3804"/><path d="m689.359375 357.839844 1.929687-.136719 2.066407 1.238281.824219 2.34375-1.234376 1.101563-.6875 1.097656-.417968 1.792969.277344 2.894531.140624 2.621094-2.34375-2.898438-1.925781-3.027343-.140625-3.03125.6875-2.617188zm0 0" fill="#4748a5" fill-rule="evenodd" stroke="#000" stroke-width=".3804"/><path d="m682.75 354.398438-.550781 1.925781-.691407.414062-.824218 1.101563v4.132812l-1.378906-.824218-1.511719-1.929688-.824219-2.066406.273438-5.234375.6875-2.203125 1.65625-.550782 1.648437.550782 1.378906 3.167968zm0 0" fill="#4748a5" fill-rule="evenodd" stroke="#000" stroke-width=".3804"/><path d="m682.890625 341.039062-.824219 2.0625-2.207031 1.65625c-.339844-2.203124.792969-3.355468 3.03125-3.71875zm0 0" fill="#4748a5" fill-rule="evenodd" stroke="#000" stroke-width=".3804"/><path d="m709.886719 330.707031.964843 1.652344.828126 2.617187 1.371093 1.515626-.136719.828124 1.929688 1.648438 1.929688 3.027344 3.167968 2.617187-2.34375 2.070313-5.507812 4.132812-1.792969.550782-2.339844-1.382813.277344 3.3125.964844 1.511719-2.480469-.550782-2.894531.273438-1.789063 1.519531-.414062 1.511719-.6875-1.097656-.96875-1.519532-.273438-.273437-.550781.410156.414063.277344.136718 2.753906-.6875.554688-.136718.824219-3.167969 2.066406-.828125-2.066406-1.101563-2.34375-1.929687-.960938-2.066406.273438-2.34375 1.375.691406-1.925782 1.375-2.203125 2.617187-2.203125 2.617188-1.65625 2.066406-.824218.550781-.273438-.6875-.6875-3.859375 1.097656-2.753906 1.792969-2.886719 2.0625-2.207031 3.171875-1.101563.824219v-2.339844l-1.238281-3.167969-.414062-2.070312-1.242188-1.511719h-1.511719l-2.066406.414063 1.511719-2.617188 3.03125-1.652344 1.378906-2.34375 2.480469-2.0625 2.066406-.417968 3.027344.417968 1.511719.824219 2.898437.136719 1.789063-.136719 2.203125-1.105469 1.792968-3.304687 2.476563-3.578125 2.894531-1.519532zm0 0" fill="#d40000" fill-rule="evenodd" stroke="#000" stroke-width=".3804"/><path d="m776.828125 292.964844-3.992187 1.101562-2.757813 2.203125-3.578125 3.71875-2.894531 5.238281-3.308594 3.992188-6.058594 2.480469-5.511719.136719-4.269531-1.238282-1.511719-2.34375-.417968-3.027344-.550782-3.722656-1.238281-2.339844-1.929687-2.34375-2.203125-1.511718 2.34375-9.921875.691406-2.203125v-2.890625l.40625-3.859375 2.070313-3.441406 2.066406-1.925782 3.582031-1.65625 6.332031-1.652344 6.335938-2.0625 6.613281-1.515624 7.441406-1.792969 3.167969-.273438-.277344 4.132813.828125 1.511718-.140625 10.742188-.6875 9.507812zm0 0" fill="#784421" fill-rule="evenodd" stroke="#000" stroke-width=".3804"/><path d="m778.34375 292.828125 3.859375.824219 3.027344 1.792968 1.238281 1.789063 1.65625-1.375.683594-2.34375 2.894531-1.652344 4.410156-3.855469-3.722656-5.648437-1.925781-2.753906-2.617188-3.03125-3.171875-5.78125-3.578125-7.859375h-1.925781l-.28125 15.566406.144531 5.648438zm0 0" fill="#784421" fill-rule="evenodd" stroke="#000" stroke-width=".3804"/><path d="m741.703125 222.164062-1.238281 3.71875 4.269531-.6875zm0 0" fill="#76401b" fill-rule="evenodd"/><path d="m739.085938 232.773438.136718 2.890624 11.851563-3.71875v-1.101562zm0 0" fill="#a05a2c" fill-rule="evenodd" stroke="#000" stroke-width=".3804"/><path d="m742.390625 237.175781-.273437 2.753907.828124 6.066406 3.03125 16.664062h1.511719l.140625-2.617187zm0 0" fill="#44b3cc" fill-rule="evenodd" stroke="#000" stroke-width=".3804"/><path d="m750.109375 261.421875-5.515625-24.101563 4.132812 24.515626zm0 0" fill="#50aece" fill-rule="evenodd" stroke="#000" stroke-width=".3804"/><path d="m751.070312 261.148438 1.925782-.691407-7.160156-23.136719zm0 0" fill="#50afce" fill-rule="evenodd" stroke="#000" stroke-width=".3804"/><path d="m747.90625 235.9375 8.398438 24.105469-1.652344.554687zm0 0" fill="#50abce" fill-rule="evenodd" stroke="#000" stroke-width=".3804"/><path d="m757.542969 259.492188-8.125-24.378907 10.332031 24.105469zm0 0" fill="#50b0ce" fill-rule="evenodd" stroke="#000" stroke-width=".3804"/><path d="m760.578125 258.253906-9.644531-23.277344 11.980468 23.554688zm0 0" fill="#50b3ce" fill-rule="evenodd" stroke="#000" stroke-width=".3804"/><path d="m685.078125 215.640625-1.304687.199219-1.597657 1.300781-.695312 1.695313.097656 3.097656 1.097656 1.898437 1.898438 2.003907.898437 1.496093-.496094 2.695313-2.695312 1.703125-2.902344 2.097656-1.097656 1.699219-.398438 1.894531.101563 2 .394531.5 2.203125-.101563 1.296875-.398437 2-.199219 1.898438.296875 2.894531 2.003907 4.101563 3.695312 1.796874 2.101562-1.300781-3.101562-.695312-3.695312-.503907-3.695313.601563-2.199219 1-1.402344 1.097656.601563.898438-.5 1.203125.597656 1-.597656 1.597656.5 1.996094-1 2.996094-2.296875h2.101562l.601562.5 1.195313-.5.699219.996094 2.5-1.898438 1.996094-.996094 2 .796876 2.597656.597656 1.003906-.894532 2.09375-.105468 2.898438-.394532 1.398437.996094 1.402344 3.398438.996093 1.097656 1.503907.296875.792969.402344 1.398437 3.5 1 2.796875.503906 3.394531-.199219.90625.898438-.105469 1.394531 1.398438 1.203125.605468 1 1.097657.296875 1.796875.800781-.097656.699219-.902344 1.398438.300781 1.199219 1.300781 1.195312.097656-2.097656-13.886718-2-1.105469-.097656-3.191406 4.699218-1.699219.097656-1.203125-.699218-1.996094-.898438-1.800781-1.800781.199219 1.402344-4.496094 3.496093 3.597656-1.597656.199219 1.394532 5.5 5.996093-1.003906 1.101563 1.5-.402344 1.300781.503906.898437.296875 1.601563 1.796875 2.292969 4.699219 10.195312 4.496094 9.191406 2.003906-2.09375 2.09375-.5 2.300781-1.601562 1.398438-.503906.996094-1.292969 2.597656-.101563 3.898437 3.496094.597657-.898437 3.699218-.203125 1.199219 2.398437.199219 1 1.5-.597656 4.097656.898437 2.5 2 1.894531.796876.503907 1 1.097656-1.296876.800781.101563 1.300781.296875 4.09375-.296875 2.101563-4.199219s1.898437-3.894531 2.796875-4.898437c.898437-1 4.59375-4.996094 4.59375-4.996094l4.496094-2.996094 3.398437-1.898437 3.199219-.402344 3-.097656-.097656-2.699219-1.203126-2.597656-2.996093-3.898438-.601563-3.09375v-1.90625l2.597656-1.691406 3.101563-2.5.097656-2.597656-.898437-3.199219-1.796875-2.699219-.601563-.5-1-.199219-1.398437.898438-2.796875 3.894531-3.101563 3.101563-3.792969 2.300781-4.398437.5-6.992187-1.101563-4.898438-1.496093-6.097656-2.300781-6.398438-3-3.496094-.703126-5.296874-2.589843-1.996094-.105469-.097656.898438 1.59375 1.597656-.398438 2.800781-1.394531 1.5-2.597657.097656s.296876.203125-1.203124.601563c-1.5.398437-2.796876 0-2.796876 0l-2.496093-1.5-2.402344-.398438h-4.792969l-5.300781.503906-5.996094.496094-2.996093 2.597656-2.597657.402344-2.796875-.699218-2.898437-3.398438.097656-1.898438 2.101563-2.597656-1.101563-.101562-6.59375 2.398437-4.097656 2.296875-2.195313 1.398438-1.605468-.101563-2.097657 1.902344-2.597656.199219-1.5 1.601562-.496094-.203125-4.199219 1.101563-3.796874.699218s-4.796876.695313-5.296876.695313-5.097656-.59375-5.097656-.59375l-3.398437-1.699219-1.59375-1.800781-1.5-1-1.996094-2.097656.09375-1.601563zm0 0" fill="#64b4d1" fill-rule="evenodd" stroke="#000" stroke-width=".3804"/><path d="m705.441406 299.460938.53125 2.671874 1.78125 3.214844 3.386719 2.9375-2.847656-2.050781 2.136719 2.851563-3.652344-2.3125 3.558594 2.3125-3.738282-5.347657zm0 0" fill="none" stroke="#000" stroke-width=".3804"/><path d="m701.070312 311.3125-1.335937 1.425781-2.316406-.355469.085937 2.945313 3.207032 4.71875-3.207032-4.449219.089844-3.027344 2.230469.167969zm0 0" fill="#fffcfc" fill-rule="evenodd" stroke="#000" stroke-width=".3804"/><path d="m697.234375 319.515625-.710937-2.050781v-2.3125zm0 0" fill="#fffcfc" fill-rule="evenodd" stroke="#000" stroke-width=".3804"/><path d="m742.246094 312.296875.449218 2.585937 1.777344 3.113282 1.164063 1.519531zm0 0" fill="#666" fill-rule="evenodd" stroke="#000" stroke-width=".3804"/><path d="m748.398438 319.605469-1.695313-.53125-1.511719-1.433594-2.144531-3.828125 2.230469 2.851562zm0 0" fill="#808080" fill-rule="evenodd" stroke="#000" stroke-width=".3804"/><path d="m739.394531 308.105469-1.070312 1.070312-1.78125.449219s-1.78125-.179688-2.140625-.449219c-.355469-.265625-2.3125-1.425781-2.3125-1.425781l2.3125 1.25h4.105468zm0 0" fill="#666" fill-rule="evenodd" stroke="#000" stroke-width=".3804"/><path d="m733.515625 309.175781.269531 7.578125.710938 2.9375 1.066406 2.140625 1.429688 2.230469.351562-.894531 1.519531 1.070312.441407-.445312-1.511719-1.511719-1.519531-2.050781-.890626-2.140625-.980468-3.65625-.355469-3.921875h1.246094l-.355469-.710938zm0 0" fill="#666" fill-rule="evenodd" stroke="#000" stroke-width=".1141"/><path d="m767.203125 321.117188 2.851563-.261719 2.675781-2.234375.441406-1.511719 1.25-.894531-.179687 2.582031.625 1.339844 1.691406.535156 1.070312.984375 1.875.175781 2.667969-1.691406 1.964844-2.050781 1.691406-1.515625 1.246094-.535157.449219-2.492187h.800781l.175781-1.164063-.351562-2.226562-.804688-2.140625-1.070312-1.425781-1.78125-1.605469-.800782.355469 1.960938 1.875 1.605468 2.046875.085938 3.210937-.445312 1.25-2.40625 2.761719-3.121094 3.386719-1.511719.714844-3.210937-.445313-1.15625-1.519531-.265626-1.066406-.359374-1.070313v-1.246094l.445312-.890625-3.296875 3.742188-1.335937.089844zm0 0" fill="#808080" fill-rule="evenodd" stroke="#000" stroke-width=".1141"/><path d="m810.074219 297.769531.710937-.625.800782 1.160157.179687 3.210937.089844.085937v2.136719l-1.246094 2.320313-2.675781 2.851562-3.117188 1.332032-2.855468.359374-1.960938-.441406-.710938-1.160156-.445312-1.160156v-2.671875l.535156-1.070313.175782.535156-.085938 2.941407.980469 1.160156 2.046875.621094 1.875-.621094 2.226562-.625 1.867188-1.066406.09375-.625-.710938-.089844.175782-.269531h1.066406l1.339844-2.675782.445312-2.226562v-1.78125l-.535156-.539062-.265625-.441407zm0 0" fill="#808080" fill-rule="evenodd" stroke="#000" stroke-width=".1902"/><path d="m739.484375 339.035156-4.457031 2.136719-4.101563 1.25-2.222656-.355469 4.363281 1.601563 1.695313-1.335938 2.667969-1.335937zm0 0" fill="#666" fill-rule="evenodd" stroke="#000" stroke-width=".3804"/><path d="m742.957031 348.039062 2.410157.710938 1.15625.445312 2.5.355469-1.875 1.15625 2.40625.539063s-2.3125.269531-2.675782.269531c-.355468 0-1.601562.800781-1.601562.800781s-.265625 1.421875.53125 1.335938c.808594-.09375 1.964844-.269532 2.410156-.269532s1.867188.269532 1.867188.269532l.894531.710937-.53125.804688-3.746094.085937.539063.449219h3.027343l-2.941406 1.957031 3.566406-.085937 2.851563 1.15625v.714843l-2.765625.625-.625-1.070312-3.5625.980469-.714844.886719-1.335937-.886719 1.066406-2.320313-.085938-2.40625-.53125-1.871094-1.25-2.761718zm0 0" fill="#999" fill-rule="evenodd" stroke="#000" stroke-width=".1521"/><path d="m696.320312 235.578125-.566406 4.253906 1.132813 2.976563.144531 4.113281-.144531-4.539063-1.132813-2.265624zm0 0" fill="#fffcfc" fill-rule="evenodd" stroke="#000" stroke-width=".3804"/><path d="m700.429688 238.128906v5.390625l.992187 1.277344-.28125 5.671875.851563 1.699219v9.359375" fill="none" stroke="#000" stroke-width=".3804"/><path d="m706.246094 231.753906-1.136719 2.125.429687 3.824219.28125 2.695313-.429687 4.253906" fill="none" stroke="#000" stroke-width=".3804"/><path d="m709.648438 236.148438-.144532 6.660156.425782 2.128906v3.683594l.144531 5.675781v3.828125l-3.261719-3.976562 3.402344 4.261718.566406 4.109375.851562 1.558594-.566406 2.128906.140625 3.542969v10.070312l-3.261719-7.945312.28125 16.449219.285157-9.496094 1.136719-1.703125 1.839843 4.675781.285157 2.128907-.425782-7.9375zm0 0" fill-rule="evenodd"/><path d="m709.648438 236.148438-.144532 6.660156.425782 2.128906v3.683594l.144531 5.675781v3.828125l-3.261719-3.976562 3.402344 4.261718.566406 4.109375.851562 1.558594-.566406 2.128906.140625 3.542969v10.070312l-3.261719-7.945312.28125 16.449219.285157-9.496094 1.136719-1.703125 1.839843 4.675781.285157 2.128907-.425782-7.9375" fill="none" stroke="#000" stroke-width=".3804"/><path d="m732.050781 242.101562-.140625 6.519532.707032 3.546875.566406 3.828125" fill="none" stroke="#000" stroke-width=".3804"/><path d="m738.148438 251.601562 1.273437 14.179688zm0 0" fill="#e2d67e" fill-rule="evenodd"/><path d="m738.148438 251.601562 1.273437 14.179688" fill="none" stroke="#000" stroke-width=".3804"/><path d="m701.703125 272.730469.289063 8.222656.566406 3.542969.140625 3.828125zm0 0" fill="#ddd690" fill-rule="evenodd"/><path d="m701.703125 272.730469.289063 8.222656.566406 3.542969.140625 3.828125" fill="none" stroke="#000" stroke-width=".3804"/><path d="m744.386719 287.898438v-1.414063l6.238281-1.421875-.992188.707031.140626 4.257813zm0 0" fill="#d38d5f" fill-rule="evenodd"/><path d="m744.386719 287.898438v-1.414063l6.238281-1.421875-.992188.707031.140626 4.257813" fill="none" stroke="#000" stroke-width=".3804"/><path d="m761.402344 284.355469v-1.84375l6.238281-1.132813-1.417969.28125.28125 4.394532zm0 0" fill="#d38d5f" fill-rule="evenodd"/><path d="m761.402344 284.355469v-1.84375l6.238281-1.132813-1.417969.28125.28125 4.394532" fill="none" stroke="#000" stroke-width=".3804"/><path d="m747.929688 298.109375v-1.417969l5.25-.992187-.140626 5.25zm0 0" fill="#d38d5f" fill-rule="evenodd"/><path d="m747.929688 298.109375v-1.417969l5.25-.992187-.140626 5.25" fill="none" stroke="#000" stroke-width=".3804"/><path d="m760.410156 296.121094v-2.261719l5.667969-1 .285156 4.964844zm0 0" fill="#d38d5f" fill-rule="evenodd"/><path d="m760.410156 296.121094v-2.261719l5.667969-1 .285156 4.964844" fill="none" stroke="#000" stroke-width=".3804"/><path d="m742.96875 307.324219 21.976562-4.960938zm0 0" fill="#fffcfc" fill-rule="evenodd"/><path d="m742.96875 307.324219 21.976562-4.960938" fill="none" stroke="#000" stroke-width=".7607"/><path d="m737.578125 293.570312 2.269531.289063 37.4375-8.511719zm0 0" fill="#c87137" fill-rule="evenodd"/><path d="m737.578125 293.570312 2.269531.289063 37.4375-8.511719" fill="none" stroke="#000" stroke-width=".7607"/><path d="m739.707031 283.929688 5.816407-.851563 32.328124-8.507813zm0 0" fill="#c87137" fill-rule="evenodd"/><path d="m739.707031 283.929688 5.816407-.851563 32.328124-8.507813" fill="none" stroke="#000" stroke-width=".7227"/><path d="m741.976562 277.546875v3.546875l-1.273437.285156v-1.703125zm0 0" fill="#d38d5f" fill-rule="evenodd" stroke="#000" stroke-width=".3804"/><path d="m744.957031 276.984375.140625 3.542969h-.996094l-.28125-3.121094zm0 0" fill="#d38d5f" fill-rule="evenodd" stroke="#000" stroke-width=".3804"/><path d="m747.222656 276.273438-.992187.566406v2.832031l1.421875-.28125zm0 0" fill="#d38d5f" fill-rule="evenodd" stroke="#000" stroke-width=".3804"/><path d="m749.917969 275.285156-.992188.847656v2.546876l1.558594-.140626zm0 0" fill="#d38d5f" fill-rule="evenodd" stroke="#000" stroke-width=".3804"/><path d="m753.039062 274.570312-1.421874.566407v2.835937l1.5625-.28125zm0 0" fill="#d38d5f" fill-rule="evenodd" stroke="#000" stroke-width=".3804"/><path d="m756.015625 273.722656-1.28125.140625v3.542969l1.5625-.28125zm0 0" fill="#d38d5f" fill-rule="evenodd" stroke="#000" stroke-width=".3804"/><path d="m759.84375 273.011719-1.421875.566406.148437 2.40625 1.414063-.417969zm0 0" fill="#d38d5f" fill-rule="evenodd" stroke="#000" stroke-width=".3804"/><path d="m763.390625 272.019531-1.421875.710938v2.40625h1.277344zm0 0" fill="#d38d5f" fill-rule="evenodd" stroke="#000" stroke-width=".3804"/><path d="m766.222656 271.167969-1.136718.566406v2.695313h1.421874zm0 0" fill="#d38d5f" fill-rule="evenodd" stroke="#000" stroke-width=".3804"/><path d="m769.339844 270.882812-1.132813.707032v2.132812h1.5625zm0 0" fill="#d38d5f" fill-rule="evenodd" stroke="#000" stroke-width=".3804"/><path d="m772.742188 269.75-1.273438.566406.140625 2.128906 1.277344-.28125zm0 0" fill="#d38d5f" fill-rule="evenodd" stroke="#000" stroke-width=".3804"/><path d="m776.429688 268.902344-1.414063.707031v2.265625l1.703125-.140625zm0 0" fill="#d38d5f" fill-rule="evenodd" stroke="#000" stroke-width=".3804"/><path d="m744.808594 265.496094-.140625 3.117187 2.269531-.5625-.28125-2.976562zm0 0" fill="#5db7d2" fill-rule="evenodd" stroke="#000" stroke-width=".3804"/><path d="m747.789062 264.648438v2.550781h.996094v-2.695313zm0 0" fill="#5db7d2" fill-rule="evenodd" stroke="#000" stroke-width=".3804"/><path d="m750.058594 264.078125v2.835937l1.417968-.425781-.144531-2.554687zm0 0" fill="#5db7d2" fill-rule="evenodd" stroke="#000" stroke-width=".3804"/><path d="m753.039062 263.511719.140626 2.128906h1.273437l.140625-2.554687zm0 0" fill="#5db7d2" fill-rule="evenodd" stroke="#000" stroke-width=".3804"/><path d="m755.875 262.945312v2.269532h1.980469l-.28125-2.554688zm0 0" fill="#5db7d2" fill-rule="evenodd" stroke="#000" stroke-width=".3804"/><path d="m758.988281 262.234375v2.128906l1.707031-.429687-.425781-2.261719zm0 0" fill="#5db7d2" fill-rule="evenodd" stroke="#000" stroke-width=".3804"/><path d="m761.402344 261.527344v2.125l1.273437-.285156-.285156-1.839844zm0 0" fill="#ccc" fill-rule="evenodd" stroke="#000" stroke-width=".3804"/><path d="m763.53125 260.957031v1.703125h.847656v-1.84375zm0 0" fill="#ccc" fill-rule="evenodd" stroke="#000" stroke-width=".3804"/><path d="m765.371094 260.816406.140625 1.5625 1.421875-.285156-.140625-1.84375zm0 0" fill="#ccc" fill-rule="evenodd" stroke="#000" stroke-width=".3804"/><path d="m768.207031 259.683594v2.128906h.851563l.28125-2.128906zm0 0" fill="#ccc" fill-rule="evenodd" stroke="#000" stroke-width=".3804"/><path d="m770.621094 259.257812v1.847657l1.132812.140625-.285156-1.988282zm0 0" fill="#ccc" fill-rule="evenodd" stroke="#000" stroke-width=".3804"/><path d="m772.886719 258.691406v2.125l1.136719.140625v-1.839843zm0 0" fill="#ccc" fill-rule="evenodd" stroke="#000" stroke-width=".3804"/><path d="m775.15625 257.984375-.425781 2.40625h1.277343l-.144531-1.839844zm0 0" fill="#ccc" fill-rule="evenodd" stroke="#000" stroke-width=".3804"/><path d="m776.855469 257.984375v1.980469l1.847656-.847656-.285156-2.128907zm0 0" fill="#ccc" fill-rule="evenodd" stroke="#000" stroke-width=".3804"/><path d="m779.265625 273.296875 5.53125-.992187" fill="none" stroke="#000" stroke-width=".989"/><path d="m779.265625 284.921875 12.195313-3.261719zm0 0" fill="#fffcfc" fill-rule="evenodd"/><g stroke="#000"><path d="m779.265625 284.921875 12.195313-3.261719" fill="none" stroke-width="1.1031"/><path d="m720 297.96875-1.5625 1.558594.140625.566406h1.847656l.566407-1.273438zm0 0" fill="#ddd690" fill-rule="evenodd" stroke-width=".3804"/><path d="m718.152344 295.839844.285156 1.703125 1.273438-.140625.710937-1.28125-.136719-.988282-1.28125.28125zm0 0" fill="#ddd690" fill-rule="evenodd" stroke-width=".3804"/><path d="m721.273438 295.132812.425781 1.132813h2.410156v-.851563l-.988281-.425781zm0 0" fill="#ddd690" fill-rule="evenodd" stroke-width=".3804"/><path d="m720.992188 293.007812.140624 1.273438h1.703126l.851562-1.136719-.992188-.847656zm0 0" fill="#ddd690" fill-rule="evenodd" stroke-width=".3804"/><path d="m717.585938 293.425781-.28125.855469.847656.425781 1.847656-.425781v-.707031zm0 0" fill="#ddd690" fill-rule="evenodd" stroke-width=".3804"/><path d="m717.585938 291.304688v.992187l1.84375.140625.570312-.851562-.710938-.566407zm0 0" fill="#ddd690" fill-rule="evenodd" stroke-width=".3804"/><path d="m721.273438 290.453125-.28125.851563 1.699218.425781.847656-.710938-1.273437-.851562zm0 0" fill="#ddd690" fill-rule="evenodd" stroke-width=".3804"/><path d="m717.730469 288.183594-.285157 1.273437 1.132813.144531.996094-.710937.140625-.992187-1.136719-.140626zm0 0" fill="#ddd690" fill-rule="evenodd" stroke-width=".3804"/><path d="m720.851562 287.617188v1.273437l1.84375.425781v-1.84375l-.855468-.28125zm0 0" fill="#ddd690" fill-rule="evenodd" stroke-width=".3804"/><path d="m719.144531 285.488281h-1.699219l-.144531 1.984375 1.988281-.851562zm0 0" fill="#ddd690" fill-rule="evenodd" stroke-width=".3804"/><path d="m720.566406 284.921875-.707031 1.414063h1.980469l.851562-1.839844-1.132812-.28125zm0 0" fill="#ddd690" fill-rule="evenodd" stroke-width=".3804"/><path d="m720.136719 282.511719.148437 1.136719 1.84375-.285157-.710937-1.414062zm0 0" fill="#ddd690" fill-rule="evenodd" stroke-width=".3804"/><path d="m718.296875 282.941406-1.277344-.285156.144531 1.558594 1.84375-.285156zm0 0" fill="#ddd690" fill-rule="evenodd" stroke-width=".3804"/><path d="m717.019531 280.386719-.140625 1.414062h2.269532l-.425782-1.414062zm0 0" fill="#ddd690" fill-rule="evenodd" stroke-width=".3804"/><path d="m719.714844 279.675781v1.703125h2.125l-.421875-1.703125zm0 0" fill="#ddd690" fill-rule="evenodd" stroke-width=".3804"/><path d="m718.578125 278.398438-1.414063 1.699218-.566406-1.417968.988282-1.695313zm0 0" fill="#ddd690" fill-rule="evenodd" stroke-width=".3804"/><path d="m719.859375 277.125-.285156 1.414062h1.84375v-1.414062l-.710938-.425781zm0 0" fill="#ddd690" fill-rule="evenodd" stroke-width=".3804"/><path d="m717.585938 275.425781h-.988282l-.144531 1.132813h1.699219zm0 0" fill="#ddd690" fill-rule="evenodd" stroke-width=".3804"/><path d="m719.574219 274.996094-.285157 1.277344h1.417969v-1.277344zm0 0" fill="#e2d67e" fill-rule="evenodd" stroke-width=".3804"/><path d="m719.144531 272.445312-.28125 1.277344h1.988281l.140626-1.136718zm0 0" fill="#e2d67e" fill-rule="evenodd" stroke-width=".3804"/><path d="m716.878906 273.011719-.28125 1.84375 1.699219-.707031v-.996094zm0 0" fill="#e2d67e" fill-rule="evenodd" stroke-width=".3804"/><path d="m716.738281 270.457031-.566406 1.132813.847656.429687.710938-.996093-.285157-.847657zm0 0" fill="#e2d67e" fill-rule="evenodd" stroke-width=".3804"/><path d="m719.078125 269.503906-.449219.941406.734375 1.261719 1.023438-.242187.042969-1.429688-1.148438-.574218zm0 0" fill="#e2d67e" fill-rule="evenodd" stroke-width=".3804"/><path d="m716.664062 268.070312-.367187 1.019532.738281.65625s.609375-.242188.609375-.449219.207031-.859375.207031-.859375l-.816406-.488281zm0 0" fill="#e2d67e" fill-rule="evenodd" stroke-width=".3804"/><path d="m718.628906 267.539062-.246094 1.148438.570313.363281 1.027344.085938s.039062-.777344.039062-1.066407c0-.28125-.738281-.613281-.738281-.613281zm0 0" fill="#e2d67e" fill-rule="evenodd" stroke-width=".3804"/><path d="m716.460938 265.984375-.082032 1.144531.863282.203125s.449218-.445312.449218-.609375c0-.164062-.410156-.902344-.410156-.902344zm0 0" fill="#e2d67e" fill-rule="evenodd" stroke-width=".3804"/><path d="m718.382812 265.660156-.164062.9375s.332031.449219.734375.449219c.410156 0 .578125-.40625.578125-.570313 0-.167968-.167969-.863281-.167969-.863281zm0 0" fill="#e2d67e" fill-rule="evenodd" stroke-width=".3804"/><path d="m716.378906 264.390625-.285156.941406.816406.367188.613282-.820313-.652344-.445312zm0 0" fill="#e2d67e" fill-rule="evenodd" stroke-width=".3804"/><path d="m718.300781 263.820312-.121093.851563s.570312.410156.773437.289063c.207031-.121094.449219-.65625.449219-.65625l-.734375-.484376zm0 0" fill="#e2d67e" fill-rule="evenodd" stroke-width=".3804"/><path d="m715.804688 261.976562-.203126 1.0625s.613282.574219.777344.492188c.164063-.082031 1.023438-.328125 1.023438-.328125l-.449219-1.0625s-.53125-.125-.691406-.125c-.167969 0-.496094 0-.457031-.039063zm0 0" fill="#e2d67e" fill-rule="evenodd" stroke-width=".3804"/><path d="m717.933594 261.445312-.242188 1.019532 1.386719.246094s.203125-1.144532-.078125-1.144532c-.289062 0-.988281-.082031-1.066406-.121094zm0 0" fill="#e2d67e" fill-rule="evenodd" stroke-width=".3804"/><path d="m715.925781 260.054688-.242187.613281.695312.535156.574219-.328125-.371094-.78125zm0 0" fill="#e2d67e" fill-rule="evenodd" stroke-width=".3804"/><path d="m718.011719 259.644531-.527344.820313.859375.363281.734375-.570313zm0 0" fill="#e2d67e" fill-rule="evenodd" stroke-width=".3804"/><path d="m715.972656 257.847656-.371094.613282.410157.648437.652343-.53125zm0 0" fill="#e2d67e" fill-rule="evenodd" stroke-width=".3804"/><path d="m717.441406 257.4375-.328125.449219.496094.652343.8125-.449218.085937-.363282-.367187-.453124zm0 0" fill="#e2d67e" fill-rule="evenodd" stroke-width=".3804"/><path d="m715.765625 256.167969-.367187.859375.816406.449218.449218-.574218-.285156-.652344zm0 0" fill="#e2d67e" fill-rule="evenodd" stroke-width=".3804"/><path d="m717.320312 255.351562-.449218.570313.613281.617187.777344-.457031-.53125-.652343zm0 0" fill="#e2d67e" fill-rule="evenodd" stroke-width=".3804"/><path d="m715.765625 254.734375h-.324219v.695313l.9375-.082032-.164062-.695312zm0 0" fill="#e2d67e" fill-rule="evenodd" stroke-width=".3804"/><path d="m717.035156 253.917969-.042968.78125.859374-.128907-.042968-.691406zm0 0" fill="#e2d67e" fill-rule="evenodd" stroke-width=".3804"/><path d="m715.5625 253.304688-.285156.410156.488281.65625.496094-.453125s.160156-.613281 0-.613281zm0 0" fill="#e2d67e" fill-rule="evenodd" stroke-width=".3804"/><path d="m715.644531 251.957031-.367187.328125.445312.449219.574219-.289063zm0 0" fill="#e2d67e" fill-rule="evenodd" stroke-width=".3804"/><path d="m715.765625 250.933594-.449219.652344h.777344zm0 0" fill="#e2d67e" fill-rule="evenodd" stroke-width=".3804"/><path d="m716.789062 251.296875.082032.660156h.652344zm0 0" fill="#e2d67e" fill-rule="evenodd" stroke-width=".3804"/><path d="m716.832031 252.363281s-.167969.859375 0 .859375c.160157 0 .609375-.121094.609375-.121094zm0 0" fill="#e2d67e" fill-rule="evenodd" stroke-width=".3804"/><path d="m738.589844 272.117188-.898438 1.226562.082032 1.269531 1.1875 1.105469 1.101562-1.554688zm0 0" fill="#d3c55f" fill-rule="evenodd" stroke-width=".3804"/><path d="m740.183594 270.359375-1.101563 1.597656 1.058594 1.675781 1.109375-.691406s.160156-1.394531-.042969-1.644531c-.207031-.242187-1.066406-.980469-1.023437-.9375zm0 0" fill="#d3c75f" fill-rule="evenodd" stroke-width=".3804"/><path d="m738.140625 268.109375s-.488281.738281-.488281.90625c0 .160156.28125 1.34375.28125 1.34375l.699218.902344s.769532-.246094.855469-.496094c.082031-.238281.371094-1.179687.371094-1.179687l-.941406-1.230469zm0 0" fill="#e2d67e" fill-rule="evenodd" stroke-width=".3804"/><path d="m736.421875 269.867188-.207031.410156s-.121094.984375.121094 1.148437c.25.160157.984374.941407.984374.941407s.652344-.410157.652344-.613282c0-.207031-.488281-1.476562-.488281-1.476562l-.570313-.570313zm0 0" fill="#d3c95f" fill-rule="evenodd" stroke-width=".3804"/><path d="m734.746094 267.046875-.328125.777344.40625 1.0625.78125.777343s.855469-.160156.855469-.328124v-1.140626l-.535157-.898437-.898437-.410156zm0 0" fill="#e2d67e" fill-rule="evenodd" stroke-width=".3804"/><path d="m736.585938 266.3125-.203126.609375s.082032.863281.242188.945313c.167969.082031.820312.410156.820312.410156l.566407-.945313-.566407-1.183593zm0 0" fill="#e2d67e" fill-rule="evenodd" stroke-width=".3804"/><path d="m735.6875 264.351562-.410156.898438.246094.652344.570312.289062s.652344-.328125.652344-.492187v-.859375l-.730469-.449219zm0 0" fill="#e2d67e" fill-rule="evenodd" stroke-width=".3804"/><path d="m733.804688 265.003906-.535157.695313.207031.859375.898438.289062.613281-.738281-.492187-.980469zm0 0" fill="#e2d67e" fill-rule="evenodd" stroke-width=".3804"/><path d="m733.105469 263.164062-.445313.40625v.53125l.695313.53125.652343-.328124-.164062-.734376-.328125-.488281zm0 0" fill="#e2d67e" fill-rule="evenodd" stroke-width=".3804"/><path d="m734.90625 262.632812-.289062.652344.410156.859375.65625-.371093-.121094-.734376zm0 0" fill="#e2d67e" fill-rule="evenodd" stroke-width=".3804"/><path d="m733.679688 260.875-.160157 1.46875 1.023438-.160156.242187-.777344-.367187-.578125zm0 0" fill="#e2d67e" fill-rule="evenodd" stroke-width=".3804"/><path d="m732.617188 261.203125c-.160157.035156-.738282.074219-.738282.074219l.167969 1.476562.652344-.082031.246093-.53125-.085937-.65625zm0 0" fill="#e2d67e" fill-rule="evenodd" stroke-width=".3804"/><path d="m731.390625 259.726562-.488281.613282.488281.816406.449219-.082031.285156-.609375zm0 0" fill="#e2d67e" fill-rule="evenodd" stroke-width=".3804"/><path d="m732.984375 259.316406-.40625.449219.328125.492187.410156.039063.40625-.492187-.367187-.445313zm0 0" fill="#e2d67e" fill-rule="evenodd" stroke-width=".3804"/><path d="m730.367188 258.257812-.285157.777344.777344.203125.199219-.492187-.238282-.449219zm0 0" fill="#e2d67e" fill-rule="evenodd" stroke-width=".3804"/><path d="m731.71875 257.847656-.082031.898438.859375-.082032-.082032-.734374zm0 0" fill="#e2d67e" fill-rule="evenodd" stroke-width=".3804"/><path d="m729.386719 256.820312.042969.777344h.859374s.28125-.898437-.085937-.855468c-.371094.039062-.734375.117187-.816406.078124zm0 0" fill="#e2d67e" fill-rule="evenodd" stroke-width=".3804"/><path d="m731.023438 256.453125v.777344l.898437-.121094-.203125-.691406zm0 0" fill="#e2d67e" fill-rule="evenodd" stroke-width=".3804"/><path d="m729.832031 255.636719h-.898437l.125.78125.820312-.085938zm0 0" fill="#e2d67e" fill-rule="evenodd" stroke-width=".3804"/><path d="m730.410156 255.101562-.121094.738282.9375-.039063v-.699219zm0 0" fill="#e2d67e" fill-rule="evenodd" stroke-width=".3804"/><path d="m729.511719 253.917969-.042969.855469s1.023438.167968 1.023438 0c0-.160157-.203126-.730469-.203126-.730469zm0 0" fill="#e2d67e" fill-rule="evenodd" stroke-width=".3804"/><path d="m728.933594 254h-.8125l.082031.941406h.980469l.121094-.652344zm0 0" fill="#e2d67e" fill-rule="evenodd" stroke-width=".3804"/><path d="m727.015625 251.222656-.410156.402344 1.269531 2.007812h.777344l-.738282-1.019531s.125-.496093-.082031-.570312c-.199219-.085938-.367187-.085938-.367187-.085938zm0 0" fill="#e2d67e" fill-rule="evenodd" stroke-width=".3804"/><path d="m727.175781 250.445312-.285156.363282 1.519531 1.023437v.859375l.691406.652344.570313.164062-.203125-.695312-.285156-.777344-.574219-.449218-.40625-.734376s-.207031-.042968-.371094-.085937c-.160156-.039063-.328125-.28125-.328125-.28125zm0 0" fill="#e2d67e" fill-rule="evenodd" stroke-width=".3804"/></g><path d="m730.019531 393.417969c-.683593-12.402344 10.53125-24.808594-19.664062-37.214844" fill="none" stroke="#4dcf4a" stroke-width=".7607"/><path d="m758.808594 386.394531c0-16.378906-9.359375-23.402343-28.085938-21.0625" fill="none" stroke="#38bb26" stroke-width=".9509"/><path d="m768.636719 393.417969c-9.890625-11.914063-23.109375-10.53125-38.617188 0" fill="none" stroke="#51c757" stroke-width=".7607"/><path d="m793.21875 377.972656c-3.761719-7.007812-17.480469-2.390625-32.300781 3.511719" fill="none" stroke="#51c757" stroke-width=".7607"/><path d="m843.078125 355.503906c-3.746094-10.769531-10.300781-16.855468-19.664063-18.257812" fill="none" stroke="#7acb73" stroke-width=".6847"/><path d="m855.710938 338.648438c-2.476563-5.5625-5.082032-10.898438-11.226563-9.132813" fill="none" stroke="#4cb135" stroke-width=".9509"/><path d="m704.734375 382.886719c3.273437-11.226563-.273437-15.640625-6.316406-17.554688" fill="none" stroke="#60c85a" stroke-width="1.065"/><path d="m651.371094 341.453125c6.25-2.707031 11.242187-7.941406 20.363281-4.910156" fill="none" stroke="#71ce5b" stroke-width=".989"/><path d="m643.648438 334.433594c5.101562.109375 8.667968 2.101562 9.828124 7.019531" fill="none" stroke="#71ce5b" stroke-width=".989"/><path d="m208.335938 0v250h83.328124v-250zm0 0" fill="#fff" stroke="#fff" stroke-width=".989"/><path d="m0 83.335938v83.328124h500v-83.328124zm0 0" fill="#fff" stroke="#fff" stroke-width=".989"/><path d="m0 100v50h500v-50zm0 0" fill="#cf142b" stroke="#cf142b" stroke-width=".989"/><path d="m225 0v250h50v-250zm0 0" fill="#cf142b" stroke="#cf142b" stroke-width=".989"/></svg>