<svg viewBox="0 0 1000 500" xmlns="http://www.w3.org/2000/svg"><path d="m0 0h1000v500h-1000z" fill="#f00"/><g fill-rule="evenodd"><path d="m250 0h500v500h-500zm0 0" fill="#fff"/><path d="m499.988281 46.875-34.109375 63.621094c-3.871094 6.921875-10.804687 6.277344-17.738281 2.414062l-24.699219-12.789062 18.40625 97.730468c3.871094 17.851563-8.546875 17.851563-14.679687 10.132813l-43.101563-48.253906-6.996094 24.507812c-.804687 3.21875-4.355468 6.597657-9.679687 5.789063l-54.5-11.457032 14.316406 52.042969c3.066407 11.585938 5.453125 16.378907-3.097656 19.429688l-19.421875 9.132812 93.824219 76.207031c3.710937 2.882813 5.585937 8.070313 4.265625 12.761719l-8.210938 26.949219c32.304688-3.726562 61.25-9.328125 93.570313-12.777344 2.847656-.304687 7.628906 4.402344 7.609375 7.707032l-4.28125 98.726562h15.707031l-2.472656-98.511719c-.023438-3.304687 4.316406-8.226562 7.164062-7.921875 32.320313 3.449219 61.265625 9.050782 93.570313 12.777344l-8.210938-26.949219c-1.320312-4.691406.554688-9.878906 4.265625-12.761719l93.824219-76.207031-19.421875-9.132812c-8.550781-3.050781-6.164063-7.84375-3.097656-19.429688l14.316406-52.042969-54.5 11.457032c-5.324219.808594-8.875-2.570313-9.679687-5.789063l-6.996094-24.507812-43.101563 48.253906c-6.132812 7.71875-18.550781 7.71875-14.679687-10.132813l18.40625-97.730468-24.699219 12.789062c-6.933594 3.863282-13.867187 4.507813-17.738281-2.414062zm0 0" fill="#f00"/></g></svg>