<svg viewBox="0 0 1000 500" xmlns="http://www.w3.org/2000/svg"><path d="m0 0h1000v500h-1000z" fill="#006b3f"/><g fill-rule="evenodd"><path d="m0 270.832031h1000v41.667969h-1000zm0 0" fill="#fff"/><path d="m0 229.167969h1000v41.664062h-1000zm0 0"/><path d="m0 187.5h1000v41.667969h-1000zm0 0" fill="#fcd116"/><path d="m437.5 0h41.667969v500h-41.667969zm0 0" fill="#fcd116"/><path d="m479.167969 0h41.664062v500h-41.664062zm0 0"/><path d="m520.832031 0h41.667969v500h-41.667969zm0 0" fill="#fff"/><path d="m625 250c.128906 16.449219-3.019531 32.910156-9.222656 48.144531-6.199219 15.234375-15.445313 29.222657-27.03125 40.902344-11.582032 11.679687-25.488282 21.035156-40.675782 27.359375-15.183593 6.324219-31.621093 9.609375-48.070312 9.609375s-32.886719-3.285156-48.070312-9.609375c-15.1875-6.324219-29.09375-15.679688-40.675782-27.359375-11.585937-11.679687-20.832031-25.667969-27.03125-40.902344-6.203125-15.234375-9.351562-31.695312-9.222656-48.144531-.128906-16.449219 3.019531-32.917969 9.222656-48.152344 6.199219-15.234375 15.445313-29.214844 27.03125-40.894531 11.582032-11.679687 25.488282-21.035156 40.675782-27.359375 15.183593-6.332031 31.621093-9.617188 48.070312-9.617188s32.886719 3.285157 48.070312 9.617188c15.1875 6.324219 29.09375 15.679688 40.675782 27.359375 11.585937 11.679687 20.832031 25.660156 27.03125 40.894531 6.203125 15.234375 9.351562 31.703125 9.222656 48.152344zm0 0" fill="#d41c30"/><path d="m495.988281 151.328125c0-.1875 4.011719-11.4375 4.011719-11.4375l3.636719 11.25s12.214843.367187 12.214843.1875c0-.1875-9.65625 7.371094-9.65625 7.371094s4.554688 12.90625 4.367188 12.539062c-.179688-.363281-10.5625-7.738281-10.5625-7.738281s-10.5625 7.375-10.382812 7.375c.183593 0 4.011718-12.175781 4.011718-12.175781l-9.480468-7.191407zm0 0" fill="#006b3f" stroke="#000" stroke-width=".833333"/><path d="m504.011719 348.957031c0 .1875-4.011719 11.433594-4.011719 11.433594l-3.636719-11.246094s-12.214843-.375-12.214843-.1875 9.65625-7.371093 9.65625-7.371093-4.554688-12.90625-4.367188-12.542969c.179688.367187 10.5625 7.75 10.5625 7.75s10.5625-7.382813 10.382812-7.382813c-.183593 0-4.011718 12.175782-4.011718 12.175782l9.480468 7.183593zm0 0" fill="#006b3f" stroke="#000" stroke-width=".833333"/><path d="m558.097656 179.550781c0 .183594-4.003906 11.433594-4.003906 11.433594l-3.652344-11.25s-12.203125-.363281-12.203125-.183594c0 .183594 9.652344-7.375 9.652344-7.375s-4.546875-12.90625-4.367187-12.539062c.179687.367187 10.570312 7.738281 10.570312 7.738281s10.5625-7.371094 10.382812-7.371094c-.1875 0-4.011718 12.171875-4.011718 12.171875l9.472656 7.195313zm0 0" fill="#006b3f" stroke="#000" stroke-width=".833333"/><path d="m593.171875 282.085938c0 .1875-4.003906 11.4375-4.003906 11.4375l-3.644531-11.25s-12.207032-.363282-12.207032-.1875c0 .1875 9.660156-7.371094 9.660156-7.371094s-4.558593-12.90625-4.378906-12.539063c.1875.367188 10.570313 7.738281 10.570313 7.738281s10.5625-7.371093 10.382812-7.371093c-.179687 0-4.011719 12.171875-4.011719 12.171875l9.472657 7.195312zm0 0" fill="#006b3f" stroke="#000" stroke-width=".833333"/><path d="m414.828125 285.023438c0 .179687-4.011719 11.429687-4.011719 11.429687l-3.640625-11.25s-12.203125-.371094-12.203125-.179687c0 .179687 9.648438-7.378907 9.648438-7.378907s-4.554688-12.914062-4.367188-12.53125c.175782.367188 10.5625 7.738281 10.5625 7.738281s10.570313-7.371093 10.382813-7.371093c-.179688 0-4.003907 12.164062-4.003907 12.164062l9.472657 7.1875zm0 0" fill="#006b3f" stroke="#000" stroke-width=".833333"/><path d="m447.207031 180.753906c0 .179688-4.011719 11.425782-4.011719 11.425782l-3.644531-11.246094s-12.199219-.367188-12.199219-.179688c0 .179688 9.652344-7.382812 9.652344-7.382812s-4.558594-12.90625-4.371094-12.539063c.171876.367188 10.5625 7.738281 10.5625 7.738281s10.574219-7.371093 10.386719-7.371093c-.179687 0-4.003906 12.171875-4.003906 12.171875l9.472656 7.195312zm0 0" fill="#006b3f" stroke="#000" stroke-width=".833333"/><path d="m406.105469 218.210938c0-.175782 4.003906-11.421876 4.003906-11.421876l3.644531 11.246094s12.207032.363282 12.207032.175782c0-.175782-9.660157 7.382812-9.660157 7.382812s4.558594 12.90625 4.378907 12.542969c-.1875-.367188-10.570313-7.742188-10.570313-7.742188s-10.566406 7.375-10.386719 7.375c.179688 0 4.011719-12.175781 4.011719-12.175781l-9.480469-7.195312zm0 0" fill="#006b3f" stroke="#000" stroke-width=".833333"/><path d="m440.949219 320.574219c0-.1875 4.003906-11.433594 4.003906-11.433594l3.648437 11.246094s12.207032.375 12.207032.1875-9.652344 7.371093-9.652344 7.371093 4.546875 12.914063 4.367188 12.542969c-.1875-.367187-10.570313-7.75-10.570313-7.75s-10.5625 7.382813-10.375 7.382813c.179687 0 4.003906-12.175782 4.003906-12.175782l-9.472656-7.183593zm0 0" fill="#006b3f" stroke="#000" stroke-width=".833333"/><path d="m584.519531 215.496094c0-.195313 4.015625-11.4375 4.015625-11.4375l3.636719 11.242187s12.214844.371094 12.214844.195313c0-.195313-9.660157 7.371094-9.660157 7.371094s4.558594 12.90625 4.371094 12.53125c-.179687-.363282-10.5625-7.738282-10.5625-7.738282s-10.5625 7.375-10.386718 7.375c.1875 0 4.015624-12.167968 4.015624-12.167968l-9.484374-7.195313zm0 0" fill="#006b3f" stroke="#000" stroke-width=".833333"/><path d="m552.042969 319.605469c0-.179688 4.003906-11.425781 4.003906-11.425781l3.644531 11.246093s12.207032.367188 12.207032.179688c0-.179688-9.660157 7.378906-9.660157 7.378906s4.558594 12.90625 4.378907 12.542969c-.1875-.375-10.570313-7.75-10.570313-7.75s-10.5625 7.375-10.375 7.375c.179687 0 4.003906-12.167969 4.003906-12.167969l-9.472656-7.191406zm0 0" fill="#006b3f" stroke="#000" stroke-width=".833333"/><path d="m524.570312 282.292969c1.445313 20.285156-.710937 37.085937-4.8125 37.507812-4.097656.429688-8.609374-15.675781-10.058593-35.964843-1.445313-20.285157.710937-37.082032 4.8125-37.515626 4.109375-.421874 8.609375 15.675782 10.058593 35.972657zm0 0" fill="#006b3f"/></g><path d="m524.566406 282.292969c1.449219 20.285156-.707031 37.082031-4.808594 37.507812-4.097656.429688-8.609374-15.675781-10.058593-35.960937-1.445313-20.289063.710937-37.085938 4.8125-37.519532 4.105469-.421874 8.609375 15.675782 10.054687 35.972657zm0 0" fill="none" stroke="#000" stroke-width=".518175"/><path d="m532.332031 282.167969c1.457031 20.289062-.878906 37.101562-5.222656 37.550781-4.339844.457031-9.042969-15.625-10.5-35.921875-1.457031-20.289063.878906-37.101563 5.222656-37.550781 4.339844-.453125 9.042969 15.625 10.5 35.921875zm0 0" fill="#006b3f" fill-rule="evenodd"/><path d="m532.332031 282.167969c1.457031 20.289062-.878906 37.101562-5.226562 37.550781-4.335938.457031-9.039063-15.625-10.496094-35.921875-1.457031-20.289063.878906-37.101563 5.226563-37.550781 4.335937-.453125 9.039062 15.628906 10.496093 35.921875zm0 0" fill="none" stroke="#000" stroke-width=".529996"/><path d="m527.289062 284.285156c1.5625 22.429688.011719 40.910156-3.460937 41.277344-3.472656.371094-7.554687-17.515625-9.121094-39.941406-1.5625-22.4375-.007812-40.917969 3.457031-41.285156 3.476563-.367188 7.5625 17.519531 9.125 39.949218zm0 0" fill="#006b3f" fill-rule="evenodd"/><path d="m527.285156 284.285156c1.5625 22.429688.015625 40.910156-3.457031 41.277344-3.476563.375-7.550781-17.515625-9.121094-39.941406-1.566406-22.4375-.007812-40.917969 3.457031-41.285156 3.472657-.367188 7.558594 17.519531 9.121094 39.949218zm0 0" fill="none" stroke="#000" stroke-width=".51325"/><path d="m463.160156 302.140625c6.378906-.269531 3.605469-3.6875 6.828125-5.5 3.222657-1.816406 7.804688-.613281 9.179688 1.660156 1.375 2.261719.277343 4.492188 2.039062 4.523438 1.777344.03125 49.945313-1.996094 51.679688-.089844 1.730469 1.90625 2.027343 5.648437.226562 7.105469-1.808593 1.472656-62.695312 2.15625-64.792969.617187-2.101562-1.523437-5.171874-7.941406-5.160156-8.316406zm0 0" fill="#9c4a00" fill-rule="evenodd"/><path d="m463.160156 302.140625c6.378906-.269531 3.605469-3.6875 6.828125-5.5 3.222657-1.816406 7.804688-.613281 9.179688 1.660156 1.375 2.261719.273437 4.492188 2.042969 4.523438 1.773437.03125 49.941406-1.996094 51.675781-.089844 1.730469 1.902344 2.027343 5.648437.226562 7.105469-1.804687 1.472656-62.695312 2.15625-64.792969.617187-2.101562-1.523437-5.171874-7.941406-5.160156-8.316406zm0 0" fill="none" stroke="#000" stroke-width=".546723"/><path d="m497.183594 306.828125c-.113282 4.816406 7.007812 3.449219 7.105468 7.46875-.21875 4.265625-11.9375.261719-12.054687-7.535156.492187-7.785157 11.964844-11.636719 12.101563-7.183594.109374 3.691406-7.039063 2.441406-7.152344 7.25zm0 0" fill="#fcd116" fill-rule="evenodd"/><path d="m497.183594 306.828125c-.113282 4.816406 7.007812 3.449219 7.105468 7.472656-.222656 4.261719-11.9375.257813-12.054687-7.539062.492187-7.789063 11.964844-11.636719 12.101563-7.183594.109374 3.695313-7.035157 2.441406-7.152344 7.25zm0 0" fill="none" stroke="#000" stroke-width=".526593"/><path d="m501.382812 306.886719c-.113281 4.808593 7.007813 3.449219 7.105469 7.46875-.210937 4.257812-11.9375.261719-12.054687-7.535157.488281-7.789062 11.964844-11.636718 12.113281-7.1875.09375 3.695313-7.039063 2.441407-7.164063 7.253907zm0 0" fill="#fcd116" fill-rule="evenodd"/><path d="m501.382812 306.886719c-.113281 4.808593 7.007813 3.449219 7.105469 7.46875-.210937 4.257812-11.9375.261719-12.054687-7.535157.492187-7.789062 11.964844-11.636718 12.113281-7.1875.09375 3.695313-7.042969 2.441407-7.164063 7.253907zm0 0" fill="none" stroke="#000" stroke-width=".526593"/><path d="m505.890625 306.714844c-.113281 4.816406 7.007813 3.449218 7.105469 7.46875-.21875 4.265625-11.9375.261718-12.050782-7.535156.488282-7.789063 11.960938-11.636719 12.101563-7.1875.101563 3.699218-7.039063 2.441406-7.15625 7.253906zm0 0" fill="#fcd116" fill-rule="evenodd"/><path d="m505.894531 306.714844c-.117187 4.816406 7.003907 3.449218 7.101563 7.46875-.21875 4.265625-11.9375.261718-12.050782-7.535156.488282-7.785157 11.960938-11.636719 12.097657-7.183594.109375 3.691406-7.035157 2.4375-7.148438 7.25zm0 0" fill="none" stroke="#000" stroke-width=".526593"/><path d="m510.089844 306.769531c-.113282 4.8125 7.007812 3.453125 7.105468 7.472657-.21875 4.253906-11.9375.261718-12.050781-7.535157.488281-7.789062 11.960938-11.636719 12.097657-7.1875.109374 3.695313-7.039063 2.441407-7.152344 7.25zm0 0" fill="#fcd116" fill-rule="evenodd"/><path d="m510.089844 306.769531c-.113282 4.8125 7.007812 3.453125 7.105468 7.472657-.21875 4.253906-11.9375.261718-12.050781-7.535157.488281-7.789062 11.960938-11.640625 12.101563-7.1875.101562 3.695313-7.042969 2.441407-7.15625 7.25zm0 0" fill="none" stroke="#000" stroke-width=".526593"/><path d="m534.195312 306.214844c-.046874 2.28125-1.910156 4.105468-4.148437 4.0625-2.246094-.03125-4.03125-1.902344-3.980469-4.179688.046875-2.28125 1.90625-4.09375 4.148438-4.0625 2.246094.03125 4.03125 1.90625 3.980468 4.179688zm0 0" fill="#9c4a00" fill-rule="evenodd"/><path d="m534.195312 306.21875c-.046874 2.277344-1.910156 4.097656-4.148437 4.058594-2.25-.03125-4.03125-1.90625-3.980469-4.179688.046875-2.28125 1.902344-4.09375 4.148438-4.0625 2.25.03125 4.03125 1.902344 3.980468 4.183594zm0 0" fill="none" stroke="#000" stroke-width=".469203"/><path d="m509.320312 291.804688c.460938 4.394531-.769531 8.195312-2.753906 8.496093s-3.980468-3.019531-4.449218-7.414062c-.464844-4.386719.765624-8.1875 2.75-8.488281 1.984374-.300782 3.980468 3.019531 4.453124 7.40625zm0 0" fill="#006b3f" fill-rule="evenodd"/><path d="m509.316406 291.804688c.464844 4.394531-.765625 8.195312-2.75 8.496093s-3.980468-3.019531-4.449218-7.414062c-.464844-4.386719.761718-8.1875 2.75-8.488281 1.984374-.300782 3.980468 3.019531 4.449218 7.40625zm0 0" fill="none" stroke="#000" stroke-width=".627931"/><path d="m503.179688 291.324219c.472656 4.386719-.753907 8.1875-2.738282 8.488281-1.988281.300781-3.980468-3.011719-4.453125-7.40625-.472656-4.386719.765625-8.195312 2.75-8.496094 1.988281-.292968 3.980469 3.019532 4.441407 7.414063zm0 0" fill="#006b3f" fill-rule="evenodd"/><path d="m503.183594 291.324219c.46875 4.386719-.757813 8.1875-2.746094 8.488281-1.984375.300781-3.976562-3.011719-4.449219-7.40625-.472656-4.386719.765625-8.195312 2.75-8.496094 1.984375-.292968 3.980469 3.019532 4.445313 7.414063zm0 0" fill="none" stroke="#000" stroke-width=".627931"/><path d="m498.796875 283.472656c.46875 4.394532-.765625 8.195313-2.75 8.496094-1.988281.300781-3.980469-3.019531-4.445313-7.40625-.472656-4.394531.757813-8.195312 2.742188-8.496094 1.984375-.300781 3.980469 3.019532 4.453125 7.40625zm0 0" fill="#006b3f" fill-rule="evenodd"/><path d="m498.796875 283.472656c.472656 4.394532-.765625 8.195313-2.753906 8.496094-1.984375.300781-3.976563-3.019531-4.441407-7.40625-.472656-4.394531.757813-8.195312 2.742188-8.496094 1.984375-.300781 3.980469 3.019532 4.453125 7.40625zm0 0" fill="none" stroke="#000" stroke-width=".62793"/><path d="m504.867188 283.128906c.519531 4.84375-.609376 9.015625-2.523438 9.320313-1.914062.300781-3.871094-3.378907-4.394531-8.226563-.511719-4.84375.617187-9.019531 2.53125-9.320312 1.910156-.300782 3.875 3.386718 4.386719 8.226562zm0 0" fill="#006b3f" fill-rule="evenodd"/><path d="m504.867188 283.128906c.519531 4.84375-.609376 9.019532-2.523438 9.320313s-3.875-3.378907-4.394531-8.230469c-.511719-4.839844.617187-9.015625 2.53125-9.316406 1.910156-.300782 3.875 3.382812 4.386719 8.226562zm0 0" fill="none" stroke="#000" stroke-width=".656764"/><path d="m513.445312 283.21875c.488282 4.542969-.675781 8.464844-2.582031 8.757812-1.910156.300782-3.855469-3.140624-4.335937-7.691406-.488282-4.542968.667968-8.460937 2.578125-8.757812 1.914062-.292969 3.859375 3.152344 4.339843 7.691406zm0 0" fill="#009543" fill-rule="evenodd"/><path d="m513.445312 283.21875c.488282 4.542969-.675781 8.464844-2.582031 8.757812-1.910156.300782-3.855469-3.144531-4.335937-7.691406-.488282-4.542968.667968-8.464844 2.578125-8.757812 1.914062-.289063 3.859375 3.152344 4.339843 7.691406zm0 0" fill="none" stroke="#000" stroke-width=".631402"/><path d="m508.730469 280.378906c.492187 4.542969-.675781 8.464844-2.578125 8.757813-1.914063.300781-3.855469-3.144531-4.335938-7.683594-.488281-4.550781.664063-8.464844 2.578125-8.761719 1.910157-.296875 3.859375 3.144532 4.335938 7.6875zm0 0" fill="#009543" fill-rule="evenodd"/><path d="m508.734375 280.378906c.488281 4.542969-.679687 8.464844-2.582031 8.757813-1.910156.300781-3.855469-3.144531-4.335938-7.683594-.488281-4.550781.667969-8.464844 2.578125-8.765625 1.914063-.289062 3.855469 3.152344 4.339844 7.691406zm0 0" fill="none" stroke="#000" stroke-width=".631402"/><path d="m502.792969 276.285156c.476562 4.542969-.675781 8.464844-2.589844 8.757813-1.910156.292969-3.847656-3.148438-4.335937-7.691407-.480469-4.542968.675781-8.464843 2.585937-8.753906 1.914063-.296875 3.847656 3.148438 4.339844 7.6875zm0 0" fill="#009543" fill-rule="evenodd"/><path d="m502.792969 276.285156c.476562 4.542969-.675781 8.464844-2.589844 8.757813-1.910156.292969-3.847656-3.148438-4.335937-7.691407-.480469-4.542968.675781-8.464843 2.585937-8.753906 1.914063-.296875 3.851563 3.148438 4.339844 7.6875zm0 0" fill="none" stroke="#000" stroke-width=".631402"/><path d="m497.28125 273.804688c.488281 4.539062-.667969 8.460937-2.578125 8.753906-1.914063.296875-3.859375-3.148438-4.339844-7.6875-.484375-4.542969.675781-8.464844 2.582031-8.757813 1.910157-.292969 3.855469 3.148438 4.335938 7.691407zm0 0" fill="#006b3f" fill-rule="evenodd"/><path d="m497.28125 273.804688c.488281 4.539062-.667969 8.464843-2.578125 8.753906-1.914063.292968-3.859375-3.148438-4.339844-7.6875-.488281-4.542969.675781-8.464844 2.582031-8.757813 1.914063-.292969 3.855469 3.148438 4.335938 7.691407zm0 0" fill="none" stroke="#000" stroke-width=".631402"/><path d="m487.71875 206.097656s-12.207031 10.59375-10.839844 39.28125c1.539063 28.855469 26.992188 42.414063 26.992188 42.414063s6.488281-8.1875 5.738281-31.371094c-1.820313-33.886719-13.839844-48.863281-13.839844-48.863281zm0 0" fill="#9461c9" fill-rule="evenodd"/><path d="m487.71875 206.097656s-12.207031 10.59375-10.839844 39.28125c1.539063 28.855469 26.992188 42.414063 26.992188 42.414063s6.488281-8.1875 5.742187-31.371094c-1.824219-33.890625-13.847656-48.859375-13.847656-48.859375zm0 0" fill="none" stroke="#000" stroke-width=".464005"/><path d="m518.863281 293.375c-.316406 4.414062-2.203125 7.925781-4.214843 7.871094-2.011719-.058594-3.378907-3.679688-3.0625-8.082032.328124-4.402343 2.214843-7.925781 4.21875-7.871093 2.011718.066406 3.375 3.679687 3.058593 8.082031zm0 0" fill="#006b3f" fill-rule="evenodd"/><path d="m518.863281 293.375c-.316406 4.414062-2.203125 7.925781-4.214843 7.871094-2.007813-.058594-3.375-3.679688-3.058594-8.082032.324218-4.402343 2.210937-7.925781 4.214844-7.871093 2.007812.066406 3.375 3.679687 3.058593 8.082031zm0 0" fill="none" stroke="#000" stroke-width=".56208"/><path d="m512.914062 291.8125c-.316406 4.402344-2.203124 7.925781-4.214843 7.871094-2.007813-.066406-3.375-3.679688-3.050781-8.089844.316406-4.402344 2.207031-7.925781 4.214843-7.863281 2.007813.058593 3.375 3.679687 3.050781 8.082031zm0 0" fill="#006b3f" fill-rule="evenodd"/><path d="m512.914062 291.8125c-.316406 4.402344-2.203124 7.929688-4.214843 7.871094-2.011719-.066406-3.375-3.679688-3.050781-8.089844.316406-4.402344 2.203124-7.925781 4.214843-7.863281 2.011719.058593 3.375 3.679687 3.050781 8.082031zm0 0" fill="none" stroke="#000" stroke-width=".56208"/><path d="m509.992188 283.308594c-.316407 4.402344-2.203126 7.925781-4.214844 7.871094-2.007813-.066407-3.378906-3.679688-3.050782-8.089844.316407-4.402344 2.203126-7.925782 4.214844-7.863282 2.011719.058594 3.378906 3.679688 3.050782 8.082032zm0 0" fill="#006b3f" fill-rule="evenodd"/><path d="m509.992188 283.308594c-.316407 4.402344-2.203126 7.925781-4.214844 7.871094-2.007813-.066407-3.375-3.679688-3.050782-8.089844.316407-4.402344 2.203126-7.929688 4.214844-7.863282 2.007813.058594 3.378906 3.679688 3.050782 8.082032zm0 0" fill="none" stroke="#000" stroke-width=".56208"/><path d="m516.039062 284.050781c-.359374 4.859375-2.210937 8.765625-4.148437 8.714844-1.9375-.039063-3.214844-4.011719-2.855469-8.871094.355469-4.855469 2.210938-8.765625 4.148438-8.714843 1.929687.039062 3.207031 4.011718 2.855468 8.871093zm0 0" fill="#006b3f" fill-rule="evenodd"/><path d="m516.039062 284.046875c-.355468 4.859375-2.210937 8.765625-4.148437 8.71875-1.9375-.039063-3.214844-4.011719-2.855469-8.871094.355469-4.859375 2.210938-8.765625 4.148438-8.714843 1.929687.039062 3.207031 4.011718 2.855468 8.867187zm0 0" fill="none" stroke="#000" stroke-width=".570464"/><path d="m524.453125 285.667969c-.332031 4.550781-2.164063 8.203125-4.097656 8.15625-1.929688-.050781-3.234375-3.785157-2.898438-8.34375.332031-4.546875 2.171875-8.203125 4.101563-8.152344 1.933594.050781 3.230468 3.785156 2.894531 8.339844zm0 0" fill="#006b3f" fill-rule="evenodd"/><path d="m524.453125 285.667969c-.332031 4.550781-2.164063 8.203125-4.101563 8.15625-1.925781-.050781-3.230468-3.785157-2.894531-8.339844.332031-4.550781 2.171875-8.203125 4.101563-8.15625 1.933594.050781 3.230468 3.785156 2.894531 8.339844zm0 0" fill="none" stroke="#000" stroke-width=".556424"/><path d="m520.328125 282.03125c-.332031 4.554688-2.171875 8.210938-4.101563 8.164062-1.9375-.050781-3.230468-3.785156-2.898437-8.34375.335937-4.554687 2.167969-8.210937 4.101563-8.152343 1.9375.046875 3.234374 3.777343 2.898437 8.332031zm0 0" fill="#006b3f" fill-rule="evenodd"/><path d="m520.328125 282.03125c-.332031 4.554688-2.171875 8.210938-4.101563 8.160156-1.9375-.046875-3.230468-3.78125-2.898437-8.339844.335937-4.558593 2.164063-8.210937 4.105469-8.152343 1.933594.046875 3.230468 3.773437 2.894531 8.332031zm0 0" fill="none" stroke="#000" stroke-width=".556424"/><path d="m515.210938 276.945312c-.332032 4.558594-2.171876 8.203126-4.101563 8.15625-1.9375-.050781-3.230469-3.785156-2.898437-8.335937.335937-4.558594 2.164062-8.210937 4.101562-8.160156 1.929688.046875 3.230469 3.78125 2.898438 8.339843zm0 0" fill="#006b3f" fill-rule="evenodd"/><path d="m515.210938 276.945312c-.335938 4.558594-2.171876 8.203126-4.101563 8.15625-1.9375-.050781-3.230469-3.785156-2.898437-8.335937.332031-4.554687 2.164062-8.210937 4.101562-8.160156 1.929688.046875 3.230469 3.78125 2.898438 8.339843zm0 0" fill="none" stroke="#000" stroke-width=".556424"/><path d="m510.238281 273.519531c-.335937 4.558594-2.171875 8.210938-4.109375 8.160157-1.929687-.046876-3.222656-3.78125-2.898437-8.339844.335937-4.554688 2.171875-8.210938 4.109375-8.15625 1.929687.050781 3.230468 3.777344 2.898437 8.335937zm0 0" fill="#006b3f" fill-rule="evenodd"/><path d="m510.238281 273.519531c-.335937 4.558594-2.171875 8.210938-4.109375 8.160157-1.929687-.046876-3.222656-3.78125-2.898437-8.339844.332031-4.558594 2.171875-8.210938 4.109375-8.152344 1.929687.046875 3.230468 3.773438 2.898437 8.332031zm0 0" fill="none" stroke="#000" stroke-width=".556424"/><path d="m523.234375 251.667969c6.882813 16.066406 8.160156 30.746093 2.855469 32.789062-5.304688 2.050781-15.195313-9.304687-22.078125-25.359375-6.882813-16.0625-8.171875-30.738281-2.855469-32.789062 5.304688-2.046875 15.183594 9.304687 22.078125 25.359375zm0 0" fill="#d41c30" fill-rule="evenodd"/><path d="m523.234375 251.667969c6.886719 16.066406 8.160156 30.746093 2.855469 32.789062-5.304688 2.050781-15.191406-9.304687-22.078125-25.359375-6.882813-16.0625-8.171875-30.738281-2.855469-32.789062 5.304688-2.050782 15.183594 9.304687 22.078125 25.359375zm0 0" fill="none" stroke="#000" stroke-width=".182738"/><path d="m510.191406 225.738281c-.042968 2.191407-2.085937 3.933594-4.570312 3.894531-2.480469-.050781-4.457032-1.859374-4.417969-4.054687.035156-2.1875 2.085937-3.929687 4.566406-3.882813 2.484375.042969 4.460938 1.855469 4.421875 4.042969zm0 0" fill="#009543" fill-rule="evenodd"/><path d="m510.191406 225.742188c-.042968 2.1875-2.085937 3.929687-4.570312 3.886718-2.480469-.046875-4.457032-1.855468-4.417969-4.050781.035156-2.1875 2.085937-3.929687 4.566406-3.882813 2.480469.039063 4.457031 1.855469 4.421875 4.046876zm0 0" fill="none" stroke="#000" stroke-width=".525671"/><path d="m513.101562 220.125c-.039062 2.191406-1.871093 3.929688-4.101562 3.890625-2.222656-.039063-3.996094-1.847656-3.953125-4.035156.039063-2.191407 1.871094-3.941407 4.101563-3.898438 2.21875.039063 3.988281 1.84375 3.953124 4.042969zm0 0" fill="#009543" fill-rule="evenodd"/><path d="m513.101562 220.125c-.039062 2.1875-1.871093 3.929688-4.101562 3.890625-2.222656-.042969-3.996094-1.847656-3.957031-4.039063.042969-2.1875 1.875-3.9375 4.105469-3.894531 2.222656.039063 3.988281 1.847657 3.953124 4.042969zm0 0" fill="none" stroke="#000" stroke-width=".524604"/><path d="m507.667969 220.027344c-.035157 2.1875-1.875 3.929687-4.09375 3.890625-2.222657-.03125-3.996094-1.847657-3.957031-4.035157.042968-2.191406 1.871093-3.941406 4.09375-3.898437 2.230468.039063 3.996093 1.847656 3.957031 4.042969zm0 0" fill="#009543" fill-rule="evenodd"/><path d="m507.664062 220.027344c-.03125 2.191406-1.871093 3.929687-4.09375 3.890625-2.21875-.03125-3.992187-1.847657-3.953124-4.035157.042968-2.191406 1.871093-3.941406 4.09375-3.902343 2.230468.042969 3.996093 1.847656 3.953124 4.046875zm0 0" fill="none" stroke="#000" stroke-width=".524604"/><path d="m509.058594 215.917969c-.042969 2.058593-1.953125 3.695312-4.28125 3.65625-2.328125-.050781-4.183594-1.75-4.148438-3.804688.039063-2.058593 1.949219-3.691406 4.277344-3.652343 2.328125.042968 4.183594 1.742187 4.152344 3.800781zm0 0" fill="#006b3f" fill-rule="evenodd"/><path d="m509.058594 215.917969c-.042969 2.058593-1.953125 3.695312-4.28125 3.652343-2.328125-.046874-4.183594-1.746093-4.152344-3.800781.042969-2.058593 1.957031-3.691406 4.28125-3.652343 2.328125.042968 4.183594 1.742187 4.152344 3.800781zm0 0" fill="none" stroke="#000" stroke-width=".525655"/><path d="m508.578125 211.214844c-.039063 2.058594-1.953125 3.683594-4.28125 3.644531s-4.183594-1.742187-4.152344-3.800781c.042969-2.050782 1.957031-3.6875 4.28125-3.644532 2.328125.039063 4.183594 1.742188 4.152344 3.800782zm0 0" fill="#006b3f" fill-rule="evenodd"/><path d="m508.578125 211.214844c-.042969 2.058594-1.953125 3.6875-4.28125 3.644531-2.328125-.039063-4.183594-1.742187-4.152344-3.800781.042969-2.050782 1.953125-3.6875 4.28125-3.644532 2.328125.039063 4.183594 1.742188 4.152344 3.800782zm0 0" fill="none" stroke="#000" stroke-width=".525655"/><path d="m502.480469 216.855469c-.039063 2.1875-1.871094 3.9375-4.097657 3.898437-2.222656-.042968-3.988281-1.851562-3.957031-4.046875.039063-2.1875 1.878907-3.929687 4.101563-3.890625 2.21875.042969 3.996094 1.847656 3.953125 4.039063zm0 0" fill="#006b3f" fill-rule="evenodd"/><path d="m502.484375 216.855469c-.042969 2.1875-1.875 3.9375-4.105469 3.898437-2.222656-.042968-3.984375-1.847656-3.953125-4.046875.039063-2.1875 1.878907-3.929687 4.101563-3.890625 2.222656.042969 3.996094 1.847656 3.957031 4.039063zm0 0" fill="none" stroke="#000" stroke-width=".524604"/><path d="m503.695312 211.773438c-.042968 2.144531-1.871093 3.851562-4.09375 3.808593-2.222656-.03125-3.996093-1.804687-3.957031-3.953125.035157-2.148437 1.875-3.859375 4.09375-3.816406 2.222657.042969 3.996094 1.816406 3.957031 3.960938zm0 0" fill="#006b3f" fill-rule="evenodd"/><path d="m503.695312 211.777344c-.042968 2.140625-1.871093 3.847656-4.09375 3.804687-2.222656-.03125-3.996093-1.804687-3.957031-3.953125.035157-2.148437 1.875-3.859375 4.09375-3.816406 2.222657.042969 3.996094 1.8125 3.957031 3.964844zm0 0" fill="none" stroke="#000" stroke-width=".524823"/><path d="m497.511719 211.90625c-.042969 2.191406-2.085938 3.929688-4.566407 3.890625-2.484374-.050781-4.460937-1.855469-4.421874-4.054687.042968-2.1875 2.085937-3.929688 4.566406-3.882813 2.484375.042969 4.460937 1.855469 4.421875 4.046875zm0 0" fill="#006b3f" fill-rule="evenodd"/><path d="m497.507812 211.90625c-.039062 2.1875-2.082031 3.929688-4.5625 3.890625-2.480468-.050781-4.460937-1.855469-4.417968-4.054687.039062-2.1875 2.082031-3.929688 4.5625-3.878907 2.484375.039063 4.460937 1.855469 4.417968 4.042969zm0 0" fill="none" stroke="#000" stroke-width=".525671"/><path d="m505.492188 205.324219c-.03125 2.058593-1.953126 3.691406-4.28125 3.652343-2.316407-.042968-4.183594-1.742187-4.140626-3.800781.03125-2.058593 1.953126-3.695312 4.28125-3.65625 2.328126.050781 4.183594 1.75 4.140626 3.804688zm0 0" fill="#006b3f" fill-rule="evenodd"/><path d="m505.492188 205.324219c-.03125 2.058593-1.953126 3.691406-4.28125 3.652343-2.316407-.042968-4.183594-1.742187-4.140626-3.800781.03125-2.058593 1.953126-3.695312 4.28125-3.652343 2.328126.046874 4.183594 1.746093 4.140626 3.800781zm0 0" fill="none" stroke="#000" stroke-width=".525655"/><path d="m499.675781 206.03125c-.035156 2.148438-1.875 3.855469-4.09375 3.816406-2.222656-.042968-3.996093-1.816406-3.957031-3.957031.042969-2.148437 1.871094-3.855469 4.09375-3.816406 2.222656.042969 3.996094 1.808593 3.957031 3.957031zm0 0" fill="#006b3f" fill-rule="evenodd"/><path d="m499.675781 206.03125c-.035156 2.148438-1.871093 3.855469-4.09375 3.816406-2.222656-.042968-3.996093-1.816406-3.957031-3.957031.042969-2.148437 1.871094-3.855469 4.09375-3.816406 2.222656.042969 3.996094 1.808593 3.957031 3.957031zm0 0" fill="none" stroke="#000" stroke-width=".524823"/><path d="m491.136719 212.117188c-.039063 2.1875-1.871094 3.9375-4.09375 3.898437-2.21875-.039063-3.996094-1.847656-3.953125-4.042969.039062-2.191406 1.871094-3.933594 4.09375-3.890625 2.21875.03125 3.996094 1.847657 3.953125 4.035157zm0 0" fill="#006b3f" fill-rule="evenodd"/><path d="m491.136719 212.117188c-.039063 2.191406-1.871094 3.9375-4.09375 3.898437-2.222657-.039063-3.992188-1.847656-3.953125-4.046875.039062-2.1875 1.871094-3.929688 4.09375-3.886719 2.222656.03125 3.992187 1.847657 3.953125 4.035157zm0 0" fill="none" stroke="#000" stroke-width=".524604"/><path d="m492.539062 209.15625c-.042968 2.148438-1.871093 3.855469-4.09375 3.816406-2.222656-.042968-3.996093-1.816406-3.957031-3.957031.03125-2.148437 1.871094-3.855469 4.09375-3.816406 2.222657.042969 3.996094 1.808593 3.957031 3.957031zm0 0" fill="#006b3f" fill-rule="evenodd"/><path d="m492.539062 209.15625c-.042968 2.148438-1.871093 3.855469-4.097656 3.816406-2.21875-.042968-3.992187-1.816406-3.953125-3.957031.03125-2.148437 1.871094-3.855469 4.09375-3.816406 2.222657.042969 3.996094 1.808593 3.957031 3.957031zm0 0" fill="none" stroke="#000" stroke-width=".524823"/><path d="m494.246094 205.882812c-.039063 2.148438-1.871094 3.859376-4.09375 3.816407-2.222656-.039063-3.996094-1.8125-3.953125-3.953125.03125-2.148438 1.871093-3.859375 4.09375-3.816406 2.21875.039062 3.996093 1.804687 3.953125 3.953124zm0 0" fill="#006b3f" fill-rule="evenodd"/><path d="m494.246094 205.882812c-.039063 2.148438-1.871094 3.859376-4.09375 3.816407-2.222656-.039063-3.996094-1.8125-3.953125-3.953125.03125-2.148438 1.871093-3.859375 4.089843-3.816406 2.222657.039062 3.996094 1.804687 3.957032 3.953124zm0 0" fill="none" stroke="#000" stroke-width=".524823"/><path d="m528.949219 246.101562c8.21875 19.125 9.355469 36.574219 2.554687 38.972657-6.8125 2.410156-18.988281-11.148438-27.207031-30.265625-8.21875-19.125-9.359375-36.570313-2.554687-38.972656 6.804687-2.402344 18.984374 11.148437 27.207031 30.265624zm0 0" fill="#006b3f" fill-rule="evenodd"/><path d="m528.949219 246.101562c8.21875 19.125 9.355469 36.570313 2.554687 38.972657-6.8125 2.410156-18.988281-11.148438-27.207031-30.265625-8.21875-19.125-9.359375-36.570313-2.554687-38.972656 6.804687-2.398438 18.984374 11.148437 27.207031 30.265624zm0 0" fill="none" stroke="#000" stroke-width=".414194"/><path d="m529.652344 255.421875c1.777344 3.976563 2.199218 7.6875.9375 8.289063-1.261719.59375-3.726563-2.136719-5.507813-6.117188-1.773437-3.980469-2.199219-7.691406-.9375-8.292969 1.261719-.601562 3.726563 2.140625 5.507813 6.121094zm0 0" fill="#006b3f" fill-rule="evenodd"/><path d="m529.65625 255.417969c1.773438 3.980469 2.195312 7.695312.933594 8.292969-1.261719.59375-3.726563-2.140626-5.507813-6.117188-1.773437-3.980469-2.199219-7.691406-.9375-8.292969 1.261719-.601562 3.726563 2.140625 5.511719 6.117188zm0 0" fill="none" stroke="#000" stroke-width=".385752"/><path d="m526.222656 256.503906c10.675782 12.992188 9.324219 21.246094 8.207032 28.230469-3.351563-8.050781-5.183594-13.121094-15.859376-26.125-10.675781-12.996094-5.34375-22.117187-4.613281-26.929687 1.601563 4.160156 1.585938 11.816406 12.265625 24.824218zm0 0" fill="#006b3f" fill-rule="evenodd"/><path d="m526.21875 256.503906c10.679688 12.996094 9.328125 21.246094 8.214844 28.230469-3.355469-8.050781-5.183594-13.121094-15.863282-26.125-10.675781-12.996094-5.34375-22.117187-4.613281-26.925781 1.601563 4.15625 1.585938 11.8125 12.261719 24.820312zm0 0" fill="none" stroke="#000" stroke-width=".401986"/><path d="m527.179688 267c10.679687 12.996094 9.328124 21.246094 8.210937 28.230469-3.351563-8.046875-5.183594-13.117188-15.859375-26.121094-10.675781-12.996094-5.347656-22.121094-4.613281-26.929687 1.601562 4.167968 1.585937 11.816406 12.261719 24.820312zm0 0" fill="#006b3f" fill-rule="evenodd"/><path d="m527.179688 267c10.679687 12.996094 9.328124 21.25 8.210937 28.230469-3.351563-8.046875-5.183594-13.117188-15.859375-26.121094-10.675781-12.996094-5.347656-22.121094-4.613281-26.929687 1.601562 4.167968 1.585937 11.816406 12.261719 24.820312zm0 0" fill="none" stroke="#000" stroke-width=".401986"/><path d="m527.496094 275.457031c10.9375 12.769531 9.761718 21.042969 8.78125 28.050781-3.511719-7.976562-5.441406-13.003906-16.378906-25.78125-10.9375-12.769531-5.789063-21.996093-5.152344-26.824218 1.683594 4.125 1.824218 11.785156 12.75 24.554687zm0 0" fill="#006b3f" fill-rule="evenodd"/><path d="m527.5 275.457031c10.9375 12.769531 9.753906 21.042969 8.78125 28.050781-3.515625-7.976562-5.449219-13.003906-16.386719-25.78125-10.933593-12.769531-5.78125-21.996093-5.148437-26.824218 1.683594 4.125 1.824218 11.785156 12.753906 24.554687zm0 0" fill="none" stroke="#000" stroke-width=".384398"/><path d="m524.445312 243.101562c3.132813 7.085938 3.644532 13.351563 1.148438 13.984376-2.496094.636718-7.070312-4.597657-10.203125-11.683594-3.132813-7.097656-3.648437-13.355469-1.148437-14 2.496093-.632813 7.070312 4.601562 10.203124 11.699218zm0 0" fill="#006b3f" fill-rule="evenodd"/><path d="m524.445312 243.097656c3.132813 7.089844 3.648438 13.355469 1.148438 13.988282-2.496094.636718-7.070312-4.597657-10.203125-11.683594-3.136719-7.097656-3.648437-13.355469-1.148437-14 2.496093-.632813 7.070312 4.601562 10.203124 11.695312zm0 0" fill="none" stroke="#000" stroke-width=".459149"/><path d="m519.75 250.765625c2.441406 5.875 2.589844 10.945313.34375 11.328125-2.257812.390625-6.046875-4.054688-8.488281-9.929688-2.433594-5.867187-2.589844-10.9375-.34375-11.328124 2.253906-.382813 6.054687 4.0625 8.488281 9.929687zm0 0" fill="#006b3f" fill-rule="evenodd"/><path d="m519.75 250.765625c2.441406 5.875 2.589844 10.945313.34375 11.328125-2.253906.390625-6.046875-4.054688-8.488281-9.929688-2.433594-5.867187-2.589844-10.9375-.34375-11.328124 2.253906-.382813 6.054687 4.0625 8.488281 9.929687zm0 0" fill="none" stroke="#000" stroke-width=".481083"/><path d="m514.707031 255.761719c2.308594 5.914062 2.359375 10.996093.101563 11.328125-2.261719.339844-5.960938-4.183594-8.273438-10.101563-2.320312-5.921875-2.359375-10.992187-.105468-11.335937 2.253906-.339844 5.964843 4.183594 8.277343 10.109375zm0 0" fill="#006b3f" fill-rule="evenodd"/><path d="m514.707031 255.761719c2.308594 5.914062 2.355469 10.992187.105469 11.328125-2.261719.34375-5.96875-4.183594-8.277344-10.101563-2.320312-5.921875-2.359375-10.992187-.105468-11.335937 2.253906-.339844 5.964843 4.183594 8.277343 10.109375zm0 0" fill="none" stroke="#000" stroke-width=".488441"/><path d="m518.101562 238.003906c2.097657 4.378906 2.316407 8.195313.503907 8.53125-1.824219.332032-5-2.949218-7.089844-7.320312-2.09375-4.375-2.320313-8.191406-.496094-8.527344 1.8125-.332031 4.988281 2.949219 7.082031 7.316406zm0 0" fill="#006b3f" fill-rule="evenodd"/><path d="m518.101562 238.003906c2.097657 4.378906 2.316407 8.195313.5 8.527344-1.820312.335938-4.996093-2.945312-7.085937-7.3125-2.09375-4.378906-2.320313-8.195312-.496094-8.53125 1.8125-.332031 4.988281 2.949219 7.082031 7.316406zm0 0" fill="none" stroke="#000" stroke-width=".471906"/><path d="m513.84375 241.480469c1.816406 4.480469 1.804688 8.300781-.035156 8.535156-1.835938.238281-4.800782-3.214844-6.613282-7.691406-1.816406-4.484375-1.808593-8.308594.03125-8.542969 1.839844-.230469 4.800782 3.214844 6.617188 7.699219zm0 0" fill="#006b3f" fill-rule="evenodd"/><path d="m513.84375 241.480469c1.8125 4.480469 1.804688 8.300781-.035156 8.535156-1.835938.238281-4.800782-3.214844-6.613282-7.691406-1.816406-4.480469-1.808593-8.308594.03125-8.542969 1.839844-.230469 4.800782 3.214844 6.617188 7.699219zm0 0" fill="none" stroke="#000" stroke-width=".492791"/><path d="m507.183594 236.855469c3.160156 7.71875 4.4375 14.652343 2.851562 15.488281-1.585937.828125-5.429687-4.753906-8.585937-12.464844zm0 0" fill="#006b3f" fill-rule="evenodd"/><path d="m507.1875 236.855469c3.15625 7.714843 4.433594 14.648437 2.847656 15.488281-1.589844.832031-5.429687-4.75-8.585937-12.46875" fill="none" stroke="#000" stroke-width=".394827"/><path d="m513.324219 232.421875c1.820312 4.476563 1.804687 8.300781-.035157 8.535156-1.839843.230469-4.800781-3.214843-6.617187-7.695312-1.8125-4.488281-1.796875-8.304688.035156-8.539063 1.839844-.234375 4.800781 3.214844 6.617188 7.699219zm0 0" fill="#006b3f" fill-rule="evenodd"/><path d="m513.324219 232.421875c1.820312 4.476563 1.804687 8.300781-.035157 8.539063-1.835937.226562-4.800781-3.214844-6.617187-7.699219-1.8125-4.484375-1.796875-8.300781.035156-8.539063 1.839844-.234375 4.800781 3.214844 6.617188 7.699219zm0 0" fill="none" stroke="#000" stroke-width=".492791"/><path d="m508.046875 235.023438c1.71875 4.519531 1.621094 8.34375-.226563 8.539062-1.839843.195312-4.71875-3.304688-6.4375-7.820312-1.714843-4.515626-1.617187-8.34375.222657-8.535157 1.84375-.195312 4.726562 3.304688 6.441406 7.816407zm0 0" fill="#006b3f" fill-rule="evenodd"/><path d="m508.046875 235.027344c1.71875 4.515625 1.621094 8.339844-.226563 8.535156-1.839843.195312-4.71875-3.304688-6.4375-7.820312-1.71875-4.515626-1.617187-8.339844.222657-8.539063 1.84375-.191406 4.726562 3.308594 6.441406 7.824219zm0 0" fill="none" stroke="#000" stroke-width=".499293"/><path d="m501.683594 226.382812c3.070312 5.21875 4.71875 10.082032 3.6875 10.863282-1.035156.792968-4.355469-2.804688-7.421875-8.015625zm0 0" fill="#006b3f" fill-rule="evenodd"/><path d="m501.683594 226.382812c3.070312 5.214844 4.722656 10.085938 3.6875 10.863282-1.035156.792968-4.355469-2.804688-7.421875-8.015625" fill="none" stroke="#000" stroke-width=".322258"/><path d="m503.808594 222.933594c3.070312 5.207031 4.71875 10.074218 3.6875 10.863281-1.035156.78125-4.363282-2.808594-7.421875-8.023437zm0 0" fill="#006b3f" fill-rule="evenodd"/><path d="m503.808594 222.933594c3.066406 5.210937 4.722656 10.074218 3.6875 10.863281-1.035156.78125-4.363282-2.808594-7.421875-8.023437" fill="none" stroke="#000" stroke-width=".322258"/><path d="m513.347656 223.65625c4.269532 7.121094 6.566406 13.769531 5.125 14.84375-1.4375 1.074219-6.070312-3.832031-10.34375-10.945312zm0 0" fill="#006b3f" fill-rule="evenodd"/><path d="m513.347656 223.660156c4.269532 7.121094 6.566406 13.765625 5.125 14.839844s-6.070312-3.832031-10.34375-10.945312" fill="none" stroke="#000" stroke-width=".321931"/><path d="m507.046875 219.929688c3.074219 5.753906 4.738281 11.125 3.703125 11.988281-1.023438.859375-4.363281-3.101563-7.4375-8.855469zm0 0" fill="#006b3f" fill-rule="evenodd"/><path d="m507.046875 219.929688c3.074219 5.753906 4.738281 11.125 3.703125 11.988281-1.023438.863281-4.363281-3.101563-7.4375-8.855469" fill="none" stroke="#000" stroke-width=".32375"/><path d="m506.769531 211.597656c-2.046875 2.066406-.039062 5.929688 1.839844 7.332032 2.109375 1.910156 13.949219 14.402343 22.308594 3.890624-6.699219-.121093-19.191407-15.835937-24.148438-11.222656zm0 0" fill="#9461c9" fill-rule="evenodd"/><path d="m506.769531 211.597656c-2.050781 2.066406-.039062 5.933594 1.839844 7.332032 2.109375 1.914062 13.949219 14.402343 22.308594 3.890624-6.699219-.125-19.191407-15.839843-24.148438-11.222656zm0 0" fill="none" stroke="#000" stroke-width=".493251"/><path d="m505.304688 205.425781c-2.050782 2.070313-.039063 5.941407 1.839843 7.335938 2.109375 1.910156 13.949219 14.402343 22.308594 3.898437-6.691406-.121094-19.191406-15.835937-24.148437-11.234375zm0 0" fill="#9461c9" fill-rule="evenodd"/><path d="m505.304688 205.429688c-2.050782 2.066406-.039063 5.941406 1.839843 7.328124 2.109375 1.914063 13.949219 14.40625 22.308594 3.902344-6.691406-.125-19.191406-15.839844-24.148437-11.230468zm0 0" fill="none" stroke="#000" stroke-width=".493251"/><path d="m503.433594 199.519531c-2.050782 2.066407-.039063 5.933594 1.839844 7.332031 2.109374 1.914063 13.949218 14.40625 22.304687 3.898438-6.695313-.121094-19.1875-15.835938-24.144531-11.230469zm0 0" fill="#9461c9" fill-rule="evenodd" stroke="#000" stroke-width=".493251"/><path d="m499.363281 192.757812c-2.046875 2.074219-.039062 5.941407 1.839844 7.339844 2.109375 1.914063 13.957031 14.40625 22.308594 3.890625-6.691407-.125-19.191407-15.839843-24.148438-11.230469zm0 0" fill="#9461c9" fill-rule="evenodd"/><path d="m499.367188 192.757812c-2.054688 2.074219-.042969 5.9375 1.835937 7.339844 2.109375 1.914063 13.957031 14.402344 22.308594 3.890625-6.691407-.125-19.191407-15.835937-24.144531-11.230469zm0 0" fill="none" stroke="#000" stroke-width=".493251"/><path d="m484.773438 186.296875c4.234374-3.152344 12.011718-4.070313 18.066406-.988281 5.046875 2.46875 13.460937 12.558594 19.773437 14.945312-4.441406.796875-7.152343.121094-9.992187-1.246094-5.613282 4.070313-7.617188 4.679688-13.347656 5.476563-7.957032 1.148437-14.566407-.917969-16.882813-5.070313-2.371094-3.921874-1.34375-10.207031 2.382813-13.117187zm0 0" fill="#9461c9" fill-rule="evenodd"/><path d="m484.773438 186.296875c4.234374-3.152344 12.011718-4.070313 18.066406-.984375 5.046875 2.464844 13.460937 12.554688 19.777344 14.941406-4.445313.796875-7.15625.121094-9.996094-1.246094-5.613282 4.066407-7.617188 4.679688-13.34375 5.476563-7.960938 1.148437-14.570313-.921875-16.886719-5.070313-2.371094-3.921874-1.34375-10.203124 2.382813-13.117187zm0 0" fill="none" stroke="#000" stroke-width=".502325"/><path d="m497.394531 192.644531c-.015625 1.160157-1.667969 2.082031-3.679687 2.039063-2.015625-.03125-3.628906-1.007813-3.609375-2.171875.023437-1.171875 1.667969-2.089844 3.6875-2.050781 2.007812.035156 3.628906 1.011718 3.601562 2.183593zm0 0" fill="#d41c30" fill-rule="evenodd"/><path d="m497.394531 192.644531c-.015625 1.160157-1.667969 2.082031-3.675781 2.039063-2.019531-.03125-3.632812-1.007813-3.613281-2.171875.023437-1.171875 1.667969-2.089844 3.6875-2.050781 2.007812.035156 3.628906 1.011718 3.601562 2.183593zm0 0" fill="none" stroke="#000" stroke-width=".481932"/><path d="m487.394531 199.355469c.59375 1.613281-1.050781 3.703125-3.6875 4.683593-2.628906.972657-5.242187.46875-5.835937-1.132812-.59375-1.605469 1.050781-3.695312 3.6875-4.679688 2.628906-.976562 5.242187-.472656 5.835937 1.128907zm0 0" fill="#fcd116" fill-rule="evenodd"/><path d="m487.394531 199.355469c.59375 1.613281-1.050781 3.703125-3.6875 4.679687-2.628906.976563-5.238281.472656-5.835937-1.128906-.59375-1.605469 1.050781-3.695312 3.6875-4.679688 2.628906-.976562 5.242187-.472656 5.835937 1.128907zm0 0" fill="none" stroke="#000" stroke-width=".42598"/><path d="m494.882812 192.457031c-.019531.625-.613281 1.121094-1.335937 1.113281-.722656-.015624-1.304687-.535156-1.285156-1.164062.007812-.617188.601562-1.121094 1.324219-1.105469.726562.015625 1.304687.527344 1.296874 1.15625zm0 0" fill-rule="evenodd"/><path d="m485.726562 195.402344c.332032 1.625-.871093 3.824218-3.484374 4.597656-2.660157 1.097656-4.679688 3.605469-5.84375 7.691406-4.050782-9.320312-1.480469-13.265625 2.824218-14.226562 3.695313-1.179688 5.925782-1.023438 6.503906 1.9375zm0 0" fill="#fcd116" fill-rule="evenodd"/><path d="m485.726562 195.402344c.332032 1.628906-.871093 3.824218-3.484374 4.597656-2.660157 1.097656-4.679688 3.605469-5.84375 7.691406-4.050782-9.320312-1.480469-13.265625 2.824218-14.226562 3.695313-1.179688 5.925782-1.023438 6.503906 1.9375zm0 0" fill="none" stroke="#000" stroke-width=".601732"/><path d="m482.746094 196.058594c.03125.53125-.363282.96875-.867188 1.003906-.515625.023438-.953125-.375-.988281-.902344-.023437-.523437.367187-.96875.878906-.992187.515625-.035157.945313.371093.976563.890625zm0 0" fill-rule="evenodd"/></svg>