<svg viewBox="0 0 1000 500" xmlns="http://www.w3.org/2000/svg"><path d="m0 0h1000v500h-1000z" fill="#dc241f"/><g fill-rule="evenodd"><path d="m0 0v500l500-250zm0 0" fill="#ffc726"/><path d="m0 0v500l333.332031-250zm0 0"/><path d="m85.867188 171.738281 13.03125 86.523438 41.207031-6.207031zm0 0" fill="#fff"/><path d="m85.867188 171.738281 61.402343 62.339844-29.6875 29.234375zm0 0" fill="#fff"/><path d="m187.335938 188.601562-78.257813 39.128907 18.632813 37.269531zm0 0" fill="#fff"/><path d="m187.335938 188.601562-40.308594 77.65625-36.984375-19.199218zm0 0" fill="#fff"/><path d="m38.476562 263.03125 86.316407 14.34375 6.832031-41.101562zm0 0" fill="#fff"/><path d="m38.476562 263.03125 78.261719-39.132812 18.636719 37.273437zm0 0" fill="#fff"/><path d="m202.660156 290.316406-61.402344-62.34375-29.6875 29.242188zm0 0" fill="#fff"/><path d="m202.660156 290.316406-86.320312-14.34375 6.832031-41.105468zm0 0" fill="#fff"/><path d="m110.65625 336.316406 40.316406-77.65625-36.980468-19.203125zm0 0" fill="#fff"/><path d="m110.65625 336.316406-13.03125-86.523437 41.203125-6.207031zm0 0" fill="#fff"/></g></svg>