<svg viewBox="0 0 1000 500" xmlns="http://www.w3.org/2000/svg"><path d="m0 0h1000v500h-1000z" fill="#ea0437"/><g fill-rule="evenodd"><path d="m0 500h1000v-250zm0 0" fill="#4189dd"/><path d="m0 0h1000v250zm0 0" fill="#12ad2b"/><path d="m230.25 369.160156c-10.8125 2.988282-17.007812 11.371094-16.851562 19.289063l53.210937-.214844c.480469-8.503906-6.515625-16.371094-17.164063-19.464844 52.097657-1.078125 97.355469-20.589843 105.578126-33.109375-8.136719-3.535156-17.546876 2.148438-24.257813.839844 15.929687-7.359375 63.648437-38.246094 55.890625-71.359375-6.03125 18.390625-24.296875 33.609375-32.082031 37.695313 17.828125-27.070313 42.167969-55.25 21.050781-77.070313 1.066406 12.648437-8.039062 26.566406-12.054688 27.613281 10.335938-28.597656 20.203126-64.507812-2.199218-88.179687 2.941406 8.554687 1.753906 32.691406-2.296875 33.777343-1.246094-19.449218-4.566407-60.355468-25.050781-59.773437 6.507812 5.792969 9.355468 21.597656 9.496093 37.5625-4.667969-10.9375-9.96875-19.171875-21.316406-27.246094-9.175781-17.601562-25.507813-32.1875-41.84375-42.632812 1.839844 12.8125 3.355469 22.917969 21.242187 36.210937-9.328124-.582031-18.652343-18.265625-28.617187-18.757812-7.929687-.378906-14.152344 7.1875-27.109375 2.832031 1.433594 4.277344 7.480469 6.171875 8.753906 9.335937-2.773437 1.914063-9.359375-.300781-14.839844-3.152343 7.535157 10.261719 19.210938 16.296875 29.121094 14.261719 11.789063-2.265626 24.425782-1.070313 36.476563 5.792968-3.078125 1.578125-15.058594 1.570313-22.75.605469 6.992187 7.078125 11.679687 11.765625 23.832031 11.6875 10.855469-.066406 16.542969-5.789063 19.332031-2.246094 6.808594 8.066407 11.390625 16.132813 17.085938 25.628907-12.578125 1.386718-8.789063-14.226563-22.800781-22.214844-7.871094 16.292968 9.054687 35.605468 20.578124 43.636718.15625 12.246094 1.949219 22.488282 7.136719 31.816407 3.507813 6.570312 8.035157 13.300781 6.324219 28.140625-6.898438-5.023438-13.636719-21.96875-11.15625-35.417969-8.632812 2.355469-12.007812 17.535156-7.941406 25.179687 3.039062 5.820313 5.070312 16.949219 1.5625 21.925782-3.417969 4.640625-3.773438 4.117187-3.730469 14.070312.125 5.953125-3.199219 12.996094-8.621094 17.910156 1.132813-4.195312 2.421875-11.417968 1.167969-15.929687-4.285156 7.265625-15.023438 14.785156-18.410156 22.59375-3.324219 7.832031-4.164063 21.390625-20.25 24.519531-20.679688 4.101563-27.820313 7.691406-41.132813 13.136719-1.476562-10.109375 2.945313-31.191406 11.398438-29.992187 8.257812 1.46875 33.28125-8.621094 24.324219-29.707032-1.765626 6.644532-7.664063 13.132813-14.039063 13.417969 6.886719-8.9375 19.183594-18.191406 13.195313-33.171875-3.328126 6.367188-8.5625 14.007812-16.503907 18.308594 8.511719-16.3125.992188-21.191406-9.117187-7.757813-3.816406 5.179688-6.121094 15.566407-8.546875 28.753907-3.96875-10.726563-3.707031-24.84375-8.410157-36.3125-4.917968-12.398438 6.519532-15.667969 11.90625-14.675782 13.171876 3.519532 35.195313 3.511719 33.558594-18.253906-5.695312 7.363281-15.667968 9.640625-26.449218 6.988281 12.105468-8.839843 21.660156-25.464843 8.171874-34.148437-.449218 9.210937-7.574218 19.527344-17.078124 24.285156-2.226563-7.769531-2.226563-16.011719-.320313-25.050781-5.3125 5.59375-9.1875 17.222656-12.273437 30.445312-.230469-13.070312 2.242187-22.484375 4.074218-29.515625 2.777344-10.269531 9.6875-3.589844 20.261719-2.832031 10.179687.582031 24.203125-5.050781 21.523437-18.859375-3.476562 5.464844-10.617187 7.589844-17.90625 7.011719 8.78125-5.316407 24.074219-14.769531 15.683594-29.304688-3.519531 5.5-4.664062 10.214844-14.863281 11.902344 2.671875-6.148437 3.117187-14.832031 11.03125-18.277344-14.121094-2.8125-22.207031 6.457031-26.316406 20.972657-1.667969-10.0625-3.648438-13.769532-4.046875-21.128907 7.632812-8.480469 8.433594-25.066406-8.09375-28.773437-.980469 8.554687-.6875 10.589844 1.191406 17.558594-7.757812-4.609376-18.691406-7.152344-25.972656-.632813 4.933594 5.320313 12.5625 10.007813 24.332031 4.203125-2.777344 9.089844-10.007813 7.535156-19.941406 4.066406 6.074219 11.40625 13.734375 13.433594 22.191406 12.121094 4.425781 11.667969 4.621094 20.542969-8.3125 37.539062.59375-10.5625-.15625-18.433593-8.550781-26.972656-7.195313-7.046875-13.039063.296875-1.796875 15.960938-6.816407-5.023438-14.535157-15.214844-16.863281-25.40625-2.246094 12.589844-.222657 27.425781 6.75 35.742187-3.296876 3.527344-7.046876-.371093-12.589844-8.988281 2.097656 27.578125 13.863281 32.894531 29.675781 26.746094.449219 15.140625.449219 29.152344 1.347656 47.4375-9.21875-13.261719-20.910156-23.152344-27.429687-25.625-2.019532 7.417968 5.621094 17.082031 9.894531 22.476562-6.519531-1.347656-20.683594-12.140625-20.683594-12.140625-1.425781 12.292969 14.464844 23.683594 24.730469 28.777344-12.066406-.523437-17.386719-5.09375-25.179688-12.589844.152344 34.097657 36.945313 28.175781 43.839844 22.929688.894532 16.789062 2.179688 36.191406 3.078125 52.980469-10.398437-1.816407-9.585937-4.945313-18.484375-5.765626-24.699218-.964843-44.292968-29.65625-50.78125-50.757812-1.863281 3.472656-.386718 7.109375-2.089844 11.371094-4.011718-10.355469-9.132812-23.734375-16-29.960938 1.746094 6.039063 1.933594 12.175782 1.320313 23.460938-2.355469-7.3125-4.550781-9.554688-4.707031-18.136719.152344-6.59375 6.359375-11.453125 6.011718-20.722656-.253906-6.769531-6.425781-21.4375-7.335937-32.789063-2.988281 11.683594-4.863281 24.003906-9.441406 31.238282 2.277343-12.480469 1.546875-21.09375 5.394531-29.492188 4.449219-8.839844 8.230469-16.738281 5.265625-25.664062-2.839844 3.449218-1.863281 6.582031-8.992187 14.957031-1.550782-9.105469 9.21875-23.6875 19.675781-29.546875 7.367187-3.882813 16.664062-17.773438 10.609375-27.296875-6.933594 4.976562-10.042969 11.707031-19.839844 23.199219 6.988281-27.300782 25.132812-34.449219 46.859375-34.542969 4.8125-.019531 14.503906-1.757813 17.222656-8.121094-6.121093 2.363281-13.363281 2.664063-19.808593 1.375 4.691406-6.882813 14.570312-5.988281 23.769531-6.027344 7.222656-.035156 18.492187-1.015625 23.046875-11.292969-8.808594 3.8125-22.539063 4.605469-31.1875 1.902344 13.75-7.125 35.292968-7.890625 46.339844-17.242187-12.59375-9.398438-44.101563 2.1875-64.003907 15.839843 5.558594-5.085937 14.355469-14.109374 19.203125-21.394531-10.882812-5.222656-38.414062 25.277344-47.894531 43.398438-9.007813 5.085937-12.613281 13.0625-16.109375 18.628906 4.800781-16.222656 5.308594-27.992187 9.3125-41.34375-30.878906 10.628906-18.042969 67.679687-24.761719 81.328125.789063-15.070312.152344-34.429688-6.054687-44.410156-9.507813 7.257812-10.277344 49.960937-1.347656 85.511718-3.222657-9.515624-9.3125-18.398437-11.257813-29.972656-14.078125 25.667969 8.246094 55.953125 26.917969 79.875-14.058594-7.320312-27.953125-23.066406-37.082032-36.265625 2.519532 45.949219 50.5 55.496094 57.949219 66.785157-10.109375-4.703126-29.4375-14.019532-37.640625-4.257813 13.355469 3.082031 24.003906 6.644531 32.585938 12.269531 12.453125 15.546875 36.03125 22.347656 77.097656 24.0625zm0 0" fill="#ffc726"/></g></svg>