<svg viewBox="0 0 1000 500" xmlns="http://www.w3.org/2000/svg"><path d="m0 0h1000v500h-1000z" fill="#da121a"/><g fill-rule="evenodd"><path d="m0 0h1000v333.332031h-1000zm0 0" fill="#fcdd09"/><path d="m0 0h1000v166.667969h-1000zm0 0" fill="#078930"/><path d="m666.667969 250c0 92.050781-74.617188 166.667969-166.667969 166.667969s-166.667969-74.617188-166.667969-166.667969 74.617188-166.667969 166.667969-166.667969 166.667969 74.617188 166.667969 166.667969zm0 0" fill="#0f47af"/><path d="m373.195312 208.28125h96.871094l21.902344-67.414062 5.839844 17.980468-31.828125 97.960938-9.453125-6.867188 9.929687-30.554687h-77.972656zm48.433594 149.066406 29.933594-92.128906-57.339844-41.664062h18.898438l83.335937 60.546874-9.453125 6.863282-25.988281-18.878906-24.09375 74.15625zm156.742188 0-78.371094-56.9375-57.34375 41.664063 5.84375-17.976563 83.332031-60.546875 3.609375 11.113281-25.988281 18.878907 63.078125 45.828125zm48.433594-149.066406-78.367188 56.9375 21.902344 67.410156-15.292969-11.109375-31.828125-97.964843h11.679688l9.925781 30.554687 63.082031-45.828125zm-126.804688-92.132812 29.933594 92.132812h70.878906l-15.289062 11.105469h-103.003907l3.609375-11.105469h32.125l-24.097656-74.152344zm0 0" fill="#fcdd09"/><path d="m500 311.113281v72.21875zm-58.121094-42.230469-68.683594 22.320313zm22.199219-68.320312-42.445313-58.433594zm71.84375 0 42.449219-58.433594zm22.199219 68.320312 68.683594 22.320313zm0 0"/></g><path d="m500 311.113281v72.21875" fill="none" stroke="#fcdd09" stroke-width="5.555554"/><path d="m441.878906 268.882812-68.683594 22.320313" fill="none" stroke="#fcdd09" stroke-width="5.555554"/><path d="m464.078125 200.5625-42.445313-58.433594" fill="none" stroke="#fcdd09" stroke-width="5.555554"/><path d="m535.921875 200.5625 42.449219-58.433594" fill="none" stroke="#fcdd09" stroke-width="5.555554"/><path d="m558.121094 268.882812 68.683594 22.320313zm0 0" fill="none" stroke="#fcdd09" stroke-width="5.555554"/></svg>