<svg viewBox="0 0 1000 667" xmlns="http://www.w3.org/2000/svg" xmlns:xlink="http://www.w3.org/1999/xlink"><clipPath id="a"><path d="m0 0h1000v666.71875h-1000zm0 0"/></clipPath><g clip-path="url(#a)"><path d="m0 666.667969v-666.667969h1000v666.667969zm0 0" fill="#ce1126" fill-rule="evenodd"/></g><path d="m0 166.667969h1000v333.332031h-1000zm0 0" fill="#fff" fill-rule="evenodd"/><path d="m466.453125 459.007812c-10.292969.585938-20.554687 7.53125-25.355469 11.257813 8.625 3.773437 17.847656 6.71875 27.652344 8.746094 15.625 2.621093 31.25 2.605469 46.875 2.605469 2.546875-.324219 5.078125-.683594 7.550781-1.101563l32.921875-11.089844s-15.839844-10.449219-28.386718-10.003906c-12.558594.457031-21.03125 12.738281-31.144532 11.824219-10.125-.898438-14.175781-12.238282-28.75-12.238282-.457031 0-.90625-.023437-1.363281 0zm0 0" fill="#083d9c" fill-rule="evenodd" stroke="#083d9c" stroke-width="3.427621"/><path d="m406.679688 450.511719 187.046874.796875s-16.195312-17.203125-35.222656-17.601563c-19.035156-.398437-13.769531 8-28.34375 9.207031-14.578125 1.195313-18.222656-8.808593-31.578125-8.410156-13.359375.398438-21.050781 8.410156-31.175781 8.804688-10.113281.398437-23.070312-10-30.769531-9.601563-7.6875.398438-35.21875 12.003907-35.21875 12.003907zm0 0" fill="#083d9c" fill-rule="evenodd" stroke="#083d9c" stroke-width="3.219848"/><path d="m382.796875 428.507812 230.761719.796876c3.644531-5.199219-11.335938-17.601563-25.097656-18.808594-11.335938.398437-19.433594 11.605468-28.746094 12.007812-9.308594.394532-19.835938-11.609375-30.359375-11.199218-10.53125.398437-21.460938 11.199218-31.984375 11.199218-10.53125 0-18.222656-11.609375-31.582032-11.609375-13.355468 0-19.433593 12.8125-29.550781 12.003907-10.125-.796876-19.035156-12.796876-28.75-12.796876-9.710937 0-25.90625 14.402344-29.144531 13.605469-3.238281-.808593 4.046875 5.996094 4.453125 4.800781zm0 0" fill="#083d9c" fill-rule="evenodd" stroke="#083d9c" stroke-width="3.219848"/><path d="m471.453125 301.667969 53.042969 14.003906v-74.820313c-24.292969 1.199219-44.53125-45.613281-1.621094-48.816406-42.105469-6-46.960938 4.796875-51.824219 16.40625zm0 0" fill="#ce1126" fill-rule="evenodd" stroke="#630810" stroke-width="3.219848"/><path d="m437.859375 356.085938 119.832031.398437zm0 0" fill="#630810" fill-rule="evenodd"/><path d="m437.859375 356.085938 119.832031.398437" fill="none" stroke="#630810" stroke-width="4.652673"/><path d="m443.523438 327.675781 14.167968 18.808594zm0 0" fill="#630810" fill-rule="evenodd"/><path d="m443.523438 327.679688 14.167968 18.804687" fill="none" stroke="#630810" stroke-width="4.652673"/><path d="m443.523438 346.484375 15.386718-18.40625zm0 0" fill="#630810" fill-rule="evenodd"/><path d="m443.523438 346.484375 15.386718-18.410156" fill="none" stroke="#630810" stroke-width="4.652673"/><path d="m451.617188 326.472656-.40625 11.605469zm0 0" fill="#630810" fill-rule="evenodd"/><path d="m451.617188 326.472656-.40625 11.605469" fill="none" stroke="#630810" stroke-width="4.652673"/><path d="m466.195312 327.675781 14.167969 18.808594zm0 0" fill="#630810" fill-rule="evenodd"/><path d="m466.195312 327.679688 14.167969 18.804687" fill="none" stroke="#630810" stroke-width="4.652673"/><path d="m466.195312 346.484375 15.386719-18.40625zm0 0" fill="#630810" fill-rule="evenodd"/><path d="m466.195312 346.484375 15.386719-18.410156" fill="none" stroke="#630810" stroke-width="4.652673"/><path d="m474.292969 326.472656-.40625 11.605469zm0 0" fill="#630810" fill-rule="evenodd"/><path d="m474.292969 326.472656-.40625 11.605469" fill="none" stroke="#630810" stroke-width="4.652673"/><path d="m489.273438 327.675781 14.167968 18.808594zm0 0" fill="#630810" fill-rule="evenodd"/><path d="m489.273438 327.679688 14.167968 18.804687" fill="none" stroke="#630810" stroke-width="4.652673"/><path d="m489.273438 346.484375 15.378906-18.40625zm0 0" fill="#630810" fill-rule="evenodd"/><path d="m489.273438 346.484375 15.378906-18.410156" fill="none" stroke="#630810" stroke-width="4.652673"/><path d="m497.371094 326.472656-.40625 11.605469zm0 0" fill="#630810" fill-rule="evenodd"/><path d="m497.371094 326.472656-.40625 11.605469" fill="none" stroke="#630810" stroke-width="4.652673"/><path d="m513.160156 327.675781 14.167969 18.808594zm0 0" fill="#630810" fill-rule="evenodd"/><path d="m513.160156 327.679688 14.167969 18.804687" fill="none" stroke="#630810" stroke-width="4.652673"/><path d="m513.160156 346.484375 15.378906-18.40625zm0 0" fill="#630810" fill-rule="evenodd"/><path d="m513.160156 346.484375 15.378906-18.410156" fill="none" stroke="#630810" stroke-width="4.652673"/><path d="m521.257812 326.472656-.40625 11.605469zm0 0" fill="#630810" fill-rule="evenodd"/><path d="m521.257812 326.472656-.40625 11.605469" fill="none" stroke="#630810" stroke-width="4.652673"/><path d="m536.230469 327.675781 14.175781 18.808594zm0 0" fill="#630810" fill-rule="evenodd"/><path d="m536.230469 327.679688 14.175781 18.804687" fill="none" stroke="#630810" stroke-width="4.652673"/><path d="m536.230469 346.484375 15.386719-18.40625zm0 0" fill="#630810" fill-rule="evenodd"/><path d="m536.230469 346.484375 15.386719-18.410156" fill="none" stroke="#630810" stroke-width="4.652673"/><path d="m544.328125 326.472656-.398437 11.605469zm0 0" fill="#630810" fill-rule="evenodd"/><path d="m544.328125 326.472656-.398437 11.605469" fill="none" stroke="#630810" stroke-width="4.652673"/><g fill-rule="evenodd"><path d="m357.292969 357.285156 51.007812.398438v-31.609375l-58.300781-2.800781zm0 0" fill="#ff9c10"/><path d="m354.859375 313.671875 54.246094 5.199219-.398438-22.402344-53.035156-20.808594zm0 0" fill="#ff9c10"/><path d="m365.789062 268.855469 41.699219 20.011719 5.957031-6.144532s-3.835937-2.613281-3.648437-5.011718c.074219-2.433594 3.859375-2.800782 3.933594-5.4375.070312-2.433594-4.289063-2.726563-4.339844-5.160157-.285156-2.636719 3.363281-5.460937 3.363281-5.460937l-37.648437-32.40625zm0 0" fill="#ff9c10"/><path d="m639.46875 357.683594h-53.839844l-.40625-30.804688 59.105469-4.402344zm0 0" fill="#ff9c10"/><path d="m640.777344 313.175781c-.671875-4.996093-1.390625-9.984375-2.542969-14.890625-1.558594-6.570312-3.542969-13.03125-5.941406-19.332031-.179688-.460937-.441407-.882813-.628907-1.347656l-46.035156 19.269531.414063 22.808594zm0 0" fill="#ff9c10"/><path d="m609.328125 239.109375-27.558594 20.835937c-.015625.023438-.039062.089844-.046875.105469-.007812.007813 0 .050781 0 .058594-.007812.003906 0 .039063 0 .046875v.046875.058594c0 .015625-.007812.082031 0 .105469.234375 1.1875 2.667969 4.136718 3.019532 6.300781-.1875 3.292969-3.011719 4.75-3.492188 6.199219-.007812.03125-.042969.113281-.046875.15625-.007813.023437 0 .082031 0 .105468-.007813.03125 0 .113282 0 .15625 0 .023438-.007813.078125 0 .105469 0 .023437-.007813.082031 0 .09375 0 .027344.039063.082031.046875.105469.035156.082031.054688.1875.105469.261718.757812 1.148438 3.433593 1.816407 3.433593 4.226563 0 2.617187-2.449218 4.179687-2.757812 4.367187 3.171875 2.101563 3.753906 4.648438 4.425781 7.246094l41.253907-21.460937c-4.921876-10.363281-11.050782-20.175781-18.382813-29.121094zm0 0" fill="#ff9c10"/><path d="m532.59375 319.074219 23.078125-1 .398437-9.203125zm0 0" fill="#ff9c10"/><path d="m462.148438 318.375-24.289063-.699219v-9.601562zm0 0" fill="#ff9c10"/><path d="m462.042969 315.578125-24.183594-12.308594v-16.003906s-2.839844.398437-2.433594-2.800781c.136719-6.671875 17.78125 12.167968 26.820313 18.300781zm0 0" fill="#ff9c10"/><path d="m532.59375 314.070312-.097656-10.398437s21.859375-19.507813 26.511718-23.105469c0 3.996094-2.53125 7.097656-2.53125 7.097656v15.207032zm0 0" fill="#ff9c10"/><path d="m390.894531 226.449219c.398438.398437 24.527344 26.894531 24.527344 26.894531.675781-2.507812 6.242187-2.886719 11.90625-2.488281 5.671875.398437 10.1875-.375 10.1875 3.621093 0 4.003907-2.878906 3.433594-2.878906 6.234376 0 2.804687 4.3125 2.570312 4.3125 6.167968s-3.125 2.863282-3.140625 5.65625c-.007813 2.300782 3.261718 2.421875 3.261718 2.421875l22.972657 22.007813.097656-23.503906-47.363281-73.417969zm0 0" fill="#ff9c10"/><path d="m428.792969 198.640625c.355469 1.074219 32.078125 64.84375 32.078125 64.84375s.359375-59.855469 5.769531-63.0625l-9.007813-16.386719zm0 0" fill="#ff9c10"/><path d="m532.339844 191.773438-11.980469 41.40625s5.789063.714843 10.476563.367187c1.171874-.089844 1.855468.144531 2.238281.519531.078125.082032.152343.210938.210937.308594.03125.074219.082032.1875.097656.261719.046876.179687.066407.421875.058594.625-.082031 1.132812-.890625 2.390625-.890625 2.390625l-.046875 26.671875 33.855469-59.789063c-6.917969-3.535156-14.269531-6.5625-22.089844-9.011718-4.066406-1.539063-8.015625-2.757813-11.929687-3.75zm0 0" fill="#ff9c10"/><path d="m574.480469 209.066406-41.878907 64.371094-.050781 24.789062 27.558594-26.140624c.332031-.324219.585937-.601563.722656-.839844.050781-.070313.082031-.1875.105469-.257813.015625-.039062.046875-.113281.046875-.15625.007813-.023437 0-.078125 0-.105469 0-.023437.007813-.082031 0-.105468 0-.015625.007813-.082032 0-.097656 0-.023438-.039063-.089844-.046875-.105469-.023438-.050781-.066406-.113281-.105469-.152344-.667969-.789063-2.855469-1.238281-3.066406-3.597656.039063-.464844.152344-.855469.308594-1.148438.59375-1.050781 1.828125-1.238281 2.601562-2.191406.40625-.511719.675781-1.257813.675781-2.496094 0-.871093-.097656-1.457031-.261718-1.824219-.015625-.039062-.03125-.121093-.046875-.152343-.039063-.066407-.113281-.15625-.152344-.214844-.007813-.003906-.050781-.039063-.058594-.046875-.007812-.007812-.039062-.042969-.046875-.046875-.359375-.3125-.863281-.367187-1.304687-.6875-.023438-.011719-.082031-.03125-.105469-.046875-.042969-.035156-.113281-.113281-.152344-.152344-.066406-.066406-.15625-.179687-.214844-.261718-.269531-.410157-.519531-1.074219-.675781-2.082032-.078125-.410156-.105469-.839844 0-1.257812.019531-.070313.074219-.1875.109375-.257813.019532-.058593.070313-.15625.105469-.203125.089844-.171875.21875-.367187.355469-.519531.042968-.042969.121094-.125.164062-.164063.96875-.878906 2.96875-1.5625 6.710938-1.5625 6.796875 0 13.945312-1.304687 15.105468 1.464844.125-.121094 15.074219-15.074218 21.414063-21.613281-8.074219-8.414063-17.375-15.878906-27.816406-22.136719zm0 0" fill="#ff9c10"/><path d="m483.226562 369.304688c-11.539062 18.878906-42.375 13.28125-49.585937.09375-2.164063-.601563-.882813-81.328126-.882813-81.328126s-3.445312-1.554687-3.609374-4.035156c-.152344-2.507812 4.6875-2.738281 4.6875-5.945312 0-3.203125-4.945313-1.941406-5.042969-5.171875.023437-3.085938 5.28125-2.660157 5.042969-5.511719-.277344-3.214844-5.890626-2.742188-6.125-5.703125-.179688-2.351563 4.011718-4.402344 5.175781-5.460937-.75.03125-3.898438-.046876-3.914063-.058594-2.949218.058594-5.894531.113281-8.832031.179687-6.28125.007813.105469 1.351563.007813 4.933594-.054688 2.335937-3.179688 3.886719-3.457032 5.925781-.097656 2.082032 4.476563 3.546875 4.535156 6.050782.046876 2.238281-4.496093 2.386718-4.332031 4.460937.285157 3.515625 4.019531 4.289063 3.964844 6.421875-.058594 2.121094-5.03125 2.929688-5.046875 4.628906.171875 3.28125.726562 83.007813.726562 83.007813 7.921876 40.617187 53.707032 50.953125 66.6875-2.488281zm0 0" fill="#ce1126" stroke="#630810" stroke-width="3.219848"/><path d="m513.414062 369.304688c11.539063 18.878906 42.371094 13.28125 49.582032.09375 2.164062-.601563.886718-81.328126.886718-81.328126s3.441407-1.554687 3.605469-4.035156c.15625-2.507812-4.386719-2.738281-4.386719-5.945312 0-3.203125 4.648438-1.941406 4.746094-5.171875-.023437-3.085938-4.875-2.859375-4.640625-5.714844.277344-3.214844 4.085938-2.839844 4.304688-5.800781.179687-2.546875-2.390625-4.101563-3.5625-5.160156.757812.03125 3.695312-.046876 3.71875-.058594 2.945312.058594 5.890625.113281 8.828125.179687 6.28125.007813-.105469 1.351563-.007813 4.933594.050781 2.335937 3.175781 3.886719 3.460938 5.925781.097656 2.082032-4.476563 3.546875-4.535157 6.050782-.046874 2.238281 4.492188 2.386718 4.328126 4.460937-.28125 3.515625-4.015626 4.289063-3.960938 6.421875.054688 2.121094 5.027344 2.929688 5.046875 4.628906-.171875 3.28125-.726563 83.007813-.726563 83.007813-7.925781 40.617187-53.710937 50.953125-66.6875-2.488281zm0 0" fill="#ce1126" stroke="#630810" stroke-width="3.219848"/><path d="m472.019531 406.4375 51.515625-.035156c.40625-.394532-11.53125-17.574219-25.746094-16.363282-15.839843.40625-26.597656 16.398438-25.769531 16.398438zm0 0" fill="#083d9c" stroke="#083d9c" stroke-width="3.219848"/><path d="m636.277344 405.199219h-70.488282s9.121094-5.328125 11.609376-10.246094c4.558593 2.460937 3.3125 4.917969 12.445312 5.324219 9.113281.414062 17.824219-10.238282 26.539062-9.832032 8.699219.40625 19.894532 15.160157 19.894532 14.753907zm0 0" fill="#083d9c" stroke="#083d9c" stroke-width="3.219848"/><path d="m358.503906 405.199219h70.492188s-9.125-5.328125-11.613282-10.246094c-4.558593 2.460937-3.3125 4.917969-12.441406 5.324219-9.117187.414062-17.824218-10.238282-26.539062-9.832032-8.699219.40625-19.898438 15.160157-19.898438 14.753907zm0 0" fill="#083d9c" stroke="#083d9c" stroke-width="3.219848"/><path d="m363.769531 383.292969 50.195313.398437s-3.238282-6.804687-3.636719-15.203125c-12.964844-4.402343-23.488281 9.601563-32.796875 10.003907-9.308594.398437-19.027344-10.003907-19.027344-10.003907zm0 0" fill="#083d9c" stroke="#083d9c" stroke-width="3.219848"/><path d="m631.777344 383.292969-50.203125.398437s3.25-6.804687 3.648437-15.203125c12.953125-4.402343 23.484375 9.601563 32.792969 10.003907 9.3125.398437 19.027344-10.003907 19.027344-10.003907zm0 0" fill="#083d9c" stroke="#083d9c" stroke-width="3.219848"/><path d="m484.816406 383.691406 25.503906-.796875s.40625-7.601562-12.949218-7.601562c-13.363282 0-12.148438 8.796875-12.554688 8.398437zm0 0" fill="#083d9c" stroke="#083d9c" stroke-width="3.219848"/><path d="m469.433594 372.890625c4.453125-2.398437 8.503906-4.800781 11.335937-10.40625l-17.40625.398437s-8.097656 4.808594-12.152343 10.007813zm0 0" fill="#630810" stroke="#630810" stroke-width="4.652673"/><path d="m525.707031 372.890625c-4.449219-2.398437-8.503906-4.800781-11.335937-10.40625l17.40625.398437s8.101562 4.808594 12.152344 10.007813zm0 0" fill="#630810" stroke="#630810" stroke-width="4.652673"/><path d="m0 166.667969v333.332031h1000v-333.332031zm484.375 20.996093c20.832031 0 39.0625 0 59.894531 7.875 117.1875 36.746094 132.8125 202.101563 28.648438 265.089844-18.230469 13.125-36.460938 18.375-57.292969 20.996094-15.625 0-31.25 0-46.875-2.621094-114.582031-23.625-151.042969-175.855468-65.105469-254.597656 23.4375-20.996094 49.480469-31.492188 80.730469-36.742188zm0 0" fill="#fff"/></g></svg>