<svg viewBox="0 0 1000 600" xmlns="http://www.w3.org/2000/svg"><path d="m0 0h1000v600h-1000z" fill="#ce1126"/><g fill-rule="evenodd"><path d="m84 84h831.996094v431.996094h-831.996094zm0 0" fill="#007a5e"/><path d="m84 84h832l-832 432h832zm0 0" fill="#fcd116"/><path d="m571.996094 300c0 39.761719-32.234375 71.996094-71.996094 71.996094s-71.996094-32.234375-71.996094-71.996094 32.234375-71.996094 71.996094-71.996094 71.996094 32.234375 71.996094 71.996094zm0 0" fill="#ce1126"/><path d="m500 234-20.394531 62.769531 31.378906 10.195313zm0 0" fill="#fcd116"/><path d="m500 234 20.394531 62.769531-31.378906 10.195313zm0 0" fill="#fcd116"/><path d="m562.769531 279.605469h-66v33zm0 0" fill="#fcd116"/><path d="m562.769531 279.605469-53.394531 38.792969-19.398438-26.699219zm0 0" fill="#fcd116"/><path d="m538.792969 353.394531-20.394531-62.769531-31.386719 10.199219zm0 0" fill="#fcd116"/><path d="m538.792969 353.394531-53.394531-38.792969 19.394531-26.695312zm0 0" fill="#fcd116"/><path d="m461.207031 353.394531 53.394531-38.792969-19.394531-26.695312zm0 0" fill="#fcd116"/><path d="m461.207031 353.394531 20.394531-62.769531 31.386719 10.199219zm0 0" fill="#fcd116"/><path d="m437.230469 279.605469 53.394531 38.792969 19.398438-26.699219zm0 0" fill="#fcd116"/><path d="m437.230469 279.605469h66v33zm0 0" fill="#fcd116"/><path d="m300 3.003906-12.050781 37.082032 18.542969 6.03125zm0 0" fill="#fcd116"/><path d="m300 3.003906 12.050781 37.082032-18.542969 6.03125zm0 0" fill="#fcd116"/><path d="m337.09375 29.949219h-39.007812v19.496093zm0 0" fill="#fcd116"/><path d="m337.09375 29.949219-31.550781 22.921875-11.46875-15.777344zm0 0" fill="#fcd116"/><path d="m322.925781 73.550781-12.054687-37.09375-18.546875 6.03125zm0 0" fill="#fcd116"/><path d="m322.925781 73.550781-31.554687-22.921875 11.460937-15.773437zm0 0" fill="#fcd116"/><path d="m277.074219 73.550781 31.554687-22.921875-11.460937-15.773437zm0 0" fill="#fcd116"/><path d="m277.074219 73.550781 12.054687-37.09375 18.546875 6.03125zm0 0" fill="#fcd116"/><path d="m262.90625 29.949219 31.550781 22.921875 11.46875-15.777344zm0 0" fill="#fcd116"/><path d="m262.90625 29.949219h39.007812v19.496093zm0 0" fill="#fcd116"/><path d="m500 3.003906-12.050781 37.082032 18.542969 6.03125zm0 0" fill="#fcd116"/><path d="m500 3.003906 12.050781 37.082032-18.542969 6.03125zm0 0" fill="#fcd116"/><path d="m537.09375 29.949219h-39.007812v19.496093zm0 0" fill="#fcd116"/><path d="m537.09375 29.949219-31.550781 22.921875-11.46875-15.777344zm0 0" fill="#fcd116"/><path d="m522.925781 73.550781-12.054687-37.09375-18.546875 6.03125zm0 0" fill="#fcd116"/><path d="m522.925781 73.550781-31.554687-22.921875 11.460937-15.773437zm0 0" fill="#fcd116"/><path d="m477.074219 73.550781 31.554687-22.921875-11.460937-15.773437zm0 0" fill="#fcd116"/><path d="m477.074219 73.550781 12.054687-37.09375 18.546875 6.03125zm0 0" fill="#fcd116"/><path d="m462.90625 29.949219 31.550781 22.921875 11.46875-15.777344zm0 0" fill="#fcd116"/><path d="m462.90625 29.949219h39.007812v19.496093zm0 0" fill="#fcd116"/><path d="m700 3.003906-12.050781 37.082032 18.542969 6.03125zm0 0" fill="#fcd116"/><path d="m700 3.003906 12.050781 37.082032-18.542969 6.03125zm0 0" fill="#fcd116"/><path d="m737.09375 29.949219h-39.007812v19.496093zm0 0" fill="#fcd116"/><path d="m737.09375 29.949219-31.550781 22.921875-11.46875-15.777344zm0 0" fill="#fcd116"/><path d="m722.925781 73.550781-12.054687-37.09375-18.546875 6.03125zm0 0" fill="#fcd116"/><path d="m722.925781 73.550781-31.554687-22.921875 11.460937-15.773437zm0 0" fill="#fcd116"/><path d="m677.074219 73.550781 31.554687-22.921875-11.460937-15.773437zm0 0" fill="#fcd116"/><path d="m677.074219 73.550781 12.054687-37.09375 18.546875 6.03125zm0 0" fill="#fcd116"/><path d="m662.90625 29.949219 31.550781 22.921875 11.46875-15.777344zm0 0" fill="#fcd116"/><path d="m662.90625 29.949219h39.007812v19.496093zm0 0" fill="#fcd116"/><path d="m300 519.003906-12.050781 37.082032 18.542969 6.03125zm0 0" fill="#fcd116"/><path d="m300 519.003906 12.050781 37.082032-18.542969 6.03125zm0 0" fill="#fcd116"/><path d="m337.09375 545.949219h-39.007812v19.496093zm0 0" fill="#fcd116"/><path d="m337.09375 545.949219-31.550781 22.921875-11.46875-15.78125zm0 0" fill="#fcd116"/><path d="m322.925781 589.550781-12.054687-37.09375-18.546875 6.03125zm0 0" fill="#fcd116"/><path d="m322.925781 589.550781-31.554687-22.925781 11.460937-15.769531zm0 0" fill="#fcd116"/><path d="m277.074219 589.550781 31.554687-22.925781-11.460937-15.769531zm0 0" fill="#fcd116"/><path d="m277.074219 589.550781 12.054687-37.09375 18.546875 6.03125zm0 0" fill="#fcd116"/><path d="m262.90625 545.949219 31.550781 22.921875 11.46875-15.78125zm0 0" fill="#fcd116"/><path d="m262.90625 545.949219h39.007812v19.496093zm0 0" fill="#fcd116"/><path d="m500 519.003906-12.050781 37.082032 18.542969 6.03125zm0 0" fill="#fcd116"/><path d="m500 519.003906 12.050781 37.082032-18.542969 6.03125zm0 0" fill="#fcd116"/><path d="m537.09375 545.949219h-39.007812v19.496093zm0 0" fill="#fcd116"/><path d="m537.09375 545.949219-31.550781 22.921875-11.46875-15.78125zm0 0" fill="#fcd116"/><path d="m522.925781 589.550781-12.054687-37.09375-18.546875 6.03125zm0 0" fill="#fcd116"/><path d="m522.925781 589.550781-31.554687-22.925781 11.460937-15.769531zm0 0" fill="#fcd116"/><path d="m477.074219 589.550781 31.554687-22.925781-11.460937-15.769531zm0 0" fill="#fcd116"/><path d="m477.074219 589.550781 12.054687-37.09375 18.546875 6.03125zm0 0" fill="#fcd116"/><path d="m462.90625 545.949219 31.550781 22.921875 11.46875-15.78125zm0 0" fill="#fcd116"/><path d="m462.90625 545.949219h39.007812v19.496093zm0 0" fill="#fcd116"/><path d="m700 519.003906-12.050781 37.082032 18.542969 6.03125zm0 0" fill="#fcd116"/><path d="m700 519.003906 12.050781 37.082032-18.542969 6.03125zm0 0" fill="#fcd116"/><path d="m737.09375 545.949219h-39.007812v19.496093zm0 0" fill="#fcd116"/><path d="m737.09375 545.949219-31.550781 22.921875-11.46875-15.78125zm0 0" fill="#fcd116"/><path d="m722.925781 589.550781-12.054687-37.09375-18.546875 6.03125zm0 0" fill="#fcd116"/><path d="m722.925781 589.550781-31.554687-22.925781 11.460937-15.769531zm0 0" fill="#fcd116"/><path d="m677.074219 589.550781 31.554687-22.925781-11.460937-15.769531zm0 0" fill="#fcd116"/><path d="m677.074219 589.550781 12.054687-37.09375 18.546875 6.03125zm0 0" fill="#fcd116"/><path d="m662.90625 545.949219 31.550781 22.921875 11.46875-15.78125zm0 0" fill="#fcd116"/><path d="m662.90625 545.949219h39.007812v19.496093zm0 0" fill="#fcd116"/><path d="m135.496094 300.824219c9.011718 16.777343 26.53125 35.03125 41.832031 41.453125.25-17.042969-5.792969-38.875-14.0625-56.273438zm0 0" fill="#ce1126"/><path d="m120.222656 243.261719c13.0625 27.222656-33.863281 92.15625 44.3125 107.382812-9.644531-13.160156-15.863281-34.882812-13.511718-52.320312 16.40625 6.234375 33.660156 24.496093 40.636718 38.460937 20.457032-74.300781-52.484375-69.785156-71.4375-93.523437zm0 0" fill="#fcd116"/></g></svg>