<svg viewBox="0 0 1000 500" xmlns="http://www.w3.org/2000/svg"><path d="m0 0h1000v500h-1000z" fill="#0073cf"/><g fill-rule="evenodd"><path d="m0 166.664062h1000v166.671876h-1000zm0 0" fill="#fff"/><path d="m500 222.222656-8.582031 26.417969 13.207031 4.292969zm0 0" fill="#0073cf"/><path d="m500 222.222656 8.582031 26.417969-13.207031 4.292969zm0 0" fill="#0073cf"/><path d="m526.417969 241.417969h-27.777344v13.882812zm0 0" fill="#0073cf"/><path d="m526.417969 241.417969-22.472657 16.324219-8.164062-11.234376zm0 0" fill="#0073cf"/><path d="m473.582031 241.417969 22.472657 16.324219 8.164062-11.234376zm0 0" fill="#0073cf"/><path d="m473.582031 241.417969h27.777344v13.882812zm0 0" fill="#0073cf"/><path d="m516.328125 272.472656-8.585937-26.417968-13.207032 4.292968zm0 0" fill="#0073cf"/><path d="m516.328125 272.472656-22.476563-16.324218 8.164063-11.242188zm0 0" fill="#0073cf"/><path d="m483.671875 272.472656 22.476563-16.324218-8.164063-11.242188zm0 0" fill="#0073cf"/><path d="m483.671875 272.472656 8.585937-26.417968 13.207032 4.292968zm0 0" fill="#0073cf"/><path d="m638.886719 177.777344-8.585938 26.417968 13.214844 4.289063zm0 0" fill="#0073cf"/><path d="m638.886719 177.777344 8.585937 26.417968-13.210937 4.289063zm0 0" fill="#0073cf"/><path d="m665.308594 196.972656h-27.78125v13.886719zm0 0" fill="#0073cf"/><path d="m665.308594 196.972656-22.476563 16.328125-8.160156-11.242187zm0 0" fill="#0073cf"/><path d="m612.472656 196.972656 22.46875 16.328125 8.164063-11.242187zm0 0" fill="#0073cf"/><path d="m612.472656 196.972656h27.777344v13.886719zm0 0" fill="#0073cf"/><path d="m655.214844 228.027344-8.582032-26.417969-13.210937 4.292969zm0 0" fill="#0073cf"/><path d="m655.214844 228.027344-22.472656-16.328125 8.167968-11.234375zm0 0" fill="#0073cf"/><path d="m622.5625 228.027344 22.472656-16.328125-8.164062-11.234375zm0 0" fill="#0073cf"/><path d="m622.5625 228.027344 8.585938-26.417969 13.207031 4.292969zm0 0" fill="#0073cf"/><path d="m638.886719 261.113281-8.585938 26.414063 13.214844 4.292968zm0 0" fill="#0073cf"/><path d="m638.886719 261.113281 8.585937 26.414063-13.210937 4.292968zm0 0" fill="#0073cf"/><path d="m665.308594 280.300781h-27.78125v13.894531zm0 0" fill="#0073cf"/><path d="m665.308594 280.300781-22.476563 16.332031-8.160156-11.238281zm0 0" fill="#0073cf"/><path d="m612.472656 280.300781 22.46875 16.332031 8.164063-11.238281zm0 0" fill="#0073cf"/><path d="m612.472656 280.300781h27.777344v13.894531zm0 0" fill="#0073cf"/><path d="m655.214844 311.363281-8.582032-26.421875-13.210937 4.292969zm0 0" fill="#0073cf"/><path d="m655.214844 311.363281-22.472656-16.328125 8.167968-11.238281zm0 0" fill="#0073cf"/><path d="m622.5625 311.363281 22.472656-16.328125-8.164062-11.238281zm0 0" fill="#0073cf"/><path d="m622.5625 311.363281 8.585938-26.421875 13.207031 4.292969zm0 0" fill="#0073cf"/><path d="m361.113281 177.777344-8.585937 26.417968 13.210937 4.289063zm0 0" fill="#0073cf"/><path d="m361.113281 177.777344 8.585938 26.417968-13.214844 4.289063zm0 0" fill="#0073cf"/><path d="m387.527344 196.972656h-27.777344v13.886719zm0 0" fill="#0073cf"/><path d="m387.527344 196.972656-22.46875 16.328125-8.164063-11.242187zm0 0" fill="#0073cf"/><path d="m334.691406 196.972656 22.476563 16.328125 8.160156-11.242187zm0 0" fill="#0073cf"/><path d="m334.691406 196.972656h27.78125v13.886719zm0 0" fill="#0073cf"/><path d="m377.4375 228.027344-8.585938-26.417969-13.207031 4.292969zm0 0" fill="#0073cf"/><path d="m377.4375 228.027344-22.472656-16.328125 8.164062-11.234375zm0 0" fill="#0073cf"/><path d="m344.785156 228.027344 22.472656-16.328125-8.167968-11.234375zm0 0" fill="#0073cf"/><path d="m344.785156 228.027344 8.582032-26.417969 13.210937 4.292969zm0 0" fill="#0073cf"/><path d="m361.113281 261.113281-8.585937 26.414063 13.210937 4.292968zm0 0" fill="#0073cf"/><path d="m361.113281 261.113281 8.585938 26.414063-13.214844 4.292968zm0 0" fill="#0073cf"/><path d="m387.527344 280.300781h-27.777344v13.894531zm0 0" fill="#0073cf"/><path d="m387.527344 280.300781-22.46875 16.332031-8.164063-11.238281zm0 0" fill="#0073cf"/><path d="m334.691406 280.300781 22.476563 16.332031 8.160156-11.238281zm0 0" fill="#0073cf"/><path d="m334.691406 280.300781h27.78125v13.894531zm0 0" fill="#0073cf"/><path d="m377.4375 311.363281-8.585938-26.421875-13.207031 4.292969zm0 0" fill="#0073cf"/><path d="m377.4375 311.363281-22.472656-16.328125 8.164062-11.238281zm0 0" fill="#0073cf"/><path d="m344.785156 311.363281 22.472656-16.328125-8.167968-11.238281zm0 0" fill="#0073cf"/><path d="m344.785156 311.363281 8.582032-26.421875 13.210937 4.292969zm0 0" fill="#0073cf"/></g></svg>