<svg viewBox="0 0 1000 667" xmlns="http://www.w3.org/2000/svg" xmlns:xlink="http://www.w3.org/1999/xlink"><clipPath id="a"><path d="m0 444h1000v222.71875h-1000zm0 0"/></clipPath><path d="m0 0h1000v222.222656h-1000zm0 0" fill="#ce1126" fill-rule="evenodd"/><path d="m0 222.222656h1000v222.222656h-1000zm0 0" fill="#fff" fill-rule="evenodd"/><g clip-path="url(#a)"><path d="m0 444.445312h1000v222.222657h-1000zm0 0" fill-rule="evenodd"/></g><g fill="#007a3d" fill-rule="evenodd"><path d="m304.054688 415.886719-5.746094-6.304688 11.597656-12.5 5.746094 6.304688 5.746094 6.308593-11.601563 12.5-5.738281-6.320312zm-39.453126-3.179688c-2.070312-.820312-5.421874-3.527343-7.621093-6.136719-4.144531-4.929687-5.085938-7.234374-2.304688-5.613281 4.152344 2.417969 12.371094 3.984375 15.300781 2.925781 10.789063-3.914062 13.242188-19.585937 4.628907-29.523437-1.695313-1.945313-3.078125-4.214844-3.078125-5.035156 0-.824219 1.796875-2.359375 3.992187-3.410157 3.078125-1.480468 4.582031-3.09375 6.550781-7.027343 1.996094-3.992188 2.8125-4.863281 3.777344-3.992188 1.371094 1.234375 6 13.253907 6 15.574219 0 1.226562 1.675782 1.492188 9.25 1.492188h9.242188l-1.441406-3.765626c-.792969-2.070312-2.101563-4.859374-2.902344-6.195312-1.304688-2.164062-1.308594-2.542969-.0625-3.515625.773437-.59375 3.332031-2.554687 5.691406-4.351563 2.359375-1.800781 4.5625-4.054687 4.894531-5.023437.820313-2.390625 5.9375-9.289063 6.886719-9.289063.414062 0 .761719 7.234376.761719 16.070313v16.070313h115.441406v-46.039063l-3.207031-2.160156-3.210938-2.164063-3.253906 2.703125-3.253906 2.695313v32.90625h-48.480469c-26.671875 0-48.492187-.179688-48.492187-.402344 0-.351562 24.128906-35.785156 27.078124-39.773438.609376-.832031 2.128907-3.085937 3.367188-5.019531 1.238281-1.9375 2.5-3.742187 2.800781-4.019531.308594-.277344 1.554688-2.082031 2.789063-4.015625 1.226562-1.9375 2.664062-4.046875 3.183594-4.691406.527343-.644531 9.265624-13.382813 19.425781-28.308594 10.160156-14.925781 18.773437-27.167969 19.148437-27.203125.375-.03125.898438 1.1875 1.175782 2.699219 1.527343 8.410156 2.691406 13.121093 3.902343 15.707031 1.539063 3.3125.640625 4.546875-3.441406 4.683594-1.929687.066406-6.386719 6.003906-27.246094 36.375-13.714843 19.964844-25.074219 36.660156-25.242187 37.101562-.175782.4375 12.1875.796875 27.472656.796875h27.785156l.015625-10.796875c.003907-5.933594.320313-11.261718.6875-11.832031 1.742188-2.675781 20.113281-16.628906 21.390625-16.261719.800782.230469 5.714844 3.945313 10.925782 8.257813l9.464843 7.839843v66.988282h-160.421875l-1.613281 6.476562c-1.9375 7.765625-5.097656 13.367188-9.34375 16.53125-4.039063 2.945313-13.117187 3.78125-18.4375 1.660156zm199.945313-76.839843c0-36.464844.300781-52.390626.996094-52.863282.554687-.375 2.941406 1.535156 5.3125 4.234375 2.371093 2.703125 6.589843 7.042969 9.390625 9.640625 4.410156 4.109375 4.871094 4.867188 3.511718 5.769532-4.546874 3-4.433593 2.054687-4.433593 36.71875v32.566406h8.839843c7.847657 0 9.296876-.292969 12.925782-2.609375 4.507812-2.867188 4.808594-2.488281 2.578125 3.238281-.835938 2.140625-1.769531 6.375-2.082031 9.414062l-.566407 5.523438-18.238281.277344-18.234375.269531v-52.210937zm0 0"/><path d="m560.046875 374.496094c.484375-14.6875 1.878906-19.667969 6.832031-24.398438 3.8125-3.640625 9.265625-5.367187 15.582032-4.921875l4.730468.332031.28125-6.007812c.359375-7.609375-.269531-10.328125-2.597656-11.136719-2.792969-.960937-2.226562-4.117187 1.160156-6.410156 1.65625-1.132813 5.714844-5.019531 9.011719-8.65625 3.300781-3.640625 6.324219-6.613281 6.722656-6.613281.394531 0 .722657 14.519531.722657 32.265625v32.261719h12.976562v-33.195313c0-28.84375-.191406-33.410156-1.460938-34.789063-.796874-.867187-1.84375-1.582031-2.316406-1.582031-2.078125 0-.609375-4.039062 2.15625-5.914062 1.652344-1.125 5.6875-4.992188 8.964844-8.601563 3.273438-3.609375 6.300781-6.328125 6.722656-6.046875.417969.28125.765625 20.675781.765625 45.324219v44.804688h12.976563v-91.757813l-2.316406-2.191406c-1.273438-1.203125-2.316407-2.738281-2.316407-3.410157 0-.667968 2.878907-3.75 6.410157-6.847656 3.519531-3.097656 7.300781-7.003906 8.402343-8.683594 4.730469-7.230468 4.652344-8.308593 4.652344 62.984376v66.039062h-98.488281l.589844-12.863281zm27.589844-9.835938v-6.554687h-3.636719c-4.882812 0-9.339844 4.605469-9.339844 9.65625v3.449219h12.976563zm80.679687-29.667968c0-36.597657.304688-52.59375 1.003906-53.0625.554688-.375 2.957032 1.539062 5.332032 4.253906 2.375 2.710937 6.613281 7.066406 9.417968 9.675781 4.433594 4.125 4.894532 4.882813 3.527344 5.789063-4.5625 3.015624-4.449218 2.074218-4.449218 36.867187v32.695313h9.054687c8.214844 0 9.382813-.242188 12.585937-2.613282 1.945313-1.433594 3.761719-2.359375 4.042969-2.054687.277344.304687-.226562 2.496093-1.117187 4.875-.894532 2.382812-1.886719 6.820312-2.203125 9.871093l-.578125 5.546876-36.621094.542968v-52.402344zm-72.992187-54.859376c-1.632813-.652343-3.515625-1.804687-4.171875-2.5625-1.011719-1.152343-.503906-1.265624 3.15625-.699218 6.589844 1.019531 10.632812-.195313 14.308594-4.3125l3.226562-3.617188 4.492188 1.734375c2.472656.949219 5.050781 1.496094 5.742187 1.210938 1.78125-.75 5.011719-6.308594 4.6875-8.082031-.394531-2.160157 1.429687-1.832032 2.558594.460937 2.207031 4.488281.363281 10.191406-3.863281 11.925781-2.070313.855469-4.074219.875-7.425782.101563-4.117187-.96875-4.792968-.863281-6.597656.976562-4.039062 4.121094-10.195312 5.222657-16.109375 2.875zm11.234375-16.644531c-2.230469-1.660156-6.941406-10.152343-7.121094-12.855469-.160156-2.316406.222656-3.027343 1.734375-3.265624 2.652344-.410157 3.875 1.507812 5.914063 9.265624 1.671874 6.359376 1.496093 8.367188-.519532 6.855469zm0 0"/></g></svg>