<svg viewBox="0 0 1000 500" xmlns="http://www.w3.org/2000/svg"><path d="m0 0h1000v500h-1000z" fill="#da0010"/><path d="m535.917969 361.230469-6.835938 5.605469s1.507813 10.921874 1.503907 11.089843c0 .167969-6.800782-6.496093-6.800782-6.496093l-3.242187.359374c-.039063-.089843-.078125-.171874-.125-.257812-.003907-.003906-.007813-.015625-.011719-.023438-1.191406-2.277343-3.324219-3.640624-5.15625-4.359374l-.019531-.003907c-.042969-.015625-.078125-.03125-.125-.046875.148437-1.664062.285156-4.191406.1875-4.382812-.003907-.003906-.003907-.011719-.011719-.007813-.167969 0-7.566406-8.738281-7.8125-9.214843-.003906-.011719-.007812-.015626 0-.011719.171875 0 10.050781 2.242187 10.046875 1.898437.003906-.335937 3.953125-9.703125 3.957031-9.875-.003906-.003906.007813 0 .015625.019532.300781.585937 4.722657 11.417968 4.722657 11.417968zm0 0" fill="#f5e806" fill-rule="evenodd"/><path d="m514.925781 368.503906c.171875-.515625.523438-5.796875.355469-5.796875s-7.992188-9.234375-7.816406-9.226562c.175781 0 10.054687 2.242187 10.050781 1.898437.003906-.335937 3.957031-9.703125 3.957031-9.875 0-.175781 4.738282 11.4375 4.738282 11.4375l9.707031 4.292969-6.835938 5.601563s1.503907 10.921874 1.503907 11.09375c0 .167968-6.800782-6.5-6.800782-6.5l-7.503906.828124s-1.011719-3.410156-1.355469-3.753906zm0 0" fill="none" stroke="#070809" stroke-linecap="square" stroke-width="1.388889"/><path d="m462.496094 225.054688c-6.488282 3.324218-31.429688 31.675781-34.855469 36.097656-2.875 6.429687-8.488281 14.554687-14.261719 19.78125-6.160156 4.632812-9.585937 10.96875-8.761718 16.992187-.089844 7.480469 4.09375 12.582031 7.421874 17.855469 1.96875 2.410156 4.625 3.972656 7.453126 4.167969 5.804687.789062 6.316406 2.578125 9.214843 3.6875 11.398438 15.617187 28.441407 27.15625 40.707031 36.285156 7.828126 4.15625 13.261719 8.304687 15.125 10.566406 3.578126 6.878907 2.898438 13.578125 2.398438 16.867188-3.078125 11.476562-6.152344 22.945312-9.226562 34.417969-1.558594 9.375 6.589843 7.289062 7.039062 5.410156 3.691406-4.761719 9.167969-1.394532 17.089844-28.992188 3.605468-4.835937 7.21875-9.664062 10.832031-14.492187 0 0 4.152344-1.648438 4.152344-2.058594 6.332031-7.566406 1.535156-11.914063-2.035157-13.285156-2.628906-.976563-5.253906-1.953125-7.875-2.929688 0 0-9.101562-9.152343-9.519531-9.15625-4.300781-12.628906-25.640625-39.890625-30.578125-43.652343-4.832031-3.191407-2.851562-4.578126-8.023437-6.835938-3.835938-2.140625-1.195313-1.238281-9.785157-4.417969-2.542968-1.023437-.722656-3.816406.894532-5.09375 16.894531-9.132812 30.285156-19.296875 46.5-29.621093.835937-.554688 1.664062-1.105469 2.496094-1.652344-1.90625-11.070313-3.8125-22.140625-5.71875-33.207032-8.976563-3.207031-17.957032-6.417968-26.9375-9.625-1.417969.96875-2.496094 1.933594-3.746094 2.890626zm0 0" fill="#fff" fill-rule="evenodd" stroke="#070809" stroke-linecap="square" stroke-width="1.388889"/><path d="m484.566406 399.882812c.085938-.34375 16.894532-3.363281 16.894532-3.363281l-2.066407 6.222657-16.722656 4.972656zm0 0" fill="#f4eb06" fill-rule="evenodd"/><g stroke="#070809" stroke-linecap="square"><path d="m440.980469 336.515625c3.265625-8.601563 12.277343-15.390625 18.324219-17.253906" fill="none" stroke-width="1.388889"/><path d="m480.894531 410.402344c.140625-.179688 1.289063-1.191406 2.105469-1.679688.972656-.300781 4.292969-1.695312 5.542969-1.910156 1.335937-.351562 2.667969-.738281 3.957031-1.195312 1.480469-.335938 2.40625-.644532 3.953125-.953126 1.199219-.511718 2.394531-.863281 3.683594-1.199218" fill="none" stroke-width="1.536111"/><path d="m483.960938 400.03125c1.089843-.304688 5.910156-1.695312 7.308593-1.90625 1.5-.347656 2.988281-.734375 4.425781-1.195312 1.664063-.339844 2.699219-.644532 4.429688-.953126 1.347656-.511718 2.683594-.863281 4.128906-1.199218" fill="none" stroke-width="1.536111"/><path d="m487.917969 339.085938h-.238281c.753906 0 .289062-.0625-.730469 1.203124-.367188.980469-3.46875 3.128907-5.792969 3.121094-1.128906.117188-2.855469.234375-3.984375.230469-.320313-.007813-.765625-.246094-1.089844-.246094" fill="none" stroke-width="1.388889"/><path d="m487.535156 388.761719.234375.003906c-.3125 0 .648438.003906.96875 0 1.25.007813 2.507813.230469 3.617188.253906 1.210937.003907 2.414062.347657 3.617187.351563 1.21875.175781 2.6875.125 3.945313.304687 1.410156.054688 2.539062.335938 4.011719.339844 1.183593.050781 1.820312.25 3.132812.253906l-3.132812-.253906c1.183593.050781 1.820312.25 3.132812.253906" fill="none" stroke-width="1.388889"/><path d="m479.253906 418.15625c.128906-.183594 1.179688-1.191406 1.929688-1.675781.890625-.304688 3.921875-1.699219 5.070312-1.917969 1.226563-.347656 2.441406-.734375 3.621094-1.191406 1.363281-.339844 2.210938-.652344 3.621094-.960938 1.105468-.511718 2.199218-.859375 3.378906-1.191406" fill="none" stroke-width="1.388889"/><path d="m501.953125 376.3125c-.6875 1.972656.195313 2.476562.554687 3.332031.640626.828125 2.253907 2.097657 4.816407 2.90625.992187.269531 1.75.535157 2.890625.972657.761718.066406 1.132812.265624 1.6875.484374" fill="none" stroke-width="1.388889"/><path d="m406.75 303.410156h.242188c-.757813-.003906-.304688.046875.96875-.960937.78125-.871094 1.441406-1.269531 2.171874-2.167969" fill="none" stroke-width="1.388889"/><path d="m422.316406 320.632812c.160156-.003906 14.050782-6.949218 15.53125-8.4375 1.050782-.757812 1.847656-1.5625 3.125-2.421874.820313-.429688 1.40625-.972657 2.175782-1.441407.640624-.917969 1.472656-1.480469 1.9375-2.316406.851562-.734375.488281-1.535156 1.179687-2.425781.332031-.910156.945313-2.441406 1.148437-3.273438" fill="none" stroke-width="1.388889"/><path d="m465.046875 310.738281c.074219.496094-.226563 2.035157-.207031 3.203125-.054688 1.355469-1.8125 5.535156-3.921875 6.785156" fill="none" stroke-width="1.388889"/><path d="m440.128906 310.511719c.082032.003906 2.195313.691406 5.722656 1.789062 4.238282 1.535157 13.054688 7.125 13.929688 7.898438.890625.707031 2.492188 1.339843 3.101562 2.179687.957032.832032 1.660157 1.789063 2.402344 2.660156.878906 1.078126 1.632813 1.984376 2.164063 2.898438 2.675781 2.179688 9.851562 17.261719 10.078125 18.113281.402344.792969.902344 1.90625 1.199218 2.652344.53125.617187.894532 1.496094 1.4375 2.421875.503907 1.199219 1.0625 1.746094 1.6875 2.65625.792969.558594 1.863282 1.617188 2.886719 2.175781 1.082031.933594 2.097657 1.320313 2.878907 1.941407 1.140624.488281 13.824218 8.554687 14.414062 8.960937 1.15625.933594 4.695312 4.617187 2.195312 7.28125-1.054687.90625-2.011718 2.09375-2.914062 2.601563-.921875.925781-2.199219 1.328124-3.261719 1.800781-5.726562 1.679687-8.640625 1.066406-9.765625 1.058593-.402344.003907-.808594 0-1.203125-.003906" fill="none" stroke-width="1.388889"/><path d="m412.597656 282.199219.242188.007812c-.652344 0-.320313-.015625.960937.242188.984375.429687 2.40625.855469 3.375 1.214843 1.023438.328126 2.3125.496094 2.890625.972657 1.117188.195312 1.773438.84375 2.644532 1.457031 1.003906.914062 1.78125 1.503906 2.890624 2.175781 1.308594.910157 2.347657 1.359375 3.613282 2.179688 1.285156.246093 2.226562.679687 3.613281.730469 1.304687.089843 2.472656.25 3.859375.253906 1.121094.003906 2.253906.007812 3.375.011718l-3.375-.011718c1.121094.003906 2.253906.007812 3.375.011718" fill="none" stroke-width="1.388889"/><path d="m411.707031 298.117188c3.617188-.226563 9.640625.871093 9.765625.875l7.957032-.097657c4.1875-.390625 5.109374-1.996093 5.796874-3.121093 1.578126-2.410157 2.664063-3.246094 3.867188-5.054688 1.941406-1.4375 4.585938 1.941406 4.703125 1.941406 6.730469 6.410156 1.285156 14.234375.925781 14.472656-3.390625 3.085938-4.113281 3.285157-6.152344 1.304688-2.042968-2.410156-2.648437-3.5-4.328124-4.347656-3.253907-1.574219-10.011719-.390625-10.132813-.394532l-3.5 1.320313c-1.648437.597656-2.695313 2.042969-5.550781 2.515625-2.894532.195312-3.859375-.09375-5.300782-2.425781-1.917968-3.019531-.945312-6.632813 1.949219-6.988281zm0 0" fill="#f4eb06" fill-rule="evenodd" stroke-width="1.388889"/><path d="m441.613281 291.046875 7.746094-9.433594 7.960937-8.03125 8.523438-6.6875 8.957031-5.621093 7.988281-4.207032 8.066407-3.023437zm0 0" fill="#fff" fill-rule="evenodd" stroke-width="1.388889"/></g><path d="m587.75 132.78125 8.273438 3.117188s8.703124-6.765626 8.851562-6.851563c.144531-.082031-2.226562 9.140625-2.226562 9.140625l1.929687 2.628906c-.058594.078125-.105469.15625-.160156.234375-.003907.007813-.007813.019531-.011719.023438-1.378906 2.171875-1.496094 4.699219-1.199219 6.644531l.003907.019531c.011718.046875.015624.085938.023437.132813-1.511719.703125-3.769531 1.847656-3.886719 2.027344-.003906.003906-.007812.011718 0 .015624.082032.144532-3.785156 10.921876-4.074218 11.371094-.007813.011719-.011719.019532-.015626.007813-.082031-.144531-3.078124-9.824219-3.375-9.652344-.292968.167969-10.382812 1.429687-10.53125 1.511719-.003906.007812-.003906-.003906.007813-.023438.359375-.554687 7.527344-9.796875 7.527344-9.796875zm0 0" fill="#f5e806" fill-rule="evenodd"/><path d="m604.546875 147.324219c-.535156.105469-5.285156 2.441406-5.203125 2.589843.085938.144532-4 11.535157-4.078125 11.382813-.089844-.148437-3.085937-9.828125-3.382813-9.65625-.292968.164063-10.382812 1.429687-10.527343 1.511719-.152344.089844 7.53125-9.820313 7.53125-9.820313l-1.136719-10.550781 8.273438 3.117188s8.703124-6.765626 8.851562-6.851563c.144531-.082031-2.226562 9.140625-2.226562 9.140625l4.46875 6.085938s-2.449219 2.582031-2.570313 3.050781zm0 0" fill="none" stroke="#070809" stroke-linecap="square" stroke-width="1.388889"/><path d="m506.527344 264.453125c6.125 3.957031 43.148437 11.382813 48.691406 12.140625 7.007812-.726562 16.847656.070312 24.261719 2.457031 7.089843 3.019531 14.292969 2.816407 19.09375-.910156 6.527343-3.660156 8.851562-9.835937 11.753906-15.351563 1.105469-2.910156 1.128906-5.992187-.113281-8.539062-2.222656-5.421875-.929688-6.757812-1.417969-9.824219 7.824219-17.679687 9.296875-38.207031 11.070313-53.398437-.3125-8.851563.5625-15.636719 1.589843-18.378906 4.167969-6.539063 10.308594-9.300782 13.410157-10.511719 11.476562-3.074219 22.945312-6.144531 34.417968-9.21875 8.898438-3.335938 3.015625-9.351563 1.167969-8.800781-5.972656-.816407-5.796875-7.242188-33.65625-.304688-5.988281-.707031-11.976563-1.421875-17.964844-2.136719 0 0-3.507812-2.769531-3.863281-2.5625-9.714844-1.703125-11.082031 4.625-10.488281 8.40625.472656 2.761719.941406 5.523438 1.40625 8.28125 0 0-3.378907 12.457031-3.171875 12.820313-8.789063 10.042968-21.722656 42.15625-22.515625 48.3125-.347657 5.777344-2.539063 4.757812-1.90625 10.363281.0625 4.390625-.476563 1.652344 1.0625 10.683594.386719 2.714843-2.945313 2.535156-4.855469 1.769531-16.355469-10.0625-31.855469-16.578125-48.902344-25.457031-.898437-.445313-1.789062-.890625-2.679687-1.335938-8.636719 7.191407-17.269531 14.371094-25.898438 21.554688 1.710938 9.378906 3.417969 18.761719 5.132813 28.140625 1.546875.746094 2.921875 1.195312 4.375 1.800781zm0 0" fill="#fff" fill-rule="evenodd" stroke="#070809" stroke-linecap="square" stroke-width="1.388889"/><path d="m646.898438 157.925781c-.339844.097657-11.359376-12.949219-11.359376-12.949219l6.421876-1.320312 12.667968 11.996094zm0 0" fill="#f4eb06" fill-rule="evenodd"/><path d="m613.8125 227.355469c-9.078125 1.472656-19.464844-2.9375-24.105469-7.238281" fill="none" stroke="#070809" stroke-linecap="square" stroke-width="1.388889"/><path d="m657.847656 155.84375c-.230468-.027344-1.679687-.519531-2.511718-.984375-.746094-.6875-3.613282-2.863281-4.425782-3.839844-.96875-.984375-1.96875-1.941406-3.011718-2.828125-1.03125-1.117187-1.761719-1.765625-2.804688-2.949218-1.039062-.785157-1.945312-1.644532-2.875-2.589844" fill="none" stroke="#070809" stroke-linecap="square" stroke-width="1.536111"/><path d="m647.328125 158.375c-.808594-.789062-4.421875-4.265625-5.304687-5.375-1.050782-1.125-2.128907-2.21875-3.246094-3.234375-1.125-1.269531-1.910156-2.015625-3.042969-3.363281-1.113281-.910156-2.089844-1.890625-3.101563-2.972656" fill="none" stroke="#070809" stroke-linecap="square" stroke-width="1.536111"/><path d="m592.570312 185.421875.121094.207031c-.375-.652344-.195312-.21875 1.40625.03125 1.03125-.171875 4.445313 1.441406 5.601563 3.457032.664062.917968 1.628906 2.355468 2.191406 3.335937.152344.277344.167969.785156.328125 1.0625" fill="none" stroke="#070809" stroke-linecap="square" stroke-width="1.388889"/><path d="m635.785156 160.914062-.117187-.203124c.15625.269531-.320313-.566407-.484375-.839844-.617188-1.085938-1.050782-2.285156-1.589844-3.257813-.601562-1.050781-.902344-2.265625-1.5-3.3125-.457031-1.140625-1.238281-2.386719-1.710938-3.566406-.65625-1.25-.976562-2.367187-1.710937-3.644531-.550781-1.050782-.695313-1.699219-1.347656-2.839844l1.347656 2.839844c-.550781-1.050782-.695313-1.699219-1.347656-2.839844" fill="none" stroke="#070809" stroke-linecap="square" stroke-width="1.388889"/><path d="m665.382812 153.390625c-.226562-.019531-1.625-.425781-2.417968-.835937-.710938-.617188-3.433594-2.546876-4.199219-3.429688-.910156-.890625-1.851563-1.75-2.839844-2.539062-.972656-1.011719-1.671875-1.589844-2.640625-2.65625-.996094-.703126-1.847656-1.476563-2.722656-2.332032" fill="none" stroke="#070809" stroke-linecap="square" stroke-width="1.388889"/><path d="m617.789062 154.652344c2.054688-.390625 2.050782-1.40625 2.613282-2.144532.394531-.96875.6875-3 .105468-5.625-.261718-.992187-.410156-1.78125-.601562-2.988281-.320312-.695312-.335938-1.117187-.421875-1.703125" fill="none" stroke="#070809" stroke-linecap="square" stroke-width="1.388889"/><path d="m602.257812 273.554688-.121093-.210938c.375.65625.195312.242188-1.316407-.359375-1.144531-.242187-1.820312-.613281-2.960937-.796875" fill="none" stroke="#070809" stroke-linecap="square" stroke-width="1.388889"/><path d="m609.390625 251.460938c-.082031-.136719-13.042969-8.691407-15.074219-9.230469-1.179687-.535157-2.273437-.820313-3.65625-1.5-.78125-.492188-1.546875-.730469-2.339844-1.160157-1.113281-.097656-2.015624-.539062-2.972656-.519531-1.0625-.371093-1.574218.34375-2.691406.191407-.953125.167968-2.589844.402343-3.40625.640624" fill="none" stroke="#070809" stroke-linecap="square" stroke-width="1.388889"/><path d="m579.457031 219.402344c.394531-.3125 1.875-.820313 2.878907-1.425782 1.199218-.625 5.699218-1.195312 7.835937.007813" fill="none" stroke="#070809" stroke-linecap="square" stroke-width="1.388889"/><path d="m591.71875 241.09375c-.039062-.070312-.496094-2.246094-1.308594-5.847656-.792968-4.4375-.359375-14.871094-.125-16.015625.164063-1.125-.089844-2.824219.335938-3.773438.242187-1.246093.71875-2.332031 1.101562-3.410156.496094-1.300781.902344-2.40625 1.429688-3.324219.546875-3.40625 10.019531-17.160156 10.644531-17.78125.488281-.746094 1.203125-1.734375 1.699219-2.367187.269531-.773438.847656-1.523438 1.378906-2.457031.785156-1.035157.980469-1.792969 1.457031-2.785157.085938-.96875.464844-2.425781.4375-3.589843.269531-1.40625.09375-2.476563.242188-3.464844-.144531-1.234375.496093-16.25.554687-16.964844.230469-1.46875 1.652344-6.375 5.210938-5.542969 1.308594.460938 2.816406.695313 3.710937 1.222657 1.257813.339843 2.246094 1.246093 3.1875 1.925781 4.316407 4.121093 5.242188 6.949219 5.800781 7.929687.203126.347656.402344.699219.597657 1.042969" fill="none" stroke="#070809" stroke-linecap="square" stroke-width="1.388889"/><path d="m580.96875 279.09375-.117188-.214844c.324219.566406.144532.289063-.269531-.953125-.121093-1.066406-.460937-2.507812-.636719-3.527343-.226562-1.050782-.726562-2.253907-.601562-2.988282-.390625-1.070312-.15625-1.957031-.0625-3.019531.289062-1.328125.414062-2.296875.441406-3.59375.128906-1.585937.003906-2.714844.082032-4.21875-.429688-1.234375-.527344-2.265625-1.175782-3.496094-.574218-1.171875-1.019531-2.261719-1.710937-3.464843-.554688-.976563-1.117188-1.957032-1.679688-2.929688l1.679688 2.929688c-.554688-.976563-1.117188-1.957032-1.679688-2.929688" fill="none" stroke="#070809" stroke-linecap="square" stroke-width="1.388889"/><path d="m595.195312 271.90625c-2.003906-3.019531-4.0625-8.785156-4.125-8.894531l-4.058593-6.84375c-2.433594-3.425781-4.285157-3.421875-5.601563-3.457031-2.875-.164063-4.148437-.683594-6.3125-.824219-2.21875-.957031-.609375-4.941407-.671875-5.042969 2.1875-9.03125 11.683594-8.230469 12.070313-8.035156 4.367187 1.390625 4.902344 1.917968 4.207031 4.675781-1.066406 2.972656-1.707031 4.039063-1.601563 5.921875.261719 3.601562 4.667969 8.863281 4.722657 8.96875l2.894531 2.371094c1.339844 1.132812 3.121094 1.316406 4.953125 3.554687 1.617187 2.40625 1.851563 3.382813.550781 5.800781-1.65625 3.171876-5.269531 4.136719-7.027344 1.804688zm0 0" fill="#f4eb06" fill-rule="evenodd" stroke="#070809" stroke-linecap="square" stroke-width="1.388889"/><path d="m574.121094 249.542969-12.042969-1.992188-10.9375-2.878906-10.050781-4.035156-9.347656-4.949219-7.636719-4.8125-6.65625-5.476562zm0 0" fill="#fff" fill-rule="evenodd" stroke="#070809" stroke-linecap="square" stroke-width="1.388889"/><path d="m364.554688 202.128906-1.433594-8.722656s-10.214844-4.15625-10.359375-4.242188c-.144531-.082031 9.03125-2.640624 9.03125-2.640624l1.308593-2.988282c.097657.011719.1875.015625.285157.023438h.027343c2.570313.109375 4.8125-1.054688 6.351563-2.285156l.015625-.011719c.035156-.03125.066406-.054688.101562-.089844 1.367188.957031 3.484376 2.34375 3.699219 2.355469.007813 0 .015625 0 .015625-.007813.082032-.144531 11.351563-2.183593 11.886719-2.15625.011719 0 .015625 0 .011719.003907-.085938.148437-6.972656 7.582031-6.671875 7.753906.289062.171875 6.429687 8.277344 6.574219 8.359375.007812.003906 0 .007812-.027344.007812-.65625-.03125-12.246094-1.621093-12.246094-1.621093zm0 0" fill="#f5e806" fill-rule="evenodd"/><path d="m368.753906 180.3125c.359375.40625 4.757813 3.355469 4.84375 3.207031.082032-.144531 11.992188-2.300781 11.898438-2.15625-.085938.152344-6.972656 7.585938-6.671875 7.757813.289062.171875 6.429687 8.277344 6.574219 8.359375.152343.089843-12.273438-1.613281-12.273438-1.613281l-8.570312 6.261718-1.433594-8.722656s-10.214844-4.15625-10.359375-4.242188c-.144531-.082031 9.03125-2.640624 9.03125-2.640624l3.03125-6.914063s3.460937.832031 3.929687.703125zm0 0" fill="none" stroke="#070809" stroke-linecap="square" stroke-width="1.388889"/><path d="m519.199219 206.632812c.363281-7.28125-11.71875-43.058593-13.832031-48.234374-4.132813-5.707032-8.363282-14.628907-10-22.242188-.933594-7.648438-4.707032-13.785156-10.335938-16.082031-6.433594-3.820313-12.945312-2.746094-19.171875-2.503907-3.074219.5-5.753906 2.019532-7.339844 4.371094-3.582031 4.632813-5.386719 4.183594-7.800781 6.140625-19.222656 2.0625-37.738281 11.050781-51.777344 17.109375-7.507812 4.699219-13.820312 7.332032-16.710937 7.8125-7.746094-.339844-13.210938-4.277344-15.808594-6.355468-8.398437-8.402344-16.792969-16.800782-25.191406-25.199219-7.339844-6.039063-9.609375 2.066406-8.207031 3.390625 2.277343 5.578125-3.375 8.636718 16.5625 29.296875 2.382812 5.542969 4.757812 11.085937 7.136718 16.625 0 0-.648437 4.421875-.292968 4.628906 3.386718 9.265625 9.546874 7.285156 12.523437 4.878906 2.15625-1.789062 4.316406-3.578125 6.472656-5.355469 0 0 12.476563-3.304687 12.6875-3.664062 13.089844 2.589844 47.367188-2.261719 53.09375-4.660156 5.179688-2.585938 5.394531-.179688 9.933594-3.527344 3.769531-2.253906 1.667969-.414062 8.71875-6.265625 2.160156-1.691406 3.667969 1.28125 3.960937 3.324219-.535156 19.195312 1.570313 35.875 2.40625 55.078125.058594 1 .125 1.992187.183594 2.988281 10.542969 3.882812 21.078125 7.769531 31.613282 11.652344 7.269531-6.171875 14.539062-12.34375 21.804687-18.515625-.128906-1.714844-.425781-3.128907-.628906-4.691407zm0 0" fill="#fff" fill-rule="evenodd" stroke="#070809" stroke-linecap="square" stroke-width="1.388889"/><path d="m356.761719 138.335938c.253906.242187-5.535157 16.308593-5.535157 16.308593l-4.355468-4.898437 4.054687-16.96875zm0 0" fill="#f4eb06" fill-rule="evenodd"/><path d="m433.429688 132.269531c5.816406 7.128907 7.191406 18.328125 5.78125 24.496094" fill="none" stroke="#070809" stroke-linecap="square" stroke-width="1.388889"/><path d="m349.484375 129.890625c.085937.214844.386719 1.714844.398437 2.667969-.222656.992187-.671874 4.5625-1.113281 5.75-.363281 1.335937-.691406 2.679687-.941406 4.023437-.453125 1.453125-.648437 2.410157-1.148437 3.902344-.160157 1.296875-.453126 2.507813-.808594 3.789063" fill="none" stroke="#070809" stroke-linecap="square" stroke-width="1.536111"/><path d="m356.933594 137.734375c-.28125 1.097656-1.484375 5.964844-2.003906 7.285156-.449219 1.46875-.859376 2.949219-1.175782 4.425781-.539062 1.613282-.792968 2.664063-1.390625 4.316407-.230469 1.421875-.59375 2.753906-1.027343 4.171875" fill="none" stroke="#070809" stroke-linecap="square" stroke-width="1.536111"/><path d="m407.734375 171.632812.121094-.207031c-.378907.652344-.09375.28125-.675781-1.230469-.667969-.808593-.976563-4.570312.191406-6.582031.460937-1.03125 1.226562-2.589843 1.792968-3.566406.164063-.273437.59375-.539063.757813-.816406" fill="none" stroke="#070809" stroke-linecap="square" stroke-width="1.388889"/><path d="m364.90625 146.464844-.121094.203125c.15625-.273438-.328125.558593-.484375.835937-.632812 1.078125-1.453125 2.054688-2.027343 3.007813-.609376 1.046875-1.511719 1.914062-2.117188 2.953125-.761719.96875-1.449219 2.265625-2.234375 3.265625-.753906 1.195312-1.558594 2.03125-2.300781 3.304687-.632813 1-1.125 1.453125-1.785156 2.585938l1.785156-2.585938c-.632813 1-1.125 1.453125-1.785156 2.585938" fill="none" stroke="#070809" stroke-linecap="square" stroke-width="1.388889"/><path d="m343.589844 124.59375c.09375.207031.445312 1.617188.488281 2.511719-.183594.925781-.492187 4.246093-.875 5.347656-.316406 1.238281-.589844 2.484375-.777344 3.734375-.390625 1.347656-.542969 2.242188-.980469 3.613281-.109374 1.214844-.355468 2.335938-.65625 3.523438" fill="none" stroke="#070809" stroke-linecap="square" stroke-width="1.388889"/><path d="m368.480469 165.175781c-1.367188-1.582031-2.246094-1.070312-3.164063-1.1875-1.039062.140625-2.945312.90625-4.925781 2.71875-.726563.722657-1.339844 1.25-2.285156 2.015625-.441407.625-.800781.851563-1.265625 1.21875" fill="none" stroke="#070809" stroke-linecap="square" stroke-width="1.388889"/><path d="m479.214844 119.179688-.121094.210937c.382812-.65625.113281-.289063.347656 1.316406.363282 1.113281.378906 1.882813.792969 2.964844" fill="none" stroke="#070809" stroke-linecap="square" stroke-width="1.388889"/><path d="m456.515625 124.046875c-.078125.140625-1.003906 15.644531-.457031 17.671875.128906 1.285156.429687 2.378906.53125 3.914062-.035156.925782.140625 1.707032.164062 2.609376.472656 1.011718.542969 2.011718 1.039063 2.832031.207031 1.105469 1.082031 1.191406 1.507812 2.234375.625.742187 1.644531 2.042968 2.261719 2.632812" fill="none" stroke="#070809" stroke-linecap="square" stroke-width="1.388889"/><path d="m443.71875 166c-.464844-.183594-1.648438-1.210938-2.671875-1.78125-1.144531-.726562-3.886719-4.335938-3.914063-6.789062" fill="none" stroke="#070809" stroke-linecap="square" stroke-width="1.388889"/><path d="m456.375 144.535156c-.042969.070313-1.695312 1.554688-4.410156 4.058594-3.449219 2.90625-12.699219 7.746094-13.808594 8.117188-1.054688.417968-2.402344 1.488281-3.433594 1.597656-1.203125.410156-2.382812.542968-3.503906.75-1.375.21875-2.539062.417968-3.59375.421875-3.226562 1.226562-19.875-.097657-20.722656-.328125-.894532-.050782-2.105469-.171875-2.902344-.289063-.800781.152344-1.742188.027344-2.816406.035157-1.289063-.164063-2.042969.046874-3.140625.132812-.878907.40625-2.332031.808594-3.328125 1.414062-1.351563.46875-2.191406 1.15625-3.121094 1.523438-.996094.742188-14.320312 7.695312-14.96875 8.003906-1.386719.53125-6.347656 1.753906-7.40625-1.742187-.253906-1.367188-.804688-2.789063-.792969-3.824219-.339843-1.261719-.046875-2.570312.070313-3.726562 1.410156-5.796876 3.398437-8.015626 3.96875-8.988282.199218-.347656.402344-.695312.601562-1.039062" fill="none" stroke="#070809" stroke-linecap="square" stroke-width="1.388889"/><path d="m494.660156 134.84375-.128906.210938c.328125-.566407.175781-.273438-.691406.710937-.863282.636719-1.941406 1.652344-2.738282 2.3125-.792968.726563-1.589843 1.757813-2.285156 2.015625-.730468.875-1.617187 1.117188-2.582031 1.566406-1.296875.414063-2.195313.789063-3.335937 1.414063-1.4375.679687-2.351563 1.351562-3.691407 2.039062-.855469.988281-1.699219 1.585938-2.441406 2.761719-.726563 1.085938-1.449219 2.015625-2.144531 3.21875-.570313.96875-1.136719 1.945312-1.699219 2.917969l1.699219-2.917969c-.570313.96875-1.136719 1.945312-1.699219 2.917969" fill="none" stroke="#070809" stroke-linecap="square" stroke-width="1.388889"/><path d="m481.320312 126.117188c-1.613281 3.246093-5.574218 7.914062-5.640624 8.019531l-3.894532 6.941406c-1.753906 3.820313-.824218 5.421875-.195312 6.578125 1.296875 2.570312 1.480468 3.929688 2.441406 5.878906.28125 2.398438-3.972656 2.996094-4.03125 3.101563-8.914062 2.625-12.96875-6.003907-12.992188-6.433594-.980468-4.480469-.792968-5.207031 1.945313-5.984375 3.109375-.558594 4.351563-.539062 5.925781-1.574219 2.992188-2.027343 5.347656-8.472656 5.410156-8.574219l.605469-3.695312c.308594-1.722656-.421875-3.355469.601563-6.0625 1.277344-2.605469 2.003906-3.296875 4.746094-3.378906 3.574218-.148438 6.21875 2.5 5.078124 5.183594zm0 0" fill="#f4eb06" fill-rule="evenodd" stroke="#070809" stroke-linecap="square" stroke-width="1.388889"/><path d="m472.492188 155.550781 4.292968 11.425781 2.980469 10.910157 1.527344 10.726562.390625 10.566407-.351563 9.023437-1.417969 8.5zm0 0" fill="#fff" fill-rule="evenodd" stroke="#070809" stroke-linecap="square" stroke-width="1.388889"/><path d="m494.558594 259.46875c-3.28125-9.46875-4.519532-26.242188-4.519532-26.242188-3.925781-1.753906-7.847656-3.476562-11.769531-5.203124 4.484375 1.417968 8.96875 2.832031 13.457031 4.242187.039063.191406.0625.378906.101563.566406-.089844.074219-.175781.144531-.265625.214844l-1.398438 1.148437.304688 1.78125c1.367188 7.828126 2.722656 15.660157 4.089844 23.492188zm0 0" fill="#f4eb08" fill-rule="evenodd"/><path d="m491.828125 232.832031c-.039063-.1875-.0625-.375-.101563-.566406.1875.058594.382813.125.570313.183594-.15625.125-.3125.253906-.46875.382812zm0 0" fill="#f1e806" fill-rule="evenodd"/><path d="m502.175781 261.351562-1.132812-.75c-1.386719-7.96875-2.773438-15.9375-4.160157-23.90625.960938-.78125 1.917969-1.5625 2.875-2.351562.269532 8.574219-.785156 17.578125 2.417969 27.007812zm0 0" fill="#f4eb08" fill-rule="evenodd"/><path d="m503.542969 264.8125h-6.144531c-1.082032-1.082031-2.027344-2.980469-2.839844-5.34375-1.363282-7.828125-2.722656-15.664062-4.082032-23.492188l-.3125-1.78125 1.398438-1.148437c.089844-.070313.175781-.140625.265625-.214844.152344-.128906.3125-.257812.46875-.382812 2.085937.65625 4.175781 1.316406 6.265625 1.972656l.714844.226563.476562-.441407c.003906.046875.003906.089844.003906.136719-.957031.789062-1.914062 1.570312-2.875 2.351562 1.386719 7.96875 2.773438 15.9375 4.160157 23.90625l1.132812.75c.390625 1.148438.839844 2.300782 1.367188 3.460938zm0 0" fill="#f1e806" fill-rule="evenodd"/><path d="m465.441406 222.359375c-.441406-.195313-.882812-.390625-1.328125-.585937.417969-.269532.808594-.730469 1.121094-1.304688.066406.632812.136719 1.265625.207031 1.890625zm0 0" fill="#f1e806" fill-rule="evenodd"/><path d="m515.109375 219.851562c1.871094-1.75 3.742187-3.5 5.613281-5.253906l.480469-.449218-.078125-.648438c-.097656-.808594-.234375-1.550781-.371094-2.25.4375 1.109375 1.035156 2.066406 1.835938 2.441406-2.550782 2.070313-5.023438 4.117188-7.480469 6.160156zm0 0" fill="#f1e806" fill-rule="evenodd"/><path d="m498.621094 231.738281c-10.210938-3.222656-20.410156-6.4375-30.621094-9.660156-.078125-.710937-.15625-1.417969-.234375-2.136719-.101563-1.164062-.214844-2.324218-.332031-3.476562 2.417968.816406 7.125 2.597656 11.953125 4.390625.015625.03125.023437.066406.039062.109375l.25.320312c.128907.101563.332031.175782.5.175782h.011719c.253906-.007813.378906-.085938.457031-.132813l.007813-.003906c6.113281 2.25 12.128906 4.375 13.730468 4.425781 3.984376-1.457031 18.015626-12.953125 23.289063-17.351562.015625.222656.03125.417968.03125.589843v.015625h1.28125l-1.261719.234375c.253906 1.394531.550782 2.601563.753906 3.933594-6.621093 6.191406-13.234374 12.375-19.855468 18.566406zm0 0" fill="#f4eb08" fill-rule="evenodd"/><path d="m499.277344 234.648438-.714844-.226563c-2.089844-.65625-4.175781-1.316406-6.265625-1.972656-.1875-.058594-.382813-.125-.570313-.183594-4.488281-1.410156-8.972656-2.832031-13.457031-4.242187-4.277343-1.882813-8.550781-3.757813-12.828125-5.664063-.070312-.625-.140625-1.257813-.207031-1.890625.625-1.152344.945313-2.785156.566406-4.367188-.066406-.066406-.058593-.089843.019531-.089843.183594 0 .753907.160156 1.613282.453125.117187 1.152344.230468 2.3125.332031 3.476562.078125.71875.15625 1.425782.234375 2.136719 10.210938 3.222656 20.410156 6.4375 30.621094 9.660156 6.613281-6.191406 13.234375-12.382812 19.855468-18.566406-.203124-1.332031-.5-2.539063-.753906-3.933594l1.261719-.234375h-1.289063v-.015625c.007813-.171875-.007812-.367187-.023437-.589843 1.265625-1.054688 2.027344-1.695313 2.027344-1.695313.117187.992187.425781 2.933594 1.054687 4.546875.136719.699219.269532 1.441406.371094 2.253906l.078125.644532-.472656.449218c-1.878907 1.753906-3.75 3.503906-5.621094 5.253906-5.109375 4.246094-10.101563 8.449219-15.421875 12.765626.027344.53125.050781 1.054687.066406 1.589843zm0 0" fill="#f1e806" fill-rule="evenodd"/><path d="m480.175781 221.460938c-.167969 0-.371093-.074219-.5-.175782l-.25-.320312c-.015625-.042969-.023437-.078125-.039062-.109375.425781.15625.839843.3125 1.265625.46875l-.007813.003906c-.078125.046875-.203125.125-.457031.132813zm0 0" fill="#f1e806" fill-rule="evenodd"/><path d="m465.808594 216.101562c-1.328125-1.203124 24.953125 9.523438 28.574218 9.648438 4.941407-1.808594 25.316407-19.046875 25.316407-19.046875.203125 1.683594.925781 6.066406 2.890625 6.988281-7.871094 6.394532-15.023438 12.539063-22.902344 18.925782.558594 10.132812-1.289062 20.859374 3.855469 32.203124h-6.144531c-5.433594-5.429687-7.359376-31.59375-7.359376-31.59375-8.640624-3.863281-17.285156-7.601562-25.925781-11.453124 1.25-.808594 2.253907-3.296876 1.695313-5.671876zm0 0" fill="none" stroke="#070809" stroke-linecap="square" stroke-width="3.336111"/></svg>