<svg viewBox="0 0 1000 667" xmlns="http://www.w3.org/2000/svg" xmlns:xlink="http://www.w3.org/1999/xlink"><clipPath id="a"><path d="m0 0h1000v666.71875h-1000zm0 0"/></clipPath><clipPath id="b"><path d="m0 466h1000v200.71875h-1000zm0 0"/></clipPath><g clip-path="url(#a)"><path d="m0 666.667969v-666.667969h1000v666.667969zm0 0" fill="#fff" fill-rule="evenodd"/></g><path d="m0 0h1000v200h-1000zm0 0" fill-rule="evenodd"/><g clip-path="url(#b)"><path d="m0 466.667969h1000v200h-1000zm0 0" fill="#060" fill-rule="evenodd"/></g><path d="m380.917969 531.25 7.222656 4.167969 194.632813-337.121094c11.382812-3.050781 17.632812-13.878906 23.882812-24.703125 4.167969-7.214844 20.835938-36.082031 28.058594-73.59375-28.871094 25.011719-45.539063 53.878906-49.707032 61.09375-6.25 10.824219-12.5 21.652344-9.449218 33.035156zm0 0" fill-rule="evenodd"/><path d="m380.917969 531.25 7.222656 4.167969 194.632813-337.121094c11.382812-3.050781 17.632812-13.878906 23.882812-24.703125 4.167969-7.214844 20.832031-36.082031 28.058594-73.59375-28.871094 25.011719-45.539063 53.878906-49.703125 61.09375-6.253907 10.824219-12.503907 21.652344-9.453125 33.035156zm0 0" fill="none" stroke="#000" stroke-miterlimit="10" stroke-width="2.946279"/><path d="m380.917969 531.25 7.222656 4.167969 194.632813-337.121094c11.382812-3.050781 17.632812-13.878906 23.882812-24.703125 4.167969-7.214844 20.835938-36.082031 28.058594-73.59375-28.871094 25.011719-45.539063 53.878906-49.707032 61.09375-6.25 10.824219-12.5 21.652344-9.449218 33.035156zm0 0" fill="#fff" fill-rule="evenodd"/><path d="m619.082031 531.25-7.222656 4.167969-194.632813-337.121094c-11.382812-3.050781-17.632812-13.878906-23.882812-24.703125-4.167969-7.214844-20.835938-36.082031-28.058594-73.59375 28.871094 25.011719 45.539063 53.878906 49.707032 61.09375 6.25 10.824219 12.5 21.652344 9.449218 33.035156zm0 0" fill-rule="evenodd"/><path d="m619.078125 531.25-7.21875 4.167969-194.632813-337.121094c-11.382812-3.050781-17.632812-13.878906-23.882812-24.703125-4.167969-7.214844-20.832031-36.082031-28.0625-73.59375 28.875 25.011719 45.542969 53.878906 49.707031 61.09375 6.253907 10.824219 12.503907 21.652344 9.453125 33.035156zm0 0" fill="none" stroke="#000" stroke-miterlimit="10" stroke-width="2.946279"/><g fill-rule="evenodd"><path d="m619.082031 531.25-7.222656 4.167969-194.632813-337.121094c-11.382812-3.050781-17.632812-13.878906-23.882812-24.703125-4.167969-7.214844-20.835938-36.082031-28.058594-73.59375 28.871094 25.011719 45.539063 53.878906 49.707032 61.09375 6.25 10.824219 12.5 21.652344 9.449218 33.035156zm0 0" fill="#fff"/><path d="m0 233.332031v200h420.832031c12.5 33.335938 54.167969 100 79.167969 100s66.667969-66.664062 79.167969-100h420.832031v-200h-420.832031c-12.5-33.332031-54.167969-100-79.167969-100s-66.667969 66.667969-79.167969 100zm0 0" fill="#b00"/><path d="m579.167969 433.332031c12.5-33.332031 20.832031-66.664062 20.832031-100 0-33.332031-8.332031-66.664062-20.832031-100-12.5 33.335938-20.835938 66.667969-20.835938 100 0 33.335938 8.335938 66.667969 20.835938 100zm0 0"/><path d="m420.832031 433.332031c-12.5-33.332031-20.832031-66.664062-20.832031-100 0-33.332031 8.332031-66.664062 20.832031-100 12.5 33.335938 20.835938 66.667969 20.835938 100 0 33.335938-8.335938 66.667969-20.835938 100zm0 0"/><path d="m516.667969 333.332031c0 13.808594-7.460938 25-16.667969 25s-16.667969-11.191406-16.667969-25c0-13.804687 7.460938-25 16.667969-25s16.667969 11.195313 16.667969 25zm0 0" fill="#fff"/><path d="m504.167969 357.710938s16.664062 33.332031 16.664062 87.5c0 54.164062-16.664062 87.5-16.664062 87.5zm0 0" fill="#fff"/><path d="m495.832031 308.957031s-16.664062-33.332031-16.664062-87.5 16.664062-87.5 16.664062-87.5zm0 0" fill="#fff"/><path d="m495.832031 357.710938s-16.664062 33.332031-16.664062 87.5c0 54.164062 16.664062 87.5 16.664062 87.5zm0 0" fill="#fff"/><path d="m504.167969 308.957031s16.664062-33.332031 16.664062-87.5-16.664062-87.5-16.664062-87.5zm0 0" fill="#fff"/></g></svg>