<svg viewBox="0 0 1000 600" xmlns="http://www.w3.org/2000/svg"><path d="m0 0h1000v600h-1000z" fill="#002b7f"/><path d="m0 300h1000v300h-1000zm0 0" fill="#ce1126" fill-rule="evenodd"/><path d="m216.378906 122.289062-1.835937 62.5h-63.425781c-7.800782-15.171874-14.242188-28.050781-14.242188-45.496093 0-14.601563 11.480469-26.195313 28.03125-26.195313 17.519531 0 36.769531 5.902344 51.472656 9.191406zm0 0" fill="#ffd83d" fill-rule="evenodd"/><path d="m144.457031 125.160156v36.074219" fill="none" stroke="#000" stroke-width="1.5"/><path d="m149.550781 121.480469v48.03125" fill="none" stroke="#000" stroke-width="1.5"/><path d="m154.644531 118.949219v57.226562" fill="none" stroke="#000" stroke-width="1.5"/><path d="m159.734375 117.769531v44.882813" fill="none" stroke="#000" stroke-width="1.5"/><path d="m164.828125 117.546875v45.328125" fill="none" stroke="#000" stroke-width="1.5"/><path d="m169.921875 115.964844v46.886718" fill="none" stroke="#000" stroke-width="1.5"/><path d="m175.015625 115.964844v46.886718" fill="none" stroke="#000" stroke-width="1.5"/><path d="m180.113281 116.425781v46.882813" fill="none" stroke="#000" stroke-width="1.5"/><path d="m185.203125 116.886719v46.882812" fill="none" stroke="#000" stroke-width="1.5"/><path d="m190.296875 119.871094v46.886718" fill="none" stroke="#000" stroke-width="1.5"/><path d="m195.390625 120.332031v52.855469" fill="none" stroke="#000" stroke-width="1.5"/><path d="m200.484375 120.332031v46.882813" fill="none" stroke="#000" stroke-width="1.5"/><path d="m205.578125 120.332031v46.882813" fill="none" stroke="#000" stroke-width="1.5"/><path d="m176.394531 117.925781c10.765625 1.773438 34.40625 12.835938 31.710938 27.800781-3.824219 21.207032-16.207031 12.695313-32.625 9.648438l-12.414063 4.136719c-4.4375 4.53125-10.976562 8.6875-15.394531 3.21875h-7.347656v28.71875h81.335937v-69.390625zm0 0" fill-rule="evenodd" stroke="#000" stroke-width="1.5"/><path d="m217.753906 112.984375c0 2.726563-2.210937 4.941406-4.9375 4.941406-2.730468 0-4.941406-2.214843-4.941406-4.941406 0-2.730469 2.210938-4.941406 4.941406-4.941406 2.726563 0 4.9375 2.210937 4.9375 4.941406zm0 0" fill="#ffd83d" fill-rule="evenodd" stroke="#000" stroke-width="2"/><path d="m206.65625 110.3125c0 2.726562-2.210938 4.9375-4.941406 4.9375-2.730469 0-4.941406-2.210938-4.941406-4.9375 0-2.730469 2.210937-4.941406 4.941406-4.941406 2.730468 0 4.941406 2.210937 4.941406 4.941406zm0 0" fill="#ffd83d" fill-rule="evenodd" stroke="#000" stroke-width="2"/><path d="m195.390625 107.480469c0 2.730469-2.210937 4.941406-4.941406 4.941406s-4.941407-2.210937-4.941407-4.941406 2.210938-4.9375 4.941407-4.9375 4.941406 2.207031 4.941406 4.9375zm0 0" fill="#ffd83d" fill-rule="evenodd" stroke="#000" stroke-width="2"/><path d="m184.082031 105.597656c0 2.726563-2.210937 4.941406-4.941406 4.941406-2.722656 0-4.9375-2.214843-4.9375-4.941406 0-2.730468 2.214844-4.945312 4.9375-4.945312 2.730469 0 4.941406 2.214844 4.941406 4.945312zm0 0" fill="#ffd83d" fill-rule="evenodd" stroke="#000" stroke-width="2"/><path d="m172.777344 104.484375c0 2.722656-2.210938 4.933594-4.941406 4.933594-2.726563 0-4.941407-2.210938-4.941407-4.933594 0-2.730469 2.214844-4.941406 4.941407-4.941406 2.730468 0 4.941406 2.210937 4.941406 4.941406zm0 0" fill="#ffd83d" fill-rule="evenodd" stroke="#000" stroke-width="2"/><path d="m161.691406 105.113281c0 2.726563-2.214844 4.941407-4.945312 4.941407-2.726563 0-4.941406-2.214844-4.941406-4.941407 0-2.730469 2.214843-4.941406 4.941406-4.941406 2.730468 0 4.945312 2.210937 4.945312 4.941406zm0 0" fill="#ffd83d" fill-rule="evenodd" stroke="#000" stroke-width="2"/><path d="m151.117188 108.730469c0 2.730469-2.210938 4.941406-4.9375 4.941406-2.726563 0-4.941407-2.210937-4.941407-4.941406s2.214844-4.941407 4.941407-4.941407c2.726562 0 4.9375 2.210938 4.9375 4.941407zm0 0" fill="#ffd83d" fill-rule="evenodd" stroke="#000" stroke-width="2"/><path d="m142.214844 115.277344c0 2.730468-2.210938 4.941406-4.941406 4.941406-2.726563 0-4.941407-2.210938-4.941407-4.941406 0-2.722656 2.214844-4.9375 4.941407-4.9375 2.730468 0 4.941406 2.214844 4.941406 4.9375zm0 0" fill="#ffd83d" fill-rule="evenodd" stroke="#000" stroke-width="2"/><path d="m135.898438 124.414062c0 2.730469-2.210938 4.941407-4.941407 4.941407s-4.941406-2.210938-4.941406-4.941407c0-2.730468 2.210937-4.941406 4.941406-4.941406s4.941407 2.210938 4.941407 4.941406zm0 0" fill="#ffd83d" fill-rule="evenodd" stroke="#000" stroke-width="2"/><path d="m132.851562 135.15625c0 2.730469-2.210937 4.941406-4.941406 4.941406-2.726562 0-4.9375-2.210937-4.9375-4.941406s2.210938-4.941406 4.9375-4.941406c2.730469 0 4.941406 2.210937 4.941406 4.941406zm0 0" fill="#ffd83d" fill-rule="evenodd" stroke="#000" stroke-width="2"/><path d="m132.96875 146.296875c0 2.730469-2.210938 4.941406-4.941406 4.941406-2.730469 0-4.941406-2.210937-4.941406-4.941406 0-2.722656 2.210937-4.933594 4.941406-4.933594 2.730468 0 4.941406 2.210938 4.941406 4.933594zm0 0" fill="#ffd83d" fill-rule="evenodd" stroke="#000" stroke-width="2"/><path d="m135.09375 157.214844c0 2.726562-2.210938 4.9375-4.941406 4.9375-2.730469 0-4.941406-2.210938-4.941406-4.9375 0-2.726563 2.210937-4.941406 4.941406-4.941406 2.730468 0 4.941406 2.214843 4.941406 4.941406zm0 0" fill="#ffd83d" fill-rule="evenodd" stroke="#000" stroke-width="2"/><path d="m215 119.53125-.457031 6.433594c-12.296875-1.882813-29.71875-8.734375-45.960938-8.734375-15.007812 0-26.652343 6.007812-26.652343 21.144531 0 14.917969 6.316406 28.484375 14.707031 42.277344l-8.738281 4.136718c-7.796876-15.171874-14.242188-28.050781-14.242188-45.496093 0-14.601563 11.484375-28.953125 31.25-28.953125 17.519531 0 35.390625 5.90625 50.09375 9.191406zm0 0" fill="#ffd83d" fill-rule="evenodd" stroke="#000" stroke-width="2"/><path d="m227.558594 122.289062 1.839844 62.5h63.417968c7.804688-15.171874 14.25-28.050781 14.25-45.496093 0-14.601563-11.484375-26.195313-28.03125-26.195313-17.519531 0-36.773437 5.902344-51.476562 9.191406zm0 0" fill="#ffd83d" fill-rule="evenodd"/><path d="m299.484375 125.160156v36.074219" fill="none" stroke="#000" stroke-width="1.5"/><path d="m294.390625 121.480469v48.03125" fill="none" stroke="#000" stroke-width="1.5"/><path d="m289.296875 118.949219v57.226562" fill="none" stroke="#000" stroke-width="1.5"/><path d="m284.199219 117.769531v44.882813" fill="none" stroke="#000" stroke-width="1.5"/><path d="m279.105469 117.546875v45.328125" fill="none" stroke="#000" stroke-width="1.5"/><path d="m274.015625 115.964844v46.886718" fill="none" stroke="#000" stroke-width="1.5"/><path d="m268.921875 115.964844v46.886718" fill="none" stroke="#000" stroke-width="1.5"/><path d="m263.828125 116.425781v46.882813" fill="none" stroke="#000" stroke-width="1.5"/><path d="m258.734375 116.886719v46.882812" fill="none" stroke="#000" stroke-width="1.5"/><path d="m253.640625 119.871094v46.886718" fill="none" stroke="#000" stroke-width="1.5"/><path d="m248.546875 120.332031v52.855469" fill="none" stroke="#000" stroke-width="1.5"/><path d="m243.453125 120.332031v46.882813" fill="none" stroke="#000" stroke-width="1.5"/><path d="m238.359375 120.332031v46.882813" fill="none" stroke="#000" stroke-width="1.5"/><path d="m267.542969 117.925781c-10.765625 1.773438-34.40625 12.835938-31.714844 27.800781 3.824219 21.207032 16.214844 12.695313 32.632813 9.648438l12.40625 4.136719c4.441406 4.53125 10.980468 8.6875 15.398437 3.21875h7.351563v28.71875h-81.34375v-69.390625zm0 0" fill-rule="evenodd" stroke="#000" stroke-width="1.5"/><path d="m226.179688 112.984375c0 2.726563 2.214843 4.941406 4.941406 4.941406 2.730468 0 4.945312-2.214843 4.945312-4.941406 0-2.730469-2.214844-4.941406-4.945312-4.941406-2.726563 0-4.941406 2.210937-4.941406 4.941406zm0 0" fill="#ffd83d" fill-rule="evenodd" stroke="#000" stroke-width="2"/><path d="m237.285156 110.3125c0 2.726562 2.210938 4.9375 4.941406 4.9375 2.726563 0 4.9375-2.210938 4.9375-4.9375 0-2.730469-2.210937-4.941406-4.9375-4.941406-2.730468 0-4.941406 2.210937-4.941406 4.941406zm0 0" fill="#ffd83d" fill-rule="evenodd" stroke="#000" stroke-width="2"/><path d="m248.550781 107.480469c0 2.730469 2.210938 4.941406 4.933594 4.941406 2.730469 0 4.941406-2.210937 4.941406-4.941406s-2.210937-4.9375-4.941406-4.9375c-2.722656 0-4.933594 2.207031-4.933594 4.9375zm0 0" fill="#ffd83d" fill-rule="evenodd" stroke="#000" stroke-width="2"/><path d="m259.855469 105.597656c0 2.726563 2.210937 4.941406 4.941406 4.941406 2.726563 0 4.9375-2.214843 4.9375-4.941406 0-2.730468-2.210937-4.945312-4.9375-4.945312-2.730469 0-4.941406 2.214844-4.941406 4.945312zm0 0" fill="#ffd83d" fill-rule="evenodd" stroke="#000" stroke-width="2"/><path d="m271.164062 104.484375c0 2.722656 2.210938 4.933594 4.941407 4.933594 2.722656 0 4.933593-2.210938 4.933593-4.933594 0-2.730469-2.210937-4.941406-4.933593-4.941406-2.730469 0-4.941407 2.210937-4.941407 4.941406zm0 0" fill="#ffd83d" fill-rule="evenodd" stroke="#000" stroke-width="2"/><path d="m282.246094 105.113281c0 2.726563 2.210937 4.941407 4.941406 4.941407s4.941406-2.214844 4.941406-4.941407c0-2.730469-2.210937-4.941406-4.941406-4.941406s-4.941406 2.210937-4.941406 4.941406zm0 0" fill="#ffd83d" fill-rule="evenodd" stroke="#000" stroke-width="2"/><path d="m292.816406 108.730469c0 2.730469 2.210938 4.941406 4.941406 4.941406 2.730469 0 4.941407-2.210937 4.941407-4.941406s-2.210938-4.941407-4.941407-4.941407c-2.730468 0-4.941406 2.210938-4.941406 4.941407zm0 0" fill="#ffd83d" fill-rule="evenodd" stroke="#000" stroke-width="2"/><path d="m301.722656 115.277344c0 2.730468 2.210938 4.941406 4.9375 4.941406 2.730469 0 4.941406-2.210938 4.941406-4.941406 0-2.722656-2.210937-4.9375-4.941406-4.9375-2.726562 0-4.9375 2.214844-4.9375 4.9375zm0 0" fill="#ffd83d" fill-rule="evenodd" stroke="#000" stroke-width="2"/><path d="m308.042969 124.414062c0 2.730469 2.210937 4.941407 4.9375 4.941407 2.726562 0 4.941406-2.210938 4.941406-4.941407 0-2.730468-2.214844-4.941406-4.941406-4.941406-2.726563 0-4.9375 2.210938-4.9375 4.941406zm0 0" fill="#ffd83d" fill-rule="evenodd" stroke="#000" stroke-width="2"/><path d="m311.082031 135.15625c0 2.730469 2.214844 4.941406 4.941407 4.941406 2.730468 0 4.941406-2.210937 4.941406-4.941406s-2.210938-4.941406-4.941406-4.941406c-2.726563 0-4.941407 2.210937-4.941407 4.941406zm0 0" fill="#ffd83d" fill-rule="evenodd" stroke="#000" stroke-width="2"/><path d="m310.972656 146.296875c0 2.730469 2.210938 4.941406 4.9375 4.941406 2.726563 0 4.941406-2.210937 4.941406-4.941406 0-2.722656-2.214843-4.933594-4.941406-4.933594-2.726562 0-4.9375 2.210938-4.9375 4.933594zm0 0" fill="#ffd83d" fill-rule="evenodd" stroke="#000" stroke-width="2"/><path d="m308.84375 157.214844c0 2.726562 2.210938 4.9375 4.941406 4.9375 2.730469 0 4.941406-2.210938 4.941406-4.9375 0-2.726563-2.210937-4.941406-4.941406-4.941406-2.730468 0-4.941406 2.214843-4.941406 4.941406zm0 0" fill="#ffd83d" fill-rule="evenodd" stroke="#000" stroke-width="2"/><path d="m228.941406 119.53125.457032 6.433594c12.292968-1.882813 29.710937-8.734375 45.957031-8.734375 15.003906 0 26.652343 6.007812 26.652343 21.144531 0 14.917969-6.3125 28.484375-14.703124 42.277344l8.730468 4.136718c7.800782-15.171874 14.25-28.050781 14.25-45.496093 0-14.601563-11.488281-28.953125-31.25-28.953125-17.519531 0-35.394531 5.90625-50.09375 9.191406zm0 0" fill="#ffd83d" fill-rule="evenodd" stroke="#000" stroke-width="2"/><path d="m221.96875 53.125-5.15625 9.660156 5.15625 9.621094 5.15625-9.621094zm0 24.375-5.15625 9.625 5.15625 9.65625 5.15625-9.65625zm0 0" fill="#ffd83d" fill-rule="evenodd"/><path d="m221.96875 53.125-5.15625 9.660156 5.15625 9.621094 5.15625-9.621094zm0 0" fill="none" stroke="#000" stroke-width="2"/><path d="m221.96875 77.5-5.15625 9.625 5.15625 9.65625 5.15625-9.65625zm0 0" fill="none" stroke="#000" stroke-width="2"/><path d="m203.589844 74.953125 8.128906 5.15625 8.105469-5.15625-8.105469-5.15625zm20.519531 0 8.105469 5.15625 8.136718-5.15625-8.136718-5.15625zm0 0" fill="#ffd83d" fill-rule="evenodd"/><path d="m203.589844 74.953125 8.128906 5.15625 8.105469-5.15625-8.105469-5.15625zm0 0" fill="none" stroke="#000" stroke-width="2"/><path d="m224.109375 74.953125 8.105469 5.15625 8.136718-5.15625-8.136718-5.15625zm0 0" fill="none" stroke="#000" stroke-width="2"/><path d="m225.875 75.070312c0 2.15625-1.75 3.90625-3.90625 3.90625-2.160156 0-3.90625-1.75-3.90625-3.90625 0-2.160156 1.746094-3.90625 3.90625-3.90625 2.15625 0 3.90625 1.746094 3.90625 3.90625zm0 0" fill="#ffd83d" fill-rule="evenodd" stroke="#000" stroke-width="2"/><path d="m232.421875 100c0 5.777344-4.679687 10.453125-10.453125 10.453125s-10.453125-4.675781-10.453125-10.453125 4.679687-10.453125 10.453125-10.453125 10.453125 4.675781 10.453125 10.453125zm0 0" fill="#ffd83d" fill-rule="evenodd" stroke="#000" stroke-width="2"/><path d="m219.347656 89.871094c0 3.117187-.027344 4.929687-.035156 6.628906-2.519531.109375-5.007812.375-7.4375.78125" fill="none" stroke="#000" stroke-width="1.5"/><path d="m232.058594 97.28125c-2.429688-.40625-4.914063-.671875-7.433594-.78125v-6.628906" fill="none" stroke="#000" stroke-width="1.5"/><path d="m211.847656 102.5625c3.289063-.550781 6.667969-.84375 10.121094-.84375s6.828125.292969 10.125.84375" fill="none" stroke="#000" stroke-width="1.5"/><path d="m211.746094 117.683594c-.988282 17.085937-3.007813 34.484375-9.652344 47.132812l10.8125-4.375c3.777344-14.332031 4.570312-32.847656 5.714844-41.597656zm20.441406 0-6.875 1.160156c1.148438 8.75 1.945312 27.265625 5.71875 41.597656l10.816406 4.375c-6.652344-12.648437-8.667968-30.046875-9.660156-47.132812zm0 0" fill="#ffd83d" fill-rule="evenodd"/><path d="m211.746094 117.683594c-.988282 17.085937-3.007813 34.484375-9.652344 47.132812l10.8125-4.375c3.777344-14.332031 4.570312-32.847656 5.714844-41.597656zm0 0" fill="none" stroke="#000" stroke-width="2"/><path d="m232.1875 117.683594-6.875 1.160156c1.148438 8.75 1.945312 27.265625 5.71875 41.597656l10.816406 4.375c-6.652344-12.648437-8.667968-30.046875-9.660156-47.132812zm0 0" fill="none" stroke="#000" stroke-width="2"/><path d="m221.953125 154.6875c-12.914063 0-22.398437 6.089844-22.96875 21.589844-3.15625-5.550782-16.507813-23.019532-28.96875-20.679688-7.40625 1.386719-13.957031 11.664063-12.84375 23.4375-6.136719-17.632812-24.105469-20.523437-37.21875-10.101562 11.644531 9.578125 16.820313 37.839844 26.625 50.101562h150.75c9.804687-12.261718 15.015625-40.523437 26.65625-50.101562-13.109375-10.421875-31.085937-7.53125-37.21875 10.101562 1.117187-11.773437-5.46875-22.050781-12.875-23.4375-12.460937-2.339844-25.78125 15.128906-28.9375 20.679688-.566406-15.5-10.085937-21.589844-23-21.589844zm0 0" fill="#ffd83d" fill-rule="evenodd" stroke="#000" stroke-width="2"/><path d="m297.105469 219.023438c0 5.582031-33.65625 11.71875-75.136719 11.71875-41.476562 0-75.136719-6.136719-75.136719-11.71875 0-5.574219 33.660157-8.5 75.136719-8.5 41.480469 0 75.136719 2.925781 75.136719 8.5zm0 0" fill-rule="evenodd" stroke="#000" stroke-width="1.5"/><path d="m225.472656 114.445312c0 1.9375-1.566406 3.503907-3.503906 3.503907-1.933594 0-3.503906-1.566407-3.503906-3.503907 0-1.933593 1.570312-3.503906 3.503906-3.503906 1.9375 0 3.503906 1.570313 3.503906 3.503906zm0 0" fill="#ffd83d" fill-rule="evenodd" stroke="#000" stroke-width="1.5"/><path d="m225.703125 122.027344c0 2.0625-1.667969 3.734375-3.734375 3.734375-2.0625 0-3.734375-1.671875-3.734375-3.734375s1.671875-3.734375 3.734375-3.734375c2.066406 0 3.734375 1.671875 3.734375 3.734375zm0 0" fill="#ffd83d" fill-rule="evenodd" stroke="#000" stroke-width="1.5"/><path d="m226.046875 130.183594c0 2.253906-1.824219 4.078125-4.078125 4.078125s-4.078125-1.824219-4.078125-4.078125 1.824219-4.078125 4.078125-4.078125 4.078125 1.824219 4.078125 4.078125zm0 0" fill="#ffd83d" fill-rule="evenodd" stroke="#000" stroke-width="1.5"/><path d="m226.621094 139.261719c0 2.570312-2.085938 4.65625-4.652344 4.65625-2.570312 0-4.652344-2.085938-4.652344-4.65625 0-2.570313 2.082032-4.652344 4.652344-4.652344 2.566406 0 4.652344 2.082031 4.652344 4.652344zm0 0" fill="#ffd83d" fill-rule="evenodd" stroke="#000" stroke-width="1.5"/><path d="m227.078125 149.371094c0 2.820312-2.289063 5.113281-5.109375 5.113281-2.824219 0-5.113281-2.292969-5.113281-5.113281 0-2.824219 2.289062-5.113282 5.113281-5.113282 2.820312 0 5.109375 2.289063 5.109375 5.113282zm0 0" fill="#ffd83d" fill-rule="evenodd" stroke="#000" stroke-width="1.5"/><path d="m219.9375 159.203125c-.550781-.003906-1.074219.460937-.9375 1.347656.164062 1.039063.363281 2.996094.558594 4.3125.226562 1.496094 1.09375 1.128907 1.316406-.035156.222656-1.15625.132812-1.902344.191406-4.0625.023438-1.074219-.578125-1.550781-1.128906-1.5625zm4.0625 0c-.550781.011719-1.152344.488281-1.125 1.5625.054688 2.160156-.035156 2.90625.1875 4.0625.222656 1.164063 1.09375 1.53125 1.3125.035156.195312-1.316406.398438-3.273437.5625-4.3125.140625-.886719-.386719-1.351562-.9375-1.347656zm-7.6875.566406c-.507812.070313-1.027344.578125-1 1.125.054688.996094.332031 2.1875.441406 3.683594.105469 1.550781 1.199219.949219 1.304688.066406.113281-.882812.242187-2.191406.128906-3.90625-.039062-.644531-.324219-.929687-.652344-.96875-.074218-.007812-.148437-.007812-.222656 0zm11.09375 0c-.335938.039063-.613281.324219-.660156.96875-.105469 1.714844.015625 3.023438.128906 3.90625.113281.882813 1.203125 1.484375 1.3125-.066406.109375-1.496094.382812-2.6875.433594-3.683594.035156-.546875-.492188-1.054687-.992188-1.125-.074218-.007812-.152344-.007812-.222656 0zm-15.4375 1.75c-.464844.117188-.890625.679688-.746094 1.3125.269532 1.269531.523438 2.675781.523438 3.96875 0 1.105469.949218.710938 1.003906-.0625.050781-.777343.15625-2.417969.15625-3.90625 0-1.113281-.476562-1.4375-.9375-1.3125zm19.6875 0c-.328125.089844-.625.476563-.625 1.3125 0 1.488281.101562 3.128907.15625 3.90625.058594.773438 1 1.167969 1 .0625 0-1.292969.253906-2.699219.53125-3.96875.136719-.632812-.289062-1.195312-.75-1.3125-.117188-.03125-.203125-.03125-.3125 0zm-59.09375.171875c-.554688-.019531-.941406.730469-.558594 1.5625.605469 1.324219 1.25 2.160156 1.875 3.59375.550782 1.265625 1.398438.476563 1.121094-.40625-.277344-.886718-.578125-1.871094-1.40625-3.75-.3125-.707031-.699219-.992187-1.03125-1zm98.816406 0c-.332031.007813-.726562.292969-1.039062 1-.824219 1.878906-1.125 2.863282-1.40625 3.75-.269532.882813.578125 1.671875 1.128906.40625.621094-1.433594 1.265625-2.269531 1.875-3.59375.382812-.832031-.007812-1.582031-.558594-1.5625zm-94.816406.0625c-.410156.121094-.652344.636719-.40625 1.25.5 1.214844 1.214844 2.460938 1.71875 3.777344.441406 1.164062 1.425781.835938 1.09375-.21875-.332031-1.050781-.429688-1.664062-1.09375-3.652344-.332031-.996094-.902344-1.285156-1.3125-1.15625zm90.496094 0c-.34375.074219-.746094.410156-.992188 1.15625-.667968 1.988282-.765625 2.601563-1.09375 3.652344-.332031 1.054688.648438 1.382812 1.09375.21875.496094-1.316406 1.21875-2.5625 1.71875-3.777344.246094-.613281 0-1.128906-.414062-1.25-.097656-.035156-.195313-.023437-.3125 0zm-85.496094.964844c-.511719.097656-.914062.886719-.5625 1.847656.441406 1.214844 1.070312 2.367188 1.628906 3.75.550782 1.382813 1.46875 1.101563 1.25.21875-.226562-.890625-.496094-2.355468-1.160156-4.566406-.292969-.964844-.757812-1.324219-1.15625-1.25zm80.808594 0c-.394532-.074219-.863282.285156-1.148438 1.25-.667968 2.210938-.9375 3.675781-1.160156 4.566406-.222656.882813.699219 1.164063 1.25-.21875.550781-1.382812 1.183594-2.535156 1.628906-3.75.34375-.960937-.050781-1.75-.570312-1.847656zm-93.179688.691406c-.558594.054688-1.066406.964844-.726562 1.652344.558594 1.109375.90625 1.484375 1.441406 2.65625.550781 1.214844 1.160156.273438.9375-.496094-.222656-.777344-.507812-1.675781-.78125-2.785156-.203125-.808594-.542969-1.0625-.871094-1.027344zm105.558594 0c-.335938-.035156-.671875.21875-.871094 1.027344-.28125 1.109375-.5625 2.007812-.78125 2.785156-.226562.769532.378906 1.710938.9375.496094.53125-1.171875.882813-1.546875 1.433594-2.65625.347656-.6875-.160156-1.597656-.71875-1.652344zm-67.03125 2.796875c-.585938 0-1.203125.777344-1 1.496094.332031 1.164063.84375 2.195313 1.222656 3.6875.328125 1.328125 1.273438.667969 1.214844-.214844-.054688-.886719-.207031-2.089843-.589844-3.96875-.148437-.707031-.496094-1-.847656-1zm28.503906 0c-.355468 0-.699218.292969-.847656 1-.386719 1.878907-.535156 3.082031-.59375 3.96875-.054688.882813.886719 1.542969 1.21875.214844.371094-1.492187.886719-2.523437 1.214844-3.6875.210937-.71875-.414063-1.496094-.992188-1.496094zm-14.253906 1.183594c-.71875 0-.816406.96875-.847656 1.753906-.082032 2.570313-1.144532 5.070313-2.058594 6.308594-.914062 1.246094-2.257812.914063-3.5.253906-1.246094-.664062-1.984375-1.160156-3.3125-2.15625-1.328125-.996093-2.332031-.414062-.75 1.84375 4.617188 6.578125 9.621094 12.203125 9.621094 22.933594 0 1.386719.246094 1.8125.847656 1.8125s.871094-.425781.871094-1.8125c0-10.730469 4.984375-16.355469 9.597656-22.933594 1.585938-2.257812.574219-2.839843-.746094-1.84375-1.332031.996094-2.074218 1.492188-3.316406 2.15625-1.246094.660157-2.589844.992188-3.503906-.253906-.910156-1.238281-1.976563-3.738281-2.058594-6.308594-.023438-.785156-.128906-1.753906-.84375-1.753906zm-35.277344-1.609375c-.066406 0-.132812.015625-.191406.035156-.269531.082032-.445312.410156-.34375.964844.1875 1.003906.878906 2.96875 1.160156 3.90625.269532.945312 1.429688.742188 1.148438-.53125-.269532-1.269531-.257813-1.65625-.589844-3.089844-.179688-.789062-.746094-1.269531-1.183594-1.285156zm70.558594 0c-.4375.015625-1.003906.496094-1.183594 1.285156-.332031 1.433594-.320312 1.820313-.597656 3.089844-.277344 1.273438.878906 1.476562 1.15625.53125.273438-.9375.972656-2.902344 1.160156-3.90625.101563-.554688-.082031-.882812-.347656-.964844-.054688-.019531-.121094-.035156-.1875-.035156zm-91.53125.410156c-.578125.042969-.992188.769532-.40625 1.839844.636719 1.160156 1.71875 2.609375 2.214844 3.4375.5.832031 1.363281.269531.753906-.78125-.609375-1.046875-.808594-2.253906-1.535156-3.75-.265625-.554688-.679688-.773438-1.027344-.746094zm112.5 0c-.347656-.027344-.761719.191406-1.03125.746094-.71875 1.496094-.921875 2.703125-1.535156 3.75-.605469 1.050781.257812 1.613281.753906.78125.496094-.828125 1.585938-2.277344 2.214844-3.4375.59375-1.070312.175781-1.796875-.402344-1.839844zm-144.183594 3.324219c-.671875-.03125-.882812 1.171875-.257812 1.972656.914062 1.15625 1.550781 1.773438 2.601562 2.714844.828125.75 1.066406-.21875.652344-.964844-.414062-.75-1.015625-1.503906-1.847656-2.75-.453125-.683593-.847656-.953125-1.148438-.972656zm175.871094 0c-.300781.019531-.703125.289063-1.15625.972656-.828125 1.246094-1.429688 2-1.847656 2.75-.414063.746094-.167969 1.714844.660156.964844 1.046875-.941406 1.679688-1.558594 2.59375-2.714844.625-.800781.421875-2.003906-.25-1.972656zm-170.84375 1c-.53125.011719-.882812.402344-.46875 1.316406.597656 1.304688 1.378906 2.78125 1.875 3.777344s2.015625 1.335937 1.40625-.214844-.726562-2.34375-1.277344-3.785156c-.28125-.714844-1.003906-1.097656-1.535156-1.09375zm165.808594 0c-.53125-.003906-1.253906.378906-1.527344 1.09375-.550781 1.441406-.671875 2.234375-1.285156 3.785156-.605469 1.550781.910156 1.210938 1.40625.214844.5-.996094 1.285156-2.472656 1.875-3.777344.417968-.914062.066406-1.304687-.46875-1.316406zm-175.558594.347656c-.773438.003907-.839844.78125-.15625 1.28125.914062.664063 2 1.402344 3.058594 2.25 1.246094.996094 1.730468.078125 1.066406-.753906-.664062-.828125-1.308594-1.667969-2.96875-2.5-.414062-.203125-.742188-.28125-1-.277344zm185.3125 0c-.261719-.003906-.585938.074219-1.003906.277344-1.652344.832031-2.300782 1.671875-2.96875 2.5-.65625.832031-.179688 1.75 1.066406.753906 1.066406-.847656 2.148438-1.585937 3.0625-2.25.683594-.5.617188-1.277343-.15625-1.28125zm-109.652344.71875c-.4375.058594-.8125.550781-.625 1.1875.328125 1.160157.707032 2.390625.9375 3.59375.21875 1.160157 1.5625 1.175781 1.339844.125-.21875-1.054687-.332031-2.367187-.714844-3.96875-.148437-.601562-.453125-.894531-.753906-.9375-.0625-.007812-.128906-.007812-.183594 0zm33.804688 0c-.296875.042969-.597656.335938-.746094.9375-.386719 1.601563-.496094 2.914063-.714844 3.96875-.226562 1.050781 1.117188 1.035157 1.339844-.125.230469-1.203125.605469-2.433593.9375-3.59375.179688-.636719-.195312-1.128906-.625-1.1875-.0625-.007812-.125-.007812-.191406 0zm-63.90625-1.988281c-.335938.09375-.53125.746094-.277344 1.65625 1.414062 5.0625 1.839844 7.726562 1.59375 8.96875-.25 1.246094-.933594 1.417969-1.839844 1.003906-.914062-.417968-1.988281-1.019531-2.8125-1.59375-.832031-.582031-1.695312.113282-.503906 1.09375 6.054688 4.976563 10.253906 10.664063 11.875 17.558594.332031 1.410156 1.21875 1.578125.972656 0-1.375-8.6875-1.636718-15.828125.433594-20.3125.78125-1.679688-.007812-3.296875-1.25-.5625-.832031 1.828125-2.171875 2.546875-3.246094.972656-1.082031-1.578125-3.308594-5.78125-3.972656-7.691406-.246094-.710938-.554688-1.042969-.816406-1.09375-.050782-.007812-.105469-.015625-.15625 0zm94.035156 0c-.257812.050781-.5625.382812-.808594 1.09375-.667968 1.910156-2.894531 6.113281-3.972656 7.691406-1.078125 1.574219-2.421875.855469-3.25-.972656-1.246094-2.734375-2.027344-1.117188-1.25.5625 2.074219 4.484375 1.808594 11.625.4375 20.3125-.246094 1.578125.636719 1.410156.96875 0 1.625-6.894531 5.820312-12.582031 11.875-17.558594 1.191406-.980468.332031-1.675781-.5-1.09375-.828125.574219-1.898438 1.175782-2.8125 1.59375-.914062.414063-1.597656.242188-1.84375-1.003906-.25-1.242188.183594-3.90625 1.597656-8.96875.253906-.910156.054688-1.5625-.285156-1.65625-.046875-.015625-.101562-.007812-.15625 0zm-124.46875 2.421875c-.546875.011719-1 .390625-.75 1.222656.398438 1.328125 1.226562 2.761719 1.496094 3.59375.28125.828125 1.167968.441407 1.003906-.71875-.167969-1.160156-.246094-1.855469-.46875-3.125-.109375-.632812-.734375-.976562-1.28125-.972656zm155.066406 0c-.550781-.003906-1.175781.339844-1.285156.972656-.222656 1.269531-.304688 1.964844-.46875 3.125-.167969 1.160157.722656 1.546875 1 .71875.277344-.832031 1.105469-2.265625 1.5-3.59375.246094-.832031-.207031-1.210937-.746094-1.222656zm-136.285156-1.730469c-.636719-.113281-.730469 1.519532-.1875 2.1875.71875.882813 1.71875 1.949219 2.722656 3.152344.824219.996094 1.335938.113281.835938-.71875-.496094-.828125-1.234375-1.707031-2.554688-3.8125-.332031-.523438-.601562-.769531-.816406-.808594zm117.5 0c-.210938.039063-.480469.285156-.8125.808594-1.328125 2.105469-2.066406 2.984375-2.5625 3.8125-.496094.832031.015625 1.714844.84375.71875 1.003906-1.203125 1.996094-2.269531 2.722656-3.152344.535156-.667968.441406-2.300781-.191406-2.1875zm-131.996094 3.953125c-.398437-.03125-.734375.292969-.570312 1.09375.238281 1.113281.574218 2.039063.847656 3.089844.277344 1.054687 1 .875 1-.121094 0-.996093-.175781-2.105469-.339844-3.160156-.085937-.523437-.550781-.878906-.9375-.902344zm146.496094 0c-.394531.023438-.855469.378907-.9375.902344-.164062 1.054687-.347656 2.164063-.347656 3.160156 0 .996094.730468 1.175781 1.003906.121094.277344-1.050781.613281-1.976563.84375-3.089844.167969-.800781-.171875-1.125-.5625-1.09375zm-133.40625 1.421875c-.621094.09375-1.164062.6875-.433594 1.625 1.15625 1.488282 2.429688 2.539063 2.867188 3.089844.445312.550781 1.5625.351562.847656-.808594-.734375-1.1875-1.847656-2.617187-2.34375-3.5-.1875-.332031-.566406-.464844-.9375-.40625zm120.0625 0c-.273438.027344-.546875.15625-.6875.40625-.5.882813-1.609375 2.3125-2.34375 3.5-.71875 1.160156.398438 1.359375.84375.808594s1.714844-1.601562 2.875-3.089844c.722656-.9375.179688-1.53125-.4375-1.625-.09375-.015625-.15625-.011718-.25 0zm-140.71875 4.167969c-.488281-.042969-.660156.351563 0 1.25 1.496094 2.046875 3.140625 5.144531 3.246094 6.46875.113281 1.332031-.539063 1.316406-1.148438 1.316406-1.828125 0-2.722656-1.335937-4.375-1.71875-1.664062-.386719-1.902344.484375-.726562 1.339844 6.085937 4.425781 12.183594 9.363281 14.632812 13.84375.988282 1.828125 2.335938 2.496094 1.589844.753906-2.285156-5.339843-2.839844-9.859375-2.34375-12.59375.496094-2.738281 1.175781-4.578125 1.09375-6.15625s-.976562-1.472656-1.34375 0c-.246094.996094-.730469 2.3125-1.0625 2.8125-.332031.496094-1.667969.777344-2.933594-.9375-1.277344-1.714843-4.484375-5.015625-5.535156-5.847656-.394531-.3125-.800781-.5-1.09375-.53125zm161.628906 0c-.296875.03125-.707031.21875-1.09375.53125-1.054687.832031-4.265625 4.132813-5.535156 5.847656-1.273438 1.714844-2.605469 1.433594-2.9375.9375-.332031-.5-.8125-1.816406-1.058594-2.8125-.371094-1.472656-1.265625-1.578125-1.351562 0-.082032 1.578125.597656 3.417969 1.09375 6.15625.5 2.734375-.050782 7.253907-2.34375 12.59375-.746094 1.742188.601562 1.074219 1.597656-.753906 2.449219-4.480469 8.542969-9.417969 14.625-13.84375 1.179688-.855469.941406-1.726563-.71875-1.339844-1.660156.382813-2.546875 1.71875-4.375 1.71875-.609375 0-1.269531.015625-1.15625-1.316406.113281-1.324219 1.757812-4.421875 3.253906-6.46875.652344-.898437.484375-1.292969 0-1.25zm0 0" fill-rule="evenodd"/><path d="m150.128906 212.652344 1.945313 6.171875zm4.007813-1.171875 1.726562 6.238281zm4.335937-.714844 1.1875 6.367187zm4.015625-.800781 1.273438 6.347656zm5.15625-.511719 1.03125 6.390625zm5.484375.007813 1.113282 6.378906zm5.351563-1.808594.808593 6.425781zm5.039062.328125.808594 6.417969zm4.875-.65625.804688 6.425781zm4.890625-.503907.445313 6.460938zm5.230469 0 .386719 6.460938zm4.742187-.328124.324219 6.464843zm5.222657-.324219.273437 6.46875zm6.015625-.160157.269531 6.46875zm79.3125 6.644532-1.949219 6.171875zm-4.007813-1.171875-1.730469 6.238281zm-4.332031-.714844-1.1875 6.367187zm-4.023438-.800781-1.269531 6.347656zm-5.152343-.511719-1.035157 6.390625zm-5.488281.007813-1.105469 6.378906zm-5.351563-1.808594-.804687 6.425781zm-5.039063.328125-.800781 6.417969zm-4.871093-.65625-.800781 6.425781zm-4.894531-.503907-.4375 6.460938zm-5.226563 0-.382813 6.460938zm-4.742187-.328124-.324219 6.464843zm-5.226563-.324219-.273437 6.46875zm-6.007813-.160157-.273437 6.46875zm-7.476562-.421874v7.117187zm0 0" fill="#ffd83d" fill-rule="evenodd"/><g fill="none"><path d="m150.128906 212.652344 1.945313 6.171875" stroke="#000" stroke-width="1.5"/><path d="m154.136719 211.480469 1.726562 6.238281" stroke="#000" stroke-width="1.5"/><path d="m158.472656 210.765625 1.1875 6.367187" stroke="#000" stroke-width="1.5"/><path d="m162.488281 209.964844 1.273438 6.347656" stroke="#000" stroke-width="1.5"/><path d="m167.644531 209.453125 1.03125 6.390625" stroke="#000" stroke-width="1.5"/><path d="m173.128906 209.460938 1.113282 6.378906" stroke="#000" stroke-width="1.5"/><path d="m178.480469 207.652344.808593 6.425781" stroke="#000" stroke-width="1.5"/><path d="m183.519531 207.980469.808594 6.417969" stroke="#000" stroke-width="1.5"/><path d="m188.394531 207.324219.804688 6.425781" stroke="#000" stroke-width="1.5"/><path d="m193.285156 206.820312.445313 6.460938" stroke="#000" stroke-width="1.5"/><path d="m198.515625 206.820312.386719 6.460938" stroke="#000" stroke-width="1.5"/><path d="m203.257812 206.492188.324219 6.464843" stroke="#000" stroke-width="1.5"/><path d="m208.480469 206.167969.273437 6.46875" stroke="#000" stroke-width="1.5"/><path d="m214.496094 206.007812.269531 6.46875" stroke="#000" stroke-width="1.5"/><path d="m293.808594 212.652344-1.949219 6.171875" stroke="#000" stroke-width="1.5"/><path d="m289.800781 211.480469-1.730469 6.238281" stroke="#000" stroke-width="1.5"/><path d="m285.46875 210.765625-1.1875 6.367187" stroke="#000" stroke-width="1.5"/><path d="m281.445312 209.964844-1.269531 6.347656" stroke="#000" stroke-width="1.5"/><path d="m276.292969 209.453125-1.035157 6.390625" stroke="#000" stroke-width="1.5"/><path d="m270.804688 209.460938-1.105469 6.378906" stroke="#000" stroke-width="1.5"/><path d="m265.453125 207.652344-.804687 6.425781" stroke="#000" stroke-width="1.5"/><path d="m260.414062 207.980469-.800781 6.417969" stroke="#000" stroke-width="1.5"/><path d="m255.542969 207.324219-.800781 6.425781" stroke="#000" stroke-width="1.5"/><path d="m250.648438 206.820312-.4375 6.460938" stroke="#000" stroke-width="1.5"/><path d="m245.421875 206.820312-.382813 6.460938" stroke="#000" stroke-width="1.5"/><path d="m240.679688 206.492188-.324219 6.464843" stroke="#000" stroke-width="1.5"/><path d="m235.453125 206.167969-.273437 6.46875" stroke="#000" stroke-width="1.5"/><path d="m229.445312 206.007812-.273437 6.46875" stroke="#000" stroke-width="1.5"/><path d="m221.96875 205.585938v7.117187" stroke="#000" stroke-width="1.5"/></g></svg>