<svg viewBox="0 0 1000 500" xmlns="http://www.w3.org/2000/svg"><path d="m0 0h1000v500h-1000z" fill="#cc0001"/><g fill-rule="evenodd"><path d="m0 464.285156h1000v35.714844h-1000zm0 0" fill="#fff"/><path d="m0 392.855469h1000v35.714843h-1000zm0 0" fill="#fff"/><path d="m0 321.429688h1000v35.714843h-1000zm0 0" fill="#fff"/><path d="m0 250h1000v35.714844h-1000zm0 0" fill="#fff"/><path d="m0 178.570312h1000v35.714844h-1000zm0 0" fill="#fff"/><path d="m0 107.144531h1000v35.710938h-1000zm0 0" fill="#fff"/><path d="m0 35.714844h1000v35.714844h-1000zm0 0" fill="#fff"/><path d="m0 0h500v285.714844h-500zm0 0" fill="#010066"/><path d="m205.714844 35.714844c-59.339844 0-107.5 48-107.5 107.140625 0 59.144531 48.160156 107.144531 107.5 107.144531 21.4375 0 41.410156-6.273438 58.1875-17.066406-9.769532 3.371094-20.253906 5.21875-31.167969 5.21875-52.617187 0-95.320313-42.5625-95.320313-95.007813 0-52.441406 42.703126-95 95.320313-95 11.628906 0 22.765625 2.074219 33.070313 5.878907-17.15625-11.554688-37.839844-18.308594-60.089844-18.308594zm0 0" fill="#fc0"/><path d="m383.988281 198.632812-45.28125-23.625 13.386719 48.351563-30.285156-40.445313-9.449219 49.230469-9.292969-49.261719-30.414062 40.359376 13.539062-48.3125-45.355468 23.488281 33.691406-37.796875-51.3125 1.96875 47.171875-19.796875-47.109375-19.9375 51.308594 2.125-33.574219-37.898438 45.28125 23.625-13.386719-48.351562 30.285156 40.445312 9.449219-49.230469 9.292969 49.261719 30.414062-40.359375-13.539062 48.3125 45.355468-23.488281-33.691406 37.796875 51.3125-1.96875-47.171875 19.796875 47.109375 19.9375-51.308594-2.125zm0 0" fill="#fc0"/></g></svg>