<svg viewBox="0 0 1000 667" xmlns="http://www.w3.org/2000/svg" xmlns:xlink="http://www.w3.org/1999/xlink"><clipPath id="a"><path d="m0 0h1000v666.71875h-1000zm0 0"/></clipPath><g clip-path="url(#a)"><path d="m0 0h1000v666.667969h-1000zm0 0" fill="#006233" fill-rule="evenodd"/></g><g fill-rule="evenodd"><path d="m715.277344 250c0 118.894531-96.382813 215.277344-215.277344 215.277344s-215.277344-96.382813-215.277344-215.277344 96.382813-215.277344 215.277344-215.277344 215.277344 96.382813 215.277344 215.277344zm0 0" fill="#ffc400"/><path d="m708.332031 194.445312c0 115.058594-93.269531 208.332032-208.332031 208.332032s-208.332031-93.273438-208.332031-208.332032c0-115.0625 97.4375-158.335937 205.914062-163.601562 99.421875-4.453125 210.75 48.539062 210.75 163.601562zm0 0" fill="#006233"/><path d="m500 111.109375-25.753906 79.253906 39.632812 12.875zm0 0" fill="#ffc400"/><path d="m500 111.109375 25.753906 79.253906-39.632812 12.875zm0 0" fill="#ffc400"/><path d="m579.253906 168.691406h-83.335937v41.664063zm0 0" fill="#ffc400"/><path d="m579.253906 168.691406-67.417968 48.984375-24.488282-33.707031zm0 0" fill="#ffc400"/><path d="m548.980469 261.867188-25.75-79.261719-39.625 12.878906zm0 0" fill="#ffc400"/><path d="m548.980469 261.867188-67.414063-48.988282 24.488282-33.707031zm0 0" fill="#ffc400"/><path d="m451.019531 261.867188 67.414063-48.988282-24.488282-33.707031zm0 0" fill="#ffc400"/><path d="m451.019531 261.867188 25.75-79.261719 39.625 12.878906zm0 0" fill="#ffc400"/><path d="m420.746094 168.691406 67.417968 48.984375 24.488282-33.707031zm0 0" fill="#ffc400"/><path d="m420.746094 168.691406h83.335937v41.664063zm0 0" fill="#ffc400"/></g></svg>