<svg viewBox="0 0 1000 526" xmlns="http://www.w3.org/2000/svg"><path d="m0 0h1000v526h-1000z" fill="#75b2dd"/><g fill="#fff" fill-rule="evenodd"><path d="m500 52.632812-16.261719 50.054688 25.023438 8.132812zm0 0"/><path d="m500 52.632812 16.261719 50.054688-25.023438 8.132812zm0 0"/><path d="m550.054688 89h-52.628907v26.316406zm0 0"/><path d="m550.054688 89-42.574219 30.9375-15.472657-21.292969zm0 0"/><path d="m530.9375 147.839844-16.261719-50.054688-25.03125 8.132813zm0 0"/><path d="m530.9375 147.839844-42.578125-30.933594 15.464844-21.285156zm0 0"/><path d="m469.0625 147.839844 42.578125-30.933594-15.464844-21.285156zm0 0"/><path d="m469.0625 147.839844 16.261719-50.054688 25.03125 8.132813zm0 0"/><path d="m449.945312 89 42.574219 30.9375 15.472657-21.292969zm0 0"/><path d="m449.945312 89h52.628907v26.316406zm0 0"/><path d="m710.527344 263.15625-50.058594-16.261719-8.132812 25.027344zm0 0"/><path d="m710.527344 263.15625-50.058594 16.261719-8.132812-25.023438zm0 0"/><path d="m674.15625 313.214844v-52.632813h-26.316406zm0 0"/><path d="m674.15625 313.214844-30.9375-42.578125 21.292969-15.46875zm0 0"/><path d="m615.316406 294.09375 50.058594-16.261719-8.136719-25.03125zm0 0"/><path d="m615.316406 294.09375 30.9375-42.578125 21.285156 15.464844zm0 0"/><path d="m615.316406 232.222656 30.9375 42.578125 21.285156-15.464843zm0 0"/><path d="m615.316406 232.222656 50.058594 16.261719-8.136719 25.03125zm0 0"/><path d="m674.15625 213.101562-30.9375 42.578126 21.292969 15.46875zm0 0"/><path d="m674.15625 213.101562v52.632813h-26.316406zm0 0"/><path d="m500 473.683594 16.261719-50.054688-25.023438-8.132812zm0 0"/><path d="m500 473.683594-16.261719-50.054688 25.023438-8.132812zm0 0"/><path d="m449.945312 437.3125h52.628907v-26.3125zm0 0"/><path d="m449.945312 437.3125 42.574219-30.933594 15.472657 21.289063zm0 0"/><path d="m469.0625 378.476562 16.261719 50.054688 25.03125-8.132812zm0 0"/><path d="m469.0625 378.476562 42.578125 30.933594-15.464844 21.285156zm0 0"/><path d="m530.9375 378.476562-42.578125 30.933594 15.464844 21.285156zm0 0"/><path d="m530.9375 378.476562-16.261719 50.054688-25.03125-8.132812zm0 0"/><path d="m550.054688 437.3125-42.574219-30.933594-15.472657 21.289063zm0 0"/><path d="m550.054688 437.3125h-52.628907v-26.3125zm0 0"/><path d="m289.472656 263.15625 50.058594 16.261719 8.132812-25.023438zm0 0"/><path d="m289.472656 263.15625 50.058594-16.261719 8.132812 25.027344zm0 0"/><path d="m325.84375 213.101562v52.632813h26.316406zm0 0"/><path d="m325.84375 213.101562 30.9375 42.578126-21.292969 15.46875zm0 0"/><path d="m384.683594 232.222656-50.058594 16.261719 8.136719 25.03125zm0 0"/><path d="m384.683594 232.222656-30.9375 42.578125-21.285156-15.464843zm0 0"/><path d="m384.683594 294.09375-30.9375-42.578125-21.285156 15.464844zm0 0"/><path d="m384.683594 294.09375-50.058594-16.261719 8.136719-25.03125zm0 0"/><path d="m325.84375 313.214844 30.9375-42.578125-21.292969-15.46875zm0 0"/><path d="m325.84375 313.214844v-52.632813h26.316406zm0 0"/></g></svg>