<svg viewBox="0 0 1000 667" xmlns="http://www.w3.org/2000/svg" xmlns:xlink="http://www.w3.org/1999/xlink"><clipPath id="a"><path d="m0 0h1000v666.71875h-1000zm0 0"/></clipPath><g clip-path="url(#a)"><g fill-rule="evenodd"><path d="m1000 0h-1000v666.667969zm0 0" fill="#003580"/><path d="m0 666.667969h1000v-666.667969zm0 0" fill="#009543"/><path d="m0 666.667969 1000-666.667969zm0 0"/></g><path d="m0 666.667969 1000-666.667969" fill="none" stroke="#fff" stroke-width="197.775031"/><path d="m0 666.667969 1000-666.667969zm0 0" fill-rule="evenodd"/><path d="m0 666.667969 1000-666.667969" fill="none" stroke="#d21034" stroke-width="148.331273"/></g><g fill="#ffce00" fill-rule="evenodd"><path d="m200 72.222656 17.253906 46.71875 38.300782-31.832031-8.414063 49.082031 49.082031-8.414062-31.828125 38.304687 46.714844 17.25-46.714844 17.253907 31.828125 38.304687-49.082031-8.417969 8.414063 49.085938-38.300782-31.832032-17.253906 46.71875-17.253906-46.71875-38.300782 31.832032 8.414063-49.085938-49.082031 8.417969 31.828125-38.304687-46.714844-17.253907 46.714844-17.25-31.828125-38.304687 49.082031 8.414062-8.414063-49.082031 38.300782 31.832031zm0 0"/><path d="m261.109375 183.332031c0 33.753907-27.359375 61.113281-61.109375 61.113281s-61.109375-27.359374-61.109375-61.113281c0-33.75 27.359375-61.109375 61.109375-61.109375s61.109375 27.359375 61.109375 61.109375zm0 0" stroke="#003580" stroke-width="9.888752"/></g></svg>