<svg viewBox="0 0 1000 500" xmlns="http://www.w3.org/2000/svg"><path d="m0 0h1000v500h-1000z" fill="#009543"/><path d="m0 0h1000v333.332031h-1000zm0 0" fill="#ed4135" fill-rule="evenodd"/><path d="m0 0h1000v166.667969h-1000zm0 0" fill="#0035ad" fill-rule="evenodd"/><path d="m497.199219 250c0 90.5-73.367188 163.867188-163.867188 163.867188s-163.867187-73.367188-163.867187-163.867188 73.367187-163.867188 163.867187-163.867188 163.867188 73.367188 163.867188 163.867188zm0 0" fill="#fae600" fill-rule="evenodd" stroke="#000" stroke-width="5.555556"/><path d="m305.554688 274.445312h55.554687zm0-41.113281h55.554687zm27.777343-146.667969v280.003907zm0 0" fill-rule="evenodd"/><path d="m305.554688 274.445312h55.554687" fill="none" stroke="#000" stroke-width="6.666667"/><path d="m305.554688 233.332031h55.554687" fill="none" stroke="#000" stroke-width="6.666667"/><path d="m333.332031 86.664062v280.003907" fill="none" stroke="#000" stroke-width="6.666667"/><g fill-rule="evenodd"><path d="m267.355469 400.464844c66.878906 27.3125 129.5625 1.679687 129.5625 1.679687s-23.660157-25.609375-35.789063-35.609375c-11.839844-9.753906-46.660156-9.367187-58.542968 0-9.914063 7.820313-38.355469 36.632813-35.230469 33.929688zm0 0"/><path d="m351.664062 325.554688c0 14.730468-8.207031 26.671874-18.332031 26.671874-10.121093 0-18.332031-11.941406-18.332031-26.671874 0-14.726563 8.210938-26.667969 18.332031-26.667969 10.125 0 18.332031 11.941406 18.332031 26.667969zm0 0"/><path d="m355.554688 253.890625c0 7.769531-9.949219 14.066406-22.222657 14.066406-12.269531 0-22.222656-6.296875-22.222656-14.066406s9.953125-14.070313 22.222656-14.070313c12.273438 0 22.222657 6.300782 22.222657 14.070313zm0 0"/><path d="m355.554688 188.890625c0 12.269531-9.949219 22.21875-22.222657 22.21875-12.269531 0-22.222656-9.949219-22.222656-22.21875 0-12.273437 9.953125-22.222656 22.222656-22.222656 12.273438 0 22.222657 9.949219 22.222657 22.222656zm0 0"/><path d="m360 106.109375c-.007812-.011719 1.925781 3.1875-2.128906 10.488281-19.355469 34.867188-38.789063 35.621094-42.472656 38.628906-4.070313 3.300782-5.785157 3.078126-5.785157 3.078126.292969-2.988282.558594-15.199219.769531-16.375 2.941407-16.296876 27.554688-16.066407 46.816407-32.75 3.011719-2.609376 2.792969-3.082032 2.792969-3.082032zm0 0"/><path d="m294.996094 181.109375s4.351562 12.476563 5.003906 25c1.042969 19.996094 20.199219 20.554687 33.332031 20.554687v-11.109374c-9.839843 0-18.390625-1.460938-25.550781-16.109376-3.539062-7.226562-12.785156-18.335937-12.785156-18.335937zm0 0"/><path d="m294.445312 342.21875s6.992188-8.625 15.179688-28.855469c4.269531-10.558593 14.386719-16.695312 23.707031-16.695312v-15.558594c-21.140625 0-31.277343 7.839844-32.34375 19.292969-2.199219 23.535156-6.542969 41.816406-6.542969 41.816406zm0 0"/><path d="m371.667969 181.109375s-4.351563 12.476563-5 25c-1.042969 19.996094-20.199219 20.554687-33.335938 20.554687v-11.109374c9.84375 0 18.394531-1.460938 25.554688-16.109376 3.535156-7.226562 12.78125-18.335937 12.78125-18.335937zm0 0"/><path d="m372.222656 342.21875s-6.992187-8.625-15.179687-28.855469c-4.269531-10.558593-14.390625-16.695312-23.710938-16.695312v-15.558594c21.144531 0 31.277344 7.839844 32.347657 19.292969 2.195312 23.535156 6.542968 41.816406 6.542968 41.816406zm0 0"/></g></svg>