<svg viewBox="0 0 1000 500" xmlns="http://www.w3.org/2000/svg"><path d="m0 252.082031h500v-250h-500zm0 0" fill="#00247d" stroke="#00247d" stroke-linecap="square" stroke-miterlimit="3.239307"/><path d="m0 2.082031v27.949219l444.097656 222.050781h55.902344v-27.949219l-444.097656-222.050781zm500 0v27.949219l-444.097656 222.050781h-55.902344v-27.953125l444.097656-222.046875zm0 0" fill="#fff" fill-rule="evenodd"/><path d="m0 252.082031 166.664062-83.332031h37.269532l-166.667969 83.332031zm0-250 166.664062 83.335938h-37.265624l-129.398438-64.703125zm296.066406 83.335938 166.667969-83.335938h37.265625l-166.664062 83.335938zm203.933594 166.664062-166.664062-83.332031h37.265624l129.398438 64.699219zm0 0" fill="#cf142b" fill-rule="evenodd"/><path d="m208.335938 2.082031v250h83.328124v-250zm0 0" fill="#fff" stroke="#fff" stroke-linecap="square" stroke-miterlimit="3.239307"/><path d="m0 85.417969v83.332031h500v-83.332031zm0 0" fill="#fff" stroke="#fff" stroke-linecap="square" stroke-miterlimit="3.239307"/><path d="m0 102.082031v50h500v-50zm0 0" fill="#cf142b" stroke="#cf142b" stroke-linecap="square" stroke-miterlimit="3.239307"/><path d="m225 2.082031v250h50v-250zm0 0" fill="#cf142b" stroke="#cf142b" stroke-linecap="square" stroke-miterlimit="3.239307"/><path d="m500 0h500v500h-1000v-250h500zm0 0" fill="#fcd116" fill-rule="evenodd"/><path d="m292.527344 125c0 23.484375-19.042969 42.527344-42.527344 42.527344s-42.527344-19.042969-42.527344-42.527344 19.042969-42.527344 42.527344-42.527344 42.527344 19.042969 42.527344 42.527344zm0 0" fill="#002868" fill-rule="evenodd"/><g stroke-linecap="square" stroke-miterlimit="3.239307"><path d="m240.914062 47.035156-5.613281 17.269532 14.699219-10.671876 14.699219 10.671876-5.613281-17.269532 14.691406-10.675781h-18.164063l-5.613281-17.277344-5.613281 17.277344h-18.164063zm0 0" fill="#fcd116" stroke="#fcd116"/><path d="m95.082031 130.367188-5.613281 17.273437 14.699219-10.675781 14.695312 10.675781-5.613281-17.273437 14.695312-10.671876h-18.164062l-5.613281-17.277343-5.617188 17.277343h-18.164062zm0 0" fill="#fcd116" stroke="#fcd116"/><path d="m240.914062 213.699219-5.613281 17.273437 14.699219-10.675781 14.699219 10.675781-5.613281-17.273437 14.691406-10.671875h-18.164063l-5.613281-17.277344-5.613281 17.277344h-18.164063zm0 0" fill="#fcd116" stroke="#fcd116"/><path d="m386.75 130.367188-5.613281 17.273437 14.695312-10.675781 14.699219 10.675781-5.613281-17.273437 14.695312-10.671876h-18.164062l-5.617188-17.277343-5.613281 17.277343h-18.164062zm0 0" fill="#fcd116" stroke="#fcd116"/><path d="m234.550781 130.019531-9.550781 29.390625 25-18.164062 25 18.164062-9.550781-29.390625 25.003906-18.164062h-30.90625l-9.546875-29.382813-9.546875 29.382813h-30.90625zm0 0" fill="#fcd116" stroke="#fcd116"/></g></svg>