<svg viewBox="0 0 1000 500" xmlns="http://www.w3.org/2000/svg"><path d="m0 0h1000v500h-1000z" fill="#d20000"/><g fill="#ffe600" fill-rule="evenodd"><path d="m0 0h150l350 241.070312 350-241.070312h150l-1000 500h150l350-241.070312 350 241.070312h150zm1000 200v100l-1000-100v100zm-550-200 50 214.285156 50-214.285156zm0 500 50-214.285156 50 214.285156zm0 0"/><path d="m580.355469 250c0 44.382812-35.972657 80.355469-80.355469 80.355469s-80.355469-35.972657-80.355469-80.355469 35.972657-80.355469 80.355469-80.355469 80.355469 35.972657 80.355469 80.355469zm0 0" stroke="#d20000" stroke-width="17.857143"/></g></svg>