<svg viewBox="0 0 1000 501" xmlns="http://www.w3.org/2000/svg"><path d="m0 1.25h1000v500h-1000zm0 0" fill="#0071bc" fill-rule="evenodd"/><path d="m557.816406 396.792969s17.632813-18.648438 34.585938-15.089844c5.085937-19.667969 24.242187-21.191406 24.242187-21.191406s-1.863281-21.699219 22.71875-26.445313c.679688-14.75 15.597657-26.957031 15.597657-26.957031s-3.050782-22.886719 12.550781-28.144531c-9.5-18.140625 3.214843-31.363282 3.050781-31.703125-.171875-.339844-16.109375-28.652344-1.867188-36.789063-15.089843-12.714844-10.175781-27.128906-10.175781-27.128906s-16.445312-4.238281-10.507812-23.898438c-13.5625-2.375-16.277344-24.246093-16.277344-24.246093s-20.851563 4.238281-23.394531-13.90625c-13.734375 2.207031-15.257813-11.355469-15.429688-11.355469-.167968 0-27.296875 7.289062-32.71875-13.222656-10.515625 5.425781-15.089844-4.238282-15.089844-4.238282s-15.085937 7.460938-24.078124-6.953124c-17.96875 11.191406-27.972657-.507813-27.972657-.507813s-23.5625 15.59375-31.359375 3.558594c-13.902344 14.070312-26.28125 7.96875-26.28125 7.96875s-10.507812 18.648437-27.464844 13.902343c-3.898437 17.292969-23.394531 17.632813-23.394531 17.632813s2.035157 15.257813-21.363281 19.324219c-3.050781 17.972656-15.257812 21.023437-15.257812 21.023437s1.1875 17.464844-9.832032 23.058594c3.898438 9.835937-6.269531 21.871094-6.269531 21.871094s10.847656 13.5625-3.902344 28.820312c14.242188 3.726563 3.902344 28.3125 3.902344 28.3125s19.660156 8.816407 7.289063 25.09375c14.066406 4.574219 9.660156 15.765625 9.828124 22.375 8.988282 4.070313 16.957032 2.039063 13.058594 20.179688 27.636719 3.050781 14.578125 18.308593 14.578125 18.308593s12.886719.507813 7.796875 10.679688c23.566406-.507812 26.957032 17.632812 26.957032 17.632812s21.871093-5.765624 24.753906 2.710938c2.878906 8.480469-9.492188 65.613281-9.492188 65.613281s-18.484375 0-32.210937-14.753906c-32.214844-.847656-25.09375-22.039063-25.601563-22.039063-.507812 0-10.683594 3.902344-15.9375-13.730468-21.535156 4.410156-20.855468-13.734375-21.019531-13.902344-.171875-.171875-9.664063-4.410156-6.105469-13.390625-22.210937 2.03125-20.519531-19.671875-20.519531-19.671875-4.855469-1.976562-6.664063-6.496094-5.929687-11.019531-2.882813-1.015625-22.550782-1.355469-12.375-27.292969-18.820313-11.359375-7.125-24.414062-7.125-24.414062s-25.9375-13.394532-5.929688-28.820313c-14.917969-22.039063 1.183594-33.0625 1.183594-33.0625s-20.679688-21.019531.339844-35.941406c-3.390626-31.871094 15.597656-39.5 15.597656-39.5s-10.003906-25.9375 17.125-36.789063c1.695312-26.277344 20.683594-26.957031 20.683594-26.957031s.507812-20.855469 30.347656-18.816406c5.761718-18.648438 26.109375-14.925781 26.109375-14.925781s6.269531-22.542969 33.90625-11.691407c14.070312-27.46875 34.925781-13.394531 34.925781-13.394531s13.222656-8.648438 19.832031-5.9375c8.394531-14.429688 26.273438-.554688 37.828125 2.234375 4.191406-1.628906 19.136719-12.914063 30.664063 1.328125 15.257812-10.003906 28.316406 7.964844 28.316406 7.964844s21.019531-10.675782 30.855469 13.738281c44.589844-4.070313 38.144531 25.089844 38.144531 25.089844s35.097656-7.96875 27.464844 26.953125c31.875 2.207031 28.652343 23.230468 28.652343 23.230468s20.175782 15.257813 11.355469 28.988282c17.976563.847656 11.363281 18.144531 11.363281 18.144531s13.730469 5.253906 2.375 26.617187c26.273438 21.019532 5.082032 41.875 4.914063 41.703126-.167969-.167969 14.074219 16.953124 1.1875 36.621093 3.898437 31.195313-11.871094 39.164063-11.871094 39.164063s4.074219 20.171875-13.558593 25.9375c-.339844 23.734375-22.71875 26.617187-22.71875 26.617187s5.933593 10.3125-16.273438 21.160157c-.878906 15.878906-24.078125 17.152343-24.078125 17.152343s-2.203125 29.160157-31.703125 21.363281c-7.160156 23.398438-41.703125 16.445313-42.382812 16.109376-.679688-.34375-6.613282-50.1875-6.613282-50.355469zm0 0" fill="#fff" fill-rule="evenodd"/><path d="m557.816406 396.792969s17.632813-18.648438 34.585938-15.089844c5.085937-19.667969 24.242187-21.191406 24.242187-21.191406s-1.863281-21.699219 22.71875-26.445313c.679688-14.75 15.597657-26.957031 15.597657-26.957031s-3.050782-22.886719 12.550781-28.144531c-9.5-18.140625 3.214843-31.363282 3.050781-31.703125-.171875-.339844-16.109375-28.652344-1.867188-36.789063-15.089843-12.714844-10.175781-27.128906-10.175781-27.128906s-16.445312-4.238281-10.507812-23.898438c-13.5625-2.375-16.277344-24.246093-16.277344-24.246093s-20.851563 4.238281-23.394531-13.90625c-13.734375 2.207031-15.257813-11.355469-15.429688-11.355469-.167968 0-27.296875 7.289062-32.71875-13.222656-10.515625 5.421875-15.089844-4.238282-15.089844-4.238282s-15.085937 7.460938-24.078124-6.953124c-17.96875 11.191406-27.972657-.507813-27.972657-.507813s-23.5625 15.59375-31.359375 3.558594c-13.902344 14.070312-26.28125 7.96875-26.28125 7.96875s-10.507812 18.648437-27.464844 13.902343c-3.898437 17.292969-23.394531 17.628907-23.394531 17.628907s2.035157 15.261719-21.363281 19.328125c-3.050781 17.972656-15.257812 21.023437-15.257812 21.023437s1.1875 17.460938-9.832032 23.058594c3.898438 9.835937-6.269531 21.871094-6.269531 21.871094s10.847656 13.5625-3.902344 28.820312c14.242188 3.726563 3.902344 28.3125 3.902344 28.3125s19.660156 8.816407 7.289063 25.09375c14.066406 4.574219 9.660156 15.765625 9.828124 22.375 8.988282 4.070313 16.957032 2.039063 13.058594 20.179688 27.636719 3.050781 14.578125 18.308593 14.578125 18.308593s12.886719.507813 7.796875 10.679688c23.566406-.507812 26.957032 17.632812 26.957032 17.632812s21.871093-5.765624 24.753906 2.714844c2.878906 8.476563-9.492188 65.609375-9.492188 65.609375s-18.484375 0-32.210937-14.753906c-32.214844-.847656-25.09375-22.039063-25.601563-22.039063-.507812 0-10.683594 3.902344-15.9375-13.730468-21.535156 4.410156-20.855468-13.734375-21.019531-13.902344-.171875-.171875-9.664063-4.410156-6.105469-13.394531-22.210937 2.03125-20.519531-19.664063-20.519531-19.664063-4.855469-1.980468-6.664063-6.5-5.929687-11.023437-2.882813-1.015625-22.550782-1.355469-12.375-27.292969-18.820313-11.359375-7.125-24.414062-7.125-24.414062s-25.9375-13.394532-5.929688-28.820313c-14.917969-22.039063 1.183594-33.0625 1.183594-33.0625s-20.679688-21.019531.339844-35.941406c-3.390626-31.871094 15.597656-39.5 15.597656-39.5s-10.003906-25.9375 17.125-36.789063c1.695312-26.277344 20.683594-26.957031 20.683594-26.957031s.507812-20.855469 30.347656-18.816406c5.761718-18.648438 26.109375-14.925781 26.109375-14.925781s6.269531-22.542969 33.90625-11.691407c14.070312-27.46875 34.925781-13.394531 34.925781-13.394531s13.222656-8.648438 19.832031-5.9375c8.394531-14.429688 26.273438-.554688 37.828125 2.234375 4.191406-1.628906 19.136719-12.914063 30.664063 1.332031 15.257812-10.007812 28.316406 7.960938 28.316406 7.960938s21.019531-10.675782 30.855469 13.734375c44.589844-4.066407 38.144531 25.09375 38.144531 25.09375s35.097656-7.96875 27.464844 26.953125c31.875 2.207031 28.652343 23.230468 28.652343 23.230468s20.175782 15.257813 11.355469 28.988282c17.976563.847656 11.363281 18.144531 11.363281 18.144531s13.730469 5.253906 2.375 26.617187c26.273438 21.019532 5.082032 41.875 4.914063 41.703126-.167969-.167969 14.074219 16.953124 1.1875 36.621093 3.898437 31.195313-11.871094 39.164063-11.871094 39.164063s4.074219 20.171875-13.558593 25.9375c-.339844 23.734375-22.71875 26.617187-22.71875 26.617187s5.933593 10.3125-16.273438 21.160157c-.878906 15.878906-24.078125 17.152343-24.078125 17.152343s-2.203125 29.160157-31.703125 21.363281c-7.160156 23.398438-41.703125 16.445313-42.382812 16.109376-.679688-.34375-6.613282-50.1875-6.613282-50.355469zm0 0" fill="none" stroke="#000" stroke-width="1.934881"/><path d="m343.566406 116.992188c.085938 0 7.472656 6.410156 6.09375 16.074218-1.378906 9.660156-6.960937 23.085938-5.835937 33.097656.683593 4.007813.421875 11.195313.421875 11.195313s-6.699219-9.523437-6.785156-19.699219c-.082032-10.179687 7.253906-19.84375 7.253906-27.347656s-1.320313-13.492188-1.148438-13.320312zm0 0" fill="#217900" fill-rule="evenodd" stroke="#000" stroke-width="1.934881"/><path d="m339.898438 119.867188s-9.699219 9.257812-10.949219 18.257812c-.921875 4.640625-1.277344 26.246094-1.390625 35.839844-.214844 2.9375-1.4375 14.554687-1.695313 18.785156-.257812 4.222656 7.132813-7.21875 7.554688-16.535156-.230469-9.636719-.230469-29.949219.753906-33.003906.867187-3.921876.675781-8.253907 2.03125-12.191407 1.78125-5.464843 3.777344-11.0625 3.695313-11.152343zm0 0" fill="#217900" fill-rule="evenodd"/><path d="m339.898438 119.867188s-9.699219 9.257812-10.949219 18.257812c-.921875 4.636719-1.277344 26.246094-1.390625 35.839844-.214844 2.9375-1.4375 14.554687-1.695313 18.785156-.257812 4.222656 7.132813-7.21875 7.554688-16.535156-.230469-9.636719-.230469-29.949219.753906-33.003906.867187-3.921876.675781-8.253907 2.03125-12.191407 1.78125-5.464843 3.777344-11.0625 3.695313-11.152343zm0 0" fill="none" stroke="#000" stroke-width="1.934881"/><path d="m553.238281 89.625s12.570313-5.800781 16.164063-16.601562c3.601562-10.800782-10.878906-10.910157-12.792969-7.472657-1.910156 3.433594 1.632813 11.984375.71875 14.238281-.910156 2.261719-6.023437 7.722657-4.089844 9.835938zm0 0" fill="#ffd200" fill-rule="evenodd" stroke="#ef8a10" stroke-width="1.934881"/><path d="m441.796875 93.5625s8.164063-11.183594 6.042969-22.367188c-2.113282-11.183593-14.8125-4.234374-14.8125-.300781 0 3.929688 7.257812 9.671875 7.558594 12.089844.304687 2.421875-1.507813 9.675781 1.210937 10.578125zm0 0" fill="#ffd200" fill-rule="evenodd"/><path d="m441.796875 93.566406s8.164063-11.1875 6.042969-22.371094c-2.113282-11.183593-14.8125-4.234374-14.8125-.300781 0 3.929688 7.257812 9.671875 7.558594 12.089844.304687 2.421875-1.507813 9.675781 1.210937 10.582031zm0 0" fill="none" stroke="#ef8a10" stroke-width="2.418601"/><path d="m419.726562 100.214844s8.164063-11.183594 6.042969-22.367188c-2.113281-11.1875-14.8125-4.234375-14.8125-.304687 0 3.933593 7.253907 9.671875 7.558594 12.089843.304687 2.421876-1.507813 9.679688 1.210937 10.582032zm0 0" fill="#ffd200" fill-rule="evenodd"/><path d="m419.726562 100.214844s8.164063-11.179688 6.042969-22.367188c-2.113281-11.1875-14.8125-4.234375-14.8125-.304687 0 3.933593 7.253907 9.671875 7.558594 12.089843.304687 2.421876-1.507813 9.679688 1.210937 10.582032zm0 0" fill="none" stroke="#ef8a10" stroke-width="2.418601"/><path d="m395.238281 107.773438s8.164063-11.1875 6.046875-22.367188c-2.113281-11.1875-14.816406-4.234375-14.816406-.304688 0 3.929688 7.257812 9.671876 7.558594 12.089844.304687 2.421875-1.511719 9.679688 1.210937 10.582032zm0 0" fill="#ffd200" fill-rule="evenodd"/><path d="m395.238281 107.773438s8.164063-11.1875 6.046875-22.367188c-2.113281-11.1875-14.816406-4.234375-14.816406-.304688 0 3.933594 7.257812 9.671876 7.558594 12.089844.304687 2.421875-1.511719 9.679688 1.210937 10.582032zm0 0" fill="none" stroke="#ef8a10" stroke-width="2.418601"/><path d="m378.007812 125.011719s8.160157-11.1875 6.042969-22.375c-2.117187-11.1875-14.8125-4.234375-14.8125-.304688 0 3.933594 7.253907 9.675781 7.558594 12.097657.304687 2.414062-1.511719 9.671874 1.210937 10.582031zm0 0" fill="#ffd200" fill-rule="evenodd"/><path d="m378.007812 125.011719s8.160157-11.1875 6.042969-22.375c-2.117187-11.1875-14.8125-4.234375-14.8125-.304688 0 3.933594 7.253907 9.675781 7.558594 12.097657.304687 2.417968-1.511719 9.671874 1.210937 10.582031zm0 0" fill="none" stroke="#ef8a10" stroke-width="2.418601"/><path d="m359.867188 141.636719s8.160156-11.1875 6.046874-22.375c-2.121093-11.183594-14.816406-4.234375-14.816406-.300781 0 3.929687 7.257813 9.675781 7.558594 12.09375.304688 2.417968-1.511719 9.671874 1.210938 10.582031zm0 0" fill="#ffd200" fill-rule="evenodd"/><path d="m359.867188 141.636719s8.160156-11.1875 6.046874-22.375c-2.121093-11.1875-14.816406-4.234375-14.816406-.300781 0 3.929687 7.257813 9.675781 7.558594 12.09375.304688 2.417968-1.511719 9.671874 1.210938 10.582031zm0 0" fill="none" stroke="#ef8a10" stroke-width="2.418601"/><path d="m401.574219 44.769531s-10.871094 8.582031-11.84375 19.921875c-.964844 11.34375 13.128906 8.0625 14.191406 4.273438 1.054687-3.785156-4.390625-11.269532-4.03125-13.675782.359375-2.414062 4.058594-8.917968 1.683594-10.519531zm0 0" fill="#ffd200" fill-rule="evenodd" stroke="#ef8a10" stroke-width="1.934881"/><path d="m437.851562 33.582031s-10.867187 8.582031-11.839843 19.925781c-.96875 11.339844 13.128906 8.058594 14.1875 4.269532 1.054687-3.785156-4.390625-11.269532-4.027344-13.675782.355469-2.414062 4.058594-8.910156 1.679687-10.519531zm0 0" fill="#ffd200" fill-rule="evenodd"/><path d="m437.851562 33.582031s-10.867187 8.582031-11.839843 19.925781c-.96875 11.339844 13.128906 8.058594 14.1875 4.269532 1.054687-3.785156-4.390625-11.269532-4.027344-13.675782.355469-2.410156 4.058594-8.910156 1.679687-10.519531zm0 0" fill="none" stroke="#ef8a10" stroke-width="1.934881"/><path d="m302.65625 131.519531s2.296875 13.65625 11.777344 19.960938c9.476562 6.300781 13.378906-7.636719 10.566406-10.386719-2.808594-2.75-11.988281-1.574219-13.929688-3.046875-1.9375-1.472656-5.867187-7.84375-8.414062-6.527344zm0 0" fill="#ffd200" fill-rule="evenodd"/><path d="m302.65625 131.519531s2.296875 13.65625 11.777344 19.960938c9.476562 6.304687 13.378906-7.636719 10.566406-10.386719-2.808594-2.75-11.988281-1.574219-13.929688-3.046875-1.9375-1.472656-5.867187-7.84375-8.414062-6.527344zm0 0" fill="none" stroke="#ef8a10" stroke-width="1.934881"/><path d="m284.535156 177.890625s.113282 13.847656 8.480469 21.566406 14.414063-5.429687 12.078125-8.589843c-2.34375-3.152344-11.59375-3.441407-13.277344-5.203126-1.683594-1.761718-4.554687-8.667968-7.28125-7.773437zm0 0" fill="#ffd200" fill-rule="evenodd" stroke="#ef8a10" stroke-width="1.934881"/><path d="m326.335938 229.6875s-4.941407-12.933594-15.476563-17.246094c-10.53125-4.3125-11.613281 10.121094-8.316406 12.265625 3.300781 2.136719 12.066406-.824219 14.261719.238281 2.195312 1.0625 7.292968 6.535157 9.53125 4.742188zm0 0" fill="#ffd200" fill-rule="evenodd"/><path d="m326.335938 229.6875s-4.941407-12.933594-15.476563-17.246094c-10.53125-4.3125-11.613281 10.121094-8.316406 12.265625 3.300781 2.140625 12.066406-.824219 14.261719.238281 2.195312 1.0625 7.292968 6.535157 9.53125 4.742188zm0 0" fill="none" stroke="#ef8a10" stroke-width="1.934881"/><path d="m317.65625 207.296875s8.378906-11.027344 6.480469-22.253906c-1.902344-11.21875-14.726563-4.515625-14.804688-.589844-.078125 3.929687 7.0625 9.8125 7.316407 12.242187.261718 2.421876-1.695313 9.640626 1.007812 10.601563zm0 0" fill="#ffd200" fill-rule="evenodd"/><path d="m317.65625 207.292969s8.378906-11.023438 6.480469-22.25c-1.902344-11.21875-14.726563-4.515625-14.804688-.589844-.078125 3.929687 7.0625 9.8125 7.316407 12.242187.261718 2.421876-1.695313 9.640626 1.007812 10.597657zm0 0" fill="none" stroke="#ef8a10" stroke-width="1.934881"/><path d="m578.933594 100.808594s12.574218-5.796875 16.167968-16.601563c3.59375-10.804687-10.878906-10.90625-12.792968-7.472656-1.914063 3.4375 1.632812 11.980469.71875 14.242187-.914063 2.261719-6.023438 7.71875-4.09375 9.832032zm0 0" fill="#ffd200" fill-rule="evenodd" stroke="#ef8a10" stroke-width="1.934881"/><path d="m616.96875 119.773438s7.394531-11.707032 4.535156-22.722657c-2.863281-11.019531-15.0625-3.230469-14.800781.6875.257813 3.921875 7.886719 9.164063 8.351563 11.558594.460937 2.390625-.863282 9.753906 1.914062 10.476563zm0 0" fill="#ffd200" fill-rule="evenodd"/><path d="m616.96875 119.773438s7.394531-11.707032 4.535156-22.722657c-2.863281-11.019531-15.0625-3.230469-14.800781.6875.257813 3.921875 7.886719 9.164063 8.351563 11.558594.460937 2.394531-.863282 9.753906 1.914062 10.476563zm0 0" fill="none" stroke="#ef8a10" stroke-width="1.934881"/><path d="m720.742188 227.523438s-4.960938-12.929688-15.503907-17.226563c-10.539062-4.296875-11.601562 10.140625-8.300781 12.277344 3.300781 2.132812 12.066406-.839844 14.265625.21875 2.191406 1.058593 7.296875 6.523437 9.539063 4.730469zm0 0" fill="#ffd200" fill-rule="evenodd"/><path d="m720.742188 227.523438s-4.960938-12.929688-15.503907-17.226563c-10.539062-4.296875-11.601562 10.144531-8.300781 12.277344 3.300781 2.132812 12.066406-.839844 14.265625.21875 2.191406 1.058593 7.296875 6.523437 9.539063 4.730469zm0 0" fill="none" stroke="#ef8a10" stroke-width="1.934881"/><path d="m670 235.546875s.289062-13.84375 8.75-21.460937c8.460938-7.609376 14.347656 5.617187 11.96875 8.742187-2.382812 3.125-11.636719 3.292969-13.347656 5.039063-1.703125 1.738281-4.65625 8.609374-7.371094 7.679687zm0 0" fill="#ffd200" fill-rule="evenodd" stroke="#ef8a10" stroke-width="1.934881"/><path d="m661.835938 88.734375s-12.949219-4.914063-23.179688.078125c-10.230469 4.996094-.164062 15.40625 3.625 14.367188 3.792969-1.035157 7.410156-9.550782 9.667969-10.484376 2.25-.929687 9.730469-1.097656 9.886719-3.960937zm0 0" fill="#ffd200" fill-rule="evenodd" stroke="#ef8a10" stroke-width="1.934881"/><path d="m632.207031 63.945312s-12.945312-4.921874-23.171875.078126c-10.230468 4.996093-.171875 15.40625 3.617188 14.367187 3.792968-1.035156 7.417968-9.554687 9.667968-10.484375 2.253907-.933594 9.730469-1.101562 9.886719-3.960938zm0 0" fill="#ffd200" fill-rule="evenodd"/><path d="m632.207031 63.945312s-12.945312-4.921874-23.171875.078126c-10.230468 4.996093-.171875 15.40625 3.617188 14.363281 3.792968-1.03125 7.417968-9.550781 9.667968-10.480469 2.253907-.933594 9.730469-1.101562 9.886719-3.960938zm0 0" fill="none" stroke="#ef8a10" stroke-width="1.934881"/><path d="m588.023438 40.300781s-10.972657 8.449219-12.082032 19.777344c-1.109375 11.332031 13.027344 8.222656 14.132813 4.449219 1.101562-3.769532-4.25-11.324219-3.859375-13.726563.386718-2.40625 4.167968-8.863281 1.808594-10.5zm0 0" fill="#ffd200" fill-rule="evenodd" stroke="#ef8a10" stroke-width="1.934881"/><path d="m559.265625 33.378906s-5.003906 12.914063-.074219 23.179688c4.925782 10.261718 15.402344.273437 14.386719-3.527344-1.007813-3.796875-9.5-7.480469-10.414063-9.734375-.917968-2.261719-1.035156-9.742187-3.898437-9.917969zm0 0" fill="#ffd200" fill-rule="evenodd" stroke="#ef8a10" stroke-width="1.934881"/><path d="m477.660156 83.136719s8.949219-10.5625 7.652344-21.875c-1.304688-11.308594-14.46875-5.296875-14.757812-1.375-.28125 3.921875 6.539062 10.175781 6.667968 12.609375.125 2.433594-2.207031 9.539062.4375 10.640625zm0 0" fill="#ffd200" fill-rule="evenodd"/><path d="m477.660156 83.136719s8.949219-10.5625 7.652344-21.875c-1.304688-11.3125-14.46875-5.296875-14.757812-1.375-.28125 3.921875 6.539062 10.175781 6.667968 12.609375.125 2.433594-2.207031 9.539062.4375 10.640625zm0 0" fill="none" stroke="#ef8a10" stroke-width="1.934881"/><path d="m526.378906 105.808594s21.453125 1.355468 22.503906 13.660156c1.046876 12.304688-5.105468 19.804688-5.105468 19.804688s2.707031 26.554687-18.304688 34.359374c-22.503906 2.699219-57.769531.601563-57.769531.601563s-10.347656 2.554687-14.554687-18.90625c-4.199219-21.457031-5.398438-36.613281-5.398438-36.613281s2.097656-12 17.253906-12.753906c15.15625-.75 61.222656.152343 61.375-.152344zm0 0" fill="#8c8a8c" fill-rule="evenodd" stroke="#000" stroke-width="1.934881"/><path d="m543.632812 139.121094s-11.558593 14.402344-10.355468 20.257812" fill="none" stroke="#000" stroke-width="1.934881"/><path d="m528.171875 172.886719c2.851563 2.394531 5.554687 5.097656 6.15625 13.953125l1.199219 17.707031 15.003906 135.042969 13.203125 97.679687.90625 15.15625s-3.152344 11.105469-12.007813 12.007813c-6.453124 13.5-41.410156 17.402344-44.863281 17.253906-3.152343-.148438-14.253906-4.800781-21.007812-4.203125-6.75.601563-18.457031 5.101563-23.710938 4.351563-5.25-.746094-17.101562-4.800782-19.203125-13.355469-14.707031-4.648438-17.105468-15.902344-17.105468-15.902344l15.902343-112.988281 15.457031-142.847656s1.800782-19.058594 9.453126-21.910157c7.953124-.75 49.066406.753907 60.617187-1.945312zm0 0" fill="#8c8a8c" fill-rule="evenodd"/><g fill="none"><path d="m528.171875 172.886719c2.851563 2.398437 5.554687 5.097656 6.15625 13.953125l1.199219 17.707031 15.003906 135.042969 13.203125 97.679687.90625 15.15625s-3.152344 11.105469-12.007813 12.007813c-6.453124 13.5-41.410156 17.402344-44.863281 17.257812-3.152343-.152344-14.253906-4.804687-21.007812-4.207031-6.75.601563-18.457031 5.101563-23.710938 4.351563-5.25-.746094-17.101562-4.800782-19.203125-13.355469-14.707031-4.648438-17.105468-15.902344-17.105468-15.902344l15.902343-112.988281 15.457031-142.847656s1.800782-19.058594 9.453126-21.910157c7.953124-.75 49.066406.753907 60.617187-1.945312zm0 0" stroke="#000" stroke-width="1.934881"/><path d="m447.148438 368.398438-3.148438 99.9375" stroke="#000" stroke-width="1.934881"/><path d="m544.234375 381.601562 8.851563 82.378907" stroke="#000" stroke-width="1.934881"/><path d="m287.546875 316.46875-.324219 1.160156" stroke="#000" stroke-width="1.007936"/><path d="m702.652344 312.851562.332031 1.152344" stroke="#000" stroke-width="1.007936"/><path d="m276.410156 181.558594s6.578125 9.101562 7.753906 14.328125c1.183594 5.226562 3.375 15.507812 6.234376 19.722656 2.867187 4.214844 19.21875 27.644531 20.066406 37.417969.164062 6.40625-6.742188 17.363281-17.027344 17.535156-6.40625-.171875-22.925781-4.386719-23.597656-18.546875-.675782-14.160156 5.050781-14.496094 5.730468-23.089844.675782-8.597656.839844-47.195312.839844-47.367187zm0 0" stroke="#6b18b5" stroke-width="1.934881"/><path d="m389.351562 57.613281s-6.808593.484375-12.046874 3.324219c-4.0625 2.503906-10.9375 6.105469-15.742188 12.769531-12.226562 9.523438-30.613281 13.972657-36.417969 21.890625-3.46875 5.382813-3.253906 18.335938 5.445313 23.820313 5.558594 3.183593 21.863281 8.164062 29.796875-3.582031 7.929687-11.75 3.207031-15.011719 7.097656-22.710938 6.417969-17.636719 21.777344-35.371094 21.867187-35.511719zm0 0" stroke="#6b18b5" stroke-width="1.007936"/><path d="m554.445312 40.414062s-5.085937-4.550781-10.769531-6.335937c-4.625-1.179687-12.324219-.664063-20.285156-1.445313-15.351563-2.152343-31.175781-13.257812-40.894531-11.914062-6.285156 1.25-15.441406 10.414062-13.332032 20.476562 1.582032 6.210938 8.527344 18.769532 22.484376 16.292969 13.957031-2.46875 13.835937-5.515625 22.074218-8.074219 20.082032-11.261718 40.558594-8.960937 40.722656-9zm0 0" stroke="#6b18b5" stroke-width="1.007936"/><path d="m718.179688 199.550781c1.148437-2.617187-.96875-7.539062-2.46875-13.3125-1.453126-4.539062-3.625-11.589843-8.9375-17.855469-6.316407-14.152343-5.230469-33.5625-11.523438-41.09375-4.394531-4.660156-17.015625-7.566406-24.433594-.4375-4.425781 4.632813-13.175781 19.261719-3.675781 29.785157 9.5 10.523437 13.636719 6.558593 20.175781 12.183593 15.582032 10.460938 23.210938 28.8125 30.863282 30.730469zm0 0" stroke="#6b18b5" stroke-width="1.007936"/><path d="m712.59375 323.195312c2.128906-2.953124 5.9375-8.628906 5.484375-13.355468-.359375-3.75 1.71875-15.105469 1.941406-20.058594 1.410157-15.433594 11.070313-27.960938 8.441407-41.371094-1.550782-6.21875-10.660157-15.085937-20.609376-12.488281-6.121093 1.875-19.765624 9.386719-16.617187 23.203125 3.144531 13.824219 7.613281 13.59375 10.566406 21.695312 8.476563 16.75 3.054688 36.644532 10.792969 42.375zm0 0" stroke="#6b18b5" stroke-width="1.007936"/><path d="m599.007812 421.3125s-2.617187 5.035156 7.847657 9.464844" stroke="#000" stroke-width="1.934881"/><path d="m619.9375 409.4375s11.671875-2.816406 19.519531 0" stroke="#000" stroke-width="1.934881"/><path d="m654.757812 380.058594c0 .199218-1.613281 5.230468 7.644532 12.476562" stroke="#000" stroke-width="1.934881"/><path d="m661.394531 366.972656s6.847657 5.035156 18.316407 4.832032" stroke="#000" stroke-width="1.934881"/><path d="m592.363281 381.664062s.40625 13.285157-6.441406 19.523438" stroke="#000" stroke-width="1.934881"/><path d="m615.308594 361.136719s11.269531 2.816406 20.527344-1.8125" stroke="#000" stroke-width="1.934881"/><path d="m687.558594 341.617188s2.417968 3.421874 14.898437 2.816406" stroke="#000" stroke-width="1.934881"/><path d="m638.859375 333.769531c.398437.199219 14.691406 4.828125 23.742187.601563" stroke="#000" stroke-width="1.934881"/><path d="m667.4375 279.023438s.601562-.804688 5.027344 14.691406" stroke="#000" stroke-width="1.934881"/><path d="m678.507812 235.351562s-.609374 8.253907-7.246093 11.875" stroke="#000" stroke-width="1.934881"/><path d="m720.972656 201.539062s-9.664062 7.851563-7.851562 11.066407" stroke="#000" stroke-width="1.934881"/><path d="m672.871094 195.902344s5.027344 8.453125-3.222656 14.292968" stroke="#000" stroke-width="1.934881"/><path d="m648.515625 159.675781s8.65625-.398437 12.480469 7.046875" stroke="#000" stroke-width="1.934881"/><path d="m632.214844 135.128906 6.644531-.007812" stroke="#000" stroke-width="1.934881"/><path d="m666.632812 104.9375c0 .199219 1.808594 1.808594-1.613281 5.230469" stroke="#000" stroke-width="1.934881"/><path d="m604.84375 105.742188s4.628906 7.246093 3.824219 16.097656" stroke="#000" stroke-width="1.934881"/><path d="m631.609375 81.1875c2.011719-.203125 8.855469-3.21875 8.855469-3.21875" stroke="#000" stroke-width="1.934881"/><path d="m601.828125 52.40625c-.207031 0-2.621094 9.058594 1.808594 12.277344" stroke="#000" stroke-width="1.934881"/><path d="m590.757812 93.667969c0 9.65625 7.644532 7.242187 2.410157 16.5" stroke="#000" stroke-width="1.934881"/><path d="m572.035156 85.613281c-.199218 0-12.074218 9.257813-12.074218 10.871094" stroke="#000" stroke-width="1.934881"/><path d="m541.046875 80.582031s5.027344 5.03125 3.820313 11.875" stroke="#000" stroke-width="1.934881"/><path d="m526.351562 76.558594s-2.617187 7.644531-6.039062 9.664062" stroke="#000" stroke-width="1.934881"/><path d="m499.585938 74.546875c-.199219.398437-4.230469 9.058594-7.046876 10.664063" stroke="#000" stroke-width="1.934881"/><path d="m462.953125 74.746094c.199219 0 4.03125 8.050781-1.003906 13.886718" stroke="#000" stroke-width="1.934881"/><path d="m454.503906 33.085938c.199219.199218.804688 6.238281-3.019531 11.46875" stroke="#000" stroke-width="1.934881"/><path d="m418.277344 46.773438c0 .199218 1.609375 6.839843-9.058594 9.054687" stroke="#000" stroke-width="1.934881"/><path d="m397.75 108.152344c.199219.40625 10.261719 2.015625 10.261719 2.015625" stroke="#000" stroke-width="1.934881"/><path d="m372.585938 131.503906c.207031-.207031 12.28125-3.828125 12.28125-3.828125" stroke="#000" stroke-width="1.934881"/><path d="m353.066406 146.597656c.40625 0 8.453125 1.40625 10.46875.398438" stroke="#000" stroke-width="1.934881"/><path d="m347.429688 154.042969s2.617187 1.410156.40625 14.890625" stroke="#000" stroke-width="1.934881"/><path d="m308.1875 118.621094 4.828125 7.242187" stroke="#000" stroke-width="1.934881"/><path d="m291.683594 155.855469c0-.203125 4.832031 7.246093 11.269531 8.652343" stroke="#000" stroke-width="1.934881"/><path d="m329.722656 193.691406c.199219 0 7.851563-1.613281 9.054688-2.417968" stroke="#000" stroke-width="1.934881"/><path d="m326.296875 221.066406c.207031 0-.199219-5.035156 6.042969-8.460937" stroke="#000" stroke-width="1.934881"/><path d="m318.046875 233.539062c0 .199219 5.839844 7.445313 9.863281 8.453126" stroke="#000" stroke-width="1.934881"/><path d="m314.628906 247.425781c.601563-.199219 6.839844-5.632812 14.085938-5.234375" stroke="#000" stroke-width="1.934881"/><path d="m312.617188 266.140625s.199218 6.242187 18.714843 4.628906" stroke="#000" stroke-width="1.934881"/><path d="m314.421875 288.082031c0-.199219 5.4375-12.476562 16.503906-17.105469" stroke="#000" stroke-width="1.934881"/><path d="m329.320312 303.777344s1.605469-5.234375 10.863282-8.855469" stroke="#000" stroke-width="1.934881"/><path d="m339.585938 324.507812s6.640624-5.429687 9.054687-6.238281" stroke="#000" stroke-width="1.934881"/><path d="m347.835938 340.609375s4.023437 4.230469 14.085937-3.015625" stroke="#000" stroke-width="1.934881"/><path d="m299.332031 344.035156c1.207031-.207031 15.898438-3.625 20.933594 4.019532" stroke="#000" stroke-width="1.934881"/><path d="m305.167969 356.109375s15.496093-2.011719 17.507812-.40625" stroke="#000" stroke-width="1.934881"/><path d="m360.511719 359.324219s-2.011719 4.230469 17.109375-2.816407" stroke="#000" stroke-width="1.934881"/><path d="m384.261719 366.972656c-3.421875 5.839844.808593 10.46875-3.621094 13.085938" stroke="#000" stroke-width="1.934881"/><path d="m326.097656 375.023438c.605469-.398438 7.046875-2.617188 6.042969-11.875" stroke="#000" stroke-width="1.934881"/><path d="m331.933594 388.910156c.804687-.199218 11.476562-4.828125 13.6875-2.410156" stroke="#000" stroke-width="1.934881"/><path d="m352.867188 402.398438s1.410156-9.457032 4.429687-10.464844" stroke="#000" stroke-width="1.934881"/><path d="m368.96875 416.683594s8.855469-.199219 12.675781-3.015625" stroke="#000" stroke-width="1.934881"/><path d="m386.074219 384.6875c.199219.199219 8.253906 4.421875 25.359375.199219" stroke="#000" stroke-width="1.934881"/><path d="m392.515625 423.125s2.414063 12.28125 2.210937 15.097656" stroke="#000" stroke-width="1.934881"/></g><path d="m701.617188 234.355469c-.503907-4.046875-2.453126-7.609375-5.117188-9.332031-2.664062-1.722657-5.632812-1.351563-7.789062.976562-2.160157 2.324219-3.171876 6.257812-2.660157 10.304688.496094 4.046874 2.449219 7.605468 5.113281 9.332031 2.664063 1.722656 5.632813 1.351562 7.789063-.980469 2.160156-2.324219 3.175781-6.253906 2.664063-10.300781zm0 0" fill="#de2010" fill-rule="evenodd"/><path d="m701.617188 234.355469c-.503907-4.046875-2.453126-7.609375-5.117188-9.332031-2.664062-1.722657-5.632812-1.351563-7.789062.976562-2.15625 2.324219-3.171876 6.253906-2.660157 10.304688.496094 4.046874 2.449219 7.605468 5.113281 9.328124 2.664063 1.726563 5.632813 1.355469 7.789063-.976562 2.160156-2.324219 3.175781-6.253906 2.664063-10.300781zm0 0" fill="none" stroke="#000" stroke-width="2.354701"/><path d="m699.953125 213.910156c-.503906-4.046875-2.453125-7.605468-5.121094-9.332031-2.660156-1.722656-5.628906-1.351563-7.785156.972656-2.160156 2.332031-3.175781 6.253907-2.660156 10.304688.5 4.050781 2.449219 7.605469 5.117187 9.335937 2.660156 1.722656 5.628906 1.351563 7.785156-.976562 2.160157-2.324219 3.175782-6.257813 2.664063-10.304688zm0 0" fill="#de2010" fill-rule="evenodd"/><path d="m699.953125 213.910156c-.503906-4.046875-2.453125-7.605468-5.117187-9.332031-2.664063-1.722656-5.632813-1.351563-7.789063.972656-2.160156 2.328125-3.175781 6.253907-2.660156 10.304688.5 4.050781 2.449219 7.605469 5.113281 9.335937 2.664062 1.722656 5.632812 1.351563 7.789062-.976562 2.160157-2.324219 3.175782-6.257813 2.664063-10.304688zm0 0" fill="none" stroke="#000" stroke-width="2.354701"/><path d="m695.796875 192.070312c-.855469-3.988281-3.117187-7.363281-5.917969-8.84375-2.804687-1.484374-5.734375-.855468-7.675781 1.652344-1.945313 2.507813-2.609375 6.511719-1.746094 10.496094.855469 3.988281 3.113281 7.363281 5.914063 8.847656 2.808594 1.484375 5.734375.855469 7.675781-1.652344 1.945313-2.507812 2.613281-6.511718 1.75-10.5zm0 0" fill="#de2010" fill-rule="evenodd"/><path d="m695.796875 192.070312c-.855469-3.988281-3.117187-7.363281-5.917969-8.84375-2.804687-1.484374-5.734375-.855468-7.675781 1.652344-1.945313 2.507813-2.609375 6.511719-1.746094 10.496094.855469 3.988281 3.113281 7.363281 5.914063 8.847656 2.808594 1.484375 5.734375.855469 7.675781-1.65625 1.945313-2.503906 2.613281-6.507812 1.75-10.496094zm0 0" fill="none" stroke="#000" stroke-width="2.289776"/><path d="m688.226562 169.246094c-1.84375-3.636719-4.886718-6.320313-7.976562-7.042969-3.089844-.71875-5.757812.636719-6.996094 3.558594-1.242187 2.917969-.867187 6.957031.984375 10.597656 1.84375 3.636719 4.886719 6.320313 7.972657 7.042969 3.089843.71875 5.761718-.632813 7.003906-3.558594 1.238281-2.921875.863281-6.957031-.988282-10.597656zm0 0" fill="#de2010" fill-rule="evenodd"/><path d="m688.226562 169.246094c-1.84375-3.636719-4.886718-6.320313-7.976562-7.042969-3.089844-.71875-5.757812.636719-6.996094 3.558594-1.242187 2.917969-.867187 6.957031.984375 10.59375 1.84375 3.640625 4.886719 6.324219 7.972657 7.046875 3.089843.71875 5.761718-.632813 7.003906-3.558594 1.238281-2.921875.863281-6.957031-.988282-10.597656zm0 0" fill="none" stroke="#000" stroke-width="1.866674"/><path d="m680.140625 150.941406c-1.84375-3.636718-4.882813-6.324218-7.972656-7.046875-3.089844-.714843-5.761719.640625-7 3.5625-1.242188 2.917969-.867188 6.957031.984375 10.59375 1.84375 3.636719 4.886718 6.324219 7.980468 7.046875 3.089844.71875 5.753907-.640625 6.996094-3.558594 1.238282-2.921874.863282-6.960937-.988281-10.597656zm0 0" fill="#de2010" fill-rule="evenodd"/><path d="m680.140625 150.941406c-1.84375-3.636718-4.882813-6.324218-7.972656-7.046875-3.089844-.714843-5.761719.640625-7.003907 3.5625-1.238281 2.917969-.863281 6.957031.988282 10.59375 1.84375 3.636719 4.886718 6.324219 7.980468 7.046875 3.089844.71875 5.753907-.640625 6.996094-3.558594 1.238282-2.921874.863282-6.960937-.988281-10.597656zm0 0" fill="none" stroke="#000" stroke-width="1.866674"/><path d="m668.640625 132.535156c-2.148437-3.472656-5.402344-5.890625-8.542969-6.347656-3.140625-.453125-5.683594 1.121094-6.671875 4.140625-.988281 3.011719-.273437 7.003906 1.882813 10.472656 2.144531 3.464844 5.402344 5.886719 8.542968 6.34375 3.140626.453125 5.683594-1.125 6.671876-4.136719.992187-3.011718.273437-7.007812-1.882813-10.472656zm0 0" fill="#de2010" fill-rule="evenodd"/><path d="m668.644531 132.535156c-2.148437-3.472656-5.40625-5.890625-8.546875-6.347656-3.136718-.453125-5.683594 1.121094-6.667968 4.140625-.992188 3.011719-.273438 7.003906 1.878906 10.472656 2.140625 3.464844 5.40625 5.890625 8.542968 6.34375 3.140626.453125 5.683594-1.125 6.671876-4.136719.992187-3.011718.273437-7.007812-1.878907-10.472656zm0 0" fill="none" stroke="#000" stroke-width="1.636309"/><path d="m655.851562 114.789062c-2.472656-3.246093-5.949218-5.335937-9.117187-5.488281-3.167969-.152343-5.554687 1.664063-6.246094 4.761719-.6875 3.09375.410157 7 2.886719 10.242188 2.46875 3.25 5.945312 5.34375 9.121094 5.492187 3.167968.148437 5.546875-1.667969 6.238281-4.761719.695313-3.097656-.410156-7.003906-2.882813-10.246094zm0 0" fill="#de2010" fill-rule="evenodd"/><path d="m655.851562 114.789062c-2.472656-3.246093-5.949218-5.335937-9.117187-5.488281-3.171875-.152343-5.554687 1.667969-6.246094 4.761719-.691406 3.09375.410157 7.003906 2.886719 10.242188 2.46875 3.25 5.945312 5.34375 9.121094 5.488281 3.167968.152343 5.542968-1.664063 6.238281-4.757813.695313-3.097656-.410156-7.003906-2.882813-10.246094zm0 0" fill="none" stroke="#000" stroke-width="1.289735"/><path d="m640.589844 98.246094c-2.914063-2.855469-6.660156-4.421875-9.8125-4.109375-3.160156.3125-5.25 2.449219-5.488282 5.613281-.234374 3.164062 1.417969 6.871094 4.339844 9.722656 2.914063 2.851563 6.660156 4.417969 9.816406 4.105469s5.246094-2.449219 5.484376-5.613281c.238281-3.164063-1.414063-6.871094-4.339844-9.71875zm0 0" fill="#de2010" fill-rule="evenodd"/><path d="m640.589844 98.246094c-2.914063-2.855469-6.660156-4.421875-9.8125-4.109375-3.160156.3125-5.25 2.449219-5.488282 5.613281-.234374 3.164062 1.417969 6.871094 4.339844 9.722656 2.917969 2.851563 6.660156 4.417969 9.8125 4.105469 3.160156-.3125 5.25-2.449219 5.492188-5.613281.234375-3.164063-1.417969-6.871094-4.34375-9.71875zm0 0" fill="none" stroke="#000" stroke-width=".188534"/><path d="m623.414062 83.027344c-3.171874-2.574219-7.042968-3.789063-10.15625-3.1875-3.117187.597656-5 2.925781-4.949218 6.09375.058594 3.171875 2.046875 6.707031 5.214844 9.277344 3.171874 2.570312 7.042968 3.789062 10.15625 3.1875 3.117187-.601563 5-2.925782 4.949218-6.09375-.058594-3.171876-2.046875-6.710938-5.214844-9.277344zm0 0" fill="#de2010" fill-rule="evenodd"/><path d="m623.414062 83.027344c-3.167968-2.574219-7.042968-3.789063-10.15625-3.1875-3.117187.601562-5 2.925781-4.945312 6.09375.058594 3.171875 2.042969 6.707031 5.210938 9.277344 3.171874 2.574218 7.042968 3.789062 10.160156 3.1875 3.113281-.601563 4.996094-2.925782 4.945312-6.09375-.058594-3.175782-2.046875-6.707032-5.214844-9.277344zm0 0" fill="none" stroke="#000" stroke-width="1.002767"/><path d="m605.214844 70.878906c-3.550782-2.011718-7.570313-2.570312-10.542969-1.460937s-4.445313 3.71875-3.867187 6.835937c.582031 3.117188 3.128906 6.273438 6.683593 8.28125 3.550781 2.011719 7.570313 2.570313 10.542969 1.460938 2.976562-1.109375 4.445312-3.714844 3.863281-6.835938s-3.128906-6.273437-6.679687-8.28125zm0 0" fill="#de2010" fill-rule="evenodd" stroke="#000" stroke-width="1.667496"/><path d="m584.84375 60.09375c-3.722656-1.679688-7.773438-1.867188-10.628906-.492188-2.863282 1.375-4.09375 4.105469-3.230469 7.15625.867187 3.050782 3.6875 5.96875 7.410156 7.640626 3.71875 1.679687 7.773438 1.867187 10.628907.492187 2.863281-1.375 4.089843-4.105469 3.226562-7.15625s-3.683594-5.96875-7.40625-7.640625zm0 0" fill="#de2010" fill-rule="evenodd"/><path d="m584.84375 60.09375c-3.71875-1.679688-7.773438-1.867188-10.628906-.492188-2.863282 1.375-4.09375 4.101563-3.226563 7.15625.863281 3.050782 3.683594 5.964844 7.40625 7.640626 3.71875 1.679687 7.773438 1.867187 10.628907.492187 2.863281-1.375 4.09375-4.105469 3.226562-7.15625-.863281-3.050781-3.683594-5.96875-7.40625-7.640625zm0 0" fill="none" stroke="#000" stroke-width="1.905857"/><path d="m564.863281 52.050781c-3.824219-1.429687-7.878906-1.34375-10.640625.21875-2.761718 1.5625-3.808594 4.371094-2.738281 7.359375 1.0625 2.988282 4.078125 5.703125 7.902344 7.125 3.820312 1.425782 7.878906 1.339844 10.636719-.222656 2.765624-1.5625 3.808593-4.367188 2.742187-7.355469s-4.078125-5.703125-7.902344-7.125zm0 0" fill="#de2010" fill-rule="evenodd"/><path d="m564.863281 52.050781c-3.824219-1.429687-7.878906-1.34375-10.640625.21875-2.761718 1.5625-3.808594 4.371094-2.738281 7.359375 1.0625 2.988282 4.078125 5.703125 7.898437 7.125 3.824219 1.425782 7.882813 1.339844 10.640626-.21875 2.765624-1.5625 3.808593-4.371094 2.738281-7.359375-1.0625-2.988281-4.074219-5.703125-7.898438-7.125zm0 0" fill="none" stroke="#000" stroke-width="2.045449"/><path d="m544.558594 45.679688c-3.917969-1.128907-7.957032-.738282-10.589844 1.035156-2.636719 1.765625-3.460938 4.644531-2.171875 7.542968 1.289063 2.894532 4.5 5.375 8.429687 6.503907 3.914063 1.128906 7.957032.738281 10.589844-1.035157 2.632813-1.769531 3.460938-4.644531 2.167969-7.542968-1.289063-2.902344-4.503906-5.378906-8.425781-6.503906zm0 0" fill="#de2010" fill-rule="evenodd"/><path d="m544.5625 45.679688c-3.921875-1.128907-7.960938-.738282-10.59375 1.035156-2.636719 1.765625-3.460938 4.644531-2.171875 7.542968 1.289063 2.894532 4.5 5.375 8.429687 6.503907 3.914063 1.128906 7.957032.738281 10.589844-1.035157 2.632813-1.769531 3.460938-4.644531 2.167969-7.542968-1.289063-2.902344-4.503906-5.375-8.421875-6.503906zm0 0" fill="none" stroke="#000" stroke-width="2.172512"/><path d="m522.210938 41.871094c-4.042969-.511719-7.972657.496094-10.300782 2.648437-2.332031 2.15625-2.707031 5.125-.988281 7.789063 1.722656 2.667968 5.28125 4.621094 9.328125 5.128906 4.046875.511719 7.976562-.5 10.304688-2.652344 2.332031-2.152344 2.707031-5.121094.984374-7.789062-1.71875-2.664063-5.273437-4.617188-9.328124-5.125zm0 0" fill="#de2010" fill-rule="evenodd"/><path d="m522.210938 41.871094c-4.042969-.511719-7.972657.496094-10.300782 2.648437-2.328125 2.15625-2.707031 5.125-.988281 7.789063 1.726563 2.667968 5.277344 4.621094 9.328125 5.128906 4.046875.511719 7.976562-.5 10.308594-2.652344 2.328125-2.152344 2.703125-5.121094.980468-7.789062-1.71875-2.664063-5.273437-4.617188-9.328124-5.125zm0 0" fill="none" stroke="#000" stroke-width="2.336177"/><path d="m500.152344 40.625c-4.078125-.167969-7.90625 1.175781-10.042969 3.519531-2.140625 2.34375-2.257813 5.339844-.320313 7.847657 1.945313 2.503906 5.65625 4.148437 9.730469 4.3125 4.078125.164062 7.90625-1.179688 10.046875-3.523438 2.136719-2.34375 2.253906-5.335938.3125-7.839844-1.9375-2.511718-5.648437-4.15625-9.726562-4.316406zm0 0" fill="#de2010" fill-rule="evenodd"/><path d="m500.152344 40.625c-4.078125-.167969-7.90625 1.175781-10.042969 3.519531-2.140625 2.34375-2.257813 5.335938-.320313 7.847657 1.945313 2.503906 5.65625 4.148437 9.734376 4.3125 4.074218.164062 7.902343-1.179688 10.042968-3.523438 2.136719-2.339844 2.253906-5.335938.3125-7.839844-1.941406-2.511718-5.652344-4.15625-9.726562-4.316406zm0 0" fill="none" stroke="#000" stroke-width="2.376074"/><path d="m479.941406 41.335938c-4.078125-.164063-7.90625 1.179687-10.042968 3.523437-2.132813 2.34375-2.257813 5.335937-.3125 7.84375 1.941406 2.507813 5.648437 4.152344 9.726562 4.3125 4.078125.167969 7.910156-1.175781 10.042969-3.519531 2.136719-2.34375 2.261719-5.335938.316406-7.84375-1.941406-2.507813-5.652344-4.152344-9.730469-4.316406zm0 0" fill="#de2010" fill-rule="evenodd"/><path d="m479.941406 41.335938c-4.078125-.164063-7.90625 1.179687-10.042968 3.523437-2.136719 2.34375-2.257813 5.335937-.3125 7.84375 1.941406 2.507813 5.648437 4.152344 9.726562 4.3125 4.074219.167969 7.910156-1.175781 10.042969-3.519531 2.140625-2.34375 2.261719-5.335938.316406-7.84375-1.941406-2.507813-5.652344-4.152344-9.730469-4.316406zm0 0" fill="none" stroke="#000" stroke-width="2.376074"/><path d="m456.246094 44.144531c-3.980469.902344-7.324219 3.203125-8.769532 6.027344-1.453124 2.820313-.785156 5.742187 1.746094 7.65625 2.53125 1.90625 6.542969 2.527344 10.519532 1.617187 3.980468-.910156 7.324218-3.207031 8.773437-6.03125 1.445313-2.824218.78125-5.738281-1.753906-7.652343-2.527344-1.914063-6.535157-2.527344-10.515625-1.617188zm0 0" fill="#de2010" fill-rule="evenodd"/><path d="m456.246094 44.144531c-3.980469.90625-7.324219 3.203125-8.769532 6.027344-1.449218 2.820313-.789062 5.742187 1.746094 7.65625 2.53125 1.910156 6.542969 2.527344 10.519532 1.617187 3.976562-.910156 7.324218-3.207031 8.773437-6.03125 1.445313-2.824218.78125-5.738281-1.753906-7.652343-2.527344-1.914063-6.539063-2.53125-10.515625-1.617188zm0 0" fill="none" stroke="#000" stroke-width="2.277583"/><path d="m434.699219 49.546875c-3.890625 1.230469-7.03125 3.796875-8.246094 6.726563-1.210937 2.933593-.304687 5.785156 2.375 7.488281 2.679687 1.691406 6.726563 1.976562 10.617187.738281 3.890626-1.230469 7.035157-3.796875 8.246094-6.726562 1.210938-2.933594.304688-5.785157-2.375-7.484376-2.679687-1.695312-6.726562-1.980468-10.617187-.742187zm0 0" fill="#de2010" fill-rule="evenodd"/><path d="m434.699219 49.546875c-3.890625 1.230469-7.035157 3.796875-8.246094 6.726563-1.210937 2.933593-.304687 5.785156 2.375 7.484374 2.679687 1.695313 6.730469 1.976563 10.617187.742188 3.890626-1.230469 7.035157-3.796875 8.246094-6.726562 1.210938-2.933594.308594-5.785157-2.375-7.484376-2.679687-1.695312-6.726562-1.980468-10.617187-.742187zm0 0" fill="none" stroke="#000" stroke-width="2.176322"/><path d="m415.042969 57.964844c-3.714844 1.683594-6.53125 4.609375-7.382813 7.664062-.855468 3.058594.386719 5.78125 3.25 7.144532 2.863282 1.367187 6.917969 1.167968 10.628906-.523438 3.714844-1.6875 6.53125-4.609375 7.382813-7.664062.851563-3.058594-.386719-5.78125-3.25-7.148438-2.863281-1.363281-6.917969-1.164062-10.628906.527344zm0 0" fill="#de2010" fill-rule="evenodd"/><path d="m415.042969 57.964844c-3.714844 1.683594-6.53125 4.609375-7.382813 7.664062-.855468 3.058594.386719 5.78125 3.246094 7.144532 2.867188 1.367187 6.921875 1.167968 10.632812-.523438 3.714844-1.6875 6.53125-4.609375 7.382813-7.664062.851563-3.058594-.386719-5.78125-3.25-7.148438-2.863281-1.363281-6.917969-1.164062-10.628906.527344zm0 0" fill="none" stroke="#000" stroke-width="1.964786"/><path d="m395.429688 68.015625c-3.558594 1.996094-6.117188 5.148437-6.703126 8.261719-.589843 3.121094.875 5.730468 3.84375 6.847656 2.972657 1.117188 6.988282.570312 10.542969-1.429688 3.5625-1.996093 6.117188-5.148437 6.707031-8.269531.589844-3.113281-.878906-5.726562-3.847656-6.839843-2.96875-1.117188-6.988281-.570313-10.542968 1.429687zm0 0" fill="#de2010" fill-rule="evenodd"/><path d="m395.429688 68.015625c-3.558594 1.992187-6.117188 5.148437-6.703126 8.265625-.59375 3.117188.875 5.726562 3.839844 6.84375 2.976563 1.117188 6.996094.570312 10.550782-1.429688 3.558593-2 6.113281-5.148437 6.703124-8.269531.589844-3.113281-.878906-5.726562-3.847656-6.839843-2.96875-1.117188-6.988281-.570313-10.542968 1.429687zm0 0" fill="none" stroke="#000" stroke-width="1.759506"/><path d="m376.875 80.601562c-3.320312 2.367188-5.515625 5.78125-5.765625 8.945313-.246094 3.15625 1.492187 5.59375 4.570313 6.378906 3.070312.792969 7.011718-.1875 10.328124-2.566406 3.320313-2.367187 5.515626-5.78125 5.765626-8.945313.246093-3.164062-1.496094-5.59375-4.570313-6.382812-3.070313-.789062-7.007813.191406-10.328125 2.570312zm0 0" fill="#de2010" fill-rule="evenodd"/><path d="m376.875 80.601562c-3.320312 2.367188-5.515625 5.78125-5.765625 8.945313-.246094 3.15625 1.492187 5.59375 4.570313 6.378906 3.070312.792969 7.011718-.1875 10.324218-2.566406 3.324219-2.367187 5.519532-5.78125 5.769532-8.945313.25-3.164062-1.496094-5.597656-4.570313-6.382812-3.070313-.789062-7.007813.191406-10.328125 2.570312zm0 0" fill="none" stroke="#000" stroke-width="1.412035"/><path d="m359.710938 93.609375c-3.109376 2.640625-5.007813 6.222656-4.988282 9.398437.023438 3.171876 1.960938 5.453126 5.09375 5.976563 3.128906.527344 6.964844-.785156 10.070313-3.433594 3.109375-2.640625 5.011719-6.230469 4.992187-9.398437-.023437-3.171875-1.964844-5.453125-5.09375-5.976563-3.128906-.527343-6.972656.78125-10.074218 3.433594zm0 0" fill="#de2010" fill-rule="evenodd"/><path d="m359.710938 93.609375c-3.109376 2.640625-5.007813 6.222656-4.988282 9.398437.023438 3.171876 1.960938 5.453126 5.089844 5.976563 3.132812.527344 6.96875-.785156 10.074219-3.433594 3.109375-2.640625 5.011719-6.230469 4.992187-9.398437-.023437-3.175782-1.964844-5.453125-5.09375-5.976563-3.128906-.527343-6.972656.78125-10.074218 3.433594zm0 0" fill="none" stroke="#000" stroke-width="1.033668"/><path d="m344.554688 109.445312c-2.910157 2.855469-4.550782 6.566407-4.300782 9.730469.25 3.164063 2.347656 5.296875 5.507813 5.59375 3.160156.300781 6.894531-1.277343 9.800781-4.144531 2.910156-2.859375 4.550781-6.574219 4.300781-9.734375-.25-3.164063-2.347656-5.296875-5.507812-5.597656-3.160157-.296875-6.894531 1.285156-9.800781 4.152343zm0 0" fill="#de2010" fill-rule="evenodd"/><path d="m344.554688 109.445312c-2.910157 2.855469-4.550782 6.566407-4.300782 9.730469.25 3.164063 2.347656 5.296875 5.507813 5.59375 3.160156.296875 6.894531-1.277343 9.800781-4.144531 2.910156-2.859375 4.550781-6.574219 4.300781-9.734375-.25-3.167969-2.347656-5.296875-5.507812-5.597656-3.160157-.296875-6.894531 1.285156-9.800781 4.152343zm0 0" fill="none" stroke="#000" stroke-width=".509401"/><path d="m331.507812 127.042969c-2.660156 3.089843-3.984374 6.925781-3.46875 10.058593.511719 3.128907 2.78125 5.082032 5.953126 5.109376 3.171874.035156 6.765624-1.851563 9.421874-4.949219 2.660157-3.089844 3.984376-6.929688 3.472657-10.058594-.515625-3.128906-2.785157-5.085937-5.960938-5.117187-3.171875-.035157-6.761719 1.855468-9.417969 4.957031zm0 0" fill="#de2010" fill-rule="evenodd"/><path d="m331.507812 127.039062c-2.660156 3.09375-3.980468 6.929688-3.46875 10.058594.511719 3.128906 2.78125 5.085938 5.953126 5.113282 3.171874.035156 6.765624-1.851563 9.421874-4.953126 2.660157-3.085937 3.984376-6.925781 3.472657-10.054687-.515625-3.132813-2.785157-5.085937-5.957031-5.117187-3.175782-.035157-6.765626 1.855468-9.421876 4.953124zm0 0" fill="none" stroke="#000" stroke-width=".83107"/><path d="m319.585938 145.058594c-2.316407 3.359375-3.222657 7.3125-2.378907 10.371094.84375 3.0625 3.308594 4.753906 6.464844 4.453124 3.160156-.308593 6.527344-2.570312 8.839844-5.933593 2.316406-3.359375 3.222656-7.3125 2.378906-10.371094-.84375-3.054687-3.308594-4.753906-6.46875-4.445313-3.15625.300782-6.527344 2.5625-8.835937 5.925782zm0 0" fill="#de2010" fill-rule="evenodd"/><path d="m319.585938 145.058594c-2.316407 3.359375-3.222657 7.3125-2.378907 10.371094.84375 3.058593 3.308594 4.753906 6.464844 4.453124 3.160156-.308593 6.527344-2.570312 8.835937-5.933593 2.320313-3.359375 3.226563-7.3125 2.386719-10.371094-.847656-3.058594-3.3125-4.753906-6.472656-4.449219-3.160156.304688-6.527344 2.566406-8.835937 5.929688zm0 0" fill="none" stroke="#000" stroke-width="1.367708"/><path d="m309.644531 165.492188c-1.703125 3.707031-1.917969 7.757812-.5625 10.625 1.359375 2.871093 4.078125 4.117187 7.140625 3.277343 3.054688-.84375 5.984375-3.652343 7.683594-7.363281 1.703125-3.707031 1.917969-7.757812.5625-10.625-1.359375-2.871094-4.078125-4.117188-7.136719-3.269531-3.058593.839843-5.988281 3.644531-7.6875 7.355469zm0 0" fill="#de2010" fill-rule="evenodd"/><path d="m309.644531 165.492188c-1.703125 3.707031-1.921875 7.757812-.5625 10.625 1.359375 2.871093 4.078125 4.117187 7.140625 3.277343 3.054688-.84375 5.984375-3.652343 7.683594-7.363281 1.703125-3.707031 1.917969-7.757812.5625-10.625-1.359375-2.871094-4.078125-4.117188-7.136719-3.273438-3.058593.84375-5.988281 3.648438-7.6875 7.359376zm0 0" fill="none" stroke="#000" stroke-width="1.890884"/><path d="m301.765625 186.835938c-1.355469 3.847656-1.203125 7.898437.40625 10.632812 1.613281 2.734375 4.433594 3.734375 7.402344 2.613281 2.972656-1.117187 5.636719-4.179687 6.992187-8.027343 1.363282-3.84375 1.207032-7.898438-.402344-10.632813-1.613281-2.734375-4.433593-3.730469-7.402343-2.613281-2.96875 1.117187-5.636719 4.179687-6.996094 8.027344zm0 0" fill="#de2010" fill-rule="evenodd"/><path d="m301.769531 186.835938c-1.359375 3.847656-1.207031 7.898437.402344 10.636718 1.613281 2.734375 4.433594 3.730469 7.402344 2.609375 2.972656-1.117187 5.636719-4.179687 6.992187-8.027343 1.363282-3.84375 1.207032-7.898438-.402344-10.632813-1.613281-2.734375-4.4375-3.730469-7.40625-2.613281-2.964843 1.117187-5.632812 4.179687-6.988281 8.027344zm0 0" fill="none" stroke="#000" stroke-width="2.076927"/><path d="m294.9375 227.261719c-.382812 3.253906.761719 6.375 2.988281 8.1875 2.230469 1.808593 5.210938 2.03125 7.816407.582031 2.609374-1.453125 4.441406-4.351562 4.820312-7.609375.378906-3.253906-.761719-6.375-2.988281-8.1875-2.234375-1.8125-5.210938-2.03125-7.816407-.582031-2.609374 1.453125-4.445312 4.351562-4.820312 7.609375zm0 0" fill="#de2010" fill-rule="evenodd"/><path d="m294.9375 227.261719c-.382812 3.253906.761719 6.375 2.988281 8.1875 2.230469 1.804687 5.210938 2.03125 7.816407.582031 2.609374-1.453125 4.445312-4.351562 4.820312-7.609375.378906-3.257813-.761719-6.375-2.988281-8.1875-2.234375-1.8125-5.210938-2.03125-7.816407-.582031-2.609374 1.449218-4.445312 4.351562-4.820312 7.609375zm0 0" fill="none" stroke="#000" stroke-width="2.109208"/><path d="m296.761719 208.382812c-.90625 3.980469-.285157 7.988282 1.628906 10.523438 1.910156 2.527344 4.828125 3.195312 7.648437 1.742188 2.824219-1.449219 5.117188-4.792969 6.019532-8.773438.914062-3.980469.296875-7.988281-1.617188-10.515625-1.917968-2.535156-4.835937-3.199219-7.65625-1.75-2.824218 1.449219-5.117187 4.800781-6.023437 8.773437zm0 0" fill="#de2010" fill-rule="evenodd"/><path d="m296.761719 208.382812c-.90625 3.980469-.289063 7.988282 1.628906 10.523438 1.910156 2.527344 4.828125 3.191406 7.648437 1.742188 2.824219-1.449219 5.117188-4.792969 6.019532-8.773438.914062-3.980469.292968-7.988281-1.617188-10.519531-1.917968-2.53125-4.835937-3.195313-7.660156-1.746094-2.820312 1.449219-5.117188 4.796875-6.019531 8.773437zm0 0" fill="none" stroke="#000" stroke-width="2.245724"/><path d="m685.328125 198.71875c2.484375-2.660156 4.792969-3.410156 7.722656-2.441406-1.035156-7.015625-3.253906-9.398438-5.960937-8.550782-2.703125.84375-3.929688 4.449219-1.761719 10.992188zm0 0" fill="#ffe300" fill-rule="evenodd"/><path d="m689.125 219.90625c2.679688-2.464844 5.046875-3.042969 7.886719-1.855469-.496094-7.074219-2.535157-9.617187-5.296875-8.976562-2.761719.636719-4.253906 4.144531-2.589844 10.832031zm0 0" fill="#ffe300" fill-rule="evenodd"/><path d="m680.140625 179.386719c1.730469-3.207031 3.769531-4.519531 6.851563-4.324219-2.785157-6.527344-5.539063-8.265625-7.941407-6.761719-2.402343 1.503907-2.667969 5.304688 1.089844 11.085938zm0 0" fill="#ffe300" fill-rule="evenodd"/><path d="m670.710938 160.109375c1.730468-3.207031 3.777343-4.523437 6.851562-4.328125-2.777344-6.523438-5.53125-8.265625-7.933594-6.761719-2.402344 1.507813-2.671875 5.308594 1.082032 11.089844zm0 0" fill="#ffe300" fill-rule="evenodd"/><path d="m648.101562 124.789062c1.191407-3.441406 2.996094-5.066406 6.0625-5.367187-3.792968-5.996094-6.792968-7.269531-8.921874-5.398437-2.128907 1.871093-1.78125 5.664062 2.859374 10.765624zm0 0" fill="#ffe300" fill-rule="evenodd"/><path d="m633.324219 109.398438c1.0625-3.480469 2.804687-5.175782 5.859375-5.59375-4.015625-5.847657-7.058594-7.007813-9.121094-5.054688-2.054688 1.949219-1.566406 5.726562 3.261719 10.648438zm0 0" fill="#ffe300" fill-rule="evenodd"/><path d="m602.257812 83.183594c-.066406-3.636719 1.070313-5.785156 3.851563-7.125-5.625-4.324219-8.878906-4.492188-10.234375-2.007813-1.359375 2.492188.273438 5.933594 6.382812 9.132813zm0 0" fill="#ffe300" fill-rule="evenodd"/><path d="m618.417969 95.308594c.570312-3.601563 2.0625-5.519532 5.03125-6.355469-4.792969-5.234375-7.964844-5.960937-9.734375-3.742187-1.765625 2.214843-.757813 5.886718 4.703125 10.097656zm0 0" fill="#ffe300" fill-rule="evenodd"/><path d="m583.808594 73.007812c-.441406-3.617187.46875-5.867187 3.09375-7.492187-6.039063-3.71875-9.289063-3.546875-10.382813-.9375-1.089843 2.621094.882813 5.875 7.289063 8.429687zm0 0" fill="#ffe300" fill-rule="evenodd"/><path d="m564.960938 64.773438c-.953126-3.507813-.375-5.871094 1.992187-7.851563-6.507813-2.816406-9.707031-2.1875-10.410156.5625-.707031 2.746094 1.714843 5.683594 8.417969 7.289063zm0 0" fill="#ffe300" fill-rule="evenodd"/><path d="m544.652344 58.484375c-1.25-3.421875-.875-5.824219 1.320312-7.992187-6.726562-2.257813-9.855468-1.355469-10.328125 1.4375-.46875 2.796874 2.191407 5.523437 9.007813 6.554687zm0 0" fill="#ffe300" fill-rule="evenodd"/><path d="m524.699219 54.625c-1.492188-3.328125-1.289063-5.75.734375-8.066406-6.867188-1.769532-9.925782-.644532-10.195313 2.175781-.265625 2.824219 2.589844 5.351563 9.460938 5.890625zm0 0" fill="#ffe300" fill-rule="evenodd"/><path d="m503.574219 53.003906c-1.832031-3.148437-1.878907-5.582031-.101563-8.101562-7.019531-1.042969-9.941406.390625-9.917968 3.226562.027343 2.832032 3.125 5.050782 10.019531 4.875zm0 0" fill="#ffe300" fill-rule="evenodd"/><path d="m462.207031 56.117188c-2.535156-2.617188-3.167969-4.960938-2.050781-7.835938-7.066406.679688-9.554688 2.777344-8.84375 5.523438.707031 2.742187 4.25 4.148437 10.894531 2.3125zm0 0" fill="#ffe300" fill-rule="evenodd"/><path d="m482.574219 53.4375c-2.152344-2.933594-2.464844-5.347656-.972657-8.042969-7.089843-.28125-9.839843 1.460938-9.507812 4.273438.328125 2.816406 3.648438 4.6875 10.480469 3.769531zm0 0" fill="#ffe300" fill-rule="evenodd"/><path d="m442.230469 60.433594c-2.878907-2.226563-3.847657-4.457032-3.152344-7.460938-6.894531 1.683594-9.058594 4.117188-7.960937 6.734375 1.09375 2.613281 4.800781 3.496094 11.113281.726563zm0 0" fill="#ffe300" fill-rule="evenodd"/><path d="m403.980469 78.023438c-3.253907-1.636719-4.625-3.644532-4.519531-6.726563-6.445313 2.964844-8.101563 5.761719-6.53125 8.121094 1.574218 2.359375 5.375 2.519531 11.050781-1.394531zm0 0" fill="#ffe300" fill-rule="evenodd"/><path d="m422.421875 68.597656c-3.027344-2.015625-4.144531-4.179687-3.660156-7.222656-6.757813 2.160156-8.75 4.738281-7.476563 7.273438 1.273438 2.527343 5.035156 3.152343 11.136719-.050782zm0 0" fill="#ffe300" fill-rule="evenodd"/><path d="m369.671875 101.910156c-3.519531-.925781-5.28125-2.605468-5.8125-5.636718-5.691406 4.238281-6.730469 7.324218-4.703125 9.308593 2.03125 1.976563 5.785156 1.339844 10.515625-3.671875zm0 0" fill="#ffe300" fill-rule="evenodd"/><path d="m386.035156 88.511719c-3.4375-1.199219-5.058594-3.003907-5.355468-6.074219-6.003907 3.78125-7.28125 6.78125-5.414063 8.910156 1.867187 2.132813 5.660156 1.792969 10.769531-2.835937zm0 0" fill="#ffe300" fill-rule="evenodd"/><path d="m355.128906 116.238281c-3.59375-.597656-5.5-2.113281-6.308594-5.085937-5.28125 4.742187-6.03125 7.910156-3.835937 9.699218 2.203125 1.785157 5.882813.808594 10.144531-4.613281zm0 0" fill="#ffe300" fill-rule="evenodd"/><path d="m342.089844 133.148438c-3.628906-.273438-5.664063-1.601563-6.738282-4.492188-4.828124 5.203125-5.292968 8.421875-2.9375 10.007812 2.351563 1.574219 5.929688.269532 9.675782-5.515624zm0 0" fill="#ffe300" fill-rule="evenodd"/><path d="m331.191406 150.449219c-3.632812.289062-5.84375-.71875-7.355468-3.40625-3.96875 5.878906-3.933594 9.132812-1.363282 10.335937 2.566406 1.199219 5.902344-.640625 8.71875-6.929687zm0 0" fill="#ffe300" fill-rule="evenodd"/><path d="m321.609375 168.921875c-3.558594.753906-5.886719.042969-7.726563-2.429687-3.175781 6.347656-2.71875 9.570312-.019531 10.425781 2.703125.859375 5.777344-1.394531 7.746094-7.996094zm0 0" fill="#ffe300" fill-rule="evenodd"/><path d="m313.949219 187.875c-3.394531 1.308594-5.804688.976562-8.011719-1.167969-2.132812 6.765625-1.171875 9.878907 1.632812 10.292969 2.804688.421875 5.476563-2.292969 6.378907-9.125zm0 0" fill="#ffe300" fill-rule="evenodd"/><path d="m308.820312 209c-3.304687 1.53125-5.730468 1.367188-8.078124-.632812-1.675782 6.898437-.503907 9.9375 2.320312 10.167968 2.828125.230469 5.3125-2.65625 5.757812-9.535156zm0 0" fill="#ffe300" fill-rule="evenodd"/><path d="m306.734375 226.582031c-3.105469 1.644531-5.527344 1.839844-8.070313.59375-.925781 5.621094.554688 7.84375 3.378907 7.636719 2.824219-.199219 4.984375-2.792969 4.691406-8.230469zm0 0" fill="#ffe300" fill-rule="evenodd"/><path d="m662.300781 142.933594c1.246094-3.421875 3.074219-5.019532 6.148438-5.277344-3.703125-6.050781-6.683594-7.367188-8.839844-5.53125-2.15625 1.839844-1.871094 5.640625 2.691406 10.808594zm0 0" fill="#ffe300" fill-rule="evenodd"/><path d="m691.445312 241.367188c2.679688-2.464844 5.042969-3.042969 7.886719-1.855469-.5-7.074219-2.535156-9.621094-5.292969-8.980469-2.765624.640625-4.257812 4.144531-2.59375 10.835938zm0 0" fill="#ffe300" fill-rule="evenodd"/><path d="m663.671875 126.171875c-.089844 0-8.023437 7.933594-6.640625 17.59375 1.378906 9.660156 7.503906 21.5625 6.382812 31.570313-1.125 10.003906-2.933593 16.648437-2.933593 16.648437s9.316406-10.613281 9.402343-20.789063c.082032-10.179687-6.382812-23.550781-6.382812-31.054687s.34375-14.144531.171875-13.96875zm0 0" fill="#217900" fill-rule="evenodd"/><path d="m663.671875 126.171875c-.089844 0-8.023437 7.933594-6.640625 17.59375 1.378906 9.660156 7.503906 21.5625 6.382812 31.570313-1.125 10.003906-2.933593 16.644531-2.933593 16.644531s9.316406-10.609375 9.402343-20.785157c.082032-10.179687-6.382812-23.550781-6.382812-31.054687s.34375-14.144531.171875-13.96875zm0 0" fill="none" stroke="#000" stroke-width="1.934881"/><path d="m678.421875 158.605469s-6.210937 4.566406-5.609375 15.089843c.605469 10.523438 11.476562 29.84375 11.476562 29.84375s7.933594 16.304688 7.671876 20.527344c-.257813 4.230469 1.464843-4.050781.691406-13.367187-.777344-9.316407-12.765625-29.84375-12.765625-29.84375s-2.585938-4.222657-2.328125-11.210938c.257812-6.988281.949218-10.957031.863281-11.039062zm0 0" fill="#217900" fill-rule="evenodd" stroke="#000" stroke-width="1.934881"/><path d="m491.800781 28.207031c0-2.175781-2.445312-3.941406-5.46875-3.941406-3.023437 0-5.472656 1.765625-5.472656 3.941406 0 2.179688 2.449219 3.945313 5.472656 3.945313 3.023438 0 5.46875-1.765625 5.46875-3.945313zm0 0" fill="#6b18b5" fill-rule="evenodd"/><path d="m494.136719 37.382812c0-2.089843-2.519531-3.785156-5.628907-3.785156-3.113281 0-5.636718 1.695313-5.636718 3.785156 0 2.089844 2.523437 3.78125 5.636718 3.78125 3.109376 0 5.628907-1.691406 5.628907-3.78125zm0 0" fill="#6b18b5" fill-rule="evenodd"/><path d="m501.136719 26.519531s-6.4375 4.828125-3.78125 6.761719c2.65625 1.929688 9.976562-4.183594 9.976562-4.183594zm0 0" fill="#6b18b5" fill-rule="evenodd"/><path d="m690.3125 137.050781c.003906-1.371093-.640625-2.640625-1.683594-3.324219-1.046875-.6875-2.335937-.6875-3.378906 0-1.046875.683594-1.691406 1.953126-1.691406 3.324219 0 1.371094.644531 2.640625 1.691406 3.332031 1.042969.679688 2.332031.679688 3.378906 0 1.042969-.691406 1.6875-1.960937 1.683594-3.332031zm0 0" fill="#6b18b5" fill-rule="evenodd"/><path d="m687.855469 127.839844c0-2.289063-1.578125-4.144532-3.527344-4.144532s-3.53125 1.855469-3.53125 4.144532c0 2.292968 1.582031 4.148437 3.53125 4.148437s3.527344-1.855469 3.527344-4.148437zm0 0" fill="#6b18b5" fill-rule="evenodd"/><path d="m689.546875 146.566406c0-1.183594-.617187-2.148437-1.382813-2.148437-.761718 0-1.382812.964843-1.382812 2.148437 0 1.1875.621094 2.148438 1.382812 2.148438.765626 0 1.382813-.960938 1.382813-2.148438zm0 0" fill="#6b18b5" fill-rule="evenodd"/><path d="m695.226562 129.839844c0-1.359375-.617187-2.457032-1.382812-2.457032-.761719 0-1.378906 1.097657-1.378906 2.457032 0 1.351562.617187 2.457031 1.378906 2.457031.765625 0 1.382812-1.105469 1.382812-2.457031zm0 0" fill="#6b18b5" fill-rule="evenodd"/><path d="m679.722656 131.523438c0-1.097657-.617187-1.992188-1.382812-1.992188-.761719 0-1.378906.894531-1.378906 1.992188 0 1.101562.617187 1.996093 1.378906 1.996093.765625 0 1.382812-.894531 1.382812-1.996093zm0 0" fill="#6b18b5" fill-rule="evenodd"/><path d="m682.175781 144.726562c0-1.78125-1.300781-3.226562-2.914062-3.226562-1.609375 0-2.914063 1.445312-2.914063 3.226562s1.304688 3.222657 2.914063 3.222657c1.613281 0 2.914062-1.441407 2.914062-3.222657zm0 0" fill="#6b18b5" fill-rule="evenodd"/><path d="m674.507812 138.890625c0-1.523437-1.105468-2.761719-2.457031-2.761719-1.355469 0-2.457031 1.238282-2.457031 2.761719 0 1.53125 1.101562 2.765625 2.457031 2.765625 1.351563 0 2.457031-1.234375 2.457031-2.765625zm0 0" fill="#6b18b5" fill-rule="evenodd"/><path d="m673.277344 131.0625c0-.820312-.410156-1.578125-1.074219-1.996094-.664063-.410156-1.484375-.410156-2.148437 0-.664063.417969-1.074219 1.175782-1.074219 1.996094 0 .828125.410156 1.589844 1.074219 2 .664062.410156 1.484374.410156 2.148437 0s1.074219-1.171875 1.074219-2zm0 0" fill="#6b18b5" fill-rule="evenodd"/><path d="m708.265625 170.863281c-3.167969-4.183593-8.246094-5.945312-11.335937-3.933593-3.09375 2.003906-3.023438 7.023437.144531 11.210937 3.167969 4.183594 8.25 5.945313 11.339843 3.9375 3.089844-2.007813 3.019532-7.03125-.148437-11.214844zm0 0" fill="#6b18b5" fill-rule="evenodd"/><path d="m717.28125 248.0625c.613281-5.136719-1.890625-9.660156-5.589844-10.097656-3.707031-.445313-7.207031 3.359375-7.824218 8.488281-.609376 5.136719 1.894531 9.660156 5.59375 10.105469 3.703124.4375 7.203124-3.363282 7.820312-8.496094zm0 0" fill="#6b18b5" fill-rule="evenodd"/><path d="m719.183594 292.996094c1.054687-5.0625-1.046875-9.785156-4.699219-10.542969-3.65625-.765625-7.46875 2.722656-8.527344 7.785156-1.054687 5.0625 1.050781 9.785157 4.703125 10.546875 3.652344.761719 7.464844-2.730468 8.523438-7.789062zm0 0" fill="#6b18b5" fill-rule="evenodd"/><path d="m727.847656 250.9375c0-2.035156-1.378906-3.679688-3.074218-3.679688-1.691407 0-3.070313 1.644532-3.070313 3.679688s1.378906 3.6875 3.070313 3.6875c1.695312 0 3.074218-1.652344 3.074218-3.6875zm0 0" fill="#6b18b5" fill-rule="evenodd"/><path d="m720.324219 259.378906-6.296875 7.140625s-5.90625.152344-5.601563 2.070313c.308594 1.917968 8.136719 7.675781 8.058594 9.972656-.074219 2.304688 5.21875-.535156 5.21875-.535156s4.222656-12.8125 4.222656-12.890625-.230469-8.902344-2.53125-8.75c-2.304687.152343-2.925781 2.832031-3.070312 2.992187zm0 0" fill="#6b18b5" fill-rule="evenodd"/><path d="m306.378906 256.558594c0-1.65625-1.339844-2.996094-2.996094-2.996094-1.652343 0-2.996093 1.339844-2.996093 2.996094 0 1.652344 1.34375 2.992187 2.996093 2.992187 1.65625 0 2.996094-1.339843 2.996094-2.992187zm0 0" fill="#6b18b5" fill-rule="evenodd"/><path d="m309.207031 247.40625c0-1.746094-1.339843-3.164062-2.996093-3.164062s-2.992188 1.417968-2.992188 3.164062c0 1.742188 1.335938 3.160156 2.992188 3.160156s2.996093-1.417968 2.996093-3.160156zm0 0" fill="#6b18b5" fill-rule="evenodd"/><path d="m284.609375 203.882812c-1.125-2.515624-3.460937-3.921874-5.222656-3.136718-1.765625.785156-2.28125 3.46875-1.160157 5.984375 1.125 2.515625 3.464844 3.921875 5.226563 3.136719 1.761719-.785157 2.28125-3.464844 1.15625-5.984376zm0 0" fill="#6b18b5" fill-rule="evenodd"/><path d="m292.042969 231c-1.546875-3.261719-4.757813-5.082031-7.179688-4.0625s-3.128906 4.488281-1.585937 7.753906c1.542968 3.261719 4.753906 5.082032 7.175781 4.0625 2.417969-1.019531 3.128906-4.492187 1.589844-7.753906zm0 0" fill="#6b18b5" fill-rule="evenodd"/><path d="m299.988281 250.882812c.5-4.078124-1.191406-7.816406-3.773437-8.363281-2.582032-.542969-5.082032 2.324219-5.578125 6.402344-.5 4.070313 1.191406 7.816406 3.773437 8.359375 2.582032.542969 5.082032-2.320312 5.578125-6.398438zm0 0" fill="#6b18b5" fill-rule="evenodd"/><path d="m287.226562 253.792969c1.601563-3.78125 1-7.84375-1.332031-9.078125-2.339843-1.230469-5.527343.839844-7.125 4.625-1.597656 3.78125-1 7.84375 1.339844 9.074218 2.332031 1.230469 5.519531-.839843 7.117187-4.621093zm0 0" fill="#6b18b5" fill-rule="evenodd"/><path d="m281.417969 245.242188c0-1.933594-1.492188-3.496094-3.328125-3.496094-1.835938 0-3.328125 1.5625-3.328125 3.496094 0 1.929687 1.492187 3.492187 3.328125 3.492187 1.835937 0 3.328125-1.5625 3.328125-3.492187zm0 0" fill="#6b18b5" fill-rule="evenodd"/><path d="m278.753906 236.589844c0-1.746094-1.335937-3.164063-2.992187-3.164063s-2.996094 1.417969-2.996094 3.164063 1.339844 3.160156 2.996094 3.160156 2.992187-1.414062 2.992187-3.160156zm0 0" fill="#6b18b5" fill-rule="evenodd"/><path d="m281.585938 219.953125c0-2.941406-1.300782-5.328125-2.914063-5.328125-1.605469 0-2.910156 2.386719-2.910156 5.328125 0 2.9375 1.304687 5.320313 2.910156 5.320313 1.613281 0 2.914063-2.382813 2.914063-5.320313zm0 0" fill="#6b18b5" fill-rule="evenodd"/><path d="m290.546875 218.671875c.386719-2.914063-.589844-5.453125-2.1875-5.664063-1.59375-.210937-3.199219 1.976563-3.589844 4.890626-.382812 2.917968.589844 5.457031 2.1875 5.664062 1.59375.210938 3.199219-1.976562 3.589844-4.890625zm0 0" fill="#6b18b5" fill-rule="evenodd"/><path d="m354.390625 91.292969c1.1875-4.128907-.035156-8.28125-2.730469-9.265625-2.699218-.992188-5.851562 1.550781-7.035156 5.683594-1.1875 4.125.039062 8.273437 2.734375 9.265624 2.699219.988282 5.84375-1.554687 7.03125-5.683593zm0 0" fill="#6b18b5" fill-rule="evenodd"/><path d="m342.269531 109.667969c3.554688-3.027344 5.074219-7.210938 3.394531-9.351563-1.683593-2.132812-5.933593-1.410156-9.488281 1.617188-3.554687 3.027344-5.078125 7.210937-3.390625 9.34375 1.683594 2.140625 5.925782 1.417968 9.484375-1.609375zm0 0" fill="#6b18b5" fill-rule="evenodd"/><path d="m335.195312 99.46875c3.515626-2.597656 5.019532-6.191406 3.355469-8.027344-1.664062-1.832031-5.867187-1.210937-9.378906 1.386719-3.523437 2.597656-5.023437 6.191406-3.363281 8.023437 1.667968 1.832032 5.867187 1.214844 9.386718-1.382812zm0 0" fill="#6b18b5" fill-rule="evenodd"/><path d="m362.460938 81.53125c2.367187-1.816406 3.382812-4.320312 2.261718-5.597656-1.125-1.28125-3.957031-.851563-6.324218.964844-2.375 1.8125-3.386719 4.316406-2.265626 5.597656 1.125 1.277344 3.953126.847656 6.328126-.964844zm0 0" fill="#6b18b5" fill-rule="evenodd"/><path d="m348.246094 98.910156c1.621094-2.507812 1.730468-5.207031.246094-6.035156-1.488282-.828125-4.007813.53125-5.632813 3.042969-1.625 2.503906-1.730469 5.203125-.242187 6.03125 1.484374.828125 4.007812-.53125 5.628906-3.039063zm0 0" fill="#6b18b5" fill-rule="evenodd"/><path d="m368.761719 88.167969c2.550781-2.148438 3.542969-4.996094 2.21875-6.355469-1.328125-1.363281-4.464844-.730469-7.015625 1.421875-2.554688 2.152344-3.542969 5-2.222656 6.359375 1.324218 1.363281 4.46875.722656 7.019531-1.425781zm0 0" fill="#6b18b5" fill-rule="evenodd"/><path d="m331.683594 113.222656c2.390625-.121094 4.183594-1.308594 4.023437-2.65625-.164062-1.34375-2.230469-2.339844-4.613281-2.222656-2.386719.121094-4.183594 1.308594-4.023438 2.65625.164063 1.34375 2.230469 2.339844 4.613282 2.222656zm0 0" fill="#6b18b5" fill-rule="evenodd"/><path d="m376.574219 74.855469c1.621093-2.507813 1.726562-5.207031.242187-6.035157-1.488281-.828124-4.007812.535157-5.628906 3.039063-1.621094 2.511719-1.734375 5.210937-.246094 6.035156 1.488282.832031 4.011719-.53125 5.632813-3.039062zm0 0" fill="#6b18b5" fill-rule="evenodd"/><path d="m646.894531 150.914062s7.398438-11.707031 4.539063-22.726562-15.066406-3.230469-14.800782.6875c.261719 3.921875 7.882813 9.171875 8.347657 11.5625.464843 2.394531-.859375 9.753906 1.914062 10.476562zm0 0" fill="#ffd200" fill-rule="evenodd"/><path d="m646.894531 150.914062s7.398438-11.707031 4.539063-22.726562-15.066406-3.230469-14.800782.691406c.261719 3.917969 7.882813 9.167969 8.347657 11.5625.464843 2.390625-.859375 9.75 1.914062 10.472656zm0 0" fill="none" stroke="#ef8a10" stroke-width="1.007936"/><path d="m505.652344 53.546875s26.652344 1.03125 26.828125 18.285156c-.089844 2.667969-.003907 5.863281-.953125 13.539063 5.265625-2.847656 8.800781-10.78125 8.113281-15.871094.082031-17.507812-23.8125-29.5-33.988281-15.953125zm0 0" fill="#217900" fill-rule="evenodd"/><path d="m505.652344 53.542969s26.652344 1.035156 26.828125 18.289062c-.089844 2.671875-.003907 5.863281-.953125 13.539063 5.265625-2.847656 8.800781-10.78125 8.113281-15.867188.082031-17.511718-23.8125-29.503906-33.988281-15.960937zm0 0" fill="none" stroke="#000" stroke-width="2.418601"/><path d="m488.746094 52.769531s21.480468-4.488281 21.648437 12.761719c.175781 17.25-6.8125 20.011719-6.8125 20.011719s16.476563-3.535157 16.558594-21.046875c.089844-17.507813-21.214844-25.273438-31.394531-11.726563zm0 0" fill="#217900" fill-rule="evenodd"/><path d="m488.746094 52.769531s21.480468-4.488281 21.648437 12.761719c.175781 17.253906-6.8125 20.011719-6.8125 20.011719s16.476563-3.535157 16.558594-21.046875c.089844-17.507813-21.214844-25.273438-31.394531-11.726563zm0 0" fill="none" stroke="#000" stroke-width="2.418601"/><path d="m561.71875 424.929688s100.539062-28.398438 130.890625-151.78125c-17.625 126.648437-127.625 166.796874-127.625 166.796874zm0 0" fill="#f7df73" fill-rule="evenodd"/><path d="m561.71875 424.929688s100.539062-28.394532 130.890625-151.78125c-17.625 126.644531-127.625 166.796874-127.625 166.796874zm0 0" fill="none" stroke="#000" stroke-width="2.418601"/><path d="m572.027344 432.621094c3.109375 0 10.796875-8.503906 15.207031-9.484375 4.421875-.984375 4.910156-5.398438-.160156-5.5625-5.070313-.160157-9.488281 5.722656-9.488281 5.722656s-4.414063 3.761719-8.992188 4.25c-4.578125.496094-1.636719 6.21875 3.433594 5.074219zm0 0" fill="#8c1800" fill-rule="evenodd"/><path d="m629.921875 389.445312s-10.464844 6.046876-8.996094 7.523438c1.476563 1.46875 10.796875-5.730469 10.960938-5.890625.164062-.164063 3.921875-4.742187-1.964844-1.632813zm0 0" fill="#8c1800" fill-rule="evenodd" stroke="#8c1800" stroke-width="2.418601"/><path d="m593.453125 416.917969s-3.105469-1.140625 4.90625-4.25 7.523437-6.707031 10.140625-8.175781c2.617188-1.476563 8.175781-5.402344 9.324219-3.109376 1.140625 2.289063-5.890625 6.867188-7.527344 7.355469-1.632813.496094-9.648437 7.851563-11.9375 8.507813-2.289063.652344-3.925781.328125-4.90625-.328125zm0 0" fill="#8c1800" fill-rule="evenodd"/><path d="m645.457031 374.066406c-6.863281 7.691406-6.863281 7.523438-6.863281 7.523438" fill="none" stroke="#8c1800" stroke-width="3.144182"/><path d="m655.765625 361.476562-6.542969 8.015626" fill="none" stroke="#8c1800" stroke-width="2.902322"/><path d="m666.070312 345.121094-7.359374 11.777344" fill="none" stroke="#8c1800" stroke-width="2.660461"/><path d="m674.734375 328.4375-6.046875 12.105469" fill="none" stroke="#8c1800" stroke-width="2.418601"/><path d="m678.664062 319.609375-1.964843 4.253906" fill="none" stroke="#8c1800" stroke-width="2.418601"/><path d="m683.078125 307.996094-1.636719 5.070312" fill="none" stroke="#8c1800" stroke-width="1.451161"/><path d="m429.953125 422.261719s-99.613281-28.90625-129.6875-154.507813c17.464844 128.921875 126.453125 169.789063 126.453125 169.789063zm0 0" fill="#f7df73" fill-rule="evenodd"/><path d="m429.949219 422.261719s-99.605469-28.90625-129.6875-154.507813c17.46875 128.921875 126.457031 169.789063 126.457031 169.789063zm0 0" fill="none" stroke="#000" stroke-width="2.429038"/><path d="m419.742188 430.085938c-3.082032 0-10.695313-8.65625-15.074219-9.652344-4.375-1-4.859375-5.492188.164062-5.660156 5.023438-.167969 9.402344 5.828124 9.402344 5.828124s4.375 3.828126 8.910156 4.324219c4.535157.503907 1.621094 6.328125-3.402343 5.160157zm0 0" fill="#8c1800" fill-rule="evenodd"/><path d="m362.371094 386.136719s10.371094 6.160156 8.917968 7.65625c-1.460937 1.5-10.699218-5.824219-10.859374-5.992188-.160157-.164062-3.886719-4.828125 1.941406-1.664062zm0 0" fill="#8c1800" fill-rule="evenodd"/><path d="m362.375 386.136719s10.371094 6.15625 8.914062 7.65625c-1.460937 1.5-10.699218-5.824219-10.859374-5.992188-.160157-.164062-3.886719-4.828125 1.945312-1.664062zm0 0" fill="none" stroke="#8c1800" stroke-width="2.429038"/><path d="m398.511719 414.105469s3.078125-1.167969-4.859375-4.324219c-7.945313-3.164062-7.457032-6.828125-10.046875-8.328125-2.59375-1.496094-8.101563-5.492187-9.242188-3.160156-1.128906 2.328125 5.835938 6.988281 7.457031 7.488281 1.621094.503906 9.5625 7.992188 11.832032 8.65625 2.265625.671875 3.886718.335938 4.859375-.332031zm0 0" fill="#8c1800" fill-rule="evenodd"/><path d="m346.980469 370.488281c6.804687 7.820313 6.804687 7.65625 6.804687 7.65625" fill="none" stroke="#8c1800" stroke-width="3.157749"/><path d="m336.773438 357.667969 6.480468 8.15625" fill="none" stroke="#8c1800" stroke-width="2.914846"/><path d="m326.5625 341.019531 7.289062 11.988281" fill="none" stroke="#8c1800" stroke-width="2.671941"/><path d="m317.972656 324.039062 5.996094 12.316407" fill="none" stroke="#8c1800" stroke-width="2.429038"/><path d="m314.082031 315.042969 1.949219 4.332031" fill="none" stroke="#8c1800" stroke-width="2.429038"/><path d="m309.707031 303.222656 1.621094 5.160156" fill="none" stroke="#8c1800" stroke-width="1.457423"/><path d="m697.382812 250.4375c.492188 7.742188 8.066407 15.152344 5.101563 28.652344-3.78125 15.320312-17.125 51.707031-14.816406 58.132812-3.953125-5.433594-3.292969-10.542968-3.625-18.117187-.328125-7.574219 11.035156-35.730469 12.023437-45.28125 0-8.566407.824219-20.253907 1.316406-23.386719zm0 0" fill="#217900" fill-rule="evenodd"/><path d="m697.382812 250.441406c.492188 7.738282 8.066407 15.148438 5.101563 28.648438-3.78125 15.320312-17.125 51.707031-14.816406 58.132812-3.953125-5.433594-3.292969-10.542968-3.625-18.117187-.328125-7.570313 11.035156-35.730469 12.023437-45.28125 0-8.566407.824219-20.253907 1.316406-23.382813zm0 0" fill="none" stroke="#000" stroke-width="2.418601"/><path d="m697.382812 250.605469s12.347657 15.644531 11.691407 27.992187c-.660157 12.351563-7.574219 26.839844-5.269531 33.261719-3.949219-5.433594-4.941407-8.890625-5.269532-16.464844-.328125-7.570312 6.09375-15.972656 4.773438-24.203125-1.316406-8.238281-6.09375-20.585937-5.925782-20.585937zm0 0" fill="#217900" fill-rule="evenodd"/><path d="m697.382812 250.605469s12.347657 15.644531 11.691407 27.992187c-.660157 12.351563-7.574219 26.84375-5.269531 33.261719-3.949219-5.433594-4.941407-8.890625-5.269532-16.464844-.328125-7.570312 6.09375-15.972656 4.773438-24.203125-1.316406-8.238281-6.09375-20.585937-5.925782-20.585937zm0 0" fill="none" stroke="#000" stroke-width="2.418601"/><path d="m292.816406 254.0625c-.492187 7.738281-6.253906 14.65625-3.289062 28.160156 3.78125 15.3125 17.289062 34.746094 15.144531 56.972656 3.957031-5.433593 5.109375-11.523437 5.4375-19.101562.332031-7.574219-14.988281-33.097656-15.972656-42.648438 0-8.5625-.828125-20.253906-1.320313-23.382812zm0 0" fill="#217900" fill-rule="evenodd"/><path d="m292.816406 254.0625c-.492187 7.738281-6.253906 14.660156-3.289062 28.160156 3.78125 15.3125 17.289062 34.746094 15.144531 56.972656 3.957031-5.433593 5.109375-11.523437 5.4375-19.101562.332031-7.574219-14.988281-33.097656-15.972656-42.648438 0-8.5625-.828125-20.253906-1.320313-23.382812zm0 0" fill="none" stroke="#000" stroke-width="2.418601"/><path d="m292.816406 254.230469s-12.019531 15.148437-11.363281 27.5c.167969 8.230469 15.320313 42.644531 13.007813 49.066406 3.957031-5.429687 5.109374-4.777344 4.941406-13.007813-4.445313-21.074218-12.347656-34.582031-11.027344-42.8125 1.3125-8.234374 4.609375-20.746093 4.441406-20.746093zm0 0" fill="#217900" fill-rule="evenodd" stroke="#000" stroke-width="2.418601"/><path d="m498.1875 115.695312 29.921875 92.09375 96.820313.003907-78.324219 56.917969 29.914062 92.09375-78.332031-56.914063-78.328125 56.914063 29.914063-92.09375-78.328126-56.917969 96.820313-.003907zm0 0" fill="#fff" fill-rule="evenodd"/><path d="m498.1875 115.695312 29.921875 92.09375 96.824219.003907-78.328125 56.917969 29.914062 92.09375-78.332031-56.914063-78.328125 56.914063 29.914063-92.09375-78.328126-56.917969 96.820313-.003907zm0 0" fill="none" stroke="#000" stroke-linecap="round" stroke-width="2.015873"/></svg>