<svg viewBox="0 0 1000 500" xmlns="http://www.w3.org/2000/svg"><path d="m0 0h1000v500h-1000z" fill="#db161b"/><path d="m250 0h750v166.667969h-750zm0 0" fill="#fff" fill-rule="evenodd"/><path d="m250 333.332031h750v166.667969h-750zm0 0" fill="#008000" fill-rule="evenodd"/><path d="m57.558594 85.53125h26.863281c1.480469 0 2.679687 1.121094 2.679687 2.515625v12.652344c0 1.390625-1.199218 2.515625-2.679687 2.515625h-26.863281c-1.488282 0-2.683594-1.125-2.683594-2.515625v-12.652344c0-1.394531 1.195312-2.515625 2.683594-2.515625zm0 0" fill="#fff" fill-rule="evenodd" stroke="#db161b" stroke-width=".295135"/><path d="m58.242188 86.261719h25.488281c1.410156 0 2.546875 1.035156 2.546875 2.304687v11.605469c0 1.277344-1.136719 2.304687-2.546875 2.304687h-25.488281c-1.40625 0-2.539063-1.027343-2.539063-2.304687v-11.605469c0-1.269531 1.132813-2.304687 2.539063-2.304687zm0 0" fill="#fff" fill-rule="evenodd" stroke="#db161b" stroke-width=".275229"/><path d="m69.921875 90.691406 1.546875.046875.066406.703125 1.257813.640625.984375-.796875 1.199218.640625-1.125.703125.277344.96875 1.410156-.058594v1.292969l-1.125-.058593-.5625.808593 1.261719.917969-.984375.75-1.050781-.804688-1.542969.324219.070313 1.179688-1.683594.105469-.210937-1.132813-1.410157-.59375-.773437.816406-1.1875-.59375.703125-.921875-.839844-.585937h-1.195313l-.074218-1.667969 1.195312.105469.839844-.96875-.976562-.746094 1.261718-.863281.910156.699218 1.546876-.210937zm0 0" fill="#fff" fill-rule="evenodd" stroke="#db161b" stroke-width=".173762"/><path d="m72.085938 94.179688c0 .808593-.765626 1.457031-1.699219 1.457031-.9375 0-1.691407-.648438-1.691407-1.457031 0-.796876.753907-1.445313 1.691407-1.445313.933593 0 1.699219.648437 1.699219 1.445313zm0 0" fill="#fff" fill-rule="evenodd"/><path d="m72.085938 94.179688c0 .808593-.765626 1.457031-1.699219 1.457031-.9375 0-1.691407-.648438-1.691407-1.457031 0-.796876.753907-1.449219 1.691407-1.449219.933593 0 1.699219.652343 1.699219 1.449219zm0 0" fill="none" stroke="#db161b" stroke-width=".187121"/><path d="m59.839844 87.011719-2.484375 2.203125zm0 0" fill="#fff" fill-rule="evenodd"/><path d="m59.839844 87.011719-2.484375 2.203125" fill="none" stroke="#db161b" stroke-width=".275233"/><path d="m61.492188 87.011719-2.484376 2.203125zm0 0" fill="#fff" fill-rule="evenodd"/><path d="m61.492188 87.011719-2.484376 2.203125" fill="none" stroke="#db161b" stroke-width=".275233"/><path d="m63.144531 87.011719-2.484375 2.203125zm0 0" fill="#fff" fill-rule="evenodd"/><path d="m63.144531 87.011719-2.484375 2.203125" fill="none" stroke="#db161b" stroke-width=".275233"/><path d="m64.796875 87.011719-2.484375 2.203125zm0 0" fill="#fff" fill-rule="evenodd"/><path d="m64.796875 87.011719-2.484375 2.203125" fill="none" stroke="#db161b" stroke-width=".275233"/><path d="m66.449219 87.011719-2.484375 2.203125zm0 0" fill="#fff" fill-rule="evenodd"/><path d="m66.449219 87.011719-2.484375 2.203125" fill="none" stroke="#db161b" stroke-width=".275233"/><path d="m68.101562 87.011719-2.484374 2.203125zm0 0" fill="#fff" fill-rule="evenodd"/><path d="m68.101562 87.011719-2.484374 2.203125" fill="none" stroke="#db161b" stroke-width=".275233"/><path d="m69.75 87.011719-2.480469 2.203125zm0 0" fill="#fff" fill-rule="evenodd"/><path d="m69.75 87.011719-2.480469 2.203125" fill="none" stroke="#db161b" stroke-width=".275233"/><path d="m71.402344 87.011719-2.472656 2.203125zm0 0" fill="#fff" fill-rule="evenodd"/><path d="m71.402344 87.011719-2.472656 2.203125" fill="none" stroke="#db161b" stroke-width=".275233"/><path d="m73.054688 87.011719-2.472657 2.203125zm0 0" fill="#fff" fill-rule="evenodd"/><path d="m73.054688 87.011719-2.472657 2.203125" fill="none" stroke="#db161b" stroke-width=".275233"/><path d="m74.707031 87.011719-2.472656 2.203125zm0 0" fill="#fff" fill-rule="evenodd"/><path d="m74.707031 87.011719-2.472656 2.203125" fill="none" stroke="#db161b" stroke-width=".275233"/><path d="m76.359375 87.011719-2.472656 2.203125zm0 0" fill="#fff" fill-rule="evenodd"/><path d="m76.359375 87.011719-2.472656 2.203125" fill="none" stroke="#db161b" stroke-width=".275233"/><path d="m78.011719 87.011719-2.472657 2.203125zm0 0" fill="#fff" fill-rule="evenodd"/><path d="m78.011719 87.011719-2.472657 2.203125" fill="none" stroke="#db161b" stroke-width=".275233"/><path d="m71.402344 87.011719-2.472656 2.203125zm0 0" fill="#fff" fill-rule="evenodd"/><path d="m71.402344 87.011719-2.472656 2.203125" fill="none" stroke="#db161b" stroke-width=".275233"/><path d="m79.664062 87.011719-2.472656 2.203125zm0 0" fill="#fff" fill-rule="evenodd"/><path d="m79.664062 87.011719-2.472656 2.203125" fill="none" stroke="#db161b" stroke-width=".275233"/><path d="m81.316406 87.011719-2.476562 2.203125zm0 0" fill="#fff" fill-rule="evenodd"/><path d="m81.316406 87.011719-2.476562 2.203125" fill="none" stroke="#db161b" stroke-width=".275233"/><path d="m82.976562 87.011719-2.484374 2.203125zm0 0" fill="#fff" fill-rule="evenodd"/><path d="m82.976562 87.011719-2.484374 2.203125" fill="none" stroke="#db161b" stroke-width=".275233"/><path d="m84.628906 87.011719-2.484375 2.203125zm0 0" fill="#fff" fill-rule="evenodd"/><path d="m84.628906 87.011719-2.484375 2.203125" fill="none" stroke="#db161b" stroke-width=".275233"/><path d="m82.144531 87.011719 2.484375 2.203125zm0 0" fill="#fff" fill-rule="evenodd"/><path d="m82.144531 87.011719 2.484375 2.203125" fill="none" stroke="#db161b" stroke-width=".275233"/><path d="m80.492188 87.011719 2.484374 2.203125zm0 0" fill="#fff" fill-rule="evenodd"/><path d="m80.492188 87.011719 2.484374 2.203125" fill="none" stroke="#db161b" stroke-width=".275233"/><path d="m78.839844 87.011719 2.476562 2.203125zm0 0" fill="#fff" fill-rule="evenodd"/><path d="m78.839844 87.011719 2.476562 2.203125" fill="none" stroke="#db161b" stroke-width=".275233"/><path d="m77.191406 87.011719 2.472656 2.203125zm0 0" fill="#fff" fill-rule="evenodd"/><path d="m77.191406 87.011719 2.472656 2.203125" fill="none" stroke="#db161b" stroke-width=".275233"/><path d="m75.539062 87.011719 2.472657 2.203125zm0 0" fill="#fff" fill-rule="evenodd"/><path d="m75.539062 87.011719 2.472657 2.203125" fill="none" stroke="#db161b" stroke-width=".275233"/><path d="m73.886719 87.011719 2.472656 2.203125zm0 0" fill="#fff" fill-rule="evenodd"/><path d="m73.886719 87.011719 2.472656 2.203125" fill="none" stroke="#db161b" stroke-width=".275233"/><path d="m72.234375 87.011719 2.472656 2.203125zm0 0" fill="#fff" fill-rule="evenodd"/><path d="m72.234375 87.011719 2.472656 2.203125" fill="none" stroke="#db161b" stroke-width=".275233"/><path d="m70.582031 87.011719 2.472657 2.203125zm0 0" fill="#fff" fill-rule="evenodd"/><path d="m70.582031 87.011719 2.472657 2.203125" fill="none" stroke="#db161b" stroke-width=".275233"/><path d="m68.929688 87.011719 2.472656 2.203125zm0 0" fill="#fff" fill-rule="evenodd"/><path d="m68.929688 87.011719 2.472656 2.203125" fill="none" stroke="#db161b" stroke-width=".275233"/><path d="m67.269531 87.011719 2.480469 2.203125zm0 0" fill="#fff" fill-rule="evenodd"/><path d="m67.269531 87.011719 2.480469 2.203125" fill="none" stroke="#db161b" stroke-width=".275233"/><path d="m65.617188 87.011719 2.484374 2.203125zm0 0" fill="#fff" fill-rule="evenodd"/><path d="m65.617188 87.011719 2.484374 2.203125" fill="none" stroke="#db161b" stroke-width=".275233"/><path d="m63.964844 87.011719 2.484375 2.203125zm0 0" fill="#fff" fill-rule="evenodd"/><path d="m63.964844 87.011719 2.484375 2.203125" fill="none" stroke="#db161b" stroke-width=".275233"/><path d="m70.582031 87.011719 2.472657 2.203125zm0 0" fill="#fff" fill-rule="evenodd"/><path d="m70.582031 87.011719 2.472657 2.203125" fill="none" stroke="#db161b" stroke-width=".275233"/><path d="m62.3125 87.011719 2.484375 2.203125zm0 0" fill="#fff" fill-rule="evenodd"/><path d="m62.3125 87.011719 2.484375 2.203125" fill="none" stroke="#db161b" stroke-width=".275233"/><path d="m60.660156 87.011719 2.484375 2.203125zm0 0" fill="#fff" fill-rule="evenodd"/><path d="m60.660156 87.011719 2.484375 2.203125" fill="none" stroke="#db161b" stroke-width=".275233"/><path d="m59.007812 87.011719 2.484376 2.203125zm0 0" fill="#fff" fill-rule="evenodd"/><path d="m59.007812 87.011719 2.484376 2.203125" fill="none" stroke="#db161b" stroke-width=".275233"/><path d="m57.355469 87.011719 2.484375 2.203125zm0 0" fill="#fff" fill-rule="evenodd"/><path d="m57.355469 87.011719 2.484375 2.203125" fill="none" stroke="#db161b" stroke-width=".275233"/><path d="m59.839844 99.527344-2.484375 2.214844zm0 0" fill="#fff" fill-rule="evenodd"/><path d="m59.839844 99.527344-2.484375 2.214844" fill="none" stroke="#db161b" stroke-width=".275233"/><path d="m61.492188 99.527344-2.484376 2.214844zm0 0" fill="#fff" fill-rule="evenodd"/><path d="m61.492188 99.527344-2.484376 2.214844" fill="none" stroke="#db161b" stroke-width=".275233"/><path d="m63.144531 99.527344-2.484375 2.214844zm0 0" fill="#fff" fill-rule="evenodd"/><path d="m63.144531 99.527344-2.484375 2.214844" fill="none" stroke="#db161b" stroke-width=".275233"/><path d="m64.796875 99.527344-2.484375 2.214844zm0 0" fill="#fff" fill-rule="evenodd"/><path d="m64.796875 99.527344-2.484375 2.214844" fill="none" stroke="#db161b" stroke-width=".275233"/><path d="m66.449219 99.527344-2.484375 2.214844zm0 0" fill="#fff" fill-rule="evenodd"/><path d="m66.449219 99.527344-2.484375 2.214844" fill="none" stroke="#db161b" stroke-width=".275233"/><path d="m68.101562 99.527344-2.484374 2.214844zm0 0" fill="#fff" fill-rule="evenodd"/><path d="m68.101562 99.527344-2.484374 2.214844" fill="none" stroke="#db161b" stroke-width=".275233"/><path d="m69.75 99.527344-2.480469 2.214844zm0 0" fill="#fff" fill-rule="evenodd"/><path d="m69.75 99.527344-2.480469 2.214844" fill="none" stroke="#db161b" stroke-width=".275233"/><path d="m71.402344 99.527344-2.472656 2.214844zm0 0" fill="#fff" fill-rule="evenodd"/><path d="m71.402344 99.527344-2.472656 2.214844" fill="none" stroke="#db161b" stroke-width=".275233"/><path d="m73.054688 99.527344-2.472657 2.214844zm0 0" fill="#fff" fill-rule="evenodd"/><path d="m73.054688 99.527344-2.472657 2.214844" fill="none" stroke="#db161b" stroke-width=".275233"/><path d="m74.707031 99.527344-2.472656 2.214844zm0 0" fill="#fff" fill-rule="evenodd"/><path d="m74.707031 99.527344-2.472656 2.214844" fill="none" stroke="#db161b" stroke-width=".275233"/><path d="m76.359375 99.527344-2.472656 2.214844zm0 0" fill="#fff" fill-rule="evenodd"/><path d="m76.359375 99.527344-2.472656 2.214844" fill="none" stroke="#db161b" stroke-width=".275233"/><path d="m78.011719 99.527344-2.472657 2.214844zm0 0" fill="#fff" fill-rule="evenodd"/><path d="m78.011719 99.527344-2.472657 2.214844" fill="none" stroke="#db161b" stroke-width=".275233"/><path d="m71.402344 99.527344-2.472656 2.214844zm0 0" fill="#fff" fill-rule="evenodd"/><path d="m71.402344 99.527344-2.472656 2.214844" fill="none" stroke="#db161b" stroke-width=".275233"/><path d="m79.664062 99.527344-2.472656 2.214844zm0 0" fill="#fff" fill-rule="evenodd"/><path d="m79.664062 99.527344-2.472656 2.214844" fill="none" stroke="#db161b" stroke-width=".275233"/><path d="m81.316406 99.527344-2.476562 2.214844zm0 0" fill="#fff" fill-rule="evenodd"/><path d="m81.316406 99.527344-2.476562 2.214844" fill="none" stroke="#db161b" stroke-width=".275233"/><path d="m82.976562 99.527344-2.484374 2.214844zm0 0" fill="#fff" fill-rule="evenodd"/><path d="m82.976562 99.527344-2.484374 2.214844" fill="none" stroke="#db161b" stroke-width=".275233"/><path d="m84.628906 99.527344-2.484375 2.214844zm0 0" fill="#fff" fill-rule="evenodd"/><path d="m84.628906 99.527344-2.484375 2.214844" fill="none" stroke="#db161b" stroke-width=".275233"/><path d="m82.144531 99.527344 2.484375 2.214844zm0 0" fill="#fff" fill-rule="evenodd"/><path d="m82.144531 99.527344 2.484375 2.214844" fill="none" stroke="#db161b" stroke-width=".275233"/><path d="m80.492188 99.527344 2.484374 2.214844zm0 0" fill="#fff" fill-rule="evenodd"/><path d="m80.492188 99.527344 2.484374 2.214844" fill="none" stroke="#db161b" stroke-width=".275233"/><path d="m78.839844 99.527344 2.476562 2.214844zm0 0" fill="#fff" fill-rule="evenodd"/><path d="m78.839844 99.527344 2.476562 2.214844" fill="none" stroke="#db161b" stroke-width=".275233"/><path d="m77.191406 99.527344 2.472656 2.214844zm0 0" fill="#fff" fill-rule="evenodd"/><path d="m77.191406 99.527344 2.472656 2.214844" fill="none" stroke="#db161b" stroke-width=".275233"/><path d="m75.539062 99.527344 2.472657 2.214844zm0 0" fill="#fff" fill-rule="evenodd"/><path d="m75.539062 99.527344 2.472657 2.214844" fill="none" stroke="#db161b" stroke-width=".275233"/><path d="m73.886719 99.527344 2.472656 2.214844zm0 0" fill="#fff" fill-rule="evenodd"/><path d="m73.886719 99.527344 2.472656 2.214844" fill="none" stroke="#db161b" stroke-width=".275233"/><path d="m72.234375 99.527344 2.472656 2.214844zm0 0" fill="#fff" fill-rule="evenodd"/><path d="m72.234375 99.527344 2.472656 2.214844" fill="none" stroke="#db161b" stroke-width=".275233"/><path d="m70.582031 99.527344 2.472657 2.214844zm0 0" fill="#fff" fill-rule="evenodd"/><path d="m70.582031 99.527344 2.472657 2.214844" fill="none" stroke="#db161b" stroke-width=".275233"/><path d="m68.929688 99.527344 2.472656 2.214844zm0 0" fill="#fff" fill-rule="evenodd"/><path d="m68.929688 99.527344 2.472656 2.214844" fill="none" stroke="#db161b" stroke-width=".275233"/><path d="m67.269531 99.527344 2.480469 2.214844zm0 0" fill="#fff" fill-rule="evenodd"/><path d="m67.269531 99.527344 2.480469 2.214844" fill="none" stroke="#db161b" stroke-width=".275233"/><path d="m65.617188 99.527344 2.484374 2.214844zm0 0" fill="#fff" fill-rule="evenodd"/><path d="m65.617188 99.527344 2.484374 2.214844" fill="none" stroke="#db161b" stroke-width=".275233"/><path d="m63.964844 99.527344 2.484375 2.214844zm0 0" fill="#fff" fill-rule="evenodd"/><path d="m63.964844 99.527344 2.484375 2.214844" fill="none" stroke="#db161b" stroke-width=".275233"/><path d="m70.582031 99.527344 2.472657 2.214844zm0 0" fill="#fff" fill-rule="evenodd"/><path d="m70.582031 99.527344 2.472657 2.214844" fill="none" stroke="#db161b" stroke-width=".275233"/><path d="m62.3125 99.527344 2.484375 2.214844zm0 0" fill="#fff" fill-rule="evenodd"/><path d="m62.3125 99.527344 2.484375 2.214844" fill="none" stroke="#db161b" stroke-width=".275233"/><path d="m60.660156 99.527344 2.484375 2.214844zm0 0" fill="#fff" fill-rule="evenodd"/><path d="m60.660156 99.527344 2.484375 2.214844" fill="none" stroke="#db161b" stroke-width=".275233"/><path d="m59.007812 99.527344 2.484376 2.214844zm0 0" fill="#fff" fill-rule="evenodd"/><path d="m59.007812 99.527344 2.484376 2.214844" fill="none" stroke="#db161b" stroke-width=".275233"/><path d="m57.355469 99.527344 2.484375 2.214844zm0 0" fill="#fff" fill-rule="evenodd"/><path d="m57.355469 99.527344 2.484375 2.214844" fill="none" stroke="#db161b" stroke-width=".275233"/><path d="m192.441406 85.53125h-26.863281c-1.480469 0-2.679687 1.121094-2.679687 2.515625v12.652344c0 1.390625 1.199218 2.515625 2.679687 2.515625h26.863281c1.488282 0 2.683594-1.125 2.683594-2.515625v-12.652344c0-1.394531-1.195312-2.515625-2.683594-2.515625zm0 0" fill="#fff" fill-rule="evenodd" stroke="#db161b" stroke-width=".295135"/><path d="m191.757812 86.261719h-25.488281c-1.410156 0-2.546875 1.035156-2.546875 2.304687v11.605469c0 1.277344 1.136719 2.304687 2.546875 2.304687h25.488281c1.40625 0 2.539063-1.027343 2.539063-2.304687v-11.605469c0-1.269531-1.132813-2.304687-2.539063-2.304687zm0 0" fill="#fff" fill-rule="evenodd" stroke="#db161b" stroke-width=".275229"/><path d="m180.078125 90.691406-1.546875.046875-.066406.703125-1.257813.640625-.984375-.796875-1.199218.640625 1.125.703125-.277344.96875-1.410156-.058594v1.292969l1.125-.058593.5625.808593-1.261719.917969.984375.75 1.050781-.804688 1.542969.324219-.070313 1.179688 1.683594.105469.210937-1.132813 1.410157-.59375.773437.816406 1.1875-.59375-.703125-.921875.839844-.585937h1.195313l.074218-1.667969-1.195312.105469-.839844-.96875.976562-.746094-1.261718-.863281-.910156.699218-1.546876-.210937zm0 0" fill="#fff" fill-rule="evenodd" stroke="#db161b" stroke-width=".173762"/><path d="m177.914062 94.179688c0 .808593.765626 1.457031 1.699219 1.457031.9375 0 1.691407-.648438 1.691407-1.457031 0-.796876-.753907-1.445313-1.691407-1.445313-.933593 0-1.699219.648437-1.699219 1.445313zm0 0" fill="#fff" fill-rule="evenodd"/><path d="m177.914062 94.179688c0 .808593.765626 1.457031 1.699219 1.457031.9375 0 1.691407-.648438 1.691407-1.457031 0-.796876-.753907-1.449219-1.691407-1.449219-.933593 0-1.699219.652343-1.699219 1.449219zm0 0" fill="none" stroke="#db161b" stroke-width=".187121"/><path d="m190.160156 87.011719 2.484375 2.203125zm0 0" fill="#fff" fill-rule="evenodd"/><path d="m190.160156 87.011719 2.484375 2.203125" fill="none" stroke="#db161b" stroke-width=".275233"/><path d="m188.507812 87.011719 2.484376 2.203125zm0 0" fill="#fff" fill-rule="evenodd"/><path d="m188.507812 87.011719 2.484376 2.203125" fill="none" stroke="#db161b" stroke-width=".275233"/><path d="m186.855469 87.011719 2.484375 2.203125zm0 0" fill="#fff" fill-rule="evenodd"/><path d="m186.855469 87.011719 2.484375 2.203125" fill="none" stroke="#db161b" stroke-width=".275233"/><path d="m185.203125 87.011719 2.484375 2.203125zm0 0" fill="#fff" fill-rule="evenodd"/><path d="m185.203125 87.011719 2.484375 2.203125" fill="none" stroke="#db161b" stroke-width=".275233"/><path d="m183.550781 87.011719 2.484375 2.203125zm0 0" fill="#fff" fill-rule="evenodd"/><path d="m183.550781 87.011719 2.484375 2.203125" fill="none" stroke="#db161b" stroke-width=".275233"/><path d="m181.898438 87.011719 2.484374 2.203125zm0 0" fill="#fff" fill-rule="evenodd"/><path d="m181.898438 87.011719 2.484374 2.203125" fill="none" stroke="#db161b" stroke-width=".275233"/><path d="m180.25 87.011719 2.480469 2.203125zm0 0" fill="#fff" fill-rule="evenodd"/><path d="m180.25 87.011719 2.480469 2.203125" fill="none" stroke="#db161b" stroke-width=".275233"/><path d="m178.597656 87.011719 2.472656 2.203125zm0 0" fill="#fff" fill-rule="evenodd"/><path d="m178.597656 87.011719 2.472656 2.203125" fill="none" stroke="#db161b" stroke-width=".275233"/><path d="m176.945312 87.011719 2.472657 2.203125zm0 0" fill="#fff" fill-rule="evenodd"/><path d="m176.945312 87.011719 2.472657 2.203125" fill="none" stroke="#db161b" stroke-width=".275233"/><path d="m175.292969 87.011719 2.472656 2.203125zm0 0" fill="#fff" fill-rule="evenodd"/><path d="m175.292969 87.011719 2.472656 2.203125" fill="none" stroke="#db161b" stroke-width=".275233"/><path d="m173.640625 87.011719 2.472656 2.203125zm0 0" fill="#fff" fill-rule="evenodd"/><path d="m173.640625 87.011719 2.472656 2.203125" fill="none" stroke="#db161b" stroke-width=".275233"/><path d="m171.988281 87.011719 2.472657 2.203125zm0 0" fill="#fff" fill-rule="evenodd"/><path d="m171.988281 87.011719 2.472657 2.203125" fill="none" stroke="#db161b" stroke-width=".275233"/><path d="m178.597656 87.011719 2.472656 2.203125zm0 0" fill="#fff" fill-rule="evenodd"/><path d="m178.597656 87.011719 2.472656 2.203125" fill="none" stroke="#db161b" stroke-width=".275233"/><path d="m170.335938 87.011719 2.472656 2.203125zm0 0" fill="#fff" fill-rule="evenodd"/><path d="m170.335938 87.011719 2.472656 2.203125" fill="none" stroke="#db161b" stroke-width=".275233"/><path d="m168.683594 87.011719 2.476562 2.203125zm0 0" fill="#fff" fill-rule="evenodd"/><path d="m168.683594 87.011719 2.476562 2.203125" fill="none" stroke="#db161b" stroke-width=".275233"/><path d="m167.023438 87.011719 2.484374 2.203125zm0 0" fill="#fff" fill-rule="evenodd"/><path d="m167.023438 87.011719 2.484374 2.203125" fill="none" stroke="#db161b" stroke-width=".275233"/><path d="m165.371094 87.011719 2.484375 2.203125zm0 0" fill="#fff" fill-rule="evenodd"/><path d="m165.371094 87.011719 2.484375 2.203125" fill="none" stroke="#db161b" stroke-width=".275233"/><path d="m167.855469 87.011719-2.484375 2.203125zm0 0" fill="#fff" fill-rule="evenodd"/><path d="m167.855469 87.011719-2.484375 2.203125" fill="none" stroke="#db161b" stroke-width=".275233"/><path d="m169.507812 87.011719-2.484374 2.203125zm0 0" fill="#fff" fill-rule="evenodd"/><path d="m169.507812 87.011719-2.484374 2.203125" fill="none" stroke="#db161b" stroke-width=".275233"/><path d="m171.160156 87.011719-2.476562 2.203125zm0 0" fill="#fff" fill-rule="evenodd"/><path d="m171.160156 87.011719-2.476562 2.203125" fill="none" stroke="#db161b" stroke-width=".275233"/><path d="m172.808594 87.011719-2.472656 2.203125zm0 0" fill="#fff" fill-rule="evenodd"/><path d="m172.808594 87.011719-2.472656 2.203125" fill="none" stroke="#db161b" stroke-width=".275233"/><path d="m174.460938 87.011719-2.472657 2.203125zm0 0" fill="#fff" fill-rule="evenodd"/><path d="m174.460938 87.011719-2.472657 2.203125" fill="none" stroke="#db161b" stroke-width=".275233"/><path d="m176.113281 87.011719-2.472656 2.203125zm0 0" fill="#fff" fill-rule="evenodd"/><path d="m176.113281 87.011719-2.472656 2.203125" fill="none" stroke="#db161b" stroke-width=".275233"/><path d="m177.765625 87.011719-2.472656 2.203125zm0 0" fill="#fff" fill-rule="evenodd"/><path d="m177.765625 87.011719-2.472656 2.203125" fill="none" stroke="#db161b" stroke-width=".275233"/><path d="m179.417969 87.011719-2.472657 2.203125zm0 0" fill="#fff" fill-rule="evenodd"/><path d="m179.417969 87.011719-2.472657 2.203125" fill="none" stroke="#db161b" stroke-width=".275233"/><path d="m181.070312 87.011719-2.472656 2.203125zm0 0" fill="#fff" fill-rule="evenodd"/><path d="m181.070312 87.011719-2.472656 2.203125" fill="none" stroke="#db161b" stroke-width=".275233"/><path d="m182.730469 87.011719-2.480469 2.203125zm0 0" fill="#fff" fill-rule="evenodd"/><path d="m182.730469 87.011719-2.480469 2.203125" fill="none" stroke="#db161b" stroke-width=".275233"/><path d="m184.382812 87.011719-2.484374 2.203125zm0 0" fill="#fff" fill-rule="evenodd"/><path d="m184.382812 87.011719-2.484374 2.203125" fill="none" stroke="#db161b" stroke-width=".275233"/><path d="m186.035156 87.011719-2.484375 2.203125zm0 0" fill="#fff" fill-rule="evenodd"/><path d="m186.035156 87.011719-2.484375 2.203125" fill="none" stroke="#db161b" stroke-width=".275233"/><path d="m179.417969 87.011719-2.472657 2.203125zm0 0" fill="#fff" fill-rule="evenodd"/><path d="m179.417969 87.011719-2.472657 2.203125" fill="none" stroke="#db161b" stroke-width=".275233"/><path d="m187.6875 87.011719-2.484375 2.203125zm0 0" fill="#fff" fill-rule="evenodd"/><path d="m187.6875 87.011719-2.484375 2.203125" fill="none" stroke="#db161b" stroke-width=".275233"/><path d="m189.339844 87.011719-2.484375 2.203125zm0 0" fill="#fff" fill-rule="evenodd"/><path d="m189.339844 87.011719-2.484375 2.203125" fill="none" stroke="#db161b" stroke-width=".275233"/><path d="m190.992188 87.011719-2.484376 2.203125zm0 0" fill="#fff" fill-rule="evenodd"/><path d="m190.992188 87.011719-2.484376 2.203125" fill="none" stroke="#db161b" stroke-width=".275233"/><path d="m192.644531 87.011719-2.484375 2.203125zm0 0" fill="#fff" fill-rule="evenodd"/><path d="m192.644531 87.011719-2.484375 2.203125" fill="none" stroke="#db161b" stroke-width=".275233"/><path d="m190.160156 99.527344 2.484375 2.214844zm0 0" fill="#fff" fill-rule="evenodd"/><path d="m190.160156 99.527344 2.484375 2.214844" fill="none" stroke="#db161b" stroke-width=".275233"/><path d="m188.507812 99.527344 2.484376 2.214844zm0 0" fill="#fff" fill-rule="evenodd"/><path d="m188.507812 99.527344 2.484376 2.214844" fill="none" stroke="#db161b" stroke-width=".275233"/><path d="m186.855469 99.527344 2.484375 2.214844zm0 0" fill="#fff" fill-rule="evenodd"/><path d="m186.855469 99.527344 2.484375 2.214844" fill="none" stroke="#db161b" stroke-width=".275233"/><path d="m185.203125 99.527344 2.484375 2.214844zm0 0" fill="#fff" fill-rule="evenodd"/><path d="m185.203125 99.527344 2.484375 2.214844" fill="none" stroke="#db161b" stroke-width=".275233"/><path d="m183.550781 99.527344 2.484375 2.214844zm0 0" fill="#fff" fill-rule="evenodd"/><path d="m183.550781 99.527344 2.484375 2.214844" fill="none" stroke="#db161b" stroke-width=".275233"/><path d="m181.898438 99.527344 2.484374 2.214844zm0 0" fill="#fff" fill-rule="evenodd"/><path d="m181.898438 99.527344 2.484374 2.214844" fill="none" stroke="#db161b" stroke-width=".275233"/><path d="m180.25 99.527344 2.480469 2.214844zm0 0" fill="#fff" fill-rule="evenodd"/><path d="m180.25 99.527344 2.480469 2.214844" fill="none" stroke="#db161b" stroke-width=".275233"/><path d="m178.597656 99.527344 2.472656 2.214844zm0 0" fill="#fff" fill-rule="evenodd"/><path d="m178.597656 99.527344 2.472656 2.214844" fill="none" stroke="#db161b" stroke-width=".275233"/><path d="m176.945312 99.527344 2.472657 2.214844zm0 0" fill="#fff" fill-rule="evenodd"/><path d="m176.945312 99.527344 2.472657 2.214844" fill="none" stroke="#db161b" stroke-width=".275233"/><path d="m175.292969 99.527344 2.472656 2.214844zm0 0" fill="#fff" fill-rule="evenodd"/><path d="m175.292969 99.527344 2.472656 2.214844" fill="none" stroke="#db161b" stroke-width=".275233"/><path d="m173.640625 99.527344 2.472656 2.214844zm0 0" fill="#fff" fill-rule="evenodd"/><path d="m173.640625 99.527344 2.472656 2.214844" fill="none" stroke="#db161b" stroke-width=".275233"/><path d="m171.988281 99.527344 2.472657 2.214844zm0 0" fill="#fff" fill-rule="evenodd"/><path d="m171.988281 99.527344 2.472657 2.214844" fill="none" stroke="#db161b" stroke-width=".275233"/><path d="m178.597656 99.527344 2.472656 2.214844zm0 0" fill="#fff" fill-rule="evenodd"/><path d="m178.597656 99.527344 2.472656 2.214844" fill="none" stroke="#db161b" stroke-width=".275233"/><path d="m170.335938 99.527344 2.472656 2.214844zm0 0" fill="#fff" fill-rule="evenodd"/><path d="m170.335938 99.527344 2.472656 2.214844" fill="none" stroke="#db161b" stroke-width=".275233"/><path d="m168.683594 99.527344 2.476562 2.214844zm0 0" fill="#fff" fill-rule="evenodd"/><path d="m168.683594 99.527344 2.476562 2.214844" fill="none" stroke="#db161b" stroke-width=".275233"/><path d="m167.023438 99.527344 2.484374 2.214844zm0 0" fill="#fff" fill-rule="evenodd"/><path d="m167.023438 99.527344 2.484374 2.214844" fill="none" stroke="#db161b" stroke-width=".275233"/><path d="m165.371094 99.527344 2.484375 2.214844zm0 0" fill="#fff" fill-rule="evenodd"/><path d="m165.371094 99.527344 2.484375 2.214844" fill="none" stroke="#db161b" stroke-width=".275233"/><path d="m167.855469 99.527344-2.484375 2.214844zm0 0" fill="#fff" fill-rule="evenodd"/><path d="m167.855469 99.527344-2.484375 2.214844" fill="none" stroke="#db161b" stroke-width=".275233"/><path d="m169.507812 99.527344-2.484374 2.214844zm0 0" fill="#fff" fill-rule="evenodd"/><path d="m169.507812 99.527344-2.484374 2.214844" fill="none" stroke="#db161b" stroke-width=".275233"/><path d="m171.160156 99.527344-2.476562 2.214844zm0 0" fill="#fff" fill-rule="evenodd"/><path d="m171.160156 99.527344-2.476562 2.214844" fill="none" stroke="#db161b" stroke-width=".275233"/><path d="m172.808594 99.527344-2.472656 2.214844zm0 0" fill="#fff" fill-rule="evenodd"/><path d="m172.808594 99.527344-2.472656 2.214844" fill="none" stroke="#db161b" stroke-width=".275233"/><path d="m174.460938 99.527344-2.472657 2.214844zm0 0" fill="#fff" fill-rule="evenodd"/><path d="m174.460938 99.527344-2.472657 2.214844" fill="none" stroke="#db161b" stroke-width=".275233"/><path d="m176.113281 99.527344-2.472656 2.214844zm0 0" fill="#fff" fill-rule="evenodd"/><path d="m176.113281 99.527344-2.472656 2.214844" fill="none" stroke="#db161b" stroke-width=".275233"/><path d="m177.765625 99.527344-2.472656 2.214844zm0 0" fill="#fff" fill-rule="evenodd"/><path d="m177.765625 99.527344-2.472656 2.214844" fill="none" stroke="#db161b" stroke-width=".275233"/><path d="m179.417969 99.527344-2.472657 2.214844zm0 0" fill="#fff" fill-rule="evenodd"/><path d="m179.417969 99.527344-2.472657 2.214844" fill="none" stroke="#db161b" stroke-width=".275233"/><path d="m181.070312 99.527344-2.472656 2.214844zm0 0" fill="#fff" fill-rule="evenodd"/><path d="m181.070312 99.527344-2.472656 2.214844" fill="none" stroke="#db161b" stroke-width=".275233"/><path d="m182.730469 99.527344-2.480469 2.214844zm0 0" fill="#fff" fill-rule="evenodd"/><path d="m182.730469 99.527344-2.480469 2.214844" fill="none" stroke="#db161b" stroke-width=".275233"/><path d="m184.382812 99.527344-2.484374 2.214844zm0 0" fill="#fff" fill-rule="evenodd"/><path d="m184.382812 99.527344-2.484374 2.214844" fill="none" stroke="#db161b" stroke-width=".275233"/><path d="m186.035156 99.527344-2.484375 2.214844zm0 0" fill="#fff" fill-rule="evenodd"/><path d="m186.035156 99.527344-2.484375 2.214844" fill="none" stroke="#db161b" stroke-width=".275233"/><path d="m179.417969 99.527344-2.472657 2.214844zm0 0" fill="#fff" fill-rule="evenodd"/><path d="m179.417969 99.527344-2.472657 2.214844" fill="none" stroke="#db161b" stroke-width=".275233"/><path d="m187.6875 99.527344-2.484375 2.214844zm0 0" fill="#fff" fill-rule="evenodd"/><path d="m187.6875 99.527344-2.484375 2.214844" fill="none" stroke="#db161b" stroke-width=".275233"/><path d="m189.339844 99.527344-2.484375 2.214844zm0 0" fill="#fff" fill-rule="evenodd"/><path d="m189.339844 99.527344-2.484375 2.214844" fill="none" stroke="#db161b" stroke-width=".275233"/><path d="m190.992188 99.527344-2.484376 2.214844zm0 0" fill="#fff" fill-rule="evenodd"/><path d="m190.992188 99.527344-2.484376 2.214844" fill="none" stroke="#db161b" stroke-width=".275233"/><path d="m192.644531 99.527344-2.484375 2.214844zm0 0" fill="#fff" fill-rule="evenodd"/><g stroke="#db161b"><path d="m192.644531 99.527344-2.484375 2.214844" fill="none" stroke-width=".275233"/><path d="m105.425781 122.601562c-40.09375 39.207032-57.199219 44.164063-49.175781 47.320313 8.03125 3.15625 33.847656-17.074219 60.71875-43.953125 26.863281-26.882812 43.320312-50.796875 35.292969-53.957031-8.03125-3.164063-4.199219 8.878906-46.835938 50.589843zm0 0" fill="#fff" fill-rule="evenodd" stroke-width=".441333"/><path d="m71.671875 151.089844 14.046875 3.6875c-13.214844 12.523437-28.09375 17.683594-32.21875 15.46875-4.136719-2.203125 7.429688-7.363282 18.171875-19.15625zm0 0" fill="#fff" fill-rule="evenodd" stroke-width=".275233"/><path d="m71.671875 152.5625 11.570313 2.953125c-12.882813 12.046875-25.617188 15.464844-28.914063 14-3.3125-1.472656 6.878906-5.617187 17.34375-16.953125zm0 0" fill="#fff" fill-rule="evenodd" stroke-width=".275233"/><path d="m114.828125 120.882812c-.03125.195313-.128906 1.035157-.210937 1.367188 0 .460938-.050782.8125-.097657 1.179688-.140625.316406-.117187.609374-.523437.734374-.265625.378907-.445313.476563-.8125.632813-.253906.195313-.636719.390625-1.035156.542969-.40625.15625-.78125.171875-1.226563.089844-.367187-.21875-.621094-.445313-.917969-.632813-.074218-.285156-.140625-.714844-.214844-.992187.113282.28125.195313.753906.214844 1.171874-.042968.453126-.214844.660157-.410156 1" fill="none" stroke-width=".275233"/><path d="m111.027344 126.976562c-.035156-.023437-.066406-.054687-.105469-.097656.242187.222656.144531.125-.414063-.171875-.394531-.1875-.816406-.28125-1.335937-.363281h-1.433594c-.554687 0-.925781.074219-1.335937.175781-.28125.261719-.722656.410157-1.015625.636719-.316407.195312-.457031.414062-.617188.726562-.285156.25-.472656.632813-.726562.828126-.113281.414062-.347657.398437-.511719.722656.488281.035156.878906.089844 1.121094.359375.441406.195312-.355469-.195313-.503906-.359375-.339844-.085938-.421876-.1875-.925782-.1875-.464844-.128906-.746094.117187-1.230468.1875-.277344.140625-.355469.179687-.714844.179687" fill="none" stroke-width=".275233"/><path d="m105.484375 131.527344c-.210937.007812-1.171875.164062-1.542969 0-.417968-.097656-.671875-.300782-.921875-.644532-.128906-.242187 0 .441407 0 .734376-.039062.535156-.226562.546874-.511719.910156-.300781.164062-.621093.40625-.921874.539062-.257813.203125-.578126.332032-.925782.460938-.308594.121094-.675781.253906-.929687.449218-.339844.210938-.308594.480469-.503907.8125.035157.449219.113282.699219.40625.921876.113282.300781.390626.609374.621094.8125.242188.414062.527344.609374-.117187.722656-.347657.140625-.535157.027344-.910157 0" fill="none" stroke-width=".275233"/><path d="m99.015625 137.882812c-.253906-.050781-1.148437-.316406-1.539063-.449218h-1.429687c-.5625.03125-.667969.179687-1.140625.359375-.300781.277343-.507812.464843-.921875.640625-.21875.246094-.648437.675781-.820313 1.003906-.121093.300781-.203124.722656-.203124 1.179688.007812.519531.160156.617187.203124 1.089843.121094.382813.300782.742188.621094 1.082031.039063.125.070313.15625.199219.1875" fill="none" stroke-width=".275233"/><path d="m94.125 144.164062c-.042969 0-.140625.234376-.292969.433594-.324219.332032-.367187.355469-.871093.355469-.457032-.015625-.40625-.167969-.726563-.285156-.152344-.226563-.339844-.414063-.511719-.714844-.113281-.1875-.21875-.480469-.363281-.644531-.132813-.21875-.304687-.375-.441406-.574219-.140625-.058594-.1875-.117187-.359375-.140625.417968.066406.449218.203125.726562.421875.121094.207031.257813.417969.363282.652344.042968.308593.140624.546875.140624.929687 0 .398438 0 .671875-.140624 1-.175782.1875-.296876.363282-.511719.511719-.171875.15625-.382813.375-.511719.5625-.226562.148437-.390625.257813-.648438.4375-.230468.125-.457031.253906-.800781.292969-.429687-.039063-.5625-.152344-.878906-.292969-.269531-.199219-.488281-.324219-.730469-.503906-.1875-.128907-.382812-.390625-.507812-.566407-.386719-.109374-.640625-.066406-.878906.136719-.195313.128907-.371094.308594-.503907.496094-.128906.066406-.316406.238281-.445312.292969" fill="none" stroke-width=".275235"/><path d="m86.101562 147.136719c.113282.046875.535157.339843.722657.445312.113281.375.300781.585938.359375.984375.097656.390625.089844.816406.089844 1.253906-.097657.464844-.285157.796876-.449219 1.164063-.292969.195313-.429688.335937-.8125.535156-.359375.058594-.71875.097657-1.179688.097657-.277343.089843-.816406.132812-1.09375 0-.398437-.0625-.699219-.21875-.992187-.355469-.332032-.195313-.542969-.367188-.910156-.546875-.171876-.257813-.449219-.488282-.714844-.804688-.230469-.300781-.398438-.472656-.546875-.804687.128906.390625.335937.714843.449219 1.082031.210937.375.324218.511719.363281.976562.125.375.089843.828126.089843 1.253907-.039062.292969-.054687.835937-.179687 1.074219v.277343" fill="none" stroke-width=".275235"/><path d="m72.703125 155.191406v.132813c0-.351563-.011719-.171875.148437.519531.269532.308594.917969.390625 1.457032.261719.472656-.34375.457031-.613281 1.308594-.78125.824218.046875 1.140624.265625 1.605468.519531.542969.242188.796875.363281 1.164063.902344.179687.449218.285156.75-.296875.914062-.453125.289063-.988282.445313-1.601563.527344-.671875 0-1.15625-.082031-1.453125.253906-.464844.429688-.441406.679688-.441406 1.421875-.15625.238281-.179688.921875-.285156 1.179688-.40625.164062-.644532.261719-1.320313.261719-.152343-.410157-.324219-1.132813-.429687-1.5625-.113282-.464844-.15625-1.113282-.441406-1.433594-.265626-.351563-.617188-.667969-1.015626-.910156-.179687-.222657-.519531-.410157-.878906-.511719.570313.257812.652344.535156.734375 1.160156-.507812.230469-.644531.382813-1.460937.394531-.8125-.058594-1.007813-.238281-1.316406-.652344-.046876.652344-.285157.871094-.429688 1.441407-.300781.386719-.433594.789062-.734375 1.285156.128906.632813.40625.65625.441406 1.429687.1875.511719.171875.996094.578125 1.300782.1875.207031.324219.246094.730469.261718-.84375 0-1.335937-.082031-1.894531-.390624-.429688-.234376-.757813-.535157-1.164063-.769532-.511719-.335937-1.15625-.644531-1.75-.792968-.675781 0-1.15625-.0625-1.457031.261718-.414062.269532-.691406.71875-.878906 1.300782-.128906.675781-.179688 1.125.144531 1.554687.253906.511719.3125.699219 0 1.304687-.332031.421876-.835937.472657-1.601563.648438-.554687-.023438-1.082031-.136719-1.457031-.261719" fill="none" stroke-width=".275233"/><path d="m151.171875 87.214844c17.796875-30.710938 29.605469-56.851563 26.351563-58.34375-3.238282-1.492188-20.304688 22.21875-38.09375 52.933594zm0 0" fill="#fff" fill-rule="evenodd" stroke-width=".349177"/></g><path d="m150 86.675781c17.152344-29.628906 28.980469-54.644531 26.390625-55.839843-2.585937-1.195313-18.625 21.882812-35.789063 51.503906zm0 0" fill="#fff" fill-rule="evenodd"/><path d="m150 86.675781c17.152344-29.628906 28.980469-54.644531 26.390625-55.839843-2.585937-1.195313-18.625 21.882812-35.789063 51.503906" fill="none" stroke="#db161b" stroke-width=".306752"/><path d="m147.054688 71.214844c-2.101563 3.46875-4.304688 7.421875-6.453126 11.125l9.398438 4.335937c2.140625-3.710937 4.484375-7.605469 6.445312-11.128906zm0 0" fill="#fff" fill-rule="evenodd" stroke="#db161b" stroke-width=".348148"/><path d="m147.84375 72.414062c-2.082031 3.464844-3.539062 6.109376-5.691406 9.820313l7.050781 3.238281c2.148437-3.703125 3.726563-6.289062 5.6875-9.8125zm0 0" fill="#fff" fill-rule="evenodd" stroke="#db161b" stroke-width=".348148"/><path d="m152.953125 76.425781-4.695313-2.164062-4.175781 7.199219 4.695313 2.167968zm0 0" fill="#fff" fill-rule="evenodd"/><path d="m152.953125 76.425781-4.695313-2.164062-4.175781 7.199219 4.699219 2.164062zm0 0" fill="none" stroke="#db161b" stroke-width=".276961"/><path d="m152.960938 76.425781-8.871094 5.035157zm0 0" fill="#fff" fill-rule="evenodd"/><path d="m152.960938 76.425781-8.871094 5.035157" fill="none" stroke="#db161b" stroke-width=".348148"/><path d="m148.777344 83.628906-.519532-9.367187zm0 0" fill="#fff" fill-rule="evenodd"/><path d="m148.777344 83.628906-.519532-9.367187" fill="none" stroke="#db161b" stroke-width=".348148"/><path d="m174.195312 39.769531-4.707031-2.164062zm0 0" fill="#fff" fill-rule="evenodd"/><path d="m174.195312 39.769531-4.707031-2.164062" fill="none" stroke="#db161b" stroke-width=".348148"/><path d="m172.574219 35.554688c.164062.644531.886719 1.011718 1.621093.824218.730469-.179687 1.195313-.855468 1.023438-1.5-.164062-.632812-.886719-1.007812-1.617188-.820312-.734374.179687-1.199218.855468-1.027343 1.496094zm0 0" fill="#db161b" fill-rule="evenodd"/><path d="m172.574219 35.554688c.164062.644531.886719 1.011718 1.621093.820312.730469-.179688 1.195313-.851562 1.023438-1.496094-.160156-.632812-.886719-1.007812-1.617188-.820312-.734374.179687-1.195312.855468-1.027343 1.496094zm0 0" fill="none" stroke="#db161b" stroke-width=".437365"/><path d="m144.574219 122.601562c40.09375 39.207032 57.199219 44.164063 49.175781 47.320313-8.03125 3.15625-33.847656-17.074219-60.71875-43.953125-26.863281-26.882812-43.320312-50.796875-35.292969-53.957031 8.03125-3.164063 4.199219 8.878906 46.835938 50.589843zm0 0" fill="#fff" fill-rule="evenodd" stroke="#db161b" stroke-width=".441333"/><path d="m178.328125 151.089844-14.046875 3.6875c13.214844 12.523437 28.09375 17.683594 32.21875 15.46875 4.136719-2.203125-7.429688-7.363282-18.171875-19.15625zm0 0" fill="#fff" fill-rule="evenodd" stroke="#db161b" stroke-width=".275233"/><path d="m178.328125 152.5625-11.570313 2.953125c12.882813 12.046875 25.617188 15.464844 28.914063 14 3.3125-1.472656-6.878906-5.617187-17.34375-16.953125zm0 0" fill="#fff" fill-rule="evenodd" stroke="#db161b" stroke-width=".275233"/><path d="m135.171875 120.882812c.03125.195313.128906 1.035157.210937 1.367188 0 .460938.050782.8125.097657 1.179688.140625.316406.117187.609374.523437.734374.265625.378907.445313.476563.8125.632813.253906.195313.636719.390625 1.035156.542969.40625.15625.78125.171875 1.226563.089844.367187-.21875.621094-.445313.917969-.632813.074218-.285156.140625-.714844.214844-.992187-.113282.28125-.195313.753906-.214844 1.171874.042968.453126.214844.660157.410156 1" fill="none" stroke="#db161b" stroke-width=".275233"/><path d="m138.972656 126.976562c.035156-.023437.066406-.054687.105469-.097656-.242187.222656-.144531.125.414063-.171875.394531-.1875.816406-.28125 1.335937-.363281h1.433594c.554687 0 .925781.074219 1.335937.175781.28125.261719.722656.410157 1.015625.636719.316407.195312.457031.414062.617188.726562.285156.25.472656.632813.726562.828126.113281.414062.347657.398437.511719.722656-.488281.035156-.878906.089844-1.121094.359375-.441406.195312.355469-.195313.503906-.359375.339844-.085938.421876-.1875.925782-.1875.464844-.128906.746094.117187 1.230468.1875.277344.140625.355469.179687.714844.179687" fill="none" stroke="#db161b" stroke-width=".275233"/><path d="m144.515625 131.527344c.210937.007812 1.171875.164062 1.542969 0 .417968-.097656.671875-.300782.921875-.644532.128906-.242187 0 .441407 0 .734376.039062.535156.226562.546874.511719.910156.300781.164062.621093.40625.921874.539062.257813.203125.578126.332032.925782.460938.308594.121094.675781.253906.929687.449218.339844.210938.308594.480469.503907.8125-.035157.449219-.113282.699219-.40625.921876-.113282.300781-.390626.609374-.621094.8125-.242188.414062-.527344.609374.117187.722656.347657.140625.535157.027344.910157 0" fill="none" stroke="#db161b" stroke-width=".275233"/><path d="m150.984375 137.882812c.253906-.050781 1.148437-.316406 1.539063-.449218h1.429687c.5625.03125.667969.179687 1.140625.359375.300781.277343.507812.464843.921875.640625.21875.246094.648437.675781.820313 1.003906.121093.300781.203124.722656.203124 1.179688-.007812.519531-.160156.617187-.203124 1.089843-.121094.382813-.300782.742188-.621094 1.082031-.039063.125-.070313.15625-.199219.1875" fill="none" stroke="#db161b" stroke-width=".275233"/><path d="m155.875 144.164062c.042969 0 .140625.234376.292969.433594.324219.332032.367187.355469.871093.355469.457032-.015625.40625-.167969.726563-.285156.152344-.226563.339844-.414063.511719-.714844.113281-.1875.21875-.480469.363281-.644531.132813-.21875.304687-.375.441406-.574219.140625-.058594.1875-.117187.359375-.140625-.417968.066406-.449218.203125-.726562.421875-.121094.207031-.257813.417969-.363282.652344-.042968.308593-.140624.546875-.140624.929687 0 .398438 0 .671875.140624 1 .175782.1875.296876.363282.511719.511719.171875.15625.382813.375.511719.5625.226562.148437.390625.257813.648438.4375.230468.125.457031.253906.800781.292969.429687-.039063.5625-.152344.878906-.292969.269531-.199219.488281-.324219.730469-.503906.1875-.128907.382812-.390625.507812-.566407.386719-.109374.640625-.066406.878906.136719.195313.128907.371094.308594.503907.496094.128906.066406.316406.238281.445312.292969" fill="none" stroke="#db161b" stroke-width=".275235"/><path d="m163.898438 147.136719c-.113282.046875-.535157.339843-.722657.445312-.113281.375-.300781.585938-.359375.984375-.097656.390625-.089844.816406-.089844 1.253906.097657.464844.285157.796876.449219 1.164063.292969.195313.429688.335937.8125.535156.359375.058594.71875.097657 1.179688.097657.277343.089843.816406.132812 1.09375 0 .398437-.0625.699219-.21875.992187-.355469.332032-.195313.542969-.367188.910156-.546875.171876-.257813.449219-.488282.714844-.804688.230469-.300781.398438-.472656.546875-.804687-.128906.390625-.335937.714843-.449219 1.082031-.210937.375-.324218.511719-.363281.976562-.125.375-.089843.828126-.089843 1.253907.039062.292969.054687.835937.179687 1.074219v.277343" fill="none" stroke="#db161b" stroke-width=".275235"/><path d="m177.296875 155.191406v.132813c0-.351563.011719-.171875-.148437.519531-.269532.308594-.917969.390625-1.457032.261719-.472656-.34375-.457031-.613281-1.308594-.78125-.824218.046875-1.140624.265625-1.605468.519531-.542969.242188-.796875.363281-1.164063.902344-.179687.449218-.285156.75.296875.914062.453125.289063.988282.445313 1.601563.527344.671875 0 1.15625-.082031 1.453125.253906.464844.429688.441406.679688.441406 1.421875.15625.238281.179688.921875.285156 1.179688.40625.164062.644532.261719 1.320313.261719.152343-.410157.324219-1.132813.429687-1.5625.113282-.464844.15625-1.113282.441406-1.433594.265626-.351563.617188-.667969 1.015626-.910156.179687-.222657.519531-.410157.878906-.511719-.570313.257812-.652344.535156-.734375 1.160156.507812.230469.644531.382813 1.460937.394531.8125-.058594 1.007813-.238281 1.316406-.652344.046876.652344.285157.871094.429688 1.441407.300781.386719.433594.789062.734375 1.285156-.128906.632813-.40625.65625-.441406 1.429687-.1875.511719-.171875.996094-.578125 1.300782-.1875.207031-.324219.246094-.730469.261718.84375 0 1.335937-.082031 1.894531-.390624.429688-.234376.757813-.535157 1.164063-.769532.511719-.335937 1.15625-.644531 1.75-.792968.675781 0 1.15625-.0625 1.457031.261718.414062.269532.691406.71875.878906 1.300782.128906.675781.179688 1.125-.144531 1.554687-.253906.511719-.3125.699219 0 1.304687.332031.421876.835937.472657 1.601563.648438.554687-.023438 1.082031-.136719 1.457031-.261719" fill="none" stroke="#db161b" stroke-width=".275233"/><path d="m98.828125 87.214844c-17.796875-30.710938-29.605469-56.851563-26.351563-58.34375 3.238282-1.492188 20.304688 22.21875 38.09375 52.933594zm0 0" fill="#fff" fill-rule="evenodd" stroke="#db161b" stroke-width=".349177"/><path d="m100 86.675781c-17.152344-29.628906-28.980469-54.644531-26.390625-55.839843 2.585937-1.195313 18.625 21.882812 35.789063 51.503906zm0 0" fill="#fff" fill-rule="evenodd"/><path d="m100 86.675781c-17.152344-29.628906-28.980469-54.644531-26.390625-55.839843 2.585937-1.195313 18.625 21.882812 35.789063 51.503906" fill="none" stroke="#db161b" stroke-width=".306752"/><path d="m102.945312 71.214844c2.101563 3.46875 4.304688 7.421875 6.453126 11.125l-9.398438 4.335937c-2.140625-3.710937-4.484375-7.605469-6.445312-11.128906zm0 0" fill="#fff" fill-rule="evenodd" stroke="#db161b" stroke-width=".348148"/><path d="m102.15625 72.414062c2.082031 3.464844 3.539062 6.109376 5.691406 9.820313l-7.050781 3.238281c-2.148437-3.703125-3.726563-6.289062-5.6875-9.8125zm0 0" fill="#fff" fill-rule="evenodd" stroke="#db161b" stroke-width=".348148"/><path d="m97.046875 76.425781 4.695313-2.164062 4.175781 7.199219-4.695313 2.167968zm0 0" fill="#fff" fill-rule="evenodd"/><path d="m97.046875 76.425781 4.695313-2.167969 4.175781 7.203126-4.699219 2.164062zm0 0" fill="none" stroke="#db161b" stroke-width=".276961"/><path d="m97.039062 76.425781 8.871094 5.035157zm0 0" fill="#fff" fill-rule="evenodd"/><path d="m97.039062 76.425781 8.871094 5.035157" fill="none" stroke="#db161b" stroke-width=".348148"/><path d="m101.222656 83.628906.519532-9.367187zm0 0" fill="#fff" fill-rule="evenodd"/><path d="m101.222656 83.628906.519532-9.367187" fill="none" stroke="#db161b" stroke-width=".348148"/><path d="m75.804688 39.769531 4.707031-2.164062zm0 0" fill="#fff" fill-rule="evenodd"/><path d="m75.804688 39.769531 4.707031-2.164062" fill="none" stroke="#db161b" stroke-width=".348148"/><path d="m77.425781 35.554688c-.164062.644531-.886719 1.011718-1.621093.824218-.730469-.179687-1.195313-.855468-1.023438-1.5.164062-.632812.886719-1.007812 1.617188-.820312.734374.179687 1.199218.855468 1.027343 1.496094zm0 0" fill="#db161b" fill-rule="evenodd"/><path d="m77.425781 35.554688c-.164062.640624-.886719 1.007812-1.621093.820312-.730469-.175781-1.195313-.851562-1.023438-1.496094.164062-.632812.886719-1.007812 1.621094-.820312.730468.175781 1.195312.851562 1.023437 1.496094zm0 0" fill="none" stroke="#db161b" stroke-width=".437365"/><path d="m112.71875 70.800781c0 25.78125.148438 35.496094-1.746094 36.832031-1.808594 1.425782-51.964844 0-51.964844 7.363282 0 7.367187 41.316407 14.738281 53.710938 14.738281 16.519531 0 24.789062-7.371094 24.789062-22.101563v-36.832031zm0 0" fill="#fff" fill-rule="evenodd" stroke="#db161b" stroke-width=".317815"/><path d="m112.71875 78.167969v3.683593c8.261719 1.222657 16.519531 1.222657 24.789062 0v-3.683593c-8.269531 1.226562-16.527343 1.226562-24.789062 0zm0 0" fill="#fff" fill-rule="evenodd" stroke="#db161b" stroke-width=".275233"/><path d="m112.71875 70.800781v3.679688c8.261719 1.226562 16.519531 1.226562 24.789062 0v-3.679688c-8.269531 1.226563-16.527343 1.226563-24.789062 0zm0 0" fill="#fff" fill-rule="evenodd" stroke="#db161b" stroke-width=".275233"/><path d="m112.71875 74.480469v3.6875c8.261719 1.226562 16.519531 1.226562 24.789062 0v-3.6875c-8.269531 1.226562-16.527343 1.226562-24.789062 0zm0 0" fill="#fff" fill-rule="evenodd" stroke="#db161b" stroke-width=".275233"/><path d="m112.71875 81.851562v3.679688c8.261719 1.230469 16.519531 1.230469 24.789062 0v-3.679688c-8.269531 1.222657-16.527343 1.222657-24.789062 0zm0 0" fill="#fff" fill-rule="evenodd" stroke="#db161b" stroke-width=".275233"/><path d="m114.976562 76.578125c0 .441406-.507812.789063-1.132812.789063-.617188 0-1.125-.347657-1.125-.789063 0-.4375.507812-.796875 1.125-.796875.625 0 1.132812.359375 1.132812.796875zm0 0" fill="#fff" fill-rule="evenodd" stroke="#db161b" stroke-width=".275232"/><path d="m119.476562 76.96875c0 .441406-.507812.796875-1.125.796875-.625 0-1.128906-.355469-1.128906-.796875 0-.429688.503906-.789062 1.128906-.789062.617188 0 1.125.359374 1.125.789062zm0 0" fill="#fff" fill-rule="evenodd" stroke="#db161b" stroke-width=".275232"/><path d="m123.984375 77.367188c0 .441406-.503906.800781-1.125.800781-.625 0-1.128906-.359375-1.128906-.800781 0-.4375.503906-.789063 1.128906-.789063.621094 0 1.125.351563 1.125.789063zm0 0" fill="#fff" fill-rule="evenodd"/><path d="m123.984375 77.367188c0 .441406-.503906.796874-1.125.796874-.625 0-1.128906-.355468-1.128906-.796874 0-.4375.503906-.789063 1.128906-.789063.621094 0 1.125.351563 1.125.789063zm0 0" fill="none" stroke="#db161b" stroke-width=".275238"/><path d="m128.492188 77.367188c0 .441406-.503907.800781-1.125.800781-.625 0-1.128907-.359375-1.128907-.800781 0-.4375.503907-.789063 1.128907-.789063.621093 0 1.125.351563 1.125.789063zm0 0" fill="#fff" fill-rule="evenodd"/><path d="m128.492188 77.367188c0 .441406-.503907.796874-1.125.796874-.625 0-1.128907-.355468-1.128907-.796874 0-.4375.503907-.789063 1.128907-.789063.621093 0 1.125.351563 1.125.789063zm0 0" fill="none" stroke="#db161b" stroke-width=".275238"/><path d="m133 76.96875c0 .441406-.503906.796875-1.132812.796875-.617188 0-1.121094-.355469-1.121094-.796875 0-.429688.503906-.789062 1.121094-.789062.628906 0 1.132812.359374 1.132812.789062zm0 0" fill="#fff" fill-rule="evenodd" stroke="#db161b" stroke-width=".275232"/><path d="m137.507812 76.578125c0 .441406-.503906.789063-1.128906.789063-.621094 0-1.125-.347657-1.125-.789063 0-.4375.503906-.796875 1.125-.796875.625 0 1.128906.359375 1.128906.796875zm0 0" fill="#fff" fill-rule="evenodd" stroke="#db161b" stroke-width=".275232"/><path d="m112.71875 89.214844 24.789062 19.890625zm0 0" fill="#fff" fill-rule="evenodd"/><path d="m112.71875 89.214844 24.789062 19.890625" fill="none" stroke="#db161b" stroke-width=".275233"/><path d="m115.195312 89.214844 22.3125 17.679687zm0 0" fill="#fff" fill-rule="evenodd"/><path d="m115.195312 89.214844 22.3125 17.679687" fill="none" stroke="#db161b" stroke-width=".275233"/><path d="m118.496094 89.949219 19.011718 14.730469zm0 0" fill="#fff" fill-rule="evenodd"/><path d="m118.496094 89.949219 19.011718 14.730469" fill="none" stroke="#db161b" stroke-width=".275233"/><path d="m120.980469 89.949219 16.527343 12.527343zm0 0" fill="#fff" fill-rule="evenodd"/><path d="m120.980469 89.949219 16.527343 12.527343" fill="none" stroke="#db161b" stroke-width=".275233"/><path d="m123.460938 89.949219 14.046874 10.320312zm0 0" fill="#fff" fill-rule="evenodd"/><path d="m123.460938 89.949219 14.046874 10.320312" fill="none" stroke="#db161b" stroke-width=".275233"/><path d="m125.933594 89.949219 11.574218 8.105469zm0 0" fill="#fff" fill-rule="evenodd"/><path d="m125.933594 89.949219 11.574218 8.105469" fill="none" stroke="#db161b" stroke-width=".275233"/><path d="m128.417969 89.949219 9.089843 5.890625zm0 0" fill="#fff" fill-rule="evenodd"/><path d="m128.417969 89.949219 9.089843 5.890625" fill="none" stroke="#db161b" stroke-width=".275233"/><path d="m130.890625 89.949219 6.617187 4.429687zm0 0" fill="#fff" fill-rule="evenodd"/><path d="m130.890625 89.949219 6.617187 4.429687" fill="none" stroke="#db161b" stroke-width=".275233"/><path d="m133.375 89.949219 4.132812 2.953125zm0 0" fill="#fff" fill-rule="evenodd"/><path d="m133.375 89.949219 4.132812 2.953125" fill="none" stroke="#db161b" stroke-width=".275233"/><path d="m135.847656 89.949219 1.660156 1.472656zm0 0" fill="#fff" fill-rule="evenodd"/><path d="m135.847656 89.949219 1.660156 1.472656" fill="none" stroke="#db161b" stroke-width=".275233"/><path d="m112.71875 91.421875 24.789062 19.898437zm0 0" fill="#fff" fill-rule="evenodd"/><path d="m112.71875 91.421875 24.789062 19.898437" fill="none" stroke="#db161b" stroke-width=".275233"/><path d="m137.507812 89.214844-27.269531 22.105468zm0 0" fill="#fff" fill-rule="evenodd"/><path d="m137.507812 89.214844-27.269531 22.105468" fill="none" stroke="#db161b" stroke-width=".275233"/><path d="m135.023438 89.214844-23.957032 19.152344zm0 0" fill="#fff" fill-rule="evenodd"/><path d="m135.023438 89.214844-23.957032 19.152344" fill="none" stroke="#db161b" stroke-width=".275233"/><path d="m131.722656 89.949219-19.003906 14.730469zm0 0" fill="#fff" fill-rule="evenodd"/><path d="m131.722656 89.949219-19.003906 14.730469" fill="none" stroke="#db161b" stroke-width=".275233"/><path d="m129.238281 89.949219-16.519531 12.527343zm0 0" fill="#fff" fill-rule="evenodd"/><path d="m129.238281 89.949219-16.519531 12.527343" fill="none" stroke="#db161b" stroke-width=".275233"/><path d="m126.765625 89.949219-14.046875 10.320312zm0 0" fill="#fff" fill-rule="evenodd"/><path d="m126.765625 89.949219-14.046875 10.320312" fill="none" stroke="#db161b" stroke-width=".275233"/><path d="m124.285156 89.949219-11.566406 8.105469zm0 0" fill="#fff" fill-rule="evenodd"/><path d="m124.285156 89.949219-11.566406 8.105469" fill="none" stroke="#db161b" stroke-width=".275233"/><path d="m121.808594 89.949219-9.089844 5.890625zm0 0" fill="#fff" fill-rule="evenodd"/><path d="m121.808594 89.949219-9.089844 5.890625" fill="none" stroke="#db161b" stroke-width=".275233"/><path d="m119.328125 89.949219-6.609375 4.429687zm0 0" fill="#fff" fill-rule="evenodd"/><path d="m119.328125 89.949219-6.609375 4.429687" fill="none" stroke="#db161b" stroke-width=".275233"/><path d="m116.855469 89.949219-4.136719 2.953125zm0 0" fill="#fff" fill-rule="evenodd"/><path d="m116.855469 89.949219-4.136719 2.953125" fill="none" stroke="#db161b" stroke-width=".275233"/><path d="m114.363281 89.949219-1.644531 1.472656zm0 0" fill="#fff" fill-rule="evenodd"/><path d="m114.363281 89.949219-1.644531 1.472656" fill="none" stroke="#db161b" stroke-width=".275233"/><path d="m137.507812 91.421875-27.269531 22.101563zm0 0" fill="#fff" fill-rule="evenodd"/><path d="m137.507812 91.421875-27.269531 22.101563" fill="none" stroke="#db161b" stroke-width=".275233"/><path d="m137.507812 93.636719-27.269531 22.09375zm0 0" fill="#fff" fill-rule="evenodd"/><path d="m137.507812 93.636719-27.269531 22.09375" fill="none" stroke="#db161b" stroke-width=".275233"/><path d="m137.507812 95.839844-27.269531 22.113281zm0 0" fill="#fff" fill-rule="evenodd"/><path d="m137.507812 95.839844-27.269531 22.113281" fill="none" stroke="#db161b" stroke-width=".275233"/><path d="m137.507812 98.054688-27.269531 22.105468zm0 0" fill="#fff" fill-rule="evenodd"/><path d="m137.507812 98.054688-27.269531 22.105468" fill="none" stroke="#db161b" stroke-width=".275233"/><path d="m137.507812 100.269531-27.269531 22.09375zm0 0" fill="#fff" fill-rule="evenodd"/><path d="m137.507812 100.269531-27.269531 22.09375" fill="none" stroke="#db161b" stroke-width=".275233"/><path d="m137.507812 102.476562-27.269531 22.101563zm0 0" fill="#fff" fill-rule="evenodd"/><path d="m137.507812 102.476562-27.269531 22.101563" fill="none" stroke="#db161b" stroke-width=".275233"/><path d="m137.507812 104.679688-27.269531 22.101562zm0 0" fill="#fff" fill-rule="evenodd"/><path d="m137.507812 104.679688-27.269531 22.101562" fill="none" stroke="#db161b" stroke-width=".275233"/><path d="m137.507812 106.898438-27.269531 22.105468zm0 0" fill="#fff" fill-rule="evenodd"/><path d="m137.507812 106.898438-27.269531 22.105468" fill="none" stroke="#db161b" stroke-width=".275233"/><path d="m137.507812 109.105469-25.617187 20.628906zm0 0" fill="#fff" fill-rule="evenodd"/><path d="m137.507812 109.105469-25.617187 20.628906" fill="none" stroke="#db161b" stroke-width=".275233"/><path d="m137.507812 111.320312-23.144531 18.414063zm0 0" fill="#fff" fill-rule="evenodd"/><path d="m137.507812 111.320312-23.144531 18.414063" fill="none" stroke="#db161b" stroke-width=".275233"/><path d="m136.675781 114.265625-18.179687 14.738281zm0 0" fill="#fff" fill-rule="evenodd"/><path d="m136.675781 114.265625-18.179687 14.738281" fill="none" stroke="#db161b" stroke-width=".275233"/><path d="m135.847656 117.210938-14.867187 11.792968zm0 0" fill="#fff" fill-rule="evenodd"/><path d="m135.847656 117.210938-14.867187 11.792968" fill="none" stroke="#db161b" stroke-width=".275233"/><path d="m134.195312 120.890625-7.429687 5.890625zm0 0" fill="#fff" fill-rule="evenodd"/><path d="m134.195312 120.890625-7.429687 5.890625" fill="none" stroke="#db161b" stroke-width=".275233"/><path d="m112.71875 93.636719 23.957031 19.15625zm0 0" fill="#fff" fill-rule="evenodd"/><path d="m112.71875 93.636719 23.957031 19.15625" fill="none" stroke="#db161b" stroke-width=".275233"/><path d="m112.71875 95.839844 23.957031 19.15625zm0 0" fill="#fff" fill-rule="evenodd"/><path d="m112.71875 95.839844 23.957031 19.15625" fill="none" stroke="#db161b" stroke-width=".275233"/><path d="m112.71875 98.054688 23.128906 18.417968zm0 0" fill="#fff" fill-rule="evenodd"/><path d="m112.71875 98.054688 23.128906 18.417968" fill="none" stroke="#db161b" stroke-width=".275233"/><path d="m112.71875 100.269531 23.128906 18.414063zm0 0" fill="#fff" fill-rule="evenodd"/><path d="m112.71875 100.269531 23.128906 18.414063" fill="none" stroke="#db161b" stroke-width=".275233"/><path d="m112.71875 102.476562 22.304688 17.683594zm0 0" fill="#fff" fill-rule="evenodd"/><path d="m112.71875 102.476562 22.304688 17.683594" fill="none" stroke="#db161b" stroke-width=".275233"/><path d="m111.890625 103.949219 22.304687 17.683593zm0 0" fill="#fff" fill-rule="evenodd"/><path d="m111.890625 103.949219 22.304687 17.683593" fill="none" stroke="#db161b" stroke-width=".275233"/><path d="m111.890625 106.160156 20.660156 16.203125zm0 0" fill="#fff" fill-rule="evenodd"/><path d="m111.890625 106.160156 20.660156 16.203125" fill="none" stroke="#db161b" stroke-width=".275233"/><path d="m111.066406 107.632812 20.65625 16.210938zm0 0" fill="#fff" fill-rule="evenodd"/><path d="m111.066406 107.632812 20.65625 16.210938" fill="none" stroke="#db161b" stroke-width=".275233"/><path d="m110.238281 109.105469 19.832031 15.472656zm0 0" fill="#fff" fill-rule="evenodd"/><path d="m110.238281 109.105469 19.832031 15.472656" fill="none" stroke="#db161b" stroke-width=".275233"/><path d="m110.238281 111.320312 19 14.730469zm0 0" fill="#fff" fill-rule="evenodd"/><path d="m110.238281 111.320312 19 14.730469" fill="none" stroke="#db161b" stroke-width=".275233"/><path d="m110.238281 113.523438 16.527344 13.257812zm0 0" fill="#fff" fill-rule="evenodd"/><path d="m110.238281 113.523438 16.527344 13.257812" fill="none" stroke="#db161b" stroke-width=".275233"/><path d="m112.71875 85.53125v3.683594c8.261719 1.222656 16.519531 1.222656 24.789062 0v-3.683594c-8.269531 1.230469-16.527343 1.230469-24.789062 0zm0 0" fill="#fff" fill-rule="evenodd" stroke="#db161b" stroke-width=".275233"/><path d="m110.238281 115.730469 14.867188 11.792969zm0 0" fill="#fff" fill-rule="evenodd"/><path d="m110.238281 115.730469 14.867188 11.792969" fill="none" stroke="#db161b" stroke-width=".275233"/><path d="m110.238281 117.953125 13.222657 10.300781zm0 0" fill="#fff" fill-rule="evenodd"/><path d="m110.238281 117.953125 13.222657 10.300781" fill="none" stroke="#db161b" stroke-width=".275233"/><path d="m110.238281 120.160156 11.570313 8.84375zm0 0" fill="#fff" fill-rule="evenodd"/><path d="m110.238281 120.160156 11.570313 8.84375" fill="none" stroke="#db161b" stroke-width=".275233"/><path d="m110.238281 122.363281 8.257813 6.640625zm0 0" fill="#fff" fill-rule="evenodd"/><path d="m110.238281 122.363281 8.257813 6.640625" fill="none" stroke="#db161b" stroke-width=".275233"/><path d="m110.238281 124.578125 6.617188 5.15625zm0 0" fill="#fff" fill-rule="evenodd"/><path d="m110.238281 124.578125 6.617188 5.15625" fill="none" stroke="#db161b" stroke-width=".275233"/><path d="m110.238281 126.78125 4.125 2.953125zm0 0" fill="#fff" fill-rule="evenodd"/><path d="m110.238281 126.78125 4.125 2.953125" fill="none" stroke="#db161b" stroke-width=".275233"/><path d="m114.976562 87.621094c0 .441406-.507812.796875-1.132812.796875-.617188 0-1.125-.355469-1.125-.796875 0-.429688.507812-.789063 1.125-.789063.625 0 1.132812.359375 1.132812.789063zm0 0" fill="#fff" fill-rule="evenodd" stroke="#db161b" stroke-width=".275232"/><path d="m119.476562 88.019531c0 .441407-.507812.800781-1.125.800781-.625 0-1.128906-.359374-1.128906-.800781 0-.4375.503906-.789062 1.128906-.789062.617188 0 1.125.351562 1.125.789062zm0 0" fill="#fff" fill-rule="evenodd"/><path d="m119.476562 88.019531c0 .441407-.507812.796875-1.125.796875-.625 0-1.128906-.355468-1.128906-.796875 0-.4375.503906-.789062 1.128906-.789062.617188 0 1.125.351562 1.125.789062zm0 0" fill="none" stroke="#db161b" stroke-width=".275232"/><path d="m123.984375 88.417969c0 .441406-.503906.796875-1.125.796875-.625 0-1.128906-.355469-1.128906-.796875 0-.4375.503906-.796875 1.128906-.796875.621094 0 1.125.359375 1.125.796875zm0 0" fill="#fff" fill-rule="evenodd"/><path d="m123.984375 88.417969c0 .441406-.503906.800781-1.125.800781-.625 0-1.128906-.359375-1.128906-.800781 0-.4375.503906-.796875 1.128906-.796875.621094 0 1.125.359375 1.125.796875zm0 0" fill="none" stroke="#db161b" stroke-width=".275238"/><path d="m128.492188 88.417969c0 .441406-.503907.796875-1.125.796875-.625 0-1.128907-.355469-1.128907-.796875 0-.4375.503907-.796875 1.128907-.796875.621093 0 1.125.359375 1.125.796875zm0 0" fill="#fff" fill-rule="evenodd"/><path d="m128.492188 88.417969c0 .441406-.503907.800781-1.125.800781-.625 0-1.128907-.359375-1.128907-.800781 0-.4375.503907-.796875 1.128907-.796875.621093 0 1.125.359375 1.125.796875zm0 0" fill="none" stroke="#db161b" stroke-width=".275238"/><path d="m133 88.019531c0 .441407-.503906.800781-1.132812.800781-.617188 0-1.121094-.359374-1.121094-.800781 0-.4375.503906-.789062 1.121094-.789062.628906 0 1.132812.351562 1.132812.789062zm0 0" fill="#fff" fill-rule="evenodd"/><path d="m133 88.019531c0 .441407-.503906.796875-1.132812.796875-.617188 0-1.121094-.355468-1.121094-.796875 0-.4375.503906-.789062 1.121094-.789062.628906 0 1.132812.351562 1.132812.789062zm0 0" fill="none" stroke="#db161b" stroke-width=".275232"/><path d="m137.507812 87.621094c0 .441406-.503906.796875-1.128906.796875-.621094 0-1.125-.355469-1.125-.796875 0-.429688.503906-.789063 1.125-.789063.625 0 1.128906.359375 1.128906.789063zm0 0" fill="#fff" fill-rule="evenodd" stroke="#db161b" stroke-width=".275232"/><path d="m77.191406 123.84375 29.742188-15.476562zm0 0" fill="#fff" fill-rule="evenodd"/><path d="m77.191406 123.84375 29.742188-15.476562" fill="none" stroke="#db161b" stroke-width=".275233"/><path d="m75.539062 123.105469 28.082032-14.738281zm0 0" fill="#fff" fill-rule="evenodd"/><path d="m75.539062 123.105469 28.082032-14.738281" fill="none" stroke="#db161b" stroke-width=".275233"/><path d="m74.707031 121.632812 25.617188-13.265624zm0 0" fill="#fff" fill-rule="evenodd"/><path d="m74.707031 121.632812 25.617188-13.265624" fill="none" stroke="#db161b" stroke-width=".275233"/><path d="m73.886719 120.160156 22.304687-11.792968zm0 0" fill="#fff" fill-rule="evenodd"/><path d="m73.886719 120.160156 22.304687-11.792968" fill="none" stroke="#db161b" stroke-width=".275233"/><path d="m72.234375 118.683594 20.652344-10.316406zm0 0" fill="#fff" fill-rule="evenodd"/><path d="m72.234375 118.683594 20.652344-10.316406" fill="none" stroke="#db161b" stroke-width=".275233"/><path d="m73.054688 116.472656 14.046874-7.367187zm0 0" fill="#fff" fill-rule="evenodd"/><path d="m73.054688 116.472656 14.046874-7.367187" fill="none" stroke="#db161b" stroke-width=".275233"/><path d="m72.234375 114.996094 10.742187-5.890625zm0 0" fill="#fff" fill-rule="evenodd"/><path d="m72.234375 114.996094 10.742187-5.890625" fill="none" stroke="#db161b" stroke-width=".275233"/><path d="m72.234375 112.792969 7.429687-3.6875zm0 0" fill="#fff" fill-rule="evenodd"/><path d="m72.234375 112.792969 7.429687-3.6875" fill="none" stroke="#db161b" stroke-width=".275233"/><path d="m79.664062 124.578125 28.09375-14.738281zm0 0" fill="#fff" fill-rule="evenodd"/><path d="m79.664062 124.578125 28.09375-14.738281" fill="none" stroke="#db161b" stroke-width=".275233"/><path d="m82.144531 125.316406 26.441407-13.996094zm0 0" fill="#fff" fill-rule="evenodd"/><path d="m82.144531 125.316406 26.441407-13.996094" fill="none" stroke="#db161b" stroke-width=".275233"/><path d="m84.628906 126.050781 24.78125-13.257812zm0 0" fill="#fff" fill-rule="evenodd"/><path d="m84.628906 126.050781 24.78125-13.257812" fill="none" stroke="#db161b" stroke-width=".275233"/><path d="m87.101562 126.78125 20.65625-11.050781zm0 0" fill="#fff" fill-rule="evenodd"/><path d="m87.101562 126.78125 20.65625-11.050781" fill="none" stroke="#db161b" stroke-width=".275233"/><path d="m90.40625 126.78125 18.179688-9.570312zm0 0" fill="#fff" fill-rule="evenodd"/><path d="m90.40625 126.78125 18.179688-9.570312" fill="none" stroke="#db161b" stroke-width=".275233"/><path d="m92.886719 127.523438 15.699219-8.105469zm0 0" fill="#fff" fill-rule="evenodd"/><path d="m92.886719 127.523438 15.699219-8.105469" fill="none" stroke="#db161b" stroke-width=".275233"/><path d="m95.367188 128.253906 12.390624-6.621094zm0 0" fill="#fff" fill-rule="evenodd"/><path d="m95.367188 128.253906 12.390624-6.621094" fill="none" stroke="#db161b" stroke-width=".275233"/><path d="m98.664062 128.253906 9.921876-5.148437zm0 0" fill="#fff" fill-rule="evenodd"/><path d="m98.664062 128.253906 9.921876-5.148437" fill="none" stroke="#db161b" stroke-width=".275233"/><path d="m101.976562 129.003906 6.609376-3.6875zm0 0" fill="#fff" fill-rule="evenodd"/><path d="m101.976562 129.003906 6.609376-3.6875" fill="none" stroke="#db161b" stroke-width=".275233"/><path d="m105.28125 129.003906 4.128906-2.222656zm0 0" fill="#fff" fill-rule="evenodd"/><path d="m105.28125 129.003906 4.128906-2.222656" fill="none" stroke="#db161b" stroke-width=".275233"/><path d="m111.066406 107.632812h-4.132812c-1.375 7.363282-1.375 14.730469 0 22.101563h4.132812c-1.382812-7.371094-1.382812-14.738281 0-22.101563zm0 0" fill="#fff" fill-rule="evenodd" stroke="#db161b" stroke-width=".275233"/><path d="m62.3125 117.953125 9.921875-7.375zm0 0" fill="#fff" fill-rule="evenodd"/><path d="m62.3125 117.953125 9.921875-7.375" fill="none" stroke="#db161b" stroke-width=".275233"/><path d="m62.3125 112.792969 9.921875 8.839843zm0 0" fill="#fff" fill-rule="evenodd"/><path d="m62.3125 112.792969 9.921875 8.839843" fill="none" stroke="#db161b" stroke-width=".275233"/><path d="m77.191406 109.105469-4.957031.734375c-1.105469 4.671875-1.105469 8.59375 0 13.265625l4.957031 1.472656c-1.109375-4.671875-1.109375-10.800781 0-15.472656zm0 0" fill="#fff" fill-rule="evenodd" stroke="#db161b" stroke-width=".195913"/><path d="m137.476562 72.273438v-3.71875c-3.710937.03125-6.191406-2.171876-6.191406-4.417969l-12.382812.03125c0 2.214843-2.472656 4.417969-6.183594 4.417969v3.6875zm0 0" fill="#fff" fill-rule="evenodd" stroke="#db161b" stroke-width=".336906"/><path d="m119.792969 59.75h10.609375v4.417969h-10.609375zm0 0" fill="#fff" fill-rule="evenodd" stroke="#db161b" stroke-width=".28474"/><path d="m120.679688 55.332031h8.835937v4.417969h-8.835937zm0 0" fill="#fff" fill-rule="evenodd" stroke="#db161b" stroke-width=".28474"/><path d="m120.679688 50.914062h8.835937v4.417969h-8.835937zm0 0" fill="#fff" fill-rule="evenodd" stroke="#db161b" stroke-width=".28474"/><path d="m121.558594 45.011719h7.074218v5.898437h-7.074218zm0 0" fill="#fff" fill-rule="evenodd" stroke="#db161b" stroke-width=".28474"/><path d="m121.257812 39.859375h7.683594v5.152344h-7.683594zm0 0" fill="#fff" fill-rule="evenodd" stroke="#db161b" stroke-width=".29675"/><path d="m135.765625 35.066406c0 3.867188-4.582031 7-10.246094 7-5.65625 0-10.246093-3.132812-10.246093-7 0-3.863281 4.589843-6.996094 10.246093-6.996094 5.664063 0 10.246094 3.132813 10.246094 6.996094zm0 0" fill="#fff" fill-rule="evenodd"/><path d="m135.765625 35.066406c0 3.863282-4.582031 7-10.246094 7-5.65625 0-10.246093-3.136718-10.246093-7 0-3.863281 4.589843-6.996094 10.246093-6.996094 5.664063 0 10.246094 3.132813 10.246094 6.996094zm0 0" fill="none" stroke="#db161b" stroke-width=".279784"/><path d="m130.648438 34.699219c0 1.929687 2.5625 5.160156 2.5625 5.160156-1.863282 1.261719-4.859376 2.207031-7.683594 2.207031-2.828125 0-6.355469-.523437-7.691406-2.207031 0 0 2.566406-3.230469 2.566406-5.160156 0-1.929688-2.566406-4.417969-2.566406-4.417969 1.859374-1.269531 4.863281-2.210938 7.691406-2.210938 2.824218 0 5.820312.941407 7.683594 2.210938 0 0-2.5625 2.488281-2.5625 4.417969zm0 0" fill="#fff" fill-rule="evenodd" stroke="#db161b" stroke-width=".279783"/><path d="m128.941406 34.699219c0 1.929687 2.5625 5.890625 2.5625 5.890625-1.859375 1.273437-3.152344 1.476562-5.976562 1.476562-2.828125 0-4.644532.210938-5.980469-1.476562 0 0 2.5625-3.960938 2.5625-5.890625 0-1.929688-2.5625-5.15625-2.5625-5.15625 1.855469-1.265625 3.152344-1.472657 5.980469-1.472657 2.824218 0 4.117187.207032 5.976562 1.472657 0 0-2.5625 3.226562-2.5625 5.15625zm0 0" fill="#fff" fill-rule="evenodd" stroke="#db161b" stroke-width=".279783"/><path d="m117.835938 35.441406c0 1.222656-1.144532 2.203125-2.5625 2.203125-1.40625 0-2.554688-.980469-2.554688-2.203125 0-1.21875 1.148438-2.214844 2.554688-2.214844 1.417968 0 2.5625.996094 2.5625 2.214844zm0 0" fill="#fff" fill-rule="evenodd"/><path d="m117.835938 35.441406c0 1.21875-1.144532 2.203125-2.5625 2.203125-1.40625 0-2.554688-.984375-2.554688-2.203125 0-1.222656 1.148438-2.214844 2.554688-2.214844 1.417968 0 2.5625.992188 2.5625 2.214844zm0 0" fill="none" stroke="#db161b" stroke-width=".279784"/><path d="m138.328125 35.441406c0 1.222656-1.144531 2.203125-2.5625 2.203125-1.414063 0-2.554687-.980469-2.554687-2.203125 0-1.21875 1.140624-2.214844 2.554687-2.214844 1.417969 0 2.5625.996094 2.5625 2.214844zm0 0" fill="#fff" fill-rule="evenodd"/><path d="m138.328125 35.441406c0 1.21875-1.144531 2.203125-2.5625 2.203125-1.414063 0-2.554687-.984375-2.554687-2.203125 0-1.222656 1.140624-2.214844 2.554687-2.214844 1.417969 0 2.5625.992188 2.5625 2.214844zm0 0" fill="none" stroke="#db161b" stroke-width=".279784"/><path d="m128.082031 35.441406c0 1.222656-1.144531 2.203125-2.5625 2.203125-1.40625 0-2.554687-.980469-2.554687-2.203125 0-1.21875 1.148437-2.214844 2.554687-2.214844 1.417969 0 2.5625.996094 2.5625 2.214844zm0 0" fill="#fff" fill-rule="evenodd"/><path d="m128.082031 35.441406c0 1.21875-1.144531 2.203125-2.5625 2.203125-1.40625 0-2.554687-.984375-2.554687-2.203125 0-1.222656 1.148437-2.214844 2.554687-2.214844 1.417969 0 2.5625.992188 2.5625 2.214844zm0 0" fill="none" stroke="#db161b" stroke-width=".279784"/><path d="m128.082031 28.070312c0 1.21875-1.144531 2.210938-2.5625 2.210938-1.40625 0-2.554687-.992188-2.554687-2.210938 0-1.222656 1.148437-2.207031 2.554687-2.207031 1.417969 0 2.5625.984375 2.5625 2.207031zm0 0" fill="#fff" fill-rule="evenodd" stroke="#db161b" stroke-width=".279784"/><path d="m120.679688 70.058594c0 1.222656-1.191407 2.214844-2.65625 2.214844-1.464844 0-2.652344-.992188-2.652344-2.214844 0-1.21875 1.1875-2.203125 2.652344-2.203125 1.464843 0 2.65625.984375 2.65625 2.203125zm0 0" fill="#fff" fill-rule="evenodd" stroke="#db161b" stroke-width=".284736"/><path d="m134.824219 70.058594c0 1.222656-1.1875 2.214844-2.65625 2.214844-1.464844 0-2.652344-.992188-2.652344-2.214844 0-1.21875 1.1875-2.203125 2.652344-2.203125 1.46875 0 2.65625.984375 2.65625 2.203125zm0 0" fill="#fff" fill-rule="evenodd" stroke="#db161b" stroke-width=".284736"/><path d="m118.902344 64.167969h12.382812l-6.1875 6.632812zm0 0" fill="#fff" fill-rule="evenodd" stroke="#db161b" stroke-width=".284735"/><path d="m128.636719 69.328125c0 1.628906-1.585938 2.945313-3.539063 2.945313s-3.539062-1.316407-3.539062-2.945313 1.585937-2.945313 3.539062-2.945313 3.539063 1.316407 3.539063 2.945313zm0 0" fill="#fff" fill-rule="evenodd" stroke="#db161b" stroke-width=".379649"/><path d="m112.507812 91.429688h16.945313c.566406 0 1.023437.351562 1.023437.78125v2.859374c0 .4375-.457031.78125-1.023437.78125h-16.945313c-.570312 0-1.03125-.34375-1.03125-.78125v-2.859374c0-.429688.460938-.78125 1.03125-.78125zm0 0" fill="#fff" fill-rule="evenodd" stroke="#db161b" stroke-width=".275233"/><path d="m136.261719 87.753906c-2.285157 0-4.125 1.714844-4.125 3.847656v3.34375c0 2.140626 1.839843 3.859376 4.125 3.859376 2.296875 0 4.136719-1.71875 4.136719-3.859376v-3.34375c0-2.132812-1.839844-3.847656-4.136719-3.847656zm0 1.472656c-1.375 0-2.480469 1.375-2.480469 3.082032v1.9375c0 1.710937 1.105469 3.078125 2.480469 3.078125s2.484375-1.367188 2.484375-3.078125v-1.9375c0-1.707032-1.109375-3.082032-2.484375-3.082032zm0 0" fill="#fff" fill-rule="evenodd"/><path d="m136.261719 87.753906c-2.285157 0-4.125 1.714844-4.125 3.847656v3.34375c0 2.140626 1.839843 3.859376 4.125 3.859376 2.296875 0 4.136719-1.71875 4.136719-3.859376v-3.34375c0-2.132812-1.839844-3.847656-4.136719-3.847656zm0 0" fill="none" stroke="#db161b" stroke-width=".275233"/><path d="m136.261719 89.226562c-1.375 0-2.480469 1.375-2.480469 3.082032v1.9375c0 1.710937 1.105469 3.078125 2.480469 3.078125s2.484375-1.367188 2.484375-3.078125v-1.9375c0-1.707032-1.109375-3.082032-2.484375-3.082032zm0 0" fill="none" stroke="#db161b" stroke-width=".275233"/><path d="m114.789062 88.492188c-1.375 0-2.484374 1.367187-2.484374 3.078124v3.417969c0 1.699219 1.109374 3.074219 2.484374 3.074219s2.472657-1.375 2.472657-3.074219v-3.417969c0-1.710937-1.097657-3.078124-2.472657-3.078124zm0-1.472657c-2.296874 0-4.136718 1.71875-4.136718 3.847657v4.828124c0 2.132813 1.839844 3.847657 4.136718 3.847657 2.285157 0 4.125-1.714844 4.125-3.847657v-4.828124c0-2.128907-1.839843-3.847657-4.125-3.847657zm0 0" fill="#fff" fill-rule="evenodd"/><path d="m114.789062 88.492188c-1.375 0-2.484374 1.367187-2.484374 3.078124v3.417969c0 1.699219 1.109374 3.074219 2.484374 3.074219s2.472657-1.375 2.472657-3.074219v-3.417969c0-1.710937-1.097657-3.078124-2.472657-3.078124zm0 0" fill="none" stroke="#db161b" stroke-width=".275233"/><path d="m114.789062 87.019531c-2.296874 0-4.136718 1.71875-4.136718 3.847657v4.828124c0 2.132813 1.839844 3.847657 4.136718 3.847657 2.285157 0 4.125-1.714844 4.125-3.847657v-4.828124c0-2.128907-1.839843-3.847657-4.125-3.847657zm0 0" fill="none" stroke="#db161b" stroke-width=".275233"/><path d="m108.179688 89.957031c-1.375 0-2.492188 1.375-2.492188 3.085938v.796875c0 1.707031 1.117188 3.082031 2.492188 3.082031s2.472656-1.375 2.472656-3.082031v-.796875c0-1.710938-1.097656-3.085938-2.472656-3.085938zm0-1.464843c-2.296876 0-4.136719 1.71875-4.136719 3.847656v2.207031c0 2.132813 1.839843 3.847656 4.136719 3.847656 2.277343 0 4.125-1.714843 4.125-3.847656v-2.207031c0-2.128906-1.847657-3.847656-4.125-3.847656zm0 0" fill="#fff" fill-rule="evenodd"/><path d="m108.179688 89.957031c-1.375 0-2.492188 1.375-2.492188 3.085938v.796875c0 1.707031 1.117188 3.082031 2.492188 3.082031s2.472656-1.375 2.472656-3.082031v-.796875c0-1.710938-1.097656-3.085938-2.472656-3.085938zm0 0" fill="none" stroke="#db161b" stroke-width=".275233"/><path d="m108.179688 88.492188c-2.296876 0-4.136719 1.71875-4.136719 3.847656v2.207031c0 2.132813 1.839843 3.847656 4.136719 3.847656 2.277343 0 4.125-1.714843 4.125-3.847656v-2.207031c0-2.128906-1.847657-3.847656-4.125-3.847656zm0 0" fill="none" stroke="#db161b" stroke-width=".275233"/><path d="m98.257812 87.921875c-2.472656 0-4.460937 1.539063-4.460937 3.441406v3.820313c0 1.910156 1.988281 3.441406 4.460937 3.441406 2.476563 0 4.460938-1.53125 4.460938-3.441406v-3.820313c0-1.902343-1.984375-3.441406-4.460938-3.441406zm0-1.652344c-4.117187 0-7.429687 1.929688-7.429687 4.3125v5.390625c0 2.382813 3.3125 4.304688 7.429687 4.304688 4.121094 0 7.429688-1.921875 7.429688-4.304688v-5.390625c0-2.382812-3.308594-4.3125-7.429688-4.3125zm0 0" fill="#fff" fill-rule="evenodd"/><path d="m98.257812 87.921875c-2.472656 0-4.460937 1.539063-4.460937 3.441406v3.820313c0 1.910156 1.988281 3.441406 4.460937 3.441406 2.476563 0 4.460938-1.53125 4.460938-3.441406v-3.820313c0-1.902343-1.984375-3.441406-4.460938-3.441406zm0 0" fill="none" stroke="#db161b" stroke-width=".275233"/><path d="m98.257812 86.269531c-4.117187 0-7.429687 1.929688-7.429687 4.3125v5.390625c0 2.382813 3.3125 4.304688 7.429687 4.304688 4.121094 0 7.429688-1.921875 7.429688-4.304688v-5.390625c0-2.382812-3.308594-4.3125-7.429688-4.3125zm0 0" fill="none" stroke="#db161b" stroke-width=".275233"/><path d="m151.96875 88.65625c-2.472656 0-4.464844 1.546875-4.464844 3.449219v3.816406c0 1.914063 1.992188 3.441406 4.464844 3.441406 2.464844 0 4.460938-1.527343 4.460938-3.441406v-3.816406c0-1.902344-1.996094-3.449219-4.460938-3.449219zm0-1.636719c-4.125 0-7.445312 1.914063-7.445312 4.296875v5.394532c0 2.375 3.320312 4.296874 7.445312 4.296874 4.117188 0 7.429688-1.921874 7.429688-4.296874v-5.394532c0-2.382812-3.3125-4.296875-7.429688-4.296875zm0 0" fill="#fff" fill-rule="evenodd"/><path d="m151.96875 88.65625c-2.472656 0-4.464844 1.546875-4.464844 3.449219v3.816406c0 1.914063 1.992188 3.441406 4.464844 3.441406 2.464844 0 4.460938-1.527343 4.460938-3.441406v-3.816406c0-1.902344-1.996094-3.449219-4.460938-3.449219zm0 0" fill="none" stroke="#db161b" stroke-width=".275233"/><path d="m151.96875 87.019531c-4.125 0-7.445312 1.914063-7.445312 4.296875v5.394532c0 2.375 3.320312 4.296874 7.445312 4.296874 4.117188 0 7.429688-1.921874 7.429688-4.296874v-5.394532c0-2.382812-3.3125-4.296875-7.429688-4.296875zm0 0" fill="none" stroke="#db161b" stroke-width=".275233"/><path d="m138.453125 91.429688h8.835937c.300782 0 .546876.351562.546876.78125v2.859374c0 .4375-.246094.78125-.546876.78125h-8.835937c-.292969 0-.539063-.34375-.539063-.78125v-2.859374c0-.429688.246094-.78125.539063-.78125zm0 0" fill="#fff" fill-rule="evenodd" stroke="#db161b" stroke-width=".275233"/><path d="m129.148438 90.699219h5.152343c.179688 0 .316407.464843.316407 1.039062v3.808594c0 .582031-.136719 1.042969-.316407 1.042969h-5.152343c-.175782 0-.316407-.460938-.316407-1.042969v-3.808594c0-.574219.140625-1.039062.316407-1.039062zm0 0" fill="#fff" fill-rule="evenodd" stroke="#db161b" stroke-width=".275233"/><path d="m101.878906 90.699219h5.160156c.171876 0 .308594.464843.308594 1.039062v3.808594c0 .582031-.136718 1.042969-.308594 1.042969h-5.160156c-.171875 0-.308594-.460938-.308594-1.042969v-3.808594c0-.574219.136719-1.039062.308594-1.039062zm0 0" fill="#fff" fill-rule="evenodd" stroke="#db161b" stroke-width=".275233"/><path d="m84.007812 89.957031h10.3125c.347657 0 .632813.578125.632813 1.304688v4.757812c0 .726563-.285156 1.304688-.632813 1.304688h-10.3125c-.339843 0-.625-.578125-.625-1.304688v-4.757812c0-.726563.285157-1.304688.625-1.304688zm0 0" fill="#fff" fill-rule="evenodd" stroke="#db161b" stroke-width=".275233"/><path d="m155.851562 90.699219h9.570313c.324219 0 .585937.585937.585937 1.300781v4.761719c0 .722656-.261718 1.300781-.585937 1.300781h-9.570313c-.328124 0-.585937-.578125-.585937-1.300781v-4.761719c0-.714844.257813-1.300781.585937-1.300781zm0 0" fill="#fff" fill-rule="evenodd" stroke="#db161b" stroke-width=".275233"/></svg>