<svg viewBox="0 0 1000 667" xmlns="http://www.w3.org/2000/svg" xmlns:xlink="http://www.w3.org/1999/xlink"><clipPath id="a"><path d="m0 0h1000v666.71875h-1000zm0 0"/></clipPath><clipPath id="b"><path d="m250 0h750v666.71875h-750zm0 0"/></clipPath><g clip-path="url(#a)"><path d="m0 666.667969v-666.667969h1000v666.667969zm0 0" fill="#fff" fill-rule="evenodd"/></g><g clip-path="url(#b)"><path d="m250 0h750v666.667969h-750zm0 0" fill="#01411c" fill-rule="evenodd"/></g><path d="m825 333.332031c0 110.457031-89.546875 200-200 200s-200-89.542969-200-200c0-110.453125 89.546875-200 200-200s200 89.546875 200 200zm0 0" fill="#fff" fill-rule="evenodd"/><path d="m813.144531 166.089844c67.269531 75.679687 60.457031 191.558594-15.222656 258.828125-75.675781 67.265625-191.558594 60.449219-258.828125-15.226563-67.261719-75.679687-60.449219-191.554687 15.230469-258.824218 75.671875-67.269532 191.550781-60.453126 258.820312 15.222656zm0 0" fill="#01411c" fill-rule="evenodd"/><path d="m658.3125 251.296875 47.3125 10.375 4.753906 48.195313 24.484375-41.785157 47.316407 10.375-32.183594-36.207031 24.484375-41.789062-44.371094 19.417968-32.179687-36.203125 4.753906 48.203125zm0 0" fill="#fff" stroke="#fff" stroke-linecap="square" stroke-miterlimit="3.239307"/></svg>