<svg viewBox="0 0 1000 500" xmlns="http://www.w3.org/2000/svg"><path d="m583.332031 125c0 184.09375-149.238281 333.332031-333.332031 333.332031s-333.332031-149.238281-333.332031-333.332031 149.238281-333.332031 333.332031-333.332031 333.332031 149.238281 333.332031 333.332031zm0 0" fill="#00247d" fill-rule="evenodd"/><path d="m-83.332031-41.667969 666.664062 333.335938zm0 333.335938 666.664062-333.335938zm0 0" fill-rule="evenodd"/><path d="m-83.332031-41.667969 666.664062 333.335938" fill="none" stroke="#fff" stroke-width="50"/><path d="m-83.332031 291.667969 666.664062-333.335938" fill="none" stroke="#fff" stroke-width="50"/><path d="m-83.332031-41.667969 666.664062 333.335938zm0 333.335938 666.664062-333.335938zm0 0" fill-rule="evenodd"/><path d="m-83.332031-41.667969 666.664062 333.335938" fill="none" stroke="#cf142b" stroke-width="33.333333"/><path d="m-83.332031 291.667969 666.664062-333.335938" fill="none" stroke="#cf142b" stroke-width="33.333333"/><path d="m250 125 333.332031 166.667969h-50l-333.332031-166.667969zm0 0 333.332031-166.667969h50l-333.332031 166.667969zm0 0-333.332031 166.667969h-50l333.332031-166.667969zm0 0-333.332031-166.667969h50l333.332031 166.667969zm0 0" fill="#fff" fill-rule="evenodd"/><path d="m-83.332031 125h666.664062zm333.332031-166.667969v333.335938zm0 0" fill-rule="evenodd"/><path d="m-83.332031 125h666.664062" fill="none" stroke="#fff" stroke-width="83.333333"/><path d="m250-41.667969v333.335938" fill="none" stroke="#fff" stroke-width="83.333333"/><path d="m-83.332031 125h666.664062zm333.332031-166.667969v333.335938zm0 0" fill-rule="evenodd"/><path d="m-83.332031 125h666.664062" fill="none" stroke="#cf142b" stroke-width="50"/><path d="m250-41.667969v333.335938" fill="none" stroke="#cf142b" stroke-width="50"/><path d="m0 500v-250h500v-250h500v500zm0 0" fill="#00247d" stroke="#00247d" stroke-width="50"/><path d="m667.253906 265.136719c-10.671875 9.050781-20.832031 22.234375-23.328125 34.152343-7.023437 33.558594-16.359375 41.027344-30.769531 33.816407 0 18.015625 15.804688 19.40625 22.730469 8.871093 0 16.910157 6.128906 31.566407 19.957031 44.074219 5.820312 5.265625 6.929688 1.664063 4.160156-4.152343-2.773437-5.824219-2.773437-24.675782-8.316406-35.488282 8.871094 6.378906 21.898438 2.777344 20.789062-14.6875-11.363281 6.652344-22.660156 6.390625-23.839843-9.425781-1.382813-18.574219 5.863281-45.519531 18.617187-57.160156zm0 0" fill="#f7e017" fill-rule="evenodd" stroke="#000" stroke-width=".492788"/><path d="m653.757812 131.632812c.753907-6.65625-.667968-13.496093-5.535156-17.785156-9.398437-8.277344-18.609375-5.535156-25.460937 1.128906-10.257813-5.542968-15.707031 14.117188-27.347657 10.789063 1.941407 6.375 4.992188 9.152344 10.8125 6.933594-6.101562 5.542969 0 12.195312-7.207031 18.847656 13.027344 4.160156 19.957031-3.046875 19.40625-15.523437 4.988281 4.433593 12.746094 4.15625 16.90625-.832032-6.929687-2.214844-6.964843-8.25-4.160156-13.859375 4.160156-8.316406 23.695313-7.992187 22.585937 10.300781zm0 0" fill="#f7e017" fill-rule="evenodd" stroke="#000" stroke-width=".492788"/><path d="m683.839844 228.050781c-14.691406 7.761719-41.578125 4.4375-44.074219-14.691406-2.492187-19.125 16.078125-27.71875 21.070313-30.214844 7.777343-3.886719 13.855468 3.050781 11.363281 11.089844 8.589843-3.046875 10.535156-13.027344 6.378906-18.851563 11.363281.832032 21.898437-7.761718 26.332031-19.953124-3.984375 3.792968-14.855468 1.226562-23.804687.648437 2.773437-3.046875 2.734375-8.964844 1.90625-12.015625-9.425781 9.699219-23.007813 5.265625-41.023438 33.261719 2.769531-9.703125 8.035157-29.105469 11.082031-41.855469.308594-1.277344.542969-2.53125.6875-3.835938 1.109376-18.292968-18.402343-18.621093-22.5625-10.308593 4.558594 5.144531 2.167969 11.148437.535157 20.242187-1.941407 10.808594-6.101563 35.757813-9.703125 44.074219-1.109375-13.027344-9.703125-13.859375-11.367188-20.234375-2.492187 1.664062-3.875 6.097656-3.324218 9.144531-3.050782-3.324219-13.582032.832031-17.464844-4.15625-4.15625 8.316407 2.5 16.632813 9.425781 20.234375-4.015625.277344-4.988281 5.132813-9.425781 5.132813 5.960937 6.929687 12.058594 9.699219 19.125 10.25 7.070312.554687 12.335937 3.1875 16.632812 11.78125 6.929688 13.859375 33.335938 22.867187 58.210938 10.257812zm0 0" fill="#337321" fill-rule="evenodd" stroke="#000" stroke-width=".492788"/><path d="m720.429688 211.140625c-8.3125 23.011719-31.046876 39.363281-41.304688 41.859375-17.449219 4.242188-53.050781 21.523438-62.605469 30.417969-1.507812-.332031-2.910156-.882813-3.917969-1.589844-4.710937-3.328125-8.589843-14.140625-.277343-23.289063 26.058593-24.386718 54.054687-13.855468 71.515625-30.488281-14.691406 7.761719-41.578125 4.4375-44.074219-14.691406 15.800781 4.15625 44.351563 4.433594 67.082031-19.957031 3.046875 3.324218 11.917969 13.859375 13.582032 17.738281zm0 0" fill="#f7e017" fill-rule="evenodd" stroke="#000" stroke-width=".492788"/><path d="m667.253906 265.136719c-13.167968 11.167969-20 38.585937-18.617187 57.160156.386719 5.164063 1.839843 8.667969 4.03125 10.816406.972656-10.535156 8.296875-37.75 27.015625-49.902343 15.800781-10.253907 40.46875-33.261719 49.617187-59.59375-1.664062-4.714844-4.433593-8.042969-9.699219-11.363282-9.054687 24.847656-33.363281 36.769532-52.347656 52.882813zm0 0" fill="#337321" fill-rule="evenodd" stroke="#000" stroke-width=".492788"/><path d="m711.980469 200.472656c-4.71875 7.066406-15.390625 16.769532-25.644531 20.648438 2.21875-2.492188 2.910156-5.683594 3.046874-8.316406-13.027343 4.988281-39.082031 4.4375-49.617187.554687 15.800781 4.15625 44.351563 4.433594 67.082031-19.957031 2.21875 2.496094 4.15625 4.714844 5.132813 7.070312zm0 0" fill="#316d3a" fill-rule="evenodd" stroke="#000" stroke-width=".492788"/><path d="m612.324219 258.539062c-21.1875 19.832032-7.207031 37.148438 1.109375 41.03125-2.214844 13.859376 10.8125 12.191407 10.53125 23.835938 5.265625-3.050781 6.65625-11.089844 5.824218-17.464844 6.648438 7.210938 23.558594-.832031 27.160157 12.476563 2.222656-14.695313-9.140625-29.382813-23.28125-28 5.820312-5.265625 2.496093-13.859375-3.046875-16.078125-1.109375 10.8125-13.308594 10.8125-18.019532 7.488281-4.710937-3.328125-8.589843-14.140625-.277343-23.289063zm0 0" fill="#337321" fill-rule="evenodd" stroke="#000" stroke-width=".492788"/><path d="m658.203125 384.667969c-2.316406 1.320312-2.148437 4.300781-.695313 6.234375 2.910157 3.882812-2.050781 12.675781 7.34375 14.550781 2.777344.558594 4.90625-1.140625 5.960938-4.296875 2.910156-8.730469-6.375-9.699219-7.207031-13.855469-.832031-4.160156-3.464844-3.746093-5.402344-2.632812zm0 0" fill="#f7e017" fill-rule="evenodd" stroke="#000" stroke-width=".492788"/><path d="m666.101562 401.019531c-3.109374 1.433594-5.824218 3.464844-4.574218 13.441407.511718 4.128906.277344 14.140624-3.324219 14.277343 2.214844 1.113281 6.929687 2.285157 8.867187-.277343 1.871094 3.117187 6.097657 2.21875 7.761719-1.660157 2.21875 1.800781 5.269531-1.246093 5.269531-3.882812 1.9375 1.246093 5.820313-.554688 4.847657-6.511719 2.359375.824219 5.40625-.835938 6.515625-2.355469-3.46875-.695312-12.195313-5.40625-14.273438-9.148437-2.082031-3.746094-7.484375-5.546875-11.089844-3.882813zm0 0" fill="#f7e017" fill-rule="evenodd" stroke="#000" stroke-width=".492788"/><path d="m618.074219 120.675781c1.394531-2.074219 2.957031-4.011719 4.6875-5.699219" fill="none" stroke="#000" stroke-width=".492788"/><path d="m670.8125 157.363281c2.449219-1.394531 6.164062-1.546875 10.292969-1.285156" fill="none" stroke="#000" stroke-width=".492788"/><path d="m667.070312 428.460938c-.96875-1.382813-1.316406-7.203126-.625-10.738282" fill="none" stroke="#000" stroke-width=".492788"/><path d="m674.832031 426.800781c-1.523437-1.183593-4.433593-5.199219-4.917969-8.734375" fill="none" stroke="#000" stroke-width=".492788"/><path d="m680.101562 422.917969c-1.945312-.898438-6.65625-7-7.699218-10.945313" fill="none" stroke="#000" stroke-width=".492788"/><path d="m684.949219 416.40625c-2.289063-.488281-9.28125-5.0625-12.195313-9.914062" fill="none" stroke="#000" stroke-width=".492788"/><path d="m812.738281 258.816406c34.097657 28.554688 36.308594 51.28125 31.042969 64.589844-2.769531-12.472656-16.910156-31.878906-31.601562-36.867188zm0 0" fill="#f7e017" fill-rule="evenodd" stroke="#000" stroke-width=".492788"/><path d="m751.753906 242.742188h63.199219v74.84375c0 63.753906-35.476563 101.449218-71.515625 121.40625-36.035156-19.957032-71.519531-57.652344-71.519531-121.40625v-74.84375h44.355469c.066406 3.878906.417968 9.703124 4.988281 15.523437 10.464843-1.039063 22.3125-8.871094 30.492187-15.523437zm0 0" fill="#337321" fill-rule="evenodd" stroke="#000" stroke-width=".492788"/><path d="m814.953125 242.742188v74.84375c0 19.246093-3.234375 36.117187-8.738281 50.84375l-62.777344-115.152344-62.777344 115.152344c-5.507812-14.726563-8.742187-31.597657-8.742187-50.84375v-74.84375zm0 0" fill="#006ec7" fill-rule="evenodd" stroke="#000" stroke-width=".492788"/><path d="m808.125 362.90625c-1.105469 3.394531-3.117188 8.902344-4.675781 12.296875l-60.011719-111.527344-60.015625 111.527344c-1.554687-3.394531-3.566406-8.902344-4.675781-12.296875l64.691406-119.949219zm0 0" fill="#f7e017" fill-rule="evenodd"/><path d="m771.972656 403.917969c1.664063.832031 4.722656 2.367187 6.117188 2.921875 3.324218-6.652344 3.875-16.078125 2.769531-24.394532-3.605469 9.152344-15.804687 8.871094-19.125 14.414063 2.046875 1.023437 3.945313 2.367187 5.578125 3.546875-4.160156 4.15625-13.898438 11.144531-19.441406 12.808594v-59.457032c0-4.15625-1.386719-7.625-1.386719-11.085937v-12.292969c0-2.769531-.550781-6.789062-3.046875-6.789062s-3.050781 4.019531-3.050781 6.789062v12.292969c0 3.460937-1.386719 7.480469-1.386719 11.085937v59.457032c-3.046875-8.867188-14.984375-5.832032-20.53125-14.703125 2.167969-.53125 4.453125-.6875 6.675781-.265625-4.15625-14.136719-15.527343-15.242188-17.742187-19.402344 0 5.824219-2.492188 19.402344 1.386718 25.226562.871094-1.042968 2.179688-2.117187 3.75-3.078124 4.714844 10.257812 25.910157 10.28125 30.898438 27.195312 4.007812-6.210938 18.433594-13.425781 28.535156-24.269531zm0 0" fill="#f7e017" fill-rule="evenodd" stroke="#000" stroke-width=".492788"/><path d="m743.4375 354.449219c4.710938 0 19.679688-1.53125 25.085938-1.53125 1.40625 0 2.550781-2.105469 2.550781-4.703125s-1.144531-4.703125-2.550781-4.703125c-5.40625 0-20.375-1.535157-25.085938-1.535157s-19.679688 1.535157-25.085938 1.535157c-1.40625 0-2.546874 2.105469-2.546874 4.703125s1.140624 4.703125 2.546874 4.703125c5.40625 0 20.375 1.53125 25.085938 1.53125zm0 0" fill="#f7e017" fill-rule="evenodd" stroke="#000" stroke-width=".492788"/><path d="m740.402344 330.085938c-1.003906-.804688-2.316406-1.292969-3.753906-1.292969-3.140626 0-5.683594 2.324219-5.683594 5.191406 0 2.863281 2.542968 5.1875 5.683594 5.1875 3.136718 0 5.683593-2.324219 5.683593-5.1875 0-2.21875 3.222657-2.21875 3.222657 0 0 4.488281-3.984376 8.128906-8.90625 8.128906-4.917969 0-8.910157-3.640625-8.910157-8.128906 0-4.492187 3.992188-8.132813 8.910157-8.132813 1.472656 0 2.867187.324219 4.09375.90625-.113282.746094-.339844 2.132813-.339844 3.328126zm0 0" fill="#f7e017" fill-rule="evenodd" stroke="#000" stroke-width=".492788"/><path d="m718.351562 352.917969c1.40625 0 2.546876-2.105469 2.546876-4.703125s-1.140626-4.703125-2.546876-4.703125zm0 0" fill="#f7e017" fill-rule="evenodd"/><path d="m718.351562 352.917969c1.40625 0 2.546876-2.105469 2.546876-4.703125s-1.140626-4.703125-2.546876-4.703125" fill="none" stroke="#000" stroke-width=".492788"/><path d="m720.445312 352.917969c1.410157 0 2.546876-2.105469 2.546876-4.703125s-1.136719-4.703125-2.546876-4.703125zm0 0" fill="#f7e017" fill-rule="evenodd"/><path d="m720.445312 352.917969c1.410157 0 2.546876-2.105469 2.546876-4.703125s-1.136719-4.703125-2.546876-4.703125" fill="none" stroke="#000" stroke-width=".492788"/><path d="m734.132812 353.886719c1.691407 0 3.066407-2.539063 3.066407-5.671875 0-3.132813-1.375-5.667969-3.066407-5.667969zm0 0" fill="#f7e017" fill-rule="evenodd"/><path d="m734.132812 353.886719c1.691407 0 3.066407-2.539063 3.066407-5.671875 0-3.132813-1.375-5.667969-3.066407-5.667969" fill="none" stroke="#000" stroke-width=".492788"/><path d="m737.316406 354.144531c1.773438 0 3.210938-2.65625 3.210938-5.929687 0-3.273438-1.4375-5.929688-3.210938-5.929688zm0 0" fill="#f7e017" fill-rule="evenodd"/><path d="m737.316406 354.144531c1.773438 0 3.210938-2.65625 3.210938-5.929687 0-3.273438-1.4375-5.929688-3.210938-5.929688" fill="none" stroke="#000" stroke-width=".492788"/><path d="m747.953125 354.207031c1.789063 0 3.246094-2.679687 3.246094-5.992187s-1.457031-5.996094-3.246094-5.996094zm0 0" fill="#f7e017" fill-rule="evenodd"/><path d="m747.953125 354.207031c1.789063 0 3.246094-2.679687 3.246094-5.992187s-1.457031-5.996094-3.246094-5.996094" fill="none" stroke="#000" stroke-width=".492788"/><path d="m751.316406 354.019531c1.773438 0 3.207032-2.601562 3.207032-5.804687 0-3.207032-1.433594-5.804688-3.207032-5.804688zm0 0" fill="#f7e017" fill-rule="evenodd"/><path d="m751.316406 354.019531c1.773438 0 3.207032-2.601562 3.207032-5.804687 0-3.207032-1.433594-5.804688-3.207032-5.804688" fill="none" stroke="#000" stroke-width=".492788"/><path d="m766.199219 353.011719c1.4375 0 2.605469-2.148438 2.605469-4.796875 0-2.648438-1.167969-4.796875-2.605469-4.796875zm0 0" fill="#f7e017" fill-rule="evenodd"/><path d="m766.199219 353.011719c1.4375 0 2.605469-2.148438 2.605469-4.796875 0-2.648438-1.167969-4.796875-2.605469-4.796875" fill="none" stroke="#000" stroke-width=".492788"/><path d="m712.539062 400.992188c1.71875-1.050782 3.761719-1.953126 5.929688-2.480469zm0 0" fill="#f7e017" fill-rule="evenodd"/><path d="m712.539062 400.992188c1.71875-1.050782 3.761719-1.953126 5.929688-2.480469" fill="none" stroke="#000" stroke-width=".492788"/><path d="m768.941406 401.574219c-.507812-.363281-1.054687-.75-1.628906-1.167969zm0 0" fill="#f7e017" fill-rule="evenodd"/><path d="m768.941406 401.574219c-.507812-.363281-1.054687-.75-1.628906-1.167969" fill="none" stroke="#000" stroke-width=".492788"/><path d="m771.972656 403.917969c3.882813-4.171875 7.117188-8.878907 8.886719-14.265625zm0 0" fill="#f7e017" fill-rule="evenodd"/><path d="m771.972656 403.917969c3.882813-4.171875 7.117188-8.878907 8.886719-14.265625" fill="none" stroke="#000" stroke-width=".492788"/><path d="m730.746094 295.648438c0-1.347657 1.109375-1.925782 2.402344-2.90625 1.558593-1.183594 2.183593-1.734376 3.601562-1.734376h18.195312c1.347657 0 1.660157.34375 1.660157 1.59375v24.738282c0 1.246094-.3125 1.597656-1.660157 1.597656h-24.199218v-23.527344zm0 0" fill="#fff" fill-rule="evenodd"/><path d="m730.746094 295.648438c0-1.347657 1.109375-1.925782 2.402344-2.90625 1.558593-1.183594 2.183593-1.734376 3.601562-1.734376h18.195312c1.347657 0 1.660157.34375 1.660157 1.59375v24.738282c0 1.246094-.3125 1.597656-1.660157 1.597656h-24.199218v-23.527344" fill="none" stroke="#000" stroke-width=".492788"/><path d="m750.441406 321.085938c2.386719 0 1.957032-.054688 3.636719-1.734376 1.75-1.75 1.585937-1.59375 1.585937-3.203124v-22.617188c0-1.167969-.289062-1.496094-1.542968-1.496094h-16.832032c-1.320312 0-1.894531.523438-3.335937 1.621094-1.199219.914062-2.210937 1.460938-2.210937 2.722656v24.707032zm0 0" fill="#e5e5e5" fill-rule="evenodd" stroke="#000" stroke-width=".492788"/><path d="m752.242188 320.566406c0 1.242188-.3125 1.59375-1.664063 1.59375h-18.1875c-1.355469 0-1.644531-.351562-1.644531-1.59375v-24.742187c0-1.25.289062-1.59375 1.644531-1.59375h18.1875c1.351563 0 1.664063.34375 1.664063 1.59375zm0 0" fill="#fff" fill-rule="evenodd" stroke="#000" stroke-width=".492788"/><path d="m787.503906 228.246094c3.542969 3.949218 4.710938 9.273437 2.78125 14.46875h-5.265625c2.210938-6.652344.828125-13-8.59375-13.832032-14.097656-1.242187-30.492187 26.058594-55.164062 29.382813-7.207031-8.59375-6.820313-24.960937 2.328125-32.722656-4.730469-13.632813-14.71875-28.628907-21.628906-35.117188-4.523438-.734375-9.753907-1.101562-13.128907-.902343 3.597657-7.765626 13.871094-15.933594 22.1875-19.261719 1.347657-1.964844 2.789063-3.855469 4.144531-5.546875.832032-10.675782 51.554688-5.6875 62.367188.96875 0 11.917968 4.707031 51.75 9.972656 62.5625zm0 0" fill="#96877d" fill-rule="evenodd" stroke="#000" stroke-width=".492788"/><path d="m726.019531 235.523438c-1.207031-18.480469-8.671875-33.691407-19.171875-44.058594 4.988282 1.382812 15.246094 1.382812 22.175782-3.605469 9.148437-6.101563 32.988281-16.773437 41.71875-12.195313.691406 1.519532 1.109374 4.988282.550781 7.207032-2.074219-5.546875-25.085938 3.046875-31.597657 5.679687-6.234374 2.914063-9.007812 6.789063-6.792968 15.523438-3.601563-3.050781-2.355469-5.957031-6.097656-8.175781 1.527343 3.601562 2.773437 10.113281 3.1875 15.378906-1.386719-3.738282-3.882813-11.777344-9.285157-16.488282 4.714844 9.144532 8.800781 31.113282 6.863281 42.753907 3.742188 0 11.988282-3.671875 15.3125-6.304688-2.910156 4.15625-11.296874 7.066407-16.699218 8.179688-2.425782 2.90625-4.089844 10.390625-3.949219 14.550781-.417969-5.128906 1.199219-17.628906 3.785156-18.445312zm0 0" fill-rule="evenodd"/><path d="m787.503906 228.246094c-4.589844-5.109375-13.152344-7.875-24.109375-4.90625 1.660157-.835938 5.265625-2.21875 8.457031-2.769532-.417968-2.914062-3.046874-15.386718-3.46875-18.4375l3.050782-1.246093c1.523437 7.484375 3.464844 16.078125 4.714844 19.539062.96875.28125 3.183593.695313 5.125 1.664063-.828126-2.910156-5.546876-23.835938-5.402344-26.054688l4.152344-2.214844c1.667968 11.363282 4.296874 27.855469 7.480468 34.425782zm0 0" fill-rule="evenodd"/><g stroke="#000" stroke-width=".492788"><path d="m785.019531 242.714844c2.210938-6.652344.828125-13-8.59375-13.832032-7.308593-.644531-15.230469 6.457032-24.609375 13.832032zm0 0" fill="#96877d" fill-rule="evenodd"/><path d="m723.757812 183.007812c-4.15625.554688-13.441406-.277343-18.160156-1.800781.273438-1.25.757813-2.546875 1.378906-3.921875-2.910156 1.941406-8.445312 5.722656-10.523437 8.355469 6.65625 1.386719 20.382813 2.074219 27.304687-2.632813zm0 0" fill="#96877d" fill-rule="evenodd"/><path d="m723.589844 225.542969c1.527344 4.417969 2.523437 8.6875 2.664062 12.484375" fill="none"/><path d="m711.019531 170.261719c-2.515625 3.675781-4.699219 7.605469-5.421875 10.945312 4.71875 1.523438 14.003906 2.355469 18.160156 1.800781" fill="none"/><path d="m701.960938 190.425781c1.792968.292969 3.472656.644531 4.886718 1.039063 4.988282 1.382812 15.246094 1.382812 22.175782-3.605469 6.929687-4.988281 25.777343-20.511719 47.125-22.175781" fill="none"/><path d="m696.453125 185.640625c6.65625 1.386719 20.382813 2.074219 27.304687-2.632813 16.078126-10.949218 31.597657-17.324218 47.121094-18.15625" fill="none"/><path d="m812.738281 258.816406c23.28125 16.082032 40.46875 31.601563 45.457031 56.550782 4.988282 24.949218 14.417969 31.601562 26.058594 24.949218-2.773437 14.410156-17.1875 16.078125-29.382812 4.988282 1.105468 16.628906-5.546875 36.59375-22.730469 43.796874-1.109375-9.984374 5.484375-17.882812 3.601563-26.058593-.828126-3.601563-1.105469-11.921875 3.605468-15.796875-9.148437 3.046875-23.558594-2.777344-24.949218-16.355469 10.53125 4.988281 24.113281 5.820313 29.382812-7.484375 5.265625-13.308594 3.054688-36.035156-31.042969-64.589844zm0 0" fill="#337321" fill-rule="evenodd"/><path d="m842.117188 129.09375c7.207031-18.847656 26.058593-16.910156 32.433593-8.871094 18.570313-10.535156 21.066407 13.304688 36.863281 8.59375-.273437 4.4375-5.542968 8.59375-11.359374 8.316406 6.09375 5.542969-2.496094 13.859376 10.527343 18.847657-11.082031 5.542969-26.609375-.273438-30.765625-15.523438-3.605468 7.207031-16.632812 7.207031-21.898437 1.390625 11.367187-3.054687 10.535156-13.585937 4.160156-17.742187-6.421875-4.191407-17.742187-2.496094-19.960937 4.988281zm0 0" fill="#337321" fill-rule="evenodd"/><path d="m785.886719 170.601562c5.171875 16.683594 15.875 32.191407 27.402343 42.757813 13.304688 12.199219 33.402344 9.144531 44.628907-2.496094.277343 23.21875-23.765625 25.015625-37.144531 17.742188-5.894532-3.207031-10.660157-1.523438-4.984376 3.605469 8.589844 7.757812 27.386719 13.527343 49.613282 18.292968 38.804687 8.3125 24.949218 39.082032 13.585937 38.804688 3.253907-.066406 5.929688-3.476563 1.242188-7.6875-33.675781-30.285156-102.140625-18.367188-101.035157-86-7.207031 17.738281-36.863281 10.808594-23.007812-10.257813 4.433594 3.605469 12.195312 3.882813 14.417969-1.664062 1.722656-4.3125.59375-11.816407-7.171875-18.261719 1.277344-.101562 4.019531.003906 3.738281-3.183594.34375 1.871094 2.046875 4.640625 6.410156 3.703125 1.246094 1.980469 2.558594 3.277344 4.332031 2.566407.34375-.140626 1.386719-.65625.96875-2.632813.347657 3.671875 4.710938 4.992187 7.003907 4.710937zm0 0" fill="#337321" fill-rule="evenodd"/><path d="m820.773438 228.605469c16.074218 10.535156 34.253906 10.527343 51.003906-8.871094 5.269531-6.097656 13.582031-11.363281 19.40625-11.917969 5.816406-.554687 5.539062-6.101562 9.976562-7.207031-2.773437-.832031-3.882812-4.15625-8.039062-3.742187 10.394531-3.605469 7.347656-11.917969 12.472656-15.9375-4.15625 1.523437-10.667969-4.714844-16.628906 3.183593 1.527344-3.601562-.558594-7.898437-2.078125-9.5625.550781 4.160157-8.179688 4.988281-9.839844 15.523438-.9375 5.914062-4.160156 5.546875-4.714844-3.601563-.40625-6.691406-3.601562-25.226562-7.484375-34.648437-3.882812-9.425781-4.769531-22.363281.496094-24.304688-.789062-1.339843-1.902344-2.523437-3.265625-3.414062-6.421875-4.191407-17.742187-2.496094-19.960937 4.988281-7.203126 18.847656 13.03125 29.660156 11.367187 50.171875-3.050781-15.246094-27.71875-19.125-27.441406-34.097656-8.042969 3.605469-6.933594 10.261719-3.882813 15.527343-4.988281-7.761718-16.355468 4.988282-26.058594-5.546874-1.105468 13.863281 11.09375 19.128906 21.070313 19.679687-4.992187 8.871094 1.664063 16.359375 8.3125 18.851563.28125-15.523438 32.109375-9.152344 32.433594 17.460937.277343 22.730469-24.117188 24.671875-37.144531 17.464844zm0 0" fill="#f7e017" fill-rule="evenodd"/><path d="m865.402344 250.503906c38.804687 8.3125 24.949218 39.082032 13.585937 38.804688-7.238281-.171875-14.140625-6.234375-14.554687-11.5-8.316406 4.433594-6.097656 13.167968.277344 16.628906-17.464844-2.078125-24.808594 9.425781-25.226563 22.039062 3.1875-5.824218 12.890625-6.238281 16.492187-4.988281 3.605469 1.242188 12.886719 1.941407 16.636719-2.21875-3.054687 2.632813 1.9375 8.730469-2.359375 13.445313 14.550782-.554688 20.929688-14.140625 18.433594-20.097656 18.847656-17.1875 15.242188-45.183594-23.285156-52.113282zm0 0" fill="#f7e017" fill-rule="evenodd"/><path d="m835.855469 382.207031c2.527343 1.578125 2.210937 4.890625.5 6.988281-3.417969 4.207032 1.738281 14.238282-8.832031 15.925782-3.117188.5-5.429688-1.488282-6.464844-5.054688-2.867188-9.871094 7.542968-10.550781 8.648437-15.152344 1.113281-4.609374 4.035157-4.03125 6.148438-2.707031zm0 0" fill="#f7e017" fill-rule="evenodd"/><path d="m826.324219 400.117188c3.414062 1.738281 6.34375 4.117187 4.523437 15.203124-.757812 4.585938-.929687 15.765626 3.085938 16.082032-2.523438 1.136718-7.835938 2.25-9.886719-.695313-2.226563 3.394531-6.902344 2.207031-8.59375-2.199219-2.550781 1.917969-5.820313-1.621093-5.707031-4.5625-2.21875 1.3125-6.46875-.871093-5.132813-7.480468-2.664062.828125-5.996093-1.160156-7.164062-2.914063 3.898437-.625 13.847656-5.5 16.332031-9.585937 2.480469-4.085938 8.59375-5.863282 12.542969-3.847656zm0 0" fill="#f7e017" fill-rule="evenodd"/><path d="m824.046875 430.707031c1.140625-1.507812 1.785156-7.988281 1.164063-11.964843" fill="none"/><path d="m815.453125 428.507812c1.757813-1.246093 5.175781-5.605468 5.878906-9.527343" fill="none"/><path d="m809.746094 423.945312c2.203125-.914062 7.730468-7.519531 9.066406-11.886718" fill="none"/><path d="m804.613281 416.464844c2.578125-.441406 10.585938-5.238282 14.046875-10.523438" fill="none"/><path d="m779.195312 195.621094c-.46875 28.410156 11.34375 42.78125 27.703126 52.144531-6.082032-3.636719-3.449219-16.113281-11.625-20.128906 1.9375-.140625 4.988281 2.632812 9.839843 1.523437-2.355469-5.265625-6.242187-13.308594-15.25-14.414062 2.359375-.277344 7.488281.554687 10.816407-.691406-4.714844-7.210938-17.1875-3.746094-21.484376-18.433594zm0 0" fill="#f7e017" fill-rule="evenodd"/><path d="m776.253906 168.597656c-.996094-.324218-1.84375-1.328125-2.671875-2.640625-4.363281.9375-6.066406-1.832031-6.410156-3.703125.28125 3.1875-2.480469 3.066406-3.761719 3.167969 7.804688 6.453125 8.921875 13.957031 7.195313 18.277344-2.222657 5.546875-9.984375 5.269531-14.417969 1.664062-.550781 11.78125 14.691406 15.660157 20.238281.832031 0 2.492188 3.183594 2.214844 4.019531 5.542969 3.957032-6.371093.96875-15.523437-4.191406-23.140625zm0 0" fill="#f7e017" fill-rule="evenodd"/><path d="m751.890625 112.320312c-6.929687-6.371093-10.117187-17.042968-9.839844-23.144531.28125-6.09375 2.773438-12.746093 11.644531-9.976562-2.777343 0-.832031 5.542969-3.746093 6.101562 2.359375.828125 5.546875-1.113281 5.964843-2.363281.550782 1.941406 4.15625 1.386719 4.433594 3.605469 1.386719-1.105469-.136718-6.515625-2.21875-7.621094 1.523438-.832031 2.355469-5.128906 1.660156-7.210937-1.382812.28125-3.460937 2.21875-3.875 4.996093.691407-2.21875-.140624-7.765625-4.023437-8.59375-1.109375 1.523438-1.386719 5.261719.140625 7.34375-3.601562-.832031-8.871094 1.523438-10.121094 4.570313.28125-3.671875.785156-8.902344 3.050782-12.191406.761718-1.113282-1.109376-3.054688-2.566407-.417969-2.699219-5.269531-9.902343-8.039063-13.09375-5.40625-3.191406 2.632812-7.484375-1.246094-10.117187 2.910156-2.628906 4.15625-11.554688 4.597656-11.089844 9.007813.277344 2.636718-.359375 6.703124-1.660156 8.179687-3.1875 3.605469 1.523437 6.238281 2.355468 9.421875-.558593-10.527344 16.214844-31.042969 32.984376-23.003906-1.527344 2.632812-2.859376 7.890625-3.324219 14.273437-.691407 9.425781.691406 22.734375 9.835937 30.492188zm0 0" fill="#337321" fill-rule="evenodd"/><path d="m756.878906 79.335938c-.085937-2.496094 4.230469-5.738282 10.050782-5.683594 6.996093.070312 12.402343 6.445312 18.015624 5.824218 5.613282-.625 2.84375 2.492188 1.664063 3.324219-1.175781.832031-1.867187 2.078125-1.453125 3.605469.410156 1.523438-.304688 2.523438-2.5625 1.109375-4.992188-3.121094-9.980469 1.246094-16.566406-1.179687-5.707032-2.105469-9.007813-3.253907-9.148438-7zm0 0" fill="#cf142b" fill-rule="evenodd"/><path d="m728.332031 144.753906c-2.773437-8.730468-13.304687-18.292968-18.4375-20.511718l-.277343-4.710938c2.773437-1.109375 9.425781-6.375 12.476562-9.285156 20.789062 9.976562 49.0625-4.160156 62.089844-18.851563l4.992187 3.050781-2.492187 3.324219-2.636719-1.386719c-3.1875 3.882813-15.089844 15.078126-18.695313 17.4375 4.847657 1.222657 11.472657 2.070313 13.289063 1.96875 11.644531-8.316406 20.789063-15.800781 25.226563-16.355468l3.738281 4.988281-3.320313 2.355469-2.636718-1.523438c-12.472657 10.257813-26.609376 32.710938-32.15625 47.679688-7.757813-1.664063-35.480469-.558594-41.160157-8.179688zm0 0" fill="#96877d" fill-rule="evenodd"/><path d="m765.351562 113.820312c-1.792968-.453124-3.339843-.972656-4.3125-1.5-2.21875 2.078126-7.761718 3.882813-14.832031 4.160157" fill="none"/><path d="m729.441406 141.703125c-1.871094-10.324219 1.105469-21.757813 6.371094-25.222656 11.507812 7.625 31.1875 7.625 42.828125-.691407" fill="none"/><path d="m729.441406 136.300781c8.867188-.277343 28.132813 1.25 32.84375 1.941407 4.714844.691406 12.613282 2.628906 11.503906 4.988281" fill="none"/><path d="m733.539062 134.832031 2.550782-2.554687-2.550782-2.546875-2.542968 2.546875zm0 0" fill="none"/><path d="m739.558594 83.21875c-3.191406-4.433594-11.976563-5.839844-13.863282.136719-.828124 2.636719-2.074218 5.40625-4.15625 6.65625-2.078124 1.242187-1.589843 5.019531-.6875 6.652343 2.210938 4.015626.269532 7.898438 4.570313 10.53125 0-3.1875 4.710937-6.515624 8.734375-7.347656 4.015625-.828125 10.113281-4.433594 10.945312-8.453125.832032-4.019531 2.21875-7.34375-5.542968-8.175781zm0 0" fill="#337321" fill-rule="evenodd"/><path d="m719.601562 123.132812h1.105469l.019531 7.578126c.222657.082031.476563.1875.65625.351562l6.535157-3.769531.554687.960937-6.558594 3.804688c.046876.242187.082032.511718.03125.75l6.527344 3.773437-.554687.957031-6.570313-3.769531c-.183594.152344-.402344.320313-.636718.394531l-.003907 7.542969h-1.105469l-.015624-7.578125c-.234376-.082031-.484376-.1875-.664063-.351562l-6.535156 3.765625-.550781-.957031 6.550781-3.808594c-.042969-.238282-.078125-.507813-.027344-.746094l-6.523437-3.777344.550781-.960937 6.578125 3.777343c.179687-.152343.394531-.320312.632812-.394531zm0 0" fill="#96877d" fill-rule="evenodd"/><path d="m729.476562 141.671875c-2.386718 2.394531-5.679687 3.878906-9.324218 3.878906-7.253906 0-13.132813-5.878906-13.132813-13.132812 0-7.25 5.878907-13.128907 13.132813-13.128907 4.261718 0 8.050781 2.027344 10.449218 5.171876-.675781 1.652343-1.464843 5.359374-1.519531 7.042968-.460937-4.527344-4.285156-8.058594-8.929687-8.058594-4.957032 0-8.976563 4.015626-8.976563 8.972657 0 4.960937 4.019531 8.976562 8.976563 8.976562 4.148437 0 7.734375-2.902343 8.765625-6.722656-.003907 1.644531.039062 5.613281.558593 7zm0 0" fill="#96877d" fill-rule="evenodd"/><path d="m714.605469 154.179688c-.828125-.96875-2.347657-3.605469-2.214844-5.542969 1.25-.136719 3.605469.691406 4.710937 1.796875-.136718-1.382813-.6875-4.433594-.410156-5.816406 1.519532.550781 4.707032 2.355468 5.816406 4.433593-.273437-1.386719-.832031-4.988281-.273437-7.203125 1.664063.96875 4.433594 3.597656 4.988281 5.402344.136719-2.773438 1.109375-7.34375 1.941406-8.457031 1.242188 1.25 3.183594 2.355469 4.433594 4.023437.277344-2.21875 1.382813-4.851562 3.046875-5.542968 1.25 1.382812 3.191407 4.574218 3.601563 8.171874 1.253906-.414062 2.914062-2.492187 3.605468-3.597656.691407 1.105469 1.386719 3.046875.972657 5.402344 1.523437-1.386719 3.324219-3.328125 3.742187-4.988281 1.109375.828125 3.1875 2.90625 3.742188 5.125-.277344-1.800781-.140625-4.988281-.691406-6.789063 2.078124 1.105469 3.738281 3.046875 4.15625 5.125.554687-1.941406 1.800781-5.402344 2.910156-6.234375 1.105468 2.214844 2.21875 4.851563 2.078125 7.070313.691406-1.390625 1.804687-3.882813 2.910156-4.4375.972656 1.523437.835937 4.851562.554687 6.652344.972657-1.386719 2.773438-3.050782 3.878907-3.605469.140625.832031.277343 2.496093 0 3.746093 1.25-.695312 3.328125-4.4375 4.023437-6.375 1.9375.96875 3.878906 4.296876 4.019532 5.960938 1.382812-.558594 4.15625-3.054688 4.984374-4.4375 0 .96875.417969 3.601562-.136718 5.679688.832031-.828126 1.664062-2.492188 2.082031-3.183594.550781 1.382812.136719 4.710937-.417969 6.511718 1.25-1.109374 3.050782-1.800781 4.160156-1.800781.136719 2.355469-1.527343 6.515625-3.050781 9.5625-13.304687-3.742187-41.164062-5.125-69.164062-6.652343zm0 0" fill="#337321" fill-rule="evenodd"/></g><path d="m761.007812 80.753906c-.066406-1.023437 2.214844-3.332031 6.296876-3.308594 4.894531.027344 9.417968 3.621094 13.347656 3.363282 3.929687-.25 1.992187 1.023437 1.167968 1.367187-.828124.335938-1.316406.847657-1.023437 1.472657.292969.621093-.210937 1.03125-1.792969.453124-3.492187-1.277343-6.984375.511719-11.59375-.484374-4-.859376-6.304687-1.328126-6.402344-2.863282zm0 0" fill="#f7e017" fill-rule="evenodd"/><path d="m718.902344 162.496094c-4.152344 4.988281-8.3125 4.15625-9.144532.96875-.832031-3.1875 2.222657-4.710938 1.109376-7.484375-1.109376-2.769531 1.800781-4.019531 3.1875-2.769531 1.382812 1.246093 5.816406-2.777344 7.761718 1.382812 1.941406 4.160156 3.46875 7.066406 2.351563 8.730469-1.105469 1.667969-4.433594.835937-5.265625-.828125zm0 0" fill="#f7e017" fill-rule="evenodd" stroke="#000" stroke-width=".492788"/><path d="m736.785156 155.007812c-.78125-1.820312 3.535156-5.332031 5.75-2.839843 2.21875 2.496093 5.683594-2.703125 7.625 1.25 1.941406 3.945312 2.5625 6.027343 3.535156 8.242187.972657 2.21875-5.265624 3.398438-7.210937 1.457032.28125 1.320312-5.382813 2.347656-6.925781-1.386719-.832032-2.003907-1.734375-4.292969-2.773438-6.722657zm0 0" fill="#f7e017" fill-rule="evenodd" stroke="#000" stroke-width=".492788"/><path d="m765.613281 157.296875c-1.042969-1.9375 4.019531-4.714844 6.652344-1.175781.691406-1.457032 5.683594-1.734375 6.03125 2.492187.34375 4.226563.484375 6.722657.621094 8.386719.140625 1.664062-3.046875 3.1875-5.335938-1.042969-4.089843.835938-5.960937-1.449219-6.445312-3.875s-.96875-3.605469-1.523438-4.785156zm0 0" fill="#f7e017" fill-rule="evenodd" stroke="#000" stroke-width=".492788"/><path d="m721.609375 154.523438c-.621094-1.382813 3.535156-4.15625 6.371094-2.078126 2.847656 2.078126 6.78125-1.789062 8.460937 1.941407 3.394532 7.554687 3.601563 8.109375 2.558594 9.5625-1.039062 1.457031-5.472656.902343-6.582031-1.109375-.207031 1.390625-4.03125 1.15625-6.027344.070312-2.285156-1.25-3.882813-5.890625-4.78125-8.386718zm0 0" fill="#337321" fill-rule="evenodd" stroke="#000" stroke-width=".492788"/><path d="m750.78125 154.871094c-.96875-2.148438 5.546875-4.015625 8.386719-.277344 1.453125-1.316406 4.640625-1.382812 6.445312 2.703125 1.800781 4.089844 2.078125 6.375.761719 7.417969-.929688.726562-4.296875 1.3125-5.40625-.554688-1.523438.96875-6.238281.140625-7.273438-2.5-1.042968-2.632812-1.941406-4.917968-2.914062-6.789062zm0 0" fill="#337321" fill-rule="evenodd" stroke="#000" stroke-width=".492788"/><path d="m778.363281 158.960938c-.140625-1.941407 3.398438-2.839844 4.714844 0 1.316406 2.839843 5.523437.285156 5.890625 4.988281.066406.902343-.488281 4.367187-1.800781 6.03125-1.320313 1.664062-7.765625 0-8.179688-3.535157-.414062-3.535156-.554687-5.542968-.625-7.484374zm0 0" fill="#337321" fill-rule="evenodd" stroke="#000" stroke-width=".492788"/><path d="m718.902344 162.496094c-1.519532-2.078125-3.601563-5.40625-6.234375-1.800782" fill="none" stroke="#000" stroke-width=".492788"/><path d="m732.417969 162.839844c-.898438-1.179688-2.074219-3.113282-2.492188-4.640625" fill="none" stroke="#000" stroke-width=".492788"/><path d="m746.484375 163.117188c-.96875-.691407-2.425781-2.078126-3.1875-3.535157" fill="none" stroke="#000" stroke-width=".492788"/><path d="m745.238281 155.84375c2.425781.277344 4.089844 2.5625 4.851563 3.601562.765625 1.039063 2.355468 2.910157 3.605468 3.121094" fill="none" stroke="#000" stroke-width=".492788"/><path d="m760.96875 164.160156c-.832031-1.320312-1.664062-2.5-1.867188-3.464844" fill="none" stroke="#000" stroke-width=".492788"/><path d="m759.167969 154.59375c.828125 1.179688 1.453125 2.148438 1.941406 3.257812" fill="none" stroke="#000" stroke-width=".492788"/><path d="m773.582031 165.957031c-1.109375-2.078125-2.839843-4.085937-4.292969-4.78125" fill="none" stroke="#000" stroke-width=".492788"/><path d="m773.027344 158.335938c.136718 4.089843 5.613281 4.367187 5.820312 7.277343" fill="none" stroke="#000" stroke-width=".492788"/><path d="m783.078125 158.960938c.550781 1.042968.757813 2.078124.832031 3.8125" fill="none" stroke="#000" stroke-width=".492788"/></svg>