<svg viewBox="0 0 1000 667" xmlns="http://www.w3.org/2000/svg" xmlns:xlink="http://www.w3.org/1999/xlink"><clipPath id="a"><path d="m0 0h1000v666.71875h-1000zm0 0"/></clipPath><g clip-path="url(#a)"><path d="m0 666.667969v-666.667969h1000v666.667969zm0 0" fill="#006c35" fill-rule="evenodd"/></g><path d="m431.042969 157.453125c-.523438-.019531-1.289063.273437-2.378907.917969-2.441406 1.636718-7.269531 6.667968-7.414062 12.457031-.148438 3.265625-.769531 3.253906 1.375 5.332031 1.542969 2.230469 3.085938 2.011719 6.210938.375 1.789062-1.320312 2.394531-2.160156 2.992187-4.375.742187-3.710937-3.90625 1.761719-4.5-2.375-1.03125-3.835937 1.929687-5.410156 4.753906-9.121094.066407-1.75.09375-3.175781-1.039062-3.210937zm45.414062.25c-.871093.113281-1.9375 1.234375-3.417969 3.917969-1.058593 2.804687-5.636718 7.0625-2.335937 15.832031 2.703125 5.5625 3.808594 14.597656 2.585937 24.667969-1.867187 2.859375-2.300781 3.847656-4.746093 6.707031-3.453125 3.707031-7.183594 2.761719-10.046875 1.375-2.675782-1.804687-4.78125-2.730469-5.996094-8.457031.222656-9.136719.75-24.074219-.917969-27.253906-2.460937-4.910157-6.515625-3.152344-8.25-1.667969-8.332031 7.617187-12.445312 20.476562-14.960937 30.710937-2.308594 7.453125-4.769532 5.300782-6.496094 2.292969-4.210938-3.945313-4.503906-34.78125-9.582031-29.707031-8.140625 23.253906 4.667969 48.722656 13.539062 46.25 6.402344 2.648437 10.464844-9.53125 13.082031-22.878906 1.796876-3.742188 3.164063-4.175782 4.082032-2.246094-.234375 17.742187 1.273437 21.699218 5.832031 27.082031 10.175781 7.847656 18.59375.996094 19.25.332031l7.917969-7.914062c1.765625-1.855469 4.09375-1.96875 6.582031-.332032 2.421875 2.199219 2.109375 5.988282 7.292969 8.625 4.359375 1.746094 13.675781.421876 15.832031-3.335937 2.910156-4.984375 3.613281-6.695313 4.960937-8.585937 2.078126-2.757813 5.625-1.535157 5.625-.664063-.332031 1.539063-2.414062 3.0625-1.003906 5.835937 2.46875 1.847657 3.046875.65625 4.507813.246094 5.160156-2.46875 9.035156-13.664062 9.035156-13.664062.234375-4.179688-2.140625-3.863282-3.664063-3.003906-1.980468 1.210937-2.105468 1.621093-4.085937 2.832031-2.523437.378906-7.414063 2.046875-9.828125-1.703125-2.472656-4.507813-2.488281-10.789063-4.375-15.332032 0-.335937-3.308594-7.148437-.253906-7.585937 1.542968.285156 4.855468 1.136719 5.378906-1.628906 1.613281-2.695313-3.492188-10.34375-6.960938-14.203125-3.015624-3.308594-7.175781-3.710938-11.210937-.332032-2.820313 2.597657-2.402344 5.496094-2.957031 8.246094-.714844 3.15625-.578125 7.070313 2.625 11.25 2.820312 5.5625 7.941406 12.691406 6.25 22.75 0 0-2.976563 4.789063-8.210938 4.164063-2.179687-.472657-5.726562-1.417969-7.621094-15.371094-1.425781-10.566406.355469-25.363281-4.121093-32.289063-1.015625-2.617187-1.882813-5.15625-3.335938-4.960937zm-14.375 1.117187c-1.351562.117188-2.855469 1.699219-4.082031 4.753907-1.054688 2.316406-2.335938 14.460937-2.128906 14.460937-.835938 3.613282 3.777344 5.140625 5.878906.5 3.148438-8.515625 3.164062-12.140625 3.375-15.753906-.488281-2.746094-1.6875-4.078125-3.042969-3.960938zm53.082031.957032c-1.394531.132812-2.5.945312-2.917968 3.003906-.554688 4.84375-.265625 7.472656.546875 11.503906.617187 2.679688 4.53125 7.179688 6.457031 9.789063 9.191406 12.359375 18.042969 24.773437 26.582031 37.625 1.34375 9.539062 2.328125 18.875 2.957031 28.164062 1.386719 20.378907 1.808594 45.75.546876 67.207031 3.816406.15625 9.933593-6.164062 12.085937-15.410156 1.390625-12.800781-.503906-38.90625-.625-46.457031-.09375-3.140625-.289063-6.882813-.503906-10.792969 9.933593 16.234375 19.578125 33.441406 29.035156 52.328125 3.453125-1.640625 2.691406-21.0625.671875-23.789062-7.578125-16.300781-18.039062-32.394531-21.375-38.585938-1.203125-2.234375-5.304688-8.472656-10.167969-15.664062-.890625-10.265625-1.867187-18.960938-2.5-21.582031-1.5625-10.855469 4.460938 1.222656 3.625-5.085938-1.953125-10.839844-7.933593-18.203125-15-28.125-2.277343-3.230469-2.230469-3.886719-5.746093.785156-2.105469 4.773438-2.078126 8.742188-1.460938 12.464844-.921875-1.34375-2.066406-2.9375-3.710938-4.917969-6.097656-5.234375-6.476562-5.519531-11.542968-9.789062-1.59375-1.132813-4.632813-2.878907-6.949219-2.671875zm157.335938 1.628906c-.675781-.105469-1.421875.226562-2.253906 1.457031-1.585938 1.394531-3.300782 3.921875-3.246094 7.171875.382812 5.714844 1.40625 11.574219 1.789062 17.289063.136719.761719.277344 1.523437.414063 2.292969-.609375-.78125-1.148437-1.394532-1.457031-1.707032-11.144532-11.710937 5.125-1.914062-2.121094-10.964844-6.132812-6.722656-7.921875-8.867187-13.171875-12.914062-2.628906-1.703125-4.21875-4.949219-5.078125.585938-.34375 4.855468-.703125 10.484374-.375 14.582031-.019531 2.277343 2.335938 6.5625 4.375 9.082031 7.433594 9.132812 15.03125 18.859375 22.667969 29.003906 1.601562 20.683594 2.03125 39.648438 3.664062 60.371094-.234375 8.867188-2.953125 20.640625-5.539062 21.753906 0 0-3.953125 2.261719-6.589844-.257812-1.914063-.765625-9.582031-12.785156-9.582031-12.785156-3.917969-3.601563-6.535156-2.570313-9.328125 0-7.703125 7.433593-11.1875 21.359374-16.421875 30.957031-1.347656 2.140625-5.148438 3.964843-9.375-.167969-10.726563-14.664062-4.449219-35.527344-5.785156-30.164062-9.558594 10.769531-5.328126 28.621093-3.171876 32.453124 3.152344 6.308594 5.703126 10.347657 11.835938 13.464844 5.585938 4.109375 9.933594 1.542969 12.328125-1.335937 5.625-5.824219 5.699219-20.722657 8.335937-23.664063 1.855469-5.417968 6.492188-4.484375 8.75-2.082031 2.195313 3.148437 4.777344 5.199219 8 6.914063 5.242188 4.621093 11.5 5.460937 17.671876 1.25 4.210937-2.363282 6.945312-5.4375 9.414062-11.5 2.648438-7.082032 1.339844-44.191407.746094-64.835938 3.957031 5.578125 7.871094 11.277344 11.753906 17.042969 1.703125 18.117187 2.480469 35.964843 1.914062 53.082031-.398437 3.402344 11.875-10.15625 11.796876-16.582031-.058594-5.621094.003906-10.71875 0-15.457031 5.949218 9.503906 11.71875 19.171874 17.160156 28.957031 3.378906-1.789063 2.21875-20.902344.082031-23.539063-5.699219-9.578125-13.003906-19.917968-18.664063-27.917968-1.117187-10.105469-2.640624-22.019532-3.332031-25.671876-1.082031-5.6875-2.160156-14.242187-3.789062-20.996093-.449219-2.640625-1.804688-11.066407-1.378907-11.875.667969-1.886719 3.183594.058593 4.417969-2.128907 1.855469-2.015624-6.421875-23.460937-10.625-29.582031-1.507812-2.742187-4.242187-1.789062-7.621093 2.671875-3.140626 2.925782-1.996094 9.625-.796876 15.992188 3.113282 16.230468 5.886719 32.769531 8.085938 49.253906-4.066406-6.042969-9.027344-13.359375-13.917969-20.417969-.128906-.675781-.625-3.171875-.625-3.210937 0-.285156-.671875-13.273438-1.25-16.371094-.105469-1.257812-.402343-1.617188.917969-1.460938 1.394531 1.179688 1.582031 1.238282 2.453125 1.628907 1.414063.261719 2.644531-2.128907 1.796875-4.335938-4.359375-8.039062-8.722656-16.121093-13.085938-24.167969-.527343-.511718-1.113281-1.058593-1.789062-1.164062zm-406.042969.417969c-2.414062-.074219-5.082031 1.429687-4.042969 4.335937-.605468 1.582032 4.734376 6.929688 5.671876 9.867188.839843 2.097656-.832032 8.84375.910156 9.460937 1.617187.695313 3.828125-4.667969 4.667968-9.621093.46875-2.714844.121094-12.015626-6.203124-13.921876-.324219-.070312-.65625-.117187-1.003907-.121093zm462.546875.050781c-.546875.058594-1.21875.941406-2.246094 3.125-2.472656 4.050781-3.324218 11.300781-2.335937 17.707031 5.957031 40.273438 10.375 79.265625 11.292969 114.964844-.511719 3.382813-.664063 5.1875-2.25 9.457031-3.515625 4.503906-7.390625 10.148438-11.042969 12.871094s-11.417969 5.316406-13.957031 7.335938c-8.0625 4.65625-8.101563 10.015624-1.582032 10.210937 11.222657-1.308594 24.511719-2.230469 33.664063-16.042969 2.449219-3.875 5.332031-14.367187 5.457031-20.792968.859375-37.664063-.484375-74.488282-6.121094-101.707032-.363281-2.65625-1.535156-8.75-1.085937-9.542968.726563-1.863282 4.398437.1875 5.707031-1.960938 1.921875-1.960938-9.496094-16.582031-13.5-22.832031-.796875-1.570313-1.289062-2.859375-2-2.792969zm-117.746094.625c-.460937.085938-1.148437.789062-2.417968 2.460938-3.136719 10.253906-4.238282 18.632812-3.039063 25 8.050781 42.042968 16.308594 80.351562 15 120.371093 3.816407.027344 8.234375-8.738281 10.125-17.414062 1.027344-11.949219-.691406-19.226563-1.003906-26.25-.304687-7.027344-7.949219-64.019531-9.5-69.332031-1.867187-10.050782 7.429687-1.320313 6.417969-7.164063-3.214844-7.371094-11.242188-18.101563-13.75-24.5-.941406-1.71875-1.058594-3.300781-1.832032-3.171875zm-286.707031.796875c-.988281.167969-1.949219.988281-2.292969 2.328125-.21875.886719.378907 2.351562-.417968 2.792969-.460938.460937-2.199219.148437-2.125-2.292969 0-.773438-.566406-1.585938-.914063-2.082031-.351562-.226563-.585937-.292969-1.210937-.292969-.761719.035156-.75.234375-1.164063.878906-.1875.652344-.429687 1.289063-.429687 2.039063-.089844.871093-.441406 1.164062-1.082032 1.285156-.714843 0-.546874.082031-1.125-.28125-.347656-.378906-.75-.53125-.75-1.175781 0-.664063-.175781-1.722656-.375-2.160156-.300781-.402344-.78125-.613282-1.335937-.757813-2.996094.015625-3.210937 3.460937-3.039063 4.753906-.222656.246094-.335937 6.351563 3.75 8.042969 5.488282 2.617188 15.769532 1.507812 15.332032-7.332031 0-.78125-.171875-3.410157-.25-4.128907-.558594-1.300781-1.59375-1.796874-2.582032-1.617187zm73.582031.082031c-1.894531.097656-3.570312.636719-5 1.375-3.632812 3.480469-4.484374 9.0625-1.621093 12.539063 2.785156 1.3125 5.566406 4.121093 3.703125 5.667969-7.878906 8.414062-28.378906 22.476562-29.414063 25.039062-.003906.019531-.039062.066406-.039062.085938-.007813.019531 0 .066406 0 .085937 0 .003906-.007813.03125 0 .039063.007812.019531.027343.0625.039062.085937.007813.003906.03125.03125.039063.035156.007812.007813.039062 0 .046875 0 .003906.007813.03125.039063.039062.046875.011719 0 .03125-.007812.042969 0 0 0 .035156.039063.039062.039063 1.042969.695312 13.875.683593 15.292969.039062.007813 0 .035157-.03125.039063-.039062h.046875s-.007813-.039063 0-.039063c4.410156-1.628906 25.332031-25.546875 25.332031-25.546875-1.085938-.921875-2.082031-1.609375-3.171875-2.539062-1.15625-1.003907-1.039063-1.992188 0-3 5.183594-3.015625 3.542969-9.648438.835937-12.664063-2.242187-1.007812-4.355468-1.347656-6.25-1.25zm192.335938.078125c-.554688.058594-1.222656.90625-2.253906 3.085938-2.472656 4.046875-4.152344 11.105469-3.957032 17.707031 5.359376 37.085938 7 69.539062 10.5 106.628906.289063 3.585938-.238281 8.796875-2.621093 10.871094-8.824219 9.207031-21.539063 20.566406-35.378907 25.796875-1.492187 1.671875 3.703126 8.792969 10.417969 8.789063 11.230469-1.300782 21.097657-7.605469 30.253907-24.207032 2.445312-3.875 6.742187-12.164062 6.875-18.585937.851562-37.664063-1.902344-66.949219-7.546876-94.167969-.359374-2.648438-.117187-5.789062.332032-6.582031.726562-.867188 3.195312.019531 4.503906-2.121094 1.914062-1.960937-5.128906-18.210937-9.128906-24.460937-.796875-1.570313-1.285156-2.820313-1.996094-2.753907zm-297.960938 1.140625c-1.550781.175782-3.007812 1.4375-3.710937 3.125-.253906 5.941406-.292969 11.886719.375 17.367188 2.710937 9.617187 3.5625 18.074218 4.878906 27.917968.363281 13.191407-7.617187 5.707032-7.253906-.832031 1.84375-8.492187 1.347656-21.859375-.292969-25.25-1.296875-3.382812-2.800781-4.222656-5.957031-3.664062-2.507813-.15625-8.980469 6.902343-10.789063 18.578125 0 0-1.507812 6-2.167968 11.335937-.886719 6.035157-4.882813 10.308594-7.667969-.832031-2.410156-8.09375-3.886719-28.039062-7.917969-23.371094-1.152344 15.574219-2.523437 42.972656 10.710938 45.785156 16.007812 1.542969 7.160156-27.054687 12.957031-32.246093 1.097656-2.5625 3.125-2.609375 3.292969.625v24.292969c-.144532 7.894531 5.050781 10.242187 9.082031 11.875 4.199219-.328126 6.980469-.210938 8.625 3.871093.65625 14.007813 1.34375 28.039063 2 42.046875 0 0 9.707031 2.785156 10.167969-23.628906.464844-15.507812-3.089844-28.527344-1-31.542969.078125-2.960937 3.871094-3.109375 6.5-1.664062 4.183594 2.949219 6.039062 6.578125 12.542968 5.121093 9.894532-2.71875 15.851563-7.523437 16-15.121093-.578124-7.222657-1.410156-14.449219-4.542968-21.667969.4375-1.316406-1.894532-4.726562-1.457032-6.042969 1.777344 2.789063 4.464844 2.554688 5.082032 0-1.683594-5.546875-4.308594-10.863281-8.539063-13.164062-3.503906-3.085938-8.628906-2.433594-10.503906 4-.871094 7.410156 2.691406 16.195312 8.085937 23.371093 1.148438 2.804688 2.75 7.472657 2.039063 11.667969-2.871094 1.640625-5.71875.957031-8.125-1.585937 0 0-7.871094-5.890625-7.871094-7.203125 2.089844-13.378907.449219-14.917969-.710937-18.628907-.804688-5.121093-3.242188-6.75-5.207032-10.246093-1.972656-2.089844-4.640624-2.089844-5.917968 0-3.484375 6.035156-1.847656 18.984375.664062 24.792969 1.824219 5.332031 4.601563 8.664062 3.292969 8.664062-1.082031 3.015625-3.332031 2.3125-4.960937-1.164062-2.316407-7.195313-2.785157-17.917969-2.785157-22.753907-.695312-5.992187-1.476562-18.789062-5.417969-22.039062-1.054687-1.433594-2.296874-1.933594-3.5-1.789063zm56.207032.078125c-.792969.101563-1.667969.550781-2.707032.792969-3.40625 1.082031-6.585937 4.023438-5.585937 9.753906 4.023437 24.4375 6.648437 43.089844 10.664063 67.539063.617187 2.863281-1.777344 6.632812-4.871094 6.25-5.257813-3.5625-6.566406-10.769531-15.542969-10.464844-6.5.078125-13.90625 7.15625-14.832031 13.964844-1.082032 5.410156-1.472656 11.277343 0 15.996093 4.5625 5.496094 10.039062 4.910157 14.832031 3.667969 3.945313-1.621093 7.191406-5.507812 8.585937-4.585937 0 .007812.039063 0 .039063 0 .007813.007812 0 .039062 0 .046875.859375 1.503906-.078125 14.21875-18.582031 24.035156-11.375 5.113281-20.421875 6.328125-25.292969-2.957031-3.019531-5.796875.222656-27.894532-7.207031-22.789063-21.964844 56.621094 51.46875 64.527344 59.664062 2.335938.53125-1.757813 2.15625-3.515625 3.292969-3.085938.5.214844.964844.890625 1.125 2.167969-1.707031 56.316406-56.808594 60.167969-66.164063 42.453125-2.324218-4.171875-3.019531-13.46875-3.25-19.035156-.429687-3.371094-1.273437-5.3125-2.25-6.085938-2.234374-1.675781-5.234374 2.699219-5.875 10.289063-.929687 6.113281-.667968 7.789062-.667968 13.667968 2.941406 44.480469 73.851562 25.371094 85.375-11.375 5.707031-18.988281-.117188-33.320312 1.792968-35.082031.011719-.015625.0625-.027343.082032-.039062.011718-.015625.066406-.035157.082031-.039063.023437-.015625.0625-.039062.082031-.046875.0625-.011719.175782-.039062.253906-.039062 7.039063 7.585937 16.914063.964843 19.082032-1.667969.925781-1.3125 3.25-2.160156 4.875-.460938 5.488281 3.953126 15.113281 2.089844 17.125-4.871093 1.15625-6.808594 2.140625-13.8125 2.375-21.085938-3.582032 1.113281-6.464844 1.945313-7.625 3.171875-.277344.300782-.480469.636719-.542969.992188-.308594 2.011718-.609375 4.03125-.914063 6.042968-.039062.171876-.089843.328126-.167968.464844-.152344.246094-.40625.472656-.664063.625-1.269531.6875-3.472656.292969-3.589843-1.542968-1.699219-7.738282-8.703126-8.746094-12.953126 3.246093-2.867187 2.320313-8.085937 2.773438-8.628906-.710937.699219-8.039063-2.542968-9.117188-9.042968-5.328125-2.089844-15.933594-4.160157-31.148438-6.25-47.085938 2.710937-.078125 5.199218 1.890625 7.671874-1.203125-2.683593-8.332031-8.347656-25.285156-11.542968-26.875-.027344-.011718-.058594-.03125-.085938-.046875-.144531-.167969-.3125-.332031-.457031-.453125-.058594-.050781-.148437-.125-.207031-.171875-.058594-.039062-.148438-.089843-.207032-.121093-.132812-.074219-.292968-.125-.417968-.164063-.292969-.082031-.574219-.125-.878906-.082031zm219.117187.128907c-2.804687-.085938-5.917969 1.6875-4.707031 5.207031-.703125 1.914062 6.042969 8.429687 7.128906 12 1.953125 5.476562-1.496094 10.703125.542969 11.457031 1.875.847656 4.476563-5.65625 5.453125-11.664062 1.132812-4.863282-2.335938-14.820313-7.246094-16.875-.378906-.09375-.769531-.117188-1.171875-.125zm-170.703125 5.996093c1.277344-.128906 2.824219 1.046875 3.582032 2.707031.804687 1.777344.402343 3.472657-.917969 3.796876-1.316407.320312-3.023438-.851563-3.828125-2.628907-.808594-1.773437-.40625-3.511719.910156-3.828125.085938-.027344.171875-.039062.253906-.046875zm316.667969 8.210938c-2.566406-.089844-5.359375 1.855469-4.25 5.664062-.648437 2.082031 5.464844 9.140625 6.457031 13 .890625 2.746094-1.355468 11.601563.5 12.414063 1.707032.917968 4.109375-6.113282 5-12.625.496094-3.558594-2.148437-16.066406-6.628906-18.292969-.335938-.089844-.714844-.148437-1.078125-.160156zm-175.082031 4.335937c.238281 1.039063.472656 2.09375.625 3.164063.523437 2.308593.976562 4.601562 1.460937 6.875-2.023437-2.789063-3.699219-5.035157-4.421875-5.835938-4.574218-5.433593.105469-3.574219 2.335938-4.203125zm40.335937 19.828125c-.992187.171875-1.949219 1.027344-2.292969 2.378907-.222656.878906.425782 2.304687-.378906 2.746093-.453125.460938-2.238281.195313-2.167968-2.246093 0-.78125-.5625-1.632813-.910157-2.128907-.351562-.226562-.585937-.292969-1.210937-.292969-.761719.03125-.75.234376-1.164063.878907-.175781.652343-.417969 1.296875-.417969 2.039062-.097656.871094-.40625 1.164063-1.042968 1.292969-.714844 0-.585938.078125-1.164063-.292969-.347656-.375-.753906-.527343-.753906-1.164062 0-.664063-.171875-1.730469-.371094-2.167969-.308593-.402344-.789062-.566406-1.335937-.710938-2.996094.015626-3.167969 3.414063-3 4.707032-.222656.25-.378906 6.386718 3.710937 8.085937 5.480469 2.621094 15.804688 1.464844 15.371094-7.375 0-.78125-.21875-3.40625-.289063-4.128906-.558593-1.300781-1.59375-1.789063-2.582031-1.621094zm-184.160156 1.835938c-.679687-.070313-1.5625.175781-2.585937.789062-4.851563 2.625-6.726563 10.402344-3.710938 14.960938 2.828125 4.011719 7.285156 2.539062 7.878906 2.539062 4.75.59375 7.585938-8.914062 7.585938-8.914062s.140625-2.675781-5.503906 2.371093c-2.375.449219-2.695313-.410156-3.292969-1.746093-.496094-2.472657-.386719-4.984375.753906-7.460938.519531-1.484375 0-2.425781-1.125-2.539062zm260.332031 1.203125c-2.695312-.128906-5.5625 1.617187-6.289062 5.296875.003906 2.167969.976562 3.363281.785156 5.328125-.277344 1.128906-1.4375 1.871094-4.203125.542968.425781-.398437-1.792969-3.542968-1.792969-3.542968-2.160156-1.3125-5.042968.074218-6.917968 1.296875-1.03125 1.875-1.796876 5.089843-.625 8.371093 3.097656 5.722657 13.722656 15.496094 18.792968 15.585938.09375-5.160156.59375-12.023438.875-16.292969.117188-1.609375.492188-3.386719 2.042969-3.789062 1.542969-.40625 4.21875 1.546875 4.246094-.125-.28125-3.289063-.9375-8.132813-2.789063-10.417969-.949218-1.40625-2.511718-2.171875-4.125-2.253906zm-215.496094 17.964844c-.070312.023437-.144531.085937-.207031.125-.035156.019531-.09375.058593-.125.082031-.535156.398437-1.171875 1.328125-2.585937 2.332031-2.382813 2.714844-2.8125 4.601562-2.660156 10.039062.128906.578126 4.523437 12.792969 8.25 21.378907 2.503906 8.921875 4.828124 19.140625 3.121093 28.789062-5.871093 12.761719-17.679687 24.199219-29.082031 30.417969-5.804688 1.859375-10.824219 1.222656-12.167969-.046875-.011719-.003906-.03125-.023437-.039062-.039063-3.339844-2.238281-3.410157-6.230468-3.207031-6.914062 0-.003906 0-.035156 0-.042969.003906-.007812.03125-.035156.039062-.039062 9.621094-6.699219 20.605469-12.125 29.210938-30.210938 2.539062-6.914062 3.3125-11.058593.789062-21.75-.984375-3.976562-2.203125-7.257812-4.914062-10.085937.003906-.003906.03125-.03125.035156-.039063 1.640625-.777343 5.886718 2.34375 6.542968.378907-1-5.105469-4.457031-11.953126-8.371093-15.464844-3.429688-3.109375-7.15625-3.46875-10.292969-.625-3.535156 1.96875-4.285156 9.03125-2.585938 15.210937 1.890626 4.652344 6.992188 5.46875 10.625 14.835938v.039062c.082032.585938 1.25 6.996094-.585937 9.585938-1.480469 4.628906-20.558594 19.679687-21.914063 20.585937-.011718.011719-.109374.0625-.121093.078125-.007813.011719-.039063.039063-.046875.042969 0 0-.03125.035156-.039063.039062-.007812.007813-.039062.039063-.039062.046876-.007813 0-.039063 0-.046875 0 0 0-.03125 0-.039063 0-.003906-.007813-.03125-.039063-.042969-.046876.003907 0 0-.039062 0-.039062-.007812-.011719-.035156-.070312-.039062-.082031-.058594-.378907.042969-1.335938 0-2.878907-.125-2.820312 1.039062-9.191406.957031-10.285156 0-.007812 0-.039062 0-.046875-.007812-.003906-.035156-.03125-.042969-.039062 0-.007813 0-.039063 0-.046875-.011718 0-.035156 0-.042968 0-6.300782 4.078125-8.386719 16.558594-9.539063 20.253906-15.96875 11.035156-34.097656 19.238281-44.542969 30.417969-5.4375 8.488281 37.472657-9.753907 42.460938-11.960938.046875.035157.085938.085938.125.125.949219 1.039063 1.027344 4.679688 3.871094 7.960938 4.46875 6.042969 13.945312 9.761719 23.171875 7.453125 15.46875-5.589844 24.382812-16.128906 33.457031-27.828125 1.296875-1.890625 3.328125-3.375 5.207031-1.914063 6.238281 13.957032 24.214844 23.890625 47.460938 24.914063 5.378906-6.542969 2.808593-9.757813.625-11.125-.675781-.445313-11.558594-4.6875-13.253907-8.914063-1.0625-3.933594 1.523438-7.421875 6.710938-10.046875 14.921875-1.800781 29.597656-3.808593 43.789062-8.371093.144532-4.769532 2.957032-11.902344 4.839844-15 1.300782-2.148438 2.140625-2.363282 2.453125-2.667969.015625-.007813.03125-.035157.046875-.039063 0-.007812.039063-.039062.039063-.046875.003906-.003906.03125-.03125.039062-.039062.003907-.011719.003907-.070313 0-.085938.011719-.089843 0-.253906-.039062-.414062l-2.417969-1.414063-47.621094-.207031c-.59375-.230469-1.03125-.457031-1.296875-.671875-.019531-.015625-.066406-.066406-.085937-.085938-.003906-.003906-.03125-.03125-.039063-.039062-.003906-.003906-.03125-.03125-.039062-.035156-.003907-.023438-.039063-.074219-.042969-.085938 0-.007812-.035156-.039062-.039062-.046875 0 0 0-.03125 0-.039062-.007813-.007813-.039063-.039063-.039063-.039063 0-.007812-.007813-.039062 0-.046875 0 0-.007813-.03125 0-.039062 0-.003907-.007813-.039063 0-.046875-.007813-.003906 0-.03125 0-.035156 0 0 0-.035157 0-.039063-.007813-.007813 0-.039063 0-.046875-.007813 0 0-.03125 0-.039062-.007813-.007813 0-.039063 0-.039063.003906-.011719.03125-.039063.039063-.046875.011718-.019531.023437-.058594.039062-.082031.234375-.3125.800781-.605469 1.503906-.875 11.367188-1.546875 31.574219-4.863281 32.914063-24.289063-.207031-10.125-4.328125-16.75-16.75-18.585937-9.128907.707031-15.632813 9.53125-14.582031 19.25-.4375 2.617187.886718 7.753906-1.792969 8.332031-17.503907 1.601562-36.605469 12.566406-37.25 20.417969-.007813 0-.039063 0-.039063 0-.007812.007812-.039062.035156-.046875.039062-.011719.007813-.058593.03125-.085937.046875-.011719 0-.0625 0-.078125 0-.03125.003906-.097657.03125-.121094.039063-.015625 0-.035156 0-.046875 0-.027344 0-.066406 0-.085938 0-.003906 0-.023437 0-.039062 0s-.070312 0-.085938 0c-.042968-.007813-.121093-.035157-.160156-.039063-1.140625-.320312-2.613281-2.195312-2.375-4.839844-.671875-13.566406-5.085937-28.917968-12-40.746093-2.476562-2.46875-3.546875-3.464844-4.25-3.582031-.027344-.007813-.066406 0-.085937 0-.03125 0-.082031 0-.125 0-.003907 0-.039063 0-.042969 0 0 0-.035156 0-.039062 0-.007813 0-.039063 0-.039063 0zm45.585938 7.160156c-.988281.175781-1.945312.988281-2.292969 2.339844-.21875.878906.421875 2.34375-.375 2.792968-.457031.460938-2.242187.1875-2.164062-2.253906 0-.78125-.570313-1.632812-.917969-2.121094-.351562-.230468-.539062-.292968-1.164062-.292968-.769532.03125-.796876.234374-1.210938.871093-.175781.65625-.417969 1.300781-.417969 2.042969-.097656.867188-.402343 1.167969-1.039062 1.289062-.71875 0-.546875.078126-1.128907-.292968-.34375-.371094-.785156-.519532-.785156-1.164063 0-.664062-.136718-1.726562-.339844-2.167969-.300781-.398437-.820312-.566406-1.375-.703124-2.992187.007812-3.167968 3.410156-3 4.707031-.222656.242187-.378906 6.386719 3.710938 8.078125 5.484375 2.617187 18.554688 1.082031 15.371094-7.367188 0-.789062-.207032-3.414062-.285156-4.128906-.5625-1.300781-1.597657-1.796875-2.585938-1.628906zm183.957031 7.546875c-.136719-.027344-.292969-.019531-.453125.039062 0 0-25.417968 18.078125-26.042968 18.710938-2.519532 2.238281-1.261719 10.117187 0 9.203125 1.824218.707031 27.402343-16.632813 26.914062-18.664063 1.121094.066407 1.652344-8.917969-.417969-9.289062zm-159.945312 2.675781c1.039062-.105469 2.402343.246094 3.710937 1.003906 1.894532 1.097656 3.066406 2.75 2.914063 3.957032-.007813.035156.007812.089843 0 .125-.007813.03125-.070313.097656-.082031.121093-.007813.035157-.027344.097657-.039063.132813-.007813.019531-.03125.058594-.046875.078125-.007812.019531-.027344.066406-.039062.082031-.066407.105469-.164063.210938-.246094.292969-.914063.855469-3.023438.730469-5-.414063-1.882813-1.089844-3.046875-2.761718-2.917969-3.960937 0-.03125.03125-.089844.039063-.121094.03125-.152344.089843-.289063.167968-.417969.027344-.042968.046875-.125.078125-.167968.007813-.007813.039063-.035157.046875-.039063.050782-.066406.136719-.15625.207032-.210937.300781-.238282.730468-.410157 1.207031-.460938zm-222.546875 4.585938c-13.164063.238281-32.449219 17.261718-32.957032 26.710937 13.894532-6.675781 27.539063-13.101563 41.667969-20-2.277343-3.40625-.136719-6.472656-8.710937-6.710937zm42.667968 5.914062c1.289063.015625 2.652344.652344 3.371094 2.460938.652344 1.65625.035156 3.394531-.746094 4.253906-.007812.007812.007813.03125 0 .039062-.011718.019532-.023437.0625-.039062.082032-.554688.710937-2.492188.417968-3.878906.417968-1.667969-.078125-2.492188-.351562-3.496094-1.714844-.484375-1.507812.980469-2.992187 1.621094-4.117187.007812-.015625.039062-.035156.042968-.046875.074219-.105469.183594-.226562.292969-.332031.496094-.457031 1.363281-.886719 2.292969-.996094.175781-.027344.351562-.046875.539062-.046875zm334.878907 5.242188c-2.339844.285156-4.566407 2.5-3.542969 6.042968-.636719 2.074219 3.175781 9.347656 4.167969 13.210938.890625 2.746094-1.148438 10.511718.710937 11.332031 1.710938.910156 6.203125-4.617187 6.039063-11.542969.492187-3.5625-1.269531-16.691406-5.75-18.917968-.511719-.144532-1.085938-.191407-1.625-.125zm-284.414063 12.832031c-2.066406.144531-3.914062 1.25-3.082031 4.167969-.125 2.117187 5.847656 4.6875 6.207031 9.582031.859375 2.019531-1.277344 8.484375.5 9.082031 1.636719.679688 3.898438-4.464844 4.753906-9.246094.472657-2.621094-2.050781-11.78125-6.335937-13.414062-.65625-.144532-1.355469-.21875-2.042969-.171875zm85.128906 11.628906c.15625-.015625.292969 0 .457032 0h.082031c5.308594 1.4375 13.125 1.585937 19.917969 2.292969 5.53125.351562 8.261718 4.679687 3.082031 6.496094-5.109375 1.75-10.015625 3.117187-10.042969 10.5.675782 3.660156.53125 5.578124-.039062 6.457031-.046875.066406-.117188.160156-.167969.210937-.007813.003906-.03125.03125-.039063.039063-.007812.011719-.035156.039062-.039062.046875-.015625.003906-.039062.03125-.046875.035156l-.039063.046875c-.011718.007813-.074218.03125-.085937.039063-.070313.046874-.167969.097656-.246094.125-.070312.023437-.175781.03125-.253906.042968-1.210937.175782-2.976563-.980468-4.289063-1.664062-3.152343-2.265625-11.992187-7.742188-13.25-19.507813-.183593-2.648437 1.800782-4.941406 5-5.160156zm-207.921874 9.042969c-.332032.003906-.996094.996094-1.875 2.121094-7.832032 12.480468-8.53125 31.105468-4.207032 36.667968 2.296875 2.621094 6.082032 3.78125 8.875 2.953125 4.917969-2.128906 7.082032-12.097656 5.917969-15.746093-1.640625-2.566407-2.945313-2.976563-4.585937-.789063-3.460938 7.03125-4.90625 2.21875-5.207032-1.710937-.535156-7.449219.1875-14.3125.996094-19.746094.433594-2.789063.417969-3.761719.085938-3.75zm266.878906 16.382812c-.578125-.03125-1.203125.0625-1.835938.375-.121094 0-5.601562 3.710938-7.367187 6.292969-1.082031.824219-.957031 1.53125-.625 2.957031.839843 1.933594 2.316406 1.328125 3.996093.417969 2.226563-.308594 3.308594 1.15625 3.125 3.832031-1.027343 3.34375.457032 4.585938.457032 4.792969s2.148437 2.050781 4.667968.585937c5.316407-2.03125 8.632813-4.011718 16.085938-5.632812 1.953125-.03125 1.839844-5.265625-1.25-5.453125-4.035156.199219-7.761719.410156-11.796875 3.578125-2.480469.582031-2.902344-.929688-3.457031-2.289062-.632813-3.359376 1.417968-5.730469 1.003906-8.25.109375.109374-1.257812-1.113282-3.003906-1.207032zm170.878906 6.375c-.988281.035156-2.03125.171875-3.539062.292969-1.636719.34375-2.203126 1.0625-2.5 3.042969.117187 3 1.953124 2.851562 3.835937 4.039062 1.085937 1.382813 1.792969 2.636719-.085937 4.917969-1.785157 1.632813-3.054688 2.53125-4.832032 4.167969-.839844 1.429687-1.367187 3.636718 1.203125 4.328125 4.753907 1.339843 15.75-5.808594 15.75-5.957031 1.785157-1.335938 1.191407-3.875 1.042969-3.875-1.035156-1.183594-3.378906-.472657-4.953125-.664063-.75 0-3.21875-.363281-2.046875-2.542969.976562-1.355468 1.339844-2.164062 2-3.835937.742188-1.628907.089844-2.726563-2.578125-3.621094-1.363281-.246094-2.304687-.324219-3.296875-.292969zm-71.386719 144.53125c-.003906.007813-.03125.035156-.039062.046875-7.902344 2.027344-7.652344 10.226563-2.582031 13.828125-83.457032 0-211.539063-1.414062-239-1.414062-15.371094 0-63.984376-1.835938-64.921876-1.835938 10.429688 15.25 25.535157 18.355469 45.292969 18.667969 37.070313 0 208.828125-.457031 257.710938-.457031-3.476563 6.171875.3125 16.101562 3.039062 17.917968.058594.039063.148438.097657.207031.121094.105469.054688.238282.105469.332032.125.035156.011719.097656 0 .125 0 3.242187.769532 4.660156-1.574218 5.757812-3.289062 5.246094.464844 34.789063.894531 37.5-.042969.003906 0 .03125-.035156.035156-.039063 1.832032 2.695313 3.644532 5.234376 7.121094 4.789063 6.097656-1.308594 10.894532-1.964844 11.042969-14.332031 0 0-.617187-21.070313-14.449219-19.75-3.277344.496094-12.464844 1.417968-12.464844 1.417968-10.628906-1.265624-18.421874-1.398437-30.378906-1.832031 1.109375-1.402343 3.054688-7.070312.671875-9.128906-.625-.515625-1.546875-.800781-2.828125-.703125-.015625 0-.035156 0-.046875 0-.023437-.003906-.066406 0-.085937 0-.007813-.003906-.03125-.039062-.039063-.046875-.035156-.011719-.089843-.019531-.125-.039063-.0625-.042968-.148437-.136718-.207031-.207031-.011719-.019531-.070312-.066406-.085938-.085937-.605468-.875-.929687-3.03125-1.332031-3.578125-.007812-.007813-.035156-.039063-.039062-.046875-.007813 0-.039063-.039063-.046875-.039063-.011719-.011719-.066406-.039062-.078125-.046875-.007813 0-.039063 0-.046875 0-.003906.007813-.03125 0-.039063 0zm5.671875 30.125c.011719-.007812.027344.007813.039063 0 12.175781.597656 23.613281.117188 35.792969.710938 1.929687 1.640625.964843 5.394531-.292969 6.085937-.058594.027344-.148438.066407-.207031.078125-.046876.011719-.125 0-.167969 0-.046875 0-.121094.011719-.164063 0-3.964844-.097656-6.25-.1875-10.207031-.285156-.007813-.203125-.03125-.410156-.085937-.585938-.9375-2.78125-7.734376-2.597656-9.335938-.417968-.019531.03125-.066406.089844-.085938.125-.023437.042968-.058593.125-.078124.167968-.027344.050782-.0625.148438-.082032.207032-.027344.078125-.035156.203125-.046875.292968-.007812.097657-.046875.226563-.039062.332032-5.347657.640625-10.15625-.175782-15.5-.375-1.570313-1.957032-1.386719-5.484375.460937-6.335938zm0 0" fill="#fff" fill-rule="evenodd"/></svg>