<svg viewBox="0 0 1000 667" xmlns="http://www.w3.org/2000/svg" xmlns:xlink="http://www.w3.org/1999/xlink"><clipPath id="a"><path d="m0 0h334v666.71875h-334zm0 0"/></clipPath><clipPath id="b"><path d="m333 0h334v666.71875h-334zm0 0"/></clipPath><clipPath id="c"><path d="m666 0h334v666.71875h-334zm0 0"/></clipPath><g clip-path="url(#a)"><path d="m0 0h333.332031v666.667969h-333.332031zm0 0" fill="#00853f" fill-rule="evenodd"/></g><g clip-path="url(#b)"><path d="m333.332031 0h333.335938v666.667969h-333.335938zm0 0" fill="#fdef42" fill-rule="evenodd"/></g><g clip-path="url(#c)"><path d="m666.667969 0h333.332031v666.667969h-333.332031zm0 0" fill="#e31b23" fill-rule="evenodd"/></g><g fill="#00853f" fill-rule="evenodd"><path d="m500 222.222656-34.335938 105.675782 52.835938 17.164062zm0 0"/><path d="m500 222.222656 34.335938 105.675782-52.835938 17.164062zm0 0"/><path d="m605.675781 298.996094h-111.113281v55.554687zm0 0"/><path d="m605.675781 298.996094-89.894531 65.3125-32.652344-44.945313zm0 0"/><path d="m565.308594 423.226562-34.335938-105.675781-52.835937 17.164063zm0 0"/><path d="m565.308594 423.226562-89.890625-65.3125 32.652343-44.949218zm0 0"/><path d="m434.691406 423.226562 89.890625-65.3125-32.652343-44.949218zm0 0"/><path d="m434.691406 423.226562 34.335938-105.675781 52.835937 17.164063zm0 0"/><path d="m394.324219 298.996094 89.894531 65.3125 32.652344-44.945313zm0 0"/><path d="m394.324219 298.996094h111.113281v55.554687zm0 0"/></g></svg>