<svg viewBox="0 0 1000 667" xmlns="http://www.w3.org/2000/svg" xmlns:xlink="http://www.w3.org/1999/xlink"><clipPath id="a"><path d="m0 0h1000v666.71875h-1000zm0 0"/></clipPath><g clip-path="url(#a)"><path d="m0 666.667969v-666.667969h1000v666.667969zm0 0" fill="#4189dd" fill-rule="evenodd"/></g><g fill="#fff" fill-rule="evenodd"><path d="m500 172.839844-49.597656 152.640625 76.324218 24.796875zm0 0"/><path d="m500 172.839844 49.597656 152.640625-76.324218 24.796875zm0 0"/><path d="m652.636719 283.738281h-160.488281v80.246094zm0 0"/><path d="m652.636719 283.738281-129.84375 94.332031-47.164063-64.917968zm0 0"/><path d="m347.363281 283.738281 129.84375 94.332031 47.164063-64.917968zm0 0"/><path d="m347.363281 283.738281h160.488281v80.246094zm0 0"/><path d="m594.335938 463.175781-49.597657-152.636719-76.316406 24.796876zm0 0"/><path d="m594.335938 463.175781-129.84375-94.335937 47.167968-64.921875zm0 0"/><path d="m405.664062 463.175781 129.84375-94.335937-47.167968-64.921875zm0 0"/><path d="m405.664062 463.175781 49.597657-152.636719 76.316406 24.796876zm0 0"/></g></svg>