<svg viewBox="0 0 1000 667" xmlns="http://www.w3.org/2000/svg" xmlns:xlink="http://www.w3.org/1999/xlink"><clipPath id="a"><path d="m0 0h1000v666.71875h-1000zm0 0"/></clipPath><g clip-path="url(#a)"><path d="m0 666.667969v-666.667969h1000v666.667969zm0 0" fill-rule="evenodd"/></g><g fill-rule="evenodd"><path d="m0 0h1000v444.445312h-1000zm0 0" fill="#fff"/><path d="m0 0h1000v222.222656h-1000zm0 0" fill="#ce1126"/><path d="m300 261.109375-22.320312 68.6875 42.269531 13.738281zm0 0" fill="#007a3d"/><path d="m300 261.109375 22.320312 68.6875-42.269531 13.738281zm0 0" fill="#007a3d"/><path d="m368.683594 311.015625h-72.222656v44.441406zm0 0" fill="#007a3d"/><path d="m368.683594 311.015625-58.425782 42.449219-26.121093-35.957032zm0 0" fill="#007a3d"/><path d="m231.316406 311.015625 58.425782 42.449219 26.121093-35.957032zm0 0" fill="#007a3d"/><path d="m231.316406 311.015625h72.222656v44.441406zm0 0" fill="#007a3d"/><path d="m342.453125 391.765625-22.320313-68.691406-42.269531 13.738281zm0 0" fill="#007a3d"/><path d="m342.453125 391.765625-58.429687-42.453125 26.121093-35.957031zm0 0" fill="#007a3d"/><path d="m257.546875 391.765625 58.429687-42.453125-26.121093-35.957031zm0 0" fill="#007a3d"/><path d="m257.546875 391.765625 22.320313-68.691406 42.269531 13.738281zm0 0" fill="#007a3d"/><path d="m700 261.109375-22.320312 68.6875 42.269531 13.738281zm0 0" fill="#007a3d"/><path d="m700 261.109375 22.320312 68.6875-42.269531 13.738281zm0 0" fill="#007a3d"/><path d="m768.683594 311.015625h-72.222656v44.441406zm0 0" fill="#007a3d"/><path d="m768.683594 311.015625-58.425782 42.449219-26.121093-35.957032zm0 0" fill="#007a3d"/><path d="m631.316406 311.015625 58.425782 42.449219 26.121093-35.957032zm0 0" fill="#007a3d"/><path d="m631.316406 311.015625h72.222656v44.441406zm0 0" fill="#007a3d"/><path d="m742.453125 391.765625-22.320313-68.691406-42.269531 13.738281zm0 0" fill="#007a3d"/><path d="m742.453125 391.765625-58.429687-42.453125 26.121093-35.957031zm0 0" fill="#007a3d"/><path d="m657.546875 391.765625 58.429687-42.453125-26.121093-35.957031zm0 0" fill="#007a3d"/><path d="m657.546875 391.765625 22.320313-68.691406 42.269531 13.738281zm0 0" fill="#007a3d"/></g></svg>