<svg viewBox="0 0 1000 667" xmlns="http://www.w3.org/2000/svg" xmlns:xlink="http://www.w3.org/1999/xlink"><clipPath id="a"><path d="m0 0h1000v666.71875h-1000zm0 0"/></clipPath><g clip-path="url(#a)"><path d="m0 666.667969v-666.667969h1000v666.667969zm0 0" fill="#fe0000" fill-rule="evenodd"/></g><g fill-rule="evenodd"><path d="m0 0h500v333.332031h-500zm0 0" fill="#000095"/><path d="m283.332031 166.667969-33.332031 125-33.332031-125 33.332031-125zm-33.332031 33.332031 125-33.332031-125-33.335938-125 33.335938zm0 0" fill="#fff"/><path d="m278.867188 183.332031-91.367188 91.585938 33.632812-124.917969 91.367188-91.585938zm-45.535157 12.203125 124.917969 33.632813-91.582031-91.371094-124.917969-33.628906zm0 0" fill="#fff"/><path d="m266.667969 195.535156-124.917969 33.632813 91.582031-91.371094 124.917969-33.628906zm-45.535157-12.203125 91.367188 91.585938-33.632812-124.917969-91.367188-91.585938zm0 0" fill="#fff"/><path d="m320.832031 166.667969c0 39.121093-31.710937 70.832031-70.832031 70.832031s-70.832031-31.710938-70.832031-70.832031c0-39.125 31.710937-70.835938 70.832031-70.835938s70.832031 31.710938 70.832031 70.835938zm0 0" fill="#000095"/><path d="m312.5 166.667969c0 34.515625-27.984375 62.5-62.5 62.5s-62.5-27.984375-62.5-62.5c0-34.519531 27.984375-62.5 62.5-62.5s62.5 27.980469 62.5 62.5zm0 0" fill="#fff"/></g></svg>