<svg viewBox="0 0 1000 667" xmlns="http://www.w3.org/2000/svg" xmlns:xlink="http://www.w3.org/1999/xlink"><clipPath id="a"><path d="m0 0h1000v666.71875h-1000zm0 0"/></clipPath><clipPath id="b"><path d="m0 555h1000v111.71875h-1000zm0 0"/></clipPath><g clip-path="url(#a)"><path d="m0 666.667969v-666.667969h1000v666.667969zm0 0" fill-rule="evenodd"/></g><path d="m0 111.109375h1000v111.113281h-1000zm0 0" fill="#fcdc04" fill-rule="evenodd"/><path d="m0 222.222656h1000v111.109375h-1000zm0 0" fill="#d90000" fill-rule="evenodd"/><path d="m0 444.445312h1000v111.109376h-1000zm0 0" fill="#fcdc04" fill-rule="evenodd"/><g clip-path="url(#b)"><path d="m0 555.554688h1000v111.113281h-1000zm0 0" fill="#d90000" fill-rule="evenodd"/></g><g fill-rule="evenodd"><path d="m603.890625 333.332031c0 57.378907-46.511719 103.890625-103.890625 103.890625s-103.890625-46.511718-103.890625-103.890625c0-57.375 46.511719-103.890625 103.890625-103.890625s103.890625 46.515625 103.890625 103.890625zm0 0" fill="#fff"/><path d="m481.6875 253.765625-6.734375-12.410156c2.597656-2.601563 6.976563-4.609375 13.945313-4.609375 0 .472656-.710938 13.59375-.710938 13.59375zm0 0" fill="#d90000" stroke="#000" stroke-width="1.111111"/><path d="m488.1875 250.457031.953125-13.710937s13.945313-.824219 21.507813 8.273437c.121093-.121093-7.445313 10.640625-7.445313 10.640625zm0 0" fill="#fcdc04" stroke="#000" stroke-width="1.111111"/><path d="m503.441406 255.539062 6.851563-10.640624c4.609375 4.851562 6.503906 8.273437 7.210937 13.476562.117188.121094-10.875 2.71875-10.875 2.601562 0-.117187-3.070312-5.316406-3.1875-5.4375zm0 0" fill="#d90000" stroke="#000" stroke-width="1.111111"/><path d="m485.117188 431.191406s12.886718-14.773437 37.945312-11.585937c-3.785156-6.144531-15.960938-5.433594-15.960938-5.433594s-3.78125-28.722656-.824218-30.144531c2.953125-1.417969 15.484375.121094 15.484375.121094 1.652343 0 4.492187-4.492188 2.246093-7.332032-2.246093-2.835937-8.867187-13.707031-6.148437-15.835937 2.71875-2.132813 17.492187 1.179687 17.492187 1.179687l-41.726562-53.425781s-4.253906-20.09375 4.257812-29.789063c10.28125-8.511718 9.21875-17.730468 8.867188-17.613281-1.421875-9.335937-15.605469-16.074219-25.179688-7.449219-5.675781 6.859376-1.894531 12.058594-1.894531 12.058594s-14.890625 4.019532-15.484375 6.621094c-.589844 2.601562 16.789063-.472656 16.789063-.472656l-1.65625 11.9375s-33.804688 30.734375-7.921875 57.328125c.238281-.117188.832031-1.179688.832031-1.179688s9.101563 11.230469 18.671875 13.707031c8.984375 9.226563 8.160156 7.804688 8.160156 7.804688s1.769532 14.539062.121094 17.375c-2.253906-.710938-25.179688-1.535156-28.609375-.238281-3.074219.949219-14.890625.359375-11.941406 19.625 2.246093-5.199219 4.257812-9.808594 4.257812-9.808594s-.355469 6.96875 2.480469 9.457031c-.472656-7.332031 2.71875-12.296875 2.71875-12.296875s.589844 8.039063 2.363281 9.21875c1.777344 1.183594 1.777344-13 11.585938-11.816406 9.8125 1.183594 16.902343.824219 16.902343.824219s3.3125 27.777344 2.246094 30.382812c-7.09375-1.660156-23.996094.707032-25.058594 4.964844 9.929688-.59375 14.539063.585938 14.539063.585938s-8.039063 7.09375-5.554687 11.230468zm0 0" stroke="#000" stroke-width="1.111111"/><path d="m489.101562 279.621094s-24.601562 27.117187-13.988281 47.863281c.566407-2.890625.320313-4.710937.671875-4.59375-.589844-.351563 3.054688 2.492187 2.777344 1.941406.078125-1.496093-1.109375-4.714843-1.109375-4.714843 1.109375.277343 2.21875.554687 3.332031.828124-.652344-1.195312-1.300781-2.402343-1.945312-3.601562 1.570312.183594 3.140625.371094 4.714844.554688 0 0-1.664063-4.4375-1.113282-4.4375.5625 0 3.886719.277343 3.886719.277343-6.992187-12.554687-.394531-22.976562 2.773437-34.117187zm0 0" fill="#9ca69c" stroke="#9ca69c" stroke-width="1.111111"/><path d="m497.644531 256.371094s1.300781 9.335937-3.78125 12.054687c-.824219.589844-4.019531 1.652344-3.546875 3.546875.589844 2.597656 2.011719 2.128906 4.019532 1.65625 5.324218-.949218 11.46875-12.296875 3.308593-17.257812zm0 0" fill="#9ca69c" stroke="#9ca69c" stroke-width="1.111111"/><path d="m488.667969 264.441406c0 1.105469-.898438 2.003906-2.003907 2.003906-1.101562 0-1.996093-.898437-1.996093-2.003906 0-1.101562.894531-1.996094 1.996093-1.996094 1.105469 0 2.003907.894532 2.003907 1.996094zm0 0" fill="#fff"/><path d="m480.625 272.207031c-1.300781 1.0625-8.152344 8.160157-1.421875 10.757813 6.980469-1.894532 5.085937-3.191406 6.625-4.730469.039063-3.191406-3.472656-4.015625-5.203125-6.027344zm0 0" fill="#d90000" stroke="#000" stroke-width="1.111111"/><path d="m495.519531 339.230469c-.351562 1.535156-1.894531 7.210937.238281 11.582031 5.90625-2.484375 8.625-1.773438 10.636719-.472656-4.847656-3.898438-6.734375-5.554688-10.875-11.109375zm0 0" fill="#9ca69c" stroke="#9ca69c" stroke-width="1.111111"/><path d="m505.6875 366.058594.351562 13.246094s4.609376.820312 6.738282 0c2.125-.832032-.121094-9.226563-7.089844-13.246094zm0 0" fill="#fff" stroke="#fff" stroke-width="1.111111"/><path d="m539.140625 367.71875s-8.515625-20.566406-30.265625-25.769531-18.914062-28.371094-17.136719-29.789063c.941407-2.007812 1.652344-5.085937 7.921875-2.128906 6.257813 2.957031 35.097656 17.496094 39.238282 18.203125 4.140624.710937.59375 39.957031.242187 39.484375zm0 0" fill="#9ca69c" stroke="#000" stroke-width="1.111111"/><path d="m518.453125 341.828125c-.359375.238281 29.078125 17.378906 20.207031 32.152344 8.398438-5.554688 5.675782-15.246094 5.675782-15.246094s6.855468 17.851563-9.808594 26.597656c1.773437 1.535157 2.957031 1.179688 2.957031 1.179688l-2.839844 2.839843s-1.300781 2.125 9.929688-3.316406c-3.074219 2.484375-3.308594 4.257813-3.308594 4.257813s.824219 2.367187 8.152344-4.019531c-5.90625 6.386718-7.207031 9.695312-7.207031 9.578124 15.953124-1.421874 50.707031-53.3125-10.992188-68.683593 3.308594 3.429687 2.835938 2.957031 2.835938 2.957031zm0 0" fill="#d90000" stroke="#000" stroke-width="1.111111"/><path d="m519.753906 336.746094c4.015625 2.835937 5.4375 3.78125 5.910156 5.203125-3.667968-.832031-6.980468-.59375-6.980468-.59375s-7.914063-7.5625-9.335938-8.152344c-1.0625 0-7.210937-3.898437-7.210937-3.898437-3.070313-1.542969-5.90625-12.183594 5.4375-9.105469 11.703125 5.554687 13.355469 6.027343 13.355469 6.027343 4.652343 1.460938 9.300781 2.917969 13.949218 4.371094 2.679688 2.996094 5.363282 5.992188 8.039063 8.984375 0 0-14.300781-7.089843-16.074219-7.207031 3.902344 3.1875 6.148438 7.5625 6.148438 7.5625-4.535157-1.296875-8.476563-2.480469-13.238282-3.191406zm0 0" fill="#fff" stroke="#000" stroke-width="1.111111"/><path d="m464.078125 273.269531s13.710937-3.308593 15.363281-2.835937zm0 0"/></g><path d="m464.078125 273.269531s13.710937-3.308593 15.363281-2.835937" fill="none" stroke="#fff" stroke-width="1.111111"/></svg>