<svg viewBox="0 0 1000 500" xmlns="http://www.w3.org/2000/svg"><path d="m0 0h1000v500h-1000z" fill="#00247d"/><path d="m0 500h1000v-500h-1000zm0 0" fill="none" stroke="#00247d" stroke-linecap="square" stroke-miterlimit="3.239307"/><path d="m0 0v55.898438l888.191406 444.101562h111.808594v-55.898438l-888.191406-444.101562zm1000 0v55.898438l-888.191406 444.101562h-111.808594v-55.90625l888.191406-444.09375zm0 0" fill="#fff" fill-rule="evenodd"/><path d="m0 500 333.328125-166.671875h74.542969l-333.339844 166.671875zm0-500 333.328125 166.671875h-74.527344l-258.800781-129.40625zm592.128906 166.671875 333.339844-166.671875h74.53125l-333.328125 166.671875zm407.871094 333.328125-333.328125-166.671875h74.527344l258.800781 129.40625zm0 0" fill="#cf142b" fill-rule="evenodd"/><g stroke-linecap="square" stroke-miterlimit="3.239307"><path d="m416.671875 0v500h166.65625v-500zm0 0" fill="#fff" stroke="#fff"/><path d="m0 166.671875v166.65625h1000v-166.65625zm0 0" fill="#fff" stroke="#fff"/><path d="m0 200v100h1000v-100zm0 0" fill="#cf142b" stroke="#cf142b"/><path d="m450 0v500h100v-500zm0 0" fill="#cf142b" stroke="#cf142b"/></g></svg>