<svg viewBox="0 0 1000 500" xmlns="http://www.w3.org/2000/svg"><g fill-rule="evenodd"><path d="m0 0h1000v160h-1000zm0 0" fill="#0099b5"/><path d="m0 160h1000v180h-1000zm0 0" fill="#ce1126"/><path d="m0 170h1000v160h-1000zm0 0" fill="#fff"/><path d="m0 340h1000v160h-1000zm0 0" fill="#1eb53a"/><path d="m200 80c0 33.136719-26.863281 60-60 60s-60-26.863281-60-60 26.863281-60 60-60 60 26.863281 60 60zm0 0" fill="#fff"/><path d="m220 80c0 33.136719-26.863281 60-60 60s-60-26.863281-60-60 26.863281-60 60-60 60 26.863281 60 60zm0 0" fill="#0099b5"/><g fill="#fff"><path d="m175.996094 115.996094-3.699219 11.417968 5.699219 1.851563zm0 0"/><path d="m175.996094 115.996094 3.710937 11.417968-5.703125 1.851563zm0 0"/><path d="m187.414062 124.289062h-12.003906v6.003907zm0 0"/><path d="m187.414062 124.289062-9.710937 7.058594-3.523437-4.851562zm0 0"/><path d="m183.058594 137.703125-3.714844-11.402344-5.703125 1.855469zm0 0"/><path d="m183.058594 137.703125-9.707032-7.046875 3.523438-4.855469zm0 0"/><path d="m168.945312 137.703125 9.707032-7.046875-3.523438-4.855469zm0 0"/><path d="m168.945312 137.703125 3.710938-11.402344 5.703125 1.855469zm0 0"/><path d="m164.589844 124.289062 9.707031 7.058594 3.527344-4.851562zm0 0"/><path d="m164.589844 124.289062h12.003906v6.003907zm0 0"/><path d="m224.003906 115.996094-3.710937 11.417968 5.703125 1.851563zm0 0"/><path d="m224.003906 115.996094 3.699219 11.417968-5.699219 1.851563zm0 0"/><path d="m235.410156 124.289062h-12.003906v6.003907zm0 0"/><path d="m235.410156 124.289062-9.707031 7.058594-3.527344-4.851562zm0 0"/><path d="m231.054688 137.703125-3.710938-11.402344-5.703125 1.855469zm0 0"/><path d="m231.054688 137.703125-9.707032-7.046875 3.523438-4.855469zm0 0"/><path d="m216.941406 137.703125 9.707032-7.046875-3.523438-4.855469zm0 0"/><path d="m216.941406 137.703125 3.714844-11.402344 5.703125 1.855469zm0 0"/><path d="m212.585938 124.289062 9.710937 7.058594 3.523437-4.851562zm0 0"/><path d="m212.585938 124.289062h12.003906v6.003907zm0 0"/><path d="m272.003906 115.996094-3.714844 11.417968 5.707032 1.851563zm0 0"/><path d="m272.003906 115.996094 3.707032 11.417968-5.710938 1.851563zm0 0"/><path d="m283.40625 124.289062h-11.992188v6.003907zm0 0"/><path d="m283.40625 124.289062-9.707031 7.058594-3.523438-4.851562zm0 0"/><path d="m279.050781 137.703125-3.707031-11.402344-5.707031 1.855469zm0 0"/><path d="m279.050781 137.703125-9.707031-7.046875 3.527344-4.855469zm0 0"/><path d="m264.949219 137.703125 9.707031-7.046875-3.523438-4.855469zm0 0"/><path d="m264.949219 137.703125 3.703125-11.402344 5.710937 1.855469zm0 0"/><path d="m260.585938 124.289062 9.707031 7.058594 3.523437-4.851562zm0 0"/><path d="m260.585938 124.289062h12v6.003907zm0 0"/><path d="m320 115.996094-3.710938 11.417968 5.714844 1.851563zm0 0"/><path d="m320 115.996094 3.710938 11.417968-5.714844 1.851563zm0 0"/><path d="m331.414062 124.289062h-12v6.003907zm0 0"/><path d="m331.414062 124.289062-9.703124 7.058594-3.535157-4.851562zm0 0"/><path d="m327.050781 137.703125-3.699219-11.402344-5.714843 1.855469zm0 0"/><path d="m327.050781 137.703125-9.707031-7.046875 3.527344-4.855469zm0 0"/><path d="m312.949219 137.703125 9.707031-7.046875-3.527344-4.855469zm0 0"/><path d="m312.949219 137.703125 3.699219-11.402344 5.714843 1.855469zm0 0"/><path d="m308.585938 124.289062 9.703124 7.058594 3.535157-4.851562zm0 0"/><path d="m308.585938 124.289062h12v6.003907zm0 0"/><path d="m367.996094 115.996094-3.707032 11.417968 5.710938 1.851563zm0 0"/><path d="m367.996094 115.996094 3.714844 11.417968-5.707032 1.851563zm0 0"/><path d="m379.414062 124.289062h-12v6.003907zm0 0"/><path d="m379.414062 124.289062-9.707031 7.058594-3.523437-4.851562zm0 0"/><path d="m375.050781 137.703125-3.703125-11.402344-5.710937 1.855469zm0 0"/><path d="m375.050781 137.703125-9.707031-7.046875 3.523438-4.855469zm0 0"/><path d="m360.949219 137.703125 9.707031-7.046875-3.527344-4.855469zm0 0"/><path d="m360.949219 137.703125 3.707031-11.402344 5.707031 1.855469zm0 0"/><path d="m356.59375 124.289062 9.707031 7.058594 3.523438-4.851562zm0 0"/><path d="m356.59375 124.289062h11.992188v6.003907zm0 0"/><path d="m224.003906 67.996094-3.710937 11.417968 5.703125 1.855469zm0 0"/><path d="m224.003906 67.996094 3.699219 11.417968-5.699219 1.855469zm0 0"/><path d="m235.410156 76.289062h-12.003906v6.007813zm0 0"/><path d="m235.410156 76.289062-9.707031 7.0625-3.527344-4.863281zm0 0"/><path d="m231.054688 89.707031-3.710938-11.417969-5.703125 1.859376zm0 0"/><path d="m231.054688 89.707031-9.707032-7.050781 3.523438-4.855469zm0 0"/><path d="m216.941406 89.707031 9.707032-7.050781-3.523438-4.855469zm0 0"/><path d="m216.941406 89.707031 3.714844-11.417969 5.703125 1.859376zm0 0"/><path d="m212.585938 76.289062 9.710937 7.0625 3.523437-4.863281zm0 0"/><path d="m212.585938 76.289062h12.003906v6.007813zm0 0"/><path d="m272.003906 67.996094-3.714844 11.417968 5.707032 1.855469zm0 0"/><path d="m272.003906 67.996094 3.707032 11.417968-5.710938 1.855469zm0 0"/><path d="m283.40625 76.289062h-11.992188v6.007813zm0 0"/><path d="m283.40625 76.289062-9.707031 7.0625-3.523438-4.863281zm0 0"/><path d="m279.050781 89.707031-3.707031-11.417969-5.707031 1.859376zm0 0"/><path d="m279.050781 89.707031-9.707031-7.050781 3.527344-4.855469zm0 0"/><path d="m264.949219 89.707031 9.707031-7.050781-3.523438-4.855469zm0 0"/><path d="m264.949219 89.707031 3.703125-11.417969 5.710937 1.859376zm0 0"/><path d="m260.585938 76.289062 9.707031 7.0625 3.523437-4.863281zm0 0"/><path d="m260.585938 76.289062h12v6.007813zm0 0"/><path d="m320 67.996094-3.710938 11.417968 5.714844 1.855469zm0 0"/><path d="m320 67.996094 3.710938 11.417968-5.714844 1.855469zm0 0"/><path d="m331.414062 76.289062h-12v6.007813zm0 0"/><path d="m331.414062 76.289062-9.703124 7.0625-3.535157-4.863281zm0 0"/><path d="m327.050781 89.707031-3.699219-11.417969-5.714843 1.859376zm0 0"/><path d="m327.050781 89.707031-9.707031-7.050781 3.527344-4.855469zm0 0"/><path d="m312.949219 89.707031 9.707031-7.050781-3.527344-4.855469zm0 0"/><path d="m312.949219 89.707031 3.699219-11.417969 5.714843 1.859376zm0 0"/><path d="m308.585938 76.289062 9.703124 7.0625 3.535157-4.863281zm0 0"/><path d="m308.585938 76.289062h12v6.007813zm0 0"/><path d="m367.996094 67.996094-3.707032 11.417968 5.710938 1.855469zm0 0"/><path d="m367.996094 67.996094 3.714844 11.417968-5.707032 1.855469zm0 0"/><path d="m379.414062 76.289062h-12v6.007813zm0 0"/><path d="m379.414062 76.289062-9.707031 7.0625-3.523437-4.863281zm0 0"/><path d="m375.050781 89.707031-3.703125-11.417969-5.710937 1.859376zm0 0"/><path d="m375.050781 89.707031-9.707031-7.050781 3.523438-4.855469zm0 0"/><path d="m360.949219 89.707031 9.707031-7.050781-3.527344-4.855469zm0 0"/><path d="m360.949219 89.707031 3.707031-11.417969 5.707031 1.859376zm0 0"/><path d="m356.59375 76.289062 9.707031 7.0625 3.523438-4.863281zm0 0"/><path d="m356.59375 76.289062h11.992188v6.007813zm0 0"/><path d="m272.003906 20-3.714844 11.414062 5.707032 1.859376zm0 0"/><path d="m272.003906 20 3.707032 11.414062-5.710938 1.859376zm0 0"/><path d="m283.40625 28.289062h-11.992188v6zm0 0"/><path d="m283.40625 28.289062-9.707031 7.054688-3.523438-4.855469zm0 0"/><path d="m279.050781 41.710938-3.707031-11.417969-5.707031 1.855469zm0 0"/><path d="m279.050781 41.710938-9.707031-7.054688 3.527344-4.851562zm0 0"/><path d="m264.949219 41.710938 9.707031-7.054688-3.523438-4.851562zm0 0"/><path d="m264.949219 41.710938 3.703125-11.417969 5.710937 1.855469zm0 0"/><path d="m260.585938 28.289062 9.707031 7.054688 3.523437-4.855469zm0 0"/><path d="m260.585938 28.289062h12v6zm0 0"/><path d="m320 20-3.710938 11.414062 5.714844 1.859376zm0 0"/><path d="m320 20 3.710938 11.414062-5.714844 1.859376zm0 0"/><path d="m331.414062 28.289062h-12v6zm0 0"/><path d="m331.414062 28.289062-9.703124 7.054688-3.535157-4.855469zm0 0"/><path d="m327.050781 41.710938-3.699219-11.417969-5.714843 1.855469zm0 0"/><path d="m327.050781 41.710938-9.707031-7.054688 3.527344-4.851562zm0 0"/><path d="m312.949219 41.710938 9.707031-7.054688-3.527344-4.851562zm0 0"/><path d="m312.949219 41.710938 3.699219-11.417969 5.714843 1.855469zm0 0"/><path d="m308.585938 28.289062 9.703124 7.054688 3.535157-4.855469zm0 0"/><path d="m308.585938 28.289062h12v6zm0 0"/><path d="m367.996094 20-3.707032 11.414062 5.710938 1.859376zm0 0"/><path d="m367.996094 20 3.714844 11.414062-5.707032 1.859376zm0 0"/><path d="m379.414062 28.289062h-12v6zm0 0"/><path d="m379.414062 28.289062-9.707031 7.054688-3.523437-4.855469zm0 0"/><path d="m375.050781 41.710938-3.703125-11.417969-5.710937 1.855469zm0 0"/><path d="m375.050781 41.710938-9.707031-7.054688 3.523438-4.851562zm0 0"/><path d="m360.949219 41.710938 9.707031-7.054688-3.527344-4.851562zm0 0"/><path d="m360.949219 41.710938 3.707031-11.417969 5.707031 1.855469zm0 0"/><path d="m356.59375 28.289062 9.707031 7.054688 3.523438-4.855469zm0 0"/><path d="m356.59375 28.289062h11.992188v6zm0 0"/></g></g></svg>