<svg viewBox="0 0 1000 750" xmlns="http://www.w3.org/2000/svg"><path d="m0 0h1000v750h-1000z" fill="#da251d"/><g fill="#ff0" fill-rule="evenodd"><path d="m500 225-46.355469 142.660156 95.109375 30.898438zm0 0"/><path d="m500 225 46.355469 142.660156-95.109375 30.898438zm0 0"/><path d="m642.660156 328.644531h-150v100zm0 0"/><path d="m642.660156 328.644531-121.355468 88.171875-58.777344-80.902344zm0 0"/><path d="m588.167969 496.355469-46.351563-142.660157-95.109375 30.898438zm0 0"/><path d="m588.167969 496.355469-121.351563-88.171875 58.777344-80.902344zm0 0"/><path d="m357.339844 328.644531h150v100zm0 0"/><path d="m357.339844 328.644531 121.355468 88.171875 58.777344-80.902344zm0 0"/><path d="m411.832031 496.355469 46.351563-142.660157 95.109375 30.898438zm0 0"/><path d="m411.832031 496.355469 121.351563-88.171875-58.777344-80.902344zm0 0"/></g></svg>