<svg viewBox="0 0 1000 667" xmlns="http://www.w3.org/2000/svg" xmlns:xlink="http://www.w3.org/1999/xlink"><clipPath id="a"><path d="m0 0h1000v666.71875h-1000zm0 0"/></clipPath><clipPath id="b"><path d="m880 238h120v428.71875h-120zm0 0"/></clipPath><clipPath id="c"><path d="m761 238h120v428.71875h-120zm0 0"/></clipPath><clipPath id="d"><path d="m642 238h120v428.71875h-120zm0 0"/></clipPath><g clip-path="url(#a)"><path d="m0 666.667969v-666.667969h1000v666.667969zm0 0" fill="#198a00" fill-rule="evenodd"/></g><g clip-path="url(#b)"><path d="m880.953125 238.09375h119.046875v428.574219h-119.046875zm0 0" fill="#ef7d00" fill-rule="evenodd"/></g><g clip-path="url(#c)"><path d="m761.90625 238.09375h119.046875v428.574219h-119.046875zm0 0" fill-rule="evenodd"/></g><g clip-path="url(#d)"><path d="m642.855469 238.09375h119.050781v428.574219h-119.050781zm0 0" fill="#de2010" fill-rule="evenodd"/></g><g fill="#ef7d00" fill-rule="evenodd"><path d="m912.582031 80.160156s40.953125-16.050781 44.921875-19.359375c1.804688 1.984375-16.417968 22.171875-51.777344 29.617188 32.113282-6.949219 59.535157-28.792969 65.128907-28.128907 1.625.328126 1.261719 21.34375-72.34375 39.546876 50.875-12.246094 80.460937-34.75 80.101562-32.265626.359375.496094-5.050781 17.703126-49.613281 31.105469 12.449219-2.644531 46.183594-21.507812 45.824219-17.867187 1.082031 1.488281-32.652344 41.199218-93.632813 28.292968 48.710938 11.582032 80.28125-16.382812 84.792969-15.882812.902344.164062-9.019531 24.488281-70.359375 25.976562 29.40625-2.8125 20.929688-.164062 20.929688-.164062s-17.320313 12.410156-38.25 3.972656c16.417968 4.136719 18.222656 4.300782 18.582031 5.621094-1.082031 1.65625-14.609375 4.136719-27.601563-2.3125 10.464844 3.96875 19.84375 4.632812 20.023438 6.121094-.179688.496094-6.855469 3.972656-12.808594 1.488281-5.953125-2.480469-60.796875-33.425781-60.796875-33.425781l93.453125-23.496094zm0 0" stroke="#000" stroke-width="1.071429"/><path d="m802.71875 163.859375c-8.214844 0-8.441406 6.707031-8.441406 6.707031s-.679688.484375-.226563 3.734375c1.355469-2.210937 2.035157-2.90625 2.035157-2.90625.90625.140625 4.675781 1.179688 10.628906-3.109375-5.425782 5.183594-2.1875 7.121094-2.1875 7.121094s-1.277344 4.082031 2.867187 4.910156c-1.28125-1.660156-.527343-3.109375-.527343-3.109375s5.804687-.554687 5.429687-7.054687c.226563 5.878906 3.691406 7.328125 3.691406 7.328125s0 3.25 3.769531 3.527343c-2.035156-1.660156-1.582031-4.21875-1.582031-4.21875s4.902344-3.25.753907-8.78125c2.488281-1.3125 4.523437-4.976562 4.523437-4.976562s-3.390625-1.316406-4.976563-2.421875c-.753906-1.453125-.074218-9.40625-.074218-9.40625l-2.035156-10.300781-5.804688 16.042968c.222656-2.285156.375 6.914063-7.84375 6.914063zm0 0" stroke="#000" stroke-width="1.071429"/><path d="m843.304688 140.71875c.183593.167969 6.136718 6.292969 11.910156 5.957031 2.164062-1.652343-4.511719-5.292969-4.511719-6.121093 2.34375 1.988281 12.265625 9.765624 18.582031 6.949218 2.523438-3.308594-4.511718-2.8125-12.269531-11.746094 5.414063 3.308594 18.945313 10.589844 25.261719 7.777344 2.703125-2.648437-14.074219-10.921875-19.667969-17.375l-14.433594-6.785156-19.664062 14.726562zm0 0" stroke="#000" stroke-width="1.071429"/><path d="m821.117188 90.417969s6.675781-3.640625 33.375-1.820313c2.886718.332032 18.21875-4.796875 23.089843-6.289062 7.761719-1.320313 32.472657-6.285156 39.148438-10.917969 4.691406-.496094-1.261719 7.941406-7.214844 9.925781-6.3125 2.648438-29.226563 9.929688-37.34375 8.9375 9.742187.164063 4.328125 7.445313-11.90625 3.96875 7.757813 3.972656 4.871094 4.636719 4.871094 4.636719s-13.710938.660156-17.320313-2.152344c9.199219 3.144531 5.414063 4.300781 5.414063 4.300781s-9.382813.828126-13.710938-.992187c6.671875 1.820313 3.246094 2.980469 3.246094 2.980469s-5.410156.828125-9.921875-.664063c-4.511719-1.488281-11.367188-11.914062-11.726562-11.914062zm0 0" stroke="#000" stroke-width="1.071429"/><path d="m831.820312 144.148438.984376 16.183593s-.527344.832031-.984376 1.3125c-.449218.484375-12.515624-1.726562-10.855468 6.710938 0 3.457031.074218 4.355469 2.640625 6.289062-.679688-2.277343-.453125-3.871093-.453125-3.871093s3.390625 1.867187 6.710937-3.25c-2.261719 5.050781-.679687 6.847656-.152343 6.984374.527343.902344-.90625 4.980469 3.621093 4.910157-1.734375-1.519531-.90625-3.734375-.90625-3.734375s4.75-.691406 3.089844-8.574219c1.734375-1.589844 2.414063-.066406 2.414063-.066406s.527343 4.699219 4.675781 3.730469c1.882812.96875-.300781 3.527343-.300781 3.527343s3.011718.070313 3.917968-2.28125c.90625-2.351562 1.960938-6.570312-3.015625-8.296875-.601562-1.660156 1.960938-1.800781 1.960938-1.800781s3.167969.96875 4.070312 2.421875c.90625 1.449219.601563-3.804688-3.316406-4.359375-4.824219-.136719-5.128906-1.035156-5.128906-1.242187 0-.207032-.828125-11.753907-1.203125-15.074219zm0 0" stroke="#000" stroke-width="1.071429"/><path d="m848.605469 157.941406c.058593-.742187-8.230469-10.980468-6.128907-12.304687 2.101563.398437 5.550782 5.054687 8.34375 3.542969-.847656-1.816407-3.34375-.792969-6.175781-5.441407-2.832031-5.253906-3.246093-13.140625-13.167969-21.742187 6.421876 9.105468 20.996094 14.4375 21.613282 11.785156.617187-2.65625-12.832032-12.691406-12.144532-15.109375 2.675782 4.96875 16.179688 16.035156 26.128907 15.121094.679687-2.132813-8.148438-6.433594-10.417969-10.449219-6.359375-3.917969-23.367188-17.363281-23.707031-20.480469-6.1875-8.28125-10.054688-10.785156-11.851563-11.742187-.695312-.75-.871094-1.464844-1.007812-1.921875-3.839844-8.308594 1.25-11.007813 4.226562-11.40625 2.449219-.25 3.164063.089843 4.925782-.695313-2.085938-.75-4.175782-1.453125-6.261719-2.199218 2.722656 1.832031 9.675781.21875 8.167969 5.492187 3.050781-1.0625 9.539062-8.144531-7.351563-9.742187-5.5-5.785157-28.101563-9.105469-33.757813 16.136718.449219.355469.6875.648438 2.125 1.632813-7.136718-3.171875-26.390624-5.621094-33.328124-6.648438-18.746094-4.960937-38.210938-16.914062-40.082032-15.445312-2.503906 1.019531 11.324219 12.820312 10.605469 13.078125-11.992187-6.410156-22.945313-10.953125-33.136719-15.085938-7.167968-2.460937-14.351562-8.183594-15.140625-7.09375-2.640625 5.011719 11.492188 17.617188 14.121094 19.097656 2.628906 1.417969 23.308594 10.21875 23.003906 10.324219-31.144531-12.964843-36.367187-15.3125-37.929687-16.808593-2.746094-.566407-9.433594-8.847657-11.292969-8.316407-1.023437.917969 1.023437 14.007813 15.886719 19.878907 2.421875 1.617187 31.855468 11.304687 31.566406 12.0625-.070312.191406-33.714844-12.734376-35.019531-13.195313-6.484375-2.332031-14.445313-10.511719-15.933594-9.589844-1.417969.832031 3.671875 9.683594 10.222656 12.460938 3.4375 1.390625 16.617188 7.375 28.488281 11.183593.757813.253907-21.339843-7.683593-31.964843-11.757812-4.820313-2.453125-7.085938-5.507812-7.820313-4.847656-1.085937.652344 1.75 13.730468 35.894532 21.105468.898437.351563 12.019531-2.414062 11.46875-2.046874-.136719.09375-11.042969 2.269531-12.105469 2.195312-.941407-.132812-6.914063.648438-7.023438.929688-.363281.886718 2.164063 5.566406 19.792969 4.589843 2.253906-.125 14.484375-4.082031 13.457031-3.234375-.515625.429688-16.65625 5.238282-17.882812 5.332032-1.070313.140624-6.738281.683593-6.949219 1.238281-.257812.753906 4.195312 4.085937 13.664062 4.621093 8.382813.40625 24.308594-4.699218 23.988282-4.367187-.316406.328125-15.351563 5.054687-15.746094 5.34375-.546875.28125-6.046875.554687-6.242188.941406-.449218.964844 7.941407 8.164063 32.753907.484375-2.492188 3.085938-14.519531 5.199219-14.503907 5.753906-.054687.402344 2.652344 2.800782 6.855469 3.660157 2.105469.429687 4.980469.339843 7.613281-.039063 4.722657-.867187 9.699219-2.582031 16.019532-7.941406.757812 1.683594-15.796875 9.363281-15.019532 10.097656 3.589844 3.050782 15.515626-.394531 16.296876-.792968.78125-.402344 22.957031-11.871094 22.882812-13.199219.34375 1.703125-28.59375 16.121093-28.28125 16.714843 1.855469 2.71875 11.742188-.144531 12.214844-.394531.472656-.246093 12.617187-6.265625 12.949218-6.445312.332032-.175781-14.273437 7.84375-12.972656 9.0625-.628906 5.207031 22.808594-3.59375 24.644532-4.691407.921874-.542968-11.257813 4.914063-11.289063 7.507813 3.921875 6.078125 16.476563 4.148437 18.414063 2.8125.96875-.667969-1.140626 4.519531-.460938 4.046875.238281-.097656 2.730469-2.800781 3.691406-4.761719-.308594 1.699219-1.683594 4.378907-2.488281 7.449219s-1.035156 6.535156-2.136719 10.214844c-.253906 1.621094 7.734375-3.160156 6.574219-14.582032.6875 5.941407-2.519531 17.050782-1.679687 17.628907 1.675781 1.15625 6.316406-5.53125 6.785156-10.058594 1.378906 2.285156 4.269531 7.054687 6.757812 8.152344-.269531-3.453125.046875-3.296875-1.070312-6.695313.644531-4.507812.734375-10.75.894531-17.796875 6.757813 11.878907 9.453125 16.894531 7.566406 25.992188 2.011719.769531 5.222657-6.351563 4.960938-10.015625 2.585937 10.183594 13.726562 11.707031 13.90625 11.414062zm0 0" stroke="#000" stroke-width="1.071429"/><path d="m735.988281 82.515625s-4.601562 3.191406-10.332031 3.003906c1.433594 5.25 13.296875 1.21875 13.296875 1.21875s-5.726563 5.816407-9.816406 6.753907c2.453125 1.875 12.785156 1.21875 14.523437.28125 1.734375-.9375 4.804688-4.59375 4.804688-4.59375s-10.636719 11.253906-12.167969 11.160156c-.207031 1.3125 11.144531.84375 13.5-1.125 2.347656-1.96875 8.28125-4.878906 8.28125-4.878906s-15.542969 9.941406-16.261719 9.941406c5.832032 1.410156 17.488282-1.6875 24.953125-5.90625-11.046875 6.75-12.066406 7.972656-17.691406 10.222656 5.011719 1.03125 7.566406 4.128906 24.546875-2.625 9.714844-4.222656 15.234375-11.914062 15.234375-11.914062-6.03125 7.410156-15.546875 13.695312-26.074219 19.886718-.617187 1.125 11.246094 5.71875 26.382813-8.722656zm0 0"/></g><path d="m735.988281 82.515625s-4.601562 3.191406-10.332031 3.003906c1.433594 5.25 13.296875 1.21875 13.296875 1.21875s-5.726563 5.816407-9.816406 6.753907c2.453125 1.875 12.785156 1.21875 14.523437.28125 1.734375-.9375 4.804688-4.59375 4.804688-4.59375s-10.636719 11.253906-12.167969 11.160156c-.207031 1.3125 11.144531.84375 13.5-1.125 2.347656-1.96875 8.28125-4.878906 8.28125-4.878906s-15.542969 9.941406-16.261719 9.941406c5.832032 1.410156 17.488282-1.6875 24.953125-5.90625-11.046875 6.75-12.066406 7.972656-17.691406 10.222656 5.011719 1.03125 7.566406 4.128906 24.546875-2.625 9.714844-4.222656 15.234375-11.914062 15.234375-11.914062-6.03125 7.410156-15.546875 13.695312-26.074219 19.886718-.617187 1.125 11.246094 5.71875 26.382813-8.722656" fill="none" stroke="#000" stroke-width="1.071429"/><path d="m818.210938 113.847656s1.023437 4.40625 5.113281 7.785156c4.089843 3.375 4.394531 6.660157 4.394531 6.660157zm0 0" fill="#ef7d00" fill-rule="evenodd"/><path d="m818.210938 113.847656s1.023437 4.40625 5.113281 7.785156c4.089843 3.375 4.394531 6.660157 4.394531 6.660157" fill="none" stroke="#000" stroke-width="1.071429"/><path d="m816.164062 85.144531s1.433594 3.9375 5.625 6.472657c4.296876 2.53125 10.738282 10.503906 11.25 11.914062.496094 1.699219 2.964844 13.976562 2.761719 15.285156zm0 0" fill="#ef7d00" fill-rule="evenodd"/><path d="m816.164062 85.144531s1.433594 3.9375 5.625 6.472657c4.296876 2.53125 10.738282 10.503906 11.25 11.914062.496094 1.699219 2.964844 13.976562 2.761719 15.285156" fill="none" stroke="#000" stroke-width="1.071429"/><path d="m790.089844 91.242188c.304687 1.5-6.035156 9.097656 2.65625 18.007812-7.875 8.816406-7.875 9.945312-7.875 9.945312s4.398437 2.25 12.273437-3.941406c12.988281 14.632813 8.660157 21.328125 8.660157 21.328125zm0 0" fill="#ef7d00" fill-rule="evenodd"/><path d="m790.089844 91.242188c.304687 1.5-6.035156 9.097656 2.65625 18.007812-7.875 8.816406-7.875 9.945312-7.875 9.945312s4.398437 2.25 12.273437-3.941406c12.988281 14.632813 8.660157 21.328125 8.660157 21.328125" fill="none" stroke="#000" stroke-width="1.071429"/><path d="m804.769531 126.253906s-1.199219-1.574218.9375-7.441406c1.917969 2.121094 4.054688 2.574219 4.992188 3.433594.933593.859375 10.742187 2.160156 11.363281 8.171875zm0 0" fill="#ef7d00" fill-rule="evenodd"/><path d="m804.769531 126.253906s-1.199219-1.574218.9375-7.441406c1.917969 2.121094 4.054688 2.574219 4.992188 3.433594.933593.859375 10.742187 2.160156 11.363281 8.171875" fill="none" stroke="#000" stroke-width="1.071429"/><path d="m816.296875 71.160156c0-.441406-1.972656-4.332031-9.34375.527344 3.949219.222656 7.851563 2.296875 9.34375-.527344zm0 0" fill="#ef7d00" fill-rule="evenodd" stroke="#000" stroke-width="1.071429"/><path d="m886.605469 88.929688c.359375.164062 22.007812 4.464843 29.222656 2.316406-9.199219 11.25-27.601563 3.640625-27.601563 3.640625 9.019532 2.480469 9.382813 2.316406 12.269532 4.632812.902344 2.148438-16.597656 1.15625-22.371094-1.820312 16.058594 4.632812 16.417969 4.300781 16.960938 6.125.71875 2.480469-26.34375-.664063-28.6875-3.972657 7.214843 5.128907 11.183593 6.121094 15.152343 8.4375-4.871093 1.984376-13.890625 3.972657-30.488281-6.785156 21.832031 18.203125 41.496094 17.042969 44.5625 20.351563-7.578125 10.261719-36.984375-6.121094-50.515625-14.394531-13.527344-8.273438 29.589844 20.023437 33.558594 19.527343-1.988281 2.808594-16.238281.332031-17.140625-.992187zm0 0" fill="#ef7d00" fill-rule="evenodd"/><path d="m886.605469 88.929688c.359375.164062 22.007812 4.464843 29.222656 2.316406-9.199219 11.25-27.601563 3.640625-27.601563 3.640625 9.019532 2.480469 9.382813 2.316406 12.269532 4.632812.902344 2.148438-16.597656 1.15625-22.371094-1.820312 16.058594 4.632812 16.417969 4.300781 16.960938 6.125.71875 2.480469-26.34375-.664063-28.6875-3.972657 7.214843 5.128907 11.183593 6.121094 15.152343 8.4375-4.871093 1.984376-13.890625 3.972657-30.488281-6.785156 21.832031 18.203125 41.496094 17.042969 44.5625 20.351563-7.578125 10.261719-36.984375-6.121094-50.515625-14.394531-13.527344-8.273438 29.589844 20.023437 33.558594 19.527343-1.988281 2.808594-16.238281.332031-17.140625-.992187" fill="none" stroke="#000" stroke-width="1.071429"/><path d="m892.195312 107.957031c-2.523437.332031-10.101562.332031-11.183593.167969zm0 0" fill="#ef7d00" fill-rule="evenodd"/><path d="m892.195312 107.957031c-2.523437.332031-10.101562.332031-11.183593.167969" fill="none" stroke="#000" stroke-width="1.071429"/><path d="m729.648438 79.515625s16.464843 7.972656 23.417968 7.410156c-1.839844 1.59375-4.601562 2.253907-4.601562 2.253907 1.738281.65625 6.542968 3 13.804687 1.5-1.738281 1.59375-3.988281 3.375-3.988281 3.375s6.238281 2.15625 13.296875-1.21875c-2.148437 2.4375-3.375 4.21875-3.375 4.21875l4.90625.28125zm0 0" fill="#ef7d00" fill-rule="evenodd"/><path d="m729.648438 79.515625s16.464843 7.972656 23.417968 7.410156c-1.839844 1.59375-4.601562 2.253907-4.601562 2.253907 1.738281.65625 6.542968 3 13.804687 1.5-1.738281 1.59375-3.988281 3.375-3.988281 3.375s6.238281 2.15625 13.296875-1.21875c-2.148437 2.4375-3.375 4.21875-3.375 4.21875l4.90625.28125" fill="none" stroke="#000" stroke-width="1.071429"/></svg>