<svg viewBox="0 0 1000 714" xmlns="http://www.w3.org/2000/svg"><path d="m0 0h1000v714h-1000z" fill="#e41e20"/><path d="m428.703125 138.859375c-6.9375-.109375-18.472656 2.21875-18.210937 7.546875-19.34375-3.3125-21.359376 4.675781-20.222657 11.789062 1.839844-2.824218 4.082031-4.359374 5.804688-4.644531 2.578125-.425781 5.28125.40625 8.035156 2.097657 2.753906 1.695312 5.789063 4.425781 7.140625 6.121093-6.828125 1.628907-12.101562.578125-17.457031-.363281-2.636719-.460938-6.328125-1.949219-8.523438-3.480469-2.199219-1.535156-2.890625-2.980469-6.34375-6.515625-4.066406-4.171875-8.40625-3-7.050781 3.480469 3.125 6.011719 8.335938 8.695313 14.914062 9.777344 3.160157.519531 7.867188 1.648437 13.210938 1.648437 5.34375.007813 11.335938-.769531 14.601562-.085937-1.960937 1.226562-4.179687 3.351562-8.574218 4.195312-4.472656.855469-11.257813-2.660156-15.402344-3.613281.523438 3.480469 4.917969 6.738281 13.574219 8.433594 14.214843 3.09375 26.027343 5.445312 33.839843 9.6875 7.804688 4.242187 12.730469 9.546875 16.242188 13.707031 7.003906 8.273437 7.367188 14.628906 7.8125 16.027344 1.445312 13.21875-3.164062 20.65625-11.738281 22.941406-4.28125 1.144531-11.894531-1.003906-14.683594-4.28125s-5.507813-8.90625-4.734375-17.722656c.75-3.460938 4.707031-12.472657 1.335938-14.328125-15.511719-8.582032-34.351563-17.25-47.988282-22.414063-3.726562-1.40625-6.792968 3.65625-7.988281 5.621094-23.15625-2.816406-44.042969-18.488281-53.4375-35.175781-6.402344-11.363282-16.949219.023437-15.179687 10.757812 2.859374 11.984375 11.992187 20.644532 22.941406 26.785156 11.246094 6.191407 25.300781 12.285157 39.507812 11.96875 7.660156 1.445313 7.585938 11.355469-1.601562 13.210938-17.976563.113281-32.3125-.332031-45.851563-13.390625-10.265625-9.375-16.050781 1.792969-13.078125 8.125 5.027344 19.511719 32.867188 24.972656 61.027344 18.660156 10.902344-1.804687 4.375 9.878907 1.292969 10.003907-11.761719 8.429687-32.828125 16.691406-51.382813-.09375-8.488281-6.5-14.230468-1.039063-11.070312 8.351562 8.230468 24.460938 39.71875 19.328125 61.335937 7.273438 5.566407-3.101563 10.617188 4.117187 3.84375 9.601562-26.890625 18.785156-40.332031 19-52.457031 11.78125-15.183594-5.988281-16.515625 10.851562-7.496094 16.386719 10.015625 6.148437 35.523438 1.539062 54.242188-10.222657 8.019531-5.964843 8.382812 3.363282 3.296875 7.054688-22.203125 19.1875-30.957031 24.238281-54.109375 21.113281-11.472656-.894531-11.300782 13.261719-2.273438 18.792969 12.324219 7.558594 36.40625-4.988281 55.09375-20.488281 7.859375-4.207031 9.152344 2.6875 5.265625 10.847656-11.417969 14.402344-22.132812 22.902344-32.457031 26.828125-10.324219 3.933594-20.25 3.304688-27.273438.890625-8.574218-2.941406-9.648437 5.964844-4.910156 14.0625 2.851563 4.882813 14.683594 6.453125 27.453125 1.925781 12.765625-4.527344 26.480469-15.152344 35.890625-27.59375 8.1875-7.171875 7.171875 2.460938 3.4375 9.242188-18.847656 29.796875-36.089844 40.855468-58.796875 38.972656-10.066406-1.710938-12.351562 6.121094-5.933593 13.347656 11.265624 9.351563 25.355468 9.058594 37.679687-.179687 10.953125-10.558594 31.90625-33.300781 42.898437-45.488281 7.742188-6.171876 10.222657-.089844 7.945313 12.453124-2.0625 7.183594-7.238281 14.753907-21.335937 20.269532-9.636719 5.496094-2.402344 13.074218 4.820312 13.210937 3.976562.078125 12.042969-4.5625 18.210938-11.515625 8.125-9.144531 8.609374-15.28125 13.085937-29.503906 4.226563-6.9375 11.78125-3.699219 11.78125 3.570312-3.621094 14.25-6.738281 16.804688-14.0625 22.636719-7.003906 6.574219 4.882813 8.765625 8.886719 6.066407 11.585937-7.8125 15.8125-17.914063 19.683594-27.097657 2.800781-6.628906 10.90625-3.421875 7.144531 7.414063-8.976563 25.871094-23.738281 36.0625-49.554688 41.292968-2.613281.460938-4.210937 2.011719-3.296875 5.042969 3.457032 3.59375 6.933594 6.859375 10.398438 10.445313-15.964844 4.648437-28.933594 7.257812-44.914063 11.917968-7.832031-5.132812-14.167969-9.492187-22.007812-14.640624-2.0625-4.835938-3.027344-12.207032-14.601563-7.007813-7.832031-3.621094-11.453125-2.289063-15.796875 1.339844 6.277344.234375 9.011719 1.914062 11.476563 4.773437 3.207031 8.46875 10.621094 9.285156 18.210937 6.878906 4.929688 4.160157 7.5625 7.347657 12.5 11.515626-9.214843-.3125-15.632812-.480469-24.828125-.757813-8.765625-9.417969-15.769531-8.902344-22.046875-1.515625-4.785156.734375-6.816406.835938-10.09375 6.648438 5.15625-2.113282 8.390625-2.75 10.632813-.445313 9.324218 5.40625 15.414062 4.199219 20.039062 0 8.996094.550781 17.109375 1.019531 26.113282 1.609375-3.304688 2.8125-7.84375 4.304688-11.160157 7.144531-13.507812-3.871093-20.5625 1.332031-22.941406 12.359375-1.8125 4.453125-2.664063 9.035156-1.875 13.796875 1.304687-4.351562 3.410156-8.097656 7.273437-10.449219 12.046876 3.0625 16.574219-1.855468 17.230469-9.058593 5.808594-4.738281 14.566407-5.785157 20.363281-10.585938 6.773438 2.171875 10.050782 3.519531 16.871094 5.671875 2.425782 7.375 7.917969 10.296875 16.832032 8.394532 10.609374.332031 8.734374 4.683593 9.597656 8.175781 2.820312-5.003907 2.742187-9.871094-3.792969-14.285157-2.378906-6.46875-7.644531-9.40625-14.558594-5.671874-6.5-1.847657-8.210937-4.5-14.683593-6.34375 16.378906-5.222657 28-6.394532 44.371093-11.605469 4.101563 3.863281 7.34375 6.640625 11.472657 10.085937 2.179687 1.296875 4.265624 1.625 5.539062 0 10.253906-14.84375 14.835938-27.929687 24.375-37.722656 3.640625-4.046875 8.242188-9.515625 13.351562-10.847656 2.550782-.664063 5.675782-.257813 7.679688 1.917968 1.992188 2.183594 3.5625 6.203126 2.902344 12.195313-.957032 8.597656-3.039063 11.3125-5.449219 16.46875-2.414063 5.152344-5.363281 8.328125-8.390625 12.277344-6.0625 7.894531-14.0625 12.492187-18.800781 15.582031-9.464844 6.171875-13.46875 3.464844-20.800781 3.078125-9.480469 1.066406-11.996094 5.675781-4.242188 12.050781 7.25 3.773438 13.765625 4.242188 19.066406 3.265625 4.546875-.84375 9.863282-6.710937 13.65625-9.871093 4.269532-4.929688 11.34375.921874 6.515625 6.65625-8.769531 10.421874-17.53125 17.289062-28.347656 17.136718-11.363281 1.535156-9.234375 7.917969-1.695313 11.027344 13.574219 5.601562 25.828126-4.886719 32.050782-11.78125 4.808594-5.257812 8.21875-5.460938 7.367187 2.679688-4.765625 14.734374-11.28125 20.425781-21.917969 21.15625-8.628906-.800782-8.71875 5.859374-2.414062 10.359374 14.378906 9.945313 24.785156-6.988281 29.648438-17.230468 3.464843-9.242188 8.78125-4.847656 9.332031 2.765625.070312 10.167969-4.527344 18.476562-16.832031 28.882812 9.417968 15.003907 20.390624 30.261719 29.820312 45.3125 9.429688-15.050781 20.402344-30.308593 29.820312-45.3125-12.304687-10.40625-16.902343-18.714843-16.832031-28.882812.550781-7.613281 5.867188-12.007813 9.332031-2.773438 4.863282 10.242188 15.269532 27.183594 29.648438 17.238281 6.304688-4.5 6.214844-11.160156-2.414062-10.359374-10.636719-.730469-17.152344-6.421876-21.917969-21.164063-.851563-8.132813 2.558593-7.929687 7.367187-2.675781 6.222656 6.898437 18.476563 17.386718 32.050782 11.785156 7.539062-3.109375 9.667968-9.5-1.695313-11.027344-10.816406.152344-19.578125-6.714844-28.347656-17.136718-4.828125-5.742188 2.246093-11.585938 6.515625-6.65625 3.792968 3.152343 9.109375 9.027343 13.65625 9.863281 5.300781.984375 11.816406.515625 19.066406-3.257813 7.753906-6.375 5.238281-10.984375-4.242188-12.050781-7.332031.386719-11.335937 3.09375-20.800781-3.078125-4.738281-3.089844-12.738281-7.6875-18.800781-15.582031-3.027344-3.949219-5.976562-7.125-8.390625-12.277344-2.410156-5.15625-4.492187-7.871094-5.449219-16.476563-.660156-5.992187.910156-10.003906 2.902344-12.1875 2.003906-2.175781 5.128906-2.582031 7.679688-1.917968 5.109374 1.332031 9.710937 6.800781 13.351562 10.847656 9.539062 9.792969 14.121094 22.878906 24.375 37.722656 1.273438 1.625 3.359375 1.296875 5.539062 0 4.128907-3.445312 7.371094-6.222656 11.472657-10.085937 16.371093 5.210937 27.992187 6.382812 44.371093 11.605469-6.472656 1.84375-8.183593 4.496093-14.683593 6.34375-6.914063-3.734376-12.179688-.796876-14.558594 5.664062-6.535156 4.421875-6.613281 9.28125-3.792969 14.285156.863282-3.484375-1.011718-7.835937 9.597656-8.167968 8.914063 1.894531 14.40625-1.019532 16.832032-8.394532 6.820312-2.152344 10.097656-3.5 16.871094-5.671875 5.796874 4.800781 14.554687 5.847657 20.363281 10.585938.65625 7.203125 5.183593 12.121093 17.230469 9.058593 3.863281 2.351563 5.96875 6.097657 7.273437 10.449219.789063-4.761719-.0625-9.34375-1.875-13.796875-2.378906-11.027344-9.433594-16.230468-22.941406-12.367187-3.316407-2.832031-7.855469-4.324219-11.160157-7.140625 9.003907-.585938 17.117188-1.054688 26.113282-1.605469 4.625 4.199219 10.714844 5.40625 20.039062 0 2.242188-2.304687 5.476563-1.667969 10.632813.445313-3.277344-5.8125-5.308594-5.914063-10.09375-6.652344-6.277344-7.382813-13.28125-7.898438-22.046875 1.519531-9.195313.277344-15.613282.445313-24.828125.757813 4.9375-4.167969 7.570312-7.355469 12.5-11.515626 7.589843 2.40625 15.003906 1.589844 18.210937-6.878906 2.464844-2.859375 5.199219-4.539062 11.476563-4.773437-4.34375-3.636719-7.964844-4.960938-15.796875-1.339844-11.574219-5.199219-12.539063 2.171875-14.601563 7.007813-7.839843 5.140624-14.175781 9.5-22.007812 14.640624-15.980469-4.660156-28.949219-7.269531-44.914063-11.917968 3.464844-3.585938 6.941406-6.851563 10.398438-10.445313.914062-3.03125-.683594-4.582031-3.296875-5.042969-25.816407-5.230468-40.578125-15.421874-49.554688-41.292968-3.761719-10.835938 4.34375-14.042969 7.144531-7.414063 3.871094 9.183594 8.097657 19.285157 19.683594 27.097657 4.003906 2.699218 15.890625.507812 8.886719-6.066407-7.324219-5.832031-10.441406-8.386719-14.0625-22.636719 0-7.269531 7.554687-10.507812 11.78125-3.570312 4.476563 14.222656 4.960937 20.359375 13.085937 29.503906 6.167969 6.953125 14.234376 11.601563 18.210938 11.515625 7.222656-.136719 14.457031-7.714843 4.820312-13.210937-14.097656-5.515625-19.273437-13.085938-21.335937-20.269532-2.277344-12.542968.203125-18.625 7.945313-12.453124 10.992187 12.1875 31.945312 34.929687 42.898437 45.488281 12.324219 9.238281 26.414063 9.53125 37.679687.179687 6.417969-7.226562 4.132813-15.058594-5.933593-13.347656-22.707031 1.882812-39.949219-9.175781-58.796875-38.972656-3.734375-6.78125-4.75-16.40625 3.4375-9.242188 9.410156 12.441406 23.125 23.066406 35.890625 27.59375 12.769531 4.527344 24.601562 2.957032 27.453125-1.925781 4.738281-8.097656 3.664062-17.003906-4.910156-14.0625-7.023438 2.414063-16.949219 3.042969-27.273438-.882813-10.324219-3.933593-21.039062-12.433593-32.457031-26.835937-3.886719-8.160156-2.59375-15.054687 5.265625-10.847656 18.6875 15.5 42.769531 28.046875 55.09375 20.488281 9.027344-5.53125 9.199218-19.6875-2.273438-18.792969-23.152344 3.132813-31.90625-1.925781-54.109375-21.113281-5.085937-3.691406-4.722656-13.019531 3.296875-7.054688 18.71875 11.761719 44.226563 16.371094 54.242188 10.222657 9.019531-5.535157 7.6875-22.375-7.496094-16.386719-12.125 7.21875-25.566406 7.003906-52.457031-11.78125-6.773438-5.484375-1.722657-12.703125 3.84375-9.601562 21.617187 12.054687 53.105469 17.1875 61.335937-7.273438 3.160156-9.390625-2.582031-14.851562-11.070312-8.351562-18.554688 16.785156-39.621094 8.523437-51.382813.09375-3.082031-.125-9.609375-11.808594 1.292969-10.003907 28.160156 6.3125 56 .851563 61.027344-18.660156 2.972656-6.332031-2.8125-17.5-13.078125-8.125-13.539063 13.058594-27.875 13.503906-45.851563 13.390625-9.1875-1.855469-9.261718-11.765625-1.601562-13.210938 14.207031.316407 28.261718-5.777343 39.507812-11.96875 10.949219-6.140624 20.082032-14.800781 22.941406-26.785156 1.769532-10.734375-8.777343-22.121094-15.179687-10.757812-9.394531 16.6875-30.28125 32.359375-53.4375 35.175781-1.195313-1.964844-4.261719-7.027344-7.988281-5.621094-13.636719 5.164063-32.476563 13.832031-47.988282 22.414063-3.371093 1.863281.585938 10.867187 1.335938 14.328125.773438 8.816406-1.945312 14.445312-4.734375 17.722656s-10.402344 5.425781-14.683594 4.28125c-8.574219-2.285156-13.183593-9.722656-11.738281-22.941406.445312-1.398438.808594-7.753907 7.8125-16.027344 3.511719-4.160156 8.4375-9.464844 16.242188-13.707031 7.8125-4.234375 19.625-6.59375 33.839843-9.6875 8.65625-1.695313 13.050781-4.953125 13.574219-8.433594-4.144531.953125-10.929688 4.46875-15.402344 3.613281-4.394531-.84375-6.613281-2.96875-8.574218-4.195312 3.265624-.683594 9.257812.09375 14.601562.085937 5.34375 0 10.050781-1.128906 13.210938-1.648437 6.578124-1.082031 11.789062-3.765625 14.914062-9.777344 1.355469-6.472656-2.984375-7.652344-7.050781-3.480469-3.453125 3.535156-4.144531 4.980469-6.34375 6.515625-2.195313 1.53125-5.886719 3.019531-8.523438 3.480469-5.355469.941406-10.628906 1.992188-17.457031.363281 1.351562-1.695312 4.386719-4.425781 7.140625-6.121093 2.753906-1.691407 5.457031-2.523438 8.035156-2.097657 1.722657.292969 3.964844 1.820313 5.804688 4.644531 1.136719-7.113281-.878907-15.101562-20.222657-11.789062.261719-5.328125-11.273437-7.65625-18.210937-7.546875-3.933594.070313-12.003906 2.378906-17.816406 5.09375-9.1875 2.78125-18.324219 4.816406-29.019531 5.578125 6.183593 5.191406 7.394531 5.484375 13.617187 9.914062-9.421875 3.429688-16.726563 10.539063-19.996094 15.179688 8.234375.390625 10.949219-.300781 13.746094.890625-11.46875 3.320313-16.664063 5.265625-22.71875 11.335937 2.140625.390626 5.328125.960938 6.699219 1.480469 1.40625.523438.820312 1.246094-.140625 2.273438-2.628907 1.644531-12.6875 13.503906-15.667969 16.25-2.980469-2.746094-13.039062-14.605469-15.667969-16.25-.960937-1.027344-1.539062-1.75-.140625-2.273438 1.371094-.519531 4.558594-1.089843 6.699219-1.480469-6.054687-6.070312-11.25-8.015624-22.71875-11.335937 2.796875-1.191406 5.511719-.496094 13.746094-.890625-3.269531-4.640625-10.574219-11.753906-19.996094-15.179688 6.222656-4.429687 7.433594-4.722656 13.617187-9.914062-10.695312-.761719-19.832031-2.796875-29.019531-5.578125-5.8125-2.714844-13.882812-5.023437-17.816406-5.09375zm1.027344 12.457031c5.65625 0 9.148437 1.941406 9.148437 4.285156 0 2.394532-3.492187 4.332032-9.148437 4.332032-5.625 0-9.195313-2.113282-9.195313-4.507813 0-2.347656 3.570313-4.109375 9.195313-4.109375zm140.539062 0c5.628907 0 9.195313 1.761719 9.195313 4.109375 0 2.394531-3.566406 4.507813-9.195313 4.507813-5.65625 0-9.148437-1.9375-9.148437-4.332032 0-2.34375 3.492187-4.285156 9.148437-4.285156zm0 0" fill-rule="evenodd"/></svg>