<svg viewBox="0 0 1000 501" xmlns="http://www.w3.org/2000/svg"><g fill-rule="evenodd"><path d="m0 500v-500h1000v500zm0 0" fill="#00247d"/><path d="m0 0v27.949219l444.097656 222.050781h55.902344v-27.949219l-444.097656-222.050781zm500 0v27.949219l-444.097656 222.050781h-55.902344v-27.953125l444.097656-222.046875zm0 0" fill="#fff"/><path d="m0 250 166.664062-83.335938h37.269532l-166.667969 83.335938zm0-250 166.664062 83.335938h-37.265624l-129.398438-64.703126zm296.066406 83.335938 166.667969-83.335938h37.265625l-166.664062 83.335938zm203.933594 166.664062-166.664062-83.335938h37.265624l129.398438 64.703126zm0 0" fill="#cf142b"/><path d="m650.484375 128.363281c0 124.023438 9.898437 168.0625 43.84375 202.066407 33.9375 34.003906 46.800781 39.359374 56.269531 44.570312 10.917969-6.011719 23.492188-12.613281 54.261719-43.378906 30.425781-30.425782 45.140625-74.289063 45.140625-205.371094-22.132812 9.472656-33.152344 12.597656-52.511719 12.539062-14.335937 1.40625-36.449219-7.777343-49.671875-13.789062-8.640625 5.503906-21.179687 12.066406-43.710937 12.796875-26.019531 1.09375-34.265625-3.109375-53.621094-9.433594zm0 0" fill="#cc3"/><path d="m656.480469 136.195312c0 38.371094-2.273438 90.664063 5.839843 120.917969 8.136719 30.386719 10.007813 34.839844 16.132813 45.441407l142.667969-1.0625c8.816406-15.261719 9.261718-24.714844 15.792968-49.109376 6.511719-24.300781 8.160157-78.480468 8.351563-118.832031-14.347656 7.269531-33.136719 12.421875-51.375 10.160157-14.613281-1.058594-28.125-4.242188-43.851563-12.71875-13.648437 7.796874-18.402343 11.351562-40.933593 12.265624-17.542969.824219-31.75 2.175782-52.625-7.0625zm0 0" fill="#fff"/><path d="m678.761719 301.714844c10.148437 20.371094 58.027343 59.417968 72.023437 67.5 15.972656-9.21875 58.207032-47.804688 69.976563-67.5zm0 0" fill="#9cf"/><path d="m753.515625 193.003906c4.511719 10.117188 18.972656 21.289063 22.953125 26.761719-5.0625 5.476563-6.074219 4.878906-5.410156 15.050781 8.800781-8.777344 8.960937-9.695312 14.621094-8.363281 12.398437 11.800781 2.214843 37.128906-8.027344 42.636719-10.246094 5.882812-8.390625-.199219-23.742188 7.164062 7.039063 5.738282 15.195313-.84375 21.859375.917969 3.625 4.097656-1.71875 11.5625 1.09375 18.59375 5.894531-.535156 5.1875-11.878906 6.558594-15.992187 4.304687-15.0625 30.175781-25.566407 31.496094-39.382813 5.453125-2.441406 10.90625-.761719 17.539062 2.789063-3.300781-12.945313-14.234375-12.808594-17.160156-16.851563-6.976563-10.15625-13.152344-21.75-28.050781-24.75-11.304688-2.285156-10.457032.683594-17.703125-4.03125-4.515625-3.347656-18.21875-9.679687-16.027344-4.542969zm0 0" fill="#f90"/><path d="m786.039062 204.511719c0 1.242187-1.054687 2.246093-2.359374 2.246093-1.300782 0-2.355469-1.003906-2.355469-2.246093 0-1.242188 1.054687-2.246094 2.355469-2.246094 1.304687 0 2.359374 1.003906 2.359374 2.246094zm0 0" fill="#fff"/><path d="m717.363281 235.921875c7.277344-8.53125 10.878907-25.941406 14.101563-31.847656 7.441406 1.707031 7.359375 2.839843 16.480468-2.472657-12.25-3.316406-13.175781-3.023437-14.582031-8.414062 5.148438-15.964844 33.398438-19.21875 43.292969-13.152344 10.234375 5.890625 3.730469 7.164063 17.734375 16.667969 2.03125-8.617187-7.882813-12.421875-9.367187-18.863281 2.109374-4.964844 11.527343-3.949219 16.738281-9.605469-3.253907-4.714844-13.441407 1.179687-17.894531 1.945313-15.976563 3.410156-37.808594-13.496094-51.238282-8.148438-4.8125-3.457031-5.800781-8.835938-5.609375-16.089844-10.460937 8.832032-5.226562 17.980469-7.609375 22.335938-6.164062 10.625-14.023437 21.25-9.855468 35.207031 3.164062 10.597656 5.523437 8.5 4.542968 16.808594-1 5.367187-.46875 19.878906 3.265625 15.628906zm0 0" fill="#f90"/><path d="m712.839844 203.136719c1.152344-.582031 2.582031-.164063 3.191406.9375.605469 1.09375.164062 2.453125-.988281 3.03125-1.148438.578125-2.570313.160156-3.183594-.933594-.605469-1.097656-.164063-2.457031.980469-3.035156zm0 0" fill="#fff"/><path d="m776.46875 241.917969c-11.421875-1.523438-28.910156 4.542969-35.882812 4.972656-2.316407-6.953125-1.257813-7.476563-10.742188-12.167969 3.359375 11.707032 4.101562 12.308594-.011719 16.25-16.992187 4.054688-34.53125-17.308594-34.203125-28.519531-.003906-11.398437 4.503906-6.75 5.792969-23.089844-8.789063 2.796875-7.070313 12.851563-12.085937 17.394531-5.550782.851563-9.511719-7.363281-17.285157-8.6875-2.546875 5.09375 8.011719 10.355469 11 13.59375 11.328125 11.277344 7.445313 37.832032 19.191407 46.019532-.617188 5.71875-4.933594 9.3125-11.539063 12.902344 13.339844 3.96875 18.84375-5.035157 23.984375-5.347657 12.726562-.464843 26.328125.457031 36.703125-10.167969 7.875-8.0625 4.773437-8.902343 12.742187-12.398437 5.328126-1.960937 18.082032-9.898437 12.335938-10.753906zm0 0" fill="#f90"/><path d="m749.375 262.570312c-1.117188-.640624-1.476562-2.023437-.804688-3.082031.667969-1.066406 2.117188-1.410156 3.230469-.773437 1.121094.640625 1.476563 2.023437.808594 3.085937-.671875 1.058594-2.121094 1.40625-3.234375.769531zm0 0" fill="#fff"/></g><path d="m208.335938 0v250h83.328124v-250zm0 0" fill="#fff" stroke="#fff" stroke-linecap="square" stroke-miterlimit="3.239307"/><path d="m0 83.335938v83.328124h500v-83.328124zm0 0" fill="#fff" stroke="#fff" stroke-linecap="square" stroke-miterlimit="3.239307"/><path d="m0 100v50h500v-50zm0 0" fill="#cf142b" stroke="#cf142b" stroke-linecap="square" stroke-miterlimit="3.239307"/><path d="m225 0v250h50v-250zm0 0" fill="#cf142b" stroke="#cf142b" stroke-linecap="square" stroke-miterlimit="3.239307"/></svg>