<svg viewBox="0 0 1000 500" xmlns="http://www.w3.org/2000/svg"><path d="m0 0h1000v500h-1000z" fill="#00008b"/><g fill-rule="evenodd"><path d="m250 300 14.460938 44.96875 44.175781-16.730469-26.140625 39.347657 40.625 24.101562-47.058594 4.09375 6.480469 46.792969-32.542969-34.242188-32.542969 34.242188 6.480469-46.792969-47.058594-4.09375 40.625-24.101562-26.140625-39.347657 44.175781 16.730469zm0 0" fill="#fff"/><path d="m750 380.953125 6.886719 21.414063 21.035156-7.96875-12.445313 18.738281 19.34375 11.476562-22.410156 1.949219 3.085938 22.28125-15.496094-16.304688-15.496094 16.304688 3.085938-22.28125-22.410156-1.949219 19.34375-11.476562-12.445313-18.738281 21.035156 7.96875zm0 0" fill="#fff"/><path d="m625 183.039062 6.886719 21.410157 21.035156-7.964844-12.445313 18.734375 19.34375 11.476562-22.410156 1.949219 3.085938 22.28125-15.496094-16.300781-15.496094 16.300781 3.085938-22.28125-22.410156-1.949219 19.34375-11.476562-12.445313-18.734375 21.035156 7.964844zm0 0" fill="#fff"/><path d="m750 47.621094 6.886719 21.410156 21.035156-7.964844-12.445313 18.734375 19.34375 11.480469-22.410156 1.949219 3.085938 22.277343-15.496094-16.304687-15.496094 16.304687 3.085938-22.277343-22.410156-1.949219 19.34375-11.480469-12.445313-18.734375 21.035156 7.964844zm0 0" fill="#fff"/><path d="m861.109375 149.703125 6.890625 21.414063 21.035156-7.964844-12.449218 18.730468 19.34375 11.480469-22.410157 1.949219 3.085938 22.28125-15.496094-16.304688-15.492187 16.304688 3.085937-22.28125-22.410156-1.949219 19.339843-11.480469-12.445312-18.730468 21.039062 7.964844zm0 0" fill="#fff"/><path d="m800 250 5.441406 13.34375 14.371094 1.054688-11.003906 9.296874 3.433594 13.992188-12.242188-7.59375-12.246094 7.59375 3.441406-13.992188-11.007812-9.296874 14.367188-1.054688zm0 0" fill="#fff"/><path d="m208.332031 0h83.335938v83.332031h208.332031v83.335938h-208.332031v83.332031h-83.335938v-83.332031h-208.332031v-83.335938h208.332031zm0 0" fill="#fff"/><path d="m0 0h55.902344l444.097656 222.050781v27.949219h-55.898438l-444.101562-222.050781zm0 0" fill="#fff"/><path d="m500 0h-55.898438l-444.101562 222.050781v27.949219h55.902344l444.097656-222.050781zm0 0" fill="#fff"/><path d="m225 0h50.003906v99.996094h224.996094v50.007812h-224.996094v99.996094h-50.003906v-99.996094h-225v-50.007812h225zm0 0" fill="#f00"/><path d="m0 0 166.667969 83.332031h-37.269531l-129.398438-64.695312zm500 0h-37.269531l-166.664063 83.332031h37.265625zm0 0" fill="#f00"/><path d="m500 250-166.667969-83.332031h37.269531l129.398438 64.699219zm-500 0h37.269531l166.664063-83.332031h-37.265625zm0 0" fill="#f00"/></g></svg>