<svg viewBox="0 0 1000 500" xmlns="http://www.w3.org/2000/svg"><path d="m0 0h1000v500h-1000z" fill="#002395"/><path d="m265.003906 0h500v500zm0 0" fill="#fecb00" fill-rule="evenodd"/><g fill="#fff" stroke="#fff" stroke-linecap="square" stroke-miterlimit="3.239307"><path d="m157.746094-.015625-10.664063 32.816406 27.917969-20.28125 27.917969 20.28125-10.664063-32.816406 27.925782-20.285156h-34.515626l-10.664062-32.824219-10.664062 32.824219h-34.515626zm0 0"/><path d="m220.246094 62.484375-10.664063 32.816406 27.917969-20.28125 27.917969 20.28125-10.664063-32.816406 27.925782-20.285156h-34.515626l-10.664062-32.824219-10.664062 32.824219h-34.515626zm0 0"/><path d="m282.746094 124.984375-10.664063 32.816406 27.917969-20.28125 27.917969 20.28125-10.664063-32.816406 27.925782-20.285156h-34.515626l-10.664062-32.824219-10.664062 32.824219h-34.515626zm0 0"/><path d="m345.246094 187.484375-10.664063 32.816406 27.917969-20.28125 27.917969 20.28125-10.664063-32.816406 27.925782-20.285156h-34.515626l-10.664062-32.824219-10.664062 32.824219h-34.515626zm0 0"/><path d="m407.746094 249.984375-10.664063 32.816406 27.917969-20.28125 27.917969 20.28125-10.664063-32.816406 27.925782-20.285156h-34.515626l-10.664062-32.824219-10.664062 32.824219h-34.515626zm0 0"/><path d="m470.246094 312.484375-10.664063 32.816406 27.917969-20.28125 27.917969 20.28125-10.664063-32.816406 27.925782-20.285156h-34.515626l-10.664062-32.824219-10.664062 32.824219h-34.515626zm0 0"/><path d="m532.746094 374.984375-10.664063 32.816406 27.917969-20.28125 27.917969 20.28125-10.664063-32.816406 27.925782-20.285156h-34.515626l-10.664062-32.824219-10.664062 32.824219h-34.515626zm0 0"/><path d="m595.246094 437.484375-10.664063 32.816406 27.917969-20.28125 27.917969 20.28125-10.664063-32.816406 27.925782-20.285156h-34.515626l-10.664062-32.824219-10.664062 32.824219h-34.515626zm0 0"/><path d="m657.746094 499.984375-10.664063 32.816406 27.917969-20.28125 27.917969 20.28125-10.664063-32.816406 27.925782-20.285156h-34.515626l-10.664062-32.824219-10.664062 32.824219h-34.515626zm0 0"/></g></svg>