<svg viewBox="0 0 1000 643" xmlns="http://www.w3.org/2000/svg"><path d="m19.789062 33.105469h959.519532l-959.519532 575.714843h959.519532zm0 0" fill="#ce1126" fill-rule="evenodd"/><path d="m19.789062 33.105469v575.714843l959.519532-575.714843v575.714843zm0 0" fill="#1eb53a" fill-rule="evenodd"/><path d="m19.789062 33.105469 959.519532 575.714843zm959.519532 0-959.519532 575.714843zm0 0" fill-rule="evenodd"/><path d="m19.789062 33.105469 959.519532 575.714843" fill="none" stroke="#fff" stroke-width="76.761619"/><path d="m979.308594 33.105469-959.519532 575.714843" fill="none" stroke="#fff" stroke-width="76.761619"/><g fill-rule="evenodd"><path d="m662.667969 320.960938c0 90.085937-73.027344 163.117187-163.121094 163.117187-90.082031 0-163.117187-73.03125-163.117187-163.117187 0-90.089844 73.035156-163.117188 163.117187-163.117188 90.09375 0 163.121094 73.027344 163.121094 163.117188zm0 0" fill="#fff"/><path d="m499.546875 198.140625-19.191406 33.242187 33.242187 19.183594zm0 0" fill="#1eb53a"/><path d="m499.546875 198.140625 19.195313 33.242187-33.242188 19.183594zm0 0" fill="#1eb53a"/><path d="m532.789062 255.710938-19.191406-33.238282-33.242187 19.191406zm0 0" fill="#1eb53a"/><path d="m532.789062 255.710938h-38.382812v-38.378907zm0 0" fill="#1eb53a"/><path d="m466.3125 255.710938h38.378906v-38.378907zm0 0" fill="#1eb53a"/><path d="m466.3125 255.710938 19.1875-33.238282 33.242188 19.191406zm0 0" fill="#1eb53a"/><path d="m499.546875 274.902344 19.195313-33.238282-33.242188-19.191406zm0 0" fill="#1eb53a"/><path d="m499.546875 274.902344-19.191406-33.238282 33.242187-19.191406zm0 0" fill="#1eb53a"/><path d="m466.3125 217.332031 19.1875 33.234375 33.242188-19.183594zm0 0" fill="#1eb53a"/><path d="m466.3125 217.332031h38.378906v38.378907zm0 0" fill="#1eb53a"/><path d="m532.789062 217.332031h-38.382812v38.378907zm0 0" fill="#1eb53a"/><path d="m532.789062 217.332031-19.191406 33.234375-33.242187-19.183594zm0 0" fill="#1eb53a"/><path d="m605.914062 382.367188-19.191406-33.234376-33.234375 19.183594zm0 0" fill="#1eb53a"/><path d="m605.914062 382.367188h-38.382812v-38.378907zm0 0" fill="#1eb53a"/><path d="m539.4375 382.367188h38.382812v-38.378907zm0 0" fill="#1eb53a"/><path d="m539.4375 382.367188 19.191406-33.234376 33.234375 19.183594zm0 0" fill="#1eb53a"/><path d="m572.671875 324.796875-19.183594 33.234375 33.234375 19.195312zm0 0" fill="#1eb53a"/><path d="m572.671875 324.796875 19.191406 33.234375-33.234375 19.195312zm0 0" fill="#1eb53a"/><path d="m539.4375 343.988281 19.191406 33.238281 33.234375-19.195312zm0 0" fill="#1eb53a"/><path d="m539.4375 343.988281h38.382812v38.378907zm0 0" fill="#1eb53a"/><path d="m605.914062 343.988281h-38.382812v38.378907zm0 0" fill="#1eb53a"/><path d="m605.914062 343.988281-19.191406 33.238281-33.234375-19.195312zm0 0" fill="#1eb53a"/><path d="m572.671875 401.558594 19.191406-33.242188-33.234375-19.183594zm0 0" fill="#1eb53a"/><path d="m572.671875 401.558594-19.183594-33.242188 33.234375-19.183594zm0 0" fill="#1eb53a"/><path d="m393.183594 382.367188h38.382812v-38.378907zm0 0" fill="#1eb53a"/><path d="m393.183594 382.367188 19.191406-33.234376 33.242188 19.183594zm0 0" fill="#1eb53a"/><path d="m426.425781 324.796875-19.191406 33.234375 33.242187 19.195312zm0 0" fill="#1eb53a"/><path d="m426.425781 324.796875 19.191407 33.234375-33.242188 19.195312zm0 0" fill="#1eb53a"/><path d="m459.660156 382.367188-19.183594-33.234376-33.242187 19.183594zm0 0" fill="#1eb53a"/><path d="m459.660156 382.367188h-38.375v-38.378907zm0 0" fill="#1eb53a"/><path d="m459.660156 343.988281h-38.375v38.378907zm0 0" fill="#1eb53a"/><path d="m459.660156 343.988281-19.183594 33.238281-33.242187-19.195312zm0 0" fill="#1eb53a"/><path d="m426.425781 401.558594 19.191407-33.242188-33.242188-19.183594zm0 0" fill="#1eb53a"/><path d="m426.425781 401.558594-19.191406-33.242188 33.242187-19.183594zm0 0" fill="#1eb53a"/><path d="m393.183594 343.988281 19.191406 33.238281 33.242188-19.195312zm0 0" fill="#1eb53a"/><path d="m393.183594 343.988281h38.382812v38.378907zm0 0" fill="#1eb53a"/><path d="m499.546875 205.050781-15.734375 27.257813 27.257812 15.734375zm0 0" fill="#ce1126"/><path d="m499.546875 205.050781 15.738281 27.257813-27.253906 15.734375zm0 0" fill="#ce1126"/><path d="m526.804688 252.261719-15.734376-27.257813-27.257812 15.738282zm0 0" fill="#ce1126"/><path d="m526.804688 252.261719h-31.472657v-31.476563zm0 0" fill="#ce1126"/><path d="m472.292969 252.261719h31.472656v-31.476563zm0 0" fill="#ce1126"/><path d="m472.292969 252.261719 15.738281-27.257813 27.253906 15.738282zm0 0" fill="#ce1126"/><path d="m499.546875 267.996094 15.738281-27.253906-27.253906-15.738282zm0 0" fill="#ce1126"/><path d="m499.546875 267.996094-15.734375-27.253906 27.257812-15.738282zm0 0" fill="#ce1126"/><path d="m472.292969 220.785156 15.738281 27.257813 27.253906-15.734375zm0 0" fill="#ce1126"/><path d="m472.292969 220.785156h31.472656v31.476563zm0 0" fill="#ce1126"/><path d="m526.804688 220.785156h-31.472657v31.476563zm0 0" fill="#ce1126"/><path d="m526.804688 220.785156-15.734376 27.257813-27.257812-15.734375zm0 0" fill="#ce1126"/><path d="m599.929688 378.910156-15.738282-27.253906-27.25 15.738281zm0 0" fill="#ce1126"/><path d="m599.929688 378.910156h-31.46875v-31.464844zm0 0" fill="#ce1126"/><path d="m545.421875 378.910156h31.46875v-31.464844zm0 0" fill="#ce1126"/><path d="m545.421875 378.910156 15.730469-27.253906 27.257812 15.738281zm0 0" fill="#ce1126"/><path d="m572.671875 331.710938-15.730469 27.253906 27.25 15.730468zm0 0" fill="#ce1126"/><path d="m572.671875 331.710938 15.738281 27.253906-27.257812 15.730468zm0 0" fill="#ce1126"/><path d="m545.421875 347.445312 15.730469 27.25 27.257812-15.730468zm0 0" fill="#ce1126"/><path d="m545.421875 347.445312h31.46875v31.464844zm0 0" fill="#ce1126"/><path d="m599.929688 347.445312h-31.46875v31.464844zm0 0" fill="#ce1126"/><path d="m599.929688 347.445312-15.738282 27.25-27.25-15.730468zm0 0" fill="#ce1126"/><path d="m572.671875 394.648438 15.738281-27.253907-27.257812-15.738281zm0 0" fill="#ce1126"/><path d="m572.671875 394.648438-15.730469-27.253907 27.25-15.738281zm0 0" fill="#ce1126"/><path d="m399.167969 378.910156h31.472656v-31.464844zm0 0" fill="#ce1126"/><path d="m399.167969 378.910156 15.738281-27.253906 27.253906 15.738281zm0 0" fill="#ce1126"/><path d="m426.425781 331.710938-15.734375 27.253906 27.253906 15.730468zm0 0" fill="#ce1126"/><path d="m426.425781 331.710938 15.734375 27.253906-27.253906 15.730468zm0 0" fill="#ce1126"/><path d="m453.679688 378.910156-15.734376-27.253906-27.253906 15.738281zm0 0" fill="#ce1126"/><path d="m453.679688 378.910156h-31.472657v-31.464844zm0 0" fill="#ce1126"/><path d="m453.679688 347.445312h-31.472657v31.464844zm0 0" fill="#ce1126"/><path d="m453.679688 347.445312-15.734376 27.25-27.253906-15.730468zm0 0" fill="#ce1126"/><path d="m426.425781 394.648438 15.734375-27.253907-27.253906-15.738281zm0 0" fill="#ce1126"/><path d="m426.425781 394.648438-15.734375-27.253907 27.253906-15.738281zm0 0" fill="#ce1126"/><path d="m399.167969 347.445312 15.738281 27.25 27.253906-15.730468zm0 0" fill="#ce1126"/><path d="m399.167969 347.445312h31.472656v31.464844zm0 0" fill="#ce1126"/></g></svg>