<svg viewBox="0 0 1000 642" xmlns="http://www.w3.org/2000/svg"><path d="m0 160.621094h1000v320.003906h-1000zm0 0" fill="#e00025" fill-rule="evenodd"/><path d="m0 .625h1000v159.996094h-1000zm0 0" fill="#032ea1" fill-rule="evenodd"/><path d="m0 480.625h1000v160h-1000zm0 0" fill="#032ea1" fill-rule="evenodd"/><g stroke="#000"><path d="m496.234375 195.609375s-.234375-6.582031 3.601563-6.65625c3.832031.074219 3.601562 6.65625 3.601562 6.65625zm0 0" fill="#fff" fill-rule="evenodd" stroke-width="1.2"/><path d="m654.585938 367.625v-32.832031c1.066406-4.164063 4.601562-7.847657 7.261718-8.582031v-30.792969c-4.015625 0-5.988281 5.238281-5.988281 5.238281l-6.835937 30.09375v36.625zm0 0" fill="#fff" fill-rule="evenodd" stroke-width="1.2"/><path d="m585.078125 302.273438h9.855469v20.886718h-9.855469zm0 0" fill="#fff" fill-rule="evenodd" stroke-linecap="round" stroke-linejoin="round" stroke-width="1.292147"/><path d="m409.867188 302.273438h182.082031v70.0625h-182.082031zm0 0" fill="#fff" fill-rule="evenodd" stroke-linejoin="round" stroke-width="1.2"/><path d="m345.722656 367.5v-32.707031c-1.070312-4.164063-4.605468-7.847657-7.265625-8.582031v-28.789063l5.988281 3.234375 6.835938 30.09375v36.75zm0 0" fill="#fff" fill-rule="evenodd" stroke-width="1.2"/><path d="m345.722656 367.625v-32.832031c-1.070312-4.164063-4.605468-7.847657-7.265625-8.582031v-30.792969c4.023438 0 5.988281 5.238281 5.988281 5.238281l6.835938 30.09375v36.625zm0 0" fill="#fff" fill-rule="evenodd" stroke-width="1.2"/><path d="m338.640625 376.007812c2.820313-1.433593 6.03125-4.773437 7.082031-8.507812h308.921875c1.050781 3.734375 4.261719 7.074219 7.082031 8.507812zm0 0" fill="#fff" fill-rule="evenodd" stroke-width="1.2"/><path d="m582.542969 340.953125h5.738281v26.390625h-5.738281zm0 0" fill="#fff" fill-rule="evenodd" stroke-linecap="round" stroke-linejoin="round" stroke-width="1.2"/><path d="m409.867188 327.914062h182.082031v8.140626h-182.082031zm0 0" fill="#fff" fill-rule="evenodd" stroke-linejoin="round" stroke-width="1.2"/><path d="m409.867188 316.871094h182.082031v7.183594h-182.082031zm0 0" fill="#fff" fill-rule="evenodd" stroke-linejoin="round" stroke-width="1.2"/><path d="m409.867188 305.851562h182.082031v6.960938h-182.082031zm0 0" fill="#fff" fill-rule="evenodd" stroke-linejoin="round" stroke-width="1.181816"/><path d="m585.078125 302.273438h9.855469v20.886718h-9.855469zm0 0" fill="#fff" fill-rule="evenodd" stroke-linecap="round" stroke-linejoin="round" stroke-width="1.292147"/><path d="m658.570312 376.007812c-2.765624-1.25-6.792968-4.667968-6.792968-8.109374v-40.875l1.890625-3.375h-69.636719l2.71875 3.375v40.875c0 3.441406-2.765625 6.859374-5.53125 8.109374zm0 0" fill="#fff" fill-rule="evenodd" stroke-width="1.2"/><path d="m457.792969 340.953125h5.738281v26.390625h-5.738281zm0 0" fill="#fff" fill-rule="evenodd" stroke-linecap="round" stroke-linejoin="round" stroke-width="1.2"/><path d="m536.179688 340.953125h5.738281v26.390625h-5.738281zm0 0" fill="#fff" fill-rule="evenodd" stroke-linecap="round" stroke-linejoin="round" stroke-width="1.2"/><path d="m545.78125 376.007812c-3.246094-1.25-7.964844-4.667968-7.964844-8.109374v-38.878907l4.222656-5.371093h-84.441406l4.046875 5.371093v38.878907c0 3.441406-3.238281 6.859374-6.488281 8.109374zm0 0" fill="#fff" fill-rule="evenodd" stroke-width="1.2"/><path d="m472.613281 340.953125h5.738281v26.390625h-5.738281zm0 0" fill="#fff" fill-rule="evenodd" stroke-linecap="round" stroke-linejoin="round" stroke-width="1.2"/><path d="m521.117188 340.953125h5.738281v26.390625h-5.738281zm0 0" fill="#fff" fill-rule="evenodd" stroke-linecap="round" stroke-linejoin="round" stroke-width="1.2"/><path d="m456.085938 279.410156v44.242188h86.4375v-9.527344l.121093-34.714844c-3.535156 1.386719-4.15625 4.589844-4.15625 4.589844v18.847656h-77.996093v-18.847656s-.875-3.203125-4.40625-4.589844zm0 0" fill="#fff" fill-rule="evenodd" stroke-width="1.2"/><path d="m530.792969 376.007812c-2.828125-1.25-8.980469-4.667968-8.980469-8.109374v-43.507813c.605469-2.429687 3.902344-3.863281 6.019531-5.375h-57.316406c2.726563 1.445313 5.765625 2.640625 6.859375 5.375v43.507813c0 3.441406-4.871094 6.859374-7.691406 8.109374zm0 0" fill="#fff" fill-rule="evenodd" stroke-width="1.2"/><path d="m538.484375 319.484375v-31.339844h-7.855469v-3.050781h-62.148437v3.050781h-7.855469v31.339844zm0 0" fill="#fff" fill-rule="evenodd" stroke-width="1.2"/><path d="m411.304688 340.953125h5.742187v26.390625h-5.742187zm0 0" fill="#fff" fill-rule="evenodd" stroke-linecap="round" stroke-linejoin="round" stroke-width="1.2"/><path d="m341.46875 376.007812c2.769531-1.25 6.796875-4.667968 6.796875-8.109374v-40.875l-1.898437-3.375h69.640624l-2.71875 3.375v40.875c0 3.441406 2.769532 6.859374 5.535157 8.109374zm0 0" fill="#fff" fill-rule="evenodd" stroke-width="1.2"/><path d="m348.925781 296.445312h6.433594v23.839844h-6.433594zm0 0" fill="#fff" fill-rule="evenodd" stroke-linecap="round" stroke-linejoin="round" stroke-width="1.2"/><path d="m348.890625 291.347656h6.425781v5.023438h-6.425781zm0 0" fill="#fff" fill-rule="evenodd" stroke-linecap="round" stroke-linejoin="round" stroke-width="1.2"/><path d="m404.765625 376.007812c-2.765625-1.25-6.796875-4.667968-6.796875-8.109374v-38.875l5.789062-5.375h-47.335937l5.785156 5.375v38.875c0 3.441406-4.027343 6.859374-6.792969 8.109374zm0 0" fill="#fff" fill-rule="evenodd" stroke-width="1.2"/><path d="m398.140625 376.007812c-2.773437-1.25-6.800781-4.667968-6.800781-8.109374v-35.144532l3.789062-5.378906h-30.078125l3.792969 5.378906v35.144532c0 3.441406-4.03125 6.859374-6.800781 8.109374zm0 0" fill="#fff" fill-rule="evenodd" stroke-width="1.2"/><path d="m644.410156 376.007812c-2.765625-1.25-6.792968-4.667968-6.792968-8.109374v-38.875l5.785156-5.375h-47.339844l5.792969 5.375v38.875c0 3.441406-4.035157 6.859374-6.800781 8.109374zm0 0" fill="#fff" fill-rule="evenodd" stroke-width="1.2"/><path d="m637.78125 376.007812c-2.773438-1.25-6.800781-4.667968-6.800781-8.109374v-35.144532l3.792969-5.378906h-30.078126l3.789063 5.378906v35.144532c0 3.441406-4.027344 6.859374-6.800781 8.109374zm0 0" fill="#fff" fill-rule="evenodd" stroke-width="1.2"/><path d="m372.90625 327.375h14.367188v48.632812h-14.367188zm0 0" fill="#fff" fill-rule="evenodd" stroke-width="1.2"/><path d="m518.40625 376.007812c-2.761719-1.25-6.796875-4.667968-6.796875-8.109374v-37.148438l2.277344-3.375h-28.308594l2.277344 3.375v37.148438c0 3.441406-4.035157 6.859374-6.800781 8.109374zm0 0" fill="#fff" fill-rule="evenodd" stroke-width="1.2"/><path d="m492.558594 327.394531h14.34375v48.601563h-14.34375zm0 0" fill="#fff" fill-rule="evenodd" stroke-width="1.226222"/><path d="m612.546875 327.375h14.367187v48.632812h-14.367187zm0 0" fill="#fff" fill-rule="evenodd" stroke-width="1.2"/><path d="m485.339844 308.90625h28.789062v10.609375h-28.789062zm0 0" fill="#fff" fill-rule="evenodd" stroke-linejoin="round" stroke-width="1.2"/><path d="m514.441406 316.695312c.035156-3.199218 9.339844-3.34375 14.128906-6.074218h-57.523437c4.789063 2.730468 13.882813 2.957031 13.882813 6.074218l1.949218 6.214844 23.808594.949219zm0 0" fill="#fff" fill-rule="evenodd" stroke-linejoin="round" stroke-width="1.2"/><path d="m525.683594 282.875c0-7.835938.328125-10.859375 2.738281-10.859375v24.929687c-5.90625 2.140626-10.117187 9.679688-10.117187 9.679688h-37.140626s-4.21875-7.539062-10.117187-9.679688v-24.929687c2.964844 0 2.984375 3.15625 2.984375 10.859375zm0 0" fill="#fff" fill-rule="evenodd" stroke-width="1.2"/><path d="m481.714844 287.519531c4.785156 5.746094 4.339844 15.484375 4.285156 21.230469h27.75c-.054688-5.746094-.5-15.484375 4.285156-21.230469zm0 0" fill="#fff" fill-rule="evenodd" stroke-width="1.2"/><path d="m353.351562 340.953125h5.738282v26.390625h-5.738282zm0 0" fill="#fff" fill-rule="evenodd" stroke-linecap="round" stroke-linejoin="round" stroke-width="1.2"/><path d="m644.875 296.445312h6.425781v23.839844h-6.425781zm0 0" fill="#fff" fill-rule="evenodd" stroke-linecap="round" stroke-linejoin="round" stroke-width="1.2"/><path d="m338.640625 376.007812c2.820313-1.433593 6.03125-4.773437 7.082031-8.507812h308.921875c1.050781 3.734375 4.261719 7.074219 7.082031 8.507812zm0 0" fill="none" stroke-width="1.2"/><path d="m402.550781 340.953125h5.738281v26.390625h-5.738281zm0 0" fill="#fff" fill-rule="evenodd" stroke-linecap="round" stroke-linejoin="round" stroke-width="1.2"/><path d="m344.429688 288.320312v35.328126h4.015624v-35.414063c-1.449218-.730469-2.808593-.847656-4.015624.085937zm0 0" fill="#fff" fill-rule="evenodd" stroke-width="1.2"/><path d="m344.554688 311.179688c4.980468 2.542968 9.914062 5.492187 11.15625 12.46875h-11.15625zm0 0" fill="#fff" fill-rule="evenodd" stroke-width="1.2"/><path d="m405.296875 302.273438h9.859375v20.886718h-9.859375zm0 0" fill="#fff" fill-rule="evenodd" stroke-linecap="round" stroke-linejoin="round" stroke-width="1.292147"/><path d="m413.625 300.59375v23.054688h3.25v-23.109376c-1.011719-.476562-2.402344-.546874-3.25.054688zm0 0" fill="#fff" fill-rule="evenodd" stroke-width="1.2"/><path d="m476.246094 282.875v-8.855469c-.128906-4.429687-4.414063-4.746093-4.542969-7.976562 0 0-.554687-4.847657.722656-7.054688 1.738281 6.472657 4.886719 5.285157 4.886719 2.621094 0-2.324219-1.78125-4.484375-5.449219-10.128906-1.171875-1.800781-.445312-7.453125 1.195313-9.472657.636718 4.914063 1.367187 7.261719 3.472656 7.261719 1.289062 0 2.339844-.835937 2.339844-3.300781 0-3.125-2.121094-4.707031-3.164063-7.554688-1.214843-3.328124-.378906-6.714843 1.644531-8.609374.867188 4.847656.609376 6.777343 2.757813 6.777343 4.34375-1.375.003906-7.65625-.921875-9.242187-1.070312-1.847656 1.433594-5.535156 1.433594-5.535156 1.378906 4.304687 1.820312 4.648437 3.308594 4.253906 1.878906-.5 1.636718-3.289063-.652344-5.542969-1.449219-1.421875-1.292969-3.539063.253906-5.234375 1.5625 3.050781 3.558594 2.859375 3.753906 1.054688l-1.253906-7.03125h27.605469l-1.367188 6.796874c-.390625 1.949219 2.230469 2.371094 3.863281-.820312 1.554688 1.695312 1.707032 3.8125.261719 5.234375-2.296875 2.253906-2.535156 5.042969-.660156 5.542969 1.488281.394531 1.9375.050781 3.3125-4.253906 0 0 2.25 2.515624 1.4375 5.535156-.929687 1.585937-5.269531 7.867187-.929687 9.242187 2.15625 0 1.898437-1.929687 2.765624-6.777343 2.019532 1.894531 2.855469 5.28125 1.640626 8.609374-1.042969 2.847657-3.164063 4.429688-3.164063 7.554688 0 2.464844 1.054687 3.300781 2.335937 3.300781 2.109376 0 2.835938-2.347656 3.476563-7.261719 1.644531 2.019532 2.363281 7.671876 1.199219 9.472657-3.667969 5.644531-5.457032 7.804687-5.457032 10.128906 0 2.664063 3.15625 3.851563 4.890626-2.621094 1.273437 2.207031.722656 7.054688.722656 7.054688-.128906 3.230469-4.417969 3.546875-4.539063 7.976562v8.855469zm0 0" fill="#fff" fill-rule="evenodd" stroke-width="1.2"/><path d="m486.371094 217.726562h27.402344" fill="none"/><path d="m497.3125 221.710938-3.800781-1.957032v-5.597656c1.558593.46875 3.300781.660156 3.464843 3.136719.546876-3.535157 1.523438-3.363281 3.054688-4.742188 1.53125 1.378907 2.507812 1.207031 3.050781 4.742188.171875-2.476563 1.917969-2.667969 3.464844-3.136719v5.597656l-3.800781 1.957032zm0 0" fill="#fff" fill-rule="evenodd" stroke-width="1.2"/><path d="m483.117188 226.285156h33.476562" fill="none"/><path d="m497.058594 230.898438-6.3125-4.339844v-5.15625c2.214844.511718 4.699218.71875 4.945312 3.433594.769532-3.875 2.160156-5.882813 4.339844-7.390626 2.183594 1.507813 3.578125 3.515626 4.34375 7.390626.246094-2.714844 2.730469-2.921876 4.945312-3.433594v5.15625l-6.316406 4.339844zm0 0" fill="#fff" fill-rule="evenodd" stroke-width="1.2"/><path d="m479.875 236.664062h39.851562" fill="none"/><path d="m496.613281 245.203125-7.257812-6.371094v-7.578125c2.542969.753906 5.402343 1.058594 5.683593 5.050782.882813-5.695313 2.484376-8.640626 4.992188-10.855469 2.515625 2.214843 4.105469 5.160156 5 10.855469.273438-3.992188 3.136719-4.296876 5.679688-5.050782v7.578125l-7.261719 6.371094zm0 0" fill="#fff" fill-rule="evenodd" stroke-width="1.2"/><path d="m509.996094 253.675781-6.558594 9.082031h-7.4375l-6.566406-9.082031zm0 0" fill="#fff" fill-rule="evenodd" stroke-width="1.2"/><path d="m485.65625 268.917969c3.285156 1.792969 4.5 5.371093 4.847656 12.082031h18.480469c.347656-6.710938 1.5625-10.289062 4.847656-12.082031zm0 0" fill="#fff" fill-rule="evenodd" stroke-width="1.2"/><path d="m476.476562 249.355469h47.257813" fill="none"/><path d="m475.390625 263.8125h48.679687" fill="none"/><path d="m514.105469 253.675781v-9.125c-3.121094.863281-5.140625 2.710938-6.042969 5.214844 0-3.027344-3.984375-10.011719-8.332031-13.484375-4.355469 3.890625-8.410157 10.207031-8.332031 13.484375-.738282-2.386719-2.914063-4.351563-6.039063-5.214844v9.125zm0 0" fill="#fff" fill-rule="evenodd" stroke-linejoin="round" stroke-width="1.2"/><path d="m515.484375 268.917969v-9.121094c-3.417969.855469-5.632813 2.707031-6.621094 5.214844 0-3.035157-4.363281-10.015625-9.132812-13.488281-4.777344 3.886718-9.222657 10.203124-9.128907 13.488281-.8125-2.394531-3.203124-4.359375-6.625-5.214844v9.121094zm0 0" fill="#fff" fill-rule="evenodd" stroke-linejoin="round" stroke-width="1.2"/><path d="m519.328125 287.640625v-10.519531c-4.253906 1.089844-6.894531 4.242187-8.230469 6.078125 0-5.699219-6.433594-14.386719-11.367187-17.230469-5.050781 2.917969-11.355469 11.898438-11.355469 17.230469-1.382812-1.824219-3.988281-4.988281-8.242188-6.078125v10.519531zm0 0" fill="#fff" fill-rule="evenodd" stroke-linejoin="round" stroke-width="1.2"/><path d="m517.027344 311v-10.820312c-3.753906 1.46875-4.875 5.089843-6.058594 7.550781.460938-10.976563-6.179688-22.773438-11.238281-25.761719-5.058594 2.988281-11.828125 15.039062-11.234375 25.761719-1.214844-2.441407-2.308594-6.082031-6.0625-7.550781v10.820312zm0 0" fill="#fff" fill-rule="evenodd" stroke-linejoin="round" stroke-width="1.2"/><path d="m644.914062 291.347656h6.429688v5.023438h-6.429688zm0 0" fill="#fff" fill-rule="evenodd" stroke-linecap="round" stroke-linejoin="round" stroke-width="1.2"/><path d="m591.839844 340.953125h5.738281v26.390625h-5.738281zm0 0" fill="#fff" fill-rule="evenodd" stroke-linecap="round" stroke-linejoin="round" stroke-width="1.2"/><path d="m641.035156 340.953125h5.738282v26.390625h-5.738282zm0 0" fill="#fff" fill-rule="evenodd" stroke-linecap="round" stroke-linejoin="round" stroke-width="1.2"/><path d="m460.625 311h77.859375" fill="none" stroke-width="1.2"/><path d="m485.339844 311.011719h28.855468v10.601562h-28.855468zm0 0" fill="none" stroke-width="1.2"/><path d="m514.398438 327.375v-10.8125c-3.9375.933594-4.175782 2.386719-5.425782 4.808594.464844-6.554688-4.183594-14.03125-9.242187-17.023438-5.058594 2.992188-9.699219 10.46875-9.234375 17.023438-1.25-2.421875-1.410156-3.875-5.433594-4.808594v10.8125zm0 0" fill="#fff" fill-rule="evenodd" stroke-width="1.2"/><path d="m416.875 311.179688c-4.980469 2.542968-9.910156 5.492187-11.15625 12.46875h11.15625zm0 0" fill="#fff" fill-rule="evenodd" stroke-width="1.2"/><path d="m348.445312 296.445312h6.914063v27.054688h-6.914063zm0 0" fill="#fff" fill-rule="evenodd" stroke-linecap="round" stroke-linejoin="round" stroke-width="1.2"/><path d="m348.445312 291.347656h6.871094v5.023438h-6.871094zm0 0" fill="#fff" fill-rule="evenodd" stroke-linecap="round" stroke-linejoin="round" stroke-width="1.2"/><path d="m405.296875 302.273438h9.859375v20.886718h-9.859375zm0 0" fill="#fff" fill-rule="evenodd" stroke-linecap="round" stroke-linejoin="round" stroke-width="1.292147"/><path d="m355.261719 323.292969v-46.308594c1.972656 0 2.269531 6.789063 6.792969 6.789063 2.355468 0 2.105468-2.8125.789062-5.101563-1.171875-2.027344-2.625-4.828125-.65625-10.046875 1.351562 3.992188 4.980469 5.261719 4.3125 2.757812-1.15625-4.304687-4.476562-5.011718-1.984375-11.6875.867187 5.570313 4.4375 5.328126 3.570313 2.085938-.976563-3.640625-3-5.136719-.507813-10.28125 1.398437 5.839844 3.285156 5.496094 3.285156 1.871094 0-5.351563-.207031-11.125 6.722657-13.273438 0 0 .398437-4.910156 2.902343-4.910156 2.496094 0 2.898438 4.910156 2.898438 4.910156 6.925781 2.148438 6.726562 7.921875 6.726562 13.273438 0 3.625 1.886719 3.96875 3.28125-1.871094 2.492188 5.144531.472657 6.640625-.503906 10.28125-.867187 3.242188 2.703125 3.484375 3.570313-2.085938 2.488281 6.675782-.832032 7.382813-1.984376 11.6875-.671874 2.503907 2.960938 1.234376 4.308594-2.757812 1.964844 5.21875.519532 8.019531-.652344 10.046875-1.320312 2.289063-1.570312 5.101563.78125 5.101563 4.523438 0 4.828126-6.789063 6.796876-6.789063v46.308594zm0 0" fill="#fff" fill-rule="evenodd" stroke-width="1.2"/><path d="m383.953125 257.15625 2.90625-2.4375v-3.125c-1.0625.105469-1.640625.472656-2.429687 1.496094-.664063-2.066406-2.128907-3.683594-4.09375-4.691406-1.972657 1.007812-3.4375 2.550781-4.101563 4.617187-.789063-1.023437-1.367187-1.316406-2.429687-1.421875v3.125l2.90625 2.4375zm0 0" fill="#fff" fill-rule="evenodd" stroke-width="1.2"/><path d="m385.511719 264.992188 1.347656-2.921876v-4.058593c-1.0625.101562-1.640625.472656-2.429687 1.519531-.664063-2.105469-2.128907-3.742188-4.09375-4.761719-1.972657 1.019531-3.4375 2.582031-4.101563 4.679688-.789063-1.035157-1.367187-1.335938-2.429687-1.4375v4.058593l1.347656 2.921876zm0 0" fill="#fff" fill-rule="evenodd" stroke-width="1.2"/><path d="m385.710938 275.589844 4.316406-5.261719v-5.1875c-1.582032.175781-2.441406.804687-3.605469 2.570313-.992187-3.554688-3.171875-4.335938-6.085937-6.054688-2.925782 1.71875-5.105469 2.371094-6.09375 5.929688-1.164063-1.769532-2.023438-2.269532-3.605469-2.445313v5.1875l4.316406 5.261719zm0 0" fill="#fff" fill-rule="evenodd" stroke-width="1.2"/><path d="m386.976562 286.007812s5.023438-4.382812 5.320313-6.789062v-5.546875c-1.945313.226563-3.789063.734375-5.222656 3.015625-1.230469-4.597656-3.136719-5.878906-6.738281-8.101562-3.609376 2.222656-5.519532 3.503906-6.746094 8.101562-1.433594-2.28125-3.277344-2.789062-5.222656-3.015625v5.546875c.632812 2.40625 5.320312 6.789062 5.320312 6.789062zm0 0" fill="#fff" fill-rule="evenodd" stroke-width="1.2"/><path d="m389.117188 305.246094s6.882812-7.625 7.042968-10.589844v-8.648438c-2.574218.351563-5.015625 2.128907-6.914062 5.679688-1.617188-7.15625-4.144532-12.148438-8.910156-15.625-4.773438 3.476562-7.300782 8.46875-8.917969 15.625-1.898438-3.550781-4.332031-5.328125-6.910157-5.679688v8.648438c.496094 2.964844 7.039063 10.589844 7.039063 10.589844zm0 0" fill="#fff" fill-rule="evenodd" stroke-width="1.2"/><path d="m389.117188 316.609375s5.882812-5.988281 7.042968-8.582031v-8.652344c-2.574218.359375-5.015625 2.128906-6.914062 5.679688-1.617188-7.15625-4.144532-11.253907-8.910156-14.726563-4.773438 3.472656-7.300782 7.570313-8.917969 14.726563-1.898438-3.550782-4.332031-5.320313-6.910157-5.679688v8.652344c1.488282 2.59375 7.039063 8.582031 7.039063 8.582031zm0 0" fill="#fff" fill-rule="evenodd" stroke-width="1.2"/><path d="m391.492188 323.234375c-1.714844-7.472656-3.191407-13.007813-11.460938-18.628906-8.265625 5.621093-9.742188 11.15625-11.457031 18.628906zm0 0" fill="#fff" fill-rule="evenodd" stroke-width="1.2"/><path d="m395.746094 327.375v-10.8125c-3.753906 1.46875-7.148438 3.648438-8.398438 6.070312-1.398437-6.003906-4.089844-8.652343-7.445312-12.285156-3.351563 3.632813-5.597656 6.28125-6.996094 12.285156-1.25-2.421874-4.644531-4.601562-8.398438-6.070312v10.8125zm0 0" fill="#fff" fill-rule="evenodd" stroke-width="1.2"/><path d="m344.429688 288.320312v35.328126h4.015624v-35.414063c-1.449218-.730469-2.808593-.847656-4.015624.085937zm0 0" fill="#fff" fill-rule="evenodd" stroke-width="1.2"/><path d="m344.554688 311.179688c4.980468 2.542968 9.914062 5.492187 11.15625 12.46875h-11.15625zm0 0" fill="#fff" fill-rule="evenodd" stroke-width="1.2"/><path d="m413.625 300.59375v23.054688h3.25v-23.109376c-1.011719-.476562-2.402344-.546874-3.25.054688zm0 0" fill="#fff" fill-rule="evenodd" stroke-width="1.2"/><path d="m416.875 311c-4.980469 2.546875-9.910156 5.492188-11.15625 12.46875h11.15625zm0 0" fill="#fff" fill-rule="evenodd" stroke-width="1.2"/><path d="m655.804688 288.320312v35.328126h-4.023438v-35.414063c1.453125-.730469 2.808594-.847656 4.023438.085937zm0 0" fill="#fff" fill-rule="evenodd" stroke-width="1.2"/><path d="m594.75 323.292969v-46.308594c1.972656 0 2.277344 6.789063 6.800781 6.789063 2.355469 0 2.105469-2.8125.78125-5.101563-1.167969-2.027344-2.621093-4.828125-.648437-10.046875 1.347656 3.992188 4.980468 5.261719 4.308594 2.757812-1.152344-4.304687-4.472657-5.011718-1.984376-11.6875.867188 5.570313 4.4375 5.328126 3.574219 2.085938-.976562-3.640625-2.996093-5.136719-.507812-10.28125 1.398437 5.839844 3.285156 5.496094 3.285156 1.871094 0-5.351563-.210937-11.125 6.726563-13.273438 0 0 .394531-4.910156 2.898437-4.910156 2.496094 0 2.898437 4.910156 2.898437 4.910156 6.925782 2.148438 6.726563 7.921875 6.726563 13.273438 0 3.625 1.882813 3.96875 3.277344-1.871094 2.496093 5.144531.476562 6.640625-.5 10.28125-.867188 3.242188 2.703125 3.484375 3.570312-2.085938 2.484375 6.675782-.832031 7.382813-1.984375 11.6875-.671875 2.503907 2.960938 1.234376 4.308594-2.757812 1.964844 5.21875.519531 8.019531-.652344 10.046875-1.324218 2.289063-1.574218 5.101563.78125 5.101563 4.523438 0 4.828125-6.789063 6.800782-6.789063v46.308594zm0 0" fill="#fff" fill-rule="evenodd" stroke-width="1.2"/><path d="m623.449219 257.15625 2.90625-2.4375v-3.125c-1.0625.105469-1.644531.472656-2.429688 1.496094-.664062-2.066406-2.128906-3.683594-4.101562-4.691406-1.964844 1.007812-3.429688 2.550781-4.097657 4.617187-.785156-1.023437-1.367187-1.316406-2.425781-1.421875v3.125l2.902344 2.4375zm0 0" fill="#fff" fill-rule="evenodd" stroke-width="1.2"/><path d="m625 264.992188 1.355469-2.921876v-4.058593c-1.0625.101562-1.644531.472656-2.429688 1.519531-.664062-2.105469-2.128906-3.742188-4.101562-4.761719-1.964844 1.019531-3.429688 2.582031-4.097657 4.679688-.785156-1.035157-1.367187-1.335938-2.425781-1.4375v4.058593l1.347657 2.921876zm0 0" fill="#fff" fill-rule="evenodd" stroke-width="1.2"/><path d="m625.207031 275.589844 4.316407-5.261719v-5.1875c-1.582032.175781-2.441407.804687-3.609376 2.570313-.988281-3.554688-3.164062-4.335938-6.089843-6.054688-2.917969 1.71875-5.097657 2.371094-6.085938 5.929688-1.164062-1.769532-2.027343-2.269532-3.605469-2.445313v5.1875l4.3125 5.261719zm0 0" fill="#fff" fill-rule="evenodd" stroke-width="1.2"/><path d="m626.46875 286.007812s5.023438-4.382812 5.324219-6.789062v-5.546875c-1.945313.226563-3.789063.734375-5.230469 3.015625-1.21875-4.597656-3.132812-5.878906-6.738281-8.101562-3.601563 2.222656-5.511719 3.503906-6.738281 8.101562-1.433594-2.28125-3.277344-2.789062-5.226563-3.015625v5.546875c.636719 2.40625 5.324219 6.789062 5.324219 6.789062zm0 0" fill="#fff" fill-rule="evenodd" stroke-width="1.2"/><path d="m628.613281 305.246094s6.878907-7.625 7.035157-10.589844v-8.648438c-2.574219.351563-5.007813 2.128907-6.90625 5.679688-1.617188-7.15625-4.144532-12.148438-8.917969-15.625-4.765625 3.476562-7.292969 8.46875-8.910157 15.625-1.898437-3.550781-4.339843-5.328125-6.914062-5.679688v8.648438c.492188 2.964844 7.039062 10.589844 7.039062 10.589844zm0 0" fill="#fff" fill-rule="evenodd" stroke-width="1.2"/><path d="m628.613281 316.609375s5.882813-5.988281 7.035157-8.582031v-8.652344c-2.574219.359375-5.007813 2.128906-6.90625 5.679688-1.617188-7.15625-4.144532-11.253907-8.917969-14.726563-4.765625 3.472656-7.292969 7.570313-8.910157 14.726563-1.898437-3.550782-4.339843-5.320313-6.914062-5.679688v8.652344c1.492188 2.59375 7.039062 8.582031 7.039062 8.582031zm0 0" fill="#fff" fill-rule="evenodd" stroke-width="1.2"/><path d="m630.988281 323.234375c-1.714843-7.472656-3.191406-13.007813-11.464843-18.628906-8.261719 5.621093-9.738282 11.15625-11.453126 18.628906zm0 0" fill="#fff" fill-rule="evenodd" stroke-width="1.2"/><path d="m655.675781 311.179688c-4.980469 2.542968-9.375 5.492187-10.625 12.46875h10.625zm0 0" fill="#fff" fill-rule="evenodd" stroke-width="1.2"/><path d="m586.609375 300.59375v23.054688h-3.257813v-23.109376c1.015626-.476562 2.410157-.546874 3.257813.054688zm0 0" fill="#fff" fill-rule="evenodd" stroke-width="1.2"/><path d="m583.351562 311.179688c4.976563 2.542968 9.910157 5.492187 11.160157 12.46875h-11.160157zm0 0" fill="#fff" fill-rule="evenodd" stroke-width="1.2"/><path d="m586.609375 300.59375v23.054688h-3.257813v-23.109376c1.015626-.476562 2.410157-.546874 3.257813.054688zm0 0" fill="#fff" fill-rule="evenodd" stroke-width="1.2"/><path d="m583.351562 311.179688c4.976563 2.542968 9.910157 5.492187 11.160157 12.46875h-11.160157zm0 0" fill="#fff" fill-rule="evenodd" stroke-width="1.2"/><path d="m528.421875 279.664062c0-8.988281 7.757813-10 7.757813-10v8c-2.953126-.128906-4.375 2.527344-4.375 6.46875 0 3.949219 2.382812 4.011719 2.382812 4.011719v22.703125h-5.765625zm0 0" fill="#fff" fill-rule="evenodd" stroke-width="1.2"/><path d="m471.074219 279.664062c0-8.988281-7.757813-10-7.757813-10v8c2.957032-.128906 4.378906 2.527344 4.378906 6.46875 0 3.949219-2.382812 4.011719-2.382812 4.011719v22.703125h5.761719zm0 0" fill="#fff" fill-rule="evenodd" stroke-width="1.2"/><path d="m635.371094 327.253906v-10.820312c-3.753906 1.472656-7.148438 3.648437-8.398438 6.074218-1.398437-6.007812-4.089844-8.65625-7.449218-12.289062-3.355469 3.632812-5.601563 6.28125-7 12.289062-1.25-2.425781-4.644532-4.601562-8.398438-6.074218v10.820312zm0 0" fill="#fff" fill-rule="evenodd" stroke-width="1.2"/><path d="m303.734375 415.535156h392.523437l.007813 20.050782h-392.523437zm0 0" fill="#fff" fill-rule="evenodd" stroke-width="1.2"/><path d="m293.390625 435.554688h413.214844l.003906 20.019531h-413.214844zm0 0" fill="#fff" fill-rule="evenodd" stroke-width="1.2"/><path d="m324.351562 385.550781h351.296876v12.96875h-351.296876zm0 0" fill="#fff" fill-rule="evenodd" stroke-width="1.2"/><path d="m314.082031 398.433594h371.839844v16.992187h-371.839844zm0 0" fill="#fff" fill-rule="evenodd" stroke-width="1.2"/><path d="m330.488281 375.570312h339.027344v9.882813h-339.027344zm0 0" fill="#fff" fill-rule="evenodd" stroke-width="1.2"/><path d="m367.285156 375.625h25.609375v79.894531h-25.609375zm0 0" fill="#fff" fill-rule="evenodd" stroke-width="1.305695"/><path d="m372.953125 375.625h14.273437v79.894531h-14.273437zm0 0" fill="#fff" fill-rule="evenodd" stroke-width="1.303675"/><path d="m372.691406 385.484375h14.789063" fill="none" stroke-width="1.2"/><path d="m372.691406 395.480469h14.789063" fill="none" stroke-width="1.2"/><path d="m372.691406 405.484375h14.789063" fill="none" stroke-width="1.2"/><path d="m372.691406 415.480469h14.789063" fill="none" stroke-width="1.2"/><path d="m372.691406 425.476562h14.789063" fill="none" stroke-width="1.2"/><path d="m372.691406 435.484375h14.789063" fill="none" stroke-width="1.2"/><path d="m372.691406 445.480469h14.789063" fill="none" stroke-width="1.2"/><path d="m486.75 375.625h25.609375v79.894531h-25.609375zm0 0" fill="#fff" fill-rule="evenodd" stroke-width="1.305695"/><path d="m492.597656 375.625h14.269532v79.894531h-14.269532zm0 0" fill="#fff" fill-rule="evenodd" stroke-width="1.303675"/><path d="m492.671875 385.464844h13.765625" fill="none" stroke-width="1.2"/><path d="m492.671875 395.472656h13.765625" fill="none" stroke-width="1.2"/><path d="m492.671875 405.476562h13.765625" fill="none" stroke-width="1.2"/><path d="m492.671875 415.480469h13.765625" fill="none" stroke-width="1.2"/><path d="m492.671875 425.484375h13.765625" fill="none" stroke-width="1.2"/><path d="m492.671875 435.492188h13.765625" fill="none" stroke-width="1.2"/><path d="m492.671875 445.5h13.765625" fill="none" stroke-width="1.2"/><path d="m606.929688 375.625h25.609374v79.894531h-25.609374zm0 0" fill="#fff" fill-rule="evenodd" stroke-width="1.305695"/><path d="m612.597656 375.625h14.269532v79.894531h-14.269532zm0 0" fill="#fff" fill-rule="evenodd" stroke-width="1.303675"/><path d="m612.339844 385.484375h14.789062" fill="none" stroke-width="1.2"/><path d="m612.339844 395.480469h14.789062" fill="none" stroke-width="1.2"/><path d="m612.339844 405.484375h14.789062" fill="none" stroke-width="1.2"/><path d="m612.339844 415.480469h14.789062" fill="none" stroke-width="1.2"/><path d="m612.339844 425.476562h14.789062" fill="none" stroke-width="1.2"/><path d="m612.339844 435.484375h14.789062" fill="none" stroke-width="1.2"/><path d="m612.339844 445.480469h14.789062" fill="none" stroke-width="1.2"/><path d="m422.546875 340.953125h5.742187v26.390625h-5.742187zm0 0" fill="#fff" fill-rule="evenodd" stroke-linecap="round" stroke-linejoin="round" stroke-width="1.2"/><path d="m434.546875 340.953125h5.742187v26.390625h-5.742187zm0 0" fill="#fff" fill-rule="evenodd" stroke-linecap="round" stroke-linejoin="round" stroke-width="1.2"/><path d="m446.550781 340.953125h5.738281v26.390625h-5.738281zm0 0" fill="#fff" fill-rule="evenodd" stroke-linecap="round" stroke-linejoin="round" stroke-width="1.2"/><path d="m547.050781 340.953125h5.738281v26.390625h-5.738281zm0 0" fill="#fff" fill-rule="evenodd" stroke-linecap="round" stroke-linejoin="round" stroke-width="1.2"/><path d="m559.050781 340.953125h5.746094v26.390625h-5.746094zm0 0" fill="#fff" fill-rule="evenodd" stroke-linecap="round" stroke-linejoin="round" stroke-width="1.2"/><path d="m571.050781 340.953125h5.746094v26.390625h-5.746094zm0 0" fill="#fff" fill-rule="evenodd" stroke-linecap="round" stroke-linejoin="round" stroke-width="1.2"/><path d="m487.796875 209.238281-.632813-5h25.34375l-.636718 5zm0 0" fill="#fff" fill-rule="evenodd" stroke-width="1.2"/><path d="m489.496094 204.140625-.542969-4.109375h21.765625l-.542969 4.109375zm0 0" fill="#fff" fill-rule="evenodd" stroke-width="1.2"/><path d="m492.949219 199.878906-.359375-4.113281h14.488281l-.359375 4.113281zm0 0" fill="#fff" fill-rule="evenodd" stroke-width="1.2"/></g></svg>