<svg viewBox="0 0 1000 667" xmlns="http://www.w3.org/2000/svg" xmlns:xlink="http://www.w3.org/1999/xlink"><clipPath id="a"><path d="m0 0h334v666.71875h-334zm0 0"/></clipPath><clipPath id="b"><path d="m333 0h334v666.71875h-334zm0 0"/></clipPath><clipPath id="c"><path d="m666 0h334v666.71875h-334zm0 0"/></clipPath><g clip-path="url(#a)"><path d="m0 0h333.332031v666.667969h-333.332031zm0 0" fill="#007a5e" fill-rule="evenodd"/></g><g clip-path="url(#b)"><path d="m333.332031 0h333.335938v666.667969h-333.335938zm0 0" fill="#ce1126" fill-rule="evenodd"/></g><g clip-path="url(#c)"><path d="m666.667969 0h333.332031v666.667969h-333.332031zm0 0" fill="#fcd116" fill-rule="evenodd"/></g><g fill="#fcd116" fill-rule="evenodd"><path d="m500 244.441406-27.464844 84.539063 42.265625 13.734375zm0 0"/><path d="m500 244.441406 27.464844 84.539063-42.265625 13.734375zm0 0"/><path d="m584.539062 305.867188h-88.894531v44.441406zm0 0"/><path d="m584.539062 305.867188-71.917968 52.246093-26.121094-35.953125zm0 0"/><path d="m552.246094 405.25-27.464844-84.539062-42.269531 13.730468zm0 0"/><path d="m552.246094 405.25-71.910156-52.253906 26.125-35.953125zm0 0"/><path d="m447.753906 405.25 71.910156-52.253906-26.125-35.953125zm0 0"/><path d="m447.753906 405.25 27.464844-84.539062 42.269531 13.730468zm0 0"/><path d="m415.460938 305.867188 71.917968 52.246093 26.121094-35.953125zm0 0"/><path d="m415.460938 305.867188h88.894531v44.441406zm0 0"/></g></svg>