<svg viewBox="0 0 1000 588" xmlns="http://www.w3.org/2000/svg"><path d="m0 0h1000v588h-1000z" fill="#003893"/><g fill-rule="evenodd"><path d="m0 294.117188h1000v147.058593h-1000zm0 0" fill="#fff"/><path d="m0 343.136719h1000v49.019531h-1000zm0 0" fill="#ce1126"/><path d="m375 191.175781-9.085938 27.976563 13.988282 4.539062zm0 0" fill="#fc0"/><path d="m375 191.175781 9.085938 27.976563-13.988282 4.539062zm0 0" fill="#fc0"/><path d="m402.976562 211.503906h-29.414062v14.703125zm0 0" fill="#fc0"/><path d="m402.976562 211.503906-23.800781 17.28125-8.636719-11.894531zm0 0" fill="#fc0"/><path d="m392.292969 244.378906-9.097657-27.964844-13.976562 4.535157zm0 0" fill="#fc0"/><path d="m392.292969 244.378906-23.804688-17.28125 8.648438-11.898437zm0 0" fill="#fc0"/><path d="m357.707031 244.378906 23.804688-17.28125-8.648438-11.898437zm0 0" fill="#fc0"/><path d="m357.707031 244.378906 9.097657-27.964844 13.976562 4.535157zm0 0" fill="#fc0"/><path d="m347.023438 211.503906 23.800781 17.28125 8.636719-11.894531zm0 0" fill="#fc0"/><path d="m347.023438 211.503906h29.414062v14.703125zm0 0" fill="#fc0"/><path d="m288.5625 219.257812-9.085938 27.964844 13.988282 4.550782zm0 0" fill="#fc0"/><path d="m288.5625 219.257812 9.097656 27.964844-13.988281 4.550782zm0 0" fill="#fc0"/><path d="m316.539062 239.574219h-29.410156v14.707031zm0 0" fill="#fc0"/><path d="m316.539062 239.574219-23.792968 17.289062-8.644532-11.898437zm0 0" fill="#fc0"/><path d="m305.855469 272.460938-9.085938-27.976563-13.988281 4.546875zm0 0" fill="#fc0"/><path d="m305.855469 272.460938-23.792969-17.292969 8.644531-11.886719zm0 0" fill="#fc0"/><path d="m271.285156 272.460938 23.789063-17.292969-8.644531-11.886719zm0 0" fill="#fc0"/><path d="m271.285156 272.460938 9.085938-27.976563 13.988281 4.546875zm0 0" fill="#fc0"/><path d="m260.597656 239.574219 23.792969 17.289062 8.644531-11.898437zm0 0" fill="#fc0"/><path d="m260.597656 239.574219h29.414063v14.707031zm0 0" fill="#fc0"/><path d="m461.4375 219.257812-9.097656 27.964844 13.988281 4.550782zm0 0" fill="#fc0"/><path d="m461.4375 219.257812 9.085938 27.964844-13.988282 4.550782zm0 0" fill="#fc0"/><path d="m489.402344 239.574219h-29.414063v14.707031zm0 0" fill="#fc0"/><path d="m489.402344 239.574219-23.792969 17.289062-8.644531-11.898437zm0 0" fill="#fc0"/><path d="m478.714844 272.460938-9.085938-27.976563-13.988281 4.546875zm0 0" fill="#fc0"/><path d="m478.714844 272.460938-23.789063-17.292969 8.644531-11.886719zm0 0" fill="#fc0"/><path d="m444.144531 272.460938 23.792969-17.292969-8.644531-11.886719zm0 0" fill="#fc0"/><path d="m444.144531 272.460938 9.085938-27.976563 13.988281 4.546875zm0 0" fill="#fc0"/><path d="m433.460938 239.574219 23.792968 17.289062 8.644532-11.898437zm0 0" fill="#fc0"/><path d="m433.460938 239.574219h29.410156v14.707031zm0 0" fill="#fc0"/><path d="m514.859375 292.785156-9.085937 27.96875 13.988281 4.546875zm0 0" fill="#fc0"/><path d="m514.859375 292.785156 9.09375 27.96875-13.988281 4.546875zm0 0" fill="#fc0"/><path d="m542.835938 313.101562h-29.410157v14.707032zm0 0" fill="#fc0"/><path d="m542.835938 313.101562-23.792969 17.292969-8.644531-11.902343zm0 0" fill="#fc0"/><path d="m532.148438 345.988281-9.085938-27.972656-13.988281 4.546875zm0 0" fill="#fc0"/><path d="m532.148438 345.988281-23.789063-17.289062 8.644531-11.890625zm0 0" fill="#fc0"/><path d="m497.578125 345.988281 23.792969-17.289062-8.648438-11.890625zm0 0" fill="#fc0"/><path d="m497.578125 345.988281 9.085937-27.972656 13.988282 4.546875zm0 0" fill="#fc0"/><path d="m486.890625 313.101562 23.792969 17.292969 8.648437-11.902343zm0 0" fill="#fc0"/><path d="m486.890625 313.101562h29.414063v14.707032zm0 0" fill="#fc0"/><path d="m514.859375 383.683594-9.085937 27.976562 13.988281 4.546875zm0 0" fill="#fc0"/><path d="m514.859375 383.683594 9.09375 27.976562-13.988281 4.546875zm0 0" fill="#fc0"/><path d="m542.835938 404.011719h-29.410157v14.703125zm0 0" fill="#fc0"/><path d="m542.835938 404.011719-23.792969 17.289062-8.644531-11.902343zm0 0" fill="#fc0"/><path d="m532.148438 436.898438-9.085938-27.976563-13.988281 4.546875zm0 0" fill="#fc0"/><path d="m532.148438 436.898438-23.789063-17.292969 8.644531-11.898438zm0 0" fill="#fc0"/><path d="m497.578125 436.898438 23.792969-17.292969-8.648438-11.898438zm0 0" fill="#fc0"/><path d="m497.578125 436.898438 9.085937-27.976563 13.988282 4.546875zm0 0" fill="#fc0"/><path d="m486.890625 404.011719 23.792969 17.289062 8.648437-11.902343zm0 0" fill="#fc0"/><path d="m486.890625 404.011719h29.414063v14.703125zm0 0" fill="#fc0"/><path d="m461.4375 457.214844-9.097656 27.972656 13.988281 4.546875zm0 0" fill="#fc0"/><path d="m461.4375 457.214844 9.085938 27.972656-13.988282 4.546875zm0 0" fill="#fc0"/><path d="m489.402344 477.539062h-29.414063v14.707032zm0 0" fill="#fc0"/><path d="m489.402344 477.539062-23.792969 17.292969-8.644531-11.902343zm0 0" fill="#fc0"/><path d="m478.714844 510.425781-9.085938-27.976562-13.988281 4.546875zm0 0" fill="#fc0"/><path d="m478.714844 510.425781-23.789063-17.289062 8.644531-11.902344zm0 0" fill="#fc0"/><path d="m444.144531 510.425781 23.792969-17.289062-8.644531-11.902344zm0 0" fill="#fc0"/><path d="m444.144531 510.425781 9.085938-27.976562 13.988281 4.546875zm0 0" fill="#fc0"/><path d="m433.460938 477.539062 23.792968 17.292969 8.644532-11.902343zm0 0" fill="#fc0"/><path d="m433.460938 477.539062h29.410156v14.707032zm0 0" fill="#fc0"/><path d="m375 485.292969-9.085938 27.976562 13.988282 4.539063zm0 0" fill="#fc0"/><path d="m375 485.292969 9.085938 27.976562-13.988282 4.539063zm0 0" fill="#fc0"/><path d="m402.976562 505.621094h-29.414062v14.703125zm0 0" fill="#fc0"/><path d="m402.976562 505.621094-23.800781 17.28125-8.636719-11.890625zm0 0" fill="#fc0"/><path d="m392.292969 538.496094-9.097657-27.964844-13.976562 4.539062zm0 0" fill="#fc0"/><path d="m392.292969 538.496094-23.804688-17.28125 8.648438-11.898438zm0 0" fill="#fc0"/><path d="m357.707031 538.496094 23.804688-17.28125-8.648438-11.898438zm0 0" fill="#fc0"/><path d="m357.707031 538.496094 9.097657-27.964844 13.976562 4.539062zm0 0" fill="#fc0"/><path d="m347.023438 505.621094 23.800781 17.28125 8.636719-11.890625zm0 0" fill="#fc0"/><path d="m347.023438 505.621094h29.414062v14.703125zm0 0" fill="#fc0"/><path d="m288.5625 457.214844-9.085938 27.972656 13.988282 4.546875zm0 0" fill="#fc0"/><path d="m288.5625 457.214844 9.097656 27.972656-13.988281 4.546875zm0 0" fill="#fc0"/><path d="m316.539062 477.539062h-29.410156v14.707032zm0 0" fill="#fc0"/><path d="m316.539062 477.539062-23.792968 17.292969-8.644532-11.902343zm0 0" fill="#fc0"/><path d="m305.855469 510.425781-9.085938-27.976562-13.988281 4.546875zm0 0" fill="#fc0"/><path d="m305.855469 510.425781-23.792969-17.289062 8.644531-11.902344zm0 0" fill="#fc0"/><path d="m271.285156 510.425781 23.789063-17.289062-8.644531-11.902344zm0 0" fill="#fc0"/><path d="m271.285156 510.425781 9.085938-27.976562 13.988281 4.546875zm0 0" fill="#fc0"/><path d="m260.597656 477.539062 23.792969 17.292969 8.644531-11.902343zm0 0" fill="#fc0"/><path d="m260.597656 477.539062h29.414063v14.707032zm0 0" fill="#fc0"/><path d="m235.140625 383.683594-9.09375 27.976562 13.988281 4.546875zm0 0" fill="#fc0"/><path d="m235.140625 383.683594 9.085937 27.976562-13.988281 4.546875zm0 0" fill="#fc0"/><path d="m263.109375 404.011719h-29.414063v14.703125zm0 0" fill="#fc0"/><path d="m263.109375 404.011719-23.792969 17.289062-8.648437-11.902343zm0 0" fill="#fc0"/><path d="m252.421875 436.898438-9.085937-27.976563-13.988282 4.546875zm0 0" fill="#fc0"/><path d="m252.421875 436.898438-23.792969-17.292969 8.648438-11.898438zm0 0" fill="#fc0"/><path d="m217.851562 436.898438 23.789063-17.292969-8.644531-11.898438zm0 0" fill="#fc0"/><path d="m217.851562 436.898438 9.085938-27.976563 13.988281 4.546875zm0 0" fill="#fc0"/><path d="m207.164062 404.011719 23.792969 17.289062 8.644531-11.902343zm0 0" fill="#fc0"/><path d="m207.164062 404.011719h29.410157v14.703125zm0 0" fill="#fc0"/><path d="m235.140625 292.785156-9.09375 27.96875 13.988281 4.546875zm0 0" fill="#fc0"/><path d="m235.140625 292.785156 9.085937 27.96875-13.988281 4.546875zm0 0" fill="#fc0"/><path d="m263.109375 313.101562h-29.414063v14.707032zm0 0" fill="#fc0"/><path d="m263.109375 313.101562-23.792969 17.292969-8.648437-11.902343zm0 0" fill="#fc0"/><path d="m252.421875 345.988281-9.085937-27.972656-13.988282 4.546875zm0 0" fill="#fc0"/><path d="m252.421875 345.988281-23.792969-17.289062 8.648438-11.890625zm0 0" fill="#fc0"/><path d="m217.851562 345.988281 23.789063-17.289062-8.644531-11.890625zm0 0" fill="#fc0"/><path d="m217.851562 345.988281 9.085938-27.972656 13.988281 4.546875zm0 0" fill="#fc0"/><path d="m207.164062 313.101562 23.792969 17.292969 8.644531-11.902343zm0 0" fill="#fc0"/><path d="m207.164062 313.101562h29.410157v14.707032zm0 0" fill="#fc0"/></g></svg>