<svg viewBox="0 0 1000 501" xmlns="http://www.w3.org/2000/svg"><g fill-rule="evenodd"><path d="m0 500v-500h1000v500zm0 0" fill="#0021ad"/><path d="m0 0 1000 500-.570312-499.628906zm0 0" fill="#1c8a42"/><path d="m591.320312 249.726562c0 23.648438-9.734374 47.148438-26.457031 63.867188-16.71875 16.71875-40.21875 26.453125-63.867187 26.453125-23.648438 0-47.148438-9.734375-63.867188-26.453125s-26.457031-40.21875-26.457031-63.867188c0-23.648437 9.738281-47.148437 26.457031-63.867187s40.21875-26.453125 63.867188-26.453125c23.648437 0 47.148437 9.734375 63.867187 26.453125 16.722657 16.71875 26.457031 40.21875 26.457031 63.867187zm0 0" fill="#ffc639"/><path d="m444.84375 209.421875c6.179688 8.488281 15.539062 22.691406 23.070312 18.988281 5.871094.015625 8.90625.433594 9.703126 4.339844 13.863281 2.363281 37.164062-3.488281 51.644531-22.359375 0 0 1.226562.15625.800781-7.015625.078125-3.132812 4.273438-2.5 4.375-1.488281.585938 1.550781.480469 2.71875 1.265625 2.757812 1.792969-.601562 4.234375-4.601562 6.273437-7.140625.5625-1.117187.253907-2.300781.386719-3.707031 1.074219-2.65625 3.765625-2.074219 4.335938-.6875.507812.894531.515625 1.589844 1.027343 2.480469 2.726563 1.816406 7.660157.121094 8.042969.121094.484375-2.226563 1.914063-2.015626 1.914063-2.015626 1.820312-.398437 1.109375-.238281 2.300781.386719-1.054687 12 2.359375 12.535157 2.082031 18.695313.121094 6.871094-2.082031 8.824218-2.082031 11.453125.699219 3.195312 10.835937 3.308593 7.265625 6.019531-3.132812 1.671875.019531 4.8125-4.707031 6.023438-13.71875 6.972656-16.351563 12.949218-16.351563 12.949218s-3.449218 6.515625-3.828125 6.515625c-2.304687 4.34375-5.21875 1.964844-6.835937 4.089844-.804688 2.660156-1.71875 8.554687-.097656 11.617187.804687 4.214844-.101563 6.507813-1.113282 10.722657-.90625 8.789062-4.390625 10.121093-4.796875 13.214843-1.613281 3.289063.34375 18.765626-1.191406 18.765626-10.21875.203124-18.054687-1.957032-22.09375-2.761719 3.941406-16.972657 2.414063-31.898438 2.414063-33.433594-1.011719-12.140625-18.199219-9.183594-20.820313-10.800781-2.183594-.460938-3.554687-2.238282-4.320313-3.007813-2.429687-.253906-3.339843-.816406-5.769531-1.066406-1.210937.601563-.476562 1.234375-3.183593 2.0625-6.851563.828125-9.882813-5.96875-9.882813-5.96875.339844-2.292969-15.40625.46875-23.960937-1.519531-3.507813 1.957031-5.039063 7.738281-7.914063 8.425781-.082031 1.792969-4.726563-1.472656-5.65625-3.234375-.203125-5.132812 4.46875-7.402344 4.46875-7.402344 3.703125-2.609375 5.90625-3.039062 7.691406-4.835937.894531-4.46875.445313-7.773438 2.347657-11.132813 1.613281-2.5625 3.992187-1.359375 5.601562-2.511718 1.738281-1.144532 2.464844-8.660157.871094-10.722657 0 0-6.933594-6.257812-7.320313-6.636719-2.253906-6.476562 2.636719-10.648437 4.042969-10.179687zm0 0" fill="#1c8a42"/><path d="m877.929688 97.554688c-4.09375-16.191407-40.71875-51.070313-68.242188-73.261719-6.578125-4.476563-10.859375-1.8125-10.003906 4.570312 3.425781 5.714844 5.996094 12 9.425781 17.71875.953125 3.808594 2.765625 6.472657 3.71875 10.28125 0 0 .28125 6.574219.859375 7.144531 8.570312 9.433594 9.710938 17.433594 9.710938 17.433594 4.957031 9.527344 9.335937 16.480469 18.003906 24.292969 9.714844 6.09375 2.566406 25.046875 2.855468 35.144531 0 6.386719-4.570312 5.625-8.570312 4.859375-31.527344-28.957031-62.773438-29.054687-90.300781-37.433593-10.761719-1.140626-10.953125 4-7.429688 6.855468 19.242188 20.578125 37.339844 34.582032 61.152344 46.292969 4 2.476563 8 4.957031 12.003906 7.433594 4.570313 3.808593 9.140625 7.617187 13.714844 11.429687 10.570313 6.855469 11.433594 13.144532 11.433594 13.710938.28125 12.863281-6.574219 22.863281-8.578125 26.867187-3.609375 13.636719-10.855469 16-10.855469 16-58.863281 39.722657-89.734375 50.011719-185.171875 37.71875-1.429688-.761719-10.578125.761719 0 4.578125 24.292969 8.09375 83.957031 21.074219 141.683594-6.261718 13.863281-9.722657 23.136718-6.535157 33.175781-12.347657 16.480469-10.167969 40.03125-22.828125 44.3125-24.253906 12.863281-6.859375 48.871094-14.574219 57.15625-21.4375 9.527344-.757813 19.394531-2.007813 20.058594-10.203125 3.132812-2.015625 7.703125-.542969 11.101562-7.210938 7.546875-1.3125 6.277344-4.019531 6.277344-4.019531-1.90625-5.332031-8.957031-7.523437-14-11.425781-7.433594-2.480469-12.574219-3.238281-18.007813-.570312-1.714843.761718-3.429687 1.523437-5.144531 2.285156 0 0-8-1.144532-8-1.714844-17.78125-.976562-16.050781-59.898438-22.339843-84.476562zm0 0" fill="#ffc639"/><path d="m919.617188 194.007812c-.480469 1.359376-2.921876 1.96875-5.113282 1.28125-2.199218-.695312-3.75-2.554687-3.265625-3.90625.484375-1.359374 2.925781-1.96875 5.125-1.273437 2.191407.6875 3.746094 2.546875 3.253907 3.898437zm0 0" fill="#1c8a42"/><g fill="#fff"><path d="m188.152344 190.9375-12.746094-11.933594-12.90625 11.773438 1.382812-17.414063-17.246093-2.75 14.472656-9.773437-8.605469-15.199219 16.667969 5.21875 6.515625-16.207031 6.308594 16.289062 16.738281-5.003906-8.804687 15.085938 14.351562 9.960937-17.285156 2.527344zm0 0"/><path d="m233.390625 335.539062-13.75-9.175781-13.394531 9.671875 4.710937-15.578125-13.578125-9.40625 16.660156-.453125 4.996094-15.488281 5.589844 15.296875 16.667969-.164062-13.207031 9.902343zm0 0"/><path d="m296.582031 275.96875-12.75-11.941406-12.90625 11.773437 1.382813-17.410156-17.246094-2.75 14.472656-9.777344-8.601562-15.199219 16.664062 5.226563 6.519532-16.207031 6.308593 16.289062 16.734375-5.011718-8.800781 15.089843 14.351563 9.960938-17.285157 2.527343zm0 0"/><path d="m76.089844 314.160156-12.75-11.933594-12.90625 11.773438 1.382812-17.414062-17.246094-2.75 14.472657-9.773438-8.601563-15.199219 16.664063 5.21875 6.515625-16.199219 6.308594 16.28125 16.734374-5.003906-8.796874 15.089844 14.347656 9.957031-17.285156 2.527344zm0 0"/><path d="m190.679688 460-12.753907-11.9375-12.902343 11.769531 1.382812-17.410156-17.25-2.75 14.476562-9.773437-8.609374-15.199219 16.671874 5.222656 6.515626-16.207031 6.308593 16.289062 16.734375-5.007812-8.796875 15.085937 14.34375 9.960938-17.28125 2.53125zm0 0"/></g></g></svg>