<svg viewBox="0 0 1000 600" xmlns="http://www.w3.org/2000/svg"><path d="m0 0h1000v600h-1000z" fill="#ffc61e"/><g fill-rule="evenodd"><path d="m0 150h1000v450h-1000zm0 0" fill="#fff"/><path d="m0 300h1000v300h-1000zm0 0" fill="#ce1126"/><path d="m0 450h1000v150h-1000zm0 0" fill="#3a75c4"/><path d="m0 600 500-300-500-300zm0 0" fill="#3d8e33"/><path d="m305 300c0 74.558594-60.441406 135-135 135s-135-60.441406-135-135 60.441406-135 135-135 135 60.441406 135 135zm0 0" fill="#fff"/><path d="m365 300c0 74.558594-60.441406 135-135 135s-135-60.441406-135-135 60.441406-135 135-135 135 60.441406 135 135zm0 0" fill="#3d8e33"/><path d="m176.21875 195.65625h18.167969l5.613281-17.277344 5.613281 17.277344h18.167969l-14.699219 10.671875 5.617188 17.273437-14.699219-10.671874-14.699219 10.671874 5.617188-17.273437zm0 0" fill="#fff"/><path d="m176.21875 260.066406h18.167969l5.613281-17.273437 5.613281 17.273437h18.167969l-14.699219 10.675782 5.617188 17.273437-14.699219-10.671875-14.699219 10.671875 5.617188-17.273437zm0 0" fill="#fff"/><path d="m176.21875 324.484375h18.167969l5.613281-17.277344 5.613281 17.277344h18.167969l-14.699219 10.671875 5.617188 17.277344-14.699219-10.675782-14.699219 10.675782 5.617188-17.277344zm0 0" fill="#fff"/><path d="m176.21875 388.898438h18.167969l5.613281-17.277344 5.613281 17.277344h18.167969l-14.699219 10.671874 5.617188 17.273438-14.699219-10.671875-14.699219 10.671875 5.617188-17.273438zm0 0" fill="#fff"/></g></svg>