<svg viewBox="0 0 1000 501" xmlns="http://www.w3.org/2000/svg"><path d="m0 500v-500h1000v500zm0 0" fill="#00247d" fill-rule="evenodd"/><path d="m0 0v27.949219l444.097656 222.050781h55.902344v-27.949219l-444.097656-222.050781zm500 0v27.949219l-444.097656 222.050781h-55.902344v-27.953125l444.097656-222.046875zm0 0" fill="#fff" fill-rule="evenodd"/><path d="m0 250 166.664062-83.335938h37.269532l-166.667969 83.335938zm0-250 166.664062 83.335938h-37.265624l-129.398438-64.703126zm296.066406 83.335938 166.667969-83.335938h37.265625l-166.664062 83.335938zm203.933594 166.664062-166.664062-83.335938h37.265624l129.398438 64.703126zm0 0" fill="#cf142b" fill-rule="evenodd"/><path d="m208.335938 0v250h83.328124v-250zm0 0" fill="#fff" stroke="#fff" stroke-linecap="square" stroke-miterlimit="3.239307"/><path d="m0 83.335938v83.328124h500v-83.328124zm0 0" fill="#fff" stroke="#fff" stroke-linecap="square" stroke-miterlimit="3.239307"/><path d="m0 100v50h500v-50zm0 0" fill="#cf142b" stroke="#cf142b" stroke-linecap="square" stroke-miterlimit="3.239307"/><path d="m225 0v250h50v-250zm0 0" fill="#cf142b" stroke="#cf142b" stroke-linecap="square" stroke-miterlimit="3.239307"/><g fill-rule="evenodd"><path d="m761.199219 43.75-11.589844 35.660156 19.019531 6.1875zm0 0" fill="#fff"/><path d="m761.199219 43.75 11.589843 35.660156-19.019531 6.1875zm0 0" fill="#fff"/><path d="m796.859375 69.660156h-37.5v20.003906zm0 0" fill="#fff"/><path d="m796.859375 69.660156-30.332031 22.046875-11.757813-16.1875zm0 0" fill="#fff"/><path d="m783.242188 111.585938-11.585938-35.667969-19.027344 6.1875zm0 0" fill="#fff"/><path d="m783.242188 111.585938-30.335938-22.042969 11.75-16.179688zm0 0" fill="#fff"/><path d="m739.152344 111.585938 30.335937-22.042969-11.75-16.179688zm0 0" fill="#fff"/><path d="m739.152344 111.585938 11.585937-35.667969 19.027344 6.1875zm0 0" fill="#fff"/><path d="m725.539062 69.660156 30.328126 22.046875 11.761718-16.1875zm0 0" fill="#fff"/><path d="m725.539062 69.660156h37.5v20.003906zm0 0" fill="#fff"/><path d="m845.597656 61.683594-25.097656 27.875 14.867188 13.378906zm0 0" fill="#fff"/><path d="m845.597656 61.683594-3.921875 37.300781-19.890625-2.09375zm0 0" fill="#fff"/><path d="m867.636719 99.867188-34.253907-15.257813-8.140624 18.28125zm0 0" fill="#fff"/><path d="m867.636719 99.867188-36.679688 7.800781-4.160156-19.566407zm0 0" fill="#fff"/><path d="m838.144531 132.625 3.914063-37.289062-19.890625-2.089844zm0 0" fill="#fff"/><path d="m838.144531 132.625-18.75-32.472656 17.316407-10zm0 0" fill="#fff"/><path d="m797.867188 114.699219 36.679687-7.800781-4.160156-19.5625zm0 0" fill="#fff"/><path d="m797.867188 114.699219 25.089843-27.867188 14.867188 13.378907zm0 0" fill="#fff"/><path d="m802.476562 70.859375 18.75 32.46875 17.316407-10zm0 0" fill="#fff"/><path d="m802.476562 70.859375 34.257813 15.25-8.136719 18.269531zm0 0" fill="#fff"/><path d="m915.398438 112.402344-34.253907 15.257812 8.128907 18.269532zm0 0" fill="#fff"/><path d="m915.398438 112.402344-18.75 32.480468-17.320313-10.003906zm0 0" fill="#fff"/><path d="m920.011719 156.25-25.097657-27.871094-14.859374 13.386719zm0 0" fill="#fff"/><path d="m920.011719 156.25-36.6875-7.796875 4.160156-19.5625zm0 0" fill="#fff"/><path d="m879.734375 174.175781 18.75-32.476562-17.316406-9.992188zm0 0" fill="#fff"/><path d="m879.734375 174.175781-3.917969-37.292969 19.886719-2.09375zm0 0" fill="#fff"/><path d="m850.234375 141.414062 36.6875 7.796876 4.160156-19.558594zm0 0" fill="#fff"/><path d="m850.234375 141.414062 34.261719-15.25 8.132812 18.269532zm0 0" fill="#fff"/><path d="m872.28125 103.238281 3.914062 37.296875 19.898438-2.089844zm0 0" fill="#fff"/><path d="m872.28125 103.238281 25.089844 27.875-14.859375 13.375zm0 0" fill="#fff"/><path d="m958.546875 187.125h-37.5v20.003906zm0 0" fill="#fff"/><path d="m958.546875 187.125-30.339844 22.046875-11.757812-16.179687zm0 0" fill="#fff"/><path d="m944.921875 229.050781-11.589844-35.660156-19.027343 6.179687zm0 0" fill="#fff"/><path d="m944.921875 229.050781-30.339844-22.035156 11.753907-16.179687zm0 0" fill="#fff"/><path d="m900.835938 229.050781 30.339843-22.035156-11.757812-16.179687zm0 0" fill="#fff"/><path d="m900.835938 229.050781 11.589843-35.660156 19.019531 6.179687zm0 0" fill="#fff"/><path d="m887.214844 187.125 30.339844 22.046875 11.75-16.179687zm0 0" fill="#fff"/><path d="m887.214844 187.125h37.5v20.003906zm0 0" fill="#fff"/><path d="m922.875 161.214844-11.585938 35.667968 19.027344 6.175782zm0 0" fill="#fff"/><path d="m922.875 161.214844 11.589844 35.667968-19.019532 6.175782zm0 0" fill="#fff"/><path d="m967.5625 272.941406-34.261719-15.25-8.128906 18.269532zm0 0" fill="#fff"/><path d="m967.5625 272.941406-36.679688 7.796875-4.15625-19.566406zm0 0" fill="#fff"/><path d="m938.0625 305.695312 3.921875-37.285156-19.890625-2.09375zm0 0" fill="#fff"/><path d="m938.0625 305.695312-18.75-32.46875 17.324219-10zm0 0" fill="#fff"/><path d="m897.792969 287.769531 36.679687-7.796875-4.15625-19.5625zm0 0" fill="#fff"/><path d="m897.792969 287.769531 25.089843-27.867187 14.859376 13.382812zm0 0" fill="#fff"/><path d="m902.398438 243.929688 18.75 32.46875 17.320312-9.992188zm0 0" fill="#fff"/><path d="m902.398438 243.929688 34.253906 15.25-8.128906 18.269531zm0 0" fill="#fff"/><path d="m945.515625 234.765625-25.089844 27.863281 14.863281 13.378906zm0 0" fill="#fff"/><path d="m945.515625 234.765625-3.914063 37.289063-19.890624-2.09375zm0 0" fill="#fff"/><path d="m940.902344 354.996094-25.097656-27.863282-14.859376 13.378907zm0 0" fill="#fff"/><path d="m940.902344 354.996094-36.6875-7.796875 4.160156-19.5625zm0 0" fill="#fff"/><path d="m900.628906 372.933594 18.75-32.480469-17.320312-10zm0 0" fill="#fff"/><path d="m900.628906 372.933594-3.925781-37.296875 19.890625-2.089844zm0 0" fill="#fff"/><path d="m871.128906 340.167969 36.675782 7.796875 4.15625-19.5625zm0 0" fill="#fff"/><path d="m871.128906 340.167969 34.257813-15.25 8.128906 18.269531zm0 0" fill="#fff"/><path d="m893.171875 301.992188 3.914063 37.296874 19.890624-2.089843zm0 0" fill="#fff"/><path d="m893.171875 301.992188 25.089844 27.867187-14.859375 13.386719zm0 0" fill="#fff"/><path d="m936.289062 311.15625-34.253906 15.253906 8.128906 18.265625zm0 0" fill="#fff"/><path d="m936.289062 311.15625-18.75 32.480469-17.320312-10zm0 0" fill="#fff"/><path d="m883.164062 419.125-11.589843-35.667969-19.019531 6.183594zm0 0" fill="#fff"/><path d="m883.164062 419.125-30.339843-22.046875 11.757812-16.179687zm0 0" fill="#fff"/><path d="m839.078125 419.125 30.339844-22.046875-11.757813-16.179687zm0 0" fill="#fff"/><path d="m839.078125 419.125 11.589844-35.667969 19.015625 6.183594zm0 0" fill="#fff"/><path d="m825.457031 377.199219 30.335938 22.035156 11.761719-16.179687zm0 0" fill="#fff"/><path d="m825.457031 377.199219h37.5v19.992187zm0 0" fill="#fff"/><path d="m861.125 351.285156-11.589844 35.660156 19.019532 6.1875zm0 0" fill="#fff"/><path d="m861.125 351.285156 11.585938 35.660156-19.023438 6.1875zm0 0" fill="#fff"/><path d="m896.785156 377.199219h-37.5v19.992187zm0 0" fill="#fff"/><path d="m896.785156 377.199219-30.335937 22.035156-11.753907-16.179687zm0 0" fill="#fff"/><path d="m804.335938 454.214844 3.925781-37.296875-19.890625-2.089844zm0 0" fill="#fff"/><path d="m804.335938 454.214844-18.75-32.476563 17.328124-9.996093zm0 0" fill="#fff"/><path d="m764.070312 436.289062 36.675782-7.796874-4.15625-19.566407zm0 0" fill="#fff"/><path d="m764.070312 436.289062 25.089844-27.875 14.859375 13.386719zm0 0" fill="#fff"/><path d="m768.675781 392.441406 18.75 32.476563 17.316407-10zm0 0" fill="#fff"/><path d="m768.675781 392.441406 34.253907 15.257813-8.128907 18.269531zm0 0" fill="#fff"/><path d="m811.792969 383.277344-25.089844 27.871094 14.859375 13.378906zm0 0" fill="#fff"/><path d="m811.792969 383.277344-3.914063 37.296875-19.890625-2.09375zm0 0" fill="#fff"/><path d="m833.835938 421.453125-34.257813-15.25-8.128906 18.269531zm0 0" fill="#fff"/><path d="m833.835938 421.453125-36.675782 7.792969-4.15625-19.554688zm0 0" fill="#fff"/><path d="m718.058594 454.214844 18.75-32.476563-17.324219-9.996093zm0 0" fill="#fff"/><path d="m718.058594 454.214844-3.921875-37.296875 19.886719-2.089844zm0 0" fill="#fff"/><path d="m688.558594 421.453125 36.675781 7.792969 4.160156-19.554688zm0 0" fill="#fff"/><path d="m688.558594 421.453125 34.261718-15.25 8.128907 18.269531zm0 0" fill="#fff"/><path d="m710.605469 383.277344 3.914062 37.296875 19.890625-2.09375zm0 0" fill="#fff"/><path d="m710.605469 383.277344 25.089843 27.871094-14.863281 13.378906zm0 0" fill="#fff"/><path d="m753.71875 392.441406-34.253906 15.257813 8.132812 18.269531zm0 0" fill="#fff"/><path d="m753.71875 392.441406-18.75 32.476563-17.316406-10zm0 0" fill="#fff"/><path d="m758.324219 436.289062-25.089844-27.875-14.859375 13.386719zm0 0" fill="#fff"/><path d="m758.324219 436.289062-36.675781-7.796874 4.15625-19.566407zm0 0" fill="#fff"/><path d="m639.234375 419.125 30.339844-22.046875-11.761719-16.179687zm0 0" fill="#fff"/><path d="m639.234375 419.125 11.589844-35.667969 19.015625 6.183594zm0 0" fill="#fff"/><path d="m625.609375 377.199219 30.339844 22.035156 11.75-16.179687zm0 0" fill="#fff"/><path d="m625.609375 377.199219h37.5v19.992187zm0 0" fill="#fff"/><path d="m661.269531 351.285156-11.585937 35.660156 19.023437 6.1875zm0 0" fill="#fff"/><path d="m661.269531 351.285156 11.589844 35.660156-19.019531 6.1875zm0 0" fill="#fff"/><path d="m696.941406 377.199219h-37.5v19.992187zm0 0" fill="#fff"/><path d="m696.941406 377.199219-30.339844 22.035156-11.761718-16.179687zm0 0" fill="#fff"/><path d="m683.316406 419.125-11.585937-35.667969-19.019531 6.183594zm0 0" fill="#fff"/><path d="m683.316406 419.125-30.335937-22.046875 11.757812-16.179687zm0 0" fill="#fff"/><path d="m581.492188 354.996094 36.6875-7.796875-4.160157-19.5625zm0 0" fill="#fff"/><path d="m581.492188 354.996094 25.097656-27.863282 14.863281 13.378907zm0 0" fill="#fff"/><path d="m586.109375 311.15625 18.75 32.480469 17.316406-10zm0 0" fill="#fff"/><path d="m586.109375 311.15625 34.25 15.253906-8.128906 18.265625zm0 0" fill="#fff"/><path d="m629.222656 301.992188-25.089844 27.867187 14.859376 13.386719zm0 0" fill="#fff"/><path d="m629.222656 301.992188-3.914062 37.296874-19.886719-2.089843zm0 0" fill="#fff"/><path d="m651.269531 340.167969-34.261719-15.25-8.128906 18.269531zm0 0" fill="#fff"/><path d="m651.269531 340.167969-36.679687 7.796875-4.15625-19.5625zm0 0" fill="#fff"/><path d="m621.769531 372.933594 3.921875-37.296875-19.890625-2.089844zm0 0" fill="#fff"/><path d="m621.769531 372.933594-18.75-32.480469 17.316407-10zm0 0" fill="#fff"/><path d="m554.832031 272.941406 36.679688 7.796875 4.160156-19.566406zm0 0" fill="#fff"/><path d="m554.832031 272.941406 34.265625-15.25 8.128906 18.269532zm0 0" fill="#fff"/><path d="m576.878906 234.765625 3.914063 37.289063 19.890625-2.09375zm0 0" fill="#fff"/><path d="m576.878906 234.765625 25.089844 27.863281-14.859375 13.378906zm0 0" fill="#fff"/><path d="m619.996094 243.929688-34.253906 15.25 8.128906 18.269531zm0 0" fill="#fff"/><path d="m619.996094 243.929688-18.75 32.46875-17.320313-9.992188zm0 0" fill="#fff"/><path d="m624.601562 287.769531-25.089843-27.867187-14.859375 13.382812zm0 0" fill="#fff"/><path d="m624.601562 287.769531-36.679687-7.796875 4.160156-19.5625zm0 0" fill="#fff"/><path d="m584.332031 305.695312 18.75-32.46875-17.324219-10zm0 0" fill="#fff"/><path d="m584.332031 305.695312-3.917969-37.285156 19.886719-2.09375zm0 0" fill="#fff"/><path d="m563.851562 187.125 30.339844 22.046875 11.757813-16.179687zm0 0" fill="#fff"/><path d="m563.851562 187.125h37.5v20.003906zm0 0" fill="#fff"/><path d="m599.519531 161.214844-11.589843 35.667968 19.019531 6.175782zm0 0" fill="#fff"/><path d="m599.519531 161.214844 11.589844 35.667968-19.027344 6.175782zm0 0" fill="#fff"/><path d="m635.179688 187.125h-37.5v20.003906zm0 0" fill="#fff"/><path d="m635.179688 187.125-30.339844 22.046875-11.75-16.179687zm0 0" fill="#fff"/><path d="m621.558594 229.050781-11.589844-35.660156-19.019531 6.179687zm0 0" fill="#fff"/><path d="m621.558594 229.050781-30.339844-22.035156 11.761719-16.179687zm0 0" fill="#fff"/><path d="m577.476562 229.050781 30.335938-22.035156-11.753906-16.179687zm0 0" fill="#fff"/><path d="m577.476562 229.050781 11.585938-35.660156 19.027344 6.179687zm0 0" fill="#fff"/><path d="m606.996094 112.402344 18.75 32.480468 17.320312-10.003906zm0 0" fill="#fff"/><path d="m606.996094 112.402344 34.257812 15.257812-8.132812 18.269532zm0 0" fill="#fff"/><path d="m650.113281 103.238281-25.089843 27.875 14.863281 13.375zm0 0" fill="#fff"/><path d="m650.113281 103.238281-3.914062 37.296875-19.898438-2.089844zm0 0" fill="#fff"/><path d="m672.160156 141.414062-34.261718-15.25-8.128907 18.269532zm0 0" fill="#fff"/><path d="m672.160156 141.414062-36.6875 7.796876-4.15625-19.558594zm0 0" fill="#fff"/><path d="m642.660156 174.175781 3.921875-37.292969-19.890625-2.09375zm0 0" fill="#fff"/><path d="m642.660156 174.175781-18.75-32.476562 17.316406-9.992188zm0 0" fill="#fff"/><path d="m602.386719 156.25 36.683593-7.796875-4.15625-19.5625zm0 0" fill="#fff"/><path d="m602.386719 156.25 25.09375-27.871094 14.859375 13.386719zm0 0" fill="#fff"/><path d="m676.796875 61.683594 3.925781 37.300781 19.886719-2.09375zm0 0" fill="#fff"/><path d="m676.796875 61.683594 25.097656 27.875-14.867187 13.378906zm0 0" fill="#fff"/><path d="m719.921875 70.859375-34.261719 15.25 8.136719 18.269531zm0 0" fill="#fff"/><path d="m719.921875 70.859375-18.75 32.46875-17.316406-10zm0 0" fill="#fff"/><path d="m724.527344 114.699219-25.089844-27.867188-14.867188 13.378907zm0 0" fill="#fff"/><path d="m724.527344 114.699219-36.675782-7.800781 4.15625-19.5625zm0 0" fill="#fff"/><path d="m684.253906 132.625 18.75-32.472656-17.320312-10zm0 0" fill="#fff"/><path d="m684.253906 132.625-3.917968-37.289062 19.890624-2.089844zm0 0" fill="#fff"/><path d="m654.761719 99.867188 36.679687 7.800781 4.15625-19.566407zm0 0" fill="#fff"/><path d="m654.761719 99.867188 34.253906-15.257813 8.136719 18.28125zm0 0" fill="#fff"/></g></svg>