<svg viewBox="0 0 1000 667" xmlns="http://www.w3.org/2000/svg" xmlns:xlink="http://www.w3.org/1999/xlink"><clipPath id="a"><path d="m0 0h1000v666.71875h-1000zm0 0"/></clipPath><g clip-path="url(#a)"><path d="m0 666.667969v-666.667969h1000v666.667969zm0 0" fill="#002b7f" fill-rule="evenodd"/></g><g fill-rule="evenodd"><path d="m0 416.667969h1000v83.332031h-1000zm0 0" fill="#f9e814"/><path d="m222.222656 148.148438-22.890625 70.449218 35.222657 11.441406zm0 0" fill="#fff"/><path d="m222.222656 148.148438 22.886719 70.449218-35.21875 11.441406zm0 0" fill="#fff"/><path d="m292.671875 199.332031h-74.074219v37.039063zm0 0" fill="#fff"/><path d="m292.671875 199.332031-59.929687 43.539063-21.765626-29.964844zm0 0" fill="#fff"/><path d="m151.773438 199.332031 59.929687 43.539063 21.765625-29.964844zm0 0" fill="#fff"/><path d="m151.773438 199.332031h74.074218v37.039063zm0 0" fill="#fff"/><path d="m265.761719 282.148438-22.890625-70.445313-35.222656 11.441406zm0 0" fill="#fff"/><path d="m265.761719 282.148438-59.929688-43.535157 21.773438-29.964843zm0 0" fill="#fff"/><path d="m178.683594 282.148438 59.929687-43.535157-21.773437-29.964843zm0 0" fill="#fff"/><path d="m178.683594 282.148438 22.890625-70.445313 35.21875 11.441406zm0 0" fill="#fff"/><path d="m111.109375 55.554688-17.164063 52.839843 26.414063 8.582031zm0 0" fill="#fff"/><path d="m111.109375 55.554688 17.167969 52.839843-26.417969 8.582031zm0 0" fill="#fff"/><path d="m163.949219 93.945312h-55.554688v27.777344zm0 0" fill="#fff"/><path d="m163.949219 93.945312-44.949219 32.65625-16.324219-22.476562zm0 0" fill="#fff"/><path d="m58.273438 93.945312 44.949218 32.65625 16.324219-22.476562zm0 0" fill="#fff"/><path d="m58.273438 93.945312h55.554687v27.777344zm0 0" fill="#fff"/><path d="m143.765625 156.054688-17.164063-52.832032-26.421874 8.582032zm0 0" fill="#fff"/><path d="m143.765625 156.054688-44.945313-32.65625 16.328126-22.46875zm0 0" fill="#fff"/><path d="m78.457031 156.054688 44.941407-32.65625-16.324219-22.46875zm0 0" fill="#fff"/><path d="m78.457031 156.054688 17.164063-52.832032 26.421875 8.582032zm0 0" fill="#fff"/></g></svg>