<svg viewBox="0 0 1000 667" xmlns="http://www.w3.org/2000/svg" xmlns:xlink="http://www.w3.org/1999/xlink"><clipPath id="a"><path d="m0 0h1000v666.71875h-1000zm0 0"/></clipPath><g clip-path="url(#a)"><path d="m0 666.667969v-666.667969h1000v666.667969zm0 0" fill="#fff" fill-rule="evenodd"/></g><g fill-rule="evenodd"><path d="m483.109375 553.613281c-.199219-.097656-.242187-.136719-.382813-.277343l-.140624-.128907c-.359376-.328125-.957032-.914062-1.757813-1.824219-1.476563-1.679687-3.460937-4.144531-5.210937-6.316406-3.460938-4.316406-6.320313-8.03125-6.863282-8.734375l-.878906-1.144531-.878906 1.144531c-.539063.707031-3.398438 4.421875-6.863282 8.734375-1.746093 2.171875-3.730468 4.636719-5.207031 6.316406-.800781.910157-1.398437 1.496094-1.757812 1.824219l-.140625.128907c-.148438.140624-.191406.179687-.316406.246093l-.144532.007813-2.226562-.214844 1.078125-.835938.996093.632813c-.046874-.113281-.136718-.3125-.289062-.535156-.253906-.363281-.617188-.816407-1.035156-1.269531-.898438-.988282-2.179688-2.171876-3.195313-3.09375-2.273437-2.066407-4.5625-3.96875-4.582031-3.992188l-.023438-.015625 15.957032-11.734375-6.300782-2.941406 3.363282-3.785156 11.566406 4.953124 11.566406-4.953124 3.367188 3.785156-6.300782 2.941406 15.957032 11.734375-.011719.011719c-.03125.027344-2.320313 1.929687-4.59375 3.996094-1.015625.921874-2.296875 2.105468-3.195313 3.09375-.417968.449218-.789062.902343-1.039062 1.265624-.148438.226563-.238281.425782-.273438.523438l.984376-.617188 1.074218.835938-2.183594.207031-.097656.019531zm28.816406-17.800781c-12.117187 0-20.367187-5.4375-20.632812-5.617188 10.519531-4.992187 19.632812-7.523437 27.078125-7.523437h.128906c6.289062.023437 10.179688 1.914063 12.332031 3.5 2.164063 1.589844 3.113281 3.28125 3.207031 3.449219l-.011718.007812c-7.132813 4.113282-14.566406 6.1875-22.101563 6.1875zm-88.082031 0c-7.53125-.003906-14.96875-2.082031-22.101562-6.183594l-.011719-.007812.003906-.011719s.933594-1.777344 3.199219-3.4375c2.15625-1.585937 6.046875-3.476563 12.332031-3.5h.128906c7.449219 0 16.558594 2.53125 27.082031 7.523437-.355468.234376-8.617187 5.617188-20.625 5.617188l.007813.011719zm120.699219-7.238281c-1.214844 0-2.265625-.613281-2.605469-1.527344-.332031-.902344-.226562-2.046875.304688-3.40625.890624-2.253906 2.945312-4.613281 5.550781-4.824219.046875 0 .101562-.007812.15625-.007812l.351562.011718c.558594.015626 1.15625.152344 1.738281.394532 0 .007812.195313 2.339844-.390624 4.683594-.347657 1.367187-.863282 2.414062-1.585938 3.203124-.871094.953126-2.121094 1.484376-3.519531 1.484376zm-153.332031 0c-1.394532 0-2.640626-.527344-3.519532-1.480469-.722656-.78125-1.238281-1.828125-1.582031-3.195312-.5625-2.238282-.40625-4.46875-.386719-4.6875.578125-.246094 1.175782-.378907 1.734375-.390626l.125-.003906c2.789063 0 4.984375 2.425782 5.929688 4.824219.53125 1.359375.632812 2.503906.304687 3.40625-.335937.898437-1.378906 1.515625-2.601562 1.515625zm95.910156-6.660157c12.632812-23.914062 25.757812-26.5 30.816406-26.5 1.703125.007813 2.835938.277344 3.042969.332032l.011719.058594c0 .007812.757812 5.300781-2.9375 11.019531-3.460938 5.367187-11.636719 12.339843-30.925782 15.09375h-.011718zm-38.488282.007813c-19.285156-2.753906-27.464843-9.726563-30.925781-15.089844-3.691406-5.726562-2.933593-11.015625-2.929687-11.070312l.007812-.015625.015625-.003906c.003907 0 1.175781-.316407 2.949219-.328126 5.132812 0 18.257812 2.585938 30.890625 26.492188l.007813.015625-.027344-.007813zm78.03125-3.824219c-3.832031 0-8.148437-.3125-12.804687-.933594l-.003906-.003906.003906-.003906c10.222656-9.902344 19.90625-11.980469 26.234375-11.980469.492188 0 .921875.011719 1.34375.03125 5.03125.234375 8.40625 1.730469 8.632812 1.835938-.011718.113281-.117187 1.074219-.660156 2.246093-.558594 1.203126-1.722656 2.972657-4.097656 4.582032-4.132812 2.808594-10.40625 4.226562-18.640625 4.226562l-.011719.011719zm-117.566406 0c-8.234375 0-14.511718-1.417968-18.644531-4.226562-2.378906-1.609375-3.539063-3.378906-4.097656-4.582032-.519531-1.125-.640625-2.0625-.65625-2.246093.214843-.097657 3.589843-1.597657 8.625-1.835938.429687-.019531.859375-.03125 1.308593-.03125 6.363282 0 16.046876 2.078125 26.269532 11.980469l.011718.007812h-.011718c-4.667969.609376-8.980469.933594-12.816406.933594zm156.792969-1.527344c-4.726563-.078124-8.074219-.832031-9.9375-2.25-.886719-.664062-1.324219-1.554687-1.175781-2.382812.179687-.996094.96875-2.003906 2.421875-3.09375 3.960937-2.96875 9.824219-4.539062 17.441406-4.671875.488281-.011719.984375-.015625 1.472656-.015625.421875 0 .84375.003906 1.257813.015625 9.09375.21875 17.171875 2.269531 17.253906 2.289063l.015625.003906-.015625.019531c-7.433594 7.4375-19.375 10.089844-28.0625 10.089844h-.667969zm-196.691406 0c-8.691407 0-20.625-2.652343-28.070313-10.097656l-.003906-.011718.019531-.003907c.078125-.023437 8.15625-2.074219 17.25-2.289062.542969-.019531 1.082031-.023438 1.636719-.023438 8.148438 0 14.382812 1.578125 18.53125 4.691407 1.457031 1.085937 2.25 2.101562 2.421875 3.09375.152344.832031-.289063 1.71875-1.171875 2.386718-1.867188 1.417969-5.214844 2.164063-9.9375 2.242188l-.667969.023437zm225.523437-14.449218c-1.019531 0-1.78125-.679688-1.996094-1.351563-.273437-.828125-.214843-1.785156.191407-2.929687.398437-1.109375 1.066406-2.152344 1.878906-2.941406.613281-.585938 1.59375-1.285157 2.792969-1.285157.582031.011719 1.039062.113281 1.4375.304688.011718.113281.136718 2.089843-.320313 4.101562-.273437 1.230469-.671875 2.121094-1.230469 2.804688-.679687.808593-1.6875 1.285156-2.753906 1.285156zm-253.679687 0c-1.070313 0-2.070313-.472656-2.75-1.296875-.566407-.683594-.957031-1.574219-1.230469-2.800781-.46875-2.054688-.328125-4.0625-.328125-4.082032v-.019531c.40625-.195313.855469-.296875 1.355469-.308594 1.289062 0 2.269531.699219 2.875 1.285157.820312.789062 1.480468 1.832031 1.878906 2.941406.40625 1.144531.472656 2.105468.199219 2.929687-.222657.65625-.976563 1.347657-2 1.347657zm188.644531-1.464844c-1.214844 0-2.261719-.617188-2.605469-1.535156-.328125-.894532-.226562-2.042969.304688-3.40625.882812-2.246094 2.941406-4.613282 5.550781-4.820313.046875-.003906.101562-.003906.152344-.003906l.351562.003906c.5625.019531 1.160156.152344 1.738282.398438 0 .003906.199218 2.335937-.390626 4.6875-.34375 1.367187-.859374 2.410156-1.582031 3.195312-.878906.953125-2.128906 1.476563-3.519531 1.476563zm-123.609375 0c-1.390625 0-2.644531-.527344-3.523437-1.480469-.722657-.785156-1.238282-1.828125-1.578126-3.199219-.558593-2.242187-.40625-4.472656-.390624-4.683593.585937-.246094 1.179687-.378907 1.734374-.398438h.125c2.789063 0 4.988282 2.421875 5.929688 4.820313.535156 1.363281.640625 2.511718.304688 3.40625-.328126.910156-1.386719 1.523437-2.597657 1.523437zm-31.679687-1.3125c-17.484376-.613281-26.558594-5.582031-31.09375-9.648438-2.550782-2.285156-3.972657-4.550781-4.707032-6.050781-.703125-1.417969-.960937-2.496093-1.011718-2.710937l.023437-.007813c.003906 0 1.65625-.59375 4.320313-.640625l.402343-.007812c5.898438 0 17.90625 2.476562 32.058594 19.058594v.011718zm186.96875-.011719c13.730468-16.085937 25.46875-18.839843 31.242187-19.054687.175781-.003906.347656-.007813.511719-.007813.238281 0 .464844.003907.6875.007813 2.578125.050781 4.207031.597656 4.371094.652344v.003906s-.246094 1.152344-1.011719 2.710937c-.742188 1.496094-2.160157 3.765625-4.710938 6.046875-4.535156 4.0625-13.609375 9.035156-31.097656 9.652344l.011719-.011719zm-167.980469-1.75c-14.070313-2.144531-22.039063-8.183593-26.242188-12.875-4.417969-4.917969-5.734375-9.496093-5.792969-9.710937.023438-.007813 1.746094-.457032 4.332032-.523438.1875-.003906.378906-.003906.582031-.003906.199219 0 .40625 0 .613281.003906 7.074219.15625 19.925782 3.359375 26.507813 23.097656h.011719zm148.992187 0c6.578125-19.746093 19.433594-22.953125 26.507813-23.101562.203125-.007813.410156-.011719.613281-.011719.199219 0 .394531.003906.585938.011719 2.585937.0625 4.304687.507812 4.324218.515625l.003906.003906c-.011718.039062-1.296874 4.699219-5.789062 9.707031-4.226562 4.6875-12.191406 10.734375-26.257812 12.867188zm72.222656-6.761719c-7.832031 0-13.410156-1.554687-13.460937-1.574218l-.015625-.003906.015625-.023438c.050781-.074219 6.125-8.914062 17.824219-11.25 3.066406-.613281 6.269531-.921875 9.519531-.921875.269531 0 .539063 0 .808594.003906 6.730469.101563 11.601562 1.46875 11.652343 1.488281l.015626.046876c-.003907 0 .054687.503906-.042969 1.144531-.097657.644531-.378907 1.660156-1.148438 2.816406-1.351562 2.035156-4.515625 4.851563-11.878906 6.6875-4.1875 1.058594-8.652344 1.59375-13.265625 1.59375zm-293.4375 0c-4.605468 0-9.082031-.53125-13.285156-1.585937-7.371094-1.835937-10.527344-4.652344-11.882812-6.6875-.769532-1.15625-1.046875-2.171875-1.144532-2.816406-.09375-.617188-.042968-1.113281-.03125-1.191407l.03125-.011718c.015626-.007813 4.886719-1.375 11.625-1.476563.265626-.003906.53125-.003906.804688-.003906 3.253906 0 6.457031.308594 9.515625.921875 11.707031 2.335938 17.78125 11.175781 17.839844 11.261719l.003906.011719-.015625.003906c-.066406.011718-5.644531 1.582031-13.464844 1.582031zm260.78125-11.863281c-1.214843 0-2.226562-.605469-2.566406-1.539062-.347656-.914063-.253906-2.046875.265625-3.367188.890625-2.246093 2.945313-4.613281 5.550781-4.824219.046876 0 .101563-.003906.152344-.003906l.351563.011719c.5625.015625 1.160156.148437 1.734375.394531 0 .003906.203125 2.3125-.390625 4.648438-.347657 1.40625-.867188 2.464844-1.578125 3.230468-.863282.941407-2.109375 1.457032-3.519532 1.457032zm-228.121093 0c-1.410157 0-2.664063-.515625-3.527344-1.449219-.710937-.765624-1.226563-1.824218-1.578125-3.234374-.5625-2.234376-.40625-4.445313-.390625-4.648438.585937-.246094 1.183594-.382812 1.738281-.390625l.125-.007813c2.78125 0 4.984375 2.425782 5.929688 4.824219.519531 1.320313.613281 2.453125.269531 3.367188-.34375.933593-1.355469 1.539062-2.566406 1.539062zm-24.558594-3.367187c-.105469-.027344-6.640625-1.707032-13.292969-5.808594-6.164062-3.792969-13.699218-10.496094-14.617187-20.921875v-.003906l.015625-.003907s.570312-.136718 1.417968-.167968c.121094-.007813.246094-.011719.375-.011719 1.839844 0 5.601563.519531 10.160157 3.980469 5.800781 4.429687 11.15625 12.136718 15.945312 22.949218zm277.234375 0c4.785156-10.8125 10.144531-18.527344 15.945312-22.9375 4.101563-3.117188 7.546876-3.882813 9.714844-3.96875.136719-.007813.269532-.011719.394532-.011719.144531 0 .289062.003906.425781.011719.839843.03125 1.410156.167968 1.433593.171875v.019531c-.921874 10.410156-8.453124 17.121094-14.617187 20.90625-6.640625 4.078125-13.167969 5.765625-13.308594 5.804688zm-261.199219-.589844c-.042969-.015625-4.699219-1.882812-10.523437-6.757812-5.421875-4.550782-13.046875-12.734376-18.570313-25.925782.003907 0 1.269531-.675781 3.207031-.796875.113282-.003906.226563-.011719.339844-.011719.164063 0 .335938.007813.515625.011719 2.675781.078125 6.753907 1.1875 11.277344 6.070313 5.199219 5.605468 9.835937 14.824218 13.78125 27.386718l.011719.039063-.03125-.011719zm245.144531-.03125c3.945313-12.550781 8.578126-21.765625 13.777344-27.378906 4.523438-4.875 8.601563-5.988282 11.230469-6.066406.226563-.003907.394531-.007813.5625-.007813.117187 0 .226563 0 .339844.007813 1.855469.117187 3.09375.742187 3.207031.800781-5.523438 13.1875-13.144531 21.375-18.570312 25.921875-5.820313 4.875-10.480469 6.742187-10.523438 6.757812l-.039062.019532.011718-.0625zm41.5625-1.179688c-2.03125 0-3.351562-.453124-3.914062-1.355468-.722656-1.140625.144531-2.605469.433594-3.027344 1.425781-2.121094 4.757812-4.265625 8.976562-4.265625h.1875c.882813.011719 1.804688.136719 2.664063.347656v.011719c.003906.027344.273437 2.066406-.613281 4.132812-.542969 1.242188-2.378907 4.15625-7.734376 4.15625zm-328.253906 0c-5.355468 0-7.1875-2.90625-7.730468-4.15625-.882813-2.054687-.613282-4.097656-.613282-4.117187l.003906-.019531c.863282-.21875 1.78125-.34375 2.664063-.355469h.179687c4.226563 0 7.558594 2.144531 8.984376 4.273437.28125.414063 1.152343 1.878907.433593 3.019532-.578125.902344-1.886719 1.355468-3.921875 1.355468zm340.125-14.96875c-3.167968 0-5.246094-.199218-5.265625-.199218l-.007812-.003906c.007812-.027344.121093-3.929688 3.566406-7.6875 3.25-3.546876 10.214844-7.859376 24.976563-8.285157l.011718-.007812-.003906.023437c0 .015625-.441406 3.390625-1.996094 6.925782-1.429687 3.25-4.132812 7.308593-8.90625 8.179687-4.8125.855469-9.375 1.039063-12.375 1.039063zm-351.988281 0c-2.992187 0-7.570313-.183593-12.382813-1.054687-4.769531-.871094-7.476562-4.929687-8.902343-8.171875-1.550781-3.542969-1.992188-6.917969-1.996094-6.949219h.011719c14.761718.433594 21.726562 4.746094 24.976562 8.285157 3.355469 3.65625 3.554688 7.445312 3.566406 7.691406h-.011718c-.023438 0-2.097656.199218-5.269532.199218zm336.609375-15.351562c-.011719-.082031-.824219-8.449219-.824219-16.765625 0-8.304687 8.851563-11.632813 9.226563-11.765625l.015625-.007812c-.027344.167968-.433594 3.039062-.835938 6.398437-.3125 2.613281-.839843 7.328125-.839843 9.582031 0 2.316406-1.617188 5.152344-3.363282 7.863282-1.664062 2.589843-3.351562 4.671874-3.371094 4.695312l-.003906.015625.011719-.011719zm-321.246094 0c-.015625-.027344-1.703125-2.113281-3.371094-4.699219-1.746093-2.71875-3.363281-5.550781-3.363281-7.871093 0-2.242188-.523437-6.960938-.839843-9.578126-.394532-3.3125-.796876-6.15625-.835938-6.394531l.015625.003907c.375.136718 9.234375 3.457031 9.234375 11.769531 0 8.316406-.824219 16.679687-.828125 16.761719v.011718h-.011719zm332.738282-.792969c-.1875 0-.34375-.03125-.484376-.097656-.167968-.082031-.335937-.28125-.429687-.5-.21875-.523437-.167969-1.101563-.003906-1.980469.285156-1.542968 1.003906-3.574218 2.25-6.386718 1.988281-4.46875 4.542969-9.070313 4.792969-9.519532l.027343-.027344c.03125-.042968 3.539063-4.457031 7.996094-8.859374 2.585937-2.550782 5.011719-4.605469 7.214844-6.125 2.785156-1.921876 4.9375-2.828126 6.78125-2.859376h.011719c.605468 0 1.089843.074219 1.53125.21875l.015624.003907v.011719s.40625 3.589843.089844 7.945312c-.417968 5.859375-1.867187 10.238281-4.304687 13.035156-2.683594 3.058594-7.265625 6.53125-12.914063 9.761719-5.082031 2.921875-9.683594 4.921875-12.304687 5.355469-.085938 0-.175781.011718-.277344.011718zm-344.214844 0c-.089844 0-.183594-.003906-.273438-.023437-2.621094-.433594-7.222656-2.433594-12.308594-5.355469-5.644531-3.230469-10.230468-6.703125-12.910156-9.761719-2.441406-2.796875-3.890625-7.175781-4.3125-13.035156-.292968-4.148438.058594-7.609375.097656-7.957031.460938-.152344.945313-.222657 1.464844-.222657 1.957032.03125 4.046875.910157 6.875 2.859376 2.199219 1.511718 4.625 3.582031 7.210938 6.125 4.457031 4.402343 7.960937 8.816406 8 8.859374l.03125.042969c.292968.527344 2.824218 5.078125 4.785156 9.503907 1.25 2.816406 1.964844 4.847656 2.253906 6.386718.160156.878906.210938 1.460938-.007812 1.980469-.089844.21875-.257813.417969-.425782.5-.160156.066406-.3125.097656-.488281.097656zm0 0" fill="#2f4712"/><path d="m776.476562 106.082031-2.617187 1.046875-1.023437.40625-3.167969-.171875-2.972657 1.425781-5.269531 3.597657-.230469.167969-1.960937.507812-1.824219-.785156-1.035156.472656-.359375 2.132812-.988281 1.535157-1.207032.851562-4.203124.425781-3.546876 1.832032-4.609374-1.238282-2.144532.839844-4.558594 4.101563-2.324218 1.101562-.8125-.042969-3.089844-.164062-1.300781.429688-1.949219 1.882812-3.675781.28125-1.152344.796875-1.792969 3.625-1.949218 2.007813-1.117188.234374-1.207031-.441406-.910157.160156-.414062 2.316407-.878906.96875-2.460938.851562-1.976562 1.640625-1.722656.890625-2.316407-.0625h-.535156l-2.304687 1.277344-4.339844.378906-1.804688 1.71875-.398437.371094-.839844.507813-1.378906.820312-.335938.207031-1.664062-.300781-1.941407.769531-.789062-1.207031-1.347656.808594-1.777344.074218-2.222656-.988281-1.6875-.753906-1.238282.179687-.433593 2.160157-.042969.226562-1.296875 1.730469-2.425781 1.472656-.332032.425782-2.761718 3.566406-5.246094 5.515625-4.4375 2.253906-4.601562 1.398437-3.214844 2.648438-8.441406 4.183594-13.332032 6.628906-2.722656.871094-3.914062.625-6.976563 2.574218-6.492187 1.957032-1.222657.371094-8.671875 2.625-4.042968-.425782-2.386719.871094-6.230469-.695312-4.328125.085937-2.746094.570313-5.148437 2.472656-8.695313 4.179687-2.875 2.628907-4.476562 2.335937-5.234375 1.65625.007812-2.199219-.03125-.09375-1.816406.574219-1.316406.414063-4.246094.65625h-2.363281l-1.464844-.429688-.230469.078125-8.683594 2.863281-9.691406.933594-4.851562 1.554688-3.617188-.058594-2.269531.679687-4.4375.535157-1.582031-.421876-.359375-.097656-13.058594.570313-5.96875-.671875-2.847656.644531-4.773438-1.605469-6.964843-.808594-1.628907-.488281-3.65625-1.085937-1.660156.953125-1.238281.132812-2.960938-1.074219-1.070312-.027343-2.445313.882812-1.410156-.355469-1.308594-1.046874-3.066406-.457032-1.871094-1.570312-10.445312 1.386718-2.832031-.835937-9.503907-2.769531-1.511719.078125-1.882812 1.410156-2.832031 1.035156-2.460938.636719-3.347656.117188-3.882813-1.019532-4.007812-1.941406-1.484375-.351562-3.300781.328124-1.011719.09375-6.074219-3.253906-7.824218-4.894531-5.304688-2.550781-1.996094-.324219-.265625.949219.984375 3.113281.335938 3.082031-.101563 2.847656-.054687 1.765626.5 1.582031 1.914062 2.128906.796875 2.128906.585938 5.871094-.003907 5.957031-.933593 9.5-.3125 1.449219-1.113281 4.917969-1.015626 4.527344-3.9375 12.03125-1.085937 1.492187-2.660156 1.8125-6.015625 4.101563-4.429688 2.554687-1.40625.582031-3.605468.269532-2.238282-.113282-2.789062-1.511718-2.746094-.707032-3.589844-2.582031-3.992187-.824219-4.378907-2.535156-1.140624-1.367188-2.386719-.226562-3.304688-.992188v-.003906l-1.214843-.367187-.835938-.242188-4.21875-.113281-3.933594-1.816406-2.070312-.5-2.832032-.140625-2.960937 1.371093v-.003906l-1.5.699219-1.894531-.753906-1.375.085937-1.554688 2.347656-.234375.371094-1.070312.5625-1.332031-.019531-1.042969-.027344-1.128907.492188-1.519531.664062-1.34375.585938-.65625.285156-.011719-.015625-.402343.082031-.714844.125-.890625.171875-1.566406-.917968-.832032-.492188-1.398437-.28125-.75.542969-.152344 2.554687-.683593 1.535156-2.179688 1.925782-2.214844 1.949218-1.539062 2.273438-4.085938 9.324219-2.5625 3.761719-.789062.871093-2.679688 2.953125-2.371094 1.84375-5.46875 4.238282-5.175781 1.9375-4.460937.910156-2.167969.003906-4.109375-.546875-3.691406-1.128906-4.054688-2.539063-4.445312-3.574218-6.441406-6.359376-.910157-.546874-.191406-.125-2.027344-1.296876-1.5.039063-.59375.96875-.320312 1.40625-.269531 1.242187-.738282 7.074219.054688.414063.382812 2.90625 4.894532 6.835937 1.507812 3.628907.246094.414062 1.007812 1.695312.769532 1.292969.078124.132813 1.667969 4.984375-1.167969 2.816406.589844 1.886719-1.488281 1.148437-.269531 1.628907 4.386718 5.507812.960938 2.425781-1.066406 3.363281-1.710938 1.859376-.476562.503906.238281 1.421875 2.023437 1.816406 3.429688 3.058594 1.835938 4.539062 1.386718 1.222657 1.621094-.347657.894531.6875 1.367188-.027343 1.339843 1.34375.871094.417968 1.375.691406 1.085938 1.410157.238281 4.347656 2.023437 5.394531.035157 2.929688.011719.417968 1.257812 2.164063.394531 1.710937-.671875 4.519532 1.605469 1.449218 1.742187-.351562 1.121094.175781 1.808594 1.503907 2.191406 3.335937 2.136719-.3125 1.355469.648437 6.5625 5.933594 1.484375.746094.082031.050781 1.074219.535157 1.328125 1.339843 2.0625-1.367187.226562-.023438 2.242188-.199218.988281.660156 1.890625 1.28125 2.480469-.03125 5.382812 1.648437 2.355469.601563 4.734375 2.941406 2.011719 1.25 1.195312.964844 1.578125 1.292968 3.164063 1.359376 2.714844.644531 1.460937.355469 1.109375.421874.027344-.070312.015625.003906-.027344.070313 5.867187 2.253906 3.179688.738281 2.949219 1.082032 2.136719.78125 1.574218.027343 2.222656-1.871093 2.148438-.125 1.789062.445312 1.742188-.285156 2.761719-1.707032.542969-.796874 1.953124-.933594 6.609376-.816406 1.925781.621093 4.957031-2.152343 3.320312.921874 2.941407-1.042968 6.417969 1.429687 1.710937 1.195313 1.902344 2.1875.234375.011718 2.125.039063-.886719 1.480469 2.800781 2.941406 2.535156 3.824219.167969.507812 1.847657 5.40625 1.363281 1.914063.957031 2.667968.046875 1.742188-1.484375 1.140625-.246094.644531-.085937.238282.304687.726562.558594-.300781 1.074219-.59375 1.289062-.199219 2.296875.242188 1.519532.160156 2.390624-1.1875 1.585938-.789063 2.550781 1.097657 2.796875-.035157 1.179688.527344 3.324218 1.507813 1.699219.15625.628907-.410157.402343-.949219-.207031-1.105468-1.273438-1.472656-2.8125-3.265626-1.148437-1.675781-.878906-2.429687-.273438-3.105469-.195312-2.09375.355469-2.75.753906-.980469.550781-2.1875h.011719l.140625-.574218 1.5625-2.074219 4.140625-2.660157 4.441406-3.980468 3.515625-2.316406 3.625-1.570313.09375-.4375.40625.164063 9.210937-3.132813.152344-.019531 4.101563-.710938 27.691406 1.945313 1.023437-.308594.007813-.003906.921875-2.589844.496094-.480469.328125-.316406 3.042969-1.339844 1.429687-.199218 3.949219.976562 1.613281.394531 2.597656-1.449219 1.832031.027344 3.796876-2.070312 2.351562.058594.886719-.359376 4.570312-3.28125 4.398438-1.257812 1.144531-.613281.410156-.21875 4.507813-2.378907 2.863281-2.203124 2.472656-1.3125 2.707032-.703126 7.09375-.496093 1.425781-2.378907 3.046875-.40625 1.839844-2.078124 2.105468-.855469 1.511719-2.175781 1.265625-1.824219 1.769531-1.023438 5.664063-.355469 6.714844.832032.890624-.535156 1.519532-5.421876 1.589844-1.015624 4.273437-6.234376.019531-2.273437.003906-1.898437.699219-2.703126-.476562-4.875.570312-4.941406 2.65625-6.277344 2.347657-2.535156 3.777343-2.554687 1.921875-.835938 2.71875-.453125v-.011718l.402344-.066407.691406-.121093 9.371094-.128907c.128906-.097656 3.40625-.042969 3.40625-.042969l3.125-.042968 7.90625 1.40625.558594.097656 2.675781.867188 3.082031 2.390624 3.257813 3.191407.613281.589843 2.117188.890626.632812.28125 1.75-.28125 2.484375-1.289063 1.875-1.585937 2.558594-1.398438.0625-.089844 1.4375-2.164062.042969-.042969.035156.007813v-.011719l-.023438-.003907.566406-.867187 4.941407-1.921875 5.808593-.335938.65625-.355468.363282-.195313 1.539062-1.804687 1.4375-.011719 3.480469 1.257813 2.449219-.484376 1.945312.777344 1.507813-.179687 2.855469-.335938 3.058593 2.152344 1.78125.230469 6.285157 3.679687.328124.046875.167969.03125.363281.0625.742188-.222656 1.113281-.320312.144531-.042969.136719.195312.714844 1.007813.984375.136718 1.160156-1.546874-.460937-.699219-.179688-.261719-2.238281-.453125-2.019531-3.449219 1.921875-2.066406-3.011719-3.691406-.507813-.617188-.167968-.257812-1.039063-1.585938-5.273437-8.035156-6.867188-5.484375v.007813l-2.410156-1.925782-.015625-.011718-.84375-.664063-3.664063-3.730469-2.621093-3.480468-.34375-.746094-.542969-1.179688-1.566406-3.421875-2.738282-2.105469-2.226562-2.4375-.113281-.140624-4.59375-6.25-.761719-1.050782-1.085938-.625-2.292968-.015625-.21875-.21875-.128906-.132812.082031-.082031 1.101562-1.097657 1.226563-.308593.527344-1.210938-2.339844-6.777344-.019532-.242187-.171874-2.164063 1.90625-9.835937.242187-1.199219 3.257813-6.625 2.015624-1.648438 2.199219-4.324218 1.886719-2.765625 1.800781-1.757813.316407-.183594 3.257812-1.976562 2.742188-.382812 2.609374-.371094 4.554688 1.40625 4.332031-.082032.847657-.09375 1.96875-.222656 3.230468-1.019531 1.527344-.941406.789062-1.214844 1.65625-5.542969.53125-1.761718 1.019532-1.914063 5.894531-6.789063 4.457031-4.125 10.019532-7.34375 4.90625-2.933593 2.507812-1.5 22.355469-9.9375 5.816406-5.894531 3.027344-3.058594 5.355469-3.597656 6.265624-2.5625 5.394532-4.269532 1.175781-1.484375 1.488281-4.777343 1.238282-.300782 1.117187-2.417968.3125-.683594 4.40625-3.105469.492187-.246094 17.101563-8.566406 2.484375.339844 1.328125-1.992188 4.976563-.835937.917968-.152344 1.226563-.609375 1.039062-1.78125v-.351563l.144531-4.75 1.0625-1.277343.578126-3.132813.542968-.722656.570313-.746094 1.410156-.996094-.242187-.589843zm0 0" fill="#ffad2d"/></g></svg>