<svg viewBox="0 0 1000 667" xmlns="http://www.w3.org/2000/svg" xmlns:xlink="http://www.w3.org/1999/xlink"><clipPath id="a"><path d="m0 441h1000v225.71875h-1000zm0 0"/></clipPath><g clip-path="url(#a)"><path d="m0 666.667969h1000v-225.558594h-1000zm0 0" fill-rule="evenodd"/></g><path d="m0 219.628906h1000v-219.628906h-1000zm0 0" fill="#ce1126" fill-rule="evenodd"/><path d="m497.90625 434.34375c22.183594 0 43.40625-1.75 55.851562-5.257812 5.265626-.953126 5.265626-3.664063 5.265626-7.171876 5.269531-1.753906 2.554687-7.96875 6.222656-7.96875-3.667969.960938-4.464844-6.214843-8.933594-5.257812 0-6.21875-6.222656-7.011719-11.488281-5.261719-10.535157 3.507813-29.203125 4.304688-46.914063 4.304688-17.714844-.796875-36.226562-.796875-46.917968-4.304688-5.261719-1.75-11.484376-.957031-11.484376 5.261719-4.46875-.957031-5.265624 6.21875-8.9375 5.257812 3.671876 0 .957032 6.214844 6.222657 7.96875 0 3.507813 0 6.21875 5.425781 7.171876 12.285156 3.507812 33.511719 5.257812 55.6875 5.257812zm0 0" style="fill-rule:evenodd;fill:#fff;stroke-width:2.546667;stroke-linecap:round;stroke-linejoin:round;stroke:#c09300;stroke-miterlimit:3.239307"/><path d="m498.804688 332.78125 76.175781 70.640625-5.425781-128.296875c-.796876-19.445312-17.710938-14.984375-29.996094-7.96875-12.449219 7.96875-26.648438 7.96875-41.648438 2.707031-15 5.261719-29.203125 5.261719-41.648437-2.707031-12.285157-7.015625-29.199219-11.476562-30 7.96875l-5.425781 128.296875zm0 0" style="fill-rule:evenodd;fill:#fff;stroke-width:1.361111;stroke-linecap:round;stroke-linejoin:round;stroke:#c09300;stroke-miterlimit:3.239307"/><path d="m520.085938 292.019531 2.558593 61.839844 7.175781 7.015625-2.710937-68.058594c-1.753906 0-6.222656 0-7.023437-.796875zm0 0" fill="#c09300" fill-rule="evenodd"/><path d="m501.417969 346.84375 10.691406 48.617188-3.511719 3.503906-3.667968-2.710938-6.066407-43.351562 2.554688 43.351562-3.511719 4.460938-3.511719-4.460938 2.554688-43.351562-6.0625 43.351562-3.671875 2.710938-3.507813-3.503906 10.6875-48.617188zm0 0" fill="#c09300" fill-rule="evenodd" stroke="#c09300" stroke-linecap="square" stroke-width="1.15"/><path d="m435.035156 270.660156-5.265625 124.796875-8.933593 7.964844 5.425781-128.296875c2.550781-1.753906 7.019531-4.464844 8.773437-4.464844zm0 0" fill="#c09300" fill-rule="evenodd"/><path d="m445.726562 279.585938-4.46875 104.394531-8.933593 9.132812 5.425781-120.539062c1.757812 1.753906 7.023438 6.054687 7.976562 7.011719zm0 0" fill="#c09300" fill-rule="evenodd"/><path d="m455.460938 287.554688-3.507813 87.070312-7.179687 7.007812 4.46875-99.335937c1.75 1.753906 5.261718 4.300781 6.21875 5.257813zm0 0" fill="#c09300" fill-rule="evenodd"/><path d="m465.992188 292.019531-3.507813 74.203125-7.023437 5.691406 3.511718-82.605468c1.753906.796875 5.265625 2.710937 7.019532 2.710937zm0 0" fill="#c09300" fill-rule="evenodd"/><path d="m475.730469 292.019531-2.558594 61.839844-7.175781 7.015625 2.710937-68.058594c1.753907 0 6.222657 0 7.023438-.796875zm0 0" fill="#c09300" fill-rule="evenodd"/><path d="m560.773438 270.660156 5.265624 124.796875 8.9375 7.964844-5.425781-128.296875c-2.550781-1.753906-7.019531-4.464844-8.777343-4.464844zm0 0" fill="#c09300" fill-rule="evenodd"/><path d="m550.089844 279.585938 4.46875 104.394531 8.933594 9.132812-5.425782-120.539062c-1.753906 1.753906-7.023437 6.054687-7.976562 7.011719zm0 0" fill="#c09300" fill-rule="evenodd"/><path d="m540.355469 287.554688 3.511719 87.070312 7.179687 7.007812-4.46875-99.335937c-1.753906 1.753906-5.261719 4.300781-6.222656 5.257813zm0 0" fill="#c09300" fill-rule="evenodd"/><path d="m529.820312 292.019531 3.511719 74.203125 7.019531 5.691406-3.507812-82.605468c-1.757812.796875-5.265625 2.710937-7.023438 2.710937zm0 0" fill="#c09300" fill-rule="evenodd"/><g stroke="#c09300"><path d="m473.972656 325.488281-21.222656 75.230469 29.203125 4.460938 12.445313-56.582032zm0 0" fill="#fff" fill-rule="evenodd" stroke-linecap="round" stroke-linejoin="round" stroke-width="1.273333"/><path d="m521.84375 325.488281 21.222656 75.230469-29.199218 4.460938-12.449219-56.582032zm0 0" fill="#fff" fill-rule="evenodd" stroke-linecap="round" stroke-linejoin="round" stroke-width="1.273333"/><path d="m528.859375 351.148438-2.554687 6.214843-13.796876-13.164062" fill="none" stroke-linecap="round" stroke-linejoin="round" stroke-width="1.361111"/><path d="m504.25 366.0625 9.695312 14.710938" fill="none" stroke-linecap="round" stroke-linejoin="round" stroke-width="1.361111"/><path d="m510.921875 395.457031 3.101563-14.664062 2.710937-14.914063 6.496094 8.789063 2.847656-10.132813 9.09375 9.316406-4.625 16.945313-6.378906-10.484375-3.511719 10.683594-6.550781-10.183594" fill="none" stroke-linecap="round" stroke-linejoin="round" stroke-width="1.361111"/><path d="m466.949219 351.148438 2.554687 6.214843 13.796875-13.164062" fill="none" stroke-linecap="round" stroke-linejoin="round" stroke-width="1.361111"/><path d="m476.511719 335.574219 2.886719 27.050781 8.773437-11.476562" fill="none" stroke-linecap="round" stroke-linejoin="round" stroke-width="1.361111"/><path d="m484.664062 355.613281 4.792969 16.527344" fill="none" stroke-linecap="round" stroke-linejoin="round" stroke-width="1.361111"/><path d="m491.335938 366.0625-9.699219 14.710938" fill="none" stroke-linecap="round" stroke-linejoin="round" stroke-width="1.361111"/><path d="m484.664062 395.457031-3.105468-14.664062-2.707032-14.914063-6.496093 8.789063-2.851563-10.132813-9.089844 9.316406 4.625 16.945313 6.378907-10.484375 3.511719 10.683594 6.550781-10.183594" fill="none" stroke-linecap="round" stroke-linejoin="round" stroke-width="1.361111"/><path d="m458.972656 398.964844 5.894532-8.269532 3.839843 12.726563 5.265625-8.921875 3.511719 10.679688" fill="none" stroke-linecap="round" stroke-linejoin="round" stroke-width="1.361111"/><path d="m537.082031 398.964844-5.894531-8.269532-3.839844 12.726563-5.265625-8.921875-3.515625 10.679688" fill="none" stroke-linecap="round" stroke-linejoin="round" stroke-width="1.361111"/><path d="m467.75 400.714844c7.179688.957031 15.15625 1.753906 21.382812.957031 3.507813 0 6.0625 6.058594-.960937 7.015625-6.21875.792969-15.953125 0-21.21875-.957031-4.46875-.796875-14.203125-2.550781-20.429687-4.308594-6.21875-2.707031-1.75-7.964844 1.757812-7.167969 5.425781 1.753906 12.445312 3.507813 19.46875 4.460938zm0 0" fill="#fff" fill-rule="evenodd" stroke-linecap="round" stroke-linejoin="round" stroke-width="1.361111"/><path d="m528.066406 400.714844c-7.183594.957031-15.15625 1.753906-21.222656.957031-3.671875 0-6.222656 6.058594.796875 7.015625 6.226563.792969 15.957031 0 21.21875-.957031 4.472656-.796875 14.207031-2.550781 20.425781-4.308594 6.226563-2.707031 1.757813-7.964844-1.753906-7.167969-5.425781 1.753906-12.445312 3.507813-19.464844 4.460938zm0 0" fill="#fff" fill-rule="evenodd" stroke-linecap="round" stroke-linejoin="round" stroke-width="1.361111"/><path d="m445.726562 397.210938c-5.425781-.957032-7.976562 5.257812-6.222656 8.765624.800782-1.753906 4.46875-1.753906 5.269532-3.507812.953124-2.707031-.800782-2.707031.953124-5.257812zm0 0" fill="#fff" fill-rule="evenodd" stroke-linecap="round" stroke-linejoin="round" stroke-width="1.361111"/><path d="m466.949219 413.511719c0-3.503907 3.511719-3.074219 3.511719-6.578125 0-1.753906-.957032-4.464844-2.710938-4.464844-1.757812 0-3.511719 1.753906-3.511719 3.503906-.800781 3.507813 2.710938 4.035156 2.710938 7.539063zm0 0" fill="#fff" fill-rule="evenodd" stroke-linecap="round" stroke-linejoin="round" stroke-width="1.361111"/><path d="m492.210938 403.421875c5.261718 0 4.738281 7.015625 2.183593 10.523437 0-2.550781-4.464843-3.507812-4.464843-5.257812 0-2.714844 4.03125-2.714844 2.28125-5.265625zm0 0" fill="#fff" fill-rule="evenodd" stroke-linecap="round" stroke-linejoin="round" stroke-width="1.361111"/><path d="m550.085938 397.210938c5.425781-.957032 7.980468 5.257812 6.226562 8.765624-.800781-1.753906-4.46875-1.753906-5.265625-3.507812-.960937-2.707031.796875-2.707031-.960937-5.257812zm0 0" fill="#fff" fill-rule="evenodd" stroke-linecap="round" stroke-linejoin="round" stroke-width="1.361111"/><path d="m528.863281 413.511719c0-3.503907-3.507812-3.074219-3.507812-6.578125 0-1.753906.957031-4.464844 2.710937-4.464844s3.511719 1.753906 3.511719 3.503906c.796875 3.507813-2.714844 4.035156-2.714844 7.539063zm0 0" fill="#fff" fill-rule="evenodd" stroke-linecap="round" stroke-linejoin="round" stroke-width="1.361111"/><path d="m503.605469 403.421875c-5.261719 0-4.742188 7.015625-2.1875 10.523437 0-2.550781 4.464843-3.507812 4.464843-5.257812 0-2.714844-4.03125-2.714844-2.277343-5.265625zm0 0" fill="#fff" fill-rule="evenodd" stroke-linecap="round" stroke-linejoin="round" stroke-width="1.361111"/><path d="m447.484375 398.964844c1.757813 0 4.46875.796875 5.265625 1.75zm0 0" fill="none" stroke-linecap="round" stroke-linejoin="round" stroke-width=".955556"/><path d="m456.257812 401.671875c.960938 0 4.46875.796875 6.226563 1.75zm0 0" fill="none" stroke-linecap="round" stroke-linejoin="round" stroke-width=".955556"/><path d="m488.171875 405.179688c-1.753906 0-5.265625 0-6.21875.792968zm0 0" fill="none" stroke-linecap="round" stroke-linejoin="round" stroke-width=".955556"/><path d="m478.4375 405.179688c-.953125-.957032-4.464844-.957032-6.21875 0zm0 0" fill="none" stroke-linecap="round" stroke-linejoin="round" stroke-width=".955556"/><path d="m548.332031 398.964844c-1.753906 0-4.308593.796875-5.265625 1.75zm0 0" fill="#fff" fill-rule="evenodd" stroke-linecap="round" stroke-linejoin="round" stroke-width=".955556"/><path d="m539.554688 401.671875c-.953126 0-4.464844.796875-6.222657 1.75zm0 0" fill="#fff" fill-rule="evenodd" stroke-linecap="round" stroke-linejoin="round" stroke-width=".955556"/><path d="m507.640625 405.179688c1.757813 0 5.269531 0 6.226563.792968zm0 0" fill="#fff" fill-rule="evenodd" stroke-linecap="round" stroke-linejoin="round" stroke-width=".955556"/><path d="m517.375 405.179688c.957031-.957032 4.46875-.957032 6.222656 0zm0 0" fill="#fff" fill-rule="evenodd" stroke-linecap="round" stroke-linejoin="round" stroke-width=".955556"/><path d="m519.476562 335.574219-2.886718 27.050781-8.777344-11.476562" fill="none" stroke-linecap="round" stroke-linejoin="round" stroke-width="1.361111"/><path d="m497.886719 360.363281c36.304687-27.894531 33.191406-68.757812 33.191406-68.757812-.957031.191406-1.867187.285156-2.824219.285156-7.617187 0-25.78125-4.351563-30.019531-9.878906-4.539063 5.003906-23.101563 9.878906-30.667969 9.878906-.960937 0-1.917968-.09375-2.828125-.285156 0 0-3.160156 40.863281 33.148438 68.757812zm0 0" fill="#fff" fill-rule="evenodd" stroke-width="1.232222"/></g><path d="m528.1875 294.597656c-.3125.019532-.625.03125-.941406.03125-6.902344 0-22.933594-3.539062-29.113282-8.84375-6.472656 4.902344-22.769531 8.84375-29.558593 8.84375-.320313 0-.636719-.039062-.945313-.097656-.015625 1.546875.0625 3.148438.160156 4.605469.359376 5.445312 1.316407 10.910156 2.765626 16.167969 4.570312 16.550781 13.921874 30.613281 27.332031 41.28125 13.421875-10.675782 22.78125-24.753907 27.363281-41.316407 1.453125-5.257812 2.410156-10.722656 2.773438-16.164062.097656-1.429688.175781-2.992188.164062-4.507813zm0 0" fill="#fff" fill-rule="evenodd"/><path d="m510.804688 355.613281-4.796876 16.527344" fill="none" stroke="#c09300" stroke-linecap="round" stroke-linejoin="round" stroke-width="1.361111"/><path d="m446.003906 412.972656c-.59375-.113281-.902344-.582031-.753906-1.140625.179688-.675781.722656-1.0625 1.238281-.878906.324219.113281.921875.714844.921875.929687.003906.25-.308594.835938-.445312.839844-.058594 0-.152344.050782-.203125.113282-.109375.128906-.460938.195312-.757813.136718zm0 0" fill="#c09300" fill-rule="evenodd"/><path d="m507.097656 417.332031c-.222656-.082031-.574218-.574219-.574218-.804687.003906-.429688.640624-1.132813 1.035156-1.136719.195312 0 .726562.277344.925781.484375.363281.375.285156.992188-.171875 1.34375-.222656.171875-.886719.234375-1.214844.113281zm0 0" fill="#c09300" fill-rule="evenodd"/><path d="m507.5 420.085938c-.464844-.15625-.636719-.386719-.675781-.902344-.039063-.539063.015625-.625.585937-.933594l.40625-.222656.382813.171875c.535156.238281.773437.496093.792969.851562.019531.386719-.269532.78125-.714844.980469-.390625.175781-.414063.179688-.777344.054688zm0 0" fill="#c09300" fill-rule="evenodd"/><path d="m456.527344 421.570312c-.25-.082031-.871094-.234374-1.378906-.328124-1.167969-.226563-2.980469-.632813-3.472657-.785157-.207031-.0625-.582031-.160156-.835937-.214843-.464844-.105469-.703125-.171876-1.464844-.429688-.230469-.078125-.792969-.234375-1.253906-.347656-.460938-.109375-1-.269532-1.195313-.351563-.199219-.082031-.429687-.148437-.519531-.148437-.085938.003906-.285156-.0625-.4375-.144532-.152344-.082031-.515625-.171874-.8125-.199218-.617188-.054688-1.074219-.269532-1.335938-.628906-.222656-.304688-.226562-.539063-.023437-.960938.085937-.175781.160156-.382812.160156-.460938 0-.078124.074219-.203124.167969-.28125.089844-.074218.164062-.171874.164062-.214843-.003906-.09375.386719-.65625.613282-.890625.300781-.3125.921875-.613282 1.277344-.613282.203124-.003906.386718-.058593.476562-.144531.097656-.097656.324219-.15625.726562-.1875l.582032-.046875.226562-.402344c.125-.222656.226563-.511718.230469-.644531 0-.128906.058594-.347656.128906-.480469.070313-.132812.179688-.457031.242188-.722656.230469-1 .398437-1.558594.5-1.65625.144531-.140625.128906-.203125-.121094-.511718-.136719-.167969-.292969-.269532-.40625-.269532-.28125.003906-.734375.167969-.878906.316406-.285157.300782-.664063.5-.953125.5-.394532.003907-.90625-.277343-1.09375-.609374-.148438-.257813-.148438-.273438.023437-.625.113281-.226563.261719-.390626.40625-.449219.347657-.128907 1.230469-.0625 1.433594.109375.144531.125.25.136718.714844.082031.296875-.03125.5625-.089844.582031-.125.023438-.035156.207031-.089844.410156-.121094s.390625-.109375.414063-.167969c.023437-.0625.171875-.140624.335937-.167968.160156-.03125.335938-.109375.386719-.167969.050781-.0625.203125-.113281.332031-.117187.183594 0 .269532.054687.382813.253906.121093.226562.128906.316406.039062.78125-.054687.285156-.167969.65625-.253906.820312-.082031.164063-.148437.4375-.148437.609375.003906.195313-.058594.378907-.160157.496094-.089843.101563-.164062.269531-.164062.367187 0 .101563-.054688.242188-.125.308594-.070313.070313-.167969.351563-.214844.628906-.046875.277344-.132813.574219-.1875.664063s-.125.328125-.152344.535156c-.027343.207031-.105469.417969-.171875.46875-.066406.054688-.117187.214844-.117187.351563 0 .140625-.066407.386718-.148438.546875-.085937.164062-.175781.488281-.207031.71875-.027344.234375-.101562.5-.160156.589843-.054688.085938-.128906.339844-.160156.558594-.03125.222656-.109376.484375-.175782.585938-.109375.164062-.105468.203125.046875.40625.25.328125.972657.5625 1.710938.554687.574219-.003906.605469-.019531.8125-.269531.125-.15625.234375-.421875.269531-.644531.027344-.207031.105469-.480469.171875-.601563.0625-.121094.113281-.425781.109375-.675781-.003906-.421875-.023438-.46875-.300781-.683594-.273438-.214843-.289063-.246093-.199219-.445312.09375-.199219.472656-.375.828125-.378907.074219 0 .226563-.070312.332031-.152343.109375-.082031.28125-.175781.378906-.207031.097657-.03125.324219-.183594.496094-.339844.363282-.324219.589844-.332032.773438-.027344.117187.195312.113281.253906-.011719.601562-.078125.210938-.136719.546876-.136719.742188.003906.191406-.046875.410156-.109375.480469-.0625.070312-.152343.289062-.195312.488281-.046875.195312-.140625.503906-.207031.679688-.070313.179687-.125.46875-.125.644531 0 .179687-.074219.464843-.164063.640625-.238281.457031-.207031.734375.09375.867187.070313.03125.21875.105469.335937.167969.113282.0625.359376.113281.542969.113281.183594.003907.496094.070313.695313.152344.199218.085937.597656.175781.886718.199219.519532.046875.535157.042968.765626-.210938.144531-.160156.273437-.433594.335937-.714844.058594-.25.125-.535156.152344-.632812.078125-.304688-.054688-.707031-.316407-.945312-.457031-.421876-.265624-.988282.335938-.996094.257812-.003906.964844-.285156 1.148438-.457032.503906-.476562.816406-.597656 1.121093-.445312.242188.121094.320313.453125.171875.71875-.0625.109375-.167968.417969-.226562.679688-.0625.265624-.1875.738281-.28125 1.050781-.089844.3125-.222656.855469-.292969 1.203125-.070313.351562-.199219.847656-.28125 1.109375-.085937.261719-.15625.542969-.15625.628906.003906.082031-.074219.332031-.171875.550781-.277344.640625-.695312.769532-1.566406.472656zm0 0" fill="#c09300" fill-rule="evenodd"/><path d="m445.765625 421.613281c-.550781-.519531-.464844-.894531.355469-1.503906.347656-.257813.558594-.230469.957031.132813.617187.5625.640625.914062.097656 1.394531-.269531.238281-.386719.285156-.699219.289062-.324218.003907-.417968-.035156-.710937-.3125zm0 0" fill="#c09300" fill-rule="evenodd"/><path d="m449.15625 422.644531c-.539062-.136719-.851562-.675781-.691406-1.210937.140625-.480469.222656-.53125.933594-.535156.792968-.007813.949218.125.957031.824218.003906.390625-.027344.484375-.222657.664063-.230468.214843-.671874.332031-.976562.257812zm0 0" fill="#c09300" fill-rule="evenodd"/><path d="m548.265625 422.730469c-.253906-.210938-.304687-.304688-.308594-.574219 0-.453125.261719-.789062.832031-1.046875.757813-.34375 1.066407-.296875 1.351563.207031.382813.667969.363281.9375-.09375 1.390625-.25.246094-.296875.261719-.871094.269531-.566406 0-.628906-.015624-.910156-.246093zm0 0" fill="#c09300" fill-rule="evenodd"/><path d="m453.660156 424.003906c-.40625-.105468-.613281-.410156-.621094-.894531-.003906-.371094.023438-.429687.28125-.632813.167969-.132812.4375-.242187.644532-.273437.296875-.039063.40625-.015625.644531.152344.613281.429687.742187.855469.386719 1.269531-.375.441406-.734375.542969-1.335938.378906zm0 0" fill="#c09300" fill-rule="evenodd"/><path d="m478.039062 425.097656-.3125-.269531.039063-.667969c.027344-.367187.097656-.8125.167969-.992187.066406-.175781.121094-.578125.117187-.894531 0-.320313.050781-.734376.117188-.921876.0625-.191406.167969-.894531.234375-1.570312.066406-.671875.15625-1.3125.199218-1.425781.042969-.113281.074219-.40625.070313-.65625-.003906-.253907.0625-.691407.148437-.980469.09375-.335938.148438-.800781.148438-1.28125-.003906-.417969.035156-.882812.082031-1.039062.046875-.152344.082031-.363282.082031-.46875-.003906-.195313.285157-.652344.410157-.65625.042969 0 .210937.191406.375.425781.167969.238281.503906.613281.746093.835937 1.070313.988282 1.019532.898438.671876 1.226563-.125.121093-.265626.21875-.3125.21875-.046876 0-.183594.101562-.308594.226562-.183594.1875-.21875.300781-.21875.660157 0 .242187-.054688.582031-.128906.757812-.113282.292969-.234376 1.371094-.277344 2.523438-.007813.242187-.050782.496093-.09375.5625-.042969.066406-.09375.644531-.113282 1.285156-.019531.636718-.070312 1.214844-.109374 1.28125-.042969.0625-.082032.257812-.085938.433594-.011719.652343-.152344 1.242187-.347656 1.445312-.15625.160156-.277344.203125-.59375.207031-.335938.003907-.445313-.039062-.707032-.265625zm0 0" fill="#c09300" fill-rule="evenodd"/><path d="m507.816406 426.085938c-.175781-.242188-.183594-.296876-.101562-.738282.046875-.261718.09375-.710937.097656-.996094.003906-.289062.054688-.601562.105469-.695312.054687-.097656.097656-.296875.09375-.445312 0-.210938.074219-.339844.328125-.585938.183594-.175781.332031-.355469.332031-.402344-.003906-.105468.648437-.605468.785156-.609375.054688 0 .164063-.074219.246094-.164062.082031-.085938.25-.160157.375-.160157.125-.003906.324219-.085937.441406-.1875.207031-.175781.21875-.226562.214844-.878906-.003906-.421875-.0625-.839844-.144531-1.0625-.070313-.203125-.125-.445312-.117188-.542968.011719-.09375-.011718-.550782-.054687-1.011719-.066407-.75-.097657-.863281-.292969-1.058594-.117188-.121094-.261719-.21875-.320312-.21875-.105469.003906-.496094-.453125-.441407-.515625.574219-.613281 1.597657-1.574219 1.710938-1.613281.234375-.074219.589843.085937.679687.304687.042969.109375.105469.585938.136719 1.0625.03125.472656.097656 1.078125.144531 1.339844.046875.265625.128906 1.09375.183594 1.839844s.132812 1.484375.179688 1.636718c.046874.15625.113281.839844.152343 1.519532.035157.683594.105469 1.378906.152344 1.546875.15625.585937.828125.933593 1.308594.683593.078125-.039062.433593-.121093.789062-.179687.832031-.132813.847657-.15625.773438-1.339844-.050781-.820312-.078125-.933593-.277344-1.183593-.125-.148438-.316406-.292969-.429687-.320313-.230469-.050781-.371094-.246094-.375-.503906-.003907-.183594.429687-.617188.699218-.699219.09375-.03125.339844-.195312.550782-.367188.472656-.382812.785156-.414062 1.074218-.097656.1875.199219.210938.304688.273438 1.375.046875.828125.105468 1.226563.203125 1.398438.101562.175781.140625.460937.144531 1.050781.007812.550781.054688.902344.144531 1.105469.117188.261718.121094.328125.015625.550781-.066406.136719-.140625.332031-.171875.429687-.066406.222657-.195312.257813-.960937.28125-.34375.007813-.773438.054688-.957032.105469-.183593.050781-.671874.101563-1.085937.113281-1.757813.042969-4.167969.246094-4.296875.363282-.097656.085937-.378906.117187-1.125.121094l-.996094.011718zm0 0" fill="#c09300" fill-rule="evenodd"/><path d="m472.835938 427.40625c-.125-.042969-.230469-.101562-.230469-.136719 0-.074219-.792969-.558593-.914063-.558593-.050781 0-.113281-.097657-.140625-.21875-.027343-.121094-.125-.453126-.222656-.742188-.167969-.507812-.164063-.894531.007813-1 .125-.074219.078124-.324219-.085938-.460938-.101562-.085937-.363281-.148437-.730469-.171874-.785156-.050782-.875-.074219-1.152343-.304688-.195313-.164062-.25-.292969-.3125-.722656-.042969-.304688-.132813-.585938-.21875-.675782-.152344-.15625-.414063-.199218-.488282-.078124-.027344.039062-.160156.09375-.296875.121093-.171875.035157-.28125.117188-.335937.257813-.042969.117187-.175782.332031-.292969.484375-.207031.265625-.238281.277343-.75.285156-.296875 0-.660156-.046875-.8125-.105469-.332031-.125-.691406-.183594-1.597656-.242187-1.300781-.089844-1.902344.007812-2.003907.320312-.140624.4375-1.191406 1.335938-1.648437 1.410157-.183594.03125-.496094.105468-.691406.171874-.199219.066407-.398438.097657-.441407.070313-.042968-.027344-.484374-.09375-.976562-.15625-.929688-.113281-1.273438-.269531-1.273438-.582031-.003906-.1875.566407-.476563.785157-.394532.238281.085938.628906.082032.628906-.007812-.003906-.042969.199219-.117188.449219-.167969.25-.054687.496094-.148437.550781-.210937.054687-.066406.207031-.121094.339844-.121094.195312 0 .285156-.070312.484375-.378906.136718-.210938.246094-.429688.246094-.492188-.003907-.058594.070312-.203125.160156-.316406.097656-.121094.164062-.324219.164062-.503906-.003906-.164063.050782-.457032.121094-.648438.117188-.332031.113281-.386718-.066406-.910156-.105469-.308594-.238282-.585938-.296875-.617188-.058594-.035156-.148438-.1875-.203125-.339843-.148438-.410157.007812-.773438.601562-1.40625.0625-.066407.136719-.238281.167969-.378907.058594-.273437.246094-.421874.527344-.425781.207031-.003906.601562.429688.605469.660157 0 .097656.0625.257812.136718.359374.082032.109376.164063.46875.214844.914063.078125.761719.214844 1.542969.3125 1.839844.085938.253906.542969.609375.789062.609375.117188 0 .4375.050781.714844.109375.277344.0625.71875.109375.984375.109375.480469-.003906.480469-.003906.972657-.5.273437-.269532.492187-.53125.488281-.582032-.011719-.320312-1.085938-.898437-1.949219-1.046874-.300781-.054688-.515625-.425782-.449219-.78125.054688-.304688.460938-.832032.851563-1.117188.152344-.109375.648437-.300781 1.109375-.429688l.832031-.234374.234375-.449219c.4375-.855469 1.363281-1.535157 2.101563-1.542969.367187 0 .449218.039062.742187.40625.082031.101562.238281.292969.34375.425781.324219.402344.511719.878907.460937 1.191407-.046874.296874.078126.761718.203126.761718.117187-.003906 1.332031 1.179688 1.390624 1.347656.027344.085938.085938.15625.128907.15625.101562 0 .25.535157.257812.917969.003907.574219-.121093.65625-1.011719.675781-.425781.007813-.945312.0625-1.148437.125l-.375.109376-.019531.445312c-.027344.597656.125.765625.777344.863281.273437.039063.535156.105469.582031.152344.046875.042969.183593.078125.304687.078125.117188-.003906.289063.046875.378906.109375.148438.101563.164063.214844.175782 1.136719l.011718 1.027344.269532.082031c.152344.042969.320312.125.375.175781.195312.183594.457031.105469.5625-.171875.054687-.140625.128906-.332031.167968-.421875.039063-.085938.105469-.628906.148438-1.199219.042969-.574219.128906-1.1875.191406-1.363281s.152344-.75.195313-1.277344c.046875-.527344.125-1.003906.175781-1.066406.050781-.058594.109375-.5625.128906-1.136719.03125-.820312.066406-1.058593.183594-1.183593.121094-.132813.140625-.316407.132812-1.148438l-.011718-.996094-.335938-.273437c-.222656-.1875-.335937-.34375-.335937-.480469-.003907-.285156.074219-.371094.492187-.523438.207032-.074218.523438-.191406.707032-.257812.183593-.066406.367187-.164062.414062-.21875.144531-.164062.609375-.460938.730469-.460938.0625 0 .175781.0625.253906.144532.179687.183594.195313.945312.027344 1.261718-.074219.136719-.121094.449219-.117188.761719.003907.292969-.050781.6875-.121093.882813-.074219.199218-.164063.929687-.214844 1.710937-.046875.746094-.132813 1.441407-.1875 1.535157-.054688.097656-.09375.421874-.09375.722656.003906.300781-.050782.851562-.117188 1.226562s-.15625 1.003906-.199218 1.398438c-.039063.394531-.125.839844-.191407.992187-.0625.152344-.136719.53125-.164062.84375-.023438.316407-.117188.695313-.199219.851563-.082031.152344-.148438.34375-.148438.421875.003907.203125-.429687.941406-.550781.945312-.054687 0-.136719.070313-.183593.152344-.042969.082031-.195313.171875-.332032.203125-.140625.027344-.355468.121094-.480468.203125-.269532.1875-1.046876.28125-1.375.171875zm0 0" fill="#c09300" fill-rule="evenodd"/><path d="m524.382812 427.492188c-.097656-.089844-.066406-.484376.042969-.570313.054688-.042969.195313-.109375.308594-.140625.117187-.035156.265625-.109375.332031-.167969.070313-.054687.3125-.128906.542969-.164062.820313-.121094 1.539063-.773438 1.542969-1.402344.003906-.175781-.027344-.355469-.058594-.402344-.09375-.144531-1.535156-.054687-2.3125.136719-.1875.046875-.277344.011719-.503906-.199219l-.277344-.261719-.039062-1.175781-.039063-1.179687.359375-.394532c.199219-.21875.449219-.539062.558594-.714843s.222656-.328125.25-.339844c.03125-.015625.199218-.152344.375-.3125.347656-.308594.925781-.625 1.3125-.71875.136718-.03125.285156-.109375.332031-.175781.050781-.066406.199219-.128906.332031-.136719.203125-.019531.273438.03125.476563.335937.128906.195313.238281.464844.246093.597657.003907.132812.070313.382812.136719.558593.070313.175782.152344.527344.183594.777344.035156.253906.101563.511719.152344.570313.128906.148437 1.136719.21875 1.3125.089843.097656-.070312.140625-.285156.167969-.824218.019531-.421875.089843-.839844.160156-.984375.070312-.136719.152344-.367188.179687-.507813.082031-.394531.742188-1.304687 1.132813-1.566406.191406-.128906.394531-.273438.453125-.328125.058593-.050781.1875-.121094.289062-.152344.25-.078125.308594-.179687.308594-.535156-.003906-.304687-.257813-.65625-.785156-1.078125-.125-.105469-.230469-.25-.230469-.328125-.003906-.226563.242188-.65625.625-1.105469.195312-.230468.359375-.445312.359375-.484375 0-.035156.132813-.148437.292969-.246093.226562-.140626.332031-.164063.496094-.105469.222656.078125.285156.1875.492187.871093.273437.90625.335937 1.171876.402344 1.683594.039062.289063.09375.566406.125.613282.03125.046874.398437.160156.820312.25.417969.089843.839844.210937.9375.269531.101563.054687.273438.128906.386719.160156.285156.082031.675781.359375.675781.484375 0 .058594.03125.105469.070313.105469.089844 0 .511718.609375.898437 1.304687.433594.78125.410157.761719 1.101563.757813.558594-.003907.625-.023438.78125-.21875.09375-.117188.167968-.3125.167968-.433594-.003906-.25.210938-.542969.734376-1.007813.203124-.175781.445312-.394531.542968-.484374.324219-.292969.695313-.527344.835938-.527344.078125 0 .488281.140625.917968.316406.628907.257812.820313.378906 1.007813.632812.414063.558594 1.296875.789063 1.734375.453126.113281-.089844.25-.164063.300781-.164063s.089844-.054687.089844-.121094c-.003906-.167969-.34375-1.09375-.445313-1.210937-.046874-.050782-.125-.375-.171874-.71875-.050782-.339844-.164063-.78125-.261719-.976563-.113281-.242187-.1875-.609375-.222657-1.117187-.027343-.417969-.128906-1.027344-.21875-1.351563-.089843-.328125-.164062-.695312-.167968-.820312-.007813-.589844-.507813-1.367188-1.015625-1.574219-.117188-.050781-.304688-.140625-.421875-.203125-.300782-.164063-.699219-.140625-.875.050781-.082032.089844-.226563.164063-.324219.164063-.175781 0-.710937.433593-.710937.570312 0 .042969-.121094.078125-.273438.082031-.222656 0-.324219-.058593-.542969-.332031-.152343-.183593-.273437-.371093-.273437-.417969 0-.042968-.152344-.207031-.335938-.359374-.273437-.226563-.339844-.328126-.339844-.5625-.003906-.230469.039063-.308594.203126-.382813.113281-.050781.207031-.128906.207031-.171875s.136719-.101562.308593-.132812c.175782-.027344.613282-.132813.980469-.226563.921875-.238281 2.578125-.25 2.984375-.023437.148438.082031.367188.171874.484375.199218.273438.058594.996094.722656 1.144531 1.054688.0625.140625.148438.273437.191407.296875.042969.027343.105469.199219.136719.386719.035156.183593.113281.445312.175781.578124.09375.195313.21875 1.019532.347656 2.277344.023437.222656.191406.992188.324219 1.476563.046875.175781.140625.582031.210937.902343.066407.324219.179688.648438.253907.726563.070312.074219.132812.199219.132812.277344.003906.3125.867188.835937 1.367188.832031.4375-.003906 1.09375-.300781 1.5-.675781.234374-.214844.515624-.414063.625-.441407.222656-.054687.589843.117188.71875.339844.160156.273438.421874.515625.773437.710938.375.207031.511719.484375.371094.746094-.050781.089843-.152344.164062-.230469.164062s-.34375.09375-.589844.207031c-.242187.109375-.511718.203125-.597656.203125s-.558594.132813-1.050781.289063c-.496094.160156-1.367188.386719-1.9375.507812-1.011719.207031-2.371094.582031-2.535157.699219-.046874.035156-.234374.085938-.417968.117188-.566406.097656-.617188.128906-.667969.421874-.066406.359376-.832031 1.15625-1.398437 1.457032-.390626.207031-.46875.21875-1.445313.21875-.570313-.003906-1.101563-.019532-1.183594-.046875-.082031-.023438-.175781-.148438-.207031-.277344s-.171875-.3125-.308594-.402344c-.265625-.179687-.570312-.171875-1.25.019531l-.304687.085938-.050781.789062c-.027344.4375-.097657.878907-.160157.980469-.058593.105469-.148437.265625-.191406.351563-.042969.089844-.269531.324218-.503906.527344-.234375.199218-.574219.5-.757813.667968-.375.34375-.695312.394532-.921875.148438-.085937-.09375-.25-.160156-.386719-.15625-.28125.003906-.929687-.261719-1.339843-.550782-.25-.171874-.773438-1.027343-.777344-1.265624 0-.046876-.074219-.15625-.167969-.242188-.132812-.125-.277344-.15625-.691406-.148438-.285156.003907-.6875.046876-.894531.089844-.207031.046875-.707031.125-1.117188.171875-.40625.046875-.859375.136719-1.003906.199219-.148437.058594-.425781.136719-.621094.171875-.511719.085937-.667969.273437-.664062.796875.003906.277344-.039063.464844-.113281.527344-.066407.050781-.140626.195312-.167969.320312-.070313.324219-.753907.984375-1.238281 1.203125-.230469.101563-.554688.257813-.722657.34375-.253906.132813-.472656.164063-1.253906.171875-.523437.003906-.976563-.015625-1.007813-.042968zm0 0" fill="#c09300" fill-rule="evenodd"/><path d="m517.761719 428.210938-.1875-.128907.167969-.230469c.089843-.128906.304687-.277343.476562-.332031.582031-.191406.972656-.425781 1.449219-.878906.261719-.246094.472656-.511719.472656-.585937 0-.074219.101563-.253907.222656-.402344.21875-.25.226563-.296875.210938-1.105469-.015625-.828125-.058594-1-.367188-1.476563-.148437-.226562-.648437-.589843-1.152343-.835937-.335938-.164063-.457032-.496094-.285157-.78125.074219-.117187.304688-.558594.511719-.976563.210938-.421874.425781-.855468.480469-.964843.152343-.304688.523437-.320313.777343-.035157.238282.269532.625.949219.625 1.101563 0 .0625.074219.175781.160157.253906.191406.167969.605469.871094.605469 1.035157 0 .0625.097656.269531.21875.464843.152343.238281.222656.472657.230468.730469.007813.210938.066406.515625.132813.679688.203125.476562.136719 2.074218-.101563 2.519531-.101562.191406-.210937.34375-.242187.347656-.035157 0-.171875.148437-.308594.328125-.257813.34375-1.140625.964844-1.375.964844-.074219 0-.191406.082031-.257813.183594-.117187.167968-.191406.183593-1.199218.21875-.890625.027343-1.105469.011718-1.265625-.09375zm0 0" fill="#c09300" fill-rule="evenodd"/><path d="m510.148438 428.707031c-.269532-.277343-.328126-.394531-.332032-.667969 0-.273437.050782-.382812.316406-.648437.484376-.492187.722657-.503906 1.566407-.078125.804687.402344 1.074219.441406 1.148437.152344.070313-.277344.53125-.53125.972656-.53125.277344-.003906.433594.050781.65625.222656.28125.21875.292969.253906.300782.757812.003906.515626 0 .53125-.324219.816407-.304687.273437-.355469.289062-.738281.25-.484375-.046875-.777344-.269531-.855469-.652344-.058594-.277344-.15625-.347656-.230469-.15625-.023437.058594-.140625.136719-.265625.164063-.226562.058593-.609375.300781-.882812.558593-.105469.09375-.285157.140625-.578125.144531-.394532.003907-.449219-.019531-.753906-.332031zm0 0" fill="#c09300" fill-rule="evenodd"/><path d="m495.984375 429.359375c0-.039063-.207031-.167969-.464844-.285156-.488281-.222657-.910156-.5625-1.167969-.941407-.179687-.265624-.390624-.9375-.394531-1.261718 0-.160156-.054687-.230469-.191406-.261719-.566406-.125-2.007813-.28125-3.070313-.332031-.664062-.035156-1.910156-.132813-2.769531-.214844-1.863281-.1875-2.574219-.160156-2.824219.101562-.09375.097657-.210937.296876-.261718.4375-.046875.144532-.230469.449219-.402344.679688-.175781.230469-.316406.457031-.316406.503906s-.035156.082032-.082032.082032c-.046874.003906-.148437.066406-.234374.144531-.210938.199219-.640626.496093-.859376.59375-.105468.046875-.28125.136719-.398437.199219-.296875.171874-2.382813.191406-2.722656.027343-.128907-.066406-.351563-.117187-.492188-.113281-.140625 0-.328125-.050781-.417969-.109375-.132812-.09375-.148437-.148437-.082031-.339844.097657-.269531.378907-.339843 1.453125-.359375.601563-.007812.777344-.042968 1.125-.222656.417969-.21875 1.132813-.742188 1.1875-.871094.019532-.039062.101563-.128906.1875-.203125.085938-.070312.175782-.253906.203125-.410156.027344-.15625.125-.425781.210938-.597656.1875-.363281.164062-.582031-.152344-1.484375-.324219-.929688-.4375-1.136719-.808594-1.449219-.464843-.390625-.453125-.578125.066407-1.109375.226562-.230469.546874-.617188.710937-.859375.265625-.390625.324219-.433594.554687-.414063.222657.019532.296876.085938.5.460938.3125.574219.742188 1.570312.746094 1.726562 0 .066407.054688.234376.121094.371094.066406.136719.164062.382813.21875.542969.132812.398437.207031.4375.898438.496094.722656.0625.730468.050781.796874-.921875.023438-.371094.082032-.710938.128907-.753906.046875-.046876.082031-.15625.082031-.242188-.003906-.195312-.417969-1.335938-.523438-1.441406-.140624-.136719-.085937-.542969.125-.898438.113282-.191406.238282-.347656.277344-.347656.035156 0 .210938-.097656.382813-.210938.4375-.289062 1.085937-.359374 1.367187-.148437.179688.136719.207032.234375.25.859375.039063.636719.066406.722656.265625.886719.121094.101562.3125.183593.421875.183593.113282 0 .269532.058594.355469.128907.125.105469.417969.128906 1.757813.140625 1.851562.015625 2.886718.0625 3.019531.144531.050781.03125.375.054687.71875.050781s1.09375.023438 1.667969.054688c1.003906.058594 1.050781.070312 1.296874.300781l.25.238281.019532 1.0625c.023437 1.230469.09375 1.386719.632812 1.382813.472656-.003907.605469-.148438.640625-.695313.019531-.257812.082031-.507812.140625-.554687s.164063-.214844.230469-.375c.140625-.335938.722656-.917969.992187-1 .097657-.03125.253907-.121094.34375-.199219.089844-.078125.277344-.164062.417969-.191406.597657-.109375 1.257813-.332032 1.414063-.472656.109375-.097657.308594-.160157.558594-.171876.320312-.011718.417968.015626.558593.175782.199219.222656.234375.394531.316407 1.492187.03125.453125.097656.921875.148437 1.039063.050781.117187.117187.679687.144531 1.253906l.046875 1.039062-.257812.34375-.261719.339844-2.699219.023438c-1.484375.011718-2.828125.046875-2.984375.078125-.316406.058593-.390625.222656-.382812.839843.003906.191407-.054688.347657-.15625.4375-.085938.074219-.179688.226563-.203125.332032-.050781.199218-.605469.617187-.960938.722656-.113281.035156-.261719.109375-.328125.164062-.195312.152344-.824218.449219-.960937.453126-.066407 0-.121094-.03125-.121094-.070313zm0 0" fill="#c09300" fill-rule="evenodd"/><path d="m528.1875 294.597656c-.3125.019532-.625.03125-.941406.03125-6.902344 0-22.933594-3.539062-29.113282-8.84375-6.472656 4.902344-22.769531 8.84375-29.558593 8.84375-.320313 0-.636719-.039062-.945313-.097656-.015625 1.546875.0625 3.148438.160156 4.605469.359376 5.445312 1.316407 10.910156 2.765626 16.167969 4.570312 16.550781 13.921874 30.613281 27.332031 41.28125 13.421875-10.675782 22.78125-24.753907 27.363281-41.316407 1.453125-5.257812 2.410156-10.722656 2.773438-16.164062.097656-1.429688.175781-2.992188.164062-4.507813zm0 0" fill="none" stroke="#c09300" stroke-width=".981111"/><path d="m511.976562 277.710938c.738282.042968-1.003906-3.964844-1.003906-3.964844 1.960938 2.003906 9.375 2.484375 9.375 2.484375-4.449218-1.960938-8.894531-16.773438-8.371094-28.578125.480469-11.847656-1.703124-16.507813-3.445312-18.25-2.226562-2.222656-9.375-4.183594-14.085938-4.445313-2.660156-.128906-2.226562 2.003907-2.226562 2.003907-4.925781-1.261719-9.851562-1.742188-12.078125-.261719-2.09375 1.394531-2.527344 8.363281-1.003906 7.144531 3.707031-2.960938 6.9375-.261719 9.160156 2.960938 1.960937 2.832031 1.832031 10.847656-1.003906 20.214843-2.964844 9.84375-11.074219 19.6875-11.074219 19.6875 4.402344 0 10.59375-3.917969 10.59375-3.917969l-1.480469 6.140626c4.664063-2.222657 8.371094-5.664063 8.371094-5.664063l4.449219 4.664063c1.480468-1.960938 4.445312-4.664063 4.445312-4.664063s3.707032 3.921875 9.378906 4.445313zm0 0" style="fill-rule:evenodd;fill:#fff;stroke-width:1.361111;stroke-linecap:round;stroke-linejoin:round;stroke:#c09300"/><path d="m493.964844 249.351562s-2.484375 18.253907-7.152344 23.4375zm0 0" style="fill-rule:evenodd;fill:#fff;stroke-width:1.361111;stroke-linecap:round;stroke-linejoin:round;stroke:#c09300"/><path d="m497.890625 248.871094s-.960937 18.472656-4.1875 24.394531zm0 0" style="fill-rule:evenodd;fill:#fff;stroke-width:1.361111;stroke-linecap:round;stroke-linejoin:round;stroke:#c09300"/><path d="m501.378906 249.613281s0 20.214844 1.222656 23.65625zm0 0" style="fill-rule:evenodd;fill:#fff;stroke-width:1.361111;stroke-linecap:round;stroke-linejoin:round;stroke:#c09300"/><path d="m505.78125 250.613281s1.003906 16.992188 5.191406 23.132813zm0 0" style="fill-rule:evenodd;fill:#fff;stroke-width:1.361111;stroke-linecap:round;stroke-linejoin:round;stroke:#c09300"/><path d="m489.472656 240.507812c-.214844-1.609374-.609375-2.875-1.175781-3.703124-2.222656-3.222657-5.449219-5.921876-9.15625-2.960938 0 0 1.261719-3.921875 3.964844-4.050781 2.09375-.128907 6.847656 1.566406 11.035156 8.710937 0 0-3.097656-.695312-3.835937-.042968-1.398438 1.21875-.832032 2.046874-.832032 2.046874zm0 0" fill="#c09300" fill-rule="evenodd"/><path d="m478.746094 229.007812c.304687-1 .785156-1.917968 1.394531-2.308593 2.226563-1.480469 7.152344-1 12.082031.261719 0 0-.4375-2.132813 2.222656-2.003907 4.710938.261719 11.859376 2.222657 14.085938 4.445313.523438.5625 1.132812 1.390625 1.65625 2.65625h-.085938c-1.089843-1.527344-4.1875-1.4375-4.929687-1.351563-1.175781.132813-1.917969.085938-3.488281.480469-.742188.171875-1.875.390625-2.484375.871094-.480469.390625-.871094 1.828125-1.613281 1.828125-1.179688 0-1.089844-.304688-1.398438-.652344-.390625-.480469-.609375-1.175781-1-1.132813-1.222656.21875-3.183594-.742187-5.667969-2.699218-2.488281-1.960938-3.449219-2.441406-6.675781-2.222656-3.179688.261718-4.183594 2.046874-4.183594 2.046874zm0 0" style="fill-rule:evenodd;fill:#c09300;stroke-width:1.361111;stroke-linecap:round;stroke-linejoin:round;stroke:#c09300"/><path d="m496.972656 231.882812c.742188 0 1.308594-.566406 1.308594-1.304687 0-.742187-.566406-1.308594-1.308594-1.308594-.695312 0-1.304687.566407-1.304687 1.308594 0 .738281.609375 1.304687 1.304687 1.304687zm0 0" fill="#fff" fill-rule="evenodd"/><path d="m485.5 291.394531c-6.230469 1.976563-13.09375 3.234375-16.925781 3.234375-.320313 0-.636719-.039062-.945313-.097656-.015625 1.542969.0625 3.148438.160156 4.605469.359376 5.445312 1.316407 10.910156 2.765626 16.167969 3.019531 10.9375 8.140624 20.78125 14.945312 29.285156zm0 0" fill="#c09300" fill-rule="evenodd"/><path d="m510.40625 291.914062v51.496094c7.195312-8.21875 11.964844-17.640625 14.84375-28.046875 1.453125-5.257812 2.410156-10.722656 2.773438-16.167969.09375-1.425781.175781-2.992187.164062-4.503906-.3125.019532-.625.027344-.941406.027344-3.714844 0-10.070313-1.03125-16.839844-2.804688zm0 0" fill="#c09300" fill-rule="evenodd"/><path d="m470.25 419.484375c.21875-.152344.238281-.359375.035156-.410156-.257812-.066407-.464844-.421875-.484375-.824219-.03125-.726562-.371093-.769531-1.007812-.121094-.183594.183594-.460938.433594-.617188.554688l-.285156.21875.207031.210937c.347656.351563.738282.488281 1.382813.492188.40625.003906.640625-.035157.769531-.121094zm0 0" fill="#fff" fill-rule="evenodd"/><path d="m447.152344 416.679688c.285156-.246094.289062-.496094.011718-.617188-.175781-.074219-.277343-.054688-.625.109375-.347656.167969-.410156.230469-.390624.398437.023437.1875.171874.253907.691406.300782.046875 0 .1875-.082032.3125-.191406zm0 0" fill="#fff" fill-rule="evenodd"/><path d="m510.351562 424.359375.433594-.128906-.027344-.414063-.03125-.417968-.347656-.019532c-.289062-.015625-.382812.019532-.5625.207032-.320312.335937-.359375.578124-.113281.753906.109375.082031.203125.144531.207031.148437.003906 0 .203125-.058593.441406-.128906zm0 0" fill="#fff" fill-rule="evenodd"/><path d="m543.019531 421.101562c.519531-.21875.664063-.492187.460938-.859374-.171875-.316407-.425781-.4375-.84375-.410157-.476563.03125-.871094.34375-.867188.695313.003907.226562.058594.308594.359375.503906.195313.128906.382813.238281.417969.242188.035156.003906.246094-.074219.472656-.171876zm0 0" fill="#fff" fill-rule="evenodd"/><path d="m536.363281 421.164062c.355469-.164062.398438-.210937.398438-.449218 0-.363282-.328125-.789063-.816407-1.058594-.515624-.285156-.703124-.28125-.933593.027344-.179688.238281-.179688.257812-.050781.613281.074218.203125.136718.421875.136718.488281 0 .160156.507813.558594.707032.558594.085937.003906.335937-.078125.558593-.179688zm0 0" fill="#fff" fill-rule="evenodd"/><path d="m533.398438 421.445312c.027343-.136718.023437-.449218-.011719-.691406-.046875-.351562-.113281-.488281-.3125-.660156-.304688-.257812-.457031-.234375-.816407.128906-.230468.230469-.261718.324219-.269531.742188-.015625.65625.074219.742187.789063.734375.566406-.003907.566406-.003907.621094-.253907zm0 0" fill="#fff" fill-rule="evenodd"/><path d="m526.769531 422.683594c.289063-.148438.355469-.304688.285157-.660156-.113282-.53125-.78125-.691407-1.105469-.257813-.101563.128906-.179688.269531-.179688.3125 0 .039063-.054687.117187-.121093.171875-.097657.078125-.101563.136719-.027344.269531.054687.09375.136718.195313.1875.230469.15625.097656.714844.058594.960937-.066406zm0 0" fill="#fff" fill-rule="evenodd"/><path d="m537.316406 423.632812c.230469-.179687.25-.433593.046875-.613281-.242187-.210937-.6875-.207031-1.140625.007813-.269531.128906-.347656.210937-.34375.367187 0 .132813.0625.222657.1875.269531.28125.105469 1.097656.085938 1.25-.027343zm0 0" fill="#fff" fill-rule="evenodd"/><path d="m503.132812 424.378906c.183594-.070312.222657-.125.183594-.253906-.027344-.09375-.09375-.339844-.144531-.546875-.082031-.328125-.121094-.378906-.300781-.378906-.191406 0-.542969.203125-.863282.488281-.160156.144531-.257812.488281-.171874.605469.1875.257812.746093.292969 1.296874.085937zm0 0" fill="#fff" fill-rule="evenodd"/><path d="m496.691406 426.796875c.183594-.140625.1875-.179687.179688-1.644531l-.007813-1.507813-.222656-.195312c-.214844-.1875-.292969-.199219-1.832031-.257813-.878906-.035156-1.746094-.105468-1.925782-.164062-.230468-.070313-.4375-.078125-.742187-.019532-.273437.046876-.601563.046876-.9375-.003906-1.246094-.195312-2.078125-.042968-2.378906.445313-.140625.226562-.140625.253906-.007813.46875.078125.125.238282.242187.355469.265625.113281.019531.382813.085937.597656.148437.234375.070313.742188.113281 1.292969.113281.5 0 1.335938.023438 1.867188.058594.527343.03125 1.261718.066406 1.628906.074219.484375.011719.738281.058594.910156.164063l.238281.144531-.050781.773437c-.046875.742188-.039062.78125.148438.941406.222656.191407.492187.339844.613281.339844.042969 0 .167969-.066406.273437-.144531zm0 0" fill="#fff" fill-rule="evenodd"/></svg>