<svg viewBox="0 0 1000 667" xmlns="http://www.w3.org/2000/svg" xmlns:xlink="http://www.w3.org/1999/xlink"><clipPath id="a"><path d="m0 0h1000v666.71875h-1000zm0 0"/></clipPath><g clip-path="url(#a)"><path d="m0 0h999.984375v666.667969h-999.984375zm0 0" fill="#3e5eb9" fill-rule="evenodd"/></g><path d="m0 119.042969h999.984375v428.574219h-999.984375zm0 0" fill="#ffd900" fill-rule="evenodd"/><path d="m0 166.667969h999.984375v333.324219h-999.984375zm0 0" fill="#b10c0c" fill-rule="evenodd"/><path d="m106.730469 326.195312h795.417969c3.90625 0 7.039062 3.183594 7.039062 7.136719 0 3.964844-3.132812 7.148438-7.039062 7.148438h-795.417969c-3.90625 0-7.039063-3.183594-7.039063-7.148438 0-3.953125 3.132813-7.136719 7.039063-7.136719zm0 0" fill="#ffd900" fill-rule="evenodd" stroke="#000" stroke-width="1.799431"/><path d="m821.410156 257.144531-40.476562 14.28125 40.476562 14.285157 40.480469-14.285157zm0 0" fill="#fff" fill-rule="evenodd" stroke="#000" stroke-width="1.679869"/><path d="m209.929688 266.667969h584.871093c2.871094 0 5.175781 2.125 5.175781 4.757812 0 2.640625-2.304687 4.761719-5.175781 4.761719h-584.871093c-2.863282 0-5.175782-2.121094-5.175782-4.761719 0-2.632812 2.3125-4.757812 5.175782-4.757812zm0 0" fill="#ffd900" fill-rule="evenodd"/><path d="m209.929688 266.667969h584.871093c2.871094 0 5.171875 2.125 5.171875 4.757812 0 2.640625-2.300781 4.761719-5.171875 4.761719h-584.871093c-2.867188 0-5.179688-2.121094-5.179688-4.761719 0-2.632812 2.3125-4.757812 5.179688-4.757812zm0 0" fill="none" stroke="#000" stroke-width="1.67987"/><path d="m785.726562 276.1875c2.375 0 4.761719-2.382812 4.761719-4.761719 0-2.382812-2.386719-4.757812-4.761719-4.757812" fill="none" stroke="#000" stroke-width="1.67987"/><path d="m780.964844 276.1875c2.375 0 4.761718-2.382812 4.761718-4.761719 0-2.382812-2.386718-4.757812-4.761718-4.757812" fill="none" stroke="#000" stroke-width="1.67987"/><path d="m776.203125 276.1875c2.378906 0 4.761719-2.382812 4.761719-4.761719 0-2.382812-2.382813-4.757812-4.761719-4.757812" fill="none" stroke="#000" stroke-width="1.67987"/><path d="m783.316406 285.710938-40.480468 14.289062 40.480468 14.28125 40.480469-14.28125zm0 0" fill="#fff" fill-rule="evenodd" stroke="#000" stroke-width="1.679869"/><path d="m171.832031 295.238281h584.875c2.871094 0 5.175781 2.125 5.175781 4.761719s-2.304687 4.761719-5.175781 4.761719h-584.875c-2.863281 0-5.171875-2.125-5.171875-4.761719s2.308594-4.761719 5.171875-4.761719zm0 0" fill="#ffd900" fill-rule="evenodd" stroke="#000" stroke-width="1.67987"/><path d="m747.632812 304.761719c2.375 0 4.757813-2.386719 4.757813-4.761719 0-2.382812-2.382813-4.769531-4.757813-4.769531" fill="none" stroke="#000" stroke-width="1.67987"/><path d="m742.871094 304.761719c2.375 0 4.761718-2.386719 4.761718-4.761719 0-2.382812-2.386718-4.769531-4.761718-4.769531" fill="none" stroke="#000" stroke-width="1.67987"/><path d="m738.109375 304.761719c2.378906 0 4.761719-2.386719 4.761719-4.761719 0-2.382812-2.382813-4.769531-4.761719-4.769531" fill="none" stroke="#000" stroke-width="1.67987"/><path d="m852.253906 327.660156c-7.210937 12.492188 5.542969-4.15625 36.644532 16.757813 5.765624 3.890625 10.800781 14.152343 10.800781 21.261719-1.464844-.972657-2.546875-3.15625-4.160157-4.570313-2.253906 2.261719 2.160157 12.628906 2.800782 17.527344-4.867188-2.71875-4.394532-4.003907-6.015625-7.347657.328125 4.035157-.828125 15.175782 1.101562 19.464844-3.835937-1.097656-3.574219-4.179687-5.574219-4.800781 1.355469 4.851563-1.1875 10.132813-.515624 15.59375-2.234376-2.222656-4.628907-3.957031-5.664063-4.851563-.179687 2.597657-4.3125 9.425782-4.402344 11.882813-1.902343-1.148437-2.414062-2.9375-2.734375-4.144531-2.359375 2.972656-10.757812 13.933594-11.296875 17.277344-6.46875-5.710938-23.035156-19.628907-25.191406-27.007813-1.914063 4.191406-4.671875 5.605469-10.125 8.664063-2.15625-11.707032-10.214844-24.859376-5.910156-34.894532-3.050781 1.816406-5.5625 3.621094-8.617188 5.851563 2.890625-16.941407 17.644531-36.824219 38.859375-46.664063zm0 0" fill="#3d5da7" fill-rule="evenodd"/><path d="m852.253906 327.660156c-7.210937 12.492188 5.542969-4.15625 36.644532 16.757813 5.765624 3.890625 10.800781 14.152343 10.800781 21.265625-1.464844-.976563-2.546875-3.160156-4.160157-4.574219-2.253906 2.261719 2.160157 12.628906 2.800782 17.527344-4.867188-2.71875-4.394532-4.003907-6.015625-7.347657.328125 4.035157-.828125 15.175782 1.101562 19.464844-3.835937-1.097656-3.574219-4.179687-5.574219-4.800781 1.355469 4.851563-1.1875 10.132813-.515624 15.59375-2.234376-2.222656-4.628907-3.957031-5.664063-4.851563-.179687 2.597657-4.3125 9.425782-4.402344 11.882813-1.902343-1.148437-2.414062-2.9375-2.734375-4.144531-2.359375 2.972656-10.757812 13.933594-11.296875 17.277344-6.46875-5.710938-23.035156-19.628907-25.191406-27.007813-1.914063 4.191406-4.671875 5.605469-10.125 8.664063-2.15625-11.707032-10.214844-24.859376-5.910156-34.894532-3.050781 1.816406-5.5625 3.621094-8.617188 5.851563 2.890625-16.945313 17.644531-36.824219 38.859375-46.664063zm0 0" fill="none" stroke="#000" stroke-width="1.425298"/><path d="m825.339844 389.535156c2.996094-5.988281 5.757812-7.886718 7.691406-11.742187 3.417969-6.773438 3.90625-12.167969 6.886719-11.371094 2.976562.789063 2.96875 3.566406-.890625 10.222656-3.855469 6.664063-5.6875 8.089844-13.6875 12.890625zm0 0" fill="#a70000" fill-rule="evenodd"/><path d="m845.597656 403.792969c-.382812-4.558594.9375-6.460938.691406-9.398438-.40625-5.160156-2.523437-8.710937.226563-8.960937 2.746094-.253906 4.03125 1.511718 4.039063 6.710937.007812 5.210938-.796876 6.578125-4.957032 11.648438zm0 0" fill="#a70000" fill-rule="evenodd"/><path d="m860.972656 412.726562c-1.207031-6.363281-.304687-9.179687-1.078125-13.28125-1.335937-7.214843-3.976562-11.960937-1.433593-12.621093 2.550781-.660157 4.082031 1.675781 5.046874 8.984375.960938 7.316406.457032 9.328125-2.535156 16.917968zm0 0" fill="#a70000" fill-rule="evenodd"/><path d="m876.953125 368.140625c-3.75-2.847656-5.949219-3.035156-8.367187-4.867187-4.261719-3.214844-6.417969-6.648438-7.785157-4.949219-1.378906 1.710937-.402343 3.574219 4.066407 6.542969 4.46875 2.964843 5.972656 3.199218 12.085937 3.273437zm0 0" fill="#a70000" fill-rule="evenodd"/><path d="m874.300781 389.273438c-1.976562-4.109376-4.0625-5.152344-5.339843-7.796876-2.261719-4.644531-2.261719-8.667968-4.71875-7.632812-2.449219 1.035156-2.644532 3.132812-.027344 7.632812 2.632812 4.496094 3.996094 5.308594 10.085937 7.796876zm0 0" fill="#a70000" fill-rule="evenodd"/><path d="m134.636719 339.699219c-.398438-3.640625.375-4.070313-1.867188-6.8125 3.265625 1.359375 3.386719 4.980469 7.351563 2.40625 1.457031-.746094 2.082031-.773438.316406-4.816407 4.136719.195313 17.660156 4.832032 19.824219 4.941407 5.695312.257812 16.082031-5.972657 23.285156 1.691406 6.914063 7 4.613281 14.25 4.613281 23.933594-2.785156-1.328125-1.449218-1.984375-4.394531-5.441407 2.214844 8.460938-.125 23.71875-.125 32.703126-1.128906-2.164063-.964844-1.226563-2.074219-3.464844-2.945312 8.195312-6.484375 9.878906-6.484375 19.5625-1.066406-3.800782-.035156-2.992188-1.222656-4.996094-2.863281 6.226562-22.101563 11.539062-14.6875 17.816406-6.691406-3.925781-9.621094-3.511718-12.65625-7.042968-1.308594.847656-2.351563 2.441406-3.5625 4.628906-11.757813-5.410156-7.554687-17.078125-16.765625-24.875-1.59375 3.261718-.871094 2.792968-2.597656 8.113281-1.859375-7.386719-2.375-12.085937-4.472656-17.523437-1.808594 3.015624-1.644532 1.859374-4.933594 6.414062-1.359375-9-3.570313-11.132812-2.699219-17.082031-3.492187 2.460937-1.207031 1.464843-4.695313 4.5 3.3125-23.070313 17.59375-40.109375 27.847657-34.65625zm0 0" fill="#3d5da7" fill-rule="evenodd"/><path d="m134.636719 339.695312c-.398438-3.636718.375-4.066406-1.867188-6.808593 3.265625 1.359375 3.386719 4.980469 7.351563 2.40625 1.457031-.746094 2.082031-.773438.316406-4.816407 4.136719.195313 17.660156 4.835938 19.824219 4.941407 5.695312.257812 16.082031-5.972657 23.285156 1.691406 6.914063 7 4.613281 14.25 4.613281 23.933594-2.785156-1.328125-1.449218-1.984375-4.394531-5.445313 2.214844 8.464844-.125 23.722656-.125 32.707032-1.128906-2.164063-.964844-1.226563-2.074219-3.464844-2.945312 8.191406-6.484375 9.878906-6.484375 19.5625-1.066406-3.800782-.035156-2.992188-1.222656-4.996094-2.863281 6.222656-22.101563 11.539062-14.6875 17.8125-6.691406-3.921875-9.621094-3.507812-12.65625-7.039062-1.308594.847656-2.351563 2.441406-3.5625 4.632812-11.757813-5.414062-7.554687-17.082031-16.765625-24.878906-1.59375 3.261718-.871094 2.792968-2.597656 8.113281-1.859375-7.390625-2.375-12.085937-4.472656-17.519531-1.808594 3.007812-1.644532 1.855468-4.933594 6.410156-1.359375-9-3.570313-11.132812-2.699219-17.082031-3.492187 2.457031-1.207031 1.464843-4.695313 4.503906 3.3125-23.074219 17.59375-40.113281 27.847657-34.664063zm0 0" fill="none" stroke="#000" stroke-width="1.778106"/><g fill-rule="evenodd"><path d="m120.167969 377.34375c3.035156-7.421875 5.757812-9.757812 7.722656-14.535156 3.457031-8.40625 4.019531-15.117188 6.925781-14.09375 2.902344 1.015625 2.855469 4.484375-1.027344 12.734375-3.890624 8.261719-5.710937 10.011719-13.621093 15.894531zm0 0" fill="#a70000"/><path d="m131.640625 395.929688c1.214844-6.664063 3.132813-9.089844 3.921875-13.371094 1.398438-7.542969.617188-13.160156 3.320312-12.863282 2.695313.300782 3.304688 3.140626 1.515626 10.640626-1.800782 7.503906-3.042969 9.28125-8.757813 15.59375zm0 0" fill="#a70000"/><path d="m145.359375 408.847656c.34375-6.457031 1.855469-8.976562 2.085937-13.136718.40625-7.308594-1-12.546876 1.578126-12.574219 2.574218-.03125 3.492187 2.597656 2.703124 9.921875-.792968 7.316406-1.742187 9.148437-6.367187 15.789062zm0 0" fill="#a70000"/><path d="m174.835938 366.632812c-5.636719-5.613281-9.046876-6.664062-12.675782-10.269531-6.40625-6.347656-9.5-12.296875-11.777344-10.1875-2.277343 2.117188-.910156 5.273438 5.832032 11.3125 6.742187 6.027344 9.085937 6.90625 18.621094 9.144531zm0 0" fill="#a70000"/><path d="m171.410156 388.328125c-3.667968-5.628906-6.363281-7.09375-8.738281-10.714844-4.175781-6.382812-5.605469-11.859375-7.984375-10.5-2.367188 1.359375-1.839844 4.214844 2.695312 10.394531 4.523438 6.183594 6.347657 7.316407 14.027344 10.820313zm0 0" fill="#a70000"/><path d="m738.085938 333.332031c-47.613282 47.617188-111.117188 142.855469-238.09375 142.855469-111.109376 0-190.472657-95.238281-238.09375-142.855469 47.621093-47.621093 126.984374-142.851562 238.09375-142.851562 126.976562 0 190.480468 95.230469 238.09375 142.851562zm0 0" fill="#fff" stroke="#000" stroke-width="1.679868"/><path d="m483.375 240.167969c12.671875 14.25 2.089844 19.996093 15.503906 20.933593 14.132813 1.03125 6.117188 15.054688 18.015625 15.542969 8.316407.359375-.828125 33.585938 7.179688 44.546875 8.152343 11.425782 14.980469 3.34375 15.117187 11.605469.148438 8.535156-22.191406 7.675781-22.582031 33.984375-.652344 15.160156-18.847656 16.128906-19.71875 25.878906-1.074219 9.179688 35.847656 14.328125 35.351563 22.542969-.503907 8.1875-39.867188 6.90625-41.574219 16.242187-.878907 8.390626 54.074219 15.265626 58.484375 39.527344-8.195313 2.675782-31.523438 5.199219-49.160156 5.214844-111.09375.082031-190.464844-95.246094-238.085938-142.863281 47.621094-47.613281 126.984375-142.851563 238.09375-142.851563 0 0-32.984375 30.132813-16.617188 49.6875zm0 0"/><path d="m350.789062 282.535156h11.539063v38.09375h-11.539063zm0 0" fill="#fff"/><path d="m350.789062 346.027344h11.539063v38.09375h-11.539063zm0 0" fill="#fff"/><path d="m373.878906 282.535156h11.539063v38.09375h-11.539063zm0 0" fill="#fff"/><path d="m373.878906 346.027344h11.539063v38.09375h-11.539063zm0 0" fill="#fff"/><path d="m396.957031 282.535156h11.546875v38.09375h-11.546875zm0 0" fill="#fff"/><path d="m396.957031 346.027344h11.546875v38.09375h-11.546875zm0 0" fill="#fff"/><path d="m420.050781 282.535156h11.539063v38.09375h-11.539063zm0 0" fill="#fff"/><path d="m420.050781 346.027344h11.539063v38.09375h-11.539063zm0 0" fill="#fff"/><path d="m443.140625 282.535156h11.539063v38.09375h-11.539063zm0 0" fill="#fff"/><path d="m443.140625 346.027344h11.539063v38.09375h-11.539063zm0 0" fill="#fff"/><path d="m466.21875 282.535156h11.546875v38.09375h-11.546875zm0 0" fill="#fff"/><path d="m466.21875 346.027344h11.546875v38.09375h-11.546875zm0 0" fill="#fff"/><path d="m525.390625 282.535156h11.539063v38.09375h-11.539063zm0 0"/><path d="m525.390625 346.027344h11.539063v38.09375h-11.539063zm0 0"/><path d="m548.472656 282.535156h11.546875v38.09375h-11.546875zm0 0"/><path d="m548.472656 346.027344h11.546875v38.09375h-11.546875zm0 0"/><path d="m571.558594 282.535156h11.546875v38.09375h-11.546875zm0 0"/><path d="m571.558594 346.027344h11.546875v38.09375h-11.546875zm0 0"/><path d="m594.652344 282.535156h11.542968v38.09375h-11.542968zm0 0"/><path d="m594.652344 346.027344h11.542968v38.09375h-11.542968zm0 0"/><path d="m617.734375 282.535156h11.546875v38.09375h-11.546875zm0 0"/><path d="m617.734375 346.027344h11.546875v38.09375h-11.546875zm0 0"/><path d="m640.820312 282.535156h11.546876v38.09375h-11.546876zm0 0"/><path d="m640.820312 346.027344h11.546876v38.09375h-11.546876zm0 0"/><path d="m422.996094 215.835938c-6.597656 12.761718 11.550781-4.238282 40 17.113281 5.265625 3.964843 12.828125 19.648437 12.828125 26.914062-6.058594-1.292969-16.78125-7.265625-16.78125-7.265625s12.578125 12.605469 12.578125 27.136719c-4.441406-2.78125-6.664063-2.367187-8.144532-5.777344 0 4.707031 3.953126 7.699219 3.953126 14.96875-3.214844-2.558593-5.921876-4.265625-8.640626-5.761719 4.191407 7.257813-7.648437 21.359376-1.722656 26.066407-10.363281-1.5-20.964844-8.125-25.15625-15.390625-2.230468 1.496094-2.464844 3.851562-2.554687 6.363281.324219.269531-15.773438-11.957031-14.300781-16.652344-2.15625 3.03125-2.464844 4.695313-2.953126 8.117188-5.917968-5.835938-11.335937-11.671875-13.304687-19.214844-2.636719 3.417969-2.800781 3.417969-5.429687 6.835937-1.96875-11.957031-1.96875-11.53125 1.980468-21.769531-2.800781 1.847657-5.097656 3.695313-7.894531 5.972657 2.652344-17.308594 16.136719-37.605469 35.542969-47.65625zm0 0" fill="#3d5da7"/></g><path d="m422.996094 215.835938c-6.597656 12.761718 11.550781-4.238282 40 17.117187 5.265625 3.960937 12.828125 19.644531 12.828125 26.910156-6.058594-1.292969-16.78125-7.265625-16.78125-7.265625s12.578125 12.605469 12.578125 27.136719c-4.441406-2.78125-6.664063-2.367187-8.144532-5.777344 0 4.707031 3.953126 7.699219 3.953126 14.96875-3.214844-2.554687-5.921876-4.265625-8.640626-5.765625 4.191407 7.261719-7.648437 21.367188-1.722656 26.070313-10.363281-1.5-20.964844-8.125-25.15625-15.390625-2.230468 1.496094-2.464844 3.847656-2.554687 6.363281.324219.269531-15.773438-11.953125-14.300781-16.648437-2.15625 3.027343-2.464844 4.695312-2.953126 8.113281-5.917968-5.835938-11.335937-11.671875-13.304687-19.214844-2.636719 3.417969-2.800781 3.417969-5.429687 6.835937-1.96875-11.957031-1.96875-11.53125 1.980468-21.769531-2.800781 1.847657-5.097656 3.695313-7.894531 5.972657 2.652344-17.308594 16.136719-37.605469 35.542969-47.65625zm0 0" fill="none" stroke="#000" stroke-width="1.37736"/><path d="m406.730469 278.171875c1.046875-8.785156 3.351562-12.097656 4.035156-17.761719 1.230469-9.960937-.226563-17.238281 3.304687-17.050781 3.523438.179687 4.542969 3.855469 2.800782 13.792969-1.742188 9.929687-3.214844 12.34375-10.140625 21.019531zm0 0" fill="#a70000" fill-rule="evenodd"/><path d="m425.152344 294.269531c-.714844-7.417969.652344-10.578125.199218-15.355469-.78125-8.40625-3.378906-14.105468-.304687-14.625 3.078125-.519531 4.632813 2.296876 4.964844 10.785157.324219 8.484375-.496094 10.75-4.859375 19.195312zm0 0" fill="#a70000" fill-rule="evenodd"/><path d="m453.898438 307.398438c-3.125-6.414063-5.8125-8.324219-7.828126-12.460938-3.566406-7.257812-4.3125-13.191406-7.054687-12.117188-2.753906 1.074219-2.605469 4.140626 1.367187 11.253907 3.96875 7.105469 5.765626 8.554687 13.515626 13.324219zm0 0" fill="#a70000" fill-rule="evenodd"/><path d="m463.84375 249.917969c-7.96875-4.191407-12.054688-4.238281-17.1875-6.933594-9.035156-4.726563-14.300781-10.058594-16.164062-7.128906-1.871094 2.9375.628906 5.859375 9.9375 10.15625 9.316406 4.289062 12.183593 4.492187 23.414062 3.90625zm0 0" fill="#a70000" fill-rule="evenodd"/><path d="m466.757812 273.925781c-5.796874-4.824219-9.222656-5.535156-12.964843-8.632812-6.59375-5.445313-9.863281-10.792969-12.070313-8.628907-2.195312 2.164063-.730468 5.03125 6.1875 10.164063 6.914063 5.128906 9.273438 5.761719 18.847656 7.097656zm0 0" fill="#a70000" fill-rule="evenodd"/></svg>