<svg viewBox="0 0 1000 500" xmlns="http://www.w3.org/2000/svg"><path d="m0 0h1000v500h-1000z" fill="#fff"/><path d="m0 334.960938h1000v165.039062h-1000zm0 0" fill="#da000c" fill-rule="evenodd"/><path d="m460.507812 444.457031v15.6875h9.828126v-7.875h13.367187v7.875h10.558594v-15.6875zm0 21.609375v15.746094h33.753907v-15.746094h-10.558594v7.867188h-13.367187v-7.867188zm0 0" fill="#f8d80e" fill-rule="evenodd"/><path d="m460.507812 444.457031v15.6875h9.828126v-7.875h13.367187v7.875h10.558594v-15.6875zm0 0" fill="none" stroke="#000" stroke-width="1.953125"/><path d="m460.507812 466.066406v15.746094h33.753907v-15.746094h-10.558594v7.867188h-13.367187v-7.867188zm0 0" fill="none" stroke="#000" stroke-width="1.953125"/><path d="m383.925781 227.152344h232.148438v85.925781h-232.148438zm0 0" fill-rule="evenodd"/><path d="m448.867188 300.515625h-76.308594l-16.914063 11.132813v11.800781h93.222657zm0 0" fill="#da000c" fill-rule="evenodd"/><path d="m448.867188 300.515625h-76.308594l-16.914063 11.132813v11.800781h93.222657" fill="none" stroke="#000" stroke-linecap="round" stroke-width="1.953125"/><path d="m551.132812 300.515625h76.308594l16.914063 11.132813v11.800781h-93.222657zm0 0" fill="#da000c" fill-rule="evenodd"/><g stroke="#000"><path d="m551.132812 300.515625h76.308594l16.914063 11.132813v11.800781h-93.222657" fill="none" stroke-linecap="round" stroke-width="1.953125"/><path d="m355.644531 311.648438h288.710938" fill="none" stroke-linecap="round" stroke-width="1.953125"/><path d="m446.410156 306.273438-19.105468 9.214843v13.734375h145.390624v-13.734375l-19.105468-9.214843zm0 0" fill="#da000c" fill-rule="evenodd" stroke-width="1.953125"/><path d="m533.785156 293.027344c-2.621094.777344-5.9375 2.453125-10.011718 4.703125-4.070313 2.25-8.730469 5.085937-13.125 7.992187-3.257813 2.160156-5.976563 4.3125-8.664063 6.410156-.9375.734376-2.234375 1.496094-3.054687 2.199219-.957032.820313-1.609376 1.601563-2.378907 2.375-.5.515625-1.167969 1.027344-1.585937 1.53125-1.054688 1.269531-2.074219 2.371094-2.074219 4.703125 0 .417969.007813.84375.058594 1.277344 1.511719-1.816406 3.6875-3.078125 6.101562-3.359375.015625.003906.054688.003906.066407 0 .058593.003906.179687 0 .242187 0h.058594c.242187-.015625.429687 0 .675781 0 .242188 0 .429688-.015625.667969 0 .367187.03125.691406.117187 1.039062.1875.132813-.125.234375-.246094.367188-.367187.445312-.410157.683593-.699219 1.222656-1.160157 1.070313-.921875 2.839844-2.082031 4.207031-3.113281 2.210938-1.671875 4.21875-3.269531 6.835938-5.003906 4.238281-2.808594 8.75-5.542969 12.636718-7.691406 3.882813-2.148438 7.328126-3.695313 8.667969-4.09375zm0 0" fill="#f8d80e" fill-rule="evenodd" stroke-width="1.5"/><path d="m508.59375 307.40625v7.636719" fill="none" stroke-width="1.953125"/><path d="m513.316406 304.074219v7.582031" fill="none" stroke-width="1.953125"/><path d="m518.03125 301.132812v7.535157" fill="none" stroke-width="1.953125"/><path d="m522.753906 298.226562v7.78125" fill="none" stroke-width="1.953125"/><path d="m427.285156 315.46875h145.429688" fill="none" stroke-width="1.953125"/><path d="m416.933594 251.164062c10.980468 0 19.957031 9.152344 19.957031 20.441407v28.875h14.339844v-109.375h-78.671875v109.375h24.414062v-28.875c0-10.84375 8.820313-20.441407 19.960938-20.441407zm0 0" fill="#da000c" fill-rule="evenodd" stroke-linecap="round" stroke-width="1.953125"/></g><path d="m399.46875 117.113281h36.179688v66.324219h-36.179688zm0 0" fill-rule="evenodd"/><path d="m435.546875 173.152344h-31.660156v-11.230469h-23.214844v11.230469h-15.742187v-11.230469h-9.402344v20.394531h80.019531zm-70.617187 9.082031h68.304687v8.871094h-68.304687zm0 0" fill="#da000c" fill-rule="evenodd"/><path d="m435.546875 173.152344h-31.660156v-11.230469h-23.214844v11.230469h-15.742187v-11.230469h-9.402344v20.394531h80.019531" fill="none" stroke="#000" stroke-width="1.953125"/><path d="m364.929688 182.234375h68.304687v8.871094h-68.304687zm0 0" fill="none" stroke="#000" stroke-width="1.953125"/><path d="m392.03125 93.015625v68.90625h11.855469v-18.914063c0-7.089843 5.003906-12.890624 12.007812-13.246093.222657-.011719.441407 0 .667969 0 7.320312 0 13.246094 5.925781 13.246094 13.246093v18.914063h11.296875v-68.90625zm0 0" fill="#da000c" fill-rule="evenodd" stroke="#000" stroke-width="1.953125"/><path d="m470.316406 74.902344h57.285156v104.015625h-57.285156zm0 0" fill-rule="evenodd"/><path d="m466.308594 74.953125v87.035156h18.1875v-25.816406c0-5.957031 3.8125-14.222656 15.503906-14.222656s15.503906 8.265625 15.503906 14.222656v25.816406h18.1875v-87.035156zm30.882812 9.761719h5.617188v29.789062h-5.617188zm-16.113281 5.863281h5.679687v21.785156h-5.679687zm32.164063 0h5.679687v21.785156h-5.679687zm0 0" fill="#da000c" fill-rule="evenodd"/><path d="m466.308594 74.953125v87.035156h18.1875v-25.816406c0-5.957031 3.8125-14.222656 15.503906-14.222656s15.503906 8.265625 15.503906 14.222656v25.816406h18.1875v-87.035156zm0 0" fill="none" stroke="#000" stroke-width="1.953125"/><path d="m497.191406 84.714844h5.617188v29.789062h-5.617188zm0 0" fill="none" stroke="#000" stroke-width="1.953125"/><path d="m481.078125 90.578125h5.679687v21.785156h-5.679687zm0 0" fill="none" stroke="#000" stroke-width="1.953125"/><path d="m513.242188 90.578125h5.679687v21.785156h-5.679687zm0 0" fill="none" stroke="#000" stroke-width="1.953125"/><path d="m460.144531 62.441406v12.386719h79.710938v-12.386719zm0 0" fill="#da000c" fill-rule="evenodd" stroke="#000" stroke-linecap="round" stroke-width="1.953125"/><path d="m452.636719 48.039062v14.402344h94.726562v-14.402344h-11.90625v7.925782h-13.425781v-7.925782h-15.316406v7.925782h-13.429688v-7.925782h-15.316406v7.925782h-13.425781v-7.925782zm0 0" fill="#da000c" fill-rule="evenodd" stroke="#000" stroke-linecap="round" stroke-width="1.953125"/><path d="m387.753906 83.679688v9.335937h57.128906v-9.335937zm0 0" fill="#da000c" fill-rule="evenodd" stroke="#000" stroke-linecap="round" stroke-width="1.953125"/><path d="m380.429688 65.796875v17.882813h68.546874v-17.882813h-10.558593v9.09375h-12.757813v-9.09375h-19.46875v9.09375h-12.757812v-9.09375zm0 0" fill="#da000c" fill-rule="evenodd" stroke="#000" stroke-linecap="round" stroke-width="1.953125"/><path d="m494.242188 378.226562h9.746093v113.507813h-9.746093zm0 0" fill="#f8d80e" fill-rule="evenodd" stroke="#000" stroke-width="1.953125"/><path d="m499.117188 350.398438 20.75 12.089843-20.75 12.023438-20.753907-12.023438zm-27.773438 7.753906h-5.429688v8.667968h5.429688l27.773438 16.113282 27.769531-16.113282h5.433593v-8.667968h-5.433593l-27.769531-16.109375zm0 0" fill="#f8d80e" fill-rule="evenodd"/><path d="m499.117188 350.398438 20.75 12.089843-20.75 12.023438-20.753907-12.023438zm0 0" fill="none" stroke="#000" stroke-width="2"/><path d="m471.34375 358.152344h-5.429688v8.667968h5.429688l27.773438 16.113282 27.769531-16.113282h5.433593v-8.667968h-5.433593l-27.769531-16.109375zm0 0" fill="none" stroke="#000" stroke-width="2"/><path d="m466.582031 293.269531-2.320312 6.476563c7.5 2.710937 18.144531 7.980468 26.675781 13.121094 4.261719 2.574218 7.992188 5.097656 10.554688 7.203124 1.285156 1.046876 2.269531 2.023438 2.808593 2.683594.070313.082032.148438.179688.1875.242188.003907.015625-.003906.050781 0 .058594.042969.09375.089844.1875.121094.246093-.050781.4375-.125.90625-.246094 1.21875-.007812.03125-.050781.105469-.0625.128907-.003906.011718.003907.050781 0 .058593-.003906.007813-.054687.054688-.058593.058594-.042969.054687-.078126.136719-.121094.1875-.011719.007813-.054688.046875-.0625.058594-.011719.011719-.050782.050781-.058594.0625-.023438.019531-.097656.042969-.121094.0625-.046875.023437-.132812.097656-.1875.117187-.277344.117188-.734375.1875-1.464844.1875-.429687 0-.78125-.066406-1.035156-.125-.097656-.023437-.230468-.027344-.308594-.0625-.023437-.011718-.097656-.050781-.121093-.058594-.0625-.035156-.132813-.082031-.179688-.121093-.019531-.015625-.054687-.054688-.066406-.0625-.003906-.007813-.050781-.050781-.058594-.058594-.011719-.027344-.046875-.105469-.0625-.125-.003906 0-.054687 0-.058593 0-.003907 0-.050782 0-.0625 0-.015626 0-.042969 0-.058594 0-.035156 0-.097656 0-.121094 0-.191406 0-.367188-.019531-.550781 0-2.242188.226563-4.144531 1.828125-4.761719 4.03125v.058594c.007812.007812.050781.050781.0625.0625.027344.027343.085938.085937.121094.121093 1.570312 1.894532 4.257812 3.171876 7.261718 3.171876 3.164063 0 5.917969-1.320313 7.445313-3.292969 1.53125-1.972657 1.894531-4.214844 1.894531-6.039063 0-2.136718-.957031-3.371094-1.953125-4.582031-.996093-1.210937-2.289062-2.375-3.785156-3.601563-2.988281-2.453124-6.902344-5.070312-11.351563-7.75-8.894531-5.367187-19.691406-10.769531-27.894531-13.738281zm0 0" fill="#f8d80e" fill-rule="evenodd" stroke="#000" stroke-width="1.5"/><path d="m496.191406 308.664062-.609375 6.519532zm0 0" fill-rule="evenodd"/><path d="m496.191406 308.664062-.609375 6.519532" fill="none" stroke="#000" stroke-width="1.953125"/><path d="m501.625 311.992188-1.683594 6.386718zm0 0" fill-rule="evenodd"/><path d="m501.625 311.992188-1.683594 6.386718" fill="none" stroke="#000" stroke-width="1.953125"/><path d="m507.429688 316.429688-3.535157 4.957031zm0 0" fill-rule="evenodd"/><path d="m507.429688 316.429688-3.535157 4.957031" fill="none" stroke="#000" stroke-width="1.953125"/><path d="m509.207031 328.476562-5.097656-2.734374zm0 0" fill-rule="evenodd"/><path d="m509.207031 328.476562-5.097656-2.734374" fill="none" stroke="#000" stroke-width="1.953125"/><path d="m510.796875 323.105469-5.851563.546875zm0 0" fill-rule="evenodd"/><path d="m510.796875 323.105469-5.851563.546875" fill="none" stroke="#000" stroke-width="1.953125"/><path d="m503.253906 331.574219-.402344-5.144531zm0 0" fill-rule="evenodd"/><path d="m503.253906 331.574219-.402344-5.144531" fill="none" stroke="#000" stroke-width="1.953125"/><path d="m501.109375 325.695312-4.832031 3.558594zm0 0" fill-rule="evenodd"/><path d="m501.109375 325.695312-4.832031 3.558594" fill="none" stroke="#000" stroke-width="1.953125"/><path d="m477.886719 298.707031v6.082031" fill="none" stroke="#000" stroke-width="1.953125"/><path d="m490.160156 305.167969v6.898437" fill="none" stroke="#000" stroke-width="1.953125"/><path d="m484.023438 301.9375v6.484375" fill="none" stroke="#000" stroke-width="1.953125"/><path d="m498.722656 320.859375c-4.53125.699219-8 4.820313-8 9.648437v21.542969c0 5.308594 4.214844 9.707031 9.398438 9.707031.136718 0 .234375.003907.367187 0 .132813.003907.230469 0 .367188 0 3.6875 0 6.882812-2.242187 8.421875-5.433593l-3.359375-2.019531c-.832031 2.074218-2.792969 3.484374-5.0625 3.484374-.089844 0-.171875 0-.246094 0-.023437 0-.085937 0-.121094 0-.035156.003907-.09375 0-.121093 0-.074219 0-.15625 0-.246094 0-3.027344 0-5.492188-2.496093-5.492188-5.738281v-21.542969c0-3.242187 2.464844-5.679687 5.492188-5.679687h.246094c.027343 0 .085937-.003906.121093 0h.121094.246094c.847656 0 1.660156.199219 2.378906.554687.007813 0 .058594-.007812.0625 0 .160156-.03125.320313-.085937.425781-.128906.050782-.027344.15625-.097656.183594-.117187.011719-.015625.046875-.054688.058594-.0625h.0625c.011718-.011719.050781-.050781.0625-.0625.011718-.011719.054687-.054688.058594-.058594.042968-.050781.089843-.136719.125-.1875 0-.003906 0-.054687 0-.058594l.0625-.058593c.003906-.019532.042968-.09375.058593-.128907.117188-.3125.195313-.78125.246094-1.21875-.03125-.058593-.082031-.152343-.125-.246093 0 0 0-.042969 0-.058594-.042969-.0625-.125-.167969-.179687-.242188-.402344-.484375-1.078126-1.105468-1.894532-1.832031-.003906 0-.054687 0-.058594 0-.058593-.011719-.191406-.046875-.242187-.0625-.011719 0-.054687 0-.066406 0-.027344.003906-.101563.003906-.121094 0-.007813.003906-.054687.003906-.058594 0-.039062.003906-.101562 0-.128906 0-.058594.003906-.183594.003906-.242187 0-.234376-.015625-.425782 0-.667969 0-.152344 0-.230469.003906-.367188 0-.136719.003906-.214843 0-.367187 0-.242188 0-.433594-.015625-.667969 0-.058594.003906-.1875.003906-.246094 0-.023437 0-.085937.003906-.125 0-.015625.003906-.046875 0-.058593 0-.023438.003906-.101563.003906-.121094 0-.011719 0-.054688 0-.066406 0-.03125.007813-.082032-.003906-.113282 0zm11.289063 7.632813c-.097657.144531-.195313.339843-.304688.488281-.816406 1.046875-1.976562 1.921875-3.359375 2.503906v14.765625l3.90625 2.261719v-18.003907c0-.6875-.050781-1.367187-.183594-2.015624-.007812 0-.054687 0-.058593 0zm0 0" fill="#f8d80e" fill-rule="evenodd"/><path d="m498.722656 320.859375c-4.53125.699219-8 4.820313-8 9.648437v21.542969c0 5.308594 4.214844 9.707031 9.398438 9.707031.136718 0 .234375.003907.367187 0 .132813.003907.230469 0 .367188 0 3.6875 0 6.882812-2.242187 8.421875-5.433593l-3.359375-2.019531c-.832031 2.074218-2.792969 3.484374-5.0625 3.484374-.089844 0-.171875 0-.246094 0-.023437 0-.085937 0-.121094 0-.035156.003907-.09375 0-.121093 0-.074219 0-.15625 0-.246094 0-3.027344 0-5.492188-2.496093-5.492188-5.738281v-21.542969c0-3.242187 2.464844-5.679687 5.492188-5.679687h.246094c.027343 0 .085937-.003906.121093 0h.121094.246094c.847656 0 1.660156.199219 2.378906.554687.007813 0 .058594-.007812.0625 0 .160156-.03125.320313-.085937.425781-.128906.050782-.027344.15625-.097656.183594-.117187.011719-.015625.046875-.054688.058594-.0625h.0625c.011718-.011719.050781-.050781.0625-.0625.011718-.011719.054687-.054688.058594-.058594.042968-.050781.089843-.136719.125-.1875 0-.003906 0-.054687 0-.058594l.0625-.058593c.003906-.019532.042968-.09375.058593-.128907.117188-.3125.195313-.78125.246094-1.21875-.03125-.058593-.082031-.152343-.125-.246093 0 0 0-.042969 0-.058594-.042969-.0625-.125-.167969-.179687-.242188-.402344-.484375-1.078126-1.105468-1.894532-1.832031-.003906 0-.054687 0-.058594 0-.058593-.011719-.191406-.046875-.242187-.0625-.011719 0-.054687 0-.066406 0-.027344.003906-.101563.003906-.121094 0-.007813.003906-.054687.003906-.058594 0-.039062.003906-.101562 0-.128906 0-.058594.003906-.183594.003906-.242187 0-.234376-.015625-.425782 0-.667969 0-.152344 0-.230469.003906-.367188 0-.136719.003906-.214843 0-.367187 0-.242188 0-.433594-.015625-.667969 0-.058594.003906-.1875.003906-.246094 0-.023437 0-.085937.003906-.125 0-.015625.003906-.046875 0-.058593 0-.023438.003906-.101563.003906-.121094 0-.011719 0-.054688 0-.066406 0-.03125.007813-.082032-.003906-.113282 0zm0 0" fill="none" stroke="#000" stroke-width="2"/><path d="m510.011719 328.492188c-.097657.144531-.195313.339843-.304688.488281-.816406 1.046875-1.976562 1.921875-3.359375 2.503906v14.765625l3.90625 2.261719v-18.003907c0-.6875-.050781-1.367187-.183594-2.015624-.007812 0-.054687 0-.058593 0zm0 0" fill="none" stroke="#000" stroke-width="2"/><path d="m583.066406 251.164062c-10.980468 0-19.957031 9.152344-19.957031 20.441407v28.875h-14.339844v-109.375h78.671875v109.375h-24.414062v-28.875c0-10.84375-8.820313-20.441407-19.960938-20.441407zm0 0" fill="#da000c" fill-rule="evenodd" stroke="#000" stroke-linecap="round" stroke-width="1.953125"/><path d="m435.058594 191.105469v8.96875h129.882812v-8.96875zm0 0" fill="#da000c" fill-rule="evenodd" stroke="#000" stroke-width="1.953125"/><path d="m564.351562 117.113281h36.179688v66.324219h-36.179688zm0 0" fill-rule="evenodd"/><path d="m564.453125 173.152344h31.660156v-11.230469h23.214844v11.230469h15.742187v-11.230469h9.402344v20.394531h-80.019531zm70.617187 9.082031h-68.304687v8.871094h68.304687zm0 0" fill="#da000c" fill-rule="evenodd"/><path d="m564.453125 173.152344h31.660156v-11.230469h23.214844v11.230469h15.742187v-11.230469h9.402344v20.394531h-80.019531" fill="none" stroke="#000" stroke-width="1.953125"/><path d="m635.070312 182.234375h-68.304687v8.871094h68.304687zm0 0" fill="none" stroke="#000" stroke-width="1.953125"/><path d="m607.96875 93.015625v68.90625h-11.855469v-18.914063c0-7.089843-5.003906-12.890624-12.007812-13.246093-.222657-.011719-.441407 0-.667969 0-7.320312 0-13.246094 5.925781-13.246094 13.246093v18.914063h-11.296875v-68.90625zm0 0" fill="#da000c" fill-rule="evenodd" stroke="#000" stroke-width="1.953125"/><path d="m429.746094 161.921875v29.183594h140.507812v-29.183594h-13.308594v11.230469h-17.699218v-11.230469h-23.742188v11.230469h-31.007812v-11.230469h-23.742188v11.230469h-17.699218v-11.230469zm0 0" fill="#da000c" fill-rule="evenodd" stroke="#000" stroke-width="1.953125"/><path d="m612.246094 83.679688v9.335937h-57.128906v-9.335937zm0 0" fill="#da000c" fill-rule="evenodd" stroke="#000" stroke-linecap="round" stroke-width="1.953125"/><path d="m619.570312 65.796875v17.882813h-68.546874v-17.882813h10.558593v9.09375h12.757813v-9.09375h19.46875v9.09375h12.757812v-9.09375zm0 0" fill="#da000c" fill-rule="evenodd" stroke="#000" stroke-linecap="round" stroke-width="1.953125"/><path d="m494.242188 388.046875h9.746093v97.773437h-9.746093zm0 0" fill="#f8d80e" fill-rule="evenodd" stroke="#000" stroke-width="1.953125"/><path d="m446.65625 200.074219v106.136719h25.082031v-39.730469c0-18.714844 12.496094-27.527344 28.261719-27.527344 15.15625 0 28.261719 8.8125 28.261719 27.527344v39.730469h25.082031v-106.136719zm0 0" fill="#da000c" fill-rule="evenodd" stroke="#000" stroke-width="1.953125"/></svg>