<svg viewBox="0 0 1000 667" xmlns="http://www.w3.org/2000/svg" xmlns:xlink="http://www.w3.org/1999/xlink"><clipPath id="a"><path d="m0 0h1000v666.71875h-1000zm0 0"/></clipPath><clipPath id="b"><path d="m416 0h168v666.71875h-168zm0 0"/></clipPath><g clip-path="url(#a)"><path d="m0 666.667969v-666.667969h1000v666.667969zm0 0" fill="#fff" fill-rule="evenodd"/></g><g clip-path="url(#b)"><path d="m500 0v666.667969" fill="none" stroke="#e8112d" stroke-width="166.666667"/></g><path d="m0 333.332031h1000" fill="none" stroke="#e8112d" stroke-width="166.666667"/><g fill="#f9dd16" fill-rule="evenodd"><path d="m250 388.890625 27.777344-27.78125h250v-55.554687h-250l-27.777344-27.777344zm0 0"/><path d="m444.445312 83.332031 27.777344 27.777344v250h55.554688v-250l27.777344-27.777344zm0 0"/><path d="m555.554688 583.332031-27.777344-27.777343v-250h-55.554688v250l-27.777344 27.777343zm0 0"/><path d="m750 277.777344-27.777344 27.777344h-250v55.554687h250l27.777344 27.78125zm0 0"/></g></svg>