<svg viewBox="0 0 1000 500" xmlns="http://www.w3.org/2000/svg"><g fill-rule="evenodd"><path d="m0 0h333.332031v500h-333.332031zm0 0" fill="#ce1126"/><path d="m333.332031 0h666.667969v250h-666.667969zm0 0" fill="#fcd116"/><path d="m333.332031 250h666.667969v250h-666.667969zm0 0" fill="#009e49"/><path d="m166.667969 166.667969-25.753907 79.253906 39.628907 12.875zm0 0"/><path d="m166.667969 166.667969 25.75 79.253906-39.625 12.875zm0 0"/><path d="m245.921875 224.246094h-83.332031v41.667968zm0 0"/><path d="m245.921875 224.246094-67.417969 48.984375-24.492187-33.707031zm0 0"/><path d="m215.648438 317.417969-25.75-79.253907-39.628907 12.875zm0 0"/><path d="m215.648438 317.417969-67.417969-48.980469 24.492187-33.710938zm0 0"/><path d="m117.683594 317.417969 67.417968-48.980469-24.488281-33.710938zm0 0"/><path d="m117.683594 317.417969 25.753906-79.253907 39.628906 12.875zm0 0"/><path d="m87.410156 224.246094 67.421875 48.984375 24.488281-33.707031zm0 0"/><path d="m87.410156 224.246094h83.332032v41.667968zm0 0"/></g></svg>