<svg viewBox="0 0 1000 667" xmlns="http://www.w3.org/2000/svg" xmlns:xlink="http://www.w3.org/1999/xlink"><clipPath id="a"><path d="m0 0h1000v666.71875h-1000zm0 0"/></clipPath><g clip-path="url(#a)"><path d="m0 666.667969v-666.667969h1000v666.667969zm0 0" fill="#de2910" fill-rule="evenodd"/></g><g fill-rule="evenodd"><path d="m499.960938 333.234375c-116.957032-49.429687-65.113282-201.757813 46.742187-194.09375-22.625 11.625-25.90625 33.324219-12.984375 53.425781 14.46875 22.511719-1.335938 58.726563-20.894531 67.523438-32.148438 14.472656-38.589844 53.054687-12.863281 73.144531zm0 0" fill="#fff"/><path d="m493.636719 223.242188-6.574219 10.328124-2.390625-12.015624-11.863281-3.066407 10.699218-5.988281-.75-12.222656 8.984376 8.320312 11.394531-4.492187-5.121094 11.125 7.777344 9.449219zm0 0" fill="#de2910"/><path d="m500.625 331.957031c-14.148438-7.261719-25.554688-22.398437-30.523438-40.480469-5.679687-20.746093-2.414062-43.050781 8.984376-61.15625l-2.457032-1.542968c-11.824218 18.808594-15.214844 41.929687-9.316406 63.464844 5.25 19.132812 16.90625 34.546874 31.988281 42.289062zm0 0" fill="#de2910"/><path d="m500.082031 333.269531c10.867188-126.515625 171.761719-124.273437 199.042969-15.527343-18.054688-17.925782-39.707031-14.339844-54.832031 4.160156-16.933594 20.71875-56.253907 16.878906-70.671875.992187-23.699219-26.105469-62.378906-20.300781-73.539063 10.375zm0 0" fill="#fff"/><path d="m602.734375 293.261719-11.855469-3.066407 10.695313-5.976562-.753907-12.234375 9 8.320313 11.390626-4.484376-5.136719 11.117188 7.796875 9.449219-12.164063-1.4375-6.582031 10.320312zm0 0" fill="#de2910"/><path d="m501.503906 333.5c2.53125-15.699219 13.398438-31.222656 29.066406-41.535156 17.96875-11.816406 40.191407-15.597656 60.933594-10.355469l.714844-2.8125c-21.542969-5.429687-44.585938-1.511719-63.238281 10.75-16.570313 10.910156-27.632813 26.757813-30.335938 43.488281zm0 0" fill="#de2910"/><path d="m500.085938 333.386719c123.675781-28.757813 171.269531 124.953125 76.273437 184.507812 11.472656-22.710937 1.371094-42.195312-20.902344-50.863281-24.933593-9.703125-33.4375-48.285156-22.78125-66.90625 17.503907-30.605469.035157-65.605469-32.589843-66.738281zm0 0" fill="#fff"/><path d="m569.855469 418.660156-.746094-12.226562 8.988281 8.324218 11.402344-4.492187-5.128906 11.125 7.785156 9.453125-12.160156-1.453125-6.582032 10.335937-2.390624-12.015624-11.851563-3.070313zm0 0" fill="#de2910"/><path d="m500.308594 334.8125c15.710937-2.4375 33.832031 3.101562 48.480468 14.8125 16.792969 13.4375 27.257813 33.402344 28.679688 54.753906l2.898438-.191406c-1.492188-22.167969-12.34375-42.871094-29.765626-56.824219-15.5-12.390625-33.988281-18.015625-50.738281-15.414062zm0 0" fill="#de2910"/><path d="m499.976562 333.4375c65.566407 108.734375-65.910156 201.496094-151.910156 129.550781 25.148438 3.894531 40.558594-11.734375 41.917969-35.59375 1.519531-26.714843 35.589844-46.726562 56.59375-42.339843 34.515625 7.1875 62.402344-20.242188 53.398437-51.617188zm0 0" fill="#fff"/><path d="m440.441406 426.140625 11.390625-4.488281-5.136719 11.121094 7.796876 9.453124-12.167969-1.445312-6.582031 10.332031-2.375-12.011719-11.863282-3.066406 10.683594-5.988281-.742188-12.21875zm0 0" fill="#de2910"/><path d="m498.6875 334.082031c7.179688 14.1875 7.507812 33.136719.894531 50.6875-7.597656 20.125-23.34375 36.25-43.207031 44.195313l1.074219 2.699218c20.621093-8.269531 36.957031-24.984374 44.839843-45.871093 7-18.566407 6.636719-37.894531-1.015624-53.019531zm0 0" fill="#de2910"/><path d="m499.898438 333.34375c-83.15625 95.960938-212.007813-.421875-170.15625-104.4375 4.0625 25.113281 23.691406 34.941406 46.804687 28.863281 25.878906-6.808593 55.433594 19.410157 57.757813 40.734375 3.824218 35.046875 38.535156 53.089844 65.59375 34.839844zm0 0" fill="#fff"/><path d="m393.332031 305.367188 7.792969 9.445312-12.171875-1.445312-6.578125 10.335937-2.390625-12.023437-11.851563-3.0625 10.6875-5.976563-.75-12.222656 8.996094 8.308593 11.386719-4.476562zm0 0" fill="#de2910"/><path d="m498.882812 332.3125c-11.28125 11.214844-29.195312 17.382812-47.933593 16.519531-21.484375-1-41.683594-11.007812-55.382813-27.441406l-2.230468 1.855469c14.238281 17.058594 35.183593 27.433594 57.476562 28.472656 19.824219.921875 38.085938-5.398438 50.109375-17.347656zm0 0" fill="#de2910"/></g></svg>