<svg viewBox="0 0 1000 600" xmlns="http://www.w3.org/2000/svg"><path d="m0 0h1000v600h-1000z" fill="#fff"/><path d="m0 0v38.539062l435.414062 261.460938-435.414062 261.460938v38.539062h65.625l434.375-261.460938 434.375 261.460938h65.625v-38.539062l-435.414062-261.460938 435.414062-261.460938v-38.539062h-65.625l-434.375 261.460938-434.375-261.460938zm0 0" fill="#df112d" fill-rule="evenodd"/><path d="m552.324219 89.765625c12.851562 52.035156 5.804687 116.304687-52.242188 151.957031-58.046875-35.652344-65.097656-99.921875-52.242187-151.957031 13.683594-12.4375 75.875-20.105469 104.484375 0zm0 0" fill="#e8112d" fill-rule="evenodd" stroke="#000" stroke-width=".509025"/><path d="m500 79.316406c21.277344 0 41.097656 5.636719 52.785156 12.933594 2.289063-17.9375 10.425782-35.878906 20.023438-49.441406-10.011719-.207032-14.503906 5.113281-14.601563 10.640625-2.503906-7.089844-12.3125-6.675781-15.335937-2.8125 10.953125 7.402343 2.503906 20.542969-7.402344 17.835937-4.660156-1.273437-7.113281-4.523437-7.988281-9.234375 1.074219-.066406 2.132812-.464843 3.03125-1.191406 2.3125-1.871094 2.660156-5.261719.785156-7.574219-1.867187-2.308594-5.257813-2.660156-7.570313-.789062-2.308593 1.875-2.660156 5.269531-.785156 7.578125.609375.753906 1.394532 1.292969 2.242188 1.621093-3.132813 5.109376-8.75 6.644532-12.769532 5.519532-5.214843-1.460938-7.410156-6.15625-7.410156-10.324219 0-10.851563 10.429688-12.519531 13.566406-10.640625-.210937-7.304688-11.683593-13.144531-15.234374-7.09375 3.964843-7.097656 3.753906-17.109375-3.335938-23.785156-7.089844 6.675781-7.304688 16.6875-3.335938 23.785156-3.550781-6.050781-15.023437-.210938-15.234374 7.09375 3.128906-1.878906 13.566406-.210938 13.566406 10.640625 0 4.167969-2.195313 8.863281-7.410156 10.324219-4.019532 1.125-9.636719-.410156-12.777344-5.519532.855468-.328124 1.636718-.867187 2.25-1.621093 1.871094-2.308594 1.519531-5.703125-.789063-7.578125-2.308593-1.871094-5.703125-1.519532-7.574219.789062-1.875 2.3125-1.519531 5.703125.792969 7.574219.898438.726563 1.960938 1.125 3.03125 1.191406-.875 4.710938-3.335937 7.960938-7.988281 9.234375-9.90625 2.707032-18.355469-10.433594-7.40625-17.835937-3.019531-3.863281-12.828125-4.277344-15.332031 2.8125-.101563-5.527344-4.585938-10.847657-14.601563-10.640625 9.597656 13.5625 17.730469 31.503906 20.023438 49.441406 11.6875-7.296875 31.507812-12.933594 52.785156-12.933594zm0 0" fill="#f9dd16" fill-rule="evenodd" stroke="#000" stroke-width=".509025"/><path d="m544.144531 130.351562c-1.285156.308594-1.285156 1.957032-1.953125 1.957032 3.335938-.085938 4.953125-1.003906 5.960938-2.691406-.730469.675781-.089844 1.960937-.335938 2.269531 2.449219-.863281 3.613282-2.941407 2.761719-4.347657.542969.796876 2.136719 1.222657 2.625 1.285157-1.714844-1.347657-.488281-4.410157-3.242187-6 .917968-.058594 2.695312.980469 3.183593 2.203125-.429687-2.753906-.859375-4.53125-3.125-6.058594.246094.273438 1.53125.519531 2.082031 0-1.464843-.917969-1.898437-2.449219-1.769531-3.425781.171875-1.371094-.738281-1.65625-2.449219-1.226563-1.546874.386719-5.082031.609375-7.164062.609375-4.285156 0-8.019531 0-11.570312-2.445312 5.328124 2.203125 12.121093-2.445313 12.121093-6.304688 0-4.285156-5.261719-7.773437-15.914062-5.449219-10.648438 2.328126-23.621094 1.347657-23.621094-2.203124 0-3.546876 9.300781-4.035157 14.074219-3.304688 4.773437.738281 8.199218 1.226562 17.136718-1.957031-2.203124.859375-9.304687 1.101562-14.933593-.488281-5.628907-1.59375-19.460938-1.59375-19.585938 5.875-.121093 7.464843 14.726563 6.785156 27.546875 4.898437 7.460938-1.105469 11.382813-.367187 11.382813 2.078125 0 2.324219-6.859375 3.304688-12.121094 2.695312-5.261719-.617187-10.648437-.492187-16.894531 1.34375-5.210938 1.53125-8.808594 0-14.566406.980469-2.789063.472657-9.542969 0-12.878907-5.507812-2.058593 1.46875-8.238281 4.546875-9.273437 7.542969-1.476563 2.753906-.492188 5.492187 1.464844 8.183593 2.464843 3.390625-1.222657 2.875-3.851563 3.003907-3.609375.167968-8.4375-.386719-10.957031-3.246094-2.230469-2.535156-5.207032-4.566406-7.578125-2.6875-1.226563.96875-.050781 2.242187.910156 1.886718.960937-.359374 2.09375.355469 3.113281.800782-1.632812-.703125-3.429687-.15625-4.125.46875-.96875.863281.203125 2.519531 1.375 1.933594.914063-.453126 2.796875-.761719 4.019532.355468-1.324219-.253906-2.699219-.199218-3.359376.511719-.660156.710937-.152343 1.746094 1.273438 1.679687 2.285156-.101562 2.875 1.5 5.167969 1.171876-1.414063.179687-2.210938.917968-2.574219 1.464843 2.140625-.976562 4.507812 1.664063 7.285156 1.046875-1.085937.445313-2.832031 1.507813-2.8125 2.324219 1.644532-1.902344 12.730469 1.46875 12.972656-2.695313.300782.859376.246094 2.140626-.609374 3.246094 1.414062-.859375 5.996093-1.164062 7.402343-4.46875.121094.976563-.066406 2.265625-.917969 2.570313 1.46875.480469 3.402344-.617188 5.382813-3.550781.789063-1.164063.972656-1.9375.84375-2.8125 1.960937.074218 3.382813-.417969 4.910156-1.714844 1.589844-1.347656 3.304688 1.101562 6-.613282 2.695313-1.714843 5.019531-.246093 6.484375-1.097656 1.472656-.863281 3.492188.300782 5.082032-.675781 1.59375-.980469 4.058593.476563 6.695312-1.601563 4.144531 1.519532 8.984375 4.332032 20.851562 2.148438 6.800782-1.246094 8.933594 1.046875 8.933594 4.164062 0 2.144532-1.253906 2.328126-2.203125 2.386719-3.78125.230469-5.410156-1.414062-6.902343-.886719-1 .355469-1.609376 1.988282-.160157 2.542969-1.203125.613281-1.046875 1.757813-.4375 2.179688.613281.417969 2.1875.039062 3.257813-.460938-1.371094.625-2.796875 1.746094-1.984375 2.914063.492187.710937 1.742187 1.316406 2.902343-.203125 1.167969-1.523438 3.308594-2.796875 4.667969-2.597657zm0 0" fill="#f9dd16" fill-rule="evenodd" stroke="#000" stroke-width=".509025"/><path d="m468.773438 98.039062c-3.433594-1.40625-4.582032-1.449218-3.796876 1.347657.339844 1.191406 1.160157 2.875 1.984376 3.636719.035156-1.164063.464843-4.375 1.8125-4.984376zm0 0" fill="#f9dd16" fill-rule="evenodd" stroke="#000" stroke-width=".509025"/><path d="m479.484375 98.039062c3.425781-1.40625 4.582031-1.449218 3.792969 1.347657-.335938 1.191406-1.164063 2.875-1.992188 3.636719-.023437-1.164063-.457031-4.375-1.800781-4.984376zm0 0" fill="#f9dd16" fill-rule="evenodd" stroke="#000" stroke-width=".509025"/><path d="m474.144531 96.152344c6.484375 0 7.296875 3.046875 7.261719 6.839844-.023438 4.101562-2.230469 2.695312-3.480469 7.960937-.496093 2.054687-2.132812 2.171875-3.78125 2.171875-1.65625 0-3.289062-.117188-3.785156-2.171875-1.25-5.265625-3.457031-3.859375-3.484375-7.960937-.035156-3.792969.777344-6.839844 7.269531-6.839844zm0 0" fill="#f9dd16" fill-rule="evenodd" stroke="#000" stroke-width=".509025"/><path d="m457.417969 111.195312c-1.652344-.980468-2.71875-.300781-3.390625-.117187 2.140625.546875 2.226562 3.300781 7.125 4.585937-1.105469-.308593-1.714844.308594-2.753906-.242187 2.015624 1.589844 4.28125 3.429687 9.058593 3.484375 2.664063.027344.824219 1.40625-.917969.613281 1.804688 1.867188 5.382813.335938 7.652344 3.734375.421875-2.632812-4.226562-6.792968-2.082031-9.792968-6.605469-.28125-7.148437-3.945313-10.957031-6.855469-3.097656-2.367188-3.375-4.773438-4.742188-9.285157-.625-2.042968-3.015625-3.3125-4.339844-2.828124-1.152343.421874-1.578124 1.425781-.585937 2.179687.996094.746094 2.265625.847656 2.539063 2.75-1.289063-1.546875-3.226563-2.105469-4.15625-1.136719-.566407.585938-.335938 1.964844.878906 2.085938 1.988281.207031.5625 2.140625 2.820312 4.027344-2.003906-2.246094-3.734375-2.449219-4.804687-1.230469-.640625.734375 0 2.035156 1.375 1.902343 1.992187-.207031 4.300781 4.847657 7.28125 6.125zm0 0" fill="#f9dd16" fill-rule="evenodd" stroke="#000" stroke-width=".509025"/><path d="m510.667969 130.109375c-1.042969.183594-.730469 1.898437-2.144531 2.019531 3.371093 0 5.082031-.796875 6.671874-2.082031-.734374.425781-1.039062 1.53125-1.097656 2.140625 1.769532-1.527344 5.996094-1.648438 8.203125-1.222656 2.203125.425781 2.566407-.613282 3.359375-2.019532.800782-1.40625-.304687-2.203124-1.402344-3.304687-1.105468-1.105469-1.347656-2.632813-1.105468-5.199219-5.878906-7.839844-16.40625-4.046875-16.527344-.617187 3.800781 4.410156 4.289062 3.914062 7.472656 4.53125 3.175782.609375 5.132813.609375 2.996094 2.386719-.730469.613281-3.796875.324218-6.179688.425781-5.34375.234375-7.785156-3.6875-9.363281-1.652344-1.296875 1.675781.046875 2.417969 2.691407 2.324219-1.835938.015625-4.265626-.082032-3.847657 1.621094.699219 2.878906 3.449219-.53125 4.519531.652343-.914062-.214843-2.339843.339844-2.394531 1.210938-.046875.863281 2.035157 1.980469 4.328125.164062 1.253906-1 2.855469-1.371093 3.820313-1.378906zm0 0" fill="#f9dd16" fill-rule="evenodd" stroke="#000" stroke-width=".509025"/><path d="m515.21875 118.164062c-1.910156-.699218-3.660156-1.128906-5.898438-.664062" fill="none" stroke="#000" stroke-width=".509025"/><path d="m486.429688 117.257812c-1.570313 3.371094-.621094 5.042969-.382813 6.609376" fill="none" stroke="#000" stroke-width=".509025"/><path d="m469.691406 101.246094c1.078125.535156 1.6875-.988282 3.273438.632812-.4375-.472656-.976563 1.257813-2.195313.109375" fill="none" stroke="#000" stroke-width=".509025"/><path d="m478.5 101.246094c-1.078125.535156-1.683594-.988282-3.269531.632812.4375-.472656.976562 1.257813 2.191406.109375" fill="none" stroke="#000" stroke-width=".509025"/><path d="m475.230469 101.878906c-.371094.304688-.40625-.242187-.128907 1.203125.523438 2.652344 1.136719 3.890625-1.003906 3.890625-2.195312 0-1.527344-1.238281-1.011718-3.890625.28125-1.445312.25-.898437-.121094-1.203125" fill="none" stroke="#000" stroke-width=".509025"/><path d="m474.125 112.050781c1.742188 0 2.753906-.03125 2.480469-2.476562-.113281-.984375 1.195312-1.375.734375-2.96875.488281 1.960937-3.214844 1.769531-3.214844.882812 0 .886719-3.699219 1.078125-3.210938-.882812-.460937 1.59375.84375 1.984375.730469 2.96875-.265625 2.445312.738281 2.476562 2.480469 2.476562zm0 0" fill="#ff0016" fill-rule="evenodd" stroke="#000" stroke-width=".254513"/><path d="m472.558594 107.101562-4.183594-1.167968zm0 0" fill-rule="evenodd"/><path d="m472.558594 107.101562-4.183594-1.167968" fill="none" stroke="#000" stroke-width=".254513"/><path d="m472.558594 107.320312-4.671875-.039062zm0 0" fill-rule="evenodd"/><path d="m472.558594 107.320312-4.671875-.039062" fill="none" stroke="#000" stroke-width=".254513"/><path d="m472.601562 107.558594-3.984374 1.0625zm0 0" fill-rule="evenodd"/><path d="m472.601562 107.558594-3.984374 1.0625" fill="none" stroke="#000" stroke-width=".254513"/><path d="m475.695312 107.101562 4.1875-1.167968zm0 0" fill-rule="evenodd"/><path d="m475.695312 107.101562 4.1875-1.167968" fill="none" stroke="#000" stroke-width=".254513"/><path d="m475.695312 107.320312 4.675782-.039062zm0 0" fill-rule="evenodd"/><path d="m475.695312 107.320312 4.675782-.039062" fill="none" stroke="#000" stroke-width=".254513"/><path d="m475.648438 107.558594 3.992187 1.0625zm0 0" fill-rule="evenodd"/><g stroke="#000"><path d="m475.648438 107.558594 3.992187 1.0625" fill="none" stroke-width=".254513"/><path d="m452.441406 94.574219c-1.214844-1.519531-4.269531-.234375-4.328125 1.648437 1.03125-1.222656 2.710938.535156 3.628907.164063.636718-.253907 1.191406-1.195313.699218-1.8125zm0 0" fill="#0051ba" fill-rule="evenodd" stroke-width=".052939"/><path d="m450.863281 98.164062c-1.21875-1.519531-4.261719-.234374-4.324219 1.644532 1.023438-1.21875 2.707032.539062 3.628907.167968.632812-.253906 1.191406-1.199218.695312-1.8125zm0 0" fill="#0051ba" fill-rule="evenodd" stroke-width=".052939"/><path d="m450.070312 102.984375c-1.382812-1.367187-4.265624.242187-4.113281 2.125.890625-1.332031 2.753907.226563 3.621094-.246094.601563-.320312 1.050781-1.324219.492187-1.878906zm0 0" fill="#0051ba" fill-rule="evenodd" stroke-width=".052939"/><path d="m451.523438 117.925781c-1.535157-1.203125-4.207032.738281-3.84375 2.582031.730468-1.421874 2.761718-.09375 3.570312-.660156.5625-.390625.894531-1.433594.273438-1.921875zm0 0" fill="#0051ba" fill-rule="evenodd" stroke-width=".052939"/><path d="m451.445312 121.195312c-1.828124-.671874-3.777343 1.992188-2.863281 3.636719.25-1.574219 2.597657-.929687 3.195313-1.722656.414062-.546875.410156-1.640625-.332032-1.914063zm0 0" fill="#0051ba" fill-rule="evenodd" stroke-width=".052939"/><path d="m453.789062 123.636719c-1.828124-.671875-3.777343 1.992187-2.871093 3.636719.257812-1.570313 2.601562-.929688 3.203125-1.722657.414062-.546875.40625-1.640625-.332032-1.914062zm0 0" fill="#0051ba" fill-rule="evenodd" stroke-width=".052939"/><path d="m501.585938 128.375c-1.824219-.675781-3.777344 1.992188-2.859376 3.636719.253907-1.578125 2.597657-.933594 3.191407-1.722657.414062-.546874.410156-1.640624-.332031-1.914062zm0 0" fill="#0051ba" fill-rule="evenodd" stroke-width=".052939"/><path d="m504.046875 130.589844c-1.886719-.457032-3.523437 2.414062-2.425781 3.941406.074218-1.597656 2.476562-1.226562 2.980468-2.074219.351563-.59375.21875-1.679687-.554687-1.867187zm0 0" fill="#0051ba" fill-rule="evenodd" stroke-width=".052939"/><path d="m502.316406 125.234375c-1.6875-.972656-4.0625 1.316406-3.445312 3.09375.523437-1.507813 2.726562-.476563 3.449218-1.152344.503907-.46875.675782-1.546875-.003906-1.941406zm0 0" fill="#0051ba" fill-rule="evenodd" stroke-width=".052939"/><path d="m536.324219 129.0625c-1.890625-.457031-3.527344 2.414062-2.433594 3.941406.078125-1.59375 2.480469-1.226562 2.980469-2.078125.351562-.589843.21875-1.671875-.546875-1.863281zm0 0" fill="#0051ba" fill-rule="evenodd" stroke-width=".052939"/><path d="m536.378906 126.058594c-1.714844-.914063-4.011718 1.464844-3.332031 3.21875.46875-1.527344 2.707031-.570313 3.402344-1.273438.488281-.484375.628906-1.570312-.070313-1.945312zm0 0" fill="#0051ba" fill-rule="evenodd" stroke-width=".052939"/><path d="m537.703125 131.746094c-1.902344-.378906-3.410156 2.558594-2.253906 4.046875.007812-1.597657 2.425781-1.335938 2.890625-2.210938.324218-.601562.144531-1.683593-.636719-1.835937zm0 0" fill="#0051ba" fill-rule="evenodd" stroke-width=".052939"/><path d="m474.265625 110.585938c1.199219 0 1.683594.347656 1.683594 2.511718 0 4.582032-.054688 6.550782-1.53125 6.550782-1.472657 0-1.375-1.871094-1.375-5.234376 0-1.757812 0-2.632812-.351563-2.484374 0-1.148438.507813-1.34375 1.574219-1.34375zm0 0" fill="#0051ba" fill-rule="evenodd" stroke-width=".052939"/><path d="m538.179688 173.027344c-1.160157.277344-1.160157 1.761718-1.757813 1.761718 2.996094-.078124 4.457031-.90625 5.367187-2.421874-.660156.605468-.085937 1.765624-.304687 2.035156 2.203125-.765625 3.25-2.640625 2.480469-3.90625.492187.714844 1.929687 1.101562 2.367187 1.152344-1.542969-1.207032-.4375-3.964844-2.917969-5.394532.824219-.050781 2.425782.878906 2.863282 1.984375-.382813-2.480469-.773438-4.078125-2.8125-5.453125.222656.246094 1.378906.46875 1.871094 0-1.316407-.828125-1.703126-2.203125-1.589844-3.085937.148437-1.234375-.664063-1.488281-2.207032-1.101563-1.386718.347656-4.570312.550782-6.441406.550782-3.859375 0-7.214844 0-10.414062-2.203126 4.792968 1.980469 10.90625-2.203124 10.90625-5.675781 0-3.851562-4.738282-6.992187-14.320313-4.902343-9.585937 2.09375-21.265625 1.210937-21.265625-1.980469 0-3.195313 8.375-3.632813 12.671875-2.976563 4.296875.660156 7.378907 1.105469 15.425781-1.761718-1.984374.773437-8.375.992187-13.441406-.441407-5.070312-1.433593-17.519531-1.433593-17.628906 5.289063-.113281 6.71875 13.257812 6.109375 24.789062 4.40625 6.71875-.992188 10.246094-.332032 10.246094 1.875 0 2.089844-6.167968 2.972656-10.910156 2.421875-4.734375-.554688-9.582031-.441407-15.199219 1.210937-4.691406 1.382813-7.933593 0-13.109375.882813-2.511718.425781-8.59375 0-11.597656-4.960938-1.847656 1.324219-7.414062 4.089844-8.34375 6.792969-1.324219 2.480469-.441406 4.941406 1.316406 7.367188 2.222656 3.050781-1.097656 2.585937-3.464844 2.699218-3.246093.152344-7.59375-.34375-9.863281-2.917968-2.007812-2.285157-4.683593-4.113282-6.820312-2.421876-1.101563.875-.046875 2.015626.824219 1.699219.863281-.316406 1.878906.316407 2.800781.722657-1.46875-.636719-3.085938-.140626-3.714844.417968-.871094.78125.1875 2.265625 1.234375 1.742188.828125-.414063 2.519531-.6875 3.617188.320312-1.191407-.230468-2.429688-.179687-3.019532.457032-.597656.640624-.136718 1.566406 1.144532 1.515624 2.0625-.09375 2.589843 1.351563 4.648437 1.054688-1.261719.164062-1.984375.824219-2.3125 1.324219 1.929687-.886719 4.058594 1.492187 6.558594.929687-.976563.40625-2.550781 1.363282-2.535157 2.097656 1.484376-1.710937 11.453126 1.320313 11.675782-2.425781.277344.773438.21875 1.929688-.546875 2.921875 1.273437-.769531 5.394531-1.050781 6.660156-4.023437.113281.882812-.054687 2.035156-.820313 2.316406 1.316407.429687 3.0625-.554687 4.84375-3.195313.707032-1.050781.875-1.746093.75-2.535156 1.769532.070313 3.046876-.375 4.425782-1.542968 1.433594-1.210938 2.976562.992187 5.398437-.550782 2.429688-1.542968 4.519531-.21875 5.839844-.992187 1.324219-.769531 3.140625.273437 4.570313-.605469 1.4375-.882812 3.65625.429688 6.027343-1.441406 3.730469 1.363281 8.085938 3.898437 18.765625 1.933594 6.121094-1.121094 8.039063.9375 8.039063 3.746093 0 1.929688-1.125 2.101563-1.980469 2.148438-3.402344.210937-4.867188-1.273438-6.210938-.796875-.902343.324218-1.453124 1.789062-.148437 2.292968-1.078125.550782-.9375 1.582032-.390625 1.957032.550781.375 1.96875.035156 2.933594-.410156-1.238282.5625-2.523438 1.566406-1.789063 2.621093.441407.640625 1.566407 1.183594 2.617188-.183593 1.046875-1.375 2.972656-2.519532 4.199219-2.339844zm0 0" fill="#f9dd16" fill-rule="evenodd" stroke-width=".458122"/><path d="m470.339844 143.945312c-3.082032-1.269531-4.125-1.304687-3.410156 1.210938.300781 1.074219 1.042968 2.585938 1.785156 3.277344.03125-1.046875.417968-3.9375 1.625-4.488282zm0 0" fill="#f9dd16" fill-rule="evenodd" stroke-width=".458122"/><path d="m479.980469 143.945312c3.085937-1.269531 4.125-1.304687 3.417969 1.210938-.308594 1.074219-1.050782 2.585938-1.792969 3.277344-.027344-1.046875-.410157-3.9375-1.625-4.488282zm0 0" fill="#f9dd16" fill-rule="evenodd" stroke-width=".458122"/><path d="m475.175781 142.25c5.839844 0 6.566407 2.738281 6.539063 6.160156-.023438 3.683594-2.007813 2.417969-3.136719 7.15625-.4375 1.855469-1.917969 1.957032-3.402344 1.957032-1.488281 0-2.960937-.101563-3.402343-1.957032-1.128907-4.738281-3.109376-3.472656-3.140626-7.15625-.027343-3.421875.703126-6.160156 6.542969-6.160156zm0 0" fill="#f9dd16" fill-rule="evenodd" stroke-width=".458122"/><path d="m460.128906 155.785156c-1.492187-.878906-2.453125-.269531-3.058594-.101562 1.929688.492187 2.007813 2.96875 6.414063 4.125-.996094-.277344-1.539063.273437-2.476563-.21875 1.816407 1.429687 3.851563 3.089844 8.152344 3.140625 2.398438.023437.738282 1.261719-.832031.550781 1.628906 1.679688 4.851563.300781 6.886719 3.359375.386718-2.367187-3.796875-6.113281-1.871094-8.8125-5.945312-.253906-6.429688-3.550781-9.859375-6.171875-2.785156-2.128906-3.035156-4.296875-4.269531-8.355469-.558594-1.835937-2.710938-2.984375-3.902344-2.546875-1.039062.378906-1.421875 1.28125-.527344 1.960938.894532.675781 2.035156.765625 2.285156 2.476562-1.160156-1.394531-2.90625-1.894531-3.742187-1.019531-.503906.527344-.300781 1.761719.792969 1.875 1.789062.183594.503906 1.921875 2.535156 3.625-1.800781-2.019531-3.359375-2.207031-4.324219-1.105469-.574219.65625 0 1.832032 1.242188 1.707032 1.792969-.1875 3.867187 4.367187 6.554687 5.511718zm0 0" fill="#f9dd16" fill-rule="evenodd" stroke-width=".458122"/><path d="m508.046875 172.808594c-.9375.164062-.660156 1.707031-1.929687 1.820312 3.03125 0 4.570312-.71875 6.007812-1.875-.660156.386719-.9375 1.378906-.992188 1.929688 1.597657-1.378906 5.402344-1.488282 7.382813-1.105469 1.980469.386719 2.3125-.550781 3.027344-1.816406.71875-1.265625-.273438-1.980469-1.265625-2.972657-.988282-.992187-1.214844-2.367187-.988282-4.683593-5.296874-7.050781-14.769531-3.636719-14.875-.550781 3.414063 3.964843 3.851563 3.523437 6.71875 4.078124 2.859376.550782 4.621094.546876 2.699219 2.148438-.660156.550781-3.417969.292969-5.566406.386719-4.804687.207031-7-3.320313-8.421875-1.492188-1.167969 1.507813.039062 2.175781 2.421875 2.09375-1.652344.011719-3.839844-.074219-3.460937 1.460938.628906 2.589843 3.097656-.484375 4.066406.582031-.824219-.195312-2.109375.3125-2.160156 1.089844-.042969.78125 1.835937 1.785156 3.898437.144531 1.128906-.894531 2.566406-1.230469 3.4375-1.238281zm0 0" fill="#f9dd16" fill-rule="evenodd" stroke-width=".458122"/><path d="m512.144531 162.058594c-1.71875-.628906-3.292969-1.011719-5.308593-.597656" fill="none" stroke-width=".458122"/><path d="m486.234375 161.238281c-1.414063 3.042969-.554687 4.542969-.351563 5.953125" fill="none" stroke-width=".458122"/><path d="m471.171875 146.832031c.972656.488281 1.519531-.882812 2.945313.570313-.394532-.425782-.882813 1.128906-1.972657.097656" fill="none" stroke-width=".458122"/><path d="m479.097656 146.832031c-.972656.488281-1.515625-.882812-2.941406.570313.390625-.425782.878906 1.128906 1.96875.097656" fill="none" stroke-width=".458122"/><path d="m476.15625 147.402344c-.335938.273437-.363281-.21875-.117188 1.078125.46875 2.386719 1.027344 3.507812-.90625 3.507812-1.972656 0-1.371093-1.121093-.910156-3.507812.261719-1.296875.226563-.804688-.105468-1.078125" fill="none" stroke-width=".458122"/><path d="m475.160156 156.558594c1.570313 0 2.480469-.023438 2.230469-2.230469-.101563-.886719 1.074219-1.238281.660156-2.671875.441407 1.761719-2.890625 1.597656-2.890625.796875 0 .800781-3.328125.964844-2.890625-.796875-.414062 1.433594.757813 1.785156.660157 2.671875-.246094 2.207031.664062 2.230469 2.230468 2.230469zm0 0" fill="#ff0016" fill-rule="evenodd" stroke-width=".229061"/></g><path d="m473.75 152.101562-3.765625-1.050781zm0 0" fill-rule="evenodd"/><path d="m473.75 152.101562-3.765625-1.050781" fill="none" stroke="#000" stroke-width=".229061"/><path d="m473.75 152.300781-4.203125-.039062zm0 0" fill-rule="evenodd"/><path d="m473.75 152.300781-4.203125-.039062" fill="none" stroke="#000" stroke-width=".229061"/><path d="m473.789062 152.515625-3.585937.960937zm0 0" fill-rule="evenodd"/><path d="m473.789062 152.515625-3.585937.960937" fill="none" stroke="#000" stroke-width=".229061"/><path d="m476.574219 152.101562 3.765625-1.050781zm0 0" fill-rule="evenodd"/><path d="m476.574219 152.101562 3.765625-1.050781" fill="none" stroke="#000" stroke-width=".229061"/><path d="m476.574219 152.300781 4.207031-.039062zm0 0" fill-rule="evenodd"/><path d="m476.574219 152.300781 4.207031-.039062" fill="none" stroke="#000" stroke-width=".229061"/><path d="m476.535156 152.515625 3.585938.960937zm0 0" fill-rule="evenodd"/><path d="m476.535156 152.515625 3.585938.960937" fill="none" stroke="#000" stroke-width=".229061"/><path d="m455.644531 140.828125c-1.09375-1.367187-3.839843-.214844-3.898437 1.480469.929687-1.097656 2.445312.484375 3.269531.152344.570313-.230469 1.074219-1.074219.628906-1.632813zm0 0" fill="#0051ba" fill-rule="evenodd" stroke="#000" stroke-width=".047645"/><path d="m454.222656 144.058594c-1.09375-1.363282-3.835937-.210938-3.890625 1.484375.921875-1.097657 2.4375.480469 3.265625.144531.574219-.230469 1.074219-1.074219.625-1.628906zm0 0" fill="#0051ba" fill-rule="evenodd" stroke="#000" stroke-width=".047645"/><path d="m453.511719 148.398438c-1.246094-1.234376-3.839844.21875-3.703125 1.910156.796875-1.199219 2.476562.203125 3.261718-.222656.542969-.289063.945313-1.183594.441407-1.6875zm0 0" fill="#0051ba" fill-rule="evenodd" stroke="#000" stroke-width=".047645"/><path d="m454.820312 161.847656c-1.382812-1.085937-3.789062.65625-3.460937 2.324219.65625-1.28125 2.484375-.085937 3.210937-.59375.507813-.355469.8125-1.292969.25-1.730469zm0 0" fill="#0051ba" fill-rule="evenodd" stroke="#000" stroke-width=".047645"/><path d="m454.746094 164.789062c-1.640625-.605468-3.398438 1.792969-2.574219 3.273438.226563-1.417969 2.339844-.839844 2.875-1.554688.378906-.488281.367187-1.472656-.300781-1.71875zm0 0" fill="#0051ba" fill-rule="evenodd" stroke="#000" stroke-width=".047645"/><path d="m456.855469 166.988281c-1.640625-.605469-3.402344 1.789063-2.578125 3.277344.230468-1.421875 2.339844-.847656 2.882812-1.554687.367188-.492188.363282-1.480469-.304687-1.722657zm0 0" fill="#0051ba" fill-rule="evenodd" stroke="#000" stroke-width=".047645"/><path d="m499.871094 171.25c-1.636719-.605469-3.394532 1.792969-2.570313 3.269531.226563-1.414062 2.339844-.839843 2.875-1.550781.375-.488281.367188-1.476562-.304687-1.71875zm0 0" fill="#0051ba" fill-rule="evenodd" stroke="#000" stroke-width=".047645"/><path d="m502.09375 173.242188c-1.703125-.414063-3.171875 2.171874-2.191406 3.550781.070312-1.4375 2.230468-1.105469 2.683594-1.871094.3125-.53125.199218-1.507813-.492188-1.679687zm0 0" fill="#0051ba" fill-rule="evenodd" stroke="#000" stroke-width=".047645"/><path d="m500.53125 168.421875c-1.515625-.875-3.65625 1.1875-3.09375 2.789063.46875-1.355469 2.445312-.429688 3.101562-1.039063.445313-.421875.609376-1.394531-.007812-1.75zm0 0" fill="#0051ba" fill-rule="evenodd" stroke="#000" stroke-width=".047645"/><path d="m531.136719 171.871094c-1.699219-.417969-3.171875 2.167968-2.1875 3.542968.070312-1.433593 2.230469-1.101562 2.683593-1.867187.316407-.535156.199219-1.511719-.496093-1.675781zm0 0" fill="#0051ba" fill-rule="evenodd" stroke="#000" stroke-width=".047645"/><path d="m531.1875 169.164062c-1.542969-.820312-3.609375 1.320313-3 2.894532.425781-1.371094 2.4375-.511719 3.066406-1.144532.4375-.433593.566406-1.410156-.066406-1.75zm0 0" fill="#0051ba" fill-rule="evenodd" stroke="#000" stroke-width=".047645"/><path d="m532.382812 174.28125c-1.714843-.335938-3.078124 2.308594-2.03125 3.640625.007813-1.4375 2.183594-1.199219 2.597657-1.984375.296875-.546875.132812-1.515625-.566407-1.65625zm0 0" fill="#0051ba" fill-rule="evenodd" stroke="#000" stroke-width=".047645"/><path d="m475.289062 155.238281c1.074219 0 1.511719.3125 1.511719 2.261719 0 4.121094-.046875 5.898438-1.375 5.898438s-1.234375-1.691407-1.234375-4.71875c0-1.574219 0-2.367188-.324218-2.234376 0-1.03125.460937-1.207031 1.421874-1.207031zm0 0" fill="#0051ba" fill-rule="evenodd" stroke="#000" stroke-width=".047645"/><path d="m528.199219 209.554688c-.859375.230468-.859375 1.46875-1.308594 1.46875 2.234375-.066407 3.320313-.753907 4-2.015626-.496094.503907-.066406 1.464844-.230469 1.695313 1.640625-.640625 2.421875-2.203125 1.851563-3.257813.363281.597657 1.433593.917969 1.761719.964844-1.152344-1.011718-.328126-3.308594-2.179688-4.5.621094-.042968 1.808594.734375 2.136719 1.652344-.285157-2.066406-.578125-3.394531-2.089844-4.542969.160156.207031 1.023437.390625 1.390625 0-.984375-.6875-1.269531-1.835937-1.1875-2.570312.117188-1.027344-.492188-1.242188-1.640625-.921875-1.035156.289062-3.402344.460937-4.800781.460937-2.863282 0-5.371094 0-7.75-1.835937 3.570312 1.65625 8.121094-1.835938 8.121094-4.726563 0-3.214843-3.53125-5.828125-10.664063-4.085937-7.132813 1.742187-15.824219 1.011718-15.824219-1.652344s6.230469-3.03125 9.429688-2.480469c3.199218.554688 5.492187.917969 11.484375-1.46875-1.480469.644531-6.238281.824219-10.003907-.367187-3.777343-1.191406-13.042968-1.191406-13.125 4.410156-.085937 5.597656 9.867188 5.085938 18.453126 3.671875 5-.832031 7.625-.277344 7.625 1.558594 0 1.742187-4.589844 2.480469-8.121094 2.019531-3.519532-.457031-7.132813-.363281-11.3125 1.011719-3.496094 1.148437-5.910156 0-9.761719.730469-1.871094.359374-6.398437 0-8.632813-4.128907-1.375 1.101563-5.519531 3.40625-6.210937 5.660157-.988281 2.0625-.328125 4.121093.980469 6.136718 1.652344 2.542969-.820313 2.160156-2.582032 2.25-2.417968.128906-5.652343-.289062-7.339843-2.429687-1.496094-1.90625-3.492188-3.429688-5.078125-2.019531-.820313.722656-.035156 1.679687.613281 1.414062.644531-.265625 1.398437.265625 2.082031.605469-1.09375-.527344-2.292968-.121094-2.761718.351562-.652344.644531.136718 1.882813.921874 1.449219.609376-.347656 1.871094-.578125 2.691407.265625-.882813-.191406-1.808594-.148437-2.25.382813-.441407.53125-.105469 1.304687.851562 1.261718 1.535157-.078125 1.929688 1.121094 3.464844.878906-.945313.136719-1.480469.6875-1.726563 1.097657 1.4375-.734375 3.023438 1.246093 4.882813.78125-.726563.335937-1.898437 1.132812-1.882813 1.742187 1.101563-1.421875 8.523438 1.105469 8.691407-2.015625.203125.640625.160156 1.605469-.410157 2.433594.945313-.648437 4.015626-.875 4.960938-3.351563.082031.730469-.046875 1.699219-.617188 1.929688.988282.355469 2.28125-.464844 3.609376-2.667969.527343-.875.648437-1.453125.5625-2.109375 1.3125.054688 2.265624-.3125 3.289062-1.28125 1.070312-1.011718 2.21875.824219 4.019531-.460937 1.808594-1.289063 3.363281-.183594 4.34375-.832031.988281-.636719 2.339844.230468 3.410157-.5 1.0625-.734376 2.71875.359374 4.484374-1.203126 2.777344 1.136719 6.019532 3.25 13.96875 1.617188 4.554688-.9375 5.984376.777344 5.984376 3.121094 0 1.605468-.839844 1.742187-1.472657 1.792968-2.535156.167969-3.625-1.066406-4.625-.671874-.671875.269531-1.078125 1.492187-.105469 1.910156-.808593.457031-.707031 1.320312-.296874 1.632812.410156.316406 1.464843.027344 2.183593-.34375-.921875.46875-1.875 1.308594-1.328125 2.1875.328125.53125 1.164063.980469 1.945313-.15625.78125-1.144531 2.214843-2.101562 3.125-1.949218zm0 0" fill="#f9dd16" fill-rule="evenodd"/><path d="m528.199219 209.554688c-.859375.230468-.859375 1.46875-1.308594 1.46875 2.234375-.066407 3.320313-.753907 4-2.015626-.496094.503907-.066406 1.464844-.230469 1.695313 1.640625-.640625 2.421875-2.203125 1.847656-3.257813.367188.597657 1.4375.917969 1.765626.964844-1.152344-1.011718-.328126-3.308594-2.179688-4.5.621094-.042968 1.808594.734375 2.136719 1.652344-.285157-2.066406-.578125-3.394531-2.09375-4.542969.164062.207031 1.027343.390625 1.394531 0-.984375-.6875-1.269531-1.835937-1.1875-2.570312.117188-1.027344-.492188-1.242188-1.640625-.921875-1.035156.289062-3.402344.460937-4.800781.460937-2.867188 0-5.371094 0-7.746094-1.835937 3.566406 1.65625 8.117188-1.835938 8.117188-4.726563 0-3.214843-3.53125-5.828125-10.664063-4.085937-7.132813 1.742187-15.824219 1.011718-15.824219-1.652344s6.230469-3.03125 9.429688-2.480469c3.199218.554688 5.492187.917969 11.484375-1.46875-1.480469.644531-6.238281.824219-10.007813-.367187-3.773437-1.191406-13.039062-1.191406-13.121094 4.410156-.085937 5.597656 9.867188 5.085938 18.453126 3.671875 5-.832031 7.625-.277344 7.625 1.558594 0 1.742187-4.589844 2.480469-8.121094 2.019531-3.519532-.457031-7.132813-.363281-11.3125 1.011719-3.496094 1.148437-5.910156 0-9.761719.730469-1.871094.359374-6.394531 0-8.632813-4.128907-1.378906 1.101563-5.519531 3.40625-6.210937 5.660157-.984375 2.0625-.328125 4.121093.980469 6.136718 1.652344 2.542969-.820313 2.160156-2.582032 2.25-2.417968.128906-5.65625-.289062-7.339843-2.429687-1.5-1.90625-3.492188-3.429688-5.078125-2.019531-.820313.722656-.035156 1.679687.613281 1.414062.644531-.265625 1.398437.265625 2.082031.605469-1.09375-.527344-2.292968-.121094-2.761718.351562-.652344.644531.136718 1.882813.921874 1.449219.609376-.347656 1.871094-.578125 2.691407.265625-.886719-.191406-1.808594-.148437-2.25.382813-.441407.53125-.105469 1.304687.851562 1.261718 1.535157-.078125 1.929688 1.121094 3.460938.878906-.941407.136719-1.476563.6875-1.722657 1.097657 1.4375-.734375 3.023438 1.246093 4.882813.78125-.726563.335937-1.898437 1.132812-1.882813 1.742187 1.101563-1.421875 8.523438 1.105469 8.691407-2.015625.203125.640625.160156 1.605469-.410157 2.433594.945313-.648437 4.015626-.875 4.960938-3.351563.082031.730469-.042969 1.699219-.617188 1.929688.988282.355469 2.28125-.464844 3.609376-2.667969.527343-.875.648437-1.453125.5625-2.109375 1.3125.054688 2.265624-.3125 3.289062-1.28125 1.070312-1.011718 2.21875.824219 4.019531-.460937 1.804688-1.289063 3.363281-.183594 4.34375-.832031.988281-.636719 2.339844.230468 3.410157-.5 1.0625-.734376 2.71875.359374 4.480468-1.203126 2.78125 1.136719 6.023438 3.25 13.972656 1.617188 4.554688-.9375 5.984376.777344 5.984376 3.121094 0 1.605468-.839844 1.742187-1.472657 1.792968-2.535156.167969-3.625-1.066406-4.625-.671874-.675781.269531-1.078125 1.492187-.105469 1.910156-.808593.457031-.707031 1.320312-.296874 1.632812.414062.316406 1.464843.027344 2.183593-.34375-.921875.46875-1.875 1.308594-1.328125 2.1875.328125.53125 1.164063.980469 1.945313-.15625.78125-1.144531 2.214843-2.101562 3.125-1.949218zm0 0" fill="none" stroke="#000" stroke-width=".360834"/><path d="m477.699219 185.316406c-2.292969-1.054687-3.070313-1.082031-2.542969 1.011719.230469.898437.78125 2.15625 1.332031 2.734375.019531-.875.308594-3.28125 1.210938-3.746094zm0 0" fill="#f9dd16" fill-rule="evenodd" stroke="#000" stroke-width=".360834"/><path d="m484.878906 185.316406c2.292969-1.054687 3.070313-1.082031 2.539063 1.011719-.226563.898437-.777344 2.15625-1.335938 2.734375-.015625-.875-.300781-3.28125-1.203125-3.746094zm0 0" fill="#f9dd16" fill-rule="evenodd" stroke="#000" stroke-width=".360834"/><path d="m481.296875 183.910156c4.347656 0 4.890625 2.28125 4.871094 5.128906-.019531 3.074219-1.496094 2.019532-2.335938 5.964844-.324219 1.542969-1.429687 1.632813-2.535156 1.632813s-2.199219-.089844-2.53125-1.632813c-.839844-3.945312-2.316406-2.890625-2.335937-5.964844-.023438-2.847656.519531-5.128906 4.867187-5.128906zm0 0" fill="#f9dd16" fill-rule="evenodd"/><path d="m481.296875 183.910156c4.347656 0 4.890625 2.28125 4.871094 5.128906-.019531 3.074219-1.496094 2.019532-2.335938 5.964844-.328125 1.542969-1.429687 1.632813-2.535156 1.632813s-2.199219-.089844-2.53125-1.632813c-.839844-3.945312-2.316406-2.890625-2.335937-5.964844-.023438-2.847656.519531-5.128906 4.867187-5.128906zm0 0" fill="none" stroke="#000" stroke-width=".360834"/><path d="m470.09375 195.191406c-1.109375-.738281-1.824219-.230468-2.269531-.089844 1.433593.410157 1.488281 2.476563 4.773437 3.4375-.742187-.230468-1.152344.230469-1.851562-.183593 1.359375 1.195312 2.871094 2.578125 6.074218 2.617187 1.785157.023438.546876 1.058594-.617187.457032 1.210937 1.402343 3.613281.253906 5.125 2.804687.289063-1.972656-2.828125-5.097656-1.390625-7.34375-4.429688-.214844-4.792969-2.960937-7.339844-5.144531-2.082031-1.773438-2.265625-3.582032-3.179687-6.960938-.417969-1.53125-2.019531-2.484375-2.902344-2.125-.777344.320313-1.0625 1.070313-.398437 1.632813.664062.566406 1.519531.636719 1.699218 2.070312-.863281-1.164062-2.15625-1.582031-2.78125-.855469-.375.441407-.226562 1.46875.589844 1.5625 1.328125.152344.375 1.605469 1.886719 3.023438-1.339844-1.683594-2.5-1.835938-3.21875-.921875-.425781.550781 0 1.527344.921875 1.425781 1.332031-.15625 2.882812 3.632813 4.878906 4.59375zm0 0" fill="#f9dd16" fill-rule="evenodd"/><path d="m470.09375 195.191406c-1.109375-.738281-1.820312-.230468-2.273438-.089844 1.4375.410157 1.492188 2.476563 4.777344 3.4375-.742187-.230468-1.152344.230469-1.851562-.183593 1.359375 1.195312 2.871094 2.578125 6.074218 2.617187 1.78125.023438.546876 1.058594-.617187.457032 1.207031 1.402343 3.613281.253906 5.125 2.804687.289063-1.972656-2.828125-5.097656-1.390625-7.34375-4.429688-.214844-4.792969-2.960937-7.339844-5.144531-2.082031-1.773438-2.265625-3.582032-3.179687-6.960938-.417969-1.53125-2.019531-2.484375-2.90625-2.125-.773438.320313-1.058594 1.070313-.394531 1.632813.664062.566406 1.519531.636719 1.699218 2.070312-.863281-1.164062-2.15625-1.582031-2.78125-.855469-.375.441407-.226562 1.46875.589844 1.5625 1.328125.152344.375 1.605469 1.882812 3.023438-1.335937-1.683594-2.496093-1.835938-3.214843-.921875-.425781.550781 0 1.527344.921875 1.425781 1.332031-.15625 2.878906 3.632813 4.878906 4.59375zm0 0" fill="none" stroke="#000" stroke-width=".360834"/><path d="m505.769531 209.375c-.695312.136719-.492187 1.421875-1.433593 1.515625 2.253906 0 3.402343-.597656 4.46875-1.5625-.488282.320313-.695313 1.144531-.738282 1.605469 1.191406-1.148438 4.019532-1.234375 5.5-.917969 1.472656.320313 1.71875-.460937 2.25-1.515625.535156-1.054688-.207031-1.648438-.945312-2.480469-.734375-.824219-.902344-1.972656-.734375-3.902343-3.9375-5.871094-10.992188-3.027344-11.074219-.457032 2.542969 3.304688 2.871094 2.941406 5.003906 3.398438 2.132813.457031 3.4375.457031 2.007813 1.792968-.488281.457032-2.539063.242188-4.140625.316407-3.574219.175781-5.214844-2.765625-6.269532-1.234375-.871093 1.253906.027344 1.808594 1.800782 1.742187-1.226563.007813-2.855469-.0625-2.578125 1.214844.46875 2.160156 2.308593-.398437 3.027343.484375-.617187-.160156-1.566406.257812-1.601562.910156-.035156.648438 1.363281 1.488282 2.898438.125.839843-.75 1.910156-1.03125 2.558593-1.035156zm0 0" fill="#f9dd16" fill-rule="evenodd"/><path d="m505.773438 209.375c-.699219.136719-.496094 1.421875-1.4375 1.515625 2.253906 0 3.402343-.597656 4.46875-1.5625-.488282.320313-.695313 1.144531-.738282 1.605469 1.191406-1.148438 4.019532-1.234375 5.496094-.917969 1.476562.320313 1.722656-.460937 2.253906-1.515625.535156-1.054688-.207031-1.648438-.945312-2.480469-.734375-.824219-.902344-1.972656-.734375-3.902343-3.9375-5.871094-10.992188-3.027344-11.074219-.457032 2.542969 3.304688 2.871094 2.941406 5.003906 3.398438 2.132813.457031 3.4375.457031 2.007813 1.792968-.488281.457032-2.539063.242188-4.140625.316407-3.574219.175781-5.214844-2.765625-6.269532-1.234375-.871093 1.253906.027344 1.808594 1.800782 1.742187-1.226563.007813-2.855469-.0625-2.578125 1.214844.46875 2.160156 2.308593-.398437 3.027343.484375-.617187-.160156-1.566406.257812-1.601562.910156-.035156.648438 1.363281 1.488282 2.898438.125.84375-.75 1.910156-1.03125 2.5625-1.035156zm0 0" fill="none" stroke="#000" stroke-width=".360834"/><path d="m508.816406 200.414062c-1.277344-.523437-2.449218-.84375-3.949218-.496093" fill="none" stroke="#000" stroke-width=".360834"/><path d="m489.53125 199.730469c-1.054688 2.535156-.414062 3.785156-.257812 4.960937" fill="none" stroke="#000" stroke-width=".360834"/><path d="m478.316406 187.726562c.722656.402344 1.132813-.738281 2.191406.476563-.292968-.355469-.652343.941406-1.46875.078125" fill="none" stroke="#000" stroke-width=".360834"/><path d="m484.21875 187.726562c-.722656.402344-1.128906-.738281-2.191406.476563.292968-.355469.652344.941406 1.46875.078125" fill="none" stroke="#000" stroke-width=".360834"/><path d="m482.027344 188.203125c-.25.230469-.273438-.1875-.085938.898437.351563 1.988282.761719 2.917969-.675781 2.917969-1.464844 0-1.023437-.929687-.675781-2.917969.191406-1.085937.167968-.667968-.082032-.898437" fill="none" stroke="#000" stroke-width=".360834"/><path d="m481.289062 195.828125c1.167969 0 1.847657-.019531 1.660157-1.851563-.074219-.738281.800781-1.03125.492187-2.230468.328125 1.464844-2.152344 1.332031-2.152344.660156 0 .671875-2.480468.804688-2.152343-.660156-.308594 1.199218.566406 1.492187.492187 2.230468-.183594 1.832032.492188 1.851563 1.660156 1.851563zm0 0" fill="#ff0016" fill-rule="evenodd"/><path d="m481.289062 195.828125c1.167969 0 1.84375-.019531 1.660157-1.851563-.074219-.738281.800781-1.03125.492187-2.230468.328125 1.464844-2.152344 1.332031-2.152344.660156 0 .671875-2.480468.804688-2.152343-.660156-.308594 1.199218.566406 1.492187.492187 2.230468-.1875 1.832032.492188 1.851563 1.660156 1.851563zm0 0" fill="none" stroke="#000" stroke-width=".180416"/><path d="m480.238281 192.117188-2.808593-.878907zm0 0" fill-rule="evenodd"/><path d="m480.238281 192.117188-2.804687-.878907" fill="none" stroke="#000" stroke-width=".180416"/><path d="m480.238281 192.28125-3.132812-.03125zm0 0" fill-rule="evenodd"/><path d="m480.238281 192.28125-3.132812-.03125" fill="none" stroke="#000" stroke-width=".180416"/><path d="m480.269531 192.460938-2.671875.800781zm0 0" fill-rule="evenodd"/><path d="m480.269531 192.460938-2.671875.800781" fill="none" stroke="#000" stroke-width=".180416"/><path d="m482.339844 192.117188 2.800781-.878907zm0 0" fill-rule="evenodd"/><path d="m482.339844 192.117188 2.800781-.878907" fill="none" stroke="#000" stroke-width=".180416"/><path d="m482.339844 192.28125 3.128906-.03125zm0 0" fill-rule="evenodd"/><path d="m482.339844 192.28125 3.128906-.03125" fill="none" stroke="#000" stroke-width=".180416"/><path d="m482.308594 192.460938 2.671875.800781zm0 0" fill-rule="evenodd"/><path d="m482.308594 192.460938 2.671875.800781" fill="none" stroke="#000" stroke-width=".180416"/><path d="m466.757812 182.726562c-.816406-1.140624-2.855468-.179687-2.898437 1.234376.691406-.917969 1.820313.398437 2.429687.121093.425782-.191406.800782-.894531.46875-1.355469zm0 0" fill="#0051ba" fill-rule="evenodd" stroke="#000" stroke-width=".037527"/><path d="m465.703125 185.414062c-.816406-1.136718-2.855469-.175781-2.902344 1.234376.691407-.914063 1.816407.402343 2.433594.128906.425781-.195313.800781-.898438.46875-1.363282zm0 0" fill="#0051ba" fill-rule="evenodd"/><path d="m465.703125 185.414062c-.816406-1.136718-2.855469-.175781-2.902344 1.234376.691407-.914063 1.820313.402343 2.433594.128906.425781-.195313.800781-.898438.46875-1.363282zm0 0" fill="none" stroke="#000" stroke-width=".037527"/><path d="m465.171875 189.035156c-.929687-1.03125-2.855469.179688-2.757813 1.585938.59375-.992188 1.84375.175781 2.429688-.179688.398438-.246094.703125-.992187.328125-1.40625zm0 0" fill="#0051ba" fill-rule="evenodd"/><path d="m465.171875 189.035156c-.929687-1.03125-2.859375.179688-2.761719 1.585938.597656-.992188 1.847656.175781 2.433594-.179688.402344-.246094.703125-.992187.328125-1.40625zm0 0" fill="none" stroke="#000" stroke-width=".037527"/><path d="m466.140625 200.238281c-1.023437-.902343-2.816406.546875-2.570313 1.933594.488282-1.0625 1.851563-.066406 2.390626-.492187.375-.292969.601562-1.074219.179687-1.441407zm0 0" fill="#0051ba" fill-rule="evenodd"/><path d="m466.140625 200.238281c-1.023437-.902343-2.816406.546875-2.570313 1.933594.488282-1.0625 1.847657-.066406 2.390626-.492187.375-.292969.601562-1.074219.179687-1.441407zm0 0" fill="none" stroke="#000" stroke-width=".037527"/><path d="m466.09375 202.691406c-1.226562-.507812-2.535156 1.492188-1.917969 2.730469.164063-1.183594 1.738281-.707031 2.136719-1.296875.277344-.410156.273438-1.230469-.21875-1.433594zm0 0" fill="#0051ba" fill-rule="evenodd" stroke="#000" stroke-width=".037527"/><path d="m467.660156 204.519531c-1.21875-.5-2.53125 1.496094-1.921875 2.730469.175781-1.179688 1.746094-.703125 2.148438-1.292969.277343-.410156.273437-1.230469-.226563-1.4375zm0 0" fill="#0051ba" fill-rule="evenodd" stroke="#000" stroke-width=".037527"/><path d="m499.6875 208.070312c-1.226562-.5-2.535156 1.496094-1.917969 2.730469.171875-1.183593 1.738281-.699219 2.136719-1.292969.277344-.410156.273438-1.230468-.21875-1.4375zm0 0" fill="#0051ba" fill-rule="evenodd"/><path d="m499.6875 208.070312c-1.226562-.5-2.535156 1.496094-1.917969 2.730469.167969-1.183593 1.738281-.699219 2.136719-1.292969.277344-.410156.273438-1.230468-.21875-1.4375zm0 0" fill="none" stroke="#000" stroke-width=".037527"/><path d="m501.335938 209.734375c-1.265626-.34375-2.359376 1.808594-1.628907 2.957031.050781-1.199218 1.660157-.917968 1.996094-1.558594.234375-.445312.148437-1.253906-.367187-1.398437zm0 0" fill="#0051ba" fill-rule="evenodd"/><path d="m501.335938 209.734375c-1.269532-.34375-2.363282 1.808594-1.628907 2.957031.050781-1.199218 1.660157-.917968 1.996094-1.558594.234375-.445312.148437-1.253906-.367187-1.398437zm0 0" fill="none" stroke="#000" stroke-width=".037527"/><path d="m500.175781 205.71875c-1.132812-.730469-2.722656.988281-2.304687 2.324219.347656-1.132813 1.820312-.363281 2.304687-.871094.335938-.34375.460938-1.15625 0-1.453125zm0 0" fill="#0051ba" fill-rule="evenodd" stroke="#000" stroke-width=".037527"/><path d="m522.957031 208.589844c-1.261719-.34375-2.359375 1.804687-1.628906 2.957031.054687-1.195313 1.664063-.917969 1.996094-1.5625.234375-.4375.152343-1.253906-.367188-1.394531zm0 0" fill="#0051ba" fill-rule="evenodd"/><path d="m522.957031 208.589844c-1.261719-.34375-2.363281 1.804687-1.628906 2.957031.054687-1.195313 1.664063-.917969 1.996094-1.5625.234375-.4375.152343-1.253906-.367188-1.394531zm0 0" fill="none" stroke="#000" stroke-width=".037527"/><path d="m522.996094 206.335938c-1.144532-.683594-2.6875 1.101562-2.230469 2.414062.3125-1.140625 1.8125-.429688 2.28125-.957031.320313-.363281.417969-1.175781-.050781-1.457031zm0 0" fill="#0051ba" fill-rule="evenodd"/><path d="m522.996094 206.335938c-1.144532-.683594-2.6875 1.101562-2.230469 2.414062.3125-1.140625 1.8125-.429688 2.28125-.957031.324219-.363281.417969-1.175781-.050781-1.457031zm0 0" fill="none" stroke="#000" stroke-width=".037527"/><path d="m523.886719 210.601562c-1.277344-.285156-2.289063 1.921876-1.515625 3.03125.011718-1.195312 1.628906-.996093 1.941406-1.648437.214844-.457031.097656-1.265625-.425781-1.382813zm0 0" fill="#0051ba" fill-rule="evenodd"/><path d="m523.886719 210.601562c-1.277344-.285156-2.289063 1.921876-1.511719 3.03125.007812-1.195312 1.625-.996093 1.9375-1.648437.214844-.457031.097656-1.265625-.425781-1.382813zm0 0" fill="none" stroke="#000" stroke-width=".037527"/><path d="m481.382812 194.730469c.800782 0 1.128907.265625 1.128907 1.886719 0 3.4375-.039063 4.910156-1.027344 4.910156-.992187 0-.921875-1.398438-.921875-3.925782 0-1.316406 0-1.972656-.234375-1.863281 0-.859375.335937-1.007812 1.054687-1.007812zm0 0" fill="#0051ba" fill-rule="evenodd"/><path d="m481.382812 194.730469c.800782 0 1.125.265625 1.125 1.886719 0 3.4375-.039062 4.910156-1.023437 4.910156-.992187 0-.921875-1.398438-.921875-3.925782 0-1.316406 0-1.972656-.234375-1.863281 0-.859375.335937-1.007812 1.054687-1.007812zm0 0" fill="none" stroke="#000" stroke-width=".037527"/></svg>