<svg viewBox="0 0 1000 500" xmlns="http://www.w3.org/2000/svg"><path d="m0 0h1000v500h-1000z" fill="#ce1126"/><g fill-rule="evenodd"><path d="m582.316406 235.480469c14.601563 3.914062 36.6875 2.9375 46.605469 14.519531-14.597656-3.914062-32.585937 19.683594-46.605469 14.519531 12.378906 8.664063-180.070312 0-164.632812 0-14.601563-3.914062-36.6875-2.945312-46.605469-14.519531 14.597656 3.914062 32.585937-19.683594 46.605469-14.519531-12.378906-8.664063-33.855469-15.371094-38.832032-29.570313 12.375 8.664063 37.5625-7.417968 48.761719 2.292969-8.667969-12.378906-26.785156-25.960937-26.375-41.070313 8.664063 12.375 37.839844 5.75 45.035157 18.839844-3.914063-14.601562-15.691407-33.425781-10.734376-47.625 3.914063 14.597656 33.292969 18.21875 35.871094 33.105469 1.320313-15.058594-3.996094-36.84375 6.203125-48.414063-1.320312 15.046876 25.21875 28.488282 22.386719 43.375 6.386719-13.695312 9.921875-35.824218 22.386719-43.375-6.386719 13.695313 14.445312 35.328126 6.203125 48.414063 10.683594-10.6875 20.996094-30.476563 35.871094-33.105469-10.6875 10.683594.707031 37.90625-10.734376 47.625 13.695313-6.390625 29.859376-21.46875 45.035157-18.839844-13.695313 6.386719-12.34375 35.902344-26.375 41.070313 15.058593-1.308594 35.289062-9.855469 48.761719-2.292969-15.050782 1.316406-23.394532 29.570313-38.832032 29.570313zm0 0" fill="#fcd116" stroke="#bd9c08" stroke-width="2.5"/><path d="m430.601562 250-52.648437-21.515625 56.828125-2.214844-42.105469-38.230469 54.15625 17.355469-26.496093-50.324219 44.964843 34.828126-7.691406-56.347657 30.339844 48.105469 12.050781-55.582031 12.042969 55.582031 30.339843-48.105469-7.691406 56.347657 44.960938-34.828126-26.492188 50.324219 54.15625-17.355469-42.105468 38.230469 56.828124 2.214844-52.644531 21.515625 52.644531 21.523438h-244.085937zm0 0" fill="#fcd116" stroke="#bd9c08" stroke-width="2.5"/><path d="m568.929688 250c0 38.070312-30.859376 68.929688-68.929688 68.929688s-68.929688-30.859376-68.929688-68.929688 30.859376-68.929688 68.929688-68.929688 68.929688 30.859376 68.929688 68.929688zm0 0" fill="#fcd116" stroke="#bd9c08" stroke-width="3"/><path d="m0 275h1000v225h-1000zm0 0" fill="#003f87"/><path d="m0 428.574219c33.332031 0 66.667969 21.425781 100 21.425781s66.667969-21.425781 100-21.425781 66.667969 21.425781 100 21.425781 66.667969-21.425781 100-21.425781 66.667969 21.425781 100 21.425781 66.667969-21.425781 100-21.425781 66.667969 21.425781 100 21.425781 66.667969-21.425781 100-21.425781 66.667969 21.425781 100 21.425781 66.667969-21.425781 100-21.425781v-35.71875c-33.332031 0-66.667969 21.425781-100 21.425781s-66.667969-21.425781-100-21.425781-66.667969 21.425781-100 21.425781-66.667969-21.425781-100-21.425781-66.667969 21.425781-100 21.425781-66.667969-21.425781-100-21.425781-66.667969 21.425781-100 21.425781-66.667969-21.425781-100-21.425781-66.667969 21.425781-100 21.425781-66.667969-21.425781-100-21.425781zm0 0" fill="#fff"/><path d="m522.664062 83.105469 36.964844.246093c.234375-1.5625-3.167968-4.679687-6.074218-5.136718-9.355469-1.464844-16.371094 1.5625-27.730469 1.675781zm0 0" fill="#fcd116" stroke="#bd9c08" stroke-width="2"/><path d="m449.046875 74.40625c8.683594 10.96875 25.511719 18.585938 41.59375 18.683594 21.664063.140625 45.6875-17.398438 74.75-22.769532l-94.867187-1.953124c-12.269532-8.40625-21.582032-7.339844-27.9375-2.125l-18.132813.546874c-2.570313 1.398438 2.117187 7.242188 5.917969 7.453126zm0 0" fill="#fcd116" stroke="#bd9c08" stroke-width="2"/><path d="m491.933594 68.113281c-3.449219-15.859375-16.175782-22.703125-31.484375-24.730469-17.675781-2.34375-58.375-4.742187-85.402344-12.507812 11.695313 11.5 36.183594 17.246094 53.199219 19.839844 18.019531 2.75 35.554687 6.757812 49.457031 17.253906zm0 0" fill="#fcd116" stroke="#bd9c08" stroke-width="2"/><path d="m480.445312 78.703125c5.65625 7.257813 14.425782 6.84375 23.851563.511719 9.398437-6.304688 19.613281-24.078125 24.542969-24.363282 34.488281-2.011718 76.207031-16.5625 96.113281-27.808593-25.230469 3.570312-50.238281 7.625-75.6875 7.722656-43.414063.171875-48.558594 19.945313-66.25 33.8125zm0 0" fill="#fcd116"/></g><path d="m480.445312 78.703125c5.65625 7.257813 14.425782 6.84375 23.851563.511719 9.398437-6.304688 19.613281-24.078125 24.542969-24.363282 34.488281-2.011718 76.207031-16.5625 96.113281-27.808593-25.230469 3.570312-50.238281 7.625-75.6875 7.722656-43.414063.171875-48.558594 19.945313-66.25 33.8125" fill="none" stroke="#bd9c08" stroke-width="2"/><path d="m487.183594 70.175781c9.25-5.902343 16.769531-13.59375 25.4375-20.011719 14.339844-10.636718 30.917968-10.949218 48.707031-11.167968 15.761719-.195313 43.40625-6.785156 58.398437-10.300782" fill="none" stroke="#bd9c08" stroke-width="2"/><path d="m477.554688 67.390625c-2.726563-14.183594-16.007813-18.441406-32.78125-20.988281-18.246094-2.773438-36.855469-4.3125-55.0625-9.34375-4.511719-1.25-8.722657-3.449219-13.082032-5.171875" fill="none" stroke="#bd9c08" stroke-width="2"/><path d="m483.375 88.304688c17.113281 1.253906 29.839844-3.886719 44.449219-11.171876" fill="none" stroke="#bd9c08" stroke-width="2"/><path d="m424.382812 69.71875h21.605469" fill="none" stroke="#bd9c08" stroke-width="2"/><path d="m455.613281 67.398438c0 1.488281-1.203125 2.703124-2.699219 2.703124-1.488281 0-2.695312-1.214843-2.695312-2.703124 0-1.496094 1.207031-2.699219 2.695312-2.699219 1.496094 0 2.699219 1.203125 2.699219 2.699219zm0 0" fill="#bd9c08" fill-rule="evenodd"/><path d="m0 285.71875c33.332031 0 66.667969 21.425781 100 21.425781s66.667969-21.425781 100-21.425781 66.667969 21.425781 100 21.425781 66.667969-21.425781 100-21.425781 66.667969 21.425781 100 21.425781 66.667969-21.425781 100-21.425781 66.667969 21.425781 100 21.425781 66.667969-21.425781 100-21.425781 66.667969 21.425781 100 21.425781 66.667969-21.425781 100-21.425781v-35.71875c-33.332031 0-66.667969 21.425781-100 21.425781s-66.667969-21.425781-100-21.425781-66.667969 21.425781-100 21.425781-66.667969-21.425781-100-21.425781-66.667969 21.425781-100 21.425781-66.667969-21.425781-100-21.425781-66.667969 21.425781-100 21.425781-66.667969-21.425781-100-21.425781-66.667969 21.425781-100 21.425781-66.667969-21.425781-100-21.425781zm0 0" fill="#fff" fill-rule="evenodd"/><path d="m0 357.144531c33.332031 0 66.667969 21.429688 100 21.429688s66.667969-21.429688 100-21.429688 66.667969 21.429688 100 21.429688 66.667969-21.429688 100-21.429688 66.667969 21.429688 100 21.429688 66.667969-21.429688 100-21.429688 66.667969 21.429688 100 21.429688 66.667969-21.429688 100-21.429688 66.667969 21.429688 100 21.429688 66.667969-21.429688 100-21.429688v-35.71875c-33.332031 0-66.667969 21.429688-100 21.429688s-66.667969-21.429688-100-21.429688-66.667969 21.429688-100 21.429688-66.667969-21.429688-100-21.429688-66.667969 21.429688-100 21.429688-66.667969-21.429688-100-21.429688-66.667969 21.429688-100 21.429688-66.667969-21.429688-100-21.429688-66.667969 21.429688-100 21.429688-66.667969-21.429688-100-21.429688zm0 0" fill="#fff" fill-rule="evenodd"/></svg>