<svg viewBox="0 0 1000 667" xmlns="http://www.w3.org/2000/svg" xmlns:xlink="http://www.w3.org/1999/xlink"><clipPath id="a"><path d="m0 0h1000v666.71875h-1000zm0 0"/></clipPath><g clip-path="url(#a)"><path d="m0 666.667969v-666.667969h1000v666.667969zm0 0" fill="#ed1c24" fill-rule="evenodd"/></g><g fill-rule="evenodd"><path d="m0 166.667969h1000v333.332031h-1000zm0 0" fill="#fff"/><path d="m495.453125 166.667969-5.464844 9.105469c-3.007812 5.007812-10.296875 12.527343-16.167969 16.691406-5.871093 4.167968-12.953124 10.375-15.773437 13.792968l-5.148437 6.203126 5.46875-1.433594c2.992187-.792969 6.894531-2.054688 8.691406-2.816406 1.792968-.761719 3.257812-.339844 3.257812.949218 0 .039063.007813.097656 0 .128906-.003906.078126-.015625.183594-.035156.261719-.789062 3.214844-10.179688 10.574219-17.617188 13.660157-7.128906 2.953124-17.699218 10.667968-19.078124 13.75-.03125.078124-.058594.1875-.078126.257812-.011718.035156-.03125.097656-.039062.132812-.003906.03125 0 .097657 0 .128907v.039062.046875.042969c0 .007813-.003906.035156 0 .039063.007812.035156.027344.105468.039062.132812.007813.027344.027344.0625.039063.089844.007813.007812.03125.03125.039063.039062.007812.011719.027343.03125.039062.042969.007812.007813.035156.042969.039062.046875.027344.027344.085938.058594.121094.085938.832032.585937 3.128906.671874 5.777344.085937 4.648438-1.023437 6.570312-.386719 8.109375 2.777344 2.339844 4.839843 1 7.027343-4.410156 7.027343-6.542969 0-15.851563 6.5625-17.109375 12.09375-.84375 3.707032-4.414063 6.734376-12.078125 10.238282-12.507813 5.714844-28.652344 16.625-29.769531 19.984375-.027344.097656-.035157.226562-.039063.304687 0 4.761719 10.539063 4.429688 25.800781-.824218 3.421875-1.179688 4.933594.023437 7.511719 5.898437 3.195313 7.277344 3.144531 7.453125-4.28125 17.042969-5.199219 6.699218-9.753906 10.148437-14.71875 11.183594-9.875 2.070312-12.941406 4.078124-25.761719 16.871093-6.128906 6.125-12.28125 11.191407-13.683594 11.230469-.546874.019531-.910156.101562-1.097656.257812-.007812.007813-.035156.039063-.039062.046876-.007813.007812-.035156.039062-.042969.046874-.003906.003907-.035156.03125-.035156.039063-.007813.007813 0 .039063 0 .042969-.007813.007812-.039063.039062-.039063.046875-.007812.007812 0 .03125 0 .039062-.007812.007813 0 .039063 0 .046875v.042969c0 .015625-.007812.066406 0 .085937 0 .007813-.007812.03125 0 .046876.003906.03125.023438.089843.039063.128906.003906.011718.023437.066406.035156.082031.007813.023437.027344.066406.042969.085937 1.027344 1.902344 7.792968 5.640626 11.601562 5.640626 2.785156 0 9.570313-3.183594 15.0625-7.070313 9.628906-6.8125 10.113282-6.917969 14-3.035156 2.21875 2.214843 4.054688 6.503906 4.054688 9.5 0 4.5625-2.453125 6.652343-15.105469 13.089843-9.359375 4.773438-20.351563 12.964844-28.949219 21.558594-11.550781 11.542969-14.832031 13.671875-19.738281 12.875-3.109375-.5-4.839844-.707031-5.394531-.390625-.019532.015625-.0625.035157-.078125.046875-.007813.007813-.03125.03125-.039063.039063-.003906.007812-.03125.039062-.039062.046875-.019532.039062-.03125.121094-.039063.175781-.003906.585937 1.042969 1.796875 2.910157 3.851563 1.773437 1.953124 5.886718 3.5625 9.128906 3.5625 8.839844 0 36.8125-10.421876 45.425781-16.914063 8-6.023437 15.769531-7.1875 22.21875-3.386719 9.972656 5.886719-6.699219 17.734375-38.113281 27.105469-11.550782 3.449219-21.5625 6.800781-22.84375 7.636719-.019532.003906-.066406.027344-.085938.039062 0 .003906-.03125.039063-.039062.042969 0 .007813-.03125.039063-.039063.039063 0 .007812.007813.042968 0 .046874-.449219.75.214844 2.707032 1.574219 4.511719 3.28125 4.355469 19.785156 4.5625 33.859375.390625 5.640625-1.671875 19.675781-7.351562 31.195313-12.578125 20.890624-9.480469 20.96875-9.460937 28.28125-5.636719 16.980468 8.886719 15.410156 24.4375-5 50-8.886719 11.132813-16.769532 16.097657-31.109376 19.601563-5.304687 1.296875-16.203124 11.5625-16.203124 15.261719 0 .363281.070312.648437.15625.910156h3.660156c.800781-.585938 1.621094-1.433594 2.433594-2.511719 4.523437-6.003906 13.632812-10.015625 22.851562-10.066406 10.019531-.050781 22.292969-5.554687 31.503906-14.132813 8.097656-7.539062 16.230469-9.785156 22.382813-6.160156 3.40625 2.011719 6.503906 2.210938 10.617187.652344 7.320313-2.773438 10.933594-1.433594 10.933594 4.035156 0 2.453125 2.578125 5.753906 6.097656 7.761719 3.367188 1.917969 9.371094 6.613281 13.335938 10.449219 3.011718 2.921875 5.207031 4.25 6.363281 4.25.046875 0 .121094.007812.160156 0 .03125-.007813.089844.007812.121094 0 .015625-.007813.0625-.039063.078125-.046875.015625-.003907.058594-.03125.078125-.042969.046875-.019531.113281-.054688.15625-.085938.007813-.007812.03125-.039062.039063-.039062.007812-.003906.035156-.039062.039062-.046875.007812-.003906.035156-.039063.039062-.042969.007813-.007812.035157-.035156.039063-.039062.011719-.027344.027344-.066406.039063-.09375.007812-.019532.035156-.0625.042968-.082032.003906-.019531.03125-.066406.035156-.085937.015626-.03125.035157-.097656.039063-.128906.015625-.046875-.003906-.132813 0-.175781.117187-1.285157-.878906-3.867188-3.183594-7.5-1.359375-2.136719-2.050781-4.265626-1.847656-5.339844.011719-.046875.027344-.125.039063-.167969.007812-.019531.03125-.074219.039062-.09375.007812-.003906-.007812-.03125 0-.039063.007812-.003906.03125-.039062.039062-.042968.019532-.039063.050782-.097656.078126-.132813.007812-.003906.035156-.039062.039062-.042969.019531-.015624.058594-.027343.078125-.042968.007813-.003906.03125-.035156.039063-.042969.019531-.007813.058593-.03125.078124-.046875 1.28125-.488281 8.054688-.238281 15.460938.613281 13.027344 1.492188 14.609375 2.277344 22.300781 11.183594 3.792969 4.402344 6.914063 7.167969 9.4375 8.328125h5.230469c1.113281-.5 1.898438-1.230469 2.082031-1.953125.007813-.019531.039063-.066406.039063-.085937.007812-.03125 0-.101563 0-.128907.007812-.019531 0-.066406 0-.085937 0-.019532.007812-.070313 0-.089844v-.039062c0-.015626.007812-.03125 0-.046876-.441406-1.496093-8.164063-8.832031-17.421875-16.5625-21.042969-17.566406-24.269531-23.984374-24.339844-48.304687-.046875-14.550781.640625-18.277344 4.046875-22.03125 5.304688-5.847656 8.214844-5.707031 21.234375 1.085937 9.832031 5.125 12.894531 5.554688 35.242187 5.070313 24.003907-.519531 24.707032-.371094 36.769532 6.71875 6.765625 3.980469 15.027344 9.296875 18.414062 11.84375 7.460938 5.613281 15.046875 6.003906 16.828125.867187 2.117188-6.070312-12.074219-17.839843-38.734375-32.046874-26.519531-14.125-29.289062-18.078126-17.070312-24.496094 6.949218-3.660156 7.433594-3.589844 18.441406 2.550781 8.828125 4.925781 12.871094 5.988281 18.53125 4.816406l7.230469-1.515625-15.921875-13.054687c-8.761719-7.179688-17.234375-14.789063-18.84375-16.953125-4.652344-6.261719-13.644532-10.410156-22.5-10.410156-4.148438 0-8.019532-.792969-9.082032-1.777344-.03125-.03125-.089843-.097656-.117187-.128906-.003906-.007813-.03125-.03125-.039063-.046876-.011718-.011718-.03125-.0625-.039062-.082031-2.492188-4.441406 5.007812-6.550781 25.917969-7.371093 28.171875-1.113282 32.046875-4.394532 12.625-10.671876-7.753907-2.503906-19.382813-5.675781-25.839844-7.070312-7.878906-1.691406-12.246094-3.539062-13.332031-5.675781-.117188-.242188-.203125-.527344-.234375-.78125-.027344-.191407-.027344-.417969 0-.605469.097656-.730469.527343-1.492188 1.253906-2.296875 1.324219-1.457031 7.644531-1.296875 18.40625.519531 12.0625 2.03125 18.671875 2.492188 19.863281 1.082032 1.242188-1.617188-4.316406-5.652344-16.59375-12.441407-11.191406-6.191406-25.3125-16.210937-31.746094-22.554687-6.367187-6.28125-15.832031-13.429688-20.996093-15.871094-6.816407-3.214844-9.023438-5.402344-8.144531-7.9375 1.535156-4.40625 12.257812-4.453125 19.191406-.085938 2.820312 1.78125 10.203125 3.210938 16.402344 3.167969l11.289062-.085937-7.476562-3.035156c-7.460938-3.027344-27.765626-17.464844-29.335938-20.726563-.03125-.066406-.070312-.164063-.082031-.21875 0-.023437.003906-.070313 0-.089844 0 0 0-.03125 0-.039062.003906-.007813 0-.039063 0-.042969.003906-.007812.039062-.039062.039062-.046875.011719-.007813.03125-.03125.042969-.039063 0-.007812.035156-.039062.039062-.046874.828126-.609376 5.507813-.871094 11.128907-.558594l11.289062.644531-16.246093-12.527344c-11.914063-9.183593-19.257813-13.136719-27.648438-14.921875-6.285156-1.332031-13.488281-2.921875-16.007812-3.507812-6.734376-1.582032-18.050782-13.371094-22.652344-23.632813zm-37.011719 63.222656c.25-.007813.515625 0 .789063 0 2.089843 0 3.613281.511719 4.246093 1.300781.011719.019532.066407.066406.078126.085938.011718.019531.023437.070312.039062.089844.070312.117187.128906.261718.15625.390624.007812.027344.039062.097657.039062.128907.007813.039062 0 .125 0 .171875 0 .03125.007813.097656 0 .128906 0 .058594-.027343.15625-.039062.214844-.007812.039062-.027344.097656-.039062.132812-.4375 1.449219-2.792969 4.085938-5.269532 5.898438-1.890625 1.382812-3.019531 2.140625-3.65625 2.035156-.046875-.007812-.117187-.027344-.15625-.039062-.019531-.011719-.058594-.03125-.078125-.046876-.039062-.023437-.089843-.097656-.117187-.128906-.429688-.519531-.511719-1.933594-.511719-4.421875 0-4.5625.835937-5.804687 4.519531-5.941406zm54.789063 5.636719h.117187c3.195313 0 5.34375 1.496094 5.78125 3.992187.539063 3.082031-.742187 3.945313-5.78125 3.945313-2.832031 0-4.472656-.292969-5.269531-1.089844-.589844-.609375-.703125-1.527344-.476563-2.855469.433594-2.457031 2.515626-3.945312 5.628907-3.992187zm-16.046875 1.347656c2.777344-.222656 3.890625 1.425781 3.890625 4.941406 0 4.230469-1.613281 5.554688-9.238281 7.5-4.8125 1.230469-9.21875 1.796875-10.148438 1.347656-.019531-.011718-.058594-.03125-.078125-.046874-.007813-.003907-.035156-.039063-.042969-.042969-2.632812-2.910157-.324218-6.640625 6.257813-10.105469 4.234375-2.21875 7.265625-3.429688 9.359375-3.59375zm36.929687.039062c4.070313-.128906 4.585938 1.789063 2.597657 7.5-.683594 1.964844-3.519532 3.5625-6.292969 3.5625-4.066407 0-4.929688-.984374-4.410157-5.078124.46875-3.640626 2.261719-5.300782 6.296876-5.808594.671874-.085938 1.269531-.15625 1.808593-.175782zm-62.296875 11.0625c.136719-.015624.300782 0 .429688 0 4.9375 0 1.863281 9.308594-4.480469 13.566407-5.648437 3.796875-11.652344 5.429687-13.332031 3.953125-.011719-.015625-.03125-.042969-.039063-.046875-.109375-.109375-.214843-.253907-.28125-.390625-.003906-.019532-.03125-.066406-.039062-.085938-.007813-.03125-.023438-.101562-.039063-.128906-.003906-.027344-.03125-.066406-.039062-.089844-.003906-.035156.007812-.097656 0-.132812-.003906-.050782-.039063-.15625-.039063-.210938 0-.015625 0-.035156 0-.046875.136719-5.085937 12.027344-15.886719 17.859375-16.386719zm46.367188 21.546876c2.355468-.285157 3.847656 2.292968 3.027344 7.027343-.449219 2.628907-2.800782 4.453125-6.328126 4.902344-2.695312.335937-4.363281.21875-4.992187-.519531-.007813-.007813-.039063-.042969-.039063-.046875-.035156-.039063-.058593-.089844-.085937-.132813-.007813-.011718-.027344-.070312-.039063-.082031 0-.011719-.035156-.039063-.039062-.046875-.011719-.046875-.027344-.125-.039062-.175781-.3125-1.257813.984374-3.609375 3.855468-7.414063 1.667969-2.203125 3.320313-3.347656 4.679688-3.511718zm-18.445313 1.042968c.117188-.011718.214844 0 .3125 0 4.726563 0 5.488281 4.160156 1.226563 6.679688-1.972656 1.160156-3.886719 2.023437-4.527344 2.121094-.019531 0-.058594.046874-.078125.046874-.019531-.003906-.0625-.046874-.078125-.046874-.355469-.121094-2.96875-.960938-5.78125-1.90625l-5.117188-1.738282 5.78125-2.597656c2.976563-1.328125 6.550782-2.429688 8.261719-2.558594zm39.765625 5.203125c2.226563-.117187 4.648438.308594 7 1.300781 4.269532 1.789063 5.097656 3.339844 4.285156 8.019532-1.101562 6.363281-4.574218 7.070312-16.441406 3.296875-5.824218-1.855469-6.425781-2.742188-4.5625-6.589844 1.78125-3.671875 5.457032-5.800781 9.71875-6.027344zm-88.019531 1.558594h.390625c8.632812 0 9.824219 1.5 5.625 7.027344-1.414062 1.847656-4.089844 4.667969-5.976562 6.242187-2.898438 2.402344-3.78125 2.148438-5.625-1.644531-2.195313-4.519531-2.878907-7.496094-1.808594-9.277344.980468-1.601562 3.410156-2.304687 7.394531-2.347656zm-22.734375 3.820313c3.679688-.101563 5.949219 1.636718 8.886719 6.675781l4.128906 7.109375-6.175781 2.382812c-5.636719 2.167969-6.578125 1.757813-11.25-4.808594-2.933594-4.140624-4.058594-6.890624-3.261719-8.628906.074219-.15625.171875-.335937.273437-.480468.027344-.03125.09375-.097657.121094-.128907.03125-.035156.085938-.097656.117188-.132812 1.054687-1.054688 3.175781-1.625 6.410156-1.90625.261719-.019531.503906-.078125.75-.082031zm136.003906 21.285156c4.085938-.324219 8.265625 2.554687 7.667969 7.203125-.761719 5.902343-7.207031 7.609375-12.507813 3.339843-3.164062-2.554687-3.28125-3.496093-.824218-7.203124 1.40625-2.113282 3.519531-3.164063 5.664062-3.339844zm-77.207031 11.0625c.148437-.011719.316406 0 .472656 0 .347657 0 .664063.070312.945313.167968.167968.074219.363281.15625.507812.261719.046875.03125.117188.097657.15625.132813.019532.015625.0625.070312.085938.089844.011718.019531.058594.0625.078125.082031.011719.019531.058593.066406.078125.085937.625.808594.839844 2.1875.582031 4.074219-.804687 6.089844-4.835937 7.871094-6.566406 2.910156-1.535157-4.433593-.046875-7.570312 3.660156-7.804687zm-25.800781 4.679687c1.738281-.234375 4.582031.917969 7.433594 3.296875 1.941406 1.617188 2.742187 3.1875 2.714843 4.335938-.007812.109375-.019531.246094-.039062.351562-.015625.054688-.019531.15625-.039063.214844-.019531.046875-.058594.128906-.078125.175781-.035156.0625-.085937.148438-.117187.214844-.011719.019531-.027344.0625-.039063.082031-.019531.019532-.066406.074219-.085937.09375-.0625.078125-.148438.179688-.234375.257813-.019531.015625-.058594.074219-.078125.085937-1.183594.917969-3.695313.695313-6.566406-1.515625-2.371094-1.835937-4.34375-4.234375-4.519532-5.46875-.007812-.019531 0-.066406 0-.085937-.007812-.019532 0-.066406 0-.085938 0-1.175781.605469-1.808594 1.648438-1.953125zm41.019531.867188c.800781-.066407 1.636719.714843 3.03125 2.257812 1.753906 1.933594 3.8125 5.632813 4.5625 8.238281 1.800781 6.257813-1.042969 8.867188-6.609375 6.027344-5.96875-3.046875-7.421875-7.878906-3.972656-13.3125 1.324218-2.070312 2.136718-3.132812 2.988281-3.210937zm14.316406 8.503906c1.519531-.210937 3.582031 2.0625 4.089844 5.894531.300781 2.234375-.007813 4.144532-.703125 4.730469-.007812 0-.03125.039063-.039062.039063-.019532.019531-.058594.03125-.078126.042968-.035156.015625-.089843.035156-.125.046875-.003906 0-.023437.039063-.039062.039063-.003906.007812-.03125 0-.039062 0-.011719.007812-.058594 0-.078126 0-.003906 0-.03125 0-.035156 0-.007812 0-.035156 0-.042968 0-2.921876 0-4.601563-2.636719-4.601563-7.324219 0-2.246094.75-3.339844 1.691406-3.46875zm-89.90625 9.015625c3.011719 0 5.65625.164062 7.394531.519531 2.871094.59375 4.777344 1.414063 5.703126 2.382813.195312.21875.371093.46875.46875.699218.054687.117188.089843.273438.117187.390626.050781.242187.046875.523437 0 .78125-.339844 1.753906-2.863281 3.90625-7.546875 6.371093-3.886719 2.046875-10.453125 4.410157-14.632812 5.203125-6.933594 1.320313-7.882813.832032-10.777344-5.332031-1.710938-3.652344-3.105469-7.128906-3.144532-7.804687 0-.007813 0-.035157 0-.046876 0-.011718-.003906-.066406 0-.085937 0-.003906.035157-.03125.039063-.042969.007813-.015625.027344-.066406.039063-.085937.007812-.007813.035156-.03125.039062-.046875 1.445312-1.496094 13.457031-2.890625 22.300781-2.902344zm139.464844 20.292969c8.074219-.351563 12.433594 5.105469 3.660156 11.882812-5.644531 4.359375-13.941406 4.535157-19.078125.390625-3.695312-2.980468-3.507812-3.40625 3.222656-7.9375 4.257813-2.859375 8.589844-4.171875 12.195313-4.335937zm29.421875 6.375c.140625-.015625.296875.003906.429688 0 1.191406 0 3.949218 1.40625 6.136718 3.167969 3.894532 3.140624 3.882813 3.347656-.980468 9.0625-2.519532 2.957031-5.089844 5.273437-5.984376 5.464843-.003906 0-.03125 0-.039062 0s-.035156 0-.039062 0c-.007813 0-.03125 0-.039063 0s-.03125 0-.039063 0c-.652343-.203125-4.199218-.753906-7.863281-1.257812-4.078125-.558594-6.648437-2.203125-6.648437-4.207031 0-.089844.019531-.207032.039062-.304688.644532-3.378906 10.734375-11.398438 15.027344-11.925781zm-147.925781 9.023437c.378906-.019531.820312 0 1.296875 0 5.554687 0 8.613281 4.570313 8.613281 12.875 0 11.167969-6.804687 10.269532-9.949219-1.300781-2.734375-10.070313-3.007812-11.40625.039063-11.574219zm42.28125 3.164063c3.34375-.105469 11.449219 1.765625 12.503906 3.03125.007813.007812.039063.039062.039063.046875.007812.007812.039062.039062.039062.046875.007812.003906 0 .03125 0 .035156.007812.007813.039062.042969.039062.046875.007813.007812 0 .039062 0 .046875.007813.007813 0 .03125 0 .039063 0 .003906.007813.039062 0 .046874-.101562.863282-2.269531 4.378907-4.875 7.890626l-4.796874 6.464843-2.515626-8.328125c-1.242187-4.152344-2.011718-7.890625-1.847656-8.847656 0-.003906 0-.03125 0-.046875 0-.011719.03125-.023437.039063-.039063 0-.003906-.007813-.039062 0-.042968.007812-.007813.03125-.035156.039062-.046875.007813-.007813.027344-.03125.039063-.039063.007812-.007812.03125-.039062.039062-.046875.007813-.003906.03125.007813.039063 0 .003906-.003906.03125-.039062.039062-.042969.011719-.007812.058594-.035156.078125-.042968.246094-.09375.636719-.160156 1.101563-.171875zm-20.566407 3.683593c.601563-.058593 1.554688.097657 2.871094.308594 2.636719.40625 5.058594 2.601563 5.460938 4.9375.496094 2.839844.222656 4.824219-.46875 5.855469-.050782.078125-.136719.195313-.195313.257813-.070312.078124-.164062.15625-.234375.222656-.03125.019531-.09375.066406-.125.085937-.136718.089844-.3125.171875-.46875.214844-.0625.019531-.167968.039063-.234375.042969-.117187.015625-.273437.015625-.394531 0-1.371094-.175782-3.140625-1.867188-4.683594-5.160156-1.777344-3.789063-2.589844-5.585938-2.277344-6.328126.027344-.054687.078126-.128906.117188-.175781.136719-.132812.34375-.230469.632812-.261719zm0 0" fill="#00a651"/></g></svg>