<svg viewBox="0 0 1000 667" xmlns="http://www.w3.org/2000/svg" xmlns:xlink="http://www.w3.org/1999/xlink"><clipPath id="a"><path d="m0 0h1000v666.71875h-1000zm0 0"/></clipPath><clipPath id="b"><path d="m0 466h1000v200.71875h-1000zm0 0"/></clipPath><g clip-path="url(#a)"><path d="m0 666.667969v-666.667969h1000v666.667969zm0 0" fill="#fff" fill-rule="evenodd"/></g><g clip-path="url(#b)"><path d="m0 466.667969h1000v200h-1000zm0 0" fill="#009543" fill-rule="evenodd"/></g><path d="m0 0h1000v200h-1000zm0 0" fill="#00209f" fill-rule="evenodd"/><path d="m499.472656 212.375c-3.796875.082031-7.5 4.292969-7.5 4.292969l.324219 44.957031-14.195313 14.871094h11.492188l-.097656 25.789062-67.980469 91.535156-10.050781-3.472656-17.5625 37.46875s43.441406 27.203125 106.5 26.457032c69.203125-.816407 106.808594-27.710938 106.808594-27.710938l-18.152344-36.984375-8.886719 3.863281-68.851563-91.066406-.09375-26.550781h11.488282l-15.640625-14.683594.09375-44.800781s-3.890625-4.046875-7.695313-3.964844zm0 0" fill-rule="evenodd" stroke="#000" stroke-width="2.222221"/><path d="m523.179688 320.019531h-47.007813s-17.0625-35.949219-14.296875-61.078125c2.816406-25.589844 17.4375-37.695312 36.882812-37.90625 22.992188-.261718 35.035157 11.261719 38.675782 36.878906 3.609375 25.390626-14.253906 62.105469-14.253906 62.105469zm0 0" fill="none" stroke="#000" stroke-width="11.111114"/><g fill="#fff" fill-rule="evenodd"><path d="m417.308594 405.710938c-.773438 1.023437-6.402344 12.296874-6.402344 12.296874l9.730469-2.050781zm0 0"/><path d="m422.945312 420.3125-10.25 3.328125 12.292969 4.863281zm0 0"/><path d="m427.550781 405.96875 5.125 15.109375 12.550781-3.585937-3.332031-7.171876zm0 0"/><path d="m435.492188 426.460938 1.792968 6.144531 16.648438 4.097656-6.65625-14.085937zm0 0"/><path d="m453.933594 413.648438 5.890625 14.09375 12.550781-4.867188-4.097656-6.148438zm0 0"/><path d="m462.128906 432.859375 2.054688 5.378906 19.464844 2.820313-8.199219-12.808594zm0 0"/><path d="m480.828125 417.746094 7.171875 12.554687 18.183594-6.660156-2.042969-4.867187zm0 0"/><path d="m491.332031 434.914062 3.839844 6.65625 22.542969-.765624-8.453125-12.554688zm0 0"/><path d="m515.152344 418.261719 6.148437 10.503906 14.34375-6.917969-3.839843-5.636718zm0 0"/><path d="m538.714844 426.199219-14.339844 7.171875 3.839844 6.152344 19.214844-3.078126zm0 0"/><path d="m543.328125 415.1875 7.425781 9.222656 12.039063-9.480468-4.097657-4.351563zm0 0"/><path d="m565.355469 420.054688-11.523438 8.710937 3.070313 5.375 15.882812-4.09375zm0 0"/><path d="m581.238281 401.867188 2.816407 4.101562-7.941407 11.777344-8.195312-10.496094zm0 0"/><path d="m586.617188 412.117188 4.863281 9.730468-9.730469 3.332032-.769531-4.613282zm0 0"/></g></svg>