<svg viewBox="0 0 1000 667" xmlns="http://www.w3.org/2000/svg" xmlns:xlink="http://www.w3.org/1999/xlink"><clipPath id="a"><path d="m0 0h1000v666.71875h-1000zm0 0"/></clipPath><g clip-path="url(#a)"><path d="m0 666.667969v-666.667969h1000v666.667969zm0 0" fill="#00785e" fill-rule="evenodd"/></g><g fill-rule="evenodd"><path d="m500 125.695312-8.210938 25.316407h-26.628906l21.539063 15.648437-8.226563 25.300782 21.527344-15.625 21.527344 15.625-8.226563-25.300782 21.539063-15.648437h-26.628906zm-105.054688 44.410157 5.394532 17.609375-15.09375 10.558594 18.40625.324218 5.386718 17.613282 6-17.414063 18.414063.3125-14.699219-11.078125 5.984375-17.414062-15.09375 10.566406zm210.109376 0-14.699219 11.078125-15.09375-10.566406 5.984375 17.414062-14.699219 11.078125 18.414063-.3125 6 17.414063 5.386718-17.613282 18.40625-.324218-15.09375-10.558594zm-245 58.179687-7.773438 16.691406-18.277344-2.25 13.46875 12.554688-7.785156 16.699219 16.105469-8.929688 13.464843 12.554688-3.507812-18.074219 16.09375-8.929688-18.265625-2.234374zm279.890624 0-3.523437 18.082032-18.265625 2.234374 16.09375 8.929688-3.507812 18.074219 13.464843-12.554688 16.105469 8.929688-7.785156-16.699219 13.46875-12.554688-18.277344 2.25zm0 0" fill="#fbd116"/><path d="m500 213.335938c-23.910156 20.667968-39.0625 51.210937-39.0625 85.277343 0 23.164063 7.003906 44.707031 19.011719 62.617188-14.742188-19.046875-23.523438-42.9375-23.523438-68.867188 0-17.226562 3.875-33.550781 10.792969-48.15625-4.78125-5.054687-8.410156-11.203125-10.460938-18.035156-9.269531 16.371094-14.566406 35.28125-14.566406 55.425781 0 25.058594 8.1875 48.207032 22.046875 66.925782-24.125-25.289063-58.152343-41.0625-95.835937-41.0625-2.023438 0-4.039063.050781-6.046875.148437 3.796875 3.527344 6.976562 7.707031 9.382812 12.355469 37.484375.058594 71.324219 15.722656 95.390625 40.832031-22.984375-19.199219-52.570312-30.761719-84.832031-30.761719-18.039063 0-35.234375 3.609375-50.910156 10.140625 16.109375 42.554688 57.246093 72.84375 105.417969 72.84375 3.121093 0 6.214843-.140625 9.269531-.394531-6.503907 1.171875-13.199219 1.785156-20.035157 1.785156-30.390624 0-57.976562-12.058594-78.25-31.640625-4.226562 1.625-8.75 2.640625-13.472656 2.921875 20.65625 23.355469 50.832032 38.09375 84.4375 38.09375 31.914063 0 60.738282-13.296875 81.246094-34.648437 20.507812 21.351562 49.332031 34.648437 81.246094 34.648437 33.605468 0 63.78125-14.738281 84.4375-38.09375-4.722656-.28125-9.246094-1.296875-13.472656-2.921875-20.273438 19.582031-47.859376 31.640625-78.25 31.640625-6.835938 0-13.53125-.613281-20.035157-1.785156 3.054688.253906 6.148438.394531 9.269531.394531 48.171876 0 89.308594-30.289062 105.417969-72.84375-15.675781-6.53125-32.871093-10.140625-50.910156-10.140625-32.261719 0-61.847656 11.5625-84.832031 30.761719 24.066406-25.109375 57.90625-40.773437 95.390625-40.832031 2.40625-4.648438 5.585937-8.828125 9.382812-12.355469-2.007812-.097656-4.023437-.148437-6.046875-.148437-37.683594 0-71.710937 15.773437-95.835937 41.0625 13.859375-18.71875 22.046875-41.867188 22.046875-66.925782 0-20.144531-5.296875-39.054687-14.566406-55.425781-2.050782 6.832031-5.679688 12.980469-10.460938 18.035156 6.917969 14.605469 10.792969 30.929688 10.792969 48.15625 0 25.929688-8.78125 49.820313-23.523438 68.867188 12.007813-17.910157 19.011719-39.453125 19.011719-62.617188 0-34.066406-15.152344-64.609375-39.0625-85.277343zm0 187.957031c-20.226562 19.308593-47.625 31.167969-77.777344 31.167969h-87.683594c2.582032 3.804687 5.289063 7.511718 8.125 11.113281h84.769532c27.636718 0 52.953125-9.972657 72.566406-26.507813 19.613281 16.535156 44.929688 26.507813 72.566406 26.507813h84.769532c2.835937-3.601563 5.542968-7.308594 8.125-11.113281h-87.683594c-30.152344 0-57.550782-11.859376-77.777344-31.167969zm-147.617188 53.742187c1.726563 1.886719 3.492188 3.734375 5.292969 5.554688h284.648438c1.800781-1.820313 3.566406-3.667969 5.292969-5.554688zm17.570313 17.015625c3.523437 3.011719 7.140625 5.910157 10.859375 8.675781h238.375c3.71875-2.765624 7.335938-5.664062 10.859375-8.675781zm23.527344 17.363281c6.453125 4.070313 13.140625 7.78125 20.066406 11.101563h172.90625c6.925781-3.320313 13.613281-7.03125 20.066406-11.101563zm32.761719 16.660157c22.820312 9.078125 47.707031 14.0625 73.757812 14.0625s50.9375-4.984375 73.757812-14.0625zm0 0" fill="#fff"/></g></svg>