<svg viewBox="0 0 1000 667" xmlns="http://www.w3.org/2000/svg" xmlns:xlink="http://www.w3.org/1999/xlink"><clipPath id="a"><path d="m0 0h1000v666.71875h-1000zm0 0"/></clipPath><g clip-path="url(#a)"><path d="m0 666.667969v-666.667969h1000v666.667969zm0 0" fill="#d21034" fill-rule="evenodd"/></g><g fill-rule="evenodd"><path d="m166.667969 166.667969h666.664062v333.332031h-666.664062zm0 0" fill="#007e3a"/><path d="m652.777344 333.332031c0 61.371094-49.742188 111.113281-111.109375 111.113281-61.371094 0-111.113281-49.742187-111.113281-111.113281 0-61.367187 49.742187-111.109375 111.113281-111.109375 61.367187 0 111.109375 49.742188 111.109375 111.109375zm0 0" fill="#fff"/><path d="m694.445312 333.332031c0 61.371094-49.742187 111.113281-111.113281 111.113281-61.367187 0-111.109375-49.742187-111.109375-111.113281 0-61.367187 49.742188-111.109375 111.109375-111.109375 61.371094 0 111.113281 49.742188 111.113281 111.109375zm0 0" fill="#007e3a"/></g></svg>