<svg viewBox="0 0 1000 500" xmlns="http://www.w3.org/2000/svg"><path d="m0 0h1000v500h-1000z" fill="#c4272f"/><g fill-rule="evenodd"><path d="m333.332031 0h333.335938v500h-333.335938zm0 0" fill="#015197"/><path d="m212.5 170.832031c0 25.316407-20.519531 45.835938-45.832031 45.835938-25.316407 0-45.835938-20.519531-45.835938-45.835938 0-25.3125 20.519531-45.832031 45.835938-45.832031 25.3125 0 45.832031 20.519531 45.832031 45.832031zm0 0" fill="#f9cf02"/><path d="m216.667969 150c0 27.613281-22.386719 50-50 50-27.617188 0-50-22.386719-50-50s22.382812-50 50-50c27.613281 0 50 22.386719 50 50zm0 0" fill="#c4272f"/><path d="m200 158.332031c0 18.410157-14.925781 33.335938-33.332031 33.335938-18.410157 0-33.335938-14.925781-33.335938-33.335938 0-18.40625 14.925781-33.332031 33.335938-33.332031 18.40625 0 33.332031 14.925781 33.332031 33.332031zm0 0" fill="#f9cf02"/><path d="m145.832031 95.832031c0 5.457031 2.246094 10.875 6.101563 14.734375 3.859375 3.855469 9.277344 6.101563 14.734375 6.101563 5.453125 0 10.875-2.246094 14.730469-6.101563 3.855468-3.859375 6.101562-9.277344 6.101562-14.734375 0-8.332031-5.207031-9.375-5.207031-12.5s3.125-7.289062-3.125-12.5c3.125 5.210938-2.085938 6.25-2.085938 11.460938 0 5.207031 2.085938 5.207031 2.085938 9.375zm0 0" fill="#f9cf02"/><path d="m75 225h41.667969v200h-41.667969zm0 0" fill="#f9cf02"/><path d="m216.667969 225h41.664062v200h-41.664062zm0 0" fill="#f9cf02"/><path d="m125 258.332031h83.332031v16.667969h-83.332031zm0 0" fill="#f9cf02"/><path d="m125 375h83.332031v16.667969h-83.332031zm0 0" fill="#f9cf02"/><path d="m125 225h83.332031l-41.664062 25zm0 175h83.332031l-41.664062 25zm0 0" fill="#f9cf02"/><path d="m210.832031 325c0 24.394531-19.773437 44.167969-44.164062 44.167969-24.394531 0-44.167969-19.773438-44.167969-44.167969s19.773438-44.167969 44.167969-44.167969c24.390625 0 44.164062 19.773438 44.164062 44.167969zm0 0" fill="#f9cf02" stroke="#c4272f" stroke-width="5"/></g><path d="m166.667969 280.832031c5.78125 0 11.527343 2.382813 15.613281 6.46875 4.089844 4.089844 6.46875 9.835938 6.46875 15.617188s-2.378906 11.527343-6.46875 15.613281c-4.085938 4.089844-9.832031 6.46875-15.613281 6.46875s-11.527344 2.378906-15.617188 6.46875c-4.085937 4.085938-6.46875 9.832031-6.46875 15.613281s2.382813 11.527344 6.46875 15.617188c4.089844 4.085937 9.835938 6.46875 15.617188 6.46875" fill="none" stroke="#c4272f" stroke-width="5"/><path d="m175 302.917969c0 4.601562-3.730469 8.332031-8.332031 8.332031-4.601563 0-8.335938-3.730469-8.335938-8.332031 0-4.605469 3.734375-8.335938 8.335938-8.335938 4.601562 0 8.332031 3.730469 8.332031 8.335938zm0 0" fill="#c4272f" fill-rule="evenodd"/><path d="m175 347.082031c0 4.605469-3.730469 8.335938-8.332031 8.335938-4.601563 0-8.335938-3.730469-8.335938-8.335938 0-4.601562 3.734375-8.332031 8.335938-8.332031 4.601562 0 8.332031 3.730469 8.332031 8.332031zm0 0" fill="#c4272f" fill-rule="evenodd"/></svg>