<svg viewBox="0 0 1000 501" xmlns="http://www.w3.org/2000/svg"><path d="m0 1.25h1000v500h-1000zm0 0" fill="#00247d" fill-rule="evenodd"/><path d="m641.222656 124.1875h214.066406l-.253906 152.320312c1.777344 61.234376-36.386718 99.234376-106.613281 116.363282-49.867187-12.382813-107.371094-37.992188-107.457031-114.625zm0 0" fill="#fff" fill-rule="evenodd"/><path d="m645.960938 128.777344h204.578124l-.246093 145.964844c1.703125 58.675781-34.769531 95.085937-101.882813 111.503906-47.65625-11.867188-102.613281-36.414063-102.691406-109.839844zm0 0" fill="#00a2bd" fill-rule="evenodd" stroke="#000" stroke-width="1.510439"/><path d="m848.953125 292.03125c-7.4375 56.011719-50.574219 80.480469-100.542969 93.464844-44.234375-11.859375-91.820312-30.804688-101.042968-93.183594zm0 0" fill="#a53d08" fill-rule="evenodd"/><path d="m700.375 155.824219 39.925781.148437-.28125-18.398437 14.546875.140625.140625 18.257812h39.785157l.148437 14.257813-39.933594.140625-.316406 168.179687-14.191406.089844-.179688-168.410156-39.652343.140625zm0 0" fill-rule="evenodd"/><path d="m708.097656 298.976562 36.417969 37.777344c12.59375-13.84375 3.859375-65.578125-12.710937-75.109375-1.980469 6.128907-5.359376 13.472657-8.949219 15.839844-7.894531 5.382813-27.242188 11.671875-20.777344 15.699219 1.476563-2.042969 5.335937-3.96875 7.152344.570312 2.15625 7.148438-8.054688 7.605469-8.054688 7.605469s-6.46875-.796875-7.601562-7.378906c-1.136719-6.578125 9.628906-12.589844 10.550781-13.046875.910156-.34375 14.976562-4.082032 17.359375-16.5625 2.949219-12.257813 6.011719-10.441406 6.582031-10.667969 18.378906 1.8125 30.40625 34.71875 31.082032 57.863281.683593 23.144532-9.414063 38.460938-11.226563 39.484375-1.816406 1.019531-43.796875-49.8125-43.796875-49.8125zm0 0" fill="#ff9a08" fill-rule="evenodd"/><path d="m708.097656 298.976562 36.417969 37.777344c12.59375-13.84375 3.859375-65.578125-12.710937-75.109375-1.980469 6.128907-5.359376 13.472657-8.949219 15.839844-7.894531 5.382813-27.242188 11.671875-20.777344 15.699219 1.476563-2.042969 5.335937-3.96875 7.152344.570312 2.15625 7.148438-8.054688 7.601563-8.054688 7.601563s-6.46875-.792969-7.601562-7.375c-1.136719-6.578125 9.628906-12.589844 10.550781-13.046875.910156-.34375 14.976562-4.082032 17.359375-16.5625 2.949219-12.257813 6.011719-10.441406 6.582031-10.671875 18.378906 1.816406 30.40625 34.722656 31.082032 57.867187.683593 23.144532-9.414063 38.460938-11.226563 39.484375-1.816406 1.019531-43.796875-49.8125-43.796875-49.8125zm0 0" fill="none" stroke="#000" stroke-width=".80635"/><path d="m734.644531 263.796875.226563 68.191406" fill="none" stroke="#000" stroke-width=".80635"/><path d="m730.5625 265.046875c0 .113281.222656 61.949219.222656 61.949219" fill="none" stroke="#000" stroke-width=".80635"/><path d="m726.136719 274.011719.226562 49.242187" fill="none" stroke="#000" stroke-width=".80635"/><path d="m722.503906 277.527344.226563 40.734375" fill="none" stroke="#000" stroke-width=".80635"/><path d="m718.648438 279.347656v34.375" fill="none" stroke="#000" stroke-width=".80635"/><path d="m714.449219 282.066406v27.230469" fill="none" stroke="#000" stroke-width=".80635"/><path d="m710.820312 284.222656v20.875" fill="none" stroke="#000" stroke-width=".80635"/><path d="m707.527344 303.285156 37.554687 43" fill="none" stroke="#ffdf00" stroke-width=".80635"/><path d="m746.898438 276.167969s17.019531 37.214843 1.246093 67.84375" fill="none" stroke="#ffdf00" stroke-width="1.510439"/><path d="m703.105469 295.453125s1.246093-3.289063 2.832031-1.929687" fill="none" stroke="#ffdf00" stroke-width="1.510439"/><path d="m700.152344 285.921875s-6.808594 6.015625-3.0625 9.875" fill="none" stroke="#ffdf00" stroke-width="1.510439"/><path d="m0 1.25v27.949219l444.097656 222.050781h55.902344v-27.949219l-444.097656-222.050781zm500 0v27.949219l-444.097656 222.050781h-55.902344v-27.949219l444.097656-222.050781zm0 0" fill="#fff" fill-rule="evenodd"/><path d="m0 251.25 166.664062-83.335938h37.269532l-166.667969 83.335938zm0-250 166.664062 83.335938h-37.265624l-129.398438-64.703126zm296.066406 83.335938 166.667969-83.335938h37.265625l-166.664062 83.335938zm203.933594 166.664062-166.664062-83.335938h37.265624l129.398438 64.703126zm0 0" fill="#cf142b" fill-rule="evenodd"/><path d="m754.816406 191.285156c2.523438-2.160156 3.832032-3.484375 5.386719-3.242187 1.5625.238281 3.6875.121093 5.25-.363281 1.566406-.476563 9.316406-1.441407 12.5-.359376 1.085937.121094 2.519531.722657 4.742187 2.585938 2.226563 1.859375 5.46875 5.105469 4.390626 14.117188-1.085938 9.007812-.726563 12.867187-1.203126 17.898437-.839843 8.894531-2.8125 16.21875-6.367187 15.621094 4.804687 8.414062 5.285156 15.621093 8.410156 21.390625 3.125 5.769531 5.042969 17.542968 3.839844 30.28125-1.195313 12.734375-4.558594 41.332031 5.53125 60.554687-1.683594 1.203125-5.761719 0-9.371094-3.847656-3.605469-3.84375-5.1875-3.714844-8.175781-1.4375-9.125 6.964844-17.675781 15.371094-30.273438 6.964844-2.886718-1.917969-3.796874-4.226563-1.679687-10.089844 5.285156-14.660156 7.851563-34.773437 7.019531-44.214844zm0 0" fill="#008021" fill-rule="evenodd"/><path d="m754.816406 191.285156c2.523438-2.160156 3.832032-3.484375 5.386719-3.242187 1.5625.238281 3.6875.121093 5.25-.363281 1.566406-.476563 9.316406-1.441407 12.5-.359376 1.085937.121094 2.519531.722657 4.742187 2.585938 2.226563 1.859375 5.46875 5.105469 4.390626 14.117188-1.085938 9.007812-.726563 12.867187-1.203126 17.898437-.839843 8.894531-2.8125 16.21875-6.367187 15.621094 4.804687 8.414062 5.285156 15.621093 8.410156 21.390625 3.125 5.769531 5.042969 17.542968 3.839844 30.28125-1.195313 12.734375-4.558594 41.332031 5.53125 60.554687-1.683594 1.203125-5.761719 0-9.371094-3.847656-3.605469-3.84375-5.1875-3.714844-8.175781-1.441406-9.125 6.96875-17.675781 15.375-30.273438 6.96875-2.886718-1.917969-3.796874-4.226563-1.679687-10.09375 5.285156-14.65625 7.851563-34.769531 7.019531-44.210938zm0 0" fill="none" stroke="#000" stroke-width=".332285"/><path d="m763.476562 182.273438c.660157 2.042968 1.015626 4.6875-.0625 7.089843-1.082031 2.402344-1.320312 5.289063.476563 8.773438 2.886719-4.089844 6.972656-3.246094 9.375-5.648438 2.402344-2.40625 2.886719-4.6875 4.6875-5.167969-1.800781-1.558593-4.5625-3.242187-3.964844-7.808593.601563-4.566407 6.96875-8.292969 1.203125-15.257813-3.726562-4.503906-9.136718-3.246094-11.476562-1.503906-1.101563.820312-2.039063 1.980469-2.402344 2.761719-.359375.78125.089844 2.558593-.785156 3.605469-.597656.722656-1.324219 1.4375-2.164063 2.046874-.535156.386719-.875.953126-.296875 1.617188.230469.265625.65625.324219 1.117188.484375-.265625.539063-.574219 1.078125-.878906 1.46875-.28125.367187-.160157.71875.179687 1.015625-.453125 1.441406.425781 1.597656-.179687 2.683594-.519532.929687-1.226563 2.039062.722656 3.117187.542968.304688 3.097656.894531 4.449218.722657zm0 0" fill="#ffe1cf" fill-rule="evenodd"/><path d="m763.476562 182.273438c.660157 2.042968 1.015626 4.6875-.0625 7.089843-1.082031 2.402344-1.320312 5.289063.476563 8.773438 2.886719-4.089844 6.972656-3.246094 9.375-5.648438 2.402344-2.40625 2.886719-4.6875 4.6875-5.167969-1.800781-1.558593-4.5625-3.242187-3.964844-7.808593.601563-4.566407 6.96875-8.289063 1.203125-15.257813-3.726562-4.503906-9.136718-3.246094-11.476562-1.503906-1.101563.820312-2.039063 1.980469-2.402344 2.761719-.359375.78125.089844 2.558593-.785156 3.605469-.597656.722656-1.324219 1.4375-2.164063 2.046874-.535156.386719-.875.953126-.296875 1.621094.230469.261719.65625.320313 1.117188.480469-.265625.539063-.574219 1.082031-.878906 1.46875-.28125.367187-.160157.71875.179687 1.019531-.453125 1.4375.425781 1.59375-.179687 2.679688-.519532.929687-1.226563 2.039062.722656 3.117187.542968.304688 3.097656.894531 4.449218.722657zm0 0" fill="none" stroke="#000" stroke-width=".332285"/><path d="m740.109375 206.1875c-3.371094.839844-8.777344-.601562-12.863281-.125-1.800782.214844-3.242188-.714844-3-2.515625.238281-1.808594.480468-4.570313.113281-7.09375-.554687-3.933594 1.324219-9.375 3.96875-15.378906 2.644531-6.011719 3.96875-9.371094 3.96875-12.199219 0-1.859375.179687-3.960938 1.859375-5.042969 1.242188-.800781 1.484375-1.574219 1.921875-2.226562 1.023437-1.496094 1.984375-1.859375 2.101563-.957031.074218.53125-.117188 1.023437-.601563 1.738281 1.085937-.898438 2.917969-1.953125 3.335937-2.25.417969-.296875 2.558594-1.800781 2.675782-.390625.839844-.417969 1.410156-.390625 1.621094.058594.230468.488281.089843.691406-.332032 1.054687.601563-.121094 1.292969.929687.09375 1.859375.628906-.207031 1.257813.839844.148438 1.800781-1.152344.992188-2.464844 1.6875-2.886719 2.46875-.417969.78125-3.273437 2.972657-4.410156 3.449219-1.144531.484375-1.203125 1.144531-1.203125 2.824219 0 18.503906-2.222656 17.003906-2.222656 21.449219 0 1.203124-.242188 2.28125.957031 1.921874 1.207031-.359374 2.945312-.898437 4.753906-.898437zm0 0" fill="#ffe1cf" fill-rule="evenodd"/><path d="m740.109375 206.1875c-3.371094.839844-8.777344-.601562-12.863281-.121094-1.800782.210938-3.242188-.71875-3-2.523437.238281-1.804688.480468-4.566407.113281-7.089844-.554687-3.933594 1.324219-9.375 3.96875-15.378906 2.644531-6.011719 3.96875-9.371094 3.96875-12.195313 0-1.863281.179687-3.964844 1.859375-5.046875 1.242188-.800781 1.484375-1.574219 1.921875-2.226562 1.023437-1.5 1.984375-1.859375 2.101563-.957031.074218.53125-.117188 1.019531-.601563 1.738281 1.085937-.898438 2.917969-1.953125 3.335937-2.25.417969-.296875 2.558594-1.800781 2.675782-.390625.839844-.421875 1.410156-.390625 1.621094.058594.230468.488281.089843.691406-.332032 1.054687.601563-.121094 1.292969.929687.09375 1.859375.628906-.207031 1.257813.839844.148438 1.800781-1.152344.992188-2.464844 1.6875-2.886719 2.46875-.417969.78125-3.273437 2.972657-4.410156 3.453125-1.144531.480469-1.203125 1.140625-1.203125 2.820313 0 18.503906-2.222656 17-2.222656 21.449219 0 1.203124-.242188 2.28125.957031 1.921874 1.207031-.359374 2.945312-.902343 4.753906-.902343zm0 0" fill="none" stroke="#000" stroke-width=".332285"/><path d="m740.824219 246.074219c5.429687-2.714844 11.65625-3.71875 14.898437-4.566407 3.242188-.839843 8.414063-3.359374 10.933594-4.679687 2.527344-1.324219 4.570312-3.125 6.011719-3.605469 1.441406-.484375 3.054687-1.476562 3.964843-3.246094 4.679688-9.132812 7.210938-16.460937 7.210938-22.828124 0-4.210938-1.085938-8.890626-5.171875-5.527344-3.839844 3.160156-8.023437 9.257812-9.128906 13.695312-1.683594 6.730469-3.121094 8.167969-3.488281 9.492188-.355469 1.324218-1.71875 1.320312-3.363282 1.683594-7.089844 1.558593-8.769531 2.644531-14.058594 6.609374-5.28125 3.964844-11.054687 7.449219-14.898437 9.613282-3.847656 2.164062-4.5625 2.402344-5.40625 4.140625-.839844 1.742187-1.621094 3.066406-2.34375 3.847656-.71875.78125-.925781 1.695313-.78125 2.640625.125.78125-.242187 4.390625-.296875 5.589844-.0625 1.203125.234375 1.5.722656 1.558594.480469.0625 1.136719-.175782 1.382813-1.621094-.246094 1.445312 1.738281.960937 1.859375-.117188-.0625 1.5625 2.042968.660156 2.164062-.78125 0 1.019532 1.59375.3125 1.738282-.179687.363281-1.203125.660156-2.523438 1.144531-3.488281.695312-1.390626 1.449219-3.199219 2.820312-4.203126 1.5625-1.140624.839844-2.402343 4.085938-4.027343zm0 0" fill="#ffe1cf" fill-rule="evenodd"/><path d="m740.824219 246.074219c5.429687-2.714844 11.65625-3.71875 14.898437-4.566407 3.242188-.839843 8.414063-3.359374 10.933594-4.683593 2.527344-1.320313 4.570312-3.125 6.011719-3.601563 1.441406-.484375 3.054687-1.476562 3.964843-3.246094 4.679688-9.132812 7.210938-16.460937 7.210938-22.828124 0-4.207032-1.085938-8.890626-5.171875-5.527344-3.839844 3.160156-8.023437 9.257812-9.128906 13.695312-1.683594 6.730469-3.121094 8.167969-3.488281 9.492188-.355469 1.324218-1.71875 1.320312-3.363282 1.683594-7.089844 1.558593-8.769531 2.644531-14.058594 6.609374-5.28125 3.964844-11.054687 7.449219-14.898437 9.613282-3.847656 2.164062-4.5625 2.402344-5.40625 4.140625-.839844 1.742187-1.621094 3.066406-2.34375 3.847656-.71875.78125-.925781 1.695313-.78125 2.640625.125.78125-.242187 4.390625-.296875 5.589844-.0625 1.203125.234375 1.5.722656 1.558594.480469.0625 1.136719-.175782 1.382813-1.621094-.246094 1.445312 1.738281.960937 1.859375-.117188-.0625 1.5625 2.042968.660156 2.164062-.78125 0 1.019532 1.59375.3125 1.738282-.179687.363281-1.203125.660156-2.523438 1.144531-3.488281.695312-1.390626 1.449219-3.199219 2.820312-4.203126 1.5625-1.140624.839844-2.402343 4.085938-4.027343zm0 0" fill="none" stroke="#000" stroke-width=".332285"/><path d="m779.75 344.484375c.367188 1.320313 1.027344 2.820313 1.265625 3.722656.238281.902344-.179687 1.183594-.417969 1.683594-1.261718 2.644531-2.617187 6.855469-2.828125 9.132813-.113281 1.316406-1.015625 2.582031-1.441406 3.363281-.464844.859375-.28125 1.523437.78125 2.34375.511719.390625 2.164063-.121094 2.34375-.960938.601563.601563 1.679687.363281 2.164063-.542969.542968.542969 1.445312.179688 2.046874-.722656.535157.363282 1.316407-.359375 1.613282-.839844.84375.421876 1.75-.085937 1.773437-1.742187.007813-.332031.214844-.898437.453125-1.289063.238282-.390624.328125-1.144531.304688-1.800781-.035156-.664062.390625-1.984375.957031-2.914062.570313-.933594 1.5625-2.585938 1.140625-4.148438-.390625-1.453125-1.019531-1.320312-1.5625-3.421875-1.316406-1.382812-3.117188-3.304687-4.984375-3.425781-1.859375-.121094-2.9375 1.140625-3.609375 1.5625zm0 0" fill="#ffe1cf" fill-rule="evenodd"/><path d="m779.75 344.480469c.367188 1.324219 1.027344 2.824219 1.265625 3.726562.238281.902344-.179687 1.183594-.417969 1.683594-1.261718 2.644531-2.617187 6.855469-2.828125 9.132813-.113281 1.316406-1.015625 2.582031-1.441406 3.363281-.464844.859375-.28125 1.523437.78125 2.34375.511719.390625 2.164063-.121094 2.34375-.960938.601563.601563 1.679687.363281 2.164063-.542969.542968.542969 1.445312.183594 2.046874-.722656.535157.363282 1.316407-.359375 1.613282-.839844.84375.421876 1.75-.085937 1.773437-1.742187.007813-.332031.214844-.898437.453125-1.289063.238282-.390624.328125-1.144531.304688-1.800781-.035156-.664062.390625-1.984375.957031-2.914062.570313-.933594 1.5625-2.585938 1.140625-4.148438-.390625-1.453125-1.019531-1.320312-1.5625-3.421875-1.316406-1.382812-3.117188-3.304687-4.984375-3.429687-1.859375-.117188-2.9375 1.144531-3.609375 1.5625zm0 0" fill="none" stroke="#000" stroke-width=".332285"/><path d="m745.570312 354.8125c1.679688 1.6875 5.46875 1.746094 8.109376-1.078125-.960938-.417969-3.066407-1.378906-4.019532-2.160156-1.324218 1.320312-2.828125 2.820312-4.089844 3.238281zm0 0" fill="#ffe1cf" fill-rule="evenodd"/><path d="m745.570312 354.816406c1.679688 1.683594 5.46875 1.742188 8.109376-1.082031-.960938-.417969-3.066407-1.378906-4.019532-2.160156-1.324218 1.320312-2.828125 2.820312-4.089844 3.242187zm0 0" fill="none" stroke="#000" stroke-width=".332285"/><path d="m762.574219 163.769531c.660156-4.261719 3.679687-4.164062 5.585937-3.722656.78125.179687 2.703125.359375 4.507813-.121094 3.5625-.949219 6.25.300781 5.886719 3.726563.960937.71875 1.976562 2.402344 1.800781 3.84375-.179688 1.4375.117187 2.046875 1.445312 2.21875 1.320313.183594 4.148438 1.808594 2.277344 4.089844 1.804687 1.082031 3.1875 3.847656 2.226563 5.707031-.964844 1.859375-3.84375 2.164062-5.050782.476562-1.316406.601563-3.484375.722657-4.804687-.65625-.898438 1.078125-3.183594.960938-3.609375 0-.414063-.964843-1.125-1.476562-1.976563-1.746093-.960937-.296876-1.019531-2.941407.421875-3.242188-.179687-.78125-.117187-1.683594.238282-2.101562.363281-.421876.058593-1.203126-.78125-1.859376-.839844-.667968-1.558594-3.183593-.722657-4.566406-1.4375.476563-4.625-.902344-5.285156-1.867187-.660156-.960938-1.5625-1.019531-2.160156-.179688zm0 0" fill="#870f00" fill-rule="evenodd"/><g stroke="#000"><path d="m762.574219 163.769531c.660156-4.261719 3.679687-4.164062 5.585937-3.722656.78125.179687 2.703125.359375 4.507813-.121094 3.5625-.949219 6.25.300781 5.886719 3.726563.960937.71875 1.976562 2.402344 1.800781 3.84375-.179688 1.4375.117187 2.046875 1.445312 2.21875 1.320313.183594 4.148438 1.808594 2.277344 4.089844 1.804687 1.082031 3.1875 3.847656 2.226563 5.707031-.964844 1.859375-3.84375 2.164062-5.050782.476562-1.316406.601563-3.484375.722657-4.804687-.65625-.898438 1.078125-3.183594.960938-3.609375 0-.414063-.964843-1.125-1.476562-1.976563-1.746093-.960937-.296876-1.019531-2.941407.421875-3.238282-.179687-.78125-.117187-1.6875.238282-2.105468.363281-.421876.058593-1.203126-.78125-1.859376-.839844-.667968-1.558594-3.183593-.722657-4.566406-1.4375.476563-4.625-.902344-5.285156-1.867187-.660156-.960938-1.5625-1.019531-2.160156-.179688zm0 0" fill="none" stroke-width=".332285"/><path d="m763.476562 182.273438c2.34375-.300782 3.121094-1.742188 4.863282-1.621094" fill="none" stroke-width=".332285"/><path d="m758.484375 175.753906c.152344.128906.347656.242188.574219.363282.472656.253906.988281.285156 1.46875.347656" fill="none" stroke-width=".332285"/><path d="m759.183594 173.265625c.328125.113281.675781.277344.988281.597656" fill="none" stroke-width=".332285"/><path d="m764.613281 163.769531c-1.378906-1.320312 2.34375-4.023437 6.25-.179687.726563.714844 2.585938.722656 3.125.542968" fill="none" stroke-width=".332285"/><path d="m770.019531 165.816406c1.808594-.425781 4.507813-.425781 5.289063 1.621094.785156 2.039062 2.347656.722656 3.609375 3.125 1.257812 2.402344 3.242187 5.101562 5.160156 3.242188" fill="none" stroke-width=".332285"/><path d="m776.449219 179.332031c-.539063-.722656-.78125-2.28125-.417969-3.367187-.722656-.835938-.425781-2.582032 0-3.421875" fill="none" stroke-width=".332285"/><path d="m771.285156 174.347656c.0625.714844 1.019532 2.039063 2.523438 2.277344" fill="none" stroke-width=".332285"/><path d="m781.253906 179.988281c-.832031-1.078125-.722656-2.039062-.535156-3.363281" fill="none" stroke-width=".332285"/><path d="m772.484375 168.039062c-.058594 1.078126.601563 2.523438 1.738281 3 .246094.601563 1.445313 2.285157 3.847656 2.046876" fill="none" stroke-width=".332285"/><path d="m778.554688 163.652344c-1.320313-1.023438-3.105469-2.285156-5.46875-2.597656" fill="none" stroke-width=".332285"/><path d="m763.890625 198.136719c-2.039063 2.761719-3.363281 6.605469-2.398437 12.015625.960937 5.402344 2.523437 13.332031-1.445313 16.941406" fill="none" stroke-width=".332285"/><path d="m779.515625 237.542969c-2.761719-.597657-6.726563-.597657-8.890625.964843s-5.769531 1.683594-8.171875.480469" fill="none" stroke-width=".332285"/><path d="m773.6875 237.367188c-2.402344.421874-3.546875 2.101562-3.546875 6.550781 0 4.441406-.957031 10.929687-.121094 17.296875" fill="none" stroke-width=".332285"/><path d="m769.300781 239.230469c-1.5625.417969-3.183593.476562-2.878906 4.6875" fill="none" stroke-width=".332285"/><path d="m761.191406 244.035156c.058594-2.585937.960938-4.988281 2.640625-4.566406" fill="none" stroke-width=".332285"/><path d="m778.492188 244.515625c.121093-5.707031-1.136719-7.328125-2.824219-7.269531 2.285156.058594 3.84375.335937 4.804687 9.671875.722656 6.96875 2.183594 9.433593 3.847656 14.898437 4.328126 14.179688 2.164063 36.042969 4.328126 43.734375" fill="none" stroke-width=".332285"/><path d="m775.191406 246.195312c4.558594 13.21875 6.96875 27.878907-.480468 51.425782 5.039062 13.941406 10.089843 24.035156 11.050781 29.800781" fill="none" stroke-width=".332285"/><path d="m760.769531 277.4375c.839844-3.003906-2.160156-3.363281.480469-13.9375 1.148438-4.578125 1.324219-7.328125.601562-8.773438" fill="none" stroke-width=".332285"/><path d="m761.851562 260.976562c-1.082031 4.6875 3.484376 13.457032 1.203126 19.824219" fill="none" stroke-width=".332285"/><path d="m757.40625 282.003906c0 4.085938.957031 9.375.722656 13.453125-.242187 4.089844 1.421875 5.984375 3.363282 9.855469 6.96875 13.941406 11.710937 23.882812 11.050781 37.007812-.117188 2.402344.722656 7.449219-1.800781 8.890626" fill="none" stroke-width=".332285"/><path d="m757.582031 354.757812c.722657.058594 1.503907-.300781 2.40625-2.464843.90625-2.160157 3.789063-15.140625 2.585938-24.03125" fill="none" stroke-width=".332285"/><path d="m764.015625 338.355469c.359375 2.761719.359375 8.410156-1.441406 12.855469" fill="none" stroke-width=".332285"/><path d="m768.582031 330.0625c1.082031 5.890625.960938 11.175781.121094 14.902344" fill="none" stroke-width=".332285"/><path d="m766.175781 344.964844c.121094 2.402344 1.203125 8.410156-.597656 8.890625" fill="none" stroke-width=".332285"/><path d="m775.191406 317.089844c4.441406 6.96875 7.929688 24.148437 11.648438 27.753906" fill="none" stroke-width=".332285"/><path d="m779.039062 342.078125c-.121093-1.921875-.246093-4.5625-1.328124-5.765625" fill="none" stroke-width=".332285"/><path d="m731.035156 257.972656c.058594-1.324218-.179687-2.582031 1.261719-4.628906" fill="none" stroke-width=".332285"/><path d="m728.871094 258.753906c.179687-4.628906.117187-5.046875 1.441406-6.308594" fill="none" stroke-width=".332285"/><path d="m727.011719 258.871094c.054687-3.300782-.367188-4.441406.957031-6.546875" fill="none" stroke-width=".332285"/><path d="m743.589844 159.746094c-.511719.332031-3.515625 2.613281-4.777344 3.574218" fill="none" stroke-width=".332285"/><path d="m744.878906 160.859375c-.566406.089844-2.222656 1.441406-5.164062 3.71875" fill="none" stroke-width=".332285"/><path d="m744.972656 162.71875c-.933594.421875-2.703125 2.136719-4.328125 3.277344" fill="none" stroke-width=".332285"/><path d="m737.578125 162.386719c-.449219.332031-1.316406 1.292969-1.738281 1.625" fill="none" stroke-width=".332285"/><path d="m779.453125 363.769531c-.269531-.304687-.269531-1.351562.210937-2.523437" fill="none" stroke-width=".332285"/><path d="m781.617188 363.226562c-.328126-.332031 0-1.773437.332031-2.703124" fill="none" stroke-width=".332285"/><path d="m783.664062 362.503906c-.394531-.179687-.515624-1.019531.058594-2.164062" fill="none" stroke-width=".332285"/><path d="m785.277344 361.664062c-.265625-.085937-.386719-.542968.09375-1.859374" fill="none" stroke-width=".332285"/></g><path d="m761.640625 167.554688c.871094 1.140624 1.773437 1.023437 1.929687 1.757812.160157.734375.277344.789062.445313 1.011719.167969.214843-.410156.167969-.695313.050781-.28125-.117188-.988281-.105469-1.421874-.097656-.429688.003906-.9375-.496094-.613282-.5625.3125-.058594.273438-.15625.222656-.378906-.046874-.226563.183594-.574219.3125-.644532.136719-.0625.039063-.050781-.078124-.351562-.125-.296875-.289063-1.03125-.101563-.785156zm0 0" fill-rule="evenodd"/><path d="m762.167969 166.507812c.976562.117188 2.65625.644532 3.570312 1.65625.714844.789063.128907.582032-.230469.609376-.367187.03125-1.078124-.222657-1.433593-.679688-.351563-.449219-1.414063-1.019531-1.980469-1.171875-.339844-.085937-.664062-.496094.074219-.414063zm0 0" fill-rule="evenodd"/><path d="m208.335938 1.25v250h83.328124v-250zm0 0" fill="#fff" stroke="#fff" stroke-width=".332285"/><path d="m0 84.585938v83.328124h500v-83.328124zm0 0" fill="#fff" stroke="#fff" stroke-width=".332285"/><path d="m0 101.25v50h500v-50zm0 0" fill="#cf142b" stroke="#cf142b" stroke-width=".332285"/><path d="m225 1.25v250h50v-250zm0 0" fill="#cf142b" stroke="#cf142b" stroke-width=".332285"/></svg>