<svg viewBox="0 0 1000 500" xmlns="http://www.w3.org/2000/svg"><path d="m0 0h1000v500h-1000z" fill="#007934"/><g fill-rule="evenodd"><path d="m304.347656 0h391.304688v500h-391.304688zm0 0" fill="#fff"/><path d="m503.609375 33.234375c-.871094 9.457031-1.746094 18.925781-2.621094 28.386719-3.207031.480468-6.40625.964844-9.613281 1.445312 0 0 6.675781 3.75 7.839844 7.511719.191406.605469.117187 1.105469-.152344 1.480469-.09375.117187-.230469.246094-.351562.34375-1.933594 1.488281-7.648438.785156-7.648438.785156s7.574219 6.390625 8.152344 8.710938c.015625.050781.03125.101562.03125.15625 0 .039062.011718.113281 0 .15625-.003906.03125-.046875.089843-.0625.128906-.050782.109375-.144532.238281-.25.34375-1.785156 1.644531-10.179688 2.105468-10.179688 2.105468s9.308594 6.640626 9.894532 10.402344c.53125 3.414063.082031 5.410156 0 5.753906-.648438-.554687-15.667969-13.175781-25.355469-9.492187-.484375.246094-.769531.488281-.886719.722656-.054688.113281-.0625.261719-.03125.375.679688 2.101563 14.378906 4.25 23.929688 12.515625-.234376 2.0625-27.230469-6.578125-28.230469-1.164062.84375 1.523437 29.054687 5.589844 31.140625 9.273437-10.386719.386719-31.851563-2.289062-31.140625 1.128907-2.167969 3.949218 20.269531 1.722656 29.6875 4.9375 2.757812 3.121093 2.492187 5.734374-2.304688 6.066406-9.074219-4.316406-29.386719-7.523438-29.433593-2.011719v.03125c0 .003906.027343.027344.03125.03125.003906.015625.015624.046875.03125.066406.03125.03125.101562.0625.160156.09375 2.292968 1.140625 21.203125.582031 28.324218 5.28125-10.09375 2.28125-44.328124-4.632812-44.542968-1.257812.96875 1.574219 6.386718 8.492187 15.707031 8.203125 9.320313-.289063 30.886719 3.769531 32.34375 6.660156.046875.09375.042969.1875.03125.257812-.628906 2.015626-28.398437-6.164062-39.078125-1.132812-11.066406 5.214844 31.738281 2.050781 38.730469 8.425781 6.992187 6.367188-13.976563-.601562-13.976563-.601562.003906 0-29.109375-4.039063-33.476562-2.011719-4.371094 2.027344-9.328125 6.667969-9.328125 6.667969s2.902343 5.777343 5.820312 4.621093c.445313-.179687.746094-.210937.917969-.160156h.03125c.003906 0 .023438.03125.03125.03125.003906.007813.027344.027344.03125.035156.003906.003907.027344.023438.03125.03125 0 0 .027344.027344.03125.03125.011719.027344.027344.089844.03125.121094.070312.871094-1.996094 3.398438-1.996094 3.398438s40.800782 9.828125 49.828125 18.515625c9.027344 8.6875-51.847656-13.613281-51.847656-13.613281s-24.46875 8.980468 1.453125 9.558593c-2.886719 4.203125 1.199219 6.789063 1.457031 6.949219 0 0 43.113281 8.984375 47.484375 15.9375 4.367188 6.945312-29.414062-6.675781-36.988281-10.441406-7.308594-3.628906-27.644531 1.921875-28.804687 3.617187-.003907.015625-.023438.050781-.03125.0625 0 .003907.007812.027344 0 .03125v.0625.035157c.007812.003906 0 .023437 0 .03125.007812.003906.03125.027343.03125.03125.007812.003906 0 .027343 0 .03125.015624.019531.046874.070312.066406.089843.003906.011719.027344.027344.03125.03125 1.304687 1.429688 10.378906 3.398438 10.65625 5.851563 0 .007812-.003906.019531 0 .03125 0 .132812-.035156.285156-.09375.40625-1.148438 2.203125-11.980469 3.140625-12.425782 5.21875-.011718.035156-.03125.089844-.03125.125 0 2.320312 54.480469 13.617187 69.042969 25.78125 14.5625 12.164062-42.804687-14.496094-42.804687-14.496094s3.199218 4.339844 0 5.503906c-3.207032 1.15625-14.585938-16.21875-33.230469-5.503906-3.390625 4.410156 16.277344 7.90625 21.277344 8.398438-1.707031 4.359374-3.195313 5.804687 3.796875 10.152343.761718.472657 1.191406.757813 1.355468.910157.007813 0 .027344.027343.035157.027343.003906.007813.023437.03125.03125.03125v.035157.03125s-.027344 0-.03125 0c-.007813 0-.027344 0-.035157 0-1.078124-.167969-13.636718-6.585938-14.949218-6.855469-.015625 0-.058594 0-.0625 0s-.03125 0-.03125 0c0 .582031 1.453125 7.550781 1.453125 7.550781-6.453125-5.21875-14.257813-6.789062-21.566407-1.449219-.007812.304688-.0625 5.304688 7.273438 8.394531-4.132812 8.398438 4.675781 5.792969 18.65625 13.609376-20.777344-5.398438-22.445312 4.632812-7.589844 6.945312 14.855469 2.320312 55.644532 3.769531 65.253906 16.226562 2.027344 2.621094 2.574219 3.941407 2.179688 4.367188-1.601562 1.445312-16.351562-9.164062-18.496094-9.558594-.003906.003906-.023437-.003906-.03125 0-.003906.003906-.027344.027344-.03125.03125-.027344.039063-.070312.101563-.09375.160156-.523437 1.152344-1.007812 6.160157-1.007812 6.160157-6.21875-3.574219-11.917969-6.785157-19.351563-8.296875-.585937 1.15625-.460937 2.800781-1.042969 3.957031-6.746093-4.835937-12.621093-8.238281-22.417968-8.703125l-1.164063 4.648438s-8.171875-10.136719-24.1875 0c-8.949219 6.378906 33.792969 2.308593 40.78125 9.839843s1.453125 8.675781 1.453125 8.675781c-5.820312-2.121093-11.621094-4.222656-17.449218-6.351562 0 0-20.699219-3.785156-26.527344.847656-5.820313 4.640625 85.046875 15.933594 87.667968 28.390625 1.769532 6.753907-21.347656-7.074219-41.351562-13.011719-.773438 2.207032-1.5625 4.421876-2.339844 6.628907-.472656-.460938-8.210937-7.945313-16.882812-9.242188 0 .007813-.027344.027344-.03125.03125v.066407c.015625.949218 1.773437 7.730468 1.773437 7.730468s-22.40625-10.4375-33.765625-4.933594c-11.359375 5.503907 39.597656 8.394532 44.257813 13.613282.511719.566406.722656.980468.695312 1.257812-.003906.039063-.039062.117188-.058593.152344-1.128907 1.640625-16.324219-4.414062-17.832032-1.410156-1.746094 3.476562-26.5-6.363282-26.207031-1.730469.289063 4.632813 3.507813 7.226563 3.507813 7.226563s51.554687 4.921874 53.300781 11.003906c1.746093 6.082031-28.546875-3.457032-28.546875-3.457032s-2.929688 4.324219-.601563 6.347657c.089844.082031.164063.15625.191407.191406v.035156c-.003907-.007812-.027344 0-.03125 0-1.054688-.347656-17.464844-11.042969-15.875-2.832031-6.421876-2.546875-23-10.421875-20.671876-4.339844 2.292969 5.992188 45.546876 14.527344 46.824219 14.777344-1.148437.089844-19.4375 1.613281-18.59375 6.378906-24.515625-14.851562-24.457031-5.945312-23.898437-5.25v.03125c-1.378906-.21875-31.542969-7.683594-7.558594 5.21875 12.863281 6.921875 15.996094 9.621094 16.058594 10.65625 0 .027344.007812.074219 0 .09375-.003906.027344-.019532.070313-.03125.097656 0 .003907-.027344.027344-.03125.03125-.011719.015626-.015625.046876-.03125.0625-.003906 0-.027344.027344-.03125.03125 0 0-.027344.027344-.03125.027344 0 .003906-.027344.03125-.035156.03125-.003907.007813-.019532.03125-.03125.03125-.496094.320313-1.703126.1875-2.054688.191406-.015625 0-.050781 0-.0625 0-.003906 0-.027344.027344-.03125.03125.003906.007813.027344.023438.03125.035157.34375.503906 2.222656 5.609375 2.117188 6.507812 0 .015625-.027344.046875-.03125.0625 0 0 .003906.023438 0 .03125 0 0-.027344-.007812-.03125 0 0 0 .003906.027344 0 .03125 0 0-.027344-.003906-.03125 0 0-.003906-.027344 0-.027344 0-1.054688-.265625-16.9375-8.707031-22.386719-9.277343-5.535156-.578126-31.753906 7.234374-3.792969 19.398437 27.964844 12.164063 45.136719-2.902344 60.570313-1.164063 15.441406 1.738282 22.738281 4.347657 21.277343 9.273438-1.453124 4.921875-15.789062-16.136719-30.851562 2.074219-17.136719-3.375-28.765625-5.320313-19.917969 7.199219-27.984375-10.398438-45.074219 3.171874-9.835937 8.675781 34.636718 1.015625 55.929687-8.394531 55.929687-8.394531s5.84375 10.734374 14.289063 3.210937c8.050781-7.179687 8.683594 1.953125 8.980468 2.828125.003907.011719.027344.023438.03125.03125 0 0-.003906.027344 0 .03125h.03125c.621094-.15625 8.125-3.492188 8.125-3.492188h2.054688v69.507813c9.414062.09375 18.816406.183594 28.230469.28125 0 0-9.027344-60.515625-4.074219-68.625 4.796875-7.855469 9.328125-7.007813 9.609375-6.949219 0 0 18.355469 5.496094 20.390625 4.625.023438-.011718.070312-.023437.097656-.03125.015625-.011718.046875-.023437.0625-.035156.03125-.019531.089844-.066406.121094-.09375.011719-.003906.027344-.027344.03125-.03125 1.492188-1.351562-.023438-6.691406 9.300781-5.875 2.875-1.039062 1.777344-5.605469 3.636719-6.730469.03125-.015625.089844-.042969.125-.0625.070312-.03125.175781-.070312.25-.089843.113281-.03125.253906-.054688.382812-.066407 2.90625-.292969 59.117188 15.625 71.351563.5625-3.203125-8.394531-14.289063-.574219-17.195313-.28125-2.621093 0-13.699218-5.210937-20.109374 0-5.824219-4.339843-32.3125-7.226562-32.3125-7.226562-3.492188-3.476563 63.207031 1.722656 66.996093-.882813 7.859375-7.820312-14.558593-6.945312-18.054687-4.335937-6.210938-3.765625-14.023438-3.484375-18.777344-.878907-2.285156-5.429687-23.9375-3.078124-35.980469-4.625-3.855469-2.246093-3.210937-3.535156-.601562-4.9375 25.148437 1.0625 50.167969 4.328126 75.4375 3.207032 6.828125-8.851563-8.601563-12.191406-18.050781-4.648438-5.554688-9.074218-16.898438-.296875-24.472657-1.160156-7.574219-.871094-4.078125-10.128906 5.53125-8.679688 9.613281 1.449219 26.800781-.59375 30-4.9375 3.207031-4.34375-1.910156-8.746093-17.761719-4.621093-5.367187-5.210938-17.171874-.003907-22.699218 1.730469-7.367188-4.085938-24.496094-.566407-30.324219.882812-5.699219-3.527344 30.003906-9.273438 30.003906-9.273438 13.785157-.246093 21.558594-2.617187 25.925781-3.773437 20.832032-11.105469-.289062-12.289063-11.222656-4.214844-6.789062-5.269531-13.234375.457031-19.347656 2.484375-5.738281 1.898438-16.339844 3.285156-17.640625 2.734375-.015625-.007812-.054687-.023437-.066406-.03125-.003907 0-.03125-.027343-.03125-.035156-.003907 0-.03125-.023437-.03125-.03125v-.027344c0-.003906 0-.03125 0-.03125.007812-.015625.023437-.046875.03125-.0625.863281-1.328125 16.566406-10.914062 16.566406-10.914062s20.390625-1.457031 24.472656-2.042969c2.484375-.347656 11.191407-4.445312 11.1875-5.96875-.070312-.945312-3.699219-.855469-14.703125 1.914062-9.898437.871094-15.714844.308594-19.503906.601563-6.085938-.628906-8.65625-1.265625-9.164062-1.828125-.023438-.019531-.054688-.066406-.066407-.089844-.042969-.097656-.015625-.214844.066407-.316406.015624-.023438.066406-.070312.09375-.089844 1.492187-1.191406 11.125-2.042968 11.125-2.042968s29.417968-2.6875 31.359374-4.214844l.035157-.03125c.007812-.011719.023437-.054688.03125-.066406.003906-.003907.03125-.023438.03125-.03125.605469-11.957032-24.957031-6.4375-25.640625-6.347657.074218-8.414062-23.066406-.121093-24.152344 0 0 0-.027344 0-.03125 0-.996094-.582031-1.429688-1.199219-1.515625-1.761719-.03125-.210937-.003906-.457031.058594-.65625.585937-1.738281 4.082031-3.085937 4.082031-3.085937 6.40625-1.542969 15.988281-2.027344 18.496094-4.054687 0 0 18.082031-.15625 20.230468-4.933594-4.433593-12.175782-38.277343 2.152344-42.808593 4.339844-.90625 0-1.457031-.230469-1.734375-.597657-1.488282-2.164062 5.855468-9.277343 6.101562-9.527343 0 0 .023438-.027344.027344-.027344 1.121094-.320313 28.136719-1.695313 41.039062-19.085938.910157-10.753906-15.429687 6.066406-15.429687 6.066406-1.214844-13.941406-17.765625.886719-27.375 2.042969-9.613281 1.164063-9.894531-4.347656-3.195313-5.214843 6.699219-.867188 14.265626-.300782 18.054688-10.4375 3.785156-10.136719 15.160156.589843 17.195312-3.171876 1.976563-3.652343-3.71875-6.761718-4.074218-6.949218 0 0 8.4375-8.714844-5.25-8.425782-13.550782.285157-31.070313-1.691406-31.425782-1.730468.847657-.320313 14.65625-5.5 27.628907-5.21875 13.398437.292968 6.117187-9.554688-6.699219-9.554688-12.8125 0-19.507812-4.339844-19.507812-4.339844 7.285156-2.703124 14.566406-5.410156 21.847656-8.109374-.488282-2.027344-.972656-4.039063-1.457032-6.066407 0 0 12.8125-10.144531-5.246093-7.828125-18.054688 2.316406-20.105469 2.609375-20.105469 2.609375s-35.550781 5.414063-36.394531 5.5c0 0-.023438 0-.03125 0-.339844-.054687-3.863281-1.140625-4.515625-2.484375-.019532-.042968-.054688-.109375-.0625-.152344-.015625-.054687-.027344-.140624-.03125-.191406-.007813-.066406-.011719-.15625 0-.21875.140625-.707031 1.242187-1.476562 4.042968-2.171875 9.320313-2.3125 42.25-8.96875 47.203126-7.226562.636718.222656 1.105468.167969 1.390624-.066407 1.851563-1.667968-4.320312-12.320312-19.476562-13.828124-17.472656-1.742188-28.230469 4.335937-28.230469 4.335937s-11.375-4.066406-.886719-7.542969c10.488282-3.476562 27.09375 1.164063 27.09375 1.164063s18.628907-5.515625 3.195313-7.828125c-15.441406-2.320313-20.304687 2.085937-27.382813 2.324218-2.820312-3.503906 24.242188-4.332031 25.929688-7.230468-2.855469-5.214844-19.597656 0-29.40625 0-4.167969-1.753906-4.445312-4.621094.289062-6.378906 10-.386719 19.398438.195312 29.398438-.191407-.292969-5.308593.007812-11.601562-.28125-16.910156-12.6875-2.308594-27.5625 1.6875-34.683594 1.347656 1.902344-5.789062 29.289063-7.285156 32.339844-8.863281 6.296875-7.820312-26.265625-.121094-27.0625 0-5.777344-.847656-5.429688-4.476562-1.769531-6.664062 8.449219-.964844 27.390625 1.230468 25.957031-4.464844-1.097656-5.332032-13.136719-2.476563-18.082031-1.320313-4.953125 1.160157-12.238281.285157-12.238281.285157-3.167969-4.246094 28.550781-2.511719 28.265624-5.785157-.414062-3.757812-20.109374-1.171875-26.8125-.878906-5.148437-3.535156 24.230469-5.886719 25.609376-6.347656.011718-.007813.03125-.035157.03125-.035157 1.097656-9.625-20.390626 0-24.46875 0-.699219 0-1.230469-.171874-1.613282-.46875-.085937-.070312-.179687-.171874-.253906-.257812-1.394531-1.621094-.152344-5.339844-.152344-5.339844s7.652344-3.421875 8.121094-4.246094c.003906-.003906.03125-.023437.03125-.03125.003906 0 0-.027343 0-.03125 0 0 0-.027343 0-.03125 0-.003906-.027344-.027343-.03125-.03125-.019531-.019531-.058594-.0625-.09375-.097656-.902344-.683594-6.164062-2.421875-6.859375-2.476562-.007813 0-.027344 0-.035156 0-.003907-.003906-.023438-.03125-.03125-.03125-.007813-.011719-.023438-.027344-.03125-.03125-.003907-.007813-.023438-.027344-.03125-.03125-.398438-.8125.09375-6.570313.09375-6.570313s6.070312-4.523437 6.449219-6.324219c.007812-.015624 0-.046874 0-.0625.007812-.011718 0-.046874 0-.058593 0-.015625 0-.050781 0-.0625 0-.015625.007812-.054688 0-.066407 0-.003906 0-.027343 0-.03125-.003907-.015624-.023438-.046874-.03125-.0625 0-.003906.007812-.027343 0-.03125 0-.007812-.027344-.027343-.03125-.03125-.003907-.011718-.019532-.023437-.03125-.035156-.011719-.007812-.023438-.046875-.03125-.058594-.003907-.003906-.027344-.03125-.03125-.03125-.023438-.019531-.066407-.046874-.097657-.0625-.011719-.003906-.046875-.027343-.0625-.03125-1.527343-.730468-7.871093 1.441407-7.871093 1.441407 0-1.929688 0-3.851563 0-5.785157 0 0 5.550781-.597656 6.132812-3.203124.035156-.148438.019531-.304688 0-.441407-.007812-.050781-.011719-.132812-.03125-.183593-.035156-.113282-.089844-.246094-.15625-.347657-.011719-.015625-.054688-.046875-.066406-.0625-1.269532-1.628906-6.445313-1.859375-6.445313-1.859375-.972656-10.128906-1.9375-20.257812-2.910156-30.394531zm-5.183594 99.273437v3.992188s-6.53125-.332031-7.746093-1.351562c-.003907-.003907-.027344-.027344-.03125-.03125-.003907-.007813-.027344-.027344-.03125-.03125-.003907-.007813-.027344-.027344-.03125-.035157-.007813 0-.027344-.023437-.03125-.03125-.011719-.011719-.023438-.042969-.035157-.058593 0-.003907.007813-.027344 0-.03125 0-.003907-.023437-.027344-.03125-.03125 0-.003907 0-.027344 0-.03125 0-.011719 0-.054688 0-.0625 0-.007813 0-.027344 0-.035157 0-.003906 0-.023437 0-.03125.007813-.019531.023438-.070312.03125-.09375.007813-.007812.035157-.023437.035157-.03125.015624-.023437.039062-.070312.0625-.089843.003906-.011719.027343-.027344.03125-.035157.015624-.015625.046874-.050781.0625-.0625.042968-.039062.101562-.085937.160156-.125 2.191406-1.523437 6.566406-1.488281 7.429687-1.734375.007813 0 .023438.007813.03125 0 .007813 0 .023438-.023437.035157-.03125 0 0 .023437.007813.03125 0 0 0 .027343-.027344.027343-.027344zm9.265625 5.316407c.222656 0 13.007813.105469 14.128906 1.753906.007813.015625.023438.050781.03125.066406.011719.019531.027344.074219.03125.09375.003907.015625 0 .046875 0 .066407 0 .019531.003907.066406 0 .09375-.003906.019531-.019531.070312-.03125.089843-.972656 2.066407-13.910156 3.300781-13.910156 3.300781zm-.726562 7.886719c.003906.003906.027344 0 .03125 0 .003906.003906.027344 0 .03125 0 .757812.199218 6.050781.371093 6.703125 1.257812.003906.007812.027343.027344.03125.03125 0 .003906-.003907.027344 0 .03125 0 .011719.027343.019531.03125.03125 0 .003906-.003907.027344 0 .03125 0 .007812-.003907.027344 0 .03125v.035156c-.003907.003906 0 .023438 0 .03125-.003907 0 0 .027344 0 .03125-.003907 0-.03125.027344-.03125.027344-.003907.003906 0 .027344 0 .03125-.011719.015625-.027344.046875-.03125.0625-.003907.003906-.03125.027344-.03125.03125-.007813.007812 0 .027344 0 .03125-1.101563 1.335938-5.988281 1.699219-6.230469 1.699219h-.03125s.003906-.03125 0-.03125c-.007812-.003907-.027344-.027344-.035156-.03125-.222656-.453125-.4375-3.332031-.4375-3.332031zm-38.984375 10.503906c4.175781-.21875 12.460937.757812 28.011719 5.023437 0 .328125.3125 4.34375.191406 5-.003906.003907-.03125.027344-.03125.03125-.003906.007813 0 .027344 0 .03125-.003906 0-.03125.035157-.03125.035157-.246094-.125-28.300782-8.136719-30.859375-8.019532-.066407.003906-.152344.007813-.222657 0-.058593-.007812-.136718-.015625-.191406-.035156-.066406-.015625-.15625-.0625-.214844-.089844-.027343-.007812-.074218-.019531-.097656-.03125-.003906-.003906-.027344-.027344-.03125-.03125-.085937-.058594-.167968-.144531-.222656-.222656-.003906-.003906-.027344-.023438-.03125-.03125-.003906-.011719-.027344-.050781-.03125-.058594 0-.011718.003906-.027344 0-.03125-.007812-.015625-.027344-.054687-.03125-.066406 0-.003906 0-.027344 0-.03125 0-.015625 0-.046875 0-.0625 0-.011719 0-.046875 0-.0625.003906-.035156.019531-.09375.03125-.128906.035156-.085938.105469-.195313.191406-.28125.429688-.414063 1.5-.832032 3.570313-.945313zm14.542969 11.847656c4.472656-.164062 15.183593 2.402344 15.777343 2.261719 0 .851562.472657 4.863281-.0625 5.691406-.007812.003906-.027343.023437-.03125.03125-.007812.003906-.027343.027344-.03125.03125-.007812.007813-.027343.027344-.03125.03125-.011719.007813-.054687.027344-.066406.035156-.003906 0-.027344 0-.03125 0-.015625 0-.046875 0-.0625 0-.007813 0-.027344 0-.035156 0-.910157-.230469-16.714844-5.226562-17.320313-7.269531-.011718-.03125 0-.089844 0-.121094.003906-.074218.035156-.160156.09375-.222656.003906-.003906.023438-.023438.03125-.03125.007813-.003906.023438-.023438.03125-.03125.304688-.242188.929688-.378906 1.738282-.410156zm44.007812 11.003906c4.273438-.085937 7.289062.277344 6.167969 1.570313-3.050781 3.515625-24.125 6.414062-24.125 6.414062l-.378907-6.414062c.449219-.070313 11.160157-1.429688 18.335938-1.570313zm-60.316406 19.992188c3.582031-.191406 11.921875 1.769531 30.503906 9.585937l.128906 4.625s-31.46875-9.492187-32.566406-11.070312c-.542969-.773438-1.542969-2.957031 1.933594-3.140625zm61.644531 6.882812c.960937-.046875 1.632813.050782 1.867187.28125.003907.007813.027344.027344.03125.035156.011719.019532.023438.066407.03125.09375 0 .023438.03125.070313.03125.089844-.011718.132813-.113281.3125-.285156.503906-2.929687 3.277344-18.65625 6.539063-18.65625 6.539063s0-4.117187 0-4.238281h.03125c.722656-.027344 12.261719-3.070313 16.949219-3.304688zm-68.980469.5625c4.695313-.242187 15.300782 2.230469 39.070313 13.425782 0 .113281.214843 3.980468.128906 4.339843 0 0-.027344 0-.03125 0-1.414063-.453125-42.777344-14.902343-42.777344-14.902343-.042969-.160157-.664062-2.632813 3.609375-2.863282zm78.75 18.078125c1.199219-.046875 1.992188.054688 2.183594.3125.011719.035157.023438.09375.03125.128907-.007812.128906-.113281.285156-.320312.472656-3.746094 3.371094-27.667969 7.445312-28.515626 7.507812-.003906 0-.027343.007813-.03125 0 0 0-.027343.007813-.03125 0 0 0-.027343-.023437-.035156-.03125-.003906-.007812-.019531-.039062-.03125-.058594 0-.007812.007813-.027343 0-.03125 0-.015624-.027344-.046874-.03125-.0625-.148437-.78125.34375-3.511718.382813-3.902343 0-.003907 0-.023438 0-.03125 0 .007812.027343 0 .03125 0 .007812.007812.027343.03125.03125.03125h.03125c1.53125-.019531 19.863281-4.066407 26.304687-4.335938zm-70.3125 10.53125c7.125-.367187 28.691406 9.472657 29.75 9.773438h.03125c-.113281.441406-.128906 3.992187-.21875 4.5625-.003906.015625 0 .050781 0 .0625-.003906 0-.03125 0-.03125 0-.585937-.308594-30.152344-12.507813-31.457031-11.539063-.816406-1.921875.027344-2.757812 1.925781-2.859375zm63.609375 2.578125c1.480469-.0625 2.5625 0 2.910157.1875.042968.027344.078124.0625.09375.09375v.03125.03125c0 .019532.007812.054688 0 .066406-.003907.003907-.027344.027344-.03125.03125-.019532.027344-.058594.0625-.09375.09375-2.199219 1.9375-22.574219 5.941407-22.574219 5.941407s-.097657-3.753907-.097657-4.117188c.582032-.125 13.738282-2.09375 19.792969-2.359375zm-1.644531 12.984375c1.433594-.050781 2.449219.035157 2.691406.28125 0 .003907.027344.023438.03125.03125.003906.007813-.003906.050781 0 .0625 0 .003907.027344.027344.03125.03125-.003906.007813-.03125.027344-.03125.03125-.003906.015625.003906.046875 0 .066407-.003906.003906-.03125.027343-.03125.03125-.023437.027343-.042968.0625-.066406.09375-.019531.023437-.066406.070312-.09375.089843-2.203125 1.890625-19.476562 5.503907-19.476562 5.503907s-.472657-4.121094-.472657-4.246094c.476563.011718 12.03125-1.796875 17.417969-1.976563zm-72.902344 1.039063c4.164063-.265625 14.492188 1.441406 39.992188 10.652344l.851562 4.96875s-42.445312-13.625-43.65625-14.050782v-.03125c0-.027344-.007812-.089844 0-.160156.015625-.121094.078125-.316406.222656-.503906.296876-.359375.980469-.773438 2.589844-.875zm55.925782 10.777344c.511718.113281 7.628906.347656 8.945312 1.449218.007812 0 .027344.027344.03125.03125.007812 0 .027344.023438.035156.035156.003906 0 .023438.019532.03125.023438.015625.023438.019532.050781.03125.066406.003906.007813.03125.027344.03125.03125.011719.027344.027344.074219.03125.09375v.03125.035156.0625.03125c0 .011719-.027344.046876-.03125.0625 0 .007813.003906.023438 0 .027344-.003906.015625-.023437.054688-.03125.0625-1.097656 1.699219-8.535156 2.332032-8.535156 2.332032s-.367188-3.328126-.535156-4.375zm17.230468 9.683593c1.65625-.039062 2.84375.152344 3.101563.628907.136719.324218-.132813.808593-.917969 1.445312-6.101562 4.972656-19.382812 5.945312-19.382812 5.945312v-5.472656h.03125c.757812-.089844 11.664062-2.414062 17.167968-2.546875zm16.914063 5.09375c2.101562-.078125 3.011719.269531 3.285156.753907.023437.042968.054687.109374.066406.160156.019531.078125.035157.195312.03125.28125-.070312.621094-.742187 1.367187-1.265625 1.855468-2.074218 1.9375-35.121094 12.351563-35.121094 12.351563s-.25-6.90625-.128906-7.511719c19.324219-5.820312 28.777344-7.726562 33.132813-7.890625zm-21.371094 19.550781c2.101563-.078124 3.742187.050782 4.234375.535157.03125.035156.074219.09375.097656.125.007813.027343.023438.074219.03125.09375.003906.027343 0 .070312 0 .097656 0 .042969.007813.109375 0 .160156-.023437.089844-.085937.203125-.160156.3125-2.828125 2.757813-16.566406 3.171875-16.566406 3.171875v-3.421875c2.582031-.089843 8.324218-.925781 12.363281-1.074219zm13.75 5.628907c.652344-.015625 1.050781.089843 1.109375.285156v.058594c-.035156.164062-.226562.402343-.628906.695312-5.496094 3.878907-26.121094 7.859375-26.121094 7.859375s.257812-2.710937.382812-3.363281c.574219-.011719 20.324219-5.414063 25.257813-5.535156zm11.570313 4.308593c2.433593-.027343 4.289062.335938 5.34375 1.097657h.035156v.03125.03125.066406c-.101563.746094-1.652344 4.289063-7.082032 5.816406-6.777343-.605469-35.539062 7.847657-36.105468 7.980469h-.03125c0-.007812 0-.046875 0-.0625-.019532-.539062.378906-3.457031.378906-3.457031 9.914062-5.894531 27.929688-11.414063 37.460938-11.503907zm-73.628907 16.59375h.191407c12.441406 1.335938 17.082031 5.96875 18.402343 7.832032-2.484375 4.324218-22.144531-5.382813-20.078125-7.453125.238282-.207031.71875-.359375 1.484375-.378907zm71.292969.820313c.496094-.023437.945312.078125 1.265625.28125.125.089844.257813.210937.34375.351563.121094.1875.203125.449218.222656.75-1.300781 1.996093-8.019531 1.128906-8.4375 1.070312.332031-.125 4.21875-2.363281 6.605469-2.453125zm-26.652344 13.453125c.925782-.035156 1.6875.054688 2.117188.3125.054687.039062.117187.089844.160156.128906.007812.015625.054688.046875.0625.0625.015625.023438.050781.070313.0625.097656.011719.019532.023438.066407.035156.089844.070313.238282.046875.5625-.160156.941406-1.953125 3.644532-10.5 2.300782-10.5 2.300782v-2.546875h.03125c.484375.035156 5.191406-1.265625 8.191406-1.386719zm-50.328125 9.589844c2.625-.132813 4.921875 1.582031 7.332031 2.953125 5.367188-1.089844 16.375.847656 16.375.847656v4.839844c0 .007812-.023437.03125-.03125.03125 0 .007812-.023437 0-.027343 0-1.003907.175781-13.90625-.386719-16.789063-2.195313-2.351562 0-9.003906-3.492187-9.515625-5.28125-.003906-.015625-.03125-.046875-.03125-.0625-.007812-.023437 0-.074218 0-.097656-.007812-.015625 0-.046875 0-.0625 0-.011719-.007812-.050781 0-.0625 0-.007812-.007812-.023438 0-.035156 0-.007813.027344-.046875.03125-.058594 0-.007812-.003906-.023438 0-.03125.917969-.488281 1.816407-.742188 2.65625-.785156zm56.429688 2.390625c2.019531-.113281 2.871093.507812 1.296875 2.730469-4.390625 6.183593-15.746094 3.648437-15.746094 3.648437l-.472656-3.832031c4.007812.152344 11.324218-2.359375 14.921875-2.546875zm-42.425781 12.539062c4.589843-.210937 9.578124 1.605469 9.578124 1.605469.117188.230469 2.46875 4.839844.378907 6.382812-.078125.054688-.164063.105469-.253907.152344-2.558593 1.335938-14.800781-1.039062-15.519531-5.9375 1.4375-1.511718 3.570313-2.097656 5.816407-2.203125zm-47.328126 2.390625c4.199219-.25 8.886719 2.324219 9.421876 2.578125h.03125c0 .144531-.15625 4.648438-.15625 4.648438s-8.3125-2.300781-10.941407-6.941407c.527344-.144531 1.089844-.253906 1.640625-.285156zm79.953126.628906c4.679687-.03125 10.339843 1.0625 11.160156 2.640626.15625.320312.105468.675781-.191406 1.039062-2.316407 2.785156-15.492188.25-15.492188.25v-3.398438c1.175781-.339843 2.789062-.519531 4.523438-.53125zm0 0" fill="#007934"/></g></svg>