<svg viewBox="0 0 1000 500" xmlns="http://www.w3.org/2000/svg"><path d="m0 0h1000v500h-1000z" fill="#024fa2"/><g fill-rule="evenodd"><path d="m0 83.335938h1000v333.328124h-1000zm0 0" fill="#fff"/><path d="m0 97.222656h1000v305.554688h-1000zm0 0" fill="#ed1c27"/><path d="m444.445312 250c0 61.363281-49.746093 111.113281-111.109374 111.113281-61.367188 0-111.113282-49.75-111.113282-111.113281s49.746094-111.113281 111.113282-111.113281c61.363281 0 111.109374 49.75 111.109374 111.113281zm0 0" fill="#fff"/><path d="m333.335938 142.363281-33.265626 102.371094 51.1875 16.628906zm0 0" fill="#ed1c27"/><path d="m333.335938 142.363281 33.257812 102.371094-51.183594 16.628906zm0 0" fill="#ed1c27"/><path d="m435.703125 216.738281h-107.640625v53.816407zm0 0" fill="#ed1c27"/><path d="m435.703125 216.738281-87.078125 63.265625-31.636719-43.539062zm0 0" fill="#ed1c27"/><path d="m230.964844 216.738281 87.082031 63.265625 31.632813-43.539062zm0 0" fill="#ed1c27"/><path d="m230.964844 216.738281h107.636718v53.816407zm0 0" fill="#ed1c27"/><path d="m396.601562 337.082031-33.261718-102.371093-51.183594 16.632812zm0 0" fill="#ed1c27"/><path d="m396.601562 337.082031-87.078124-63.269531 31.628906-43.539062zm0 0" fill="#ed1c27"/><path d="m270.066406 337.082031 87.082032-63.269531-31.636719-43.539062zm0 0" fill="#ed1c27"/><path d="m270.066406 337.082031 33.261719-102.371093 51.183594 16.632812zm0 0" fill="#ed1c27"/></g></svg>