<svg viewBox="0 0 1000 750" xmlns="http://www.w3.org/2000/svg"><path d="m0 0h1000v750h-1000z"/><g fill-rule="evenodd"><path d="m0 0h1000v750zm0 0" fill="#ce1126"/><path d="m619.125 217.914062c-7.390625 9.535157-24.871094-9.605468-45.800781-10.035156-20.9375-.441406-35.777344 20.058594-41.878907 27.042969-6.105468 6.980469-25.734374 43.617187-25.300781 47.539063.4375 3.933593 12.214844-10.902344 16.578125-13.515626.4375 5.230469-4.800781 11.335938-3.492187 13.085938 1.308593 1.742188 15.265625-10.472656 20.066406-10.902344 1.3125 3.488282-2.621094 6.972656-1.308594 12.210938 1.742188 1.742187 9.59375-8.722656 14.828125-10.902344.878906 3.921875-4.792968 11.335938-1.742187 16.136719 2.179687.433593 15.265625-14.835938 19.628906-16.578125 4.363281-1.75-2.179687 14.398437 0 15.707031 3.921875-2.621094 16.136719-16.574219 20.066406-18.324219 3.925781-1.742187-.4375 17.886719 1.304688 17.886719 4.800781-3.492187 17.015625-20.070313 18.324219-22.683594 1.304687-2.621093-1.308594 25.304688 12.210937 40.128907 13.523437 14.835937 34.023437 31.84375 36.203125 31.84375 2.621094-4.800782-.871094-14.832032 1.308594-14.394532 6.105468 6.542969 17.449218 16.136719 20.070312 16.136719 2.613282 0-1.75-10.464844 1.742188-10.464844 6.984375 6.542969 27.042968 32.277344 66.300781 44.050781-2.613281-7.414062-8.285156-13.957031-8.722656-17.449218 2.621093.441406 11.78125 4.804687 13.523437 4.363281 1.742188-.429687-19.199218-26.171875-17.886718-29.65625 4.800781-.4375 6.984374 2.613281 8.722656.433594-2.179688-3.492188-20.5-23.992188-20.5-28.785157 0-4.800781 5.671875.871094 7.414062 0 1.75-.878906-6.972656-19.199218-5.230468-21.378906 1.742187-2.179687 20.9375 11.777344 25.730468 11.777344 4.800782 0 1.3125-17.011719 3.492188-17.878906 2.179687-.878906 18.328125 9.152344 21.808594 9.152344 3.492187 0 3.054687-7.414063 4.363281-6.542969 1.308593.878906 39.257812 38.828125 26.171875 83.320312-13.085938 31.84375-39.257813 48.851563-77.644532 34.894531 2.179688 3.488282 22.6875 20.5 44.929688 14.394532 22.25-6.109375 49.292969-23.558594 46.238281-67.175782-3.050781-43.613281-17.445312-49.726562-19.628906-56.269531-2.179687-6.542969 3.492187 1.742188 8.285156 3.492188 4.804688 1.742187-.871093-9.164063-2.179687-13.957031-1.3125-4.800782 14.394531 10.027343 18.320312 11.335937 3.929688 1.3125-9.15625-35.765625-13.085937-38.386719-3.925781-2.613281 3.929687.878906 6.539062 1.75 2.621094.871094-23.988281-40.570312-29.652343-40.570312-5.671876 0 4.792968-2.179688 7.84375-2.179688 3.058593 0-30.527344-27.042968-36.195313-27.042968-5.675781 0 12.207031-6.980469 13.957031-7.421876 3.050782.441407-38.828125-22.238281-76.335937.441407-2.183594-1.742188 17.667969-15.488281 18.316406-21.371094.222656-1.53125-6.539063-4.800781-6.980469-6.542969-.429687-1.75 10.472656-6.984375 10.90625-10.902344-2.613281-3.492187-7.417968-2.183593-10.027344-3.054687-.660156-3.273437 9.15625-11.34375 8.285157-14.835937-.652344-1.960938-7.855469-2.609376-9.59375-1.300782-1.75 1.300782 4.578125-9.164062 3.488281-12.214844-.871094-1.3125-4.359375-.441406-7.851562.429688-2.183594-.429688 11.335937-19.191406 8.722656-21.808594-2.621094-2.613281-39.257813 19.195313-52.785156 43.617188-13.515626 24.433594-3.050782 44.0625-4.789063 52.34375-1.75 8.296875-3.933594 16.578125-9.605469 16.578125-5.664062 0-18.75-8.722657-23.113281-13.085938-4.359375-4.359375-5.238281-7.414062-11.34375-9.164062-6.101563-1.742188-20.066406 3.492187-25.300781 3.933593-5.230469.429688-25.730469-3.933593-27.042969-2.621093-1.308594 1.308593 20.070313 9.164062 24.863281 11.777343 4.800782 2.617188 5.238282 6.109376 8.722656 8.289063 3.492188 2.183594 36.207032 11.777344 25.742188 25.304687zm127.796875 61.496094c10.476563 10.476563 81.136719 57.578125 81.136719 115.164063 0 57.574219-51.472656 55.832031-66.296875 54.082031 16.574219 13.957031 79.382812 11.347656 79.382812-54.082031 0-57.585938-81.132812-115.164063-91.601562-120.398438-10.464844-5.230469-13.085938-5.230469-2.621094 5.234375zm0 0" fill="#fcd116"/><path d="m364.582031 368.488281 10.9375 37.550781h37.785157l-29.832032 22.957032 10.9375 36.507812-29.828125-22.949218-29.824219 21.898437 10.9375-35.457031-29.835937-22.957032h36.792969zm0 0" fill="#fff"/><path d="m250.546875 576.824219 10.9375 37.546875h37.78125l-29.832031 22.957031 10.9375 36.507813-29.824219-22.949219-29.835937 21.902343 10.9375-35.460937-29.824219-22.957031h36.789062zm0 0" fill="#fff"/><path d="m301.699219 497.070312 5.46875 18.773438h18.898437l-14.917968 11.476562 5.46875 18.253907-14.917969-11.476563-14.90625 10.953125 5.46875-17.730469-14.917969-11.476562h18.390625zm0 0" fill="#fff"/><path d="m250.546875 232.414062 10.9375 37.558594h37.78125l-29.832031 22.949219 10.9375 36.503906-29.824219-22.949219-29.835937 21.910157 10.9375-35.464844-29.824219-22.949219h36.789062zm0 0" fill="#fff"/><path d="m135.960938 378.90625 10.9375 37.546875h37.785156l-29.832032 22.960937 10.9375 36.503907-29.828124-22.945313-29.832032 21.898438 10.9375-35.457032-29.828125-22.960937h36.792969zm0 0" fill="#fff"/></g></svg>