<svg viewBox="0 0 1000 600" xmlns="http://www.w3.org/2000/svg"><path d="m0 0h1000v600h-1000z" fill="#fff"/><path d="m0 400h1000v200h-1000zm0 0" fill="#0038a8" fill-rule="evenodd"/><path d="m0 0h1000v200h-1000zm0 0" fill="#d52b1e" fill-rule="evenodd"/><path d="m576.722656 300c0 10.042969-1.992187 20.089844-5.832031 29.367188-3.84375 9.28125-9.527344 17.796874-16.632813 24.894531-7.097656 7.105469-15.609374 12.792969-24.894531 16.640625-9.277343 3.84375-19.320312 5.839844-29.363281 5.839844s-20.085938-1.996094-29.363281-5.839844c-9.285157-3.847656-17.796875-9.535156-24.894531-16.640625-7.105469-7.097657-12.789063-15.613281-16.632813-24.894531-3.839844-9.277344-5.832031-19.324219-5.832031-29.367188s1.992187-20.085938 5.832031-29.363281c3.84375-9.285157 9.527344-17.800781 16.632813-24.898438 7.097656-7.105469 15.609374-12.792969 24.894531-16.640625 9.277343-3.84375 19.320312-5.839844 29.363281-5.839844s20.085938 1.996094 29.363281 5.839844c9.285157 3.847656 17.796875 9.535156 24.894531 16.640625 7.105469 7.097657 12.789063 15.613281 16.632813 24.898438 3.839844 9.277343 5.832031 19.320312 5.832031 29.363281zm0 0" fill="none" stroke="#000" stroke-width="1.956092"/><g fill-rule="evenodd"><path d="m510.136719 264.175781s29.191406 12.570313 24.09375 38.554688c-5.097657 25.984375-21.347657 25.808593-27.714844 28.679687-6.375 2.871094-10.773437 6.984375-13.28125 6.40625-2.515625-.570312-5.84375-2.515625-5.84375-2.515625s-.261719 4.269531 4.855469 5.046875c5.117187.773438 11.84375-6.734375 15.074218-7.570312 3.230469-.832032 23.070313-2.988282 27.894532-29.425782 5.636718-28.222656-24.898438-38.351562-25.078125-39.175781zm0 0" fill="#009b3a" stroke="#000" stroke-width=".203786"/><path d="m524.882812 269.707031c.257813 1.015625.410157 2.03125.414063 2.757813.003906.734375-.136719 1.171875-.390625 1.1875-.246094.019531-.605469-.375-.964844-1.078125-.363281-.703125-.722656-1.707031-.984375-2.71875-.257812-1.019531-.414062-2.039063-.417969-2.769531-.003906-.734376.136719-1.167969.390626-1.1875.253906-.019532.609374.375.972656 1.085937.359375.699219.722656 1.707031.980468 2.722656zm0 0" fill="#009b3a" stroke="#000" stroke-width=".09397"/><path d="m523.867188 269.976562c.480468.964844.863281 1.96875 1.039062 2.707032.179688.75.152344 1.234375-.078125 1.316406-.226563.082031-.648437-.234375-1.152344-.859375-.503906-.628906-1.074219-1.558594-1.550781-2.53125-.480469-.964844-.863281-1.96875-1.042969-2.710937-.179687-.746094-.148437-1.226563.082031-1.3125.226563-.082032.652344.234374 1.152344.859374.5.632813 1.074219 1.558594 1.550782 2.53125zm0 0" fill="#009b3a" stroke="#000" stroke-width=".09397"/><path d="m520.953125 271.902344c.980469.289062 1.945313.679687 2.621094 1.066406.679687.386719 1.058593.761719 1.035156 1.019531-.023437.257813-.453125.398438-1.160156.375-.714844-.015625-1.695313-.199219-2.679688-.480469-.980469-.289062-1.945312-.679687-2.621093-1.066406-.675782-.386718-1.058594-.761718-1.035157-1.019531.027344-.257813.457031-.402344 1.164063-.375.710937.019531 1.695312.195313 2.675781.480469zm0 0" fill="#009b3a" stroke="#000" stroke-width=".09397"/><path d="m521.382812 270.84375c.890626.597656 1.738282 1.285156 2.292969 1.859375.554688.582031.8125 1.046875.703125 1.265625-.113281.214844-.589844.1875-1.296875-.082031-.714843-.273438-1.648437-.78125-2.539062-1.375-.894531-.601563-1.738281-1.289063-2.296875-1.867188-.554688-.582031-.816406-1.042969-.703125-1.257812.109375-.222657.585937-.191407 1.300781.082031.707031.265625 1.644531.773438 2.539062 1.375zm0 0" fill="#009b3a" stroke="#000" stroke-width=".09397"/><path d="m522.613281 270.332031c.761719.789063 1.445313 1.640625 1.863281 2.320313.414063.675781.5625 1.171875.394532 1.339844-.164063.171874-.636719.015624-1.292969-.417969-.652344-.4375-1.476563-1.152344-2.234375-1.9375-.757812-.792969-1.445312-1.640625-1.859375-2.320313-.421875-.679687-.566406-1.171875-.402344-1.34375.164063-.171875.644531-.015625 1.300781.421875.652344.4375 1.472657 1.152344 2.230469 1.9375zm0 0" fill="#009b3a" stroke="#000" stroke-width=".09397"/><path d="m524.648438 273.992188c.019531.023437-1.125.636718-1.382813.730468s-.609375-.347656-1.351563.039063c-.746093.378906-1.253906 1.078125-1.421874 1.484375-.160157.410156.214843.582031 1.113281.144531.898437-.4375 1.132812-1.132813 1.566406-1.402344.4375-.273437 1.164063-.671875 1.578125-.816406.175781-.394531.761719-1.230469 1.058594-1.710937.304687-.484376 1.488281-1.28125 1.917968-2.203126.375-.765624.230469-1.414062-.269531-1.148437-.503906.277344-1.152343 1.046875-1.457031 1.597656-.300781.554688-.042969 1.253907-.375 1.773438-.269531.371093-.910156 1.511719-.976562 1.511719zm0 0" fill="#009b3a" stroke="#000" stroke-width=".053353"/><path d="m533.6875 276.992188c.019531 1.566406-.105469 3.09375-.335938 4.144531-.242187 1.050781-.582031 1.613281-.9375 1.53125-.355468-.085938-.714843-.816407-.984374-1.988281-.265626-1.171876-.433594-2.769532-.457032-4.335938-.019531-1.574219.101563-3.097656.335938-4.152344.238281-1.050781.582031-1.609375.9375-1.523437.351562.085937.710937.816406.980468 1.984375.269532 1.171875.4375 2.769531.460938 4.339844zm0 0" fill="#009b3a" stroke="#000" stroke-width=".137196"/><path d="m532.1875 276.921875c.347656 1.601563.546875 3.199219.546875 4.347656 0 1.144531-.199219 1.820313-.542969 1.835938-.34375.019531-.824218-.625-1.3125-1.742188-.484375-1.125-.964844-2.707031-1.308594-4.308593-.347656-1.601563-.546874-3.203126-.546874-4.34375 0-1.148438.199218-1.828126.546874-1.84375.34375-.015626.824219.625 1.308594 1.75.484375 1.117187.96875 2.707031 1.308594 4.304687zm0 0" fill="#009b3a" stroke="#000" stroke-width=".137196"/><path d="m527.515625 278.382812c1.261719.851563 2.472656 1.84375 3.285156 2.699219.808594.855469 1.214844 1.5625 1.09375 1.925781-.117187.359376-.757812.367188-1.734375.019532-.980468-.347656-2.285156-1.042969-3.550781-1.898438-1.261719-.851562-2.472656-1.839844-3.285156-2.703125-.808594-.851562-1.214844-1.5625-1.09375-1.921875.117187-.363281.757812-.367187 1.734375-.019531.980468.347656 2.285156 1.042969 3.550781 1.898437zm0 0" fill="#009b3a" stroke="#000" stroke-width=".137196"/><path d="m528.460938 277.050781c1.035156 1.257813 1.980468 2.617188 2.554687 3.695313.574219 1.074218.78125 1.855468.558594 2.121094-.226563.261718-.875.003906-1.769531-.699219-.894532-.703125-2.019532-1.851563-3.058594-3.105469-1.039063-1.261719-1.976563-2.617188-2.550782-3.691406-.578124-1.074219-.78125-1.851563-.558593-2.113282.226562-.265624.875-.011718 1.769531.691407.890625.703125 2.015625 1.847656 3.054688 3.101562zm0 0" fill="#009b3a" stroke="#000" stroke-width=".137196"/><path d="m530.335938 276.875c.792968 1.46875 1.460937 3.003906 1.816406 4.164062.359375 1.164063.394531 1.933594.113281 2.105469-.289063.171875-.898437-.269531-1.664063-1.1875-.761718-.921875-1.667968-2.3125-2.457031-3.789062-.789062-1.46875-1.460937-3-1.816406-4.164063-.355469-1.15625-.394531-1.933594-.105469-2.105468.28125-.167969.894532.269531 1.660156 1.191406.757813.917968 1.664063 2.316406 2.453126 3.785156zm0 0" fill="#009b3a" stroke="#000" stroke-width=".137196"/><path d="m531.945312 283.03125c.015626.03125-1.769531.40625-2.160156.421875-.386718.011719-.726562-.769531-1.886718-.554687-1.15625.214843-2.09375.984374-2.453126 1.496093-.363281.511719.097657.929688 1.488282.703125 1.390625-.226562 1.949218-1.109375 2.636718-1.304687.695313-.195313 1.832032-.441407 2.457032-.46875.375-.476563 1.457031-1.421875 2.035156-1.976563.578125-.550781 2.476562-1.164062 3.375-2.296875.773438-.925781.796875-1.921875.007812-1.753906-.785156.164063-1.9375.972656-2.539062 1.628906-.605469.652344-.476562 1.777344-1.113281 2.367188-.488281.421875-1.75 1.769531-1.847657 1.738281zm0 0" fill="#009b3a" stroke="#000" stroke-width=".077895"/><path d="m538.441406 289.082031c-.261718 1.558594-.65625 3.042969-1.078125 4.03125-.417969.996094-.855469 1.488281-1.1875 1.335938-.332031-.15625-.550781-.949219-.605469-2.152344-.046874-1.207031.078126-2.820313.339844-4.371094.261719-1.558593.65625-3.042969 1.078125-4.035156.417969-.996094.851563-1.484375 1.183594-1.332031.335937.15625.558594.949218.605469 2.152344.050781 1.207031-.070313 2.816406-.335938 4.371093zm0 0" fill="#009b3a" stroke="#000" stroke-width=".137196"/><path d="m536.992188 288.730469c.050781 1.652343-.042969 3.265625-.25 4.398437-.207032 1.132813-.527344 1.761719-.863282 1.714844-.335937-.046875-.695312-.777344-.964844-1.976562-.273437-1.203126-.460937-2.863282-.503906-4.511719-.050781-1.648438.042969-3.269531.25-4.402344.207032-1.128906.523438-1.761719.863282-1.710937.335937.046874.691406.773437.964843 1.976562.273438 1.203125.460938 2.859375.503907 4.511719zm0 0" fill="#009b3a" stroke="#000" stroke-width=".137196"/><path d="m532.164062 289.273438c1.082032 1.082031 2.082032 2.300781 2.722657 3.300781.636719 1 .90625 1.777343.722656 2.109375-.179687.335937-.804687.21875-1.703125-.3125-.894531-.535156-2.042969-1.476563-3.125-2.558594-1.082031-1.078125-2.085938-2.296875-2.726562-3.296875-.636719-1.003906-.902344-1.78125-.722657-2.113281.183594-.332032.808594-.214844 1.703125.316406.890625.53125 2.042969 1.46875 3.128906 2.554688zm0 0" fill="#009b3a" stroke="#000" stroke-width=".137196"/><path d="m533.324219 288.140625c.785156 1.445313 1.460937 2.96875 1.832031 4.140625s.429688 1.980469.160156 2.195312c-.261718.222657-.855468-.160156-1.601562-1.027343-.746094-.867188-1.640625-2.210938-2.425782-3.652344-.792968-1.441406-1.464843-2.964844-1.835937-4.136719-.367187-1.171875-.429687-1.984375-.160156-2.203125.265625-.214843.859375.164063 1.601562 1.03125.746094.867188 1.640625 2.210938 2.429688 3.652344zm0 0" fill="#009b3a" stroke="#000" stroke-width=".137196"/><path d="m535.191406 288.324219c.507813 1.605469.882813 3.25 1.023438 4.464843.144531 1.214844.039062 1.992188-.273438 2.101563-.3125.113281-.828125-.4375-1.40625-1.492187-.582031-1.058594-1.214844-2.605469-1.71875-4.214844-.511718-1.601563-.886718-3.246094-1.023437-4.460938-.144531-1.214844-.039063-1.988281.265625-2.101562.3125-.109375.832031.433594 1.414062 1.496094.578125 1.054687 1.210938 2.601562 1.71875 4.207031zm0 0" fill="#009b3a" stroke="#000" stroke-width=".137196"/><path d="m535.652344 294.714844c.011718.035156-1.804688.058594-2.1875 0-.378906-.054688-.574219-.894532-1.742188-.90625-1.171875-.011719-2.226562.566406-2.671875 1.007812-.441406.433594-.066406.929688 1.332031.976563 1.398438.046875 2.101563-.71875 2.8125-.78125.710938-.058594 1.867188-.085938 2.484376.007812.453124-.402343 1.683593-1.125 2.347656-1.558593.660156-.4375 2.625-.671876 3.710937-1.621094.921875-.765625 1.121094-1.746094.328125-1.738282-.800781.015626-2.078125.597657-2.777344 1.128907-.710937.53125-.789062 1.664062-1.515624 2.125-.558594.316406-2.03125 1.40625-2.121094 1.359375zm0 0" fill="#009b3a" stroke="#000" stroke-width=".077895"/><path d="m538.792969 302.585938c-.839844 1.339843-1.777344 2.550781-2.539063 3.292968-.765625.746094-1.351562 1.019532-1.589844.742188-.242187-.277344-.136718-1.105469.289063-2.242188.421875-1.140625 1.160156-2.582031 2-3.914062.839844-1.332032 1.773437-2.542969 2.539063-3.292969.765624-.746094 1.351562-1.019531 1.589843-.742187.242188.277343.140625 1.105468-.285156 2.246093s-1.164063 2.578125-2.003906 3.910157zm0 0" fill="#009b3a" stroke="#000" stroke-width=".137196"/><path d="m537.621094 301.660156c-.601563 1.546875-1.3125 3.007813-1.9375 3.976563-.625.960937-1.15625 1.414062-1.445313 1.226562-.285156-.183593-.328125-1.007812-.105469-2.230469.21875-1.222656.695313-2.839843 1.292969-4.390624.59375-1.539063 1.308594-3.007813 1.933594-3.96875.628906-.960938 1.15625-1.414063 1.445313-1.230469.285156.1875.328124 1.007812.105468 2.230469-.21875 1.226562-.691406 2.839843-1.289062 4.386718zm0 0" fill="#009b3a" stroke="#000" stroke-width=".137196"/><path d="m533.039062 300.171875c.554688 1.449219.988282 2.988281 1.179688 4.179687.183594 1.191407.128906 2.015626-.167969 2.25-.289062.234376-.8125-.132812-1.414062-.992187-.601563-.859375-1.277344-2.207031-1.835938-3.65625-.5625-1.449219-.996093-2.988281-1.183593-4.179687-.1875-1.191407-.125-2.019532.164062-2.257813.292969-.230469.816406.132813 1.421875 1 .597656.855469 1.273437 2.199219 1.835937 3.65625zm0 0" fill="#009b3a" stroke="#000" stroke-width=".137196"/><path d="m534.527344 299.601562c.15625 1.664063.175781 3.351563.050781 4.59375-.121094 1.238282-.378906 2.011719-.707031 2.101563-.324219.089844-.710938-.5-1.046875-1.613281-.34375-1.113282-.632813-2.730469-.78125-4.390625-.15625-1.664063-.179688-3.355469-.054688-4.59375.121094-1.242188.378907-2.019531.707031-2.105469.328126-.09375.714844.503906 1.050782 1.617188.339844 1.113281.628906 2.722656.78125 4.390624zm0 0" fill="#009b3a" stroke="#000" stroke-width=".137196"/><path d="m536.148438 300.542969c-.167969 1.691406-.460938 3.375-.808594 4.554687-.34375 1.179688-.734375 1.859375-1.0625 1.835938-.324219-.023438-.582032-.746094-.695313-1.96875-.117187-1.214844-.085937-2.910156.082031-4.609375.160157-1.691407.457032-3.371094.804688-4.554688.339844-1.183593.730469-1.855469 1.058594-1.832031s.582031.746094.699218 1.964844c.109376 1.214844.082032 2.914062-.078124 4.609375zm0 0" fill="#009b3a" stroke="#000" stroke-width=".137196"/><path d="m534.082031 306.660156c-.003906.035156-1.65625-.695312-1.976562-.902344-.328125-.214843-.175781-1.070312-1.230469-1.5625-1.050781-.492187-2.234375-.398437-2.804688-.171874-.574218.21875-.425781.835937.820313 1.457031 1.25.617187 2.1875.199219 2.851563.4375.664062.238281 1.722656.691406 2.242187 1.035156.570313-.1875 1.964844-.347656 2.734375-.476563.765625-.132812 2.640625.460938 3.988281.03125 1.132813-.332031 1.695313-1.15625.96875-1.472656-.722656-.320312-2.105469-.308594-2.949219-.109375-.84375.203125-1.359374 1.222657-2.199218 1.347657-.625.070312-2.382813.464843-2.445313.386718zm0 0" fill="#009b3a" stroke="#000" stroke-width=".077895"/><path d="m535.15625 316.277344c-1.367188 1.175781-2.792969 2.175781-3.882812 2.722656-1.089844.550781-1.824219.640625-2 .242188-.171876-.394532.21875-1.269532 1.058593-2.371094.84375-1.109375 2.128907-2.433594 3.496094-3.601563 1.363281-1.167969 2.792969-2.171875 3.882813-2.71875 1.085937-.550781 1.820312-.636719 1.996093-.242187.175781.394531-.214843 1.269531-1.058593 2.371094-.839844 1.109374-2.128907 2.433593-3.492188 3.597656zm0 0" fill="#009b3a" stroke="#000" stroke-width=".158454"/><path d="m534.171875 314.832031c-1.167969 1.492188-2.433594 2.847657-3.4375 3.6875-1.011719.835938-1.746094 1.144531-2 .835938-.257813-.308594-.027344-1.230469.617187-2.503907.644532-1.273437 1.699219-2.882812 2.863282-4.375 1.167968-1.496093 2.433594-2.851562 3.4375-3.6875 1.007812-.839843 1.746094-1.148437 2-.835937.253906.308594.027344 1.226563-.617188 2.5-.644531 1.277344-1.699218 2.886719-2.863281 4.378906zm0 0" fill="#009b3a" stroke="#000" stroke-width=".158454"/><path d="m529.613281 311.527344c.136719 1.800781.113281 3.664062-.070312 5.046875-.1875 1.382812-.523438 2.277343-.925781 2.429687-.398438.152344-.851563-.4375-1.234376-1.613281-.378906-1.164063-.683593-2.898437-.820312-4.707031-.136719-1.804688-.113281-3.660156.074219-5.046875.183593-1.382813.523437-2.28125.921875-2.433594.398437-.148437.855468.441406 1.234375 1.613281.382812 1.171875.679687 2.90625.820312 4.710938zm0 0" fill="#009b3a" stroke="#000" stroke-width=".158454"/><path d="m531.441406 311.433594c-.375 1.894531-.914062 3.765625-1.453125 5.089844-.539062 1.328124-1.082031 2.089843-1.46875 2.070312-.390625-.019531-.621093-.816406-.628906-2.164062-.003906-1.351563.210937-3.234376.585937-5.132813.375-1.886719.914063-3.757813 1.449219-5.085937.542969-1.324219 1.085938-2.085938 1.46875-2.066407.394531.015625.621094.816407.632813 2.164063.003906 1.347656-.210938 3.238281-.585938 5.125zm0 0" fill="#009b3a" stroke="#000" stroke-width=".158454"/><path d="m532.910156 313.0625c-.734375 1.816406-1.613281 3.554688-2.382812 4.734375-.765625 1.183594-1.417969 1.78125-1.765625 1.640625-.351563-.144531-.398438-1.035156-.125-2.421875.273437-1.378906.867187-3.242187 1.601562-5.058594.738281-1.8125 1.613281-3.554687 2.382813-4.730469.769531-1.179687 1.421875-1.785156 1.769531-1.640624.351563.148437.394531 1.035156.121094 2.417968-.273438 1.386719-.863281 3.246094-1.601563 5.058594zm0 0" fill="#009b3a" stroke="#000" stroke-width=".158454"/><path d="m528.632812 319.066406c-.019531.039063-1.597656-1.363281-1.886718-1.710937-.28125-.351563.164062-1.242188-.832032-2.171875-1-.925782-2.332031-1.238282-3.03125-1.203125-.707031.039062-.742187.769531.421876 1.910156 1.171874 1.136719 2.339843 1.007813 2.992187 1.511719.65625.503906 1.671875 1.390625 2.128906 1.953125.691407.003906 2.273438.332031 3.164063.464843.890625.132813 2.757812 1.464844 4.382812 1.476563 1.355469.046875 2.25-.660156 1.550782-1.273437-.691407-.613282-2.214844-1.101563-3.210938-1.1875-.996094-.082032-1.894531.855468-2.863281.691406-.707031-.152344-2.777344-.347656-2.816407-.460938zm0 0" fill="#009b3a" stroke="#000" stroke-width=".089964"/><path d="m525.769531 328.261719c-1.957031.320312-3.878906.445312-5.226562.335937-1.347657-.105468-2.105469-.445312-2.0625-.921875.050781-.472656.90625-1.078125 2.320312-1.644531 1.414063-.5625 3.378907-1.078125 5.332031-1.402344 1.953126-.324218 3.878907-.449218 5.230469-.339844 1.347657.105469 2.101563.445313 2.058594.925782-.046875.472656-.902344 1.078125-2.316406 1.640625-1.417969.566406-3.378907 1.085937-5.335938 1.40625zm0 0" fill="#009b3a" stroke="#000" stroke-width=".176006"/><path d="m525.609375 326.3125c-1.9375.742188-3.902344 1.300781-5.324219 1.515625-1.433594.214844-2.304687.082031-2.386718-.355469-.074219-.445312.648437-1.1875 1.960937-2.027344 1.316406-.835937 3.210937-1.757812 5.15625-2.5 1.9375-.746093 3.894531-1.304687 5.324219-1.519531 1.425781-.214843 2.304687-.082031 2.386718.363281.074219.4375-.648437 1.183594-1.964843 2.019532-1.3125.839844-3.214844 1.757812-5.152344 2.503906zm0 0" fill="#009b3a" stroke="#000" stroke-width=".176008"/><path d="m523.015625 320.53125c-.847656 1.796875-1.886719 3.542969-2.820313 4.753906-.933593 1.203125-1.746093 1.855469-2.214843 1.769532-.46875-.085938-.582031-.914063-.3125-2.238282.273437-1.332031.925781-3.152344 1.777343-4.945312.847657-1.792969 1.886719-3.546875 2.820313-4.753906.9375-1.210938 1.753906-1.863282 2.222656-1.777344.46875.082031.582031.914062.308594 2.242187-.269531 1.332031-.925781 3.152344-1.78125 4.949219zm0 0" fill="#009b3a" stroke="#000" stroke-width=".176008"/><path d="m524.828125 321.503906c-1.394531 1.582032-2.933594 3.054688-4.179687 4-1.246094.945313-2.183594 1.359375-2.546876 1.117188-.363281-.238282-.152343-1.132813.574219-2.421875.734375-1.285157 1.972657-2.960938 3.371094-4.535157 1.394531-1.582031 2.933594-3.054687 4.179687-4 1.246094-.949218 2.183594-1.359374 2.546876-1.117187.367187.238281.152343 1.132813-.574219 2.421875-.734375 1.289062-1.96875 2.957031-3.371094 4.535156zm0 0" fill="#009b3a" stroke="#000" stroke-width=".176008"/><path d="m525.367188 323.902344c-1.703126 1.296875-3.503907 2.449218-4.886719 3.125-1.390625.675781-2.34375.871094-2.605469.535156-.257812-.339844.179688-1.210938 1.203125-2.367188 1.019531-1.160156 2.605469-2.585937 4.304687-3.886718 1.703126-1.296875 3.503907-2.445313 4.882813-3.125 1.386719-.671875 2.34375-.867188 2.601563-.53125.261718.339844-.179688 1.210937-1.199219 2.367187s-2.601563 2.589844-4.300781 3.882813zm0 0" fill="#009b3a" stroke="#000" stroke-width=".176008"/><path d="m517.953125 327.140625c-.039063.027344-.800781-2.21875-.882813-2.722656-.082031-.496094.835938-1.089844.375-2.542969-.453124-1.460938-1.566406-2.527344-2.269531-2.898438-.699219-.371093-1.132812.300782-.625 2.058594.507813 1.757813 1.703125 2.316406 2.058594 3.171875.359375.855469.851563 2.285157.988281 3.089844.660156.398437 2.011719 1.625 2.796875 2.269531.792969.636719 1.867188 2.988282 3.425781 3.941406 1.28125.828126 2.53125.667969 2.195313-.320312-.335937-.984375-1.539063-2.328125-2.457031-2.984375-.917969-.65625-2.292969-.28125-3.132813-.996094-.605469-.554687-2.496093-1.941406-2.472656-2.066406zm0 0" fill="#009b3a" stroke="#000" stroke-width=".09993"/><path d="m513.449219 334.976562c-2.003907.027344-3.996094-.179687-5.410157-.566406-1.417968-.390625-2.242187-.949218-2.238281-1.523437 0-.578125.824219-1.164063 2.246094-1.59375 1.414063-.429688 3.40625-.695313 5.414063-.726563 2.007812-.027344 4 .179688 5.417968.566406 1.410156.390626 2.234375.953126 2.234375 1.527344-.003906.578125-.828125 1.160156-2.246093 1.585938-1.421876.429687-3.414063.699218-5.417969.730468zm0 0" fill="#009b3a" stroke="#000" stroke-width=".245127"/><path d="m512.4375 328.085938c-1.273438 1.640624-2.714844 3.125-3.917969 4.03125-1.199219.90625-2.148437 1.226562-2.578125.871093-.425781-.359375-.328125-1.390625.269532-2.804687.59375-1.414063 1.679687-3.191406 2.953124-4.832032 1.269532-1.644531 2.714844-3.136718 3.917969-4.042968 1.207031-.910156 2.152344-1.230469 2.582031-.875.425782.363281.328126 1.394531-.269531 2.808594-.597656 1.417968-1.6875 3.199218-2.957031 4.84375zm0 0" fill="#009b3a" stroke="#000" stroke-width=".245127"/><path d="m513.515625 331.601562c-1.867187.804688-3.804687 1.386719-5.269531 1.578126-1.464844.195312-2.429688-.007813-2.636719-.539063-.203125-.53125.363281-1.390625 1.539063-2.339844 1.171874-.945312 2.945312-1.960937 4.808593-2.765625 1.871094-.804687 3.808594-1.386718 5.269531-1.578125 1.464844-.195312 2.4375.003907 2.640626.535157.207031.535156-.359376 1.394531-1.539063 2.339843-1.175781.949219-2.941406 1.964844-4.8125 2.769531zm0 0" fill="#009b3a" stroke="#000" stroke-width=".245127"/><path d="m515.605469 264.839844c.921875.828125 1.75 1.710937 2.230469 2.390625.488281.679687.636718 1.148437.398437 1.28125-.238281.125-.851563-.089844-1.675781-.585938-.820313-.496093-1.835938-1.269531-2.761719-2.101562-.925781-.835938-1.746094-1.714844-2.234375-2.398438-.484375-.675781-.628906-1.144531-.390625-1.277343.234375-.128907.847656.085937 1.667969.585937.828125.5 1.84375 1.269531 2.765625 2.105469zm0 0" fill="#009b3a" stroke="#000" stroke-width=".12809"/><path d="m513.246094 266.8125c1.25.160156 2.515625.429688 3.433594.726562.917968.296876 1.480468.625 1.527343.882813.050781.257813-.417969.449219-1.269531.519531-.847656.066406-2.074219.011719-3.324219-.152344-1.25-.160156-2.507812-.429687-3.429687-.726562-.917969-.296875-1.476563-.621094-1.527344-.878906-.046875-.265625.421875-.453125 1.269531-.523438.851563-.070312 2.070313-.015625 3.320313.152344zm0 0" fill="#009b3a" stroke="#000" stroke-width=".12809"/><path d="m514.195312 265.566406c1.175782.601563 2.296876 1.28125 3.039063 1.851563.746094.566406 1.105469 1.015625.976563 1.21875-.121094.207031-.730469.160156-1.652344-.117188-.917969-.277343-2.144532-.789062-3.320313-1.386719-1.179687-.597656-2.296875-1.277343-3.039062-1.847656-.746094-.570312-1.109375-1.019531-.980469-1.222656s.738281-.160156 1.65625.117188c.921875.277343 2.140625.785156 3.320312 1.386718zm0 0" fill="#009b3a" stroke="#000" stroke-width=".12809"/><path d="m479.617188 327.503906s6.433593 1.378906 12.019531 3.410156c5.589843 2.03125 14.082031 9.003907 16.367187 9.398438 2.558594.117188 6.105469-.757812 7.453125-4.453125-3.941406 1.050781-6.308593 2.648437-10.070312.582031-1.328125-.503906-5.683594-4.46875-10.457031-6.59375-4.773438-2.121094-14.402344-4.539062-14.402344-4.539062zm0 0" fill="#009b3a" stroke="#000" stroke-width=".105626"/><path d="m486.476562 269.390625c-.027343-.058594 7.394532-3.90625 7.394532-3.90625l-8.160156 2.089844-.945313 1.433593zm0 0" fill="#009b3a" stroke="#000" stroke-width=".12927"/><path d="m493.496094 271.1875c-2.867188-.519531-7.273438-1.484375-10.078125-1.710938 1.9375-2.148437 4.609375-5.773437 6.257812-8.007812-1.085937 2.128906-2.796875 4.933594-3.46875 6.96875 1.976563 1.066406 5.082031 1.898438 7.289063 2.75zm0 0" fill="#009b3a" stroke="#000" stroke-width=".129269"/><path d="m485.136719 269.839844c-.035157-.050782 6.578125-5.09375 6.578125-5.09375l-7.636719 3.417968-.683594 1.582032zm0 0" fill="#009b3a" stroke="#000" stroke-width=".129269"/><path d="m492.167969 271.113281c-2.886719-.550781-7.328125-1.5625-10.148438-1.800781 1.90625-2.210938 4.519531-5.957031 6.128907-8.257812-1.046876 2.199218-2.707032 5.085937-3.347657 7.1875 2 1.109374 5.136719 1.984374 7.367188 2.871093zm0 0" fill="#009b3a" stroke="#000" stroke-width=".131629"/><path d="m484.046875 270.25c-.019531-.054688 7.746094-3.242188 7.746094-3.242188l-8.339844 1.371094-1.074219 1.34375zm0 0" fill="#009b3a" stroke="#000" stroke-width=".12927"/><path d="m491.296875 271.175781c-2.917969-.242187-7.425781-.789062-10.242187-.726562 1.621093-2.457031 3.765624-6.546875 5.085937-9.058594-.78125 2.34375-2.078125 5.464844-2.464844 7.667969 2.109375.90625 5.3125 1.453125 7.621094 2.117187zm0 0" fill="#009b3a" stroke="#000" stroke-width=".132824"/><path d="m483.261719 270.285156c-.039063-.046875 5.25-6.394531 5.25-6.394531l-6.652344 4.972656-.308594 1.691407zm0 0" fill="#009b3a" stroke="#000" stroke-width=".129269"/><path d="m491.25 271.597656c-3.128906-.058594-7.980469-.335937-10.964844-.070312 1.476563-2.796875 3.34375-7.410156 4.5-10.242188-.59375 2.609375-1.664062 6.105469-1.851562 8.539063 2.335937.84375 5.792968 1.214843 8.316406 1.773437zm0 0" fill="#009b3a" stroke="#000" stroke-width=".14351"/><path d="m482.199219 271.800781c-.039063-.058593 6.371093-6.113281 6.371093-6.113281l-7.710937 4.265625-.527344 1.828125zm0 0" fill="#009b3a" stroke="#000" stroke-width=".142489"/><path d="m489.859375 271.800781c-3.367187.015625-8.535156-.164062-11.816406.203125 2.175781-3.121094 5.144531-8.25 6.976562-11.402344-1.183593 2.894532-3.0625 6.769532-3.765625 9.457032 2.34375.875 5.996094 1.195312 8.605469 1.742187zm0 0" fill="#009b3a" stroke="#000" stroke-width=".156089"/><path d="m480.054688 272.257812c-.035157-.066406 8.140624-6.898437 8.140624-6.898437l-9.203124 4.894531-.945313 2.027344zm0 0" fill="#009b3a" stroke="#000" stroke-width=".154979"/><path d="m488.636719 272.007812c-3.324219.480469-8.476563 1.023438-11.675781 1.835938 1.710937-3.339844 3.917968-8.757812 5.28125-12.082031-.757813 2.984375-2.0625 7.027343-2.375 9.746093 2.449218.519532 6.109374.328126 8.769531.5zm0 0" fill="#009b3a" stroke="#000" stroke-width=".154977"/><path d="m478.96875 273.613281c-.046875-.046875 6.269531-8.6875 6.269531-8.6875l-7.820312 7.078125-.421875 2.167969zm0 0" fill="#009b3a" stroke="#000" stroke-width=".154977"/><path d="m486.800781 273.039062c-3.347656.3125-8.523437.589844-11.761719 1.242188 1.890626-3.246094 4.398438-8.542969 5.945313-11.796875-.921875 2.945313-2.449219 6.914063-2.917969 9.609375 2.417969.644531 6.089844.636719 8.734375.945312zm0 0" fill="#009b3a" stroke="#000" stroke-width=".154977"/><path d="m477.835938 274.53125c-.035157-.0625 7.984374-6.910156 7.984374-6.910156l-9.058593 4.882812-.910157 2.039063zm0 0" fill="#009b3a" stroke="#000" stroke-width=".154977"/><path d="m485.820312 273.390625c-3.339843.707031-8.523437 1.59375-11.714843 2.621094 1.5625-3.410157 3.523437-8.902344 4.730469-12.277344-.613282 3-1.730469 7.070313-1.914063 9.773437 2.5.34375 6.199219-.105468 8.898437-.117187zm0 0" fill="#009b3a" stroke="#000" stroke-width=".154977"/><path d="m476.503906 274.886719c-.054687-.039063 5.097656-9.464844 5.097656-9.464844l-6.898437 8.183594-.117187 2.160156zm0 0" fill="#009b3a" stroke="#000" stroke-width=".154977"/><path d="m485.820312 273.921875c-3.585937.933594-9.164062 2.152344-12.550781 3.4375 1.300781-3.878906 2.785157-10.097656 3.707031-13.917969-.3125 3.375-1.042968 7.976563-.910156 10.996094 2.785156.273438 6.789063-.386719 9.753906-.515625zm0 0" fill="#009b3a" stroke="#000" stroke-width=".172051"/><path d="m475.503906 277.074219c-.054687-.054688 6.417969-9.488281 6.417969-9.488281l-8.210937 7.671874-.347657 2.394532zm0 0" fill="#009b3a" stroke="#000" stroke-width=".170827"/><path d="m484.398438 275.003906c-3.519532 1.113282-9.023438 2.625-12.328126 4.074219 1.113282-3.902344 2.300782-10.128906 3.039063-13.949219-.152344 3.347656-.664063 7.933594-.398437 10.910156 2.789062.125 6.742187-.742187 9.6875-1.035156zm0 0" fill="#009b3a" stroke="#000" stroke-width=".170826"/><path d="m474.207031 278.472656c-.058593-.046875 4.882813-10.476562 4.882813-10.476562l-6.9375 9.019531.03125 2.40625zm0 0" fill="#009b3a" stroke="#000" stroke-width=".170826"/><path d="m483.054688 276.429688c-3.605469.820312-9.222657 1.875-12.640626 3.054687 1.460938-3.800781 3.207032-9.910156 4.289063-13.664063-.460937 3.328126-1.382813 7.855469-1.382813 10.851563 2.761719.347656 6.777344-.191406 9.734376-.242187zm0 0" fill="#009b3a" stroke="#000" stroke-width=".170826"/><path d="m473.054688 279.476562c-.042969-.0625 7.980468-8.191406 7.980468-8.191406l-9.402344 6.070313-.769531 2.296875zm0 0" fill="#009b3a" stroke="#000" stroke-width=".170827"/><path d="m481.449219 277.851562c-3.578125.484376-9.125 1-12.539063 1.855469 1.660156-3.722656 3.746094-9.765625 5.03125-13.476562-.648437 3.339843-1.832031 7.855469-2.019531 10.902343 2.679687.632813 6.632813.480469 9.527344.71875zm0 0" fill="#009b3a" stroke="#000" stroke-width=".170827"/><path d="m471.476562 278.664062c-.058593-.054687 5.425782-10.261718 5.425782-10.261718l-7.359375 8.632812-.113281 2.441406zm0 0" fill="#009b3a" stroke="#000" stroke-width=".170826"/><path d="m481.894531 276.636719c-3.886719 1.589843-9.957031 3.808593-13.597656 5.769531 1.191406-4.613281 2.449219-11.921875 3.230469-16.414062-.136719 3.890624-.664063 9.246093-.339844 12.675781 3.085938-.097657 7.453125-1.441407 10.707031-2.03125zm0 0" fill="#009b3a" stroke="#000" stroke-width=".19344"/><path d="m470.726562 281.757812c-.058593-.054687 6.5-11.769531 6.5-11.769531l-8.574218 9.957031-.238282 2.785157zm0 0" fill="#009b3a" stroke="#000" stroke-width=".192064"/><path d="m480.394531 278.085938c-3.808593 1.785156-9.769531 4.320312-13.320312 6.460937.992187-4.617187 1.917969-11.886719 2.5-16.359375.035156 3.84375-.253907 9.144531.226562 12.507812 3.074219-.273437 7.371094-1.84375 10.59375-2.609374zm0 0" fill="#009b3a" stroke="#000" stroke-width=".192063"/><path d="m469.394531 283.539062c-.074219-.042968 4.742188-12.664062 4.742188-12.664062l-7.09375 11.3125.171875 2.738281zm0 0" fill="#009b3a" stroke="#000" stroke-width=".192063"/><path d="m478.734375 279.140625c-3.796875 1.816406-9.75 4.398437-13.285156 6.566406.957031-4.617187 1.839843-11.894531 2.390625-16.367187.058594 3.839844-.195313 9.140625.308594 12.496094 3.078124-.296876 7.367187-1.90625 10.585937-2.695313zm0 0" fill="#009b3a" stroke="#000" stroke-width=".192064"/><path d="m468.335938 285.046875c-.058594-.0625 7.332031-11.167969 7.332031-11.167969l-9.246094 9.136719-.457031 2.777344zm0 0" fill="#009b3a" stroke="#000" stroke-width=".192064"/><path d="m478.378906 278.566406c-3.390625 2.703125-8.75 6.675782-11.804687 9.652344-.007813-4.664062-.632813-11.851562-1.007813-16.269531.851563 3.65625 1.695313 8.796875 2.882813 11.875 2.980469-1.058594 6.902343-3.6875 9.929687-5.257813zm0 0" fill="#009b3a" stroke="#000" stroke-width=".192063"/><path d="m468.6875 285.589844c-.082031-.007813.847656-13.382813.847656-13.382813l-3.535156 13.011719.988281 2.453125zm0 0" fill="#009b3a" stroke="#000" stroke-width=".192063"/><path d="m477.417969 279.796875c-3.398438 2.6875-8.777344 6.636719-11.839844 9.59375.011719-4.664063-.582031-11.863281-.9375-16.28125.832031 3.664063 1.652344 8.808594 2.832031 11.902344 2.984375-1.050781 6.914063-3.652344 9.945313-5.214844zm0 0" fill="#009b3a" stroke="#000" stroke-width=".192064"/><path d="m467.835938 287.855469c-.078126-.03125 3.417968-13.082031 3.417968-13.082031l-5.914062 12.027343.464844 2.6875zm0 0" fill="#009b3a" stroke="#000" stroke-width=".192064"/><path d="m477.042969 280.113281c-3.214844 3.164063-8.328125 7.859375-11.167969 11.257813-.503906-4.785156-1.914062-12.089844-2.777344-16.582032 1.265625 3.660157 2.6875 8.839844 4.246094 11.859376 2.96875-1.429688 6.738281-4.574219 9.699219-6.535157zm0 0" fill="#009b3a" stroke="#000" stroke-width=".198894"/><path d="m467.855469 289.527344c-.085938-.015625.640625-13.914063.640625-13.914063l-3.417969 13.519531 1.058594 2.546876zm0 0" fill="#009b3a" stroke="#000" stroke-width=".198893"/><path d="m476.019531 282.421875c-3.4375 2.84375-8.878906 7.023437-11.96875 10.136719-.105469-4.84375-.90625-12.308594-1.394531-16.898438.957031 3.796875 1.945312 9.128906 3.234375 12.320313 3.054687-1.132813 7.042969-3.898438 10.128906-5.558594zm0 0" fill="#009b3a" stroke="#000" stroke-width=".198893"/><path d="m466.832031 291.117188c-.074219-.046876 4.839844-13.085938 4.839844-13.085938l-7.261719 11.59375.191406 2.871094zm0 0" fill="#009b3a" stroke="#000" stroke-width=".198893"/><path d="m475.960938 282.476562c-3.039063 3.21875-7.882813 7.988282-10.570313 11.445313-.484375-4.847656-1.824219-12.25-2.648437-16.804687 1.207031 3.703124 2.554687 8.953124 4.035156 12.015624 2.8125-1.460937 6.382812-4.660156 9.183594-6.65625zm0 0" fill="#009b3a" stroke="#000" stroke-width=".19499"/><path d="m467.019531 291.78125c-.085937 0-.574219-13.832031-.574219-13.832031l-2.238281 13.78125 1.285157 2.390625zm0 0" fill="#009b3a" stroke="#000" stroke-width=".198893"/><path d="m474.472656 283.5c-2.945312 3.246094-7.640625 8.066406-10.226562 11.546875-.617188-4.847656-2.179688-12.246094-3.132813-16.792969 1.3125 3.695313 2.816407 8.933594 4.378907 11.988282 2.769531-1.488282 6.242187-4.714844 8.980468-6.742188zm0 0" fill="#009b3a" stroke="#000" stroke-width=".19499"/><path d="m466.238281 293.152344c-.074219-.023438 1.546875-14.046875 1.546875-14.046875l-4.117187 13.285156.820312 2.730469zm0 0" fill="#009b3a" stroke="#000" stroke-width=".19499"/><path d="m473.835938 284.050781c-2.6875 3.519531-7.007813 8.765625-9.324219 12.484375-.988281-4.769531-3.105469-11.976562-4.402344-16.40625 1.589844 3.550782 3.488281 8.617188 5.28125 11.503906 2.652344-1.75 5.871094-5.300781 8.445313-7.582031zm0 0" fill="#009b3a" stroke="#000" stroke-width=".19499"/><path d="m466.179688 294.46875c-.074219 0-.886719-14.070312-.886719-14.070312l-1.773438 13.960937 1.277344 2.457031zm0 0" fill="#009b3a" stroke="#000" stroke-width=".19499"/><path d="m473.558594 284.863281c-2.523438 3.675781-6.601563 9.195313-8.734375 13.058594-1.234375-4.75-3.730469-11.898437-5.257813-16.289063 1.777344 3.488282 3.941406 8.496094 5.886719 11.300782 2.574219-1.898438 5.628906-5.644532 8.105469-8.070313zm0 0" fill="#009b3a" stroke="#000" stroke-width=".196389"/><path d="m467.066406 295.785156c-.082031-.023437 1.429688-14.128906 1.429688-14.128906l-4.027344 13.28125.847656 2.78125zm0 0" fill="#009b3a" stroke="#000" stroke-width=".196388"/><path d="m473.046875 286.167969c-2.179687 4.011719-5.726563 10.0625-7.5 14.199219-1.65625-4.546876-4.777344-11.304688-6.6875-15.464844 2.078125 3.226562 4.675781 7.894531 6.863281 10.421875 2.386719-2.246094 5.082032-6.394531 7.324219-9.15625zm0 0" fill="#009b3a" stroke="#000" stroke-width=".196389"/><path d="m466.574219 296.949219c-.085938.023437-3.953125-13.398438-3.953125-13.398438l1.332031 14.125 1.785156 1.988281zm0 0" fill="#009b3a" stroke="#000" stroke-width=".196388"/><path d="m472.96875 287.734375c-2.265625 4-5.960938 10.03125-7.816406 14.15625-1.667969-4.535156-4.820313-11.269531-6.753906-15.421875 2.113281 3.21875 4.746093 7.878906 6.976562 10.390625 2.464844-2.234375 5.269531-6.371094 7.59375-9.125zm0 0" fill="#009b3a" stroke="#000" stroke-width=".198771"/><path d="m466.746094 299.472656c-.082032 0-1.449219-14.085937-1.449219-14.085937l-1.304687 14.089843 1.414062 2.414063zm0 0" fill="#009b3a" stroke="#000" stroke-width=".198771"/><path d="m473.199219 288.964844c-2.335938 3.945312-6.128907 9.886718-8.046875 13.96875-1.59375-4.570313-4.636719-11.382813-6.5-15.574219 2.058594 3.265625 4.617187 7.980469 6.800781 10.554687 2.503906-2.179687 5.375-6.253906 7.746094-8.949218zm0 0" fill="#009b3a" stroke="#000" stroke-width=".198771"/><path d="m466.609375 300.601562c-.082031.007813-2.617187-13.835937-2.617187-13.835937l-.125 14.171875 1.605468 2.230469zm0 0" fill="#009b3a" stroke="#000" stroke-width=".198771"/><path d="m472.199219 290.957031c-2.515625 3.777344-6.589844 9.453125-8.703125 13.394531-1.367188-4.675781-4.082032-11.691406-5.742188-16 1.898438 3.402344 4.230469 8.289063 6.289063 11.007813 2.601562-2.003906 5.660156-5.867187 8.15625-8.402344zm0 0" fill="#009b3a" stroke="#000" stroke-width=".198771"/><path d="m465.398438 302.140625c-.082032-.023437 1.175781-14.144531 1.175781-14.144531l-3.859375 13.410156.933594 2.734375zm0 0" fill="#009b3a" stroke="#000" stroke-width=".198771"/><path d="m472.347656 291.320312c-2.148437 4.089844-5.667968 10.269532-7.402344 14.472657-1.796874-4.460938-5.144531-11.0625-7.195312-15.121094 2.207031 3.121094 4.96875 7.667969 7.273438 10.085937 2.398437-2.339843 5.085937-6.59375 7.324218-9.4375zm0 0" fill="#009b3a" stroke="#000" stroke-width=".198771"/><path d="m464.921875 303.320312c-.082031.023438-4.339844-13.183593-4.339844-13.183593l1.667969 14.019531 1.871094 1.910156zm0 0" fill="#009b3a" stroke="#000" stroke-width=".198771"/><path d="m471.757812 292.367188c-1.5 4.492187-4.03125 11.335937-5.113281 15.839843-2.4375-3.988281-6.722656-9.742187-9.355469-13.28125 2.640626 2.589844 6.050782 6.445313 8.675782 8.320313 2.015625-2.824219 4.015625-7.585938 5.792968-10.878906zm0 0" fill="#009b3a" stroke="#000" stroke-width=".198771"/><path d="m468.789062 304.398438c-.082031.023437-4.703124-13.003907-4.703124-13.003907l2.054687 13.941407 1.921875 1.835937zm0 0" fill="#009b3a" stroke="#000" stroke-width=".198771"/><path d="m471.722656 293.734375c-1.46875 4.507813-3.953125 11.378906-4.992187 15.894531-2.472657-3.964844-6.800781-9.667968-9.457031-13.183594 2.65625 2.558594 6.09375 6.382813 8.738281 8.226563 1.992187-2.84375 3.960937-7.625 5.710937-10.9375zm0 0" fill="#009b3a" stroke="#000" stroke-width=".198773"/><path d="m468.824219 306.617188c-.074219.039062-6.046875-12.160157-6.046875-12.160157l3.519531 13.5 2.105469 1.519531zm0 0" fill="#009b3a" stroke="#000" stroke-width=".198771"/><path d="m471.265625 294.878906c-.9375 4.675782-2.613281 11.84375-3.128906 16.46875-2.902344-3.574218-7.851563-8.609375-10.894531-11.714844 2.933593 2.160157 6.78125 5.453126 9.613281 6.90625 1.652343-3.105468 3.050781-8.128906 4.410156-11.660156zm0 0" fill="#009b3a" stroke="#000" stroke-width=".198771"/><path d="m469.21875 308.519531c-.082031.015625-3.261719-13.632812-3.261719-13.632812l.535157 14.15625 1.710937 2.113281zm0 0" fill="#009b3a" stroke="#000" stroke-width=".198771"/><path d="m471.285156 296.328125c-.5 4.78125-1.488281 12.144531-1.574218 16.816406-3.210938-3.167969-8.59375-7.515625-11.898438-10.191406 3.109375 1.75 7.234375 4.511719 10.179688 5.578125 1.347656-3.316406 2.273437-8.507812 3.292968-12.203125zm0 0" fill="#009b3a" stroke="#000" stroke-width=".198771"/><path d="m469.375 309.527344c-.0625.058594-8.617188-9.84375-8.617188-9.84375l6.492188 11.917968 2.375.8125zm0 0" fill="#009b3a" stroke="#000" stroke-width=".198771"/><path d="m471.464844 298.003906c-.515625 4.78125-1.539063 12.132813-1.640625 16.804688-3.199219-3.1875-8.5625-7.5625-11.855469-10.257813 3.101562 1.769531 7.214844 4.550781 10.15625 5.632813 1.363281-3.308594 2.304688-8.488282 3.339844-12.179688zm0 0" fill="#009b3a" stroke="#000" stroke-width=".198771"/><path d="m470.339844 311.800781c-.070313.046875-6.617188-11.863281-6.617188-11.863281l4.160156 13.320312 2.171876 1.417969zm0 0" fill="#009b3a" stroke="#000" stroke-width=".198771"/><path d="m471.855469 299.964844c-.316407 4.808594-1.03125 12.222656-.933594 16.898437-3.328125-2.992187-8.867187-7.039062-12.265625-9.535156 3.175781 1.578125 7.394531 4.117187 10.378906 5.015625 1.214844-3.390625 1.941406-8.621094 2.820313-12.378906zm0 0" fill="#009b3a" stroke="#000" stroke-width=".198771"/><path d="m471.175781 313.976562c-.0625.058594-8.179687-10.371093-8.179687-10.371093l5.96875 12.308593 2.332031.957032zm0 0" fill="#009b3a" stroke="#000" stroke-width=".198771"/><path d="m471.945312 302.175781c-.289062 4.8125-.960937 12.234375-.832031 16.910157-3.34375-2.964844-8.90625-6.960938-12.320312-9.425782 3.179687 1.546875 7.417969 4.046875 10.402343 4.925782 1.199219-3.40625 1.886719-8.648438 2.75-12.410157zm0 0" fill="#009b3a" stroke="#000" stroke-width=".198771"/><path d="m471.917969 315.738281c-.078125.03125-5.730469-12.503906-5.730469-12.503906l3.171875 13.6875 2.0625 1.644531zm0 0" fill="#009b3a" stroke="#000" stroke-width=".198771"/><path d="m472.160156 303.609375c.164063 4.828125.1875 12.304687.746094 16.941406-3.59375-2.5-9.480469-5.730469-13.097656-7.726562 3.300781 1.117187 7.734375 3.03125 10.777344 3.503906.875-3.542969 1.074218-8.855469 1.574218-12.71875zm0 0" fill="#009b3a" stroke="#000" stroke-width=".198771"/><path d="m472.921875 315.253906c-.046875.078125-10.476563-7.171875-10.476563-7.171875l8.882813 9.789063 2.464844.125zm0 0" fill="#009b3a" stroke="#000" stroke-width=".198771"/><path d="m472.488281 304.136719c.417969 4.804687.835938 12.25 1.636719 16.855469-3.730469-2.355469-9.792969-5.351563-13.519531-7.207032 3.363281.984375 7.90625 2.730469 10.976562 3.085938.6875-3.570313.609375-8.875.90625-12.734375zm0 0" fill="#009b3a" stroke="#000" stroke-width=".198771"/><path d="m474.050781 317.921875c-.066406.0625-8.726562-10.03125-8.726562-10.03125l6.609375 12.046875 2.386718.867188zm0 0" fill="#009b3a" stroke="#000" stroke-width=".198771"/><path d="m473.246094 305.964844c.621094 4.789062 1.347656 12.21875 2.339844 16.773437-3.8125-2.128906-9.984376-4.765625-13.773438-6.394531 3.390625.785156 7.992188 2.253906 11.070312 2.425781.53125-3.613281.226563-8.914062.363282-12.804687zm0 0" fill="#009b3a" stroke="#000" stroke-width=".198771"/><path d="m475.796875 319.609375c-.050781.078125-10.398437-7.34375-10.398437-7.34375l8.773437 9.933594 2.46875.167969zm0 0" fill="#009b3a" stroke="#000" stroke-width=".198771"/><path d="m473.574219 307.996094c.933593 4.730468 2.148437 12.097656 3.4375 16.5625-3.929688-1.769532-10.234375-3.824219-14.105469-5.097656 3.421875.464843 8.085938 1.5 11.152344 1.378906.292968-3.664063-.363282-8.941406-.484375-12.84375zm0 0" fill="#009b3a" stroke="#000" stroke-width=".198771"/><path d="m476.949219 321.070312c-.070313.0625-8.597657-10.191406-8.597657-10.191406l6.449219 12.164063 2.375.917969zm0 0" fill="#009b3a" stroke="#000" stroke-width=".198771"/><path d="m474.140625 309.304688c1.363281 4.601562 3.257813 11.792968 4.949219 16.085937-4.050782-1.246094-10.476563-2.449219-14.421875-3.203125 3.421875.003906 8.132812.414062 11.15625-.117188-.058594-3.695312-1.199219-8.882812-1.683594-12.765624zm0 0" fill="#009b3a" stroke="#000" stroke-width=".198771"/><path d="m477.402344 321.09375c-.015625.097656-12.011719-2.574219-12.011719-2.574219l11.425781 5.679688 2.304688-.863281zm0 0" fill="#009b3a" stroke="#000" stroke-width=".198771"/><path d="m474.929688 310.738281c1.347656 4.601563 3.214843 11.804688 4.890624 16.109375-4.042968-1.269531-10.464843-2.515625-14.414062-3.289062 3.425781.023437 8.132812.464844 11.160156-.050782-.042968-3.699218-1.160156-8.890624-1.636718-12.769531zm0 0" fill="#009b3a" stroke="#000" stroke-width=".198771"/><path d="m479.371094 322.359375c-.035156.085937-11.496094-5.554687-11.496094-5.554687l10.308594 8.363281 2.46875-.238281zm0 0" fill="#009b3a" stroke="#000" stroke-width=".198771"/><path d="m474.335938 311.546875c2.28125 4.199219 5.621093 10.816406 8.160156 14.640625-4.210938-.324219-10.734375-.089844-14.738282.046875 3.347657-.746094 8.023438-1.386719 10.859376-2.570313-.820313-3.605468-3.003907-8.429687-4.28125-12.117187zm0 0" fill="#009b3a" stroke="#000" stroke-width=".198771"/><path d="m481.175781 323.617188c-.023437.09375-11.941406-3.292969-11.941406-3.292969l11.207031 6.339843 2.355469-.714843zm0 0" fill="#009b3a" stroke="#000" stroke-width=".198771"/><path d="m475.570312 313.328125c2.304688 4.183594 5.683594 10.773437 8.242188 14.578125-4.207031-.285156-10.722656.003906-14.726562.175781 3.339843-.777343 8.015624-1.457031 10.839843-2.667969-.839843-3.601562-3.054687-8.40625-4.355469-12.085937zm0 0" fill="#009b3a" stroke="#000" stroke-width=".198771"/><path d="m482.691406 324.601562c-.039062.082032-11.128906-6.65625-11.128906-6.65625l9.726562 9.304688 2.5.023438zm0 0" fill="#009b3a" stroke="#000" stroke-width=".198771"/><path d="m476.492188 314.375c2.671874 3.902344 6.632812 10.09375 9.519531 13.582031-4.164063.261719-10.53125 1.402344-14.449219 2.089844 3.203125-1.214844 7.726562-2.503906 10.386719-4.089844-1.179688-3.511719-3.820313-8.050781-5.457031-11.582031zm0 0" fill="#009b3a" stroke="#000" stroke-width=".198771"/><path d="m483.507812 325.578125c-.007812.09375-12.015624-.285156-12.015624-.285156l11.886718 3.511719 2.109375-1.316407zm0 0" fill="#009b3a" stroke="#000" stroke-width=".198771"/><path d="m490.46875 267.378906c0-.039062 8.640625-1.441406 8.640625-1.441406l-8.597656.199219-1.496094.773437zm0 0" fill="#009b3a" stroke="#000" stroke-width=".10418"/><path d="m495.214844 269.230469c-2.503906-.765625-6.292969-2.03125-8.867188-2.589844 2.734375-1.089844 6.78125-3.019531 9.273438-4.199219-1.914063 1.199219-4.703125 2.738282-6.1875 3.945313 1.433594.972656 4.039062 1.96875 5.78125 2.84375zm0 0" fill="#009b3a" stroke="#000" stroke-width=".105801"/><path d="m490.097656 267.675781c-.011718-.035156 8.359375-2.292969 8.359375-2.292969l-8.660156 1.101563-1.304687.894531zm0 0" fill="#009b3a" stroke="#000" stroke-width=".10418"/><path d="m495.613281 269.828125c-2.929687-.277344-7.417969-.839844-10.3125-.867187 2.179688-1.929688 5.230469-5.152344 7.113281-7.132813-1.296874 1.859375-3.28125 4.328125-4.136718 6.09375 1.960937.785156 5.117187 1.3125 7.335937 1.90625zm0 0" fill="#009b3a" stroke="#000" stroke-width=".12077"/><path d="m486.988281 268.265625c.007813-.039063 8.691407-.980469 8.691407-.980469l-8.46875-.273437-1.582032.699219zm0 0" fill="#009b3a" stroke="#000" stroke-width=".104181"/><path d="m493.421875 270.160156c-2.660156-.511718-6.707031-1.394531-9.402344-1.710937 2.558594-1.257813 6.289063-3.421875 8.589844-4.746094-1.71875 1.292969-4.25 2.988281-5.53125 4.246094 1.625.804687 4.429687 1.527343 6.34375 2.210937zm0 0" fill="#009b3a" stroke="#000" stroke-width=".10418"/><path d="m486.230469 268.179688c-.019531-.035157 7.652343-3.292969 7.652343-3.292969l-8.378906 2.214843-1 1.019532zm0 0" fill="#009b3a" stroke="#000" stroke-width=".10418"/><path d="m493.171875 271.132812c-2.21875-.914062-5.613281-2.464843-7.804687-3.109374 1.691406-1.582032 4.089843-4.351563 5.566406-6.050782-1.027344 1.699219-2.59375 3.894532-3.289063 5.574219 1.472657 1.257813 3.855469 2.488281 5.527344 3.585937zm0 0" fill="#009b3a" stroke="#000" stroke-width=".108627"/><path d="m486.671875 268.753906c-.023437-.050781 5.945313-2.582031 5.945313-2.582031l-6.480469.886719-.796875 1.160156zm0 0" fill="#009b3a" stroke="#000" stroke-width=".107854"/><path d="m481.683594 324.472656c.007812.097656-12.332032.09375-12.332032.09375l12.488282 3.054688 2.050781-1.34375zm0 0" fill="#009b3a" stroke="#000" stroke-width=".198771"/><path d="m483.902344 325.277344c-.015625.089844-12.523438-2.914063-12.523438-2.914063l12.023438 5.898438 2.359375-.757813zm0 0" fill="#009b3a" stroke="#000" stroke-width=".198771"/><path d="m485.960938 326.113281c0 .09375-12.4375-.628906-12.4375-.628906l12.4375 3.75 2.136718-1.210937zm0 0" fill="#009b3a" stroke="#000" stroke-width=".198771"/><path d="m478.070312 317.320312c3.234376 3.5625 8.082032 9.246094 11.476563 12.390626-4.175781.628906-10.46875 2.320312-14.335937 3.351562 3.074218-1.480469 7.472656-3.144531 9.949218-4.9375-1.664062-3.316406-4.957031-7.511719-7.089844-10.804688zm0 0" fill="#009b3a" stroke="#000" stroke-width=".198771"/><path d="m487.671875 326.738281c-.019531.089844-12.429687-4.066406-12.429687-4.066406l11.679687 6.945313 2.449219-.515626zm0 0" fill="#009b3a" stroke="#000" stroke-width=".198771"/><path d="m479.21875 318.140625c3.523438 3.210937 8.84375 8.378906 12.480469 11.148437-4 1.152344-9.953125 3.632813-13.613281 5.15625 2.839843-1.875 6.953124-4.109374 9.179687-6.226562-1.972656-3.160156-5.621094-7.003906-8.046875-10.078125zm0 0" fill="#009b3a" stroke="#000" stroke-width=".198771"/><path d="m488.695312 327.511719c.019532.097656-11.796874 2.316406-11.796874 2.316406l12.433593.851563 1.75-1.734376zm0 0" fill="#009b3a" stroke="#000" stroke-width=".198771"/><path d="m486.230469 326.765625c.007812.097656-12.304688.949219-12.304688.949219l12.695313 2.175781 1.945312-1.476563zm0 0" fill="#009b3a" stroke="#000" stroke-width=".198771"/><path d="m488.5 327.417969c-.007812.09375-12.71875-2.042969-12.71875-2.042969l12.445312 5.050781 2.296876-.917969zm0 0" fill="#009b3a" stroke="#000" stroke-width=".198771"/><path d="m490.621094 328.105469c.003906.097656-12.460938.234375-12.460938.234375l12.695313 2.882812 2.035156-1.355468zm0 0" fill="#009b3a" stroke="#000" stroke-width=".198771"/><path d="m482.078125 319.886719c3.503906 3.332031 8.765625 8.660156 12.390625 11.558593-4.121094.917969-10.273438 3.039063-14.058594 4.332032 2.957032-1.6875 7.226563-3.652344 9.566406-5.605469-1.914062-3.195313-5.519531-7.144531-7.898437-10.285156zm0 0" fill="#009b3a" stroke="#000" stroke-width=".198771"/><path d="m492.371094 328.613281c-.011719.089844-12.707032-3.191406-12.707032-3.191406l12.175782 6.113281 2.40625-.683594zm0 0" fill="#009b3a" stroke="#000" stroke-width=".198771"/><path d="m483.292969 320.625c3.757812 2.964844 9.457031 7.738281 13.292969 10.25-3.910157 1.425781-9.664063 4.308594-13.203126 6.078125 2.695313-2.066406 6.636719-4.570313 8.695313-6.835937-2.207031-3.011719-6.136719-6.59375-8.785156-9.492188zm0 0" fill="#009b3a" stroke="#000" stroke-width=".198771"/><path d="m493.453125 329.3125c.027344.089844-11.597656 3.125-11.597656 3.125l12.464843-.011719 1.628907-1.847656zm0 0" fill="#009b3a" stroke="#000" stroke-width=".198771"/><path d="m509.472656 311.859375-9.472656-6.546875-9.472656 6.546875 3.550781-10.476563-8.292969-6.550781h10.660156l3.554688-10.476562 3.554688 10.476562h10.660156l-8.292969 6.550781zm0 0" fill="#fedf00" stroke="#000" stroke-width=".543356"/><path d="m459.140625 329.601562-8.898437 5.28125-2.71875-4.582031c-.503907-.847656-.816407-1.539062-.9375-2.078125-.121094-.53125-.0625-1.054687.167968-1.5625.230469-.511718.628906-.933594 1.195313-1.269531.492187-.292969.980469-.445313 1.464843-.445313.484376 0 .941407.117188 1.386719.351563.277344.152344.585938.402344.921875.757813-.082031-.394532-.117187-.699219-.097656-.914063.015625-.140625.082031-.378906.207031-.71875.125-.332031.234375-.570313.328125-.710937l1.785156-2.859376 1.847657 3.109376-1.847657 3.082031c-.242187.394531-.371093.695312-.390624.902343-.019532.28125.042968.546876.195312.792969l.140625.246094 3.613281-2.144531zm-6.929687.378907-.6875-1.15625c-.074219-.128907-.257813-.34375-.558594-.65625-.140625-.160157-.320313-.253907-.539063-.28125-.222656-.027344-.425781.019531-.621093.136719-.285157.171874-.449219.390624-.5.664062-.042969.273438.085937.660156.382812 1.160156l.71875 1.207032zm0 0"/><path d="m443.835938 323.101562-2.703126-8.128906 2.09375-.699218 1.695313 5.089843 1.5625-.519531-1.570313-4.71875 2-.667969 1.570313 4.722657 1.9375-.644532-1.746094-5.234375 2.226563-.742187 2.75 8.273437zm0 0"/><path d="m440.289062 311.023438-.605468-5.277344c-.132813-1.152344.042968-2.042969.519531-2.679688.484375-.636718 1.230469-1.011718 2.238281-1.121094 1.039063-.125 1.886719.097657 2.542969.652344.65625.554688 1.054687 1.480469 1.203125 2.757813l.199219 1.738281 3.8125-.433594.367187 3.1875zm4.011719-3.691407-.085937-.78125c-.070313-.609375-.226563-1.027343-.46875-1.25-.238282-.222656-.527344-.316406-.859375-.277343-.324219.035156-.582031.175781-.78125.417968-.203125.238282-.265625.65625-.195313 1.25l.101563.902344zm0 0"/><path d="m439.957031 291.605469.339844-3.167969 6.132813.660156c.613281.066406 1.171874.222656 1.695312.46875.515625.25.960938.59375 1.320312 1.042969.359376.449219.597657.90625.714844 1.367187.164063.640626.195313 1.398438.105469 2.261719-.054687.496094-.148437 1.046875-.28125 1.625-.136719.585938-.324219 1.066407-.582031 1.441407-.246094.375-.582032.707031-1.003906.996093-.414063.289063-.835938.46875-1.253907.546875-.679687.128906-1.269531.160156-1.773437.105469l-6.132813-.65625.339844-3.175781 6.28125.679687c.5625.058594 1.015625-.046875 1.367187-.328125.347657-.273437.550782-.6875.609376-1.238281.058593-.546875-.046876-.996094-.324219-1.339844-.28125-.347656-.707031-.546875-1.273438-.609375zm0 0"/><path d="m441.34375 284.019531 1.972656-5.652343c.332032-.941407.816406-1.578126 1.457032-1.921876.640624-.339843 1.308593-.390624 2-.152343.574218.207031 1.003906.558593 1.292968 1.0625.191406.335937.289063.757812.289063 1.28125.410156-.644531.882812-1.058594 1.410156-1.246094.523437-.1875 1.097656-.175781 1.71875.046875.507813.175781.921875.453125 1.246094.828125.320312.375.527343.8125.621093 1.300781.058594.304688.027344.726563-.085937 1.257813-.144531.710937-.257813 1.179687-.335937 1.398437l-1.820313 5.207032zm4.890625-1.703125.460937-1.316406c.164063-.46875.199219-.824219.101563-1.070312-.097656-.238282-.304687-.414063-.605469-.515626-.289062-.101562-.542968-.085937-.765625.039063-.226562.132813-.414062.425781-.578125.878906l-.460937 1.332031zm3.839844 1.339844.535156-1.542969c.1875-.515625.21875-.917969.109375-1.191406-.109375-.277344-.320312-.472656-.632812-.582031-.285157-.101563-.554688-.074219-.804688.074218-.246094.148438-.46875.488282-.648438 1.015626l-.535156 1.535156zm0 0"/><path d="m446.238281 271.582031 1.652344-2.738281 6.679687 4.03125 2.578126-4.269531 2.179687 1.3125-4.230469 7.011719zm0 0"/><path d="m452.484375 262.109375 2.050781-2.460937 7.949219 6.625-2.054687 2.460937zm0 0"/><path d="m466.390625 256.765625 2.675781-1.179687c.371094.71875.574219 1.410156.609375 2.070312.035157.664062-.085937 1.292969-.363281 1.890625-.277344.589844-.773438 1.191406-1.476562 1.796875-.851563.730469-1.65625 1.203125-2.410157 1.425781-.753906.214844-1.59375.179688-2.527343-.109375-.925782-.289062-1.808594-.917968-2.644532-1.894531-1.117187-1.296875-1.632812-2.59375-1.539062-3.878906.09375-1.296875.769531-2.484375 2.03125-3.566407.988281-.847656 1.9375-1.316406 2.847656-1.40625.910156-.082031 1.855469.164063 2.839844.761719l-1.730469 2.3125c-.28125-.171875-.507813-.28125-.683594-.320312-.296875-.066407-.585937-.066407-.867187 0-.28125.066406-.542969.203125-.789063.414062-.546875.472657-.777343 1.054688-.691406 1.75.0625.515625.394531 1.125 1 1.832031.746094.871094 1.390625 1.355469 1.933594 1.449219.539062.097657 1.046875-.058593 1.527343-.46875.464844-.402343.703126-.832031.71875-1.292969.011719-.46875-.144531-.992187-.460937-1.585937zm0 0"/><path d="m477.421875 252.800781-3.214844 1.714844.363281 1.746094-2.878906 1.535156-1.4375-10.960937 3.074219-1.640626 8.296875 7.304688-2.949219 1.574219zm-1.640625-1.660156-2.757812-2.742187.746093 3.816406zm0 0"/><path d="m485.550781 240.546875 4.679688-.8125c.921875-.160156 1.6875-.160156 2.296875-.007813.617187.152344 1.144531.429688 1.597656.835938.453125.402344.816406.902344 1.089844 1.492188.273437.589843.472656 1.238281.589844 1.933593.191406 1.089844.210937 1.953125.070312 2.597657-.148438.644531-.40625 1.207031-.777344 1.683593-.367187.484375-.796875.835938-1.273437 1.0625-.660157.300781-1.269531.5-1.832031.597657l-4.683594.808593zm3.550781 1.761719.960938 5.574218.773438-.140624c.65625-.109376 1.113281-.261719 1.367187-.457032.25-.195312.425781-.488281.523437-.878906.089844-.390625.066407-.996094-.074218-1.8125-.1875-1.078125-.488282-1.785156-.910156-2.121094-.421876-.34375-1.039063-.441406-1.855469-.300781zm0 0"/><path d="m498.832031 238.765625 8.558594.367187-.089844 2.203126-5.355469-.226563-.074218 1.644531 4.96875.210938-.085938 2.109375-4.972656-.214844-.085938 2.039063 5.511719.234374-.097656 2.339844-8.714844-.371094zm0 0"/><path d="m511.292969 239.746094 3.105469.761718-1.855469 7.574219 4.84375 1.183594-.605469 2.476563-7.949219-1.941407zm0 0"/><path d="m527.890625 245.25 4.574219 2.703125c.996094.59375 1.601562 1.269531 1.816406 2.035156.214844.769531.070312 1.589844-.449219 2.464844-.53125.898437-1.21875 1.4375-2.058593 1.628906-.839844.183594-1.8125-.046875-2.925782-.707031l-1.503906-.890625-1.953125 3.308594-2.761719-1.636719zm.519531 5.433594.671875.394531c.53125.3125.960938.445313 1.285157.386719.320312-.058594.570312-.230469.738281-.515625.164062-.28125.214843-.574219.140625-.875-.070313-.308594-.363282-.613281-.878906-.914063l-.78125-.464844zm0 0"/><path d="m537.371094 262.738281-2.664063-2.480469-1.527343.910157-2.394532-2.226563 9.894532-4.925781 2.554687 2.371094-4.199219 10.222656-2.453125-2.273437zm1.039062-2.09375 1.691406-3.503906-3.363281 1.949219zm0 0"/><path d="m539.652344 267.527344 8.53125-5.851563 3.011718 4.394531c.5625.816407.917969 1.484376 1.074219 2.011719.15625.527344.132813 1.050781-.0625 1.570313-.195312.527344-.566406.972656-1.109375 1.347656-.472656.324219-.953125.503906-1.433594.539062-.480468.035157-.949218-.054687-1.40625-.261718-.289062-.128906-.617187-.363282-.972656-.691406.113282.386718.167969.683593.15625.898437 0 .148437-.054687.390625-.15625.730469-.101562.34375-.195312.585937-.277344.734375l-1.597656 2.96875-2.046875-2.976563 1.640625-3.199218c.214844-.40625.328125-.71875.332032-.929688 0-.277344-.082032-.535156-.242188-.78125l-.164062-.230469-3.460938 2.375zm6.890625-.832032.761719 1.113282c.082031.117187.28125.328125.59375.613281.15625.152344.34375.234375.5625.246094s.425781-.046875.613281-.171875c.273437-.191406.421875-.417969.453125-.699219.023437-.273437-.128906-.652344-.453125-1.132813l-.796875-1.160156zm0 0"/><path d="m549.75 282.1875-1.351562-3.382812-1.765626.164062-1.210937-3.03125 11.046875-.226562 1.289062 3.238281-8.167968 7.445312-1.234375-3.101562zm1.828125-1.453125 3.03125-2.441406-3.875.324219zm0 0"/><path d="m554.265625 292.03125 2.128906-.316406.730469 4.886718-4.359375.648438c-.777344-.839844-1.335937-1.601562-1.675781-2.285156-.335938-.683594-.582032-1.515625-.730469-2.503906-.179687-1.214844-.121094-2.234376.179687-3.066407.300782-.824219.828126-1.507812 1.585938-2.054687.757812-.542969 1.664062-.894532 2.722656-1.054688 1.117188-.167968 2.125-.078125 3.019532.257813.894531.335937 1.621093.917969 2.179687 1.742187.4375.640625.738281 1.546875.914063 2.726563.171874 1.128906.195312 1.984375.074218 2.582031-.121094.589844-.367187 1.105469-.742187 1.539062-.375.433594-.878907.789063-1.515625 1.078126l-1-2.96875c.367187-.1875.632812-.445313.792968-.769532.160157-.332031.203126-.734375.136719-1.199218-.101562-.691407-.429687-1.210938-.972656-1.546876-.542969-.339843-1.332031-.433593-2.378906-.277343-1.109375.164062-1.863281.492187-2.277344.980469-.410156.488281-.5625 1.105468-.449219 1.84375.050782.359374.148438.683593.300782.992187.152343.308594.378906.652344.6875 1.027344l.96875-.148438zm0 0"/><path d="m561.03125 307.050781-.285156 3.179688-6.140625-.546875c-.613281-.054688-1.179688-.199219-1.707031-.441406-.519532-.238282-.964844-.574219-1.335938-1.019532-.371094-.4375-.613281-.890625-.742188-1.347656-.171874-.640625-.21875-1.394531-.148437-2.261719.050781-.503906.132813-1.042969.253906-1.628906.125-.585937.308594-1.070313.554688-1.449219.242187-.382812.570312-.71875.984375-1.019531.417968-.289063.832031-.488281 1.25-.570313.671875-.136718 1.261718-.183593 1.769531-.140624l6.140625.546874-.28125 3.179688-6.289062-.5625c-.5625-.046875-1.015626.070312-1.363282.351562-.339844.285157-.542968.703126-.589844 1.253907-.050781.546875.066407.992187.355469 1.335937.28125.335938.707031.53125 1.277344.582032zm0 0"/><path d="m549.59375 318.007812 1.140625-3.460937-1.46875-1.007813 1.023437-3.105468 8.613282 6.925781-1.089844 3.308594-11.046875.464843 1.046875-3.179687zm2.335938.058594 3.890624.078125-3.179687-2.242187zm0 0"/><path d="m555.628906 326.46875-1.820312 3.042969-4.074219-.003907 1.925781 3.589844-1.816406 3.023438-3.085938-6.542969-3.71875-2.222656 1.648438-2.75 3.714844 2.226562zm0 0"/></g><path d="m563.039062 300c0 8.253906-1.636718 16.503906-4.796874 24.128906-3.15625 7.625-7.828126 14.621094-13.664063 20.457032-5.832031 5.832031-12.824219 10.511718-20.453125 13.667968-7.621094 3.15625-15.871094 4.804688-24.125 4.804688s-16.503906-1.648438-24.125-4.804688c-7.628906-3.15625-14.621094-7.835937-20.453125-13.667968-5.835937-5.835938-10.507813-12.832032-13.664063-20.457032-3.160156-7.625-4.796874-15.875-4.796874-24.128906s1.636718-16.503906 4.796874-24.128906c3.15625-7.625 7.828126-14.621094 13.664063-20.457032 5.832031-5.832031 12.824219-10.511718 20.453125-13.667968 7.621094-3.15625 15.871094-4.804688 24.125-4.804688s16.503906 1.648438 24.125 4.804688c7.628906 3.15625 14.621094 7.835937 20.453125 13.667968 5.835937 5.835938 10.507813 12.832032 13.664063 20.457032 3.160156 7.625 4.796874 15.875 4.796874 24.128906zm0 0" fill="none" stroke="#000" stroke-width=".869371"/><path d="m548.285156 300c0 6.324219-1.253906 12.640625-3.671875 18.480469-2.414062 5.847656-5.996093 11.203125-10.464843 15.671875-4.472657 4.472656-9.828126 8.050781-15.667969 10.472656-5.839844 2.414062-12.15625 3.675781-18.480469 3.675781s-12.640625-1.261719-18.480469-3.675781c-5.839843-2.421875-11.195312-6-15.667969-10.472656-4.46875-4.46875-8.050781-9.824219-10.464843-15.671875-2.417969-5.839844-3.671875-12.15625-3.671875-18.480469s1.253906-12.640625 3.671875-18.480469c2.414062-5.847656 5.996093-11.203125 10.464843-15.671875 4.472657-4.472656 9.828126-8.050781 15.667969-10.472656 5.839844-2.417969 12.15625-3.675781 18.480469-3.675781s12.640625 1.257812 18.480469 3.675781c5.839843 2.421875 11.195312 6 15.667969 10.472656 4.46875 4.46875 8.050781 9.824219 10.464843 15.671875 2.417969 5.839844 3.671875 12.15625 3.671875 18.480469zm0 0" fill="none" stroke="#000" stroke-width=".796661"/></svg>