<svg viewBox="0 0 1000 667" xmlns="http://www.w3.org/2000/svg" xmlns:xlink="http://www.w3.org/1999/xlink"><clipPath id="a"><path d="m400 0h600v666.71875h-600zm0 0"/></clipPath><clipPath id="b"><path d="m0 0h400v666.71875h-400zm0 0"/></clipPath><g clip-path="url(#a)"><path d="m400 0h600v666.667969h-600zm0 0" fill="#f00" fill-rule="evenodd"/></g><g clip-path="url(#b)"><path d="m0 0h400v666.667969h-400zm0 0" fill="#060" fill-rule="evenodd"/></g><path d="m530.402344 436.734375c-50.347656-1.523437-281.230469-145.636719-282.820313-168.585937l12.753907-21.257813c22.898437 33.277344 258.925781 173.429687 282.113281 168.464844l-12.054688 21.371093zm0 0" fill="#ff0" fill-rule="evenodd"/><path d="m257.648438 244.003906c-4.515626 12.148438 60.253906 52.195313 138.175781 99.582032 77.921875 47.398437 145.101562 76.679687 150.082031 72.480468.308594-.539062 2.449219-4.234375 2.253906-4.203125-.933594 1.410157-3.207031 1.847657-6.746094.824219-21.054687-6.070312-75.960937-31.265625-143.960937-72.511719-67.992187-41.234375-127.15625-79.230469-136.351563-95.382812-.636718-1.117188-1.089843-3.160157-1-4.746094h-.230468l-1.953125 3.417969zm273.933593 193.382813c-.851562 1.546875-2.449219 1.601562-5.46875 1.269531-18.839843-2.089844-75.984375-29.875-143.601562-70.363281-78.6875-47.101563-143.675781-90.015625-136.613281-101.234375l1.921874-3.394532.375.121094c-6.339843 19.003906 128.246094 95.957032 136.171876 100.871094 77.871093 48.242188 143.523437 76.417969 149.332031 69.089844zm0 0" fill="#ff0" fill-rule="evenodd"/><path d="m257.648438 244.003906c-4.515626 12.148438 60.246093 52.195313 138.175781 99.582032 77.914062 47.398437 145.101562 76.679687 150.082031 72.480468.308594-.539062 2.449219-4.234375 2.253906-4.203125-.925781 1.402344-3.207031 1.847657-6.746094.824219-21.054687-6.070312-75.960937-31.273438-143.960937-72.511719-67.992187-41.234375-127.15625-79.238281-136.351563-95.382812-.636718-1.117188-1.089843-3.160157-1-4.746094l-.222656-.007813-1.960937 3.425782zm0 0" fill="none" stroke="#000" stroke-width=".954883"/><path d="m531.582031 437.402344c-.851562 1.546875-2.449219 1.59375-5.46875 1.269531-18.828125-2.089844-75.984375-29.875-143.601562-70.363281-78.6875-47.09375-143.667969-90.011719-136.621094-101.226563l1.917969-3.394531.386718.121094c-6.339843 19.003906 128.246094 95.964844 136.164063 100.863281 77.871094 48.25 143.523437 76.425781 149.332031 69.101563l-2.109375 3.636718zm0 0" fill="none" stroke="#000" stroke-width=".954883"/><path d="m400.285156 282.046875c50.390625-.398437 112.582032-6.882813 148.371094-21.152344l-7.714844-12.523437c-21.148437 11.710937-83.683594 19.410156-141.085937 20.558594-67.890625-.628907-115.8125-6.941407-139.832031-23.054688l-7.273438 13.335938c44.140625 18.679687 89.371094 22.648437 147.535156 22.835937zm0 0" fill="#ff0" fill-rule="evenodd"/><path d="m550.734375 261.179688c-1.230469 1.96875-24.570313 10.019531-58.953125 15.960937-23.316406 3.554687-53.726562 6.589844-91.675781 6.625-36.058594.039063-65.511719-2.53125-87.808594-5.550781-36.09375-5.664063-54.71875-13.535156-61.613281-16.316406.660156-1.3125 1.082031-2.230469 1.714844-3.449219 19.828124 7.890625 38.542968 12.652343 60.46875 16.03125 22.152343 2.996093 51.25 5.597656 87.125 5.566406 37.777343-.042969 67.855468-3.304687 91.03125-6.753906 35.253906-5.691407 54.515624-13.015625 57.21875-16.40625zm-6.773437-12.699219c-3.816407 3.066406-22.859376 9.820312-56.363282 15.167969-22.355468 3.207031-50.789062 6.078124-87.109375 6.109374-34.503906.035157-62.695312-2.292968-84.136719-5.417968-34.027343-4.4375-52.136718-12.453125-58.667968-14.796875.648437-1.121094 1.308594-2.238281 1.992187-3.351563 5.078125 2.554688 22.558594 9.652344 57.046875 14.535156 21.199219 3.003907 49.429688 5.25 83.765625 5.207032 36.148438-.03125 64.257813-2.953125 86.472657-6.144532 33.675781-4.628906 51.792968-13.238281 54.550781-15.402343zm0 0" fill="#ff0" fill-rule="evenodd"/><path d="m550.734375 261.179688c-1.230469 1.96875-24.570313 10.019531-58.953125 15.960937-23.316406 3.554687-53.726562 6.589844-91.675781 6.632813-36.058594.03125-65.511719-2.53125-87.808594-5.558594-36.09375-5.65625-54.71875-13.535156-61.605469-16.316406.660156-1.3125 1.082032-2.222657 1.71875-3.449219 19.824219 7.890625 38.539063 12.652343 60.464844 16.03125 22.148438 2.996093 51.242188 5.597656 87.125 5.566406 37.769531-.042969 67.847656-3.304687 91.023438-6.753906 35.261718-5.691407 54.515624-13.003907 57.226562-16.40625l2.488281 4.292969zm0 0" fill="none" stroke="#000" stroke-width=".955267"/><path d="m543.96875 248.480469c-3.824219 3.066406-22.867188 9.820312-56.371094 15.167969-22.355468 3.207031-50.78125 6.078124-87.101562 6.109374-34.511719.035157-62.703125-2.292968-84.144532-5.410156-34.027343-4.445312-52.136718-12.460937-58.660156-14.804687.648438-1.121094 1.308594-2.226563 1.992188-3.351563 5.078125 2.554688 22.550781 9.652344 57.039062 14.535156 21.199219 3.011719 49.441406 5.25 83.773438 5.214844 36.148437-.039062 64.25-2.960937 86.464844-6.152344 33.675781-4.628906 51.800781-13.238281 54.550781-15.394531zm0 0" fill="none" stroke="#000" stroke-width=".955267"/><path d="m234.796875 342.765625c31 16.675781 99.847656 25.070313 164.992187 25.652344 59.316407.097656 136.597657-9.164063 165.496094-24.480469l-.792968-16.691406c-9.039063 14.125-91.859376 27.683594-165.347657 27.132812-73.484375-.554687-141.730469-11.90625-164.476562-26.605468zm0 0" fill="#ff0" fill-rule="evenodd"/><path d="m566.871094 340.363281v3.988281c-4.347656 5.183594-31.578125 13.039063-65.730469 18.5625-25.996094 3.988282-59.878906 6.992188-102.101563 6.992188-40.121093 0-72.101562-2.855469-96.914062-6.667969-39.210938-5.710937-64.300781-15.714843-69.335938-18.691406l.023438-4.636719c15.128906 10.046875 56.105469 17.40625 69.863281 19.652344 24.644531 3.792969 56.445313 6.625 96.363281 6.625 42.027344 0 75.726563-2.988281 101.546876-6.941406 24.503906-3.542969 59.40625-12.746094 66.285156-18.875zm.015625-14.152343v3.980468c-4.34375 5.191406-31.578125 13.046875-65.730469 18.570313-25.992188 3.988281-59.882812 6.992187-102.101562 6.992187-40.109376 0-72.101563-2.855468-96.914063-6.671875-39.210937-5.707031-64.300781-15.707031-69.335937-18.695312l.023437-4.640625c15.128906 10.0625 56.105469 17.417968 69.867187 19.664062 24.640626 3.785156 56.445313 6.625 96.359376 6.625 42.027343 0 75.71875-2.988281 101.546874-6.949218 24.503907-3.542969 59.410157-12.746094 66.285157-18.875zm0 0" fill="#ff0" fill-rule="evenodd"/><path d="m566.871094 340.363281v3.980469c-4.347656 5.191406-31.578125 13.046875-65.730469 18.570312-25.996094 3.988282-59.878906 6.992188-102.101563 6.992188-40.121093 0-72.109374-2.855469-96.914062-6.667969-39.21875-5.710937-64.300781-15.714843-69.335938-18.699219l.023438-4.640624c15.121094 10.058593 56.105469 17.417968 69.863281 19.664062 24.644531 3.785156 56.445313 6.625 96.355469 6.625 42.035156 0 75.726562-2.988281 101.554688-6.941406 24.503906-3.542969 59.40625-12.746094 66.277343-18.875h.007813zm0 0" fill="none" stroke="#000" stroke-width=".9547"/><path d="m566.886719 326.210938v3.980468c-4.34375 5.191406-31.578125 13.039063-65.730469 18.5625-25.992188 3.988282-59.882812 6.992188-102.101562 6.992188-40.121094 0-72.109376-2.855469-96.914063-6.664063-39.21875-5.707031-64.300781-15.707031-69.335937-18.695312l.023437-4.640625c15.121094 10.054687 56.105469 17.410156 69.867187 19.65625 24.640626 3.792968 56.445313 6.632812 96.351563 6.632812 42.035156 0 75.726563-2.988281 101.554687-6.949218 24.503907-3.542969 59.410157-12.746094 66.277344-18.875zm0 0" fill="none" stroke="#000" stroke-width=".9547"/><path d="m399.648438 433.871094c-71.289063-.429688-132.363282-19.433594-145.261719-22.574219l9.398437 14.71875c22.789063 9.589844 82.375 23.871094 136.546875 22.285156 54.175781-1.578125 101.515625-5.773437 134.878907-22.015625l9.644531-15.257812c-22.738281 10.710937-100.113281 22.730468-145.207031 22.84375zm0 0" fill="#ff0" fill-rule="evenodd"/><path d="m538.835938 422.867188c-1.417969 2.167968-2.863282 4.296874-4.332032 6.378906-15.738281 5.550781-40.535156 11.371094-50.992187 13.070312-21.371094 4.414063-54.441407 7.660156-83.789063 7.675782-63.148437-.917969-114.84375-13.289063-139.160156-23.835938l-1.960938-3.367188.316407-.507812 3.328125 1.285156c43.246094 15.472656 91.824218 21.640625 137.828125 22.753906 29.230469.105469 58.496093-3.351562 82.152343-7.582031 36.289063-7.269531 50.960938-12.746093 55.460938-15.234375l1.148438-.644531zm8.355468-13.792969c.042969.039062.074219.082031.113282.128906-1.066407 1.78125-2.15625 3.605469-3.269532 5.4375-8.398437 3.003906-31.175781 9.667969-64.4375 14.3125-21.914062 2.988281-35.53125 5.878906-79.125 6.722656-81.699218-2.074219-134.585937-18.046875-147.152344-21.988281l-1.863281-3.574219c47.347657 12.363281 95.703125 20.992188 149.015625 21.871094 39.882813-.847656 56.851563-3.785156 78.578125-6.75 38.785157-6.027344 58.328125-12.417969 64.195313-14.253906-.074219-.109375-.164063-.222657-.253906-.335938zm0 0" fill="#ff0" fill-rule="evenodd"/><path d="m538.835938 422.867188c-1.417969 2.167968-2.863282 4.304687-4.332032 6.378906-15.738281 5.550781-40.527344 11.378906-50.992187 13.078125-21.378907 4.40625-54.441407 7.652343-83.789063 7.667969-63.148437-.917969-114.84375-13.28125-139.160156-23.828126l-1.960938-3.375.316407-.507812 3.328125 1.292969c43.246094 15.472656 91.824218 21.640625 137.828125 22.746093 29.230469.105469 58.496093-3.34375 82.152343-7.574218 36.289063-7.277344 50.960938-12.753906 55.460938-15.234375zm0 0" fill="none" stroke="#000" stroke-width=".916417"/><path d="m547.191406 409.074219c.042969.039062.074219.082031.113282.128906-1.058594 1.789063-2.15625 3.605469-3.269532 5.4375-8.390625 3.003906-31.167968 9.667969-64.429687 14.3125-21.914063 2.988281-35.539063 5.878906-79.132813 6.722656-81.6875-2.074219-134.585937-18.046875-147.152344-21.988281l-1.863281-3.574219c47.347657 12.363281 95.703125 20.992188 149.015625 21.871094 39.882813-.847656 56.851563-3.785156 78.585938-6.75 38.789062-6.027344 58.328125-12.417969 64.195312-14.253906-.074218-.109375-.164062-.222657-.261718-.335938l4.207031-1.570312zm0 0" fill="none" stroke="#000" stroke-width=".916417"/><path d="m548.046875 329.597656c.238281 46.898438-23.761719 88.980469-43.089844 107.542969-27.351562 26.261719-63.605469 43.15625-105.949219 43.9375-47.28125.871094-91.871093-29.957031-103.824218-43.496094-23.382813-26.472656-42.417969-60.09375-43.027344-105.40625 2.898438-51.179687 22.988281-86.828125 52.109375-111.277343 29.125-24.453126 67.910156-36.359376 100.203125-35.507813 37.261719.988281 80.792969 19.261719 110.871094 55.550781 19.703125 23.78125 28.238281 49.585938 32.707031 88.65625zm-148.640625-160.570312c90.8125 0 165.492188 73.898437 165.492188 164.511718 0 90.605469-74.679688 164.5-165.492188 164.5-90.804688 0-164.878906-73.894531-164.878906-164.5 0-90.613281 74.074218-164.511718 164.878906-164.511718zm0 0" fill="#ff0" fill-rule="evenodd"/><path d="m399.855469 168.464844c90.882812 0 165.011719 74.136718 165.011719 165.039062 0 90.894532-74.128907 165.03125-165.011719 165.03125-90.894531 0-165.023438-74.136718-165.023438-165.03125 0-90.902344 74.128907-165.039062 165.023438-165.039062zm0 0" fill="none" stroke="#000" stroke-width=".9547"/><path d="m399.855469 172.09375c88.492187 0 161.382812 72.640625 161.382812 161.410156 0 88.769532-72.890625 161.402344-161.382812 161.402344-88.496094 0-161.394531-72.632812-161.394531-161.402344 0-88.769531 72.898437-161.410156 161.394531-161.410156zm0 0" fill="none" stroke="#000" stroke-width=".9547"/><path d="m399.984375 182.183594c82.882813 0 151.15625 68.035156 151.15625 151.175781 0 83.136719-68.273437 151.167969-151.15625 151.167969-82.886719 0-151.15625-68.03125-151.15625-151.167969 0-83.140625 68.269531-151.175781 151.15625-151.175781zm0 0" fill="none" stroke="#000" stroke-width=".9547"/><path d="m399.984375 185.816406c80.890625 0 147.527344 66.394532 147.527344 147.542969 0 81.132813-66.636719 147.53125-147.527344 147.53125-80.894531 0-147.527344-66.398437-147.527344-147.53125 0-81.148437 66.632813-147.542969 147.527344-147.542969zm0 0" fill="none" stroke="#000" stroke-width=".9547"/><path d="m405.199219 165.886719v1.820312h-10.414063v-1.773437h-3.597656v335.367187h3.597656v-1.5625h10.464844v1.621094h3.597656l-.050781-335.472656zm0 0" fill="#ff0" fill-rule="evenodd"/><path d="m395.035156 167.796875h10.027344" fill="none" stroke="#000" stroke-width=".9547"/><path d="m395.050781 499.398438h10.078125" fill="none" stroke="#000" stroke-width=".9547"/><path d="m405.214844 165.910156h3.597656l.035156 335.417969h-3.605468zm0 0" fill="none" stroke="#000" stroke-width=".954933"/><path d="m391.179688 165.910156h3.628906l.007812 335.417969h-3.628906v-335.417969zm0 0" fill="none" stroke="#000" stroke-width=".954933"/><path d="m234.238281 326.464844c20.683594-19.050782 97.035157-31.40625 164.785157-31.078125 67.742187.316406 147.964843 14.230469 165.414062 30.671875l.179688 14.207031c-14.617188-13.746094-76.945313-30.144531-165.464844-30.320313-88.515625-.1875-152.78125 16.660157-164.921875 30.695313zm0 0" fill="#ff0" fill-rule="evenodd"/><path d="m234.195312 327.132812v12.261719" fill="none" stroke="#000" stroke-width=".95405"/><path d="m564.980469 327.636719v12.253906" fill="none" stroke="#000" stroke-width=".95405"/><path d="m399.917969 307.949219c38.972656-.070313 76.78125 3.695312 106.773437 9.53125 30.945313 6.191406 52.730469 13.933593 60.171875 22.625l-.007812 4.292969c-8.976563-10.804688-38.289063-18.738282-60.867188-23.269532-29.757812-5.796875-67.316406-9.53125-106.070312-9.457031-40.902344.070313-78.976563 3.953125-108.308594 9.664063-23.535156 4.671874-54.925781 13.957031-58.839844 23.105468v-4.484375c2.152344-6.328125 25.523438-15.804687 58.3125-22.363281 29.539063-5.761719 67.699219-9.5625 108.835938-9.644531zm.015625-14.152344c38.976562-.070313 76.78125 3.695313 106.773437 9.53125 30.945313 6.191406 52.734375 13.933594 60.171875 22.625l-.007812 4.296875c-8.976563-10.816406-38.28125-18.742188-60.855469-23.273438-29.769531-5.796874-67.328125-9.53125-106.082031-9.457031-40.898438.070313-78.796875 3.945313-108.128906 9.664063-22.703126 4.308594-55.378907 13.953125-59.015626 23.097656v-4.476562c2.148438-6.265626 25.992188-16.070313 58.308594-22.363282 29.546875-5.761718 67.699219-9.570312 108.835938-9.644531zm0 0" fill="#ff0" fill-rule="evenodd"/><path d="m399.917969 307.949219c38.972656-.070313 76.78125 3.695312 106.773437 9.53125 30.945313 6.183593 52.730469 13.921875 60.179688 22.625l-.007813 4.292969c-8.984375-10.8125-38.289062-18.738282-60.867187-23.269532-29.765625-5.796875-67.324219-9.53125-106.078125-9.457031-40.902344.070313-78.976563 3.945313-108.308594 9.664063-23.535156 4.671874-54.914063 13.953124-58.839844 23.097656v-4.476563c2.160157-6.339843 25.523438-15.804687 58.3125-22.363281 29.546875-5.761719 67.699219-9.570312 108.835938-9.644531zm0 0" fill="none" stroke="#000" stroke-width=".9547"/><path d="m399.933594 293.796875c38.976562-.070313 76.78125 3.695313 106.773437 9.53125 30.945313 6.191406 52.734375 13.925781 60.179688 22.617187l-.007813 4.304688c-8.984375-10.816406-38.289062-18.742188-60.863281-23.273438-29.769531-5.796874-67.328125-9.53125-106.082031-9.457031-40.898438.070313-78.792969 3.945313-108.128906 9.664063-22.703126 4.308594-55.371094 13.953125-59.015626 23.105468v-4.484374c2.148438-6.265626 25.992188-16.070313 58.308594-22.363282 29.546875-5.761718 67.699219-9.570312 108.835938-9.644531zm0 0" fill="none" stroke="#000" stroke-width=".9547"/><path d="m399.136719 221.597656c61.410156-.308594 114.980469 8.585938 139.484375 21.144532l8.945312 15.460937c-21.304687-11.472656-79.09375-23.414063-148.339844-21.628906-56.429687.347656-116.714843 6.214843-146.964843 22.351562l10.679687-17.84375c24.820313-12.875 83.363282-19.410156 136.195313-19.476562zm0 0" fill="#ff0" fill-rule="evenodd"/><path d="m540.183594 245.246094 6.082031 9.773437" fill="none" stroke="#000" stroke-width=".956817"/><path d="m399.953125 234.367188c35.023437-.097657 68.871094 1.878906 95.789063 6.738281 25.074218 4.664062 48.976562 11.667969 52.394531 15.4375l2.652343 4.679687c-8.316406-5.429687-29.003906-11.464844-55.566406-16.503906-26.683594-5.011719-60.507812-6.671875-95.335937-6.582031-39.535157-.140625-70.253907 1.941406-96.617188 6.539062-27.878906 5.21875-47.222656 12.671875-51.992187 16.214844l2.59375-4.949219c9.273437-4.730468 23.984375-10.433594 48.707031-14.886718 27.261719-4.980469 58.304687-6.476563 97.375-6.6875zm-.019531-14.136719c33.523437-.089844 66.617187 1.773437 92.425781 6.414062 20.34375 3.960938 40.46875 10.148438 47.835937 15.648438l3.871094 6.160156c-6.582031-7.324219-31.386718-14.265625-53.289062-18.15625-25.601563-4.410156-57.320313-6.160156-90.84375-6.4375-35.179688.089844-67.691406 2.246094-92.917969 6.84375-24.074219 4.585937-39.601563 10.003906-46.175781 14.234375l3.410156-5.140625c9.066406-4.777344 23.722656-9.15625 42.171875-12.746094 25.414063-4.621093 58.128906-6.730469 93.511719-6.820312zm0 0" fill="#ff0" fill-rule="evenodd"/><path d="m399.953125 234.367188c35.023437-.089844 68.871094 1.878906 95.789063 6.738281 25.066406 4.664062 48.976562 11.667969 52.394531 15.4375l2.652343 4.679687c-8.316406-5.429687-29.003906-11.476562-55.566406-16.511718-26.675781-5.011719-60.496094-6.671876-95.335937-6.582032-39.535157-.132812-70.246094 1.949219-96.617188 6.546875-27.878906 5.21875-47.222656 12.671875-51.992187 16.214844l2.59375-4.949219c9.277344-4.738281 23.984375-10.433594 48.707031-14.886718 27.261719-4.980469 58.3125-6.476563 97.375-6.6875zm0 0" fill="none" stroke="#000" stroke-width=".955267"/><path d="m399.933594 220.222656c33.523437-.082031 66.617187 1.78125 92.425781 6.421875 20.34375 3.960938 40.46875 10.148438 47.835937 15.648438l3.871094 6.160156c-6.582031-7.324219-31.386718-14.265625-53.289062-18.15625-25.601563-4.417969-57.320313-6.160156-90.84375-6.445313-35.179688.097657-67.691406 2.253907-92.917969 6.851563-24.074219 4.585937-39.601563 10.003906-46.175781 14.234375l3.410156-5.140625c9.074219-4.777344 23.722656-9.15625 42.171875-12.746094 25.414063-4.628906 58.128906-6.730469 93.511719-6.828125zm0 0" fill="none" stroke="#000" stroke-width=".955267"/><path d="m481.917969 402.101562c-30.363281-5.667968-60.78125-6.496093-82.03125-6.242187-102.34375 1.203125-135.402344 21.011719-139.4375 27.015625l-7.648438-12.464844c26.058594-18.890625 81.785157-29.484375 147.640625-28.402344 34.195313.5625 63.710938 2.832032 88.53125 7.640626zm0 0" fill="#ff0" fill-rule="evenodd"/><path d="m254.5 412.132812 5.019531 8.644532" fill="none" stroke="#000" stroke-width=".9547"/><path d="m399.300781 394.101562c28.464844.421876 56.410157 1.601563 83.390625 6.632813l-1.953125 3.449219c-25.058593-4.632813-51.757812-6.394532-81.339843-6.257813-37.769532-.292969-75.976563 3.238281-109.238282 12.785157-10.496094 2.910156-27.863281 9.667968-29.636718 15.242187l-1.945313-3.207031c.5625-3.296875 11.058594-10.132813 30.6875-15.648438 38.09375-10.914062 73.730469-12.753906 110.035156-12.996094zm1.292969-14.332031c29.492188.554688 59.953125 1.921875 89.566406 7.785157l-2.03125 3.589843c-26.734375-5.304687-52.289062-7.078125-87.363281-7.617187-37.890625.066406-78.085937 2.769531-114.625 13.394531-11.800781 3.4375-32.160156 10.867187-32.84375 16.75l-1.945313-3.441406c.445313-5.347657 18.074219-12.3125 33.9375-16.929688 36.820313-10.707031 77.121094-13.460937 115.304688-13.53125zm0 0" fill="#ff0" fill-rule="evenodd"/><path d="m399.300781 394.101562c28.464844.421876 56.410157 1.601563 83.390625 6.632813l-1.953125 3.449219c-25.058593-4.632813-51.757812-6.394532-81.339843-6.25-37.777344-.300782-75.976563 3.230468-109.238282 12.777344-10.496094 2.921874-27.863281 9.667968-29.636718 15.242187l-1.945313-3.207031c.5625-3.296875 11.058594-10.132813 30.6875-15.648438 38.101563-10.914062 73.730469-12.753906 110.035156-12.996094zm0 0" fill="none" stroke="#000" stroke-width=".916417"/><path d="m400.59375 379.769531c29.492188.554688 59.953125 1.921875 89.566406 7.785157l-2.03125 3.589843c-26.742187-5.3125-52.289062-7.078125-87.363281-7.617187-37.890625.066406-78.085937 2.769531-114.632813 13.394531-11.792968 3.4375-32.160156 10.867187-32.835937 16.75l-1.945313-3.441406c.445313-5.347657 18.074219-12.3125 33.9375-16.929688 36.820313-10.707031 77.121094-13.460937 115.304688-13.53125zm0 0" fill="none" stroke="#000" stroke-width=".916417"/><path d="m261.5 240.867188c50.699219-.65625 284.847656 143.085937 285.527344 169.550781l-14.5 22.230469c-6.550782-30.726563-244.132813-170.613282-283.332032-167.96875l12.296876-23.8125zm0 0" fill="#ff0" fill-rule="evenodd"/><path d="m545.960938 412.296875-12.292969 19.082031" fill="none" stroke="#000" stroke-width=".954967"/><path d="m261.117188 242.113281-11.433594 21.203125" fill="none" stroke="#000" stroke-width=".954967"/><path d="m247.753906 263.835938c9.410156-6.382813 78.566406 24.421874 150.917969 68.050781 72.167969 43.757812 141.128906 93.203125 134.90625 102.453125l-2.042969 3.226562-.945312.738282c.203125-.144532 1.238281-1.40625-.097656-4.84375-3.074219-10.113282-51.992188-49.152344-133.160157-98.160157-79.128906-47.183593-145.070312-75.617187-151.660156-67.484375l2.082031-3.980468h-.007812zm300.730469 148.207031c5.949219-11.75-58.191406-60.074219-137.71875-107.121094-81.355469-46.109375-139.988281-73.25-150.699219-65.160156l-2.382812 4.328125c-.015625.246094.085937-.292969.585937-.679688 1.953125-1.703125 5.175781-1.589844 6.628907-1.613281 18.453124.277344 71.121093 24.511719 145.015624 66.878906 32.378907 18.863281 136.78125 85.820313 136.382813 104.648438.03125 1.617187.136719 1.949219-.472656 2.75l2.65625-4.039063zm0 0" fill="#ff0" fill-rule="evenodd"/><path d="m247.753906 263.820312c9.410156-6.382812 78.566406 24.417969 150.917969 68.058594 72.167969 43.75 141.128906 93.195313 134.90625 102.449219l-2.042969 3.21875-.945312.742187c.203125-.144531 1.238281-1.417968-.097656-4.839843-3.074219-10.117188-51.992188-49.15625-133.160157-98.160157-79.128906-47.179687-145.070312-75.621093-151.660156-67.492187l2.082031-3.976563h-.007812zm0 0" fill="none" stroke="#000" stroke-width=".955"/><path d="m548.484375 412.027344c5.949219-11.75-58.191406-60.074219-137.71875-107.121094-81.355469-46.109375-139.988281-73.25-150.699219-65.160156l-2.382812 4.335937c-.015625.238281.085937-.296875.59375-.683593 1.945312-1.699219 5.175781-1.585938 6.632812-1.609376 18.441406.277344 71.109375 24.511719 145.003906 66.878907 32.378907 18.855469 136.789063 85.816406 136.390626 104.648437.023437 1.617188.128906 1.949219-.480469 2.757813zm0 0" fill="none" stroke="#000" stroke-width=".955"/><path d="m301 351.683594c0 27.117187 11.101562 51.644531 29.09375 69.574218 18.027344 17.957032 42.519531 29.296876 69.6875 29.296876 27.300781 0 52.074219-11.09375 70.027344-28.980469 17.945312-17.894531 29.070312-42.585938 29.078125-69.800781h-.007813v-131.980469l-197.902344-.238281zm0 0" fill="#fff" fill-rule="evenodd"/><path d="m301 351.683594c0 27.117187 11.101562 51.644531 29.09375 69.574218 18.027344 17.957032 42.519531 29.296876 69.6875 29.296876 27.292969 0 52.074219-11.09375 70.019531-28.980469 17.953125-17.894531 29.078125-42.59375 29.078125-69.808594v-131.972656l-197.902344-.238281zm0 0" fill="none" stroke="#000" stroke-width="1.117283"/><path d="m304.703125 351.863281v.082031c0 25.925782 10.734375 49.535157 27.957031 66.675782 17.257813 17.179687 41.019532 27.855468 67.023438 27.855468 26.132812 0 49.851562-10.605468 67.03125-27.710937 17.1875-17.105469 27.832031-40.722656 27.832031-66.738281v-128.042969l-189.738281-.035156-.113282 127.914062zm151.691406-89.574219.007813 81.476563-.0625 8.625c0 2.273437-.136719 4.851563-.398438 7.058594-1.546875 12.882812-7.46875 24.101562-16.242187 32.84375-10.273438 10.230469-24.457031 16.570312-40.082031 16.570312-15.542969 0-29.394532-6.566406-39.714844-16.839843-10.578125-10.53125-16.714844-24.964844-16.714844-39.90625l-.023438-90.039063 113.238282.203125zm0 0" fill="#f00" fill-rule="evenodd"/><path d="m304.703125 351.863281v.082031c0 25.925782 10.734375 49.535157 27.957031 66.675782 17.257813 17.179687 41.019532 27.855468 67.023438 27.855468 26.132812 0 49.851562-10.605468 67.03125-27.710937 17.179687-17.105469 27.832031-40.722656 27.832031-66.738281v-128.042969l-189.738281-.035156-.113282 127.914062" fill="none" stroke="#000" stroke-width=".845567"/><path d="m456.394531 262.289062.007813 81.484376-.0625 8.617187c0 2.273437-.136719 4.851563-.398438 7.058594-1.546875 12.882812-7.46875 24.109375-16.242187 32.84375-10.273438 10.230469-24.457031 16.570312-40.082031 16.570312-15.542969 0-29.394532-6.5625-39.714844-16.828125-10.585938-10.542968-16.714844-24.984375-16.714844-39.917968l-.023438-90.039063 113.230469.203125.007813.007812zm0 0" fill="none" stroke="#000" stroke-width=".845567"/><path d="m387.726562 337.347656v.007813c0 3.683593 1.417969 7.042969 3.6875 9.476562 2.269532 2.441407 5.40625 3.964844 8.839844 3.964844 3.441406 0 6.566406-1.503906 8.835938-3.9375 2.261718-2.433594 3.671875-5.792969 3.671875-9.488281v-17.953125l-24.992188-.019531zm0 0" fill="#039" fill-rule="evenodd"/><path d="m387.605469 380.316406v.007813c0 3.683593 1.414062 7.046875 3.6875 9.484375 2.269531 2.445312 5.402343 3.957031 8.835937 3.957031 3.445313 0 6.570313-1.503906 8.839844-3.9375 2.261719-2.433594 3.667969-5.785156 3.667969-9.492187v-17.941407l-24.992188-.023437zm0 0" fill="#039" fill-rule="evenodd"/><path d="m353.058594 337.425781v.007813c0 3.6875 1.417968 7.050781 3.6875 9.484375 2.277344 2.445312 5.414062 3.960937 8.835937 3.960937 3.445313 0 6.578125-1.507812 8.839844-3.9375 2.261719-2.433594 3.667969-5.789062 3.667969-9.488281v-17.945313l-24.980469-.023437zm0 0" fill="#039" fill-rule="evenodd"/><path d="m422.296875 337.410156v.007813c0 3.6875 1.417969 7.046875 3.6875 9.480469 2.277344 2.453124 5.410156 3.964843 8.839844 3.964843 3.449219 0 6.574219-1.507812 8.835937-3.941406 2.261719-2.433594 3.671875-5.785156 3.671875-9.488281v-17.945313l-24.984375-.023437zm0 0" fill="#039" fill-rule="evenodd"/><path d="m387.71875 293.984375v.007813c0 3.6875 1.417969 7.042968 3.6875 9.484374 2.269531 2.441407 5.402344 3.960938 8.828125 3.960938 3.453125 0 6.578125-1.503906 8.839844-3.945312 2.269531-2.425782 3.667969-5.789063 3.667969-9.488282v-17.945312l-24.980469-.015625zm0 0" fill="#039" fill-rule="evenodd"/><path d="m335.914062 235.929688.21875 5.800781h-6.875l.195313-5.792969h6.460937zm0 0" fill="#ff0" fill-rule="evenodd"/><path d="m316.984375 257.382812c.226563-9.199218 6.753906-11.378906 6.804687-11.410156.039063-.03125 7.046876 2.34375 7.019532 11.5zm0 0" fill="#ff0" fill-rule="evenodd"/><path d="m311.351562 246.136719-1.140624 10.578125 6.902343.007812c.066407-8.75 6.625-10.199218 6.789063-10.164062.144531-.007813 6.648437 1.925781 6.820312 10.164062h6.914063l-1.25-10.652344zm0 0" fill="#ff0" fill-rule="evenodd"/><path d="m311.351562 246.148438-1.140624 10.574218 6.902343.015625c.066407-8.75 6.625-10.203125 6.78125-10.171875.152344-.007812 6.648438 1.9375 6.828125 10.171875h6.914063l-1.25-10.652343zm0 0" fill="none" stroke="#000" stroke-width=".832267"/><path d="m309.75 256.761719h28.246094c.59375 0 1.074218.59375 1.074218 1.3125 0 .714843-.480468 1.300781-1.074218 1.300781h-28.246094c-.59375 0-1.082031-.585938-1.082031-1.300781 0-.71875.488281-1.3125 1.082031-1.3125zm0 0" fill="#ff0" fill-rule="evenodd"/><path d="m309.75 256.761719h28.246094c.59375 0 1.082031.59375 1.082031 1.3125 0 .714843-.488281 1.300781-1.082031 1.300781h-28.246094c-.59375 0-1.082031-.585938-1.082031-1.300781 0-.71875.488281-1.3125 1.082031-1.3125zm0 0" fill="none" stroke="#000" stroke-width=".832383"/><path d="m320.019531 256.714844c.023438-5.519532 3.769531-7.082032 3.785157-7.082032 0 0 3.90625 1.613282 3.9375 7.082032zm0 0" fill="#ff0" fill-rule="evenodd"/><path d="m320.019531 256.714844c.023438-5.519532 3.769531-7.082032 3.785157-7.082032 0 0 3.90625 1.613282 3.9375 7.082032z" fill="none" stroke="#000" stroke-width=".828383"/><path d="m310.351562 241.765625h27.074219c.570313 0 1.035157.527344 1.035157 1.179687 0 .640626-.464844 1.171876-1.035157 1.171876h-27.074219c-.570312 0-1.042968-.53125-1.042968-1.171876 0-.652343.472656-1.179687 1.042968-1.179687zm0 0" fill="#ff0" fill-rule="evenodd"/><path d="m310.351562 241.746094h27.074219c.570313 0 1.035157.53125 1.035157 1.179687 0 .644531-.464844 1.175781-1.035157 1.175781h-27.074219c-.570312 0-1.042968-.53125-1.042968-1.175781 0-.648437.472656-1.179687 1.042968-1.179687zm0 0" fill="none" stroke="#000" stroke-width=".831683"/><path d="m310.914062 244.117188h25.902344c.546875 0 .992188.527343.992188 1.171874 0 .652344-.445313 1.179688-.992188 1.179688h-25.902344c-.546874 0-.984374-.527344-.984374-1.179688 0-.644531.4375-1.171874.984374-1.171874zm0 0" fill="#ff0" fill-rule="evenodd" stroke="#000" stroke-width=".831683"/><path d="m319.386719 226.464844h1.992187v1.457031h1.464844v-1.488281l2.050781.007812v1.480469h1.464844v-1.488281l2.050781.007812-.007812 3.351563c0 .523437-.414063.863281-.886719.863281h-7.203125c-.480469 0-.925781-.390625-.925781-.878906zm0 0" fill="#ff0" fill-rule="evenodd"/><path d="m319.289062 226.464844 2.039063.007812v1.449219h1.492187v-1.480469h2.089844v1.480469h1.5v-1.480469h2.097656l-.007812 3.351563c0 .523437-.421875.863281-.914062.863281h-7.347657c-.496093 0-.949219-.390625-.949219-.878906l-.011718-3.3125zm0 0" fill="none" stroke="#000" stroke-width=".83375"/><path d="m326.984375 230.949219.457031 10.757812-7.171875-.03125.484375-10.75zm0 0" fill="#ff0" fill-rule="evenodd"/><path d="m326.984375 230.949219.457031 10.75-7.171875-.023438.484375-10.75z" fill="none" stroke="#000" stroke-width=".831633"/><path d="m328.179688 231.730469 2.003906.007812v1.449219h1.457031v-1.480469l2.050781.007813v1.472656h1.464844v-1.480469h2.050781v3.351563c0 .527344-.414062.871094-.894531.871094h-7.195312c-.488282 0-.9375-.398438-.9375-.878907zm0 0" fill="#ff0" fill-rule="evenodd"/><path d="m335.914062 235.929688.21875 5.800781h-6.875l.195313-5.792969h6.460937zm0 0" fill="none" stroke="#000" stroke-width=".835467"/><path d="m328.179688 231.714844 2.003906.007812v1.449219h1.457031v-1.480469l2.050781.007813v1.480469h1.464844v-1.488282h2.050781v3.351563c0 .519531-.414062.859375-.894531.859375h-7.195312c-.480469 0-.9375-.386719-.9375-.867188zm0 0" fill="none" stroke="#000" stroke-width=".833617"/><path d="m310.496094 231.730469 2.003906.007812v1.449219h1.464844v-1.480469l2.042968.007813v1.472656h1.464844v-1.480469h2.050782v3.351563c0 .527344-.414063.871094-.894532.871094h-7.195312c-.480469 0-.925782-.398438-.925782-.878907l-.011718-3.3125zm0 0" fill="#ff0" fill-rule="evenodd"/><path d="m310.496094 231.730469 2.003906.007812v1.457031h1.464844v-1.488281l2.042968.007813v1.480468h1.464844v-1.488281h2.050782v3.351563c0 .527344-.414063.871094-.894532.871094h-7.195312c-.480469 0-.925782-.398438-.925782-.878907l-.011718-3.3125zm0 0" fill="none" stroke="#000" stroke-width=".833617"/><path d="m318.238281 235.929688.210938 5.800781h-6.875l.191406-5.792969h6.472656zm0 0" fill="#ff0" fill-rule="evenodd"/><path d="m318.238281 235.929688.210938 5.800781h-6.867188l.183594-5.792969h6.472656-.007812zm0 0" fill="none" stroke="#000" stroke-width=".835467"/><path d="m323.167969 234.351562c-.046875-1.042968 1.457031-1.058593 1.441406 0v2.5625h-1.441406zm0 0" fill-rule="evenodd"/><path d="m332.015625 238.070312c0-1.011718 1.398437-1.035156 1.382813 0v1.976563h-1.382813zm0 0" fill-rule="evenodd"/><path d="m314.28125 238.070312c0-1.011718 1.398438-1.035156 1.378906 0v1.976563h-1.378906zm0 0" fill-rule="evenodd"/><path d="m412.101562 235.929688.21875 5.800781h-6.875l.195313-5.792969h6.460937zm0 0" fill="#ff0" fill-rule="evenodd"/><path d="m393.171875 257.382812c.226563-9.199218 6.753906-11.378906 6.804687-11.410156.046876-.03125 7.046876 2.34375 7.03125 11.5zm0 0" fill="#ff0" fill-rule="evenodd"/><path d="m387.542969 246.136719-1.140625 10.578125 6.898437.007812c.066407-8.75 6.625-10.199218 6.789063-10.164062.144531-.007813 6.648437 1.925781 6.820312 10.164062h6.917969l-1.253906-10.652344zm0 0" fill="#ff0" fill-rule="evenodd"/><path d="m387.542969 246.148438-1.140625 10.574218 6.898437.015625c.066407-8.75 6.625-10.203125 6.789063-10.171875.144531-.007812 6.648437 1.9375 6.820312 10.171875h6.917969l-1.253906-10.652343zm0 0" fill="none" stroke="#000" stroke-width=".832267"/><path d="m385.9375 256.761719h28.246094c.59375 0 1.082031.59375 1.082031 1.3125 0 .714843-.488281 1.300781-1.082031 1.300781h-28.246094c-.59375 0-1.082031-.585938-1.082031-1.300781 0-.71875.488281-1.3125 1.082031-1.3125zm0 0" fill="#ff0" fill-rule="evenodd" stroke="#000" stroke-width=".832383"/><path d="m396.207031 256.714844c.03125-5.519532 3.769531-7.082032 3.792969-7.082032 0 0 3.898438 1.613282 3.929688 7.082032zm0 0" fill="#ff0" fill-rule="evenodd"/><path d="m396.207031 256.714844c.03125-5.519532 3.769531-7.082032 3.792969-7.082032 0 0 3.898438 1.613282 3.929688 7.082032z" fill="none" stroke="#000" stroke-width=".828383"/><path d="m386.539062 241.765625h27.074219c.570313 0 1.042969.527344 1.042969 1.179687 0 .640626-.472656 1.171876-1.042969 1.171876h-27.074219c-.566406 0-1.03125-.53125-1.03125-1.171876 0-.652343.464844-1.179687 1.03125-1.179687zm0 0" fill="#ff0" fill-rule="evenodd"/><path d="m386.539062 241.746094h27.074219c.570313 0 1.042969.53125 1.042969 1.179687 0 .644531-.472656 1.175781-1.042969 1.175781h-27.074219c-.566406 0-1.03125-.53125-1.03125-1.175781 0-.648437.464844-1.179687 1.03125-1.179687zm0 0" fill="none" stroke="#000" stroke-width=".831683"/><path d="m387.109375 244.117188h25.894531c.546875 0 .992188.527343.992188 1.171874 0 .652344-.445313 1.179688-.992188 1.179688h-25.894531c-.542969 0-.992187-.527344-.992187-1.179688 0-.644531.449218-1.171874.992187-1.171874zm0 0" fill="#ff0" fill-rule="evenodd" stroke="#000" stroke-width=".831683"/><path d="m395.574219 226.464844h2v1.457031h1.457031v-1.488281l2.050781.007812v1.480469h1.464844v-1.488281l2.050781.007812v3.351563c0 .523437-.414062.863281-.894531.863281h-7.195313c-.488281 0-.933593-.390625-.933593-.878906zm0 0" fill="#ff0" fill-rule="evenodd"/><path d="m395.476562 226.464844 2.042969.007812v1.449219h1.488281v-1.480469h2.097657v1.480469h1.5v-1.480469h2.089843v3.351563c0 .523437-.421874.863281-.921874.863281h-7.347657c-.496093 0-.949219-.390625-.949219-.878906l-.011718-3.3125zm0 0" fill="none" stroke="#000" stroke-width=".83375"/><path d="m403.171875 230.949219.464844 10.757812-7.175781-.03125.480468-10.75zm0 0" fill="#ff0" fill-rule="evenodd"/><path d="m403.171875 230.949219.464844 10.75-7.175781-.023438.480468-10.75z" fill="none" stroke="#000" stroke-width=".831633"/><path d="m404.371094 231.730469 2 .007812v1.449219h1.457031v-1.480469l2.050781.007813v1.472656h1.464844v-1.480469h2.050781v3.351563c0 .527344-.414062.871094-.894531.871094h-7.195312c-.488282 0-.933594-.398438-.933594-.878907zm0 0" fill="#ff0" fill-rule="evenodd"/><path d="m412.101562 235.929688.21875 5.800781h-6.875l.195313-5.792969h6.46875-.007813zm0 0" fill="none" stroke="#000" stroke-width=".835467"/><path d="m404.371094 231.714844 2 .007812v1.449219h1.464844v-1.480469l2.042968.007813v1.480469h1.464844v-1.488282h2.050781v3.351563c0 .519531-.414062.859375-.894531.859375h-7.195312c-.480469 0-.925782-.386719-.925782-.867188zm0 0" fill="none" stroke="#000" stroke-width=".833617"/><path d="m386.683594 231.730469 2.003906.007812v1.449219h1.464844v-1.480469l2.050781.007813v1.472656h1.464844v-1.480469h2.050781l-.007812 3.351563c0 .527344-.414063.871094-.894532.871094h-7.195312c-.480469 0-.925782-.398438-.925782-.878907v-3.3125zm0 0" fill="#ff0" fill-rule="evenodd"/><path d="m386.683594 231.730469 2.003906.007812v1.457031h1.464844v-1.488281l2.050781.007813v1.480468h1.464844v-1.488281h2.050781l-.007812 3.351563c0 .527344-.414063.871094-.894532.871094h-7.195312c-.480469 0-.925782-.398438-.925782-.878907l-.011718-3.3125zm0 0" fill="none" stroke="#000" stroke-width=".833617"/><path d="m394.425781 235.929688.21875 5.800781h-6.875l.1875-5.792969h6.46875zm0 0" fill="#ff0" fill-rule="evenodd"/><path d="m394.425781 235.929688.21875 5.800781h-6.875l.195313-5.792969h6.460937zm0 0" fill="none" stroke="#000" stroke-width=".835467"/><path d="m399.355469 234.351562c-.039063-1.042968 1.460937-1.058593 1.441406 0v2.5625h-1.441406zm0 0" fill-rule="evenodd"/><path d="m408.210938 238.070312c-.007813-1.011718 1.390624-1.035156 1.375 0v1.976563h-1.375zm0 0" fill-rule="evenodd"/><path d="m390.472656 238.070312c0-1.011718 1.398438-1.035156 1.382813 0v1.976563h-1.382813zm0 0" fill-rule="evenodd"/><path d="m487.445312 235.929688.21875 5.800781h-6.878906l.195313-5.792969h6.464843zm0 0" fill="#ff0" fill-rule="evenodd"/><path d="m468.515625 257.382812c.226563-9.199218 6.753906-11.378906 6.800781-11.410156.050782-.03125 7.046875 2.34375 7.03125 11.5zm0 0" fill="#ff0" fill-rule="evenodd"/><path d="m462.882812 246.136719-1.140624 10.578125 6.902343.007812c.0625-8.75 6.625-10.199218 6.785157-10.164062.148437-.007813 6.648437 1.925781 6.820312 10.164062h6.917969l-1.253907-10.652344zm0 0" fill="#ff0" fill-rule="evenodd"/><path d="m462.882812 246.148438-1.140624 10.574218 6.902343.015625c.0625-8.75 6.625-10.203125 6.785157-10.171875.148437-.007812 6.648437 1.9375 6.820312 10.171875h6.917969l-1.253907-10.652343zm0 0" fill="none" stroke="#000" stroke-width=".832267"/><path d="m461.277344 256.761719h28.25c.59375 0 1.082031.59375 1.082031 1.3125 0 .714843-.488281 1.300781-1.082031 1.300781h-28.25c-.59375 0-1.078125-.585938-1.078125-1.300781 0-.71875.484375-1.3125 1.078125-1.3125zm0 0" fill="#ff0" fill-rule="evenodd" stroke="#000" stroke-width=".832383"/><path d="m471.550781 256.714844c.03125-5.519532 3.765625-7.082032 3.78125-7.082032.007813 0 3.90625 1.613282 3.941407 7.082032zm0 0" fill="#ff0" fill-rule="evenodd"/><path d="m471.550781 256.714844c.03125-5.519532 3.765625-7.082032 3.78125-7.082032.007813 0 3.90625 1.613282 3.941407 7.082032z" fill="none" stroke="#000" stroke-width=".828383"/><path d="m461.882812 241.765625h27.074219c.570313 0 1.039063.527344 1.039063 1.179687 0 .640626-.46875 1.171876-1.039063 1.171876h-27.074219c-.570312 0-1.035156-.53125-1.035156-1.171876 0-.652343.464844-1.179687 1.035156-1.179687zm0 0" fill="#ff0" fill-rule="evenodd"/><path d="m461.882812 241.746094h27.074219c.570313 0 1.039063.53125 1.039063 1.179687 0 .644531-.46875 1.175781-1.039063 1.175781h-27.074219c-.570312 0-1.035156-.53125-1.035156-1.175781 0-.648437.464844-1.179687 1.035156-1.179687zm0 0" fill="none" stroke="#000" stroke-width=".831683"/><path d="m462.453125 244.117188h25.894531c.542969 0 .992188.527343.992188 1.171874 0 .652344-.449219 1.179688-.992188 1.179688h-25.894531c-.546875 0-.996094-.527344-.996094-1.179688 0-.644531.449219-1.171874.996094-1.171874zm0 0" fill="#ff0" fill-rule="evenodd" stroke="#000" stroke-width=".831683"/><path d="m470.914062 226.464844h2.003907v1.457031h1.453125v-1.488281l2.054687.007812v1.480469h1.464844v-1.488281l2.050781.007812v3.351563c0 .523437-.417968.863281-.898437.863281h-7.191407c-.488281 0-.9375-.390625-.9375-.878906zm0 0" fill="#ff0" fill-rule="evenodd"/><path d="m470.816406 226.464844 2.042969.007812v1.449219h1.492187v-1.480469h2.097657v1.480469h1.496093v-1.480469h2.09375v3.351563c0 .523437-.425781.863281-.921874.863281h-7.347657c-.496093 0-.953125-.390625-.953125-.878906l-.007812-3.3125zm0 0" fill="none" stroke="#000" stroke-width=".83375"/><path d="m478.515625 230.949219.464844 10.757812-7.179688-.03125.480469-10.75zm0 0" fill="#ff0" fill-rule="evenodd"/><path d="m478.515625 230.949219.464844 10.75-7.179688-.023438.480469-10.75z" fill="none" stroke="#000" stroke-width=".831633"/><path d="m479.710938 231.730469 2.003906.007812v1.449219h1.457031v-1.480469l2.050781.007813v1.472656h1.460938v-1.480469h2.054687v3.351563c0 .527344-.414062.871094-.898437.871094h-7.191406c-.488282 0-.9375-.398438-.9375-.878907zm0 0" fill="#ff0" fill-rule="evenodd"/><path d="m487.445312 235.929688.21875 5.800781h-6.878906l.195313-5.792969h6.472656-.007813zm0 0" fill="none" stroke="#000" stroke-width=".835467"/><path d="m479.710938 231.714844 2.003906.007812v1.449219h1.464844v-1.480469l2.042968.007813v1.480469h1.460938v-1.488282h2.054687v3.351563c0 .519531-.414062.859375-.898437.859375h-7.191406c-.480469 0-.925782-.386719-.9375-.867188zm0 0" fill="none" stroke="#000" stroke-width=".833617"/><path d="m462.027344 231.730469 2 .007812v1.449219h1.46875v-1.480469l2.050781.007813v1.472656h1.464844v-1.480469h2.046875l-.007813 3.351563c0 .527344-.414062.871094-.890625.871094h-7.195312c-.480469 0-.929688-.398438-.929688-.878907v-3.3125zm0 0" fill="#ff0" fill-rule="evenodd"/><path d="m462.027344 231.730469 2 .007812v1.457031h1.46875v-1.488281l2.050781.007813v1.480468h1.464844v-1.488281h2.046875l-.007813 3.351563c0 .527344-.414062.871094-.890625.871094h-7.195312c-.480469 0-.929688-.398438-.929688-.878907l-.007812-3.3125zm0 0" fill="none" stroke="#000" stroke-width=".833617"/><path d="m469.765625 235.929688.222656 5.800781h-6.878906l.1875-5.792969h6.46875zm0 0" fill="#ff0" fill-rule="evenodd"/><path d="m469.765625 235.929688.222656 5.800781h-6.878906l.195313-5.792969h6.460937zm0 0" fill="none" stroke="#000" stroke-width=".835467"/><path d="m474.699219 234.351562c-.039063-1.042968 1.457031-1.058593 1.441406 0v2.5625h-1.441406zm0 0" fill-rule="evenodd"/><path d="m483.550781 238.070312c-.003906-1.011718 1.394531-1.035156 1.378907 0v1.976563h-1.378907zm0 0" fill-rule="evenodd"/><path d="m465.8125 238.070312c0-1.011718 1.398438-1.035156 1.382812 0v1.976563h-1.382812zm0 0" fill-rule="evenodd"/><path d="m335.914062 313.136719.21875 5.792969h-6.875l.195313-5.792969zm0 0" fill="#ff0" fill-rule="evenodd"/><path d="m316.984375 334.585938c.226563-9.203126 6.753906-11.382813 6.804687-11.417969.039063-.03125 7.046876 2.351562 7.019532 11.5zm0 0" fill="#ff0" fill-rule="evenodd"/><path d="m311.351562 323.332031-1.140624 10.578125 6.902343.015625c.066407-8.746093 6.625-10.203125 6.789063-10.171875.144531-.007812 6.648437 1.929688 6.820312 10.171875h6.914063l-1.25-10.660156zm0 0" fill="#ff0" fill-rule="evenodd"/><path d="m311.351562 323.347656-1.140624 10.578125 6.902343.007813c.066407-8.746094 6.625-10.195313 6.78125-10.164063.152344-.007812 6.648438 1.929688 6.828125 10.164063h6.914063l-1.25-10.648438zm0 0" fill="none" stroke="#000" stroke-width=".832267"/><path d="m309.75 333.96875h28.246094c.59375 0 1.074218.585938 1.074218 1.300781 0 .714844-.480468 1.304688-1.074218 1.304688h-28.246094c-.59375 0-1.082031-.582031-1.082031-1.304688 0-.714843.488281-1.300781 1.082031-1.300781zm0 0" fill="#ff0" fill-rule="evenodd"/><path d="m309.75 333.96875h28.246094c.59375 0 1.082031.585938 1.082031 1.300781 0 .722657-.488281 1.304688-1.082031 1.304688h-28.246094c-.59375 0-1.082031-.582031-1.082031-1.304688 0-.714843.488281-1.300781 1.082031-1.300781zm0 0" fill="none" stroke="#000" stroke-width=".832383"/><path d="m320.019531 333.917969c.023438-5.523438 3.769531-7.085938 3.785157-7.078125 0 0 3.90625 1.609375 3.9375 7.078125zm0 0" fill="#ff0" fill-rule="evenodd"/><path d="m320.019531 333.917969c.023438-5.523438 3.769531-7.085938 3.785157-7.078125 0 0 3.90625 1.609375 3.9375 7.078125z" fill="none" stroke="#000" stroke-width=".828383"/><path d="m310.351562 318.96875h27.074219c.570313 0 1.035157.519531 1.035157 1.171875 0 .644531-.464844 1.171875-1.035157 1.171875h-27.074219c-.570312 0-1.042968-.527344-1.042968-1.171875 0-.652344.472656-1.171875 1.042968-1.171875zm0 0" fill="#ff0" fill-rule="evenodd"/><path d="m310.351562 318.953125h27.074219c.570313 0 1.035157.53125 1.035157 1.171875 0 .644531-.464844 1.171875-1.035157 1.171875h-27.074219c-.570312 0-1.042968-.519531-1.042968-1.171875 0-.640625.472656-1.171875 1.042968-1.171875zm0 0" fill="none" stroke="#000" stroke-width=".831683"/><path d="m310.914062 321.3125h25.902344c.546875 0 .992188.527344.992188 1.179688 0 .644531-.445313 1.171874-.992188 1.171874h-25.902344c-.546874 0-.984374-.527343-.984374-1.171874 0-.652344.4375-1.179688.984374-1.179688zm0 0" fill="#ff0" fill-rule="evenodd" stroke="#000" stroke-width=".831683"/><path d="m319.386719 303.664062h1.992187v1.453126h1.464844v-1.488282l2.050781.007813v1.480469h1.464844v-1.480469h2.050781l-.007812 3.351562c0 .523438-.414063.867188-.886719.867188h-7.203125c-.480469 0-.925781-.394531-.925781-.878907zm0 0" fill="#ff0" fill-rule="evenodd"/><path d="m319.289062 303.671875h2.039063v1.445313h1.492187v-1.480469l2.089844.007812v1.484375h1.5v-1.492187h2.097656l-.007812 3.351562c0 .53125-.421875.871094-.914062.871094h-7.347657c-.496093 0-.949219-.398437-.949219-.875l-.011718-3.3125zm0 0" fill="none" stroke="#000" stroke-width=".83375"/><path d="m326.984375 308.144531.457031 10.757813-7.171875-.023438.484375-10.75 6.230469.023438zm0 0" fill="#ff0" fill-rule="evenodd"/><path d="m326.984375 308.144531.457031 10.757813-7.171875-.03125.484375-10.75z" fill="none" stroke="#000" stroke-width=".831633"/><path d="m328.179688 308.933594h2.003906v1.457031h1.457031v-1.488281l2.050781.007812v1.480469h1.464844v-1.488281l2.050781.007812v3.355469c0 .519531-.414062.863281-.894531.863281h-7.195312c-.488282 0-.9375-.394531-.9375-.882812zm0 0" fill="#ff0" fill-rule="evenodd"/><path d="m335.914062 313.136719.21875 5.792969h-6.875l.195313-5.792969zm0 0" fill="none" stroke="#000" stroke-width=".835467"/><path d="m328.179688 308.917969h2.003906v1.457031h1.457031v-1.488281l2.050781.007812v1.480469h1.464844v-1.488281l2.050781.007812v3.351563c0 .523437-.414062.863281-.894531.863281h-7.195312c-.480469 0-.9375-.390625-.9375-.878906zm0 0" fill="none" stroke="#000" stroke-width=".833617"/><path d="m310.496094 308.933594h2.003906v1.457031h1.464844v-1.488281l2.042968.007812v1.480469h1.464844v-1.488281l2.050782.007812v3.355469c0 .519531-.414063.863281-.894532.863281h-7.195312c-.480469 0-.925782-.394531-.925782-.882812zm0 0" fill="#ff0" fill-rule="evenodd" stroke="#000" stroke-width=".833617"/><path d="m318.238281 313.136719.210938 5.792969h-6.875l.191406-5.792969zm0 0" fill="#ff0" fill-rule="evenodd"/><path d="m318.238281 313.136719.210938 5.792969h-6.867188l.183594-5.792969h6.472656-.007812zm0 0" fill="none" stroke="#000" stroke-width=".835467"/><path d="m323.167969 311.546875c-.046875-1.039063 1.457031-1.058594 1.441406 0v2.5625h-1.441406zm0 0" fill-rule="evenodd"/><path d="m332.015625 315.265625c0-1.007813 1.398437-1.03125 1.382813 0v1.976563h-1.382813zm0 0" fill-rule="evenodd"/><path d="m314.28125 315.265625c0-1.007813 1.398438-1.03125 1.378906 0v1.976563h-1.378906zm0 0" fill-rule="evenodd"/><path d="m471.425781 403.53125-3.9375 4.257812-4.867187-4.867187 4.242187-3.964844zm0 0" fill="#ff0" fill-rule="evenodd"/><path d="m442.878906 405.316406c6.664063-6.351562 12.816406-3.273437 12.875-3.265625.054688.015625 3.328125 6.648438-3.15625 13.101563zm0 0" fill="#ff0" fill-rule="evenodd"/><path d="m446.851562 393.375-8.285156 6.671875 4.867188 4.894531c6.234375-6.136718 11.902344-2.53125 11.992187-2.394531.109375.097656 3.332031 6.0625-2.375 12.019531l4.898438 4.890625 6.652343-8.421875zm0 0" fill="#ff0" fill-rule="evenodd"/><path d="m446.832031 393.390625-8.273437 6.675781 4.863281 4.890625c6.238281-6.144531 11.898437-2.539062 11.992187-2.402343.109376.097656 3.332032 6.074218-2.371093 12.023437l4.890625 4.886719 6.65625-8.421875-17.75-17.660157zm0 0" fill="none" stroke="#000"/><path d="m438.199219 399.765625 19.972656 19.96875c.414063.425781.347656 1.179687-.164063 1.683594-.503906.511719-1.261718.578125-1.683593.164062l-19.972657-19.972656c-.421874-.421875-.347656-1.179687.15625-1.683594.511719-.511719 1.269532-.585937 1.691407-.160156zm0 0" fill="#ff0" fill-rule="evenodd"/><path d="m438.199219 399.761719 19.972656 19.972656c.421875.421875.347656 1.179687-.164063 1.691406-.503906.503907-1.261718.570313-1.683593.15625l-19.972657-19.972656c-.421874-.421875-.347656-1.179687.15625-1.683594.511719-.511719 1.269532-.585937 1.691407-.164062zm0 0" fill="none" stroke="#000"/><path d="m445.492188 406.988281c3.929687-3.878906 7.675781-2.34375 7.6875-2.324219 0 0 1.621093 3.894532-2.226563 7.789063zm0 0" fill="#ff0" fill-rule="evenodd"/><path d="m445.492188 406.992188c3.929687-3.882813 7.675781-2.347657 7.691406-2.328126 0 0 1.617187 3.894532-2.230469 7.789063z" fill="none" stroke="#000"/><path d="m449.226562 389.582031 19.148438 19.144531c.398438.40625.359375 1.105469-.097656 1.566407-.453125.449219-1.164063.5-1.5625.089843l-19.148438-19.140624c-.398437-.40625-.359375-1.105469.097656-1.5625.457032-.464844 1.164063-.503907 1.5625-.097657zm0 0" fill="#ff0" fill-rule="evenodd"/><path d="m449.242188 389.566406 19.140624 19.148438c.40625.398437.359376 1.105468-.097656 1.5625-.457031.457031-1.15625.507812-1.5625.101562l-19.140625-19.152344c-.40625-.398437-.367187-1.097656.097657-1.5625.449218-.457031 1.15625-.496093 1.5625-.097656zm0 0" fill="none" stroke="#000"/><path d="m447.964844 391.640625 18.320312 18.320313c.382813.382812.324219 1.074218-.132812 1.53125-.453125.453124-1.144532.511718-1.527344.121093l-18.320312-18.3125c-.382813-.378906-.324219-1.070312.128906-1.527343.457031-.457032 1.148437-.511719 1.53125-.132813zm0 0" fill="#ff0" fill-rule="evenodd"/><path d="m447.964844 391.640625 18.3125 18.3125c.390625.386719.332031 1.074219-.125 1.539063-.453125.457031-1.144532.511718-1.527344.121093l-18.320312-18.3125c-.382813-.382812-.324219-1.070312.128906-1.527343.457031-.457032 1.148437-.515626 1.53125-.132813zm0 0" fill="none" stroke="#000"/><path d="m466.441406 385.148438 1.40625 1.417968-1.027344 1.023438 1.035157 1.03125 1.046875-1.046875 1.453125 1.453125-1.050781 1.042968 1.03125 1.035157 1.050781-1.050781 1.449219 1.457031-2.371094 2.367187c-.371094.367188-.898438.320313-1.242188-.023437l-5.085937-5.085938c-.34375-.34375-.382813-.9375-.039063-1.277343zm0 0" fill="#ff0" fill-rule="evenodd"/><path d="m466.367188 385.082031 1.4375 1.449219-1.023438 1.023438 1.058594 1.050781 1.050781-1.050781 1.472656 1.492187-1.042969 1.039063 1.058594 1.058593 1.050782-1.046875 1.480468 1.488282-2.375 2.367187c-.375.367187-.914062.308594-1.265625-.03125l-5.191406-5.199219c-.347656-.351562-.398437-.953125-.054687-1.296875l2.34375-2.351562zm0 0" fill="none" stroke="#000"/><path d="m468.636719 393.695312-7.277344 7.933594-5.054687-5.09375 7.945312-7.261718 4.386719 4.429687zm0 0" fill="#ff0" fill-rule="evenodd"/><path d="m468.636719 393.695312-7.277344 7.933594-5.050781-5.09375 7.941406-7.269531z" fill="none" stroke="#000"/><path d="m468.929688 395.09375 1.417968 1.414062-1.027344 1.035157 1.035157 1.023437 1.046875-1.046875 1.441406 1.457031-1.042969 1.046876 1.035157 1.035156 1.050781-1.050782 1.445312 1.449219-2.375 2.367188c-.367187.375-.902343.316406-1.246093-.015625l-5.085938-5.085938c-.339844-.339844-.371094-.933594-.03125-1.285156zm0 0" fill="#ff0" fill-rule="evenodd"/><path d="m471.425781 403.53125-3.9375 4.257812-4.867187-4.859374 4.242187-3.964844 4.570313 4.566406zm0 0" fill="none" stroke="#000"/><path d="m468.945312 395.082031 1.410157 1.417969-1.027344 1.027344 1.03125 1.03125 1.050781-1.046875 1.449219 1.453125-1.050781 1.042968 1.03125 1.042969 1.058594-1.050781 1.441406 1.449219-2.363282 2.367187c-.375.375-.90625.316406-1.246093-.023437l-5.085938-5.085938c-.34375-.34375-.382812-.9375-.042969-1.28125zm0 0" fill="none" stroke="#000"/><path d="m456.429688 382.59375 1.417968 1.414062-1.035156 1.027344 1.035156 1.03125 1.046875-1.046875 1.449219 1.457031-1.050781 1.039063 1.042969 1.042969 1.050781-1.050782 1.445312 1.449219-2.375 2.367188c-.375.375-.902343.316406-1.246093-.015625l-5.085938-5.09375c-.339844-.34375-.382812-.925782-.03125-1.277344zm0 0" fill="#ff0" fill-rule="evenodd"/><path d="m456.429688 382.589844 1.40625 1.417968-1.023438 1.027344 1.035156 1.039063 1.046875-1.054688 1.449219 1.453125-1.050781 1.050782 1.035156 1.03125 1.054687-1.046876 1.449219 1.449219-2.375 2.367188c-.375.375-.902343.316406-1.246093-.015625l-5.082032-5.085938c-.34375-.339844-.386718-.9375-.042968-1.289062zm0 0" fill="none" stroke="#000"/><path d="m458.925781 391.03125-3.9375 4.257812-4.867187-4.867187 4.234375-3.964844zm0 0" fill="#ff0" fill-rule="evenodd"/><path d="m458.925781 391.03125-3.9375 4.257812-4.867187-4.867187 4.242187-3.964844zm0 0" fill="none" stroke="#000"/><path d="m463.535156 393.398438c.707032-.769532 1.78125.285156 1.023438 1.019531l-1.816406 1.8125-1.015626-1.023438zm0 0" fill-rule="evenodd"/><path d="m467.171875 402.289062c.707031-.71875 1.707031.257813.96875.972657l-1.402344 1.402343-.96875-.976562zm0 0" fill-rule="evenodd"/><path d="m454.632812 389.746094c.703126-.71875 1.707032.261718.96875.976562l-1.402343 1.398438-.96875-.976563zm0 0" fill-rule="evenodd"/><path d="m487.328125 313.136719.21875 5.792969-6.875.007812.195313-5.800781zm0 0" fill="#ff0" fill-rule="evenodd"/><path d="m468.398438 334.585938c.230468-9.203126 6.753906-11.382813 6.804687-11.417969.039063-.023438 7.046875 2.351562 7.023437 11.5zm0 0" fill="#ff0" fill-rule="evenodd"/><path d="m462.769531 323.332031-1.140625 10.578125 6.902344.015625c.066406-8.746093 6.621094-10.203125 6.785156-10.171875.148438-.007812 6.648438 1.929688 6.820313 10.171875h6.917969l-1.253907-10.652343zm0 0" fill="#ff0" fill-rule="evenodd"/><path d="m462.769531 323.347656-1.140625 10.578125 6.902344.019531c.066406-8.75 6.621094-10.207031 6.777344-10.175781.15625-.007812 6.648437 1.929688 6.828125 10.175781h6.917969l-1.253907-10.660156-25.03125.0625v.007813zm0 0" fill="none" stroke="#000" stroke-width=".832267"/><path d="m461.164062 333.96875h28.25c.59375 0 1.074219.585938 1.074219 1.308594 0 .707031-.480469 1.304687-1.074219 1.304687h-28.25c-.59375 0-1.082031-.589843-1.082031-1.304687 0-.722656.488281-1.308594 1.082031-1.308594zm0 0" fill="#ff0" fill-rule="evenodd"/><path d="m461.164062 333.96875h28.25c.59375 0 1.082032.585938 1.082032 1.308594 0 .714844-.488282 1.304687-1.082032 1.304687h-28.25c-.59375 0-1.082031-.589843-1.082031-1.304687 0-.722656.488281-1.308594 1.082031-1.308594zm0 0" fill="none" stroke="#000" stroke-width=".832383"/><path d="m471.433594 333.917969c.035156-5.523438 3.769531-7.085938 3.785156-7.078125.007812 0 3.90625 1.609375 3.941406 7.078125zm0 0" fill="#ff0" fill-rule="evenodd"/><path d="m471.433594 333.917969c.035156-5.523438 3.769531-7.085938 3.785156-7.078125.007812 0 3.90625 1.609375 3.941406 7.078125z" fill="none" stroke="#000" stroke-width=".828383"/><path d="m461.765625 318.96875h27.078125c.570312 0 1.035156.527344 1.035156 1.171875s-.464844 1.171875-1.035156 1.171875h-27.078125c-.566406 0-1.039063-.527344-1.039063-1.171875s.472657-1.171875 1.039063-1.171875zm0 0" fill="#ff0" fill-rule="evenodd"/><path d="m461.765625 318.953125h27.078125c.570312 0 1.035156.53125 1.035156 1.171875 0 .644531-.464844 1.171875-1.035156 1.171875h-27.078125c-.566406 0-1.039063-.519531-1.039063-1.171875 0-.640625.472657-1.171875 1.039063-1.171875zm0 0" fill="none" stroke="#000" stroke-width=".831683"/><path d="m462.335938 321.320312h25.898437c.542969 0 .992187.519532.992187 1.171876 0 .644531-.449218 1.171874-.992187 1.171874h-25.898437c-.542969 0-.992188-.527343-.992188-1.171874 0-.652344.449219-1.171876.992188-1.171876zm0 0" fill="#ff0" fill-rule="evenodd" stroke="#000" stroke-width=".831683"/><path d="m470.800781 303.664062 2 .007813v1.445313h1.460938v-1.480469h2.046875v1.480469h1.464844v-1.480469h2.050781l-.007813 3.351562c0 .523438-.414062.867188-.886718.867188h-7.191407c-.492187 0-.9375-.394531-.9375-.878907zm0 0" fill="#ff0" fill-rule="evenodd"/><path d="m470.703125 303.671875h2.042969v1.457031h1.488281v-1.492187l2.101563.007812v1.484375h1.488281v-1.492187h2.097656v3.351562c0 .53125-.421875.871094-.917969.871094h-7.347656c-.496094 0-.953125-.398437-.953125-.875l-.007813-3.3125zm0 0" fill="none" stroke="#000" stroke-width=".83375"/><path d="m478.402344 308.152344.460937 10.75-7.175781-.023438.480469-10.75zm0 0" fill="#ff0" fill-rule="evenodd"/><path d="m478.402344 308.152344.460937 10.75-7.175781-.023438.480469-10.757812z" fill="none" stroke="#000" stroke-width=".831633"/><path d="m479.597656 308.933594h2.003906v1.457031h1.453126v-1.488281l2.054687.007812v1.480469h1.464844v-1.488281l2.046875.007812v3.355469c0 .519531-.414063.863281-.894532.863281h-7.191406c-.488281 0-.9375-.394531-.9375-.882812zm0 0" fill="#ff0" fill-rule="evenodd"/><path d="m487.328125 313.136719.21875 5.792969-6.875.007812.195313-5.800781zm0 0" fill="none" stroke="#000" stroke-width=".835467"/><path d="m479.597656 308.917969h2.003906v1.457031h1.453126v-1.488281l2.054687.007812v1.480469h1.464844v-1.488281l2.046875.007812v3.351563c0 .523437-.414063.863281-.894532.863281h-7.191406c-.480468 0-.929687-.390625-.9375-.878906zm0 0" fill="none" stroke="#000" stroke-width=".833617"/><path d="m461.914062 308.933594h2.003907v1.457031h1.464843v-1.488281l2.039063.007812v1.480469h1.472656v-1.488281l2.046875.007812v3.355469c0 .519531-.417968.863281-.898437.863281h-7.191407c-.480468 0-.929687-.394531-.929687-.882812zm0 0" fill="#ff0" fill-rule="evenodd"/><path d="m461.914062 308.933594 2.003907.011718v1.445313h1.464843v-1.488281l2.039063.007812v1.480469h1.472656v-1.488281l2.046875.007812v3.355469c0 .519531-.417968.863281-.898437.863281h-7.191407c-.480468 0-.929687-.394531-.929687-.882812zm0 0" fill="none" stroke="#000" stroke-width=".833617"/><path d="m469.652344 313.136719.21875 5.792969-6.882813.007812.195313-5.800781zm0 0" fill="#ff0" fill-rule="evenodd"/><path d="m469.652344 313.136719.21875 5.792969-6.875.007812.1875-5.800781zm0 0" fill="none" stroke="#000" stroke-width=".835467"/><path d="m474.585938 311.546875c-.050782-1.039063 1.457031-1.050781 1.4375 0v2.5625h-1.4375zm0 0" fill-rule="evenodd"/><path d="m483.429688 315.265625c0-1.007813 1.402343-1.023437 1.386718 0v1.976563h-1.386718zm0 0" fill-rule="evenodd"/><path d="m465.699219 315.265625c0-1.007813 1.398437-1.023437 1.375 0v1.976563h-1.375zm0 0" fill-rule="evenodd"/><path d="m345.246094 386.402344 4.257812 3.945312-4.867187 4.867188-3.964844-4.238282zm0 0" fill="#ff0" fill-rule="evenodd"/><path d="m347.027344 414.964844c-6.347656-6.664063-3.269532-12.824219-3.253906-12.875.011718-.054688 6.640624-3.328125 13.105468 3.160156zm0 0" fill="#ff0" fill-rule="evenodd"/><path d="m335.101562 410.984375 6.671876 8.277344 4.890624-4.867188c-6.136718-6.230469-2.53125-11.898437-2.394531-11.984375.097657-.113281 6.0625-3.335937 12.015625 2.367188l4.894532-4.890625-8.421876-6.648438zm0 0" fill="#ff0" fill-rule="evenodd"/><path d="m335.101562 411.003906 6.671876 8.273438 4.890624-4.863282c-6.136718-6.234374-2.53125-11.898437-2.394531-11.988281.097657-.117187 6.0625-3.339843 12.015625 2.367188l4.886719-4.890625-8.414063-6.65625-17.65625 17.746094zm0 0" fill="none" stroke="#000" stroke-width=".832267"/><path d="m341.480469 419.636719 19.96875-19.976563c.421875-.417968 1.179687-.34375 1.695312.160156.503907.503907.578125 1.261719.152344 1.6875l-19.96875 19.96875c-.425781.421876-1.183594.351563-1.6875-.15625-.503906-.503906-.574219-1.269531-.160156-1.683593zm0 0" fill="#ff0" fill-rule="evenodd"/><path d="m341.480469 419.636719 19.976562-19.976563c.414063-.417968 1.179688-.34375 1.6875.160156.503907.503907.578125 1.261719.152344 1.6875l-19.96875 19.96875c-.425781.421876-1.183594.351563-1.6875-.15625-.503906-.503906-.574219-1.269531-.160156-1.683593zm0 0" fill="none" stroke="#000" stroke-width=".832383"/><path d="m348.699219 412.335938c-3.882813-3.929688-2.34375-7.683594-2.328125-7.691407 0 0 3.898437-1.617187 7.789062 2.234375zm0 0" fill="#ff0" fill-rule="evenodd"/><path d="m348.699219 412.335938c-3.882813-3.929688-2.34375-7.683594-2.328125-7.691407 0 0 3.898437-1.617187 7.789062 2.222657l-5.460937 5.460937" fill="none" stroke="#000" stroke-width=".828383"/><path d="m331.285156 408.601562 19.144532-19.148437c.398437-.398437 1.109374-.355469 1.5625.097656.457031.457031.496093 1.164063.097656 1.5625l-19.148438 19.148438c-.398437.398437-1.105468.359375-1.5625-.097657-.453125-.457031-.496094-1.164062-.09375-1.5625zm0 0" fill="#ff0" fill-rule="evenodd" stroke="#000" stroke-width=".831683"/><path d="m333.351562 409.847656 18.308594-18.308594c.390625-.386718 1.082032-.328124 1.539063.128907.453125.453125.511719 1.136719.121093 1.527343l-18.308593 18.3125c-.382813.390626-1.078125.332032-1.53125-.121093-.457031-.464844-.515625-1.148438-.128907-1.539063zm0 0" fill="#ff0" fill-rule="evenodd"/><path d="m333.351562 409.847656 18.308594-18.308594c.390625-.386718 1.074219-.328124 1.53125.128907.460938.453125.519532 1.148437.128906 1.527343l-18.308593 18.3125c-.382813.390626-1.078125.332032-1.53125-.128906-.457031-.457031-.515625-1.140625-.128907-1.53125zm0 0" fill="none" stroke="#000" stroke-width=".831683"/><path d="m326.863281 391.398438 1.414063-1.410157 1.027344 1.027344 1.03125-1.035156-1.046876-1.046875 1.457032-1.441406 1.042968 1.042968 1.03125-1.035156-1.050781-1.050781 1.457031-1.445313 2.371094 2.375c.363282.363282.316406.902344-.027344 1.234375l-5.085937 5.089844c-.339844.347656-.933594.378906-1.277344.039063l-2.34375-2.335938zm0 0" fill="#ff0" fill-rule="evenodd"/><path d="m326.796875 391.460938 1.449219-1.4375 1.027344 1.023437 1.058593-1.050781-1.050781-1.046875 1.480469-1.484375 1.050781 1.050781 1.054688-1.058594-1.046876-1.046875 1.480469-1.488281 2.367188 2.375c.375.375.316406.910156-.03125 1.261719l-5.203125 5.199218c-.347656.351563-.949219.390626-1.292969.046876l-2.34375-2.332032zm0 0" fill="none" stroke="#000" stroke-width=".83375"/><path d="m335.417969 389.183594 7.933593 7.277344-5.09375 5.054687-7.269531-7.9375zm0 0" fill="#ff0" fill-rule="evenodd"/><path d="m335.417969 389.199219 7.925781 7.277343-5.085938 5.050782-7.269531-7.941406z" fill="none" stroke="#000" stroke-width=".831633"/><path d="m336.808594 388.898438 1.417968-1.40625 1.03125 1.023437 1.027344-1.03125-1.050781-1.050781 1.457031-1.441406 1.046875 1.042968 1.035157-1.03125-1.050782-1.050781 1.449219-1.449219 2.367187 2.375c.375.367188.320313.90625-.015624 1.238282l-5.085938 5.09375c-.339844.339843-.933594.375-1.285156.03125l-2.34375-2.332032zm0 0" fill="#ff0" fill-rule="evenodd"/><path d="m345.246094 386.402344 4.257812 3.945312-4.859375 4.867188-3.960937-4.238282zm0 0" fill="none" stroke="#000"/><path d="m336.800781 388.882812 1.414063-1.40625 1.027344 1.023438 1.03125-1.035156-1.046876-1.046875 1.453126-1.441407 1.042968 1.042969 1.042969-1.035156-1.050781-1.050781 1.449218-1.445313 2.371094 2.375c.363282.367188.316406.902344-.027344 1.238281l-5.085937 5.085938c-.34375.339844-.9375.382812-1.277344.039062l-2.34375-2.335937zm0 0" fill="none" stroke="#000"/><path d="m324.316406 401.398438 1.417969-1.414063 1.023437 1.03125 1.035157-1.03125-1.050781-1.050781 1.457031-1.449219 1.039062 1.050781 1.042969-1.042968-1.050781-1.046876 1.449219-1.449218 2.367187 2.375c.375.367187.320313.902344-.015625 1.246094l-5.09375 5.085937c-.339844.339844-.933594.382813-1.277344.03125zm0 0" fill="#ff0" fill-rule="evenodd"/><path d="m324.316406 401.398438 1.417969-1.40625 1.023437 1.023437 1.035157-1.03125-1.050781-1.050781 1.457031-1.449219 1.046875 1.050781 1.035156-1.03125-1.050781-1.058594 1.449219-1.449218 2.367187 2.375c.375.367187.320313.902344-.015625 1.246094l-5.09375 5.085937c-.339844.339844-.933594.382813-1.277344.039063zm0 0" fill="none" stroke="#000" stroke-width=".833617"/><path d="m332.746094 398.902344 4.257812 3.9375-4.859375 4.867187-3.964843-4.230469zm0 0" fill="#ff0" fill-rule="evenodd"/><path d="m332.746094 398.902344 4.257812 3.9375-4.859375 4.867187-3.964843-4.242187zm0 0" fill="none" stroke="#000" stroke-width=".835467"/><g fill-rule="evenodd"><path d="m335.113281 394.304688c-.773437-.707032.285157-1.785157 1.027344-1.027344l1.808594 1.816406-1.019531 1.015625zm0 0"/><path d="m344.003906 390.671875c-.71875-.707031.257813-1.714844.976563-.972656l1.398437 1.398437-.976562.976563zm0 0"/><path d="m331.46875 403.214844c-.722656-.707032.253906-1.707032.96875-.96875l1.398438 1.398437-.96875.96875zm0 0"/><path d="m407.183594 380.335938c-1.363282 0-2.472656 1.117187-2.472656 2.476562 0 1.367188 1.109374 2.480469 2.472656 2.480469 1.367187 0 2.476562-1.113281 2.476562-2.480469 0-1.359375-1.113281-2.476562-2.476562-2.476562zm0 0" fill="#fff"/><path d="m393.457031 380.355469c-1.367187 0-2.472656 1.113281-2.472656 2.472656 0 1.367187 1.105469 2.480469 2.472656 2.480469 1.367188 0 2.472657-1.113282 2.472657-2.480469 0-1.359375-1.105469-2.472656-2.472657-2.472656zm0 0" fill="#fff"/><path d="m400.261719 373.390625c-1.367188 0-2.484375 1.113281-2.484375 2.480469 0 1.359375 1.117187 2.472656 2.484375 2.472656 1.355469 0 2.472656-1.113281 2.472656-2.472656 0-1.367188-1.117187-2.480469-2.472656-2.480469zm0 0" fill="#fff"/><path d="m407.203125 366.730469c-1.367187 0-2.480469 1.117187-2.480469 2.484375 0 1.359375 1.113282 2.472656 2.480469 2.472656 1.355469 0 2.472656-1.113281 2.472656-2.472656 0-1.367188-1.117187-2.484375-2.472656-2.484375zm0 0" fill="#fff"/><path d="m441.886719 337.433594c-1.367188 0-2.484375 1.109375-2.484375 2.476562 0 1.359375 1.117187 2.472656 2.484375 2.472656 1.359375 0 2.472656-1.109374 2.472656-2.472656 0-1.367187-1.113281-2.476562-2.472656-2.476562zm0 0" fill="#fff"/><path d="m428.359375 337.453125c-1.355469 0-2.472656 1.113281-2.472656 2.480469 0 1.359375 1.117187 2.472656 2.472656 2.472656 1.371094 0 2.476563-1.113281 2.476563-2.472656 0-1.367188-1.105469-2.480469-2.476563-2.480469zm0 0" fill="#fff"/><path d="m434.953125 330.484375c-1.359375 0-2.472656 1.117187-2.472656 2.472656 0 1.371094 1.113281 2.484375 2.472656 2.484375 1.367187 0 2.480469-1.113281 2.480469-2.484375 0-1.355469-1.113282-2.472656-2.480469-2.472656zm0 0" fill="#fff"/><path d="m441.894531 323.828125c-1.359375 0-2.472656 1.117187-2.472656 2.472656 0 1.367188 1.113281 2.472657 2.472656 2.472657 1.367188 0 2.484375-1.105469 2.484375-2.472657 0-1.355469-1.117187-2.472656-2.484375-2.472656zm0 0" fill="#fff"/><path d="m428.335938 323.820312c-1.367188 0-2.480469 1.105469-2.480469 2.472657 0 1.359375 1.113281 2.476562 2.480469 2.476562 1.359374 0 2.472656-1.117187 2.472656-2.476562 0-1.367188-1.113282-2.472657-2.472656-2.472657zm0 0" fill="#fff"/><path d="m407.308594 337.371094c-1.367188 0-2.484375 1.105468-2.484375 2.472656 0 1.359375 1.117187 2.472656 2.484375 2.472656 1.359375 0 2.472656-1.113281 2.472656-2.472656 0-1.367188-1.113281-2.472656-2.472656-2.472656zm0 0" fill="#fff"/><path d="m393.457031 337.386719c-1.367187 0-2.472656 1.105469-2.472656 2.472656 0 1.359375 1.105469 2.472656 2.472656 2.472656 1.367188 0 2.472657-1.105469 2.472657-2.472656s-1.105469-2.472656-2.472657-2.472656zm0 0" fill="#fff"/><path d="m400.375 330.421875c-1.359375 0-2.476562 1.105469-2.476562 2.472656 0 1.359375 1.117187 2.472657 2.476562 2.472657 1.367188 0 2.472656-1.113282 2.472656-2.472657 0-1.367187-1.105468-2.472656-2.472656-2.472656zm0 0" fill="#fff"/><path d="m407.324219 323.761719c-1.367188 0-2.484375 1.109375-2.484375 2.476562 0 1.359375 1.117187 2.472657 2.484375 2.472657 1.359375 0 2.472656-1.105469 2.472656-2.472657 0-1.367187-1.113281-2.476562-2.472656-2.476562zm0 0" fill="#fff"/><path d="m393.457031 323.746094c-1.367187 0-2.472656 1.117187-2.472656 2.476562 0 1.363282 1.105469 2.480469 2.472656 2.480469 1.367188 0 2.472657-1.117187 2.472657-2.480469 0-1.359375-1.105469-2.476562-2.472657-2.476562zm0 0" fill="#fff"/><path d="m372.640625 337.453125c-1.359375 0-2.472656 1.113281-2.472656 2.472656 0 1.367188 1.113281 2.480469 2.472656 2.480469 1.367187 0 2.472656-1.113281 2.472656-2.480469 0-1.359375-1.105469-2.472656-2.472656-2.472656zm0 0" fill="#fff"/><path d="m359.121094 337.464844c-1.363282 0-2.480469 1.117187-2.480469 2.484375 0 1.359375 1.117187 2.472656 2.480469 2.472656 1.359375 0 2.476562-1.113281 2.476562-2.472656 0-1.367188-1.117187-2.484375-2.476562-2.484375zm0 0" fill="#fff"/><path d="m365.714844 330.503906c-1.367188 0-2.480469 1.113282-2.480469 2.480469 0 1.355469 1.113281 2.472656 2.480469 2.472656 1.359375 0 2.472656-1.117187 2.472656-2.472656 0-1.367187-1.113281-2.480469-2.472656-2.480469zm0 0" fill="#fff"/><path d="m372.65625 323.84375c-1.359375 0-2.472656 1.113281-2.472656 2.484375 0 1.355469 1.113281 2.472656 2.472656 2.472656 1.367188 0 2.472656-1.117187 2.472656-2.472656 0-1.371094-1.105468-2.484375-2.472656-2.484375zm0 0" fill="#fff"/><path d="m393.457031 366.722656c-1.367187 0-2.472656 1.113282-2.472656 2.476563 0 1.355469 1.105469 2.472656 2.472656 2.472656 1.367188 0 2.472657-1.105469 2.472657-2.472656 0-1.363281-1.105469-2.476563-2.472657-2.476563zm0 0" fill="#fff"/><path d="m359.082031 323.835938c-1.359375 0-2.472656 1.109374-2.472656 2.472656 0 1.359375 1.113281 2.476562 2.472656 2.476562 1.367188 0 2.472657-1.117187 2.472657-2.476562 0-1.363282-1.105469-2.472656-2.472657-2.472656zm0 0" fill="#ff0"/><path d="m393.457031 280.386719c-1.367187 0-2.472656 1.117187-2.472656 2.472656 0 1.371094 1.105469 2.484375 2.472656 2.484375 1.367188 0 2.472657-1.113281 2.472657-2.484375 0-1.355469-1.105469-2.472656-2.472657-2.472656zm0 0" fill="#fff"/><path d="m407.023438 280.386719c-1.367188 0-2.480469 1.117187-2.480469 2.472656 0 1.371094 1.113281 2.484375 2.480469 2.484375 1.359374 0 2.472656-1.113281 2.472656-2.484375 0-1.355469-1.113282-2.472656-2.472656-2.472656zm0 0" fill="#fff"/><path d="m400.074219 287.058594c-1.359375 0-2.472657 1.109375-2.472657 2.476562 0 1.359375 1.113282 2.472656 2.472657 2.472656 1.367187 0 2.480469-1.105468 2.480469-2.472656 0-1.367187-1.113282-2.476562-2.480469-2.476562zm0 0" fill="#fff"/><path d="m407.007812 294.011719c-1.359374 0-2.472656 1.105469-2.472656 2.472656 0 1.359375 1.113282 2.472656 2.472656 2.472656 1.367188 0 2.480469-1.113281 2.480469-2.472656 0-1.367187-1.113281-2.472656-2.480469-2.472656zm0 0" fill="#fff"/><path d="m393.457031 294.027344c-1.367187 0-2.472656 1.105468-2.472656 2.472656 0 1.359375 1.105469 2.476562 2.472656 2.476562 1.367188 0 2.472657-1.109374 2.472657-2.476562s-1.105469-2.472656-2.472657-2.472656zm0 0" fill="#fff"/><path d="m359.089844 323.835938c-1.359375 0-2.472656 1.117187-2.472656 2.472656 0 1.359375 1.113281 2.476562 2.472656 2.476562 1.367187 0 2.484375-1.109375 2.484375-2.476562 0-1.355469-1.117188-2.472656-2.484375-2.472656zm0 0" fill="#fff"/></g></svg>