<svg viewBox="0 0 1000 500" xmlns="http://www.w3.org/2000/svg"><path d="m0 0h1000v500h-1000z" fill="#ce1126"/><path d="m0 0h500v250h-500zm0 0" fill="#002b7f" fill-rule="evenodd"/><g fill="#fff" stroke="#fff" stroke-linecap="square" stroke-miterlimit="3.239307"><path d="m236.738281 214.355469-8.195312 25.226562 21.457031-15.589843 21.457031 15.589843-8.195312-25.226562 21.460937-15.589844h-26.527344l-8.195312-25.226563-8.195312 25.226563h-26.527344zm0 0"/><path d="m163 105.105469-6.558594 19.894531 17.167969-12.296875 17.167969 12.296875-6.554688-19.894531 17.167969-12.292969h-21.222656l-6.558594-19.894531-6.554687 19.894531h-21.222657zm0 0"/><path d="m318.179688 92.542969-6.148438 18.566406 16.09375-11.472656 16.09375 11.472656-6.148438-18.566406 16.097657-11.476563h-19.894531l-6.148438-18.566406-6.148438 18.566406h-19.894531zm0 0"/><path d="m239.390625 42.605469-6.558594 19.894531 17.167969-12.296875 17.167969 12.296875-6.558594-19.894531 17.167969-12.292969h-21.21875l-6.558594-19.894531-6.558594 19.894531h-21.21875zm0 0"/><path d="m281.5625 147.109375-4.097656 12.613281 10.730468-7.796875 10.730469 7.796875-4.101562-12.613281 10.730469-7.796875h-13.261719l-4.097657-12.613281-4.101562 12.613281h-13.261719zm0 0"/></g></svg>