<svg viewBox="0 0 1000 667" xmlns="http://www.w3.org/2000/svg" xmlns:xlink="http://www.w3.org/1999/xlink"><clipPath id="a"><path d="m0 333h1000v333.71875h-1000zm0 0"/></clipPath><path d="m0 0h1000v333.332031h-1000zm0 0" fill="#ed2939" fill-rule="evenodd"/><g clip-path="url(#a)"><path d="m0 333.332031h1000v333.335938h-1000zm0 0" fill="#fff" fill-rule="evenodd"/></g><g fill-rule="evenodd"><path d="m342.980469 166.667969c0 16.40625-3.261719 32.808593-9.539063 47.964843-6.28125 15.160157-15.570312 29.066407-27.171875 40.667969-11.605469 11.601563-25.507812 20.890625-40.667969 27.171875-15.160156 6.277344-31.558593 9.539063-47.96875 9.539063-16.40625 0-32.808593-3.261719-47.96875-9.539063-15.15625-6.28125-29.0625-15.570312-40.664062-27.171875-11.601562-11.601562-20.894531-25.507812-27.171875-40.667969-6.277344-15.15625-9.542969-31.558593-9.542969-47.964843 0-16.410157 3.265625-32.8125 9.542969-47.96875 6.277344-15.160157 15.570313-29.066407 27.171875-40.667969s25.507812-20.890625 40.664062-27.167969c15.160157-6.28125 31.5625-9.542969 47.96875-9.542969 16.410157 0 32.808594 3.261719 47.96875 9.542969 15.160157 6.277344 29.0625 15.566407 40.667969 27.167969 11.601563 11.601562 20.890625 25.507812 27.171875 40.667969 6.277344 15.15625 9.539063 31.558593 9.539063 47.96875zm0 0" fill="#fff"/><path d="m382.371094 166.667969c0 15.503906-3.085938 31.003906-9.019532 45.328125-5.933593 14.328125-14.714843 27.46875-25.675781 38.433594-10.964843 10.964843-24.105469 19.742187-38.433593 25.675781-14.324219 5.9375-29.824219 9.019531-45.332032 9.019531-15.503906 0-31.003906-3.082031-45.328125-9.019531-14.328125-5.933594-27.46875-14.710938-38.433593-25.675781-10.960938-10.964844-19.742188-24.105469-25.675782-38.433594-5.933594-14.324219-9.019531-29.824219-9.019531-45.328125 0-15.507813 3.085937-31.007813 9.019531-45.332031 5.933594-14.328126 14.714844-27.46875 25.675782-38.429688 10.964843-10.964844 24.105468-19.746094 38.433593-25.679688 14.324219-5.933593 29.824219-9.015624 45.328125-9.015624 15.507813 0 31.007813 3.082031 45.332032 9.015624 14.328124 5.933594 27.46875 14.714844 38.433593 25.679688 10.960938 10.960938 19.742188 24.101562 25.675781 38.429688 5.933594 14.324218 9.019532 29.824218 9.019532 45.332031zm0 0" fill="#ed2939"/><path d="m233.148438 169.691406-17.03125-13.0625-17.023438 13.066406 6.554688-21.0625-17.082032-12.984374 21.078125.046874 6.46875-21.09375 6.472657 21.089844 21.078124-.050781-17.078124 12.988281zm0 0" fill="#fff"/><path d="m366.753906 169.691406-17.027344-13.0625-17.023437 13.066406 6.554687-21.0625-17.082031-12.984374 21.078125.046874 6.464844-21.09375 6.476562 21.089844 21.078126-.050781-17.078126 12.988281zm0 0" fill="#fff"/><path d="m300.019531 120.105469-17.027343-13.0625-17.023438 13.070312 6.554688-21.066406-17.082032-12.984375 21.078125.046875 6.464844-21.09375 6.472656 21.089844 21.078125-.050781-17.078125 12.988281zm0 0" fill="#fff"/><path d="m258.148438 249.03125-17.027344-13.0625-17.027344 13.066406 6.554688-21.0625-17.082032-12.984375 21.078125.046875 6.46875-21.09375 6.472657 21.089844 21.078124-.050781-17.078124 12.988281zm0 0" fill="#fff"/><path d="m341.753906 249.03125-17.027344-13.0625-17.023437 13.066406 6.554687-21.0625-17.082031-12.984375 21.078125.046875 6.464844-21.09375 6.476562 21.089844 21.078126-.050781-17.078126 12.988281zm0 0" fill="#fff"/></g></svg>