<svg viewBox="0 0 1000 667" xmlns="http://www.w3.org/2000/svg" xmlns:xlink="http://www.w3.org/1999/xlink"><clipPath id="a"><path d="m0 0h1000v666.71875h-1000zm0 0"/></clipPath><g clip-path="url(#a)"><path d="m0 666.667969v-666.667969h1000v666.667969zm0 0" fill="#ee1c25" fill-rule="evenodd"/></g><g fill-rule="evenodd"><path d="m0 0h1000v444.445312h-1000zm0 0" fill="#0b4ea2"/><path d="m0 0h1000v222.222656h-1000zm0 0" fill="#fff"/><path d="m351.394531 500c-54.824219-26.40625-133.242187-78.820312-133.242187-182.503906 0-103.679688 4.960937-150.828125 4.960937-150.828125h256.570313s4.957031 47.148437 4.957031 150.828125c0 103.683594-78.417969 156.097656-133.246094 182.503906zm0 0" fill="#ee1c25"/><path d="m363.117188 290.316406c14.84375.238282 43.8125.816406 69.597656-7.808594 0 0-.683594 9.230469-.683594 19.976563 0 10.753906.683594 19.980469.683594 19.980469-23.65625-7.914063-52.863282-8.078125-69.597656-7.863282v57.261719h-23.449219v-57.261719c-16.722657-.214843-45.933594-.050781-69.589844 7.863282 0 0 .679687-9.226563.679687-19.980469 0-10.746094-.679687-19.976563-.679687-19.976563 25.789063 8.625 54.75 8.046876 69.589844 7.808594v-35.964844c-13.527344-.121093-33.023438.527344-55.066407 7.902344 0 0 .679688-9.226562.679688-19.980468 0-10.753907-.679688-19.980469-.679688-19.980469 22.011719 7.367187 41.484376 8.023437 55.007813 7.902343-.691406-22.765624-7.328125-51.472656-7.328125-51.472656s13.65625 1.0625 19.113281 1.0625c5.464844 0 19.113281-1.0625 19.113281-1.0625s-6.628906 28.707032-7.328124 51.472656c13.527343.121094 33-.535156 55.011718-7.902343 0 0-.683594 9.226562-.683594 19.980469 0 10.753906.683594 19.980468.683594 19.980468-22.042968-7.375-41.542968-8.023437-55.074218-7.902344zm0 0" fill="#fff"/><path d="m349.894531 504.761719-114.511719-72.003907s14.527344-46.964843 42.867188-46.964843c22.527344 0 30.75 18.164062 30.75 18.164062s14.785156-38.289062 42.394531-38.289062 42.398438 38.289062 42.398438 38.289062 8.21875-18.164062 30.746093-18.164062c28.347657 0 42.863282 46.964843 42.863282 46.964843zm0 0" fill="#0b4ea2"/><path d="m351.394531 515c-59.753906-28.785156-145.230469-85.914062-145.230469-198.925781 0-113.015625 5.398438-164.410157 5.398438-164.410157h279.664062s5.402344 51.394532 5.402344 164.410157c0 113.011719-85.476562 170.140625-145.234375 198.925781zm0-15c-54.824219-26.40625-133.242187-78.820312-133.242187-182.503906 0-103.679688 4.960937-150.828125 4.960937-150.828125h256.570313s4.957031 47.148437 4.957031 150.828125c0 103.683594-78.417969 156.097656-133.246094 182.503906zm0 0" fill="#fff"/></g></svg>