<svg viewBox="0 0 1000 500" xmlns="http://www.w3.org/2000/svg"><path d="m0 0h1000v500h-1000z" fill="#00247d"/><g stroke-linecap="square"><path d="m0 0v500h1000v-500zm0 0" fill="none" stroke="#00247d" stroke-miterlimit="3.239307"/><path d="m736.890625 354.078125s-2.773437 7.320313-4.355469 7.320313c-1.582031 0-7.320312-3.160157-7.320312-3.160157s-4.15625 6.730469-6.332032 7.117188c-2.179687.398437-7.917968-.984375-7.917968-.984375s-5.539063 0-5.738282-.792969c-.195312-.789063.199219-2.371094.199219-2.371094s-7.914062 6.328125-9.695312 5.929688c-1.78125-.386719-7.714844-7.90625-7.714844-7.90625l-.988281 3.957031-11.28125-.398438-9.890625-6.332031s-5.542969 9.097657-5.738281 8.898438c-.199219-.195313-9.695313 2.179687-9.695313 2.179687l-.59375-1.78125-6.332031-3.757812s4.945312-6.921875 4.945312-7.121094-2.375-.992188-2.375-.992188l-3.5625 2.972657-7.320312 4.742187-7.320313-3.359375 3.167969-5.9375.394531-4.355469 5.738281-8.703124 70.242188-68.269532 34.625 63.914063zm0 0" fill="#6a4c2d" fill-rule="evenodd" stroke="#000" stroke-miterlimit="3.25"/><path d="m786.792969 358.21875 18.285156-.660156-7.785156-3.84375 69.667969-2.625-9.84375-3.75-8.71875-11.816406-36.101563-2.714844s-2.714844-2.0625-7.128906-1.035156c-.183594-2.808594-3.558594-6.464844-3.558594-6.464844l-22.226563-1.691406-13.875 9.472656 9.371094 24.003906zm0 0" fill="#fff" fill-rule="evenodd" stroke="#000" stroke-miterlimit="3.25"/><path d="m715.652344 153.472656 1.839844-6.261718s3.21875-5.429688 3.21875-7.832032c0-2.390625 2.402343-5.242187 2.402343-5.242187s7.359375-2.117188 8.925781 2.394531c7.925782-11.972656 17.222657-.554688 17.222657-.554688l2.574219-3.039062 5.25-6.441406s7.460937 6.996094 7.550781 8.1875c.09375 1.203125 1.285156.375 1.285156.375l8.105469-.648438s3.839844 3.015625 3.039062 8.746094c2.855469 1.6875 5.429688 11.597656 5.429688 11.597656zm0 0" fill="#474747" fill-rule="evenodd" stroke="#000" stroke-miterlimit="3.25"/><path d="m786.804688 227.957031c1.398437-.851562 5.800781-2.25 5.265624-8.691406-.539062-6.441406-6.121093-7.195313-9.234374-6.980469-3.121094.214844-5.910157 2.898438-5.910157 2.898438l-10.308593-6.550782s5.15625-32.539062 10.628906-34.578124c5.203125-3.75 6.121094-5.371094 6.121094-6.226563 0-.859375-1.929688-3.011719-1.929688-3.011719l-33.617188-3.976562-31.785156 3.761718s-2.46875 3.757813-2.144531 5.265626c.320313 1.496093.429687 3.113281 6.117187 7.515624 6.300782 4.84375 10.632813 32.648438 10.632813 32.648438s-8.910156 4.398438-9.449219 3.859375c-.539062-.53125-3.21875-1.066406-4.621094-.851563-1.390624.214844-6.007812 2.574219-6.007812 8.691407 0 6.128906 4.617188 9.671875 4.617188 9.671875s30.390624-3.542969 34.902343 4.828125c4.402344-10.09375 33.285157-6.550781 36.722657-8.273438zm0 0" fill="#656263" fill-rule="evenodd" stroke="#000" stroke-miterlimit="3.25"/><path d="m819.542969 194.136719s.339843-3.539063 2.855469-5.21875c2.527343-1.679688 19.34375-2.523438 23.382812 0 4.03125 2.527343 5.546875 14.972656 5.546875 14.972656s2.527344 4.371094 2.691406 7.566406c.167969 3.195313.503907 5.382813.503907 5.382813s13.457031 17.496094 13.621093 33.300781c1.515625 10.765625 1.175781 39.519531-3.019531 50.449219-.175781 13.628906-5.886719 22.539062-5.886719 22.539062s1.339844 2.351563 1.175781 4.878906c-.175781 2.523438-1.515624 4.875-1.515624 4.875l19.671874 9.753907-7.226562-2.691407s7.398438 6.226563 7.226562 6.0625c-.164062-.175781-8.238281-3.875-8.238281-3.875l4.875 4.875c-.164062-.164062-11.9375-5.382812-11.9375-5.382812s5.546875 5.21875 5.214844 5.050781c-.339844-.164062-8.917969-4.203125-8.917969-4.203125s5.382813 5.71875 5.21875 5.378906c-.167968-.335937-7.734375-3.359374-7.734375-3.359374l.332031 2.855468s-6.054687-.339844-6.054687-4.875c-3.03125-1.683594-5.042969-4.042968-5.042969-4.042968l-13.957031-2.351563-15.816406-47.261719 3.699219-79.886718 1.011718-4.03125zm0 0" fill-rule="evenodd" stroke="#000" stroke-miterlimit="3.25"/><path d="m808.976562 449.433594s-8.097656-17.035156-12.128906-17.273438c-3.644531-6.945312 12.660156-63.722656 44.199219-66.960937 17.335937 1.425781 1.421875 19.988281-9.980469 14.273437 1.425782 4.996094 7.121094 12.140625 7.121094 12.140625s-22.5625 9.753907-29.210938 57.820313zm0 0" fill="#fb0" fill-rule="evenodd" stroke="#000" stroke-miterlimit="3.25"/><path d="m700.410156 451.917969s6.707032-19.394531 10.773438-19.632813c4.070312-.242187-10.773438-64.625-43.085938-65.105468-17.472656 1.441406-1.433594 20.101562 10.054688 14.355468-1.4375 5.035156-7.179688 12.214844-7.179688 12.214844s22.738282 9.8125 29.4375 58.167969zm0 0" fill="#fb0" fill-rule="evenodd" stroke="#000" stroke-miterlimit="3.25"/><path d="m730.050781 330.804688c-.082031-.15625-8.023437 2.492187-2.878906 11.136718.386719-3.34375 3.964844-5.375 3.964844-5.375s-5.449219 6.46875.316406 11.917969c.703125-5.144531 3.972656-6.773437 3.972656-6.773437s-4.050781 11.914062.074219 14.324218c.472656-4.753906 3.503906-6.847656 3.503906-6.847656s-3.660156 10.664062-.390625 13.074219c.390625-4.042969 3.113281-5.839844 3.113281-5.839844s-1.632812 11.0625 2.648438 11.839844c.085938-3.898438 3.199219-7.707031 3.199219-7.707031s-1.410157 9.023437 5.289062 9.421874c.082031-3.425781 1.324219-7.320312 1.324219-7.320312s3.039062 9.574219 7.476562 8.015625c-.074218-2.796875.074219-8.097656 0-8.097656-.082031 0 2.800782 9.109375 8.097657 7.402343-.777344-2.574218.308593-5.613281.308593-5.613281s2.804688 5.6875 7.863282 3.816407c.863281-1.714844-.230469-5.058594-.230469-5.058594s7.394531 7.632812 9.65625 3.039062c2.257813-4.59375-5.921875-6.152344-5.921875-6.152344h5.53125s-1.789062-4.667968-9.265625-5.6875c2.566406-1.167968 5.214844-.308593 5.214844-.308593s-1.554688-5.84375-9.1875-6.464844c2.960937-1.011719 6.234375-.304687 6.234375-.304687s-1.019532-5.53125-9.421875-7.089844c1.324219-1.480469 4.898437-1.007813 4.898437-1.007813s-3.34375-5.21875-7.160156-4.910156c-3.816406.3125-38.3125-3.503906-38.230469-3.429687zm0 0" fill="#00713d" fill-rule="evenodd" stroke="#000" stroke-miterlimit="3.25"/><path d="m764.074219 358.914062s3.039062 1.484376 2.964843 2.808594" fill="none" stroke="#3ec26d" stroke-miterlimit="3.25"/><path d="m765.871094 356.503906s3.890625 2.726563 3.816406 4.746094" fill="none" stroke="#3ec26d" stroke-miterlimit="3.25"/><path d="m769.289062 355.097656s3.125 1.945313 3.273438 4.984375" fill="none" stroke="#3ec26d" stroke-miterlimit="3.25"/><path d="m774.507812 356.347656s1.5625 3.347656 1.019532 3.96875" fill="none" stroke="#3ec26d" stroke-miterlimit="3.25"/><path d="m777.628906 358.136719c.230469 2.648437-.242187 2.882812-.242187 2.882812" fill="none" stroke="#3ec26d" stroke-miterlimit="3.25"/><path d="m739.234375 341.394531s3.660156 2.335938 3.351563 5.605469" fill="none" stroke="#3ec26d" stroke-miterlimit="3.25"/><path d="m739.003906 344.203125s1.710938 1.628906 1.324219 2.722656" fill="none" stroke="#3ec26d" stroke-miterlimit="3.25"/><path d="m743.523438 341.476562s2.410156 3.347657 1.632812 5.679688" fill="none" stroke="#3ec26d" stroke-miterlimit="3.25"/><path d="m747.648438 343.65625s1.089843 2.101562.082031 3.269531" fill="none" stroke="#3ec26d" stroke-miterlimit="3.25"/><path d="m749.59375 344.664062s1.324219 2.105469.15625 2.808594" fill="none" stroke="#3ec26d" stroke-miterlimit="3.25"/><path d="m748.117188 351.597656s3.421874.777344 3.894531 3.34375" fill="none" stroke="#3ec26d" stroke-miterlimit="3.25"/><path d="m750.140625 349.261719s3.582031.230469 3.972656 4.046875" fill="none" stroke="#3ec26d" stroke-miterlimit="3.25"/><path d="m754.890625 347.9375c.074219 0 2.410156 4.128906 2.023437 5.445312" fill="none" stroke="#3ec26d" stroke-miterlimit="3.25"/><path d="m759.488281 348.324219s.925781 3.976562.230469 5.21875" fill="none" stroke="#3ec26d" stroke-miterlimit="3.25"/><path d="m762.441406 349.882812c0 .082032.078125 4.59375.078125 4.59375" fill="none" stroke="#3ec26d" stroke-miterlimit="3.25"/><path d="m757.929688 343.65625s2.253906.851562 2.097656 3.039062" fill="none" stroke="#3ec26d" stroke-miterlimit="3.25"/><path d="m760.027344 341.625s2.878906 1.640625 2.574218 4.753906" fill="none" stroke="#3ec26d" stroke-miterlimit="3.25"/><path d="m763.378906 340.308594s2.492188 2.957031 1.554688 6.226562" fill="none" stroke="#3ec26d" stroke-miterlimit="3.25"/><path d="m767.734375 341.003906s-.925781 3.660156-.546875 5.144532" fill="none" stroke="#3ec26d" stroke-miterlimit="3.25"/><path d="m770.382812 343.496094s-1.628906 1.253906-.777343 2.808594" fill="none" stroke="#3ec26d" stroke-miterlimit="3.25"/><path d="m756.214844 357.746094s.539062 2.808594 0 3.273437" fill="none" stroke="#3ec26d" stroke-miterlimit="3.25"/><path d="m752.632812 356.117188s1.785157 3.113281 1.167969 4.667968" fill="none" stroke="#3ec26d" stroke-miterlimit="3.25"/><path d="m748.8125 355.960938s2.03125 2.332031 1.949219 4.203124" fill="none" stroke="#3ec26d" stroke-miterlimit="3.25"/><path d="m745.699219 356.421875s1.875 1.796875 1.714843 2.808594" fill="none" stroke="#3ec26d" stroke-miterlimit="3.25"/><path d="m744.070312 359.148438s1.789063 1.871093 1.707032 2.257812" fill="none" stroke="#3ec26d" stroke-miterlimit="3.25"/><path d="m705.335938 231.320312c8.585937-.15625 17.171874-.304687 25.757812-.464843 0 0 17.015625 0 18.855469 5.523437 3.21875-7.359375 17.933593-6.898437 17.933593-6.898437 8.894532-.304688 17.785157-.609375 26.671876-.917969.15625 21.460938.304687 42.925781.460937 64.386719-5.207031 24.980469-23.296875 42.617187-43.230469 50.125-23.761718-7.664063-38.78125-27.746094-43.683594-50.589844-.925781-20.386719-1.847656-40.777344-2.765624-61.164063zm0 0" fill="#fff" fill-rule="evenodd" stroke="#000" stroke-miterlimit="3.25"/><path d="m714.511719 231.082031 37.515625 99.972657 33.890625-102.152344c-10.515625.679687-33.070313-1.65625-35.871094 7.933594-4.335937-8.578126-28.066406-5.117188-35.535156-5.753907zm0 0" fill="#006b00" fill-rule="evenodd" stroke="#000" stroke-miterlimit="3.25"/><path d="m740.046875 285.207031c1.449219.753907 1.40625-27.132812 3.300781-27.996093.539063-2.308594.8125-3.320313 1.492188-5.769532-1.632813-2.890625-8.933594-2.75-11.640625-.289062 1.214843 3.890625 1.753906 5.191406 1.753906 5.191406 3.660156 5.917969 2.929687 29.492188 5.09375 28.863281zm0 0" fill="#ffc900" fill-rule="evenodd" stroke="#006b00" stroke-miterlimit="3.25"/><path d="m729.992188 69.667969s2.660156-3.011719 2.777343-3.734375c.121094-.722656 12.046875-1.203125 19.148438-14.453125 3.976562-6.988281 0-2.894531 0-2.894531l-.238281-3.371094s4.941406-4.699219 3.136718-7.226563c-1.8125-2.53125-1.207031 3.25-4.097656 3.128907-2.890625-.117188-1.324219-6.261719-1.324219-6.261719s-.242187-.722657-1.085937-1.085938c-1.207032.121094-.84375 2.289063-1.929688 2.53125-1.082031.242188-2.042968-5.058593-2.042968-5.058593s-1.804688-2.410157-3.378907 5.179687c.84375 8.070313 6.027344 6.503906 6.027344 11.804687 0 5.300782-4.578125 9.394532-5.902344 9.515626-1.324219.121093-.847656-4.457032-.847656-4.457032s-.71875-2.167968-1.199219-2.167968c-.480468 0 2.648438-.480469 2.167969-6.503907-1.082031-7.226562-1.925781 1.6875-3.855469 1.324219-1.929687-.359375-.480468-6.625.238282-7.347656.722656-.722656-.84375-3.734375-5.058594 3.976562-.363282 3.734375-.84375-.964844-1.6875-.722656-1.441406 3.007812-1.203125 5.179688.84375 7.949219 3.011718 2.769531 4.941406 5.539062 4.820312 6.984375-.117187 1.449218-1.691406 4.699218-3.851562 4.699218-2.167969 0 .117187-3.976562 0-5.300781-.125-1.324219-3.734375-6.140625-3.734375-6.140625s-2.535157-4.097656-2.292969-4.21875c.238281-.121094-.242188-.722656-1.441406 3.492188-1.210938 4.21875-2.660156-2.769532-2.660156-2.769532s-1.679688 5.179688 1.929687 8.3125c-2.765625-.359374-3.003906.722657-3.003906.722657 0 1.445312 3.734375 2.046875 4.214843 4.578125.480469 2.53125-3.859374 3.972656-3.859374 3.972656s1.8125 2.53125 6.863281-2.40625c.125 3.132812-1.917969 5.300781-1.917969 5.300781 1.679688.761719 3.003906.679688 3.242188 2.648438zm0 0" fill="#cdad56" fill-rule="evenodd" stroke="#000" stroke-miterlimit="3.25"/><path d="m713.46875 69.667969s-2.253906-3.34375-2.351562-4c-.109376-.65625-11.082032.832031-16.269532-12.550781-3.378906-6.359376 0-2.632813 0-2.632813l.203125-3.066406s-3.59375-4.394531-2.058593-6.699219c1.535156-2.300781.902343 2.960938 2.878906 2.972656 2.453125-.109375 1.125-5.703125 1.125-5.703125s.203125-.65625.917968-.984375c1.023438.109375 1.445313 3.40625 2.363282 3.625.917968.222656 2.824218-3.878906 3.417968-4.722656.847657-.121094.8125-3.398438 2.144532 3.507812-.710938 7.34375-6.796875 5.921876-6.796875 10.742188 0 4.824219 3.882812 8.550781 5.007812 8.660156 1.128907.109375.722657-4.054687.722657-4.054687s.613281-1.972657 1.019531-1.972657c.414062 0-3.578125.765626-3.164063-4.714843.917969-5.132813 2.957032.328125 4.59375 0 1.640625-.328125-.1875-5.425781.28125-6.203125.109375-.78125 2.519532-4.121094 3.453125 3.253906.308594 3.398438 2.164063-2.925781 2.875-2.703125 1.234375 2.738281-.539062 6.398437-2.277343 8.917969-2.558594 2.523437-3.71875 5.285156-3.609376 6.601562.097657 1.3125.703126 2.949219 2.550782 2.949219 1.835937 0 .621094-2.292969.71875-3.5.097656-1.203125 3.171875-5.109375 3.171875-5.109375.605469-.960938.097656-2.761719.734375-3.59375 1.003906.011719 1.417968-1.378906 2.4375 2.457031 1.027344 3.835938 2.25-2.523437 2.25-2.523437s1.433594 4.714844-1.636719 7.566406c2.351563-.332031 2.558594.65625 2.558594.65625 0 1.316406-1.121094 1.863281-1.535157 4.164062-.414062 2.300782 1.226563 3.617188 1.226563 3.617188s-1.53125 2.300781-5.828125-2.191406c-.109375 2.851562 1.640625 4.824218 1.640625 4.824218-1.441406.691407-2.558594.621094-2.765625 2.410157zm0 0" fill="#cdad56" fill-rule="evenodd" stroke="#000" stroke-miterlimit="3.25"/></g><path d="m779.65625 245.992188c-2.242188-2.035157-2.507812-.257813-3.609375-.710938-.546875-.222656-.96875-.730469-1.441406-1.191406-.40625-.425782-.894531-.597656-1.429688-.820313-.207031.601563-.40625 1.199219-.613281 1.804688s.570312 1.605469.554688 2.507812c-.160157 1.339844-.703126 2.460938-2.394532 2.914063.480469-.953125.753906-.992188.605469-2.160156-.066406-.578126-1.699219-1.613282-1.5-2.160157.300781-.886719.8125-1.90625.429687-2.792969-.683593.472657-1.597656.226563-2.285156.515626-.585937.257812-.621094 1.339843-1.429687 1.789062-.828125.386719-2.660157.199219-4.191407-.671875.9375-.703125 1.707032-.230469 2.640626-.9375.464843-.355469.449218-1.871094.910156-2.226563.472656-.355468 1.589844-.726562 2.054687-1.082031-.421875-.480469-.398437-1.234375-.820312-1.714843-.414063-.480469-2.277344-.382813-2.699219-.851563-.84375-.960937-.679688-2.222656-1.523438-3.171875 2.179688.777344 1.863282 1.835938 2.410157 1.753906 1.027343-.496094 2.054687-.585937 2.59375-.363281.542969.230469 1.570312 1.574219 2.109375 1.796875.207031-.605469.503906-1.367188.703125-1.972656.207031-.601563-.910157-1.648438-.710938-2.25.414063-1.203125 1.425781-2.269532 1.828125-3.480469.152344 1.167969.339844 2.144531.488282 3.304687.078124.582032 1.21875.886719 1.292968 1.464844.074219.589844-.59375 1.929688-.53125 2.519532.632813-.125 1.535156-.042969 2.15625-.167969.628906-.121094 1.042969-1.570313 1.664063-1.695313 1.25-.25 2.152343-.175781 3.417969.066406-.933594.867188-1.65625.8125-2.242188 1.605469-.464844.355469.179688 1.523438-1.167969 2.34375-.507812.296875-1.839843-.058593-2.3125.296875.425781.480469.847657.953125 1.269531 1.433594.414063.480469 2.300782.703125 2.722657 1.183594.835937.953125 1.285156 2.09375 1.050781 3.121094zm0 0" fill="#ffc900" fill-rule="evenodd"/><path d="m721.96875 246.976562c2.246094-2.035156 2.511719-.253906 3.621094-.710937.539062-.230469.960937-.738281 1.429687-1.191406.40625-.421875.894531-.597657 1.433594-.828125.207031.605468.414063 1.207031.613281 1.8125.207032.605468-.5625 1.597656-.546875 2.5.148438 1.351562.695313 2.460937 2.386719 2.921875-.480469-.949219-.753906-1-.605469-2.160157.074219-.578124 1.695313-1.613281 1.5-2.167968-.300781-.878906-.8125-1.90625-.433593-2.789063.695312.476563 1.597656.230469 2.292968.511719.582032.265625.621094 1.347656 1.425782 1.796875.835937.390625 2.667968.199219 4.191406-.671875-.9375-.710938-1.707032-.230469-2.644532-.941406-.460937-.347656-.4375-1.871094-.910156-2.21875-.460937-.359375-1.582031-.738282-2.050781-1.09375.421875-.472656.394531-1.234375.816406-1.714844.425781-.472656 2.285157-.371094 2.699219-.851562.847656-.953126.6875-2.210938 1.523438-3.171876-2.175782.777344-1.851563 1.835938-2.398438 1.761719-1.035156-.496093-2.0625-.59375-2.601562-.363281-.539063.222656-1.574219 1.566406-2.109376 1.796875-.207031-.605469-.5-1.367187-.707031-1.96875-.207031-.605469.921875-1.648437.714844-2.253906-.40625-1.210938-1.425781-2.269531-1.832031-3.476563-.148438 1.15625-.339844 2.136719-.488282 3.300782-.074218.582031-1.214843.886718-1.289062 1.46875-.066406.578124.601562 1.929687.527344 2.507812-.628906-.125-1.53125-.042969-2.152344-.15625-.621094-.132812-1.035156-1.582031-1.664062-1.707031-1.25-.25-2.144532-.175781-3.417969.066406.933593.878906 1.65625.8125 2.242187 1.613281.464844.355469-.183594 1.523438 1.167969 2.34375.503906.296875 1.847656-.058594 2.308594.296875-.421875.472657-.84375.953125-1.257813 1.433594-.421875.480469-2.308594.703125-2.722656 1.175781-.84375.960938-1.292969 2.105469-1.0625 3.128906zm0 0" fill="#ffc900" fill-rule="evenodd"/><path d="m777.644531 252.433594c-2.035156 1.582031-15.160156 4.902344-15.300781 16.304687-.132812 11.402344 2.300781 14-.132812 14.289063-4.734376 0-5.414063-12.699219-5.28125-18.332032.140624-5.628906.273437-4.757812.273437-4.757812s3.246094.859375 2.980469 3.609375c-.273438 2.738281 3.246094-6.789063 2.027344-9.382813 2.160156 2.160157 5.011718 1.300782 5.011718 1.152344 0-.140625-1.625-1.871094-2.304687-3.171875-.679688-1.300781 2.433593.71875 2.433593.71875s.132813-2.167969-2.574218-2.019531c-3.519532 0 .546875-1.160156.546875-1.160156s2.027343 1.882812 3.386719-.140625c-1.488282-1.589844-3.660157-2.457031-3.660157-2.457031s-1.894531-3.601563-4.460937-4.324219c-2.980469-.726563-2.578125 1.292969-5.964844 1.011719-.667969 1.292968-.667969 1.441406.679688 1.871093-2.300782 1.589844-1.082032 4.761719-1.082032 4.761719s3.660156-1.582031 3.515625 1.011719c-.128906 2.597656-2.160156 2.167969-3.515625.578125-1.21875-.722656-1.625.71875-1.625.71875l1.898438 2.023437s-3.652344-.144531-4.605469 2.308594c2.027344-.140625 3.113281.4375 3.113281.4375s-4.199218 1.871094-4.605468 2.882813c-.402344 1.007812-.535157-1.152344-.667969-1.152344-.140625 0-4.066407-1.449219-4.066407-1.449219l-1.359374 6.246094s2.71875 2.707031 4.199218 1.835937c1.492188-.859375 4.199219-3.460937 5.820313-2.738281-4.734375 3.609375-9.472657 8.800781-12.046875 9.527344-.671875-.578125-2.972656-2.890625-3.925782-1.738281-.941406 1.160156-.261718 2.601562.953126 2.460937 1.21875-.148437-3.925782 1.148437-2.847657 3.320313 1.085938 2.160156.953125 2.019531 1.894531 1.4375.953126-.578126-.808593-.71875 2.707032-1.730469 3.519531-1.007813 3.386718-2.019531 3.386718-2.019531s-.675781 1.582031-2.574218 2.019531c-1.894532.433593-3.378906.433593-2.972656 1.011719.40625.570312 1.21875 1.582031.945312 2.160156-.273438.582031 3.925781-3.027344 5.007812-.140625 2.839844-.148438 4.738282-3.609375 3.386719-5.628907.132813 2.160157 1.492188 2.890626.671875 3.898438-.8125 1.011719 6.367188-3.320312 2.847656-5.917969.945313 2.160157 1.085938 3.898438 1.085938 3.898438s1.621094-.148438 2.027344-.726563c.40625-.574218-.8125 1.589844-.273438 2.019532.539063.4375 3.113282 2.886718 2.027344 4.621093-.667969-1.011719-.808594-2.601562-1.621094-2.453125-.8125.140625-4.199218 2.601563-6.226562 2.742188s2.433594 7.507812 2.433594 7.507812-3.113282-.4375-3.519532-.148437c-.40625.289062-2.433594-2.597657-2.839844-.859375-.679687 2.160156.679688 1.289062.679688 1.289062s-1.761719-.859375-2.707031.148438c-.953125 1.011718-1.894531 2.023437-1.21875 2.453125.671875.429687 3.652343.429687 4.058593.289062s-3.386718.289063-3.652343.71875c-.273438.433594-.808594 2.023438 0 2.601563.8125.578125 2.839843-.289063 2.972656-.71875.140625-.441406.273437 1.582031.273437 1.582031s3.519532.289063 3.519532-3.3125c0-3.613281.273437 2.589844.273437 2.589844s3.519531.578125 3.652344-3.03125c.140625-3.601563.40625 2.460937.40625 2.460937s2.300781-.730468 2.300781-1.300781c0-.578125-.132812 7.210937-1.753906 9.382813-2.578125-1.738282-4.199219 1.148437-4.199219 1.148437s.132813 4.183594-.140625 5.191406c-.265625 1.011719 1.761719-.570312 1.894532-1.007812.140624-.429688 2.574218-1.582031 2.707031-1.871094.140625-.292969.8125-1.730469.8125-1.730469s-.539063 2.019532-1.480469 2.308594c-.953125.28125-1.898438 1.292969-1.492188 2.160156.40625.871094 1.898438 1.441406 2.433594 2.3125.539063.859375 2.433594-5.050781 2.433594-5.050781l.144531 1.296875s2.433594-.578125 2.707031-1.730469c.261719-1.15625-2.578124-2.167969-.273437-4.039062 2.300781-1.878907 0 1.730469 0 1.730469s.808594 2.742187 1.347656 2.742187c.546875 0 1.898438-5.199219.546875-6.492187-1.359375-1.300782 2.027344 1.582031 2.027344 1.582031s1.898438-5.339844-.128906-6.0625c-2.039063-.71875-2.984375-1.007813-2.984375-1.007813s1.085937-1.441406.539062-1.582031c-.539062-.152344 2.847657 3.167969 3.386719 2.300781.546875-.863281 1.359375-3.460937-2.566406-4.902344-3.933594-1.441406-.140625-5.488281-.140625-5.488281s2.441406 2.886719 4.199219 1.300781c1.753906-1.582031-.132813-1.582031-.132813-1.582031s5-3.179687 5.140625-4.769531c-.953125-.140625-2.574219.148438-2.574219.148438s2.847657-1.878907 2.167969-4.910157c-1.082031 1.589844-2.574219 1.589844-2.574219 1.589844s2.441407-2.453125 2.027344-4.761719c-1.480469 1.152344-1.347656 2.019532-2.300781 1.730469-.945313-.289063-2.566406-9.382813 1.226562-9.960937 3.78125-.570313 1.753906 4.480468 1.886719 4.480468.140625 0 5.6875-2.3125 0-6.0625 1.359375-.4375 4.199219 2.160156 4.199219 2.160156s-1.21875-6.347656-7.3125-2.449218c1.492187-1.589844 2.441406-2.601563 3.660156-2.308594 1.21875.289062 5.546875-.148438 5.546875-1.441406-1.074219-.871094-3.378906.429687-4.601563 0-1.21875-.441406 8.667969-1.160156 7.855469-6.0625zm0 0" fill="#ffc900" fill-rule="evenodd" stroke="#006b00" stroke-linecap="square" stroke-miterlimit="3.25"/><path d="m734.730469 256.179688s5.414062-3.03125 8.121093.726562" fill="none" stroke="#006b00" stroke-linecap="square" stroke-miterlimit="3.25"/><path d="m745.019531 262.675781c-.136719 0-1.898437 1.875-2.304687 1.875" fill="none" stroke="#006b00" stroke-linecap="square" stroke-miterlimit="3.25"/><path d="m748.675781 268.738281s5.003907.433594 8.253907-4.910156" fill="none" stroke="#006b00" stroke-linecap="square" stroke-miterlimit="3.25"/><path d="m754.085938 267.148438s.40625 2.890624 1.222656 2.890624c.808594 0-1.355469.71875-2.167969.140626.945313 1.300781 1.488281 3.609374 0 4.472656" fill="none" stroke="#006b00" stroke-linecap="square" stroke-miterlimit="3.25"/><path d="m751.511719 303.519531s-1.757813 2.015625-3.925781 2.164063zm0 0" fill="#e80000" fill-rule="evenodd" stroke="#006b00" stroke-linecap="square" stroke-miterlimit="3.25"/><path d="m753.546875 294.28125s-1.082031-5.769531-.40625-7.21875c.40625-1.875 2.167969-2.597656 3.519531-5.046875" fill="none" stroke="#006b00" stroke-linecap="square" stroke-miterlimit="3.25"/><path d="m753.003906 290.09375s-1.351562 3.464844-7.308594 2.308594" fill="none" stroke="#006b00" stroke-linecap="square" stroke-miterlimit="3.25"/><path d="m754.628906 281.433594s.402344 4.621094-5.007812 2.890625" fill="none" stroke="#006b00" stroke-linecap="square" stroke-miterlimit="3.25"/><path d="m747.992188 260.65625s-2.164063 2.019531-1.351563 4.761719" fill="none" stroke="#006b00" stroke-linecap="square" stroke-miterlimit="3.25"/><path d="m756.117188 255.605469s2.839843-1.15625 3.386718-1.734375c.539063-.578125 1.488282-1.730469 1.757813-2.597656.269531-.863282-1.894531-2.164063-.8125-4.039063.675781-.867187 1.621093-1.011719 3.25 0 1.621093 1.007813-1.492188-3.175781-3.113281-3.320313-1.628907-.144531-2.710938 1.15625-3.113282.867188-.40625-.289062.132813 1.152344-.542968 1.152344-.675782 0 1.351562 1.15625 1.21875 1.878906-.136719.722656 2.164062 3.171875 2.03125 3.753906-.136719.574219-3.386719 3.890625-4.0625 4.039063zm0 0" fill="#006b00" fill-rule="evenodd"/><path d="m758.148438 246.078125c1.234374-.296875 1.433593.035156 1.21875 1.15625-.582032-.3125-.792969-.574219-1.21875-1.15625zm0 0" fill="#ffc900" fill-rule="evenodd" stroke="#ffc900" stroke-linecap="square" stroke-miterlimit="3.25"/><path d="m749.5 310.375s-.453125 3.023438.660156 3.273438c-.058594-1.167969.238282-1.964844.511719-2.277344-.238281-.117188-1.117187-.976563-1.171875-.996094zm0 0" fill="#e80000" fill-rule="evenodd" stroke="#006b00" stroke-linecap="square" stroke-miterlimit="3.25"/><path d="m746.992188 306.65625c-1.027344-.152344-2.757813.75-2.261719 1.84375.835937-.761719 1.605469.0625 2.1875-.714844.179687-.21875.128906-.855468.074219-1.128906zm0 0" fill="#e80000" fill-rule="evenodd" stroke="#006b00" stroke-linecap="square" stroke-miterlimit="3.25"/><path d="m746.980469 304.5s-1.613281-.273438-1.839844.917969c1.117187-.152344 1.449219-.277344 1.820313-.027344.105468-.253906.003906-.832031.019531-.890625zm0 0" fill="#e80000" fill-rule="evenodd" stroke="#006b00" stroke-linecap="square" stroke-miterlimit="3.25"/><path d="m740.140625 287.476562s.96875.386719 1.242187 1.445313c.769532-.511719 1.136719-2.75-1.242187-1.445313zm0 0" fill="#e80000" fill-rule="evenodd" stroke="#006b00" stroke-linecap="square" stroke-miterlimit="3.25"/><path d="m737.746094 290.046875c.039062-.019531 2.027344-1.304687 2.230468-.074219-.417968.445313-.605468.738282-.929687.839844-.257813 0-.769531-.839844-1.300781-.765625zm0 0" fill="#e80000" fill-rule="evenodd" stroke="#006b00" stroke-linecap="square" stroke-miterlimit="3.25"/><path d="m737.546875 294.21875c.035156-.019531 1.277344-1.1875 1.753906-.410156.472657.78125-.382812.738281-.382812.738281s-.4375-.210937-1.371094-.328125zm0 0" fill="#e80000" fill-rule="evenodd" stroke="#006b00" stroke-linecap="square" stroke-miterlimit="3.25"/><path d="m735.792969 270.988281c-.019531 0-1.59375-.644531-2.253907.523438 1.046876.136719 1.414063.527343 1.886719.921875-.128906-.492188-.347656-1.230469.367188-1.445313zm0 0" fill="#e80000" fill-rule="evenodd" stroke="#006b00" stroke-linecap="square" stroke-miterlimit="3.25"/><path d="m732.742188 279.738281s.070312-1.964843.945312-2.765625c.496094.289063.640625.757813.972656 1.34375-.660156.152344-1.539062.195313-1.917968 1.421875zm0 0" fill="#e80000" fill-rule="evenodd" stroke="#006b00" stroke-linecap="square" stroke-miterlimit="3.25"/><path d="m736.941406 278.332031s-1.734375.859375-1.167968 1.796875c.566406-.644531 1.191406-.445312 1.191406-.464844 0-.019531 0-1.308593-.023438-1.332031zm0 0" fill="#e80000" fill-rule="evenodd" stroke="#006b00" stroke-linecap="square" stroke-miterlimit="3.25"/><path d="m734.4375 259.507812c-.621094.746094.769531 2.359376 2.230469 2.125.367187-1.753906-1.863281-2.667968-2.230469-2.125zm0 0" fill="#ffc900" fill-rule="evenodd" stroke="#006b00" stroke-linecap="square" stroke-miterlimit="3.25"/><path d="m734.421875 256.117188c-.304687.824218.90625 1.984374 1.609375 1.660156.28125-.847656-1.292969-2.3125-1.609375-1.660156" fill="none" stroke="#000" stroke-linecap="square" stroke-miterlimit="3.25"/><path d="m736.046875 258.164062s.273437 1.386719 1.535156 1.011719c-.199219-1.070312-1.078125-1.871093-1.078125-1.871093-.054687.316406.179688.800781-.457031.859374zm0 0" fill="#e80000" fill-rule="evenodd" stroke="#006b00" stroke-linecap="square" stroke-miterlimit="3.25"/><path d="m736.886719 262.179688s.695312.796874 2.066406-.839844c-.621094.195312-1.714844-.390625-1.714844-.390625s0 1.132812-.351562 1.230469zm0 0" fill="#e80000" fill-rule="evenodd" stroke="#006b00" stroke-linecap="square" stroke-miterlimit="3.25"/><path d="m734.359375 256.332031c-.621094.738281.261719 1.769531 1.71875 1.539063.367187-1.753906-1.351563-2.082032-1.71875-1.539063zm0 0" fill="#ffc900" fill-rule="evenodd" stroke="#006b00" stroke-linecap="square" stroke-miterlimit="3.25"/><path d="m734.945312 249.402344s5.828126-1.664063 8.925782.839844c3.089844 2.492187 3.089844.230468 3.089844.230468s4.519531 1.664063 5.828124 1.308594c1.308594-.355469-.953124.125.828126-.953125 1.789062-1.066406-3.570313.238281-4.042969-2.019531-.835938-1.425782.117187-3.214844-1.777344-2.617188-1.308594-1.664062.828125-2.847656.355469-4.636718-1.308594.953124-2.027344-.355469-3.097656 2.019531-2.492188-.472657-.355469-3.925781-3.085938-4.28125 0 2.5-2.023438 2.617187-2.144531 4.050781-1.1875.828125-6.417969 3.925781-4.878907 6.058594zm0 0" fill="#ff3908" fill-rule="evenodd"/><path d="m667.878906 438.984375c3.78125-.914063 24.265625 4.527344 32.167969 12.988281-1.683594-15.078125-5.855469-26.625-5.855469-26.625s-12.210937-3.488281-13.886718-1.808594c-2.457032 2.585938-9.835938 10.34375-12.425782 15.445313zm0 0" fill="#c01500" fill-rule="evenodd" stroke="#000" stroke-linecap="square" stroke-miterlimit="3.25"/><path d="m661.636719 369.332031c-1.4375.238281-2.875 1.199219-4.308594 3.59375-1.675781 4.066407-2.871094 14.355469-5.265625 16.75s-4.550781 2.632813-4.550781 4.792969c0 2.152344.242187 7.179688 6.703125 9.09375 6.464844.238281 16.757812-10.292969 16.757812-10.292969s5.265625-5.746093 7.417969-11.964843c-12.445313 4.304687-21.300781-7.1875-16.753906-11.972657zm0 0" fill="#c01500" fill-rule="evenodd" stroke="#000" stroke-linecap="square" stroke-miterlimit="3.25"/><path d="m841.648438 436.582031c-3.75-.902343-24.464844 4.503907-32.308594 12.917969 1.664062-14.988281 5.8125-26.480469 5.8125-26.480469 1.449218-.390625 11.984375-3.460937 13.648437-1.789062 2.433594 2.566406 10.28125 10.285156 12.847657 15.351562zm0 0" fill="#c01500" fill-rule="evenodd" stroke="#000" stroke-linecap="square" stroke-miterlimit="3.25"/><path d="m847.453125 367.335938c1.425781.242187 1.929687 2.113281 3.097656 4.496093 1.65625 4.039063 3.371094 9.9375 5.746094 12.3125 2.375 2.382813 4.511719 5.902344 4.511719 8.046875 0 2.144532-.496094 5.035156-6.914063 6.941406-6.40625.238282-15.707031-8-15.707031-8s-5.222656-5.703124-7.359375-11.898437c12.351563 4.289063 20.351563-6.738281 16.625-11.898437zm0 0" fill="#c01500" fill-rule="evenodd" stroke="#000" stroke-linecap="square" stroke-miterlimit="3.25"/><path d="m654.457031 425.824219s12.921875 8.851562 13.164063 12.925781c34.710937-51.46875 123.273437-67.503906 173.773437-3.59375 6.707031-8.859375 13.644531-11.722656 13.644531-11.722656-53.132812-69.421875-158.933593-60.800782-200.582031 2.390625zm0 0" fill="#fb0" fill-rule="evenodd" stroke="#000" stroke-linecap="square" stroke-miterlimit="3.25"/><path d="m786.132812 228.917969 5.058594-.121094-9.035156 11.441406 10.839844 12.652344-21.320313 26.859375 20.121094 24.210938c-2.210937 5.421874-4.777344 10.359374-8.199219 14.820312l-11.558594-12.773438 20.957032-26.132812-17.222656-19.515625zm0 0" fill="#1e5aa6" fill-rule="evenodd" stroke="#000" stroke-linecap="square" stroke-miterlimit="3.25"/><path d="m713.855469 231.203125-5.421875.125 10.117187 10.957031-10.714843 13.371094 22.28125 24.21875-18.429688 24.691406c2.210938 5.421875 5.382812 11.441406 8.792969 15.898438l10.960937-13.855469-22.519531-25.054687 16.5-20.957032zm0 0" fill="#1e5aa6" fill-rule="evenodd" stroke="#000" stroke-linecap="square" stroke-miterlimit="3.25"/><path d="m738.910156 296.253906-7.949218 10.597656 28.425781 32.886719c5.019531-2.53125 8.960937-5.421875 13.257812-8.910156l-14.820312-17.105469 6.027343-17.710937 8.667969 9.996093-27.101562 34.574219c-4.535157-1.929687-9.554688-4.941406-14.089844-8.675781l14.332031-18.183594zm0 0" fill="#1e5aa6" fill-rule="evenodd" stroke="#000" stroke-linecap="square" stroke-miterlimit="3.25"/><path d="m730.117188 279.75 5.183593 6.507812-3.378906-8.792968zm0 0" fill="#1e5aa6" fill-rule="evenodd" stroke="#000" stroke-linecap="square" stroke-miterlimit="3.25"/><path d="m767.222656 285.503906c.105469-.125 4.179688-5.546875 4.179688-5.546875l-1.582032-2.160156zm0 0" fill="#1e5aa6" fill-rule="evenodd" stroke="#000" stroke-linecap="square" stroke-miterlimit="3.25"/><path d="m827.117188 195.019531s5.003906-4.28125 8.5625-4.402343" fill="none" stroke="#fff700" stroke-linecap="square" stroke-miterlimit="3.25"/><path d="m827.839844 194.425781c.113281-.117187 29.847656-4.28125 30.792968-5.234375" fill="none" stroke="#fff700" stroke-linecap="square" stroke-miterlimit="3.25"/><path d="m827.953125 194.664062c.117187-.125 33.296875-2.855468 33.296875-2.855468" fill="none" stroke="#fff700" stroke-linecap="square" stroke-miterlimit="3.25"/><path d="m827.839844 194.78125s35.3125-1.664062 37.457031.125" fill="none" stroke="#fff700" stroke-linecap="square" stroke-miterlimit="3.25"/><path d="m827.714844 194.664062s34.609375.242188 35.207031 1.070313" fill="none" stroke="#fff700" stroke-linecap="square" stroke-miterlimit="3.25"/><path d="m827.839844 194.664062 33.292968 2.734376" fill="none" stroke="#fff700" stroke-linecap="square" stroke-miterlimit="3.25"/><path d="m827.484375 194.90625c.113281 0 33.886719 2.972656 37.21875 7.253906" fill="none" stroke="#fff700" stroke-linecap="square" stroke-miterlimit="3.25"/><path d="m866.480469 208.21875c-.113281-.117188-11.53125-13.679688-39.121094-13.4375" fill="none" stroke="#fff700" stroke-linecap="square" stroke-miterlimit="3.25"/><path d="m827.484375 195.019531s19.140625 1.308594 25.203125 7.96875" fill="none" stroke="#fff700" stroke-linecap="square" stroke-miterlimit="3.25"/><path d="m827.839844 194.78125s12.359375-2.375 25.328125 13.207031" fill="none" stroke="#fff700" stroke-linecap="square" stroke-miterlimit="3.25"/><path d="m820.046875 208.929688s17.15625.679687 17.15625 2.363281c0 1.679687-12.785156 4.875-12.949219 11.9375-.167968 7.0625 9.753906 7.570312 10.425782 16.476562.667968 8.917969-7.734376 10.261719-9.417969 12.621094-1.6875 1.175781-5.71875 13.785156-5.214844 21.1875s2.691406 32.457031 6.558594 37.507813c3.03125 2.351562 7.566406 9.917968 12.445312 7.566406 4.875-2.359375 1.515625-10.929688 1.007813-13.289063-.503906-2.351562 2.023437-6.214843 2.023437-9.753906 0-3.535156-1.855469-6.390625-1.683593-7.226563.167968-.84375 13.621093 3.195313 12.777343 16.476563-.835937 13.289063-6.21875 9.25-6.21875 9.25s1.679688 16.320313-2.523437 18.503906c-7.570313 4.035157-13.117188-.84375-13.117188-.84375l.710938 3.320313-5.753906-2.980469s-7.402344-10.597656-9.082032-15.308594c-1.683594-4.703125-3.703125-25.726562-3.03125-30.273437.671875-4.535156 1.175782-31.117188.84375-32.457032-.339844-1.351562-1.679687-23.546874-.84375-26.910156.84375-3.363281 6.050782-18.167968 5.886719-18.167968zm0 0" fill="#d5dfff" fill-rule="evenodd" stroke="#000" stroke-linecap="square" stroke-miterlimit="3.25"/><path d="m801.550781 204.558594s11.9375-11.597656 18.835938-10.257813c3.527343 0 .164062 2.523438.164062 2.523438s6.054688.507812 6.898438 3.199219c.164062 1.175781-2.863281 1.515624-2.863281 1.515624s2.523437.503907 2.691406 2.6875c.171875 2.1875-25.5625.5-25.726563.332032zm0 0" fill="#ff7000" fill-rule="evenodd" stroke="#000" stroke-linecap="square" stroke-miterlimit="3.25"/><path d="m802.21875 204.054688s12.785156-1.679688 18.167969-7.0625" fill="none" stroke="#000" stroke-linecap="square" stroke-miterlimit="3.25"/><path d="m815.171875 200.527344s9.414063-.339844 9.414063 1.011718" fill="none" stroke="#000" stroke-linecap="square" stroke-miterlimit="3.25"/><path d="m848.636719 338.097656s8.074219-1.851562 10.261719-4.710937c1.347656-1.007813 8.410156 10.601562-10.261719 4.710937zm0 0" fill="#fff" fill-rule="evenodd" stroke="#000" stroke-linecap="square" stroke-miterlimit="3.25"/><path d="m846.453125 271.328125s1.007813 6.226563-1.847656 10.425781c-1.515625 1.679688-6.0625 4.546875-6.0625 6.566406 0 2.011719 1.683593 4.703126 1.351562 7.0625-.339843 2.351563-2.855469 4.710938-2.691406 6.722657 0 2.019531 2.855469 12.785156 2.515625 12.949219" fill="none" stroke="#fff" stroke-linecap="square" stroke-miterlimit="3.25"/><path d="m831.65625 251.152344s-6.394531 2.183594-7.742188 8.578125" fill="none" stroke="#fff" stroke-linecap="square" stroke-miterlimit="3.25"/><path d="m828.957031 200.527344s2.195313 6.050781 9.257813.332031c-4.546875-6.21875-9.257813-.167969-9.257813-.332031zm0 0" fill="#c75b00" fill-rule="evenodd" stroke="#000" stroke-linecap="square" stroke-miterlimit="3.25"/><path d="m834.175781 200.273438c0 .324218-.339843.585937-.757812.585937s-.753907-.261719-.753907-.585937c0-.324219.335938-.589844.753907-.589844s.757812.265625.757812.589844zm0 0" fill-rule="evenodd"/><path d="m771.203125 186.476562s13.398437 14.496094 22.066406 14.339844c1.574219 4.257813-3.941406 8.214844-6.144531 10.101563-4.414062-1.414063-8.402344.257812-18.644531-12.34375.636719-8.039063 2.878906-11.785157 2.722656-12.097657zm0 0" fill="#fff" fill-rule="evenodd" stroke="#000" stroke-linecap="square" stroke-miterlimit="3.25"/><path d="m789.328125 152.75c1.730469-5.355469 5.199219-9.613281 8.1875-10.082031-.785156-4.101563 6.3125-22.214844 26.953125-29.15625 1.257812 9.300781-8.828125 18.441406-8.828125 18.441406s30.414063-5.199219 36.558594-12.925781c-.628907 3.46875-6.773438 25.054687-39.238281 24.898437 12.292968 11.664063-3.933594 20.964844-10.875 18.125 12.769531-9.769531-3.617188-15.601562-12.757813-9.300781zm0 0" fill="#fff" fill-rule="evenodd" stroke="#000" stroke-linecap="square" stroke-miterlimit="3.25"/><path d="m799.726562 145.191406c6.144532-3.941406 8.347657-3.941406 13.398438-3.152344-3.625.46875-3.625.628907-3.625.628907s-.316406.46875 1.886719 2.523437c-2.515625-.636718-4.726563-2.054687-11.660157 0zm0 0" fill="#cccccd" fill-rule="evenodd" stroke="#ccc" stroke-linecap="square" stroke-miterlimit="3.25"/><path d="m797.359375 142.667969s12.140625-6.460938 18.914063-10.875" fill="none" stroke="#000" stroke-linecap="square" stroke-miterlimit="3.25"/><path d="m786.960938 210.902344s16.707031 4.570312 18.597656-19.382813c-3.628906-10.402343-8.671875-32.78125-.945313-39.238281-7.097656-4.886719-14.8125.15625-14.8125.15625-.472656 1.101562-6.78125 10.085938 1.730469 25.839844-20.171875-5.355469-11.972656 13.714844-11.972656 13.714844.785156-3 11.5-5.832032 14.183594 9.453124 1.101562 3.785157-7.253907 9.613282-6.78125 9.457032zm0 0" fill="#00f" fill-rule="evenodd" stroke="#000" stroke-linecap="square" stroke-miterlimit="3.25"/><path d="m805.714844 191.675781s17.652344-9.457031 17.171875-31.671875c-14.96875.316406-20.328125 19.691406-20.328125 19.691406zm0 0" fill="#00f" fill-rule="evenodd" stroke="#000" stroke-linecap="square" stroke-miterlimit="3.25"/><path d="m726.605469 190.574219s-13.070313 11.34375-20.484375 7.71875c-5.511719 3.3125-11.972656-2.519531-11.972656-2.519531s7.5625 27.886718 34.667968 7.71875c-.46875-6.144532-1.894531-12.445313-2.210937-12.917969zm0 0" fill="#fff" fill-rule="evenodd" stroke="#000" stroke-linecap="square" stroke-miterlimit="3.25"/><path d="m705.964844 197.820312c1.101562-5.828124 5.671875-8.667968 9.300781-3.15625 4.882813.953126 9.769531-19.058593-7.570313-15.757812 4.886719-26.15625-9.765624-35.925781-9.765624-35.925781s-5.199219 28.996093-2.835938 34.355469c2.363281 5.355468-3.46875-9.929688-22.21875-14.183594-.316406 21.90625 20.957031 32.148437 20.957031 32.148437s5.988281 5.515625 12.132813 2.519531zm0 0" fill="#00f" fill-rule="evenodd" stroke="#000" stroke-linecap="square" stroke-miterlimit="3.25"/><path d="m707.695312 178.75s-8.1875 6.9375-6.300781 16.394531" fill="none" stroke="#000" stroke-linecap="square" stroke-miterlimit="3.25"/><path d="m695.25 177.808594s-1.890625 6.769531 2.207031 16.382812" fill="none" stroke="#000" stroke-linecap="square" stroke-miterlimit="3.25"/><path d="m693.988281 196.402344s3.785157-6.140625 11.976563 1.730468" fill="none" stroke="#000" stroke-linecap="square" stroke-miterlimit="3.25"/><path d="m695.566406 153.851562c0-.15625-12.449218 0-5.042968 12.613282-5.515626 1.730468-17.804688-6.300782-9.296876-17.023438-27.890624-.632812-39.238281-14.019531-39.238281-26.316406 8.195313 8.511719 27.734375 5.042969 34.667969 10.242188-8.507812-7.875-6.777344-18.753907-6.777344-18.753907s23.796875 7.097657 28.050782 28.210938c-1.417969 4.097656-2.046876 11.34375-2.363282 11.027343zm0 0" fill="#fff" fill-rule="evenodd" stroke="#000" stroke-linecap="square" stroke-miterlimit="3.25"/><path d="m676.425781 132.820312c4.589844 4.671876 16.386719 6.070313 22.378907 11.269532" fill="none" stroke="#000" stroke-linecap="square" stroke-miterlimit="3.25"/><path d="m681.855469 146.609375s9.769531-1.261719 12.601562 2.199219c-3.824219 0-5.097656-.941406-10.617187 1.109375 1.554687-.792969 1.128906-2.207031 1.980468-2.207031.847657 0-3.539062-1.101563-3.964843-1.101563zm0 0" fill="#cccccd" fill-rule="evenodd" stroke="#ccc" stroke-linecap="square" stroke-miterlimit="3.25"/><path d="m730.546875 70.179688s5.359375-4.726563 11.1875-.472657c-2.632813 7.871094-12.128906 4.886719-12.128906 4.886719s.3125 3.9375-.628907 5.828125c1.894532 1.429687 3.460938 6.148437 3.460938 6.148437s9.769531-2.367187 11.824219 1.890626c3.742187-.519532 6.457031 0 6.457031 0s7.566406-1.890626 10.242188-1.890626c2.683593 0 11.1875 2.203126 11.972656 3.78125.796875 1.574219 3.628906 12.132813 5.523437 11.976563 1.886719-.160156-4.570312 2.519531-6.308593-.160156-1.730469-2.679688-1.257813 3.46875-1.257813 3.46875s5.355469 5.671875 5.984375 6.933593c.628906 1.257813-3.304688 11.5-.3125 18.59375-2.625.242188-2.832031 2.992188-2.832031 2.992188-.152344 3.121094-4.101563 3.941406-4.101563 3.941406l-.941406-4.257812-2.683594 1.582031 1.101563-3.3125s3.625-8.828125 3.941406-11.65625c.3125-2.84375-3.3125-7.882813-6.144531-7.882813-2.839844 0-4.886719 8.980469-4.886719 8.980469s-1.414063 6.773438-.941406 7.402344c.472656.632813-1.898438-2.199219-1.898438-2.199219s-1.257812 4.097656-2.199219 5.355469c-.945312 1.257813-3 1.730469-3 1.730469s-1.414062-4.097656-.941406-5.671875c.46875-1.574219 7.722656-7.714844 7.09375-12.128907-.636718-4.414062 0-3.3125-.164062-3.46875-.160156-.160156-3.777344-3.308593-3.933594-5.042968s-4.726562 2.207031-10.714844.945312c-1.839844 3.203125-2.054687 11.183594-2.054687 11.183594s-.628907 9.613281.628906 10.722656c1.269531 1.101563-3.144531 3.460938-3.144531 3.460938l-3.15625 4.257812s-1.101563-2.675781-1.101563-2.519531-2.210937 1.574219-2.210937 1.574219l1.269531-3.15625c-.082031-2.382813 3.0625-8.898438 3.0625-14.414063s.398437-11.425781.398437-11.425781-5.828124-.316406-5.671874 5.671875c.15625 5.992187-1.417969 6.308594-1.101563 8.039063.3125 1.730468 1.886719 6.617187 1.414063 8.039062-.46875 1.417969-2.359376 1.886719-2.359376 1.886719l-.472656.789062s-5.828125 2.683594-5.671875 3.785157c.160157 1.097656-.15625-3.15625-.15625-3.15625l-.320312-4.570313s3.46875-2.203125 3.46875-7.71875c0-5.511719-.796875-6.300781-.640625-7.558594.160156-1.265625.953125-5.835937.796875-6.308593-.15625-.472657-3.304688 1.261718-4.257813 1.261718-.941406 0 1.742188-3.3125 2.054688-5.675781.316406-2.363281-3.152344 2.207031-5.984375-.472656 1.316406-2.910157 3.300781-3.78125 3.617187-5.988281.3125-2.203126-2.203125 1.890624-4.414062.316406.183594-2.113282 2.367187-3.9375 2.367187-3.9375s-1.796875-.222656-2.523437 0c-1.417969-.472656 1.582031-2.679688 1.738281-5.832032.15625-3.152343-1.738281-4.414062-1.738281-4.570312s-3.148438-2.835938-3.617188-3.941406c-.472656-1.101563-.472656-2.363282-.472656-2.363282s-5.210938 3.785157-11.351562-4.253906c5.628906-4.804687 11.664062-1.261718 11.664062-1.261718s1.574219-4.410157 8.820312-4.09375c7.253907.3125 8.667969 4.410156 8.351563 3.9375zm0 0" fill="#923f00" fill-rule="evenodd" stroke="#000" stroke-linecap="square" stroke-miterlimit="3.25"/><path d="m770.191406 151.691406c.125 0 13.382813.398438 13.515625 7.484375.132813 7.082031-4.066406 5.25-4.199219 5.25-.132812 0-9.710937-1.183593-9.710937-1.183593zm0 0" fill="#00f" fill-rule="evenodd" stroke="#000" stroke-linecap="square" stroke-miterlimit="3.25"/><path d="m757.328125 149.722656s16.535156-.125 15.613281 7.085938c-.917968 7.21875-5.117187 5.78125-5.117187 5.78125l-8.003907-.664063zm0 0" fill="#fffeff" fill-rule="evenodd" stroke="#000" stroke-linecap="square" stroke-miterlimit="3.25"/><path d="m748.011719 148.933594 9.578125.789062s5.773437.785156 5.515625 6.300782c-.265625 5.511718-5.910157 5.644531-5.910157 5.644531l-9.316406-.527344zm0 0" fill="#00f" fill-rule="evenodd" stroke="#000" stroke-linecap="square" stroke-miterlimit="3.25"/><path d="m725.574219 151.691406c-.132813 0-13.390625.398438-13.523438 7.484375-.125 7.082031 4.074219 5.25 4.207031 5.25.132813 0 9.710938-1.183593 9.710938-1.183593zm0 0" fill="#fff" fill-rule="evenodd" stroke="#000" stroke-linecap="square" stroke-miterlimit="3.25"/><path d="m738.429688 149.722656s-16.535157-.125-15.613282 7.085938c.917969 7.21875 5.117188 5.78125 5.117188 5.78125l8.003906-.664063zm0 0" fill="#00f" fill-rule="evenodd" stroke="#000" stroke-linecap="square" stroke-miterlimit="3.25"/><path d="m747.753906 148.933594-9.578125.789062s-5.78125.785156-5.515625 6.300782c.265625 5.511718 5.902344 5.644531 5.902344 5.644531l9.316406-.527344zm0 0" fill="#fff" fill-rule="evenodd" stroke="#000" stroke-linecap="square" stroke-miterlimit="3.25"/><path d="m773.40625 228.613281s6.886719-10.152343 9.796875-9.066406c2.53125.84375.601563 8.703125-.605469 9.429687zm0 0" fill="#5e0043" fill-rule="evenodd" stroke="#000" stroke-linecap="square" stroke-miterlimit="3.25"/><path d="m726.183594 230.425781c-2.167969-3.023437-5.3125-11.359375-8.210938-9.066406-2.542968.84375-.605468 8.703125.601563 9.429687zm0 0" fill="#5e0043" fill-rule="evenodd" stroke="#000" stroke-linecap="square" stroke-miterlimit="3.25"/><path d="m730.746094 210.347656s13.421875 8.269532 17.828125 8.488282c4.40625.214843 18.363281-10.742188 18.363281-10.742188" fill="none" stroke="#000" stroke-linecap="square" stroke-miterlimit="3.25"/><path d="m732.039062 177.921875 2.574219-3.21875 12.894531 6.546875 13.097657-5.804688 2.574219 2.691407-14.605469 10.308593zm0 0" fill="#5e0043" fill-rule="evenodd" stroke="#000" stroke-linecap="square" stroke-miterlimit="3.25"/><path d="m721.804688 177.75c1.042968 1.316406 9.375 11.441406 10.878906 19.820312 1.5 8.378907-.859375-11.492187-.859375-11.492187s10.308593 5.050781 10.632812 8.273437c.320313 3.21875 4.925781-.214843 5.148438-.769531l-29.847657-19.386719zm0 0" fill="#474747" fill-rule="evenodd" stroke="#474747" stroke-linecap="square" stroke-miterlimit="3.25"/><path d="m772.734375 177.167969s-10.847656 14.285156-9.554687 29.851562c-2.234376-7.453125-.429688-19.757812-.429688-19.757812l-2.359375 1.507812s-2.46875 10.523438-5.589844 12.128907c-.523437-1.25-.421875-1.710938-.421875-1.710938s-3.328125 4.289062-3.976562 4.71875c-.644532.429688.21875 14.496094.21875 14.496094s1.117187 10.203125 2.398437 10.09375c-1.464843.714844-3.261719 1.832031-3.261719 1.832031l-1.332031-27.226563 3.046875-3.0625s4.082032-4.933593 4.40625-9.769531c-1.773437 1.503907-3.761718 1.9375-3.761718 1.9375s-.539063 6.871094-2.144532 7.832031c-1.613281.96875-1.65625 2.765626-1.65625 2.765626l-.378906-8.984376zm0 0" fill="#474747" fill-rule="evenodd" stroke="#474747" stroke-linecap="square" stroke-miterlimit="3.25"/><path d="m747.929688 193.703125 2.101562 42.949219" fill="none" stroke="#000" stroke-linecap="square" stroke-miterlimit="3.25"/><path d="m721.515625 214.214844s4.933594 2.90625 6.765625 11.707031c16.101562-1.183594 21.152344 4.511719 21.152344 4.511719s13.207031-6.332032 19.335937-5.15625c2.144531-4.503906 8.261719-10.308594 8.261719-10.308594" fill="none" stroke="#000" stroke-linecap="square" stroke-miterlimit="3.25"/><path d="m714.773438 172.117188 33.15625 21.695312 29.855468-20.078125s6.226563-3.4375 5.6875-5.90625c-.527344-2.472656-2.679687-1.503906-3.757812-1.074219-1.066406.429688-31.25 21.800782-31.25 21.800782l-32.109375-20.304688s-2.359375-.742188-2.789063.753906c-.429687 1.507813.886719 2.359375 1.207032 3.113282zm0 0" fill="#b4b6b9" fill-rule="evenodd" stroke="#000" stroke-linecap="square" stroke-miterlimit="3.25"/><path d="m774.070312 166.488281s-8.488281-3.601562-8.488281-.480469c0 3.113282.238281 3.4375 1.605469 5.441407 1.359375 1.992187-1.042969 3.277343-1.042969 3.277343s-.324219-.878906-.804687-2.242187c-.480469-1.359375-5.042969-2.320313-5.4375-3.917969-.398438-1.605468.960937-4.164062-1.765625-4.480468-2.714844-.320313-5.355469 1.117187-5.917969 4.242187-.5625 3.121094-4.082031 10.398437-4.082031 10.398437l.480469-16.5625c5.976562.425782 17.070312 1.730469 25.609374 2.71875-2.558593-.398437.960938.164063.886719 1.042969-.242187.71875-1.128906.792969-1.042969.5625zm0 0" fill="#474747" fill-rule="evenodd" stroke="#474747" stroke-linecap="square" stroke-miterlimit="3.25"/><path d="m744.054688 162.324219c-1.515626 0-9.125.875-11.046876 2.003906-1.921874 1.117187 3.121094 2.871094 2.484376 4.394531-.636719 1.523438-.722657 4.5625-3.121094 3.925782-2.402344-.644532-10.484375-4.644532-10.722656-6.003907-.242188-1.355469-1.921876-1.441406-1.921876-1.441406s23.210938-3.121094 24.328126-2.878906zm0 0" fill="#474747" fill-rule="evenodd" stroke="#474747" stroke-linecap="square" stroke-miterlimit="3.25"/><path d="m747.714844 160.417969-.058594 20.351562" fill="none" stroke="#000" stroke-linecap="square" stroke-miterlimit="3.25"/><path d="m732.039062 136.441406s-9.296874 15.09375-9.480468 15.558594" fill="none" stroke="#000" stroke-linecap="square" stroke-miterlimit="3.25"/><path d="m749.171875 136.066406s4.046875 5.523438 3.582031 7.089844c1.65625 1.289062 3.503906 6.449219 3.503906 6.449219" fill="none" stroke="#000" stroke-linecap="square" stroke-miterlimit="3.25"/><path d="m764.820312 135.148438s-8.746093 12.335937-8.472656 13.257812" fill="none" stroke="#000" stroke-linecap="square" stroke-miterlimit="3.25"/><path d="m720.015625 76.484375c-.195313.691406-1.3125.957031-2.488281.597656-1.175782-.359375-1.96875-1.210937-1.773438-1.902343.199219-.691407 1.3125-.957032 2.492188-.597657 1.175781.363281 1.96875 1.210938 1.769531 1.902344zm0 0" fill-rule="evenodd"/><path d="m723.550781 76.242188c.199219.6875 1.3125.957031 2.488281.597656 1.179688-.363282 1.972657-1.214844 1.773438-1.902344-.199219-.691406-1.3125-.957031-2.488281-.597656-1.179688.359375-1.972657 1.210937-1.773438 1.902344zm0 0" fill-rule="evenodd"/><path d="m825.917969 331.796875s-3.246094.613281-3.136719.914063c.097656.304687-9.433594.609374-9.632812.304687-.207032-.304687-1.421876 1.621094-1.421876 1.621094l1.523438-.910157s2.324219 2.425782 3.039062 2.226563c.710938-.195313-.308593.914063-.101562 1.121094.199219.195312.910156-.40625.910156-.40625l15.75-.265625zm0 0" fill="#ff7000" fill-rule="evenodd" stroke="#000" stroke-linecap="square" stroke-miterlimit="3.25"/><path d="m831.789062 336.699219-12.867187.375s-3.238281 2.9375-3.445313 3.640625c-.199218.714844 2.128907.910156 2.128907.910156l.710937 2.4375 1.625-.605469s10.9375 1.621094 20.980469-.613281c5.066406-1.773438 5.953125-3.898438 2.402344-5.191406-3.546875-1.292969-11.4375-.902344-11.535157-.953125zm0 0" fill="#ff7000" fill-rule="evenodd" stroke="#000" stroke-linecap="square" stroke-miterlimit="3.25"/><path d="m787.730469 363.097656 23.160156-1.035156-4.316406-3.660156 62.640625-2.527344-2.160156-4.976562-70.132813 2.816406 8.4375 3.941406-18.945313.5625.5625 1.972656-4.96875-.191406s5.53125 2.152344 5.722657 3.097656zm0 0" fill="#fff" fill-rule="evenodd" stroke="#000" stroke-linecap="square" stroke-miterlimit="3.25"/><path d="m813.695312 235.164062c-1.84375-.921874-9.933593-2.023437-18.953124 3.863282l.375 20.792968s13.238281-7.179687 19.679687-5.523437c-.371094-6.441406-.371094-14.714844-1.101563-19.132813" fill="none" stroke="#000" stroke-linecap="square" stroke-miterlimit="3.25"/><path d="m685.640625 298.28125-54.609375 54.21875" fill="none" stroke="#000" stroke-linecap="square" stroke-miterlimit="3.25"/><path d="m709.980469 298.679688-44.324219 58.371093" fill="none" stroke="#000" stroke-linecap="square" stroke-miterlimit="3.25"/><path d="m708.003906 283.441406-59.167968 71.632813" fill="none" stroke="#000" stroke-linecap="square" stroke-miterlimit="3.25"/><path d="m647.054688 354.078125 5.738281-6.722656" fill="none" stroke="#000" stroke-linecap="square" stroke-miterlimit="3.25"/><path d="m719.28125 319.453125-22.957031 31.664063" fill="none" stroke="#000" stroke-linecap="square" stroke-miterlimit="3.25"/><path d="m695.335938 355.273438.59375 12.0625" fill="none" stroke="#000" stroke-linecap="square" stroke-miterlimit="3.25"/><path d="m729.761719 330.53125-24.335938 30.480469" fill="none" stroke="#000" stroke-linecap="square" stroke-miterlimit="3.25"/><path d="m725.414062 358.632812 9.894532-16.226562" fill="none" stroke="#000" stroke-linecap="square" stroke-miterlimit="3.25"/><path d="m729.175781 339.242188-11.875 13.453124" fill="none" stroke="#000" stroke-linecap="square" stroke-miterlimit="3.25"/><path d="m725.613281 326.582031-8.113281 9.886719" fill="none" stroke="#000" stroke-linecap="square" stroke-miterlimit="3.25"/><path d="m715.121094 312.132812s-24.730469 36.207032-24.335938 39.179688" fill="none" stroke="#000" stroke-linecap="square" stroke-miterlimit="3.25"/><path d="m712.546875 307.390625c-.585937.386719-21.367187 27.894531-21.367187 27.894531" fill="none" stroke="#000" stroke-linecap="square" stroke-miterlimit="3.25"/><path d="m689.992188 343.988281-3.757813 4.550781" fill="none" stroke="#000" stroke-linecap="square" stroke-miterlimit="3.25"/><path d="m681.484375 355.472656-5.738281 7.515625" fill="none" stroke="#000" stroke-linecap="square" stroke-miterlimit="3.25"/><path d="m682.941406 214.941406s-1.679687 5.265625 0 7.898438c1.671875 2.636718 12.207032 23.9375 12.207032 23.9375s7.183593-8.859375 9.816406-9.097656c2.632812-.230469 1.429687 22.984374 1.429687 22.984374s-4.304687 4.066407-6.9375 3.824219c-2.632812-.238281 6.457031 9.101563 6.21875 17-.242187 7.898438-11.964843 47.15625-16.273437 47.867188-4.308594.71875 1.914062-7.179688 1.675781-9.332031-.238281-2.152344-1.4375-.71875-2.394531-3.113282-.957032-2.390625 1.4375-5.984375.957031-8.378906-.476563-2.394531-2.632813-1.914062-2.871094-3.585938-.238281-1.679687 1.4375-2.152343 1.195313-4.074218-.238282-1.910156-2.871094-1.429688-2.632813-3.113282.242188-1.671874.480469-.949218.242188-4.0625-.242188-3.113281-.71875 2.152344-3.351563 2.390626-2.632812.242187-4.789062 6.226562-4.789062 6.226562s-5.265625 7.417969-10.53125 4.066406c3.109375 6.707032.71875 9.578125-.480469 9.8125-1.195313.238282.957031 5.265625-1.914063 5.503906-2.871093.242188 2.15625 11.253907-1.195312 12.214844 3.589844 1.671875.71875 3.824219.71875 3.824219s-8.296875.695313-6.464844 11.492187c-24.414062-8.617187-36.382812-23.457031-36.144531-38.535156.242187-15.085937 5.027344-28.722656 16.757813-33.75 3.351562-12.453125 9.09375-25.855468 9.09375-25.855468s-.957032-5.507813-.238282-9.09375c.71875-3.59375 4.070313-7.175782 4.070313-7.175782s-.480469-8.621094-.238281-12.925781c.238281-4.316406 1.914062-6.226563 2.152343-8.621094.238281-2.390625-.71875-14.605469 1.675781-16.757812 2.394532-2.152344 6.941407-1.914063 9.335938-3.34375 2.390625-1.441407 5.503906-4.074219 8.617188-3.835938 3.109374.242188 5.742187 2.394531 5.742187 2.394531s11.730469 0 12.449219 4.542969c.714844 4.554688-2.394532 6.226563-2.394532 6.226563s1.675782 6.46875-5.503906 12.445312zm0 0" fill="#8a9396" fill-rule="evenodd" stroke="#2b2b2b" stroke-linecap="square" stroke-miterlimit="3.25"/><path d="m672.523438 198.359375c.378906.695313-.476563 1.882813-1.910157 2.660156-1.429687.773438-2.894531.839844-3.269531.144531-.375-.691406.480469-1.882812 1.910156-2.660156 1.429688-.773437 2.894532-.839844 3.269532-.144531zm0 0" fill="#cecfcf" fill-rule="evenodd" stroke="#2b2b2b" stroke-linecap="square" stroke-miterlimit="3.25"/><path d="m670.539062 199.570312c0 .4375-.398437.789063-.890624.789063-.492188 0-.890626-.351563-.890626-.789063s.398438-.792968.890626-.792968c.492187 0 .890624.355468.890624.792968zm0 0" fill-rule="evenodd"/><path d="m688.039062 207.492188s2.90625 12.980468-.566406 21.941406" fill="none" stroke="#2b2b2b" stroke-linecap="square" stroke-miterlimit="3.25"/><path d="m688.933594 201.8125s5.671875 7.5 4.941406 16.832031" fill="none" stroke="#2b2b2b" stroke-linecap="square" stroke-miterlimit="3.25"/><path d="m689.484375 200.164062c.183594 0 4.753906 4.023438 4.574219 6.761719" fill="none" stroke="#2b2b2b" stroke-linecap="square" stroke-miterlimit="3.25"/><path d="m690.582031 198.515625s3.109375 2.195313 3.839844 4.386719" fill="none" stroke="#2b2b2b" stroke-linecap="square" stroke-miterlimit="3.25"/><path d="m689.117188 197.230469s-11.160157 18.117187-9.695313 29.460937" fill="none" stroke="#000" stroke-linecap="square" stroke-miterlimit="3.25"/><path d="m689.847656 196.683594s-14.820312 8.785156-17.5625 37.511718" fill="none" stroke="#2b2b2b" stroke-linecap="square" stroke-miterlimit="3.25"/><path d="m688.203125 201.992188-5.855469 4.390624" fill="none" stroke="#000" stroke-linecap="square" stroke-miterlimit="3.25"/><path d="m666.796875 235.839844s8.230469-34.210938 22.871094-39.15625" fill="none" stroke="#2b2b2b" stroke-linecap="square" stroke-miterlimit="3.25"/><path d="m695.339844 247.367188s7.867187-9.878907 9.699218-9.515626c1.828126.367188 1.273438 22.871094 1.273438 22.871094s-5.851562 4.386719-7.128906 4.207032c-1.285156-.183594 6.582031 10.613281 6.402344 14.636718-.183594 4.027344-.367188 4.027344-.367188 4.027344s0-2.378906-1.828125-6.21875c-1.832031-3.84375-.738281-8.238281-12.625-17.9375-2.929687-6.035156 5.851563 3.660156 7.679687 2.195312 1.832032-1.457031-3.289062-14.082031-3.105468-14.265624zm0 0" fill="#2b2b2b" fill-rule="evenodd" stroke="#2b2b2b" stroke-linecap="square" stroke-miterlimit="3.25"/><path d="m681.351562 191.726562s-3.308593.902344-3.757812 2.25c-.453125 1.359376-2.40625 2.707032-3.457031 2.253907-1.054688-.449219-3.007813-2.105469-3.007813-2.105469" fill="none" stroke="#2b2b2b" stroke-linecap="square" stroke-miterlimit="3.25"/><path d="m662.558594 203.300781s-4.960938 4.960938-2.554688 5.5625c2.40625.597657 4.960938-3.90625 4.960938-3.90625s0 7.667969 2.105468 6.457031c2.105469-1.199218 8.265626-5.554687 8.265626-5.554687s2.105468-.15625 2.558593 0c.449219.148437 5.710938 4.652344 9.171875 3.003906-1.957031 5.109375-4.210937 5.714844-4.210937 5.714844s-3.609375 4.660156-8.269531 3.601563c-4.660157-1.050782-5.863282-3.003907-5.863282-3.003907s-3.910156.304688-5.113281-1.5c-1.199219-1.804687-1.652344-2.855469-1.652344-2.855469s-2.253906 2.25-2.855469 1.199219c-.601562-1.050781 0-7.21875 3.457032-8.71875zm0 0" fill="#2b2b2b" fill-rule="evenodd" stroke="#2b2b2b" stroke-linecap="square" stroke-miterlimit="3.25"/><path d="m690.671875 196.386719s-9.167969-2.707031-12.328125 1.804687c-3.15625 4.503906-2.402344 7.0625-.75 7.511719" fill="none" stroke="#2b2b2b" stroke-linecap="square" stroke-miterlimit="3.25"/><path d="m692.089844 196.128906c0 1.082032-.777344 1.960938-1.730469 1.960938-.957031 0-1.730469-.878906-1.730469-1.960938 0-1.078125.773438-1.957031 1.730469-1.957031.953125 0 1.730469.878906 1.730469 1.957031zm0 0" fill-rule="evenodd"/><path d="m665.398438 219.53125s3.738281 5.753906 8.195312 7.335938c4.460938 1.582031-3.089844 2.945312-7.550781-.066407-3.234375-4.390625-2.371094-7.550781-2.371094-7.550781s.863281-.871094 1.726563.28125zm0 0" fill="#2b2b2b" fill-rule="evenodd" stroke="#2b2b2b" stroke-linecap="square" stroke-miterlimit="3.25"/><path d="m697.398438 253.476562s-10.5-14.597656-13.519532-15.390624c-3.019531-.789063 2.300782-1.433594 5.539063 1.65625 3.234375 3.085937-.863281-5.035157-.863281-5.035157zm0 0" fill="#2b2b2b" fill-rule="evenodd" stroke="#2b2b2b" stroke-linecap="square" stroke-miterlimit="3.25"/><path d="m664.390625 337.835938c4.027344-1.078126 21.574219 10.066406 25.53125 12.875 3.953125 2.796874 12.226563 1 12.226563 1s-3.816407 2.300781-6.1875 2.882812c-2.371094.570312 7.046874.570312 7.046874.570312s-22.4375 6.1875-45.234374-5.820312c-2.085938-9.347656 4.890624-11.433594 6.617187-11.507812zm0 0" fill="#2b2b2b" fill-rule="evenodd" stroke="#2b2b2b" stroke-linecap="square" stroke-miterlimit="3.25"/><path d="m690.0625 257.070312s-2.945312-.570312-4.457031-2.300781c-1.511719-1.722656-3.667969-5.96875-5.898438-7.765625-2.226562-1.796875-13.375-7.910156-17.402343-7.476562-4.027344.429687-5.25-.433594-5.753907-.9375-.503906-.503906-2.15625.214844-1.871093 2.300781.289062 2.089844-3.089844 6.691406-1.867188 8.84375 1.222656 2.160156 6.976562 10.929687 8.125 11.21875 1.152344.292969.433594 5.109375.433594 5.109375s5.105468 5.175781 6.398437 5.464844c1.296875.289062 2.589844 1.226562 2.445313 2.445312-.144532 1.222656-5.609375 7.914063-5.609375 7.914063s-5.898438 3.089843-5.96875 4.820312c-.070313 1.71875 1.4375 5.3125 6.113281 6.464844s17.257812.214844 17.90625-.859375c.648438-1.078125 1.65625-7.554688 1.222656-8.199219-.429687-.644531-3.523437-2.589843-5.105468-2.300781-1.582032.289062-3.019532 1.582031-2.875 1.871094.140624.289062-2.230469 1.507812-2.230469.355468 0-1.152343 4.671875-6.324218 5.105469-5.894531.433593.429688 7.046874 1.074219 8.269531 4.386719 1.222656 3.304688 1.222656 5.679688 4.675781 5.324219 3.449219-.363281 8.269531-3.527344 8.699219-10.140625.429687-6.617188-3.882813-11.082032-4.960938-11.726563s-4.675781-2.804687-4.960937-3.808593c-.289063-1.011719-1.007813-4.3125-.433594-5.109376zm0 0" fill="#2b2b2b" fill-rule="evenodd" stroke="#2b2b2b" stroke-linecap="square" stroke-miterlimit="3.25"/><path d="m627.855469 286.273438s11.148437-2.878907 14.023437-2.804688c2.878906.066406 13.738282 5.101562 16.902344 8.195312 3.164062 3.089844 9.636719 10.425782 13.878906 9.78125 4.242188-.648437 5.464844-1.507812 5.464844-1.507812l-1.652344 3.164062s-3.453125.933594-5.179687.503907c-1.726563-.429688-5.105469-1.515625-8.484375-4.820313-3.378906-3.3125-13.808594-12.230468-22.652344-11.582031-8.847656.652344-13.953125 9.355469-13.953125 9.355469s.070313-4.246094.429687-5.183594c.359376-.933594-1.867187 2.011719-1.867187 2.011719zm0 0" fill="#2b2b2b" fill-rule="evenodd" stroke="#2b2b2b" stroke-linecap="square" stroke-miterlimit="3.25"/><path d="m668.921875 294.902344c.070313.066406 2.804687.785156 7.40625.785156s7.046875-2.011719 7.046875-2.011719l-.285156-1.796875.71875-2.515625s3.523437 3.59375 3.449218 4.3125c-.070312.722657-1.4375 1.011719-1.4375 1.011719l-.503906-1.730469-1.222656 1.515625s-6.6875 5.316406-10.355469 4.527344c-3.667969-.792969-7.046875-3.160156-6.113281-3.742188.9375-.570312 1.441406-.355468 1.296875-.355468zm0 0" fill="#2b2b2b" fill-rule="evenodd" stroke="#2b2b2b" stroke-linecap="square" stroke-miterlimit="3.25"/><path d="m652.667969 304.324219s-4.027344-.074219-5.824219.789062c-1.796875.859375-2.445312 1.945313-3.667969 1.796875-1.222656-.140625-2.15625-1.722656-1.796875-2.371094.5-1.007812 2.875-2.300781 7.40625-1.945312 4.53125.367188 3.882813 1.730469 3.882813 1.730469zm0 0" fill="#2b2b2b" fill-rule="evenodd" stroke="#2b2b2b" stroke-linecap="square" stroke-miterlimit="3.25"/><path d="m666.765625 315.253906c0-.214844-.289063-5.894531-2.519531-8.195312-2.230469-2.304688-4.960938-2.304688-6.183594-2.019532-1.222656.289063 4.53125 2.804688 5.105469 4.460938s2.445312 6.261719 1.941406 7.410156c-.503906 1.144532-1.4375-3.238281-4.960937-4.460937-3.523438-1.226563-8.414063-.574219-7.410157 1.007812 1.007813 1.582031 4.964844.140625 6.976563 3.519531 2.015625 3.378907 3.523437 6.980469 3.523437 6.980469l.648438-2.449219 1.796875-.5.214844-4.675781zm0 0" fill="#2b2b2b" fill-rule="evenodd" stroke="#2b2b2b" stroke-linecap="square" stroke-miterlimit="3.25"/><path d="m663.886719 333.660156-3.667969-7.335937s-1.152344-4.667969-4.242188-5.96875c-3.09375-1.292969-7.191406-1.078125-7.265624.503906-.070313 1.582031 6.617187 3.59375 7.050781 4.464844.429687.859375.214843 2.300781-.359375 2.367187-.578125.074219-3.523438-1.078125-5.035156-.71875-1.511719.363282-2.375 2.300782-4.601563 1.730469-2.230469-.582031-4.101563-7.695313-3.238281-8.414063.863281-.71875-1.652344 1.292969-2.15625-.578124-.503906-1.871094.71875-7.695313-.144532-8.414063-.863281-.71875-5.035156-3.238281-5.105468-3.742187-.074219-.496094.214844-28.617188 23.730468-5.316407-10.066406-11.9375-14.023437-10.648437-15.890624-10.714843-1.367188 0-10.5.789062-12.800782 12.4375-2.304687 11.648437-5.035156 4.386718-5.035156 4.386718s-.503906 5.035156 1.941406 6.476563c2.445313 1.433593-1.152344 5.605469-1.152344 5.605469s-4.386718-10.714844-3.738281-15.390626c-.863281 3.742188-.792969 13.015626 4.746094 23.15625 6.472656 6.832032 12.585937 13.167969 28.839844 20.277344 8.558593-13.082031 8.125-14.664062 8.125-14.8125zm0 0" fill="#2b2b2b" fill-rule="evenodd" stroke="#2b2b2b" stroke-linecap="square" stroke-miterlimit="3.25"/><path d="m648.496094 333.734375s4.746094.574219 6.042968 3.023437c1.292969 2.441407 1.867188 6.183594 1.867188 6.183594.792969-1.578125 1.152344-2.945312 2.734375-4.097656 1.582031-1.148438 2.734375-1.300781 2.660156-2.160156-.070312-.859375-5.035156-6.109375-7.550781-6.402344-2.515625-.289062-6.902344 2.734375-6.902344 2.734375s-.792968 1.152344 1.148438.71875zm0 0" fill="#8a9396" fill-rule="evenodd" stroke="#2b2b2b" stroke-linecap="square" stroke-miterlimit="3.25"/><path d="m659.339844 346.105469s12.300781 5.605469 32.558594 5.96875" fill="none" stroke="#8a9396" stroke-linecap="square" stroke-miterlimit="3.25"/><path d="m700.402344 289.007812s-1.050782 10.324219-8.992188 30.695313" fill="none" stroke="#2b2b2b" stroke-linecap="square" stroke-miterlimit="3.25"/><path d="m698.820312 295.359375s-2.382812 7.410156-9 12.964844" fill="none" stroke="#2b2b2b" stroke-linecap="square" stroke-miterlimit="3.25"/><path d="m0 0v27.949219l444.097656 222.050781h55.902344v-27.949219l-444.097656-222.050781zm500 0v27.949219l-444.097656 222.050781h-55.902344v-27.953125l444.097656-222.046875zm0 0" fill="#fff" fill-rule="evenodd"/><path d="m0 250 166.664062-83.335938h37.269532l-166.667969 83.335938zm0-250 166.664062 83.335938h-37.265624l-129.398438-64.703126zm296.066406 83.335938 166.667969-83.335938h37.265625l-166.664062 83.335938zm203.933594 166.664062-166.664062-83.335938h37.265624l129.398438 64.703126zm0 0" fill="#cf142b" fill-rule="evenodd"/><path d="m208.335938 0v250h83.328124v-250zm0 0" fill="#fff" stroke="#fff" stroke-linecap="square" stroke-miterlimit="3.25"/><path d="m0 83.335938v83.328124h500v-83.328124zm0 0" fill="#fff" stroke="#fff" stroke-linecap="square" stroke-miterlimit="3.25"/><path d="m0 100v50h500v-50zm0 0" fill="#cf142b" stroke="#cf142b" stroke-linecap="square" stroke-miterlimit="3.25"/><path d="m225 0v250h50v-250zm0 0" fill="#cf142b" stroke="#cf142b" stroke-linecap="square" stroke-miterlimit="3.25"/><path d="m661.472656 425.386719.664063-.792969 5.226562 4.386719 2.410157-2.875.671874.566406-3.078124 3.664063zm0 0" fill-rule="evenodd" stroke="#000" stroke-linecap="square" stroke-miterlimit="3.25"/><path d="m665.898438 420.054688 3.320312-3.5625.640625.597656-2.613281 2.804687 1.667968 1.554688 2.5-2.679688.640626.597657-2.5 2.679687 2.039062 1.902344 2.671875-2.867188.640625.597657-3.378906 3.621093zm0 0" fill-rule="evenodd" stroke="#000" stroke-linecap="square" stroke-miterlimit="3.25"/><path d="m673.835938 413.183594c-.535157.535156-.757813 1.164062-.675782 1.871094.089844.71875.476563 1.417968 1.164063 2.105468s1.382812 1.070313 2.089843 1.152344c.71875.089844 1.34375-.136719 1.882813-.671875.53125-.53125.753906-1.160156.664063-1.875-.082032-.710937-.46875-1.394531-1.15625-2.082031s-1.382813-1.085938-2.101563-1.175782c-.707031-.082031-1.335937.144532-1.867187.675782zm-.597657-.597656c.765625-.761719 1.628907-1.109376 2.601563-1.0625.96875.058593 1.875.515624 2.742187 1.382812.855469.859375 1.3125 1.761719 1.371094 2.734375.046875.96875-.296875 1.835937-1.058594 2.597656-.769531.769531-1.644531 1.117188-2.605469 1.066407-.972656-.042969-1.882812-.507813-2.742187-1.367188-.867187-.863281-1.320313-1.769531-1.371094-2.746094-.054687-.964844.296875-1.839844 1.0625-2.605468zm0 0" fill-rule="evenodd"/><path d="m673.835938 413.183594c-.535157.535156-.757813 1.164062-.675782 1.871094.089844.71875.476563 1.417968 1.164063 2.105468s1.382812 1.070313 2.089843 1.152344c.71875.089844 1.34375-.136719 1.882813-.671875.53125-.53125.753906-1.160156.664063-1.875-.082032-.710937-.46875-1.394531-1.15625-2.082031s-1.382813-1.085938-2.101563-1.175782c-.707031-.082031-1.335937.144532-1.867187.675782zm0 0" fill="none" stroke="#000" stroke-linecap="square" stroke-miterlimit="3.25"/><path d="m673.238281 412.585938c.765625-.761719 1.628907-1.109376 2.601563-1.0625.96875.058593 1.875.515624 2.742187 1.382812.855469.859375 1.3125 1.761719 1.371094 2.734375.046875.96875-.296875 1.835937-1.058594 2.597656-.769531.769531-1.644531 1.117188-2.605469 1.066407-.972656-.042969-1.882812-.507813-2.742187-1.367188-.867187-.863281-1.320313-1.769531-1.371094-2.746094-.054687-.964844.296875-1.839844 1.0625-2.605468zm0 0" fill="none" stroke="#000" stroke-linecap="square" stroke-miterlimit="3.25"/><path d="m680.96875 405.371094 5.058594-4.09375.550781.679687-2.125 1.722657 4.292969 5.300781-.8125.65625-4.292969-5.300781-2.117187 1.714843zm0 0" fill-rule="evenodd" stroke="#000" stroke-linecap="square" stroke-miterlimit="3.25"/><path d="m687.664062 400.15625 3.988282-2.792969.5.71875-3.136719 2.199219 1.304687 1.867188 3.003907-2.101563.503906.71875-3.003906 2.101563 1.597656 2.285156 3.210937-2.25.503907.71875-4.058594 2.839844zm0 0" fill-rule="evenodd" stroke="#000" stroke-linecap="square" stroke-miterlimit="3.25"/><path d="m699.203125 397.570312c.238281-.050781.5-.019531.808594.09375.304687.105469.65625.292969 1.054687.5625l1.972656 1.285157-.96875.558593-1.84375-1.210937c-.476562-.3125-.859374-.496094-1.152343-.519531-.289063-.03125-.613281.058594-.96875.265625l-.988281.570312 1.625 2.816407-.894532.519531-3.851562-6.667969 2.03125-1.171875c.769531-.441406 1.429687-.605469 1.988281-.503906.5625.105469 1.019531.476562 1.390625 1.117187.242188.417969.351562.816406.3125 1.21875-.03125.386719-.207031.742188-.515625 1.066406zm-3.878906-1.496093 1.363281 2.363281 1.136719-.65625c.4375-.253906.707031-.542969.8125-.871094.101562-.328125.042969-.683594-.183594-1.078125-.222656-.382812-.5-.613281-.835937-.6875-.335938-.074219-.71875.023438-1.15625.277344zm0 0" fill-rule="evenodd"/><path d="m699.203125 397.570312c.238281-.050781.5-.019531.808594.09375.304687.105469.65625.292969 1.054687.5625l1.972656 1.285157-.96875.558593-1.84375-1.210937c-.476562-.3125-.859374-.496094-1.152343-.519531-.289063-.03125-.613281.058594-.96875.265625l-.988281.570312 1.625 2.816407-.894532.519531-3.851562-6.667969 2.03125-1.171875c.769531-.441406 1.429687-.605469 1.988281-.503906.5625.105469 1.019531.476562 1.390625 1.117187.242188.417969.351562.816406.3125 1.21875-.03125.386719-.207031.742188-.515625 1.066406zm0 0" fill="none" stroke="#000" stroke-linecap="square" stroke-miterlimit="3.25"/><path d="m695.324219 396.074219 1.363281 2.363281 1.136719-.65625c.4375-.253906.707031-.542969.8125-.871094.101562-.328125.042969-.683594-.183594-1.078125-.222656-.382812-.5-.613281-.835937-.6875-.335938-.074219-.71875.023438-1.15625.277344zm0 0" fill="none" stroke="#000" stroke-linecap="square" stroke-miterlimit="3.25"/><path d="m706.613281 394.074219c.242188-.027344.5.03125.796875.175781.289063.136719.621094.359375.988282.667969l1.828124 1.484375-1.019531.457031-1.710937-1.398437c-.4375-.363282-.800782-.582032-1.09375-.636719-.28125-.058594-.613282-.003907-.988282.164062l-1.042968.464844 1.324218 2.96875-.945312.421875-3.132812-7.03125 2.144531-.953125c.808593-.363281 1.484375-.453125 2.027343-.292969.546876.160156.964844.578125 1.265626 1.253906.195312.441407.261718.851563.183593 1.246094-.070312.378906-.28125.714844-.625 1.007813zm-3.699219-1.894531 1.109376 2.492187 1.195312-.535156c.464844-.203125.761719-.464844.902344-.78125.136718-.3125.113281-.675781-.070313-1.089844-.179687-.40625-.433593-.664063-.757812-.773437-.328125-.109376-.71875-.050782-1.179688.15625zm0 0" fill-rule="evenodd"/><path d="m706.613281 394.074219c.242188-.027344.5.03125.796875.175781.289063.136719.621094.359375.988282.667969l1.828124 1.484375-1.019531.457031-1.710937-1.398437c-.4375-.363282-.800782-.582032-1.09375-.636719-.28125-.058594-.613282-.003907-.988282.164062l-1.042968.464844 1.324218 2.96875-.945312.421875-3.132812-7.03125 2.144531-.953125c.808593-.363281 1.484375-.453125 2.027343-.292969.546876.160156.964844.578125 1.265626 1.253906.195312.441407.261718.851563.183593 1.246094-.070312.378906-.28125.714844-.625 1.007813zm0 0" fill="none" stroke="#000" stroke-linecap="square" stroke-miterlimit="3.25"/><path d="m702.914062 392.179688 1.109376 2.492187 1.195312-.535156c.464844-.203125.761719-.464844.902344-.78125.136718-.3125.113281-.675781-.070313-1.089844-.179687-.40625-.433593-.664063-.757812-.773437-.328125-.109376-.71875-.050782-1.179688.15625zm0 0" fill="none" stroke="#000" stroke-linecap="square" stroke-miterlimit="3.25"/><path d="m712.972656 388.488281-.15625 4.066407 2.691406-.871094zm-.875-.804687 1.117188-.363282 5.171875 6.414063-1.027344.332031-1.28125-1.660156-3.292969 1.070312-.066406 2.097657-1.042969.339843zm0 0" fill-rule="evenodd"/><path d="m712.972656 388.488281-.15625 4.066407 2.691406-.871094zm0 0" fill="none" stroke="#000" stroke-linecap="square" stroke-miterlimit="3.25"/><path d="m712.097656 387.683594 1.117188-.363282 5.171875 6.414063-1.027344.332031-1.28125-1.660156-3.292969 1.070312-.066406 2.097657-1.042969.339843zm0 0" fill="none" stroke="#000" stroke-linecap="square" stroke-miterlimit="3.25"/><path d="m718.117188 385.78125 1.5-.402344 3.257812 4.5625.546875-5.582031 1.5-.402344 1.992187 7.4375-.988281.265625-1.75-6.527344-.550781 5.613282-1.011719.269531-3.28125-4.585937 1.746094 6.527343-.96875.261719zm0 0" fill-rule="evenodd" stroke="#000" stroke-linecap="square" stroke-miterlimit="3.25"/><path d="m735.589844 382.464844.5 2.839844 1.289062-.226563c.476563-.085937.832032-.265625 1.046875-.558594.21875-.296875.28125-.671875.199219-1.128906-.078125-.449219-.265625-.78125-.570312-.984375-.304688-.203125-.699219-.253906-1.175782-.167969zm-1.171875-.671875 2.3125-.40625c.847656-.152344 1.53125-.066407 2.035156.238281.496094.3125.8125.832031.941406 1.574219.132813.75.015625 1.359375-.347656 1.808593-.367187.460938-.976563.773438-1.828125.921876l-1.292969.230468.535157 3.035156-1.015626.179688zm0 0" fill-rule="evenodd"/><path d="m735.589844 382.464844.5 2.839844 1.289062-.226563c.476563-.085937.832032-.265625 1.046875-.558594.21875-.296875.28125-.671875.199219-1.128906-.078125-.449219-.265625-.78125-.570312-.984375-.304688-.203125-.699219-.253906-1.175782-.167969zm0 0" fill="none" stroke="#000" stroke-linecap="square" stroke-miterlimit="3.25"/><path d="m734.417969 381.792969 2.3125-.40625c.847656-.152344 1.53125-.066407 2.035156.238281.496094.3125.8125.832031.941406 1.574219.132813.75.015625 1.359375-.347656 1.808593-.367187.460938-.976563.773438-1.828125.921876l-1.292969.230468.535157 3.035156-1.015626.179688zm0 0" fill="none" stroke="#000" stroke-linecap="square" stroke-miterlimit="3.25"/><path d="m745.316406 384.351562c.242188.046876.46875.179688.707032.40625.238281.21875.484374.527344.746093.9375l1.296875 1.964844-1.113281.125-1.210937-1.847656c-.308594-.476562-.589844-.792969-.847657-.933594-.253906-.140625-.585937-.1875-.996093-.140625l-1.132813.128907.367187 3.230468-1.027343.117188-.871094-7.648438 2.328125-.265625c.882812-.101562 1.554688.015625 2.027344.332031.472656.320313.742187.839844.828125 1.574219.054687.484375-.003907.894531-.199219 1.246094-.183594.339844-.484375.597656-.902344.773437zm-2.957031-2.917968.308594 2.707031 1.300781-.148437c.503906-.054688.867188-.214844 1.09375-.472657.226562-.261719.3125-.609375.261719-1.0625-.050781-.441406-.214844-.761719-.492188-.964843-.277343-.203126-.667969-.265626-1.171875-.207032zm0 0" fill-rule="evenodd"/><path d="m745.316406 384.351562c.242188.046876.46875.179688.707032.40625.238281.21875.484374.527344.746093.9375l1.296875 1.964844-1.113281.125-1.210937-1.847656c-.308594-.476562-.589844-.792969-.847657-.933594-.253906-.140625-.585937-.1875-.996093-.140625l-1.132813.128907.367187 3.230468-1.027343.117188-.871094-7.648438 2.328125-.265625c.882812-.101562 1.554688.015625 2.027344.332031.472656.320313.742187.839844.828125 1.574219.054687.484375-.003907.894531-.199219 1.246094-.183594.339844-.484375.597656-.902344.773437zm0 0" fill="none" stroke="#000" stroke-linecap="square" stroke-miterlimit="3.25"/><path d="m742.359375 381.433594.308594 2.707031 1.300781-.148437c.503906-.054688.867188-.214844 1.09375-.472657.226562-.261719.3125-.609375.261719-1.0625-.050781-.441406-.214844-.761719-.492188-.964843-.277343-.203126-.667969-.265626-1.171875-.207032zm0 0" fill="none" stroke="#000" stroke-linecap="square" stroke-miterlimit="3.25"/><path d="m752.726562 380.503906c-.761718.027344-1.351562.332032-1.773437.90625-.425781.585938-.617187 1.367188-.585937 2.335938.035156.972656.28125 1.722656.746093 2.269531.464844.554687 1.074219.816406 1.832031.789063.75-.027344 1.34375-.332032 1.765626-.917969.425781-.574219.609374-1.339844.574218-2.3125-.035156-.96875-.269531-1.734375-.734375-2.289063-.460937-.542968-1.074219-.808594-1.824219-.78125zm-.03125-.84375c1.078126-.039062 1.949219.300782 2.625 1 .671876.703125 1.019532 1.652344 1.0625 2.875.042969 1.214844-.238281 2.1875-.859374 2.9375-.628907.738282-1.46875 1.140625-2.546876 1.179688-1.085937.035156-1.964843-.304688-2.632812-1-.679688-.691406-1.03125-1.652344-1.074219-2.867188-.042969-1.222656.242188-2.195312.871094-2.945312.617187-.742188 1.46875-1.140625 2.554687-1.179688zm0 0" fill-rule="evenodd"/><path d="m752.726562 380.503906c-.761718.027344-1.351562.332032-1.773437.90625-.425781.585938-.617187 1.367188-.585937 2.335938.035156.972656.28125 1.722656.746093 2.269531.464844.554687 1.074219.816406 1.832031.789063.75-.027344 1.34375-.332032 1.765626-.917969.425781-.574219.609374-1.339844.574218-2.3125-.035156-.96875-.269531-1.734375-.734375-2.289063-.460937-.542968-1.074219-.808594-1.824219-.78125zm0 0" fill="none" stroke="#000" stroke-linecap="square" stroke-miterlimit="3.25"/><path d="m752.695312 379.660156c1.078126-.039062 1.949219.300782 2.625 1 .671876.703125 1.019532 1.652344 1.0625 2.875.042969 1.214844-.238281 2.1875-.859374 2.9375-.628907.738282-1.46875 1.140625-2.546876 1.179688-1.085937.035156-1.964843-.304688-2.632812-1-.679688-.691406-1.03125-1.652344-1.074219-2.867188-.042969-1.222656.242188-2.195312.871094-2.945312.617187-.742188 1.46875-1.140625 2.554687-1.179688zm0 0" fill="none" stroke="#000" stroke-linecap="square" stroke-miterlimit="3.25"/><path d="m759.402344 380.535156v2.882813h1.308594c.488281 0 .867187-.117188 1.128906-.367188.265625-.253906.390625-.613281.390625-1.078125 0-.453125-.125-.8125-.390625-1.066406-.261719-.253906-.640625-.371094-1.128906-.371094zm-1.035156-.863281h2.34375c.867187 0 1.519531.199219 1.964843.589844.433594.390625.65625.960937.65625 1.710937 0 .761719-.222656 1.339844-.65625 1.71875-.445312.394532-1.097656.59375-1.964843.59375h-1.308594v3.082032h-1.035156zm0 0" fill-rule="evenodd"/><path d="m759.402344 380.535156v2.882813h1.308594c.488281 0 .867187-.117188 1.128906-.367188.265625-.253906.390625-.613281.390625-1.078125 0-.453125-.125-.8125-.390625-1.066406-.261719-.253906-.640625-.371094-1.128906-.371094zm0 0" fill="none" stroke="#000" stroke-linecap="square" stroke-miterlimit="3.25"/><path d="m758.367188 379.671875h2.34375c.867187 0 1.519531.199219 1.964843.589844.433594.390625.65625.960937.65625 1.710937 0 .761719-.222656 1.339844-.65625 1.71875-.445312.394532-1.097656.59375-1.964843.59375h-1.308594v3.082032h-1.035156zm0 0" fill="none" stroke="#000" stroke-linecap="square" stroke-miterlimit="3.25"/><path d="m768.941406 384.390625c.222656.097656.421875.273437.609375.542969.1875.261718.371094.613281.542969 1.066406l.878906 2.183594-1.117187-.097656-.816407-2.050782c-.207031-.527344-.417968-.898437-.648437-1.085937-.214844-.191407-.535156-.300781-.945313-.335938l-1.136718-.101562-.28125 3.238281-1.03125-.089844.671875-7.667968 2.335937.207031c.882813.074219 1.519532.320312 1.917969.726562s.5625.972657.496094 1.710938c-.042969.480469-.183594.871093-.441407 1.179687-.25.296875-.59375.488282-1.035156.574219zm-2.320312-3.445313-.234375 2.714844 1.304687.113282c.503906.046874.890625-.039063 1.164063-.246094.273437-.210938.429687-.535156.46875-.988282.039062-.441406-.058594-.789062-.289063-1.042968-.234375-.253906-.601562-.394532-1.109375-.4375zm0 0" fill-rule="evenodd"/><path d="m768.941406 384.390625c.222656.097656.421875.273437.609375.542969.1875.261718.371094.613281.542969 1.066406l.878906 2.183594-1.117187-.097656-.816407-2.050782c-.207031-.527344-.417968-.898437-.648437-1.085937-.214844-.191407-.535156-.300781-.945313-.335938l-1.136718-.101562-.28125 3.238281-1.03125-.089844.671875-7.667968 2.335937.207031c.882813.074219 1.519532.320312 1.917969.726562s.5625.972657.496094 1.710938c-.042969.480469-.183594.871093-.441407 1.179687-.25.296875-.59375.488282-1.035156.574219zm0 0" fill="none" stroke="#000" stroke-linecap="square" stroke-miterlimit="3.25"/><path d="m766.621094 380.945312-.234375 2.714844 1.304687.113282c.503906.046874.890625-.039063 1.164063-.246094.273437-.210938.429687-.535156.46875-.988282.039062-.441406-.058594-.789062-.289063-1.042968-.234375-.253906-.601562-.394532-1.109375-.4375zm0 0" fill="none" stroke="#000" stroke-linecap="square" stroke-miterlimit="3.25"/><path d="m774.230469 380.835938 1.019531.160156-1.203125 7.605468-1.019531-.164062zm0 0" fill-rule="evenodd" stroke="#000" stroke-linecap="square" stroke-miterlimit="3.25"/><path d="m780.820312 383.007812-2.167968 3.445313 2.769531.589844zm-.351562-1.132812 1.144531.242188 1.273438 8.140624-1.054688-.222656-.28125-2.078125-3.386719-.71875-1.105468 1.78125-1.074219-.226562zm0 0" fill-rule="evenodd"/><path d="m780.820312 383.007812-2.167968 3.445313 2.769531.589844zm0 0" fill="none" stroke="#000" stroke-linecap="square" stroke-miterlimit="3.25"/><path d="m780.46875 381.875 1.144531.242188 1.273438 8.140624-1.054688-.222656-.28125-2.078125-3.386719-.71875-1.105468 1.78125-1.074219-.226562zm0 0" fill="none" stroke="#000" stroke-linecap="square" stroke-miterlimit="3.25"/><path d="m787.132812 383.429688 1.480469.46875.296875 5.59375 3.460938-4.410157 1.480468.464844-2.316406 7.34375-.976562-.308594 2.03125-6.445312-3.480469 4.4375-.996094-.316407-.304687-5.628906-2.03125 6.445313-.957032-.304688zm0 0" fill-rule="evenodd" stroke="#000" stroke-linecap="square" stroke-miterlimit="3.25"/><path d="m787.132812 383.429688 1.480469.46875.296875 5.59375 3.460938-4.410157 1.480468.464844-2.316406 7.34375-.976562-.308594 2.03125-6.445312-3.480469 4.4375-.996094-.316407-.304687-5.628906-2.03125 6.445313-.957032-.304688zm0 0" fill-rule="evenodd" stroke="#000" stroke-linecap="square" stroke-miterlimit="3.25"/><path d="m801.839844 389.308594-1.105469 2.664062 1.210937.5c.449219.1875.84375.222656 1.183594.09375.34375-.136718.597656-.417968.773438-.847656.175781-.417969.195312-.800781.050781-1.136719-.148437-.332031-.453125-.585937-.902344-.773437zm-.625-1.195313 2.167968.898438c.796876.328125 1.324219.765625 1.585938 1.296875.25.527344.238281 1.136718-.050781 1.832031-.289063.703125-.714844 1.152344-1.261719 1.339844-.558594.191406-1.242188.125-2.042969-.207031l-1.207031-.5-1.179688 2.847656-.957031-.394532zm0 0" fill-rule="evenodd"/><path d="m801.839844 389.308594-1.105469 2.664062 1.210937.5c.449219.1875.84375.222656 1.183594.09375.34375-.136718.597656-.417968.773438-.847656.175781-.417969.195312-.800781.050781-1.136719-.148437-.332031-.453125-.585937-.902344-.773437zm0 0" fill="none" stroke="#000" stroke-linecap="square" stroke-miterlimit="3.25"/><path d="m801.214844 388.113281 2.167968.898438c.796876.328125 1.324219.765625 1.585938 1.296875.25.527344.238281 1.136718-.050781 1.832031-.289063.703125-.714844 1.152344-1.261719 1.339844-.558594.191406-1.242188.125-2.042969-.207031l-1.207031-.5-1.179688 2.847656-.957031-.394532zm0 0" fill="none" stroke="#000" stroke-linecap="square" stroke-miterlimit="3.25"/><path d="m808.898438 396.121094c.171874.171875.28125.414062.351562.734375.070312.316406.097656.710937.082031 1.195312l-.042969 2.351563-.988281-.523438.046875-2.207031c.015625-.570313-.035156-.992187-.171875-1.253906-.125-.257813-.375-.484375-.738281-.679688l-1.003906-.535156-1.527344 2.871094-.914062-.484375 3.613281-6.796875 2.070312 1.101562c.78125.414063 1.269531.890625 1.480469 1.417969.207031.53125.136719 1.113281-.210938 1.769531-.226562.425781-.507812.730469-.867187.910157-.34375.175781-.738281.21875-1.179687.128906zm-.785157-4.078125-1.28125 2.40625 1.15625.613281c.449219.238281.839844.3125 1.171875.226562.332032-.085937.601563-.324218.816406-.726562.207032-.390625.253907-.75.140626-1.070312-.113282-.328126-.402344-.597657-.847657-.835938zm0 0" fill-rule="evenodd"/><path d="m808.898438 396.121094c.171874.171875.28125.414062.351562.734375.070312.316406.097656.710937.082031 1.195312l-.042969 2.351563-.988281-.523438.046875-2.207031c.015625-.570313-.035156-.992187-.171875-1.253906-.125-.257813-.375-.484375-.738281-.679688l-1.003906-.535156-1.527344 2.871094-.914062-.484375 3.613281-6.796875 2.070312 1.101562c.78125.414063 1.269531.890625 1.480469 1.417969.207031.53125.136719 1.113281-.210938 1.769531-.226562.425781-.507812.730469-.867187.910157-.34375.175781-.738281.21875-1.179687.128906zm0 0" fill="none" stroke="#000" stroke-linecap="square" stroke-miterlimit="3.25"/><path d="m808.113281 392.042969-1.28125 2.40625 1.15625.613281c.449219.238281.839844.3125 1.171875.226562.332032-.085937.601563-.324218.816406-.726562.207032-.390625.253907-.75.140626-1.070312-.113282-.328126-.402344-.597657-.847657-.835938zm0 0" fill="none" stroke="#000" stroke-linecap="square" stroke-miterlimit="3.25"/><path d="m816.667969 396.542969c-.652344-.394531-1.316407-.457031-1.984375-.207031-.671875.261718-1.257813.808593-1.761719 1.640624-.5.832032-.703125 1.597657-.609375 2.304688.085938.71875.457031 1.273438 1.109375 1.664062.640625.386719 1.304687.453126 1.976563.191407.667968-.25 1.242187-.792969 1.742187-1.625.5-.835938.714844-1.605469.628906-2.320313-.089843-.707031-.457031-1.261718-1.101562-1.648437zm.433593-.726563c.925782.554688 1.46875 1.3125 1.65625 2.265625.179688.957031-.042968 1.945313-.675781 2.992188-.625 1.042969-1.390625 1.703125-2.320312 1.996093-.929688.277344-1.855469.15625-2.777344-.398437-.933594-.5625-1.484375-1.324219-1.664063-2.273437-.191406-.953126.035157-1.949219.660157-2.988282.632812-1.050781 1.398437-1.710937 2.335937-1.996094.921875-.285156 1.855469-.15625 2.785156.402344zm0 0" fill-rule="evenodd"/><path d="m816.667969 396.542969c-.652344-.394531-1.316407-.457031-1.984375-.207031-.671875.261718-1.257813.808593-1.761719 1.640624-.5.832032-.703125 1.597657-.609375 2.304688.085938.71875.457031 1.273438 1.109375 1.664062.640625.386719 1.304687.453126 1.976563.191407.667968-.25 1.242187-.792969 1.742187-1.625.5-.835938.714844-1.605469.628906-2.320313-.089843-.707031-.457031-1.261718-1.101562-1.648437zm0 0" fill="none" stroke="#000" stroke-linecap="square" stroke-miterlimit="3.25"/><path d="m817.101562 395.816406c.925782.554688 1.46875 1.3125 1.65625 2.265625.179688.957031-.042968 1.945313-.675781 2.992188-.625 1.042969-1.390625 1.703125-2.320312 1.996093-.929688.277344-1.855469.15625-2.777344-.398437-.933594-.5625-1.484375-1.324219-1.664063-2.273437-.191406-.953126.035157-1.949219.660157-2.988282.632812-1.050781 1.398437-1.710937 2.335937-1.996094.921875-.285156 1.855469-.15625 2.785156.402344zm0 0" fill="none" stroke="#000" stroke-linecap="square" stroke-miterlimit="3.25"/><path d="m820.9375 397.890625 5.195312 3.917969-.527343.699218-2.183594-1.648437-4.105469 5.449219-.832031-.628906 4.101563-5.449219-2.175782-1.640625zm0 0" fill-rule="evenodd" stroke="#000" stroke-linecap="square" stroke-miterlimit="3.25"/><path d="m827.683594 402.945312 3.671875 3.195313-.574219.660156-2.894531-2.515625-1.496094 1.722656 2.765625 2.402344-.574219.664063-2.765625-2.40625-1.828125 2.105469 2.957031 2.570312-.574218.660156-3.738282-3.25zm0 0" fill-rule="evenodd" stroke="#000" stroke-linecap="square" stroke-miterlimit="3.25"/><path d="m832.179688 415.773438 1.457031-1.457032-1.203125-1.203125.605468-.605469 1.925782 1.929688-2.335938 2.335938c-.488281-.082032-.949218-.246094-1.398437-.484376-.449219-.238281-.859375-.546874-1.253907-.941406-.851562-.851562-1.261718-1.769531-1.246093-2.742187.019531-.976563.46875-1.902344 1.359375-2.792969.886718-.886719 1.820312-1.34375 2.796875-1.367188.972656-.011718 1.890625.398438 2.742187 1.25.359375.355469.648438.738282.882813 1.148438.230469.410156.394531.828125.492187 1.269531l-.785156.785157c-.035156-.5-.148438-.972657-.34375-1.390626-.1875-.425781-.449219-.804687-.785156-1.140624-.664063-.664063-1.351563-.980469-2.058594-.941407-.710938.035157-1.425781.425781-2.164062 1.164063-.734376.734375-1.125 1.449218-1.160157 2.15625-.039062.710937.277344 1.398437.941407 2.0625.261718.261718.515624.472656.761718.628906s.507813.269531.769532.335938zm0 0" fill-rule="evenodd" stroke="#000" stroke-linecap="square" stroke-miterlimit="3.25"/><path d="m840.667969 415.90625-3.664063 1.773438 2.035156 1.964843zm.300781-1.148438.84375.8125-3.234375 7.578126-.773437-.746094.859374-1.914063-2.492187-2.40625-1.878906.929688-.789063-.761719zm0 0" fill-rule="evenodd"/><path d="m840.667969 415.90625-3.664063 1.773438 2.035156 1.964843zm0 0" fill="none" stroke="#000" stroke-linecap="square" stroke-miterlimit="3.25"/><path d="m840.96875 414.757812.84375.8125-3.234375 7.578126-.773437-.746094.859374-1.914063-2.492187-2.40625-1.878906.929688-.789063-.761719zm0 0" fill="none" stroke="#000" stroke-linecap="square" stroke-miterlimit="3.25"/><path d="m844.25 418.386719 4.4375 4.757812-.640625.597657-1.867187-2-4.988282 4.648437-.710937-.761719 4.988281-4.652344-1.859375-1.992187zm0 0" fill-rule="evenodd" stroke="#000" stroke-linecap="square" stroke-miterlimit="3.25"/></svg>