<svg viewBox="0 0 1000 500" xmlns="http://www.w3.org/2000/svg"><path d="m0 0h1000v500h-1000z" fill="#12ad2b"/><g fill-rule="evenodd"><path d="m0 142.855469h1000v214.289062h-1000zm0 0" fill="#ffce00"/><path d="m0 0v500l250-250zm0 0" fill="#d21034"/><path d="m500 178.570312-22.070312 67.933594 33.964843 11.035156zm0 0"/><path d="m500 178.570312 22.070312 67.933594-33.964843 11.035156zm0 0"/><path d="m567.933594 227.929688h-71.429688v35.710937zm0 0"/><path d="m567.933594 227.929688-57.789063 41.980468-20.992187-28.890625zm0 0"/><path d="m541.984375 307.785156-22.074219-67.929687-33.964844 11.035156zm0 0"/><path d="m541.984375 307.785156-57.785156-41.984375 20.992187-28.890625zm0 0"/><path d="m458.015625 307.785156 57.785156-41.984375-20.992187-28.890625zm0 0"/><path d="m458.015625 307.785156 22.074219-67.929687 33.964844 11.035156zm0 0"/><path d="m432.066406 227.929688 57.789063 41.980468 20.992187-28.890625zm0 0"/><path d="m432.066406 227.929688h71.429688v35.710937zm0 0"/><path d="m750 178.570312-22.070312 67.933594 33.964843 11.035156zm0 0"/><path d="m750 178.570312 22.070312 67.933594-33.964843 11.035156zm0 0"/><path d="m817.933594 227.929688h-71.429688v35.710937zm0 0"/><path d="m817.933594 227.929688-57.789063 41.980468-20.992187-28.890625zm0 0"/><path d="m791.984375 307.785156-22.074219-67.929687-33.964844 11.035156zm0 0"/><path d="m791.984375 307.785156-57.785156-41.984375 20.992187-28.890625zm0 0"/><path d="m708.015625 307.785156 57.785156-41.984375-20.992187-28.890625zm0 0"/><path d="m708.015625 307.785156 22.074219-67.929687 33.964844 11.035156zm0 0"/><path d="m682.066406 227.929688 57.789063 41.980468 20.992187-28.890625zm0 0"/><path d="m682.066406 227.929688h71.429688v35.710937zm0 0"/></g></svg>