<svg viewBox="0 0 1000 500" xmlns="http://www.w3.org/2000/svg"><path d="m0 0h1000v500h-1000z" fill="#00247d"/><g fill-rule="evenodd"><path d="m182.984375 431.8125c-9.960937-.082031 93.679687-55.238281 180.429687-125.886719 113.691407-92.59375 358.554688-240.835937 430.539063-264.929687 7.523437-2.515625-15.433594 12.820312-18.410156 17.789062-76.855469 90.964844-15.515625 262.625 80.539062 348.914063 28.882813 22.089843 27.40625 23.25 80.949219 25.414062v5zm0 0" fill="#fed100"/><path d="m176.734375 441.847656s-7.3125 5.222656-7.289063 9.113282c.023438 4.316406 8.203126 10.023437 8.203126 10.023437l743.746093 8.207031 13.671875-9.117187-19.140625-11.847657zm0 0" fill="#fed100"/><path d="m190.53125 54.421875v12.5l25-12.5zm0 0" fill="#fff"/><path d="m195.308594 69.117188-7.351563-10.113282 27.574219-4.582031zm0 0" fill="#fff"/><path d="m190.53125 54.421875v12.5l-25-12.5zm0 0" fill="#fff"/><path d="m185.753906 69.117188 7.351563-10.113282-27.574219-4.582031zm0 0" fill="#fff"/><path d="m198.253906 60.035156-11.886718 3.863282 19.613281 19.914062zm0 0" fill="#fff"/><path d="m185.753906 69.117188 7.351563-10.113282 12.875 24.808594zm0 0" fill="#fff"/><path d="m182.808594 60.035156 11.886718 3.863282-4.164062-27.640626zm0 0" fill="#fff"/><path d="m198.253906 60.035156-11.886718 3.863282 4.164062-27.640626zm0 0" fill="#fff"/><path d="m182.808594 60.035156 11.886718 3.863282-19.613281 19.914062zm0 0" fill="#fff"/><path d="m195.308594 69.117188-7.351563-10.113282-12.875 24.808594zm0 0" fill="#fff"/><path d="m289.558594 141.859375v10.417969l20.832031-10.417969zm0 0" fill="#fff"/><path d="m293.535156 154.105469-6.121094-8.429688 22.976563-3.816406zm0 0" fill="#fff"/><path d="m289.558594 141.859375v10.417969l-20.832032-10.417969zm0 0" fill="#fff"/><path d="m285.578125 154.105469 6.125-8.429688-22.976563-3.816406zm0 0" fill="#fff"/><path d="m295.996094 146.535156-9.90625 3.21875 16.34375 16.59375zm0 0" fill="#fff"/><path d="m285.578125 154.105469 6.125-8.429688 10.730469 20.671875zm0 0" fill="#fff"/><path d="m283.117188 146.535156 9.910156 3.21875-3.46875-23.03125zm0 0" fill="#fff"/><path d="m295.996094 146.535156-9.90625 3.21875 3.46875-23.03125zm0 0" fill="#fff"/><path d="m283.117188 146.535156 9.910156 3.21875-16.34375 16.59375zm0 0" fill="#fff"/><path d="m293.535156 154.105469-6.121094-8.429688-10.730468 20.671875zm0 0" fill="#fff"/><path d="m75 170.660156v12.5l25-12.5zm0 0" fill="#fff"/><path d="m79.773438 185.355469-7.34375-10.113281 27.570312-4.582032zm0 0" fill="#fff"/><path d="m75 170.660156v12.5l-25-12.5zm0 0" fill="#fff"/><path d="m70.226562 185.355469 7.34375-10.113281-27.570312-4.582032zm0 0" fill="#fff"/><path d="m82.726562 176.273438-11.890624 3.863281 19.617187 19.910156zm0 0" fill="#fff"/><path d="m70.226562 185.355469 7.34375-10.113281 12.882813 24.804687zm0 0" fill="#fff"/><path d="m67.273438 176.273438 11.890624 3.863281-4.164062-27.640625zm0 0" fill="#fff"/><path d="m82.726562 176.273438-11.890624 3.863281 4.164062-27.640625zm0 0" fill="#fff"/><path d="m67.273438 176.273438 11.890624 3.863281-19.617187 19.910156zm0 0" fill="#fff"/><path d="m79.773438 185.355469-7.34375-10.113281-12.882813 24.804687zm0 0" fill="#fff"/><path d="m190.53125 353.066406v14.585938l29.164062-14.585938zm0 0" fill="#fff"/><path d="m196.101562 370.210938-8.570312-11.796876 32.164062-5.347656zm0 0" fill="#fff"/><path d="m190.53125 353.066406v14.585938l-29.167969-14.585938zm0 0" fill="#fff"/><path d="m184.960938 370.210938 8.574218-11.796876-32.171875-5.347656zm0 0" fill="#fff"/><path d="m199.542969 359.617188-13.867188 4.503906 22.882813 23.234375zm0 0" fill="#fff"/><path d="m184.960938 370.210938 8.574218-11.796876 15.023438 28.941407zm0 0" fill="#fff"/><path d="m181.519531 359.617188 13.867188 4.503906-4.855469-32.246094zm0 0" fill="#fff"/><path d="m199.542969 359.617188-13.867188 4.503906 4.855469-32.246094zm0 0" fill="#fff"/><path d="m181.519531 359.617188 13.867188 4.503906-22.882813 23.234375zm0 0" fill="#fff"/><path d="m196.101562 370.210938-8.570312-11.796876-15.027344 28.941407zm0 0" fill="#fff"/></g></svg>