<svg viewBox="0 0 1000 667" xmlns="http://www.w3.org/2000/svg" xmlns:xlink="http://www.w3.org/1999/xlink"><clipPath id="a"><path d="m0 0h1000v666.71875h-1000zm0 0"/></clipPath><g clip-path="url(#a)"><path d="m0 666.667969v-666.667969h1000v666.667969zm0 0" fill="#e70013" fill-rule="evenodd"/></g><g fill-rule="evenodd"><path d="m666.667969 333.332031c0 92.050781-74.617188 166.667969-166.667969 166.667969s-166.667969-74.617188-166.667969-166.667969c0-92.046875 74.617188-166.664062 166.667969-166.664062s166.667969 74.617187 166.667969 166.664062zm0 0" fill="#fff"/><path d="m625 333.332031c0 69.035157-55.964844 125-125 125s-125-55.964843-125-125c0-69.03125 55.964844-125 125-125s125 55.96875 125 125zm0 0" fill="#e70013"/><path d="m633.332031 333.332031c0 55.230469-44.769531 100-100 100-55.226562 0-100-44.769531-100-100 0-55.226562 44.773438-100 100-100 55.230469 0 100 44.773438 100 100zm0 0" fill="#fff"/></g><path d="m510.15625 350.171875v54.492187l32.03125-44.085937 51.824219 16.839844-32.03125-44.085938 32.03125-44.082031-51.824219 16.839844-32.03125-44.085938v54.492188l-51.824219 16.835937zm0 0" fill="#e70013" stroke="#e70013" stroke-linecap="square" stroke-miterlimit="3.239307"/></svg>