<svg viewBox="0 0 1000 600" xmlns="http://www.w3.org/2000/svg"><g fill-rule="evenodd"><path d="m0 0h1000v300h-1000zm0 0" fill="#d21034"/><path d="m0 300h1000v300h-1000zm0 0" fill="#009543"/><path d="m0 0 581.910156 300-581.910156 300zm0 0"/><path d="m0 246.3125h1000v107.371094h-1000zm0 0"/><path d="m0 42.636719 499.210938 257.363281-499.210938 257.363281zm0 0" fill="#fdce12"/><path d="m0 284.210938h1000v31.578124h-1000zm0 0" fill="#fdce12"/><path d="m0 78.167969 430.296875 221.832031-430.296875 221.832031zm0 0"/><g fill="#fdce12"><path d="m121.558594 357.398438v34.179687c29.742187 0 88.109375-22.785156 88.109375-96.160156 0-73.378907-62.265625-86.996094-80.882813-86.996094-18.621094 0-76.15625 13.339844-76.15625 73.375 0 60.03125 56.421875 65.589844 67.539063 65.589844 11.117187 0 52.804687-10 48.085937-55.027344 0 12.785156-14.453125 39.746094-44.75 39.746094-30.292968 0-49.195312-22.519531-49.195312-44.75 0-22.234375 18.34375-51.980469 50.308594-51.980469 31.957031 0 55.304687 28.355469 55.304687 56.984375s-22.507813 65.039063-58.363281 65.039063zm0 0"/><path d="m95.5 312.890625 1.773438 1.148437s14.070312-32.105468 51.902343-54.933593c-4.789062 2.613281-30.117187 15.21875-53.675781 53.785156zm0 0" stroke="#fdce12" stroke-width="1.052631"/><path d="m99.152344 307.363281s-4.378906-8.960937-.519532-12.921875c3.855469-3.960937 2.082032 10.53125 2.082032 10.53125l1.671875-2.402344s-2.613281-10.945312.308593-13.238281c2.917969-2.289062 1.453126 10.53125 1.453126 10.53125l1.777343-2.296875s-1.875-10.628906.933594-12.613281c2.816406-1.976563 1.050781 10.007813 1.050781 10.007813l2.082032-2.398438s-1.5625-10.109375 1.871093-12.5c3.445313-2.402344.417969 9.585938.417969 9.585938l2.292969-2.5s-1.039063-9.277344 1.878906-11.367188c2.914063-2.082031.417969 8.757812.417969 8.757812l2.082031-2.191406s-.625-8.648437 2.1875-10.625c2.816406-1.980468.214844 8.234375.214844 8.234375l2.1875-2.085937s-.519531-8.648438 3.019531-10.316406c3.539062-1.667969-.628906 8.128906-.628906 8.128906l2.402344-2.082032s.722656-10.117187 3.75-11.054687c3.023437-.933594-1.355469 8.960937-1.355469 8.960937l2.1875-1.765624s1.148437-8.652344 4.484375-9.691407c3.335937-1.042969-2.082032 7.917969-2.082032 7.917969l2.1875-1.667969s2.390626-8.652343 5.515626-9.585937c3.136718-.9375-3.226563 8.128906-3.226563 8.128906l2.089844-1.457031s3.433593-7.820313 6.25-8.339844c2.816406-.523437-3.125 6.460937-3.125 6.460937l2.601562-1.5625s4.488281-8.128906 6.050781-5.632812c1.5625 2.507812-6.261718 6.152344-6.261718 6.152344l-2.601563 1.457031s9.488281-4.484375 10.632813-2.1875c1.140625 2.292969-13.027344 3.75-13.027344 3.75l-2.292969 1.5625s9.480469-2.601563 8.332031-.203125c-1.140624 2.390625-10.523437 1.871094-10.523437 1.871094l-2.1875 1.5625s9.480469-2.285156 8.234375-.097656c-1.253906 2.179687-10.527344 1.980468-10.527344 1.980468l-2.289062 1.867188s9.269531-2.390625 7.917968.425781c-1.359374 2.808594-11.878906 2.710937-11.878906 2.710937l-2.605468 2.390626s9.789062-3.335938 8.960937-.722657c-.832031 2.601563-11.988281 3.953125-11.988281 3.953125l-2.5 2.507813s10.523437-3.550781 7.398437-.316407c-3.125 3.230469-10.734375 4.066407-10.734375 4.066407l-3.019531 3.648437s10.417969-6.261718 8.960937-2.710937c-1.457031 3.539062-11.671874 5.941406-11.671874 5.941406l-2.082032 2.496094s9.375-5.417969 8.441406-2.390625c-.9375 3.019531-10.949218 6.25-10.949218 6.25l-1.667969 2.292968s11.054687-6.566406 10.109375-3.230468c-.9375 3.335937-11.457031 5.730468-11.457031 5.730468l-1.363281 2.082032s10.214843-5.832032 10.320312-3.019532c.105469 2.816407-11.988281 5.632813-11.988281 5.632813zm0 0"/><path d="m155.550781 312.890625-1.777343 1.148437s-14.066407-32.105468-51.902344-54.933593c4.792968 2.613281 30.125 15.21875 53.679687 53.785156zm0 0" stroke="#fdce12" stroke-width="1.052631"/><path d="m151.902344 307.363281s4.382812-8.960937.523437-12.921875c-3.859375-3.960937-2.085937 10.53125-2.085937 10.53125l-1.667969-2.402344s2.605469-10.945312-.316406-13.238281c-2.914063-2.289062-1.457031 10.53125-1.457031 10.53125l-1.773438-2.296875s1.878906-10.628906-.933594-12.613281c-2.820312-1.976563-1.042968 10.007813-1.042968 10.007813l-2.082032-2.398438s1.5625-10.109375-1.882812-12.5c-3.433594-2.402344-.414063 9.585938-.414063 9.585938l-2.292969-2.5s1.039063-9.277344-1.875-11.367188c-2.921874-2.082031-.421874 8.757812-.421874 8.757812l-2.082032-2.191406s.625-8.648437-2.191406-10.625c-2.804688-1.980468-.203125 8.234375-.203125 8.234375l-2.1875-2.085937s.519531-8.648438-3.027344-10.316406c-3.539062-1.667969.625 8.128906.625 8.128906l-2.390625-2.082032s-.734375-10.117187-3.753906-11.054687c-3.027344-.933594 1.351562 8.960937 1.351562 8.960937l-2.1875-1.765624s-1.148437-8.652344-4.476562-9.691407c-3.335938-1.042969 2.082031 7.917969 2.082031 7.917969l-2.1875-1.667969s-2.402343-8.652343-5.527343-9.585937c-3.125-.9375 3.230468 8.128906 3.230468 8.128906l-2.082031-1.457031s-3.441406-7.820313-6.257813-8.339844c-2.808593-.523437 3.132813 6.460937 3.132813 6.460937l-2.613281-1.5625s-4.476563-8.128906-6.046875-5.632812c-1.5625 2.507812 6.257812 6.152344 6.257812 6.152344l2.605469 1.457031s-9.480469-4.484375-10.628906-2.1875c-1.144532 2.292969 13.027344 3.75 13.027344 3.75l2.289062 1.5625s-9.480469-2.601563-8.332031-.203125c1.148437 2.390625 10.523437 1.871094 10.523437 1.871094l2.1875 1.5625s-9.480468-2.285156-8.230468-.097656c1.246093 2.179687 10.523437 1.980468 10.523437 1.980468l2.296875 1.867188s-9.277344-2.390625-7.925781.425781c1.355469 2.808594 11.886719 2.710937 11.886719 2.710937l2.605468 2.390626s-9.796875-3.335938-8.96875-.722657c.839844 2.601563 11.988282 3.953125 11.988282 3.953125l2.503906 2.507813s-10.527344-3.550781-7.402344-.316407c3.125 3.230469 10.734375 4.066407 10.734375 4.066407l3.027344 3.648437s-10.425781-6.261718-8.96875-2.710937c1.464843 3.539062 11.679687 5.941406 11.679687 5.941406l2.082032 2.496094s-9.382813-5.417969-8.449219-2.390625c.945312 3.019531 10.945312 6.25 10.945312 6.25l1.671875 2.292968s-11.046875-6.566406-10.109375-3.230468c.9375 3.335937 11.464844 5.730468 11.464844 5.730468l1.351563 2.082032s-10.214844-5.832032-10.316407-3.019532c-.105469 2.816407 11.984375 5.632813 11.984375 5.632813zm0 0"/></g></g></svg>