<svg enable-background="new 0 0 800 480" height="480" viewBox="0 0 800 480" width="800" xmlns="http://www.w3.org/2000/svg"><path d="m0 0h800v480h-800z" fill="#00b140"/><path d="m0 0h800v240h-800z" fill="#fff"/><g stroke="#000"><path d="m246.6631012 113.816391c-25.9803162 3.9373093-91.8203278 10.1230011-117.5086365 5.9057388l5.0197296 12.0918198c42.5151062-3.9372711 83.2593079 9.8426666 121.0523682-4.4993591z" fill="#c8102e" stroke-width="1.15651"/><path d="m145.9850006 143.3433228c-16.2404175-4.7793274-43.1071167-32.6195297-47.5348206-49.4925232 12.6948471 8.7161789 43.1052246 19.9655914 54.0296631 18.8414078-3.5436707 2.5309982-12.4014282 9.2787094-19.1920624 10.1230011 3.2498017 6.1879043 9.4479218 14.0602798 12.6972199 20.5281143z" fill="#c8102e" stroke-width="1.15651"/><path d="m198.2418976 134.9065552c4.7258453 6.4678955 29.5258789 3.7964935 42.072403-4.0758667l-3.39534-5.48452-2.5090027 4.6402512-3.9854431-4.3580933-1.0323944 6.8886108-6.9384766-5.0615005-1.1826782 6.0470047-4.4276886-5.3436127-1.6225281 6.6091461-6.4967346-5.0637512-2.5089264 6.8913269c-1.9595337-2.3247223-3.0552063-5.2553558-3.1014252-8.2954102-2.5088501.9828645-4.5755157 4.216797-4.8717651 6.6064149z" fill="#c8102e" stroke-width="1.15651"/><path d="m200.3085632 113.9577026c0 1.6862564 2.0666656 6.6091385 5.906601 8.0132294.1478882-2.1075287-2.5112915-7.0299225-.8863831-9.137413l3.3953247 3.0926132 1.0342865-5.9057388 4.5760651 3.2339096.4417725-6.8886108 4.723999 3.0926208v-7.5920029c-7.6770935.7006912-17.125 9.5604172-19.1916657 12.0913925z" fill="#c8102e" stroke-width="1.15651"/><path d="m679.4208374 190.5870056c-1.9927368-4.4989166-8.1931763-9.9816132-13.6551514-13.356842 2.1315918-4.9928589 5.4572144-12.8936768 8.7786255-21.0744019-8.2671509 1.6885071-25.4593506 2.9363403-35.4993286 1.8117676 18.8953247-17.9971619 58.4592285-55.1183624 71.4503784-71.9913483-4.723999 23.0590973-1.1802979 74.8022308 8.2672119 92.7993927-10.039978-3.9368591-21.6427002-12.0891571-28.1370239-21.0879974-3.8305054 12.9185028-8.5288696 26.9960022-11.130188 32.7585907" fill="#c8102e" stroke-width="1.15651"/><path d="m310.7327271 91.8819122c1.1802673 5.9061966 1.4741821 10.4051514 5.9042053 12.0918579 4.4277039 1.6885223 14.1713867 5.0614929 20.3718567 15.1862793-7.3807678-1.9684296-17.7149963-4.7811279-18.6014404 1.9688797-.8423157 6.4235916 2.1154785 6.2340012 7.0868835 7.3098373 6.4948425 1.4063416 12.6953125 8.9987946 12.9916077 19.1240082-5.3164978-3.0930634-12.6972656-5.6239929-17.4212036-5.6239929s-6.0526123.842453-7.2328796 6.4660034c-1.9486389 9.2764435 1.6248779 9.8430023 6.0525818 10.4051514 4.4295959.5619965 13.8775024 4.7811127 14.4676208 20.2477417-5.0202026-4.2189941-15.0881042-6.5694122-21.2586975-7.5919952-3.3953552-.5620728-3.9854736 1.124176-4.4272156 7.0299377-.4446411 5.9057465.2938843 7.8745728 6.1980896 9.5608826 5.9065857 1.6885071 12.6972046 5.9057465 14.4676514 14.9045563-5.6103516-2.5310059-14.4676514-1.6867065-17.1248779-.5625458-2.6568604 1.1246338-4.096405 7.4096069 1.5140076 19.5009918 12.0747986-3.8943634 24.5349121-6.473114 37.1635437-7.6913757 27.9057312-2.7977448 21.258728-21.3700867 21.258728-50.6171112 0-29.2465668 61.4099426-61.8661041 154.7091675-113.60923-22.4389954 54.5540009 8.2676392 49.4925156 25.3901978 43.3068619 17.124939-6.1879196 57.2789917-21.9344788 88.5752563-34.8706017-43.1070557 27.5580025-64.9559937 56.8050652-27.1630249 69.7407379-48.4212036 14.6223755-70.8602295 54.5540009-44.2874146 79.863739-18.1203613-6.1130066-43.2322388 5.4204102-53.7495117 21.4825439 18.8953247-1.6889954 55.5200195 2.7025299 77.9589844 8.8881836 21.3672485 5.8903961 56.6400146-1.0072327 59.9637451-19.1569977.1755981-.9154663.2654419-1.8453217.2683105-2.7774658 0-6.3269958-1.6291504-11.1040802-4.1243286-14.5850067-5.4875488-7.6601257-15.104248-9.3179932-20.3812866-9.3179932-7.677063 0-15.6484375 3.0926056-15.6484375 8.436264s4.723999 7.592453 14.171875 7.592453c5.1657104 0 13.1300049.8550873 21.8578491-6.7107849 2.4951782 3.4808807 4.1243286 8.2579956 4.1243286 14.5850067-.0078125.9194489-.1015625 1.8361664-.2801514 2.7381439-8.2606201 4.4595337-17.4971924 6.8035736-26.8847046 6.8227386-18.895813 0-36.6085205-7.3121033-36.6085205-26.9960022s21.2563477-30.9332886 38.3813477-30.9332886c23.6192627 0 56.6864624 8.9988098 56.6864624 44.9931488 0 45.5579224-62.713501 66.8638916-99.9163818 66.8638916 6.2374268 4.9842834 13.2617798 9.6268616 20.7908936 12.4377441 26.3481445 9.8430481 49.6019897 21.9344788 57.8691406 40.4960022-10.0380249 0-26.5728149-7.874176-34.2498169-15.7488098 21.258667 24.7476196-4.5249023 70.2698669-1.7704468 85.4895325 2.9507446 16.3086548 23.0291138 6.1856079 23.0291138 18.8414307 0 11.2471619-11.810791 9.278717-16.2385254 4.2172241-4.4300537-5.0614929-18.6270142-9.3139343-25.982666-4.2172241-6.4943848 4.4993896-16.5319214 6.7481995-20.9619751 2.2488098-4.4276733-4.4994202-20.6661987-2.8131409-27.4568481 3.3747559-6.7906494 6.1856689-16.2755127 6.6687622-19.1915283 1.9689026-3.1223145-5.0330505-2.3240967-11.1528015 10.3062744-13.2711182-5.6103516-5.625824-22.7072754 3.9901428-25.6584473-6.6949158-2.1226196-7.6782532 2.3610229-11.2494202 17.1225586-10.1252441-1.4765015-3.6546936-12.3986206-5.3414001-10.9244385-12.9356689 1.4765015-7.5924683 10.0100708-12.2923279 20.0784302-1.124176 26.8662109 29.8086548 39.2672119 13.2178345 48.4188232.2821655-2.9511719-6.7504578.2962646-11.2494202 5.9066162-15.4666443-2.953064-4.7815552-1.1826172-11.5293274.8839722-16.0287781-4.4276733-2.5310059-7.0845337-13.7803345-2.3605347-17.7171936-3.8399048 0-9.7441406-4.2194824-9.7441406-11.5293579-5.2670288 3.2019348-12.0204468 2.5129395-16.5324097-1.6866455-5.6102905 3.0930481-20.3718872 3.6550903-26.8685913-3.0948792-8.8577881 3.3747864-24.5061646 2.5305176-28.637146-3.9373169-7.7955322 1.9707031-22.1451111-4.4994202-25.096283-11.5293274-4.5541992-.3306885-8.9768982-1.6751404-12.9446411-3.9349976-11.8084717 8.4367065-27.7995605 24.7453613-11.8572693 37.118988 15.9446411 12.3735657 49.0113525 2.2483521 49.6019897 33.1816101-7.6774902-6.1856689-21.848877-4.4993896-26.5728149-10.6849976-15.9422607 22.496521-38.9714355 43.0246887-72.9249878 51.4609375 5.0178833 3.0930481 14.171875 3.3752441 17.7131653 3.0930481 7.3622742-.584198 13.5812378 5.3436584 7.9732666 12.3735657-5.6103516 7.0321655-17.1249084 1.1246338-23.9154968-4.7792969-9.7721558-8.5003662-16.2385559-3.6569519-18.8958435-1.6885071-2.6567993 1.9684448-6.2005005 3.0953064-10.9239197-1.4063416-4.723999-4.4993896-9.1539917-1.4040833-11.5146179 1.4063416-3.8375549 4.5698242-12.6953125-5.9057617-26.8666992 6.4678345-6.8138428 5.9500122-23.0291443-1.6862488-16.53479-10.4051514-6.7906189 1.6889954-18.8005371-7.706665-8.8572998-16.8707275 9.153595-8.4362488 26.5723572 10.9671936 40.7442017 5.3414001-3.184845-3.8601074-9.8228455-11.0110779-23.619751-12.6535034-7.0868835-.8442688-8.341095-8.694519-5.0197449-14.3424683 4.1333313-7.0299377 16.8305664-2.2483521 25.3920593 8.7189026 6.7441711 8.6394348 15.6483765 8.7166443 24.7995605 7.0299072 6.4299011-4.0827026 16.3869019-4.2194824 20.8165283-2.8126831 0-4.2172241 6.9365845-7.8746338 12.2506714-7.8746338-.2938843-5.6235657 1.4765625-10.6850586 10.0404053-12.0914001.7129211-.1169434 1.4509277-.2316589 2.2126465-.2997742-5.9648438.272644-11.7466125-2.0977783-15.8033752-6.479126-11.8269958 2.8858032-24.9294434-2.6759033-26.8548279-13.3126526-18.694397-1.303009-20.553009-20.1665039-15.946991-26.3080139.3751831-.5074768.7966614-.9790344 1.2590027-1.4085999-5.5639038 4.1838684-12.6740112 6.1193542-21.4668274 3.0727844-8.2651367 11.2356567-22.6502686 16.1397095-36.057373 12.2923279-3.7171021 5.6180725-9.3790894 9.6644897-15.8981934 11.3618469.5508118 6.815918-.9190979 14.5383911-9.9152832 23.6121521 2.3605347-12.3739929-14.1718445-16.3108826-10.6281738-36.5568542-1.1826477 14.6223755-45.7644043 38.8074646-52.8512878 70.8648682 6.4967346 2.8126831 13.5836029 4.7793579 18.0113068 3.9368591 11.1372528-2.1205444 14.7620087 8.9988403 11.5145721 13.4982605s-12.401001 6.7477417-16.2385254 2.8108826c-3.8375549-3.9350586-11.8108215 1.4063416-15.6483765-5.9039307-3.8370972-7.3121033-14.4676361-4.7811279-18.8953247 0-4.4277039 4.7792969-19.1915894-6.1879272-29.8197632 4.7792969-3.9764404 4.1025085-17.4187927 8.436676-25.3920746 6.1879272-7.9713745-2.2506104-12.6953278-10.1247864-10.0379944-14.3420105-5.3140869-4.7815857-5.3880005-10.6367493-.2938843-15.7488098-1.9211426-7.1712341 4.3395233-21.3417053 14.9098816-15.7465515 6.6427307 3.5138245 30.1876068 20.1069031 50.7078247 1.124176 17.7918549-16.6635132 7.4272156-30.0158997 18.8213959-31.7770996-1.3860016-6.7658386 2.953537-15.1844788 7.6774902-16.8734436-1.3734131-2.8057251-1.6226807-6.0302429-.6967926-9.0137024-2.6831055-.2077332-5.3244629-.7864685-7.8486176-1.7196655-8.8482666 2.5057983-17.9858246 3.8456726-27.1809998 3.9856262 0 6.7477417-8.2652435 23.0586243-15.3521271 30.9332886-2.3610077-61.8660889-61.4104156-68.0544739-69.3836899-117.2648315-.2938766 7.3102875-8.2671585 14.6223755-9.151619 20.8080444-.8863907 6.1878662-4.723999 10.9672241-11.8108597 8.1567993-7.0845108-2.8132019-8.8572922-14.6246338-1.7704086-16.3109131 7.0868835-1.6885071 5.7582397-12.9361725 10.1859283-14.342453s5.1661987-5.9057465 3.39534-11.5293274c-1.7727814-5.6235809.8844604-12.3735809 2.6572495-16.5908661 1.7704086-4.2194366-.8863907-11.2493591-7.0868835-13.7798767-6.1985931-2.5310059-8.2652588-8.7166138-5.9042282-14.0602722-6.4948425-4.4994049-4.6428909-14.2232819 4.1333389-16.0287323 10.9244385-2.2505951 10.6281815 14.9022522 16.8286591 16.8730011-.8840027-3.3748169.296257-9.8430634 2.953537-14.0621033-3.5436707-7.3125458.8863907-13.2160034 7.9708939-13.2160034 12.401001 0 8.2671814 19.6838684 5.3141174 25.8717346 4.1337738-5.6257629 10.6305237-12.0936279 15.6483459-7.5919952 5.0202026 4.4966888 4.2006531 13.8945618-1.1807556 17.9949036-4.4295959 3.3747864-13.5812073 8.7184448-10.923996 14.6241913 5.3140869 8.9987946 8.5610046 19.6838684 9.1535492 33.4642487 7.3807526 5.3436584 12.1047058 11.5293121 12.1047058 16.5908051 4.8699341.2821655 14.1993713 4.131012 15.5 9.5627136 5.9042664-.5643616 14.7226563.5643311 17.2709351 5.7648926 1.9211273-.9855652 7.0427551-1.3138123 10.1441956-1.0338745.0104065-4.3926086 1.5376434-8.6468201 4.32341-12.0430908-10.0375671-10.6873322-9.7436829-27.5579987.5906219-34.3080597-2.9421539-7.0059967-1.7708893-19.9660034 7.9708862-26.7160034-.2104034-7.032196 1.7727966-16.3086853 11.5145874-22.214386-1.4765472-7.5942535 3.5436707-17.9971619 9.7441559-18.5597382-1.477005-7.3119965-.3611908-16.3370056 8.1998444-20.5565338-2.0157928-2.1155548-3.0641327-4.9722595-2.8952332-7.8895264-15.0189056 3.0926056-20.8880005 11.8467102-25.6769409 20.0098419-.5901337-3.3752289-1.476532-7.874176-3.5436859-11.2494049 0 8.716629-6.7906189 11.8114929-7.0845032 23.9029083-5.0202026-5.0615234-6.7906189-13.2178345-6.4967346-18.8414154.2360535-4.5016632-7.6746368-8.7166443-5.3140869-16.5908661 11.8108368 10.4051971 35.7263641-12.3735428 56.3925934-5.0614319-20.372345-40.7759094-35.1338654-21.0925293-45.4681549-14.0603104-10.334259 7.0303802-17.7149963-3.3747787-16.5323944-10.1248322-13.8775024-3.0930023-30.4122772-2.5309219-48.4212189.8442612 13.2850037-16.5930023 44.5817413-23.9033127 67.6109161-22.2165985 10.0375671-17.7154388 22.1446381-15.1844711 33.9530945-13.4981995 7.7210999 1.1047134 16.7385864 1.1286926 25.6864319.6988907 5.6103516-14.9045601 38.3813171-16.4454498 41.6305847-28.257 2.953064 2.2487984 1.1594238 10.7117004-1.7936401 18.0214996 8.5359192-2.4334488 15.8659363-5.0325394 18.3260498-10.146862 1.476532 4.7793198-.8840027 17.7149963-4.1338196 21.6523132 3.3675842-.8979416 6.8523865-1.2771759 10.3342896-1.1246338-10.3342896 5.6235809-23.322998 14.0602798-25.389679 15.4666443-2.0671692 1.4063492-3.2498169 4.2172318 2.0666809 7.0299225-5.9066162 1.1246414-22.4389954 6.7504578-29.2296753 2.2510605" fill="#c8102e" stroke-width="1.15651"/><path d="m86.3454819 167.9496155c7.822998-5.3436584 18.520401-1.3932495 20.8141098 6.4678345 1.476532 5.0614929-7.4916687 8.8200073-8.2671509 4.078186-1.0323944-6.3269806-5.3140945-10.2638397-12.5469589-10.5460205z" fill="#c8102e" stroke-width="1.15651"/><path d="m117.0265198 151.6012573c9.1051941-2.9828949 18.1639404 3.720993 17.9951935 11.8796692-.1089935 5.2511139-9.8323212 6.4019165-9.1468811 1.6492462.9138565-6.3445892-2.0022355-11.2846374-8.8483124-13.5289154z" fill="#c8102e" stroke-width="1.15651"/><path d="m150.8871918 165.9965363c8.6842804 3.9567261 10.2025146 14.7876129 4.0736237 20.4902039-3.946106 3.6704865-11.7226868-2.0059052-7.7330017-4.9377899 5.3236236-3.9084169 6.8835906-9.3802949 3.659378-15.552414z" fill="#c8102e" stroke-width="1.15651"/><path d="m81.7329178 279.6585693c7.5774689 5.6547852 18.4417114 2.1431885 21.0847702-5.618988 1.70121-4.9973755-7.0940018-9.1152954-8.0775528-4.4086609-1.314415 6.2781677-5.7677078 10.038971-13.0072174 10.0276489z" fill="#c8102e" stroke-width="1.15651"/><path d="m135.0586853 393.3784485c3.1730042-8.657074 14.3102722-11.2891846 20.9345398-6.1152649 4.2631836 3.3332825-.8034668 11.320343-4.3006897 7.8656616-4.6680298-4.6095886-10.5471344-5.4845581-16.6338501-1.7503967z" fill="#c8102e" stroke-width="1.15651"/><path d="m125.0970001 416.6619263c.5275726-9.1549988 13.4101563-14.9086304 21.2814789-11.6878052 5.0690613 2.0745239 2.5278778 11.0882263-1.8396149 8.6922607-5.8255767-3.1941833-14.6809845-2.2000427-19.441864 2.9955445z" fill="#c8102e" stroke-width="1.15651"/><path d="m139.0972137 438.2659302c-3.302887-8.612793 3.5597839-17.3691406 12.1279449-17.3623657 5.5155334.0045166 6.9086456 9.2412415 1.9050598 8.6791687-6.6749877-.749939-11.8065947 2.1228027-14.0330047 8.683197z" fill="#c8102e" stroke-width="1.15651"/><path d="m277.9594116 430.5768433c1.1409302-9.1044617-7.6514282-16.1258545-15.9882507-14.2477112-5.3671875 1.2104492-4.4973755 10.5045166.2359924 8.8643188 6.318573-2.189209 12.0052185-.5160217 15.7522583 5.3833924z" fill="#c8102e" stroke-width="1.15651"/><path d="m331.2273254 433.4843445c-1.9766235-8.9744568 6.1312866-16.7054749 14.6093445-15.5325623 5.4595947.7539978 5.4525146 10.0855103.5830078 8.8489075-6.4943237-1.6514893-12.0027465.4912109-15.1923523 6.6836548z" fill="#c8102e" stroke-width="1.15651"/><path d="m464.0558777 431.2909851c.7380066-9.1441345-8.3553162-15.8083496-16.6020813-13.5970154-5.3093567 1.4240112-4.0314331 10.6759949.627594 8.8484802 6.2166138-2.440216 11.9705505-.9963989 15.9744873 4.7485352z" fill="#c8102e" stroke-width="1.15651"/><path d="m315.456665 414.4419861c-1.4119873-9.0687256 8.0358276-16.8747559 16.4257507-15.2237244 5.4022522 1.0646057 3.9413757 10.925293-.8423157 9.4151001-6.3810424-2.0172119-12.0146483-.1896362-15.583435 5.8086243z" fill="#c8102e" stroke-width="1.15651"/><path d="m327.822998 388.3499146c.5275574-9.1549988 11.4311523-14.9925842 19.3024902-11.7695007 5.0666504 2.0745239 1.5533142 11.4566345-2.8117981 9.0606384-5.8255309-3.196869-11.7296752-2.4844666-16.4906921 2.7088623z" fill="#c8102e" stroke-width="1.15651"/><path d="m531.1088867 438.2636719c-1.9766235-8.9744263 6.1307983-16.7055054 14.6088867-15.5325928 5.460083.7562561 5.4530029 10.0877991.5834961 8.850769-6.494812-1.651062-12.0032959.4916382-15.1923828 6.6818238z" fill="#c8102e" stroke-width="1.15651"/><path d="m663.0391846 433.9692383c2.043457-8.9608765-6.0084839-16.7470093-14.4956055-15.6296082-5.4624634.71875-5.5245361 10.050293-.6480103 8.8443909 6.5081788-1.6068115 12.0028687.571106 15.1436158 6.7852173z" fill="#c8102e" stroke-width="1.15651"/><path d="m514.1157227 417.4646606c-1.3907471-9.0715027 7.204895-16.3109131 15.5905762-14.6400146 5.3994141 1.0758667 4.7841797 10.389801.0066528 8.8665161-6.3763428-2.0303039-12.0142212-.216156-15.597229 5.7734985z" fill="#c8102e" stroke-width="1.15651"/><path d="m519.0292969 392.70401c.1782227-9.1685486 9.8967896-14.9772339 17.8842773-12.0278015 5.1425171 1.8984985 2.9464111 10.9916687-1.5092163 8.7496033-5.9436035-2.993805-11.8151245-2.076355-16.375061 3.2781982z" fill="#c8102e" stroke-width="1.15651"/><path d="m552.2424927 93.2887115c-22.4390259 7.312088-109.2415161 39.9316254-125.1837158 44.9931183s-24.2094727 6.1879272-33.6573486 26.9960022" fill="none" stroke-width="1.15651"/><path d="m510.3175049 69.1031799c-56.6860046 34.8705902-102.7442932 65.241333-115.7358704 93.9257813-12.9910889 28.682724-12.1047058 46.1177979-43.6972656 51.179245" fill="none" stroke-width="1.15651"/><path d="m259.95047 268.2019958c14.1718445-15.7483521 43.6953735-34.8701477 72.0386047-35.9943085-5.525238 8.554718-10.2683716 17.5899048-14.1718445 26.9959869" fill="none" stroke-width="1.15651"/><path d="m317.2270813 269.8886414c7.0868835-8.9987488 24.7995911-28.1200867 36.0202332-35.9947205-5.3140869 15.1867218-14.1713867 51.1809998-9.4474182 75.9263916 2.9506836-23.6207275 15.941803-60.1775818 29.5234985-80.9878845 10.0399475 23.0590973 23.6192932 55.6804504 23.6192932 76.4907532 2.953064-24.7471619-2.9511719-67.4919434-11.8084412-86.051178 24.2094116 11.8092346 54.3254395 45.5552063 67.3165588 66.365509-8.8572998-29.2470093-38.9732971-64.6792603-54.9179077-75.9286499 39.5638733 6.75 96.842865 30.9350739 118.0987549 48.9326782-34.8376465-30.9333038-77.3546448-55.1183777-107.4682922-66.3677826 47.2385559-3.9351044 135.8138733 6.1879272 161.20401 15.7488098-37.2009888-20.2482605-113.9654541-30.9332733-160.0237427-28.1205902 48.4212646-19.6857147 134.633606-42.1822357 204.3111572-51.7431335-53.1451416 2.8108368-121.6424561 16.3108978-191.9101563 31.4953766 31.2962952-20.2482147 128.1368408-58.491333 151.1660156-65.2413406" fill="none" stroke-width="1.15651"/><path d="m274.1223145 79.790451c4.2167969-13.2728729 21.4227295-16.7957306 35.4068909-20.7859192" fill="none" stroke-width="1.15651"/><path d="m297.445343 89.6335602c-11.8084412-.8442535-13.9078369-4.841156-7.3812256-9.2809982 4.1338196-2.8126907 12.6953125-7.3121033 18.6019897-7.8741837-1.4769897-.2799225-5.6103821-1.4063492-7.6775208-1.6862564 6.2005005-2.5309982 16.53479-6.1879196 20.0760803-9.5631485" fill="none" stroke-width="1.15651"/><path d="m283.7157288 68.2611771c-4.5177612.3900681-9.2601929.7494507-14.0234985.9787903" fill="none" stroke-width="1.15651"/><path d="m253.1598663 134.3445129c-2.8809052.1436157-5.7467651.5055389-8.572937 1.0826416" fill="none" stroke-width="1.15651"/><path d="m205.1386871 277.7145386c-.1144257 8.0885925 2.796051 15.9283752 8.1609955 21.9827881 4.723999 5.0614929 33.6596985 6.75 34.8399963-2.8126831" fill="none" stroke-width="1.15651"/><path d="m209.4620972 265.6714478c10.0379944 10.6850586 42.5150909 4.2171936 42.5150909-3.6551514" fill="none" stroke-width="1.15651"/><path d="m210.0527191 231.3633881c3.5431976 8.436264 41.3343658 16.028717 41.924469 6.1856537" fill="none" stroke-width="1.15651"/><path d="m218.0236053 204.6473389c.2962646 9.8430634 34.7124786 16.2359467 35.7263641 8.9987946" fill="none" stroke-width="1.15651"/><path d="m229.5381927 182.4329987c1.476532 7.5919952 24.211792 14.9045563 27.4592133 11.5293121" fill="none" stroke-width="1.15651"/><path d="m239.2823334 163.8732147c1.076004 5.3328857 17.418808 10.1230011 23.0291595 8.1545868" fill="none" stroke-width="1.15651"/><path d="m247.482193 143.3166809c3.3493347 3.8732147 9.8484344 7.4777832 21.0297699 9.3071747" fill="none" stroke-width="1.15651"/><path d="m190.8630066 103.4116364c.2938843-5.9057007 6.1981354-6.7481613 5.3140869-12.6539001" fill="none" stroke-width="1.15651"/><path d="m252.8635864 127.5967712c2.0666656 3.0926056 7.3807373 9.5608826 7.9708862 14.3419952 2.9535522-2.2505951 5.3140869-7.0322266 6.2005005-9.2805634 2.8197632 2.3450012 4.8755493 5.4781647 5.9042053 8.9983978 1.1831055-3.3747864 3.2497864-9.2805328 3.5436707-12.9356689 4.2288513.9376831 8.1750183 2.8649445 11.5145569 5.6235657.5901489-3.6551361-1.1802673-8.4362717-4.1338196-10.4051514 3.2636414.1356201 6.5099487-.5407333 9.4479065-1.9684296-2.0666809-2.8108902-5.3140869-6.4678268-8.5615234-8.154541 2.9535522-.8442688 7.0849915-4.2167892 8.8577576-5.6236267-2.6572876-1.1241684-7.3807678-3.6569977-10.334259-5.0614395 1.770874-1.6885223 3.2473755-5.060997 4.1337891-7.5942612" fill="none" stroke-width="1.15651"/><path d="m203.8517609 81.9002533c-1.9183044 0-2.8047028 4.2172394.7384949 6.889061 2.5482941 1.9223404 2.5089264 9.8430557-2.0666656 11.8115005" fill="none" stroke-width="1.15651"/><path d="m272.9391785 141.6566162c-12.988739 28.6826782-24.9474487 83.0976257-20.8141174 122.4671631" fill="none" stroke-width="1.15651"/><path d="m266.1485596 317.9766541c0 5.906189 9.7441711 7.030365 9.4479065-7.0299072" fill="none" stroke-width="1.15651"/><path d="m274.7124634 317.9766541c1.1802673 5.0614929 11.2183228 6.1860962 9.1511841-8.7184448" fill="none" stroke-width="1.15651"/><path d="m270.5786438 321.9140015c.5901489 10.9672241 7.9708862 10.4051514 8.5610046 0" fill="none" stroke-width="1.15651"/><path d="m284.1599121 314.3197021c2.9511414 6.75 11.2182922 3.3747864 8.8577271-11.5293274" fill="none" stroke-width="1.15651"/><path d="m293.3115234 309.2582092c3.2493286 5.625824 10.9244385 1.1264343 11.8108215-8.7166443" fill="none" stroke-width="1.15651"/><path d="m254.9302673 278.0450134c-5.0661926 5.2839966-10.878006 17.1465759-3.8394623 28.4023132 4.1357422 6.606842 15.5024261 10.2642822 16.6826935 6.3269348" fill="none" stroke-width="1.15651"/><path d="m251.0908051 306.4473267c-4.5760651.7033997-11.3064728 10.0457764-7.9713745 18.9804688 2.3634033 6.3269958 15.9446259 10.1252441 18.0113068 5.4849854" fill="none" stroke-width="1.15651"/><path d="m389.8581848 314.3197021c14.7615051 1.6885071 34.2493591-7.8723755 35.4301147-26.9960022" fill="none" stroke-width="1.15651"/><path d="m423.5150146 296.3225098c8.2676086 5.0615234 25.3925476 6.75 32.4770813-6.1860657" fill="none" stroke-width="1.15651"/><path d="m431.1925049 300.2593689c-7.6774902 16.8729858-14.6321106 34.7997131 1.1802673 47.8063049 12.9911194 10.6873169 22.6404724-5.2443542 38.3836365 10.6873169 4.7234802 4.7793274-.8868713 13.7776794-48.4216919 39.9316406" fill="none" stroke-width="1.15651"/><path d="m194.9945068 278.7484436c3.1013947 6.3265076 2.8051453 18.7005615-3.0990906 17.0115662" fill="none" stroke-width="1.15651"/><path d="m148.345993 418.6506653c10.0379944-14.6223755 21.8905792-2.806366 30.4099274-5.3436584" fill="none" stroke-width="1.15651"/><path d="m226.7353821 84.4290009c-1.7727814 4.0781708 2.9416962 9.7834702 7.3807678 10.2660904 5.1661987.562088 12.5469971-2.6718292 10.9244385-7.8741837" fill="#fff" stroke-width="1.15651"/><path d="m221.5673218 84.8519974c2.6567841-3.5160904 33.6592255 7.5924606 46.0582581-.2821808" fill="none" stroke-width="1.15651"/><path d="m121.1830826 189.7449951c-1.1802597 2.528717-.737999 9.9821167 3.8399277 14.0603027" fill="none" stroke-width="1.15651"/><path d="m340.2561951 416.3996277c2.3630066-2.8104248 11.105011-5.6497498 17.5671692-4.0759277 6.3483582 1.5454102 17.7150574-.5620728 25.0958557-3.3752441" fill="none" stroke-width="1.15651"/><path d="m272.9391785 141.6566162c-2.9506836 27.5585022 3.6919861 69.8820038 20.6686096 88.7234192" fill="none" stroke-width="1.15651"/><path d="m264.0241089 166.1243134c.4858093 24.5223236 6.7905884 53.6370087 19.2541504 69.663559" fill="none" stroke-width="1.15651"/><path d="m257.2007446 192.8488922c2.4534607 18.5574951 7.9779968 37.2183075 16.708252 49.3381653" fill="none" stroke-width="1.15651"/><path d="m252.9214172 221.0155792c2.9488068 11.0132751 7.1006165 21.1208649 12.4915466 28.7219543" fill="none" stroke-width="1.15651"/><path d="m251.4008026 247.667511c1.6592712 3.544632 3.627182 6.9364014 5.8809967 10.1360779" fill="none" stroke-width="1.15651"/><path d="m272.3490601 158.8099976c-.8840027 8.7184448-6.4943848 15.4661865-11.5145874 19.4035034" fill="none" stroke-width="1.15651"/><path d="m272.9391785 170.9036255c-.8840027 8.7161865-7.0845032 16.590744-15.2037659 20.3868103" fill="none" stroke-width="1.15651"/><path d="m274.7124634 182.9949951c-.8863831 8.7166138-9.7441406 19.4035034-19.782196 24.1828156" fill="none" stroke-width="1.15651"/><path d="m277.072998 195.0864563c-.8840027 8.7188721-12.3985901 21.934433-24.1217041 26.1760864" fill="none" stroke-width="1.15651"/><path d="m280.7645569 207.1778564c-3.3953247 11.8119507-16.9765625 25.5918732-28.9333649 28.6849365" fill="none" stroke-width="1.15651"/><path d="m286.0786743 219.2720032c-.8863831 8.7161865-19.0437012 26.4334259-34.6915741 31.4949036" fill="none" stroke-width="1.15651"/><path d="m177.7235565 272.983551c1.9187775 8.0132446-4.4295959 15.3257751-7.677002 13.356842" fill="none" stroke-width="1.15651"/><path d="m211.5292511 300.8237305c-30.7061615-6.1878662-53.5366974-16.4960022-66.1343689-40.4959412-3.2493134-6.1856537 5.3140869-7.874176 4.723999-13.497757" fill="none" stroke-width="1.15651"/><path d="m140.9652863 213.3657837c-5.3140869-8.9983521-6.4967041-18.8414154-3.5436401-25.0271301" fill="none" stroke-width="1.15651"/><path d="m162.2235413 263.4208374c0 5.0632935-6.3483734 11.5293274-8.5634155 9.139679" fill="none" stroke-width="1.15651"/><path d="m213.2996674 299.6973267c-3.5389252 8.1874695 3.3052521 23.8216553 18.3236847 29.1982727" fill="none" stroke-width="1.15651"/><path d="m243.1194305 325.4277954c-1.7722168 1.262207-3.0593109 3.0926819-3.6474762 5.187439" fill="none" stroke-width="1.15651"/><path d="m255.2265472 342.1599426c-2.6591797 4.2194824-12.9911346 1.1264343-15.0578003-2.5310059" fill="none" stroke-width="1.15651"/><path d="m213.6698608 388.27948c-12.5189972 11.7234497-25.2716675 12.3848572-40.5218811 14.0603027-15.3540039 1.6885071-19.6338043-4.9206238-25.0958099.5621033" fill="none" stroke-width="1.15651"/><path d="m313.6833801 300.2593689c1.7732544 7.8746948 1.1807556 15.7488708-5.9042053 27.5603638-3.911499 6.5166016-.205719 13.5464783.4678345 21.943512" fill="none" stroke-width="1.15651"/><path d="m381.6692505 323.0362854c6.7678528-5.0881348 11.234436-13.4805603 13.5030518-19.9637451" fill="none" stroke-width="1.15651"/><path d="m360.2024231 326.1090698c7.7003174-10.0345764 8.9019775-23.6174011 3.0829468-34.8479919" fill="none" stroke-width="1.15651"/><path d="m324.1452026 338.4013977c4.5386047-6.6749878 7.2537231-16.183136 7.2537231-28.5810852" fill="none" stroke-width="1.15651"/><path d="m232.4912567 356.5024109c1.1807556 5.7644348 10.3342896 8.2953491 11.8108368 5.4845276" fill="none" stroke-width="1.15651"/><path d="m305.7124939 288.7301025c0 5.6235657-5.9042358 9.8430786-10.3342896 6.4678345.5901489 8.154541-5.6080017 10.6873169-10.0375671 6.7504578.8864136 11.5293274-9.1516418 12.6535034-15.6483765 3.6546936-7.3807678 34.5884094-32.1808014 60.4597473-33.9535828 77.3327332-.5901337 3.9373169-16.3864136 2.8131409-12.2530823-8.7161865" fill="none" stroke-width="1.15651"/><path d="m412.8873291 320.5076294c-8.8577576-1.0537415-24.4364319-3.6461182-31.2180786 2.528656" fill="none" stroke-width="1.15651"/><path d="m416.4305115 346.9414978c-8.1860962 3.0925903-14.8008728 4.1797485-20.0732117 3.8113403" fill="none" stroke-width="1.15651"/><path d="m439.0155334 370.5446167c8.1585999-.3042908 16.5737-5.4714661 19.9300842-18.2594604" fill="none" stroke-width="1.15651"/><path d="m423.2121277 364.0655212c6.8458252-1.6263428 12.6586609-6.1240845 15.9512939-12.3425293" fill="none" stroke-width="1.15651"/><path d="m463.3728333 373.3753662c-5.1401062-1.5476379-15.9906006-3.5892334-24.3572998-2.8307495" fill="none" stroke-width="1.15651"/><path d="m434.1455688 392.2167969c3.247406-1.6885071-2.0666809-9.2810059-7.3831177-9.2810059" fill="none" stroke-width="1.15651"/><path d="m372.1431274 404.8703003c7.5181885-3.0706482 14.73349-6.8359985 21.552124-11.2471619" fill="none" stroke-width="1.15651"/><path d="m414.5117798 390.8104553c4.0086365 1.2739868 9.8901062 6.1856689 7.822998 7.874176" fill="none" stroke-width="1.15651"/><path d="m452.4507751 285.6374817c4.723999 7.874176 13.5793457 12.9356689 25.3901672 7.874176.8309326 2.3720093 3.6385193 4.8059387 7.1333313 6.75" fill="none" stroke-width="1.15651"/><path d="m517.6987305 283.6686096c5.9066162 4.4994202-4.4276733 21.09021-19.7798462 20.5281372" fill="none" stroke-width="1.15651"/><path d="m600.3674316 385.1868896c2.0481567 4.6799927 9.7441406 4.2167664 12.6972046 0 3.3720703-4.8190002 9.447876-19.6861267 5.9042358-49.4947815-3.5432129-29.8068542-33.6573486-33.7437134-68.4973145-40.4941711-34.8400269-6.7477417-43.6972656-17.4350586-50.7817688-37.1184998" fill="none" stroke-width="1.15651"/><path d="m606.2739868 369.7202454c2.9511719 4.7793274 11.2183228 3.6551514 12.3986206-1.1264343" fill="none" stroke-width="1.15651"/><path d="m607.15802 353.6914673c4.4300537 2.5305481 12.9910889 1.6863098 12.6948242-3.9372559" fill="none" stroke-width="1.15651"/><path d="m604.7974854 335.9742737c3.8370972 0 14.1713867.5621033 13.5812378-3.9373169" fill="none" stroke-width="1.15651"/><path d="m595.0533447 324.4448853c3.2474365-2.2510071 12.401001-11.8114624 7.3807373-14.6246033" fill="none" stroke-width="1.15651"/><path d="m578.5209351 322.7582397c5.6079712-3.0948792 11.8084717-19.1235962 5.0178223-20.5299377" fill="none" stroke-width="1.15651"/><path d="m551.6523438 319.6633606c8.8572998-3.3752441 17.125-20.8103027 11.2202148-21.9344788" fill="none" stroke-width="1.15651"/><path d="m523.0151978 315.7260742c14.465271-3.6551514 18.8953857-22.214386 13.2849731-23.9029236" fill="none" stroke-width="1.15651"/><path d="m542.7945557 398.9645386c15.0672607 1.1485596 23.3253784 8.7188416 29.2296753 11.8114624" fill="none" stroke-width="1.15651"/><path d="m539.2532349 246.2674408c13.7272339-1.2649994 27.2231445 18.7317047 45.9336548 33.680069" fill="none" stroke-width="1.15651"/><path d="m690.6254883 157.6875916c2.5828247-8.7121277 4.7471313-16.8969116 5.6984863-21.6545563" fill="none" stroke-width="1.15651"/><path d="m551.3305054 415.7846985c3.5239868-.5568542 7.0880737-.8208008 10.6557007-.7891846" fill="none" stroke-width="1.15651"/><path d="m685.1032715 129.2830048c-1.9951172 5.3834076-6.2839966 16.339798-10.559021 26.8727264" fill="none" stroke-width="1.15651"/><path d="m313.7208252 221.8995667c-26.0404968 8.5509949-53.0067444 24.9697571-70.3051758 55.3012085 9.4479065 2.2488098 27.7531128 0 36.0202637-2.8126831.5906372 7.3121033.5906372 16.8729858.5906372 23.0609131 8.2671204-6.1879272 18.3051758-15.1867065 25.9821777-17.4350586-.5924988 7.309845-.5924988 20.2454529-.5924988 25.3092346 11.2207031-11.2494202 32.4770813-12.3735657 38.3836365 4.4971619 4.7234802-24.7453613 43.6948853-25.8695374 53.1427917-4.4971619 10.6305542-19.6856689 37.7929993-26.99823 55.5080872-19.6856689 7.6751099-20.8103027 41.332428-32.0574646 63.1808472-26.9960022-7.2419128-9.5343018-5.947876-20.0762329-.0137939-29.1363983" fill="none" stroke-width="1.15651"/><path d="m230.2288971 85.3907776 11.5809937 2.0395813c-.0000001 0-8.1510163 10.4032516-11.5809937-2.0395813z" stroke-linejoin="round" stroke-width="1.69161"/><path d="m469.33699 295.4756c-7.52342 15.29636-24.04471 11.00912-37.70011 12.95942 19.92457 11.54799 40.46038 14.16701 61.55721-5.15431-5.12226-1.39938-10.46773-3.63535-15.35315-9.76905-2.83465.86205-5.6693 1.49433-8.50395 1.96394z" fill="#c8102e"/></g></svg>