<svg viewBox="0 0 1000 502" xmlns="http://www.w3.org/2000/svg"><g fill-rule="evenodd"><path d="m0 .992188h999.253906v499.625h-999.253906zm0 0" fill="#319208"/><path d="m0 72.371094h999.253906v356.875h-999.253906zm0 0" fill="#ffd200"/><path d="m0 143.742188h999.253906v214.125h-999.253906zm0 0" fill="#de2010"/><path d="m0 215.117188h999.253906v71.375h-999.253906zm0 0"/><path d="m18.171875.992188 333.085937 249.816406-333.085937 249.808594h-18.171875v-499.625zm0 0"/><path d="m0 .992188 333.085938 249.816406-333.085938 249.808594zm0 0" fill="#fff"/><path d="m134.820312 123.914062-56.160156 113.789063 85.34375 42.117187zm0 0" fill="#de2010"/><path d="m134.820312 123.914062 56.15625 113.789063-85.339843 42.117187zm0 0" fill="#de2010"/><path d="m134.820312 123.914062-42.523437 119.554688 89.664063 31.894531zm0 0" fill="#de2010"/><path d="m134.820312 123.914062 42.523438 119.554688-89.664062 31.894531zm0 0" fill="#de2010"/><path d="m255.5 211.59375-125.570312-18.246094-13.6875 94.179688zm0 0" fill="#de2010"/><path d="m14.140625 211.59375 125.570313-18.246094 13.6875 94.179688zm0 0" fill="#de2010"/><path d="m255.5 211.59375-126.839844-3.5-2.625 95.128906zm0 0" fill="#de2010"/><path d="m14.140625 211.59375 126.84375-3.5 2.621094 95.128906zm0 0" fill="#de2010"/><path d="m134.820312 141.761719-44.746093 99.441406 49.722656 22.375zm0 0" fill="#de2010"/><path d="m134.820312 141.761719 44.742188 99.441406-49.722656 22.375zm0 0" fill="#de2010"/><path d="m198.914062 339.023438-22.253906-106.75-53.375 11.128906zm0 0" fill="#de2010"/><path d="m198.914062 339.023438-94.644531-54.148438 27.070313-47.324219zm0 0" fill="#de2010"/><path d="m70.722656 339.023438 94.652344-54.148438-27.078125-47.324219zm0 0" fill="#de2010"/><path d="m70.722656 339.023438 22.257813-106.75 53.371093 11.128906zm0 0" fill="#de2010"/><path d="m113.546875 219.519531c7.835937 17.066407 9.796875 18.1875 29.386719 24.902344 19.589844 6.71875 74.933594 13.085937 80.390625 13.71875-3.566407-3.570313-65.90625-49.75-78.710938-58.984375-12.804687-9.238281-16.371093-13.433594-16.371093-13.433594s-11.542969-20.78125-15.53125-26.867187c-3.988282-6.085938-11.335938-14.691407-20.992188-14.691407-9.652344 0-15.535156 5.667969-18.332031 15.738282-1.539063.421875-9.792969 5.460937-9.515625 10.636718 2.378906-.28125 17.351562-4.476562 22.53125 12.453126 5.175781 16.933593 5.457031 44.636718.140625 58.351562-5.320313 13.71875-13.578125 24.074219-13.578125 36.105469 0 1.679687 1.125 5.039062 3.921875 5.039062.976562 5.316407 8.8125 43.238281 8.8125 43.238281h111.671875l17.734375-68.566406zm0 0" fill="#ffc618"/></g><path d="m113.546875 219.519531c7.835937 17.066407 9.796875 18.1875 29.386719 24.902344 19.589844 6.71875 74.933594 13.085937 80.390625 13.71875-3.566407-3.570313-65.90625-49.75-78.710938-58.984375-12.804687-9.238281-16.371093-13.433594-16.371093-13.433594s-11.542969-20.78125-15.53125-26.867187c-3.988282-6.085938-11.335938-14.691407-20.992188-14.691407-9.652344 0-15.535156 5.667969-18.332031 15.738282-1.539063.421875-9.792969 5.460937-9.515625 10.636718 2.378906-.28125 17.351562-4.476562 22.53125 12.453126 5.175781 16.933593 5.457031 44.636718.140625 58.351562-5.320313 13.71875-13.578125 24.074219-13.578125 36.105469 0 1.679687 1.125 5.039062 3.921875 5.039062.976562 5.316407 8.8125 43.238281 8.8125 43.238281h111.671875l17.734375-68.566406" fill="none" stroke="#000" stroke-width=".839605"/><path d="m76.886719 282.488281s23.789062-1.398437 30.222656-1.398437c6.4375 0 66.359375.074218 99.785156 7.800781" fill="none" stroke="#000" stroke-width=".839605"/><path d="m85.285156 282.011719s-2.382812-2.882813-.84375-8.617188c1.539063-5.742187 18.332032-20.574219 18.332032-41.5625" fill="none" stroke="#000" stroke-width=".839605"/><path d="m99.695312 281.089844s-1.960937-9.375 19.453126-17.355469c6.015624-1.820313 23.222656-11.476563 23.785156-19.3125" fill="none" stroke="#000" stroke-width=".839605"/><path d="m116.867188 264.628906s52.515624.226563 94.074218 8.625" fill="none" stroke="#000" stroke-width=".839605"/><path d="m130.035156 258.359375s18.039063.617187 20.980469-.21875c2.941406-.84375 8.140625-3.027344 10.210937-9.171875" fill="none" stroke="#000" stroke-width=".839605"/><path d="m140.730469 258.578125s9.652343-5.023437 11.539062-11.546875" fill="none" stroke="#000" stroke-width=".839605"/><path d="m111.585938 325.726562s-4.121094-28.613281-4.964844-44.636718l10.773437 10.285156 11.402344-9.972656 9.800781 10.460937 11.332032-9.617187 9.796874 11.015625 11.21875-9.542969 8.929688 10.382812 11.191406-8.09375 13.308594 12.648438" fill="none" stroke="#000" stroke-width=".839605"/><path d="m202.035156 307.6875c-39.972656-5.726562-93.464844-5.351562-93.464844-5.351562" fill="none" stroke="#000" stroke-width=".839605"/><path d="m89.988281 203.429688s32.511719-15.539063 38.253907-17.707032" fill="none" stroke="#000" stroke-width=".839605"/><path d="m107.511719 292.425781 10.929687 9.945313 9.878906-9.871094 9.984376 10.300781 10.785156-9.539062 9.933594 10.4375 11.195312-9.246094 9.152344 10.683594 11.140625-8.515625 11.710937 10.34375" fill="none" stroke="#000" stroke-width=".839606"/><path d="m142.867188 273.53125c0 2.398438-1.945313 4.339844-4.339844 4.339844-2.394532 0-4.339844-1.941406-4.339844-4.339844 0-2.394531 1.945312-4.335938 4.339844-4.335938 2.394531 0 4.339844 1.941407 4.339844 4.335938zm0 0" fill="none" stroke="#000" stroke-width=".839606"/><path d="m161.175781 274.757812c0 2.394532-1.9375 4.34375-4.335937 4.34375-2.394532 0-4.335938-1.949218-4.335938-4.34375 0-2.394531 1.941406-4.335937 4.335938-4.335937 2.398437 0 4.335937 1.941406 4.335937 4.335937zm0 0" fill="none" stroke="#000" stroke-width=".839606"/><path d="m92.03125 157.59375c0 1.855469-1.5 3.359375-3.355469 3.359375-1.859375 0-3.355469-1.503906-3.355469-3.359375 0-1.851562 1.496094-3.359375 3.355469-3.359375 1.855469 0 3.355469 1.507813 3.355469 3.359375zm0 0" fill="none" stroke="#000" stroke-width=".839606"/></svg>