<svg viewBox="0 0 128 84" xmlns="http://www.w3.org/2000/svg" xmlns:xlink="http://www.w3.org/1999/xlink"><clipPath id="a"><path d="m0 0h128v83.761719h-128zm0 0"/></clipPath><clipPath id="b"><path d="m39 0h25v83.761719h-25zm0 0"/></clipPath><clipPath id="c"><path d="m38 0h27v83.761719h-27zm0 0"/></clipPath><clipPath id="d"><path d="m46 0h11v83.761719h-11zm0 0"/></clipPath><clipPath id="e"><path d="m46 0h12v83.761719h-12zm0 0"/></clipPath><g clip-path="url(#a)"><path d="m0 83.691406v-83.691406h128v83.691406zm0 0" fill="#0053a5" stroke="#0053a5" stroke-linecap="square" stroke-miterlimit="3.239307"/></g><g clip-path="url(#b)"><path d="m39.382812 83.691406v-83.691406h24.617188v83.691406zm0 0" fill="#ffce00"/></g><g clip-path="url(#c)"><path d="m39.382812 83.691406v-83.691406h24.617188v83.691406zm0 0" fill="none" stroke="#ffce00" stroke-linecap="square" stroke-miterlimit="3.239307"/></g><path d="m0 54.152344v-24.613282h128v24.613282zm0 0" fill="#ffce00" stroke="#ffce00" stroke-linecap="square" stroke-miterlimit="3.239307"/><g clip-path="url(#d)"><path d="m46.769531 83.691406v-83.691406h9.847657v83.691406zm0 0" fill="#d21034"/></g><g clip-path="url(#e)"><path d="m46.769531 83.691406v-83.691406h9.847657v83.691406zm0 0" fill="none" stroke="#d21034" stroke-linecap="square" stroke-miterlimit="3.239307"/></g><path d="m0 46.769531v-9.847656h128v9.847656zm0 0" fill="#d21034" stroke="#d21034" stroke-linecap="square" stroke-miterlimit="3.239307"/></svg>