<?xml version="1.0" encoding="UTF-8"?>
<!DOCTYPE svg PUBLIC '-//W3C//DTD SVG 20010904//EN' 'http://www.w3.org/TR/2001/REC-SVG-20010904/DTD/svg10.dtd'>
<svg width="1859pt" height="278pt" version="1.0" viewBox="0 0 1859 278" xmlns="http://www.w3.org/2000/svg">
<g transform="translate(0 278) scale(.1 -.1)" fill="#fff">
<path d="m470 2756c-252-56-390-299-446-784-20-169-22-636-5-802 52-491 198-760 446-825 32-8 101-15 151-15h92l116-290h124c114 0 124 1 118 18-4 9-39 100-78 201-46 120-68 188-62 196 127 166 190 338 231 635 22 157 25 722 5 895-27 231-79 426-145 545-42 75-130 161-197 192-98 47-235 60-350 34zm194-268c63-19 136-97 173-188 63-150 93-386 93-715-1-660-102-964-326-983-182-15-298 197-335 618-16 180-7 670 15 805 31 194 78 330 139 401 56 66 148 89 241 62z"/>
<path d="m2100 2740c-252-68-425-224-521-470-84-214-114-442-106-803 6-325 40-511 128-705 111-246 348-412 620-437 82-7 208 8 219 26 4 6 11 48 14 93 4 44 9 96 13 114l5 32h-119c-73 0-141 6-176 15-244 63-385 270-432 632-20 149-20 457 0 606 36 276 133 475 277 569 105 69 221 94 363 79 44-4 81-7 83-6 7 5-29 250-38 259-6 6-65 11-133 13-98 2-137-1-197-17z"/>
<path d="m4110 2740c-252-68-425-224-521-470-84-214-114-442-106-803 6-325 40-511 128-705 111-246 348-412 620-437 82-7 208 8 219 26 4 6 11 48 14 93 4 44 9 96 13 114l5 32h-119c-129 0-203 14-281 54-235 119-342 401-342 896 0 307 36 508 121 672 66 125 152 207 267 252 66 25 177 37 267 27 44-4 81-7 83-6 7 5-29 250-38 259-6 6-65 11-133 13-98 2-137-1-197-17z"/>
<path d="m10657 2733c-2-5 85-537 194-1183s198-1178 199-1182c0-5 74-8 164-8h164l11 63c20 112 381 2271 384 2292 2 19-5 20-119 23-110 2-122 1-126-15-2-10-74-429-159-931-90-532-157-906-161-895-4 10-73 418-153 908-81 490-149 900-152 913-5 21-9 22-123 22-66 0-121-3-123-7z"/>
<path d="m8243 2565c-86-37-88-206-3-250 44-23 131-20 164 6 80 63 72 203-14 246-33 17-107 16-147-2z"/>
<path d="m12103 2565c-86-37-88-206-3-250 44-23 131-20 164 6 80 63 72 203-14 246-33 17-107 16-147-2z"/>
<path d="m5086 2064c-225-54-370-258-421-594-17-112-20-375-4-485 47-338 190-558 408-625 78-24 202-26 286-5 267 69 425 383 425 844 0 475-163 792-445 866-72 18-170 18-249-1zm222-260c131-54 204-235 218-534 10-214-16-403-72-514-54-108-125-155-235-156-222-1-329 226-316 670 3 103 12 206 21 250 31 143 106 255 192 285 52 19 146 19 192-1z"/>
<path d="m6593 2066c-62-20-131-63-190-118l-51-49-21 55c-11 30-23 67-27 81-6 24-8 25-95 25h-89v-850-850h124 125l3 542c3 537 3 544 26 607 31 86 78 156 141 213 59 53 112 74 163 64 47-9 74-40 94-111 16-54 18-127 22-687l3-628h130 129v538c0 588 0 582 60 702 103 203 303 258 357 98 16-48 18-113 21-695l3-643h130 130l-4 672c-4 740-5 746-68 875-52 108-134 159-274 170-52 4-87 1-130-12-75-21-181-91-238-156l-43-49-24 51c-30 62-95 122-158 144-65 23-196 29-249 11z"/>
<path d="m9330 2073c-55-9-158-46-210-76-69-39-165-136-209-210-152-257-174-735-47-1047 75-188 206-315 386-376 74-25 326-27 380-3l36 16 18 117c10 64 16 119 14 122-3 2-25 0-49-5-24-6-87-11-140-11-251 0-402 121-455 365-26 124-24 394 5 500 55 204 153 310 327 351 82 19 210 15 268-10 22-9 41-15 43-12 2 2-2 59-9 127l-13 124-65 17c-61 16-216 22-280 11z"/>
<path d="m13058 2064c-82-19-134-48-201-113-127-121-192-300-217-599-14-162-1-336 36-480 85-337 310-532 613-532 85 0 196 15 219 29 12 7 58 239 49 247-2 2-19-1-38-7-19-5-79-10-134-11-269-3-419 113-469 364-9 42-16 91-16 108v30h380 380l6 25c4 14 4 126 1 248-4 197-7 233-30 320-70 263-220 389-461 386-33 0-87-7-118-15zm209-253c89-41 141-161 150-348l6-113h-263-262l7 78c19 203 77 326 178 377 62 30 125 32 184 6z"/>
<path d="m16258 2064c-82-19-134-48-201-113-127-121-192-300-217-599-14-162-1-336 36-480 85-337 310-532 613-532 85 0 196 15 219 29 12 7 58 239 49 247-2 2-19-1-38-7-19-5-79-10-134-11-269-3-419 113-469 364-9 42-16 91-16 108v30h380 380l6 25c4 14 4 126 1 248-4 197-7 233-30 320-70 263-220 389-461 386-33 0-87-7-118-15zm209-253c89-41 141-161 150-348l6-113h-263-262l7 78c19 203 77 326 178 377 62 30 125 32 184 6z"/>
<path d="m17785 2065c-114-25-207-71-283-140l-38-34-28 85-27 84h-95-94v-850-850h129 130l3 523c4 507 5 524 27 597 30 100 65 163 126 226 92 93 196 130 351 122 52-3 94-2 94 1 0 4-7 61-15 126-8 66-15 121-15 123 0 8-216-2-265-13z"/>
<path d="m8190 1210v-850h130 130v850 850h-130-130v-850z"/>
<path d="m12050 1210v-850h130 130v850 850h-130-130v-850z"/>
<path d="m13910 2057c0-4 329-1651 335-1675 5-22 8-22 150-22 128 0 144 2 149 18 2 9 53 256 113 549 59 293 110 529 114 525 3-4 55-251 114-549l109-543h146 145l168 843c92 463 168 845 167 850 0 4-58 7-129 7-115 0-130-2-135-17-2-10-51-280-108-600s-106-579-109-575c-4 4-55 252-113 552-59 300-112 566-118 593l-10 47h-133c-130 0-133-1-138-22-3-13-56-285-118-606-74-383-116-576-120-560-4 13-54 285-110 606l-103 582h-133c-73 0-133-1-133-3z"/>
</g>
</svg>
